<svg width="750" height="400" version="1.1" viewBox="0 0 198.44 105.83" xmlns="http://www.w3.org/2000/svg">
 <path d="m92.777 91.376c-0.62321-0.51761-1.6721-1.1954-2.3308-1.5063-1.4073-0.66407-1.7063-1.6063-0.798-2.5147 0.53626-0.53628 1.613-0.64995 6.1567-0.64995 5.8128 0 7.0891 0.33685 6.8059 1.7962-0.0791 0.40756-0.77141 1.0915-1.5385 1.5199-0.76707 0.42839-1.8286 1.1202-2.359 1.5374-1.4292 1.1242-4.4758 1.0304-5.9364-0.18261zm-4.8527-6.747c-0.26916-0.26916-0.48937-0.79198-0.48937-1.1618 0-1.4399 0.89411-1.5935 8.6271-1.4812 6.6548 0.09666 7.572 0.19005 7.9632 0.81074 0.3222 0.51128 0.32219 0.89173-1e-5 1.403-0.39146 0.62113-1.3109 0.71393-8.0268 0.81006-5.561 0.07954-7.7153-0.02197-8.0741-0.38082zm-1.8637-4.9675c-0.34646-0.34646-0.62992-0.78454-0.62992-0.97351 0-0.18897 0.28346-0.62706 0.62992-0.97351 0.53674-0.53674 2.0169-0.62992 10.007-0.62992 8.8609 0 9.4003 0.04272 9.7924 0.77536 0.53667 1.0028 0.53027 1.0564-0.21496 1.8016-0.53591 0.53591-1.9973 0.62992-9.7924 0.62992-7.795 0-9.2565-0.09393-9.7924-0.62992zm2.1104-4.5374c-3.3063-0.69178-4.5524-2.2599-5.1417-6.4708-0.58482-4.1786-1.2991-6.1559-4.6453-12.859-4.1939-8.4008-4.8638-11.683-3.6007-17.642 1.605-7.572 7.6003-13.846 15.43-16.147 2.7134-0.79748 8.3108-0.82628 11.199-0.05757 9.2882 2.4721 16.057 11.261 16.081 20.88 9e-3 3.6513-0.93835 6.6318-4.0717 12.811-3.3376 6.5825-4.2088 8.9377-4.5622 12.334-0.36157 3.4748-1.4616 5.6573-3.3034 6.554-1.2375 0.60247-2.6899 0.73836-8.7009 0.81413-3.9685 0.05-7.8763-0.04727-8.6841-0.21635zm15.29-3.3735c1.573-0.53972 1.6566-0.73473 2.6102-6.0905 0.53647-3.0128 1.2404-4.8471 4.2695-11.124 3.404-7.0541 3.6404-7.7105 3.8435-10.674 0.26819-3.9127-0.72232-7.548-3.029-11.117-1.915-2.9628-4.2585-4.9309-7.9018-6.6358-2.2996-1.0761-3.3813-1.3281-6.3001-1.4677-4.042-0.19324-6.2155 0.27525-9.7062 2.0922-4.9577 2.5805-8.6626 7.7957-9.5331 13.419-0.67455 4.358-0.06533 6.7082 3.8575 14.881 3.9817 8.2958 3.7211 7.5857 4.4593 12.15 0.323 1.9971 0.75444 3.7982 0.95876 4.0026 0.73279 0.73279 3.1467 1.0054 9.0642 1.0235 3.6617 0.0106 6.5581-0.16868 7.4072-0.46004zm-39.932-10.099c-0.4319-1.1255 0.18927-1.7 4.5328-4.1925 4.479-2.5701 5.3958-2.7241 5.6625-0.95115 0.0878 0.5836-0.38606 1.0619-1.8311 1.8484-1.0722 0.58359-3.009 1.699-4.3039 2.4788-2.5425 1.531-3.6971 1.7631-4.0604 0.81642zm58.855-1.8388c-2.2743-1.3431-4.2382-2.7104-4.364-3.0385-0.1259-0.32805 0.0598-0.88525 0.41285-1.2382 0.58839-0.58841 0.8178-0.54644 2.7606 0.50493 5.3224 2.8803 6.9292 4.0497 6.9292 5.043 0 1.6245-1.3366 1.3285-5.7386-1.2712zm-59-11.339c0-0.88084 0.26371-0.99945 3.565-1.6034 4.882-0.89319 5.2539-0.86894 5.2539 0.34229 0 1.0841 0.01333 1.0788-4.4423 1.7907-3.9522 0.63154-4.3766 0.5802-4.3766-0.52961zm60.529 0.55541c-0.77165-0.1734-2.0794-0.43403-2.9062-0.57918-1.2571-0.22071-1.5032-0.42501-1.5032-1.2479 0-1.1993 0.38073-1.2233 5.2539-0.33176 3.3012 0.60397 3.565 0.72258 3.565 1.6034 0 0.8391-0.17719 0.94647-1.5032 0.91096-0.82676-0.02212-2.1346-0.18214-2.9062-0.35555zm-2.394-9.7749c-0.49211-0.49211-0.54441-1.7258-0.0851-2.0097 0.62751-0.38782 10.221-1.8875 10.757-1.6816 0.68041 0.2611 0.70729 1.6813 0.04 2.1132-0.98955 0.64045-10.281 2.0092-10.712 1.578zm-58.039-0.60657c-2.0416-0.38256-3.9085-0.89199-4.1486-1.1321-0.50705-0.50705-0.10566-2.1207 0.52752-2.1207 1.2212 0 10.187 1.6996 10.477 1.9861 0.18603 0.18364 0.27467 0.66873 0.19697 1.078-0.1928 1.0156-2.3346 1.0729-7.0533 0.18868zm6.9189-9.1585c-2.2909-1.3651-3.2069-2.1383-3.2069-2.7071 0-1.3686 1.1908-1.1185 4.7872 1.0058 2.4652 1.4561 3.4405 2.2498 3.3498 2.7262-0.23138 1.2146-1.676 0.91428-4.9301-1.0248zm46.021 1.238c-0.30024-0.78239 0.2155-1.1974 4.2214-3.3969 2.9982-1.6462 4.0739-1.7618 4.0739-0.43759 0 0.51348-1.031 1.3212-3.3415 2.6182-3.5884 2.0142-4.5564 2.2519-4.9538 1.2163zm-39.544-8.4566c-5.5471-6.0617-6.4835-7.8167-4.2721-8.0066 0.82056-0.07045 1.5651 0.5978 4.1088 3.6881 1.7087 2.0758 3.1066 4.0473 3.1066 4.3812 0 0.33387-0.35198 0.79541-0.78218 1.0256-0.65608 0.35112-1.0045 0.17568-2.1611-1.0882zm35.706 1.0466c-1.1919-0.66701-0.74482-1.6369 2.4704-5.3595 2.3213-2.6876 3.363-3.6077 4.0844-3.6077 1.8262 0 1.3275 1.4142-1.8306 5.1914-3.3651 4.0248-3.7416 4.3257-4.7242 3.7758zm-26.12-3.108c-0.6667-1.0787-2.6545-7.4335-2.473-7.9063 0.16948-0.44166 1.8425-0.85763 1.843-0.45824 6.1e-5 0.05515 0.61998 1.8343 1.3776 3.9538 1.0287 2.8778 1.2621 3.969 0.92185 4.3092-0.54378 0.54378-1.3652 0.59371-1.6694 0.10151zm17.121-0.12969c-0.29673-0.37133-0.0152-1.6263 0.99342-4.4266 1.107-3.0739 1.5698-3.9084 2.1672-3.9084 1.3094 0 1.2817 1.1283-0.12105 4.928-1.3436 3.6394-2.1403 4.5323-3.0396 3.407zm-8.4433-3.0609c-0.3849-0.24424-0.4851-1.6707-0.40087-5.7061l0.11242-5.3804h2.0043l0.11227 5.3804c0.10741 5.1442-0.0567 6.0317-1.1145 6.0317-0.1103 0-0.43138-0.1465-0.71363-0.32566z" fill="#e65bff"/>
</svg>
