<svg width="311.14" height="50.5" version="1.1" viewBox="0 0 82.322 13.362" xmlns="http://www.w3.org/2000/svg">
 <g transform="translate(-78.201 -68.957)" stroke-linecap="round" stroke-width=".26459" aria-label="WAVE TABLE">
  <path d="m115.52 69.089-7.8716 3.2412 7.8716 3.2413h36.977l7.683-3.2413-7.683-3.2412z" fill="#1d232d" stroke="#e9e56f"/>
  <g fill="#e8eaec" aria-label="Dramatic music">
   <path d="m123.76 73.382h0.53341c0.62867 0 0.97158-0.38736 0.97158-1.051 0-0.66042-0.34291-1.0319-0.98428-1.0319h-0.52071zm0.2667-0.21591v-1.651h0.23496c0.48896 0 0.73027 0.29211 0.73027 0.816 0 0.52706-0.24131 0.83505-0.73027 0.83505z"/>
   <path d="m125.68 73.382h0.26036v-0.99063c0.10478-0.26036 0.26036-0.35561 0.39054-0.35561 0.0635 0 0.0984 0.0095 0.14923 0.0254l0.0508-0.22861c-0.0508-0.02223-0.0984-0.03175-0.16511-0.03175-0.17463 0-0.33338 0.12383-0.43816 0.31751h-0.01l-0.0222-0.27941h-0.21591z"/>
   <path d="m126.63 72.982c0 0.27623 0.19368 0.43816 0.45404 0.43816 0.19051 0 0.36196-0.1016 0.51119-0.22226h6e-3l0.0222 0.18416h0.2159v-0.94618c0-0.38419-0.15875-0.63502-0.53659-0.63502-0.24766 0-0.46356 0.10795-0.60644 0.20003l0.10478 0.18098c0.12065-0.08255 0.27941-0.1651 0.46039-0.1651 0.25083 0 0.3175 0.19051 0.3175 0.38736-0.65724 0.07303-0.94935 0.24131-0.94935 0.57787zm0.25719-0.01905c0-0.19686 0.17462-0.32386 0.69216-0.38736v0.42864c-0.14922 0.13335-0.27305 0.20638-0.42228 0.20638-0.15241 0-0.26988-0.07303-0.26988-0.24766z"/>
   <path d="m128.33 73.382h0.26036v-1.1176c0.14287-0.15875 0.27305-0.23813 0.38736-0.23813 0.19685 0 0.28893 0.12383 0.28893 0.41276v0.943h0.26036v-1.1176c0.14288-0.15875 0.2667-0.23813 0.38736-0.23813 0.19368 0 0.28576 0.12383 0.28576 0.41276v0.943h0.26035v-0.97793c0-0.39371-0.1524-0.60327-0.46991-0.60327-0.18733 0-0.34608 0.12065-0.50801 0.29528-0.0635-0.18416-0.19051-0.29528-0.42547-0.29528-0.18415 0-0.34608 0.1143-0.47944 0.26036h-0.01l-0.0222-0.22226h-0.2159z"/>
   <path d="m130.89 72.982c0 0.27623 0.19368 0.43816 0.45404 0.43816 0.1905 0 0.36196-0.1016 0.51118-0.22226h6e-3l0.0222 0.18416h0.21591v-0.94618c0-0.38419-0.15876-0.63502-0.53659-0.63502-0.24766 0-0.46357 0.10795-0.60645 0.20003l0.10478 0.18098c0.12066-0.08255 0.27941-0.1651 0.46039-0.1651 0.25083 0 0.31751 0.19051 0.31751 0.38736-0.65724 0.07303-0.94935 0.24131-0.94935 0.57787zm0.25718-0.01905c0-0.19686 0.17463-0.32386 0.69217-0.38736v0.42864c-0.14923 0.13335-0.27306 0.20638-0.42229 0.20638-0.1524 0-0.26988-0.07303-0.26988-0.24766z"/>
   <path d="m132.63 72.905c0 0.30481 0.11113 0.51436 0.44134 0.51436 0.0952 0 0.20003-0.02858 0.28576-0.05715l-0.0508-0.19686c-0.0508 0.01905-0.12065 0.04128-0.17463 0.04128-0.17781 0-0.23813-0.10795-0.23813-0.29846v-0.85728h0.41593v-0.21273h-0.41593v-0.43181h-0.21908l-0.0318 0.43181-0.2413 0.01588v0.19686h0.2286z"/>
   <path d="m133.79 71.521c0.1016 0 0.18098-0.06985 0.18098-0.16828 0-0.1016-0.0794-0.16828-0.18098-0.16828-0.1016 0-0.18098 0.06668-0.18098 0.16828 0 0.09843 0.0794 0.16828 0.18098 0.16828zm-0.13335 1.8606h0.26035v-1.5431h-0.26035z"/>
   <path d="m134.33 72.613c0 0.51119 0.31434 0.80647 0.72392 0.80647 0.18416 0 0.36196-0.0762 0.50167-0.20003l-0.11748-0.17145c-0.0921 0.08255-0.21591 0.15558-0.36196 0.15558-0.28258 0-0.47627-0.23813-0.47627-0.59057 0-0.35561 0.20321-0.59692 0.48262-0.59692 0.12383 0 0.21908 0.05715 0.31116 0.13653l0.13018-0.16828c-0.10478-0.09843-0.24766-0.18416-0.45087-0.18416-0.39688 0-0.74297 0.29528-0.74297 0.81282z"/>
   <path d="m136.52 73.382h0.26036v-1.1176c0.14288-0.15875 0.27305-0.23813 0.38736-0.23813 0.19685 0 0.28893 0.12383 0.28893 0.41276v0.943h0.26036v-1.1176c0.14288-0.15875 0.26671-0.23813 0.38736-0.23813 0.19368 0 0.28576 0.12383 0.28576 0.41276v0.943h0.26035v-0.97793c0-0.39371-0.1524-0.60327-0.46991-0.60327-0.18733 0-0.34608 0.12065-0.50801 0.29528-0.0635-0.18416-0.19051-0.29528-0.42547-0.29528-0.18415 0-0.34608 0.1143-0.47943 0.26036h-0.01l-0.0222-0.22226h-0.2159z"/>
   <path d="m139.13 72.816c0 0.39371 0.14606 0.60327 0.47309 0.60327 0.21273 0 0.36514-0.11113 0.50802-0.27941h0.01l0.0222 0.24131h0.2159v-1.5431h-0.26035v1.0954c-0.14606 0.18098-0.25719 0.26036-0.41594 0.26036-0.20321 0-0.28893-0.12383-0.28893-0.41276v-0.943h-0.26354z"/>
   <path d="m140.71 73.207c0.14606 0.12065 0.35561 0.21273 0.57469 0.21273 0.36514 0 0.56517-0.20956 0.56517-0.46039 0-0.29211-0.24766-0.38419-0.46991-0.46674-0.17463-0.06668-0.34291-0.12383-0.34291-0.26671 0-0.11748 0.0889-0.22226 0.28258-0.22226 0.13653 0 0.24766 0.05715 0.35243 0.13653l0.12383-0.1651c-0.11748-0.09525-0.28576-0.17463-0.47944-0.17463-0.33338 0-0.53024 0.19051-0.53024 0.43816 0 0.26036 0.24131 0.36514 0.46039 0.44451 0.16828 0.0635 0.35244 0.13335 0.35244 0.29211 0 0.13335-0.10161 0.24131-0.30481 0.24131-0.18416 0-0.32069-0.0762-0.45404-0.18416z"/>
   <path d="m142.35 71.521c0.1016 0 0.18098-0.06985 0.18098-0.16828 0-0.1016-0.0794-0.16828-0.18098-0.16828-0.1016 0-0.18098 0.06668-0.18098 0.16828 0 0.09843 0.0794 0.16828 0.18098 0.16828zm-0.13335 1.8606h0.26035v-1.5431h-0.26035z"/>
   <path d="m142.88 72.613c0 0.51119 0.31434 0.80647 0.72392 0.80647 0.18416 0 0.36196-0.0762 0.50167-0.20003l-0.11748-0.17145c-0.0921 0.08255-0.21591 0.15558-0.36196 0.15558-0.28259 0-0.47627-0.23813-0.47627-0.59057 0-0.35561 0.20321-0.59692 0.48262-0.59692 0.12383 0 0.21908 0.05715 0.31116 0.13653l0.13018-0.16828c-0.10478-0.09843-0.24766-0.18416-0.45087-0.18416-0.39688 0-0.74297 0.29528-0.74297 0.81282z"/>
  </g>
  <path d="m115.42 69.134-7.7641 3.1968 7.7641 3.1968" fill="#1d232d" stroke="#e9e56f"/>
  <path d="m117.95 75.704h-39.622v6.4824h39.622l7.8716-3.2412z" fill="#1d232d" stroke="#009244"/>
  <g fill="#e8eaec" aria-label="Ambient music">
   <path d="m90.856 79.149 0.1016-0.31751c0.07303-0.23178 0.1397-0.46039 0.20638-0.7017h0.0127c0.06668 0.24131 0.13335 0.46991 0.20638 0.7017l0.09843 0.31751zm0.8922 0.84775h0.27941l-0.70487-2.0829h-0.29846l-0.70487 2.0829h0.26988l0.20003-0.63502h0.75885z"/>
   <path d="m92.286 79.996h0.26036v-1.1176c0.14288-0.15875 0.27306-0.23813 0.38736-0.23813 0.19686 0 0.28893 0.12383 0.28893 0.41276v0.943h0.26036v-1.1176c0.14288-0.15875 0.26671-0.23813 0.38736-0.23813 0.19368 0 0.28576 0.12383 0.28576 0.41276v0.943h0.26036v-0.97793c0-0.39371-0.1524-0.60327-0.46991-0.60327-0.18733 0-0.34608 0.12065-0.50801 0.29528-0.0635-0.18416-0.1905-0.29528-0.42546-0.29528-0.18416 0-0.34608 0.1143-0.47944 0.26036h-0.0095l-0.02223-0.22226h-0.21591z"/>
   <path d="m94.915 79.996h0.20956l0.02223-0.1524h0.0095c0.13653 0.12065 0.29846 0.1905 0.44134 0.1905 0.35244 0 0.66677-0.30798 0.66677-0.83505 0-0.47626-0.21273-0.78425-0.61279-0.78425-0.17146 0-0.34291 0.09208-0.48261 0.21591l0.0063-0.27941v-0.61597h-0.26036zm0.26036-0.34291v-0.80965c0.14605-0.13653 0.28258-0.20956 0.41276-0.20956 0.29211 0 0.40641 0.22861 0.40641 0.56834 0 0.38101-0.18733 0.61279-0.44134 0.61279-0.1016 0-0.24131-0.04445-0.37784-0.16193z"/>
   <path d="m96.81 78.136c0.1016 0 0.18098-0.06985 0.18098-0.16828 0-0.1016-0.07938-0.16828-0.18098-0.16828-0.1016 0-0.18098 0.06668-0.18098 0.16828 0 0.09843 0.07938 0.16828 0.18098 0.16828zm-0.13335 1.8606h0.26036v-1.5431h-0.26036z"/>
   <path d="m97.343 79.228c0 0.50484 0.32703 0.80647 0.7398 0.80647 0.20956 0 0.37466-0.07303 0.50801-0.15875l-0.09208-0.17146c-0.1143 0.07303-0.23813 0.12065-0.38419 0.12065-0.29528 0-0.49531-0.20956-0.51436-0.54294h1.0414c0.0063-0.0381 0.0095-0.0889 0.0095-0.14288 0-0.44134-0.22226-0.72392-0.61597-0.72392-0.35244 0-0.69217 0.30798-0.69217 0.81282zm0.25401-0.11748c0.03175-0.31116 0.22861-0.48896 0.44451-0.48896 0.24131 0 0.38101 0.17463 0.38101 0.48896z"/>
   <path d="m99.033 79.996h0.26036v-1.1176c0.15558-0.15558 0.26353-0.23813 0.42229-0.23813 0.20321 0 0.2921 0.12383 0.2921 0.41276v0.943h0.26036v-0.97793c0-0.39371-0.14605-0.60327-0.46991-0.60327-0.21273 0-0.37149 0.1143-0.51754 0.26036h-0.0095l-0.02223-0.22226h-0.21591z"/>
   <path d="m100.81 79.52c0 0.30481 0.11113 0.51436 0.44134 0.51436 0.0953 0 0.20003-0.02858 0.28575-0.05715l-0.0508-0.19686c-0.0508 0.01905-0.12065 0.04128-0.17463 0.04128-0.1778 0-0.23813-0.10795-0.23813-0.29846v-0.85728h0.41594v-0.21273h-0.41594v-0.43182h-0.21908l-0.0318 0.43181-0.24131 0.01588v0.19686h0.22861z"/>
   <path d="m102.48 79.996h0.26036v-1.1176c0.14288-0.15875 0.27306-0.23813 0.38736-0.23813 0.19685 0 0.28893 0.12383 0.28893 0.41276v0.943h0.26036v-1.1176c0.14288-0.15875 0.26671-0.23813 0.38736-0.23813 0.19368 0 0.28576 0.12383 0.28576 0.41276v0.943h0.26036v-0.97793c0-0.39371-0.15241-0.60327-0.46992-0.60327-0.18733 0-0.34608 0.12065-0.50801 0.29528-0.0635-0.18416-0.19051-0.29528-0.42546-0.29528-0.18416 0-0.34609 0.1143-0.47944 0.26036h-0.01l-0.0222-0.22226h-0.21591z"/>
   <path d="m105.09 79.431c0 0.39371 0.14605 0.60327 0.47308 0.60327 0.21273 0 0.36514-0.11113 0.50802-0.27941h0.01l0.0222 0.24131h0.21591v-1.5431h-0.26036v1.0954c-0.14606 0.18098-0.25718 0.26036-0.41594 0.26036-0.2032 0-0.28893-0.12383-0.28893-0.41276v-0.943h-0.26353z"/>
   <path d="m106.67 79.822c0.14606 0.12065 0.35561 0.21273 0.57469 0.21273 0.36514 0 0.56517-0.20956 0.56517-0.46039 0-0.29211-0.24766-0.38419-0.46991-0.46674-0.17463-0.06668-0.34291-0.12383-0.34291-0.26671 0-0.11748 0.0889-0.22226 0.28258-0.22226 0.13653 0 0.24766 0.05715 0.35243 0.13653l0.12383-0.1651c-0.11748-0.09525-0.28576-0.17463-0.47944-0.17463-0.33338 0-0.53024 0.19051-0.53024 0.43816 0 0.26036 0.24131 0.36514 0.46039 0.44451 0.16828 0.0635 0.35244 0.13335 0.35244 0.29211 0 0.13335-0.10161 0.24131-0.30481 0.24131-0.18416 0-0.32069-0.0762-0.45404-0.18416z"/>
   <path d="m108.31 78.136c0.1016 0 0.18098-0.06985 0.18098-0.16828 0-0.1016-0.0794-0.16828-0.18098-0.16828-0.1016 0-0.18098 0.06668-0.18098 0.16828 0 0.09843 0.0794 0.16828 0.18098 0.16828zm-0.13335 1.8606h0.26035v-1.5431h-0.26035z"/>
   <path d="m108.84 79.228c0 0.51119 0.31434 0.80647 0.72392 0.80647 0.18416 0 0.36196-0.0762 0.50167-0.20003l-0.11748-0.17145c-0.0921 0.08255-0.21591 0.15558-0.36196 0.15558-0.28258 0-0.47626-0.23813-0.47626-0.59057 0-0.35561 0.2032-0.59692 0.48261-0.59692 0.12383 0 0.21908 0.05715 0.31116 0.13653l0.13018-0.16828c-0.10478-0.09843-0.24766-0.18416-0.45086-0.18416-0.39689 0-0.74298 0.29528-0.74298 0.81282z"/>
  </g>
  <path d="m118.06 82.142 7.7641-3.1968-7.7641-3.1968" fill="#1d232d" stroke="#009244"/>
 </g>
</svg>
