<svg width="390.52" height="51" version="1.1" viewBox="0 0 103.33 13.494" xmlns="http://www.w3.org/2000/svg">
 <g transform="translate(-55.919 -49.794)" stroke="#cf2f25" stroke-linecap="round" stroke-width=".26459" aria-label="WAVE TABLE">
  <path d="m56.182 56.673h103.06v6.4824h-103.06z" fill="#1d232d" stroke="none"/>
  <g fill="#e8eaec" stroke="none" stroke-linecap="round" stroke-width=".26459" aria-label="Town">
   <path d="m66.771 60.965h0.26353v-1.8606h0.63184v-0.22226h-1.5272v0.22226h0.63184z"/>
   <path d="m67.681 60.197c0 0.51119 0.33656 0.80647 0.7144 0.80647 0.37784 0 0.7144-0.29528 0.7144-0.80647 0-0.51754-0.33656-0.81282-0.7144-0.81282-0.37784 0-0.7144 0.29528-0.7144 0.81282zm0.26988 0c0-0.35561 0.18098-0.59692 0.44451-0.59692 0.26671 0 0.44451 0.24131 0.44451 0.59692 0 0.35244-0.1778 0.59057-0.44451 0.59057-0.26353 0-0.44451-0.23813-0.44451-0.59057z"/>
   <path d="m69.752 60.965h0.30481l0.21591-0.82552c0.04128-0.14605 0.07303-0.29211 0.10795-0.44769h0.0127c0.0381 0.15558 0.06668 0.29846 0.10478 0.44451l0.22226 0.8287h0.31751l0.41276-1.5431h-0.24766l-0.22543 0.8922c-0.03175 0.14605-0.06033 0.28576-0.09525 0.42864h-0.0127c-0.03493-0.14288-0.06985-0.28258-0.10795-0.42864l-0.24131-0.8922h-0.25401l-0.23813 0.8922c-0.0381 0.14288-0.06985 0.28576-0.10478 0.42864h-0.0127c-0.02858-0.14288-0.05715-0.28258-0.09208-0.42864l-0.22861-0.8922h-0.26671z"/>
   <path d="m71.789 60.965h0.26036v-1.1176c0.15558-0.15558 0.26353-0.23813 0.42229-0.23813 0.2032 0 0.29211 0.12383 0.29211 0.41276v0.943h0.26036v-0.97793c0-0.39371-0.14605-0.60327-0.46991-0.60327-0.21273 0-0.37149 0.1143-0.51754 0.26036h-0.0095l-0.02223-0.22226h-0.21591z"/>
  </g>
  <g fill="none" stroke-linecap="square" stroke-miterlimit="40" stroke-width=".26459">
   <g stroke="#009244">
    <path d="m56.182 56.673h102.93"/>
    <path d="m56.182 63.156h102.93"/>
    <path d="m159.11 56.805v6.3502" stroke-dasharray="0.7937725, 0.7937725"/>
    <path d="m56.05 56.805v6.3502" stroke-dasharray="0.7937725, 0.7937725"/>
   </g>
   <g stroke="#e9e56f">
    <path d="m82.509 56.68c3.1751 0 1.8521-6.7535 7.9377-6.7535h8.7315"/>
    <path d="m82.509 63.156c3.1751 0 1.8521-6.6148 7.9377-6.6148h8.7315"/>
    <path d="m82.509 56.805v6.3502" stroke-dasharray="0.7937725, 0.7937725"/>
    <path d="m108.97 56.68c3.1751 0 1.8521-6.7535 7.9377-6.7535h8.7315"/>
    <path d="m108.97 63.156c3.1751 0 1.8521-6.6148 7.9377-6.6148h8.7315"/>
    <path d="m108.97 56.805v6.3502" stroke-dasharray="0.7937725, 0.7937725"/>
    <path d="m135.43 56.68c3.1751 0 1.8521-6.7535 7.9377-6.7535h8.7315"/>
    <path d="m135.43 63.156c3.1751 0 1.8521-6.6148 7.9377-6.6148h8.7315"/>
    <path d="m135.43 56.805v6.3502" stroke-dasharray="0.7937725, 0.7937725"/>
   </g>
  </g>
  <g fill="#e8eaec" stroke="none" stroke-linecap="round" stroke-width=".26459">
   <g aria-label="Shop">
    <path d="m91.213 54.081c0.18098 0.18733 0.43499 0.30798 0.7271 0.30798 0.43816 0 0.71122-0.26353 0.71122-0.59374 0-0.30798-0.18733-0.45086-0.42864-0.55564l-0.29846-0.127c-0.16193-0.06985-0.34608-0.14605-0.34608-0.34608 0-0.18733 0.15558-0.30481 0.39054-0.30481 0.19051 0 0.34608 0.0762 0.47309 0.19686l0.1397-0.17146c-0.14605-0.1524-0.36514-0.25718-0.61279-0.25718-0.37784 0-0.65724 0.23496-0.65724 0.55247 0 0.30481 0.22861 0.45404 0.42229 0.53659l0.29846 0.13018c0.19686 0.0889 0.34926 0.15558 0.34926 0.36831 0 0.20321-0.16193 0.33974-0.43499 0.33974-0.21908 0-0.42546-0.10478-0.57469-0.26036z"/>
    <path d="m93.027 54.35h0.26036v-1.1176c0.15558-0.15558 0.26353-0.23813 0.42229-0.23813 0.20321 0 0.29211 0.12383 0.29211 0.41276v0.943h0.26036v-0.97793c0-0.39371-0.14605-0.60327-0.46991-0.60327-0.21273 0-0.36831 0.1143-0.51436 0.25401l0.0095-0.31751v-0.61597h-0.26036z"/>
    <path d="m94.643 53.582c0 0.51119 0.33656 0.80647 0.7144 0.80647s0.7144-0.29528 0.7144-0.80647c0-0.51754-0.33656-0.81282-0.7144-0.81282s-0.7144 0.29528-0.7144 0.81282zm0.26988 0c0-0.35561 0.18098-0.59692 0.44451-0.59692 0.26671 0 0.44451 0.24131 0.44451 0.59692 0 0.35244-0.1778 0.59057-0.44451 0.59057-0.26353 0-0.44451-0.23813-0.44451-0.59057z"/>
    <path d="m96.735 54.211c0.14288 0.11113 0.28576 0.1778 0.42864 0.1778 0.35244 0 0.66677-0.30798 0.66677-0.83187 0-0.47944-0.21273-0.78742-0.60962-0.78742-0.18098 0-0.35244 0.09843-0.49214 0.21591h-0.0095l-0.02223-0.1778h-0.21591v2.194h0.26036v-0.52072zm0.0063-0.20321v-0.80965c0.1524-0.13653 0.28258-0.20956 0.41276-0.20956 0.29211 0 0.40641 0.22861 0.40641 0.56834 0 0.38101-0.18733 0.61279-0.44134 0.61279-0.1016 0-0.23813-0.04445-0.37784-0.16193z"/>
   </g>
   <g aria-label="House">
    <path d="m117.33 54.35h0.26671v-0.9811h0.9684v0.9811h0.26353v-2.0829h-0.26353v0.87315h-0.9684v-0.87315h-0.26671z"/>
    <path d="m119.25 53.582c0 0.51119 0.33656 0.80647 0.71439 0.80647 0.37784 0 0.7144-0.29528 0.7144-0.80647 0-0.51754-0.33656-0.81282-0.7144-0.81282-0.37783 0-0.71439 0.29528-0.71439 0.81282zm0.26988 0c0-0.35561 0.18098-0.59692 0.44451-0.59692 0.26671 0 0.44452 0.24131 0.44452 0.59692 0 0.35244-0.17781 0.59057-0.44452 0.59057-0.26353 0-0.44451-0.23813-0.44451-0.59057z"/>
    <path d="m121.06 53.785c0 0.39371 0.14606 0.60327 0.47309 0.60327 0.21273 0 0.36514-0.11113 0.50801-0.27941h0.01l0.0222 0.24131h0.2159v-1.5431h-0.26036v1.0954c-0.14605 0.18098-0.25718 0.26036-0.41593 0.26036-0.20321 0-0.28894-0.12383-0.28894-0.41276v-0.943h-0.26353z"/>
    <path d="m122.65 54.176c0.14605 0.12065 0.35561 0.21273 0.57469 0.21273 0.36513 0 0.56517-0.20956 0.56517-0.46039 0-0.29211-0.24766-0.38419-0.46992-0.46674-0.17463-0.06668-0.34291-0.12383-0.34291-0.26671 0-0.11748 0.0889-0.22226 0.28259-0.22226 0.13652 0 0.24765 0.05715 0.35243 0.13653l0.12383-0.1651c-0.11748-0.09525-0.28576-0.17463-0.47944-0.17463-0.33338 0-0.53024 0.1905-0.53024 0.43816 0 0.26036 0.24131 0.36514 0.46039 0.44451 0.16828 0.0635 0.35243 0.13335 0.35243 0.29211 0 0.13335-0.1016 0.24131-0.30481 0.24131-0.18415 0-0.32068-0.0762-0.45403-0.18416z"/>
    <path d="m124.04 53.582c0 0.50484 0.32703 0.80647 0.7398 0.80647 0.20955 0 0.37466-0.07303 0.50801-0.15876l-0.0921-0.17146c-0.1143 0.07303-0.23813 0.12065-0.38418 0.12065-0.29529 0-0.49532-0.20956-0.51437-0.54294h1.0414c6e-3 -0.0381 0.01-0.0889 0.01-0.14288 0-0.44134-0.22226-0.72392-0.61597-0.72392-0.35244 0-0.69217 0.30798-0.69217 0.81282zm0.25401-0.11748c0.0318-0.31116 0.2286-0.48896 0.44451-0.48896 0.24131 0 0.38101 0.17463 0.38101 0.48896z"/>
   </g>
   <g aria-label="Church">
    <path d="m143.65 53.309c0 0.67947 0.39054 1.0795 0.91443 1.0795 0.26353 0 0.46991-0.11113 0.63184-0.30163l-0.14923-0.16193c-0.13335 0.14923-0.27941 0.23178-0.47626 0.23178-0.39689 0-0.64772-0.33021-0.64772-0.8541 0-0.51754 0.26353-0.8414 0.66042-0.8414 0.17145 0 0.30481 0.0762 0.41594 0.19368l0.14923-0.16828c-0.12383-0.13653-0.32069-0.25718-0.56835-0.25718-0.53341 0-0.9303 0.40959-0.9303 1.0795z"/>
    <path d="m145.55 54.35h0.26036v-1.1176c0.15558-0.15558 0.26353-0.23813 0.42229-0.23813 0.2032 0 0.2921 0.12383 0.2921 0.41276v0.943h0.26036v-0.97793c0-0.39371-0.14605-0.60327-0.46991-0.60327-0.21273 0-0.36831 0.1143-0.51437 0.25401l0.01-0.31751v-0.61597h-0.26036z"/>
    <path d="m147.26 53.785c0 0.39371 0.14606 0.60327 0.47309 0.60327 0.21273 0 0.36514-0.11113 0.50802-0.27941h0.01l0.0222 0.24131h0.2159v-1.5431h-0.26036v1.0954c-0.14605 0.18098-0.25718 0.26036-0.41593 0.26036-0.20321 0-0.28894-0.12383-0.28894-0.41276v-0.943h-0.26353z"/>
    <path d="m149.01 54.35h0.26036v-0.99063c0.10478-0.26036 0.26036-0.35561 0.39054-0.35561 0.0635 0 0.0984 0.0095 0.14923 0.0254l0.0508-0.22861c-0.0508-0.02223-0.0984-0.03175-0.16511-0.03175-0.17463 0-0.33338 0.12383-0.43816 0.31751h-0.01l-0.0222-0.27941h-0.21591z"/>
    <path d="m149.97 53.582c0 0.51119 0.31434 0.80647 0.72392 0.80647 0.18416 0 0.36197-0.0762 0.50167-0.20003l-0.11748-0.17146c-0.0921 0.08255-0.21591 0.15558-0.36196 0.15558-0.28258 0-0.47626-0.23813-0.47626-0.59057 0-0.35561 0.2032-0.59692 0.48261-0.59692 0.12383 0 0.21908 0.05715 0.31116 0.13653l0.13018-0.16828c-0.10478-0.09843-0.24766-0.18416-0.45086-0.18416-0.39689 0-0.74298 0.29528-0.74298 0.81282z"/>
    <path d="m151.53 54.35h0.26036v-1.1176c0.15558-0.15558 0.26353-0.23813 0.42229-0.23813 0.2032 0 0.2921 0.12383 0.2921 0.41276v0.943h0.26036v-0.97793c0-0.39371-0.14605-0.60327-0.46991-0.60327-0.21273 0-0.36831 0.1143-0.51437 0.25401l0.01-0.31751v-0.61597h-0.26036z"/>
   </g>
  </g>
 </g>
</svg>
