<svg width="750" height="400" version="1.1" viewBox="0 0 198.44 105.83" xmlns="http://www.w3.org/2000/svg">
 <path d="m56.372 89.524c-1.5396-0.61072-3.6927-2.8428-4.1637-4.3167-0.2261-0.70747-1.7568-8.9172-3.4015-18.244-2.7786-15.757-2.9502-17.074-2.4231-18.595 0.69388-2.002 2.1824-3.1657 4.4357-3.4679l1.7023-0.22833 0.1456-3.479c0.11323-2.7054 0.33756-3.736 1.0089-4.6349 1.4939-2.0004 2.9381-2.799 5.436-3.0062 2.099-0.17407 2.528-0.37946 3.9288-1.8812 1.4705-1.5765 1.7601-1.7019 4.4651-1.934l2.8926-0.24822 0.20936-7.118 0.20935-7.118 26.751-0.1078c19.411-0.07822 26.907 0.02201 27.321 0.3653 0.44748 0.37138 0.57005 2.3453 0.57005 9.1805v8.7074l5.2048 0.13883c5.6405 0.15045 6.4517 0.443 8.3773 3.0213 0.84456 1.1308 0.86579 1.666 0.97874 24.678l0.11553 23.522-0.95287 1.8532c-1.8684 3.6337 1.3164 3.3842-42.817 3.3541-24.698-0.01682-39.329-0.17844-39.993-0.44175zm79.207-3.1556c0.42114-0.38112 0.7657-1.0374 0.7657-1.4584 0-1.4818-5.8778-33.942-6.2834-34.7-0.22585-0.42203-0.9083-1.1588-1.5165-1.6372-1.1014-0.86637-1.2613-0.86988-39.57-0.86988-37.906 0-38.477 0.01219-39.302 0.83741-0.46058 0.46058-0.83635 1.0729-0.83505 1.3608 6e-3 1.3284 5.9088 33.737 6.3328 34.77 1.0094 2.4584-0.77213 2.3556 41.155 2.3739 35.24 0.01535 38.553-0.0417 39.254-0.67619zm1.1623-47.927c-0.67421-1.632-2.064-2.0432-6.9063-2.0432h-4.3767v8.2671l1.6033 0.25637c1.8297 0.29258 4.0233 1.6569 5.1834 3.2239 0.74786 1.0101 1.29 3.5398 3.9428 18.399l0.78488 4.3964 0.11093-15.702c0.0745-10.556-0.0377-16.061-0.34232-16.799zm-66.227 0.15504-0.11587-6.1759-1.9729 0.02532c-2.128 0.0273-3.3196 0.78095-4.2212 2.6697-0.45825 0.96004-0.82139 1.0984-3.4398 1.3101-1.6101 0.13022-3.2316 0.37611-3.6034 0.54642-1.0837 0.49637-1.6269 2.1987-1.6269 5.0984v2.7019h15.096zm52.013-7.2227v-13.399h-48.989v26.797h48.989zm-43.988 6.4618c-0.4042-0.48703-0.43591-0.86071-0.11608-1.3678 0.39219-0.62175 1.6193-0.69764 11.281-0.69764h10.841v2.5122l-10.725 0.11163c-9.4101 0.09794-10.793 0.0295-11.281-0.55848zm25.311 0.06328c-0.12961-0.33785-0.17034-0.95502-0.0905-1.3715 0.13056-0.68041 0.73925-0.7694 6.002-0.87758 7.2088-0.14817 7.838-0.02535 7.6626 1.4958l-0.13103 1.1368-6.6037 0.11535c-5.4925 0.09595-6.6434 0.01203-6.8394-0.49892zm-25.048-8.4392c-0.36188-0.36188-0.65508-0.78582-0.65156-0.94209 0.02934-1.2999 0.66894-1.3395 19.904-1.2305 18.63 0.10557 19.232 0.1341 19.383 0.91869 0.35582 1.8485-0.29572 1.9119-19.665 1.9119-16.09 0-18.393-0.07987-18.971-0.65797z" fill="#fdff15"/>
</svg>
