<svg width="127.77mm" height="27.476mm" version="1.1" viewBox="0 0 127.77 27.476" xmlns="http://www.w3.org/2000/svg">
 <g transform="translate(-88.063 -188.77)">
  <rect transform="rotate(-90)" x="-216.18" y="108.58" width="23.68" height="105.7" fill="#1d232d" stroke="#a6aeb8" stroke-linecap="round" stroke-width=".13229"/>
  <g fill="#009244" stroke="#a6aeb8" stroke-linecap="round" stroke-width=".13229">
   <path d="m115.2 192.5v23.548"/>
   <path d="m121.81 192.5v23.548"/>
   <path d="m128.42 192.5v23.548"/>
   <path d="m135.04 192.5v23.548"/>
   <path d="m141.65 192.5v23.548"/>
   <path d="m148.27 192.5v23.548"/>
   <path d="m154.88 192.5v23.548"/>
   <path d="m161.5 192.5v23.548"/>
   <path d="m168.11 192.5v23.548"/>
  </g>
  <g fill="#47d58a" stroke="#cf2f25" stroke-linecap="round" stroke-width=".26458">
   <g aria-label="0">
    <path d="m112.01 197.8c0.47043 0 0.75565-0.4408 0.75565-1.2335s-0.28522-1.2187-0.75565-1.2187c-0.47413 0-0.75935 0.42598-0.75935 1.2187s0.28522 1.2335 0.75935 1.2335zm0-0.24448c-0.27781 0-0.46302-0.29633-0.46302-0.98901s0.18521-0.9742 0.46302-0.9742c0.27411 0 0.45932 0.28152 0.45932 0.9742s-0.18521 0.98901-0.45932 0.98901z" fill="#47d58a" stroke="none"/>
   </g>
   <g aria-label="0">
    <path d="m118.62 197.8c0.47043 0 0.75565-0.4408 0.75565-1.2335s-0.28522-1.2187-0.75565-1.2187c-0.47414 0-0.75936 0.42598-0.75936 1.2187s0.28522 1.2335 0.75936 1.2335zm0-0.24448c-0.27781 0-0.46302-0.29633-0.46302-0.98901s0.18521-0.9742 0.46302-0.9742c0.27411 0 0.45931 0.28152 0.45931 0.9742s-0.1852 0.98901-0.45931 0.98901z" fill="#47d58a" stroke="none"/>
   </g>
   <g aria-label="0">
    <path d="m125.24 197.8c0.47043 0 0.75565-0.4408 0.75565-1.2335s-0.28522-1.2187-0.75565-1.2187c-0.47413 0-0.75935 0.42598-0.75935 1.2187s0.28522 1.2335 0.75935 1.2335zm0-0.24448c-0.27781 0-0.46302-0.29633-0.46302-0.98901s0.18521-0.9742 0.46302-0.9742c0.27411 0 0.45932 0.28152 0.45932 0.9742s-0.18521 0.98901-0.45932 0.98901z" fill="#47d58a" stroke="none"/>
   </g>
   <g aria-label="1">
    <path d="m131.22 197.76h1.3335v-0.25189h-0.48895v-2.1114h-0.23336c-0.12965 0.0778-0.28522 0.13705-0.50006 0.1741v0.19632h0.42968v1.741h-0.54081z" fill="#47d58a" stroke="none"/>
   </g>
   <g aria-label="0">
    <path d="m138.47 197.8c0.47043 0 0.75565-0.4408 0.75565-1.2335s-0.28522-1.2187-0.75565-1.2187c-0.47414 0-0.75936 0.42598-0.75936 1.2187s0.28522 1.2335 0.75936 1.2335zm0-0.24448c-0.27781 0-0.46302-0.29633-0.46302-0.98901s0.18521-0.9742 0.46302-0.9742c0.27411 0 0.45931 0.28152 0.45931 0.9742s-0.1852 0.98901-0.45931 0.98901z" fill="#47d58a" stroke="none"/>
   </g>
   <g aria-label="1">
    <path d="m144.45 197.76h1.3335v-0.25189h-0.48895v-2.1114h-0.23336c-0.12965 0.0778-0.28523 0.13705-0.50007 0.1741v0.19632h0.42969v1.741h-0.54081z" fill="#47d58a" stroke="none"/>
   </g>
   <g aria-label="1">
    <path d="m151.07 197.76h1.3335v-0.25189h-0.48895v-2.1114h-0.23336c-0.12965 0.0778-0.28522 0.13705-0.50006 0.1741v0.19632h0.42968v1.741h-0.54081z" fill="#47d58a" stroke="none"/>
   </g>
   <g aria-label="1">
    <path d="m157.68 197.76h1.3335v-0.25189h-0.48895v-2.1114h-0.23336c-0.12965 0.0778-0.28522 0.13705-0.50007 0.1741v0.19632h0.42969v1.741h-0.54081z" fill="#47d58a" stroke="none"/>
   </g>
   <g aria-label="0">
    <path d="m164.93 197.8c0.47043 0 0.75565-0.4408 0.75565-1.2335s-0.28522-1.2187-0.75565-1.2187c-0.47414 0-0.75936 0.42598-0.75936 1.2187s0.28522 1.2335 0.75936 1.2335zm0-0.24448c-0.27782 0-0.46302-0.29633-0.46302-0.98901s0.1852-0.9742 0.46302-0.9742c0.2741 0 0.45931 0.28152 0.45931 0.9742s-0.18521 0.98901-0.45931 0.98901z" fill="#47d58a" stroke="none"/>
   </g>
   <g aria-label="0">
    <path d="m171.54 197.8c0.47043 0 0.75565-0.4408 0.75565-1.2335s-0.28522-1.2187-0.75565-1.2187c-0.47413 0-0.75935 0.42598-0.75935 1.2187s0.28522 1.2335 0.75935 1.2335zm0-0.24448c-0.27781 0-0.46302-0.29633-0.46302-0.98901s0.18521-0.9742 0.46302-0.9742c0.27411 0 0.45932 0.28152 0.45932 0.9742s-0.18521 0.98901-0.45932 0.98901z" fill="#47d58a" stroke="none"/>
   </g>
  </g>
  <g fill="#d2d6dc" opacity=".91" aria-label="0">
   <path d="m108.64 188.78c-0.36671 0-0.74454 0.45191-0.74454 1.189 0 0.74824 0.38153 1.1779 0.74824 1.1779 0.33338 0 0.72972-0.36301 0.72972-1.1594 0-0.78529-0.37782-1.2076-0.73342-1.2076zm0.3593 0.52969-0.81121 1.052c-0.0333-0.12965-0.0519-0.27411-0.0519-0.43709 0-0.59267 0.27041-0.91864 0.50006-0.91864 0.12595 0 0.263 0.10001 0.36301 0.30374zm0.0852 0.24448c0.0333 0.12964 0.0481 0.28522 0.0481 0.46672 0 0.64453-0.27781 0.889-0.48154 0.889-0.13705 0-0.27781-0.11112-0.37782-0.31485z" fill="#d2d6dc" stroke-width=".28222px"/>
  </g>
  <g fill="#d2d6dc" opacity=".91" aria-label="8">
   <path d="m161.32 188.77c-0.3556 0-0.626 0.25558-0.626 0.56673 0 0.22596 0.14446 0.43339 0.35189 0.54081-0.27411 0.12965-0.45931 0.38153-0.45931 0.64823 0 0.34449 0.30374 0.6186 0.70008 0.6186 0.40376 0 0.7112-0.28152 0.7112-0.63342 0-0.2741-0.1852-0.51858-0.4445-0.64082 0.22225-0.11483 0.36672-0.33337 0.36672-0.55562 0-0.30374-0.263-0.54451-0.60008-0.54451zm-0.0778 1.215c0.29634 0.0926 0.49266 0.29634 0.49266 0.52229 0 0.22225-0.18891 0.40375-0.43709 0.40375-0.25189 0-0.4445-0.18891-0.4445-0.41857 0-0.21854 0.17039-0.41857 0.38893-0.50747zm0.0556-1.0001c0.20743 0 0.37041 0.15557 0.37041 0.34819 0 0.1778-0.13705 0.34819-0.31856 0.4445 0 0-0.40745-0.15558-0.40745-0.46302 0-0.18151 0.15557-0.32967 0.3556-0.32967z" fill="#d2d6dc" stroke-width=".28222px"/>
  </g>
  <g fill="#009244" stroke="#a6aeb8" stroke-linecap="round" stroke-width=".13229">
   <path d="m174.73 192.5v23.548"/>
   <path d="m181.34 192.5v23.548"/>
   <path d="m187.96 192.5v23.548"/>
   <path d="m194.57 192.5v23.548"/>
   <path d="m201.18 192.5v23.548"/>
  </g>
  <g fill="#d2d6dc" opacity=".91" stroke-width=".28222px" aria-label="16">
   <path d="m213.45 188.79h-0.17039l-0.59266 0.30745 0.0593 0.14446 0.45932-0.12964v1.7854h-0.42968v0.20372h1.089v-0.20372h-0.41487z"/>
   <path d="m215.27 188.77c-0.27782 0-0.57415 0.17039-0.71861 0.57414-0.0778 0.21855-0.0963 0.48895-0.0963 0.7112 0 0.27041 0.0259 0.55933 0.17409 0.78158 0.13335 0.20373 0.34079 0.30745 0.54452 0.30745 0.35189 0 0.65934-0.29634 0.65934-0.77417 0-0.47784-0.30745-0.75565-0.63341-0.75565-0.20003 0-0.38894 0.10742-0.48895 0.27781 0.0148-0.78899 0.39264-0.89271 0.55933-0.89271 0.15187 0 0.25558 0.0815 0.2704 0.0963 0.0222 0.0259 0.0222 0.0593 0.0556 0.0852l0.1778-0.20003c-0.13335-0.13335-0.31856-0.21113-0.50376-0.21113zm-0.0963 1.0742c0.18521 0 0.40746 0.14447 0.40746 0.54081 0 0.35931-0.20003 0.5297-0.39635 0.5297-0.28152 0-0.49265-0.32967-0.46302-0.76306 0.10372-0.18891 0.28152-0.30745 0.45191-0.30745z"/>
  </g>
  <path d="m207.8 192.5v23.548" fill="#009244" stroke="#a6aeb8" stroke-linecap="round" stroke-width=".13229"/>
  <g fill="#47d58a" stroke="#cf2f25" stroke-linecap="round" stroke-width=".26458">
   <g aria-label="0">
    <path d="m178.16 197.8c0.47043 0 0.75565-0.4408 0.75565-1.2335s-0.28522-1.2187-0.75565-1.2187c-0.47414 0-0.75936 0.42598-0.75936 1.2187s0.28522 1.2335 0.75936 1.2335zm0-0.24448c-0.27781 0-0.46302-0.29633-0.46302-0.98901s0.18521-0.9742 0.46302-0.9742c0.27411 0 0.45931 0.28152 0.45931 0.9742s-0.1852 0.98901-0.45931 0.98901z" fill="#47d58a" stroke="none"/>
   </g>
   <g aria-label="1">
    <path d="m184.14 197.76h1.3335v-0.25189h-0.48895v-2.1114h-0.23336c-0.12965 0.0778-0.28523 0.13705-0.50007 0.1741v0.19632h0.42969v1.741h-0.54081z" fill="#47d58a" stroke="none"/>
   </g>
   <g aria-label="0">
    <path d="m191.38 197.8c0.47043 0 0.75565-0.4408 0.75565-1.2335s-0.28522-1.2187-0.75565-1.2187c-0.47413 0-0.75935 0.42598-0.75935 1.2187s0.28522 1.2335 0.75935 1.2335zm0-0.24448c-0.27781 0-0.46302-0.29633-0.46302-0.98901s0.18521-0.9742 0.46302-0.9742c0.27411 0 0.45932 0.28152 0.45932 0.9742s-0.18521 0.98901-0.45932 0.98901z" fill="#47d58a" stroke="none"/>
   </g>
   <g aria-label="1">
    <path d="m197.37 197.76h1.3335v-0.25189h-0.48895v-2.1114h-0.23336c-0.12965 0.0778-0.28522 0.13705-0.50007 0.1741v0.19632h0.42969v1.741h-0.54081z" fill="#47d58a" stroke="none"/>
   </g>
   <g aria-label="0">
    <path d="m204.61 197.8c0.47043 0 0.75565-0.4408 0.75565-1.2335s-0.28522-1.2187-0.75565-1.2187c-0.47414 0-0.75936 0.42598-0.75936 1.2187s0.28522 1.2335 0.75936 1.2335zm0-0.24448c-0.27782 0-0.46302-0.29633-0.46302-0.98901s0.1852-0.9742 0.46302-0.9742c0.2741 0 0.45931 0.28152 0.45931 0.9742s-0.18521 0.98901-0.45931 0.98901z" fill="#47d58a" stroke="none"/>
   </g>
   <g aria-label="0">
    <path d="m211.23 197.8c0.47043 0 0.75565-0.4408 0.75565-1.2335s-0.28522-1.2187-0.75565-1.2187c-0.47413 0-0.75935 0.42598-0.75935 1.2187s0.28522 1.2335 0.75935 1.2335zm0-0.24448c-0.27781 0-0.46302-0.29633-0.46302-0.98901s0.18521-0.9742 0.46302-0.9742c0.27411 0 0.45932 0.28152 0.45932 0.9742s-0.18521 0.98901-0.45932 0.98901z" fill="#47d58a" stroke="none"/>
   </g>
  </g>
  <path d="m108.58 200.44h105.57" fill="#d2d6dc" stroke="#a6aeb8" stroke-linecap="square" stroke-width=".13229" style="paint-order:normal"/>
  <path d="m108.58 208.37h105.57" fill="#d2d6dc" stroke="#a6aeb8" stroke-linecap="square" stroke-width=".13229" style="paint-order:normal"/>
  <g fill="#47d58a" stroke="#cf2f25" stroke-linecap="round" stroke-width=".26458">
   <g aria-label="0">
    <path d="m112.01 205.74c0.47043 0 0.75565-0.4408 0.75565-1.2335s-0.28522-1.2187-0.75565-1.2187c-0.47413 0-0.75935 0.42598-0.75935 1.2187s0.28522 1.2335 0.75935 1.2335zm0-0.24448c-0.27781 0-0.46302-0.29633-0.46302-0.98901s0.18521-0.9742 0.46302-0.9742c0.27411 0 0.45932 0.28152 0.45932 0.9742s-0.18521 0.98901-0.45932 0.98901z" fill="#47d58a" stroke="none"/>
   </g>
   <g aria-label="0">
    <path d="m118.62 205.74c0.47043 0 0.75565-0.4408 0.75565-1.2335s-0.28522-1.2187-0.75565-1.2187c-0.47414 0-0.75936 0.42598-0.75936 1.2187s0.28522 1.2335 0.75936 1.2335zm0-0.24448c-0.27781 0-0.46302-0.29633-0.46302-0.98901s0.18521-0.9742 0.46302-0.9742c0.27411 0 0.45931 0.28152 0.45931 0.9742s-0.1852 0.98901-0.45931 0.98901z" fill="#47d58a" stroke="none"/>
   </g>
   <g aria-label="0">
    <path d="m125.24 205.74c0.47043 0 0.75565-0.4408 0.75565-1.2335s-0.28522-1.2187-0.75565-1.2187c-0.47413 0-0.75935 0.42598-0.75935 1.2187s0.28522 1.2335 0.75935 1.2335zm0-0.24448c-0.27781 0-0.46302-0.29633-0.46302-0.98901s0.18521-0.9742 0.46302-0.9742c0.27411 0 0.45932 0.28152 0.45932 0.9742s-0.18521 0.98901-0.45932 0.98901z" fill="#47d58a" stroke="none"/>
   </g>
   <g aria-label="1">
    <path d="m131.22 205.7h1.3335v-0.25189h-0.48895v-2.1114h-0.23336c-0.12965 0.0778-0.28522 0.13705-0.50006 0.1741v0.19632h0.42968v1.741h-0.54081z" fill="#47d58a" stroke="none"/>
   </g>
   <g aria-label="0">
    <path d="m138.47 205.74c0.47043 0 0.75565-0.4408 0.75565-1.2335s-0.28522-1.2187-0.75565-1.2187c-0.47414 0-0.75936 0.42598-0.75936 1.2187s0.28522 1.2335 0.75936 1.2335zm0-0.24448c-0.27781 0-0.46302-0.29633-0.46302-0.98901s0.18521-0.9742 0.46302-0.9742c0.27411 0 0.45931 0.28152 0.45931 0.9742s-0.1852 0.98901-0.45931 0.98901z" fill="#47d58a" stroke="none"/>
   </g>
   <g aria-label="1">
    <path d="m144.45 205.7h1.3335v-0.25189h-0.48895v-2.1114h-0.23336c-0.12965 0.0778-0.28523 0.13705-0.50007 0.1741v0.19632h0.42969v1.741h-0.54081z" fill="#47d58a" stroke="none"/>
   </g>
   <g aria-label="1">
    <path d="m151.07 205.7h1.3335v-0.25189h-0.48895v-2.1114h-0.23336c-0.12965 0.0778-0.28522 0.13705-0.50006 0.1741v0.19632h0.42968v1.741h-0.54081z" fill="#47d58a" stroke="none"/>
   </g>
   <g aria-label="1">
    <path d="m157.68 205.7h1.3335v-0.25189h-0.48895v-2.1114h-0.23336c-0.12965 0.0778-0.28522 0.13705-0.50007 0.1741v0.19632h0.42969v1.741h-0.54081z" fill="#47d58a" stroke="none"/>
   </g>
   <g aria-label="0">
    <path d="m164.93 205.74c0.47043 0 0.75565-0.4408 0.75565-1.2335s-0.28522-1.2187-0.75565-1.2187c-0.47414 0-0.75936 0.42598-0.75936 1.2187s0.28522 1.2335 0.75936 1.2335zm0-0.24448c-0.27782 0-0.46302-0.29633-0.46302-0.98901s0.1852-0.9742 0.46302-0.9742c0.2741 0 0.45931 0.28152 0.45931 0.9742s-0.18521 0.98901-0.45931 0.98901z" fill="#47d58a" stroke="none"/>
   </g>
   <g aria-label="0">
    <path d="m171.54 205.74c0.47043 0 0.75565-0.4408 0.75565-1.2335s-0.28522-1.2187-0.75565-1.2187c-0.47413 0-0.75935 0.42598-0.75935 1.2187s0.28522 1.2335 0.75935 1.2335zm0-0.24448c-0.27781 0-0.46302-0.29633-0.46302-0.98901s0.18521-0.9742 0.46302-0.9742c0.27411 0 0.45932 0.28152 0.45932 0.9742s-0.18521 0.98901-0.45932 0.98901z" fill="#47d58a" stroke="none"/>
   </g>
   <g aria-label="1">
    <path d="m177.53 205.7h1.3335v-0.25189h-0.48895v-2.1114h-0.23336c-0.12965 0.0778-0.28522 0.13705-0.50007 0.1741v0.19632h0.42969v1.741h-0.54081z" fill="#47d58a" stroke="none"/>
   </g>
   <g aria-label="0">
    <path d="m184.77 205.74c0.47043 0 0.75565-0.4408 0.75565-1.2335s-0.28522-1.2187-0.75565-1.2187c-0.47414 0-0.75936 0.42598-0.75936 1.2187s0.28522 1.2335 0.75936 1.2335zm0-0.24448c-0.27782 0-0.46302-0.29633-0.46302-0.98901s0.1852-0.9742 0.46302-0.9742c0.2741 0 0.45931 0.28152 0.45931 0.9742s-0.18521 0.98901-0.45931 0.98901z" fill="#47d58a" stroke="none"/>
   </g>
   <g aria-label="0">
    <path d="m191.38 205.74c0.47043 0 0.75565-0.4408 0.75565-1.2335s-0.28522-1.2187-0.75565-1.2187c-0.47413 0-0.75935 0.42598-0.75935 1.2187s0.28522 1.2335 0.75935 1.2335zm0-0.24448c-0.27781 0-0.46302-0.29633-0.46302-0.98901s0.18521-0.9742 0.46302-0.9742c0.27411 0 0.45932 0.28152 0.45932 0.9742s-0.18521 0.98901-0.45932 0.98901z" fill="#47d58a" stroke="none"/>
   </g>
   <g aria-label="1">
    <path d="m197.37 205.7h1.3335v-0.25189h-0.48895v-2.1114h-0.23336c-0.12965 0.0778-0.28522 0.13705-0.50007 0.1741v0.19632h0.42969v1.741h-0.54081z" fill="#47d58a" stroke="none"/>
   </g>
   <g aria-label="0">
    <path d="m204.61 205.74c0.47043 0 0.75565-0.4408 0.75565-1.2335s-0.28522-1.2187-0.75565-1.2187c-0.47414 0-0.75936 0.42598-0.75936 1.2187s0.28522 1.2335 0.75936 1.2335zm0-0.24448c-0.27782 0-0.46302-0.29633-0.46302-0.98901s0.1852-0.9742 0.46302-0.9742c0.2741 0 0.45931 0.28152 0.45931 0.9742s-0.18521 0.98901-0.45931 0.98901z" fill="#47d58a" stroke="none"/>
   </g>
   <g aria-label="1">
    <path d="m210.6 205.7h1.3335v-0.25189h-0.48895v-2.1114h-0.23336c-0.12965 0.0778-0.28522 0.13705-0.50006 0.1741v0.19632h0.42968v1.741h-0.54081z" fill="#47d58a" stroke="none"/>
   </g>
  </g>
  <g fill="#a6aeb8" stroke="#cf2f25" stroke-linecap="round" stroke-width=".26458">
   <g aria-label="0">
    <path d="m112.01 213.68c0.47043 0 0.75565-0.4408 0.75565-1.2335s-0.28522-1.2187-0.75565-1.2187c-0.47413 0-0.75935 0.42598-0.75935 1.2187s0.28522 1.2335 0.75935 1.2335zm0-0.24448c-0.27781 0-0.46302-0.29633-0.46302-0.98901s0.18521-0.9742 0.46302-0.9742c0.27411 0 0.45932 0.28152 0.45932 0.9742s-0.18521 0.98901-0.45932 0.98901z" fill="#a6aeb8" stroke="none"/>
   </g>
   <g aria-label="0">
    <path d="m118.62 213.68c0.47043 0 0.75565-0.4408 0.75565-1.2335s-0.28522-1.2187-0.75565-1.2187c-0.47414 0-0.75936 0.42598-0.75936 1.2187s0.28522 1.2335 0.75936 1.2335zm0-0.24448c-0.27781 0-0.46302-0.29633-0.46302-0.98901s0.18521-0.9742 0.46302-0.9742c0.27411 0 0.45931 0.28152 0.45931 0.9742s-0.1852 0.98901-0.45931 0.98901z" fill="#a6aeb8" stroke="none"/>
   </g>
   <g aria-label="0">
    <path d="m125.24 213.68c0.47043 0 0.75565-0.4408 0.75565-1.2335s-0.28522-1.2187-0.75565-1.2187c-0.47413 0-0.75935 0.42598-0.75935 1.2187s0.28522 1.2335 0.75935 1.2335zm0-0.24448c-0.27781 0-0.46302-0.29633-0.46302-0.98901s0.18521-0.9742 0.46302-0.9742c0.27411 0 0.45932 0.28152 0.45932 0.9742s-0.18521 0.98901-0.45932 0.98901z" fill="#a6aeb8" stroke="none"/>
   </g>
   <g aria-label="0">
    <path d="m131.85 213.68c0.47043 0 0.75565-0.4408 0.75565-1.2335s-0.28522-1.2187-0.75565-1.2187c-0.47413 0-0.75935 0.42598-0.75935 1.2187s0.28522 1.2335 0.75935 1.2335zm0-0.24448c-0.27781 0-0.46302-0.29633-0.46302-0.98901s0.18521-0.9742 0.46302-0.9742c0.27411 0 0.45932 0.28152 0.45932 0.9742s-0.18521 0.98901-0.45932 0.98901z" fill="#a6aeb8" stroke="none"/>
   </g>
   <g aria-label="0">
    <path d="m138.47 213.68c0.47043 0 0.75565-0.4408 0.75565-1.2335s-0.28522-1.2187-0.75565-1.2187c-0.47414 0-0.75936 0.42598-0.75936 1.2187s0.28522 1.2335 0.75936 1.2335zm0-0.24448c-0.27781 0-0.46302-0.29633-0.46302-0.98901s0.18521-0.9742 0.46302-0.9742c0.27411 0 0.45931 0.28152 0.45931 0.9742s-0.1852 0.98901-0.45931 0.98901z" fill="#a6aeb8" stroke="none"/>
   </g>
   <g aria-label="0">
    <path d="m145.08 213.68c0.47043 0 0.75565-0.4408 0.75565-1.2335s-0.28522-1.2187-0.75565-1.2187c-0.47414 0-0.75936 0.42598-0.75936 1.2187s0.28522 1.2335 0.75936 1.2335zm0-0.24448c-0.27782 0-0.46302-0.29633-0.46302-0.98901s0.1852-0.9742 0.46302-0.9742c0.2741 0 0.45931 0.28152 0.45931 0.9742s-0.18521 0.98901-0.45931 0.98901z" fill="#a6aeb8" stroke="none"/>
   </g>
   <g aria-label="0">
    <path d="m151.7 213.68c0.47043 0 0.75565-0.4408 0.75565-1.2335s-0.28522-1.2187-0.75565-1.2187c-0.47413 0-0.75935 0.42598-0.75935 1.2187s0.28522 1.2335 0.75935 1.2335zm0-0.24448c-0.27781 0-0.46302-0.29633-0.46302-0.98901s0.18521-0.9742 0.46302-0.9742c0.27411 0 0.45932 0.28152 0.45932 0.9742s-0.18521 0.98901-0.45932 0.98901z" fill="#a6aeb8" stroke="none"/>
   </g>
   <g aria-label="0">
    <path d="m158.31 213.68c0.47043 0 0.75565-0.4408 0.75565-1.2335s-0.28522-1.2187-0.75565-1.2187c-0.47414 0-0.75936 0.42598-0.75936 1.2187s0.28522 1.2335 0.75936 1.2335zm0-0.24448c-0.27781 0-0.46302-0.29633-0.46302-0.98901s0.18521-0.9742 0.46302-0.9742c0.27411 0 0.45931 0.28152 0.45931 0.9742s-0.1852 0.98901-0.45931 0.98901z" fill="#a6aeb8" stroke="none"/>
   </g>
   <g aria-label="0">
    <path d="m164.93 213.68c0.47043 0 0.75565-0.4408 0.75565-1.2335s-0.28522-1.2187-0.75565-1.2187c-0.47414 0-0.75936 0.42598-0.75936 1.2187s0.28522 1.2335 0.75936 1.2335zm0-0.24448c-0.27782 0-0.46302-0.29633-0.46302-0.98901s0.1852-0.9742 0.46302-0.9742c0.2741 0 0.45931 0.28152 0.45931 0.9742s-0.18521 0.98901-0.45931 0.98901z" fill="#a6aeb8" stroke="none"/>
   </g>
   <g aria-label="0">
    <path d="m171.54 213.68c0.47043 0 0.75565-0.4408 0.75565-1.2335s-0.28522-1.2187-0.75565-1.2187c-0.47413 0-0.75935 0.42598-0.75935 1.2187s0.28522 1.2335 0.75935 1.2335zm0-0.24448c-0.27781 0-0.46302-0.29633-0.46302-0.98901s0.18521-0.9742 0.46302-0.9742c0.27411 0 0.45932 0.28152 0.45932 0.9742s-0.18521 0.98901-0.45932 0.98901z" fill="#a6aeb8" stroke="none"/>
   </g>
  </g>
  <g fill="#47d58a" stroke="#cf2f25" stroke-linecap="round" stroke-width=".26458">
   <g aria-label="1">
    <path d="m177.53 213.64h1.3335v-0.25189h-0.48895v-2.1114h-0.23336c-0.12965 0.0778-0.28522 0.13705-0.50007 0.1741v0.19632h0.42969v1.741h-0.54081z" fill="#47d58a" stroke="none"/>
   </g>
   <g aria-label="1">
    <path d="m184.14 213.64h1.3335v-0.25189h-0.48895v-2.1114h-0.23336c-0.12965 0.0778-0.28523 0.13705-0.50007 0.1741v0.19632h0.42969v1.741h-0.54081z" fill="#47d58a" stroke="none"/>
   </g>
   <g aria-label="0">
    <path d="m191.38 213.68c0.47043 0 0.75565-0.4408 0.75565-1.2335s-0.28522-1.2187-0.75565-1.2187c-0.47413 0-0.75935 0.42598-0.75935 1.2187s0.28522 1.2335 0.75935 1.2335zm0-0.24448c-0.27781 0-0.46302-0.29633-0.46302-0.98901s0.18521-0.9742 0.46302-0.9742c0.27411 0 0.45932 0.28152 0.45932 0.9742s-0.18521 0.98901-0.45932 0.98901z" fill="#47d58a" stroke="none"/>
   </g>
   <g aria-label="0">
    <path d="m198 213.68c0.47043 0 0.75565-0.4408 0.75565-1.2335s-0.28522-1.2187-0.75565-1.2187c-0.47414 0-0.75936 0.42598-0.75936 1.2187s0.28522 1.2335 0.75936 1.2335zm0-0.24448c-0.27781 0-0.46302-0.29633-0.46302-0.98901s0.18521-0.9742 0.46302-0.9742c0.27411 0 0.45931 0.28152 0.45931 0.9742s-0.1852 0.98901-0.45931 0.98901z" fill="#47d58a" stroke="none"/>
   </g>
   <g aria-label="0">
    <path d="m204.61 213.68c0.47043 0 0.75565-0.4408 0.75565-1.2335s-0.28522-1.2187-0.75565-1.2187c-0.47414 0-0.75936 0.42598-0.75936 1.2187s0.28522 1.2335 0.75936 1.2335zm0-0.24448c-0.27782 0-0.46302-0.29633-0.46302-0.98901s0.1852-0.9742 0.46302-0.9742c0.2741 0 0.45931 0.28152 0.45931 0.9742s-0.18521 0.98901-0.45931 0.98901z" fill="#47d58a" stroke="none"/>
   </g>
   <g aria-label="1">
    <path d="m210.6 213.64h1.3335v-0.25189h-0.48895v-2.1114h-0.23336c-0.12965 0.0778-0.28522 0.13705-0.50006 0.1741v0.19632h0.42968v1.741h-0.54081z" fill="#47d58a" stroke="none"/>
   </g>
  </g>
  <g fill="#e8eaec" stroke-linecap="round" stroke-width=".26458">
   <g aria-label="data in T-1">
    <path d="m88.195 196.74c0 0.60007 0.29263 0.94085 0.74454 0.94085 0.21114 0 0.40376-0.11853 0.54451-0.25558h0.01111l0.02593 0.21113h0.25188v-2.6374h-0.30744v0.69268l0.01482 0.30744c-0.15928-0.12964-0.29633-0.20743-0.50377-0.20743-0.41116 0-0.78158 0.36301-0.78158 0.94827zm0.31485-4e-3c0-0.41116 0.22966-0.68897 0.51858-0.68897 0.14817 0 0.28522 0.0519 0.43709 0.18891v0.94086c-0.14817 0.16669-0.29263 0.24818-0.45932 0.24818-0.31485 0-0.49636-0.25929-0.49636-0.68898z"/>
    <path d="m90.29 197.17c0 0.32226 0.22595 0.51117 0.5297 0.51117 0.22225 0 0.42228-0.11853 0.59637-0.25929h0.0074l0.02593 0.21484h0.25188v-1.1038c0-0.4482-0.18521-0.74083-0.626-0.74083-0.28892 0-0.54081 0.12594-0.7075 0.23336l0.12224 0.21114c0.14076-0.0963 0.32597-0.19262 0.5371-0.19262 0.29263 0 0.37042 0.22225 0.37042 0.45191-0.76676 0.0852-1.1075 0.28152-1.1075 0.67416zm0.30004-0.0222c0-0.22965 0.20373-0.37782 0.80751-0.4519v0.50006c-0.1741 0.15557-0.31856 0.24077-0.49265 0.24077-0.1778 0-0.31485-0.0852-0.31485-0.28893z"/>
    <path d="m92.327 197.08c0 0.3556 0.12965 0.60007 0.51488 0.60007 0.11112 0 0.23336-0.0333 0.33338-0.0667l-0.05927-0.22966c-0.05927 0.0222-0.14076 0.0482-0.20373 0.0482-0.20743 0-0.27781-0.12595-0.27781-0.3482v-1.0001h0.48525v-0.24818h-0.48525v-0.50377h-0.25558l-0.03704 0.50377-0.28152 0.0185v0.22966h0.2667z"/>
    <path d="m93.372 197.17c0 0.32226 0.22595 0.51117 0.5297 0.51117 0.22225 0 0.42228-0.11853 0.59637-0.25929h0.0074l0.02593 0.21484h0.25188v-1.1038c0-0.4482-0.18521-0.74083-0.626-0.74083-0.28892 0-0.54081 0.12594-0.7075 0.23336l0.12224 0.21114c0.14076-0.0963 0.32597-0.19262 0.5371-0.19262 0.29263 0 0.37042 0.22225 0.37042 0.45191-0.76676 0.0852-1.1075 0.28152-1.1075 0.67416zm0.30004-0.0222c0-0.22965 0.20373-0.37782 0.80751-0.4519v0.50006c-0.1741 0.15557-0.31856 0.24077-0.49265 0.24077-0.1778 0-0.31486-0.0852-0.31486-0.28893z"/>
    <path d="m96.258 195.47c0.11853 0 0.21114-0.0815 0.21114-0.19632 0-0.11853-0.0926-0.19632-0.21114-0.19632-0.11853 0-0.21114 0.0778-0.21114 0.19632 0 0.11483 0.0926 0.19632 0.21114 0.19632zm-0.15558 2.1706h0.30374v-1.8002h-0.30374z"/>
    <path d="m97.014 197.64h0.30374v-1.3039c0.1815-0.18151 0.30744-0.27781 0.49265-0.27781 0.23707 0 0.34078 0.14446 0.34078 0.48154v1.1001h0.30374v-1.1409c0-0.45932-0.17039-0.70379-0.54822-0.70379-0.24818 0-0.43339 0.13335-0.60378 0.30374h-0.01111l-0.02593-0.25929h-0.25188z"/>
    <path d="m100.31 197.64h0.30745v-2.1706h0.73713v-0.25929h-1.7817v0.25929h0.73712z"/>
    <path d="m101.3 196.82h0.85196v-0.23336h-0.85196z"/>
    <path d="m102.59 197.64h1.3335v-0.25188h-0.48895v-2.1114h-0.23336c-0.12965 0.0778-0.28522 0.13705-0.50006 0.17409v0.19632h0.42968v1.741h-0.54081z"/>
   </g>
   <g aria-label="data in T">
    <path d="m90.768 204.68c0 0.60007 0.29263 0.94085 0.74454 0.94085 0.21114 0 0.40375-0.11853 0.54451-0.25558h0.01111l0.02593 0.21113h0.25188v-2.6374h-0.30745v0.69268l0.01482 0.30744c-0.15928-0.12964-0.29633-0.20743-0.50377-0.20743-0.41116 0-0.78158 0.36301-0.78158 0.94827zm0.31485-4e-3c0-0.41116 0.22966-0.68897 0.51858-0.68897 0.14817 0 0.28522 0.0519 0.43709 0.18891v0.94086c-0.14817 0.16669-0.29263 0.24818-0.45932 0.24818-0.31486 0-0.49636-0.25929-0.49636-0.68898z"/>
    <path d="m92.864 205.11c0 0.32226 0.22595 0.51117 0.5297 0.51117 0.22225 0 0.42228-0.11853 0.59637-0.25929h0.0074l0.02593 0.21484h0.25188v-1.1038c0-0.4482-0.18521-0.74083-0.626-0.74083-0.28892 0-0.54081 0.12594-0.7075 0.23336l0.12224 0.21114c0.14076-0.0963 0.32597-0.19262 0.5371-0.19262 0.29263 0 0.37042 0.22225 0.37042 0.45191-0.76676 0.0852-1.1075 0.28152-1.1075 0.67416zm0.30004-0.0222c0-0.22965 0.20373-0.37782 0.80751-0.4519v0.50006c-0.1741 0.15557-0.31856 0.24077-0.49266 0.24077-0.1778 0-0.31485-0.0852-0.31485-0.28893z"/>
    <path d="m94.9 205.02c0 0.3556 0.12964 0.60007 0.51488 0.60007 0.11112 0 0.23336-0.0333 0.33338-0.0667l-0.05927-0.22966c-0.05927 0.0222-0.14076 0.0482-0.20373 0.0482-0.20743 0-0.27781-0.12595-0.27781-0.3482v-1.0001h0.48525v-0.24818h-0.48525v-0.50377h-0.25559l-0.03704 0.50377-0.28152 0.0185v0.22966h0.2667z"/>
    <path d="m95.946 205.11c0 0.32226 0.22595 0.51117 0.5297 0.51117 0.22225 0 0.42228-0.11853 0.59637-0.25929h0.0074l0.02593 0.21484h0.25188v-1.1038c0-0.4482-0.18521-0.74083-0.626-0.74083-0.28892 0-0.54081 0.12594-0.7075 0.23336l0.12224 0.21114c0.14076-0.0963 0.32597-0.19262 0.5371-0.19262 0.29263 0 0.37042 0.22225 0.37042 0.45191-0.76676 0.0852-1.1075 0.28152-1.1075 0.67416zm0.30004-0.0222c0-0.22965 0.20373-0.37782 0.80751-0.4519v0.50006c-0.1741 0.15557-0.31856 0.24077-0.49265 0.24077-0.1778 0-0.31485-0.0852-0.31485-0.28893z"/>
    <path d="m98.831 203.4c0.11853 0 0.21114-0.0815 0.21114-0.19632 0-0.11853-0.0926-0.19632-0.21114-0.19632-0.11853 0-0.21114 0.0778-0.21114 0.19632 0 0.11483 0.0926 0.19632 0.21114 0.19632zm-0.15558 2.1706h0.30374v-1.8002h-0.30374z"/>
    <path d="m99.587 205.57h0.30374v-1.3039c0.1815-0.18151 0.30744-0.27781 0.49265-0.27781 0.23707 0 0.34079 0.14446 0.34079 0.48154v1.1001h0.30374v-1.1409c0-0.45932-0.17039-0.70379-0.54822-0.70379-0.24818 0-0.43339 0.13335-0.60378 0.30374h-0.01111l-0.02593-0.25929h-0.25188z"/>
    <path d="m102.88 205.57h0.30744v-2.1706h0.73713v-0.25929h-1.7817v0.25929h0.73713z"/>
   </g>
   <g aria-label="XOR diff">
    <path d="m91.643 213.51h0.32226l0.3519-0.65563c0.06297-0.11854 0.12224-0.24077 0.19262-0.38894h0.01482c0.07779 0.14817 0.14446 0.2704 0.20743 0.38894l0.3593 0.65563h0.34078l-0.7075-1.2409 0.65934-1.189h-0.32597l-0.32226 0.6223c-0.05927 0.11113-0.10372 0.21114-0.17039 0.3519h-0.01482c-0.07779-0.14076-0.12965-0.24077-0.18891-0.3519l-0.33338-0.6223h-0.34078l0.66305 1.1742z"/>
    <path d="m94.633 213.56c0.60748 0 1.0372-0.48895 1.0372-1.2705 0-0.77418-0.42968-1.2483-1.0372-1.2483-0.61119 0-1.0409 0.47043-1.0409 1.2483 0 0.78157 0.42968 1.2705 1.0409 1.2705zm0-0.2704c-0.43709 0-0.72231-0.39264-0.72231-1.0001 0-0.60378 0.28522-0.9779 0.72231-0.9779 0.43339 0 0.71861 0.37412 0.71861 0.9779 0 0.60748-0.28522 1.0001-0.71861 1.0001z"/>
    <path d="m96.483 211.33h0.40746c0.37782 0 0.58526 0.11483 0.58526 0.43339 0 0.31485-0.20743 0.47043-0.58526 0.47043h-0.40746zm1.3742 2.1818-0.6186-1.0594c0.32967-0.0852 0.54451-0.31115 0.54451-0.68897 0-0.50377-0.3556-0.68157-0.84826-0.68157h-0.76306v2.4299h0.31115v-1.026h0.43709l0.58526 1.026z"/>
    <path d="m98.903 212.61c0 0.60007 0.29263 0.94085 0.74454 0.94085 0.21114 0 0.40376-0.11853 0.54452-0.25558h0.0111l0.0259 0.21113h0.25188v-2.6374h-0.30744v0.69268l0.0148 0.30744c-0.15928-0.12964-0.29633-0.20743-0.50376-0.20743-0.41116 0-0.78158 0.36301-0.78158 0.94827zm0.31485-4e-3c0-0.41116 0.22966-0.68897 0.51858-0.68897 0.14817 0 0.28522 0.0519 0.4371 0.18891v0.94086c-0.14817 0.16669-0.29263 0.24818-0.45932 0.24818-0.31485 0-0.49636-0.25929-0.49636-0.68898z"/>
    <path d="m101.24 211.34c0.11854 0 0.21114-0.0815 0.21114-0.19632 0-0.11853-0.0926-0.19632-0.21114-0.19632-0.11853 0-0.21114 0.0778-0.21114 0.19632 0 0.11483 0.0926 0.19632 0.21114 0.19632zm-0.15557 2.1706h0.30374v-1.8002h-0.30374z"/>
    <path d="m103.93 210.89c-0.0815-0.0333-0.18891-0.0593-0.30004-0.0593-0.3593 0-0.52599 0.22966-0.52599 0.59637v0.28522h-0.74824v-0.22966c0-0.23707 0.10372-0.36671 0.28152-0.36671 0.0889 0 0.16298 0.0148 0.24077 0.0482l0.063-0.22966c-0.0889-0.0407-0.21114-0.0667-0.32967-0.0667-0.37412 0-0.55933 0.23336-0.55933 0.60748v0.23707l-0.24448 0.0185v0.22966h0.24448v1.552h0.30374v-1.552h0.74824v1.552h0.30374v-1.552h0.38153v-0.24818h-0.38153v-0.28522c0-0.22966 0.0852-0.34819 0.25559-0.34819 0.063 0 0.13335 0.0148 0.20373 0.0445z"/>
   </g>
  </g>
 </g>
</svg>
