<svg width="107.94mm" height="27.61mm" version="1.1" viewBox="0 0 107.94 27.61" xmlns="http://www.w3.org/2000/svg">
 <g transform="translate(-134.09 -147.88)">
  <g>
   <path d="m226.98 167.62 13.494-7.9375" fill="none" stroke="#47d58a" stroke-dasharray="0.26458333, 0.52916667" stroke-linecap="square" stroke-width=".26458"/>
   <path d="m194.17 167.36 13.494-7.9375" fill="none" stroke="#47d58a" stroke-dasharray="0.26458333, 0.52916667" stroke-linecap="square" stroke-width=".26458"/>
   <rect transform="rotate(-90)" x="-159.55" y="134.77" width="7.9375" height="105.7" fill="#1d232d" stroke="#a6aeb8" stroke-linecap="round" stroke-width=".13229"/>
  </g>
  <g fill="#009244" stroke="#a6aeb8" stroke-linecap="round" stroke-width=".13229">
   <path d="m141.39 151.61v7.9375"/>
   <path d="m148 151.61v7.9375"/>
   <path d="m154.62 151.61v7.9375"/>
   <path d="m161.23 151.61v7.9375"/>
   <path d="m167.85 151.61v7.9375"/>
   <path d="m174.46 151.61v7.9375"/>
   <path d="m181.07 151.61v7.9375"/>
   <path d="m187.69 151.61v7.9375"/>
   <path d="m194.3 151.61v7.9375"/>
  </g>
  <g fill="#47d58a" stroke="#cf2f25" stroke-linecap="round" stroke-width=".26458">
   <g aria-label="0">
    <path d="m138.2 156.92c0.47043 0 0.75565-0.4408 0.75565-1.2335s-0.28522-1.2187-0.75565-1.2187c-0.47414 0-0.75936 0.42598-0.75936 1.2187s0.28522 1.2335 0.75936 1.2335zm0-0.24447c-0.27781 0-0.46302-0.29634-0.46302-0.98902s0.18521-0.97419 0.46302-0.97419c0.27411 0 0.45931 0.28151 0.45931 0.97419s-0.1852 0.98902-0.45931 0.98902z" fill="#47d58a" stroke="none"/>
   </g>
   <g aria-label="0">
    <path d="m144.82 156.92c0.47043 0 0.75565-0.4408 0.75565-1.2335s-0.28522-1.2187-0.75565-1.2187c-0.47414 0-0.75936 0.42598-0.75936 1.2187s0.28522 1.2335 0.75936 1.2335zm0-0.24447c-0.27782 0-0.46302-0.29634-0.46302-0.98902s0.1852-0.97419 0.46302-0.97419c0.2741 0 0.45931 0.28151 0.45931 0.97419s-0.18521 0.98902-0.45931 0.98902z" fill="#47d58a" stroke="none"/>
   </g>
   <g aria-label="0">
    <path d="m151.43 156.92c0.47043 0 0.75565-0.4408 0.75565-1.2335s-0.28522-1.2187-0.75565-1.2187c-0.47413 0-0.75935 0.42598-0.75935 1.2187s0.28522 1.2335 0.75935 1.2335zm0-0.24447c-0.27781 0-0.46302-0.29634-0.46302-0.98902s0.18521-0.97419 0.46302-0.97419c0.27411 0 0.45932 0.28151 0.45932 0.97419s-0.18521 0.98902-0.45932 0.98902z" fill="#47d58a" stroke="none"/>
   </g>
   <g aria-label="0">
    <path d="m158.05 156.92c0.47043 0 0.75565-0.4408 0.75565-1.2335s-0.28522-1.2187-0.75565-1.2187c-0.47414 0-0.75936 0.42598-0.75936 1.2187s0.28522 1.2335 0.75936 1.2335zm0-0.24447c-0.27781 0-0.46302-0.29634-0.46302-0.98902s0.18521-0.97419 0.46302-0.97419c0.27411 0 0.45931 0.28151 0.45931 0.97419s-0.1852 0.98902-0.45931 0.98902z" fill="#47d58a" stroke="none"/>
   </g>
   <g aria-label="0">
    <path d="m164.66 156.92c0.47043 0 0.75565-0.4408 0.75565-1.2335s-0.28522-1.2187-0.75565-1.2187c-0.47414 0-0.75936 0.42598-0.75936 1.2187s0.28522 1.2335 0.75936 1.2335zm0-0.24447c-0.27782 0-0.46302-0.29634-0.46302-0.98902s0.1852-0.97419 0.46302-0.97419c0.2741 0 0.45931 0.28151 0.45931 0.97419s-0.18521 0.98902-0.45931 0.98902z" fill="#47d58a" stroke="none"/>
   </g>
   <g aria-label="0">
    <path d="m171.27 156.92c0.47043 0 0.75565-0.4408 0.75565-1.2335s-0.28522-1.2187-0.75565-1.2187c-0.47413 0-0.75935 0.42598-0.75935 1.2187s0.28522 1.2335 0.75935 1.2335zm0-0.24447c-0.27781 0-0.46302-0.29634-0.46302-0.98902s0.18521-0.97419 0.46302-0.97419c0.27411 0 0.45932 0.28151 0.45932 0.97419s-0.18521 0.98902-0.45932 0.98902z" fill="#47d58a" stroke="none"/>
   </g>
   <g aria-label="0">
    <path d="m177.89 156.92c0.47043 0 0.75565-0.4408 0.75565-1.2335s-0.28522-1.2187-0.75565-1.2187c-0.47414 0-0.75936 0.42598-0.75936 1.2187s0.28522 1.2335 0.75936 1.2335zm0-0.24447c-0.27781 0-0.46302-0.29634-0.46302-0.98902s0.18521-0.97419 0.46302-0.97419c0.27411 0 0.45931 0.28151 0.45931 0.97419s-0.1852 0.98902-0.45931 0.98902z" fill="#47d58a" stroke="none"/>
   </g>
   <g aria-label="0">
    <path d="m184.5 156.92c0.47043 0 0.75565-0.4408 0.75565-1.2335s-0.28522-1.2187-0.75565-1.2187c-0.47414 0-0.75936 0.42598-0.75936 1.2187s0.28522 1.2335 0.75936 1.2335zm0-0.24447c-0.27782 0-0.46302-0.29634-0.46302-0.98902s0.1852-0.97419 0.46302-0.97419c0.2741 0 0.45931 0.28151 0.45931 0.97419s-0.18521 0.98902-0.45931 0.98902z" fill="#47d58a" stroke="none"/>
   </g>
   <g aria-label="0">
    <path d="m191.12 156.92c0.47043 0 0.75565-0.4408 0.75565-1.2335s-0.28522-1.2187-0.75565-1.2187c-0.47413 0-0.75935 0.42598-0.75935 1.2187s0.28522 1.2335 0.75935 1.2335zm0-0.24447c-0.27781 0-0.46302-0.29634-0.46302-0.98902s0.18521-0.97419 0.46302-0.97419c0.27411 0 0.45932 0.28151 0.45932 0.97419s-0.18521 0.98902-0.45932 0.98902z" fill="#47d58a" stroke="none"/>
   </g>
   <g aria-label="0">
    <path d="m197.73 156.92c0.47043 0 0.75565-0.4408 0.75565-1.2335s-0.28522-1.2187-0.75565-1.2187c-0.47414 0-0.75936 0.42598-0.75936 1.2187s0.28522 1.2335 0.75936 1.2335zm0-0.24447c-0.27781 0-0.46302-0.29634-0.46302-0.98902s0.18521-0.97419 0.46302-0.97419c0.27411 0 0.45931 0.28151 0.45931 0.97419s-0.1852 0.98902-0.45931 0.98902z" fill="#47d58a" stroke="none"/>
   </g>
  </g>
  <g fill="#d2d6dc" opacity=".91" aria-label="0">
   <path d="m134.83 147.89c-0.36671 0-0.74454 0.45191-0.74454 1.189 0 0.74824 0.38153 1.1779 0.74825 1.1779 0.33337 0 0.72972-0.36301 0.72972-1.1594 0-0.78529-0.37783-1.2076-0.73343-1.2076zm0.35931 0.5297-0.81122 1.052c-0.0333-0.12965-0.0519-0.27411-0.0519-0.43709 0-0.59267 0.27041-0.91864 0.50007-0.91864 0.12594 0 0.26299 0.10002 0.36301 0.30375zm0.0852 0.24447c0.0333 0.12965 0.0482 0.28522 0.0482 0.46673 0 0.64452-0.27782 0.889-0.48155 0.889-0.13705 0-0.27781-0.11113-0.37782-0.31486z" fill="#d2d6dc" stroke-width=".28222px"/>
  </g>
  <g fill="#d2d6dc" opacity=".91" aria-label="8">
   <path d="m187.51 147.88c-0.3556 0-0.626 0.25558-0.626 0.56673 0 0.22596 0.14446 0.43339 0.3519 0.54081-0.27411 0.12965-0.45932 0.38153-0.45932 0.64823 0 0.34449 0.30374 0.6186 0.70009 0.6186 0.40375 0 0.7112-0.28152 0.7112-0.63341 0-0.27411-0.18521-0.51859-0.4445-0.64083 0.22225-0.11482 0.36671-0.33337 0.36671-0.55562 0-0.30374-0.263-0.54451-0.60008-0.54451zm-0.0778 1.215c0.29633 0.0926 0.49265 0.29634 0.49265 0.52229 0 0.22225-0.18891 0.40376-0.43709 0.40376-0.25188 0-0.4445-0.18892-0.4445-0.41858 0-0.21854 0.17039-0.41857 0.38894-0.50747zm0.0556-1.0001c0.20743 0 0.37042 0.15557 0.37042 0.34819 0 0.1778-0.13706 0.34819-0.31856 0.4445 0 0-0.40746-0.15557-0.40746-0.46302 0-0.1815 0.15557-0.32967 0.3556-0.32967z" fill="#d2d6dc" stroke-width=".28222px"/>
  </g>
  <g fill="#009244" stroke="#a6aeb8" stroke-linecap="round" stroke-width=".13229">
   <path d="m200.92 151.61v7.9375"/>
   <path d="m207.53 151.61v7.9375"/>
   <path d="m214.15 151.61v7.9375"/>
   <path d="m220.76 151.61v7.9375"/>
   <path d="m227.38 151.61v7.9375"/>
  </g>
  <g fill="#d2d6dc" opacity=".91" stroke-width=".28222px" aria-label="16">
   <path d="m239.64 147.91h-0.17039l-0.59267 0.30744 0.0593 0.14446 0.45932-0.12964v1.7854h-0.42969v0.20373h1.089v-0.20373h-0.41487z"/>
   <path d="m241.46 147.88c-0.27781 0-0.57414 0.17039-0.7186 0.57414-0.0778 0.21855-0.0963 0.48895-0.0963 0.7112 0 0.27041 0.0259 0.55933 0.17409 0.78158 0.13335 0.20373 0.34079 0.30745 0.54452 0.30745 0.35189 0 0.65934-0.29634 0.65934-0.77417 0-0.47784-0.30745-0.75565-0.63342-0.75565-0.20002 0-0.38893 0.10742-0.48895 0.27781 0.0148-0.78899 0.39265-0.8927 0.55933-0.8927 0.15187 0 0.25559 0.0815 0.27041 0.0963 0.0222 0.0259 0.0222 0.0593 0.0556 0.0852l0.1778-0.20003c-0.13335-0.13335-0.31856-0.21113-0.50377-0.21113zm-0.0963 1.0742c0.1852 0 0.40745 0.14446 0.40745 0.5408 0 0.35931-0.20002 0.5297-0.39634 0.5297-0.28152 0-0.49266-0.32967-0.46302-0.76306 0.10371-0.18891 0.28151-0.30744 0.45191-0.30744z"/>
  </g>
  <path d="m233.99 151.61v7.9375" fill="#009244" stroke="#a6aeb8" stroke-linecap="round" stroke-width=".13229"/>
  <g fill="#47d58a" stroke="#cf2f25" stroke-linecap="round" stroke-width=".26458">
   <g aria-label="0">
    <path d="m204.35 156.92c0.47043 0 0.75565-0.4408 0.75565-1.2335s-0.28522-1.2187-0.75565-1.2187c-0.47414 0-0.75936 0.42598-0.75936 1.2187s0.28522 1.2335 0.75936 1.2335zm0-0.24447c-0.27782 0-0.46302-0.29634-0.46302-0.98902s0.1852-0.97419 0.46302-0.97419c0.2741 0 0.45931 0.28151 0.45931 0.97419s-0.18521 0.98902-0.45931 0.98902z" fill="#47d58a" stroke="none"/>
   </g>
   <g aria-label="1">
    <path d="m210.33 156.88h1.3335v-0.25188h-0.48895v-2.1114h-0.23336c-0.12965 0.0778-0.28522 0.13706-0.50006 0.1741v0.19632h0.42968v1.741h-0.54081z" fill="#47d58a" stroke="none"/>
   </g>
   <g aria-label="1">
    <path d="m216.95 156.88h1.3335v-0.25188h-0.48895v-2.1114h-0.23336c-0.12965 0.0778-0.28522 0.13706-0.50007 0.1741v0.19632h0.42969v1.741h-0.54081z" fill="#47d58a" stroke="none"/>
   </g>
   <g aria-label="0">
    <path d="m224.19 156.92c0.47043 0 0.75565-0.4408 0.75565-1.2335s-0.28522-1.2187-0.75565-1.2187c-0.47414 0-0.75936 0.42598-0.75936 1.2187s0.28522 1.2335 0.75936 1.2335zm0-0.24447c-0.27782 0-0.46302-0.29634-0.46302-0.98902s0.1852-0.97419 0.46302-0.97419c0.2741 0 0.45931 0.28151 0.45931 0.97419s-0.18521 0.98902-0.45931 0.98902z" fill="#47d58a" stroke="none"/>
   </g>
   <g aria-label="1">
    <path d="m230.18 156.88h1.3335v-0.25188h-0.48895v-2.1114h-0.23336c-0.12965 0.0778-0.28522 0.13706-0.50006 0.1741v0.19632h0.42968v1.741h-0.54081z" fill="#47d58a" stroke="none"/>
   </g>
   <g aria-label="0">
    <path d="m237.42 156.92c0.47043 0 0.75565-0.4408 0.75565-1.2335s-0.28522-1.2187-0.75565-1.2187c-0.47414 0-0.75936 0.42598-0.75936 1.2187s0.28522 1.2335 0.75936 1.2335zm0-0.24447c-0.27781 0-0.46302-0.29634-0.46302-0.98902s0.18521-0.97419 0.46302-0.97419c0.27411 0 0.45931 0.28151 0.45931 0.97419s-0.1852 0.98902-0.45931 0.98902z" fill="#47d58a" stroke="none"/>
   </g>
  </g>
  <rect transform="rotate(-90)" x="-175.43" y="194.17" width="7.9375" height="33.073" fill="#1d232d" stroke="#a6aeb8" stroke-linecap="round" stroke-width=".13229"/>
  <g fill="#009244" stroke="#a6aeb8" stroke-linecap="round" stroke-width=".13229">
   <path d="m200.92 167.49v7.9375"/>
   <path d="m207.53 167.49v7.9375"/>
   <path d="m214.15 167.49v7.9375"/>
   <path d="m220.76 167.49v7.9375"/>
  </g>
  <g fill="#47d58a" stroke="#cf2f25" stroke-linecap="round" stroke-width=".26458">
   <g aria-label="1">
    <path d="m197.1 172.75h1.3335v-0.25188h-0.48895v-2.1114h-0.23336c-0.12965 0.0778-0.28522 0.13706-0.50007 0.1741v0.19632h0.42969v1.741h-0.54081z" fill="#47d58a" stroke="none"/>
   </g>
   <g aria-label="1">
    <path d="m203.72 172.75h1.3335v-0.25188h-0.48895v-2.1114h-0.23336c-0.12965 0.0778-0.28523 0.13706-0.50007 0.1741v0.19632h0.42969v1.741h-0.54081z" fill="#47d58a" stroke="none"/>
   </g>
   <g aria-label="0">
    <path d="m210.96 172.8c0.47043 0 0.75565-0.4408 0.75565-1.2335s-0.28522-1.2187-0.75565-1.2187c-0.47413 0-0.75935 0.42598-0.75935 1.2187s0.28522 1.2335 0.75935 1.2335zm0-0.24447c-0.27781 0-0.46302-0.29634-0.46302-0.98902s0.18521-0.97419 0.46302-0.97419c0.27411 0 0.45932 0.28151 0.45932 0.97419s-0.18521 0.98902-0.45932 0.98902z" fill="#47d58a" stroke="none"/>
   </g>
   <g aria-label="1">
    <path d="m216.95 172.75h1.3335v-0.25188h-0.48895v-2.1114h-0.23336c-0.12965 0.0778-0.28522 0.13706-0.50007 0.1741v0.19632h0.42969v1.741h-0.54081z" fill="#47d58a" stroke="none"/>
   </g>
   <g aria-label="0">
    <path d="m224.19 172.8c0.47043 0 0.75565-0.4408 0.75565-1.2335s-0.28522-1.2187-0.75565-1.2187c-0.47414 0-0.75936 0.42598-0.75936 1.2187s0.28522 1.2335 0.75936 1.2335zm0-0.24447c-0.27782 0-0.46302-0.29634-0.46302-0.98902s0.1852-0.97419 0.46302-0.97419c0.2741 0 0.45931 0.28151 0.45931 0.97419s-0.18521 0.98902-0.45931 0.98902z" fill="#47d58a" stroke="none"/>
   </g>
  </g>
  <g fill="#d2d6dc" opacity=".91" stroke-width=".28222px" aria-label="5 bits">
   <path d="m229.94 170.13-0.0815 1.1742 0.16669 0.0667c0.11112-0.14076 0.27411-0.21855 0.43339-0.21855 0.24077 0 0.47043 0.18521 0.47043 0.55192 0 0.3556-0.21855 0.54822-0.46673 0.54822s-0.41116-0.18891-0.42227-0.21114c-0.0148-0.0296 4e-3 -0.0667-0.0296-0.0889l-0.22966 0.1741c0.15558 0.22595 0.41117 0.3556 0.68527 0.3556 0.40005 0 0.72973-0.27041 0.72973-0.77047 0-0.49636-0.31115-0.77047-0.70009-0.77047-0.12594 0-0.25559 0.0296-0.37412 0.0889l0.0333-0.66675h0.95568v-0.23336z"/>
   <path d="m233.47 169.98v2.4633h0.1741l0.0926-0.22225c0.11113 0.16669 0.29634 0.2667 0.50007 0.2667 0.34819 0 0.70749-0.29634 0.70749-0.91123 0-0.58896-0.34819-0.86307-0.68156-0.86307-0.21485 0-0.41487 0.11483-0.52229 0.30004v-0.94827c0-0.0222 4e-3 -0.0296 0.0222-0.0444 7e-3 -4e-3 0.0259-0.0185 0.0222-0.0407zm0.70009 0.96308c0.15928 0 0.49636 0.0926 0.49636 0.69268 0 0.51488-0.33338 0.61119-0.50006 0.61119-0.11483 0-0.37042-0.0444-0.41487-0.37042-0.0111-0.0852-0.0111-0.18521-0.0111-0.33337 0-0.15188 7e-3 -0.263 0.0445-0.3556 0.063-0.15188 0.21854-0.24448 0.38523-0.24448z"/>
   <path d="m235.5 170.75v0.21855h0.40746v1.2631h-0.42968v0.21114h1.0964v-0.21114h-0.39634v-1.4817zm0.54822-0.73342c-0.10742 0-0.19262 0.0852-0.19262 0.18891 0 0.10372 0.0852 0.18891 0.19262 0.18891s0.19262-0.0852 0.19262-0.18891c0-0.10372-0.0852-0.18891-0.19262-0.18891z"/>
   <path d="m237.65 170.3-0.0333 0.45561h-0.40375l-4e-3 0.21854h0.39635c-0.0222 0.28893-0.0333 0.57785-0.0333 0.86307 0 0.15188 0 0.32227 0.10001 0.46303 0.0815 0.11112 0.21114 0.1778 0.38524 0.1778 0.20002 0 0.39634-0.0852 0.5408-0.18892l-0.0815-0.21113c-0.14446 0.10742-0.27781 0.15557-0.38153 0.15557-0.12594 0-0.25558-0.0704-0.28522-0.27411 0-0.0148-0.0111-0.0778-0.0111-0.32596 0-0.21855 0.0111-0.4408 0.0333-0.65935h0.55562v-0.22225h-0.55192s0.0259-0.30374 0.0445-0.40005c4e-3 -0.037 0.0333-0.0593 0.0185-0.10001z"/>
   <path d="m240.41 170.97c-0.15558-0.17039-0.38153-0.263-0.63341-0.263-0.39265 0-0.64823 0.21855-0.64823 0.47043 0 0.29633 0.31855 0.40376 0.41116 0.43709 0.14446 0.0519 0.32967 0.0963 0.45561 0.15558 0.14076 0.0667 0.16669 0.15557 0.16669 0.21484 0 0.15928-0.19262 0.2667-0.43339 0.2667-0.28892 0-0.47413-0.1741-0.52969-0.23336-0.0111-0.0148-0.0111-0.0259-0.0111-0.0408 0-4e-3 4e-3 -0.0259-0.0148-0.0333l-0.15558 0.263c0.20003 0.18521 0.45932 0.2704 0.71491 0.2704 0.46302 0 0.70379-0.2741 0.70379-0.52969 0-0.11483-0.0482-0.27041-0.24818-0.38153-0.18891-0.10742-0.46302-0.14446-0.6223-0.22225-0.13706-0.0667-0.16669-0.14817-0.16669-0.20743 0-0.13335 0.16669-0.22966 0.3556-0.22966 0.24448 0 0.40746 0.14816 0.47043 0.23336 0.0111 0.0111 7e-3 0.0222 7e-3 0.0333 0 0.0222 0.0148 0.0296 0.0222 0.0296z"/>
  </g>
 </g>
</svg>
