<svg width="19.239mm" height="19.331mm" version="1.1" viewBox="0 0 19.239 19.331" xmlns="http://www.w3.org/2000/svg">
 <g transform="translate(-266.67 -183.49)">
  <path d="m275.42 202.76c-2.2942-0.21849-4.3311-1.1783-5.9626-2.8097-1.3644-1.3642-2.2389-2.9919-2.6639-4.9581-0.093-0.43002-0.11931-0.83502-0.12012-1.8468 0-1.1218 0.0193-1.3865 0.1494-1.9687 0.42858-1.9168 1.2872-3.4941 2.6329-4.8362 2.6276-2.6209 6.3554-3.5092 9.8848-2.3556 2.8831 0.94242 5.1934 3.2662 6.1464 6.1825 0.34826 1.0658 0.42648 1.6193 0.42519 3.0103 0 1.1518-0.0171 1.3324-0.18208 2.0412-0.68416 2.9404-2.4822 5.2359-5.1485 6.573-1.0577 0.53038-2.2154 0.85084-3.509 0.97123-0.81929 0.0762-0.81749 0.0762-1.6524-4e-3zm2.2398-1.7784c2.5029-0.47482 4.5489-1.9758 5.6877-4.1725 0.94472-1.8224 1.1533-3.7672 0.62052-5.786-0.19229-0.7285-0.80484-1.9851-1.2714-2.6081-1.0202-1.3621-2.465-2.3742-4.1014-2.8729-0.95042-0.28967-1.4991-0.35624-2.6036-0.31586-1.1118 0.0407-1.6787 0.1515-2.5804 0.5049-4.3716 1.7132-6.3324 6.7694-4.2464 10.95 1.1326 2.2696 3.221 3.8295 5.7692 4.3087 0.62387 0.11734 2.0874 0.113 2.7258-8e-3zm-2.8878-0.54467c-0.74484-0.16105-1.2188-0.3324-1.9342-0.69921-3.2339-1.6581-4.7722-5.4874-3.6046-8.9726 0.84365-2.5181 2.9494-4.3745 5.5712-4.9117 0.95922-0.19653 2.4582-0.15785 3.3876 0.0875 2.0426 0.53903 3.8512 2.0137 4.8039 3.9168 0.26566 0.53065 0.54158 1.4171 0.65084 2.0907 0.5357 3.3033-1.1571 6.4987-4.2084 7.9441-0.99978 0.47361-1.6798 0.62143-2.9815 0.64802-0.90913 0.0185-1.2035 0-1.6848-0.10361zm3.2209-0.60852c2.776-0.71347 4.9499-3.2258 5.152-5.954l0.0373-0.5022h-1.1849v-0.5832h1.1664v-0.25603c0-0.14079-0.0317-0.40318-0.0702-0.58312l-0.0702-0.32708-0.24533 0.039c-0.24272 0.039-0.24585 0.0365-0.29225-0.21069-0.0604-0.32231-0.0673-0.30649 0.15918-0.36518 0.10708-0.0279 0.19469-0.0804 0.19469-0.11694 0-0.0655-0.37249-0.97192-0.41815-1.0175-0.0129-0.013-0.11746 0.0254-0.23243 0.0846-0.22733 0.11758-0.2263 0.11819-0.42163-0.24233-0.0919-0.16978-0.0883-0.17989 0.0996-0.27707 0.1073-0.0555 0.19504-0.11806 0.19504-0.13912 0-0.062-0.43055-0.63026-0.57992-0.76547-0.13709-0.12401-0.13829-0.12342-0.54277 0.27747l-0.40538 0.40177-0.22149-0.22852-0.22145-0.22849 0.40782-0.41151 0.40787-0.4115-0.28093-0.22665c-0.15451-0.12462-0.36468-0.28006-0.467-0.34546-0.20031-0.12793-0.18256-0.13629-0.39715 0.18722-0.056 0.0845-0.0976 0.0764-0.30867-0.0607-0.241-0.15653-0.24272-0.16066-0.1458-0.34809 0.0539-0.1043 0.0981-0.20296 0.0981-0.21923 0-0.0382-0.94086-0.43045-1.0323-0.43045-0.0382 0-0.0693 0.0274-0.0693 0.0606 0 0.0334-0.0274 0.13272-0.061 0.22087-0.0578 0.15203-0.0748 0.1568-0.33071 0.0918-0.26695-0.0678-0.2694-0.071-0.23106-0.31093 0.0436-0.27226 0.063-0.263-0.75427-0.35798l-0.37257-0.0433v1.1814l-0.30782 1.4e-4 -0.30782 1e-4 0.021-0.55113c0.0163-0.43132 0-0.55885-0.0713-0.5866-0.13466-0.0516-1.1175 0.12541-1.1082 0.19968 4e-3 0.0347 0.0258 0.13872 0.0474 0.23127 0.0356 0.1511 0.0142 0.17595-0.20979 0.24302-0.33243 0.0996-0.31995 0.10398-0.38363-0.13592-0.0666-0.25072-0.11283-0.24878-0.73832 0.0309l-0.44273 0.19796 0.12835 0.21752 0.1283 0.21748-0.2657 0.13558c-0.28003 0.14287-0.27827 0.14348-0.44792-0.1532-0.0607-0.10618-0.0877-0.0993-0.34907 0.0883-0.15579 0.11189-0.36442 0.28813-0.46361 0.39166l-0.18032 0.1882 0.40173 0.40537 0.40177 0.40534-0.20884 0.20889-0.20889 0.20883-0.39997-0.3964c-0.24439-0.24225-0.42977-0.37793-0.47669-0.34898-0.042 0.0262-0.20769 0.22529-0.36768 0.44267-0.31108 0.42254-0.31104 0.4236 0.0309 0.62048 0.0676 0.039 0.056 0.0991-0.055 0.2872-0.15777 0.26736-0.19718 0.28027-0.41687 0.13631-0.18247-0.11956-0.20104-0.0958-0.45697 0.58413-0.15729 0.41785-0.15322 0.48873 0.0279 0.49051 0.23251 0 0.28011 0.0943 0.19525 0.37748-0.0725 0.24191-0.0959 0.26331-0.2483 0.22759-0.0926-0.022-0.19503-0.043-0.22767-0.0474-0.0759-0.0103-0.15386 0.34589-0.17578 0.80214l-0.0171 0.3564 1.1918 0.037v0.57832h-1.1854l0.0399 0.47176c0.0219 0.25945 0.11385 0.72702 0.20425 1.039 0.75977 2.6217 2.9404 4.5404 5.6448 4.9669 0.6671 0.10519 1.988 0.0313 2.6971-0.15108zm0.10871-5.0975-0.88241-0.44378-0.27509 0.13615c-0.67464 0.33375-1.4712 0.0869-1.8304-0.56732-0.0972-0.17698-0.17766-0.40923-0.17882-0.51617 0-0.18913-0.0544-0.22106-1.9277-1.1777-1.059-0.54087-1.936-1.0147-1.9487-1.053-0.0584-0.17504 0.2684-0.1161 1.5227 0.27472 0.74163 0.23109 1.6494 0.51308 2.0172 0.62664l0.66881 0.20648 0.2708-0.18119c0.3685-0.24656 1.005-0.29358 1.378-0.10178 0.3347 0.17211 0.57331 0.43233 0.7276 0.79359 0.11506 0.26948 0.15601 0.30387 0.47395 0.3977 0.88605 0.26146 1.4486 0.44688 1.4942 0.49238 0.0461 0.0462-0.48222 1.4194-0.5827 1.5144-0.0249 0.0235-0.44212-0.15703-0.92744-0.40114zm-1.351-0.66212c0.95733-0.48321 0.63318-1.863-0.43766-1.863-0.386 0-0.68901 0.17973-0.87414 0.51843-0.15391 0.28159-0.12663 0.77329 0.057 1.0254 0.14139 0.19417 0.62563 0.46497 0.83147 0.46497 0.074 0 0.2645-0.0656 0.42338-0.14581zm-0.85123-0.26146c-0.26146-0.17576-0.38471-0.49294-0.31378-0.8074 0.0654-0.28985 0.22261-0.45503 0.51705-0.54324 0.51425-0.15407 0.96903 0.20018 0.96955 0.7553 0 0.61087-0.65488 0.94361-1.1728 0.59534z" fill="#6f8ce9" stroke-width=".28222"/>
 </g>
</svg>
