<svg width="94.22mm" height="19.804mm" version="1.1" viewBox="0 0 94.22 19.804" xmlns="http://www.w3.org/2000/svg">
 <g transform="translate(-40.052 -135.84)">
  <g fill="#d2d6dc">
   <g opacity=".91" aria-label="0">
    <path d="m47.983 135.85c-0.36671 0-0.74454 0.45191-0.74454 1.189 0 0.74824 0.38153 1.1779 0.74824 1.1779 0.33338 0 0.72972-0.36301 0.72972-1.1594 0-0.78529-0.37782-1.2076-0.73342-1.2076zm0.3593 0.52969-0.81121 1.052c-0.03334-0.12965-0.05186-0.27411-0.05186-0.43709 0-0.59267 0.2704-0.91864 0.50006-0.91864 0.12594 0 0.263 0.10002 0.36301 0.30374zm0.0852 0.24448c0.03334 0.12965 0.04815 0.28522 0.04815 0.46672 0 0.64453-0.27781 0.889-0.48154 0.889-0.13705 0-0.27781-0.11112-0.37782-0.31485z" fill="#d2d6dc" stroke-width=".28222px"/>
   </g>
   <g opacity=".91" aria-label="8">
    <path d="m69.175 135.84c-0.3556 0-0.626 0.25558-0.626 0.56673 0 0.22596 0.14446 0.43339 0.3519 0.54081-0.27411 0.12965-0.45932 0.38153-0.45932 0.64823 0 0.34449 0.30374 0.6186 0.70009 0.6186 0.40375 0 0.7112-0.28152 0.7112-0.63342 0-0.2741-0.18521-0.51858-0.4445-0.64082 0.22225-0.11483 0.36671-0.33337 0.36671-0.55562 0-0.30374-0.263-0.54451-0.60008-0.54451zm-0.07779 1.215c0.29633 0.0926 0.49265 0.29634 0.49265 0.52229 0 0.22225-0.18891 0.40375-0.43709 0.40375-0.25188 0-0.4445-0.18891-0.4445-0.41857 0-0.21854 0.17039-0.41857 0.38894-0.50747zm0.05556-1.0001c0.20743 0 0.37042 0.15557 0.37042 0.34819 0 0.1778-0.13705 0.34819-0.31856 0.4445 0 0-0.40746-0.15558-0.40746-0.46302 0-0.18151 0.15558-0.32967 0.3556-0.32967z" fill="#d2d6dc" stroke-width=".28222px"/>
   </g>
   <g opacity=".91" stroke-width=".28222px" aria-label="16">
    <path d="m89.56 135.87h-0.17039l-0.59267 0.30744 0.05927 0.14446 0.45932-0.12964v1.7854h-0.42968v0.20373h1.089v-0.20373h-0.41487z"/>
    <path d="m91.375 135.84c-0.27781 0-0.57415 0.17039-0.71861 0.57414-0.07779 0.21855-0.09631 0.48895-0.09631 0.7112 0 0.27041 0.02593 0.55933 0.1741 0.78158 0.13335 0.20373 0.34078 0.30745 0.54451 0.30745 0.3519 0 0.65934-0.29634 0.65934-0.77417 0-0.47784-0.30745-0.75565-0.63341-0.75565-0.20002 0-0.38894 0.10742-0.48895 0.27781 0.01482-0.78899 0.39264-0.89271 0.55933-0.89271 0.15187 0 0.25559 0.0815 0.2704 0.0963 0.02223 0.0259 0.02223 0.0593 0.05556 0.0852l0.1778-0.20003c-0.13335-0.13335-0.31856-0.21113-0.50377-0.21113zm-0.09631 1.0742c0.18521 0 0.40746 0.14447 0.40746 0.54081 0 0.35931-0.20002 0.5297-0.39635 0.5297-0.28152 0-0.49265-0.32967-0.46302-0.76306 0.10372-0.18891 0.28152-0.30745 0.45191-0.30745z"/>
   </g>
   <g opacity=".91" stroke-width=".28222px" aria-label="24">
    <path d="m109.91 136.23 0.18891 0.15187c0.0222-0.0333 0.0111-0.0556 0.0333-0.0852 0.0556-0.0852 0.19262-0.21113 0.39264-0.21113 0.24818 0 0.4445 0.18891 0.4445 0.43709 0 0.28152-0.23707 0.48524-0.40375 0.63712-0.263 0.23706-0.47784 0.47413-0.67046 0.85566v0.16298h1.3557v-0.25559c-0.0259-0.0111-0.0444 7e-3 -0.0519 0.0148-0.0148 0.0148-0.0222 0.0148-0.037 0.0148h-0.97049c0.19261-0.33338 0.46302-0.56304 0.6297-0.71861 0.16669-0.15928 0.40376-0.39635 0.40376-0.72972 0-0.35931-0.29263-0.64823-0.66675-0.64823-0.263 0-0.51118 0.14076-0.64823 0.37412z"/>
    <path d="m112.64 135.87-0.98161 1.478v0.19261h0.92975v0.63712h0.2667v-0.63341h0.30004v-0.22966h-0.30004v-1.4446zm-0.0482 0.41116v1.0335h-0.67786z"/>
   </g>
   <g opacity=".91" stroke-width=".28222px" aria-label="32">
    <path d="m132.31 136.45c0-0.31486-0.2667-0.58526-0.63342-0.58526-0.20743 0-0.41116 0.0889-0.55562 0.24818l0.14446 0.15928c0.10742-0.11483 0.25559-0.1778 0.40005-0.1778 0.23707 0 0.40005 0.16668 0.40005 0.363 0 0.13706-0.0852 0.29263-0.24818 0.36301-0.0407 0.0148-0.14446 0.0556-0.36301 0.0556v0.20744c0.037-4e-3 0.0778-7e-3 0.11854-7e-3 0.31115 0 0.54081 0.16298 0.54081 0.4408 0 0.25188-0.19262 0.47042-0.46303 0.47042-0.21484 0-0.34448-0.14075-0.363-0.15927-0.0296-0.0333-0.0148-0.0704-0.0482-0.10372l-0.19261 0.23336c0.15187 0.1741 0.37412 0.263 0.60377 0.263 0.4445 0 0.7112-0.31486 0.7112-0.67416 0-0.27411-0.15557-0.50747-0.39634-0.59637 0.20743-0.0778 0.34449-0.27411 0.34449-0.50006z"/>
    <path d="m132.93 136.23 0.18891 0.15187c0.0222-0.0333 0.0111-0.0556 0.0333-0.0852 0.0556-0.0852 0.19262-0.21113 0.39264-0.21113 0.24818 0 0.4445 0.18891 0.4445 0.43709 0 0.28152-0.23706 0.48524-0.40375 0.63712-0.263 0.23706-0.47784 0.47413-0.67045 0.85566v0.16298h1.3557v-0.25559c-0.0259-0.0111-0.0445 7e-3 -0.0519 0.0148-0.0148 0.0148-0.0222 0.0148-0.037 0.0148h-0.97049c0.19262-0.33338 0.46302-0.56304 0.62971-0.71861 0.16668-0.15928 0.40375-0.39635 0.40375-0.72972 0-0.35931-0.29263-0.64823-0.66675-0.64823-0.26299 0-0.51117 0.14076-0.64823 0.37412z"/>
   </g>
  </g>
  <rect x="40.119" y="139.71" width="92.604" height="15.875" fill="#1d232d"/>
  <path d="m40.119 139.71h92.604" fill="#e9e56f" stroke="#a6aeb8" stroke-linecap="round" stroke-width=".13229"/>
  <g fill="#6f8ce9">
   <g stroke="#a6aeb8" stroke-linecap="round" stroke-width=".13229">
    <path d="m40.119 145h92.604"/>
    <path d="m40.119 150.29h92.604"/>
    <path d="m40.119 155.58h92.604"/>
    <path d="m48.057 139.71v15.875"/>
   </g>
   <g>
    <g opacity=".91" stroke-width=".28222px" aria-label="Bit">
     <path d="m41.41 141.16v2.3077h0.65193c0.15558 0 0.31485 0 0.47413-0.0667 0.24818-0.10742 0.38523-0.33338 0.38523-0.57044 0-0.27041-0.1741-0.51118-0.42968-0.59637 0.20373-0.0852 0.34078-0.28893 0.34078-0.50748 0-0.20743-0.11853-0.40745-0.33708-0.50006-0.14446-0.063-0.28892-0.0667-0.42968-0.0667zm0.25559 0.22225h0.36301c0.10001 0 0.20373 0 0.30745 0.0407 0.15187 0.063 0.23336 0.19262 0.23336 0.32597s-0.07779 0.25929-0.22225 0.32226c-0.10742 0.0445-0.21855 0.0445-0.32226 0.0445h-0.3593zm0 0.95197h0.37782c0.11483 0 0.22966 4e-3 0.34449 0.0593 0.17039 0.0778 0.263 0.24448 0.263 0.41117 0 0.16668-0.0889 0.31856-0.24818 0.39264-0.10001 0.0445-0.19632 0.0445-0.29633 0.0445h-0.4408z"/>
     <path d="m43.477 141.78v0.21854h0.40746v1.2631h-0.42968v0.21113h1.0964v-0.21113h-0.39635v-1.4817zm0.54822-0.73343c-0.10742 0-0.19262 0.0852-0.19262 0.18892 0 0.10371 0.0852 0.18891 0.19262 0.18891 0.10742 0 0.19262-0.0852 0.19262-0.18891 0-0.10372-0.0852-0.18892-0.19262-0.18892z"/>
     <path d="m45.633 141.32-0.03334 0.45561h-0.40375l-0.0037 0.21855h0.39634c-0.02222 0.28892-0.03334 0.57785-0.03334 0.86307 0 0.15187 0 0.32226 0.10001 0.46302 0.08149 0.11113 0.21114 0.1778 0.38523 0.1778 0.20002 0 0.39635-0.0852 0.54081-0.18891l-0.08149-0.21114c-0.14446 0.10742-0.27781 0.15558-0.38153 0.15558-0.12594 0-0.25559-0.0704-0.28522-0.27411 0-0.0148-0.01111-0.0778-0.01111-0.32597 0-0.21855 0.01111-0.4408 0.03334-0.65934h0.55562v-0.22225h-0.55192s0.02593-0.30374 0.04445-0.40005c0.0037-0.037 0.03334-0.0593 0.01852-0.10001z"/>
    </g>
    <g opacity=".91" aria-label="0">
     <path d="m44.014 146.44c-0.36671 0-0.74454 0.45191-0.74454 1.189 0 0.74824 0.38153 1.1779 0.74824 1.1779 0.33338 0 0.72972-0.363 0.72972-1.1594 0-0.78528-0.37782-1.2076-0.73342-1.2076zm0.3593 0.5297-0.81121 1.052c-0.03334-0.12964-0.05186-0.27411-0.05186-0.43709 0-0.59267 0.2704-0.91863 0.50006-0.91863 0.12594 0 0.263 0.10001 0.36301 0.30374zm0.0852 0.24447c0.03334 0.12965 0.04815 0.28522 0.04815 0.46673 0 0.64452-0.27781 0.889-0.48154 0.889-0.13705 0-0.27781-0.11113-0.37782-0.31486z" fill="#6f8ce9" stroke-width=".28222px"/>
    </g>
    <g opacity=".91" stroke-width=".28222px" aria-label="32">
     <path d="m43.677 152.32c0-0.31486-0.2667-0.58526-0.63341-0.58526-0.20743 0-0.41116 0.0889-0.55562 0.24818l0.14446 0.15928c0.10742-0.11483 0.25559-0.1778 0.40005-0.1778 0.23707 0 0.40005 0.16668 0.40005 0.363 0 0.13706-0.08519 0.29263-0.24818 0.36301-0.04075 0.0148-0.14446 0.0556-0.36301 0.0556v0.20744c0.03704-4e-3 0.07779-7e-3 0.11853-7e-3 0.31115 0 0.54081 0.16298 0.54081 0.4408 0 0.25188-0.19262 0.47042-0.46302 0.47042-0.21484 0-0.34449-0.14075-0.36301-0.15927-0.02963-0.0333-0.01482-0.0704-0.04815-0.10372l-0.19262 0.23336c0.15187 0.1741 0.37412 0.263 0.60378 0.263 0.4445 0 0.7112-0.31486 0.7112-0.67416 0-0.27411-0.15558-0.50747-0.39635-0.59637 0.20743-0.0778 0.34449-0.27411 0.34449-0.50006z"/>
     <path d="m44.295 152.1 0.18891 0.15187c0.02222-0.0333 0.01111-0.0556 0.03334-0.0852 0.05556-0.0852 0.19262-0.21113 0.39264-0.21113 0.24818 0 0.4445 0.18891 0.4445 0.43709 0 0.28152-0.23707 0.48524-0.40375 0.63712-0.263 0.23706-0.47784 0.47413-0.67045 0.85566v0.16298h1.3557v-0.25559c-0.02593-0.0111-0.04445 7e-3 -0.05186 0.0148-0.01482 0.0148-0.02222 0.0148-0.03704 0.0148h-0.97049c0.19262-0.33338 0.46302-0.56304 0.62971-0.71861 0.16669-0.15928 0.40375-0.39635 0.40375-0.72972 0-0.35931-0.29263-0.64823-0.66675-0.64823-0.263 0-0.51118 0.14076-0.64823 0.37412z"/>
    </g>
   </g>
   <g stroke="#a6aeb8" stroke-linecap="round" stroke-width=".13229">
    <path d="m40.119 139.71v15.875"/>
    <path d="m132.72 139.71v15.875"/>
    <path d="m90.39 139.71v15.875"/>
   </g>
   <g opacity=".91" stroke-width=".28222px" aria-label="Bits 0-15">
    <path d="m60.989 141.16v2.3077h0.65193c0.15558 0 0.31485 0 0.47413-0.0667 0.24818-0.10742 0.38523-0.33338 0.38523-0.57044 0-0.27041-0.1741-0.51118-0.42968-0.59637 0.20373-0.0852 0.34078-0.28893 0.34078-0.50748 0-0.20743-0.11853-0.40745-0.33708-0.50006-0.14446-0.063-0.28892-0.0667-0.42968-0.0667zm0.25559 0.22225h0.36301c0.10001 0 0.20373 0 0.30745 0.0407 0.15187 0.063 0.23336 0.19262 0.23336 0.32597s-0.07779 0.25929-0.22225 0.32226c-0.10742 0.0445-0.21854 0.0445-0.32226 0.0445h-0.3593zm0 0.95197h0.37782c0.11483 0 0.22966 4e-3 0.34449 0.0593 0.17039 0.0778 0.263 0.24448 0.263 0.41117 0 0.16668-0.0889 0.31856-0.24818 0.39264-0.10001 0.0445-0.19632 0.0445-0.29633 0.0445h-0.4408z"/>
    <path d="m63.056 141.78v0.21854h0.40746v1.2631h-0.42968v0.21113h1.0964v-0.21113h-0.39635v-1.4817zm0.54822-0.73343c-0.10742 0-0.19262 0.0852-0.19262 0.18892 0 0.10371 0.0852 0.18891 0.19262 0.18891 0.10742 0 0.19262-0.0852 0.19262-0.18891 0-0.10372-0.0852-0.18892-0.19262-0.18892z"/>
    <path d="m65.212 141.32-0.03334 0.45561h-0.40375l-0.0037 0.21855h0.39635c-0.02222 0.28892-0.03334 0.57785-0.03334 0.86307 0 0.15187 0 0.32226 0.10001 0.46302 0.08149 0.11113 0.21114 0.1778 0.38523 0.1778 0.20002 0 0.39634-0.0852 0.54081-0.18891l-0.08149-0.21114c-0.14446 0.10742-0.27781 0.15558-0.38153 0.15558-0.12594 0-0.25559-0.0704-0.28522-0.27411 0-0.0148-0.01111-0.0778-0.01111-0.32597 0-0.21855 0.01111-0.4408 0.03334-0.65934h0.55562v-0.22225h-0.55192s0.02593-0.30374 0.04445-0.40005c0.0037-0.037 0.03334-0.0593 0.01852-0.10001z"/>
    <path d="m67.968 142c-0.15558-0.17039-0.38153-0.26299-0.63341-0.26299-0.39264 0-0.64823 0.21854-0.64823 0.47043 0 0.29633 0.31856 0.40375 0.41116 0.43709 0.14446 0.0519 0.32967 0.0963 0.45561 0.15557 0.14076 0.0667 0.16669 0.15558 0.16669 0.21484 0 0.15928-0.19262 0.2667-0.43339 0.2667-0.28892 0-0.47413-0.17409-0.5297-0.23336-0.01111-0.0148-0.01111-0.0259-0.01111-0.0407 0-4e-3 0.0037-0.0259-0.01482-0.0333l-0.15558 0.26299c0.20002 0.18521 0.45932 0.27041 0.7149 0.27041 0.46302 0 0.70379-0.27411 0.70379-0.5297 0-0.11483-0.04816-0.2704-0.24818-0.38153-0.18891-0.10742-0.46302-0.14446-0.6223-0.22225-0.13705-0.0667-0.16669-0.14816-0.16669-0.20743 0-0.13335 0.16669-0.22966 0.3556-0.22966 0.24448 0 0.40746 0.14817 0.47043 0.23336 0.01111 0.0111 0.0074 0.0222 0.0074 0.0333 0 0.0222 0.01482 0.0296 0.02223 0.0296z"/>
    <path d="m71.001 141.15c-0.36671 0-0.74454 0.45191-0.74454 1.189 0 0.74824 0.38153 1.1779 0.74824 1.1779 0.33338 0 0.72972-0.36301 0.72972-1.1594 0-0.78528-0.37782-1.2076-0.73342-1.2076zm0.3593 0.5297-0.81121 1.052c-0.03334-0.12965-0.05186-0.27411-0.05186-0.43709 0-0.59267 0.2704-0.91864 0.50006-0.91864 0.12594 0 0.263 0.10002 0.36301 0.30375zm0.0852 0.24447c0.03334 0.12965 0.04815 0.28522 0.04815 0.46673 0 0.64452-0.27781 0.889-0.48154 0.889-0.13706 0-0.27781-0.11113-0.37782-0.31486z"/>
    <path d="m72.183 142.18v0.24447h1.3335v-0.24447z"/>
    <path d="m74.876 141.16h-0.17039l-0.59267 0.30744 0.05927 0.14447 0.45932-0.12965v1.7854h-0.42968v0.20373h1.089v-0.20373h-0.41487z"/>
    <path d="m76.021 141.16-0.08149 1.1742 0.16669 0.0667c0.11112-0.14076 0.27411-0.21854 0.43339-0.21854 0.24077 0 0.47043 0.18521 0.47043 0.55192 0 0.3556-0.21855 0.54821-0.46672 0.54821s-0.41116-0.18891-0.42228-0.21113c-0.01482-0.0296 0.0037-0.0667-0.02963-0.0889l-0.22966 0.17409c0.15558 0.22596 0.41116 0.3556 0.68527 0.3556 0.40005 0 0.72972-0.2704 0.72972-0.77046 0-0.49636-0.31115-0.77047-0.70009-0.77047-0.12594 0-0.25559 0.0296-0.37412 0.0889l0.03334-0.66675h0.95568v-0.23336z"/>
   </g>
   <g opacity=".91" stroke-width=".28222px" aria-label="Bits 16-31">
    <path d="m102.4 141.16v2.3077h0.65193c0.15557 0 0.31485 0 0.47413-0.0667 0.24818-0.10742 0.38524-0.33338 0.38524-0.57044 0-0.27041-0.1741-0.51118-0.42969-0.59637 0.20373-0.0852 0.34079-0.28893 0.34079-0.50748 0-0.20743-0.11854-0.40745-0.33708-0.50006-0.14447-0.063-0.28893-0.0667-0.42969-0.0667zm0.25558 0.22225h0.36301c0.10001 0 0.20373 0 0.30745 0.0407 0.15187 0.063 0.23336 0.19262 0.23336 0.32597s-0.0778 0.25929-0.22225 0.32226c-0.10742 0.0445-0.21855 0.0445-0.32226 0.0445h-0.35931zm0 0.95197h0.37783c0.11483 0 0.22966 4e-3 0.34449 0.0593 0.17039 0.0778 0.26299 0.24448 0.26299 0.41117 0 0.16668-0.0889 0.31856-0.24818 0.39264-0.10001 0.0445-0.19632 0.0445-0.29633 0.0445h-0.4408z"/>
    <path d="m104.46 141.78v0.21854h0.40746v1.2631h-0.42968v0.21113h1.0964v-0.21113h-0.39635v-1.4817zm0.54822-0.73343c-0.10742 0-0.19262 0.0852-0.19262 0.18892 0 0.10371 0.0852 0.18891 0.19262 0.18891s0.19261-0.0852 0.19261-0.18891c0-0.10372-0.0852-0.18892-0.19261-0.18892z"/>
    <path d="m106.62 141.32-0.0333 0.45561h-0.40376l-4e-3 0.21855h0.39635c-0.0222 0.28892-0.0333 0.57785-0.0333 0.86307 0 0.15187 0 0.32226 0.10001 0.46302 0.0815 0.11113 0.21114 0.1778 0.38523 0.1778 0.20003 0 0.39635-0.0852 0.54081-0.18891l-0.0815-0.21114c-0.14446 0.10742-0.27781 0.15558-0.38153 0.15558-0.12594 0-0.25559-0.0704-0.28522-0.27411 0-0.0148-0.0111-0.0778-0.0111-0.32597 0-0.21855 0.0111-0.4408 0.0333-0.65934h0.55562v-0.22225h-0.55192s0.0259-0.30374 0.0444-0.40005c4e-3 -0.037 0.0333-0.0593 0.0185-0.10001z"/>
    <path d="m109.38 142c-0.15558-0.17039-0.38153-0.26299-0.63342-0.26299-0.39264 0-0.64823 0.21854-0.64823 0.47043 0 0.29633 0.31856 0.40375 0.41117 0.43709 0.14446 0.0519 0.32967 0.0963 0.45561 0.15557 0.14076 0.0667 0.16669 0.15558 0.16669 0.21484 0 0.15928-0.19262 0.2667-0.43339 0.2667-0.28893 0-0.47413-0.17409-0.5297-0.23336-0.0111-0.0148-0.0111-0.0259-0.0111-0.0407 0-4e-3 4e-3 -0.0259-0.0148-0.0333l-0.15557 0.26299c0.20002 0.18521 0.45932 0.27041 0.7149 0.27041 0.46302 0 0.70379-0.27411 0.70379-0.5297 0-0.11483-0.0481-0.2704-0.24817-0.38153-0.18892-0.10742-0.46303-0.14446-0.6223-0.22225-0.13706-0.0667-0.16669-0.14816-0.16669-0.20743 0-0.13335 0.16669-0.22966 0.3556-0.22966 0.24447 0 0.40746 0.14817 0.47043 0.23336 0.0111 0.0111 7e-3 0.0222 7e-3 0.0333 0 0.0222 0.0148 0.0296 0.0222 0.0296z"/>
    <path d="m112.58 141.16h-0.17039l-0.59267 0.30744 0.0593 0.14447 0.45931-0.12965v1.7854h-0.42968v0.20373h1.089v-0.20373h-0.41487z"/>
    <path d="m114.39 141.14c-0.27781 0-0.57414 0.17039-0.71861 0.57414-0.0778 0.21855-0.0963 0.48895-0.0963 0.7112 0 0.27041 0.0259 0.55933 0.1741 0.78158 0.13335 0.20373 0.34078 0.30745 0.54451 0.30745 0.3519 0 0.65934-0.29633 0.65934-0.77417s-0.30744-0.75565-0.63341-0.75565c-0.20002 0-0.38894 0.10742-0.48895 0.27781 0.0148-0.78899 0.39264-0.8927 0.55933-0.8927 0.15187 0 0.25559 0.0815 0.27041 0.0963 0.0222 0.0259 0.0222 0.0593 0.0556 0.0852l0.1778-0.20002c-0.13335-0.13335-0.31856-0.21114-0.50377-0.21114zm-0.0963 1.0742c0.18521 0 0.40746 0.14446 0.40746 0.5408 0 0.35931-0.20002 0.5297-0.39634 0.5297-0.28152 0-0.49266-0.32967-0.46303-0.76306 0.10372-0.18891 0.28152-0.30744 0.45191-0.30744z"/>
    <path d="m115.44 142.18v0.24447h1.3335v-0.24447z"/>
    <path d="m118.55 141.74c0-0.31486-0.2667-0.58526-0.63341-0.58526-0.20744 0-0.41116 0.0889-0.55563 0.24818l0.14447 0.15928c0.10742-0.11483 0.25558-0.1778 0.40005-0.1778 0.23706 0 0.40005 0.16668 0.40005 0.36301 0 0.13705-0.0852 0.29262-0.24818 0.363-0.0408 0.0148-0.14447 0.0556-0.36301 0.0556v0.20743c0.037-4e-3 0.0778-7e-3 0.11853-7e-3 0.31115 0 0.54081 0.16298 0.54081 0.4408 0 0.25188-0.19262 0.47043-0.46302 0.47043-0.21484 0-0.34449-0.14076-0.36301-0.15928-0.0296-0.0333-0.0148-0.0704-0.0481-0.10372l-0.19262 0.23336c0.15187 0.1741 0.37412 0.263 0.60378 0.263 0.4445 0 0.7112-0.31486 0.7112-0.67416 0-0.27411-0.15558-0.50747-0.39635-0.59637 0.20744-0.0778 0.34449-0.27411 0.34449-0.50006z"/>
    <path d="m119.99 141.16h-0.17039l-0.59266 0.30744 0.0593 0.14447 0.45932-0.12965v1.7854h-0.42968v0.20373h1.089v-0.20373h-0.41487z"/>
   </g>
  </g>
  <g fill="#d2d6dc" stroke-width=".28222px">
   <g opacity=".91" aria-label="Source port">
    <path d="m60.567 146.73c-0.15558-0.18891-0.38523-0.28892-0.63712-0.28892-0.41857 0-0.70379 0.2741-0.70379 0.59266 0 0.13335 0.05186 0.30745 0.24448 0.44821 0.21484 0.15928 0.54822 0.23706 0.72231 0.34819 0.15187 0.0926 0.19262 0.21484 0.19262 0.31856 0 0.20002-0.17039 0.41857-0.50377 0.41857-0.25188 0-0.4482-0.12594-0.55192-0.25559-0.01111-0.0148-0.01111-0.0222-0.01111-0.037 0-7e-3 0-0.0296-0.01482-0.037l-0.15558 0.2667c0.1815 0.19632 0.4408 0.29633 0.72602 0.29633 0.56303 0 0.77047-0.37782 0.77047-0.66675 0-0.12224-0.03704-0.28152-0.1815-0.41857-0.20002-0.18891-0.52599-0.25559-0.73713-0.37783-0.19262-0.11482-0.23336-0.25188-0.23336-0.34448 0-0.1778 0.15187-0.33708 0.41487-0.33708 0.21484 0 0.38153 0.0963 0.47043 0.22595 0.01111 0.0148 0.0074 0.0222 0.0074 0.037 0 0.0222 0.01111 0.0296 0.01852 0.0296z"/>
    <path d="m62.515 147.92c0-0.58526-0.37042-0.889-0.75565-0.889-0.42968 0-0.8001 0.37042-0.8001 0.89641 0 0.51488 0.36671 0.87789 0.79269 0.87789 0.40005 0 0.76306-0.32226 0.76306-0.8853zm-0.77417-0.66304c0.24448 0 0.50377 0.21113 0.50377 0.67416 0 0.42597-0.24448 0.64082-0.48895 0.64082-0.2704 0-0.51488-0.25189-0.51488-0.67046 0-0.41486 0.24077-0.64452 0.50006-0.64452z"/>
    <path d="m62.893 147.07v0.94457c0 0.14446 0 0.29263 0.06668 0.4445 0.09631 0.22225 0.30374 0.34448 0.52599 0.34448 0.21114 0 0.41116-0.11482 0.52229-0.30003l-0.0037 0.12594c0 0.0444 0 0.0889 0.0074 0.12964h0.28152c-0.01852-0.0481-0.02223-0.10371-0.02223-0.15187v-1.5372h-0.2667v0.92975c0 0.12965-0.01111 0.22966-0.06667 0.33338-0.07779 0.14446-0.22966 0.25188-0.39264 0.25188-0.12965 0-0.25559-0.0741-0.32226-0.20743-0.05927-0.11854-0.05927-0.25189-0.05927-0.36301v-0.94457z"/>
    <path d="m64.882 147.07v1.6928h0.2667v-0.82233c0-0.10371 0.0037-0.21484 0.11853-0.39634 0.15558-0.24448 0.3556-0.28522 0.47784-0.28522 0.14076 0 0.22966 0.0667 0.27781 0.12594 0.02223 0.0296 0.03334 0.0593 0.06297 0.0852l0.12594-0.25558c-0.10742-0.11113-0.263-0.18521-0.45191-0.18521-0.24818 0-0.50006 0.12594-0.61119 0.36671l0.01111-0.32597z"/>
    <path d="m68.057 147.35c-0.13335-0.19632-0.3593-0.31486-0.63341-0.31486-0.49636 0-0.84825 0.37412-0.84825 0.88159 0 0.51118 0.3519 0.889 0.83344 0.889 0.23336 0 0.46302-0.0963 0.6223-0.2704l-0.15187-0.1778c-0.11483 0.12965-0.28152 0.20373-0.4482 0.20373-0.32967 0-0.58156-0.27411-0.58156-0.67045 0-0.38524 0.24818-0.62601 0.55933-0.62601 0.28892 0 0.42598 0.20003 0.43709 0.22225 0.01482 0.0259-0.0074 0.063 0.02223 0.0852z"/>
    <path d="m69.175 147.03c-0.40375 0-0.77787 0.28892-0.77787 0.90382 0 0.56673 0.3519 0.86677 0.81121 0.86677 0.24448 0 0.46302-0.0889 0.60748-0.263l-0.14817-0.14446c-0.10742 0.12594-0.2704 0.19262-0.43709 0.19262-0.22595 0-0.55562-0.12594-0.57415-0.63341h1.2002c0.01111-0.11483 0.0074-0.22596-0.01111-0.32227-0.07779-0.45561-0.39264-0.60007-0.67046-0.60007zm-0.51118 0.71861c0.05556-0.40005 0.31115-0.51488 0.49266-0.51488 0.27411 0 0.47043 0.24077 0.43709 0.51488z"/>
    <path d="m72.142 147.07 0.0037 2.3077h0.2704v-0.84085c0.11483 0.16669 0.30374 0.27041 0.50747 0.27041 0.34819 0 0.7112-0.29263 0.7112-0.91123 0-0.59637-0.3519-0.86307-0.68527-0.86307-0.21855 0-0.42228 0.11113-0.5371 0.29634v-0.2593zm0.7075 0.18892c0.14817 0 0.50747 0.0778 0.50747 0.69268 0 0.5334-0.34819 0.61859-0.50747 0.61859-0.15928 0-0.32226-0.0815-0.38894-0.23336-0.04815-0.11483-0.04815-0.25559-0.04815-0.50006 0-0.14076 0.0074-0.24448 0.04445-0.33338 0.06668-0.15187 0.22225-0.24447 0.39264-0.24447z"/>
    <path d="m75.48 147.92c0-0.58526-0.37042-0.889-0.75565-0.889-0.42968 0-0.8001 0.37042-0.8001 0.89641 0 0.51488 0.36671 0.87789 0.79269 0.87789 0.40005 0 0.76306-0.32226 0.76306-0.8853zm-0.77417-0.66304c0.24448 0 0.50377 0.21113 0.50377 0.67416 0 0.42597-0.24448 0.64082-0.48895 0.64082-0.2704 0-0.51488-0.25189-0.51488-0.67046 0-0.41486 0.24077-0.64452 0.50006-0.64452z"/>
    <path d="m75.995 147.07v1.6928h0.2667v-0.82233c0-0.10371 0.0037-0.21484 0.11853-0.39634 0.15558-0.24448 0.3556-0.28522 0.47784-0.28522 0.14076 0 0.22966 0.0667 0.27781 0.12594 0.02222 0.0296 0.03334 0.0593 0.06297 0.0852l0.12594-0.25558c-0.10742-0.11113-0.263-0.18521-0.45191-0.18521-0.24818 0-0.50006 0.12594-0.61119 0.36671l0.01111-0.32597z"/>
    <path d="m78.176 146.62-0.03334 0.45561h-0.40375l-0.0037 0.21855h0.39635c-0.02223 0.28893-0.03334 0.57785-0.03334 0.86307 0 0.15187 0 0.32226 0.10001 0.46302 0.08149 0.11113 0.21114 0.1778 0.38523 0.1778 0.20002 0 0.39635-0.0852 0.54081-0.18891l-0.08149-0.21114c-0.14446 0.10742-0.27781 0.15558-0.38153 0.15558-0.12594 0-0.25559-0.0704-0.28522-0.27411 0-0.0148-0.01111-0.0778-0.01111-0.32597 0-0.21854 0.01111-0.44079 0.03334-0.65934h0.55562v-0.22225h-0.55192s0.02593-0.30374 0.04445-0.40005c0.0037-0.037 0.03334-0.0593 0.01852-0.10001z"/>
   </g>
   <g opacity=".91" aria-label="Length">
    <path d="m63.834 151.74v2.3114h1.3817v-0.22225h-1.115v-1.9632c0-0.0333 0.01111-0.0444 0.02223-0.0667 0.0037-0.0111 0.01482-0.0296 0.01111-0.0593z"/>
    <path d="m66.397 152.32c-0.40375 0-0.77788 0.28892-0.77788 0.90381 0 0.56674 0.3519 0.86678 0.81121 0.86678 0.24448 0 0.46302-0.0889 0.60748-0.263l-0.14817-0.14446c-0.10742 0.12594-0.2704 0.19262-0.43709 0.19262-0.22596 0-0.55562-0.12595-0.57415-0.63342h1.2002c0.01111-0.11483 0.0074-0.22595-0.01111-0.32226-0.07779-0.45561-0.39264-0.60007-0.67045-0.60007zm-0.51118 0.7186c0.05556-0.40005 0.31115-0.51488 0.49265-0.51488 0.27411 0 0.47043 0.24078 0.43709 0.51488z"/>
    <path d="m67.546 154.05h0.2704v-0.97419c0-0.11113 0.01482-0.19633 0.0852-0.28893 0.06297-0.0852 0.22595-0.23707 0.40375-0.23707 0.0852 0 0.17039 0.037 0.22966 0.10742 0.0926 0.11113 0.0926 0.25559 0.0926 0.37413v1.0186h0.263v-1.026c0-0.12965 0-0.27041-0.05927-0.40746-0.0852-0.18891-0.25929-0.29633-0.45191-0.29633-0.22966 0-0.43709 0.14816-0.56303 0.33707v-0.29633h-0.2704z"/>
    <path d="m69.609 152.89c0-0.20373 0.17039-0.37041 0.37412-0.37041 0.20743 0 0.37412 0.16668 0.37412 0.37041s-0.16669 0.37042-0.37412 0.37042c-0.20743 0-0.37412-0.16669-0.37412-0.37042zm0.38894-0.58155c-0.33708 0-0.62971 0.2667-0.62971 0.59637 0 0.18521 0.0926 0.3593 0.24818 0.45932-0.12224 0.10371-0.19262 0.21854-0.19262 0.32596 0 0.0704 0.02963 0.17039 0.13706 0.22596-0.1815 0.11483-0.27411 0.24077-0.27411 0.37412 0 0.18521 0.17039 0.40375 0.76306 0.40375 0.57414 0 0.78158-0.29263 0.78158-0.51858 0-0.14817-0.0852-0.29633-0.263-0.36671-0.1778-0.0741-0.38153-0.0482-0.57415-0.0482-0.12594 0-0.20743-0.0111-0.24077-0.0222-0.06668-0.0185-0.10372-0.0593-0.10372-0.11113 0-0.0889 0.10372-0.17409 0.12224-0.18891 0.06667 0.0259 0.14076 0.037 0.21484 0.037 0.33338 0 0.60748-0.2667 0.60748-0.57785 0-0.10372-0.02963-0.20373-0.0852-0.28892 0.0889-0.0519 0.19262-0.0815 0.29633-0.0815 0.03334 0 0.06297 4e-3 0.09631 0.0111l-0.02963-0.21855c-0.17039-0.0148-0.34078 0.0408-0.47043 0.14817-0.10742-0.10372-0.24818-0.15928-0.40375-0.15928zm-0.25559 1.6558c0.06297 7e-3 0.15187 0.0148 0.28152 0.0222 0.12594 4e-3 0.263-7e-3 0.3593 7e-3 0.15558 0.0259 0.20373 0.12224 0.20373 0.19633 0 0.0741-0.04445 0.16298-0.15928 0.22595-0.12594 0.0667-0.2667 0.0741-0.38153 0.0741-0.07779 0-0.22225-4e-3 -0.34819-0.0556-0.13705-0.0556-0.16669-0.14817-0.16669-0.20743 0-0.12224 0.11483-0.21114 0.21114-0.263z"/>
    <path d="m71.694 151.91-0.03334 0.45561h-0.40375l-0.0037 0.21855h0.39634c-0.02223 0.28892-0.03334 0.57785-0.03334 0.86307 0 0.15187 0 0.32226 0.10001 0.46302 0.08149 0.11112 0.21114 0.1778 0.38523 0.1778 0.20002 0 0.39635-0.0852 0.54081-0.18891l-0.08149-0.21114c-0.14446 0.10742-0.27781 0.15557-0.38153 0.15557-0.12594 0-0.25559-0.0704-0.28522-0.2741 0-0.0148-0.01111-0.0778-0.01111-0.32597 0-0.21855 0.01111-0.4408 0.03334-0.65934h0.55562v-0.22225h-0.55192s0.02593-0.30374 0.04445-0.40005c0.0037-0.037 0.03334-0.0593 0.01852-0.10002z"/>
    <path d="m73.105 154.05h0.27411v-0.97419c0-0.11113 0.01111-0.19633 0.08149-0.28893 0.06668-0.0852 0.22966-0.23707 0.40746-0.23707 0.08519 0 0.17039 0.037 0.22966 0.10742 0.0926 0.11113 0.0926 0.25559 0.0926 0.37413v1.0186h0.263v-1.026c0-0.12965-0.0037-0.27041-0.06297-0.40746-0.0852-0.18891-0.25559-0.29633-0.4482-0.29633-0.22966 0-0.4408 0.14816-0.56303 0.33707v-0.9816c0-0.0111 0-0.0222 0.01111-0.0333s0.02593-0.0222 0.02593-0.0407c0-4e-3 0-7e-3 -0.0037-0.0111h-0.30745z"/>
   </g>
   <g opacity=".91" aria-label="Checksum">
    <path d="m105.1 151.73c-0.3593 0-0.87788 0.263-0.87788 1.189 0 0.889 0.49635 1.1779 0.87788 1.1779 0.27411 0 0.5297-0.14447 0.67416-0.38153l-0.18891-0.12224c-0.10742 0.1741-0.29263 0.27781-0.47043 0.27781-0.34078 0-0.64082-0.35189-0.64082-0.9779 0-0.61118 0.29263-0.95567 0.61859-0.95567 0.1778 0 0.3482 0.10742 0.4408 0.2704 7e-3 0.0111 0.0148 0.0222 0.0148 0.037 0 0.0111-4e-3 0.0185-4e-3 0.0296 0 4e-3 0 0.0222 0.0185 0.0333l0.24448-0.11853c-0.12224-0.27781-0.40005-0.45932-0.7075-0.45932z"/>
    <path d="m106.18 154.05h0.27411v-0.97419c0-0.11113 0.0111-0.19633 0.0815-0.28893 0.0667-0.0852 0.22966-0.23707 0.40746-0.23707 0.0852 0 0.17039 0.037 0.22966 0.10742 0.0926 0.11113 0.0926 0.25559 0.0926 0.37413v1.0186h0.263v-1.026c0-0.12965-4e-3 -0.27041-0.063-0.40746-0.0852-0.18891-0.25559-0.29633-0.44821-0.29633-0.22966 0-0.44079 0.14816-0.56303 0.33707v-0.9816c0-0.0111 0-0.0222 0.0111-0.0333s0.0259-0.0222 0.0259-0.0407c0-4e-3 0-7e-3 -4e-3 -0.0111h-0.30745z"/>
    <path d="m108.73 152.32c-0.40375 0-0.77787 0.28892-0.77787 0.90381 0 0.56674 0.35189 0.86678 0.81121 0.86678 0.24447 0 0.46302-0.0889 0.60748-0.263l-0.14817-0.14446c-0.10742 0.12594-0.2704 0.19262-0.43709 0.19262-0.22595 0-0.55562-0.12595-0.57414-0.63342h1.2002c0.0111-0.11483 7e-3 -0.22595-0.0111-0.32226-0.0778-0.45561-0.39264-0.60007-0.67045-0.60007zm-0.51117 0.7186c0.0556-0.40005 0.31115-0.51488 0.49265-0.51488 0.27411 0 0.47043 0.24078 0.43709 0.51488z"/>
    <path d="m111.32 152.64c-0.13335-0.19632-0.35931-0.31485-0.63341-0.31485-0.49636 0-0.84826 0.37412-0.84826 0.88159 0 0.51118 0.3519 0.889 0.83344 0.889 0.23336 0 0.46302-0.0963 0.6223-0.2704l-0.15187-0.1778c-0.11483 0.12964-0.28152 0.20373-0.44821 0.20373-0.32967 0-0.58155-0.27411-0.58155-0.67046 0-0.38523 0.24818-0.626 0.55933-0.626 0.28892 0 0.42598 0.20002 0.43709 0.22225 0.0148 0.0259-7e-3 0.063 0.0222 0.0852z"/>
    <path d="m111.72 151.59v2.4633h0.2667v-0.64083l0.22595-0.20743 0.68898 0.86307s0.14446-0.0148 0.31855-0.0148h0.0259l-0.82973-1.0112 0.7149-0.67046h-0.0963c-0.0667 0-0.13335-4e-3 -0.20003-0.0222l-0.84825 0.78899v-1.452c0-0.0148 4e-3 -0.0259 0.0148-0.0445 0.0111-0.0111 0.0259-0.0259 0.0222-0.0519z"/>
    <path d="m114.93 152.59c-0.15558-0.17039-0.38153-0.26299-0.63342-0.26299-0.39264 0-0.64823 0.21854-0.64823 0.47042 0 0.29634 0.31856 0.40376 0.41117 0.4371 0.14446 0.0519 0.32967 0.0963 0.45561 0.15557 0.14076 0.0667 0.16669 0.15558 0.16669 0.21484 0 0.15928-0.19262 0.2667-0.43339 0.2667-0.28893 0-0.47413-0.17409-0.5297-0.23336-0.0111-0.0148-0.0111-0.0259-0.0111-0.0408 0-4e-3 4e-3 -0.0259-0.0148-0.0333l-0.15557 0.26299c0.20002 0.18521 0.45932 0.27041 0.7149 0.27041 0.46302 0 0.70379-0.27411 0.70379-0.5297 0-0.11483-0.0482-0.2704-0.24817-0.38153-0.18892-0.10742-0.46303-0.14446-0.6223-0.22225-0.13706-0.0667-0.16669-0.14816-0.16669-0.20743 0-0.13335 0.16669-0.22966 0.3556-0.22966 0.24447 0 0.40746 0.14817 0.47043 0.23336 0.0111 0.0111 7e-3 0.0222 7e-3 0.0333 0 0.0222 0.0148 0.0296 0.0222 0.0296z"/>
    <path d="m115.41 152.36v0.94456c0 0.14447 0 0.29263 0.0667 0.4445 0.0963 0.22225 0.30374 0.34449 0.52599 0.34449 0.21114 0 0.41117-0.11483 0.52229-0.30004l-4e-3 0.12595c0 0.0444 0 0.0889 7e-3 0.12964h0.28151c-0.0185-0.0482-0.0222-0.10372-0.0222-0.15187v-1.5372h-0.2667v0.92975c0 0.12964-0.0111 0.22966-0.0667 0.33337-0.0778 0.14446-0.22966 0.25189-0.39264 0.25189-0.12965 0-0.25559-0.0741-0.32226-0.20744-0.0593-0.11853-0.0593-0.25188-0.0593-0.36301v-0.94456z"/>
    <path d="m117.17 154.05h0.24447v-1.1261c0-0.0815 7e-3 -0.15557 0.0556-0.24447 0.0593-0.11113 0.13335-0.15558 0.20373-0.15558 0.0593 0 0.12594 0.0371 0.15558 0.12965 0.0222 0.0704 0.0185 0.15187 0.0185 0.22225v1.1742h0.24818v-1.1187c0-0.0889 7e-3 -0.15928 0.0704-0.2667 0.0296-0.0444 0.0926-0.15187 0.19632-0.15187 0.0556 0 0.10742 0.0333 0.13335 0.0963 0.0333 0.0704 0.0259 0.16669 0.0259 0.24448v1.2002h0.25188v-1.2039c0-0.14076 4e-3 -0.28152-0.0704-0.39634-0.063-0.0963-0.17039-0.13335-0.26299-0.13335-0.16299 0-0.31486 0.0963-0.38153 0.24447-0.0259-0.14076-0.14447-0.24447-0.29634-0.24447-0.14076 0-0.2704 0.0889-0.34819 0.20743l4e-3 -0.16669h-0.24818z"/>
   </g>
   <g opacity=".91" aria-label="Destination port">
    <path d="m96.859 146.45v2.3114h0.49636c0.1815 0 0.33708-7e-3 0.50006-0.0926 0.32967-0.17039 0.51118-0.56303 0.51118-1.0668 0-0.4445-0.13335-0.83343-0.42968-1.026-0.16669-0.11112-0.33338-0.12594-0.5371-0.12594zm0.24448 0.22225h0.28152c0.14446 0 0.28892 7e-3 0.43339 0.12594 0.21484 0.1778 0.28522 0.50747 0.28522 0.83714 0 0.4408-0.14446 0.69268-0.32967 0.81862-0.14446 0.0963-0.28892 0.10372-0.43339 0.10372h-0.23707z"/>
    <path d="m99.47 147.03c-0.40375 0-0.77788 0.28892-0.77788 0.90382 0 0.56673 0.3519 0.86677 0.81121 0.86677 0.24448 0 0.46302-0.0889 0.60748-0.263l-0.14816-0.14446c-0.10742 0.12594-0.2704 0.19262-0.43709 0.19262-0.22595 0-0.55562-0.12594-0.57415-0.63341h1.2002c0.0111-0.11483 7e-3 -0.22596-0.0111-0.32227-0.0778-0.45561-0.39264-0.60007-0.67046-0.60007zm-0.51118 0.71861c0.05556-0.40005 0.31115-0.51488 0.49265-0.51488 0.27411 0 0.47043 0.24077 0.43709 0.51488z"/>
    <path d="m101.97 147.29c-0.15557-0.17039-0.38153-0.26299-0.63341-0.26299-0.39264 0-0.64823 0.21854-0.64823 0.47043 0 0.29633 0.31856 0.40375 0.41116 0.43709 0.14447 0.0519 0.32967 0.0963 0.45562 0.15557 0.14075 0.0667 0.16668 0.15558 0.16668 0.21485 0 0.15928-0.19261 0.2667-0.43338 0.2667-0.28893 0-0.47414-0.1741-0.5297-0.23337-0.0111-0.0148-0.0111-0.0259-0.0111-0.0407 0-4e-3 4e-3 -0.0259-0.0148-0.0333l-0.15557 0.263c0.20002 0.1852 0.45931 0.2704 0.7149 0.2704 0.46302 0 0.70379-0.27411 0.70379-0.5297 0-0.11482-0.0482-0.2704-0.24818-0.38152-0.18891-0.10743-0.46302-0.14447-0.6223-0.22225-0.13705-0.0667-0.16669-0.14817-0.16669-0.20744 0-0.13335 0.16669-0.22966 0.3556-0.22966 0.24448 0 0.40746 0.14817 0.47043 0.23337 0.0111 0.0111 7e-3 0.0222 7e-3 0.0333 0 0.0222 0.0148 0.0296 0.0222 0.0296z"/>
    <path d="m102.92 146.62-0.0333 0.45561h-0.40375l-4e-3 0.21855h0.39635c-0.0222 0.28893-0.0333 0.57785-0.0333 0.86307 0 0.15187 0 0.32226 0.10001 0.46302 0.0815 0.11113 0.21114 0.1778 0.38524 0.1778 0.20002 0 0.39634-0.0852 0.54081-0.18891l-0.0815-0.21114c-0.14446 0.10742-0.27781 0.15558-0.38153 0.15558-0.12594 0-0.25558-0.0704-0.28522-0.27411 0-0.0148-0.0111-0.0778-0.0111-0.32597 0-0.21854 0.0111-0.44079 0.0333-0.65934h0.55562v-0.22225h-0.55192s0.0259-0.30374 0.0444-0.40005c4e-3 -0.037 0.0333-0.0593 0.0185-0.10001z"/>
    <path d="m104.46 147.07v0.21855h0.40746v1.2631h-0.42968v0.21113h1.0964v-0.21113h-0.39635v-1.4817zm0.54822-0.73342c-0.10742 0-0.19262 0.0852-0.19262 0.18891s0.0852 0.18891 0.19262 0.18891 0.19261-0.0852 0.19261-0.18891c0-0.10372-0.0852-0.18891-0.19261-0.18891z"/>
    <path d="m106.17 148.76h0.2704v-0.97419c0-0.11113 0.0148-0.19632 0.0852-0.28893 0.063-0.0852 0.22595-0.23706 0.40375-0.23706 0.0852 0 0.17039 0.037 0.22966 0.10742 0.0926 0.11112 0.0926 0.25559 0.0926 0.37412v1.0186h0.263v-1.026c0-0.12965 0-0.2704-0.0593-0.40746-0.0852-0.18891-0.25929-0.29633-0.45191-0.29633-0.22966 0-0.43709 0.14817-0.56303 0.33708v-0.29634h-0.2704z"/>
    <path d="m108.11 147.27 0.12965 0.17039c0.14075-0.14447 0.32967-0.18892 0.48895-0.18892 0.20002 0 0.30003 0.0852 0.34819 0.16299 0.0556 0.0926 0.0519 0.20373 0.0519 0.29263v0.0593h-0.0519c-0.25189 0-0.51859 0-0.73343 0.0778-0.2667 0.0963-0.38523 0.29633-0.38523 0.48154 0 0.24818 0.21484 0.48154 0.56674 0.48154 0.20743 0 0.42227-0.0778 0.60748-0.22965v0.1852h0.25188v-1.0483c0-0.13706-4e-3 -0.2667-0.0815-0.40005-0.11112-0.18151-0.32596-0.27782-0.58896-0.27782-0.22595 0-0.4445 0.0704-0.60378 0.23337zm1.0298 0.70008v0.11483c0 0.0852 0 0.19632-0.11483 0.31856-0.063 0.063-0.22225 0.20003-0.4445 0.20003-0.22595 0-0.3556-0.14447-0.3556-0.29263 0-0.12595 0.0852-0.263 0.29633-0.31486 0.15558-0.037 0.38153-0.0259 0.55933-0.0259z"/>
    <path d="m110.32 146.62-0.0333 0.45561h-0.40375l-4e-3 0.21855h0.39634c-0.0222 0.28893-0.0333 0.57785-0.0333 0.86307 0 0.15187 0 0.32226 0.10002 0.46302 0.0815 0.11113 0.21113 0.1778 0.38523 0.1778 0.20003 0 0.39635-0.0852 0.54081-0.18891l-0.0815-0.21114c-0.14447 0.10742-0.27782 0.15558-0.38153 0.15558-0.12594 0-0.25559-0.0704-0.28522-0.27411 0-0.0148-0.0111-0.0778-0.0111-0.32597 0-0.21854 0.0111-0.44079 0.0333-0.65934h0.55563v-0.22225h-0.55192s0.0259-0.30374 0.0444-0.40005c4e-3 -0.037 0.0333-0.0593 0.0185-0.10001z"/>
    <path d="m111.87 147.07v0.21855h0.40746v1.2631h-0.42968v0.21113h1.0964v-0.21113h-0.39634v-1.4817zm0.54822-0.73342c-0.10742 0-0.19262 0.0852-0.19262 0.18891s0.0852 0.18891 0.19262 0.18891 0.19262-0.0852 0.19262-0.18891c0-0.10372-0.0852-0.18891-0.19262-0.18891z"/>
    <path d="m115.04 147.92c0-0.58526-0.37041-0.889-0.75565-0.889-0.42968 0-0.8001 0.37042-0.8001 0.89641 0 0.51488 0.36672 0.87789 0.79269 0.87789 0.40005 0 0.76306-0.32226 0.76306-0.8853zm-0.77417-0.66304c0.24448 0 0.50377 0.21113 0.50377 0.67416 0 0.42597-0.24448 0.64082-0.48895 0.64082-0.27041 0-0.51488-0.25189-0.51488-0.67046 0-0.41486 0.24077-0.64452 0.50006-0.64452z"/>
    <path d="m115.44 148.76h0.27041v-0.97419c0-0.11113 0.0148-0.19632 0.0852-0.28893 0.063-0.0852 0.22596-0.23706 0.40376-0.23706 0.0852 0 0.17039 0.037 0.22966 0.10742 0.0926 0.11112 0.0926 0.25559 0.0926 0.37412v1.0186h0.263v-1.026c0-0.12965 0-0.2704-0.0593-0.40746-0.0852-0.18891-0.25929-0.29633-0.45191-0.29633-0.22966 0-0.43709 0.14817-0.56303 0.33708v-0.29634h-0.27041z"/>
    <path d="m119.11 147.07 4e-3 2.3077h0.2704v-0.84085c0.11483 0.16669 0.30374 0.27041 0.50747 0.27041 0.34819 0 0.7112-0.29263 0.7112-0.91123 0-0.59637-0.3519-0.86307-0.68527-0.86307-0.21855 0-0.42228 0.11113-0.5371 0.29634v-0.2593zm0.7075 0.18892c0.14816 0 0.50747 0.0778 0.50747 0.69268 0 0.5334-0.34819 0.61859-0.50747 0.61859s-0.32227-0.0815-0.38894-0.23336c-0.0482-0.11483-0.0482-0.25559-0.0482-0.50006 0-0.14076 7e-3 -0.24448 0.0444-0.33338 0.0667-0.15187 0.22225-0.24447 0.39264-0.24447z"/>
    <path d="m122.44 147.92c0-0.58526-0.37042-0.889-0.75565-0.889-0.42969 0-0.8001 0.37042-0.8001 0.89641 0 0.51488 0.36671 0.87789 0.79269 0.87789 0.40005 0 0.76306-0.32226 0.76306-0.8853zm-0.77418-0.66304c0.24448 0 0.50377 0.21113 0.50377 0.67416 0 0.42597-0.24447 0.64082-0.48895 0.64082-0.2704 0-0.51488-0.25189-0.51488-0.67046 0-0.41486 0.24077-0.64452 0.50006-0.64452z"/>
    <path d="m122.96 147.07v1.6928h0.2667v-0.82233c0-0.10371 4e-3 -0.21484 0.11854-0.39634 0.15557-0.24448 0.3556-0.28522 0.47784-0.28522 0.14075 0 0.22965 0.0667 0.27781 0.12594 0.0222 0.0296 0.0333 0.0593 0.063 0.0852l0.12594-0.25558c-0.10742-0.11113-0.263-0.18521-0.45191-0.18521-0.24818 0-0.50006 0.12594-0.61119 0.36671l0.0111-0.32597z"/>
    <path d="m125.14 146.62-0.0333 0.45561h-0.40375l-4e-3 0.21855h0.39635c-0.0222 0.28893-0.0333 0.57785-0.0333 0.86307 0 0.15187 0 0.32226 0.10001 0.46302 0.0815 0.11113 0.21114 0.1778 0.38524 0.1778 0.20002 0 0.39634-0.0852 0.54081-0.18891l-0.0815-0.21114c-0.14446 0.10742-0.27781 0.15558-0.38153 0.15558-0.12594 0-0.25558-0.0704-0.28522-0.27411 0-0.0148-0.0111-0.0778-0.0111-0.32597 0-0.21854 0.0111-0.44079 0.0333-0.65934h0.55562v-0.22225h-0.55192s0.0259-0.30374 0.0444-0.40005c4e-3 -0.037 0.0333-0.0593 0.0185-0.10001z"/>
   </g>
  </g>
 </g>
</svg>
