<svg width="99.456mm" height="41.221mm" version="1.1" viewBox="0 0 99.456 41.221" xmlns="http://www.w3.org/2000/svg">
 <g transform="translate(-347.37 -205.42)">
  <g fill="none" stroke="#a6aeb8" stroke-linecap="square" stroke-width=".26458">
   <path d="m359.38 245.43h87.312" style="paint-order:normal"/>
   <path d="m359.38 244.77v1.3229" style="paint-order:normal"/>
   <path d="m367.32 244.77v1.3229" style="paint-order:normal"/>
   <path d="m375.26 244.77v1.3229" style="paint-order:normal"/>
   <path d="m383.2 244.77v1.3229" style="paint-order:normal"/>
   <path d="m391.13 244.77v1.3229" style="paint-order:normal"/>
   <path d="m399.07 244.77v1.3229" style="paint-order:normal"/>
   <path d="m407.01 244.77v1.3229" style="paint-order:normal"/>
   <path d="m414.95 244.77v1.3229" style="paint-order:normal"/>
   <path d="m422.88 244.77v1.3229" style="paint-order:normal"/>
   <path d="m430.82 244.77v1.3229" style="paint-order:normal"/>
   <path d="m438.76 244.77v1.3229" style="paint-order:normal"/>
   <path d="m446.7 244.77v1.3229" style="paint-order:normal"/>
  </g>
  <rect transform="rotate(-90)" x="-238.81" y="359.38" width="7.9375" height="87.312" fill="#1d232d" stroke="#a6aeb8" stroke-linecap="round" stroke-width=".13229"/>
  <g fill="none" stroke="#a6aeb8" stroke-linecap="square" stroke-width=".13229">
   <path d="m367.32 238.81v-7.9375" style="paint-order:normal"/>
   <path d="m375.26 238.81v-7.9375" style="paint-order:normal"/>
   <path d="m383.2 238.81v-7.9375" style="paint-order:normal"/>
   <path d="m391.13 238.81v-7.9375" style="paint-order:normal"/>
   <path d="m399.07 238.81v-7.9375" style="paint-order:normal"/>
   <path d="m407.01 238.81v-7.9375" style="paint-order:normal"/>
   <path d="m414.95 238.81v-7.9375" style="paint-order:normal"/>
   <path d="m422.88 238.81v-7.9375" style="paint-order:normal"/>
   <path d="m430.82 238.81v-7.9375" style="paint-order:normal"/>
   <path d="m438.76 238.81v-7.9375" style="paint-order:normal"/>
  </g>
  <g fill="#e8eaec" stroke-linecap="round" stroke-width=".26458">
   <g aria-label="Time">
    <path d="m350.55 246.47h0.30745v-2.1706h0.73713v-0.25929h-1.7817v0.25929h0.73713z"/>
    <path d="m352.15 244.3c0.11853 0 0.21113-0.0815 0.21113-0.19632 0-0.11854-0.0926-0.19632-0.21113-0.19632-0.11854 0-0.21114 0.0778-0.21114 0.19632 0 0.11483 0.0926 0.19632 0.21114 0.19632zm-0.15558 2.1706h0.30374v-1.8002h-0.30374z"/>
    <path d="m352.9 246.47h0.30374v-1.3039c0.16669-0.1852 0.31856-0.27781 0.45191-0.27781 0.22966 0 0.33708 0.14446 0.33708 0.48154v1.1001h0.30374v-1.3039c0.16669-0.1852 0.31115-0.27781 0.45191-0.27781 0.22596 0 0.33338 0.14446 0.33338 0.48154v1.1001h0.30374v-1.1409c0-0.45932-0.1778-0.70379-0.54822-0.70379-0.21854 0-0.40375 0.14075-0.59267 0.34448-0.0741-0.21484-0.22225-0.34448-0.49635-0.34448-0.21485 0-0.40376 0.13335-0.55933 0.30374h-0.0111l-0.0259-0.25929h-0.25189z"/>
    <path d="m355.84 245.57c0 0.58896 0.38152 0.94086 0.86307 0.94086 0.24447 0 0.43709-0.0852 0.59266-0.18521l-0.10742-0.20002c-0.13335 0.0852-0.27781 0.14076-0.4482 0.14076-0.34449 0-0.57785-0.24448-0.60008-0.63342h1.215c7e-3 -0.0445 0.0111-0.10371 0.0111-0.16668 0-0.51488-0.25929-0.84455-0.71861-0.84455-0.41116 0-0.8075 0.3593-0.8075 0.94826zm0.29633-0.13705c0.037-0.36301 0.2667-0.57044 0.51858-0.57044 0.28152 0 0.4445 0.20373 0.4445 0.57044z"/>
   </g>
   <g aria-label="Server">
    <path d="m347.51 235.83c0.21114 0.21855 0.50747 0.3593 0.84825 0.3593 0.51118 0 0.82974-0.30744 0.82974-0.69267 0-0.35931-0.21855-0.526-0.50007-0.64823l-0.34819-0.14817c-0.18891-0.0815-0.40375-0.17039-0.40375-0.40375 0-0.21855 0.1815-0.3556 0.45561-0.3556 0.22225 0 0.40376 0.0889 0.55192 0.22965l0.16299-0.20002c-0.1704-0.1778-0.42598-0.30004-0.71491-0.30004-0.44079 0-0.76676 0.27411-0.76676 0.64453 0 0.3556 0.2667 0.52969 0.49265 0.626l0.34819 0.15187c0.22966 0.10372 0.40746 0.18151 0.40746 0.42968 0 0.23707-0.18891 0.39635-0.50747 0.39635-0.25559 0-0.49636-0.12224-0.67045-0.30374z"/>
    <path d="m349.49 235.25c0 0.58896 0.38153 0.94085 0.86307 0.94085 0.24447 0 0.43709-0.0852 0.59267-0.1852l-0.10742-0.20003c-0.13335 0.0852-0.27782 0.14076-0.44821 0.14076-0.34449 0-0.57785-0.24448-0.60007-0.63341h1.215c7e-3 -0.0445 0.0111-0.10372 0.0111-0.16669 0-0.51488-0.2593-0.84455-0.71861-0.84455-0.41117 0-0.80751 0.3593-0.80751 0.94827zm0.29633-0.13706c0.037-0.36301 0.2667-0.57044 0.51859-0.57044 0.28151 0 0.4445 0.20373 0.4445 0.57044z"/>
    <path d="m351.46 236.15h0.30374v-1.1557c0.12224-0.30374 0.30375-0.41486 0.45562-0.41486 0.0741 0 0.11483 0.0111 0.17409 0.0296l0.0593-0.2667c-0.0593-0.0259-0.11483-0.037-0.19262-0.037-0.20373 0-0.38893 0.14446-0.51117 0.37042h-0.0111l-0.0259-0.32597h-0.25189z"/>
    <path d="m353.21 236.15h0.3556l0.63712-1.8002h-0.30004l-0.34078 1.0224c-0.0519 0.1778-0.11113 0.3593-0.16298 0.5297h-0.0148c-0.0556-0.1704-0.11483-0.3519-0.16669-0.5297l-0.34078-1.0224h-0.31486z"/>
    <path d="m354.4 235.25c0 0.58896 0.38153 0.94085 0.86307 0.94085 0.24448 0 0.43709-0.0852 0.59267-0.1852l-0.10742-0.20003c-0.13335 0.0852-0.27782 0.14076-0.44821 0.14076-0.34448 0-0.57785-0.24448-0.60007-0.63341h1.215c7e-3 -0.0445 0.0111-0.10372 0.0111-0.16669 0-0.51488-0.25929-0.84455-0.71861-0.84455-0.41116 0-0.80751 0.3593-0.80751 0.94827zm0.29633-0.13706c0.037-0.36301 0.2667-0.57044 0.51859-0.57044 0.28151 0 0.4445 0.20373 0.4445 0.57044z"/>
    <path d="m356.37 236.15h0.30375v-1.1557c0.12223-0.30374 0.30374-0.41486 0.45561-0.41486 0.0741 0 0.11483 0.0111 0.17409 0.0296l0.0593-0.2667c-0.0593-0.0259-0.11483-0.037-0.19262-0.037-0.20373 0-0.38893 0.14446-0.51117 0.37042h-0.0111l-0.0259-0.32597h-0.25189z"/>
   </g>
   <g aria-label="Client">
    <path d="m348.52 219.06c0 0.79269 0.45561 1.2594 1.0668 1.2594 0.30745 0 0.54822-0.12964 0.73713-0.35189l-0.1741-0.18891c-0.15557 0.17409-0.32596 0.2704-0.55562 0.2704-0.46302 0-0.75565-0.38523-0.75565-0.99642 0-0.60378 0.30744-0.9816 0.77047-0.9816 0.20002 0 0.3556 0.0889 0.48524 0.22595l0.1741-0.19632c-0.14447-0.15928-0.37412-0.30004-0.66305-0.30004-0.6223 0-1.0853 0.47784-1.0853 1.2594z"/>
    <path d="m350.74 219.91c0 0.26299 0.0926 0.40745 0.32226 0.40745 0.0815 0 0.13335-0.0111 0.1741-0.0296l-0.0408-0.22966c-0.0333 7e-3 -0.0482 7e-3 -0.0667 7e-3 -0.0444 0-0.0852-0.037-0.0852-0.13335v-2.2966h-0.30374z"/>
    <path d="m351.84 218.1c0.11854 0 0.21114-0.0815 0.21114-0.19632 0-0.11853-0.0926-0.19632-0.21114-0.19632-0.11853 0-0.21114 0.0778-0.21114 0.19632 0 0.11483 0.0926 0.19632 0.21114 0.19632zm-0.15557 2.1706h0.30374v-1.8002h-0.30374z"/>
    <path d="m352.47 219.38c0 0.58896 0.38153 0.94085 0.86307 0.94085 0.24447 0 0.43709-0.0852 0.59267-0.1852l-0.10742-0.20003c-0.13335 0.0852-0.27782 0.14076-0.44821 0.14076-0.34449 0-0.57785-0.24448-0.60007-0.63341h1.215c7e-3 -0.0445 0.0111-0.10372 0.0111-0.16669 0-0.51488-0.2593-0.84455-0.71861-0.84455-0.41117 0-0.80751 0.3593-0.80751 0.94827zm0.29633-0.13706c0.037-0.36301 0.2667-0.57044 0.51859-0.57044 0.28151 0 0.4445 0.20373 0.4445 0.57044z"/>
    <path d="m354.44 220.27h0.30374v-1.3039c0.18151-0.18151 0.30745-0.27781 0.49266-0.27781 0.23707 0 0.34078 0.14446 0.34078 0.48154v1.1001h0.30374v-1.1409c0-0.45932-0.17039-0.70379-0.54821-0.70379-0.24818 0-0.43339 0.13335-0.60378 0.30374h-0.0111l-0.0259-0.25929h-0.25189z"/>
    <path d="m356.52 219.72c0 0.3556 0.12964 0.60007 0.51488 0.60007 0.11112 0 0.23336-0.0333 0.33337-0.0667l-0.0593-0.22966c-0.0593 0.0222-0.14075 0.0482-0.20372 0.0482-0.20744 0-0.27782-0.12595-0.27782-0.3482v-1.0001h0.48525v-0.24818h-0.48525v-0.50377h-0.25558l-0.0371 0.50377-0.28151 0.0185v0.22966h0.2667z"/>
   </g>
  </g>
  <rect transform="rotate(-90)" x="-222.94" y="359.38" width="7.9375" height="87.312" fill="#1d232d" stroke="#a6aeb8" stroke-linecap="round" stroke-width=".13229"/>
  <g fill="none" stroke="#a6aeb8" stroke-linecap="square" stroke-width=".13229">
   <path d="m367.32 222.94v-7.9375" style="paint-order:normal"/>
   <path d="m375.26 222.94v-7.9375" style="paint-order:normal"/>
   <path d="m383.2 222.94v-7.9375" style="paint-order:normal"/>
   <path d="m391.13 222.94v-7.9375" style="paint-order:normal"/>
   <path d="m399.07 222.94v-7.9375" style="paint-order:normal"/>
   <path d="m407.01 222.94v-7.9375" style="paint-order:normal"/>
   <path d="m414.95 222.94v-7.9375" style="paint-order:normal"/>
   <path d="m422.88 222.94v-7.9375" style="paint-order:normal"/>
   <path d="m430.82 222.94v-7.9375" style="paint-order:normal"/>
   <path d="m438.76 222.94v-7.9375" style="paint-order:normal"/>
  </g>
  <g fill="#d2d6dc" stroke-width=".28222px">
   <g opacity=".91" aria-label="0°">
    <path d="m363.01 240.59c-0.31433 0-0.63818 0.38735-0.63818 1.0192 0 0.64135 0.32703 1.0096 0.64135 1.0096 0.28575 0 0.62548-0.31115 0.62548-0.99377 0-0.6731-0.32385-1.035-0.62865-1.035zm0.30797 0.45402-0.69532 0.9017c-0.0286-0.11112-0.0445-0.23495-0.0445-0.37465 0-0.508 0.23177-0.7874 0.42862-0.7874 0.10795 0 0.22543 0.0857 0.31115 0.26035zm0.073 0.20955c0.0286 0.11113 0.0413 0.24448 0.0413 0.40005 0 0.55245-0.23812 0.762-0.41275 0.762-0.11747 0-0.23812-0.0952-0.32385-0.26987z"/>
    <path d="m365.04 240.98c0-0.23495-0.1905-0.42545-0.42862-0.42545-0.23495 0-0.42863 0.1905-0.42863 0.42545s0.19368 0.42545 0.42863 0.42545c0.23812 0 0.42862-0.1905 0.42862-0.42545zm-0.42545-0.25717c0.13018 0 0.23813 0.11112 0.23813 0.254 0 0.14287-0.10795 0.254-0.23813 0.254-0.127 0-0.23495-0.11113-0.23495-0.254 0-0.14288 0.10795-0.254 0.23495-0.254z"/>
   </g>
   <g opacity=".91" aria-label="20°">
    <path d="m369.61 240.91 0.16192 0.13018c0.019-0.0286 0.01-0.0476 0.0286-0.073 0.0476-0.073 0.1651-0.18097 0.33655-0.18097 0.21272 0 0.381 0.16192 0.381 0.37465 0 0.2413-0.2032 0.41592-0.34608 0.5461-0.22542 0.2032-0.40957 0.4064-0.57467 0.73342v0.1397h1.162v-0.21907c-0.0222-0.01-0.0381 6e-3 -0.0445 0.0127-0.0127 0.0127-0.019 0.0127-0.0317 0.0127h-0.83185c0.1651-0.28575 0.39687-0.4826 0.53975-0.61595 0.14287-0.13653 0.34607-0.33973 0.34607-0.62548 0-0.30797-0.25082-0.55562-0.5715-0.55562-0.22542 0-0.43815 0.12065-0.55562 0.32067z"/>
    <path d="m371.75 240.59c-0.31433 0-0.63818 0.38735-0.63818 1.0192 0 0.64135 0.32703 1.0096 0.64135 1.0096 0.28575 0 0.62548-0.31115 0.62548-0.99377 0-0.6731-0.32385-1.035-0.62865-1.035zm0.30797 0.45402-0.69532 0.9017c-0.0286-0.11112-0.0445-0.23495-0.0445-0.37465 0-0.508 0.23177-0.7874 0.42862-0.7874 0.10795 0 0.22543 0.0857 0.31115 0.26035zm0.073 0.20955c0.0286 0.11113 0.0413 0.24448 0.0413 0.40005 0 0.55245-0.23812 0.762-0.41275 0.762-0.11747 0-0.23812-0.0952-0.32385-0.26987z"/>
    <path d="m373.77 240.98c0-0.23495-0.1905-0.42545-0.42862-0.42545-0.23495 0-0.42863 0.1905-0.42863 0.42545s0.19368 0.42545 0.42863 0.42545c0.23812 0 0.42862-0.1905 0.42862-0.42545zm-0.42545-0.25717c0.13018 0 0.23813 0.11112 0.23813 0.254 0 0.14287-0.10795 0.254-0.23813 0.254-0.127 0-0.23495-0.11113-0.23495-0.254 0-0.14288 0.10795-0.254 0.23495-0.254z"/>
   </g>
   <g opacity=".91" aria-label="40°">
    <path d="m378.29 240.6-0.84138 1.2668v0.1651h0.79693v0.5461h0.2286v-0.54292h0.25717v-0.19685h-0.25717v-1.2382zm-0.0413 0.35242v0.88583h-0.58102z"/>
    <path d="m379.68 240.59c-0.31433 0-0.63818 0.38735-0.63818 1.0192 0 0.64135 0.32703 1.0096 0.64135 1.0096 0.28575 0 0.62548-0.31115 0.62548-0.99377 0-0.6731-0.32385-1.035-0.62865-1.035zm0.30797 0.45402-0.69532 0.9017c-0.0286-0.11112-0.0445-0.23495-0.0445-0.37465 0-0.508 0.23177-0.7874 0.42862-0.7874 0.10795 0 0.22543 0.0857 0.31115 0.26035zm0.073 0.20955c0.0286 0.11113 0.0413 0.24448 0.0413 0.40005 0 0.55245-0.23812 0.762-0.41275 0.762-0.11747 0-0.23812-0.0952-0.32385-0.26987z"/>
    <path d="m381.71 240.98c0-0.23495-0.1905-0.42545-0.42862-0.42545-0.23495 0-0.42863 0.1905-0.42863 0.42545s0.19368 0.42545 0.42863 0.42545c0.23812 0 0.42862-0.1905 0.42862-0.42545zm-0.42545-0.25717c0.13018 0 0.23813 0.11112 0.23813 0.254 0 0.14287-0.10795 0.254-0.23813 0.254-0.127 0-0.23495-0.11113-0.23495-0.254 0-0.14288 0.10795-0.254 0.23495-0.254z"/>
   </g>
   <g opacity=".91" aria-label="60°">
    <path d="m386.15 240.58c-0.23813 0-0.49213 0.14605-0.61595 0.49213-0.0667 0.18732-0.0826 0.4191-0.0826 0.6096 0 0.23177 0.0222 0.47942 0.14922 0.66992 0.1143 0.17463 0.2921 0.26353 0.46673 0.26353 0.30162 0 0.56515-0.254 0.56515-0.66358 0-0.40957-0.26353-0.6477-0.54293-0.6477-0.17145 0-0.33337 0.0921-0.4191 0.23813 0.0127-0.67628 0.33655-0.76518 0.47943-0.76518 0.13017 0 0.21907 0.0699 0.23177 0.0825 0.019 0.0222 0.019 0.0508 0.0476 0.073l0.1524-0.17145c-0.1143-0.1143-0.27305-0.18098-0.4318-0.18098zm-0.0826 0.92075c0.15875 0 0.34925 0.12383 0.34925 0.46355 0 0.30798-0.17145 0.45403-0.33973 0.45403-0.2413 0-0.42227-0.28258-0.39687-0.65405 0.0889-0.16193 0.2413-0.26353 0.38735-0.26353z"/>
    <path d="m387.62 240.59c-0.31433 0-0.63818 0.38735-0.63818 1.0192 0 0.64135 0.32703 1.0096 0.64135 1.0096 0.28575 0 0.62548-0.31115 0.62548-0.99377 0-0.6731-0.32385-1.035-0.62865-1.035zm0.30797 0.45402-0.69532 0.9017c-0.0286-0.11112-0.0445-0.23495-0.0445-0.37465 0-0.508 0.23177-0.7874 0.42862-0.7874 0.10795 0 0.22543 0.0857 0.31115 0.26035zm0.073 0.20955c0.0286 0.11113 0.0413 0.24448 0.0413 0.40005 0 0.55245-0.23812 0.762-0.41275 0.762-0.11747 0-0.23812-0.0952-0.32385-0.26987z"/>
    <path d="m389.65 240.98c0-0.23495-0.1905-0.42545-0.42862-0.42545-0.23495 0-0.42863 0.1905-0.42863 0.42545s0.19368 0.42545 0.42863 0.42545c0.23812 0 0.42862-0.1905 0.42862-0.42545zm-0.42545-0.25717c0.13018 0 0.23813 0.11112 0.23813 0.254 0 0.14287-0.10795 0.254-0.23813 0.254-0.127 0-0.23495-0.11113-0.23495-0.254 0-0.14288 0.10795-0.254 0.23495-0.254z"/>
   </g>
   <g opacity=".91" aria-label="80°">
    <path d="m393.99 240.58c-0.3048 0-0.53657 0.21908-0.53657 0.48578 0 0.19367 0.12382 0.37147 0.30162 0.46355-0.23495 0.11112-0.3937 0.32702-0.3937 0.55562 0 0.29528 0.26035 0.53023 0.60008 0.53023 0.34607 0 0.6096-0.2413 0.6096-0.54293 0-0.23495-0.15875-0.4445-0.381-0.54927 0.1905-0.0984 0.31432-0.28575 0.31432-0.47625 0-0.26035-0.22542-0.46673-0.51435-0.46673zm-0.0667 1.0414c0.254 0.0794 0.42227 0.254 0.42227 0.44768 0 0.1905-0.16192 0.34607-0.37465 0.34607-0.2159 0-0.381-0.16192-0.381-0.35877 0-0.18733 0.14605-0.35878 0.33338-0.43498zm0.0476-0.85725c0.1778 0 0.3175 0.13335 0.3175 0.29845 0 0.1524-0.11747 0.29845-0.27305 0.381 0 0-0.34925-0.13335-0.34925-0.39687 0-0.15558 0.13335-0.28258 0.3048-0.28258z"/>
    <path d="m395.56 240.59c-0.31433 0-0.63818 0.38735-0.63818 1.0192 0 0.64135 0.32703 1.0096 0.64135 1.0096 0.28575 0 0.62548-0.31115 0.62548-0.99377 0-0.6731-0.32385-1.035-0.62865-1.035zm0.30797 0.45402-0.69532 0.9017c-0.0286-0.11112-0.0445-0.23495-0.0445-0.37465 0-0.508 0.23177-0.7874 0.42862-0.7874 0.10795 0 0.22543 0.0857 0.31115 0.26035zm0.073 0.20955c0.0286 0.11113 0.0413 0.24448 0.0413 0.40005 0 0.55245-0.23812 0.762-0.41275 0.762-0.11747 0-0.23812-0.0952-0.32385-0.26987z"/>
    <path d="m397.59 240.98c0-0.23495-0.1905-0.42545-0.42862-0.42545-0.23495 0-0.42863 0.1905-0.42863 0.42545s0.19368 0.42545 0.42863 0.42545c0.23812 0 0.42862-0.1905 0.42862-0.42545zm-0.42545-0.25717c0.13018 0 0.23813 0.11112 0.23813 0.254 0 0.14287-0.10795 0.254-0.23813 0.254-0.127 0-0.23495-0.11113-0.23495-0.254 0-0.14288 0.10795-0.254 0.23495-0.254z"/>
   </g>
   <g opacity=".91" aria-label="100°">
    <path d="m401.26 240.6h-0.14605l-0.508 0.26352 0.0508 0.12383 0.3937-0.11113v1.5304h-0.3683v0.17463h0.93345v-0.17463h-0.3556z"/>
    <path d="m402.7 240.59c-0.31433 0-0.63818 0.38735-0.63818 1.0192 0 0.64135 0.32703 1.0096 0.64135 1.0096 0.28575 0 0.62548-0.31115 0.62548-0.99377 0-0.6731-0.32385-1.035-0.62865-1.035zm0.30797 0.45402-0.69532 0.9017c-0.0286-0.11112-0.0445-0.23495-0.0445-0.37465 0-0.508 0.23177-0.7874 0.42862-0.7874 0.10795 0 0.22543 0.0857 0.31115 0.26035zm0.073 0.20955c0.0286 0.11113 0.0413 0.24448 0.0413 0.40005 0 0.55245-0.23812 0.762-0.41275 0.762-0.11747 0-0.23812-0.0952-0.32385-0.26987z"/>
    <path d="m404.29 240.59c-0.31433 0-0.63818 0.38735-0.63818 1.0192 0 0.64135 0.32703 1.0096 0.64135 1.0096 0.28575 0 0.62548-0.31115 0.62548-0.99377 0-0.6731-0.32385-1.035-0.62865-1.035zm0.30797 0.45402-0.69532 0.9017c-0.0286-0.11112-0.0444-0.23495-0.0444-0.37465 0-0.508 0.23177-0.7874 0.42862-0.7874 0.10795 0 0.22543 0.0857 0.31115 0.26035zm0.073 0.20955c0.0286 0.11113 0.0413 0.24448 0.0413 0.40005 0 0.55245-0.23812 0.762-0.41275 0.762-0.11747 0-0.23812-0.0952-0.32385-0.26987z"/>
    <path d="m406.32 240.98c0-0.23495-0.1905-0.42545-0.42862-0.42545-0.23495 0-0.42863 0.1905-0.42863 0.42545s0.19368 0.42545 0.42863 0.42545c0.23812 0 0.42862-0.1905 0.42862-0.42545zm-0.42545-0.25717c0.13018 0 0.23813 0.11112 0.23813 0.254 0 0.14287-0.10795 0.254-0.23813 0.254-0.127 0-0.23495-0.11113-0.23495-0.254 0-0.14288 0.10795-0.254 0.23495-0.254z"/>
   </g>
   <g opacity=".91" aria-label="120°">
    <path d="m409.2 240.6h-0.14605l-0.508 0.26352 0.0508 0.12383 0.3937-0.11113v1.5304h-0.3683v0.17463h0.93345v-0.17463h-0.3556z"/>
    <path d="m410.09 240.91 0.16192 0.13018c0.019-0.0286 0.01-0.0476 0.0286-0.073 0.0476-0.073 0.1651-0.18097 0.33655-0.18097 0.21272 0 0.381 0.16192 0.381 0.37465 0 0.2413-0.2032 0.41592-0.34608 0.5461-0.22542 0.2032-0.40957 0.4064-0.57467 0.73342v0.1397h1.162v-0.21907c-0.0222-0.01-0.0381 6e-3 -0.0444 0.0127-0.0127 0.0127-0.019 0.0127-0.0318 0.0127h-0.83185c0.1651-0.28575 0.39687-0.4826 0.53975-0.61595 0.14287-0.13653 0.34607-0.33973 0.34607-0.62548 0-0.30797-0.25082-0.55562-0.5715-0.55562-0.22542 0-0.43815 0.12065-0.55562 0.32067z"/>
    <path d="m412.23 240.59c-0.31433 0-0.63818 0.38735-0.63818 1.0192 0 0.64135 0.32703 1.0096 0.64135 1.0096 0.28575 0 0.62548-0.31115 0.62548-0.99377 0-0.6731-0.32385-1.035-0.62865-1.035zm0.30797 0.45402-0.69532 0.9017c-0.0286-0.11112-0.0444-0.23495-0.0444-0.37465 0-0.508 0.23177-0.7874 0.42862-0.7874 0.10795 0 0.22543 0.0857 0.31115 0.26035zm0.073 0.20955c0.0286 0.11113 0.0413 0.24448 0.0413 0.40005 0 0.55245-0.23812 0.762-0.41275 0.762-0.11747 0-0.23812-0.0952-0.32385-0.26987z"/>
    <path d="m414.26 240.98c0-0.23495-0.1905-0.42545-0.42862-0.42545-0.23495 0-0.42863 0.1905-0.42863 0.42545s0.19368 0.42545 0.42863 0.42545c0.23812 0 0.42862-0.1905 0.42862-0.42545zm-0.42545-0.25717c0.13018 0 0.23813 0.11112 0.23813 0.254 0 0.14287-0.10795 0.254-0.23813 0.254-0.127 0-0.23495-0.11113-0.23495-0.254 0-0.14288 0.10795-0.254 0.23495-0.254z"/>
   </g>
   <g opacity=".91" aria-label="140°">
    <path d="m417.13 240.6h-0.14605l-0.508 0.26352 0.0508 0.12383 0.3937-0.11113v1.5304h-0.3683v0.17463h0.93345v-0.17463h-0.3556z"/>
    <path d="m418.77 240.6-0.84138 1.2668v0.1651h0.79693v0.5461h0.2286v-0.54292h0.25717v-0.19685h-0.25717v-1.2382zm-0.0413 0.35242v0.88583h-0.58102z"/>
    <path d="m420.16 240.59c-0.31433 0-0.63818 0.38735-0.63818 1.0192 0 0.64135 0.32703 1.0096 0.64135 1.0096 0.28575 0 0.62548-0.31115 0.62548-0.99377 0-0.6731-0.32385-1.035-0.62865-1.035zm0.30797 0.45402-0.69532 0.9017c-0.0286-0.11112-0.0444-0.23495-0.0444-0.37465 0-0.508 0.23177-0.7874 0.42862-0.7874 0.10795 0 0.22543 0.0857 0.31115 0.26035zm0.073 0.20955c0.0286 0.11113 0.0413 0.24448 0.0413 0.40005 0 0.55245-0.23812 0.762-0.41275 0.762-0.11747 0-0.23812-0.0952-0.32385-0.26987z"/>
    <path d="m422.19 240.98c0-0.23495-0.1905-0.42545-0.42862-0.42545-0.23495 0-0.42863 0.1905-0.42863 0.42545s0.19368 0.42545 0.42863 0.42545c0.23812 0 0.42862-0.1905 0.42862-0.42545zm-0.42545-0.25717c0.13018 0 0.23813 0.11112 0.23813 0.254 0 0.14287-0.10795 0.254-0.23813 0.254-0.127 0-0.23495-0.11113-0.23495-0.254 0-0.14288 0.10795-0.254 0.23495-0.254z"/>
   </g>
   <g opacity=".91" aria-label="160°">
    <path d="m425.07 240.6h-0.14605l-0.508 0.26352 0.0508 0.12383 0.3937-0.11113v1.5304h-0.3683v0.17463h0.93345v-0.17463h-0.3556z"/>
    <path d="m426.63 240.58c-0.23813 0-0.49213 0.14605-0.61595 0.49213-0.0667 0.18732-0.0826 0.4191-0.0826 0.6096 0 0.23177 0.0222 0.47942 0.14922 0.66992 0.1143 0.17463 0.2921 0.26353 0.46673 0.26353 0.30162 0 0.56515-0.254 0.56515-0.66358 0-0.40957-0.26353-0.6477-0.54293-0.6477-0.17145 0-0.33337 0.0921-0.4191 0.23813 0.0127-0.67628 0.33655-0.76518 0.47943-0.76518 0.13017 0 0.21907 0.0699 0.23177 0.0825 0.019 0.0222 0.019 0.0508 0.0476 0.073l0.1524-0.17145c-0.1143-0.1143-0.27305-0.18098-0.4318-0.18098zm-0.0826 0.92075c0.15875 0 0.34925 0.12383 0.34925 0.46355 0 0.30798-0.17145 0.45403-0.33973 0.45403-0.2413 0-0.42227-0.28258-0.39687-0.65405 0.0889-0.16193 0.2413-0.26353 0.38735-0.26353z"/>
    <path d="m428.1 240.59c-0.31433 0-0.63818 0.38735-0.63818 1.0192 0 0.64135 0.32703 1.0096 0.64135 1.0096 0.28575 0 0.62548-0.31115 0.62548-0.99377 0-0.6731-0.32385-1.035-0.62865-1.035zm0.30797 0.45402-0.69532 0.9017c-0.0286-0.11112-0.0444-0.23495-0.0444-0.37465 0-0.508 0.23177-0.7874 0.42862-0.7874 0.10795 0 0.22543 0.0857 0.31115 0.26035zm0.073 0.20955c0.0286 0.11113 0.0413 0.24448 0.0413 0.40005 0 0.55245-0.23812 0.762-0.41275 0.762-0.11747 0-0.23812-0.0952-0.32385-0.26987z"/>
    <path d="m430.13 240.98c0-0.23495-0.1905-0.42545-0.42862-0.42545-0.23495 0-0.42863 0.1905-0.42863 0.42545s0.19368 0.42545 0.42863 0.42545c0.23812 0 0.42862-0.1905 0.42862-0.42545zm-0.42545-0.25717c0.13018 0 0.23813 0.11112 0.23813 0.254 0 0.14287-0.10795 0.254-0.23813 0.254-0.127 0-0.23495-0.11113-0.23495-0.254 0-0.14288 0.10795-0.254 0.23495-0.254z"/>
   </g>
   <g opacity=".91" aria-label="180°">
    <path d="m433.01 240.6h-0.14605l-0.508 0.26352 0.0508 0.12383 0.3937-0.11113v1.5304h-0.3683v0.17463h0.93345v-0.17463h-0.3556z"/>
    <path d="m434.47 240.58c-0.3048 0-0.53657 0.21908-0.53657 0.48578 0 0.19367 0.12382 0.37147 0.30162 0.46355-0.23495 0.11112-0.3937 0.32702-0.3937 0.55562 0 0.29528 0.26035 0.53023 0.60008 0.53023 0.34607 0 0.6096-0.2413 0.6096-0.54293 0-0.23495-0.15875-0.4445-0.381-0.54927 0.1905-0.0984 0.31432-0.28575 0.31432-0.47625 0-0.26035-0.22542-0.46673-0.51435-0.46673zm-0.0667 1.0414c0.254 0.0794 0.42227 0.254 0.42227 0.44768 0 0.1905-0.16192 0.34607-0.37465 0.34607-0.2159 0-0.381-0.16192-0.381-0.35877 0-0.18733 0.14605-0.35878 0.33338-0.43498zm0.0476-0.85725c0.1778 0 0.3175 0.13335 0.3175 0.29845 0 0.1524-0.11747 0.29845-0.27305 0.381 0 0-0.34925-0.13335-0.34925-0.39687 0-0.15558 0.13335-0.28258 0.3048-0.28258z"/>
    <path d="m436.04 240.59c-0.31433 0-0.63818 0.38735-0.63818 1.0192 0 0.64135 0.32703 1.0096 0.64135 1.0096 0.28575 0 0.62548-0.31115 0.62548-0.99377 0-0.6731-0.32385-1.035-0.62865-1.035zm0.30797 0.45402-0.69532 0.9017c-0.0286-0.11112-0.0444-0.23495-0.0444-0.37465 0-0.508 0.23177-0.7874 0.42862-0.7874 0.10795 0 0.22543 0.0857 0.31115 0.26035zm0.073 0.20955c0.0286 0.11113 0.0413 0.24448 0.0413 0.40005 0 0.55245-0.23812 0.762-0.41275 0.762-0.11747 0-0.23812-0.0952-0.32385-0.26987z"/>
    <path d="m438.07 240.98c0-0.23495-0.1905-0.42545-0.42862-0.42545-0.23495 0-0.42863 0.1905-0.42863 0.42545s0.19368 0.42545 0.42863 0.42545c0.23812 0 0.42862-0.1905 0.42862-0.42545zm-0.42545-0.25717c0.13018 0 0.23813 0.11112 0.23813 0.254 0 0.14287-0.10795 0.254-0.23813 0.254-0.127 0-0.23495-0.11113-0.23495-0.254 0-0.14288 0.10795-0.254 0.23495-0.254z"/>
   </g>
   <g opacity=".91" aria-label="200°">
    <path d="m440.25 240.91 0.16192 0.13018c0.019-0.0286 0.01-0.0476 0.0286-0.073 0.0476-0.073 0.1651-0.18097 0.33655-0.18097 0.21272 0 0.381 0.16192 0.381 0.37465 0 0.2413-0.2032 0.41592-0.34608 0.5461-0.22542 0.2032-0.40957 0.4064-0.57467 0.73342v0.1397h1.162v-0.21907c-0.0222-0.01-0.0381 6e-3 -0.0445 0.0127-0.0127 0.0127-0.019 0.0127-0.0317 0.0127h-0.83185c0.1651-0.28575 0.39687-0.4826 0.53975-0.61595 0.14287-0.13653 0.34607-0.33973 0.34607-0.62548 0-0.30797-0.25082-0.55562-0.5715-0.55562-0.22542 0-0.43815 0.12065-0.55562 0.32067z"/>
    <path d="m442.39 240.59c-0.31433 0-0.63818 0.38735-0.63818 1.0192 0 0.64135 0.32703 1.0096 0.64135 1.0096 0.28575 0 0.62548-0.31115 0.62548-0.99377 0-0.6731-0.32385-1.035-0.62865-1.035zm0.30797 0.45402-0.69532 0.9017c-0.0286-0.11112-0.0445-0.23495-0.0445-0.37465 0-0.508 0.23177-0.7874 0.42862-0.7874 0.10795 0 0.22543 0.0857 0.31115 0.26035zm0.073 0.20955c0.0286 0.11113 0.0413 0.24448 0.0413 0.40005 0 0.55245-0.23812 0.762-0.41275 0.762-0.11747 0-0.23812-0.0952-0.32385-0.26987z"/>
    <path d="m443.98 240.59c-0.31433 0-0.63818 0.38735-0.63818 1.0192 0 0.64135 0.32703 1.0096 0.64135 1.0096 0.28575 0 0.62548-0.31115 0.62548-0.99377 0-0.6731-0.32385-1.035-0.62865-1.035zm0.30797 0.45402-0.69532 0.9017c-0.0286-0.11112-0.0444-0.23495-0.0444-0.37465 0-0.508 0.23177-0.7874 0.42862-0.7874 0.10795 0 0.22543 0.0857 0.31115 0.26035zm0.073 0.20955c0.0286 0.11113 0.0413 0.24448 0.0413 0.40005 0 0.55245-0.23812 0.762-0.41275 0.762-0.11747 0-0.23812-0.0952-0.32385-0.26987z"/>
    <path d="m446.01 240.98c0-0.23495-0.1905-0.42545-0.42862-0.42545-0.23495 0-0.42863 0.1905-0.42863 0.42545s0.19368 0.42545 0.42863 0.42545c0.23812 0 0.42862-0.1905 0.42862-0.42545zm-0.42545-0.25717c0.13018 0 0.23813 0.11112 0.23813 0.254 0 0.14287-0.10795 0.254-0.23813 0.254-0.127 0-0.23495-0.11113-0.23495-0.254 0-0.14288 0.10795-0.254 0.23495-0.254z"/>
   </g>
   <g opacity=".91" aria-label="null">
    <path d="m360.58 213.47h0.23177v-0.83502c0-0.0952 0.0127-0.16828 0.073-0.24765 0.054-0.073 0.19367-0.2032 0.34607-0.2032 0.073 0 0.14605 0.0318 0.19685 0.0921 0.0794 0.0952 0.0794 0.21908 0.0794 0.32068v0.87312h0.22542v-0.87947c0-0.11113 0-0.23178-0.0508-0.34925-0.073-0.16193-0.22225-0.254-0.38735-0.254-0.19685 0-0.37465 0.127-0.4826 0.28892v-0.254h-0.23177z"/>
    <path d="m362.15 212.03v0.80963c0 0.12382 0 0.25082 0.0572 0.381 0.0825 0.1905 0.26035 0.29527 0.45085 0.29527 0.18097 0 0.35242-0.0984 0.44767-0.25717l-3e-3 0.10795c0 0.0381 0 0.0762 6e-3 0.11112h0.2413c-0.0159-0.0413-0.019-0.0889-0.019-0.13017v-1.3176h-0.2286v0.79693c0 0.11112-0.01 0.19685-0.0572 0.28575-0.0667 0.12382-0.19685 0.2159-0.33655 0.2159-0.11113 0-0.21908-0.0635-0.27623-0.1778-0.0508-0.1016-0.0508-0.2159-0.0508-0.31115v-0.80963z"/>
    <path d="m363.81 211.36v0.18415h0.41275v1.7431h-0.4318v0.18097h1.089v-0.18097h-0.42862v-1.9272z"/>
    <path d="m365.39 211.36v0.18415h0.41275v1.7431h-0.4318v0.18097h1.089v-0.18097h-0.42862v-1.9272z"/>
   </g>
   <g opacity=".91" aria-label="60°">
    <path d="m409.96 211.47c-0.23813 0-0.49213 0.14605-0.61595 0.49213-0.0667 0.18732-0.0826 0.4191-0.0826 0.6096 0 0.23177 0.0222 0.47942 0.14922 0.66992 0.1143 0.17463 0.2921 0.26353 0.46673 0.26353 0.30162 0 0.56515-0.254 0.56515-0.66358 0-0.40957-0.26353-0.6477-0.54293-0.6477-0.17145 0-0.33337 0.0921-0.4191 0.23813 0.0127-0.67628 0.33655-0.76518 0.47943-0.76518 0.13017 0 0.21907 0.0699 0.23177 0.0825 0.019 0.0222 0.019 0.0508 0.0476 0.073l0.1524-0.17145c-0.1143-0.1143-0.27305-0.18098-0.4318-0.18098zm-0.0826 0.92075c0.15875 0 0.34925 0.12383 0.34925 0.46355 0 0.30798-0.17145 0.45403-0.33973 0.45403-0.2413 0-0.42227-0.28258-0.39687-0.65405 0.0889-0.16193 0.2413-0.26353 0.38735-0.26353z"/>
    <path d="m411.43 211.48c-0.31433 0-0.63818 0.38735-0.63818 1.0192 0 0.64135 0.32703 1.0096 0.64135 1.0096 0.28575 0 0.62548-0.31115 0.62548-0.99377 0-0.6731-0.32385-1.035-0.62865-1.035zm0.30797 0.45402-0.69532 0.9017c-0.0286-0.11112-0.0445-0.23495-0.0445-0.37465 0-0.508 0.23177-0.7874 0.42862-0.7874 0.10795 0 0.22543 0.0857 0.31115 0.26035zm0.073 0.20955c0.0286 0.11113 0.0413 0.24448 0.0413 0.40005 0 0.55245-0.23812 0.762-0.41275 0.762-0.11747 0-0.23812-0.0952-0.32385-0.26987z"/>
    <path d="m413.46 211.87c0-0.23495-0.1905-0.42545-0.42862-0.42545-0.23495 0-0.42863 0.1905-0.42863 0.42545s0.19368 0.42545 0.42863 0.42545c0.23812 0 0.42862-0.1905 0.42862-0.42545zm-0.42545-0.25717c0.13018 0 0.23813 0.11112 0.23813 0.254 0 0.14287-0.10795 0.254-0.23813 0.254-0.127 0-0.23495-0.11113-0.23495-0.254 0-0.14288 0.10795-0.254 0.23495-0.254z"/>
   </g>
   <g opacity=".91" aria-label="120°">
    <path d="m433.01 211.49h-0.14605l-0.508 0.26352 0.0508 0.12383 0.3937-0.11113v1.5304h-0.3683v0.17463h0.93345v-0.17463h-0.3556z"/>
    <path d="m433.9 211.8 0.16192 0.13018c0.019-0.0286 0.01-0.0476 0.0286-0.073 0.0476-0.073 0.1651-0.18097 0.33655-0.18097 0.21272 0 0.381 0.16192 0.381 0.37465 0 0.2413-0.2032 0.41592-0.34608 0.5461-0.22542 0.2032-0.40957 0.4064-0.57467 0.73342v0.1397h1.162v-0.21907c-0.0222-0.01-0.0381 6e-3 -0.0444 0.0127-0.0127 0.0127-0.019 0.0127-0.0318 0.0127h-0.83185c0.1651-0.28575 0.39687-0.4826 0.53975-0.61595 0.14287-0.13653 0.34607-0.33973 0.34607-0.62548 0-0.30797-0.25082-0.55562-0.5715-0.55562-0.22542 0-0.43815 0.12065-0.55562 0.32067z"/>
    <path d="m436.04 211.48c-0.31433 0-0.63818 0.38735-0.63818 1.0192 0 0.64135 0.32703 1.0096 0.64135 1.0096 0.28575 0 0.62548-0.31115 0.62548-0.99377 0-0.6731-0.32385-1.035-0.62865-1.035zm0.30797 0.45402-0.69532 0.9017c-0.0286-0.11112-0.0444-0.23495-0.0444-0.37465 0-0.508 0.23177-0.7874 0.42862-0.7874 0.10795 0 0.22543 0.0857 0.31115 0.26035zm0.073 0.20955c0.0286 0.11113 0.0413 0.24448 0.0413 0.40005 0 0.55245-0.23812 0.762-0.41275 0.762-0.11747 0-0.23812-0.0952-0.32385-0.26987z"/>
    <path d="m438.07 211.87c0-0.23495-0.1905-0.42545-0.42862-0.42545-0.23495 0-0.42863 0.1905-0.42863 0.42545s0.19368 0.42545 0.42863 0.42545c0.23812 0 0.42862-0.1905 0.42862-0.42545zm-0.42545-0.25717c0.13018 0 0.23813 0.11112 0.23813 0.254 0 0.14287-0.10795 0.254-0.23813 0.254-0.127 0-0.23495-0.11113-0.23495-0.254 0-0.14288 0.10795-0.254 0.23495-0.254z"/>
   </g>
   <g opacity=".91" aria-label="140°">
    <path d="m440.95 211.49h-0.14605l-0.508 0.26352 0.0508 0.12383 0.3937-0.11113v1.5304h-0.3683v0.17463h0.93345v-0.17463h-0.3556z"/>
    <path d="m442.59 211.49-0.84138 1.2668v0.1651h0.79693v0.5461h0.2286v-0.54292h0.25717v-0.19685h-0.25717v-1.2382zm-0.0413 0.35242v0.88583h-0.58102z"/>
    <path d="m443.98 211.48c-0.31433 0-0.63818 0.38735-0.63818 1.0192 0 0.64135 0.32703 1.0096 0.64135 1.0096 0.28575 0 0.62548-0.31115 0.62548-0.99377 0-0.6731-0.32385-1.035-0.62865-1.035zm0.30797 0.45402-0.69532 0.9017c-0.0286-0.11112-0.0444-0.23495-0.0444-0.37465 0-0.508 0.23177-0.7874 0.42862-0.7874 0.10795 0 0.22543 0.0857 0.31115 0.26035zm0.073 0.20955c0.0286 0.11113 0.0413 0.24448 0.0413 0.40005 0 0.55245-0.23812 0.762-0.41275 0.762-0.11747 0-0.23812-0.0952-0.32385-0.26987z"/>
    <path d="m446.01 211.87c0-0.23495-0.1905-0.42545-0.42862-0.42545-0.23495 0-0.42863 0.1905-0.42863 0.42545s0.19368 0.42545 0.42863 0.42545c0.23812 0 0.42862-0.1905 0.42862-0.42545zm-0.42545-0.25717c0.13018 0 0.23813 0.11112 0.23813 0.254 0 0.14287-0.10795 0.254-0.23813 0.254-0.127 0-0.23495-0.11113-0.23495-0.254 0-0.14288 0.10795-0.254 0.23495-0.254z"/>
   </g>
   <g opacity=".91" aria-label="100°">
    <path d="m425.07 211.49h-0.14605l-0.508 0.26352 0.0508 0.12383 0.3937-0.11113v1.5304h-0.3683v0.17463h0.93345v-0.17463h-0.3556z"/>
    <path d="m426.51 211.48c-0.31433 0-0.63818 0.38735-0.63818 1.0192 0 0.64135 0.32703 1.0096 0.64135 1.0096 0.28575 0 0.62548-0.31115 0.62548-0.99377 0-0.6731-0.32385-1.035-0.62865-1.035zm0.30797 0.45402-0.69532 0.9017c-0.0286-0.11112-0.0445-0.23495-0.0445-0.37465 0-0.508 0.23177-0.7874 0.42862-0.7874 0.10795 0 0.22543 0.0857 0.31115 0.26035zm0.073 0.20955c0.0286 0.11113 0.0413 0.24448 0.0413 0.40005 0 0.55245-0.23812 0.762-0.41275 0.762-0.11747 0-0.23812-0.0952-0.32385-0.26987z"/>
    <path d="m428.1 211.48c-0.31433 0-0.63818 0.38735-0.63818 1.0192 0 0.64135 0.32703 1.0096 0.64135 1.0096 0.28575 0 0.62548-0.31115 0.62548-0.99377 0-0.6731-0.32385-1.035-0.62865-1.035zm0.30797 0.45402-0.69532 0.9017c-0.0286-0.11112-0.0444-0.23495-0.0444-0.37465 0-0.508 0.23177-0.7874 0.42862-0.7874 0.10795 0 0.22543 0.0857 0.31115 0.26035zm0.073 0.20955c0.0286 0.11113 0.0413 0.24448 0.0413 0.40005 0 0.55245-0.23812 0.762-0.41275 0.762-0.11747 0-0.23812-0.0952-0.32385-0.26987z"/>
    <path d="m430.13 211.87c0-0.23495-0.1905-0.42545-0.42862-0.42545-0.23495 0-0.42863 0.1905-0.42863 0.42545s0.19368 0.42545 0.42863 0.42545c0.23812 0 0.42862-0.1905 0.42862-0.42545zm-0.42545-0.25717c0.13018 0 0.23813 0.11112 0.23813 0.254 0 0.14287-0.10795 0.254-0.23813 0.254-0.127 0-0.23495-0.11113-0.23495-0.254 0-0.14288 0.10795-0.254 0.23495-0.254z"/>
   </g>
   <g opacity=".91" aria-label="80°">
    <path d="m417.8 211.47c-0.3048 0-0.53657 0.21908-0.53657 0.48578 0 0.19367 0.12382 0.37147 0.30162 0.46355-0.23495 0.11112-0.3937 0.32702-0.3937 0.55562 0 0.29528 0.26035 0.53023 0.60008 0.53023 0.34607 0 0.6096-0.2413 0.6096-0.54293 0-0.23495-0.15875-0.4445-0.381-0.54927 0.1905-0.0984 0.31432-0.28575 0.31432-0.47625 0-0.26035-0.22542-0.46673-0.51435-0.46673zm-0.0667 1.0414c0.254 0.0794 0.42227 0.254 0.42227 0.44768 0 0.1905-0.16192 0.34607-0.37465 0.34607-0.2159 0-0.381-0.16192-0.381-0.35877 0-0.18733 0.14605-0.35878 0.33338-0.43498zm0.0476-0.85725c0.1778 0 0.3175 0.13335 0.3175 0.29845 0 0.1524-0.11747 0.29845-0.27305 0.381 0 0-0.34925-0.13335-0.34925-0.39687 0-0.15558 0.13335-0.28258 0.3048-0.28258z"/>
    <path d="m419.37 211.48c-0.31433 0-0.63818 0.38735-0.63818 1.0192 0 0.64135 0.32703 1.0096 0.64135 1.0096 0.28575 0 0.62548-0.31115 0.62548-0.99377 0-0.6731-0.32385-1.035-0.62865-1.035zm0.30797 0.45402-0.69532 0.9017c-0.0286-0.11112-0.0445-0.23495-0.0445-0.37465 0-0.508 0.23177-0.7874 0.42862-0.7874 0.10795 0 0.22543 0.0857 0.31115 0.26035zm0.073 0.20955c0.0286 0.11113 0.0413 0.24448 0.0413 0.40005 0 0.55245-0.23812 0.762-0.41275 0.762-0.11747 0-0.23812-0.0952-0.32385-0.26987z"/>
    <path d="m421.4 211.87c0-0.23495-0.1905-0.42545-0.42862-0.42545-0.23495 0-0.42863 0.1905-0.42863 0.42545s0.19368 0.42545 0.42863 0.42545c0.23812 0 0.42862-0.1905 0.42862-0.42545zm-0.42545-0.25717c0.13018 0 0.23813 0.11112 0.23813 0.254 0 0.14287-0.10795 0.254-0.23813 0.254-0.127 0-0.23495-0.11113-0.23495-0.254 0-0.14288 0.10795-0.254 0.23495-0.254z"/>
   </g>
   <g opacity=".91" aria-label="40°">
    <path d="m402.1 211.49-0.84138 1.2668v0.1651h0.79693v0.5461h0.2286v-0.54292h0.25717v-0.19685h-0.25717v-1.2382zm-0.0413 0.35242v0.88583h-0.58102z"/>
    <path d="m403.5 211.48c-0.31433 0-0.63818 0.38735-0.63818 1.0192 0 0.64135 0.32703 1.0096 0.64135 1.0096 0.28575 0 0.62548-0.31115 0.62548-0.99377 0-0.6731-0.32385-1.035-0.62865-1.035zm0.30797 0.45402-0.69532 0.9017c-0.0286-0.11112-0.0445-0.23495-0.0445-0.37465 0-0.508 0.23177-0.7874 0.42862-0.7874 0.10795 0 0.22543 0.0857 0.31115 0.26035zm0.073 0.20955c0.0286 0.11113 0.0413 0.24448 0.0413 0.40005 0 0.55245-0.23812 0.762-0.41275 0.762-0.11747 0-0.23812-0.0952-0.32385-0.26987z"/>
    <path d="m405.52 211.87c0-0.23495-0.1905-0.42545-0.42862-0.42545-0.23495 0-0.42863 0.1905-0.42863 0.42545s0.19368 0.42545 0.42863 0.42545c0.23812 0 0.42862-0.1905 0.42862-0.42545zm-0.42545-0.25717c0.13018 0 0.23813 0.11112 0.23813 0.254 0 0.14287-0.10795 0.254-0.23813 0.254-0.127 0-0.23495-0.11113-0.23495-0.254 0-0.14288 0.10795-0.254 0.23495-0.254z"/>
   </g>
   <g opacity=".91" aria-label="20°">
    <path d="m393.42 211.8 0.16192 0.13018c0.019-0.0286 0.01-0.0476 0.0286-0.073 0.0476-0.073 0.1651-0.18097 0.33655-0.18097 0.21272 0 0.381 0.16192 0.381 0.37465 0 0.2413-0.2032 0.41592-0.34608 0.5461-0.22542 0.2032-0.40957 0.4064-0.57467 0.73342v0.1397h1.162v-0.21907c-0.0222-0.01-0.0381 6e-3 -0.0445 0.0127-0.0127 0.0127-0.019 0.0127-0.0317 0.0127h-0.83185c0.1651-0.28575 0.39687-0.4826 0.53975-0.61595 0.14287-0.13653 0.34607-0.33973 0.34607-0.62548 0-0.30797-0.25082-0.55562-0.5715-0.55562-0.22542 0-0.43815 0.12065-0.55562 0.32067z"/>
    <path d="m395.56 211.48c-0.31433 0-0.63818 0.38735-0.63818 1.0192 0 0.64135 0.32703 1.0096 0.64135 1.0096 0.28575 0 0.62548-0.31115 0.62548-0.99377 0-0.6731-0.32385-1.035-0.62865-1.035zm0.30797 0.45402-0.69532 0.9017c-0.0286-0.11112-0.0445-0.23495-0.0445-0.37465 0-0.508 0.23177-0.7874 0.42862-0.7874 0.10795 0 0.22543 0.0857 0.31115 0.26035zm0.073 0.20955c0.0286 0.11113 0.0413 0.24448 0.0413 0.40005 0 0.55245-0.23812 0.762-0.41275 0.762-0.11747 0-0.23812-0.0952-0.32385-0.26987z"/>
    <path d="m397.59 211.87c0-0.23495-0.1905-0.42545-0.42862-0.42545-0.23495 0-0.42863 0.1905-0.42863 0.42545s0.19368 0.42545 0.42863 0.42545c0.23812 0 0.42862-0.1905 0.42862-0.42545zm-0.42545-0.25717c0.13018 0 0.23813 0.11112 0.23813 0.254 0 0.14287-0.10795 0.254-0.23813 0.254-0.127 0-0.23495-0.11113-0.23495-0.254 0-0.14288 0.10795-0.254 0.23495-0.254z"/>
   </g>
   <g opacity=".91" aria-label="0°">
    <path d="m370.95 211.48c-0.31433 0-0.63818 0.38735-0.63818 1.0192 0 0.64135 0.32703 1.0096 0.64135 1.0096 0.28575 0 0.62548-0.31115 0.62548-0.99377 0-0.6731-0.32385-1.035-0.62865-1.035zm0.30797 0.45402-0.69532 0.9017c-0.0286-0.11112-0.0445-0.23495-0.0445-0.37465 0-0.508 0.23177-0.7874 0.42862-0.7874 0.10795 0 0.22543 0.0857 0.31115 0.26035zm0.073 0.20955c0.0286 0.11113 0.0413 0.24448 0.0413 0.40005 0 0.55245-0.23812 0.762-0.41275 0.762-0.11747 0-0.23812-0.0952-0.32385-0.26987z"/>
    <path d="m372.98 211.87c0-0.23495-0.1905-0.42545-0.42862-0.42545-0.23495 0-0.42863 0.1905-0.42863 0.42545s0.19368 0.42545 0.42863 0.42545c0.23812 0 0.42862-0.1905 0.42862-0.42545zm-0.42545-0.25717c0.13018 0 0.23813 0.11112 0.23813 0.254 0 0.14287-0.10795 0.254-0.23813 0.254-0.127 0-0.23495-0.11113-0.23495-0.254 0-0.14288 0.10795-0.254 0.23495-0.254z"/>
   </g>
   <g opacity=".91" aria-label="0°">
    <path d="m378.89 211.48c-0.31433 0-0.63818 0.38735-0.63818 1.0192 0 0.64135 0.32703 1.0096 0.64135 1.0096 0.28575 0 0.62548-0.31115 0.62548-0.99377 0-0.6731-0.32385-1.035-0.62865-1.035zm0.30797 0.45402-0.69532 0.9017c-0.0286-0.11112-0.0445-0.23495-0.0445-0.37465 0-0.508 0.23177-0.7874 0.42862-0.7874 0.10795 0 0.22543 0.0857 0.31115 0.26035zm0.073 0.20955c0.0286 0.11113 0.0413 0.24448 0.0413 0.40005 0 0.55245-0.23812 0.762-0.41275 0.762-0.11747 0-0.23812-0.0952-0.32385-0.26987z"/>
    <path d="m380.92 211.87c0-0.23495-0.1905-0.42545-0.42862-0.42545-0.23495 0-0.42863 0.1905-0.42863 0.42545s0.19368 0.42545 0.42863 0.42545c0.23812 0 0.42862-0.1905 0.42862-0.42545zm-0.42545-0.25717c0.13018 0 0.23813 0.11112 0.23813 0.254 0 0.14287-0.10795 0.254-0.23813 0.254-0.127 0-0.23495-0.11113-0.23495-0.254 0-0.14288 0.10795-0.254 0.23495-0.254z"/>
   </g>
   <g opacity=".91" aria-label="0°">
    <path d="m386.83 211.48c-0.31433 0-0.63818 0.38735-0.63818 1.0192 0 0.64135 0.32703 1.0096 0.64135 1.0096 0.28575 0 0.62548-0.31115 0.62548-0.99377 0-0.6731-0.32385-1.035-0.62865-1.035zm0.30797 0.45402-0.69532 0.9017c-0.0286-0.11112-0.0445-0.23495-0.0445-0.37465 0-0.508 0.23177-0.7874 0.42862-0.7874 0.10795 0 0.22543 0.0857 0.31115 0.26035zm0.073 0.20955c0.0286 0.11113 0.0413 0.24448 0.0413 0.40005 0 0.55245-0.23812 0.762-0.41275 0.762-0.11747 0-0.23812-0.0952-0.32385-0.26987z"/>
    <path d="m388.86 211.87c0-0.23495-0.1905-0.42545-0.42862-0.42545-0.23495 0-0.42863 0.1905-0.42863 0.42545s0.19368 0.42545 0.42863 0.42545c0.23812 0 0.42862-0.1905 0.42862-0.42545zm-0.42545-0.25717c0.13018 0 0.23813 0.11112 0.23813 0.254 0 0.14287-0.10795 0.254-0.23813 0.254-0.127 0-0.23495-0.11113-0.23495-0.254 0-0.14288 0.10795-0.254 0.23495-0.254z"/>
   </g>
  </g>
  <path d="m362.05 228.19-0.28522 0.25554v1.6428l0.28522 0.25556h2.2589l0.28521-0.25556v-1.6428l-0.28521-0.25554z" fill="#1d232d" stroke="#47d58a" stroke-linecap="round" stroke-miterlimit="22" stroke-width=".13229"/>
  <path d="m362.06 228.19-0.29206 0.25554 1.2778 0.73774h0.27381l1.2778-0.73774-0.29206-0.25554z" fill="#47d58a"/>
  <path d="m364.41 228.23 6.8792-4.6302" fill="none" stroke="#47d58a" stroke-dasharray="0.13229167, 0.26458333" stroke-linecap="square" stroke-miterlimit="22" stroke-width=".13229" style="paint-order:normal"/>
  <g>
   <g transform="matrix(.0017455 -.0012001 .0012207 .0017754 370.23 223.58)" fill="#47d58a" stroke-width="123.85">
    <g fill="#47d58a" stroke-width="123.85">
     <path d="m486.41 221.41-364.07-208.5c-52.938-30.318-95.852-5.44-95.852 55.563v415.65c0 61.004 42.914 85.882 95.852 55.563l364.07-208.49c52.938-30.317 52.938-79.473 0-109.79z" fill="#47d58a" stroke-width="123.85"/>
    </g>
   </g>
   <path d="m385.86 228.19-0.28522 0.25554v1.6428l0.28522 0.25556h2.2589l0.28521-0.25556v-1.6428l-0.28521-0.25554z" fill="#1d232d" stroke="#47d58a" stroke-linecap="round" stroke-miterlimit="22" stroke-width=".13229"/>
   <path d="m385.87 228.19-0.29206 0.25554 1.2778 0.73774h0.27381l1.2778-0.73774-0.29206-0.25554z" fill="#47d58a"/>
  </g>
  <path d="m388.22 228.23 6.8792-4.6302" fill="none" stroke="#47d58a" stroke-dasharray="0.13229167, 0.26458333" stroke-linecap="square" stroke-miterlimit="22" stroke-width=".13229" style="paint-order:normal"/>
  <g>
   <g transform="matrix(.0017455 -.0012001 .0012207 .0017754 394.04 223.58)" fill="#47d58a" stroke-width="123.85">
    <g fill="#47d58a" stroke-width="123.85">
     <path d="m486.41 221.41-364.07-208.5c-52.938-30.318-95.852-5.44-95.852 55.563v415.65c0 61.004 42.914 85.882 95.852 55.563l364.07-208.49c52.938-30.317 52.938-79.473 0-109.79z" fill="#47d58a" stroke-width="123.85"/>
    </g>
   </g>
   <path d="m409.68 228.19-0.28522 0.25554v1.6428l0.28522 0.25556h2.2589l0.28521-0.25556v-1.6428l-0.28521-0.25554z" fill="#1d232d" stroke="#47d58a" stroke-linecap="round" stroke-miterlimit="22" stroke-width=".13229"/>
   <path d="m409.68 228.19-0.29206 0.25554 1.2778 0.73774h0.27381l1.2778-0.73774-0.29206-0.25554z" fill="#47d58a"/>
  </g>
  <path d="m412.04 228.23 6.8792-4.6302" fill="none" stroke="#47d58a" stroke-dasharray="0.13229167, 0.26458333" stroke-linecap="square" stroke-miterlimit="22" stroke-width=".13229" style="paint-order:normal"/>
  <g>
   <g transform="matrix(.0017455 -.0012001 .0012207 .0017754 417.85 223.58)" fill="#47d58a" stroke-width="123.85">
    <g fill="#47d58a" stroke-width="123.85">
     <path d="m486.41 221.41-364.07-208.5c-52.938-30.318-95.852-5.44-95.852 55.563v415.65c0 61.004 42.914 85.882 95.852 55.563l364.07-208.49c52.938-30.317 52.938-79.473 0-109.79z" fill="#47d58a" stroke-width="123.85"/>
    </g>
   </g>
   <path d="m433.49 228.19-0.28522 0.25554v1.6428l0.28522 0.25556h2.2589l0.28521-0.25556v-1.6428l-0.28521-0.25554z" fill="#1d232d" stroke="#47d58a" stroke-linecap="round" stroke-miterlimit="22" stroke-width=".13229"/>
   <path d="m433.49 228.19-0.29206 0.25554 1.2778 0.73774h0.27381l1.2778-0.73774-0.29206-0.25554z" fill="#47d58a"/>
  </g>
  <path d="m435.85 228.23 6.8792-4.6302" fill="none" stroke="#47d58a" stroke-dasharray="0.13229167, 0.26458333" stroke-linecap="square" stroke-miterlimit="22" stroke-width=".13229" style="paint-order:normal"/>
  <g transform="matrix(.0017455 -.0012001 .0012207 .0017754 441.67 223.58)" fill="#47d58a" stroke-width="123.85">
   <g fill="#47d58a" stroke-width="123.85">
    <path d="m486.41 221.41-364.07-208.5c-52.938-30.318-95.852-5.44-95.852 55.563v415.65c0 61.004 42.914 85.882 95.852 55.563l364.07-208.49c52.938-30.317 52.938-79.473 0-109.79z" fill="#47d58a" stroke-width="123.85"/>
   </g>
  </g>
  <g transform="matrix(-.5286 -.0021758 -.0021758 .5286 443.89 188.99)">
   <path d="m133.62 54.82h6.844c0.117 0.164 0.222 0.32 0.293 0.465h-7.43c0.07-0.145 0.176-0.301 0.293-0.465z" fill="#a96f00"/>
   <path d="m134.52 53.894h5.047c0.371 0.289 0.672 0.613 0.899 0.926h-6.844c0.223-0.313 0.527-0.637 0.898-0.926z" fill="#fbb227"/>
   <path d="m138.84 53.429c0.262 0.137 0.512 0.289 0.734 0.465h-5.047c0.219-0.176 0.473-0.328 0.735-0.465z" fill="#ffd179"/>
   <path d="m138.84 53.429h-3.578c0.523-0.277 1.121-0.465 1.789-0.465s1.266 0.188 1.789 0.465z" fill="#ffd179"/>
   <path d="m136.12 61.582 1.848-0.01138-0.0111-3.0352-1.844 0.01628z" fill="#535e70"/>
   <path d="m136.58 55.285v3.757c-0.848 0.133-1.519 0.618-2.144 1.196-0.114-0.211-0.5-0.426-0.586-0.645-0.086-0.226-0.157-0.457-0.211-0.691-0.055-0.235-0.09-0.477-0.114-0.715-0.019-0.242-0.027-0.488-0.015-0.735 0.011-0.242 0.039-0.488 0.086-0.73 0.047-0.246 0.109-0.488 0.187-0.73 0.028-0.082 0.07-0.161 0.102-0.243 0.062-0.156 0.406-0.312 0.484-0.464z" fill="#fbb227"/>
   <path d="m137.51 55.285v3.757c-0.153-0.023-0.305-0.039-0.465-0.039s-0.317 0.016-0.465 0.039v-3.757z" fill="#a96f00"/>
   <path d="m139.79 55.285c0.227 0.277 0.43 0.691 0.504 0.929 0.074 0.242 0.129 0.492 0.168 0.742 0.035 0.25 0.109 0.305 0.113 0.559 0 0.25 0.027 0.496 0 0.742-0.031 0.246-0.176 0.692-0.23 0.93-0.055 0.238-0.125 0.465-0.203 0.687-0.075 0.207-0.383 0.188-0.473 0.375-0.629-0.582-1.309-1.07-2.16-1.207v-3.757z" fill="#fbb227"/>
   <path d="m138.44 58.999h1.855v-3.25h-1.855z" fill="#a96f00"/>
   <path d="m133.79 58.999h1.859v-3.25h-1.859z" fill="#2f3744"/>
   <path d="m134.44 60.238c-0.219 0.199-0.43 0.41-0.645 0.621-1.164-1.555-1.391-3.715-0.461-5.574h1.039c-0.117 0.234-0.219 0.468-0.297 0.71-0.082 0.239-0.144 0.485-0.191 0.727-0.043 0.246-0.07 0.488-0.082 0.734-0.012 0.243-8e-3 0.489 0.015 0.731 0.02 0.242 0.059 0.48 0.114 0.715 0.05 0.238 0.125 0.468 0.211 0.691 0.082 0.223 0.183 0.434 0.297 0.645z" fill="#ffd179"/>
   <path d="m140.76 55.285c0.929 1.859 0.465 4.183-0.465 5.574-0.207-0.207-0.414-0.41-0.625-0.61 0.09-0.187 0.18-0.382 0.25-0.589 0.082-0.219 0.148-0.45 0.207-0.688 0.055-0.234 0.101-0.477 0.129-0.727 0.027-0.246 0.043-0.496 0.039-0.746 0-0.254-0.016-0.504-0.055-0.757-0.035-0.25-0.09-0.497-0.164-0.743-0.074-0.242-0.168-0.48-0.285-0.714z" fill="#fbb227"/>
   <path d="m134.26 58.535h0.93v-0.926h-0.93z" fill="#cf2f25"/>
   <path d="m134.26 57.144h0.93v-0.93h-0.93z" fill="#47d58a"/>
  </g>
  <g transform="matrix(-.5286 -.0021758 -.0021758 .5286 435.95 204.87)">
   <path d="m133.62 54.82h6.844c0.117 0.164 0.222 0.32 0.293 0.465h-7.43c0.07-0.145 0.176-0.301 0.293-0.465z" fill="#a96f00"/>
   <path d="m134.52 53.894h5.047c0.371 0.289 0.672 0.613 0.899 0.926h-6.844c0.223-0.313 0.527-0.637 0.898-0.926z" fill="#fbb227"/>
   <path d="m138.84 53.429c0.262 0.137 0.512 0.289 0.734 0.465h-5.047c0.219-0.176 0.473-0.328 0.735-0.465z" fill="#ffd179"/>
   <path d="m138.84 53.429h-3.578c0.523-0.277 1.121-0.465 1.789-0.465s1.266 0.188 1.789 0.465z" fill="#ffd179"/>
   <path d="m136.12 61.582 1.848-0.01138-0.0111-3.0352-1.844 0.01628z" fill="#535e70"/>
   <path d="m136.58 55.285v3.757c-0.848 0.133-1.519 0.618-2.144 1.196-0.114-0.211-0.5-0.426-0.586-0.645-0.086-0.226-0.157-0.457-0.211-0.691-0.055-0.235-0.09-0.477-0.114-0.715-0.019-0.242-0.027-0.488-0.015-0.735 0.011-0.242 0.039-0.488 0.086-0.73 0.047-0.246 0.109-0.488 0.187-0.73 0.028-0.082 0.07-0.161 0.102-0.243 0.062-0.156 0.406-0.312 0.484-0.464z" fill="#fbb227"/>
   <path d="m137.51 55.285v3.757c-0.153-0.023-0.305-0.039-0.465-0.039s-0.317 0.016-0.465 0.039v-3.757z" fill="#a96f00"/>
   <path d="m139.79 55.285c0.227 0.277 0.43 0.691 0.504 0.929 0.074 0.242 0.129 0.492 0.168 0.742 0.035 0.25 0.109 0.305 0.113 0.559 0 0.25 0.027 0.496 0 0.742-0.031 0.246-0.176 0.692-0.23 0.93-0.055 0.238-0.125 0.465-0.203 0.687-0.075 0.207-0.383 0.188-0.473 0.375-0.629-0.582-1.309-1.07-2.16-1.207v-3.757z" fill="#fbb227"/>
   <path d="m138.44 58.999h1.855v-3.25h-1.855z" fill="#a96f00"/>
   <path d="m133.79 58.999h1.859v-3.25h-1.859z" fill="#2f3744"/>
   <path d="m134.44 60.238c-0.219 0.199-0.43 0.41-0.645 0.621-1.164-1.555-1.391-3.715-0.461-5.574h1.039c-0.117 0.234-0.219 0.468-0.297 0.71-0.082 0.239-0.144 0.485-0.191 0.727-0.043 0.246-0.07 0.488-0.082 0.734-0.012 0.243-8e-3 0.489 0.015 0.731 0.02 0.242 0.059 0.48 0.114 0.715 0.05 0.238 0.125 0.468 0.211 0.691 0.082 0.223 0.183 0.434 0.297 0.645z" fill="#ffd179"/>
   <path d="m140.76 55.285c0.929 1.859 0.465 4.183-0.465 5.574-0.207-0.207-0.414-0.41-0.625-0.61 0.09-0.187 0.18-0.382 0.25-0.589 0.082-0.219 0.148-0.45 0.207-0.688 0.055-0.234 0.101-0.477 0.129-0.727 0.027-0.246 0.043-0.496 0.039-0.746 0-0.254-0.016-0.504-0.055-0.757-0.035-0.25-0.09-0.497-0.164-0.743-0.074-0.242-0.168-0.48-0.285-0.714z" fill="#fbb227"/>
   <path d="m134.26 58.535h0.93v-0.926h-0.93z" fill="#cf2f25"/>
   <path d="m134.26 57.144h0.93v-0.93h-0.93z" fill="#47d58a"/>
  </g>
  <g transform="matrix(-.48753 -.2043 -.2043 .48753 449.83 234.91)">
   <path d="m133.62 54.82h6.844c0.117 0.164 0.222 0.32 0.293 0.465h-7.43c0.07-0.145 0.176-0.301 0.293-0.465z" fill="#a96f00"/>
   <path d="m134.52 53.894h5.047c0.371 0.289 0.672 0.613 0.899 0.926h-6.844c0.223-0.313 0.527-0.637 0.898-0.926z" fill="#fbb227"/>
   <path d="m138.84 53.429c0.262 0.137 0.512 0.289 0.734 0.465h-5.047c0.219-0.176 0.473-0.328 0.735-0.465z" fill="#ffd179"/>
   <path d="m138.84 53.429h-3.578c0.523-0.277 1.121-0.465 1.789-0.465s1.266 0.188 1.789 0.465z" fill="#ffd179"/>
   <path d="m136.12 61.582 1.848-0.01138-0.0111-3.0352-1.844 0.01628z" fill="#535e70"/>
   <path d="m136.58 55.285v3.757c-0.848 0.133-1.519 0.618-2.144 1.196-0.114-0.211-0.5-0.426-0.586-0.645-0.086-0.226-0.157-0.457-0.211-0.691-0.055-0.235-0.09-0.477-0.114-0.715-0.019-0.242-0.027-0.488-0.015-0.735 0.011-0.242 0.039-0.488 0.086-0.73 0.047-0.246 0.109-0.488 0.187-0.73 0.028-0.082 0.07-0.161 0.102-0.243 0.062-0.156 0.406-0.312 0.484-0.464z" fill="#fbb227"/>
   <path d="m137.51 55.285v3.757c-0.153-0.023-0.305-0.039-0.465-0.039s-0.317 0.016-0.465 0.039v-3.757z" fill="#a96f00"/>
   <path d="m139.79 55.285c0.227 0.277 0.43 0.691 0.504 0.929 0.074 0.242 0.129 0.492 0.168 0.742 0.035 0.25 0.109 0.305 0.113 0.559 0 0.25 0.027 0.496 0 0.742-0.031 0.246-0.176 0.692-0.23 0.93-0.055 0.238-0.125 0.465-0.203 0.687-0.075 0.207-0.383 0.188-0.473 0.375-0.629-0.582-1.309-1.07-2.16-1.207v-3.757z" fill="#fbb227"/>
   <path d="m138.44 58.999h1.855v-3.25h-1.855z" fill="#a96f00"/>
   <path d="m133.79 58.999h1.859v-3.25h-1.859z" fill="#2f3744"/>
   <path d="m134.44 60.238c-0.219 0.199-0.43 0.41-0.645 0.621-1.164-1.555-1.391-3.715-0.461-5.574h1.039c-0.117 0.234-0.219 0.468-0.297 0.71-0.082 0.239-0.144 0.485-0.191 0.727-0.043 0.246-0.07 0.488-0.082 0.734-0.012 0.243-8e-3 0.489 0.015 0.731 0.02 0.242 0.059 0.48 0.114 0.715 0.05 0.238 0.125 0.468 0.211 0.691 0.082 0.223 0.183 0.434 0.297 0.645z" fill="#ffd179"/>
   <path d="m140.76 55.285c0.929 1.859 0.465 4.183-0.465 5.574-0.207-0.207-0.414-0.41-0.625-0.61 0.09-0.187 0.18-0.382 0.25-0.589 0.082-0.219 0.148-0.45 0.207-0.688 0.055-0.234 0.101-0.477 0.129-0.727 0.027-0.246 0.043-0.496 0.039-0.746 0-0.254-0.016-0.504-0.055-0.757-0.035-0.25-0.09-0.497-0.164-0.743-0.074-0.242-0.168-0.48-0.285-0.714z" fill="#fbb227"/>
   <path d="m134.26 58.535h0.93v-0.926h-0.93z" fill="#cf2f25"/>
   <path d="m134.26 57.144h0.93v-0.93h-0.93z" fill="#47d58a"/>
  </g>
  <g transform="matrix(-.41199 -.33119 -.33119 .41199 454.67 256.61)">
   <path d="m133.62 54.82h6.844c0.117 0.164 0.222 0.32 0.293 0.465h-7.43c0.07-0.145 0.176-0.301 0.293-0.465z" fill="#a96f00"/>
   <path d="m134.52 53.894h5.047c0.371 0.289 0.672 0.613 0.899 0.926h-6.844c0.223-0.313 0.527-0.637 0.898-0.926z" fill="#fbb227"/>
   <path d="m138.84 53.429c0.262 0.137 0.512 0.289 0.734 0.465h-5.047c0.219-0.176 0.473-0.328 0.735-0.465z" fill="#ffd179"/>
   <path d="m138.84 53.429h-3.578c0.523-0.277 1.121-0.465 1.789-0.465s1.266 0.188 1.789 0.465z" fill="#ffd179"/>
   <path d="m136.12 61.582 1.848-0.01138-0.0111-3.0352-1.844 0.01628z" fill="#535e70"/>
   <path d="m136.58 55.285v3.757c-0.848 0.133-1.519 0.618-2.144 1.196-0.114-0.211-0.5-0.426-0.586-0.645-0.086-0.226-0.157-0.457-0.211-0.691-0.055-0.235-0.09-0.477-0.114-0.715-0.019-0.242-0.027-0.488-0.015-0.735 0.011-0.242 0.039-0.488 0.086-0.73 0.047-0.246 0.109-0.488 0.187-0.73 0.028-0.082 0.07-0.161 0.102-0.243 0.062-0.156 0.406-0.312 0.484-0.464z" fill="#fbb227"/>
   <path d="m137.51 55.285v3.757c-0.153-0.023-0.305-0.039-0.465-0.039s-0.317 0.016-0.465 0.039v-3.757z" fill="#a96f00"/>
   <path d="m139.79 55.285c0.227 0.277 0.43 0.691 0.504 0.929 0.074 0.242 0.129 0.492 0.168 0.742 0.035 0.25 0.109 0.305 0.113 0.559 0 0.25 0.027 0.496 0 0.742-0.031 0.246-0.176 0.692-0.23 0.93-0.055 0.238-0.125 0.465-0.203 0.687-0.075 0.207-0.383 0.188-0.473 0.375-0.629-0.582-1.309-1.07-2.16-1.207v-3.757z" fill="#fbb227"/>
   <path d="m138.44 58.999h1.855v-3.25h-1.855z" fill="#a96f00"/>
   <path d="m133.79 58.999h1.859v-3.25h-1.859z" fill="#2f3744"/>
   <path d="m134.44 60.238c-0.219 0.199-0.43 0.41-0.645 0.621-1.164-1.555-1.391-3.715-0.461-5.574h1.039c-0.117 0.234-0.219 0.468-0.297 0.71-0.082 0.239-0.144 0.485-0.191 0.727-0.043 0.246-0.07 0.488-0.082 0.734-0.012 0.243-8e-3 0.489 0.015 0.731 0.02 0.242 0.059 0.48 0.114 0.715 0.05 0.238 0.125 0.468 0.211 0.691 0.082 0.223 0.183 0.434 0.297 0.645z" fill="#ffd179"/>
   <path d="m140.76 55.285c0.929 1.859 0.465 4.183-0.465 5.574-0.207-0.207-0.414-0.41-0.625-0.61 0.09-0.187 0.18-0.382 0.25-0.589 0.082-0.219 0.148-0.45 0.207-0.688 0.055-0.234 0.101-0.477 0.129-0.727 0.027-0.246 0.043-0.496 0.039-0.746 0-0.254-0.016-0.504-0.055-0.757-0.035-0.25-0.09-0.497-0.164-0.743-0.074-0.242-0.168-0.48-0.285-0.714z" fill="#fbb227"/>
   <path d="m134.26 58.535h0.93v-0.926h-0.93z" fill="#cf2f25"/>
   <path d="m134.26 57.144h0.93v-0.93h-0.93z" fill="#47d58a"/>
  </g>
  <g transform="matrix(-.26242 -.45887 -.45887 .26242 449.45 282.69)">
   <path d="m133.62 54.82h6.844c0.117 0.164 0.222 0.32 0.293 0.465h-7.43c0.07-0.145 0.176-0.301 0.293-0.465z" fill="#a96f00"/>
   <path d="m134.52 53.894h5.047c0.371 0.289 0.672 0.613 0.899 0.926h-6.844c0.223-0.313 0.527-0.637 0.898-0.926z" fill="#fbb227"/>
   <path d="m138.84 53.429c0.262 0.137 0.512 0.289 0.734 0.465h-5.047c0.219-0.176 0.473-0.328 0.735-0.465z" fill="#ffd179"/>
   <path d="m138.84 53.429h-3.578c0.523-0.277 1.121-0.465 1.789-0.465s1.266 0.188 1.789 0.465z" fill="#ffd179"/>
   <path d="m136.12 61.582 1.848-0.01138-0.0111-3.0352-1.844 0.01628z" fill="#535e70"/>
   <path d="m136.58 55.285v3.757c-0.848 0.133-1.519 0.618-2.144 1.196-0.114-0.211-0.5-0.426-0.586-0.645-0.086-0.226-0.157-0.457-0.211-0.691-0.055-0.235-0.09-0.477-0.114-0.715-0.019-0.242-0.027-0.488-0.015-0.735 0.011-0.242 0.039-0.488 0.086-0.73 0.047-0.246 0.109-0.488 0.187-0.73 0.028-0.082 0.07-0.161 0.102-0.243 0.062-0.156 0.406-0.312 0.484-0.464z" fill="#fbb227"/>
   <path d="m137.51 55.285v3.757c-0.153-0.023-0.305-0.039-0.465-0.039s-0.317 0.016-0.465 0.039v-3.757z" fill="#a96f00"/>
   <path d="m139.79 55.285c0.227 0.277 0.43 0.691 0.504 0.929 0.074 0.242 0.129 0.492 0.168 0.742 0.035 0.25 0.109 0.305 0.113 0.559 0 0.25 0.027 0.496 0 0.742-0.031 0.246-0.176 0.692-0.23 0.93-0.055 0.238-0.125 0.465-0.203 0.687-0.075 0.207-0.383 0.188-0.473 0.375-0.629-0.582-1.309-1.07-2.16-1.207v-3.757z" fill="#fbb227"/>
   <path d="m138.44 58.999h1.855v-3.25h-1.855z" fill="#a96f00"/>
   <path d="m133.79 58.999h1.859v-3.25h-1.859z" fill="#2f3744"/>
   <path d="m134.44 60.238c-0.219 0.199-0.43 0.41-0.645 0.621-1.164-1.555-1.391-3.715-0.461-5.574h1.039c-0.117 0.234-0.219 0.468-0.297 0.71-0.082 0.239-0.144 0.485-0.191 0.727-0.043 0.246-0.07 0.488-0.082 0.734-0.012 0.243-8e-3 0.489 0.015 0.731 0.02 0.242 0.059 0.48 0.114 0.715 0.05 0.238 0.125 0.468 0.211 0.691 0.082 0.223 0.183 0.434 0.297 0.645z" fill="#ffd179"/>
   <path d="m140.76 55.285c0.929 1.859 0.465 4.183-0.465 5.574-0.207-0.207-0.414-0.41-0.625-0.61 0.09-0.187 0.18-0.382 0.25-0.589 0.082-0.219 0.148-0.45 0.207-0.688 0.055-0.234 0.101-0.477 0.129-0.727 0.027-0.246 0.043-0.496 0.039-0.746 0-0.254-0.016-0.504-0.055-0.757-0.035-0.25-0.09-0.497-0.164-0.743-0.074-0.242-0.168-0.48-0.285-0.714z" fill="#fbb227"/>
   <path d="m134.26 58.535h0.93v-0.926h-0.93z" fill="#cf2f25"/>
   <path d="m134.26 57.144h0.93v-0.93h-0.93z" fill="#47d58a"/>
  </g>
  <g transform="matrix(-.066839 -.52436 -.52436 .066839 434.34 302.86)">
   <path d="m133.62 54.82h6.844c0.117 0.164 0.222 0.32 0.293 0.465h-7.43c0.07-0.145 0.176-0.301 0.293-0.465z" fill="#a96f00"/>
   <path d="m134.52 53.894h5.047c0.371 0.289 0.672 0.613 0.899 0.926h-6.844c0.223-0.313 0.527-0.637 0.898-0.926z" fill="#fbb227"/>
   <path d="m138.84 53.429c0.262 0.137 0.512 0.289 0.734 0.465h-5.047c0.219-0.176 0.473-0.328 0.735-0.465z" fill="#ffd179"/>
   <path d="m138.84 53.429h-3.578c0.523-0.277 1.121-0.465 1.789-0.465s1.266 0.188 1.789 0.465z" fill="#ffd179"/>
   <path d="m136.12 61.582 1.848-0.01138-0.0111-3.0352-1.844 0.01628z" fill="#535e70"/>
   <path d="m136.58 55.285v3.757c-0.848 0.133-1.519 0.618-2.144 1.196-0.114-0.211-0.5-0.426-0.586-0.645-0.086-0.226-0.157-0.457-0.211-0.691-0.055-0.235-0.09-0.477-0.114-0.715-0.019-0.242-0.027-0.488-0.015-0.735 0.011-0.242 0.039-0.488 0.086-0.73 0.047-0.246 0.109-0.488 0.187-0.73 0.028-0.082 0.07-0.161 0.102-0.243 0.062-0.156 0.406-0.312 0.484-0.464z" fill="#fbb227"/>
   <path d="m137.51 55.285v3.757c-0.153-0.023-0.305-0.039-0.465-0.039s-0.317 0.016-0.465 0.039v-3.757z" fill="#a96f00"/>
   <path d="m139.79 55.285c0.227 0.277 0.43 0.691 0.504 0.929 0.074 0.242 0.129 0.492 0.168 0.742 0.035 0.25 0.109 0.305 0.113 0.559 0 0.25 0.027 0.496 0 0.742-0.031 0.246-0.176 0.692-0.23 0.93-0.055 0.238-0.125 0.465-0.203 0.687-0.075 0.207-0.383 0.188-0.473 0.375-0.629-0.582-1.309-1.07-2.16-1.207v-3.757z" fill="#fbb227"/>
   <path d="m138.44 58.999h1.855v-3.25h-1.855z" fill="#a96f00"/>
   <path d="m133.79 58.999h1.859v-3.25h-1.859z" fill="#2f3744"/>
   <path d="m134.44 60.238c-0.219 0.199-0.43 0.41-0.645 0.621-1.164-1.555-1.391-3.715-0.461-5.574h1.039c-0.117 0.234-0.219 0.468-0.297 0.71-0.082 0.239-0.144 0.485-0.191 0.727-0.043 0.246-0.07 0.488-0.082 0.734-0.012 0.243-8e-3 0.489 0.015 0.731 0.02 0.242 0.059 0.48 0.114 0.715 0.05 0.238 0.125 0.468 0.211 0.691 0.082 0.223 0.183 0.434 0.297 0.645z" fill="#ffd179"/>
   <path d="m140.76 55.285c0.929 1.859 0.465 4.183-0.465 5.574-0.207-0.207-0.414-0.41-0.625-0.61 0.09-0.187 0.18-0.382 0.25-0.589 0.082-0.219 0.148-0.45 0.207-0.688 0.055-0.234 0.101-0.477 0.129-0.727 0.027-0.246 0.043-0.496 0.039-0.746 0-0.254-0.016-0.504-0.055-0.757-0.035-0.25-0.09-0.497-0.164-0.743-0.074-0.242-0.168-0.48-0.285-0.714z" fill="#fbb227"/>
   <path d="m134.26 58.535h0.93v-0.926h-0.93z" fill="#cf2f25"/>
   <path d="m134.26 57.144h0.93v-0.93h-0.93z" fill="#47d58a"/>
  </g>
  <g transform="matrix(.13891 -.51003 -.51003 -.13891 413.26 312.68)">
   <path d="m133.62 54.82h6.844c0.117 0.164 0.222 0.32 0.293 0.465h-7.43c0.07-0.145 0.176-0.301 0.293-0.465z" fill="#a96f00"/>
   <path d="m134.52 53.894h5.047c0.371 0.289 0.672 0.613 0.899 0.926h-6.844c0.223-0.313 0.527-0.637 0.898-0.926z" fill="#fbb227"/>
   <path d="m138.84 53.429c0.262 0.137 0.512 0.289 0.734 0.465h-5.047c0.219-0.176 0.473-0.328 0.735-0.465z" fill="#ffd179"/>
   <path d="m138.84 53.429h-3.578c0.523-0.277 1.121-0.465 1.789-0.465s1.266 0.188 1.789 0.465z" fill="#ffd179"/>
   <path d="m136.12 61.582 1.848-0.01138-0.0111-3.0352-1.844 0.01628z" fill="#535e70"/>
   <path d="m136.58 55.285v3.757c-0.848 0.133-1.519 0.618-2.144 1.196-0.114-0.211-0.5-0.426-0.586-0.645-0.086-0.226-0.157-0.457-0.211-0.691-0.055-0.235-0.09-0.477-0.114-0.715-0.019-0.242-0.027-0.488-0.015-0.735 0.011-0.242 0.039-0.488 0.086-0.73 0.047-0.246 0.109-0.488 0.187-0.73 0.028-0.082 0.07-0.161 0.102-0.243 0.062-0.156 0.406-0.312 0.484-0.464z" fill="#fbb227"/>
   <path d="m137.51 55.285v3.757c-0.153-0.023-0.305-0.039-0.465-0.039s-0.317 0.016-0.465 0.039v-3.757z" fill="#a96f00"/>
   <path d="m139.79 55.285c0.227 0.277 0.43 0.691 0.504 0.929 0.074 0.242 0.129 0.492 0.168 0.742 0.035 0.25 0.109 0.305 0.113 0.559 0 0.25 0.027 0.496 0 0.742-0.031 0.246-0.176 0.692-0.23 0.93-0.055 0.238-0.125 0.465-0.203 0.687-0.075 0.207-0.383 0.188-0.473 0.375-0.629-0.582-1.309-1.07-2.16-1.207v-3.757z" fill="#fbb227"/>
   <path d="m138.44 58.999h1.855v-3.25h-1.855z" fill="#a96f00"/>
   <path d="m133.79 58.999h1.859v-3.25h-1.859z" fill="#2f3744"/>
   <path d="m134.44 60.238c-0.219 0.199-0.43 0.41-0.645 0.621-1.164-1.555-1.391-3.715-0.461-5.574h1.039c-0.117 0.234-0.219 0.468-0.297 0.71-0.082 0.239-0.144 0.485-0.191 0.727-0.043 0.246-0.07 0.488-0.082 0.734-0.012 0.243-8e-3 0.489 0.015 0.731 0.02 0.242 0.059 0.48 0.114 0.715 0.05 0.238 0.125 0.468 0.211 0.691 0.082 0.223 0.183 0.434 0.297 0.645z" fill="#ffd179"/>
   <path d="m140.76 55.285c0.929 1.859 0.465 4.183-0.465 5.574-0.207-0.207-0.414-0.41-0.625-0.61 0.09-0.187 0.18-0.382 0.25-0.589 0.082-0.219 0.148-0.45 0.207-0.688 0.055-0.234 0.101-0.477 0.129-0.727 0.027-0.246 0.043-0.496 0.039-0.746 0-0.254-0.016-0.504-0.055-0.757-0.035-0.25-0.09-0.497-0.164-0.743-0.074-0.242-0.168-0.48-0.285-0.714z" fill="#fbb227"/>
   <path d="m134.26 58.535h0.93v-0.926h-0.93z" fill="#cf2f25"/>
   <path d="m134.26 57.144h0.93v-0.93h-0.93z" fill="#47d58a"/>
  </g>
  <g transform="matrix(.26618 -.45669 -.45669 -.26618 400.71 312.66)">
   <path d="m133.62 54.82h6.844c0.117 0.164 0.222 0.32 0.293 0.465h-7.43c0.07-0.145 0.176-0.301 0.293-0.465z" fill="#a96f00"/>
   <path d="m134.52 53.894h5.047c0.371 0.289 0.672 0.613 0.899 0.926h-6.844c0.223-0.313 0.527-0.637 0.898-0.926z" fill="#fbb227"/>
   <path d="m138.84 53.429c0.262 0.137 0.512 0.289 0.734 0.465h-5.047c0.219-0.176 0.473-0.328 0.735-0.465z" fill="#ffd179"/>
   <path d="m138.84 53.429h-3.578c0.523-0.277 1.121-0.465 1.789-0.465s1.266 0.188 1.789 0.465z" fill="#ffd179"/>
   <path d="m136.12 61.582 1.848-0.01138-0.0111-3.0352-1.844 0.01628z" fill="#535e70"/>
   <path d="m136.58 55.285v3.757c-0.848 0.133-1.519 0.618-2.144 1.196-0.114-0.211-0.5-0.426-0.586-0.645-0.086-0.226-0.157-0.457-0.211-0.691-0.055-0.235-0.09-0.477-0.114-0.715-0.019-0.242-0.027-0.488-0.015-0.735 0.011-0.242 0.039-0.488 0.086-0.73 0.047-0.246 0.109-0.488 0.187-0.73 0.028-0.082 0.07-0.161 0.102-0.243 0.062-0.156 0.406-0.312 0.484-0.464z" fill="#fbb227"/>
   <path d="m137.51 55.285v3.757c-0.153-0.023-0.305-0.039-0.465-0.039s-0.317 0.016-0.465 0.039v-3.757z" fill="#a96f00"/>
   <path d="m139.79 55.285c0.227 0.277 0.43 0.691 0.504 0.929 0.074 0.242 0.129 0.492 0.168 0.742 0.035 0.25 0.109 0.305 0.113 0.559 0 0.25 0.027 0.496 0 0.742-0.031 0.246-0.176 0.692-0.23 0.93-0.055 0.238-0.125 0.465-0.203 0.687-0.075 0.207-0.383 0.188-0.473 0.375-0.629-0.582-1.309-1.07-2.16-1.207v-3.757z" fill="#fbb227"/>
   <path d="m138.44 58.999h1.855v-3.25h-1.855z" fill="#a96f00"/>
   <path d="m133.79 58.999h1.859v-3.25h-1.859z" fill="#2f3744"/>
   <path d="m134.44 60.238c-0.219 0.199-0.43 0.41-0.645 0.621-1.164-1.555-1.391-3.715-0.461-5.574h1.039c-0.117 0.234-0.219 0.468-0.297 0.71-0.082 0.239-0.144 0.485-0.191 0.727-0.043 0.246-0.07 0.488-0.082 0.734-0.012 0.243-8e-3 0.489 0.015 0.731 0.02 0.242 0.059 0.48 0.114 0.715 0.05 0.238 0.125 0.468 0.211 0.691 0.082 0.223 0.183 0.434 0.297 0.645z" fill="#ffd179"/>
   <path d="m140.76 55.285c0.929 1.859 0.465 4.183-0.465 5.574-0.207-0.207-0.414-0.41-0.625-0.61 0.09-0.187 0.18-0.382 0.25-0.589 0.082-0.219 0.148-0.45 0.207-0.688 0.055-0.234 0.101-0.477 0.129-0.727 0.027-0.246 0.043-0.496 0.039-0.746 0-0.254-0.016-0.504-0.055-0.757-0.035-0.25-0.09-0.497-0.164-0.743-0.074-0.242-0.168-0.48-0.285-0.714z" fill="#fbb227"/>
   <path d="m134.26 58.535h0.93v-0.926h-0.93z" fill="#cf2f25"/>
   <path d="m134.26 57.144h0.93v-0.93h-0.93z" fill="#47d58a"/>
  </g>
  <g transform="matrix(.42069 -.32007 -.32007 -.42069 379.65 302.79)">
   <path d="m133.62 54.82h6.844c0.117 0.164 0.222 0.32 0.293 0.465h-7.43c0.07-0.145 0.176-0.301 0.293-0.465z" fill="#a96f00"/>
   <path d="m134.52 53.894h5.047c0.371 0.289 0.672 0.613 0.899 0.926h-6.844c0.223-0.313 0.527-0.637 0.898-0.926z" fill="#fbb227"/>
   <path d="m138.84 53.429c0.262 0.137 0.512 0.289 0.734 0.465h-5.047c0.219-0.176 0.473-0.328 0.735-0.465z" fill="#ffd179"/>
   <path d="m138.84 53.429h-3.578c0.523-0.277 1.121-0.465 1.789-0.465s1.266 0.188 1.789 0.465z" fill="#ffd179"/>
   <path d="m136.12 61.582 1.848-0.01138-0.0111-3.0352-1.844 0.01628z" fill="#535e70"/>
   <path d="m136.58 55.285v3.757c-0.848 0.133-1.519 0.618-2.144 1.196-0.114-0.211-0.5-0.426-0.586-0.645-0.086-0.226-0.157-0.457-0.211-0.691-0.055-0.235-0.09-0.477-0.114-0.715-0.019-0.242-0.027-0.488-0.015-0.735 0.011-0.242 0.039-0.488 0.086-0.73 0.047-0.246 0.109-0.488 0.187-0.73 0.028-0.082 0.07-0.161 0.102-0.243 0.062-0.156 0.406-0.312 0.484-0.464z" fill="#fbb227"/>
   <path d="m137.51 55.285v3.757c-0.153-0.023-0.305-0.039-0.465-0.039s-0.317 0.016-0.465 0.039v-3.757z" fill="#a96f00"/>
   <path d="m139.79 55.285c0.227 0.277 0.43 0.691 0.504 0.929 0.074 0.242 0.129 0.492 0.168 0.742 0.035 0.25 0.109 0.305 0.113 0.559 0 0.25 0.027 0.496 0 0.742-0.031 0.246-0.176 0.692-0.23 0.93-0.055 0.238-0.125 0.465-0.203 0.687-0.075 0.207-0.383 0.188-0.473 0.375-0.629-0.582-1.309-1.07-2.16-1.207v-3.757z" fill="#fbb227"/>
   <path d="m138.44 58.999h1.855v-3.25h-1.855z" fill="#a96f00"/>
   <path d="m133.79 58.999h1.859v-3.25h-1.859z" fill="#2f3744"/>
   <path d="m134.44 60.238c-0.219 0.199-0.43 0.41-0.645 0.621-1.164-1.555-1.391-3.715-0.461-5.574h1.039c-0.117 0.234-0.219 0.468-0.297 0.71-0.082 0.239-0.144 0.485-0.191 0.727-0.043 0.246-0.07 0.488-0.082 0.734-0.012 0.243-8e-3 0.489 0.015 0.731 0.02 0.242 0.059 0.48 0.114 0.715 0.05 0.238 0.125 0.468 0.211 0.691 0.082 0.223 0.183 0.434 0.297 0.645z" fill="#ffd179"/>
   <path d="m140.76 55.285c0.929 1.859 0.465 4.183-0.465 5.574-0.207-0.207-0.414-0.41-0.625-0.61 0.09-0.187 0.18-0.382 0.25-0.589 0.082-0.219 0.148-0.45 0.207-0.688 0.055-0.234 0.101-0.477 0.129-0.727 0.027-0.246 0.043-0.496 0.039-0.746 0-0.254-0.016-0.504-0.055-0.757-0.035-0.25-0.09-0.497-0.164-0.743-0.074-0.242-0.168-0.48-0.285-0.714z" fill="#fbb227"/>
   <path d="m134.26 58.535h0.93v-0.926h-0.93z" fill="#cf2f25"/>
   <path d="m134.26 57.144h0.93v-0.93h-0.93z" fill="#47d58a"/>
  </g>
  <g transform="matrix(.49612 -.18245 -.18245 -.49612 369.37 288.26)">
   <path d="m133.62 54.82h6.844c0.117 0.164 0.222 0.32 0.293 0.465h-7.43c0.07-0.145 0.176-0.301 0.293-0.465z" fill="#a96f00"/>
   <path d="m134.52 53.894h5.047c0.371 0.289 0.672 0.613 0.899 0.926h-6.844c0.223-0.313 0.527-0.637 0.898-0.926z" fill="#fbb227"/>
   <path d="m138.84 53.429c0.262 0.137 0.512 0.289 0.734 0.465h-5.047c0.219-0.176 0.473-0.328 0.735-0.465z" fill="#ffd179"/>
   <path d="m138.84 53.429h-3.578c0.523-0.277 1.121-0.465 1.789-0.465s1.266 0.188 1.789 0.465z" fill="#ffd179"/>
   <path d="m136.12 61.582 1.848-0.01138-0.0111-3.0352-1.844 0.01628z" fill="#535e70"/>
   <path d="m136.58 55.285v3.757c-0.848 0.133-1.519 0.618-2.144 1.196-0.114-0.211-0.5-0.426-0.586-0.645-0.086-0.226-0.157-0.457-0.211-0.691-0.055-0.235-0.09-0.477-0.114-0.715-0.019-0.242-0.027-0.488-0.015-0.735 0.011-0.242 0.039-0.488 0.086-0.73 0.047-0.246 0.109-0.488 0.187-0.73 0.028-0.082 0.07-0.161 0.102-0.243 0.062-0.156 0.406-0.312 0.484-0.464z" fill="#fbb227"/>
   <path d="m137.51 55.285v3.757c-0.153-0.023-0.305-0.039-0.465-0.039s-0.317 0.016-0.465 0.039v-3.757z" fill="#a96f00"/>
   <path d="m139.79 55.285c0.227 0.277 0.43 0.691 0.504 0.929 0.074 0.242 0.129 0.492 0.168 0.742 0.035 0.25 0.109 0.305 0.113 0.559 0 0.25 0.027 0.496 0 0.742-0.031 0.246-0.176 0.692-0.23 0.93-0.055 0.238-0.125 0.465-0.203 0.687-0.075 0.207-0.383 0.188-0.473 0.375-0.629-0.582-1.309-1.07-2.16-1.207v-3.757z" fill="#fbb227"/>
   <path d="m138.44 58.999h1.855v-3.25h-1.855z" fill="#a96f00"/>
   <path d="m133.79 58.999h1.859v-3.25h-1.859z" fill="#2f3744"/>
   <path d="m134.44 60.238c-0.219 0.199-0.43 0.41-0.645 0.621-1.164-1.555-1.391-3.715-0.461-5.574h1.039c-0.117 0.234-0.219 0.468-0.297 0.71-0.082 0.239-0.144 0.485-0.191 0.727-0.043 0.246-0.07 0.488-0.082 0.734-0.012 0.243-8e-3 0.489 0.015 0.731 0.02 0.242 0.059 0.48 0.114 0.715 0.05 0.238 0.125 0.468 0.211 0.691 0.082 0.223 0.183 0.434 0.297 0.645z" fill="#ffd179"/>
   <path d="m140.76 55.285c0.929 1.859 0.465 4.183-0.465 5.574-0.207-0.207-0.414-0.41-0.625-0.61 0.09-0.187 0.18-0.382 0.25-0.589 0.082-0.219 0.148-0.45 0.207-0.688 0.055-0.234 0.101-0.477 0.129-0.727 0.027-0.246 0.043-0.496 0.039-0.746 0-0.254-0.016-0.504-0.055-0.757-0.035-0.25-0.09-0.497-0.164-0.743-0.074-0.242-0.168-0.48-0.285-0.714z" fill="#fbb227"/>
   <path d="m134.26 58.535h0.93v-0.926h-0.93z" fill="#cf2f25"/>
   <path d="m134.26 57.144h0.93v-0.93h-0.93z" fill="#47d58a"/>
  </g>
  <g transform="matrix(.5286 .0021758 .0021758 -.5286 362.28 264.82)">
   <path d="m133.62 54.82h6.844c0.117 0.164 0.222 0.32 0.293 0.465h-7.43c0.07-0.145 0.176-0.301 0.293-0.465z" fill="#a96f00"/>
   <path d="m134.52 53.894h5.047c0.371 0.289 0.672 0.613 0.899 0.926h-6.844c0.223-0.313 0.527-0.637 0.898-0.926z" fill="#fbb227"/>
   <path d="m138.84 53.429c0.262 0.137 0.512 0.289 0.734 0.465h-5.047c0.219-0.176 0.473-0.328 0.735-0.465z" fill="#ffd179"/>
   <path d="m138.84 53.429h-3.578c0.523-0.277 1.121-0.465 1.789-0.465s1.266 0.188 1.789 0.465z" fill="#ffd179"/>
   <path d="m136.12 61.582 1.848-0.01138-0.0111-3.0352-1.844 0.01628z" fill="#535e70"/>
   <path d="m136.58 55.285v3.757c-0.848 0.133-1.519 0.618-2.144 1.196-0.114-0.211-0.5-0.426-0.586-0.645-0.086-0.226-0.157-0.457-0.211-0.691-0.055-0.235-0.09-0.477-0.114-0.715-0.019-0.242-0.027-0.488-0.015-0.735 0.011-0.242 0.039-0.488 0.086-0.73 0.047-0.246 0.109-0.488 0.187-0.73 0.028-0.082 0.07-0.161 0.102-0.243 0.062-0.156 0.406-0.312 0.484-0.464z" fill="#fbb227"/>
   <path d="m137.51 55.285v3.757c-0.153-0.023-0.305-0.039-0.465-0.039s-0.317 0.016-0.465 0.039v-3.757z" fill="#a96f00"/>
   <path d="m139.79 55.285c0.227 0.277 0.43 0.691 0.504 0.929 0.074 0.242 0.129 0.492 0.168 0.742 0.035 0.25 0.109 0.305 0.113 0.559 0 0.25 0.027 0.496 0 0.742-0.031 0.246-0.176 0.692-0.23 0.93-0.055 0.238-0.125 0.465-0.203 0.687-0.075 0.207-0.383 0.188-0.473 0.375-0.629-0.582-1.309-1.07-2.16-1.207v-3.757z" fill="#fbb227"/>
   <path d="m138.44 58.999h1.855v-3.25h-1.855z" fill="#a96f00"/>
   <path d="m133.79 58.999h1.859v-3.25h-1.859z" fill="#2f3744"/>
   <path d="m134.44 60.238c-0.219 0.199-0.43 0.41-0.645 0.621-1.164-1.555-1.391-3.715-0.461-5.574h1.039c-0.117 0.234-0.219 0.468-0.297 0.71-0.082 0.239-0.144 0.485-0.191 0.727-0.043 0.246-0.07 0.488-0.082 0.734-0.012 0.243-8e-3 0.489 0.015 0.731 0.02 0.242 0.059 0.48 0.114 0.715 0.05 0.238 0.125 0.468 0.211 0.691 0.082 0.223 0.183 0.434 0.297 0.645z" fill="#ffd179"/>
   <path d="m140.76 55.285c0.929 1.859 0.465 4.183-0.465 5.574-0.207-0.207-0.414-0.41-0.625-0.61 0.09-0.187 0.18-0.382 0.25-0.589 0.082-0.219 0.148-0.45 0.207-0.688 0.055-0.234 0.101-0.477 0.129-0.727 0.027-0.246 0.043-0.496 0.039-0.746 0-0.254-0.016-0.504-0.055-0.757-0.035-0.25-0.09-0.497-0.164-0.743-0.074-0.242-0.168-0.48-0.285-0.714z" fill="#fbb227"/>
   <path d="m134.26 58.535h0.93v-0.926h-0.93z" fill="#cf2f25"/>
   <path d="m134.26 57.144h0.93v-0.93h-0.93z" fill="#47d58a"/>
  </g>
  <g transform="matrix(.41804 .32352 .32352 -.41804 366.97 214.46)">
   <path d="m133.62 54.82h6.844c0.117 0.164 0.222 0.32 0.293 0.465h-7.43c0.07-0.145 0.176-0.301 0.293-0.465z" fill="#a96f00"/>
   <path d="m134.52 53.894h5.047c0.371 0.289 0.672 0.613 0.899 0.926h-6.844c0.223-0.313 0.527-0.637 0.898-0.926z" fill="#fbb227"/>
   <path d="m138.84 53.429c0.262 0.137 0.512 0.289 0.734 0.465h-5.047c0.219-0.176 0.473-0.328 0.735-0.465z" fill="#ffd179"/>
   <path d="m138.84 53.429h-3.578c0.523-0.277 1.121-0.465 1.789-0.465s1.266 0.188 1.789 0.465z" fill="#ffd179"/>
   <path d="m136.12 61.582 1.848-0.01138-0.0111-3.0352-1.844 0.01628z" fill="#535e70"/>
   <path d="m136.58 55.285v3.757c-0.848 0.133-1.519 0.618-2.144 1.196-0.114-0.211-0.5-0.426-0.586-0.645-0.086-0.226-0.157-0.457-0.211-0.691-0.055-0.235-0.09-0.477-0.114-0.715-0.019-0.242-0.027-0.488-0.015-0.735 0.011-0.242 0.039-0.488 0.086-0.73 0.047-0.246 0.109-0.488 0.187-0.73 0.028-0.082 0.07-0.161 0.102-0.243 0.062-0.156 0.406-0.312 0.484-0.464z" fill="#fbb227"/>
   <path d="m137.51 55.285v3.757c-0.153-0.023-0.305-0.039-0.465-0.039s-0.317 0.016-0.465 0.039v-3.757z" fill="#a96f00"/>
   <path d="m139.79 55.285c0.227 0.277 0.43 0.691 0.504 0.929 0.074 0.242 0.129 0.492 0.168 0.742 0.035 0.25 0.109 0.305 0.113 0.559 0 0.25 0.027 0.496 0 0.742-0.031 0.246-0.176 0.692-0.23 0.93-0.055 0.238-0.125 0.465-0.203 0.687-0.075 0.207-0.383 0.188-0.473 0.375-0.629-0.582-1.309-1.07-2.16-1.207v-3.757z" fill="#fbb227"/>
   <path d="m138.44 58.999h1.855v-3.25h-1.855z" fill="#a96f00"/>
   <path d="m133.79 58.999h1.859v-3.25h-1.859z" fill="#2f3744"/>
   <path d="m134.44 60.238c-0.219 0.199-0.43 0.41-0.645 0.621-1.164-1.555-1.391-3.715-0.461-5.574h1.039c-0.117 0.234-0.219 0.468-0.297 0.71-0.082 0.239-0.144 0.485-0.191 0.727-0.043 0.246-0.07 0.488-0.082 0.734-0.012 0.243-8e-3 0.489 0.015 0.731 0.02 0.242 0.059 0.48 0.114 0.715 0.05 0.238 0.125 0.468 0.211 0.691 0.082 0.223 0.183 0.434 0.297 0.645z" fill="#ffd179"/>
   <path d="m140.76 55.285c0.929 1.859 0.465 4.183-0.465 5.574-0.207-0.207-0.414-0.41-0.625-0.61 0.09-0.187 0.18-0.382 0.25-0.589 0.082-0.219 0.148-0.45 0.207-0.688 0.055-0.234 0.101-0.477 0.129-0.727 0.027-0.246 0.043-0.496 0.039-0.746 0-0.254-0.016-0.504-0.055-0.757-0.035-0.25-0.09-0.497-0.164-0.743-0.074-0.242-0.168-0.48-0.285-0.714z" fill="#fbb227"/>
   <path d="m134.26 58.535h0.93v-0.926h-0.93z" fill="#cf2f25"/>
   <path d="m134.26 57.144h0.93v-0.93h-0.93z" fill="#47d58a"/>
  </g>
  <g transform="matrix(-.5286 -.0021758 -.0021758 .5286 451.82 188.99)">
   <path d="m133.62 54.82h6.844c0.117 0.164 0.222 0.32 0.293 0.465h-7.43c0.07-0.145 0.176-0.301 0.293-0.465z" fill="#a96f00"/>
   <path d="m134.52 53.894h5.047c0.371 0.289 0.672 0.613 0.899 0.926h-6.844c0.223-0.313 0.527-0.637 0.898-0.926z" fill="#fbb227"/>
   <path d="m138.84 53.429c0.262 0.137 0.512 0.289 0.734 0.465h-5.047c0.219-0.176 0.473-0.328 0.735-0.465z" fill="#ffd179"/>
   <path d="m138.84 53.429h-3.578c0.523-0.277 1.121-0.465 1.789-0.465s1.266 0.188 1.789 0.465z" fill="#ffd179"/>
   <path d="m136.12 61.582 1.848-0.01138-0.0111-3.0352-1.844 0.01628z" fill="#535e70"/>
   <path d="m136.58 55.285v3.757c-0.848 0.133-1.519 0.618-2.144 1.196-0.114-0.211-0.5-0.426-0.586-0.645-0.086-0.226-0.157-0.457-0.211-0.691-0.055-0.235-0.09-0.477-0.114-0.715-0.019-0.242-0.027-0.488-0.015-0.735 0.011-0.242 0.039-0.488 0.086-0.73 0.047-0.246 0.109-0.488 0.187-0.73 0.028-0.082 0.07-0.161 0.102-0.243 0.062-0.156 0.406-0.312 0.484-0.464z" fill="#fbb227"/>
   <path d="m137.51 55.285v3.757c-0.153-0.023-0.305-0.039-0.465-0.039s-0.317 0.016-0.465 0.039v-3.757z" fill="#a96f00"/>
   <path d="m139.79 55.285c0.227 0.277 0.43 0.691 0.504 0.929 0.074 0.242 0.129 0.492 0.168 0.742 0.035 0.25 0.109 0.305 0.113 0.559 0 0.25 0.027 0.496 0 0.742-0.031 0.246-0.176 0.692-0.23 0.93-0.055 0.238-0.125 0.465-0.203 0.687-0.075 0.207-0.383 0.188-0.473 0.375-0.629-0.582-1.309-1.07-2.16-1.207v-3.757z" fill="#fbb227"/>
   <path d="m138.44 58.999h1.855v-3.25h-1.855z" fill="#a96f00"/>
   <path d="m133.79 58.999h1.859v-3.25h-1.859z" fill="#2f3744"/>
   <path d="m134.44 60.238c-0.219 0.199-0.43 0.41-0.645 0.621-1.164-1.555-1.391-3.715-0.461-5.574h1.039c-0.117 0.234-0.219 0.468-0.297 0.71-0.082 0.239-0.144 0.485-0.191 0.727-0.043 0.246-0.07 0.488-0.082 0.734-0.012 0.243-8e-3 0.489 0.015 0.731 0.02 0.242 0.059 0.48 0.114 0.715 0.05 0.238 0.125 0.468 0.211 0.691 0.082 0.223 0.183 0.434 0.297 0.645z" fill="#ffd179"/>
   <path d="m140.76 55.285c0.929 1.859 0.465 4.183-0.465 5.574-0.207-0.207-0.414-0.41-0.625-0.61 0.09-0.187 0.18-0.382 0.25-0.589 0.082-0.219 0.148-0.45 0.207-0.688 0.055-0.234 0.101-0.477 0.129-0.727 0.027-0.246 0.043-0.496 0.039-0.746 0-0.254-0.016-0.504-0.055-0.757-0.035-0.25-0.09-0.497-0.164-0.743-0.074-0.242-0.168-0.48-0.285-0.714z" fill="#fbb227"/>
   <path d="m134.26 58.535h0.93v-0.926h-0.93z" fill="#cf2f25"/>
   <path d="m134.26 57.144h0.93v-0.93h-0.93z" fill="#47d58a"/>
  </g>
  <g transform="matrix(-.5286 -.0021758 -.0021758 .5286 459.76 188.99)">
   <path d="m133.62 54.82h6.844c0.117 0.164 0.222 0.32 0.293 0.465h-7.43c0.07-0.145 0.176-0.301 0.293-0.465z" fill="#a96f00"/>
   <path d="m134.52 53.894h5.047c0.371 0.289 0.672 0.613 0.899 0.926h-6.844c0.223-0.313 0.527-0.637 0.898-0.926z" fill="#fbb227"/>
   <path d="m138.84 53.429c0.262 0.137 0.512 0.289 0.734 0.465h-5.047c0.219-0.176 0.473-0.328 0.735-0.465z" fill="#ffd179"/>
   <path d="m138.84 53.429h-3.578c0.523-0.277 1.121-0.465 1.789-0.465s1.266 0.188 1.789 0.465z" fill="#ffd179"/>
   <path d="m136.12 61.582 1.848-0.01138-0.0111-3.0352-1.844 0.01628z" fill="#535e70"/>
   <path d="m136.58 55.285v3.757c-0.848 0.133-1.519 0.618-2.144 1.196-0.114-0.211-0.5-0.426-0.586-0.645-0.086-0.226-0.157-0.457-0.211-0.691-0.055-0.235-0.09-0.477-0.114-0.715-0.019-0.242-0.027-0.488-0.015-0.735 0.011-0.242 0.039-0.488 0.086-0.73 0.047-0.246 0.109-0.488 0.187-0.73 0.028-0.082 0.07-0.161 0.102-0.243 0.062-0.156 0.406-0.312 0.484-0.464z" fill="#fbb227"/>
   <path d="m137.51 55.285v3.757c-0.153-0.023-0.305-0.039-0.465-0.039s-0.317 0.016-0.465 0.039v-3.757z" fill="#a96f00"/>
   <path d="m139.79 55.285c0.227 0.277 0.43 0.691 0.504 0.929 0.074 0.242 0.129 0.492 0.168 0.742 0.035 0.25 0.109 0.305 0.113 0.559 0 0.25 0.027 0.496 0 0.742-0.031 0.246-0.176 0.692-0.23 0.93-0.055 0.238-0.125 0.465-0.203 0.687-0.075 0.207-0.383 0.188-0.473 0.375-0.629-0.582-1.309-1.07-2.16-1.207v-3.757z" fill="#fbb227"/>
   <path d="m138.44 58.999h1.855v-3.25h-1.855z" fill="#a96f00"/>
   <path d="m133.79 58.999h1.859v-3.25h-1.859z" fill="#2f3744"/>
   <path d="m134.44 60.238c-0.219 0.199-0.43 0.41-0.645 0.621-1.164-1.555-1.391-3.715-0.461-5.574h1.039c-0.117 0.234-0.219 0.468-0.297 0.71-0.082 0.239-0.144 0.485-0.191 0.727-0.043 0.246-0.07 0.488-0.082 0.734-0.012 0.243-8e-3 0.489 0.015 0.731 0.02 0.242 0.059 0.48 0.114 0.715 0.05 0.238 0.125 0.468 0.211 0.691 0.082 0.223 0.183 0.434 0.297 0.645z" fill="#ffd179"/>
   <path d="m140.76 55.285c0.929 1.859 0.465 4.183-0.465 5.574-0.207-0.207-0.414-0.41-0.625-0.61 0.09-0.187 0.18-0.382 0.25-0.589 0.082-0.219 0.148-0.45 0.207-0.688 0.055-0.234 0.101-0.477 0.129-0.727 0.027-0.246 0.043-0.496 0.039-0.746 0-0.254-0.016-0.504-0.055-0.757-0.035-0.25-0.09-0.497-0.164-0.743-0.074-0.242-0.168-0.48-0.285-0.714z" fill="#fbb227"/>
   <path d="m134.26 58.535h0.93v-0.926h-0.93z" fill="#cf2f25"/>
   <path d="m134.26 57.144h0.93v-0.93h-0.93z" fill="#47d58a"/>
  </g>
  <g fill="none" stroke="#a6aeb8" stroke-linecap="square" stroke-width=".13229">
   <path d="m368.64 207.06-1.3229 1.3229 1.3229 1.3229" style="paint-order:normal"/>
   <path d="m367.41 208.39h23.591" style="paint-order:normal"/>
   <path d="m389.81 207.06 1.3229 1.3229-1.3229 1.3229" style="paint-order:normal"/>
  </g>
  <g fill="#e8eaec" stroke-linecap="round" stroke-width=".26458" aria-label="delay">
   <path d="m375.71 207.08c0 0.51435 0.24765 0.79693 0.63182 0.79693 0.2032 0 0.37148-0.11113 0.4953-0.23495h0.01l0.0127 0.19685h0.12065v-2.2828h-0.1397v0.62865l6e-3 0.2794c-0.1524-0.11747-0.27623-0.18732-0.46038-0.18732-0.36195 0-0.67627 0.31115-0.67627 0.80327zm0.14922 0c0-0.38417 0.23178-0.67945 0.53658-0.67945 0.14922 0 0.28257 0.054 0.4445 0.19685v0.90488c-0.16193 0.16192-0.31115 0.25082-0.47943 0.25082-0.32385 0-0.50165-0.26987-0.50165-0.6731z"/>
   <path d="m377.44 207.08c0 0.49848 0.31433 0.79693 0.70485 0.79693 0.22225 0 0.35878-0.0762 0.47943-0.14923l-0.0571-0.10795c-0.1143 0.0825-0.24448 0.13653-0.40958 0.13653-0.3429 0-0.56832-0.27623-0.57467-0.6604h1.0986c6e-3 -0.0381 6e-3 -0.0762 6e-3 -0.1143 0-0.44768-0.22225-0.70485-0.5842-0.70485-0.33973 0-0.66358 0.3048-0.66358 0.80327zm0.14288-0.0921c0.0317-0.36513 0.26352-0.59055 0.52387-0.59055 0.27305 0 0.44768 0.20002 0.44768 0.59055z"/>
   <path d="m379.1 207.63c0 0.1651 0.0635 0.2413 0.18733 0.2413 0.0444 0 0.073-6e-3 0.1016-0.0159l-0.0254-0.1143c-0.0317 6e-3 -0.0444 6e-3 -0.0571 6e-3 -0.0381 0-0.0667-0.0318-0.0667-0.0984v-2.0987h-0.1397z"/>
   <path d="m379.76 207.46c0 0.28892 0.2032 0.4191 0.4445 0.4191 0.20003 0 0.38418-0.11113 0.53975-0.23495h6e-3l0.0159 0.19685h0.11747v-0.97473c0-0.32702-0.12065-0.58737-0.4826-0.58737-0.24765 0-0.4572 0.12065-0.56515 0.19685l0.0635 0.10477c0.1016-0.0762 0.2794-0.1778 0.48578-0.1778 0.29845 0 0.36512 0.25083 0.35877 0.4826-0.67627 0.0762-0.98425 0.23813-0.98425 0.57468zm0.14605-6e-3c0-0.2413 0.21273-0.38735 0.8382-0.46038v0.51753c-0.18732 0.16192-0.3429 0.24765-0.51752 0.24765-0.17463 0-0.32068-0.0857-0.32068-0.3048z"/>
   <path d="m381.24 208.38-0.0317 0.12382c0.0413 0.0191 0.0984 0.0318 0.15558 0.0318 0.27305 0 0.42545-0.25082 0.51117-0.50482l0.60325-1.7145h-0.14287l-0.32703 0.95885c-0.0413 0.127-0.0921 0.2921-0.1397 0.42545h-0.0127c-0.0571-0.13335-0.11747-0.29845-0.1651-0.42545l-0.3683-0.95885h-0.1524l0.62548 1.5526-0.0413 0.13335c-0.0762 0.23178-0.2032 0.40323-0.39052 0.40323-0.0444 0-0.0921-0.0127-0.12383-0.0254z"/>
  </g>
  <g transform="matrix(-.48753 -.2043 -.2043 .48753 473.65 219.04)">
   <path d="m133.62 54.82h6.844c0.117 0.164 0.222 0.32 0.293 0.465h-7.43c0.07-0.145 0.176-0.301 0.293-0.465z" fill="#a96f00"/>
   <path d="m134.52 53.894h5.047c0.371 0.289 0.672 0.613 0.899 0.926h-6.844c0.223-0.313 0.527-0.637 0.898-0.926z" fill="#fbb227"/>
   <path d="m138.84 53.429c0.262 0.137 0.512 0.289 0.734 0.465h-5.047c0.219-0.176 0.473-0.328 0.735-0.465z" fill="#ffd179"/>
   <path d="m138.84 53.429h-3.578c0.523-0.277 1.121-0.465 1.789-0.465s1.266 0.188 1.789 0.465z" fill="#ffd179"/>
   <path d="m136.12 61.582 1.848-0.01138-0.0111-3.0352-1.844 0.01628z" fill="#535e70"/>
   <path d="m136.58 55.285v3.757c-0.848 0.133-1.519 0.618-2.144 1.196-0.114-0.211-0.5-0.426-0.586-0.645-0.086-0.226-0.157-0.457-0.211-0.691-0.055-0.235-0.09-0.477-0.114-0.715-0.019-0.242-0.027-0.488-0.015-0.735 0.011-0.242 0.039-0.488 0.086-0.73 0.047-0.246 0.109-0.488 0.187-0.73 0.028-0.082 0.07-0.161 0.102-0.243 0.062-0.156 0.406-0.312 0.484-0.464z" fill="#fbb227"/>
   <path d="m137.51 55.285v3.757c-0.153-0.023-0.305-0.039-0.465-0.039s-0.317 0.016-0.465 0.039v-3.757z" fill="#a96f00"/>
   <path d="m139.79 55.285c0.227 0.277 0.43 0.691 0.504 0.929 0.074 0.242 0.129 0.492 0.168 0.742 0.035 0.25 0.109 0.305 0.113 0.559 0 0.25 0.027 0.496 0 0.742-0.031 0.246-0.176 0.692-0.23 0.93-0.055 0.238-0.125 0.465-0.203 0.687-0.075 0.207-0.383 0.188-0.473 0.375-0.629-0.582-1.309-1.07-2.16-1.207v-3.757z" fill="#fbb227"/>
   <path d="m138.44 58.999h1.855v-3.25h-1.855z" fill="#a96f00"/>
   <path d="m133.79 58.999h1.859v-3.25h-1.859z" fill="#2f3744"/>
   <path d="m134.44 60.238c-0.219 0.199-0.43 0.41-0.645 0.621-1.164-1.555-1.391-3.715-0.461-5.574h1.039c-0.117 0.234-0.219 0.468-0.297 0.71-0.082 0.239-0.144 0.485-0.191 0.727-0.043 0.246-0.07 0.488-0.082 0.734-0.012 0.243-8e-3 0.489 0.015 0.731 0.02 0.242 0.059 0.48 0.114 0.715 0.05 0.238 0.125 0.468 0.211 0.691 0.082 0.223 0.183 0.434 0.297 0.645z" fill="#ffd179"/>
   <path d="m140.76 55.285c0.929 1.859 0.465 4.183-0.465 5.574-0.207-0.207-0.414-0.41-0.625-0.61 0.09-0.187 0.18-0.382 0.25-0.589 0.082-0.219 0.148-0.45 0.207-0.688 0.055-0.234 0.101-0.477 0.129-0.727 0.027-0.246 0.043-0.496 0.039-0.746 0-0.254-0.016-0.504-0.055-0.757-0.035-0.25-0.09-0.497-0.164-0.743-0.074-0.242-0.168-0.48-0.285-0.714z" fill="#fbb227"/>
   <path d="m134.26 58.535h0.93v-0.926h-0.93z" fill="#cf2f25"/>
   <path d="m134.26 57.144h0.93v-0.93h-0.93z" fill="#47d58a"/>
  </g>
  <g transform="matrix(-.41199 -.33119 -.33119 .41199 478.48 240.73)">
   <path d="m133.62 54.82h6.844c0.117 0.164 0.222 0.32 0.293 0.465h-7.43c0.07-0.145 0.176-0.301 0.293-0.465z" fill="#a96f00"/>
   <path d="m134.52 53.894h5.047c0.371 0.289 0.672 0.613 0.899 0.926h-6.844c0.223-0.313 0.527-0.637 0.898-0.926z" fill="#fbb227"/>
   <path d="m138.84 53.429c0.262 0.137 0.512 0.289 0.734 0.465h-5.047c0.219-0.176 0.473-0.328 0.735-0.465z" fill="#ffd179"/>
   <path d="m138.84 53.429h-3.578c0.523-0.277 1.121-0.465 1.789-0.465s1.266 0.188 1.789 0.465z" fill="#ffd179"/>
   <path d="m136.12 61.582 1.848-0.01138-0.0111-3.0352-1.844 0.01628z" fill="#535e70"/>
   <path d="m136.58 55.285v3.757c-0.848 0.133-1.519 0.618-2.144 1.196-0.114-0.211-0.5-0.426-0.586-0.645-0.086-0.226-0.157-0.457-0.211-0.691-0.055-0.235-0.09-0.477-0.114-0.715-0.019-0.242-0.027-0.488-0.015-0.735 0.011-0.242 0.039-0.488 0.086-0.73 0.047-0.246 0.109-0.488 0.187-0.73 0.028-0.082 0.07-0.161 0.102-0.243 0.062-0.156 0.406-0.312 0.484-0.464z" fill="#fbb227"/>
   <path d="m137.51 55.285v3.757c-0.153-0.023-0.305-0.039-0.465-0.039s-0.317 0.016-0.465 0.039v-3.757z" fill="#a96f00"/>
   <path d="m139.79 55.285c0.227 0.277 0.43 0.691 0.504 0.929 0.074 0.242 0.129 0.492 0.168 0.742 0.035 0.25 0.109 0.305 0.113 0.559 0 0.25 0.027 0.496 0 0.742-0.031 0.246-0.176 0.692-0.23 0.93-0.055 0.238-0.125 0.465-0.203 0.687-0.075 0.207-0.383 0.188-0.473 0.375-0.629-0.582-1.309-1.07-2.16-1.207v-3.757z" fill="#fbb227"/>
   <path d="m138.44 58.999h1.855v-3.25h-1.855z" fill="#a96f00"/>
   <path d="m133.79 58.999h1.859v-3.25h-1.859z" fill="#2f3744"/>
   <path d="m134.44 60.238c-0.219 0.199-0.43 0.41-0.645 0.621-1.164-1.555-1.391-3.715-0.461-5.574h1.039c-0.117 0.234-0.219 0.468-0.297 0.71-0.082 0.239-0.144 0.485-0.191 0.727-0.043 0.246-0.07 0.488-0.082 0.734-0.012 0.243-8e-3 0.489 0.015 0.731 0.02 0.242 0.059 0.48 0.114 0.715 0.05 0.238 0.125 0.468 0.211 0.691 0.082 0.223 0.183 0.434 0.297 0.645z" fill="#ffd179"/>
   <path d="m140.76 55.285c0.929 1.859 0.465 4.183-0.465 5.574-0.207-0.207-0.414-0.41-0.625-0.61 0.09-0.187 0.18-0.382 0.25-0.589 0.082-0.219 0.148-0.45 0.207-0.688 0.055-0.234 0.101-0.477 0.129-0.727 0.027-0.246 0.043-0.496 0.039-0.746 0-0.254-0.016-0.504-0.055-0.757-0.035-0.25-0.09-0.497-0.164-0.743-0.074-0.242-0.168-0.48-0.285-0.714z" fill="#fbb227"/>
   <path d="m134.26 58.535h0.93v-0.926h-0.93z" fill="#cf2f25"/>
   <path d="m134.26 57.144h0.93v-0.93h-0.93z" fill="#47d58a"/>
  </g>
  <g transform="matrix(-.26242 -.45887 -.45887 .26242 473.26 266.81)">
   <path d="m133.62 54.82h6.844c0.117 0.164 0.222 0.32 0.293 0.465h-7.43c0.07-0.145 0.176-0.301 0.293-0.465z" fill="#a96f00"/>
   <path d="m134.52 53.894h5.047c0.371 0.289 0.672 0.613 0.899 0.926h-6.844c0.223-0.313 0.527-0.637 0.898-0.926z" fill="#fbb227"/>
   <path d="m138.84 53.429c0.262 0.137 0.512 0.289 0.734 0.465h-5.047c0.219-0.176 0.473-0.328 0.735-0.465z" fill="#ffd179"/>
   <path d="m138.84 53.429h-3.578c0.523-0.277 1.121-0.465 1.789-0.465s1.266 0.188 1.789 0.465z" fill="#ffd179"/>
   <path d="m136.12 61.582 1.848-0.01138-0.0111-3.0352-1.844 0.01628z" fill="#535e70"/>
   <path d="m136.58 55.285v3.757c-0.848 0.133-1.519 0.618-2.144 1.196-0.114-0.211-0.5-0.426-0.586-0.645-0.086-0.226-0.157-0.457-0.211-0.691-0.055-0.235-0.09-0.477-0.114-0.715-0.019-0.242-0.027-0.488-0.015-0.735 0.011-0.242 0.039-0.488 0.086-0.73 0.047-0.246 0.109-0.488 0.187-0.73 0.028-0.082 0.07-0.161 0.102-0.243 0.062-0.156 0.406-0.312 0.484-0.464z" fill="#fbb227"/>
   <path d="m137.51 55.285v3.757c-0.153-0.023-0.305-0.039-0.465-0.039s-0.317 0.016-0.465 0.039v-3.757z" fill="#a96f00"/>
   <path d="m139.79 55.285c0.227 0.277 0.43 0.691 0.504 0.929 0.074 0.242 0.129 0.492 0.168 0.742 0.035 0.25 0.109 0.305 0.113 0.559 0 0.25 0.027 0.496 0 0.742-0.031 0.246-0.176 0.692-0.23 0.93-0.055 0.238-0.125 0.465-0.203 0.687-0.075 0.207-0.383 0.188-0.473 0.375-0.629-0.582-1.309-1.07-2.16-1.207v-3.757z" fill="#fbb227"/>
   <path d="m138.44 58.999h1.855v-3.25h-1.855z" fill="#a96f00"/>
   <path d="m133.79 58.999h1.859v-3.25h-1.859z" fill="#2f3744"/>
   <path d="m134.44 60.238c-0.219 0.199-0.43 0.41-0.645 0.621-1.164-1.555-1.391-3.715-0.461-5.574h1.039c-0.117 0.234-0.219 0.468-0.297 0.71-0.082 0.239-0.144 0.485-0.191 0.727-0.043 0.246-0.07 0.488-0.082 0.734-0.012 0.243-8e-3 0.489 0.015 0.731 0.02 0.242 0.059 0.48 0.114 0.715 0.05 0.238 0.125 0.468 0.211 0.691 0.082 0.223 0.183 0.434 0.297 0.645z" fill="#ffd179"/>
   <path d="m140.76 55.285c0.929 1.859 0.465 4.183-0.465 5.574-0.207-0.207-0.414-0.41-0.625-0.61 0.09-0.187 0.18-0.382 0.25-0.589 0.082-0.219 0.148-0.45 0.207-0.688 0.055-0.234 0.101-0.477 0.129-0.727 0.027-0.246 0.043-0.496 0.039-0.746 0-0.254-0.016-0.504-0.055-0.757-0.035-0.25-0.09-0.497-0.164-0.743-0.074-0.242-0.168-0.48-0.285-0.714z" fill="#fbb227"/>
   <path d="m134.26 58.535h0.93v-0.926h-0.93z" fill="#cf2f25"/>
   <path d="m134.26 57.144h0.93v-0.93h-0.93z" fill="#47d58a"/>
  </g>
  <g transform="matrix(-.066839 -.52436 -.52436 .066839 458.15 286.99)">
   <path d="m133.62 54.82h6.844c0.117 0.164 0.222 0.32 0.293 0.465h-7.43c0.07-0.145 0.176-0.301 0.293-0.465z" fill="#a96f00"/>
   <path d="m134.52 53.894h5.047c0.371 0.289 0.672 0.613 0.899 0.926h-6.844c0.223-0.313 0.527-0.637 0.898-0.926z" fill="#fbb227"/>
   <path d="m138.84 53.429c0.262 0.137 0.512 0.289 0.734 0.465h-5.047c0.219-0.176 0.473-0.328 0.735-0.465z" fill="#ffd179"/>
   <path d="m138.84 53.429h-3.578c0.523-0.277 1.121-0.465 1.789-0.465s1.266 0.188 1.789 0.465z" fill="#ffd179"/>
   <path d="m136.12 61.582 1.848-0.01138-0.0111-3.0352-1.844 0.01628z" fill="#535e70"/>
   <path d="m136.58 55.285v3.757c-0.848 0.133-1.519 0.618-2.144 1.196-0.114-0.211-0.5-0.426-0.586-0.645-0.086-0.226-0.157-0.457-0.211-0.691-0.055-0.235-0.09-0.477-0.114-0.715-0.019-0.242-0.027-0.488-0.015-0.735 0.011-0.242 0.039-0.488 0.086-0.73 0.047-0.246 0.109-0.488 0.187-0.73 0.028-0.082 0.07-0.161 0.102-0.243 0.062-0.156 0.406-0.312 0.484-0.464z" fill="#fbb227"/>
   <path d="m137.51 55.285v3.757c-0.153-0.023-0.305-0.039-0.465-0.039s-0.317 0.016-0.465 0.039v-3.757z" fill="#a96f00"/>
   <path d="m139.79 55.285c0.227 0.277 0.43 0.691 0.504 0.929 0.074 0.242 0.129 0.492 0.168 0.742 0.035 0.25 0.109 0.305 0.113 0.559 0 0.25 0.027 0.496 0 0.742-0.031 0.246-0.176 0.692-0.23 0.93-0.055 0.238-0.125 0.465-0.203 0.687-0.075 0.207-0.383 0.188-0.473 0.375-0.629-0.582-1.309-1.07-2.16-1.207v-3.757z" fill="#fbb227"/>
   <path d="m138.44 58.999h1.855v-3.25h-1.855z" fill="#a96f00"/>
   <path d="m133.79 58.999h1.859v-3.25h-1.859z" fill="#2f3744"/>
   <path d="m134.44 60.238c-0.219 0.199-0.43 0.41-0.645 0.621-1.164-1.555-1.391-3.715-0.461-5.574h1.039c-0.117 0.234-0.219 0.468-0.297 0.71-0.082 0.239-0.144 0.485-0.191 0.727-0.043 0.246-0.07 0.488-0.082 0.734-0.012 0.243-8e-3 0.489 0.015 0.731 0.02 0.242 0.059 0.48 0.114 0.715 0.05 0.238 0.125 0.468 0.211 0.691 0.082 0.223 0.183 0.434 0.297 0.645z" fill="#ffd179"/>
   <path d="m140.76 55.285c0.929 1.859 0.465 4.183-0.465 5.574-0.207-0.207-0.414-0.41-0.625-0.61 0.09-0.187 0.18-0.382 0.25-0.589 0.082-0.219 0.148-0.45 0.207-0.688 0.055-0.234 0.101-0.477 0.129-0.727 0.027-0.246 0.043-0.496 0.039-0.746 0-0.254-0.016-0.504-0.055-0.757-0.035-0.25-0.09-0.497-0.164-0.743-0.074-0.242-0.168-0.48-0.285-0.714z" fill="#fbb227"/>
   <path d="m134.26 58.535h0.93v-0.926h-0.93z" fill="#cf2f25"/>
   <path d="m134.26 57.144h0.93v-0.93h-0.93z" fill="#47d58a"/>
  </g>
  <g transform="matrix(.13891 -.51003 -.51003 -.13891 437.08 296.81)">
   <path d="m133.62 54.82h6.844c0.117 0.164 0.222 0.32 0.293 0.465h-7.43c0.07-0.145 0.176-0.301 0.293-0.465z" fill="#a96f00"/>
   <path d="m134.52 53.894h5.047c0.371 0.289 0.672 0.613 0.899 0.926h-6.844c0.223-0.313 0.527-0.637 0.898-0.926z" fill="#fbb227"/>
   <path d="m138.84 53.429c0.262 0.137 0.512 0.289 0.734 0.465h-5.047c0.219-0.176 0.473-0.328 0.735-0.465z" fill="#ffd179"/>
   <path d="m138.84 53.429h-3.578c0.523-0.277 1.121-0.465 1.789-0.465s1.266 0.188 1.789 0.465z" fill="#ffd179"/>
   <path d="m136.12 61.582 1.848-0.01138-0.0111-3.0352-1.844 0.01628z" fill="#535e70"/>
   <path d="m136.58 55.285v3.757c-0.848 0.133-1.519 0.618-2.144 1.196-0.114-0.211-0.5-0.426-0.586-0.645-0.086-0.226-0.157-0.457-0.211-0.691-0.055-0.235-0.09-0.477-0.114-0.715-0.019-0.242-0.027-0.488-0.015-0.735 0.011-0.242 0.039-0.488 0.086-0.73 0.047-0.246 0.109-0.488 0.187-0.73 0.028-0.082 0.07-0.161 0.102-0.243 0.062-0.156 0.406-0.312 0.484-0.464z" fill="#fbb227"/>
   <path d="m137.51 55.285v3.757c-0.153-0.023-0.305-0.039-0.465-0.039s-0.317 0.016-0.465 0.039v-3.757z" fill="#a96f00"/>
   <path d="m139.79 55.285c0.227 0.277 0.43 0.691 0.504 0.929 0.074 0.242 0.129 0.492 0.168 0.742 0.035 0.25 0.109 0.305 0.113 0.559 0 0.25 0.027 0.496 0 0.742-0.031 0.246-0.176 0.692-0.23 0.93-0.055 0.238-0.125 0.465-0.203 0.687-0.075 0.207-0.383 0.188-0.473 0.375-0.629-0.582-1.309-1.07-2.16-1.207v-3.757z" fill="#fbb227"/>
   <path d="m138.44 58.999h1.855v-3.25h-1.855z" fill="#a96f00"/>
   <path d="m133.79 58.999h1.859v-3.25h-1.859z" fill="#2f3744"/>
   <path d="m134.44 60.238c-0.219 0.199-0.43 0.41-0.645 0.621-1.164-1.555-1.391-3.715-0.461-5.574h1.039c-0.117 0.234-0.219 0.468-0.297 0.71-0.082 0.239-0.144 0.485-0.191 0.727-0.043 0.246-0.07 0.488-0.082 0.734-0.012 0.243-8e-3 0.489 0.015 0.731 0.02 0.242 0.059 0.48 0.114 0.715 0.05 0.238 0.125 0.468 0.211 0.691 0.082 0.223 0.183 0.434 0.297 0.645z" fill="#ffd179"/>
   <path d="m140.76 55.285c0.929 1.859 0.465 4.183-0.465 5.574-0.207-0.207-0.414-0.41-0.625-0.61 0.09-0.187 0.18-0.382 0.25-0.589 0.082-0.219 0.148-0.45 0.207-0.688 0.055-0.234 0.101-0.477 0.129-0.727 0.027-0.246 0.043-0.496 0.039-0.746 0-0.254-0.016-0.504-0.055-0.757-0.035-0.25-0.09-0.497-0.164-0.743-0.074-0.242-0.168-0.48-0.285-0.714z" fill="#fbb227"/>
   <path d="m134.26 58.535h0.93v-0.926h-0.93z" fill="#cf2f25"/>
   <path d="m134.26 57.144h0.93v-0.93h-0.93z" fill="#47d58a"/>
  </g>
  <g transform="matrix(.26618 -.45669 -.45669 -.26618 424.52 296.79)">
   <path d="m133.62 54.82h6.844c0.117 0.164 0.222 0.32 0.293 0.465h-7.43c0.07-0.145 0.176-0.301 0.293-0.465z" fill="#a96f00"/>
   <path d="m134.52 53.894h5.047c0.371 0.289 0.672 0.613 0.899 0.926h-6.844c0.223-0.313 0.527-0.637 0.898-0.926z" fill="#fbb227"/>
   <path d="m138.84 53.429c0.262 0.137 0.512 0.289 0.734 0.465h-5.047c0.219-0.176 0.473-0.328 0.735-0.465z" fill="#ffd179"/>
   <path d="m138.84 53.429h-3.578c0.523-0.277 1.121-0.465 1.789-0.465s1.266 0.188 1.789 0.465z" fill="#ffd179"/>
   <path d="m136.12 61.582 1.848-0.01138-0.0111-3.0352-1.844 0.01628z" fill="#535e70"/>
   <path d="m136.58 55.285v3.757c-0.848 0.133-1.519 0.618-2.144 1.196-0.114-0.211-0.5-0.426-0.586-0.645-0.086-0.226-0.157-0.457-0.211-0.691-0.055-0.235-0.09-0.477-0.114-0.715-0.019-0.242-0.027-0.488-0.015-0.735 0.011-0.242 0.039-0.488 0.086-0.73 0.047-0.246 0.109-0.488 0.187-0.73 0.028-0.082 0.07-0.161 0.102-0.243 0.062-0.156 0.406-0.312 0.484-0.464z" fill="#fbb227"/>
   <path d="m137.51 55.285v3.757c-0.153-0.023-0.305-0.039-0.465-0.039s-0.317 0.016-0.465 0.039v-3.757z" fill="#a96f00"/>
   <path d="m139.79 55.285c0.227 0.277 0.43 0.691 0.504 0.929 0.074 0.242 0.129 0.492 0.168 0.742 0.035 0.25 0.109 0.305 0.113 0.559 0 0.25 0.027 0.496 0 0.742-0.031 0.246-0.176 0.692-0.23 0.93-0.055 0.238-0.125 0.465-0.203 0.687-0.075 0.207-0.383 0.188-0.473 0.375-0.629-0.582-1.309-1.07-2.16-1.207v-3.757z" fill="#fbb227"/>
   <path d="m138.44 58.999h1.855v-3.25h-1.855z" fill="#a96f00"/>
   <path d="m133.79 58.999h1.859v-3.25h-1.859z" fill="#2f3744"/>
   <path d="m134.44 60.238c-0.219 0.199-0.43 0.41-0.645 0.621-1.164-1.555-1.391-3.715-0.461-5.574h1.039c-0.117 0.234-0.219 0.468-0.297 0.71-0.082 0.239-0.144 0.485-0.191 0.727-0.043 0.246-0.07 0.488-0.082 0.734-0.012 0.243-8e-3 0.489 0.015 0.731 0.02 0.242 0.059 0.48 0.114 0.715 0.05 0.238 0.125 0.468 0.211 0.691 0.082 0.223 0.183 0.434 0.297 0.645z" fill="#ffd179"/>
   <path d="m140.76 55.285c0.929 1.859 0.465 4.183-0.465 5.574-0.207-0.207-0.414-0.41-0.625-0.61 0.09-0.187 0.18-0.382 0.25-0.589 0.082-0.219 0.148-0.45 0.207-0.688 0.055-0.234 0.101-0.477 0.129-0.727 0.027-0.246 0.043-0.496 0.039-0.746 0-0.254-0.016-0.504-0.055-0.757-0.035-0.25-0.09-0.497-0.164-0.743-0.074-0.242-0.168-0.48-0.285-0.714z" fill="#fbb227"/>
   <path d="m134.26 58.535h0.93v-0.926h-0.93z" fill="#cf2f25"/>
   <path d="m134.26 57.144h0.93v-0.93h-0.93z" fill="#47d58a"/>
  </g>
  <g transform="matrix(.42069 -.32007 -.32007 -.42069 403.46 286.92)">
   <path d="m133.62 54.82h6.844c0.117 0.164 0.222 0.32 0.293 0.465h-7.43c0.07-0.145 0.176-0.301 0.293-0.465z" fill="#a96f00"/>
   <path d="m134.52 53.894h5.047c0.371 0.289 0.672 0.613 0.899 0.926h-6.844c0.223-0.313 0.527-0.637 0.898-0.926z" fill="#fbb227"/>
   <path d="m138.84 53.429c0.262 0.137 0.512 0.289 0.734 0.465h-5.047c0.219-0.176 0.473-0.328 0.735-0.465z" fill="#ffd179"/>
   <path d="m138.84 53.429h-3.578c0.523-0.277 1.121-0.465 1.789-0.465s1.266 0.188 1.789 0.465z" fill="#ffd179"/>
   <path d="m136.12 61.582 1.848-0.01138-0.0111-3.0352-1.844 0.01628z" fill="#535e70"/>
   <path d="m136.58 55.285v3.757c-0.848 0.133-1.519 0.618-2.144 1.196-0.114-0.211-0.5-0.426-0.586-0.645-0.086-0.226-0.157-0.457-0.211-0.691-0.055-0.235-0.09-0.477-0.114-0.715-0.019-0.242-0.027-0.488-0.015-0.735 0.011-0.242 0.039-0.488 0.086-0.73 0.047-0.246 0.109-0.488 0.187-0.73 0.028-0.082 0.07-0.161 0.102-0.243 0.062-0.156 0.406-0.312 0.484-0.464z" fill="#fbb227"/>
   <path d="m137.51 55.285v3.757c-0.153-0.023-0.305-0.039-0.465-0.039s-0.317 0.016-0.465 0.039v-3.757z" fill="#a96f00"/>
   <path d="m139.79 55.285c0.227 0.277 0.43 0.691 0.504 0.929 0.074 0.242 0.129 0.492 0.168 0.742 0.035 0.25 0.109 0.305 0.113 0.559 0 0.25 0.027 0.496 0 0.742-0.031 0.246-0.176 0.692-0.23 0.93-0.055 0.238-0.125 0.465-0.203 0.687-0.075 0.207-0.383 0.188-0.473 0.375-0.629-0.582-1.309-1.07-2.16-1.207v-3.757z" fill="#fbb227"/>
   <path d="m138.44 58.999h1.855v-3.25h-1.855z" fill="#a96f00"/>
   <path d="m133.79 58.999h1.859v-3.25h-1.859z" fill="#2f3744"/>
   <path d="m134.44 60.238c-0.219 0.199-0.43 0.41-0.645 0.621-1.164-1.555-1.391-3.715-0.461-5.574h1.039c-0.117 0.234-0.219 0.468-0.297 0.71-0.082 0.239-0.144 0.485-0.191 0.727-0.043 0.246-0.07 0.488-0.082 0.734-0.012 0.243-8e-3 0.489 0.015 0.731 0.02 0.242 0.059 0.48 0.114 0.715 0.05 0.238 0.125 0.468 0.211 0.691 0.082 0.223 0.183 0.434 0.297 0.645z" fill="#ffd179"/>
   <path d="m140.76 55.285c0.929 1.859 0.465 4.183-0.465 5.574-0.207-0.207-0.414-0.41-0.625-0.61 0.09-0.187 0.18-0.382 0.25-0.589 0.082-0.219 0.148-0.45 0.207-0.688 0.055-0.234 0.101-0.477 0.129-0.727 0.027-0.246 0.043-0.496 0.039-0.746 0-0.254-0.016-0.504-0.055-0.757-0.035-0.25-0.09-0.497-0.164-0.743-0.074-0.242-0.168-0.48-0.285-0.714z" fill="#fbb227"/>
   <path d="m134.26 58.535h0.93v-0.926h-0.93z" fill="#cf2f25"/>
   <path d="m134.26 57.144h0.93v-0.93h-0.93z" fill="#47d58a"/>
  </g>
 </g>
</svg>
