<svg width="99.456mm" height="35.278mm" version="1.1" viewBox="0 0 99.456 35.278" xmlns="http://www.w3.org/2000/svg">
 <g transform="translate(-344.18 -220.43)">
  <g fill="none" stroke="#a6aeb8" stroke-linecap="square" stroke-width=".26458">
   <path d="m356.2 254.49h87.312" style="paint-order:normal"/>
   <path d="m356.2 253.83v1.3229" style="paint-order:normal"/>
   <path d="m364.13 253.83v1.3229" style="paint-order:normal"/>
   <path d="m372.07 253.83v1.3229" style="paint-order:normal"/>
   <path d="m380.01 253.83v1.3229" style="paint-order:normal"/>
   <path d="m387.95 253.83v1.3229" style="paint-order:normal"/>
   <path d="m395.88 253.83v1.3229" style="paint-order:normal"/>
   <path d="m403.82 253.83v1.3229" style="paint-order:normal"/>
   <path d="m411.76 253.83v1.3229" style="paint-order:normal"/>
   <path d="m419.7 253.83v1.3229" style="paint-order:normal"/>
   <path d="m427.63 253.83v1.3229" style="paint-order:normal"/>
   <path d="m435.57 253.83v1.3229" style="paint-order:normal"/>
   <path d="m443.51 253.83v1.3229" style="paint-order:normal"/>
  </g>
  <rect transform="rotate(-90)" x="-247.87" y="356.2" width="7.9375" height="87.312" fill="#1d232d" stroke="#a6aeb8" stroke-linecap="round" stroke-width=".13229"/>
  <g fill="none" stroke="#a6aeb8" stroke-linecap="square" stroke-width=".13229">
   <path d="m364.13 247.87v-7.9375" style="paint-order:normal"/>
   <path d="m372.07 247.87v-7.9375" style="paint-order:normal"/>
   <path d="m380.01 247.87v-7.9375" style="paint-order:normal"/>
   <path d="m387.95 247.87v-7.9375" style="paint-order:normal"/>
   <path d="m395.88 247.87v-7.9375" style="paint-order:normal"/>
   <path d="m403.82 247.87v-7.9375" style="paint-order:normal"/>
   <path d="m411.76 247.87v-7.9375" style="paint-order:normal"/>
   <path d="m419.7 247.87v-7.9375" style="paint-order:normal"/>
   <path d="m427.63 247.87v-7.9375" style="paint-order:normal"/>
   <path d="m435.57 247.87v-7.9375" style="paint-order:normal"/>
  </g>
  <g fill="#e8eaec" stroke-linecap="round" stroke-width=".26458">
   <g aria-label="Time">
    <path d="m347.36 255.53h0.30745v-2.1706h0.73713v-0.25929h-1.7817v0.25929h0.73712z"/>
    <path d="m348.96 253.36c0.11853 0 0.21113-0.0815 0.21113-0.19632 0-0.11853-0.0926-0.19632-0.21113-0.19632-0.11854 0-0.21114 0.0778-0.21114 0.19632 0 0.11483 0.0926 0.19632 0.21114 0.19632zm-0.15558 2.1706h0.30374v-1.8002h-0.30374z"/>
    <path d="m349.72 255.53h0.30375v-1.3039c0.16668-0.18521 0.31855-0.27782 0.4519-0.27782 0.22966 0 0.33708 0.14447 0.33708 0.48155v1.1001h0.30374v-1.3039c0.16669-0.18521 0.31115-0.27782 0.45191-0.27782 0.22596 0 0.33338 0.14447 0.33338 0.48155v1.1001h0.30374v-1.1409c0-0.45932-0.1778-0.70379-0.54822-0.70379-0.21854 0-0.40375 0.14076-0.59266 0.34449-0.0741-0.21485-0.22225-0.34449-0.49636-0.34449-0.21484 0-0.40376 0.13335-0.55933 0.30374h-0.0111l-0.0259-0.25929h-0.25189z"/>
    <path d="m352.65 254.63c0 0.58896 0.38153 0.94085 0.86307 0.94085 0.24447 0 0.43709-0.0852 0.59266-0.1852l-0.10742-0.20003c-0.13335 0.0852-0.27781 0.14076-0.4482 0.14076-0.34449 0-0.57785-0.24448-0.60008-0.63341h1.215c7e-3 -0.0444 0.0111-0.10372 0.0111-0.16669 0-0.51488-0.25929-0.84455-0.7186-0.84455-0.41117 0-0.80751 0.3593-0.80751 0.94827zm0.29633-0.13706c0.037-0.36301 0.2667-0.57044 0.51858-0.57044 0.28152 0 0.4445 0.20373 0.4445 0.57044z"/>
   </g>
   <g aria-label="Server">
    <path d="m344.32 244.89c0.21114 0.21854 0.50747 0.3593 0.84826 0.3593 0.51117 0 0.82973-0.30744 0.82973-0.69268 0-0.3593-0.21855-0.52599-0.50006-0.64823l-0.3482-0.14816c-0.18891-0.0815-0.40375-0.17039-0.40375-0.40376 0-0.21854 0.1815-0.3556 0.45561-0.3556 0.22225 0 0.40376 0.0889 0.55192 0.22966l0.16299-0.20002c-0.17039-0.1778-0.42598-0.30004-0.71491-0.30004-0.44079 0-0.76676 0.27411-0.76676 0.64452 0 0.3556 0.2667 0.5297 0.49265 0.62601l0.3482 0.15187c0.22965 0.10372 0.40745 0.1815 0.40745 0.42968 0 0.23707-0.18891 0.39635-0.50747 0.39635-0.25558 0-0.49635-0.12224-0.67045-0.30374z"/>
    <path d="m346.3 244.31c0 0.58897 0.38153 0.94086 0.86307 0.94086 0.24448 0 0.43709-0.0852 0.59267-0.18521l-0.10742-0.20002c-0.13335 0.0852-0.27782 0.14076-0.44821 0.14076-0.34449 0-0.57785-0.24448-0.60007-0.63341h1.215c7e-3 -0.0445 0.0111-0.10372 0.0111-0.16669 0-0.51488-0.2593-0.84455-0.71861-0.84455-0.41116 0-0.80751 0.3593-0.80751 0.94826zm0.29633-0.13705c0.037-0.36301 0.2667-0.57044 0.51859-0.57044 0.28151 0 0.4445 0.20373 0.4445 0.57044z"/>
    <path d="m348.27 245.21h0.30375v-1.1557c0.12223-0.30374 0.30374-0.41486 0.45561-0.41486 0.0741 0 0.11483 0.0111 0.17409 0.0296l0.0593-0.2667c-0.0593-0.0259-0.11483-0.037-0.19262-0.037-0.20373 0-0.38893 0.14446-0.51117 0.37041h-0.0111l-0.0259-0.32596h-0.25189z"/>
    <path d="m350.02 245.21h0.3556l0.63711-1.8002h-0.30004l-0.34078 1.0224c-0.0519 0.1778-0.11112 0.3593-0.16298 0.52969h-0.0148c-0.0556-0.17039-0.11483-0.35189-0.16669-0.52969l-0.34078-1.0224h-0.31485z"/>
    <path d="m351.21 244.31c0 0.58897 0.38153 0.94086 0.86307 0.94086 0.24448 0 0.43709-0.0852 0.59267-0.18521l-0.10742-0.20002c-0.13335 0.0852-0.27781 0.14076-0.44821 0.14076-0.34448 0-0.57785-0.24448-0.60007-0.63341h1.215c7e-3 -0.0445 0.0111-0.10372 0.0111-0.16669 0-0.51488-0.25929-0.84455-0.71861-0.84455-0.41116 0-0.80751 0.3593-0.80751 0.94826zm0.29633-0.13705c0.037-0.36301 0.2667-0.57044 0.51859-0.57044 0.28151 0 0.4445 0.20373 0.4445 0.57044z"/>
    <path d="m353.18 245.21h0.30374v-1.1557c0.12223-0.30374 0.30374-0.41486 0.45561-0.41486 0.0741 0 0.11483 0.0111 0.1741 0.0296l0.0593-0.2667c-0.0593-0.0259-0.11483-0.037-0.19261-0.037-0.20373 0-0.38894 0.14446-0.51118 0.37041h-0.0111l-0.0259-0.32596h-0.25188z"/>
   </g>
   <g aria-label="Client">
    <path d="m345.33 228.12c0 0.79269 0.45561 1.2594 1.0668 1.2594 0.30745 0 0.54822-0.12964 0.73713-0.35189l-0.1741-0.18892c-0.15557 0.1741-0.32596 0.27041-0.55562 0.27041-0.46302 0-0.75565-0.38523-0.75565-0.99642 0-0.60378 0.30745-0.98161 0.77047-0.98161 0.20002 0 0.3556 0.0889 0.48524 0.22596l0.1741-0.19632c-0.14446-0.15928-0.37412-0.30004-0.66305-0.30004-0.6223 0-1.0853 0.47784-1.0853 1.2594z"/>
    <path d="m347.55 228.97c0 0.263 0.0926 0.40746 0.32226 0.40746 0.0815 0 0.13335-0.0111 0.1741-0.0296l-0.0408-0.22966c-0.0333 7e-3 -0.0481 7e-3 -0.0667 7e-3 -0.0444 0-0.0852-0.037-0.0852-0.13335v-2.2966h-0.30374z"/>
    <path d="m348.66 227.16c0.11854 0 0.21114-0.0815 0.21114-0.19632 0-0.11853-0.0926-0.19632-0.21114-0.19632-0.11853 0-0.21113 0.0778-0.21113 0.19632 0 0.11483 0.0926 0.19632 0.21113 0.19632zm-0.15557 2.1706h0.30374v-1.8002h-0.30374z"/>
    <path d="m349.28 228.44c0 0.58897 0.38153 0.94086 0.86307 0.94086 0.24448 0 0.43709-0.0852 0.59267-0.18521l-0.10742-0.20002c-0.13335 0.0852-0.27782 0.14076-0.44821 0.14076-0.34448 0-0.57785-0.24448-0.60007-0.63341h1.215c7e-3 -0.0445 0.0111-0.10372 0.0111-0.16669 0-0.51488-0.25929-0.84455-0.71861-0.84455-0.41116 0-0.80751 0.3593-0.80751 0.94826zm0.29633-0.13705c0.0371-0.36301 0.2667-0.57044 0.51859-0.57044 0.28151 0 0.4445 0.20373 0.4445 0.57044z"/>
    <path d="m351.25 229.33h0.30375v-1.3039c0.1815-0.18151 0.30744-0.27782 0.49265-0.27782 0.23707 0 0.34078 0.14447 0.34078 0.48155v1.1001h0.30375v-1.1409c0-0.45932-0.1704-0.70379-0.54822-0.70379-0.24818 0-0.43339 0.13335-0.60378 0.30374h-0.0111l-0.0259-0.25929h-0.25189z"/>
    <path d="m353.33 228.78c0 0.3556 0.12964 0.60007 0.51488 0.60007 0.11112 0 0.23336-0.0333 0.33337-0.0667l-0.0593-0.22966c-0.0593 0.0222-0.14076 0.0481-0.20373 0.0481-0.20744 0-0.27782-0.12594-0.27782-0.34819v-1.0001h0.48525v-0.24818h-0.48525v-0.50369h-0.25558l-0.037 0.50377-0.28152 0.0185v0.22966h0.2667z"/>
   </g>
  </g>
  <rect transform="rotate(-90)" x="-232" y="356.2" width="7.9375" height="87.312" fill="#1d232d" stroke="#a6aeb8" stroke-linecap="round" stroke-width=".13229"/>
  <g fill="none" stroke="#a6aeb8" stroke-linecap="square" stroke-width=".13229">
   <path d="m364.13 232v-7.9375" style="paint-order:normal"/>
   <path d="m372.07 232v-7.9375" style="paint-order:normal"/>
   <path d="m380.01 232v-7.9375" style="paint-order:normal"/>
   <path d="m387.95 232v-7.9375" style="paint-order:normal"/>
   <path d="m395.88 232v-7.9375" style="paint-order:normal"/>
   <path d="m403.82 232v-7.9375" style="paint-order:normal"/>
   <path d="m411.76 232v-7.9375" style="paint-order:normal"/>
   <path d="m419.7 232v-7.9375" style="paint-order:normal"/>
   <path d="m427.63 232v-7.9375" style="paint-order:normal"/>
   <path d="m435.57 232v-7.9375" style="paint-order:normal"/>
  </g>
  <g fill="#d2d6dc" stroke-width=".28222px">
   <g opacity=".91" aria-label="0°">
    <path d="m359.83 249.65c-0.31432 0-0.63817 0.38735-0.63817 1.0192 0 0.64135 0.32702 1.0096 0.64135 1.0096 0.28575 0 0.62547-0.31115 0.62547-0.99377 0-0.6731-0.32385-1.035-0.62865-1.035zm0.30798 0.45402-0.69533 0.9017c-0.0286-0.11112-0.0444-0.23495-0.0444-0.37465 0-0.508 0.23178-0.7874 0.42863-0.7874 0.10795 0 0.22542 0.0857 0.31115 0.26035zm0.073 0.20955c0.0286 0.11113 0.0413 0.24448 0.0413 0.40005 0 0.55245-0.23813 0.762-0.41275 0.762-0.11748 0-0.23813-0.0952-0.32385-0.26987z"/>
    <path d="m361.85 250.04c0-0.23495-0.1905-0.42545-0.42863-0.42545-0.23495 0-0.42862 0.1905-0.42862 0.42545s0.19367 0.42545 0.42862 0.42545c0.23813 0 0.42863-0.1905 0.42863-0.42545zm-0.42545-0.25717c0.13017 0 0.23812 0.11112 0.23812 0.254 0 0.14287-0.10795 0.254-0.23812 0.254-0.127 0-0.23495-0.11113-0.23495-0.254 0-0.14288 0.10795-0.254 0.23495-0.254z"/>
   </g>
   <g opacity=".91" aria-label="20°">
    <path d="m366.42 249.97 0.16193 0.13018c0.019-0.0286 0.01-0.0476 0.0286-0.073 0.0476-0.073 0.1651-0.18097 0.33655-0.18097 0.21273 0 0.381 0.16192 0.381 0.37465 0 0.2413-0.2032 0.41592-0.34607 0.5461-0.22543 0.2032-0.40958 0.4064-0.57468 0.73342v0.1397h1.162v-0.21907c-0.0222-0.01-0.0381 6e-3 -0.0444 0.0127-0.0127 0.0127-0.019 0.0127-0.0317 0.0127h-0.83185c0.1651-0.28575 0.39688-0.4826 0.53975-0.61595 0.14288-0.13653 0.34608-0.33973 0.34608-0.62548 0-0.30797-0.25083-0.55562-0.5715-0.55562-0.22543 0-0.43815 0.12065-0.55563 0.32067z"/>
    <path d="m368.56 249.65c-0.31432 0-0.63817 0.38735-0.63817 1.0192 0 0.64135 0.32702 1.0096 0.64135 1.0096 0.28575 0 0.62547-0.31115 0.62547-0.99377 0-0.6731-0.32385-1.035-0.62865-1.035zm0.30798 0.45402-0.69533 0.9017c-0.0286-0.11112-0.0444-0.23495-0.0444-0.37465 0-0.508 0.23178-0.7874 0.42863-0.7874 0.10795 0 0.22542 0.0857 0.31115 0.26035zm0.073 0.20955c0.0286 0.11113 0.0413 0.24448 0.0413 0.40005 0 0.55245-0.23813 0.762-0.41275 0.762-0.11748 0-0.23813-0.0952-0.32385-0.26987z"/>
    <path d="m370.59 250.04c0-0.23495-0.1905-0.42545-0.42863-0.42545-0.23495 0-0.42862 0.1905-0.42862 0.42545s0.19367 0.42545 0.42862 0.42545c0.23813 0 0.42863-0.1905 0.42863-0.42545zm-0.42545-0.25717c0.13017 0 0.23812 0.11112 0.23812 0.254 0 0.14287-0.10795 0.254-0.23812 0.254-0.127 0-0.23495-0.11113-0.23495-0.254 0-0.14288 0.10795-0.254 0.23495-0.254z"/>
   </g>
   <g opacity=".91" aria-label="40°">
    <path d="m375.1 249.66-0.84137 1.2668v0.1651h0.79692v0.5461h0.2286v-0.54292h0.25718v-0.19685h-0.25718v-1.2382zm-0.0413 0.35242v0.88583h-0.58103z"/>
    <path d="m376.49 249.65c-0.31432 0-0.63817 0.38735-0.63817 1.0192 0 0.64135 0.32702 1.0096 0.64135 1.0096 0.28575 0 0.62547-0.31115 0.62547-0.99377 0-0.6731-0.32385-1.035-0.62865-1.035zm0.30798 0.45402-0.69533 0.9017c-0.0286-0.11112-0.0444-0.23495-0.0444-0.37465 0-0.508 0.23178-0.7874 0.42863-0.7874 0.10795 0 0.22542 0.0857 0.31115 0.26035zm0.073 0.20955c0.0286 0.11113 0.0413 0.24448 0.0413 0.40005 0 0.55245-0.23813 0.762-0.41275 0.762-0.11748 0-0.23813-0.0952-0.32385-0.26987z"/>
    <path d="m378.52 250.04c0-0.23495-0.1905-0.42545-0.42863-0.42545-0.23495 0-0.42862 0.1905-0.42862 0.42545s0.19367 0.42545 0.42862 0.42545c0.23813 0 0.42863-0.1905 0.42863-0.42545zm-0.42545-0.25717c0.13017 0 0.23812 0.11112 0.23812 0.254 0 0.14287-0.10795 0.254-0.23812 0.254-0.127 0-0.23495-0.11113-0.23495-0.254 0-0.14288 0.10795-0.254 0.23495-0.254z"/>
   </g>
   <g opacity=".91" aria-label="60°">
    <path d="m382.96 249.64c-0.23812 0-0.49212 0.14605-0.61595 0.49213-0.0667 0.18732-0.0826 0.4191-0.0826 0.6096 0 0.23177 0.0222 0.47942 0.14923 0.66992 0.1143 0.17463 0.2921 0.26353 0.46672 0.26353 0.30163 0 0.56515-0.254 0.56515-0.66358 0-0.40957-0.26352-0.6477-0.54292-0.6477-0.17145 0-0.33338 0.0921-0.4191 0.23813 0.0127-0.67628 0.33655-0.76518 0.47942-0.76518 0.13018 0 0.21908 0.0699 0.23178 0.0825 0.019 0.0222 0.019 0.0508 0.0476 0.073l0.1524-0.17145c-0.1143-0.1143-0.27305-0.18098-0.4318-0.18098zm-0.0825 0.92075c0.15875 0 0.34925 0.12383 0.34925 0.46355 0 0.30798-0.17145 0.45403-0.33972 0.45403-0.2413 0-0.42228-0.28258-0.39688-0.65405 0.0889-0.16193 0.2413-0.26353 0.38735-0.26353z"/>
    <path d="m384.43 249.65c-0.31432 0-0.63817 0.38735-0.63817 1.0192 0 0.64135 0.32702 1.0096 0.64135 1.0096 0.28575 0 0.62547-0.31115 0.62547-0.99377 0-0.6731-0.32385-1.035-0.62865-1.035zm0.30798 0.45402-0.69533 0.9017c-0.0286-0.11112-0.0444-0.23495-0.0444-0.37465 0-0.508 0.23178-0.7874 0.42863-0.7874 0.10795 0 0.22542 0.0857 0.31115 0.26035zm0.073 0.20955c0.0286 0.11113 0.0413 0.24448 0.0413 0.40005 0 0.55245-0.23813 0.762-0.41275 0.762-0.11748 0-0.23813-0.0952-0.32385-0.26987z"/>
    <path d="m386.46 250.04c0-0.23495-0.1905-0.42545-0.42863-0.42545-0.23495 0-0.42862 0.1905-0.42862 0.42545s0.19367 0.42545 0.42862 0.42545c0.23813 0 0.42863-0.1905 0.42863-0.42545zm-0.42545-0.25717c0.13017 0 0.23812 0.11112 0.23812 0.254 0 0.14287-0.10795 0.254-0.23812 0.254-0.127 0-0.23495-0.11113-0.23495-0.254 0-0.14288 0.10795-0.254 0.23495-0.254z"/>
   </g>
   <g opacity=".91" aria-label="80°">
    <path d="m390.8 249.64c-0.3048 0-0.53658 0.21908-0.53658 0.48578 0 0.19367 0.12383 0.37147 0.30163 0.46355-0.23495 0.11112-0.3937 0.32702-0.3937 0.55562 0 0.29528 0.26035 0.53023 0.60007 0.53023 0.34608 0 0.6096-0.2413 0.6096-0.54293 0-0.23495-0.15875-0.4445-0.381-0.54927 0.1905-0.0984 0.31433-0.28575 0.31433-0.47625 0-0.26035-0.22543-0.46673-0.51435-0.46673zm-0.0667 1.0414c0.254 0.0794 0.42228 0.254 0.42228 0.44768 0 0.1905-0.16193 0.34607-0.37465 0.34607-0.2159 0-0.381-0.16192-0.381-0.35877 0-0.18733 0.14605-0.35878 0.33337-0.43498zm0.0476-0.85725c0.1778 0 0.3175 0.13335 0.3175 0.29845 0 0.1524-0.11748 0.29845-0.27305 0.381 0 0-0.34925-0.13335-0.34925-0.39687 0-0.15558 0.13335-0.28258 0.3048-0.28258z"/>
    <path d="m392.37 249.65c-0.31432 0-0.63817 0.38735-0.63817 1.0192 0 0.64135 0.32702 1.0096 0.64135 1.0096 0.28575 0 0.62547-0.31115 0.62547-0.99377 0-0.6731-0.32385-1.035-0.62865-1.035zm0.30798 0.45402-0.69533 0.9017c-0.0286-0.11112-0.0444-0.23495-0.0444-0.37465 0-0.508 0.23178-0.7874 0.42863-0.7874 0.10795 0 0.22542 0.0857 0.31115 0.26035zm0.073 0.20955c0.0286 0.11113 0.0413 0.24448 0.0413 0.40005 0 0.55245-0.23813 0.762-0.41275 0.762-0.11748 0-0.23813-0.0952-0.32385-0.26987z"/>
    <path d="m394.4 250.04c0-0.23495-0.1905-0.42545-0.42863-0.42545-0.23495 0-0.42862 0.1905-0.42862 0.42545s0.19367 0.42545 0.42862 0.42545c0.23813 0 0.42863-0.1905 0.42863-0.42545zm-0.42545-0.25717c0.13017 0 0.23812 0.11112 0.23812 0.254 0 0.14287-0.10795 0.254-0.23812 0.254-0.127 0-0.23495-0.11113-0.23495-0.254 0-0.14288 0.10795-0.254 0.23495-0.254z"/>
   </g>
   <g opacity=".91" aria-label="100°">
    <path d="m398.07 249.66h-0.14605l-0.508 0.26352 0.0508 0.12383 0.3937-0.11113v1.5304h-0.3683v0.17463h0.93345v-0.17463h-0.3556z"/>
    <path d="m399.51 249.65c-0.31432 0-0.63817 0.38735-0.63817 1.0192 0 0.64135 0.32702 1.0096 0.64135 1.0096 0.28575 0 0.62547-0.31115 0.62547-0.99377 0-0.6731-0.32385-1.035-0.62865-1.035zm0.30798 0.45402-0.69533 0.9017c-0.0286-0.11112-0.0444-0.23495-0.0444-0.37465 0-0.508 0.23178-0.7874 0.42863-0.7874 0.10795 0 0.22542 0.0857 0.31115 0.26035zm0.073 0.20955c0.0286 0.11113 0.0413 0.24448 0.0413 0.40005 0 0.55245-0.23813 0.762-0.41275 0.762-0.11748 0-0.23813-0.0952-0.32385-0.26987z"/>
    <path d="m401.1 249.65c-0.31432 0-0.63817 0.38735-0.63817 1.0192 0 0.64135 0.32702 1.0096 0.64135 1.0096 0.28575 0 0.62547-0.31115 0.62547-0.99377 0-0.6731-0.32385-1.035-0.62865-1.035zm0.30798 0.45402-0.69533 0.9017c-0.0286-0.11112-0.0444-0.23495-0.0444-0.37465 0-0.508 0.23178-0.7874 0.42863-0.7874 0.10795 0 0.22542 0.0857 0.31115 0.26035zm0.073 0.20955c0.0286 0.11113 0.0413 0.24448 0.0413 0.40005 0 0.55245-0.23813 0.762-0.41275 0.762-0.11748 0-0.23813-0.0952-0.32385-0.26987z"/>
    <path d="m403.13 250.04c0-0.23495-0.1905-0.42545-0.42863-0.42545-0.23495 0-0.42862 0.1905-0.42862 0.42545s0.19367 0.42545 0.42862 0.42545c0.23813 0 0.42863-0.1905 0.42863-0.42545zm-0.42545-0.25717c0.13017 0 0.23812 0.11112 0.23812 0.254 0 0.14287-0.10795 0.254-0.23812 0.254-0.127 0-0.23495-0.11113-0.23495-0.254 0-0.14288 0.10795-0.254 0.23495-0.254z"/>
   </g>
   <g opacity=".91" aria-label="120°">
    <path d="m406.01 249.66h-0.14605l-0.508 0.26352 0.0508 0.12383 0.3937-0.11113v1.5304h-0.3683v0.17463h0.93345v-0.17463h-0.3556z"/>
    <path d="m406.9 249.97 0.16193 0.13018c0.019-0.0286 0.01-0.0476 0.0286-0.073 0.0476-0.073 0.1651-0.18097 0.33655-0.18097 0.21273 0 0.381 0.16192 0.381 0.37465 0 0.2413-0.2032 0.41592-0.34607 0.5461-0.22543 0.2032-0.40958 0.4064-0.57468 0.73342v0.1397h1.162v-0.21907c-0.0222-0.01-0.0381 6e-3 -0.0444 0.0127-0.0127 0.0127-0.019 0.0127-0.0317 0.0127h-0.83185c0.1651-0.28575 0.39688-0.4826 0.53975-0.61595 0.14288-0.13653 0.34608-0.33973 0.34608-0.62548 0-0.30797-0.25083-0.55562-0.5715-0.55562-0.22543 0-0.43815 0.12065-0.55563 0.32067z"/>
    <path d="m409.04 249.65c-0.31432 0-0.63817 0.38735-0.63817 1.0192 0 0.64135 0.32702 1.0096 0.64135 1.0096 0.28575 0 0.62547-0.31115 0.62547-0.99377 0-0.6731-0.32385-1.035-0.62865-1.035zm0.30798 0.45402-0.69533 0.9017c-0.0286-0.11112-0.0444-0.23495-0.0444-0.37465 0-0.508 0.23178-0.7874 0.42863-0.7874 0.10795 0 0.22542 0.0857 0.31115 0.26035zm0.073 0.20955c0.0286 0.11113 0.0413 0.24448 0.0413 0.40005 0 0.55245-0.23813 0.762-0.41275 0.762-0.11748 0-0.23813-0.0952-0.32385-0.26987z"/>
    <path d="m411.07 250.04c0-0.23495-0.1905-0.42545-0.42863-0.42545-0.23495 0-0.42862 0.1905-0.42862 0.42545s0.19367 0.42545 0.42862 0.42545c0.23813 0 0.42863-0.1905 0.42863-0.42545zm-0.42545-0.25717c0.13017 0 0.23812 0.11112 0.23812 0.254 0 0.14287-0.10795 0.254-0.23812 0.254-0.127 0-0.23495-0.11113-0.23495-0.254 0-0.14288 0.10795-0.254 0.23495-0.254z"/>
   </g>
   <g opacity=".91" aria-label="140°">
    <path d="m413.95 249.66h-0.14605l-0.508 0.26352 0.0508 0.12383 0.3937-0.11113v1.5304h-0.3683v0.17463h0.93345v-0.17463h-0.3556z"/>
    <path d="m415.58 249.66-0.84137 1.2668v0.1651h0.79692v0.5461h0.2286v-0.54292h0.25718v-0.19685h-0.25718v-1.2382zm-0.0413 0.35242v0.88583h-0.58103z"/>
    <path d="m416.98 249.65c-0.31432 0-0.63817 0.38735-0.63817 1.0192 0 0.64135 0.32702 1.0096 0.64135 1.0096 0.28575 0 0.62547-0.31115 0.62547-0.99377 0-0.6731-0.32385-1.035-0.62865-1.035zm0.30798 0.45402-0.69533 0.9017c-0.0286-0.11112-0.0444-0.23495-0.0444-0.37465 0-0.508 0.23178-0.7874 0.42863-0.7874 0.10795 0 0.22542 0.0857 0.31115 0.26035zm0.073 0.20955c0.0286 0.11113 0.0413 0.24448 0.0413 0.40005 0 0.55245-0.23813 0.762-0.41275 0.762-0.11748 0-0.23813-0.0952-0.32385-0.26987z"/>
    <path d="m419 250.04c0-0.23495-0.1905-0.42545-0.42863-0.42545-0.23495 0-0.42862 0.1905-0.42862 0.42545s0.19367 0.42545 0.42862 0.42545c0.23813 0 0.42863-0.1905 0.42863-0.42545zm-0.42545-0.25717c0.13017 0 0.23812 0.11112 0.23812 0.254 0 0.14287-0.10795 0.254-0.23812 0.254-0.127 0-0.23495-0.11113-0.23495-0.254 0-0.14288 0.10795-0.254 0.23495-0.254z"/>
   </g>
   <g opacity=".91" aria-label="160°">
    <path d="m421.88 249.66h-0.14605l-0.508 0.26352 0.0508 0.12383 0.3937-0.11113v1.5304h-0.3683v0.17463h0.93345v-0.17463h-0.3556z"/>
    <path d="m423.44 249.64c-0.23812 0-0.49212 0.14605-0.61595 0.49213-0.0667 0.18732-0.0825 0.4191-0.0825 0.6096 0 0.23177 0.0222 0.47942 0.14923 0.66992 0.1143 0.17463 0.2921 0.26353 0.46672 0.26353 0.30163 0 0.56515-0.254 0.56515-0.66358 0-0.40957-0.26352-0.6477-0.54292-0.6477-0.17145 0-0.33338 0.0921-0.4191 0.23813 0.0127-0.67628 0.33655-0.76518 0.47942-0.76518 0.13018 0 0.21908 0.0699 0.23178 0.0825 0.019 0.0222 0.019 0.0508 0.0476 0.073l0.1524-0.17145c-0.1143-0.1143-0.27305-0.18098-0.4318-0.18098zm-0.0825 0.92075c0.15875 0 0.34925 0.12383 0.34925 0.46355 0 0.30798-0.17145 0.45403-0.33972 0.45403-0.2413 0-0.42228-0.28258-0.39688-0.65405 0.0889-0.16193 0.2413-0.26353 0.38735-0.26353z"/>
    <path d="m424.91 249.65c-0.31432 0-0.63817 0.38735-0.63817 1.0192 0 0.64135 0.32702 1.0096 0.64135 1.0096 0.28575 0 0.62547-0.31115 0.62547-0.99377 0-0.6731-0.32385-1.035-0.62865-1.035zm0.30798 0.45402-0.69533 0.9017c-0.0286-0.11112-0.0444-0.23495-0.0444-0.37465 0-0.508 0.23178-0.7874 0.42863-0.7874 0.10795 0 0.22542 0.0857 0.31115 0.26035zm0.073 0.20955c0.0286 0.11113 0.0413 0.24448 0.0413 0.40005 0 0.55245-0.23813 0.762-0.41275 0.762-0.11748 0-0.23813-0.0952-0.32385-0.26987z"/>
    <path d="m426.94 250.04c0-0.23495-0.1905-0.42545-0.42863-0.42545-0.23495 0-0.42862 0.1905-0.42862 0.42545s0.19367 0.42545 0.42862 0.42545c0.23813 0 0.42863-0.1905 0.42863-0.42545zm-0.42545-0.25717c0.13017 0 0.23812 0.11112 0.23812 0.254 0 0.14287-0.10795 0.254-0.23812 0.254-0.127 0-0.23495-0.11113-0.23495-0.254 0-0.14288 0.10795-0.254 0.23495-0.254z"/>
   </g>
   <g opacity=".91" aria-label="180°">
    <path d="m429.82 249.66h-0.14605l-0.508 0.26352 0.0508 0.12383 0.3937-0.11113v1.5304h-0.3683v0.17463h0.93345v-0.17463h-0.3556z"/>
    <path d="m431.29 249.64c-0.3048 0-0.53658 0.21908-0.53658 0.48578 0 0.19367 0.12383 0.37147 0.30163 0.46355-0.23495 0.11112-0.3937 0.32702-0.3937 0.55562 0 0.29528 0.26035 0.53023 0.60007 0.53023 0.34608 0 0.6096-0.2413 0.6096-0.54293 0-0.23495-0.15875-0.4445-0.381-0.54927 0.1905-0.0984 0.31433-0.28575 0.31433-0.47625 0-0.26035-0.22543-0.46673-0.51435-0.46673zm-0.0667 1.0414c0.254 0.0794 0.42228 0.254 0.42228 0.44768 0 0.1905-0.16193 0.34607-0.37465 0.34607-0.2159 0-0.381-0.16192-0.381-0.35877 0-0.18733 0.14605-0.35878 0.33337-0.43498zm0.0476-0.85725c0.1778 0 0.3175 0.13335 0.3175 0.29845 0 0.1524-0.11748 0.29845-0.27305 0.381 0 0-0.34925-0.13335-0.34925-0.39687 0-0.15558 0.13335-0.28258 0.3048-0.28258z"/>
    <path d="m432.85 249.65c-0.31432 0-0.63817 0.38735-0.63817 1.0192 0 0.64135 0.32702 1.0096 0.64135 1.0096 0.28575 0 0.62547-0.31115 0.62547-0.99377 0-0.6731-0.32385-1.035-0.62865-1.035zm0.30798 0.45402-0.69533 0.9017c-0.0286-0.11112-0.0444-0.23495-0.0444-0.37465 0-0.508 0.23178-0.7874 0.42863-0.7874 0.10795 0 0.22542 0.0857 0.31115 0.26035zm0.073 0.20955c0.0286 0.11113 0.0413 0.24448 0.0413 0.40005 0 0.55245-0.23813 0.762-0.41275 0.762-0.11748 0-0.23813-0.0952-0.32385-0.26987z"/>
    <path d="m434.88 250.04c0-0.23495-0.1905-0.42545-0.42863-0.42545-0.23495 0-0.42862 0.1905-0.42862 0.42545s0.19367 0.42545 0.42862 0.42545c0.23813 0 0.42863-0.1905 0.42863-0.42545zm-0.42545-0.25717c0.13017 0 0.23812 0.11112 0.23812 0.254 0 0.14287-0.10795 0.254-0.23812 0.254-0.127 0-0.23495-0.11113-0.23495-0.254 0-0.14288 0.10795-0.254 0.23495-0.254z"/>
   </g>
   <g opacity=".91" aria-label="200°">
    <path d="m437.06 249.97 0.16193 0.13018c0.019-0.0286 0.01-0.0476 0.0286-0.073 0.0476-0.073 0.1651-0.18097 0.33655-0.18097 0.21273 0 0.381 0.16192 0.381 0.37465 0 0.2413-0.2032 0.41592-0.34607 0.5461-0.22543 0.2032-0.40958 0.4064-0.57468 0.73342v0.1397h1.162v-0.21907c-0.0222-0.01-0.0381 6e-3 -0.0444 0.0127-0.0127 0.0127-0.019 0.0127-0.0317 0.0127h-0.83185c0.1651-0.28575 0.39688-0.4826 0.53975-0.61595 0.14288-0.13653 0.34608-0.33973 0.34608-0.62548 0-0.30797-0.25083-0.55562-0.5715-0.55562-0.22543 0-0.43815 0.12065-0.55563 0.32067z"/>
    <path d="m439.2 249.65c-0.31432 0-0.63817 0.38735-0.63817 1.0192 0 0.64135 0.32702 1.0096 0.64135 1.0096 0.28575 0 0.62547-0.31115 0.62547-0.99377 0-0.6731-0.32385-1.035-0.62865-1.035zm0.30798 0.45402-0.69533 0.9017c-0.0286-0.11112-0.0444-0.23495-0.0444-0.37465 0-0.508 0.23178-0.7874 0.42863-0.7874 0.10795 0 0.22542 0.0857 0.31115 0.26035zm0.073 0.20955c0.0286 0.11113 0.0413 0.24448 0.0413 0.40005 0 0.55245-0.23813 0.762-0.41275 0.762-0.11748 0-0.23813-0.0952-0.32385-0.26987z"/>
    <path d="m440.79 249.65c-0.31432 0-0.63817 0.38735-0.63817 1.0192 0 0.64135 0.32702 1.0096 0.64135 1.0096 0.28575 0 0.62547-0.31115 0.62547-0.99377 0-0.6731-0.32385-1.035-0.62865-1.035zm0.30798 0.45402-0.69533 0.9017c-0.0286-0.11112-0.0444-0.23495-0.0444-0.37465 0-0.508 0.23178-0.7874 0.42863-0.7874 0.10795 0 0.22542 0.0857 0.31115 0.26035zm0.073 0.20955c0.0286 0.11113 0.0413 0.24448 0.0413 0.40005 0 0.55245-0.23813 0.762-0.41275 0.762-0.11748 0-0.23813-0.0952-0.32385-0.26987z"/>
    <path d="m442.82 250.04c0-0.23495-0.1905-0.42545-0.42863-0.42545-0.23495 0-0.42862 0.1905-0.42862 0.42545s0.19367 0.42545 0.42862 0.42545c0.23813 0 0.42863-0.1905 0.42863-0.42545zm-0.42545-0.25717c0.13017 0 0.23812 0.11112 0.23812 0.254 0 0.14287-0.10795 0.254-0.23812 0.254-0.127 0-0.23495-0.11113-0.23495-0.254 0-0.14288 0.10795-0.254 0.23495-0.254z"/>
   </g>
   <g opacity=".91" aria-label="null">
    <path d="m357.66 222.53h0.23177v-0.83503c0-0.0952 0.0127-0.16827 0.073-0.24765 0.054-0.073 0.19367-0.2032 0.34607-0.2032 0.073 0 0.14605 0.0318 0.19685 0.0921 0.0794 0.0952 0.0794 0.21907 0.0794 0.32067v0.87313h0.22542v-0.87948c0-0.11112 0-0.23177-0.0508-0.34925-0.073-0.16192-0.22225-0.254-0.38735-0.254-0.19685 0-0.37465 0.127-0.4826 0.28893v-0.254h-0.23177z"/>
    <path d="m359.23 221.09v0.80962c0 0.12383 0 0.25083 0.0571 0.381 0.0826 0.1905 0.26035 0.29528 0.45085 0.29528 0.18097 0 0.35242-0.0984 0.44767-0.25718l-3e-3 0.10795c0 0.0381 0 0.0762 6e-3 0.11113h0.2413c-0.0159-0.0413-0.019-0.0889-0.019-0.13018v-1.3176h-0.2286v0.79692c0 0.11113-0.01 0.19685-0.0571 0.28575-0.0667 0.12383-0.19685 0.2159-0.33655 0.2159-0.11113 0-0.21908-0.0635-0.27623-0.1778-0.0508-0.1016-0.0508-0.2159-0.0508-0.31115v-0.80962z"/>
    <path d="m360.88 220.43v0.18415h0.41275v1.7431h-0.4318v0.18098h1.089v-0.18098h-0.42862v-1.9272z"/>
    <path d="m362.47 220.43v0.18415h0.41275v1.7431h-0.4318v0.18098h1.089v-0.18098h-0.42862v-1.9272z"/>
   </g>
   <g opacity=".91" aria-label="60°">
    <path d="m406.77 220.53c-0.23812 0-0.49212 0.14605-0.61595 0.49212-0.0667 0.18733-0.0826 0.4191-0.0826 0.6096 0 0.23178 0.0222 0.47943 0.14923 0.66993 0.1143 0.17462 0.2921 0.26352 0.46672 0.26352 0.30163 0 0.56515-0.254 0.56515-0.66357 0-0.40958-0.26352-0.6477-0.54292-0.6477-0.17145 0-0.33338 0.0921-0.4191 0.23812 0.0127-0.67627 0.33655-0.76517 0.47942-0.76517 0.13018 0 0.21908 0.0699 0.23178 0.0825 0.019 0.0222 0.019 0.0508 0.0476 0.073l0.1524-0.17145c-0.1143-0.1143-0.27305-0.18097-0.4318-0.18097zm-0.0825 0.92075c0.15875 0 0.34925 0.12382 0.34925 0.46355 0 0.30797-0.17145 0.45402-0.33972 0.45402-0.2413 0-0.42228-0.28257-0.39688-0.65405 0.0889-0.16192 0.2413-0.26352 0.38735-0.26352z"/>
    <path d="m408.24 220.54c-0.31432 0-0.63817 0.38735-0.63817 1.0192 0 0.64135 0.32702 1.0096 0.64135 1.0096 0.28575 0 0.62547-0.31115 0.62547-0.99378 0-0.6731-0.32385-1.035-0.62865-1.035zm0.30798 0.45403-0.69533 0.9017c-0.0286-0.11113-0.0444-0.23495-0.0444-0.37465 0-0.508 0.23178-0.7874 0.42863-0.7874 0.10795 0 0.22542 0.0857 0.31115 0.26035zm0.073 0.20955c0.0286 0.11112 0.0413 0.24447 0.0413 0.40005 0 0.55245-0.23813 0.762-0.41275 0.762-0.11748 0-0.23813-0.0953-0.32385-0.26988z"/>
    <path d="m410.27 220.93c0-0.23495-0.1905-0.42545-0.42863-0.42545-0.23495 0-0.42862 0.1905-0.42862 0.42545s0.19367 0.42545 0.42862 0.42545c0.23813 0 0.42863-0.1905 0.42863-0.42545zm-0.42545-0.25718c0.13017 0 0.23812 0.11113 0.23812 0.254 0 0.14288-0.10795 0.254-0.23812 0.254-0.127 0-0.23495-0.11112-0.23495-0.254 0-0.14287 0.10795-0.254 0.23495-0.254z"/>
   </g>
   <g opacity=".91" aria-label="120°">
    <path d="m429.82 220.56h-0.14605l-0.508 0.26353 0.0508 0.12382 0.3937-0.11112v1.5304h-0.3683v0.17462h0.93345v-0.17462h-0.3556z"/>
    <path d="m430.71 220.86 0.16193 0.13017c0.019-0.0286 0.01-0.0476 0.0286-0.073 0.0476-0.073 0.1651-0.18098 0.33655-0.18098 0.21273 0 0.381 0.16193 0.381 0.37465 0 0.2413-0.2032 0.41593-0.34607 0.5461-0.22543 0.2032-0.40958 0.4064-0.57468 0.73343v0.1397h1.162v-0.21908c-0.0222-0.01-0.0381 6e-3 -0.0444 0.0127-0.0127 0.0127-0.019 0.0127-0.0317 0.0127h-0.83185c0.1651-0.28575 0.39688-0.4826 0.53975-0.61595 0.14288-0.13652 0.34608-0.33972 0.34608-0.62547 0-0.30798-0.25083-0.55563-0.5715-0.55563-0.22543 0-0.43815 0.12065-0.55563 0.32068z"/>
    <path d="m432.85 220.54c-0.31432 0-0.63817 0.38735-0.63817 1.0192 0 0.64135 0.32702 1.0096 0.64135 1.0096 0.28575 0 0.62547-0.31115 0.62547-0.99378 0-0.6731-0.32385-1.035-0.62865-1.035zm0.30798 0.45403-0.69533 0.9017c-0.0286-0.11113-0.0444-0.23495-0.0444-0.37465 0-0.508 0.23178-0.7874 0.42863-0.7874 0.10795 0 0.22542 0.0857 0.31115 0.26035zm0.073 0.20955c0.0286 0.11112 0.0413 0.24447 0.0413 0.40005 0 0.55245-0.23813 0.762-0.41275 0.762-0.11748 0-0.23813-0.0953-0.32385-0.26988z"/>
    <path d="m434.88 220.93c0-0.23495-0.1905-0.42545-0.42863-0.42545-0.23495 0-0.42862 0.1905-0.42862 0.42545s0.19367 0.42545 0.42862 0.42545c0.23813 0 0.42863-0.1905 0.42863-0.42545zm-0.42545-0.25718c0.13017 0 0.23812 0.11113 0.23812 0.254 0 0.14288-0.10795 0.254-0.23812 0.254-0.127 0-0.23495-0.11112-0.23495-0.254 0-0.14287 0.10795-0.254 0.23495-0.254z"/>
   </g>
   <g opacity=".91" aria-label="180°">
    <path d="m437.76 220.56h-0.14605l-0.508 0.26353 0.0508 0.12382 0.3937-0.11112v1.5304h-0.3683v0.17462h0.93345v-0.17462h-0.3556z"/>
    <path d="m439.22 220.53c-0.3048 0-0.53658 0.21907-0.53658 0.48577 0 0.19368 0.12383 0.37148 0.30163 0.46355-0.23495 0.11113-0.3937 0.32703-0.3937 0.55563 0 0.29527 0.26035 0.53022 0.60007 0.53022 0.34608 0 0.6096-0.2413 0.6096-0.54292 0-0.23495-0.15875-0.4445-0.381-0.54928 0.1905-0.0984 0.31433-0.28575 0.31433-0.47625 0-0.26035-0.22543-0.46672-0.51435-0.46672zm-0.0667 1.0414c0.254 0.0794 0.42228 0.254 0.42228 0.44767 0 0.1905-0.16193 0.34608-0.37465 0.34608-0.2159 0-0.381-0.16193-0.381-0.35878 0-0.18732 0.14605-0.35877 0.33337-0.43497zm0.0476-0.85725c0.1778 0 0.3175 0.13335 0.3175 0.29845 0 0.1524-0.11748 0.29845-0.27305 0.381 0 0-0.34925-0.13335-0.34925-0.39688 0-0.15557 0.13335-0.28257 0.3048-0.28257z"/>
    <path d="m440.79 220.54c-0.31432 0-0.63817 0.38735-0.63817 1.0192 0 0.64135 0.32702 1.0096 0.64135 1.0096 0.28575 0 0.62547-0.31115 0.62547-0.99378 0-0.6731-0.32385-1.035-0.62865-1.035zm0.30798 0.45403-0.69533 0.9017c-0.0286-0.11113-0.0444-0.23495-0.0444-0.37465 0-0.508 0.23178-0.7874 0.42863-0.7874 0.10795 0 0.22542 0.0857 0.31115 0.26035zm0.073 0.20955c0.0286 0.11112 0.0413 0.24447 0.0413 0.40005 0 0.55245-0.23813 0.762-0.41275 0.762-0.11748 0-0.23813-0.0953-0.32385-0.26988z"/>
    <path d="m442.82 220.93c0-0.23495-0.1905-0.42545-0.42863-0.42545-0.23495 0-0.42862 0.1905-0.42862 0.42545s0.19367 0.42545 0.42862 0.42545c0.23813 0 0.42863-0.1905 0.42863-0.42545zm-0.42545-0.25718c0.13017 0 0.23812 0.11113 0.23812 0.254 0 0.14288-0.10795 0.254-0.23812 0.254-0.127 0-0.23495-0.11112-0.23495-0.254 0-0.14287 0.10795-0.254 0.23495-0.254z"/>
   </g>
   <g opacity=".91" aria-label="120°">
    <path d="m421.88 220.56h-0.14605l-0.508 0.26353 0.0508 0.12382 0.3937-0.11112v1.5304h-0.3683v0.17462h0.93345v-0.17462h-0.3556z"/>
    <path d="m422.77 220.86 0.16193 0.13017c0.019-0.0286 0.01-0.0476 0.0286-0.073 0.0476-0.073 0.1651-0.18098 0.33655-0.18098 0.21273 0 0.381 0.16193 0.381 0.37465 0 0.2413-0.2032 0.41593-0.34607 0.5461-0.22543 0.2032-0.40958 0.4064-0.57468 0.73343v0.1397h1.162v-0.21908c-0.0222-0.01-0.0381 6e-3 -0.0444 0.0127-0.0127 0.0127-0.019 0.0127-0.0317 0.0127h-0.83185c0.1651-0.28575 0.39688-0.4826 0.53975-0.61595 0.14288-0.13652 0.34608-0.33972 0.34608-0.62547 0-0.30798-0.25083-0.55563-0.5715-0.55563-0.22543 0-0.43815 0.12065-0.55563 0.32068z"/>
    <path d="m424.91 220.54c-0.31432 0-0.63817 0.38735-0.63817 1.0192 0 0.64135 0.32702 1.0096 0.64135 1.0096 0.28575 0 0.62547-0.31115 0.62547-0.99378 0-0.6731-0.32385-1.035-0.62865-1.035zm0.30798 0.45403-0.69533 0.9017c-0.0286-0.11113-0.0444-0.23495-0.0444-0.37465 0-0.508 0.23178-0.7874 0.42863-0.7874 0.10795 0 0.22542 0.0857 0.31115 0.26035zm0.073 0.20955c0.0286 0.11112 0.0413 0.24447 0.0413 0.40005 0 0.55245-0.23813 0.762-0.41275 0.762-0.11748 0-0.23813-0.0953-0.32385-0.26988z"/>
    <path d="m426.94 220.93c0-0.23495-0.1905-0.42545-0.42863-0.42545-0.23495 0-0.42862 0.1905-0.42862 0.42545s0.19367 0.42545 0.42862 0.42545c0.23813 0 0.42863-0.1905 0.42863-0.42545zm-0.42545-0.25718c0.13017 0 0.23812 0.11113 0.23812 0.254 0 0.14288-0.10795 0.254-0.23812 0.254-0.127 0-0.23495-0.11112-0.23495-0.254 0-0.14287 0.10795-0.254 0.23495-0.254z"/>
   </g>
   <g opacity=".91" aria-label="120°">
    <path d="m413.95 220.56h-0.14605l-0.508 0.26353 0.0508 0.12382 0.3937-0.11112v1.5304h-0.3683v0.17462h0.93345v-0.17462h-0.3556z"/>
    <path d="m414.84 220.86 0.16193 0.13017c0.019-0.0286 0.01-0.0476 0.0286-0.073 0.0476-0.073 0.1651-0.18098 0.33655-0.18098 0.21273 0 0.381 0.16193 0.381 0.37465 0 0.2413-0.2032 0.41593-0.34607 0.5461-0.22543 0.2032-0.40958 0.4064-0.57468 0.73343v0.1397h1.162v-0.21908c-0.0222-0.01-0.0381 6e-3 -0.0444 0.0127-0.0127 0.0127-0.019 0.0127-0.0317 0.0127h-0.83185c0.1651-0.28575 0.39688-0.4826 0.53975-0.61595 0.14288-0.13652 0.34608-0.33972 0.34608-0.62547 0-0.30798-0.25083-0.55563-0.5715-0.55563-0.22543 0-0.43815 0.12065-0.55563 0.32068z"/>
    <path d="m416.98 220.54c-0.31432 0-0.63817 0.38735-0.63817 1.0192 0 0.64135 0.32702 1.0096 0.64135 1.0096 0.28575 0 0.62547-0.31115 0.62547-0.99378 0-0.6731-0.32385-1.035-0.62865-1.035zm0.30798 0.45403-0.69533 0.9017c-0.0286-0.11113-0.0444-0.23495-0.0444-0.37465 0-0.508 0.23178-0.7874 0.42863-0.7874 0.10795 0 0.22542 0.0857 0.31115 0.26035zm0.073 0.20955c0.0286 0.11112 0.0413 0.24447 0.0413 0.40005 0 0.55245-0.23813 0.762-0.41275 0.762-0.11748 0-0.23813-0.0953-0.32385-0.26988z"/>
    <path d="m419 220.93c0-0.23495-0.1905-0.42545-0.42863-0.42545-0.23495 0-0.42862 0.1905-0.42862 0.42545s0.19367 0.42545 0.42862 0.42545c0.23813 0 0.42863-0.1905 0.42863-0.42545zm-0.42545-0.25718c0.13017 0 0.23812 0.11113 0.23812 0.254 0 0.14288-0.10795 0.254-0.23812 0.254-0.127 0-0.23495-0.11112-0.23495-0.254 0-0.14287 0.10795-0.254 0.23495-0.254z"/>
   </g>
   <g opacity=".91" aria-label="60°">
    <path d="m398.83 220.53c-0.23812 0-0.49212 0.14605-0.61595 0.49212-0.0667 0.18733-0.0826 0.4191-0.0826 0.6096 0 0.23178 0.0222 0.47943 0.14923 0.66993 0.1143 0.17462 0.2921 0.26352 0.46672 0.26352 0.30163 0 0.56515-0.254 0.56515-0.66357 0-0.40958-0.26352-0.6477-0.54292-0.6477-0.17145 0-0.33338 0.0921-0.4191 0.23812 0.0127-0.67627 0.33655-0.76517 0.47942-0.76517 0.13018 0 0.21908 0.0699 0.23178 0.0825 0.019 0.0222 0.019 0.0508 0.0476 0.073l0.1524-0.17145c-0.1143-0.1143-0.27305-0.18097-0.4318-0.18097zm-0.0825 0.92075c0.15875 0 0.34925 0.12382 0.34925 0.46355 0 0.30797-0.17145 0.45402-0.33972 0.45402-0.2413 0-0.42228-0.28257-0.39688-0.65405 0.0889-0.16192 0.2413-0.26352 0.38735-0.26352z"/>
    <path d="m400.31 220.54c-0.31432 0-0.63817 0.38735-0.63817 1.0192 0 0.64135 0.32702 1.0096 0.64135 1.0096 0.28575 0 0.62547-0.31115 0.62547-0.99378 0-0.6731-0.32385-1.035-0.62865-1.035zm0.30798 0.45403-0.69533 0.9017c-0.0286-0.11113-0.0444-0.23495-0.0444-0.37465 0-0.508 0.23178-0.7874 0.42863-0.7874 0.10795 0 0.22542 0.0857 0.31115 0.26035zm0.073 0.20955c0.0286 0.11112 0.0413 0.24447 0.0413 0.40005 0 0.55245-0.23813 0.762-0.41275 0.762-0.11748 0-0.23813-0.0953-0.32385-0.26988z"/>
    <path d="m402.34 220.93c0-0.23495-0.1905-0.42545-0.42863-0.42545-0.23495 0-0.42862 0.1905-0.42862 0.42545s0.19367 0.42545 0.42862 0.42545c0.23813 0 0.42863-0.1905 0.42863-0.42545zm-0.42545-0.25718c0.13017 0 0.23812 0.11113 0.23812 0.254 0 0.14288-0.10795 0.254-0.23812 0.254-0.127 0-0.23495-0.11112-0.23495-0.254 0-0.14287 0.10795-0.254 0.23495-0.254z"/>
   </g>
   <g opacity=".91" aria-label="60°">
    <path d="m390.9 220.53c-0.23812 0-0.49212 0.14605-0.61595 0.49212-0.0667 0.18733-0.0826 0.4191-0.0826 0.6096 0 0.23178 0.0222 0.47943 0.14923 0.66993 0.1143 0.17462 0.2921 0.26352 0.46672 0.26352 0.30163 0 0.56515-0.254 0.56515-0.66357 0-0.40958-0.26352-0.6477-0.54292-0.6477-0.17145 0-0.33338 0.0921-0.4191 0.23812 0.0127-0.67627 0.33655-0.76517 0.47942-0.76517 0.13018 0 0.21908 0.0699 0.23178 0.0825 0.019 0.0222 0.019 0.0508 0.0476 0.073l0.1524-0.17145c-0.1143-0.1143-0.27305-0.18097-0.4318-0.18097zm-0.0825 0.92075c0.15875 0 0.34925 0.12382 0.34925 0.46355 0 0.30797-0.17145 0.45402-0.33972 0.45402-0.2413 0-0.42228-0.28257-0.39688-0.65405 0.0889-0.16192 0.2413-0.26352 0.38735-0.26352z"/>
    <path d="m392.37 220.54c-0.31432 0-0.63817 0.38735-0.63817 1.0192 0 0.64135 0.32702 1.0096 0.64135 1.0096 0.28575 0 0.62547-0.31115 0.62547-0.99378 0-0.6731-0.32385-1.035-0.62865-1.035zm0.30798 0.45403-0.69533 0.9017c-0.0286-0.11113-0.0444-0.23495-0.0444-0.37465 0-0.508 0.23178-0.7874 0.42863-0.7874 0.10795 0 0.22542 0.0857 0.31115 0.26035zm0.073 0.20955c0.0286 0.11112 0.0413 0.24447 0.0413 0.40005 0 0.55245-0.23813 0.762-0.41275 0.762-0.11748 0-0.23813-0.0953-0.32385-0.26988z"/>
    <path d="m394.4 220.93c0-0.23495-0.1905-0.42545-0.42863-0.42545-0.23495 0-0.42862 0.1905-0.42862 0.42545s0.19367 0.42545 0.42862 0.42545c0.23813 0 0.42863-0.1905 0.42863-0.42545zm-0.42545-0.25718c0.13017 0 0.23812 0.11113 0.23812 0.254 0 0.14288-0.10795 0.254-0.23812 0.254-0.127 0-0.23495-0.11112-0.23495-0.254 0-0.14287 0.10795-0.254 0.23495-0.254z"/>
   </g>
   <g opacity=".91" aria-label="0°">
    <path d="m367.76 220.54c-0.31432 0-0.63817 0.38735-0.63817 1.0192 0 0.64135 0.32702 1.0096 0.64135 1.0096 0.28575 0 0.62547-0.31115 0.62547-0.99378 0-0.6731-0.32385-1.035-0.62865-1.035zm0.30798 0.45403-0.69533 0.9017c-0.0286-0.11113-0.0444-0.23495-0.0444-0.37465 0-0.508 0.23178-0.7874 0.42863-0.7874 0.10795 0 0.22542 0.0857 0.31115 0.26035zm0.073 0.20955c0.0286 0.11112 0.0413 0.24447 0.0413 0.40005 0 0.55245-0.23813 0.762-0.41275 0.762-0.11748 0-0.23813-0.0953-0.32385-0.26988z"/>
    <path d="m369.79 220.93c0-0.23495-0.1905-0.42545-0.42863-0.42545-0.23495 0-0.42862 0.1905-0.42862 0.42545s0.19367 0.42545 0.42862 0.42545c0.23813 0 0.42863-0.1905 0.42863-0.42545zm-0.42545-0.25718c0.13017 0 0.23812 0.11113 0.23812 0.254 0 0.14288-0.10795 0.254-0.23812 0.254-0.127 0-0.23495-0.11112-0.23495-0.254 0-0.14287 0.10795-0.254 0.23495-0.254z"/>
   </g>
   <g opacity=".91" aria-label="0°">
    <path d="m375.7 220.54c-0.31432 0-0.63817 0.38735-0.63817 1.0192 0 0.64135 0.32702 1.0096 0.64135 1.0096 0.28575 0 0.62547-0.31115 0.62547-0.99378 0-0.6731-0.32385-1.035-0.62865-1.035zm0.30798 0.45403-0.69533 0.9017c-0.0286-0.11113-0.0444-0.23495-0.0444-0.37465 0-0.508 0.23178-0.7874 0.42863-0.7874 0.10795 0 0.22542 0.0857 0.31115 0.26035zm0.073 0.20955c0.0286 0.11112 0.0413 0.24447 0.0413 0.40005 0 0.55245-0.23813 0.762-0.41275 0.762-0.11748 0-0.23813-0.0953-0.32385-0.26988z"/>
    <path d="m377.73 220.93c0-0.23495-0.1905-0.42545-0.42863-0.42545-0.23495 0-0.42862 0.1905-0.42862 0.42545s0.19367 0.42545 0.42862 0.42545c0.23813 0 0.42863-0.1905 0.42863-0.42545zm-0.42545-0.25718c0.13017 0 0.23812 0.11113 0.23812 0.254 0 0.14288-0.10795 0.254-0.23812 0.254-0.127 0-0.23495-0.11112-0.23495-0.254 0-0.14287 0.10795-0.254 0.23495-0.254z"/>
   </g>
   <g opacity=".91" aria-label="0°">
    <path d="m383.64 220.54c-0.31432 0-0.63817 0.38735-0.63817 1.0192 0 0.64135 0.32702 1.0096 0.64135 1.0096 0.28575 0 0.62547-0.31115 0.62547-0.99378 0-0.6731-0.32385-1.035-0.62865-1.035zm0.30798 0.45403-0.69533 0.9017c-0.0286-0.11113-0.0444-0.23495-0.0444-0.37465 0-0.508 0.23178-0.7874 0.42863-0.7874 0.10795 0 0.22542 0.0857 0.31115 0.26035zm0.073 0.20955c0.0286 0.11112 0.0413 0.24447 0.0413 0.40005 0 0.55245-0.23813 0.762-0.41275 0.762-0.11748 0-0.23813-0.0953-0.32385-0.26988z"/>
    <path d="m385.67 220.93c0-0.23495-0.1905-0.42545-0.42863-0.42545-0.23495 0-0.42862 0.1905-0.42862 0.42545s0.19367 0.42545 0.42862 0.42545c0.23813 0 0.42863-0.1905 0.42863-0.42545zm-0.42545-0.25718c0.13017 0 0.23812 0.11113 0.23812 0.254 0 0.14288-0.10795 0.254-0.23812 0.254-0.127 0-0.23495-0.11112-0.23495-0.254 0-0.14287 0.10795-0.254 0.23495-0.254z"/>
   </g>
  </g>
  <path d="m358.86 237.25-0.28522 0.25554v1.6428l0.28522 0.25556h2.2589l0.28521-0.25556v-1.6428l-0.28521-0.25554z" fill="#1d232d" stroke="#47d58a" stroke-linecap="round" stroke-miterlimit="22" stroke-width=".13229"/>
  <path d="m358.87 237.25-0.29206 0.25554 1.2778 0.73773h0.27381l1.2778-0.73773-0.29206-0.25554z" fill="#47d58a"/>
  <path d="m361.22 237.29 6.8792-4.6302" fill="none" stroke="#47d58a" stroke-dasharray="0.13229167, 0.26458333" stroke-linecap="square" stroke-miterlimit="22" stroke-width=".13229" style="paint-order:normal"/>
  <g>
   <g transform="matrix(.0017455 -.0012001 .0012207 .0017754 367.04 232.64)" fill="#47d58a" stroke-width="123.85">
    <g fill="#47d58a" stroke-width="123.85">
     <path d="m486.41 221.41-364.07-208.5c-52.938-30.318-95.852-5.44-95.852 55.563v415.65c0 61.004 42.914 85.882 95.852 55.563l364.07-208.49c52.938-30.317 52.938-79.473 0-109.79z" fill="#47d58a" stroke-width="123.85"/>
    </g>
   </g>
   <path d="m382.67 237.25-0.28522 0.25554v1.6428l0.28522 0.25556h2.2589l0.28521-0.25556v-1.6428l-0.28521-0.25554z" fill="#1d232d" stroke="#47d58a" stroke-linecap="round" stroke-miterlimit="22" stroke-width=".13229"/>
   <path d="m382.68 237.25-0.29206 0.25554 1.2778 0.73773h0.27381l1.2778-0.73773-0.29206-0.25554z" fill="#47d58a"/>
  </g>
  <path d="m385.04 237.29 6.8792-4.6302" fill="none" stroke="#47d58a" stroke-dasharray="0.13229167, 0.26458333" stroke-linecap="square" stroke-miterlimit="22" stroke-width=".13229" style="paint-order:normal"/>
  <g>
   <g transform="matrix(.0017455 -.0012001 .0012207 .0017754 390.85 232.64)" fill="#47d58a" stroke-width="123.85">
    <g fill="#47d58a" stroke-width="123.85">
     <path d="m486.41 221.41-364.07-208.5c-52.938-30.318-95.852-5.44-95.852 55.563v415.65c0 61.004 42.914 85.882 95.852 55.563l364.07-208.49c52.938-30.317 52.938-79.473 0-109.79z" fill="#47d58a" stroke-width="123.85"/>
    </g>
   </g>
   <path d="m406.49 237.25-0.28522 0.25554v1.6428l0.28522 0.25556h2.2589l0.28521-0.25556v-1.6428l-0.28521-0.25554z" fill="#1d232d" stroke="#47d58a" stroke-linecap="round" stroke-miterlimit="22" stroke-width=".13229"/>
   <path d="m406.49 237.25-0.29206 0.25554 1.2778 0.73773h0.27381l1.2778-0.73773-0.29206-0.25554z" fill="#47d58a"/>
  </g>
  <path d="m408.85 237.29 6.8792-4.6302" fill="none" stroke="#47d58a" stroke-dasharray="0.13229167, 0.26458333" stroke-linecap="square" stroke-miterlimit="22" stroke-width=".13229" style="paint-order:normal"/>
  <g>
   <g transform="matrix(.0017455 -.0012001 .0012207 .0017754 414.66 232.64)" fill="#47d58a" stroke-width="123.85">
    <g fill="#47d58a" stroke-width="123.85">
     <path d="m486.41 221.41-364.07-208.5c-52.938-30.318-95.852-5.44-95.852 55.563v415.65c0 61.004 42.914 85.882 95.852 55.563l364.07-208.49c52.938-30.317 52.938-79.473 0-109.79z" fill="#47d58a" stroke-width="123.85"/>
    </g>
   </g>
   <path d="m430.3 237.25-0.28522 0.25554v1.6428l0.28522 0.25556h2.2589l0.28521-0.25556v-1.6428l-0.28521-0.25554z" fill="#1d232d" stroke="#47d58a" stroke-linecap="round" stroke-miterlimit="22" stroke-width=".13229"/>
   <path d="m430.31 237.25-0.29206 0.25554 1.2778 0.73773h0.27381l1.2778-0.73773-0.29206-0.25554z" fill="#47d58a"/>
  </g>
  <path d="m432.66 237.29 6.8792-4.6302" fill="none" stroke="#47d58a" stroke-dasharray="0.13229167, 0.26458333" stroke-linecap="square" stroke-miterlimit="22" stroke-width=".13229" style="paint-order:normal"/>
  <g transform="matrix(.0017455 -.0012001 .0012207 .0017754 438.48 232.64)" fill="#47d58a" stroke-width="123.85">
   <g fill="#47d58a" stroke-width="123.85">
    <path d="m486.41 221.41-364.07-208.5c-52.938-30.318-95.852-5.44-95.852 55.563v415.65c0 61.004 42.914 85.882 95.852 55.563l364.07-208.49c52.938-30.317 52.938-79.473 0-109.79z" fill="#47d58a" stroke-width="123.85"/>
   </g>
  </g>
  <g transform="matrix(-.5286 -.0021758 -.0021758 .5286 440.7 198.05)">
   <path d="m133.62 54.82h6.844c0.117 0.164 0.222 0.32 0.293 0.465h-7.43c0.07-0.145 0.176-0.301 0.293-0.465z" fill="#a96f00"/>
   <path d="m134.52 53.894h5.047c0.371 0.289 0.672 0.613 0.899 0.926h-6.844c0.223-0.313 0.527-0.637 0.898-0.926z" fill="#fbb227"/>
   <path d="m138.84 53.429c0.262 0.137 0.512 0.289 0.734 0.465h-5.047c0.219-0.176 0.473-0.328 0.735-0.465z" fill="#ffd179"/>
   <path d="m138.84 53.429h-3.578c0.523-0.277 1.121-0.465 1.789-0.465s1.266 0.188 1.789 0.465z" fill="#ffd179"/>
   <path d="m136.12 61.582 1.848-0.01138-0.0111-3.0352-1.844 0.01628z" fill="#535e70"/>
   <path d="m136.58 55.285v3.757c-0.848 0.133-1.519 0.618-2.144 1.196-0.114-0.211-0.5-0.426-0.586-0.645-0.086-0.226-0.157-0.457-0.211-0.691-0.055-0.235-0.09-0.477-0.114-0.715-0.019-0.242-0.027-0.488-0.015-0.735 0.011-0.242 0.039-0.488 0.086-0.73 0.047-0.246 0.109-0.488 0.187-0.73 0.028-0.082 0.07-0.161 0.102-0.243 0.062-0.156 0.406-0.312 0.484-0.464z" fill="#fbb227"/>
   <path d="m137.51 55.285v3.757c-0.153-0.023-0.305-0.039-0.465-0.039s-0.317 0.016-0.465 0.039v-3.757z" fill="#a96f00"/>
   <path d="m139.79 55.285c0.227 0.277 0.43 0.691 0.504 0.929 0.074 0.242 0.129 0.492 0.168 0.742 0.035 0.25 0.109 0.305 0.113 0.559 0 0.25 0.027 0.496 0 0.742-0.031 0.246-0.176 0.692-0.23 0.93-0.055 0.238-0.125 0.465-0.203 0.687-0.075 0.207-0.383 0.188-0.473 0.375-0.629-0.582-1.309-1.07-2.16-1.207v-3.757z" fill="#fbb227"/>
   <path d="m138.44 58.999h1.855v-3.25h-1.855z" fill="#a96f00"/>
   <path d="m133.79 58.999h1.859v-3.25h-1.859z" fill="#2f3744"/>
   <path d="m134.44 60.238c-0.219 0.199-0.43 0.41-0.645 0.621-1.164-1.555-1.391-3.715-0.461-5.574h1.039c-0.117 0.234-0.219 0.468-0.297 0.71-0.082 0.239-0.144 0.485-0.191 0.727-0.043 0.246-0.07 0.488-0.082 0.734-0.012 0.243-8e-3 0.489 0.015 0.731 0.02 0.242 0.059 0.48 0.114 0.715 0.05 0.238 0.125 0.468 0.211 0.691 0.082 0.223 0.183 0.434 0.297 0.645z" fill="#ffd179"/>
   <path d="m140.76 55.285c0.929 1.859 0.465 4.183-0.465 5.574-0.207-0.207-0.414-0.41-0.625-0.61 0.09-0.187 0.18-0.382 0.25-0.589 0.082-0.219 0.148-0.45 0.207-0.688 0.055-0.234 0.101-0.477 0.129-0.727 0.027-0.246 0.043-0.496 0.039-0.746 0-0.254-0.016-0.504-0.055-0.757-0.035-0.25-0.09-0.497-0.164-0.743-0.074-0.242-0.168-0.48-0.285-0.714z" fill="#fbb227"/>
   <path d="m134.26 58.535h0.93v-0.926h-0.93z" fill="#cf2f25"/>
   <path d="m134.26 57.144h0.93v-0.93h-0.93z" fill="#47d58a"/>
  </g>
  <g transform="matrix(-.5286 -.0021758 -.0021758 .5286 432.76 213.93)">
   <path d="m133.62 54.82h6.844c0.117 0.164 0.222 0.32 0.293 0.465h-7.43c0.07-0.145 0.176-0.301 0.293-0.465z" fill="#a96f00"/>
   <path d="m134.52 53.894h5.047c0.371 0.289 0.672 0.613 0.899 0.926h-6.844c0.223-0.313 0.527-0.637 0.898-0.926z" fill="#fbb227"/>
   <path d="m138.84 53.429c0.262 0.137 0.512 0.289 0.734 0.465h-5.047c0.219-0.176 0.473-0.328 0.735-0.465z" fill="#ffd179"/>
   <path d="m138.84 53.429h-3.578c0.523-0.277 1.121-0.465 1.789-0.465s1.266 0.188 1.789 0.465z" fill="#ffd179"/>
   <path d="m136.12 61.582 1.848-0.01138-0.0111-3.0352-1.844 0.01628z" fill="#535e70"/>
   <path d="m136.58 55.285v3.757c-0.848 0.133-1.519 0.618-2.144 1.196-0.114-0.211-0.5-0.426-0.586-0.645-0.086-0.226-0.157-0.457-0.211-0.691-0.055-0.235-0.09-0.477-0.114-0.715-0.019-0.242-0.027-0.488-0.015-0.735 0.011-0.242 0.039-0.488 0.086-0.73 0.047-0.246 0.109-0.488 0.187-0.73 0.028-0.082 0.07-0.161 0.102-0.243 0.062-0.156 0.406-0.312 0.484-0.464z" fill="#fbb227"/>
   <path d="m137.51 55.285v3.757c-0.153-0.023-0.305-0.039-0.465-0.039s-0.317 0.016-0.465 0.039v-3.757z" fill="#a96f00"/>
   <path d="m139.79 55.285c0.227 0.277 0.43 0.691 0.504 0.929 0.074 0.242 0.129 0.492 0.168 0.742 0.035 0.25 0.109 0.305 0.113 0.559 0 0.25 0.027 0.496 0 0.742-0.031 0.246-0.176 0.692-0.23 0.93-0.055 0.238-0.125 0.465-0.203 0.687-0.075 0.207-0.383 0.188-0.473 0.375-0.629-0.582-1.309-1.07-2.16-1.207v-3.757z" fill="#fbb227"/>
   <path d="m138.44 58.999h1.855v-3.25h-1.855z" fill="#a96f00"/>
   <path d="m133.79 58.999h1.859v-3.25h-1.859z" fill="#2f3744"/>
   <path d="m134.44 60.238c-0.219 0.199-0.43 0.41-0.645 0.621-1.164-1.555-1.391-3.715-0.461-5.574h1.039c-0.117 0.234-0.219 0.468-0.297 0.71-0.082 0.239-0.144 0.485-0.191 0.727-0.043 0.246-0.07 0.488-0.082 0.734-0.012 0.243-8e-3 0.489 0.015 0.731 0.02 0.242 0.059 0.48 0.114 0.715 0.05 0.238 0.125 0.468 0.211 0.691 0.082 0.223 0.183 0.434 0.297 0.645z" fill="#ffd179"/>
   <path d="m140.76 55.285c0.929 1.859 0.465 4.183-0.465 5.574-0.207-0.207-0.414-0.41-0.625-0.61 0.09-0.187 0.18-0.382 0.25-0.589 0.082-0.219 0.148-0.45 0.207-0.688 0.055-0.234 0.101-0.477 0.129-0.727 0.027-0.246 0.043-0.496 0.039-0.746 0-0.254-0.016-0.504-0.055-0.757-0.035-0.25-0.09-0.497-0.164-0.743-0.074-0.242-0.168-0.48-0.285-0.714z" fill="#fbb227"/>
   <path d="m134.26 58.535h0.93v-0.926h-0.93z" fill="#cf2f25"/>
   <path d="m134.26 57.144h0.93v-0.93h-0.93z" fill="#47d58a"/>
  </g>
  <g transform="matrix(-.48753 -.2043 -.2043 .48753 446.65 243.97)">
   <path d="m133.62 54.82h6.844c0.117 0.164 0.222 0.32 0.293 0.465h-7.43c0.07-0.145 0.176-0.301 0.293-0.465z" fill="#a96f00"/>
   <path d="m134.52 53.894h5.047c0.371 0.289 0.672 0.613 0.899 0.926h-6.844c0.223-0.313 0.527-0.637 0.898-0.926z" fill="#fbb227"/>
   <path d="m138.84 53.429c0.262 0.137 0.512 0.289 0.734 0.465h-5.047c0.219-0.176 0.473-0.328 0.735-0.465z" fill="#ffd179"/>
   <path d="m138.84 53.429h-3.578c0.523-0.277 1.121-0.465 1.789-0.465s1.266 0.188 1.789 0.465z" fill="#ffd179"/>
   <path d="m136.12 61.582 1.848-0.01138-0.0111-3.0352-1.844 0.01628z" fill="#535e70"/>
   <path d="m136.58 55.285v3.757c-0.848 0.133-1.519 0.618-2.144 1.196-0.114-0.211-0.5-0.426-0.586-0.645-0.086-0.226-0.157-0.457-0.211-0.691-0.055-0.235-0.09-0.477-0.114-0.715-0.019-0.242-0.027-0.488-0.015-0.735 0.011-0.242 0.039-0.488 0.086-0.73 0.047-0.246 0.109-0.488 0.187-0.73 0.028-0.082 0.07-0.161 0.102-0.243 0.062-0.156 0.406-0.312 0.484-0.464z" fill="#fbb227"/>
   <path d="m137.51 55.285v3.757c-0.153-0.023-0.305-0.039-0.465-0.039s-0.317 0.016-0.465 0.039v-3.757z" fill="#a96f00"/>
   <path d="m139.79 55.285c0.227 0.277 0.43 0.691 0.504 0.929 0.074 0.242 0.129 0.492 0.168 0.742 0.035 0.25 0.109 0.305 0.113 0.559 0 0.25 0.027 0.496 0 0.742-0.031 0.246-0.176 0.692-0.23 0.93-0.055 0.238-0.125 0.465-0.203 0.687-0.075 0.207-0.383 0.188-0.473 0.375-0.629-0.582-1.309-1.07-2.16-1.207v-3.757z" fill="#fbb227"/>
   <path d="m138.44 58.999h1.855v-3.25h-1.855z" fill="#a96f00"/>
   <path d="m133.79 58.999h1.859v-3.25h-1.859z" fill="#2f3744"/>
   <path d="m134.44 60.238c-0.219 0.199-0.43 0.41-0.645 0.621-1.164-1.555-1.391-3.715-0.461-5.574h1.039c-0.117 0.234-0.219 0.468-0.297 0.71-0.082 0.239-0.144 0.485-0.191 0.727-0.043 0.246-0.07 0.488-0.082 0.734-0.012 0.243-8e-3 0.489 0.015 0.731 0.02 0.242 0.059 0.48 0.114 0.715 0.05 0.238 0.125 0.468 0.211 0.691 0.082 0.223 0.183 0.434 0.297 0.645z" fill="#ffd179"/>
   <path d="m140.76 55.285c0.929 1.859 0.465 4.183-0.465 5.574-0.207-0.207-0.414-0.41-0.625-0.61 0.09-0.187 0.18-0.382 0.25-0.589 0.082-0.219 0.148-0.45 0.207-0.688 0.055-0.234 0.101-0.477 0.129-0.727 0.027-0.246 0.043-0.496 0.039-0.746 0-0.254-0.016-0.504-0.055-0.757-0.035-0.25-0.09-0.497-0.164-0.743-0.074-0.242-0.168-0.48-0.285-0.714z" fill="#fbb227"/>
   <path d="m134.26 58.535h0.93v-0.926h-0.93z" fill="#cf2f25"/>
   <path d="m134.26 57.144h0.93v-0.93h-0.93z" fill="#47d58a"/>
  </g>
  <g transform="matrix(-.41199 -.33119 -.33119 .41199 451.48 265.67)">
   <path d="m133.62 54.82h6.844c0.117 0.164 0.222 0.32 0.293 0.465h-7.43c0.07-0.145 0.176-0.301 0.293-0.465z" fill="#a96f00"/>
   <path d="m134.52 53.894h5.047c0.371 0.289 0.672 0.613 0.899 0.926h-6.844c0.223-0.313 0.527-0.637 0.898-0.926z" fill="#fbb227"/>
   <path d="m138.84 53.429c0.262 0.137 0.512 0.289 0.734 0.465h-5.047c0.219-0.176 0.473-0.328 0.735-0.465z" fill="#ffd179"/>
   <path d="m138.84 53.429h-3.578c0.523-0.277 1.121-0.465 1.789-0.465s1.266 0.188 1.789 0.465z" fill="#ffd179"/>
   <path d="m136.12 61.582 1.848-0.01138-0.0111-3.0352-1.844 0.01628z" fill="#535e70"/>
   <path d="m136.58 55.285v3.757c-0.848 0.133-1.519 0.618-2.144 1.196-0.114-0.211-0.5-0.426-0.586-0.645-0.086-0.226-0.157-0.457-0.211-0.691-0.055-0.235-0.09-0.477-0.114-0.715-0.019-0.242-0.027-0.488-0.015-0.735 0.011-0.242 0.039-0.488 0.086-0.73 0.047-0.246 0.109-0.488 0.187-0.73 0.028-0.082 0.07-0.161 0.102-0.243 0.062-0.156 0.406-0.312 0.484-0.464z" fill="#fbb227"/>
   <path d="m137.51 55.285v3.757c-0.153-0.023-0.305-0.039-0.465-0.039s-0.317 0.016-0.465 0.039v-3.757z" fill="#a96f00"/>
   <path d="m139.79 55.285c0.227 0.277 0.43 0.691 0.504 0.929 0.074 0.242 0.129 0.492 0.168 0.742 0.035 0.25 0.109 0.305 0.113 0.559 0 0.25 0.027 0.496 0 0.742-0.031 0.246-0.176 0.692-0.23 0.93-0.055 0.238-0.125 0.465-0.203 0.687-0.075 0.207-0.383 0.188-0.473 0.375-0.629-0.582-1.309-1.07-2.16-1.207v-3.757z" fill="#fbb227"/>
   <path d="m138.44 58.999h1.855v-3.25h-1.855z" fill="#a96f00"/>
   <path d="m133.79 58.999h1.859v-3.25h-1.859z" fill="#2f3744"/>
   <path d="m134.44 60.238c-0.219 0.199-0.43 0.41-0.645 0.621-1.164-1.555-1.391-3.715-0.461-5.574h1.039c-0.117 0.234-0.219 0.468-0.297 0.71-0.082 0.239-0.144 0.485-0.191 0.727-0.043 0.246-0.07 0.488-0.082 0.734-0.012 0.243-8e-3 0.489 0.015 0.731 0.02 0.242 0.059 0.48 0.114 0.715 0.05 0.238 0.125 0.468 0.211 0.691 0.082 0.223 0.183 0.434 0.297 0.645z" fill="#ffd179"/>
   <path d="m140.76 55.285c0.929 1.859 0.465 4.183-0.465 5.574-0.207-0.207-0.414-0.41-0.625-0.61 0.09-0.187 0.18-0.382 0.25-0.589 0.082-0.219 0.148-0.45 0.207-0.688 0.055-0.234 0.101-0.477 0.129-0.727 0.027-0.246 0.043-0.496 0.039-0.746 0-0.254-0.016-0.504-0.055-0.757-0.035-0.25-0.09-0.497-0.164-0.743-0.074-0.242-0.168-0.48-0.285-0.714z" fill="#fbb227"/>
   <path d="m134.26 58.535h0.93v-0.926h-0.93z" fill="#cf2f25"/>
   <path d="m134.26 57.144h0.93v-0.93h-0.93z" fill="#47d58a"/>
  </g>
  <g transform="matrix(-.26242 -.45887 -.45887 .26242 446.26 291.75)">
   <path d="m133.62 54.82h6.844c0.117 0.164 0.222 0.32 0.293 0.465h-7.43c0.07-0.145 0.176-0.301 0.293-0.465z" fill="#a96f00"/>
   <path d="m134.52 53.894h5.047c0.371 0.289 0.672 0.613 0.899 0.926h-6.844c0.223-0.313 0.527-0.637 0.898-0.926z" fill="#fbb227"/>
   <path d="m138.84 53.429c0.262 0.137 0.512 0.289 0.734 0.465h-5.047c0.219-0.176 0.473-0.328 0.735-0.465z" fill="#ffd179"/>
   <path d="m138.84 53.429h-3.578c0.523-0.277 1.121-0.465 1.789-0.465s1.266 0.188 1.789 0.465z" fill="#ffd179"/>
   <path d="m136.12 61.582 1.848-0.01138-0.0111-3.0352-1.844 0.01628z" fill="#535e70"/>
   <path d="m136.58 55.285v3.757c-0.848 0.133-1.519 0.618-2.144 1.196-0.114-0.211-0.5-0.426-0.586-0.645-0.086-0.226-0.157-0.457-0.211-0.691-0.055-0.235-0.09-0.477-0.114-0.715-0.019-0.242-0.027-0.488-0.015-0.735 0.011-0.242 0.039-0.488 0.086-0.73 0.047-0.246 0.109-0.488 0.187-0.73 0.028-0.082 0.07-0.161 0.102-0.243 0.062-0.156 0.406-0.312 0.484-0.464z" fill="#fbb227"/>
   <path d="m137.51 55.285v3.757c-0.153-0.023-0.305-0.039-0.465-0.039s-0.317 0.016-0.465 0.039v-3.757z" fill="#a96f00"/>
   <path d="m139.79 55.285c0.227 0.277 0.43 0.691 0.504 0.929 0.074 0.242 0.129 0.492 0.168 0.742 0.035 0.25 0.109 0.305 0.113 0.559 0 0.25 0.027 0.496 0 0.742-0.031 0.246-0.176 0.692-0.23 0.93-0.055 0.238-0.125 0.465-0.203 0.687-0.075 0.207-0.383 0.188-0.473 0.375-0.629-0.582-1.309-1.07-2.16-1.207v-3.757z" fill="#fbb227"/>
   <path d="m138.44 58.999h1.855v-3.25h-1.855z" fill="#a96f00"/>
   <path d="m133.79 58.999h1.859v-3.25h-1.859z" fill="#2f3744"/>
   <path d="m134.44 60.238c-0.219 0.199-0.43 0.41-0.645 0.621-1.164-1.555-1.391-3.715-0.461-5.574h1.039c-0.117 0.234-0.219 0.468-0.297 0.71-0.082 0.239-0.144 0.485-0.191 0.727-0.043 0.246-0.07 0.488-0.082 0.734-0.012 0.243-8e-3 0.489 0.015 0.731 0.02 0.242 0.059 0.48 0.114 0.715 0.05 0.238 0.125 0.468 0.211 0.691 0.082 0.223 0.183 0.434 0.297 0.645z" fill="#ffd179"/>
   <path d="m140.76 55.285c0.929 1.859 0.465 4.183-0.465 5.574-0.207-0.207-0.414-0.41-0.625-0.61 0.09-0.187 0.18-0.382 0.25-0.589 0.082-0.219 0.148-0.45 0.207-0.688 0.055-0.234 0.101-0.477 0.129-0.727 0.027-0.246 0.043-0.496 0.039-0.746 0-0.254-0.016-0.504-0.055-0.757-0.035-0.25-0.09-0.497-0.164-0.743-0.074-0.242-0.168-0.48-0.285-0.714z" fill="#fbb227"/>
   <path d="m134.26 58.535h0.93v-0.926h-0.93z" fill="#cf2f25"/>
   <path d="m134.26 57.144h0.93v-0.93h-0.93z" fill="#47d58a"/>
  </g>
  <g transform="matrix(-.066839 -.52436 -.52436 .066839 431.15 311.92)">
   <path d="m133.62 54.82h6.844c0.117 0.164 0.222 0.32 0.293 0.465h-7.43c0.07-0.145 0.176-0.301 0.293-0.465z" fill="#a96f00"/>
   <path d="m134.52 53.894h5.047c0.371 0.289 0.672 0.613 0.899 0.926h-6.844c0.223-0.313 0.527-0.637 0.898-0.926z" fill="#fbb227"/>
   <path d="m138.84 53.429c0.262 0.137 0.512 0.289 0.734 0.465h-5.047c0.219-0.176 0.473-0.328 0.735-0.465z" fill="#ffd179"/>
   <path d="m138.84 53.429h-3.578c0.523-0.277 1.121-0.465 1.789-0.465s1.266 0.188 1.789 0.465z" fill="#ffd179"/>
   <path d="m136.12 61.582 1.848-0.01138-0.0111-3.0352-1.844 0.01628z" fill="#535e70"/>
   <path d="m136.58 55.285v3.757c-0.848 0.133-1.519 0.618-2.144 1.196-0.114-0.211-0.5-0.426-0.586-0.645-0.086-0.226-0.157-0.457-0.211-0.691-0.055-0.235-0.09-0.477-0.114-0.715-0.019-0.242-0.027-0.488-0.015-0.735 0.011-0.242 0.039-0.488 0.086-0.73 0.047-0.246 0.109-0.488 0.187-0.73 0.028-0.082 0.07-0.161 0.102-0.243 0.062-0.156 0.406-0.312 0.484-0.464z" fill="#fbb227"/>
   <path d="m137.51 55.285v3.757c-0.153-0.023-0.305-0.039-0.465-0.039s-0.317 0.016-0.465 0.039v-3.757z" fill="#a96f00"/>
   <path d="m139.79 55.285c0.227 0.277 0.43 0.691 0.504 0.929 0.074 0.242 0.129 0.492 0.168 0.742 0.035 0.25 0.109 0.305 0.113 0.559 0 0.25 0.027 0.496 0 0.742-0.031 0.246-0.176 0.692-0.23 0.93-0.055 0.238-0.125 0.465-0.203 0.687-0.075 0.207-0.383 0.188-0.473 0.375-0.629-0.582-1.309-1.07-2.16-1.207v-3.757z" fill="#fbb227"/>
   <path d="m138.44 58.999h1.855v-3.25h-1.855z" fill="#a96f00"/>
   <path d="m133.79 58.999h1.859v-3.25h-1.859z" fill="#2f3744"/>
   <path d="m134.44 60.238c-0.219 0.199-0.43 0.41-0.645 0.621-1.164-1.555-1.391-3.715-0.461-5.574h1.039c-0.117 0.234-0.219 0.468-0.297 0.71-0.082 0.239-0.144 0.485-0.191 0.727-0.043 0.246-0.07 0.488-0.082 0.734-0.012 0.243-8e-3 0.489 0.015 0.731 0.02 0.242 0.059 0.48 0.114 0.715 0.05 0.238 0.125 0.468 0.211 0.691 0.082 0.223 0.183 0.434 0.297 0.645z" fill="#ffd179"/>
   <path d="m140.76 55.285c0.929 1.859 0.465 4.183-0.465 5.574-0.207-0.207-0.414-0.41-0.625-0.61 0.09-0.187 0.18-0.382 0.25-0.589 0.082-0.219 0.148-0.45 0.207-0.688 0.055-0.234 0.101-0.477 0.129-0.727 0.027-0.246 0.043-0.496 0.039-0.746 0-0.254-0.016-0.504-0.055-0.757-0.035-0.25-0.09-0.497-0.164-0.743-0.074-0.242-0.168-0.48-0.285-0.714z" fill="#fbb227"/>
   <path d="m134.26 58.535h0.93v-0.926h-0.93z" fill="#cf2f25"/>
   <path d="m134.26 57.144h0.93v-0.93h-0.93z" fill="#47d58a"/>
  </g>
  <g transform="matrix(.13891 -.51003 -.51003 -.13891 410.07 321.74)">
   <path d="m133.62 54.82h6.844c0.117 0.164 0.222 0.32 0.293 0.465h-7.43c0.07-0.145 0.176-0.301 0.293-0.465z" fill="#a96f00"/>
   <path d="m134.52 53.894h5.047c0.371 0.289 0.672 0.613 0.899 0.926h-6.844c0.223-0.313 0.527-0.637 0.898-0.926z" fill="#fbb227"/>
   <path d="m138.84 53.429c0.262 0.137 0.512 0.289 0.734 0.465h-5.047c0.219-0.176 0.473-0.328 0.735-0.465z" fill="#ffd179"/>
   <path d="m138.84 53.429h-3.578c0.523-0.277 1.121-0.465 1.789-0.465s1.266 0.188 1.789 0.465z" fill="#ffd179"/>
   <path d="m136.12 61.582 1.848-0.01138-0.0111-3.0352-1.844 0.01628z" fill="#535e70"/>
   <path d="m136.58 55.285v3.757c-0.848 0.133-1.519 0.618-2.144 1.196-0.114-0.211-0.5-0.426-0.586-0.645-0.086-0.226-0.157-0.457-0.211-0.691-0.055-0.235-0.09-0.477-0.114-0.715-0.019-0.242-0.027-0.488-0.015-0.735 0.011-0.242 0.039-0.488 0.086-0.73 0.047-0.246 0.109-0.488 0.187-0.73 0.028-0.082 0.07-0.161 0.102-0.243 0.062-0.156 0.406-0.312 0.484-0.464z" fill="#fbb227"/>
   <path d="m137.51 55.285v3.757c-0.153-0.023-0.305-0.039-0.465-0.039s-0.317 0.016-0.465 0.039v-3.757z" fill="#a96f00"/>
   <path d="m139.79 55.285c0.227 0.277 0.43 0.691 0.504 0.929 0.074 0.242 0.129 0.492 0.168 0.742 0.035 0.25 0.109 0.305 0.113 0.559 0 0.25 0.027 0.496 0 0.742-0.031 0.246-0.176 0.692-0.23 0.93-0.055 0.238-0.125 0.465-0.203 0.687-0.075 0.207-0.383 0.188-0.473 0.375-0.629-0.582-1.309-1.07-2.16-1.207v-3.757z" fill="#fbb227"/>
   <path d="m138.44 58.999h1.855v-3.25h-1.855z" fill="#a96f00"/>
   <path d="m133.79 58.999h1.859v-3.25h-1.859z" fill="#2f3744"/>
   <path d="m134.44 60.238c-0.219 0.199-0.43 0.41-0.645 0.621-1.164-1.555-1.391-3.715-0.461-5.574h1.039c-0.117 0.234-0.219 0.468-0.297 0.71-0.082 0.239-0.144 0.485-0.191 0.727-0.043 0.246-0.07 0.488-0.082 0.734-0.012 0.243-8e-3 0.489 0.015 0.731 0.02 0.242 0.059 0.48 0.114 0.715 0.05 0.238 0.125 0.468 0.211 0.691 0.082 0.223 0.183 0.434 0.297 0.645z" fill="#ffd179"/>
   <path d="m140.76 55.285c0.929 1.859 0.465 4.183-0.465 5.574-0.207-0.207-0.414-0.41-0.625-0.61 0.09-0.187 0.18-0.382 0.25-0.589 0.082-0.219 0.148-0.45 0.207-0.688 0.055-0.234 0.101-0.477 0.129-0.727 0.027-0.246 0.043-0.496 0.039-0.746 0-0.254-0.016-0.504-0.055-0.757-0.035-0.25-0.09-0.497-0.164-0.743-0.074-0.242-0.168-0.48-0.285-0.714z" fill="#fbb227"/>
   <path d="m134.26 58.535h0.93v-0.926h-0.93z" fill="#cf2f25"/>
   <path d="m134.26 57.144h0.93v-0.93h-0.93z" fill="#47d58a"/>
  </g>
  <g transform="matrix(.26618 -.45669 -.45669 -.26618 397.52 321.72)">
   <path d="m133.62 54.82h6.844c0.117 0.164 0.222 0.32 0.293 0.465h-7.43c0.07-0.145 0.176-0.301 0.293-0.465z" fill="#a96f00"/>
   <path d="m134.52 53.894h5.047c0.371 0.289 0.672 0.613 0.899 0.926h-6.844c0.223-0.313 0.527-0.637 0.898-0.926z" fill="#fbb227"/>
   <path d="m138.84 53.429c0.262 0.137 0.512 0.289 0.734 0.465h-5.047c0.219-0.176 0.473-0.328 0.735-0.465z" fill="#ffd179"/>
   <path d="m138.84 53.429h-3.578c0.523-0.277 1.121-0.465 1.789-0.465s1.266 0.188 1.789 0.465z" fill="#ffd179"/>
   <path d="m136.12 61.582 1.848-0.01138-0.0111-3.0352-1.844 0.01628z" fill="#535e70"/>
   <path d="m136.58 55.285v3.757c-0.848 0.133-1.519 0.618-2.144 1.196-0.114-0.211-0.5-0.426-0.586-0.645-0.086-0.226-0.157-0.457-0.211-0.691-0.055-0.235-0.09-0.477-0.114-0.715-0.019-0.242-0.027-0.488-0.015-0.735 0.011-0.242 0.039-0.488 0.086-0.73 0.047-0.246 0.109-0.488 0.187-0.73 0.028-0.082 0.07-0.161 0.102-0.243 0.062-0.156 0.406-0.312 0.484-0.464z" fill="#fbb227"/>
   <path d="m137.51 55.285v3.757c-0.153-0.023-0.305-0.039-0.465-0.039s-0.317 0.016-0.465 0.039v-3.757z" fill="#a96f00"/>
   <path d="m139.79 55.285c0.227 0.277 0.43 0.691 0.504 0.929 0.074 0.242 0.129 0.492 0.168 0.742 0.035 0.25 0.109 0.305 0.113 0.559 0 0.25 0.027 0.496 0 0.742-0.031 0.246-0.176 0.692-0.23 0.93-0.055 0.238-0.125 0.465-0.203 0.687-0.075 0.207-0.383 0.188-0.473 0.375-0.629-0.582-1.309-1.07-2.16-1.207v-3.757z" fill="#fbb227"/>
   <path d="m138.44 58.999h1.855v-3.25h-1.855z" fill="#a96f00"/>
   <path d="m133.79 58.999h1.859v-3.25h-1.859z" fill="#2f3744"/>
   <path d="m134.44 60.238c-0.219 0.199-0.43 0.41-0.645 0.621-1.164-1.555-1.391-3.715-0.461-5.574h1.039c-0.117 0.234-0.219 0.468-0.297 0.71-0.082 0.239-0.144 0.485-0.191 0.727-0.043 0.246-0.07 0.488-0.082 0.734-0.012 0.243-8e-3 0.489 0.015 0.731 0.02 0.242 0.059 0.48 0.114 0.715 0.05 0.238 0.125 0.468 0.211 0.691 0.082 0.223 0.183 0.434 0.297 0.645z" fill="#ffd179"/>
   <path d="m140.76 55.285c0.929 1.859 0.465 4.183-0.465 5.574-0.207-0.207-0.414-0.41-0.625-0.61 0.09-0.187 0.18-0.382 0.25-0.589 0.082-0.219 0.148-0.45 0.207-0.688 0.055-0.234 0.101-0.477 0.129-0.727 0.027-0.246 0.043-0.496 0.039-0.746 0-0.254-0.016-0.504-0.055-0.757-0.035-0.25-0.09-0.497-0.164-0.743-0.074-0.242-0.168-0.48-0.285-0.714z" fill="#fbb227"/>
   <path d="m134.26 58.535h0.93v-0.926h-0.93z" fill="#cf2f25"/>
   <path d="m134.26 57.144h0.93v-0.93h-0.93z" fill="#47d58a"/>
  </g>
  <g transform="matrix(.42069 -.32007 -.32007 -.42069 376.46 311.85)">
   <path d="m133.62 54.82h6.844c0.117 0.164 0.222 0.32 0.293 0.465h-7.43c0.07-0.145 0.176-0.301 0.293-0.465z" fill="#a96f00"/>
   <path d="m134.52 53.894h5.047c0.371 0.289 0.672 0.613 0.899 0.926h-6.844c0.223-0.313 0.527-0.637 0.898-0.926z" fill="#fbb227"/>
   <path d="m138.84 53.429c0.262 0.137 0.512 0.289 0.734 0.465h-5.047c0.219-0.176 0.473-0.328 0.735-0.465z" fill="#ffd179"/>
   <path d="m138.84 53.429h-3.578c0.523-0.277 1.121-0.465 1.789-0.465s1.266 0.188 1.789 0.465z" fill="#ffd179"/>
   <path d="m136.12 61.582 1.848-0.01138-0.0111-3.0352-1.844 0.01628z" fill="#535e70"/>
   <path d="m136.58 55.285v3.757c-0.848 0.133-1.519 0.618-2.144 1.196-0.114-0.211-0.5-0.426-0.586-0.645-0.086-0.226-0.157-0.457-0.211-0.691-0.055-0.235-0.09-0.477-0.114-0.715-0.019-0.242-0.027-0.488-0.015-0.735 0.011-0.242 0.039-0.488 0.086-0.73 0.047-0.246 0.109-0.488 0.187-0.73 0.028-0.082 0.07-0.161 0.102-0.243 0.062-0.156 0.406-0.312 0.484-0.464z" fill="#fbb227"/>
   <path d="m137.51 55.285v3.757c-0.153-0.023-0.305-0.039-0.465-0.039s-0.317 0.016-0.465 0.039v-3.757z" fill="#a96f00"/>
   <path d="m139.79 55.285c0.227 0.277 0.43 0.691 0.504 0.929 0.074 0.242 0.129 0.492 0.168 0.742 0.035 0.25 0.109 0.305 0.113 0.559 0 0.25 0.027 0.496 0 0.742-0.031 0.246-0.176 0.692-0.23 0.93-0.055 0.238-0.125 0.465-0.203 0.687-0.075 0.207-0.383 0.188-0.473 0.375-0.629-0.582-1.309-1.07-2.16-1.207v-3.757z" fill="#fbb227"/>
   <path d="m138.44 58.999h1.855v-3.25h-1.855z" fill="#a96f00"/>
   <path d="m133.79 58.999h1.859v-3.25h-1.859z" fill="#2f3744"/>
   <path d="m134.44 60.238c-0.219 0.199-0.43 0.41-0.645 0.621-1.164-1.555-1.391-3.715-0.461-5.574h1.039c-0.117 0.234-0.219 0.468-0.297 0.71-0.082 0.239-0.144 0.485-0.191 0.727-0.043 0.246-0.07 0.488-0.082 0.734-0.012 0.243-8e-3 0.489 0.015 0.731 0.02 0.242 0.059 0.48 0.114 0.715 0.05 0.238 0.125 0.468 0.211 0.691 0.082 0.223 0.183 0.434 0.297 0.645z" fill="#ffd179"/>
   <path d="m140.76 55.285c0.929 1.859 0.465 4.183-0.465 5.574-0.207-0.207-0.414-0.41-0.625-0.61 0.09-0.187 0.18-0.382 0.25-0.589 0.082-0.219 0.148-0.45 0.207-0.688 0.055-0.234 0.101-0.477 0.129-0.727 0.027-0.246 0.043-0.496 0.039-0.746 0-0.254-0.016-0.504-0.055-0.757-0.035-0.25-0.09-0.497-0.164-0.743-0.074-0.242-0.168-0.48-0.285-0.714z" fill="#fbb227"/>
   <path d="m134.26 58.535h0.93v-0.926h-0.93z" fill="#cf2f25"/>
   <path d="m134.26 57.144h0.93v-0.93h-0.93z" fill="#47d58a"/>
  </g>
  <g transform="matrix(.49612 -.18245 -.18245 -.49612 366.18 297.32)">
   <path d="m133.62 54.82h6.844c0.117 0.164 0.222 0.32 0.293 0.465h-7.43c0.07-0.145 0.176-0.301 0.293-0.465z" fill="#a96f00"/>
   <path d="m134.52 53.894h5.047c0.371 0.289 0.672 0.613 0.899 0.926h-6.844c0.223-0.313 0.527-0.637 0.898-0.926z" fill="#fbb227"/>
   <path d="m138.84 53.429c0.262 0.137 0.512 0.289 0.734 0.465h-5.047c0.219-0.176 0.473-0.328 0.735-0.465z" fill="#ffd179"/>
   <path d="m138.84 53.429h-3.578c0.523-0.277 1.121-0.465 1.789-0.465s1.266 0.188 1.789 0.465z" fill="#ffd179"/>
   <path d="m136.12 61.582 1.848-0.01138-0.0111-3.0352-1.844 0.01628z" fill="#535e70"/>
   <path d="m136.58 55.285v3.757c-0.848 0.133-1.519 0.618-2.144 1.196-0.114-0.211-0.5-0.426-0.586-0.645-0.086-0.226-0.157-0.457-0.211-0.691-0.055-0.235-0.09-0.477-0.114-0.715-0.019-0.242-0.027-0.488-0.015-0.735 0.011-0.242 0.039-0.488 0.086-0.73 0.047-0.246 0.109-0.488 0.187-0.73 0.028-0.082 0.07-0.161 0.102-0.243 0.062-0.156 0.406-0.312 0.484-0.464z" fill="#fbb227"/>
   <path d="m137.51 55.285v3.757c-0.153-0.023-0.305-0.039-0.465-0.039s-0.317 0.016-0.465 0.039v-3.757z" fill="#a96f00"/>
   <path d="m139.79 55.285c0.227 0.277 0.43 0.691 0.504 0.929 0.074 0.242 0.129 0.492 0.168 0.742 0.035 0.25 0.109 0.305 0.113 0.559 0 0.25 0.027 0.496 0 0.742-0.031 0.246-0.176 0.692-0.23 0.93-0.055 0.238-0.125 0.465-0.203 0.687-0.075 0.207-0.383 0.188-0.473 0.375-0.629-0.582-1.309-1.07-2.16-1.207v-3.757z" fill="#fbb227"/>
   <path d="m138.44 58.999h1.855v-3.25h-1.855z" fill="#a96f00"/>
   <path d="m133.79 58.999h1.859v-3.25h-1.859z" fill="#2f3744"/>
   <path d="m134.44 60.238c-0.219 0.199-0.43 0.41-0.645 0.621-1.164-1.555-1.391-3.715-0.461-5.574h1.039c-0.117 0.234-0.219 0.468-0.297 0.71-0.082 0.239-0.144 0.485-0.191 0.727-0.043 0.246-0.07 0.488-0.082 0.734-0.012 0.243-8e-3 0.489 0.015 0.731 0.02 0.242 0.059 0.48 0.114 0.715 0.05 0.238 0.125 0.468 0.211 0.691 0.082 0.223 0.183 0.434 0.297 0.645z" fill="#ffd179"/>
   <path d="m140.76 55.285c0.929 1.859 0.465 4.183-0.465 5.574-0.207-0.207-0.414-0.41-0.625-0.61 0.09-0.187 0.18-0.382 0.25-0.589 0.082-0.219 0.148-0.45 0.207-0.688 0.055-0.234 0.101-0.477 0.129-0.727 0.027-0.246 0.043-0.496 0.039-0.746 0-0.254-0.016-0.504-0.055-0.757-0.035-0.25-0.09-0.497-0.164-0.743-0.074-0.242-0.168-0.48-0.285-0.714z" fill="#fbb227"/>
   <path d="m134.26 58.535h0.93v-0.926h-0.93z" fill="#cf2f25"/>
   <path d="m134.26 57.144h0.93v-0.93h-0.93z" fill="#47d58a"/>
  </g>
  <g transform="matrix(.5286 .0021758 .0021758 -.5286 359.1 273.88)">
   <path d="m133.62 54.82h6.844c0.117 0.164 0.222 0.32 0.293 0.465h-7.43c0.07-0.145 0.176-0.301 0.293-0.465z" fill="#a96f00"/>
   <path d="m134.52 53.894h5.047c0.371 0.289 0.672 0.613 0.899 0.926h-6.844c0.223-0.313 0.527-0.637 0.898-0.926z" fill="#fbb227"/>
   <path d="m138.84 53.429c0.262 0.137 0.512 0.289 0.734 0.465h-5.047c0.219-0.176 0.473-0.328 0.735-0.465z" fill="#ffd179"/>
   <path d="m138.84 53.429h-3.578c0.523-0.277 1.121-0.465 1.789-0.465s1.266 0.188 1.789 0.465z" fill="#ffd179"/>
   <path d="m136.12 61.582 1.848-0.01138-0.0111-3.0352-1.844 0.01628z" fill="#535e70"/>
   <path d="m136.58 55.285v3.757c-0.848 0.133-1.519 0.618-2.144 1.196-0.114-0.211-0.5-0.426-0.586-0.645-0.086-0.226-0.157-0.457-0.211-0.691-0.055-0.235-0.09-0.477-0.114-0.715-0.019-0.242-0.027-0.488-0.015-0.735 0.011-0.242 0.039-0.488 0.086-0.73 0.047-0.246 0.109-0.488 0.187-0.73 0.028-0.082 0.07-0.161 0.102-0.243 0.062-0.156 0.406-0.312 0.484-0.464z" fill="#fbb227"/>
   <path d="m137.51 55.285v3.757c-0.153-0.023-0.305-0.039-0.465-0.039s-0.317 0.016-0.465 0.039v-3.757z" fill="#a96f00"/>
   <path d="m139.79 55.285c0.227 0.277 0.43 0.691 0.504 0.929 0.074 0.242 0.129 0.492 0.168 0.742 0.035 0.25 0.109 0.305 0.113 0.559 0 0.25 0.027 0.496 0 0.742-0.031 0.246-0.176 0.692-0.23 0.93-0.055 0.238-0.125 0.465-0.203 0.687-0.075 0.207-0.383 0.188-0.473 0.375-0.629-0.582-1.309-1.07-2.16-1.207v-3.757z" fill="#fbb227"/>
   <path d="m138.44 58.999h1.855v-3.25h-1.855z" fill="#a96f00"/>
   <path d="m133.79 58.999h1.859v-3.25h-1.859z" fill="#2f3744"/>
   <path d="m134.44 60.238c-0.219 0.199-0.43 0.41-0.645 0.621-1.164-1.555-1.391-3.715-0.461-5.574h1.039c-0.117 0.234-0.219 0.468-0.297 0.71-0.082 0.239-0.144 0.485-0.191 0.727-0.043 0.246-0.07 0.488-0.082 0.734-0.012 0.243-8e-3 0.489 0.015 0.731 0.02 0.242 0.059 0.48 0.114 0.715 0.05 0.238 0.125 0.468 0.211 0.691 0.082 0.223 0.183 0.434 0.297 0.645z" fill="#ffd179"/>
   <path d="m140.76 55.285c0.929 1.859 0.465 4.183-0.465 5.574-0.207-0.207-0.414-0.41-0.625-0.61 0.09-0.187 0.18-0.382 0.25-0.589 0.082-0.219 0.148-0.45 0.207-0.688 0.055-0.234 0.101-0.477 0.129-0.727 0.027-0.246 0.043-0.496 0.039-0.746 0-0.254-0.016-0.504-0.055-0.757-0.035-0.25-0.09-0.497-0.164-0.743-0.074-0.242-0.168-0.48-0.285-0.714z" fill="#fbb227"/>
   <path d="m134.26 58.535h0.93v-0.926h-0.93z" fill="#cf2f25"/>
   <path d="m134.26 57.144h0.93v-0.93h-0.93z" fill="#47d58a"/>
  </g>
  <g transform="matrix(.41804 .32352 .32352 -.41804 363.78 223.52)">
   <path d="m133.62 54.82h6.844c0.117 0.164 0.222 0.32 0.293 0.465h-7.43c0.07-0.145 0.176-0.301 0.293-0.465z" fill="#a96f00"/>
   <path d="m134.52 53.894h5.047c0.371 0.289 0.672 0.613 0.899 0.926h-6.844c0.223-0.313 0.527-0.637 0.898-0.926z" fill="#fbb227"/>
   <path d="m138.84 53.429c0.262 0.137 0.512 0.289 0.734 0.465h-5.047c0.219-0.176 0.473-0.328 0.735-0.465z" fill="#ffd179"/>
   <path d="m138.84 53.429h-3.578c0.523-0.277 1.121-0.465 1.789-0.465s1.266 0.188 1.789 0.465z" fill="#ffd179"/>
   <path d="m136.12 61.582 1.848-0.01138-0.0111-3.0352-1.844 0.01628z" fill="#535e70"/>
   <path d="m136.58 55.285v3.757c-0.848 0.133-1.519 0.618-2.144 1.196-0.114-0.211-0.5-0.426-0.586-0.645-0.086-0.226-0.157-0.457-0.211-0.691-0.055-0.235-0.09-0.477-0.114-0.715-0.019-0.242-0.027-0.488-0.015-0.735 0.011-0.242 0.039-0.488 0.086-0.73 0.047-0.246 0.109-0.488 0.187-0.73 0.028-0.082 0.07-0.161 0.102-0.243 0.062-0.156 0.406-0.312 0.484-0.464z" fill="#fbb227"/>
   <path d="m137.51 55.285v3.757c-0.153-0.023-0.305-0.039-0.465-0.039s-0.317 0.016-0.465 0.039v-3.757z" fill="#a96f00"/>
   <path d="m139.79 55.285c0.227 0.277 0.43 0.691 0.504 0.929 0.074 0.242 0.129 0.492 0.168 0.742 0.035 0.25 0.109 0.305 0.113 0.559 0 0.25 0.027 0.496 0 0.742-0.031 0.246-0.176 0.692-0.23 0.93-0.055 0.238-0.125 0.465-0.203 0.687-0.075 0.207-0.383 0.188-0.473 0.375-0.629-0.582-1.309-1.07-2.16-1.207v-3.757z" fill="#fbb227"/>
   <path d="m138.44 58.999h1.855v-3.25h-1.855z" fill="#a96f00"/>
   <path d="m133.79 58.999h1.859v-3.25h-1.859z" fill="#2f3744"/>
   <path d="m134.44 60.238c-0.219 0.199-0.43 0.41-0.645 0.621-1.164-1.555-1.391-3.715-0.461-5.574h1.039c-0.117 0.234-0.219 0.468-0.297 0.71-0.082 0.239-0.144 0.485-0.191 0.727-0.043 0.246-0.07 0.488-0.082 0.734-0.012 0.243-8e-3 0.489 0.015 0.731 0.02 0.242 0.059 0.48 0.114 0.715 0.05 0.238 0.125 0.468 0.211 0.691 0.082 0.223 0.183 0.434 0.297 0.645z" fill="#ffd179"/>
   <path d="m140.76 55.285c0.929 1.859 0.465 4.183-0.465 5.574-0.207-0.207-0.414-0.41-0.625-0.61 0.09-0.187 0.18-0.382 0.25-0.589 0.082-0.219 0.148-0.45 0.207-0.688 0.055-0.234 0.101-0.477 0.129-0.727 0.027-0.246 0.043-0.496 0.039-0.746 0-0.254-0.016-0.504-0.055-0.757-0.035-0.25-0.09-0.497-0.164-0.743-0.074-0.242-0.168-0.48-0.285-0.714z" fill="#fbb227"/>
   <path d="m134.26 58.535h0.93v-0.926h-0.93z" fill="#cf2f25"/>
   <path d="m134.26 57.144h0.93v-0.93h-0.93z" fill="#47d58a"/>
  </g>
  <g transform="matrix(-.5286 -.0021758 -.0021758 .5286 448.63 198.05)">
   <path d="m133.62 54.82h6.844c0.117 0.164 0.222 0.32 0.293 0.465h-7.43c0.07-0.145 0.176-0.301 0.293-0.465z" fill="#a96f00"/>
   <path d="m134.52 53.894h5.047c0.371 0.289 0.672 0.613 0.899 0.926h-6.844c0.223-0.313 0.527-0.637 0.898-0.926z" fill="#fbb227"/>
   <path d="m138.84 53.429c0.262 0.137 0.512 0.289 0.734 0.465h-5.047c0.219-0.176 0.473-0.328 0.735-0.465z" fill="#ffd179"/>
   <path d="m138.84 53.429h-3.578c0.523-0.277 1.121-0.465 1.789-0.465s1.266 0.188 1.789 0.465z" fill="#ffd179"/>
   <path d="m136.12 61.582 1.848-0.01138-0.0111-3.0352-1.844 0.01628z" fill="#535e70"/>
   <path d="m136.58 55.285v3.757c-0.848 0.133-1.519 0.618-2.144 1.196-0.114-0.211-0.5-0.426-0.586-0.645-0.086-0.226-0.157-0.457-0.211-0.691-0.055-0.235-0.09-0.477-0.114-0.715-0.019-0.242-0.027-0.488-0.015-0.735 0.011-0.242 0.039-0.488 0.086-0.73 0.047-0.246 0.109-0.488 0.187-0.73 0.028-0.082 0.07-0.161 0.102-0.243 0.062-0.156 0.406-0.312 0.484-0.464z" fill="#fbb227"/>
   <path d="m137.51 55.285v3.757c-0.153-0.023-0.305-0.039-0.465-0.039s-0.317 0.016-0.465 0.039v-3.757z" fill="#a96f00"/>
   <path d="m139.79 55.285c0.227 0.277 0.43 0.691 0.504 0.929 0.074 0.242 0.129 0.492 0.168 0.742 0.035 0.25 0.109 0.305 0.113 0.559 0 0.25 0.027 0.496 0 0.742-0.031 0.246-0.176 0.692-0.23 0.93-0.055 0.238-0.125 0.465-0.203 0.687-0.075 0.207-0.383 0.188-0.473 0.375-0.629-0.582-1.309-1.07-2.16-1.207v-3.757z" fill="#fbb227"/>
   <path d="m138.44 58.999h1.855v-3.25h-1.855z" fill="#a96f00"/>
   <path d="m133.79 58.999h1.859v-3.25h-1.859z" fill="#2f3744"/>
   <path d="m134.44 60.238c-0.219 0.199-0.43 0.41-0.645 0.621-1.164-1.555-1.391-3.715-0.461-5.574h1.039c-0.117 0.234-0.219 0.468-0.297 0.71-0.082 0.239-0.144 0.485-0.191 0.727-0.043 0.246-0.07 0.488-0.082 0.734-0.012 0.243-8e-3 0.489 0.015 0.731 0.02 0.242 0.059 0.48 0.114 0.715 0.05 0.238 0.125 0.468 0.211 0.691 0.082 0.223 0.183 0.434 0.297 0.645z" fill="#ffd179"/>
   <path d="m140.76 55.285c0.929 1.859 0.465 4.183-0.465 5.574-0.207-0.207-0.414-0.41-0.625-0.61 0.09-0.187 0.18-0.382 0.25-0.589 0.082-0.219 0.148-0.45 0.207-0.688 0.055-0.234 0.101-0.477 0.129-0.727 0.027-0.246 0.043-0.496 0.039-0.746 0-0.254-0.016-0.504-0.055-0.757-0.035-0.25-0.09-0.497-0.164-0.743-0.074-0.242-0.168-0.48-0.285-0.714z" fill="#fbb227"/>
   <path d="m134.26 58.535h0.93v-0.926h-0.93z" fill="#cf2f25"/>
   <path d="m134.26 57.144h0.93v-0.93h-0.93z" fill="#47d58a"/>
  </g>
  <g transform="matrix(-.5286 -.0021758 -.0021758 .5286 456.57 198.05)">
   <path d="m133.62 54.82h6.844c0.117 0.164 0.222 0.32 0.293 0.465h-7.43c0.07-0.145 0.176-0.301 0.293-0.465z" fill="#a96f00"/>
   <path d="m134.52 53.894h5.047c0.371 0.289 0.672 0.613 0.899 0.926h-6.844c0.223-0.313 0.527-0.637 0.898-0.926z" fill="#fbb227"/>
   <path d="m138.84 53.429c0.262 0.137 0.512 0.289 0.734 0.465h-5.047c0.219-0.176 0.473-0.328 0.735-0.465z" fill="#ffd179"/>
   <path d="m138.84 53.429h-3.578c0.523-0.277 1.121-0.465 1.789-0.465s1.266 0.188 1.789 0.465z" fill="#ffd179"/>
   <path d="m136.12 61.582 1.848-0.01138-0.0111-3.0352-1.844 0.01628z" fill="#535e70"/>
   <path d="m136.58 55.285v3.757c-0.848 0.133-1.519 0.618-2.144 1.196-0.114-0.211-0.5-0.426-0.586-0.645-0.086-0.226-0.157-0.457-0.211-0.691-0.055-0.235-0.09-0.477-0.114-0.715-0.019-0.242-0.027-0.488-0.015-0.735 0.011-0.242 0.039-0.488 0.086-0.73 0.047-0.246 0.109-0.488 0.187-0.73 0.028-0.082 0.07-0.161 0.102-0.243 0.062-0.156 0.406-0.312 0.484-0.464z" fill="#fbb227"/>
   <path d="m137.51 55.285v3.757c-0.153-0.023-0.305-0.039-0.465-0.039s-0.317 0.016-0.465 0.039v-3.757z" fill="#a96f00"/>
   <path d="m139.79 55.285c0.227 0.277 0.43 0.691 0.504 0.929 0.074 0.242 0.129 0.492 0.168 0.742 0.035 0.25 0.109 0.305 0.113 0.559 0 0.25 0.027 0.496 0 0.742-0.031 0.246-0.176 0.692-0.23 0.93-0.055 0.238-0.125 0.465-0.203 0.687-0.075 0.207-0.383 0.188-0.473 0.375-0.629-0.582-1.309-1.07-2.16-1.207v-3.757z" fill="#fbb227"/>
   <path d="m138.44 58.999h1.855v-3.25h-1.855z" fill="#a96f00"/>
   <path d="m133.79 58.999h1.859v-3.25h-1.859z" fill="#2f3744"/>
   <path d="m134.44 60.238c-0.219 0.199-0.43 0.41-0.645 0.621-1.164-1.555-1.391-3.715-0.461-5.574h1.039c-0.117 0.234-0.219 0.468-0.297 0.71-0.082 0.239-0.144 0.485-0.191 0.727-0.043 0.246-0.07 0.488-0.082 0.734-0.012 0.243-8e-3 0.489 0.015 0.731 0.02 0.242 0.059 0.48 0.114 0.715 0.05 0.238 0.125 0.468 0.211 0.691 0.082 0.223 0.183 0.434 0.297 0.645z" fill="#ffd179"/>
   <path d="m140.76 55.285c0.929 1.859 0.465 4.183-0.465 5.574-0.207-0.207-0.414-0.41-0.625-0.61 0.09-0.187 0.18-0.382 0.25-0.589 0.082-0.219 0.148-0.45 0.207-0.688 0.055-0.234 0.101-0.477 0.129-0.727 0.027-0.246 0.043-0.496 0.039-0.746 0-0.254-0.016-0.504-0.055-0.757-0.035-0.25-0.09-0.497-0.164-0.743-0.074-0.242-0.168-0.48-0.285-0.714z" fill="#fbb227"/>
   <path d="m134.26 58.535h0.93v-0.926h-0.93z" fill="#cf2f25"/>
   <path d="m134.26 57.144h0.93v-0.93h-0.93z" fill="#47d58a"/>
  </g>
  <g transform="matrix(-.26242 -.45887 -.45887 .26242 454.2 275.87)">
   <path d="m133.62 54.82h6.844c0.117 0.164 0.222 0.32 0.293 0.465h-7.43c0.07-0.145 0.176-0.301 0.293-0.465z" fill="#a96f00"/>
   <path d="m134.52 53.894h5.047c0.371 0.289 0.672 0.613 0.899 0.926h-6.844c0.223-0.313 0.527-0.637 0.898-0.926z" fill="#fbb227"/>
   <path d="m138.84 53.429c0.262 0.137 0.512 0.289 0.734 0.465h-5.047c0.219-0.176 0.473-0.328 0.735-0.465z" fill="#ffd179"/>
   <path d="m138.84 53.429h-3.578c0.523-0.277 1.121-0.465 1.789-0.465s1.266 0.188 1.789 0.465z" fill="#ffd179"/>
   <path d="m136.12 61.582 1.848-0.01138-0.0111-3.0352-1.844 0.01628z" fill="#535e70"/>
   <path d="m136.58 55.285v3.757c-0.848 0.133-1.519 0.618-2.144 1.196-0.114-0.211-0.5-0.426-0.586-0.645-0.086-0.226-0.157-0.457-0.211-0.691-0.055-0.235-0.09-0.477-0.114-0.715-0.019-0.242-0.027-0.488-0.015-0.735 0.011-0.242 0.039-0.488 0.086-0.73 0.047-0.246 0.109-0.488 0.187-0.73 0.028-0.082 0.07-0.161 0.102-0.243 0.062-0.156 0.406-0.312 0.484-0.464z" fill="#fbb227"/>
   <path d="m137.51 55.285v3.757c-0.153-0.023-0.305-0.039-0.465-0.039s-0.317 0.016-0.465 0.039v-3.757z" fill="#a96f00"/>
   <path d="m139.79 55.285c0.227 0.277 0.43 0.691 0.504 0.929 0.074 0.242 0.129 0.492 0.168 0.742 0.035 0.25 0.109 0.305 0.113 0.559 0 0.25 0.027 0.496 0 0.742-0.031 0.246-0.176 0.692-0.23 0.93-0.055 0.238-0.125 0.465-0.203 0.687-0.075 0.207-0.383 0.188-0.473 0.375-0.629-0.582-1.309-1.07-2.16-1.207v-3.757z" fill="#fbb227"/>
   <path d="m138.44 58.999h1.855v-3.25h-1.855z" fill="#a96f00"/>
   <path d="m133.79 58.999h1.859v-3.25h-1.859z" fill="#2f3744"/>
   <path d="m134.44 60.238c-0.219 0.199-0.43 0.41-0.645 0.621-1.164-1.555-1.391-3.715-0.461-5.574h1.039c-0.117 0.234-0.219 0.468-0.297 0.71-0.082 0.239-0.144 0.485-0.191 0.727-0.043 0.246-0.07 0.488-0.082 0.734-0.012 0.243-8e-3 0.489 0.015 0.731 0.02 0.242 0.059 0.48 0.114 0.715 0.05 0.238 0.125 0.468 0.211 0.691 0.082 0.223 0.183 0.434 0.297 0.645z" fill="#ffd179"/>
   <path d="m140.76 55.285c0.929 1.859 0.465 4.183-0.465 5.574-0.207-0.207-0.414-0.41-0.625-0.61 0.09-0.187 0.18-0.382 0.25-0.589 0.082-0.219 0.148-0.45 0.207-0.688 0.055-0.234 0.101-0.477 0.129-0.727 0.027-0.246 0.043-0.496 0.039-0.746 0-0.254-0.016-0.504-0.055-0.757-0.035-0.25-0.09-0.497-0.164-0.743-0.074-0.242-0.168-0.48-0.285-0.714z" fill="#fbb227"/>
   <path d="m134.26 58.535h0.93v-0.926h-0.93z" fill="#cf2f25"/>
   <path d="m134.26 57.144h0.93v-0.93h-0.93z" fill="#47d58a"/>
  </g>
  <g transform="matrix(-.26242 -.45887 -.45887 .26242 462.13 275.87)">
   <path d="m133.62 54.82h6.844c0.117 0.164 0.222 0.32 0.293 0.465h-7.43c0.07-0.145 0.176-0.301 0.293-0.465z" fill="#a96f00"/>
   <path d="m134.52 53.894h5.047c0.371 0.289 0.672 0.613 0.899 0.926h-6.844c0.223-0.313 0.527-0.637 0.898-0.926z" fill="#fbb227"/>
   <path d="m138.84 53.429c0.262 0.137 0.512 0.289 0.734 0.465h-5.047c0.219-0.176 0.473-0.328 0.735-0.465z" fill="#ffd179"/>
   <path d="m138.84 53.429h-3.578c0.523-0.277 1.121-0.465 1.789-0.465s1.266 0.188 1.789 0.465z" fill="#ffd179"/>
   <path d="m136.12 61.582 1.848-0.01138-0.0111-3.0352-1.844 0.01628z" fill="#535e70"/>
   <path d="m136.58 55.285v3.757c-0.848 0.133-1.519 0.618-2.144 1.196-0.114-0.211-0.5-0.426-0.586-0.645-0.086-0.226-0.157-0.457-0.211-0.691-0.055-0.235-0.09-0.477-0.114-0.715-0.019-0.242-0.027-0.488-0.015-0.735 0.011-0.242 0.039-0.488 0.086-0.73 0.047-0.246 0.109-0.488 0.187-0.73 0.028-0.082 0.07-0.161 0.102-0.243 0.062-0.156 0.406-0.312 0.484-0.464z" fill="#fbb227"/>
   <path d="m137.51 55.285v3.757c-0.153-0.023-0.305-0.039-0.465-0.039s-0.317 0.016-0.465 0.039v-3.757z" fill="#a96f00"/>
   <path d="m139.79 55.285c0.227 0.277 0.43 0.691 0.504 0.929 0.074 0.242 0.129 0.492 0.168 0.742 0.035 0.25 0.109 0.305 0.113 0.559 0 0.25 0.027 0.496 0 0.742-0.031 0.246-0.176 0.692-0.23 0.93-0.055 0.238-0.125 0.465-0.203 0.687-0.075 0.207-0.383 0.188-0.473 0.375-0.629-0.582-1.309-1.07-2.16-1.207v-3.757z" fill="#fbb227"/>
   <path d="m138.44 58.999h1.855v-3.25h-1.855z" fill="#a96f00"/>
   <path d="m133.79 58.999h1.859v-3.25h-1.859z" fill="#2f3744"/>
   <path d="m134.44 60.238c-0.219 0.199-0.43 0.41-0.645 0.621-1.164-1.555-1.391-3.715-0.461-5.574h1.039c-0.117 0.234-0.219 0.468-0.297 0.71-0.082 0.239-0.144 0.485-0.191 0.727-0.043 0.246-0.07 0.488-0.082 0.734-0.012 0.243-8e-3 0.489 0.015 0.731 0.02 0.242 0.059 0.48 0.114 0.715 0.05 0.238 0.125 0.468 0.211 0.691 0.082 0.223 0.183 0.434 0.297 0.645z" fill="#ffd179"/>
   <path d="m140.76 55.285c0.929 1.859 0.465 4.183-0.465 5.574-0.207-0.207-0.414-0.41-0.625-0.61 0.09-0.187 0.18-0.382 0.25-0.589 0.082-0.219 0.148-0.45 0.207-0.688 0.055-0.234 0.101-0.477 0.129-0.727 0.027-0.246 0.043-0.496 0.039-0.746 0-0.254-0.016-0.504-0.055-0.757-0.035-0.25-0.09-0.497-0.164-0.743-0.074-0.242-0.168-0.48-0.285-0.714z" fill="#fbb227"/>
   <path d="m134.26 58.535h0.93v-0.926h-0.93z" fill="#cf2f25"/>
   <path d="m134.26 57.144h0.93v-0.93h-0.93z" fill="#47d58a"/>
  </g>
  <g transform="matrix(-.26242 -.45887 -.45887 .26242 470.07 275.87)">
   <path d="m133.62 54.82h6.844c0.117 0.164 0.222 0.32 0.293 0.465h-7.43c0.07-0.145 0.176-0.301 0.293-0.465z" fill="#a96f00"/>
   <path d="m134.52 53.894h5.047c0.371 0.289 0.672 0.613 0.899 0.926h-6.844c0.223-0.313 0.527-0.637 0.898-0.926z" fill="#fbb227"/>
   <path d="m138.84 53.429c0.262 0.137 0.512 0.289 0.734 0.465h-5.047c0.219-0.176 0.473-0.328 0.735-0.465z" fill="#ffd179"/>
   <path d="m138.84 53.429h-3.578c0.523-0.277 1.121-0.465 1.789-0.465s1.266 0.188 1.789 0.465z" fill="#ffd179"/>
   <path d="m136.12 61.582 1.848-0.01138-0.0111-3.0352-1.844 0.01628z" fill="#535e70"/>
   <path d="m136.58 55.285v3.757c-0.848 0.133-1.519 0.618-2.144 1.196-0.114-0.211-0.5-0.426-0.586-0.645-0.086-0.226-0.157-0.457-0.211-0.691-0.055-0.235-0.09-0.477-0.114-0.715-0.019-0.242-0.027-0.488-0.015-0.735 0.011-0.242 0.039-0.488 0.086-0.73 0.047-0.246 0.109-0.488 0.187-0.73 0.028-0.082 0.07-0.161 0.102-0.243 0.062-0.156 0.406-0.312 0.484-0.464z" fill="#fbb227"/>
   <path d="m137.51 55.285v3.757c-0.153-0.023-0.305-0.039-0.465-0.039s-0.317 0.016-0.465 0.039v-3.757z" fill="#a96f00"/>
   <path d="m139.79 55.285c0.227 0.277 0.43 0.691 0.504 0.929 0.074 0.242 0.129 0.492 0.168 0.742 0.035 0.25 0.109 0.305 0.113 0.559 0 0.25 0.027 0.496 0 0.742-0.031 0.246-0.176 0.692-0.23 0.93-0.055 0.238-0.125 0.465-0.203 0.687-0.075 0.207-0.383 0.188-0.473 0.375-0.629-0.582-1.309-1.07-2.16-1.207v-3.757z" fill="#fbb227"/>
   <path d="m138.44 58.999h1.855v-3.25h-1.855z" fill="#a96f00"/>
   <path d="m133.79 58.999h1.859v-3.25h-1.859z" fill="#2f3744"/>
   <path d="m134.44 60.238c-0.219 0.199-0.43 0.41-0.645 0.621-1.164-1.555-1.391-3.715-0.461-5.574h1.039c-0.117 0.234-0.219 0.468-0.297 0.71-0.082 0.239-0.144 0.485-0.191 0.727-0.043 0.246-0.07 0.488-0.082 0.734-0.012 0.243-8e-3 0.489 0.015 0.731 0.02 0.242 0.059 0.48 0.114 0.715 0.05 0.238 0.125 0.468 0.211 0.691 0.082 0.223 0.183 0.434 0.297 0.645z" fill="#ffd179"/>
   <path d="m140.76 55.285c0.929 1.859 0.465 4.183-0.465 5.574-0.207-0.207-0.414-0.41-0.625-0.61 0.09-0.187 0.18-0.382 0.25-0.589 0.082-0.219 0.148-0.45 0.207-0.688 0.055-0.234 0.101-0.477 0.129-0.727 0.027-0.246 0.043-0.496 0.039-0.746 0-0.254-0.016-0.504-0.055-0.757-0.035-0.25-0.09-0.497-0.164-0.743-0.074-0.242-0.168-0.48-0.285-0.714z" fill="#fbb227"/>
   <path d="m134.26 58.535h0.93v-0.926h-0.93z" fill="#cf2f25"/>
   <path d="m134.26 57.144h0.93v-0.93h-0.93z" fill="#47d58a"/>
  </g>
  <g transform="matrix(.26618 -.45669 -.45669 -.26618 405.46 305.85)">
   <path d="m133.62 54.82h6.844c0.117 0.164 0.222 0.32 0.293 0.465h-7.43c0.07-0.145 0.176-0.301 0.293-0.465z" fill="#a96f00"/>
   <path d="m134.52 53.894h5.047c0.371 0.289 0.672 0.613 0.899 0.926h-6.844c0.223-0.313 0.527-0.637 0.898-0.926z" fill="#fbb227"/>
   <path d="m138.84 53.429c0.262 0.137 0.512 0.289 0.734 0.465h-5.047c0.219-0.176 0.473-0.328 0.735-0.465z" fill="#ffd179"/>
   <path d="m138.84 53.429h-3.578c0.523-0.277 1.121-0.465 1.789-0.465s1.266 0.188 1.789 0.465z" fill="#ffd179"/>
   <path d="m136.12 61.582 1.848-0.01138-0.0111-3.0352-1.844 0.01628z" fill="#535e70"/>
   <path d="m136.58 55.285v3.757c-0.848 0.133-1.519 0.618-2.144 1.196-0.114-0.211-0.5-0.426-0.586-0.645-0.086-0.226-0.157-0.457-0.211-0.691-0.055-0.235-0.09-0.477-0.114-0.715-0.019-0.242-0.027-0.488-0.015-0.735 0.011-0.242 0.039-0.488 0.086-0.73 0.047-0.246 0.109-0.488 0.187-0.73 0.028-0.082 0.07-0.161 0.102-0.243 0.062-0.156 0.406-0.312 0.484-0.464z" fill="#fbb227"/>
   <path d="m137.51 55.285v3.757c-0.153-0.023-0.305-0.039-0.465-0.039s-0.317 0.016-0.465 0.039v-3.757z" fill="#a96f00"/>
   <path d="m139.79 55.285c0.227 0.277 0.43 0.691 0.504 0.929 0.074 0.242 0.129 0.492 0.168 0.742 0.035 0.25 0.109 0.305 0.113 0.559 0 0.25 0.027 0.496 0 0.742-0.031 0.246-0.176 0.692-0.23 0.93-0.055 0.238-0.125 0.465-0.203 0.687-0.075 0.207-0.383 0.188-0.473 0.375-0.629-0.582-1.309-1.07-2.16-1.207v-3.757z" fill="#fbb227"/>
   <path d="m138.44 58.999h1.855v-3.25h-1.855z" fill="#a96f00"/>
   <path d="m133.79 58.999h1.859v-3.25h-1.859z" fill="#2f3744"/>
   <path d="m134.44 60.238c-0.219 0.199-0.43 0.41-0.645 0.621-1.164-1.555-1.391-3.715-0.461-5.574h1.039c-0.117 0.234-0.219 0.468-0.297 0.71-0.082 0.239-0.144 0.485-0.191 0.727-0.043 0.246-0.07 0.488-0.082 0.734-0.012 0.243-8e-3 0.489 0.015 0.731 0.02 0.242 0.059 0.48 0.114 0.715 0.05 0.238 0.125 0.468 0.211 0.691 0.082 0.223 0.183 0.434 0.297 0.645z" fill="#ffd179"/>
   <path d="m140.76 55.285c0.929 1.859 0.465 4.183-0.465 5.574-0.207-0.207-0.414-0.41-0.625-0.61 0.09-0.187 0.18-0.382 0.25-0.589 0.082-0.219 0.148-0.45 0.207-0.688 0.055-0.234 0.101-0.477 0.129-0.727 0.027-0.246 0.043-0.496 0.039-0.746 0-0.254-0.016-0.504-0.055-0.757-0.035-0.25-0.09-0.497-0.164-0.743-0.074-0.242-0.168-0.48-0.285-0.714z" fill="#fbb227"/>
   <path d="m134.26 58.535h0.93v-0.926h-0.93z" fill="#cf2f25"/>
   <path d="m134.26 57.144h0.93v-0.93h-0.93z" fill="#47d58a"/>
  </g>
  <g transform="matrix(.26618 -.45669 -.45669 -.26618 413.39 305.85)">
   <path d="m133.62 54.82h6.844c0.117 0.164 0.222 0.32 0.293 0.465h-7.43c0.07-0.145 0.176-0.301 0.293-0.465z" fill="#a96f00"/>
   <path d="m134.52 53.894h5.047c0.371 0.289 0.672 0.613 0.899 0.926h-6.844c0.223-0.313 0.527-0.637 0.898-0.926z" fill="#fbb227"/>
   <path d="m138.84 53.429c0.262 0.137 0.512 0.289 0.734 0.465h-5.047c0.219-0.176 0.473-0.328 0.735-0.465z" fill="#ffd179"/>
   <path d="m138.84 53.429h-3.578c0.523-0.277 1.121-0.465 1.789-0.465s1.266 0.188 1.789 0.465z" fill="#ffd179"/>
   <path d="m136.12 61.582 1.848-0.01138-0.0111-3.0352-1.844 0.01628z" fill="#535e70"/>
   <path d="m136.58 55.285v3.757c-0.848 0.133-1.519 0.618-2.144 1.196-0.114-0.211-0.5-0.426-0.586-0.645-0.086-0.226-0.157-0.457-0.211-0.691-0.055-0.235-0.09-0.477-0.114-0.715-0.019-0.242-0.027-0.488-0.015-0.735 0.011-0.242 0.039-0.488 0.086-0.73 0.047-0.246 0.109-0.488 0.187-0.73 0.028-0.082 0.07-0.161 0.102-0.243 0.062-0.156 0.406-0.312 0.484-0.464z" fill="#fbb227"/>
   <path d="m137.51 55.285v3.757c-0.153-0.023-0.305-0.039-0.465-0.039s-0.317 0.016-0.465 0.039v-3.757z" fill="#a96f00"/>
   <path d="m139.79 55.285c0.227 0.277 0.43 0.691 0.504 0.929 0.074 0.242 0.129 0.492 0.168 0.742 0.035 0.25 0.109 0.305 0.113 0.559 0 0.25 0.027 0.496 0 0.742-0.031 0.246-0.176 0.692-0.23 0.93-0.055 0.238-0.125 0.465-0.203 0.687-0.075 0.207-0.383 0.188-0.473 0.375-0.629-0.582-1.309-1.07-2.16-1.207v-3.757z" fill="#fbb227"/>
   <path d="m138.44 58.999h1.855v-3.25h-1.855z" fill="#a96f00"/>
   <path d="m133.79 58.999h1.859v-3.25h-1.859z" fill="#2f3744"/>
   <path d="m134.44 60.238c-0.219 0.199-0.43 0.41-0.645 0.621-1.164-1.555-1.391-3.715-0.461-5.574h1.039c-0.117 0.234-0.219 0.468-0.297 0.71-0.082 0.239-0.144 0.485-0.191 0.727-0.043 0.246-0.07 0.488-0.082 0.734-0.012 0.243-8e-3 0.489 0.015 0.731 0.02 0.242 0.059 0.48 0.114 0.715 0.05 0.238 0.125 0.468 0.211 0.691 0.082 0.223 0.183 0.434 0.297 0.645z" fill="#ffd179"/>
   <path d="m140.76 55.285c0.929 1.859 0.465 4.183-0.465 5.574-0.207-0.207-0.414-0.41-0.625-0.61 0.09-0.187 0.18-0.382 0.25-0.589 0.082-0.219 0.148-0.45 0.207-0.688 0.055-0.234 0.101-0.477 0.129-0.727 0.027-0.246 0.043-0.496 0.039-0.746 0-0.254-0.016-0.504-0.055-0.757-0.035-0.25-0.09-0.497-0.164-0.743-0.074-0.242-0.168-0.48-0.285-0.714z" fill="#fbb227"/>
   <path d="m134.26 58.535h0.93v-0.926h-0.93z" fill="#cf2f25"/>
   <path d="m134.26 57.144h0.93v-0.93h-0.93z" fill="#47d58a"/>
  </g>
  <g transform="matrix(.26618 -.45669 -.45669 -.26618 421.33 305.85)">
   <path d="m133.62 54.82h6.844c0.117 0.164 0.222 0.32 0.293 0.465h-7.43c0.07-0.145 0.176-0.301 0.293-0.465z" fill="#a96f00"/>
   <path d="m134.52 53.894h5.047c0.371 0.289 0.672 0.613 0.899 0.926h-6.844c0.223-0.313 0.527-0.637 0.898-0.926z" fill="#fbb227"/>
   <path d="m138.84 53.429c0.262 0.137 0.512 0.289 0.734 0.465h-5.047c0.219-0.176 0.473-0.328 0.735-0.465z" fill="#ffd179"/>
   <path d="m138.84 53.429h-3.578c0.523-0.277 1.121-0.465 1.789-0.465s1.266 0.188 1.789 0.465z" fill="#ffd179"/>
   <path d="m136.12 61.582 1.848-0.01138-0.0111-3.0352-1.844 0.01628z" fill="#535e70"/>
   <path d="m136.58 55.285v3.757c-0.848 0.133-1.519 0.618-2.144 1.196-0.114-0.211-0.5-0.426-0.586-0.645-0.086-0.226-0.157-0.457-0.211-0.691-0.055-0.235-0.09-0.477-0.114-0.715-0.019-0.242-0.027-0.488-0.015-0.735 0.011-0.242 0.039-0.488 0.086-0.73 0.047-0.246 0.109-0.488 0.187-0.73 0.028-0.082 0.07-0.161 0.102-0.243 0.062-0.156 0.406-0.312 0.484-0.464z" fill="#fbb227"/>
   <path d="m137.51 55.285v3.757c-0.153-0.023-0.305-0.039-0.465-0.039s-0.317 0.016-0.465 0.039v-3.757z" fill="#a96f00"/>
   <path d="m139.79 55.285c0.227 0.277 0.43 0.691 0.504 0.929 0.074 0.242 0.129 0.492 0.168 0.742 0.035 0.25 0.109 0.305 0.113 0.559 0 0.25 0.027 0.496 0 0.742-0.031 0.246-0.176 0.692-0.23 0.93-0.055 0.238-0.125 0.465-0.203 0.687-0.075 0.207-0.383 0.188-0.473 0.375-0.629-0.582-1.309-1.07-2.16-1.207v-3.757z" fill="#fbb227"/>
   <path d="m138.44 58.999h1.855v-3.25h-1.855z" fill="#a96f00"/>
   <path d="m133.79 58.999h1.859v-3.25h-1.859z" fill="#2f3744"/>
   <path d="m134.44 60.238c-0.219 0.199-0.43 0.41-0.645 0.621-1.164-1.555-1.391-3.715-0.461-5.574h1.039c-0.117 0.234-0.219 0.468-0.297 0.71-0.082 0.239-0.144 0.485-0.191 0.727-0.043 0.246-0.07 0.488-0.082 0.734-0.012 0.243-8e-3 0.489 0.015 0.731 0.02 0.242 0.059 0.48 0.114 0.715 0.05 0.238 0.125 0.468 0.211 0.691 0.082 0.223 0.183 0.434 0.297 0.645z" fill="#ffd179"/>
   <path d="m140.76 55.285c0.929 1.859 0.465 4.183-0.465 5.574-0.207-0.207-0.414-0.41-0.625-0.61 0.09-0.187 0.18-0.382 0.25-0.589 0.082-0.219 0.148-0.45 0.207-0.688 0.055-0.234 0.101-0.477 0.129-0.727 0.027-0.246 0.043-0.496 0.039-0.746 0-0.254-0.016-0.504-0.055-0.757-0.035-0.25-0.09-0.497-0.164-0.743-0.074-0.242-0.168-0.48-0.285-0.714z" fill="#fbb227"/>
   <path d="m134.26 58.535h0.93v-0.926h-0.93z" fill="#cf2f25"/>
   <path d="m134.26 57.144h0.93v-0.93h-0.93z" fill="#47d58a"/>
  </g>
  <g transform="matrix(.5286 .0021758 .0021758 -.5286 367.03 258.01)">
   <path d="m133.62 54.82h6.844c0.117 0.164 0.222 0.32 0.293 0.465h-7.43c0.07-0.145 0.176-0.301 0.293-0.465z" fill="#a96f00"/>
   <path d="m134.52 53.894h5.047c0.371 0.289 0.672 0.613 0.899 0.926h-6.844c0.223-0.313 0.527-0.637 0.898-0.926z" fill="#fbb227"/>
   <path d="m138.84 53.429c0.262 0.137 0.512 0.289 0.734 0.465h-5.047c0.219-0.176 0.473-0.328 0.735-0.465z" fill="#ffd179"/>
   <path d="m138.84 53.429h-3.578c0.523-0.277 1.121-0.465 1.789-0.465s1.266 0.188 1.789 0.465z" fill="#ffd179"/>
   <path d="m136.12 61.582 1.848-0.01138-0.0111-3.0352-1.844 0.01628z" fill="#535e70"/>
   <path d="m136.58 55.285v3.757c-0.848 0.133-1.519 0.618-2.144 1.196-0.114-0.211-0.5-0.426-0.586-0.645-0.086-0.226-0.157-0.457-0.211-0.691-0.055-0.235-0.09-0.477-0.114-0.715-0.019-0.242-0.027-0.488-0.015-0.735 0.011-0.242 0.039-0.488 0.086-0.73 0.047-0.246 0.109-0.488 0.187-0.73 0.028-0.082 0.07-0.161 0.102-0.243 0.062-0.156 0.406-0.312 0.484-0.464z" fill="#fbb227"/>
   <path d="m137.51 55.285v3.757c-0.153-0.023-0.305-0.039-0.465-0.039s-0.317 0.016-0.465 0.039v-3.757z" fill="#a96f00"/>
   <path d="m139.79 55.285c0.227 0.277 0.43 0.691 0.504 0.929 0.074 0.242 0.129 0.492 0.168 0.742 0.035 0.25 0.109 0.305 0.113 0.559 0 0.25 0.027 0.496 0 0.742-0.031 0.246-0.176 0.692-0.23 0.93-0.055 0.238-0.125 0.465-0.203 0.687-0.075 0.207-0.383 0.188-0.473 0.375-0.629-0.582-1.309-1.07-2.16-1.207v-3.757z" fill="#fbb227"/>
   <path d="m138.44 58.999h1.855v-3.25h-1.855z" fill="#a96f00"/>
   <path d="m133.79 58.999h1.859v-3.25h-1.859z" fill="#2f3744"/>
   <path d="m134.44 60.238c-0.219 0.199-0.43 0.41-0.645 0.621-1.164-1.555-1.391-3.715-0.461-5.574h1.039c-0.117 0.234-0.219 0.468-0.297 0.71-0.082 0.239-0.144 0.485-0.191 0.727-0.043 0.246-0.07 0.488-0.082 0.734-0.012 0.243-8e-3 0.489 0.015 0.731 0.02 0.242 0.059 0.48 0.114 0.715 0.05 0.238 0.125 0.468 0.211 0.691 0.082 0.223 0.183 0.434 0.297 0.645z" fill="#ffd179"/>
   <path d="m140.76 55.285c0.929 1.859 0.465 4.183-0.465 5.574-0.207-0.207-0.414-0.41-0.625-0.61 0.09-0.187 0.18-0.382 0.25-0.589 0.082-0.219 0.148-0.45 0.207-0.688 0.055-0.234 0.101-0.477 0.129-0.727 0.027-0.246 0.043-0.496 0.039-0.746 0-0.254-0.016-0.504-0.055-0.757-0.035-0.25-0.09-0.497-0.164-0.743-0.074-0.242-0.168-0.48-0.285-0.714z" fill="#fbb227"/>
   <path d="m134.26 58.535h0.93v-0.926h-0.93z" fill="#cf2f25"/>
   <path d="m134.26 57.144h0.93v-0.93h-0.93z" fill="#47d58a"/>
  </g>
 </g>
</svg>
