<svg width="29.67mm" height="30.105mm" version="1.1" viewBox="0 0 29.67 30.105" xmlns="http://www.w3.org/2000/svg">
 <g transform="translate(-473.89 -251.79)">
  <path d="m476.33 253.95h10.592l8.238 4.7074 6.2275 6.2765-0.39228 7.4534-5.3939 5.0506-8.5812 2.6479" fill="none" stroke="#6f8ce9" stroke-linecap="square" stroke-width=".26458" style="paint-order:normal"/>
  <g transform="matrix(.0021758 -.5286 -.5286 -.0021758 506.15 326.72)">
   <path d="m133.62 54.82h6.844c0.117 0.164 0.222 0.32 0.293 0.465h-7.43c0.07-0.145 0.176-0.301 0.293-0.465z" fill="#a96f00"/>
   <path d="m134.52 53.894h5.047c0.371 0.289 0.672 0.613 0.899 0.926h-6.844c0.223-0.313 0.527-0.637 0.898-0.926z" fill="#fbb227"/>
   <path d="m138.84 53.429c0.262 0.137 0.512 0.289 0.734 0.465h-5.047c0.219-0.176 0.473-0.328 0.735-0.465z" fill="#ffd179"/>
   <path d="m138.84 53.429h-3.578c0.523-0.277 1.121-0.465 1.789-0.465s1.266 0.188 1.789 0.465z" fill="#ffd179"/>
   <path d="m136.12 61.582 1.848-0.01138-0.0111-3.0352-1.844 0.01628z" fill="#535e70"/>
   <path d="m136.58 55.285v3.757c-0.848 0.133-1.519 0.618-2.144 1.196-0.114-0.211-0.5-0.426-0.586-0.645-0.086-0.226-0.157-0.457-0.211-0.691-0.055-0.235-0.09-0.477-0.114-0.715-0.019-0.242-0.027-0.488-0.015-0.735 0.011-0.242 0.039-0.488 0.086-0.73 0.047-0.246 0.109-0.488 0.187-0.73 0.028-0.082 0.07-0.161 0.102-0.243 0.062-0.156 0.406-0.312 0.484-0.464z" fill="#fbb227"/>
   <path d="m137.51 55.285v3.757c-0.153-0.023-0.305-0.039-0.465-0.039s-0.317 0.016-0.465 0.039v-3.757z" fill="#a96f00"/>
   <path d="m139.79 55.285c0.227 0.277 0.43 0.691 0.504 0.929 0.074 0.242 0.129 0.492 0.168 0.742 0.035 0.25 0.109 0.305 0.113 0.559 0 0.25 0.027 0.496 0 0.742-0.031 0.246-0.176 0.692-0.23 0.93-0.055 0.238-0.125 0.465-0.203 0.687-0.075 0.207-0.383 0.188-0.473 0.375-0.629-0.582-1.309-1.07-2.16-1.207v-3.757z" fill="#fbb227"/>
   <path d="m138.44 58.999h1.855v-3.25h-1.855z" fill="#a96f00"/>
   <path d="m133.79 58.999h1.859v-3.25h-1.859z" fill="#2f3744"/>
   <path d="m134.44 60.238c-0.219 0.199-0.43 0.41-0.645 0.621-1.164-1.555-1.391-3.715-0.461-5.574h1.039c-0.117 0.234-0.219 0.468-0.297 0.71-0.082 0.239-0.144 0.485-0.191 0.727-0.043 0.246-0.07 0.488-0.082 0.734-0.012 0.243-8e-3 0.489 0.015 0.731 0.02 0.242 0.059 0.48 0.114 0.715 0.05 0.238 0.125 0.468 0.211 0.691 0.082 0.223 0.183 0.434 0.297 0.645z" fill="#ffd179"/>
   <path d="m140.76 55.285c0.929 1.859 0.465 4.183-0.465 5.574-0.207-0.207-0.414-0.41-0.625-0.61 0.09-0.187 0.18-0.382 0.25-0.589 0.082-0.219 0.148-0.45 0.207-0.688 0.055-0.234 0.101-0.477 0.129-0.727 0.027-0.246 0.043-0.496 0.039-0.746 0-0.254-0.016-0.504-0.055-0.757-0.035-0.25-0.09-0.497-0.164-0.743-0.074-0.242-0.168-0.48-0.285-0.714z" fill="#fbb227"/>
   <path d="m134.26 58.535h0.93v-0.926h-0.93z" fill="#cf2f25"/>
   <path d="m134.26 57.144h0.93v-0.93h-0.93z" fill="#47d58a"/>
  </g>
  <g transform="matrix(.089506 -.52097 -.52097 -.089506 504.38 330.59)">
   <path d="m133.62 54.82h6.844c0.117 0.164 0.222 0.32 0.293 0.465h-7.43c0.07-0.145 0.176-0.301 0.293-0.465z" fill="#a96f00"/>
   <path d="m134.52 53.894h5.047c0.371 0.289 0.672 0.613 0.899 0.926h-6.844c0.223-0.313 0.527-0.637 0.898-0.926z" fill="#fbb227"/>
   <path d="m138.84 53.429c0.262 0.137 0.512 0.289 0.734 0.465h-5.047c0.219-0.176 0.473-0.328 0.735-0.465z" fill="#ffd179"/>
   <path d="m138.84 53.429h-3.578c0.523-0.277 1.121-0.465 1.789-0.465s1.266 0.188 1.789 0.465z" fill="#ffd179"/>
   <path d="m136.12 61.582 1.848-0.01138-0.0111-3.0352-1.844 0.01628z" fill="#535e70"/>
   <path d="m136.58 55.285v3.757c-0.848 0.133-1.519 0.618-2.144 1.196-0.114-0.211-0.5-0.426-0.586-0.645-0.086-0.226-0.157-0.457-0.211-0.691-0.055-0.235-0.09-0.477-0.114-0.715-0.019-0.242-0.027-0.488-0.015-0.735 0.011-0.242 0.039-0.488 0.086-0.73 0.047-0.246 0.109-0.488 0.187-0.73 0.028-0.082 0.07-0.161 0.102-0.243 0.062-0.156 0.406-0.312 0.484-0.464z" fill="#fbb227"/>
   <path d="m137.51 55.285v3.757c-0.153-0.023-0.305-0.039-0.465-0.039s-0.317 0.016-0.465 0.039v-3.757z" fill="#a96f00"/>
   <path d="m139.79 55.285c0.227 0.277 0.43 0.691 0.504 0.929 0.074 0.242 0.129 0.492 0.168 0.742 0.035 0.25 0.109 0.305 0.113 0.559 0 0.25 0.027 0.496 0 0.742-0.031 0.246-0.176 0.692-0.23 0.93-0.055 0.238-0.125 0.465-0.203 0.687-0.075 0.207-0.383 0.188-0.473 0.375-0.629-0.582-1.309-1.07-2.16-1.207v-3.757z" fill="#fbb227"/>
   <path d="m138.44 58.999h1.855v-3.25h-1.855z" fill="#a96f00"/>
   <path d="m133.79 58.999h1.859v-3.25h-1.859z" fill="#2f3744"/>
   <path d="m134.44 60.238c-0.219 0.199-0.43 0.41-0.645 0.621-1.164-1.555-1.391-3.715-0.461-5.574h1.039c-0.117 0.234-0.219 0.468-0.297 0.71-0.082 0.239-0.144 0.485-0.191 0.727-0.043 0.246-0.07 0.488-0.082 0.734-0.012 0.243-8e-3 0.489 0.015 0.731 0.02 0.242 0.059 0.48 0.114 0.715 0.05 0.238 0.125 0.468 0.211 0.691 0.082 0.223 0.183 0.434 0.297 0.645z" fill="#ffd179"/>
   <path d="m140.76 55.285c0.929 1.859 0.465 4.183-0.465 5.574-0.207-0.207-0.414-0.41-0.625-0.61 0.09-0.187 0.18-0.382 0.25-0.589 0.082-0.219 0.148-0.45 0.207-0.688 0.055-0.234 0.101-0.477 0.129-0.727 0.027-0.246 0.043-0.496 0.039-0.746 0-0.254-0.016-0.504-0.055-0.757-0.035-0.25-0.09-0.497-0.164-0.743-0.074-0.242-0.168-0.48-0.285-0.714z" fill="#fbb227"/>
   <path d="m134.26 58.535h0.93v-0.926h-0.93z" fill="#cf2f25"/>
   <path d="m134.26 57.144h0.93v-0.93h-0.93z" fill="#47d58a"/>
  </g>
  <g transform="matrix(.25077 -.46534 -.46534 -.25077 487.29 336.7)">
   <path d="m133.62 54.82h6.844c0.117 0.164 0.222 0.32 0.293 0.465h-7.43c0.07-0.145 0.176-0.301 0.293-0.465z" fill="#a96f00"/>
   <path d="m134.52 53.894h5.047c0.371 0.289 0.672 0.613 0.899 0.926h-6.844c0.223-0.313 0.527-0.637 0.898-0.926z" fill="#fbb227"/>
   <path d="m138.84 53.429c0.262 0.137 0.512 0.289 0.734 0.465h-5.047c0.219-0.176 0.473-0.328 0.735-0.465z" fill="#ffd179"/>
   <path d="m138.84 53.429h-3.578c0.523-0.277 1.121-0.465 1.789-0.465s1.266 0.188 1.789 0.465z" fill="#ffd179"/>
   <path d="m136.12 61.582 1.848-0.01138-0.0111-3.0352-1.844 0.01628z" fill="#535e70"/>
   <path d="m136.58 55.285v3.757c-0.848 0.133-1.519 0.618-2.144 1.196-0.114-0.211-0.5-0.426-0.586-0.645-0.086-0.226-0.157-0.457-0.211-0.691-0.055-0.235-0.09-0.477-0.114-0.715-0.019-0.242-0.027-0.488-0.015-0.735 0.011-0.242 0.039-0.488 0.086-0.73 0.047-0.246 0.109-0.488 0.187-0.73 0.028-0.082 0.07-0.161 0.102-0.243 0.062-0.156 0.406-0.312 0.484-0.464z" fill="#fbb227"/>
   <path d="m137.51 55.285v3.757c-0.153-0.023-0.305-0.039-0.465-0.039s-0.317 0.016-0.465 0.039v-3.757z" fill="#a96f00"/>
   <path d="m139.79 55.285c0.227 0.277 0.43 0.691 0.504 0.929 0.074 0.242 0.129 0.492 0.168 0.742 0.035 0.25 0.109 0.305 0.113 0.559 0 0.25 0.027 0.496 0 0.742-0.031 0.246-0.176 0.692-0.23 0.93-0.055 0.238-0.125 0.465-0.203 0.687-0.075 0.207-0.383 0.188-0.473 0.375-0.629-0.582-1.309-1.07-2.16-1.207v-3.757z" fill="#fbb227"/>
   <path d="m138.44 58.999h1.855v-3.25h-1.855z" fill="#a96f00"/>
   <path d="m133.79 58.999h1.859v-3.25h-1.859z" fill="#2f3744"/>
   <path d="m134.44 60.238c-0.219 0.199-0.43 0.41-0.645 0.621-1.164-1.555-1.391-3.715-0.461-5.574h1.039c-0.117 0.234-0.219 0.468-0.297 0.71-0.082 0.239-0.144 0.485-0.191 0.727-0.043 0.246-0.07 0.488-0.082 0.734-0.012 0.243-8e-3 0.489 0.015 0.731 0.02 0.242 0.059 0.48 0.114 0.715 0.05 0.238 0.125 0.468 0.211 0.691 0.082 0.223 0.183 0.434 0.297 0.645z" fill="#ffd179"/>
   <path d="m140.76 55.285c0.929 1.859 0.465 4.183-0.465 5.574-0.207-0.207-0.414-0.41-0.625-0.61 0.09-0.187 0.18-0.382 0.25-0.589 0.082-0.219 0.148-0.45 0.207-0.688 0.055-0.234 0.101-0.477 0.129-0.727 0.027-0.246 0.043-0.496 0.039-0.746 0-0.254-0.016-0.504-0.055-0.757-0.035-0.25-0.09-0.497-0.164-0.743-0.074-0.242-0.168-0.48-0.285-0.714z" fill="#fbb227"/>
   <path d="m134.26 58.535h0.93v-0.926h-0.93z" fill="#cf2f25"/>
   <path d="m134.26 57.144h0.93v-0.93h-0.93z" fill="#47d58a"/>
  </g>
  <g transform="matrix(.47426 -.23345 -.23345 -.47426 449.21 323.47)">
   <path d="m133.62 54.82h6.844c0.117 0.164 0.222 0.32 0.293 0.465h-7.43c0.07-0.145 0.176-0.301 0.293-0.465z" fill="#a96f00"/>
   <path d="m134.52 53.894h5.047c0.371 0.289 0.672 0.613 0.899 0.926h-6.844c0.223-0.313 0.527-0.637 0.898-0.926z" fill="#fbb227"/>
   <path d="m138.84 53.429c0.262 0.137 0.512 0.289 0.734 0.465h-5.047c0.219-0.176 0.473-0.328 0.735-0.465z" fill="#ffd179"/>
   <path d="m138.84 53.429h-3.578c0.523-0.277 1.121-0.465 1.789-0.465s1.266 0.188 1.789 0.465z" fill="#ffd179"/>
   <path d="m136.12 61.582 1.848-0.01138-0.0111-3.0352-1.844 0.01628z" fill="#535e70"/>
   <path d="m136.58 55.285v3.757c-0.848 0.133-1.519 0.618-2.144 1.196-0.114-0.211-0.5-0.426-0.586-0.645-0.086-0.226-0.157-0.457-0.211-0.691-0.055-0.235-0.09-0.477-0.114-0.715-0.019-0.242-0.027-0.488-0.015-0.735 0.011-0.242 0.039-0.488 0.086-0.73 0.047-0.246 0.109-0.488 0.187-0.73 0.028-0.082 0.07-0.161 0.102-0.243 0.062-0.156 0.406-0.312 0.484-0.464z" fill="#fbb227"/>
   <path d="m137.51 55.285v3.757c-0.153-0.023-0.305-0.039-0.465-0.039s-0.317 0.016-0.465 0.039v-3.757z" fill="#a96f00"/>
   <path d="m139.79 55.285c0.227 0.277 0.43 0.691 0.504 0.929 0.074 0.242 0.129 0.492 0.168 0.742 0.035 0.25 0.109 0.305 0.113 0.559 0 0.25 0.027 0.496 0 0.742-0.031 0.246-0.176 0.692-0.23 0.93-0.055 0.238-0.125 0.465-0.203 0.687-0.075 0.207-0.383 0.188-0.473 0.375-0.629-0.582-1.309-1.07-2.16-1.207v-3.757z" fill="#fbb227"/>
   <path d="m138.44 58.999h1.855v-3.25h-1.855z" fill="#a96f00"/>
   <path d="m133.79 58.999h1.859v-3.25h-1.859z" fill="#2f3744"/>
   <path d="m134.44 60.238c-0.219 0.199-0.43 0.41-0.645 0.621-1.164-1.555-1.391-3.715-0.461-5.574h1.039c-0.117 0.234-0.219 0.468-0.297 0.71-0.082 0.239-0.144 0.485-0.191 0.727-0.043 0.246-0.07 0.488-0.082 0.734-0.012 0.243-8e-3 0.489 0.015 0.731 0.02 0.242 0.059 0.48 0.114 0.715 0.05 0.238 0.125 0.468 0.211 0.691 0.082 0.223 0.183 0.434 0.297 0.645z" fill="#ffd179"/>
   <path d="m140.76 55.285c0.929 1.859 0.465 4.183-0.465 5.574-0.207-0.207-0.414-0.41-0.625-0.61 0.09-0.187 0.18-0.382 0.25-0.589 0.082-0.219 0.148-0.45 0.207-0.688 0.055-0.234 0.101-0.477 0.129-0.727 0.027-0.246 0.043-0.496 0.039-0.746 0-0.254-0.016-0.504-0.055-0.757-0.035-0.25-0.09-0.497-0.164-0.743-0.074-0.242-0.168-0.48-0.285-0.714z" fill="#fbb227"/>
   <path d="m134.26 58.535h0.93v-0.926h-0.93z" fill="#cf2f25"/>
   <path d="m134.26 57.144h0.93v-0.93h-0.93z" fill="#47d58a"/>
  </g>
  <g transform="matrix(.46969 .24251 .24251 -.46969 422.89 265.55)">
   <path d="m133.62 54.82h6.844c0.117 0.164 0.222 0.32 0.293 0.465h-7.43c0.07-0.145 0.176-0.301 0.293-0.465z" fill="#a96f00"/>
   <path d="m134.52 53.894h5.047c0.371 0.289 0.672 0.613 0.899 0.926h-6.844c0.223-0.313 0.527-0.637 0.898-0.926z" fill="#fbb227"/>
   <path d="m138.84 53.429c0.262 0.137 0.512 0.289 0.734 0.465h-5.047c0.219-0.176 0.473-0.328 0.735-0.465z" fill="#ffd179"/>
   <path d="m138.84 53.429h-3.578c0.523-0.277 1.121-0.465 1.789-0.465s1.266 0.188 1.789 0.465z" fill="#ffd179"/>
   <path d="m136.12 61.582 1.848-0.01138-0.0111-3.0352-1.844 0.01628z" fill="#535e70"/>
   <path d="m136.58 55.285v3.757c-0.848 0.133-1.519 0.618-2.144 1.196-0.114-0.211-0.5-0.426-0.586-0.645-0.086-0.226-0.157-0.457-0.211-0.691-0.055-0.235-0.09-0.477-0.114-0.715-0.019-0.242-0.027-0.488-0.015-0.735 0.011-0.242 0.039-0.488 0.086-0.73 0.047-0.246 0.109-0.488 0.187-0.73 0.028-0.082 0.07-0.161 0.102-0.243 0.062-0.156 0.406-0.312 0.484-0.464z" fill="#fbb227"/>
   <path d="m137.51 55.285v3.757c-0.153-0.023-0.305-0.039-0.465-0.039s-0.317 0.016-0.465 0.039v-3.757z" fill="#a96f00"/>
   <path d="m139.79 55.285c0.227 0.277 0.43 0.691 0.504 0.929 0.074 0.242 0.129 0.492 0.168 0.742 0.035 0.25 0.109 0.305 0.113 0.559 0 0.25 0.027 0.496 0 0.742-0.031 0.246-0.176 0.692-0.23 0.93-0.055 0.238-0.125 0.465-0.203 0.687-0.075 0.207-0.383 0.188-0.473 0.375-0.629-0.582-1.309-1.07-2.16-1.207v-3.757z" fill="#fbb227"/>
   <path d="m138.44 58.999h1.855v-3.25h-1.855z" fill="#a96f00"/>
   <path d="m133.79 58.999h1.859v-3.25h-1.859z" fill="#2f3744"/>
   <path d="m134.44 60.238c-0.219 0.199-0.43 0.41-0.645 0.621-1.164-1.555-1.391-3.715-0.461-5.574h1.039c-0.117 0.234-0.219 0.468-0.297 0.71-0.082 0.239-0.144 0.485-0.191 0.727-0.043 0.246-0.07 0.488-0.082 0.734-0.012 0.243-8e-3 0.489 0.015 0.731 0.02 0.242 0.059 0.48 0.114 0.715 0.05 0.238 0.125 0.468 0.211 0.691 0.082 0.223 0.183 0.434 0.297 0.645z" fill="#ffd179"/>
   <path d="m140.76 55.285c0.929 1.859 0.465 4.183-0.465 5.574-0.207-0.207-0.414-0.41-0.625-0.61 0.09-0.187 0.18-0.382 0.25-0.589 0.082-0.219 0.148-0.45 0.207-0.688 0.055-0.234 0.101-0.477 0.129-0.727 0.027-0.246 0.043-0.496 0.039-0.746 0-0.254-0.016-0.504-0.055-0.757-0.035-0.25-0.09-0.497-0.164-0.743-0.074-0.242-0.168-0.48-0.285-0.714z" fill="#fbb227"/>
   <path d="m134.26 58.535h0.93v-0.926h-0.93z" fill="#cf2f25"/>
   <path d="m134.26 57.144h0.93v-0.93h-0.93z" fill="#47d58a"/>
  </g>
  <g transform="matrix(.29368 .43952 .43952 -.29368 430.39 233.71)">
   <path d="m133.62 54.82h6.844c0.117 0.164 0.222 0.32 0.293 0.465h-7.43c0.07-0.145 0.176-0.301 0.293-0.465z" fill="#a96f00"/>
   <path d="m134.52 53.894h5.047c0.371 0.289 0.672 0.613 0.899 0.926h-6.844c0.223-0.313 0.527-0.637 0.898-0.926z" fill="#fbb227"/>
   <path d="m138.84 53.429c0.262 0.137 0.512 0.289 0.734 0.465h-5.047c0.219-0.176 0.473-0.328 0.735-0.465z" fill="#ffd179"/>
   <path d="m138.84 53.429h-3.578c0.523-0.277 1.121-0.465 1.789-0.465s1.266 0.188 1.789 0.465z" fill="#ffd179"/>
   <path d="m136.12 61.582 1.848-0.01138-0.0111-3.0352-1.844 0.01628z" fill="#535e70"/>
   <path d="m136.58 55.285v3.757c-0.848 0.133-1.519 0.618-2.144 1.196-0.114-0.211-0.5-0.426-0.586-0.645-0.086-0.226-0.157-0.457-0.211-0.691-0.055-0.235-0.09-0.477-0.114-0.715-0.019-0.242-0.027-0.488-0.015-0.735 0.011-0.242 0.039-0.488 0.086-0.73 0.047-0.246 0.109-0.488 0.187-0.73 0.028-0.082 0.07-0.161 0.102-0.243 0.062-0.156 0.406-0.312 0.484-0.464z" fill="#fbb227"/>
   <path d="m137.51 55.285v3.757c-0.153-0.023-0.305-0.039-0.465-0.039s-0.317 0.016-0.465 0.039v-3.757z" fill="#a96f00"/>
   <path d="m139.79 55.285c0.227 0.277 0.43 0.691 0.504 0.929 0.074 0.242 0.129 0.492 0.168 0.742 0.035 0.25 0.109 0.305 0.113 0.559 0 0.25 0.027 0.496 0 0.742-0.031 0.246-0.176 0.692-0.23 0.93-0.055 0.238-0.125 0.465-0.203 0.687-0.075 0.207-0.383 0.188-0.473 0.375-0.629-0.582-1.309-1.07-2.16-1.207v-3.757z" fill="#fbb227"/>
   <path d="m138.44 58.999h1.855v-3.25h-1.855z" fill="#a96f00"/>
   <path d="m133.79 58.999h1.859v-3.25h-1.859z" fill="#2f3744"/>
   <path d="m134.44 60.238c-0.219 0.199-0.43 0.41-0.645 0.621-1.164-1.555-1.391-3.715-0.461-5.574h1.039c-0.117 0.234-0.219 0.468-0.297 0.71-0.082 0.239-0.144 0.485-0.191 0.727-0.043 0.246-0.07 0.488-0.082 0.734-0.012 0.243-8e-3 0.489 0.015 0.731 0.02 0.242 0.059 0.48 0.114 0.715 0.05 0.238 0.125 0.468 0.211 0.691 0.082 0.223 0.183 0.434 0.297 0.645z" fill="#ffd179"/>
   <path d="m140.76 55.285c0.929 1.859 0.465 4.183-0.465 5.574-0.207-0.207-0.414-0.41-0.625-0.61 0.09-0.187 0.18-0.382 0.25-0.589 0.082-0.219 0.148-0.45 0.207-0.688 0.055-0.234 0.101-0.477 0.129-0.727 0.027-0.246 0.043-0.496 0.039-0.746 0-0.254-0.016-0.504-0.055-0.757-0.035-0.25-0.09-0.497-0.164-0.743-0.074-0.242-0.168-0.48-0.285-0.714z" fill="#fbb227"/>
   <path d="m134.26 58.535h0.93v-0.926h-0.93z" fill="#cf2f25"/>
   <path d="m134.26 57.144h0.93v-0.93h-0.93z" fill="#47d58a"/>
  </g>
  <g transform="matrix(.036563 .52734 .52734 -.036563 452.62 209.5)">
   <path d="m133.62 54.82h6.844c0.117 0.164 0.222 0.32 0.293 0.465h-7.43c0.07-0.145 0.176-0.301 0.293-0.465z" fill="#a96f00"/>
   <path d="m134.52 53.894h5.047c0.371 0.289 0.672 0.613 0.899 0.926h-6.844c0.223-0.313 0.527-0.637 0.898-0.926z" fill="#fbb227"/>
   <path d="m138.84 53.429c0.262 0.137 0.512 0.289 0.734 0.465h-5.047c0.219-0.176 0.473-0.328 0.735-0.465z" fill="#ffd179"/>
   <path d="m138.84 53.429h-3.578c0.523-0.277 1.121-0.465 1.789-0.465s1.266 0.188 1.789 0.465z" fill="#ffd179"/>
   <path d="m136.12 61.582 1.848-0.01138-0.0111-3.0352-1.844 0.01628z" fill="#535e70"/>
   <path d="m136.58 55.285v3.757c-0.848 0.133-1.519 0.618-2.144 1.196-0.114-0.211-0.5-0.426-0.586-0.645-0.086-0.226-0.157-0.457-0.211-0.691-0.055-0.235-0.09-0.477-0.114-0.715-0.019-0.242-0.027-0.488-0.015-0.735 0.011-0.242 0.039-0.488 0.086-0.73 0.047-0.246 0.109-0.488 0.187-0.73 0.028-0.082 0.07-0.161 0.102-0.243 0.062-0.156 0.406-0.312 0.484-0.464z" fill="#fbb227"/>
   <path d="m137.51 55.285v3.757c-0.153-0.023-0.305-0.039-0.465-0.039s-0.317 0.016-0.465 0.039v-3.757z" fill="#a96f00"/>
   <path d="m139.79 55.285c0.227 0.277 0.43 0.691 0.504 0.929 0.074 0.242 0.129 0.492 0.168 0.742 0.035 0.25 0.109 0.305 0.113 0.559 0 0.25 0.027 0.496 0 0.742-0.031 0.246-0.176 0.692-0.23 0.93-0.055 0.238-0.125 0.465-0.203 0.687-0.075 0.207-0.383 0.188-0.473 0.375-0.629-0.582-1.309-1.07-2.16-1.207v-3.757z" fill="#fbb227"/>
   <path d="m138.44 58.999h1.855v-3.25h-1.855z" fill="#a96f00"/>
   <path d="m133.79 58.999h1.859v-3.25h-1.859z" fill="#2f3744"/>
   <path d="m134.44 60.238c-0.219 0.199-0.43 0.41-0.645 0.621-1.164-1.555-1.391-3.715-0.461-5.574h1.039c-0.117 0.234-0.219 0.468-0.297 0.71-0.082 0.239-0.144 0.485-0.191 0.727-0.043 0.246-0.07 0.488-0.082 0.734-0.012 0.243-8e-3 0.489 0.015 0.731 0.02 0.242 0.059 0.48 0.114 0.715 0.05 0.238 0.125 0.468 0.211 0.691 0.082 0.223 0.183 0.434 0.297 0.645z" fill="#ffd179"/>
   <path d="m140.76 55.285c0.929 1.859 0.465 4.183-0.465 5.574-0.207-0.207-0.414-0.41-0.625-0.61 0.09-0.187 0.18-0.382 0.25-0.589 0.082-0.219 0.148-0.45 0.207-0.688 0.055-0.234 0.101-0.477 0.129-0.727 0.027-0.246 0.043-0.496 0.039-0.746 0-0.254-0.016-0.504-0.055-0.757-0.035-0.25-0.09-0.497-0.164-0.743-0.074-0.242-0.168-0.48-0.285-0.714z" fill="#fbb227"/>
   <path d="m134.26 58.535h0.93v-0.926h-0.93z" fill="#cf2f25"/>
   <path d="m134.26 57.144h0.93v-0.93h-0.93z" fill="#47d58a"/>
  </g>
 </g>
</svg>
