<svg width="31.861mm" height="21.231mm" version="1.1" viewBox="0 0 31.861 21.231" xmlns="http://www.w3.org/2000/svg">
 <g transform="translate(-222.18 -231.08)">
  <rect x="222.26" y="231.11" width="21.167" height="21.167" fill="#1d232d"/>
  <g transform="matrix(.29937 0 0 .29938 229.62 -286.84)">
   <path d="m3.4561 1789.1 2.5417-1.0893 1.8155-1.8154 0.72619-2.1786 0.3631-5.0834v-2.9048l-0.72619-2.5416-1.8155-2.1786-6.5357-4.3572 0.3631-1.0893 2.5417 1.4524 4.7203 2.9048 0.72619-1.4524-0.3631-1.8155v-2.1785l0.72619 2.1785 0.7262 3.2679 1.4524 1.4524 1.4524-2.9048 0.36309-2.1786v-2.9047l2.5417 1.4524-1.0893 1.4523-1.0893 1.8155-0.3631 2.1786v1.4524l0.3631 0.7262 1.8155-1.0893 3.2679-3.2679 2.5417-1.8155 1.0893-1.8154 0.36309-1.0893 1.4524 1.4524-3.9941 3.6309s-2.5417 2.5417-2.5417 2.5417l-1.8155 2.1786-1.0893 1.0893-0.72619 1.4523-0.3631 1.4524 0.3631 2.5417v3.2679l1.0893 2.5416 4.3572 3.631-5.4464-0.3631-7.625 0.3631z" fill="#593131"/>
   <path d="m9.394 1765.7c-1.3451 0.1477-2.2898 1.6358-3.631 1.8155-3.0584 0.4095-4.1771-0.073-7.2619 0-2.4944 0.059-7.2716-0.094-9.0774-1.8155-2.2332-2.1294 2.2251-4.2035 1.8155-7.2619-0.35923-2.6825-4.0645-4.5905-3.631-7.262 0.41127-2.5343 4.5387-2.6324 6.3542-4.4479 1.2103-1.2103 1.1419-5.0184 2.7232-5.6734 2.2364-0.9263 5.0255 1.9703 7.2619 1.0439 1.5814-0.655 1.9414-3.3568 3.631-3.6309 2.6714-0.4336 5.2634 2.1014 7.8973 2.7232 2.3559 0.5561 4.4614-0.1748 6.6265 0.9077 2.7064 1.3532 3.9291 4.1387 6.1272 6.218 1.5851 1.4995 3.8718 2.3467 5.1287 4.1303 1.4373 2.0396 0.83434 4.4403 0.40849 6.8988-0.3724 2.1499-0.75408 4.9615-2.6778 5.9911-2.6678 1.4277-5.9999-0.1216-8.9866 0.3631-1.889 0.3065-3.5342 1.742-5.4464 1.8155-2.4933 0.096-4.7817-2.0877-7.2619-1.8155z" fill="#1a6904"/>
  </g>
  <g fill="none">
   <g stroke="#2f3744" stroke-width=".052917">
    <path d="m222.26 231.12v21.167"/>
    <path d="m227.55 231.12v21.167"/>
    <path d="m232.84 231.12v21.167"/>
    <path d="m238.14 231.12v21.167"/>
    <path d="m243.43 231.12v21.167"/>
    <path d="m240.78 231.12v21.167"/>
    <path d="m235.49 231.12v21.167"/>
    <path d="m230.2 231.12v21.167"/>
    <path d="m224.91 231.12v21.167"/>
    <path d="m243.5 231.12h-21.322"/>
    <path d="m243.5 236.41h-21.322"/>
    <path d="m243.5 241.7h-21.322"/>
    <path d="m243.5 246.99h-21.322"/>
    <path d="m243.5 252.28h-21.322"/>
    <path d="m243.5 249.64h-21.322"/>
    <path d="m243.5 244.35h-21.322"/>
    <path d="m243.5 239.05h-21.322"/>
    <path d="m243.5 233.76h-21.322"/>
   </g>
   <rect x="222.26" y="231.11" width="21.167" height="21.167" stroke="#e8eaec" stroke-width=".052917"/>
  </g>
  <rect x="243.42" y="241.72" width="10.583" height="10.557" fill="#1d232d"/>
  <g transform="matrix(.14968 0 0 .14932 247.1 -16.604)" stroke-width="2.0025">
   <path d="m3.4561 1789.1 2.5417-1.0893 1.8155-1.8154 0.72619-2.1786 0.3631-5.0834v-2.9048l-0.72619-2.5416-1.8155-2.1786-6.5357-4.3572 0.3631-1.0893 2.5417 1.4524 4.7203 2.9048 0.72619-1.4524-0.3631-1.8155v-2.1785l0.72619 2.1785 0.7262 3.2679 1.4524 1.4524 1.4524-2.9048 0.36309-2.1786v-2.9047l2.5417 1.4524-1.0893 1.4523-1.0893 1.8155-0.3631 2.1786v1.4524l0.3631 0.7262 1.8155-1.0893 3.2679-3.2679 2.5417-1.8155 1.0893-1.8154 0.36309-1.0893 1.4524 1.4524-3.9941 3.6309s-2.5417 2.5417-2.5417 2.5417l-1.8155 2.1786-1.0893 1.0893-0.72619 1.4523-0.3631 1.4524 0.3631 2.5417v3.2679l1.0893 2.5416 4.3572 3.631-5.4464-0.3631-7.625 0.3631z" fill="#593131"/>
   <path d="m9.394 1765.7c-1.3451 0.1477-2.2898 1.6358-3.631 1.8155-3.0584 0.4095-4.1771-0.073-7.2619 0-2.4944 0.059-7.2716-0.094-9.0774-1.8155-2.2332-2.1294 2.2251-4.2035 1.8155-7.2619-0.35923-2.6825-4.0645-4.5905-3.631-7.262 0.41127-2.5343 4.5387-2.6324 6.3542-4.4479 1.2103-1.2103 1.1419-5.0184 2.7232-5.6734 2.2364-0.9263 5.0255 1.9703 7.2619 1.0439 1.5814-0.655 1.9414-3.3568 3.631-3.6309 2.6714-0.4336 5.2634 2.1014 7.8973 2.7232 2.3559 0.5561 4.4614-0.1748 6.6265 0.9077 2.7064 1.3532 3.9291 4.1387 6.1272 6.218 1.5851 1.4995 3.8718 2.3467 5.1287 4.1303 1.4373 2.0396 0.83434 4.4403 0.40849 6.8988-0.3724 2.1499-0.75408 4.9615-2.6778 5.9911-2.6678 1.4277-5.9999-0.1216-8.9866 0.3631-1.889 0.3065-3.5342 1.742-5.4464 1.8155-2.4933 0.096-4.7817-2.0877-7.2619-1.8155z" fill="#1a6904"/>
  </g>
  <g fill="none">
   <g stroke="#2f3744" stroke-width=".052917">
    <path d="m243.42 241.73v10.557"/>
    <path d="m246.07 241.73v10.557"/>
    <path d="m248.71 241.73v10.557"/>
    <path d="m251.36 241.73v10.557"/>
    <path d="m254 241.73v10.557"/>
    <path d="m252.68 241.73v10.557"/>
    <path d="m250.04 241.73v10.557"/>
    <path d="m247.39 241.73v10.557"/>
    <path d="m244.74 241.73v10.557"/>
    <path d="m254.04 241.73h-10.661"/>
    <path d="m254.04 244.37h-10.661"/>
    <path d="m254.04 247.01h-10.661"/>
    <path d="m254.04 249.64h-10.661"/>
    <path d="m254.04 252.28h-10.661"/>
    <path d="m254.04 250.96h-10.661"/>
    <path d="m254.04 248.33h-10.661"/>
    <path d="m254.04 245.69h-10.661"/>
    <path d="m254.04 243.05h-10.661"/>
   </g>
   <rect x="243.42" y="241.72" width="10.583" height="10.557" stroke="#e8eaec" stroke-width=".052917"/>
  </g>
  <rect x="243.4" y="236.45" width="5.2917" height="5.2521" fill="#1d232d"/>
  <g transform="matrix(.074842 0 0 .074285 245.24 107.93)" stroke-width="4.0151">
   <path d="m3.4561 1789.1 2.5417-1.0893 1.8155-1.8154 0.72619-2.1786 0.3631-5.0834v-2.9048l-0.72619-2.5416-1.8155-2.1786-6.5357-4.3572 0.3631-1.0893 2.5417 1.4524 4.7203 2.9048 0.72619-1.4524-0.3631-1.8155v-2.1785l0.72619 2.1785 0.7262 3.2679 1.4524 1.4524 1.4524-2.9048 0.36309-2.1786v-2.9047l2.5417 1.4524-1.0893 1.4523-1.0893 1.8155-0.3631 2.1786v1.4524l0.3631 0.7262 1.8155-1.0893 3.2679-3.2679 2.5417-1.8155 1.0893-1.8154 0.36309-1.0893 1.4524 1.4524-3.9941 3.6309s-2.5417 2.5417-2.5417 2.5417l-1.8155 2.1786-1.0893 1.0893-0.72619 1.4523-0.3631 1.4524 0.3631 2.5417v3.2679l1.0893 2.5416 4.3572 3.631-5.4464-0.3631-7.625 0.3631z" fill="#593131"/>
   <path d="m9.394 1765.7c-1.3451 0.1477-2.2898 1.6358-3.631 1.8155-3.0584 0.4095-4.1771-0.073-7.2619 0-2.4944 0.059-7.2716-0.094-9.0774-1.8155-2.2332-2.1294 2.2251-4.2035 1.8155-7.2619-0.35923-2.6825-4.0645-4.5905-3.631-7.262 0.41127-2.5343 4.5387-2.6324 6.3542-4.4479 1.2103-1.2103 1.1419-5.0184 2.7232-5.6734 2.2364-0.9263 5.0255 1.9703 7.2619 1.0439 1.5814-0.655 1.9414-3.3568 3.631-3.6309 2.6714-0.4336 5.2634 2.1014 7.8973 2.7232 2.3559 0.5561 4.4614-0.1748 6.6265 0.9077 2.7064 1.3532 3.9291 4.1387 6.1272 6.218 1.5851 1.4995 3.8718 2.3467 5.1287 4.1303 1.4373 2.0396 0.83434 4.4403 0.40849 6.8988-0.3724 2.1499-0.75408 4.9615-2.6778 5.9911-2.6678 1.4277-5.9999-0.1216-8.9866 0.3631-1.889 0.3065-3.5342 1.742-5.4464 1.8155-2.4933 0.096-4.7817-2.0877-7.2619-1.8155z" fill="#1a6904"/>
  </g>
  <g fill="none">
   <g stroke="#2f3744" stroke-width=".052917">
    <path d="m243.4 236.45v5.2522"/>
    <path d="m244.72 236.45v5.2522"/>
    <path d="m246.05 236.45v5.2522"/>
    <path d="m247.37 236.45v5.2522"/>
    <path d="m248.69 236.45v5.2522"/>
    <path d="m248.03 236.45v5.2522"/>
    <path d="m246.71 236.45v5.2522"/>
    <path d="m245.39 236.45v5.2522"/>
    <path d="m244.06 236.45v5.2522"/>
    <path d="m248.71 236.45h-5.3304"/>
    <path d="m248.71 237.76h-5.3304"/>
    <path d="m248.71 239.07h-5.3304"/>
    <path d="m248.71 240.39h-5.3304"/>
    <path d="m248.71 241.7h-5.3304"/>
    <path d="m248.71 241.04h-5.3304"/>
    <path d="m248.71 239.73h-5.3304"/>
    <path d="m248.71 238.42h-5.3304"/>
    <path d="m248.71 237.11h-5.3304"/>
   </g>
   <rect x="243.4" y="236.45" width="5.2917" height="5.2521" stroke="#e8eaec" stroke-width=".052917"/>
  </g>
  <rect x="243.39" y="233.81" width="2.6388" height="2.5996" fill="#1d232d"/>
  <g transform="matrix(.037321 0 0 .036769 244.31 170.2)" stroke-width="8.0817">
   <path d="m3.4561 1789.1 2.5417-1.0893 1.8155-1.8154 0.72619-2.1786 0.3631-5.0834v-2.9048l-0.72619-2.5416-1.8155-2.1786-6.5357-4.3572 0.3631-1.0893 2.5417 1.4524 4.7203 2.9048 0.72619-1.4524-0.3631-1.8155v-2.1785l0.72619 2.1785 0.7262 3.2679 1.4524 1.4524 1.4524-2.9048 0.36309-2.1786v-2.9047l2.5417 1.4524-1.0893 1.4523-1.0893 1.8155-0.3631 2.1786v1.4524l0.3631 0.7262 1.8155-1.0893 3.2679-3.2679 2.5417-1.8155 1.0893-1.8154 0.36309-1.0893 1.4524 1.4524-3.9941 3.6309s-2.5417 2.5417-2.5417 2.5417l-1.8155 2.1786-1.0893 1.0893-0.72619 1.4523-0.3631 1.4524 0.3631 2.5417v3.2679l1.0893 2.5416 4.3572 3.631-5.4464-0.3631-7.625 0.3631z" fill="#593131"/>
   <path d="m9.394 1765.7c-1.3451 0.1477-2.2898 1.6358-3.631 1.8155-3.0584 0.4095-4.1771-0.073-7.2619 0-2.4944 0.059-7.2716-0.094-9.0774-1.8155-2.2332-2.1294 2.2251-4.2035 1.8155-7.2619-0.35923-2.6825-4.0645-4.5905-3.631-7.262 0.41127-2.5343 4.5387-2.6324 6.3542-4.4479 1.2103-1.2103 1.1419-5.0184 2.7232-5.6734 2.2364-0.9263 5.0255 1.9703 7.2619 1.0439 1.5814-0.655 1.9414-3.3568 3.631-3.6309 2.6714-0.4336 5.2634 2.1014 7.8973 2.7232 2.3559 0.5561 4.4614-0.1748 6.6265 0.9077 2.7064 1.3532 3.9291 4.1387 6.1272 6.218 1.5851 1.4995 3.8718 2.3467 5.1287 4.1303 1.4373 2.0396 0.83434 4.4403 0.40849 6.8988-0.3724 2.1499-0.75408 4.9615-2.6778 5.9911-2.6678 1.4277-5.9999-0.1216-8.9866 0.3631-1.889 0.3065-3.5342 1.742-5.4464 1.8155-2.4933 0.096-4.7817-2.0877-7.2619-1.8155z" fill="#1a6904"/>
  </g>
  <g fill="none">
   <g stroke="#2f3744" stroke-width=".052917">
    <path d="m243.39 233.81v2.5996"/>
    <path d="m244.05 233.81v2.5996"/>
    <path d="m244.71 233.81v2.5996"/>
    <path d="m245.37 233.81v2.5996"/>
    <path d="m246.03 233.81v2.5996"/>
    <path d="m245.7 233.81v2.5996"/>
    <path d="m245.04 233.81v2.5996"/>
    <path d="m244.38 233.81v2.5996"/>
    <path d="m243.72 233.81v2.5996"/>
    <path d="m246.04 233.81h-2.6581"/>
    <path d="m246.04 234.46h-2.6581"/>
    <path d="m246.04 235.11h-2.6581"/>
    <path d="m246.04 235.76h-2.6581"/>
    <path d="m246.04 236.41h-2.6581"/>
    <path d="m246.04 236.08h-2.6581"/>
    <path d="m246.04 235.43h-2.6581"/>
    <path d="m246.04 234.78h-2.6581"/>
    <path d="m246.04 234.13h-2.6581"/>
   </g>
   <rect x="243.39" y="233.81" width="2.6388" height="2.5996" stroke="#e8eaec" stroke-width=".052917"/>
  </g>
  <rect x="243.39" y="232.49" width="1.3027" height="1.2734" fill="#1d232d"/>
  <g transform="matrix(.018425 0 0 .01801 243.84 201.33)" stroke-width="16.435">
   <path d="m3.4561 1789.1 2.5417-1.0893 1.8155-1.8154 0.72619-2.1786 0.3631-5.0834v-2.9048l-0.72619-2.5416-1.8155-2.1786-6.5357-4.3572 0.3631-1.0893 2.5417 1.4524 4.7203 2.9048 0.72619-1.4524-0.3631-1.8155v-2.1785l0.72619 2.1785 0.7262 3.2679 1.4524 1.4524 1.4524-2.9048 0.36309-2.1786v-2.9047l2.5417 1.4524-1.0893 1.4523-1.0893 1.8155-0.3631 2.1786v1.4524l0.3631 0.7262 1.8155-1.0893 3.2679-3.2679 2.5417-1.8155 1.0893-1.8154 0.36309-1.0893 1.4524 1.4524-3.9941 3.6309s-2.5417 2.5417-2.5417 2.5417l-1.8155 2.1786-1.0893 1.0893-0.72619 1.4523-0.3631 1.4524 0.3631 2.5417v3.2679l1.0893 2.5416 4.3572 3.631-5.4464-0.3631-7.625 0.3631z" fill="#593131"/>
   <path d="m9.394 1765.7c-1.3451 0.1477-2.2898 1.6358-3.631 1.8155-3.0584 0.4095-4.1771-0.073-7.2619 0-2.4944 0.059-7.2716-0.094-9.0774-1.8155-2.2332-2.1294 2.2251-4.2035 1.8155-7.2619-0.35923-2.6825-4.0645-4.5905-3.631-7.262 0.41127-2.5343 4.5387-2.6324 6.3542-4.4479 1.2103-1.2103 1.1419-5.0184 2.7232-5.6734 2.2364-0.9263 5.0255 1.9703 7.2619 1.0439 1.5814-0.655 1.9414-3.3568 3.631-3.6309 2.6714-0.4336 5.2634 2.1014 7.8973 2.7232 2.3559 0.5561 4.4614-0.1748 6.6265 0.9077 2.7064 1.3532 3.9291 4.1387 6.1272 6.218 1.5851 1.4995 3.8718 2.3467 5.1287 4.1303 1.4373 2.0396 0.83434 4.4403 0.40849 6.8988-0.3724 2.1499-0.75408 4.9615-2.6778 5.9911-2.6678 1.4277-5.9999-0.1216-8.9866 0.3631-1.889 0.3065-3.5342 1.742-5.4464 1.8155-2.4933 0.096-4.7817-2.0877-7.2619-1.8155z" fill="#1a6904"/>
  </g>
  <g fill="none">
   <g stroke="#2f3744" stroke-width=".052917">
    <path d="m243.39 232.49v1.2734"/>
    <path d="m243.71 232.49v1.2734"/>
    <path d="m244.04 232.49v1.2734"/>
    <path d="m244.36 232.49v1.2734"/>
    <path d="m244.69 232.49v1.2734"/>
    <path d="m244.53 232.49v1.2734"/>
    <path d="m244.2 232.49v1.2734"/>
    <path d="m243.87 232.49v1.2734"/>
    <path d="m243.55 232.49v1.2734"/>
    <path d="m244.69 232.49h-1.3122"/>
    <path d="m244.69 232.81h-1.3122"/>
    <path d="m244.69 233.13h-1.3122"/>
    <path d="m244.69 233.45h-1.3122"/>
    <path d="m244.69 233.76h-1.3122"/>
    <path d="m244.69 233.6h-1.3122"/>
    <path d="m244.69 233.29h-1.3122"/>
    <path d="m244.69 232.97h-1.3122"/>
    <path d="m244.69 232.65h-1.3122"/>
   </g>
   <rect x="243.39" y="232.49" width="1.3027" height="1.2734" stroke="#e8eaec" stroke-width=".052917"/>
  </g>
 </g>
</svg>
