<?xml version="1.0" encoding="UTF-8"?>
<svg class="animated inactive" width="100.29" height="100.27" enable-background="new 0 0 198.44 105.83" version="1.1" viewBox="0 0 25.976 13.995" xml:space="preserve" xmlns="http://www.w3.org/2000/svg" xmlns:cc="http://creativecommons.org/ns#" xmlns:dc="http://purl.org/dc/elements/1.1/" xmlns:rdf="http://www.w3.org/1999/02/22-rdf-syntax-ns#"><metadata><rdf:RDF><cc:Work rdf:about=""><dc:format>image/svg+xml</dc:format><dc:type rdf:resource="http://purl.org/dc/dcmitype/StillImage"/><dc:title/></cc:Work></rdf:RDF></metadata>
  <filter id="blur-filter" x="-2" y="-2" width="200" height="200">
    <feGaussianBlur in="SourceGraphic" stdDeviation="2"/>
  </filter><rect x=".025901" y="-5.9627" width="25.925" height="25.92" fill="#1d232d" stroke="#535e70" stroke-linecap="round" stroke-linejoin="bevel" stroke-width=".051803" style="paint-order:normal"/><g fill="#a96f00"><rect x="2.6207" y="-3.3707" width="2.5925" height="2.592" style="paint-order:normal"/><rect x="20.766" y="4.4054" width="2.5925" height="2.592" style="paint-order:normal"/><rect x="18.173" y="1.8134" width="2.5925" height="2.592" style="paint-order:normal"/><rect x="15.581" y="1.8134" width="2.5925" height="2.592" style="paint-order:normal"/><rect x="12.988" y="-.77866" width="2.5925" height="2.592" style="paint-order:normal"/><rect x="10.396" y="-.77866" width="2.5925" height="2.592" style="paint-order:normal"/><rect x="7.8033" y="-3.3707" width="2.5925" height="2.592" style="paint-order:normal"/><rect x="5.2108" y="-3.3707" width="2.5925" height="2.592" style="paint-order:normal"/></g><g fill="none" stroke="#535e70" stroke-width=".051803"><path d="m0.025893-3.3707h25.925"/><path d="m0.025893-0.77863h25.925"/><path d="m0.025893 1.8134h25.925"/><path d="m0.025893 4.4054h25.925"/><path d="m0.025893 6.9974h25.925"/><path d="m0.025893 9.5895h25.925"/><path d="m0.025893 12.181h25.925"/><path d="m0.025893 14.774h25.925"/><path d="m0.025893 17.366h25.925"/><path d="m23.358-5.9627v25.92"/><path d="m20.766-5.9627v25.92"/><path d="m18.173-5.9627v25.92"/><path d="m15.581-5.9627v25.92"/><path d="m12.988-5.9627v25.92"/><path d="m10.396-5.9627v25.92"/><path d="m7.8033-5.9627v25.92"/><path d="m5.2108-5.9627v25.92"/><path d="m2.6184-5.9627v25.92"/></g><g fill="#535e70"><rect x="18.173" y="4.4054" width="2.5925" height="2.592" style="paint-order:normal"/><rect x="18.173" y="6.9974" width="2.5925" height="2.592" style="paint-order:normal"/><rect x="18.173" y="9.5894" width="2.5925" height="2.592" style="paint-order:normal"/><rect x="18.173" y="12.181" width="2.5925" height="2.592" style="paint-order:normal"/><rect x="18.173" y="14.773" width="2.5925" height="2.592" style="paint-order:normal"/><rect x="18.173" y="17.366" width="2.5925" height="2.592" style="paint-order:normal"/></g><path d="m2.6184-3.3707 23.332 9.8497" fill="none" stroke="#ffd179" stroke-width=".10361"/><ellipse cx="2.6184" cy="-3.3707" rx="1.037" ry="1.0368" fill="#e9e56f" style="paint-order:normal"/><g fill="#ffd179"><ellipse cx="8.4188" cy="-.89046" rx=".26493" ry=".26488" style="paint-order:normal"/><ellipse cx="14.365" cy="1.6043" rx=".26493" ry=".26488" style="paint-order:normal"/><ellipse cx="20.298" cy="4.1134" rx=".26493" ry=".26488" style="paint-order:normal"/><ellipse cx="5.6967" cy="-2.0731" rx=".26493" ry=".26488" style="paint-order:normal"/><ellipse cx="11.027" cy=".19495" rx=".26493" ry=".26488" style="paint-order:normal"/><ellipse cx="17.185" cy="2.7708" rx=".26493" ry=".26488" style="paint-order:normal"/><ellipse cx="23.265" cy="5.362" rx=".26493" ry=".26488" style="paint-order:normal"/></g><rect x=".025901" y="-5.9627" width="25.925" height="25.92" fill="none" stroke="#e8eaec" stroke-linecap="round" stroke-linejoin="bevel" stroke-width=".051803" style="paint-order:normal"/></svg>
