<?xml version="1.0" encoding="UTF-8"?>
<svg class="animated inactive" width="175.82" height="125.76" enable-background="new 0 0 198.44 105.83" version="1.1" viewBox="0 0 45.54 17.552" xml:space="preserve" xmlns="http://www.w3.org/2000/svg" xmlns:cc="http://creativecommons.org/ns#" xmlns:dc="http://purl.org/dc/elements/1.1/" xmlns:rdf="http://www.w3.org/1999/02/22-rdf-syntax-ns#"><metadata><rdf:RDF><cc:Work rdf:about=""><dc:format>image/svg+xml</dc:format><dc:type rdf:resource="http://purl.org/dc/dcmitype/StillImage"/><dc:title/></cc:Work></rdf:RDF></metadata>
  <filter id="blur-filter" x="-2" y="-2" width="200" height="200">
    <feGaussianBlur in="SourceGraphic" stdDeviation="2"/>
  </filter><path d="m1.9446 20.894 12.374-11.561 29.456 4.8337-26.486 10.827z" fill="none" stroke="#535e70" stroke-width=".12951"/><path d="m13.969-7.4361 0.33765 16.731 29.508 4.8099 1.4892-20.116z" fill="none" stroke="#535e70" stroke-width=".12951"/><g><path d="m27.842 3.3767 2.3332-1.1428 0.10713 8.6425-2.2148 3.6148-3.871-0.65839z" fill="#1d232d" fill-rule="evenodd"/><path d="m17.418 2.7754 4.5554-0.92245 8.2378 0.35713-2.4404 1.1904z" fill="#a6aeb8" fill-rule="evenodd"/><path d="m18.329 11.486 9.2395 2.4639-0.65997-5.0047-7.0396-0.15401z" fill="#47556e"/><path d="m27.492 10.947-5.5437-0.69299v-6.5557l5.2907 0.69299z" fill="#2b3442"/></g><path d="m9.1458 22.85-0.40367-10.058 19.3-19.657v6.6492l-5.4798 3.2176v1.4731l2.5659 0.11578v6.0763l-1.9832 1.7524v1.3153z" fill="#e9e56f" fill-opacity=".34274"/><path d="m17.823 12.794 4.2953-2.5299-0.06051-6.2807h-3.8058z" fill="#1d232d"/><path d="m17.497 2.7733 0.28668 10.034 10.236 1.7008-0.13474-11.246zm1.3859 1.5454 7.6508 0.35956 0.09969 8.284-7.5394-1.2526z" fill="#2f3744" fill-rule="evenodd"/><path d="m9.4591 22.865-0.38935-10.061 19.345-19.636v6.6492l-5.4798 3.2176v1.4731l2.5659 0.11578v6.0763l-1.9832 1.7524v1.3153z" fill="#e9e56f" fill-opacity=".34274"/><path d="m8.8501 14.917 0.31193 0.08014 0.0286 0.77266-0.32908-0.09159z" fill="#242a34"/><path d="m1.2854 11.24 15.872 3.0057 0.10557 10.722-15.31-4.0603z" fill="none" stroke="#535e70" stroke-width=".12951"/><path d="m9.079 20.626 0.27186 0.06009-0.02279-0.86138-0.30048-0.0315z" fill="#242a34"/><g fill="none" stroke="#a7a7a7" stroke-width=".028123"><path d="m1.5512 11.31 0.64678 9.7071"/><path d="m2.4751 21.074-0.61845-9.6858"/><path d="m2.1481 11.431 0.60415 9.7355"/><path d="m3.0722 21.245-0.59708-9.7498"/><path d="m2.724 11.545 0.61832 9.7853"/><path d="m3.6195 21.351-0.57573-9.7497"/><path d="m3.3492 11.651 0.59011 9.8278"/><path d="m4.2166 21.578-0.5473-9.8633"/><path d="m3.9465 11.786 0.56864 9.8491"/><path d="m4.8134 21.685-0.5473-9.8491"/><path d="m5.1099 21.79-0.52761-9.9118"/><path d="m4.8687 11.943 0.54274 9.9219"/><path d="m5.6931 21.935-0.51285-9.9319"/><path d="m5.5246 12.056 0.49762 9.9721"/><path d="m6.3313 22.099-0.49762-9.9847"/><path d="m6.1428 12.174 0.47962 10.022"/><path d="m6.9316 22.25-0.4748-10.005"/><path d="m6.7912 12.315 0.46964 10.03"/><path d="m7.5424 22.405-0.44457-10.035"/><path d="m7.4357 12.428 0.4304 10.076"/><path d="m8.1895 22.583-0.42825-10.068"/><path d="m8.0877 12.558 0.41445 10.11"/><path d="m8.8257 22.754-0.42382-10.143"/><path d="m8.7412 12.673 0.40691 10.184"/></g><path d="m8.8706 15.659 0.31973 0.10524 0.14484 4.0674-0.3062-0.04007z" fill="#2f3744"/><path d="m17.099 14.288 0.14412 10.711" fill="none" stroke="#a7a7a7" stroke-width=".028123"/><path d="m9.4686 22.931-0.39971-10.188" fill="none" stroke="#a7a7a7" stroke-width=".028123"/><path d="m8.9865 18.781 0.31973 0.04217 0.02891 1.0083-0.30621-0.01606z" fill="#47556e"/><g fill="none"><g stroke="#a7a7a7" stroke-width=".028123"><path d="m9.3945 12.812 0.36837 10.203"/><path d="m10.083 23.099-0.35433-10.217"/><path d="m10.072 12.953 0.36909 10.241"/><path d="m10.773 23.283-0.36226-10.277"/><path d="m10.731 13.072 0.36694 10.304"/><path d="m11.424 23.456-0.3464-10.308"/><path d="m11.425 13.203 0.3162 10.33"/><path d="m12.065 23.608-0.30046-10.332"/><path d="m12.095 13.331 0.29219 10.38"/><path d="m12.729 23.798-0.26362-10.397"/><path d="m12.815 13.464 0.26098 10.423"/><path d="m13.41 23.971-0.27479-10.445"/><path d="m13.499 13.601 0.24671 10.468"/></g><path d="m1.2934 11.252 12.691-18.696 31.366 1.4853-28.192 20.213z" stroke="#535e70" stroke-width=".12951"/><g stroke="#a7a7a7" stroke-width=".028123"><path d="m14.096 24.161-0.22594-10.488"/><path d="m14.205 13.741 0.2154 10.504"/><path d="m14.768 24.324-0.20579-10.519"/><path d="m14.935 13.881 0.18636 10.55"/><path d="m15.485 24.524-0.18286-10.568"/><path d="m15.626 14.015 0.1789 10.607"/><path d="m16.172 24.711-0.15707-10.616"/><path d="m16.389 14.167 0.13691 10.636"/><path d="m16.873 24.895-0.13883-10.672"/></g><path d="m1.1699 24.168 7.6895-11.51" stroke="#e9e56f" stroke-dasharray="0.129507, 0.129507" stroke-width=".12951"/><path d="m9.2155 22.857-7.9485 1.3113" stroke="#e9e56f" stroke-dasharray="0.129507, 0.129507" stroke-width=".12951"/></g><path d="m1.2687 23.075c-0.10366 0.01062-0.20128 0.04442-0.28649 0.09923-0.020721 0.01269-0.040251 0.02743-0.05877 0.04287v-0.0026 0.0073c-0.33786 0.51886-0.60402 1.0908-0.92343 1.6668 0.67297-0.03491 1.4322-0.13176 1.9653-0.19589 0.34837-0.22643 0.41385-0.74689 0.14673-1.1652-0.19558-0.30636-0.526-0.48469-0.83809-0.45252z" fill="#d2d6dc" style="paint-order:normal"/></svg>
