<?xml version="1.0" encoding="UTF-8"?>
<svg class="animated inactive" width="176.5" height="139.87" enable-background="new 0 0 198.44 105.83" version="1.1" viewBox="0 0 45.716 19.522" xml:space="preserve" xmlns="http://www.w3.org/2000/svg" xmlns:cc="http://creativecommons.org/ns#" xmlns:dc="http://purl.org/dc/elements/1.1/" xmlns:rdf="http://www.w3.org/1999/02/22-rdf-syntax-ns#"><metadata><rdf:RDF><cc:Work rdf:about=""><dc:format>image/svg+xml</dc:format><dc:type rdf:resource="http://purl.org/dc/dcmitype/StillImage"/><dc:title/></cc:Work></rdf:RDF></metadata>
  <filter id="blur-filter" x="-2" y="-2" width="200" height="200">
    <feGaussianBlur in="SourceGraphic" stdDeviation="2"/>
  </filter><circle cx="22.332" cy="11.248" r="5.3149" fill="#a1a1a1" fill-opacity=".98598" style="paint-order:normal"/><circle cx="22.13" cy="10.539" r="3.9836" fill="#bdbdbd" fill-opacity=".98598" style="paint-order:normal"/><path d="m2.121 23.637 12.374-11.561 29.456 4.8337-26.486 10.827z" fill="none" stroke="#535e70" stroke-width=".12951"/><circle cx="21.801" cy="9.9316" r="2.8534" fill="#cecece" fill-opacity=".98598" style="paint-order:normal"/><path d="m14.145-4.6933 0.33765 16.731 29.508 4.8099 1.4892-20.116z" fill="none" stroke="#535e70" stroke-width=".12951"/><circle cx="20.915" cy="8.7167" r="1.0951" fill="#fff" fill-opacity=".98598" style="paint-order:normal"/><path d="m17.318 13.063a5.3677 5.3677 0 0 0 6.8297 3.3131 5.3677 5.3677 0 0 0 3.3132-6.8299 5.3677 5.3677 0 0 0-1.2551-2.0079 5.3677 5.3677 0 0 1-3.5699 4.4775 5.3677 5.3677 0 0 1-5.5744-1.3037 5.3677 5.3677 0 0 0 0.25642 2.3509z" fill="#696969" fill-opacity=".98598" style="paint-order:normal"/><path d="m1.4617 13.983 15.872 3.0057 0.10557 10.722-15.31-4.0603z" fill="none" stroke="#535e70" stroke-width=".12951"/><path d="m27.549 9.9429a5.3149 5.3149 0 0 0-0.70845-1.4724 5.3149 5.3149 0 0 1-3.7912 4.9806 5.3149 5.3149 0 0 1-5.9053-2.099 5.3149 5.3149 0 0 0 0.21887 1.63 5.3149 5.3149 0 0 0 6.6126 3.5733 5.3149 5.3149 0 0 0 3.5734-6.6125z" fill="#3f3f3f" fill-opacity=".98598" style="paint-order:normal"/><g fill="none"><g stroke="#a7a7a7" stroke-width=".028123"><path d="m1.7275 14.053 0.64678 9.7071"/><path d="m2.6515 23.817-0.61845-9.6858"/><path d="m2.3245 14.174 0.60415 9.7355"/><path d="m3.2485 23.988-0.59708-9.7498"/><path d="m2.9003 14.287 0.61832 9.7853"/><path d="m3.7958 24.094-0.57573-9.7497"/></g><path d="m1.4698 13.995 12.691-18.696 31.366 1.4853-28.192 20.213z" stroke="#535e70" stroke-width=".12951"/><g stroke="#a7a7a7" stroke-width=".028123"><path d="m3.5256 14.394 0.59011 9.8278"/><path d="m4.3929 24.321-0.5473-9.8633"/><path d="m4.1228 14.529 0.56864 9.8491"/><path d="m4.9898 24.428-0.5473-9.8491"/><path d="m5.2863 24.533-0.52761-9.9118"/><path d="m5.0451 14.686 0.54274 9.9219"/><path d="m5.8694 24.678-0.51285-9.9319"/><path d="m5.7009 14.799 0.49762 9.9721"/><path d="m6.5077 24.841-0.49762-9.9847"/><path d="m6.3191 14.917 0.47961 10.022"/><path d="m7.108 24.992-0.4748-10.005"/><path d="m6.9676 15.058 0.46964 10.03"/><path d="m7.7187 25.148-0.44457-10.035"/><path d="m7.6121 15.171 0.4304 10.076"/><path d="m8.3658 25.326-0.42825-10.068"/><path d="m8.2641 15.301 0.41445 10.11"/><path d="m9.0021 25.496-0.42382-10.143"/><path d="m8.9176 15.415 0.40691 10.184"/><path d="m17.275 17.031 0.14412 10.711"/><path d="m1.6111 16.549 15.702 3.3278"/><path d="m17.313 20.291-15.698-3.381"/><path d="m1.6583 17.27 15.655 3.424"/><path d="m17.331 21.091-15.66-3.4691"/><path d="m1.7099 17.984 15.626 3.5012"/><path d="m17.336 21.889-15.596-3.5262"/><path d="m1.7784 18.714 15.571 3.5778"/><path d="m17.337 22.692-15.568-3.6333"/><path d="m1.8047 19.422 15.547 3.6634"/><path d="m17.359 23.476-15.533-3.6761"/><path d="m1.8688 20.159 15.488 3.7144"/><path d="m17.357 24.269-15.483-3.781"/><path d="m1.9015 20.842 15.471 3.8254"/><path d="m17.378 25.04-15.464-3.8304"/><path d="m1.9531 21.553 15.433 3.8763"/><path d="m17.386 25.813-15.399-3.899"/><path d="m1.9922 22.274 15.401 3.9328"/><path d="m17.393 26.584-15.37-3.9655"/><path d="m2.0546 22.979 15.343 4.0003"/><path d="m17.41 27.346-15.336-4.0288"/></g></g><g fill="#e9e56f"><g fill-rule="evenodd" stroke="#e9dc6f" stroke-width=".21219px"><path d="m8.3474-5.9172-0.91315-2.1229"/><path d="m8.3438-5.9129 1.3841-1.8514"/><path d="m8.3383-5.914 2.2974 0.2715"/><path d="m8.3364-5.9193 0.91328 2.1229"/><path d="m8.3402-5.9236-1.3842 1.8514"/><path d="m8.3457-5.9225-2.2975-0.2715"/></g><g stroke="#e9dc6f" stroke-width="2.6481"><g transform="matrix(.022573 -.17507 .17529 .022545 -48.934 75.732)"><path d="m501.47 274.25-1.2053 3.2778-1.2053-3.2778c0.71162 0.52365 1.6852 0.52064 2.4106 0z" fill="#e9e56f" fill-rule="evenodd" stroke="#e9dc6f" stroke-linejoin="round" stroke-width=".49652"/></g><g transform="matrix(.023565 -.17494 -.17516 -.023536 42.461 87.799)"><path d="m501.47 274.25-1.2053 3.2778-1.2053-3.2778c0.71162 0.52365 1.6852 0.52064 2.4106 0z" fill="#e9e56f" fill-rule="evenodd" stroke="#e9dc6f" stroke-linejoin="round" stroke-width=".49652"/></g><g transform="matrix(.16138 -.071962 -.072052 -.16118 -53.433 72.423)"><path d="m501.47 274.25-1.2053 3.2778-1.2053-3.2778c0.71162 0.52365 1.6852 0.52064 2.4106 0z" fill="#e9e56f" fill-rule="evenodd" stroke="#e9dc6f" stroke-linejoin="round" stroke-width=".49652"/></g><g transform="matrix(-.16211 .070323 .070411 .16191 70.97 -83.545)"><path d="m501.47 274.25-1.2053 3.2778-1.2053-3.2778c0.71162 0.52365 1.6852 0.52064 2.4106 0z" fill="#e9e56f" fill-rule="evenodd" stroke="#e9dc6f" stroke-linejoin="round" stroke-width=".49652"/></g><g transform="matrix(-.13622 -.11247 -.11261 .13605 106.1 14.71)"><path d="m501.47 274.25-1.2053 3.2778-1.2053-3.2778c0.71162 0.52365 1.6852 0.52064 2.4106 0z" fill="#e9e56f" fill-rule="evenodd" stroke="#e9dc6f" stroke-linejoin="round" stroke-width=".49652"/></g><g transform="matrix(.13622 .11247 .11261 -.13605 -89.406 -26.572)"><path d="m501.47 274.25-1.2053 3.2778-1.2053-3.2778c0.71162 0.52365 1.6852 0.52064 2.4106 0z" fill="#e9e56f" fill-rule="evenodd" stroke="#e9dc6f" stroke-linejoin="round" stroke-width=".49652"/></g></g><circle cx="8.3738" cy="-5.8902" r="1.719" style="paint-order:normal"/></g><path d="m0.97446 27.101 20.035-18.047-12.528-15.163" fill="none" stroke="#e9e56f" stroke-dasharray="0.129507, 0.129507" stroke-width=".12951"/><path d="m1.0743 25.94c-0.102 0.02124-0.19558 0.06504-0.27466 0.12839-0.019167 0.01476-0.037194 0.03144-0.054004 0.04872v-0.0026 0.0073c-0.28222 0.55112-0.48764 1.1475-0.74562 1.7536 0.66572-0.10451 1.4109-0.27955 1.9344-0.39862 0.32302-0.26132 0.33418-0.78577 0.025124-1.1742-0.2263-0.28442-0.57343-0.42753-0.88049-0.36319z" fill="#d2d6dc" style="paint-order:normal"/><g fill="none" stroke="#a7a7a7" stroke-width=".028123"><path d="m1.4502 14.327 15.846 3.1067"/><path d="m17.286 17.852-15.819-3.1486"/><path d="m1.5169 15.07 15.772 3.1797"/><path d="m17.286 18.655-15.75-3.2159"/><path d="m1.5641 15.82 15.721 3.2485"/><path d="m17.285 19.488-15.707-3.318"/></g><path d="m9.4022 19.731v-0.39989l0.30766 0.07478 0.01813 0.36909z" fill="#fff" fill-opacity=".98598"/><g fill="none" stroke="#a7a7a7" stroke-width=".028123"><path d="m9.645 25.674-0.39971-10.188"/><path d="m9.5708 15.555 0.36837 10.203"/><path d="m10.259 25.842-0.35433-10.217"/><path d="m10.248 15.695 0.36909 10.241"/><path d="m10.95 26.025-0.36226-10.277"/><path d="m10.908 15.815 0.36694 10.304"/><path d="m11.6 26.199-0.3464-10.308"/><path d="m11.602 15.946 0.3162 10.33"/><path d="m12.241 26.35-0.30046-10.332"/><path d="m12.271 16.073 0.29219 10.38"/><path d="m12.906 26.541-0.26362-10.397"/><path d="m12.991 16.207 0.26098 10.423"/><path d="m13.586 26.714-0.27479-10.445"/><path d="m13.676 16.344 0.24671 10.468"/><path d="m14.272 26.904-0.22594-10.488"/><path d="m14.382 16.484 0.2154 10.504"/><path d="m14.945 27.067-0.20579-10.519"/><path d="m15.111 16.624 0.18636 10.55"/><path d="m15.661 27.267-0.18286-10.568"/><path d="m15.803 16.758 0.1789 10.607"/><path d="m16.348 27.454-0.15707-10.616"/><path d="m16.565 16.91 0.13692 10.636"/><path d="m17.049 27.637-0.13883-10.672"/></g></svg>
