<svg width="110" height="70" version="1.1" viewBox="0 0 29.104 18.521" xmlns="http://www.w3.org/2000/svg">
 <g transform="translate(-121.76 -80.138)">
  <g>
   <path d="m127.76 95.366h-2.4108l-0.94104 3.2939h2.6459z" fill="#e8eaec"/>
   <path d="m126.33 91.926-0.98293 3.4397h2.4108l0.73692-3.4397z" fill="#03060c"/>
   <path d="m127.01 89.545-0.68008 2.3813h2.1648l0.51058-2.3813z" fill="#e8eaec"/>
   <path d="m127.77 86.899-0.75604 2.6459h1.9953l0.56691-2.6459z" fill="#03060c"/>
   <path d="m128.3 85.047-0.52918 1.8521h1.8062l0.39689-1.8521z" fill="#e8eaec"/>
   <path d="m128.83 83.194-0.52918 1.8521h1.6739l0.39688-1.8521z" fill="#03060c"/>
   <path d="m129.28 81.607-0.45375 1.5875h1.5416l0.34003-1.5875z" fill="#e8eaec"/>
   <path d="m129.7 80.138-0.41961 1.4687h1.4278l0.31473-1.4687z" fill="#03060c"/>
   <path d="m130.17 95.366h-2.4108l-0.70592 3.2939h2.6459z" fill="#03060c"/>
   <path d="m128.5 91.926-0.73692 3.4397h2.4108l0.49145-3.4397z" fill="#e8eaec"/>
   <path d="m129.01 89.545-0.51058 2.3813h2.1653l0.34005-2.3813z" fill="#03060c"/>
   <path d="m129.58 86.899-0.56691 2.6459h1.9948l0.37776-2.6459z" fill="#e8eaec"/>
   <path d="m129.97 85.047-0.39689 1.8521h1.8056l0.26459-1.8521z" fill="#03060c"/>
   <path d="m130.37 83.194-0.39688 1.8521h1.6733l0.26459-1.8521z" fill="#e8eaec"/>
   <path d="m130.71 81.607-0.34003 1.5875h1.541l0.22686-1.5875z" fill="#03060c"/>
   <path d="m131.02 80.138-0.31473 1.4687h1.4279l0.20982-1.4687z" fill="#e8eaec"/>
   <path d="m132.58 95.366h-2.4103l-0.47079 3.2939h2.6459z" fill="#e8eaec"/>
   <path d="m130.66 91.926-0.49145 3.4397h2.4103l0.24599-3.4397z" fill="#03060c"/>
   <path d="m131 89.545-0.34005 2.3813h2.1648l0.17-2.3813z" fill="#e8eaec"/>
   <path d="m131.38 86.899-0.37776 2.6459h1.9948l0.18916-2.6459z" fill="#03060c"/>
   <path d="m131.65 85.047-0.26459 1.8521h1.8062l0.1323-1.8521z" fill="#e8eaec"/>
   <path d="m131.91 83.194-0.26459 1.8521h1.6739l0.13229-1.8521z" fill="#03060c"/>
   <path d="m132.14 81.607-0.22686 1.5875h1.5416l0.11317-1.5875z" fill="#e8eaec"/>
   <path d="m132.35 80.138-0.20982 1.4687h1.4279l0.10491-1.4687z" fill="#03060c"/>
   <path d="m134.99 95.366h-2.4108l-0.23514 3.2939h2.6459z" fill="#03060c"/>
   <path d="m132.83 91.926-0.24599 3.4397h2.4108v-3.4397z" fill="#e8eaec"/>
   <path d="m133 89.545-0.17 2.3813h2.1648v-2.3813z" fill="#03060c"/>
   <path d="m133.19 86.899-0.18916 2.6459h1.9948v-2.6459z" fill="#e8eaec"/>
   <path d="m133.32 85.047-0.1323 1.8521h1.8056v-1.8521z" fill="#03060c"/>
   <path d="m133.45 83.194-0.13229 1.8521h1.6733v-1.8521z" fill="#e8eaec"/>
   <path d="m133.57 81.607-0.11317 1.5875h1.541v-1.5875z" fill="#03060c"/>
   <path d="m133.67 80.138-0.10491 1.4687h1.4279v-1.4687z" fill="#e8eaec"/>
   <path d="m137.4 95.366h-2.4108v3.2939h2.6459z" fill="#e8eaec"/>
   <path d="m134.99 91.926v3.4397h2.4108l-0.24599-3.4397z" fill="#03060c"/>
   <path d="m134.99 89.545v2.3813h2.1648l-0.17-2.3813z" fill="#e8eaec"/>
   <path d="m134.99 86.899v2.6459h1.9948l-0.18916-2.6459z" fill="#03060c"/>
   <path d="m134.99 85.047v1.8521h1.8056l-0.13229-1.8521z" fill="#e8eaec"/>
   <path d="m134.99 83.194v1.8521h1.6733l-0.1323-1.8521z" fill="#03060c"/>
   <path d="m134.99 81.607v1.5875h1.541l-0.11316-1.5875z" fill="#e8eaec"/>
   <path d="m134.99 80.138v1.4687h1.4279l-0.10492-1.4687z" fill="#03060c"/>
   <path d="m139.81 95.366h-2.4103l0.23514 3.2939h2.6459z" fill="#03060c"/>
   <path d="m137.16 91.926 0.24599 3.4397h2.4103l-0.49145-3.4397z" fill="#e8eaec"/>
   <path d="m136.99 89.545 0.17 2.3813h2.1648l-0.34005-2.3813z" fill="#03060c"/>
   <path d="m136.8 86.899 0.18916 2.6459h1.9948l-0.37776-2.6459z" fill="#e8eaec"/>
   <path d="m136.67 85.047 0.13229 1.8521h1.8062l-0.26459-1.8521z" fill="#03060c"/>
   <path d="m136.53 83.194 0.1323 1.8521h1.6738l-0.26459-1.8521z" fill="#e8eaec"/>
   <path d="m136.42 81.607 0.11316 1.5875h1.5416l-0.22686-1.5875z" fill="#03060c"/>
   <path d="m136.32 80.138 0.10492 1.4687h1.4279l-0.20982-1.4687z" fill="#e8eaec"/>
   <path d="m142.22 95.366h-2.4108l0.47079 3.2939h2.6459z" fill="#e8eaec"/>
   <path d="m139.32 91.926 0.49145 3.4397h2.4108l-0.73691-3.4397z" fill="#03060c"/>
   <path d="m138.98 89.545 0.34005 2.3813h2.1653l-0.51059-2.3813z" fill="#e8eaec"/>
   <path d="m138.6 86.899 0.37776 2.6459h1.9948l-0.56691-2.6459z" fill="#03060c"/>
   <path d="m138.34 85.047 0.26459 1.8521h1.8056l-0.39688-1.8521z" fill="#e8eaec"/>
   <path d="m138.08 83.194 0.26459 1.8521h1.6733l-0.39689-1.8521z" fill="#03060c"/>
   <path d="m137.85 81.607 0.22686 1.5875h1.541l-0.34003-1.5875z" fill="#e8eaec"/>
   <path d="m137.64 80.138 0.20982 1.4687h1.4279l-0.31473-1.4687z" fill="#03060c"/>
   <path d="m144.64 95.366h-2.4108l0.70593 3.2939h2.6459z" fill="#03060c"/>
   <path d="m141.49 91.926 0.73691 3.4397h2.4108l-0.98293-3.4397z" fill="#e8eaec"/>
   <path d="m140.98 89.545 0.51059 2.3813h2.1648l-0.68008-2.3813z" fill="#03060c"/>
   <path d="m140.41 86.899 0.56691 2.6459h1.9953l-0.75604-2.6459z" fill="#e8eaec"/>
   <path d="m140.01 85.047 0.39688 1.8521h1.8062l-0.52918-1.8521z" fill="#03060c"/>
   <path d="m139.62 83.194 0.39689 1.8521h1.6738l-0.52918-1.8521z" fill="#e8eaec"/>
   <path d="m139.28 81.607 0.34003 1.5875h1.5416l-0.45375-1.5875z" fill="#03060c"/>
   <path d="m138.96 80.138 0.31473 1.4687h1.4278l-0.41961-1.4687z" fill="#e8eaec"/>
   <path d="m147.05 95.366h-2.4108l0.94104 3.2939h2.6459z" fill="#e8eaec"/>
   <path d="m143.65 91.926 0.98293 3.4397h2.4108l-1.2284-3.4397z" fill="#03060c"/>
   <path d="m142.97 89.545 0.68008 2.3813h2.1653l-0.85061-2.3813z" fill="#e8eaec"/>
   <path d="m142.22 86.899 0.75604 2.6459h1.9948l-0.9452-2.6459z" fill="#03060c"/>
   <path d="m141.69 85.047 0.52918 1.8521h1.8056l-0.66147-1.8521z" fill="#e8eaec"/>
   <path d="m141.16 83.194 0.52918 1.8521h1.6733l-0.66148-1.8521z" fill="#03060c"/>
   <path d="m140.7 81.607 0.45375 1.5875h1.541l-0.56691-1.5875z" fill="#e8eaec"/>
   <path d="m140.28 80.138 0.41961 1.4687h1.4279l-0.52453-1.4687z" fill="#03060c"/>
   <path d="m125.35 95.366h-2.4108l-1.1762 3.2939h2.6459z" fill="#03060c"/>
   <path d="m126.33 91.926h-2.1653l-1.2284 3.4397h2.4108z" fill="#e8eaec"/>
   <path d="m127.01 89.545h-1.9953l-0.85061 2.3813h2.1653z" fill="#03060c"/>
   <path d="m125.96 86.899-0.9452 2.6459h1.9953l0.75604-2.6459z" fill="#e8eaec"/>
   <path d="m128.3 85.047h-1.6738l-0.66148 1.8521h1.8062z" fill="#03060c"/>
   <path d="m128.83 83.194h-1.5416l-0.66147 1.8521h1.6738z" fill="#e8eaec"/>
   <path d="m129.28 81.607h-1.4279l-0.56692 1.5875h1.5416z" fill="#03060c"/>
   <path d="m128.38 80.138-0.52452 1.4687h1.4279l0.41961-1.4687z" fill="#e8eaec"/>
   <path d="m149.46 95.366h-2.4103l1.1762 3.2939h2.6459z" fill="#03060c"/>
   <path d="m145.82 91.926 1.2284 3.4397h2.4103l-1.4738-3.4397z" fill="#e8eaec"/>
   <path d="m144.97 89.545 0.85061 2.3813h2.1648l-1.0207-2.3813z" fill="#03060c"/>
   <path d="m144.02 86.899 0.9452 2.6459h1.9948l-1.1338-2.6459z" fill="#e8eaec"/>
   <path d="m143.36 85.047 0.66147 1.8521h1.8062l-0.79377-1.8521z" fill="#03060c"/>
   <path d="m142.7 83.194 0.66148 1.8521h1.6738l-0.79377-1.8521z" fill="#e8eaec"/>
   <path d="m142.13 81.607 0.56691 1.5875h1.5416l-0.68061-1.5875z" fill="#03060c"/>
   <path d="m141.61 80.138 0.52453 1.4687h1.4279l-0.62943-1.4687z" fill="#e8eaec"/>
  </g>
  <path d="m121.76 98.66 21.167-18.521 7.9377 18.521z" fill="#a0f1c6" fill-opacity=".33178"/>
  <path d="m121.76 98.66 6.6148-18.521h14.552z" fill="#ffd179" fill-opacity=".53738"/>
 </g>
</svg>
