<svg width="167.41mm" height="45.53mm" version="1.1" viewBox="0 0 167.41 45.53" xmlns="http://www.w3.org/2000/svg">
 <g transform="translate(-278.28 -203.5)">
  <rect x="339.27" y="203.63" width="44.842" height="45.17" fill="#1d232d" stroke="#535e70" stroke-width=".26458"/>
  <g fill="#009244">
   <rect x="339.34" y="212.21" width="2.6509" height="5.5937"/>
   <rect x="344.77" y="203.68" width="2.8222" height="8.4753"/>
   <rect x="353.24" y="206.5" width="2.8222" height="5.6502"/>
   <rect x="367.35" y="209.33" width="2.8222" height="2.7686"/>
   <rect x="370.17" y="212.15" width="2.8222" height="5.5937"/>
   <rect x="372.99" y="206.5" width="2.8222" height="2.7686"/>
   <rect x="347.59" y="214.98" width="2.8222" height="8.4188"/>
   <rect x="350.3" y="217.8" width="5.7573" height="2.7686"/>
   <rect x="358.77" y="214.98" width="5.7573" height="2.7686"/>
   <rect x="361.59" y="220.63" width="5.7573" height="2.7686"/>
   <rect x="361.7" y="217.8" width="2.8787" height="2.7686"/>
   <rect x="372.93" y="217.8" width="5.6444" height="2.7686"/>
   <rect x="358.88" y="223.51" width="2.7093" height="5.6502"/>
   <rect x="373.1" y="223.45" width="2.7093" height="5.6502"/>
   <rect x="375.93" y="229.1" width="2.7093" height="2.8816"/>
   <rect x="367.35" y="231.93" width="2.7093" height="5.5372"/>
   <rect x="370.28" y="234.75" width="2.7093" height="8.4188"/>
   <rect x="353.24" y="226.28" width="2.7093" height="5.5937"/>
   <rect x="347.59" y="229.16" width="2.7093" height="8.3623"/>
   <rect x="342" y="229.1" width="5.4751" height="2.7686"/>
   <rect x="344.77" y="237.58" width="2.8787" height="2.7686"/>
   <rect x="342" y="243.29" width="5.6445" height="2.7686"/>
   <rect x="350.3" y="240.4" width="2.9351" height="2.7686"/>
   <rect x="356.06" y="243.23" width="2.8222" height="5.6502"/>
   <rect x="356.06" y="234.75" width="2.8222" height="5.6502"/>
   <rect x="358.88" y="237.58" width="5.7009" height="2.8251"/>
   <rect x="375.81" y="237.58" width="2.8787" height="8.4188"/>
   <rect x="378.58" y="240.35" width="2.8787" height="2.8251"/>
  </g>
  <g fill="none" stroke="#a6aeb8" stroke-width=".26458">
   <path d="m350.41 203.68v45.202"/>
   <path d="m361.7 203.68v45.202"/>
   <path d="m372.99 203.68v45.202"/>
   <path d="m339.18 214.98h45.011"/>
   <path d="m339.18 226.28h45.011"/>
   <path d="m339.18 237.58h45.011"/>
  </g>
  <g fill="#a6aeb8">
   <rect x="343.08" y="213.85" width=".56444" height="2.2601"/>
   <rect x="354.36" y="213.85" width=".56444" height="2.2601"/>
   <rect x="365.65" y="213.85" width=".56444" height="2.2601"/>
   <rect x="379.76" y="213.85" width=".56444" height="2.2601"/>
   <rect x="379.76" y="225.15" width=".56444" height="2.2601"/>
   <rect x="371.3" y="225.15" width=".56444" height="2.2601"/>
   <rect x="362.83" y="225.15" width=".56444" height="2.2601"/>
   <rect x="357.19" y="225.15" width=".56444" height="2.2601"/>
   <rect x="351.54" y="225.15" width=".56444" height="2.2601"/>
   <rect x="343.08" y="225.15" width=".56444" height="2.2601"/>
   <rect x="343.08" y="236.45" width=".56444" height="2.2601"/>
   <rect x="351.54" y="236.45" width=".56444" height="2.2601"/>
   <rect x="365.65" y="236.45" width=".56444" height="2.2601"/>
   <rect x="374.12" y="236.45" width=".56444" height="2.2601"/>
   <rect x="382.59" y="236.45" width=".56444" height="2.2601"/>
   <rect transform="rotate(90)" x="210.46" y="-351.54" width=".56502" height="2.2578"/>
   <rect transform="rotate(90)" x="224.58" y="-351.54" width=".56502" height="2.2578"/>
   <rect transform="rotate(90)" x="227.41" y="-351.54" width=".56502" height="2.2578"/>
   <rect transform="rotate(90)" x="238.71" y="-351.54" width=".56502" height="2.2578"/>
   <rect transform="rotate(90)" x="247.18" y="-351.54" width=".56502" height="2.2578"/>
   <rect transform="rotate(90)" x="244.36" y="-362.83" width=".56502" height="2.2578"/>
   <rect transform="rotate(90)" x="233.06" y="-362.83" width=".56502" height="2.2578"/>
   <rect transform="rotate(90)" x="207.63" y="-362.83" width=".56502" height="2.2578"/>
   <rect transform="rotate(90)" x="204.81" y="-374.12" width=".56502" height="2.2578"/>
   <rect transform="rotate(90)" x="221.76" y="-374.12" width=".56502" height="2.2578"/>
   <rect transform="rotate(90)" x="230.23" y="-374.12" width=".56502" height="2.2578"/>
   <rect transform="rotate(90)" x="244.36" y="-374.12" width=".56502" height="2.2578"/>
  </g>
  <rect x="400.72" y="203.73" width="44.842" height="45.17" fill="#1d232d" stroke="#535e70" stroke-width=".26458"/>
  <g fill="none">
   <path d="m411.8 203.68v45.202" stroke="#7b8694" stroke-width=".13229"/>
   <g stroke="#535e70" stroke-width=".13229">
    <path d="m423.09 203.68v45.202"/>
    <path d="m434.37 203.68v45.202"/>
    <path d="m400.57 214.98h45.011"/>
    <path d="m400.57 226.28h45.011"/>
   </g>
   <path d="m427.45 236.16 5.2385-8.3403" stroke="#a6aeb8" stroke-width=".28222px"/>
   <path d="m400.57 237.58h45.011" stroke="#535e70" stroke-width=".13229"/>
  </g>
  <g fill="#a6aeb8">
   <rect x="404.46" y="213.85" width=".56444" height="2.2601"/>
   <rect x="415.75" y="213.85" width=".56444" height="2.2601"/>
   <rect x="427.04" y="213.85" width=".56444" height="2.2601"/>
   <rect x="441.15" y="213.85" width=".56444" height="2.2601"/>
   <rect x="441.15" y="225.15" width=".56444" height="2.2601"/>
   <rect x="432.68" y="225.15" width=".56444" height="2.2601"/>
   <rect x="424.21" y="225.15" width=".56444" height="2.2601"/>
   <rect x="418.57" y="225.15" width=".56444" height="2.2601"/>
   <rect x="412.93" y="225.15" width=".56444" height="2.2601"/>
   <rect x="404.46" y="225.15" width=".56444" height="2.2601"/>
   <rect x="404.46" y="236.45" width=".56444" height="2.2601"/>
   <rect x="412.93" y="236.45" width=".56444" height="2.2601"/>
   <rect x="427.04" y="236.45" width=".56444" height="2.2601"/>
   <rect x="435.5" y="236.45" width=".56444" height="2.2601"/>
   <rect x="443.97" y="236.45" width=".56444" height="2.2601"/>
   <rect transform="rotate(90)" x="210.46" y="-412.93" width=".56502" height="2.2578"/>
   <rect transform="rotate(90)" x="224.58" y="-412.93" width=".56502" height="2.2578"/>
   <rect transform="rotate(90)" x="227.41" y="-412.93" width=".56502" height="2.2578"/>
   <rect transform="rotate(90)" x="238.71" y="-412.93" width=".56502" height="2.2578"/>
   <rect transform="rotate(90)" x="247.18" y="-412.93" width=".56502" height="2.2578"/>
  </g>
  <path d="m432.83 244.65-5.5877-5.5934-2.7439 5.5934h8.7308" fill="none" stroke="#a6aeb8" stroke-width=".28222px"/>
  <rect transform="rotate(90)" x="244.36" y="-424.21" width=".56502" height="2.2578" fill="#a6aeb8"/>
  <path d="m424.45 227.43 2.9435 8.8896" fill="none" stroke="#a6aeb8" stroke-width=".28222px"/>
  <g fill="#a6aeb8">
   <rect transform="rotate(90)" x="233.06" y="-424.21" width=".56502" height="2.2578"/>
   <rect transform="rotate(90)" x="207.63" y="-424.21" width=".56502" height="2.2578"/>
   <rect transform="rotate(90)" x="204.81" y="-435.5" width=".56502" height="2.2578"/>
   <rect transform="rotate(90)" x="221.76" y="-435.5" width=".56502" height="2.2578"/>
   <rect transform="rotate(90)" x="230.23" y="-435.5" width=".56502" height="2.2578"/>
   <rect transform="rotate(90)" x="244.36" y="-435.5" width=".56502" height="2.2578"/>
  </g>
  <g stroke="#a6aeb8">
   <path d="m404.67 213.64 5.7855-2.9664" fill="none" stroke-width=".28222px"/>
   <ellipse cx="404.74" cy="213.59" rx=".73816" ry=".73891" fill="#fff" stroke-width=".13229"/>
   <path d="m410.28 224.83h-5.6092v-8.334" fill="none" stroke-width=".28222px"/>
   <path d="m404.5 216.59 5.6875 8.1405" fill="none" stroke-width=".28222px"/>
   <ellipse cx="404.74" cy="216.41" rx=".73816" ry=".73891" fill="#fff" stroke-width=".13229"/>
   <ellipse cx="410.38" cy="210.76" rx=".73816" ry=".73891" fill="#fff" stroke-width=".13229"/>
   <path d="m413.17 210.7 8.4314-2.7545-5.715 5.7208z" fill="none" stroke-width=".28222px"/>
   <ellipse cx="413.2" cy="210.76" rx=".73816" ry=".73891" fill="#fff" stroke-width=".13229"/>
   <ellipse cx="416.03" cy="213.59" rx=".73816" ry=".73891" fill="#fff" stroke-width=".13229"/>
   <path d="m418.78 224.83-2.7164-8.4047-2.8575 8.4753z" fill="none" stroke-width=".28222px"/>
   <ellipse cx="416.03" cy="216.41" rx=".73816" ry=".73891" fill="#fff" stroke-width=".13229"/>
   <ellipse cx="421.67" cy="207.94" rx=".73816" ry=".73891" fill="#fff" stroke-width=".13229"/>
   <path d="m424.43 207.91 2.8928 5.7914 5.6445-8.6872z" fill="none" stroke-width=".28222px"/>
   <ellipse cx="424.49" cy="207.94" rx=".73816" ry=".73891" fill="#fff" stroke-width=".13229"/>
   <ellipse cx="427.31" cy="213.59" rx=".73816" ry=".73891" fill="#fff" stroke-width=".13229"/>
   <path d="m433 222.08-5.7502-5.6502-2.7517 8.4047" fill="none" stroke-width=".28222px"/>
   <path d="m427.35 216.44 5.6376 8.3902" fill="none" stroke-width=".28222px"/>
   <ellipse cx="427.31" cy="216.41" rx=".73816" ry=".73891" fill="#fff" stroke-width=".13229"/>
   <ellipse cx="432.96" cy="205.11" rx=".73816" ry=".73891" fill="#fff" stroke-width=".13229"/>
   <path d="m435.82 205.12 5.5033 8.3694" fill="none" stroke-width=".28222px"/>
   <ellipse cx="435.78" cy="205.11" rx=".73816" ry=".73891" fill="#fff" stroke-width=".13229"/>
   <path d="m435.79 222.11 5.7503-5.7208v8.6518z" fill="none" stroke-width=".28222px"/>
  </g>
  <g fill="#fff" stroke="#a6aeb8" stroke-width=".13229">
   <ellipse cx="441.43" cy="216.41" rx=".73816" ry=".73891"/>
   <ellipse cx="441.43" cy="213.59" rx=".73816" ry=".73891"/>
   <ellipse cx="441.43" cy="224.89" rx=".73816" ry=".73891"/>
  </g>
  <g stroke="#a6aeb8">
   <path d="m441.39 227.62-5.715 8.5813" fill="none" stroke-width=".28222px"/>
   <path d="m435.75 230.59 5.6798-3.0018 2.7517 8.546h-8.502z" fill="none" stroke-width=".28222px"/>
   <ellipse cx="441.43" cy="227.71" rx=".73816" ry=".73891" fill="#fff" stroke-width=".13229"/>
   <ellipse cx="435.78" cy="222.06" rx=".73816" ry=".73891" fill="#fff" stroke-width=".13229"/>
   <path d="m432.96 222.01v2.8604h-8.4667z" fill="none" stroke-width=".28222px"/>
   <ellipse cx="432.96" cy="222.06" rx=".73816" ry=".73891" fill="#fff" stroke-width=".13229"/>
   <ellipse cx="432.96" cy="224.89" rx=".73816" ry=".73891" fill="#fff" stroke-width=".13229"/>
  </g>
  <g fill="none" stroke="#a6aeb8" stroke-width=".28222px">
   <path d="m424.57 233.34v-5.6503h8.3608"/>
   <path d="m424.53 233.41 8.3961-2.7545-5.6445 5.6503-3.0339-2.9311"/>
   <path d="m432.89 230.59v-2.9311"/>
  </g>
  <g fill="#fff" stroke="#a6aeb8" stroke-width=".13229">
   <ellipse cx="432.96" cy="227.71" rx=".73816" ry=".73891"/>
   <ellipse cx="424.49" cy="227.71" rx=".73816" ry=".73891"/>
   <ellipse cx="424.49" cy="224.89" rx=".73816" ry=".73891"/>
   <ellipse cx="418.85" cy="224.89" rx=".73816" ry=".73891"/>
  </g>
  <g stroke="#a6aeb8">
   <path d="m413.28 227.58 8.3608 5.8268-2.8223-5.7561z" fill="none" stroke-width=".28222px"/>
   <path d="m418.68 227.76-5.5386 8.44 8.4667-2.7192" fill="none" stroke-width=".28222px"/>
   <ellipse cx="418.85" cy="227.71" rx=".73816" ry=".73891" fill="#fff" stroke-width=".13229"/>
   <path d="m413.17 236.2v-8.6167" fill="none" stroke-width=".28222px"/>
  </g>
  <g fill="#fff" stroke="#a6aeb8" stroke-width=".13229">
   <ellipse cx="413.2" cy="227.71" rx=".73816" ry=".73891"/>
   <ellipse cx="413.2" cy="224.89" rx=".73816" ry=".73891"/>
   <ellipse cx="410.38" cy="224.89" rx=".73816" ry=".73891"/>
  </g>
  <path d="m404.78 227.69v8.546l5.6092-8.6519z" fill="none" stroke="#a6aeb8" stroke-width=".28222px"/>
  <g fill="#fff" stroke="#a6aeb8" stroke-width=".13229">
   <ellipse cx="410.38" cy="227.71" rx=".73816" ry=".73891"/>
   <ellipse cx="404.74" cy="227.71" rx=".73816" ry=".73891"/>
   <ellipse cx="404.74" cy="224.89" rx=".73816" ry=".73891"/>
   <ellipse cx="404.74" cy="236.19" rx=".73816" ry=".73891"/>
  </g>
  <g stroke="#a6aeb8">
   <path d="m410.38 247.5v-8.54h-5.8371l5.5877 8.6399" fill="none" stroke-width=".28222px"/>
   <ellipse cx="404.74" cy="239.01" rx=".73816" ry=".73891" fill="#fff" stroke-width=".13229"/>
   <ellipse cx="410.38" cy="239.01" rx=".73816" ry=".73891" fill="#fff" stroke-width=".13229"/>
   <path d="m421.71 244.65-8.5811-5.5934v8.4901l8.7807-2.9966" fill="none" stroke-width=".28222px"/>
  </g>
  <g fill="#fff" stroke="#a6aeb8" stroke-width=".13229">
   <ellipse cx="413.2" cy="239.01" rx=".73816" ry=".73891"/>
   <ellipse cx="413.2" cy="236.19" rx=".73816" ry=".73891"/>
   <ellipse cx="424.49" cy="233.36" rx=".73816" ry=".73891"/>
   <ellipse cx="421.67" cy="233.36" rx=".73816" ry=".73891"/>
   <ellipse cx="427.31" cy="239.01" rx=".73816" ry=".73891"/>
   <ellipse cx="427.31" cy="236.19" rx=".73816" ry=".73891"/>
   <ellipse cx="432.96" cy="230.54" rx=".73816" ry=".73891"/>
  </g>
  <g stroke="#a6aeb8">
   <path d="m435.68 230.87 8.5372 5.3325" fill="none" stroke-width=".28222px"/>
   <ellipse cx="435.78" cy="230.54" rx=".73816" ry=".73891" fill="#fff" stroke-width=".13229"/>
   <ellipse cx="435.78" cy="236.19" rx=".73816" ry=".73891" fill="#fff" stroke-width=".13229"/>
   <path d="m435.73 239.11h8.4314l-8.2818 5.6933v-6.0429" fill="none" stroke-width=".28222px"/>
  </g>
  <g fill="#fff" stroke="#a6aeb8">
   <g stroke-width=".13229">
    <ellipse cx="435.78" cy="239.01" rx=".73816" ry=".73891"/>
    <ellipse cx="444.25" cy="239.01" rx=".73816" ry=".73891"/>
    <ellipse cx="444.25" cy="236.19" rx=".73816" ry=".73891"/>
    <ellipse cx="432.96" cy="244.66" rx=".73816" ry=".73891"/>
    <ellipse cx="435.78" cy="244.66" rx=".73816" ry=".73891"/>
    <ellipse cx="424.49" cy="244.66" rx=".73816" ry=".73891"/>
    <ellipse cx="421.67" cy="244.66" rx=".73816" ry=".73891"/>
   </g>
   <ellipse cx="410.38" cy="247.49" rx=".73816" ry=".73891" stroke-width=".056444"/>
   <ellipse cx="413.2" cy="247.49" rx=".73816" ry=".73891" stroke-width=".13229"/>
  </g>
  <g transform="matrix(.23548 0 0 .23075 240.31 -2.2606)" fill="#47d58a">
   <rect transform="rotate(-90)" x="-997.56" y="615.9" width="9.5" height="43.5"/>
   <path transform="rotate(-90 730.52 904.44)" d="m641.9 848.56-15.372-26.625h30.744z"/>
  </g>
  <rect x="278.41" y="203.63" width="44.842" height="45.17" fill="#1d232d" stroke="#535e70" stroke-width=".26458"/>
  <g fill="#009244">
   <rect x="278.49" y="212.21" width="2.6509" height="5.5937"/>
   <rect x="283.91" y="203.68" width="2.8222" height="8.4753"/>
   <rect x="292.38" y="206.5" width="2.8222" height="5.6502"/>
   <rect x="306.49" y="209.33" width="2.8222" height="2.7686"/>
   <rect x="309.31" y="212.15" width="2.8222" height="5.5937"/>
   <rect x="312.14" y="206.5" width="2.8222" height="2.7686"/>
   <rect x="286.74" y="214.98" width="2.8222" height="8.4188"/>
   <rect x="289.45" y="217.8" width="5.7573" height="2.7686"/>
   <rect x="297.91" y="214.98" width="5.7573" height="2.7686"/>
   <rect x="300.77" y="220.51" width="5.7573" height="2.7686"/>
   <rect x="300.78" y="217.74" width="2.8787" height="2.7686"/>
   <rect x="312.08" y="217.8" width="5.6444" height="2.7686"/>
   <rect x="298.03" y="223.51" width="2.7093" height="5.6502"/>
   <rect x="312.25" y="223.45" width="2.7093" height="5.6502"/>
   <rect x="315.07" y="229.1" width="2.7093" height="2.8816"/>
   <rect x="306.49" y="231.93" width="2.7093" height="5.5372"/>
   <rect x="309.43" y="234.75" width="2.7093" height="8.4188"/>
   <rect x="292.38" y="226.28" width="2.7093" height="5.5937"/>
   <rect x="286.74" y="229.16" width="2.7093" height="8.3623"/>
   <rect x="281.27" y="229.15" width="5.4751" height="2.7686"/>
   <rect x="283.91" y="237.58" width="2.8787" height="2.7686"/>
   <rect x="281.15" y="243.29" width="5.6445" height="2.7686"/>
   <rect x="289.45" y="240.4" width="2.9351" height="2.7686"/>
   <rect x="295.2" y="243.23" width="2.8222" height="5.6502"/>
   <rect x="295.2" y="234.75" width="2.8222" height="5.6502"/>
   <rect x="298.03" y="237.58" width="5.7009" height="2.8251"/>
   <rect x="314.96" y="237.58" width="2.8787" height="8.4188"/>
   <rect x="317.73" y="240.35" width="2.8787" height="2.8251"/>
  </g>
  <g transform="matrix(.23548 0 0 .23075 179.46 -2.2606)" fill="#47d58a">
   <rect transform="rotate(-90)" x="-997.56" y="615.9" width="9.5" height="43.5"/>
   <path transform="rotate(-90 730.52 904.44)" d="m641.9 848.56-15.372-26.625h30.744z"/>
  </g>
 </g>
</svg>
