<?xml version="1.0" encoding="UTF-8"?>
<svg width="95.486mm" height="33.015mm" version="1.1" viewBox="0 0 95.486 33.015" xmlns="http://www.w3.org/2000/svg" xmlns:cc="http://creativecommons.org/ns#" xmlns:dc="http://purl.org/dc/elements/1.1/" xmlns:rdf="http://www.w3.org/1999/02/22-rdf-syntax-ns#">
 <metadata>
  <rdf:RDF>
   <cc:Work rdf:about="">
    <dc:format>image/svg+xml</dc:format>
    <dc:type rdf:resource="http://purl.org/dc/dcmitype/StillImage"/>
    <dc:title/>
   </cc:Work>
  </rdf:RDF>
 </metadata>
 <rect x=".13229" y=".13229" width="25.159" height="25.159" fill="#121824" stroke="#7b8694" stroke-width=".26458"/>
 <g fill="none" stroke="#7b8694" stroke-width=".26458">
  <path d="m8.5892 0.13231v25.088"/>
  <path d="m17.046 0.13231v25.088"/>
  <path d="m0.13229 8.5891h25.088"/>
  <path d="m0.13229 17.046h25.088"/>
 </g>
 <g fill="#47d58a">
  <g transform="matrix(.12347 0 0 .12347 -60.624 -109.79)">
   <g fill="#47d58a">
    <rect transform="rotate(-90)" x="-997.56" y="594.65" width="9.5" height="64.75"/>
    <path transform="rotate(-90 730.52 904.44)" d="m641.9 848.56-15.372-26.625h30.744z"/>
   </g>
  </g>
  <g transform="matrix(0 -.12347 .12347 0 -109.84 86.196)">
   <g fill="#47d58a">
    <rect transform="rotate(-90)" x="-997.56" y="594.65" width="9.5" height="64.75"/>
    <path transform="rotate(-90 730.52 904.44)" d="m641.9 848.56-15.372-26.625h30.744z"/>
   </g>
  </g>
  <g transform="matrix(-.12347 0 0 -.12347 86.151 135.41)">
   <g fill="#47d58a">
    <rect transform="rotate(-90)" x="-997.56" y="594.65" width="9.5" height="64.75"/>
    <path transform="rotate(-90 730.52 904.44)" d="m641.9 848.56-15.372-26.625h30.744z"/>
   </g>
  </g>
  <g transform="matrix(0 .12347 -.12347 0 135.36 -60.578)">
   <g fill="#47d58a">
    <rect transform="rotate(-90)" x="-997.56" y="592.36" width="9.5" height="64.75"/>
    <path transform="rotate(-90 730.52 904.44)" d="m641.9 848.56-15.372-26.625h30.744z"/>
   </g>
  </g>
 </g>
 <rect x="35.476" y=".1985" width="25.159" height="25.159" fill="#121824" stroke="#7b8694" stroke-width=".26458"/>
 <g fill="none" stroke="#7b8694" stroke-width=".26458">
  <path d="m43.985 0.13231v25.371"/>
  <path d="m52.441 0.13231v25.371"/>
  <path d="m35.528 8.5891h25.088"/>
  <path d="m35.528 17.046h25.088"/>
 </g>
 <g fill="#47d58a">
  <g transform="matrix(.12347 0 0 .12347 -25.228 -109.79)">
   <g fill="#47d58a">
    <rect transform="rotate(-90)" x="-997.56" y="594.65" width="9.5" height="64.75"/>
    <path transform="rotate(-90 730.52 904.44)" d="m641.9 848.56-15.372-26.625h30.744z"/>
   </g>
  </g>
  <g transform="matrix(0 -.12347 .12347 0 -74.44 86.196)">
   <g fill="#47d58a">
    <rect transform="rotate(-90)" x="-997.56" y="594.65" width="9.5" height="64.75"/>
    <path transform="rotate(-90 730.52 904.44)" d="m641.9 848.56-15.372-26.625h30.744z"/>
   </g>
  </g>
  <g transform="matrix(-.12347 0 0 -.12347 121.55 135.41)">
   <g fill="#47d58a">
    <rect transform="rotate(-90)" x="-997.56" y="594.65" width="9.5" height="64.75"/>
    <path transform="rotate(-90 730.52 904.44)" d="m641.9 848.56-15.372-26.625h30.744z"/>
   </g>
  </g>
  <g transform="matrix(0 .12347 -.12347 0 170.76 -60.578)">
   <g fill="#47d58a">
    <rect transform="rotate(-90)" x="-997.56" y="592.36" width="9.5" height="64.75"/>
    <path transform="rotate(-90 730.52 904.44)" d="m641.9 848.56-15.372-26.625h30.744z"/>
   </g>
  </g>
  <g transform="matrix(.10575 .10575 -.10575 .10575 90.186 -155.07)">
   <g fill="#47d58a">
    <rect transform="rotate(-90)" x="-997.56" y="594.65" width="9.5" height="64.75"/>
    <path transform="rotate(-90 730.52 904.44)" d="m641.9 848.56-15.372-26.625h30.744z"/>
   </g>
  </g>
  <g transform="matrix(.10575 -.10575 .10575 .10575 -119.82 -29.359)">
   <g fill="#47d58a">
    <rect transform="rotate(-90)" x="-997.56" y="594.65" width="9.5" height="64.75"/>
    <path transform="rotate(-90 730.52 904.44)" d="m641.9 848.56-15.372-26.625h30.744z"/>
   </g>
  </g>
  <g transform="matrix(-.10575 -.10575 .10575 -.10575 5.8901 180.64)">
   <g fill="#47d58a">
    <rect transform="rotate(-90)" x="-997.56" y="594.65" width="9.5" height="64.75"/>
    <path transform="rotate(-90 730.52 904.44)" d="m641.9 848.56-15.372-26.625h30.744z"/>
   </g>
  </g>
  <g transform="matrix(-.10575 .10575 -.10575 -.10575 215.89 54.937)">
   <g fill="#47d58a">
    <rect transform="rotate(-90)" x="-997.56" y="592.36" width="9.5" height="64.75"/>
    <path transform="rotate(-90 730.52 904.44)" d="m641.9 848.56-15.372-26.625h30.744z"/>
   </g>
  </g>
 </g>
 <g fill="#121824" stroke="#7b8694" stroke-width="2.4205">
  <path transform="matrix(.092055 .059067 -.059237 .091791 130.73 -111.93)" d="m335 1283-37.506 24.357-39.847-20.303-2.3405-44.66 37.506-24.357 39.847 20.303z"/>
  <path transform="matrix(.092055 .059067 -.059237 .091791 130.73 -120.4)" d="m335 1283-37.506 24.357-39.847-20.303-2.3405-44.66 37.506-24.357 39.847 20.303z"/>
  <path transform="matrix(.092055 .059067 -.059237 .091791 130.73 -128.86)" d="m335 1283-37.506 24.357-39.847-20.303-2.3405-44.66 37.506-24.357 39.847 20.303z"/>
  <path transform="matrix(.092055 .059067 -.059237 .091791 123.39 -124.63)" d="m335 1283-37.506 24.357-39.847-20.303-2.3405-44.66 37.506-24.357 39.847 20.303z"/>
  <path transform="matrix(.092055 .059067 -.059237 .091791 123.39 -116.16)" d="m335 1283-37.506 24.357-39.847-20.303-2.3405-44.66 37.506-24.357 39.847 20.303z"/>
  <path transform="matrix(.092055 .059067 -.059237 .091791 138.07 -116.16)" d="m335 1283-37.506 24.357-39.847-20.303-2.3405-44.66 37.506-24.357 39.847 20.303z"/>
  <path transform="matrix(.092055 .059067 -.059237 .091791 138.07 -124.63)" d="m335 1283-37.506 24.357-39.847-20.303-2.3405-44.66 37.506-24.357 39.847 20.303z"/>
 </g>
 <g fill="#47d58a">
  <g transform="matrix(.1069 -.061796 .061796 .1069 -41.68 -56.424)">
   <g fill="#47d58a">
    <rect transform="rotate(-90)" x="-997.56" y="594.65" width="9.5" height="64.75"/>
    <path transform="rotate(-90 730.52 904.44)" d="m641.9 848.56-15.372-26.625h30.744z"/>
   </g>
  </g>
  <g transform="matrix(-.1069 .061796 -.061796 -.1069 208.11 82.396)">
   <g fill="#47d58a">
    <rect transform="rotate(-90)" x="-997.56" y="594.65" width="9.5" height="64.75"/>
    <path transform="rotate(-90 730.52 904.44)" d="m641.9 848.56-15.372-26.625h30.744z"/>
   </g>
  </g>
  <g transform="matrix(-6.8745e-5 -.12347 .12347 -6.8745e-5 -39.344 86.441)">
   <g fill="#47d58a">
    <rect transform="rotate(-90)" x="-997.56" y="594.65" width="9.5" height="64.75"/>
    <path transform="rotate(-90 730.52 904.44)" d="m641.9 848.56-15.372-26.625h30.744z"/>
   </g>
  </g>
  <g transform="matrix(6.8745e-5 .12347 -.12347 6.8745e-5 205.77 -60.469)">
   <g fill="#47d58a">
    <rect transform="rotate(-90)" x="-997.56" y="592.36" width="9.5" height="64.75"/>
    <path transform="rotate(-90 730.52 904.44)" d="m641.9 848.56-15.372-26.625h30.744z"/>
   </g>
  </g>
  <g transform="matrix(-.1069 -.061796 -.061796 .1069 208.11 -56.424)">
   <g fill="#47d58a">
    <rect transform="rotate(-90)" x="-997.56" y="594.65" width="9.5" height="64.75"/>
    <path transform="rotate(-90 730.52 904.44)" d="m641.9 848.56-15.372-26.625h30.744z"/>
   </g>
  </g>
  <g transform="matrix(.1069 .061796 .061796 -.1069 -41.68 82.396)">
   <g fill="#47d58a">
    <rect transform="rotate(-90)" x="-997.56" y="594.65" width="9.5" height="64.75"/>
    <path transform="rotate(-90 730.52 904.44)" d="m641.9 848.56-15.372-26.625h30.744z"/>
   </g>
  </g>
 </g>
 <g fill="#e8eaec" stroke-linecap="round" stroke-width=".26458">
  <g transform="scale(.99996 1)" aria-label="Tile">
   <path d="m10.474 32.831h0.35137v-2.4807h0.84243v-0.29633h-2.0362v0.29633h0.84243z"/>
   <path d="m12.3 30.35c0.13547 0 0.2413-0.09313 0.2413-0.22437 0-0.13547-0.10583-0.22437-0.2413-0.22437-0.13547 0-0.2413 0.0889-0.2413 0.22437 0 0.13123 0.10583 0.22437 0.2413 0.22437zm-0.1778 2.4807h0.34713v-2.0574h-0.34713z"/>
   <path d="m13.164 32.416c0 0.30057 0.10583 0.46567 0.3683 0.46567 0.09313 0 0.1524-0.0127 0.19897-0.03387l-0.04657-0.26247c-0.0381 0.0085-0.05503 0.0085-0.0762 0.0085-0.0508 0-0.09737-0.04233-0.09737-0.1524v-2.6247h-0.34713z"/>
   <path d="m14.094 31.806c0 0.6731 0.43603 1.0753 0.98637 1.0753 0.2794 0 0.49953-0.09737 0.67733-0.21167l-0.12277-0.2286c-0.1524 0.09737-0.3175 0.16087-0.51223 0.16087-0.3937 0-0.6604-0.2794-0.6858-0.7239h1.3885c0.0085-0.0508 0.0127-0.11853 0.0127-0.1905 0-0.58843-0.29633-0.9652-0.82127-0.9652-0.4699 0-0.92287 0.41063-0.92287 1.0837zm0.33867-0.15663c0.04233-0.41487 0.3048-0.65193 0.59267-0.65193 0.32173 0 0.508 0.23283 0.508 0.65193z"/>
  </g>
  <g transform="scale(.99996 1)" aria-label="Octile">
   <path d="m44.244 32.882c0.69427 0 1.1853-0.5588 1.1853-1.452 0-0.88476-0.49107-1.4266-1.1853-1.4266-0.6985 0-1.1896 0.53763-1.1896 1.4266 0 0.89323 0.49107 1.452 1.1896 1.452zm0-0.30903c-0.49953 0-0.8255-0.44873-0.8255-1.143 0-0.69003 0.32597-1.1176 0.8255-1.1176 0.4953 0 0.82127 0.42757 0.82127 1.1176 0 0.69427-0.32597 1.143-0.82127 1.143z"/>
   <path d="m45.828 31.806c0 0.68157 0.4191 1.0753 0.9652 1.0753 0.24553 0 0.4826-0.1016 0.66887-0.2667l-0.15663-0.2286c-0.12277 0.11007-0.28787 0.20743-0.4826 0.20743-0.37677 0-0.635-0.3175-0.635-0.7874 0-0.47413 0.27093-0.79587 0.64347-0.79587 0.1651 0 0.2921 0.0762 0.41487 0.18203l0.17357-0.22437c-0.1397-0.13123-0.3302-0.24553-0.60113-0.24553-0.52917 0-0.9906 0.3937-0.9906 1.0837z"/>
   <path d="m47.967 32.196c0 0.4064 0.14817 0.6858 0.58843 0.6858 0.127 0 0.2667-0.0381 0.381-0.0762l-0.06773-0.26247c-0.06773 0.0254-0.16087 0.05503-0.23283 0.05503-0.23707 0-0.3175-0.14393-0.3175-0.39793v-1.143h0.55456v-0.28363h-0.55457v-0.57573h-0.2921l-0.04233 0.57573-0.32173 0.02117v0.26247h0.3048z"/>
   <path d="m49.515 30.35c0.13547 0 0.2413-0.09313 0.2413-0.22437 0-0.13547-0.10583-0.22437-0.2413-0.22437-0.13547 0-0.2413 0.0889-0.2413 0.22437 0 0.13123 0.10583 0.22437 0.2413 0.22437zm-0.1778 2.4807h0.34713v-2.0574h-0.34713z"/>
   <path d="m50.379 32.416c0 0.30057 0.10583 0.46567 0.3683 0.46567 0.09313 0 0.1524-0.0127 0.19897-0.03387l-0.04657-0.26247c-0.0381 0.0085-0.05503 0.0085-0.0762 0.0085-0.0508 0-0.09737-0.04233-0.09737-0.1524v-2.6247h-0.34713z"/>
   <path d="m51.31 31.806c0 0.6731 0.43603 1.0753 0.98637 1.0753 0.2794 0 0.49953-0.09737 0.67733-0.21167l-0.12277-0.2286c-0.1524 0.09737-0.3175 0.16087-0.51223 0.16087-0.3937 0-0.6604-0.2794-0.6858-0.7239h1.3885c0.0085-0.0508 0.0127-0.11853 0.0127-0.1905 0-0.58843-0.29633-0.9652-0.82127-0.9652-0.4699 0-0.92287 0.41063-0.92287 1.0837zm0.33867-0.15663c0.04233-0.41487 0.3048-0.65193 0.59267-0.65193 0.32173 0 0.508 0.23283 0.508 0.65193z"/>
  </g>
  <g transform="scale(.99996 1)" aria-label="Hex">
   <path d="m80.242 32.831h0.3556v-1.3081h1.2912v1.3081h0.35137v-2.7771h-0.35137v1.1642h-1.2912v-1.1642h-0.3556z"/>
   <path d="m82.806 31.806c0 0.6731 0.43603 1.0753 0.98637 1.0753 0.2794 0 0.49953-0.09737 0.67733-0.21167l-0.12277-0.2286c-0.1524 0.09737-0.3175 0.16087-0.51223 0.16087-0.3937 0-0.6604-0.2794-0.6858-0.7239h1.3885c0.0085-0.0508 0.0127-0.11853 0.0127-0.1905 0-0.58843-0.29633-0.9652-0.82127-0.9652-0.4699 0-0.92287 0.41063-0.92287 1.0837zm0.33867-0.15663c0.04233-0.41487 0.3048-0.65193 0.59267-0.65193 0.32173 0 0.508 0.23283 0.508 0.65193z"/>
   <path d="m84.737 32.831h0.36407l0.2794-0.47837c0.06773-0.127 0.13547-0.24977 0.20743-0.3683h0.01693c0.0762 0.11853 0.1524 0.24553 0.22437 0.3683l0.30057 0.47837h0.37677l-0.66887-1.0372 0.6223-1.0202h-0.36407l-0.24977 0.45297c-0.0635 0.11007-0.127 0.2286-0.18627 0.3429h-0.01693c-0.07197-0.1143-0.1397-0.23283-0.2032-0.3429l-0.27517-0.45297h-0.37677l0.6223 0.98213z"/>
  </g>
 </g>
</svg>
