<?xml version="1.0" encoding="UTF-8"?>
<svg width="105.33mm" height="87.657mm" version="1.1" viewBox="0 0 105.33 87.657" xmlns="http://www.w3.org/2000/svg" xmlns:cc="http://creativecommons.org/ns#" xmlns:dc="http://purl.org/dc/elements/1.1/" xmlns:rdf="http://www.w3.org/1999/02/22-rdf-syntax-ns#">
 <metadata>
  <rdf:RDF>
   <cc:Work rdf:about="">
    <dc:format>image/svg+xml</dc:format>
    <dc:type rdf:resource="http://purl.org/dc/dcmitype/StillImage"/>
    <dc:title/>
   </cc:Work>
  </rdf:RDF>
 </metadata>
 <g transform="translate(-144.5 -78.712)">
  <g fill="#009244" fill-rule="evenodd" stroke="#47d58a" stroke-width=".26458">
   <path d="m148.8 163.96h8.0081v-23.812z"/>
   <path d="m148.87 164.03v-29.245l7.8317 5.5386z"/>
   <path d="m156.7 140.36 2.54-2.293-10.409-3.382z"/>
   <path d="m149.04 134.68h24.765l-14.605 3.3867z"/>
   <path d="m159.2 138.1h10.266l4.2686-3.422z"/>
   <path d="m169.36 138.14 2.0109 2.0814 2.3989-5.4328z"/>
   <path d="m171.3 140.15 2.3989 20.144 0.1411-25.612z"/>
   <path d="m171.44 140.18-1.0584 23.742 3.422-3.5983z"/>
   <path d="m170.34 164.08 3.4175-3.642 2.3199 2.3698z"/>
   <path d="m170.34 164.13h20.505l-14.892-1.3969z"/>
   <path d="m176.13 162.78h9.0302l5.5878 1.2472z"/>
   <path d="m185.04 162.75 2.3199-2.3448 3.3177 3.617z"/>
   <path d="m190.67 164v-23.897l-3.3926 20.305z"/>
   <path d="m187.33 160.38 0.99783-25.544 2.3199 5.5877z"/>
   <path d="m190.65 140.36 6.6146-5.6092h-8.9959z"/>
   <path d="m190.65 140.41 6.6852-2.2931v-3.4043z"/>
   <path d="m197.39 134.77 5.715 3.4748h-5.7326z"/>
   <path d="m197.41 134.75h9.1723l-3.5983 3.4396z"/>
   <path d="m206.7 134.8-1.464 5.5915-2.346-2.2578z"/>
   <path d="m206.74 134.82v25.828l-1.4486-20.469z"/>
   <path d="m205.1 140.36-0.77613 23.319 2.2225-3.0692z"/>
   <path d="m204.22 163.95 4.3529-1.372-1.9333-2.033z"/>
   <path d="m204.17 163.98 14.506-1.3097h-10.34z"/>
   <path d="m204.16 164.01h20.368l-5.9869-1.2846z"/>
   <path d="m224.41 164.14-3.4572-3.4749-2.3284 2.0108z"/>
   <path d="m224.38 164.05v-23.724l-3.4043 20.391z"/>
   <path d="m221.05 160.61 1.0936-25.753 2.3283 5.6797z"/>
   <path d="m222.14 134.84 4.5509 3.2103-2.1696 2.3812z"/>
   <path d="m222.17 134.7 14.764 3.4925h-10.495z"/>
   <path d="m222.25 134.74h23.673l-9.2547 3.4674z"/>
   <path d="m236.85 138.13 2.3698 2.245 6.8101-5.6875z"/>
   <path d="m239.07 140.39 6.8792 23.46v-29.21z"/>
   <path d="m239.11 140.36-1.023 23.53h8.0081z"/>
  </g>
  <rect x="144.63" y="132.49" width="105.06" height="33.726" fill="none" stroke="#7b8694" stroke-width=".26458"/>
  <g fill="#1d232d" stroke="#7b8694" stroke-width=".26458">
   <rect x="159.95" y="140.06" width="6.35" height="26.176"/>
   <rect x="194.66" y="140.3" width="6.35" height="25.887"/>
   <rect x="228.61" y="139.97" width="6.35" height="26.247"/>
   <rect x="211.22" y="132.47" width="6.35" height="27.234"/>
   <rect x="177.71" y="132.47" width="6.35" height="27.234"/>
  </g>
  <rect x="144.63" y="78.873" width="105.06" height="33.726" fill="none" stroke="#7b8694" stroke-width=".26458"/>
  <g fill="#1d232d" stroke="#7b8694" stroke-width=".26458">
   <rect x="159.95" y="86.438" width="6.35" height="26.176"/>
   <rect x="194.66" y="86.677" width="6.35" height="25.887"/>
   <rect x="228.61" y="86.348" width="6.35" height="26.247"/>
   <rect x="211.22" y="78.846" width="6.35" height="27.234"/>
   <rect x="177.71" y="78.844" width="6.35" height="27.234"/>
  </g>
  <rect x="196.67" y="114.71" width="2.6811" height="12.277" fill="#47d58a"/>
  <path transform="matrix(.26458 0 0 .26458 687.57 -157.5)" d="m-1850.6 1091.5-16.397-28.4h32.794z" fill="#47d58a"/>
 </g>
</svg>
