<?xml version="1.0" encoding="UTF-8"?>
<svg width="138.42mm" height="49.68mm" version="1.1" viewBox="0 0 138.42 49.68" xmlns="http://www.w3.org/2000/svg" xmlns:cc="http://creativecommons.org/ns#" xmlns:dc="http://purl.org/dc/elements/1.1/" xmlns:rdf="http://www.w3.org/1999/02/22-rdf-syntax-ns#">
 <metadata>
  <rdf:RDF>
   <cc:Work rdf:about="">
    <dc:format>image/svg+xml</dc:format>
    <dc:type rdf:resource="http://purl.org/dc/dcmitype/StillImage"/>
    <dc:title/>
   </cc:Work>
  </rdf:RDF>
 </metadata>
 <rect x=".13229" y=".13229" width="59.124" height="42.051" fill="#121824" stroke="#7b8694" stroke-width=".26458"/>
 <g fill="none" stroke="#7b8694" stroke-width=".26458">
  <path d="m8.5892 0.13238v42.192"/>
  <path d="m17.046 0.13238v42.192"/>
  <path d="m0.13224 8.5892h59.126"/>
  <path d="m0.13224 17.046h59.126"/>
  <path d="m0.13224 25.513h59.126"/>
  <path d="m0.13224 33.979h59.126"/>
  <path d="m25.513 0.13238v42.192"/>
  <path d="m33.979 0.13238v42.192"/>
  <path d="m42.446 0.13238v42.192"/>
  <path d="m50.913 0.13238v42.192"/>
 </g>
 <g fill="#a6aeb8">
  <rect transform="matrix(.97917 -.20304 .20511 .97874 0 0)" x="1.8654" y="5.6658" width="18.893" height="11.807"/>
  <rect x="43.736" y="1.4023" width="5.6445" height="22.578"/>
  <rect x="1.4022" y="35.269" width="39.511" height="5.9267"/>
 </g>
 <rect x="79.165" y=".13229" width="59.124" height="42.051" fill="#121824" stroke="#7b8694" stroke-width=".26458"/>
 <g fill="none" stroke="#7b8694" stroke-width=".26458">
  <path d="m87.622 0.13238v42.192"/>
  <path d="m96.078 0.13238v42.192"/>
  <path d="m79.165 8.5892h59.126"/>
  <path d="m79.165 17.046h59.126"/>
  <path d="m79.165 25.513h59.126"/>
  <path d="m79.165 33.979h59.126"/>
  <path d="m104.55 0.13238v42.192"/>
  <path d="m113.01 0.13238v42.192"/>
  <path d="m121.48 0.13238v42.192"/>
  <path d="m129.95 0.13238v42.192"/>
 </g>
 <g transform="matrix(.28222 0 0 .28222 -112.9 -259.19)" fill="#47d58a">
  <rect transform="rotate(-90)" x="-997.56" y="615.9" width="9.5" height="43.5"/>
  <path transform="rotate(-90 730.52 904.44)" d="m641.9 848.56-15.372-26.625h30.744z"/>
 </g>
 <ellipse cx="33.929" cy="17.066" rx="5.6445" ry="5.6444" fill="#a6aeb8"/>
 <g fill="#ff867f" fill-rule="evenodd" stroke="#ff867f" stroke-width=".26458">
  <path d="m80.807 1.7844 5.1627 5.1626"/>
  <path d="m85.97 1.7844-5.1627 5.1626"/>
  <path d="m89.274 1.7844 5.1627 5.1626"/>
  <path d="m94.436 1.7844-5.1627 5.1626"/>
  <path d="m97.74 1.7844 5.1627 5.1626"/>
  <path d="m102.9 1.7844-5.1627 5.1626"/>
  <path d="m97.74 10.251 5.1627 5.1627"/>
  <path d="m102.9 10.251-5.1627 5.1627"/>
  <path d="m89.274 10.251 5.1627 5.1627"/>
  <path d="m94.436 10.251-5.1627 5.1627"/>
  <path d="m80.807 10.251 5.1627 5.1627"/>
  <path d="m85.97 10.251-5.1627 5.1627"/>
  <path d="m106.21 10.251 5.1627 5.1627"/>
  <path d="m111.37 10.251-5.1627 5.1627"/>
  <path d="m114.67 10.251 5.1626 5.1627"/>
  <path d="m119.84 10.251-5.1626 5.1627"/>
  <path d="m114.67 18.718 5.1626 5.1626"/>
  <path d="m119.84 18.718-5.1626 5.1626"/>
  <path d="m106.21 18.718 5.1627 5.1626"/>
  <path d="m111.37 18.718-5.1627 5.1626"/>
  <path d="m123.14 18.718 5.1627 5.1626"/>
  <path d="m128.3 18.718-5.1627 5.1626"/>
  <path d="m123.14 10.251 5.1627 5.1627"/>
  <path d="m128.3 10.251-5.1627 5.1627"/>
  <path d="m123.14 1.7844 5.1627 5.1626"/>
  <path d="m128.3 1.7844-5.1627 5.1626"/>
  <path d="m114.67 35.651 5.1626 5.1626"/>
  <path d="m119.84 35.651-5.1626 5.1626"/>
  <path d="m106.21 35.651 5.1627 5.1626"/>
  <path d="m111.37 35.651-5.1627 5.1626"/>
  <path d="m97.74 35.651 5.1627 5.1626"/>
  <path d="m102.9 35.651-5.1627 5.1626"/>
  <path d="m89.274 35.651 5.1627 5.1626"/>
  <path d="m94.436 35.651-5.1627 5.1626"/>
  <path d="m80.807 35.651 5.1627 5.1626"/>
  <path d="m85.97 35.651-5.1627 5.1626"/>
 </g>
 <g transform="scale(.99996 1)" fill="#e8eaec" stroke-linecap="round" stroke-width=".26458" aria-label="Traversability flag">
  <path d="m53.726 48.598h0.35137v-2.4807h0.84243v-0.29633h-2.0362v0.29633h0.84243z"/>
  <path d="m55.175 48.598h0.34713v-1.3208c0.1397-0.34713 0.34713-0.47413 0.5207-0.47413 0.08467 0 0.13123 0.0127 0.19897 0.03387l0.06773-0.3048c-0.06773-0.02963-0.13123-0.04233-0.22013-0.04233-0.23283 0-0.4445 0.1651-0.5842 0.42333h-0.0127l-0.02963-0.37253h-0.28787z"/>
  <path d="m56.438 48.064c0 0.3683 0.25823 0.5842 0.60537 0.5842 0.254 0 0.4826-0.13547 0.68157-0.29633h0.0085l0.02963 0.24553h0.28787v-1.2615c0-0.51223-0.21167-0.84667-0.71543-0.84667-0.3302 0-0.61807 0.14393-0.80857 0.2667l0.1397 0.2413c0.16087-0.11007 0.37253-0.22013 0.61383-0.22013 0.33443 0 0.42333 0.254 0.42333 0.51647-0.8763 0.09737-1.2658 0.32173-1.2658 0.77047zm0.3429-0.0254c0-0.26247 0.23283-0.4318 0.92287-0.51647v0.5715c-0.19897 0.1778-0.36407 0.27517-0.56303 0.27517-0.2032 0-0.35983-0.09737-0.35983-0.3302z"/>
  <path d="m59.15 48.598h0.4064l0.72813-2.0574h-0.3429l-0.38947 1.1684c-0.05927 0.2032-0.127 0.41063-0.18627 0.60537h-0.01693c-0.0635-0.19473-0.13123-0.40217-0.1905-0.60537l-0.38947-1.1684h-0.35983z"/>
  <path d="m60.513 47.573c0 0.6731 0.43603 1.0753 0.98637 1.0753 0.2794 0 0.49953-0.09737 0.67733-0.21167l-0.12277-0.2286c-0.1524 0.09737-0.3175 0.16087-0.51223 0.16087-0.3937 0-0.6604-0.2794-0.6858-0.7239h1.3885c0.0085-0.0508 0.0127-0.11853 0.0127-0.1905 0-0.58843-0.29633-0.9652-0.82127-0.9652-0.4699 0-0.92287 0.41063-0.92287 1.0837zm0.33867-0.15663c0.04233-0.41487 0.3048-0.65193 0.59267-0.65193 0.32173 0 0.508 0.23283 0.508 0.65193z"/>
  <path d="m62.765 48.598h0.34713v-1.3208c0.1397-0.34713 0.34713-0.47413 0.5207-0.47413 0.08467 0 0.13123 0.0127 0.19897 0.03387l0.06773-0.3048c-0.06773-0.02963-0.13123-0.04233-0.22013-0.04233-0.23283 0-0.4445 0.1651-0.5842 0.42333h-0.0127l-0.02963-0.37253h-0.28787z"/>
  <path d="m63.967 48.365c0.19473 0.16087 0.47413 0.28363 0.76623 0.28363 0.48683 0 0.75353-0.2794 0.75353-0.61383 0-0.38947-0.3302-0.51223-0.62653-0.6223-0.23283-0.0889-0.4572-0.1651-0.4572-0.3556 0-0.15663 0.11853-0.29633 0.37677-0.29633 0.18203 0 0.3302 0.0762 0.4699 0.18203l0.1651-0.22013c-0.15663-0.127-0.381-0.23283-0.63923-0.23283-0.4445 0-0.70697 0.254-0.70697 0.5842 0 0.34713 0.32173 0.48683 0.61383 0.59267 0.22437 0.08467 0.4699 0.1778 0.4699 0.38947 0 0.1778-0.13547 0.32173-0.4064 0.32173-0.24553 0-0.42757-0.1016-0.60537-0.24553z"/>
  <path d="m65.872 48.064c0 0.3683 0.25823 0.5842 0.60537 0.5842 0.254 0 0.4826-0.13547 0.68157-0.29633h0.0085l0.02963 0.24553h0.28787v-1.2615c0-0.51223-0.21167-0.84667-0.71543-0.84667-0.3302 0-0.61807 0.14393-0.80857 0.2667l0.1397 0.2413c0.16087-0.11007 0.37253-0.22013 0.61383-0.22013 0.33443 0 0.42333 0.254 0.42333 0.51647-0.8763 0.09737-1.2658 0.32173-1.2658 0.77047zm0.3429-0.0254c0-0.26247 0.23283-0.4318 0.92287-0.51647v0.5715c-0.19897 0.1778-0.36407 0.27517-0.56303 0.27517-0.2032 0-0.35983-0.09737-0.35983-0.3302z"/>
  <path d="m68.14 48.598h0.2794l0.02963-0.2032h0.0127c0.18203 0.16087 0.39793 0.254 0.58843 0.254 0.4699 0 0.889-0.41063 0.889-1.1134 0-0.635-0.28363-1.0456-0.81703-1.0456-0.2286 0-0.4572 0.12277-0.64347 0.28787l0.0085-0.37253v-0.82127h-0.34713zm0.34713-0.4572v-1.0795c0.19473-0.18203 0.37677-0.2794 0.55033-0.2794 0.38947 0 0.54187 0.3048 0.54187 0.75777 0 0.508-0.24977 0.81703-0.58843 0.81703-0.13547 0-0.32173-0.05927-0.50377-0.2159z"/>
  <path d="m70.666 46.117c0.13547 0 0.2413-0.09313 0.2413-0.22437 0-0.13547-0.10583-0.22437-0.2413-0.22437-0.13547 0-0.2413 0.0889-0.2413 0.22437 0 0.13123 0.10583 0.22437 0.2413 0.22437zm-0.1778 2.4807h0.34713v-2.0574h-0.34713z"/>
  <path d="m71.53 48.183c0 0.30057 0.10583 0.46567 0.3683 0.46567 0.09313 0 0.1524-0.0127 0.19897-0.03387l-0.04657-0.26247c-0.0381 0.0085-0.05503 0.0085-0.0762 0.0085-0.0508 0-0.09737-0.04233-0.09737-0.1524v-2.6247h-0.34713z"/>
  <path d="m72.79 46.117c0.13547 0 0.2413-0.09313 0.2413-0.22437 0-0.13547-0.10583-0.22437-0.2413-0.22437-0.13547 0-0.2413 0.0889-0.2413 0.22437 0 0.13123 0.10583 0.22437 0.2413 0.22437zm-0.1778 2.4807h0.34713v-2.0574h-0.34713z"/>
  <path d="m73.714 47.963c0 0.4064 0.14817 0.6858 0.58843 0.6858 0.127 0 0.2667-0.0381 0.381-0.0762l-0.06773-0.26247c-0.06773 0.0254-0.16087 0.05503-0.23283 0.05503-0.23707 0-0.3175-0.14393-0.3175-0.39793v-1.143h0.55457v-0.28363h-0.55457v-0.57573h-0.2921l-0.04233 0.57573-0.32173 0.02117v0.26247h0.3048z"/>
  <path d="m74.945 49.165-0.06773 0.27517c0.06773 0.0254 0.14817 0.04233 0.2413 0.04233 0.41487 0 0.62653-0.30903 0.77047-0.71543l0.7747-2.2267h-0.33867l-0.3683 1.1388c-0.05503 0.18203-0.1143 0.3937-0.17357 0.57997h-0.01693c-0.0635-0.1905-0.13547-0.40217-0.19897-0.57997l-0.4191-1.1388h-0.35983l0.8255 2.0616-0.04657 0.1524c-0.08467 0.254-0.23283 0.44027-0.46567 0.44027-0.0508 0-0.1143-0.01693-0.15663-0.02963z"/>
  <path d="m78.916 45.6c-0.09313-0.0381-0.2159-0.06773-0.3429-0.06773-0.41063 0-0.60113 0.26247-0.60113 0.68157v0.32597l-0.2794 0.02117v0.26247h0.2794v1.7738h0.34713v-1.7738h0.43603v-0.28363h-0.43603v-0.32597c0-0.26247 0.09313-0.39793 0.28787-0.39793 0.0762 0 0.15663 0.01693 0.23283 0.0508z"/>
  <path d="m79.153 48.183c0 0.30057 0.10583 0.46567 0.3683 0.46567 0.09313 0 0.1524-0.0127 0.19897-0.03387l-0.04657-0.26247c-0.0381 0.0085-0.05503 0.0085-0.0762 0.0085-0.0508 0-0.09737-0.04233-0.09737-0.1524v-2.6247h-0.34713z"/>
  <path d="m80.134 48.064c0 0.3683 0.25823 0.5842 0.60537 0.5842 0.254 0 0.4826-0.13547 0.68157-0.29633h0.0085l0.02963 0.24553h0.28787v-1.2615c0-0.51223-0.21167-0.84667-0.71543-0.84667-0.3302 0-0.61807 0.14393-0.80857 0.2667l0.1397 0.2413c0.16087-0.11007 0.37253-0.22013 0.61383-0.22013 0.33443 0 0.42333 0.254 0.42333 0.51647-0.8763 0.09737-1.2658 0.32173-1.2658 0.77047zm0.3429-0.0254c0-0.26247 0.23283-0.4318 0.92287-0.51647v0.5715c-0.19897 0.1778-0.36407 0.27517-0.56303 0.27517-0.2032 0-0.35983-0.09737-0.35983-0.3302z"/>
  <path d="m82.55 48.945c0-0.11853 0.0635-0.2413 0.21167-0.34713 0.0889 0.0254 0.18627 0.03387 0.2667 0.03387h0.3556c0.2667 0 0.41487 0.0635 0.41487 0.254 0 0.2159-0.25823 0.4191-0.65193 0.4191-0.37253 0-0.5969-0.1397-0.5969-0.35983zm-0.3048 0.04657c0 0.3556 0.34713 0.55457 0.8509 0.55457 0.63923 0 1.0414-0.3302 1.0414-0.7112 0-0.3429-0.2413-0.49107-0.71967-0.49107h-0.39793c-0.2794 0-0.36407-0.09313-0.36407-0.22437 0-0.1143 0.05927-0.18203 0.13123-0.24553 0.09313 0.04657 0.20743 0.07197 0.30903 0.07197 0.4191 0 0.75353-0.27517 0.75353-0.71543 0-0.17357-0.07197-0.3302-0.16933-0.42333h0.42333v-0.2667h-0.71543c-0.0762-0.02963-0.1778-0.0508-0.2921-0.0508-0.4191 0-0.7747 0.28363-0.7747 0.73237 0 0.24553 0.13123 0.4445 0.2667 0.55457v0.01693c-0.10583 0.07197-0.22437 0.20743-0.22437 0.381 0 0.16087 0.08043 0.27093 0.18203 0.33443v0.01693c-0.18627 0.127-0.30057 0.2921-0.30057 0.46567zm0.8509-1.2785c-0.23707 0-0.43603-0.1905-0.43603-0.49107 0-0.30057 0.19473-0.47837 0.43603-0.47837 0.2413 0 0.43603 0.1778 0.43603 0.47837 0 0.30057-0.19897 0.49107-0.43603 0.49107z"/>
 </g>
</svg>
