<?xml version="1.0" encoding="UTF-8"?>
<svg width="210.65mm" height="73.132mm" version="1.1" viewBox="0 0 210.65 73.132" xmlns="http://www.w3.org/2000/svg" xmlns:cc="http://creativecommons.org/ns#" xmlns:dc="http://purl.org/dc/elements/1.1/" xmlns:rdf="http://www.w3.org/1999/02/22-rdf-syntax-ns#">
 <metadata>
  <rdf:RDF>
   <cc:Work rdf:about="">
    <dc:format>image/svg+xml</dc:format>
    <dc:type rdf:resource="http://purl.org/dc/dcmitype/StillImage"/>
    <dc:title/>
   </cc:Work>
  </rdf:RDF>
 </metadata>
 <g transform="translate(-209.58 -118.81)">
  <rect x="237.68" y="145.42" width="55.496" height="39.471" fill="#1d232d" stroke="#7b8694" stroke-width=".13229"/>
  <rect x="261.46" y="153.38" width="7.9473" height="7.9473" fill="#0a2c9d"/>
  <path d="m245.61 145.42v39.492" fill="none" stroke="#7b8694" stroke-width=".13229"/>
  <rect x="253.5" y="161.31" width="7.9473" height="7.9473" fill="#0a2c9d"/>
  <rect x="253.47" y="169.17" width="7.9473" height="7.9473" fill="#0a2c9d"/>
  <path d="m253.55 145.42v39.492" fill="none" stroke="#7b8694" stroke-width=".13229"/>
  <rect x="261.45" y="161.31" width="7.9473" height="7.9473" fill="#0a2c9d"/>
  <path d="m237.68 153.36h55.498" fill="none" stroke="#7b8694" stroke-width=".13229"/>
  <rect x="269.4" y="153.38" width="7.9473" height="7.9473" fill="#0a2c9d"/>
  <path d="m237.68 161.3h55.498" fill="none" stroke="#7b8694" stroke-width=".13229"/>
  <rect x="277.35" y="169.26" width="7.9473" height="7.9473" fill="#0a2c9d"/>
  <g fill="none">
   <g stroke="#7b8694" stroke-width=".13229">
    <path d="m237.68 169.24h55.498"/>
    <path d="m237.68 177.19h55.498"/>
    <path d="m261.5 145.42v39.492"/>
    <path d="m269.45 145.42v39.492"/>
    <path d="m285.34 145.42v39.494"/>
   </g>
   <path d="m265.42 181.18v-31.789" stroke="#d2d6dc" stroke-width=".42333"/>
  </g>
  <path d="m266.16 173.03h-32.466" fill="#010101" fill-rule="evenodd" stroke="#e9e56f" stroke-width=".26458"/>
  <g fill="#fff" stroke="#d2d6dc" stroke-width=".16933">
   <circle cx="265.42" cy="173.23" r=".79473"/>
   <circle cx="265.42" cy="165.29" r=".79473"/>
   <circle cx="265.42" cy="157.34" r=".79473"/>
  </g>
  <path d="m266.16 181.15h-32.466" fill="none" stroke="#e9e56f" stroke-width=".26458"/>
  <circle cx="265.42" cy="181.18" r="1.3245" fill="#d2d6dc"/>
  <path d="m257.6 165.18h-23.906" fill="none" stroke="#e9e56f" stroke-width=".26458"/>
  <path d="m266.16 149.21h-32.466" fill="none" stroke="#e9e56f" stroke-width=".26458"/>
  <circle cx="265.42" cy="149.39" r="1.3245" fill="#d2d6dc"/>
  <g fill="none" stroke="#e9e56f" stroke-width=".26458">
   <path d="m246.68 154.29v3.0437h-12.986"/>
   <g>
    <ellipse cx="266.7" cy="126.43" rx="3.0713" ry="3.0582"/>
    <ellipse cx="266.7" cy="126.43" rx="4.4534" ry="4.4344"/>
    <ellipse cx="266.7" cy="126.43" rx="5.9891" ry="5.9634"/>
    <ellipse cx="266.7" cy="126.43" rx="7.5248" ry="7.4925"/>
   </g>
   <path d="m318.68 127.65c-0.14528-0.86566-0.38671-2.0652 0.29954-2.616 0.8912-0.71525 2.274 0.41188 3.4165 0.34314 1.4452-0.0869 2.8943-0.41145 4.2377-0.94895 1.0621-0.42492 1.7954-1.7787 2.94-1.7666 1.0237 0.0109 2.3707 0.64074 2.5954 1.6352 0.22466 0.99457-1.3083 1.6207-1.6423 2.5843-0.37346 1.0774 0.68451 2.9031-0.34464 3.4019-1.3808 0.66926-2.3574-2.4367-3.8931-2.453-1.1445-0.0122-1.8779 1.3417-2.94 1.7666-0.67172 0.26874-1.3983 0.54377-2.1189 0.47448-0.63772-0.0613-1.2999-0.32546-1.7598-0.76957-0.43968-0.42452-0.68945-1.0501-0.79042-1.6516z"/>
   <path d="m317.3 127.92c-0.1747-1.0418-0.46503-2.4856 0.36089-3.1485 1.0726-0.86093 2.7364 0.49535 4.1113 0.41243 1.7392-0.10491 3.483-0.49567 5.0997-1.1428 1.2782-0.51163 2.1609-2.1411 3.5383-2.1268 1.2319 0.013 2.8528 0.77076 3.1229 1.9677 0.27017 1.197-1.5746 1.9508-1.9768 3.1106-0.44958 1.2967 0.82325 3.4938-0.41529 4.0944-1.6617 0.80579-2.8365-2.9323-4.6844-2.9515-1.3774-0.0143-2.2601 1.615-3.5383 2.1267-0.80836 0.32358-1.6828 0.65468-2.5498 0.57136-0.76742-0.0737-1.5642-0.3915-2.1176-0.92588-0.52909-0.5108-0.82955-1.2637-0.95092-1.9876z"/>
   <path d="m315.63 128.25c-0.21035-1.2554-0.55999-2.9952 0.43529-3.7942 1.2925-1.0376 3.297 0.59653 4.9537 0.49641 2.0955-0.12663 4.1967-0.5978 6.1448-1.3779 1.5401-0.61672 2.604-2.5804 4.2636-2.5633 1.4844 0.0156 3.4372 0.9284 3.7626 2.3707 0.32536 1.4423-1.8976 2.351-2.3823 3.7486-0.54189 1.5626 0.99145 4.21-0.50099 4.9339-2.0023 0.97118-3.4173-3.5331-5.6438-3.556-1.6596-0.0172-2.7234 1.9465-4.2636 2.5633-0.97406 0.38999-2.0276 0.78909-3.0724 0.68886-0.92467-0.0887-1.8846-0.47159-2.5514-1.1154-0.63741-0.61553-0.99928-1.5227-1.1454-2.395z"/>
   <path d="m313.86 128.6c-0.248-1.4811-0.6603-3.5337 0.51392-4.4765 1.5249-1.2243 3.8895 0.70345 5.844 0.58513 2.4721-0.14957 4.951-0.70567 7.2493-1.6262 1.817-0.72777 3.0723-3.0446 5.0301-3.0246 1.7511 0.0177 4.0548 1.095 4.4385 2.7966 0.38367 1.7017-2.2388 2.7739-2.8108 4.4229-0.63942 1.8436 1.1692 4.967-0.5915 5.8212-2.3623 1.1461-4.0311-4.1681-6.6578-4.1949-1.9578-0.0201-3.2131 2.2968-5.0301 3.0246-1.1492 0.46029-2.3921 0.9313-3.6247 0.81309-1.0908-0.10454-2.2233-0.55613-3.0098-1.3157-0.7519-0.72612-1.1787-1.7964-1.3511-2.8256z"/>
   <path d="m312.06 128.95c-0.28636-1.7109-0.76242-4.0818 0.59394-5.1709 1.7614-1.4144 4.4926 0.8123 6.7501 0.67551 2.8555-0.17304 5.7188-0.8156 8.3735-1.8791 2.0988-0.84082 3.5489-3.5172 5.8102-3.4942 2.0227 0.0204 4.6835 1.2645 5.1265 3.2301 0.44304 1.9656-2.5862 3.2044-3.247 5.1093-0.73874 2.1297 1.3501 5.7374-0.68371 6.7243-2.7286 1.324-4.6558-4.8143-7.6898-4.8452-2.2614-0.0228-3.7115 2.6534-5.8103 3.4942-1.3274 0.53176-2.7631 1.0759-4.1868 0.93957-1.2599-0.12073-2.568-0.64228-3.4765-1.5196-0.86842-0.83876-1.3614-2.075-1.5603-3.2638z"/>
   <g>
    <path d="m391.93 128.76c0 0.84447-12.795 1.475-13.643 1.475-0.84815 0-1.5357-0.68461-1.5357-1.5291 0-0.84449 0.68752-1.5291 1.5357-1.5291 0.84812 0 13.643 0.73867 13.643 1.5832z"/>
    <path d="m397.15 128.78c0 1.213-17.973 2.1186-19.164 2.1186s-2.1571-0.9833-2.1571-2.1963c0-1.2129 0.96578-2.1963 2.1571-2.1963s19.164 1.061 19.164 2.2739z"/>
    <path d="m400.63 128.8c0 1.5201-21.368 2.6551-22.845 2.6551-1.4774 0-2.6752-1.2323-2.6752-2.7524 0-1.52 1.1977-2.7524 2.6752-2.7524 1.4774 0 22.845 1.3296 22.845 2.8497z"/>
    <path d="m407.28 128.83c0 1.9499-28.329 3.4058-30.207 3.4058-1.8778 0-3.4001-1.5807-3.4001-3.5306 0-1.9499 1.5223-3.5306 3.4001-3.5306 1.8778 0 30.207 1.7056 30.207 3.6554z"/>
    <path d="m403.47 128.82c0 1.787-24.197 3.1213-25.923 3.1213-1.726 0-3.1253-1.4487-3.1253-3.2357 0-1.7869 1.3992-3.2356 3.1253-3.2356 1.726 0 25.923 1.5631 25.923 3.35z"/>
   </g>
  </g>
  <g fill="#e8eaec" stroke-linecap="round" stroke-width=".26458">
   <g transform="scale(.99996 1)" aria-label="Breadth-first">
    <path d="m255.63 190.88h0.889c0.61807 0 1.0499-0.2667 1.0499-0.8128 0-0.381-0.23707-0.60113-0.64347-0.66463v-0.0169c0.3302-0.0847 0.48683-0.3302 0.48683-0.60537 0-0.48683-0.3937-0.67733-0.95673-0.67733h-0.8255zm0.3556-1.5917v-0.90593h0.42757c0.42756 0 0.65193 0.127 0.65193 0.42756 0 0.30904-0.19897 0.47837-0.66887 0.47837zm0 1.3123v-1.0499h0.4826c0.48683 0 0.75353 0.15663 0.75353 0.49953 0 0.37677-0.2794 0.55033-0.75353 0.55033z"/>
    <path d="m258.08 190.88h0.34714v-1.3208c0.1397-0.34713 0.34713-0.47413 0.5207-0.47413 0.0847 0 0.13123 0.0127 0.19896 0.0339l0.0677-0.3048c-0.0677-0.0296-0.13124-0.0423-0.22014-0.0423-0.23283 0-0.4445 0.1651-0.5842 0.42334h-0.0127l-0.0296-0.37254h-0.28787z"/>
    <path d="m259.36 189.86c0 0.6731 0.43603 1.0753 0.98636 1.0753 0.2794 0 0.49953-0.0974 0.67733-0.21167l-0.12276-0.22859c-0.1524 0.0974-0.3175 0.16086-0.51224 0.16086-0.39369 0-0.66039-0.2794-0.68579-0.7239h1.3885c8e-3 -0.0508 0.0127-0.11853 0.0127-0.1905 0-0.58843-0.29634-0.9652-0.82127-0.9652-0.4699 0-0.92286 0.41064-0.92286 1.0837zm0.33866-0.15664c0.0423-0.41486 0.3048-0.65193 0.59267-0.65193 0.32173 0 0.508 0.23283 0.508 0.65193z"/>
    <path d="m261.45 190.35c0 0.3683 0.25823 0.5842 0.60536 0.5842 0.254 0 0.4826-0.13547 0.68157-0.29633h8e-3l0.0296 0.24553h0.28787v-1.2615c0-0.51223-0.21167-0.84667-0.71544-0.84667-0.3302 0-0.61806 0.14394-0.80856 0.2667l0.1397 0.2413c0.16086-0.11006 0.37253-0.22013 0.61383-0.22013 0.33443 0 0.42333 0.254 0.42333 0.51647-0.8763 0.0974-1.2658 0.32173-1.2658 0.77046zm0.3429-0.0254c0-0.26246 0.23283-0.4318 0.92286-0.51646v0.5715c-0.19896 0.1778-0.36406 0.27516-0.56303 0.27516-0.2032 0-0.35983-0.0974-0.35983-0.3302z"/>
    <path d="m263.57 189.86c0 0.6858 0.33444 1.0753 0.8509 1.0753 0.2413 0 0.46144-0.13547 0.6223-0.2921h0.0127l0.0296 0.2413h0.28786v-3.0141h-0.35136v0.79163l0.0169 0.35137c-0.18203-0.14817-0.33867-0.23707-0.57573-0.23707-0.4699 0-0.89324 0.41487-0.89324 1.0837zm0.35984-4e-3c0-0.4699 0.26246-0.7874 0.59266-0.7874 0.16934 0 0.32597 0.0593 0.49954 0.2159v1.0753c-0.16934 0.1905-0.33444 0.28363-0.52494 0.28363-0.35983 0-0.56726-0.29633-0.56726-0.7874z"/>
    <path d="m266.13 190.25c0 0.4064 0.14817 0.6858 0.58844 0.6858 0.127 0 0.26669-0.0381 0.38099-0.0762l-0.0677-0.26246c-0.0677 0.0254-0.16086 0.055-0.23283 0.055-0.23707 0-0.3175-0.14393-0.3175-0.39793v-1.143h0.55456v-0.28364h-0.55456v-0.57573h-0.2921l-0.0423 0.57573-0.32174 0.0212v0.26247h0.3048z"/>
    <path d="m267.5 190.88h0.34713v-1.4901c0.20743-0.20743 0.35137-0.3175 0.56303-0.3175 0.27094 0 0.38947 0.1651 0.38947 0.55033v1.2573h0.34713v-1.3039c0-0.52494-0.19473-0.80434-0.62653-0.80434-0.28363 0-0.49107 0.1524-0.6858 0.33867l0.0127-0.42333v-0.82127h-0.34713z"/>
    <path d="m269.63 189.95h0.97366v-0.2667h-0.97366z"/>
    <path d="m272.13 187.88c-0.0931-0.0381-0.2159-0.0677-0.3429-0.0677-0.41063 0-0.60113 0.26247-0.60113 0.68157v0.32596l-0.2794 0.0212v0.26247h0.2794v1.7738h0.34713v-1.7738h0.43603v-0.28364h-0.43603v-0.32596c0-0.26247 0.0931-0.39794 0.28787-0.39794 0.0762 0 0.15663 0.0169 0.23283 0.0508z"/>
    <path d="m272.54 188.4c0.13547 0 0.2413-0.0931 0.2413-0.22437 0-0.13546-0.10583-0.22436-0.2413-0.22436-0.13546 0-0.2413 0.0889-0.2413 0.22436 0 0.13124 0.10584 0.22437 0.2413 0.22437zm-0.1778 2.4807h0.34714v-2.0574h-0.34714z"/>
    <path d="m273.4 190.88h0.34713v-1.3208c0.1397-0.34713 0.34714-0.47413 0.5207-0.47413 0.0847 0 0.13124 0.0127 0.19897 0.0339l0.0677-0.3048c-0.0677-0.0296-0.13123-0.0423-0.22013-0.0423-0.23283 0-0.4445 0.1651-0.5842 0.42334h-0.0127l-0.0296-0.37254h-0.28787z"/>
    <path d="m274.61 190.65c0.19473 0.16086 0.47413 0.28363 0.76623 0.28363 0.48684 0 0.75354-0.2794 0.75354-0.61383 0-0.38947-0.3302-0.51223-0.62654-0.6223-0.23283-0.0889-0.4572-0.1651-0.4572-0.3556 0-0.15663 0.11854-0.29633 0.37677-0.29633 0.18203 0 0.3302 0.0762 0.4699 0.18203l0.1651-0.22013c-0.15663-0.127-0.381-0.23284-0.63923-0.23284-0.4445 0-0.70697 0.254-0.70697 0.5842 0 0.34714 0.32173 0.48684 0.61383 0.59267 0.22437 0.0847 0.4699 0.1778 0.4699 0.38947 0 0.1778-0.13546 0.32173-0.4064 0.32173-0.24553 0-0.42756-0.1016-0.60536-0.24553z"/>
    <path d="m276.67 190.25c0 0.4064 0.14816 0.6858 0.58843 0.6858 0.127 0 0.2667-0.0381 0.381-0.0762l-0.0677-0.26246c-0.0677 0.0254-0.16086 0.055-0.23283 0.055-0.23707 0-0.3175-0.14393-0.3175-0.39793v-1.143h0.55457v-0.28364h-0.55457v-0.57573h-0.2921l-0.0423 0.57573-0.32173 0.0212v0.26247h0.3048z"/>
   </g>
   <g transform="scale(.99996 1)" aria-label="Dijkstra">
    <path d="m322.31 190.88h0.7112c0.8382 0 1.2954-0.51646 1.2954-1.4012 0-0.88053-0.4572-1.3758-1.3123-1.3758h-0.69426zm0.3556-0.28786v-2.2013h0.31326c0.65194 0 0.97367 0.38947 0.97367 1.088 0 0.70273-0.32173 1.1134-0.97367 1.1134z"/>
    <path d="m325.06 188.4c0.13546 0 0.24129-0.0931 0.24129-0.22437 0-0.13546-0.10583-0.22436-0.24129-0.22436-0.13547 0-0.2413 0.0889-0.2413 0.22436 0 0.13124 0.10583 0.22437 0.2413 0.22437zm-0.1778 2.4807h0.34713v-2.0574h-0.34713z"/>
    <path d="m325.92 191.11c0 0.24977-0.0508 0.40217-0.254 0.40217-0.072 0-0.14393-0.0169-0.19473-0.0339l-0.072 0.26247c0.072 0.0296 0.17779 0.055 0.30479 0.055 0.41064 0 0.56304-0.2667 0.56304-0.6858v-2.2902h-0.34714zm0.1778-2.7136c0.13124 0 0.23707-0.0931 0.23707-0.22437 0-0.13546-0.10583-0.22436-0.23707-0.22436-0.13546 0-0.2413 0.0889-0.2413 0.22436 0 0.13124 0.10584 0.22437 0.2413 0.22437z"/>
    <path d="m326.96 190.88h0.3429v-0.54186l0.38523-0.44874 0.60113 0.9906h0.381l-0.78316-1.2319 0.69003-0.8255h-0.38523l-0.8763 1.0837h-0.0127v-2.0405h-0.3429z"/>
    <path d="m328.82 190.65c0.19473 0.16086 0.47413 0.28363 0.76623 0.28363 0.48683 0 0.75353-0.2794 0.75353-0.61383 0-0.38947-0.3302-0.51223-0.62653-0.6223-0.23283-0.0889-0.4572-0.1651-0.4572-0.3556 0-0.15663 0.11853-0.29633 0.37677-0.29633 0.18203 0 0.3302 0.0762 0.4699 0.18203l0.1651-0.22013c-0.15664-0.127-0.381-0.23284-0.63924-0.23284-0.4445 0-0.70696 0.254-0.70696 0.5842 0 0.34714 0.32173 0.48684 0.61383 0.59267 0.22437 0.0847 0.4699 0.1778 0.4699 0.38947 0 0.1778-0.13547 0.32173-0.4064 0.32173-0.24553 0-0.42757-0.1016-0.60537-0.24553z"/>
    <path d="m330.89 190.25c0 0.4064 0.14817 0.6858 0.58843 0.6858 0.127 0 0.2667-0.0381 0.381-0.0762l-0.0677-0.26246c-0.0677 0.0254-0.16087 0.055-0.23283 0.055-0.23707 0-0.3175-0.14393-0.3175-0.39793v-1.143h0.55456v-0.28364h-0.55456v-0.57573h-0.2921l-0.0423 0.57573-0.32174 0.0212v0.26247h0.3048z"/>
    <path d="m332.26 190.88h0.34713v-1.3208c0.1397-0.34713 0.34713-0.47413 0.5207-0.47413 0.0847 0 0.13123 0.0127 0.19897 0.0339l0.0677-0.3048c-0.0677-0.0296-0.13123-0.0423-0.22013-0.0423-0.23284 0-0.4445 0.1651-0.5842 0.42334h-0.0127l-0.0296-0.37254h-0.28786z"/>
    <path d="m333.52 190.35c0 0.3683 0.25824 0.5842 0.60537 0.5842 0.254 0 0.4826-0.13547 0.68157-0.29633h8e-3l0.0296 0.24553h0.28786v-1.2615c0-0.51223-0.21166-0.84667-0.71543-0.84667-0.3302 0-0.61807 0.14394-0.80857 0.2667l0.1397 0.2413c0.16087-0.11006 0.37254-0.22013 0.61384-0.22013 0.33443 0 0.42333 0.254 0.42333 0.51647-0.8763 0.0974-1.2658 0.32173-1.2658 0.77046zm0.3429-0.0254c0-0.26246 0.23284-0.4318 0.92287-0.51646v0.5715c-0.19897 0.1778-0.36407 0.27516-0.56303 0.27516-0.2032 0-0.35984-0.0974-0.35984-0.3302z"/>
   </g>
   <g transform="scale(.99996 1)" aria-label="A*">
    <path d="m391.45 189.75 0.13546-0.42333c0.0974-0.30903 0.18627-0.61383 0.27517-0.93557h0.0169c0.0889 0.32174 0.1778 0.62654 0.27517 0.93557l0.13123 0.42333zm1.1896 1.1303h0.37254l-0.9398-2.7771h-0.39794l-0.9398 2.7771h0.35984l0.2667-0.84666h1.0118z"/>
    <path d="m393.2 189.1 0.30057-0.36406 0.30056 0.36406 0.1651-0.12276-0.23706-0.39794 0.41063-0.16933-0.0635-0.19473-0.43603 0.1016-0.0381-0.45297h-0.20744l-0.0381 0.4572-0.4318-0.10583-0.0635 0.19473 0.41064 0.16933-0.2413 0.39794z"/>
   </g>
   <g transform="scale(.99996 1)" aria-label="Goal">
    <path d="m223.63 148.62c0 0.90593 0.5207 1.4393 1.2488 1.4393 0.37253 0 0.68156-0.14393 0.8636-0.32173v-1.1684h-0.91017v0.2921h0.58844v0.7239c-0.11007 0.1016-0.3048 0.1651-0.50377 0.1651-0.59267 0-0.92287-0.44026-0.92287-1.1388 0-0.69004 0.35984-1.1218 0.92287-1.1218 0.27517 0 0.44873 0.11007 0.58843 0.25824l0.2032-0.22437c-0.1651-0.16933-0.4191-0.3429-0.79586-0.3429-0.74507 0-1.2827 0.5461-1.2827 1.4393z"/>
    <path d="m226.21 148.99c0 0.68156 0.44873 1.0753 0.9525 1.0753s0.9525-0.3937 0.9525-1.0753c0-0.69003-0.44873-1.0837-0.9525-1.0837s-0.9525 0.3937-0.9525 1.0837zm0.35983 0c0-0.47413 0.2413-0.79587 0.59267-0.79587 0.3556 0 0.59267 0.32174 0.59267 0.79587 0 0.4699-0.23707 0.7874-0.59267 0.7874-0.35137 0-0.59267-0.3175-0.59267-0.7874z"/>
    <path d="m228.5 149.48c0 0.3683 0.25823 0.5842 0.60536 0.5842 0.254 0 0.4826-0.13546 0.68157-0.29633h8e-3l0.0296 0.24553h0.28787v-1.2615c0-0.51223-0.21167-0.84666-0.71544-0.84666-0.3302 0-0.61806 0.14393-0.80856 0.2667l0.1397 0.2413c0.16086-0.11007 0.37253-0.22014 0.61383-0.22014 0.33443 0 0.42333 0.254 0.42333 0.51647-0.8763 0.0974-1.2658 0.32173-1.2658 0.77046zm0.3429-0.0254c0-0.26246 0.23283-0.43179 0.92286-0.51646v0.5715c-0.19896 0.1778-0.36406 0.27516-0.56303 0.27516-0.2032 0-0.35983-0.0974-0.35983-0.3302z"/>
    <path d="m230.77 149.6c0 0.30056 0.10584 0.46566 0.3683 0.46566 0.0931 0 0.1524-0.0127 0.19897-0.0339l-0.0466-0.26247c-0.0381 8e-3 -0.055 8e-3 -0.0762 8e-3 -0.0508 0-0.0974-0.0423-0.0974-0.1524v-2.6247h-0.34714z"/>
   </g>
  </g>
  <path d="m238.37 178.65s0.24342 0.12171 0.48683 0.48683c0.36354 0.54531 0.24342-1.0954 0.85193-1.4605" fill="none" stroke="#6f8ce9" stroke-linecap="square" stroke-width=".26458"/>
  <g fill="#e8eaec" stroke-linecap="round" stroke-width=".26458">
   <g transform="scale(.99996 1)" aria-label="Visited node">
    <path d="m210.61 157.95h0.41063l0.88053-2.7771h-0.35983l-0.4445 1.4986c-0.0931 0.3302-0.1651 0.59266-0.2667 0.91863h-0.0169c-0.1016-0.32597-0.16934-0.58843-0.2667-0.91863l-0.44874-1.4986h-0.37253z"/>
    <path d="m212.42 155.47c0.13546 0 0.2413-0.0931 0.2413-0.22437 0-0.13546-0.10584-0.22436-0.2413-0.22436-0.13547 0-0.2413 0.0889-0.2413 0.22436 0 0.13124 0.10583 0.22437 0.2413 0.22437zm-0.1778 2.4807h0.34713v-2.0574h-0.34713z"/>
    <path d="m213.05 157.72c0.19474 0.16087 0.47414 0.28363 0.76624 0.28363 0.48683 0 0.75353-0.2794 0.75353-0.61383 0-0.38947-0.3302-0.51223-0.62653-0.6223-0.23284-0.0889-0.4572-0.1651-0.4572-0.3556 0-0.15663 0.11853-0.29633 0.37676-0.29633 0.18204 0 0.3302 0.0762 0.4699 0.18203l0.1651-0.22013c-0.15663-0.127-0.381-0.23284-0.63923-0.23284-0.4445 0-0.70697 0.254-0.70697 0.5842 0 0.34714 0.32174 0.48684 0.61384 0.59267 0.22436 0.0847 0.46989 0.1778 0.46989 0.38947 0 0.1778-0.13546 0.32173-0.40639 0.32173-0.24554 0-0.42757-0.1016-0.60537-0.24553z"/>
    <path d="m215.24 155.47c0.13547 0 0.2413-0.0931 0.2413-0.22437 0-0.13546-0.10583-0.22436-0.2413-0.22436s-0.2413 0.0889-0.2413 0.22436c0 0.13124 0.10583 0.22437 0.2413 0.22437zm-0.1778 2.4807h0.34713v-2.0574h-0.34713z"/>
    <path d="m216.16 157.31c0 0.4064 0.14817 0.6858 0.58844 0.6858 0.127 0 0.2667-0.0381 0.381-0.0762l-0.0677-0.26246c-0.0677 0.0254-0.16086 0.055-0.23283 0.055-0.23707 0-0.3175-0.14393-0.3175-0.39793v-1.143h0.55457v-0.28364h-0.55457v-0.57573h-0.2921l-0.0423 0.57573-0.32174 0.0212v0.26247h0.3048z"/>
    <path d="m217.34 156.92c0 0.6731 0.43603 1.0753 0.98636 1.0753 0.2794 0 0.49954-0.0974 0.67734-0.21166l-0.12277-0.2286c-0.1524 0.0974-0.3175 0.16086-0.51223 0.16086-0.3937 0-0.6604-0.2794-0.6858-0.7239h1.3885c8e-3 -0.0508 0.0127-0.11853 0.0127-0.1905 0-0.58843-0.29633-0.9652-0.82127-0.9652-0.4699 0-0.92286 0.41064-0.92286 1.0837zm0.33866-0.15664c0.0423-0.41486 0.3048-0.65193 0.59267-0.65193 0.32173 0 0.508 0.23283 0.508 0.65193z"/>
    <path d="m219.44 156.92c0 0.6858 0.33443 1.0753 0.8509 1.0753 0.2413 0 0.46143-0.13546 0.6223-0.2921h0.0127l0.0296 0.2413h0.28787v-3.0141h-0.35137v0.79163l0.0169 0.35137c-0.18203-0.14817-0.33866-0.23707-0.57573-0.23707-0.4699 0-0.89323 0.41487-0.89323 1.0837zm0.35983-4e-3c0-0.4699 0.26247-0.7874 0.59267-0.7874 0.16933 0 0.32596 0.0593 0.49953 0.2159v1.0753c-0.16933 0.1905-0.33443 0.28363-0.52493 0.28363-0.35983 0-0.56727-0.29633-0.56727-0.7874z"/>
    <path d="m222.79 157.95h0.34713v-1.4901c0.20743-0.20743 0.35137-0.3175 0.56303-0.3175 0.27094 0 0.38947 0.1651 0.38947 0.55033v1.2573h0.34713v-1.3039c0-0.52494-0.19473-0.80434-0.62653-0.80434-0.28363 0-0.4953 0.1524-0.69003 0.34714h-0.0127l-0.0296-0.29634h-0.28786z"/>
    <path d="m224.95 156.92c0 0.68156 0.44873 1.0753 0.9525 1.0753s0.9525-0.3937 0.9525-1.0753c0-0.69004-0.44873-1.0837-0.9525-1.0837s-0.9525 0.3937-0.9525 1.0837zm0.35983 0c0-0.47414 0.2413-0.79587 0.59267-0.79587 0.3556 0 0.59267 0.32173 0.59267 0.79587 0 0.4699-0.23707 0.7874-0.59267 0.7874-0.35137 0-0.59267-0.3175-0.59267-0.7874z"/>
    <path d="m227.26 156.92c0 0.6858 0.33443 1.0753 0.8509 1.0753 0.2413 0 0.46143-0.13546 0.6223-0.2921h0.0127l0.0296 0.2413h0.28787v-3.0141h-0.35137v0.79163l0.0169 0.35137c-0.18204-0.14817-0.33867-0.23707-0.57574-0.23707-0.4699 0-0.89323 0.41487-0.89323 1.0837zm0.35983-4e-3c0-0.4699 0.26247-0.7874 0.59267-0.7874 0.16933 0 0.32597 0.0593 0.49953 0.2159v1.0753c-0.16933 0.1905-0.33443 0.28363-0.52493 0.28363-0.35983 0-0.56727-0.29633-0.56727-0.7874z"/>
    <path d="m229.6 156.92c0 0.6731 0.43603 1.0753 0.98637 1.0753 0.2794 0 0.49953-0.0974 0.67733-0.21166l-0.12277-0.2286c-0.1524 0.0974-0.3175 0.16086-0.51223 0.16086-0.3937 0-0.6604-0.2794-0.6858-0.7239h1.3885c8e-3 -0.0508 0.0127-0.11853 0.0127-0.1905 0-0.58843-0.29633-0.9652-0.82126-0.9652-0.4699 0-0.92287 0.41064-0.92287 1.0837zm0.33867-0.15664c0.0423-0.41486 0.3048-0.65193 0.59266-0.65193 0.32174 0 0.508 0.23283 0.508 0.65193z"/>
   </g>
   <g transform="scale(.99996 1)" aria-label="Water">
    <path d="m221.81 165.89h0.41909l0.41487-1.6722c0.0466-0.2159 0.0931-0.41487 0.1397-0.63077h0.0169c0.0381 0.2159 0.0847 0.41487 0.13124 0.63077l0.4191 1.6722h0.42756l0.57574-2.7771h-0.3429l-0.2921 1.5113c-0.0508 0.29633-0.1016 0.5969-0.15664 0.89747h-0.0169c-0.0677-0.30057-0.13547-0.60537-0.19897-0.89747l-0.38523-1.5113h-0.32173l-0.38524 1.5113c-0.0677 0.29633-0.13546 0.5969-0.19473 0.89747h-0.0169c-0.055-0.30057-0.11007-0.5969-0.1651-0.89747l-0.2921-1.5113h-0.36407z"/>
    <path d="m224.62 165.35c0 0.3683 0.25824 0.5842 0.60537 0.5842 0.254 0 0.4826-0.13547 0.68156-0.29634h8e-3l0.0296 0.24554h0.28787v-1.2615c0-0.51223-0.21167-0.84666-0.71543-0.84666-0.3302 0-0.61807 0.14393-0.80857 0.2667l0.1397 0.2413c0.16087-0.11007 0.37254-0.22014 0.61383-0.22014 0.33444 0 0.42334 0.254 0.42334 0.51647-0.8763 0.0974-1.2658 0.32173-1.2658 0.77047zm0.3429-0.0254c0-0.26247 0.23284-0.4318 0.92287-0.51647v0.5715c-0.19897 0.1778-0.36407 0.27517-0.56304 0.27517-0.20319 0-0.35983-0.0974-0.35983-0.3302z"/>
    <path d="m226.95 165.25c0 0.4064 0.14817 0.6858 0.58844 0.6858 0.127 0 0.2667-0.0381 0.381-0.0762l-0.0677-0.26247c-0.0677 0.0254-0.16086 0.055-0.23283 0.055-0.23707 0-0.3175-0.14393-0.3175-0.39793v-1.143h0.55457v-0.28363h-0.55457v-0.57573h-0.2921l-0.0423 0.57573-0.32174 0.0212v0.26247h0.3048z"/>
    <path d="m228.13 164.86c0 0.6731 0.43603 1.0753 0.98636 1.0753 0.2794 0 0.49954-0.0974 0.67734-0.21167l-0.12277-0.2286c-0.1524 0.0974-0.3175 0.16087-0.51223 0.16087-0.3937 0-0.6604-0.2794-0.6858-0.7239h1.3885c8e-3 -0.0508 0.0127-0.11854 0.0127-0.1905 0-0.58844-0.29633-0.9652-0.82127-0.9652-0.4699 0-0.92286 0.41063-0.92286 1.0837zm0.33866-0.15663c0.0423-0.41487 0.3048-0.65194 0.59267-0.65194 0.32173 0 0.508 0.23284 0.508 0.65194z"/>
    <path d="m230.38 165.89h0.34713v-1.3208c0.1397-0.34714 0.34713-0.47414 0.5207-0.47414 0.0847 0 0.13123 0.0127 0.19897 0.0339l0.0677-0.3048c-0.0677-0.0296-0.13123-0.0423-0.22013-0.0423-0.23284 0-0.4445 0.1651-0.5842 0.42333h-0.0127l-0.0296-0.37253h-0.28786z"/>
   </g>
   <g transform="scale(.99996 1)" aria-label="Found path">
    <path d="m211.55 173.82h0.3556v-1.2446h1.0583v-0.29634h-1.0583v-0.9398h1.2488v-0.29633h-1.6044z"/>
    <path d="m213.39 172.8c0 0.68157 0.44873 1.0753 0.9525 1.0753 0.50376 0 0.9525-0.3937 0.9525-1.0753 0-0.69003-0.44874-1.0837-0.9525-1.0837-0.50377 0-0.9525 0.3937-0.9525 1.0837zm0.35983 0c0-0.47413 0.2413-0.79587 0.59267-0.79587 0.3556 0 0.59266 0.32174 0.59266 0.79587 0 0.4699-0.23706 0.7874-0.59266 0.7874-0.35137 0-0.59267-0.3175-0.59267-0.7874z"/>
    <path d="m215.81 173.07c0 0.52494 0.19473 0.80434 0.63077 0.80434 0.28363 0 0.48683-0.14817 0.67733-0.37254h0.0127l0.0296 0.32174h0.28787v-2.0574h-0.34713v1.4605c-0.19474 0.2413-0.3429 0.34713-0.55457 0.34713-0.27093 0-0.38523-0.1651-0.38523-0.55033v-1.2573h-0.35137z"/>
    <path d="m218.14 173.82h0.34713v-1.4901c0.20743-0.20743 0.35137-0.3175 0.56303-0.3175 0.27094 0 0.38947 0.1651 0.38947 0.55034v1.2573h0.34713v-1.3039c0-0.52493-0.19473-0.80433-0.62653-0.80433-0.28363 0-0.4953 0.1524-0.69003 0.34713h-0.0127l-0.0296-0.29633h-0.28786z"/>
    <path d="m220.31 172.8c0 0.6858 0.33444 1.0753 0.8509 1.0753 0.2413 0 0.46143-0.13547 0.6223-0.2921h0.0127l0.0296 0.2413h0.28787v-3.0141h-0.35137v0.79163l0.0169 0.35136c-0.18204-0.14816-0.33867-0.23706-0.57573-0.23706-0.4699 0-0.89324 0.41486-0.89324 1.0837zm0.35984-4e-3c0-0.4699 0.26246-0.7874 0.59266-0.7874 0.16934 0 0.32597 0.0593 0.49953 0.2159v1.0753c-0.16933 0.1905-0.33443 0.28364-0.52493 0.28364-0.35983 0-0.56726-0.29634-0.56726-0.7874z"/>
    <path d="m224 173.64c0.1905 0.14817 0.381 0.23707 0.5715 0.23707 0.4699 0 0.889-0.41064 0.889-1.1091 0-0.63923-0.28364-1.0499-0.8128-1.0499-0.2413 0-0.4699 0.13123-0.65617 0.28786h-0.0127l-0.0296-0.23706h-0.28787v2.9252h0.34713v-0.69427zm8e-3 -0.27093v-1.0795c0.2032-0.18204 0.37677-0.2794 0.55034-0.2794 0.38946 0 0.54186 0.3048 0.54186 0.75776 0 0.508-0.24976 0.81704-0.58843 0.81704-0.13547 0-0.3175-0.0593-0.50377-0.2159z"/>
    <path d="m225.85 173.29c0 0.3683 0.25823 0.5842 0.60536 0.5842 0.254 0 0.4826-0.13547 0.68157-0.29634h8e-3l0.0296 0.24554h0.28787v-1.2615c0-0.51223-0.21167-0.84666-0.71544-0.84666-0.3302 0-0.61806 0.14393-0.80856 0.2667l0.1397 0.2413c0.16086-0.11007 0.37253-0.22014 0.61383-0.22014 0.33443 0 0.42333 0.254 0.42333 0.51647-0.8763 0.0974-1.2658 0.32173-1.2658 0.77047zm0.3429-0.0254c0-0.26247 0.23283-0.4318 0.92286-0.51647v0.5715c-0.19896 0.1778-0.36406 0.27517-0.56303 0.27517-0.2032 0-0.35983-0.0974-0.35983-0.3302z"/>
    <path d="m228.17 173.19c0 0.4064 0.14817 0.6858 0.58843 0.6858 0.127 0 0.2667-0.0381 0.381-0.0762l-0.0677-0.26247c-0.0677 0.0254-0.16087 0.055-0.23283 0.055-0.23707 0-0.3175-0.14393-0.3175-0.39793v-1.143h0.55456v-0.28363h-0.55456v-0.57574h-0.2921l-0.0423 0.57574-0.32173 0.0212v0.26247h0.3048z"/>
    <path d="m229.55 173.82h0.34713v-1.4901c0.20743-0.20743 0.35137-0.3175 0.56303-0.3175 0.27093 0 0.38947 0.1651 0.38947 0.55034v1.2573h0.34713v-1.3039c0-0.52493-0.19473-0.80433-0.62653-0.80433-0.28363 0-0.49107 0.1524-0.6858 0.33866l0.0127-0.42333v-0.82126h-0.34713z"/>
   </g>
   <g transform="scale(.99996 1)" aria-label="Start">
    <path d="m223.01 181.4c0.2413 0.24977 0.57997 0.41063 0.96944 0.41063 0.58419 0 0.94826-0.35136 0.94826-0.79163 0-0.41063-0.24977-0.60113-0.5715-0.74083l-0.39793-0.16933c-0.2159-0.0931-0.46143-0.19474-0.46143-0.46144 0-0.24976 0.20743-0.4064 0.5207-0.4064 0.254 0 0.46143 0.1016 0.63076 0.26247l0.18627-0.2286c-0.19474-0.2032-0.48683-0.3429-0.81703-0.3429-0.50377 0-0.8763 0.31327-0.8763 0.7366 0 0.4064 0.3048 0.60537 0.56303 0.71543l0.39793 0.17357c0.26247 0.11853 0.46567 0.20743 0.46567 0.49107 0 0.27093-0.2159 0.45296-0.57997 0.45296-0.2921 0-0.56726-0.1397-0.76623-0.34713z"/>
    <path d="m225.49 181.13c0 0.4064 0.14816 0.6858 0.58843 0.6858 0.127 0 0.2667-0.0381 0.381-0.0762l-0.0677-0.26246c-0.0677 0.0254-0.16087 0.055-0.23284 0.055-0.23706 0-0.3175-0.14393-0.3175-0.39793v-1.143h0.55457v-0.28363h-0.55457v-0.57574h-0.2921l-0.0423 0.57574-0.32173 0.0212v0.26247h0.3048z"/>
    <path d="m226.68 181.23c0 0.3683 0.25823 0.5842 0.60537 0.5842 0.254 0 0.4826-0.13546 0.68156-0.29633h8e-3l0.0296 0.24553h0.28787v-1.2615c0-0.51223-0.21167-0.84666-0.71543-0.84666-0.3302 0-0.61807 0.14393-0.80857 0.2667l0.1397 0.2413c0.16087-0.11007 0.37253-0.22014 0.61383-0.22014 0.33444 0 0.42334 0.254 0.42334 0.51647-0.8763 0.0974-1.2658 0.32173-1.2658 0.77046zm0.3429-0.0254c0-0.26246 0.23283-0.43179 0.92287-0.51646v0.5715c-0.19897 0.1778-0.36407 0.27516-0.56304 0.27516-0.2032 0-0.35983-0.0974-0.35983-0.3302z"/>
    <path d="m228.95 181.76h0.34714v-1.3208c0.1397-0.34714 0.34713-0.47414 0.5207-0.47414 0.0847 0 0.13123 0.0127 0.19896 0.0339l0.0677-0.3048c-0.0677-0.0296-0.13124-0.0423-0.22014-0.0423-0.23283 0-0.4445 0.1651-0.5842 0.42333h-0.0127l-0.0296-0.37253h-0.28787z"/>
    <path d="m230.48 181.13c0 0.4064 0.14817 0.6858 0.58844 0.6858 0.127 0 0.2667-0.0381 0.381-0.0762l-0.0677-0.26246c-0.0677 0.0254-0.16086 0.055-0.23283 0.055-0.23707 0-0.3175-0.14393-0.3175-0.39793v-1.143h0.55457v-0.28363h-0.55457v-0.57574h-0.2921l-0.0423 0.57574-0.32174 0.0212v0.26247h0.3048z"/>
   </g>
  </g>
  <rect x="277.34" y="153.38" width="7.9473" height="7.9473" fill="#0a2c9d"/>
  <g fill="none">
   <path d="m277.38 145.42v39.492" stroke="#7b8694" stroke-width=".13229"/>
   <g stroke="#6f8ce9" stroke-linecap="square" stroke-width=".26458">
    <path d="m246.3 178.65s0.24342 0.12171 0.48683 0.48683c0.36355 0.54531 0.24341-1.0954 0.85194-1.4605"/>
    <path d="m254.24 178.65s0.24342 0.12171 0.48683 0.48683c0.36355 0.54531 0.24341-1.0954 0.85194-1.4605"/>
    <path d="m262.18 178.65s0.24342 0.12171 0.48683 0.48683c0.36355 0.54531 0.24341-1.0954 0.85194-1.4605"/>
    <path d="m270.12 178.65s0.24342 0.12171 0.48683 0.48683c0.36355 0.54531 0.24341-1.0954 0.85194-1.4605"/>
    <path d="m278.05 178.65s0.24342 0.12171 0.48683 0.48683c0.36355 0.54531 0.24341-1.0954 0.85194-1.4605"/>
    <path d="m285.99 178.65s0.24342 0.12171 0.48683 0.48683c0.36355 0.54531 0.24341-1.0954 0.85194-1.4605"/>
    <path d="m285.99 170.72s0.24342 0.12171 0.48683 0.48683c0.36355 0.54531 0.24341-1.0954 0.85194-1.4605"/>
    <path d="m285.99 162.78s0.24342 0.12171 0.48683 0.48683c0.36355 0.54531 0.24341-1.0954 0.85194-1.4605"/>
    <path d="m285.99 154.84s0.24342 0.12171 0.48683 0.48683c0.36355 0.54531 0.24341-1.0954 0.85194-1.4605"/>
    <path d="m285.99 146.9s0.24342 0.12171 0.48683 0.48683c0.36355 0.54531 0.24341-1.0954 0.85194-1.4605"/>
    <path d="m278.05 146.9s0.24342 0.12171 0.48683 0.48683c0.36355 0.54531 0.24341-1.0954 0.85194-1.4605"/>
    <path d="m278.05 154.84s0.24342 0.12171 0.48683 0.48683c0.36355 0.54531 0.24341-1.0954 0.85194-1.4605"/>
    <path d="m278.05 162.78s0.24342 0.12171 0.48683 0.48683c0.36355 0.54531 0.24341-1.0954 0.85194-1.4605"/>
    <path d="m278.05 170.72s0.24342 0.12171 0.48683 0.48683c0.36355 0.54531 0.24341-1.0954 0.85194-1.4605"/>
    <path d="m270.12 170.72s0.24342 0.12171 0.48683 0.48683c0.36355 0.54531 0.24341-1.0954 0.85194-1.4605"/>
    <path d="m270.12 162.78s0.24342 0.12171 0.48683 0.48683c0.36355 0.54531 0.24341-1.0954 0.85194-1.4605"/>
    <path d="m270.12 154.84s0.24342 0.12171 0.48683 0.48683c0.36355 0.54531 0.24341-1.0954 0.85194-1.4605"/>
    <path d="m270.12 146.9s0.24342 0.12171 0.48683 0.48683c0.36355 0.54531 0.24341-1.0954 0.85194-1.4605"/>
    <path d="m262.18 146.9s0.24342 0.12171 0.48683 0.48683c0.36355 0.54531 0.24341-1.0954 0.85194-1.4605"/>
    <path d="m254.24 146.9s0.24342 0.12171 0.48683 0.48683c0.36355 0.54531 0.24341-1.0954 0.85194-1.4605"/>
    <path d="m246.3 146.9s0.24342 0.12171 0.48683 0.48683c0.36355 0.54531 0.24341-1.0954 0.85194-1.4605"/>
    <path d="m238.37 146.9s0.24342 0.12171 0.48683 0.48683c0.36354 0.54531 0.24342-1.0954 0.85193-1.4605"/>
    <path d="m238.37 154.84s0.24342 0.12171 0.48683 0.48683c0.36354 0.54531 0.24342-1.0954 0.85193-1.4605"/>
    <path d="m246.3 154.84s0.24342 0.12171 0.48683 0.48683c0.36355 0.54531 0.24341-1.0954 0.85194-1.4605"/>
    <path d="m254.24 154.84s0.24342 0.12171 0.48683 0.48683c0.36355 0.54531 0.24341-1.0954 0.85194-1.4605"/>
    <path d="m254.24 162.78s0.24342 0.12171 0.48683 0.48683c0.36355 0.54531 0.24341-1.0954 0.85194-1.4605"/>
    <path d="m246.3 162.78s0.24342 0.12171 0.48683 0.48683c0.36355 0.54531 0.24341-1.0954 0.85194-1.4605"/>
    <path d="m238.37 162.78s0.24342 0.12171 0.48683 0.48683c0.36354 0.54531 0.24342-1.0954 0.85193-1.4605"/>
    <path d="m238.37 170.72s0.24342 0.12171 0.48683 0.48683c0.36354 0.54531 0.24342-1.0954 0.85193-1.4605"/>
    <path d="m246.3 170.72s0.24342 0.12171 0.48683 0.48683c0.36355 0.54531 0.24341-1.0954 0.85194-1.4605"/>
    <path d="m254.24 170.72s0.24342 0.12171 0.48683 0.48683c0.36355 0.54531 0.24341-1.0954 0.85194-1.4605"/>
    <path d="m262.18 170.72s0.24342 0.12171 0.48683 0.48683c0.36355 0.54531 0.24341-1.0954 0.85194-1.4605"/>
    <path d="m262.18 162.78s0.24342 0.12171 0.48683 0.48683c0.36355 0.54531 0.24341-1.0954 0.85194-1.4605"/>
    <path d="m262.18 154.84s0.24342 0.12171 0.48683 0.48683c0.36355 0.54531 0.24341-1.0954 0.85194-1.4605"/>
   </g>
  </g>
  <rect x="301.18" y="145.42" width="55.496" height="39.471" fill="#1d232d" stroke="#7b8694" stroke-width=".13229"/>
  <rect x="324.96" y="153.38" width="7.9473" height="7.9473" fill="#0a2c9d"/>
  <path d="m309.11 145.42v39.492" fill="none" stroke="#7b8694" stroke-width=".13229"/>
  <rect x="317" y="161.31" width="7.9473" height="7.9473" fill="#0a2c9d"/>
  <rect x="316.97" y="169.17" width="7.9473" height="7.9473" fill="#0a2c9d"/>
  <path d="m317.05 145.42v39.492" fill="none" stroke="#7b8694" stroke-width=".13229"/>
  <rect x="324.95" y="161.31" width="7.9473" height="7.9473" fill="#0a2c9d"/>
  <path d="m301.18 153.36h55.498" fill="none" stroke="#7b8694" stroke-width=".13229"/>
  <rect x="332.9" y="153.38" width="7.9473" height="7.9473" fill="#0a2c9d"/>
  <path d="m301.18 161.3h55.498" fill="none" stroke="#7b8694" stroke-width=".13229"/>
  <rect x="340.85" y="169.26" width="7.9473" height="7.9473" fill="#0a2c9d"/>
  <g fill="none">
   <g stroke="#7b8694" stroke-width=".13229">
    <path d="m301.18 169.24h55.498"/>
    <path d="m301.18 177.19h55.498"/>
    <path d="m325 145.42v39.492"/>
    <path d="m332.95 145.42v39.492"/>
    <path d="m348.84 145.42v39.494"/>
   </g>
   <g stroke="#d2d6dc" stroke-width=".42333">
    <path d="m320.99 157.37v-7.9765"/>
    <path d="m321.01 181.16h-7.9765"/>
    <path d="m328.94 181.16h-7.9765"/>
   </g>
  </g>
  <circle cx="320.99" cy="181.17" r=".79473" fill="#fff" stroke="#d2d6dc" stroke-width=".16933"/>
  <circle cx="328.92" cy="181.18" r="1.3245" fill="#d2d6dc"/>
  <path d="m328.94 149.41h-7.9765" fill="none" stroke="#d2d6dc" stroke-width=".42333"/>
  <circle cx="328.92" cy="149.39" r="1.3245" fill="#d2d6dc"/>
  <path d="m301.87 178.65s0.24342 0.12171 0.48683 0.48683c0.36354 0.54531 0.24342-1.0954 0.85193-1.4605" fill="none" stroke="#6f8ce9" stroke-linecap="square" stroke-width=".26458"/>
  <rect x="340.84" y="153.38" width="7.9473" height="7.9473" fill="#0a2c9d"/>
  <g fill="none">
   <path d="m340.88 145.42v39.492" stroke="#7b8694" stroke-width=".13229"/>
   <g stroke="#6f8ce9" stroke-linecap="square" stroke-width=".26458">
    <path d="m309.8 178.65s0.24342 0.12171 0.48683 0.48683c0.36355 0.54531 0.24341-1.0954 0.85194-1.4605"/>
    <path d="m317.74 178.65s0.24342 0.12171 0.48683 0.48683c0.36355 0.54531 0.24341-1.0954 0.85194-1.4605"/>
    <path d="m325.68 178.65s0.24342 0.12171 0.48683 0.48683c0.36355 0.54531 0.24341-1.0954 0.85194-1.4605"/>
    <path d="m333.62 178.65s0.24342 0.12171 0.48683 0.48683c0.36355 0.54531 0.24341-1.0954 0.85194-1.4605"/>
    <path d="m341.55 178.65s0.24342 0.12171 0.48683 0.48683c0.36355 0.54531 0.24341-1.0954 0.85194-1.4605"/>
    <path d="m349.49 178.65s0.24342 0.12171 0.48683 0.48683c0.36355 0.54531 0.24341-1.0954 0.85194-1.4605"/>
    <path d="m349.49 170.72s0.24342 0.12171 0.48683 0.48683c0.36355 0.54531 0.24341-1.0954 0.85194-1.4605"/>
    <path d="m349.49 162.78s0.24342 0.12171 0.48683 0.48683c0.36355 0.54531 0.24341-1.0954 0.85194-1.4605"/>
    <path d="m349.49 154.84s0.24342 0.12171 0.48683 0.48683c0.36355 0.54531 0.24341-1.0954 0.85194-1.4605"/>
    <path d="m349.49 146.9s0.24342 0.12171 0.48683 0.48683c0.36355 0.54531 0.24341-1.0954 0.85194-1.4605"/>
    <path d="m341.55 146.9s0.24342 0.12171 0.48683 0.48683c0.36355 0.54531 0.24341-1.0954 0.85194-1.4605"/>
    <path d="m341.55 154.84s0.24342 0.12171 0.48683 0.48683c0.36355 0.54531 0.24341-1.0954 0.85194-1.4605"/>
    <path d="m341.55 162.78s0.24342 0.12171 0.48683 0.48683c0.36355 0.54531 0.24341-1.0954 0.85194-1.4605"/>
    <path d="m341.55 170.72s0.24342 0.12171 0.48683 0.48683c0.36355 0.54531 0.24341-1.0954 0.85194-1.4605"/>
    <path d="m333.62 170.72s0.24342 0.12171 0.48683 0.48683c0.36355 0.54531 0.24341-1.0954 0.85194-1.4605"/>
    <path d="m333.62 162.78s0.24342 0.12171 0.48683 0.48683c0.36355 0.54531 0.24341-1.0954 0.85194-1.4605"/>
    <path d="m333.62 154.84s0.24342 0.12171 0.48683 0.48683c0.36355 0.54531 0.24341-1.0954 0.85194-1.4605"/>
    <path d="m333.62 146.9s0.24342 0.12171 0.48683 0.48683c0.36355 0.54531 0.24341-1.0954 0.85194-1.4605"/>
    <path d="m325.68 146.9s0.24342 0.12171 0.48683 0.48683c0.36355 0.54531 0.24341-1.0954 0.85194-1.4605"/>
    <path d="m317.74 146.9s0.24342 0.12171 0.48683 0.48683c0.36355 0.54531 0.24341-1.0954 0.85194-1.4605"/>
    <path d="m309.8 146.9s0.24342 0.12171 0.48683 0.48683c0.36355 0.54531 0.24341-1.0954 0.85194-1.4605"/>
    <path d="m301.87 146.9s0.24342 0.12171 0.48683 0.48683c0.36354 0.54531 0.24342-1.0954 0.85193-1.4605"/>
    <path d="m301.87 154.84s0.24342 0.12171 0.48683 0.48683c0.36354 0.54531 0.24342-1.0954 0.85193-1.4605"/>
    <path d="m309.8 154.84s0.24342 0.12171 0.48683 0.48683c0.36355 0.54531 0.24341-1.0954 0.85194-1.4605"/>
    <path d="m317.74 154.84s0.24342 0.12171 0.48683 0.48683c0.36355 0.54531 0.24341-1.0954 0.85194-1.4605"/>
    <path d="m317.74 162.78s0.24342 0.12171 0.48683 0.48683c0.36355 0.54531 0.24341-1.0954 0.85194-1.4605"/>
    <path d="m309.8 162.78s0.24342 0.12171 0.48683 0.48683c0.36355 0.54531 0.24341-1.0954 0.85194-1.4605"/>
    <path d="m301.87 162.78s0.24342 0.12171 0.48683 0.48683c0.36354 0.54531 0.24342-1.0954 0.85193-1.4605"/>
    <path d="m301.87 170.72s0.24342 0.12171 0.48683 0.48683c0.36354 0.54531 0.24342-1.0954 0.85193-1.4605"/>
    <path d="m309.8 170.72s0.24342 0.12171 0.48683 0.48683c0.36355 0.54531 0.24341-1.0954 0.85194-1.4605"/>
    <path d="m317.74 170.72s0.24342 0.12171 0.48683 0.48683c0.36355 0.54531 0.24341-1.0954 0.85194-1.4605"/>
    <path d="m325.68 170.72s0.24342 0.12171 0.48683 0.48683c0.36355 0.54531 0.24341-1.0954 0.85194-1.4605"/>
    <path d="m325.68 162.78s0.24342 0.12171 0.48683 0.48683c0.36355 0.54531 0.24341-1.0954 0.85194-1.4605"/>
    <path d="m325.68 154.84s0.24342 0.12171 0.48683 0.48683c0.36355 0.54531 0.24341-1.0954 0.85194-1.4605"/>
   </g>
   <path d="m313.05 181.18v-7.9765" stroke="#d2d6dc" stroke-width=".42333"/>
  </g>
  <g stroke="#d2d6dc">
   <circle cx="313.05" cy="181.17" r=".79473" fill="#fff" stroke-width=".16933"/>
   <path d="m313.05 173.24v-7.9765" fill="none" stroke-width=".42333"/>
   <circle cx="313.05" cy="173.23" r=".79473" fill="#fff" stroke-width=".16933"/>
   <path d="m313.05 165.31v-7.9765" fill="none" stroke-width=".42333"/>
   <circle cx="313.05" cy="165.3" r=".79473" fill="#fff" stroke-width=".16933"/>
   <path d="m321.01 157.35h-7.9765" fill="none" stroke-width=".42333"/>
  </g>
  <g fill="#fff" stroke="#d2d6dc" stroke-width=".16933">
   <circle cx="313.05" cy="157.36" r=".79473"/>
   <circle cx="320.99" cy="157.36" r=".79473"/>
   <circle cx="320.99" cy="149.42" r=".79473"/>
  </g>
  <rect x="364.67" y="145.42" width="55.496" height="39.471" fill="#1d232d" stroke="#7b8694" stroke-width=".13229"/>
  <rect x="388.46" y="153.38" width="7.9473" height="7.9473" fill="#0a2c9d"/>
  <path d="m372.61 145.42v39.492" fill="none" stroke="#7b8694" stroke-width=".13229"/>
  <rect x="380.5" y="161.31" width="7.9473" height="7.9473" fill="#0a2c9d"/>
  <rect x="380.47" y="169.17" width="7.9473" height="7.9473" fill="#0a2c9d"/>
  <path d="m380.55 145.42v39.492" fill="none" stroke="#7b8694" stroke-width=".13229"/>
  <rect x="388.45" y="161.31" width="7.9473" height="7.9473" fill="#0a2c9d"/>
  <path d="m364.68 153.36h55.498" fill="none" stroke="#7b8694" stroke-width=".13229"/>
  <rect x="396.4" y="153.38" width="7.9473" height="7.9473" fill="#0a2c9d"/>
  <path d="m364.68 161.3h55.498" fill="none" stroke="#7b8694" stroke-width=".13229"/>
  <rect x="404.35" y="169.26" width="7.9473" height="7.9473" fill="#0a2c9d"/>
  <g fill="none">
   <g stroke="#7b8694" stroke-width=".13229">
    <path d="m364.68 169.24h55.498"/>
    <path d="m364.68 177.19h55.498"/>
    <path d="m388.5 145.42v39.492"/>
    <path d="m396.45 145.42v39.492"/>
    <path d="m412.34 145.42v39.494"/>
   </g>
   <path d="m392.42 181.18v-7.9765" stroke="#d2d6dc" stroke-width=".42333"/>
   <path d="m400.38 173.22h-7.9765" stroke="#d2d6dc" stroke-width=".42333"/>
  </g>
  <g>
   <circle cx="392.42" cy="173.23" r=".79473" fill="#fff" stroke="#d2d6dc" stroke-width=".16933"/>
   <circle cx="392.42" cy="181.18" r="1.3245" fill="#d2d6dc"/>
   <rect x="404.34" y="153.38" width="7.9473" height="7.9473" fill="#0a2c9d"/>
  </g>
  <g fill="none">
   <path d="m400.36 173.24v-7.9765" stroke="#d2d6dc" stroke-width=".42333"/>
   <path d="m404.38 145.42v39.492" stroke="#7b8694" stroke-width=".13229"/>
   <g stroke="#6f8ce9" stroke-linecap="square" stroke-width=".26458">
    <path d="m389.18 178.65s0.24342 0.12171 0.48683 0.48683c0.36355 0.54531 0.24341-1.0954 0.85194-1.4605"/>
    <path d="m412.99 162.78s0.24342 0.12171 0.48683 0.48683c0.36355 0.54531 0.24341-1.0954 0.85194-1.4605"/>
    <path d="m412.99 154.84s0.24342 0.12171 0.48683 0.48683c0.36355 0.54531 0.24341-1.0954 0.85194-1.4605"/>
    <path d="m412.99 146.9s0.24342 0.12171 0.48683 0.48683c0.36355 0.54531 0.24341-1.0954 0.85194-1.4605"/>
    <path d="m405.05 146.9s0.24342 0.12171 0.48683 0.48683c0.36355 0.54531 0.24341-1.0954 0.85194-1.4605"/>
    <path d="m405.05 162.78s0.24342 0.12171 0.48683 0.48683c0.36355 0.54531 0.24341-1.0954 0.85194-1.4605"/>
    <path d="m397.12 170.72s0.24342 0.12171 0.48683 0.48683c0.36355 0.54531 0.24341-1.0954 0.85194-1.4605"/>
    <path d="m397.12 162.78s0.24342 0.12171 0.48683 0.48683c0.36355 0.54531 0.24341-1.0954 0.85194-1.4605"/>
    <path d="m397.12 146.9s0.24342 0.12171 0.48683 0.48683c0.36355 0.54531 0.24341-1.0954 0.85194-1.4605"/>
    <path d="m389.18 146.9s0.24342 0.12171 0.48683 0.48683c0.36355 0.54531 0.24341-1.0954 0.85194-1.4605"/>
    <path d="m389.18 170.72s0.24342 0.12171 0.48683 0.48683c0.36355 0.54531 0.24341-1.0954 0.85194-1.4605"/>
   </g>
  </g>
  <g stroke="#d2d6dc">
   <circle cx="400.36" cy="173.23" r=".79473" fill="#fff" stroke-width=".16933"/>
   <path d="m416.26 165.29h-7.9765" fill="none" stroke-width=".42333"/>
   <path d="m408.32 165.29h-7.9765" fill="none" stroke-width=".42333"/>
   <circle cx="400.36" cy="165.3" r=".79473" fill="#fff" stroke-width=".16933"/>
   <circle cx="408.3" cy="165.3" r=".79473" fill="#fff" stroke-width=".16933"/>
   <path d="m416.24 157.37v-7.9765" fill="none" stroke-width=".42333"/>
   <path d="m400.38 149.41h-7.9765" fill="none" stroke-width=".42333"/>
  </g>
  <circle cx="392.42" cy="149.39" r="1.3245" fill="#d2d6dc"/>
  <g stroke="#d2d6dc">
   <path d="m416.26 149.41h-7.9765" fill="none" stroke-width=".42333"/>
   <path d="m408.32 149.41h-7.9765" fill="none" stroke-width=".42333"/>
   <circle cx="408.3" cy="149.42" r=".79473" fill="#fff" stroke-width=".16933"/>
   <circle cx="400.36" cy="149.42" r=".79473" fill="#fff" stroke-width=".16933"/>
   <path d="m416.24 165.31v-7.9765" fill="none" stroke-width=".42333"/>
  </g>
  <g fill="#fff" stroke="#d2d6dc" stroke-width=".16933">
   <circle cx="416.24" cy="165.3" r=".79473"/>
   <circle cx="416.24" cy="157.36" r=".79473"/>
   <circle cx="416.24" cy="149.42" r=".79473"/>
  </g>
 </g>
</svg>
