<svg width="120.65mm" height="97.164mm" version="1.1" viewBox="0 0 120.65 97.164" xmlns="http://www.w3.org/2000/svg">
 <g transform="translate(-36.29 -70.963)">
  <path d="m95.513 70.963a48.582 48.582 0 0 0-48.566 48.582 48.582 48.582 0 0 0 48.582 48.582 48.582 48.582 0 0 0 48.582-48.582 48.582 48.582 0 0 0-48.582-48.582 48.582 48.582 0 0 0-0.01587 0zm0.01588 21.182a27.401 27.401 0 0 1 27.401 27.401 27.401 27.401 0 0 1-27.401 27.401 27.401 27.401 0 0 1-27.4-27.401 27.401 27.401 0 0 1 27.4-27.401z" fill="#2f3744"/>
  <g stroke-linecap="round" stroke-width=".26458">
   <path d="m40.557 112.7-4.1341 3.7042v7.9375l4.1341 3.7042h35.388l4.1341-3.7042v-7.9375l-4.1341-3.7042z" fill="#1d232d" stroke="#009244"/>
   <g fill="#47d58a" aria-label="EVALUATION">
    <path d="m47.599 121.56h1.552v-0.45931h-1.0038v-0.55563h0.82232v-0.45561h-0.82232v-0.48525h0.96679v-0.45931h-1.515z"/>
    <path d="m50.043 121.56h0.65564l0.72972-2.4151h-0.55933l-0.28522 1.1261c-0.07038 0.263-0.11853 0.50747-0.19262 0.77417h-0.01482c-0.07408-0.2667-0.12224-0.51117-0.19262-0.77417l-0.29263-1.1261h-0.57785z"/>
    <path d="m52.121 120.56 0.05927-0.22225c0.06668-0.24077 0.13335-0.52229 0.18891-0.77788h0.01482c0.06667 0.25189 0.12965 0.53711 0.19632 0.77788l0.05927 0.22225zm0.77788 1.0001h0.57785l-0.75935-2.4151h-0.65193l-0.75935 2.4151h0.55562l0.14817-0.57414h0.74083z"/>
    <path d="m53.726 121.56h1.5002v-0.45931h-0.95197v-1.9558h-0.54822z"/>
    <path d="m55.488 120.44c0 0.81122 0.33708 1.1631 0.96308 1.1631 0.626 0 0.95568-0.35189 0.95568-1.1631v-1.2964h-0.52599v1.352c0 0.47413-0.15928 0.63711-0.42968 0.63711-0.2704 0-0.41857-0.16298-0.41857-0.63711v-1.352h-0.54451z"/>
    <path d="m58.416 120.56 0.05927-0.22225c0.06668-0.24077 0.13335-0.52229 0.18891-0.77788h0.01482c0.06667 0.25189 0.12965 0.53711 0.19632 0.77788l0.05927 0.22225zm0.77788 1.0001h0.57785l-0.75935-2.4151h-0.65193l-0.75935 2.4151h0.55562l0.14817-0.57414h0.74083z"/>
    <path d="m60.35 121.56h0.54451v-1.9558h0.66305v-0.45931h-1.8743v0.45931h0.66675z"/>
    <path d="m61.931 121.56h0.54822v-2.4151h-0.54822z"/>
    <path d="m64.026 121.61c0.65193 0 1.0964-0.47413 1.0964-1.2631 0-0.78528-0.4445-1.2409-1.0964-1.2409-0.64823 0-1.0964 0.4519-1.0964 1.2409s0.4482 1.2631 1.0964 1.2631zm0-0.47043c-0.32597 0-0.5371-0.30744-0.5371-0.79269 0-0.48154 0.21114-0.77046 0.5371-0.77046 0.32967 0 0.5371 0.28892 0.5371 0.77046 0 0.48525-0.20743 0.79269-0.5371 0.79269z"/>
    <path d="m65.577 121.56h0.52229v-0.85566c0-0.28522-0.04445-0.60748-0.07038-0.87418h0.01482l0.23707 0.52599 0.62971 1.2038h0.55933v-2.4151h-0.51858v0.85195c0 0.28523 0.04445 0.62601 0.07038 0.8816h-0.01482l-0.24077-0.5334-0.62971-1.2002h-0.55933z"/>
   </g>
   <path d="m117.29 112.7-4.1341 3.7042v7.9375l4.1341 3.7042h35.388l4.1341-3.7042v-7.9375l-4.1341-3.7042z" fill="#1d232d" stroke="#009244"/>
   <g fill="#47d58a" aria-label="PROTOTYPE">
    <path d="m125.12 121.56h0.54821v-0.81862h0.33338c0.51117 0 0.94456-0.25188 0.94456-0.81862 0-0.58526-0.41857-0.77787-0.94456-0.77787h-0.88159zm0.54821-1.252v-0.72972h0.30004c0.28892 0 0.4445 0.0926 0.4445 0.34449 0 0.25188-0.14446 0.38523-0.4445 0.38523z"/>
    <path d="m127.91 119.58h0.27781c0.28522 0 0.4408 0.0815 0.4408 0.31856 0 0.23707-0.15558 0.35931-0.4408 0.35931h-0.27781zm1.3705 1.9817-0.54451-0.96678c0.25559-0.11483 0.42968-0.34079 0.42968-0.69639 0-0.57414-0.42227-0.75194-0.93345-0.75194h-0.87048v2.4151h0.54822v-0.87048h0.29633l0.46302 0.87048z"/>
    <path d="m130.62 121.61c0.65193 0 1.0964-0.47413 1.0964-1.2631 0-0.78528-0.4445-1.2409-1.0964-1.2409-0.64823 0-1.0964 0.4519-1.0964 1.2409s0.44821 1.2631 1.0964 1.2631zm0-0.47043c-0.32597 0-0.53711-0.30744-0.53711-0.79269 0-0.48154 0.21114-0.77046 0.53711-0.77046 0.32967 0 0.5371 0.28892 0.5371 0.77046 0 0.48525-0.20743 0.79269-0.5371 0.79269z"/>
    <path d="m132.58 121.56h0.54452v-1.9558h0.66304v-0.45931h-1.8743v0.45931h0.66675z"/>
    <path d="m135.04 121.61c0.65194 0 1.0964-0.47413 1.0964-1.2631 0-0.78528-0.4445-1.2409-1.0964-1.2409-0.64823 0-1.0964 0.4519-1.0964 1.2409s0.4482 1.2631 1.0964 1.2631zm0-0.47043c-0.32596 0-0.5371-0.30744-0.5371-0.79269 0-0.48154 0.21114-0.77046 0.5371-0.77046 0.32967 0 0.53711 0.28892 0.53711 0.77046 0 0.48525-0.20744 0.79269-0.53711 0.79269z"/>
    <path d="m136.99 121.56h0.54451v-1.9558h0.66305v-0.45931h-1.8743v0.45931h0.66675z"/>
    <path d="m138.92 121.56h0.54451v-0.85936l0.72972-1.5558h-0.57044l-0.21484 0.55562c-0.0667 0.18151-0.13706 0.34819-0.20373 0.5334h-0.0148c-0.0704-0.18521-0.13335-0.35189-0.19632-0.5334l-0.21855-0.55562h-0.58155l0.72602 1.5558z"/>
    <path d="m140.44 121.56h0.54822v-0.81862h0.33337c0.51118 0 0.94456-0.25188 0.94456-0.81862 0-0.58526-0.41857-0.77787-0.94456-0.77787h-0.88159zm0.54822-1.252v-0.72972h0.30003c0.28893 0 0.4445 0.0926 0.4445 0.34449 0 0.25188-0.14446 0.38523-0.4445 0.38523z"/>
    <path d="m142.69 121.56h1.552v-0.45931h-1.0038v-0.55563h0.82233v-0.45561h-0.82233v-0.48525h0.96679v-0.45931h-1.515z"/>
   </g>
   <path d="m77.598 75.657-4.1341 3.7042v7.9375l4.1341 3.7042h35.388l4.1341-3.7042v-7.9375l-4.1341-3.7042z" fill="#1d232d" stroke="#009244"/>
   <g fill="#47d58a" aria-label="CONCEPT">
    <path d="m86.907 83.328c0 0.81121 0.51118 1.2372 1.1372 1.2372 0.30004 0 0.56674-0.12224 0.76676-0.3556l-0.30004-0.32967c-0.11853 0.12964-0.25929 0.21484-0.45932 0.21484-0.3519 0-0.58526-0.28892-0.58526-0.78528 0-0.48525 0.263-0.77788 0.60008-0.77788 0.17039 0 0.28522 0.07038 0.40746 0.1815l0.30004-0.33708c-0.16298-0.16669-0.41487-0.31485-0.7149-0.31485-0.6223 0-1.152 0.46672-1.152 1.2668z"/>
    <path d="m90.014 84.565c0.65193 0 1.0964-0.47413 1.0964-1.2631 0-0.78528-0.4445-1.2409-1.0964-1.2409-0.64823 0-1.0964 0.45191-1.0964 1.2409 0 0.78899 0.4482 1.2631 1.0964 1.2631zm0-0.47043c-0.32597 0-0.5371-0.30745-0.5371-0.79269 0-0.48154 0.21114-0.77047 0.5371-0.77047 0.32967 0 0.5371 0.28892 0.5371 0.77047 0 0.48524-0.20743 0.79269-0.5371 0.79269z"/>
    <path d="m91.565 84.521h0.52229v-0.85566c0-0.28522-0.04445-0.60748-0.07038-0.87418h0.01482l0.23707 0.52599 0.62971 1.2039h0.55933v-2.4151h-0.51858v0.85196c0 0.28522 0.04445 0.626 0.07038 0.88159h-0.01482l-0.24077-0.5334-0.62971-1.2002h-0.55933z"/>
    <path d="m93.91 83.328c0 0.81121 0.51118 1.2372 1.1372 1.2372 0.30004 0 0.56674-0.12224 0.76676-0.3556l-0.30004-0.32967c-0.11853 0.12964-0.25929 0.21484-0.45932 0.21484-0.3519 0-0.58526-0.28892-0.58526-0.78528 0-0.48525 0.263-0.77788 0.60008-0.77788 0.17039 0 0.28522 0.07038 0.40746 0.1815l0.30004-0.33708c-0.16298-0.16669-0.41487-0.31485-0.7149-0.31485-0.6223 0-1.152 0.46672-1.152 1.2668z"/>
    <path d="m96.174 84.521h1.552v-0.45932h-1.0038v-0.55562h0.82232v-0.45561h-0.82232v-0.48525h0.96679v-0.45932h-1.515z"/>
    <path d="m98.199 84.521h0.54822v-0.81862h0.33338c0.51118 0 0.94456-0.25188 0.94456-0.81862 0-0.58526-0.41857-0.77788-0.94456-0.77788h-0.88159zm0.54822-1.252v-0.72972h0.30004c0.28892 0 0.4445 0.0926 0.4445 0.34449 0 0.25188-0.14446 0.38523-0.4445 0.38523z"/>
    <path d="m100.87 84.521h0.54451v-1.9558h0.66304v-0.45932h-1.8743v0.45932h0.66675z"/>
   </g>
   <path d="m77.598 147.62-4.1341 3.7042v7.9375l4.1341 3.7042h35.388l4.1341-3.7042v-7.9375l-4.1341-3.7042z" fill="#1d232d" stroke="#009244"/>
  </g>
  <g fill="#47d58a">
   <g stroke-linecap="round" stroke-width=".26458" aria-label="PLAYTEST">
    <path d="m87.022 156.49h0.54822v-0.81863h0.33338c0.51118 0 0.94456-0.25188 0.94456-0.81862 0-0.58525-0.41857-0.77787-0.94456-0.77787h-0.88159zm0.54822-1.252v-0.72972h0.30004c0.28892 0 0.4445 0.0926 0.4445 0.34448 0 0.25189-0.14446 0.38524-0.4445 0.38524z"/>
    <path d="m89.264 156.49h1.5002v-0.45932h-0.95197v-1.9558h-0.54822z"/>
    <path d="m91.66 155.49 0.05927-0.22225c0.06668-0.24077 0.13335-0.52229 0.18891-0.77787h0.01482c0.06667 0.25188 0.12965 0.5371 0.19632 0.77787l0.05927 0.22225zm0.77788 1.0001h0.57785l-0.75935-2.4151h-0.65193l-0.75935 2.4151h0.55562l0.14817-0.57415h0.74083z"/>
    <path d="m93.615 156.49h0.54451v-0.85937l0.72972-1.5558h-0.57044l-0.21484 0.55562c-0.06668 0.18151-0.13706 0.3482-0.20373 0.5334h-0.01482c-0.07038-0.1852-0.13335-0.35189-0.19632-0.5334l-0.21855-0.55562h-0.58155l0.72602 1.5558z"/>
    <path d="m95.548 156.49h0.54451v-1.9558h0.66305v-0.45932h-1.8743v0.45932h0.66675z"/>
    <path d="m97.129 156.49h1.552v-0.45932h-1.0038v-0.55563h0.82232v-0.45561h-0.82232v-0.48524h0.96679v-0.45932h-1.515z"/>
    <path d="m98.999 156.18c0.24818 0.22966 0.58155 0.3482 0.89641 0.3482 0.57415 0 0.90752-0.3482 0.90752-0.74825 0-0.34078-0.18521-0.5371-0.47783-0.65563l-0.30745-0.12595c-0.21114-0.0852-0.37042-0.13705-0.37042-0.28522 0-0.13705 0.12224-0.21854 0.30745-0.21854 0.19262 0 0.34449 0.0704 0.50377 0.19261l0.2741-0.34448c-0.20743-0.20744-0.50006-0.31856-0.77787-0.31856-0.50006 0-0.85937 0.31856-0.85937 0.71861 0 0.35189 0.23707 0.55933 0.48895 0.65934l0.31115 0.13335c0.21114 0.0889 0.34819 0.13705 0.34819 0.28892 0 0.14447-0.11112 0.23337-0.33708 0.23337-0.20002 0-0.42228-0.10372-0.59267-0.25189z"/>
    <path d="m101.61 156.49h0.54451v-1.9558h0.66305v-0.45932h-1.8743v0.45932h0.66675z"/>
   </g>
   <g stroke-width="57.627">
    <g transform="matrix(.0018878 -.0089072 .0090597 .0019201 116.87 93.488)">
     <g fill="#47d58a" stroke-width="57.627">
      <path d="m486.41 221.41-364.07-208.5c-52.938-30.318-95.852-5.44-95.852 55.563v415.65c0 61.004 42.914 85.882 95.852 55.563l364.07-208.49c52.938-30.317 52.938-79.473 0-109.79z" fill="#47d58a" stroke-width="57.627"/>
     </g>
    </g>
    <g transform="matrix(.0041288 -.008115 .008254 .0041995 122.89 99.89)">
     <g fill="#47d58a" stroke-width="57.627">
      <path d="m486.41 221.41-364.07-208.5c-52.938-30.318-95.852-5.44-95.852 55.563v415.65c0 61.004 42.914 85.882 95.852 55.563l364.07-208.49c52.938-30.317 52.938-79.473 0-109.79z" fill="#47d58a" stroke-width="57.627"/>
     </g>
    </g>
    <g transform="matrix(.0060884 -.0067699 .0068859 .0061927 127.04 107.63)">
     <g fill="#47d58a" stroke-width="57.627">
      <path d="m486.41 221.41-364.07-208.5c-52.938-30.318-95.852-5.44-95.852 55.563v415.65c0 61.004 42.914 85.882 95.852 55.563l364.07-208.49c52.938-30.317 52.938-79.473 0-109.79z" fill="#47d58a" stroke-width="57.627"/>
     </g>
    </g>
    <g transform="matrix(.0089516 -.0016645 .001693 .0091049 127.78 129.25)">
     <g fill="#47d58a" stroke-width="57.627">
      <path d="m486.41 221.41-364.07-208.5c-52.938-30.318-95.852-5.44-95.852 55.563v415.65c0 61.004 42.914 85.882 95.852 55.563l364.07-208.49c52.938-30.317 52.938-79.473 0-109.79z" fill="#47d58a" stroke-width="57.627"/>
     </g>
    </g>
    <g transform="matrix(.0090774 .00070903 -.00072117 .0092328 124.17 137.25)">
     <g fill="#47d58a" stroke-width="57.627">
      <path d="m486.41 221.41-364.07-208.5c-52.938-30.318-95.852-5.44-95.852 55.563v415.65c0 61.004 42.914 85.882 95.852 55.563l364.07-208.49c52.938-30.317 52.938-79.473 0-109.79z" fill="#47d58a" stroke-width="57.627"/>
     </g>
    </g>
    <g transform="matrix(.0085845 .0030343 -.0030862 .0087316 118.6 144.05)">
     <g fill="#47d58a" stroke-width="57.627">
      <path d="m486.41 221.41-364.07-208.5c-52.938-30.318-95.852-5.44-95.852 55.563v415.65c0 61.004 42.914 85.882 95.852 55.563l364.07-208.49c52.938-30.317 52.938-79.473 0-109.79z" fill="#47d58a" stroke-width="57.627"/>
     </g>
    </g>
    <g transform="matrix(-.0018878 .0089072 -.0090597 -.0019201 74.26 145.57)">
     <g fill="#47d58a" stroke-width="57.627">
      <path d="m486.41 221.41-364.07-208.5c-52.938-30.318-95.852-5.44-95.852 55.563v415.65c0 61.004 42.914 85.882 95.852 55.563l364.07-208.49c52.938-30.317 52.938-79.473 0-109.79z" fill="#47d58a" stroke-width="57.627"/>
     </g>
    </g>
    <g transform="matrix(-.0041288 .008115 -.008254 -.0041995 68.246 139.17)">
     <g fill="#47d58a" stroke-width="57.627">
      <path d="m486.41 221.41-364.07-208.5c-52.938-30.318-95.852-5.44-95.852 55.563v415.65c0 61.004 42.914 85.882 95.852 55.563l364.07-208.49c52.938-30.317 52.938-79.473 0-109.79z" fill="#47d58a" stroke-width="57.627"/>
     </g>
    </g>
    <g transform="matrix(-.0060884 .0067699 -.0068859 -.0061927 64.094 131.43)">
     <g fill="#47d58a" stroke-width="57.627">
      <path d="m486.41 221.41-364.07-208.5c-52.938-30.318-95.852-5.44-95.852 55.563v415.65c0 61.004 42.914 85.882 95.852 55.563l364.07-208.49c52.938-30.317 52.938-79.473 0-109.79z" fill="#47d58a" stroke-width="57.627"/>
     </g>
    </g>
    <g transform="matrix(-.0089516 .0016645 -.001693 -.0091049 63.353 109.81)">
     <g fill="#47d58a" stroke-width="57.627">
      <path d="m486.41 221.41-364.07-208.5c-52.938-30.318-95.852-5.44-95.852 55.563v415.65c0 61.004 42.914 85.882 95.852 55.563l364.07-208.49c52.938-30.317 52.938-79.473 0-109.79z" fill="#47d58a" stroke-width="57.627"/>
     </g>
    </g>
    <g transform="matrix(-.0090774 -.00070903 .00072117 -.0092328 66.966 101.81)">
     <g fill="#47d58a" stroke-width="57.627">
      <path d="m486.41 221.41-364.07-208.5c-52.938-30.318-95.852-5.44-95.852 55.563v415.65c0 61.004 42.914 85.882 95.852 55.563l364.07-208.49c52.938-30.317 52.938-79.473 0-109.79z" fill="#47d58a" stroke-width="57.627"/>
     </g>
    </g>
    <g transform="matrix(-.0085845 -.0030343 .0030862 -.0087316 72.528 95.008)">
     <g fill="#47d58a" stroke-width="57.627">
      <path d="m486.41 221.41-364.07-208.5c-52.938-30.318-95.852-5.44-95.852 55.563v415.65c0 61.004 42.914 85.882 95.852 55.563l364.07-208.49c52.938-30.317 52.938-79.473 0-109.79z" fill="#47d58a" stroke-width="57.627"/>
     </g>
    </g>
   </g>
  </g>
  <g fill="#fff" stroke-linecap="round" stroke-width=".26458" aria-label="ITERATIVE  DESIGN">
   <path d="m88.807 119.08h0.54822v-2.4151h-0.54822z"/>
   <path d="m90.395 119.08h0.54451v-1.9558h0.66305v-0.45932h-1.8743v0.45932h0.66675z"/>
   <path d="m91.976 119.08h1.552v-0.45932h-1.0038v-0.55562h0.82232v-0.45562h-0.82232v-0.48524h0.96679v-0.45932h-1.515z"/>
   <path d="m94.55 117.1h0.27781c0.28522 0 0.4408 0.0815 0.4408 0.31856s-0.15558 0.3593-0.4408 0.3593h-0.27781zm1.3705 1.9817-0.54451-0.96679c0.25559-0.11483 0.42968-0.34078 0.42968-0.69638 0-0.57415-0.42228-0.75195-0.93345-0.75195h-0.87048v2.4151h0.54822v-0.87048h0.29633l0.46302 0.87048z"/>
   <path d="m96.752 118.08 0.05927-0.22225c0.06668-0.24077 0.13335-0.52228 0.18891-0.77787h0.01482c0.06668 0.25188 0.12965 0.5371 0.19632 0.77787l0.05927 0.22225zm0.77788 1.0001h0.57785l-0.75935-2.4151h-0.65193l-0.75935 2.4151h0.55562l0.14817-0.57415h0.74083z"/>
   <path d="m98.686 119.08h0.54451v-1.9558h0.66305v-0.45932h-1.8743v0.45932h0.66675z"/>
   <path d="m100.27 119.08h0.54821v-2.4151h-0.54821z"/>
   <path d="m101.8 119.08h0.65564l0.72972-2.4151h-0.55933l-0.28522 1.1261c-0.0704 0.26299-0.11853 0.50747-0.19262 0.77417h-0.0148c-0.0741-0.2667-0.12224-0.51118-0.19262-0.77417l-0.29263-1.1261h-0.57785z"/>
   <path d="m103.44 119.08h1.552v-0.45932h-1.0038v-0.55562h0.82233v-0.45562h-0.82233v-0.48524h0.96679v-0.45932h-1.515z"/>
   <path d="m90.952 123.85h0.7149c0.7075 0 1.1816-0.38894 1.1816-1.2187 0-0.82973-0.47413-1.1964-1.215-1.1964h-0.68157zm0.54822-0.4408v-1.5335h0.10372c0.40746 0 0.68527 0.1778 0.68527 0.75565s-0.27781 0.77788-0.68527 0.77788z"/>
   <path d="m93.303 123.85h1.552v-0.45932h-1.0038v-0.55563h0.82232v-0.45561h-0.82232v-0.48524h0.96679v-0.45932h-1.515z"/>
   <path d="m95.173 123.54c0.24818 0.22966 0.58156 0.3482 0.89641 0.3482 0.57415 0 0.90752-0.3482 0.90752-0.74825 0-0.34078-0.18521-0.5371-0.47784-0.65563l-0.30745-0.12595c-0.21114-0.0852-0.37042-0.13705-0.37042-0.28522 0-0.13705 0.12224-0.21854 0.30744-0.21854 0.19262 0 0.34449 0.0704 0.50377 0.19261l0.27411-0.34448c-0.20743-0.20744-0.50006-0.31856-0.77788-0.31856-0.50006 0-0.85937 0.31856-0.85937 0.71861 0 0.35189 0.23707 0.55933 0.48895 0.65934l0.31115 0.13335c0.21114 0.0889 0.34819 0.13705 0.34819 0.28892 0 0.14447-0.11112 0.23337-0.33708 0.23337-0.20002 0-0.42228-0.10372-0.59267-0.25189z"/>
   <path d="m97.384 123.85h0.54822v-2.4151h-0.54822z"/>
   <path d="m98.383 122.65c0 0.81122 0.51858 1.2372 1.1705 1.2372 0.33708 0 0.63712-0.14076 0.81121-0.29263v-1.1112h-0.88529v0.4445h0.40005v0.41486c-0.05927 0.0482-0.15928 0.0741-0.25559 0.0741-0.45561 0-0.68157-0.28893-0.68157-0.78529 0-0.48524 0.2667-0.77787 0.63712-0.77787 0.20743 0 0.32226 0.0704 0.4445 0.1815l0.30004-0.33708c-0.16299-0.16298-0.41117-0.31485-0.75195-0.31485-0.65564 0-1.189 0.46672-1.189 1.2668z"/>
   <path d="m100.86 123.85h0.52229v-0.85567c0-0.28522-0.0444-0.60748-0.0704-0.87418h0.0148l0.23707 0.52599 0.6297 1.2039h0.55933v-2.4151h-0.51858v0.85196c0 0.28522 0.0444 0.626 0.0704 0.88159h-0.0148l-0.24077-0.5334-0.62971-1.2002h-0.55933z"/>
  </g>
 </g>
</svg>
