<svg width="83.608mm" height="62.574mm" version="1.1" viewBox="0 0 83.608 62.574" xmlns="http://www.w3.org/2000/svg">
 <g transform="translate(-155.66,-117.37)" fill="#e8eaec" stroke="#cf2f25" stroke-linecap="round" stroke-width=".26458" aria-label="Jazz Controller">
  <g fill="none" stroke="#6f8ce9" stroke-dashoffset="1.2" stroke-linecap="square" stroke-miterlimit="40" stroke-width=".26458">
   <path d="m182.25 120.41v-2.9104h2.9104" style="paint-order:normal"/>
   <path d="m212.68 120.41v-2.9104h-2.9104" style="paint-order:normal"/>
   <path d="m182.25 129.14v2.9104h2.9104" style="paint-order:normal"/>
   <path d="m212.68 129.14v2.9104h-2.9104" style="paint-order:normal"/>
  </g>
  <rect x="182.78" y="118.03" width="29.369" height="13.494" fill="#1d232d" stroke="none"/>
  <g stroke-linecap="round" stroke-width=".26458">
   <g fill="#6f8ce9" stroke="none" aria-label="Entity">
    <path d="m192.24 123.24v2.3077h1.4076v-0.22966h-1.1594v-0.85566h0.96308v-0.23707h-0.96308v-0.75565h1.1668v-0.22966z"/>
    <path d="m194.13 125.54h0.27041v-0.9742c0-0.11112 0.0148-0.19632 0.0852-0.28892 0.063-0.0852 0.22596-0.23707 0.40376-0.23707 0.0852 0 0.17039 0.037 0.22966 0.10742 0.0926 0.11113 0.0926 0.25559 0.0926 0.37412v1.0186h0.263v-1.026c0-0.12965 0-0.27041-0.0593-0.40746-0.0852-0.18892-0.25929-0.29634-0.45191-0.29634-0.22966 0-0.43709 0.14817-0.56303 0.33708v-0.29633h-0.27041z"/>
    <path d="m196.43 123.4-0.0333 0.45561h-0.40375l-4e-3 0.21855h0.39635c-0.0222 0.28892-0.0333 0.57785-0.0333 0.86307 0 0.15187 0 0.32226 0.10001 0.46302 0.0815 0.11112 0.21114 0.1778 0.38524 0.1778 0.20002 0 0.39634-0.0852 0.54081-0.18891l-0.0815-0.21114c-0.14446 0.10742-0.27781 0.15557-0.38153 0.15557-0.12594 0-0.25558-0.0704-0.28522-0.2741 0-0.0148-0.0111-0.0778-0.0111-0.32597 0-0.21855 0.0111-0.4408 0.0333-0.65934h0.55562v-0.22225h-0.55192s0.0259-0.30375 0.0445-0.40005c4e-3 -0.037 0.0333-0.0593 0.0185-0.10002z"/>
    <path d="m197.97 123.85v0.21854h0.40746v1.2631h-0.42968v0.21114h1.0964v-0.21114h-0.39635v-1.4817zm0.54822-0.73343c-0.10742 0-0.19262 0.0852-0.19262 0.18891 0 0.10372 0.0852 0.18892 0.19262 0.18892s0.19262-0.0852 0.19262-0.18892c0-0.10371-0.0852-0.18891-0.19262-0.18891z"/>
    <path d="m200.13 123.4-0.0333 0.45561h-0.40375l-4e-3 0.21855h0.39635c-0.0222 0.28892-0.0333 0.57785-0.0333 0.86307 0 0.15187 0 0.32226 0.10001 0.46302 0.0815 0.11112 0.21114 0.1778 0.38524 0.1778 0.20002 0 0.39634-0.0852 0.54081-0.18891l-0.0815-0.21114c-0.14446 0.10742-0.27781 0.15557-0.38153 0.15557-0.12594 0-0.25558-0.0704-0.28522-0.2741 0-0.0148-0.0111-0.0778-0.0111-0.32597 0-0.21855 0.0111-0.4408 0.0333-0.65934h0.55562v-0.22225h-0.55192s0.0259-0.30375 0.0445-0.40005c4e-3 -0.037 0.0333-0.0593 0.0185-0.10002z"/>
    <path d="m201.45 123.85 0.68897 1.6854-0.0556 0.12223c-0.0296 0.0704-0.063 0.14076-0.11483 0.19633-0.0704 0.0778-0.15928 0.11112-0.23707 0.11112-0.12594 0-0.18891-0.0852-0.20002-0.10001-0.0111-0.0185-7e-3 -0.0444-0.0296-0.063l-0.13706 0.24077c0.0963 0.0926 0.22596 0.14076 0.36671 0.14076 0.15187 0 0.31115-0.0556 0.42228-0.18151 0.0741-0.0852 0.11112-0.17409 0.14817-0.2704l0.52599-1.3965c0.063-0.15928 0.11853-0.32227 0.17039-0.48895h-0.27781c-0.0296 0.15557-0.0778 0.30374-0.12965 0.4519l-0.32226 0.90753-0.49636-1.2483c-4e-3 -0.0111-4e-3 -0.0185-4e-3 -0.0296 0-0.0259 0.0185-0.0445 0.0148-0.0778z"/>
   </g>
   <path d="m184.5 164.99v11.112l4.1341 3.7042h21.001v-11.112l-4.1341-3.7042z" fill="#1d232d" stroke="#7b8694"/>
   <g fill="#7b8694" stroke="none" aria-label="System">
    <path d="m193.1 171.4c-0.15558-0.18891-0.38523-0.28892-0.63712-0.28892-0.41857 0-0.70379 0.27411-0.70379 0.59267 0 0.13335 0.0519 0.30744 0.24448 0.4482 0.21484 0.15928 0.54821 0.23707 0.72231 0.34819 0.15187 0.0926 0.19262 0.21484 0.19262 0.31856 0 0.20003-0.1704 0.41857-0.50377 0.41857-0.25189 0-0.44821-0.12594-0.55192-0.25559-0.0111-0.0148-0.0111-0.0222-0.0111-0.037 0-7e-3 0-0.0296-0.0148-0.037l-0.15558 0.2667c0.18151 0.19632 0.4408 0.29633 0.72602 0.29633 0.56303 0 0.77047-0.37782 0.77047-0.66675 0-0.12223-0.037-0.28151-0.18151-0.41857-0.20002-0.18891-0.52599-0.25558-0.73713-0.37782-0.19261-0.11483-0.23336-0.25189-0.23336-0.34449 0-0.1778 0.15187-0.33708 0.41487-0.33708 0.21484 0 0.38153 0.0963 0.47043 0.22595 0.0111 0.0148 7e-3 0.0222 7e-3 0.0371 0 0.0222 0.0111 0.0296 0.0185 0.0296z"/>
    <path d="m193.51 171.74 0.68898 1.6854-0.0556 0.12224c-0.0296 0.0704-0.063 0.14076-0.11483 0.19632-0.0704 0.0778-0.15928 0.11113-0.23707 0.11113-0.12594 0-0.18891-0.0852-0.20003-0.10001-0.0111-0.0185-7e-3 -0.0444-0.0296-0.063l-0.13705 0.24078c0.0963 0.0926 0.22595 0.14075 0.36671 0.14075 0.15187 0 0.31115-0.0556 0.42227-0.1815 0.0741-0.0852 0.11113-0.1741 0.14817-0.2704l0.52599-1.3965c0.063-0.15928 0.11854-0.32226 0.1704-0.48895h-0.27782c-0.0296 0.15558-0.0778 0.30375-0.12964 0.45191l-0.32227 0.90752-0.49635-1.2483c-4e-3 -0.0111-4e-3 -0.0185-4e-3 -0.0296 0-0.0259 0.0185-0.0445 0.0148-0.0778z"/>
    <path d="m196.8 171.97c-0.15557-0.17039-0.38153-0.263-0.63341-0.263-0.39264 0-0.64823 0.21855-0.64823 0.47043 0 0.29633 0.31856 0.40376 0.41116 0.43709 0.14446 0.0519 0.32967 0.0963 0.45561 0.15558 0.14076 0.0667 0.16669 0.15557 0.16669 0.21484 0 0.15928-0.19262 0.2667-0.43339 0.2667-0.28892 0-0.47413-0.1741-0.52969-0.23336-0.0111-0.0148-0.0111-0.0259-0.0111-0.0408 0-4e-3 4e-3 -0.0259-0.0148-0.0333l-0.15558 0.263c0.20003 0.18521 0.45932 0.2704 0.71491 0.2704 0.46302 0 0.70379-0.2741 0.70379-0.52969 0-0.11483-0.0481-0.27041-0.24818-0.38153-0.18891-0.10742-0.46302-0.14446-0.6223-0.22225-0.13705-0.0667-0.16669-0.14817-0.16669-0.20743 0-0.13335 0.16669-0.22966 0.3556-0.22966 0.24448 0 0.40746 0.14816 0.47043 0.23336 0.0111 0.0111 7e-3 0.0222 7e-3 0.0333 0 0.0222 0.0148 0.0296 0.0222 0.0296z"/>
    <path d="m197.75 171.29-0.0333 0.45562h-0.40375l-4e-3 0.21854h0.39635c-0.0222 0.28893-0.0333 0.57785-0.0333 0.86307 0 0.15188 0 0.32227 0.10001 0.46303 0.0815 0.11112 0.21114 0.1778 0.38524 0.1778 0.20002 0 0.39634-0.0852 0.54081-0.18892l-0.0815-0.21113c-0.14446 0.10742-0.27781 0.15557-0.38153 0.15557-0.12594 0-0.25558-0.0704-0.28522-0.27411 0-0.0148-0.0111-0.0778-0.0111-0.32596 0-0.21855 0.0111-0.4408 0.0333-0.65935h0.55562v-0.22225h-0.55192s0.0259-0.30374 0.0445-0.40005c4e-3 -0.037 0.0333-0.0593 0.0185-0.10001z"/>
    <path d="m199.86 171.7c-0.40376 0-0.77788 0.28893-0.77788 0.90382 0 0.56674 0.3519 0.86677 0.81121 0.86677 0.24448 0 0.46302-0.0889 0.60749-0.26299l-0.14817-0.14446c-0.10742 0.12594-0.2704 0.19261-0.43709 0.19261-0.22596 0-0.55563-0.12594-0.57415-0.63341h1.2002c0.0111-0.11483 7e-3 -0.22595-0.0111-0.32226-0.0778-0.45562-0.39264-0.60008-0.67045-0.60008zm-0.51118 0.71861c0.0556-0.40005 0.31115-0.51488 0.49265-0.51488 0.27411 0 0.47043 0.24077 0.4371 0.51488z"/>
    <path d="m200.89 173.43h0.24447v-1.1261c0-0.0815 7e-3 -0.15557 0.0556-0.24447 0.0593-0.11113 0.13335-0.15558 0.20373-0.15558 0.0593 0 0.12594 0.037 0.15557 0.12965 0.0222 0.0704 0.0185 0.15187 0.0185 0.22225v1.1742h0.24818v-1.1187c0-0.0889 7e-3 -0.15928 0.0704-0.2667 0.0296-0.0444 0.0926-0.15187 0.19632-0.15187 0.0556 0 0.10742 0.0333 0.13335 0.0963 0.0333 0.0704 0.0259 0.16668 0.0259 0.24447v1.2002h0.25188v-1.2038c0-0.14076 4e-3 -0.28152-0.0704-0.39635-0.063-0.0963-0.17039-0.13335-0.26299-0.13335-0.16298 0-0.31486 0.0963-0.38153 0.24448-0.0259-0.14076-0.14446-0.24448-0.29633-0.24448-0.14076 0-0.27041 0.0889-0.3482 0.20743l4e-3 -0.16668h-0.24818z"/>
   </g>
   <rect x="213.87" y="141.18" width="25.268" height="14.684" fill="#1d232d" stroke="#e9e56f"/>
   <g fill="#e9e56f" stroke="none" aria-label="Component">
    <path d="m219.38 147.03c-0.35931 0-0.87789 0.263-0.87789 1.189 0 0.889 0.49636 1.1779 0.87789 1.1779 0.27411 0 0.52969-0.14447 0.67416-0.38153l-0.18892-0.12224c-0.10742 0.1741-0.29262 0.27781-0.47042 0.27781-0.34079 0-0.64083-0.35189-0.64083-0.9779 0-0.61119 0.29263-0.95567 0.6186-0.95567 0.1778 0 0.34819 0.10742 0.4408 0.2704 7e-3 0.0111 0.0148 0.0222 0.0148 0.037 0 0.0111-4e-3 0.0185-4e-3 0.0296 0 4e-3 0 0.0222 0.0185 0.0333l0.24448-0.11853c-0.12224-0.27781-0.40006-0.45932-0.7075-0.45932z"/>
    <path d="m221.91 148.52c0-0.58526-0.37042-0.889-0.75565-0.889-0.42969 0-0.8001 0.37042-0.8001 0.89641 0 0.51488 0.36671 0.87789 0.79269 0.87789 0.40005 0 0.76306-0.32227 0.76306-0.8853zm-0.77417-0.66305c0.24447 0 0.50376 0.21114 0.50376 0.67416 0 0.42598-0.24447 0.64082-0.48895 0.64082-0.2704 0-0.51488-0.25188-0.51488-0.67045 0-0.41487 0.24077-0.64453 0.50007-0.64453z"/>
    <path d="m222.19 149.36h0.24447v-1.1261c0-0.0815 7e-3 -0.15557 0.0556-0.24447 0.0593-0.11113 0.13335-0.15558 0.20372-0.15558 0.0593 0 0.12595 0.0371 0.15558 0.12965 0.0222 0.0704 0.0185 0.15187 0.0185 0.22225v1.1742h0.24818v-1.1187c0-0.0889 7e-3 -0.15928 0.0704-0.2667 0.0296-0.0444 0.0926-0.15187 0.19632-0.15187 0.0556 0 0.10742 0.0333 0.13335 0.0963 0.0333 0.0704 0.0259 0.16669 0.0259 0.24447v1.2002h0.25188v-1.2039c0-0.14076 4e-3 -0.28152-0.0704-0.39635-0.063-0.0963-0.17039-0.13335-0.26299-0.13335-0.16299 0-0.31486 0.0963-0.38153 0.24448-0.0259-0.14076-0.14446-0.24448-0.29634-0.24448-0.14075 0-0.2704 0.0889-0.34819 0.20744l4e-3 -0.16669h-0.24818z"/>
    <path d="m224.13 147.67 4e-3 2.3077h0.2704v-0.84085c0.11483 0.16669 0.30374 0.27041 0.50747 0.27041 0.3482 0 0.7112-0.29263 0.7112-0.91123 0-0.59637-0.35189-0.86307-0.68527-0.86307-0.21854 0-0.42227 0.11112-0.5371 0.29633v-0.25929zm0.7075 0.18891c0.14817 0 0.50747 0.0778 0.50747 0.69268 0 0.5334-0.34819 0.6186-0.50747 0.6186s-0.32226-0.0815-0.38894-0.23336c-0.0482-0.11483-0.0482-0.25559-0.0482-0.50007 0-0.14076 7e-3 -0.24447 0.0445-0.33337 0.0667-0.15187 0.22225-0.24448 0.39264-0.24448z"/>
    <path d="m227.46 148.52c0-0.58526-0.37042-0.889-0.75565-0.889-0.42968 0-0.8001 0.37042-0.8001 0.89641 0 0.51488 0.36671 0.87789 0.79269 0.87789 0.40005 0 0.76306-0.32227 0.76306-0.8853zm-0.77417-0.66305c0.24448 0 0.50377 0.21114 0.50377 0.67416 0 0.42598-0.24448 0.64082-0.48895 0.64082-0.27041 0-0.51488-0.25188-0.51488-0.67045 0-0.41487 0.24077-0.64453 0.50006-0.64453z"/>
    <path d="m227.86 149.36h0.27041v-0.9742c0-0.11112 0.0148-0.19632 0.0852-0.28892 0.063-0.0852 0.22596-0.23707 0.40376-0.23707 0.0852 0 0.17039 0.037 0.22966 0.10742 0.0926 0.11113 0.0926 0.25559 0.0926 0.37412v1.0186h0.263v-1.026c0-0.12965 0-0.27041-0.0593-0.40746-0.0852-0.18892-0.25929-0.29634-0.45191-0.29634-0.22966 0-0.43709 0.14817-0.56303 0.33708v-0.29633h-0.27041z"/>
    <path d="m230.42 147.63c-0.40376 0-0.77788 0.28893-0.77788 0.90382 0 0.56674 0.3519 0.86678 0.81122 0.86678 0.24447 0 0.46302-0.0889 0.60748-0.263l-0.14817-0.14446c-0.10742 0.12594-0.2704 0.19262-0.43709 0.19262-0.22595 0-0.55562-0.12595-0.57414-0.63342h1.2002c0.0111-0.11483 7e-3 -0.22595-0.0111-0.32226-0.0778-0.45561-0.39264-0.60008-0.67045-0.60008zm-0.51118 0.71861c0.0556-0.40005 0.31115-0.51488 0.49266-0.51488 0.27411 0 0.47043 0.24077 0.43709 0.51488z"/>
    <path d="m231.57 149.36h0.27041v-0.9742c0-0.11112 0.0148-0.19632 0.0852-0.28892 0.063-0.0852 0.22596-0.23707 0.40376-0.23707 0.0852 0 0.17039 0.037 0.22966 0.10742 0.0926 0.11113 0.0926 0.25559 0.0926 0.37412v1.0186h0.263v-1.026c0-0.12965 0-0.27041-0.0593-0.40746-0.0852-0.18892-0.25929-0.29634-0.45191-0.29634-0.22966 0-0.43709 0.14817-0.56303 0.33708v-0.29633h-0.27041z"/>
    <path d="m233.86 147.21-0.0333 0.45561h-0.40375l-4e-3 0.21855h0.39635c-0.0222 0.28892-0.0333 0.57785-0.0333 0.86307 0 0.15187 0 0.32226 0.10001 0.46302 0.0815 0.11112 0.21114 0.1778 0.38524 0.1778 0.20002 0 0.39634-0.0852 0.5408-0.18891l-0.0815-0.21114c-0.14446 0.10742-0.27781 0.15557-0.38153 0.15557-0.12594 0-0.25558-0.0704-0.28522-0.2741 0-0.0148-0.0111-0.0778-0.0111-0.32597 0-0.21855 0.0111-0.4408 0.0333-0.65934h0.55562v-0.22225h-0.55192s0.0259-0.30375 0.0444-0.40005c4e-3 -0.0371 0.0333-0.0593 0.0185-0.10002z"/>
   </g>
   <path d="m155.79 141.31v14.552h25.135v-10.848l-4.1341-3.7042z" fill="#1d232d" stroke="#ff867f"/>
  </g>
  <path d="m177.66 141.17 3.4106 2.9476v-2.9476h-2.0381z" fill="#ff867f" stroke="none"/>
  <g fill="#ff867f" stroke="none" stroke-linecap="round" aria-label="Attribute">
   <path d="m160.19 149.36h0.25559l0.22596-0.67787h0.72972l0.25558 0.67416h0.27041l-0.89271-2.3484h-0.0296zm1.1557-0.87789h-0.626l0.30004-0.87789z"/>
   <path d="m162.69 147.21-0.0333 0.45561h-0.40376l-4e-3 0.21855h0.39634c-0.0222 0.28892-0.0333 0.57785-0.0333 0.86307 0 0.15187 0 0.32226 0.10001 0.46302 0.0815 0.11112 0.21114 0.1778 0.38523 0.1778 0.20003 0 0.39635-0.0852 0.54081-0.18891l-0.0815-0.21114c-0.14446 0.10742-0.27781 0.15557-0.38153 0.15557-0.12594 0-0.25559-0.0704-0.28522-0.2741 0-0.0148-0.0111-0.0778-0.0111-0.32597 0-0.21855 0.0111-0.4408 0.0333-0.65934h0.55563v-0.22225h-0.55192s0.0259-0.30375 0.0445-0.40005c4e-3 -0.0371 0.0333-0.0593 0.0185-0.10002z"/>
   <path d="m164.54 147.21-0.0333 0.45561h-0.40375l-4e-3 0.21855h0.39635c-0.0222 0.28892-0.0333 0.57785-0.0333 0.86307 0 0.15187 0 0.32226 0.10001 0.46302 0.0815 0.11112 0.21114 0.1778 0.38524 0.1778 0.20002 0 0.39634-0.0852 0.54081-0.18891l-0.0815-0.21114c-0.14446 0.10742-0.27781 0.15557-0.38152 0.15557-0.12595 0-0.25559-0.0704-0.28523-0.2741 0-0.0148-0.0111-0.0778-0.0111-0.32597 0-0.21855 0.0111-0.4408 0.0333-0.65934h0.55562v-0.22225h-0.55192s0.0259-0.30375 0.0445-0.40005c4e-3 -0.0371 0.0333-0.0593 0.0185-0.10002z"/>
   <path d="m166.07 147.67v1.6928h0.2667v-0.82233c0-0.10372 4e-3 -0.21484 0.11854-0.39635 0.15557-0.24447 0.3556-0.28522 0.47783-0.28522 0.14076 0 0.22966 0.0667 0.27782 0.12594 0.0222 0.0296 0.0333 0.0593 0.063 0.0852l0.12594-0.25559c-0.10742-0.11112-0.263-0.18521-0.45191-0.18521-0.24818 0-0.50006 0.12595-0.61119 0.36672l0.0111-0.32597z"/>
   <path d="m167.94 147.66v0.21854h0.40746v1.2631h-0.42969v0.21114h1.0964v-0.21114h-0.39635v-1.4817zm0.54821-0.73343c-0.10742 0-0.19261 0.0852-0.19261 0.18891 0 0.10372 0.0852 0.18892 0.19261 0.18892 0.10743 0 0.19262-0.0852 0.19262-0.18892 0-0.10371-0.0852-0.18891-0.19262-0.18891z"/>
   <path d="m169.62 146.89v2.4633h0.17409l0.0926-0.22225c0.11112 0.16669 0.29633 0.2667 0.50006 0.2667 0.34819 0 0.7075-0.29633 0.7075-0.91122 0-0.58897-0.3482-0.86308-0.68157-0.86308-0.21484 0-0.41487 0.11483-0.52229 0.30004v-0.94827c0-0.0222 4e-3 -0.0296 0.0222-0.0445 7e-3 -4e-3 0.0259-0.0185 0.0222-0.0407zm0.70008 0.96308c0.15928 0 0.49636 0.0926 0.49636 0.69268 0 0.51488-0.33337 0.61119-0.50006 0.61119-0.11483 0-0.37042-0.0444-0.41487-0.37042-0.0111-0.0852-0.0111-0.18521-0.0111-0.33337 0-0.15187 7e-3 -0.263 0.0444-0.3556 0.063-0.15187 0.21855-0.24448 0.38523-0.24448z"/>
   <path d="m171.48 147.67v0.94456c0 0.14447 0 0.29263 0.0667 0.4445 0.0963 0.22225 0.30374 0.34449 0.52599 0.34449 0.21114 0 0.41116-0.11483 0.52229-0.30004l-4e-3 0.12595c0 0.0445 0 0.0889 7e-3 0.12964h0.28152c-0.0185-0.0482-0.0222-0.10372-0.0222-0.15187v-1.5372h-0.2667v0.92975c0 0.12964-0.0111 0.22966-0.0667 0.33337-0.0778 0.14446-0.22966 0.25189-0.39264 0.25189-0.12965 0-0.25559-0.0741-0.32227-0.20744-0.0593-0.11853-0.0593-0.25188-0.0593-0.36301v-0.94456z"/>
   <path d="m173.8 147.21-0.0333 0.45561h-0.40376l-4e-3 0.21855h0.39634c-0.0222 0.28892-0.0333 0.57785-0.0333 0.86307 0 0.15187 0 0.32226 0.10001 0.46302 0.0815 0.11112 0.21114 0.1778 0.38523 0.1778 0.20003 0 0.39635-0.0852 0.54081-0.18891l-0.0815-0.21114c-0.14446 0.10742-0.27781 0.15557-0.38153 0.15557-0.12594 0-0.25559-0.0704-0.28522-0.2741 0-0.0148-0.0111-0.0778-0.0111-0.32597 0-0.21855 0.0111-0.4408 0.0333-0.65934h0.55563v-0.22225h-0.55192s0.0259-0.30375 0.0445-0.40005c4e-3 -0.0371 0.0333-0.0593 0.0185-0.10002z"/>
   <path d="m175.91 147.63c-0.40375 0-0.77787 0.28893-0.77787 0.90382 0 0.56674 0.35189 0.86678 0.81121 0.86678 0.24447 0 0.46302-0.0889 0.60748-0.263l-0.14816-0.14446c-0.10743 0.12594-0.27041 0.19262-0.4371 0.19262-0.22595 0-0.55562-0.12595-0.57414-0.63342h1.2002c0.0111-0.11483 7e-3 -0.22595-0.0111-0.32226-0.0778-0.45561-0.39265-0.60008-0.67046-0.60008zm-0.51117 0.71861c0.0556-0.40005 0.31115-0.51488 0.49265-0.51488 0.27411 0 0.47043 0.24077 0.43709 0.51488z"/>
  </g>
  <g stroke="#47d58a" stroke-linecap="round" stroke-width=".26458">
   <path d="m184.45 124.32-16.753 16.753" fill="none"/>
   <rect transform="scale(-1,1)" x="-184.74" y="124.03" width="2.1167" height="2.1167" fill="#47d58a"/>
   <path d="m210.32 124.32 16.753 16.753" fill="none"/>
  </g>
  <g stroke-linecap="round" stroke-width=".26458">
   <rect x="210.03" y="124.03" width="2.1167" height="2.1167" fill="#47d58a" stroke="#47d58a"/>
   <g fill="#e8eaec" stroke="#cf2f25" aria-label="*">
    <path d="m171.38 138.98 0.0476 0.56198-0.51117-0.2413-0.0825 0.20637 0.54927 0.1651-0.41592 0.47625 0.17462 0.1397 0.3556-0.52705 0.3429 0.52388 0.17145-0.13653-0.40005-0.47942 0.5461-0.16193-0.0857-0.19685-0.50483 0.23178 0.0508-0.47625c3e-3 -0.0413 0.0127-0.0476 0.019-0.0857z" fill="#e8eaec" stroke="none"/>
   </g>
   <g fill="#e8eaec" stroke="#cf2f25" aria-label="*">
    <path d="m229.59 138.98 0.0476 0.56198-0.51117-0.2413-0.0825 0.20637 0.54927 0.1651-0.41592 0.47625 0.17462 0.1397 0.3556-0.52705 0.3429 0.52388 0.17145-0.13653-0.40005-0.47942 0.5461-0.16193-0.0857-0.19685-0.50483 0.23178 0.0508-0.47625c3e-3 -0.0413 0.0127-0.0476 0.019-0.0857z" fill="#e8eaec" stroke="none"/>
   </g>
  </g>
 </g>
</svg>
