<svg width="496" height="349" version="1.1" viewBox="0 0 131.23 92.342" xmlns="http://www.w3.org/2000/svg">
 <g transform="matrix(.20919 0 0 .20943 58.864 37.471)" fill="#a0f1c6" stroke="#009244" stroke-dashoffset="1.2" stroke-linecap="round" stroke-width="1.2641" aria-label="00010 01101 01101">
  <path d="m-261-178.28-19.763 17.687v63.169l19.763 17.687h156.53l19.763-17.687v-63.169l-19.763-17.687z" fill="#1d232d" stroke="#009244"/>
  <g transform="scale(1.0006 .99942)" fill="#e9e56f" stroke="none" aria-label="press announcement dev starts">
   <path d="m-248.89-136.25c0.68262 0.53093 1.3652 0.84948 2.0479 0.84948 1.6838 0 3.1856-1.4714 3.1856-3.9744 0-2.2906-1.0164-3.762-2.9125-3.762-0.86465 0-1.6838 0.47025-2.3512 1.0315h-0.0455l-0.10619-0.84948h-1.0315v10.482h1.2439v-2.4878zm0.0303-0.97084v-3.8682c0.72813-0.65228 1.3501-1.0012 1.972-1.0012 1.3956 0 1.9417 1.0922 1.9417 2.7153 0 1.8203-0.89499 2.9277-2.1085 2.9277-0.48541 0-1.1377-0.21237-1.8052-0.77364z"/>
   <path d="m-241.68-135.58h1.2439v-4.7328c0.50059-1.2439 1.2439-1.699 1.8658-1.699 0.30339 0 0.47025 0.0455 0.71296 0.12136l0.24271-1.0922c-0.24271-0.10619-0.47025-0.1517-0.7888-0.1517-0.83432 0-1.5928 0.59161-2.0934 1.5169h-0.0455l-0.10619-1.3349h-1.0315z"/>
   <path d="m-237.11-139.25c0 2.4119 1.5624 3.853 3.5344 3.853 1.0012 0 1.79-0.34889 2.4271-0.75846l-0.43991-0.81915c-0.5461 0.3489-1.1377 0.57644-1.8355 0.57644-1.4108 0-2.3664-1.0012-2.4574-2.594h4.9756c0.0303-0.18203 0.0455-0.42474 0.0455-0.68262 0-2.1085-1.0618-3.4586-2.9428-3.4586-1.6838 0-3.3069 1.4714-3.3069 3.8834zm1.2136-0.56126c0.15169-1.4866 1.0922-2.3361 2.1237-2.3361 1.1529 0 1.8203 0.83431 1.8203 2.3361z"/>
   <path d="m-229.85-136.42c0.69779 0.57643 1.699 1.0163 2.7456 1.0163 1.7445 0 2.7001-1.0012 2.7001-2.1996 0-1.3956-1.1832-1.8355-2.2451-2.2299-0.83431-0.31856-1.6383-0.59161-1.6383-1.2742 0-0.56126 0.42475-1.0618 1.3501-1.0618 0.65228 0 1.1832 0.27305 1.6838 0.65228l0.59161-0.7888c-0.56127-0.45508-1.3652-0.83432-2.2906-0.83432-1.5928 0-2.5333 0.91016-2.5333 2.0934 0 1.2439 1.1529 1.7445 2.1996 2.1237 0.80398 0.30339 1.6838 0.63711 1.6838 1.3956 0 0.63711-0.48542 1.1529-1.4563 1.1529-0.87982 0-1.5321-0.36407-2.1692-0.87982z"/>
   <path d="m-223.48-136.42c0.69779 0.57643 1.699 1.0163 2.7456 1.0163 1.7445 0 2.7001-1.0012 2.7001-2.1996 0-1.3956-1.1832-1.8355-2.2451-2.2299-0.83431-0.31856-1.6383-0.59161-1.6383-1.2742 0-0.56126 0.42474-1.0618 1.3501-1.0618 0.65228 0 1.1832 0.27305 1.6838 0.65228l0.5916-0.7888c-0.56126-0.45508-1.3652-0.83432-2.2906-0.83432-1.5928 0-2.5333 0.91016-2.5333 2.0934 0 1.2439 1.1529 1.7445 2.1996 2.1237 0.80397 0.30339 1.6838 0.63711 1.6838 1.3956 0 0.63711-0.48542 1.1529-1.4562 1.1529-0.87982 0-1.5321-0.36407-2.1692-0.87982z"/>
   <path d="m-213.61-137.5c0 1.3197 0.92533 2.0934 2.1692 2.0934 0.91016 0 1.7293-0.48541 2.4423-1.0618h0.0303l0.10619 0.87982h1.0315v-4.5205c0-1.8355-0.75846-3.0339-2.5636-3.0339-1.1832 0-2.2147 0.51576-2.8974 0.95567l0.50059 0.86465c0.57644-0.3944 1.3349-0.7888 2.1996-0.7888 1.1984 0 1.5169 0.91016 1.5169 1.8507-3.14 0.34889-4.5356 1.1529-4.5356 2.7608zm1.2287-0.091c0-0.9405 0.83432-1.5473 3.3069-1.8507v2.0479c-0.71296 0.63711-1.3046 0.98601-2.0175 0.98601-0.72813 0-1.2894-0.3489-1.2894-1.1832z"/>
   <path d="m-205.48-135.58h1.2439v-5.3396c0.7433-0.7433 1.2591-1.1377 2.0175-1.1377 0.97084 0 1.3956 0.5916 1.3956 1.972v4.5053h1.2439v-4.6722c0-1.881-0.69779-2.8822-2.2451-2.8822-1.0164 0-1.7748 0.5461-2.4726 1.2439h-0.0455l-0.10619-1.0618h-1.0315z"/>
   <path d="m-197.18-135.58h1.2439v-5.3396c0.7433-0.7433 1.2591-1.1377 2.0175-1.1377 0.97084 0 1.3956 0.5916 1.3956 1.972v4.5053h1.2439v-4.6722c0-1.881-0.69779-2.8822-2.2451-2.8822-1.0164 0-1.7748 0.5461-2.4726 1.2439h-0.0455l-0.10619-1.0618h-1.0315z"/>
   <path d="m-189.43-139.25c0 2.4423 1.608 3.853 3.4131 3.853s3.4131-1.4107 3.4131-3.853c0-2.4726-1.608-3.8834-3.4131-3.8834s-3.4131 1.4108-3.4131 3.8834zm1.2894 0c0-1.699 0.86465-2.8518 2.1237-2.8518 1.2742 0 2.1237 1.1529 2.1237 2.8518 0 1.6838-0.84948 2.8215-2.1237 2.8215-1.259 0-2.1237-1.1377-2.1237-2.8215z"/>
   <path d="m-180.76-138.28c0 1.881 0.69779 2.8822 2.2602 2.8822 1.0163 0 1.7445-0.53092 2.4271-1.3349h0.0455l0.10618 1.1529h1.0315v-7.3723h-1.2439v5.2334c-0.69779 0.86465-1.2287 1.2439-1.9872 1.2439-0.97084 0-1.3804-0.5916-1.3804-1.972v-4.5053h-1.259z"/>
   <path d="m-172.39-135.58h1.2439v-5.3396c0.7433-0.7433 1.2591-1.1377 2.0175-1.1377 0.97084 0 1.3956 0.5916 1.3956 1.972v4.5053h1.2439v-4.6722c0-1.881-0.69779-2.8822-2.2451-2.8822-1.0164 0-1.7748 0.5461-2.4726 1.2439h-0.0455l-0.10619-1.0618h-1.0315z"/>
   <path d="m-164.64-139.25c0 2.4423 1.5018 3.853 3.4586 3.853 0.87982 0 1.7293-0.36406 2.3968-0.95566l-0.56126-0.81915c-0.43991 0.3944-1.0315 0.7433-1.7293 0.7433-1.3501 0-2.2754-1.1377-2.2754-2.8215 0-1.699 0.97084-2.8518 2.3057-2.8518 0.59161 0 1.0467 0.27305 1.4866 0.65228l0.62194-0.80398c-0.50059-0.47024-1.1832-0.87982-2.154-0.87982-1.8962 0-3.5496 1.4108-3.5496 3.8834z"/>
   <path d="m-158.06-139.25c0 2.4119 1.5624 3.853 3.5344 3.853 1.0012 0 1.79-0.34889 2.4271-0.75846l-0.43991-0.81915c-0.54609 0.3489-1.1377 0.57644-1.8355 0.57644-1.4107 0-2.3664-1.0012-2.4574-2.594h4.9755c0.0303-0.18203 0.0455-0.42474 0.0455-0.68262 0-2.1085-1.0618-3.4586-2.9428-3.4586-1.6838 0-3.3069 1.4714-3.3069 3.8834zm1.2135-0.56126c0.1517-1.4866 1.0922-2.3361 2.1237-2.3361 1.1529 0 1.8203 0.83431 1.8203 2.3361z"/>
   <path d="m-149.99-135.58h1.2439v-5.3396c0.68262-0.75847 1.3046-1.1377 1.8507-1.1377 0.9405 0 1.3804 0.5916 1.3804 1.972v4.5053h1.2439v-5.3396c0.68262-0.75847 1.2742-1.1377 1.8507-1.1377 0.92533 0 1.3652 0.5916 1.3652 1.972v4.5053h1.2439v-4.6722c0-1.881-0.72813-2.8822-2.2451-2.8822-0.89499 0-1.6535 0.57644-2.4271 1.4108-0.30338-0.87982-0.91016-1.4108-2.0327-1.4108-0.87982 0-1.6535 0.5461-2.2906 1.2439h-0.0455l-0.10618-1.0618h-1.0315z"/>
   <path d="m-137.97-139.25c0 2.4119 1.5624 3.853 3.5344 3.853 1.0012 0 1.79-0.34889 2.4271-0.75846l-0.43991-0.81915c-0.5461 0.3489-1.1377 0.57644-1.8355 0.57644-1.4108 0-2.3664-1.0012-2.4574-2.594h4.9755c0.0303-0.18203 0.0455-0.42474 0.0455-0.68262 0-2.1085-1.0619-3.4586-2.9429-3.4586-1.6838 0-3.3069 1.4714-3.3069 3.8834zm1.2136-0.56126c0.15169-1.4866 1.0922-2.3361 2.1237-2.3361 1.1529 0 1.8203 0.83431 1.8203 2.3361z"/>
   <path d="m-129.9-135.58h1.2439v-5.3396c0.7433-0.7433 1.2591-1.1377 2.0175-1.1377 0.97083 0 1.3956 0.5916 1.3956 1.972v4.5053h1.2439v-4.6722c0-1.881-0.69779-2.8822-2.2451-2.8822-1.0164 0-1.7748 0.5461-2.4726 1.2439h-0.0455l-0.10619-1.0618h-1.0315z"/>
   <path d="m-121.39-137.86c0 1.4563 0.53093 2.4574 2.1085 2.4574 0.45508 0 0.95567-0.13652 1.3652-0.27304l-0.24271-0.9405c-0.24271 0.091-0.57643 0.1972-0.83431 0.1972-0.84948 0-1.1377-0.51576-1.1377-1.4259v-4.0957h1.9872v-1.0163h-1.9872v-2.063h-1.0467l-0.15169 2.063-1.1529 0.0758v0.9405h1.0922z"/>
   <path d="m-214.78-117.13c0 2.4574 1.1984 3.853 3.049 3.853 0.86466 0 1.6535-0.48542 2.2299-1.0467h0.0455l0.10619 0.86465h1.0315v-10.801h-1.259v2.8367l0.0607 1.259c-0.65228-0.53092-1.2136-0.84948-2.063-0.84948-1.6838 0-3.2007 1.4866-3.2007 3.8834zm1.2894-0.0152c0-1.6838 0.9405-2.8215 2.1237-2.8215 0.60677 0 1.168 0.21238 1.79 0.77364v3.853c-0.60677 0.68262-1.1984 1.0164-1.881 1.0164-1.2894 0-2.0327-1.0619-2.0327-2.8215z"/>
   <path d="m-206.38-117.13c0 2.4119 1.5624 3.853 3.5344 3.853 1.0012 0 1.79-0.34889 2.4271-0.75847l-0.43991-0.81914c-0.5461 0.3489-1.1377 0.57644-1.8355 0.57644-1.4108 0-2.3664-1.0012-2.4574-2.594h4.9756c0.0303-0.18203 0.0455-0.42474 0.0455-0.68262 0-2.1085-1.0618-3.4586-2.9428-3.4586-1.6838 0-3.3069 1.4714-3.3069 3.8834zm1.2136-0.56127c0.15169-1.4866 1.0922-2.3361 2.1237-2.3361 1.1529 0 1.8203 0.83431 1.8203 2.3361z"/>
   <path d="m-196.63-113.46h1.4563l2.6091-7.3723h-1.2287l-1.3956 4.1867c-0.21237 0.72813-0.45508 1.4714-0.66745 2.1692h-0.0607c-0.22754-0.69779-0.47025-1.4411-0.68262-2.1692l-1.3956-4.1867h-1.2894z"/>
   <path d="m-188.91-114.3c0.69779 0.57643 1.699 1.0163 2.7456 1.0163 1.7445 0 2.7001-1.0012 2.7001-2.1996 0-1.3956-1.1832-1.8355-2.2451-2.2299-0.83432-0.31856-1.6383-0.59161-1.6383-1.2742 0-0.56126 0.42474-1.0618 1.3501-1.0618 0.65228 0 1.1832 0.27305 1.6838 0.65228l0.5916-0.78881c-0.56126-0.45508-1.3652-0.83431-2.2906-0.83431-1.5928 0-2.5333 0.91016-2.5333 2.0934 0 1.2439 1.1529 1.7445 2.1996 2.1237 0.80397 0.30338 1.6838 0.63711 1.6838 1.3956 0 0.63712-0.48542 1.1529-1.4562 1.1529-0.87983 0-1.5321-0.36406-2.1692-0.87982z"/>
   <path d="m-181.51-115.74c0 1.4563 0.53092 2.4574 2.1085 2.4574 0.45508 0 0.95567-0.13652 1.3652-0.27305l-0.24271-0.9405c-0.24271 0.091-0.57644 0.19721-0.83432 0.19721-0.84948 0-1.1377-0.51576-1.1377-1.4259v-4.0957h1.9872v-1.0164h-1.9872v-2.063h-1.0467l-0.1517 2.063-1.1529 0.0759v0.9405h1.0922z"/>
   <path d="m-177.22-115.37c0 1.3197 0.92533 2.0934 2.1692 2.0934 0.91016 0 1.7293-0.48542 2.4423-1.0618h0.0303l0.10618 0.87982h1.0315v-4.5205c0-1.8355-0.75847-3.0339-2.5636-3.0339-1.1832 0-2.2147 0.51576-2.8973 0.95567l0.50059 0.86465c0.57643-0.3944 1.3349-0.7888 2.1996-0.7888 1.1984 0 1.5169 0.91016 1.5169 1.8506-3.14 0.3489-4.5356 1.1529-4.5356 2.7608zm1.2287-0.091c0-0.9405 0.83431-1.5473 3.3069-1.8507v2.0479c-0.71296 0.63711-1.3046 0.98601-2.0175 0.98601-0.72813 0-1.2894-0.3489-1.2894-1.1832z"/>
   <path d="m-169.1-113.46h1.2439v-4.7328c0.50059-1.2439 1.2439-1.699 1.8658-1.699 0.30339 0 0.47025 0.0455 0.71296 0.12136l0.24271-1.0922c-0.24271-0.10618-0.47025-0.15169-0.78881-0.15169-0.83431 0-1.5928 0.5916-2.0934 1.5169h-0.0455l-0.10619-1.3349h-1.0315z"/>
   <path d="m-163.61-115.74c0 1.4563 0.53093 2.4574 2.1085 2.4574 0.45508 0 0.95567-0.13652 1.3652-0.27305l-0.24271-0.9405c-0.24271 0.091-0.57643 0.19721-0.83431 0.19721-0.84948 0-1.1377-0.51576-1.1377-1.4259v-4.0957h1.9872v-1.0164h-1.9872v-2.063h-1.0467l-0.15169 2.063-1.1529 0.0759v0.9405h1.0922z"/>
   <path d="m-159.52-114.3c0.69778 0.57643 1.699 1.0163 2.7456 1.0163 1.7445 0 2.7002-1.0012 2.7002-2.1996 0-1.3956-1.1832-1.8355-2.2451-2.2299-0.83431-0.31856-1.6383-0.59161-1.6383-1.2742 0-0.56126 0.42474-1.0618 1.3501-1.0618 0.65228 0 1.1832 0.27305 1.6838 0.65228l0.59161-0.78881c-0.56127-0.45508-1.3652-0.83431-2.2906-0.83431-1.5928 0-2.5333 0.91016-2.5333 2.0934 0 1.2439 1.1529 1.7445 2.1996 2.1237 0.80398 0.30338 1.6838 0.63711 1.6838 1.3956 0 0.63712-0.48542 1.1529-1.4563 1.1529-0.87982 0-1.5321-0.36406-2.1692-0.87982z"/>
  </g>
  <g transform="scale(1.0006 .99942)" fill="#47d58a" stroke="none" aria-label="JAN">
   <path d="m-198.19-160.67c0.79639 1.3981 1.9644 2.0883 3.7342 2.0883 2.5484 0 3.6988-1.8228 3.6988-4.0527v-7.6984h-2.6192v7.4861c0 1.5397-0.49553 2.0175-1.4335 2.0175-0.58402 0-1.168-0.37165-1.6105-1.1503z"/>
   <path d="m-185.7-163.57 0.28317-1.0618c0.31855-1.1503 0.63711-2.4954 0.90257-3.7165h0.0708c0.31856 1.2034 0.61942 2.5662 0.93797 3.7165l0.28316 1.0618zm3.7165 4.7783h2.7608l-3.628-11.539h-3.1148l-3.628 11.539h2.6546l0.7079-2.7431h3.5395z"/>
   <path d="m-178.03-158.79h2.4954v-4.0881c0-1.3627-0.21237-2.9024-0.33625-4.1766h0.0708l1.1326 2.513 3.0086 5.7517h2.6723v-11.539h-2.4777v4.0704c0 1.3627 0.21237 2.9909 0.33625 4.212h-0.0708l-1.1503-2.5484-3.0086-5.734h-2.6723z"/>
  </g>
  <path d="m-45.975-178.28-19.763 17.687v63.169l19.763 17.687h156.53l19.763-17.687v-63.169l-19.763-17.687z" fill="#1d232d" stroke="#009244"/>
  <g transform="scale(1.0006 .99942)" fill="#47d58a" stroke="none" aria-label="FEB">
   <path d="m18.395-158.79h2.6192v-4.4775h3.982v-2.1945h-3.982v-2.6723h4.6722v-2.1945h-7.2914z"/>
   <path d="m27.658-158.79h7.4153v-2.1945h-4.796v-2.6546h3.9289v-2.1768h-3.9289v-2.3184h4.6191v-2.1945h-7.2383z"/>
   <path d="m37.337-158.79h4.2828c2.5131 0 4.4952-1.0442 4.4952-3.3979 0-1.5397-0.86718-2.4069-2.5131-2.7077v-0.0708c1.345-0.35395 1.9467-1.4689 1.9467-2.4954 0-2.2122-1.8582-2.867-4.2651-2.867h-3.9466zm2.6192-6.8844v-2.6369h1.2388c1.2034 0 1.8052 0.35396 1.8052 1.2211s-0.56632 1.4158-1.8405 1.4158zm0 4.8668v-3.0263h1.4512c1.4335 0 2.1591 0.44244 2.1591 1.4512 0 1.0442-0.7433 1.5751-2.1591 1.5751z"/>
  </g>
  <path d="m169.05-178.28-19.763 17.687v63.169l19.763 17.687h156.53l19.763-17.687v-63.169l-19.763-17.687z" fill="#1d232d" stroke="#009244"/>
  <g transform="scale(1.0006 .99942)" fill="#47d58a" stroke="none" aria-label="MAR">
   <path d="m230.87-158.79h2.4069v-4.2297c0-1.1326-0.21237-2.8139-0.33626-3.9288h0.0708l0.92028 2.6723 1.7698 4.4775h1.0442l1.7874-4.4775 0.93797-2.6723h0.0708c-0.12388 1.1149-0.33625 2.7962-0.33625 3.9288v4.2297h2.4423v-11.539h-2.7608l-1.8759 5.1854-0.6902 2.0175h-0.0708l-0.69021-2.0175-1.929-5.1854h-2.7608z"/>
   <path d="m246.78-163.57 0.28316-1.0618c0.31855-1.1503 0.63711-2.4954 0.90257-3.7165h0.0708c0.31856 1.2034 0.61942 2.5662 0.93797 3.7165l0.28316 1.0618zm3.7165 4.7783h2.7608l-3.628-11.539h-3.1148l-3.628 11.539h2.6546l0.7079-2.7431h3.5395z"/>
   <path d="m257.07-168.26h1.3273c1.3627 0 2.106 0.38934 2.106 1.522 0 1.1326-0.74329 1.7167-2.106 1.7167h-1.3273zm6.5481 9.4682-2.6015-4.6191c1.2211-0.54863 2.0529-1.6282 2.0529-3.3271 0-2.7431-2.0175-3.5926-4.4598-3.5926h-4.1589v11.539h2.6192v-4.1589h1.4158l2.2122 4.1589z"/>
  </g>
  <path d="m-261-64.58-19.763 17.687v63.169l19.763 17.687h156.53l19.763-17.687v-63.169l-19.763-17.687z" fill="#1d232d" stroke="#009244"/>
  <g transform="scale(1.0006 .99942)" fill="#47d58a" stroke="none" aria-label="APR">
   <path d="m-195.12-49.803 0.28317-1.0619c0.31855-1.1503 0.63711-2.4954 0.90257-3.7165h0.0708c0.31856 1.2034 0.61942 2.5661 0.93797 3.7165l0.28316 1.0619zm3.7165 4.7783h2.7608l-3.628-11.539h-3.1148l-3.628 11.539h2.6546l0.7079-2.7431h3.5395z"/>
   <path d="m-187.45-45.024h2.6192v-3.9112h1.5928c2.4423 0 4.5129-1.2034 4.5129-3.9112 0-2.7962-1.9998-3.7165-4.5129-3.7165h-4.212zm2.6192-5.9818v-3.4864h1.4335c1.3804 0 2.1237 0.44244 2.1237 1.6459s-0.69021 1.8405-2.1237 1.8405z"/>
   <path d="m-174.11-54.493h1.3273c1.3627 0 2.106 0.38935 2.106 1.522s-0.7433 1.7167-2.106 1.7167h-1.3273zm6.5481 9.4682-2.6015-4.6191c1.2211-0.54862 2.0529-1.6282 2.0529-3.3271 0-2.7431-2.0175-3.5926-4.4598-3.5926h-4.1589v11.539h2.6192v-4.1589h1.4158l2.2122 4.1589z"/>
  </g>
  <path d="m-45.975-64.58-19.763 17.687v63.169l19.763 17.687h156.53l19.763-17.687v-63.169l-19.763-17.687z" fill="#1d232d" stroke="#009244"/>
  <g transform="scale(1.0006 .99942)" fill="#47d58a" stroke="none" aria-label="MAY">
   <path d="m16.943-45.024h2.4069v-4.2297c0-1.1326-0.21237-2.8139-0.33625-3.9289h0.07079l0.92027 2.6723 1.7698 4.4775h1.0442l1.7875-4.4775 0.93797-2.6723h0.07079c-0.12388 1.1149-0.33625 2.7962-0.33625 3.9289v4.2297h2.4423v-11.539h-2.7608l-1.8759 5.1854-0.6902 2.0175h-0.07079l-0.6902-2.0175-1.929-5.1854h-2.7608z"/>
   <path d="m32.848-49.803 0.28316-1.0619c0.31856-1.1503 0.63711-2.4954 0.90258-3.7165h0.07079c0.31856 1.2034 0.61941 2.5661 0.93797 3.7165l0.28316 1.0619zm3.7165 4.7783h2.7608l-3.628-11.539h-3.1148l-3.628 11.539h2.6546l0.7079-2.7431h3.5395z"/>
   <path d="m42.188-45.024h2.6015v-4.1058l3.4864-7.433h-2.7254l-1.0265 2.6546c-0.31856 0.86718-0.65481 1.6636-0.97337 2.5484h-0.07079c-0.33625-0.88488-0.63711-1.6813-0.93797-2.5484l-1.0442-2.6546h-2.7785l3.4687 7.433z"/>
  </g>
  <path d="m169.05-64.58-19.763 17.687v63.169l19.763 17.687h156.53l19.763-17.687v-63.169l-19.763-17.687z" fill="#1d232d" stroke="#009244"/>
  <g transform="scale(1.0006 .99942)" fill="#47d58a" stroke="none" aria-label="JUN">
   <path d="m230.8-46.9c0.79639 1.3981 1.9644 2.0883 3.7342 2.0883 2.5484 0 3.6988-1.8228 3.6988-4.0527v-7.6984h-2.6192v7.4861c0 1.5397-0.49553 2.0175-1.4335 2.0175-0.58402 0-1.168-0.37165-1.6105-1.1503z"/>
   <path d="m240.81-50.369c0 3.8758 1.6105 5.557 4.6014 5.557 2.9909 0 4.566-1.6813 4.566-5.557v-6.1941h-2.513v6.4596c0 2.2653-0.761 3.044-2.0529 3.044s-1.9998-0.77869-1.9998-3.044v-6.4596h-2.6015z"/>
   <path d="m252.58-45.024h2.4954v-4.0881c0-1.3627-0.21237-2.9024-0.33625-4.1766h0.0708l1.1326 2.5131 3.0086 5.7517h2.6723v-11.539h-2.4777v4.0704c0 1.3627 0.21237 2.9909 0.33626 4.212h-0.0708l-1.1503-2.5484-3.0086-5.734h-2.6723z"/>
  </g>
  <path d="m-261 49.123-19.763 17.687v63.169l19.763 17.687h156.53l19.763-17.687v-63.169l-19.763-17.687z" fill="#1d232d" stroke="#009244"/>
  <g transform="scale(1.0006 .99942)" fill="#47d58a" stroke="none" aria-label="JUL">
   <path d="m-197.69 66.87c0.79639 1.3981 1.9644 2.0883 3.7342 2.0883 2.5484 0 3.6988-1.8228 3.6988-4.0527v-7.6984h-2.6192v7.4861c0 1.5397-0.49553 2.0175-1.4335 2.0175-0.58402 0-1.168-0.37165-1.6105-1.1503z"/>
   <path d="m-187.67 63.401c0 3.8758 1.6105 5.557 4.6014 5.557s4.566-1.6813 4.566-5.557v-6.1941h-2.513v6.4596c0 2.2653-0.761 3.044-2.0529 3.044s-1.9998-0.77869-1.9998-3.044v-6.4596h-2.6015z"/>
   <path d="m-175.9 68.746h7.1675v-2.1945h-4.5483v-9.3443h-2.6192z"/>
  </g>
  <path d="m-45.975 49.123-19.763 17.687v63.169l19.763 17.687h156.53l19.763-17.687v-63.169l-19.763-17.687z" fill="#1d232d" stroke="#009244"/>
  <g transform="scale(1.0006 .99942)" fill="#47d58a" stroke="none" aria-label="AUG">
   <path d="m19.195 63.967 0.28316-1.0619c0.31856-1.1503 0.63711-2.4954 0.90258-3.7165h0.07079c0.31856 1.2034 0.61941 2.5661 0.93797 3.7165l0.28316 1.0619zm3.7165 4.7783h2.7608l-3.628-11.539h-3.1148l-3.628 11.539h2.6546l0.7079-2.7431h3.5395z"/>
   <path d="m26.603 63.401c0 3.8758 1.6105 5.557 4.6014 5.557s4.566-1.6813 4.566-5.557v-6.1941h-2.5131v6.4596c0 2.2653-0.761 3.044-2.0529 3.044s-1.9998-0.77869-1.9998-3.044v-6.4596h-2.6015z"/>
   <path d="m37.825 63.047c0 3.8758 2.4777 5.911 5.5924 5.911 1.6105 0 3.044-0.67251 3.8758-1.3981v-5.3093h-4.2297v2.1237h1.9113v1.9821c-0.28316 0.23007-0.761 0.35395-1.2211 0.35395-2.1768 0-3.2564-1.3804-3.2564-3.7519 0-2.3184 1.2742-3.7165 3.044-3.7165 0.99106 0 1.5397 0.33625 2.1237 0.86718l1.4335-1.6105c-0.77869-0.77869-1.9644-1.5043-3.5926-1.5043-3.1325 0-5.6809 2.2299-5.6809 6.0526z"/>
  </g>
  <path d="m169.05 49.123-19.763 17.687v63.169l19.763 17.687h156.53l19.763-17.687v-63.169l-19.763-17.687z" fill="#1d232d" stroke="#009244"/>
  <g transform="scale(1.0006 .99942)" fill="#47d58a" stroke="none" aria-label="SEP">
   <path d="m232.26 67.294c1.1857 1.0972 2.7785 1.6636 4.2828 1.6636 2.7431 0 4.3359-1.6636 4.3359-3.5749 0-1.6282-0.88488-2.5661-2.283-3.1325l-1.4689-0.60172c-1.0088-0.40704-1.7698-0.65481-1.7698-1.3627 0-0.65481 0.58402-1.0442 1.4689-1.0442 0.92028 0 1.6459 0.33625 2.4069 0.92027l1.3096-1.6459c-0.99106-0.99106-2.3892-1.522-3.7165-1.522-2.3892 0-4.1058 1.522-4.1058 3.4333 0 1.6813 1.1326 2.6723 2.3361 3.1502l1.4866 0.63711c1.0088 0.42474 1.6636 0.65481 1.6636 1.3804 0 0.6902-0.53093 1.1149-1.6105 1.1149-0.95566 0-2.0175-0.49553-2.8316-1.2034z"/>
   <path d="m242.82 68.746h7.4153v-2.1945h-4.796v-2.6546h3.9289v-2.1768h-3.9289v-2.3184h4.6191v-2.1945h-7.2383z"/>
   <path d="m252.49 68.746h2.6192v-3.9112h1.5928c2.4423 0 4.5129-1.2034 4.5129-3.9112 0-2.7962-1.9998-3.7165-4.5129-3.7165h-4.212zm2.6192-5.9818v-3.4864h1.4335c1.3804 0 2.1237 0.44244 2.1237 1.6459s-0.6902 1.8405-2.1237 1.8405z"/>
  </g>
  <path d="m-261 162.83-19.763 17.687v63.169l19.763 17.687h156.53l19.763-17.687v-63.169l-19.763-17.687z" fill="#1d232d" stroke="#009244"/>
  <g transform="scale(1.0006 .99942)" fill="#47d58a" stroke="none" aria-label="OCT">
   <path d="m-192.99 182.73c3.1148 0 5.2385-2.2653 5.2385-6.0349 0-3.7519-2.1237-5.9287-5.2385-5.9287-3.0971 0-5.2385 2.1591-5.2385 5.9287s2.1414 6.0349 5.2385 6.0349zm0-2.2476c-1.5574 0-2.5662-1.4689-2.5662-3.7873 0-2.3007 1.0088-3.6811 2.5662-3.6811 1.5751 0 2.5662 1.3804 2.5662 3.6811 0 2.3184-0.99107 3.7873-2.5662 3.7873z"/>
   <path d="m-186.13 176.82c0 3.8758 2.4423 5.911 5.4332 5.911 1.4335 0 2.7077-0.58401 3.6634-1.699l-1.4335-1.5751c-0.56632 0.61941-1.2388 1.0264-2.1945 1.0264-1.6813 0-2.7962-1.3804-2.7962-3.7519 0-2.3184 1.2565-3.7165 2.867-3.7165 0.81409 0 1.3627 0.33625 1.9467 0.86718l1.4335-1.6105c-0.77869-0.79639-1.9821-1.5043-3.4156-1.5043-2.9732 0-5.5039 2.2299-5.5039 6.0526z"/>
   <path d="m-173.26 182.52h2.6015v-9.3443h3.1679v-2.1945h-8.955v2.1945h3.1856z"/>
  </g>
  <path d="m-45.975 162.83-19.763 17.687v63.169l19.763 17.687h156.53l19.763-17.687v-63.169l-19.763-17.687z" fill="#1d232d" stroke="#009244"/>
  <g transform="scale(1.0006 .99942)" fill="#47d58a" stroke="none" aria-label="NOV">
   <path d="m16.459 182.52h2.4954v-4.0881c0-1.3627-0.21237-2.9024-0.33625-4.1766h0.07079l1.1326 2.5131 3.0086 5.7517h2.6723v-11.539h-2.4777v4.0704c0 1.3627 0.21237 2.9909 0.33625 4.212h-0.07079l-1.1503-2.5484-3.0086-5.734h-2.6723z"/>
   <path d="m32.901 182.73c3.1148 0 5.2385-2.2653 5.2385-6.0349 0-3.7519-2.1237-5.9287-5.2385-5.9287-3.0971 0-5.2385 2.1591-5.2385 5.9287s2.1414 6.0349 5.2385 6.0349zm0-2.2476c-1.5574 0-2.5661-1.4689-2.5661-3.7873 0-2.3007 1.0088-3.6811 2.5661-3.6811 1.5751 0 2.5661 1.3804 2.5661 3.6811 0 2.3184-0.99106 3.7873-2.5661 3.7873z"/>
   <path d="m42.136 182.52h3.1325l3.4864-11.539h-2.6723l-1.3627 5.38c-0.33625 1.2565-0.56632 2.4246-0.92027 3.6988h-0.07079c-0.35395-1.2742-0.58402-2.4423-0.92027-3.6988l-1.3981-5.38h-2.7608z"/>
  </g>
  <path d="m169.05 162.83-19.763 17.687v63.169l19.763 17.687h156.53l19.763-17.687v-63.169l-19.763-17.687z" fill="#1d232d" stroke="#009244"/>
  <g transform="scale(1.0006 .99942)" fill="#47d58a" stroke="none" aria-label="DEC">
   <path d="m232.52 182.52h3.4156c3.3802 0 5.6455-1.8582 5.6455-5.8225 0-3.9643-2.2653-5.7163-5.8048-5.7163h-3.2564zm2.6192-2.106v-7.3268h0.49553c1.9467 0 3.274 0.84948 3.274 3.6103s-1.3273 3.7165-3.274 3.7165z"/>
   <path d="m243.75 182.52h7.4153v-2.1945h-4.796v-2.6546h3.9289v-2.1768h-3.9289v-2.3184h4.6191v-2.1945h-7.2383z"/>
   <path d="m252.88 176.82c0 3.8758 2.4423 5.911 5.4332 5.911 1.4335 0 2.7077-0.58401 3.6634-1.699l-1.4335-1.5751c-0.56632 0.61941-1.2388 1.0264-2.1945 1.0264-1.6813 0-2.7962-1.3804-2.7962-3.7519 0-2.3184 1.2565-3.7165 2.867-3.7165 0.81409 0 1.3627 0.33625 1.9467 0.86718l1.4335-1.6105c-0.77869-0.79639-1.9821-1.5043-3.4156-1.5043-2.9732 0-5.5039 2.2299-5.5039 6.0526z"/>
  </g>
  <g fill="#e9e56f" stroke="none">
   <g transform="scale(1.0006 .99942)" aria-label="v0.2 prototype v0.3 prototype ">
    <path d="m-12.838-135.58h1.4563l2.6091-7.3723h-1.2287l-1.3956 4.1867c-0.21237 0.72813-0.45508 1.4714-0.66745 2.1692h-0.06068c-0.22754-0.69779-0.47025-1.4411-0.68262-2.1692l-1.3956-4.1867h-1.2894z"/>
    <path d="m-4.817-135.4c1.9265 0 3.0945-1.8052 3.0945-5.0514 0-3.2462-1.168-4.9907-3.0945-4.9907-1.9417 0-3.1097 1.7445-3.1097 4.9907 0 3.2462 1.168 5.0514 3.1097 5.0514zm0-1.0012c-1.1377 0-1.8962-1.2136-1.8962-4.0502 0-2.8367 0.75847-3.9895 1.8962-3.9895 1.1225 0 1.881 1.1529 1.881 3.9895 0 2.8367-0.75847 4.0502-1.881 4.0502z"/>
    <path d="m-0.082735-136.34c0 0.54609 0.40957 0.94049 0.91016 0.94049 0.48542 0 0.89499-0.3944 0.89499-0.94049 0-0.57644-0.40957-0.97084-0.89499-0.97084-0.50059 0-0.91016 0.3944-0.91016 0.97084z"/>
    <path d="m3.3007-135.58h6.2498v-1.077h-2.8063c-0.50059 0-1.0922 0.0455-1.6231 0.091 2.2906-2.3968 3.944-4.2019 3.944-6.0222 0-1.7141-1.1074-2.8518-2.8973-2.8518-1.2591 0-2.1237 0.59161-2.9277 1.4714l0.71296 0.71296c0.56127-0.65228 1.2591-1.168 2.063-1.168 1.2287 0 1.8355 0.78881 1.8355 1.8962 0 1.5624-1.6383 3.3069-4.5508 6.2043z"/>
    <path d="m15.728-136.25c0.68262 0.53093 1.3652 0.84948 2.0479 0.84948 1.6838 0 3.1856-1.4714 3.1856-3.9744 0-2.2906-1.0163-3.762-2.9125-3.762-0.86465 0-1.6838 0.47025-2.3512 1.0315h-0.04551l-0.10618-0.84948h-1.0315v10.482h1.2439v-2.4878zm0.03034-0.97084v-3.8682c0.72813-0.65228 1.3501-1.0012 1.972-1.0012 1.3956 0 1.9417 1.0922 1.9417 2.7153 0 1.8203-0.89499 2.9277-2.1085 2.9277-0.48542 0-1.1377-0.21237-1.8052-0.77364z"/>
    <path d="m22.929-135.58h1.2439v-4.7328c0.50059-1.2439 1.2439-1.699 1.8658-1.699 0.30339 0 0.47025 0.0455 0.71296 0.12136l0.24271-1.0922c-0.24271-0.10619-0.47025-0.1517-0.78881-0.1517-0.83431 0-1.5928 0.59161-2.0934 1.5169h-0.04551l-0.10618-1.3349h-1.0315z"/>
    <path d="m27.509-139.25c0 2.4423 1.6079 3.853 3.4131 3.853s3.4131-1.4107 3.4131-3.853c0-2.4726-1.608-3.8834-3.4131-3.8834s-3.4131 1.4108-3.4131 3.8834zm1.2894 0c0-1.699 0.86465-2.8518 2.1237-2.8518 1.2742 0 2.1237 1.1529 2.1237 2.8518 0 1.6838-0.84948 2.8215-2.1237 2.8215-1.2591 0-2.1237-1.1377-2.1237-2.8215z"/>
    <path d="m36.504-137.86c0 1.4563 0.53093 2.4574 2.1085 2.4574 0.45508 0 0.95567-0.13652 1.3652-0.27304l-0.24271-0.9405c-0.24271 0.091-0.57644 0.1972-0.83431 0.1972-0.84948 0-1.1377-0.51576-1.1377-1.4259v-4.0957h1.9872v-1.0163h-1.9872v-2.063h-1.0467l-0.15169 2.063-1.1529 0.0758v0.9405h1.0922z"/>
    <path d="m40.723-139.25c0 2.4423 1.6079 3.853 3.4131 3.853s3.4131-1.4107 3.4131-3.853c0-2.4726-1.608-3.8834-3.4131-3.8834s-3.4131 1.4108-3.4131 3.8834zm1.2894 0c0-1.699 0.86465-2.8518 2.1237-2.8518 1.2742 0 2.1237 1.1529 2.1237 2.8518 0 1.6838-0.84948 2.8215-2.1237 2.8215-1.2591 0-2.1237-1.1377-2.1237-2.8215z"/>
    <path d="m49.717-137.86c0 1.4563 0.53093 2.4574 2.1085 2.4574 0.45508 0 0.95567-0.13652 1.3652-0.27304l-0.24271-0.9405c-0.24271 0.091-0.57644 0.1972-0.83431 0.1972-0.84948 0-1.1377-0.51576-1.1377-1.4259v-4.0957h1.9872v-1.0163h-1.9872v-2.063h-1.0467l-0.15169 2.063-1.1529 0.0758v0.9405h1.0922z"/>
    <path d="m54.13-133.55-0.24271 0.98601c0.24271 0.091 0.53093 0.15169 0.86465 0.15169 1.4866 0 2.2451-1.1074 2.7608-2.5636l2.776-7.9791h-1.2135l-1.3197 4.0806c-0.1972 0.65228-0.40957 1.4107-0.62194 2.0782h-0.06068c-0.22754-0.68262-0.48542-1.4411-0.71296-2.0782l-1.5018-4.0806h-1.2894l2.958 7.3875-0.16686 0.5461c-0.30339 0.91016-0.83431 1.5776-1.6686 1.5776-0.18203 0-0.40957-0.0607-0.56126-0.10619z"/>
    <path d="m62.925-136.25c0.68262 0.53093 1.3652 0.84948 2.0479 0.84948 1.6838 0 3.1856-1.4714 3.1856-3.9744 0-2.2906-1.0163-3.762-2.9125-3.762-0.86465 0-1.6838 0.47025-2.3512 1.0315h-0.04551l-0.10618-0.84948h-1.0315v10.482h1.2439v-2.4878zm0.03034-0.97084v-3.8682c0.72813-0.65228 1.3501-1.0012 1.972-1.0012 1.3956 0 1.9417 1.0922 1.9417 2.7153 0 1.8203-0.89499 2.9277-2.1085 2.9277-0.48542 0-1.1377-0.21237-1.8052-0.77364z"/>
    <path d="m69.58-139.25c0 2.4119 1.5624 3.853 3.5345 3.853 1.0012 0 1.79-0.34889 2.4271-0.75846l-0.43991-0.81915c-0.5461 0.3489-1.1377 0.57644-1.8355 0.57644-1.4107 0-2.3664-1.0012-2.4574-2.594h4.9755c0.03034-0.18203 0.04551-0.42474 0.04551-0.68262 0-2.1085-1.0619-3.4586-2.9429-3.4586-1.6838 0-3.3069 1.4714-3.3069 3.8834zm1.2135-0.56126c0.15169-1.4866 1.0922-2.3361 2.1237-2.3361 1.1529 0 1.8203 0.83431 1.8203 2.3361z"/>
    <path d="m-12.838-113.46h1.4563l2.6091-7.3723h-1.2287l-1.3956 4.1867c-0.21237 0.72813-0.45508 1.4714-0.66745 2.1692h-0.06068c-0.22754-0.69779-0.47025-1.4411-0.68262-2.1692l-1.3956-4.1867h-1.2894z"/>
    <path d="m-4.817-113.28c1.9265 0 3.0945-1.8052 3.0945-5.0514s-1.168-4.9907-3.0945-4.9907c-1.9417 0-3.1097 1.7445-3.1097 4.9907s1.168 5.0514 3.1097 5.0514zm0-1.0012c-1.1377 0-1.8962-1.2136-1.8962-4.0502 0-2.8367 0.75847-3.9895 1.8962-3.9895 1.1225 0 1.881 1.1529 1.881 3.9895 0 2.8367-0.75847 4.0502-1.881 4.0502z"/>
    <path d="m-0.082735-114.22c0 0.5461 0.40957 0.9405 0.91016 0.9405 0.48542 0 0.89499-0.3944 0.89499-0.9405 0-0.57643-0.40957-0.97083-0.89499-0.97083-0.50059 0-0.91016 0.3944-0.91016 0.97083z"/>
    <path d="m3.0884-114.65c0.65228 0.71296 1.6383 1.3652 3.1856 1.3652 1.7748 0 3.1856-1.0467 3.1856-2.7608 0-1.3349-0.92533-2.1844-2.0934-2.4574v-0.0607c1.0467-0.3944 1.7596-1.1377 1.7596-2.3057 0-1.5624-1.2135-2.4574-2.8973-2.4574-1.1377 0-2.0327 0.51576-2.776 1.2136l0.66745 0.7888c0.57643-0.57643 1.2591-0.986 2.063-0.986 1.0315 0 1.6686 0.5916 1.6686 1.5321 0 1.0164-0.68262 1.8052-2.7456 1.8052v0.95567c2.3057 0 3.0945 0.77363 3.0945 1.9265 0 1.077-0.83431 1.7748-2.0024 1.7748-1.1377 0-1.8962-0.5461-2.4726-1.1529z"/>
    <path d="m15.728-114.13c0.68262 0.53093 1.3652 0.84948 2.0479 0.84948 1.6838 0 3.1856-1.4714 3.1856-3.9744 0-2.2906-1.0163-3.762-2.9125-3.762-0.86465 0-1.6838 0.47025-2.3512 1.0315h-0.04551l-0.10618-0.84949h-1.0315v10.482h1.2439v-2.4878zm0.03034-0.97084v-3.8682c0.72813-0.65228 1.3501-1.0012 1.972-1.0012 1.3956 0 1.9417 1.0922 1.9417 2.7153 0 1.8203-0.89499 2.9277-2.1085 2.9277-0.48542 0-1.1377-0.21237-1.8052-0.77364z"/>
    <path d="m22.929-113.46h1.2439v-4.7328c0.50059-1.2439 1.2439-1.699 1.8658-1.699 0.30339 0 0.47025 0.0455 0.71296 0.12136l0.24271-1.0922c-0.24271-0.10618-0.47025-0.15169-0.78881-0.15169-0.83431 0-1.5928 0.5916-2.0934 1.5169h-0.04551l-0.10618-1.3349h-1.0315z"/>
    <path d="m27.509-117.13c0 2.4423 1.6079 3.853 3.4131 3.853s3.4131-1.4108 3.4131-3.853c0-2.4726-1.608-3.8834-3.4131-3.8834s-3.4131 1.4108-3.4131 3.8834zm1.2894 0c0-1.699 0.86465-2.8518 2.1237-2.8518 1.2742 0 2.1237 1.1529 2.1237 2.8518 0 1.6838-0.84948 2.8215-2.1237 2.8215-1.2591 0-2.1237-1.1377-2.1237-2.8215z"/>
    <path d="m36.504-115.74c0 1.4563 0.53093 2.4574 2.1085 2.4574 0.45508 0 0.95567-0.13652 1.3652-0.27305l-0.24271-0.9405c-0.24271 0.091-0.57644 0.19721-0.83431 0.19721-0.84948 0-1.1377-0.51576-1.1377-1.4259v-4.0957h1.9872v-1.0164h-1.9872v-2.063h-1.0467l-0.15169 2.063-1.1529 0.0759v0.9405h1.0922z"/>
    <path d="m40.723-117.13c0 2.4423 1.6079 3.853 3.4131 3.853s3.4131-1.4108 3.4131-3.853c0-2.4726-1.608-3.8834-3.4131-3.8834s-3.4131 1.4108-3.4131 3.8834zm1.2894 0c0-1.699 0.86465-2.8518 2.1237-2.8518 1.2742 0 2.1237 1.1529 2.1237 2.8518 0 1.6838-0.84948 2.8215-2.1237 2.8215-1.2591 0-2.1237-1.1377-2.1237-2.8215z"/>
    <path d="m49.717-115.74c0 1.4563 0.53093 2.4574 2.1085 2.4574 0.45508 0 0.95567-0.13652 1.3652-0.27305l-0.24271-0.9405c-0.24271 0.091-0.57644 0.19721-0.83431 0.19721-0.84948 0-1.1377-0.51576-1.1377-1.4259v-4.0957h1.9872v-1.0164h-1.9872v-2.063h-1.0467l-0.15169 2.063-1.1529 0.0759v0.9405h1.0922z"/>
    <path d="m54.13-111.43-0.24271 0.98601c0.24271 0.091 0.53093 0.15169 0.86465 0.15169 1.4866 0 2.2451-1.1074 2.7608-2.5636l2.776-7.9791h-1.2135l-1.3197 4.0806c-0.1972 0.65228-0.40957 1.4108-0.62194 2.0782h-0.06068c-0.22754-0.68262-0.48542-1.4411-0.71296-2.0782l-1.5018-4.0806h-1.2894l2.958 7.3875-0.16686 0.54609c-0.30339 0.91016-0.83431 1.5776-1.6686 1.5776-0.18203 0-0.40957-0.0607-0.56126-0.10619z"/>
    <path d="m62.925-114.13c0.68262 0.53093 1.3652 0.84948 2.0479 0.84948 1.6838 0 3.1856-1.4714 3.1856-3.9744 0-2.2906-1.0163-3.762-2.9125-3.762-0.86465 0-1.6838 0.47025-2.3512 1.0315h-0.04551l-0.10618-0.84949h-1.0315v10.482h1.2439v-2.4878zm0.03034-0.97084v-3.8682c0.72813-0.65228 1.3501-1.0012 1.972-1.0012 1.3956 0 1.9417 1.0922 1.9417 2.7153 0 1.8203-0.89499 2.9277-2.1085 2.9277-0.48542 0-1.1377-0.21237-1.8052-0.77364z"/>
    <path d="m69.58-117.13c0 2.4119 1.5624 3.853 3.5345 3.853 1.0012 0 1.79-0.34889 2.4271-0.75847l-0.43991-0.81914c-0.5461 0.3489-1.1377 0.57644-1.8355 0.57644-1.4107 0-2.3664-1.0012-2.4574-2.594h4.9755c0.03034-0.18203 0.04551-0.42474 0.04551-0.68262 0-2.1085-1.0619-3.4586-2.9429-3.4586-1.6838 0-3.3069 1.4714-3.3069 3.8834zm1.2135-0.56127c0.15169-1.4866 1.0922-2.3361 2.1237-2.3361 1.1529 0 1.8203 0.83431 1.8203 2.3361z"/>
   </g>
   <g transform="scale(1.0006 .99942)" aria-label="WOLF3D SNES port v0.4 release">
    <path d="m-242.18-21.814h1.5018l1.4866-5.9919c0.16686-0.77364 0.33373-1.4866 0.50059-2.2602h0.0607c0.13652 0.77364 0.30338 1.4866 0.47025 2.2602l1.5018 5.9919h1.5321l2.063-9.9511h-1.2287l-1.0467 5.4155c-0.18203 1.0619-0.36406 2.1389-0.56126 3.2159h-0.0607c-0.24271-1.077-0.48542-2.1692-0.71296-3.2159l-1.3804-5.4155h-1.1529l-1.3804 5.4155c-0.24271 1.0619-0.48542 2.1389-0.69779 3.2159h-0.0607c-0.1972-1.077-0.3944-2.1389-0.5916-3.2159l-1.0467-5.4155h-1.3046z"/>
    <path d="m-227.82-21.632c2.4878 0 4.2474-2.0024 4.2474-5.2031 0-3.1704-1.7596-5.1121-4.2474-5.1121-2.5029 0-4.2626 1.9265-4.2626 5.1121 0 3.2007 1.7596 5.2031 4.2626 5.2031zm0-1.1074c-1.79 0-2.958-1.608-2.958-4.0957 0-2.4726 1.168-4.0047 2.958-4.0047 1.7748 0 2.9428 1.5321 2.9428 4.0047 0 2.4878-1.168 4.0957-2.9428 4.0957z"/>
    <path d="m-221.52-21.814h5.6127v-1.077h-4.3384v-8.8741h-1.2742z"/>
    <path d="m-214.23-21.814h1.2742v-4.4598h3.7923v-1.0619h-3.7923v-3.3676h4.475v-1.0619h-5.7492z"/>
    <path d="m-207.75-22.997c0.65228 0.71296 1.6383 1.3652 3.1856 1.3652 1.7748 0 3.1856-1.0467 3.1856-2.7608 0-1.3349-0.92533-2.1844-2.0934-2.4574v-0.06068c1.0467-0.3944 1.7596-1.1377 1.7596-2.3057 0-1.5624-1.2136-2.4574-2.8973-2.4574-1.1377 0-2.0327 0.51576-2.776 1.2135l0.66745 0.7888c0.57644-0.57643 1.2591-0.98601 2.063-0.98601 1.0315 0 1.6686 0.5916 1.6686 1.5321 0 1.0163-0.68262 1.8052-2.7456 1.8052v0.95567c2.3057 0 3.0945 0.77364 3.0945 1.9265 0 1.077-0.83431 1.7748-2.0024 1.7748-1.1377 0-1.8962-0.5461-2.4726-1.1529z"/>
    <path d="m-199.3-21.814h2.5484c3.0035 0 4.6418-1.8507 4.6418-5.021 0-3.1552-1.6383-4.93-4.7025-4.93h-2.4878zm1.2742-1.0315v-7.8881h1.1225c2.3361 0 3.489 1.3956 3.489 3.8985 0 2.5181-1.1529 3.9895-3.489 3.9895z"/>
    <path d="m-187.69-23.103c0.86466 0.89499 2.0782 1.4714 3.4738 1.4714 2.0934 0 3.3979-1.2591 3.3979-2.8367 0-1.4714-0.89499-2.154-2.0479-2.6546l-1.4259-0.60677c-0.77364-0.33372-1.6535-0.69779-1.6535-1.6535 0-0.89499 0.7433-1.4563 1.8658-1.4563 0.91016 0 1.6534 0.36406 2.2602 0.9405l0.66745-0.81914c-0.69779-0.72813-1.7445-1.2287-2.9277-1.2287-1.8052 0-3.1401 1.1225-3.1401 2.6395 0 1.4563 1.0922 2.1692 2.0175 2.5636l1.4259 0.62194c0.9405 0.42474 1.6686 0.7433 1.6686 1.7596 0 0.97084-0.77364 1.6231-2.0782 1.6231-1.0467 0-2.0327-0.50059-2.7456-1.2439z"/>
    <path d="m-178.95-21.814h1.1984v-5.2031c0-1.0467-0.091-2.1085-0.15169-3.1097h0.0607l1.077 2.0479 3.5951 6.2649h1.3046v-9.9511h-1.1984v5.1424c0 1.0467 0.10619 2.1692 0.16687 3.1704h-0.0607l-1.077-2.063-3.6103-6.2498h-1.3046z"/>
    <path d="m-169.2-21.814h5.8857v-1.077h-4.6115v-3.6103h3.762v-1.077h-3.762v-3.1249h4.4598v-1.0619h-5.734z"/>
    <path d="m-162-23.103c0.86465 0.89499 2.0782 1.4714 3.4738 1.4714 2.0934 0 3.3979-1.2591 3.3979-2.8367 0-1.4714-0.89499-2.154-2.0479-2.6546l-1.4259-0.60677c-0.77363-0.33372-1.6534-0.69779-1.6534-1.6535 0-0.89499 0.74329-1.4563 1.8658-1.4563 0.91016 0 1.6535 0.36406 2.2602 0.9405l0.66746-0.81914c-0.69779-0.72813-1.7445-1.2287-2.9277-1.2287-1.8052 0-3.14 1.1225-3.14 2.6395 0 1.4563 1.0922 2.1692 2.0175 2.5636l1.4259 0.62194c0.9405 0.42474 1.6686 0.7433 1.6686 1.7596 0 0.97084-0.77364 1.6231-2.0782 1.6231-1.0467 0-2.0327-0.50059-2.7456-1.2439z"/>
    <path d="m-149.07-22.481c0.68262 0.53093 1.3652 0.84948 2.0479 0.84948 1.6838 0 3.1856-1.4714 3.1856-3.9744 0-2.2906-1.0164-3.762-2.9125-3.762-0.86466 0-1.6838 0.47025-2.3512 1.0315h-0.0455l-0.10618-0.84948h-1.0315v10.482h1.2439v-2.4878zm0.0303-0.97084v-3.8682c0.72812-0.65228 1.3501-1.0012 1.972-1.0012 1.3956 0 1.9417 1.0922 1.9417 2.7153 0 1.8203-0.89499 2.9277-2.1085 2.9277-0.48542 0-1.1377-0.21237-1.8052-0.77364z"/>
    <path d="m-142.42-25.485c0 2.4423 1.608 3.853 3.4131 3.853s3.4131-1.4107 3.4131-3.853c0-2.4726-1.608-3.8834-3.4131-3.8834s-3.4131 1.4107-3.4131 3.8834zm1.2894 0c0-1.699 0.86465-2.8518 2.1237-2.8518 1.2742 0 2.1237 1.1529 2.1237 2.8518 0 1.6838-0.84948 2.8215-2.1237 2.8215-1.259 0-2.1237-1.1377-2.1237-2.8215z"/>
    <path d="m-133.63-21.814h1.2439v-4.7328c0.50059-1.2439 1.2439-1.699 1.8658-1.699 0.30338 0 0.47024 0.04551 0.71295 0.12135l0.24271-1.0922c-0.24271-0.10618-0.47025-0.15169-0.7888-0.15169-0.83432 0-1.5928 0.5916-2.0934 1.5169h-0.0455l-0.10618-1.3349h-1.0315z"/>
    <path d="m-128.15-24.089c0 1.4563 0.53093 2.4574 2.1085 2.4574 0.45508 0 0.95567-0.13652 1.3652-0.27305l-0.24271-0.9405c-0.24271 0.09102-0.57643 0.1972-0.83431 0.1972-0.84949 0-1.1377-0.51576-1.1377-1.4259v-4.0957h1.9872v-1.0163h-1.9872v-2.063h-1.0467l-0.15169 2.063-1.1529 0.07585v0.9405h1.0922z"/>
    <path d="m-218.92 0.30809h1.4563l2.6091-7.3723h-1.2287l-1.3956 4.1867c-0.21237 0.72813-0.45508 1.4714-0.66745 2.1692h-0.0607c-0.22754-0.69779-0.47025-1.4411-0.68262-2.1692l-1.3956-4.1867h-1.2894z"/>
    <path d="m-210.9 0.49012c1.9265 0 3.0946-1.8052 3.0946-5.0514 0-3.2462-1.168-4.9907-3.0946-4.9907-1.9417 0-3.1097 1.7445-3.1097 4.9907 0 3.2462 1.168 5.0514 3.1097 5.0514zm0-1.0012c-1.1377 0-1.8962-1.2135-1.8962-4.0502s0.75846-3.9895 1.8962-3.9895c1.1225 0 1.881 1.1529 1.881 3.9895s-0.75847 4.0502-1.881 4.0502z"/>
    <path d="m-206.17-0.45038c0 0.5461 0.40957 0.9405 0.91016 0.9405 0.48542 0 0.89499-0.3944 0.89499-0.9405 0-0.57643-0.40957-0.97084-0.89499-0.97084-0.50059 0-0.91016 0.3944-0.91016 0.97084z"/>
    <path d="m-201.81-3.3629 2.2602-3.3069c0.27305-0.47025 0.54609-0.89499 0.7888-1.3652h0.0607c-0.0303 0.51576-0.0759 1.3501-0.0759 1.8658v2.8063zm5.5368 0h-1.3197v-6.0071h-1.3956l-4.1412 6.1891v0.81914h4.3536v2.6698h1.1832v-2.6698h1.3197z"/>
    <path d="m-191.57 0.30809h1.2439v-4.7328c0.50059-1.2439 1.2439-1.699 1.8658-1.699 0.30339 0 0.47025 0.045508 0.71296 0.12135l0.24271-1.0922c-0.24271-0.10619-0.47025-0.15169-0.78881-0.15169-0.83431 0-1.5928 0.5916-2.0934 1.5169h-0.0455l-0.10619-1.3349h-1.0315z"/>
    <path d="m-186.99-3.3629c0 2.4119 1.5624 3.853 3.5344 3.853 1.0012 0 1.79-0.34889 2.4271-0.75847l-0.43991-0.81914c-0.5461 0.34889-1.1377 0.57643-1.8355 0.57643-1.4108 0-2.3664-1.0012-2.4574-2.594h4.9755c0.0303-0.18203 0.0455-0.42474 0.0455-0.68262 0-2.1085-1.0619-3.4586-2.9429-3.4586-1.6838 0-3.3069 1.4714-3.3069 3.8833zm1.2136-0.56127c0.15169-1.4866 1.0922-2.3361 2.1237-2.3361 1.1529 0 1.8203 0.83431 1.8203 2.3361z"/>
    <path d="m-178.92-1.1785c0 1.077 0.37923 1.6686 1.3197 1.6686 0.33372 0 0.54609-0.045508 0.71296-0.12135l-0.16687-0.9405c-0.13652 0.030339-0.1972 0.030339-0.27304 0.030339-0.18204 0-0.3489-0.15169-0.3489-0.5461v-9.405h-1.2439z"/>
    <path d="m-175.58-3.3629c0 2.4119 1.5624 3.853 3.5344 3.853 1.0012 0 1.79-0.34889 2.4271-0.75847l-0.43991-0.81914c-0.5461 0.34889-1.1377 0.57643-1.8355 0.57643-1.4108 0-2.3664-1.0012-2.4574-2.594h4.9756c0.0303-0.18203 0.0455-0.42474 0.0455-0.68262 0-2.1085-1.0618-3.4586-2.9428-3.4586-1.6838 0-3.3069 1.4714-3.3069 3.8833zm1.2135-0.56127c0.1517-1.4866 1.0922-2.3361 2.1237-2.3361 1.1529 0 1.8203 0.83431 1.8203 2.3361z"/>
    <path d="m-168.08-1.6032c0 1.3197 0.92533 2.0934 2.1692 2.0934 0.91016 0 1.7293-0.48542 2.4423-1.0619h0.0303l0.10618 0.87982h1.0315v-4.5205c0-1.8355-0.75847-3.0339-2.5636-3.0339-1.1832 0-2.2147 0.51576-2.8974 0.95567l0.50059 0.86465c0.57644-0.3944 1.3349-0.78881 2.1996-0.78881 1.1984 0 1.5169 0.91016 1.5169 1.8507-3.14 0.34889-4.5356 1.1529-4.5356 2.7608zm1.2287-0.091016c0-0.9405 0.83431-1.5473 3.3069-1.8507v2.0479c-0.71296 0.63711-1.3046 0.98601-2.0175 0.98601-0.72813 0-1.2894-0.34889-1.2894-1.1832z"/>
    <path d="m-160.78-0.52622c0.69779 0.57643 1.699 1.0163 2.7456 1.0163 1.7445 0 2.7001-1.0012 2.7001-2.1996 0-1.3956-1.1832-1.8355-2.2451-2.2299-0.83431-0.31856-1.6383-0.5916-1.6383-1.2742 0-0.56127 0.42474-1.0619 1.3501-1.0619 0.65228 0 1.1832 0.27305 1.6838 0.65228l0.5916-0.78881c-0.56126-0.45508-1.3652-0.83431-2.2906-0.83431-1.5928 0-2.5333 0.91016-2.5333 2.0934 0 1.2439 1.1529 1.7445 2.1996 2.1237 0.80397 0.30339 1.6838 0.63711 1.6838 1.3956 0 0.63711-0.48541 1.1529-1.4562 1.1529-0.87982 0-1.5321-0.36406-2.1692-0.87982z"/>
    <path d="m-154.13-3.3629c0 2.4119 1.5624 3.853 3.5345 3.853 1.0012 0 1.79-0.34889 2.4271-0.75847l-0.43991-0.81914c-0.54609 0.34889-1.1377 0.57643-1.8355 0.57643-1.4108 0-2.3664-1.0012-2.4574-2.594h4.9755c0.0303-0.18203 0.0455-0.42474 0.0455-0.68262 0-2.1085-1.0618-3.4586-2.9428-3.4586-1.6838 0-3.3069 1.4714-3.3069 3.8833zm1.2136-0.56127c0.15169-1.4866 1.0922-2.3361 2.1237-2.3361 1.1529 0 1.8203 0.83431 1.8203 2.3361z"/>
   </g>
   <g transform="scale(1.0006 .99942)" aria-label="v0.5 release collision detection binary partition">
    <path d="m-4.0243-21.814h1.4563l2.6091-7.3723h-1.2287l-1.3956 4.1867c-0.21237 0.72813-0.45508 1.4714-0.66745 2.1692h-0.060677c-0.22754-0.69779-0.47025-1.4411-0.68262-2.1692l-1.3956-4.1867h-1.2894z"/>
    <path d="m3.9972-21.632c1.9265 0 3.0945-1.8052 3.0945-5.0514 0-3.2462-1.168-4.9907-3.0945-4.9907-1.9417 0-3.1097 1.7445-3.1097 4.9907 0 3.2462 1.168 5.0514 3.1097 5.0514zm0-1.0012c-1.1377 0-1.8962-1.2135-1.8962-4.0502 0-2.8367 0.75847-3.9895 1.8962-3.9895 1.1225 0 1.881 1.1529 1.881 3.9895 0 2.8367-0.75847 4.0502-1.881 4.0502z"/>
    <path d="m8.7315-22.572c0 0.5461 0.40957 0.9405 0.91016 0.9405 0.48542 0 0.89499-0.3944 0.89499-0.9405 0-0.57644-0.40957-0.97084-0.89499-0.97084-0.50059 0-0.91016 0.3944-0.91016 0.97084z"/>
    <path d="m11.887-22.952c0.66745 0.66745 1.6231 1.3197 3.1704 1.3197 1.6838 0 3.2614-1.1832 3.2614-3.2766 0-2.0934-1.3501-3.0339-3.0035-3.0339-0.5916 0-1.0315 0.15169-1.4866 0.3944l0.25788-2.867h3.7468v-1.077h-4.839l-0.31856 4.657 0.66745 0.42474c0.57643-0.37923 0.98601-0.5916 1.6535-0.5916 1.2439 0 2.063 0.78881 2.063 2.1237 0 1.3501-0.9405 2.2147-2.1237 2.2147-1.1377 0-1.8658-0.53093-2.4423-1.1074z"/>
    <path d="m23.329-21.814h1.2439v-4.7328c0.50059-1.2439 1.2439-1.699 1.8658-1.699 0.30339 0 0.47025 0.04551 0.71296 0.12135l0.24271-1.0922c-0.24271-0.10618-0.47025-0.15169-0.7888-0.15169-0.83431 0-1.5928 0.5916-2.0934 1.5169h-0.04551l-0.10619-1.3349h-1.0315z"/>
    <path d="m27.909-25.485c0 2.4119 1.5624 3.853 3.5345 3.853 1.0012 0 1.79-0.3489 2.4271-0.75847l-0.43991-0.81914c-0.5461 0.3489-1.1377 0.57644-1.8355 0.57644-1.4107 0-2.3664-1.0012-2.4574-2.594h4.9755c0.03034-0.18203 0.04551-0.42474 0.04551-0.68262 0-2.1085-1.0619-3.4586-2.9429-3.4586-1.6838 0-3.3069 1.4714-3.3069 3.8834zm1.2135-0.56127c0.15169-1.4866 1.0922-2.3361 2.1237-2.3361 1.1529 0 1.8203 0.83431 1.8203 2.3361z"/>
    <path d="m35.98-23.3c0 1.077 0.37923 1.6686 1.3197 1.6686 0.33373 0 0.5461-0.04551 0.71296-0.12136l-0.16686-0.9405c-0.13652 0.03034-0.1972 0.03034-0.27305 0.03034-0.18203 0-0.34889-0.15169-0.34889-0.5461v-9.405h-1.2439z"/>
    <path d="m39.315-25.485c0 2.4119 1.5624 3.853 3.5345 3.853 1.0012 0 1.79-0.3489 2.4271-0.75847l-0.43991-0.81914c-0.5461 0.3489-1.1377 0.57644-1.8355 0.57644-1.4107 0-2.3664-1.0012-2.4574-2.594h4.9755c0.03034-0.18203 0.04551-0.42474 0.04551-0.68262 0-2.1085-1.0619-3.4586-2.9429-3.4586-1.6838 0-3.3069 1.4714-3.3069 3.8834zm1.2135-0.56127c0.15169-1.4866 1.0922-2.3361 2.1237-2.3361 1.1529 0 1.8203 0.83431 1.8203 2.3361z"/>
    <path d="m46.815-23.725c0 1.3197 0.92533 2.0934 2.1692 2.0934 0.91016 0 1.7293-0.48542 2.4423-1.0619h0.03034l0.10618 0.87982h1.0315v-4.5205c0-1.8355-0.75847-3.0339-2.5636-3.0339-1.1832 0-2.2147 0.51576-2.8973 0.95567l0.50059 0.86465c0.57644-0.3944 1.3349-0.7888 2.1996-0.7888 1.1984 0 1.5169 0.91016 1.5169 1.8507-3.1401 0.34889-4.5356 1.1529-4.5356 2.7608zm1.2287-0.09102c0-0.9405 0.83431-1.5473 3.3069-1.8507v2.0479c-0.71296 0.63711-1.3046 0.98601-2.0175 0.98601-0.72813 0-1.2894-0.3489-1.2894-1.1832z"/>
    <path d="m54.123-22.648c0.69779 0.57643 1.699 1.0163 2.7456 1.0163 1.7445 0 2.7001-1.0012 2.7001-2.1996 0-1.3956-1.1832-1.8355-2.2451-2.2299-0.83431-0.31856-1.6383-0.5916-1.6383-1.2742 0-0.56127 0.42474-1.0619 1.3501-1.0619 0.65228 0 1.1832 0.27305 1.6838 0.65228l0.5916-0.78881c-0.56127-0.45508-1.3652-0.83431-2.2906-0.83431-1.5928 0-2.5333 0.91016-2.5333 2.0934 0 1.2439 1.1529 1.7445 2.1996 2.1237 0.80397 0.30339 1.6838 0.63711 1.6838 1.3956 0 0.63711-0.48542 1.1529-1.4563 1.1529-0.87982 0-1.5321-0.36406-2.1692-0.87982z"/>
    <path d="m60.766-25.485c0 2.4119 1.5624 3.853 3.5345 3.853 1.0012 0 1.79-0.3489 2.4271-0.75847l-0.43991-0.81914c-0.5461 0.3489-1.1377 0.57644-1.8355 0.57644-1.4107 0-2.3664-1.0012-2.4574-2.594h4.9755c0.03034-0.18203 0.04551-0.42474 0.04551-0.68262 0-2.1085-1.0619-3.4586-2.9429-3.4586-1.6838 0-3.3069 1.4714-3.3069 3.8834zm1.2135-0.56127c0.15169-1.4866 1.0922-2.3361 2.1237-2.3361 1.1529 0 1.8203 0.83431 1.8203 2.3361z"/>
    <path d="m-27.199-3.3629c0 2.4423 1.5018 3.853 3.4586 3.853 0.87982 0 1.7293-0.36406 2.3968-0.95567l-0.56126-0.81914c-0.43991 0.3944-1.0315 0.7433-1.7293 0.7433-1.3501 0-2.2754-1.1377-2.2754-2.8215 0-1.699 0.97084-2.8518 2.3057-2.8518 0.5916 0 1.0467 0.27305 1.4866 0.65228l0.62194-0.80397c-0.50059-0.47025-1.1832-0.87982-2.154-0.87982-1.8962 0-3.5496 1.4107-3.5496 3.8833z"/>
    <path d="m-20.621-3.3629c0 2.4423 1.608 3.853 3.4131 3.853 1.8052 0 3.4131-1.4107 3.4131-3.853 0-2.4726-1.608-3.8833-3.4131-3.8833-1.8052 0-3.4131 1.4107-3.4131 3.8833zm1.2894 0c0-1.699 0.86465-2.8518 2.1237-2.8518 1.2742 0 2.1237 1.1529 2.1237 2.8518 0 1.6838-0.84948 2.8215-2.1237 2.8215-1.2591 0-2.1237-1.1377-2.1237-2.8215z"/>
    <path d="m-11.839-1.1785c0 1.077 0.37923 1.6686 1.3197 1.6686 0.33372 0 0.5461-0.045508 0.71296-0.12135l-0.16686-0.9405c-0.13652 0.030339-0.1972 0.030339-0.27305 0.030339-0.18203 0-0.3489-0.15169-0.3489-0.5461v-9.405h-1.2439z"/>
    <path d="m-7.9576-1.1785c0 1.077 0.37923 1.6686 1.3197 1.6686 0.33373 0 0.5461-0.045508 0.71296-0.12135l-0.16686-0.9405c-0.13652 0.030339-0.1972 0.030339-0.27305 0.030339-0.18203 0-0.34889-0.15169-0.34889-0.5461v-9.405h-1.2439z"/>
    <path d="m-3.4393-8.5811c0.48542 0 0.86465-0.33373 0.86465-0.80397 0-0.48542-0.37923-0.80397-0.86465-0.80397s-0.86465 0.31856-0.86465 0.80397c0 0.47025 0.37923 0.80397 0.86465 0.80397zm-0.63711 8.8892h1.2439v-7.3723h-1.2439z"/>
    <path d="m-1.1625-0.52622c0.69779 0.57643 1.699 1.0163 2.7456 1.0163 1.7445 0 2.7001-1.0012 2.7001-2.1996 0-1.3956-1.1832-1.8355-2.2451-2.2299-0.83431-0.31856-1.6383-0.5916-1.6383-1.2742 0-0.56127 0.42474-1.0619 1.3501-1.0619 0.65228 0 1.1832 0.27305 1.6838 0.65228l0.5916-0.78881c-0.56127-0.45508-1.3652-0.83431-2.2906-0.83431-1.5928 0-2.5333 0.91016-2.5333 2.0934 0 1.2439 1.1529 1.7445 2.1996 2.1237 0.80397 0.30339 1.6838 0.63711 1.6838 1.3956 0 0.63711-0.48542 1.1529-1.4563 1.1529-0.87982 0-1.5321-0.36406-2.1692-0.87982z"/>
    <path d="m6.6637-8.5811c0.48542 0 0.86465-0.33373 0.86465-0.80397 0-0.48542-0.37923-0.80397-0.86465-0.80397s-0.86465 0.31856-0.86465 0.80397c0 0.47025 0.37923 0.80397 0.86465 0.80397zm-0.63711 8.8892h1.2439v-7.3723h-1.2439z"/>
    <path d="m9.2136-3.3629c0 2.4423 1.6079 3.853 3.4131 3.853s3.4131-1.4107 3.4131-3.853c0-2.4726-1.6079-3.8833-3.4131-3.8833s-3.4131 1.4107-3.4131 3.8833zm1.2894 0c0-1.699 0.86465-2.8518 2.1237-2.8518 1.2742 0 2.1237 1.1529 2.1237 2.8518 0 1.6838-0.84948 2.8215-2.1237 2.8215-1.2591 0-2.1237-1.1377-2.1237-2.8215z"/>
    <path d="m17.996 0.30809h1.2439v-5.3396c0.7433-0.7433 1.2591-1.1377 2.0175-1.1377 0.97084 0 1.3956 0.5916 1.3956 1.972v4.5053h1.2439v-4.6722c0-1.881-0.69779-2.8822-2.2451-2.8822-1.0163 0-1.7748 0.5461-2.4726 1.2439h-0.04551l-0.10618-1.0619h-1.0315z"/>
    <path d="m28.813-3.3629c0 2.4574 1.1984 3.853 3.049 3.853 0.86465 0 1.6535-0.48542 2.2299-1.0467h0.04551l0.10619 0.86465h1.0315v-10.801h-1.2591v2.8367l0.06068 1.2591c-0.65228-0.53093-1.2135-0.84948-2.063-0.84948-1.6838 0-3.2007 1.4866-3.2007 3.8833zm1.2894-0.015169c0-1.6838 0.9405-2.8215 2.1237-2.8215 0.60677 0 1.168 0.21237 1.79 0.77364v3.853c-0.60677 0.68262-1.1984 1.0163-1.881 1.0163-1.2894 0-2.0327-1.0619-2.0327-2.8215z"/>
    <path d="m37.212-3.3629c0 2.4119 1.5624 3.853 3.5345 3.853 1.0012 0 1.79-0.34889 2.4271-0.75847l-0.43991-0.81914c-0.5461 0.34889-1.1377 0.57643-1.8355 0.57643-1.4107 0-2.3664-1.0012-2.4574-2.594h4.9755c0.03034-0.18203 0.04551-0.42474 0.04551-0.68262 0-2.1085-1.0619-3.4586-2.9429-3.4586-1.6838 0-3.3069 1.4714-3.3069 3.8833zm1.2135-0.56127c0.15169-1.4866 1.0922-2.3361 2.1237-2.3361 1.1529 0 1.8203 0.83431 1.8203 2.3361z"/>
    <path d="m45.288-1.9673c0 1.4563 0.53093 2.4574 2.1085 2.4574 0.45508 0 0.95567-0.13652 1.3652-0.27305l-0.24271-0.9405c-0.24271 0.091016-0.57643 0.1972-0.83431 0.1972-0.84948 0-1.1377-0.51576-1.1377-1.4259v-4.0957h1.9872v-1.0163h-1.9872v-2.063h-1.0467l-0.15169 2.063-1.1529 0.075847v0.9405h1.0922z"/>
    <path d="m49.507-3.3629c0 2.4119 1.5624 3.853 3.5345 3.853 1.0012 0 1.79-0.34889 2.4271-0.75847l-0.43991-0.81914c-0.5461 0.34889-1.1377 0.57643-1.8355 0.57643-1.4107 0-2.3664-1.0012-2.4574-2.594h4.9755c0.03034-0.18203 0.04551-0.42474 0.04551-0.68262 0-2.1085-1.0619-3.4586-2.9429-3.4586-1.6838 0-3.3069 1.4714-3.3069 3.8833zm1.2135-0.56127c0.15169-1.4866 1.0922-2.3361 2.1237-2.3361 1.1529 0 1.8203 0.83431 1.8203 2.3361z"/>
    <path d="m57.033-3.3629c0 2.4423 1.5018 3.853 3.4586 3.853 0.87982 0 1.7293-0.36406 2.3968-0.95567l-0.56126-0.81914c-0.43991 0.3944-1.0315 0.7433-1.7293 0.7433-1.3501 0-2.2754-1.1377-2.2754-2.8215 0-1.699 0.97084-2.8518 2.3057-2.8518 0.5916 0 1.0467 0.27305 1.4866 0.65228l0.62194-0.80397c-0.50059-0.47025-1.1832-0.87982-2.154-0.87982-1.8962 0-3.5496 1.4107-3.5496 3.8833z"/>
    <path d="m64.694-1.9673c0 1.4563 0.53093 2.4574 2.1085 2.4574 0.45508 0 0.95567-0.13652 1.3652-0.27305l-0.24271-0.9405c-0.24271 0.091016-0.57644 0.1972-0.83431 0.1972-0.84948 0-1.1377-0.51576-1.1377-1.4259v-4.0957h1.9872v-1.0163h-1.9872v-2.063h-1.0467l-0.15169 2.063-1.1529 0.075847v0.9405h1.0922z"/>
    <path d="m70.245-8.5811c0.48542 0 0.86465-0.33373 0.86465-0.80397 0-0.48542-0.37923-0.80397-0.86465-0.80397-0.48542 0-0.86465 0.31856-0.86465 0.80397 0 0.47025 0.37923 0.80397 0.86465 0.80397zm-0.63711 8.8892h1.2439v-7.3723h-1.2439z"/>
    <path d="m72.794-3.3629c0 2.4423 1.608 3.853 3.4131 3.853s3.4131-1.4107 3.4131-3.853c0-2.4726-1.6079-3.8833-3.4131-3.8833s-3.4131 1.4107-3.4131 3.8833zm1.2894 0c0-1.699 0.86465-2.8518 2.1237-2.8518 1.2742 0 2.1237 1.1529 2.1237 2.8518 0 1.6838-0.84948 2.8215-2.1237 2.8215-1.2591 0-2.1237-1.1377-2.1237-2.8215z"/>
    <path d="m81.577 0.30809h1.2439v-5.3396c0.7433-0.7433 1.2591-1.1377 2.0175-1.1377 0.97084 0 1.3956 0.5916 1.3956 1.972v4.5053h1.2439v-4.6722c0-1.881-0.69779-2.8822-2.2451-2.8822-1.0163 0-1.7748 0.5461-2.4726 1.2439h-0.04551l-0.10619-1.0619h-1.0315z"/>
    <path d="m-18.09 22.43h1.0012l0.10618-0.72813h0.04551c0.65228 0.57644 1.4259 0.91016 2.1085 0.91016 1.6838 0 3.1856-1.4714 3.1856-3.9895 0-2.2754-1.0163-3.7468-2.9277-3.7468-0.81914 0-1.6383 0.43991-2.3057 1.0315l0.03034-1.3349v-2.9429h-1.2439zm1.2439-1.6383v-3.8682c0.69779-0.65228 1.3501-1.0012 1.972-1.0012 1.3956 0 1.9417 1.0922 1.9417 2.7153 0 1.8203-0.89499 2.9277-2.1085 2.9277-0.48542 0-1.1529-0.21237-1.8052-0.77364z"/>
    <path d="m-9.0389 13.541c0.48542 0 0.86465-0.33372 0.86465-0.80398 0-0.48542-0.37923-0.80397-0.86465-0.80397-0.48542 0-0.86465 0.31856-0.86465 0.80397 0 0.47025 0.37923 0.80398 0.86465 0.80398zm-0.63711 8.8892h1.2439v-7.3723h-1.2439z"/>
    <path d="m-5.943 22.43h1.2439v-5.3396c0.7433-0.7433 1.2591-1.1377 2.0175-1.1377 0.97084 0 1.3956 0.5916 1.3956 1.972v4.5053h1.2439v-4.6722c0-1.881-0.69779-2.8822-2.2451-2.8822-1.0163 0-1.7748 0.5461-2.4726 1.2439h-0.045508l-0.10619-1.0619h-1.0315z"/>
    <path d="m1.9887 20.519c0 1.3197 0.92533 2.0934 2.1692 2.0934 0.91016 0 1.7293-0.48542 2.4423-1.0619h0.030339l0.10619 0.87982h1.0315v-4.5205c0-1.8355-0.75847-3.0339-2.5636-3.0339-1.1832 0-2.2147 0.51576-2.8973 0.95567l0.50059 0.86465c0.57643-0.3944 1.3349-0.78881 2.1996-0.78881 1.1984 0 1.5169 0.91016 1.5169 1.8507-3.1401 0.3489-4.5356 1.1529-4.5356 2.7608zm1.2287-0.09102c0-0.9405 0.83431-1.5473 3.3069-1.8507v2.0479c-0.71296 0.63711-1.3046 0.98601-2.0175 0.98601-0.72813 0-1.2894-0.34889-1.2894-1.1832z"/>
    <path d="m10.115 22.43h1.2439v-4.7328c0.50059-1.2439 1.2439-1.699 1.8658-1.699 0.30339 0 0.47025 0.04551 0.71296 0.12136l0.24271-1.0922c-0.24271-0.10618-0.47025-0.15169-0.7888-0.15169-0.83431 0-1.5928 0.5916-2.0934 1.5169h-0.04551l-0.10618-1.3349h-1.0315z"/>
    <path d="m15.185 24.463-0.24271 0.98601c0.24271 0.09102 0.53093 0.15169 0.86465 0.15169 1.4866 0 2.2451-1.1074 2.7608-2.5636l2.776-7.9791h-1.2135l-1.3197 4.0806c-0.1972 0.65228-0.40957 1.4107-0.62194 2.0782h-0.06068c-0.22754-0.68262-0.48542-1.4411-0.71296-2.0782l-1.5018-4.0806h-1.2894l2.958 7.3875-0.16686 0.5461c-0.30339 0.91016-0.83431 1.5776-1.6686 1.5776-0.18203 0-0.40957-0.06068-0.56127-0.10618z"/>
    <path d="m27.031 21.763c0.68262 0.53093 1.3652 0.84948 2.0479 0.84948 1.6838 0 3.1856-1.4714 3.1856-3.9744 0-2.2906-1.0163-3.762-2.9125-3.762-0.86465 0-1.6838 0.47025-2.3512 1.0315h-0.04551l-0.10618-0.84948h-1.0315v10.482h1.2439v-2.4878zm0.03034-0.97084v-3.8682c0.72813-0.65228 1.3501-1.0012 1.972-1.0012 1.3956 0 1.9417 1.0922 1.9417 2.7153 0 1.8203-0.89499 2.9277-2.1085 2.9277-0.48542 0-1.1377-0.21237-1.8052-0.77364z"/>
    <path d="m33.661 20.519c0 1.3197 0.92533 2.0934 2.1692 2.0934 0.91016 0 1.7293-0.48542 2.4423-1.0619h0.03034l0.10618 0.87982h1.0315v-4.5205c0-1.8355-0.75847-3.0339-2.5636-3.0339-1.1832 0-2.2147 0.51576-2.8973 0.95567l0.50059 0.86465c0.57644-0.3944 1.3349-0.78881 2.1996-0.78881 1.1984 0 1.5169 0.91016 1.5169 1.8507-3.1401 0.3489-4.5356 1.1529-4.5356 2.7608zm1.2287-0.09102c0-0.9405 0.83431-1.5473 3.3069-1.8507v2.0479c-0.71296 0.63711-1.3046 0.98601-2.0175 0.98601-0.72813 0-1.2894-0.34889-1.2894-1.1832z"/>
    <path d="m41.787 22.43h1.2439v-4.7328c0.50059-1.2439 1.2439-1.699 1.8658-1.699 0.30339 0 0.47025 0.04551 0.71296 0.12136l0.24271-1.0922c-0.24271-0.10618-0.47025-0.15169-0.7888-0.15169-0.83431 0-1.5928 0.5916-2.0934 1.5169h-0.04551l-0.10619-1.3349h-1.0315z"/>
    <path d="m47.273 20.155c0 1.4563 0.53093 2.4574 2.1085 2.4574 0.45508 0 0.95567-0.13652 1.3652-0.27305l-0.24271-0.9405c-0.24271 0.09102-0.57644 0.1972-0.83431 0.1972-0.84948 0-1.1377-0.51576-1.1377-1.4259v-4.0957h1.9872v-1.0163h-1.9872v-2.063h-1.0467l-0.15169 2.063-1.1529 0.07585v0.9405h1.0922z"/>
    <path d="m52.824 13.541c0.48542 0 0.86465-0.33372 0.86465-0.80398 0-0.48542-0.37923-0.80397-0.86465-0.80397-0.48542 0-0.86465 0.31856-0.86465 0.80397 0 0.47025 0.37923 0.80398 0.86465 0.80398zm-0.63711 8.8892h1.2439v-7.3723h-1.2439z"/>
    <path d="m56.132 20.155c0 1.4563 0.53093 2.4574 2.1085 2.4574 0.45508 0 0.95567-0.13652 1.3652-0.27305l-0.24271-0.9405c-0.24271 0.09102-0.57644 0.1972-0.83431 0.1972-0.84948 0-1.1377-0.51576-1.1377-1.4259v-4.0957h1.9872v-1.0163h-1.9872v-2.063h-1.0467l-0.15169 2.063-1.1529 0.07585v0.9405h1.0922z"/>
    <path d="m61.682 13.541c0.48542 0 0.86465-0.33372 0.86465-0.80398 0-0.48542-0.37923-0.80397-0.86465-0.80397-0.48542 0-0.86465 0.31856-0.86465 0.80397 0 0.47025 0.37923 0.80398 0.86465 0.80398zm-0.63711 8.8892h1.2439v-7.3723h-1.2439z"/>
    <path d="m64.232 18.759c0 2.4423 1.608 3.853 3.4131 3.853s3.4131-1.4107 3.4131-3.853c0-2.4726-1.6079-3.8833-3.4131-3.8833s-3.4131 1.4107-3.4131 3.8833zm1.2894 0c0-1.699 0.86465-2.8518 2.1237-2.8518 1.2742 0 2.1237 1.1529 2.1237 2.8518 0 1.6838-0.84948 2.8215-2.1237 2.8215-1.2591 0-2.1237-1.1377-2.1237-2.8215z"/>
    <path d="m73.015 22.43h1.2439v-5.3396c0.7433-0.7433 1.2591-1.1377 2.0175-1.1377 0.97084 0 1.3956 0.5916 1.3956 1.972v4.5053h1.2439v-4.6722c0-1.881-0.69779-2.8822-2.2451-2.8822-1.0163 0-1.7748 0.5461-2.4726 1.2439h-0.04551l-0.10618-1.0619h-1.0315z"/>
   </g>
   <g transform="scale(1.0006 .99942)" aria-label="sounds added music added">
    <path d="m200.92-22.648c0.69779 0.57643 1.699 1.0163 2.7456 1.0163 1.7445 0 2.7001-1.0012 2.7001-2.1996 0-1.3956-1.1832-1.8355-2.2451-2.2299-0.83431-0.31856-1.6383-0.5916-1.6383-1.2742 0-0.56127 0.42474-1.0619 1.3501-1.0619 0.65228 0 1.1832 0.27305 1.6838 0.65228l0.5916-0.78881c-0.56126-0.45508-1.3652-0.83431-2.2906-0.83431-1.5928 0-2.5333 0.91016-2.5333 2.0934 0 1.2439 1.1529 1.7445 2.1996 2.1237 0.80397 0.30339 1.6838 0.63711 1.6838 1.3956 0 0.63711-0.48542 1.1529-1.4563 1.1529-0.87982 0-1.5321-0.36406-2.1692-0.87982z"/>
    <path d="m207.57-25.485c0 2.4423 1.608 3.853 3.4131 3.853 1.8052 0 3.4131-1.4107 3.4131-3.853 0-2.4726-1.608-3.8834-3.4131-3.8834-1.8052 0-3.4131 1.4107-3.4131 3.8834zm1.2894 0c0-1.699 0.86465-2.8518 2.1237-2.8518 1.2742 0 2.1237 1.1529 2.1237 2.8518 0 1.6838-0.84948 2.8215-2.1237 2.8215-1.2591 0-2.1237-1.1377-2.1237-2.8215z"/>
    <path d="m216.24-24.514c0 1.881 0.69779 2.8822 2.2602 2.8822 1.0164 0 1.7445-0.53093 2.4271-1.3349h0.0455l0.10619 1.1529h1.0315v-7.3723h-1.2439v5.2334c-0.69779 0.86465-1.2287 1.2439-1.9872 1.2439-0.97084 0-1.3804-0.5916-1.3804-1.972v-4.5053h-1.2591z"/>
    <path d="m224.61-21.814h1.2439v-5.3396c0.7433-0.7433 1.2591-1.1377 2.0175-1.1377 0.97083 0 1.3956 0.5916 1.3956 1.972v4.5053h1.2439v-4.6722c0-1.881-0.69779-2.8822-2.2451-2.8822-1.0164 0-1.7748 0.5461-2.4726 1.2439h-0.0455l-0.10619-1.0619h-1.0315z"/>
    <path d="m232.38-25.485c0 2.4574 1.1984 3.853 3.049 3.853 0.86465 0 1.6535-0.48542 2.2299-1.0467h0.0455l0.10618 0.86465h1.0315v-10.801h-1.2591v2.8367l0.0607 1.2591c-0.65228-0.53093-1.2136-0.84948-2.063-0.84948-1.6838 0-3.2007 1.4866-3.2007 3.8834zm1.2894-0.01517c0-1.6838 0.94049-2.8215 2.1237-2.8215 0.60678 0 1.168 0.21237 1.79 0.77364v3.853c-0.60677 0.68262-1.1984 1.0163-1.881 1.0163-1.2894 0-2.0327-1.0619-2.0327-2.8215z"/>
    <path d="m240.5-22.648c0.69779 0.57643 1.699 1.0163 2.7456 1.0163 1.7445 0 2.7001-1.0012 2.7001-2.1996 0-1.3956-1.1832-1.8355-2.2451-2.2299-0.83432-0.31856-1.6383-0.5916-1.6383-1.2742 0-0.56127 0.42474-1.0619 1.3501-1.0619 0.65228 0 1.1832 0.27305 1.6838 0.65228l0.59161-0.78881c-0.56127-0.45508-1.3652-0.83431-2.2906-0.83431-1.5928 0-2.5333 0.91016-2.5333 2.0934 0 1.2439 1.1529 1.7445 2.1996 2.1237 0.80398 0.30339 1.6838 0.63711 1.6838 1.3956 0 0.63711-0.48542 1.1529-1.4563 1.1529-0.87982 0-1.5321-0.36406-2.1692-0.87982z"/>
    <path d="m250.38-23.725c0 1.3197 0.92533 2.0934 2.1692 2.0934 0.91016 0 1.7293-0.48542 2.4423-1.0619h0.0303l0.10619 0.87982h1.0315v-4.5205c0-1.8355-0.75847-3.0339-2.5636-3.0339-1.1832 0-2.2147 0.51576-2.8973 0.95567l0.50059 0.86465c0.57643-0.3944 1.3349-0.7888 2.1996-0.7888 1.1984 0 1.5169 0.91016 1.5169 1.8507-3.1401 0.34889-4.5356 1.1529-4.5356 2.7608zm1.2287-0.09102c0-0.9405 0.83431-1.5473 3.3069-1.8507v2.0479c-0.71296 0.63711-1.3046 0.98601-2.0175 0.98601-0.72812 0-1.2894-0.3489-1.2894-1.1832z"/>
    <path d="m257.98-25.485c0 2.4574 1.1984 3.853 3.049 3.853 0.86466 0 1.6535-0.48542 2.2299-1.0467h0.0455l0.10619 0.86465h1.0315v-10.801h-1.259v2.8367l0.0607 1.2591c-0.65228-0.53093-1.2136-0.84948-2.063-0.84948-1.6838 0-3.2007 1.4866-3.2007 3.8834zm1.2894-0.01517c0-1.6838 0.9405-2.8215 2.1237-2.8215 0.60677 0 1.168 0.21237 1.79 0.77364v3.853c-0.60677 0.68262-1.1984 1.0163-1.881 1.0163-1.2894 0-2.0327-1.0619-2.0327-2.8215z"/>
    <path d="m266.39-25.485c0 2.4574 1.1984 3.853 3.049 3.853 0.86465 0 1.6534-0.48542 2.2299-1.0467h0.0455l0.10618 0.86465h1.0315v-10.801h-1.2591v2.8367l0.0607 1.2591c-0.65228-0.53093-1.2136-0.84948-2.063-0.84948-1.6838 0-3.2007 1.4866-3.2007 3.8834zm1.2894-0.01517c0-1.6838 0.9405-2.8215 2.1237-2.8215 0.60677 0 1.168 0.21237 1.79 0.77364v3.853c-0.60677 0.68262-1.1984 1.0163-1.881 1.0163-1.2894 0-2.0327-1.0619-2.0327-2.8215z"/>
    <path d="m274.79-25.485c0 2.4119 1.5624 3.853 3.5344 3.853 1.0012 0 1.79-0.3489 2.4271-0.75847l-0.43991-0.81914c-0.5461 0.3489-1.1377 0.57644-1.8355 0.57644-1.4108 0-2.3664-1.0012-2.4574-2.594h4.9756c0.0303-0.18203 0.0455-0.42474 0.0455-0.68262 0-2.1085-1.0618-3.4586-2.9428-3.4586-1.6838 0-3.3069 1.4714-3.3069 3.8834zm1.2135-0.56127c0.1517-1.4866 1.0922-2.3361 2.1237-2.3361 1.1529 0 1.8203 0.83431 1.8203 2.3361z"/>
    <path d="m282.33-25.485c0 2.4574 1.1984 3.853 3.049 3.853 0.86465 0 1.6534-0.48542 2.2299-1.0467h0.0455l0.10618 0.86465h1.0315v-10.801h-1.2591v2.8367l0.0607 1.2591c-0.65228-0.53093-1.2136-0.84948-2.063-0.84948-1.6838 0-3.2007 1.4866-3.2007 3.8834zm1.2894-0.01517c0-1.6838 0.9405-2.8215 2.1237-2.8215 0.60677 0 1.168 0.21237 1.79 0.77364v3.853c-0.60677 0.68262-1.1984 1.0163-1.881 1.0163-1.2894 0-2.0327-1.0619-2.0327-2.8215z"/>
    <path d="m205.8 0.30809h1.2439v-5.3396c0.68262-0.75847 1.3046-1.1377 1.8507-1.1377 0.9405 0 1.3804 0.5916 1.3804 1.972v4.5053h1.2439v-5.3396c0.68262-0.75847 1.2742-1.1377 1.8507-1.1377 0.92533 0 1.3652 0.5916 1.3652 1.972v4.5053h1.2439v-4.6722c0-1.881-0.72813-2.8822-2.2451-2.8822-0.89499 0-1.6535 0.57643-2.4271 1.4107-0.30339-0.87982-0.91016-1.4107-2.0327-1.4107-0.87983 0-1.6535 0.5461-2.2906 1.2439h-0.0455l-0.10619-1.0619h-1.0315z"/>
    <path d="m218.26-2.3921c0 1.881 0.69779 2.8822 2.2602 2.8822 1.0163 0 1.7445-0.53093 2.4271-1.3349h0.0455l0.10619 1.1529h1.0315v-7.3723h-1.2439v5.2334c-0.69779 0.86465-1.2287 1.2439-1.9872 1.2439-0.97083 0-1.3804-0.5916-1.3804-1.972v-4.5053h-1.259z"/>
    <path d="m225.81-0.52622c0.69779 0.57643 1.699 1.0163 2.7456 1.0163 1.7445 0 2.7001-1.0012 2.7001-2.1996 0-1.3956-1.1832-1.8355-2.2451-2.2299-0.83431-0.31856-1.6383-0.5916-1.6383-1.2742 0-0.56127 0.42475-1.0619 1.3501-1.0619 0.65229 0 1.1832 0.27305 1.6838 0.65228l0.59161-0.78881c-0.56127-0.45508-1.3652-0.83431-2.2906-0.83431-1.5928 0-2.5333 0.91016-2.5333 2.0934 0 1.2439 1.1529 1.7445 2.1996 2.1237 0.80397 0.30339 1.6838 0.63711 1.6838 1.3956 0 0.63711-0.48542 1.1529-1.4563 1.1529-0.87982 0-1.5321-0.36406-2.1692-0.87982z"/>
    <path d="m233.64-8.5811c0.48542 0 0.86466-0.33373 0.86466-0.80397 0-0.48542-0.37924-0.80397-0.86466-0.80397-0.48541 0-0.86465 0.31856-0.86465 0.80397 0 0.47025 0.37924 0.80397 0.86465 0.80397zm-0.63711 8.8892h1.2439v-7.3723h-1.2439z"/>
    <path d="m236.19-3.3629c0 2.4423 1.5018 3.853 3.4586 3.853 0.87982 0 1.7293-0.36406 2.3968-0.95567l-0.56127-0.81914c-0.43991 0.3944-1.0315 0.7433-1.7293 0.7433-1.3501 0-2.2754-1.1377-2.2754-2.8215 0-1.699 0.97084-2.8518 2.3057-2.8518 0.5916 0 1.0467 0.27305 1.4866 0.65228l0.62194-0.80397c-0.50058-0.47025-1.1832-0.87982-2.154-0.87982-1.8962 0-3.5496 1.4107-3.5496 3.8833z"/>
    <path d="m246.32-1.6032c0 1.3197 0.92533 2.0934 2.1692 2.0934 0.91016 0 1.7293-0.48542 2.4423-1.0619h0.0303l0.10619 0.87982h1.0315v-4.5205c0-1.8355-0.75847-3.0339-2.5636-3.0339-1.1832 0-2.2147 0.51576-2.8973 0.95567l0.50059 0.86465c0.57643-0.3944 1.3349-0.78881 2.1996-0.78881 1.1984 0 1.5169 0.91016 1.5169 1.8507-3.1401 0.34889-4.5356 1.1529-4.5356 2.7608zm1.2287-0.091016c0-0.9405 0.83431-1.5473 3.3069-1.8507v2.0479c-0.71296 0.63711-1.3046 0.98601-2.0175 0.98601-0.72812 0-1.2894-0.34889-1.2894-1.1832z"/>
    <path d="m253.92-3.3629c0 2.4574 1.1984 3.853 3.049 3.853 0.86465 0 1.6535-0.48542 2.2299-1.0467h0.0455l0.10619 0.86465h1.0315v-10.801h-1.259v2.8367l0.0607 1.2591c-0.65228-0.53093-1.2135-0.84948-2.063-0.84948-1.6838 0-3.2007 1.4866-3.2007 3.8833zm1.2894-0.015169c0-1.6838 0.9405-2.8215 2.1237-2.8215 0.60678 0 1.168 0.21237 1.79 0.77364v3.853c-0.60678 0.68262-1.1984 1.0163-1.881 1.0163-1.2894 0-2.0327-1.0619-2.0327-2.8215z"/>
    <path d="m262.33-3.3629c0 2.4574 1.1984 3.853 3.049 3.853 0.86465 0 1.6535-0.48542 2.2299-1.0467h0.0455l0.10619 0.86465h1.0315v-10.801h-1.259v2.8367l0.0607 1.2591c-0.65228-0.53093-1.2135-0.84948-2.063-0.84948-1.6838 0-3.2007 1.4866-3.2007 3.8833zm1.2894-0.015169c0-1.6838 0.9405-2.8215 2.1237-2.8215 0.60677 0 1.168 0.21237 1.79 0.77364v3.853c-0.60678 0.68262-1.1984 1.0163-1.881 1.0163-1.2894 0-2.0327-1.0619-2.0327-2.8215z"/>
    <path d="m270.73-3.3629c0 2.4119 1.5624 3.853 3.5345 3.853 1.0012 0 1.79-0.34889 2.4271-0.75847l-0.43991-0.81914c-0.54609 0.34889-1.1377 0.57643-1.8355 0.57643-1.4108 0-2.3664-1.0012-2.4574-2.594h4.9755c0.0303-0.18203 0.0455-0.42474 0.0455-0.68262 0-2.1085-1.0618-3.4586-2.9428-3.4586-1.6838 0-3.3069 1.4714-3.3069 3.8833zm1.2136-0.56127c0.15169-1.4866 1.0922-2.3361 2.1237-2.3361 1.1529 0 1.8203 0.83431 1.8203 2.3361z"/>
    <path d="m278.27-3.3629c0 2.4574 1.1984 3.853 3.049 3.853 0.86466 0 1.6535-0.48542 2.2299-1.0467h0.0455l0.10619 0.86465h1.0315v-10.801h-1.259v2.8367l0.0607 1.2591c-0.65229-0.53093-1.2136-0.84948-2.063-0.84948-1.6838 0-3.2007 1.4866-3.2007 3.8833zm1.2894-0.015169c0-1.6838 0.9405-2.8215 2.1237-2.8215 0.60677 0 1.168 0.21237 1.79 0.77364v3.853c-0.60677 0.68262-1.1984 1.0163-1.881 1.0163-1.2894 0-2.0327-1.0619-2.0327-2.8215z"/>
   </g>
   <g transform="scale(1.0006 .99942)" aria-label="Tom Hall quits AI added">
    <path d="m-11.803 91.956h1.2591v-8.8892h3.0187v-1.0619h-7.2965v1.0619h3.0187z"/>
    <path d="m-7.452 88.285c0 2.4423 1.6079 3.853 3.4131 3.853s3.4131-1.4107 3.4131-3.853c0-2.4726-1.6079-3.8834-3.4131-3.8834s-3.4131 1.4107-3.4131 3.8834zm1.2894 0c0-1.699 0.86465-2.8518 2.1237-2.8518 1.2742 0 2.1237 1.1529 2.1237 2.8518 0 1.6838-0.84948 2.8215-2.1237 2.8215-1.2591 0-2.1237-1.1377-2.1237-2.8215z"/>
    <path d="m1.3306 91.956h1.2439v-5.3396c0.68262-0.75847 1.3046-1.1377 1.8507-1.1377 0.9405 0 1.3804 0.5916 1.3804 1.972v4.5053h1.2439v-5.3396c0.68262-0.75847 1.2742-1.1377 1.8507-1.1377 0.92533 0 1.3652 0.5916 1.3652 1.972v4.5053h1.2439v-4.6722c0-1.881-0.72813-2.8822-2.2451-2.8822-0.89499 0-1.6535 0.57643-2.4271 1.4107-0.30339-0.87982-0.91016-1.4107-2.0327-1.4107-0.87982 0-1.6535 0.5461-2.2906 1.2439h-0.045508l-0.10619-1.0619h-1.0315z"/>
    <path d="m17.02 91.956h1.2742v-4.6873h4.6266v4.6873h1.2591v-9.9511h-1.2591v4.1716h-4.6266v-4.1716h-1.2742z"/>
    <path d="m26.387 90.045c0 1.3197 0.92533 2.0934 2.1692 2.0934 0.91016 0 1.7293-0.48542 2.4423-1.0619h0.03034l0.10618 0.87982h1.0315v-4.5205c0-1.8355-0.75847-3.0339-2.5636-3.0339-1.1832 0-2.2147 0.51576-2.8973 0.95567l0.50059 0.86465c0.57644-0.3944 1.3349-0.7888 2.1996-0.7888 1.1984 0 1.5169 0.91016 1.5169 1.8507-3.1401 0.3489-4.5356 1.1529-4.5356 2.7608zm1.2287-0.09102c0-0.9405 0.83431-1.5473 3.3069-1.8507v2.0479c-0.71296 0.63711-1.3046 0.98601-2.0175 0.98601-0.72813 0-1.2894-0.3489-1.2894-1.1832z"/>
    <path d="m34.514 90.47c0 1.077 0.37923 1.6686 1.3197 1.6686 0.33373 0 0.5461-0.04551 0.71296-0.12136l-0.16686-0.9405c-0.13652 0.03034-0.1972 0.03034-0.27305 0.03034-0.18203 0-0.34889-0.15169-0.34889-0.5461v-9.405h-1.2439z"/>
    <path d="m38.395 90.47c0 1.077 0.37923 1.6686 1.3197 1.6686 0.33373 0 0.5461-0.04551 0.71296-0.12136l-0.16686-0.9405c-0.13652 0.03034-0.1972 0.03034-0.27305 0.03034-0.18203 0-0.34889-0.15169-0.34889-0.5461v-9.405h-1.2439z"/>
    <path d="m44.797 88.285c0 2.4574 1.1984 3.853 3.049 3.853 0.84948 0 1.6231-0.45508 2.2147-1.0012l-0.06068 1.3046v2.6243h1.2591v-10.482h-1.0012l-0.12136 0.69779h-0.03034c-0.66745-0.57644-1.2591-0.87982-2.1085-0.87982-1.6838 0-3.2007 1.4866-3.2007 3.8834zm1.2894-0.01517c0-1.6838 0.9405-2.8215 2.1237-2.8215 0.60677 0 1.168 0.21237 1.79 0.77364v3.853c-0.60677 0.68262-1.1984 1.0163-1.881 1.0163-1.2894 0-2.0327-1.0619-2.0327-2.8215z"/>
    <path d="m53.576 89.256c0 1.881 0.69779 2.8822 2.2602 2.8822 1.0163 0 1.7445-0.53093 2.4271-1.3349h0.04551l0.10618 1.1529h1.0315v-7.3723h-1.2439v5.2334c-0.69779 0.86465-1.2287 1.2439-1.9872 1.2439-0.97084 0-1.3804-0.5916-1.3804-1.972v-4.5053h-1.2591z"/>
    <path d="m62.586 83.067c0.48542 0 0.86465-0.33372 0.86465-0.80398 0-0.48542-0.37923-0.80397-0.86465-0.80397-0.48542 0-0.86465 0.31856-0.86465 0.80397 0 0.47025 0.37923 0.80398 0.86465 0.80398zm-0.63711 8.8892h1.2439v-7.3723h-1.2439z"/>
    <path d="m65.894 89.681c0 1.4563 0.53093 2.4574 2.1085 2.4574 0.45508 0 0.95567-0.13652 1.3652-0.27305l-0.24271-0.9405c-0.24271 0.09102-0.57644 0.1972-0.83431 0.1972-0.84948 0-1.1377-0.51576-1.1377-1.4259v-4.0957h1.9872v-1.0163h-1.9872v-2.063h-1.0467l-0.15169 2.063-1.1529 0.07585v0.9405h1.0922z"/>
    <path d="m69.988 91.122c0.69779 0.57644 1.699 1.0163 2.7456 1.0163 1.7445 0 2.7001-1.0012 2.7001-2.1996 0-1.3956-1.1832-1.8355-2.2451-2.2299-0.83431-0.31856-1.6383-0.5916-1.6383-1.2742 0-0.56127 0.42474-1.0619 1.3501-1.0619 0.65228 0 1.1832 0.27305 1.6838 0.65228l0.5916-0.78881c-0.56126-0.45508-1.3652-0.83431-2.2906-0.83431-1.5928 0-2.5333 0.91016-2.5333 2.0934 0 1.2439 1.1529 1.7445 2.1996 2.1237 0.80398 0.30339 1.6838 0.63711 1.6838 1.3956 0 0.63711-0.48542 1.1529-1.4563 1.1529-0.87982 0-1.5321-0.36406-2.1692-0.87982z"/>
    <path d="m5.1094 110.03 0.48542-1.5169c0.34889-1.1074 0.66745-2.1996 0.98601-3.3524h0.060677c0.31856 1.1529 0.63711 2.2451 0.98601 3.3524l0.47025 1.5169zm4.2626 4.0502h1.3349l-3.3676-9.9511h-1.4259l-3.3676 9.9511h1.2894l0.95567-3.0339h3.6255z"/>
    <path d="m12.013 114.08h1.2742v-9.9511h-1.2742z"/>
    <path d="m18.536 112.17c0 1.3197 0.92533 2.0934 2.1692 2.0934 0.91016 0 1.7293-0.48542 2.4423-1.0619h0.03034l0.10618 0.87982h1.0315v-4.5205c0-1.8355-0.75847-3.0339-2.5636-3.0339-1.1832 0-2.2147 0.51576-2.8973 0.95567l0.50059 0.86465c0.57644-0.3944 1.3349-0.7888 2.1996-0.7888 1.1984 0 1.5169 0.91016 1.5169 1.8507-3.1401 0.34889-4.5356 1.1529-4.5356 2.7608zm1.2287-0.091c0-0.9405 0.83431-1.5473 3.3069-1.8507v2.0479c-0.71296 0.63711-1.3046 0.98601-2.0175 0.98601-0.72813 0-1.2894-0.3489-1.2894-1.1832z"/>
    <path d="m26.131 110.41c0 2.4574 1.1984 3.853 3.049 3.853 0.86465 0 1.6535-0.48542 2.2299-1.0467h0.04551l0.10618 0.86465h1.0315v-10.801h-1.2591v2.8367l0.06068 1.2591c-0.65228-0.53093-1.2135-0.84949-2.063-0.84949-1.6838 0-3.2007 1.4866-3.2007 3.8834zm1.2894-0.0152c0-1.6838 0.9405-2.8215 2.1237-2.8215 0.60677 0 1.168 0.21237 1.79 0.77363v3.853c-0.60677 0.68262-1.1984 1.0163-1.881 1.0163-1.2894 0-2.0327-1.0618-2.0327-2.8215z"/>
    <path d="m34.546 110.41c0 2.4574 1.1984 3.853 3.049 3.853 0.86465 0 1.6535-0.48542 2.2299-1.0467h0.04551l0.10618 0.86465h1.0315v-10.801h-1.2591v2.8367l0.06068 1.2591c-0.65228-0.53093-1.2135-0.84949-2.063-0.84949-1.6838 0-3.2007 1.4866-3.2007 3.8834zm1.2894-0.0152c0-1.6838 0.9405-2.8215 2.1237-2.8215 0.60677 0 1.168 0.21237 1.79 0.77363v3.853c-0.60677 0.68262-1.1984 1.0163-1.881 1.0163-1.2894 0-2.0327-1.0618-2.0327-2.8215z"/>
    <path d="m42.945 110.41c0 2.4119 1.5624 3.853 3.5345 3.853 1.0012 0 1.79-0.3489 2.4271-0.75847l-0.43991-0.81915c-0.5461 0.3489-1.1377 0.57644-1.8355 0.57644-1.4107 0-2.3664-1.0012-2.4574-2.594h4.9755c0.03034-0.18203 0.04551-0.42474 0.04551-0.68262 0-2.1085-1.0619-3.4586-2.9429-3.4586-1.6838 0-3.3069 1.4714-3.3069 3.8834zm1.2135-0.56126c0.15169-1.4866 1.0922-2.3361 2.1237-2.3361 1.1529 0 1.8203 0.83431 1.8203 2.3361z"/>
    <path d="m50.485 110.41c0 2.4574 1.1984 3.853 3.049 3.853 0.86465 0 1.6535-0.48542 2.2299-1.0467h0.04551l0.10619 0.86465h1.0315v-10.801h-1.2591v2.8367l0.06068 1.2591c-0.65228-0.53093-1.2135-0.84949-2.063-0.84949-1.6838 0-3.2007 1.4866-3.2007 3.8834zm1.2894-0.0152c0-1.6838 0.9405-2.8215 2.1237-2.8215 0.60677 0 1.168 0.21237 1.79 0.77363v3.853c-0.60677 0.68262-1.1984 1.0163-1.881 1.0163-1.2894 0-2.0327-1.0618-2.0327-2.8215z"/>
   </g>
   <g transform="scale(1.0006 .99942)" aria-label="Sandy Petersen joined Dave Taylor joined">
    <path d="m175.34 90.667c0.86465 0.89499 2.0782 1.4714 3.4738 1.4714 2.0934 0 3.3979-1.2591 3.3979-2.8367 0-1.4714-0.89499-2.154-2.0479-2.6546l-1.4259-0.60677c-0.77364-0.33372-1.6535-0.69779-1.6535-1.6535 0-0.89499 0.7433-1.4563 1.8658-1.4563 0.91016 0 1.6535 0.36406 2.2602 0.9405l0.66745-0.81914c-0.69779-0.72813-1.7445-1.2287-2.9277-1.2287-1.8052 0-3.14 1.1225-3.14 2.6395 0 1.4563 1.0922 2.1692 2.0175 2.5636l1.4259 0.62194c0.9405 0.42474 1.6686 0.7433 1.6686 1.7596 0 0.97084-0.77363 1.6231-2.0782 1.6231-1.0467 0-2.0327-0.50059-2.7456-1.2439z"/>
    <path d="m183.65 90.045c0 1.3197 0.92533 2.0934 2.1692 2.0934 0.91016 0 1.7293-0.48542 2.4423-1.0619h0.0303l0.10619 0.87982h1.0315v-4.5205c0-1.8355-0.75846-3.0339-2.5636-3.0339-1.1832 0-2.2147 0.51576-2.8974 0.95567l0.50059 0.86465c0.57644-0.3944 1.3349-0.7888 2.1996-0.7888 1.1984 0 1.5169 0.91016 1.5169 1.8507-3.14 0.3489-4.5356 1.1529-4.5356 2.7608zm1.2287-0.09102c0-0.9405 0.83432-1.5473 3.3069-1.8507v2.0479c-0.71296 0.63711-1.3046 0.98601-2.0175 0.98601-0.72813 0-1.2894-0.3489-1.2894-1.1832z"/>
    <path d="m191.77 91.956h1.2439v-5.3396c0.7433-0.7433 1.2591-1.1377 2.0175-1.1377 0.97084 0 1.3956 0.5916 1.3956 1.972v4.5053h1.2439v-4.6722c0-1.881-0.69779-2.8822-2.2451-2.8822-1.0164 0-1.7748 0.5461-2.4726 1.2439h-0.0455l-0.10619-1.0619h-1.0315z"/>
    <path d="m199.54 88.285c0 2.4574 1.1984 3.853 3.049 3.853 0.86465 0 1.6534-0.48542 2.2299-1.0467h0.0455l0.10618 0.86465h1.0315v-10.801h-1.2591v2.8367l0.0607 1.2591c-0.65228-0.53093-1.2136-0.84948-2.063-0.84948-1.6838 0-3.2007 1.4866-3.2007 3.8834zm1.2894-0.01517c0-1.6838 0.9405-2.8215 2.1237-2.8215 0.60677 0 1.168 0.21237 1.79 0.77364v3.853c-0.60677 0.68262-1.1984 1.0163-1.881 1.0163-1.2894 0-2.0327-1.0619-2.0327-2.8215z"/>
    <path d="m207.98 93.989-0.24271 0.98601c0.24271 0.09102 0.53093 0.15169 0.86465 0.15169 1.4866 0 2.2451-1.1074 2.7608-2.5636l2.776-7.9791h-1.2136l-1.3197 4.0806c-0.1972 0.65228-0.40957 1.4107-0.62194 2.0782h-0.0607c-0.22754-0.68262-0.48542-1.4411-0.71296-2.0782l-1.5018-4.0806h-1.2894l2.958 7.3875-0.16686 0.5461c-0.30338 0.91016-0.83431 1.5776-1.6686 1.5776-0.18204 0-0.40958-0.06068-0.56127-0.10618z"/>
    <path d="m218.69 91.956h1.2742v-3.944h1.79c2.1692 0 3.671-0.98601 3.671-3.0794 0-2.1844-1.4714-2.9277-3.671-2.9277h-3.0642zm1.2742-4.9755v-3.9592h1.6231c1.7141 0 2.5788 0.47025 2.5788 1.9113 0 1.4107-0.83432 2.0479-2.5788 2.0479z"/>
    <path d="m226.36 88.285c0 2.4119 1.5624 3.853 3.5345 3.853 1.0012 0 1.79-0.3489 2.4271-0.75847l-0.43991-0.81914c-0.54609 0.3489-1.1377 0.57644-1.8355 0.57644-1.4108 0-2.3664-1.0012-2.4574-2.594h4.9755c0.0303-0.18203 0.0455-0.42474 0.0455-0.68262 0-2.1085-1.0618-3.4586-2.9428-3.4586-1.6838 0-3.3069 1.4714-3.3069 3.8834zm1.2136-0.56127c0.15169-1.4866 1.0922-2.3361 2.1237-2.3361 1.1529 0 1.8203 0.83431 1.8203 2.3361z"/>
    <path d="m234.44 89.681c0 1.4563 0.53093 2.4574 2.1085 2.4574 0.45508 0 0.95567-0.13652 1.3652-0.27305l-0.24271-0.9405c-0.24271 0.09102-0.57644 0.1972-0.83432 0.1972-0.84948 0-1.1377-0.51576-1.1377-1.4259v-4.0957h1.9872v-1.0163h-1.9872v-2.063h-1.0467l-0.15169 2.063-1.1529 0.07585v0.9405h1.0922z"/>
    <path d="m238.66 88.285c0 2.4119 1.5624 3.853 3.5344 3.853 1.0012 0 1.79-0.3489 2.4271-0.75847l-0.43991-0.81914c-0.5461 0.3489-1.1377 0.57644-1.8355 0.57644-1.4108 0-2.3664-1.0012-2.4574-2.594h4.9755c0.0303-0.18203 0.0455-0.42474 0.0455-0.68262 0-2.1085-1.0619-3.4586-2.9429-3.4586-1.6838 0-3.3069 1.4714-3.3069 3.8834zm1.2136-0.56127c0.15169-1.4866 1.0922-2.3361 2.1237-2.3361 1.1529 0 1.8203 0.83431 1.8203 2.3361z"/>
    <path d="m246.73 91.956h1.2439v-4.7328c0.50059-1.2439 1.2439-1.699 1.8658-1.699 0.30338 0 0.47025 0.04551 0.71295 0.12135l0.24271-1.0922c-0.24271-0.10618-0.47025-0.15169-0.7888-0.15169-0.83431 0-1.5928 0.5916-2.0934 1.5169h-0.0455l-0.10618-1.3349h-1.0315z"/>
    <path d="m251.04 91.122c0.69779 0.57644 1.699 1.0163 2.7456 1.0163 1.7445 0 2.7001-1.0012 2.7001-2.1996 0-1.3956-1.1832-1.8355-2.2451-2.2299-0.83431-0.31856-1.6383-0.5916-1.6383-1.2742 0-0.56127 0.42474-1.0619 1.3501-1.0619 0.65228 0 1.1832 0.27305 1.6838 0.65228l0.5916-0.78881c-0.56126-0.45508-1.3652-0.83431-2.2906-0.83431-1.5928 0-2.5333 0.91016-2.5333 2.0934 0 1.2439 1.1529 1.7445 2.1996 2.1237 0.80397 0.30339 1.6838 0.63711 1.6838 1.3956 0 0.63711-0.48541 1.1529-1.4562 1.1529-0.87982 0-1.5321-0.36406-2.1692-0.87982z"/>
    <path d="m257.68 88.285c0 2.4119 1.5624 3.853 3.5345 3.853 1.0012 0 1.79-0.3489 2.4271-0.75847l-0.43991-0.81914c-0.5461 0.3489-1.1377 0.57644-1.8355 0.57644-1.4108 0-2.3664-1.0012-2.4574-2.594h4.9755c0.0303-0.18203 0.0455-0.42474 0.0455-0.68262 0-2.1085-1.0618-3.4586-2.9428-3.4586-1.6838 0-3.3069 1.4714-3.3069 3.8834zm1.2136-0.56127c0.15169-1.4866 1.0922-2.3361 2.1237-2.3361 1.1529 0 1.8203 0.83431 1.8203 2.3361z"/>
    <path d="m265.75 91.956h1.2439v-5.3396c0.7433-0.7433 1.259-1.1377 2.0175-1.1377 0.97084 0 1.3956 0.5916 1.3956 1.972v4.5053h1.2439v-4.6722c0-1.881-0.69779-2.8822-2.2451-2.8822-1.0163 0-1.7748 0.5461-2.4726 1.2439h-0.0455l-0.10618-1.0619h-1.0315z"/>
    <path d="m277.11 92.79c0 0.89499-0.18204 1.4411-0.91016 1.4411-0.25788 0-0.51576-0.06068-0.69779-0.12136l-0.25788 0.9405c0.25788 0.10619 0.63711 0.1972 1.0922 0.1972 1.4714 0 2.0175-0.95567 2.0175-2.4574v-8.2066h-1.2439zm0.63711-9.7235c0.47025 0 0.84948-0.33372 0.84948-0.80398 0-0.48542-0.37923-0.80397-0.84948-0.80397-0.48542 0-0.86465 0.31856-0.86465 0.80397 0 0.47025 0.37923 0.80398 0.86465 0.80398z"/>
    <path d="m280.29 88.285c0 2.4423 1.608 3.853 3.4131 3.853s3.4131-1.4107 3.4131-3.853c0-2.4726-1.608-3.8834-3.4131-3.8834s-3.4131 1.4107-3.4131 3.8834zm1.2894 0c0-1.699 0.86465-2.8518 2.1237-2.8518 1.2742 0 2.1237 1.1529 2.1237 2.8518 0 1.6838-0.84949 2.8215-2.1237 2.8215-1.2591 0-2.1237-1.1377-2.1237-2.8215z"/>
    <path d="m289.71 83.067c0.48542 0 0.86465-0.33372 0.86465-0.80398 0-0.48542-0.37923-0.80397-0.86465-0.80397s-0.86465 0.31856-0.86465 0.80397c0 0.47025 0.37923 0.80398 0.86465 0.80398zm-0.63711 8.8892h1.2439v-7.3723h-1.2439z"/>
    <path d="m292.8 91.956h1.2439v-5.3396c0.7433-0.7433 1.259-1.1377 2.0175-1.1377 0.97084 0 1.3956 0.5916 1.3956 1.972v4.5053h1.2439v-4.6722c0-1.881-0.69779-2.8822-2.2451-2.8822-1.0163 0-1.7748 0.5461-2.4726 1.2439h-0.0455l-0.10618-1.0619h-1.0315z"/>
    <path d="m300.55 88.285c0 2.4119 1.5624 3.853 3.5344 3.853 1.0012 0 1.79-0.3489 2.4271-0.75847l-0.43991-0.81914c-0.5461 0.3489-1.1377 0.57644-1.8355 0.57644-1.4108 0-2.3664-1.0012-2.4574-2.594h4.9756c0.0303-0.18203 0.0455-0.42474 0.0455-0.68262 0-2.1085-1.0618-3.4586-2.9428-3.4586-1.6838 0-3.3069 1.4714-3.3069 3.8834zm1.2135-0.56127c0.1517-1.4866 1.0922-2.3361 2.1237-2.3361 1.1529 0 1.8203 0.83431 1.8203 2.3361z"/>
    <path d="m308.09 88.285c0 2.4574 1.1984 3.853 3.049 3.853 0.86465 0 1.6534-0.48542 2.2299-1.0467h0.0455l0.10618 0.86465h1.0315v-10.801h-1.2591v2.8367l0.0607 1.2591c-0.65228-0.53093-1.2136-0.84948-2.063-0.84948-1.6838 0-3.2007 1.4866-3.2007 3.8834zm1.2894-0.01517c0-1.6838 0.9405-2.8215 2.1237-2.8215 0.60677 0 1.168 0.21237 1.79 0.77364v3.853c-0.60677 0.68262-1.1984 1.0163-1.881 1.0163-1.2894 0-2.0327-1.0619-2.0327-2.8215z"/>
    <path d="m188.17 114.08h2.5484c3.0035 0 4.6418-1.8507 4.6418-5.021 0-3.1552-1.6383-4.93-4.7025-4.93h-2.4878zm1.2742-1.0315v-7.8881h1.1225c2.3361 0 3.489 1.3956 3.489 3.8985 0 2.5181-1.1529 3.9895-3.489 3.9895z"/>
    <path d="m197.01 112.17c0 1.3197 0.92533 2.0934 2.1692 2.0934 0.91016 0 1.7293-0.48542 2.4423-1.0619h0.0303l0.10618 0.87982h1.0315v-4.5205c0-1.8355-0.75847-3.0339-2.5636-3.0339-1.1832 0-2.2147 0.51576-2.8973 0.95567l0.50058 0.86465c0.57644-0.3944 1.3349-0.7888 2.1996-0.7888 1.1984 0 1.5169 0.91016 1.5169 1.8507-3.14 0.34889-4.5356 1.1529-4.5356 2.7608zm1.2287-0.091c0-0.9405 0.83431-1.5473 3.3069-1.8507v2.0479c-0.71296 0.63711-1.3046 0.98601-2.0175 0.98601-0.72813 0-1.2894-0.3489-1.2894-1.1832z"/>
    <path d="m206.73 114.08h1.4562l2.6091-7.3723h-1.2287l-1.3956 4.1867c-0.21237 0.72813-0.45508 1.4714-0.66745 2.1692h-0.0607c-0.22754-0.69779-0.47025-1.4411-0.68262-2.1692l-1.3956-4.1867h-1.2894z"/>
    <path d="m211.61 110.41c0 2.4119 1.5624 3.853 3.5345 3.853 1.0012 0 1.79-0.3489 2.4271-0.75847l-0.43991-0.81915c-0.5461 0.3489-1.1377 0.57644-1.8355 0.57644-1.4108 0-2.3664-1.0012-2.4574-2.594h4.9755c0.0303-0.18203 0.0455-0.42474 0.0455-0.68262 0-2.1085-1.0618-3.4586-2.9428-3.4586-1.6838 0-3.3069 1.4714-3.3069 3.8834zm1.2136-0.56126c0.15169-1.4866 1.0922-2.3361 2.1237-2.3361 1.1529 0 1.8203 0.83431 1.8203 2.3361z"/>
    <path d="m224.89 114.08h1.2591v-8.8892h3.0187v-1.0618h-7.2964v1.0618h3.0187z"/>
    <path d="m229.33 112.17c0 1.3197 0.92533 2.0934 2.1692 2.0934 0.91016 0 1.7293-0.48542 2.4423-1.0619h0.0303l0.10619 0.87982h1.0315v-4.5205c0-1.8355-0.75846-3.0339-2.5636-3.0339-1.1832 0-2.2147 0.51576-2.8974 0.95567l0.50059 0.86465c0.57644-0.3944 1.3349-0.7888 2.1996-0.7888 1.1984 0 1.5169 0.91016 1.5169 1.8507-3.14 0.34889-4.5356 1.1529-4.5356 2.7608zm1.2287-0.091c0-0.9405 0.83432-1.5473 3.3069-1.8507v2.0479c-0.71296 0.63711-1.3046 0.98601-2.0175 0.98601-0.72813 0-1.2894-0.3489-1.2894-1.1832z"/>
    <path d="m236.96 116.11-0.24271 0.98601c0.24271 0.091 0.53093 0.15169 0.86465 0.15169 1.4866 0 2.2451-1.1074 2.7608-2.5636l2.776-7.9791h-1.2136l-1.3197 4.0806c-0.1972 0.65228-0.40957 1.4108-0.62194 2.0782h-0.0607c-0.22754-0.68262-0.48542-1.4411-0.71296-2.0782l-1.5018-4.0806h-1.2894l2.958 7.3875-0.16686 0.5461c-0.30338 0.91016-0.83431 1.5776-1.6686 1.5776-0.18204 0-0.40958-0.0607-0.56127-0.10619z"/>
    <path d="m244.54 112.59c0 1.077 0.37923 1.6686 1.3197 1.6686 0.33372 0 0.54609-0.0455 0.71296-0.12136l-0.16687-0.9405c-0.13652 0.0303-0.1972 0.0303-0.27304 0.0303-0.18204 0-0.3489-0.15169-0.3489-0.5461v-9.405h-1.2439z"/>
    <path d="m247.87 110.41c0 2.4423 1.608 3.853 3.4131 3.853s3.4131-1.4108 3.4131-3.853c0-2.4726-1.608-3.8834-3.4131-3.8834s-3.4131 1.4108-3.4131 3.8834zm1.2894 0c0-1.699 0.86465-2.8518 2.1237-2.8518 1.2742 0 2.1237 1.1529 2.1237 2.8518 0 1.6838-0.84948 2.8215-2.1237 2.8215-1.2591 0-2.1237-1.1377-2.1237-2.8215z"/>
    <path d="m256.66 114.08h1.2439v-4.7328c0.50058-1.2439 1.2439-1.699 1.8658-1.699 0.30339 0 0.47025 0.0455 0.71296 0.12135l0.24271-1.0922c-0.24271-0.10619-0.47025-0.1517-0.7888-0.1517-0.83432 0-1.5928 0.59161-2.0934 1.5169h-0.0455l-0.10618-1.3349h-1.0315z"/>
    <path d="m265 114.91c0 0.89499-0.18204 1.4411-0.91016 1.4411-0.25788 0-0.51576-0.0607-0.69779-0.12135l-0.25788 0.9405c0.25788 0.10618 0.63711 0.1972 1.0922 0.1972 1.4714 0 2.0175-0.95567 2.0175-2.4574v-8.2066h-1.2439zm0.63711-9.7236c0.47025 0 0.84948-0.33372 0.84948-0.80397 0-0.48542-0.37923-0.80398-0.84948-0.80398-0.48542 0-0.86465 0.31856-0.86465 0.80398 0 0.47025 0.37923 0.80397 0.86465 0.80397z"/>
    <path d="m268.17 110.41c0 2.4423 1.608 3.853 3.4131 3.853s3.4131-1.4108 3.4131-3.853c0-2.4726-1.608-3.8834-3.4131-3.8834s-3.4131 1.4108-3.4131 3.8834zm1.2894 0c0-1.699 0.86465-2.8518 2.1237-2.8518 1.2742 0 2.1237 1.1529 2.1237 2.8518 0 1.6838-0.84949 2.8215-2.1237 2.8215-1.2591 0-2.1237-1.1377-2.1237-2.8215z"/>
    <path d="m277.59 105.19c0.48542 0 0.86465-0.33372 0.86465-0.80397 0-0.48542-0.37923-0.80398-0.86465-0.80398s-0.86465 0.31856-0.86465 0.80398c0 0.47025 0.37923 0.80397 0.86465 0.80397zm-0.63711 8.8892h1.2439v-7.3723h-1.2439z"/>
    <path d="m280.68 114.08h1.2439v-5.3396c0.7433-0.7433 1.2591-1.1377 2.0175-1.1377 0.97084 0 1.3956 0.5916 1.3956 1.972v4.5053h1.2439v-4.6722c0-1.881-0.69779-2.8822-2.2451-2.8822-1.0163 0-1.7748 0.5461-2.4726 1.2439h-0.0455l-0.10619-1.0618h-1.0315z"/>
    <path d="m288.43 110.41c0 2.4119 1.5624 3.853 3.5344 3.853 1.0012 0 1.79-0.3489 2.4271-0.75847l-0.43991-0.81915c-0.5461 0.3489-1.1377 0.57644-1.8355 0.57644-1.4108 0-2.3664-1.0012-2.4574-2.594h4.9755c0.0303-0.18203 0.0455-0.42474 0.0455-0.68262 0-2.1085-1.0619-3.4586-2.9429-3.4586-1.6838 0-3.3069 1.4714-3.3069 3.8834zm1.2136-0.56126c0.15169-1.4866 1.0922-2.3361 2.1237-2.3361 1.1529 0 1.8203 0.83431 1.8203 2.3361z"/>
    <path d="m295.97 110.41c0 2.4574 1.1984 3.853 3.049 3.853 0.86465 0 1.6535-0.48542 2.2299-1.0467h0.0455l0.10618 0.86465h1.0315v-10.801h-1.2591v2.8367l0.0607 1.2591c-0.65228-0.53093-1.2136-0.84949-2.063-0.84949-1.6838 0-3.2007 1.4866-3.2007 3.8834zm1.2894-0.0152c0-1.6838 0.94049-2.8215 2.1237-2.8215 0.60678 0 1.168 0.21237 1.79 0.77363v3.853c-0.60677 0.68262-1.1984 1.0163-1.881 1.0163-1.2894 0-2.0327-1.0618-2.0327-2.8215z"/>
   </g>
   <g transform="scale(1.0006 .99942)" aria-label="CO-OP LAN added">
    <path d="m-25.568 200.75c0 3.2462 1.8658 5.1576 4.3688 5.1576 1.2591 0 2.2451-0.53093 3.0187-1.4411l-0.71296-0.77364c-0.63711 0.71296-1.3349 1.1074-2.2754 1.1074-1.8962 0-3.0945-1.5776-3.0945-4.0806 0-2.4726 1.2591-4.0199 3.1552-4.0199 0.81914 0 1.4563 0.36407 1.9872 0.92533l0.71296-0.80397c-0.5916-0.65229-1.5321-1.2287-2.7153-1.2287-2.5484 0-4.4446 1.9568-4.4446 5.1576z"/>
    <path d="m-13.158 205.91c2.4878 0 4.2474-2.0024 4.2474-5.2031 0-3.1704-1.7596-5.1121-4.2474-5.1121-2.5029 0-4.2626 1.9265-4.2626 5.1121 0 3.2007 1.7596 5.2031 4.2626 5.2031zm0-1.1074c-1.79 0-2.958-1.608-2.958-4.0957 0-2.4726 1.168-4.0047 2.958-4.0047 1.7748 0 2.9429 1.5321 2.9429 4.0047 0 2.4878-1.168 4.0957-2.9429 4.0957z"/>
    <path d="m-7.5574 202.4h3.4889v-0.95567h-3.4889z"/>
    <path d="m1.5373 205.91c2.4878 0 4.2474-2.0024 4.2474-5.2031 0-3.1704-1.7596-5.1121-4.2474-5.1121-2.5029 0-4.2626 1.9265-4.2626 5.1121 0 3.2007 1.7596 5.2031 4.2626 5.2031zm0-1.1074c-1.79 0-2.958-1.608-2.958-4.0957 0-2.4726 1.168-4.0047 2.958-4.0047 1.7748 0 2.9429 1.5321 2.9429 4.0047 0 2.4878-1.168 4.0957-2.9429 4.0957z"/>
    <path d="m7.8357 205.73h1.2742v-3.944h1.79c2.1692 0 3.671-0.98601 3.671-3.0794 0-2.1844-1.4714-2.9277-3.671-2.9277h-3.0642zm1.2742-4.9756v-3.9592h1.6231c1.7141 0 2.5788 0.47025 2.5788 1.9113 0 1.4108-0.83431 2.0479-2.5788 2.0479z"/>
    <path d="m19.539 205.73h5.6127v-1.077h-4.3384v-8.8741h-1.2742z"/>
    <path d="m28.13 201.68 0.48542-1.5169c0.3489-1.1074 0.66745-2.1996 0.98601-3.3524h0.06068c0.31856 1.1529 0.63711 2.2451 0.98601 3.3524l0.47025 1.5169zm4.2626 4.0502h1.3349l-3.3676-9.9511h-1.4259l-3.3676 9.9511h1.2894l0.95567-3.0339h3.6255z"/>
    <path d="m35.034 205.73h1.1984v-5.2031c0-1.0467-0.09102-2.1085-0.15169-3.1097h0.06068l1.077 2.0479 3.5951 6.2649h1.3046v-9.9511h-1.1984v5.1424c0 1.0467 0.10619 2.1692 0.16686 3.1704h-0.06068l-1.077-2.063-3.6103-6.2498h-1.3046z"/>
    <path d="m47.393 203.81c0 1.3197 0.92533 2.0934 2.1692 2.0934 0.91016 0 1.7293-0.48542 2.4423-1.0619h0.03034l0.10618 0.87983h1.0315v-4.5205c0-1.8355-0.75847-3.0339-2.5636-3.0339-1.1832 0-2.2147 0.51575-2.8973 0.95566l0.50059 0.86466c0.57644-0.39441 1.3349-0.78881 2.1996-0.78881 1.1984 0 1.5169 0.91016 1.5169 1.8507-3.1401 0.3489-4.5356 1.1529-4.5356 2.7608zm1.2287-0.091c0-0.9405 0.83431-1.5473 3.3069-1.8507v2.0479c-0.71296 0.63712-1.3046 0.98601-2.0175 0.98601-0.72813 0-1.2894-0.34889-1.2894-1.1832z"/>
    <path d="m54.989 202.06c0 2.4574 1.1984 3.853 3.049 3.853 0.86465 0 1.6535-0.48542 2.2299-1.0467h0.04551l0.10619 0.86466h1.0315v-10.801h-1.2591v2.8367l0.06068 1.2591c-0.65228-0.53093-1.2135-0.84948-2.063-0.84948-1.6838 0-3.2007 1.4866-3.2007 3.8834zm1.2894-0.0152c0-1.6838 0.9405-2.8215 2.1237-2.8215 0.60677 0 1.168 0.21237 1.79 0.77364v3.853c-0.60677 0.68262-1.1984 1.0163-1.881 1.0163-1.2894 0-2.0327-1.0618-2.0327-2.8215z"/>
    <path d="m63.403 202.06c0 2.4574 1.1984 3.853 3.049 3.853 0.86465 0 1.6535-0.48542 2.2299-1.0467h0.04551l0.10619 0.86466h1.0315v-10.801h-1.2591v2.8367l0.06068 1.2591c-0.65228-0.53093-1.2135-0.84948-2.063-0.84948-1.6838 0-3.2007 1.4866-3.2007 3.8834zm1.2894-0.0152c0-1.6838 0.9405-2.8215 2.1237-2.8215 0.60677 0 1.168 0.21237 1.79 0.77364v3.853c-0.60677 0.68262-1.1984 1.0163-1.881 1.0163-1.2894 0-2.0327-1.0618-2.0327-2.8215z"/>
    <path d="m71.802 202.06c0 2.4119 1.5624 3.853 3.5345 3.853 1.0012 0 1.79-0.3489 2.4271-0.75847l-0.43991-0.81914c-0.5461 0.34889-1.1377 0.57643-1.8355 0.57643-1.4107 0-2.3664-1.0012-2.4574-2.594h4.9755c0.03034-0.18204 0.04551-0.42475 0.04551-0.68262 0-2.1085-1.0619-3.4586-2.9429-3.4586-1.6838 0-3.3069 1.4714-3.3069 3.8834zm1.2135-0.56127c0.15169-1.4866 1.0922-2.3361 2.1237-2.3361 1.1529 0 1.8203 0.83432 1.8203 2.3361z"/>
    <path d="m79.342 202.06c0 2.4574 1.1984 3.853 3.049 3.853 0.86465 0 1.6535-0.48542 2.2299-1.0467h0.04551l0.10618 0.86466h1.0315v-10.801h-1.2591v2.8367l0.06068 1.2591c-0.65228-0.53093-1.2135-0.84948-2.063-0.84948-1.6838 0-3.2007 1.4866-3.2007 3.8834zm1.2894-0.0152c0-1.6838 0.9405-2.8215 2.1237-2.8215 0.60677 0 1.168 0.21237 1.79 0.77364v3.853c-0.60677 0.68262-1.1984 1.0163-1.881 1.0163-1.2894 0-2.0327-1.0618-2.0327-2.8215z"/>
   </g>
   <g transform="scale(1.0006 .99942)" aria-label="v0.99 release SHIPPING">
    <path d="m207.11 205.73h1.4562l2.6091-7.3723h-1.2287l-1.3956 4.1867c-0.21237 0.72812-0.45508 1.4714-0.66745 2.1692h-0.0607c-0.22754-0.69779-0.47025-1.4411-0.68262-2.1692l-1.3956-4.1867h-1.2894z"/>
    <path d="m215.13 205.91c1.9265 0 3.0946-1.8052 3.0946-5.0514s-1.168-4.9907-3.0946-4.9907c-1.9417 0-3.1097 1.7445-3.1097 4.9907s1.168 5.0514 3.1097 5.0514zm0-1.0012c-1.1377 0-1.8962-1.2136-1.8962-4.0502 0-2.8367 0.75846-3.9895 1.8962-3.9895 1.1225 0 1.881 1.1529 1.881 3.9895 0 2.8367-0.75847 4.0502-1.881 4.0502z"/>
    <path d="m219.87 204.97c0 0.5461 0.40957 0.9405 0.91016 0.9405 0.48542 0 0.89499-0.3944 0.89499-0.9405 0-0.57644-0.40957-0.97084-0.89499-0.97084-0.50059 0-0.91016 0.3944-0.91016 0.97084z"/>
    <path d="m226.21 201.02c-1.1984 0-1.79-0.7888-1.79-2.0479 0-1.2742 0.7433-2.1237 1.6838-2.1237 1.2287 0 1.972 1.0012 2.1389 2.8822-0.65228 0.92533-1.4108 1.2894-2.0327 1.2894zm-2.7912 3.8682c0.53093 0.57644 1.3046 1.0164 2.3361 1.0164 1.9265 0 3.6862-1.5018 3.6862-5.3851 0-3.1097-1.4259-4.657-3.3372-4.657-1.5473 0-2.8518 1.259-2.8518 3.1097 0 1.9872 1.077 2.9884 2.7456 2.9884 0.80398 0 1.6686-0.47025 2.2754-1.2439-0.0455 3.0945-1.1984 4.1564-2.5636 4.1564-0.60677 0-1.1984-0.30338-1.5928-0.77363z"/>
    <path d="m233.73 201.02c-1.1984 0-1.79-0.7888-1.79-2.0479 0-1.2742 0.7433-2.1237 1.6838-2.1237 1.2287 0 1.972 1.0012 2.1389 2.8822-0.65228 0.92533-1.4107 1.2894-2.0327 1.2894zm-2.7912 3.8682c0.53092 0.57644 1.3046 1.0164 2.3361 1.0164 1.9265 0 3.6862-1.5018 3.6862-5.3851 0-3.1097-1.4259-4.657-3.3372-4.657-1.5473 0-2.8518 1.259-2.8518 3.1097 0 1.9872 1.077 2.9884 2.7456 2.9884 0.80398 0 1.6686-0.47025 2.2754-1.2439-0.0455 3.0945-1.1984 4.1564-2.5636 4.1564-0.60677 0-1.1984-0.30338-1.5928-0.77363z"/>
    <path d="m241.99 205.73h1.2439v-4.7328c0.50058-1.2439 1.2439-1.699 1.8658-1.699 0.30339 0 0.47025 0.0455 0.71296 0.12135l0.24271-1.0922c-0.24271-0.10619-0.47025-0.15169-0.7888-0.15169-0.83432 0-1.5928 0.5916-2.0934 1.5169h-0.0455l-0.10619-1.3349h-1.0315z"/>
    <path d="m246.57 202.06c0 2.4119 1.5624 3.853 3.5344 3.853 1.0012 0 1.79-0.3489 2.4271-0.75847l-0.43991-0.81914c-0.5461 0.34889-1.1377 0.57643-1.8355 0.57643-1.4108 0-2.3664-1.0012-2.4574-2.594h4.9755c0.0303-0.18204 0.0455-0.42475 0.0455-0.68262 0-2.1085-1.0619-3.4586-2.9429-3.4586-1.6838 0-3.3069 1.4714-3.3069 3.8834zm1.2136-0.56127c0.15169-1.4866 1.0922-2.3361 2.1237-2.3361 1.1529 0 1.8203 0.83432 1.8203 2.3361z"/>
    <path d="m254.64 204.24c0 1.077 0.37923 1.6686 1.3197 1.6686 0.33373 0 0.5461-0.0455 0.71296-0.12136l-0.16686-0.9405c-0.13653 0.0303-0.1972 0.0303-0.27305 0.0303-0.18203 0-0.3489-0.15169-0.3489-0.54609v-9.405h-1.2439z"/>
    <path d="m257.98 202.06c0 2.4119 1.5624 3.853 3.5345 3.853 1.0012 0 1.79-0.3489 2.4271-0.75847l-0.43991-0.81914c-0.5461 0.34889-1.1377 0.57643-1.8355 0.57643-1.4108 0-2.3664-1.0012-2.4574-2.594h4.9755c0.0303-0.18204 0.0455-0.42475 0.0455-0.68262 0-2.1085-1.0619-3.4586-2.9428-3.4586-1.6838 0-3.3069 1.4714-3.3069 3.8834zm1.2136-0.56127c0.15169-1.4866 1.0922-2.3361 2.1237-2.3361 1.1529 0 1.8203 0.83432 1.8203 2.3361z"/>
    <path d="m265.48 203.81c0 1.3197 0.92533 2.0934 2.1692 2.0934 0.91016 0 1.7293-0.48542 2.4423-1.0619h0.0303l0.10618 0.87983h1.0315v-4.5205c0-1.8355-0.75847-3.0339-2.5636-3.0339-1.1832 0-2.2147 0.51575-2.8973 0.95566l0.50059 0.86466c0.57643-0.39441 1.3349-0.78881 2.1996-0.78881 1.1984 0 1.5169 0.91016 1.5169 1.8507-3.14 0.3489-4.5356 1.1529-4.5356 2.7608zm1.2287-0.091c0-0.9405 0.83431-1.5473 3.3069-1.8507v2.0479c-0.71295 0.63712-1.3046 0.98601-2.0175 0.98601-0.72813 0-1.2894-0.34889-1.2894-1.1832z"/>
    <path d="m272.78 204.89c0.69779 0.57644 1.699 1.0164 2.7456 1.0164 1.7445 0 2.7002-1.0012 2.7002-2.1996 0-1.3956-1.1832-1.8355-2.2451-2.2299-0.83431-0.31855-1.6383-0.5916-1.6383-1.2742 0-0.56127 0.42474-1.0619 1.3501-1.0619 0.65228 0 1.1832 0.27305 1.6838 0.65229l0.59161-0.78881c-0.56127-0.45508-1.3652-0.83431-2.2906-0.83431-1.5928 0-2.5333 0.91016-2.5333 2.0934 0 1.2439 1.1529 1.7445 2.1996 2.1237 0.80398 0.30339 1.6838 0.63711 1.6838 1.3956 0 0.63711-0.48542 1.1529-1.4563 1.1529-0.87982 0-1.5321-0.36406-2.1692-0.87982z"/>
    <path d="m279.43 202.06c0 2.4119 1.5624 3.853 3.5344 3.853 1.0012 0 1.79-0.3489 2.4271-0.75847l-0.43991-0.81914c-0.5461 0.34889-1.1377 0.57643-1.8355 0.57643-1.4108 0-2.3664-1.0012-2.4574-2.594h4.9756c0.0303-0.18204 0.0455-0.42475 0.0455-0.68262 0-2.1085-1.0618-3.4586-2.9428-3.4586-1.6838 0-3.3069 1.4714-3.3069 3.8834zm1.2135-0.56127c0.1517-1.4866 1.0922-2.3361 2.1237-2.3361 1.1529 0 1.8203 0.83432 1.8203 2.3361z"/>
    <path d="m214.88 226.56c0.86465 0.89499 2.0782 1.4714 3.4738 1.4714 2.0934 0 3.3979-1.259 3.3979-2.8367 0-1.4714-0.89499-2.154-2.0479-2.6546l-1.4259-0.60678c-0.77363-0.33372-1.6535-0.69779-1.6535-1.6535 0-0.89499 0.7433-1.4562 1.8658-1.4562 0.91016 0 1.6535 0.36406 2.2602 0.9405l0.66745-0.81915c-0.69778-0.72813-1.7445-1.2287-2.9277-1.2287-1.8052 0-3.14 1.1225-3.14 2.6395 0 1.4563 1.0922 2.1692 2.0175 2.5636l1.4259 0.62194c0.9405 0.42474 1.6686 0.7433 1.6686 1.7596 0 0.97084-0.77364 1.6231-2.0782 1.6231-1.0467 0-2.0327-0.50058-2.7456-1.2439z"/>
    <path d="m223.62 227.85h1.2742v-4.6873h4.6266v4.6873h1.2591v-9.9511h-1.2591v4.1716h-4.6266v-4.1716h-1.2742z"/>
    <path d="m233.43 227.85h1.2742v-9.9511h-1.2742z"/>
    <path d="m237.34 227.85h1.2742v-3.944h1.79c2.1692 0 3.671-0.98601 3.671-3.0794 0-2.1844-1.4714-2.9277-3.671-2.9277h-3.0642zm1.2742-4.9755v-3.9592h1.6231c1.7141 0 2.5788 0.47025 2.5788 1.9113 0 1.4108-0.83431 2.0479-2.5788 2.0479z"/>
    <path d="m245.99 227.85h1.2742v-3.944h1.79c2.1692 0 3.671-0.98601 3.671-3.0794 0-2.1844-1.4714-2.9277-3.671-2.9277h-3.0642zm1.2742-4.9755v-3.9592h1.6231c1.7141 0 2.5788 0.47025 2.5788 1.9113 0 1.4108-0.83431 2.0479-2.5788 2.0479z"/>
    <path d="m254.64 227.85h1.2742v-9.9511h-1.2742z"/>
    <path d="m258.55 227.85h1.1984v-5.2031c0-1.0467-0.091-2.1085-0.1517-3.1097h0.0607l1.077 2.0479 3.5951 6.2649h1.3046v-9.9511h-1.1984v5.1424c0 1.0467 0.10619 2.1692 0.16686 3.1704h-0.0607l-1.077-2.063-3.6103-6.2498h-1.3046z"/>
    <path d="m267.73 222.87c0 3.2462 1.8658 5.1576 4.475 5.1576 1.3349 0 2.4423-0.51575 3.0946-1.1529v-4.1867h-3.2614v1.0467h2.1085v2.594c-0.39441 0.36406-1.0922 0.5916-1.8052 0.5916-2.1237 0-3.3069-1.5776-3.3069-4.0806 0-2.4726 1.2894-4.0199 3.3069-4.0199 0.98601 0 1.608 0.3944 2.1085 0.92533l0.72813-0.80398c-0.5916-0.60677-1.5018-1.2287-2.8518-1.2287-2.6698 0-4.5963 1.9568-4.5963 5.1576z"/>
   </g>
  </g>
 </g>
</svg>
