<svg width="58.575mm" height="26.665mm" version="1.1" viewBox="0 0 58.575 26.665" xmlns="http://www.w3.org/2000/svg">
 <g transform="translate(-9.8254 -125.64)">
  <rect x="52.811" y="138.44" width="9.5789" height="8.631" fill="#3b0d0d" fill-opacity=".38431" stroke="#e96f6f" stroke-linecap="round" stroke-width=".16933"/>
  <rect transform="rotate(12)" x="82.245" y="113.11" width="9.5789" height="8.631" fill="#3b0d0d" fill-opacity=".38431" stroke="#e96f6f" stroke-linecap="round" stroke-width=".16933"/>
  <g fill="none" stroke="#e9e56f" stroke-width=".28222px">
   <path d="m52.96 133.85v-3.9414"/>
   <path d="m51.863 133.98-2.0455-3.2928"/>
   <path d="m12.672 134.86h7.2319"/>
   <path d="m11.825 137.05h8.1139"/>
   <path d="m12.919 139.1h7.0203"/>
  </g>
  <g fill-opacity=".38431" stroke-width=".16933">
   <path d="m24.913 142.41-1.5875-1.5522s0.14066-3.2061 0.49389-4.7625c0.30954-1.3638 0.74402-2.722 1.4111-3.9511 1.8157-3.9456 7.78-4.5622 11.324-3.81 2.6858 0.67194 4.6635 3.0805 7.2672 4.0217 1.9492 0.40589 6.4253 1.6527 7.4789 3.0339 0.40626 0.56572 0.42333 2.0461 0.42333 2.0461l-0.10583 5.2211s-1.1873 0.35639-1.6228 0.0353c0.30235-1.829-0.25646-2.8837-1.1642-3.6689-2.7668-2.3934-7.0756-0.34737-7.4436 3.1397-0.03427 0.39852 0.03528 1.1994 0.03528 1.1994l-7.5847-0.28222c0.21128-1.1674-0.26088-2.4788-1.0445-3.1641-2.9785-2.6051-7.1022-1.4342-7.8808 2.4938z" fill="#3b390d" fill-rule="evenodd" stroke="#e9e56f"/>
   <circle cx="29.147" cy="143.36" r="3.6336" fill="#242424" stroke="#acacac" stroke-linecap="round"/>
   <circle cx="45.798" cy="143.36" r="3.6336" fill="#242424" stroke="#acacac" stroke-linecap="round"/>
  </g>
  <g>
   <path d="m29.29 142.77 0.03377-0.49514c0.45889-2e-3 0.83337 0.0421 0.83337 0.10456 0 0.098-0.37448 0.13027-0.83591 0.13027-0.56563 0-0.83588-0.12679-0.83588-0.20115 0-0.0744 0.23654-0.21296 0.83588-0.21296 0.46143 0 0.83591 0.0441 0.83591 0.10659 0 0.098-0.37448 0.13027-0.83591 0.13027-0.56563 0-0.83588-0.12679-0.83588-0.20115 0-0.0744 0.23654-0.21296 0.83588-0.21296 0.46143 0 0.83591 0.0441 0.83591 0.10659 0 0.098-0.37448 0.13027-0.83591 0.13027-0.56563 0-0.83588-0.1268-0.83588-0.20115 0-0.0743 0.23654-0.21294 0.83588-0.21294 0.46143 0 0.83591 0.0441 0.83591 0.10657 0 0.098-0.37448 0.13027-0.83591 0.13027-0.56563 0-0.83588-0.1268-0.83588-0.20115 0-0.0744 0.23654-0.21294 0.83588-0.21294 0.46143 0 0.83591 0.0441 0.83591 0.10657 0 0.098-0.37448 0.13027-0.83591 0.13027-0.56563 0-0.83588-0.1268-0.83588-0.20115 0-0.0743 0.23654-0.21294 0.83588-0.21294 0.46143 0 0.83591 0.0441 0.83591 0.10659 0 0.098-0.37448 0.13025-0.83591 0.13025-0.56563 0-0.83588-0.1268-0.83588-0.20115 0-0.0744 0.23654-0.21294 0.83588-0.21294 0.46143 0 0.83591 0.0441 0.83591 0.10659 0 0.098-0.37448 0.13025-0.83591 0.13025-0.56563 0-0.83588-0.1268-0.83588-0.20115 0-0.0743 0.23654-0.21294 0.83588-0.21294 0.46143 0 0.83591 0.0441 0.83591 0.10659 0 0.098-0.37448 0.13025-0.83591 0.13025-0.56563 0-0.83588-0.1268-0.83588-0.20115 0-0.0744 0.23654-0.21294 0.83588-0.21294 0.46143 0 0.83591 0.0441 0.83591 0.10659 0 0.098-0.37448 0.13025-0.83591 0.13025-0.56563 0-0.83588-0.1268-0.83588-0.20115 0-0.0743 0.23654-0.21294 0.83588-0.21294 0.46143 0 0.83591 0.0441 0.83591 0.10659 0 0.098-0.37448 0.13024-0.83591 0.13024-0.56563 0-0.83588-0.12679-0.83588-0.20114 0-0.0744 0.23654-0.21294 0.83588-0.21294 0.46143 0 0.83591 0.0441 0.83591 0.10659 0 0.098-0.37448 0.13024-0.83591 0.13024-0.56563 0-0.83588-0.12679-0.83588-0.20114 0-0.0743 0.23654-0.21294 0.83588-0.21294 0.46143 0 0.83591 0.044 0.83591 0.10659v0.0221c-0.26652 0.21589-1.6417 0.1505-1.6718-0.0709 0-0.0744 0.23654-0.21297 0.83588-0.21297 0.46143 0 0.83591 0.0441 0.83591 0.10662-0.26652 0.21589-1.6417 0.1505-1.6718-0.0709 0-0.0743 0.23654-0.21297 0.83588-0.21297 0.46143 0 0.83591 0.0441 0.83591 0.10662 0 0.098-0.37448 0.13024-0.83591 0.13024-0.56563 0-0.83588-0.12679-0.83588-0.20115 0-0.0743 0.23654-0.21296 0.83588-0.21296 0.46143 0 0.83591 0.0441 0.83591 0.10661 0 0.098-0.37448 0.13025-0.83591 0.13025-0.56563 0-0.83588-0.12679-0.83588-0.20115 0-0.0744 0.23654-0.21296 0.83588-0.21296 0.46143 0 0.83591 0.0441 0.83591 0.10661 0 0.098-0.37448 0.13025-0.83591 0.13025-0.56563 0-0.83588-0.12679-0.83588-0.20115 0-0.0744 0.23654-0.21296 0.83588-0.21296 0.46143 0 0.83591 0.0441 0.83591 0.10662 0 0.098-0.37448 0.13024-0.83591 0.13024-0.56563 0-0.83588-0.1268-0.83588-0.20114 0-0.0744 0.23654-0.21297 0.83588-0.21297 0.46143 0 0.83591 0.0441 0.83591 0.10661 0 0.098-0.37448 0.13025-0.83591 0.13025-0.56563 0-0.83588-0.1268-0.83588-0.20115 0-0.0744 0.23654-0.21296 0.83588-0.21296 0.46143 0 0.83591 0.0441 0.83591 0.10661 0 0.098-0.37448 0.13025-0.83591 0.13025-0.56563 0-0.83588-0.1268-0.83588-0.20115 0-0.0744 0.23654-0.21296 0.83588-0.21296 0.46143 0 0.83591 0.0441 0.83591 0.10663 0 0.098-0.37448 0.13023-0.83591 0.13023-0.56563 0-0.83588-0.1268-0.83588-0.20115 0-0.0744 0.23654-0.21294 0.83588-0.21294 0.46143 0 0.83591 0.0441 0.83591 0.10661 0 0.098-0.37448 0.13023-0.83591 0.13023-0.56563 0-0.83588-0.1268-0.83588-0.20115 0-0.0744 0.23654-0.21294 0.83588-0.21294 0.46143 0 0.83591 0.0441 0.83591 0.10661 0 0.098-0.37448 0.13023-0.83591 0.13023-0.56563 0-0.83588-0.1268-0.83588-0.20115 0-0.0743 0.23654-0.21294 0.83588-0.21294 0.46143 0 0.83591 0.0441 0.83591 0.10661 0 0.098-0.37448 0.13023-0.83591 0.13023-0.56563 0-0.83588-0.1268-0.83588-0.20115 0-0.0744 0.24374-0.21294 0.85035-0.21009v-0.26312" fill="none" stroke="#d76fe9" stroke-width=".082001"/>
   <path d="m45.835 142.77 0.03377-0.49514c0.45889-2e-3 0.83337 0.0421 0.83337 0.10456 0 0.098-0.37448 0.13027-0.83588 0.13027-0.56566 0-0.83591-0.12679-0.83591-0.20115 0-0.0744 0.23654-0.21296 0.83591-0.21296 0.4614 0 0.83588 0.0441 0.83588 0.10659 0 0.098-0.37448 0.13027-0.83588 0.13027-0.56566 0-0.83591-0.12679-0.83591-0.20115 0-0.0744 0.23654-0.21296 0.83591-0.21296 0.4614 0 0.83588 0.0441 0.83588 0.10659 0 0.098-0.37448 0.13027-0.83588 0.13027-0.56566 0-0.83591-0.1268-0.83591-0.20115 0-0.0743 0.23654-0.21294 0.83591-0.21294 0.4614 0 0.83588 0.0441 0.83588 0.10657 0 0.098-0.37448 0.13027-0.83588 0.13027-0.56566 0-0.83591-0.1268-0.83591-0.20115 0-0.0744 0.23654-0.21294 0.83591-0.21294 0.4614 0 0.83588 0.0441 0.83588 0.10657 0 0.098-0.37448 0.13027-0.83588 0.13027-0.56566 0-0.83591-0.1268-0.83591-0.20115 0-0.0743 0.23654-0.21294 0.83591-0.21294 0.4614 0 0.83588 0.0441 0.83588 0.10659 0 0.098-0.37448 0.13025-0.83588 0.13025-0.56566 0-0.83591-0.1268-0.83591-0.20115 0-0.0744 0.23654-0.21294 0.83591-0.21294 0.4614 0 0.83588 0.0441 0.83588 0.10659 0 0.098-0.37448 0.13025-0.83588 0.13025-0.56566 0-0.83591-0.1268-0.83591-0.20115 0-0.0743 0.23654-0.21294 0.83591-0.21294 0.4614 0 0.83588 0.0441 0.83588 0.10659 0 0.098-0.37448 0.13025-0.83588 0.13025-0.56566 0-0.83591-0.1268-0.83591-0.20115 0-0.0744 0.23654-0.21294 0.83591-0.21294 0.4614 0 0.83588 0.0441 0.83588 0.10659 0 0.098-0.37448 0.13025-0.83588 0.13025-0.56566 0-0.83591-0.1268-0.83591-0.20115 0-0.0743 0.23654-0.21294 0.83591-0.21294 0.4614 0 0.83588 0.0441 0.83588 0.10659 0 0.098-0.37448 0.13024-0.83588 0.13024-0.56566 0-0.83591-0.12679-0.83591-0.20114 0-0.0744 0.23654-0.21294 0.83591-0.21294 0.4614 0 0.83588 0.0441 0.83588 0.10659 0 0.098-0.37448 0.13024-0.83588 0.13024-0.56566 0-0.83591-0.12679-0.83591-0.20114 0-0.0743 0.23654-0.21294 0.83591-0.21294 0.4614 0 0.83588 0.044 0.83588 0.10659v0.0221c-0.26652 0.21589-1.6417 0.1505-1.6718-0.0709 0-0.0744 0.23654-0.21297 0.83591-0.21297 0.4614 0 0.83588 0.0441 0.83588 0.10662-0.26652 0.21589-1.6417 0.1505-1.6718-0.0709 0-0.0743 0.23654-0.21297 0.83591-0.21297 0.4614 0 0.83588 0.0441 0.83588 0.10662 0 0.098-0.37448 0.13024-0.83588 0.13024-0.56566 0-0.83591-0.12679-0.83591-0.20115 0-0.0743 0.23654-0.21296 0.83591-0.21296 0.4614 0 0.83588 0.0441 0.83588 0.10661 0 0.098-0.37448 0.13025-0.83588 0.13025-0.56566 0-0.83591-0.12679-0.83591-0.20115 0-0.0744 0.23654-0.21296 0.83591-0.21296 0.4614 0 0.83588 0.0441 0.83588 0.10661 0 0.098-0.37448 0.13025-0.83588 0.13025-0.56566 0-0.83591-0.12679-0.83591-0.20115 0-0.0744 0.23654-0.21296 0.83591-0.21296 0.4614 0 0.83588 0.0441 0.83588 0.10662 0 0.098-0.37448 0.13024-0.83588 0.13024-0.56566 0-0.83591-0.1268-0.83591-0.20114 0-0.0744 0.23654-0.21297 0.83591-0.21297 0.4614 0 0.83588 0.0441 0.83588 0.10661 0 0.098-0.37448 0.13025-0.83588 0.13025-0.56566 0-0.83591-0.1268-0.83591-0.20115 0-0.0744 0.23654-0.21296 0.83591-0.21296 0.4614 0 0.83588 0.0441 0.83588 0.10661 0 0.098-0.37448 0.13025-0.83588 0.13025-0.56566 0-0.83591-0.1268-0.83591-0.20115 0-0.0744 0.23654-0.21296 0.83591-0.21296 0.4614 0 0.83588 0.0441 0.83588 0.10663 0 0.098-0.37448 0.13023-0.83588 0.13023-0.56566 0-0.83591-0.1268-0.83591-0.20115 0-0.0744 0.23654-0.21294 0.83591-0.21294 0.4614 0 0.83588 0.0441 0.83588 0.10661 0 0.098-0.37448 0.13023-0.83588 0.13023-0.56566 0-0.83591-0.1268-0.83591-0.20115 0-0.0744 0.23654-0.21294 0.83591-0.21294 0.4614 0 0.83588 0.0441 0.83588 0.10661 0 0.098-0.37448 0.13023-0.83588 0.13023-0.56566 0-0.83591-0.1268-0.83591-0.20115 0-0.0743 0.23654-0.21294 0.83591-0.21294 0.4614 0 0.83588 0.0441 0.83588 0.10661 0 0.098-0.37448 0.13023-0.83588 0.13023-0.56566 0-0.83591-0.1268-0.83591-0.20115 0-0.0744 0.24374-0.21294 0.85035-0.21009v-0.26312" fill="none" stroke="#d76fe9" stroke-width=".082001"/>
   <rect x="13.831" y="147.09" width="51.441" height="3.1476" fill="#0d2f3b" fill-opacity=".38431" stroke="#6fc8e9" stroke-linecap="round" stroke-width=".13363"/>
  </g>
 </g>
</svg>
