<svg width="53.488mm" height="39.99mm" version="1.1" viewBox="0 0 53.488 39.99" xmlns="http://www.w3.org/2000/svg">
 <g transform="translate(118.04 -37.803)">
  <g>
   <rect x="-94.172" y="55.496" width="9.9781" height="9.9781" fill="#3b390d" fill-opacity=".38431" stroke="#e9e56f" stroke-linecap="round" stroke-width=".11289"/>
   <path d="m-107.26 40.562v36.231" fill="none" stroke="#e96f6f" stroke-width=".28222"/>
   <path d="m-117.04 72.019h50.717" fill="none" stroke="#e96f6f" stroke-width=".28222"/>
   <rect x="-87.117" y="48.441" width="9.9781" height="9.9781" fill="#0d183b" fill-opacity=".38431" stroke="#6f8ce9" stroke-linecap="round" stroke-width=".11289"/>
  </g>
  <g fill="none" stroke-width=".28222px">
   <path d="m-94.229 71.457h10.03" stroke="#e9e56f"/>
   <path d="m-87.173 70.893h10.055" stroke="#6f8ce9"/>
   <path d="m-106.65 65.531v-9.9766" stroke="#e9e56f"/>
   <path d="m-106.08 58.428v-10.018" stroke="#6f8ce9"/>
  </g>
  <g transform="matrix(-.002186 -.77215 .77215 -.002186 -278.82 458.88)">
   <path d="m501.47 274.25-1.2053 3.2778-1.2053-3.2778c0.71162 0.52365 1.6852 0.52064 2.4106 0z" fill="#fff" fill-rule="evenodd" stroke="#d54747" stroke-linejoin="round" stroke-width=".1875"/>
  </g>
  <g transform="matrix(-.77215 .002186 -.002186 -.77215 279.62 252.07)">
   <path d="m501.47 274.25-1.2053 3.2778-1.2053-3.2778c0.71162 0.52365 1.6852 0.52064 2.4106 0z" fill="#fff" fill-rule="evenodd" stroke="#d54747" stroke-linejoin="round" stroke-width=".1875"/>
  </g>
  <g fill="none" stroke-dasharray="0.13229167, 0.26458334" stroke-width=".13229">
   <path d="m-87.133 48.446h-18.984" stroke="#6f8ce9"/>
   <path d="m-87.15 58.434h-18.934" stroke="#6f8ce9"/>
   <g stroke="#e9e56f">
    <path d="m-94.145 55.491h-12.551"/>
    <path d="m-94.211 65.446h-12.485"/>
    <path d="m-94.145 71.432v-5.9531"/>
    <path d="m-84.19 65.413v6.0193"/>
   </g>
   <path d="m-87.133 58.418v12.502" stroke="#6f8ce9"/>
   <path d="m-77.162 58.368v12.502" stroke="#6f8ce9"/>
  </g>
 </g>
</svg>
