<svg width="73.107mm" height="39.989mm" version="1.1" viewBox="0 0 73.107 39.989" xmlns="http://www.w3.org/2000/svg">
 <g transform="translate(-47.357 -90.285)">
  <g fill="#e9e56f" stroke-width=".28222px" aria-label="Collision box">
   <path d="m107.14 92.351c-0.1711 0-0.41804 0.12524-0.41804 0.56621 0 0.42333 0.23636 0.56092 0.41804 0.56092 0.13053 0 0.25223-0.06879 0.32103-0.18168l-0.09-0.05821c-0.0512 0.0829-0.13935 0.13229-0.22402 0.13229-0.16227 0-0.30515-0.16757-0.30515-0.46567 0-0.29104 0.13935-0.45508 0.29457-0.45508 0.0847 0 0.16581 0.05115 0.2099 0.12876 4e-3 0.0053 7e-3 0.01058 7e-3 0.01764 0 0.0053-2e-3 0.0088-2e-3 0.01411 0 0.0018 0 0.01058 9e-3 0.01587l0.11642-0.05644c-0.0582-0.13229-0.1905-0.21872-0.3369-0.21872z"/>
   <path d="m108.34 93.06c0-0.27869-0.17638-0.42333-0.35983-0.42333-0.20461 0-0.381 0.17639-0.381 0.42686 0 0.24518 0.17463 0.41804 0.37747 0.41804 0.1905 0 0.36336-0.15346 0.36336-0.42157zm-0.36865-0.31574c0.11642 0 0.23989 0.10054 0.23989 0.32103 0 0.20285-0.11642 0.30515-0.23283 0.30515-0.12877 0-0.24518-0.11994-0.24518-0.31926 0-0.19756 0.11465-0.30692 0.23812-0.30692z"/>
   <path d="m108.56 92.287v0.1023h0.2293v0.96838h-0.23989v0.10054h0.60502v-0.10054h-0.23813v-1.0707z"/>
   <path d="m109.44 92.287v0.1023h0.22931v0.96838h-0.23989v0.10054h0.60501v-0.10054h-0.23812v-1.0707z"/>
   <path d="m110.36 92.652v0.10407h0.19403v0.60149h-0.20461v0.10054h0.52211v-0.10054h-0.18874v-0.70556zm0.26106-0.34925c-0.0512 0-0.0917 0.04057-0.0917 0.08996s0.0406 0.08996 0.0917 0.08996 0.0917-0.04057 0.0917-0.08996-0.0406-0.08996-0.0917-0.08996z"/>
   <path d="m111.82 92.76c-0.0741-0.08114-0.18168-0.12524-0.30162-0.12524-0.18697 0-0.30868 0.10407-0.30868 0.22401 0 0.14111 0.15169 0.19226 0.19579 0.20814 0.0688 0.02469 0.15699 0.04586 0.21696 0.07408 0.067 0.03175 0.0794 0.07408 0.0794 0.10231 0 0.07585-0.0917 0.127-0.20637 0.127-0.13759 0-0.22578-0.0829-0.25224-0.11112-5e-3 -0.0071-5e-3 -0.01235-5e-3 -0.0194 0-0.0018 2e-3 -0.01235-7e-3 -0.01587l-0.0741 0.12524c0.0953 0.08819 0.21872 0.12876 0.34043 0.12876 0.22049 0 0.33514-0.13053 0.33514-0.25224 0-0.05468-0.0229-0.12876-0.11818-0.18168-0.09-0.05115-0.22049-0.06879-0.29633-0.10583-0.0653-0.03175-0.0794-0.07056-0.0794-0.09878 0-0.0635 0.0794-0.10936 0.16933-0.10936 0.11642 0 0.19403 0.07055 0.22402 0.11112 5e-3 0.0053 4e-3 0.01058 4e-3 0.01587 0 0.01058 7e-3 0.01411 0.0106 0.01411z"/>
   <path d="m112.13 92.652v0.10407h0.19403v0.60149h-0.20461v0.10054h0.52211v-0.10054h-0.18874v-0.70556zm0.26106-0.34925c-0.0512 0-0.0917 0.04057-0.0917 0.08996s0.0406 0.08996 0.0917 0.08996c0.0512 0 0.0917-0.04057 0.0917-0.08996s-0.0406-0.08996-0.0917-0.08996z"/>
   <path d="m113.63 93.06c0-0.27869-0.17639-0.42333-0.35983-0.42333-0.20461 0-0.381 0.17639-0.381 0.42686 0 0.24518 0.17462 0.41804 0.37747 0.41804 0.1905 0 0.36336-0.15346 0.36336-0.42157zm-0.36865-0.31574c0.11641 0 0.23989 0.10054 0.23989 0.32103 0 0.20285-0.11642 0.30515-0.23284 0.30515-0.12876 0-0.24518-0.11994-0.24518-0.31926 0-0.19756 0.11466-0.30692 0.23813-0.30692z"/>
   <path d="m113.82 93.458h0.12877v-0.4639c0-0.05292 7e-3 -0.09349 0.0406-0.13758 0.03-0.04057 0.1076-0.11289 0.19227-0.11289 0.0406 0 0.0811 0.01764 0.10936 0.05115 0.0441 0.05292 0.0441 0.12171 0.0441 0.17815v0.48507h0.12523v-0.4886c0-0.06174 0-0.12876-0.0282-0.19403-0.0406-0.08996-0.12347-0.14111-0.21519-0.14111-0.10936 0-0.20814 0.07055-0.26811 0.16051v-0.14111h-0.12877z"/>
   <path d="m115.57 92.285v1.173h0.0829l0.0441-0.10583c0.0529 0.07937 0.14111 0.127 0.23812 0.127 0.16581 0 0.3369-0.14111 0.3369-0.43392 0-0.28046-0.1658-0.41099-0.32455-0.41099-0.10231 0-0.19756 0.05468-0.24871 0.14288v-0.45156c0-0.01058 2e-3 -0.01411 0.0106-0.02117 4e-3 -0.0018 0.0123-0.0088 0.0106-0.0194zm0.33337 0.45861c0.0759 0 0.23636 0.0441 0.23636 0.32985 0 0.24518-0.15875 0.29104-0.23812 0.29104-0.0547 0-0.17639-0.02117-0.19756-0.17639-5e-3 -0.04057-5e-3 -0.08819-5e-3 -0.15875 0-0.07232 4e-3 -0.12524 0.0212-0.16933 0.03-0.07232 0.10407-0.11642 0.18344-0.11642z"/>
   <path d="m117.16 93.06c0-0.27869-0.17639-0.42333-0.35983-0.42333-0.20462 0-0.381 0.17639-0.381 0.42686 0 0.24518 0.17462 0.41804 0.37747 0.41804 0.1905 0 0.36336-0.15346 0.36336-0.42157zm-0.36865-0.31574c0.11641 0 0.23989 0.10054 0.23989 0.32103 0 0.20285-0.11642 0.30515-0.23284 0.30515-0.12876 0-0.24518-0.11994-0.24518-0.31926 0-0.19756 0.11465-0.30692 0.23813-0.30692z"/>
   <path d="m117.87 92.652-0.20108 0.2981-0.21167-0.2981h-0.13758l0.27693 0.39688-0.28222 0.40922h0.14287l0.20991-0.31221 0.22225 0.31221h0.14463l-0.29633-0.41275 0.26106-0.39335z"/>
  </g>
  <g fill="none" stroke="#f61bff" stroke-width=".26458">
   <path d="m118.33 119.46v-25.894"/>
   <path d="m88.959 118.26h-22.451"/>
   <path d="m89.107 119.54v7.9375h-22.49"/>
   <path d="m101.01 118.22v-25.135h-22.49"/>
   <path d="m94.398 116.89v-3.9688h-27.781"/>
   <path d="m97.044 114.25v-6.6146h-30.427"/>
  </g>
  <g fill="#e9e56f" stroke-width=".28222px">
   <g aria-label="Constraint wheel">
    <path d="m64.599 92.744c-0.1711 0-0.41804 0.12524-0.41804 0.56621 0 0.42333 0.23636 0.56092 0.41804 0.56092 0.13053 0 0.25224-0.06879 0.32103-0.18168l-0.08996-0.05821c-0.05115 0.0829-0.13935 0.13229-0.22401 0.13229-0.16228 0-0.30515-0.16757-0.30515-0.46567 0-0.29104 0.13935-0.45508 0.29457-0.45508 0.08467 0 0.1658 0.05115 0.2099 0.12876 0.0035 0.0053 0.0071 0.01058 0.0071 0.01764 0 0.0053-0.0018 0.0088-0.0018 0.01411 0 0.0018 0 0.01058 0.0088 0.01587l0.11642-0.05644c-0.05821-0.13229-0.1905-0.21872-0.3369-0.21872z"/>
    <path d="m65.804 93.453c0-0.2787-0.17639-0.42333-0.35983-0.42333-0.20461 0-0.381 0.17639-0.381 0.42686 0 0.24518 0.17462 0.41804 0.37747 0.41804 0.1905 0 0.36336-0.15346 0.36336-0.42157zm-0.36865-0.31574c0.11642 0 0.23989 0.10054 0.23989 0.32103 0 0.20285-0.11642 0.30515-0.23283 0.30515-0.12876 0-0.24518-0.11994-0.24518-0.31926 0-0.19756 0.11465-0.30692 0.23812-0.30692z"/>
    <path d="m65.994 93.852h0.12876v-0.4639c0-0.05292 0.0071-0.09349 0.04057-0.13758 0.02999-0.04057 0.1076-0.11289 0.19226-0.11289 0.04057 0 0.08114 0.01764 0.10936 0.05115 0.0441 0.05292 0.0441 0.12171 0.0441 0.17815v0.48507h0.12524v-0.4886c0-0.06174 0-0.12876-0.02822-0.19403-0.04057-0.08996-0.12347-0.14111-0.21519-0.14111-0.10936 0-0.20814 0.07055-0.26811 0.16051v-0.14111h-0.12876z"/>
    <path d="m67.518 93.153c-0.07408-0.08114-0.18168-0.12524-0.30162-0.12524-0.18697 0-0.30868 0.10407-0.30868 0.22401 0 0.14111 0.1517 0.19226 0.19579 0.20814 0.06879 0.02469 0.15699 0.04586 0.21696 0.07408 0.06703 0.03175 0.07937 0.07408 0.07937 0.1023 0 0.07585-0.09172 0.127-0.20638 0.127-0.13758 0-0.22578-0.0829-0.25224-0.11112-0.0053-0.0071-0.0053-0.01235-0.0053-0.0194 0-0.0018 0.0018-0.01235-0.0071-0.01587l-0.07408 0.12524c0.09525 0.08819 0.21872 0.12876 0.34043 0.12876 0.22049 0 0.33514-0.13053 0.33514-0.25224 0-0.05468-0.02293-0.12876-0.11818-0.18168-0.08996-0.05115-0.22049-0.06879-0.29633-0.10583-0.06526-0.03175-0.07937-0.07056-0.07937-0.09878 0-0.0635 0.07937-0.10936 0.16933-0.10936 0.11642 0 0.19403 0.07055 0.22401 0.11112 0.0053 0.0053 0.0035 0.01058 0.0035 0.01587 0 0.01058 0.0071 0.01411 0.01058 0.01411z"/>
    <path d="m67.97 92.83-0.01588 0.21696h-0.19226l-0.0018 0.10407h0.18874c-0.01058 0.13758-0.01587 0.27517-0.01587 0.41099 0 0.07232 0 0.15346 0.04762 0.22049 0.0388 0.05292 0.10054 0.08467 0.18344 0.08467 0.09525 0 0.18874-0.04057 0.25753-0.08996l-0.03881-0.10054c-0.06879 0.05115-0.13229 0.07408-0.18168 0.07408-0.05997 0-0.12171-0.03351-0.13582-0.13053 0-0.0071-0.0053-0.03704-0.0053-0.15522 0-0.10407 0.0053-0.2099 0.01588-0.31397h0.26458v-0.10583h-0.26282s0.01235-0.14464 0.02117-0.1905c0.0018-0.01764 0.01587-0.02822 0.0088-0.04762z"/>
    <path d="m68.695 93.047v0.8061h0.127v-0.39158c0-0.04939 0.0018-0.1023 0.05644-0.18874 0.07408-0.11642 0.16933-0.13582 0.22754-0.13582 0.06703 0 0.10936 0.03175 0.13229 0.05997 0.01058 0.01411 0.01587 0.02822 0.02999 0.04057l0.05997-0.12171c-0.05115-0.05292-0.12524-0.08819-0.2152-0.08819-0.11818 0-0.23812 0.05997-0.29104 0.17462l0.0053-0.15522z"/>
    <path d="m69.561 93.141 0.06174 0.08114c0.06703-0.06879 0.15699-0.08996 0.23283-0.08996 0.09525 0 0.14288 0.04057 0.1658 0.07761 0.02646 0.0441 0.0247 0.09701 0.0247 0.13935v0.02822h-0.0247c-0.11994 0-0.24694 0-0.34925 0.03704-0.127 0.04586-0.18344 0.14111-0.18344 0.22931 0 0.11818 0.1023 0.2293 0.26988 0.2293 0.09878 0 0.20108-0.03704 0.28928-0.10936v0.08819h0.11994v-0.49918c0-0.06526-0.0018-0.127-0.0388-0.1905-0.05292-0.08643-0.15522-0.13229-0.28046-0.13229-0.1076 0-0.21167 0.03351-0.28751 0.11113zm0.49036 0.33338v0.05468c0 0.04057 0 0.09349-0.05468 0.1517-0.02999 0.02999-0.10583 0.09525-0.21167 0.09525-0.1076 0-0.16933-0.06879-0.16933-0.13935 0-0.05997 0.04057-0.12524 0.14111-0.14993 0.07408-0.01764 0.18168-0.01235 0.26635-0.01235z"/>
    <path d="m70.471 93.046v0.10407h0.19403v0.60149h-0.20461v0.10054h0.52211v-0.10054h-0.18874v-0.70556zm0.26106-0.34925c-0.05115 0-0.09172 0.04057-0.09172 0.08996s0.04057 0.08996 0.09172 0.08996 0.09172-0.04057 0.09172-0.08996-0.04057-0.08996-0.09172-0.08996z"/>
    <path d="m71.286 93.852h0.12876v-0.4639c0-0.05292 0.0071-0.09349 0.04057-0.13758 0.02999-0.04057 0.1076-0.11289 0.19226-0.11289 0.04057 0 0.08114 0.01764 0.10936 0.05115 0.0441 0.05292 0.0441 0.12171 0.0441 0.17815v0.48507h0.12524v-0.4886c0-0.06174 0-0.12876-0.02822-0.19403-0.04057-0.08996-0.12347-0.14111-0.21519-0.14111-0.10936 0-0.20814 0.07055-0.26811 0.16051v-0.14111h-0.12876z"/>
    <path d="m72.38 92.83-0.01588 0.21696h-0.19226l-0.0018 0.10407h0.18874c-0.01058 0.13758-0.01587 0.27517-0.01587 0.41099 0 0.07232 0 0.15346 0.04762 0.22049 0.03881 0.05292 0.10054 0.08467 0.18344 0.08467 0.09525 0 0.18874-0.04057 0.25753-0.08996l-0.0388-0.10054c-0.06879 0.05115-0.13229 0.07408-0.18168 0.07408-0.05997 0-0.12171-0.03351-0.13582-0.13053 0-0.0071-0.0053-0.03704-0.0053-0.15522 0-0.10407 0.0053-0.2099 0.01588-0.31397h0.26458v-0.10583h-0.26282s0.01235-0.14464 0.02117-0.1905c0.0018-0.01764 0.01587-0.02822 0.0088-0.04762z"/>
    <path d="m73.838 93.046 0.16228 0.80786h0.11465l0.14111-0.52211 0.14993 0.52211h0.11818c0.05468-0.26635 0.10054-0.53622 0.13406-0.8061h-0.11642c0.0035 0.09701-0.0053 0.18697-0.07585 0.64558l-0.16933-0.5715h-0.07761l-0.13935 0.57326-0.11642-0.58208c-0.0035-0.01235-0.0035-0.01764 0.0018-0.03175 0.0018-0.0088 0.0071-0.02117 0.0018-0.03528z"/>
    <path d="m74.816 93.852h0.13053v-0.4639c0-0.05292 0.0053-0.09349 0.03881-0.13758 0.03175-0.04057 0.10936-0.11289 0.19403-0.11289 0.04057 0 0.08114 0.01764 0.10936 0.05115 0.0441 0.05292 0.0441 0.12171 0.0441 0.17815v0.48507h0.12524v-0.4886c0-0.06174-0.0018-0.12876-0.02999-0.19403-0.04057-0.08996-0.12171-0.14111-0.21343-0.14111-0.10936 0-0.2099 0.07055-0.26811 0.16051v-0.46743c0-0.0053 0-0.01058 0.0053-0.01587 0.0053-0.0053 0.01235-0.01058 0.01235-0.0194 0-0.0018 0-0.0035-0.0018-0.0053h-0.1464z"/>
    <path d="m76.031 93.028c-0.19226 0-0.37042 0.13758-0.37042 0.43039 0 0.26988 0.16757 0.41275 0.38629 0.41275 0.11642 0 0.22049-0.04233 0.28928-0.12524l-0.07055-0.06879c-0.05115 0.05997-0.12876 0.09172-0.20814 0.09172-0.1076 0-0.26458-0.05997-0.2734-0.30162h0.5715c0.0053-0.05468 0.0035-0.1076-0.0053-0.15346-0.03704-0.21696-0.18697-0.28575-0.31926-0.28575zm-0.24342 0.34219c0.02646-0.1905 0.14817-0.24518 0.2346-0.24518 0.13053 0 0.22401 0.11465 0.20814 0.24518z"/>
    <path d="m76.913 93.028c-0.19226 0-0.37042 0.13758-0.37042 0.43039 0 0.26988 0.16757 0.41275 0.38629 0.41275 0.11642 0 0.22049-0.04233 0.28928-0.12524l-0.07056-0.06879c-0.05115 0.05997-0.12876 0.09172-0.20814 0.09172-0.1076 0-0.26458-0.05997-0.2734-0.30162h0.5715c0.0053-0.05468 0.0035-0.1076-0.0053-0.15346-0.03704-0.21696-0.18697-0.28575-0.31926-0.28575zm-0.24342 0.34219c0.02646-0.1905 0.14817-0.24518 0.2346-0.24518 0.13053 0 0.22401 0.11465 0.20814 0.24518z"/>
    <path d="m77.488 92.681v0.10231h0.22931v0.96838h-0.23989v0.10054h0.60501v-0.10054h-0.23812v-1.0707z"/>
   </g>
   <g aria-label="Constraint revolute  (neck joint)">
    <path d="m49.775 107.04c-0.1711 0-0.41804 0.12524-0.41804 0.56621 0 0.42334 0.23636 0.56092 0.41804 0.56092 0.13053 0 0.25224-0.0688 0.32103-0.18168l-0.08996-0.0582c-0.05115 0.0829-0.13935 0.13229-0.22401 0.13229-0.16228 0-0.30515-0.16757-0.30515-0.46566 0-0.29105 0.13935-0.45509 0.29457-0.45509 0.08467 0 0.1658 0.0512 0.2099 0.12877 0.0035 5e-3 0.0071 0.0106 0.0071 0.0176 0 5e-3 -0.0018 9e-3 -0.0018 0.0141 0 2e-3 0 0.0106 0.0088 0.0159l0.11642-0.0564c-0.05821-0.13229-0.1905-0.21873-0.3369-0.21873z"/>
    <path d="m50.98 107.74c0-0.2787-0.17639-0.42334-0.35983-0.42334-0.20461 0-0.381 0.17639-0.381 0.42687 0 0.24518 0.17463 0.41804 0.37747 0.41804 0.1905 0 0.36336-0.15346 0.36336-0.42157zm-0.36865-0.31574c0.11642 0 0.23989 0.10054 0.23989 0.32103 0 0.20285-0.11642 0.30515-0.23283 0.30515-0.12876 0-0.24518-0.11994-0.24518-0.31926 0-0.19756 0.11465-0.30692 0.23812-0.30692z"/>
    <path d="m51.171 108.14h0.12876v-0.46391c0-0.0529 0.0071-0.0935 0.04057-0.13758 0.02999-0.0406 0.1076-0.11289 0.19226-0.11289 0.04057 0 0.08114 0.0176 0.10936 0.0511 0.0441 0.0529 0.0441 0.12171 0.0441 0.17816v0.48507h0.12524v-0.4886c0-0.0617 0-0.12876-0.02822-0.19403-0.04057-0.09-0.12347-0.14111-0.21519-0.14111-0.10936 0-0.20814 0.0706-0.26811 0.16051v-0.14111h-0.12876z"/>
    <path d="m52.695 107.44c-0.07408-0.0811-0.18168-0.12524-0.30162-0.12524-0.18697 0-0.30868 0.10407-0.30868 0.22401 0 0.14112 0.1517 0.19227 0.19579 0.20814 0.06879 0.0247 0.15699 0.0459 0.21696 0.0741 0.06703 0.0318 0.07938 0.0741 0.07938 0.1023 0 0.0759-0.09172 0.127-0.20638 0.127-0.13758 0-0.22578-0.0829-0.25224-0.11112-0.0053-7e-3 -0.0053-0.0123-0.0053-0.0194 0-2e-3 0.0018-0.0123-0.0071-0.0159l-0.07408 0.12524c0.09525 0.0882 0.21872 0.12876 0.34043 0.12876 0.22049 0 0.33514-0.13053 0.33514-0.25224 0-0.0547-0.02293-0.12876-0.11818-0.18168-0.08996-0.0512-0.22049-0.0688-0.29633-0.10583-0.06526-0.0318-0.07937-0.0706-0.07937-0.0988 0-0.0635 0.07937-0.10936 0.16933-0.10936 0.11642 0 0.19403 0.0706 0.22401 0.11113 0.0053 5e-3 0.0035 0.0106 0.0035 0.0159 0 0.0106 0.0071 0.0141 0.01058 0.0141z"/>
    <path d="m53.146 107.12-0.01588 0.21695h-0.19226l-0.0018 0.10407h0.18874c-0.01058 0.13759-0.01588 0.27517-0.01588 0.41099 0 0.0723 0 0.15346 0.04763 0.22049 0.0388 0.0529 0.10054 0.0847 0.18344 0.0847 0.09525 0 0.18874-0.0406 0.25753-0.09l-0.0388-0.10054c-0.06879 0.0511-0.13229 0.0741-0.18168 0.0741-0.05997 0-0.12171-0.0335-0.13582-0.13053 0-7e-3 -0.0053-0.037-0.0053-0.15522 0-0.10407 0.0053-0.20991 0.01588-0.31398h0.26458v-0.10583h-0.26282s0.01235-0.14464 0.02117-0.1905c0.0018-0.0176 0.01588-0.0282 0.0088-0.0476z"/>
    <path d="m53.871 107.34v0.8061h0.127v-0.39158c0-0.0494 0.0018-0.10231 0.05644-0.18874 0.07408-0.11642 0.16933-0.13582 0.22754-0.13582 0.06703 0 0.10936 0.0317 0.13229 0.06 0.01058 0.0141 0.01588 0.0282 0.02999 0.0406l0.05997-0.1217c-0.05115-0.0529-0.12524-0.0882-0.2152-0.0882-0.11818 0-0.23812 0.06-0.29104 0.17463l0.0053-0.15523z"/>
    <path d="m54.737 107.43 0.06174 0.0811c0.06703-0.0688 0.15699-0.09 0.23283-0.09 0.09525 0 0.14288 0.0406 0.1658 0.0776 0.02646 0.0441 0.0247 0.097 0.0247 0.13935v0.0282h-0.0247c-0.11994 0-0.24694 0-0.34925 0.037-0.127 0.0459-0.18344 0.14111-0.18344 0.22931 0 0.11818 0.10231 0.2293 0.26988 0.2293 0.09878 0 0.20108-0.037 0.28928-0.10936v0.0882h0.11994v-0.49918c0-0.0653-0.0018-0.127-0.03881-0.1905-0.05292-0.0864-0.15522-0.1323-0.28046-0.1323-0.1076 0-0.21167 0.0335-0.28751 0.11113zm0.49036 0.33337v0.0547c0 0.0406 0 0.0935-0.05468 0.15169-0.02999 0.03-0.10583 0.0952-0.21167 0.0952-0.1076 0-0.16933-0.0688-0.16933-0.13935 0-0.06 0.04057-0.12523 0.14111-0.14993 0.07408-0.0176 0.18168-0.0123 0.26635-0.0123z"/>
    <path d="m55.647 107.34v0.10407h0.19403v0.60149h-0.20461v0.10054h0.52211v-0.10054h-0.18874v-0.70556zm0.26106-0.34925c-0.05115 0-0.09172 0.0406-0.09172 0.09s0.04057 0.09 0.09172 0.09 0.09172-0.0406 0.09172-0.09-0.04057-0.09-0.09172-0.09z"/>
    <path d="m56.462 108.14h0.12876v-0.46391c0-0.0529 0.0071-0.0935 0.04057-0.13758 0.02999-0.0406 0.1076-0.11289 0.19226-0.11289 0.04057 0 0.08114 0.0176 0.10936 0.0511 0.0441 0.0529 0.0441 0.12171 0.0441 0.17816v0.48507h0.12524v-0.4886c0-0.0617 0-0.12876-0.02822-0.19403-0.04057-0.09-0.12347-0.14111-0.21519-0.14111-0.10936 0-0.20814 0.0706-0.26811 0.16051v-0.14111h-0.12877z"/>
    <path d="m57.556 107.12-0.01588 0.21695h-0.19226l-0.0018 0.10407h0.18874c-0.01058 0.13759-0.01588 0.27517-0.01588 0.41099 0 0.0723 0 0.15346 0.04762 0.22049 0.03881 0.0529 0.10054 0.0847 0.18344 0.0847 0.09525 0 0.18874-0.0406 0.25753-0.09l-0.03881-0.10054c-0.06879 0.0511-0.13229 0.0741-0.18168 0.0741-0.05997 0-0.12171-0.0335-0.13582-0.13053 0-7e-3 -0.0053-0.037-0.0053-0.15522 0-0.10407 0.0053-0.20991 0.01588-0.31398h0.26458v-0.10583h-0.26282s0.01235-0.14464 0.02117-0.1905c0.0018-0.0176 0.01588-0.0282 0.0088-0.0476z"/>
    <path d="m59.163 107.34v0.8061h0.127v-0.39158c0-0.0494 0.0018-0.10231 0.05644-0.18874 0.07408-0.11642 0.16933-0.13582 0.22754-0.13582 0.06703 0 0.10936 0.0317 0.13229 0.06 0.01058 0.0141 0.01588 0.0282 0.02999 0.0406l0.05997-0.1217c-0.05115-0.0529-0.12524-0.0882-0.2152-0.0882-0.11818 0-0.23812 0.06-0.29104 0.17463l0.0053-0.15523z"/>
    <path d="m60.325 107.32c-0.19226 0-0.37042 0.13758-0.37042 0.43039 0 0.26987 0.16757 0.41275 0.38629 0.41275 0.11642 0 0.22049-0.0423 0.28928-0.12524l-0.07056-0.0688c-0.05115 0.06-0.12876 0.0917-0.20814 0.0917-0.1076 0-0.26458-0.06-0.2734-0.30162h0.5715c0.0053-0.0547 0.0035-0.1076-0.0053-0.15346-0.03704-0.21696-0.18697-0.28575-0.31926-0.28575zm-0.24342 0.3422c0.02646-0.1905 0.14817-0.24519 0.2346-0.24519 0.13053 0 0.22401 0.11466 0.20814 0.24519z"/>
    <path d="m60.821 107.34 0.31926 0.81315h0.10054l0.19579-0.46037c0.04763-0.11289 0.09349-0.22931 0.11994-0.35278h-0.11465c-0.02117 0.11818-0.0635 0.22931-0.10936 0.33514l-0.12876 0.29986-0.23283-0.58914c-0.0018-4e-3 -0.0035-7e-3 -0.0035-0.0106 0-0.0106 0.0088-0.0212 0.0053-0.0353z"/>
    <path d="m62.445 107.74c0-0.2787-0.17639-0.42334-0.35983-0.42334-0.20461 0-0.381 0.17639-0.381 0.42687 0 0.24518 0.17462 0.41804 0.37747 0.41804 0.1905 0 0.36336-0.15346 0.36336-0.42157zm-0.36865-0.31574c0.11642 0 0.23989 0.10054 0.23989 0.32103 0 0.20285-0.11642 0.30515-0.23283 0.30515-0.12876 0-0.24518-0.11994-0.24518-0.31926 0-0.19756 0.11465-0.30692 0.23812-0.30692z"/>
    <path d="m62.664 106.97v0.10231h0.22931v0.96838h-0.23989v0.10054h0.60501v-0.10054h-0.23812v-1.0707z"/>
    <path d="m63.507 107.34v0.4498c0 0.0688 0 0.13934 0.03175 0.21166 0.04586 0.10584 0.14464 0.16404 0.25047 0.16404 0.10054 0 0.19579-0.0547 0.24871-0.14287l-0.0018 0.06c0 0.0212 0 0.0423 0.0035 0.0617h0.13406c-0.0088-0.0229-0.01058-0.0494-0.01058-0.0723v-0.73202h-0.127v0.44274c0 0.0617-0.0053 0.10936-0.03175 0.15875-0.03704 0.0688-0.10936 0.11994-0.18697 0.11994-0.06174 0-0.12171-0.0353-0.15346-0.0988-0.02822-0.0564-0.02822-0.11995-0.02822-0.17286v-0.4498z"/>
    <path d="m64.611 107.12-0.01587 0.21695h-0.19226l-0.0018 0.10407h0.18874c-0.01058 0.13759-0.01588 0.27517-0.01588 0.41099 0 0.0723 0 0.15346 0.04762 0.22049 0.03881 0.0529 0.10054 0.0847 0.18344 0.0847 0.09525 0 0.18874-0.0406 0.25753-0.09l-0.0388-0.10054c-0.06879 0.0511-0.13229 0.0741-0.18168 0.0741-0.05997 0-0.12171-0.0335-0.13582-0.13053 0-7e-3 -0.0053-0.037-0.0053-0.15522 0-0.10407 0.0053-0.20991 0.01587-0.31398h0.26458v-0.10583h-0.26282s0.01235-0.14464 0.02117-0.1905c0.0018-0.0176 0.01587-0.0282 0.0088-0.0476z"/>
    <path d="m65.617 107.32c-0.19226 0-0.37042 0.13758-0.37042 0.43039 0 0.26987 0.16757 0.41275 0.38629 0.41275 0.11642 0 0.22049-0.0423 0.28928-0.12524l-0.07056-0.0688c-0.05115 0.06-0.12876 0.0917-0.20814 0.0917-0.1076 0-0.26458-0.06-0.2734-0.30162h0.5715c0.0053-0.0547 0.0035-0.1076-0.0053-0.15346-0.03704-0.21696-0.18697-0.28575-0.31926-0.28575zm-0.24342 0.3422c0.02646-0.1905 0.14817-0.24519 0.2346-0.24519 0.13053 0 0.22401 0.11466 0.20814 0.24519z"/>
    <path d="m49.976 109.17c-0.27164 0.11994-0.44626 0.39687-0.44626 0.71966 0 0.32103 0.16933 0.61384 0.44803 0.76024l0.05821-0.0935c-0.24165-0.13934-0.38276-0.39863-0.38276-0.67204 0-0.25223 0.12171-0.47801 0.32808-0.59796 0.0035-4e-3 0.0088-7e-3 0.01588-7e-3 0.0053 0 0.01058 4e-3 0.01764 4e-3 0.0035 0 0.0088-2e-3 0.01587-4e-3z"/>
    <path d="m50.289 110.35h0.12876v-0.4639c0-0.0529 0.0071-0.0935 0.04057-0.13759 0.02999-0.0406 0.1076-0.11289 0.19226-0.11289 0.04057 0 0.08114 0.0176 0.10936 0.0512 0.0441 0.0529 0.0441 0.1217 0.0441 0.17815v0.48507h0.12523v-0.4886c0-0.0617 0-0.12876-0.02822-0.19403-0.04057-0.09-0.12347-0.14111-0.2152-0.14111-0.10936 0-0.20814 0.0706-0.26811 0.16052v-0.14112h-0.12876z"/>
    <path d="m51.506 109.52c-0.19226 0-0.37042 0.13759-0.37042 0.43039 0 0.26988 0.16757 0.41275 0.38629 0.41275 0.11642 0 0.22049-0.0423 0.28928-0.12524l-0.07056-0.0688c-0.05115 0.06-0.12876 0.0917-0.20814 0.0917-0.1076 0-0.26458-0.06-0.2734-0.30163h0.5715c0.0053-0.0547 0.0035-0.1076-0.0053-0.15346-0.03704-0.21696-0.18697-0.28575-0.31926-0.28575zm-0.24342 0.3422c0.02646-0.1905 0.14817-0.24518 0.2346-0.24518 0.13053 0 0.22401 0.11465 0.20814 0.24518z"/>
    <path d="m52.737 109.68c-0.0635-0.0935-0.1711-0.14993-0.30162-0.14993-0.23636 0-0.40393 0.17815-0.40393 0.4198 0 0.24342 0.16757 0.42333 0.39688 0.42333 0.11112 0 0.22049-0.0459 0.29633-0.12876l-0.07232-0.0847c-0.05468 0.0617-0.13406 0.097-0.21343 0.097-0.15699 0-0.27693-0.13053-0.27693-0.31927 0-0.18344 0.11818-0.29809 0.26635-0.29809 0.13758 0 0.20285 0.0953 0.20814 0.10583 0.0071 0.0124-0.0035 0.03 0.01058 0.0406z"/>
    <path d="m52.931 109.18v1.173h0.127v-0.30515l0.1076-0.0988 0.32808 0.41099s0.06879-7e-3 0.15169-7e-3h0.01235l-0.39511-0.48154 0.34043-0.31926h-0.04586c-0.03175 0-0.0635-2e-3 -0.09525-0.0106l-0.40393 0.37571v-0.69144c0-7e-3 0.0018-0.0123 0.0071-0.0212 0.0053-5e-3 0.01235-0.0123 0.01058-0.0247z"/>
    <path d="m54.799 109.54v0.10583h0.30162v0.66852c0 0.0441-0.0018 0.0864-0.02117 0.12876-0.02999 0.0653-0.09349 0.10231-0.16228 0.10231-0.09701 0-0.14993-0.0706-0.15699-0.0811-0.0071-0.0123-0.0035-0.0229-0.01588-0.0318l-0.08114 0.10936c0.05821 0.0723 0.1464 0.11289 0.24518 0.11289 0.11642 0 0.22754-0.0547 0.28222-0.16052 0.03528-0.0688 0.03704-0.13405 0.03704-0.20284v-0.75142zm0.36689-0.34925c-0.05115 0-0.09172 0.0406-0.09172 0.09s0.04057 0.09 0.09172 0.09c0.04939 0 0.08996-0.0406 0.08996-0.09s-0.04057-0.09-0.08996-0.09z"/>
    <path d="m56.272 109.95c0-0.2787-0.17639-0.42333-0.35983-0.42333-0.20461 0-0.381 0.17638-0.381 0.42686 0 0.24518 0.17462 0.41804 0.37747 0.41804 0.1905 0 0.36336-0.15346 0.36336-0.42157zm-0.36865-0.31574c0.11642 0 0.23989 0.10054 0.23989 0.32103 0 0.20285-0.11642 0.30515-0.23283 0.30515-0.12876 0-0.24518-0.11994-0.24518-0.31926 0-0.19756 0.11465-0.30692 0.23812-0.30692z"/>
    <path d="m56.529 109.54v0.10407h0.19403v0.60149h-0.20461v0.10054h0.52211v-0.10054h-0.18874v-0.70556zm0.26106-0.34925c-0.05115 0-0.09172 0.0406-0.09172 0.09s0.04057 0.09 0.09172 0.09 0.09172-0.0406 0.09172-0.09-0.04057-0.09-0.09172-0.09z"/>
    <path d="m57.344 110.35h0.12876v-0.4639c0-0.0529 0.0071-0.0935 0.04057-0.13759 0.02999-0.0406 0.1076-0.11289 0.19226-0.11289 0.04057 0 0.08114 0.0176 0.10936 0.0512 0.0441 0.0529 0.0441 0.1217 0.0441 0.17815v0.48507h0.12524v-0.4886c0-0.0617 0-0.12876-0.02822-0.19403-0.04057-0.09-0.12347-0.14111-0.2152-0.14111-0.10936 0-0.20814 0.0706-0.26811 0.16052v-0.14112h-0.12876z"/>
    <path d="m58.438 109.33-0.01588 0.21695h-0.19226l-0.0018 0.10407h0.18874c-0.01058 0.13759-0.01587 0.27517-0.01587 0.41099 0 0.0723 0 0.15346 0.04762 0.22049 0.03881 0.0529 0.10054 0.0847 0.18344 0.0847 0.09525 0 0.18874-0.0406 0.25753-0.09l-0.03881-0.10054c-0.06879 0.0512-0.13229 0.0741-0.18168 0.0741-0.05997 0-0.12171-0.0335-0.13582-0.13053 0-7e-3 -0.0053-0.037-0.0053-0.15522 0-0.10407 0.0053-0.20991 0.01588-0.31398h0.26458v-0.10583h-0.26282s0.01235-0.14464 0.02117-0.1905c0.0018-0.0176 0.01588-0.0282 0.0088-0.0476z"/>
    <path d="m59.124 109.28c0.23283 0.12524 0.381 0.36513 0.381 0.62795 0 0.26458-0.15169 0.51153-0.38982 0.63676l0.03351 0.1076c0.2928-0.13935 0.48154-0.43215 0.48154-0.74965 0-0.31398-0.18521-0.59973-0.47272-0.73202z"/>
   </g>
   <g aria-label="Constraint revolute  (spring)">
    <path d="m49.775 112.33c-0.1711 0-0.41804 0.12523-0.41804 0.5662 0 0.42334 0.23636 0.56092 0.41804 0.56092 0.13053 0 0.25224-0.0688 0.32103-0.18168l-0.08996-0.0582c-0.05115 0.0829-0.13935 0.13229-0.22401 0.13229-0.16228 0-0.30515-0.16757-0.30515-0.46566 0-0.29104 0.13935-0.45509 0.29457-0.45509 0.08467 0 0.1658 0.0512 0.2099 0.12877 0.0035 5e-3 0.0071 0.0106 0.0071 0.0176 0 5e-3 -0.0018 9e-3 -0.0018 0.0141 0 2e-3 0 0.0106 0.0088 0.0159l0.11642-0.0564c-0.05821-0.13229-0.1905-0.21872-0.3369-0.21872z"/>
    <path d="m50.98 113.04c0-0.27869-0.17639-0.42333-0.35983-0.42333-0.20461 0-0.381 0.17639-0.381 0.42686 0 0.24518 0.17463 0.41804 0.37747 0.41804 0.1905 0 0.36336-0.15346 0.36336-0.42157zm-0.36865-0.31574c0.11642 0 0.23989 0.10055 0.23989 0.32103 0 0.20285-0.11642 0.30515-0.23283 0.30515-0.12876 0-0.24518-0.11994-0.24518-0.31926 0-0.19756 0.11465-0.30692 0.23812-0.30692z"/>
    <path d="m51.171 113.43h0.12876v-0.4639c0-0.0529 0.0071-0.0935 0.04057-0.13759 0.02999-0.0406 0.1076-0.11289 0.19226-0.11289 0.04057 0 0.08114 0.0176 0.10936 0.0512 0.0441 0.0529 0.0441 0.1217 0.0441 0.17815v0.48507h0.12524v-0.4886c0-0.0617 0-0.12876-0.02822-0.19403-0.04057-0.09-0.12347-0.14111-0.21519-0.14111-0.10936 0-0.20814 0.0706-0.26811 0.16052v-0.14111h-0.12876z"/>
    <path d="m52.695 112.74c-0.07408-0.0811-0.18168-0.12524-0.30162-0.12524-0.18697 0-0.30868 0.10407-0.30868 0.22402 0 0.14111 0.1517 0.19226 0.19579 0.20814 0.06879 0.0247 0.15699 0.0459 0.21696 0.0741 0.06703 0.0318 0.07938 0.0741 0.07938 0.1023 0 0.0759-0.09172 0.127-0.20638 0.127-0.13758 0-0.22578-0.0829-0.25224-0.11112-0.0053-7e-3 -0.0053-0.0123-0.0053-0.0194 0-2e-3 0.0018-0.0123-0.0071-0.0159l-0.07408 0.12524c0.09525 0.0882 0.21872 0.12876 0.34043 0.12876 0.22049 0 0.33514-0.13053 0.33514-0.25223 0-0.0547-0.02293-0.12877-0.11818-0.18169-0.08996-0.0511-0.22049-0.0688-0.29633-0.10583-0.06526-0.0318-0.07937-0.0705-0.07937-0.0988 0-0.0635 0.07937-0.10936 0.16933-0.10936 0.11642 0 0.19403 0.0706 0.22401 0.11113 0.0053 5e-3 0.0035 0.0106 0.0035 0.0159 0 0.0106 0.0071 0.0141 0.01058 0.0141z"/>
    <path d="m53.146 112.41-0.01588 0.21696h-0.19226l-0.0018 0.10406h0.18874c-0.01058 0.13759-0.01588 0.27517-0.01588 0.41099 0 0.0723 0 0.15346 0.04763 0.22049 0.0388 0.0529 0.10054 0.0847 0.18344 0.0847 0.09525 0 0.18874-0.0406 0.25753-0.09l-0.0388-0.10055c-0.06879 0.0512-0.13229 0.0741-0.18168 0.0741-0.05997 0-0.12171-0.0335-0.13582-0.13053 0-7e-3 -0.0053-0.037-0.0053-0.15522 0-0.10407 0.0053-0.20991 0.01588-0.31398h0.26458v-0.10583h-0.26282s0.01235-0.14464 0.02117-0.1905c0.0018-0.0176 0.01588-0.0282 0.0088-0.0476z"/>
    <path d="m53.871 112.63v0.80609h0.127v-0.39158c0-0.0494 0.0018-0.10231 0.05644-0.18874 0.07408-0.11641 0.16933-0.13582 0.22754-0.13582 0.06703 0 0.10936 0.0318 0.13229 0.06 0.01058 0.0141 0.01588 0.0282 0.02999 0.0406l0.05997-0.12171c-0.05115-0.0529-0.12524-0.0882-0.2152-0.0882-0.11818 0-0.23812 0.06-0.29104 0.17463l0.0053-0.15522z"/>
    <path d="m54.737 112.72 0.06174 0.0811c0.06703-0.0688 0.15699-0.09 0.23283-0.09 0.09525 0 0.14288 0.0406 0.1658 0.0776 0.02646 0.0441 0.0247 0.097 0.0247 0.13935v0.0282h-0.0247c-0.11994 0-0.24694 0-0.34925 0.037-0.127 0.0459-0.18344 0.14112-0.18344 0.22931 0 0.11818 0.10231 0.22931 0.26988 0.22931 0.09878 0 0.20108-0.0371 0.28928-0.10937v0.0882h0.11994v-0.49918c0-0.0653-0.0018-0.127-0.03881-0.1905-0.05292-0.0864-0.15522-0.13229-0.28046-0.13229-0.1076 0-0.21167 0.0335-0.28751 0.11112zm0.49036 0.33338v0.0547c0 0.0406 0 0.0935-0.05468 0.15169-0.02999 0.03-0.10583 0.0953-0.21167 0.0953-0.1076 0-0.16933-0.0688-0.16933-0.13935 0-0.06 0.04057-0.12523 0.14111-0.14993 0.07408-0.0176 0.18168-0.0123 0.26635-0.0123z"/>
    <path d="m55.647 112.63v0.10407h0.19403v0.60149h-0.20461v0.10054h0.52211v-0.10054h-0.18874v-0.70556zm0.26106-0.34925c-0.05115 0-0.09172 0.0406-0.09172 0.09s0.04057 0.09 0.09172 0.09 0.09172-0.0406 0.09172-0.09-0.04057-0.09-0.09172-0.09z"/>
    <path d="m56.462 113.43h0.12876v-0.4639c0-0.0529 0.0071-0.0935 0.04057-0.13759 0.02999-0.0406 0.1076-0.11289 0.19226-0.11289 0.04057 0 0.08114 0.0176 0.10936 0.0512 0.0441 0.0529 0.0441 0.1217 0.0441 0.17815v0.48507h0.12524v-0.4886c0-0.0617 0-0.12876-0.02822-0.19403-0.04057-0.09-0.12347-0.14111-0.21519-0.14111-0.10936 0-0.20814 0.0706-0.26811 0.16052v-0.14111h-0.12877z"/>
    <path d="m57.556 112.41-0.01588 0.21696h-0.19226l-0.0018 0.10406h0.18874c-0.01058 0.13759-0.01588 0.27517-0.01588 0.41099 0 0.0723 0 0.15346 0.04762 0.22049 0.03881 0.0529 0.10054 0.0847 0.18344 0.0847 0.09525 0 0.18874-0.0406 0.25753-0.09l-0.03881-0.10055c-0.06879 0.0512-0.13229 0.0741-0.18168 0.0741-0.05997 0-0.12171-0.0335-0.13582-0.13053 0-7e-3 -0.0053-0.037-0.0053-0.15522 0-0.10407 0.0053-0.20991 0.01588-0.31398h0.26458v-0.10583h-0.26282s0.01235-0.14464 0.02117-0.1905c0.0018-0.0176 0.01588-0.0282 0.0088-0.0476z"/>
    <path d="m59.163 112.63v0.80609h0.127v-0.39158c0-0.0494 0.0018-0.10231 0.05644-0.18874 0.07408-0.11641 0.16933-0.13582 0.22754-0.13582 0.06703 0 0.10936 0.0318 0.13229 0.06 0.01058 0.0141 0.01588 0.0282 0.02999 0.0406l0.05997-0.12171c-0.05115-0.0529-0.12524-0.0882-0.2152-0.0882-0.11818 0-0.23812 0.06-0.29104 0.17463l0.0053-0.15522z"/>
    <path d="m60.325 112.61c-0.19226 0-0.37042 0.13759-0.37042 0.43039 0 0.26988 0.16757 0.41275 0.38629 0.41275 0.11642 0 0.22049-0.0423 0.28928-0.12523l-0.07056-0.0688c-0.05115 0.06-0.12876 0.0917-0.20814 0.0917-0.1076 0-0.26458-0.06-0.2734-0.30163h0.5715c0.0053-0.0547 0.0035-0.1076-0.0053-0.15346-0.03704-0.21696-0.18697-0.28575-0.31926-0.28575zm-0.24342 0.3422c0.02646-0.1905 0.14817-0.24518 0.2346-0.24518 0.13053 0 0.22401 0.11465 0.20814 0.24518z"/>
    <path d="m60.821 112.63 0.31926 0.81315h0.10054l0.19579-0.46037c0.04763-0.11289 0.09349-0.22931 0.11994-0.35278h-0.11465c-0.02117 0.11818-0.0635 0.22931-0.10936 0.33514l-0.12876 0.29986-0.23283-0.58914c-0.0018-4e-3 -0.0035-7e-3 -0.0035-0.0106 0-0.0106 0.0088-0.0212 0.0053-0.0353z"/>
    <path d="m62.445 113.04c0-0.27869-0.17639-0.42333-0.35983-0.42333-0.20461 0-0.381 0.17639-0.381 0.42686 0 0.24518 0.17462 0.41804 0.37747 0.41804 0.1905 0 0.36336-0.15346 0.36336-0.42157zm-0.36865-0.31574c0.11642 0 0.23989 0.10055 0.23989 0.32103 0 0.20285-0.11642 0.30515-0.23283 0.30515-0.12876 0-0.24518-0.11994-0.24518-0.31926 0-0.19756 0.11465-0.30692 0.23812-0.30692z"/>
    <path d="m62.664 112.26v0.1023h0.22931v0.96838h-0.23989v0.10054h0.60501v-0.10054h-0.23812v-1.0707z"/>
    <path d="m63.507 112.63v0.44979c0 0.0688 0 0.13934 0.03175 0.21166 0.04586 0.10584 0.14464 0.16405 0.25047 0.16405 0.10054 0 0.19579-0.0547 0.24871-0.14288l-0.0018 0.06c0 0.0212 0 0.0423 0.0035 0.0617h0.13406c-0.0088-0.0229-0.01058-0.0494-0.01058-0.0723v-0.73201h-0.127v0.44273c0 0.0617-0.0053 0.10936-0.03175 0.15875-0.03704 0.0688-0.10936 0.11995-0.18697 0.11995-0.06174 0-0.12171-0.0353-0.15346-0.0988-0.02822-0.0564-0.02822-0.11995-0.02822-0.17286v-0.44979z"/>
    <path d="m64.611 112.41-0.01587 0.21696h-0.19226l-0.0018 0.10406h0.18874c-0.01058 0.13759-0.01588 0.27517-0.01588 0.41099 0 0.0723 0 0.15346 0.04762 0.22049 0.03881 0.0529 0.10054 0.0847 0.18344 0.0847 0.09525 0 0.18874-0.0406 0.25753-0.09l-0.0388-0.10055c-0.06879 0.0512-0.13229 0.0741-0.18168 0.0741-0.05997 0-0.12171-0.0335-0.13582-0.13053 0-7e-3 -0.0053-0.037-0.0053-0.15522 0-0.10407 0.0053-0.20991 0.01587-0.31398h0.26458v-0.10583h-0.26282s0.01235-0.14464 0.02117-0.1905c0.0018-0.0176 0.01587-0.0282 0.0088-0.0476z"/>
    <path d="m65.617 112.61c-0.19226 0-0.37042 0.13759-0.37042 0.43039 0 0.26988 0.16757 0.41275 0.38629 0.41275 0.11642 0 0.22049-0.0423 0.28928-0.12523l-0.07056-0.0688c-0.05115 0.06-0.12876 0.0917-0.20814 0.0917-0.1076 0-0.26458-0.06-0.2734-0.30163h0.5715c0.0053-0.0547 0.0035-0.1076-0.0053-0.15346-0.03704-0.21696-0.18697-0.28575-0.31926-0.28575zm-0.24342 0.3422c0.02646-0.1905 0.14817-0.24518 0.2346-0.24518 0.13053 0 0.22401 0.11465 0.20814 0.24518z"/>
    <path d="m49.976 114.46c-0.27164 0.11994-0.44626 0.39687-0.44626 0.71967 0 0.32102 0.16933 0.61383 0.44803 0.76023l0.05821-0.0935c-0.24165-0.13935-0.38276-0.39864-0.38276-0.67205 0-0.25223 0.12171-0.47801 0.32808-0.59795 0.0035-4e-3 0.0088-7e-3 0.01588-7e-3 0.0053 0 0.01058 4e-3 0.01764 4e-3 0.0035 0 0.0088-2e-3 0.01587-4e-3z"/>
    <path d="m50.931 114.94c-0.07408-0.0811-0.18168-0.12524-0.30162-0.12524-0.18697 0-0.30868 0.10407-0.30868 0.22402 0 0.14111 0.1517 0.19226 0.19579 0.20814 0.06879 0.0247 0.15699 0.0459 0.21696 0.0741 0.06703 0.0318 0.07937 0.0741 0.07937 0.10231 0 0.0758-0.09172 0.127-0.20638 0.127-0.13758 0-0.22578-0.0829-0.25224-0.11113-0.0053-7e-3 -0.0053-0.0123-0.0053-0.0194 0-2e-3 0.0018-0.0123-0.0071-0.0159l-0.07408 0.12524c0.09525 0.0882 0.21872 0.12876 0.34043 0.12876 0.22049 0 0.33514-0.13053 0.33514-0.25223 0-0.0547-0.02293-0.12877-0.11818-0.18168-0.08996-0.0512-0.22049-0.0688-0.29633-0.10584-0.06526-0.0318-0.07937-0.0705-0.07937-0.0988 0-0.0635 0.07937-0.10936 0.16933-0.10936 0.11642 0 0.19403 0.0706 0.22401 0.11113 0.0053 5e-3 0.0035 0.0106 0.0035 0.0159 0 0.0106 0.0071 0.0141 0.01058 0.0141z"/>
    <path d="m51.155 114.84 0.0018 1.0989h0.12876v-0.4004c0.05468 0.0794 0.14464 0.12876 0.24165 0.12876 0.16581 0 0.33867-0.13935 0.33867-0.43392 0-0.28398-0.16757-0.41098-0.32632-0.41098-0.10407 0-0.20108 0.0529-0.25576 0.14111v-0.12347zm0.3369 0.09c0.07055 0 0.24165 0.0371 0.24165 0.32985 0 0.254-0.1658 0.29457-0.24165 0.29457-0.07585 0-0.15346-0.0388-0.18521-0.11112-0.02293-0.0547-0.02293-0.12171-0.02293-0.23813 0-0.067 0.0035-0.11642 0.02117-0.15875 0.03175-0.0723 0.10583-0.11642 0.18697-0.11642z"/>
    <path d="m52.107 114.84v0.80609h0.127v-0.39158c0-0.0494 0.0018-0.10231 0.05644-0.18874 0.07408-0.11641 0.16933-0.13582 0.22754-0.13582 0.06703 0 0.10936 0.0318 0.13229 0.06 0.01058 0.0141 0.01588 0.0282 0.02999 0.0406l0.05997-0.12171c-0.05115-0.0529-0.12524-0.0882-0.21519-0.0882-0.11818 0-0.23812 0.06-0.29104 0.17463l0.0053-0.15522z"/>
    <path d="m53.002 114.83v0.10407h0.19403v0.60149h-0.20461v0.10054h0.52211v-0.10054h-0.18874v-0.70556zm0.26106-0.34925c-0.05115 0-0.09172 0.0406-0.09172 0.09s0.04057 0.09 0.09172 0.09 0.09172-0.0406 0.09172-0.09-0.04057-0.09-0.09172-0.09z"/>
    <path d="m53.816 115.64h0.12876v-0.4639c0-0.0529 0.0071-0.0935 0.04057-0.13759 0.02999-0.0406 0.1076-0.11289 0.19226-0.11289 0.04057 0 0.08114 0.0176 0.10936 0.0512 0.0441 0.0529 0.0441 0.12171 0.0441 0.17815v0.48507h0.12524v-0.4886c0-0.0617 0-0.12876-0.02822-0.19403-0.04057-0.09-0.12347-0.14111-0.2152-0.14111-0.10936 0-0.20814 0.0706-0.26811 0.16052v-0.14111h-0.12876z"/>
    <path d="m54.799 115.09c0-0.097 0.08114-0.17639 0.17815-0.17639 0.09878 0 0.17815 0.0794 0.17815 0.17639 0 0.097-0.07938 0.17639-0.17815 0.17639-0.09878 0-0.17815-0.0794-0.17815-0.17639zm0.18521-0.27693c-0.16051 0-0.29986 0.127-0.29986 0.28398 0 0.0882 0.0441 0.1711 0.11818 0.21873-0.05821 0.0494-0.09172 0.10407-0.09172 0.15522 0 0.0335 0.01411 0.0811 0.06526 0.1076-0.08643 0.0547-0.13053 0.11465-0.13053 0.17815 0 0.0882 0.08114 0.19226 0.36336 0.19226 0.2734 0 0.37218-0.13934 0.37218-0.24694 0-0.0706-0.04057-0.14111-0.12524-0.17463-0.08467-0.0353-0.18168-0.0229-0.2734-0.0229-0.05997 0-0.09878-5e-3 -0.11465-0.0106-0.03175-9e-3 -0.04939-0.0282-0.04939-0.0529 0-0.0423 0.04939-0.0829 0.05821-0.09 0.03175 0.0123 0.06703 0.0176 0.1023 0.0176 0.15875 0 0.28928-0.127 0.28928-0.27516 0-0.0494-0.01411-0.097-0.04057-0.13759 0.04233-0.0247 0.09172-0.0388 0.14111-0.0388 0.01587 0 0.02999 2e-3 0.04586 5e-3l-0.01411-0.10407c-0.08114-7e-3 -0.16228 0.0194-0.22401 0.0706-0.05115-0.0494-0.11818-0.0759-0.19226-0.0759zm-0.12171 0.78846c0.02999 4e-3 0.07232 7e-3 0.13406 0.0106 0.05997 2e-3 0.12524-4e-3 0.1711 4e-3 0.07408 0.0123 0.09701 0.0582 0.09701 0.0935s-0.02117 0.0776-0.07585 0.1076c-0.05997 0.0318-0.127 0.0353-0.18168 0.0353-0.03704 0-0.10583-2e-3 -0.1658-0.0265-0.06526-0.0265-0.07938-0.0706-0.07938-0.0988 0-0.0582 0.05468-0.10054 0.10054-0.12523z"/>
    <path d="m55.596 114.58c0.23283 0.12524 0.381 0.36513 0.381 0.62795 0 0.26458-0.15169 0.51153-0.38982 0.63676l0.03351 0.1076c0.2928-0.13935 0.48154-0.43215 0.48154-0.74965 0-0.31397-0.18521-0.59972-0.47272-0.73202z"/>
   </g>
   <g aria-label="Particle emitter">
    <path d="m51.506 117.89v1.0989h0.12876v-0.48507h0.21519c0.06879 0 0.13406-2e-3 0.20108-0.0353 0.10231-0.0512 0.15522-0.15698 0.15522-0.26811 0-0.11112-0.05292-0.21872-0.15699-0.27164-0.06879-0.037-0.13758-0.0388-0.20814-0.0388zm0.12876 0.11641h0.20638c0.04586 0 0.08996 2e-3 0.13582 0.0229 0.06703 0.0353 0.10407 0.10584 0.10407 0.17639 0 0.0706-0.03528 0.13582-0.09878 0.16757-0.04233 0.0212-0.08467 0.0229-0.127 0.0229h-0.22225z"/>
    <path d="m52.444 118.28 0.06174 0.0811c0.06703-0.0688 0.15699-0.09 0.23283-0.09 0.09525 0 0.14288 0.0406 0.16581 0.0776 0.02646 0.0441 0.02469 0.097 0.02469 0.13935v0.0282h-0.02469c-0.11994 0-0.24694 0-0.34925 0.0371-0.127 0.0459-0.18344 0.14111-0.18344 0.2293 0 0.11818 0.10231 0.22931 0.26988 0.22931 0.09878 0 0.20108-0.037 0.28928-0.10936v0.0882h0.11994v-0.49918c0-0.0653-0.0018-0.127-0.03881-0.1905-0.05292-0.0864-0.15522-0.13229-0.28046-0.13229-0.1076 0-0.21167 0.0335-0.28751 0.11112zm0.49036 0.33338v0.0547c0 0.0406 0 0.0935-0.05468 0.15169-0.02999 0.03-0.10583 0.0952-0.21167 0.0952-0.1076 0-0.16933-0.0688-0.16933-0.13934 0-0.06 0.04057-0.12524 0.14111-0.14993 0.07408-0.0176 0.18168-0.0123 0.26635-0.0123z"/>
    <path d="m53.342 118.19v0.80609h0.127v-0.39158c0-0.0494 0.0018-0.1023 0.05644-0.18874 0.07408-0.11641 0.16933-0.13581 0.22754-0.13581 0.06703 0 0.10936 0.0318 0.13229 0.06 0.01058 0.0141 0.01588 0.0282 0.02999 0.0406l0.05997-0.12171c-0.05115-0.0529-0.12524-0.0882-0.21519-0.0882-0.11818 0-0.23812 0.06-0.29104 0.17463l0.0053-0.15522z"/>
    <path d="m54.381 117.97-0.01588 0.21696h-0.19226l-0.0018 0.10407h0.18874c-0.01058 0.13758-0.01588 0.27516-0.01588 0.41098 0 0.0723 0 0.15346 0.04763 0.22049 0.03881 0.0529 0.10054 0.0847 0.18344 0.0847 0.09525 0 0.18874-0.0406 0.25753-0.09l-0.0388-0.10054c-0.06879 0.0512-0.13229 0.0741-0.18168 0.0741-0.05997 0-0.12171-0.0335-0.13582-0.13053 0-7e-3 -0.0053-0.037-0.0053-0.15522 0-0.10407 0.0053-0.2099 0.01588-0.31397h0.26458v-0.10584h-0.26278s0.01235-0.14464 0.02117-0.1905c0.0018-0.0176 0.01587-0.0282 0.0088-0.0476z"/>
    <path d="m55.118 118.18v0.10407h0.19403v0.60149h-0.20461v0.10054h0.52211v-0.10054h-0.18874v-0.70556zm0.26106-0.34925c-0.05115 0-0.09172 0.0406-0.09172 0.09s0.04057 0.09 0.09172 0.09 0.09172-0.0406 0.09172-0.09-0.04057-0.09-0.09172-0.09z"/>
    <path d="m56.618 118.32c-0.0635-0.0935-0.1711-0.14993-0.30162-0.14993-0.23636 0-0.40393 0.17815-0.40393 0.4198 0 0.24342 0.16757 0.42334 0.39688 0.42334 0.11112 0 0.22049-0.0459 0.29633-0.12877l-0.07232-0.0847c-0.05468 0.0617-0.13406 0.097-0.21343 0.097-0.15699 0-0.27693-0.13053-0.27693-0.31926 0-0.18345 0.11818-0.2981 0.26635-0.2981 0.13758 0 0.20285 0.0952 0.20814 0.10583 0.0071 0.0123-0.0035 0.03 0.01058 0.0406z"/>
    <path d="m56.843 117.82v0.1023h0.2293v0.96838h-0.23989v0.10054h0.60501v-0.10054h-0.23812v-1.0707z"/>
    <path d="m58.032 118.17c-0.19226 0-0.37042 0.13759-0.37042 0.43039 0 0.26988 0.16757 0.41275 0.38629 0.41275 0.11642 0 0.22049-0.0423 0.28928-0.12523l-0.07056-0.0688c-0.05115 0.06-0.12876 0.0917-0.20814 0.0917-0.1076 0-0.26458-0.06-0.2734-0.30163h0.5715c0.0053-0.0547 0.0035-0.10759-0.0053-0.15346-0.03704-0.21695-0.18697-0.28575-0.31926-0.28575zm-0.24342 0.3422c0.02646-0.1905 0.14817-0.24518 0.2346-0.24518 0.13053 0 0.22401 0.11465 0.20814 0.24518z"/>
    <path d="m59.796 118.17c-0.19226 0-0.37042 0.13759-0.37042 0.43039 0 0.26988 0.16757 0.41275 0.38629 0.41275 0.11642 0 0.22049-0.0423 0.28928-0.12523l-0.07056-0.0688c-0.05115 0.06-0.12876 0.0917-0.20814 0.0917-0.1076 0-0.26458-0.06-0.2734-0.30163h0.5715c0.0053-0.0547 0.0035-0.10759-0.0053-0.15346-0.03704-0.21695-0.18697-0.28575-0.31926-0.28575zm-0.24342 0.3422c0.02646-0.1905 0.14817-0.24518 0.2346-0.24518 0.13053 0 0.22401 0.11465 0.20814 0.24518z"/>
    <path d="m60.288 118.99h0.11642v-0.53622c0-0.0388 0.0035-0.0741 0.02646-0.11642 0.02822-0.0529 0.0635-0.0741 0.09701-0.0741 0.02822 0 0.05997 0.0176 0.07408 0.0617 0.01058 0.0335 0.0088 0.0723 0.0088 0.10584v0.55915h0.11818v-0.53269c0-0.0423 0.0035-0.0759 0.03351-0.127 0.01411-0.0212 0.0441-0.0723 0.09349-0.0723 0.02646 0 0.05115 0.0159 0.0635 0.0459 0.01588 0.0335 0.01235 0.0794 0.01235 0.11641v0.5715h0.11994v-0.57326c0-0.067 0.0018-0.13406-0.03351-0.18874-0.02999-0.0459-0.08114-0.0635-0.12524-0.0635-0.07761 0-0.14993 0.0459-0.18168 0.11642-0.01235-0.067-0.06879-0.11642-0.14111-0.11642-0.06703 0-0.12876 0.0423-0.16581 0.0988l0.0018-0.0794h-0.11818z"/>
    <path d="m61.292 118.18v0.10407h0.19403v0.60149h-0.20461v0.10054h0.52211v-0.10054h-0.18874v-0.70556zm0.26106-0.34925c-0.05115 0-0.09172 0.0406-0.09172 0.09s0.04057 0.09 0.09172 0.09 0.09172-0.0406 0.09172-0.09-0.04057-0.09-0.09172-0.09z"/>
    <path d="m62.318 117.97-0.01588 0.21696h-0.19226l-0.0018 0.10407h0.18874c-0.01058 0.13758-0.01588 0.27516-0.01588 0.41098 0 0.0723 0 0.15346 0.04763 0.22049 0.0388 0.0529 0.10054 0.0847 0.18344 0.0847 0.09525 0 0.18874-0.0406 0.25753-0.09l-0.03881-0.10054c-0.06879 0.0512-0.13229 0.0741-0.18168 0.0741-0.05997 0-0.12171-0.0335-0.13582-0.13053 0-7e-3 -0.0053-0.037-0.0053-0.15522 0-0.10407 0.0053-0.2099 0.01588-0.31397h0.26458v-0.10584h-0.26282s0.01235-0.14464 0.02117-0.1905c0.0018-0.0176 0.01587-0.0282 0.0088-0.0476z"/>
    <path d="m63.2 117.97-0.01588 0.21696h-0.19226l-0.0018 0.10407h0.18874c-0.01058 0.13758-0.01588 0.27516-0.01588 0.41098 0 0.0723 0 0.15346 0.04762 0.22049 0.03881 0.0529 0.10054 0.0847 0.18344 0.0847 0.09525 0 0.18874-0.0406 0.25753-0.09l-0.0388-0.10054c-0.06879 0.0512-0.13229 0.0741-0.18168 0.0741-0.05997 0-0.12171-0.0335-0.13582-0.13053 0-7e-3 -0.0053-0.037-0.0053-0.15522 0-0.10407 0.0053-0.2099 0.01587-0.31397h0.26458v-0.10584h-0.26282s0.01235-0.14464 0.02117-0.1905c0.0018-0.0176 0.01588-0.0282 0.0088-0.0476z"/>
    <path d="m64.206 118.17c-0.19226 0-0.37042 0.13759-0.37042 0.43039 0 0.26988 0.16757 0.41275 0.38629 0.41275 0.11642 0 0.22049-0.0423 0.28928-0.12523l-0.07056-0.0688c-0.05115 0.06-0.12876 0.0917-0.20814 0.0917-0.1076 0-0.26458-0.06-0.2734-0.30163h0.5715c0.0053-0.0547 0.0035-0.10759-0.0053-0.15346-0.03704-0.21695-0.18697-0.28575-0.31926-0.28575zm-0.24342 0.3422c0.02646-0.1905 0.14817-0.24518 0.2346-0.24518 0.13053 0 0.22401 0.11465 0.20814 0.24518z"/>
    <path d="m64.807 118.19v0.80609h0.127v-0.39158c0-0.0494 0.0018-0.1023 0.05644-0.18874 0.07408-0.11641 0.16933-0.13581 0.22754-0.13581 0.06703 0 0.10936 0.0318 0.13229 0.06 0.01058 0.0141 0.01587 0.0282 0.02999 0.0406l0.05997-0.12171c-0.05115-0.0529-0.12524-0.0882-0.21519-0.0882-0.11818 0-0.23812 0.06-0.29104 0.17463l0.0053-0.15522z"/>
   </g>
   <g aria-label="Collision chain">
    <path d="m52.686 127.14c-0.1711 0-0.41804 0.12524-0.41804 0.56621 0 0.42333 0.23636 0.56092 0.41804 0.56092 0.13053 0 0.25224-0.0688 0.32103-0.18168l-0.08996-0.0582c-0.05115 0.0829-0.13935 0.13229-0.22401 0.13229-0.16228 0-0.30515-0.16757-0.30515-0.46567 0-0.29104 0.13935-0.45508 0.29457-0.45508 0.08467 0 0.16581 0.0512 0.2099 0.12876 0.0035 5e-3 0.0071 0.0106 0.0071 0.0176 0 5e-3 -0.0018 9e-3 -0.0018 0.0141 0 2e-3 0 0.0106 0.0088 0.0159l0.11642-0.0564c-0.05821-0.13229-0.1905-0.21872-0.3369-0.21872z"/>
    <path d="m53.891 127.85c0-0.2787-0.17639-0.42334-0.35983-0.42334-0.20461 0-0.381 0.17639-0.381 0.42686 0 0.24518 0.17462 0.41804 0.37747 0.41804 0.1905 0 0.36336-0.15345 0.36336-0.42156zm-0.36865-0.31574c0.11642 0 0.23989 0.10054 0.23989 0.32103 0 0.20284-0.11642 0.30515-0.23283 0.30515-0.12876 0-0.24518-0.11994-0.24518-0.31926 0-0.19756 0.11465-0.30692 0.23812-0.30692z"/>
    <path d="m54.109 127.08v0.10231h0.2293v0.96837h-0.23989v0.10054h0.60501v-0.10054h-0.23812v-1.0707z"/>
    <path d="m54.991 127.08v0.10231h0.22931v0.96837h-0.23989v0.10054h0.60501v-0.10054h-0.23812v-1.0707z"/>
    <path d="m55.912 127.45v0.10407h0.19403v0.60148h-0.20461v0.10054h0.52211v-0.10054h-0.18874v-0.70555zm0.26106-0.34925c-0.05115 0-0.09172 0.0406-0.09172 0.09s0.04057 0.09 0.09172 0.09 0.09172-0.0406 0.09172-0.09-0.04057-0.09-0.09172-0.09z"/>
    <path d="m57.369 127.55c-0.07408-0.0811-0.18168-0.12523-0.30162-0.12523-0.18697 0-0.30868 0.10407-0.30868 0.22401 0 0.14111 0.15169 0.19227 0.19579 0.20814 0.06879 0.0247 0.15699 0.0459 0.21696 0.0741 0.06703 0.0318 0.07938 0.0741 0.07938 0.10231 0 0.0758-0.09172 0.127-0.20638 0.127-0.13758 0-0.22578-0.0829-0.25224-0.11113-0.0053-7e-3 -0.0053-0.0123-0.0053-0.0194 0-2e-3 0.0018-0.0123-0.0071-0.0159l-0.07408 0.12523c0.09525 0.0882 0.21872 0.12877 0.34043 0.12877 0.22049 0 0.33514-0.13053 0.33514-0.25224 0-0.0547-0.02293-0.12876-0.11818-0.18168-0.08996-0.0511-0.22049-0.0688-0.29633-0.10583-0.06526-0.0318-0.07937-0.0706-0.07937-0.0988 0-0.0635 0.07937-0.10936 0.16933-0.10936 0.11642 0 0.19403 0.0705 0.22401 0.11112 0.0053 5e-3 0.0035 0.0106 0.0035 0.0159 0 0.0106 0.0071 0.0141 0.01058 0.0141z"/>
    <path d="m57.676 127.45v0.10407h0.19403v0.60148h-0.20461v0.10054h0.52211v-0.10054h-0.18874v-0.70555zm0.26106-0.34925c-0.05115 0-0.09172 0.0406-0.09172 0.09s0.04057 0.09 0.09172 0.09 0.09172-0.0406 0.09172-0.09-0.04057-0.09-0.09172-0.09z"/>
    <path d="m59.182 127.85c0-0.2787-0.17639-0.42334-0.35983-0.42334-0.20461 0-0.381 0.17639-0.381 0.42686 0 0.24518 0.17462 0.41804 0.37747 0.41804 0.1905 0 0.36336-0.15345 0.36336-0.42156zm-0.36865-0.31574c0.11642 0 0.23989 0.10054 0.23989 0.32103 0 0.20284-0.11642 0.30515-0.23283 0.30515-0.12876 0-0.24518-0.11994-0.24518-0.31926 0-0.19756 0.11465-0.30692 0.23812-0.30692z"/>
    <path d="m59.373 128.25h0.12876v-0.4639c0-0.0529 0.0071-0.0935 0.04057-0.13758 0.02999-0.0406 0.1076-0.11289 0.19226-0.11289 0.04057 0 0.08114 0.0176 0.10936 0.0511 0.0441 0.0529 0.0441 0.12171 0.0441 0.17815v0.48507h0.12524v-0.48859c0-0.0617 0-0.12877-0.02822-0.19403-0.04057-0.09-0.12347-0.14111-0.2152-0.14111-0.10936 0-0.20814 0.0706-0.26811 0.16051v-0.14111h-0.12876z"/>
    <path d="m61.821 127.58c-0.0635-0.0935-0.1711-0.14993-0.30162-0.14993-0.23636 0-0.40393 0.17815-0.40393 0.41981 0 0.24341 0.16757 0.42333 0.39688 0.42333 0.11112 0 0.22049-0.0459 0.29633-0.12876l-0.07232-0.0847c-0.05468 0.0617-0.13406 0.097-0.21343 0.097-0.15699 0-0.27693-0.13052-0.27693-0.31926 0-0.18344 0.11818-0.2981 0.26635-0.2981 0.13758 0 0.20285 0.0953 0.20814 0.10584 0.0071 0.0123-0.0035 0.03 0.01058 0.0406z"/>
    <path d="m62.02 128.25h0.13053v-0.4639c0-0.0529 0.0053-0.0935 0.03881-0.13758 0.03175-0.0406 0.10936-0.11289 0.19403-0.11289 0.04057 0 0.08114 0.0176 0.10936 0.0511 0.0441 0.0529 0.0441 0.12171 0.0441 0.17815v0.48507h0.12524v-0.48859c0-0.0617-0.0018-0.12877-0.02999-0.19403-0.04057-0.09-0.12171-0.14111-0.21343-0.14111-0.10936 0-0.2099 0.0706-0.26811 0.16051v-0.46743c0-5e-3 0-0.0106 0.0053-0.0159 0.0053-5e-3 0.01235-0.0106 0.01235-0.0194 0-2e-3 0-4e-3 -0.0018-5e-3h-0.1464z"/>
    <path d="m62.939 127.54 0.06174 0.0811c0.06703-0.0688 0.15699-0.09 0.23283-0.09 0.09525 0 0.14288 0.0406 0.16581 0.0776 0.02646 0.0441 0.02469 0.097 0.02469 0.13935v0.0282h-0.02469c-0.11994 0-0.24694 0-0.34925 0.037-0.127 0.0459-0.18344 0.14111-0.18344 0.22931 0 0.11818 0.10231 0.2293 0.26988 0.2293 0.09878 0 0.20108-0.037 0.28928-0.10936v0.0882h0.11994v-0.49918c0-0.0653-0.0018-0.127-0.03881-0.1905-0.05292-0.0864-0.15522-0.13229-0.28046-0.13229-0.1076 0-0.21167 0.0335-0.28751 0.11113zm0.49036 0.33337v0.0547c0 0.0406 0 0.0935-0.05468 0.1517-0.02999 0.03-0.10583 0.0952-0.21167 0.0952-0.1076 0-0.16933-0.0688-0.16933-0.13935 0-0.06 0.04057-0.12524 0.14111-0.14993 0.07408-0.0176 0.18168-0.0123 0.26635-0.0123z"/>
    <path d="m63.849 127.45v0.10407h0.19403v0.60148h-0.20461v0.10054h0.52211v-0.10054h-0.18874v-0.70555zm0.26106-0.34925c-0.05115 0-0.09172 0.0406-0.09172 0.09s0.04057 0.09 0.09172 0.09 0.09172-0.0406 0.09172-0.09-0.04057-0.09-0.09172-0.09z"/>
    <path d="m64.664 128.25h0.12876v-0.4639c0-0.0529 0.0071-0.0935 0.04057-0.13758 0.02999-0.0406 0.1076-0.11289 0.19226-0.11289 0.04057 0 0.08114 0.0176 0.10936 0.0511 0.0441 0.0529 0.0441 0.12171 0.0441 0.17815v0.48507h0.12524v-0.48859c0-0.0617 0-0.12877-0.02822-0.19403-0.04057-0.09-0.12347-0.14111-0.21519-0.14111-0.10936 0-0.20814 0.0706-0.26811 0.16051v-0.14111h-0.12876z"/>
   </g>
  </g>
 </g>
</svg>
