<svg id="lecture06Logo" class="animated inactive" width="750" height="400" enable-background="new 0 0 198.44 105.83" version="1.1" viewBox="0 0 194.26 55.827" xml:space="preserve" xmlns="http://www.w3.org/2000/svg">
  <g><path d="m67.048 77.574c-1.2872-0.1342-3.0373-0.44982-4.2317-0.7632-9.1008-2.3877-16.187-9.6533-18.371-18.836-0.68129-2.865-0.68016-2.8269-0.67996-22.8 1.29e-4 -17.23 0.01295-18.375 0.21056-18.769 0.64624-1.2863 2.4682-1.2852 3.1282 0.0018l0.27072 0.52796v22.126l0.49432-0.76481c1.4792-2.2886 3.912-4.8936 6.093-6.5243 9.9752-7.4582 23.69-6.6888 32.793 1.8396 1.2852 1.2042 2.7535 2.9387 3.7029 4.3745l0.70617 1.0679 0.04008-18.454c0.03657-16.848 0.05817-18.559 0.24852-19.658 0.99354-5.7356 3.2964-10.26 7.2331-14.209 3.8873-3.9003 8.3875-6.208 14.084-7.2223 1.6867-0.30036 6.1115-0.3043 7.821-0.0069 5.7154 0.99399 10.419 3.4378 14.334 7.4473 4.0618 4.1599 6.4909 9.3278 7.1418 15.195 0.0741 0.66937 0.12041 7.5905 0.1211 18.124l8e-4 17.041 1.8951 0.05767c1.6332 0.04976 2.017 0.10042 2.7776 0.36685 2.2854 0.80054 4.0163 2.547 4.8547 4.8984l0.27905 0.7821 0.035 9.5055c0.0391 10.7 0.0577 10.432-0.84602 12.247-0.69129 1.3888-1.9392 2.6292-3.3413 3.3212-1.6468 0.81279-2.2939 0.88001-7.9817 0.82939l-4.8312-0.04304-0.97202-0.32508c-1.0284-0.34396-2.1119-0.97892-2.9272-1.7155-0.65665-0.59324-1.5077-1.8929-1.8702-2.8561-0.52743-1.4013-0.56325-2.2081-0.51929-11.699 0.0369-7.9827 0.0627-8.9786 0.24814-9.6258 0.6143-2.1424 2.0672-3.9338 3.939-4.8565 1.3034-0.6425 2.3351-0.8541 4.1772-0.85671l1.474-0.0017v-19.519l-0.70032 1.066c-3.5848 5.4568-9.5816 9.4924-16.065 10.812-10.152 2.0654-20.541-2.2058-26.307-10.815l-0.71627-1.0694-0.03658 18.516-0.03658 18.516-0.27999 1.504c-0.7775 4.1748-2.3173 7.7595-4.7276 11.006-3.9531 5.3241-9.7888 8.8654-16.467 9.9925-1.1012 0.18587-5.1573 0.33317-6.1949 0.225zm6.3528-3.8839c6.946-1.4284 12.578-5.7889 15.616-12.09 0.83677-1.7358 1.3274-3.1932 1.7646-5.2417 0.2961-1.3874 0.32234-1.733 0.3202-4.2184-0.0017-2.4656-0.0309-2.8418-0.3216-4.2139-1.2485-5.8916-4.5192-10.763-9.4171-14.025-3.6061-2.4019-7.7989-3.6645-12.146-3.6575-10.933 0.01766-20.148 8.0947-21.673 18.997-0.26734 1.9114-0.17966 5.2008 0.1878 7.044 1.253 6.2853 5.128 11.691 10.669 14.883 2.5545 1.4718 5.1392 2.3203 8.5267 2.7993 0.19855 0.02806 1.4709 0.03185 2.8276 0.0088 1.8691-0.03225 2.7522-0.10127 3.6455-0.285zm72.784-8.3512c1.4451-0.70961 2.2618-2.0885 2.2618-3.8187v-0.95806h-16.157l0.0602 1.0583c0.11448 2.0055 1.0239 3.2812 2.7765 3.8941 0.57095 0.19968 1.0521 0.2163 5.4988 0.19003l4.873-0.0287zm2.2356-14.974-0.034-6.5877-0.28313-0.54145c-0.3858-0.73737-1.1581-1.519-1.8825-1.9052l-0.6016-0.32076-5.0058-0.03503c-4.8168-0.03371-5.031-0.02554-5.6729 0.21456-0.93266 0.34896-1.6845 1.0516-2.1613 2.0199l-0.39544 0.8031-0.034 6.4701-0.034 6.4701h16.139zm-28.851-23.916c2.6904-0.37932 4.9413-1.1034 7.3379-2.3606 5.8822-3.0855 9.9952-8.6294 11.333-15.277 0.2387-1.1858 0.27653-1.7386 0.27779-4.0789 1e-3 -2.9989-0.17689-4.2792-0.92335-6.609-2.1742-6.7875-7.5171-12.13-14.305-14.305-2.3186-0.74271-3.6096-0.92301-6.609-0.92301-2.3433 0-2.8906 0.03702-4.071 0.27529-10.406 2.1008-17.809 11.039-17.825 21.525-0.01892 10.951 8.1113 20.253 19.009 21.753 1.5615 0.21488 4.2498 0.21466 5.7755-5.14e-4zm-74.79-20.99c-0.30007-0.15251-0.59201-0.42995-0.75202-0.71464-0.25284-0.44984-0.26154-0.5892-0.26135-4.179 1.29e-4 -3.2954 0.02396-3.7608 0.21056-4.1324 0.66717-1.3279 2.5744-1.2902 3.1729 0.062711 0.22437 0.50719 0.23663 0.76601 0.20236 4.2597-0.03474 3.5388-0.04852 3.7358-0.28456 4.0517-0.62374 0.83481-1.4594 1.0729-2.2879 0.65188zm0.0091-19.972c-0.32929-0.13624-0.7397-0.59787-0.89435-1.006-0.07056-0.18631-0.12833-1.1257-0.12833-2.0875 0-1.9496 0.11284-2.3742 0.75213-2.8294 0.19968-0.14217 0.6105-0.2791 0.91767-0.30584 0.74388-0.06473 1.3064 0.25161 1.6744 0.94164 0.26668 0.50018 0.27986 0.62964 0.24363 2.3938-0.03548 1.7273-0.05896 1.894-0.31851 2.2579-0.15412 0.21608-0.43569 0.47326-0.62572 0.57153-0.37144 0.19208-1.2292 0.22588-1.6208 0.06385z"/><path d="m84.121 52.121a14.7 14.7 0 0 1-14.7 14.7 14.7 14.7 0 0 1-14.7-14.7 14.7 14.7 0 0 1 14.7-14.7 14.7 14.7 0 0 1 14.7 14.7z" stroke-linejoin="round" style="paint-order:normal"/><path d="m131.69 4.1419a14.7 14.7 0 0 1-14.7 14.7 14.7 14.7 0 0 1-14.7-14.7 14.7 14.7 0 0 1 14.7-14.7 14.7 14.7 0 0 1 14.7 14.7z" stroke-linejoin="round" style="paint-order:normal"/></g></svg>
