<svg width="89.562mm" height="30.069mm" version="1.1" viewBox="0 0 89.562 30.069" xmlns="http://www.w3.org/2000/svg">
 <g transform="translate(50.536 -73.236)">
  <g fill="#3b390d" fill-opacity=".38431" stroke="#e9e56f" stroke-width=".13229">
   <g stroke-linecap="round">
    <circle cx="-43.443" cy="83.658" r="6.0274"/>
    <rect x="-32.411" y="77.685" width="7.629" height="11.592"/>
    <rect transform="rotate(-13.332)" x="-35.209" y="72.659" width="7.629" height="11.592"/>
    <path d="m-0.23251 78.516 3.6845-0.98727 2.2173 0.90602 1.8752 6.9983-1.0922 3.2929-3.6845 0.98727-2.5923-2.3057-0.75007-2.7993-0.75007-2.7993-0.37503-1.3996z"/>
   </g>
   <path d="m13.299 81.118 0.53788-1.8826 4.1744-1.9294 3.4027 1.1927v3.3559l-1.029 7.7525-3.3559-1.637z"/>
   <path d="m29.313 81.025-0.45018-1.0875s1.0582-0.076 1.0816-0.09939c0.02339-0.0234 0.88282-1.1693 0.88282-1.1693l1.2044-0.77759 2.0287-0.18709 0.65481 0.22802-0.53204 0.85944-0.14617 1.1459 0.73667 0.1637 1.029-1.9644 0.83605 0.28648-0.61389 1.6955 0.6782 0.61973 0.05846 0.67235-1.0641 1.4032 0.09939 1.0407-0.99976-0.30402-0.05846 0.2397 0.44434 0.85943-0.05847 0.24556-0.87698-0.26309 0.05847 0.26309 0.65481 0.51449-0.53203 0.18709 0.40926 1.0582 0.88282 1.0816 0.09939 1.3681-0.34495 0.29233-0.47357-0.16955-0.55542-0.89452-0.26309-1.2278-0.2631-0.77759-0.51449-0.39172-0.4268-0.0409 0.40341 0.50864 0.22802 0.55542 0.08185 0.79513-0.24556 0.43264-0.30402 0.18124-0.49111-0.34494-0.4151-0.67235-0.03508-0.43264-0.40926-0.36833-0.22801-0.45019 0.22801-0.28648 0.36249-0.22217-0.03508-0.22801-0.32741 0.20463-0.59634-0.14032-0.32741-0.39172 0.09939-0.40925 0.39172-0.30402-0.54957-0.22801-0.32741-0.35079-0.36833-0.01756-0.22802-0.28648 0.09939-0.18709 0.22802-0.05847-0.53203-0.59635-0.36833-0.54957-0.08185-0.45018z"/>
  </g>
  <g fill="#e9e56f" stroke-width=".28222px">
   <g aria-label="Circle">
    <path d="m-45.507 74.3c-0.1711 0-0.41804 0.12524-0.41804 0.56621 0 0.42333 0.23636 0.56092 0.41804 0.56092 0.13053 0 0.25224-0.06879 0.32103-0.18168l-0.08996-0.05821c-0.05115 0.0829-0.13935 0.13229-0.22401 0.13229-0.16228 0-0.30515-0.16757-0.30515-0.46567 0-0.29104 0.13935-0.45508 0.29457-0.45508 0.08467 0 0.1658 0.05115 0.2099 0.12876 0.0035 0.0053 0.0071 0.01058 0.0071 0.01764 0 0.0053-0.0018 0.0088-0.0018 0.01411 0 0.0018 0 0.01058 0.0088 0.01587l0.11642-0.05644c-0.05821-0.13229-0.1905-0.21872-0.3369-0.21872z"/>
    <path d="m-44.926 74.601v0.10407h0.19403v0.60149h-0.20461v0.10054h0.52211v-0.10054h-0.18874v-0.70556zm0.26106-0.34925c-0.05115 0-0.09172 0.04057-0.09172 0.08996s0.04057 0.08996 0.09172 0.08996 0.09172-0.04057 0.09172-0.08996-0.04057-0.08996-0.09172-0.08996z"/>
    <path d="m-44.057 74.603v0.8061h0.127v-0.39158c0-0.04939 0.0018-0.1023 0.05645-0.18874 0.07408-0.11642 0.16933-0.13582 0.22754-0.13582 0.06703 0 0.10936 0.03175 0.13229 0.05997 0.01058 0.01411 0.01588 0.02822 0.02999 0.04057l0.05997-0.12171c-0.05115-0.05292-0.12524-0.08819-0.2152-0.08819-0.11818 0-0.23812 0.05997-0.29104 0.17462l0.0053-0.15522z"/>
    <path d="m-42.545 74.735c-0.0635-0.09349-0.1711-0.14993-0.30162-0.14993-0.23636 0-0.40393 0.17815-0.40393 0.4198 0 0.24342 0.16757 0.42333 0.39688 0.42333 0.11112 0 0.22049-0.04586 0.29633-0.12876l-0.07232-0.08467c-0.05468 0.06174-0.13406 0.09701-0.21343 0.09701-0.15699 0-0.27693-0.13053-0.27693-0.31926 0-0.18344 0.11818-0.2981 0.26635-0.2981 0.13758 0 0.20285 0.09525 0.20814 0.10583 0.0071 0.01235-0.0035 0.02999 0.01058 0.04057z"/>
    <path d="m-42.319 74.236v0.1023h0.22931v0.96838h-0.23989v0.10054h0.60501v-0.10054h-0.23812v-1.0707z"/>
    <path d="m-41.13 74.584c-0.19226 0-0.37042 0.13758-0.37042 0.43039 0 0.26988 0.16757 0.41275 0.38629 0.41275 0.11642 0 0.22049-0.04233 0.28928-0.12524l-0.07055-0.06879c-0.05115 0.05997-0.12876 0.09172-0.20814 0.09172-0.1076 0-0.26458-0.05997-0.2734-0.30162h0.5715c0.0053-0.05468 0.0035-0.1076-0.0053-0.15346-0.03704-0.21696-0.18697-0.28575-0.31926-0.28575zm-0.24342 0.34219c0.02646-0.1905 0.14817-0.24518 0.2346-0.24518 0.13053 0 0.22401 0.11465 0.20814 0.24518z"/>
   </g>
   <g aria-label="AABB">
    <path d="m-30.131 75.409h0.12171l0.1076-0.32279h0.34749l0.12171 0.32103h0.12876l-0.4251-1.1183h-0.01411zm0.55033-0.41804h-0.2981l0.14288-0.41804z"/>
    <path d="m-29.249 75.409h0.12171l0.1076-0.32279h0.34749l0.12171 0.32103h0.12876l-0.4251-1.1183h-0.01411zm0.55033-0.41804h-0.2981l0.14288-0.41804z"/>
    <path d="m-28.307 74.309v1.0989h0.31044c0.07408 0 0.14993 0 0.22578-0.03175 0.11818-0.05115 0.18344-0.15875 0.18344-0.27164 0-0.12876-0.0829-0.24342-0.20461-0.28399 0.09701-0.04057 0.16228-0.13758 0.16228-0.24165 0-0.09878-0.05644-0.19403-0.16051-0.23812-0.06879-0.02999-0.13758-0.03175-0.20461-0.03175zm0.12171 0.10583h0.17286c0.04763 0 0.09701 0 0.1464 0.0194 0.07232 0.02999 0.11112 0.09172 0.11112 0.15522 0 0.0635-0.03704 0.12347-0.10583 0.15346-0.05115 0.02117-0.10407 0.02117-0.15346 0.02117h-0.1711zm0 0.45332h0.17992c0.05468 0 0.10936 0.0018 0.16404 0.02822 0.08114 0.03704 0.12524 0.11642 0.12524 0.19579 0 0.07937-0.04233 0.15169-0.11818 0.18697-0.04763 0.02117-0.09349 0.02117-0.14111 0.02117h-0.2099z"/>
    <path d="m-27.425 74.309v1.0989h0.31044c0.07408 0 0.14993 0 0.22578-0.03175 0.11818-0.05115 0.18344-0.15875 0.18344-0.27164 0-0.12876-0.0829-0.24342-0.20461-0.28399 0.09701-0.04057 0.16228-0.13758 0.16228-0.24165 0-0.09878-0.05645-0.19403-0.16051-0.23812-0.06879-0.02999-0.13758-0.03175-0.20461-0.03175zm0.12171 0.10583h0.17286c0.04763 0 0.09701 0 0.1464 0.0194 0.07232 0.02999 0.11112 0.09172 0.11112 0.15522 0 0.0635-0.03704 0.12347-0.10583 0.15346-0.05115 0.02117-0.10407 0.02117-0.15346 0.02117h-0.1711zm0 0.45332h0.17992c0.05468 0 0.10936 0.0018 0.16404 0.02822 0.08114 0.03704 0.12524 0.11642 0.12524 0.19579 0 0.07937-0.04233 0.15169-0.11818 0.18697-0.04763 0.02117-0.09349 0.02117-0.14111 0.02117h-0.2099z"/>
   </g>
   <g aria-label="OBB">
    <path d="m-13.168 74.861c0-0.1023-0.0071-0.23812-0.06703-0.3563-0.07232-0.14111-0.19756-0.20638-0.3175-0.20638-0.16404 0-0.39511 0.127-0.39511 0.55915 0 0.43215 0.22754 0.56797 0.39688 0.56797 0.11818 0 0.24518-0.06703 0.3175-0.21343 0.05821-0.11818 0.06526-0.254 0.06526-0.35101zm-0.38982-0.44803c0.07761 0 0.17286 0.04586 0.22401 0.17462 0.03704 0.09172 0.04233 0.19756 0.04233 0.28928 0 0.07232-0.0035 0.18521-0.04939 0.2787-0.05115 0.1076-0.13582 0.14993-0.2099 0.14993-0.12347 0-0.27517-0.11465-0.27517-0.4639 0-0.32808 0.15346-0.42862 0.26811-0.42862z"/>
    <path d="m-13.032 74.309v1.0989h0.31044c0.07408 0 0.14993 0 0.22578-0.03175 0.11818-0.05115 0.18344-0.15875 0.18344-0.27164 0-0.12876-0.0829-0.24342-0.20461-0.28399 0.09701-0.04057 0.16228-0.13758 0.16228-0.24165 0-0.09878-0.05644-0.19403-0.16051-0.23812-0.06879-0.02999-0.13758-0.03175-0.20461-0.03175zm0.12171 0.10583h0.17286c0.04763 0 0.09701 0 0.1464 0.0194 0.07232 0.02999 0.11112 0.09172 0.11112 0.15522 0 0.0635-0.03704 0.12347-0.10583 0.15346-0.05115 0.02117-0.10407 0.02117-0.15346 0.02117h-0.1711zm0 0.45332h0.17992c0.05468 0 0.10936 0.0018 0.16404 0.02822 0.08114 0.03704 0.12524 0.11642 0.12524 0.19579 0 0.07937-0.04233 0.15169-0.11818 0.18697-0.04763 0.02117-0.09349 0.02117-0.14111 0.02117h-0.2099z"/>
    <path d="m-12.15 74.309v1.0989h0.31044c0.07408 0 0.14993 0 0.22578-0.03175 0.11818-0.05115 0.18344-0.15875 0.18344-0.27164 0-0.12876-0.0829-0.24342-0.20461-0.28399 0.09701-0.04057 0.16228-0.13758 0.16228-0.24165 0-0.09878-0.05644-0.19403-0.16051-0.23812-0.06879-0.02999-0.13758-0.03175-0.20461-0.03175zm0.12171 0.10583h0.17286c0.04763 0 0.09701 0 0.1464 0.0194 0.07232 0.02999 0.11112 0.09172 0.11112 0.15522 0 0.0635-0.03704 0.12347-0.10583 0.15346-0.05115 0.02117-0.10407 0.02117-0.15346 0.02117h-0.1711zm0 0.45332h0.17992c0.05468 0 0.10936 0.0018 0.16404 0.02822 0.08114 0.03704 0.12524 0.11642 0.12524 0.19579 0 0.07937-0.04233 0.15169-0.11818 0.18697-0.04763 0.02117-0.09349 0.02117-0.14111 0.02117h-0.2099z"/>
   </g>
   <g aria-label="8-DOP">
    <path d="m0.76187 74.296c-0.16933 0-0.2981 0.12171-0.2981 0.26988 0 0.1076 0.068792 0.20638 0.16757 0.25753-0.13053 0.06174-0.21872 0.18168-0.21872 0.30868 0 0.16404 0.14464 0.29457 0.33338 0.29457 0.19226 0 0.33867-0.13406 0.33867-0.30162 0-0.13053-0.088194-0.24694-0.21167-0.30515 0.10583-0.05468 0.17463-0.15875 0.17463-0.26458 0-0.14464-0.12524-0.25929-0.28575-0.25929zm-0.037042 0.57856c0.14111 0.0441 0.2346 0.14111 0.2346 0.24871 0 0.10583-0.089958 0.19226-0.20814 0.19226-0.11994 0-0.21167-0.08996-0.21167-0.19932 0-0.10407 0.081139-0.19932 0.18521-0.24165zm0.026458-0.47625c0.098778 0 0.17639 0.07408 0.17639 0.16581 0 0.08467-0.065264 0.16581-0.15169 0.21167 0 0-0.19403-0.07408-0.19403-0.22049 0-0.08643 0.074083-0.15699 0.16933-0.15699z"/>
    <path d="m1.3122 74.795v0.11642h0.635v-0.11642z"/>
    <path d="m2.1642 74.309v1.1007h0.23636c0.086431 0 0.16051-0.0035 0.23812-0.0441 0.15699-0.08114 0.24342-0.26811 0.24342-0.508 0-0.21167-0.0635-0.39688-0.20461-0.4886-0.079375-0.05292-0.15875-0.05997-0.25576-0.05997zm0.11642 0.10583h0.13406c0.068792 0 0.13758 0.0035 0.20638 0.05997 0.10231 0.08467 0.13582 0.24165 0.13582 0.39864 0 0.2099-0.068792 0.32985-0.15699 0.38982-0.068792 0.04586-0.13758 0.04939-0.20638 0.04939h-0.11289z"/>
    <path d="m3.7834 74.861c0-0.1023-0.00706-0.23812-0.067028-0.3563-0.072319-0.14111-0.19756-0.20638-0.3175-0.20638-0.16404 0-0.39511 0.127-0.39511 0.55915 0 0.43215 0.22754 0.56797 0.39688 0.56797 0.11818 0 0.24518-0.06703 0.3175-0.21343 0.058208-0.11818 0.065264-0.254 0.065264-0.35101zm-0.38982-0.44803c0.077611 0 0.17286 0.04586 0.22401 0.17462 0.037042 0.09172 0.042333 0.19756 0.042333 0.28928 0 0.07232-0.00353 0.18521-0.049389 0.2787-0.051153 0.1076-0.13582 0.14993-0.2099 0.14993-0.12347 0-0.27517-0.11465-0.27517-0.4639 0-0.32808 0.15346-0.42862 0.26811-0.42862z"/>
    <path d="m3.9369 74.309v1.0989h0.12876v-0.48507h0.21519c0.068792 0 0.13406-0.0018 0.20108-0.03528 0.10231-0.05115 0.15522-0.15699 0.15522-0.26811s-0.052917-0.21872-0.15699-0.27164c-0.068792-0.03704-0.13758-0.03881-0.20814-0.03881zm0.12876 0.11642h0.20638c0.045861 0 0.089958 0.0018 0.13582 0.02293 0.067028 0.03528 0.10407 0.10583 0.10407 0.17639 0 0.07056-0.035278 0.13582-0.098778 0.16757-0.042333 0.02117-0.084667 0.02293-0.127 0.02293h-0.22225z"/>
   </g>
   <g aria-label="Convex hull">
    <path d="m13.319 74.3c-0.1711 0-0.41804 0.12524-0.41804 0.56621 0 0.42333 0.23636 0.56092 0.41804 0.56092 0.13053 0 0.25224-0.06879 0.32103-0.18168l-0.089959-0.058208c-0.05115 0.0829-0.13935 0.13229-0.22401 0.13229-0.16228 0-0.30515-0.16757-0.30515-0.46567 0-0.29104 0.13935-0.45508 0.29457-0.45508 0.08467 0 0.1658 0.05115 0.2099 0.12876 0.0035 0.0053 0.0071 0.01058 0.0071 0.01764 0 0.0053-0.0018 0.0088-0.0018 0.01411 0 0.0018 0 0.01058 0.0088 0.01587l0.11642-0.05644c-0.05821-0.13229-0.1905-0.21872-0.3369-0.21872z"/>
    <path d="m14.524 75.009c0-0.27869-0.17639-0.42333-0.35983-0.42333-0.20461 0-0.381 0.17639-0.381 0.42686 0 0.24518 0.17462 0.41804 0.37747 0.41804 0.1905 0 0.36336-0.15346 0.36336-0.42157zm-0.36865-0.31574c0.11642 0 0.23989 0.10054 0.23989 0.32103 0 0.20285-0.11642 0.30515-0.23283 0.30515-0.12876 0-0.24518-0.11994-0.24518-0.31926 0-0.19756 0.11465-0.30692 0.23812-0.30692z"/>
    <path d="m14.714 75.407h0.12876v-0.4639c0-0.05292 0.0071-0.09349 0.04057-0.13758 0.02999-0.04057 0.1076-0.11289 0.19226-0.11289 0.04057 0 0.08114 0.01764 0.10936 0.05115 0.0441 0.05292 0.0441 0.12171 0.0441 0.17815v0.48507h0.12524v-0.4886c0-0.06174 0-0.12876-0.02822-0.19403-0.04057-0.08996-0.12347-0.14111-0.21519-0.14111-0.10936 0-0.20814 0.07055-0.26811 0.16051v-0.14111h-0.12876z"/>
    <path d="m15.545 74.601 0.31926 0.81315h0.10054l0.19579-0.46038c0.04763-0.11289 0.09349-0.2293 0.11994-0.35278h-0.11465c-0.02117 0.11818-0.0635 0.2293-0.10936 0.33514l-0.12876 0.29986-0.23283-0.58914c-0.0018-0.0035-0.0035-0.0071-0.0035-0.01058 0-0.01058 0.0088-0.02117 0.0053-0.03528z"/>
    <path d="m16.813 74.584c-0.19226 0-0.37042 0.13758-0.37042 0.43039 0 0.26988 0.16757 0.41275 0.38629 0.41275 0.11642 0 0.22049-0.04233 0.28928-0.12524l-0.07056-0.06879c-0.05115 0.05997-0.12876 0.09172-0.20814 0.09172-0.1076 0-0.26458-0.05997-0.2734-0.30162h0.5715c0.0053-0.05468 0.0035-0.1076-0.0053-0.15346-0.03704-0.21696-0.18697-0.28575-0.31926-0.28575zm-0.24342 0.34219c0.02646-0.1905 0.14817-0.24518 0.2346-0.24518 0.13053 0 0.22401 0.11465 0.20814 0.24518z"/>
    <path d="m17.879 74.601-0.20108 0.2981-0.21167-0.2981h-0.13758l0.27693 0.39688-0.28222 0.40922h0.14288l0.2099-0.31221 0.22225 0.31221h0.14464l-0.29633-0.41275 0.26106-0.39335z"/>
    <path d="m19.126 75.407h0.13053v-0.4639c0-0.05292 0.0053-0.09349 0.03881-0.13758 0.03175-0.04057 0.10936-0.11289 0.19403-0.11289 0.04057 0 0.08114 0.01764 0.10936 0.05115 0.0441 0.05292 0.0441 0.12171 0.0441 0.17815v0.48507h0.12524v-0.4886c0-0.06174-0.0018-0.12876-0.02999-0.19403-0.04057-0.08996-0.12171-0.14111-0.21343-0.14111-0.10936 0-0.2099 0.07055-0.26811 0.16051v-0.46743c0-0.0053 0-0.01058 0.0053-0.01587 0.0053-0.0053 0.01235-0.01058 0.01235-0.0194 0-0.0018 0-0.0035-0.0018-0.0053h-0.1464z"/>
    <path d="m19.995 74.603v0.44979c0 0.06879 0 0.13935 0.03175 0.21167 0.04586 0.10583 0.14464 0.16404 0.25047 0.16404 0.10054 0 0.19579-0.05468 0.24871-0.14288l-0.0018 0.05997c0 0.02117 0 0.04233 0.0035 0.06174h0.13406c-0.0088-0.02293-0.01058-0.04939-0.01058-0.07232v-0.73201h-0.127v0.44274c0 0.06174-0.0053 0.10936-0.03175 0.15875-0.03704 0.06879-0.10936 0.11994-0.18697 0.11994-0.06174 0-0.12171-0.03528-0.15346-0.09878-0.02822-0.05644-0.02822-0.11994-0.02822-0.17286v-0.44979z"/>
    <path d="m20.916 74.236v0.1023h0.22931v0.96838h-0.23989v0.10054h0.60501v-0.10054h-0.23812v-1.0707z"/>
    <path d="m21.798 74.236v0.1023h0.2293v0.96838h-0.23989v0.10054h0.60501v-0.10054h-0.23812v-1.0707z"/>
   </g>
   <g aria-label="Polygon shape">
    <path d="m26.762 74.309v1.0989h0.12876v-0.48507h0.21519c0.06879 0 0.13406-0.0018 0.20108-0.03528 0.1023-0.05115 0.15522-0.15699 0.15522-0.26811s-0.05292-0.21872-0.15699-0.27164c-0.06879-0.03704-0.13758-0.03881-0.20814-0.03881zm0.12876 0.11642h0.20638c0.04586 0 0.08996 0.0018 0.13582 0.02293 0.06703 0.03528 0.10407 0.10583 0.10407 0.17639 0 0.07056-0.03528 0.13582-0.09878 0.16757-0.04233 0.02117-0.08467 0.02293-0.127 0.02293h-0.22225z"/>
    <path d="m28.353 75.009c0-0.27869-0.17639-0.42333-0.35983-0.42333-0.20461 0-0.381 0.17639-0.381 0.42686 0 0.24518 0.17462 0.41804 0.37747 0.41804 0.1905 0 0.36336-0.15346 0.36336-0.42157zm-0.36865-0.31574c0.11642 0 0.23989 0.10054 0.23989 0.32103 0 0.20285-0.11642 0.30515-0.23283 0.30515-0.12876 0-0.24518-0.11994-0.24518-0.31926 0-0.19756 0.11465-0.30692 0.23812-0.30692z"/>
    <path d="m28.571 74.236v0.1023h0.22931v0.96838h-0.23989v0.10054h0.60501v-0.10054h-0.23812v-1.0707z"/>
    <path d="m29.384 74.603 0.32808 0.80257-0.02646 0.05821c-0.01411 0.03351-0.02999 0.06703-0.05468 0.09349-0.03351 0.03704-0.07585 0.05292-0.11289 0.05292-0.05997 0-0.08996-0.04057-0.09525-0.04762-0.0053-0.0088-0.0035-0.02117-0.01411-0.02999l-0.06526 0.11465c0.04586 0.0441 0.1076 0.06703 0.17462 0.06703 0.07232 0 0.14817-0.02646 0.20108-0.08643 0.03528-0.04057 0.05292-0.0829 0.07055-0.12876l0.25047-0.66499c0.02999-0.07585 0.05644-0.15346 0.08114-0.23283h-0.13229c-0.01411 0.07408-0.03704 0.14464-0.06174 0.21519l-0.15346 0.43215-0.23636-0.59443c-0.0018-0.0053-0.0018-0.0088-0.0018-0.01411 0-0.01235 0.0088-0.02117 0.0071-0.03704z"/>
    <path d="m30.408 74.854c0-0.09701 0.08114-0.17639 0.17815-0.17639 0.09878 0 0.17815 0.07938 0.17815 0.17639 0 0.09701-0.07937 0.17639-0.17815 0.17639-0.09878 0-0.17815-0.07937-0.17815-0.17639zm0.18521-0.27693c-0.16051 0-0.29986 0.127-0.29986 0.28399 0 0.08819 0.0441 0.1711 0.11818 0.21872-0.05821 0.04939-0.09172 0.10407-0.09172 0.15522 0 0.03351 0.01411 0.08114 0.06526 0.1076-0.08643 0.05468-0.13053 0.11465-0.13053 0.17815 0 0.08819 0.08114 0.19226 0.36336 0.19226 0.2734 0 0.37218-0.13935 0.37218-0.24694 0-0.07055-0.04057-0.14111-0.12524-0.17462-0.08467-0.03528-0.18168-0.02293-0.2734-0.02293-0.05997 0-0.09878-0.0053-0.11465-0.01058-0.03175-0.0088-0.04939-0.02822-0.04939-0.05292 0-0.04233 0.04939-0.0829 0.05821-0.08996 0.03175 0.01235 0.06703 0.01764 0.1023 0.01764 0.15875 0 0.28928-0.127 0.28928-0.27517 0-0.04939-0.01411-0.09701-0.04057-0.13758 0.04233-0.02469 0.09172-0.03881 0.14111-0.03881 0.01588 0 0.02999 0.0018 0.04586 0.0053l-0.01411-0.10407c-0.08114-0.0071-0.16228 0.0194-0.22401 0.07055-0.05115-0.04939-0.11818-0.07585-0.19226-0.07585zm-0.12171 0.78846c0.02999 0.0035 0.07232 0.0071 0.13406 0.01058 0.05997 0.0018 0.12524-0.0035 0.1711 0.0035 0.07408 0.01235 0.09701 0.05821 0.09701 0.09349s-0.02117 0.07761-0.07585 0.1076c-0.05997 0.03175-0.127 0.03528-0.18168 0.03528-0.03704 0-0.10583-0.0018-0.16581-0.02646-0.06526-0.02646-0.07937-0.07056-0.07937-0.09878 0-0.05821 0.05468-0.10054 0.10054-0.12524z"/>
    <path d="m31.88 75.009c0-0.27869-0.17639-0.42333-0.35983-0.42333-0.20461 0-0.381 0.17639-0.381 0.42686 0 0.24518 0.17462 0.41804 0.37747 0.41804 0.1905 0 0.36336-0.15346 0.36336-0.42157zm-0.36865-0.31574c0.11642 0 0.23989 0.10054 0.23989 0.32103 0 0.20285-0.11642 0.30515-0.23283 0.30515-0.12876 0-0.24518-0.11994-0.24518-0.31926 0-0.19756 0.11465-0.30692 0.23812-0.30692z"/>
    <path d="m32.071 75.407h0.12876v-0.4639c0-0.05292 0.0071-0.09349 0.04057-0.13758 0.02999-0.04057 0.1076-0.11289 0.19226-0.11289 0.04057 0 0.08114 0.01764 0.10936 0.05115 0.0441 0.05292 0.0441 0.12171 0.0441 0.17815v0.48507h0.12524v-0.4886c0-0.06174 0-0.12876-0.02822-0.19403-0.04057-0.08996-0.12347-0.14111-0.21519-0.14111-0.10936 0-0.20814 0.07055-0.26811 0.16051v-0.14111h-0.12877z"/>
    <path d="m34.477 74.709c-0.07408-0.08114-0.18168-0.12524-0.30162-0.12524-0.18697 0-0.30868 0.10407-0.30868 0.22401 0 0.14111 0.1517 0.19226 0.19579 0.20814 0.06879 0.02469 0.15699 0.04586 0.21696 0.07408 0.06703 0.03175 0.07937 0.07408 0.07937 0.1023 0 0.07585-0.09172 0.127-0.20638 0.127-0.13758 0-0.22578-0.0829-0.25224-0.11113-0.0053-0.0071-0.0053-0.01235-0.0053-0.0194 0-0.0018 0.0018-0.01235-0.0071-0.01588l-0.07408 0.12524c0.09525 0.08819 0.21872 0.12876 0.34043 0.12876 0.22049 0 0.33514-0.13053 0.33514-0.25224 0-0.05468-0.02293-0.12876-0.11818-0.18168-0.08996-0.05115-0.22049-0.06879-0.29633-0.10583-0.06526-0.03175-0.07937-0.07056-0.07937-0.09878 0-0.0635 0.07937-0.10936 0.16933-0.10936 0.11642 0 0.19403 0.07055 0.22401 0.11112 0.0053 0.0053 0.0035 0.01058 0.0035 0.01587 0 0.01058 0.0071 0.01411 0.01058 0.01411z"/>
    <path d="m34.718 75.407h0.13053v-0.4639c0-0.05292 0.0053-0.09349 0.03881-0.13758 0.03175-0.04057 0.10936-0.11289 0.19403-0.11289 0.04057 0 0.08114 0.01764 0.10936 0.05115 0.0441 0.05292 0.0441 0.12171 0.0441 0.17815v0.48507h0.12524v-0.4886c0-0.06174-0.0018-0.12876-0.02999-0.19403-0.04057-0.08996-0.12171-0.14111-0.21343-0.14111-0.10936 0-0.2099 0.07055-0.26811 0.16051v-0.46743c0-0.0053 0-0.01058 0.0053-0.01587 0.0053-0.0053 0.01235-0.01058 0.01235-0.0194 0-0.0018 0-0.0035-0.0018-0.0053h-0.1464z"/>
    <path d="m35.637 74.697 0.06174 0.08114c0.06703-0.06879 0.15699-0.08996 0.23283-0.08996 0.09525 0 0.14288 0.04057 0.1658 0.07761 0.02646 0.0441 0.0247 0.09701 0.0247 0.13935v0.028223h-0.0247c-0.11994 0-0.24694 0-0.34925 0.03704-0.127 0.04586-0.18344 0.14111-0.18344 0.22931 0 0.11818 0.1023 0.22931 0.26988 0.22931 0.09878 0 0.20108-0.03704 0.28928-0.10936v0.08819h0.11994v-0.49918c0-0.06526-0.0018-0.127-0.03881-0.1905-0.05292-0.08643-0.15522-0.13229-0.28046-0.13229-0.1076 0-0.21167 0.03351-0.28751 0.11112zm0.49036 0.33338v0.05468c0 0.04057 0 0.09349-0.05468 0.1517-0.02999 0.02999-0.10583 0.09525-0.21167 0.09525-0.1076 0-0.16933-0.06879-0.16933-0.13935 0-0.05997 0.04057-0.12524 0.14111-0.14993 0.07408-0.01764 0.18168-0.01235 0.26635-0.01235z"/>
    <path d="m36.465 74.603 0.0018 1.0989h0.12876v-0.4004c0.05468 0.07937 0.14464 0.12876 0.24165 0.12876 0.1658 0 0.33867-0.13935 0.33867-0.43392 0-0.28399-0.16757-0.41099-0.32632-0.41099-0.10407 0-0.20108 0.05292-0.25576 0.14111v-0.12347zm0.3369 0.08996c0.07056 0 0.24165 0.03704 0.24165 0.32985 0 0.254-0.16581 0.29457-0.24165 0.29457-0.07585 0-0.15346-0.03881-0.18521-0.11112-0.02293-0.05468-0.02293-0.12171-0.02293-0.23812 0-0.06703 0.0035-0.11642 0.02117-0.15875 0.03175-0.07232 0.10583-0.11642 0.18697-0.11642z"/>
    <path d="m37.698 74.584c-0.19226 0-0.37042 0.13758-0.37042 0.43039 0 0.26988 0.16757 0.41275 0.38629 0.41275 0.11642 0 0.22049-0.04233 0.28928-0.12524l-0.07056-0.06879c-0.05115 0.05997-0.12876 0.09172-0.20814 0.09172-0.1076 0-0.26458-0.05997-0.2734-0.30162h0.5715c0.0053-0.05468 0.0035-0.1076-0.0053-0.15346-0.03704-0.21696-0.18697-0.28575-0.31926-0.28575zm-0.24342 0.34219c0.02646-0.1905 0.14817-0.24518 0.2346-0.24518 0.13053 0 0.22401 0.11465 0.20814 0.24518z"/>
   </g>
   <g aria-label="Better bound">
    <path d="m-11.726 94.346v1.0989h0.31044c0.07408 0 0.14993 0 0.22578-0.03175 0.11818-0.05115 0.18344-0.15875 0.18344-0.27164 0-0.12876-0.0829-0.24342-0.20461-0.28399 0.09701-0.04057 0.16228-0.13758 0.16228-0.24165 0-0.09878-0.05645-0.19403-0.16051-0.23812-0.06879-0.02999-0.13758-0.03175-0.20461-0.03175zm0.12171 0.10583h0.17286c0.04763 0 0.09701 0 0.1464 0.0194 0.07232 0.02999 0.11112 0.09172 0.11112 0.15522 0 0.0635-0.03704 0.12347-0.10583 0.15346-0.05115 0.02117-0.10407 0.02117-0.15346 0.02117h-0.1711zm0 0.45332h0.17992c0.05468 0 0.10936 0.0018 0.16404 0.02822 0.08114 0.03704 0.12524 0.11642 0.12524 0.19579 0 0.07937-0.04233 0.1517-0.11818 0.18697-0.04763 0.02117-0.09349 0.02117-0.14111 0.02117h-0.2099z"/>
    <path d="m-10.474 94.622c-0.19226 0-0.37042 0.13758-0.37042 0.43039 0 0.26988 0.16757 0.41275 0.38629 0.41275 0.11642 0 0.22049-0.04233 0.28928-0.12524l-0.07056-0.06879c-0.05115 0.05997-0.12876 0.09172-0.20814 0.09172-0.1076 0-0.26458-0.05997-0.2734-0.30162h0.5715c0.0053-0.05468 0.0035-0.1076-0.0053-0.15346-0.03704-0.21696-0.18697-0.28575-0.31926-0.28575zm-0.24342 0.3422c0.02646-0.1905 0.14817-0.24518 0.2346-0.24518 0.13053 0 0.22401 0.11465 0.20814 0.24518z"/>
    <path d="m-9.7156 94.424-0.015875 0.21696h-0.19226l-0.00176 0.10407h0.18874c-0.010583 0.13758-0.015875 0.27517-0.015875 0.41099 0 0.07232 0 0.15346 0.047625 0.22049 0.038805 0.05292 0.10054 0.08467 0.18344 0.08467 0.09525 0 0.18874-0.04057 0.25753-0.08996l-0.038806-0.10054c-0.068792 0.05115-0.13229 0.07408-0.18168 0.07408-0.059972 0-0.12171-0.03351-0.13582-0.13053 0-0.0071-0.00529-0.03704-0.00529-0.15522 0-0.10407 0.00529-0.2099 0.015875-0.31397h0.26458v-0.10583h-0.26282s0.012347-0.14464 0.021167-0.1905c0.00176-0.01764 0.015875-0.02822 0.00882-0.04762z"/>
    <path d="m-8.8337 94.424-0.015875 0.21696h-0.19226l-0.00176 0.10407h0.18874c-0.010583 0.13758-0.015875 0.27517-0.015875 0.41099 0 0.07232 0 0.15346 0.047625 0.22049 0.038806 0.05292 0.10054 0.08467 0.18344 0.08467 0.09525 0 0.18874-0.04057 0.25753-0.08996l-0.038806-0.10054c-0.068792 0.05115-0.13229 0.07408-0.18168 0.07408-0.059972 0-0.12171-0.03351-0.13582-0.13053 0-0.0071-0.00529-0.03704-0.00529-0.15522 0-0.10407 0.00529-0.2099 0.015875-0.31397h0.26458v-0.10583h-0.26282s0.012347-0.14464 0.021167-0.1905c0.00176-0.01764 0.015875-0.02822 0.00882-0.04762z"/>
    <path d="m-7.8283 94.622c-0.19226 0-0.37042 0.13758-0.37042 0.43039 0 0.26988 0.16757 0.41275 0.38629 0.41275 0.11642 0 0.22049-0.04233 0.28928-0.12524l-0.070556-0.06879c-0.051153 0.05997-0.12876 0.09172-0.20814 0.09172-0.1076 0-0.26458-0.05997-0.2734-0.30162h0.5715c0.00529-0.05468 0.00353-0.1076-0.00529-0.15346-0.037042-0.21696-0.18697-0.28575-0.31926-0.28575zm-0.24342 0.3422c0.026458-0.1905 0.14817-0.24518 0.2346-0.24518 0.13053 0 0.22401 0.11465 0.20814 0.24518z"/>
    <path d="m-7.2268 94.641v0.8061h0.127v-0.39158c0-0.04939 0.00176-0.10231 0.056444-0.18874 0.074083-0.11642 0.16933-0.13582 0.22754-0.13582 0.067028 0 0.10936 0.03175 0.13229 0.05997 0.010583 0.01411 0.015875 0.02822 0.029986 0.04057l0.059972-0.12171c-0.051153-0.05292-0.12524-0.08819-0.21519-0.08819-0.11818 0-0.23813 0.05997-0.29104 0.17462l0.00529-0.15522z"/>
    <path d="m-5.5334 94.272v1.173h0.082903l0.044097-0.10583c0.052917 0.07938 0.14111 0.127 0.23813 0.127 0.16581 0 0.3369-0.14111 0.3369-0.43392 0-0.28046-0.16581-0.41099-0.32456-0.41099-0.10231 0-0.19756 0.05468-0.24871 0.14288v-0.45156c0-0.01058 0.00176-0.01411 0.010583-0.02117 0.00353-0.0018 0.012347-0.0088 0.010583-0.0194zm0.33338 0.45861c0.075847 0 0.23636 0.0441 0.23636 0.32985 0 0.24518-0.15875 0.29104-0.23812 0.29104-0.054681 0-0.17639-0.02117-0.19756-0.17639-0.00529-0.04057-0.00529-0.08819-0.00529-0.15875 0-0.07232 0.00353-0.12524 0.021167-0.16933 0.029986-0.07232 0.10407-0.11642 0.18344-0.11642z"/>
    <path d="m-3.9442 95.047c0-0.27869-0.17639-0.42333-0.35983-0.42333-0.20461 0-0.381 0.17639-0.381 0.42686 0 0.24518 0.17462 0.41804 0.37747 0.41804 0.1905 0 0.36336-0.15346 0.36336-0.42157zm-0.36865-0.31574c0.11642 0 0.23989 0.10054 0.23989 0.32103 0 0.20285-0.11642 0.30515-0.23283 0.30515-0.12876 0-0.24518-0.11994-0.24518-0.31926 0-0.19756 0.11465-0.30692 0.23812-0.30692z"/>
    <path d="m-3.7643 94.641v0.44979c0 0.06879 0 0.13935 0.03175 0.21167 0.045861 0.10583 0.14464 0.16404 0.25047 0.16404 0.10054 0 0.19579-0.05468 0.24871-0.14288l-0.00176 0.05997c0 0.02117 0 0.04233 0.00353 0.06174h0.13406c-0.00882-0.02293-0.010583-0.04939-0.010583-0.07232v-0.73201h-0.127v0.44274c0 0.06174-0.00529 0.10936-0.03175 0.15875-0.037042 0.06879-0.10936 0.11994-0.18697 0.11994-0.061736 0-0.12171-0.03528-0.15346-0.09878-0.028222-0.05644-0.028222-0.11994-0.028222-0.17286v-0.44979z"/>
    <path d="m-2.8717 95.445h0.12876v-0.4639c0-0.05292 0.00706-0.09349 0.040569-0.13758 0.029986-0.04057 0.1076-0.11289 0.19226-0.11289 0.040569 0 0.081139 0.01764 0.10936 0.05115 0.044097 0.05292 0.044097 0.12171 0.044097 0.17815v0.48507h0.12524v-0.4886c0-0.06174 0-0.12876-0.028222-0.19403-0.040569-0.08996-0.12347-0.14111-0.21519-0.14111-0.10936 0-0.20814 0.07056-0.26811 0.16051v-0.14111h-0.12876z"/>
    <path d="m-1.4553 94.757c-0.038806-0.0829-0.12524-0.13758-0.23636-0.13758-0.15346 0-0.34043 0.10936-0.34043 0.41628 0 0.2981 0.16581 0.42862 0.32103 0.42862 0.10231 0 0.19756-0.05821 0.24871-0.14817v0.07056c0 0.0194 0.00176 0.03881 0.00706 0.05821h0.127c-0.00706-0.02293-0.00706-0.04939-0.00706-0.07408l-0.00176-1.0478c0-0.01058 0-0.01411 0.00706-0.0247 0.00353-0.0053 0.010583-0.01411 0.00882-0.02646h-0.13406zm-0.23107-0.03351c0.070556 0 0.17462 0.03704 0.20638 0.15699 0.010583 0.03704 0.014111 0.08114 0.014111 0.1711 0 0.06174-0.00353 0.10583-0.017639 0.14817-0.029986 0.09525-0.11465 0.15169-0.19756 0.15169-0.091722 0-0.22754-0.07055-0.22754-0.33514 0-0.23107 0.12876-0.2928 0.22225-0.2928z"/>
   </g>
  </g>
  <g>
   <path d="m-45.018 96.454h77.047" fill="none" stroke="#e96f6f" stroke-width=".22578"/>
   <path d="m32.907 101.09h-77.047" fill="none" stroke="#e96f6f" stroke-width=".22578"/>
   <g fill="#e9e56f" stroke-width=".28222px" aria-label="Faster test">
    <path d="m-11.111 98.985v1.0989h0.12524v-0.53975h0.41099v-0.10583h-0.41099v-0.34572h0.508v-0.1076z"/>
    <path d="m-10.206 99.373 0.06174 0.08114c0.06703-0.06879 0.15699-0.08996 0.23283-0.08996 0.09525 0 0.14288 0.04057 0.16581 0.07761 0.026458 0.0441 0.024694 0.09701 0.024694 0.13935v0.02822h-0.024694c-0.11994 0-0.24694 0-0.34925 0.03704-0.127 0.04586-0.18344 0.14111-0.18344 0.2293 0 0.11818 0.10231 0.2293 0.26988 0.2293 0.098778 0 0.20108-0.037 0.28928-0.10936v0.0882h0.11994v-0.49918c0-0.06526-0.00176-0.127-0.038805-0.1905-0.052917-0.08643-0.15522-0.13229-0.28046-0.13229-0.1076 0-0.21167 0.03351-0.28751 0.11112zm0.49036 0.33338v0.05468c0 0.04057 0 0.09349-0.05468 0.1517-0.029986 0.02999-0.10583 0.09525-0.21167 0.09525-0.1076 0-0.16933-0.06879-0.16933-0.13935 0-0.05997 0.04057-0.12524 0.14111-0.14993 0.074083-0.01764 0.18168-0.01235 0.26635-0.01235z"/>
    <path d="m-8.7208 99.386c-0.074083-0.08114-0.18168-0.12524-0.30162-0.12524-0.18697 0-0.30868 0.10407-0.30868 0.22401 0 0.14111 0.15169 0.19226 0.19579 0.20814 0.068792 0.02469 0.15699 0.04586 0.21696 0.07408 0.067028 0.03175 0.079375 0.07408 0.079375 0.10231 0 0.07585-0.091722 0.127-0.20638 0.127-0.13758 0-0.22578-0.0829-0.25224-0.11112-0.00529-0.0071-0.00529-0.01235-0.00529-0.0194 0-0.0018 0.00176-0.01235-0.00706-0.01588l-0.074083 0.12524c0.09525 0.08819 0.21872 0.12876 0.34043 0.12876 0.22049 0 0.33514-0.13053 0.33514-0.25224 0-0.05468-0.022931-0.12876-0.11818-0.18168-0.089958-0.05115-0.22049-0.06879-0.29633-0.10583-0.065264-0.03175-0.079375-0.07056-0.079375-0.09878 0-0.0635 0.079375-0.10936 0.16933-0.10936 0.11642 0 0.19403 0.07056 0.22401 0.11112 0.00529 0.0053 0.00353 0.01058 0.00353 0.01587 0 0.01058 0.00706 0.01411 0.010583 0.01411z"/>
    <path d="m-8.2692 99.063-0.015875 0.21696h-0.19226l-0.00176 0.10407h0.18874c-0.010583 0.13758-0.015875 0.27517-0.015875 0.41099 0 0.07232 0 0.15346 0.047625 0.22049 0.038806 0.0529 0.10054 0.0847 0.18344 0.0847 0.09525 0 0.18874-0.0406 0.25753-0.09l-0.038806-0.10054c-0.068792 0.05115-0.13229 0.07408-0.18168 0.07408-0.059972 0-0.12171-0.03351-0.13582-0.13053 0-0.0071-0.00529-0.03704-0.00529-0.15522 0-0.10407 0.00529-0.2099 0.015875-0.31397h0.26458v-0.10583h-0.26282s0.012347-0.14464 0.021167-0.1905c0.00176-0.01764 0.015875-0.02822 0.00882-0.04762z"/>
    <path d="m-7.2638 99.261c-0.19226 0-0.37042 0.13758-0.37042 0.43039 0 0.26988 0.16757 0.41275 0.38629 0.41275 0.11642 0 0.22049-0.0423 0.28928-0.12524l-0.070556-0.06879c-0.051153 0.05997-0.12876 0.09172-0.20814 0.09172-0.1076 0-0.26458-0.05997-0.2734-0.30162h0.5715c0.00529-0.05468 0.00353-0.1076-0.00529-0.15346-0.037042-0.21696-0.18697-0.28575-0.31926-0.28575zm-0.24342 0.34219c0.026458-0.1905 0.14817-0.24518 0.2346-0.24518 0.13053 0 0.22401 0.11465 0.20814 0.24518z"/>
    <path d="m-6.6623 99.28v0.8061h0.127v-0.39158c0-0.04939 0.00176-0.10231 0.056444-0.18874 0.074083-0.11642 0.16933-0.13582 0.22754-0.13582 0.067028 0 0.10936 0.03175 0.13229 0.05997 0.010583 0.01411 0.015875 0.02822 0.029986 0.04057l0.059972-0.12171c-0.051153-0.05292-0.12524-0.08819-0.21519-0.08819-0.11818 0-0.23813 0.05997-0.29104 0.17462l0.00529-0.15522z"/>
    <path d="m-4.7415 99.063-0.015875 0.21696h-0.19226l-0.00176 0.10407h0.18874c-0.010583 0.13758-0.015875 0.27517-0.015875 0.41099 0 0.07232 0 0.15346 0.047625 0.22049 0.038806 0.0529 0.10054 0.0847 0.18344 0.0847 0.09525 0 0.18874-0.0406 0.25753-0.09l-0.038805-0.10054c-0.068792 0.05115-0.13229 0.07408-0.18168 0.07408-0.059972 0-0.12171-0.03351-0.13582-0.13053 0-0.0071-0.00529-0.03704-0.00529-0.15522 0-0.10407 0.00529-0.2099 0.015875-0.31397h0.26458v-0.10583h-0.26282s0.012347-0.14464 0.021167-0.1905c0.00176-0.01764 0.015875-0.02822 0.00882-0.04762z"/>
    <path d="m-3.736 99.261c-0.19226 0-0.37042 0.13758-0.37042 0.43039 0 0.26988 0.16757 0.41275 0.38629 0.41275 0.11642 0 0.22049-0.0423 0.28928-0.12524l-0.070556-0.06879c-0.051153 0.05997-0.12876 0.09172-0.20814 0.09172-0.1076 0-0.26458-0.05997-0.2734-0.30162h0.5715c0.00529-0.05468 0.00353-0.1076-0.00529-0.15346-0.037042-0.21696-0.18697-0.28575-0.31926-0.28575zm-0.24342 0.34219c0.026458-0.1905 0.14817-0.24518 0.2346-0.24518 0.13053 0 0.22401 0.11465 0.20814 0.24518z"/>
    <path d="m-2.5472 99.386c-0.074083-0.08114-0.18168-0.12524-0.30163-0.12524-0.18697 0-0.30868 0.10407-0.30868 0.22401 0 0.14111 0.15169 0.19226 0.19579 0.20814 0.068792 0.02469 0.15699 0.04586 0.21696 0.07408 0.067028 0.03175 0.079375 0.07408 0.079375 0.10231 0 0.07585-0.091722 0.127-0.20638 0.127-0.13758 0-0.22578-0.0829-0.25224-0.11112-0.00529-0.0071-0.00529-0.01235-0.00529-0.0194 0-0.0018 0.00176-0.01235-0.00706-0.01588l-0.074083 0.12524c0.09525 0.08819 0.21872 0.12876 0.34043 0.12876 0.22049 0 0.33514-0.13053 0.33514-0.25224 0-0.05468-0.022931-0.12876-0.11818-0.18168-0.089958-0.05115-0.22049-0.06879-0.29633-0.10583-0.065264-0.03175-0.079375-0.07056-0.079375-0.09878 0-0.0635 0.079375-0.10936 0.16933-0.10936 0.11642 0 0.19403 0.07056 0.22401 0.11112 0.00529 0.0053 0.00353 0.01058 0.00353 0.01587 0 0.01058 0.00706 0.01411 0.010583 0.01411z"/>
    <path d="m-2.0956 99.063-0.015875 0.21696h-0.19226l-0.00176 0.10407h0.18874c-0.010583 0.13758-0.015875 0.27517-0.015875 0.41099 0 0.07232 0 0.15346 0.047625 0.22049 0.038806 0.0529 0.10054 0.0847 0.18344 0.0847 0.09525 0 0.18874-0.0406 0.25753-0.09l-0.038806-0.10054c-0.068792 0.05115-0.13229 0.07408-0.18168 0.07408-0.059972 0-0.12171-0.03351-0.13582-0.13053 0-0.0071-0.00529-0.03704-0.00529-0.15522 0-0.10407 0.00529-0.2099 0.015875-0.31397h0.26458v-0.10583h-0.26282s0.012347-0.14464 0.021167-0.1905c0.00176-0.01764 0.015875-0.02822 0.00882-0.04762z"/>
   </g>
  </g>
  <g transform="matrix(-.0026988 -.95331 .95331 -.0026988 -230.32 574.07)">
   <path d="m501.47 274.25-1.2053 3.2778-1.2053-3.2778c0.71162 0.52365 1.6852 0.52064 2.4106 0z" fill="#fff" fill-rule="evenodd" stroke="#d54747" stroke-linejoin="round" stroke-width=".1875"/>
  </g>
  <g transform="matrix(.0026988 -.95331 -.95331 -.0026988 218.38 578.71)">
   <path d="m501.47 274.25-1.2053 3.2778-1.2053-3.2778c0.71162 0.52365 1.6852 0.52064 2.4106 0z" fill="#fff" fill-rule="evenodd" stroke="#d54747" stroke-linejoin="round" stroke-width=".1875"/>
  </g>
 </g>
</svg>
