<svg width="55.001mm" height="45.949mm" version="1.1" viewBox="0 0 55.001 45.949" xmlns="http://www.w3.org/2000/svg">
 <g transform="translate(86.096 -32.259)">
  <rect x="-57.415" y="53.987" width="9.9781" height="9.9781" fill="#3b390d" fill-opacity=".38431" stroke="#e9e56f" stroke-linecap="round" stroke-width=".11289"/>
  <rect transform="rotate(30)" x="-18.569" y="59.654" width="9.9781" height="9.9781" fill="#0d183b" fill-opacity=".38431" stroke="#6f8ce9" stroke-linecap="round" stroke-width=".11289"/>
  <g fill="none">
   <path d="m-75.043 34.595v36.231" stroke="#671010" stroke-width=".28222"/>
   <path d="m-84.821 66.052h50.717" stroke="#671010" stroke-width=".28222"/>
   <path d="m-74.332 64.106v-10.252" stroke="#e9e56f" stroke-width=".52917"/>
   <path d="m-78.019 71.025 20.575-36.439" stroke="#5c1274" stroke-width=".28222"/>
   <path d="m-85.029 60.572 30.622 16.512" stroke="#5c1274" stroke-width=".28222"/>
   <g stroke-width=".52917">
    <path d="m-73.495 55.596v-13.847" stroke="#6f8ce9"/>
    <path d="m-57.442 65.39h10.019" stroke="#e9e56f"/>
    <path d="m-51.215 64.615h13.899" stroke="#6f8ce9"/>
    <path d="m-69.514 57.416 6.8308-12.133" stroke="#e9e56f"/>
    <path d="m-62.254 44.57 4.9475-8.7284" stroke="#6f8ce9"/>
    <path d="m-66.799 69.636 12.506 6.6935" stroke="#e9e56f"/>
    <path d="m-62.731 70.951 9.1345 4.8473" stroke="#6f8ce9"/>
   </g>
  </g>
  <circle cx="-62.4" cy="44.851" r="1.5073" fill="#3b0d0d" fill-opacity=".38431" stroke="#e96f6f" stroke-linecap="round" stroke-width=".2236"/>
  <g transform="matrix(-.0021358 -.75442 .75442 -.0021358 -240.47 444.04)">
   <path d="m501.47 274.25-1.2053 3.2778-1.2053-3.2778c0.71162 0.52365 1.6852 0.52064 2.4106 0z" fill="#fff" fill-rule="evenodd" stroke="#d54747" stroke-linejoin="round" stroke-width=".1875"/>
  </g>
  <g transform="matrix(-.75442 .0021358 -.0021358 -.75442 302.96 241.63)">
   <path d="m501.47 274.25-1.2053 3.2778-1.2053-3.2778c0.71162 0.52365 1.6852 0.52064 2.4106 0z" fill="#fff" fill-rule="evenodd" stroke="#d54747" stroke-linejoin="round" stroke-width=".1875"/>
  </g>
 </g>
</svg>
