<svg width="45.23mm" height="42.3mm" version="1.1" viewBox="0 0 45.23 42.3" xmlns="http://www.w3.org/2000/svg">
 <g transform="translate(135.76 -42.435)">
  <rect transform="rotate(-90)" x="-55.099" y="-114.03" width="9.2127" height="2.3422" fill="#242424" fill-opacity=".38431" stroke="#acacac" stroke-linecap="round" stroke-width=".16933"/>
  <path d="m-134.76 55.147h24.771" fill="none" stroke="#e96fc1" stroke-width=".16933"/>
  <g fill-opacity=".38431" stroke-linecap="round" stroke-width=".16933">
   <rect transform="rotate(-90)" x="-55.099" y="-122.88" width="9.2127" height="2.3422" fill="#242424" stroke="#acacac"/>
   <rect x="-126.56" y="43.519" width="9.2127" height="2.3422" fill="#242424" stroke="#acacac"/>
   <circle cx="-132.48" cy="49.739" r="1.6608" fill="#0d2a3b" stroke="#6fbde9"/>
   <rect transform="rotate(-90)" x="-69.148" y="-114.03" width="9.2127" height="2.3422" fill="#242424" stroke="#acacac"/>
  </g>
  <path d="m-134.76 69.196h24.771" fill="none" stroke="#e96fc1" stroke-width=".16933"/>
  <g fill-opacity=".38431" stroke-linecap="round">
   <rect transform="rotate(-63)" x="-117.02" y="-80.041" width="9.2127" height="2.3422" fill="#3b390d" stroke="#e9e56f" stroke-width=".16933"/>
   <rect transform="rotate(-9)" x="-135.73" y="37.72" width="9.2127" height="2.3422" fill="#3b390d" stroke="#e9e56f" stroke-width=".16933"/>
   <circle cx="-124.07" cy="63.391" r="1.6608" fill="#0d2a3b" stroke="#6fbde9" stroke-width=".16933"/>
   <rect transform="rotate(-90)" x="-83.602" y="-114.03" width="9.2127" height="2.3422" fill="#3b390d" stroke="#e9e56f" stroke-width=".16933"/>
  </g>
  <path d="m-134.76 83.65h24.771" fill="none" stroke="#e96fc1" stroke-width=".16933"/>
  <g fill-opacity=".38431" stroke-linecap="round" stroke-width=".16933">
   <rect transform="rotate(-39)" x="-146.82" y="-13.906" width="9.2127" height="2.3422" fill="#3b390d" stroke="#e9e56f"/>
   <rect transform="rotate(-44.378)" x="-145.91" y="-33.631" width="9.2127" height="2.3422" fill="#3b390d" stroke="#e9e56f"/>
   <circle cx="-120.92" cy="77.844" r="1.6608" fill="#0d2a3b" stroke="#6fbde9"/>
  </g>
  <g>
   <circle cx="-122.57" cy="64.29" r=".32028" fill="#e96f6f"/>
   <circle cx="-114.11" cy="77.413" r=".32028" fill="#e96f6f"/>
   <g fill="#e9e56f" stroke-width=".28222px" aria-label="sleeping">
    <path d="m-105.66 44.388c-0.0741-0.08114-0.18168-0.12524-0.30163-0.12524-0.18697 0-0.30868 0.10407-0.30868 0.22401 0 0.14111 0.1517 0.19226 0.19579 0.20814 0.0688 0.02469 0.15699 0.04586 0.21696 0.07408 0.067 0.03175 0.0794 0.07408 0.0794 0.10231 0 0.07585-0.0917 0.127-0.20638 0.127-0.13758 0-0.22578-0.0829-0.25224-0.11112-5e-3 -0.0071-5e-3 -0.01235-5e-3 -0.0194 0-0.0018 2e-3 -0.01235-7e-3 -0.01587l-0.0741 0.12524c0.0952 0.0882 0.21873 0.12876 0.34043 0.12876 0.22049 0 0.33514-0.13053 0.33514-0.25224 0-0.05468-0.0229-0.12876-0.11818-0.18168-0.09-0.05115-0.22048-0.06879-0.29633-0.10583-0.0653-0.03175-0.0794-0.07056-0.0794-0.09878 0-0.0635 0.0794-0.10936 0.16934-0.10936 0.11641 0 0.19403 0.07056 0.22401 0.11112 5e-3 0.0053 4e-3 0.01058 4e-3 0.01588 0 0.01058 7e-3 0.01411 0.0106 0.01411z"/>
    <path d="m-105.4 43.916v0.1023h0.2293v0.96838h-0.23989v0.10054h0.60502v-0.10054h-0.23813v-1.0707z"/>
    <path d="m-104.21 44.263c-0.19227 0-0.37042 0.13758-0.37042 0.43039 0 0.26988 0.16757 0.41275 0.38629 0.41275 0.11642 0 0.22049-0.04233 0.28928-0.12524l-0.0705-0.06879c-0.0512 0.05997-0.12877 0.09172-0.20814 0.09172-0.1076 0-0.26459-0.05997-0.27341-0.30162h0.5715c5e-3 -0.05468 4e-3 -0.1076-5e-3 -0.15346-0.037-0.21696-0.18697-0.28575-0.31926-0.28575zm-0.24342 0.34219c0.0265-0.1905 0.14817-0.24518 0.2346-0.24518 0.13053 0 0.22401 0.11465 0.20814 0.24518z"/>
    <path d="m-103.33 44.263c-0.19226 0-0.37041 0.13758-0.37041 0.43039 0 0.26988 0.16757 0.41275 0.38629 0.41275 0.11641 0 0.22048-0.04233 0.28928-0.12524l-0.0706-0.06879c-0.0511 0.05997-0.12876 0.09172-0.20814 0.09172-0.1076 0-0.26458-0.05997-0.2734-0.30162h0.5715c5e-3 -0.05468 4e-3 -0.1076-5e-3 -0.15346-0.037-0.21696-0.18698-0.28575-0.31927-0.28575zm-0.24341 0.34219c0.0264-0.1905 0.14816-0.24518 0.23459-0.24518 0.13053 0 0.22402 0.11465 0.20814 0.24518z"/>
    <path d="m-102.79 44.283 2e-3 1.0989h0.12876v-0.4004c0.0547 0.07937 0.14464 0.12876 0.24165 0.12876 0.16581 0 0.33867-0.13935 0.33867-0.43392 0-0.28399-0.16757-0.41099-0.32632-0.41099-0.10407 0-0.20108 0.05292-0.25576 0.14111v-0.12347zm0.33691 0.08996c0.0705 0 0.24165 0.03704 0.24165 0.32985 0 0.254-0.16581 0.29457-0.24165 0.29457-0.0759 0-0.15346-0.03881-0.18521-0.11112-0.0229-0.05468-0.0229-0.12171-0.0229-0.23812 0-0.06703 4e-3 -0.11642 0.0212-0.15875 0.0318-0.07232 0.10584-0.11642 0.18698-0.11642z"/>
    <path d="m-101.83 44.281v0.10407h0.19403v0.60149h-0.20461v0.10054h0.52211v-0.10054h-0.18874v-0.70556zm0.26106-0.34925c-0.0512 0-0.0917 0.04057-0.0917 0.08996s0.0406 0.08996 0.0917 0.08996c0.0512 0 0.0917-0.04057 0.0917-0.08996s-0.0406-0.08996-0.0917-0.08996z"/>
    <path d="m-101.02 45.087h0.12876v-0.4639c0-0.05292 7e-3 -0.09349 0.0406-0.13758 0.03-0.04057 0.1076-0.11289 0.19227-0.11289 0.0406 0 0.0811 0.01764 0.10936 0.05115 0.0441 0.05292 0.0441 0.12171 0.0441 0.17815v0.48507h0.12524v-0.4886c0-0.06174 0-0.12876-0.0282-0.19403-0.0406-0.08996-0.12347-0.14111-0.2152-0.14111-0.10936 0-0.20814 0.07056-0.26811 0.16051v-0.14111h-0.12876z"/>
    <path d="m-100.03 44.533c0-0.09701 0.08114-0.17639 0.17816-0.17639 0.09878 0 0.17815 0.07937 0.17815 0.17639 0 0.09701-0.07937 0.17639-0.17815 0.17639-0.09878 0-0.17816-0.07937-0.17816-0.17639zm0.18521-0.27693c-0.16051 0-0.29986 0.127-0.29986 0.28399 0 0.08819 0.0441 0.1711 0.11818 0.21872-0.0582 0.04939-0.0917 0.10407-0.0917 0.15522 0 0.03351 0.0141 0.08114 0.0653 0.1076-0.0864 0.05468-0.13052 0.11465-0.13052 0.17815 0 0.08819 0.0811 0.19226 0.36336 0.19226 0.2734 0 0.37218-0.13935 0.37218-0.24694 0-0.07056-0.04057-0.14111-0.12524-0.17463-0.08467-0.03528-0.18168-0.02293-0.2734-0.02293-0.05997 0-0.09878-0.0053-0.11465-0.01058-0.03175-0.0088-0.04939-0.02822-0.04939-0.05292 0-0.04233 0.04939-0.0829 0.05821-0.08996 0.03175 0.01235 0.06703 0.01764 0.10231 0.01764 0.15875 0 0.28928-0.127 0.28928-0.27517 0-0.04939-0.01411-0.09701-0.04057-0.13758 0.04233-0.02469 0.09172-0.0388 0.14111-0.0388 0.01587 0 0.02999 0.0018 0.04586 0.0053l-0.01411-0.10407c-0.08114-0.0071-0.16228 0.0194-0.22401 0.07056-0.05115-0.04939-0.11818-0.07585-0.19226-0.07585zm-0.12171 0.78846c0.02999 0.0035 0.07232 0.0071 0.13406 0.01058 0.05997 0.0018 0.12524-0.0035 0.1711 0.0035 0.07408 0.01235 0.09701 0.05821 0.09701 0.09349s-0.02117 0.07761-0.07585 0.1076c-0.05997 0.03175-0.127 0.03528-0.18168 0.03528-0.03704 0-0.10583-0.0018-0.1658-0.02646-0.06527-0.02646-0.07938-0.07056-0.07938-0.09878 0-0.05821 0.0547-0.10054 0.10055-0.12524z"/>
   </g>
   <g fill="#e9e56f" stroke-width=".28222px" aria-label="contact of impact needs processing">
    <path d="m-105.62 74.666c-0.0635-0.09349-0.1711-0.14993-0.30163-0.14993-0.23636 0-0.40393 0.17815-0.40393 0.41981 0 0.24342 0.16757 0.42333 0.39688 0.42333 0.11112 0 0.22049-0.04586 0.29633-0.12876l-0.0723-0.08467c-0.0547 0.06174-0.13405 0.09701-0.21343 0.09701-0.15698 0-0.27693-0.13053-0.27693-0.31926 0-0.18344 0.11818-0.2981 0.26635-0.2981 0.13758 0 0.20285 0.09525 0.20814 0.10583 7e-3 0.01235-4e-3 0.02999 0.0106 0.04057z"/>
    <path d="m-104.73 74.939c0-0.27869-0.17639-0.42333-0.35983-0.42333-0.20461 0-0.381 0.17639-0.381 0.42686 0 0.24518 0.17462 0.41804 0.37747 0.41804 0.1905 0 0.36336-0.15346 0.36336-0.42157zm-0.36865-0.31574c0.11641 0 0.23989 0.10054 0.23989 0.32103 0 0.20285-0.11642 0.30515-0.23284 0.30515-0.12876 0-0.24518-0.11994-0.24518-0.31926 0-0.19756 0.11465-0.30692 0.23813-0.30692z"/>
    <path d="m-104.54 75.338h0.12876v-0.4639c0-0.05292 7e-3 -0.09349 0.0406-0.13758 0.03-0.04057 0.1076-0.11289 0.19227-0.11289 0.0406 0 0.0811 0.01764 0.10936 0.05115 0.0441 0.05292 0.0441 0.12171 0.0441 0.17815v0.48507h0.12523v-0.4886c0-0.06174 0-0.12876-0.0282-0.19403-0.0406-0.08996-0.12347-0.14111-0.2152-0.14111-0.10936 0-0.20813 0.07056-0.26811 0.16051v-0.14111h-0.12876z"/>
    <path d="m-103.45 74.316-0.0159 0.21696h-0.19227l-2e-3 0.10407h0.18873c-0.0106 0.13758-0.0159 0.27517-0.0159 0.41099 0 0.07232 0 0.15346 0.0476 0.22049 0.0388 0.05292 0.10055 0.08467 0.18345 0.08467 0.0953 0 0.18873-0.04057 0.25753-0.08996l-0.0388-0.10054c-0.0688 0.05115-0.13229 0.07408-0.18168 0.07408-0.06 0-0.12171-0.03351-0.13582-0.13053 0-0.0071-5e-3 -0.03704-5e-3 -0.15522 0-0.10407 5e-3 -0.2099 0.0159-0.31397h0.26459v-0.10583h-0.26282s0.0123-0.14464 0.0212-0.1905c2e-3 -0.01764 0.0159-0.02822 9e-3 -0.04762z"/>
    <path d="m-102.74 74.627 0.0617 0.08114c0.067-0.06879 0.15699-0.08996 0.23283-0.08996 0.0953 0 0.14288 0.04057 0.16581 0.07761 0.0265 0.0441 0.0247 0.09701 0.0247 0.13935v0.02822h-0.0247c-0.11994 0-0.24694 0-0.34925 0.03704-0.127 0.04586-0.18344 0.14111-0.18344 0.2293 0 0.11818 0.1023 0.22931 0.26987 0.22931 0.0988 0 0.20108-0.03704 0.28928-0.10936v0.08819h0.11994v-0.49918c0-0.06526-2e-3 -0.127-0.0388-0.1905-0.0529-0.08643-0.15523-0.13229-0.28046-0.13229-0.1076 0-0.21167 0.03351-0.28752 0.11112zm0.49037 0.33338v0.05468c0 0.04057 0 0.09349-0.0547 0.15169-0.03 0.02999-0.10584 0.09525-0.21167 0.09525-0.1076 0-0.16933-0.06879-0.16933-0.13935 0-0.05997 0.0406-0.12524 0.14111-0.14993 0.0741-0.01764 0.18168-0.01235 0.26634-0.01235z"/>
    <path d="m-101.21 74.666c-0.0635-0.09349-0.17109-0.14993-0.30162-0.14993-0.23636 0-0.40393 0.17815-0.40393 0.41981 0 0.24342 0.16757 0.42333 0.39687 0.42333 0.11113 0 0.22049-0.04586 0.29634-0.12876l-0.0723-0.08467c-0.0547 0.06174-0.13406 0.09701-0.21343 0.09701-0.15699 0-0.27694-0.13053-0.27694-0.31926 0-0.18344 0.11819-0.2981 0.26635-0.2981 0.13759 0 0.20285 0.09525 0.20814 0.10583 7e-3 0.01235-4e-3 0.02999 0.0106 0.04057z"/>
    <path d="m-100.8 74.316-0.0159 0.21696h-0.19226l-2e-3 0.10407h0.18874c-0.0106 0.13758-0.0159 0.27517-0.0159 0.41099 0 0.07232 0 0.15346 0.0476 0.22049 0.0388 0.05292 0.10054 0.08467 0.18344 0.08467 0.0952 0 0.18874-0.04057 0.25753-0.08996l-0.0388-0.10054c-0.0688 0.05115-0.13229 0.07408-0.18168 0.07408-0.06 0-0.1217-0.03351-0.13582-0.13053 0-0.0071-5e-3 -0.03704-5e-3 -0.15522 0-0.10407 5e-3 -0.2099 0.0159-0.31397h0.26458v-0.10583h-0.26282s0.0123-0.14464 0.0212-0.1905c2e-3 -0.01764 0.0159-0.02822 9e-3 -0.04762z"/>
    <path d="m-98.56 74.939c0-0.27869-0.17639-0.42333-0.35983-0.42333-0.20461 0-0.381 0.17639-0.381 0.42686 0 0.24518 0.17462 0.41804 0.37747 0.41804 0.1905 0 0.36336-0.15346 0.36336-0.42157zm-0.36865-0.31574c0.11642 0 0.23989 0.10054 0.23989 0.32103 0 0.20285-0.11642 0.30515-0.23283 0.30515-0.12876 0-0.24518-0.11994-0.24518-0.31926 0-0.19756 0.11465-0.30692 0.23812-0.30692z"/>
    <path d="m-97.884 74.156c-0.11289 0-0.21872 0.04762-0.27517 0.13935-0.04233 0.06703-0.0441 0.13406-0.0441 0.20638v0.07937h-0.17639v0.10054h0.17639v0.65617h0.12171v-0.65617h0.26282v-0.10054h-0.26282v-0.0635c0-0.05821-0.0018-0.11994 0.02822-0.17286 0.03351-0.05997 0.09701-0.08996 0.16228-0.08996 0.07761 0 0.14288 0.04057 0.17639 0.09172 0.0053 0.0088 0.0053 0.01411 0.0053 0.02117 0 0.01235 0.0088 0.01587 0.01411 0.01587l0.05821-0.11818c-0.05821-0.06879-0.1464-0.10936-0.24694-0.10936z"/>
    <path d="m-96.538 74.532v0.10407h0.19403v0.60149h-0.20461v0.10054h0.52211v-0.10054h-0.18874v-0.70556zm0.26106-0.34925c-0.05115 0-0.09172 0.04057-0.09172 0.08996s0.04057 0.08996 0.09172 0.08996 0.09172-0.04057 0.09172-0.08996-0.04057-0.08996-0.09172-0.08996z"/>
    <path d="m-95.778 75.338h0.11642v-0.53622c0-0.03881 0.0035-0.07408 0.02646-0.11642 0.02822-0.05292 0.0635-0.07408 0.09701-0.07408 0.02822 0 0.05997 0.01764 0.07408 0.06174 0.01058 0.03351 0.0088 0.07232 0.0088 0.10583v0.55915h0.11818v-0.53269c0-0.04233 0.0035-0.07585 0.03351-0.127 0.01411-0.02117 0.0441-0.07232 0.09349-0.07232 0.02646 0 0.05115 0.01588 0.0635 0.04586 0.01587 0.03351 0.01235 0.07937 0.01235 0.11642v0.5715h0.11994v-0.57326c0-0.06703 0.0018-0.13406-0.03351-0.18874-0.02999-0.04586-0.08114-0.0635-0.12524-0.0635-0.07761 0-0.14993 0.04586-0.18168 0.11642-0.01235-0.06703-0.06879-0.11642-0.14111-0.11642-0.06703 0-0.12876 0.04233-0.16581 0.09878l0.0018-0.07937h-0.11818z"/>
    <path d="m-94.857 74.533 0.0018 1.0989h0.12876v-0.4004c0.05468 0.07937 0.14464 0.12876 0.24165 0.12876 0.16581 0 0.33867-0.13935 0.33867-0.43392 0-0.28399-0.16757-0.41099-0.32632-0.41099-0.10407 0-0.20108 0.05292-0.25576 0.14111v-0.12347zm0.3369 0.08996c0.07056 0 0.24165 0.03704 0.24165 0.32985 0 0.254-0.1658 0.29457-0.24165 0.29457-0.07585 0-0.15346-0.03881-0.18521-0.11112-0.02293-0.05468-0.02293-0.12171-0.02293-0.23812 0-0.06703 0.0035-0.11642 0.02117-0.15875 0.03175-0.07232 0.10583-0.11642 0.18697-0.11642z"/>
    <path d="m-93.921 74.627 0.06174 0.08114c0.06703-0.06879 0.15699-0.08996 0.23283-0.08996 0.09525 0 0.14288 0.04057 0.16581 0.07761 0.02646 0.0441 0.02469 0.09701 0.02469 0.13935v0.02822h-0.02469c-0.11994 0-0.24694 0-0.34925 0.03704-0.127 0.04586-0.18344 0.14111-0.18344 0.2293 0 0.11818 0.10231 0.22931 0.26988 0.22931 0.09878 0 0.20108-0.03704 0.28928-0.10936v0.08819h0.11994v-0.49918c0-0.06526-0.0018-0.127-0.03881-0.1905-0.05292-0.08643-0.15522-0.13229-0.28046-0.13229-0.1076 0-0.21167 0.03351-0.28751 0.11112zm0.49036 0.33338v0.05468c0 0.04057 0 0.09349-0.05468 0.15169-0.02999 0.02999-0.10583 0.09525-0.21167 0.09525-0.1076 0-0.16933-0.06879-0.16933-0.13935 0-0.05997 0.04057-0.12524 0.14111-0.14993 0.07408-0.01764 0.18168-0.01235 0.26635-0.01235z"/>
    <path d="m-92.393 74.666c-0.0635-0.09349-0.1711-0.14993-0.30162-0.14993-0.23636 0-0.40393 0.17815-0.40393 0.41981 0 0.24342 0.16757 0.42333 0.39688 0.42333 0.11112 0 0.22049-0.04586 0.29633-0.12876l-0.07232-0.08467c-0.05468 0.06174-0.13406 0.09701-0.21343 0.09701-0.15699 0-0.27693-0.13053-0.27693-0.31926 0-0.18344 0.11818-0.2981 0.26635-0.2981 0.13758 0 0.20285 0.09525 0.20814 0.10583 0.0071 0.01235-0.0035 0.02999 0.01058 0.04057z"/>
    <path d="m-91.984 74.316-0.01587 0.21696h-0.19226l-0.0018 0.10407h0.18874c-0.01058 0.13758-0.01588 0.27517-0.01588 0.41099 0 0.07232 0 0.15346 0.04763 0.22049 0.03881 0.05292 0.10054 0.08467 0.18344 0.08467 0.09525 0 0.18874-0.04057 0.25753-0.08996l-0.03881-0.10054c-0.06879 0.05115-0.13229 0.07408-0.18168 0.07408-0.05997 0-0.12171-0.03351-0.13582-0.13053 0-0.0071-0.0053-0.03704-0.0053-0.15522 0-0.10407 0.0053-0.2099 0.01587-0.31397h0.26458v-0.10583h-0.26282s0.01235-0.14464 0.02117-0.1905c0.0018-0.01764 0.01588-0.02822 0.0088-0.04762z"/>
    <path d="m-106.31 77.543h0.12876v-0.4639c0-0.05292 7e-3 -0.09349 0.0406-0.13758 0.03-0.04057 0.1076-0.11289 0.19227-0.11289 0.0406 0 0.0811 0.01764 0.10936 0.05115 0.0441 0.05292 0.0441 0.12171 0.0441 0.17815v0.48507h0.12523v-0.4886c0-0.06174 0-0.12876-0.0282-0.19403-0.0406-0.08996-0.12347-0.14111-0.21519-0.14111-0.10937 0-0.20814 0.07056-0.26812 0.16051v-0.14111h-0.12876z"/>
    <path d="m-105.09 76.719c-0.19226 0-0.37041 0.13758-0.37041 0.43039 0 0.26988 0.16757 0.41275 0.38629 0.41275 0.11642 0 0.22049-0.04233 0.28928-0.12524l-0.0706-0.06879c-0.0511 0.05997-0.12876 0.09172-0.20814 0.09172-0.10759 0-0.26458-0.05997-0.2734-0.30162h0.5715c5e-3 -0.05468 4e-3 -0.1076-5e-3 -0.15346-0.037-0.21696-0.18697-0.28575-0.31927-0.28575zm-0.24341 0.3422c0.0265-0.1905 0.14816-0.24518 0.23459-0.24518 0.13053 0 0.22402 0.11465 0.20814 0.24518z"/>
    <path d="m-104.21 76.719c-0.19227 0-0.37042 0.13758-0.37042 0.43039 0 0.26988 0.16757 0.41275 0.38629 0.41275 0.11642 0 0.22049-0.04233 0.28928-0.12524l-0.0705-0.06879c-0.0512 0.05997-0.12877 0.09172-0.20814 0.09172-0.1076 0-0.26459-0.05997-0.27341-0.30162h0.5715c5e-3 -0.05468 4e-3 -0.1076-5e-3 -0.15346-0.037-0.21696-0.18697-0.28575-0.31926-0.28575zm-0.24342 0.3422c0.0265-0.1905 0.14817-0.24518 0.2346-0.24518 0.13053 0 0.22401 0.11465 0.20814 0.24518z"/>
    <path d="m-103.13 76.855c-0.0388-0.0829-0.12523-0.13758-0.23636-0.13758-0.15346 0-0.34043 0.10936-0.34043 0.41628 0 0.2981 0.16581 0.42862 0.32103 0.42862 0.1023 0 0.19755-0.05821 0.24871-0.14817v0.07055c0 0.0194 2e-3 0.03881 7e-3 0.05821h0.127c-7e-3 -0.02293-7e-3 -0.04939-7e-3 -0.07408l-2e-3 -1.0478c0-0.01058 0-0.01411 7e-3 -0.02469 4e-3 -0.0053 0.0106-0.01411 9e-3 -0.02646h-0.13406zm-0.23107-0.03351c0.0706 0 0.17463 0.03704 0.20638 0.15699 0.0106 0.03704 0.0141 0.08114 0.0141 0.1711 0 0.06174-4e-3 0.10583-0.0176 0.14817-0.03 0.09525-0.11465 0.15169-0.19756 0.15169-0.0917 0-0.22754-0.07055-0.22754-0.33514 0-0.23107 0.12877-0.29281 0.22225-0.29281z"/>
    <path d="m-102.14 76.844c-0.0741-0.08114-0.18168-0.12524-0.30162-0.12524-0.18697 0-0.30868 0.10407-0.30868 0.22401 0 0.14111 0.15169 0.19226 0.19579 0.20814 0.0688 0.02469 0.15699 0.04586 0.21696 0.07408 0.067 0.03175 0.0794 0.07408 0.0794 0.1023 0 0.07585-0.0917 0.127-0.20637 0.127-0.13758 0-0.22578-0.0829-0.25224-0.11112-5e-3 -0.0071-5e-3 -0.01235-5e-3 -0.0194 0-0.0018 2e-3 -0.01235-7e-3 -0.01587l-0.0741 0.12524c0.0953 0.08819 0.21872 0.12876 0.34043 0.12876 0.22049 0 0.33514-0.13053 0.33514-0.25224 0-0.05468-0.0229-0.12876-0.11818-0.18168-0.09-0.05115-0.22048-0.06879-0.29633-0.10583-0.0653-0.03175-0.0794-0.07055-0.0794-0.09878 0-0.0635 0.0794-0.10936 0.16934-0.10936 0.11641 0 0.19402 0.07056 0.22401 0.11112 5e-3 0.0053 4e-3 0.01058 4e-3 0.01588 0 0.01058 7e-3 0.01411 0.0106 0.01411z"/>
    <path d="m-101.03 76.738 2e-3 1.0989h0.12876v-0.4004c0.0547 0.07938 0.14464 0.12876 0.24165 0.12876 0.16581 0 0.33867-0.13935 0.33867-0.43392 0-0.28399-0.16757-0.41099-0.32632-0.41099-0.10407 0-0.20108 0.05292-0.25576 0.14111v-0.12347zm0.33691 0.08996c0.0705 0 0.24165 0.03704 0.24165 0.32985 0 0.254-0.16581 0.29457-0.24165 0.29457-0.0759 0-0.15346-0.0388-0.18521-0.11112-0.0229-0.05468-0.0229-0.12171-0.0229-0.23812 0-0.06703 4e-3 -0.11642 0.0212-0.15875 0.0318-0.07232 0.10584-0.11642 0.18698-0.11642z"/>
    <path d="m-100.08 76.738v0.8061h0.127v-0.39158c0-0.04939 0.0018-0.1023 0.05644-0.18874 0.07408-0.11642 0.16933-0.13582 0.22754-0.13582 0.06703 0 0.10936 0.03175 0.13229 0.05997 0.01058 0.01411 0.01588 0.02822 0.02999 0.04057l0.05997-0.12171c-0.05115-0.05292-0.12524-0.08819-0.21519-0.08819-0.11818 0-0.23812 0.05997-0.29104 0.17462l0.0053-0.15522z"/>
    <path d="m-98.56 77.144c0-0.2787-0.17639-0.42333-0.35983-0.42333-0.20461 0-0.381 0.17639-0.381 0.42686 0 0.24518 0.17462 0.41804 0.37747 0.41804 0.1905 0 0.36336-0.15346 0.36336-0.42157zm-0.36865-0.31574c0.11642 0 0.23989 0.10054 0.23989 0.32103 0 0.20285-0.11642 0.30515-0.23283 0.30515-0.12876 0-0.24518-0.11994-0.24518-0.31926 0-0.19756 0.11465-0.30692 0.23812-0.30692z"/>
    <path d="m-97.685 76.871c-0.0635-0.09349-0.1711-0.14993-0.30162-0.14993-0.23636 0-0.40393 0.17815-0.40393 0.41981 0 0.24342 0.16757 0.42333 0.39688 0.42333 0.11112 0 0.22049-0.04586 0.29633-0.12876l-0.07232-0.08467c-0.05468 0.06174-0.13406 0.09701-0.21343 0.09701-0.15699 0-0.27693-0.13053-0.27693-0.31926 0-0.18344 0.11818-0.2981 0.26635-0.2981 0.13758 0 0.20285 0.09525 0.20814 0.10583 0.0071 0.01235-0.0035 0.02999 0.01058 0.04057z"/>
    <path d="m-97.152 76.719c-0.19226 0-0.37042 0.13758-0.37042 0.43039 0 0.26988 0.16757 0.41275 0.38629 0.41275 0.11642 0 0.22049-0.04233 0.28928-0.12524l-0.07055-0.06879c-0.05115 0.05997-0.12876 0.09172-0.20814 0.09172-0.1076 0-0.26458-0.05997-0.2734-0.30162h0.5715c0.0053-0.05468 0.0035-0.1076-0.0053-0.15346-0.03704-0.21696-0.18697-0.28575-0.31926-0.28575zm-0.24342 0.3422c0.02646-0.1905 0.14817-0.24518 0.2346-0.24518 0.13053 0 0.22401 0.11465 0.20814 0.24518z"/>
    <path d="m-95.963 76.844c-0.07408-0.08114-0.18168-0.12524-0.30162-0.12524-0.18697 0-0.30868 0.10407-0.30868 0.22401 0 0.14111 0.1517 0.19226 0.19579 0.20814 0.06879 0.02469 0.15699 0.04586 0.21696 0.07408 0.06703 0.03175 0.07937 0.07408 0.07937 0.1023 0 0.07585-0.09172 0.127-0.20638 0.127-0.13758 0-0.22578-0.0829-0.25224-0.11112-0.0053-0.0071-0.0053-0.01235-0.0053-0.0194 0-0.0018 0.0018-0.01235-0.0071-0.01587l-0.07408 0.12524c0.09525 0.08819 0.21872 0.12876 0.34043 0.12876 0.22049 0 0.33514-0.13053 0.33514-0.25224 0-0.05468-0.02293-0.12876-0.11818-0.18168-0.08996-0.05115-0.22049-0.06879-0.29633-0.10583-0.06526-0.03175-0.07937-0.07055-0.07937-0.09878 0-0.0635 0.07937-0.10936 0.16933-0.10936 0.11642 0 0.19403 0.07056 0.22401 0.11112 0.0053 0.0053 0.0035 0.01058 0.0035 0.01588 0 0.01058 0.0071 0.01411 0.01058 0.01411z"/>
    <path d="m-95.081 76.844c-0.07408-0.08114-0.18168-0.12524-0.30162-0.12524-0.18697 0-0.30868 0.10407-0.30868 0.22401 0 0.14111 0.15169 0.19226 0.19579 0.20814 0.06879 0.02469 0.15699 0.04586 0.21696 0.07408 0.06703 0.03175 0.07937 0.07408 0.07937 0.1023 0 0.07585-0.09172 0.127-0.20638 0.127-0.13758 0-0.22578-0.0829-0.25224-0.11112-0.0053-0.0071-0.0053-0.01235-0.0053-0.0194 0-0.0018 0.0018-0.01235-0.0071-0.01587l-0.07408 0.12524c0.09525 0.08819 0.21872 0.12876 0.34043 0.12876 0.22049 0 0.33514-0.13053 0.33514-0.25224 0-0.05468-0.02293-0.12876-0.11818-0.18168-0.08996-0.05115-0.22049-0.06879-0.29633-0.10583-0.06526-0.03175-0.07937-0.07055-0.07937-0.09878 0-0.0635 0.07937-0.10936 0.16933-0.10936 0.11642 0 0.19403 0.07056 0.22401 0.11112 0.0053 0.0053 0.0035 0.01058 0.0035 0.01588 0 0.01058 0.0071 0.01411 0.01058 0.01411z"/>
    <path d="m-94.775 76.736v0.10407h0.19403v0.60149h-0.20461v0.10054h0.52211v-0.10054h-0.18874v-0.70556zm0.26106-0.34925c-0.05115 0-0.09172 0.04057-0.09172 0.08996s0.04057 0.08996 0.09172 0.08996 0.09172-0.04057 0.09172-0.08996-0.04057-0.08996-0.09172-0.08996z"/>
    <path d="m-93.96 77.543h0.12876v-0.4639c0-0.05292 0.0071-0.09349 0.04057-0.13758 0.02999-0.04057 0.1076-0.11289 0.19226-0.11289 0.04057 0 0.08114 0.01764 0.10936 0.05115 0.0441 0.05292 0.0441 0.12171 0.0441 0.17815v0.48507h0.12524v-0.4886c0-0.06174 0-0.12876-0.02822-0.19403-0.04057-0.08996-0.12347-0.14111-0.2152-0.14111-0.10936 0-0.20814 0.07056-0.26811 0.16051v-0.14111h-0.12876z"/>
    <path d="m-92.977 76.989c0-0.09701 0.08114-0.17639 0.17815-0.17639 0.09878 0 0.17815 0.07937 0.17815 0.17639 0 0.09701-0.07937 0.17639-0.17815 0.17639-0.09878 0-0.17815-0.07937-0.17815-0.17639zm0.18521-0.27693c-0.16051 0-0.29986 0.127-0.29986 0.28399 0 0.08819 0.0441 0.1711 0.11818 0.21872-0.05821 0.04939-0.09172 0.10407-0.09172 0.15522 0 0.03351 0.01411 0.08114 0.06526 0.1076-0.08643 0.05468-0.13053 0.11465-0.13053 0.17815 0 0.08819 0.08114 0.19226 0.36336 0.19226 0.2734 0 0.37218-0.13935 0.37218-0.24694 0-0.07056-0.04057-0.14111-0.12524-0.17462-0.08467-0.03528-0.18168-0.02293-0.2734-0.02293-0.05997 0-0.09878-0.0053-0.11465-0.01058-0.03175-0.0088-0.04939-0.02822-0.04939-0.05292 0-0.04233 0.04939-0.0829 0.05821-0.08996 0.03175 0.01235 0.06703 0.01764 0.1023 0.01764 0.15875 0 0.28928-0.127 0.28928-0.27517 0-0.04939-0.01411-0.09701-0.04057-0.13758 0.04233-0.02469 0.09172-0.03881 0.14111-0.03881 0.01588 0 0.02999 0.0018 0.04586 0.0053l-0.01411-0.10407c-0.08114-0.0071-0.16228 0.0194-0.22401 0.07055-0.05115-0.04939-0.11818-0.07585-0.19226-0.07585zm-0.12171 0.78846c0.02999 0.0035 0.07232 0.0071 0.13406 0.01058 0.05997 0.0018 0.12524-0.0035 0.1711 0.0035 0.07408 0.01235 0.09701 0.05821 0.09701 0.09349s-0.02117 0.07761-0.07585 0.1076c-0.05997 0.03175-0.127 0.03528-0.18168 0.03528-0.03704 0-0.10583-0.0018-0.1658-0.02646-0.06526-0.02646-0.07937-0.07055-0.07937-0.09878 0-0.05821 0.05468-0.10054 0.10054-0.12524z"/>
   </g>
  </g>
  <g fill="none" stroke="#e96f6f" stroke-dasharray="0.13229167, 0.26458334" stroke-width=".13229">
   <path d="m-118.04 44.075 11.344 0.04961-14.701 2.96"/>
   <path d="m-106.76 44.141-6.0689 2.9435"/>
   <path d="m-114.14 77.446 7.276-2.4474"/>
   <path d="m-122.37 64.25c0.13229 0 15.18-5.8208 15.18-5.8208"/>
  </g>
  <g fill="#e9e56f" stroke-width=".28222px" aria-label="awakening">
   <path d="m-106.27 58.399 0.0617 0.08114c0.067-0.06879 0.15699-0.08996 0.23284-0.08996 0.0952 0 0.14287 0.04057 0.1658 0.07761 0.0265 0.0441 0.0247 0.09701 0.0247 0.13935v0.02822h-0.0247c-0.11994 0-0.24694 0-0.34925 0.03704-0.127 0.04586-0.18344 0.14111-0.18344 0.2293 0 0.11818 0.1023 0.22931 0.26987 0.22931 0.0988 0 0.20109-0.03704 0.28928-0.10936v0.08819h0.11994v-0.49918c0-0.06526-2e-3 -0.127-0.0388-0.1905-0.0529-0.08643-0.15522-0.13229-0.28046-0.13229-0.1076 0-0.21167 0.03351-0.28751 0.11112zm0.49036 0.33338v0.05468c0 0.04057 0 0.09349-0.0547 0.1517-0.03 0.02999-0.10584 0.09525-0.21167 0.09525-0.1076 0-0.16933-0.06879-0.16933-0.13935 0-0.05997 0.0406-0.12524 0.14111-0.14993 0.0741-0.01764 0.18168-0.01235 0.26635-0.01235z"/>
   <path d="m-105.52 58.304 0.16228 0.80786h0.11465l0.14111-0.52211 0.14993 0.52211h0.11818c0.0547-0.26635 0.10054-0.53622 0.13406-0.8061h-0.11642c4e-3 0.09701-5e-3 0.18697-0.0759 0.64558l-0.16933-0.5715h-0.0776l-0.13935 0.57326-0.11641-0.58208c-4e-3 -0.01235-4e-3 -0.01764 2e-3 -0.03175 2e-3 -0.0088 7e-3 -0.02117 2e-3 -0.03528z"/>
   <path d="m-104.5 58.399 0.0617 0.08114c0.067-0.06879 0.15699-0.08996 0.23283-0.08996 0.0952 0 0.14288 0.04057 0.16581 0.07761 0.0265 0.0441 0.0247 0.09701 0.0247 0.13935v0.02822h-0.0247c-0.11994 0-0.24694 0-0.34925 0.03704-0.127 0.04586-0.18344 0.14111-0.18344 0.2293 0 0.11818 0.1023 0.22931 0.26987 0.22931 0.0988 0 0.20108-0.03704 0.28928-0.10936v0.08819h0.11994v-0.49918c0-0.06526-2e-3 -0.127-0.0388-0.1905-0.0529-0.08643-0.15522-0.13229-0.28046-0.13229-0.1076 0-0.21167 0.03351-0.28751 0.11112zm0.49036 0.33338v0.05468c0 0.04057 0 0.09349-0.0547 0.1517-0.03 0.02999-0.10584 0.09525-0.21167 0.09525-0.1076 0-0.16933-0.06879-0.16933-0.13935 0-0.05997 0.0406-0.12524 0.14111-0.14993 0.0741-0.01764 0.18168-0.01235 0.26634-0.01235z"/>
   <path d="m-103.66 57.939v1.173h0.127v-0.30515l0.10759-0.09878 0.32809 0.41099s0.0688-0.0071 0.15169-0.0071h0.0123l-0.39511-0.48154 0.34043-0.31926h-0.0459c-0.0318 0-0.0635-0.0018-0.0952-0.01058l-0.40393 0.37571v-0.69144c0-0.0071 2e-3 -0.01235 7e-3 -0.02117 5e-3 -0.0053 0.0123-0.01235 0.0106-0.02469z"/>
   <path d="m-102.44 58.286c-0.19227 0-0.37042 0.13758-0.37042 0.43039 0 0.26988 0.16757 0.41275 0.38629 0.41275 0.11642 0 0.22049-0.04233 0.28928-0.12524l-0.0705-0.06879c-0.0512 0.05997-0.12877 0.09172-0.20814 0.09172-0.1076 0-0.26459-0.05997-0.27341-0.30162h0.5715c5e-3 -0.05468 4e-3 -0.1076-5e-3 -0.15346-0.037-0.21696-0.18697-0.28575-0.31926-0.28575zm-0.24342 0.34219c0.0265-0.1905 0.14817-0.24518 0.2346-0.24518 0.13053 0 0.22401 0.11465 0.20814 0.24518z"/>
   <path d="m-101.9 59.11h0.12877v-0.4639c0-0.05292 7e-3 -0.09349 0.0406-0.13758 0.03-0.04057 0.10759-0.11289 0.19226-0.11289 0.0406 0 0.0811 0.01764 0.10936 0.05115 0.0441 0.05292 0.0441 0.12171 0.0441 0.17815v0.48507h0.12524v-0.4886c0-0.06174 0-0.12876-0.0282-0.19403-0.0406-0.08996-0.12347-0.14111-0.21519-0.14111-0.10936 0-0.20814 0.07055-0.26811 0.16051v-0.14111h-0.12877z"/>
   <path d="m-100.95 58.304v0.10407h0.19402v0.60149h-0.20461v0.10054h0.52211v-0.10054h-0.18873v-0.70556zm0.26105-0.34925c-0.0511 0-0.0917 0.04057-0.0917 0.08996s0.0406 0.08996 0.0917 0.08996c0.0512 0 0.0917-0.04057 0.0917-0.08996s-0.0406-0.08996-0.0917-0.08996z"/>
   <path d="m-100.13 59.11h0.12877v-0.4639c0-0.05292 0.0071-0.09349 0.04057-0.13758 0.02999-0.04057 0.1076-0.11289 0.19226-0.11289 0.04057 0 0.08114 0.01764 0.10936 0.05115 0.0441 0.05292 0.0441 0.12171 0.0441 0.17815v0.48507h0.12524v-0.4886c0-0.06174 0-0.12876-0.02822-0.19403-0.04057-0.08996-0.12347-0.14111-0.21519-0.14111-0.10936 0-0.20814 0.07055-0.26811 0.16051v-0.14111h-0.12877z"/>
   <path d="m-99.151 58.556c0-0.09701 0.08114-0.17639 0.17815-0.17639 0.09878 0 0.17815 0.07938 0.17815 0.17639 0 0.09701-0.07937 0.17639-0.17815 0.17639-0.09878 0-0.17815-0.07937-0.17815-0.17639zm0.18521-0.27693c-0.16051 0-0.29986 0.127-0.29986 0.28399 0 0.08819 0.0441 0.1711 0.11818 0.21872-0.05821 0.04939-0.09172 0.10407-0.09172 0.15522 0 0.03351 0.01411 0.08114 0.06526 0.1076-0.08643 0.05468-0.13053 0.11465-0.13053 0.17815 0 0.08819 0.08114 0.19226 0.36336 0.19226 0.2734 0 0.37218-0.13935 0.37218-0.24694 0-0.07055-0.04057-0.14111-0.12524-0.17462-0.08467-0.03528-0.18168-0.02293-0.2734-0.02293-0.05997 0-0.09878-0.0053-0.11465-0.01058-0.03175-0.0088-0.04939-0.02822-0.04939-0.05292 0-0.04233 0.04939-0.0829 0.05821-0.08996 0.03175 0.01235 0.06703 0.01764 0.10231 0.01764 0.15875 0 0.28928-0.127 0.28928-0.27517 0-0.04939-0.01411-0.09701-0.04057-0.13758 0.04233-0.02469 0.09172-0.03881 0.14111-0.03881 0.01587 0 0.02999 0.0018 0.04586 0.0053l-0.01411-0.10407c-0.08114-0.0071-0.16228 0.0194-0.22401 0.07056-0.05115-0.04939-0.11818-0.07585-0.19226-0.07585zm-0.12171 0.78846c0.02999 0.0035 0.07232 0.0071 0.13406 0.01058 0.05997 0.0018 0.12524-0.0035 0.1711 0.0035 0.07408 0.01235 0.09701 0.05821 0.09701 0.09349s-0.02117 0.07761-0.07585 0.1076c-0.05997 0.03175-0.127 0.03528-0.18168 0.03528-0.03704 0-0.10583-0.0018-0.16581-0.02646-0.06526-0.02646-0.07937-0.07056-0.07937-0.09878 0-0.05821 0.05468-0.10054 0.10054-0.12524z"/>
  </g>
  <path d="m-132.37 49.732h5.6774" fill="none" stroke="#e96f6f" stroke-width=".19358"/>
  <g transform="matrix(-.0010147 -.35844 .35844 -.0010147 -224.82 229.31)">
   <path d="m501.47 274.25-1.2053 3.2778-1.2053-3.2778c0.71162 0.52365 1.6852 0.52064 2.4106 0z" fill="#fff" fill-rule="evenodd" stroke="#d54747" stroke-linejoin="round" stroke-width=".1875"/>
  </g>
  <circle cx="-132.46" cy="49.733" r=".32028" fill="#e96f6f"/>
 </g>
</svg>
