<svg enable-background="new 0 0 595.28 841.89" version="1.1" viewBox="0 0 501.49 402.88" xml:space="preserve" xmlns="http://www.w3.org/2000/svg">
<g transform="translate(-48.07 -48.816)">
	<path d="m130.41 220.49c0.95 0 1.652 0.744 1.652 1.653v48.945c0 0.951-0.702 1.653-1.652 1.653h-75.36c-0.909 0-1.652-0.702-1.652-1.653v-48.945c0-0.909 0.744-1.653 1.652-1.653z" clip-rule="evenodd" fill="#0b2226" fill-opacity=".38431" fill-rule="evenodd"/>
		<path d="m130.41 220.49c0.95 0 1.652 0.744 1.652 1.653v48.945c0 0.951-0.702 1.653-1.652 1.653v0h-75.36v0c-0.909 0-1.652-0.702-1.652-1.653v-48.945c0-0.909 0.744-1.653 1.652-1.653v0z" fill="none" stroke="#6fb9e9" stroke-linecap="round" stroke-linejoin="round" stroke-miterlimit="10" stroke-width=".6614"/>
	<g transform="matrix(.9994 0 0 1 63.311 236.37)" fill="#e9e66f" aria-label="GameObject"><path d="m3.2978-7.4886c-0.98816 0-2.8692 0.61909-2.8692 3.8693 0 2.8097 1.5715 3.7383 2.8573 3.7383 0.69052 0 1.4882-0.25002 2.1787-0.77386v-2.893h-2.1073v0.71433h1.3453v1.7739c-0.41669 0.29764-0.89291 0.45241-1.3334 0.45241-0.48813 0-1.012-0.19049-1.4168-0.6548-0.61909-0.70242-0.70242-1.7501-0.70242-2.524 0-0.69052 0.083338-1.3572 0.36907-1.9049 0.38098-0.72624 1.0477-1.0596 1.6668-1.0596 0.66671 0 1.1906 0.36907 1.4168 0.8691 0.035717 0.083338 0.071433 0.17858 0.16668 0.23811l0.58337-0.59528c-0.4286-0.77386-1.2382-1.2501-2.1549-1.2501z"/><path d="m7.0242-4.7979 0.41669 0.54765c0.45241-0.46431 1.0596-0.60718 1.5715-0.60718 0.6429 0 0.96435 0.27383 1.1191 0.52384 0.17858 0.29764 0.16668 0.6548 0.16668 0.94053v0.19049h-0.16668c-0.80957 0-1.6668 0-2.3573 0.25002-0.8572 0.30954-1.2382 0.95244-1.2382 1.5477 0 0.79767 0.69052 1.5477 1.8215 1.5477 0.66671 0 1.3572-0.25002 1.9525-0.73814v0.59528h0.80957v-3.3693c0-0.4405-0.01191-0.8572-0.26192-1.2858-0.35716-0.58337-1.0477-0.89291-1.893-0.89291-0.72624 0-1.4287 0.2262-1.9406 0.75005zm3.3097 2.2501v0.36907c0 0.27383 0 0.63099-0.36907 1.0239-0.20239 0.20239-0.71433 0.6429-1.4287 0.6429-0.72624 0-1.1429-0.46431-1.1429-0.94053 0-0.40479 0.27383-0.84529 0.95244-1.012 0.50003-0.11906 1.2263-0.083338 1.7977-0.083338z"/><path d="m12.346 0h0.78576v-3.6193c0-0.26192 0.02381-0.50003 0.17858-0.78576 0.19049-0.35716 0.4286-0.50003 0.6548-0.50003 0.19049 0 0.40479 0.11906 0.50003 0.41669 0.07143 0.2262 0.05953 0.48813 0.05953 0.71433v3.774h0.79767v-3.5955c0-0.28573 0.02381-0.51194 0.2262-0.8572 0.09524-0.14287 0.29764-0.48813 0.63099-0.48813 0.17858 0 0.34526 0.10715 0.4286 0.30954 0.10715 0.2262 0.08334 0.53575 0.08334 0.78576v3.8574h0.80957v-3.8693c0-0.45241 0.0119-0.90482-0.2262-1.2739-0.20239-0.30954-0.54765-0.4286-0.84529-0.4286-0.52384 0-1.012 0.30954-1.2263 0.78576-0.08334-0.45241-0.46431-0.78576-0.95244-0.78576-0.45241 0-0.8691 0.28573-1.1191 0.66671l0.01191-0.53575h-0.79767z"/><path d="m20.93-5.5599c-1.2977 0-2.5002 0.92863-2.5002 2.9049 0 1.8215 1.131 2.7859 2.6073 2.7859 0.78576 0 1.4882-0.28573 1.9525-0.84529l-0.47622-0.46431c-0.34526 0.40479-0.8691 0.61909-1.4048 0.61909-0.72624 0-1.7858-0.40479-1.8454-2.0358h3.8574c0.03572-0.36907 0.02381-0.72624-0.03572-1.0358-0.25002-1.4644-1.262-1.9287-2.1549-1.9287zm-1.643 2.3097c0.17858-1.2858 1.0001-1.6549 1.5834-1.6549 0.88101 0 1.512 0.77386 1.4048 1.6549z"/><path d="m29.418-3.6907c0-0.69052-0.04762-1.6072-0.45241-2.4049-0.48813-0.95244-1.3334-1.3929-2.143-1.3929-1.1072 0-2.6668 0.8572-2.6668 3.774 0 2.9168 1.5358 3.8336 2.6787 3.8336 0.79767 0 1.6549-0.45241 2.143-1.4406 0.39288-0.79767 0.4405-1.7144 0.4405-2.3692zm-2.6311-3.024c0.52384 0 1.1667 0.30954 1.512 1.1786 0.25002 0.61909 0.28573 1.3334 0.28573 1.9525 0 0.48813-0.02381 1.2501-0.33335 1.8811-0.34526 0.72624-0.91672 1.012-1.4168 1.012-0.83338 0-1.8573-0.77386-1.8573-3.1311 0-2.2144 1.0358-2.893 1.8096-2.893z"/><path d="m30.466-7.9172v7.9172h0.55956l0.29764-0.71433c0.35716 0.53575 0.95244 0.8572 1.6072 0.8572 1.1191 0 2.274-0.95244 2.274-2.9288 0-1.893-1.1191-2.774-2.1906-2.774-0.69052 0-1.3334 0.36907-1.6787 0.96435v-3.0478c0-0.071433 0.01191-0.095244 0.07143-0.14287 0.02381-0.011905 0.08334-0.059527 0.07143-0.13096zm2.2501 3.0954c0.51194 0 1.5953 0.29764 1.5953 2.2263 0 1.6549-1.0715 1.9644-1.6072 1.9644-0.36907 0-1.1906-0.14287-1.3334-1.1906-0.03572-0.27383-0.03572-0.59528-0.03572-1.0715 0-0.48813 0.02381-0.84529 0.14287-1.1429 0.20239-0.48813 0.70242-0.78576 1.2382-0.78576z"/><path d="m37.205-5.4408v0.71433h2.0358v4.5122c0 0.29764-0.0119 0.58337-0.14287 0.8691-0.20239 0.4405-0.63099 0.69052-1.0953 0.69052-0.6548 0-1.012-0.47622-1.0596-0.54765-0.04762-0.083338-0.02381-0.15477-0.10715-0.2143l-0.54765 0.73814c0.39288 0.48813 0.98816 0.76195 1.6549 0.76195 0.78576 0 1.5358-0.36907 1.9049-1.0834 0.23811-0.46431 0.25002-0.90482 0.25002-1.3691v-5.0717zm2.4763-2.3573c-0.34526 0-0.61909 0.27383-0.61909 0.60718 0 0.33335 0.27383 0.60718 0.61909 0.60718 0.33335 0 0.60718-0.27383 0.60718-0.60718 0-0.33335-0.27383-0.60718-0.60718-0.60718z"/><path d="m44.741-5.5599c-1.2977 0-2.5002 0.92863-2.5002 2.9049 0 1.8215 1.131 2.7859 2.6073 2.7859 0.78576 0 1.4882-0.28573 1.9525-0.84529l-0.47622-0.46431c-0.34526 0.40479-0.8691 0.61909-1.4048 0.61909-0.72624 0-1.7858-0.40479-1.8454-2.0358h3.8574c0.03572-0.36907 0.02381-0.72624-0.03572-1.0358-0.25002-1.4644-1.262-1.9287-2.1549-1.9287zm-1.643 2.3097c0.17858-1.2858 1.0001-1.6549 1.5834-1.6549 0.88101 0 1.512 0.77386 1.4048 1.6549z"/><path d="m53.051-4.536c-0.4286-0.63099-1.1548-1.012-2.0358-1.012-1.5953 0-2.7264 1.2025-2.7264 2.8335 0 1.643 1.131 2.8573 2.6787 2.8573 0.75005 0 1.4882-0.30954 2.0001-0.8691l-0.48812-0.57146c-0.36907 0.41669-0.90482 0.6548-1.4406 0.6548-1.0596 0-1.8692-0.88101-1.8692-2.1549 0-1.2382 0.79767-2.012 1.7977-2.012 0.92863 0 1.3691 0.6429 1.4048 0.71433 0.04762 0.083338-0.02381 0.20239 0.07143 0.27383z"/><path d="m55.813-6.8933-0.10715 1.4644h-1.2977l-0.01191 0.70242h1.2739c-0.07143 0.92863-0.10715 1.8573-0.10715 2.774 0 0.48813 0 1.0358 0.32145 1.4882 0.26192 0.35717 0.67861 0.57146 1.2382 0.57146 0.6429 0 1.2739-0.27383 1.7382-0.60718l-0.26192-0.67861c-0.46432 0.34526-0.89291 0.50003-1.2263 0.50003-0.40479 0-0.82148-0.2262-0.91672-0.88101 0-0.047622-0.03572-0.25002-0.03572-1.0477 0-0.70242 0.03572-1.4168 0.10715-2.1192h1.7858v-0.71433h-1.7739s0.08334-0.97625 0.14287-1.2858c0.01191-0.11906 0.10715-0.19049 0.05953-0.32145z"/></g>
	<path d="m289.06 220.49c0.95 0 1.653 0.744 1.653 1.653v48.945c0 0.951-0.703 1.653-1.653 1.653h-75.359c-0.909 0-1.653-0.702-1.653-1.653v-48.945c0-0.909 0.744-1.653 1.653-1.653z" clip-rule="evenodd" fill="#0b2226" fill-opacity=".38431" fill-rule="evenodd"/>
		<path d="m289.06 220.49c0.95 0 1.653 0.744 1.653 1.653v48.945c0 0.951-0.703 1.653-1.653 1.653v0h-75.359v0c-0.909 0-1.653-0.702-1.653-1.653v-48.945c0-0.909 0.744-1.653 1.653-1.653v0z" fill="none" stroke="#6fb9e9" stroke-linecap="round" stroke-linejoin="round" stroke-miterlimit="10" stroke-width=".6614"/>
	<g transform="matrix(.9994 0 0 1 224.61 236.37)" fill="#e9e66f" aria-label="Component"><path d="m3.2978-7.4767c-1.1548 0-2.8216 0.84529-2.8216 3.8217 0 2.8573 1.5953 3.7859 2.8216 3.7859 0.88101 0 1.7025-0.46431 2.1668-1.2263l-0.60718-0.39288c-0.34526 0.55956-0.94053 0.89291-1.512 0.89291-1.0953 0-2.0597-1.131-2.0597-3.1431 0-1.9644 0.94053-3.0716 1.9882-3.0716 0.57146 0 1.1191 0.34526 1.4168 0.8691 0.023811 0.035717 0.047622 0.071433 0.047622 0.11906 0 0.035717-0.011906 0.059527-0.011906 0.095244 0 0.011906 0 0.071433 0.059527 0.10715l0.78576-0.38098c-0.39288-0.89291-1.2858-1.4763-2.2739-1.4763z"/><path d="m11.429-2.6906c0-1.8811-1.1906-2.8573-2.4287-2.8573-1.381 0-2.5716 1.1906-2.5716 2.8811 0 1.6549 1.1786 2.8216 2.5478 2.8216 1.2858 0 2.4525-1.0358 2.4525-2.8454zm-2.4882-2.1311c0.78576 0 1.6191 0.67861 1.6191 2.1668 0 1.3691-0.78576 2.0597-1.5715 2.0597-0.8691 0-1.6549-0.80957-1.6549-2.1549 0-1.3334 0.77386-2.0716 1.6072-2.0716z"/><path d="m12.346 0h0.78576v-3.6193c0-0.26192 0.02381-0.50003 0.17858-0.78576 0.19049-0.35716 0.4286-0.50003 0.6548-0.50003 0.19049 0 0.40479 0.11906 0.50003 0.41669 0.07143 0.2262 0.05953 0.48813 0.05953 0.71433v3.774h0.79767v-3.5955c0-0.28573 0.02381-0.51194 0.2262-0.8572 0.09524-0.14287 0.29764-0.48813 0.63099-0.48813 0.17858 0 0.34526 0.10715 0.4286 0.30954 0.10715 0.2262 0.08334 0.53575 0.08334 0.78576v3.8574h0.80957v-3.8693c0-0.45241 0.0119-0.90482-0.2262-1.2739-0.20239-0.30954-0.54765-0.4286-0.84529-0.4286-0.52384 0-1.012 0.30954-1.2263 0.78576-0.08334-0.45241-0.46431-0.78576-0.95244-0.78576-0.45241 0-0.8691 0.28573-1.1191 0.66671l0.01191-0.53575h-0.79767z"/><path d="m18.561-5.4289 0.01191 7.4171h0.8691v-2.7025c0.36907 0.53575 0.97625 0.8691 1.6311 0.8691 1.1191 0 2.2859-0.94053 2.2859-2.9288 0-1.9168-1.131-2.774-2.2025-2.774-0.70242 0-1.3572 0.35716-1.7263 0.95244v-0.83338zm2.274 0.60718c0.47622 0 1.6311 0.25002 1.6311 2.2263 0 1.7144-1.1191 1.9882-1.6311 1.9882-0.51194 0-1.0358-0.26192-1.2501-0.75005-0.15477-0.36907-0.15477-0.82148-0.15477-1.6072 0-0.45241 0.02381-0.78576 0.14287-1.0715 0.2143-0.48813 0.71433-0.78576 1.262-0.78576z"/><path d="m29.288-2.6906c0-1.8811-1.1906-2.8573-2.4287-2.8573-1.381 0-2.5716 1.1906-2.5716 2.8811 0 1.6549 1.1786 2.8216 2.5478 2.8216 1.2858 0 2.4525-1.0358 2.4525-2.8454zm-2.4882-2.1311c0.78576 0 1.6191 0.67861 1.6191 2.1668 0 1.3691-0.78576 2.0597-1.5715 2.0597-0.8691 0-1.6549-0.80957-1.6549-2.1549 0-1.3334 0.77386-2.0716 1.6072-2.0716z"/><path d="m30.573 0h0.8691v-3.1311c0-0.35716 0.04762-0.63099 0.27383-0.92863 0.20239-0.27383 0.72624-0.76195 1.2977-0.76195 0.27383 0 0.54765 0.11906 0.73814 0.34526 0.29764 0.35717 0.29764 0.82148 0.29764 1.2025v3.274h0.84529v-3.2978c0-0.41669 0-0.8691-0.19049-1.3096-0.27383-0.60718-0.83338-0.95244-1.4525-0.95244-0.73814 0-1.4048 0.47622-1.8096 1.0834v-0.95244h-0.8691z"/><path d="m38.788-5.5599c-1.2977 0-2.5002 0.92863-2.5002 2.9049 0 1.8215 1.131 2.7859 2.6073 2.7859 0.78576 0 1.4882-0.28573 1.9525-0.84529l-0.47622-0.46431c-0.34526 0.40479-0.8691 0.61909-1.4048 0.61909-0.72624 0-1.7858-0.40479-1.8454-2.0358h3.8574c0.03572-0.36907 0.02381-0.72624-0.03572-1.0358-0.25002-1.4644-1.262-1.9287-2.1549-1.9287zm-1.643 2.3097c0.17858-1.2858 1.0001-1.6549 1.5834-1.6549 0.88101 0 1.512 0.77386 1.4048 1.6549z"/><path d="m42.479 0h0.8691v-3.1311c0-0.35716 0.04762-0.63099 0.27383-0.92863 0.20239-0.27383 0.72624-0.76195 1.2977-0.76195 0.27383 0 0.54765 0.11906 0.73814 0.34526 0.29764 0.35717 0.29764 0.82148 0.29764 1.2025v3.274h0.84529v-3.2978c0-0.41669 0-0.8691-0.19049-1.3096-0.27383-0.60718-0.83338-0.95244-1.4525-0.95244-0.73814 0-1.4048 0.47622-1.8096 1.0834v-0.95244h-0.8691z"/><path d="m49.86-6.8933-0.10715 1.4644h-1.2977l-0.01191 0.70242h1.2739c-0.07143 0.92863-0.10715 1.8573-0.10715 2.774 0 0.48813 0 1.0358 0.32145 1.4882 0.26192 0.35717 0.67861 0.57146 1.2382 0.57146 0.6429 0 1.2739-0.27383 1.7382-0.60718l-0.26192-0.67861c-0.46432 0.34526-0.89291 0.50003-1.2263 0.50003-0.40479 0-0.82148-0.2262-0.91672-0.88101 0-0.047622-0.03572-0.25002-0.03572-1.0477 0-0.70242 0.03572-1.4168 0.10715-2.1192h1.7858v-0.71433h-1.7739s0.08334-0.97625 0.14287-1.2858c0.01191-0.11906 0.10715-0.19049 0.05953-0.32145z"/></g>
	<path d="m130.41 339.55c0.95 0 1.652 0.744 1.652 1.653v48.945c0 0.95-0.702 1.653-1.652 1.653h-75.36c-0.909 0-1.652-0.703-1.652-1.653v-48.945c0-0.909 0.744-1.653 1.652-1.653z" clip-rule="evenodd" fill="#0b2226" fill-opacity=".38431" fill-rule="evenodd"/>
		<path d="m130.41 339.55c0.95 0 1.652 0.744 1.652 1.653v48.945c0 0.95-0.702 1.653-1.652 1.653v0h-75.36v0c-0.909 0-1.652-0.703-1.652-1.653v-48.945c0-0.909 0.744-1.653 1.652-1.653v0z" fill="none" stroke="#6fb9e9" stroke-linecap="round" stroke-linejoin="round" stroke-miterlimit="10" stroke-width=".6614"/>
	<g transform="matrix(.9994 0 0 1 65.96 355.42)" fill="#e9e66f" aria-label="Attribute"><path d="m0.16668 0.011906h0.82148l0.72624-2.1787h2.3454l0.82148 2.1668h0.8691l-2.8692-7.5481h-0.095244zm3.7145-2.8216h-2.012l0.96435-2.8216z"/><path d="m8.191-6.8933-0.10715 1.4644h-1.2977l-0.011906 0.70242h1.2739c-0.071433 0.92863-0.10715 1.8573-0.10715 2.774 0 0.48813 0 1.0358 0.32145 1.4882 0.26192 0.35717 0.67861 0.57146 1.2382 0.57146 0.6429 0 1.2739-0.27383 1.7382-0.60718l-0.26192-0.67861c-0.46431 0.34526-0.89291 0.50003-1.2263 0.50003-0.40479 0-0.82148-0.2262-0.91672-0.88101 0-0.047622-0.035716-0.25002-0.035716-1.0477 0-0.70242 0.035716-1.4168 0.10715-2.1192h1.7858v-0.71433h-1.7739s0.083338-0.97625 0.14287-1.2858c0.011906-0.11906 0.10715-0.19049 0.059527-0.32145z"/><path d="m14.144-6.8933-0.10715 1.4644h-1.2977l-0.01191 0.70242h1.2739c-0.07143 0.92863-0.10715 1.8573-0.10715 2.774 0 0.48813 0 1.0358 0.32145 1.4882 0.26192 0.35717 0.67861 0.57146 1.2382 0.57146 0.6429 0 1.2739-0.27383 1.7382-0.60718l-0.26192-0.67861c-0.46432 0.34526-0.89291 0.50003-1.2263 0.50003-0.40479 0-0.82148-0.2262-0.91672-0.88101 0-0.047622-0.03572-0.25002-0.03572-1.0477 0-0.70242 0.03572-1.4168 0.10715-2.1192h1.7858v-0.71433h-1.7739s0.08334-0.97625 0.14287-1.2858c0.01191-0.11906 0.10715-0.19049 0.05953-0.32145z"/><path d="m19.037-5.4289v5.4408h0.8572v-2.643c0-0.33335 0.01191-0.69052 0.38098-1.2739 0.50003-0.78576 1.1429-0.91672 1.5358-0.91672 0.45241 0 0.73814 0.2143 0.89291 0.40479 0.07143 0.095244 0.10715 0.19049 0.20239 0.27383l0.40479-0.82148c-0.34526-0.35716-0.84529-0.59528-1.4525-0.59528-0.79767 0-1.6072 0.40479-1.9644 1.1786l0.03572-1.0477z"/><path d="m25.073-5.4408v0.70242h1.3096v4.0598h-1.381v0.67861h3.524v-0.67861h-1.2739v-4.7622zm1.762-2.3573c-0.34526 0-0.61909 0.27383-0.61909 0.60718 0 0.33335 0.27383 0.60718 0.61909 0.60718 0.34526 0 0.61909-0.27383 0.61909-0.60718 0-0.33335-0.27383-0.60718-0.61909-0.60718z"/><path d="m30.466-7.9172v7.9172h0.55956l0.29764-0.71433c0.35716 0.53575 0.95244 0.8572 1.6072 0.8572 1.1191 0 2.274-0.95244 2.274-2.9288 0-1.893-1.1191-2.774-2.1906-2.774-0.69052 0-1.3334 0.36907-1.6787 0.96435v-3.0478c0-0.071433 0.01191-0.095244 0.07143-0.14287 0.02381-0.011905 0.08334-0.059527 0.07143-0.13096zm2.2501 3.0954c0.51194 0 1.5953 0.29764 1.5953 2.2263 0 1.6549-1.0715 1.9644-1.6072 1.9644-0.36907 0-1.1906-0.14287-1.3334-1.1906-0.03572-0.27383-0.03572-0.59528-0.03572-1.0715 0-0.48813 0.02381-0.84529 0.14287-1.1429 0.20239-0.48813 0.70242-0.78576 1.2382-0.78576z"/><path d="m36.455-5.4289v3.0359c0 0.46431 0 0.94053 0.2143 1.4287 0.30954 0.71433 0.97625 1.1072 1.6906 1.1072 0.67861 0 1.3215-0.36907 1.6787-0.96435l-0.01191 0.40479c0 0.14287 0 0.28573 0.02381 0.41669h0.90482c-0.05953-0.15477-0.07143-0.33335-0.07143-0.48813v-4.9408h-0.8572v2.9883c0 0.41669-0.03572 0.73814-0.2143 1.0715-0.25002 0.46431-0.73814 0.80957-1.262 0.80957-0.41669 0-0.82148-0.23811-1.0358-0.66671-0.19049-0.38098-0.19049-0.80957-0.19049-1.1667v-3.0359z"/><path d="m43.907-6.8933-0.10715 1.4644h-1.2977l-0.01191 0.70242h1.2739c-0.07143 0.92863-0.10715 1.8573-0.10715 2.774 0 0.48813 0 1.0358 0.32145 1.4882 0.26192 0.35717 0.67861 0.57146 1.2382 0.57146 0.6429 0 1.2739-0.27383 1.7382-0.60718l-0.26192-0.67861c-0.46432 0.34526-0.89291 0.50003-1.2263 0.50003-0.40479 0-0.82148-0.2262-0.91672-0.88101 0-0.047622-0.03572-0.25002-0.03572-1.0477 0-0.70242 0.03572-1.4168 0.10715-2.1192h1.7858v-0.71433h-1.7739s0.08334-0.97625 0.14287-1.2858c0.01191-0.11906 0.10715-0.19049 0.05953-0.32145z"/><path d="m50.694-5.5599c-1.2977 0-2.5002 0.92863-2.5002 2.9049 0 1.8215 1.131 2.7859 2.6073 2.7859 0.78576 0 1.4882-0.28573 1.9525-0.84529l-0.47622-0.46431c-0.34526 0.40479-0.8691 0.61909-1.4048 0.61909-0.72624 0-1.7858-0.40479-1.8454-2.0358h3.8574c0.03572-0.36907 0.02381-0.72624-0.03572-1.0358-0.25002-1.4644-1.262-1.9287-2.1549-1.9287zm-1.643 2.3097c0.17858-1.2858 1.0001-1.6549 1.5834-1.6549 0.88101 0 1.512 0.77386 1.4048 1.6549z"/></g>
	<path d="m289.06 339.55c0.95 0 1.653 0.744 1.653 1.653v48.945c0 0.95-0.703 1.653-1.653 1.653h-75.359c-0.909 0-1.653-0.703-1.653-1.653v-48.945c0-0.909 0.744-1.653 1.653-1.653z" clip-rule="evenodd" fill="#3c3c18" fill-opacity=".38431" fill-rule="evenodd"/>
		<path d="m289.06 339.55c0.95 0 1.653 0.744 1.653 1.653v48.945c0 0.95-0.703 1.653-1.653 1.653v0h-75.359v0c-0.909 0-1.653-0.703-1.653-1.653v-48.945c0-0.909 0.744-1.653 1.653-1.653v0z" fill="none" stroke="#e9e66f" stroke-linecap="round" stroke-linejoin="round" stroke-miterlimit="10" stroke-width=".6614"/>
	<g transform="matrix(.9994 0 0 1 224.61 355.42)" fill="#e9e66f" aria-label="GameModel"><path d="m3.2978-7.4886c-0.98816 0-2.8692 0.61909-2.8692 3.8693 0 2.8097 1.5715 3.7383 2.8573 3.7383 0.69052 0 1.4882-0.25002 2.1787-0.77386v-2.893h-2.1073v0.71433h1.3453v1.7739c-0.41669 0.29764-0.89291 0.45241-1.3334 0.45241-0.48813 0-1.012-0.19049-1.4168-0.6548-0.61909-0.70242-0.70242-1.7501-0.70242-2.524 0-0.69052 0.083338-1.3572 0.36907-1.9049 0.38098-0.72624 1.0477-1.0596 1.6668-1.0596 0.66671 0 1.1906 0.36907 1.4168 0.8691 0.035717 0.083338 0.071433 0.17858 0.16668 0.23811l0.58337-0.59528c-0.4286-0.77386-1.2382-1.2501-2.1549-1.2501z"/><path d="m7.0242-4.7979 0.41669 0.54765c0.45241-0.46431 1.0596-0.60718 1.5715-0.60718 0.6429 0 0.96435 0.27383 1.1191 0.52384 0.17858 0.29764 0.16668 0.6548 0.16668 0.94053v0.19049h-0.16668c-0.80957 0-1.6668 0-2.3573 0.25002-0.8572 0.30954-1.2382 0.95244-1.2382 1.5477 0 0.79767 0.69052 1.5477 1.8215 1.5477 0.66671 0 1.3572-0.25002 1.9525-0.73814v0.59528h0.80957v-3.3693c0-0.4405-0.01191-0.8572-0.26192-1.2858-0.35716-0.58337-1.0477-0.89291-1.893-0.89291-0.72624 0-1.4287 0.2262-1.9406 0.75005zm3.3097 2.2501v0.36907c0 0.27383 0 0.63099-0.36907 1.0239-0.20239 0.20239-0.71433 0.6429-1.4287 0.6429-0.72624 0-1.1429-0.46431-1.1429-0.94053 0-0.40479 0.27383-0.84529 0.95244-1.012 0.50003-0.11906 1.2263-0.083338 1.7977-0.083338z"/><path d="m12.346 0h0.78576v-3.6193c0-0.26192 0.02381-0.50003 0.17858-0.78576 0.19049-0.35716 0.4286-0.50003 0.6548-0.50003 0.19049 0 0.40479 0.11906 0.50003 0.41669 0.07143 0.2262 0.05953 0.48813 0.05953 0.71433v3.774h0.79767v-3.5955c0-0.28573 0.02381-0.51194 0.2262-0.8572 0.09524-0.14287 0.29764-0.48813 0.63099-0.48813 0.17858 0 0.34526 0.10715 0.4286 0.30954 0.10715 0.2262 0.08334 0.53575 0.08334 0.78576v3.8574h0.80957v-3.8693c0-0.45241 0.0119-0.90482-0.2262-1.2739-0.20239-0.30954-0.54765-0.4286-0.84529-0.4286-0.52384 0-1.012 0.30954-1.2263 0.78576-0.08334-0.45241-0.46431-0.78576-0.95244-0.78576-0.45241 0-0.8691 0.28573-1.1191 0.66671l0.01191-0.53575h-0.79767z"/><path d="m20.93-5.5599c-1.2977 0-2.5002 0.92863-2.5002 2.9049 0 1.8215 1.131 2.7859 2.6073 2.7859 0.78576 0 1.4882-0.28573 1.9525-0.84529l-0.47622-0.46431c-0.34526 0.40479-0.8691 0.61909-1.4048 0.61909-0.72624 0-1.7858-0.40479-1.8454-2.0358h3.8574c0.03572-0.36907 0.02381-0.72624-0.03572-1.0358-0.25002-1.4644-1.262-1.9287-2.1549-1.9287zm-1.643 2.3097c0.17858-1.2858 1.0001-1.6549 1.5834-1.6549 0.88101 0 1.512 0.77386 1.4048 1.6549z"/><path d="m24.287-7.4171v7.429h0.78576v-5.5599l1.5001 2.9407h0.30954l1.6072-2.9883v5.6075h0.78576v-7.429h-0.61909l-1.8692 3.6312-1.8454-3.6312z"/><path d="m35.24-2.6906c0-1.8811-1.1906-2.8573-2.4287-2.8573-1.381 0-2.5716 1.1906-2.5716 2.8811 0 1.6549 1.1786 2.8216 2.5478 2.8216 1.2858 0 2.4525-1.0358 2.4525-2.8454zm-2.4882-2.1311c0.78576 0 1.6191 0.67861 1.6191 2.1668 0 1.3691-0.78576 2.0597-1.5715 2.0597-0.8691 0-1.6549-0.80957-1.6549-2.1549 0-1.3334 0.77386-2.0716 1.6072-2.0716z"/><path d="m40.133-4.6431c-0.26192-0.55956-0.84529-0.92863-1.5953-0.92863-1.0358 0-2.2978 0.73814-2.2978 2.8097 0 2.012 1.1191 2.893 2.1668 2.893 0.69052 0 1.3334-0.39288 1.6787-1.0001v0.47622c0 0.13096 0.0119 0.26192 0.04762 0.39288h0.8572c-0.04762-0.15477-0.04762-0.33335-0.04762-0.50003l-0.0119-7.0719c0-0.071433 0-0.095244 0.04762-0.16668 0.02381-0.035717 0.07143-0.095244 0.05953-0.17858h-0.90482zm-1.5596-0.2262c0.47622 0 1.1786 0.25002 1.3929 1.0596 0.07143 0.25002 0.09524 0.54765 0.09524 1.1548 0 0.41669-0.02381 0.71433-0.11906 1.0001-0.20239 0.6429-0.77386 1.0239-1.3334 1.0239-0.61909 0-1.5358-0.47622-1.5358-2.262 0-1.5596 0.8691-1.9763 1.5001-1.9763z"/><path d="m44.741-5.5599c-1.2977 0-2.5002 0.92863-2.5002 2.9049 0 1.8215 1.131 2.7859 2.6073 2.7859 0.78576 0 1.4882-0.28573 1.9525-0.84529l-0.47622-0.46431c-0.34526 0.40479-0.8691 0.61909-1.4048 0.61909-0.72624 0-1.7858-0.40479-1.8454-2.0358h3.8574c0.03572-0.36907 0.02381-0.72624-0.03572-1.0358-0.25002-1.4644-1.262-1.9287-2.1549-1.9287zm-1.643 2.3097c0.17858-1.2858 1.0001-1.6549 1.5834-1.6549 0.88101 0 1.512 0.77386 1.4048 1.6549z"/><path d="m48.622-7.9053v0.69052h1.5477v6.5361h-1.6191v0.67861h4.0836v-0.67861h-1.6072v-7.2266z"/></g>
	<path d="m447.72 260.18c0.949 0 1.652 0.744 1.652 1.653v48.945c0 0.95-0.703 1.653-1.652 1.653h-88.582c-0.908 0-1.652-0.703-1.652-1.653v-48.945c0-0.909 0.744-1.653 1.652-1.653z" clip-rule="evenodd" fill="#3c3c18" fill-opacity=".38431" fill-rule="evenodd"/>
		<path d="m447.72 260.18c0.949 0 1.652 0.744 1.652 1.653v48.945c0 0.95-0.703 1.653-1.652 1.653v0h-88.582v0c-0.908 0-1.652-0.703-1.652-1.653v-48.945c0-0.909 0.744-1.653 1.652-1.653v0z" fill="none" stroke="#e9e66f" stroke-linecap="round" stroke-linejoin="round" stroke-miterlimit="10" stroke-width=".6614"/>
	<g transform="matrix(.9994 0 0 1 368.05 276.05)" fill="#e9e66f" aria-label="MageBehavior"><path d="m0.47622-7.4171v7.429h0.78576v-5.5599l1.5001 2.9407h0.30954l1.6072-2.9883v5.6075h0.78576v-7.429h-0.61909l-1.8692 3.6312-1.8454-3.6312z"/><path d="m7.0242-4.7979 0.41669 0.54765c0.45241-0.46431 1.0596-0.60718 1.5715-0.60718 0.6429 0 0.96435 0.27383 1.1191 0.52384 0.17858 0.29764 0.16668 0.6548 0.16668 0.94053v0.19049h-0.16668c-0.80957 0-1.6668 0-2.3573 0.25002-0.8572 0.30954-1.2382 0.95244-1.2382 1.5477 0 0.79767 0.69052 1.5477 1.8215 1.5477 0.66671 0 1.3572-0.25002 1.9525-0.73814v0.59528h0.80957v-3.3693c0-0.4405-0.01191-0.8572-0.26192-1.2858-0.35716-0.58337-1.0477-0.89291-1.893-0.89291-0.72624 0-1.4287 0.2262-1.9406 0.75005zm3.3097 2.2501v0.36907c0 0.27383 0 0.63099-0.36907 1.0239-0.20239 0.20239-0.71433 0.6429-1.4287 0.6429-0.72624 0-1.1429-0.46431-1.1429-0.94053 0-0.40479 0.27383-0.84529 0.95244-1.012 0.50003-0.11906 1.2263-0.083338 1.7977-0.083338z"/><path d="m13.394-3.7383c0-0.6548 0.54765-1.1906 1.2025-1.1906 0.66671 0 1.2025 0.53575 1.2025 1.1906 0 0.6548-0.53575 1.1906-1.2025 1.1906-0.66671 0-1.2025-0.53575-1.2025-1.1906zm1.2501-1.8692c-1.0834 0-2.0239 0.8572-2.0239 1.9168 0 0.59528 0.29764 1.1548 0.79767 1.4763-0.39288 0.33335-0.61909 0.70242-0.61909 1.0477 0 0.2262 0.09524 0.54765 0.4405 0.72624-0.58337 0.36907-0.88101 0.77386-0.88101 1.2025 0 0.59527 0.54765 1.2977 2.4525 1.2977 1.8454 0 2.5121-0.94053 2.5121-1.6668 0-0.47622-0.27383-0.95244-0.84529-1.1786-0.57146-0.23811-1.2263-0.15477-1.8454-0.15477-0.40479 0-0.66671-0.035716-0.77386-0.071433-0.2143-0.059528-0.33335-0.19049-0.33335-0.35716 0-0.28573 0.33335-0.55956 0.39288-0.60718 0.2143 0.083338 0.45241 0.11906 0.69052 0.11906 1.0715 0 1.9525-0.8572 1.9525-1.8573 0-0.33335-0.09524-0.6548-0.27383-0.92863 0.28573-0.16668 0.61909-0.26192 0.95244-0.26192 0.10715 0 0.20239 0.011906 0.30954 0.035717l-0.09524-0.70242c-0.54765-0.047622-1.0953 0.13096-1.512 0.47622-0.34526-0.33335-0.79767-0.51194-1.2977-0.51194zm-0.82148 5.3218c0.20239 0.023811 0.48812 0.047622 0.90482 0.071433 0.40479 0.011906 0.84529-0.023811 1.1548 0.023811 0.50003 0.083338 0.6548 0.39288 0.6548 0.63099 0 0.23811-0.14287 0.52384-0.51194 0.72624-0.40479 0.2143-0.8572 0.23811-1.2263 0.23811-0.25002 0-0.71433-0.011906-1.1191-0.17858-0.4405-0.17858-0.53575-0.47622-0.53575-0.66671 0-0.39288 0.36907-0.67861 0.67861-0.84529z"/><path d="m20.93-5.5599c-1.2977 0-2.5002 0.92863-2.5002 2.9049 0 1.8215 1.131 2.7859 2.6073 2.7859 0.78576 0 1.4882-0.28573 1.9525-0.84529l-0.47622-0.46431c-0.34526 0.40479-0.8691 0.61909-1.4048 0.61909-0.72624 0-1.7858-0.40479-1.8454-2.0358h3.8574c0.03572-0.36907 0.02381-0.72624-0.03572-1.0358-0.25002-1.4644-1.262-1.9287-2.1549-1.9287zm-1.643 2.3097c0.17858-1.2858 1.0001-1.6549 1.5834-1.6549 0.88101 0 1.512 0.77386 1.4048 1.6549z"/><path d="m24.382-7.4171v7.4171h2.0954c0.50003 0 1.012 0 1.5239-0.2143 0.79767-0.34526 1.2382-1.0715 1.2382-1.8334 0-0.8691-0.55956-1.643-1.381-1.9168 0.6548-0.27383 1.0953-0.92863 1.0953-1.6311 0-0.66671-0.38098-1.3096-1.0834-1.6072-0.46431-0.20239-0.92863-0.2143-1.381-0.2143zm0.82148 0.71433h1.1667c0.32145 0 0.6548 0 0.98816 0.13096 0.48812 0.20239 0.75005 0.61909 0.75005 1.0477s-0.25002 0.83338-0.71433 1.0358c-0.34526 0.14287-0.70242 0.14287-1.0358 0.14287h-1.1548zm0 3.0597h1.2144c0.36907 0 0.73814 0.011906 1.1072 0.19049 0.54765 0.25002 0.84529 0.78576 0.84529 1.3215s-0.28573 1.0239-0.79767 1.262c-0.32145 0.14287-0.63099 0.14287-0.95244 0.14287h-1.4168z"/><path d="m32.835-5.5599c-1.2977 0-2.5002 0.92863-2.5002 2.9049 0 1.8215 1.131 2.7859 2.6073 2.7859 0.78576 0 1.4882-0.28573 1.9525-0.84529l-0.47622-0.46431c-0.34526 0.40479-0.8691 0.61909-1.4048 0.61909-0.72624 0-1.7858-0.40479-1.8454-2.0358h3.8574c0.03572-0.36907 0.02381-0.72624-0.03572-1.0358-0.25002-1.4644-1.262-1.9287-2.1549-1.9287zm-1.643 2.3097c0.17858-1.2858 1.0001-1.6549 1.5834-1.6549 0.88101 0 1.512 0.77386 1.4048 1.6549z"/><path d="m36.538 0h0.88101v-3.1311c0-0.35716 0.03572-0.63099 0.26192-0.92863 0.2143-0.27383 0.73814-0.76195 1.3096-0.76195 0.27383 0 0.54765 0.11906 0.73814 0.34526 0.29764 0.35717 0.29764 0.82148 0.29764 1.2025v3.274h0.84529v-3.2978c0-0.41669-0.0119-0.8691-0.20239-1.3096-0.27383-0.60718-0.82148-0.95244-1.4406-0.95244-0.73814 0-1.4168 0.47622-1.8096 1.0834v-3.155c0-0.035717 0-0.071433 0.03572-0.10715 0.03572-0.035717 0.08334-0.071433 0.08334-0.13096 0-0.011905 0-0.023811-0.01191-0.035716h-0.98816z"/><path d="m42.741-4.7979 0.41669 0.54765c0.45241-0.46431 1.0596-0.60718 1.5715-0.60718 0.6429 0 0.96435 0.27383 1.1191 0.52384 0.17858 0.29764 0.16668 0.6548 0.16668 0.94053v0.19049h-0.16668c-0.80957 0-1.6668 0-2.3573 0.25002-0.8572 0.30954-1.2382 0.95244-1.2382 1.5477 0 0.79767 0.69052 1.5477 1.8215 1.5477 0.66671 0 1.3572-0.25002 1.9525-0.73814v0.59528h0.80957v-3.3693c0-0.4405-0.01191-0.8572-0.26192-1.2858-0.35716-0.58337-1.0477-0.89291-1.893-0.89291-0.72624 0-1.4287 0.2262-1.9406 0.75005zm3.3097 2.2501v0.36907c0 0.27383 0 0.63099-0.36907 1.0239-0.20239 0.20239-0.71433 0.6429-1.4287 0.6429-0.72624 0-1.1429-0.46431-1.1429-0.94053 0-0.40479 0.27383-0.84529 0.95244-1.012 0.50003-0.11906 1.2263-0.083338 1.7977-0.083338z"/><path d="m48.086-5.4408 2.1549 5.4884h0.67861l1.3215-3.1073c0.32145-0.76195 0.63099-1.5477 0.80957-2.3811h-0.77386c-0.14287 0.79767-0.4286 1.5477-0.73814 2.262l-0.8691 2.0239-1.5715-3.9764c-0.01191-0.023811-0.02381-0.047622-0.02381-0.071433 0-0.071433 0.05953-0.14287 0.03572-0.23811z"/><path d="m54.837-5.4408v0.70242h1.3096v4.0598h-1.381v0.67861h3.524v-0.67861h-1.2739v-4.7622zm1.762-2.3573c-0.34526 0-0.61909 0.27383-0.61909 0.60718 0 0.33335 0.27383 0.60718 0.61909 0.60718 0.34526 0 0.61909-0.27383 0.61909-0.60718 0-0.33335-0.27383-0.60718-0.61909-0.60718z"/><path d="m65.004-2.6906c0-1.8811-1.1906-2.8573-2.4287-2.8573-1.381 0-2.5716 1.1906-2.5716 2.8811 0 1.6549 1.1786 2.8216 2.5478 2.8216 1.2858 0 2.4525-1.0358 2.4525-2.8454zm-2.4882-2.1311c0.78576 0 1.6191 0.67861 1.6191 2.1668 0 1.3691-0.78576 2.0597-1.5715 2.0597-0.8691 0-1.6549-0.80957-1.6549-2.1549 0-1.3334 0.77386-2.0716 1.6072-2.0716z"/><path d="m66.659-5.4289v5.4408h0.8572v-2.643c0-0.33335 0.0119-0.69052 0.38098-1.2739 0.50003-0.78576 1.1429-0.91672 1.5358-0.91672 0.45241 0 0.73814 0.2143 0.89291 0.40479 0.07143 0.095244 0.10715 0.19049 0.20239 0.27383l0.40479-0.82148c-0.34526-0.35716-0.84529-0.59528-1.4525-0.59528-0.79767 0-1.6072 0.40479-1.9644 1.1786l0.03572-1.0477z"/></g>
	<path d="m447.72 180.81c0.949 0 1.652 0.744 1.652 1.653v48.945c0 0.951-0.703 1.653-1.652 1.653h-88.582c-0.908 0-1.652-0.703-1.652-1.653v-48.945c0-0.909 0.744-1.653 1.652-1.653z" clip-rule="evenodd" fill="#3c3c18" fill-opacity=".38431" fill-rule="evenodd"/>
		<path d="m447.72 180.81c0.949 0 1.652 0.744 1.652 1.653v48.945c0 0.951-0.703 1.653-1.652 1.653v0h-88.582v0c-0.908 0-1.652-0.703-1.652-1.653v-48.945c0-0.909 0.744-1.653 1.652-1.653v0z" fill="none" stroke="#e9e66f" stroke-linecap="round" stroke-linejoin="round" stroke-miterlimit="10" stroke-width=".6614"/>
	<g transform="matrix(.9994 0 0 1 362.11 196.68)" fill="#e9e66f" aria-label="DragonBehavior"><path d="m0.63099-7.4171v7.429h1.5953c0.58337 0 1.0834-0.023811 1.6072-0.29764 1.0596-0.54765 1.643-1.8096 1.643-3.4288 0-1.4287-0.4286-2.6787-1.381-3.2978-0.53575-0.35717-1.0715-0.40479-1.7263-0.40479zm0.78576 0.71433h0.90482c0.46431 0 0.92863 0.023811 1.3929 0.40479 0.69052 0.57146 0.91672 1.6311 0.91672 2.6906 0 1.4168-0.46431 2.2263-1.0596 2.6311-0.46431 0.30954-0.92863 0.33335-1.3929 0.33335h-0.76195z"/><path d="m7.1314-5.4289v5.4408h0.8572v-2.643c0-0.33335 0.011906-0.69052 0.38098-1.2739 0.50003-0.78576 1.1429-0.91672 1.5358-0.91672 0.45241 0 0.73814 0.2143 0.89291 0.40479 0.07143 0.095244 0.10715 0.19049 0.20239 0.27383l0.40479-0.82148c-0.34526-0.35716-0.84529-0.59528-1.4525-0.59528-0.79767 0-1.6072 0.40479-1.9644 1.1786l0.035717-1.0477z"/><path d="m12.977-4.7979 0.41669 0.54765c0.45241-0.46431 1.0596-0.60718 1.5715-0.60718 0.6429 0 0.96435 0.27383 1.1191 0.52384 0.17858 0.29764 0.16668 0.6548 0.16668 0.94053v0.19049h-0.16668c-0.80957 0-1.6668 0-2.3573 0.25002-0.8572 0.30954-1.2382 0.95244-1.2382 1.5477 0 0.79767 0.69052 1.5477 1.8215 1.5477 0.66671 0 1.3572-0.25002 1.9525-0.73814v0.59528h0.80957v-3.3693c0-0.4405-0.01191-0.8572-0.26192-1.2858-0.35716-0.58337-1.0477-0.89291-1.893-0.89291-0.72624 0-1.4287 0.2262-1.9406 0.75005zm3.3097 2.2501v0.36907c0 0.27383 0 0.63099-0.36907 1.0239-0.20239 0.20239-0.71433 0.6429-1.4287 0.6429-0.72624 0-1.1429-0.46431-1.1429-0.94053 0-0.40479 0.27383-0.84529 0.95244-1.012 0.50003-0.11906 1.2263-0.083338 1.7977-0.083338z"/><path d="m19.346-3.7383c0-0.6548 0.54765-1.1906 1.2025-1.1906 0.66671 0 1.2025 0.53575 1.2025 1.1906 0 0.6548-0.53575 1.1906-1.2025 1.1906s-1.2025-0.53575-1.2025-1.1906zm1.2501-1.8692c-1.0834 0-2.0239 0.8572-2.0239 1.9168 0 0.59528 0.29764 1.1548 0.79767 1.4763-0.39288 0.33335-0.61909 0.70242-0.61909 1.0477 0 0.2262 0.09524 0.54765 0.4405 0.72624-0.58337 0.36907-0.88101 0.77386-0.88101 1.2025 0 0.59527 0.54765 1.2977 2.4525 1.2977 1.8454 0 2.5121-0.94053 2.5121-1.6668 0-0.47622-0.27383-0.95244-0.84529-1.1786-0.57146-0.23811-1.2263-0.15477-1.8454-0.15477-0.40479 0-0.66671-0.035716-0.77386-0.071433-0.2143-0.059528-0.33335-0.19049-0.33335-0.35716 0-0.28573 0.33335-0.55956 0.39288-0.60718 0.2143 0.083338 0.45241 0.11906 0.69052 0.11906 1.0715 0 1.9525-0.8572 1.9525-1.8573 0-0.33335-0.09524-0.6548-0.27383-0.92863 0.28573-0.16668 0.61909-0.26192 0.95244-0.26192 0.10715 0 0.20239 0.011906 0.30954 0.035717l-0.09524-0.70242c-0.54765-0.047622-1.0953 0.13096-1.512 0.47622-0.34526-0.33335-0.79767-0.51194-1.2977-0.51194zm-0.82148 5.3218c0.20239 0.023811 0.48813 0.047622 0.90482 0.071433 0.40479 0.011906 0.84529-0.023811 1.1548 0.023811 0.50003 0.083338 0.6548 0.39288 0.6548 0.63099 0 0.23811-0.14287 0.52384-0.51194 0.72624-0.40479 0.2143-0.8572 0.23811-1.2263 0.23811-0.25002 0-0.71433-0.011906-1.1191-0.17858-0.4405-0.17858-0.53575-0.47622-0.53575-0.66671 0-0.39288 0.36907-0.67861 0.67861-0.84529z"/><path d="m29.288-2.6906c0-1.8811-1.1906-2.8573-2.4287-2.8573-1.381 0-2.5716 1.1906-2.5716 2.8811 0 1.6549 1.1786 2.8216 2.5478 2.8216 1.2858 0 2.4525-1.0358 2.4525-2.8454zm-2.4882-2.1311c0.78576 0 1.6191 0.67861 1.6191 2.1668 0 1.3691-0.78576 2.0597-1.5715 2.0597-0.8691 0-1.6549-0.80957-1.6549-2.1549 0-1.3334 0.77386-2.0716 1.6072-2.0716z"/><path d="m30.573 0h0.8691v-3.1311c0-0.35716 0.04762-0.63099 0.27383-0.92863 0.20239-0.27383 0.72624-0.76195 1.2977-0.76195 0.27383 0 0.54765 0.11906 0.73814 0.34526 0.29764 0.35717 0.29764 0.82148 0.29764 1.2025v3.274h0.84529v-3.2978c0-0.41669 0-0.8691-0.19049-1.3096-0.27383-0.60718-0.83338-0.95244-1.4525-0.95244-0.73814 0-1.4048 0.47622-1.8096 1.0834v-0.95244h-0.8691z"/><path d="m36.288-7.4171v7.4171h2.0954c0.50003 0 1.012 0 1.5239-0.2143 0.79767-0.34526 1.2382-1.0715 1.2382-1.8334 0-0.8691-0.55956-1.643-1.381-1.9168 0.6548-0.27383 1.0953-0.92863 1.0953-1.6311 0-0.66671-0.38098-1.3096-1.0834-1.6072-0.46432-0.20239-0.92863-0.2143-1.381-0.2143zm0.82148 0.71433h1.1667c0.32145 0 0.6548 0 0.98816 0.13096 0.48813 0.20239 0.75005 0.61909 0.75005 1.0477s-0.25002 0.83338-0.71433 1.0358c-0.34526 0.14287-0.70242 0.14287-1.0358 0.14287h-1.1548zm0 3.0597h1.2144c0.36907 0 0.73814 0.011906 1.1072 0.19049 0.54765 0.25002 0.84529 0.78576 0.84529 1.3215s-0.28573 1.0239-0.79767 1.262c-0.32145 0.14287-0.63099 0.14287-0.95244 0.14287h-1.4168z"/><path d="m44.741-5.5599c-1.2977 0-2.5002 0.92863-2.5002 2.9049 0 1.8215 1.131 2.7859 2.6073 2.7859 0.78576 0 1.4882-0.28573 1.9525-0.84529l-0.47622-0.46431c-0.34526 0.40479-0.8691 0.61909-1.4048 0.61909-0.72624 0-1.7858-0.40479-1.8454-2.0358h3.8574c0.03572-0.36907 0.02381-0.72624-0.03572-1.0358-0.25002-1.4644-1.262-1.9287-2.1549-1.9287zm-1.643 2.3097c0.17858-1.2858 1.0001-1.6549 1.5834-1.6549 0.88101 0 1.512 0.77386 1.4048 1.6549z"/><path d="m48.443 0h0.88101v-3.1311c0-0.35716 0.03572-0.63099 0.26192-0.92863 0.2143-0.27383 0.73814-0.76195 1.3096-0.76195 0.27383 0 0.54765 0.11906 0.73814 0.34526 0.29764 0.35717 0.29764 0.82148 0.29764 1.2025v3.274h0.84529v-3.2978c0-0.41669-0.0119-0.8691-0.20239-1.3096-0.27383-0.60718-0.82148-0.95244-1.4406-0.95244-0.73814 0-1.4168 0.47622-1.8096 1.0834v-3.155c0-0.035717 0-0.071433 0.03572-0.10715 0.03572-0.035717 0.08334-0.071433 0.08334-0.13096 0-0.011905 0-0.023811-0.0119-0.035716h-0.98816z"/><path d="m54.646-4.7979 0.41669 0.54765c0.45241-0.46431 1.0596-0.60718 1.5715-0.60718 0.6429 0 0.96435 0.27383 1.1191 0.52384 0.17858 0.29764 0.16668 0.6548 0.16668 0.94053v0.19049h-0.16668c-0.80957 0-1.6668 0-2.3573 0.25002-0.8572 0.30954-1.2382 0.95244-1.2382 1.5477 0 0.79767 0.69052 1.5477 1.8215 1.5477 0.66671 0 1.3572-0.25002 1.9525-0.73814v0.59528h0.80957v-3.3693c0-0.4405-0.01191-0.8572-0.26192-1.2858-0.35716-0.58337-1.0477-0.89291-1.893-0.89291-0.72624 0-1.4287 0.2262-1.9406 0.75005zm3.3097 2.2501v0.36907c0 0.27383 0 0.63099-0.36907 1.0239-0.20239 0.20239-0.71433 0.6429-1.4287 0.6429-0.72624 0-1.1429-0.46431-1.1429-0.94053 0-0.40479 0.27383-0.84529 0.95244-1.012 0.50003-0.11906 1.2263-0.083338 1.7977-0.083338z"/><path d="m59.992-5.4408 2.1549 5.4884h0.67861l1.3215-3.1073c0.32145-0.76195 0.63099-1.5477 0.80957-2.3811h-0.77386c-0.14287 0.79767-0.4286 1.5477-0.73814 2.262l-0.8691 2.0239-1.5715-3.9764c-0.0119-0.023811-0.02381-0.047622-0.02381-0.071433 0-0.071433 0.05953-0.14287 0.03572-0.23811z"/><path d="m66.742-5.4408v0.70242h1.3096v4.0598h-1.381v0.67861h3.524v-0.67861h-1.2739v-4.7622zm1.762-2.3573c-0.34526 0-0.61909 0.27383-0.61909 0.60718 0 0.33335 0.27383 0.60718 0.61909 0.60718 0.34526 0 0.61909-0.27383 0.61909-0.60718 0-0.33335-0.27383-0.60718-0.61909-0.60718z"/><path d="m76.91-2.6906c0-1.8811-1.1906-2.8573-2.4287-2.8573-1.381 0-2.5716 1.1906-2.5716 2.8811 0 1.6549 1.1786 2.8216 2.5478 2.8216 1.2858 0 2.4525-1.0358 2.4525-2.8454zm-2.4882-2.1311c0.78576 0 1.6191 0.67861 1.6191 2.1668 0 1.3691-0.78576 2.0597-1.5715 2.0597-0.8691 0-1.6549-0.80957-1.6549-2.1549 0-1.3334 0.77386-2.0716 1.6072-2.0716z"/><path d="m78.564-5.4289v5.4408h0.8572v-2.643c0-0.33335 0.01191-0.69052 0.38098-1.2739 0.50003-0.78576 1.1429-0.91672 1.5358-0.91672 0.45241 0 0.73814 0.2143 0.89291 0.40479 0.07143 0.095244 0.10715 0.19049 0.20239 0.27383l0.40479-0.82148c-0.34526-0.35716-0.84529-0.59528-1.4525-0.59528-0.79767 0-1.6072 0.40479-1.9644 1.1786l0.03572-1.0477z"/></g>
	<path d="m447.72 339.55c0.949 0 1.652 0.744 1.652 1.653v48.945c0 0.95-0.703 1.653-1.652 1.653h-88.582c-0.908 0-1.652-0.703-1.652-1.653v-48.945c0-0.909 0.744-1.653 1.652-1.653z" clip-rule="evenodd" fill="#3c3c18" fill-opacity=".38431" fill-rule="evenodd"/>
		<path d="m447.72 339.55c0.949 0 1.652 0.744 1.652 1.653v48.945c0 0.95-0.703 1.653-1.652 1.653v0h-88.582v0c-0.908 0-1.652-0.703-1.652-1.653v-48.945c0-0.909 0.744-1.653 1.652-1.653v0z" fill="none" stroke="#e9e66f" stroke-linecap="round" stroke-linejoin="round" stroke-miterlimit="10" stroke-width=".6614"/>
	<g transform="matrix(.9994 0 0 1 370.7 355.42)" fill="#e9e66f" aria-label="OrcBehavior"><path d="m5.6075-3.6907c0-0.69052-0.047622-1.6072-0.45241-2.4049-0.48813-0.95244-1.3334-1.3929-2.143-1.3929-1.1072 0-2.6668 0.8572-2.6668 3.774 0 2.9168 1.5358 3.8336 2.6787 3.8336 0.79767 0 1.6549-0.45241 2.143-1.4406 0.39288-0.79767 0.4405-1.7144 0.4405-2.3692zm-2.6311-3.024c0.52384 0 1.1667 0.30954 1.512 1.1786 0.25002 0.61909 0.28573 1.3334 0.28573 1.9525 0 0.48813-0.023811 1.2501-0.33335 1.8811-0.34526 0.72624-0.91672 1.012-1.4168 1.012-0.83338 0-1.8573-0.77386-1.8573-3.1311 0-2.2144 1.0358-2.893 1.8096-2.893z"/><path d="m7.1314-5.4289v5.4408h0.8572v-2.643c0-0.33335 0.011906-0.69052 0.38098-1.2739 0.50003-0.78576 1.1429-0.91672 1.5358-0.91672 0.45241 0 0.73814 0.2143 0.89291 0.40479 0.07143 0.095244 0.10715 0.19049 0.20239 0.27383l0.40479-0.82148c-0.34526-0.35716-0.84529-0.59528-1.4525-0.59528-0.79767 0-1.6072 0.40479-1.9644 1.1786l0.035717-1.0477z"/><path d="m17.334-4.536c-0.4286-0.63099-1.1548-1.012-2.0358-1.012-1.5953 0-2.7264 1.2025-2.7264 2.8335 0 1.643 1.131 2.8573 2.6787 2.8573 0.75005 0 1.4882-0.30954 2.0001-0.8691l-0.48812-0.57146c-0.36907 0.41669-0.90482 0.6548-1.4406 0.6548-1.0596 0-1.8692-0.88101-1.8692-2.1549 0-1.2382 0.79767-2.012 1.7977-2.012 0.92863 0 1.3691 0.6429 1.4048 0.71433 0.04762 0.083338-0.02381 0.20239 0.07143 0.27383z"/><path d="m18.43-7.4171v7.4171h2.0954c0.50003 0 1.012 0 1.5239-0.2143 0.79767-0.34526 1.2382-1.0715 1.2382-1.8334 0-0.8691-0.55956-1.643-1.381-1.9168 0.6548-0.27383 1.0953-0.92863 1.0953-1.6311 0-0.66671-0.38098-1.3096-1.0834-1.6072-0.46431-0.20239-0.92863-0.2143-1.381-0.2143zm0.82148 0.71433h1.1667c0.32145 0 0.6548 0 0.98816 0.13096 0.48812 0.20239 0.75005 0.61909 0.75005 1.0477s-0.25002 0.83338-0.71433 1.0358c-0.34526 0.14287-0.70242 0.14287-1.0358 0.14287h-1.1548zm0 3.0597h1.2144c0.36907 0 0.73814 0.011906 1.1072 0.19049 0.54765 0.25002 0.84529 0.78576 0.84529 1.3215s-0.28573 1.0239-0.79767 1.262c-0.32145 0.14287-0.63099 0.14287-0.95244 0.14287h-1.4168z"/><path d="m26.883-5.5599c-1.2977 0-2.5002 0.92863-2.5002 2.9049 0 1.8215 1.131 2.7859 2.6073 2.7859 0.78576 0 1.4882-0.28573 1.9525-0.84529l-0.47622-0.46431c-0.34526 0.40479-0.8691 0.61909-1.4048 0.61909-0.72624 0-1.7858-0.40479-1.8454-2.0358h3.8574c0.03572-0.36907 0.02381-0.72624-0.03572-1.0358-0.25001-1.4644-1.262-1.9287-2.1549-1.9287zm-1.643 2.3097c0.17858-1.2858 1.0001-1.6549 1.5834-1.6549 0.88101 0 1.512 0.77386 1.4048 1.6549z"/><path d="m30.585 0h0.88101v-3.1311c0-0.35716 0.03572-0.63099 0.26192-0.92863 0.2143-0.27383 0.73814-0.76195 1.3096-0.76195 0.27383 0 0.54765 0.11906 0.73814 0.34526 0.29764 0.35717 0.29764 0.82148 0.29764 1.2025v3.274h0.84529v-3.2978c0-0.41669-0.01191-0.8691-0.20239-1.3096-0.27383-0.60718-0.82148-0.95244-1.4406-0.95244-0.73814 0-1.4168 0.47622-1.8096 1.0834v-3.155c0-0.035717 0-0.071433 0.03572-0.10715 0.03572-0.035717 0.08334-0.071433 0.08334-0.13096 0-0.011905 0-0.023811-0.01191-0.035716h-0.98816z"/><path d="m36.788-4.7979 0.41669 0.54765c0.45241-0.46431 1.0596-0.60718 1.5715-0.60718 0.6429 0 0.96434 0.27383 1.1191 0.52384 0.17858 0.29764 0.16668 0.6548 0.16668 0.94053v0.19049h-0.16668c-0.80957 0-1.6668 0-2.3573 0.25002-0.8572 0.30954-1.2382 0.95244-1.2382 1.5477 0 0.79767 0.69052 1.5477 1.8215 1.5477 0.66671 0 1.3572-0.25002 1.9525-0.73814v0.59528h0.80958v-3.3693c0-0.4405-0.01191-0.8572-0.26192-1.2858-0.35716-0.58337-1.0477-0.89291-1.893-0.89291-0.72624 0-1.4287 0.2262-1.9406 0.75005zm3.3097 2.2501v0.36907c0 0.27383 0 0.63099-0.36907 1.0239-0.20239 0.20239-0.71433 0.6429-1.4287 0.6429-0.72624 0-1.1429-0.46431-1.1429-0.94053 0-0.40479 0.27383-0.84529 0.95244-1.012 0.50003-0.11906 1.2263-0.083338 1.7977-0.083338z"/><path d="m42.134-5.4408 2.1549 5.4884h0.67861l1.3215-3.1073c0.32145-0.76195 0.63099-1.5477 0.80957-2.3811h-0.77386c-0.14287 0.79767-0.4286 1.5477-0.73814 2.262l-0.8691 2.0239-1.5715-3.9764c-0.01191-0.023811-0.02381-0.047622-0.02381-0.071433 0-0.071433 0.05953-0.14287 0.03572-0.23811z"/><path d="m48.884-5.4408v0.70242h1.3096v4.0598h-1.381v0.67861h3.524v-0.67861h-1.2739v-4.7622zm1.762-2.3573c-0.34526 0-0.61909 0.27383-0.61909 0.60718 0 0.33335 0.27383 0.60718 0.61909 0.60718 0.34526 0 0.61909-0.27383 0.61909-0.60718 0-0.33335-0.27383-0.60718-0.61909-0.60718z"/><path d="m59.051-2.6906c0-1.8811-1.1906-2.8573-2.4287-2.8573-1.381 0-2.5716 1.1906-2.5716 2.8811 0 1.6549 1.1786 2.8216 2.5478 2.8216 1.2858 0 2.4525-1.0358 2.4525-2.8454zm-2.4882-2.1311c0.78576 0 1.6191 0.67861 1.6191 2.1668 0 1.3691-0.78576 2.0597-1.5715 2.0597-0.8691 0-1.6549-0.80957-1.6549-2.1549 0-1.3334 0.77386-2.0716 1.6072-2.0716z"/><path d="m60.706-5.4289v5.4408h0.8572v-2.643c0-0.33335 0.0119-0.69052 0.38098-1.2739 0.50003-0.78576 1.1429-0.91672 1.5358-0.91672 0.45241 0 0.73814 0.2143 0.89291 0.40479 0.07143 0.095244 0.10715 0.19049 0.20239 0.27383l0.40479-0.82148c-0.34526-0.35716-0.84529-0.59528-1.4525-0.59528-0.79767 0-1.6072 0.40479-1.9644 1.1786l0.03572-1.0477z"/></g>
	<path d="m302.28 101.44c0.951 0 1.652 0.744 1.652 1.653v48.945c0 0.951-0.701 1.653-1.652 1.653h-88.58c-0.909 0-1.653-0.703-1.653-1.653v-48.945c0-0.909 0.744-1.653 1.653-1.653z" clip-rule="evenodd" fill="#3c3c18" fill-opacity=".38431" fill-rule="evenodd"/>
		<path d="m302.28 101.44c0.951 0 1.652 0.744 1.652 1.653v48.945c0 0.951-0.701 1.653-1.652 1.653v0h-88.58v0c-0.909 0-1.653-0.703-1.653-1.653v-48.945c0-0.909 0.744-1.653 1.653-1.653v0z" fill="none" stroke="#e9e66f" stroke-linecap="round" stroke-linejoin="round" stroke-miterlimit="10" stroke-width=".6614"/>
	<g transform="matrix(.9994 0 0 1 225.27 117.31)" fill="#e9e66f" aria-label="GameManager"><path d="m3.2978-7.4886c-0.98816 0-2.8692 0.61909-2.8692 3.8693 0 2.8097 1.5715 3.7383 2.8573 3.7383 0.69052 0 1.4882-0.25002 2.1787-0.77386v-2.893h-2.1073v0.71433h1.3453v1.7739c-0.41669 0.29764-0.89291 0.45241-1.3334 0.45241-0.48813 0-1.012-0.19049-1.4168-0.6548-0.61909-0.70242-0.70242-1.7501-0.70242-2.524 0-0.69052 0.083338-1.3572 0.36907-1.9049 0.38098-0.72624 1.0477-1.0596 1.6668-1.0596 0.66671 0 1.1906 0.36907 1.4168 0.8691 0.035717 0.083338 0.071433 0.17858 0.16668 0.23811l0.58337-0.59528c-0.4286-0.77386-1.2382-1.2501-2.1549-1.2501z"/><path d="m7.0242-4.7979 0.41669 0.54765c0.45241-0.46431 1.0596-0.60718 1.5715-0.60718 0.6429 0 0.96435 0.27383 1.1191 0.52384 0.17858 0.29764 0.16668 0.6548 0.16668 0.94053v0.19049h-0.16668c-0.80957 0-1.6668 0-2.3573 0.25002-0.8572 0.30954-1.2382 0.95244-1.2382 1.5477 0 0.79767 0.69052 1.5477 1.8215 1.5477 0.66671 0 1.3572-0.25002 1.9525-0.73814v0.59528h0.80957v-3.3693c0-0.4405-0.01191-0.8572-0.26192-1.2858-0.35716-0.58337-1.0477-0.89291-1.893-0.89291-0.72624 0-1.4287 0.2262-1.9406 0.75005zm3.3097 2.2501v0.36907c0 0.27383 0 0.63099-0.36907 1.0239-0.20239 0.20239-0.71433 0.6429-1.4287 0.6429-0.72624 0-1.1429-0.46431-1.1429-0.94053 0-0.40479 0.27383-0.84529 0.95244-1.012 0.50003-0.11906 1.2263-0.083338 1.7977-0.083338z"/><path d="m12.346 0h0.78576v-3.6193c0-0.26192 0.02381-0.50003 0.17858-0.78576 0.19049-0.35716 0.4286-0.50003 0.6548-0.50003 0.19049 0 0.40479 0.11906 0.50003 0.41669 0.07143 0.2262 0.05953 0.48813 0.05953 0.71433v3.774h0.79767v-3.5955c0-0.28573 0.02381-0.51194 0.2262-0.8572 0.09524-0.14287 0.29764-0.48813 0.63099-0.48813 0.17858 0 0.34526 0.10715 0.4286 0.30954 0.10715 0.2262 0.08334 0.53575 0.08334 0.78576v3.8574h0.80957v-3.8693c0-0.45241 0.0119-0.90482-0.2262-1.2739-0.20239-0.30954-0.54765-0.4286-0.84529-0.4286-0.52384 0-1.012 0.30954-1.2263 0.78576-0.08334-0.45241-0.46431-0.78576-0.95244-0.78576-0.45241 0-0.8691 0.28573-1.1191 0.66671l0.01191-0.53575h-0.79767z"/><path d="m20.93-5.5599c-1.2977 0-2.5002 0.92863-2.5002 2.9049 0 1.8215 1.131 2.7859 2.6073 2.7859 0.78576 0 1.4882-0.28573 1.9525-0.84529l-0.47622-0.46431c-0.34526 0.40479-0.8691 0.61909-1.4048 0.61909-0.72624 0-1.7858-0.40479-1.8454-2.0358h3.8574c0.03572-0.36907 0.02381-0.72624-0.03572-1.0358-0.25002-1.4644-1.262-1.9287-2.1549-1.9287zm-1.643 2.3097c0.17858-1.2858 1.0001-1.6549 1.5834-1.6549 0.88101 0 1.512 0.77386 1.4048 1.6549z"/><path d="m24.287-7.4171v7.429h0.78576v-5.5599l1.5001 2.9407h0.30954l1.6072-2.9883v5.6075h0.78576v-7.429h-0.61909l-1.8692 3.6312-1.8454-3.6312z"/><path d="m30.835-4.7979 0.41669 0.54765c0.45241-0.46431 1.0596-0.60718 1.5715-0.60718 0.6429 0 0.96434 0.27383 1.1191 0.52384 0.17858 0.29764 0.16668 0.6548 0.16668 0.94053v0.19049h-0.16668c-0.80957 0-1.6668 0-2.3573 0.25002-0.8572 0.30954-1.2382 0.95244-1.2382 1.5477 0 0.79767 0.69052 1.5477 1.8215 1.5477 0.66671 0 1.3572-0.25002 1.9525-0.73814v0.59528h0.80957v-3.3693c0-0.4405-0.01191-0.8572-0.26192-1.2858-0.35716-0.58337-1.0477-0.89291-1.893-0.89291-0.72624 0-1.4287 0.2262-1.9406 0.75005zm3.3097 2.2501v0.36907c0 0.27383 0 0.63099-0.36907 1.0239-0.20239 0.20239-0.71433 0.6429-1.4287 0.6429-0.72624 0-1.1429-0.46431-1.1429-0.94053 0-0.40479 0.27383-0.84529 0.95244-1.012 0.50003-0.11906 1.2263-0.083338 1.7977-0.083338z"/><path d="m36.526 0h0.8691v-3.1311c0-0.35716 0.04762-0.63099 0.27383-0.92863 0.20239-0.27383 0.72624-0.76195 1.2977-0.76195 0.27383 0 0.54765 0.11906 0.73814 0.34526 0.29764 0.35717 0.29764 0.82148 0.29764 1.2025v3.274h0.84529v-3.2978c0-0.41669 0-0.8691-0.19049-1.3096-0.27383-0.60718-0.83338-0.95244-1.4525-0.95244-0.73814 0-1.4048 0.47622-1.8096 1.0834v-0.95244h-0.8691z"/><path d="m42.741-4.7979 0.41669 0.54765c0.45241-0.46431 1.0596-0.60718 1.5715-0.60718 0.6429 0 0.96435 0.27383 1.1191 0.52384 0.17858 0.29764 0.16668 0.6548 0.16668 0.94053v0.19049h-0.16668c-0.80957 0-1.6668 0-2.3573 0.25002-0.8572 0.30954-1.2382 0.95244-1.2382 1.5477 0 0.79767 0.69052 1.5477 1.8215 1.5477 0.66671 0 1.3572-0.25002 1.9525-0.73814v0.59528h0.80957v-3.3693c0-0.4405-0.01191-0.8572-0.26192-1.2858-0.35716-0.58337-1.0477-0.89291-1.893-0.89291-0.72624 0-1.4287 0.2262-1.9406 0.75005zm3.3097 2.2501v0.36907c0 0.27383 0 0.63099-0.36907 1.0239-0.20239 0.20239-0.71433 0.6429-1.4287 0.6429-0.72624 0-1.1429-0.46431-1.1429-0.94053 0-0.40479 0.27383-0.84529 0.95244-1.012 0.50003-0.11906 1.2263-0.083338 1.7977-0.083338z"/><path d="m49.11-3.7383c0-0.6548 0.54765-1.1906 1.2025-1.1906 0.66671 0 1.2025 0.53575 1.2025 1.1906 0 0.6548-0.53575 1.1906-1.2025 1.1906s-1.2025-0.53575-1.2025-1.1906zm1.2501-1.8692c-1.0834 0-2.0239 0.8572-2.0239 1.9168 0 0.59528 0.29764 1.1548 0.79767 1.4763-0.39288 0.33335-0.61909 0.70242-0.61909 1.0477 0 0.2262 0.09524 0.54765 0.4405 0.72624-0.58337 0.36907-0.88101 0.77386-0.88101 1.2025 0 0.59527 0.54765 1.2977 2.4525 1.2977 1.8454 0 2.5121-0.94053 2.5121-1.6668 0-0.47622-0.27383-0.95244-0.84529-1.1786-0.57146-0.23811-1.2263-0.15477-1.8454-0.15477-0.40479 0-0.66671-0.035716-0.77386-0.071433-0.2143-0.059528-0.33335-0.19049-0.33335-0.35716 0-0.28573 0.33335-0.55956 0.39288-0.60718 0.2143 0.083338 0.45241 0.11906 0.69052 0.11906 1.0715 0 1.9525-0.8572 1.9525-1.8573 0-0.33335-0.09524-0.6548-0.27383-0.92863 0.28573-0.16668 0.61909-0.26192 0.95244-0.26192 0.10715 0 0.20239 0.011906 0.30954 0.035717l-0.09524-0.70242c-0.54765-0.047622-1.0953 0.13096-1.512 0.47622-0.34526-0.33335-0.79767-0.51194-1.2977-0.51194zm-0.82148 5.3218c0.20239 0.023811 0.48813 0.047622 0.90482 0.071433 0.40479 0.011906 0.84529-0.023811 1.1548 0.023811 0.50003 0.083338 0.6548 0.39288 0.6548 0.63099 0 0.23811-0.14287 0.52384-0.51194 0.72624-0.40479 0.2143-0.8572 0.23811-1.2263 0.23811-0.25002 0-0.71433-0.011906-1.1191-0.17858-0.4405-0.17858-0.53575-0.47622-0.53575-0.66671 0-0.39288 0.36907-0.67861 0.67861-0.84529z"/><path d="m56.646-5.5599c-1.2977 0-2.5002 0.92863-2.5002 2.9049 0 1.8215 1.131 2.7859 2.6073 2.7859 0.78576 0 1.4882-0.28573 1.9525-0.84529l-0.47622-0.46431c-0.34526 0.40479-0.8691 0.61909-1.4048 0.61909-0.72624 0-1.7858-0.40479-1.8454-2.0358h3.8574c0.03572-0.36907 0.02381-0.72624-0.03572-1.0358-0.25002-1.4644-1.262-1.9287-2.1549-1.9287zm-1.643 2.3097c0.17858-1.2858 1.0001-1.6549 1.5834-1.6549 0.88101 0 1.512 0.77386 1.4048 1.6549z"/><path d="m60.706-5.4289v5.4408h0.8572v-2.643c0-0.33335 0.0119-0.69052 0.38098-1.2739 0.50003-0.78576 1.1429-0.91672 1.5358-0.91672 0.45241 0 0.73814 0.2143 0.89291 0.40479 0.07143 0.095244 0.10715 0.19049 0.20239 0.27383l0.40479-0.82148c-0.34526-0.35716-0.84529-0.59528-1.4525-0.59528-0.79767 0-1.6072 0.40479-1.9644 1.1786l0.03572-1.0477z"/></g>
		<line x1="251.72" x2="251.72" y1="154.35" y2="220.49" fill="none" stroke="#d54d47" stroke-linecap="round" stroke-linejoin="bevel" stroke-miterlimit="10" stroke-width="1.3228"/>
	<polygon points="255.68 209.91 251.72 220.49 247.75 209.91" clip-rule="evenodd" fill="#3c3c18" fill-rule="evenodd"/>
		<polygon points="255.68 209.91 251.72 220.49 247.75 209.91" fill="#fff" stroke="#d54d47" stroke-linecap="round" stroke-linejoin="bevel" stroke-miterlimit="10" stroke-width="1.3228"/><g fill="none" stroke-miterlimit="10" stroke-width="1.3228"><g stroke="#9fc9eb"><g stroke-linejoin="round">
	<path d="m543.9 365.34h-5.949m-3.967 0h-5.949m-3.967 0h-5.949m-3.965 0h-5.951m-3.965 0h-5.949m-3.967 0h-5.949m-3.967 0h-5.949m-3.967 0h-5.949m-3.967 0h-5.949m-3.967 0h-4.627"/>
	<path d="m543.9 54.477v5.953m0 3.968v5.953m0 3.968v5.953m0 3.969v5.953m0 3.968v5.953m0 3.968v5.953m0 3.968v5.953m0 3.969v5.953m0 3.968v5.953m0 3.968v5.953m0 3.968v5.953m0 3.969v5.953m0 3.968v5.953m0 3.968v5.953m0 3.969v5.953m0 3.968v5.953m0 3.968v5.953m0 3.968v5.953m0 3.969v5.953m0 3.968v5.953m0 3.968v5.952m0 3.969v5.953m0 3.968v5.953m0 3.969v5.952m0 3.969v5.953m0 3.969v5.952m0 3.969v5.953m0 3.968v5.953m0 3.968v5.952m0 3.969v5.953m0 3.968v5.953m0 3.969v3.307"/>
	<path d="m253.04 54.477h5.95m3.966 0h5.949m3.967 0h5.95m3.966 0h5.949m3.966 0h5.949m3.966 0h5.949m3.967 0h5.949m3.967 0h5.949m3.967 0h5.949m3.967 0h5.949m3.967 0h5.949m3.965 0h5.951m3.965 0h5.949m3.967 0h5.949m3.967 0h5.949m3.967 0h5.949m3.967 0h5.949m3.967 0h5.949m3.966 0h5.951m3.965 0h5.949m3.967 0h5.949m3.967 0h5.949m3.967 0h5.949m3.967 0h5.949m3.967 0h5.949m3.965 0h5.949m3.967 0h5.949m3.967 0h5.949m3.967 0h5.949m3.967 0h3.305"/>
	<path d="m253.04 101.44v-5.953m0-3.969v-5.953m0-3.968v-5.953m0-3.968v-5.953m0-3.969v-5.952"/>
		</g><path d="m253.04 101.44-3.305-9.921m3.305 9.921 3.306-9.921" stroke-linecap="round" stroke-linejoin="bevel"/></g><g stroke="#d54d47"><g stroke-linejoin="round">
	<path d="m403.1 416.93v-5.953m0-3.968v-5.953m0-3.969v-4.63"/>
	<path d="m280.14 416.93h5.95m3.966 0h5.949m3.968 0h5.949m3.965 0h5.949m3.967 0h5.949m3.967 0h5.949m3.967 0h5.949m3.967 0h5.949m3.967 0h5.949m3.965 0h5.951m3.965 0h5.949m3.967 0h5.949m3.967 0h3.967"/>
	<path d="m280.14 392.46v5.953m0 3.969v5.952m0 3.969v4.63"/>
		</g><path d="m280.14 392.46 3.305 9.922m-3.305-9.922-3.305 9.922" stroke-linecap="round" stroke-linejoin="bevel"/>
		<line x1="369.38" x2="285.43" y1="339.55" y2="273.41" stroke-linecap="round" stroke-linejoin="bevel"/>
	</g></g><polygon points="291.38 283.33 285.43 273.41 296 276.71" clip-rule="evenodd" fill="#fff" fill-rule="evenodd"/>
		<polygon points="291.38 283.33 285.43 273.41 296 276.71" fill="#fff" stroke="#d54d47" stroke-linecap="round" stroke-linejoin="bevel" stroke-miterlimit="10" stroke-width="1.3228"/><g fill="none" stroke-miterlimit="10" stroke-width="1.3228"><g stroke="#9fc9eb"><g stroke-linejoin="round">
	<path d="m522.08 221.82h-5.949m-3.967 0h-5.949m-3.967 0h-5.949m-3.967 0h-5.949m-3.965 0h-5.951m-3.965 0h-5.949m-3.967 0h-5.949m-3.967 0h-2.645"/>
	<path d="m522.08 78.288v5.953m0 3.968v5.953m0 3.968v5.953m0 3.969v5.953m0 3.968v5.953m0 3.968v5.953m0 3.968v5.953m0 3.969v5.953m0 3.968v5.953m0 3.968v5.953m0 3.968v5.953m0 3.969v5.953m0 3.968v5.953m0 3.968v5.953m0 3.969v4.63"/>
	<path d="m274.19 78.288h5.949m3.966 0h5.95m3.966 0h5.95m3.966 0h5.949m3.967 0h5.949m3.967 0h5.949m3.967 0h5.949m3.967 0h5.949m3.967 0h5.949m3.965 0h5.949m3.967 0h5.949m3.967 0h5.949m3.967 0h5.949m3.967 0h5.949m3.967 0h5.949m3.965 0h5.951m3.965 0h5.949m3.967 0h5.949m3.967 0h5.949m3.967 0h5.949m3.967 0h5.949m3.967 0h5.949m3.965 0h5.951m3.965 0h5.949m3.967 0h5.949"/>
	<path d="m274.19 101.44v-5.953m0-3.969v-5.953m0-3.968v-3.307"/>
		</g><path d="m274.19 101.44-3.305-9.921m3.305 9.921 3.305-9.921" stroke-linecap="round" stroke-linejoin="bevel"/></g><g stroke="#d54d47"><g stroke-linejoin="round">
	<path d="m483.08 207.93h-5.949m-3.967 0h-5.949m-3.967 0h-5.949m-3.967 0h-3.305"/>
	<path d="m483.08 446.04v-5.953m0-3.969v-5.952m0-3.969v-5.953m0-3.968v-5.953m0-3.968v-5.952m0-3.969v-5.953m0-3.968v-5.953m0-3.969v-5.952m0-3.969v-5.953m0-3.969v-5.952m0-3.969v-5.953m0-3.968v-5.953m0-3.969v-5.952m0-3.968v-5.953m0-3.968v-5.953m0-3.969v-5.952m0-3.969v-5.953m0-3.969v-5.952m0-3.969v-5.952m0-3.969v-5.953m0-3.969v-5.952m0-3.969v-5.953m0-3.968v-5.953m0-3.968v-5.953"/>
	<path d="m243.12 446.04h5.949m3.966 0h5.95m3.966 0h5.949m3.967 0h5.95m3.966 0h5.949m3.966 0h5.949m3.966 0h5.949m3.967 0h5.949m3.967 0h5.949m3.967 0h5.949m3.967 0h5.949m3.967 0h5.949m3.965 0h5.951m3.965 0h5.949m3.967 0h5.949m3.967 0h5.949m3.967 0h5.949m3.967 0h5.949m3.967 0h5.949m3.966 0h5.951m3.965 0h5.949m3.967 0h5.949m3.967 0h5.949m3.967 0h5.949m3.967 0h1.982"/>
	<path d="m243.12 392.46v5.953m0 3.969v5.952m0 3.969v5.953m0 3.968v5.953m0 3.968v5.952m0 3.969v3.969"/>
		</g><path d="m243.12 392.46 3.305 9.922m-3.305-9.922-3.305 9.922" stroke-linecap="round" stroke-linejoin="bevel"/>
		<line x1="357.48" x2="291.38" y1="219.17" y2="236.37" stroke-linecap="round" stroke-linejoin="bevel"/>
	</g></g><polygon points="302.62 237.69 291.38 236.37 300.63 229.75" clip-rule="evenodd" fill="#fff" fill-rule="evenodd"/>
		<polygon points="302.62 237.69 291.38 236.37 300.63 229.75" fill="#fff" stroke="#d54d47" stroke-linecap="round" stroke-linejoin="bevel" stroke-miterlimit="10" stroke-width="1.3228"/><g fill="none" stroke-miterlimit="10" stroke-width="1.3228"><g stroke="#9fc9eb"><g stroke-linejoin="round">
	<path d="m533.98 301.19h-5.949m-3.967 0h-5.949m-3.965 0h-5.951m-3.965 0h-5.949m-3.967 0h-5.949m-3.967 0h-5.949m-3.967 0h-5.949m-3.967 0h-5.949m-3.967 0h-4.627"/>
	<path d="m533.98 67.044v5.953m0 3.968v5.953m0 3.968v5.953m0 3.969v5.953m0 3.968v5.953m0 3.968v5.953m0 3.968v5.953m0 3.969v5.953m0 3.968v5.953m0 3.968v5.953m0 3.968v5.953m0 3.969v5.953m0 3.968v5.953m0 3.968v5.953m0 3.968v5.953m0 3.969v5.953m0 3.968v5.953m0 3.968v5.953m0 3.968v5.953m0 3.969v5.953m0 3.968v5.953m0 3.969v5.952m0 3.969v5.953m0 3.967v5.953"/>
	<path d="m262.95 67.044h5.949m3.967 0h5.95m3.966 0h5.949m3.966 0h5.949m3.966 0h5.949m3.967 0h5.949m3.967 0h5.949m3.967 0h5.949m3.967 0h5.949m3.967 0h5.949m3.965 0h5.951m3.965 0h5.949m3.967 0h5.949m3.967 0h5.949m3.967 0h5.949m3.967 0h5.949m3.967 0h5.949m3.966 0h5.951m3.965 0h5.949m3.967 0h5.949m3.967 0h5.949m3.967 0h5.949m3.967 0h5.949m3.967 0h5.949m3.965 0h5.949m3.967 0h5.949m3.967 0h5.949m3.967 0h3.305"/>
	<path d="m262.95 101.44v-5.953m0-3.969v-5.953m0-3.968v-5.953m0-3.968v-4.63"/>
		</g><path d="m262.95 101.44-3.305-9.921m3.305 9.921 3.305-9.921" stroke-linecap="round" stroke-linejoin="bevel"/></g><g stroke="#d54d47"><g stroke-linejoin="round">
	<path d="m467.22 285.97h-5.949m-3.967 0h-5.949"/>
	<path d="m467.22 432.81v-5.953m0-3.968v-5.953m0-3.969v-5.952m0-3.969v-5.953m0-3.969v-5.952m0-3.969v-5.952m0-3.969v-5.953m0-3.969v-5.952m0-3.968v-5.953m0-3.968v-5.953m0-3.969v-5.952m0-3.969v-5.953m0-3.968v-5.953m0-3.969v-5.952m0-3.969v-5.953"/>
	<path d="m257.66 432.81h5.95m3.966 0h5.949m3.966 0h5.949m3.967 0h5.95m3.966 0h5.95m3.966 0h5.949m3.965 0h5.951m3.965 0h5.949m3.967 0h5.949m3.967 0h5.949m3.967 0h5.949m3.967 0h5.949m3.967 0h5.949m3.965 0h5.949m3.967 0h5.949m3.967 0h5.949m3.967 0h5.949m3.967 0h5.949m3.967 0h5.949m3.966 0h5.951m3.965 0h5.949m3.967 0h1.322"/>
	<path d="m257.66 392.46v5.953m0 3.969v5.952m0 3.969v5.953m0 3.968v5.953m0 3.968v0.661"/>
		</g><path d="m257.66 392.46 3.305 9.922m-3.305-9.922-3.305 9.922" stroke-linecap="round" stroke-linejoin="bevel"/>
		<line x1="357.48" x2="291.38" y1="274.07" y2="256.87" stroke-linecap="round" stroke-linejoin="bevel"/>
	</g></g><polygon points="300.63 263.48 291.38 256.87 302.62 255.55" clip-rule="evenodd" fill="#fff" fill-rule="evenodd"/>
		<polygon points="300.63 263.48 291.38 256.87 302.62 255.55" fill="#fff" stroke="#d54d47" stroke-linecap="round" stroke-linejoin="bevel" stroke-miterlimit="10" stroke-width="1.3228"/>
		<line x1="212.05" x2="132.73" y1="366" y2="366" fill="none" stroke="#d54d47" stroke-linecap="round" stroke-linejoin="bevel" stroke-miterlimit="10" stroke-width="1.3228"/>
	<polygon points="143.3 369.97 132.73 366 143.3 362.04" clip-rule="evenodd" fill="#fff" fill-rule="evenodd"/>
		<polygon points="143.3 369.97 132.73 366 143.3 362.04" fill="#fff" stroke="#d54d47" stroke-linecap="round" stroke-linejoin="bevel" stroke-miterlimit="10" stroke-width="1.3228"/>
		<line x1="93.063" x2="93.063" y1="339.55" y2="273.41" fill="none" stroke="#d54d47" stroke-linecap="round" stroke-linejoin="bevel" stroke-miterlimit="10" stroke-width="1.3228"/>
	<polygon points="96.369 280.02 93.063 273.41 89.758 280.02 93.063 286.64" clip-rule="evenodd" fill="#fff" fill-rule="evenodd"/>
		<polygon points="96.369 280.02 93.063 273.41 89.758 280.02 93.063 286.64" fill="#fff" stroke="#d54d47" stroke-linecap="round" stroke-linejoin="bevel" stroke-miterlimit="10" stroke-width="1.3228"/>
		<line x1="212.05" x2="132.73" y1="246.95" y2="246.95" fill="none" stroke="#d54d47" stroke-linecap="round" stroke-linejoin="bevel" stroke-miterlimit="10" stroke-width="1.3228"/>
	<polygon points="139.34 243.64 132.73 246.95 139.34 250.26 145.95 246.95" clip-rule="evenodd" fill="#fff" fill-rule="evenodd"/>
		<polygon points="139.34 243.64 132.73 246.95 139.34 250.26 145.95 246.95" fill="#fff" stroke="#d54d47" stroke-linecap="round" stroke-linejoin="bevel" stroke-miterlimit="10" stroke-width="1.3228"/>
	<g transform="matrix(.9994 0 0 1 95.045 334.91)" fill="#e9e66f" aria-label="*"><path d="m2.5359-6.167 0.17858 2.1073-1.9168-0.90482-0.30954 0.77386 2.0597 0.61909-1.5596 1.7858 0.6548 0.52384 1.3334-1.9763 1.2858 1.9644 0.6429-0.51194-1.5001-1.7977 2.0477-0.60718-0.32145-0.73814-1.893 0.8691 0.19049-1.7858c0.011905-0.15477 0.047622-0.17858 0.071433-0.32145z" fill="#e9e66f"/></g>
	<g transform="matrix(.9994 0 0 1 204.12 260.17)" fill="#e9e66f" aria-label="*"><path d="m2.5359-6.167 0.17858 2.1073-1.9168-0.90482-0.30954 0.77386 2.0597 0.61909-1.5596 1.7858 0.6548 0.52384 1.3334-1.9763 1.2858 1.9644 0.6429-0.51194-1.5001-1.7977 2.0477-0.60718-0.32145-0.73814-1.893 0.8691 0.19049-1.7858c0.011905-0.15477 0.047622-0.17858 0.071433-0.32145z" fill="#e9e66f"/></g>
</g>
</svg>
