<svg width="50.809mm" height="29.517mm" version="1.1" viewBox="0 0 50.809 29.517" xmlns="http://www.w3.org/2000/svg">
 <g transform="translate(-20.417 -5.3357)">
  <path d="m29.518 31.749 37.233-8.4117" fill="none" stroke="#e96f6f" stroke-width=".24822"/>
  <path d="m29.518 31.749s23.994-6.7155 37.19-20.371" fill="none" stroke="#786fe9" stroke-width=".24822"/>
  <g fill="#ffc585">
   <rect x="29.518" y="10.968" width=".16548" height="20.685"/>
   <rect transform="rotate(90)" x="31.653" y="-66.916" width=".16548" height="37.398"/>
   <rect x="29.684" y="10.968" width=".33096" height=".16548"/>
   <rect x="29.684" y="15.105" width=".33096" height=".16548"/>
   <rect x="29.684" y="19.242" width=".33096" height=".16548"/>
   <rect x="29.684" y="23.379" width=".33096" height=".16548"/>
   <rect x="29.684" y="27.516" width=".33096" height=".16548"/>
   <rect transform="rotate(90)" x="31.322" y="-33.821" width=".33096" height=".16548"/>
   <rect transform="rotate(90)" x="31.322" y="-37.958" width=".33096" height=".16548"/>
   <rect transform="rotate(90)" x="31.322" y="-42.094" width=".33096" height=".16548"/>
   <rect transform="rotate(90)" x="31.322" y="-46.231" width=".33096" height=".16548"/>
   <rect transform="rotate(90)" x="31.322" y="-50.368" width=".33096" height=".16548"/>
   <rect transform="rotate(90)" x="31.322" y="-54.505" width=".33096" height=".16548"/>
   <rect transform="rotate(90)" x="31.322" y="-58.642" width=".33096" height=".16548"/>
   <rect transform="rotate(90)" x="31.322" y="-62.779" width=".33096" height=".16548"/>
   <rect transform="rotate(90)" x="31.322" y="-66.916" width=".33096" height=".16548"/>
  </g>
  <g fill="#e9e56f" stroke-width=".16548px">
   <g aria-label="10x">
    <path d="m26.269 26.696h-0.07985l-0.27773 0.14407 0.02777 0.0677 0.21524-0.06075v0.83665h-0.20135v0.09547h0.51032v-0.09547h-0.19441z"/>
    <path d="m27.057 26.689c-0.17184 0-0.34889 0.21177-0.34889 0.55719 0 0.35063 0.17879 0.55198 0.35063 0.55198 0.15622 0 0.34195-0.17011 0.34195-0.5433 0-0.36799-0.17705-0.56587-0.34368-0.56587zm0.16837 0.24822-0.38014 0.49296c-0.01562-0.06075-0.0243-0.12845-0.0243-0.20482 0-0.27773 0.12671-0.43048 0.23433-0.43048 0.05902 0 0.12324 0.04687 0.17011 0.14233zm0.03992 0.11456c0.01562 0.06075 0.02257 0.13366 0.02257 0.21871 0 0.30203-0.13018 0.41659-0.22565 0.41659-0.06422 0-0.13018-0.05207-0.17705-0.14754z"/>
    <path d="m28.117 26.984-0.19788 0.29335-0.2083-0.29335h-0.13539l0.27252 0.39055-0.27773 0.4027h0.1406l0.20656-0.30723 0.21871 0.30723h0.14233l-0.29161-0.40617 0.2569-0.38708z"/>
   </g>
   <g aria-label="100x">
    <path d="m25.441 22.724h-0.07985l-0.27773 0.14407 0.02777 0.0677 0.21524-0.06075v0.83665h-0.20135v0.09547h0.51032v-0.09547h-0.19441z"/>
    <path d="m26.229 22.717c-0.17184 0-0.34889 0.21177-0.34889 0.55719 0 0.35063 0.17879 0.55198 0.35063 0.55198 0.15622 0 0.34195-0.17011 0.34195-0.5433 0-0.36799-0.17705-0.56587-0.34369-0.56587zm0.16837 0.24822-0.38014 0.49296c-0.01562-0.06075-0.0243-0.12845-0.0243-0.20482 0-0.27773 0.12671-0.43048 0.23433-0.43048 0.05902 0 0.12324 0.04687 0.17011 0.14233zm0.03992 0.11456c0.01562 0.06075 0.02257 0.13366 0.02257 0.21871 0 0.30203-0.13018 0.41659-0.22565 0.41659-0.06422 0-0.13018-0.05207-0.17705-0.14754z"/>
    <path d="m27.097 22.717c-0.17184 0-0.34889 0.21177-0.34889 0.55719 0 0.35063 0.17879 0.55198 0.35063 0.55198 0.15622 0 0.34195-0.17011 0.34195-0.5433 0-0.36799-0.17705-0.56587-0.34369-0.56587zm0.16837 0.24822-0.38014 0.49296c-0.01562-0.06075-0.0243-0.12845-0.0243-0.20482 0-0.27773 0.12671-0.43048 0.23433-0.43048 0.05902 0 0.12324 0.04687 0.17011 0.14233zm0.03992 0.11456c0.01562 0.06075 0.02257 0.13366 0.02257 0.21871 0 0.30203-0.13018 0.41659-0.22565 0.41659-0.06422 0-0.13018-0.05207-0.17705-0.14754z"/>
    <path d="m28.158 23.012-0.19788 0.29335-0.20829-0.29335h-0.13539l0.27252 0.39055-0.27773 0.4027h0.1406l0.20656-0.30723 0.21871 0.30723h0.14233l-0.29161-0.40617 0.2569-0.38708z"/>
   </g>
   <g aria-label="1000x">
    <path d="m24.614 18.753h-0.07985l-0.27773 0.14407 0.02777 0.0677 0.21524-0.06075v0.83665h-0.20135v0.09547h0.51032v-0.09547h-0.19441z"/>
    <path d="m25.402 18.746c-0.17184 0-0.34889 0.21177-0.34889 0.55719 0 0.35063 0.17879 0.55198 0.35063 0.55198 0.15622 0 0.34195-0.17011 0.34195-0.5433 0-0.36799-0.17705-0.56587-0.34369-0.56587zm0.16837 0.24822-0.38014 0.49296c-0.01562-0.06075-0.0243-0.12845-0.0243-0.20482 0-0.27773 0.12671-0.43048 0.23433-0.43048 0.05902 0 0.12324 0.04687 0.17011 0.14233zm0.03992 0.11456c0.01562 0.06075 0.02257 0.13366 0.02257 0.21871 0 0.30203-0.13018 0.41659-0.22565 0.41659-0.06422 0-0.13018-0.05207-0.17705-0.14754z"/>
    <path d="m26.27 18.746c-0.17184 0-0.34889 0.21177-0.34889 0.55719 0 0.35063 0.17879 0.55198 0.35063 0.55198 0.15622 0 0.34195-0.17011 0.34195-0.5433 0-0.36799-0.17705-0.56587-0.34369-0.56587zm0.16837 0.24822-0.38014 0.49296c-0.01562-0.06075-0.0243-0.12845-0.0243-0.20482 0-0.27773 0.12671-0.43048 0.23433-0.43048 0.05902 0 0.12324 0.04687 0.17011 0.14233zm0.03992 0.11456c0.01562 0.06075 0.02257 0.13366 0.02257 0.21871 0 0.30203-0.13018 0.41659-0.22565 0.41659-0.06422 0-0.13018-0.05207-0.17705-0.14754z"/>
    <path d="m27.138 18.746c-0.17184 0-0.34889 0.21177-0.34889 0.55719 0 0.35063 0.17879 0.55198 0.35063 0.55198 0.15622 0 0.34195-0.17011 0.34195-0.5433 0-0.36799-0.17705-0.56587-0.34369-0.56587zm0.16837 0.24822-0.38014 0.49296c-0.01562-0.06075-0.0243-0.12845-0.0243-0.20482 0-0.27773 0.12671-0.43048 0.23433-0.43048 0.05902 0 0.12324 0.04687 0.17011 0.14233zm0.03992 0.11456c0.01562 0.06075 0.02257 0.13366 0.02257 0.21871 0 0.30203-0.13018 0.41659-0.22565 0.41659-0.06422 0-0.13018-0.05207-0.17705-0.14754z"/>
    <path d="m28.198 19.041-0.19788 0.29335-0.20829-0.29335h-0.13539l0.27252 0.39055-0.27773 0.4027h0.1406l0.20656-0.30723 0.21871 0.30723h0.14233l-0.29161-0.40617 0.2569-0.38708z"/>
   </g>
   <g aria-label="10 000x">
    <path d="m22.959 14.781h-0.07985l-0.27773 0.14407 0.02777 0.06769 0.21524-0.06075v0.83665h-0.20135v0.09547h0.51032v-0.09547h-0.19441z"/>
    <path d="m23.747 14.774c-0.17184 0-0.34889 0.21177-0.34889 0.55719 0 0.35063 0.17879 0.55198 0.35063 0.55198 0.15622 0 0.34195-0.17011 0.34195-0.5433 0-0.36799-0.17705-0.56587-0.34369-0.56587zm0.16837 0.24822-0.38014 0.49296c-0.01562-0.06075-0.0243-0.12845-0.0243-0.20482 0-0.27772 0.12671-0.43048 0.23433-0.43048 0.05902 0 0.12324 0.04687 0.17011 0.14234zm0.03992 0.11456c0.01562 0.06075 0.02257 0.13366 0.02257 0.21871 0 0.30203-0.13018 0.41659-0.22565 0.41659-0.06423 0-0.13018-0.05207-0.17705-0.14754z"/>
    <path d="m25.483 14.774c-0.17184 0-0.34889 0.21177-0.34889 0.55719 0 0.35063 0.17879 0.55198 0.35063 0.55198 0.15622 0 0.34195-0.17011 0.34195-0.5433 0-0.36799-0.17705-0.56587-0.34369-0.56587zm0.16837 0.24822-0.38014 0.49296c-0.01562-0.06075-0.0243-0.12845-0.0243-0.20482 0-0.27772 0.12671-0.43048 0.23433-0.43048 0.05902 0 0.12324 0.04687 0.17011 0.14234zm0.03992 0.11456c0.01562 0.06075 0.02257 0.13366 0.02257 0.21871 0 0.30203-0.13018 0.41659-0.22565 0.41659-0.06422 0-0.13018-0.05207-0.17705-0.14754z"/>
    <path d="m26.351 14.774c-0.17184 0-0.34889 0.21177-0.34889 0.55719 0 0.35063 0.17879 0.55198 0.35063 0.55198 0.15622 0 0.34195-0.17011 0.34195-0.5433 0-0.36799-0.17705-0.56587-0.34369-0.56587zm0.16837 0.24822-0.38014 0.49296c-0.01562-0.06075-0.0243-0.12845-0.0243-0.20482 0-0.27772 0.12671-0.43048 0.23433-0.43048 0.05902 0 0.12324 0.04687 0.17011 0.14234zm0.03992 0.11456c0.01562 0.06075 0.02257 0.13366 0.02257 0.21871 0 0.30203-0.13018 0.41659-0.22565 0.41659-0.06422 0-0.13018-0.05207-0.17705-0.14754z"/>
    <path d="m27.219 14.774c-0.17184 0-0.34889 0.21177-0.34889 0.55719 0 0.35063 0.17879 0.55198 0.35063 0.55198 0.15622 0 0.34195-0.17011 0.34195-0.5433 0-0.36799-0.17705-0.56587-0.34369-0.56587zm0.16837 0.24822-0.38014 0.49296c-0.01562-0.06075-0.0243-0.12845-0.0243-0.20482 0-0.27772 0.12671-0.43048 0.23433-0.43048 0.05902 0 0.12324 0.04687 0.17011 0.14234zm0.03992 0.11456c0.01562 0.06075 0.02257 0.13366 0.02257 0.21871 0 0.30203-0.13018 0.41659-0.22565 0.41659-0.06422 0-0.13018-0.05207-0.17705-0.14754z"/>
    <path d="m28.279 15.069-0.19788 0.29335-0.2083-0.29335h-0.13539l0.27252 0.39055-0.27772 0.4027h0.1406l0.20656-0.30724 0.21871 0.30724h0.14234l-0.29161-0.40617 0.2569-0.38708z"/>
   </g>
   <g aria-label="100 000x">
    <path d="m22.132 10.81h-0.079846l-0.27773 0.14407 0.02777 0.0677 0.21524-0.06075v0.83665h-0.20135v0.09547h0.51032v-0.09547h-0.19441z"/>
    <path d="m22.92 10.803c-0.17184 0-0.34889 0.21177-0.34889 0.55719 0 0.35063 0.17879 0.55198 0.35063 0.55198 0.15622 0 0.34195-0.17011 0.34195-0.5433 0-0.36799-0.17705-0.56587-0.34368-0.56587zm0.16837 0.24822-0.38014 0.49296c-0.01562-0.06075-0.0243-0.12845-0.0243-0.20482 0-0.27773 0.12671-0.43048 0.23433-0.43048 0.05902 0 0.12324 0.04687 0.17011 0.14234zm0.03992 0.11456c0.01562 0.06075 0.02257 0.13366 0.02257 0.21871 0 0.30203-0.13018 0.41659-0.22565 0.41659-0.06422 0-0.13018-0.05207-0.17705-0.14754z"/>
    <path d="m23.788 10.803c-0.17184 0-0.34889 0.21177-0.34889 0.55719 0 0.35063 0.17879 0.55198 0.35063 0.55198 0.15622 0 0.34195-0.17011 0.34195-0.5433 0-0.36799-0.17705-0.56587-0.34369-0.56587zm0.16837 0.24822-0.38014 0.49296c-0.01562-0.06075-0.0243-0.12845-0.0243-0.20482 0-0.27773 0.12671-0.43048 0.23433-0.43048 0.05902 0 0.12324 0.04687 0.17011 0.14234zm0.03992 0.11456c0.01562 0.06075 0.02257 0.13366 0.02257 0.21871 0 0.30203-0.13018 0.41659-0.22565 0.41659-0.06422 0-0.13018-0.05207-0.17705-0.14754z"/>
    <path d="m25.524 10.803c-0.17184 0-0.34889 0.21177-0.34889 0.55719 0 0.35063 0.17879 0.55198 0.35063 0.55198 0.15622 0 0.34195-0.17011 0.34195-0.5433 0-0.36799-0.17705-0.56587-0.34369-0.56587zm0.16837 0.24822-0.38014 0.49296c-0.01562-0.06075-0.0243-0.12845-0.0243-0.20482 0-0.27773 0.12671-0.43048 0.23433-0.43048 0.05902 0 0.12324 0.04687 0.17011 0.14234zm0.03992 0.11456c0.01562 0.06075 0.02257 0.13366 0.02257 0.21871 0 0.30203-0.13018 0.41659-0.22565 0.41659-0.06422 0-0.13018-0.05207-0.17705-0.14754z"/>
    <path d="m26.391 10.803c-0.17184 0-0.34889 0.21177-0.34889 0.55719 0 0.35063 0.17879 0.55198 0.35063 0.55198 0.15622 0 0.34195-0.17011 0.34195-0.5433 0-0.36799-0.17705-0.56587-0.34369-0.56587zm0.16837 0.24822-0.38014 0.49296c-0.01562-0.06075-0.0243-0.12845-0.0243-0.20482 0-0.27773 0.12671-0.43048 0.23433-0.43048 0.05902 0 0.12324 0.04687 0.17011 0.14234zm0.03992 0.11456c0.01562 0.06075 0.02257 0.13366 0.02257 0.21871 0 0.30203-0.13018 0.41659-0.22565 0.41659-0.06422 0-0.13018-0.05207-0.17705-0.14754z"/>
    <path d="m27.259 10.803c-0.17184 0-0.34889 0.21177-0.34889 0.55719 0 0.35063 0.17879 0.55198 0.35063 0.55198 0.15622 0 0.34195-0.17011 0.34195-0.5433 0-0.36799-0.17705-0.56587-0.34368-0.56587zm0.16837 0.24822-0.38014 0.49296c-0.01562-0.06075-0.0243-0.12845-0.0243-0.20482 0-0.27773 0.12671-0.43048 0.23433-0.43048 0.05902 0 0.12324 0.04687 0.17011 0.14234zm0.03992 0.11456c0.01562 0.06075 0.02257 0.13366 0.02257 0.21871 0 0.30203-0.13018 0.41659-0.22565 0.41659-0.06422 0-0.13018-0.05207-0.17705-0.14754z"/>
    <path d="m28.32 11.098-0.19788 0.29335-0.2083-0.29335h-0.13539l0.27252 0.39055-0.27773 0.4027h0.1406l0.20656-0.30723 0.21871 0.30723h0.14234l-0.29161-0.40617 0.2569-0.38708z"/>
   </g>
   <g aria-label="Time">
    <path d="m45.649 32.752v0.10936h0.3055v0.97378h0.12324v-0.97378h0.31938v-0.10936z"/>
    <path d="m46.647 33.04v0.10241h0.19094v0.5919h-0.20135v0.09894h0.51379v-0.09894h-0.18573v-0.69431zm0.2569-0.34369c-0.05034 0-0.09026 0.03992-0.09026 0.08853 0 0.0486 0.03992 0.08852 0.09026 0.08852s0.09026-0.03992 0.09026-0.08852-0.03992-0.08853-0.09026-0.08853z"/>
    <path d="m47.395 33.833h0.11456v-0.52768c0-0.03819 0.0035-0.0729 0.02604-0.11456 0.02777-0.05207 0.06249-0.0729 0.09547-0.0729 0.02777 0 0.05902 0.01736 0.0729 0.06075 0.01041 0.03298 0.0087 0.07117 0.0087 0.10415v0.55024h0.1163v-0.52421c0-0.04166 0.0035-0.07464 0.03298-0.12498 0.01389-0.02083 0.04339-0.07117 0.092-0.07117 0.02604 0 0.05034 0.01562 0.06249 0.04513 0.01562 0.03298 0.01215 0.07811 0.01215 0.11456v0.5624h0.11803v-0.56413c0-0.06596 0.0017-0.13192-0.03298-0.18573-0.02951-0.04513-0.07985-0.06249-0.12324-0.06249-0.07637 0-0.14754 0.04513-0.17879 0.11456-0.01215-0.06596-0.0677-0.11456-0.13886-0.11456-0.06596 0-0.12671 0.04166-0.16316 0.0972l0.0017-0.07811h-0.1163z"/>
    <path d="m48.647 33.023c-0.1892 0-0.36452 0.13539-0.36452 0.42353 0 0.26558 0.1649 0.40617 0.38014 0.40617 0.11456 0 0.21697-0.04166 0.28467-0.12324l-0.06943-0.0677c-0.05034 0.05902-0.12671 0.09026-0.20482 0.09026-0.10588 0-0.26037-0.05902-0.26905-0.29682h0.5624c0.0052-0.05381 0.0035-0.10588-0.0052-0.15101-0.03645-0.2135-0.18399-0.2812-0.31418-0.2812zm-0.23954 0.33674c0.02604-0.18746 0.14581-0.24128 0.23086-0.24128 0.12845 0 0.22044 0.11283 0.20482 0.24128z"/>
   </g>
   <g aria-label="Moore's law effect">
    <path d="m39.904 6.4215v1.1392h0.12049v-0.85258l0.23003 0.45094h0.04747l0.24646-0.45824v0.85988h0.12049v-1.1392h-0.09493l-0.28663 0.55682-0.28298-0.55682z"/>
    <path d="m41.584 7.1463c0-0.28845-0.18257-0.43816-0.37243-0.43816-0.21178 0-0.39434 0.18257-0.39434 0.44181 0 0.25377 0.18074 0.43268 0.39069 0.43268 0.19717 0 0.37608-0.15883 0.37608-0.43633zm-0.38156-0.32679c0.12049 0 0.24829 0.10406 0.24829 0.33227 0 0.20995-0.12049 0.31584-0.24099 0.31584-0.13327 0-0.25377-0.12414-0.25377-0.33044 0-0.20447 0.11867-0.31766 0.24646-0.31766z"/>
    <path d="m42.497 7.1463c0-0.28845-0.18256-0.43816-0.37243-0.43816-0.21178 0-0.39434 0.18257-0.39434 0.44181 0 0.25377 0.18074 0.43268 0.39069 0.43268 0.19717 0 0.37608-0.15883 0.37608-0.43633zm-0.38156-0.32679c0.12049 0 0.24829 0.10406 0.24829 0.33227 0 0.20995-0.12049 0.31584-0.24099 0.31584-0.13327 0-0.25377-0.12414-0.25377-0.33044 0-0.20447 0.11867-0.31766 0.24646-0.31766z"/>
    <path d="m42.751 6.7264v0.83432h0.13145v-0.40529c0-0.051118 0.0018-0.10589 0.05842-0.19534 0.07668-0.12049 0.17526-0.14058 0.23551-0.14058 0.06937 0 0.11319 0.032862 0.13692 0.062072 0.01095 0.014605 0.01643 0.029211 0.03104 0.04199l0.06207-0.12597c-0.05294-0.05477-0.12962-0.091283-0.22273-0.091283-0.12232 0-0.24646 0.062072-0.30123 0.18074l0.0055-0.16066z"/>
    <path d="m43.954 6.7063c-0.199 0-0.38339 0.1424-0.38339 0.44546 0 0.27932 0.17344 0.4272 0.39982 0.4272 0.12049 0 0.22821-0.043816 0.29941-0.12962l-0.07303-0.071201c-0.05294 0.062072-0.13327 0.094934-0.21543 0.094934-0.11136 0-0.27385-0.062072-0.28298-0.31219h0.59151c0.0055-0.056595 0.0037-0.11136-0.0055-0.15883-0.03834-0.22456-0.19352-0.29576-0.33044-0.29576zm-0.25194 0.35418c0.02738-0.19717 0.15335-0.25377 0.24281-0.25377 0.1351 0 0.23186 0.11867 0.21543 0.25377z"/>
    <path d="m44.978 6.4562c0-0.082154-0.04747-0.11319-0.08216-0.11319-0.03651 0-0.0785 0.02921-0.0785 0.10041 0 0.040164 0.01095 0.076677 0.01095 0.11502 0 0.036513-0.0073 0.071201-0.01826 0.10224l-0.03834 0.12232 0.10041 0.025559 0.04382-0.12232c0.04564-0.12414 0.06207-0.18257 0.06207-0.23003z"/>
    <path d="m46.097 6.8359c-0.07668-0.08398-0.18804-0.12962-0.31219-0.12962-0.19352 0-0.31949 0.10771-0.31949 0.23186 0 0.14605 0.15701 0.199 0.20265 0.21543 0.0712 0.025559 0.16248 0.047467 0.22456 0.076677 0.06938 0.032862 0.08216 0.076677 0.08216 0.10589 0 0.078503-0.09493 0.13145-0.2136 0.13145-0.1424 0-0.23368-0.085806-0.26107-0.11502-0.0055-0.0073-0.0055-0.01278-0.0055-0.020082 0-0.00183 0.0018-0.01278-0.0073-0.016431l-0.07668 0.12962c0.09858 0.091283 0.22638 0.13327 0.35235 0.13327 0.22821 0 0.34687-0.1351 0.34687-0.26107 0-0.056595-0.02373-0.13327-0.12232-0.18804-0.09311-0.052944-0.22821-0.0712-0.30671-0.10954-0.06755-0.032862-0.08216-0.073026-0.08216-0.10224 0-0.065724 0.08216-0.11319 0.17526-0.11319 0.12049 0 0.20082 0.073026 0.23186 0.11502 0.0055 0.00548 0.0037 0.010954 0.0037 0.016431 0 0.010954 0.0073 0.014605 0.01095 0.014605z"/>
    <path d="m47.287 6.3466v0.10589h0.23734v1.0023h-0.24829v0.10406h0.6262v-0.10406h-0.24646v-1.1082z"/>
    <path d="m48.211 6.8231 0.0639 0.08398c0.06938-0.0712 0.16248-0.093108 0.24099-0.093108 0.09858 0 0.14788 0.04199 0.17161 0.080329 0.02739 0.045641 0.02556 0.10041 0.02556 0.14423v0.02921h-0.02556c-0.12414 0-0.25559 0-0.36148 0.038339-0.13145 0.047467-0.18987 0.14605-0.18987 0.23733 0 0.12232 0.10589 0.23733 0.27932 0.23733 0.10224 0 0.20812-0.038339 0.29941-0.11319v0.091283h0.12414v-0.51666c0-0.067549-0.0018-0.13145-0.04016-0.19717-0.054775-0.089457-0.16066-0.13692-0.29028-0.13692-0.11136 0-0.21908 0.034687-0.29758 0.11502zm0.50753 0.34505v0.056595c0 0.04199 0 0.09676-0.0566 0.15701-0.03104 0.031036-0.10954 0.098585-0.21908 0.098585-0.11136 0-0.17526-0.0712-0.17526-0.14423 0-0.062072 0.04199-0.12962 0.14605-0.15518 0.07668-0.018257 0.18804-0.01278 0.27567-0.01278z"/>
    <path d="m48.987 6.7245 0.16796 0.83615h0.11867l0.14605-0.54039 0.15518 0.54039h0.12232c0.0566-0.27567 0.10406-0.555 0.13875-0.83432h-0.12049c0.0037 0.10041-0.0055 0.19352-0.0785 0.66819l-0.17527-0.59151h-0.08033l-0.14422 0.59334-0.12049-0.60247c-0.0037-0.01278-0.0037-0.018256 0.0018-0.032862 0.0018-0.00913 0.0073-0.021908 0.0018-0.036513z"/>
    <path d="m51.256 6.7063c-0.199 0-0.38339 0.1424-0.38339 0.44546 0 0.27932 0.17344 0.4272 0.39982 0.4272 0.12049 0 0.22821-0.043816 0.29941-0.12962l-0.07303-0.071201c-0.05294 0.062072-0.13327 0.094934-0.21543 0.094934-0.11136 0-0.27385-0.062072-0.28298-0.31219h0.59151c0.0055-0.056595 0.0037-0.11136-0.0055-0.15883-0.03834-0.22456-0.19352-0.29576-0.33044-0.29576zm-0.25194 0.35418c0.02739-0.19717 0.15336-0.25377 0.24281-0.25377 0.1351 0 0.23186 0.11867 0.21543 0.25377z"/>
    <path d="m52.324 6.3357c-0.11684 0-0.22638 0.049293-0.2848 0.14423-0.04381 0.069375-0.04564 0.13875-0.04564 0.2136v0.082154h-0.18256v0.10406h0.18256v0.67914h0.12597v-0.67914h0.27202v-0.10406h-0.27202v-0.065723c0-0.060247-0.0018-0.12414 0.02921-0.17891 0.03469-0.062072 0.10041-0.093108 0.16796-0.093108 0.08033 0 0.14788 0.04199 0.18256 0.094934 0.0055 0.00913 0.0055 0.014605 0.0055 0.021908 0 0.01278 0.0091 0.016431 0.01461 0.016431l0.06025-0.12232c-0.06025-0.0712-0.15153-0.11319-0.25559-0.11319z"/>
    <path d="m53.237 6.3357c-0.11684 0-0.22638 0.049293-0.2848 0.14423-0.04382 0.069375-0.04564 0.13875-0.04564 0.2136v0.082154h-0.18257v0.10406h0.18257v0.67914h0.12597v-0.67914h0.27202v-0.10406h-0.27202v-0.065723c0-0.060247-0.0018-0.12414 0.02921-0.17891 0.03469-0.062072 0.10041-0.093108 0.16796-0.093108 0.08033 0 0.14788 0.04199 0.18256 0.094934 0.0055 0.00913 0.0055 0.014605 0.0055 0.021908 0 0.01278 0.0091 0.016431 0.01461 0.016431l0.06025-0.12232c-0.06025-0.0712-0.15153-0.11319-0.25559-0.11319z"/>
    <path d="m53.995 6.7063c-0.199 0-0.38339 0.1424-0.38339 0.44546 0 0.27932 0.17344 0.4272 0.39982 0.4272 0.12049 0 0.22821-0.043816 0.29941-0.12962l-0.07303-0.071201c-0.05294 0.062072-0.13327 0.094934-0.21543 0.094934-0.11136 0-0.27385-0.062072-0.28298-0.31219h0.59151c0.0055-0.056595 0.0037-0.11136-0.0055-0.15883-0.038312-0.22455-0.19349-0.29576-0.33042-0.29576zm-0.25194 0.35418c0.02738-0.19717 0.15336-0.25377 0.24281-0.25377 0.1351 0 0.23186 0.11867 0.21543 0.25377z"/>
    <path d="m55.269 6.8633c-0.065724-0.09676-0.17709-0.15518-0.31219-0.15518-0.24464 0-0.41807 0.18439-0.41807 0.43451 0 0.25194 0.17344 0.43816 0.41077 0.43816 0.11502 0 0.22821-0.047467 0.30671-0.13327l-0.074852-0.087631c-0.05659 0.063898-0.13875 0.10041-0.2209 0.10041-0.16248 0-0.28663-0.1351-0.28663-0.33044 0-0.18987 0.12232-0.30854 0.27567-0.30854 0.1424 0 0.20995 0.098585 0.21543 0.10954 0.0073 0.01278-0.0037 0.031036 0.01095 0.04199z"/>
    <path d="m55.693 6.5018-0.01643 0.22456h-0.199l-0.0018 0.10771h0.19534c-0.01095 0.1424-0.01643 0.2848-0.01643 0.42538 0 0.074852 0 0.15883 0.04929 0.22821 0.04017 0.054769 0.10406 0.087631 0.18987 0.087631 0.09858 0 0.19534-0.04199 0.26654-0.093108l-0.04016-0.10406c-0.0712 0.052944-0.13692 0.076677-0.18804 0.076677-0.06207 0-0.12597-0.034687-0.14058-0.1351 0-0.0073-0.0055-0.038339-0.0055-0.16066 0-0.10771 0.0055-0.21725 0.01643-0.32497h0.27384v-0.10954h-0.27202s0.01278-0.1497 0.02191-0.19717c0.0018-0.018257 0.01643-0.029211 0.0091-0.049293z"/>
   </g>
   <g aria-label="Memory speed">
    <path d="m47.025 28.084v1.0831h0.11456v-0.81061l0.21871 0.42874h0.04513l0.23433-0.43568v0.81756h0.11456v-1.0831h-0.09026l-0.27252 0.52942-0.26905-0.52942z"/>
    <path d="m48.271 28.355c-0.1892 0-0.36452 0.13539-0.36452 0.42353 0 0.26558 0.1649 0.40617 0.38014 0.40617 0.11456 0 0.21697-0.04166 0.28467-0.12324l-0.06943-0.0677c-0.05034 0.05902-0.12671 0.09026-0.20482 0.09026-0.10588 0-0.26037-0.05902-0.26905-0.29682h0.5624c0.0052-0.05381 0.0035-0.10588-0.0052-0.15101-0.03645-0.2135-0.18399-0.2812-0.31418-0.2812zm-0.23954 0.33674c0.02604-0.18746 0.14581-0.24127 0.23086-0.24127 0.12845 0 0.22044 0.11283 0.20482 0.24127z"/>
    <path d="m48.756 29.166h0.11456v-0.52768c0-0.03819 0.0035-0.0729 0.02604-0.11456 0.02777-0.05207 0.06249-0.0729 0.09547-0.0729 0.02777 0 0.05902 0.01736 0.0729 0.06075 0.01042 0.03298 0.0087 0.07117 0.0087 0.10415v0.55024h0.1163v-0.52421c0-0.04166 0.0035-0.07464 0.03298-0.12498 0.01389-0.02083 0.0434-0.07117 0.092-0.07117 0.02604 0 0.05034 0.01562 0.06249 0.04513 0.01562 0.03298 0.01215 0.07811 0.01215 0.11456v0.5624h0.11803v-0.56413c0-0.06596 0.0017-0.13192-0.03298-0.18573-0.02951-0.04513-0.07985-0.06249-0.12324-0.06249-0.07638 0-0.14754 0.04513-0.17879 0.11456-0.01215-0.06596-0.0677-0.11456-0.13886-0.11456-0.06596 0-0.12671 0.04166-0.16316 0.0972l0.0017-0.07811h-0.1163z"/>
    <path d="m50.358 28.774c0-0.27425-0.17358-0.41659-0.3541-0.41659-0.20135 0-0.37493 0.17358-0.37493 0.42006 0 0.24127 0.17184 0.41138 0.37146 0.41138 0.18746 0 0.35757-0.15101 0.35757-0.41485zm-0.36278-0.3107c0.11456 0 0.23607 0.09894 0.23607 0.31591 0 0.19962-0.11456 0.30029-0.22912 0.30029-0.12671 0-0.24128-0.11803-0.24128-0.31418 0-0.19441 0.11283-0.30203 0.23433-0.30203z"/>
    <path d="m50.599 28.374v0.79325h0.12498v-0.38534c0-0.0486 0.0017-0.10068 0.05555-0.18573 0.0729-0.11456 0.16664-0.13366 0.22392-0.13366 0.06596 0 0.10762 0.03124 0.13018 0.05902 0.01041 0.01389 0.01562 0.02777 0.02951 0.03992l0.05902-0.11977c-0.05034-0.05207-0.12324-0.08679-0.21177-0.08679-0.1163 0-0.23433 0.05902-0.2864 0.17184l0.0052-0.15275z"/>
    <path d="m51.373 28.374 0.32286 0.78978-0.02604 0.05728c-0.01389 0.03298-0.02951 0.06596-0.05381 0.092-0.03298 0.03645-0.07464 0.05207-0.11109 0.05207-0.05902 0-0.08853-0.03992-0.09373-0.04687-0.0052-0.0087-0.0035-0.02083-0.01389-0.02951l-0.06422 0.11283c0.04513 0.0434 0.10588 0.06596 0.17184 0.06596 0.07117 0 0.14581-0.02604 0.19788-0.08505 0.03472-0.03992 0.05207-0.08158 0.06943-0.12671l0.24648-0.65439c0.02951-0.07464 0.05554-0.15101 0.07985-0.22912h-0.13018c-0.01389 0.0729-0.03645 0.14233-0.06075 0.21177l-0.15101 0.42527-0.2326-0.58496c-0.0017-0.0052-0.0017-0.0087-0.0017-0.01389 0-0.01215 0.0087-0.02083 0.0069-0.03645z"/>
    <path d="m53.781 28.478c-0.0729-0.07985-0.17879-0.12324-0.29682-0.12324-0.18399 0-0.30376 0.10241-0.30376 0.22044 0 0.13886 0.14928 0.1892 0.19267 0.20482 0.0677 0.0243 0.15448 0.04513 0.2135 0.0729 0.06596 0.03124 0.07811 0.0729 0.07811 0.10068 0 0.07464-0.09026 0.12498-0.20309 0.12498-0.13539 0-0.22218-0.08158-0.24822-0.10936-0.0052-0.0069-0.0052-0.01215-0.0052-0.01909 0-0.0017 0.0017-0.01215-0.0069-0.01562l-0.0729 0.12324c0.09373 0.08679 0.21524 0.12671 0.33501 0.12671 0.21697 0 0.3298-0.12845 0.3298-0.24822 0-0.05381-0.02257-0.12671-0.1163-0.17879-0.08853-0.05034-0.21697-0.0677-0.29161-0.10415-0.06422-0.03124-0.07811-0.06943-0.07811-0.0972 0-0.06249 0.07811-0.10762 0.16664-0.10762 0.11456 0 0.19094 0.06943 0.22044 0.10936 0.0052 0.0052 0.0035 0.01041 0.0035 0.01562 0 0.01041 0.0069 0.01389 0.01042 0.01389z"/>
    <path d="m54.001 28.374 0.0017 1.0814h0.12671v-0.39402c0.05381 0.07811 0.14233 0.12671 0.2378 0.12671 0.16316 0 0.33327-0.13713 0.33327-0.427 0-0.27946-0.1649-0.40444-0.32112-0.40444-0.10241 0-0.19788 0.05207-0.25169 0.13886v-0.1215zm0.33154 0.08853c0.06943 0 0.2378 0.03645 0.2378 0.32459 0 0.24995-0.16316 0.28988-0.2378 0.28988-0.07464 0-0.15101-0.03819-0.18226-0.10935-0.02257-0.05381-0.02257-0.11977-0.02257-0.23433 0-0.06596 0.0035-0.11456 0.02083-0.15622 0.03124-0.07117 0.10415-0.11456 0.18399-0.11456z"/>
    <path d="m55.215 28.355c-0.1892 0-0.36452 0.13539-0.36452 0.42353 0 0.26558 0.1649 0.40617 0.38014 0.40617 0.11456 0 0.21697-0.04166 0.28467-0.12324l-0.06943-0.0677c-0.05034 0.05902-0.12671 0.09026-0.20482 0.09026-0.10588 0-0.26037-0.05902-0.26905-0.29682h0.56239c0.0052-0.05381 0.0035-0.10588-0.0052-0.15101-0.03645-0.2135-0.18399-0.2812-0.31418-0.2812zm-0.23954 0.33674c0.02604-0.18746 0.14581-0.24127 0.23086-0.24127 0.12845 0 0.22044 0.11283 0.20482 0.24127z"/>
    <path d="m56.083 28.355c-0.1892 0-0.36452 0.13539-0.36452 0.42353 0 0.26558 0.1649 0.40617 0.38014 0.40617 0.11456 0 0.21697-0.04166 0.28467-0.12324l-0.06943-0.0677c-0.05034 0.05902-0.12671 0.09026-0.20482 0.09026-0.10588 0-0.26037-0.05902-0.26905-0.29682h0.5624c0.0052-0.05381 0.0035-0.10588-0.0052-0.15101-0.03645-0.2135-0.18399-0.2812-0.31418-0.2812zm-0.23954 0.33674c0.02604-0.18746 0.14581-0.24127 0.23086-0.24127 0.12845 0 0.22044 0.11283 0.20482 0.24127z"/>
    <path d="m57.147 28.489c-0.03819-0.08158-0.12324-0.13539-0.2326-0.13539-0.15101 0-0.33501 0.10762-0.33501 0.40965 0 0.29335 0.16316 0.4218 0.31591 0.4218 0.10068 0 0.19441-0.05728 0.24475-0.14581v0.06943c0 0.01909 0.0017 0.03819 0.0069 0.05728h0.12498c-0.0069-0.02257-0.0069-0.0486-0.0069-0.0729l-0.0017-1.0311c0-0.01041 0-0.01389 0.0069-0.0243 0.0035-0.0052 0.01042-0.01389 0.0087-0.02604h-0.13192zm-0.22739-0.03298c0.06943 0 0.17184 0.03645 0.20309 0.15449 0.01042 0.03645 0.01389 0.07985 0.01389 0.16837 0 0.06075-0.0035 0.10415-0.01736 0.14581-0.02951 0.09373-0.11283 0.14928-0.19441 0.14928-0.09026 0-0.22392-0.06943-0.22392-0.3298 0-0.22739 0.12671-0.28814 0.21871-0.28814z"/>
   </g>
   <g aria-label="CPU speed">
    <path d="m44.823 18.81c-0.16837 0-0.41138 0.12324-0.41138 0.55719 0 0.41659 0.2326 0.55198 0.41138 0.55198 0.12845 0 0.24822-0.0677 0.31591-0.17879l-0.08852-0.05728c-0.05034 0.08158-0.13713 0.13018-0.22044 0.13018-0.15969 0-0.30029-0.1649-0.30029-0.45825 0-0.2864 0.13713-0.44783 0.28988-0.44783 0.08332 0 0.16316 0.05034 0.20656 0.12671 0.0035 0.0052 0.0069 0.01042 0.0069 0.01736 0 0.0052-0.0017 0.0087-0.0017 0.01389 0 0.0017 0 0.01041 0.0087 0.01562l0.11456-0.05555c-0.05728-0.13018-0.18746-0.21524-0.33154-0.21524z"/>
    <path d="m45.31 18.819v1.0814h0.12671v-0.47734h0.21177c0.0677 0 0.13192-0.0017 0.19788-0.03472 0.10068-0.05034 0.15275-0.15448 0.15275-0.26384 0-0.10936-0.05207-0.21524-0.15448-0.26731-0.0677-0.03645-0.13539-0.03819-0.20482-0.03819zm0.12671 0.11456h0.20309c0.04513 0 0.08852 0.0017 0.13366 0.02257 0.06596 0.03472 0.10241 0.10415 0.10241 0.17358 0 0.06943-0.03472 0.13366-0.0972 0.1649-0.04166 0.02083-0.08332 0.02257-0.12498 0.02257h-0.21871z"/>
    <path d="m46.164 18.819v0.70994c0 0.07637 0.0017 0.14928 0.04166 0.22392 0.05902 0.11109 0.18052 0.16837 0.30723 0.16837 0.12498 0 0.24648-0.05555 0.30723-0.17011 0.04166-0.07464 0.04339-0.14928 0.04339-0.22912v-0.70299h-0.11456v0.70647c0 0.05555-0.0017 0.10935-0.02777 0.1649-0.03992 0.08332-0.1215 0.12671-0.20656 0.12671-0.08505 0-0.16664-0.04513-0.20482-0.12845-0.02604-0.05207-0.02604-0.10588-0.02604-0.15969v-0.65439c0-0.0069 0-0.01389 0.0069-0.02257 0.0035-0.0052 0.01041-0.01389 0.01041-0.0243 0-0.0017 0-0.0052-0.0017-0.0087z"/>
    <path d="m48.563 19.213c-0.0729-0.07985-0.17879-0.12324-0.29682-0.12324-0.18399 0-0.30376 0.10241-0.30376 0.22044 0 0.13886 0.14928 0.1892 0.19267 0.20482 0.0677 0.0243 0.15448 0.04513 0.2135 0.0729 0.06596 0.03124 0.07811 0.0729 0.07811 0.10068 0 0.07464-0.09026 0.12498-0.20309 0.12498-0.13539 0-0.22218-0.08158-0.24822-0.10935-0.0052-0.0069-0.0052-0.01215-0.0052-0.01909 0-0.0017 0.0017-0.01215-0.0069-0.01562l-0.0729 0.12324c0.09373 0.08679 0.21524 0.12671 0.33501 0.12671 0.21697 0 0.3298-0.12845 0.3298-0.24822 0-0.05381-0.02257-0.12671-0.1163-0.17879-0.08852-0.05034-0.21697-0.0677-0.29161-0.10415-0.06422-0.03124-0.07811-0.06943-0.07811-0.0972 0-0.06249 0.07811-0.10762 0.16664-0.10762 0.11456 0 0.19094 0.06943 0.22044 0.10935 0.0052 0.0052 0.0035 0.01041 0.0035 0.01562 0 0.01042 0.0069 0.01389 0.01042 0.01389z"/>
    <path d="m48.784 19.108 0.0017 1.0814h0.12671v-0.39402c0.05381 0.07811 0.14234 0.12671 0.2378 0.12671 0.16316 0 0.33327-0.13713 0.33327-0.427 0-0.27946-0.1649-0.40444-0.32112-0.40444-0.10241 0-0.19788 0.05207-0.25169 0.13886v-0.1215zm0.33154 0.08853c0.06943 0 0.2378 0.03645 0.2378 0.32459 0 0.24995-0.16316 0.28988-0.2378 0.28988-0.07464 0-0.15101-0.03819-0.18226-0.10935-0.02257-0.05381-0.02257-0.11977-0.02257-0.23433 0-0.06596 0.0035-0.11456 0.02083-0.15622 0.03124-0.07117 0.10415-0.11456 0.18399-0.11456z"/>
    <path d="m49.997 19.089c-0.1892 0-0.36452 0.13539-0.36452 0.42353 0 0.26558 0.1649 0.40617 0.38014 0.40617 0.11456 0 0.21697-0.04166 0.28467-0.12324l-0.06943-0.0677c-0.05034 0.05902-0.12671 0.09026-0.20482 0.09026-0.10588 0-0.26037-0.05902-0.26905-0.29682h0.5624c0.0052-0.05381 0.0035-0.10588-0.0052-0.15101-0.03645-0.2135-0.18399-0.2812-0.31418-0.2812zm-0.23954 0.33674c0.02604-0.18746 0.14581-0.24128 0.23086-0.24128 0.12845 0 0.22044 0.11283 0.20482 0.24128z"/>
    <path d="m50.865 19.089c-0.1892 0-0.36452 0.13539-0.36452 0.42353 0 0.26558 0.1649 0.40617 0.38014 0.40617 0.11456 0 0.21697-0.04166 0.28467-0.12324l-0.06943-0.0677c-0.05034 0.05902-0.12671 0.09026-0.20482 0.09026-0.10588 0-0.26037-0.05902-0.26905-0.29682h0.5624c0.0052-0.05381 0.0035-0.10588-0.0052-0.15101-0.03645-0.2135-0.18399-0.2812-0.31418-0.2812zm-0.23954 0.33674c0.02604-0.18746 0.14581-0.24128 0.23086-0.24128 0.12845 0 0.22044 0.11283 0.20482 0.24128z"/>
    <path d="m51.929 19.223c-0.03819-0.08158-0.12324-0.13539-0.2326-0.13539-0.15101 0-0.33501 0.10762-0.33501 0.40965 0 0.29335 0.16316 0.4218 0.31591 0.4218 0.10068 0 0.19441-0.05728 0.24475-0.14581v0.06943c0 0.01909 0.0017 0.03819 0.0069 0.05728h0.12498c-0.0069-0.02257-0.0069-0.0486-0.0069-0.0729l-0.0017-1.0311c0-0.01041 0-0.01389 0.0069-0.0243 0.0035-0.0052 0.01041-0.01389 0.0087-0.02604h-0.13192zm-0.22739-0.03298c0.06943 0 0.17184 0.03645 0.20309 0.15448 0.01041 0.03645 0.01389 0.07985 0.01389 0.16837 0 0.06075-0.0035 0.10415-0.01736 0.14581-0.02951 0.09373-0.11283 0.14928-0.19441 0.14928-0.09026 0-0.22392-0.06943-0.22392-0.3298 0-0.22739 0.12671-0.28814 0.21871-0.28814z"/>
   </g>
  </g>
  <g transform="matrix(.16548 0 0 .16548 -56.067 -83.514)" fill="#d82fee" fill-rule="evenodd">
   <path d="m679.25 626.36v30h1.5v-30z" color="#000000" color-rendering="auto" image-rendering="auto" shape-rendering="auto" solid-color="#000000" style="isolation:auto;mix-blend-mode:normal;text-decoration-color:#000000;text-decoration-line:none;text-decoration-style:solid;text-indent:0;text-transform:none;white-space:normal"/>
   <path d="m680 658.09-1.5-2.595h3z" stroke="#d82fee" stroke-width=".2pt"/>
   <path d="m680 624.63 1.5 2.595h-3z" stroke="#d82fee" stroke-width=".2pt"/>
  </g>
  <g fill="#e9e56f" stroke-width=".16548px">
   <g aria-label="7%/yr">
    <path d="m66.089 20.968v0.1163h0.46346c-0.05555 0.12845-0.10762 0.2569-0.15796 0.38708-0.0729 0.19094-0.14233 0.38361-0.20656 0.57802h0.13713c0.05207-0.17011 0.10935-0.33848 0.17184-0.50511 0.06249-0.17184 0.13192-0.34021 0.20482-0.50859v-0.0677z"/>
    <path d="m67.498 20.968-0.59885 1.0814h0.11109l0.60579-1.0814zm-0.43568-0.01909c-0.10241 0-0.19267 0.09373-0.19267 0.22739 0 0.13018 0.08853 0.22739 0.19441 0.22739 0.10588 0 0.19441-0.0972 0.19441-0.22565 0-0.13192-0.09026-0.22912-0.19614-0.22912zm-0.0017 0.092c0.02777 0 0.08853 0.01736 0.08853 0.14233 0 0.10068-0.05207 0.12671-0.08679 0.12671-0.03124 0-0.08852-0.02257-0.08852-0.13886 0-0.10415 0.05207-0.13018 0.08679-0.13018zm0.59711 0.80193c0-0.13018-0.08853-0.22565-0.19441-0.22565-0.10415 0-0.19441 0.09547-0.19441 0.22565 0 0.13018 0.08853 0.22565 0.19441 0.22565 0.10588 0 0.19441-0.09547 0.19441-0.22565zm-0.19444-0.1354c0.03645 0 0.09026 0.02777 0.09026 0.13886 0 0.10415-0.05207 0.13366-0.08853 0.13366-0.04166 0-0.092-0.03471-0.092-0.13713 0-0.10588 0.05381-0.13539 0.09026-0.13539z"/>
    <path d="m67.799 22.072 0.10241 0.05207 0.54504-1.1751-0.10241-0.05207z"/>
    <path d="m68.635 21.258 0.32286 0.78978-0.02604 0.05728c-0.01389 0.03298-0.02951 0.06596-0.05381 0.092-0.03298 0.03645-0.07464 0.05207-0.11109 0.05207-0.05902 0-0.08853-0.03992-0.09373-0.04687-0.0052-0.0087-0.0035-0.02083-0.01389-0.02951l-0.06422 0.11283c0.04513 0.0434 0.10588 0.06596 0.17184 0.06596 0.07117 0 0.14581-0.02604 0.19788-0.08505 0.03472-0.03992 0.05207-0.08158 0.06943-0.12671l0.24648-0.65439c0.02951-0.07464 0.05554-0.15101 0.07985-0.22912h-0.13018c-0.01389 0.0729-0.03645 0.14234-0.06075 0.21177l-0.15101 0.42527-0.2326-0.58496c-0.0017-0.0052-0.0017-0.0087-0.0017-0.01389 0-0.01215 0.0087-0.02083 0.0069-0.03645z"/>
    <path d="m69.597 21.258v0.79326h0.12498v-0.38534c0-0.0486 0.0017-0.10068 0.05555-0.18573 0.0729-0.11456 0.16664-0.13366 0.22392-0.13366 0.06596 0 0.10762 0.03124 0.13018 0.05902 0.01042 0.01389 0.01562 0.02777 0.02951 0.03992l0.05902-0.11977c-0.05034-0.05207-0.12324-0.08679-0.21177-0.08679-0.1163 0-0.23433 0.05902-0.2864 0.17184l0.0052-0.15275z"/>
   </g>
   <g aria-label="60%/yr">
    <path d="m65.589 9.3724c-0.13018 0-0.26905 0.079846-0.33674 0.26905-0.03645 0.10241-0.04513 0.22912-0.04513 0.33327 0 0.12671 0.01215 0.2621 0.08158 0.36625 0.06249 0.09547 0.15969 0.14407 0.25516 0.14407 0.1649 0 0.30897-0.13886 0.30897-0.36278 0-0.22392-0.14407-0.3541-0.29682-0.3541-0.09373 0-0.18226 0.050338-0.22912 0.13018 0.0069-0.36972 0.18399-0.41832 0.2621-0.41832 0.07117 0 0.11977 0.038187 0.12671 0.045131 0.01041 0.012151 0.01041 0.027773 0.02604 0.039923l0.08332-0.093732c-0.06249-0.062488-0.14928-0.09894-0.23607-0.09894zm-0.04513 0.50338c0.08679 0 0.19094 0.067696 0.19094 0.25342 0 0.16837-0.09373 0.24822-0.18573 0.24822-0.13192 0-0.23086-0.15448-0.21697-0.35757 0.0486-0.088525 0.13192-0.14407 0.21177-0.14407z"/>
    <path d="m66.395 9.3776c-0.17184 0-0.34889 0.21177-0.34889 0.55719 0 0.35063 0.17879 0.55198 0.35063 0.55198 0.15622 0 0.34195-0.17011 0.34195-0.5433 0-0.36799-0.17705-0.56587-0.34369-0.56587zm0.16837 0.24822-0.38014 0.49296c-0.01562-0.06075-0.0243-0.12845-0.0243-0.20482 0-0.27773 0.12671-0.43048 0.23433-0.43048 0.05902 0 0.12324 0.046866 0.17011 0.14233zm0.03992 0.11456c0.01562 0.060753 0.02257 0.13366 0.02257 0.21871 0 0.30203-0.13018 0.41659-0.22565 0.41659-0.06422 0-0.13018-0.05207-0.17705-0.14754z"/>
    <path d="m67.504 9.3845-0.59885 1.0814h0.11109l0.60579-1.0814zm-0.43568-0.019094c-0.10241 0-0.19267 0.093732-0.19267 0.22739 0 0.13018 0.08853 0.22739 0.19441 0.22739 0.10588 0 0.19441-0.097204 0.19441-0.22565 0-0.13192-0.09026-0.22912-0.19614-0.22912zm-0.0017 0.091997c0.02777 0 0.08853 0.017358 0.08853 0.14233 0 0.10068-0.05207 0.12671-0.08679 0.12671-0.03124 0-0.08853-0.022565-0.08853-0.13886 0-0.10415 0.05207-0.13018 0.08679-0.13018zm0.59711 0.80193c0-0.13018-0.08853-0.22565-0.19441-0.22565-0.10415 0-0.19441 0.09547-0.19441 0.22565 0 0.13018 0.08853 0.22565 0.19441 0.22565 0.10588 0 0.19441-0.09547 0.19441-0.22565zm-0.19441-0.13539c0.03645 0 0.09026 0.02777 0.09026 0.13886 0 0.10415-0.05207 0.13366-0.08853 0.13366-0.04166 0-0.092-0.03472-0.092-0.13713 0-0.10588 0.05381-0.13539 0.09026-0.13539z"/>
    <path d="m67.804 10.489 0.10241 0.05207 0.54504-1.1751-0.10241-0.052074z"/>
    <path d="m68.641 9.6744 0.32286 0.78978-0.02604 0.05728c-0.01389 0.03298-0.02951 0.06596-0.05381 0.092-0.03298 0.03645-0.07464 0.05207-0.11109 0.05207-0.05902 0-0.08853-0.03992-0.09373-0.04687-0.0052-0.0087-0.0035-0.02083-0.01389-0.02951l-0.06422 0.11283c0.04513 0.04339 0.10588 0.06596 0.17184 0.06596 0.07117 0 0.14581-0.02604 0.19788-0.08505 0.03472-0.03992 0.05207-0.08158 0.06943-0.12671l0.24648-0.65439c0.02951-0.074639 0.05555-0.15101 0.07985-0.22912h-0.13018c-0.01389 0.072903-0.03645 0.14233-0.06075 0.21177l-0.15101 0.42527-0.2326-0.58496c-0.0017-0.00521-0.0017-0.00868-0.0017-0.013886 0-0.01215 0.0087-0.020829 0.0069-0.036452z"/>
    <path d="m69.603 9.6744v0.79325h0.12498v-0.38534c0-0.0486 0.0017-0.10068 0.05554-0.18573 0.0729-0.11456 0.16664-0.13366 0.22392-0.13366 0.06596 0 0.10762 0.031244 0.13018 0.059017 0.01041 0.013886 0.01562 0.027773 0.02951 0.039923l0.05902-0.11977c-0.05034-0.052074-0.12324-0.086789-0.21177-0.086789-0.1163 0-0.23433 0.059017-0.2864 0.17184l0.0052-0.15275z"/>
   </g>
   <g aria-label="Gap grows 50% per year">
    <path d="m57.54 21.128c-0.08772 0-0.2547 0.05496-0.2547 0.34348 0 0.24942 0.13951 0.33186 0.25365 0.33186 0.0613 0 0.13211-0.02219 0.1934-0.0687v-0.25682h-0.18706v0.06341h0.11942v0.15747c-0.03699 0.02642-0.07926 0.04016-0.11837 0.04016-0.04333 0-0.08983-0.01691-0.12577-0.05813-0.05496-0.06235-0.06235-0.15536-0.06235-0.22406 0-0.0613 0.0074-0.12048 0.03276-0.1691 0.03382-0.06447 0.093-0.09406 0.14796-0.09406 0.05918 0 0.10569 0.03276 0.12577 0.07715 0.0032 0.0074 0.0063 0.01585 0.0148 0.02114l0.05179-0.05284c-0.03805-0.0687-0.10991-0.11097-0.19129-0.11097z"/>
    <path d="m57.871 21.367 0.03699 0.04862c0.04016-0.04122 0.09406-0.0539 0.13951-0.0539 0.05707 0 0.08561 0.02431 0.09934 0.0465 0.01585 0.02642 0.0148 0.05813 0.0148 0.08349v0.01691h-0.0148c-0.07187 0-0.14796 0-0.20926 0.02219-0.07609 0.02748-0.10991 0.08455-0.10991 0.13739 0 0.07081 0.0613 0.13739 0.1617 0.13739 0.05918 0 0.12048-0.02219 0.17332-0.06553v0.05284h0.07187v-0.29909c0-0.0391-0.0011-0.07609-0.02325-0.11414-0.03171-0.05179-0.093-0.07926-0.16804-0.07926-0.06447 0-0.12682 0.02008-0.17227 0.06658zm0.29381 0.19975v0.03276c0 0.02431 0 0.05601-0.03276 0.09089-0.01797 0.01797-0.06341 0.05707-0.12682 0.05707-0.06447 0-0.10146-0.04122-0.10146-0.08349 0-0.03593 0.02431-0.07504 0.08455-0.08983 0.04439-0.01057 0.10886-0.0074 0.15959-0.0074z"/>
    <path d="m58.367 21.311 0.0011 0.65842h0.07715v-0.23991c0.03276 0.04756 0.08666 0.07715 0.14479 0.07715 0.09934 0 0.20292-0.08349 0.20292-0.25999 0-0.17015-0.1004-0.24625-0.19552-0.24625-0.06235 0-0.12048 0.03171-0.15324 0.08455v-0.07398zm0.20186 0.0539c0.04227 0 0.14479 0.02219 0.14479 0.19763 0 0.15219-0.09934 0.1765-0.14479 0.1765s-0.09195-0.02325-0.11097-0.06658c-0.01374-0.03276-0.01374-0.07292-0.01374-0.14268 0-0.04016 0.0021-0.06975 0.01268-0.09512 0.01902-0.04333 0.06341-0.06975 0.11203-0.06975z"/>
    <path d="m59.494 21.461c0-0.05813 0.04861-0.10569 0.10674-0.10569 0.05918 0 0.10674 0.04756 0.10674 0.10569 0 0.05813-0.04756 0.10569-0.10674 0.10569-0.05919 0-0.10674-0.04756-0.10674-0.10569zm0.11097-0.16593c-0.09617 0-0.17967 0.07609-0.17967 0.17016 0 0.05284 0.02642 0.10252 0.07081 0.13105-0.03488 0.02959-0.05496 0.06236-0.05496 0.093 0 0.02008 0.0085 0.04862 0.0391 0.06447-0.05179 0.03276-0.07821 0.0687-0.07821 0.10674 0 0.05284 0.04862 0.1152 0.21771 0.1152 0.16381 0 0.223-0.08349 0.223-0.14796 0-0.04227-0.02431-0.08455-0.07504-0.10463-0.05073-0.02114-0.10886-0.01374-0.16381-0.01374-0.03593 0-0.05918-0.0032-0.0687-0.0063-0.01902-0.0053-0.02959-0.01691-0.02959-0.03171 0-0.02537 0.02959-0.04967 0.03488-0.0539 0.01902 0.0074 0.04016 0.01057 0.0613 0.01057 0.09512 0 0.17333-0.07609 0.17333-0.16487 0-0.02959-0.0085-0.05813-0.02431-0.08244 0.02537-0.0148 0.05496-0.02325 0.08455-0.02325 0.0095 0 0.01797 0.0011 0.02748 0.0032l-0.0085-0.06236c-0.04861-0.0042-0.09723 0.01162-0.13422 0.04227-0.03065-0.02959-0.07081-0.04545-0.1152-0.04545zm-0.07292 0.47242c0.01797 0.0021 0.04333 0.0042 0.08032 0.0063 0.03593 0.0011 0.07504-0.0021 0.10252 0.0021 0.04439 0.0074 0.05813 0.03488 0.05813 0.05601 0 0.02114-0.01268 0.0465-0.04545 0.06447-0.03593 0.01902-0.07609 0.02114-0.10886 0.02114-0.02219 0-0.06341-0.0011-0.09934-0.01585-0.0391-0.01585-0.04756-0.04228-0.04756-0.05918 0-0.03488 0.03276-0.06024 0.06024-0.07504z"/>
    <path d="m59.994 21.311v0.48299h0.07609v-0.23462c0-0.02959 0.0011-0.0613 0.03382-0.11308 0.04439-0.06975 0.10146-0.08138 0.13634-0.08138 0.04016 0 0.06553 0.01902 0.07926 0.03593 0.0063 0.0085 0.0095 0.01691 0.01797 0.02431l0.03593-0.07292c-0.03065-0.03171-0.07504-0.05284-0.12894-0.05284-0.07081 0-0.14268 0.03593-0.17438 0.10463l0.0032-0.093z"/>
    <path d="m60.904 21.554c0-0.16698-0.10569-0.25365-0.2156-0.25365-0.1226 0-0.22828 0.10569-0.22828 0.25576 0 0.1469 0.10463 0.25048 0.22617 0.25048 0.11414 0 0.21771-0.09195 0.21771-0.25259zm-0.22088-0.18918c0.06975 0 0.14373 0.06024 0.14373 0.19235 0 0.12154-0.06975 0.18284-0.13951 0.18284-0.07715 0-0.1469-0.07187-0.1469-0.19129 0-0.11837 0.0687-0.18389 0.14268-0.18389z"/>
    <path d="m60.963 21.31 0.09723 0.48404h0.0687l0.08455-0.31283 0.08983 0.31283h0.07081c0.03276-0.15959 0.06024-0.32129 0.08032-0.48299h-0.06975c0.0021 0.05813-0.0032 0.11203-0.04545 0.38681l-0.10146-0.34242h-0.0465l-0.08349 0.34348-0.06975-0.34876c-0.0021-0.0074-0.0021-0.01057 0.0011-0.01902 0.0011-0.0053 0.0042-0.01268 0.0011-0.02114z"/>
    <path d="m61.932 21.374c-0.04439-0.04862-0.10886-0.07504-0.18072-0.07504-0.11203 0-0.18495 0.06236-0.18495 0.13422 0 0.08455 0.09089 0.1152 0.11731 0.12471 0.04122 0.0148 0.09406 0.02748 0.12999 0.04439 0.04016 0.01902 0.04756 0.04439 0.04756 0.0613 0 0.04545-0.05496 0.07609-0.12365 0.07609-0.08244 0-0.13528-0.04967-0.15113-0.06658-0.0032-0.0042-0.0032-0.0074-0.0032-0.01163 0-0.0011 0.0011-0.0074-0.0042-0.0095l-0.04439 0.07504c0.05707 0.05284 0.13105 0.07715 0.20397 0.07715 0.13211 0 0.2008-0.07821 0.2008-0.15113 0-0.03276-0.01374-0.07715-0.07081-0.10886-0.0539-0.03065-0.13211-0.04122-0.17755-0.06341-0.0391-0.01902-0.04756-0.04228-0.04756-0.05918 0-0.03805 0.04756-0.06553 0.10146-0.06553 0.06975 0 0.11626 0.04228 0.13422 0.06658 0.0032 0.0032 0.0021 0.0063 0.0021 0.0095 0 0.0063 0.0042 0.0085 0.0063 0.0085z"/>
    <path d="m57.36 22.455-0.02325 0.33502 0.04756 0.01902c0.03171-0.04016 0.07821-0.06236 0.12365-0.06236 0.0687 0 0.13422 0.05284 0.13422 0.15747 0 0.10146-0.06235 0.15642-0.13316 0.15642-0.07081 0-0.11731-0.0539-0.12048-0.06024-0.0042-0.0085 0.0011-0.01902-0.0085-0.02537l-0.06553 0.04967c0.04439 0.06447 0.11731 0.10146 0.19552 0.10146 0.11414 0 0.2082-0.07715 0.2082-0.21983 0-0.14162-0.08878-0.21983-0.19975-0.21983-0.03593 0-0.07292 0.0085-0.10674 0.02536l0.0095-0.19024h0.27267v-0.06658z"/>
    <path d="m58.041 22.451c-0.10463 0-0.21243 0.12894-0.21243 0.33925 0 0.21349 0.10886 0.33608 0.21349 0.33608 0.09512 0 0.2082-0.10357 0.2082-0.3308 0-0.22406-0.1078-0.34454-0.20926-0.34454zm0.10252 0.15113-0.23145 0.30015c-0.0095-0.03699-0.0148-0.07821-0.0148-0.12471 0-0.1691 0.07715-0.2621 0.14268-0.2621 0.03593 0 0.07504 0.02854 0.10357 0.08666zm0.02431 0.06975c0.0095 0.03699 0.01374 0.08138 0.01374 0.13316 0 0.18389-0.07926 0.25365-0.13739 0.25365-0.0391 0-0.07926-0.03171-0.1078-0.08983z"/>
    <path d="m58.717 22.455-0.36462 0.65842h0.06764l0.36884-0.65842zm-0.26527-0.01163c-0.06236 0-0.11731 0.05707-0.11731 0.13845 0 0.07926 0.0539 0.13845 0.11837 0.13845 0.06447 0 0.11837-0.05918 0.11837-0.13739 0-0.08032-0.05496-0.1395-0.11943-0.1395zm-0.0011 0.05601c0.01691 0 0.0539 0.01057 0.0539 0.08666 0 0.0613-0.03171 0.07715-0.05284 0.07715-0.01902 0-0.0539-0.01374-0.0539-0.08455 0-0.06341 0.03171-0.07926 0.05284-0.07926zm0.36356 0.48827c0-0.07926-0.0539-0.13739-0.11837-0.13739-0.06341 0-0.11837 0.05813-0.11837 0.13739 0 0.07926 0.0539 0.13739 0.11837 0.13739 0.06447 0 0.11837-0.05813 0.11837-0.13739zm-0.11837-0.08244c0.02219 0 0.05496 0.01691 0.05496 0.08455 0 0.06341-0.03171 0.08138-0.0539 0.08138-0.02537 0-0.05601-0.02114-0.05601-0.08349 0-0.06447 0.03276-0.08244 0.05496-0.08244z"/>
    <path d="m59.424 22.632 0.0011 0.65842h0.07715v-0.23991c0.03276 0.04756 0.08666 0.07715 0.14479 0.07715 0.09934 0 0.20292-0.08349 0.20292-0.25999 0-0.17016-0.1004-0.24625-0.19552-0.24625-0.06235 0-0.12048 0.03171-0.15324 0.08455v-0.07398zm0.20186 0.0539c0.04228 0 0.14479 0.02219 0.14479 0.19763 0 0.15219-0.09934 0.1765-0.14479 0.1765s-0.09195-0.02325-0.11097-0.06658c-0.01374-0.03276-0.01374-0.07292-0.01374-0.14268 0-0.04016 0.0021-0.06975 0.01268-0.09512 0.01902-0.04333 0.06341-0.06975 0.11203-0.06975z"/>
    <path d="m60.162 22.62c-0.1152 0-0.22194 0.08244-0.22194 0.25787 0 0.1617 0.1004 0.2473 0.23145 0.2473 0.06975 0 0.13211-0.02536 0.17332-0.07504l-0.04228-0.04122c-0.03065 0.03593-0.07715 0.05496-0.12471 0.05496-0.06447 0-0.15853-0.03593-0.16381-0.18072h0.34242c0.0032-0.03276 0.0021-0.06447-0.0032-0.09195-0.02219-0.12999-0.11203-0.17121-0.19129-0.17121zm-0.14585 0.20503c0.01585-0.11414 0.08878-0.1469 0.14056-0.1469 0.07821 0 0.13422 0.0687 0.12471 0.1469z"/>
    <path d="m60.523 22.632v0.48299h0.07609v-0.23462c0-0.02959 0.0011-0.0613 0.03382-0.11308 0.04439-0.06975 0.10146-0.08138 0.13634-0.08138 0.04016 0 0.06553 0.01902 0.07926 0.03593 0.0063 0.0085 0.0095 0.01691 0.01797 0.02431l0.03593-0.07292c-0.03065-0.03171-0.07504-0.05284-0.12894-0.05284-0.07081 0-0.14268 0.03593-0.17438 0.10463l0.0032-0.093z"/>
    <path d="m61.523 22.632 0.19658 0.48087-0.01585 0.03488c-0.0085 0.02008-0.01797 0.04016-0.03276 0.05601-0.02008 0.02219-0.04544 0.03171-0.06764 0.03171-0.03593 0-0.0539-0.02431-0.05707-0.02854-0.0032-0.0053-0.0021-0.01268-0.0085-0.01797l-0.0391 0.0687c0.02748 0.02642 0.06447 0.04016 0.10463 0.04016 0.04333 0 0.08878-0.01585 0.12048-0.05179 0.02114-0.02431 0.03171-0.04967 0.04228-0.07715l0.15007-0.39844c0.01797-0.04544 0.03382-0.09195 0.04861-0.13951h-0.07926c-0.0085 0.04439-0.02219 0.08666-0.03699 0.12894l-0.09195 0.25893-0.14162-0.35616c-0.0011-0.0032-0.0011-0.0053-0.0011-0.0085 0-0.0074 0.0053-0.01268 0.0042-0.02219z"/>
    <path d="m62.276 22.62c-0.1152 0-0.22194 0.08244-0.22194 0.25787 0 0.1617 0.1004 0.2473 0.23145 0.2473 0.06975 0 0.13211-0.02536 0.17332-0.07504l-0.04228-0.04122c-0.03065 0.03593-0.07715 0.05496-0.12471 0.05496-0.06447 0-0.15853-0.03593-0.16381-0.18072h0.34242c0.0032-0.03276 0.0021-0.06447-0.0032-0.09195-0.02219-0.12999-0.11203-0.17121-0.19129-0.17121zm-0.14585 0.20503c0.01585-0.11414 0.08878-0.1469 0.14056-0.1469 0.07821 0 0.13422 0.0687 0.12471 0.1469z"/>
    <path d="m62.627 22.688 0.03699 0.04862c0.04016-0.04122 0.09406-0.0539 0.1395-0.0539 0.05707 0 0.08561 0.02431 0.09934 0.0465 0.01585 0.02642 0.0148 0.05813 0.0148 0.08349v0.01691h-0.0148c-0.07187 0-0.14796 0-0.20926 0.02219-0.07609 0.02748-0.10991 0.08455-0.10991 0.13739 0 0.07081 0.0613 0.13739 0.1617 0.13739 0.05918 0 0.12048-0.02219 0.17332-0.06553v0.05284h0.07187v-0.29909c0-0.0391-0.0011-0.07609-0.02325-0.11414-0.03171-0.05179-0.093-0.07926-0.16804-0.07926-0.06447 0-0.12682 0.02008-0.17227 0.06658zm0.29381 0.19975v0.03276c0 0.02431 0 0.05601-0.03276 0.09089-0.01797 0.01797-0.06341 0.05707-0.12682 0.05707-0.06447 0-0.10146-0.04122-0.10146-0.08349 0-0.03593 0.02431-0.07504 0.08455-0.08983 0.04439-0.01057 0.10886-0.0074 0.15959-0.0074z"/>
    <path d="m63.165 22.632v0.48299h0.07609v-0.23462c0-0.02959 0.0011-0.0613 0.03382-0.11308 0.04439-0.06975 0.10146-0.08138 0.13634-0.08138 0.04016 0 0.06553 0.01902 0.07926 0.03593 0.0063 0.0085 0.0095 0.01691 0.01797 0.02431l0.03593-0.07292c-0.03065-0.03171-0.07504-0.05284-0.12894-0.05284-0.07081 0-0.14268 0.03593-0.17438 0.10463l0.0032-0.093z"/>
   </g>
   <g aria-label="Performance">
    <path d="m21.417 7.7444v1.1374h0.13327v-0.50205h0.22273c0.0712 0 0.13875-0.00183 0.20812-0.036513 0.10589-0.052944 0.16066-0.16248 0.16066-0.2775s-0.05477-0.22638-0.16248-0.28115c-0.0712-0.038339-0.1424-0.040164-0.21543-0.040164zm0.13327 0.12049h0.2136c0.04747 0 0.09311 0.00183 0.14058 0.023734 0.06938 0.036513 0.10771 0.10954 0.10771 0.18257 0 0.073026-0.03651 0.14058-0.10224 0.17344-0.04382 0.021908-0.08763 0.023734-0.13145 0.023734h-0.23003z"/>
    <path d="m22.694 8.0292c-0.199 0-0.38339 0.1424-0.38339 0.44546 0 0.27932 0.17344 0.4272 0.39982 0.4272 0.12049 0 0.22821-0.043816 0.29941-0.12962l-0.07303-0.0712c-0.05294 0.062072-0.13327 0.094934-0.21543 0.094934-0.11136 0-0.27385-0.062072-0.28298-0.31219h0.59151c0.0055-0.056595 0.0037-0.11136-0.0055-0.15883-0.03834-0.22456-0.19352-0.29576-0.33044-0.29576zm-0.25194 0.35418c0.02738-0.19717 0.15336-0.25377 0.24281-0.25377 0.1351 0 0.23186 0.11867 0.21543 0.25377z"/>
    <path d="m23.317 8.0493v0.83432h0.13145v-0.40529c0-0.051118 0.0018-0.10589 0.05842-0.19534 0.07668-0.12049 0.17526-0.14058 0.23551-0.14058 0.06937 0 0.11319 0.032862 0.13692 0.062072 0.01095 0.014605 0.01643 0.02921 0.03104 0.04199l0.06207-0.12597c-0.05294-0.05477-0.12962-0.091283-0.22273-0.091283-0.12232 0-0.24646 0.062072-0.30123 0.18074l0.0055-0.16066z"/>
    <path d="m24.675 7.6586c-0.11684 0-0.22638 0.049293-0.2848 0.14423-0.04382 0.069375-0.04564 0.13875-0.04564 0.2136v0.082154h-0.18256v0.10406h0.18256v0.67914h0.12597v-0.67914h0.27202v-0.10406h-0.27202v-0.065723c0-0.060247-0.0018-0.12414 0.02921-0.17891 0.03469-0.062072 0.10041-0.093108 0.16796-0.093108 0.08033 0 0.14788 0.04199 0.18257 0.094934 0.0055 0.00913 0.0055 0.014605 0.0055 0.021908 0 0.01278 0.0091 0.016431 0.01461 0.016431l0.06025-0.12232c-0.060279-0.071202-0.15156-0.11319-0.25562-0.11319z"/>
    <path d="m25.802 8.4692c0-0.28845-0.18257-0.43816-0.37243-0.43816-0.21178 0-0.39434 0.18257-0.39434 0.44181 0 0.25377 0.18074 0.43268 0.39069 0.43268 0.19717 0 0.37608-0.15883 0.37608-0.43633zm-0.38156-0.32679c0.12049 0 0.24829 0.10406 0.24829 0.33227 0 0.20995-0.12049 0.31584-0.24099 0.31584-0.13327 0-0.25377-0.12414-0.25377-0.33044 0-0.20447 0.11867-0.31766 0.24646-0.31766z"/>
    <path d="m26.056 8.0493v0.83432h0.13145v-0.40529c0-0.051118 0.0018-0.10589 0.05842-0.19534 0.07668-0.12049 0.17526-0.14058 0.23551-0.14058 0.06937 0 0.11319 0.032862 0.13692 0.062072 0.01095 0.014605 0.01643 0.02921 0.03104 0.04199l0.06207-0.12597c-0.05294-0.05477-0.12962-0.091283-0.22273-0.091283-0.12232 0-0.24646 0.062072-0.30123 0.18074l0.0055-0.16066z"/>
    <path d="m26.855 8.8818h0.12049v-0.555c0-0.040164 0.0037-0.076677 0.02738-0.12049 0.02921-0.05477 0.06572-0.076677 0.10041-0.076677 0.02921 0 0.06207 0.018257 0.07668 0.063898 0.01095 0.034687 0.0091 0.074852 0.0091 0.10954v0.57873h0.12232v-0.55135c0-0.043816 0.0037-0.078503 0.03469-0.13145 0.01461-0.021908 0.04564-0.074852 0.09676-0.074852 0.02738 0 0.05294 0.016431 0.06572 0.047467 0.01643 0.034687 0.01278 0.082154 0.01278 0.12049v0.59151h0.12414v-0.59334c0-0.069375 0.0018-0.13875-0.03469-0.19534-0.03104-0.047467-0.08398-0.065724-0.12962-0.065724-0.08033 0-0.15518 0.047467-0.18804 0.12049-0.01278-0.069375-0.0712-0.12049-0.14605-0.12049-0.06937 0-0.13327 0.043816-0.17161 0.10224l0.0018-0.082154h-0.12232z"/>
    <path d="m27.865 8.146 0.0639 0.08398c0.06938-0.0712 0.16248-0.093108 0.24099-0.093108 0.09858 0 0.14788 0.04199 0.17161 0.080329 0.02739 0.045641 0.02556 0.10041 0.02556 0.14423v0.02921h-0.02556c-0.12414 0-0.25559 0-0.36148 0.038339-0.13145 0.047467-0.18987 0.14605-0.18987 0.23733 0 0.12232 0.10589 0.23733 0.27932 0.23733 0.10224 0 0.20812-0.038339 0.29941-0.11319v0.091283h0.12414v-0.51666c0-0.067549-0.0018-0.13145-0.04016-0.19717-0.05477-0.089457-0.16066-0.13692-0.29028-0.13692-0.11136 0-0.21908 0.034687-0.29758 0.11502zm0.50753 0.34505v0.056595c0 0.04199 0 0.09676-0.05659 0.15701-0.03104 0.031036-0.10954 0.098585-0.21908 0.098585-0.11136 0-0.17526-0.0712-0.17526-0.14423 0-0.062072 0.04199-0.12962 0.14605-0.15518 0.07668-0.018257 0.18804-0.01278 0.27567-0.01278z"/>
    <path d="m28.737 8.8818h0.13327v-0.48015c0-0.054769 0.0073-0.096759 0.04199-0.1424 0.03104-0.04199 0.11136-0.11684 0.199-0.11684 0.04199 0 0.08398 0.018257 0.11319 0.052944 0.04564 0.05477 0.04564 0.12597 0.04564 0.18439v0.50205h0.12962v-0.50571c0-0.063898 0-0.13327-0.02921-0.20082-0.04199-0.093108-0.1278-0.14605-0.22273-0.14605-0.11319 0-0.21543 0.073026-0.2775 0.16613v-0.14605h-0.13327z"/>
    <path d="m30.359 8.1862c-0.06572-0.096759-0.17709-0.15518-0.31219-0.15518-0.24464 0-0.41807 0.18439-0.41807 0.43451 0 0.25194 0.17344 0.43816 0.41077 0.43816 0.11502 0 0.22821-0.047467 0.30671-0.13327l-0.07485-0.087631c-0.0566 0.063898-0.13875 0.10041-0.2209 0.10041-0.16248 0-0.28663-0.1351-0.28663-0.33044 0-0.18987 0.12232-0.30854 0.27567-0.30854 0.1424 0 0.20995 0.098585 0.21543 0.10954 0.0073 0.01278-0.0037 0.031036 0.01095 0.04199z"/>
    <path d="m30.91 8.0292c-0.199 0-0.38339 0.1424-0.38339 0.44546 0 0.27932 0.17344 0.4272 0.39982 0.4272 0.12049 0 0.22821-0.043816 0.29941-0.12962l-0.07303-0.0712c-0.05294 0.062072-0.13327 0.094934-0.21543 0.094934-0.11136 0-0.27385-0.062072-0.28298-0.31219h0.59151c0.0055-0.056595 0.0037-0.11136-0.0055-0.15883-0.03834-0.22456-0.19352-0.29576-0.33044-0.29576zm-0.25194 0.35418c0.02738-0.19717 0.15336-0.25377 0.24281-0.25377 0.1351 0 0.23186 0.11867 0.21543 0.25377z"/>
   </g>
  </g>
 </g>
</svg>
