<svg enable-background="new 0 0 595.28 841.89" version="1.1" viewBox="0 0 605.89 285.89" xml:space="preserve" xmlns="http://www.w3.org/2000/svg">
<g transform="translate(103.67 -196.79)"><g fill-opacity=".49533" stroke="#505050" stroke-width="1.8898">
<rect x="-97.725" y="202.74" width="34" height="34" ry="2" style="paint-order:normal"/><rect x="-57.725" y="202.74" width="34" height="34" ry="2" style="paint-order:normal"/><rect x="-17.725" y="202.74" width="34" height="34" ry="2" style="paint-order:normal"/><rect x="22.275" y="202.74" width="34" height="34" ry="2" style="paint-order:normal"/><rect x="62.275" y="202.74" width="34" height="34" ry="2" style="paint-order:normal"/></g><rect x="-97.725" y="242.74" width="34" height="34" ry="2" fill="#003a3e" stroke="#00e5f3" stroke-width="1.8898" style="paint-order:normal"/><g fill-opacity=".49533" stroke="#00e5f3" stroke-width="1.8898"><rect x="-57.725" y="242.74" width="34" height="34" ry="2" style="paint-order:normal"/><rect x="-57.725" y="282.74" width="34" height="34" ry="2" style="paint-order:normal"/><rect x="-57.725" y="322.74" width="34" height="34" ry="2" style="paint-order:normal"/><rect x="-57.725" y="362.74" width="34" height="34" ry="2" style="paint-order:normal"/><rect x="-57.725" y="402.74" width="34" height="34" ry="2" style="paint-order:normal"/><rect x="-57.725" y="442.74" width="34" height="34" ry="2" style="paint-order:normal"/><rect x="-17.725" y="442.74" width="34" height="34" ry="2" style="paint-order:normal"/><rect x="22.275" y="442.74" width="34" height="34" ry="2" style="paint-order:normal"/><rect x="62.275" y="442.74" width="34" height="34" ry="2" style="paint-order:normal"/><rect x="102.27" y="442.74" width="34" height="34" ry="2" style="paint-order:normal"/><rect x="142.27" y="442.74" width="34" height="34" ry="2" style="paint-order:normal"/><rect x="182.27" y="442.74" width="34" height="34" ry="2" style="paint-order:normal"/><rect x="222.27" y="442.74" width="34" height="34" ry="2" style="paint-order:normal"/><rect x="262.27" y="442.74" width="34" height="34" ry="2" style="paint-order:normal"/><rect x="262.27" y="402.74" width="34" height="34" ry="2" style="paint-order:normal"/><rect x="262.27" y="362.74" width="34" height="34" ry="2" style="paint-order:normal"/><rect x="222.27" y="362.74" width="34" height="34" ry="2" style="paint-order:normal"/><rect x="182.27" y="362.74" width="34" height="34" ry="2" style="paint-order:normal"/><rect x="142.27" y="362.74" width="34" height="34" ry="2" style="paint-order:normal"/><rect x="142.27" y="322.74" width="34" height="34" ry="2" style="paint-order:normal"/><rect x="142.27" y="282.74" width="34" height="34" ry="2" style="paint-order:normal"/><rect x="102.27" y="282.74" width="34" height="34" ry="2" style="paint-order:normal"/><rect x="102.27" y="242.74" width="34" height="34" ry="2" style="paint-order:normal"/><rect x="102.27" y="202.74" width="34" height="34" ry="2" style="paint-order:normal"/><rect x="142.27" y="202.74" width="34" height="34" ry="2" style="paint-order:normal"/><rect x="182.27" y="202.74" width="34" height="34" ry="2" style="paint-order:normal"/><rect x="222.27" y="202.74" width="34" height="34" ry="2" style="paint-order:normal"/><rect x="262.27" y="202.74" width="34" height="34" ry="2" style="paint-order:normal"/><rect x="302.27" y="202.74" width="34" height="34" ry="2" style="paint-order:normal"/><rect x="342.27" y="202.74" width="34" height="34" ry="2" style="paint-order:normal"/><rect x="342.27" y="242.74" width="34" height="34" ry="2" style="paint-order:normal"/><rect x="342.27" y="282.74" width="34" height="34" ry="2" style="paint-order:normal"/><rect x="342.27" y="322.74" width="34" height="34" ry="2" style="paint-order:normal"/><rect x="342.27" y="362.74" width="34" height="34" ry="2" style="paint-order:normal"/><rect x="342.27" y="402.74" width="34" height="34" ry="2" style="paint-order:normal"/><rect x="342.27" y="442.74" width="34" height="34" ry="2" style="paint-order:normal"/><rect x="382.27" y="442.74" width="34" height="34" ry="2" style="paint-order:normal"/><rect x="422.27" y="442.74" width="34" height="34" ry="2" style="paint-order:normal"/></g><rect x="462.27" y="442.74" width="34" height="34" ry="2" fill="#fff" stroke="#00e5f3" stroke-width="1.8898" style="paint-order:normal"/><g><g fill-opacity=".49533" stroke="#505050" stroke-width="1.8898"><rect x="-97.725" y="282.74" width="34" height="34" ry="2" style="paint-order:normal"/><rect x="-97.725" y="322.74" width="34" height="34" ry="2" style="paint-order:normal"/><rect x="-97.725" y="362.74" width="34" height="34" ry="2" style="paint-order:normal"/><rect x="-97.725" y="402.74" width="34" height="34" ry="2" style="paint-order:normal"/><rect x="-97.725" y="442.74" width="34" height="34" ry="2" style="paint-order:normal"/><rect x="-17.725" y="402.74" width="34" height="34" ry="2" style="paint-order:normal"/><rect x="22.275" y="402.74" width="34" height="34" ry="2" style="paint-order:normal"/><rect x="62.275" y="402.74" width="34" height="34" ry="2" style="paint-order:normal"/><rect x="102.27" y="402.74" width="34" height="34" ry="2" style="paint-order:normal"/><rect x="142.27" y="402.74" width="34" height="34" ry="2" style="paint-order:normal"/><rect x="182.27" y="402.74" width="34" height="34" ry="2" style="paint-order:normal"/><rect x="222.27" y="402.74" width="34" height="34" ry="2" style="paint-order:normal"/><rect x="102.27" y="362.74" width="34" height="34" ry="2" style="paint-order:normal"/><rect x="102.27" y="322.74" width="34" height="34" ry="2" style="paint-order:normal"/><rect x="62.275" y="322.74" width="34" height="34" ry="2" style="paint-order:normal"/><rect x="62.275" y="282.74" width="34" height="34" ry="2" style="paint-order:normal"/><rect x="62.275" y="242.74" width="34" height="34" ry="2" style="paint-order:normal"/><rect x="22.275" y="242.74" width="34" height="34" ry="2" style="paint-order:normal"/><rect x="-17.725" y="242.74" width="34" height="34" ry="2" style="paint-order:normal"/><rect x="-17.725" y="282.74" width="34" height="34" ry="2" style="paint-order:normal"/><rect x="-17.725" y="322.74" width="34" height="34" ry="2" style="paint-order:normal"/><rect x="-17.725" y="362.74" width="34" height="34" ry="2" style="paint-order:normal"/><rect x="22.275" y="362.74" width="34" height="34" ry="2" style="paint-order:normal"/><rect x="62.275" y="362.74" width="34" height="34" ry="2" style="paint-order:normal"/><rect x="22.275" y="322.74" width="34" height="34" ry="2" style="paint-order:normal"/><rect x="22.275" y="282.74" width="34" height="34" ry="2" style="paint-order:normal"/><rect x="142.27" y="242.74" width="34" height="34" ry="2" style="paint-order:normal"/><rect x="182.27" y="242.74" width="34" height="34" ry="2" style="paint-order:normal"/><rect x="222.27" y="242.74" width="34" height="34" ry="2" style="paint-order:normal"/><rect x="262.27" y="242.74" width="34" height="34" ry="2" style="paint-order:normal"/><rect x="302.27" y="242.74" width="34" height="34" ry="2" style="paint-order:normal"/><rect x="302.27" y="282.74" width="34" height="34" ry="2" style="paint-order:normal"/><rect x="262.27" y="282.74" width="34" height="34" ry="2" style="paint-order:normal"/><rect x="222.27" y="282.74" width="34" height="34" ry="2" style="paint-order:normal"/><rect x="182.27" y="282.74" width="34" height="34" ry="2" style="paint-order:normal"/><rect x="182.27" y="322.74" width="34" height="34" ry="2" style="paint-order:normal"/><rect x="222.27" y="322.74" width="34" height="34" ry="2" style="paint-order:normal"/><rect x="262.27" y="322.74" width="34" height="34" ry="2" style="paint-order:normal"/><rect x="302.27" y="322.74" width="34" height="34" ry="2" style="paint-order:normal"/><rect x="302.27" y="362.74" width="34" height="34" ry="2" style="paint-order:normal"/><rect x="302.27" y="402.74" width="34" height="34" ry="2" style="paint-order:normal"/><rect x="302.27" y="442.74" width="34" height="34" ry="2" style="paint-order:normal"/><rect x="382.27" y="402.74" width="34" height="34" ry="2" style="paint-order:normal"/><rect x="422.27" y="402.74" width="34" height="34" ry="2" style="paint-order:normal"/><rect x="462.27" y="402.74" width="34" height="34" ry="2" style="paint-order:normal"/><rect x="462.27" y="362.74" width="34" height="34" ry="2" style="paint-order:normal"/><rect x="422.27" y="362.74" width="34" height="34" ry="2" style="paint-order:normal"/><rect x="382.27" y="362.74" width="34" height="34" ry="2" style="paint-order:normal"/><rect x="382.27" y="322.74" width="34" height="34" ry="2" style="paint-order:normal"/><rect x="382.27" y="282.74" width="34" height="34" ry="2" style="paint-order:normal"/><rect x="382.27" y="242.74" width="34" height="34" ry="2" style="paint-order:normal"/><rect x="382.27" y="202.74" width="34" height="34" ry="2" style="paint-order:normal"/><rect x="422.27" y="202.74" width="34" height="34" ry="2" style="paint-order:normal"/><rect x="422.27" y="242.74" width="34" height="34" ry="2" style="paint-order:normal"/><rect x="422.27" y="282.74" width="34" height="34" ry="2" style="paint-order:normal"/><rect x="422.27" y="322.74" width="34" height="34" ry="2" style="paint-order:normal"/><rect x="462.27" y="322.74" width="34" height="34" ry="2" style="paint-order:normal"/><rect x="462.27" y="282.74" width="34" height="34" ry="2" style="paint-order:normal"/><rect x="462.27" y="242.74" width="34" height="34" ry="2" style="paint-order:normal"/><rect x="462.27" y="202.74" width="34" height="34" ry="2" style="paint-order:normal"/></g><g stroke="#f33700" stroke-linecap="round" stroke-linejoin="bevel" stroke-width=".42088"><path transform="matrix(.12308 3.9986 -5.037 .15504 -19.962 163.11)" d="m22.49 10.985 1.3748 2.3812-2.7496-2e-6z" style="paint-order:normal"/><path transform="matrix(-1.1342 3.8364 -4.8326 -1.4287 34.663 190.15)" d="m22.49 10.985 1.3748 2.3812-2.7496-2e-6z" style="paint-order:normal"/><path transform="matrix(-3.442 2.0389 -2.5684 -4.3357 59.898 277.19)" d="m22.49 10.985 1.3748 2.3812-2.7496-2e-6z" style="paint-order:normal"/><path transform="matrix(-3.9321 .73678 -.9281 -4.9532 65.706 315.1)" d="m22.49 10.985 1.3748 2.3812-2.7496-2e-6z" style="paint-order:normal"/><path transform="matrix(-3.9321 .73678 -.9281 -4.9532 57.706 334.39)" d="m22.49 10.985 1.3748 2.3812-2.7496-2e-6z" style="paint-order:normal"/><path transform="matrix(-4.0002 .053019 -.066787 -5.0389 58.615 368.97)" d="m22.49 10.985 1.3748 2.3812-2.7496-2e-6z" style="paint-order:normal"/><path transform="matrix(-4.0002 .053019 -.066787 -5.0389 45.631 377.97)" d="m22.49 10.985 1.3748 2.3812-2.7496-2e-6z" style="paint-order:normal"/><path transform="matrix(-4.0002 .053019 -.066787 -5.0389 53.631 394.97)" d="m22.49 10.985 1.3748 2.3812-2.7496-2e-6z" style="paint-order:normal"/><path transform="matrix(-4.0002 .053019 -.066787 -5.0389 52.631 413.97)" d="m22.49 10.985 1.3748 2.3812-2.7496-2e-6z" style="paint-order:normal"/><path transform="matrix(-4.0002 .053019 -.066787 -5.0389 47.971 480.9)" d="m22.49 10.985 1.3748 2.3812-2.7496-2e-6z" style="paint-order:normal"/><path transform="matrix(-3.0294 2.6128 -3.2913 -3.8161 65.234 440.4)" d="m22.49 10.985 1.3748 2.3812-2.7496-2e-6z" style="paint-order:normal"/><path transform="matrix(.51603 3.9671 -4.9973 .65004 28.176 362.61)" d="m22.49 10.985 1.3748 2.3812-2.7496-2e-6z" style="paint-order:normal"/><path transform="matrix(.51603 3.9671 -4.9973 .65004 50.567 355.38)" d="m22.49 10.985 1.3748 2.3812-2.7496-2e-6z" style="paint-order:normal"/><path transform="matrix(.51603 3.9671 -4.9973 .65004 56.757 373.38)" d="m22.49 10.985 1.3748 2.3812-2.7496-2e-6z" style="paint-order:normal"/><path transform="matrix(.51603 3.9671 -4.9973 .65004 80.567 350.38)" d="m22.49 10.985 1.3748 2.3812-2.7496-2e-6z" style="paint-order:normal"/><path transform="matrix(.51603 3.9671 -4.9973 .65004 120.57 355.38)" d="m22.49 10.985 1.3748 2.3812-2.7496-2e-6z" style="paint-order:normal"/><path transform="matrix(.51603 3.9671 -4.9973 .65004 165.57 365.38)" d="m22.49 10.985 1.3748 2.3812-2.7496-2e-6z" style="paint-order:normal"/><path transform="matrix(-.087983 3.9996 -5.0382 -.11083 230.72 377.77)" d="m22.49 10.985 1.3748 2.3812-2.7496-2e-6z" style="paint-order:normal"/><path transform="matrix(-.087983 3.9996 -5.0382 -.11083 204.72 361.77)" d="m22.49 10.985 1.3748 2.3812-2.7496-2e-6z" style="paint-order:normal"/><path transform="matrix(-.087983 3.9996 -5.0382 -.11083 205.48 378.77)" d="m22.49 10.985 1.3748 2.3812-2.7496-2e-6z" style="paint-order:normal"/><path transform="matrix(-.087983 3.9996 -5.0382 -.11083 257.6 367.01)" d="m22.49 10.985 1.3748 2.3812-2.7496-2e-6z" style="paint-order:normal"/><path transform="matrix(-.087983 3.9996 -5.0382 -.11083 293.72 368.77)" d="m22.49 10.985 1.3748 2.3812-2.7496-2e-6z" style="paint-order:normal"/><path transform="matrix(2.906 2.7495 -3.4635 3.6606 244.97 344.69)" d="m22.49 10.985 1.3748 2.3812-2.7496-2e-6z" style="paint-order:normal"/></g></g><g transform="matrix(-2.9403 2.3747 -2.3747 -2.9403 803.87 407.04)" stroke="#00e5f3" stroke-linejoin="round" stroke-width=".5"><circle cx="118.3" cy="91.421" r="2.6458" style="paint-order:fill markers stroke"/><rect x="117.51" y="86.924" width="1.5875" height="5.2917" ry=".35278" fill="#121212" style="paint-order:normal"/></g><g transform="matrix(-3.6806 -.85896 .85896 -3.6806 476.12 857.08)" stroke="#00e5f3" stroke-linejoin="round" stroke-width=".5"><circle cx="118.3" cy="91.421" r="2.6458" style="paint-order:fill markers stroke"/><rect x="117.51" y="86.924" width="1.5875" height="5.2917" ry=".35278" fill="#121212" style="paint-order:normal"/></g><g transform="matrix(.45205 -3.7524 3.7524 .45205 -396.87 821.87)" stroke="#00e5f3" stroke-linejoin="round" stroke-width=".5"><circle cx="118.3" cy="91.421" r="2.6458" style="paint-order:fill markers stroke"/><rect x="117.51" y="86.924" width="1.5875" height="5.2917" ry=".35278" fill="#121212" style="paint-order:normal"/></g><g transform="matrix(.4521 -3.7524 3.7524 .4521 -396.88 741.87)" stroke="#00e5f3" stroke-linejoin="round" stroke-width=".5"><circle cx="118.3" cy="91.421" r="2.6458" style="paint-order:fill markers stroke"/><rect x="117.51" y="86.924" width="1.5875" height="5.2917" ry=".35278" fill="#121212" style="paint-order:normal"/></g><g transform="matrix(.4521 -3.7524 3.7524 .4521 -396.88 701.87)" stroke="#00e5f3" stroke-linejoin="round" stroke-width=".5"><circle cx="118.3" cy="91.421" r="2.6458" style="paint-order:fill markers stroke"/><rect x="117.51" y="86.924" width="1.5875" height="5.2917" ry=".35278" fill="#121212" style="paint-order:normal"/></g><g transform="matrix(1.3846 3.5168 -3.5168 1.3846 76.669 -202.99)" stroke="#00e5f3" stroke-linejoin="round" stroke-width=".5"><circle cx="118.3" cy="91.421" r="2.6458" style="paint-order:fill markers stroke"/><rect x="117.51" y="86.924" width="1.5875" height="5.2917" ry=".35278" fill="#121212" style="paint-order:normal"/></g></g>
</svg>
