<?xml version="1.0" encoding="UTF-8"?>
<svg width="99.825" height="155.73" version="1.1" viewBox="0 0 26.412 41.203" xmlns="http://www.w3.org/2000/svg" xmlns:cc="http://creativecommons.org/ns#" xmlns:dc="http://purl.org/dc/elements/1.1/" xmlns:rdf="http://www.w3.org/1999/02/22-rdf-syntax-ns#">
 <metadata>
  <rdf:RDF>
   <cc:Work rdf:about="">
    <dc:format>image/svg+xml</dc:format>
    <dc:type rdf:resource="http://purl.org/dc/dcmitype/StillImage"/>
    <dc:title/>
   </cc:Work>
  </rdf:RDF>
 </metadata>
 <g transform="translate(-156.77 -82.558)" fill-rule="evenodd" stroke-width=".26458">
  <g stroke="#7b8694">
   <path d="m169.01 123.56 0.28239-12.803-12.376-0.5309-0.0182 12.54z" fill="#2f3744"/>
   <path d="m169.16 123.52 3.3685-2.1419 0.16474-12.138-3.5333 1.5195z" fill="#1d232d"/>
   <path d="m169.21 110.77-12.201-0.59747 3.698-1.5012 12.024 0.52254z" fill="#121824"/>
   <path d="m163.57 109.63 0.0777-2.1618 2.5113 0.0518-0.0389 2.1748z" fill="#2f3744"/>
   <path d="m175.09 103.97-9.3503-5.7484-3.166-5.5709 9.7478 6.2442z" fill="#121824"/>
   <path d="m168.13 101.51 1.9547-2.3819s-0.57969-0.74109-0.95793-1.0097c-0.35115-0.24936-1.178-0.53075-1.178-0.53075l-1.89 2.3042z" fill="#2f3744"/>
  </g>
  <path d="m168.44 102.71c0.0694-0.23341-0.0273-0.48975-0.0906-0.72492-0.11197-0.41639-0.24026-0.85049-0.50484-1.191-0.30608-0.39386-0.73648-0.70053-1.1909-0.90615-0.39709-0.17965-0.8458-0.26426-1.2816-0.2589-0.44692 0.0055-0.90826 0.09661-1.3074 0.29774-0.43176 0.21756-0.78333 0.57994-1.1004 0.94498-0.28881 0.33259-0.55984 0.69988-0.71195 1.1133-0.10978 0.29838-0.17589 0.63046-0.12945 0.94499 0.11507 0.77934 0.32087 1.7233 0.98382 2.1489 0.9332 0.5991 2.3207 0.46634 3.3268 0 0.93888-0.43517 1.7114-1.3771 2.0065-2.3689z" fill="#a6aeb8" stroke="#f3f4f5"/>
  <g stroke="#7b8694">
   <path d="m160.81 102.61c-0.0273 2.2742 1.9426 5.1133 3.8965 5.1133 2.9965 0 4.4282-3.5192 4.466-5.1521 0 0-0.32149-0.0536-0.47894-0.0259-2.8698 1.4283-4.8626 0.90892-6.6796 0.34952-0.2565-0.0854-0.73789-0.33657-0.73789-0.33657z" fill="#2f3744"/>
   <path d="m175.3 104.06-2.9108-5.1809 7.9453-10.032 2.6911 5.5287z" fill="#1d232d"/>
   <path d="m172.44 98.806-9.8309-6.1329 7.8171-9.9407 9.9591 6.023z" fill="#2f3744"/>
  </g>
 </g>
</svg>
