<svg version="1.1" class="animated inactive w600 h400" id="aphLogo" xmlns="http://www.w3.org/2000/svg"
  xmlns:xlink="http://www.w3.org/1999/xlink" x="0px" y="0px" width="734.2" height="211" version="1.1"
  viewBox="0 0 198.44 105.83" enable-background="new 0 0 198.44 105.83" xml:space="preserve">
  <filter id="blur-filter" x="-2" y="-2" width="200" height="200">
    <feGaussianBlur in="SourceGraphic" stdDeviation="1" />
  </filter>
  <g stroke="#fff" stroke-width="1">
      <path d="m58.165 52.912v-44.363h88.726v88.726h-88.726zm55.9 8.8714c0.45601-0.23264 1.0949-0.73886 1.4198-1.1249 1.0651-1.2658 1.2715-2.0877 1.403-5.587 0.11447-3.0448 0.14726-3.2397 0.46664-2.7727 0.79712 1.1655 2.0466 1.9845 4.3322 2.8397 1.7486 0.65425 2.3577 1.1965 2.3577 2.0992 0 0.92158-0.41751 1.3577-1.6063 1.6778-0.99745 0.26859-2.9173 0.0084-4.3544-0.59015-0.41139-0.17134-0.77771-0.31153-0.81403-0.31153-0.15175 0-0.76734 3.1473-0.65207 3.3338 0.27935 0.452 2.4958 0.88124 4.6386 0.89835 3.6575 0.02919 5.7347-1.0979 6.6708-3.6196 1.0594-2.8539-0.44371-5.2581-4.2153-6.7423-1.862-0.73273-2.6985-1.2724-2.8854-1.8614-0.21255-0.6697 0.0426-1.188 0.807-1.6396 0.56854-0.33584 0.97524-0.38694 2.2375-0.28111 0.84849 0.07113 1.679 0.24248 1.8457 0.38077 0.63795 0.52945 1.0366 0.13944 1.4386-1.4075l0.39278-1.5114-0.58719-0.22988c-1.183-0.46316-3.8294-0.69034-5.2669-0.45214-1.8406 0.30499-2.7724 0.77592-3.8514 1.9465l-0.89606 0.97212v-1.3259c0-0.89568-0.09-1.3364-0.27727-1.3582-0.15249-0.01772-1.0508-0.04268-1.9962-0.05546l-1.719-0.02323-0.0126 5.8781c-8e-3 3.9412-0.0999 6.1339-0.27736 6.6545-0.44585 1.3074-1.8397 1.7619-3.9334 1.2826-0.32877-0.07526-0.6011 0.80244-0.68968 2.2227l-0.065 1.0418 0.88076 0.14459c1.487 0.24412 4.2983-0.01415 5.2085-0.47851zm-33.496-2.6606v-3.1054h1.7662c2.2255 0 3.933-0.59749 5.1309-1.7953l0.85712-0.85712 0.12022 8.7524h7.3199l0.99817-1.9403c0.54899-1.0672 1.0663-1.9406 1.1496-1.9409 0.08325-2.22e-4 0.22068 0.22405 0.30533 0.49855 0.08466 0.2745 0.54635 1.1752 1.026 2.0016l0.87207 1.5026 7.405-0.12152v-12.335h-3.6369c-2.0003 0-3.7263 0.08943-3.8356 0.19874-0.10931 0.10931-0.58606 0.93483-1.0595 1.8345l-0.86073 1.6358-0.36619-0.65797c-0.20141-0.36188-0.66035-1.182-1.0199-1.8225l-0.65368-1.1645h-7.0535l-0.3751-1.1293c-0.49126-1.4791-1.3836-2.4637-2.8198-3.1115-1.0751-0.48493-1.452-0.52611-4.8261-0.5271-2.013-6.66e-4 -3.8346 0.07066-4.0481 0.15833-0.35993 0.1478-0.38818 0.76267-0.38818 8.4475 0 4.5584 0.06656 8.3546 0.14788 8.4359 0.08132 0.08134 0.97968 0.14788 1.9963 0.14788h1.8485zm11.756-3.3716c0-2.7733 0.0814-4.616 0.19835-4.4918 0.43811 0.46546 2.9071 4.3794 2.9071 4.6084 0 0.24943-2.8519 4.5858-3.016 4.5858-0.04921 0-0.08943-2.1161-0.08943-4.7025zm10.835 4.0925c-0.53972-0.6464-2.6282-3.9492-2.6282-4.1564 0-0.22782 2.4422-3.8596 2.7043-4.0216 0.0986-0.06096 0.18254 0.01983 0.18647 0.17953 0.028 1.1363 0.0995 8.3867 0.0827 8.3867-0.0116-3.8e-5 -0.16692-0.17475-0.34519-0.38824zm-22.5-6.9132c-0.05055-0.05083-0.09194-1.185-0.09194-2.5205v-2.428l1.5419 0.08712c1.2455 0.07038 1.6499 0.1886 2.1039 0.61505 1.0868 1.021 0.9415 2.887-0.29335 3.7663-0.52346 0.37274-3.0039 0.73794-3.2605 0.48005zm10.683-4.8063c0.25333-0.06802 0.63744-0.42304 0.85357-0.78893 0.56925-0.96366 0.3133-2.08-0.6053-2.6401-0.96382-0.58768-1.7638-0.54411-2.5773 0.14038-0.55032 0.46307-0.68247 0.74419-0.68247 1.4519 0 1.5359 1.2631 2.3063 3.0115 1.8368zm15.742-0.41472c0.7978-0.79779 0.74404-1.9519-0.13169-2.8276-0.59938-0.59938-0.78194-0.66196-1.6078-0.55119-1.6319 0.21888-2.3516 1.5783-1.6025 3.027 0.39151 0.75711 0.59884 0.85588 1.8447 0.87877 0.73053 0.01342 1.0798-0.1095 1.4972-0.52694z"/>
  </g>
</svg>