<svg width="318.44" height="133.45" version="1.1" viewBox="0 0 84.255 35.306" xmlns="http://www.w3.org/2000/svg">
 <g transform="rotate(-90 43.684 -27.477)" fill="#e9e56f" aria-label="100">
  <rect transform="rotate(90)" x="-63.303" y="-8.8234" width="39.61" height="26.38" fill="#3b390d" fill-opacity=".38431" stroke="#e9e56f" stroke-width=".1564"/>
  <rect transform="rotate(90)" x="-18.328" y="-8.8477" width="13.685" height="10.53" fill="#3b0d0d" fill-opacity=".38431" stroke="#e96f6f" stroke-width=".1564"/>
  <g>
   <g transform="rotate(90)" fill="#e9e56f" stroke-width=".28223px" aria-label="Red square">
    <path d="m-15.716-3.9775v1.0989h0.12347v-0.48508h0.21343l0.24342 0.48508h0.13935l-0.254-0.4886c0.13229-0.037042 0.22402-0.16228 0.22402-0.30868 0-0.10936-0.05468-0.21343-0.15699-0.26459-0.06879-0.035278-0.13758-0.037042-0.2099-0.037042zm0.12347 0.11642h0.19932c0.04586 0 0.08996 0.00176 0.13582 0.022931 0.06879 0.035278 0.10407 0.10583 0.10407 0.17639 0 0.070556-0.03351 0.13582-0.09701 0.16757-0.04233 0.021167-0.08467 0.022931-0.12877 0.022931h-0.21343z"/>
    <path d="m-14.478-3.7023c-0.19227 0-0.37042 0.13759-0.37042 0.43039 0 0.26988 0.16757 0.41276 0.3863 0.41276 0.11642 0 0.22049-0.042334 0.28928-0.12524l-0.07056-0.068792c-0.05115 0.059973-0.12876 0.091723-0.20814 0.091723-0.1076 0-0.26459-0.059973-0.27341-0.30163h0.57151c0.0053-0.054681 0.0035-0.1076-0.0053-0.15346-0.03704-0.21696-0.18698-0.28575-0.31927-0.28575zm-0.24342 0.3422c0.02646-0.1905 0.14817-0.24518 0.2346-0.24518 0.13053 0 0.22402 0.11465 0.20814 0.24518z"/>
    <path d="m-13.397-3.5665c-0.03881-0.082904-0.12524-0.13759-0.23636-0.13759-0.15346 0-0.34044 0.10936-0.34044 0.41628 0 0.2981 0.16581 0.42863 0.32103 0.42863 0.10231 0 0.19756-0.058209 0.24871-0.14817v0.070556c0 0.019403 0.0018 0.038806 0.0071 0.058209h0.127c-0.0071-0.022931-0.0071-0.049389-0.0071-0.074084l-0.0018-1.0478c0-0.010584 0-0.014111 0.0071-0.024695 0.0035-0.00529 0.01058-0.014111 0.0088-0.026459h-0.13406zm-0.23107-0.033514c0.07056 0 0.17463 0.037042 0.20638 0.15699 0.01058 0.037042 0.01411 0.08114 0.01411 0.1711 0 0.061737-0.0035 0.10583-0.01764 0.14817-0.02999 0.095251-0.11465 0.1517-0.19756 0.1517-0.09172 0-0.22754-0.070556-0.22754-0.33514 0-0.23107 0.12877-0.29281 0.22225-0.29281z"/>
    <path d="m-11.525-3.5771c-0.07409-0.08114-0.18168-0.12524-0.30163-0.12524-0.18698 0-0.30868 0.10407-0.30868 0.22402 0 0.14111 0.1517 0.19227 0.19579 0.20814 0.06879 0.024695 0.15699 0.045862 0.21696 0.074084 0.06703 0.03175 0.07938 0.074084 0.07938 0.10231 0 0.075848-0.09172 0.127-0.20638 0.127-0.13758 0-0.22578-0.082904-0.25224-0.11113-0.0053-0.00706-0.0053-0.012347-0.0053-0.019403 0-0.00176 0.0018-0.012347-0.0071-0.015875l-0.07408 0.12524c0.09525 0.088196 0.21872 0.12877 0.34044 0.12877 0.22049 0 0.33514-0.13053 0.33514-0.25224 0-0.054681-0.02293-0.12877-0.11818-0.18168-0.08996-0.051153-0.22049-0.068792-0.29634-0.10583-0.06527-0.03175-0.07938-0.070556-0.07938-0.098779 0-0.063501 0.07938-0.10936 0.16934-0.10936 0.11642 0 0.19403 0.070556 0.22402 0.11113 0.0053 0.00529 0.0035 0.010584 0.0035 0.015875 0 0.010584 0.0071 0.014111 0.01058 0.014111z"/>
    <path d="m-10.747-3.5665c0 0.00176-0.05645-0.13759-0.2346-0.13759-0.17639 0-0.34926 0.14288-0.34926 0.41628 0 0.26106 0.15346 0.42863 0.33162 0.42863 0.10231 0 0.1958-0.058209 0.24695-0.14817v0.42334h0.12524v-1.0989h-0.11995zm-0.22931-0.033514c0.07232 0 0.16404 0.037042 0.19932 0.13582 0.01587 0.045862 0.0194 0.095251 0.0194 0.19403 0 0.059973-0.0035 0.10407-0.01588 0.1464-0.03175 0.095251-0.11465 0.1517-0.19756 0.1517-0.11642 0-0.23284-0.10583-0.23284-0.33338 0-0.21167 0.11995-0.29457 0.22754-0.29457z"/>
    <path d="m-10.414-3.6829v0.4498c0 0.068793 0 0.13935 0.03175 0.21167 0.04586 0.10583 0.14464 0.16404 0.25048 0.16404 0.10054 0 0.19579-0.054681 0.24871-0.14288l-0.00176 0.059973c0 0.021167 0 0.042334 0.00353 0.061737h0.13406c-0.00882-0.022931-0.010584-0.049389-0.010584-0.07232v-0.73202h-0.127v0.44274c0 0.061737-0.00529 0.10936-0.03175 0.15875-0.037042 0.068793-0.10936 0.11995-0.18697 0.11995-0.06174 0-0.12171-0.035278-0.15346-0.098779-0.02822-0.056445-0.02822-0.11995-0.02822-0.17286v-0.4498z"/>
    <path d="m-9.4827-3.5895 0.061737 0.08114c0.067029-0.068792 0.15699-0.089959 0.23284-0.089959 0.095251 0 0.14288 0.04057 0.16581 0.077612 0.026459 0.044098 0.024695 0.097015 0.024695 0.13935v0.028223h-0.024695c-0.11995 0-0.24695 0-0.34925 0.037042-0.127 0.045862-0.18345 0.14111-0.18345 0.22931 0 0.11818 0.10231 0.22931 0.26988 0.22931 0.098779 0 0.20109-0.037042 0.28928-0.10936v0.088196h0.11995v-0.49919c0-0.065265-0.00176-0.127-0.038806-0.1905-0.052917-0.086432-0.15522-0.13229-0.28046-0.13229-0.1076 0-0.21167 0.033514-0.28752 0.11113zm0.49037 0.33338v0.054681c0 0.04057 0 0.093487-0.054681 0.1517-0.029987 0.029987-0.10583 0.095251-0.21167 0.095251-0.1076 0-0.16934-0.068793-0.16934-0.13935 0-0.059973 0.04057-0.12524 0.14111-0.14993 0.074084-0.017639 0.18168-0.012347 0.26635-0.012347z"/>
    <path d="m-8.5848-3.6829v0.80611h0.127v-0.39159c0-0.04939 0.00176-0.10231 0.056445-0.18874 0.074084-0.11642 0.16934-0.13582 0.22754-0.13582 0.067029 0 0.10936 0.03175 0.13229 0.059973 0.010584 0.014111 0.015875 0.028223 0.029987 0.04057l0.059973-0.12171c-0.051153-0.052917-0.12524-0.088195-0.2152-0.088195-0.11818 0-0.23813 0.059973-0.29105 0.17463l0.00529-0.15522z"/>
    <path d="m-7.4224-3.7023c-0.19227 0-0.37042 0.13759-0.37042 0.43039 0 0.26988 0.16757 0.41276 0.3863 0.41276 0.11642 0 0.22049-0.042334 0.28928-0.12524l-0.070556-0.068792c-0.051153 0.059973-0.12877 0.091723-0.20814 0.091723-0.1076 0-0.26459-0.059973-0.27341-0.30163h0.57151c0.00529-0.054681 0.00353-0.1076-0.00529-0.15346-0.037042-0.21696-0.18697-0.28575-0.31927-0.28575zm-0.24342 0.3422c0.026459-0.1905 0.14817-0.24518 0.2346-0.24518 0.13053 0 0.22402 0.11465 0.20814 0.24518z"/>
   </g>
   <g transform="rotate(90)" fill="#e9e56f" stroke-width=".28223px" aria-label="x: 50 y: 50 size: 40 scale: 1 pivot: [20,20] rotation: 5*PI/12">
    <path d="m-2.4764-8.7118-0.20109 0.2981-0.21167-0.2981h-0.13759l0.27693 0.39688-0.28223 0.40923h0.14288l0.20991-0.31221 0.22225 0.31221h0.14464l-0.29634-0.41276 0.26106-0.39335z"/>
    <path d="m-1.7091-8.5496c0-0.054681-0.045862-0.10054-0.10407-0.10054-0.058209 0-0.10407 0.045862-0.10407 0.10054 0 0.056445 0.045862 0.10054 0.10407 0.10054 0.058209 0 0.10407-0.044098 0.10407-0.10054zm0 0.56269c0-0.054681-0.045862-0.10054-0.10407-0.10054-0.058209 0-0.10407 0.045862-0.10407 0.10054 0 0.056445 0.045862 0.10231 0.10407 0.10231 0.058209 0 0.10407-0.045862 0.10407-0.10231z"/>
    <path d="m-0.28209-9.0047-0.038806 0.55916 0.079376 0.03175c0.052917-0.067029 0.13053-0.10407 0.20638-0.10407 0.11465 0 0.22402 0.088195 0.22402 0.26282 0 0.16934-0.10407 0.26106-0.22225 0.26106-0.11818 0-0.19579-0.089959-0.20109-0.10054-0.007056-0.014111 0.001764-0.03175-0.014111-0.042334l-0.10936 0.082904c0.074084 0.1076 0.19579 0.16934 0.32632 0.16934 0.1905 0 0.34749-0.12877 0.34749-0.36689 0-0.23636-0.14817-0.36689-0.33338-0.36689-0.059973 0-0.12171 0.014111-0.17816 0.042334l0.015875-0.3175h0.45509v-0.11113z"/>
    <path d="m0.85563-9.0117c-0.17463 0-0.35455 0.2152-0.35455 0.56622 0 0.35631 0.18168 0.56092 0.35631 0.56092 0.15875 0 0.34749-0.17286 0.34749-0.5521 0-0.37395-0.17992-0.57504-0.34925-0.57504zm0.1711 0.25224-0.3863 0.50095c-0.015875-0.061737-0.024695-0.13053-0.024695-0.20814 0-0.28223 0.12877-0.43745 0.23813-0.43745 0.059973 0 0.12524 0.047626 0.17286 0.14464zm0.04057 0.11642c0.015875 0.061737 0.022931 0.13582 0.022931 0.22225 0 0.30692-0.13229 0.42334-0.22931 0.42334-0.065265 0-0.13229-0.052917-0.17992-0.14993z"/>
    <path d="m-3.0356-6.5052 0.32809 0.80258-0.026459 0.058209c-0.014111 0.033514-0.029986 0.067029-0.054681 0.093487-0.033514 0.037042-0.075848 0.052917-0.11289 0.052917-0.059973 0-0.08996-0.04057-0.095251-0.047626-0.00529-0.00882-0.00353-0.021167-0.014111-0.029987l-0.065265 0.11465c0.045862 0.044098 0.1076 0.067029 0.17463 0.067029 0.07232 0 0.14817-0.026459 0.20109-0.086432 0.035278-0.04057 0.052917-0.082904 0.070556-0.12877l0.25048-0.66499c0.029987-0.075848 0.056445-0.15346 0.08114-0.23284h-0.13229c-0.014111 0.074084-0.037042 0.14464-0.061737 0.2152l-0.15346 0.43216-0.23636-0.59444c-0.00176-0.00529-0.00176-0.00882-0.00176-0.014111 0-0.012347 0.00882-0.021167 0.00706-0.037042z"/>
    <path d="m-1.7091-6.3447c0-0.054681-0.045862-0.10054-0.10407-0.10054-0.058209 0-0.10407 0.045862-0.10407 0.10054 0 0.056445 0.045862 0.10054 0.10407 0.10054 0.058209 0 0.10407-0.044098 0.10407-0.10054zm0 0.56269c0-0.054681-0.045862-0.10054-0.10407-0.10054-0.058209 0-0.10407 0.045862-0.10407 0.10054 0 0.056445 0.045862 0.10231 0.10407 0.10231 0.058209 0 0.10407-0.045862 0.10407-0.10231z"/>
    <path d="m-0.28209-6.7998-0.038806 0.55916 0.079376 0.03175c0.052917-0.067029 0.13053-0.10407 0.20638-0.10407 0.11465 0 0.22402 0.088195 0.22402 0.26282 0 0.16934-0.10407 0.26106-0.22225 0.26106-0.11818 0-0.19579-0.089959-0.20109-0.10054-0.007056-0.014111 0.001764-0.03175-0.014111-0.042334l-0.10936 0.082904c0.074084 0.1076 0.19579 0.16934 0.32632 0.16934 0.1905 0 0.34749-0.12877 0.34749-0.36689 0-0.23636-0.14817-0.36689-0.33338-0.36689-0.059973 0-0.12171 0.014111-0.17816 0.042334l0.015875-0.3175h0.45509v-0.11113z"/>
    <path d="m0.85563-6.8068c-0.17463 0-0.35455 0.2152-0.35455 0.56622 0 0.35631 0.18168 0.56092 0.35631 0.56092 0.15875 0 0.34749-0.17286 0.34749-0.5521 0-0.37395-0.17992-0.57504-0.34925-0.57504zm0.1711 0.25224-0.3863 0.50095c-0.015875-0.061737-0.024695-0.13053-0.024695-0.20814 0-0.28223 0.12877-0.43745 0.23813-0.43745 0.059973 0 0.12524 0.047626 0.17286 0.14464zm0.04057 0.11642c0.015875 0.061737 0.022931 0.13582 0.022931 0.22225 0 0.30692-0.13229 0.42334-0.22931 0.42334-0.065265 0-0.13229-0.052917-0.17992-0.14993z"/>
    <path d="m-2.3529-4.1945c-0.074084-0.08114-0.18168-0.12524-0.30163-0.12524-0.18697 0-0.30868 0.10407-0.30868 0.22402 0 0.14111 0.1517 0.19227 0.19579 0.20814 0.068792 0.024695 0.15699 0.045862 0.21696 0.074084 0.067029 0.03175 0.079376 0.074084 0.079376 0.10231 0 0.075848-0.091723 0.127-0.20638 0.127-0.13759 0-0.22578-0.082904-0.25224-0.11113-0.00529-0.00706-0.00529-0.012347-0.00529-0.019403 0-0.00176 0.00176-0.012347-0.00706-0.015875l-0.074084 0.12524c0.095251 0.088196 0.21872 0.12877 0.34043 0.12877 0.22049 0 0.33514-0.13053 0.33514-0.25224 0-0.054681-0.022931-0.12877-0.11818-0.18168-0.089959-0.051154-0.22049-0.068793-0.29634-0.10583-0.065265-0.03175-0.079376-0.070556-0.079376-0.098779 0-0.063501 0.079376-0.10936 0.16934-0.10936 0.11642 0 0.19403 0.070556 0.22402 0.11113 0.00529 0.00529 0.00353 0.010584 0.00353 0.015875 0 0.010584 0.00706 0.014111 0.010584 0.014111z"/>
    <path d="m-2.046-4.3021v0.10407h0.19403v0.60149h-0.20461v0.10054h0.52212v-0.10054h-0.18874v-0.70556zm0.26106-0.34925c-0.051153 0-0.091723 0.04057-0.091723 0.089959s0.04057 0.089959 0.091723 0.089959 0.091723-0.04057 0.091723-0.089959c0-0.04939-0.04057-0.089959-0.091723-0.089959z"/>
    <path d="m-1.2276-4.3021v0.11113h0.46391l-0.49919 0.61031v0.086432h0.7038v-0.11995c-0.021167-0.00353-0.028223 0.010583-0.052917 0.010583h-0.47978l0.49213-0.61208v-0.086432z"/>
    <path d="m-0.01398-4.3197c-0.19227 0-0.37042 0.13759-0.37042 0.43039 0 0.26988 0.16757 0.41276 0.3863 0.41276 0.11642 0 0.22049-0.042334 0.28928-0.12524l-0.070556-0.068792c-0.051153 0.059973-0.12877 0.091723-0.20814 0.091723-0.1076 0-0.26459-0.059973-0.27341-0.30163h0.57151c0.005292-0.054681 0.003528-0.1076-0.005292-0.15346-0.037042-0.21696-0.18697-0.28575-0.31927-0.28575zm-0.24342 0.3422c0.026459-0.1905 0.14817-0.24518 0.2346-0.24518 0.13053 0 0.22402 0.11465 0.20814 0.24518z"/>
    <path d="m0.93677-4.1398c0-0.054681-0.045862-0.10054-0.10407-0.10054-0.058209 0-0.10407 0.045862-0.10407 0.10054 0 0.056445 0.045862 0.10054 0.10407 0.10054 0.058209 0 0.10407-0.044098 0.10407-0.10054zm0 0.56269c0-0.054681-0.045862-0.10054-0.10407-0.10054-0.058209 0-0.10407 0.045862-0.10407 0.10054 0 0.056445 0.045862 0.10231 0.10407 0.10231 0.058209 0 0.10407-0.045862 0.10407-0.10231z"/>
    <path d="m2.7289-4.5949-0.46744 0.7038v0.091723h0.44274v0.30339h0.127v-0.30163h0.14288v-0.10936h-0.14288v-0.68793zm-0.022931 0.19579v0.49213h-0.3228z"/>
    <path d="m3.5015-4.6019c-0.17463 0-0.35455 0.2152-0.35455 0.56622 0 0.35631 0.18168 0.56092 0.35631 0.56092 0.15875 0 0.34749-0.17286 0.34749-0.5521 0-0.37395-0.17992-0.57504-0.34925-0.57504zm0.1711 0.25224-0.3863 0.50095c-0.015875-0.061737-0.024695-0.13053-0.024695-0.20814 0-0.28223 0.12877-0.43745 0.23813-0.43745 0.059973 0 0.12524 0.047626 0.17286 0.14464zm0.04057 0.11642c0.015875 0.061737 0.022931 0.13582 0.022931 0.22225 0 0.30692-0.13229 0.42334-0.22931 0.42334-0.065265 0-0.13229-0.052917-0.17992-0.14993z"/>
    <path d="m-2.3529-1.9896c-0.074084-0.08114-0.18168-0.12524-0.30163-0.12524-0.18697 0-0.30868 0.10407-0.30868 0.22402 0 0.14111 0.1517 0.19227 0.19579 0.20814 0.068792 0.024695 0.15699 0.045862 0.21696 0.074084 0.067029 0.03175 0.079376 0.074084 0.079376 0.10231 0 0.075848-0.091723 0.127-0.20638 0.127-0.13759 0-0.22578-0.082904-0.25224-0.11113-0.00529-0.00706-0.00529-0.012347-0.00529-0.019403 0-0.00176 0.00176-0.012347-0.00706-0.015875l-0.074084 0.12524c0.095251 0.088196 0.21872 0.12877 0.34043 0.12877 0.22049 0 0.33514-0.13053 0.33514-0.25224 0-0.054681-0.022931-0.12877-0.11818-0.18168-0.089959-0.051154-0.22049-0.068793-0.29634-0.10583-0.065265-0.03175-0.079376-0.070556-0.079376-0.098779 0-0.063501 0.079376-0.10936 0.16934-0.10936 0.11642 0 0.19403 0.070556 0.22402 0.11113 0.00529 0.00529 0.00353 0.010583 0.00353 0.015875 0 0.010583 0.00706 0.014111 0.010584 0.014111z"/>
    <path d="m-1.4286-1.9631c-0.063501-0.093487-0.1711-0.14993-0.30163-0.14993-0.23636 0-0.40394 0.17816-0.40394 0.41981 0 0.24342 0.16757 0.42334 0.39688 0.42334 0.11113 0 0.22049-0.045862 0.29634-0.12877l-0.07232-0.084668c-0.054681 0.061737-0.13406 0.097015-0.21343 0.097015-0.15699 0-0.27693-0.13053-0.27693-0.31927 0-0.18345 0.11818-0.2981 0.26635-0.2981 0.13759 0 0.20285 0.095251 0.20814 0.10583 0.00706 0.012347-0.00353 0.029987 0.010583 0.04057z"/>
    <path d="m-1.1923-2.0019 0.061737 0.08114c0.067029-0.068793 0.15699-0.089959 0.23284-0.089959 0.095251 0 0.14288 0.04057 0.16581 0.077612 0.026459 0.044098 0.024695 0.097015 0.024695 0.13935v0.028223h-0.024695c-0.11995 0-0.24695 0-0.34925 0.037042-0.127 0.045862-0.18345 0.14111-0.18345 0.22931 0 0.11818 0.10231 0.22931 0.26988 0.22931 0.098779 0 0.20109-0.037042 0.28928-0.10936v0.088196h0.11995v-0.49919c0-0.065265-0.001764-0.127-0.038806-0.1905-0.052917-0.086432-0.15522-0.13229-0.28046-0.13229-0.1076 0-0.21167 0.033514-0.28752 0.11113zm0.49037 0.33338v0.054681c0 0.04057 0 0.093487-0.054681 0.1517-0.029986 0.029986-0.10583 0.095251-0.21167 0.095251-0.1076 0-0.16934-0.068793-0.16934-0.13935 0-0.059973 0.04057-0.12524 0.14111-0.14993 0.074084-0.017639 0.18168-0.012347 0.26635-0.012347z"/>
    <path d="m-0.3209-2.4623v0.10231h0.22931v0.96839h-0.23989v0.10054h0.60502v-0.10054h-0.23813v-1.0707z"/>
    <path d="m0.86798-2.1148c-0.19227 0-0.37042 0.13759-0.37042 0.43039 0 0.26988 0.16757 0.41276 0.3863 0.41276 0.11642 0 0.22049-0.042334 0.28928-0.12524l-0.070556-0.068793c-0.051153 0.059973-0.12877 0.091723-0.20814 0.091723-0.1076 0-0.26459-0.059973-0.27341-0.30163h0.57151c0.00529-0.054681 0.00353-0.1076-0.00529-0.15346-0.037042-0.21696-0.18697-0.28575-0.31927-0.28575zm-0.24342 0.3422c0.026459-0.1905 0.14817-0.24518 0.2346-0.24518 0.13053 0 0.22402 0.11465 0.20814 0.24518z"/>
    <path d="m1.8187-1.9349c0-0.054681-0.045862-0.10054-0.10407-0.10054-0.058209 0-0.10407 0.045862-0.10407 0.10054 0 0.056445 0.045862 0.10054 0.10407 0.10054 0.058209 0 0.10407-0.044098 0.10407-0.10054zm0 0.56269c0-0.054681-0.045862-0.10054-0.10407-0.10054-0.058209 0-0.10407 0.045862-0.10407 0.10054 0 0.056445 0.045862 0.10231 0.10407 0.10231 0.058209 0 0.10407-0.045862 0.10407-0.10231z"/>
    <path d="m3.5826-2.39h-0.08114l-0.28223 0.1464 0.028223 0.068793 0.21872-0.061737v0.85021h-0.20461v0.097015h0.51859v-0.097015h-0.19756z"/>
    <path d="m-3.0109 0.10947 0.00176 1.0989h0.12877v-0.40041c0.054681 0.079376 0.14464 0.12877 0.24166 0.12877 0.16581 0 0.33867-0.13935 0.33867-0.43392 0-0.28399-0.16757-0.41099-0.32632-0.41099-0.10407 0-0.20109 0.052917-0.25577 0.14111v-0.12347zm0.33691 0.08996c0.070556 0 0.24166 0.037042 0.24166 0.32985 0 0.254-0.16581 0.29457-0.24166 0.29457-0.075848 0-0.15346-0.038806-0.18521-0.11113-0.022931-0.054681-0.022931-0.12171-0.022931-0.23813 0-0.067029 0.00353-0.11642 0.021167-0.15875 0.03175-0.07232 0.10583-0.11642 0.18697-0.11642z"/>
    <path d="m-2.046 0.10771v0.10407h0.19403v0.60149h-0.20461v0.10054h0.52212v-0.10054h-0.18874v-0.70556zm0.26106-0.34925c-0.051153 0-0.091723 0.04057-0.091723 0.08996s0.04057 0.089959 0.091723 0.089959 0.091723-0.04057 0.091723-0.089959c0-0.04939-0.04057-0.08996-0.091723-0.08996z"/>
    <path d="m-1.2822 0.10771 0.31927 0.81316h0.10054l0.19579-0.46038c0.047626-0.11289 0.093487-0.22931 0.11995-0.35278h-0.11465c-0.021167 0.11818-0.063501 0.22931-0.10936 0.33514l-0.12877 0.29986-0.23284-0.58915c-0.00176-0.003528-0.00353-0.007056-0.00353-0.010584 0-0.010584 0.00882-0.021167 0.00529-0.035278z"/>
    <path d="m0.34233 0.51517c0-0.2787-0.17639-0.42334-0.35984-0.42334-0.20461 0-0.381 0.17639-0.381 0.42687 0 0.24518 0.17463 0.41805 0.37748 0.41805 0.1905 0 0.36337-0.15346 0.36337-0.42157zm-0.36866-0.31574c0.11642 0 0.23989 0.10054 0.23989 0.32103 0 0.20285-0.11642 0.30516-0.23284 0.30516-0.12877 0-0.24518-0.11995-0.24518-0.31927 0-0.19756 0.11465-0.30692 0.23813-0.30692z"/>
    <path d="m0.7445-0.10749-0.015875 0.21696h-0.19227l-0.001764 0.10407h0.18874c-0.010584 0.13759-0.015875 0.27517-0.015875 0.41099 0 0.07232 0 0.15346 0.047626 0.22049 0.038806 0.052917 0.10054 0.084668 0.18345 0.084668 0.095251 0 0.18874-0.04057 0.25753-0.08996l-0.038806-0.10054c-0.068793 0.051153-0.13229 0.074084-0.18168 0.074084-0.059973 0-0.12171-0.033514-0.13582-0.13053 0-0.007056-0.005292-0.037042-0.005292-0.15522 0-0.10407 0.005292-0.20991 0.015875-0.31398h0.26459v-0.10583h-0.26282s0.012347-0.14464 0.021167-0.1905c0.001764-0.017639 0.015875-0.028223 0.00882-0.047626z"/>
    <path d="m1.8187 0.26999c0-0.054681-0.045862-0.10054-0.10407-0.10054-0.058209 0-0.10407 0.045862-0.10407 0.10054 0 0.056445 0.045862 0.10054 0.10407 0.10054 0.058209 0 0.10407-0.044098 0.10407-0.10054zm0 0.56269c0-0.054681-0.045862-0.10054-0.10407-0.10054-0.058209 0-0.10407 0.045862-0.10407 0.10054 0 0.056445 0.045862 0.10231 0.10407 0.10231 0.058209 0 0.10407-0.045862 0.10407-0.10231z"/>
    <path d="m3.2898-0.26624v1.337h0.50448v-0.10054h-0.39159v-1.1324h0.38982v-0.10407z"/>
    <path d="m4.0765-0.014002 0.089959 0.07232c0.010583-0.015875 0.00529-0.026459 0.015875-0.04057 0.026459-0.04057 0.091723-0.10054 0.18697-0.10054 0.11818 0 0.21167 0.089959 0.21167 0.20814 0 0.13406-0.11289 0.23107-0.19227 0.30339-0.12524 0.11289-0.22754 0.22578-0.31927 0.40746v0.077612h0.64559v-0.12171c-0.012347-0.005292-0.021167 0.003528-0.024695 0.007056-0.00706 0.007056-0.010583 0.007056-0.017639 0.007056h-0.46214c0.091723-0.15875 0.22049-0.26812 0.29986-0.3422 0.079376-0.075848 0.19227-0.18874 0.19227-0.34749 0-0.1711-0.13935-0.30868-0.3175-0.30868-0.12524 0-0.24342 0.067029-0.30868 0.17816z"/>
    <path d="m5.2654-0.19216c-0.17463 0-0.35455 0.2152-0.35455 0.56622 0 0.35631 0.18168 0.56092 0.35631 0.56092 0.15875 0 0.34749-0.17286 0.34749-0.5521 0-0.37395-0.17992-0.57504-0.34925-0.57504zm0.1711 0.25224-0.3863 0.50095c-0.015875-0.061737-0.024695-0.13053-0.024695-0.20814 0-0.28223 0.12877-0.43745 0.23813-0.43745 0.059973 0 0.12524 0.047626 0.17286 0.14464zm0.04057 0.11642c0.015875 0.061737 0.022931 0.13582 0.022931 0.22225 0 0.30692-0.13229 0.42334-0.22931 0.42334-0.065265 0-0.13229-0.052917-0.17992-0.14993z"/>
    <path d="m6.2426 0.8803c0-0.08996-0.059973-0.1464-0.12171-0.1464-0.058209 0-0.10231 0.047626-0.10231 0.10054 0 0.047626 0.033514 0.067029 0.04939 0.077612 0.015875 0.010584 0.04057 0.026459 0.04057 0.063501 0 0.028223-0.015875 0.058209-0.024695 0.07232-0.017639 0.028223-0.047626 0.07232-0.089959 0.11113l0.061737 0.052917c0.12347-0.12524 0.18697-0.23989 0.18697-0.33162z"/>
    <path d="m6.7224-0.014002 0.089959 0.07232c0.010584-0.015875 0.00529-0.026459 0.015875-0.04057 0.026459-0.04057 0.091723-0.10054 0.18697-0.10054 0.11818 0 0.21167 0.089959 0.21167 0.20814 0 0.13406-0.11289 0.23107-0.19227 0.30339-0.12524 0.11289-0.22754 0.22578-0.31927 0.40746v0.077612h0.64559v-0.12171c-0.012347-0.005292-0.021167 0.003528-0.024695 0.007056-0.00706 0.007056-0.010584 0.007056-0.017639 0.007056h-0.46214c0.091723-0.15875 0.22049-0.26812 0.29986-0.3422 0.079376-0.075848 0.19227-0.18874 0.19227-0.34749 0-0.1711-0.13935-0.30868-0.3175-0.30868-0.12524 0-0.24342 0.067029-0.30868 0.17816z"/>
    <path d="m7.9113-0.19216c-0.17463 0-0.35455 0.2152-0.35455 0.56622 0 0.35631 0.18168 0.56092 0.35631 0.56092 0.15875 0 0.34749-0.17286 0.34749-0.5521 0-0.37395-0.17992-0.57504-0.34925-0.57504zm0.1711 0.25224-0.3863 0.50095c-0.015875-0.061737-0.024695-0.13053-0.024695-0.20814 0-0.28223 0.12877-0.43745 0.23813-0.43745 0.059973 0 0.12524 0.047626 0.17286 0.14464zm0.04057 0.11642c0.015875 0.061737 0.022931 0.13582 0.022931 0.22225 0 0.30692-0.13229 0.42334-0.22931 0.42334-0.065265 0-0.13229-0.052917-0.17992-0.14993z"/>
    <path d="m9.0014-0.26624h-0.50448v0.10407h0.39159v1.1324h-0.39335v0.10054h0.50624z"/>
    <path d="m-2.9403 2.3144v0.80611h0.127v-0.39159c0-0.049389 0.00176-0.10231 0.056445-0.18874 0.074084-0.11642 0.16934-0.13582 0.22754-0.13582 0.067029 0 0.10936 0.03175 0.13229 0.059973 0.010583 0.014111 0.015875 0.028223 0.029986 0.04057l0.059973-0.12171c-0.051154-0.052917-0.12524-0.088196-0.2152-0.088196-0.11818 0-0.23813 0.059973-0.29105 0.17463l0.00529-0.15522z"/>
    <path d="m-1.4216 2.7201c0-0.2787-0.17639-0.42334-0.35984-0.42334-0.20461 0-0.381 0.17639-0.381 0.42687 0 0.24518 0.17463 0.41805 0.37748 0.41805 0.1905 0 0.36337-0.15346 0.36337-0.42157zm-0.36866-0.31574c0.11642 0 0.23989 0.10054 0.23989 0.32103 0 0.20285-0.11642 0.30516-0.23284 0.30516-0.12877 0-0.24518-0.11995-0.24518-0.31927 0-0.19756 0.11465-0.30692 0.23813-0.30692z"/>
    <path d="m-1.0194 2.0974-0.015875 0.21696h-0.19227l-0.00176 0.10407h0.18874c-0.010583 0.13759-0.015875 0.27517-0.015875 0.41099 0 0.07232 0 0.15346 0.047626 0.22049 0.038806 0.052917 0.10054 0.084668 0.18345 0.084668 0.095251 0 0.18874-0.04057 0.25753-0.089959l-0.038806-0.10054c-0.068792 0.051154-0.13229 0.074084-0.18168 0.074084-0.059973 0-0.12171-0.033514-0.13582-0.13053 0-0.00706-0.005292-0.037042-0.005292-0.15522 0-0.10407 0.005292-0.20991 0.015875-0.31398h0.26459v-0.10584h-0.26282s0.012347-0.14464 0.021167-0.1905c0.001764-0.017639 0.015875-0.028223 0.00882-0.047626z"/>
    <path d="m-0.31032 2.4078 0.061737 0.08114c0.067029-0.068793 0.15699-0.089959 0.23284-0.089959 0.095251 0 0.14288 0.04057 0.16581 0.077612 0.026459 0.044098 0.024695 0.097015 0.024695 0.13935v0.028223h-0.024695c-0.11995 0-0.24695 0-0.34925 0.037042-0.127 0.045862-0.18345 0.14111-0.18345 0.22931 0 0.11818 0.10231 0.22931 0.26988 0.22931 0.098779 0 0.20109-0.037042 0.28928-0.10936v0.088196h0.11995v-0.49919c0-0.065265-0.001764-0.127-0.038806-0.1905-0.052917-0.086432-0.15522-0.13229-0.28046-0.13229-0.1076 0-0.21167 0.033514-0.28752 0.11113zm0.49037 0.33338v0.054681c0 0.04057 0 0.093487-0.054681 0.1517-0.029986 0.029987-0.10583 0.095251-0.21167 0.095251-0.1076 0-0.16934-0.068793-0.16934-0.13935 0-0.059973 0.04057-0.12524 0.14111-0.14993 0.074084-0.017639 0.18168-0.012347 0.26635-0.012347z"/>
    <path d="m0.7445 2.0974-0.015875 0.21696h-0.19227l-0.001764 0.10407h0.18874c-0.010584 0.13759-0.015875 0.27517-0.015875 0.41099 0 0.07232 0 0.15346 0.047626 0.22049 0.038806 0.052917 0.10054 0.084668 0.18345 0.084668 0.095251 0 0.18874-0.04057 0.25753-0.089959l-0.038806-0.10054c-0.068793 0.051154-0.13229 0.074084-0.18168 0.074084-0.059973 0-0.12171-0.033514-0.13582-0.13053 0-0.00706-0.005292-0.037042-0.005292-0.15522 0-0.10407 0.005292-0.20991 0.015875-0.31398h0.26459v-0.10583h-0.26282s0.012347-0.14464 0.021167-0.1905c0.001764-0.017639 0.015875-0.028223 0.00882-0.047626z"/>
    <path d="m1.4818 2.3126v0.10407h0.19403v0.60149h-0.20461v0.10054h0.52212v-0.10054h-0.18874v-0.70556zm0.26106-0.34925c-0.051153 0-0.091723 0.04057-0.091723 0.08996 0 0.049389 0.04057 0.089959 0.091723 0.089959 0.051154 0 0.091723-0.04057 0.091723-0.089959 0-0.04939-0.04057-0.08996-0.091723-0.08996z"/>
    <path d="m2.9882 2.7201c0-0.2787-0.17639-0.42334-0.35984-0.42334-0.20461 0-0.381 0.17639-0.381 0.42687 0 0.24518 0.17463 0.41805 0.37748 0.41805 0.1905 0 0.36337-0.15346 0.36337-0.42157zm-0.36866-0.31574c0.11642 0 0.23989 0.10054 0.23989 0.32103 0 0.20285-0.11642 0.30516-0.23284 0.30516-0.12877 0-0.24518-0.11995-0.24518-0.31927 0-0.19756 0.11465-0.30692 0.23813-0.30692z"/>
    <path d="m3.1787 3.1187h0.12877v-0.46391c0-0.052917 0.00706-0.093487 0.04057-0.13759 0.029986-0.04057 0.1076-0.11289 0.19227-0.11289 0.04057 0 0.08114 0.017639 0.10936 0.051154 0.044098 0.052917 0.044098 0.12171 0.044098 0.17816v0.48508h0.12524v-0.4886c0-0.061737 0-0.12877-0.028223-0.19403-0.04057-0.089959-0.12347-0.14111-0.2152-0.14111-0.10936 0-0.20814 0.070556-0.26811 0.16052v-0.14111h-0.12877z"/>
    <path d="m4.4646 2.4749c0-0.054681-0.045862-0.10054-0.10407-0.10054-0.058209 0-0.10407 0.045862-0.10407 0.10054 0 0.056445 0.045862 0.10054 0.10407 0.10054 0.058209 0 0.10407-0.044098 0.10407-0.10054zm0 0.56269c0-0.054681-0.045862-0.10054-0.10407-0.10054-0.058209 0-0.10407 0.045862-0.10407 0.10054 0 0.056445 0.045862 0.10231 0.10407 0.10231 0.058209 0 0.10407-0.045862 0.10407-0.10231z"/>
    <path d="m5.8916 2.0198-0.038806 0.55916 0.079376 0.03175c0.052917-0.067029 0.13053-0.10407 0.20638-0.10407 0.11465 0 0.22402 0.088196 0.22402 0.26282 0 0.16934-0.10407 0.26106-0.22225 0.26106-0.11818 0-0.19579-0.089959-0.20109-0.10054-0.00706-0.014111 0.00176-0.03175-0.014111-0.042334l-0.10936 0.082904c0.074084 0.1076 0.19579 0.16934 0.32632 0.16934 0.1905 0 0.34749-0.12877 0.34749-0.36689 0-0.23636-0.14817-0.36689-0.33338-0.36689-0.059973 0-0.12171 0.014111-0.17816 0.042334l0.015875-0.3175h0.45509v-0.11113z"/>
    <path d="m6.9623 2.205 0.026459 0.31221-0.28399-0.13406-0.045862 0.11465 0.30516 0.091723-0.23107 0.26459 0.097015 0.077612 0.19756-0.29281 0.1905 0.29105 0.095251-0.075848-0.22225-0.26635 0.30339-0.08996-0.047626-0.10936-0.28046 0.12877 0.028223-0.26459c0.00176-0.022931 0.00706-0.026459 0.010583-0.047626z"/>
    <path d="m7.5708 2.0198v1.0989h0.12877v-0.48508h0.2152c0.068792 0 0.13406-0.00176 0.20109-0.035278 0.10231-0.051153 0.15522-0.15699 0.15522-0.26811s-0.052917-0.21872-0.15699-0.27164c-0.068792-0.037042-0.13758-0.038806-0.20814-0.038806zm0.12877 0.11642h0.20638c0.045862 0 0.089959 0.00176 0.13582 0.022931 0.067029 0.035278 0.10407 0.10583 0.10407 0.17639 0 0.070556-0.035278 0.13582-0.098779 0.16757-0.042334 0.021167-0.084668 0.022931-0.127 0.022931h-0.22225z"/>
    <path d="m8.5057 2.0198v0.10407h0.20285v0.8943h-0.2152v0.10231h0.56798v-0.10054h-0.22931v-0.89607h0.21696v-0.10407z"/>
    <path d="m9.3436 3.1416 0.10407 0.052917 0.55387-1.1942-0.10407-0.052917z"/>
    <path d="m10.638 2.0198h-0.08114l-0.28223 0.1464 0.02822 0.068793 0.21872-0.061737v0.85021h-0.20461v0.097015h0.51859v-0.097015h-0.19756z"/>
    <path d="m11.132 2.1909 0.08996 0.07232c0.01058-0.015875 0.0053-0.026459 0.01587-0.04057 0.02646-0.04057 0.09172-0.10054 0.18698-0.10054 0.11818 0 0.21167 0.089959 0.21167 0.20814 0 0.13406-0.11289 0.23107-0.19227 0.30339-0.12524 0.11289-0.22754 0.22578-0.31927 0.40746v0.077612h0.64559v-0.12171c-0.01235-0.00529-0.02117 0.00353-0.02469 0.00706-0.0071 0.00706-0.01058 0.00706-0.01764 0.00706h-0.46214c0.09172-0.15875 0.22049-0.26811 0.29986-0.3422 0.07938-0.075848 0.19227-0.18874 0.19227-0.34749 0-0.1711-0.13935-0.30868-0.3175-0.30868-0.12524 0-0.24342 0.067029-0.30868 0.17816z"/>
   </g>
   <path d="m-17.635-64.626v-1.3229h26.459v1.3229" fill="none" stroke="#d54747" stroke-width=".28231"/>
   <path d="m10.146-63.303h1.3229v39.688h-1.3229" fill="none" stroke="#d54747" stroke-width=".28231"/>
   <g transform="rotate(90)" fill="#e9e56f" stroke-width=".28223px" aria-label="150">
    <path d="m-44.054-14.879h-0.08114l-0.28223 0.1464 0.02822 0.06879 0.21872-0.06174v0.8502h-0.20461v0.09702h0.51859v-0.09702h-0.19756z"/>
    <path d="m-43.509-14.879-0.03881 0.55916 0.07938 0.03175c0.05292-0.06703 0.13053-0.10407 0.20638-0.10407 0.11465 0 0.22402 0.0882 0.22402 0.26282 0 0.16934-0.10407 0.26106-0.22225 0.26106s-0.19579-0.08996-0.20109-0.10054c-0.0071-0.01411 0.0018-0.03175-0.01411-0.04233l-0.10936 0.0829c0.07408 0.1076 0.19579 0.16934 0.32632 0.16934 0.1905 0 0.34749-0.12877 0.34749-0.36689 0-0.23636-0.14817-0.36689-0.33338-0.36689-0.05997 0-0.12171 0.01411-0.17816 0.04233l0.01588-0.3175h0.45509v-0.11113z"/>
    <path d="m-42.371-14.886c-0.17463 0-0.35455 0.2152-0.35455 0.56622 0 0.35631 0.18168 0.56092 0.35631 0.56092 0.15875 0 0.34749-0.17286 0.34749-0.5521 0-0.37395-0.17992-0.57504-0.34926-0.57504zm0.1711 0.25224-0.3863 0.50095c-0.01587-0.06174-0.02469-0.13053-0.02469-0.20814 0-0.28223 0.12877-0.43745 0.23813-0.43745 0.05997 0 0.12524 0.04763 0.17286 0.14464zm0.04057 0.11642c0.01588 0.06174 0.02293 0.13582 0.02293 0.22225 0 0.30692-0.13229 0.42334-0.22931 0.42334-0.06526 0-0.13229-0.05292-0.17992-0.14993z"/>
   </g>
  </g>
  <rect transform="rotate(165)" x="-13.996" y="44.216" width="10.583" height="10.583" fill="#ff3030" style="paint-order:fill markers stroke"/>
  <g fill="#e9e56f">
   <path d="m-4.4727-63.039h0.13281v-0.13086h-0.13281zm0 0.26562h0.13281v-0.13281h-0.13281zm0 0.26367h0.13281v-0.13086h-0.13281zm0 0.26562h0.13281v-0.13281h-0.13281zm0 0.26367h0.13281v-0.13086h-0.13281zm0 0.26562h0.13281v-0.13281h-0.13281zm0 0.26367h0.13281v-0.13281h-0.13281zm0 0.26562h0.13281v-0.13281h-0.13281zm0 0.26367h0.13281v-0.13281h-0.13281zm0 0.26562h0.13281v-0.13281h-0.13281zm0 0.26367h0.13281v-0.13281h-0.13281zm0 0.26562h0.13281v-0.13281h-0.13281zm0 0.26367h0.13281v-0.13281h-0.13281zm0 0.26367h0.13281v-0.13086h-0.13281zm0 0.26562h0.13281v-0.13281h-0.13281zm0 0.26367h0.13281v-0.13086h-0.13281zm0 0.26562h0.13281v-0.13281h-0.13281zm0 0.26367h0.13281v-0.13086h-0.13281zm0 0.26562h0.13281v-0.13281h-0.13281zm0 0.26367h0.13281v-0.13086h-0.13281zm0 0.26562h0.13281v-0.13281h-0.13281zm0 0.26367h0.13281v-0.13281h-0.13281zm0 0.26562h0.13281v-0.13281h-0.13281zm0 0.26367h0.13281v-0.13281h-0.13281zm0 0.26562h0.13281v-0.13281h-0.13281zm0 0.26367h0.13281v-0.13281h-0.13281zm0 0.26562h0.13281v-0.13281h-0.13281zm0 0.26367h0.13281v-0.13281h-0.13281zm0 0.26562h0.13281v-0.13281h-0.13281zm0 0.26367h0.13281v-0.13281h-0.13281zm0 0.26367h0.13281v-0.13086h-0.13281zm0 0.26562h0.13281v-0.13281h-0.13281zm0 0.26367h0.13281v-0.13086h-0.13281zm0 0.26562h0.13281v-0.13281h-0.13281zm0 0.26367h0.13281v-0.13086h-0.13281zm0 0.26562h0.13281v-0.13281h-0.13281zm0 0.26367h0.13281v-0.13086h-0.13281zm0 0.26562h0.13281v-0.13281h-0.13281zm0 0.26367h0.13281v-0.13281h-0.13281zm0 0.26562h0.13281v-0.13281h-0.13281zm0 0.26367h0.13281v-0.13281h-0.13281zm0 0.26562h0.13281v-0.13281h-0.13281zm0 0.26367h0.13281v-0.13281h-0.13281zm0 0.26562h0.13281v-0.13281h-0.13281zm0 0.26367h0.13281v-0.13281h-0.13281zm0 0.26367h0.13281v-0.13086h-0.13281zm0 0.26562h0.13281v-0.13281h-0.13281zm0 0.26367h0.13281v-0.13086h-0.13281zm0 0.26562h0.13281v-0.13281h-0.13281zm0 0.26367h0.13281v-0.13086h-0.13281zm0.19922 0.06641h0.13281v-0.13281h-0.13281zm0.26367 0h0.13281v-0.13281h-0.13281zm0.26562 0h0.13281v-0.13281h-0.13281zm0.26367 0h0.13281v-0.13281h-0.13281zm0.26562 0h0.13281v-0.13281h-0.13281zm0.26367 0h0.13281v-0.13281h-0.13281zm0.26562 0h0.13086v-0.13281h-0.13086zm0.26367 0h0.13281v-0.13281h-0.13281zm0.26562 0h0.13086v-0.13281h-0.13086zm0.26367 0h0.13281v-0.13281h-0.13281zm0.26562 0h0.13086v-0.13281h-0.13086zm0.26367 0h0.13281v-0.13281h-0.13281zm0.26562 0h0.13086v-0.13281h-0.13086zm0.26367 0h0.13281v-0.13281h-0.13281zm0.26367 0h0.13281v-0.13281h-0.13281zm0.26562 0h0.13281v-0.13281h-0.13281zm0.26367 0h0.13281v-0.13281h-0.13281zm0.26562 0h0.13281v-0.13281h-0.13281zm0.26367 0h0.13281v-0.13281h-0.13281zm0.26562 0h0.13281v-0.13281h-0.13281zm0.26367 0h0.13281v-0.13281h-0.13281zm0.26562 0h0.13086v-0.13281h-0.13086zm0.26367 0h0.13281v-0.13281h-0.13281zm0.26562 0h0.13086v-0.13281h-0.13086zm0.26367 0h0.13281v-0.13281h-0.13281zm0.26562 0h0.13086v-0.13281h-0.13086zm0.26367 0h0.13281v-0.13281h-0.13281zm0.26562 0h0.13086v-0.13281h-0.13086zm0.26367 0h0.13281v-0.13281h-0.13281zm0.26367 0h0.13281v-0.13281h-0.13281zm0.26562 0h0.13281v-0.13281h-0.13281zm0.26367 0h0.13281v-0.13281h-0.13281zm0.26562 0h0.13281v-0.13281h-0.13281zm0.26367 0h0.13281v-0.13281h-0.13281zm0.26562 0h0.13281v-0.13281h-0.13281zm0.26367 0h0.13281v-0.13281h-0.13281zm0.26562 0h0.13086v-0.13281h-0.13086zm0.26367 0h0.13281v-0.13281h-0.13281zm0.26562 0h0.13086v-0.13281h-0.13086zm0.26367 0h0.13281v-0.13281h-0.13281zm0.26562 0h0.13086v-0.13281h-0.13086zm0.26367 0h0.13281v-0.13281h-0.13281zm0.26562 0h0.13086v-0.13281h-0.13086zm0.26367 0h0.13281v-0.13281h-0.13281zm0.26562 0h0.13086v-0.13281h-0.13086zm0.26367 0h0.13281v-0.13281h-0.13281zm0.26367 0h0.13281v-0.13281h-0.13281zm0.26562 0h0.13281v-0.13281h-0.13281zm0.26367 0h0.13281v-0.13281h-0.13281zm0.26562 0h0.13281v-0.13281h-0.13281z" color="#000000" color-rendering="auto" dominant-baseline="auto" image-rendering="auto" shape-rendering="auto" solid-color="#000000" style="font-feature-settings:normal;font-variant-alternates:normal;font-variant-caps:normal;font-variant-ligatures:normal;font-variant-numeric:normal;font-variant-position:normal;isolation:auto;mix-blend-mode:normal;shape-padding:0;text-decoration-color:#000000;text-decoration-line:none;text-decoration-style:solid;text-indent:0;text-orientation:mixed;text-transform:none;white-space:normal"/>
   <g stroke-width=".28223px">
    <g aria-label="100">
     <path d="m-5.6606-69.831h-0.08114l-0.28223 0.1464 0.028223 0.06879 0.21872-0.06174v0.85021h-0.20461v0.09701h0.51859v-0.09701h-0.19756z"/>
     <path d="m-4.8598-69.838c-0.17463 0-0.35455 0.2152-0.35455 0.56622 0 0.35631 0.18168 0.56092 0.35631 0.56092 0.15875 0 0.34749-0.17286 0.34749-0.5521 0-0.37395-0.17992-0.57504-0.34925-0.57504zm0.1711 0.25224-0.3863 0.50095c-0.015875-0.06174-0.024695-0.13053-0.024695-0.20814 0-0.28223 0.12877-0.43745 0.23813-0.43745 0.059973 0 0.12524 0.04763 0.17286 0.14464zm0.04057 0.11642c0.015875 0.06174 0.022931 0.13582 0.022931 0.22225 0 0.30692-0.13229 0.42334-0.22931 0.42334-0.065265 0-0.13229-0.05292-0.17992-0.14993z"/>
     <path d="m-3.9778-69.838c-0.17463 0-0.35455 0.2152-0.35455 0.56622 0 0.35631 0.18168 0.56092 0.35631 0.56092 0.15875 0 0.34749-0.17286 0.34749-0.5521 0-0.37395-0.17992-0.57504-0.34925-0.57504zm0.1711 0.25224-0.3863 0.50095c-0.015875-0.06174-0.024695-0.13053-0.024695-0.20814 0-0.28223 0.12877-0.43745 0.23813-0.43745 0.059973 0 0.12524 0.04763 0.17286 0.14464zm0.04057 0.11642c0.015875 0.06174 0.022931 0.13582 0.022931 0.22225 0 0.30692-0.13229 0.42334-0.22931 0.42334-0.065265 0-0.13229-0.05292-0.17992-0.14993z"/>
    </g>
    <g transform="rotate(90)" aria-label="screen.width">
     <path d="m-47.784-12.891c-0.07408-0.08114-0.18168-0.12524-0.30163-0.12524-0.18697 0-0.30868 0.10407-0.30868 0.22402 0 0.14111 0.1517 0.19227 0.19579 0.20814 0.06879 0.02469 0.15699 0.04586 0.21696 0.07408 0.06703 0.03175 0.07938 0.07408 0.07938 0.10231 0 0.07585-0.09172 0.127-0.20638 0.127-0.13759 0-0.22578-0.0829-0.25224-0.11113-0.0053-0.0071-0.0053-0.01235-0.0053-0.0194 0-0.0018 0.0018-0.01235-0.0071-0.01587l-0.07408 0.12524c0.09525 0.0882 0.21872 0.12876 0.34043 0.12876 0.22049 0 0.33514-0.13053 0.33514-0.25224 0-0.05468-0.02293-0.12876-0.11818-0.18168-0.08996-0.05115-0.22049-0.06879-0.29634-0.10584-0.06526-0.03175-0.07938-0.07056-0.07938-0.09878 0-0.0635 0.07938-0.10936 0.16934-0.10936 0.11642 0 0.19403 0.07056 0.22402 0.11113 0.0053 0.0053 0.0035 0.01058 0.0035 0.01588 0 0.01058 0.0071 0.01411 0.01058 0.01411z"/>
     <path d="m-46.86-12.864c-0.0635-0.09349-0.1711-0.14993-0.30163-0.14993-0.23636 0-0.40394 0.17816-0.40394 0.41981 0 0.24342 0.16757 0.42334 0.39688 0.42334 0.11113 0 0.22049-0.04586 0.29634-0.12876l-0.07232-0.08467c-0.05468 0.06174-0.13406 0.09701-0.21343 0.09701-0.15699 0-0.27693-0.13053-0.27693-0.31927 0-0.18345 0.11818-0.2981 0.26635-0.2981 0.13758 0 0.20285 0.09525 0.20814 0.10584 0.0071 0.01235-0.0035 0.02999 0.01058 0.04057z"/>
     <path d="m-46.608-12.996v0.80611h0.127v-0.39159c0-0.04939 0.0018-0.10231 0.05645-0.18874 0.07408-0.11642 0.16934-0.13582 0.22754-0.13582 0.06703 0 0.10936 0.03175 0.13229 0.05997 0.01058 0.01411 0.01588 0.02822 0.02999 0.04057l0.05997-0.12171c-0.05115-0.05292-0.12524-0.08819-0.2152-0.08819-0.11818 0-0.23813 0.05997-0.29104 0.17463l0.0053-0.15522z"/>
     <path d="m-45.445-13.016c-0.19227 0-0.37042 0.13758-0.37042 0.43039 0 0.26988 0.16757 0.41276 0.3863 0.41276 0.11642 0 0.22049-0.04233 0.28928-0.12524l-0.07056-0.06879c-0.05115 0.05997-0.12877 0.09172-0.20814 0.09172-0.1076 0-0.26459-0.05997-0.27341-0.30163h0.57151c0.0053-0.05468 0.0035-0.1076-0.0053-0.15346-0.03704-0.21696-0.18698-0.28575-0.31927-0.28575zm-0.24342 0.3422c0.02646-0.1905 0.14817-0.24518 0.2346-0.24518 0.13053 0 0.22402 0.11465 0.20814 0.24518z"/>
     <path d="m-44.563-13.016c-0.19227 0-0.37042 0.13758-0.37042 0.43039 0 0.26988 0.16757 0.41276 0.3863 0.41276 0.11642 0 0.22049-0.04233 0.28928-0.12524l-0.07056-0.06879c-0.05115 0.05997-0.12877 0.09172-0.20814 0.09172-0.1076 0-0.26459-0.05997-0.27341-0.30163h0.57151c0.0053-0.05468 0.0035-0.1076-0.0053-0.15346-0.03704-0.21696-0.18697-0.28575-0.31927-0.28575zm-0.24342 0.3422c0.02646-0.1905 0.14817-0.24518 0.2346-0.24518 0.13053 0 0.22402 0.11465 0.20814 0.24518z"/>
     <path d="m-44.017-12.192h0.12877v-0.46391c0-0.05292 0.0071-0.09349 0.04057-0.13758 0.02999-0.04057 0.1076-0.11289 0.19227-0.11289 0.04057 0 0.08114 0.01764 0.10936 0.05115 0.0441 0.05292 0.0441 0.12171 0.0441 0.17816v0.48508h0.12524v-0.4886c0-0.06174 0-0.12877-0.02822-0.19403-0.04057-0.08996-0.12347-0.14111-0.2152-0.14111-0.10936 0-0.20814 0.07056-0.26811 0.16052v-0.14111h-0.12877z"/>
     <path d="m-42.731-12.273c0-0.05468-0.04586-0.10054-0.10407-0.10054s-0.10407 0.04586-0.10407 0.10054c0 0.05645 0.04586 0.10231 0.10407 0.10231 0.05821 0 0.10407-0.04586 0.10407-0.10231z"/>
     <path d="m-42.346-12.998 0.16228 0.80787h0.11465l0.14111-0.52212 0.14993 0.52212h0.11818c0.05468-0.26635 0.10054-0.53623 0.13406-0.80611h-0.11642c0.0035 0.09702-0.0053 0.18697-0.07585 0.64559l-0.16934-0.57151h-0.07761l-0.13935 0.57327-0.11642-0.58209c-0.0035-0.01235-0.0035-0.01764 0.0018-0.03175 0.0018-0.0088 0.0071-0.02117 0.0018-0.03528z"/>
     <path d="m-41.304-12.998v0.10407h0.19403v0.60149h-0.20461v0.10054h0.52212v-0.10054h-0.18874v-0.70556zm0.26106-0.34926c-0.05115 0-0.09172 0.04057-0.09172 0.08996s0.04057 0.08996 0.09172 0.08996 0.09172-0.04057 0.09172-0.08996-0.04057-0.08996-0.09172-0.08996z"/>
     <path d="m-39.954-12.88c-0.03881-0.0829-0.12524-0.13758-0.23636-0.13758-0.15346 0-0.34044 0.10936-0.34044 0.41628 0 0.2981 0.16581 0.42863 0.32103 0.42863 0.10231 0 0.19756-0.05821 0.24871-0.14817v0.07056c0 0.0194 0.0018 0.03881 0.0071 0.05821h0.127c-0.0071-0.02293-0.0071-0.04939-0.0071-0.07408l-0.0018-1.0478c0-0.01058 0-0.01411 0.0071-0.02469 0.0035-0.0053 0.01058-0.01411 0.0088-0.02646h-0.13406zm-0.23107-0.03351c0.07056 0 0.17463 0.03704 0.20638 0.15699 0.01058 0.03704 0.01411 0.08114 0.01411 0.1711 0 0.06174-0.0035 0.10584-0.01764 0.14817-0.02999 0.09525-0.11465 0.1517-0.19756 0.1517-0.09172 0-0.22754-0.07056-0.22754-0.33514 0-0.23107 0.12877-0.29281 0.22225-0.29281z"/>
     <path d="m-39.395-13.213-0.01588 0.21696h-0.19227l-0.0018 0.10407h0.18874c-0.01058 0.13758-0.01587 0.27517-0.01587 0.41099 0 0.07232 0 0.15346 0.04762 0.22049 0.03881 0.05292 0.10054 0.08467 0.18345 0.08467 0.09525 0 0.18874-0.04057 0.25753-0.08996l-0.03881-0.10054c-0.06879 0.05115-0.13229 0.07408-0.18168 0.07408-0.05997 0-0.12171-0.03351-0.13582-0.13053 0-0.0071-0.0053-0.03704-0.0053-0.15522 0-0.10407 0.0053-0.20991 0.01588-0.31398h0.26459v-0.10584h-0.26282s0.01235-0.14464 0.02117-0.1905c0.0018-0.01764 0.01588-0.02822 0.0088-0.04763z"/>
     <path d="m-38.723-12.192h0.13053v-0.46391c0-0.05292 0.0053-0.09349 0.03881-0.13758 0.03175-0.04057 0.10936-0.11289 0.19403-0.11289 0.04057 0 0.08114 0.01764 0.10936 0.05115 0.0441 0.05292 0.0441 0.12171 0.0441 0.17816v0.48508h0.12524v-0.4886c0-0.06174-0.0018-0.12877-0.02999-0.19403-0.04057-0.08996-0.12171-0.14111-0.21343-0.14111-0.10936 0-0.20991 0.07056-0.26812 0.16052v-0.46744c0-0.0053 0-0.01058 0.0053-0.01587 0.0053-0.0053 0.01235-0.01058 0.01235-0.0194 0-0.0018 0-0.0035-0.0018-0.0053h-0.1464z"/>
    </g>
    <g aria-label="screen.height">
     <path d="m-10.185-67.578c-0.07409-0.08114-0.18168-0.12524-0.30163-0.12524-0.18698 0-0.30868 0.10407-0.30868 0.22402 0 0.14111 0.1517 0.19227 0.19579 0.20814 0.06879 0.02469 0.15699 0.04586 0.21696 0.07408 0.06703 0.03175 0.07938 0.07408 0.07938 0.10231 0 0.07585-0.09172 0.127-0.20638 0.127-0.13758 0-0.22578-0.0829-0.25224-0.11113-0.0053-0.0071-0.0053-0.01235-0.0053-0.0194 0-0.0018 0.0018-0.01235-0.0071-0.01587l-0.07408 0.12524c0.09525 0.08819 0.21872 0.12876 0.34044 0.12876 0.22049 0 0.33514-0.13053 0.33514-0.25224 0-0.05468-0.02293-0.12877-0.11818-0.18168-0.08996-0.05115-0.22049-0.06879-0.29634-0.10584-0.06527-0.03175-0.07938-0.07056-0.07938-0.09878 0-0.0635 0.07938-0.10936 0.16934-0.10936 0.11642 0 0.19403 0.07056 0.22402 0.11113 0.0053 0.0053 0.0035 0.01058 0.0035 0.01587 0 0.01058 0.0071 0.01411 0.01058 0.01411z"/>
     <path d="m-9.2607-67.552c-0.063501-0.09349-0.1711-0.14993-0.30163-0.14993-0.23636 0-0.40394 0.17816-0.40394 0.41981 0 0.24342 0.16757 0.42334 0.39688 0.42334 0.11113 0 0.22049-0.04586 0.29634-0.12877l-0.07232-0.08467c-0.054681 0.06174-0.13406 0.09701-0.21343 0.09701-0.15699 0-0.27693-0.13053-0.27693-0.31927 0-0.18345 0.11818-0.2981 0.26635-0.2981 0.13759 0 0.20285 0.09525 0.20814 0.10583 0.00706 0.01235-0.00353 0.02999 0.010583 0.04057z"/>
     <path d="m-9.0085-67.684v0.80611h0.127v-0.39159c0-0.04939 0.00176-0.10231 0.056445-0.18874 0.074084-0.11642 0.16934-0.13582 0.22754-0.13582 0.067029 0 0.10936 0.03175 0.13229 0.05997 0.010583 0.01411 0.015875 0.02822 0.029986 0.04057l0.059973-0.12171c-0.051153-0.05292-0.12524-0.0882-0.2152-0.0882-0.11818 0-0.23813 0.05997-0.29105 0.17463l0.00529-0.15522z"/>
     <path d="m-7.8461-67.704c-0.19227 0-0.37042 0.13758-0.37042 0.4304 0 0.26988 0.16757 0.41276 0.3863 0.41276 0.11642 0 0.22049-0.04233 0.28928-0.12524l-0.070556-0.06879c-0.051153 0.05997-0.12877 0.09172-0.20814 0.09172-0.1076 0-0.26459-0.05997-0.27341-0.30163h0.57151c0.00529-0.05468 0.00353-0.1076-0.00529-0.15346-0.037042-0.21696-0.18697-0.28575-0.31927-0.28575zm-0.24342 0.3422c0.026459-0.1905 0.14817-0.24518 0.2346-0.24518 0.13053 0 0.22402 0.11465 0.20814 0.24518z"/>
     <path d="m-6.9641-67.704c-0.19227 0-0.37042 0.13758-0.37042 0.4304 0 0.26988 0.16757 0.41276 0.3863 0.41276 0.11642 0 0.22049-0.04233 0.28928-0.12524l-0.070557-0.06879c-0.051153 0.05997-0.12877 0.09172-0.20814 0.09172-0.1076 0-0.26459-0.05997-0.27341-0.30163h0.57151c0.00529-0.05468 0.00353-0.1076-0.00529-0.15346-0.037042-0.21696-0.18697-0.28575-0.31927-0.28575zm-0.24342 0.3422c0.026459-0.1905 0.14817-0.24518 0.2346-0.24518 0.13053 0 0.22402 0.11465 0.20814 0.24518z"/>
     <path d="m-6.4173-66.88h0.12877v-0.46391c0-0.05292 0.00706-0.09349 0.04057-0.13758 0.029987-0.04057 0.1076-0.11289 0.19227-0.11289 0.04057 0 0.08114 0.01764 0.10936 0.05115 0.044098 0.05292 0.044098 0.12171 0.044098 0.17816v0.48508h0.12524v-0.4886c0-0.06174 0-0.12877-0.028223-0.19403-0.04057-0.08996-0.12347-0.14111-0.2152-0.14111-0.10936 0-0.20814 0.07056-0.26811 0.16052v-0.14111h-0.12877z"/>
     <path d="m-5.1314-66.961c0-0.05468-0.045862-0.10054-0.10407-0.10054-0.058209 0-0.10407 0.04586-0.10407 0.10054 0 0.05644 0.045862 0.10231 0.10407 0.10231 0.058209 0 0.10407-0.04586 0.10407-0.10231z"/>
     <path d="m-4.6516-66.88h0.13053v-0.46391c0-0.05292 0.00529-0.09349 0.038806-0.13758 0.03175-0.04057 0.10936-0.11289 0.19403-0.11289 0.04057 0 0.08114 0.01764 0.10936 0.05115 0.044098 0.05292 0.044098 0.12171 0.044098 0.17816v0.48508h0.12524v-0.4886c0-0.06174-0.00176-0.12877-0.029986-0.19403-0.04057-0.08996-0.12171-0.14111-0.21343-0.14111-0.10936 0-0.20991 0.07056-0.26811 0.16052v-0.46744c0-0.0053 0-0.01058 0.00529-0.01587 0.00529-0.0053 0.012347-0.01058 0.012347-0.0194 0-0.0018 0-0.0035-0.00176-0.0053h-0.1464z"/>
     <path d="m-3.4363-67.704c-0.19227 0-0.37042 0.13758-0.37042 0.4304 0 0.26988 0.16757 0.41276 0.3863 0.41276 0.11642 0 0.22049-0.04233 0.28928-0.12524l-0.070556-0.06879c-0.051153 0.05997-0.12877 0.09172-0.20814 0.09172-0.1076 0-0.26459-0.05997-0.27341-0.30163h0.57151c0.00529-0.05468 0.00353-0.1076-0.00529-0.15346-0.037042-0.21696-0.18697-0.28575-0.31927-0.28575zm-0.24342 0.3422c0.026459-0.1905 0.14817-0.24518 0.2346-0.24518 0.13053 0 0.22402 0.11465 0.20814 0.24518z"/>
     <path d="m-2.8224-67.686v0.10407h0.19403v0.60149h-0.20461v0.10054h0.52212v-0.10054h-0.18874v-0.70556zm0.26106-0.34926c-0.051153 0-0.091723 0.04057-0.091723 0.08996s0.04057 0.08996 0.091723 0.08996 0.091723-0.04057 0.091723-0.08996-0.04057-0.08996-0.091723-0.08996z"/>
     <path d="m-1.907-67.434c0-0.09701 0.08114-0.17639 0.17816-0.17639 0.098779 0 0.17816 0.07938 0.17816 0.17639 0 0.09702-0.079376 0.17639-0.17816 0.17639s-0.17816-0.07938-0.17816-0.17639zm0.18521-0.27693c-0.16052 0-0.29986 0.127-0.29986 0.28399 0 0.0882 0.044098 0.1711 0.11818 0.21872-0.058209 0.04939-0.091723 0.10407-0.091723 0.15522 0 0.03351 0.014111 0.08114 0.065265 0.1076-0.086432 0.05468-0.13053 0.11466-0.13053 0.17816 0 0.0882 0.08114 0.19227 0.36337 0.19227 0.27341 0 0.37219-0.13935 0.37219-0.24695 0-0.07056-0.04057-0.14111-0.12524-0.17463-0.084668-0.03528-0.18168-0.02293-0.27341-0.02293-0.059973 0-0.098779-0.0053-0.11465-0.01058-0.03175-0.0088-0.049389-0.02822-0.049389-0.05292 0-0.04233 0.049389-0.0829 0.058209-0.08996 0.03175 0.01235 0.067029 0.01764 0.10231 0.01764 0.15875 0 0.28928-0.127 0.28928-0.27517 0-0.04939-0.014111-0.09701-0.04057-0.13758 0.042334-0.02469 0.091723-0.03881 0.14111-0.03881 0.015875 0 0.029987 0.0018 0.045862 0.0053l-0.014111-0.10407c-0.08114-0.0071-0.16228 0.0194-0.22402 0.07056-0.051153-0.04939-0.11818-0.07585-0.19227-0.07585zm-0.12171 0.78847c0.029987 0.0035 0.07232 0.0071 0.13406 0.01058 0.059973 0.0018 0.12524-0.0035 0.1711 0.0035 0.074084 0.01235 0.097015 0.05821 0.097015 0.09349s-0.021167 0.07761-0.075848 0.1076c-0.059973 0.03175-0.127 0.03528-0.18168 0.03528-0.037042 0-0.10583-0.0018-0.16581-0.02646-0.065265-0.02646-0.079376-0.07056-0.079376-0.09878 0-0.05821 0.054681-0.10054 0.10054-0.12524z"/>
     <path d="m-1.1238-66.88h0.13053v-0.46391c0-0.05292 0.005292-0.09349 0.038806-0.13758 0.03175-0.04057 0.10936-0.11289 0.19403-0.11289 0.04057 0 0.08114 0.01764 0.10936 0.05115 0.044098 0.05292 0.044098 0.12171 0.044098 0.17816v0.48508h0.12524v-0.4886c0-0.06174-0.001764-0.12877-0.029986-0.19403-0.04057-0.08996-0.12171-0.14111-0.21343-0.14111-0.10936 0-0.20991 0.07056-0.26811 0.16052v-0.46744c0-0.0053 0-0.01058 0.005292-0.01587 0.005292-0.0053 0.012347-0.01058 0.012347-0.0194 0-0.0018 0-0.0035-0.001764-0.0053h-0.1464z"/>
     <path d="m-0.031923-67.901-0.015875 0.21696h-0.19227l-0.001764 0.10407h0.18874c-0.010583 0.13758-0.015875 0.27517-0.015875 0.41099 0 0.07232 0 0.15346 0.047626 0.22049 0.038806 0.05292 0.10054 0.08467 0.18345 0.08467 0.095251 0 0.18874-0.04057 0.25753-0.08996l-0.038806-0.10054c-0.068792 0.05115-0.13229 0.07408-0.18168 0.07408-0.059973 0-0.12171-0.03351-0.13582-0.13053 0-0.0071-0.0052917-0.03704-0.0052917-0.15522 0-0.10407 0.0052917-0.2099 0.015875-0.31398h0.26459v-0.10583h-0.26282s0.012347-0.14464 0.021167-0.1905c0.0017639-0.01764 0.015875-0.02822 0.0088196-0.04763z"/>
    </g>
   </g>
  </g>
  <g>
   <circle transform="rotate(90)" cx="-50.074" cy="4.4059" r=".91719" fill="#fff" stroke="#d54747" stroke-linejoin="round" stroke-width=".28231" style="paint-order:fill markers stroke"/>
   <g transform="rotate(90)" fill="#e9e56f" stroke-width=".28223px" aria-label="y=50">
    <path d="m-48.949-4.3515 0.32809 0.80258-0.02646 0.058209c-0.01411 0.033514-0.02999 0.067029-0.05468 0.093487-0.03351 0.037042-0.07585 0.052917-0.11289 0.052917-0.05997 0-0.08996-0.04057-0.09525-0.047626-0.0053-0.00882-0.0035-0.021167-0.01411-0.029987l-0.06526 0.11465c0.04586 0.044098 0.1076 0.067029 0.17463 0.067029 0.07232 0 0.14817-0.026459 0.20109-0.086432 0.03528-0.04057 0.05292-0.082904 0.07056-0.12877l0.25048-0.66499c0.02999-0.075848 0.05644-0.15346 0.08114-0.23284h-0.13229c-0.01411 0.074084-0.03704 0.14464-0.06174 0.2152l-0.15346 0.43216-0.23636-0.59444c-0.0018-0.00529-0.0018-0.00882-0.0018-0.014111 0-0.012347 0.0088-0.021167 0.0071-0.037042z"/>
    <path d="m-48.069-4.3198v0.1076h0.72497v-0.1076zm0 0.36513v0.1076h0.72497v-0.1076z"/>
    <path d="m-47.078-4.6461-0.03881 0.55916 0.07938 0.03175c0.05292-0.067029 0.13053-0.10407 0.20638-0.10407 0.11466 0 0.22402 0.088196 0.22402 0.26282 0 0.16934-0.10407 0.26106-0.22225 0.26106s-0.19579-0.089959-0.20109-0.10054c-0.0071-0.014111 0.0018-0.03175-0.01411-0.042334l-0.10936 0.082904c0.07408 0.1076 0.19579 0.16934 0.32632 0.16934 0.1905 0 0.34749-0.12877 0.34749-0.36689 0-0.23636-0.14817-0.36689-0.33338-0.36689-0.05997 0-0.12171 0.014111-0.17816 0.042334l0.01588-0.3175h0.45509v-0.11113z"/>
    <path d="m-45.94-4.6532c-0.17463 0-0.35455 0.2152-0.35455 0.56622 0 0.35631 0.18168 0.56092 0.35631 0.56092 0.15875 0 0.34749-0.17286 0.34749-0.5521 0-0.37395-0.17992-0.57504-0.34925-0.57504zm0.1711 0.25224-0.3863 0.50095c-0.01588-0.061737-0.02469-0.13053-0.02469-0.20814 0-0.28223 0.12876-0.43745 0.23813-0.43745 0.05997 0 0.12524 0.047626 0.17286 0.14464zm0.04057 0.11642c0.01588 0.061737 0.02293 0.13582 0.02293 0.22225 0 0.30692-0.13229 0.42334-0.22931 0.42334-0.06526 0-0.13229-0.052917-0.17992-0.14993z"/>
   </g>
   <g transform="rotate(90)" fill="#e9e56f" stroke-width=".28223px" aria-label="x=50">
    <path d="m-60.032 5.1718-0.20109 0.2981-0.21167-0.2981h-0.13758l0.27693 0.39688-0.28223 0.40923h0.14288l0.20991-0.31221 0.22225 0.31221h0.14464l-0.29634-0.41276 0.26106-0.39335z"/>
    <path d="m-59.711 5.2053v0.1076h0.72497v-0.1076zm0 0.36513v0.1076h0.72497v-0.1076z"/>
    <path d="m-58.72 4.879-0.03881 0.55916 0.07938 0.03175c0.05292-0.067029 0.13053-0.10407 0.20638-0.10407 0.11465 0 0.22402 0.088196 0.22402 0.26282 0 0.16934-0.10407 0.26106-0.22225 0.26106s-0.19579-0.089959-0.20109-0.10054c-0.0071-0.014111 0.0018-0.03175-0.01411-0.042334l-0.10936 0.082904c0.07408 0.1076 0.19579 0.16934 0.32632 0.16934 0.1905 0 0.34749-0.12877 0.34749-0.36689 0-0.23636-0.14817-0.36689-0.33338-0.36689-0.05997 0-0.12171 0.014111-0.17816 0.042334l0.01588-0.3175h0.45509v-0.11113z"/>
    <path d="m-57.582 4.872c-0.17463 0-0.35455 0.2152-0.35455 0.56622 0 0.35631 0.18168 0.56092 0.35631 0.56092 0.15875 0 0.34749-0.17286 0.34749-0.5521 0-0.37395-0.17992-0.57504-0.34926-0.57504zm0.1711 0.25224-0.3863 0.50095c-0.01588-0.061737-0.0247-0.13053-0.0247-0.20814 0-0.28223 0.12877-0.43745 0.23813-0.43745 0.05997 0 0.12524 0.047626 0.17286 0.14464zm0.04057 0.11642c0.01588 0.061737 0.02293 0.13582 0.02293 0.22225 0 0.30692-0.13229 0.42334-0.22931 0.42334-0.06526 0-0.13229-0.052917-0.17992-0.14993z"/>
   </g>
  </g>
 </g>
</svg>
