<?xml version="1.0" encoding="UTF-8"?>
<svg class="animated inactive" width="160.91" height="162.13" enable-background="new 0 0 198.44 105.83" version="1.1" viewBox="0 0 41.678 22.628" xml:space="preserve" xmlns="http://www.w3.org/2000/svg" xmlns:cc="http://creativecommons.org/ns#" xmlns:dc="http://purl.org/dc/elements/1.1/" xmlns:rdf="http://www.w3.org/1999/02/22-rdf-syntax-ns#"><metadata><rdf:RDF><cc:Work rdf:about=""><dc:format>image/svg+xml</dc:format><dc:type rdf:resource="http://purl.org/dc/dcmitype/StillImage"/><dc:title/></cc:Work></rdf:RDF></metadata>
  <filter id="blur-filter" x="-2" y="-2" width="200" height="200">
    <feGaussianBlur in="SourceGraphic" stdDeviation="2"/>
  </filter><g fill="none" stroke-width=".25901"><path d="m4.5351-7.8848v37.003h35.737" stroke="#a6aeb8"/><g stroke="#e9e56f" stroke-dasharray="0.259013, 0.518027"><path d="m4.7625 25.639h34.472"/><path d="m34.807 29.118v-34.472"/><path d="m7.9251 29.118v-34.472"/><path d="m4.7625 5.7144h34.472"/><path d="m4.7625-2.8247h34.472"/><path d="m20.576 29.118v-34.472"/></g></g><g fill="#e8eaec" fill-rule="evenodd" shape-rendering="auto"><path d="m7.7601 28.552v1.3493h0.33734v-1.3493z" color="#000000" color-rendering="auto" enable-background="accumulate" image-rendering="auto" solid-color="#000000" style="isolation:auto;mix-blend-mode:normal;text-decoration-color:#000000;text-decoration-line:none;text-decoration-style:solid;text-indent:0;text-transform:none;white-space:normal"/><path d="m34.66 28.552v1.3493h0.33734v-1.3493z" color="#000000" color-rendering="auto" enable-background="accumulate" image-rendering="auto" solid-color="#000000" style="isolation:auto;mix-blend-mode:normal;text-decoration-color:#000000;text-decoration-line:none;text-decoration-style:solid;text-indent:0;text-transform:none;white-space:normal"/><path d="m20.374 28.552v1.3493h0.33731v-1.3493z" color="#000000" color-rendering="auto" enable-background="accumulate" image-rendering="auto" solid-color="#000000" style="isolation:auto;mix-blend-mode:normal;text-decoration-color:#000000;text-decoration-line:none;text-decoration-style:solid;text-indent:0;text-transform:none;white-space:normal"/><path d="m3.8806 25.435v0.33738h1.3494v-0.33738z" color="#000000" color-rendering="auto" enable-background="accumulate" image-rendering="auto" solid-color="#000000" style="isolation:auto;mix-blend-mode:normal;text-decoration-color:#000000;text-decoration-line:none;text-decoration-style:solid;text-indent:0;text-transform:none;white-space:normal"/><path d="m3.8806 5.5025v0.33734h1.3494v-0.33734z" color="#000000" color-rendering="auto" enable-background="accumulate" image-rendering="auto" solid-color="#000000" style="isolation:auto;mix-blend-mode:normal;text-decoration-color:#000000;text-decoration-line:none;text-decoration-style:solid;text-indent:0;text-transform:none;white-space:normal"/><path d="m3.8806-2.9897v0.33734h1.3494v-0.33734z" color="#000000" color-rendering="auto" enable-background="accumulate" image-rendering="auto" solid-color="#000000" style="isolation:auto;mix-blend-mode:normal;text-decoration-color:#000000;text-decoration-line:none;text-decoration-style:solid;text-indent:0;text-transform:none;white-space:normal"/></g><g fill="#6f8ce9"><circle cx="7.9431" cy="-2.8426" r=".74216"/><circle cx="34.808" cy="-2.8469" r=".74216"/><circle cx="34.788" cy="25.594" r=".74216"/><circle cx="7.8851" cy="25.594" r=".74216"/></g><g><circle cx="20.573" cy="25.594" r=".74216" fill="#ff867f"/><circle cx="20.564" cy="-2.8426" r=".74216" fill="#ff867f"/><circle cx="20.573" cy="5.7018" r=".74216" fill="#47d58a"/></g><g fill="#e8eaec"><g transform="matrix(-.0021439 -.0037133 .0037769 -.0021806 39.732 30.419)" stroke-width="165.27"><g fill="#e8eaec" stroke-width="165.27"><path d="m486.41 221.41-364.07-208.5c-52.938-30.318-95.852-5.44-95.852 55.563v415.65c0 61.004 42.914 85.882 95.852 55.563l364.07-208.49c52.938-30.317 52.938-79.473 0-109.79z" fill="#e8eaec" stroke-width="165.27"/></g></g><g transform="matrix(-.0037133 .0021439 -.0021806 -.0037769 5.9317 -7.7372)" stroke-width="165.27"><g fill="#e8eaec" stroke-width="165.27"><path d="m486.41 221.41-364.07-208.5c-52.938-30.318-95.852-5.44-95.852 55.563v415.65c0 61.004 42.914 85.882 95.852 55.563l364.07-208.49c52.938-30.317 52.938-79.473 0-109.79z" fill="#e8eaec" stroke-width="165.27"/></g></g><g><g stroke-width=".41844px" aria-label="x1"><path d="m7.5321 30.888-0.35433 0.52528-0.37298-0.52528h-0.24244l0.48798 0.69934-0.49731 0.72109h0.25176l0.36987-0.55014 0.39163 0.55014h0.25487l-0.52217-0.72731 0.46001-0.69312z"/><path d="m8.8842 30.372h-0.14298l-0.49731 0.25798 0.049731 0.12122 0.38541-0.10878v1.4981h-0.36055v0.17095h0.9138v-0.17095h-0.34811z"/></g><g aria-label="x"><path d="m21.001 30.888-0.35433 0.52528-0.37298-0.52528h-0.24244l0.48798 0.69934-0.49731 0.72109h0.25176l0.36987-0.55014 0.39163 0.55014h0.25487l-0.52217-0.72731 0.46001-0.69312z" fill="#e8eaec" stroke-width=".41844px"/></g><g stroke-width=".41844px" aria-label="x2"><path d="m34.729 30.888-0.35433 0.52528-0.37298-0.52528h-0.24244l0.48798 0.69934-0.49731 0.72109h0.25176l0.36987-0.55014 0.39163 0.55014h0.25487l-0.52217-0.72731 0.46001-0.69312z"/><path d="m35.397 30.673 0.15852 0.12744c0.01865-0.02797 0.0093-0.04662 0.02797-0.07149 0.04662-0.07149 0.16162-0.17716 0.32946-0.17716 0.20825 0 0.37298 0.15852 0.37298 0.36676 0 0.23622-0.19892 0.40717-0.33879 0.5346-0.22068 0.19892-0.40095 0.39784-0.56258 0.71798v0.13676h1.1376v-0.21446c-0.02176-0.0093-0.0373 0.0062-0.04351 0.01243-0.01243 0.01243-0.01865 0.01243-0.03108 0.01243h-0.81434c0.16162-0.27974 0.38852-0.47244 0.52839-0.60298 0.13987-0.13365 0.33879-0.33257 0.33879-0.61231 0-0.30149-0.24554-0.54393-0.55947-0.54393-0.22068 0-0.42893 0.11811-0.54393 0.31392z"/></g><g stroke-width=".41844px" aria-label="y1"><path d="m0.071488 24.934 0.57812 1.4142-0.046622 0.10257c-0.024865 0.05906-0.052839 0.11811-0.096353 0.16473-0.059055 0.06527-0.13365 0.09324-0.19892 0.09324-0.10568 0-0.15852-0.07149-0.16784-0.08392-0.009324-0.01554-0.006216-0.0373-0.024865-0.05284l-0.115 0.20204c0.080812 0.0777 0.1896 0.11811 0.30771 0.11811 0.12743 0 0.26109-0.04662 0.35433-0.1523 0.062163-0.07149 0.093245-0.14608 0.12433-0.2269l0.44136-1.1718c0.052839-0.13365 0.099461-0.27041 0.14298-0.41028h-0.23311c-0.024865 0.13054-0.065271 0.25487-0.10879 0.3792l-0.27041 0.7615-0.41649-1.0474c-0.003108-0.0093-0.003108-0.01554-0.003108-0.02487 0-0.02176 0.015541-0.0373 0.012433-0.06527z"/><path d="m2.4088 24.414h-0.14298l-0.49731 0.25798 0.049731 0.12122 0.38541-0.10878v1.4981h-0.36055v0.17095h0.9138v-0.17095h-0.34811z"/></g><g stroke-width=".41844px" aria-label="y?"><path d="m0.071488 4.9895 0.57812 1.4142-0.046622 0.10257c-0.024865 0.059055-0.052839 0.11811-0.096353 0.16473-0.059055 0.065271-0.13365 0.093245-0.19892 0.093245-0.10568 0-0.15852-0.071488-0.16784-0.08392-0.009324-0.015541-0.006216-0.037298-0.024865-0.052839l-0.115 0.20203c0.080812 0.077704 0.1896 0.11811 0.30771 0.11811 0.12743 0 0.26109-0.046622 0.35433-0.1523 0.062163-0.071488 0.093245-0.14608 0.12433-0.2269l0.44136-1.1718c0.052839-0.13365 0.099461-0.27041 0.14298-0.41028h-0.23311c-0.024865 0.13054-0.065271 0.25487-0.10879 0.3792l-0.27041 0.7615-0.41649-1.0474c-0.003108-0.00932-0.003108-0.015541-0.003108-0.024865 0-0.021757 0.015541-0.037298 0.012433-0.065271z"/><path d="m2.4803 6.2701c0-0.096353-0.08392-0.17717-0.18338-0.17717-0.10257 0-0.18649 0.080812-0.18649 0.17717 0 0.099461 0.08392 0.17717 0.18649 0.17717 0.099461 0 0.18338-0.077704 0.18338-0.17717zm-0.7988-1.6038 0.15852 0.14608c0.099461-0.16473 0.26419-0.2673 0.4196-0.2673 0.18649 0 0.32946 0.14298 0.32946 0.32636 0 0.20514-0.16162 0.33257-0.25487 0.43514-0.13987 0.14919-0.14608 0.26109-0.14608 0.39784v0.13054h0.20203v-0.13054c0-0.10879 0.00932-0.20203 0.13676-0.31392 0.10257-0.090137 0.30771-0.21135 0.30771-0.50352 0-0.28906-0.20203-0.54704-0.55325-0.54704-0.23311 0-0.46312 0.11811-0.59987 0.32636z"/></g><g stroke-width=".41844px" aria-label="y2"><path d="m0.071488-3.2989 0.57812 1.4142-0.046622 0.10257c-0.024865 0.059055-0.052839 0.11811-0.096353 0.16473-0.059055 0.065271-0.13365 0.093245-0.19892 0.093245-0.10568 0-0.15852-0.071488-0.16784-0.08392-0.009324-0.015541-0.006216-0.037298-0.024865-0.052839l-0.115 0.20203c0.080812 0.077704 0.1896 0.11811 0.30771 0.11811 0.12743 0 0.26109-0.046622 0.35433-0.1523 0.062163-0.071488 0.093245-0.14608 0.12433-0.2269l0.44136-1.1718c0.052839-0.13365 0.099461-0.27041 0.14298-0.41028h-0.23311c-0.024865 0.13054-0.065271 0.25487-0.10879 0.3792l-0.27041 0.7615-0.41649-1.0474c-0.003108-0.00932-0.003108-0.015541-0.003108-0.024865 0-0.021757 0.015541-0.037298 0.012433-0.065271z"/><path d="m1.725-3.5165 0.15852 0.12743c0.018649-0.027973 0.00932-0.046622 0.027973-0.071488 0.046622-0.071488 0.16162-0.17717 0.32946-0.17717 0.20825 0 0.37298 0.15852 0.37298 0.36676 0 0.23622-0.19892 0.40717-0.33879 0.5346-0.22068 0.19892-0.40095 0.39784-0.56258 0.71798v0.13676h1.1376v-0.21446c-0.021757-0.00932-0.037298 0.00622-0.043514 0.012433-0.012433 0.012433-0.018649 0.012433-0.031082 0.012433h-0.81434c0.16162-0.27973 0.38852-0.47244 0.52839-0.60298 0.13987-0.13365 0.33879-0.33257 0.33879-0.61231 0-0.30149-0.24554-0.54393-0.55947-0.54393-0.22068 0-0.42893 0.11811-0.54393 0.31392z"/></g><g aria-label="P"><path d="m21.61 6.8015v1.9364h0.2269v-0.85474h0.3792c0.12122 0 0.23622-0.00311 0.35433-0.062163 0.18027-0.090137 0.27352-0.27663 0.27352-0.47244s-0.09324-0.38541-0.27663-0.47866c-0.12122-0.065271-0.24244-0.068379-0.36676-0.068379zm0.2269 0.20514h0.36365c0.08081 0 0.15852 0.00311 0.23933 0.040406 0.11811 0.062163 0.18338 0.18649 0.18338 0.31082s-0.06216 0.23933-0.17406 0.29528c-0.0746 0.037298-0.14919 0.040406-0.22379 0.040406h-0.39163z" fill="#e8eaec" stroke-width=".41844px"/></g><g stroke-width=".41844px" aria-label="Q21"><path d="m36.712 22.779c0.13676 0 0.3046 0.08081 0.39784 0.31082 0.06838 0.16473 0.0777 0.35433 0.0777 0.51596 0 0.64339-0.29838 0.7615-0.46312 0.7615-0.2269 0-0.48798-0.21757-0.48798-0.82988 0-0.56879 0.26419-0.75839 0.47555-0.75839zm0.6869 0.8019c0-0.18338-0.01243-0.42271-0.11811-0.63096-0.12433-0.25176-0.34811-0.36676-0.55947-0.36676-0.28906 0-0.69623 0.22379-0.69623 0.98529 0 0.69001 0.32946 0.9511 0.6092 0.99461 0 0.17716 0.04662 0.31082 0.18649 0.3792 0.12122 0.05906 0.25798 0.04662 0.48176 0.04662l0.0031-0.21136c-0.09635 0.0062-0.18027 0.01865-0.25176 0.01865-0.19271 0-0.22379-0.12744-0.2269-0.23622 0.17716-0.03108 0.34811-0.14919 0.4569-0.36366 0.10257-0.20514 0.115-0.44758 0.115-0.61542z"/><path d="m37.728 22.903 0.15852 0.12744c0.01865-0.02797 0.0093-0.04662 0.02797-0.07149 0.04662-0.07149 0.16162-0.17716 0.32946-0.17716 0.20825 0 0.37298 0.15852 0.37298 0.36676 0 0.23622-0.19892 0.40717-0.33879 0.5346-0.22068 0.19892-0.40095 0.39784-0.56258 0.71798v0.13676h1.1376v-0.21446c-0.02176-0.0093-0.0373 0.0062-0.04351 0.01243-0.01243 0.01243-0.01865 0.01243-0.03108 0.01243h-0.81434c0.16162-0.27974 0.38852-0.47244 0.52839-0.60298 0.13987-0.13365 0.33879-0.33257 0.33879-0.61231 0-0.30149-0.24554-0.54393-0.55947-0.54393-0.22068 0-0.42893 0.11811-0.54393 0.31392z"/><path d="m39.966 22.601h-0.14298l-0.4973 0.25798 0.04973 0.12122 0.38541-0.10878v1.4981h-0.36055v0.17095h0.9138v-0.17095h-0.34811z"/></g><g stroke-width=".41844px" aria-label="Q22"><path d="m36.712-5.7129c0.13676 0 0.3046 0.080812 0.39784 0.31082 0.06838 0.16473 0.0777 0.35433 0.0777 0.51595 0 0.64339-0.29838 0.7615-0.46312 0.7615-0.2269 0-0.48798-0.21757-0.48798-0.82988 0-0.56879 0.26419-0.75839 0.47555-0.75839zm0.6869 0.80191c0-0.18338-0.01243-0.42271-0.11811-0.63096-0.12433-0.25176-0.34811-0.36676-0.55947-0.36676-0.28906 0-0.69623 0.22379-0.69623 0.98529 0 0.69001 0.32946 0.9511 0.6092 0.99461 0 0.17717 0.04662 0.31082 0.18649 0.3792 0.12122 0.059055 0.25798 0.046622 0.48176 0.046622l0.0031-0.21135c-0.09635 0.00622-0.18027 0.018649-0.25176 0.018649-0.19271 0-0.22379-0.12743-0.2269-0.23622 0.17716-0.031082 0.34811-0.14919 0.4569-0.36365 0.10257-0.20514 0.115-0.44758 0.115-0.61542z"/><path d="m37.728-5.5886 0.15852 0.12743c0.01865-0.027973 0.0093-0.046622 0.02797-0.071488 0.04662-0.071488 0.16162-0.17717 0.32946-0.17717 0.20825 0 0.37298 0.15852 0.37298 0.36676 0 0.23622-0.19892 0.40717-0.33879 0.5346-0.22068 0.19892-0.40095 0.39784-0.56258 0.71798v0.13676h1.1376v-0.21446c-0.02176-0.00932-0.0373 0.00622-0.04351 0.012433-0.01243 0.012433-0.01865 0.012433-0.03108 0.012433h-0.81434c0.16162-0.27973 0.38852-0.47244 0.52839-0.60298 0.13987-0.13365 0.33879-0.33257 0.33879-0.61231 0-0.30149-0.24554-0.54393-0.55947-0.54393-0.22068 0-0.42893 0.11811-0.54393 0.31392z"/><path d="m39.282-5.5886 0.15852 0.12743c0.01865-0.027973 0.0093-0.046622 0.02797-0.071488 0.04662-0.071488 0.16162-0.17717 0.32946-0.17717 0.20825 0 0.37298 0.15852 0.37298 0.36676 0 0.23622-0.19892 0.40717-0.33879 0.5346-0.22068 0.19892-0.40095 0.39784-0.56258 0.71798v0.13676h1.1376v-0.21446c-0.02176-0.00932-0.0373 0.00622-0.04351 0.012433-0.01243 0.012433-0.01865 0.012433-0.03108 0.012433h-0.81434c0.16162-0.27973 0.38852-0.47244 0.52839-0.60298 0.13987-0.13365 0.33879-0.33257 0.33879-0.61231 0-0.30149-0.24554-0.54393-0.55947-0.54393-0.22068 0-0.42893 0.11811-0.54393 0.31392z"/></g><g stroke-width=".41844px" aria-label="Q12"><path d="m9.2561-5.7129c0.13676 0 0.3046 0.080812 0.39784 0.31082 0.068379 0.16473 0.077704 0.35433 0.077704 0.51595 0 0.64339-0.29838 0.7615-0.46312 0.7615-0.2269 0-0.48798-0.21757-0.48798-0.82988 0-0.56879 0.26419-0.75839 0.47555-0.75839zm0.6869 0.80191c0-0.18338-0.012433-0.42271-0.11811-0.63096-0.12433-0.25176-0.34811-0.36676-0.55947-0.36676-0.28906 0-0.69623 0.22379-0.69623 0.98529 0 0.69001 0.32946 0.9511 0.6092 0.99461 0 0.17717 0.046622 0.31082 0.18649 0.3792 0.12122 0.059055 0.25798 0.046622 0.48176 0.046622l0.00311-0.21135c-0.096353 0.00622-0.18027 0.018649-0.25176 0.018649-0.19271 0-0.22379-0.12743-0.2269-0.23622 0.17717-0.031082 0.34811-0.14919 0.4569-0.36365 0.10257-0.20514 0.115-0.44758 0.115-0.61542z"/><path d="m10.956-5.8901h-0.14298l-0.4973 0.25798 0.04973 0.12122 0.38541-0.10879v1.4981h-0.36055v0.17095h0.9138v-0.17095h-0.34811z"/><path d="m11.827-5.5886 0.15852 0.12743c0.01865-0.027973 0.0093-0.046622 0.02797-0.071488 0.04662-0.071488 0.16162-0.17717 0.32946-0.17717 0.20825 0 0.37298 0.15852 0.37298 0.36676 0 0.23622-0.19892 0.40717-0.33879 0.5346-0.22068 0.19892-0.40095 0.39784-0.56258 0.71798v0.13676h1.1376v-0.21446c-0.02176-0.00932-0.0373 0.00622-0.04351 0.012433-0.01243 0.012433-0.01865 0.012433-0.03108 0.012433h-0.81434c0.16162-0.27973 0.38852-0.47244 0.52839-0.60298 0.13987-0.13365 0.33879-0.33257 0.33879-0.61231 0-0.30149-0.24554-0.54393-0.55947-0.54393-0.22068 0-0.42893 0.11811-0.54393 0.31392z"/></g><g stroke-width=".41844px" aria-label="Q11"><path d="m9.2561 22.779c0.13676 0 0.3046 0.08081 0.39784 0.31082 0.068379 0.16473 0.077704 0.35433 0.077704 0.51596 0 0.64339-0.29838 0.7615-0.46312 0.7615-0.2269 0-0.48798-0.21757-0.48798-0.82988 0-0.56879 0.26419-0.75839 0.47555-0.75839zm0.6869 0.8019c0-0.18338-0.012433-0.42271-0.11811-0.63096-0.12433-0.25176-0.34811-0.36676-0.55947-0.36676-0.28906 0-0.69623 0.22379-0.69623 0.98529 0 0.69001 0.32946 0.9511 0.6092 0.99461 0 0.17716 0.046622 0.31082 0.18649 0.3792 0.12122 0.05906 0.25798 0.04662 0.48176 0.04662l0.00311-0.21136c-0.096353 0.0062-0.18027 0.01865-0.25176 0.01865-0.19271 0-0.22379-0.12744-0.2269-0.23622 0.17717-0.03108 0.34811-0.14919 0.4569-0.36366 0.10257-0.20514 0.115-0.44758 0.115-0.61542z"/><path d="m10.956 22.601h-0.14298l-0.4973 0.25798 0.04973 0.12122 0.38541-0.10878v1.4981h-0.36055v0.17095h0.9138v-0.17095h-0.34811z"/><path d="m12.51 22.601h-0.14298l-0.4973 0.25798 0.04973 0.12122 0.38541-0.10878v1.4981h-0.36055v0.17095h0.9138v-0.17095h-0.34811z"/></g></g></g></svg>
