<svg width="112.45mm" height="28.31mm" version="1.1" viewBox="0 0 112.45 28.31" xmlns="http://www.w3.org/2000/svg">
 <g>
  <rect x=".13229" y=".13229" width="25.929" height="9.525" fill="#1d232d" stroke="#009244" stroke-linecap="round" stroke-width=".26458"/>
  <g fill="#e8eaec" stroke-linecap="round" stroke-width=".26458" aria-label="Open the door">
   <path d="m3.146 6.2332c0.60748 0 1.0372-0.48895 1.0372-1.2705 0-0.77417-0.42968-1.2483-1.0372-1.2483-0.61119 0-1.0409 0.47043-1.0409 1.2483 0 0.78158 0.42968 1.2705 1.0409 1.2705zm0-0.2704c-0.43709 0-0.72231-0.39264-0.72231-1.0001 0-0.60378 0.28522-0.9779 0.72231-0.9779 0.43339 0 0.71861 0.37412 0.71861 0.9779 0 0.60748-0.28522 1.0001-0.71861 1.0001z"/>
   <path d="m4.9618 6.0258c0.16669 0.12965 0.33338 0.20743 0.50006 0.20743 0.41116 0 0.77788-0.3593 0.77788-0.97049 0-0.55933-0.24818-0.91863-0.7112-0.91863-0.21114 0-0.41116 0.11483-0.57415 0.25188h-0.011112l-0.025929-0.20743h-0.25188v2.5596h0.30374v-0.60748zm0.00741-0.23707v-0.94456c0.1778-0.15928 0.32967-0.24448 0.48154-0.24448 0.34078 0 0.47413 0.2667 0.47413 0.66305 0 0.4445-0.21855 0.7149-0.51488 0.7149-0.11853 0-0.27781-0.051858-0.4408-0.18891z"/>
   <path d="m6.5868 5.2924c0 0.58896 0.38153 0.94086 0.86307 0.94086 0.24448 0 0.43709-0.085196 0.59267-0.18521l-0.10742-0.20002c-0.13335 0.085196-0.27781 0.14076-0.4482 0.14076-0.34449 0-0.57785-0.24448-0.60008-0.63341h1.215c0.00741-0.04445 0.011112-0.10372 0.011112-0.16669 0-0.51488-0.25929-0.84455-0.71861-0.84455-0.41116 0-0.80751 0.3593-0.80751 0.94827zm0.29633-0.13705c0.037042-0.36301 0.2667-0.57044 0.51858-0.57044 0.28152 0 0.4445 0.20373 0.4445 0.57044z"/>
   <path d="m8.5578 6.1888h0.30374v-1.3039c0.1815-0.1815 0.30745-0.27781 0.49265-0.27781 0.23707 0 0.34078 0.14446 0.34078 0.48154v1.1001h0.30374v-1.1409c0-0.45932-0.17039-0.70379-0.54822-0.70379-0.24818 0-0.43339 0.13335-0.60378 0.30374h-0.011112l-0.025929-0.25929h-0.25188z"/>
   <path d="m11.381 5.6331c0 0.3556 0.12965 0.60008 0.51488 0.60008 0.11112 0 0.23336-0.033338 0.33338-0.066675l-0.059266-0.22966c-0.05927 0.022225-0.14076 0.048154-0.20373 0.048154-0.20743 0-0.27781-0.12594-0.27781-0.34819v-1.0001h0.48525v-0.24818h-0.48525v-0.50377h-0.25559l-0.03704 0.50377-0.28152 0.018521v0.22966h0.2667z"/>
   <path d="m12.58 6.1888h0.30374v-1.3039c0.1815-0.1815 0.30745-0.27781 0.49265-0.27781 0.23707 0 0.34078 0.14446 0.34078 0.48154v1.1001h0.30374v-1.1409c0-0.45932-0.17039-0.70379-0.54822-0.70379-0.24818 0-0.42968 0.13335-0.60008 0.29633l0.011113-0.37042v-0.71861h-0.30374z"/>
   <path d="m14.465 5.2924c0 0.58896 0.38153 0.94086 0.86307 0.94086 0.24448 0 0.43709-0.085196 0.59267-0.18521l-0.10742-0.20002c-0.13335 0.085196-0.27781 0.14076-0.4482 0.14076-0.34449 0-0.57785-0.24448-0.60008-0.63341h1.215c0.0074-0.04445 0.01111-0.10372 0.01111-0.16669 0-0.51488-0.25929-0.84455-0.71861-0.84455-0.41116 0-0.80751 0.3593-0.80751 0.94827zm0.29633-0.13705c0.03704-0.36301 0.2667-0.57044 0.51858-0.57044 0.28152 0 0.4445 0.20373 0.4445 0.57044z"/>
   <path d="m17.052 5.2924c0 0.60008 0.29263 0.94086 0.74454 0.94086 0.21114 0 0.40376-0.11853 0.54451-0.25559h0.01111l0.02593 0.21114h0.25188v-2.6374h-0.30745v0.69268l0.01482 0.30745c-0.15928-0.12965-0.29634-0.20743-0.50377-0.20743-0.41116 0-0.78158 0.36301-0.78158 0.94827zm0.31485-0.0037c0-0.41116 0.22966-0.68898 0.51858-0.68898 0.14817 0 0.28522 0.051858 0.43709 0.18891v0.94086c-0.14817 0.16669-0.29263 0.24818-0.45932 0.24818-0.31485 0-0.49636-0.25929-0.49636-0.68898z"/>
   <path d="m19.103 5.2924c0 0.59637 0.39264 0.94086 0.83344 0.94086 0.4408 0 0.83344-0.34449 0.83344-0.94086 0-0.60378-0.39264-0.94827-0.83344-0.94827-0.4408 0-0.83344 0.34449-0.83344 0.94827zm0.31485 0c0-0.41487 0.21114-0.69638 0.51858-0.69638 0.31115 0 0.51858 0.28152 0.51858 0.69638 0 0.41116-0.20743 0.68898-0.51858 0.68898-0.30744 0-0.51858-0.27781-0.51858-0.68898z"/>
   <path d="m21.114 5.2924c0 0.59637 0.39264 0.94086 0.83344 0.94086s0.83344-0.34449 0.83344-0.94086c0-0.60378-0.39264-0.94827-0.83344-0.94827s-0.83344 0.34449-0.83344 0.94827zm0.31485 0c0-0.41487 0.21114-0.69638 0.51858-0.69638 0.31115 0 0.51858 0.28152 0.51858 0.69638 0 0.41116-0.20743 0.68898-0.51858 0.68898-0.30745 0-0.51858-0.27781-0.51858-0.68898z"/>
   <path d="m23.259 6.1888h0.30374v-1.1557c0.12224-0.30374 0.30374-0.41487 0.45561-0.41487 0.07408 0 0.11483 0.011112 0.1741 0.029633l0.05927-0.2667c-0.05927-0.025929-0.11483-0.037042-0.19262-0.037042-0.20373 0-0.38894 0.14446-0.51118 0.37042h-0.01111l-0.02593-0.32597h-0.25188z"/>
  </g>
  <g transform="matrix(.0031774 0 0 .0032318 41.331 4.1238)" fill="#47d58a">
   <g fill="#47d58a">
    <path d="m486.41 221.41-364.07-208.5c-52.938-30.318-95.852-5.44-95.852 55.563v415.65c0 61.004 42.914 85.882 95.852 55.563l364.07-208.49c52.938-30.317 52.938-79.473 0-109.79z" fill="#47d58a"/>
   </g>
  </g>
 </g>
 <path d="m41.457 5.0118h-15.247" fill="none" stroke="#47d58a" stroke-linecap="round" stroke-width=".26458"/>
 <g>
  <rect x="43.259" y=".13229" width="25.929" height="9.525" fill="#1d232d" stroke="#009244" stroke-linecap="round" stroke-width=".26458"/>
  <g fill="#e8eaec" stroke-linecap="round" stroke-width=".26458" aria-label="Walk in">
   <path d="m51.203 6.1888h0.36671l0.36301-1.4631c0.04075-0.18891 0.08149-0.36301 0.12224-0.55192h0.01482c0.03334 0.18891 0.07408 0.36301 0.11483 0.55192l0.36671 1.4631h0.37412l0.50376-2.4299h-0.30004l-0.25559 1.3224c-0.04445 0.25929-0.0889 0.52229-0.13705 0.78528h-0.014817c-0.059267-0.263-0.11853-0.5297-0.1741-0.78528l-0.33708-1.3224h-0.28152l-0.33708 1.3224c-0.05927 0.25929-0.11853 0.52229-0.17039 0.78528h-0.01482c-0.04815-0.263-0.096305-0.52229-0.14446-0.78528l-0.25559-1.3224h-0.31856z"/>
   <path d="m53.665 5.722c0 0.32226 0.22596 0.51118 0.5297 0.51118 0.22225 0 0.42228-0.11853 0.59637-0.25929h0.0074l0.02593 0.21484h0.25188v-1.1038c0-0.4482-0.18521-0.74083-0.626-0.74083-0.28892 0-0.54081 0.12594-0.7075 0.23336l0.12224 0.21114c0.14076-0.096308 0.32597-0.19262 0.5371-0.19262 0.29263 0 0.37042 0.22225 0.37042 0.45191-0.76676 0.085196-1.1075 0.28152-1.1075 0.67416zm0.30004-0.022225c0-0.22966 0.20373-0.37782 0.80751-0.45191v0.50006c-0.1741 0.15558-0.31856 0.24077-0.49265 0.24077-0.1778 0-0.31485-0.085196-0.31485-0.28892z"/>
   <path d="m55.649 5.8258c0 0.263 0.0926 0.40746 0.32226 0.40746 0.08149 0 0.13335-0.011113 0.1741-0.029633l-0.04075-0.22966c-0.03334 0.00741-0.04815 0.00741-0.06668 0.00741-0.04445 0-0.0852-0.037042-0.0852-0.13335v-2.2966h-0.30374z"/>
   <path d="m56.597 6.1888h0.30004v-0.47413l0.33708-0.39264 0.52599 0.86678h0.33338l-0.68527-1.0779 0.60378-0.72231h-0.33708l-0.76676 0.94827h-0.01111v-1.7854h-0.30004z"/>
   <path d="m59.328 4.0181c0.11853 0 0.21114-0.081492 0.21114-0.19632 0-0.11853-0.0926-0.19632-0.21114-0.19632-0.11853 0-0.21114 0.077787-0.21114 0.19632 0 0.11483 0.0926 0.19632 0.21114 0.19632zm-0.15558 2.1706h0.30374v-1.8002h-0.30374z"/>
   <path d="m60.084 6.1888h0.30374v-1.3039c0.1815-0.1815 0.30745-0.27781 0.49265-0.27781 0.23707 0 0.34078 0.14446 0.34078 0.48154v1.1001h0.30374v-1.1409c0-0.45932-0.17039-0.70379-0.54822-0.70379-0.24818 0-0.43339 0.13335-0.60378 0.30374h-0.01111l-0.025931-0.25929h-0.25188z"/>
  </g>
  <g transform="matrix(.0031774 0 0 .0032318 84.458 4.1238)" fill="#47d58a">
   <g fill="#47d58a">
    <path d="m486.41 221.41-364.07-208.5c-52.938-30.318-95.852-5.44-95.852 55.563v415.65c0 61.004 42.914 85.882 95.852 55.563l364.07-208.49c52.938-30.317 52.938-79.473 0-109.79z" fill="#47d58a"/>
   </g>
  </g>
 </g>
 <path d="m84.584 5.0118h-15.247" fill="none" stroke="#47d58a" stroke-linecap="round" stroke-width=".26458"/>
 <g>
  <g stroke-linecap="round" stroke-width=".26458">
   <rect x="86.386" y=".13229" width="25.929" height="9.525" fill="#1d232d" stroke="#009244"/>
   <g fill="#e8eaec" aria-label="Close the door">
    <path d="m88.312 4.9738c0 0.79269 0.45561 1.2594 1.0668 1.2594 0.30745 0 0.54822-0.12965 0.73713-0.3519l-0.1741-0.18891c-0.15558 0.1741-0.32597 0.2704-0.55562 0.2704-0.46302 0-0.75565-0.38523-0.75565-0.99642 0-0.60378 0.30745-0.9816 0.77047-0.9816 0.20002 0 0.3556 0.0889 0.48525 0.22595l0.1741-0.19632c-0.14446-0.15928-0.37412-0.30004-0.66305-0.30004-0.6223 0-1.0853 0.47784-1.0853 1.2594z"/>
    <path d="m90.533 5.8258c0 0.263 0.0926 0.40746 0.32226 0.40746 0.08149 0 0.13335-0.011113 0.1741-0.029633l-0.04075-0.22966c-0.03334 0.00741-0.04815 0.00741-0.06668 0.00741-0.04445 0-0.0852-0.037042-0.0852-0.13335v-2.2966h-0.30374z"/>
    <path d="m91.347 5.2924c0 0.59637 0.39264 0.94086 0.83344 0.94086s0.83344-0.34449 0.83344-0.94086c0-0.60378-0.39264-0.94827-0.83344-0.94827s-0.83344 0.34449-0.83344 0.94827zm0.31485 0c0-0.41487 0.21114-0.69638 0.51858-0.69638 0.31115 0 0.51858 0.28152 0.51858 0.69638 0 0.41116-0.20743 0.68898-0.51858 0.68898-0.30745 0-0.51858-0.27781-0.51858-0.68898z"/>
    <path d="m93.292 5.985c0.17039 0.14076 0.41487 0.24818 0.67045 0.24818 0.42598 0 0.65934-0.24448 0.65934-0.5371 0-0.34078-0.28892-0.4482-0.54822-0.54451-0.20373-0.077787-0.40005-0.14446-0.40005-0.31115 0-0.13705 0.10372-0.25929 0.32967-0.25929 0.15928 0 0.28892 0.066675 0.41116 0.15928l0.14446-0.19262c-0.13705-0.11112-0.33338-0.20373-0.55933-0.20373-0.38894 0-0.6186 0.22225-0.6186 0.51118 0 0.30374 0.28152 0.42598 0.5371 0.51858 0.19632 0.074083 0.41116 0.15558 0.41116 0.34078 0 0.15558-0.11853 0.28152-0.3556 0.28152-0.21484 0-0.37412-0.0889-0.5297-0.21484z"/>
    <path d="m94.914 5.2924c0 0.58896 0.38153 0.94086 0.86307 0.94086 0.24448 0 0.43709-0.085196 0.59267-0.18521l-0.10742-0.20002c-0.13335 0.085196-0.27781 0.14076-0.4482 0.14076-0.34449 0-0.57785-0.24448-0.60008-0.63341h1.215c0.0074-0.04445 0.01111-0.10372 0.01111-0.16669 0-0.51488-0.25929-0.84455-0.71861-0.84455-0.41116 0-0.80751 0.3593-0.80751 0.94827zm0.29633-0.13705c0.03704-0.36301 0.2667-0.57044 0.51858-0.57044 0.28152 0 0.4445 0.20373 0.4445 0.57044z"/>
    <path d="m97.682 5.6331c0 0.3556 0.12965 0.60008 0.51488 0.60008 0.11112 0 0.23336-0.033338 0.33338-0.066675l-0.059267-0.22966c-0.05927 0.022225-0.14076 0.048154-0.20373 0.048154-0.20743 0-0.27781-0.12594-0.27781-0.34819v-1.0001h0.48524v-0.24818h-0.48524v-0.50377h-0.25559l-0.03704 0.50377-0.28152 0.018521v0.22966h0.2667z"/>
    <path d="m98.881 6.1888h0.30374v-1.3039c0.1815-0.1815 0.30745-0.27781 0.49265-0.27781 0.23707 0 0.34079 0.14446 0.34079 0.48154v1.1001h0.30374v-1.1409c0-0.45932-0.17039-0.70379-0.54822-0.70379-0.24818 0-0.42968 0.13335-0.60008 0.29633l0.011112-0.37042v-0.71861h-0.30374z"/>
    <path d="m100.77 5.2924c0 0.58896 0.38153 0.94086 0.86307 0.94086 0.24447 0 0.43709-0.085196 0.59267-0.18521l-0.10742-0.20002c-0.13335 0.085196-0.27782 0.14076-0.44821 0.14076-0.34449 0-0.57785-0.24448-0.60007-0.63341h1.215c7e-3 -0.04445 0.0111-0.10372 0.0111-0.16669 0-0.51488-0.2593-0.84455-0.71861-0.84455-0.41117 0-0.80751 0.3593-0.80751 0.94827zm0.29633-0.13705c0.037-0.36301 0.2667-0.57044 0.51859-0.57044 0.28151 0 0.4445 0.20373 0.4445 0.57044z"/>
    <path d="m103.35 5.2924c0 0.60008 0.29263 0.94086 0.74454 0.94086 0.21114 0 0.40375-0.11853 0.54451-0.25559h0.0111l0.0259 0.21114h0.25189v-2.6374h-0.30745v0.69268l0.0148 0.30745c-0.15928-0.12965-0.29634-0.20743-0.50377-0.20743-0.41116 0-0.78158 0.36301-0.78158 0.94827zm0.31485-0.0037c0-0.41116 0.22966-0.68898 0.51859-0.68898 0.14816 0 0.28522 0.051858 0.43709 0.18891v0.94086c-0.14817 0.16669-0.29263 0.24818-0.45932 0.24818-0.31485 0-0.49636-0.25929-0.49636-0.68898z"/>
    <path d="m105.4 5.2924c0 0.59637 0.39264 0.94086 0.83344 0.94086s0.83344-0.34449 0.83344-0.94086c0-0.60378-0.39264-0.94827-0.83344-0.94827s-0.83344 0.34449-0.83344 0.94827zm0.31486 0c0-0.41487 0.21113-0.69638 0.51858-0.69638 0.31115 0 0.51858 0.28152 0.51858 0.69638 0 0.41116-0.20743 0.68898-0.51858 0.68898-0.30745 0-0.51858-0.27781-0.51858-0.68898z"/>
    <path d="m107.42 5.2924c0 0.59637 0.39264 0.94086 0.83344 0.94086 0.44079 0 0.83343-0.34449 0.83343-0.94086 0-0.60378-0.39264-0.94827-0.83343-0.94827-0.4408 0-0.83344 0.34449-0.83344 0.94827zm0.31485 0c0-0.41487 0.21114-0.69638 0.51859-0.69638 0.31115 0 0.51858 0.28152 0.51858 0.69638 0 0.41116-0.20743 0.68898-0.51858 0.68898-0.30745 0-0.51859-0.27781-0.51859-0.68898z"/>
    <path d="m109.56 6.1888h0.30374v-1.1557c0.12223-0.30374 0.30374-0.41487 0.45561-0.41487 0.0741 0 0.11483 0.011112 0.1741 0.029633l0.0593-0.2667c-0.0593-0.025929-0.11483-0.037042-0.19261-0.037042-0.20373 0-0.38894 0.14446-0.51118 0.37042h-0.0111l-0.0259-0.32597h-0.25188z"/>
   </g>
   <rect x="86.386" y="18.653" width="25.929" height="9.525" fill="#1d232d" stroke="#009244"/>
   <g fill="#e8eaec" aria-label="Load next scene">
    <path d="m87.292 24.71h1.3705v-0.263h-1.0594v-2.1669h-0.31115z"/>
    <path d="m88.876 23.813c0 0.59637 0.39264 0.94086 0.83344 0.94086s0.83344-0.34449 0.83344-0.94086c0-0.60378-0.39264-0.94827-0.83344-0.94827s-0.83344 0.34449-0.83344 0.94827zm0.31485 0c0-0.41487 0.21114-0.69638 0.51858-0.69638 0.31115 0 0.51858 0.28152 0.51858 0.69638 0 0.41116-0.20743 0.68898-0.51858 0.68898-0.30745 0-0.51858-0.27781-0.51858-0.68898z"/>
    <path d="m90.881 24.243c0 0.32226 0.22595 0.51118 0.5297 0.51118 0.22225 0 0.42228-0.11853 0.59637-0.25929h0.0074l0.02593 0.21484h0.25188v-1.1038c0-0.4482-0.18521-0.74083-0.626-0.74083-0.28892 0-0.54081 0.12594-0.7075 0.23336l0.12224 0.21114c0.14076-0.09631 0.32597-0.19262 0.5371-0.19262 0.29263 0 0.37042 0.22225 0.37042 0.45191-0.76676 0.0852-1.1075 0.28152-1.1075 0.67416zm0.30004-0.02222c0-0.22966 0.20373-0.37782 0.80751-0.45191v0.50006c-0.1741 0.15558-0.31856 0.24077-0.49265 0.24077-0.1778 0-0.31486-0.0852-0.31486-0.28892z"/>
    <path d="m92.736 23.813c0 0.60008 0.29263 0.94086 0.74454 0.94086 0.21114 0 0.40375-0.11853 0.54451-0.25559h0.01111l0.02593 0.21114h0.25188v-2.6374h-0.30745v0.69268l0.01482 0.30745c-0.15928-0.12965-0.29633-0.20743-0.50377-0.20743-0.41116 0-0.78158 0.36301-0.78158 0.94827zm0.31485-0.0037c0-0.41116 0.22966-0.68898 0.51858-0.68898 0.14817 0 0.28522 0.05186 0.43709 0.18891v0.94086c-0.14817 0.16669-0.29263 0.24818-0.45932 0.24818-0.31485 0-0.49636-0.25929-0.49636-0.68898z"/>
    <path d="m95.666 24.71h0.30374v-1.3039c0.1815-0.1815 0.30745-0.27781 0.49265-0.27781 0.23707 0 0.34078 0.14446 0.34078 0.48154v1.1001h0.30374v-1.1409c0-0.45932-0.17039-0.70379-0.54822-0.70379-0.24818 0-0.43339 0.13335-0.60378 0.30374h-0.01111l-0.02593-0.25929h-0.25188z"/>
    <path d="m97.558 23.813c0 0.58896 0.38153 0.94086 0.86307 0.94086 0.24448 0 0.43709-0.0852 0.59267-0.18521l-0.10742-0.20002c-0.13335 0.0852-0.27781 0.14076-0.4482 0.14076-0.34449 0-0.57785-0.24448-0.60008-0.63341h1.215c0.0074-0.04445 0.01111-0.10372 0.01111-0.16669 0-0.51488-0.25929-0.84455-0.71861-0.84455-0.41116 0-0.80751 0.3593-0.80751 0.94827zm0.29633-0.13705c0.03704-0.36301 0.2667-0.57044 0.51858-0.57044 0.28152 0 0.4445 0.20373 0.4445 0.57044z"/>
    <path d="m99.248 24.71h0.31856l0.24448-0.41857c0.05927-0.11112 0.11853-0.21854 0.1815-0.32226h0.01481c0.0667 0.10372 0.13335 0.21484 0.19633 0.32226l0.26299 0.41857h0.32967l-0.58526-0.90752 0.54452-0.8927h-0.31856l-0.21855 0.39635c-0.0556 0.09631-0.11112 0.20002-0.16298 0.30004h-0.0148c-0.06297-0.10001-0.12224-0.20373-0.1778-0.30004l-0.24079-0.39635h-0.32967l0.54451 0.85937z"/>
    <path d="m101.2 24.154c0 0.3556 0.12965 0.60008 0.51488 0.60008 0.11113 0 0.23337-0.03334 0.33338-0.06668l-0.0593-0.22966c-0.0593 0.02223-0.14076 0.04815-0.20373 0.04815-0.20743 0-0.27781-0.12594-0.27781-0.34819v-1.0001h0.48525v-0.24818h-0.48525v-0.50377h-0.25559l-0.037 0.50377-0.28152 0.01852v0.22966h0.2667z"/>
    <path d="m102.95 24.506c0.17039 0.14076 0.41486 0.24818 0.67045 0.24818 0.42598 0 0.65934-0.24448 0.65934-0.5371 0-0.34078-0.28892-0.4482-0.54821-0.54451-0.20373-0.07779-0.40005-0.14446-0.40005-0.31115 0-0.13706 0.10371-0.25929 0.32967-0.25929 0.15928 0 0.28892 0.06668 0.41116 0.15928l0.14446-0.19262c-0.13705-0.11112-0.33337-0.20373-0.55933-0.20373-0.38893 0-0.61859 0.22225-0.61859 0.51118 0 0.30374 0.28151 0.42598 0.5371 0.51858 0.19632 0.07408 0.41116 0.15558 0.41116 0.34078 0 0.15558-0.11853 0.28152-0.3556 0.28152-0.21484 0-0.37412-0.0889-0.52969-0.21484z"/>
    <path d="m104.57 23.813c0 0.59637 0.36672 0.94086 0.84455 0.94086 0.21484 0 0.42228-0.0889 0.58526-0.23336l-0.13705-0.20002c-0.10742 0.09631-0.25189 0.1815-0.42228 0.1815-0.32967 0-0.55562-0.27781-0.55562-0.68898 0-0.41487 0.23706-0.69638 0.56303-0.69638 0.14446 0 0.25559 0.06668 0.36301 0.15928l0.15187-0.19632c-0.12224-0.11483-0.28893-0.21484-0.52599-0.21484-0.46302 0-0.86678 0.34449-0.86678 0.94827z"/>
    <path d="m106.17 23.813c0 0.58896 0.38153 0.94086 0.86307 0.94086 0.24447 0 0.43709-0.0852 0.59266-0.18521l-0.10742-0.20002c-0.13335 0.0852-0.27781 0.14076-0.4482 0.14076-0.34449 0-0.57785-0.24448-0.60008-0.63341h1.215c7e-3 -0.04445 0.0111-0.10372 0.0111-0.16669 0-0.51488-0.25929-0.84455-0.71861-0.84455-0.41116 0-0.8075 0.3593-0.8075 0.94827zm0.29633-0.13705c0.037-0.36301 0.2667-0.57044 0.51858-0.57044 0.28152 0 0.4445 0.20373 0.4445 0.57044z"/>
    <path d="m108.15 24.71h0.30374v-1.3039c0.18151-0.1815 0.30745-0.27781 0.49266-0.27781 0.23706 0 0.34078 0.14446 0.34078 0.48154v1.1001h0.30374v-1.1409c0-0.45932-0.17039-0.70379-0.54822-0.70379-0.24817 0-0.43338 0.13335-0.60377 0.30374h-0.0111l-0.0259-0.25929h-0.25188z"/>
    <path d="m110.04 23.813c0 0.58896 0.38153 0.94086 0.86307 0.94086 0.24447 0 0.43709-0.0852 0.59266-0.18521l-0.10742-0.20002c-0.13335 0.0852-0.27781 0.14076-0.4482 0.14076-0.34449 0-0.57785-0.24448-0.60008-0.63341h1.215c7e-3 -0.04445 0.0111-0.10372 0.0111-0.16669 0-0.51488-0.25929-0.84455-0.7186-0.84455-0.41117 0-0.80751 0.3593-0.80751 0.94827zm0.29633-0.13705c0.037-0.36301 0.2667-0.57044 0.51858-0.57044 0.28152 0 0.4445 0.20373 0.4445 0.57044z"/>
   </g>
  </g>
  <g transform="matrix(0 .0031774 -.0032318 0 100.26 16.835)" fill="#47d58a">
   <g fill="#47d58a">
    <path d="m486.41 221.41-364.07-208.5c-52.938-30.318-95.852-5.44-95.852 55.563v415.65c0 61.004 42.914 85.882 95.852 55.563l364.07-208.49c52.938-30.317 52.938-79.473 0-109.79z" fill="#47d58a"/>
   </g>
  </g>
 </g>
 <path d="m99.367 16.961v-7.3091" fill="none" stroke="#47d58a" stroke-linecap="round" stroke-width=".26458"/>
</svg>
