<?xml version="1.0" encoding="UTF-8" standalone="no"?>
<svg
   xmlns:dc="http://purl.org/dc/elements/1.1/"
   xmlns:cc="http://creativecommons.org/ns#"
   xmlns:rdf="http://www.w3.org/1999/02/22-rdf-syntax-ns#"
   xmlns:svg="http://www.w3.org/2000/svg"
   xmlns="http://www.w3.org/2000/svg"
   xmlns:sodipodi="http://sodipodi.sourceforge.net/DTD/sodipodi-0.dtd"
   xmlns:inkscape="http://www.inkscape.org/namespaces/inkscape"
   inkscape:version="1.0rc1 (09960d6f05, 2020-04-09)"
   sodipodi:docname="logo.svg"
   id="svg68"
   viewBox="0 0 508.85993 76.080787"
   version="1.1"
   height="287.54944"
   width="1923.25">
  <defs
     id="defs72" />
  <sodipodi:namedview
     fit-margin-bottom="0"
     fit-margin-right="0"
     fit-margin-left="0"
     fit-margin-top="0"
     inkscape:current-layer="g66"
     inkscape:window-maximized="1"
     inkscape:window-y="-8"
     inkscape:window-x="-8"
     inkscape:cy="67.641393"
     inkscape:cx="814.84209"
     inkscape:zoom="1.3111386"
     units="px"
     showgrid="false"
     id="namedview70"
     inkscape:window-height="2097"
     inkscape:window-width="3840"
     inkscape:pageshadow="2"
     inkscape:pageopacity="0"
     guidetolerance="10"
     gridtolerance="10"
     objecttolerance="10"
     borderopacity="1"
     bordercolor="#666666"
     pagecolor="#454545"
     inkscape:document-rotation="0" />
  <metadata
     id="metadata2">
    <rdf:RDF>
      <cc:Work
         rdf:about="">
        <dc:format>image/svg+xml</dc:format>
        <dc:type
           rdf:resource="http://purl.org/dc/dcmitype/StillImage" />
        <dc:title></dc:title>
      </cc:Work>
    </rdf:RDF>
  </metadata>
  <g
     style="stroke-width:0.137689"
     id="g66"
     transform="matrix(7.2627119,0,0,7.2627119,-687.61368,-697.71348)">
    <g
       transform="matrix(0.81357904,0,0,0.81357904,29.634906,19.854041)"
       aria-label="NI-APH"
       id="text862"
       style="font-weight:bold;font-size:15.8319px;line-height:1.25;font-family:'Segoe UI';-inkscape-font-specification:'Segoe UI Bold';fill:#e8eaec;stroke:none;stroke-width:0.0675685;stroke-linecap:square;stroke-dashoffset:1.2">
      <path
         inkscape:connector-curvature="0"
         d="m 114.02108,106.50112 h 0.68077 v -6.47525 c 0,-1.013237 -0.0475,-1.963151 -0.095,-2.960561 h 0.0633 l 1.18739,2.073979 4.38544,7.361832 h 0.75993 V 96.0679 h -0.68077 v 6.39609 c 0,1.01324 0.0475,2.02648 0.095,3.03972 h -0.0633 l -1.18739,-2.07398 -4.38544,-7.36183 h -0.75993 z"
         style="font-style:normal;font-variant:normal;font-weight:300;font-stretch:normal;font-family:'Source Sans Pro';-inkscape-font-specification:'Source Sans Pro Light';stroke:none;stroke-width:0.0675685"
         id="path836" />
      <path
         inkscape:connector-curvature="0"
         d="m 123.97786,106.50112 h 0.72827 V 96.0679 h -0.72827 z"
         style="font-style:normal;font-variant:normal;font-weight:300;font-stretch:normal;font-family:'Source Sans Pro';-inkscape-font-specification:'Source Sans Pro Light';stroke:none;stroke-width:0.0675685"
         id="path838" />
      <path
         inkscape:connector-curvature="0"
         d="m 126.80262,102.85978 h 3.48302 v -0.61744 h -3.48302 z"
         style="font-style:normal;font-variant:normal;font-weight:300;font-stretch:normal;font-family:'Source Sans Pro';-inkscape-font-specification:'Source Sans Pro Light';stroke:none;stroke-width:0.0675685"
         id="path840" />
      <path
         inkscape:connector-curvature="0"
         d="m 133.14849,102.30567 0.66494,-1.94733 c 0.42746,-1.234884 0.79159,-2.327285 1.15573,-3.609669 h 0.0633 c 0.36413,1.282384 0.7441,2.374785 1.15572,3.609669 l 0.66494,1.94733 z m 5.12954,4.19545 h 0.77576 l -3.673,-10.43322 h -0.72827 l -3.68883,10.43322 h 0.7441 l 1.21905,-3.57801 h 4.13213 z"
         style="font-style:normal;font-variant:normal;font-weight:300;font-stretch:normal;font-family:'Source Sans Pro';-inkscape-font-specification:'Source Sans Pro Light';stroke:none;stroke-width:0.0675685"
         id="path842" />
      <path
         inkscape:connector-curvature="0"
         d="m 140.61372,106.50112 h 0.72827 v -4.48043 h 2.12148 c 2.31145,0 3.70466,-0.99741 3.70466,-3.039721 0,-2.153138 -1.37737,-2.913069 -3.70466,-2.913069 h -2.84975 z m 0.72827,-5.09787 v -4.717906 h 1.93149 c 2.12148,0 3.15055,0.538284 3.15055,2.295625 0,1.709841 -1.01324,2.422281 -3.15055,2.422281 z"
         style="font-style:normal;font-variant:normal;font-weight:300;font-stretch:normal;font-family:'Source Sans Pro';-inkscape-font-specification:'Source Sans Pro Light';stroke:none;stroke-width:0.0675685"
         id="path844" />
      <path
         inkscape:connector-curvature="0"
         d="m 149.33364,106.50112 h 0.72827 v -5.22453 h 5.57282 v 5.22453 H 156.363 V 96.0679 h -0.72827 v 4.57542 h -5.57282 V 96.0679 h -0.72827 z"
         style="font-style:normal;font-variant:normal;font-weight:300;font-stretch:normal;font-family:'Source Sans Pro';-inkscape-font-specification:'Source Sans Pro Light';stroke:none;stroke-width:0.0675685"
         id="path846" />
    </g>
    <g
       style="stroke-width:0.0627714"
       transform="matrix(0.07990994,0,0,0.07990994,92.392877,90.752032)"
       id="g6">
      <path
         style="stroke-width:0.0286171"
         inkscape:connector-curvature="0"
         d="m 175.46,100.94 4.915,-3.586 c -1.86,-1.991 -3.853,-4.38 -3.853,-8.231 0,-2.921 1.993,-6.109 4.515,-7.436 -1.327,-1.595 -3.454,-3.055 -6.507,-3.055 -3.985,0 -7.305,2.921 -7.305,6.771 0,2.658 1.728,4.915 3.721,5.978 0,3.716 1.726,7.036 4.514,9.559 m -26.291,-26.16 4.115,-7.304 h -6.109 c 0,1.327 -1.194,2.789 -2.656,2.789 -1.593,0 -2.655,-1.063 -2.655,-2.789 h -5.447 c 0,1.593 -1.193,2.789 -2.655,2.789 -1.46,0 -2.654,-1.195 -2.654,-2.789 h -6.111 l 3.587,7.038 c 2.791,-0.265 5.445,-0.397 8.1,-0.397 4.913,0 9.164,0.263 12.485,0.663 m -11.157,64.805 c -0.665,-1.194 -1.328,-2.657 -1.328,-5.312 0,-3.451 1.991,-6.374 6.242,-8.233 2.789,-1.328 4.911,-2.524 8.631,-4.382 8.764,-4.516 11.818,-13.015 11.818,-21.777 0,-4.385 -1.193,-7.837 -2.655,-10.758 0.396,2.388 0.795,4.381 0.795,6.772 0,9.164 -3.186,15.937 -11.552,20.052 -5.31,2.655 -7.969,3.717 -11.157,5.311 -4.511,2.392 -7.037,5.447 -7.037,9.164 0,4.647 2.391,8.099 6.243,9.163 m -5.18,-1.727 c -1.458,-1.462 -3.053,-4.117 -3.053,-7.568 0,-4.384 2.922,-8.101 8.1,-10.758 4.515,-2.127 7.169,-3.188 11.154,-5.047 8.367,-4.116 10.888,-11.153 10.888,-18.723 0,-7.303 -2.389,-11.024 -4.379,-13.413 1.458,2.789 1.858,6.11 1.858,8.897 0,8.102 -2.39,15.139 -11.819,18.859 -4.782,1.991 -7.834,2.655 -11.952,4.513 -6.509,3.057 -9.029,6.64 -9.029,11.951 0,5.047 3.187,9.827 8.232,11.289 m -5.045,-1.064 c -2.259,-1.857 -5.182,-4.911 -5.182,-10.357 0,-5.71 2.391,-9.959 9.828,-13.146 4.784,-1.992 7.306,-2.921 11.821,-4.648 9.561,-3.583 11.553,-10.625 11.553,-17.529 0,-6.64 -2.389,-10.491 -5.311,-13.013 1.725,2.122 2.788,5.71 2.788,9.428 0,8.764 -3.321,13.677 -12.749,16.997 -3.852,1.195 -7.967,2.392 -12.218,3.985 -7.701,2.921 -11.686,7.171 -11.686,14.342 0.001,7.437 5.713,13.013 11.156,13.941 m -5.313,-0.928 c -5.311,-2.655 -7.835,-8.367 -7.835,-13.413 0,-7.304 4.517,-12.483 12.085,-15.272 4.651,-1.727 8.366,-2.785 13.015,-4.38 9.03,-3.188 11.951,-7.437 11.951,-15.537 0,-4.648 -1.727,-8.632 -4.515,-10.89 0.931,1.063 1.194,2.39 1.194,3.585 0,2.257 -1.194,3.32 -2.921,3.32 -1.061,0 -2.127,-0.664 -2.257,-1.727 0.531,0.398 0.93,0.534 1.463,0.534 1.458,0 2.255,-1.064 2.255,-2.526 0,-2.257 -2.125,-3.452 -4.25,-3.716 -1.859,-0.267 -3.852,-0.267 -6.107,-0.267 -2.256,0 -4.382,0.131 -7.172,0.267 1.729,2.388 7.438,1.724 9.165,2.921 -1.462,-0.133 -2.92,-0.133 -4.384,0.265 0,0.93 -0.398,1.993 -1.327,1.993 -1.725,0 -2.521,-1.858 -3.718,-5.179 l -6.77,0.531 c -1.066,0.133 -1.464,0.532 -1.332,1.327 l 0.665,6.642 c 0,0.263 0.267,0.395 0.533,0.395 0.264,0 0.528,-0.132 0.663,-0.53 0.264,-0.531 1.064,-1.727 3.054,-1.727 2.921,0 5.181,2.657 5.312,5.711 -1.064,-1.461 -3.452,-2.791 -7.437,-2.791 -3.053,0 -5.577,0.931 -9.562,0.931 -4.248,0 -6.64,-1.594 -6.64,-3.586 0,-0.929 0.132,-1.46 0.665,-2.124 -1.727,0.797 -3.055,2.257 -3.055,4.648 0,2.921 2.126,5.975 8.364,5.975 5.712,0 8.37,-3.587 13.545,-3.587 2.392,0 3.588,1.196 3.588,2.526 0,1.194 -1.063,2.258 -2.921,2.258 -2.259,0 -3.85,-1.197 -4.649,-2.391 -0.133,-0.267 -0.264,-0.4 -0.532,-0.4 -0.395,0 -0.53,0.264 -0.53,0.533 l 0.135,6.373 c 0,0.795 0.395,1.194 1.327,1.064 3.983,-0.399 8.099,-0.932 11.953,-1.197 7.169,-0.664 12.085,-5.444 12.085,-10.757 0,-0.797 0,-1.461 -0.134,-2.258 0.665,1.062 0.928,2.126 0.928,3.453 0,4.916 -2.655,8.631 -11.152,10.888 -4.515,1.196 -7.837,1.729 -11.689,2.658 -10.225,2.39 -16.862,10.223 -16.862,18.989 -0.003,8.101 5.706,15.408 13.806,16.468 M 77.986,87.926 c 0.534,-1.195 0.666,-2.257 0.666,-3.055 0,-1.727 -0.797,-3.319 -1.594,-3.983 1.992,0 3.719,1.46 3.719,3.455 0,1.859 -1.196,3.052 -2.791,3.583 m 24.436,31.606 4.248,-2.257 c 1.461,-8.897 6.773,-15.138 16.068,-17.395 -4.91,0.263 -9.163,0.395 -15.137,0.661 -6.373,0.267 -16.864,1.064 -24.167,1.597 -1.464,0.13 -2.392,-0.399 -2.79,-1.597 -0.399,-1.325 -1.195,-3.851 -1.327,-5.31 -0.134,-1.196 0.132,-1.994 1.194,-2.788 2.123,-1.462 4.25,-3.19 4.25,-6.774 0,-3.852 -3.321,-6.374 -6.376,-6.374 -1.061,0 -1.858,0.134 -2.521,0.398 -0.798,-0.529 -1.594,-0.929 -3.188,-0.929 -2.258,0 -4.249,1.458 -4.781,2.655 -3.85,-0.266 -6.904,2.524 -6.64,6.24 0.531,-0.53 1.595,-1.058 2.79,-1.058 1.458,0 2.788,1.058 2.788,2.652 0,1.463 -0.266,3.321 -0.266,5.312 0,6.109 4.915,9.297 4.915,12.482 0,1.595 -1.195,2.922 -2.792,2.922 0.931,3.321 3.986,5.048 8.102,5.048 2.658,0 5.048,-0.266 8.897,-0.266 11.024,10e-4 15.803,1.196 16.733,4.781 m 40.899,37.582 h 1.333 c -0.135,-4.249 -1.197,-7.172 -2.922,-10.226 -0.933,-1.726 -2.126,-3.586 -3.057,-4.781 -0.531,-0.799 -1.195,-1.062 -1.991,-1.062 -0.533,0 -0.93,0.397 -0.533,1.062 1.065,1.727 2.523,4.382 4.384,8.499 -1.594,0.267 -1.992,1.061 -1.992,2.389 0.001,2.127 1.993,4.119 4.778,4.119 M 72.81,88.459 c 0.131,-3.721 -1.461,-5.712 -3.719,-6.642 0.398,-0.131 0.928,-0.398 1.725,-0.398 1.728,0 3.587,1.46 3.587,3.719 0,1.194 -0.4,2.521 -1.593,3.321 m 85.123,93.487 c -0.532,-1.192 -2.259,-2.391 -4.384,-2.391 -1.197,0 -1.992,0.265 -2.522,0.533 0.132,-1.062 1.194,-2.258 3.319,-2.258 2.522,10e-4 3.849,1.99 3.587,4.116 m -0.799,5.709 c -0.795,-0.929 -2.123,-1.725 -3.85,-1.725 -2.125,0 -3.188,0.931 -3.72,1.595 -0.265,-1.595 1.063,-3.585 3.587,-3.585 2.656,0 3.983,1.858 3.983,3.715 M 62.717,124.312 c 0.929,-2.258 3.055,-3.851 5.577,-4.38 0.531,-0.8 1.194,-1.464 1.861,-1.993 L 65.64,99.08 c -0.534,-1.328 -0.933,-2.655 -0.933,-4.515 0,-1.992 0.399,-3.984 0.399,-5.045 0,-0.931 -0.53,-1.195 -1.061,-1.195 -0.399,0 -0.666,0 -0.797,0.133 v 0.529 c 0,3.055 -1.86,5.445 -4.916,5.445 -3.053,0 -5.445,-2.522 -5.445,-5.445 0,-2.92 2.392,-5.311 5.445,-5.311 0.531,0 1.197,0 1.991,0.267 0.932,-2.392 3.852,-4.515 6.905,-4.116 -2.123,-2.657 -5.311,-4.252 -8.896,-4.252 -7.7,0 -13.81,5.578 -13.81,13.412 0,7.305 5.976,13.149 13.412,13.279 z M 83.3,152.865 c 1.992,0 4.117,-1.064 6.107,-3.056 3.585,-3.452 8.633,-8.631 11.688,-10.624 2.655,-1.727 4.381,-2.392 6.106,-2.392 1.064,0 1.863,0.27 2.657,1.064 l 4.516,-3.452 c -5.18,-3.853 -7.571,-8.9 -7.704,-15.138 -7.169,3.849 -12.349,9.161 -18.326,14.208 -1.06,0.796 -1.591,1.193 -2.522,1.193 -0.93,0 -1.727,-0.929 -3.321,-2.521 -1.327,-1.327 -1.594,-2.127 -1.594,-3.054 0,-1.596 0.533,-2.126 0.533,-4.253 0,-4.246 -3.319,-6.637 -6.507,-6.637 -2.657,0 -4.646,1.459 -5.312,3.32 -3.587,0.265 -5.842,2.922 -5.842,5.708 0,0.665 0.134,1.196 0.267,1.594 -1.328,0.798 -2.657,2.392 -2.657,4.516 0,2.258 1.194,4.384 3.187,5.048 -0.266,-0.399 -0.4,-0.932 -0.4,-1.597 0,-1.193 1.065,-2.258 2.524,-2.258 1.195,0 1.991,0.4 2.921,1.463 1.194,1.595 2.392,3.053 4.382,4.78 1.86,1.594 3.982,2.657 5.976,3.852 1.195,0.797 2.125,1.858 2.125,3.453 0,1.062 -0.797,2.258 -2.392,2.655 0.665,1.463 1.994,2.128 3.588,2.128 m -7.57,-25.896 c -0.133,-2.656 -2.125,-4.779 -4.648,-5.312 0.4,-0.267 1.062,-0.663 2.126,-0.663 1.857,0 3.319,1.591 3.319,3.318 0,1.329 -0.4,1.995 -0.797,2.657 m 14.742,69.851 c -0.534,-0.664 -0.796,-1.327 -0.796,-2.127 0,-1.593 1.328,-2.788 3.184,-2.788 2.921,0 4.515,3.188 8.369,3.188 4.382,0 6.505,-3.188 10.489,-3.188 1.993,0 4.783,1.195 4.783,3.721 0,0.397 -0.135,0.794 -0.4,1.06 4.516,0 7.702,-3.85 7.702,-10.224 0,-8.899 -0.265,-12.482 -0.397,-17.395 3.455,-0.135 6.771,-1.863 6.24,-7.306 -0.93,0.797 -1.991,1.195 -3.185,1.195 -1.595,0 -2.788,-1.195 -2.788,-2.92 0,-0.8 0,-1.728 0.131,-2.657 l 15.537,-0.4 c -1.46,-0.795 -2.522,-2.391 -2.522,-4.249 0,-1.327 0.531,-2.257 1.594,-2.788 -1.46,-3.054 -2.656,-5.442 -4.115,-7.7 -0.798,-1.196 -1.727,-2.391 -3.587,-2.391 -4.115,-0.135 -12.483,1.061 -16.733,2.521 -3.186,1.063 -6.242,3.454 -6.242,8.897 0,5.045 1.726,13.943 1.593,27.888 0,1.991 -0.528,2.655 -1.725,2.92 -1.062,0.268 -3.851,0.533 -5.578,0.268 -0.928,-0.135 -1.728,-0.799 -2.257,-2.79 -0.665,-2.787 -2.653,-5.576 -6.639,-5.576 -3.587,0 -6.772,2.654 -6.243,6.64 -1.724,1.063 -2.523,2.789 -2.523,4.38 0,1.597 0.531,2.922 1.194,3.721 -0.395,0.928 -0.529,1.459 -0.529,2.391 -0.002,3.317 2.92,5.709 5.443,5.709 M 71.746,130.554 c -0.797,-1.592 -2.523,-2.521 -4.517,-2.521 -0.796,0 -1.457,0.132 -1.989,0.265 0.263,-1.063 1.459,-1.99 3.188,-1.99 2.258,-0.001 3.716,1.724 3.318,4.246 m 23.24,51.392 c -0.532,-1.192 -2.258,-2.391 -4.382,-2.391 -1.197,0 -1.993,0.265 -2.522,0.533 0.131,-1.062 1.195,-2.258 3.319,-2.258 2.521,10e-4 3.849,1.99 3.585,4.116 m -11.288,11.553 c -0.398,-0.796 -0.531,-1.594 -0.531,-2.389 0,-0.798 0.133,-1.463 0.399,-2.127 -0.666,-1.194 -1.065,-2.521 -1.065,-3.984 0,-1.988 0.933,-3.85 2.26,-5.044 l -8.234,-35.724 c -1.329,-0.662 -2.657,-1.459 -3.718,-2.389 -1.861,-1.594 -2.922,-2.791 -4.648,-4.779 -0.533,-0.533 -0.932,-0.8 -1.461,-0.8 -0.796,0 -1.327,0.53 -1.06,1.595 l 1.726,8.233 3.583,2.523 9.959,42.76 z m 10.493,-5.844 c -0.8,-0.929 -2.127,-1.725 -3.854,-1.725 -2.125,0 -3.188,0.931 -3.718,1.595 -0.264,-1.595 1.063,-3.585 3.587,-3.585 2.654,0 3.985,1.858 3.985,3.715 m -65.604,9.96 8.101,-6.24 9.962,-42.76 3.583,-2.523 7.969,-34.26 -1.727,-7.969 c -1.993,-0.4 -3.721,-0.931 -5.179,-1.725 z m 124.83,-0.795 c -0.533,-0.664 -0.797,-1.327 -0.797,-2.127 0,-1.593 1.325,-2.788 3.186,-2.788 2.921,0 4.515,3.188 8.366,3.188 4.38,0 6.507,-3.188 10.489,-3.188 1.993,0 4.782,1.195 4.782,3.721 0,0.397 -0.134,0.794 -0.397,1.06 4.515,0 7.701,-3.85 7.701,-10.224 0,-8.5 -0.795,-17.928 -1.728,-27.357 2.394,-0.531 4.648,-2.92 4.648,-5.975 0,-1.063 -0.395,-2.257 -1.061,-3.32 -0.666,0.93 -1.86,1.729 -3.849,2.257 -2.791,0.799 -6.244,1.197 -8.768,1.197 -5.71,0 -7.568,-0.398 -10.223,-1.197 -0.136,-3.584 -2.392,-6.508 -4.516,-8.497 3.32,1.325 4.78,1.989 10.092,1.989 16.998,0 27.488,-11.418 27.488,-24.433 0,-9.43 -5.976,-13.81 -11.418,-17 l -5.046,3.586 c 6.107,2.79 10.089,6.906 10.089,12.484 0,6.11 -4.911,10.491 -10.621,10.491 -6.109,0 -10.89,-4.381 -10.89,-10.36 0,-4.514 2.123,-7.832 6.108,-11.022 3.983,-3.185 10.093,-7.038 13.413,-10.622 1.727,-1.859 3.187,-4.781 3.055,-7.039 2.256,-1.062 3.982,-3.318 3.982,-6.242 0,-3.85 -3.716,-6.771 -7.701,-6.771 -2.39,0 -5.045,1.46 -6.377,3.055 2.392,0.929 4.65,4.115 4.65,7.436 0,2.788 -1.725,5.179 -3.718,7.17 -3.055,3.055 -7.038,5.312 -11.421,8.897 -5.313,4.384 -8.5,9.562 -8.5,15.406 0,8.099 6.242,15.668 16.068,15.668 3.189,0 5.711,-0.663 7.571,-1.857 -3.187,3.715 -9.162,5.577 -15.404,5.577 -5.447,0 -9.163,-0.798 -13.146,-3.72 -3.588,-2.655 -6.375,-8.896 -6.243,-13.544 -2.921,1.728 -6.375,3.319 -9.297,4.648 -4.117,1.989 -5.443,4.115 -5.443,7.701 0,4.782 3.32,8.5 4.777,11.288 1.993,3.585 2.66,6.772 2.922,10.092 0.797,8.103 5.446,11.818 13.678,11.818 3.72,0 8.631,-0.264 10.624,-0.53 0.798,3.719 1.728,8.101 1.728,11.421 0,1.991 -0.533,2.655 -1.728,2.92 -1.061,0.268 -3.848,0.533 -5.576,0.268 -0.928,-0.135 -1.727,-0.799 -2.259,-2.79 -0.662,-2.787 -2.652,-5.576 -6.638,-5.576 -3.586,0 -6.773,2.654 -6.242,6.64 -1.725,1.063 -2.524,2.789 -2.524,4.38 0,1.597 0.53,2.922 1.197,3.721 -0.397,0.928 -0.533,1.459 -0.533,2.391 0.002,3.317 2.926,5.709 5.45,5.709"
         fill="#ffffff"
         id="path4" />
    </g>
    <path
       inkscape:export-ydpi="250.21721"
       inkscape:export-xdpi="250.21721"
       inkscape:export-filename="C:\Users\dorma_000\Desktop\path3220.png"
       id="path4106"
       d="m 114.82961,96.183006 c -0.27217,0 -0.33468,0.330556 -0.14918,0.456464 -0.59894,-0.171221 -3.08073,0.357027 -4.98779,1.962237 0,0 0.0613,0.18867 0.17595,0.451352 0.1461,0.09452 0.4882,0.02139 0.48832,-0.08803 -4e-4,-4.03e-4 4.1e-4,-8.96e-4 0,-0.0011 -0.002,-0.127774 0.0399,-0.241314 0.13388,-0.331497 0.0622,-0.05958 0.12484,-0.117739 0.18742,-0.1734 -0.0533,0.05644 -0.096,0.119643 -0.12622,0.188699 -0.31652,0.723862 0.40405,1.243659 1.21124,1.591209 0.002,7.4e-4 0.003,0.002 0.006,0.002 1.04692,0.43795 2.3475,0.53742 3.01792,0.57885 v -0.21547 c 0.002,-0.0189 0.002,-0.037 0,-0.0523 v -0.0548 c -0.24302,-0.004 -0.6471,-0.0319 -0.92692,-0.0663 -0.0188,-0.002 -0.0363,-0.004 -0.0548,-0.007 -0.62715,-0.0657 -1.12775,-0.15723 -1.52618,-0.2652 -0.16958,-0.043 -0.32625,-0.0924 -0.49598,-0.15937 -0.0277,-0.0112 -0.0541,-0.0209 -0.0803,-0.0319 -1.06868,-0.445202 -0.97079,-1.019282 -0.92564,-1.190858 0.0981,-0.373035 0.58276,-0.504102 1.10415,-0.516387 0.0477,-0.0011 0.096,-7.73e-4 0.14407,0 -0.11383,0.568297 -0.18933,1.099042 -0.23078,1.592495 0.15199,0.0603 0.26916,0.0997 0.39653,0.13388 0.0203,-0.549956 0.0827,-1.124077 0.1836,-1.70597 0.23565,0.02341 0.45557,0.06417 0.62475,0.109642 0.89815,0.241426 1.60796,0.863609 1.12072,1.714888 -0.0458,0.0786 -0.0974,0.15266 -0.15682,0.22057 0.1346,0.0112 0.28658,0.0209 0.44497,0.0306 0.1363,-0.24661 0.20534,-0.47886 0.21675,-0.694868 0.003,0.242168 0.006,0.473108 0.002,0.707628 0.0542,0.002 0.10718,0.006 0.15938,0.008 v -2.497741 c 0,-0.05611 0.0433,-0.0523 0.0433,-0.0523 v -1.2288 -0.415649 z m -0.3978,0.858091 c 0.22222,-0.0011 0.17595,0.198398 0.17595,0.594157 0,0.01982 -1.18253,-0.05152 -1.18193,0.01781 9.4e-4,0.110762 0.002,0.02173 0.002,0.140251 0,0.06081 1.19085,0.009 1.19085,0.04849 0,0.122022 -0.008,1.110471 0,1.231664 0,0.150576 0.002,0.293683 0.003,0.430947 -0.068,-0.869414 -1.08787,-1.433141 -2.25165,-1.485387 -0.54919,-0.02464 -1.20338,0.06395 -1.57463,0.336604 1.08768,-0.920793 2.25336,-1.272023 3.63504,-1.314536 z m -4.21642,2.094843 c -0.12692,0.0078 -0.24929,0.123932 -0.17978,0.253723 0.0872,0.162877 0.44907,0.0532 0.37358,-0.128771 -0.0391,-0.09419 -0.11765,-0.129399 -0.1938,-0.124952 z m 0.24734,0.326407 c -0.13404,0.0045 -0.27751,0.143503 -0.255,0.246083 0.12585,0.20593 0.27101,0.40857 0.43733,0.57374 0.27509,0.27317 0.60987,0.48728 0.96773,0.63622 -9.4e-4,-0.17707 0.003,-0.35926 -0.001,-0.53039 -0.46129,-0.24411 -0.84258,-0.57963 -1.05953,-0.905254 -0.0278,-0.01534 -0.0583,-0.0215 -0.0893,-0.02038 z m 1.29923,0.986843 c -0.002,0.16904 -0.006,0.35799 -0.003,0.52657 0.0232,0.85271 0.16916,1.55303 0.41054,2.09228 0.59207,1.32263 1.73272,2.56659 2.66093,3.38767 v -0.69743 c -0.7431,-0.76531 -1.77524,-1.88604 -2.21723,-2.89934 -0.20098,-0.46081 -0.32612,-1.01043 -0.38632,-1.61542 l -0.002,10e-4 c -0.0341,-0.25442 -0.0264,-0.38883 -0.0383,-0.61838 0,-0.002 -0.001,-0.004 -0.001,-0.008 -0.16578,-0.0544 -0.30029,-0.10986 -0.42202,-0.16957 z m 3.06765,5.30909 v -1.47134 c 0,0 -0.0433,-0.0308 -0.0433,-0.0587 v -3.28693 c -0.0497,0 -0.10684,-0.002 -0.16575,-0.002 -0.002,0.97653 -0.1395,2.03379 -0.12878,2.91974 0.0331,0.63366 0.33787,1.89975 0.33787,1.89975 z m -2.5041,-5.09361 c 0.007,0.15698 0.0159,0.31167 0.0319,0.46282 0.53781,0.0811 1.07808,0.0159 1.52107,-0.2193 -0.47485,-0.0335 -1.01529,-0.0997 -1.4841,-0.22695 -0.0232,-0.006 -0.0458,-0.0112 -0.0689,-0.0166 z"
       style="fill:#ffffff;fill-opacity:1;stroke:none;stroke-width:0.00501606"
       inkscape:connector-curvature="0" />
    <path
       inkscape:export-ydpi="250.21721"
       inkscape:export-xdpi="250.21721"
       inkscape:export-filename="C:\Users\dorma_000\Desktop\path3220.png"
       id="path4108"
       d="m 114.82961,96.183006 v 0.41566 1.229106 c 0,0 0.0421,-0.0034 0.0421,0.0523 v 2.497728 c 0.0522,-0.002 0.10528,-0.006 0.15937,-0.008 -0.002,-0.23171 -4e-4,-0.46168 0.002,-0.70125 0.0124,0.2142 0.0819,0.44441 0.21675,0.6885 0.15839,-0.0101 0.31039,-0.0198 0.44498,-0.0306 -0.0592,-0.068 -0.11121,-0.14217 -0.15683,-0.22057 -0.48724,-0.851263 0.22257,-1.473445 1.12073,-1.714882 0.16892,-0.04547 0.3895,-0.08624 0.62475,-0.109643 0.10091,0.581894 0.16336,1.156014 0.18359,1.705965 0.12723,-0.0341 0.2448,-0.0725 0.39653,-0.1326 -0.0414,-0.49382 -0.11685,-1.024969 -0.23078,-1.593759 0.57315,-0.009 1.1411,0.109195 1.24823,0.516377 0.0451,0.171575 0.14304,0.745656 -0.92565,1.190862 -0.0262,0.0112 -0.0526,0.0212 -0.0803,0.0319 -0.16766,0.0662 -0.32241,0.11549 -0.4896,0.15811 -0.40801,0.11109 -0.92262,0.20526 -1.57208,0.27157 -0.006,5.3e-4 -0.0101,7.4e-4 -0.0153,0.001 -0.2244,0.0276 -0.52801,0.0506 -0.76628,0.0613 -0.0588,0.002 -0.11255,0.004 -0.16064,0.006 v 0.0549 c -0.002,0.0153 -0.002,0.0333 0,0.0523 v 0.21547 c 0.6701,-0.0414 1.97044,-0.14066 3.01792,-0.57885 0.002,-7.4e-4 0.003,-0.002 0.006,-0.002 0.80719,-0.34755 1.52776,-0.867343 1.21125,-1.591216 -0.0302,-0.0691 -0.073,-0.132254 -0.12623,-0.188699 0.0626,0.05566 0.12531,0.11382 0.18744,0.173401 0.0877,0.08411 0.12897,0.188715 0.1326,0.306006 0,-5.26e-4 10e-4,-7.28e-4 10e-4,-0.0011 0,0.0045 -5.4e-4,0.009 0,0.01277 0,8.62e-4 -10e-6,0.0022 0,0.0022 0.0208,0.122671 0.36797,0.214888 0.48959,0.09687 0.11348,-0.260678 0.17468,-0.447534 0.17468,-0.447534 -1.90706,-1.605192 -4.38886,-2.133451 -4.98779,-1.96223 0.1855,-0.125908 0.12426,-0.456453 -0.1479,-0.456453 z m 0.3978,0.858091 c 1.38166,0.04256 2.54606,0.393743 3.63374,1.314536 -0.37125,-0.272632 -1.02543,-0.361254 -1.57463,-0.336604 -1.16206,0.05219 -2.17972,0.614327 -2.25037,1.481568 10e-4,-0.136144 0.002,-0.277884 0.002,-0.427128 0.008,-0.121205 0,-1.109642 0,-1.231664 0,-0.0392 1.19085,0.01243 1.19085,-0.04849 0,-0.118546 0.001,-0.02945 0.002,-0.140251 6.2e-4,-0.06944 -1.18192,0.0022 -1.18192,-0.01781 0,-0.395759 -0.045,-0.595837 0.17723,-0.594157 z m 4.21131,2.094843 c -0.0763,-0.0022 -0.15298,0.03573 -0.1887,0.131324 -0.069,0.184611 0.29602,0.280696 0.3774,0.114749 0.0648,-0.132231 -0.0616,-0.243296 -0.1887,-0.246073 z m -0.20655,0.312374 c -0.0617,0.0034 -0.1232,0.03808 -0.16575,0.117307 -0.0993,0.184719 0.26949,0.330369 0.36083,0.158099 0.0754,-0.142162 -0.0595,-0.283481 -0.19508,-0.275406 z m -0.21802,0.309836 c -0.0629,9e-4 -0.12494,0.0287 -0.16703,0.0931 -0.1176,0.18007 0.21793,0.3794 0.36083,0.15937 0.0837,-0.1289 -0.0552,-0.2544 -0.1938,-0.25245 z m -0.35573,0.23841 c -0.0137,0 -0.025,0.003 -0.0357,0.008 -4.1e-4,4.2e-4 -0.001,-4e-4 -0.001,0 -0.16988,0.14047 -0.36368,0.272 -0.57503,0.38379 -0.004,0.17113 -4.1e-4,0.35332 -0.001,0.53039 0.35063,-0.14594 0.67927,-0.35433 0.95115,-0.61964 0,-4.5e-4 0,-8.2e-4 0,-10e-4 0.0204,-0.12098 -0.21163,-0.30247 -0.33787,-0.30091 z m -0.76245,0.45263 c -0.12172,0.0598 -0.25624,0.11511 -0.42203,0.16958 -0.0124,0.23449 -0.006,0.3687 -0.0395,0.62602 l -0.002,-10e-4 c -0.0601,0.60499 -0.18534,1.15461 -0.38632,1.61542 -0.44174,1.01276 -1.47293,2.13278 -2.21595,2.89807 v 0.6987 c 0.92822,-0.82108 2.06759,-2.06503 2.65965,-3.38766 0.24139,-0.53925 0.38737,-1.23958 0.41054,-2.09228 10e-4,-0.16858 -0.001,-0.35754 -0.003,-0.52657 z m -3.06636,5.30782 v -0.003 c -3e-5,0 -0.001,0.006 -0.001,0.006 4.1e-4,-4.1e-4 9e-4,-8.6e-4 0.001,-10e-4 z m 0,-0.003 c 0.003,-0.0155 0.30369,-1.2649 0.3366,-1.89464 0.0112,-0.88595 -0.12664,-1.94321 -0.12878,-2.91974 -0.0592,8.1e-4 -0.11584,0.002 -0.16575,0.002 v 3.28695 c 0,0.0279 -0.0421,0.0587 -0.0421,0.0587 v 1.46625 z m 2.50281,-5.08851 c -0.023,0.006 -0.0457,0.0113 -0.0689,0.0166 -0.46839,0.12713 -1.00828,0.19347 -1.48282,0.22696 0.44279,0.23463 0.9825,0.3002 1.5198,0.21929 0.016,-0.15115 0.025,-0.30583 0.0318,-0.46282 z"
       style="fill:#ffffff;fill-opacity:1;stroke:none;stroke-width:0.00501606"
       inkscape:connector-curvature="0" />
    <path
       inkscape:export-ydpi="250.21721"
       inkscape:export-xdpi="250.21721"
       inkscape:export-filename="C:\Users\dorma_000\Desktop\path3220.png"
       style="fill:#ffffff;fill-opacity:1;stroke:none;stroke-width:0.00501606"
       d="m 114.69736,100.49524 c 0,0 0.0854,0.003 0.12814,0.003 0.0431,-4.1e-4 0.13038,-0.002 0.13038,-0.002 v 0.3197 c 0,0 -0.0688,0.006 -0.12714,0.006 -0.0703,-4.1e-4 -0.10942,-0.006 -0.10942,-0.006 z"
       id="path4110"
       inkscape:connector-curvature="0"
       sodipodi:nodetypes="csccscc" />
  </g>
</svg>
