<svg width="144.46mm" height="63.765mm" version="1.1" viewBox="0 0 144.46 63.765" xmlns="http://www.w3.org/2000/svg">
 <g transform="translate(-170.57 -397.33)">
  <path d="m203.91 408.18h20.902" fill="none" stroke="#47d58a" stroke-linecap="square" stroke-width=".26458"/>
  <g transform="matrix(.0042365 0 0 .0043091 223.9 406.96)" fill="#47d58a" stroke-width="123.85">
   <g fill="#47d58a" stroke-width="123.85">
    <path d="m486.41 221.41-364.07-208.5c-52.938-30.318-95.852-5.44-95.852 55.563v415.65c0 61.004 42.914 85.882 95.852 55.563l364.07-208.49c52.938-30.317 52.938-79.473 0-109.79z" fill="#47d58a" stroke-width="123.85"/>
   </g>
  </g>
  <rect x="170.7" y="397.47" width="33.073" height="21.167" fill="#1d232d" stroke="#7b8694" stroke-linecap="round" stroke-width=".26458"/>
  <g fill="#d2d6dc" stroke="#7b8694" stroke-width=".26458">
   <path d="m190.36 403.08 5.6171-0.84739-0.0196 7.5741-5.5975-1.1036z"/>
   <path d="m189.43 403.08 5.6171-0.84739-0.0196 7.5741-5.5975-1.1036z"/>
   <path d="m188.51 403.08 5.6171-0.84739-0.0196 7.5741-5.5975-1.1036z"/>
   <path d="m187.58 403.08 5.6171-0.84739-0.0196 7.5741-5.5975-1.1036z"/>
   <path d="m186.66 403.08 5.6171-0.84739-0.0196 7.5741-5.5975-1.1036z"/>
   <path d="m180.57 402.12 3.4031-0.51339-0.0119 4.5888-3.3912-0.6686z"/>
   <path d="m180.01 402.12 3.4031-0.51339-0.0119 4.5888-3.3912-0.6686z"/>
   <path d="m179.45 402.12 3.4031-0.51339-0.0119 4.5888-3.3912-0.6686z"/>
   <path d="m178.89 402.12 3.4031-0.51339-0.0119 4.5888-3.3912-0.6686z"/>
   <path d="m178.33 402.12 3.4031-0.51339-0.0119 4.5888-3.3912-0.6686z"/>
   <path d="m182.71 410 1.8992-0.28652-7e-3 2.561-1.8926-0.37314z"/>
   <path d="m182.39 410 1.8992-0.28652-7e-3 2.561-1.8926-0.37314z"/>
   <path d="m182.08 410 1.8992-0.28652-7e-3 2.561-1.8926-0.37314z"/>
   <path d="m181.77 410 1.8992-0.28652-7e-3 2.561-1.8926-0.37314z"/>
   <path d="m181.45 410 1.8992-0.28652-7e-3 2.561-1.8926-0.37314z"/>
  </g>
  <g fill="#e8eaec" stroke-linecap="round" stroke-width=".26458" aria-label="Case-base">
   <path d="m179.48 416.07c0 0.79269 0.45561 1.2594 1.0668 1.2594 0.30744 0 0.54822-0.12965 0.73713-0.3519l-0.1741-0.18891c-0.15557 0.1741-0.32596 0.2704-0.55562 0.2704-0.46302 0-0.75565-0.38523-0.75565-0.99642 0-0.60378 0.30744-0.9816 0.77046-0.9816 0.20003 0 0.3556 0.0889 0.48525 0.22595l0.1741-0.19632c-0.14447-0.15928-0.37413-0.30004-0.66305-0.30004-0.6223 0-1.0853 0.47784-1.0853 1.2594z"/>
   <path d="m181.61 416.82c0 0.32227 0.22595 0.51118 0.5297 0.51118 0.22225 0 0.42227-0.11854 0.59637-0.25929h7e-3l0.0259 0.21484h0.25189v-1.1038c0-0.44821-0.18521-0.74084-0.62601-0.74084-0.28892 0-0.54081 0.12594-0.70749 0.23337l0.12223 0.21113c0.14076-0.0963 0.32597-0.19261 0.53711-0.19261 0.29263 0 0.37042 0.22225 0.37042 0.4519-0.76677 0.0852-1.1076 0.28152-1.1076 0.67416zm0.30004-0.0222c0-0.22966 0.20373-0.37783 0.80751-0.45191v0.50006c-0.1741 0.15558-0.31856 0.24077-0.49266 0.24077-0.1778 0-0.31485-0.0852-0.31485-0.28892z"/>
   <path d="m183.4 417.08c0.17039 0.14076 0.41486 0.24818 0.67045 0.24818 0.42598 0 0.65934-0.24448 0.65934-0.53711 0-0.34078-0.28892-0.4482-0.54821-0.54451-0.20373-0.0778-0.40005-0.14446-0.40005-0.31115 0-0.13705 0.10371-0.25929 0.32967-0.25929 0.15928 0 0.28892 0.0667 0.41116 0.15928l0.14446-0.19262c-0.13705-0.11112-0.33337-0.20373-0.55933-0.20373-0.38894 0-0.61859 0.22225-0.61859 0.51118 0 0.30374 0.28151 0.42598 0.5371 0.51858 0.19632 0.0741 0.41116 0.15558 0.41116 0.34078 0 0.15558-0.11853 0.28152-0.3556 0.28152-0.21484 0-0.37412-0.0889-0.52969-0.21484z"/>
   <path d="m185.02 416.39c0 0.58896 0.38153 0.94086 0.86307 0.94086 0.24448 0 0.43709-0.0852 0.59267-0.18521l-0.10742-0.20003c-0.13335 0.0852-0.27781 0.14076-0.44821 0.14076-0.34448 0-0.57785-0.24447-0.60007-0.63341h1.215c7e-3 -0.0445 0.0111-0.10372 0.0111-0.16669 0-0.51488-0.25929-0.84455-0.71861-0.84455-0.41116 0-0.80751 0.35931-0.80751 0.94827zm0.29633-0.13705c0.0371-0.36301 0.2667-0.57045 0.51859-0.57045 0.28151 0 0.4445 0.20373 0.4445 0.57045z"/>
   <path d="m186.86 416.47h0.85196v-0.23337h-0.85196z"/>
   <path d="m188.16 417.28h0.24447l0.0259-0.1778h0.0111c0.15928 0.14076 0.3482 0.22225 0.51488 0.22225 0.41117 0 0.77788-0.35931 0.77788-0.9742 0-0.55562-0.24818-0.91493-0.71491-0.91493-0.20002 0-0.40005 0.10742-0.56303 0.25189l7e-3 -0.32597v-0.71861h-0.30374zm0.30374-0.40005v-0.94456c0.17039-0.15928 0.32967-0.24448 0.48154-0.24448 0.34078 0 0.47413 0.2667 0.47413 0.66305 0 0.4445-0.21854 0.7149-0.51488 0.7149-0.11853 0-0.28151-0.0519-0.44079-0.18891z"/>
   <path d="m190.08 416.82c0 0.32227 0.22595 0.51118 0.5297 0.51118 0.22225 0 0.42227-0.11854 0.59637-0.25929h7e-3l0.0259 0.21484h0.25189v-1.1038c0-0.44821-0.18521-0.74084-0.62601-0.74084-0.28892 0-0.54081 0.12594-0.70749 0.23337l0.12223 0.21113c0.14076-0.0963 0.32597-0.19261 0.53711-0.19261 0.29263 0 0.37042 0.22225 0.37042 0.4519-0.76677 0.0852-1.1076 0.28152-1.1076 0.67416zm0.30004-0.0222c0-0.22966 0.20373-0.37783 0.80751-0.45191v0.50006c-0.1741 0.15558-0.31856 0.24077-0.49266 0.24077-0.1778 0-0.31485-0.0852-0.31485-0.28892z"/>
   <path d="m191.86 417.08c0.17039 0.14076 0.41486 0.24818 0.67045 0.24818 0.42598 0 0.65934-0.24448 0.65934-0.53711 0-0.34078-0.28892-0.4482-0.54821-0.54451-0.20373-0.0778-0.40005-0.14446-0.40005-0.31115 0-0.13705 0.10371-0.25929 0.32967-0.25929 0.15928 0 0.28892 0.0667 0.41116 0.15928l0.14446-0.19262c-0.13705-0.11112-0.33337-0.20373-0.55933-0.20373-0.38894 0-0.61859 0.22225-0.61859 0.51118 0 0.30374 0.28151 0.42598 0.5371 0.51858 0.19632 0.0741 0.41116 0.15558 0.41116 0.34078 0 0.15558-0.11853 0.28152-0.3556 0.28152-0.21484 0-0.37412-0.0889-0.52969-0.21484z"/>
   <path d="m193.48 416.39c0 0.58896 0.38153 0.94086 0.86307 0.94086 0.24448 0 0.43709-0.0852 0.59267-0.18521l-0.10742-0.20003c-0.13335 0.0852-0.27781 0.14076-0.44821 0.14076-0.34448 0-0.57785-0.24447-0.60007-0.63341h1.215c7e-3 -0.0445 0.0111-0.10372 0.0111-0.16669 0-0.51488-0.25929-0.84455-0.71861-0.84455-0.41116 0-0.80751 0.35931-0.80751 0.94827zm0.29633-0.13705c0.037-0.36301 0.2667-0.57045 0.51859-0.57045 0.28151 0 0.4445 0.20373 0.4445 0.57045z"/>
  </g>
  <path d="m259.47 408.18h20.902" fill="none" stroke="#47d58a" stroke-linecap="square" stroke-width=".26458"/>
  <g>
   <g transform="matrix(.0042365 0 0 .0043091 279.46 406.96)" fill="#47d58a" stroke-width="123.85">
    <g fill="#47d58a" stroke-width="123.85">
     <path d="m486.41 221.41-364.07-208.5c-52.938-30.318-95.852-5.44-95.852 55.563v415.65c0 61.004 42.914 85.882 95.852 55.563l364.07-208.49c52.938-30.317 52.938-79.473 0-109.79z" fill="#47d58a" stroke-width="123.85"/>
    </g>
   </g>
   <rect x="226.26" y="397.47" width="33.073" height="21.167" fill="#1d232d" stroke="#7b8694" stroke-linecap="round" stroke-width=".26458"/>
   <path d="m239.24 412.39c-0.23345-0.21395-0.28516-0.3195-0.31273-0.63848-0.0606-0.70051 0.46629-1.1888 1.1694-1.0838l0.31526 0.0471 1.7752-1.781 5e-3 -0.52354 5e-3 -0.52355-1.7458-1.7808-1.0914 0.01-0.88847 0.88558-0.88848 0.88558 0.0471 0.31527c0.10501 0.70313-0.38326 1.23-1.0838 1.1694-0.31898-0.0276-0.42454-0.0793-0.63848-0.31274-0.21694-0.23672-0.25633-0.33772-0.25633-0.65735 0-0.65246 0.4915-1.0727 1.1618-0.99329l0.3602 0.0427 0.88116-0.88368 0.88116-0.88367 3e-3 -0.50267c2e-3 -0.46307 0.0224-0.52262 0.25546-0.75572 0.23311-0.23311 0.29266-0.25324 0.75573-0.25547l0.50267-3e-3 1.7673-1.7623-0.0427-0.3602c-0.0794-0.6703 0.34082-1.1618 0.99328-1.1618 0.3221 0 0.42018 0.039 0.66674 0.26492 0.27322 0.25039 0.28908 0.2908 0.28908 0.73639v0.47145l1.8073 1.8026 0.47604 7e-3c0.44717 6e-3 0.49211 0.0244 0.74092 0.29598 0.43571 0.47552 0.35057 1.1418-0.19269 1.508-0.7302 0.49208-1.6541-0.12593-1.521-1.0174l0.0471-0.31526-1.822-1.7942-1.0423 0.014-1.7446 1.7396 5e-3 0.54574 5e-3 0.54576 0.87915 0.88165 0.87915 0.88166 0.3602-0.0427c0.71168-0.0843 1.201 0.39253 1.1346 1.1058l-0.0367 0.39491 1.8093 1.8046 0.35252-0.0483c0.65248-0.0894 1.1516 0.36214 1.1522 1.0424 2.3e-4 0.28964-0.0427 0.38101-0.30018 0.63848-0.25746 0.25746-0.34882 0.30042-0.63847 0.30017-0.68102-5.6e-4 -1.1298-0.49754-1.0426-1.1546l0.0473-0.35635-0.88909-0.88656-0.88909-0.88657-1.0471-0.01-1.8161 1.781 0.0445 0.38947c0.0374 0.3272 0.0152 0.43259-0.13907 0.65921-0.22911 0.33663-0.47268 0.46287-0.89594 0.46434-0.26662 1e-3 -0.3838-0.0481-0.60975-0.25519zm0.93839-0.48855c0.17509-0.17508 0.11757-0.42784-0.12874-0.56563-0.18947-0.10601-0.22146-0.1035-0.3676 0.0288-0.19089 0.17275-0.20521 0.37425-0.0384 0.541 0.15668 0.15668 0.37569 0.155 0.5348-4e-3zm6.5255 0.0329c0.14078-0.14077 0.11134-0.40816-0.0622-0.56524-0.31965-0.28929-0.78731 0.18887-0.49771 0.50888 0.15242 0.16842 0.42086 0.19544 0.55994 0.0564zm-9.7674-3.351c0.11743-0.17923 0.11743-0.20773 0-0.38696-0.14453-0.22058-0.3654-0.2498-0.54333-0.0719-0.23613 0.23612-0.0644 0.6523 0.26909 0.6523 0.0811 0 0.20451-0.0871 0.27424-0.19348zm6.4882 0.0719c0.15662-0.15662 0.15439-0.33302-6e-3 -0.51077-0.15893-0.17562-0.32035-0.17992-0.5043-0.0134-0.17562 0.15893-0.17992 0.32035-0.0134 0.5043 0.15719 0.1737 0.36263 0.1815 0.52422 0.0199zm-3.2704-3.2569c0.1833-0.16588 0.17966-0.35517-0.0102-0.52692-0.34864-0.31552-0.81885 0.15471-0.50334 0.50333 0.16772 0.18534 0.32667 0.19264 0.51347 0.0236zm6.5208 6e-3c0.22698-0.227 0.067-0.6523-0.24544-0.6523-0.14667 0-0.40687 0.21937-0.40687 0.34303 0 0.16242 0.24039 0.43088 0.38582 0.43088 0.0797 0 0.1996-0.0547 0.26649-0.12161zm-3.2805-3.2706c0.3319-0.26876 0.0308-0.72708-0.38987-0.59355-0.24475 0.0777-0.29163 0.42271-0.0807 0.59355 0.0963 0.0779 0.20213 0.14173 0.23527 0.14173 0.0332 0 0.139-0.0638 0.23526-0.14173z" fill="#7b8694" stroke-width=".28222"/>
   <g fill="#e8eaec" stroke-linecap="round" stroke-width=".26458" aria-label="Decision tree">
    <path d="m233.04 417.28h0.6223c0.73343 0 1.1335-0.45191 1.1335-1.2261 0-0.77047-0.40005-1.2039-1.1483-1.2039h-0.60749zm0.31115-0.25189v-1.9262h0.27411c0.57044 0 0.85196 0.34078 0.85196 0.95197 0 0.61489-0.28152 0.97419-0.85196 0.97419z"/>
    <path d="m235.16 416.39c0 0.58896 0.38153 0.94086 0.86307 0.94086 0.24448 0 0.4371-0.0852 0.59267-0.18521l-0.10742-0.20003c-0.13335 0.0852-0.27781 0.14076-0.4482 0.14076-0.34449 0-0.57785-0.24447-0.60008-0.63341h1.215c7e-3 -0.0445 0.0111-0.10372 0.0111-0.16669 0-0.51488-0.25929-0.84455-0.71861-0.84455-0.41116 0-0.80751 0.35931-0.80751 0.94827zm0.29634-0.13705c0.037-0.36301 0.2667-0.57045 0.51858-0.57045 0.28152 0 0.4445 0.20373 0.4445 0.57045z"/>
    <path d="m236.99 416.39c0 0.59637 0.36671 0.94086 0.84455 0.94086 0.21484 0 0.42227-0.0889 0.58526-0.23336l-0.13706-0.20003c-0.10742 0.0963-0.25188 0.1815-0.42227 0.1815-0.32967 0-0.55563-0.27781-0.55563-0.68897 0-0.41487 0.23707-0.69638 0.56304-0.69638 0.14446 0 0.25558 0.0667 0.363 0.15928l0.15187-0.19633c-0.12223-0.11482-0.28892-0.21484-0.52599-0.21484-0.46302 0-0.86677 0.34449-0.86677 0.94827z"/>
    <path d="m238.97 415.11c0.11853 0 0.21114-0.0815 0.21114-0.19632 0-0.11854-0.0926-0.19633-0.21114-0.19633s-0.21114 0.0778-0.21114 0.19633c0 0.11482 0.0926 0.19632 0.21114 0.19632zm-0.15558 2.1706h0.30374v-1.8002h-0.30374z"/>
    <path d="m239.53 417.08c0.17039 0.14076 0.41487 0.24818 0.67045 0.24818 0.42598 0 0.65935-0.24448 0.65935-0.53711 0-0.34078-0.28893-0.4482-0.54822-0.54451-0.20373-0.0778-0.40005-0.14446-0.40005-0.31115 0-0.13705 0.10372-0.25929 0.32967-0.25929 0.15928 0 0.28893 0.0667 0.41116 0.15928l0.14447-0.19262c-0.13706-0.11112-0.33338-0.20373-0.55933-0.20373-0.38894 0-0.6186 0.22225-0.6186 0.51118 0 0.30374 0.28152 0.42598 0.5371 0.51858 0.19633 0.0741 0.41117 0.15558 0.41117 0.34078 0 0.15558-0.11854 0.28152-0.3556 0.28152-0.21484 0-0.37412-0.0889-0.5297-0.21484z"/>
    <path d="m241.44 415.11c0.11853 0 0.21114-0.0815 0.21114-0.19632 0-0.11854-0.0926-0.19633-0.21114-0.19633-0.11853 0-0.21114 0.0778-0.21114 0.19633 0 0.11482 0.0926 0.19632 0.21114 0.19632zm-0.15557 2.1706h0.30374v-1.8002h-0.30374z"/>
    <path d="m242.06 416.39c0 0.59637 0.39264 0.94086 0.83344 0.94086 0.44079 0 0.83343-0.34449 0.83343-0.94086 0-0.60378-0.39264-0.94827-0.83343-0.94827-0.4408 0-0.83344 0.34449-0.83344 0.94827zm0.31485 0c0-0.41487 0.21114-0.69638 0.51859-0.69638 0.31115 0 0.51858 0.28151 0.51858 0.69638 0 0.41116-0.20743 0.68897-0.51858 0.68897-0.30745 0-0.51859-0.27781-0.51859-0.68897z"/>
    <path d="m244.2 417.28h0.30375v-1.3039c0.1815-0.1815 0.30744-0.27781 0.49265-0.27781 0.23707 0 0.34078 0.14446 0.34078 0.48154v1.1001h0.30375v-1.1409c0-0.45931-0.1704-0.70379-0.54822-0.70379-0.24818 0-0.43339 0.13335-0.60378 0.30374h-0.0111l-0.0259-0.25929h-0.25189z"/>
    <path d="m247.03 416.73c0 0.3556 0.12965 0.60008 0.51488 0.60008 0.11113 0 0.23337-0.0333 0.33338-0.0667l-0.0593-0.22966c-0.0593 0.0222-0.14076 0.0482-0.20373 0.0482-0.20743 0-0.27781-0.12594-0.27781-0.34819v-1.0001h0.48525v-0.24818h-0.48522v-0.50376h-0.25559l-0.037 0.50376-0.28152 0.0185v0.22966h0.2667z"/>
    <path d="m248.23 417.28h0.30374v-1.1557c0.12224-0.30374 0.30374-0.41487 0.45561-0.41487 0.0741 0 0.11483 0.0111 0.1741 0.0296l0.0593-0.2667c-0.0593-0.0259-0.11482-0.037-0.19261-0.037-0.20373 0-0.38894 0.14447-0.51118 0.37042h-0.0111l-0.0259-0.32597h-0.25188z"/>
    <path d="m249.34 416.39c0 0.58896 0.38153 0.94086 0.86307 0.94086 0.24448 0 0.43709-0.0852 0.59267-0.18521l-0.10742-0.20003c-0.13335 0.0852-0.27782 0.14076-0.44821 0.14076-0.34448 0-0.57785-0.24447-0.60007-0.63341h1.215c7e-3 -0.0445 0.0111-0.10372 0.0111-0.16669 0-0.51488-0.25929-0.84455-0.71861-0.84455-0.41116 0-0.80751 0.35931-0.80751 0.94827zm0.29633-0.13705c0.037-0.36301 0.2667-0.57045 0.51859-0.57045 0.28151 0 0.4445 0.20373 0.4445 0.57045z"/>
    <path d="m251.18 416.39c0 0.58896 0.38153 0.94086 0.86308 0.94086 0.24447 0 0.43709-0.0852 0.59266-0.18521l-0.10742-0.20003c-0.13335 0.0852-0.27781 0.14076-0.4482 0.14076-0.34449 0-0.57785-0.24447-0.60008-0.63341h1.215c7e-3 -0.0445 0.0111-0.10372 0.0111-0.16669 0-0.51488-0.25929-0.84455-0.71861-0.84455-0.41116 0-0.80751 0.35931-0.80751 0.94827zm0.29634-0.13705c0.037-0.36301 0.2667-0.57045 0.51858-0.57045 0.28152 0 0.4445 0.20373 0.4445 0.57045z"/>
   </g>
  </g>
  <path d="m298.33 418.5v19.844" fill="none" stroke="#47d58a" stroke-linecap="square" stroke-width=".26458"/>
  <g>
   <rect x="281.83" y="397.47" width="33.073" height="21.167" fill="#1d232d" stroke="#7b8694" stroke-linecap="round" stroke-width=".26458"/>
   <g fill="#e8eaec" stroke-linecap="round" stroke-width=".26458" aria-label="Decision tree Evolution">
    <path d="m288.61 412.78h0.6223c0.73343 0 1.1335-0.4519 1.1335-1.2261 0-0.77046-0.40005-1.2038-1.1483-1.2038h-0.60749zm0.31115-0.25188v-1.9262h0.27411c0.57044 0 0.85196 0.34079 0.85196 0.95197 0 0.6149-0.28152 0.9742-0.85196 0.9742z"/>
    <path d="m290.72 411.89c0 0.58896 0.38153 0.94085 0.86307 0.94085 0.24448 0 0.4371-0.0852 0.59267-0.1852l-0.10742-0.20003c-0.13335 0.0852-0.27781 0.14076-0.4482 0.14076-0.34449 0-0.57785-0.24448-0.60008-0.63341h1.215c7e-3 -0.0444 0.0111-0.10372 0.0111-0.16669 0-0.51488-0.25929-0.84455-0.71861-0.84455-0.41116 0-0.80751 0.3593-0.80751 0.94827zm0.29634-0.13706c0.037-0.36301 0.2667-0.57044 0.51858-0.57044 0.28152 0 0.4445 0.20373 0.4445 0.57044z"/>
    <path d="m292.56 411.89c0 0.59637 0.36671 0.94085 0.84455 0.94085 0.21484 0 0.42227-0.0889 0.58526-0.23336l-0.13706-0.20002c-0.10742 0.0963-0.25188 0.1815-0.42227 0.1815-0.32967 0-0.55563-0.27781-0.55563-0.68897 0-0.41487 0.23707-0.69639 0.56304-0.69639 0.14446 0 0.25558 0.0667 0.363 0.15928l0.15187-0.19632c-0.12223-0.11483-0.28892-0.21484-0.52599-0.21484-0.46302 0-0.86677 0.34449-0.86677 0.94827z"/>
    <path d="m294.53 410.61c0.11853 0 0.21114-0.0815 0.21114-0.19632 0-0.11853-0.0926-0.19632-0.21114-0.19632s-0.21114 0.0778-0.21114 0.19632c0 0.11483 0.0926 0.19632 0.21114 0.19632zm-0.15558 2.1706h0.30374v-1.8002h-0.30374z"/>
    <path d="m295.09 412.58c0.17039 0.14076 0.41487 0.24818 0.67045 0.24818 0.42598 0 0.65935-0.24447 0.65935-0.5371 0-0.34078-0.28893-0.4482-0.54822-0.54451-0.20373-0.0778-0.40005-0.14447-0.40005-0.31115 0-0.13706 0.10372-0.25929 0.32967-0.25929 0.15928 0 0.28893 0.0667 0.41116 0.15927l0.14447-0.19261c-0.13706-0.11113-0.33338-0.20373-0.55933-0.20373-0.38894 0-0.6186 0.22225-0.6186 0.51117 0 0.30375 0.28152 0.42598 0.5371 0.51859 0.19633 0.0741 0.41117 0.15557 0.41117 0.34078 0 0.15558-0.11854 0.28152-0.3556 0.28152-0.21484 0-0.37412-0.0889-0.5297-0.21484z"/>
    <path d="m297 410.61c0.11853 0 0.21114-0.0815 0.21114-0.19632 0-0.11853-0.0926-0.19632-0.21114-0.19632-0.11853 0-0.21114 0.0778-0.21114 0.19632 0 0.11483 0.0926 0.19632 0.21114 0.19632zm-0.15557 2.1706h0.30374v-1.8002h-0.30374z"/>
    <path d="m297.62 411.89c0 0.59637 0.39264 0.94085 0.83344 0.94085 0.44079 0 0.83343-0.34448 0.83343-0.94085 0-0.60378-0.39264-0.94827-0.83343-0.94827-0.4408 0-0.83344 0.34449-0.83344 0.94827zm0.31485 0c0-0.41487 0.21114-0.69639 0.51859-0.69639 0.31115 0 0.51858 0.28152 0.51858 0.69639 0 0.41116-0.20743 0.68897-0.51858 0.68897-0.30745 0-0.51859-0.27781-0.51859-0.68897z"/>
    <path d="m299.77 412.78h0.30375v-1.3039c0.1815-0.18151 0.30744-0.27782 0.49265-0.27782 0.23707 0 0.34078 0.14447 0.34078 0.48155v1.1001h0.30375v-1.1409c0-0.45932-0.1704-0.70379-0.54822-0.70379-0.24818 0-0.43339 0.13335-0.60378 0.30374h-0.0111l-0.0259-0.25929h-0.25189z"/>
    <path d="m302.59 412.23c0 0.3556 0.12965 0.60007 0.51488 0.60007 0.11113 0 0.23337-0.0333 0.33338-0.0667l-0.0593-0.22966c-0.0593 0.0222-0.14076 0.0482-0.20373 0.0482-0.20743 0-0.27781-0.12594-0.27781-0.34819v-1.0001h0.48525v-0.24818h-0.48525v-0.50377h-0.25559l-0.037 0.50377-0.28152 0.0185v0.22966h0.2667z"/>
    <path d="m303.79 412.78h0.30374v-1.1557c0.12224-0.30374 0.30374-0.41486 0.45561-0.41486 0.0741 0 0.11483 0.0111 0.1741 0.0296l0.0593-0.2667c-0.0593-0.0259-0.11482-0.037-0.19261-0.037-0.20373 0-0.38894 0.14446-0.51118 0.37042h-0.0111l-0.0259-0.32597h-0.25188z"/>
    <path d="m304.91 411.89c0 0.58896 0.38153 0.94085 0.86307 0.94085 0.24448 0 0.43709-0.0852 0.59267-0.1852l-0.10742-0.20003c-0.13335 0.0852-0.27782 0.14076-0.44821 0.14076-0.34448 0-0.57785-0.24448-0.60007-0.63341h1.215c7e-3 -0.0444 0.0111-0.10372 0.0111-0.16669 0-0.51488-0.25929-0.84455-0.71861-0.84455-0.41116 0-0.80751 0.3593-0.80751 0.94827zm0.29633-0.13706c0.0371-0.36301 0.2667-0.57044 0.51859-0.57044 0.28151 0 0.4445 0.20373 0.4445 0.57044z"/>
    <path d="m306.74 411.89c0 0.58896 0.38153 0.94085 0.86308 0.94085 0.24447 0 0.43709-0.0852 0.59266-0.1852l-0.10742-0.20003c-0.13335 0.0852-0.27781 0.14076-0.4482 0.14076-0.34449 0-0.57785-0.24448-0.60008-0.63341h1.215c7e-3 -0.0444 0.0111-0.10372 0.0111-0.16669 0-0.51488-0.25929-0.84455-0.71861-0.84455-0.41116 0-0.80751 0.3593-0.80751 0.94827zm0.29634-0.13706c0.037-0.36301 0.2667-0.57044 0.51858-0.57044 0.28152 0 0.4445 0.20373 0.4445 0.57044z"/>
    <path d="m291.26 417.55h1.4372v-0.263h-1.1261v-0.88159h0.91863v-0.26299h-0.91863v-0.76306h1.089v-0.25929h-1.4002z"/>
    <path d="m293.56 417.55h0.3556l0.63712-1.8002h-0.30004l-0.34078 1.0224c-0.0519 0.1778-0.11113 0.35931-0.16298 0.5297h-0.0148c-0.0556-0.17039-0.11483-0.3519-0.16669-0.5297l-0.34078-1.0224h-0.31486z"/>
    <path d="m294.75 416.66c0 0.59637 0.39264 0.94086 0.83344 0.94086 0.44079 0 0.83343-0.34449 0.83343-0.94086 0-0.60378-0.39264-0.94827-0.83343-0.94827-0.4408 0-0.83344 0.34449-0.83344 0.94827zm0.31485 0c0-0.41487 0.21114-0.69638 0.51859-0.69638 0.31115 0 0.51858 0.28151 0.51858 0.69638 0 0.41116-0.20743 0.68898-0.51858 0.68898-0.30745 0-0.51859-0.27782-0.51859-0.68898z"/>
    <path d="m296.9 417.19c0 0.263 0.0926 0.40746 0.32226 0.40746 0.0815 0 0.13335-0.0111 0.17409-0.0296l-0.0407-0.22966c-0.0333 7e-3 -0.0482 7e-3 -0.0667 7e-3 -0.0444 0-0.0852-0.0371-0.0852-0.13335v-2.2966h-0.30374z"/>
    <path d="m297.82 416.89c0 0.45931 0.17039 0.70379 0.55192 0.70379 0.24818 0 0.42598-0.12965 0.59267-0.32597h0.0111l0.0259 0.28152h0.25188v-1.8002h-0.30374v1.2779c-0.17039 0.21114-0.30003 0.30374-0.48524 0.30374-0.23707 0-0.33708-0.14446-0.33708-0.48154v-1.1001h-0.30745z"/>
    <path d="m299.92 417c0 0.3556 0.12965 0.60008 0.51488 0.60008 0.11113 0 0.23336-0.0333 0.33338-0.0667l-0.0593-0.22965c-0.0593 0.0222-0.14076 0.0482-0.20373 0.0482-0.20743 0-0.27781-0.12594-0.27781-0.34819v-1.0001h0.48524v-0.24818h-0.48524v-0.50376h-0.25559l-0.037 0.50376-0.28152 0.0185v0.22965h0.2667z"/>
    <path d="m301.27 415.38c0.11853 0 0.21114-0.0815 0.21114-0.19632 0-0.11854-0.0926-0.19632-0.21114-0.19632-0.11853 0-0.21114 0.0778-0.21114 0.19632 0 0.11483 0.0926 0.19632 0.21114 0.19632zm-0.15557 2.1706h0.30374v-1.8002h-0.30374z"/>
    <path d="m301.89 416.66c0 0.59637 0.39264 0.94086 0.83344 0.94086 0.44079 0 0.83343-0.34449 0.83343-0.94086 0-0.60378-0.39264-0.94827-0.83343-0.94827-0.4408 0-0.83344 0.34449-0.83344 0.94827zm0.31485 0c0-0.41487 0.21114-0.69638 0.51859-0.69638 0.31115 0 0.51858 0.28151 0.51858 0.69638 0 0.41116-0.20743 0.68898-0.51858 0.68898-0.30745 0-0.51859-0.27782-0.51859-0.68898z"/>
    <path d="m304.04 417.55h0.30374v-1.3039c0.1815-0.1815 0.30744-0.27781 0.49265-0.27781 0.23707 0 0.34078 0.14446 0.34078 0.48154v1.1001h0.30375v-1.1409c0-0.45932-0.1704-0.7038-0.54822-0.7038-0.24818 0-0.43339 0.13335-0.60378 0.30375h-0.0111l-0.0259-0.2593h-0.25188z"/>
   </g>
   <g stroke-width=".28222">
    <path d="m302.38 408.7c-0.0986 0.0986-0.16575 0.15576-0.23565 0.18862-0.0699 0.0329-0.14277 0.0414-0.25373 0.0413 0.22192 1.9e-4 0.29211-0.0327 0.48938-0.22996z" fill="#d54747"/>
    <path d="m297.61 403.6c-0.20343 0.19866-0.1216 0.13199-0.33073 0.32039l1.3374 1.3643-5e-3 0.40152-4e-3 0.40101-0.68006 0.68213-0.68006 0.68265-0.24133-0.0362c-0.53874-0.0804-0.94245 0.29372-0.89607 0.83044 0.0211 0.24423 0.0607 0.32466 0.23926 0.48835 0.17312 0.15868 0.26287 0.19641 0.46715 0.19585 0.3243-1e-3 0.51073-0.0981 0.68627-0.35605 0.11817-0.17363 0.13563-0.25418 0.10697-0.50488l-0.0341-0.29869 1.3911-1.3643 0.40153 4e-3 0.40101 5e-3 0.68109 0.67903 0.6811 0.67954-0.0362 0.27285c-0.0668 0.5034 0.27714 0.88414 0.79892 0.8847 0.11096 1e-4 0.18383-8e-3 0.25373-0.0413 0.0699-0.0329 0.13701-0.09 0.23565-0.18862 0.19727-0.19726 0.23013-0.26745 0.22996-0.48937-2.2e-4 -0.2606-0.0961-0.47756-0.25425-0.62064-0.0791-0.0715-0.17393-0.1246-0.28009-0.15554-0.10616-0.031-0.22384-0.0394-0.34881-0.0222l-0.26975 0.0367-1.3865-1.3823 0.0284-0.30283c0.0508-0.54646-0.32444-0.91155-0.86971-0.84697l-0.27596 0.0326-0.67334-0.67541zm-0.79324 4.27c0.0383-3e-3 0.0809 0.0168 0.15348 0.0574 0.18871 0.10557 0.23285 0.29941 0.0987 0.43356-0.12191 0.12184-0.28975 0.12315-0.4098 3e-3 -0.12776-0.12776-0.11679-0.28209 0.0295-0.41445 0.056-0.0506 0.0899-0.0766 0.12815-0.0796zm5.01 0.016c0.0646-7e-3 0.13308 0.0118 0.19431 0.0672 0.13295 0.12035 0.1554 0.3252 0.0475 0.43305-0.10656 0.10659-0.31213 0.0856-0.42891-0.0434-0.16642-0.18388-7e-3 -0.43579 0.18706-0.45681z" fill="#e8eaec"/>
    <path d="m299.36 399.92c-0.4999 0-0.82202 0.3763-0.7612 0.88986l0.0331 0.27596-1.3544 1.3503-0.38499 2e-3c-0.3548 2e-3 -0.40018 0.0172-0.57878 0.19585-0.17854 0.1786-0.19416 0.2245-0.19585 0.5793l-2e-3 0.38499-0.67489 0.67696-0.6749 0.67696-0.27647-0.0326c-0.51356-0.0608-0.88986 0.2613-0.88986 0.76119 0 0.2449 0.0302 0.32197 0.19637 0.50333 0.16391 0.17887 0.24498 0.21862 0.48937 0.23978 0.53672 0.0464 0.91091-0.35733 0.83044-0.89607l-0.0362-0.24133 1.3612-1.357 0.41806-4e-3 0.41858-4e-3c0.20913-0.1884 0.1273-0.12173 0.33073-0.32039l-3e-3 -0.41858-4e-3 -0.41807 0.66817-0.6661 0.66818-0.66663 0.39946-6e-3 0.39946-5e-3 0.69763 0.6873 0.69815 0.68729-0.0362 0.24185c-0.10196 0.68304 0.60584 1.1563 1.1653 0.77928 0.41623-0.2805 0.48163-0.79115 0.14779-1.1555-0.19063-0.20809-0.22479-0.22204-0.56741-0.22687l-0.36483-5e-3 -0.69247-0.69039-0.69246-0.69092v-0.36121c0-0.3414-0.0118-0.37195-0.22118-0.56379-0.1889-0.17313-0.26429-0.20309-0.51108-0.20309zm0.091 0.50281c0.18895 0.0652 0.27081 0.30135 0.0801 0.45578-0.0738 0.0597-0.15493 0.10852-0.18035 0.10852-0.0254 0-0.10608-0.0488-0.17984-0.10852-0.16164-0.13089-0.12602-0.39524 0.0615-0.45475 0.0806-0.0256 0.15561-0.0228 0.21859-1e-3zm2.4055 2.4619c0.23932 0 0.36202 0.3258 0.1881 0.49971-0.0512 0.0512-0.14307 0.0935-0.20412 0.0935-0.11144 0-0.29559-0.20577-0.29559-0.33021 0-0.0947 0.19922-0.26304 0.31161-0.26304zm-5.023 0.0119c0.0676-4e-3 0.14044 0.0192 0.20722 0.0796 0.14546 0.13159 0.14819 0.2765 8e-3 0.40359-0.14312 0.12951-0.26475 0.12392-0.39326-0.0181-0.1813-0.20033-0.0244-0.45322 0.17829-0.46509zm2.5301 2.4836c0.0638 2e-3 0.12463 0.0361 0.18551 0.10336 0.12313 0.13618 0.12518 0.2717 5e-3 0.3917-0.1238 0.12383-0.28109 0.11758-0.40152-0.0155-0.12758-0.14094-0.12423-0.26425 0.0103-0.38603 0.0705-0.0638 0.13675-0.0952 0.20051-0.0935zm-4.979 2e-3c0.0732 0.01 0.14307 0.0576 0.19844 0.14211 0.09 0.13732 0.09 0.15879 0 0.29611-0.0534 0.0815-0.14818 0.14831-0.21032 0.14831-0.25558 0-0.38711-0.3188-0.20619-0.49971 0.0682-0.0682 0.14488-0.0965 0.21807-0.0868z" fill="#7b8694"/>
   </g>
  </g>
  <path d="m226 450.52h-20.902" fill="none" stroke="#47d58a" stroke-linecap="square" stroke-width=".26458"/>
  <g transform="matrix(-.0042365 0 0 .0043091 206 449.29)" fill="#47d58a" stroke-width="123.85">
   <g fill="#47d58a" stroke-width="123.85">
    <path d="m486.41 221.41-364.07-208.5c-52.938-30.318-95.852-5.44-95.852 55.563v415.65c0 61.004 42.914 85.882 95.852 55.563l364.07-208.49c52.938-30.317 52.938-79.473 0-109.79z" fill="#47d58a" stroke-width="123.85"/>
   </g>
  </g>
  <rect x="170.7" y="439.8" width="33.073" height="21.167" fill="#1d232d" stroke="#7b8694" stroke-linecap="round" stroke-width=".26458"/>
  <rect x="182.98" y="442.1" width="11.53" height="10.417" fill="none" stroke="#7b8694" stroke-width=".26458"/>
  <g stroke-width=".26458">
   <rect x="181.92" y="442.9" width="11.53" height="10.417" fill="#1d232d" stroke="#7b8694"/>
   <rect x="180.87" y="443.69" width="11.53" height="10.417" fill="#1d232d" stroke="#7b8694"/>
   <g fill="#e8eaec" stroke-linecap="round" aria-label="Case">
    <path d="m183.71 458.4c0 0.79269 0.45561 1.2594 1.0668 1.2594 0.30744 0 0.54822-0.12964 0.73713-0.35189l-0.1741-0.18892c-0.15557 0.1741-0.32596 0.27041-0.55562 0.27041-0.46302 0-0.75565-0.38524-0.75565-0.99642 0-0.60378 0.30744-0.98161 0.77046-0.98161 0.20003 0 0.3556 0.0889 0.48525 0.22596l0.1741-0.19632c-0.14447-0.15928-0.37413-0.30004-0.66305-0.30004-0.6223 0-1.0853 0.47784-1.0853 1.2594z"/>
    <path d="m185.84 459.15c0 0.32226 0.22595 0.51117 0.5297 0.51117 0.22225 0 0.42227-0.11853 0.59637-0.25929h7e-3l0.0259 0.21484h0.25189v-1.1038c0-0.4482-0.18521-0.74083-0.62601-0.74083-0.28892 0-0.54081 0.12594-0.70749 0.23336l0.12223 0.21114c0.14076-0.0963 0.32597-0.19262 0.53711-0.19262 0.29263 0 0.37042 0.22225 0.37042 0.45191-0.76677 0.0852-1.1076 0.28152-1.1076 0.67416zm0.30004-0.0222c0-0.22966 0.20373-0.37782 0.80751-0.45191v0.50007c-0.1741 0.15557-0.31856 0.24077-0.49266 0.24077-0.1778 0-0.31485-0.0852-0.31485-0.28893z"/>
    <path d="m187.63 459.41c0.17039 0.14076 0.41486 0.24818 0.67045 0.24818 0.42598 0 0.65934-0.24447 0.65934-0.5371 0-0.34079-0.28892-0.44821-0.54821-0.54451-0.20373-0.0778-0.40005-0.14447-0.40005-0.31115 0-0.13706 0.10371-0.2593 0.32967-0.2593 0.15928 0 0.28892 0.0667 0.41116 0.15928l0.14446-0.19261c-0.13705-0.11113-0.33337-0.20373-0.55933-0.20373-0.38894 0-0.61859 0.22225-0.61859 0.51117 0 0.30374 0.28151 0.42598 0.5371 0.51859 0.19632 0.0741 0.41116 0.15557 0.41116 0.34078 0 0.15557-0.11853 0.28152-0.3556 0.28152-0.21484 0-0.37412-0.0889-0.52969-0.21485z"/>
    <path d="m189.25 458.72c0 0.58897 0.38153 0.94086 0.86307 0.94086 0.24448 0 0.43709-0.0852 0.59267-0.18521l-0.10742-0.20002c-0.13335 0.0852-0.27781 0.14076-0.44821 0.14076-0.34448 0-0.57785-0.24448-0.60007-0.63342h1.215c7e-3 -0.0444 0.0111-0.10371 0.0111-0.16668 0-0.51488-0.25929-0.84455-0.71861-0.84455-0.41116 0-0.80751 0.3593-0.80751 0.94826zm0.29633-0.13705c0.037-0.36301 0.2667-0.57044 0.51859-0.57044 0.28151 0 0.4445 0.20373 0.4445 0.57044z"/>
   </g>
  </g>
  <path d="m281.56 450.52h-20.902" fill="none" stroke="#47d58a" stroke-linecap="square" stroke-width=".26458"/>
  <g>
   <g transform="matrix(-.0042365 0 0 .0043091 261.57 449.29)" fill="#47d58a" stroke-width="123.85">
    <g fill="#47d58a" stroke-width="123.85">
     <path d="m486.41 221.41-364.07-208.5c-52.938-30.318-95.852-5.44-95.852 55.563v415.65c0 61.004 42.914 85.882 95.852 55.563l364.07-208.49c52.938-30.317 52.938-79.473 0-109.79z" fill="#47d58a" stroke-width="123.85"/>
    </g>
   </g>
   <rect x="226.26" y="439.8" width="33.073" height="21.167" fill="#1d232d" stroke="#7b8694" stroke-linecap="round" stroke-width=".26458"/>
   <path d="m239.58 454.04c-0.28428-0.0522-0.52797-0.17235-0.69745-0.3438-0.20275-0.20515-0.29551-0.43493-0.31426-0.77859-8e-3 -0.153-4e-3 -0.19976 0.0308-0.35391 0.19067-0.83834 1.1881-2.6366 2.6501-4.7776l0.16612-0.24328-4e-3 -1.4235-4e-3 -1.4235-0.40869-8e-3v-0.39974h3.2535v0.18432c0 0.10137 5e-5 0.18971 9e-5 0.19634 5e-5 7e-3 -0.0883 0.0158-0.19633 0.02l-0.19642 8e-3 -4e-3 1.4235-4e-3 1.4235 0.16612 0.24327c1.4561 2.1324 2.46 3.9407 2.648 4.7693 0.10225 0.45076-0.0175 0.90525-0.30844 1.1712-0.16911 0.15457-0.40953 0.26588-0.67846 0.31417-0.17276 0.0312-5.9291 0.0304-6.0982 0zm6.0227-0.3935c0.37172-0.0538 0.60547-0.26362 0.67808-0.6087 0.0626-0.2976-0.058-0.70377-0.43056-1.4504-0.47281-0.94745-1.2595-2.2459-2.1192-3.4978l-0.27246-0.39672-8e-3 -1.4986-8e-3 -1.4985h-1.6187l-8e-3 1.4985-8e-3 1.4986-0.28848 0.41963c-0.98665 1.4353-1.9485 3.0632-2.3073 3.9051-0.27297 0.64048-0.30769 0.9203-0.15345 1.2366 0.10177 0.20871 0.32527 0.35653 0.59364 0.3926 0.13707 0.0186 5.823 0.0181 5.9505-2.6e-4zm-2.3765-0.41664c-0.1803-0.0226-0.3705-0.16872-0.43508-0.33466-0.0531-0.13654-0.0496-0.30094 9e-3 -0.43031 0.0871-0.19143 0.27453-0.31371 0.48108-0.31388 0.14178-9e-5 0.22554 0.0231 0.32307 0.0906 0.0888 0.0612 0.18836 0.19744 0.21578 0.29529 0.0302 0.10781 0.0121 0.30121-0.0372 0.39672-0.10493 0.20336-0.33198 0.32416-0.5569 0.29622zm-2.3267-0.72063c-0.30611-0.0924-0.3993-0.46572-0.17091-0.68467 0.11361-0.10888 0.28824-0.1371 0.43793-0.0707 0.102 0.0452 0.14559 0.0865 0.19681 0.1861 0.0486 0.0947 0.0555 0.23811 0.0158 0.33079-0.0781 0.18246-0.29997 0.29275-0.47963 0.23851zm1.3638-0.049c-0.23157-0.0378-0.40061-0.23549-0.41268-0.4826-5e-3 -0.10617-2.6e-4 -0.13541 0.0369-0.21825 0.0487-0.10845 0.14276-0.20782 0.2488-0.26283 0.10374-0.0538 0.32694-0.054 0.43582 0 0.0923 0.0455 0.19348 0.14148 0.23519 0.22324 0.0679 0.13312 0.0722 0.3278 0.0102 0.45855-0.0941 0.19829-0.3306 0.31874-0.55424 0.28225zm1.2028-0.66051c-0.10709-0.0541-0.14798-0.12527-0.14063-0.2448 7e-3 -0.11215 0.0386-0.16447 0.13172-0.21739 0.15887-0.0903 0.35799 7e-3 0.38707 0.18861 0.0137 0.0858-0.0128 0.16335-0.0775 0.22569-0.0948 0.0914-0.18577 0.10595-0.30069 0.0479zm-1.2817-0.50365c-0.29948-0.0304-0.56365-0.25056-0.64795-0.54054-0.0325-0.11173-0.0322-0.30903 2.7e-4 -0.42181 0.10453-0.35958 0.47205-0.59357 0.83984-0.5347 0.42955 0.0688 0.72427 0.50803 0.61706 0.91965-0.0974 0.37392-0.43553 0.61508-0.80953 0.5774zm1.5224-0.30867c-0.10221-0.0311-0.21007-0.11791-0.25485-0.20514-0.0618-0.12051-0.0455-0.30777 0.0368-0.42097 0.18475-0.25417 0.57412-0.20653 0.69982 0.0857 0.11045 0.25673-0.095 0.55984-0.3755 0.55403-0.0363 0-0.0842-7e-3 -0.10627-0.0133z" fill="#d2d6dc" stroke-width=".28222"/>
   <g fill="#e8eaec" stroke-linecap="round" stroke-width=".26458" aria-label="Experiment">
    <path d="m234.18 459.62h1.4372v-0.26299h-1.1261v-0.8816h0.91863v-0.26299h-0.91863v-0.76306h1.089v-0.25929h-1.4002z"/>
    <path d="m235.84 459.62h0.31856l0.24448-0.41857c0.0593-0.11112 0.11853-0.21854 0.1815-0.32226h0.0148c0.0667 0.10372 0.13335 0.21484 0.19632 0.32226l0.26299 0.41857h0.32967l-0.58525-0.90752 0.54451-0.8927h-0.31856l-0.21855 0.39634c-0.0556 0.0963-0.11112 0.20003-0.16298 0.30004h-0.0148c-0.063-0.10001-0.12223-0.20373-0.1778-0.30004l-0.24077-0.39634h-0.32967l0.54451 0.85936z"/>
    <path d="m238.04 459.45c0.16669 0.12964 0.33338 0.20743 0.50006 0.20743 0.41117 0 0.77788-0.3593 0.77788-0.97049 0-0.55933-0.24818-0.91863-0.7112-0.91863-0.21114 0-0.41116 0.11483-0.57415 0.25188h-0.0111l-0.0259-0.20743h-0.25188v2.5596h0.30374v-0.60749zm7e-3 -0.23707v-0.94456c0.1778-0.15928 0.32967-0.24448 0.48154-0.24448 0.34078 0 0.47413 0.2667 0.47413 0.66305 0 0.4445-0.21854 0.7149-0.51488 0.7149-0.11853 0-0.27781-0.0519-0.44079-0.18891z"/>
    <path d="m239.66 458.72c0 0.58897 0.38153 0.94086 0.86307 0.94086 0.24448 0 0.43709-0.0852 0.59267-0.18521l-0.10742-0.20002c-0.13335 0.0852-0.27781 0.14076-0.44821 0.14076-0.34448 0-0.57785-0.24448-0.60007-0.63342h1.215c7e-3 -0.0444 0.0111-0.10371 0.0111-0.16668 0-0.51488-0.25929-0.84455-0.71861-0.84455-0.41116 0-0.80751 0.3593-0.80751 0.94826zm0.29634-0.13705c0.037-0.36301 0.2667-0.57044 0.51858-0.57044 0.28152 0 0.4445 0.20373 0.4445 0.57044z"/>
    <path d="m241.64 459.62h0.30374v-1.1557c0.12224-0.30374 0.30374-0.41486 0.45561-0.41486 0.0741 0 0.11483 0.0111 0.1741 0.0296l0.0593-0.2667c-0.0593-0.0259-0.11483-0.037-0.19261-0.037-0.20373 0-0.38894 0.14446-0.51118 0.37041h-0.0111l-0.0259-0.32596h-0.25188z"/>
    <path d="m243.08 457.44c0.11853 0 0.21113-0.0815 0.21113-0.19632 0-0.11853-0.0926-0.19632-0.21113-0.19632-0.11854 0-0.21114 0.0778-0.21114 0.19632 0 0.11483 0.0926 0.19632 0.21114 0.19632zm-0.15558 2.1706h0.30374v-1.8002h-0.30374z"/>
    <path d="m243.83 459.62h0.30375v-1.3039c0.16668-0.18521 0.31855-0.27782 0.4519-0.27782 0.22966 0 0.33708 0.14447 0.33708 0.48154v1.1001h0.30375v-1.3039c0.16668-0.18521 0.31115-0.27782 0.4519-0.27782 0.22596 0 0.33338 0.14447 0.33338 0.48154v1.1001h0.30374v-1.1409c0-0.45932-0.1778-0.70379-0.54822-0.70379-0.21854 0-0.40375 0.14076-0.59266 0.34448-0.0741-0.21484-0.22225-0.34448-0.49636-0.34448-0.21484 0-0.40376 0.13335-0.55933 0.30374h-0.0111l-0.0259-0.25929h-0.25189z"/>
    <path d="m246.77 458.72c0 0.58897 0.38153 0.94086 0.86307 0.94086 0.24447 0 0.43709-0.0852 0.59267-0.18521l-0.10743-0.20002c-0.13335 0.0852-0.27781 0.14076-0.4482 0.14076-0.34449 0-0.57785-0.24448-0.60007-0.63342h1.215c7e-3 -0.0444 0.0111-0.10371 0.0111-0.16668 0-0.51488-0.25929-0.84455-0.7186-0.84455-0.41117 0-0.80751 0.3593-0.80751 0.94826zm0.29633-0.13705c0.037-0.36301 0.2667-0.57044 0.51858-0.57044 0.28152 0 0.4445 0.20373 0.4445 0.57044z"/>
    <path d="m248.74 459.62h0.30374v-1.3039c0.18151-0.18151 0.30745-0.27782 0.49266-0.27782 0.23706 0 0.34078 0.14447 0.34078 0.48154v1.1001h0.30374v-1.1409c0-0.45932-0.17039-0.70379-0.54821-0.70379-0.24818 0-0.43339 0.13335-0.60378 0.30374h-0.0111l-0.0259-0.25929h-0.25189z"/>
    <path d="m250.82 459.06c0 0.3556 0.12964 0.60007 0.51488 0.60007 0.11112 0 0.23336-0.0333 0.33337-0.0667l-0.0593-0.22966c-0.0593 0.0222-0.14075 0.0482-0.20373 0.0482-0.20743 0-0.27781-0.12594-0.27781-0.34819v-1.0001h0.48525v-0.24818h-0.48525v-0.50377h-0.25559l-0.037 0.50377-0.28151 0.0185v0.22966h0.2667z"/>
   </g>
   <rect x="281.83" y="439.8" width="33.073" height="21.167" fill="#1d232d" stroke="#7b8694" stroke-linecap="round" stroke-width=".26458"/>
   <path d="m297.62 444.17c-0.49605 0-0.6268 0.0494-0.89364 0.33551-0.29827 0.31978-0.37114 0.33886-1.5846 0.41574l-1.2722 0.0806v8.6438h2.4578c1.6094 0 2.4332-0.0391 2.387-0.11399-0.0432-0.07-0.95102-0.1145-2.3435-0.1145h-2.2732v-8.2197h0.6266c0.551 0 0.62708 0.0279 0.62708 0.22849 0 0.18485-0.0759 0.22848-0.39893 0.22848h-0.39892v7.3633l2.244-6e-3c1.6409-5e-3 2.256-0.0422 2.2894-0.14275 0.0345-0.10357-0.48755-0.13719-2.1302-0.13719h-2.1751l-2.7e-4 -3.3962v-3.3962h5.5862v2.3117c3e-5 1.9787 0.0244 2.3116 0.17078 2.3116 0.14669 0 0.17123-0.34877 0.17123-2.4544v-2.4544h-0.39893c-0.32298 0-0.39937-0.0436-0.39937-0.22849 0-0.19789 0.0762-0.22849 0.57014-0.22849h0.57015v2.7914c0 2.3951 0.0247 2.8056 0.17539 2.8901 0.24938 0.1397 0.0852 0.48336-0.23093 0.48336-0.14238 0-0.33447-0.11419-0.42714-0.254-0.15005-0.22631-0.20213-0.23867-0.47435-0.11447-0.25222 0.11509-0.2857 0.17667-0.19113 0.35363 0.14712 0.2753-0.18143 0.60438-0.516 0.51675-0.17034-0.0446-0.26647 0.0186-0.36838 0.24285-0.12271 0.26969-0.11268 0.30974 0.0921 0.36336 0.31439 0.0823 0.31622 0.60322 2e-3 0.68538-0.25086 0.0657-0.25686 0.0845-0.15318 0.47227 0.0584 0.21855 0.12718 0.25668 0.37439 0.20718 0.35126-0.0704 0.63141 0.25701 0.52017 0.60801-0.0433 0.13646 6e-3 0.25542 0.13697 0.33187 0.30868 0.17983 0.46651 0.15062 0.54656-0.10197 0.0472-0.14898 0.17263-0.22848 0.3605-0.22848 0.19212 0 0.30778 0.0762 0.34755 0.22848 0.0655 0.25098 0.0844 0.25739 0.4688 0.15429 0.21463-0.0575 0.25183-0.12471 0.19483-0.35218-0.0972-0.38795 0.11308-0.60647 0.50767-0.52745 0.26274 0.0526 0.33552 0.0175 0.40308-0.196 0.0597-0.18847 0.0237-0.30328-0.13097-0.41758-0.25104-0.1855-0.22307-0.47596 0.0689-0.71602 0.30918-0.25409 0.10864-0.73629-0.26702-0.64186-0.33728 0.0848-0.68484-0.24816-0.52433-0.50238 0.16937-0.26826 0.1322-0.34426-0.23185-0.47134l-0.342-0.11907v-5.8849l-1.368-0.0816c-0.75239-0.045-1.368-0.12901-1.368-0.18633 0-0.0573-0.10276-0.2067-0.22816-0.33226-0.16837-0.16863-0.38015-0.22849-0.80941-0.22849zm0.0434 0.22846c0.384 0 0.76591 0.27522 0.76591 0.55152 0 0.0844 0.21059 0.13343 0.57014 0.13343 0.55732 0 0.56969 8e-3 0.56969 0.34251v0.3425h-3.9896v-0.3425c0-0.33898 6e-3 -0.34251 0.62707-0.34251 0.54724 0 0.6266-0.0285 0.6266-0.22428 0-0.2807 0.3246-0.46067 0.83023-0.46067zm-0.26749 0.81246c-0.16702 5e-3 -0.22075 0.05-0.22075 0.15799 0 0.14399 0.0949 0.17729 0.42762 0.14972 0.23511-0.0195 0.42761-0.0869 0.42761-0.14972 0-0.0628-0.1925-0.13022-0.42761-0.14969-0.0832-7e-3 -0.15119-0.01-0.20687-8e-3zm0.98295 2.3839c-1.396 0-1.7835 0.0663-1.5804 0.26972 0.0401 0.04 0.75691 0.0728 1.5929 0.0728 1.2751 0 1.5198-0.0277 1.5198-0.17103 0-0.14371-0.24629-0.17148-1.5323-0.17148zm-2.8086 0.0133c-0.18139 6e-3 -0.34315 0.10574-0.27627 0.21412 0.0934 0.15127 0.62753 0.14893 0.62753-5e-3 0-0.0647-0.0772-0.14735-0.17123-0.1835-0.0571-0.0217-0.11956-0.0298-0.18003-0.0277zm0.0727 1.2425c-0.15305 0-0.30973 0.0512-0.34848 0.11401-0.0411 0.0666 0.0747 0.11445 0.27813 0.11445 0.1918 0 0.34894-0.0517 0.34894-0.11445 0-0.0628-0.12555-0.11401-0.27859-0.11401zm2.736 0c-0.89852 0-1.5613 0.0471-1.6026 0.11401-0.0457 0.074 0.49284 0.11445 1.5323 0.11445 0.99246 0 1.6026-0.044 1.6026-0.11445 0-0.0705-0.58678-0.11401-1.5323-0.11401zm-2.8063 1.2559c-0.20345 0-0.31923 0.0474-0.27813 0.11399 0.0387 0.0628 0.19543 0.11402 0.34848 0.11402 0.15304 0 0.27859-0.0512 0.27859-0.11402 0-0.0628-0.15714-0.11399-0.34894-0.11399zm2.736 0c-1.0394 0-1.578 0.04-1.5323 0.11399 0.0413 0.067 0.70409 0.11402 1.6026 0.11402 0.9455 0 1.5323-0.0436 1.5323-0.11402 0-0.0707-0.61016-0.11399-1.6026-0.11399zm-2.6559 1.1415c-0.27874 0-0.46841 0.13659-0.35171 0.25352 0.11104 0.11117 0.54509 0.0298 0.5919-0.11078 0.0296-0.089-0.0607-0.14274-0.24019-0.14274zm2.6221 0c-1.2391 0-1.6758 0.0698-1.505 0.24096 0.0244 0.0246 0.67493 0.0387 1.4453 0.032 0.93757-8e-3 1.4149-0.0556 1.4439-0.14275 0.0309-0.0929-0.3656-0.13021-1.3842-0.13021zm3.3223 5e-3c0.0707-0.0195 0.1222 0.0771 0.0773 0.25629-0.0773 0.30832 0.30522 0.71873 0.74508 0.7999 0.28456 0.0525 0.28434 0.0529 0.0282 0.13761-0.35544 0.11769-0.37631 0.9183-0.0268 1.0293 0.12631 0.04 0.20035 0.12048 0.16429 0.1789-0.0403 0.0652-0.14527 0.0638-0.27119-5e-3 -0.26579-0.14241-0.76458 0.35673-0.71778 0.71837 0.0297 0.22984 0.021 0.23348-0.12634 0.0478-0.20735-0.26125-1.1023-0.28459-1.1023-0.0289 0 0.0942-0.0572 0.17145-0.12727 0.17145-0.072 0-0.101-0.10151-0.0666-0.23309 0.0839-0.3215-0.40629-0.843-0.71593-0.76194-0.26044 0.0682-0.31154-0.0876-0.0745-0.2266 0.0856-0.0502 0.17976-0.26111 0.20918-0.46857 0.0404-0.28496 2e-3 -0.40465-0.15595-0.48937-0.29223-0.15661-0.26463-0.34525 0.0342-0.23453 0.3105 0.11503 0.83016-0.36085 0.74601-0.68312-0.0662-0.25346 0.0973-0.28984 0.19206-0.0427 0.0435 0.11337 0.22197 0.17148 0.5285 0.17148 0.30651 0 0.48553-0.0582 0.52895-0.17148 0.0392-0.10228 0.0886-0.15559 0.13097-0.16727zm-0.64883 0.95377c-0.13769-5e-3 -0.28329 0.0338-0.42205 0.12466-0.36962 0.24251-0.38052 0.88403-0.0194 1.1373 0.3037 0.21299 0.33759 0.21516 0.71269 0.044 0.1612-0.0735 0.3241-0.25701 0.3619-0.40783 0.12245-0.48859-0.21998-0.88446-0.6331-0.89815zm9e-3 0.23636c0.34548 8e-3 0.55504 0.42548 0.25731 0.75495-0.22662 0.25078-0.25981 0.25685-0.53406 0.0969-0.26743-0.15601-0.25488-0.63805 0.0203-0.78559 0.0896-0.048 0.17666-0.068 0.25639-0.0662z" fill="#d2d6dc" stroke-width=".28222"/>
   <g fill="#e8eaec" stroke-linecap="round" stroke-width=".26458" aria-label="Plan">
    <path d="m295.18 459.62h0.31115v-0.96308h0.43709c0.5297 0 0.89641-0.24077 0.89641-0.75195 0-0.5334-0.35931-0.7149-0.89641-0.7149h-0.74824zm0.31115-1.215v-0.96679h0.39634c0.41858 0 0.62971 0.11483 0.62971 0.46672 0 0.34449-0.20373 0.50007-0.62971 0.50007z"/>
    <path d="m297.27 459.25c0 0.263 0.0926 0.40746 0.32226 0.40746 0.0815 0 0.13335-0.0111 0.1741-0.0296l-0.0408-0.22966c-0.0333 7e-3 -0.0481 7e-3 -0.0667 7e-3 -0.0444 0-0.0852-0.037-0.0852-0.13335v-2.2966h-0.30374z"/>
    <path d="m298.13 459.15c0 0.32226 0.22595 0.51117 0.52969 0.51117 0.22225 0 0.42228-0.11853 0.59637-0.25929h7e-3l0.0259 0.21484h0.25188v-1.1038c0-0.4482-0.1852-0.74083-0.626-0.74083-0.28893 0-0.54081 0.12594-0.7075 0.23336l0.12224 0.21114c0.14076-0.0963 0.32597-0.19262 0.53711-0.19262 0.29262 0 0.37041 0.22225 0.37041 0.45191-0.76676 0.0852-1.1075 0.28152-1.1075 0.67416zm0.30003-0.0222c0-0.22966 0.20373-0.37782 0.80751-0.45191v0.50007c-0.17409 0.15557-0.31856 0.24077-0.49265 0.24077-0.1778 0-0.31486-0.0852-0.31486-0.28893z"/>
    <path d="m300.12 459.62h0.30374v-1.3039c0.1815-0.18151 0.30745-0.27782 0.49265-0.27782 0.23707 0 0.34079 0.14447 0.34079 0.48154v1.1001h0.30374v-1.1409c0-0.45932-0.17039-0.70379-0.54822-0.70379-0.24818 0-0.43339 0.13335-0.60378 0.30374h-0.0111l-0.0259-0.25929h-0.25188z"/>
   </g>
   <g transform="matrix(0 .0042365 .0043091 0 297.11 437.44)" fill="#47d58a" stroke-width="123.85">
    <g fill="#47d58a" stroke-width="123.85">
     <path d="m486.41 221.41-364.07-208.5c-52.938-30.318-95.852-5.44-95.852 55.563v415.65c0 61.004 42.914 85.882 95.852 55.563l364.07-208.49c52.938-30.317 52.938-79.473 0-109.79z" fill="#47d58a" stroke-width="123.85"/>
    </g>
   </g>
  </g>
  <path d="m187.2 439.53v-19.844" fill="none" stroke="#47d58a" stroke-linecap="square" stroke-width=".26458"/>
  <g transform="matrix(0 -.0042365 .0043091 0 185.98 420.59)" fill="#47d58a" stroke-width="123.85">
   <g fill="#47d58a" stroke-width="123.85">
    <path d="m486.41 221.41-364.07-208.5c-52.938-30.318-95.852-5.44-95.852 55.563v415.65c0 61.004 42.914 85.882 95.852 55.563l364.07-208.49c52.938-30.317 52.938-79.473 0-109.79z" fill="#47d58a" stroke-width="123.85"/>
   </g>
  </g>
  <g fill="#e8eaec">
   <g stroke-linecap="round" stroke-width=".26458">
    <g aria-label="config">
     <path d="m183.39 446.15c0 0.51117 0.31433 0.80645 0.7239 0.80645 0.18415 0 0.36195-0.0762 0.50165-0.20003l-0.11747-0.17145c-0.0921 0.0826-0.2159 0.15558-0.36195 0.15558-0.28258 0-0.47625-0.23813-0.47625-0.59055 0-0.3556 0.2032-0.5969 0.4826-0.5969 0.12382 0 0.21907 0.0571 0.31115 0.13652l0.13017-0.16827c-0.10477-0.0984-0.24765-0.18415-0.45085-0.18415-0.39687 0-0.74295 0.29527-0.74295 0.8128z"/>
     <path d="m184.76 446.15c0 0.51117 0.33655 0.80645 0.71438 0.80645 0.37782 0 0.71437-0.29528 0.71437-0.80645 0-0.51753-0.33655-0.8128-0.71437-0.8128-0.37783 0-0.71438 0.29527-0.71438 0.8128zm0.26988 0c0-0.3556 0.18097-0.5969 0.4445-0.5969 0.2667 0 0.4445 0.2413 0.4445 0.5969 0 0.35242-0.1778 0.59055-0.4445 0.59055-0.26353 0-0.4445-0.23813-0.4445-0.59055z"/>
     <path d="m186.6 446.92h0.26035v-1.1176c0.15557-0.15558 0.26352-0.23813 0.42227-0.23813 0.2032 0 0.2921 0.12383 0.2921 0.41275v0.94298h0.26035v-0.9779c0-0.3937-0.14605-0.60325-0.4699-0.60325-0.21272 0-0.37147 0.1143-0.51752 0.26035h-0.01l-0.0222-0.22225h-0.2159z"/>
     <path d="m189.09 444.67c-0.0699-0.0286-0.16193-0.0508-0.25718-0.0508-0.30797 0-0.45085 0.19685-0.45085 0.51117v0.24448l-0.20955 0.0159v0.19685h0.20955v1.3303h0.26035v-1.3303h0.32703v-0.21272h-0.32703v-0.24448c0-0.19685 0.0699-0.29845 0.2159-0.29845 0.0572 0 0.11748 0.0127 0.17463 0.0381z"/>
     <path d="m189.4 445.05c0.1016 0 0.18098-0.0699 0.18098-0.16828 0-0.1016-0.0794-0.16827-0.18098-0.16827-0.1016 0-0.18097 0.0667-0.18097 0.16827 0 0.0984 0.0794 0.16828 0.18097 0.16828zm-0.13335 1.8606h0.26035v-1.543h-0.26035z"/>
     <path d="m190.16 447.18c0-0.0889 0.0476-0.18098 0.15875-0.26035 0.0667 0.019 0.1397 0.0254 0.20003 0.0254h0.2667c0.20002 0 0.31115 0.0476 0.31115 0.1905 0 0.16192-0.19368 0.31432-0.48895 0.31432-0.2794 0-0.44768-0.10477-0.44768-0.26987zm-0.2286 0.0349c0 0.2667 0.26035 0.41593 0.63818 0.41593 0.47942 0 0.78105-0.24765 0.78105-0.5334 0-0.25718-0.18098-0.3683-0.53975-0.3683h-0.29845c-0.20955 0-0.27305-0.0699-0.27305-0.16828 0-0.0857 0.0445-0.13652 0.0984-0.18415 0.0699 0.0349 0.15558 0.054 0.23178 0.054 0.31432 0 0.56515-0.20638 0.56515-0.53658 0-0.13017-0.054-0.24765-0.127-0.3175h0.3175v-0.20002h-0.53658c-0.0572-0.0222-0.13335-0.0381-0.21907-0.0381-0.31433 0-0.58103 0.21272-0.58103 0.54927 0 0.18415 0.0984 0.33338 0.20003 0.41593v0.0127c-0.0794 0.054-0.16828 0.15557-0.16828 0.28575 0 0.12065 0.0603 0.2032 0.13653 0.25082v0.0127c-0.1397 0.0953-0.22543 0.21908-0.22543 0.34925zm0.63818-0.95885c-0.1778 0-0.32703-0.14287-0.32703-0.3683 0-0.22542 0.14605-0.35877 0.32703-0.35877 0.18097 0 0.32702 0.13335 0.32702 0.35877 0 0.22543-0.14922 0.3683-0.32702 0.3683z"/>
    </g>
    <g aria-label="plan">
     <path d="m183.76 449.69c0.14288 0.11113 0.28575 0.1778 0.42863 0.1778 0.35242 0 0.66675-0.30797 0.66675-0.83185 0-0.47942-0.21273-0.7874-0.6096-0.7874-0.18098 0-0.35243 0.0984-0.49213 0.2159h-0.01l-0.0222-0.1778h-0.2159v2.1939h0.26035v-0.5207zm6e-3 -0.2032v-0.80962c0.1524-0.13653 0.28258-0.20955 0.41275-0.20955 0.2921 0 0.4064 0.2286 0.4064 0.56832 0 0.381-0.18732 0.61278-0.44132 0.61278-0.1016 0-0.23813-0.0444-0.37783-0.16193z"/>
     <path d="m185.26 449.51c0 0.22543 0.0794 0.34925 0.27623 0.34925 0.0699 0 0.1143-0.01 0.14922-0.0254l-0.0349-0.19685c-0.0286 6e-3 -0.0413 6e-3 -0.0572 6e-3 -0.0381 0-0.073-0.0317-0.073-0.1143v-1.9685h-0.26035z"/>
     <path d="m186 449.43c0 0.27623 0.19367 0.43815 0.45402 0.43815 0.1905 0 0.36195-0.1016 0.51118-0.22225h6e-3l0.0222 0.18415h0.2159v-0.94615c0-0.38417-0.15875-0.635-0.53657-0.635-0.24765 0-0.46355 0.10795-0.60643 0.20003l0.10478 0.18097c0.12065-0.0826 0.2794-0.1651 0.46037-0.1651 0.25083 0 0.3175 0.1905 0.3175 0.38735-0.65722 0.073-0.94932 0.2413-0.94932 0.57785zm0.25717-0.019c0-0.19685 0.17463-0.32385 0.69215-0.38735v0.42863c-0.14922 0.13335-0.27305 0.20637-0.42227 0.20637-0.1524 0-0.26988-0.073-0.26988-0.24765z"/>
     <path d="m187.7 449.83h0.26035v-1.1176c0.15558-0.15557 0.26353-0.23812 0.42228-0.23812 0.2032 0 0.2921 0.12382 0.2921 0.41275v0.94297h0.26035v-0.9779c0-0.3937-0.14605-0.60325-0.4699-0.60325-0.21273 0-0.37148 0.1143-0.51753 0.26035h-0.01l-0.0222-0.22225h-0.2159z"/>
    </g>
    <g aria-label="result">
     <path d="m183.5 452.74h0.26035v-0.9906c0.10478-0.26035 0.26035-0.3556 0.39053-0.3556 0.0635 0 0.0984 0.01 0.14922 0.0254l0.0508-0.2286c-0.0508-0.0222-0.0984-0.0318-0.1651-0.0318-0.17462 0-0.33337 0.12383-0.43815 0.3175h-0.01l-0.0222-0.2794h-0.2159z"/>
     <path d="m184.46 451.97c0 0.50483 0.32703 0.80645 0.73978 0.80645 0.20955 0 0.37465-0.073 0.508-0.15875l-0.0921-0.17145c-0.1143 0.073-0.23812 0.12065-0.38417 0.12065-0.29528 0-0.4953-0.20955-0.51435-0.54292h1.0414c6e-3 -0.0381 0.01-0.0889 0.01-0.14288 0-0.44132-0.22225-0.7239-0.61595-0.7239-0.35242 0-0.69215 0.30798-0.69215 0.8128zm0.254-0.11747c0.0317-0.31115 0.2286-0.48895 0.4445-0.48895 0.2413 0 0.381 0.17462 0.381 0.48895z"/>
     <path d="m185.98 452.56c0.14605 0.12065 0.3556 0.21272 0.57468 0.21272 0.36512 0 0.56515-0.20955 0.56515-0.46037 0-0.2921-0.24765-0.38418-0.4699-0.46673-0.17463-0.0667-0.3429-0.12382-0.3429-0.2667 0-0.11747 0.0889-0.22225 0.28257-0.22225 0.13653 0 0.24765 0.0571 0.35243 0.13653l0.12382-0.1651c-0.11747-0.0953-0.28575-0.17463-0.47942-0.17463-0.33338 0-0.53023 0.1905-0.53023 0.43815 0 0.26035 0.2413 0.36513 0.46038 0.4445 0.16827 0.0635 0.35242 0.13335 0.35242 0.2921 0 0.13335-0.1016 0.2413-0.3048 0.2413-0.18415 0-0.32067-0.0762-0.45402-0.18415z"/>
     <path d="m187.46 452.17c0 0.3937 0.14605 0.60325 0.47307 0.60325 0.21273 0 0.36513-0.11112 0.508-0.2794h0.01l0.0222 0.2413h0.2159v-1.543h-0.26035v1.0954c-0.14605 0.18097-0.25717 0.26035-0.41592 0.26035-0.2032 0-0.28893-0.12383-0.28893-0.41275v-0.94298h-0.26352z"/>
     <path d="m189.21 452.42c0 0.22543 0.0794 0.34925 0.27622 0.34925 0.0698 0 0.1143-0.01 0.14923-0.0254l-0.0349-0.19685c-0.0286 6e-3 -0.0413 6e-3 -0.0572 6e-3 -0.0381 0-0.073-0.0318-0.073-0.1143v-1.9685h-0.26035z"/>
     <path d="m190.07 452.26c0 0.3048 0.11113 0.51435 0.44133 0.51435 0.0952 0 0.20002-0.0286 0.28575-0.0571l-0.0508-0.19685c-0.0508 0.019-0.12065 0.0413-0.17463 0.0413-0.1778 0-0.23812-0.10795-0.23812-0.29845v-0.85725h0.41592v-0.21273h-0.41592v-0.4318h-0.21908l-0.0317 0.4318-0.2413 0.0159v0.19685h0.2286z"/>
    </g>
   </g>
   <circle cx="182.21" cy="446.28" r=".26458"/>
   <circle cx="182.21" cy="449.19" r=".26458"/>
   <circle cx="182.21" cy="452.1" r=".26458"/>
  </g>
 </g>
</svg>
