<svg width="181.32mm" height="94.094mm" version="1.1" viewBox="0 0 181.32 94.094" xmlns="http://www.w3.org/2000/svg">
 <g transform="translate(78.958 -170.7)">
  <g>
   <g stroke-width=".26458">
    <path d="m4.3877 179.9v8.4667" fill="#e8eaec" stroke="#47d58a" stroke-linecap="square"/>
    <path d="m-1.2745 170.83-4.3398 4.4661 4.3398 4.4661h11.324l4.3398-4.4661-4.3398-4.4661z" fill="#1d232d" fill-rule="evenodd" stroke="#535e70"/>
    <g fill="#e8eaec" stroke-linecap="round" aria-label="Infinite loop">
     <path d="m-0.7739 174.21h0.31115v-2.4299h-0.31115z"/>
     <path d="m0.16256 174.21h0.30374v-1.3039c0.1815-0.1815 0.30745-0.27781 0.49265-0.27781 0.23707 0 0.34078 0.14446 0.34078 0.48154v1.1001h0.30374v-1.1409c0-0.45931-0.17039-0.70379-0.54822-0.70379-0.24818 0-0.43339 0.13335-0.60378 0.30374h-0.011112l-0.025929-0.25929h-0.25188z"/>
     <path d="m3.0662 171.58c-0.081492-0.0333-0.18891-0.0593-0.30004-0.0593-0.3593 0-0.52599 0.22966-0.52599 0.59637v0.28522l-0.24448 0.0185v0.22966h0.24448v1.552h0.30374v-1.552h0.38153v-0.24818h-0.38153v-0.28522c0-0.22966 0.081492-0.34819 0.25188-0.34819 0.066675 0 0.13705 0.0148 0.20373 0.0444z"/>
     <path d="m3.4291 172.04c0.11853 0 0.21114-0.0815 0.21114-0.19632 0-0.11854-0.092604-0.19633-0.21114-0.19633-0.11853 0-0.21114 0.0778-0.21114 0.19633 0 0.11482 0.092604 0.19632 0.21114 0.19632zm-0.15558 2.1706h0.30374v-1.8002h-0.30374z"/>
     <path d="m4.1851 174.21h0.30374v-1.3039c0.1815-0.1815 0.30745-0.27781 0.49265-0.27781 0.23707 0 0.34078 0.14446 0.34078 0.48154v1.1001h0.30374v-1.1409c0-0.45931-0.17039-0.70379-0.54822-0.70379-0.24818 0-0.43339 0.13335-0.60378 0.30374h-0.011113l-0.025929-0.25929h-0.25188z"/>
     <path d="m6.3663 172.04c0.11853 0 0.21114-0.0815 0.21114-0.19632 0-0.11854-0.092604-0.19633-0.21114-0.19633-0.11853 0-0.21114 0.0778-0.21114 0.19633 0 0.11482 0.092604 0.19632 0.21114 0.19632zm-0.15558 2.1706h0.30374v-1.8002h-0.30374z"/>
     <path d="m7.1742 173.65c0 0.3556 0.12965 0.60008 0.51488 0.60008 0.11112 0 0.23336-0.0333 0.33338-0.0667l-0.059267-0.22966c-0.059267 0.0222-0.14076 0.0482-0.20373 0.0482-0.20743 0-0.27781-0.12594-0.27781-0.34819v-1.0001h0.48525v-0.24818h-0.48525v-0.50376h-0.25559l-0.037042 0.50376-0.28152 0.0185v0.22966h0.2667z"/>
     <path d="m8.2044 173.31c0 0.58896 0.38153 0.94086 0.86307 0.94086 0.24448 0 0.43709-0.0852 0.59267-0.18521l-0.10742-0.20003c-0.13335 0.0852-0.27781 0.14076-0.4482 0.14076-0.34449 0-0.57785-0.24447-0.60008-0.63341h1.215c0.00741-0.0445 0.011113-0.10372 0.011113-0.16669 0-0.51488-0.25929-0.84455-0.71861-0.84455-0.41116 0-0.80751 0.35931-0.80751 0.94827zm0.29633-0.13705c0.037042-0.36301 0.2667-0.57045 0.51858-0.57045 0.28152 0 0.4445 0.20373 0.4445 0.57045z"/>
     <path d="m1.179 178.47c0 0.26299 0.092604 0.40746 0.32226 0.40746 0.081492 0 0.13335-0.0111 0.1741-0.0296l-0.040746-0.22966c-0.033338 7e-3 -0.048154 7e-3 -0.066675 7e-3 -0.04445 0-0.085196-0.037-0.085196-0.13335v-2.2966h-0.30374z"/>
     <path d="m1.9934 177.94c0 0.59637 0.39264 0.94086 0.83344 0.94086 0.4408 0 0.83344-0.34449 0.83344-0.94086 0-0.60378-0.39264-0.94827-0.83344-0.94827-0.4408 0-0.83344 0.34449-0.83344 0.94827zm0.31485 0c0-0.41487 0.21114-0.69639 0.51858-0.69639 0.31115 0 0.51858 0.28152 0.51858 0.69639 0 0.41116-0.20743 0.68897-0.51858 0.68897-0.30745 0-0.51858-0.27781-0.51858-0.68897z"/>
     <path d="m4.0047 177.94c0 0.59637 0.39264 0.94086 0.83344 0.94086 0.4408 0 0.83344-0.34449 0.83344-0.94086 0-0.60378-0.39264-0.94827-0.83344-0.94827-0.4408 0-0.83344 0.34449-0.83344 0.94827zm0.31485 0c0-0.41487 0.21114-0.69639 0.51858-0.69639 0.31115 0 0.51858 0.28152 0.51858 0.69639 0 0.41116-0.20743 0.68897-0.51858 0.68897-0.30745 0-0.51858-0.27781-0.51858-0.68897z"/>
     <path d="m6.4456 178.67c0.16669 0.12965 0.33338 0.20744 0.50006 0.20744 0.41116 0 0.77788-0.35931 0.77788-0.9705 0-0.55932-0.24818-0.91863-0.7112-0.91863-0.21114 0-0.41116 0.11483-0.57415 0.25188h-0.011113l-0.025929-0.20743h-0.25188v2.5596h0.30374v-0.60748zm0.00741-0.23706v-0.94457c0.1778-0.15928 0.32967-0.24447 0.48154-0.24447 0.34078 0 0.47413 0.2667 0.47413 0.66304 0 0.4445-0.21855 0.71491-0.51488 0.71491-0.11853 0-0.27781-0.0519-0.4408-0.18891z"/>
    </g>
   </g>
   <ellipse transform="matrix(-.42777 -.90389 .98869 -.14999 0 0)" cx="-200.35" cy="-82.331" rx="5.4639" ry="8.8227" fill="#1d232d" stroke="#535e70" stroke-width=".27035"/>
  </g>
  <g transform="matrix(.9998 0 0 .9998 -703.38 -189.76)" stroke-width=".63513">
   <g fill="none" stroke="#e8eaec" stroke-width=".26464">
    <path d="m705 382.36v-2h2"/>
    <path d="m710.8 382.36v-2h-2"/>
    <path d="m705 384.16v2h2"/>
    <path d="m710.8 384.16v2h-2"/>
   </g>
   <rect x="706.26" y="381.64" width="3.3438" height="3.3438" fill="#e8eaec"/>
  </g>
  <path d="m-0.9039 202.91v2.1167h-68.792v4.4979" fill="none" stroke="#47d58a" stroke-linecap="square" stroke-width=".26458"/>
  <g>
   <ellipse transform="matrix(-.42777 -.90389 .98869 -.14999 0 0)" cx="-210.6" cy="-161.7" rx="5.4639" ry="8.8227" fill="#1d232d" stroke="#535e70" stroke-width=".27035"/>
   <path d="m-74.862 214.53 9.4482 0.11291" fill="#e9e56f" fill-rule="evenodd" stroke="#e8eaec" stroke-width=".26458"/>
   <g transform="matrix(.0042365 0 0 .0043091 -65.97 213.45)" fill="#e8eaec" stroke-width="123.85">
    <g fill="#e8eaec" stroke-width="123.85">
     <path d="m486.41 221.41-364.07-208.5c-52.938-30.318-95.852-5.44-95.852 55.563v415.65c0 61.004 42.914 85.882 95.852 55.563l364.07-208.49c52.938-30.317 52.938-79.473 0-109.79z" fill="#e8eaec" stroke-width="123.85"/>
    </g>
   </g>
   <ellipse transform="matrix(-.42777 -.90389 .98869 -.14999 0 0)" cx="-218.26" cy="-115.5" rx="5.4639" ry="8.8227" fill="#1d232d" stroke="#535e70" stroke-width=".27035"/>
   <path d="m-25.914 214.53 9.4482 0.11291" fill="#e9e56f" fill-rule="evenodd" stroke="#e8eaec" stroke-width=".26458"/>
   <g transform="matrix(.0042365 0 0 .0043091 -17.022 213.45)" fill="#e8eaec" stroke-width="123.85">
    <g fill="#e8eaec" stroke-width="123.85">
     <path d="m486.41 221.41-364.07-208.5c-52.938-30.318-95.852-5.44-95.852 55.563v415.65c0 61.004 42.914 85.882 95.852 55.563l364.07-208.49c52.938-30.317 52.938-79.473 0-109.79z" fill="#e8eaec" stroke-width="123.85"/>
    </g>
   </g>
   <ellipse transform="matrix(-.42777 -.90389 .98869 -.14999 0 0)" cx="-226.13" cy="-68.065" rx="5.4639" ry="8.8227" fill="#1d232d" stroke="#535e70" stroke-width=".27035"/>
   <path d="m24.357 214.53 9.4482 0.11291" fill="#e9e56f" fill-rule="evenodd" stroke="#e8eaec" stroke-width=".26458"/>
   <g transform="matrix(.0042365 0 0 .0043091 33.249 213.45)" fill="#e8eaec" stroke-width="123.85">
    <g fill="#e8eaec" stroke-width="123.85">
     <path d="m486.41 221.41-364.07-208.5c-52.938-30.318-95.852-5.44-95.852 55.563v415.65c0 61.004 42.914 85.882 95.852 55.563l364.07-208.49c52.938-30.317 52.938-79.473 0-109.79z" fill="#e8eaec" stroke-width="123.85"/>
    </g>
   </g>
   <ellipse transform="matrix(-.42777 -.90389 .98869 -.14999 0 0)" cx="-233.8" cy="-21.872" rx="5.4639" ry="8.8227" fill="#1d232d" stroke="#535e70" stroke-width=".27035"/>
   <path d="m73.305 214.53 9.4482 0.11291" fill="#e9e56f" fill-rule="evenodd" stroke="#e8eaec" stroke-width=".26458"/>
   <g transform="matrix(.0042365 0 0 .0043091 82.197 213.45)" fill="#e8eaec" stroke-width="123.85">
    <g fill="#e8eaec" stroke-width="123.85">
     <path d="m486.41 221.41-364.07-208.5c-52.938-30.318-95.852-5.44-95.852 55.563v415.65c0 61.004 42.914 85.882 95.852 55.563l364.07-208.49c52.938-30.317 52.938-79.473 0-109.79z" fill="#e8eaec" stroke-width="123.85"/>
    </g>
   </g>
   <path d="m-2.0945 202.25h13.229" fill="#1d232d" stroke="#47d58a" stroke-linecap="round" stroke-width=".26458"/>
  </g>
  <g fill="#47d58a">
   <circle cx="2.668" cy="202.78" r=".52917"/>
   <circle cx="4.5201" cy="201.72" r=".52917"/>
   <circle cx="-.77157" cy="202.78" r=".52917"/>
   <circle cx="6.3722" cy="202.78" r=".52917"/>
   <circle cx="9.8118" cy="202.78" r=".52917"/>
  </g>
  <g stroke="#47d58a" stroke-linecap="square">
   <path d="m4.52 198.68v3.175" fill="#7893ea" stroke-width=".26458"/>
   <path d="m9.8117 202.91v2.1167h68.792v4.4979" fill="none" stroke-width=".26458"/>
   <ellipse transform="matrix(0,-1,-1,0,0,0)" cx="-205.03" cy="-78.603" rx=".66146" ry=".66146" fill="#1d232d" stroke-dashoffset="1.2" stroke-miterlimit="40" stroke-width=".26458"/>
   <path d="m6.3721 202.91v4.7625h23.283v1.8521" fill="none" stroke-width=".26458"/>
   <ellipse transform="matrix(0,-1,-1,0,0,0)" cx="-207.68" cy="-29.656" rx=".66146" ry=".66146" fill="#1d232d" stroke-dashoffset="1.2" stroke-miterlimit="40" stroke-width=".26458"/>
   <ellipse transform="rotate(-90)" cx="-205.03" cy="-69.696" rx=".66146" ry=".66146" fill="#1d232d" stroke-dashoffset="1.2" stroke-miterlimit="40" stroke-width=".26458"/>
   <path d="m2.5357 202.91v4.7625h-23.283v1.8521" fill="none" stroke-width=".26458"/>
  </g>
  <g>
   <g>
    <ellipse transform="rotate(-90)" cx="-207.68" cy="-20.748" rx=".66146" ry=".66146" fill="#1d232d" stroke="#47d58a" stroke-dashoffset="1.2" stroke-linecap="square" stroke-miterlimit="40" stroke-width=".26458"/>
    <g>
     <g stroke-width=".26458">
      <rect x="-78.824" y="231.73" width="17.774" height="8.8871" fill="#1d232d" stroke="#6f8ce9"/>
      <g fill="#e8eaec" stroke-linecap="round" aria-label="Sleeping?">
       <path d="m-58.505 213.05c0.21114 0.21855 0.50747 0.35931 0.84825 0.35931 0.51118 0 0.82973-0.30745 0.82973-0.69268 0-0.3593-0.21855-0.52599-0.50006-0.64823l-0.34819-0.14817c-0.18891-0.0815-0.40375-0.17039-0.40375-0.40375 0-0.21855 0.1815-0.3556 0.45561-0.3556 0.22225 0 0.40375 0.0889 0.55192 0.22966l0.16298-0.20003c-0.17039-0.1778-0.42598-0.30003-0.7149-0.30003-0.4408 0-0.76676 0.2741-0.76676 0.64452 0 0.3556 0.2667 0.5297 0.49265 0.626l0.34819 0.15188c0.22966 0.10371 0.40746 0.1815 0.40746 0.42968 0 0.23707-0.18891 0.39634-0.50747 0.39634-0.25559 0-0.49636-0.12223-0.67046-0.30374z"/>
       <path d="m-56.389 213c0 0.263 0.0926 0.40746 0.32226 0.40746 0.08149 0 0.13335-0.0111 0.1741-0.0296l-0.04075-0.22966c-0.03334 7e-3 -0.04815 7e-3 -0.06667 7e-3 -0.04445 0-0.0852-0.037-0.0852-0.13335v-2.2966h-0.30374z"/>
       <path d="m-55.575 212.47c0 0.58896 0.38153 0.94086 0.86307 0.94086 0.24448 0 0.43709-0.0852 0.59267-0.18521l-0.10742-0.20002c-0.13335 0.0852-0.27781 0.14075-0.4482 0.14075-0.34449 0-0.57785-0.24447-0.60008-0.63341h1.215c0.0074-0.0444 0.01111-0.10372 0.01111-0.16669 0-0.51488-0.25929-0.84455-0.71861-0.84455-0.41116 0-0.80751 0.35931-0.80751 0.94827zm0.29633-0.13705c0.03704-0.36301 0.2667-0.57045 0.51858-0.57045 0.28152 0 0.4445 0.20373 0.4445 0.57045z"/>
       <path d="m-53.737 212.47c0 0.58896 0.38153 0.94086 0.86307 0.94086 0.24448 0 0.43709-0.0852 0.59267-0.18521l-0.10742-0.20002c-0.13335 0.0852-0.27781 0.14075-0.4482 0.14075-0.34449 0-0.57785-0.24447-0.60008-0.63341h1.215c0.0074-0.0444 0.01111-0.10372 0.01111-0.16669 0-0.51488-0.25929-0.84455-0.71861-0.84455-0.41116 0-0.80751 0.35931-0.80751 0.94827zm0.29633-0.13705c0.03704-0.36301 0.2667-0.57045 0.51858-0.57045 0.28152 0 0.4445 0.20373 0.4445 0.57045z"/>
       <path d="m-51.47 213.2c0.16669 0.12964 0.33338 0.20743 0.50006 0.20743 0.41116 0 0.77788-0.35931 0.77788-0.97049 0-0.55933-0.24818-0.91864-0.7112-0.91864-0.21114 0-0.41116 0.11483-0.57415 0.25189h-0.01111l-0.02593-0.20744h-0.25188v2.5596h0.30374v-0.60748zm0.0074-0.23707v-0.94456c0.1778-0.15928 0.32967-0.24448 0.48154-0.24448 0.34078 0 0.47413 0.2667 0.47413 0.66305 0 0.4445-0.21854 0.7149-0.51488 0.7149-0.11853 0-0.27781-0.0519-0.4408-0.18891z"/>
       <path d="m-49.556 211.19c0.11853 0 0.21114-0.0815 0.21114-0.19632 0-0.11854-0.0926-0.19632-0.21114-0.19632-0.11853 0-0.21114 0.0778-0.21114 0.19632 0 0.11483 0.0926 0.19632 0.21114 0.19632zm-0.15558 2.1706h0.30374v-1.8002h-0.30374z"/>
       <path d="m-48.8 213.37h0.30374v-1.3039c0.1815-0.1815 0.30745-0.27781 0.49266-0.27781 0.23707 0 0.34078 0.14446 0.34078 0.48154v1.1001h0.30374v-1.1409c0-0.45932-0.17039-0.7038-0.54822-0.7038-0.24818 0-0.43339 0.13335-0.60378 0.30375h-0.01111l-0.02593-0.2593h-0.25188z"/>
       <path d="m-46.645 213.67c0-0.10372 0.05556-0.21114 0.18521-0.30374 0.07779 0.0222 0.16298 0.0296 0.23336 0.0296h0.31115c0.23336 0 0.36301 0.0556 0.36301 0.22225 0 0.18891-0.22596 0.36671-0.57044 0.36671-0.32597 0-0.52229-0.12223-0.52229-0.31485zm-0.2667 0.0408c0 0.31115 0.30374 0.48524 0.74454 0.48524 0.55933 0 0.91122-0.28892 0.91122-0.6223 0-0.30004-0.21114-0.42968-0.62971-0.42968h-0.34819c-0.24448 0-0.31856-0.0815-0.31856-0.19632 0-0.10001 0.05186-0.15928 0.11483-0.21484 0.08149 0.0407 0.1815 0.063 0.2704 0.063 0.36671 0 0.65934-0.24077 0.65934-0.62601 0-0.15187-0.06297-0.28892-0.14817-0.37041h0.37042v-0.23337h-0.626c-0.06667-0.0259-0.15558-0.0444-0.25559-0.0444-0.36671 0-0.67786 0.24818-0.67786 0.64082 0 0.21485 0.11483 0.38894 0.23336 0.48525v0.0148c-0.0926 0.063-0.19632 0.1815-0.19632 0.33337 0 0.14076 0.07038 0.23707 0.15928 0.29263v0.0148c-0.16298 0.11112-0.263 0.25559-0.263 0.40746zm0.74454-1.1187c-0.20743 0-0.38153-0.16669-0.38153-0.42969 0-0.26299 0.17039-0.41857 0.38153-0.41857 0.21114 0 0.38153 0.15558 0.38153 0.41857 0 0.263-0.1741 0.42969-0.38153 0.42969z"/>
       <path d="m-44.749 212.63h0.2667c-0.05927-0.51858 0.5371-0.7149 0.5371-1.2002 0-0.36671-0.25188-0.59266-0.63341-0.59266-0.263 0-0.46672 0.12964-0.6223 0.30744l0.1741 0.15928c0.11483-0.13335 0.263-0.21484 0.42598-0.21484 0.23707 0 0.3593 0.16298 0.3593 0.3593 0 0.39265-0.58896 0.60378-0.50747 1.1816zm-0.07779 0.54822c0 0.13335 0.09631 0.22966 0.21855 0.22966 0.12224 0 0.22225-0.0963 0.22225-0.22966 0-0.14076-0.10001-0.23707-0.22225-0.23707-0.12224 0-0.21855 0.0963-0.21855 0.23707z"/>
      </g>
      <g fill="#e8eaec" stroke-linecap="round" aria-label="Wait">
       <path d="m-72.951 237.44h0.36671l0.36301-1.4631c0.04075-0.18892 0.08149-0.36301 0.12224-0.55193h0.01482c0.03334 0.18892 0.07408 0.36301 0.11483 0.55193l0.36671 1.4631h0.37412l0.50377-2.4299h-0.30004l-0.25559 1.3224c-0.04445 0.25929-0.0889 0.52228-0.13705 0.78528h-0.01482c-0.05927-0.263-0.11853-0.5297-0.1741-0.78528l-0.33708-1.3224h-0.28152l-0.33708 1.3224c-0.05927 0.25929-0.11853 0.52228-0.17039 0.78528h-0.01482c-0.04815-0.263-0.09631-0.52229-0.14446-0.78528l-0.25559-1.3224h-0.31856z"/>
       <path d="m-70.489 236.98c0 0.32226 0.22595 0.51117 0.5297 0.51117 0.22225 0 0.42228-0.11853 0.59637-0.25929h0.0074l0.02593 0.21484h0.25188v-1.1038c0-0.4482-0.18521-0.74083-0.626-0.74083-0.28892 0-0.54081 0.12594-0.7075 0.23336l0.12224 0.21114c0.14076-0.0963 0.32597-0.19262 0.5371-0.19262 0.29263 0 0.37042 0.22225 0.37042 0.45191-0.76676 0.0852-1.1075 0.28151-1.1075 0.67416zm0.30004-0.0222c0-0.22966 0.20373-0.37782 0.80751-0.45191v0.50007c-0.1741 0.15557-0.31856 0.24077-0.49265 0.24077-0.1778 0-0.31485-0.0852-0.31485-0.28893z"/>
       <path d="m-68.349 235.27c0.11853 0 0.21114-0.0815 0.21114-0.19632 0-0.11853-0.0926-0.19632-0.21114-0.19632-0.11853 0-0.21114 0.0778-0.21114 0.19632 0 0.11483 0.0926 0.19632 0.21114 0.19632zm-0.15558 2.1706h0.30374v-1.8002h-0.30374z"/>
       <path d="m-67.541 236.89c0 0.3556 0.12965 0.60007 0.51488 0.60007 0.11112 0 0.23336-0.0333 0.33338-0.0667l-0.05927-0.22966c-0.05927 0.0222-0.14076 0.0482-0.20373 0.0482-0.20743 0-0.27781-0.12594-0.27781-0.34819v-1.0001h0.48524v-0.24818h-0.48524v-0.50377h-0.25559l-0.03704 0.50377-0.28152 0.0185v0.22966h0.2667z"/>
      </g>
      <path d="m-69.563 219.85v11.642" fill="#7893ea" stroke="#47d58a" stroke-linecap="square"/>
      <g fill="#e8eaec" stroke-linecap="round" aria-label="Enemy visible?">
       <path d="m-9.0866 212.57h1.4372v-0.26299h-1.1261v-0.8816h0.91863v-0.26299h-0.91863v-0.76306h1.089v-0.25929h-1.4002z"/>
       <path d="m-7.1735 212.57h0.30374v-1.3039c0.1815-0.1815 0.30745-0.27781 0.49265-0.27781 0.23707 0 0.34078 0.14446 0.34078 0.48154v1.1001h0.30374v-1.1409c0-0.45932-0.17039-0.70379-0.54822-0.70379-0.24818 0-0.43339 0.13335-0.60378 0.30374h-0.011113l-0.025929-0.25929h-0.25188z"/>
       <path d="m-5.2811 211.68c0 0.58897 0.38153 0.94086 0.86307 0.94086 0.24448 0 0.43709-0.0852 0.59267-0.18521l-0.10742-0.20002c-0.13335 0.0852-0.27781 0.14076-0.4482 0.14076-0.34449 0-0.57785-0.24448-0.60008-0.63342h1.215c0.00741-0.0445 0.011112-0.10371 0.011112-0.16668 0-0.51488-0.25929-0.84455-0.71861-0.84455-0.41116 0-0.80751 0.3593-0.80751 0.94826zm0.29633-0.13705c0.037042-0.36301 0.2667-0.57044 0.51858-0.57044 0.28152 0 0.4445 0.20373 0.4445 0.57044z"/>
       <path d="m-3.3102 212.57h0.30374v-1.3039c0.16669-0.1852 0.31856-0.27781 0.45191-0.27781 0.22966 0 0.33708 0.14446 0.33708 0.48154v1.1001h0.30374v-1.3039c0.16669-0.1852 0.31115-0.27781 0.45191-0.27781 0.22595 0 0.33338 0.14446 0.33338 0.48154v1.1001h0.30374v-1.1409c0-0.45932-0.1778-0.70379-0.54822-0.70379-0.21855 0-0.40375 0.14075-0.59267 0.34448-0.074083-0.21484-0.22225-0.34448-0.49636-0.34448-0.21484 0-0.40375 0.13335-0.55933 0.30374h-0.011112l-0.025929-0.25929h-0.25188z"/>
       <path d="m-0.36489 213.07-0.059267 0.24077c0.059267 0.0222 0.12965 0.037 0.21114 0.037 0.36301 0 0.54822-0.2704 0.67416-0.626l0.67786-1.9484h-0.29633l-0.32226 0.99642c-0.048154 0.15928-0.10001 0.34448-0.15187 0.50747h-0.014817c-0.055562-0.16669-0.11853-0.3519-0.1741-0.50747l-0.36671-0.99642h-0.31485l0.72231 1.8039-0.040746 0.13335c-0.074083 0.22225-0.20373 0.38523-0.40746 0.38523-0.04445 0-0.10001-0.0148-0.13705-0.0259z"/>
       <path d="m-9.172 217.34h0.3556l0.63712-1.8002h-0.30004l-0.34078 1.0224c-0.051858 0.1778-0.11112 0.35931-0.16298 0.5297h-0.014817c-0.055563-0.17039-0.11483-0.3519-0.16669-0.5297l-0.34078-1.0224h-0.31485z"/>
       <path d="m-7.6763 215.17c0.11853 0 0.21114-0.0815 0.21114-0.19632 0-0.11854-0.092604-0.19633-0.21114-0.19633-0.11853 0-0.21114 0.0778-0.21114 0.19633 0 0.11482 0.092604 0.19632 0.21114 0.19632zm-0.15558 2.1706h0.30374v-1.8002h-0.30374z"/>
       <path d="m-7.1203 217.14c0.17039 0.14076 0.41487 0.24818 0.67045 0.24818 0.42598 0 0.65934-0.24448 0.65934-0.53711 0-0.34078-0.28892-0.4482-0.54822-0.54451-0.20373-0.0778-0.40005-0.14446-0.40005-0.31115 0-0.13705 0.10372-0.25929 0.32967-0.25929 0.15928 0 0.28892 0.0667 0.41116 0.15928l0.14446-0.19262c-0.13705-0.11112-0.33338-0.20373-0.55933-0.20373-0.38894 0-0.6186 0.22225-0.6186 0.51118 0 0.30374 0.28152 0.42598 0.5371 0.51858 0.19632 0.0741 0.41116 0.15558 0.41116 0.34078 0 0.15558-0.11853 0.28152-0.3556 0.28152-0.21484 0-0.37412-0.0889-0.5297-0.21484z"/>
       <path d="m-5.2092 215.17c0.11853 0 0.21114-0.0815 0.21114-0.19632 0-0.11854-0.092604-0.19633-0.21114-0.19633-0.11853 0-0.21114 0.0778-0.21114 0.19633 0 0.11482 0.092604 0.19632 0.21114 0.19632zm-0.15558 2.1706h0.30374v-1.8002h-0.30374z"/>
       <path d="m-4.4533 217.34h0.24448l0.025929-0.1778h0.011112c0.15928 0.14076 0.34819 0.22225 0.51488 0.22225 0.41116 0 0.77788-0.35931 0.77788-0.9742 0-0.55562-0.24818-0.91493-0.7149-0.91493-0.20002 0-0.40005 0.10742-0.56303 0.25189l0.00741-0.32597v-0.71861h-0.30374zm0.30374-0.40005v-0.94456c0.17039-0.15928 0.32967-0.24448 0.48154-0.24448 0.34078 0 0.47413 0.2667 0.47413 0.66305 0 0.4445-0.21855 0.7149-0.51488 0.7149-0.11853 0-0.28152-0.0519-0.4408-0.18891z"/>
       <path d="m-2.3986 216.98c0 0.263 0.092604 0.40746 0.32226 0.40746 0.081492 0 0.13335-0.0111 0.1741-0.0296l-0.040746-0.22965c-0.033338 7e-3 -0.048154 7e-3 -0.066675 7e-3 -0.04445 0-0.085196-0.037-0.085196-0.13335v-2.2966h-0.30374z"/>
       <path d="m-1.5842 216.44c0 0.58896 0.38153 0.94086 0.86307 0.94086 0.24448 0 0.43709-0.0852 0.59267-0.18521l-0.10742-0.20003c-0.13335 0.0852-0.27781 0.14076-0.4482 0.14076-0.34449 0-0.57785-0.24447-0.60008-0.63341h1.215c0.0074083-0.0444 0.011112-0.10372 0.011112-0.16669 0-0.51488-0.25929-0.84455-0.71861-0.84455-0.41116 0-0.80751 0.35931-0.80751 0.94827zm0.29633-0.13705c0.037042-0.36301 0.2667-0.57045 0.51858-0.57045 0.28152 0 0.4445 0.20373 0.4445 0.57045z"/>
       <path d="m0.65398 216.61h0.2667c-0.059267-0.51858 0.5371-0.7149 0.5371-1.2002 0-0.36671-0.25188-0.59266-0.63341-0.59266-0.263 0-0.46672 0.12964-0.6223 0.30744l0.1741 0.15928c0.11483-0.13335 0.263-0.21484 0.42598-0.21484 0.23707 0 0.3593 0.16298 0.3593 0.3593 0 0.39265-0.58896 0.60378-0.50747 1.1816zm-0.077788 0.54822c0 0.13335 0.096308 0.22966 0.21855 0.22966 0.12224 0 0.22225-0.0963 0.22225-0.22966 0-0.14076-0.10001-0.23707-0.22225-0.23707s-0.21855 0.0963-0.21855 0.23707z"/>
      </g>
      <path d="m-20.615 219.85v11.377" fill="#7893ea" stroke="#47d58a" stroke-linecap="square"/>
      <g fill="#e8eaec" stroke-linecap="round" aria-label="Enemy lost?">
       <path d="m40.891 213.37h1.4372v-0.263h-1.1261v-0.88159h0.91863v-0.26299h-0.91863v-0.76306h1.089v-0.25929h-1.4002z"/>
       <path d="m42.804 213.37h0.30374v-1.3039c0.1815-0.1815 0.30745-0.27781 0.49265-0.27781 0.23707 0 0.34078 0.14446 0.34078 0.48154v1.1001h0.30374v-1.1409c0-0.45932-0.17039-0.7038-0.54822-0.7038-0.24818 0-0.43339 0.13335-0.60378 0.30375h-0.01111l-0.02593-0.2593h-0.25188z"/>
       <path d="m44.697 212.47c0 0.58896 0.38153 0.94086 0.86307 0.94086 0.24448 0 0.43709-0.0852 0.59267-0.18521l-0.10742-0.20002c-0.13335 0.0852-0.27781 0.14075-0.4482 0.14075-0.34449 0-0.57785-0.24447-0.60008-0.63341h1.215c0.0074-0.0444 0.01111-0.10372 0.01111-0.16669 0-0.51488-0.25929-0.84455-0.71861-0.84455-0.41116 0-0.80751 0.35931-0.80751 0.94827zm0.29633-0.13705c0.03704-0.36301 0.2667-0.57045 0.51858-0.57045 0.28152 0 0.4445 0.20373 0.4445 0.57045z"/>
       <path d="m46.668 213.37h0.30374v-1.3039c0.16669-0.18521 0.31856-0.27781 0.45191-0.27781 0.22966 0 0.33708 0.14446 0.33708 0.48154v1.1001h0.30374v-1.3039c0.16669-0.18521 0.31115-0.27781 0.45191-0.27781 0.22595 0 0.33338 0.14446 0.33338 0.48154v1.1001h0.30374v-1.1409c0-0.45932-0.1778-0.7038-0.54822-0.7038-0.21855 0-0.40375 0.14076-0.59267 0.34449-0.07408-0.21484-0.22225-0.34449-0.49636-0.34449-0.21484 0-0.40375 0.13335-0.55933 0.30375h-0.01111l-0.02593-0.2593h-0.25188z"/>
       <path d="m49.613 213.86-0.05927 0.24077c0.05927 0.0222 0.12965 0.037 0.21114 0.037 0.36301 0 0.54822-0.2704 0.67416-0.626l0.67786-1.9484h-0.29633l-0.32226 0.99642c-0.04816 0.15928-0.10001 0.34449-0.15187 0.50748h-0.01482c-0.05556-0.16669-0.11853-0.3519-0.1741-0.50748l-0.36671-0.99642h-0.31485l0.72231 1.8039-0.04075 0.13335c-0.07408 0.22225-0.20373 0.38524-0.40746 0.38524-0.04445 0-0.10001-0.0148-0.13705-0.0259z"/>
       <path d="m52.209 213c0 0.263 0.0926 0.40746 0.32226 0.40746 0.08149 0 0.13335-0.0111 0.1741-0.0296l-0.04075-0.22966c-0.03334 7e-3 -0.04815 7e-3 -0.06667 7e-3 -0.04445 0-0.0852-0.037-0.0852-0.13335v-2.2966h-0.30374z"/>
       <path d="m53.024 212.47c0 0.59637 0.39264 0.94086 0.83344 0.94086s0.83344-0.34449 0.83344-0.94086c0-0.60378-0.39264-0.94827-0.83344-0.94827s-0.83344 0.34449-0.83344 0.94827zm0.31485 0c0-0.41487 0.21114-0.69638 0.51858-0.69638 0.31115 0 0.51858 0.28151 0.51858 0.69638 0 0.41116-0.20743 0.68898-0.51858 0.68898-0.30745 0-0.51858-0.27782-0.51858-0.68898z"/>
       <path d="m54.968 213.16c0.17039 0.14076 0.41487 0.24818 0.67045 0.24818 0.42598 0 0.65934-0.24448 0.65934-0.53711 0-0.34078-0.28892-0.4482-0.54822-0.54451-0.20373-0.0778-0.40005-0.14446-0.40005-0.31115 0-0.13705 0.10372-0.25929 0.32967-0.25929 0.15928 0 0.28892 0.0667 0.41116 0.15928l0.14446-0.19262c-0.13705-0.11112-0.33338-0.20373-0.55933-0.20373-0.38894 0-0.6186 0.22225-0.6186 0.51118 0 0.30374 0.28152 0.42598 0.5371 0.51858 0.19632 0.0741 0.41116 0.15558 0.41116 0.34079 0 0.15557-0.11853 0.28151-0.3556 0.28151-0.21484 0-0.37412-0.0889-0.5297-0.21484z"/>
       <path d="m56.776 212.81c0 0.3556 0.12965 0.60008 0.51488 0.60008 0.11112 0 0.23336-0.0333 0.33338-0.0667l-0.05927-0.22965c-0.05927 0.0222-0.14076 0.0482-0.20373 0.0482-0.20743 0-0.27781-0.12594-0.27781-0.34819v-1.0001h0.48525v-0.24818h-0.48525v-0.50376h-0.25559l-0.03704 0.50376-0.28152 0.0185v0.22966h0.2667z"/>
       <path d="m58.17 212.63h0.2667c-0.05927-0.51858 0.5371-0.7149 0.5371-1.2002 0-0.36671-0.25188-0.59266-0.63341-0.59266-0.263 0-0.46672 0.12964-0.6223 0.30744l0.1741 0.15928c0.11483-0.13335 0.263-0.21484 0.42598-0.21484 0.23707 0 0.3593 0.16298 0.3593 0.3593 0 0.39265-0.58896 0.60378-0.50747 1.1816zm-0.07779 0.54822c0 0.13335 0.09631 0.22966 0.21855 0.22966 0.12224 0 0.22225-0.0963 0.22225-0.22966 0-0.14076-0.10001-0.23707-0.22225-0.23707-0.12224 0-0.21855 0.0963-0.21855 0.23707z"/>
      </g>
      <path d="m29.391 241.01v12.435" fill="#7893ea" stroke="#47d58a" stroke-linecap="square"/>
      <path d="m23.862 231.95-4.3412 4.4661 4.3412 4.4661h11.328l4.3412-4.4661-4.3412-4.4661z" fill="#1d232d" fill-rule="evenodd" stroke="#535e70"/>
      <g fill="#e8eaec" stroke-linecap="round" aria-label="Wait 10 s">
       <path d="m23.172 237.44h0.36671l0.36301-1.4631c0.04075-0.18892 0.08149-0.36301 0.12224-0.55193h0.01482c0.03334 0.18892 0.07408 0.36301 0.11483 0.55193l0.36671 1.4631h0.37412l0.50377-2.4299h-0.30004l-0.25559 1.3224c-0.04445 0.25929-0.0889 0.52228-0.13705 0.78528h-0.01482c-0.05927-0.263-0.11853-0.5297-0.1741-0.78528l-0.33708-1.3224h-0.28152l-0.33708 1.3224c-0.05927 0.25929-0.11853 0.52228-0.17039 0.78528h-0.01482c-0.04815-0.263-0.09631-0.52229-0.14446-0.78528l-0.25559-1.3224h-0.31856z"/>
       <path d="m25.634 236.98c0 0.32226 0.22596 0.51117 0.5297 0.51117 0.22225 0 0.42228-0.11853 0.59637-0.25929h0.0074l0.02593 0.21484h0.25188v-1.1038c0-0.4482-0.18521-0.74083-0.626-0.74083-0.28892 0-0.54081 0.12594-0.7075 0.23336l0.12224 0.21114c0.14076-0.0963 0.32597-0.19262 0.5371-0.19262 0.29263 0 0.37042 0.22225 0.37042 0.45191-0.76676 0.0852-1.1075 0.28151-1.1075 0.67416zm0.30004-0.0222c0-0.22966 0.20373-0.37782 0.80751-0.45191v0.50007c-0.1741 0.15557-0.31856 0.24077-0.49265 0.24077-0.1778 0-0.31485-0.0852-0.31485-0.28893z"/>
       <path d="m27.774 235.27c0.11853 0 0.21114-0.0815 0.21114-0.19632 0-0.11853-0.0926-0.19632-0.21114-0.19632-0.11853 0-0.21114 0.0778-0.21114 0.19632 0 0.11483 0.0926 0.19632 0.21114 0.19632zm-0.15558 2.1706h0.30374v-1.8002h-0.30374z"/>
       <path d="m28.582 236.89c0 0.3556 0.12964 0.60007 0.51488 0.60007 0.11112 0 0.23336-0.0333 0.33338-0.0667l-0.05927-0.22966c-0.05927 0.0222-0.14076 0.0482-0.20373 0.0482-0.20743 0-0.27781-0.12594-0.27781-0.34819v-1.0001h0.48525v-0.24818h-0.48525v-0.50377h-0.25559l-0.03704 0.50377-0.28152 0.0185v0.22966h0.2667z"/>
       <path d="m30.515 237.44h1.3335v-0.25188h-0.48895v-2.1114h-0.23336c-0.12965 0.0778-0.28522 0.13706-0.50006 0.1741v0.19632h0.42968v1.741h-0.54081z"/>
       <path d="m32.983 237.49c0.47043 0 0.75565-0.44079 0.75565-1.2335 0-0.79269-0.28522-1.2187-0.75565-1.2187-0.47413 0-0.75936 0.42598-0.75936 1.2187 0 0.7927 0.28522 1.2335 0.75936 1.2335zm0-0.24447c-0.27781 0-0.46302-0.29634-0.46302-0.98902s0.18521-0.97419 0.46302-0.97419c0.27411 0 0.45932 0.28151 0.45932 0.97419s-0.18521 0.98902-0.45932 0.98902z"/>
       <path d="m34.747 237.24c0.17039 0.14076 0.41487 0.24818 0.67046 0.24818 0.42598 0 0.65934-0.24447 0.65934-0.5371 0-0.34079-0.28892-0.44821-0.54822-0.54452-0.20373-0.0778-0.40005-0.14446-0.40005-0.31115 0-0.13705 0.10372-0.25929 0.32967-0.25929 0.15928 0 0.28892 0.0667 0.41116 0.15928l0.14446-0.19261c-0.13705-0.11113-0.33338-0.20373-0.55933-0.20373-0.38894 0-0.6186 0.22225-0.6186 0.51117 0 0.30374 0.28152 0.42598 0.5371 0.51858 0.19632 0.0741 0.41116 0.15558 0.41116 0.34079 0 0.15557-0.11853 0.28151-0.3556 0.28151-0.21484 0-0.37412-0.0889-0.5297-0.21484z"/>
      </g>
      <path d="m29.655 219.85v11.906" fill="#7893ea" stroke="#47d58a" stroke-linecap="square"/>
      <rect x="69.608" y="231.73" width="17.774" height="8.8871" fill="#1d232d" stroke="#6f8ce9"/>
      <g fill="#e8eaec" stroke-linecap="round" aria-label="On line?">
       <path d="m91.143 213.41c0.60748 0 1.0372-0.48895 1.0372-1.2705 0-0.77417-0.42968-1.2483-1.0372-1.2483-0.61119 0-1.0409 0.47042-1.0409 1.2483 0 0.78158 0.42968 1.2705 1.0409 1.2705zm0-0.27041c-0.43709 0-0.72231-0.39264-0.72231-1.0001 0-0.60378 0.28522-0.9779 0.72231-0.9779 0.43339 0 0.71861 0.37412 0.71861 0.9779 0 0.60748-0.28522 1.0001-0.71861 1.0001z"/>
       <path d="m92.662 213.37h0.30374v-1.3039c0.1815-0.1815 0.30744-0.27781 0.49265-0.27781 0.23707 0 0.34078 0.14446 0.34078 0.48154v1.1001h0.30374v-1.1409c0-0.45932-0.17039-0.7038-0.54822-0.7038-0.24818 0-0.43339 0.13335-0.60378 0.30375h-0.01111l-0.02593-0.2593h-0.25188z"/>
       <path d="m95.433 213c0 0.263 0.0926 0.40746 0.32226 0.40746 0.08149 0 0.13335-0.0111 0.1741-0.0296l-0.04075-0.22966c-0.03334 7e-3 -0.04816 7e-3 -0.06668 7e-3 -0.04445 0-0.0852-0.037-0.0852-0.13335v-2.2966h-0.30374z"/>
       <path d="m96.536 211.19c0.11853 0 0.21114-0.0815 0.21114-0.19632 0-0.11854-0.0926-0.19632-0.21114-0.19632-0.11853 0-0.21114 0.0778-0.21114 0.19632 0 0.11483 0.09261 0.19632 0.21114 0.19632zm-0.15558 2.1706h0.30374v-1.8002h-0.30374z"/>
       <path d="m97.292 213.37h0.30374v-1.3039c0.1815-0.1815 0.30744-0.27781 0.49265-0.27781 0.23707 0 0.34078 0.14446 0.34078 0.48154v1.1001h0.30374v-1.1409c0-0.45932-0.17039-0.7038-0.54822-0.7038-0.24818 0-0.43339 0.13335-0.60378 0.30375h-0.01111l-0.02593-0.2593h-0.25188z"/>
       <path d="m99.185 212.47c0 0.58896 0.38153 0.94086 0.86307 0.94086 0.24448 0 0.4371-0.0852 0.59267-0.18521l-0.10742-0.20002c-0.13335 0.0852-0.27781 0.14075-0.4482 0.14075-0.34449 0-0.57786-0.24447-0.60008-0.63341h1.215c7e-3 -0.0444 0.0111-0.10372 0.0111-0.16669 0-0.51488-0.25929-0.84455-0.71861-0.84455-0.41116 0-0.80751 0.35931-0.80751 0.94827zm0.29633-0.13705c0.03704-0.36301 0.2667-0.57045 0.51858-0.57045 0.28152 0 0.4445 0.20373 0.4445 0.57045z"/>
       <path d="m101.42 212.63h0.2667c-0.0593-0.51858 0.5371-0.7149 0.5371-1.2002 0-0.36671-0.25188-0.59266-0.63341-0.59266-0.263 0-0.46673 0.12964-0.6223 0.30744l0.17409 0.15928c0.11483-0.13335 0.263-0.21484 0.42598-0.21484 0.23707 0 0.35931 0.16298 0.35931 0.3593 0 0.39265-0.58896 0.60378-0.50747 1.1816zm-0.0778 0.54822c0 0.13335 0.0963 0.22966 0.21855 0.22966 0.12223 0 0.22225-0.0963 0.22225-0.22966 0-0.14076-0.10002-0.23707-0.22225-0.23707-0.12224 0-0.21855 0.0963-0.21855 0.23707z"/>
      </g>
      <g fill="#e8eaec" stroke-linecap="round" aria-label="Patrol">
       <path d="m74.006 237.44h0.31115v-0.96308h0.43709c0.5297 0 0.89641-0.24077 0.89641-0.75195 0-0.5334-0.3593-0.7149-0.89641-0.7149h-0.74824zm0.31115-1.215v-0.96678h0.39635c0.41857 0 0.62971 0.11483 0.62971 0.46672 0 0.34449-0.20373 0.50006-0.62971 0.50006z"/>
       <path d="m75.851 236.98c0 0.32226 0.22595 0.51117 0.5297 0.51117 0.22225 0 0.42228-0.11853 0.59637-0.25929h0.0074l0.02593 0.21484h0.25188v-1.1038c0-0.4482-0.18521-0.74083-0.626-0.74083-0.28892 0-0.54081 0.12594-0.7075 0.23336l0.12224 0.21114c0.14076-0.0963 0.32597-0.19262 0.5371-0.19262 0.29263 0 0.37042 0.22225 0.37042 0.45191-0.76676 0.0852-1.1075 0.28151-1.1075 0.67416zm0.30004-0.0222c0-0.22966 0.20373-0.37782 0.80751-0.45191v0.50007c-0.1741 0.15557-0.31856 0.24077-0.49266 0.24077-0.1778 0-0.31485-0.0852-0.31485-0.28893z"/>
       <path d="m77.888 236.89c0 0.3556 0.12964 0.60007 0.51488 0.60007 0.11112 0 0.23336-0.0333 0.33338-0.0667l-0.05927-0.22966c-0.05927 0.0222-0.14076 0.0482-0.20373 0.0482-0.20743 0-0.27781-0.12594-0.27781-0.34819v-1.0001h0.48525v-0.24818h-0.48525v-0.50377h-0.25559l-0.03704 0.50377-0.28152 0.0185v0.22966h0.2667z"/>
       <path d="m79.087 237.44h0.30374v-1.1557c0.12224-0.30374 0.30374-0.41487 0.45561-0.41487 0.07408 0 0.11483 0.0111 0.1741 0.0296l0.05927-0.2667c-0.05927-0.0259-0.11483-0.037-0.19262-0.037-0.20373 0-0.38894 0.14446-0.51118 0.37041h-0.01111l-0.02593-0.32596h-0.25188z"/>
       <path d="m80.206 236.55c0 0.59637 0.39264 0.94086 0.83344 0.94086s0.83344-0.34449 0.83344-0.94086c0-0.60378-0.39264-0.94826-0.83344-0.94826s-0.83344 0.34448-0.83344 0.94826zm0.31485 0c0-0.41486 0.21114-0.69638 0.51858-0.69638 0.31115 0 0.51858 0.28152 0.51858 0.69638 0 0.41117-0.20743 0.68898-0.51858 0.68898-0.30745 0-0.51858-0.27781-0.51858-0.68898z"/>
       <path d="m82.35 237.08c0 0.263 0.0926 0.40746 0.32226 0.40746 0.08149 0 0.13335-0.0111 0.1741-0.0296l-0.04075-0.22966c-0.03334 7e-3 -0.04815 7e-3 -0.06668 7e-3 -0.04445 0-0.0852-0.037-0.0852-0.13335v-2.2966h-0.30374z"/>
      </g>
      <path d="m78.603 219.85v11.906" fill="#7893ea" stroke="#47d58a" stroke-linecap="square"/>
     </g>
     <ellipse transform="matrix(-.42777 -.90389 .98869 -.14999 0 0)" cx="-240.97" cy="-125.06" rx="5.4639" ry="8.8227" fill="#1d232d" stroke="#535e70" stroke-width=".27035"/>
     <path d="m-25.65 236.49 9.4482 0.11289" fill="#e9e56f" fill-rule="evenodd" stroke="#e8eaec" stroke-width=".26458"/>
    </g>
   </g>
   <g transform="matrix(.0042365 0 0 .0043091 -16.758 235.41)" fill="#e8eaec" stroke-width="123.85">
    <g fill="#e8eaec" stroke-width="123.85">
     <path d="m486.41 221.41-364.07-208.5c-52.938-30.318-95.852-5.44-95.852 55.563v415.65c0 61.004 42.914 85.882 95.852 55.563l364.07-208.49c52.938-30.317 52.938-79.473 0-109.79z" fill="#e8eaec" stroke-width="123.85"/>
    </g>
   </g>
   <g stroke-width=".26458">
    <rect x="-17.176" y="253.69" width="17.774" height="8.8871" fill="#1d232d" stroke="#6f8ce9"/>
    <g fill="#e8eaec" stroke-linecap="round" aria-label="Chase">
     <path d="m-12.966 258.19c0 0.79269 0.45561 1.2594 1.0668 1.2594 0.30745 0 0.54822-0.12965 0.73713-0.3519l-0.1741-0.18891c-0.15558 0.17409-0.32597 0.2704-0.55562 0.2704-0.46302 0-0.75565-0.38523-0.75565-0.99642 0-0.60378 0.30745-0.9816 0.77047-0.9816 0.20002 0 0.3556 0.0889 0.48525 0.22595l0.1741-0.19632c-0.14446-0.15928-0.37412-0.30004-0.66305-0.30004-0.6223 0-1.0853 0.47784-1.0853 1.2594z"/>
     <path d="m-10.745 259.4h0.30374v-1.3039c0.1815-0.18151 0.30745-0.27781 0.49265-0.27781 0.23707 0 0.34078 0.14446 0.34078 0.48154v1.1001h0.30374v-1.1409c0-0.45931-0.17039-0.70379-0.54822-0.70379-0.24818 0-0.42968 0.13335-0.60008 0.29633l0.01111-0.37041v-0.71861h-0.30374z"/>
     <path d="m-8.8157 258.94c0 0.32226 0.22595 0.51118 0.5297 0.51118 0.22225 0 0.42228-0.11854 0.59637-0.2593h0.00741l0.025929 0.21485h0.25188v-1.1038c0-0.4482-0.18521-0.74083-0.626-0.74083-0.28892 0-0.54081 0.12594-0.7075 0.23336l0.12224 0.21114c0.14076-0.0963 0.32597-0.19262 0.5371-0.19262 0.29263 0 0.37042 0.22225 0.37042 0.45191-0.76676 0.0852-1.1075 0.28152-1.1075 0.67416zm0.30004-0.0222c0-0.22966 0.20373-0.37783 0.80751-0.45191v0.50006c-0.1741 0.15557-0.31856 0.24077-0.49265 0.24077-0.1778 0-0.31485-0.0852-0.31485-0.28892z"/>
     <path d="m-7.0314 259.2c0.17039 0.14075 0.41487 0.24818 0.67045 0.24818 0.42598 0 0.65934-0.24448 0.65934-0.53711 0-0.34078-0.28892-0.4482-0.54822-0.54451-0.20373-0.0778-0.40005-0.14446-0.40005-0.31115 0-0.13706 0.10372-0.25929 0.32967-0.25929 0.15928 0 0.28892 0.0667 0.41116 0.15928l0.14446-0.19262c-0.13705-0.11113-0.33338-0.20373-0.55933-0.20373-0.38894 0-0.6186 0.22225-0.6186 0.51118 0 0.30374 0.28152 0.42597 0.5371 0.51858 0.19632 0.0741 0.41116 0.15557 0.41116 0.34078 0 0.15558-0.11853 0.28152-0.3556 0.28152-0.21484 0-0.37412-0.0889-0.5297-0.21484z"/>
     <path d="m-5.4092 258.51c0 0.58896 0.38153 0.94086 0.86307 0.94086 0.24448 0 0.43709-0.0852 0.59267-0.18521l-0.10742-0.20003c-0.13335 0.0852-0.27781 0.14076-0.4482 0.14076-0.34449 0-0.57785-0.24447-0.60008-0.63341h1.215c0.00741-0.0444 0.011112-0.10372 0.011112-0.16669 0-0.51488-0.25929-0.84455-0.71861-0.84455-0.41116 0-0.80751 0.3593-0.80751 0.94827zm0.29633-0.13706c0.037042-0.36301 0.2667-0.57044 0.51858-0.57044 0.28152 0 0.4445 0.20373 0.4445 0.57044z"/>
    </g>
    <rect x="-41.782" y="253.69" width="17.774" height="8.8871" fill="#1d232d" stroke="#6f8ce9"/>
    <g fill="#e8eaec" stroke-linecap="round" aria-label="Melee Attack">
     <path d="m-37.297 257.02h0.28522v-1.3372c0-0.21484-0.02222-0.50376-0.03704-0.7186h0.01482l0.19262 0.5408 0.46672 1.2705h0.1778l0.46672-1.2705 0.19262-0.5408h0.01482c-0.01482 0.21484-0.04075 0.50376-0.04075 0.7186v1.3372h0.29263v-2.4299h-0.36301l-0.46672 1.3039-0.17039 0.49636h-0.01482l-0.1741-0.49636-0.47043-1.3039h-0.36671z"/>
     <path d="m-34.772 256.13c0 0.58896 0.38153 0.94086 0.86307 0.94086 0.24448 0 0.43709-0.0852 0.59267-0.18521l-0.10742-0.20002c-0.13335 0.0852-0.27781 0.14075-0.4482 0.14075-0.34449 0-0.57785-0.24447-0.60008-0.63341h1.215c0.0074-0.0444 0.01111-0.10372 0.01111-0.16669 0-0.51488-0.25929-0.84455-0.71861-0.84455-0.41116 0-0.80751 0.35931-0.80751 0.94827zm0.29633-0.13705c0.03704-0.36301 0.2667-0.57045 0.51858-0.57045 0.28152 0 0.4445 0.20373 0.4445 0.57045z"/>
     <path d="m-32.801 256.66c0 0.263 0.0926 0.40746 0.32226 0.40746 0.08149 0 0.13335-0.0111 0.1741-0.0296l-0.04074-0.22966c-0.03334 7e-3 -0.04816 7e-3 -0.06668 7e-3 -0.04445 0-0.0852-0.037-0.0852-0.13335v-2.2966h-0.30374z"/>
     <path d="m-31.987 256.13c0 0.58896 0.38153 0.94086 0.86307 0.94086 0.24448 0 0.43709-0.0852 0.59267-0.18521l-0.10742-0.20002c-0.13335 0.0852-0.27781 0.14075-0.4482 0.14075-0.34449 0-0.57785-0.24447-0.60008-0.63341h1.215c0.0074-0.0444 0.01111-0.10372 0.01111-0.16669 0-0.51488-0.25929-0.84455-0.71861-0.84455-0.41116 0-0.80751 0.35931-0.80751 0.94827zm0.29633-0.13705c0.03704-0.36301 0.2667-0.57045 0.51858-0.57045 0.28152 0 0.4445 0.20373 0.4445 0.57045z"/>
     <path d="m-30.149 256.13c0 0.58896 0.38153 0.94086 0.86307 0.94086 0.24448 0 0.43709-0.0852 0.59267-0.18521l-0.10742-0.20002c-0.13335 0.0852-0.27781 0.14075-0.4482 0.14075-0.34449 0-0.57785-0.24447-0.60008-0.63341h1.215c0.0074-0.0444 0.01111-0.10372 0.01111-0.16669 0-0.51488-0.25929-0.84455-0.71861-0.84455-0.41116 0-0.80751 0.35931-0.80751 0.94827zm0.29633-0.13705c0.03704-0.36301 0.2667-0.57045 0.51858-0.57045 0.28152 0 0.4445 0.20373 0.4445 0.57045z"/>
     <path d="m-37.319 260.8 0.11853-0.37041c0.0852-0.27041 0.16298-0.53711 0.24077-0.81862h0.01482c0.07779 0.28151 0.15558 0.54821 0.24077 0.81862l0.11483 0.37041zm1.0409 0.98902h0.32597l-0.82232-2.4299h-0.34819l-0.82232 2.4299h0.31485l0.23336-0.74084h0.8853z"/>
     <path d="m-35.651 261.23c0 0.3556 0.12965 0.60008 0.51488 0.60008 0.11112 0 0.23336-0.0333 0.33338-0.0667l-0.05927-0.22966c-0.05927 0.0222-0.14076 0.0482-0.20373 0.0482-0.20743 0-0.27781-0.12595-0.27781-0.3482v-1.0001h0.48524v-0.24818h-0.48524v-0.50377h-0.25559l-0.03704 0.50377-0.28152 0.0185v0.22966h0.2667z"/>
     <path d="m-34.399 261.23c0 0.3556 0.12965 0.60008 0.51488 0.60008 0.11112 0 0.23336-0.0333 0.33338-0.0667l-0.05927-0.22966c-0.05927 0.0222-0.14076 0.0482-0.20373 0.0482-0.20743 0-0.27781-0.12595-0.27781-0.3482v-1.0001h0.48525v-0.24818h-0.48525v-0.50377h-0.25559l-0.03704 0.50377-0.28152 0.0185v0.22966h0.2667z"/>
     <path d="m-33.353 261.32c0 0.32226 0.22595 0.51118 0.5297 0.51118 0.22225 0 0.42228-0.11854 0.59637-0.2593h0.0074l0.02593 0.21485h0.25188v-1.1038c0-0.4482-0.18521-0.74083-0.626-0.74083-0.28892 0-0.54081 0.12594-0.7075 0.23336l0.12224 0.21114c0.14076-0.0963 0.32597-0.19262 0.5371-0.19262 0.29263 0 0.37042 0.22225 0.37042 0.45191-0.76676 0.0852-1.1075 0.28152-1.1075 0.67416zm0.30004-0.0222c0-0.22966 0.20373-0.37783 0.80751-0.45191v0.50006c-0.1741 0.15557-0.31856 0.24077-0.49265 0.24077-0.1778 0-0.31485-0.0852-0.31485-0.28892z"/>
     <path d="m-31.502 260.89c0 0.59637 0.36671 0.94086 0.84455 0.94086 0.21484 0 0.42228-0.0889 0.58526-0.23337l-0.13705-0.20002c-0.10742 0.0963-0.25188 0.1815-0.42228 0.1815-0.32967 0-0.55562-0.27781-0.55562-0.68897 0-0.41487 0.23707-0.69639 0.56303-0.69639 0.14446 0 0.25559 0.0667 0.36301 0.15928l0.15187-0.19632c-0.12224-0.11483-0.28892-0.21484-0.52599-0.21484-0.46302 0-0.86678 0.34449-0.86678 0.94827z"/>
     <path d="m-29.683 261.79h0.30004v-0.47414l0.33708-0.39264 0.52599 0.86678h0.33338l-0.68527-1.0779 0.60378-0.72231h-0.33708l-0.76676 0.94827h-0.01111v-1.7854h-0.30004z"/>
    </g>
    <path d="m-24.584 245.38h7.9375" fill="#1d232d" stroke="#47d58a" stroke-linecap="round"/>
   </g>
  </g>
  <g fill="#47d58a">
   <circle cx="-22.467" cy="245.91" r=".52917"/>
   <circle cx="-20.615" cy="244.85" r=".52917"/>
   <circle cx="-18.763" cy="245.91" r=".52917"/>
  </g>
  <g stroke="#47d58a" stroke-linecap="square">
   <path d="m-20.615 241.81v3.175" fill="#7893ea" stroke-width=".26458"/>
   <path d="m-18.763 246.04v3.9688h10.451v3.4396" fill="none" stroke-width=".26458"/>
   <ellipse transform="rotate(-90)" cx="-250.01" cy="-8.3122" rx=".66146" ry=".66146" fill="#1d232d" stroke-dashoffset="1.2" stroke-miterlimit="40" stroke-width=".26458"/>
   <path d="m-22.467 246.04v3.9688h-10.451v3.4396" fill="none" stroke-width=".26458"/>
   <ellipse transform="matrix(0,-1,-1,0,0,0)" cx="-250.01" cy="32.919" rx=".66146" ry=".66146" fill="#1d232d" stroke-dashoffset="1.2" stroke-miterlimit="40" stroke-width=".26458"/>
  </g>
  <rect x="20.395" y="253.43" width="17.774" height="8.8871" fill="#1d232d" stroke="#6f8ce9" stroke-width=".26458"/>
  <g fill="#e8eaec" stroke-linecap="round" stroke-width=".26458">
   <g aria-label="Go to line">
    <path d="m21.95 257.92c0 0.79269 0.45561 1.2594 1.0927 1.2594 0.32597 0 0.59637-0.12594 0.75565-0.28152v-1.0224h-0.7964v0.25559h0.51488v0.63341c-0.09631 0.0889-0.2667 0.14446-0.4408 0.14446-0.51858 0-0.80751-0.38523-0.80751-0.99642 0-0.60378 0.31485-0.9816 0.80751-0.9816 0.24077 0 0.39264 0.0963 0.51488 0.22595l0.1778-0.19632c-0.14446-0.14816-0.36671-0.30004-0.69638-0.30004-0.65193 0-1.1224 0.47784-1.1224 1.2594z"/>
    <path d="m24.203 258.24c0 0.59637 0.39264 0.94086 0.83344 0.94086s0.83344-0.34449 0.83344-0.94086c0-0.60378-0.39264-0.94827-0.83344-0.94827s-0.83344 0.34449-0.83344 0.94827zm0.31485 0c0-0.41487 0.21114-0.69638 0.51858-0.69638 0.31115 0 0.51858 0.28151 0.51858 0.69638 0 0.41116-0.20743 0.68897-0.51858 0.68897-0.30745 0-0.51858-0.27781-0.51858-0.68897z"/>
    <path d="m27.145 258.58c0 0.3556 0.12965 0.60008 0.51488 0.60008 0.11112 0 0.23336-0.0333 0.33338-0.0667l-0.05927-0.22966c-0.05927 0.0222-0.14076 0.0482-0.20373 0.0482-0.20743 0-0.27781-0.12594-0.27781-0.34819v-1.0001h0.48525v-0.24818h-0.48525v-0.50376h-0.25559l-0.03704 0.50376-0.28152 0.0185v0.22966h0.2667z"/>
    <path d="m28.175 258.24c0 0.59637 0.39264 0.94086 0.83344 0.94086 0.4408 0 0.83344-0.34449 0.83344-0.94086 0-0.60378-0.39264-0.94827-0.83344-0.94827-0.4408 0-0.83344 0.34449-0.83344 0.94827zm0.31485 0c0-0.41487 0.21114-0.69638 0.51858-0.69638 0.31115 0 0.51858 0.28151 0.51858 0.69638 0 0.41116-0.20743 0.68897-0.51858 0.68897-0.30744 0-0.51858-0.27781-0.51858-0.68897z"/>
    <path d="m31.065 258.78c0 0.263 0.0926 0.40746 0.32226 0.40746 0.08149 0 0.13335-0.0111 0.1741-0.0296l-0.04074-0.22965c-0.03334 7e-3 -0.04816 7e-3 -0.06668 7e-3 -0.04445 0-0.0852-0.037-0.0852-0.13335v-2.2966h-0.30374z"/>
    <path d="m32.168 256.97c0.11853 0 0.21114-0.0815 0.21114-0.19632 0-0.11854-0.0926-0.19633-0.21114-0.19633-0.11853 0-0.21114 0.0778-0.21114 0.19633 0 0.11482 0.0926 0.19632 0.21114 0.19632zm-0.15558 2.1706h0.30374v-1.8002h-0.30374z"/>
    <path d="m32.924 259.14h0.30374v-1.3039c0.1815-0.1815 0.30745-0.27781 0.49266-0.27781 0.23707 0 0.34078 0.14446 0.34078 0.48154v1.1001h0.30374v-1.1409c0-0.45931-0.17039-0.70379-0.54822-0.70379-0.24818 0-0.43339 0.13335-0.60378 0.30374h-0.01111l-0.02593-0.25929h-0.25188z"/>
    <path d="m34.817 258.24c0 0.58896 0.38153 0.94086 0.86307 0.94086 0.24448 0 0.43709-0.0852 0.59267-0.18521l-0.10742-0.20003c-0.13335 0.0852-0.27781 0.14076-0.4482 0.14076-0.34449 0-0.57785-0.24447-0.60008-0.63341h1.215c0.0074-0.0444 0.01111-0.10372 0.01111-0.16669 0-0.51488-0.25929-0.84455-0.71861-0.84455-0.41116 0-0.80751 0.35931-0.80751 0.94827zm0.29633-0.13705c0.03704-0.36301 0.2667-0.57045 0.51858-0.57045 0.28152 0 0.4445 0.20373 0.4445 0.57045z"/>
   </g>
   <g aria-label="YES">
    <path d="m-66.008 226.07h0.30745v-0.94086l0.72972-1.4891h-0.31856l-0.31485 0.68527c-0.07408 0.1778-0.15928 0.34819-0.24077 0.5297h-0.01482c-0.0852-0.18151-0.15928-0.3519-0.23707-0.5297l-0.31115-0.68527h-0.33338l0.73342 1.4891z"/>
    <path d="m-64.661 226.07h1.4372v-0.263h-1.1261v-0.88159h0.91863v-0.263h-0.91863v-0.76306h1.089v-0.25929h-1.4002z"/>
    <path d="m-62.903 225.75c0.21114 0.21855 0.50747 0.35931 0.84826 0.35931 0.51118 0 0.82973-0.30745 0.82973-0.69268 0-0.35931-0.21855-0.526-0.50006-0.64823l-0.34819-0.14817c-0.18891-0.0815-0.40375-0.17039-0.40375-0.40375 0-0.21855 0.1815-0.3556 0.45561-0.3556 0.22225 0 0.40375 0.0889 0.55192 0.22965l0.16298-0.20002c-0.17039-0.1778-0.42598-0.30004-0.7149-0.30004-0.4408 0-0.76676 0.27411-0.76676 0.64453 0 0.3556 0.2667 0.52969 0.49265 0.626l0.34819 0.15187c0.22966 0.10372 0.40746 0.18151 0.40746 0.42969 0 0.23706-0.18891 0.39634-0.50747 0.39634-0.25559 0-0.49636-0.12224-0.67045-0.30374z"/>
   </g>
   <g aria-label="YES">
    <path d="m-15.737 226.07h0.30745v-0.94086l0.72972-1.4891h-0.31856l-0.31485 0.68527c-0.07408 0.1778-0.15928 0.34819-0.24077 0.5297h-0.01482c-0.0852-0.18151-0.15928-0.3519-0.23707-0.5297l-0.31115-0.68527h-0.33338l0.73342 1.4891z"/>
    <path d="m-14.39 226.07h1.4372v-0.263h-1.1261v-0.88159h0.91863v-0.263h-0.91863v-0.76306h1.089v-0.25929h-1.4002z"/>
    <path d="m-12.633 225.75c0.21114 0.21855 0.50747 0.35931 0.84825 0.35931 0.51118 0 0.82973-0.30745 0.82973-0.69268 0-0.35931-0.21855-0.526-0.50006-0.64823l-0.34819-0.14817c-0.18891-0.0815-0.40376-0.17039-0.40376-0.40375 0-0.21855 0.1815-0.3556 0.45561-0.3556 0.22225 0 0.40375 0.0889 0.55192 0.22965l0.16298-0.20002c-0.17039-0.1778-0.42598-0.30004-0.7149-0.30004-0.4408 0-0.76676 0.27411-0.76676 0.64453 0 0.3556 0.2667 0.52969 0.49266 0.626l0.34819 0.15187c0.22966 0.10372 0.40746 0.18151 0.40746 0.42969 0 0.23706-0.18891 0.39634-0.50747 0.39634-0.25559 0-0.49636-0.12224-0.67045-0.30374z"/>
   </g>
   <g aria-label="YES">
    <path d="m-31.612 248.82h0.30745v-0.94086l0.72972-1.4891h-0.31856l-0.31485 0.68527c-0.07408 0.1778-0.15928 0.3482-0.24077 0.5297h-0.01482c-0.0852-0.1815-0.15928-0.3519-0.23707-0.5297l-0.31115-0.68527h-0.33338l0.73342 1.4891z"/>
    <path d="m-30.265 248.82h1.4372v-0.263h-1.1261v-0.88159h0.91863v-0.263h-0.91863v-0.76306h1.089v-0.25929h-1.4002z"/>
    <path d="m-28.508 248.5c0.21114 0.21855 0.50747 0.35931 0.84825 0.35931 0.51118 0 0.82973-0.30745 0.82973-0.69268 0-0.35931-0.21855-0.52599-0.50006-0.64823l-0.34819-0.14817c-0.18891-0.0815-0.40376-0.17039-0.40376-0.40375 0-0.21855 0.1815-0.3556 0.45561-0.3556 0.22225 0 0.40375 0.0889 0.55192 0.22966l0.16298-0.20003c-0.17039-0.1778-0.42598-0.30004-0.7149-0.30004-0.4408 0-0.76676 0.27411-0.76676 0.64453 0 0.3556 0.2667 0.52969 0.49266 0.626l0.34819 0.15187c0.22966 0.10372 0.40746 0.18151 0.40746 0.42969 0 0.23706-0.18891 0.39634-0.50747 0.39634-0.25559 0-0.49636-0.12224-0.67045-0.30374z"/>
   </g>
   <g aria-label="NO">
    <path d="m-15.46 248.82h0.29263v-1.2705c0-0.25559-0.02222-0.51488-0.03704-0.75936h0.01482l0.263 0.50007 0.87789 1.5298h0.31856v-2.4299h-0.29263v1.2557c0 0.25558 0.02593 0.52969 0.04075 0.77417h-0.01482l-0.263-0.50377-0.88159-1.5261h-0.31856z"/>
    <path d="m-12.18 248.86c0.60748 0 1.0372-0.48895 1.0372-1.2705 0-0.77417-0.42968-1.2483-1.0372-1.2483-0.61119 0-1.0409 0.47043-1.0409 1.2483 0 0.78158 0.42968 1.2705 1.0409 1.2705zm0-0.27041c-0.43709 0-0.72231-0.39264-0.72231-1.0001 0-0.60378 0.28522-0.9779 0.72231-0.9779 0.43339 0 0.71861 0.37412 0.71861 0.9779 0 0.60748-0.28522 1.0001-0.71861 1.0001z"/>
   </g>
   <g aria-label="Enemy close enough?">
    <path d="m-11.097 234.27h1.4372v-0.26299h-1.1261v-0.88159h0.91863v-0.263h-0.91863v-0.76306h1.089v-0.25929h-1.4002z"/>
    <path d="m-9.1837 234.27h0.30374v-1.3039c0.1815-0.18151 0.30745-0.27782 0.49265-0.27782 0.23707 0 0.34078 0.14447 0.34078 0.48155v1.1001h0.30374v-1.1409c0-0.45932-0.17039-0.70379-0.54822-0.70379-0.24818 0-0.43339 0.13335-0.60378 0.30374h-0.011112l-0.025929-0.25929h-0.25188z"/>
    <path d="m-7.2913 233.37c0 0.58897 0.38153 0.94086 0.86307 0.94086 0.24448 0 0.43709-0.0852 0.59267-0.18521l-0.10742-0.20002c-0.13335 0.0852-0.27781 0.14076-0.4482 0.14076-0.34449 0-0.57785-0.24448-0.60008-0.63341h1.215c0.00741-0.0445 0.011112-0.10372 0.011112-0.16669 0-0.51488-0.25929-0.84455-0.71861-0.84455-0.41116 0-0.80751 0.3593-0.80751 0.94826zm0.29633-0.13705c0.037042-0.36301 0.2667-0.57044 0.51858-0.57044 0.28152 0 0.4445 0.20373 0.4445 0.57044z"/>
    <path d="m-5.3204 234.27h0.30374v-1.3039c0.16669-0.18521 0.31856-0.27782 0.45191-0.27782 0.22966 0 0.33708 0.14447 0.33708 0.48155v1.1001h0.30374v-1.3039c0.16669-0.18521 0.31115-0.27782 0.45191-0.27782 0.22595 0 0.33338 0.14447 0.33338 0.48155v1.1001h0.30374v-1.1409c0-0.45932-0.1778-0.70379-0.54822-0.70379-0.21855 0-0.40375 0.14076-0.59267 0.34449-0.074083-0.21485-0.22225-0.34449-0.49636-0.34449-0.21484 0-0.40375 0.13335-0.55933 0.30374h-0.011113l-0.025929-0.25929h-0.25188z"/>
    <path d="m-2.3751 234.76-0.059267 0.24077c0.059267 0.0222 0.12965 0.037 0.21114 0.037 0.36301 0 0.54822-0.2704 0.67416-0.626l0.67786-1.9484h-0.29633l-0.32226 0.99642c-0.048154 0.15928-0.10001 0.34449-0.15187 0.50747h-0.014817c-0.055562-0.16669-0.11853-0.3519-0.1741-0.50747l-0.36671-0.99642h-0.31485l0.72231 1.8039-0.040746 0.13335c-0.074083 0.22225-0.20373 0.38523-0.40746 0.38523-0.04445 0-0.10001-0.0148-0.13705-0.0259z"/>
    <path d="m0.088048 233.37c0 0.59638 0.36671 0.94086 0.84455 0.94086 0.21484 0 0.42227-0.0889 0.58526-0.23336l-0.13705-0.20002c-0.10742 0.0963-0.25188 0.1815-0.42228 0.1815-0.32967 0-0.55562-0.27781-0.55562-0.68898 0-0.41486 0.23707-0.69638 0.56303-0.69638 0.14446 0 0.25559 0.0667 0.36301 0.15928l0.15187-0.19632c-0.12224-0.11483-0.28892-0.21484-0.52599-0.21484-0.46302 0-0.86677 0.34449-0.86677 0.94826z"/>
    <path d="m1.9071 233.9c0 0.263 0.092604 0.40746 0.32226 0.40746 0.081492 0 0.13335-0.0111 0.1741-0.0296l-0.040746-0.22966c-0.033338 7e-3 -0.048154 7e-3 -0.066675 7e-3 -0.04445 0-0.085196-0.037-0.085196-0.13335v-2.2962h-0.30374z"/>
    <path d="m2.7215 233.37c0 0.59638 0.39264 0.94086 0.83344 0.94086s0.83344-0.34448 0.83344-0.94086c0-0.60377-0.39264-0.94826-0.83344-0.94826s-0.83344 0.34449-0.83344 0.94826zm0.31485 0c0-0.41486 0.21114-0.69638 0.51858-0.69638 0.31115 0 0.51858 0.28152 0.51858 0.69638 0 0.41117-0.20743 0.68898-0.51858 0.68898-0.30745 0-0.51858-0.27781-0.51858-0.68898z"/>
    <path d="m4.6661 234.06c0.17039 0.14076 0.41487 0.24818 0.67045 0.24818 0.42598 0 0.65934-0.24447 0.65934-0.5371 0-0.34078-0.28892-0.44821-0.54822-0.54451-0.20373-0.0778-0.40005-0.14447-0.40005-0.31115 0-0.13706 0.10372-0.2593 0.32967-0.2593 0.15928 0 0.28892 0.0667 0.41116 0.15928l0.14446-0.19261c-0.13705-0.11113-0.33338-0.20373-0.55933-0.20373-0.38894 0-0.6186 0.22225-0.6186 0.51117 0 0.30374 0.28152 0.42598 0.5371 0.51859 0.19632 0.0741 0.41116 0.15557 0.41116 0.34078 0 0.15557-0.11853 0.28152-0.3556 0.28152-0.21484 0-0.37412-0.0889-0.5297-0.21485z"/>
    <path d="m6.2882 233.37c0 0.58897 0.38153 0.94086 0.86307 0.94086 0.24448 0 0.43709-0.0852 0.59267-0.18521l-0.10742-0.20002c-0.13335 0.0852-0.27781 0.14076-0.4482 0.14076-0.34449 0-0.57785-0.24448-0.60008-0.63341h1.215c0.00741-0.0445 0.011113-0.10372 0.011113-0.16669 0-0.51488-0.25929-0.84455-0.71861-0.84455-0.41116 0-0.80751 0.3593-0.80751 0.94826zm0.29633-0.13705c0.037042-0.36301 0.2667-0.57044 0.51858-0.57044 0.28152 0 0.4445 0.20373 0.4445 0.57044z"/>
    <path d="m-8.2282 238.14c0 0.58896 0.38153 0.94086 0.86307 0.94086 0.24448 0 0.43709-0.0852 0.59267-0.18521l-0.10742-0.20002c-0.13335 0.0852-0.27781 0.14075-0.4482 0.14075-0.34449 0-0.57785-0.24447-0.60008-0.63341h1.215c0.00741-0.0444 0.011112-0.10372 0.011112-0.16669 0-0.51488-0.25929-0.84455-0.71861-0.84455-0.41116 0-0.80751 0.35931-0.80751 0.94827zm0.29633-0.13705c0.037042-0.36301 0.2667-0.57045 0.51858-0.57045 0.28152 0 0.4445 0.20373 0.4445 0.57045z"/>
    <path d="m-6.2573 239.04h0.30374v-1.3039c0.1815-0.1815 0.30745-0.27781 0.49265-0.27781 0.23707 0 0.34078 0.14446 0.34078 0.48154v1.1001h0.30374v-1.1409c0-0.45932-0.17039-0.7038-0.54822-0.7038-0.24818 0-0.43339 0.13335-0.60378 0.30375h-0.011113l-0.025929-0.2593h-0.25188z"/>
    <path d="m-4.3649 238.14c0 0.59637 0.39264 0.94086 0.83344 0.94086s0.83344-0.34449 0.83344-0.94086c0-0.60378-0.39264-0.94827-0.83344-0.94827s-0.83344 0.34449-0.83344 0.94827zm0.31485 0c0-0.41487 0.21114-0.69638 0.51858-0.69638 0.31115 0 0.51858 0.28151 0.51858 0.69638 0 0.41116-0.20743 0.68898-0.51858 0.68898-0.30745 0-0.51858-0.27782-0.51858-0.68898z"/>
    <path d="m-2.2462 238.38c0 0.45931 0.17039 0.70379 0.55192 0.70379 0.24818 0 0.42598-0.12965 0.59267-0.32597h0.011113l0.025929 0.28152h0.25188v-1.8002h-0.30374v1.2779c-0.17039 0.21114-0.30004 0.30374-0.48525 0.30374-0.23707 0-0.33708-0.14446-0.33708-0.48154v-1.1001h-0.30745z"/>
    <path d="m-0.072186 239.34c0-0.10372 0.055562-0.21114 0.18521-0.30374 0.077788 0.0222 0.16298 0.0296 0.23336 0.0296h0.31115c0.23336 0 0.36301 0.0556 0.36301 0.22225 0 0.18891-0.22595 0.36671-0.57044 0.36671-0.32597 0-0.52229-0.12223-0.52229-0.31485zm-0.2667 0.0408c0 0.31115 0.30374 0.48524 0.74454 0.48524 0.55933 0 0.91122-0.28892 0.91122-0.6223 0-0.30004-0.21114-0.42968-0.62971-0.42968h-0.34819c-0.24448 0-0.31856-0.0815-0.31856-0.19632 0-0.10001 0.051858-0.15928 0.11483-0.21484 0.081492 0.0407 0.1815 0.063 0.2704 0.063 0.36671 0 0.65934-0.24077 0.65934-0.62601 0-0.15187-0.062971-0.28892-0.14817-0.37041h0.37042v-0.23337h-0.626c-0.066675-0.0259-0.15558-0.0444-0.25559-0.0444-0.36671 0-0.67786 0.24818-0.67786 0.64082 0 0.21485 0.11483 0.38894 0.23336 0.48525v0.0148c-0.092604 0.063-0.19632 0.1815-0.19632 0.33337 0 0.14076 0.070379 0.23707 0.15928 0.29263v0.0148c-0.16298 0.11112-0.263 0.25559-0.263 0.40746zm0.74454-1.1187c-0.20743 0-0.38153-0.16669-0.38153-0.42969 0-0.26299 0.17039-0.41857 0.38153-0.41857s0.38153 0.15558 0.38153 0.41857c0 0.263-0.1741 0.42969-0.38153 0.42969z"/>
    <path d="m1.6647 239.04h0.30374v-1.3039c0.1815-0.1815 0.30745-0.27781 0.49265-0.27781 0.23707 0 0.34078 0.14446 0.34078 0.48154v1.1001h0.30374v-1.1409c0-0.45932-0.17039-0.7038-0.54822-0.7038-0.24818 0-0.42968 0.13335-0.60008 0.29634l0.011112-0.37042v-0.71861h-0.30374z"/>
    <path d="m3.9504 238.3h0.2667c-0.059267-0.51858 0.5371-0.7149 0.5371-1.2002 0-0.36671-0.25188-0.59266-0.63341-0.59266-0.263 0-0.46672 0.12964-0.6223 0.30744l0.1741 0.15928c0.11483-0.13335 0.263-0.21484 0.42598-0.21484 0.23707 0 0.3593 0.16298 0.3593 0.3593 0 0.39265-0.58896 0.60378-0.50747 1.1816zm-0.077787 0.54822c0 0.13335 0.096308 0.22966 0.21855 0.22966 0.12224 0 0.22225-0.0963 0.22225-0.22966 0-0.14076-0.10001-0.23707-0.22225-0.23707s-0.21855 0.0963-0.21855 0.23707z"/>
   </g>
   <g aria-label="YES">
    <path d="m34.533 226.07h0.30745v-0.94086l0.72972-1.4891h-0.31856l-0.31485 0.68527c-0.07408 0.1778-0.15928 0.34819-0.24077 0.5297h-0.01482c-0.0852-0.18151-0.15928-0.3519-0.23707-0.5297l-0.31115-0.68527h-0.33338l0.73342 1.4891z"/>
    <path d="m35.881 226.07h1.4372v-0.263h-1.1261v-0.88159h0.91863v-0.263h-0.91863v-0.76306h1.089v-0.25929h-1.4002z"/>
    <path d="m37.638 225.75c0.21114 0.21855 0.50747 0.35931 0.84825 0.35931 0.51118 0 0.82973-0.30745 0.82973-0.69268 0-0.35931-0.21855-0.526-0.50006-0.64823l-0.34819-0.14817c-0.18891-0.0815-0.40376-0.17039-0.40376-0.40375 0-0.21855 0.1815-0.3556 0.45561-0.3556 0.22225 0 0.40375 0.0889 0.55192 0.22965l0.16298-0.20002c-0.17039-0.1778-0.42598-0.30004-0.7149-0.30004-0.4408 0-0.76676 0.27411-0.76676 0.64453 0 0.3556 0.2667 0.52969 0.49266 0.626l0.34819 0.15187c0.22966 0.10372 0.40746 0.18151 0.40746 0.42969 0 0.23706-0.18891 0.39634-0.50747 0.39634-0.25559 0-0.49636-0.12224-0.67045-0.30374z"/>
   </g>
   <g aria-label="YES">
    <path d="m82.158 226.07h0.30745v-0.94086l0.72972-1.4891h-0.31856l-0.31485 0.68527c-0.07408 0.1778-0.15928 0.34819-0.24077 0.5297h-0.01482c-0.0852-0.18151-0.15928-0.3519-0.23707-0.5297l-0.31115-0.68527h-0.33338l0.73342 1.4891z"/>
    <path d="m83.506 226.07h1.4372v-0.263h-1.1261v-0.88159h0.91863v-0.263h-0.91863v-0.76306h1.089v-0.25929h-1.4002z"/>
    <path d="m85.263 225.75c0.21114 0.21855 0.50747 0.35931 0.84825 0.35931 0.51118 0 0.82973-0.30745 0.82973-0.69268 0-0.35931-0.21855-0.526-0.50006-0.64823l-0.34819-0.14817c-0.18891-0.0815-0.40376-0.17039-0.40376-0.40375 0-0.21855 0.1815-0.3556 0.45561-0.3556 0.22225 0 0.40375 0.0889 0.55192 0.22965l0.16298-0.20002c-0.17039-0.1778-0.42598-0.30004-0.7149-0.30004-0.4408 0-0.76676 0.27411-0.76676 0.64453 0 0.3556 0.2667 0.52969 0.49266 0.626l0.34819 0.15187c0.22966 0.10372 0.40746 0.18151 0.40746 0.42969 0 0.23706-0.18891 0.39634-0.50747 0.39634-0.25559 0-0.49636-0.12224-0.67045-0.30374z"/>
   </g>
  </g>
 </g>
</svg>
