<svg width="195.97mm" height="117.91mm" version="1.1" viewBox="0 0 195.97 117.91" xmlns="http://www.w3.org/2000/svg">
 <g transform="translate(129.49 -199.31)">
  <g>
   <g stroke-width=".26458">
    <path d="m-29.083 208.51v8.4667" fill="#e8eaec" stroke="#47d58a" stroke-linecap="square"/>
    <path d="m-34.745 199.44-4.3398 4.4661 4.3398 4.4661h11.324l4.3398-4.4661-4.3398-4.4661z" fill="#1d232d" fill-rule="evenodd" stroke="#535e70"/>
    <g fill="#e8eaec" stroke-linecap="round" aria-label="Infinite loop">
     <path d="m-34.244 202.82h0.31115v-2.4299h-0.31115z"/>
     <path d="m-33.308 202.82h0.30374v-1.3039c0.1815-0.1815 0.30745-0.27781 0.49265-0.27781 0.23707 0 0.34078 0.14446 0.34078 0.48154v1.1001h0.30374v-1.1409c0-0.45931-0.17039-0.70379-0.54822-0.70379-0.24818 0-0.43339 0.13335-0.60378 0.30374h-0.01111l-0.02593-0.25929h-0.25188z"/>
     <path d="m-30.404 200.2c-0.08149-0.0333-0.18891-0.0593-0.30004-0.0593-0.3593 0-0.52599 0.22966-0.52599 0.59637v0.28522l-0.24448 0.0185v0.22966h0.24448v1.552h0.30374v-1.552h0.38153v-0.24818h-0.38153v-0.28522c0-0.22966 0.08149-0.34819 0.25188-0.34819 0.06668 0 0.13705 0.0148 0.20373 0.0444z"/>
     <path d="m-30.041 200.65c0.11853 0 0.21114-0.0815 0.21114-0.19632 0-0.11853-0.0926-0.19632-0.21114-0.19632-0.11853 0-0.21114 0.0778-0.21114 0.19632 0 0.11483 0.09261 0.19632 0.21114 0.19632zm-0.15558 2.1706h0.30374v-1.8002h-0.30374z"/>
     <path d="m-29.285 202.82h0.30374v-1.3039c0.1815-0.1815 0.30744-0.27781 0.49265-0.27781 0.23707 0 0.34078 0.14446 0.34078 0.48154v1.1001h0.30374v-1.1409c0-0.45931-0.17039-0.70379-0.54822-0.70379-0.24818 0-0.43339 0.13335-0.60378 0.30374h-0.01111l-0.02593-0.25929h-0.25188z"/>
     <path d="m-27.104 200.65c0.11853 0 0.21114-0.0815 0.21114-0.19632 0-0.11853-0.09261-0.19632-0.21114-0.19632-0.11853 0-0.21114 0.0778-0.21114 0.19632 0 0.11483 0.0926 0.19632 0.21114 0.19632zm-0.15558 2.1706h0.30374v-1.8002h-0.30374z"/>
     <path d="m-26.296 202.26c0 0.3556 0.12965 0.60008 0.51488 0.60008 0.11112 0 0.23336-0.0333 0.33338-0.0667l-0.05927-0.22966c-0.05927 0.0222-0.14076 0.0482-0.20373 0.0482-0.20743 0-0.27781-0.12594-0.27781-0.34819v-1.0001h0.48525v-0.24818h-0.48525v-0.50377h-0.25559l-0.03704 0.50377-0.28152 0.0185v0.22966h0.2667z"/>
     <path d="m-25.266 201.92c0 0.58896 0.38153 0.94086 0.86307 0.94086 0.24448 0 0.43709-0.0852 0.59267-0.18521l-0.10742-0.20003c-0.13335 0.0852-0.27781 0.14076-0.4482 0.14076-0.34449 0-0.57785-0.24447-0.60008-0.63341h1.215c0.0074-0.0445 0.01111-0.10372 0.01111-0.16669 0-0.51488-0.25929-0.84455-0.71861-0.84455-0.41116 0-0.80751 0.35931-0.80751 0.94827zm0.29633-0.13706c0.03704-0.363 0.2667-0.57044 0.51858-0.57044 0.28152 0 0.4445 0.20373 0.4445 0.57044z"/>
     <path d="m-32.291 207.09c0 0.26299 0.0926 0.40745 0.32226 0.40745 0.08149 0 0.13335-0.0111 0.1741-0.0296l-0.04075-0.22966c-0.03334 7e-3 -0.04815 7e-3 -0.06668 7e-3 -0.04445 0-0.08519-0.037-0.08519-0.13335v-2.2966h-0.30374z"/>
     <path d="m-31.477 206.55c0 0.59637 0.39264 0.94085 0.83344 0.94085s0.83344-0.34448 0.83344-0.94085c0-0.60378-0.39264-0.94827-0.83344-0.94827s-0.83344 0.34449-0.83344 0.94827zm0.31485 0c0-0.41487 0.21114-0.69639 0.51858-0.69639 0.31115 0 0.51858 0.28152 0.51858 0.69639 0 0.41116-0.20743 0.68897-0.51858 0.68897-0.30745 0-0.51858-0.27781-0.51858-0.68897z"/>
     <path d="m-29.466 206.55c0 0.59637 0.39264 0.94085 0.83344 0.94085s0.83344-0.34448 0.83344-0.94085c0-0.60378-0.39264-0.94827-0.83344-0.94827s-0.83344 0.34449-0.83344 0.94827zm0.31486 0c0-0.41487 0.21114-0.69639 0.51858-0.69639 0.31115 0 0.51858 0.28152 0.51858 0.69639 0 0.41116-0.20743 0.68897-0.51858 0.68897-0.30745 0-0.51858-0.27781-0.51858-0.68897z"/>
     <path d="m-27.025 207.29c0.16669 0.12965 0.33338 0.20743 0.50006 0.20743 0.41116 0 0.77788-0.3593 0.77788-0.97049 0-0.55933-0.24818-0.91863-0.7112-0.91863-0.21114 0-0.41116 0.11483-0.57415 0.25188h-0.01111l-0.02593-0.20743h-0.25188v2.5596h0.30374v-0.60748zm0.0074-0.23707v-0.94456c0.1778-0.15928 0.32967-0.24447 0.48154-0.24447 0.34078 0 0.47413 0.2667 0.47413 0.66304 0 0.4445-0.21855 0.71491-0.51488 0.71491-0.11853 0-0.27781-0.0519-0.4408-0.18892z"/>
    </g>
   </g>
   <ellipse transform="matrix(-.42777 -.90389 .98869 -.14999 0 0)" cx="-224.64" cy="-126.69" rx="5.4639" ry="8.8227" fill="#1d232d" stroke="#535e70" stroke-width=".27035"/>
  </g>
  <g transform="matrix(.9998 0 0 .9998 -736.85 -161.14)" stroke-width=".63513">
   <g fill="none" stroke="#e8eaec" stroke-width=".26464">
    <path d="m705 382.36v-2h2"/>
    <path d="m710.8 382.36v-2h-2"/>
    <path d="m705 384.16v2h2"/>
    <path d="m710.8 384.16v2h-2"/>
   </g>
   <rect x="706.26" y="381.64" width="3.3438" height="3.3438" fill="#e8eaec"/>
  </g>
  <path d="m-34.374 231.53v2.1167h-68.792v4.4979" fill="none" stroke="#47d58a" stroke-linecap="square" stroke-width=".26458"/>
  <g>
   <ellipse transform="matrix(-.42777 -.90389 .98869 -.14999 0 0)" cx="-234.89" cy="-206.06" rx="5.4639" ry="8.8227" fill="#1d232d" stroke="#535e70" stroke-width=".27035"/>
   <path d="m-108.33 243.14 9.4482 0.11291" fill="#e9e56f" fill-rule="evenodd" stroke="#e8eaec" stroke-width=".26458"/>
   <g transform="matrix(.0042365 0 0 .0043091 -99.44 242.07)" fill="#e8eaec" stroke-width="123.85">
    <g fill="#e8eaec" stroke-width="123.85">
     <path d="m486.41 221.41-364.07-208.5c-52.938-30.318-95.852-5.44-95.852 55.563v415.65c0 61.004 42.914 85.882 95.852 55.563l364.07-208.49c52.938-30.317 52.938-79.473 0-109.79z" fill="#e8eaec" stroke-width="123.85"/>
    </g>
   </g>
   <ellipse transform="matrix(-.42777 -.90389 .98869 -.14999 0 0)" cx="-242.56" cy="-159.87" rx="5.4639" ry="8.8227" fill="#1d232d" stroke="#535e70" stroke-width=".27035"/>
   <path d="m-59.384 243.14 9.4482 0.11291" fill="#e9e56f" fill-rule="evenodd" stroke="#e8eaec" stroke-width=".26458"/>
   <g transform="matrix(.0042365 0 0 .0043091 -50.492 242.07)" fill="#e8eaec" stroke-width="123.85">
    <g fill="#e8eaec" stroke-width="123.85">
     <path d="m486.41 221.41-364.07-208.5c-52.938-30.318-95.852-5.44-95.852 55.563v415.65c0 61.004 42.914 85.882 95.852 55.563l364.07-208.49c52.938-30.317 52.938-79.473 0-109.79z" fill="#e8eaec" stroke-width="123.85"/>
    </g>
   </g>
   <ellipse transform="matrix(-.42777 -.90389 .98869 -.14999 0 0)" cx="-250.43" cy="-112.43" rx="5.4639" ry="8.8227" fill="#1d232d" stroke="#535e70" stroke-width=".27035"/>
   <path d="m-9.1132 243.14 9.4482 0.11291" fill="#e9e56f" fill-rule="evenodd" stroke="#e8eaec" stroke-width=".26458"/>
   <g transform="matrix(.0042365 0 0 .0043091 -.22148 242.07)" fill="#e8eaec" stroke-width="123.85">
    <g fill="#e8eaec" stroke-width="123.85">
     <path d="m486.41 221.41-364.07-208.5c-52.938-30.318-95.852-5.44-95.852 55.563v415.65c0 61.004 42.914 85.882 95.852 55.563l364.07-208.49c52.938-30.317 52.938-79.473 0-109.79z" fill="#e8eaec" stroke-width="123.85"/>
    </g>
   </g>
   <ellipse transform="matrix(-.42777 -.90389 .98869 -.14999 0 0)" cx="-258.09" cy="-66.236" rx="5.4639" ry="8.8227" fill="#1d232d" stroke="#535e70" stroke-width=".27035"/>
   <path d="m39.835 243.14 9.4482 0.11291" fill="#e9e56f" fill-rule="evenodd" stroke="#e8eaec" stroke-width=".26458"/>
   <g transform="matrix(.0042365 0 0 .0043091 48.726 242.07)" fill="#e8eaec" stroke-width="123.85">
    <g fill="#e8eaec" stroke-width="123.85">
     <path d="m486.41 221.41-364.07-208.5c-52.938-30.318-95.852-5.44-95.852 55.563v415.65c0 61.004 42.914 85.882 95.852 55.563l364.07-208.49c52.938-30.317 52.938-79.473 0-109.79z" fill="#e8eaec" stroke-width="123.85"/>
    </g>
   </g>
   <path d="m-35.565 230.87h13.229" fill="#1d232d" stroke="#47d58a" stroke-linecap="round" stroke-width=".26458"/>
  </g>
  <g fill="#47d58a">
   <circle cx="-30.802" cy="231.4" r=".52917"/>
   <circle cx="-28.95" cy="230.34" r=".52917"/>
   <circle cx="-34.242" cy="231.4" r=".52917"/>
   <circle cx="-27.098" cy="231.4" r=".52917"/>
   <circle cx="-23.659" cy="231.4" r=".52917"/>
  </g>
  <g stroke="#47d58a" stroke-linecap="square">
   <path d="m-28.95 227.29v3.175" fill="#7893ea" stroke-width=".26458"/>
   <path d="m-23.659 231.53v2.1167h68.792v4.4979" fill="none" stroke-width=".26458"/>
   <ellipse transform="matrix(0,-1,-1,0,0,0)" cx="-233.64" cy="-45.133" rx=".66146" ry=".66146" fill="#1d232d" stroke-dashoffset="1.2" stroke-miterlimit="40" stroke-width=".26458"/>
   <path d="m-27.098 231.53v4.7625h23.283v1.8521" fill="none" stroke-width=".26458"/>
   <ellipse transform="matrix(0,-1,-1,0,0,0)" cx="-236.29" cy="3.8148" rx=".66146" ry=".66146" fill="#1d232d" stroke-dashoffset="1.2" stroke-miterlimit="40" stroke-width=".26458"/>
   <ellipse transform="rotate(-90)" cx="-233.64" cy="-103.17" rx=".66146" ry=".66146" fill="#1d232d" stroke-dashoffset="1.2" stroke-miterlimit="40" stroke-width=".26458"/>
   <path d="m-30.935 231.53v4.7625h-23.283v1.8521" fill="none" stroke-width=".26458"/>
  </g>
  <g fill="#1d232d">
   <ellipse transform="rotate(-90)" cx="-236.29" cy="-54.218" rx=".66146" ry=".66146" stroke="#47d58a" stroke-dashoffset="1.2" stroke-linecap="square" stroke-miterlimit="40" stroke-width=".26458"/>
   <rect x="-99.594" y="260.34" width="17.774" height="8.8871" stroke="#6f8ce9" stroke-width=".26458"/>
   <rect transform="matrix(.91148 .41135 -.91148 .41135 0 0)" x="252.77" y="379.38" width="15.152" height="15.152" stroke="#535e70" stroke-width=".30554"/>
  </g>
  <g stroke-linecap="round" stroke-width=".26458">
   <g fill="#e8eaec" aria-label="Sleeping?">
    <path d="m-122.4 266.8c0.21113 0.21855 0.50747 0.35931 0.84825 0.35931 0.51118 0 0.82973-0.30745 0.82973-0.69268 0-0.3593-0.21854-0.52599-0.50006-0.64823l-0.34819-0.14817c-0.18891-0.0815-0.40375-0.17039-0.40375-0.40375 0-0.21855 0.1815-0.3556 0.45561-0.3556 0.22225 0 0.40375 0.0889 0.55192 0.22966l0.16298-0.20003c-0.17039-0.1778-0.42598-0.30003-0.7149-0.30003-0.4408 0-0.76676 0.2741-0.76676 0.64452 0 0.3556 0.2667 0.5297 0.49265 0.626l0.34819 0.15188c0.22966 0.10371 0.40746 0.1815 0.40746 0.42968 0 0.23706-0.18891 0.39634-0.50747 0.39634-0.25559 0-0.49636-0.12223-0.67045-0.30374z"/>
    <path d="m-120.29 266.75c0 0.263 0.0926 0.40746 0.32226 0.40746 0.0815 0 0.13335-0.0111 0.17409-0.0296l-0.0407-0.22965c-0.0333 7e-3 -0.0482 7e-3 -0.0667 7e-3 -0.0444 0-0.0852-0.037-0.0852-0.13335v-2.2966h-0.30374z"/>
    <path d="m-119.47 266.22c0 0.58896 0.38153 0.94086 0.86307 0.94086 0.24448 0 0.43709-0.0852 0.59267-0.18521l-0.10742-0.20003c-0.13335 0.0852-0.27781 0.14076-0.44821 0.14076-0.34448 0-0.57785-0.24447-0.60007-0.63341h1.215c7e-3 -0.0444 0.0111-0.10372 0.0111-0.16669 0-0.51488-0.25929-0.84455-0.71861-0.84455-0.41116 0-0.80751 0.35931-0.80751 0.94827zm0.29633-0.13705c0.0371-0.36301 0.2667-0.57045 0.51859-0.57045 0.28151 0 0.4445 0.20373 0.4445 0.57045z"/>
    <path d="m-117.63 266.22c0 0.58896 0.38152 0.94086 0.86307 0.94086 0.24447 0 0.43709-0.0852 0.59266-0.18521l-0.10742-0.20003c-0.13335 0.0852-0.27781 0.14076-0.4482 0.14076-0.34449 0-0.57785-0.24447-0.60008-0.63341h1.215c7e-3 -0.0444 0.0111-0.10372 0.0111-0.16669 0-0.51488-0.25929-0.84455-0.71861-0.84455-0.41116 0-0.8075 0.35931-0.8075 0.94827zm0.29633-0.13705c0.037-0.36301 0.2667-0.57045 0.51858-0.57045 0.28152 0 0.4445 0.20373 0.4445 0.57045z"/>
    <path d="m-115.37 266.95c0.16669 0.12965 0.33338 0.20744 0.50007 0.20744 0.41116 0 0.77787-0.35931 0.77787-0.97049 0-0.55933-0.24818-0.91864-0.7112-0.91864-0.21114 0-0.41116 0.11483-0.57415 0.25189h-0.0111l-0.0259-0.20744h-0.25188v2.5596h0.30374v-0.60748zm7e-3 -0.23706v-0.94456c0.1778-0.15928 0.32967-0.24448 0.48154-0.24448 0.34079 0 0.47414 0.2667 0.47414 0.66305 0 0.4445-0.21855 0.7149-0.51488 0.7149-0.11854 0-0.27782-0.0519-0.4408-0.18891z"/>
    <path d="m-113.45 264.94c0.11853 0 0.21114-0.0815 0.21114-0.19632 0-0.11854-0.0926-0.19632-0.21114-0.19632-0.11853 0-0.21114 0.0778-0.21114 0.19632 0 0.11483 0.0926 0.19632 0.21114 0.19632zm-0.15558 2.1706h0.30375v-1.8002h-0.30375z"/>
    <path d="m-112.7 267.11h0.30374v-1.3039c0.1815-0.1815 0.30744-0.27781 0.49265-0.27781 0.23707 0 0.34079 0.14446 0.34079 0.48154v1.1001h0.30374v-1.1409c0-0.45932-0.17039-0.7038-0.54822-0.7038-0.24818 0-0.43339 0.13335-0.60378 0.30375h-0.0111l-0.0259-0.2593h-0.25188z"/>
    <path d="m-110.54 267.42c0-0.10372 0.0556-0.21114 0.18521-0.30374 0.0778 0.0222 0.16298 0.0296 0.23336 0.0296h0.31115c0.23336 0 0.36301 0.0556 0.36301 0.22225 0 0.18891-0.22596 0.36671-0.57044 0.36671-0.32597 0-0.52229-0.12223-0.52229-0.31485zm-0.2667 0.0408c0 0.31115 0.30374 0.48524 0.74454 0.48524 0.55933 0 0.91122-0.28892 0.91122-0.6223 0-0.30004-0.21114-0.42968-0.62971-0.42968h-0.34819c-0.24447 0-0.31856-0.0815-0.31856-0.19632 0-0.10002 0.0519-0.15928 0.11483-0.21484 0.0815 0.0407 0.18151 0.063 0.27041 0.063 0.36671 0 0.65934-0.24077 0.65934-0.62601 0-0.15187-0.063-0.28892-0.14817-0.37041h0.37042v-0.23337h-0.62601c-0.0667-0.0259-0.15557-0.0444-0.25558-0.0444-0.36672 0-0.67787 0.24818-0.67787 0.64082 0 0.21485 0.11483 0.38894 0.23337 0.48525v0.0148c-0.0926 0.063-0.19632 0.1815-0.19632 0.33337 0 0.14076 0.0704 0.23707 0.15927 0.29263v0.0148c-0.16298 0.11112-0.26299 0.25558-0.26299 0.40746zm0.74454-1.1187c-0.20744 0-0.38153-0.16669-0.38153-0.42969 0-0.26299 0.17039-0.41857 0.38153-0.41857 0.21113 0 0.38153 0.15558 0.38153 0.41857 0 0.263-0.1741 0.42969-0.38153 0.42969z"/>
    <path d="m-108.65 266.38h0.2667c-0.0593-0.51858 0.5371-0.7149 0.5371-1.2002 0-0.36671-0.25188-0.59266-0.63341-0.59266-0.263 0-0.46673 0.12964-0.6223 0.30744l0.17409 0.15928c0.11483-0.13335 0.263-0.21484 0.42598-0.21484 0.23707 0 0.35931 0.16298 0.35931 0.3593 0 0.39265-0.58897 0.60378-0.50747 1.1816zm-0.0778 0.54822c0 0.13335 0.0963 0.22966 0.21854 0.22966s0.22225-0.0963 0.22225-0.22966c0-0.14076-0.10001-0.23707-0.22225-0.23707-0.12223 0-0.21854 0.0963-0.21854 0.23707z"/>
   </g>
   <g fill="#e8eaec" aria-label="Wait">
    <path d="m-93.721 266.06h0.36671l0.36301-1.4632c0.04075-0.18891 0.08149-0.363 0.12224-0.55192h0.01482c0.03334 0.18892 0.07408 0.36301 0.11483 0.55192l0.36671 1.4632h0.37412l0.50377-2.4299h-0.30004l-0.25559 1.3224c-0.04445 0.2593-0.0889 0.52229-0.13705 0.78529h-0.01482c-0.05927-0.263-0.11853-0.5297-0.1741-0.78529l-0.33708-1.3224h-0.28152l-0.33708 1.3224c-0.05927 0.2593-0.11853 0.52229-0.17039 0.78529h-0.01482c-0.04815-0.263-0.09631-0.52229-0.14446-0.78529l-0.25559-1.3224h-0.31856z"/>
    <path d="m-91.259 265.59c0 0.32227 0.22595 0.51118 0.5297 0.51118 0.22225 0 0.42228-0.11853 0.59637-0.25929h0.0074l0.02593 0.21484h0.25188v-1.1038c0-0.44821-0.18521-0.74084-0.626-0.74084-0.28892 0-0.54081 0.12595-0.7075 0.23337l0.12224 0.21113c0.14076-0.0963 0.32597-0.19261 0.5371-0.19261 0.29263 0 0.37042 0.22225 0.37042 0.45191-0.76676 0.0852-1.1075 0.28151-1.1075 0.67415zm0.30004-0.0222c0-0.22966 0.20373-0.37783 0.80751-0.45191v0.50006c-0.1741 0.15558-0.31856 0.24077-0.49265 0.24077-0.1778 0-0.31486-0.0852-0.31486-0.28892z"/>
    <path d="m-89.119 263.89c0.11853 0 0.21114-0.0815 0.21114-0.19632 0-0.11854-0.0926-0.19632-0.21114-0.19632-0.11853 0-0.21114 0.0778-0.21114 0.19632 0 0.11483 0.0926 0.19632 0.21114 0.19632zm-0.15558 2.1706h0.30374v-1.8002h-0.30374z"/>
    <path d="m-88.311 265.5c0 0.3556 0.12965 0.60008 0.51488 0.60008 0.11112 0 0.23336-0.0333 0.33338-0.0667l-0.05927-0.22965c-0.05927 0.0222-0.14076 0.0482-0.20373 0.0482-0.20743 0-0.27781-0.12594-0.27781-0.34819v-1.0001h0.48525v-0.24818h-0.48525v-0.50376h-0.25559l-0.03704 0.50376-0.28152 0.0185v0.22965h0.2667z"/>
   </g>
   <path d="m-107 252.03h7.9375" fill="#1d232d" stroke="#47d58a"/>
  </g>
  <g fill="#47d58a">
   <circle cx="-104.89" cy="252.56" r=".52917"/>
   <circle cx="-103.03" cy="251.5" r=".52917"/>
   <circle cx="-101.18" cy="252.56" r=".52917"/>
  </g>
  <g stroke="#47d58a" stroke-linecap="square">
   <path d="m-103.03 248.46v3.175" fill="#7893ea" stroke-width=".26458"/>
   <path d="m-101.18 252.69v3.9688h10.451v3.4396" fill="none" stroke-width=".26458"/>
   <ellipse transform="rotate(-90)" cx="-256.66" cy="-90.73" rx=".66146" ry=".66146" fill="#1d232d" stroke-dashoffset="1.2" stroke-miterlimit="40" stroke-width=".26458"/>
   <path d="m-104.89 252.69v3.9688h-10.451v3.4396" fill="none" stroke-width=".26458"/>
  </g>
  <g>
   <ellipse transform="matrix(0,-1,-1,0,0,0)" cx="-256.66" cy="115.34" rx=".66146" ry=".66146" fill="#1d232d" stroke="#47d58a" stroke-dashoffset="1.2" stroke-linecap="square" stroke-miterlimit="40" stroke-width=".26458"/>
   <g>
    <rect transform="matrix(.91148 .41135 -.91148 .41135 0 0)" x="279.62" y="352.53" width="15.152" height="15.152" fill="#1d232d" stroke="#535e70" stroke-width=".30554"/>
    <g fill="#e8eaec" stroke-linecap="round" stroke-width=".26458" aria-label="Enemy visible?">
     <path d="m-71.132 264.73h1.4372v-0.26299h-1.1261v-0.8816h0.91863v-0.26299h-0.91863v-0.76306h1.089v-0.25929h-1.4002z"/>
     <path d="m-69.219 264.73h0.30374v-1.3039c0.1815-0.18151 0.30744-0.27782 0.49265-0.27782 0.23707 0 0.34078 0.14447 0.34078 0.48154v1.1001h0.30374v-1.1409c0-0.45932-0.17039-0.70379-0.54822-0.70379-0.24818 0-0.43339 0.13335-0.60378 0.30374h-0.01111l-0.02593-0.25929h-0.25188z"/>
     <path d="m-67.326 263.84c0 0.58897 0.38153 0.94086 0.86307 0.94086 0.24448 0 0.43709-0.0852 0.59267-0.18521l-0.10742-0.20002c-0.13335 0.0852-0.27781 0.14076-0.4482 0.14076-0.34449 0-0.57785-0.24448-0.60008-0.63342h1.215c0.0074-0.0444 0.01111-0.10371 0.01111-0.16668 0-0.51488-0.25929-0.84455-0.71861-0.84455-0.41116 0-0.80751 0.3593-0.80751 0.94826zm0.29633-0.13705c0.03704-0.36301 0.2667-0.57044 0.51858-0.57044 0.28152 0 0.4445 0.20373 0.4445 0.57044z"/>
     <path d="m-65.355 264.73h0.30374v-1.3039c0.16669-0.18521 0.31856-0.27782 0.45191-0.27782 0.22966 0 0.33708 0.14447 0.33708 0.48154v1.1001h0.30374v-1.3039c0.16669-0.18521 0.31115-0.27782 0.45191-0.27782 0.22596 0 0.33338 0.14447 0.33338 0.48154v1.1001h0.30374v-1.1409c0-0.45932-0.1778-0.70379-0.54822-0.70379-0.21854 0-0.40375 0.14076-0.59267 0.34448-0.07408-0.21484-0.22225-0.34448-0.49636-0.34448-0.21484 0-0.40375 0.13335-0.55933 0.30374h-0.01111l-0.02593-0.25929h-0.25188z"/>
     <path d="m-62.41 265.23-0.05927 0.24077c0.05927 0.0222 0.12964 0.037 0.21114 0.037 0.36301 0 0.54822-0.2704 0.67416-0.626l0.67786-1.9484h-0.29633l-0.32226 0.99642c-0.04815 0.15928-0.10001 0.34449-0.15187 0.50747h-0.01482c-0.05556-0.16669-0.11853-0.3519-0.1741-0.50747l-0.36671-0.99642h-0.31485l0.72231 1.8039-0.04075 0.13335c-0.07408 0.22225-0.20373 0.38523-0.40746 0.38523-0.04445 0-0.10001-0.0148-0.13705-0.0259z"/>
     <path d="m-71.217 269.5h0.3556l0.63712-1.8002h-0.30004l-0.34078 1.0224c-0.05186 0.1778-0.11112 0.35931-0.16298 0.5297h-0.01482c-0.05556-0.17039-0.11483-0.3519-0.16669-0.5297l-0.34078-1.0224h-0.31485z"/>
     <path d="m-69.722 267.33c0.11853 0 0.21114-0.0815 0.21114-0.19632 0-0.11854-0.0926-0.19633-0.21114-0.19633-0.11853 0-0.21114 0.0778-0.21114 0.19633 0 0.11482 0.0926 0.19632 0.21114 0.19632zm-0.15558 2.1706h0.30374v-1.8002h-0.30374z"/>
     <path d="m-69.166 269.3c0.17039 0.14076 0.41487 0.24818 0.67045 0.24818 0.42598 0 0.65934-0.24448 0.65934-0.53711 0-0.34078-0.28892-0.4482-0.54822-0.54451-0.20373-0.0778-0.40005-0.14446-0.40005-0.31115 0-0.13705 0.10372-0.25929 0.32967-0.25929 0.15928 0 0.28892 0.0667 0.41116 0.15928l0.14446-0.19262c-0.13706-0.11112-0.33338-0.20373-0.55933-0.20373-0.38894 0-0.6186 0.22225-0.6186 0.51118 0 0.30374 0.28152 0.42598 0.5371 0.51858 0.19632 0.0741 0.41116 0.15558 0.41116 0.34078 0 0.15558-0.11853 0.28152-0.3556 0.28152-0.21484 0-0.37412-0.0889-0.5297-0.21484z"/>
     <path d="m-67.255 267.33c0.11853 0 0.21114-0.0815 0.21114-0.19632 0-0.11854-0.0926-0.19633-0.21114-0.19633-0.11853 0-0.21114 0.0778-0.21114 0.19633 0 0.11482 0.0926 0.19632 0.21114 0.19632zm-0.15558 2.1706h0.30374v-1.8002h-0.30374z"/>
     <path d="m-66.499 269.5h0.24448l0.02593-0.1778h0.01111c0.15928 0.14076 0.34819 0.22225 0.51488 0.22225 0.41116 0 0.77788-0.35931 0.77788-0.9742 0-0.55562-0.24818-0.91493-0.7149-0.91493-0.20002 0-0.40005 0.10742-0.56303 0.25189l0.0074-0.32597v-0.71861h-0.30374zm0.30374-0.40005v-0.94456c0.17039-0.15928 0.32967-0.24448 0.48154-0.24448 0.34078 0 0.47413 0.2667 0.47413 0.66305 0 0.4445-0.21855 0.7149-0.51488 0.7149-0.11853 0-0.28152-0.0519-0.4408-0.18891z"/>
     <path d="m-64.444 269.14c0 0.263 0.0926 0.40746 0.32226 0.40746 0.08149 0 0.13335-0.0111 0.1741-0.0296l-0.04075-0.22965c-0.03334 7e-3 -0.04815 7e-3 -0.06667 7e-3 -0.04445 0-0.0852-0.037-0.0852-0.13335v-2.2966h-0.30374z"/>
     <path d="m-63.629 268.61c0 0.58896 0.38153 0.94086 0.86307 0.94086 0.24448 0 0.43709-0.0852 0.59267-0.18521l-0.10742-0.20003c-0.13335 0.0852-0.27781 0.14076-0.4482 0.14076-0.34449 0-0.57785-0.24447-0.60008-0.63341h1.215c0.0074-0.0444 0.01111-0.10372 0.01111-0.16669 0-0.51488-0.25929-0.84455-0.71861-0.84455-0.41116 0-0.80751 0.35931-0.80751 0.94827zm0.29633-0.13705c0.03704-0.36301 0.2667-0.57045 0.51858-0.57045 0.28152 0 0.4445 0.20373 0.4445 0.57045z"/>
     <path d="m-61.391 268.77h0.2667c-0.05927-0.51858 0.5371-0.7149 0.5371-1.2002 0-0.36671-0.25188-0.59266-0.63341-0.59266-0.263 0-0.46672 0.12964-0.6223 0.30744l0.1741 0.15928c0.11483-0.13335 0.263-0.21484 0.42598-0.21484 0.23707 0 0.3593 0.16298 0.3593 0.3593 0 0.39265-0.58896 0.60378-0.50747 1.1816zm-0.07779 0.54822c0 0.13335 0.09631 0.22966 0.21855 0.22966 0.12224 0 0.22225-0.0963 0.22225-0.22966 0-0.14076-0.10001-0.23707-0.22225-0.23707-0.12224 0-0.21855 0.0963-0.21855 0.23707z"/>
    </g>
    <path d="m-58.054 252.03h7.9375" fill="#1d232d" stroke="#47d58a" stroke-linecap="round" stroke-width=".26458"/>
   </g>
  </g>
  <g fill="#47d58a">
   <circle cx="-55.938" cy="252.56" r=".52917"/>
   <circle cx="-54.086" cy="251.5" r=".52917"/>
   <circle cx="-52.234" cy="252.56" r=".52917"/>
  </g>
  <g stroke="#47d58a" stroke-linecap="square">
   <path d="m-54.086 248.46v3.175" fill="#7893ea" stroke-width=".26458"/>
   <path d="m-52.234 252.69v3.9688h10.451v3.4396" fill="none" stroke-width=".26458"/>
   <ellipse transform="rotate(-90)" cx="-256.66" cy="-41.782" rx=".66146" ry=".66146" fill="#1d232d" stroke-dashoffset="1.2" stroke-miterlimit="40" stroke-width=".26458"/>
   <path d="m-55.938 252.69v3.9688h-10.451v3.4396" fill="none" stroke-width=".26458"/>
  </g>
  <g>
   <ellipse transform="matrix(0,-1,-1,0,0,0)" cx="-256.66" cy="66.389" rx=".66146" ry=".66146" fill="#1d232d" stroke="#47d58a" stroke-dashoffset="1.2" stroke-linecap="square" stroke-miterlimit="40" stroke-width=".26458"/>
   <g>
    <rect transform="matrix(.91148 .41135 -.91148 .41135 0 0)" x="307.2" y="324.96" width="15.152" height="15.152" fill="#1d232d" stroke="#535e70" stroke-width=".30554"/>
    <g stroke-width=".26458">
     <g fill="#e8eaec" stroke-linecap="round" aria-label="Enemy lost?">
      <path d="m-24.858 267.11h1.4372v-0.263h-1.1261v-0.88159h0.91863v-0.26299h-0.91863v-0.76306h1.089v-0.25929h-1.4002z"/>
      <path d="m-22.945 267.11h0.30374v-1.3039c0.1815-0.1815 0.30745-0.27781 0.49265-0.27781 0.23707 0 0.34078 0.14446 0.34078 0.48154v1.1001h0.30374v-1.1409c0-0.45932-0.17039-0.7038-0.54822-0.7038-0.24818 0-0.43339 0.13335-0.60378 0.30375h-0.01111l-0.02593-0.2593h-0.25188z"/>
      <path d="m-21.053 266.22c0 0.58896 0.38153 0.94086 0.86307 0.94086 0.24448 0 0.43709-0.0852 0.59267-0.18521l-0.10742-0.20003c-0.13335 0.0852-0.27781 0.14076-0.4482 0.14076-0.34449 0-0.57785-0.24447-0.60008-0.63341h1.215c0.0074-0.0444 0.01111-0.10372 0.01111-0.16669 0-0.51488-0.25929-0.84455-0.71861-0.84455-0.41116 0-0.80751 0.35931-0.80751 0.94827zm0.29633-0.13705c0.03704-0.36301 0.2667-0.57045 0.51858-0.57045 0.28152 0 0.4445 0.20373 0.4445 0.57045z"/>
      <path d="m-19.082 267.11h0.30374v-1.3039c0.16669-0.18521 0.31856-0.27781 0.45191-0.27781 0.22966 0 0.33708 0.14446 0.33708 0.48154v1.1001h0.30374v-1.3039c0.16669-0.18521 0.31115-0.27781 0.45191-0.27781 0.22595 0 0.33338 0.14446 0.33338 0.48154v1.1001h0.30374v-1.1409c0-0.45932-0.1778-0.7038-0.54822-0.7038-0.21855 0-0.40376 0.14076-0.59267 0.34449-0.07408-0.21484-0.22225-0.34449-0.49636-0.34449-0.21484 0-0.40376 0.13335-0.55933 0.30375h-0.01111l-0.02593-0.2593h-0.25188z"/>
      <path d="m-16.137 267.61-0.05927 0.24077c0.05927 0.0222 0.12965 0.037 0.21114 0.037 0.36301 0 0.54822-0.27041 0.67416-0.62601l0.67786-1.9484h-0.29633l-0.32226 0.99642c-0.04815 0.15928-0.10001 0.34449-0.15187 0.50747h-0.01482c-0.05556-0.16668-0.11853-0.35189-0.1741-0.50747l-0.36671-0.99642h-0.31485l0.72231 1.8039-0.04075 0.13335c-0.07408 0.22225-0.20373 0.38524-0.40746 0.38524-0.04445 0-0.10001-0.0148-0.13706-0.0259z"/>
      <path d="m-13.54 266.75c0 0.263 0.0926 0.40746 0.32226 0.40746 0.08149 0 0.13335-0.0111 0.1741-0.0296l-0.04075-0.22965c-0.03334 7e-3 -0.04815 7e-3 -0.06668 7e-3 -0.04445 0-0.0852-0.037-0.0852-0.13335v-2.2966h-0.30374z"/>
      <path d="m-12.726 266.22c0 0.59637 0.39264 0.94086 0.83344 0.94086s0.83344-0.34449 0.83344-0.94086c0-0.60378-0.39264-0.94827-0.83344-0.94827s-0.83344 0.34449-0.83344 0.94827zm0.31485 0c0-0.41487 0.21114-0.69638 0.51858-0.69638 0.31115 0 0.51858 0.28151 0.51858 0.69638 0 0.41116-0.20743 0.68897-0.51858 0.68897-0.30745 0-0.51858-0.27781-0.51858-0.68897z"/>
      <path d="m-10.781 266.91c0.17039 0.14076 0.41487 0.24818 0.67045 0.24818 0.42598 0 0.65934-0.24448 0.65934-0.53711 0-0.34078-0.28892-0.4482-0.54822-0.54451-0.20373-0.0778-0.40005-0.14446-0.40005-0.31115 0-0.13705 0.10372-0.25929 0.32967-0.25929 0.15928 0 0.28892 0.0667 0.41116 0.15928l0.14446-0.19262c-0.13705-0.11112-0.33338-0.20373-0.55933-0.20373-0.38894 0-0.6186 0.22225-0.6186 0.51118 0 0.30374 0.28152 0.42598 0.5371 0.51858 0.19632 0.0741 0.41116 0.15558 0.41116 0.34078 0 0.15558-0.11853 0.28152-0.3556 0.28152-0.21484 0-0.37412-0.0889-0.5297-0.21484z"/>
      <path d="m-8.9737 266.56c0 0.3556 0.12965 0.60008 0.51488 0.60008 0.11112 0 0.23336-0.0333 0.33338-0.0667l-0.059267-0.22966c-0.059267 0.0222-0.14076 0.0482-0.20373 0.0482-0.20743 0-0.27781-0.12594-0.27781-0.34819v-1.0001h0.48525v-0.24818h-0.48525v-0.50376h-0.25559l-0.037042 0.50376-0.28152 0.0185v0.22966h0.2667z"/>
      <path d="m-7.5791 266.38h0.2667c-0.059267-0.51858 0.5371-0.7149 0.5371-1.2002 0-0.36671-0.25188-0.59266-0.63341-0.59266-0.263 0-0.46672 0.12964-0.6223 0.30744l0.1741 0.15928c0.11483-0.13335 0.263-0.21484 0.42598-0.21484 0.23707 0 0.3593 0.16298 0.3593 0.3593 0 0.39265-0.58896 0.60378-0.50747 1.1816zm-0.077788 0.54822c0 0.13335 0.096308 0.22966 0.21855 0.22966 0.12224 0 0.22225-0.0963 0.22225-0.22966 0-0.14076-0.10001-0.23707-0.22225-0.23707s-0.21855 0.0963-0.21855 0.23707z"/>
     </g>
     <path d="m8.356 269.63v12.435" fill="#7893ea" stroke="#47d58a" stroke-linecap="square"/>
     <path d="m2.8275 260.56-4.3412 4.4661 4.3412 4.4661h11.328l4.3412-4.4661-4.3412-4.4661z" fill="#1d232d" fill-rule="evenodd" stroke="#535e70"/>
     <g fill="#e8eaec" stroke-linecap="round" aria-label="Wait 10 s">
      <path d="m2.1371 266.06h0.36671l0.36301-1.4632c0.040746-0.18891 0.081492-0.363 0.12224-0.55192h0.014817c0.033338 0.18892 0.074083 0.36301 0.11483 0.55192l0.36671 1.4632h0.37412l0.50377-2.4299h-0.30004l-0.25559 1.3224c-0.04445 0.2593-0.0889 0.52229-0.13705 0.78529h-0.014817c-0.059267-0.263-0.11853-0.5297-0.1741-0.78529l-0.33708-1.3224h-0.28152l-0.33708 1.3224c-0.059267 0.2593-0.11853 0.52229-0.17039 0.78529h-0.014817c-0.048154-0.263-0.096308-0.52229-0.14446-0.78529l-0.25559-1.3224h-0.31856z"/>
      <path d="m4.599 265.59c0 0.32227 0.22595 0.51118 0.5297 0.51118 0.22225 0 0.42228-0.11853 0.59637-0.25929h0.00741l0.025929 0.21484h0.25188v-1.1038c0-0.44821-0.18521-0.74084-0.626-0.74084-0.28892 0-0.54081 0.12595-0.7075 0.23337l0.12224 0.21113c0.14076-0.0963 0.32597-0.19261 0.5371-0.19261 0.29263 0 0.37042 0.22225 0.37042 0.45191-0.76676 0.0852-1.1075 0.28151-1.1075 0.67415zm0.30004-0.0222c0-0.22966 0.20373-0.37783 0.80751-0.45191v0.50006c-0.1741 0.15558-0.31856 0.24077-0.49265 0.24077-0.1778 0-0.31485-0.0852-0.31485-0.28892z"/>
      <path d="m6.739 263.89c0.11853 0 0.21114-0.0815 0.21114-0.19632 0-0.11854-0.092604-0.19632-0.21114-0.19632-0.11853 0-0.21114 0.0778-0.21114 0.19632 0 0.11483 0.092604 0.19632 0.21114 0.19632zm-0.15558 2.1706h0.30374v-1.8002h-0.30374z"/>
      <path d="m7.5468 265.5c0 0.3556 0.12965 0.60008 0.51488 0.60008 0.11112 0 0.23336-0.0333 0.33338-0.0667l-0.059267-0.22965c-0.059267 0.0222-0.14076 0.0482-0.20373 0.0482-0.20743 0-0.27781-0.12594-0.27781-0.34819v-1.0001h0.48525v-0.24818h-0.48525v-0.50376h-0.25559l-0.037042 0.50376-0.28152 0.0185v0.22965h0.2667z"/>
      <path d="m9.4806 266.06h1.3335v-0.25188h-0.48895v-2.1114h-0.23336c-0.12965 0.0778-0.28522 0.13706-0.50006 0.1741v0.19632h0.42968v1.741h-0.54081z"/>
      <path d="m11.948 266.1c0.47043 0 0.75565-0.4408 0.75565-1.2335s-0.28522-1.2187-0.75565-1.2187c-0.47413 0-0.75935 0.42598-0.75935 1.2187s0.28522 1.2335 0.75935 1.2335zm0-0.24448c-0.27781 0-0.46302-0.29633-0.46302-0.98901s0.18521-0.97419 0.46302-0.97419c0.27411 0 0.45932 0.28151 0.45932 0.97419s-0.18521 0.98901-0.45932 0.98901z"/>
      <path d="m13.712 265.85c0.17039 0.14076 0.41487 0.24818 0.67045 0.24818 0.42598 0 0.65934-0.24448 0.65934-0.5371 0-0.34079-0.28892-0.44821-0.54822-0.54452-0.20373-0.0778-0.40005-0.14446-0.40005-0.31115 0-0.13705 0.10372-0.25929 0.32967-0.25929 0.15928 0 0.28892 0.0667 0.41116 0.15928l0.14446-0.19262c-0.13705-0.11112-0.33338-0.20373-0.55933-0.20373-0.38894 0-0.6186 0.22225-0.6186 0.51118 0 0.30374 0.28152 0.42598 0.5371 0.51858 0.19632 0.0741 0.41116 0.15558 0.41116 0.34079 0 0.15557-0.11853 0.28151-0.3556 0.28151-0.21484 0-0.37412-0.0889-0.5297-0.21484z"/>
     </g>
     <path d="m-7.7836 252.03h7.9375" fill="#1d232d" stroke="#47d58a" stroke-linecap="round"/>
    </g>
   </g>
  </g>
  <g fill="#47d58a">
   <circle cx="-5.6669" cy="252.56" r=".52917"/>
   <circle cx="-3.8148" cy="251.5" r=".52917"/>
   <circle cx="-1.9627" cy="252.56" r=".52917"/>
  </g>
  <g stroke="#47d58a" stroke-linecap="square">
   <path d="m-3.8148 248.46v3.175" fill="#7893ea" stroke-width=".26458"/>
   <path d="m-1.9627 252.69v3.9688h10.451v3.4396" fill="none" stroke-width=".26458"/>
   <ellipse transform="rotate(-90)" cx="-256.66" cy="8.4883" rx=".66146" ry=".66146" fill="#1d232d" stroke-dashoffset="1.2" stroke-miterlimit="40" stroke-width=".26458"/>
   <path d="m-5.6669 252.69v3.9688h-10.451v3.4396" fill="none" stroke-width=".26458"/>
  </g>
  <g fill="#1d232d">
   <ellipse transform="matrix(0,-1,-1,0,0,0)" cx="-256.66" cy="16.118" rx=".66146" ry=".66146" stroke="#47d58a" stroke-dashoffset="1.2" stroke-linecap="square" stroke-miterlimit="40" stroke-width=".26458"/>
   <rect x="48.573" y="260.34" width="17.774" height="8.8871" stroke="#6f8ce9" stroke-width=".26458"/>
   <rect transform="matrix(.91148 .41135 -.91148 .41135 0 0)" x="334.05" y="298.1" width="15.152" height="15.152" stroke="#535e70" stroke-width=".30554"/>
  </g>
  <g stroke-linecap="round" stroke-width=".26458">
   <g fill="#e8eaec" aria-label="On line?">
    <path d="m28.039 267.16c0.60748 0 1.0372-0.48895 1.0372-1.2705 0-0.77417-0.42968-1.2483-1.0372-1.2483-0.61119 0-1.0409 0.47042-1.0409 1.2483 0 0.78158 0.42968 1.2705 1.0409 1.2705zm0-0.27041c-0.43709 0-0.72231-0.39264-0.72231-1.0001 0-0.60378 0.28522-0.9779 0.72231-0.9779 0.43339 0 0.71861 0.37412 0.71861 0.9779 0 0.60748-0.28522 1.0001-0.71861 1.0001z"/>
    <path d="m29.559 267.11h0.30374v-1.3039c0.1815-0.1815 0.30745-0.27781 0.49265-0.27781 0.23707 0 0.34078 0.14446 0.34078 0.48154v1.1001h0.30374v-1.1409c0-0.45932-0.17039-0.7038-0.54822-0.7038-0.24818 0-0.43339 0.13335-0.60378 0.30375h-0.01111l-0.02593-0.2593h-0.25188z"/>
    <path d="m32.33 266.75c0 0.263 0.0926 0.40746 0.32226 0.40746 0.08149 0 0.13335-0.0111 0.1741-0.0296l-0.04075-0.22965c-0.03334 7e-3 -0.04815 7e-3 -0.06667 7e-3 -0.04445 0-0.0852-0.037-0.0852-0.13335v-2.2966h-0.30374z"/>
    <path d="m33.433 264.94c0.11853 0 0.21114-0.0815 0.21114-0.19632 0-0.11854-0.0926-0.19632-0.21114-0.19632-0.11853 0-0.21114 0.0778-0.21114 0.19632 0 0.11483 0.0926 0.19632 0.21114 0.19632zm-0.15558 2.1706h0.30374v-1.8002h-0.30374z"/>
    <path d="m34.189 267.11h0.30374v-1.3039c0.1815-0.1815 0.30745-0.27781 0.49265-0.27781 0.23707 0 0.34078 0.14446 0.34078 0.48154v1.1001h0.30374v-1.1409c0-0.45932-0.17039-0.7038-0.54822-0.7038-0.24818 0-0.43339 0.13335-0.60378 0.30375h-0.01111l-0.02593-0.2593h-0.25188z"/>
    <path d="m36.081 266.22c0 0.58896 0.38153 0.94086 0.86307 0.94086 0.24448 0 0.43709-0.0852 0.59267-0.18521l-0.10742-0.20003c-0.13335 0.0852-0.27781 0.14076-0.4482 0.14076-0.34449 0-0.57785-0.24447-0.60008-0.63341h1.215c0.0074-0.0444 0.01111-0.10372 0.01111-0.16669 0-0.51488-0.25929-0.84455-0.71861-0.84455-0.41116 0-0.80751 0.35931-0.80751 0.94827zm0.29633-0.13705c0.03704-0.36301 0.2667-0.57045 0.51858-0.57045 0.28152 0 0.4445 0.20373 0.4445 0.57045z"/>
    <path d="m38.319 266.38h0.2667c-0.05927-0.51858 0.5371-0.7149 0.5371-1.2002 0-0.36671-0.25188-0.59266-0.63341-0.59266-0.263 0-0.46672 0.12964-0.6223 0.30744l0.1741 0.15928c0.11483-0.13335 0.263-0.21484 0.42598-0.21484 0.23707 0 0.3593 0.16298 0.3593 0.3593 0 0.39265-0.58896 0.60378-0.50747 1.1816zm-0.07779 0.54822c0 0.13335 0.09631 0.22966 0.21855 0.22966 0.12224 0 0.22225-0.0963 0.22225-0.22966 0-0.14076-0.10001-0.23707-0.22225-0.23707-0.12224 0-0.21855 0.0963-0.21855 0.23707z"/>
   </g>
   <g fill="#e8eaec" aria-label="Patrol">
    <path d="m52.971 266.06h0.31115v-0.96308h0.43709c0.5297 0 0.89641-0.24077 0.89641-0.75195 0-0.5334-0.3593-0.7149-0.89641-0.7149h-0.74824zm0.31115-1.215v-0.96678h0.39635c0.41857 0 0.62971 0.11482 0.62971 0.46672 0 0.34449-0.20373 0.50006-0.62971 0.50006z"/>
    <path d="m54.817 265.59c0 0.32227 0.22595 0.51118 0.5297 0.51118 0.22225 0 0.42228-0.11853 0.59637-0.25929h0.0074l0.02593 0.21484h0.25188v-1.1038c0-0.44821-0.18521-0.74084-0.626-0.74084-0.28892 0-0.54081 0.12595-0.7075 0.23337l0.12224 0.21113c0.14076-0.0963 0.32597-0.19261 0.5371-0.19261 0.29263 0 0.37042 0.22225 0.37042 0.45191-0.76676 0.0852-1.1075 0.28151-1.1075 0.67415zm0.30004-0.0222c0-0.22966 0.20373-0.37783 0.80751-0.45191v0.50006c-0.1741 0.15558-0.31856 0.24077-0.49266 0.24077-0.1778 0-0.31485-0.0852-0.31485-0.28892z"/>
    <path d="m56.853 265.5c0 0.3556 0.12964 0.60008 0.51488 0.60008 0.11112 0 0.23336-0.0333 0.33338-0.0667l-0.05927-0.22965c-0.05927 0.0222-0.14076 0.0482-0.20373 0.0482-0.20743 0-0.27781-0.12594-0.27781-0.34819v-1.0001h0.48525v-0.24818h-0.48524v-0.50376h-0.25559l-0.03704 0.50376-0.28152 0.0185v0.22965h0.2667z"/>
    <path d="m58.053 266.06h0.30374v-1.1557c0.12224-0.30374 0.30374-0.41487 0.45561-0.41487 0.07408 0 0.11483 0.0111 0.1741 0.0296l0.05927-0.2667c-0.05927-0.0259-0.11483-0.037-0.19262-0.037-0.20373 0-0.38894 0.14447-0.51118 0.37042h-0.01111l-0.02593-0.32597h-0.25188z"/>
    <path d="m59.171 265.16c0 0.59637 0.39264 0.94086 0.83344 0.94086s0.83344-0.34449 0.83344-0.94086c0-0.60378-0.39264-0.94827-0.83344-0.94827s-0.83344 0.34449-0.83344 0.94827zm0.31485 0c0-0.41487 0.21114-0.69638 0.51858-0.69638 0.31115 0 0.51858 0.28151 0.51858 0.69638 0 0.41116-0.20743 0.68898-0.51858 0.68898-0.30745 0-0.51858-0.27782-0.51858-0.68898z"/>
    <path d="m61.315 265.69c0 0.263 0.0926 0.40746 0.32226 0.40746 0.08149 0 0.13335-0.0111 0.1741-0.0296l-0.04075-0.22966c-0.03334 7e-3 -0.04815 7e-3 -0.06667 7e-3 -0.04445 0-0.0852-0.0371-0.0852-0.13335v-2.2966h-0.30374z"/>
   </g>
   <path d="m41.164 252.03h7.9375" fill="#1d232d" stroke="#47d58a"/>
  </g>
  <g fill="#47d58a">
   <circle cx="43.281" cy="252.56" r=".52917"/>
   <circle cx="45.133" cy="251.5" r=".52917"/>
   <circle cx="46.985" cy="252.56" r=".52917"/>
  </g>
  <g stroke="#47d58a" stroke-linecap="square">
   <path d="m45.133 248.46v3.175" fill="#7893ea" stroke-width=".26458"/>
   <path d="m46.985 252.69v3.9688h10.451v3.4396" fill="none" stroke-width=".26458"/>
   <ellipse transform="rotate(-90)" cx="-256.66" cy="57.436" rx=".66146" ry=".66146" fill="#1d232d" stroke-dashoffset="1.2" stroke-miterlimit="40" stroke-width=".26458"/>
   <path d="m43.281 252.69v3.9688h-10.451v3.4396" fill="none" stroke-width=".26458"/>
   <ellipse transform="matrix(0,-1,-1,0,0,0)" cx="-256.66" cy="-32.83" rx=".66146" ry=".66146" fill="#1d232d" stroke-dashoffset="1.2" stroke-miterlimit="40" stroke-width=".26458"/>
  </g>
  <ellipse transform="matrix(-.42777 -.90389 .98869 -.14999 0 0)" cx="-267.45" cy="-158.06" rx="5.4639" ry="8.8227" fill="#1d232d" stroke="#535e70" stroke-width=".27035"/>
  <g transform="matrix(.9998 0 0 .9998 -749.55 -117.75)" stroke-width=".63513">
   <g fill="none" stroke="#e8eaec" stroke-width=".26464">
    <path d="m705 382.36v-2h2"/>
    <path d="m710.8 382.36v-2h-2"/>
    <path d="m705 384.16v2h2"/>
    <path d="m710.8 384.16v2h-2"/>
   </g>
   <rect x="706.26" y="381.64" width="3.3438" height="3.3438" fill="#e8eaec"/>
  </g>
  <path d="m-45.619 274.26h7.9375" fill="#1d232d" stroke="#47d58a" stroke-linecap="round" stroke-width=".26458"/>
  <g fill="#47d58a">
   <circle cx="-43.502" cy="274.79" r=".52917"/>
   <circle cx="-41.65" cy="273.73" r=".52917"/>
   <circle cx="-39.798" cy="274.79" r=".52917"/>
  </g>
  <g stroke="#47d58a" stroke-linecap="square">
   <path d="m-41.65 270.69v3.175" fill="#7893ea" stroke-width=".26458"/>
   <path d="m-39.798 274.92v3.9688h10.451v3.4396" fill="none" stroke-width=".26458"/>
   <ellipse transform="rotate(-90)" cx="-278.89" cy="-29.347" rx=".66146" ry=".66146" fill="#1d232d" stroke-dashoffset="1.2" stroke-miterlimit="40" stroke-width=".26458"/>
   <path d="m-43.502 274.92v3.9688h-10.451v3.4396" fill="none" stroke-width=".26458"/>
  </g>
  <g>
   <g>
    <ellipse transform="matrix(0,-1,-1,0,0,0)" cx="-278.89" cy="53.953" rx=".66146" ry=".66146" fill="#1d232d" stroke="#47d58a" stroke-dashoffset="1.2" stroke-linecap="square" stroke-miterlimit="40" stroke-width=".26458"/>
    <ellipse transform="matrix(-.42777 -.90389 .98869 -.14999 0 0)" cx="-288.48" cy="-179.47" rx="5.4639" ry="8.8227" fill="#1d232d" stroke="#535e70" stroke-width=".27035"/>
    <path d="m-59.12 287.59 9.4482 0.11291" fill="#e9e56f" fill-rule="evenodd" stroke="#e8eaec" stroke-width=".26458"/>
   </g>
   <g transform="matrix(.0042365 0 0 .0043091 -50.228 286.52)" fill="#e8eaec" stroke-width="123.85">
    <g fill="#e8eaec" stroke-width="123.85">
     <path d="m486.41 221.41-364.07-208.5c-52.938-30.318-95.852-5.44-95.852 55.563v415.65c0 61.004 42.914 85.882 95.852 55.563l364.07-208.49c52.938-30.317 52.938-79.473 0-109.79z" fill="#e8eaec" stroke-width="123.85"/>
    </g>
   </g>
   <g>
    <g stroke-width=".26458">
     <rect x="-38.211" y="282.57" width="17.774" height="8.8871" fill="#1d232d" stroke="#6f8ce9"/>
     <g fill="#e8eaec" stroke-linecap="round" aria-label="Chase">
      <path d="m-34 287.07c0 0.79269 0.45561 1.2594 1.0668 1.2594 0.30745 0 0.54822-0.12965 0.73713-0.3519l-0.1741-0.18891c-0.15558 0.17409-0.32597 0.2704-0.55562 0.2704-0.46302 0-0.75565-0.38523-0.75565-0.99642 0-0.60378 0.30744-0.9816 0.77047-0.9816 0.20002 0 0.3556 0.0889 0.48525 0.22595l0.1741-0.19632c-0.14446-0.15928-0.37412-0.30004-0.66305-0.30004-0.6223 0-1.0853 0.47784-1.0853 1.2594z"/>
      <path d="m-31.78 288.28h0.30374v-1.3039c0.1815-0.18151 0.30745-0.27781 0.49265-0.27781 0.23707 0 0.34078 0.14446 0.34078 0.48154v1.1001h0.30374v-1.1409c0-0.45931-0.17039-0.70379-0.54822-0.70379-0.24818 0-0.42968 0.13335-0.60008 0.29633l0.01111-0.37041v-0.71861h-0.30374z"/>
      <path d="m-29.851 287.81c0 0.32226 0.22595 0.51118 0.5297 0.51118 0.22225 0 0.42228-0.11854 0.59637-0.2593h0.0074l0.02593 0.21485h0.25188v-1.1038c0-0.4482-0.18521-0.74083-0.626-0.74083-0.28892 0-0.54081 0.12594-0.7075 0.23336l0.12224 0.21114c0.14076-0.0963 0.32597-0.19262 0.5371-0.19262 0.29263 0 0.37042 0.22225 0.37042 0.45191-0.76676 0.0852-1.1075 0.28152-1.1075 0.67416zm0.30004-0.0222c0-0.22966 0.20373-0.37783 0.80751-0.45191v0.50006c-0.1741 0.15557-0.31856 0.24077-0.49265 0.24077-0.1778 0-0.31485-0.0852-0.31485-0.28892z"/>
      <path d="m-28.066 288.08c0.17039 0.14075 0.41487 0.24818 0.67045 0.24818 0.42598 0 0.65934-0.24448 0.65934-0.53711 0-0.34078-0.28892-0.4482-0.54822-0.54451-0.20373-0.0778-0.40005-0.14446-0.40005-0.31115 0-0.13706 0.10372-0.25929 0.32967-0.25929 0.15928 0 0.28892 0.0667 0.41116 0.15928l0.14446-0.19262c-0.13705-0.11113-0.33338-0.20373-0.55933-0.20373-0.38894 0-0.6186 0.22225-0.6186 0.51118 0 0.30374 0.28152 0.42597 0.5371 0.51858 0.19632 0.0741 0.41116 0.15557 0.41116 0.34078 0 0.15558-0.11853 0.28152-0.3556 0.28152-0.21484 0-0.37412-0.0889-0.5297-0.21484z"/>
      <path d="m-26.444 287.38c0 0.58896 0.38153 0.94086 0.86307 0.94086 0.24448 0 0.43709-0.0852 0.59267-0.18521l-0.10742-0.20003c-0.13335 0.0852-0.27781 0.14076-0.4482 0.14076-0.34449 0-0.57785-0.24447-0.60008-0.63341h1.215c0.0074-0.0444 0.01111-0.10372 0.01111-0.16669 0-0.51488-0.25929-0.84455-0.71861-0.84455-0.41116 0-0.80751 0.3593-0.80751 0.94827zm0.29633-0.13706c0.03704-0.36301 0.2667-0.57044 0.51858-0.57044 0.28152 0 0.4445 0.20373 0.4445 0.57044z"/>
     </g>
     <rect x="-50.646" y="304.79" width="17.774" height="8.8871" fill="#1d232d" stroke="#6f8ce9"/>
    </g>
    <rect transform="matrix(.91148 .41135 -.91148 .41135 0 0)" x="333.65" y="406.56" width="15.152" height="15.152" fill="#1d232d" stroke="#535e70" stroke-width=".30554"/>
    <g stroke-linecap="round" stroke-width=".26458">
     <g fill="#e8eaec" aria-label="Enemy close enough?">
      <path d="m-74.186 309.98h1.2319v-0.22543h-0.9652v-0.75565h0.7874v-0.22542h-0.7874v-0.65405h0.93345v-0.22225h-1.2002z"/>
      <path d="m-72.546 309.98h0.26035v-1.1176c0.15558-0.15558 0.26352-0.23813 0.42228-0.23813 0.2032 0 0.2921 0.12383 0.2921 0.41275v0.94298h0.26035v-0.9779c0-0.3937-0.14605-0.60325-0.4699-0.60325-0.21272 0-0.37148 0.1143-0.51752 0.26035h-0.0095l-0.02223-0.22225h-0.2159z"/>
      <path d="m-70.924 309.21c0 0.50482 0.32702 0.80645 0.73978 0.80645 0.20955 0 0.37465-0.073 0.508-0.15875l-0.09208-0.17145c-0.1143 0.073-0.23812 0.12065-0.38418 0.12065-0.29528 0-0.4953-0.20955-0.51435-0.54293h1.0414c0.0063-0.0381 0.0095-0.0889 0.0095-0.14287 0-0.44133-0.22225-0.7239-0.61595-0.7239-0.35242 0-0.69215 0.30797-0.69215 0.8128zm0.254-0.11748c0.03175-0.31115 0.2286-0.48895 0.4445-0.48895 0.2413 0 0.381 0.17463 0.381 0.48895z"/>
      <path d="m-69.234 309.98h0.26035v-1.1176c0.14288-0.15875 0.27305-0.23813 0.38735-0.23813 0.19685 0 0.28892 0.12383 0.28892 0.41275v0.94298h0.26035v-1.1176c0.14288-0.15875 0.2667-0.23813 0.38735-0.23813 0.19368 0 0.28575 0.12383 0.28575 0.41275v0.94298h0.26035v-0.9779c0-0.3937-0.1524-0.60325-0.4699-0.60325-0.18732 0-0.34608 0.12065-0.508 0.29527-0.0635-0.18415-0.1905-0.29527-0.42545-0.29527-0.18415 0-0.34608 0.1143-0.47942 0.26035h-0.0095l-0.02222-0.22225h-0.2159z"/>
      <path d="m-66.71 310.4-0.0508 0.20637c0.0508 0.019 0.11112 0.0317 0.18098 0.0317 0.31115 0 0.4699-0.23177 0.57785-0.53657l0.58102-1.67h-0.254l-0.27622 0.85407c-0.04127 0.13653-0.08573 0.29528-0.13018 0.43498h-0.0127c-0.04762-0.14288-0.1016-0.30163-0.14922-0.43498l-0.31432-0.85407h-0.26988l0.61912 1.5462-0.03493 0.1143c-0.0635 0.1905-0.17462 0.3302-0.34925 0.3302-0.0381 0-0.08572-0.0127-0.11748-0.0222z"/>
      <path d="m-64.598 309.21c0 0.51117 0.31432 0.80645 0.7239 0.80645 0.18415 0 0.36195-0.0762 0.50165-0.20003l-0.11748-0.17145c-0.09208 0.0825-0.2159 0.15558-0.36195 0.15558-0.28258 0-0.47625-0.23813-0.47625-0.59055 0-0.3556 0.2032-0.5969 0.4826-0.5969 0.12382 0 0.21908 0.0571 0.31115 0.13652l0.13018-0.16827c-0.10478-0.0984-0.24765-0.18415-0.45085-0.18415-0.39688 0-0.74295 0.29527-0.74295 0.8128z"/>
      <path d="m-63.039 309.67c0 0.22542 0.07938 0.34925 0.27622 0.34925 0.06985 0 0.1143-0.01 0.14922-0.0254l-0.03493-0.19685c-0.02858 6e-3 -0.04127 6e-3 -0.05715 6e-3 -0.0381 0-0.07303-0.0317-0.07303-0.1143v-1.9685h-0.26035z"/>
      <path d="m-62.341 309.21c0 0.51117 0.33655 0.80645 0.71438 0.80645s0.71437-0.29528 0.71437-0.80645c0-0.51753-0.33655-0.8128-0.71437-0.8128s-0.71438 0.29527-0.71438 0.8128zm0.26988 0c0-0.3556 0.18098-0.5969 0.4445-0.5969 0.2667 0 0.4445 0.2413 0.4445 0.5969 0 0.35242-0.1778 0.59055-0.4445 0.59055-0.26352 0-0.4445-0.23813-0.4445-0.59055z"/>
      <path d="m-60.674 309.8c0.14605 0.12065 0.3556 0.21273 0.57468 0.21273 0.36512 0 0.56515-0.20955 0.56515-0.46038 0-0.2921-0.24765-0.38417-0.4699-0.46672-0.17462-0.0667-0.3429-0.12383-0.3429-0.2667 0-0.11748 0.0889-0.22225 0.28258-0.22225 0.13652 0 0.24765 0.0571 0.35242 0.13652l0.12382-0.1651c-0.11748-0.0953-0.28575-0.17462-0.47942-0.17462-0.33338 0-0.53022 0.1905-0.53022 0.43815 0 0.26035 0.2413 0.36512 0.46038 0.4445 0.16828 0.0635 0.35242 0.13335 0.35242 0.2921 0 0.13335-0.1016 0.2413-0.3048 0.2413-0.18415 0-0.32068-0.0762-0.45402-0.18415z"/>
      <path d="m-59.284 309.21c0 0.50482 0.32702 0.80645 0.73978 0.80645 0.20955 0 0.37465-0.073 0.508-0.15875l-0.09207-0.17145c-0.1143 0.073-0.23812 0.12065-0.38418 0.12065-0.29528 0-0.4953-0.20955-0.51435-0.54293h1.0414c0.0063-0.0381 0.0095-0.0889 0.0095-0.14287 0-0.44133-0.22225-0.7239-0.61595-0.7239-0.35242 0-0.69215 0.30797-0.69215 0.8128zm0.254-0.11748c0.03175-0.31115 0.2286-0.48895 0.4445-0.48895 0.2413 0 0.381 0.17463 0.381 0.48895z"/>
      <path d="m-71.727 313.84c0 0.50483 0.32702 0.80645 0.73978 0.80645 0.20955 0 0.37465-0.073 0.508-0.15875l-0.09207-0.17145c-0.1143 0.073-0.23812 0.12065-0.38418 0.12065-0.29528 0-0.4953-0.20955-0.51435-0.54292h1.0414c0.0064-0.0381 0.0095-0.0889 0.0095-0.14288 0-0.44132-0.22225-0.7239-0.61595-0.7239-0.35242 0-0.69215 0.30798-0.69215 0.8128zm0.254-0.11747c0.03175-0.31115 0.2286-0.48895 0.4445-0.48895 0.2413 0 0.381 0.17462 0.381 0.48895z"/>
      <path d="m-70.037 314.61h0.26035v-1.1176c0.15558-0.15557 0.26352-0.23812 0.42228-0.23812 0.2032 0 0.2921 0.12382 0.2921 0.41275v0.94297h0.26035v-0.9779c0-0.3937-0.14605-0.60325-0.4699-0.60325-0.21272 0-0.37148 0.1143-0.51752 0.26035h-0.0095l-0.02223-0.22225h-0.2159z"/>
      <path d="m-68.415 313.84c0 0.51118 0.33655 0.80645 0.71438 0.80645s0.71438-0.29527 0.71438-0.80645c0-0.51752-0.33655-0.8128-0.71438-0.8128s-0.71438 0.29528-0.71438 0.8128zm0.26988 0c0-0.3556 0.18098-0.5969 0.4445-0.5969 0.2667 0 0.4445 0.2413 0.4445 0.5969 0 0.35243-0.1778 0.59055-0.4445 0.59055-0.26352 0-0.4445-0.23812-0.4445-0.59055z"/>
      <path d="m-66.599 314.04c0 0.3937 0.14605 0.60325 0.47308 0.60325 0.21272 0 0.36512-0.11112 0.508-0.2794h0.0095l0.02222 0.2413h0.2159v-1.543h-0.26035v1.0954c-0.14605 0.18097-0.25718 0.26035-0.41592 0.26035-0.2032 0-0.28892-0.12383-0.28892-0.41275v-0.94298h-0.26352z"/>
      <path d="m-64.736 314.87c0-0.0889 0.04763-0.18097 0.15875-0.26035 0.06667 0.019 0.1397 0.0254 0.20002 0.0254h0.2667c0.20002 0 0.31115 0.0476 0.31115 0.1905 0 0.16193-0.19368 0.31433-0.48895 0.31433-0.2794 0-0.44768-0.10478-0.44768-0.26988zm-0.2286 0.0349c0 0.2667 0.26035 0.41592 0.63818 0.41592 0.47942 0 0.78105-0.24765 0.78105-0.5334 0-0.25717-0.18098-0.3683-0.53975-0.3683h-0.29845c-0.20955 0-0.27305-0.0699-0.27305-0.16827 0-0.0857 0.04445-0.13653 0.09843-0.18415 0.06985 0.0349 0.15558 0.054 0.23178 0.054 0.31432 0 0.56515-0.20637 0.56515-0.53657 0-0.13018-0.05398-0.24765-0.127-0.3175h0.3175v-0.20003h-0.53658c-0.05715-0.0222-0.13335-0.0381-0.21908-0.0381-0.31432 0-0.58102 0.21273-0.58102 0.54928 0 0.18415 0.09842 0.33337 0.20002 0.41592v0.0127c-0.07937 0.054-0.16828 0.15558-0.16828 0.28575 0 0.12065 0.06032 0.2032 0.13652 0.25083v0.0127c-0.1397 0.0952-0.22542 0.21907-0.22542 0.34925zm0.63818-0.95885c-0.1778 0-0.32702-0.14288-0.32702-0.3683 0-0.22543 0.14605-0.35878 0.32702-0.35878s0.32702 0.13335 0.32702 0.35878c0 0.22542-0.14922 0.3683-0.32702 0.3683z"/>
      <path d="m-63.247 314.61h0.26035v-1.1176c0.15558-0.15557 0.26352-0.23812 0.42228-0.23812 0.2032 0 0.2921 0.12382 0.2921 0.41275v0.94297h0.26035v-0.9779c0-0.3937-0.14605-0.60325-0.4699-0.60325-0.21272 0-0.3683 0.1143-0.51435 0.254l0.0095-0.3175v-0.61595h-0.26035z"/>
      <path d="m-61.288 313.98h0.2286c-0.0508-0.4445 0.46038-0.61277 0.46038-1.0287 0-0.31432-0.2159-0.508-0.54292-0.508-0.22542 0-0.40005 0.11113-0.5334 0.26353l0.14922 0.13652c0.09842-0.1143 0.22542-0.18415 0.36512-0.18415 0.2032 0 0.30798 0.1397 0.30798 0.30798 0 0.33655-0.50482 0.51752-0.43498 1.0128zm-0.06667 0.4699c0 0.1143 0.08255 0.19685 0.18732 0.19685s0.1905-0.0825 0.1905-0.19685c0-0.12065-0.08573-0.2032-0.1905-0.2032-0.10478 0-0.18732 0.0825-0.18732 0.2032z"/>
     </g>
     <g fill="#e8eaec" aria-label="Melee Attack">
      <path d="m-46.161 308.12h0.28522v-1.3372c0-0.21484-0.02223-0.50377-0.03704-0.71861h0.01482l0.19262 0.54081 0.46672 1.2705h0.1778l0.46672-1.2705 0.19262-0.54081h0.01482c-0.01482 0.21484-0.04075 0.50377-0.04075 0.71861v1.3372h0.29263v-2.4299h-0.36301l-0.46672 1.3039-0.17039 0.49636h-0.01482l-0.1741-0.49636-0.47043-1.3039h-0.36671z"/>
      <path d="m-43.636 307.23c0 0.58896 0.38153 0.94086 0.86307 0.94086 0.24448 0 0.43709-0.0852 0.59267-0.18521l-0.10742-0.20003c-0.13335 0.0852-0.27781 0.14076-0.4482 0.14076-0.34449 0-0.57785-0.24447-0.60008-0.63341h1.215c0.0074-0.0444 0.01111-0.10372 0.01111-0.16669 0-0.51488-0.25929-0.84455-0.71861-0.84455-0.41116 0-0.80751 0.3593-0.80751 0.94827zm0.29633-0.13706c0.03704-0.36301 0.2667-0.57044 0.51858-0.57044 0.28152 0 0.4445 0.20373 0.4445 0.57044z"/>
      <path d="m-41.665 307.76c0 0.26299 0.0926 0.40746 0.32226 0.40746 0.08149 0 0.13335-0.0111 0.1741-0.0296l-0.04075-0.22966c-0.03334 7e-3 -0.04815 7e-3 -0.06667 7e-3 -0.04445 0-0.0852-0.037-0.0852-0.13335v-2.2966h-0.30374z"/>
      <path d="m-40.851 307.23c0 0.58896 0.38153 0.94086 0.86307 0.94086 0.24448 0 0.43709-0.0852 0.59267-0.18521l-0.10742-0.20003c-0.13335 0.0852-0.27781 0.14076-0.4482 0.14076-0.34449 0-0.57785-0.24447-0.60008-0.63341h1.215c0.0074-0.0444 0.01111-0.10372 0.01111-0.16669 0-0.51488-0.25929-0.84455-0.71861-0.84455-0.41116 0-0.80751 0.3593-0.80751 0.94827zm0.29633-0.13706c0.03704-0.36301 0.2667-0.57044 0.51858-0.57044 0.28152 0 0.4445 0.20373 0.4445 0.57044z"/>
      <path d="m-39.013 307.23c0 0.58896 0.38153 0.94086 0.86307 0.94086 0.24448 0 0.43709-0.0852 0.59267-0.18521l-0.10742-0.20003c-0.13335 0.0852-0.27781 0.14076-0.4482 0.14076-0.34449 0-0.57785-0.24447-0.60008-0.63341h1.215c0.0074-0.0444 0.01111-0.10372 0.01111-0.16669 0-0.51488-0.25929-0.84455-0.71861-0.84455-0.41116 0-0.80751 0.3593-0.80751 0.94827zm0.29633-0.13706c0.03704-0.36301 0.2667-0.57044 0.51858-0.57044 0.28152 0 0.4445 0.20373 0.4445 0.57044z"/>
      <path d="m-46.183 311.9 0.11853-0.37042c0.0852-0.2704 0.16298-0.5371 0.24077-0.81862h0.01482c0.07779 0.28152 0.15558 0.54822 0.24077 0.81862l0.11483 0.37042zm1.0409 0.98901h0.32597l-0.82232-2.4299h-0.34819l-0.82232 2.4299h0.31485l0.23336-0.74083h0.8853z"/>
      <path d="m-44.515 312.34c0 0.3556 0.12965 0.60007 0.51488 0.60007 0.11112 0 0.23336-0.0333 0.33338-0.0667l-0.05927-0.22966c-0.05927 0.0222-0.14076 0.0482-0.20373 0.0482-0.20743 0-0.27781-0.12594-0.27781-0.34819v-1.0001h0.48525v-0.24818h-0.48525v-0.50377h-0.25559l-0.03704 0.50377-0.28152 0.0185v0.22966h0.2667z"/>
      <path d="m-43.263 312.34c0 0.3556 0.12965 0.60007 0.51488 0.60007 0.11112 0 0.23336-0.0333 0.33338-0.0667l-0.05927-0.22966c-0.05927 0.0222-0.14076 0.0482-0.20373 0.0482-0.20743 0-0.27781-0.12594-0.27781-0.34819v-1.0001h0.48525v-0.24818h-0.48525v-0.50377h-0.25559l-0.03704 0.50377-0.28152 0.0185v0.22966h0.2667z"/>
      <path d="m-42.217 312.43c0 0.32226 0.22595 0.51117 0.5297 0.51117 0.22225 0 0.42228-0.11853 0.59637-0.25929h0.0074l0.02593 0.21484h0.25188v-1.1038c0-0.4482-0.18521-0.74083-0.626-0.74083-0.28892 0-0.54081 0.12594-0.7075 0.23336l0.12224 0.21114c0.14076-0.0963 0.32597-0.19262 0.5371-0.19262 0.29263 0 0.37042 0.22225 0.37042 0.45191-0.76676 0.0852-1.1075 0.28151-1.1075 0.67416zm0.30004-0.0222c0-0.22966 0.20373-0.37782 0.80751-0.45191v0.50007c-0.1741 0.15557-0.31856 0.24077-0.49265 0.24077-0.1778 0-0.31485-0.0852-0.31485-0.28893z"/>
      <path d="m-40.366 312c0 0.59637 0.36671 0.94086 0.84455 0.94086 0.21484 0 0.42228-0.0889 0.58526-0.23336l-0.13706-0.20003c-0.10742 0.0963-0.25188 0.18151-0.42228 0.18151-0.32967 0-0.55562-0.27781-0.55562-0.68898 0-0.41486 0.23707-0.69638 0.56303-0.69638 0.14446 0 0.25559 0.0667 0.36301 0.15928l0.15187-0.19632c-0.12224-0.11483-0.28892-0.21484-0.52599-0.21484-0.46302 0-0.86678 0.34448-0.86678 0.94826z"/>
      <path d="m-38.547 312.89h0.30004v-0.47413l0.33708-0.39264 0.52599 0.86677h0.33338l-0.68527-1.0779 0.60378-0.72231h-0.33708l-0.76676 0.94826h-0.01111v-1.7854h-0.30004z"/>
     </g>
     <path d="m-58.054 296.48h7.9375" fill="#1d232d" stroke="#47d58a"/>
    </g>
   </g>
  </g>
  <g fill="#47d58a">
   <circle cx="-55.938" cy="297.01" r=".52917"/>
   <circle cx="-54.086" cy="295.95" r=".52917"/>
   <circle cx="-52.234" cy="297.01" r=".52917"/>
  </g>
  <g stroke="#47d58a" stroke-linecap="square">
   <path d="m-54.086 292.91v3.175" fill="#7893ea" stroke-width=".26458"/>
   <path d="m-52.234 297.14v3.9688h10.451v3.4396" fill="none" stroke-width=".26458"/>
   <ellipse transform="rotate(-90)" cx="-301.11" cy="-41.782" rx=".66146" ry=".66146" fill="#1d232d" stroke-dashoffset="1.2" stroke-miterlimit="40" stroke-width=".26458"/>
   <path d="m-55.938 297.14v3.9688h-10.451v3.4396" fill="none" stroke-width=".26458"/>
  </g>
  <g>
   <ellipse transform="matrix(0,-1,-1,0,0,0)" cx="-301.11" cy="66.389" rx=".66146" ry=".66146" fill="#1d232d" stroke="#47d58a" stroke-dashoffset="1.2" stroke-linecap="square" stroke-miterlimit="40" stroke-width=".26458"/>
   <rect x="-.63982" y="282.04" width="17.774" height="8.8871" fill="#1d232d" stroke="#6f8ce9" stroke-width=".26458"/>
   <g fill="#e8eaec" stroke-linecap="round" stroke-width=".26458" aria-label="Go to line">
    <path d="m0.91525 286.54c0 0.7927 0.45561 1.2594 1.0927 1.2594 0.32597 0 0.59637-0.12594 0.75565-0.28152v-1.0224h-0.7964v0.25559h0.51488v0.63341c-0.096308 0.0889-0.2667 0.14447-0.4408 0.14447-0.51858 0-0.80751-0.38524-0.80751-0.99642 0-0.60378 0.31485-0.98161 0.80751-0.98161 0.24077 0 0.39264 0.0963 0.51488 0.22596l0.1778-0.19633c-0.14446-0.14816-0.36671-0.30003-0.69638-0.30003-0.65193 0-1.1224 0.47783-1.1224 1.2594z"/>
    <path d="m3.1686 286.86c0 0.59637 0.39264 0.94086 0.83344 0.94086 0.4408 0 0.83344-0.34449 0.83344-0.94086 0-0.60378-0.39264-0.94826-0.83344-0.94826-0.4408 0-0.83344 0.34448-0.83344 0.94826zm0.31485 0c0-0.41486 0.21114-0.69638 0.51858-0.69638 0.31115 0 0.51858 0.28152 0.51858 0.69638 0 0.41116-0.20743 0.68898-0.51858 0.68898-0.30745 0-0.51858-0.27782-0.51858-0.68898z"/>
    <path d="m6.1102 287.2c0 0.3556 0.12965 0.60007 0.51488 0.60007 0.11112 0 0.23336-0.0333 0.33338-0.0667l-0.059267-0.22966c-0.059267 0.0222-0.14076 0.0482-0.20373 0.0482-0.20743 0-0.27781-0.12594-0.27781-0.34819v-1.0001h0.48525v-0.24817h-0.48525v-0.50377h-0.25559l-0.037042 0.50377-0.28152 0.0185v0.22965h0.2667z"/>
    <path d="m7.1405 286.86c0 0.59637 0.39264 0.94086 0.83344 0.94086 0.4408 0 0.83344-0.34449 0.83344-0.94086 0-0.60378-0.39264-0.94826-0.83344-0.94826-0.4408 0-0.83344 0.34448-0.83344 0.94826zm0.31485 0c0-0.41486 0.21114-0.69638 0.51858-0.69638 0.31115 0 0.51858 0.28152 0.51858 0.69638 0 0.41116-0.20743 0.68898-0.51858 0.68898-0.30745 0-0.51858-0.27782-0.51858-0.68898z"/>
    <path d="m10.03 287.39c0 0.263 0.0926 0.40746 0.32226 0.40746 0.08149 0 0.13335-0.0111 0.1741-0.0296l-0.04075-0.22966c-0.03334 7e-3 -0.04815 7e-3 -0.06668 7e-3 -0.04445 0-0.0852-0.037-0.0852-0.13335v-2.2966h-0.30374z"/>
    <path d="m11.134 285.58c0.11853 0 0.21114-0.0815 0.21114-0.19632 0-0.11854-0.0926-0.19632-0.21114-0.19632-0.11853 0-0.21114 0.0778-0.21114 0.19632 0 0.11483 0.0926 0.19632 0.21114 0.19632zm-0.15558 2.1706h0.30374v-1.8002h-0.30374z"/>
    <path d="m11.89 287.75h0.30374v-1.3039c0.1815-0.1815 0.30745-0.27781 0.49265-0.27781 0.23707 0 0.34078 0.14446 0.34078 0.48154v1.1001h0.30374v-1.1409c0-0.45932-0.17039-0.70379-0.54822-0.70379-0.24818 0-0.43339 0.13335-0.60378 0.30374h-0.01111l-0.02593-0.25929h-0.25188z"/>
    <path d="m13.782 286.86c0 0.58896 0.38153 0.94086 0.86307 0.94086 0.24448 0 0.43709-0.0852 0.59267-0.18521l-0.10742-0.20002c-0.13335 0.0852-0.27781 0.14076-0.4482 0.14076-0.34449 0-0.57785-0.24448-0.60008-0.63342h1.215c0.0074-0.0444 0.01111-0.10371 0.01111-0.16668 0-0.51488-0.25929-0.84455-0.71861-0.84455-0.41116 0-0.80751 0.3593-0.80751 0.94826zm0.29633-0.13705c0.03704-0.36301 0.2667-0.57044 0.51858-0.57044 0.28152 0 0.4445 0.20373 0.4445 0.57044z"/>
   </g>
  </g>
 </g>
</svg>
