<?xml version="1.0" encoding="UTF-8" standalone="no"?>
<svg
   xmlns:dc="http://purl.org/dc/elements/1.1/"
   xmlns:cc="http://creativecommons.org/ns#"
   xmlns:rdf="http://www.w3.org/1999/02/22-rdf-syntax-ns#"
   xmlns:svg="http://www.w3.org/2000/svg"
   xmlns="http://www.w3.org/2000/svg"
   xmlns:sodipodi="http://sodipodi.sourceforge.net/DTD/sodipodi-0.dtd"
   xmlns:inkscape="http://www.inkscape.org/namespaces/inkscape"
   width="100.1"
   height="50.1"
   version="1.1"
   viewBox="0 0 26.485 13.256"
   id="svg106"
   sodipodi:docname="chapter_mobs.svg"
   inkscape:version="0.92.3 (2405546, 2018-03-11)">
  <metadata
     id="metadata112">
    <rdf:RDF>
      <cc:Work
         rdf:about="">
        <dc:format>image/svg+xml</dc:format>
        <dc:type
           rdf:resource="http://purl.org/dc/dcmitype/StillImage" />
      </cc:Work>
    </rdf:RDF>
  </metadata>
  <defs
     id="defs110" />
  <sodipodi:namedview
     pagecolor="#ffffff"
     bordercolor="#666666"
     borderopacity="1"
     objecttolerance="10"
     gridtolerance="10"
     guidetolerance="10"
     inkscape:pageopacity="0"
     inkscape:pageshadow="2"
     inkscape:window-width="1612"
     inkscape:window-height="1572"
     id="namedview108"
     showgrid="false"
     inkscape:zoom="9.8048374"
     inkscape:cx="36.218321"
     inkscape:cy="16.212816"
     inkscape:window-x="0"
     inkscape:window-y="0"
     inkscape:window-maximized="0"
     inkscape:current-layer="svg106" />
  <g
     transform="translate(-119.81 -81.063)"
     id="g104">
    <rect
       x="121.13"
       y="82.386"
       width="23.812"
       height="10.583"
       fill="#1d232d"
       style="paint-order:normal"
       id="rect2" />
    <g
       fill="#7b8694"
       id="g48">
      <rect
         x="121.66"
         y="82.121"
         width="1.5875"
         height=".26458"
         id="rect4" />
      <rect
         x="123.77"
         y="82.121"
         width="1.5875"
         height=".26458"
         id="rect6" />
      <rect
         x="125.89"
         y="82.121"
         width="1.5875"
         height=".26458"
         id="rect8" />
      <rect
         x="128.01"
         y="82.121"
         width="1.5875"
         height=".26458"
         id="rect10" />
      <rect
         x="130.12"
         y="82.121"
         width="1.5875"
         height=".26458"
         id="rect12" />
      <rect
         x="132.24"
         y="82.121"
         width="1.5875"
         height=".26458"
         id="rect14" />
      <rect
         x="134.36"
         y="82.121"
         width="1.5875"
         height=".26458"
         id="rect16" />
      <rect
         x="136.47"
         y="82.121"
         width="1.5875"
         height=".26458"
         id="rect18" />
      <rect
         x="138.59"
         y="82.121"
         width="1.5875"
         height=".26458"
         id="rect20" />
      <rect
         x="140.71"
         y="82.121"
         width="1.5875"
         height=".26458"
         id="rect22" />
      <rect
         x="142.82"
         y="82.121"
         width="1.5875"
         height=".26458"
         id="rect24" />
      <rect
         x="121.66"
         y="92.969"
         width="1.5875"
         height=".26458"
         id="rect26" />
      <rect
         x="123.77"
         y="92.969"
         width="1.5875"
         height=".26458"
         id="rect28" />
      <rect
         x="125.89"
         y="92.969"
         width="1.5875"
         height=".26458"
         id="rect30" />
      <rect
         x="128.01"
         y="92.969"
         width="1.5875"
         height=".26458"
         id="rect32" />
      <rect
         x="130.12"
         y="92.969"
         width="1.5875"
         height=".26458"
         id="rect34" />
      <rect
         x="132.24"
         y="92.969"
         width="1.5875"
         height=".26458"
         id="rect36" />
      <rect
         x="134.36"
         y="92.969"
         width="1.5875"
         height=".26458"
         id="rect38" />
      <rect
         x="136.47"
         y="92.969"
         width="1.5875"
         height=".26458"
         id="rect40" />
      <rect
         x="138.59"
         y="92.969"
         width="1.5875"
         height=".26458"
         id="rect42" />
      <rect
         x="140.71"
         y="92.969"
         width="1.5875"
         height=".26458"
         id="rect44" />
      <rect
         x="142.82"
         y="92.969"
         width="1.5875"
         height=".26458"
         id="rect46" />
    </g>
  </g>
  <circle
     style="fill:#0a2c9d;fill-opacity:1;stroke:none;stroke-width:0.26459083;stroke-linecap:round;stroke-miterlimit:4;stroke-dasharray:none;stroke-dashoffset:0;stroke-opacity:1"
     id="path932"
     cx="12.129821"
     cy="6.2565727"
     r="0.63079172" />
  <circle
     r="0.63079172"
     cy="6.2194672"
     cx="14.045809"
     id="circle934"
     style="fill:#0a2c9d;fill-opacity:1;stroke:none;stroke-width:0.26459083;stroke-linecap:round;stroke-miterlimit:4;stroke-dasharray:none;stroke-dashoffset:0;stroke-opacity:1" />
  <path
     style="fill:#7893ea;fill-opacity:1;stroke-width:1"
     d="m 10.007654,10.126632 c -0.01189,-0.0053 -0.03572,-0.02216 -0.05295,-0.03757 l -0.03133,-0.02801 6.36e-4,-1.2831621 c 8.09e-4,-1.623572 0.0068,-2.807053 0.01555,-3.054216 0.0097,-0.27583 0.02289,-0.360865 0.09411,-0.60784 0.09085,-0.315032 0.266276,-0.662698 0.470378,-0.932207 0.147225,-0.194407 0.411134,-0.448764 0.611936,-0.58979 0.337586,-0.23709 0.7417,-0.407013 1.137197,-0.478173 0.520293,-0.09361 1.088355,-0.0289 1.588848,0.180996 0.359168,0.15063 0.717995,0.40556 0.981128,0.697048 0.329941,0.365494 0.540905,0.762891 0.662817,1.24855 0.03646,0.145257 0.05088,0.234418 0.06173,0.381794 0.01167,0.158485 0.02054,1.42632 0.02105,3.010547 l 3.98e-4,1.4210121 -0.0314,0.02894 c -0.04117,0.03796 -0.05773,0.04622 -0.09372,0.04676 -0.03643,5.31e-4 -0.07009,-0.01586 -0.08791,-0.04286 -0.01237,-0.01874 -0.0137,-0.04773 -0.01852,-0.4022581 -0.0029,-0.210135 -0.0057,-1.045451 -0.0063,-1.856258 -0.0012,-1.734771 -0.0063,-2.15774 -0.02771,-2.296222 -0.08785,-0.569647 -0.338692,-1.069463 -0.736239,-1.467009 -0.433367,-0.433368 -0.985543,-0.691256 -1.604204,-0.749227 -0.101984,-0.0096 -0.344959,-0.0096 -0.446943,0 -0.322659,0.03023 -0.598035,0.108298 -0.903242,0.256052 -0.296936,0.143749 -0.449175,0.256291 -0.72271,0.534257 -0.225251,0.228898 -0.316314,0.355082 -0.446551,0.618772 -0.156482,0.31683 -0.240663,0.596462 -0.266929,0.886679 -0.01565,0.172892 -0.0209,0.775475 -0.02117,2.428279 l -2.79e-4,1.685773 0.245642,-0.241898 c 0.135102,-0.133043 0.26055,-0.251773 0.278773,-0.263843 0.03966,-0.02627 0.08032,-0.02897 0.115276,-0.0077 0.03396,0.02071 0.111566,0.09473 0.399577,0.381146 l 0.257116,0.2556923 0.301564,-0.2966103 c 0.16586,-0.163135 0.31892,-0.309638 0.340134,-0.325562 0.04831,-0.03626 0.07223,-0.03739 0.120589,-0.0057 0.01951,0.01278 0.171993,0.158764 0.338846,0.324394 0.166852,0.165632 0.30613,0.3011493 0.309507,0.3011493 0.0034,0 0.144219,-0.1373263 0.312983,-0.3051703 0.184845,-0.183838 0.320593,-0.313167 0.34143,-0.325283 0.0478,-0.0278 0.07231,-0.0227 0.133572,0.02778 0.02646,0.0218 0.176098,0.167818 0.332537,0.324479 l 0.284434,0.2848423 0.306685,-0.3044793 c 0.168677,-0.167463 0.322651,-0.314938 0.342164,-0.32772 0.08095,-0.05303 0.16412,-0.01158 0.175273,0.08737 0.0033,0.02897 0.0013,0.03285 -0.04148,0.08066 -0.186613,0.208707 -0.697545,0.7115951 -0.746655,0.7348991 -0.0355,0.01685 -0.06412,0.01 -0.107604,-0.02582 -0.01974,-0.01625 -0.169944,-0.1611458 -0.333786,-0.3219828 l -0.297896,-0.2923913 -0.167069,0.165516 c -0.46971,0.4653431 -0.499769,0.4918271 -0.547983,0.4827811 -0.03732,-0.007 -0.102486,-0.06587 -0.405536,-0.3663298 -0.155075,-0.1537503 -0.284646,-0.2795463 -0.287936,-0.2795463 -0.0033,0 -0.14244,0.135572 -0.309224,0.3012703 -0.166784,0.165699 -0.319208,0.3116758 -0.338721,0.3243948 -0.0375,0.02444 -0.05995,0.02835 -0.08574,0.01493 -0.03216,-0.01673 -0.101143,-0.08087 -0.350157,-0.3255888 C 10.931234,9.6649849 10.798929,9.5372019 10.777629,9.5190039 l -0.03873,-0.03309 -0.05192,0.04968 c -0.02855,0.02732 -0.172023,0.170062 -0.318819,0.3171973 -0.228075,0.2286008 -0.271219,0.2687138 -0.296574,0.2757358 -0.03617,0.01003 -0.03713,0.01 -0.06404,-0.0019 z m 2.026462,-3.0610831 c -0.253128,-0.0398 -0.489869,-0.214378 -0.611452,-0.450898 -0.06634,-0.12906 -0.08974,-0.244141 -0.08268,-0.406679 0.0063,-0.144176 0.03624,-0.248509 0.105442,-0.367001 0.119301,-0.20427 0.335063,-0.358675 0.555454,-0.397496 0.05908,-0.01041 0.240615,-0.01054 0.303792,-2.65e-4 0.149183,0.02437 0.311654,0.110558 0.428327,0.227231 0.175246,0.175246 0.257427,0.406721 0.235669,0.663789 -0.01606,0.189809 -0.09362,0.352595 -0.234755,0.492737 -0.118788,0.117952 -0.256321,0.193026 -0.419452,0.228961 -0.06066,0.01336 -0.221352,0.01885 -0.280345,0.0096 z m 0.273136,-0.247836 c 0.06481,-0.01723 0.166989,-0.07036 0.220479,-0.114644 0.08437,-0.06985 0.156991,-0.181776 0.188145,-0.289973 0.01426,-0.04954 0.01649,-0.07354 0.01637,-0.17629 -1.46e-4,-0.116279 -6.63e-4,-0.120304 -0.02325,-0.179568 -0.05805,-0.152287 -0.161351,-0.265162 -0.307626,-0.336139 -0.08668,-0.04206 -0.124885,-0.04967 -0.249099,-0.04961 -0.121784,5.2e-5 -0.167326,0.0096 -0.257906,0.05398 -0.07241,0.03549 -0.177835,0.132082 -0.230308,0.211012 -0.08697,0.130824 -0.114749,0.29238 -0.07721,0.449077 0.02652,0.110723 0.110216,0.247353 0.192856,0.314845 0.07353,0.06005 0.183457,0.110729 0.277083,0.127736 0.05019,0.0091 0.200509,0.0029 0.250475,-0.01042 z m -0.02374,-0.361644 c -0.07224,-0.036 -0.124044,-0.11968 -0.124044,-0.200365 0,-0.162079 0.156491,-0.275328 0.31,-0.224339 0.05467,0.01816 0.114173,0.07789 0.136482,0.137011 0.04428,0.11735 -0.02038,0.262493 -0.131658,0.295539 -0.01996,0.0059 -0.06265,0.01078 -0.09485,0.01078 -0.04851,0 -0.06496,-0.0032 -0.09593,-0.01863 z m 1.685357,0.612411 c -0.169382,-0.024257 -0.288767,-0.066566 -0.399122,-0.141447 -0.1332,-0.090382 -0.277082,-0.292875 -0.321408,-0.452338 -0.04151,-0.149325 -0.03249,-0.362344 0.02159,-0.509938 0.09294,-0.25365 0.340881,-0.46882 0.596845,-0.517968 0.107727,-0.02069 0.335795,-0.0088 0.43051,0.02245 0.09815,0.03238 0.225505,0.11226 0.315688,0.198016 0.126326,0.120125 0.219022,0.314703 0.243549,0.511236 0.03873,0.310351 -0.161774,0.660428 -0.465943,0.81352 -0.11746,0.05912 -0.305169,0.09315 -0.421714,0.07646 z m 0.18842,-0.243738 c 0.185055,-0.03922 0.354132,-0.183913 0.426317,-0.364823 0.06177,-0.154814 0.05209,-0.321095 -0.02768,-0.475559 -0.07455,-0.144339 -0.191164,-0.243927 -0.341955,-0.292024 -0.08224,-0.02623 -0.216502,-0.03283 -0.29819,-0.01466 -0.187589,0.04173 -0.327081,0.156907 -0.415479,0.343043 l -0.03244,0.06831 -0.0024,0.143565 c -0.0027,0.162669 3.98e-4,0.181694 0.04366,0.268991 0.08164,0.164786 0.23118,0.283771 0.405639,0.322742 0.05741,0.01282 0.182925,0.01304 0.242485,3.98e-4 z m 0.06966,-0.350244 c -0.04251,-0.0072 -0.10215,-0.03921 -0.126468,-0.06795 -0.01022,-0.01208 -0.02698,-0.0398 -0.03725,-0.06161 -0.01556,-0.03303 -0.01866,-0.04987 -0.01857,-0.100922 8.8e-5,-0.05243 0.0029,-0.06661 0.01948,-0.09821 0.05755,-0.109673 0.198613,-0.159628 0.303301,-0.107414 0.04864,0.02426 0.09365,0.07012 0.115655,0.117849 0.01228,0.02663 0.01553,0.04733 0.01551,0.09859 -3e-5,0.05629 -0.0026,0.06971 -0.01923,0.101379 -0.02,0.03802 -0.06261,0.08142 -0.09738,0.09918 -0.02195,0.01122 -0.08911,0.02704 -0.108918,0.02567 -0.0067,-5.3e-4 -0.0275,-0.0034 -0.04613,-0.0066 z"
     id="path930"
     inkscape:connector-curvature="0" />
</svg>
