<svg width="181.5mm" height="100.11mm" version="1.1" viewBox="0 0 181.5 100.11" xmlns="http://www.w3.org/2000/svg">
 <g transform="translate(199.05 -114.12)">
  <g stroke-linecap="round" stroke-width=".26458">
   <path d="m-196.11 132.61-2.8112 2.3812v7.9375l2.8112 2.3812h27.451l2.8112-2.3812v-7.9375l-2.8112-2.3812z" fill="#1d232d" stroke="#009244"/>
   <g fill="#e8eaec" aria-label="Patrol">
    <path d="m-186.85 140.28h0.31115v-0.96308h0.43709c0.5297 0 0.89641-0.24077 0.89641-0.75195 0-0.5334-0.3593-0.7149-0.89641-0.7149h-0.74824zm0.31115-1.215v-0.96678h0.39635c0.41857 0 0.6297 0.11482 0.6297 0.46672 0 0.34449-0.20372 0.50006-0.6297 0.50006z"/>
    <path d="m-185 139.81c0 0.32227 0.22595 0.51118 0.52969 0.51118 0.22225 0 0.42228-0.11853 0.59638-0.25929h7e-3l0.0259 0.21484h0.25189v-1.1038c0-0.44821-0.18521-0.74084-0.62601-0.74084-0.28892 0-0.54081 0.12595-0.70749 0.23337l0.12223 0.21113c0.14076-0.0963 0.32597-0.19261 0.53711-0.19261 0.29263 0 0.37041 0.22225 0.37041 0.45191-0.76676 0.0852-1.1075 0.28151-1.1075 0.67415zm0.30004-0.0222c0-0.22966 0.20373-0.37783 0.8075-0.45191v0.50006c-0.17409 0.15558-0.31855 0.24077-0.49265 0.24077-0.1778 0-0.31485-0.0852-0.31485-0.28892z"/>
    <path d="m-182.97 139.72c0 0.3556 0.12964 0.60008 0.51488 0.60008 0.11112 0 0.23336-0.0333 0.33337-0.0667l-0.0593-0.22965c-0.0593 0.0222-0.14076 0.0481-0.20373 0.0481-0.20744 0-0.27782-0.12594-0.27782-0.34819v-1.0001h0.48525v-0.24818h-0.48525v-0.50376h-0.25558l-0.037 0.50376-0.28151 0.0185v0.22965h0.2667z"/>
    <path d="m-181.77 140.28h0.30374v-1.1557c0.12224-0.30374 0.30375-0.41487 0.45562-0.41487 0.0741 0 0.11483 0.0111 0.17409 0.0296l0.0593-0.2667c-0.0593-0.0259-0.11483-0.037-0.19262-0.037-0.20373 0-0.38893 0.14447-0.51117 0.37042h-0.0111l-0.0259-0.32597h-0.25189z"/>
    <path d="m-180.65 139.38c0 0.59637 0.39264 0.94086 0.83343 0.94086 0.4408 0 0.83344-0.34449 0.83344-0.94086 0-0.60378-0.39264-0.94827-0.83344-0.94827-0.44079 0-0.83343 0.34449-0.83343 0.94827zm0.31485 0c0-0.41487 0.21114-0.69638 0.51858-0.69638 0.31115 0 0.51859 0.28151 0.51859 0.69638 0 0.41116-0.20744 0.68898-0.51859 0.68898-0.30744 0-0.51858-0.27782-0.51858-0.68898z"/>
    <path d="m-178.5 139.92c0 0.263 0.0926 0.40746 0.32227 0.40746 0.0815 0 0.13335-0.0111 0.17409-0.0296l-0.0407-0.22966c-0.0333 7e-3 -0.0482 7e-3 -0.0667 7e-3 -0.0445 0-0.0852-0.037-0.0852-0.13335v-2.2966h-0.30374z"/>
   </g>
   <path d="m-182.3 115.49v15.511" fill="none" stroke="#47d58a"/>
  </g>
  <g>
   <g fill="#e8eaec" stroke-linecap="round" stroke-width=".26458" aria-label="Init">
    <path d="m-179.29 125.73h0.31115v-2.4299h-0.31115z"/>
    <path d="m-178.35 125.73h0.30374v-1.3039c0.1815-0.18151 0.30745-0.27782 0.49265-0.27782 0.23707 0 0.34079 0.14447 0.34079 0.48155v1.1001h0.30374v-1.1409c0-0.45932-0.17039-0.70379-0.54822-0.70379-0.24818 0-0.43338 0.13335-0.60378 0.30374h-0.0111l-0.0259-0.25929h-0.25188z"/>
    <path d="m-176.17 123.56c0.11853 0 0.21114-0.0815 0.21114-0.19632 0-0.11853-0.0926-0.19632-0.21114-0.19632-0.11853 0-0.21114 0.0778-0.21114 0.19632 0 0.11483 0.0926 0.19632 0.21114 0.19632zm-0.15557 2.1706h0.30374v-1.8002h-0.30374z"/>
    <path d="m-175.36 125.17c0 0.3556 0.12964 0.60007 0.51487 0.60007 0.11113 0 0.23337-0.0333 0.33338-0.0667l-0.0593-0.22966c-0.0593 0.0222-0.14076 0.0481-0.20373 0.0481-0.20743 0-0.27781-0.12594-0.27781-0.34819v-1.0001h0.48525v-0.24818h-0.48525v-0.50377h-0.25559l-0.037 0.50377-0.28151 0.0185v0.22966h0.2667z"/>
   </g>
   <rect transform="matrix(.70711 .70711 .70711 -.70711 0 0)" x="-48.068" y="-211.84" width="2.1167" height="2.1167" fill="#1d232d" stroke="#47d58a" stroke-linecap="round" stroke-width=".26458"/>
   <circle transform="scale(1,-1)" cx="-182.28" cy="-115.81" r=".52917" fill="#47d58a"/>
   <g transform="matrix(0 .0042365 .0043091 0 -183.57 130.11)" fill="#47d58a" stroke-width="123.85">
    <g fill="#47d58a" stroke-width="123.85">
     <path d="m486.41 221.41-364.07-208.5c-52.938-30.318-95.852-5.44-95.852 55.563v415.65c0 61.004 42.914 85.882 95.852 55.563l364.07-208.49c52.938-30.317 52.938-79.473 0-109.79z" fill="#47d58a" stroke-width="123.85"/>
    </g>
   </g>
  </g>
  <path d="m-165.88 138.82h36.678" fill="none" stroke="#47d58a" stroke-linecap="round" stroke-width=".26458"/>
  <g fill="#e8eaec" stroke-linecap="round" stroke-width=".26458" aria-label="[enemy visible]">
   <path d="m-159.22 137.67h0.66304v-0.1741h-0.43338v-2.8337h0.43338v-0.1778h-0.66304z"/>
   <path d="m-158.28 136.21c0 0.58896 0.38152 0.94086 0.86307 0.94086 0.24447 0 0.43709-0.0852 0.59266-0.18521l-0.10742-0.20003c-0.13335 0.0852-0.27781 0.14076-0.4482 0.14076-0.34449 0-0.57785-0.24447-0.60008-0.63341h1.215c7e-3 -0.0445 0.0111-0.10372 0.0111-0.16669 0-0.51488-0.25929-0.84455-0.71861-0.84455-0.41116 0-0.8075 0.35931-0.8075 0.94827zm0.29633-0.13706c0.037-0.363 0.2667-0.57044 0.51858-0.57044 0.28152 0 0.4445 0.20373 0.4445 0.57044z"/>
   <path d="m-156.31 137.1h0.30374v-1.3039c0.18151-0.1815 0.30745-0.27781 0.49266-0.27781 0.23706 0 0.34078 0.14446 0.34078 0.48154v1.1001h0.30374v-1.1409c0-0.45931-0.17039-0.70379-0.54822-0.70379-0.24818 0-0.43338 0.13335-0.60378 0.30374h-0.0111l-0.0259-0.25929h-0.25188z"/>
   <path d="m-154.42 136.21c0 0.58896 0.38153 0.94086 0.86307 0.94086 0.24447 0 0.43709-0.0852 0.59266-0.18521l-0.10742-0.20003c-0.13335 0.0852-0.27781 0.14076-0.4482 0.14076-0.34449 0-0.57785-0.24447-0.60008-0.63341h1.215c7e-3 -0.0445 0.0111-0.10372 0.0111-0.16669 0-0.51488-0.25929-0.84455-0.71861-0.84455-0.41116 0-0.8075 0.35931-0.8075 0.94827zm0.29633-0.13706c0.037-0.363 0.2667-0.57044 0.51858-0.57044 0.28152 0 0.4445 0.20373 0.4445 0.57044z"/>
   <path d="m-152.44 137.1h0.30374v-1.3039c0.16669-0.18521 0.31856-0.27781 0.45191-0.27781 0.22966 0 0.33708 0.14446 0.33708 0.48154v1.1001h0.30374v-1.3039c0.16669-0.18521 0.31115-0.27781 0.45191-0.27781 0.22595 0 0.33337 0.14446 0.33337 0.48154v1.1001h0.30375v-1.1409c0-0.45931-0.1778-0.70379-0.54822-0.70379-0.21855 0-0.40376 0.14076-0.59267 0.34449-0.0741-0.21484-0.22225-0.34449-0.49636-0.34449-0.21484 0-0.40375 0.13335-0.55933 0.30374h-0.0111l-0.0259-0.25929h-0.25188z"/>
   <path d="m-149.5 137.6-0.0593 0.24078c0.0593 0.0222 0.12964 0.037 0.21114 0.037 0.363 0 0.54821-0.27041 0.67415-0.62601l0.67787-1.9484h-0.29634l-0.32226 0.99642c-0.0481 0.15928-0.10001 0.34449-0.15187 0.50747h-0.0148c-0.0556-0.16668-0.11853-0.35189-0.17409-0.50747l-0.36671-0.99642h-0.31486l0.72231 1.8039-0.0407 0.13335c-0.0741 0.22225-0.20373 0.38523-0.40746 0.38523-0.0444 0-0.10001-0.0148-0.13705-0.0259z"/>
   <path d="m-146.51 137.1h0.3556l0.63711-1.8002h-0.30003l-0.34079 1.0224c-0.0518 0.1778-0.11112 0.35931-0.16298 0.5297h-0.0148c-0.0556-0.17039-0.11483-0.3519-0.16668-0.5297l-0.34079-1.0224h-0.31485z"/>
   <path d="m-145.02 134.93c0.11853 0 0.21114-0.0815 0.21114-0.19632 0-0.11853-0.0926-0.19632-0.21114-0.19632-0.11853 0-0.21114 0.0778-0.21114 0.19632 0 0.11483 0.0926 0.19632 0.21114 0.19632zm-0.15558 2.1706h0.30375v-1.8002h-0.30375z"/>
   <path d="m-144.46 136.9c0.17039 0.14076 0.41487 0.24818 0.67045 0.24818 0.42598 0 0.65935-0.24448 0.65935-0.53711 0-0.34078-0.28893-0.4482-0.54822-0.54451-0.20373-0.0778-0.40005-0.14446-0.40005-0.31115 0-0.13705 0.10372-0.25929 0.32967-0.25929 0.15928 0 0.28893 0.0667 0.41116 0.15928l0.14447-0.19262c-0.13706-0.11112-0.33338-0.20373-0.55933-0.20373-0.38894 0-0.6186 0.22225-0.6186 0.51118 0 0.30374 0.28152 0.42598 0.5371 0.51858 0.19633 0.0741 0.41117 0.15557 0.41117 0.34078 0 0.15558-0.11854 0.28152-0.3556 0.28152-0.21484 0-0.37412-0.0889-0.5297-0.21484z"/>
   <path d="m-142.55 134.93c0.11854 0 0.21114-0.0815 0.21114-0.19632 0-0.11853-0.0926-0.19632-0.21114-0.19632-0.11853 0-0.21114 0.0778-0.21114 0.19632 0 0.11483 0.0926 0.19632 0.21114 0.19632zm-0.15557 2.1706h0.30374v-1.8002h-0.30374z"/>
   <path d="m-141.8 137.1h0.24447l0.0259-0.1778h0.0111c0.15927 0.14075 0.34819 0.22225 0.51487 0.22225 0.41117 0 0.77788-0.35931 0.77788-0.9742 0-0.55562-0.24818-0.91493-0.7149-0.91493-0.20003 0-0.40005 0.10742-0.56304 0.25188l7e-3 -0.32596v-0.71861h-0.30374zm0.30374-0.40005v-0.94457c0.17039-0.15928 0.32967-0.24447 0.48154-0.24447 0.34079 0 0.47414 0.2667 0.47414 0.66304 0 0.4445-0.21855 0.71491-0.51488 0.71491-0.11854 0-0.28152-0.0519-0.4408-0.18891z"/>
   <path d="m-139.74 136.74c0 0.26299 0.0926 0.40746 0.32227 0.40746 0.0815 0 0.13335-0.0111 0.17409-0.0296l-0.0407-0.22966c-0.0333 7e-3 -0.0482 7e-3 -0.0667 7e-3 -0.0444 0-0.0852-0.037-0.0852-0.13335v-2.2966h-0.30375z"/>
   <path d="m-138.93 136.21c0 0.58896 0.38153 0.94086 0.86307 0.94086 0.24448 0 0.43709-0.0852 0.59267-0.18521l-0.10742-0.20003c-0.13335 0.0852-0.27782 0.14076-0.44821 0.14076-0.34448 0-0.57785-0.24447-0.60007-0.63341h1.215c7e-3 -0.0445 0.0111-0.10372 0.0111-0.16669 0-0.51488-0.25929-0.84455-0.71861-0.84455-0.41116 0-0.80751 0.35931-0.80751 0.94827zm0.29633-0.13706c0.0371-0.363 0.2667-0.57044 0.51859-0.57044 0.28151 0 0.4445 0.20373 0.4445 0.57044z"/>
   <path d="m-137.14 137.49v0.1741h0.65934v-3.1856h-0.65934v0.1778h0.42968v2.8337z"/>
  </g>
  <g transform="matrix(.0042365 0 0 -.0043091 -129.84 140.01)" fill="#47d58a" stroke-width="123.85">
   <g fill="#47d58a" stroke-width="123.85">
    <path d="m486.41 221.41-364.07-208.5c-52.938-30.318-95.852-5.44-95.852 55.563v415.65c0 61.004 42.914 85.882 95.852 55.563l364.07-208.49c52.938-30.317 52.938-79.473 0-109.79z" fill="#47d58a" stroke-width="123.85"/>
   </g>
  </g>
  <path d="m-93.118 138.82h40.647" fill="none" stroke="#47d58a" stroke-linecap="round" stroke-width=".26458"/>
  <g fill="#e8eaec" stroke-linecap="round" stroke-width=".26458" aria-label="[enemy within 7 units]">
   <path d="m-88.749 137.67h0.66305v-0.1741h-0.43339v-2.8337h0.43339v-0.1778h-0.66305z"/>
   <path d="m-87.806 136.21c0 0.58896 0.38153 0.94086 0.86307 0.94086 0.24448 0 0.43709-0.0852 0.59267-0.18521l-0.10742-0.20003c-0.13335 0.0852-0.27781 0.14076-0.4482 0.14076-0.34449 0-0.57785-0.24447-0.60008-0.63341h1.215c0.0074-0.0445 0.01111-0.10372 0.01111-0.16669 0-0.51488-0.25929-0.84455-0.71861-0.84455-0.41116 0-0.80751 0.35931-0.80751 0.94827zm0.29633-0.13706c0.03704-0.363 0.2667-0.57044 0.51858-0.57044 0.28152 0 0.4445 0.20373 0.4445 0.57044z"/>
   <path d="m-85.835 137.1h0.30374v-1.3039c0.1815-0.1815 0.30745-0.27781 0.49265-0.27781 0.23707 0 0.34078 0.14446 0.34078 0.48154v1.1001h0.30374v-1.1409c0-0.45931-0.17039-0.70379-0.54822-0.70379-0.24818 0-0.43339 0.13335-0.60378 0.30374h-0.01111l-0.02593-0.25929h-0.25188z"/>
   <path d="m-83.942 136.21c0 0.58896 0.38153 0.94086 0.86307 0.94086 0.24448 0 0.43709-0.0852 0.59267-0.18521l-0.10742-0.20003c-0.13335 0.0852-0.27781 0.14076-0.4482 0.14076-0.34449 0-0.57785-0.24447-0.60008-0.63341h1.215c0.0074-0.0445 0.01111-0.10372 0.01111-0.16669 0-0.51488-0.25929-0.84455-0.71861-0.84455-0.41116 0-0.80751 0.35931-0.80751 0.94827zm0.29633-0.13706c0.03704-0.363 0.2667-0.57044 0.51858-0.57044 0.28152 0 0.4445 0.20373 0.4445 0.57044z"/>
   <path d="m-81.971 137.1h0.30374v-1.3039c0.16669-0.18521 0.31856-0.27781 0.45191-0.27781 0.22966 0 0.33708 0.14446 0.33708 0.48154v1.1001h0.30374v-1.3039c0.16669-0.18521 0.31115-0.27781 0.45191-0.27781 0.22595 0 0.33338 0.14446 0.33338 0.48154v1.1001h0.30374v-1.1409c0-0.45931-0.1778-0.70379-0.54822-0.70379-0.21855 0-0.40375 0.14076-0.59267 0.34449-0.07408-0.21484-0.22225-0.34449-0.49636-0.34449-0.21484 0-0.40375 0.13335-0.55933 0.30374h-0.01111l-0.02593-0.25929h-0.25188z"/>
   <path d="m-79.026 137.6-0.05927 0.24078c0.05927 0.0222 0.12965 0.037 0.21114 0.037 0.36301 0 0.54822-0.27041 0.67416-0.62601l0.67786-1.9484h-0.29633l-0.32226 0.99642c-0.04815 0.15928-0.10001 0.34449-0.15187 0.50747h-0.01482c-0.05556-0.16668-0.11853-0.35189-0.1741-0.50747l-0.36671-0.99642h-0.31485l0.72231 1.8039-0.04075 0.13335c-0.07408 0.22225-0.20373 0.38523-0.40746 0.38523-0.04445 0-0.10001-0.0148-0.13705-0.0259z"/>
   <path d="m-76.144 137.1h0.3556l0.25188-0.96309c0.04815-0.17039 0.08519-0.34078 0.12594-0.52228h0.01482c0.04445 0.1815 0.07779 0.34819 0.12224 0.51858l0.25929 0.96679h0.37042l0.48154-1.8002h-0.28892l-0.263 1.0409c-0.03704 0.17039-0.07038 0.33338-0.11112 0.50006h-0.01482c-0.04075-0.16668-0.08149-0.32967-0.12594-0.50006l-0.28152-1.0409h-0.29633l-0.27781 1.0409c-0.04445 0.16669-0.08149 0.33338-0.12224 0.50006h-0.01482c-0.03334-0.16668-0.06668-0.32967-0.10742-0.50006l-0.2667-1.0409h-0.31115z"/>
   <path d="m-73.612 134.93c0.11853 0 0.21114-0.0815 0.21114-0.19632 0-0.11853-0.0926-0.19632-0.21114-0.19632-0.11853 0-0.21114 0.0778-0.21114 0.19632 0 0.11483 0.0926 0.19632 0.21114 0.19632zm-0.15558 2.1706h0.30374v-1.8002h-0.30374z"/>
   <path d="m-72.804 136.55c0 0.3556 0.12965 0.60008 0.51488 0.60008 0.11112 0 0.23336-0.0333 0.33338-0.0667l-0.05927-0.22966c-0.05927 0.0222-0.14076 0.0482-0.20373 0.0482-0.20743 0-0.27781-0.12594-0.27781-0.34819v-1.0001h0.48525v-0.24818h-0.48525v-0.50377h-0.25559l-0.03704 0.50377-0.28152 0.0185v0.22966h0.2667z"/>
   <path d="m-71.604 137.1h0.30374v-1.3039c0.1815-0.1815 0.30745-0.27781 0.49266-0.27781 0.23707 0 0.34078 0.14446 0.34078 0.48154v1.1001h0.30374v-1.1409c0-0.45931-0.17039-0.70379-0.54822-0.70379-0.24818 0-0.42968 0.13335-0.60008 0.29633l0.01111-0.37041v-0.71861h-0.30374z"/>
   <path d="m-69.43 134.93c0.11853 0 0.21114-0.0815 0.21114-0.19632 0-0.11853-0.0926-0.19632-0.21114-0.19632-0.11853 0-0.21114 0.0778-0.21114 0.19632 0 0.11483 0.0926 0.19632 0.21114 0.19632zm-0.15558 2.1706h0.30374v-1.8002h-0.30374z"/>
   <path d="m-68.674 137.1h0.30374v-1.3039c0.1815-0.1815 0.30745-0.27781 0.49265-0.27781 0.23707 0 0.34078 0.14446 0.34078 0.48154v1.1001h0.30374v-1.1409c0-0.45931-0.17039-0.70379-0.54822-0.70379-0.24818 0-0.43339 0.13335-0.60378 0.30374h-0.01111l-0.02593-0.25929h-0.25188z"/>
   <path d="m-65.551 137.1h0.31485c0.04075-0.92234 0.15558-1.4594 0.7149-2.1744v-0.18891h-1.5224v0.26299h1.1779c-0.46672 0.64823-0.64452 1.2113-0.68527 2.1003z"/>
   <path d="m-63.346 136.44c0 0.45932 0.17039 0.7038 0.55192 0.7038 0.24818 0 0.42598-0.12965 0.59267-0.32597h0.01111l0.02593 0.28152h0.25188v-1.8002h-0.30374v1.2779c-0.17039 0.21114-0.30004 0.30374-0.48525 0.30374-0.23707 0-0.33708-0.14446-0.33708-0.48154v-1.1001h-0.30745z"/>
   <path d="m-61.302 137.1h0.30374v-1.3039c0.1815-0.1815 0.30745-0.27781 0.49265-0.27781 0.23707 0 0.34078 0.14446 0.34078 0.48154v1.1001h0.30374v-1.1409c0-0.45931-0.17039-0.70379-0.54822-0.70379-0.24818 0-0.43339 0.13335-0.60378 0.30374h-0.01111l-0.02593-0.25929h-0.25188z"/>
   <path d="m-59.121 134.93c0.11853 0 0.21114-0.0815 0.21114-0.19632 0-0.11853-0.0926-0.19632-0.21114-0.19632-0.11853 0-0.21114 0.0778-0.21114 0.19632 0 0.11483 0.0926 0.19632 0.21114 0.19632zm-0.15558 2.1706h0.30374v-1.8002h-0.30374z"/>
   <path d="m-58.313 136.55c0 0.3556 0.12965 0.60008 0.51488 0.60008 0.11112 0 0.23336-0.0333 0.33338-0.0667l-0.05927-0.22966c-0.05927 0.0222-0.14076 0.0482-0.20373 0.0482-0.20743 0-0.27781-0.12594-0.27781-0.34819v-1.0001h0.48525v-0.24818h-0.48525v-0.50377h-0.25559l-0.03704 0.50377-0.28152 0.0185v0.22966h0.2667z"/>
   <path d="m-57.313 136.9c0.17039 0.14076 0.41487 0.24818 0.67045 0.24818 0.42598 0 0.65934-0.24448 0.65934-0.53711 0-0.34078-0.28892-0.4482-0.54822-0.54451-0.20373-0.0778-0.40005-0.14446-0.40005-0.31115 0-0.13705 0.10372-0.25929 0.32967-0.25929 0.15928 0 0.28892 0.0667 0.41116 0.15928l0.14446-0.19262c-0.13705-0.11112-0.33338-0.20373-0.55933-0.20373-0.38894 0-0.6186 0.22225-0.6186 0.51118 0 0.30374 0.28152 0.42598 0.5371 0.51858 0.19632 0.0741 0.41116 0.15557 0.41116 0.34078 0 0.15558-0.11853 0.28152-0.3556 0.28152-0.21484 0-0.37412-0.0889-0.5297-0.21484z"/>
   <path d="m-55.747 137.49v0.1741h0.65934v-3.1856h-0.65934v0.1778h0.42968v2.8337z"/>
  </g>
  <g transform="matrix(.0042365 0 0 -.0043091 -53.113 140.01)" fill="#47d58a" stroke-width="123.85">
   <g fill="#47d58a" stroke-width="123.85">
    <path d="m486.41 221.41-364.07-208.5c-52.938-30.318-95.852-5.44-95.852 55.563v415.65c0 61.004 42.914 85.882 95.852 55.563l364.07-208.49c52.938-30.317 52.938-79.473 0-109.79z" fill="#47d58a" stroke-width="123.85"/>
   </g>
  </g>
  <path d="m-110.68 145.13v20.274" fill="none" stroke="#47d58a" stroke-linecap="round" stroke-width=".26458"/>
  <g>
   <path d="m-124.67 132.61-2.8112 2.3812v7.9375l2.8112 2.3812h27.451l2.8112-2.3812v-7.9375l-2.8112-2.3812z" fill="#1d232d" stroke="#009244" stroke-linecap="round" stroke-width=".26458"/>
   <g fill="#e8eaec" stroke-linecap="round" stroke-width=".26458" aria-label="Chase">
    <path d="m-115.6 139.06c0 0.79269 0.45561 1.2594 1.0668 1.2594 0.30744 0 0.54821-0.12965 0.73713-0.3519l-0.1741-0.18891c-0.15558 0.1741-0.32597 0.27041-0.55563 0.27041-0.46302 0-0.75565-0.38524-0.75565-0.99643 0-0.60377 0.30745-0.9816 0.77047-0.9816 0.20003 0 0.3556 0.0889 0.48525 0.22595l0.17409-0.19632c-0.14446-0.15928-0.37412-0.30003-0.66304-0.30003-0.6223 0-1.0853 0.47783-1.0853 1.2594z"/>
    <path d="m-113.38 140.28h0.30374v-1.3039c0.1815-0.1815 0.30744-0.27781 0.49265-0.27781 0.23707 0 0.34079 0.14446 0.34079 0.48154v1.1001h0.30374v-1.1409c0-0.45932-0.17039-0.7038-0.54822-0.7038-0.24818 0-0.42968 0.13335-0.60007 0.29634l0.0111-0.37042v-0.71861h-0.30374z"/>
    <path d="m-111.45 139.81c0 0.32227 0.22595 0.51118 0.52969 0.51118 0.22225 0 0.42228-0.11853 0.59638-0.25929h7e-3l0.0259 0.21484h0.25189v-1.1038c0-0.44821-0.18521-0.74084-0.62601-0.74084-0.28892 0-0.54081 0.12595-0.70749 0.23337l0.12223 0.21113c0.14076-0.0963 0.32597-0.19261 0.53711-0.19261 0.29263 0 0.37041 0.22225 0.37041 0.45191-0.76676 0.0852-1.1075 0.28151-1.1075 0.67415zm0.30004-0.0222c0-0.22966 0.20373-0.37783 0.8075-0.45191v0.50006c-0.17409 0.15558-0.31855 0.24077-0.49265 0.24077-0.1778 0-0.31485-0.0852-0.31485-0.28892z"/>
    <path d="m-109.66 140.08c0.17039 0.14076 0.41486 0.24818 0.67045 0.24818 0.42598 0 0.65934-0.24448 0.65934-0.5371 0-0.34079-0.28892-0.44821-0.54822-0.54452-0.20372-0.0778-0.40005-0.14446-0.40005-0.31115 0-0.13705 0.10372-0.25929 0.32968-0.25929 0.15927 0 0.28892 0.0667 0.41116 0.15928l0.14446-0.19262c-0.13705-0.11112-0.33337-0.20373-0.55933-0.20373-0.38894 0-0.61859 0.22225-0.61859 0.51118 0 0.30374 0.28151 0.42598 0.5371 0.51858 0.19632 0.0741 0.41116 0.15558 0.41116 0.34079 0 0.15557-0.11853 0.28151-0.3556 0.28151-0.21484 0-0.37412-0.0889-0.52969-0.21484z"/>
    <path d="m-108.04 139.38c0 0.58896 0.38153 0.94086 0.86307 0.94086 0.24448 0 0.43709-0.0852 0.59267-0.18521l-0.10742-0.20002c-0.13335 0.0852-0.27782 0.14075-0.44821 0.14075-0.34448 0-0.57785-0.24447-0.60007-0.63341h1.215c7e-3 -0.0444 0.0111-0.10371 0.0111-0.16669 0-0.51487-0.25929-0.84455-0.71861-0.84455-0.41116 0-0.80751 0.35931-0.80751 0.94827zm0.29633-0.13705c0.0371-0.36301 0.2667-0.57044 0.51859-0.57044 0.28151 0 0.4445 0.20372 0.4445 0.57044z"/>
   </g>
   <g transform="matrix(-.0042365 0 0 -.0043091 -92.047 140.01)" fill="#47d58a" stroke-width="123.85">
    <g fill="#47d58a" stroke-width="123.85">
     <path d="m486.41 221.41-364.07-208.5c-52.938-30.318-95.852-5.44-95.852 55.563v415.65c0 61.004 42.914 85.882 95.852 55.563l364.07-208.49c52.938-30.317 52.938-79.473 0-109.79z" fill="#47d58a" stroke-width="123.85"/>
    </g>
   </g>
   <path d="m-47.941 132.61-2.8112 2.3812v7.9375l2.8112 2.3812h27.451l2.8112-2.3812v-7.9375l-2.8112-2.3812z" fill="#1d232d" stroke="#009244" stroke-linecap="round" stroke-width=".26458"/>
   <g fill="#e8eaec" stroke-linecap="round" stroke-width=".26458" aria-label="Attack">
    <path d="m-38.616 139.29 0.11853-0.37042c0.0852-0.2704 0.16298-0.5371 0.24077-0.81862h0.01482c0.07779 0.28152 0.15558 0.54822 0.24077 0.81862l0.11483 0.37042zm1.0409 0.98901h0.32597l-0.82232-2.4299h-0.34819l-0.82232 2.4299h0.31486l0.23336-0.74083h0.8853z"/>
    <path d="m-36.948 139.72c0 0.3556 0.12965 0.60008 0.51488 0.60008 0.11112 0 0.23336-0.0333 0.33338-0.0667l-0.05927-0.22965c-0.05927 0.0222-0.14076 0.0481-0.20373 0.0481-0.20743 0-0.27781-0.12594-0.27781-0.34819v-1.0001h0.48525v-0.24818h-0.48525v-0.50376h-0.25559l-0.03704 0.50376-0.28152 0.0185v0.22965h0.2667z"/>
    <path d="m-35.696 139.72c0 0.3556 0.12965 0.60008 0.51488 0.60008 0.11112 0 0.23336-0.0333 0.33338-0.0667l-0.05927-0.22965c-0.05927 0.0222-0.14076 0.0481-0.20373 0.0481-0.20743 0-0.27781-0.12594-0.27781-0.34819v-1.0001h0.48525v-0.24818h-0.48525v-0.50376h-0.25559l-0.03704 0.50376-0.28152 0.0185v0.22965h0.2667z"/>
    <path d="m-34.65 139.81c0 0.32227 0.22595 0.51118 0.5297 0.51118 0.22225 0 0.42228-0.11853 0.59637-0.25929h0.0074l0.02593 0.21484h0.25188v-1.1038c0-0.44821-0.18521-0.74084-0.626-0.74084-0.28892 0-0.54081 0.12595-0.7075 0.23337l0.12224 0.21113c0.14076-0.0963 0.32597-0.19261 0.5371-0.19261 0.29263 0 0.37042 0.22225 0.37042 0.45191-0.76676 0.0852-1.1075 0.28151-1.1075 0.67415zm0.30004-0.0222c0-0.22966 0.20373-0.37783 0.80751-0.45191v0.50006c-0.1741 0.15558-0.31856 0.24077-0.49266 0.24077-0.1778 0-0.31485-0.0852-0.31485-0.28892z"/>
    <path d="m-32.799 139.38c0 0.59637 0.36671 0.94086 0.84455 0.94086 0.21484 0 0.42228-0.0889 0.58526-0.23336l-0.13706-0.20003c-0.10742 0.0963-0.25188 0.18151-0.42228 0.18151-0.32967 0-0.55562-0.27782-0.55562-0.68898 0-0.41487 0.23707-0.69638 0.56303-0.69638 0.14446 0 0.25559 0.0667 0.36301 0.15928l0.15187-0.19632c-0.12224-0.11483-0.28892-0.21485-0.52599-0.21485-0.46302 0-0.86678 0.34449-0.86678 0.94827z"/>
    <path d="m-30.98 140.28h0.30004v-0.47413l0.33708-0.39265 0.52599 0.86678h0.33338l-0.68527-1.0779 0.60378-0.72232h-0.33708l-0.76676 0.94827h-0.01111v-1.7854h-0.30004z"/>
   </g>
   <g transform="matrix(0 .0042365 .0043091 0 -111.87 164.51)" fill="#47d58a" stroke-width="123.85">
    <g fill="#47d58a" stroke-width="123.85">
     <path d="m486.41 221.41-364.07-208.5c-52.938-30.318-95.852-5.44-95.852 55.563v415.65c0 61.004 42.914 85.882 95.852 55.563l364.07-208.49c52.938-30.317 52.938-79.473 0-109.79z" fill="#47d58a" stroke-width="123.85"/>
    </g>
   </g>
  </g>
  <path d="m-110.68 179.52v20.274" fill="none" stroke="#47d58a" stroke-linecap="round" stroke-width=".26458"/>
  <g>
   <path d="m-124.67 167-2.8112 2.3812v7.9375l2.8112 2.3812h27.451l2.8112-2.3812v-7.9375l-2.8112-2.3812z" fill="#1d232d" stroke="#009244" stroke-linecap="round" stroke-width=".26458"/>
   <g fill="#e8eaec" stroke-linecap="round" stroke-width=".26458" aria-label="Wait">
    <path d="m-113.94 174.67h0.36671l0.36301-1.4632c0.0407-0.18891 0.0815-0.36301 0.12223-0.55192h0.0148c0.0333 0.18891 0.0741 0.36301 0.11483 0.55192l0.36671 1.4632h0.37412l0.50377-2.4299h-0.30004l-0.25559 1.3224c-0.0444 0.25929-0.0889 0.52229-0.13705 0.78529h-0.0148c-0.0593-0.263-0.11853-0.5297-0.17409-0.78529l-0.33708-1.3224h-0.28152l-0.33708 1.3224c-0.0593 0.25929-0.11853 0.52229-0.17039 0.78529h-0.0148c-0.0481-0.263-0.0963-0.52229-0.14446-0.78529l-0.25559-1.3224h-0.31855z"/>
    <path d="m-111.47 174.21c0 0.32227 0.22595 0.51118 0.52969 0.51118 0.22225 0 0.42228-0.11854 0.59637-0.25929h7e-3l0.0259 0.21484h0.25188v-1.1038c0-0.44821-0.1852-0.74084-0.626-0.74084-0.28892 0-0.54081 0.12594-0.7075 0.23337l0.12224 0.21113c0.14076-0.0963 0.32597-0.19261 0.53711-0.19261 0.29263 0 0.37041 0.22225 0.37041 0.4519-0.76676 0.0852-1.1075 0.28152-1.1075 0.67416zm0.30003-0.0222c0-0.22966 0.20373-0.37783 0.80751-0.45191v0.50006c-0.17409 0.15558-0.31856 0.24077-0.49265 0.24077-0.1778 0-0.31486-0.0852-0.31486-0.28892z"/>
    <path d="m-109.33 172.5c0.11854 0 0.21114-0.0815 0.21114-0.19632 0-0.11854-0.0926-0.19633-0.21114-0.19633-0.11853 0-0.21113 0.0778-0.21113 0.19633 0 0.11482 0.0926 0.19632 0.21113 0.19632zm-0.15557 2.1706h0.30374v-1.8002h-0.30374z"/>
    <path d="m-108.53 174.12c0 0.3556 0.12964 0.60008 0.51488 0.60008 0.11112 0 0.23336-0.0333 0.33337-0.0667l-0.0593-0.22966c-0.0593 0.0222-0.14076 0.0482-0.20373 0.0482-0.20744 0-0.27782-0.12594-0.27782-0.34819v-1.0001h0.48525v-0.24818h-0.48525v-0.50376h-0.25558l-0.037 0.50376-0.28152 0.0185v0.22966h0.2667z"/>
   </g>
   <g transform="matrix(0 .0042365 .0043091 0 -111.87 198.9)" fill="#47d58a" stroke-width="123.85">
    <g fill="#47d58a" stroke-width="123.85">
     <path d="m486.41 221.41-364.07-208.5c-52.938-30.318-95.852-5.44-95.852 55.563v415.65c0 61.004 42.914 85.882 95.852 55.563l364.07-208.49c52.938-30.317 52.938-79.473 0-109.79z" fill="#47d58a" stroke-width="123.85"/>
    </g>
   </g>
   <path d="m-124.67 201.4-2.8112 2.3812v7.9375l2.8112 2.3812h27.451l2.8112-2.3812v-7.9375l-2.8112-2.3812z" fill="#1d232d" stroke="#009244" stroke-linecap="round" stroke-width=".26458"/>
  </g>
  <g fill="#e8eaec" stroke-linecap="round" stroke-width=".26458">
   <g aria-label="Return">
    <path d="m-115.67 206.89h0.40745c0.37783 0 0.58526 0.11483 0.58526 0.43339 0 0.31485-0.20743 0.47043-0.58526 0.47043h-0.40745zm1.3742 2.1818-0.61859-1.0594c0.32967-0.0852 0.54451-0.31115 0.54451-0.68897 0-0.50377-0.3556-0.68157-0.84826-0.68157h-0.76305v2.4299h0.31115v-1.0261h0.43709l0.58526 1.0261z"/>
    <path d="m-114.03 208.17c0 0.58896 0.38153 0.94086 0.86307 0.94086 0.24447 0 0.43709-0.0852 0.59267-0.18521l-0.10742-0.20003c-0.13335 0.0852-0.27782 0.14076-0.44821 0.14076-0.34449 0-0.57785-0.24447-0.60007-0.63341h1.215c7e-3 -0.0444 0.0111-0.10372 0.0111-0.16669 0-0.51488-0.2593-0.84455-0.71861-0.84455-0.41117 0-0.80751 0.35931-0.80751 0.94827zm0.29633-0.13706c0.037-0.363 0.2667-0.57044 0.51859-0.57044 0.28151 0 0.4445 0.20373 0.4445 0.57044z"/>
    <path d="m-112.06 208.51c0 0.3556 0.12964 0.60008 0.51488 0.60008 0.11112 0 0.23336-0.0333 0.33337-0.0667l-0.0593-0.22966c-0.0593 0.0222-0.14076 0.0482-0.20373 0.0482-0.20744 0-0.27782-0.12594-0.27782-0.34819v-1.0001h0.48525v-0.24818h-0.48525v-0.50377h-0.25558l-0.037 0.50377-0.28151 0.0185v0.22966h0.2667z"/>
    <path d="m-110.91 208.41c0 0.45932 0.17039 0.7038 0.55192 0.7038 0.24818 0 0.42598-0.12965 0.59267-0.32597h0.0111l0.0259 0.28152h0.25188v-1.8002h-0.30374v1.2779c-0.17039 0.21114-0.30004 0.30374-0.48525 0.30374-0.23706 0-0.33708-0.14446-0.33708-0.48154v-1.1001h-0.30744z"/>
    <path d="m-108.86 209.07h0.30374v-1.1557c0.12224-0.30375 0.30374-0.41487 0.45561-0.41487 0.0741 0 0.11483 0.0111 0.1741 0.0296l0.0593-0.2667c-0.0593-0.0259-0.11483-0.037-0.19262-0.037-0.20373 0-0.38894 0.14446-0.51118 0.37042h-0.0111l-0.0259-0.32597h-0.25188z"/>
    <path d="m-107.58 209.07h0.30374v-1.3039c0.1815-0.1815 0.30744-0.27781 0.49265-0.27781 0.23707 0 0.34079 0.14446 0.34079 0.48154v1.1001h0.30374v-1.1409c0-0.45931-0.17039-0.70379-0.54822-0.70379-0.24818 0-0.43339 0.13335-0.60378 0.30374h-0.0111l-0.0259-0.25929h-0.25188z"/>
   </g>
   <g aria-label="[enemy  escaped]">
    <path d="m-122.7 157.51h0.66305v-0.1741h-0.43339v-2.8337h0.43339v-0.1778h-0.66305z"/>
    <path d="m-121.76 156.05c0 0.58896 0.38153 0.94086 0.86307 0.94086 0.24447 0 0.43709-0.0852 0.59267-0.18521l-0.10743-0.20003c-0.13335 0.0852-0.27781 0.14076-0.4482 0.14076-0.34449 0-0.57785-0.24447-0.60007-0.63341h1.215c7e-3 -0.0445 0.0111-0.10372 0.0111-0.16669 0-0.51488-0.25929-0.84455-0.7186-0.84455-0.41117 0-0.80751 0.35931-0.80751 0.94827zm0.29633-0.13706c0.037-0.363 0.2667-0.57044 0.51858-0.57044 0.28152 0 0.4445 0.20373 0.4445 0.57044z"/>
    <path d="m-119.78 156.95h0.30374v-1.3039c0.18151-0.1815 0.30745-0.27781 0.49266-0.27781 0.23706 0 0.34078 0.14446 0.34078 0.48154v1.1001h0.30374v-1.1409c0-0.45931-0.17039-0.70379-0.54821-0.70379-0.24818 0-0.43339 0.13335-0.60378 0.30374h-0.0111l-0.0259-0.25929h-0.25189z"/>
    <path d="m-117.89 156.05c0 0.58896 0.38153 0.94086 0.86307 0.94086 0.24447 0 0.43709-0.0852 0.59267-0.18521l-0.10743-0.20003c-0.13335 0.0852-0.27781 0.14076-0.4482 0.14076-0.34449 0-0.57785-0.24447-0.60007-0.63341h1.215c7e-3 -0.0445 0.0111-0.10372 0.0111-0.16669 0-0.51488-0.25929-0.84455-0.7186-0.84455-0.41117 0-0.80751 0.35931-0.80751 0.94827zm0.29633-0.13706c0.037-0.363 0.2667-0.57044 0.51858-0.57044 0.28152 0 0.4445 0.20373 0.4445 0.57044z"/>
    <path d="m-115.92 156.95h0.30374v-1.3039c0.16669-0.18521 0.31856-0.27781 0.45191-0.27781 0.22966 0 0.33708 0.14446 0.33708 0.48154v1.1001h0.30374v-1.3039c0.16669-0.18521 0.31115-0.27781 0.45191-0.27781 0.22596 0 0.33338 0.14446 0.33338 0.48154v1.1001h0.30374v-1.1409c0-0.45931-0.1778-0.70379-0.54822-0.70379-0.21854 0-0.40375 0.14076-0.59267 0.34449-0.0741-0.21484-0.22225-0.34449-0.49635-0.34449-0.21485 0-0.40376 0.13335-0.55933 0.30374h-0.0111l-0.0259-0.25929h-0.25189z"/>
    <path d="m-112.98 157.44-0.0593 0.24078c0.0593 0.0222 0.12965 0.037 0.21114 0.037 0.36301 0 0.54821-0.27041 0.67416-0.62601l0.67786-1.9484h-0.29633l-0.32227 0.99642c-0.0482 0.15928-0.10001 0.34449-0.15187 0.50747h-0.0148c-0.0556-0.16668-0.11854-0.35189-0.1741-0.50747l-0.36671-0.99642h-0.31486l0.72232 1.8039-0.0407 0.13335c-0.0741 0.22225-0.20373 0.38523-0.40746 0.38523-0.0445 0-0.10001-0.0148-0.13705-0.0259z"/>
    <path d="m-109.77 156.05c0 0.58896 0.38153 0.94086 0.86307 0.94086 0.24447 0 0.43709-0.0852 0.59266-0.18521l-0.10742-0.20003c-0.13335 0.0852-0.27781 0.14076-0.4482 0.14076-0.34449 0-0.57785-0.24447-0.60008-0.63341h1.215c7e-3 -0.0445 0.0111-0.10372 0.0111-0.16669 0-0.51488-0.25929-0.84455-0.7186-0.84455-0.41117 0-0.80751 0.35931-0.80751 0.94827zm0.29633-0.13706c0.037-0.363 0.2667-0.57044 0.51858-0.57044 0.28152 0 0.4445 0.20373 0.4445 0.57044z"/>
    <path d="m-108 156.74c0.17039 0.14076 0.41486 0.24818 0.67045 0.24818 0.42598 0 0.65934-0.24448 0.65934-0.53711 0-0.34078-0.28892-0.4482-0.54822-0.54451-0.20372-0.0778-0.40005-0.14446-0.40005-0.31115 0-0.13705 0.10372-0.25929 0.32968-0.25929 0.15927 0 0.28892 0.0667 0.41116 0.15928l0.14446-0.19262c-0.13705-0.11112-0.33337-0.20373-0.55933-0.20373-0.38894 0-0.61859 0.22225-0.61859 0.51118 0 0.30374 0.28151 0.42598 0.5371 0.51858 0.19632 0.0741 0.41116 0.15557 0.41116 0.34078 0 0.15558-0.11853 0.28152-0.3556 0.28152-0.21484 0-0.37412-0.0889-0.52969-0.21484z"/>
    <path d="m-106.37 156.05c0 0.59637 0.36671 0.94086 0.84455 0.94086 0.21484 0 0.42228-0.0889 0.58526-0.23337l-0.13705-0.20002c-0.10743 0.0963-0.25189 0.1815-0.42228 0.1815-0.32967 0-0.55562-0.27781-0.55562-0.68897 0-0.41487 0.23706-0.69639 0.56303-0.69639 0.14446 0 0.25559 0.0667 0.36301 0.15928l0.15187-0.19632c-0.12224-0.11483-0.28893-0.21484-0.52599-0.21484-0.46302 0-0.86678 0.34449-0.86678 0.94827z"/>
    <path d="m-104.68 156.48c0 0.32226 0.22596 0.51118 0.5297 0.51118 0.22225 0 0.42227-0.11854 0.59637-0.2593h7e-3l0.0259 0.21485h0.25188v-1.1038c0-0.4482-0.18521-0.74083-0.626-0.74083-0.28893 0-0.54081 0.12594-0.7075 0.23336l0.12224 0.21114c0.14076-0.0963 0.32596-0.19262 0.5371-0.19262 0.29263 0 0.37042 0.22225 0.37042 0.45191-0.76676 0.0852-1.1076 0.28152-1.1076 0.67416zm0.30004-0.0222c0-0.22966 0.20373-0.37783 0.80751-0.45191v0.50006c-0.1741 0.15558-0.31856 0.24077-0.49266 0.24077-0.1778 0-0.31485-0.0852-0.31485-0.28892z"/>
    <path d="m-102.4 156.78c0.16669 0.12965 0.33337 0.20744 0.50006 0.20744 0.41116 0 0.77788-0.35931 0.77788-0.9705 0-0.55932-0.24818-0.91863-0.7112-0.91863-0.21114 0-0.41117 0.11483-0.57415 0.25188h-0.0111l-0.0259-0.20743h-0.25188v2.5596h0.30374v-0.60748zm7e-3 -0.23706v-0.94457c0.1778-0.15928 0.32967-0.24447 0.48154-0.24447 0.34078 0 0.47413 0.2667 0.47413 0.66304 0 0.4445-0.21854 0.71491-0.51488 0.71491-0.11853 0-0.27781-0.0519-0.44079-0.18891z"/>
    <path d="m-100.78 156.05c0 0.58896 0.38153 0.94086 0.86307 0.94086 0.24448 0 0.43709-0.0852 0.59267-0.18521l-0.10742-0.20003c-0.13335 0.0852-0.27781 0.14076-0.4482 0.14076-0.34449 0-0.57785-0.24447-0.60007-0.63341h1.215c0.0074-0.0445 0.01111-0.10372 0.01111-0.16669 0-0.51488-0.25929-0.84455-0.71861-0.84455-0.41117 0-0.80751 0.35931-0.80751 0.94827zm0.29633-0.13706c0.037-0.363 0.2667-0.57044 0.51858-0.57044 0.28152 0 0.4445 0.20373 0.4445 0.57044z"/>
    <path d="m-98.934 156.05c0 0.60007 0.29263 0.94086 0.74454 0.94086 0.21114 0 0.40375-0.11854 0.54451-0.25559h0.01111l0.02593 0.21114h0.25188v-2.6374h-0.30744v0.69268l0.01482 0.30744c-0.15928-0.12964-0.29633-0.20743-0.50377-0.20743-0.41116 0-0.78158 0.36301-0.78158 0.94827zm0.31486-4e-3c0-0.41116 0.22966-0.68897 0.51858-0.68897 0.14817 0 0.28522 0.0519 0.43709 0.18891v0.94086c-0.14817 0.16669-0.29263 0.24818-0.45932 0.24818-0.31485 0-0.49636-0.25929-0.49636-0.68898z"/>
    <path d="m-96.938 157.34v0.1741h0.65934v-3.1856h-0.65934v0.1778h0.42968v2.8337z"/>
   </g>
   <g aria-label="[10s  passed]">
    <path d="m-117.75 191.64h0.66304v-0.1741h-0.43338v-2.8337h0.43338v-0.1778h-0.66304z"/>
    <path d="m-116.69 191.08h1.3335v-0.25188h-0.48895v-2.1114h-0.23336c-0.12964 0.0778-0.28522 0.13706-0.50006 0.1741v0.19632h0.42968v1.741h-0.54081z"/>
    <path d="m-114.22 191.12c0.47043 0 0.75565-0.44079 0.75565-1.2335 0-0.7927-0.28522-1.2187-0.75565-1.2187-0.47414 0-0.75936 0.42598-0.75936 1.2187 0 0.79269 0.28522 1.2335 0.75936 1.2335zm0-0.24447c-0.27782 0-0.46302-0.29634-0.46302-0.98901 0-0.69268 0.1852-0.9742 0.46302-0.9742 0.27411 0 0.45931 0.28152 0.45931 0.9742 0 0.69267-0.1852 0.98901-0.45931 0.98901z"/>
    <path d="m-113.2 190.88c0.17039 0.14076 0.41487 0.24818 0.67045 0.24818 0.42598 0 0.65935-0.24447 0.65935-0.5371 0-0.34078-0.28893-0.44821-0.54822-0.54451-0.20373-0.0778-0.40005-0.14447-0.40005-0.31115 0-0.13706 0.10372-0.2593 0.32967-0.2593 0.15928 0 0.28893 0.0667 0.41116 0.15928l0.14447-0.19261c-0.13706-0.11113-0.33338-0.20373-0.55933-0.20373-0.38894 0-0.6186 0.22225-0.6186 0.51117 0 0.30374 0.28152 0.42598 0.5371 0.51859 0.19633 0.0741 0.41117 0.15557 0.41117 0.34078 0 0.15557-0.11854 0.28152-0.3556 0.28152-0.21484 0-0.37412-0.0889-0.5297-0.21485z"/>
    <path d="m-109.66 190.92c0.16668 0.12965 0.33337 0.20743 0.50006 0.20743 0.41116 0 0.77787-0.3593 0.77787-0.97049 0-0.55933-0.24817-0.91863-0.7112-0.91863-0.21113 0-0.41116 0.11483-0.57414 0.25188h-0.0111l-0.0259-0.20743h-0.25189v2.5596h0.30375v-0.60749zm7e-3 -0.23707v-0.94456c0.1778-0.15928 0.32967-0.24447 0.48154-0.24447 0.34078 0 0.47413 0.2667 0.47413 0.66304 0 0.4445-0.21855 0.71491-0.51488 0.71491-0.11853 0-0.27781-0.0519-0.44079-0.18892z"/>
    <path d="m-108.04 190.61c0 0.32226 0.22595 0.51117 0.52969 0.51117 0.22225 0 0.42228-0.11853 0.59637-0.25929h7e-3l0.0259 0.21484h0.25188v-1.1038c0-0.4482-0.1852-0.74083-0.626-0.74083-0.28893 0-0.54081 0.12594-0.7075 0.23336l0.12224 0.21114c0.14076-0.0963 0.32597-0.19262 0.53711-0.19262 0.29262 0 0.37041 0.22225 0.37041 0.45191-0.76676 0.0852-1.1075 0.28152-1.1075 0.67416zm0.30003-0.0222c0-0.22966 0.20373-0.37782 0.80751-0.45191v0.50007c-0.17409 0.15557-0.31856 0.24077-0.49265 0.24077-0.1778 0-0.31486-0.0852-0.31486-0.28893z"/>
    <path d="m-106.25 190.88c0.17039 0.14076 0.41487 0.24818 0.67046 0.24818 0.42598 0 0.65934-0.24447 0.65934-0.5371 0-0.34078-0.28893-0.44821-0.54822-0.54451-0.20373-0.0778-0.40005-0.14447-0.40005-0.31115 0-0.13706 0.10372-0.2593 0.32967-0.2593 0.15928 0 0.28893 0.0667 0.41116 0.15928l0.14447-0.19261c-0.13706-0.11113-0.33338-0.20373-0.55933-0.20373-0.38894 0-0.6186 0.22225-0.6186 0.51117 0 0.30374 0.28152 0.42598 0.53711 0.51859 0.19632 0.0741 0.41116 0.15557 0.41116 0.34078 0 0.15557-0.11853 0.28152-0.3556 0.28152-0.21484 0-0.37412-0.0889-0.5297-0.21485z"/>
    <path d="m-104.7 190.88c0.17039 0.14076 0.41487 0.24818 0.67046 0.24818 0.42598 0 0.65934-0.24447 0.65934-0.5371 0-0.34078-0.28893-0.44821-0.54822-0.54451-0.20373-0.0778-0.40005-0.14447-0.40005-0.31115 0-0.13706 0.10372-0.2593 0.32967-0.2593 0.15928 0 0.28893 0.0667 0.41117 0.15928l0.14446-0.19261c-0.13706-0.11113-0.33338-0.20373-0.55933-0.20373-0.38894 0-0.6186 0.22225-0.6186 0.51117 0 0.30374 0.28152 0.42598 0.53711 0.51859 0.19632 0.0741 0.41116 0.15557 0.41116 0.34078 0 0.15557-0.11853 0.28152-0.3556 0.28152-0.21484 0-0.37412-0.0889-0.5297-0.21485z"/>
    <path d="m-103.08 190.18c0 0.58897 0.38153 0.94086 0.86307 0.94086 0.24447 0 0.43709-0.0852 0.59267-0.18521l-0.10742-0.20002c-0.13335 0.0852-0.27782 0.14076-0.44821 0.14076-0.34449 0-0.57785-0.24448-0.60007-0.63341h1.215c7e-3 -0.0445 0.0111-0.10372 0.0111-0.16669 0-0.51488-0.2593-0.84455-0.71861-0.84455-0.41117 0-0.80751 0.3593-0.80751 0.94826zm0.29633-0.13705c0.037-0.36301 0.2667-0.57044 0.51859-0.57044 0.28151 0 0.4445 0.20373 0.4445 0.57044z"/>
    <path d="m-101.24 190.18c0 0.60008 0.29263 0.94086 0.74453 0.94086 0.21114 0 0.40376-0.11853 0.54452-0.25558h0.01111l0.02593 0.21113h0.25188v-2.6374h-0.30745v0.69268l0.01482 0.30744c-0.15928-0.12964-0.29633-0.20743-0.50376-0.20743-0.41117 0-0.78158 0.36301-0.78158 0.94826zm0.31485-4e-3c0-0.41116 0.22966-0.68897 0.51858-0.68897 0.14817 0 0.28523 0.0519 0.4371 0.18891v0.94086c-0.14817 0.16668-0.29263 0.24818-0.45932 0.24818-0.31485 0-0.49636-0.2593-0.49636-0.68898z"/>
    <path d="m-99.24 191.47v0.1741h0.65934v-3.1856h-0.65934v0.1778h0.42968v2.8337z"/>
   </g>
  </g>
  <path d="m-127.61 173.75h-11.906v-31.485h10.583" fill="none" stroke="#47d58a" stroke-linecap="square" stroke-width=".26458"/>
  <g transform="matrix(.0042365 0 0 -.0043091 -129.84 143.45)" fill="#47d58a" stroke-width="123.85">
   <g fill="#47d58a" stroke-width="123.85">
    <path d="m486.41 221.41-364.07-208.5c-52.938-30.318-95.852-5.44-95.852 55.563v415.65c0 61.004 42.914 85.882 95.852 55.563l364.07-208.49c52.938-30.317 52.938-79.473 0-109.79z" fill="#47d58a" stroke-width="123.85"/>
   </g>
  </g>
  <g fill="#e8eaec" stroke-linecap="round" stroke-width=".26458" aria-label="[enemy  visible]">
   <path d="m-151.66 164.13h0.66305v-0.1741h-0.43339v-2.8337h0.43339v-0.1778h-0.66305z"/>
   <path d="m-150.71 162.67c0 0.58896 0.38153 0.94085 0.86307 0.94085 0.24447 0 0.43709-0.0852 0.59267-0.1852l-0.10742-0.20003c-0.13335 0.0852-0.27782 0.14076-0.44821 0.14076-0.34449 0-0.57785-0.24448-0.60007-0.63341h1.215c7e-3 -0.0444 0.0111-0.10372 0.0111-0.16669 0-0.51488-0.2593-0.84455-0.71861-0.84455-0.41117 0-0.80751 0.3593-0.80751 0.94827zm0.29633-0.13706c0.037-0.36301 0.2667-0.57044 0.51859-0.57044 0.28151 0 0.4445 0.20373 0.4445 0.57044z"/>
   <path d="m-148.74 163.56h0.30374v-1.3039c0.18151-0.18151 0.30745-0.27781 0.49266-0.27781 0.23707 0 0.34078 0.14446 0.34078 0.48154v1.1001h0.30374v-1.1409c0-0.45932-0.17039-0.70379-0.54821-0.70379-0.24818 0-0.43339 0.13335-0.60378 0.30374h-0.0111l-0.0259-0.25929h-0.25189z"/>
   <path d="m-146.85 162.67c0 0.58896 0.38153 0.94085 0.86307 0.94085 0.24447 0 0.43709-0.0852 0.59267-0.1852l-0.10742-0.20003c-0.13335 0.0852-0.27782 0.14076-0.44821 0.14076-0.34449 0-0.57785-0.24448-0.60007-0.63341h1.215c7e-3 -0.0444 0.0111-0.10372 0.0111-0.16669 0-0.51488-0.2593-0.84455-0.71861-0.84455-0.41117 0-0.80751 0.3593-0.80751 0.94827zm0.29633-0.13706c0.037-0.36301 0.2667-0.57044 0.51859-0.57044 0.28151 0 0.4445 0.20373 0.4445 0.57044z"/>
   <path d="m-144.88 163.56h0.30374v-1.3039c0.16669-0.18521 0.31856-0.27781 0.45191-0.27781 0.22966 0 0.33708 0.14446 0.33708 0.48154v1.1001h0.30374v-1.3039c0.16669-0.18521 0.31115-0.27781 0.45191-0.27781 0.22596 0 0.33338 0.14446 0.33338 0.48154v1.1001h0.30374v-1.1409c0-0.45932-0.1778-0.70379-0.54822-0.70379-0.21854 0-0.40375 0.14076-0.59267 0.34449-0.0741-0.21484-0.22225-0.34449-0.49635-0.34449-0.21484 0-0.40376 0.13335-0.55933 0.30374h-0.0111l-0.0259-0.25929h-0.25189z"/>
   <path d="m-141.93 164.06-0.0593 0.24077c0.0593 0.0222 0.12965 0.037 0.21114 0.037 0.36301 0 0.54822-0.27041 0.67416-0.62601l0.67786-1.9484h-0.29633l-0.32227 0.99642c-0.0481 0.15928-0.10001 0.34449-0.15187 0.50747h-0.0148c-0.0556-0.16669-0.11854-0.35189-0.1741-0.50747l-0.36671-0.99642h-0.31486l0.72232 1.8039-0.0408 0.13335c-0.0741 0.22225-0.20373 0.38523-0.40746 0.38523-0.0444 0-0.10001-0.0148-0.13705-0.0259z"/>
   <path d="m-138.2 163.56h0.3556l0.63711-1.8002h-0.30004l-0.34078 1.0224c-0.0519 0.1778-0.11112 0.3593-0.16298 0.5297h-0.0148c-0.0556-0.1704-0.11483-0.3519-0.16669-0.5297l-0.34078-1.0224h-0.31485z"/>
   <path d="m-136.71 161.39c0.11853 0 0.21113-0.0815 0.21113-0.19632 0-0.11853-0.0926-0.19632-0.21113-0.19632-0.11854 0-0.21114 0.0778-0.21114 0.19632 0 0.11483 0.0926 0.19632 0.21114 0.19632zm-0.15558 2.1706h0.30374v-1.8002h-0.30374z"/>
   <path d="m-136.15 163.36c0.17039 0.14075 0.41486 0.24817 0.67045 0.24817 0.42598 0 0.65934-0.24447 0.65934-0.5371 0-0.34078-0.28892-0.4482-0.54821-0.54451-0.20373-0.0778-0.40005-0.14446-0.40005-0.31115 0-0.13706 0.10371-0.25929 0.32967-0.25929 0.15928 0 0.28892 0.0667 0.41116 0.15928l0.14446-0.19262c-0.13705-0.11113-0.33337-0.20373-0.55933-0.20373-0.38893 0-0.61859 0.22225-0.61859 0.51117 0 0.30375 0.28151 0.42598 0.5371 0.51859 0.19632 0.0741 0.41116 0.15557 0.41116 0.34078 0 0.15558-0.11853 0.28152-0.3556 0.28152-0.21484 0-0.37412-0.0889-0.52969-0.21484z"/>
   <path d="m-134.24 161.39c0.11853 0 0.21114-0.0815 0.21114-0.19632 0-0.11853-0.0926-0.19632-0.21114-0.19632s-0.21114 0.0778-0.21114 0.19632c0 0.11483 0.0926 0.19632 0.21114 0.19632zm-0.15558 2.1706h0.30374v-1.8002h-0.30374z"/>
   <path d="m-133.49 163.56h0.24447l0.0259-0.1778h0.0111c0.15928 0.14076 0.34819 0.22225 0.51488 0.22225 0.41116 0 0.77788-0.3593 0.77788-0.97419 0-0.55563-0.24818-0.91493-0.71491-0.91493-0.20002 0-0.40005 0.10742-0.56303 0.25188l7e-3 -0.32596v-0.71861h-0.30374zm0.30374-0.40005v-0.94456c0.17039-0.15928 0.32967-0.24447 0.48154-0.24447 0.34078 0 0.47413 0.2667 0.47413 0.66304 0 0.4445-0.21854 0.71491-0.51488 0.71491-0.11853 0-0.28151-0.0519-0.44079-0.18892z"/>
   <path d="m-131.43 163.2c0 0.26299 0.0926 0.40745 0.32226 0.40745 0.0815 0 0.13335-0.0111 0.1741-0.0296l-0.0407-0.22966c-0.0333 7e-3 -0.0482 7e-3 -0.0667 7e-3 -0.0444 0-0.0852-0.037-0.0852-0.13335v-2.2966h-0.30374z"/>
   <path d="m-130.62 162.67c0 0.58896 0.38152 0.94085 0.86307 0.94085 0.24447 0 0.43709-0.0852 0.59266-0.1852l-0.10742-0.20003c-0.13335 0.0852-0.27781 0.14076-0.4482 0.14076-0.34449 0-0.57785-0.24448-0.60008-0.63341h1.215c7e-3 -0.0444 0.0111-0.10372 0.0111-0.16669 0-0.51488-0.25929-0.84455-0.71861-0.84455-0.41116 0-0.8075 0.3593-0.8075 0.94827zm0.29633-0.13706c0.037-0.36301 0.2667-0.57044 0.51858-0.57044 0.28152 0 0.4445 0.20373 0.4445 0.57044z"/>
   <path d="m-128.83 163.95v0.1741h0.65934v-3.1856h-0.65934v0.1778h0.42968v2.8337z"/>
  </g>
  <path d="m-127.61 208.14h-54.769v-60.854" fill="none" stroke="#47d58a" stroke-linecap="square" stroke-width=".26458"/>
  <g transform="matrix(0 -.0042365 .0043091 0 -183.57 147.66)" fill="#47d58a" stroke-width="123.85">
   <g fill="#47d58a" stroke-width="123.85">
    <path d="m486.41 221.41-364.07-208.5c-52.938-30.318-95.852-5.44-95.852 55.563v415.65c0 61.004 42.914 85.882 95.852 55.563l364.07-208.49c52.938-30.317 52.938-79.473 0-109.79z" fill="#47d58a" stroke-width="123.85"/>
   </g>
  </g>
  <g fill="#e8eaec" stroke-linecap="round" stroke-width=".26458" aria-label="[returned to the lane]">
   <path d="m-172.74 206.46h0.66304v-0.17409h-0.43338v-2.8337h0.43338v-0.1778h-0.66304z"/>
   <path d="m-171.67 205.9h0.30374v-1.1557c0.12224-0.30374 0.30374-0.41487 0.45561-0.41487 0.0741 0 0.11483 0.0111 0.1741 0.0296l0.0593-0.2667c-0.0593-0.0259-0.11483-0.037-0.19261-0.037-0.20373 0-0.38894 0.14447-0.51118 0.37042h-0.0111l-0.0259-0.32597h-0.25188z"/>
   <path d="m-170.55 205c0 0.58896 0.38153 0.94086 0.86307 0.94086 0.24448 0 0.43709-0.0852 0.59267-0.18521l-0.10742-0.20003c-0.13335 0.0852-0.27782 0.14076-0.44821 0.14076-0.34448 0-0.57785-0.24447-0.60007-0.63341h1.215c7e-3 -0.0444 0.0111-0.10372 0.0111-0.16669 0-0.51488-0.25929-0.84455-0.71861-0.84455-0.41116 0-0.80751 0.35931-0.80751 0.94827zm0.29633-0.13705c0.037-0.36301 0.2667-0.57045 0.51859-0.57045 0.28151 0 0.4445 0.20373 0.4445 0.57045z"/>
   <path d="m-168.58 205.34c0 0.3556 0.12965 0.60008 0.51488 0.60008 0.11112 0 0.23336-0.0333 0.33337-0.0667l-0.0593-0.22966c-0.0593 0.0222-0.14076 0.0482-0.20373 0.0482-0.20744 0-0.27781-0.12594-0.27781-0.34819v-1.0001h0.48524v-0.24818h-0.48524v-0.50376h-0.25559l-0.037 0.50376-0.28152 0.0185v0.22966h0.2667z"/>
   <path d="m-167.42 205.24c0 0.45931 0.17039 0.70379 0.55192 0.70379 0.24818 0 0.42598-0.12965 0.59267-0.32597h0.0111l0.0259 0.28152h0.25188v-1.8002h-0.30374v1.2779c-0.17039 0.21114-0.30004 0.30374-0.48524 0.30374-0.23707 0-0.33708-0.14446-0.33708-0.48154v-1.1001h-0.30745z"/>
   <path d="m-165.38 205.9h0.30374v-1.1557c0.12224-0.30374 0.30375-0.41487 0.45562-0.41487 0.0741 0 0.11483 0.0111 0.17409 0.0296l0.0593-0.2667c-0.0593-0.0259-0.11483-0.037-0.19262-0.037-0.20373 0-0.38894 0.14447-0.51117 0.37042h-0.0111l-0.0259-0.32597h-0.25189z"/>
   <path d="m-164.09 205.9h0.30374v-1.3039c0.1815-0.1815 0.30745-0.27781 0.49265-0.27781 0.23707 0 0.34079 0.14446 0.34079 0.48154v1.1001h0.30374v-1.1409c0-0.45932-0.17039-0.7038-0.54822-0.7038-0.24818 0-0.43339 0.13335-0.60378 0.30375h-0.0111l-0.0259-0.2593h-0.25188z"/>
   <path d="m-162.2 205c0 0.58896 0.38153 0.94086 0.86307 0.94086 0.24448 0 0.4371-0.0852 0.59267-0.18521l-0.10742-0.20003c-0.13335 0.0852-0.27781 0.14076-0.4482 0.14076-0.34449 0-0.57785-0.24447-0.60008-0.63341h1.215c7e-3 -0.0444 0.0111-0.10372 0.0111-0.16669 0-0.51488-0.25929-0.84455-0.71861-0.84455-0.41116 0-0.80751 0.35931-0.80751 0.94827zm0.29634-0.13705c0.037-0.36301 0.2667-0.57045 0.51858-0.57045 0.28152 0 0.4445 0.20373 0.4445 0.57045z"/>
   <path d="m-160.36 205c0 0.60007 0.29263 0.94086 0.74454 0.94086 0.21114 0 0.40375-0.11854 0.54451-0.25559h0.0111l0.0259 0.21114h0.25189v-2.6374h-0.30745v0.69268l0.0148 0.30745c-0.15928-0.12965-0.29634-0.20744-0.50377-0.20744-0.41116 0-0.78158 0.36301-0.78158 0.94827zm0.31486-4e-3c0-0.41117 0.22965-0.68898 0.51858-0.68898 0.14817 0 0.28522 0.0519 0.43709 0.18891v0.94086c-0.14817 0.16669-0.29263 0.24818-0.45932 0.24818-0.31485 0-0.49635-0.25929-0.49635-0.68897z"/>
   <path d="m-157.38 205.34c0 0.3556 0.12964 0.60008 0.51488 0.60008 0.11112 0 0.23336-0.0333 0.33337-0.0667l-0.0593-0.22966c-0.0593 0.0222-0.14075 0.0482-0.20373 0.0482-0.20743 0-0.27781-0.12594-0.27781-0.34819v-1.0001h0.48525v-0.24818h-0.48525v-0.50376h-0.25559l-0.037 0.50376-0.28151 0.0185v0.22966h0.2667z"/>
   <path d="m-156.35 205c0 0.59637 0.39264 0.94086 0.83344 0.94086 0.44079 0 0.83343-0.34449 0.83343-0.94086 0-0.60378-0.39264-0.94827-0.83343-0.94827-0.4408 0-0.83344 0.34449-0.83344 0.94827zm0.31485 0c0-0.41487 0.21114-0.69638 0.51859-0.69638 0.31115 0 0.51858 0.28151 0.51858 0.69638 0 0.41116-0.20743 0.68897-0.51858 0.68897-0.30745 0-0.51859-0.27781-0.51859-0.68897z"/>
   <path d="m-153.4 205.34c0 0.3556 0.12964 0.60008 0.51488 0.60008 0.11112 0 0.23336-0.0333 0.33337-0.0667l-0.0593-0.22966c-0.0593 0.0222-0.14075 0.0482-0.20373 0.0482-0.20743 0-0.27781-0.12594-0.27781-0.34819v-1.0001h0.48525v-0.24818h-0.48525v-0.50376h-0.25559l-0.037 0.50376-0.28151 0.0185v0.22966h0.2667z"/>
   <path d="m-152.2 205.9h0.30374v-1.3039c0.18151-0.1815 0.30745-0.27781 0.49266-0.27781 0.23706 0 0.34078 0.14446 0.34078 0.48154v1.1001h0.30374v-1.1409c0-0.45932-0.17039-0.7038-0.54822-0.7038-0.24817 0-0.42968 0.13335-0.60007 0.29634l0.0111-0.37042v-0.71861h-0.30374z"/>
   <path d="m-150.32 205c0 0.58896 0.38153 0.94086 0.86307 0.94086 0.24448 0 0.43709-0.0852 0.59267-0.18521l-0.10742-0.20003c-0.13335 0.0852-0.27781 0.14076-0.44821 0.14076-0.34448 0-0.57785-0.24447-0.60007-0.63341h1.215c7e-3 -0.0444 0.0111-0.10372 0.0111-0.16669 0-0.51488-0.25929-0.84455-0.71861-0.84455-0.41116 0-0.80751 0.35931-0.80751 0.94827zm0.29634-0.13705c0.037-0.36301 0.2667-0.57045 0.51858-0.57045 0.28152 0 0.4445 0.20373 0.4445 0.57045z"/>
   <path d="m-147.6 205.53c0 0.263 0.0926 0.40746 0.32226 0.40746 0.0815 0 0.13335-0.0111 0.1741-0.0296l-0.0407-0.22965c-0.0333 7e-3 -0.0482 7e-3 -0.0667 7e-3 -0.0444 0-0.0852-0.037-0.0852-0.13335v-2.2966h-0.30374z"/>
   <path d="m-146.74 205.43c0 0.32227 0.22595 0.51118 0.52969 0.51118 0.22225 0 0.42228-0.11854 0.59637-0.25929h7e-3l0.0259 0.21484h0.25188v-1.1038c0-0.44821-0.1852-0.74084-0.626-0.74084-0.28892 0-0.54081 0.12595-0.7075 0.23337l0.12224 0.21113c0.14076-0.0963 0.32597-0.19261 0.53711-0.19261 0.29263 0 0.37041 0.22225 0.37041 0.45191-0.76676 0.0852-1.1075 0.28151-1.1075 0.67415zm0.30003-0.0222c0-0.22966 0.20373-0.37783 0.80751-0.45191v0.50006c-0.17409 0.15558-0.31856 0.24077-0.49265 0.24077-0.1778 0-0.31486-0.0852-0.31486-0.28892z"/>
   <path d="m-144.76 205.9h0.30374v-1.3039c0.1815-0.1815 0.30745-0.27781 0.49265-0.27781 0.23707 0 0.34079 0.14446 0.34079 0.48154v1.1001h0.30374v-1.1409c0-0.45932-0.17039-0.7038-0.54822-0.7038-0.24818 0-0.43339 0.13335-0.60378 0.30375h-0.0111l-0.0259-0.2593h-0.25188z"/>
   <path d="m-142.87 205c0 0.58896 0.38153 0.94086 0.86308 0.94086 0.24447 0 0.43709-0.0852 0.59266-0.18521l-0.10742-0.20003c-0.13335 0.0852-0.27781 0.14076-0.4482 0.14076-0.34449 0-0.57785-0.24447-0.60008-0.63341h1.215c7e-3 -0.0444 0.0111-0.10372 0.0111-0.16669 0-0.51488-0.25929-0.84455-0.71861-0.84455-0.41116 0-0.80751 0.35931-0.80751 0.94827zm0.29634-0.13705c0.037-0.36301 0.2667-0.57045 0.51858-0.57045 0.28152 0 0.4445 0.20373 0.4445 0.57045z"/>
   <path d="m-141.09 206.28v0.17409h0.65934v-3.1856h-0.65934v0.1778h0.42968v2.8337z"/>
  </g>
 </g>
</svg>
