<svg width="157.69mm" height="65.713mm" version="1.1" viewBox="0 0 157.69 65.713" xmlns="http://www.w3.org/2000/svg">
 <g transform="translate(167.03 -129.16)">
  <g stroke-linecap="round" stroke-width=".26458">
   <path d="m-164.09 147.65-2.8112 2.3812v7.9375l2.8112 2.3812h27.451l2.8112-2.3812v-7.9375l-2.8112-2.3812z" fill="#1d232d" stroke="#009244"/>
   <g fill="#e8eaec" aria-label="Patrol">
    <path d="m-154.83 155.32h0.31115v-0.96308h0.43709c0.52969 0 0.89641-0.24077 0.89641-0.75195 0-0.5334-0.35931-0.7149-0.89641-0.7149h-0.74824zm0.31115-1.215v-0.96679h0.39634c0.41857 0 0.62971 0.11483 0.62971 0.46672 0 0.34449-0.20373 0.50007-0.62971 0.50007z"/>
    <path d="m-152.99 154.85c0 0.32226 0.22595 0.51117 0.52969 0.51117 0.22225 0 0.42228-0.11853 0.59637-0.25929h7e-3l0.0259 0.21484h0.25188v-1.1038c0-0.4482-0.18521-0.74083-0.626-0.74083-0.28893 0-0.54081 0.12594-0.7075 0.23336l0.12224 0.21114c0.14076-0.0963 0.32597-0.19262 0.5371-0.19262 0.29263 0 0.37042 0.22225 0.37042 0.45191-0.76676 0.0852-1.1075 0.28152-1.1075 0.67416zm0.30003-0.0222c0-0.22966 0.20373-0.37782 0.80751-0.45191v0.50007c-0.17409 0.15557-0.31856 0.24077-0.49265 0.24077-0.1778 0-0.31486-0.0852-0.31486-0.28893z"/>
    <path d="m-150.95 154.76c0 0.3556 0.12964 0.60007 0.51487 0.60007 0.11113 0 0.23337-0.0333 0.33338-0.0667l-0.0593-0.22966c-0.0593 0.0222-0.14076 0.0481-0.20373 0.0481-0.20743 0-0.27781-0.12594-0.27781-0.34819v-1.0001h0.48525v-0.24818h-0.48525v-0.50377h-0.25559l-0.037 0.50377-0.28151 0.0185v0.22966h0.2667z"/>
    <path d="m-149.75 155.32h0.30374v-1.1557c0.12224-0.30374 0.30374-0.41486 0.45561-0.41486 0.0741 0 0.11483 0.0111 0.1741 0.0296l0.0593-0.2667c-0.0593-0.0259-0.11483-0.037-0.19262-0.037-0.20373 0-0.38894 0.14446-0.51117 0.37041h-0.0111l-0.0259-0.32596h-0.25188z"/>
    <path d="m-148.63 154.42c0 0.59637 0.39264 0.94086 0.83344 0.94086s0.83344-0.34449 0.83344-0.94086c0-0.60378-0.39264-0.94826-0.83344-0.94826s-0.83344 0.34448-0.83344 0.94826zm0.31486 0c0-0.41486 0.21113-0.69638 0.51858-0.69638 0.31115 0 0.51858 0.28152 0.51858 0.69638 0 0.41117-0.20743 0.68898-0.51858 0.68898-0.30745 0-0.51858-0.27781-0.51858-0.68898z"/>
    <path d="m-146.49 154.96c0 0.263 0.0926 0.40746 0.32226 0.40746 0.0815 0 0.13335-0.0111 0.1741-0.0296l-0.0408-0.22966c-0.0333 7e-3 -0.0481 7e-3 -0.0667 7e-3 -0.0444 0-0.0852-0.037-0.0852-0.13335v-2.2966h-0.30374z"/>
   </g>
   <path d="m-150.28 130.53v15.511" fill="none" stroke="#47d58a"/>
  </g>
  <g>
   <g fill="#e8eaec" stroke-linecap="round" stroke-width=".26458" aria-label="Init">
    <path d="m-149.12 140.77h0.31115v-2.4299h-0.31115z"/>
    <path d="m-148.19 140.77h0.30374v-1.3039c0.18151-0.18151 0.30745-0.27782 0.49266-0.27782 0.23706 0 0.34078 0.14447 0.34078 0.48155v1.1001h0.30374v-1.1409c0-0.45932-0.17039-0.70379-0.54822-0.70379-0.24818 0-0.43338 0.13335-0.60378 0.30374h-0.0111l-0.0259-0.25929h-0.25188z"/>
    <path d="m-146.01 138.6c0.11853 0 0.21114-0.0815 0.21114-0.19632 0-0.11853-0.0926-0.19632-0.21114-0.19632-0.11853 0-0.21114 0.0778-0.21114 0.19632 0 0.11483 0.0926 0.19632 0.21114 0.19632zm-0.15557 2.1706h0.30374v-1.8002h-0.30374z"/>
    <path d="m-145.2 140.21c0 0.3556 0.12964 0.60007 0.51488 0.60007 0.11112 0 0.23336-0.0333 0.33337-0.0667l-0.0593-0.22966c-0.0593 0.0222-0.14075 0.0481-0.20373 0.0481-0.20743 0-0.27781-0.12594-0.27781-0.34819v-1h0.48525v-0.24818h-0.48525v-0.50377h-0.25559l-0.037 0.50377-0.28151 0.0185v0.22966h0.2667z"/>
   </g>
   <rect transform="matrix(.70711 .70711 .70711 -.70711 0 0)" x="-14.793" y="-199.84" width="2.1167" height="2.1167" fill="#1d232d" stroke="#47d58a" stroke-linecap="round" stroke-width=".26458"/>
   <circle transform="scale(1,-1)" cx="-150.26" cy="-130.85" r=".52917" fill="#47d58a"/>
   <g transform="matrix(0 .0042365 .0043091 0 -151.56 145.15)" fill="#47d58a" stroke-width="123.85">
    <g fill="#47d58a" stroke-width="123.85">
     <path d="m486.41 221.41-364.07-208.5c-52.938-30.318-95.852-5.44-95.852 55.563v415.65c0 61.004 42.914 85.882 95.852 55.563l364.07-208.49c52.938-30.317 52.938-79.473 0-109.79z" fill="#47d58a" stroke-width="123.85"/>
    </g>
   </g>
   <path d="m-164.09 182.04-2.8112 2.3812v7.9375l2.8112 2.3812h27.451l2.8112-2.3812v-7.9375l-2.8112-2.3812z" fill="#1d232d" stroke="#009244" stroke-linecap="round" stroke-width=".26458"/>
   <g fill="#e8eaec" stroke-linecap="round" stroke-width=".26458" aria-label="Sleeping">
    <path d="m-157.07 189.4c0.21114 0.21854 0.50747 0.3593 0.84826 0.3593 0.51117 0 0.82973-0.30745 0.82973-0.69268 0-0.3593-0.21854-0.52599-0.50006-0.64823l-0.34819-0.14816c-0.18892-0.0815-0.40376-0.1704-0.40376-0.40376 0-0.21854 0.18151-0.3556 0.45562-0.3556 0.22225 0 0.40375 0.0889 0.55192 0.22966l0.16298-0.20003c-0.17039-0.1778-0.42598-0.30003-0.7149-0.30003-0.4408 0-0.76677 0.27411-0.76677 0.64452 0 0.3556 0.2667 0.5297 0.49266 0.62601l0.34819 0.15187c0.22966 0.10371 0.40746 0.1815 0.40746 0.42968 0 0.23707-0.18892 0.39635-0.50747 0.39635-0.25559 0-0.49636-0.12224-0.67046-0.30375z"/>
    <path d="m-154.95 189.35c0 0.263 0.0926 0.40746 0.32227 0.40746 0.0815 0 0.13335-0.0111 0.17409-0.0296l-0.0407-0.22966c-0.0333 7e-3 -0.0482 7e-3 -0.0667 7e-3 -0.0444 0-0.0852-0.037-0.0852-0.13335v-2.2966h-0.30374z"/>
    <path d="m-154.14 188.82c0 0.58896 0.38153 0.94086 0.86307 0.94086 0.24447 0 0.43709-0.0852 0.59267-0.18521l-0.10742-0.20002c-0.13335 0.0852-0.27782 0.14076-0.44821 0.14076-0.34449 0-0.57785-0.24448-0.60007-0.63342h1.215c7e-3 -0.0444 0.0111-0.10371 0.0111-0.16668 0-0.51488-0.2593-0.84455-0.71861-0.84455-0.41117 0-0.80751 0.3593-0.80751 0.94826zm0.29633-0.13705c0.037-0.36301 0.2667-0.57044 0.51859-0.57044 0.28151 0 0.4445 0.20373 0.4445 0.57044z"/>
    <path d="m-152.3 188.82c0 0.58896 0.38153 0.94086 0.86307 0.94086 0.24448 0 0.4371-0.0852 0.59267-0.18521l-0.10742-0.20002c-0.13335 0.0852-0.27781 0.14076-0.4482 0.14076-0.34449 0-0.57785-0.24448-0.60008-0.63342h1.215c7e-3 -0.0444 0.0111-0.10371 0.0111-0.16668 0-0.51488-0.25929-0.84455-0.71861-0.84455-0.41116 0-0.80751 0.3593-0.80751 0.94826zm0.29634-0.13705c0.037-0.36301 0.2667-0.57044 0.51858-0.57044 0.28152 0 0.4445 0.20373 0.4445 0.57044z"/>
    <path d="m-150.04 189.55c0.16669 0.12964 0.33338 0.20743 0.50006 0.20743 0.41117 0 0.77788-0.3593 0.77788-0.97049 0-0.55933-0.24818-0.91863-0.7112-0.91863-0.21114 0-0.41116 0.11482-0.57415 0.25188h-0.0111l-0.0259-0.20743h-0.25188v2.5596h0.30374v-0.60748zm7e-3 -0.23707v-0.94456c0.1778-0.15928 0.32967-0.24448 0.48154-0.24448 0.34078 0 0.47413 0.2667 0.47413 0.66305 0 0.4445-0.21854 0.7149-0.51488 0.7149-0.11853 0-0.27781-0.0519-0.44079-0.18891z"/>
    <path d="m-148.12 187.54c0.11853 0 0.21113-0.0815 0.21113-0.19632 0-0.11854-0.0926-0.19632-0.21113-0.19632-0.11854 0-0.21114 0.0778-0.21114 0.19632 0 0.11483 0.0926 0.19632 0.21114 0.19632zm-0.15558 2.1706h0.30374v-1.8002h-0.30374z"/>
    <path d="m-147.37 189.71h0.30375v-1.3039c0.1815-0.1815 0.30744-0.27781 0.49265-0.27781 0.23707 0 0.34078 0.14446 0.34078 0.48154v1.1001h0.30374v-1.1409c0-0.45932-0.17039-0.70379-0.54821-0.70379-0.24818 0-0.43339 0.13335-0.60378 0.30374h-0.0111l-0.0259-0.25929h-0.25189z"/>
    <path d="m-145.21 190.02c0-0.10371 0.0556-0.21114 0.1852-0.30374 0.0778 0.0222 0.16299 0.0296 0.23337 0.0296h0.31115c0.23336 0 0.363 0.0556 0.363 0.22225 0 0.18892-0.22595 0.36672-0.57044 0.36672-0.32596 0-0.52228-0.12224-0.52228-0.31486zm-0.2667 0.0408c0 0.31115 0.30374 0.48524 0.74453 0.48524 0.55933 0 0.91123-0.28892 0.91123-0.6223 0-0.30003-0.21114-0.42968-0.62971-0.42968h-0.34819c-0.24448 0-0.31856-0.0815-0.31856-0.19632 0-0.10001 0.0519-0.15928 0.11483-0.21484 0.0815 0.0407 0.1815 0.063 0.2704 0.063 0.36672 0 0.65934-0.24077 0.65934-0.62601 0-0.15187-0.063-0.28892-0.14816-0.37041h0.37041v-0.23336h-0.626c-0.0667-0.0259-0.15557-0.0444-0.25559-0.0444-0.36671 0-0.67786 0.24817-0.67786 0.64082 0 0.21484 0.11483 0.38893 0.23336 0.48524v0.0148c-0.0926 0.063-0.19632 0.1815-0.19632 0.33337 0 0.14076 0.0704 0.23707 0.15928 0.29263v0.0148c-0.16298 0.11112-0.26299 0.25559-0.26299 0.40746zm0.74453-1.1187c-0.20743 0-0.38153-0.16669-0.38153-0.42968 0-0.263 0.1704-0.41857 0.38153-0.41857 0.21114 0 0.38153 0.15557 0.38153 0.41857 0 0.26299-0.17409 0.42968-0.38153 0.42968z"/>
   </g>
  </g>
  <path d="m-144.81 160.43v20.274" fill="none" stroke="#47d58a" stroke-linecap="round" stroke-width=".26458"/>
  <g transform="matrix(0 .0042365 .0043091 0 -146 179.81)" fill="#47d58a" stroke-width="123.85">
   <g fill="#47d58a" stroke-width="123.85">
    <path d="m486.41 221.41-364.07-208.5c-52.938-30.318-95.852-5.44-95.852 55.563v415.65c0 61.004 42.914 85.882 95.852 55.563l364.07-208.49c52.938-30.317 52.938-79.473 0-109.79z" fill="#47d58a" stroke-width="123.85"/>
   </g>
  </g>
  <path d="m-155.39 181.91v-20.274" fill="none" stroke="#47d58a" stroke-linecap="round" stroke-width=".26458"/>
  <g>
   <g transform="matrix(0 -.0042365 .0043091 0 -156.58 162.52)" fill="#47d58a" stroke-width="123.85">
    <g fill="#47d58a" stroke-width="123.85">
     <path d="m486.41 221.41-364.07-208.5c-52.938-30.318-95.852-5.44-95.852 55.563v415.65c0 61.004 42.914 85.882 95.852 55.563l364.07-208.49c52.938-30.317 52.938-79.473 0-109.79z" fill="#47d58a" stroke-width="123.85"/>
    </g>
   </g>
   <g stroke-linecap="round" stroke-width=".26458">
    <path d="m-103.24 147.65-2.8112 2.3812v42.333l2.8112 2.3812h90.951l2.8112-2.3812v-42.333l-2.8112-2.3812z" fill="#1d232d" stroke="#009244"/>
    <g fill="#47d58a" aria-label="PURSUING">
     <path d="m-102.02 152.28h0.54822v-0.81862h0.33338c0.51117 0 0.94456-0.25189 0.94456-0.81862 0-0.58526-0.41857-0.77788-0.94456-0.77788h-0.8816zm0.54822-1.252v-0.72972h0.30004c0.28892 0 0.4445 0.0926 0.4445 0.34449 0 0.25188-0.14446 0.38523-0.4445 0.38523z"/>
     <path d="m-99.784 151.16c0 0.81121 0.33708 1.1631 0.96308 1.1631 0.626 0 0.95568-0.3519 0.95568-1.1631v-1.2965h-0.52599v1.352c0 0.47414-0.15928 0.63712-0.42968 0.63712-0.2704 0-0.41857-0.16298-0.41857-0.63712v-1.352h-0.54451z"/>
     <path d="m-96.772 150.29h0.27781c0.28522 0 0.4408 0.0815 0.4408 0.31856s-0.15558 0.3593-0.4408 0.3593h-0.27781zm1.3705 1.9817-0.54451-0.96679c0.25559-0.11483 0.42968-0.34078 0.42968-0.69638 0-0.57415-0.42228-0.75195-0.93345-0.75195h-0.87048v2.4151h0.54822v-0.87048h0.29633l0.46302 0.87048z"/>
     <path d="m-95.248 151.97c0.24818 0.22965 0.58155 0.34819 0.89641 0.34819 0.57415 0 0.90752-0.34819 0.90752-0.74824 0-0.34079-0.18521-0.53711-0.47784-0.65564l-0.30745-0.12594c-0.21114-0.0852-0.37042-0.13706-0.37042-0.28522 0-0.13706 0.12224-0.21855 0.30745-0.21855 0.19262 0 0.34449 0.0704 0.50377 0.19262l0.27411-0.34449c-0.20743-0.20743-0.50006-0.31856-0.77788-0.31856-0.50006 0-0.85937 0.31856-0.85937 0.71861 0 0.3519 0.23707 0.55933 0.48895 0.65934l0.31115 0.13335c0.21114 0.0889 0.34819 0.13706 0.34819 0.28893 0 0.14446-0.11112 0.23336-0.33708 0.23336-0.20002 0-0.42228-0.10372-0.59267-0.25188z"/>
     <path d="m-93.049 151.16c0 0.81121 0.33708 1.1631 0.96308 1.1631s0.95568-0.3519 0.95568-1.1631v-1.2965h-0.52599v1.352c0 0.47414-0.15928 0.63712-0.42968 0.63712s-0.41857-0.16298-0.41857-0.63712v-1.352h-0.54451z"/>
     <path d="m-90.585 152.28h0.54822v-2.4151h-0.54822z"/>
     <path d="m-89.471 152.28h0.52229v-0.85566c0-0.28523-0.04445-0.60749-0.07038-0.87419h0.01482l0.23707 0.52599 0.62971 1.2039h0.55933v-2.4151h-0.51858v0.85196c0 0.28522 0.04445 0.626 0.07038 0.88159h-0.01482l-0.24077-0.5334-0.62971-1.2002h-0.55933z"/>
     <path d="m-87.126 151.08c0 0.81121 0.51858 1.2372 1.1705 1.2372 0.33708 0 0.63712-0.14076 0.81121-0.29263v-1.1112h-0.8853v0.4445h0.40005v0.41487c-0.05927 0.0482-0.15928 0.0741-0.25559 0.0741-0.45561 0-0.68157-0.28893-0.68157-0.78528 0-0.48525 0.2667-0.77788 0.63712-0.77788 0.20743 0 0.32226 0.0704 0.4445 0.1815l0.30004-0.33707c-0.16298-0.16299-0.41116-0.31486-0.75195-0.31486-0.65564 0-1.189 0.46673-1.189 1.2668z"/>
    </g>
    <path d="m-97.945 155.58-2.8112 2.3812v7.9375l2.8112 2.3812h27.451l2.8112-2.3812v-7.9375l-2.8112-2.3812z" fill="#2f3744" stroke="#009244"/>
    <g fill="#e8eaec" aria-label="Chase">
     <path d="m-88.873 162.04c0 0.79269 0.45561 1.2594 1.0668 1.2594 0.30745 0 0.54822-0.12964 0.73713-0.35189l-0.1741-0.18892c-0.15558 0.1741-0.32597 0.27041-0.55562 0.27041-0.46302 0-0.75565-0.38524-0.75565-0.99642 0-0.60378 0.30745-0.98161 0.77047-0.98161 0.20002 0 0.3556 0.0889 0.48525 0.22596l0.1741-0.19632c-0.14446-0.15928-0.37412-0.30004-0.66305-0.30004-0.6223 0-1.0853 0.47784-1.0853 1.2594z"/>
     <path d="m-86.653 163.26h0.30374v-1.3039c0.1815-0.18151 0.30745-0.27782 0.49266-0.27782 0.23707 0 0.34078 0.14447 0.34078 0.48154v1.1001h0.30374v-1.1409c0-0.45932-0.17039-0.70379-0.54822-0.70379-0.24818 0-0.42968 0.13335-0.60008 0.29633l0.01111-0.37042v-0.7186h-0.30374z"/>
     <path d="m-84.724 162.79c0 0.32226 0.22595 0.51117 0.5297 0.51117 0.22225 0 0.42228-0.11853 0.59637-0.25929h0.0074l0.02593 0.21484h0.25188v-1.1038c0-0.4482-0.18521-0.74083-0.626-0.74083-0.28892 0-0.54081 0.12594-0.7075 0.23336l0.12224 0.21114c0.14076-0.0963 0.32597-0.19262 0.5371-0.19262 0.29263 0 0.37042 0.22225 0.37042 0.45191-0.76676 0.0852-1.1075 0.28152-1.1075 0.67416zm0.30004-0.0222c0-0.22966 0.20373-0.37782 0.80751-0.45191v0.50007c-0.1741 0.15557-0.31856 0.24077-0.49265 0.24077-0.1778 0-0.31485-0.0852-0.31485-0.28893z"/>
     <path d="m-82.939 163.05c0.17039 0.14076 0.41487 0.24818 0.67045 0.24818 0.42598 0 0.65934-0.24447 0.65934-0.5371 0-0.34079-0.28892-0.44821-0.54822-0.54451-0.20373-0.0778-0.40005-0.14447-0.40005-0.31115 0-0.13706 0.10372-0.2593 0.32967-0.2593 0.15928 0 0.28892 0.0667 0.41116 0.15928l0.14446-0.19261c-0.13705-0.11113-0.33338-0.20373-0.55933-0.20373-0.38894 0-0.6186 0.22225-0.6186 0.51117 0 0.30374 0.28152 0.42598 0.5371 0.51859 0.19632 0.0741 0.41116 0.15557 0.41116 0.34078 0 0.15557-0.11853 0.28152-0.3556 0.28152-0.21484 0-0.37412-0.0889-0.5297-0.21485z"/>
     <path d="m-81.317 162.36c0 0.58897 0.38153 0.94086 0.86307 0.94086 0.24448 0 0.43709-0.0852 0.59267-0.18521l-0.10742-0.20002c-0.13335 0.0852-0.27781 0.14076-0.4482 0.14076-0.34449 0-0.57785-0.24448-0.60008-0.63342h1.215c0.0074-0.0445 0.01111-0.10371 0.01111-0.16668 0-0.51488-0.25929-0.84455-0.71861-0.84455-0.41116 0-0.80751 0.3593-0.80751 0.94826zm0.29633-0.13705c0.03704-0.36301 0.2667-0.57044 0.51858-0.57044 0.28152 0 0.4445 0.20373 0.4445 0.57044z"/>
    </g>
    <path d="m-97.945 179.4-2.8112 2.3812v7.9375l2.8112 2.3812h27.451l2.8112-2.3812v-7.9375l-2.8112-2.3812z" fill="#2f3744" stroke="#009244"/>
    <g fill="#e8eaec" aria-label="Return">
     <path d="m-88.942 184.89h0.40746c0.37782 0 0.58526 0.11483 0.58526 0.43339 0 0.31485-0.20743 0.47042-0.58526 0.47042h-0.40746zm1.3742 2.1818-0.6186-1.0594c0.32967-0.0852 0.54451-0.31115 0.54451-0.68897 0-0.50377-0.3556-0.68157-0.84825-0.68157h-0.76306v2.4299h0.31115v-1.026h0.43709l0.58526 1.026z"/>
     <path d="m-87.307 186.17c0 0.58897 0.38153 0.94086 0.86307 0.94086 0.24448 0 0.43709-0.0852 0.59267-0.18521l-0.10742-0.20002c-0.13335 0.0852-0.27781 0.14076-0.4482 0.14076-0.34449 0-0.57785-0.24448-0.60008-0.63342h1.215c0.0074-0.0445 0.01111-0.10371 0.01111-0.16668 0-0.51488-0.25929-0.84455-0.71861-0.84455-0.41116 0-0.80751 0.3593-0.80751 0.94826zm0.29633-0.13705c0.03704-0.36301 0.2667-0.57044 0.51858-0.57044 0.28152 0 0.4445 0.20373 0.4445 0.57044z"/>
     <path d="m-85.335 186.51c0 0.3556 0.12965 0.60007 0.51488 0.60007 0.11112 0 0.23336-0.0333 0.33338-0.0667l-0.05927-0.22966c-0.05927 0.0222-0.14076 0.0481-0.20373 0.0481-0.20743 0-0.27781-0.12594-0.27781-0.34819v-1.0001h0.48525v-0.24818h-0.48525v-0.50377h-0.25559l-0.03704 0.50377-0.28152 0.0185v0.22966h0.2667z"/>
     <path d="m-84.183 186.41c0 0.45932 0.17039 0.70379 0.55192 0.70379 0.24818 0 0.42598-0.12964 0.59267-0.32596h0.01111l0.02593 0.28151h0.25188v-1.8002h-0.30374v1.2779c-0.17039 0.21114-0.30004 0.30375-0.48525 0.30375-0.23707 0-0.33708-0.14447-0.33708-0.48155v-1.1001h-0.30745z"/>
     <path d="m-82.139 187.07h0.30374v-1.1557c0.12224-0.30374 0.30374-0.41486 0.45561-0.41486 0.07408 0 0.11483 0.0111 0.1741 0.0296l0.05927-0.2667c-0.05927-0.0259-0.11483-0.037-0.19262-0.037-0.20373 0-0.38894 0.14446-0.51118 0.37041h-0.01111l-0.02593-0.32596h-0.25188z"/>
     <path d="m-80.851 187.07h0.30374v-1.3039c0.1815-0.18151 0.30745-0.27782 0.49265-0.27782 0.23707 0 0.34078 0.14447 0.34078 0.48154v1.1001h0.30374v-1.1409c0-0.45932-0.17039-0.70379-0.54822-0.70379-0.24818 0-0.43339 0.13335-0.60378 0.30374h-0.01111l-0.02593-0.25929h-0.25188z"/>
    </g>
    <path d="m-45.029 179.4-2.8112 2.3812v7.9375l2.8112 2.3812h27.451l2.8112-2.3812v-7.9375l-2.8112-2.3812z" fill="#2f3744" stroke="#009244"/>
    <g fill="#e8eaec" aria-label="Wait">
     <path d="m-34.294 187.07h0.36671l0.36301-1.4631c0.04075-0.18892 0.08149-0.36301 0.12224-0.55192h0.01482c0.03334 0.18891 0.07408 0.363 0.11483 0.55192l0.36671 1.4631h0.37412l0.50377-2.4299h-0.30004l-0.25559 1.3224c-0.04445 0.25929-0.0889 0.52228-0.13705 0.78528h-0.01482c-0.05927-0.263-0.11853-0.5297-0.1741-0.78528l-0.33708-1.3224h-0.28152l-0.33708 1.3224c-0.05927 0.25929-0.11853 0.52228-0.17039 0.78528h-0.01482c-0.04815-0.263-0.09631-0.52229-0.14446-0.78528l-0.25559-1.3224h-0.31856z"/>
     <path d="m-31.832 186.6c0 0.32226 0.22595 0.51117 0.5297 0.51117 0.22225 0 0.42228-0.11853 0.59637-0.25929h0.0074l0.02593 0.21484h0.25188v-1.1038c0-0.4482-0.18521-0.74083-0.626-0.74083-0.28892 0-0.54081 0.12594-0.7075 0.23336l0.12224 0.21114c0.14076-0.0963 0.32597-0.19262 0.5371-0.19262 0.29263 0 0.37042 0.22225 0.37042 0.45191-0.76676 0.0852-1.1075 0.28152-1.1075 0.67416zm0.30004-0.0222c0-0.22966 0.20373-0.37782 0.80751-0.45191v0.50007c-0.1741 0.15557-0.31856 0.24077-0.49265 0.24077-0.1778 0-0.31485-0.0852-0.31485-0.28893z"/>
     <path d="m-29.692 184.9c0.11853 0 0.21114-0.0815 0.21114-0.19632 0-0.11853-0.0926-0.19632-0.21114-0.19632-0.11853 0-0.21114 0.0778-0.21114 0.19632 0 0.11483 0.0926 0.19632 0.21114 0.19632zm-0.15558 2.1706h0.30374v-1.8002h-0.30374z"/>
     <path d="m-28.884 186.51c0 0.3556 0.12965 0.60007 0.51488 0.60007 0.11112 0 0.23336-0.0333 0.33338-0.0667l-0.05927-0.22966c-0.05927 0.0222-0.14076 0.0481-0.20373 0.0481-0.20743 0-0.27781-0.12594-0.27781-0.34819v-1.0001h0.48525v-0.24818h-0.48525v-0.50377h-0.25559l-0.03704 0.50377-0.28152 0.0185v0.22966h0.2667z"/>
    </g>
    <path d="m-45.029 155.58-2.8112 2.3812v7.9375l2.8112 2.3812h27.451l2.8112-2.3812v-7.9375l-2.8112-2.3812z" fill="#2f3744" stroke="#009244"/>
    <g fill="#e8eaec" aria-label="Attack">
     <path d="m-35.704 162.27 0.11853-0.37042c0.0852-0.2704 0.16298-0.5371 0.24077-0.81862h0.01482c0.07779 0.28152 0.15558 0.54822 0.24077 0.81862l0.11483 0.37042zm1.0409 0.98901h0.32597l-0.82232-2.4299h-0.34819l-0.82232 2.4299h0.31485l0.23336-0.74083h0.8853z"/>
     <path d="m-34.036 162.7c0 0.3556 0.12965 0.60007 0.51488 0.60007 0.11112 0 0.23336-0.0333 0.33338-0.0667l-0.05927-0.22966c-0.05927 0.0222-0.14076 0.0481-0.20373 0.0481-0.20743 0-0.27781-0.12594-0.27781-0.34819v-1.0001h0.48525v-0.24818h-0.48525v-0.50377h-0.25558l-0.03704 0.50377-0.28152 0.0185v0.22966h0.2667z"/>
     <path d="m-32.784 162.7c0 0.3556 0.12964 0.60007 0.51488 0.60007 0.11112 0 0.23336-0.0333 0.33338-0.0667l-0.05927-0.22966c-0.05927 0.0222-0.14076 0.0481-0.20373 0.0481-0.20743 0-0.27781-0.12594-0.27781-0.34819v-1.0001h0.48525v-0.24818h-0.48525v-0.50377h-0.25559l-0.03704 0.50377-0.28152 0.0185v0.22966h0.2667z"/>
     <path d="m-31.738 162.79c0 0.32226 0.22595 0.51117 0.5297 0.51117 0.22225 0 0.42228-0.11853 0.59637-0.25929h0.0074l0.02593 0.21484h0.25188v-1.1038c0-0.4482-0.18521-0.74083-0.626-0.74083-0.28892 0-0.54081 0.12594-0.7075 0.23336l0.12224 0.21114c0.14076-0.0963 0.32597-0.19262 0.5371-0.19262 0.29263 0 0.37042 0.22225 0.37042 0.45191-0.76676 0.0852-1.1075 0.28152-1.1075 0.67416zm0.30004-0.0222c0-0.22966 0.20373-0.37782 0.80751-0.45191v0.50007c-0.1741 0.15557-0.31856 0.24077-0.49265 0.24077-0.1778 0-0.31485-0.0852-0.31485-0.28893z"/>
     <path d="m-29.887 162.36c0 0.59637 0.36671 0.94086 0.84455 0.94086 0.21484 0 0.42228-0.0889 0.58526-0.23336l-0.13705-0.20003c-0.10742 0.0963-0.25188 0.18151-0.42228 0.18151-0.32967 0-0.55562-0.27781-0.55562-0.68898 0-0.41486 0.23707-0.69638 0.56303-0.69638 0.14446 0 0.25559 0.0667 0.36301 0.15928l0.15187-0.19632c-0.12224-0.11483-0.28892-0.21484-0.52599-0.21484-0.46302 0-0.86678 0.34448-0.86678 0.94826z"/>
     <path d="m-28.068 163.26h0.30004v-0.47413l0.33708-0.39264 0.52599 0.86677h0.33338l-0.68527-1.0779 0.60378-0.72231h-0.33708l-0.76676 0.94826h-0.01111v-1.7854h-0.30004z"/>
    </g>
   </g>
  </g>
  <path d="m-133.86 151.75h26.095" fill="none" stroke="#47d58a" stroke-linecap="round" stroke-width=".26458"/>
  <g transform="matrix(.0042365 0 0 -.0043091 -108.41 152.94)" fill="#47d58a" stroke-width="123.85">
   <g fill="#47d58a" stroke-width="123.85">
    <path d="m486.41 221.41-364.07-208.5c-52.938-30.318-95.852-5.44-95.852 55.563v415.65c0 61.004 42.914 85.882 95.852 55.563l364.07-208.49c52.938-30.317 52.938-79.473 0-109.79z" fill="#47d58a" stroke-width="123.85"/>
   </g>
  </g>
  <path d="m-106.31 155.72h-26.095" fill="none" stroke="#47d58a" stroke-linecap="round" stroke-width=".26458"/>
  <g transform="matrix(-.0042365 0 0 -.0043091 -131.77 156.91)" fill="#47d58a" stroke-width="123.85">
   <g fill="#47d58a" stroke-width="123.85">
    <path d="m486.41 221.41-364.07-208.5c-52.938-30.318-95.852-5.44-95.852 55.563v415.65c0 61.004 42.914 85.882 95.852 55.563l364.07-208.49c52.938-30.317 52.938-79.473 0-109.79z" fill="#47d58a" stroke-width="123.85"/>
   </g>
  </g>
  <path d="m-106.31 188.26h-26.095" fill="none" stroke="#47d58a" stroke-linecap="round" stroke-width=".26458"/>
  <g transform="matrix(-.0042365 0 0 -.0043091 -131.5 189.45)" fill="#47d58a" stroke-width="123.85">
   <g fill="#47d58a" stroke-width="123.85">
    <path d="m486.41 221.41-364.07-208.5c-52.938-30.318-95.852-5.44-95.852 55.563v415.65c0 61.004 42.914 85.882 95.852 55.563l364.07-208.49c52.938-30.317 52.938-79.473 0-109.79z" fill="#47d58a" stroke-width="123.85"/>
   </g>
  </g>
  <path d="m-67.716 159.68h18.157" fill="none" stroke="#47d58a" stroke-linecap="round" stroke-width=".26458"/>
  <g transform="matrix(.0042365 0 0 -.0043091 -50.201 160.88)" fill="#47d58a" stroke-width="123.85">
   <g fill="#47d58a" stroke-width="123.85">
    <path d="m486.41 221.41-364.07-208.5c-52.938-30.318-95.852-5.44-95.852 55.563v415.65c0 61.004 42.914 85.882 95.852 55.563l364.07-208.49c52.938-30.317 52.938-79.473 0-109.79z" fill="#47d58a" stroke-width="123.85"/>
   </g>
  </g>
  <path d="m-48.106 163.65h-18.157" fill="none" stroke="#47d58a" stroke-linecap="round" stroke-width=".26458"/>
  <g transform="matrix(-.0042365 0 0 -.0043091 -65.621 164.84)" fill="#47d58a" stroke-width="123.85">
   <g fill="#47d58a" stroke-width="123.85">
    <path d="m486.41 221.41-364.07-208.5c-52.938-30.318-95.852-5.44-95.852 55.563v415.65c0 61.004 42.914 85.882 95.852 55.563l364.07-208.49c52.938-30.317 52.938-79.473 0-109.79z" fill="#47d58a" stroke-width="123.85"/>
   </g>
  </g>
  <path d="m-48.106 185.35h-18.157" fill="none" stroke="#47d58a" stroke-linecap="round" stroke-width=".26458"/>
  <g transform="matrix(-.0042365 0 0 -.0043091 -65.621 186.54)" fill="#47d58a" stroke-width="123.85">
   <g fill="#47d58a" stroke-width="123.85">
    <path d="m486.41 221.41-364.07-208.5c-52.938-30.318-95.852-5.44-95.852 55.563v415.65c0 61.004 42.914 85.882 95.852 55.563l364.07-208.49c52.938-30.317 52.938-79.473 0-109.79z" fill="#47d58a" stroke-width="123.85"/>
   </g>
  </g>
  <path d="m-45.14 179.26-21.103-12.184" fill="none" stroke="#47d58a" stroke-linecap="round" stroke-width=".26458"/>
  <g transform="matrix(-.003669 -.0021183 .0021545 -.0037318 -66.283 168.43)" fill="#47d58a" stroke-width="123.85">
   <g fill="#47d58a" stroke-width="123.85">
    <path d="m486.41 221.41-364.07-208.5c-52.938-30.318-95.852-5.44-95.852 55.563v415.65c0 61.004 42.914 85.882 95.852 55.563l364.07-208.49c52.938-30.317 52.938-79.473 0-109.79z" fill="#47d58a" stroke-width="123.85"/>
   </g>
  </g>
  <path d="m-70.13 168.39 21.103 12.184" fill="none" stroke="#47d58a" stroke-linecap="round" stroke-width=".26458"/>
  <g transform="matrix(.003669 .0021183 -.0021545 .0037318 -48.988 179.23)" fill="#47d58a" stroke-width="123.85">
   <g fill="#47d58a" stroke-width="123.85">
    <path d="m486.41 221.41-364.07-208.5c-52.938-30.318-95.852-5.44-95.852 55.563v415.65c0 61.004 42.914 85.882 95.852 55.563l364.07-208.49c52.938-30.317 52.938-79.473 0-109.79z" fill="#47d58a" stroke-width="123.85"/>
   </g>
  </g>
 </g>
</svg>
