<?xml version="1.0" encoding="UTF-8"?>
<svg width="49.345mm" height="28.178mm" version="1.1" viewBox="0 0 49.345 28.178" xmlns="http://www.w3.org/2000/svg" xmlns:cc="http://creativecommons.org/ns#" xmlns:dc="http://purl.org/dc/elements/1.1/" xmlns:rdf="http://www.w3.org/1999/02/22-rdf-syntax-ns#">
 <metadata>
  <rdf:RDF>
   <cc:Work rdf:about="">
    <dc:format>image/svg+xml</dc:format>
    <dc:type rdf:resource="http://purl.org/dc/dcmitype/StillImage"/>
    <dc:title/>
   </cc:Work>
  </rdf:RDF>
 </metadata>
 <g transform="translate(128.48 -234.73)">
  <rect x="-128.35" y="234.86" width="49.08" height="27.914" fill="#1d232d" stroke="#30d2d5" stroke-linecap="round" stroke-width=".26458"/>
  <g stroke-width=".26458">
   <g fill="#47d58a" stroke-linecap="round" aria-label="Message">
    <path d="m-109.96 236.49v2.3114h0.24448v-1.7298l0.46672 0.91493h0.0963l0.50006-0.92975v1.7447h0.24448v-2.3114h-0.19262l-0.58155 1.1298-0.57415-1.1298z"/>
    <path d="m-107.3 237.07c-0.40376 0-0.77788 0.28892-0.77788 0.90381 0 0.56674 0.3519 0.86678 0.81121 0.86678 0.24448 0 0.46302-0.0889 0.60749-0.263l-0.14817-0.14446c-0.10742 0.12594-0.2704 0.19262-0.43709 0.19262-0.22596 0-0.55563-0.12595-0.57415-0.63342h1.2002c0.0111-0.11483 7e-3 -0.22595-0.0111-0.32226-0.0778-0.45561-0.39264-0.60007-0.67045-0.60007zm-0.51118 0.7186c0.0556-0.40005 0.31115-0.51488 0.49265-0.51488 0.27411 0 0.47043 0.24078 0.4371 0.51488z"/>
    <path d="m-104.8 237.33c-0.15558-0.17039-0.38153-0.26299-0.63342-0.26299-0.39264 0-0.64823 0.21854-0.64823 0.47042 0 0.29634 0.31856 0.40376 0.41117 0.4371 0.14446 0.0519 0.32967 0.0963 0.45561 0.15557 0.14076 0.0667 0.16669 0.15558 0.16669 0.21484 0 0.15928-0.19262 0.2667-0.43339 0.2667-0.28893 0-0.47414-0.17409-0.5297-0.23336-0.0111-0.0148-0.0111-0.0259-0.0111-0.0407 0-4e-3 4e-3 -0.0259-0.0148-0.0333l-0.15557 0.26299c0.20002 0.18521 0.45932 0.27041 0.7149 0.27041 0.46302 0 0.7038-0.27411 0.7038-0.5297 0-0.11483-0.0482-0.2704-0.24818-0.38153-0.18892-0.10742-0.46303-0.14446-0.6223-0.22225-0.13706-0.0667-0.16669-0.14816-0.16669-0.20743 0-0.13335 0.16669-0.22966 0.3556-0.22966 0.24447 0 0.40746 0.14817 0.47043 0.23336 0.0111 0.0111 7e-3 0.0222 7e-3 0.0333 0 0.0222 0.0148 0.0296 0.0222 0.0296z"/>
    <path d="m-102.95 237.33c-0.15557-0.17039-0.38153-0.26299-0.63341-0.26299-0.39264 0-0.64823 0.21854-0.64823 0.47042 0 0.29634 0.31856 0.40376 0.41116 0.4371 0.14446 0.0519 0.32967 0.0963 0.45561 0.15557 0.14076 0.0667 0.16669 0.15558 0.16669 0.21484 0 0.15928-0.19262 0.2667-0.43339 0.2667-0.28892 0-0.47413-0.17409-0.52969-0.23336-0.0111-0.0148-0.0111-0.0259-0.0111-0.0407 0-4e-3 4e-3 -0.0259-0.0148-0.0333l-0.15558 0.26299c0.20003 0.18521 0.45932 0.27041 0.71491 0.27041 0.46302 0 0.70379-0.27411 0.70379-0.5297 0-0.11483-0.0482-0.2704-0.24818-0.38153-0.18891-0.10742-0.46302-0.14446-0.6223-0.22225-0.13705-0.0667-0.16669-0.14816-0.16669-0.20743 0-0.13335 0.16669-0.22966 0.3556-0.22966 0.24448 0 0.40746 0.14817 0.47043 0.23336 0.0111 0.0111 7e-3 0.0222 7e-3 0.0333 0 0.0222 0.0148 0.0296 0.0222 0.0296z"/>
    <path d="m-102.36 237.31 0.12965 0.17039c0.14075-0.14446 0.32967-0.18891 0.48895-0.18891 0.20002 0 0.30003 0.0852 0.34819 0.16298 0.0556 0.0926 0.0519 0.20373 0.0519 0.29263v0.0593h-0.0519c-0.25189 0-0.51859 0-0.73343 0.0778-0.2667 0.0963-0.38523 0.29633-0.38523 0.48154 0 0.24818 0.21484 0.48154 0.56674 0.48154 0.20743 0 0.42227-0.0778 0.60748-0.22966v0.18521h0.25188v-1.0483c0-0.13705-4e-3 -0.2667-0.0815-0.40005-0.11112-0.1815-0.32596-0.27781-0.58896-0.27781-0.22595 0-0.4445 0.0704-0.60378 0.23336zm1.0298 0.70009v0.11483c0 0.0852 0 0.19632-0.11483 0.31856-0.063 0.063-0.22225 0.20002-0.4445 0.20002-0.22595 0-0.3556-0.14446-0.3556-0.29263 0-0.12594 0.0852-0.26299 0.29633-0.31485 0.15558-0.037 0.38153-0.0259 0.55933-0.0259z"/>
    <path d="m-100.38 237.64c0-0.20373 0.17039-0.37041 0.37412-0.37041 0.20744 0 0.37412 0.16668 0.37412 0.37041s-0.16669 0.37042-0.37412 0.37042c-0.20743 0-0.37412-0.16669-0.37412-0.37042zm0.38894-0.58155c-0.33708 0-0.62971 0.2667-0.62971 0.59637 0 0.18521 0.0926 0.3593 0.24818 0.45932-0.12224 0.10371-0.19262 0.21854-0.19262 0.32596 0 0.0704 0.0296 0.1704 0.13706 0.22596-0.18151 0.11483-0.27411 0.24077-0.27411 0.37412 0 0.18521 0.17039 0.40375 0.76306 0.40375 0.57415 0 0.78158-0.29263 0.78158-0.51858 0-0.14817-0.0852-0.29633-0.263-0.36671-0.1778-0.0741-0.38153-0.0482-0.57415-0.0482-0.12594 0-0.20743-0.0111-0.24077-0.0222-0.0667-0.0185-0.10371-0.0593-0.10371-0.11113 0-0.0889 0.10371-0.17409 0.12223-0.18891 0.0667 0.0259 0.14076 0.037 0.21485 0.037 0.33337 0 0.60748-0.2667 0.60748-0.57785 0-0.10372-0.02963-0.20373-0.0852-0.28892 0.0889-0.0519 0.19262-0.0815 0.29633-0.0815 0.03334 0 0.06297 4e-3 0.09631 0.0111l-0.02963-0.21855c-0.17039-0.0148-0.34078 0.0408-0.47043 0.14817-0.10742-0.10372-0.24818-0.15928-0.40376-0.15928zm-0.25559 1.6558c0.063 7e-3 0.15187 0.0148 0.28152 0.0222 0.12594 4e-3 0.263-7e-3 0.3593 7e-3 0.15558 0.0259 0.20373 0.12223 0.20373 0.19632 0 0.0741-0.04445 0.16298-0.15928 0.22595-0.12594 0.0667-0.2667 0.0741-0.38153 0.0741-0.07779 0-0.22225-4e-3 -0.34819-0.0556-0.13705-0.0556-0.16669-0.14816-0.16669-0.20743 0-0.12224 0.11483-0.21114 0.21114-0.263z"/>
    <path d="m-98.036 237.07c-0.40375 0-0.77788 0.28892-0.77788 0.90381 0 0.56674 0.3519 0.86678 0.81121 0.86678 0.24448 0 0.46302-0.0889 0.60748-0.263l-0.14817-0.14446c-0.10742 0.12594-0.2704 0.19262-0.43709 0.19262-0.22596 0-0.55563-0.12595-0.57415-0.63342h1.2002c0.01111-0.11483 0.0074-0.22595-0.01111-0.32226-0.07779-0.45561-0.39264-0.60007-0.67046-0.60007zm-0.51118 0.7186c0.05556-0.40005 0.31115-0.51488 0.49265-0.51488 0.27411 0 0.47043 0.24078 0.43709 0.51488z"/>
   </g>
   <path d="m-128.15 240.28h48.683" fill="none" stroke="#30d2d5" stroke-dashoffset="1.2" stroke-linecap="square"/>
   <g fill="#e8eaec" stroke-linecap="round" aria-label="+ id: number + action: String + sender: Component* + recipientId: number + contextObject: GameObject* + data: any">
    <path d="m-126.36 242.17v0.53975h-0.56197v0.19685h0.56197v0.59372h0.20003v-0.59372h0.54292v-0.19685h-0.54292v-0.53975z"/>
    <path d="m-123.55 242.37v0.18733h0.34925v1.0827h-0.3683v0.18098h0.9398v-0.18098h-0.33973v-1.27zm0.4699-0.62865c-0.0921 0-0.1651 0.073-0.1651 0.16193 0 0.0889 0.073 0.16192 0.1651 0.16192s0.1651-0.073 0.1651-0.16192c0-0.0889-0.073-0.16193-0.1651-0.16193z"/>
    <path d="m-121.12 242.59c-0.0699-0.14923-0.22542-0.24765-0.42545-0.24765-0.27622 0-0.61277 0.19685-0.61277 0.7493 0 0.53657 0.29845 0.77152 0.57785 0.77152 0.18415 0 0.3556-0.10477 0.44767-0.2667v0.127c0 0.0349 3e-3 0.0699 0.0127 0.10478h0.2286c-0.0127-0.0413-0.0127-0.0889-0.0127-0.13335l-3e-3 -1.886c0-0.0191 0-0.0254 0.0127-0.0445 6e-3 -0.01 0.019-0.0254 0.0159-0.0476h-0.2413zm-0.41592-0.0603c0.127 0 0.31432 0.0667 0.37147 0.28258 0.0191 0.0667 0.0254 0.14605 0.0254 0.30797 0 0.11113-6e-3 0.1905-0.0318 0.2667-0.054 0.17145-0.20637 0.27305-0.3556 0.27305-0.1651 0-0.40957-0.127-0.40957-0.60325 0-0.41592 0.23177-0.52705 0.40005-0.52705z"/>
    <path d="m-119.76 242.67c0-0.0984-0.0826-0.18097-0.18732-0.18097-0.10478 0-0.18733 0.0825-0.18733 0.18097 0 0.1016 0.0825 0.18098 0.18733 0.18098 0.10477 0 0.18732-0.0794 0.18732-0.18098zm0 1.0128c0-0.0984-0.0826-0.18098-0.18732-0.18098-0.10478 0-0.18733 0.0826-0.18733 0.18098 0 0.1016 0.0825 0.18415 0.18733 0.18415 0.10477 0 0.18732-0.0825 0.18732-0.18415z"/>
    <path d="m-117.32 243.83h0.23177v-0.83503c0-0.0952 0.0127-0.16827 0.073-0.24765 0.054-0.073 0.19367-0.2032 0.34607-0.2032 0.073 0 0.14605 0.0317 0.19685 0.0921 0.0794 0.0952 0.0794 0.21907 0.0794 0.32067v0.87313h0.22542v-0.87948c0-0.11112 0-0.23177-0.0508-0.34925-0.073-0.16192-0.22225-0.254-0.38735-0.254-0.19685 0-0.37465 0.127-0.4826 0.28893v-0.254h-0.23177z"/>
    <path d="m-115.75 242.38v0.80962c0 0.12383 0 0.25083 0.0571 0.381 0.0825 0.1905 0.26035 0.29528 0.45085 0.29528 0.18097 0 0.35242-0.0984 0.44767-0.25718l-3e-3 0.10795c0 0.0381 0 0.0762 6e-3 0.11113h0.2413c-0.0159-0.0413-0.019-0.0889-0.019-0.13018v-1.3176h-0.2286v0.79692c0 0.11113-0.01 0.19685-0.0572 0.28575-0.0667 0.12383-0.19685 0.2159-0.33655 0.2159-0.11113 0-0.21908-0.0635-0.27623-0.1778-0.0508-0.1016-0.0508-0.2159-0.0508-0.31115v-0.80962z"/>
    <path d="m-114.24 243.83h0.20955v-0.9652c0-0.0699 6e-3 -0.13335 0.0476-0.20955 0.0508-0.0952 0.1143-0.13335 0.17462-0.13335 0.0508 0 0.10795 0.0317 0.13335 0.11112 0.0191 0.0603 0.0159 0.13018 0.0159 0.1905v1.0065h0.21272v-0.95885c0-0.0762 6e-3 -0.13653 0.0603-0.2286 0.0254-0.0381 0.0794-0.13018 0.16827-0.13018 0.0476 0 0.0921 0.0286 0.1143 0.0826 0.0286 0.0603 0.0222 0.14288 0.0222 0.20955v1.0287h0.2159v-1.0319c0-0.12065 3e-3 -0.2413-0.0603-0.33973-0.054-0.0825-0.14605-0.1143-0.22542-0.1143-0.1397 0-0.26988 0.0825-0.32703 0.20955-0.0222-0.12065-0.12382-0.20955-0.254-0.20955-0.12065 0-0.23177 0.0762-0.29845 0.1778l3e-3 -0.14287h-0.21273z"/>
    <path d="m-112.58 241.71v2.1114h0.14923l0.0794-0.1905c0.0952 0.14287 0.254 0.2286 0.42863 0.2286 0.29845 0 0.60642-0.254 0.60642-0.78105 0-0.50483-0.29845-0.73978-0.5842-0.73978-0.18415 0-0.3556 0.0984-0.44767 0.25718v-0.8128c0-0.019 3e-3 -0.0254 0.019-0.0381 6e-3 -3e-3 0.0222-0.0159 0.0191-0.0349zm0.60008 0.8255c0.13652 0 0.42545 0.0794 0.42545 0.59373 0 0.44132-0.28575 0.52387-0.42863 0.52387-0.0984 0-0.3175-0.0381-0.3556-0.3175-0.01-0.073-0.01-0.15875-0.01-0.28575 0-0.13017 6e-3 -0.22542 0.0381-0.3048 0.054-0.13017 0.18732-0.20955 0.3302-0.20955z"/>
    <path d="m-110.36 242.34c-0.34608 0-0.66675 0.24765-0.66675 0.7747 0 0.48578 0.30162 0.74295 0.69532 0.74295 0.20955 0 0.39688-0.0762 0.5207-0.22542l-0.127-0.12383c-0.0921 0.10795-0.23177 0.1651-0.37465 0.1651-0.19367 0-0.47625-0.10795-0.49212-0.54292h1.0287c0.01-0.0984 6e-3 -0.19368-0.01-0.27623-0.0667-0.39052-0.33655-0.51435-0.57467-0.51435zm-0.43815 0.61595c0.0476-0.3429 0.2667-0.44132 0.42227-0.44132 0.23495 0 0.40323 0.20637 0.37465 0.44132z"/>
    <path d="m-109.28 242.38v1.451h0.2286v-0.70485c0-0.0889 3e-3 -0.18415 0.1016-0.33972 0.13335-0.20955 0.3048-0.24448 0.40958-0.24448 0.12065 0 0.19685 0.0572 0.23812 0.10795 0.019 0.0254 0.0286 0.0508 0.054 0.073l0.10795-0.21908c-0.0921-0.0952-0.22543-0.15875-0.38735-0.15875-0.21273 0-0.42863 0.10795-0.52388 0.31433l0.01-0.2794z"/>
    <path d="m-126.36 245.53v0.53975h-0.56197v0.19685h0.56197v0.59373h0.20003v-0.59373h0.54292v-0.19685h-0.54292v-0.53975z"/>
    <path d="m-123.6 245.91 0.11112 0.14605c0.12065-0.12383 0.28258-0.16193 0.4191-0.16193 0.17145 0 0.25718 0.073 0.29845 0.1397 0.0476 0.0794 0.0444 0.17463 0.0444 0.25083v0.0508h-0.0444c-0.2159 0-0.4445 0-0.62865 0.0667-0.2286 0.0825-0.3302 0.254-0.3302 0.41275 0 0.21273 0.18415 0.41275 0.48578 0.41275 0.1778 0 0.36195-0.0667 0.5207-0.19685v0.15875h0.2159v-0.89852c0-0.11748-3e-3 -0.2286-0.0699-0.3429-0.0953-0.15558-0.2794-0.23813-0.50483-0.23813-0.19367 0-0.381 0.0603-0.51752 0.20003zm0.88265 0.60007v0.0984c0 0.073 0 0.16827-0.0984 0.27305-0.054 0.054-0.1905 0.17145-0.381 0.17145-0.19367 0-0.3048-0.12383-0.3048-0.25083 0-0.10795 0.073-0.22542 0.254-0.26987 0.13335-0.0318 0.32703-0.0222 0.47943-0.0222z"/>
    <path d="m-120.85 245.98c-0.1143-0.16828-0.30798-0.26988-0.54293-0.26988-0.42545 0-0.72707 0.32068-0.72707 0.75565 0 0.43815 0.30162 0.762 0.71437 0.762 0.20003 0 0.39688-0.0825 0.5334-0.23177l-0.13017-0.1524c-0.0984 0.11112-0.2413 0.17462-0.38418 0.17462-0.28257 0-0.49847-0.23495-0.49847-0.57467 0-0.3302 0.21272-0.53658 0.47942-0.53658 0.24765 0 0.36513 0.17145 0.37465 0.1905 0.0127 0.0222-6e-3 0.054 0.019 0.073z"/>
    <path d="m-120.11 245.35-0.0286 0.39052h-0.34607l-3e-3 0.18733h0.33973c-0.019 0.24765-0.0286 0.4953-0.0286 0.73977 0 0.13018 0 0.27623 0.0857 0.39688 0.0699 0.0952 0.18097 0.1524 0.3302 0.1524 0.17145 0 0.33972-0.073 0.46355-0.16193l-0.0699-0.18097c-0.12383 0.0921-0.23813 0.13335-0.32703 0.13335-0.10795 0-0.21907-0.0603-0.24447-0.23495 0-0.0127-0.01-0.0667-0.01-0.2794 0-0.18733 0.01-0.37783 0.0286-0.56515h0.47625v-0.1905h-0.47308s0.0222-0.26035 0.0381-0.3429c3e-3 -0.0317 0.0286-0.0508 0.0159-0.0857z"/>
    <path d="m-118.78 245.74v0.18732h0.34925v1.0827h-0.3683v0.18097h0.9398v-0.18097h-0.33973v-1.27zm0.4699-0.62865c-0.0921 0-0.1651 0.073-0.1651 0.16192 0 0.0889 0.073 0.16193 0.1651 0.16193s0.1651-0.073 0.1651-0.16193c0-0.0889-0.073-0.16192-0.1651-0.16192z"/>
    <path d="m-116.07 246.47c0-0.50165-0.3175-0.762-0.6477-0.762-0.3683 0-0.6858 0.3175-0.6858 0.76835 0 0.44133 0.31432 0.75248 0.67945 0.75248 0.3429 0 0.65405-0.27623 0.65405-0.75883zm-0.66358-0.56832c0.20955 0 0.4318 0.18097 0.4318 0.57785 0 0.36512-0.20955 0.54927-0.4191 0.54927-0.23177 0-0.44132-0.2159-0.44132-0.57467 0-0.3556 0.20637-0.55245 0.42862-0.55245z"/>
    <path d="m-115.73 247.19h0.23177v-0.83502c0-0.0952 0.0127-0.16828 0.073-0.24765 0.054-0.073 0.19367-0.2032 0.34607-0.2032 0.073 0 0.14605 0.0317 0.19685 0.0921 0.0794 0.0953 0.0794 0.21908 0.0794 0.32068v0.87312h0.22542v-0.87947c0-0.11113 0-0.23178-0.0508-0.34925-0.073-0.16193-0.22225-0.254-0.38735-0.254-0.19685 0-0.37465 0.127-0.4826 0.28892v-0.254h-0.23177z"/>
    <path d="m-113.41 246.03c0-0.0984-0.0825-0.18098-0.18732-0.18098-0.10478 0-0.18733 0.0826-0.18733 0.18098 0 0.1016 0.0825 0.18097 0.18733 0.18097 0.10477 0 0.18732-0.0794 0.18732-0.18097zm0 1.0128c0-0.0984-0.0825-0.18097-0.18732-0.18097-0.10478 0-0.18733 0.0825-0.18733 0.18097 0 0.1016 0.0825 0.18415 0.18733 0.18415 0.10477 0 0.18732-0.0825 0.18732-0.18415z"/>
    <path d="m-109.8 245.45c-0.13335-0.16192-0.3302-0.24765-0.5461-0.24765-0.35878 0-0.60325 0.23495-0.60325 0.508 0 0.1143 0.0445 0.26353 0.20955 0.38418 0.18415 0.13652 0.4699 0.2032 0.61912 0.29845 0.13018 0.0794 0.1651 0.18415 0.1651 0.27305 0 0.17145-0.14605 0.35877-0.4318 0.35877-0.2159 0-0.38417-0.10795-0.47307-0.21907-0.01-0.0127-0.01-0.019-0.01-0.0317 0-6e-3 0-0.0254-0.0127-0.0317l-0.13335 0.2286c0.15558 0.16827 0.37783 0.254 0.6223 0.254 0.4826 0 0.6604-0.32385 0.6604-0.5715 0-0.10478-0.0317-0.2413-0.15557-0.35878-0.17145-0.16192-0.45085-0.21907-0.63183-0.32385-0.1651-0.0984-0.20002-0.2159-0.20002-0.29527 0-0.1524 0.13017-0.28893 0.3556-0.28893 0.18415 0 0.32702 0.0825 0.40322 0.19368 0.01 0.0127 6e-3 0.0191 6e-3 0.0318 0 0.019 0.01 0.0254 0.0159 0.0254z"/>
    <path d="m-109 245.35-0.0286 0.39052h-0.34607l-3e-3 0.18733h0.33973c-0.0191 0.24765-0.0286 0.4953-0.0286 0.73977 0 0.13018 0 0.27623 0.0857 0.39688 0.0699 0.0952 0.18097 0.1524 0.3302 0.1524 0.17145 0 0.33972-0.073 0.46355-0.16193l-0.0699-0.18097c-0.12383 0.0921-0.23813 0.13335-0.32703 0.13335-0.10795 0-0.21907-0.0603-0.24447-0.23495 0-0.0127-0.01-0.0667-0.01-0.2794 0-0.18733 0.01-0.37783 0.0286-0.56515h0.47625v-0.1905h-0.47308s0.0222-0.26035 0.0381-0.3429c3e-3 -0.0317 0.0286-0.0508 0.0159-0.0857z"/>
    <path d="m-107.69 245.74v1.451h0.2286v-0.70485c0-0.0889 3e-3 -0.18415 0.1016-0.33973 0.13335-0.20955 0.3048-0.24447 0.40958-0.24447 0.12065 0 0.19685 0.0571 0.23812 0.10795 0.019 0.0254 0.0286 0.0508 0.054 0.073l0.10795-0.21907c-0.0921-0.0952-0.22543-0.15875-0.38735-0.15875-0.21273 0-0.42863 0.10795-0.52388 0.31432l0.01-0.2794z"/>
    <path d="m-106.08 245.74v0.18732h0.34925v1.0827h-0.3683v0.18097h0.9398v-0.18097h-0.33973v-1.27zm0.4699-0.62865c-0.0921 0-0.1651 0.073-0.1651 0.16192 0 0.0889 0.073 0.16193 0.1651 0.16193s0.1651-0.073 0.1651-0.16193c0-0.0889-0.073-0.16192-0.1651-0.16192z"/>
    <path d="m-104.62 247.19h0.23177v-0.83502c0-0.0952 0.0127-0.16828 0.073-0.24765 0.054-0.073 0.19367-0.2032 0.34607-0.2032 0.073 0 0.14605 0.0317 0.19685 0.0921 0.0794 0.0953 0.0794 0.21908 0.0794 0.32068v0.87312h0.22542v-0.87947c0-0.11113 0-0.23178-0.0508-0.34925-0.073-0.16193-0.22225-0.254-0.38735-0.254-0.19685 0-0.37465 0.127-0.4826 0.28892v-0.254h-0.23177z"/>
    <path d="m-102.85 246.19c0-0.17462 0.14605-0.3175 0.32068-0.3175 0.1778 0 0.32067 0.14288 0.32067 0.3175 0 0.17463-0.14287 0.3175-0.32067 0.3175s-0.32068-0.14287-0.32068-0.3175zm0.33338-0.49847c-0.28893 0-0.53975 0.2286-0.53975 0.51117 0 0.15875 0.0794 0.30798 0.21272 0.3937-0.10477 0.0889-0.1651 0.18733-0.1651 0.2794 0 0.0603 0.0254 0.14605 0.11748 0.19368-0.15558 0.0984-0.23495 0.20637-0.23495 0.32067 0 0.15875 0.14605 0.34608 0.65405 0.34608 0.49212 0 0.66992-0.25083 0.66992-0.4445 0-0.127-0.073-0.254-0.22542-0.31433-0.1524-0.0635-0.32703-0.0413-0.49213-0.0413-0.10795 0-0.1778-0.01-0.20637-0.019-0.0571-0.0159-0.0889-0.0508-0.0889-0.0952 0-0.0762 0.0889-0.14923 0.10477-0.16193 0.0571 0.0222 0.12065 0.0318 0.18415 0.0318 0.28575 0 0.5207-0.2286 0.5207-0.4953 0-0.0889-0.0254-0.17462-0.073-0.24765 0.0762-0.0445 0.1651-0.0699 0.254-0.0699 0.0286 0 0.054 3e-3 0.0825 0.01l-0.0254-0.18733c-0.14605-0.0127-0.2921 0.0349-0.40323 0.127-0.0921-0.0889-0.21272-0.13652-0.34607-0.13652zm-0.21908 1.4192c0.054 6e-3 0.13018 0.0127 0.2413 0.019 0.10795 3e-3 0.22543-6e-3 0.30798 6e-3 0.13335 0.0222 0.17462 0.10478 0.17462 0.16828s-0.0381 0.1397-0.13652 0.19367c-0.10795 0.0572-0.2286 0.0635-0.32703 0.0635-0.0667 0-0.1905-3e-3 -0.29845-0.0476-0.11747-0.0476-0.14287-0.127-0.14287-0.1778 0-0.10478 0.0984-0.18098 0.18097-0.22543z"/>
    <path d="m-126.36 248.9v0.53975h-0.56197v0.19685h0.56197v0.59372h0.20003v-0.59372h0.54292v-0.19685h-0.54292v-0.53975z"/>
    <path d="m-122.51 249.3c-0.13335-0.14605-0.32703-0.22543-0.54293-0.22543-0.33655 0-0.55562 0.18733-0.55562 0.40323 0 0.254 0.27305 0.34607 0.35242 0.37465 0.12383 0.0445 0.28258 0.0826 0.39053 0.13335 0.12065 0.0572 0.14287 0.13335 0.14287 0.18415 0 0.13652-0.1651 0.2286-0.37147 0.2286-0.24765 0-0.4064-0.14923-0.45403-0.20003-0.01-0.0127-0.01-0.0222-0.01-0.0349 0-3e-3 3e-3 -0.0222-0.0127-0.0286l-0.13335 0.22543c0.17145 0.15875 0.3937 0.23177 0.61277 0.23177 0.39688 0 0.60325-0.23495 0.60325-0.45402 0-0.0984-0.0413-0.23178-0.21272-0.32703-0.16193-0.0921-0.39688-0.12382-0.5334-0.1905-0.11748-0.0572-0.14288-0.127-0.14288-0.1778 0-0.1143 0.14288-0.19685 0.3048-0.19685 0.20955 0 0.34925 0.127 0.40323 0.20003 0.01 0.01 6e-3 0.019 6e-3 0.0286 0 0.019 0.0127 0.0254 0.019 0.0254z"/>
    <path d="m-121.48 249.08c-0.34608 0-0.66675 0.24765-0.66675 0.7747 0 0.48578 0.30162 0.74295 0.69532 0.74295 0.20955 0 0.39688-0.0762 0.5207-0.22542l-0.127-0.12383c-0.0921 0.10795-0.23177 0.1651-0.37465 0.1651-0.19367 0-0.47625-0.10795-0.49212-0.54292h1.0287c0.01-0.0984 6e-3 -0.19368-0.01-0.27623-0.0667-0.39052-0.33655-0.51435-0.57467-0.51435zm-0.43815 0.61595c0.0476-0.3429 0.2667-0.44132 0.42227-0.44132 0.23495 0 0.40323 0.20637 0.37465 0.44132z"/>
    <path d="m-120.49 250.56h0.23177v-0.83503c0-0.0952 0.0127-0.16827 0.073-0.24765 0.054-0.073 0.19367-0.2032 0.34607-0.2032 0.073 0 0.14605 0.0318 0.19685 0.0921 0.0794 0.0952 0.0794 0.21907 0.0794 0.32067v0.87313h0.22542v-0.87948c0-0.11112 0-0.23177-0.0508-0.34925-0.073-0.16192-0.22225-0.254-0.38735-0.254-0.19685 0-0.37465 0.127-0.4826 0.28893v-0.254h-0.23177z"/>
    <path d="m-117.94 249.32c-0.0698-0.14923-0.22542-0.24765-0.42545-0.24765-0.27622 0-0.61277 0.19685-0.61277 0.7493 0 0.53657 0.29845 0.77152 0.57785 0.77152 0.18415 0 0.3556-0.10477 0.44767-0.2667v0.127c0 0.0349 3e-3 0.0699 0.0127 0.10478h0.2286c-0.0127-0.0413-0.0127-0.0889-0.0127-0.13335l-3e-3 -1.886c0-0.019 0-0.0254 0.0127-0.0444 6e-3 -0.01 0.0191-0.0254 0.0159-0.0476h-0.2413zm-0.41592-0.0603c0.127 0 0.31432 0.0667 0.37147 0.28258 0.0191 0.0667 0.0254 0.14605 0.0254 0.30797 0 0.11113-6e-3 0.1905-0.0318 0.2667-0.054 0.17145-0.20637 0.27305-0.3556 0.27305-0.1651 0-0.40957-0.127-0.40957-0.60325 0-0.41592 0.23177-0.52705 0.40005-0.52705z"/>
    <path d="m-116.71 249.08c-0.34608 0-0.66675 0.24765-0.66675 0.7747 0 0.48578 0.30162 0.74295 0.69532 0.74295 0.20955 0 0.39688-0.0762 0.5207-0.22542l-0.127-0.12383c-0.0921 0.10795-0.23177 0.1651-0.37465 0.1651-0.19367 0-0.47625-0.10795-0.49212-0.54292h1.0287c0.01-0.0984 6e-3 -0.19368-0.01-0.27623-0.0667-0.39052-0.33655-0.51435-0.57467-0.51435zm-0.43815 0.61595c0.0476-0.3429 0.2667-0.44132 0.42227-0.44132 0.23495 0 0.40323 0.20637 0.37465 0.44132z"/>
    <path d="m-115.63 249.11v1.451h0.2286v-0.70485c0-0.0889 3e-3 -0.18415 0.1016-0.33972 0.13335-0.20955 0.3048-0.24448 0.40958-0.24448 0.12065 0 0.19685 0.0572 0.23812 0.10795 0.019 0.0254 0.0286 0.0508 0.054 0.073l0.10795-0.21908c-0.0921-0.0952-0.22543-0.15875-0.38735-0.15875-0.21273 0-0.42863 0.10795-0.52388 0.31433l0.01-0.2794z"/>
    <path d="m-113.41 249.4c0-0.0984-0.0825-0.18097-0.18732-0.18097-0.10478 0-0.18733 0.0825-0.18733 0.18097 0 0.1016 0.0825 0.18098 0.18733 0.18098 0.10477 0 0.18732-0.0794 0.18732-0.18098zm0 1.0128c0-0.0984-0.0825-0.18098-0.18732-0.18098-0.10478 0-0.18733 0.0825-0.18733 0.18098 0 0.1016 0.0825 0.18415 0.18733 0.18415 0.10477 0 0.18732-0.0825 0.18732-0.18415z"/>
    <path d="m-110.3 248.56c-0.30797 0-0.75247 0.22542-0.75247 1.0192 0 0.762 0.42545 1.0096 0.75247 1.0096 0.23495 0 0.45403-0.12382 0.57785-0.32702l-0.16192-0.10478c-0.0921 0.14923-0.25083 0.23813-0.40323 0.23813-0.2921 0-0.54927-0.30163-0.54927-0.8382 0-0.52388 0.25082-0.81915 0.53022-0.81915 0.1524 0 0.29845 0.0921 0.37783 0.23177 6e-3 0.01 0.0127 0.019 0.0127 0.0317 0 0.01-3e-3 0.0159-3e-3 0.0254 0 3e-3 0 0.0191 0.0159 0.0286l0.20955-0.1016c-0.10478-0.23813-0.3429-0.3937-0.60643-0.3937z"/>
    <path d="m-108.13 249.84c0-0.50165-0.3175-0.762-0.6477-0.762-0.3683 0-0.6858 0.3175-0.6858 0.76835 0 0.44132 0.31432 0.75247 0.67945 0.75247 0.3429 0 0.65405-0.27622 0.65405-0.75882zm-0.66358-0.56833c0.20955 0 0.4318 0.18098 0.4318 0.57785 0 0.36513-0.20955 0.54928-0.4191 0.54928-0.23177 0-0.44132-0.2159-0.44132-0.57468 0-0.3556 0.20637-0.55245 0.42862-0.55245z"/>
    <path d="m-107.89 250.56h0.20955v-0.9652c0-0.0699 6e-3 -0.13335 0.0476-0.20955 0.0508-0.0952 0.1143-0.13335 0.17462-0.13335 0.0508 0 0.10795 0.0317 0.13335 0.11112 0.019 0.0603 0.0159 0.13018 0.0159 0.1905v1.0065h0.21272v-0.95885c0-0.0762 6e-3 -0.13653 0.0603-0.2286 0.0254-0.0381 0.0794-0.13018 0.16827-0.13018 0.0476 0 0.0921 0.0286 0.1143 0.0825 0.0286 0.0603 0.0222 0.14288 0.0222 0.20955v1.0287h0.2159v-1.0319c0-0.12065 3e-3 -0.2413-0.0603-0.33973-0.054-0.0825-0.14605-0.1143-0.22542-0.1143-0.1397 0-0.26988 0.0825-0.32703 0.20955-0.0222-0.12065-0.12382-0.20955-0.254-0.20955-0.12065 0-0.23177 0.0762-0.29845 0.1778l3e-3 -0.14287h-0.21273z"/>
    <path d="m-106.23 249.11 3e-3 1.978h0.23177v-0.72072c0.0984 0.14287 0.26035 0.23177 0.43498 0.23177 0.29845 0 0.6096-0.25082 0.6096-0.78105 0-0.51117-0.30163-0.73977-0.58738-0.73977-0.18732 0-0.36195 0.0953-0.46037 0.254v-0.22225zm0.60643 0.16192c0.127 0 0.43497 0.0667 0.43497 0.59373 0 0.4572-0.29845 0.53022-0.43497 0.53022-0.13653 0-0.27623-0.0699-0.33338-0.20002-0.0413-0.0984-0.0413-0.21908-0.0413-0.42863 0-0.12065 6e-3 -0.20955 0.0381-0.28575 0.0572-0.13017 0.1905-0.20955 0.33655-0.20955z"/>
    <path d="m-103.37 249.84c0-0.50165-0.3175-0.762-0.6477-0.762-0.3683 0-0.6858 0.3175-0.6858 0.76835 0 0.44132 0.31432 0.75247 0.67945 0.75247 0.3429 0 0.65405-0.27622 0.65405-0.75882zm-0.66358-0.56833c0.20955 0 0.4318 0.18098 0.4318 0.57785 0 0.36513-0.20955 0.54928-0.4191 0.54928-0.23177 0-0.44132-0.2159-0.44132-0.57468 0-0.3556 0.20637-0.55245 0.42862-0.55245z"/>
    <path d="m-103.03 250.56h0.23177v-0.83503c0-0.0952 0.0127-0.16827 0.073-0.24765 0.054-0.073 0.19367-0.2032 0.34607-0.2032 0.073 0 0.14605 0.0318 0.19685 0.0921 0.0794 0.0952 0.0794 0.21907 0.0794 0.32067v0.87313h0.22542v-0.87948c0-0.11112 0-0.23177-0.0508-0.34925-0.073-0.16192-0.22225-0.254-0.38735-0.254-0.19685 0-0.37465 0.127-0.4826 0.28893v-0.254h-0.23177z"/>
    <path d="m-100.84 249.08c-0.34608 0-0.66675 0.24765-0.66675 0.7747 0 0.48578 0.30162 0.74295 0.69532 0.74295 0.20955 0 0.39688-0.0762 0.5207-0.22542l-0.127-0.12383c-0.0921 0.10795-0.23177 0.1651-0.37465 0.1651-0.19367 0-0.47625-0.10795-0.49212-0.54292h1.0287c0.01-0.0984 6e-3 -0.19368-0.01-0.27623-0.0667-0.39052-0.33655-0.51435-0.57467-0.51435zm-0.43815 0.61595c0.0476-0.3429 0.2667-0.44132 0.42227-0.44132 0.23495 0 0.40323 0.20637 0.37465 0.44132z"/>
    <path d="m-99.854 250.56h0.23178v-0.83503c0-0.0952 0.0127-0.16827 0.07303-0.24765 0.05397-0.073 0.19368-0.2032 0.34608-0.2032 0.07303 0 0.14605 0.0318 0.19685 0.0921 0.07937 0.0952 0.07937 0.21907 0.07937 0.32067v0.87313h0.22542v-0.87948c0-0.11112 0-0.23177-0.0508-0.34925-0.07303-0.16192-0.22225-0.254-0.38735-0.254-0.19685 0-0.37465 0.127-0.4826 0.28893v-0.254h-0.23178z"/>
    <path d="m-97.885 248.72-0.02857 0.39053h-0.34608l-0.0032 0.18732h0.33972c-0.01905 0.24765-0.02857 0.4953-0.02857 0.73978 0 0.13017 0 0.27622 0.08572 0.39687 0.06985 0.0952 0.18098 0.1524 0.3302 0.1524 0.17145 0 0.33972-0.073 0.46355-0.16192l-0.06985-0.18098c-0.12382 0.0921-0.23812 0.13335-0.32702 0.13335-0.10795 0-0.21908-0.0603-0.24448-0.23495 0-0.0127-0.0095-0.0667-0.0095-0.2794 0-0.18732 0.0095-0.37782 0.02857-0.56515h0.47625v-0.1905h-0.47308s0.02223-0.26035 0.0381-0.3429c0.0032-0.0318 0.02858-0.0508 0.01588-0.0857z"/>
    <path d="m-96.219 248.91 0.04763 0.56197-0.51118-0.2413-0.08255 0.20638 0.54928 0.1651-0.41592 0.47625 0.17462 0.1397 0.3556-0.52705 0.3429 0.52387 0.17145-0.13652-0.40005-0.47943 0.5461-0.16192-0.08573-0.19685-0.50482 0.23177 0.0508-0.47625c0.0032-0.0413 0.0127-0.0476 0.01905-0.0857z"/>
    <path d="m-126.36 252.27v0.53975h-0.56197v0.19685h0.56197v0.59372h0.20003v-0.59372h0.54292v-0.19685h-0.54292v-0.53975z"/>
    <path d="m-123.57 252.48v1.451h0.2286v-0.70485c0-0.0889 3e-3 -0.18415 0.1016-0.33972 0.13335-0.20955 0.3048-0.24448 0.40958-0.24448 0.12065 0 0.19685 0.0572 0.23812 0.10795 0.019 0.0254 0.0286 0.0508 0.054 0.073l0.10795-0.21908c-0.0921-0.0952-0.22543-0.15875-0.38735-0.15875-0.21273 0-0.42863 0.10795-0.52388 0.31433l0.01-0.2794z"/>
    <path d="m-121.48 252.44c-0.34608 0-0.66675 0.24765-0.66675 0.7747 0 0.48578 0.30162 0.74295 0.69532 0.74295 0.20955 0 0.39688-0.0762 0.5207-0.22542l-0.127-0.12383c-0.0921 0.10795-0.23177 0.1651-0.37465 0.1651-0.19367 0-0.47625-0.10795-0.49212-0.54292h1.0287c0.01-0.0984 6e-3 -0.19368-0.01-0.27623-0.0667-0.39052-0.33655-0.51435-0.57467-0.51435zm-0.43815 0.61595c0.0476-0.3429 0.2667-0.44132 0.42227-0.44132 0.23495 0 0.40323 0.20637 0.37465 0.44132z"/>
    <path d="m-119.26 252.71c-0.1143-0.16827-0.30798-0.26987-0.54293-0.26987-0.42545 0-0.72707 0.32067-0.72707 0.75565 0 0.43815 0.30162 0.762 0.71437 0.762 0.20003 0 0.39688-0.0825 0.5334-0.23178l-0.13017-0.1524c-0.0984 0.11113-0.2413 0.17463-0.38418 0.17463-0.28257 0-0.49847-0.23495-0.49847-0.57468 0-0.3302 0.21272-0.53657 0.47942-0.53657 0.24765 0 0.36513 0.17145 0.37465 0.1905 0.0127 0.0222-6e-3 0.054 0.0191 0.073z"/>
    <path d="m-118.78 252.47v0.18733h0.34925v1.0827h-0.3683v0.18098h0.9398v-0.18098h-0.33973v-1.27zm0.4699-0.62865c-0.0921 0-0.1651 0.073-0.1651 0.16193 0 0.0889 0.073 0.16192 0.1651 0.16192s0.1651-0.073 0.1651-0.16192c0-0.0889-0.073-0.16193-0.1651-0.16193z"/>
    <path d="m-117.34 252.48 3e-3 1.978h0.23177v-0.72072c0.0984 0.14287 0.26035 0.23177 0.43498 0.23177 0.29845 0 0.6096-0.25082 0.6096-0.78105 0-0.51117-0.30163-0.73977-0.58738-0.73977-0.18732 0-0.36195 0.0952-0.46037 0.254v-0.22225zm0.60643 0.16192c0.127 0 0.43497 0.0667 0.43497 0.59373 0 0.4572-0.29845 0.53022-0.43497 0.53022-0.13653 0-0.27623-0.0699-0.33338-0.20002-0.0413-0.0984-0.0413-0.21908-0.0413-0.42863 0-0.12065 6e-3 -0.20955 0.0381-0.28575 0.0571-0.13017 0.1905-0.20955 0.33655-0.20955z"/>
    <path d="m-115.61 252.47v0.18733h0.34925v1.0827h-0.3683v0.18098h0.9398v-0.18098h-0.33973v-1.27zm0.4699-0.62865c-0.0921 0-0.1651 0.073-0.1651 0.16193 0 0.0889 0.073 0.16192 0.1651 0.16192s0.1651-0.073 0.1651-0.16192c0-0.0889-0.073-0.16193-0.1651-0.16193z"/>
    <path d="m-113.54 252.44c-0.34608 0-0.66675 0.24765-0.66675 0.7747 0 0.48578 0.30162 0.74295 0.69532 0.74295 0.20955 0 0.39688-0.0762 0.5207-0.22542l-0.127-0.12383c-0.0921 0.10795-0.23177 0.1651-0.37465 0.1651-0.19367 0-0.47625-0.10795-0.49212-0.54292h1.0287c0.01-0.0984 6e-3 -0.19368-0.01-0.27623-0.0667-0.39052-0.33655-0.51435-0.57467-0.51435zm-0.43815 0.61595c0.0476-0.3429 0.2667-0.44132 0.42227-0.44132 0.23495 0 0.40323 0.20637 0.37465 0.44132z"/>
    <path d="m-112.55 253.92h0.23177v-0.83503c0-0.0952 0.0127-0.16827 0.073-0.24765 0.054-0.073 0.19367-0.2032 0.34607-0.2032 0.073 0 0.14605 0.0318 0.19685 0.0921 0.0794 0.0952 0.0794 0.21907 0.0794 0.32067v0.87313h0.22542v-0.87948c0-0.11112 0-0.23177-0.0508-0.34925-0.073-0.16192-0.22225-0.254-0.38735-0.254-0.19685 0-0.37465 0.127-0.4826 0.28893v-0.254h-0.23177z"/>
    <path d="m-110.59 252.09-0.0286 0.39053h-0.34607l-3e-3 0.18732h0.33973c-0.019 0.24765-0.0286 0.4953-0.0286 0.73978 0 0.13017 0 0.27622 0.0857 0.39687 0.0698 0.0953 0.18097 0.1524 0.3302 0.1524 0.17145 0 0.33972-0.073 0.46355-0.16192l-0.0698-0.18098c-0.12383 0.0921-0.23813 0.13335-0.32703 0.13335-0.10795 0-0.21907-0.0603-0.24447-0.23495 0-0.0127-0.01-0.0667-0.01-0.2794 0-0.18732 0.01-0.37782 0.0286-0.56515h0.47625v-0.1905h-0.47308s0.0222-0.26035 0.0381-0.3429c3e-3 -0.0318 0.0286-0.0508 0.0159-0.0857z"/>
    <path d="m-109.32 251.95v0.18733h0.36512v1.6097h-0.38735v0.18415h1.0224v-0.18097h-0.41275v-1.6129h0.39053v-0.18733z"/>
    <path d="m-106.83 252.69c-0.0699-0.14923-0.22542-0.24765-0.42545-0.24765-0.27622 0-0.61277 0.19685-0.61277 0.7493 0 0.53657 0.29845 0.77152 0.57785 0.77152 0.18415 0 0.3556-0.10477 0.44767-0.2667v0.127c0 0.0349 3e-3 0.0699 0.0127 0.10478h0.2286c-0.0127-0.0413-0.0127-0.0889-0.0127-0.13335l-3e-3 -1.886c0-0.019 0-0.0254 0.0127-0.0444 6e-3 -0.01 0.0191-0.0254 0.0159-0.0476h-0.2413zm-0.41592-0.0603c0.127 0 0.31432 0.0667 0.37147 0.28258 0.0191 0.0667 0.0254 0.14605 0.0254 0.30797 0 0.11113-6e-3 0.1905-0.0318 0.2667-0.054 0.17145-0.20637 0.27305-0.3556 0.27305-0.1651 0-0.40957-0.127-0.40957-0.60325 0-0.41592 0.23177-0.52705 0.40005-0.52705z"/>
    <path d="m-105.48 252.77c0-0.0984-0.0825-0.18097-0.18732-0.18097-0.10478 0-0.18733 0.0825-0.18733 0.18097 0 0.1016 0.0825 0.18098 0.18733 0.18098 0.10477 0 0.18732-0.0794 0.18732-0.18098zm0 1.0128c0-0.0984-0.0825-0.18098-0.18732-0.18098-0.10478 0-0.18733 0.0825-0.18733 0.18098 0 0.1016 0.0825 0.18415 0.18733 0.18415 0.10477 0 0.18732-0.0825 0.18732-0.18415z"/>
    <path d="m-103.03 253.92h0.23177v-0.83503c0-0.0952 0.0127-0.16827 0.073-0.24765 0.054-0.073 0.19367-0.2032 0.34607-0.2032 0.073 0 0.14605 0.0318 0.19685 0.0921 0.0794 0.0952 0.0794 0.21907 0.0794 0.32067v0.87313h0.22542v-0.87948c0-0.11112 0-0.23177-0.0508-0.34925-0.073-0.16192-0.22225-0.254-0.38735-0.254-0.19685 0-0.37465 0.127-0.4826 0.28893v-0.254h-0.23177z"/>
    <path d="m-101.46 252.48v0.80962c0 0.12383 0 0.25083 0.0572 0.381 0.0825 0.1905 0.26035 0.29528 0.45085 0.29528 0.18097 0 0.35242-0.0984 0.44767-0.25718l-3e-3 0.10795c0 0.0381 0 0.0762 6e-3 0.11113h0.2413c-0.0159-0.0413-0.0191-0.0889-0.0191-0.13018v-1.3176h-0.2286v0.79692c0 0.11113-0.01 0.19685-0.0571 0.28575-0.0667 0.12383-0.19685 0.2159-0.33655 0.2159-0.11113 0-0.21908-0.0635-0.27623-0.1778-0.0508-0.1016-0.0508-0.2159-0.0508-0.31115v-0.80962z"/>
    <path d="m-99.952 253.92h0.20955v-0.9652c0-0.0699 0.0063-0.13335 0.04762-0.20955 0.0508-0.0952 0.1143-0.13335 0.17462-0.13335 0.0508 0 0.10795 0.0318 0.13335 0.11112 0.01905 0.0603 0.01588 0.13018 0.01588 0.1905v1.0065h0.21272v-0.95885c0-0.0762 0.0063-0.13653 0.06033-0.2286 0.0254-0.0381 0.07937-0.13018 0.16828-0.13018 0.04762 0 0.09208 0.0286 0.1143 0.0825 0.02858 0.0603 0.02223 0.14288 0.02223 0.20955v1.0287h0.2159v-1.0319c0-0.12065 0.0032-0.2413-0.06032-0.33973-0.05398-0.0825-0.14605-0.1143-0.22542-0.1143-0.1397 0-0.26988 0.0825-0.32702 0.20955-0.02222-0.12065-0.12382-0.20955-0.254-0.20955-0.12065 0-0.23178 0.0762-0.29845 0.1778l0.0032-0.14287h-0.21272z"/>
    <path d="m-98.295 251.81v2.1114h0.14922l0.07938-0.1905c0.09525 0.14287 0.254 0.2286 0.42862 0.2286 0.29845 0 0.60642-0.254 0.60642-0.78105 0-0.50483-0.29845-0.73978-0.5842-0.73978-0.18415 0-0.3556 0.0984-0.44768 0.25718v-0.8128c0-0.019 0.0032-0.0254 0.01905-0.0381 0.0063-3e-3 0.02223-0.0159 0.01905-0.0349zm0.60008 0.8255c0.13652 0 0.42545 0.0794 0.42545 0.59373 0 0.44132-0.28575 0.52387-0.42862 0.52387-0.09842 0-0.3175-0.0381-0.3556-0.3175-0.0095-0.073-0.0095-0.15875-0.0095-0.28575 0-0.13017 0.0063-0.22542 0.0381-0.3048 0.05397-0.13017 0.18732-0.20955 0.3302-0.20955z"/>
    <path d="m-96.076 252.44c-0.34608 0-0.66675 0.24765-0.66675 0.7747 0 0.48578 0.30162 0.74295 0.69532 0.74295 0.20955 0 0.39688-0.0762 0.5207-0.22542l-0.127-0.12383c-0.09207 0.10795-0.23178 0.1651-0.37465 0.1651-0.19368 0-0.47625-0.10795-0.49212-0.54292h1.0287c0.0095-0.0984 0.0064-0.19368-0.0095-0.27623-0.06668-0.39052-0.33655-0.51435-0.57468-0.51435zm-0.43815 0.61595c0.04762-0.3429 0.2667-0.44132 0.42228-0.44132 0.23495 0 0.40322 0.20637 0.37465 0.44132z"/>
    <path d="m-94.993 252.48v1.451h0.2286v-0.70485c0-0.0889 0.0032-0.18415 0.1016-0.33972 0.13335-0.20955 0.3048-0.24448 0.40958-0.24448 0.12065 0 0.19685 0.0572 0.23812 0.10795 0.01905 0.0254 0.02858 0.0508 0.05397 0.073l0.10795-0.21908c-0.09207-0.0952-0.22542-0.15875-0.38735-0.15875-0.21272 0-0.42862 0.10795-0.52388 0.31433l0.0095-0.2794z"/>
    <path d="m-126.36 255.63v0.53975h-0.56197v0.19685h0.56197v0.59373h0.20003v-0.59373h0.54292v-0.19685h-0.54292v-0.53975z"/>
    <path d="m-122.43 256.08c-0.1143-0.16828-0.30798-0.26988-0.54293-0.26988-0.42545 0-0.72707 0.32068-0.72707 0.75565 0 0.43815 0.30162 0.762 0.71437 0.762 0.20003 0 0.39688-0.0825 0.5334-0.23177l-0.13017-0.1524c-0.0984 0.11112-0.2413 0.17462-0.38418 0.17462-0.28257 0-0.49847-0.23495-0.49847-0.57467 0-0.3302 0.21272-0.53658 0.47942-0.53658 0.24765 0 0.36513 0.17145 0.37465 0.1905 0.0127 0.0222-6e-3 0.054 0.019 0.073z"/>
    <path d="m-120.83 256.57c0-0.50165-0.3175-0.762-0.6477-0.762-0.3683 0-0.6858 0.3175-0.6858 0.76835 0 0.44133 0.31432 0.75248 0.67945 0.75248 0.3429 0 0.65405-0.27623 0.65405-0.75883zm-0.66358-0.56832c0.20955 0 0.4318 0.18097 0.4318 0.57785 0 0.36512-0.20955 0.54927-0.4191 0.54927-0.23177 0-0.44132-0.2159-0.44132-0.57467 0-0.3556 0.20637-0.55245 0.42862-0.55245z"/>
    <path d="m-120.49 257.29h0.23177v-0.83502c0-0.0953 0.0127-0.16828 0.073-0.24765 0.054-0.073 0.19367-0.2032 0.34607-0.2032 0.073 0 0.14605 0.0317 0.19685 0.0921 0.0794 0.0953 0.0794 0.21908 0.0794 0.32068v0.87312h0.22542v-0.87947c0-0.11113 0-0.23178-0.0508-0.34925-0.073-0.16193-0.22225-0.254-0.38735-0.254-0.19685 0-0.37465 0.127-0.4826 0.28892v-0.254h-0.23177z"/>
    <path d="m-118.52 255.45-0.0286 0.39052h-0.34607l-3e-3 0.18733h0.33973c-0.019 0.24765-0.0286 0.4953-0.0286 0.73977 0 0.13018 0 0.27623 0.0857 0.39688 0.0698 0.0952 0.18097 0.1524 0.3302 0.1524 0.17145 0 0.33972-0.073 0.46355-0.16193l-0.0698-0.18097c-0.12383 0.0921-0.23813 0.13335-0.32703 0.13335-0.10795 0-0.21907-0.0603-0.24447-0.23495 0-0.0127-0.01-0.0667-0.01-0.2794 0-0.18733 0.01-0.37783 0.0286-0.56515h0.47625v-0.1905h-0.47308s0.0222-0.26035 0.0381-0.3429c3e-3 -0.0317 0.0286-0.0508 0.0159-0.0857z"/>
    <path d="m-116.71 255.81c-0.34608 0-0.66675 0.24765-0.66675 0.7747 0 0.48577 0.30162 0.74295 0.69532 0.74295 0.20955 0 0.39688-0.0762 0.5207-0.22543l-0.127-0.12382c-0.0921 0.10795-0.23177 0.1651-0.37465 0.1651-0.19367 0-0.47625-0.10795-0.49212-0.54293h1.0287c0.01-0.0984 6e-3 -0.19367-0.01-0.27622-0.0667-0.39053-0.33655-0.51435-0.57467-0.51435zm-0.43815 0.61595c0.0476-0.3429 0.2667-0.44133 0.42227-0.44133 0.23495 0 0.40323 0.20638 0.37465 0.44133z"/>
    <path d="m-114.8 255.84-0.36195 0.53657-0.381-0.53657h-0.24765l0.49847 0.71437-0.508 0.7366h0.25718l0.37782-0.56197 0.40005 0.56197h0.26035l-0.5334-0.74295 0.4699-0.70802z"/>
    <path d="m-113.76 255.45-0.0286 0.39052h-0.34607l-3e-3 0.18733h0.33973c-0.0191 0.24765-0.0286 0.4953-0.0286 0.73977 0 0.13018 0 0.27623 0.0857 0.39688 0.0699 0.0952 0.18097 0.1524 0.3302 0.1524 0.17145 0 0.33972-0.073 0.46355-0.16193l-0.0699-0.18097c-0.12383 0.0921-0.23813 0.13335-0.32703 0.13335-0.10795 0-0.21907-0.0603-0.24447-0.23495 0-0.0127-0.01-0.0667-0.01-0.2794 0-0.18733 0.01-0.37783 0.0286-0.56515h0.47625v-0.1905h-0.47308s0.0222-0.26035 0.0381-0.3429c3e-3 -0.0317 0.0286-0.0508 0.0159-0.0857z"/>
    <path d="m-111.27 256.31c0-0.18415-0.0127-0.42862-0.12065-0.64135-0.13017-0.254-0.3556-0.37147-0.5715-0.37147-0.29527 0-0.7112 0.2286-0.7112 1.0065 0 0.77788 0.40958 1.0224 0.71438 1.0224 0.21272 0 0.44132-0.12065 0.5715-0.38417 0.10477-0.21273 0.11747-0.4572 0.11747-0.63183zm-0.70167-0.80645c0.1397 0 0.31115 0.0825 0.40322 0.31433 0.0667 0.1651 0.0762 0.3556 0.0762 0.5207 0 0.13017-6e-3 0.33337-0.0889 0.50165-0.0921 0.19367-0.24447 0.26987-0.37782 0.26987-0.22225 0-0.4953-0.20637-0.4953-0.83502 0-0.59055 0.27622-0.77153 0.4826-0.77153z"/>
    <path d="m-110.99 255.18v2.1114h0.14923l0.0794-0.1905c0.0953 0.14288 0.254 0.2286 0.42863 0.2286 0.29845 0 0.60642-0.254 0.60642-0.78105 0-0.50482-0.29845-0.73977-0.5842-0.73977-0.18415 0-0.3556 0.0984-0.44767 0.25717v-0.8128c0-0.0191 3e-3 -0.0254 0.0191-0.0381 6e-3 -3e-3 0.0222-0.0159 0.019-0.0349zm0.60008 0.8255c0.13652 0 0.42545 0.0794 0.42545 0.59372 0 0.44133-0.28575 0.52388-0.42863 0.52388-0.0984 0-0.3175-0.0381-0.3556-0.3175-0.01-0.073-0.01-0.15875-0.01-0.28575 0-0.13018 6e-3 -0.22543 0.0381-0.3048 0.054-0.13018 0.18732-0.20955 0.3302-0.20955z"/>
    <path d="m-109.2 255.84v0.1905h0.54293v1.2033c0 0.0794-3e-3 0.15558-0.0381 0.23178-0.054 0.11747-0.16828 0.18415-0.2921 0.18415-0.17463 0-0.26988-0.127-0.28258-0.14605-0.0127-0.0222-6e-3 -0.0413-0.0286-0.0572l-0.14605 0.19685c0.10477 0.13017 0.26352 0.2032 0.44132 0.2032 0.20955 0 0.40958-0.0984 0.508-0.28893 0.0635-0.12382 0.0667-0.2413 0.0667-0.36512v-1.3526zm0.6604-0.62865c-0.0921 0-0.1651 0.073-0.1651 0.16192 0 0.0889 0.073 0.16193 0.1651 0.16193 0.0889 0 0.16193-0.073 0.16193-0.16193 0-0.0889-0.073-0.16192-0.16193-0.16192z"/>
    <path d="m-107.19 255.81c-0.34608 0-0.66675 0.24765-0.66675 0.7747 0 0.48577 0.30162 0.74295 0.69532 0.74295 0.20955 0 0.39688-0.0762 0.5207-0.22543l-0.127-0.12382c-0.0921 0.10795-0.23177 0.1651-0.37465 0.1651-0.19367 0-0.47625-0.10795-0.49212-0.54293h1.0287c0.01-0.0984 6e-3 -0.19367-0.01-0.27622-0.0667-0.39053-0.33655-0.51435-0.57467-0.51435zm-0.43815 0.61595c0.0476-0.3429 0.2667-0.44133 0.42227-0.44133 0.23495 0 0.40323 0.20638 0.37465 0.44133z"/>
    <path d="m-104.97 256.08c-0.1143-0.16828-0.30798-0.26988-0.54293-0.26988-0.42545 0-0.72707 0.32068-0.72707 0.75565 0 0.43815 0.30162 0.762 0.71437 0.762 0.20003 0 0.39688-0.0825 0.5334-0.23177l-0.13017-0.1524c-0.0984 0.11112-0.2413 0.17462-0.38418 0.17462-0.28257 0-0.49847-0.23495-0.49847-0.57467 0-0.3302 0.21272-0.53658 0.47942-0.53658 0.24765 0 0.36513 0.17145 0.37465 0.1905 0.0127 0.0222-6e-3 0.054 0.019 0.073z"/>
    <path d="m-104.24 255.45-0.0286 0.39052h-0.34607l-3e-3 0.18733h0.33973c-0.019 0.24765-0.0286 0.4953-0.0286 0.73977 0 0.13018 0 0.27623 0.0857 0.39688 0.0699 0.0952 0.18097 0.1524 0.3302 0.1524 0.17145 0 0.33972-0.073 0.46355-0.16193l-0.0699-0.18097c-0.12383 0.0921-0.23813 0.13335-0.32703 0.13335-0.10795 0-0.21907-0.0603-0.24447-0.23495 0-0.0127-0.01-0.0667-0.01-0.2794 0-0.18733 0.01-0.37783 0.0286-0.56515h0.47625v-0.1905h-0.47308s0.0222-0.26035 0.0381-0.3429c3e-3 -0.0317 0.0286-0.0508 0.0159-0.0857z"/>
    <path d="m-102.3 256.13c0-0.0984-0.0825-0.18098-0.18732-0.18098-0.10478 0-0.18733 0.0825-0.18733 0.18098 0 0.1016 0.0826 0.18097 0.18733 0.18097 0.10477 0 0.18732-0.0794 0.18732-0.18097zm0 1.0128c0-0.0984-0.0825-0.18097-0.18732-0.18097-0.10478 0-0.18733 0.0826-0.18733 0.18097 0 0.1016 0.0826 0.18415 0.18733 0.18415 0.10477 0 0.18732-0.0825 0.18732-0.18415z"/>
    <path d="m-99.19 255.29c-0.26352 0-0.76518 0.1651-0.76518 1.0319 0 0.7493 0.4191 0.99695 0.762 0.99695 0.18415 0 0.39688-0.0667 0.58102-0.20637v-0.77153h-0.56198v0.1905h0.35878v0.47308c-0.11112 0.0794-0.23812 0.12065-0.3556 0.12065-0.13018 0-0.26988-0.0508-0.37782-0.17463-0.1651-0.18732-0.18732-0.46672-0.18732-0.6731 0-0.18415 0.02223-0.36195 0.09843-0.508 0.1016-0.19367 0.2794-0.28257 0.4445-0.28257 0.1778 0 0.3175 0.0984 0.37782 0.23177 0.0095 0.0222 0.01905 0.0476 0.04445 0.0635l0.15558-0.15875c-0.1143-0.20637-0.3302-0.33337-0.57468-0.33337z"/>
    <path d="m-98.197 256.01 0.11112 0.14605c0.12065-0.12383 0.28258-0.16193 0.4191-0.16193 0.17145 0 0.25718 0.073 0.29845 0.1397 0.04762 0.0794 0.04445 0.17463 0.04445 0.25083v0.0508h-0.04445c-0.2159 0-0.4445 0-0.62865 0.0667-0.2286 0.0826-0.3302 0.254-0.3302 0.41275 0 0.21273 0.18415 0.41275 0.48578 0.41275 0.1778 0 0.36195-0.0667 0.5207-0.19685v0.15875h0.2159v-0.89852c0-0.11748-0.0032-0.2286-0.06985-0.3429-0.09525-0.15558-0.2794-0.23813-0.50482-0.23813-0.19368 0-0.381 0.0603-0.51752 0.20003zm0.88265 0.60007v0.0984c0 0.073 0 0.16827-0.09842 0.27305-0.05398 0.054-0.1905 0.17145-0.381 0.17145-0.19368 0-0.3048-0.12383-0.3048-0.25083 0-0.10795 0.07303-0.22542 0.254-0.26987 0.13335-0.0317 0.32702-0.0222 0.47942-0.0222z"/>
    <path d="m-96.777 257.29h0.20955v-0.9652c0-0.0699 0.0063-0.13335 0.04762-0.20955 0.0508-0.0952 0.1143-0.13335 0.17462-0.13335 0.0508 0 0.10795 0.0318 0.13335 0.11113 0.01905 0.0603 0.01587 0.13017 0.01587 0.1905v1.0065h0.21272v-0.95885c0-0.0762 0.0063-0.13652 0.06032-0.2286 0.0254-0.0381 0.07937-0.13017 0.16828-0.13017 0.04763 0 0.09208 0.0286 0.1143 0.0825 0.02858 0.0603 0.02223 0.14287 0.02223 0.20955v1.0287h0.2159v-1.0319c0-0.12065 0.0032-0.2413-0.06033-0.33972-0.05397-0.0825-0.14605-0.1143-0.22542-0.1143-0.1397 0-0.26988 0.0825-0.32702 0.20955-0.02223-0.12065-0.12382-0.20955-0.254-0.20955-0.12065 0-0.23178 0.0762-0.29845 0.1778l0.0032-0.14288h-0.21272z"/>
    <path d="m-94.488 255.81c-0.34608 0-0.66675 0.24765-0.66675 0.7747 0 0.48577 0.30162 0.74295 0.69532 0.74295 0.20955 0 0.39688-0.0762 0.5207-0.22543l-0.127-0.12382c-0.09208 0.10795-0.23178 0.1651-0.37465 0.1651-0.19368 0-0.47625-0.10795-0.49212-0.54293h1.0287c0.0095-0.0984 0.0063-0.19367-0.0095-0.27622-0.06668-0.39053-0.33655-0.51435-0.57468-0.51435zm-0.43815 0.61595c0.04762-0.3429 0.2667-0.44133 0.42227-0.44133 0.23495 0 0.40322 0.20638 0.37465 0.44133z"/>
    <path d="m-92.224 256.31c0-0.18415-0.0127-0.42862-0.12065-0.64135-0.13018-0.254-0.3556-0.37147-0.5715-0.37147-0.29528 0-0.7112 0.2286-0.7112 1.0065 0 0.77788 0.40958 1.0224 0.71438 1.0224 0.21272 0 0.44132-0.12065 0.5715-0.38417 0.10478-0.21273 0.11748-0.4572 0.11748-0.63183zm-0.70168-0.80645c0.1397 0 0.31115 0.0825 0.40322 0.31433 0.06667 0.1651 0.0762 0.3556 0.0762 0.5207 0 0.13017-0.0064 0.33337-0.0889 0.50165-0.09207 0.19367-0.24448 0.26987-0.37782 0.26987-0.22225 0-0.4953-0.20637-0.4953-0.83502 0-0.59055 0.27622-0.77153 0.4826-0.77153z"/>
    <path d="m-91.945 255.18v2.1114h0.14922l0.07937-0.1905c0.09525 0.14288 0.254 0.2286 0.42862 0.2286 0.29845 0 0.60642-0.254 0.60642-0.78105 0-0.50482-0.29845-0.73977-0.5842-0.73977-0.18415 0-0.3556 0.0984-0.44768 0.25717v-0.8128c0-0.0191 0.0032-0.0254 0.01905-0.0381 0.0063-3e-3 0.02222-0.0159 0.01905-0.0349zm0.60008 0.8255c0.13652 0 0.42545 0.0794 0.42545 0.59372 0 0.44133-0.28575 0.52388-0.42862 0.52388-0.09843 0-0.3175-0.0381-0.3556-0.3175-0.0095-0.073-0.0095-0.15875-0.0095-0.28575 0-0.13018 0.0063-0.22543 0.0381-0.3048 0.05398-0.13018 0.18732-0.20955 0.3302-0.20955z"/>
    <path d="m-90.148 255.84v0.1905h0.54292v1.2033c0 0.0794-0.0032 0.15558-0.0381 0.23178-0.05398 0.11747-0.16828 0.18415-0.2921 0.18415-0.17462 0-0.26988-0.127-0.28258-0.14605-0.0127-0.0222-0.0064-0.0413-0.02858-0.0572l-0.14605 0.19685c0.10478 0.13017 0.26352 0.2032 0.44132 0.2032 0.20955 0 0.40958-0.0984 0.508-0.28893 0.0635-0.12382 0.06668-0.2413 0.06668-0.36512v-1.3526zm0.6604-0.62865c-0.09208 0-0.1651 0.073-0.1651 0.16192 0 0.0889 0.07303 0.16193 0.1651 0.16193 0.0889 0 0.16192-0.073 0.16192-0.16193 0-0.0889-0.07303-0.16192-0.16192-0.16192z"/>
    <path d="m-88.138 255.81c-0.34608 0-0.66675 0.24765-0.66675 0.7747 0 0.48577 0.30162 0.74295 0.69532 0.74295 0.20955 0 0.39688-0.0762 0.5207-0.22543l-0.127-0.12382c-0.09208 0.10795-0.23178 0.1651-0.37465 0.1651-0.19368 0-0.47625-0.10795-0.49212-0.54293h1.0287c0.0095-0.0984 0.0063-0.19367-0.0095-0.27622-0.06668-0.39053-0.33655-0.51435-0.57468-0.51435zm-0.43815 0.61595c0.04763-0.3429 0.2667-0.44133 0.42228-0.44133 0.23495 0 0.40322 0.20638 0.37465 0.44133z"/>
    <path d="m-85.922 256.08c-0.1143-0.16828-0.30798-0.26988-0.54292-0.26988-0.42545 0-0.72707 0.32068-0.72707 0.75565 0 0.43815 0.30162 0.762 0.71437 0.762 0.20002 0 0.39688-0.0825 0.5334-0.23177l-0.13018-0.1524c-0.09843 0.11112-0.2413 0.17462-0.38418 0.17462-0.28258 0-0.49848-0.23495-0.49848-0.57467 0-0.3302 0.21272-0.53658 0.47942-0.53658 0.24765 0 0.36512 0.17145 0.37465 0.1905 0.0127 0.0222-0.0063 0.054 0.01905 0.073z"/>
    <path d="m-85.185 255.45-0.02858 0.39052h-0.34608l-0.0032 0.18733h0.33972c-0.01905 0.24765-0.02858 0.4953-0.02858 0.73977 0 0.13018 0 0.27623 0.08572 0.39688 0.06985 0.0952 0.18098 0.1524 0.3302 0.1524 0.17145 0 0.33972-0.073 0.46355-0.16193l-0.06985-0.18097c-0.12382 0.0921-0.23812 0.13335-0.32702 0.13335-0.10795 0-0.21908-0.0603-0.24448-0.23495 0-0.0127-0.0095-0.0667-0.0095-0.2794 0-0.18733 0.0095-0.37783 0.02858-0.56515h0.47625v-0.1905h-0.47308s0.02223-0.26035 0.0381-0.3429c0.0032-0.0317 0.02858-0.0508 0.01587-0.0857z"/>
    <path d="m-83.519 255.65 0.04762 0.56198-0.51118-0.2413-0.08255 0.20637 0.54928 0.1651-0.41592 0.47625 0.17462 0.1397 0.3556-0.52705 0.3429 0.52388 0.17145-0.13653-0.40005-0.47942 0.5461-0.16193-0.08572-0.19685-0.50482 0.23178 0.0508-0.47625c0.0032-0.0413 0.0127-0.0476 0.01905-0.0857z"/>
    <path d="m-126.36 259v0.53975h-0.56197v0.19685h0.56197v0.59372h0.20003v-0.59372h0.54292v-0.19685h-0.54292v-0.53975z"/>
    <path d="m-122.7 259.42c-0.0699-0.14923-0.22542-0.24765-0.42545-0.24765-0.27622 0-0.61277 0.19685-0.61277 0.7493 0 0.53657 0.29845 0.77152 0.57785 0.77152 0.18415 0 0.3556-0.10477 0.44767-0.2667v0.127c0 0.0349 3e-3 0.0698 0.0127 0.10478h0.2286c-0.0127-0.0413-0.0127-0.0889-0.0127-0.13335l-3e-3 -1.886c0-0.019 0-0.0254 0.0127-0.0444 6e-3 -0.01 0.0191-0.0254 0.0159-0.0476h-0.2413zm-0.41592-0.0603c0.127 0 0.31432 0.0667 0.37147 0.28258 0.0191 0.0667 0.0254 0.14605 0.0254 0.30797 0 0.11113-6e-3 0.1905-0.0318 0.2667-0.054 0.17145-0.20637 0.27305-0.3556 0.27305-0.1651 0-0.40957-0.127-0.40957-0.60325 0-0.41592 0.23177-0.52705 0.40005-0.52705z"/>
    <path d="m-122.01 259.38 0.11112 0.14605c0.12065-0.12382 0.28258-0.16192 0.4191-0.16192 0.17145 0 0.25718 0.073 0.29845 0.1397 0.0476 0.0794 0.0444 0.17462 0.0444 0.25082v0.0508h-0.0444c-0.2159 0-0.4445 0-0.62865 0.0667-0.2286 0.0826-0.3302 0.254-0.3302 0.41275 0 0.21272 0.18415 0.41275 0.48578 0.41275 0.1778 0 0.36195-0.0667 0.5207-0.19685v0.15875h0.2159v-0.89853c0-0.11747-3e-3 -0.2286-0.0699-0.3429-0.0952-0.15557-0.2794-0.23812-0.50483-0.23812-0.19367 0-0.381 0.0603-0.51752 0.20002zm0.88265 0.60008v0.0984c0 0.073 0 0.16828-0.0984 0.27305-0.054 0.054-0.1905 0.17145-0.381 0.17145-0.19367 0-0.3048-0.12382-0.3048-0.25082 0-0.10795 0.073-0.22543 0.254-0.26988 0.13335-0.0317 0.32703-0.0222 0.47943-0.0222z"/>
    <path d="m-120.11 258.82-0.0286 0.39053h-0.34607l-3e-3 0.18732h0.33973c-0.019 0.24765-0.0286 0.4953-0.0286 0.73978 0 0.13017 0 0.27622 0.0857 0.39687 0.0699 0.0952 0.18097 0.1524 0.3302 0.1524 0.17145 0 0.33972-0.073 0.46355-0.16192l-0.0699-0.18098c-0.12383 0.0921-0.23813 0.13335-0.32703 0.13335-0.10795 0-0.21907-0.0603-0.24447-0.23495 0-0.0127-0.01-0.0667-0.01-0.2794 0-0.18732 0.01-0.37782 0.0286-0.56515h0.47625v-0.1905h-0.47308s0.0222-0.26035 0.0381-0.3429c3e-3 -0.0318 0.0286-0.0508 0.0159-0.0857z"/>
    <path d="m-118.83 259.38 0.11112 0.14605c0.12065-0.12382 0.28258-0.16192 0.4191-0.16192 0.17145 0 0.25718 0.073 0.29845 0.1397 0.0476 0.0794 0.0444 0.17462 0.0444 0.25082v0.0508h-0.0444c-0.2159 0-0.4445 0-0.62865 0.0667-0.2286 0.0826-0.3302 0.254-0.3302 0.41275 0 0.21272 0.18415 0.41275 0.48578 0.41275 0.1778 0 0.36195-0.0667 0.5207-0.19685v0.15875h0.2159v-0.89853c0-0.11747-3e-3 -0.2286-0.0699-0.3429-0.0953-0.15557-0.2794-0.23812-0.50483-0.23812-0.19367 0-0.381 0.0603-0.51752 0.20002zm0.88265 0.60008v0.0984c0 0.073 0 0.16828-0.0984 0.27305-0.054 0.054-0.1905 0.17145-0.381 0.17145-0.19367 0-0.3048-0.12382-0.3048-0.25082 0-0.10795 0.073-0.22543 0.254-0.26988 0.13335-0.0317 0.32703-0.0222 0.47943-0.0222z"/>
    <path d="m-116.59 259.5c0-0.0984-0.0825-0.18097-0.18732-0.18097-0.10478 0-0.18733 0.0825-0.18733 0.18097 0 0.1016 0.0825 0.18098 0.18733 0.18098 0.10477 0 0.18732-0.0794 0.18732-0.18098zm0 1.0128c0-0.0984-0.0825-0.18098-0.18732-0.18098-0.10478 0-0.18733 0.0826-0.18733 0.18098 0 0.1016 0.0825 0.18415 0.18733 0.18415 0.10477 0 0.18732-0.0826 0.18732-0.18415z"/>
    <path d="m-114.07 259.38 0.11112 0.14605c0.12065-0.12382 0.28258-0.16192 0.4191-0.16192 0.17145 0 0.25718 0.073 0.29845 0.1397 0.0476 0.0794 0.0444 0.17462 0.0444 0.25082v0.0508h-0.0444c-0.2159 0-0.4445 0-0.62865 0.0667-0.2286 0.0826-0.3302 0.254-0.3302 0.41275 0 0.21272 0.18415 0.41275 0.48578 0.41275 0.1778 0 0.36195-0.0667 0.5207-0.19685v0.15875h0.2159v-0.89853c0-0.11747-3e-3 -0.2286-0.0699-0.3429-0.0952-0.15557-0.2794-0.23812-0.50483-0.23812-0.19367 0-0.381 0.0603-0.51752 0.20002zm0.88265 0.60008v0.0984c0 0.073 0 0.16828-0.0984 0.27305-0.054 0.054-0.1905 0.17145-0.381 0.17145-0.19367 0-0.3048-0.12382-0.3048-0.25082 0-0.10795 0.073-0.22543 0.254-0.26988 0.13335-0.0317 0.32703-0.0222 0.47943-0.0222z"/>
    <path d="m-112.55 260.66h0.23177v-0.83503c0-0.0953 0.0127-0.16827 0.073-0.24765 0.054-0.073 0.19367-0.2032 0.34607-0.2032 0.073 0 0.14605 0.0317 0.19685 0.0921 0.0794 0.0952 0.0794 0.21907 0.0794 0.32067v0.87313h0.22542v-0.87948c0-0.11112 0-0.23177-0.0508-0.34925-0.073-0.16192-0.22225-0.254-0.38735-0.254-0.19685 0-0.37465 0.127-0.4826 0.28893v-0.254h-0.23177z"/>
    <path d="m-111.04 259.21 0.59055 1.4446-0.0476 0.10478c-0.0254 0.0603-0.054 0.12065-0.0984 0.16827-0.0603 0.0667-0.13652 0.0953-0.2032 0.0953-0.10795 0-0.16192-0.073-0.17145-0.0857-0.01-0.0159-6e-3 -0.0381-0.0254-0.054l-0.11747 0.20638c0.0825 0.0794 0.19367 0.12065 0.31432 0.12065 0.13018 0 0.2667-0.0476 0.36195-0.15558 0.0635-0.073 0.0953-0.14922 0.127-0.23177l0.45085-1.197c0.054-0.13652 0.1016-0.27622 0.14605-0.4191h-0.23812c-0.0254 0.13335-0.0667 0.26035-0.11113 0.38735l-0.27622 0.77788-0.42545-1.07c-3e-3 -0.01-3e-3 -0.0159-3e-3 -0.0254 0-0.0222 0.0159-0.0381 0.0127-0.0667z"/>
   </g>
  </g>
 </g>
</svg>
