<svg width="147.11mm" height="134.14mm" version="1.1" viewBox="0 0 147.11 134.14" xmlns="http://www.w3.org/2000/svg">
 <rect x="44.979" y="2.7781" width="57.428" height="10.583" fill="#1d232d"/>
 <path d="m45.389 2.7781h56.608" fill="none" stroke="#47d58a" stroke-linecap="square" stroke-miterlimit="22" stroke-width=".26458"/>
 <path d="m45.389 13.361h56.608" fill="none" stroke="#47d58a" stroke-linecap="square" stroke-miterlimit="22" stroke-width=".26458"/>
 <g>
  <g stroke-linecap="round" stroke-width=".26458">
   <path d="m0.13229 0.13229h44.979v15.875h-44.979z" fill="#1d232d" stroke="#47d58a"/>
   <g fill="#e8eaec" aria-label="Component">
    <path d="m14.041 7.971c0 0.75494 0.43392 1.1994 1.016 1.1994 0.2928 0 0.52211-0.12347 0.70203-0.33514l-0.1658-0.17992c-0.14817 0.16581-0.31044 0.25753-0.52917 0.25753-0.44097 0-0.71966-0.36689-0.71966-0.94897 0-0.57503 0.2928-0.93486 0.73378-0.93486 0.1905 0 0.33867 0.084666 0.46214 0.21519l0.1658-0.18697c-0.13758-0.15169-0.3563-0.28575-0.63147-0.28575-0.59267 0-1.0336 0.45508-1.0336 1.1994z"/>
    <path d="m16.028 8.2744c0 0.56797 0.37394 0.89605 0.79375 0.89605 0.4198 0 0.79375-0.32808 0.79375-0.89605 0-0.57503-0.37394-0.90311-0.79375-0.90311-0.4198 0-0.79375 0.32808-0.79375 0.90311zm0.29986 0c0-0.39511 0.20108-0.66322 0.49389-0.66322 0.29633 0 0.49389 0.26811 0.49389 0.66322 0 0.39158-0.19756 0.65616-0.49389 0.65616-0.2928 0-0.49389-0.26458-0.49389-0.65616z"/>
    <path d="m18.071 9.1281h0.28928v-1.2418c0.15875-0.17639 0.30339-0.26458 0.43039-0.26458 0.21872 0 0.32103 0.13758 0.32103 0.45861v1.0477h0.28928v-1.2418c0.15875-0.17639 0.29633-0.26458 0.43039-0.26458 0.21519 0 0.3175 0.13758 0.3175 0.45861v1.0477h0.28928v-1.0866c0-0.43744-0.16933-0.67028-0.52211-0.67028-0.20814 0-0.38453 0.13406-0.56444 0.32808-0.07055-0.20461-0.21167-0.32808-0.47272-0.32808-0.20461 0-0.38453 0.127-0.53269 0.28928h-0.01058l-0.0247-0.24694h-0.23989z"/>
    <path d="m21.274 8.9729c0.15875 0.12347 0.3175 0.19756 0.47625 0.19756 0.39158 0 0.74083-0.34219 0.74083-0.92428 0-0.53269-0.23636-0.87489-0.67733-0.87489-0.20108 0-0.39158 0.10936-0.5468 0.23989h-0.01058l-0.0247-0.19756h-0.23989v2.4377h0.28928v-0.57855zm0.0071-0.22578v-0.89958c0.16933-0.15169 0.31397-0.23283 0.45861-0.23283 0.32456 0 0.45156 0.254 0.45156 0.63147 0 0.42333-0.20814 0.68086-0.49036 0.68086-0.11289 0-0.26458-0.049389-0.4198-0.17992z"/>
    <path d="m22.822 8.2744c0 0.56797 0.37394 0.89605 0.79375 0.89605 0.4198 0 0.79375-0.32808 0.79375-0.89605 0-0.57503-0.37394-0.90311-0.79375-0.90311-0.4198 0-0.79375 0.32808-0.79375 0.90311zm0.29986 0c0-0.39511 0.20108-0.66322 0.49389-0.66322 0.29633 0 0.49389 0.26811 0.49389 0.66322 0 0.39158-0.19756 0.65616-0.49389 0.65616-0.2928 0-0.49389-0.26458-0.49389-0.65616z"/>
    <path d="m24.864 9.1281h0.28928v-1.2418c0.17286-0.17286 0.2928-0.26458 0.46919-0.26458 0.22578 0 0.32455 0.13758 0.32455 0.45861v1.0477h0.28928v-1.0866c0-0.43744-0.16228-0.67028-0.52211-0.67028-0.23636 0-0.41275 0.127-0.57503 0.28928h-0.01058l-0.024697-0.24694h-0.23989z"/>
    <path d="m26.667 8.2744c0 0.56092 0.36336 0.89605 0.82197 0.89605 0.23283 0 0.41628-0.081139 0.56444-0.17639l-0.10231-0.1905c-0.127 0.081139-0.26458 0.13406-0.42686 0.13406-0.32808 0-0.55033-0.23283-0.5715-0.60325h1.1571c0.0071-0.042333 0.01058-0.098778 0.01058-0.15875 0-0.49036-0.24694-0.80433-0.68439-0.80433-0.39158 0-0.76905 0.34219-0.76905 0.90311zm0.28222-0.13053c0.03528-0.34572 0.254-0.54328 0.49389-0.54328 0.26811 0 0.42333 0.19403 0.42333 0.54328z"/>
    <path d="m28.544 9.1281h0.28928v-1.2418c0.17286-0.17286 0.2928-0.26458 0.46919-0.26458 0.22578 0 0.32456 0.13758 0.32456 0.45861v1.0477h0.28928v-1.0866c0-0.43744-0.16228-0.67028-0.52211-0.67028-0.23636 0-0.41275 0.127-0.57503 0.28928h-0.01058l-0.0247-0.24694h-0.23989z"/>
    <path d="m30.522 8.599c0 0.33867 0.12347 0.5715 0.49036 0.5715 0.10583 0 0.22225-0.03175 0.3175-0.0635l-0.05645-0.21872c-0.05644 0.021167-0.13406 0.045861-0.19403 0.045861-0.19756 0-0.26458-0.11994-0.26458-0.33161v-0.9525h0.46214v-0.23636h-0.46213v-0.47978h-0.24342l-0.03528 0.47978-0.26811 0.017639v0.21872h0.254z"/>
   </g>
   <path d="m63.376 3.8365-1.0669 0.95591v6.1452l1.0669 0.95591h8.4496l1.0669-0.95591v-6.1452l-1.0669-0.95591z" fill="#1d232d" stroke="#ff867f" stroke-miterlimit="22"/>
  </g>
  <path d="m63.402 3.8365-1.0925 0.95591 4.7796 2.7595h1.0242l4.7796-2.7595-1.0925-0.95591z" fill="#ff867f"/>
  <g transform="matrix(-.0021183 -.003669 .0037318 -.0021545 73.733 9.553)" fill="#47d58a" stroke-width="123.85">
   <g fill="#47d58a" stroke-width="123.85">
    <path d="m486.41 221.41-364.07-208.5c-52.938-30.318-95.852-5.44-95.852 55.563v415.65c0 61.004 42.914 85.882 95.852 55.563l364.07-208.49c52.938-30.317 52.938-79.473 0-109.79z" fill="#47d58a" stroke-width="123.85"/>
   </g>
  </g>
 </g>
 <g fill="#1d232d">
  <rect x="63.632" y="25.268" width="19.844" height="48.948" stroke="#47d58a" stroke-linecap="round" stroke-width=".26458"/>
  <path d="m0.13229 23.945h44.979v15.875h-44.979z" stroke="#47d58a" stroke-linecap="round" stroke-width=".26458"/>
  <rect x="45.244" y="26.591" width="18.521" height="10.583"/>
 </g>
 <path d="m45.376 26.591h18.256" fill="none" stroke="#47d58a" stroke-linecap="square" stroke-miterlimit="22" stroke-width=".26458"/>
 <path d="m45.376 37.174h18.256" fill="none" stroke="#47d58a" stroke-linecap="square" stroke-miterlimit="22" stroke-width=".26458"/>
 <g>
  <g fill="#e8eaec" stroke-linecap="round" stroke-width=".26458" aria-label="Component">
   <path d="m14.041 31.784c0 0.75494 0.43392 1.1994 1.016 1.1994 0.2928 0 0.52211-0.12347 0.70203-0.33514l-0.1658-0.17992c-0.14817 0.1658-0.31044 0.25753-0.52917 0.25753-0.44097 0-0.71966-0.36689-0.71966-0.94897 0-0.57503 0.2928-0.93486 0.73378-0.93486 0.1905 0 0.33867 0.08467 0.46214 0.21519l0.1658-0.18697c-0.13758-0.15169-0.3563-0.28575-0.63147-0.28575-0.59267 0-1.0336 0.45508-1.0336 1.1994z"/>
   <path d="m16.028 32.087c0 0.56797 0.37394 0.89605 0.79375 0.89605 0.4198 0 0.79375-0.32808 0.79375-0.89605 0-0.57503-0.37394-0.90311-0.79375-0.90311-0.4198 0-0.79375 0.32808-0.79375 0.90311zm0.29986 0c0-0.39511 0.20108-0.66322 0.49389-0.66322 0.29633 0 0.49389 0.26811 0.49389 0.66322 0 0.39158-0.19756 0.65616-0.49389 0.65616-0.2928 0-0.49389-0.26458-0.49389-0.65616z"/>
   <path d="m18.071 32.941h0.28928v-1.2418c0.15875-0.17639 0.30339-0.26458 0.43039-0.26458 0.21872 0 0.32103 0.13758 0.32103 0.45861v1.0477h0.28928v-1.2418c0.15875-0.17639 0.29633-0.26458 0.43039-0.26458 0.21519 0 0.3175 0.13758 0.3175 0.45861v1.0477h0.28928v-1.0866c0-0.43744-0.16933-0.67028-0.52211-0.67028-0.20814 0-0.38453 0.13406-0.56444 0.32808-0.07055-0.20461-0.21167-0.32808-0.47272-0.32808-0.20461 0-0.38453 0.127-0.53269 0.28928h-0.01058l-0.0247-0.24694h-0.23989z"/>
   <path d="m21.274 32.785c0.15875 0.12347 0.3175 0.19756 0.47625 0.19756 0.39158 0 0.74083-0.34219 0.74083-0.92428 0-0.53269-0.23636-0.87489-0.67733-0.87489-0.20108 0-0.39158 0.10936-0.5468 0.23989h-0.01058l-0.0247-0.19756h-0.23989v2.4377h0.28928v-0.57855zm0.0071-0.22578v-0.89958c0.16933-0.15169 0.31397-0.23283 0.45861-0.23283 0.32456 0 0.45156 0.254 0.45156 0.63147 0 0.42333-0.20814 0.68086-0.49036 0.68086-0.11289 0-0.26458-0.04939-0.4198-0.17992z"/>
   <path d="m22.822 32.087c0 0.56797 0.37394 0.89605 0.79375 0.89605 0.4198 0 0.79375-0.32808 0.79375-0.89605 0-0.57503-0.37394-0.90311-0.79375-0.90311-0.4198 0-0.79375 0.32808-0.79375 0.90311zm0.29986 0c0-0.39511 0.20108-0.66322 0.49389-0.66322 0.29633 0 0.49389 0.26811 0.49389 0.66322 0 0.39158-0.19756 0.65616-0.49389 0.65616-0.2928 0-0.49389-0.26458-0.49389-0.65616z"/>
   <path d="m24.864 32.941h0.28928v-1.2418c0.17286-0.17286 0.2928-0.26458 0.46919-0.26458 0.22578 0 0.32455 0.13758 0.32455 0.45861v1.0477h0.28928v-1.0866c0-0.43744-0.16228-0.67028-0.52211-0.67028-0.23636 0-0.41275 0.127-0.57503 0.28928h-0.01058l-0.02469-0.24694h-0.2399z"/>
   <path d="m26.667 32.087c0 0.56092 0.36336 0.89605 0.82197 0.89605 0.23283 0 0.41628-0.08114 0.56444-0.17639l-0.10231-0.1905c-0.127 0.08114-0.26458 0.13406-0.42686 0.13406-0.32808 0-0.55033-0.23283-0.5715-0.60325h1.1571c0.0071-0.04233 0.01058-0.09878 0.01058-0.15875 0-0.49036-0.24694-0.80433-0.68439-0.80433-0.39158 0-0.76905 0.34219-0.76905 0.90311zm0.28222-0.13053c0.03528-0.34572 0.254-0.54328 0.49389-0.54328 0.26811 0 0.42333 0.19403 0.42333 0.54328z"/>
   <path d="m28.544 32.941h0.28928v-1.2418c0.17286-0.17286 0.2928-0.26458 0.46919-0.26458 0.22578 0 0.32456 0.13758 0.32456 0.45861v1.0477h0.28928v-1.0866c0-0.43744-0.16228-0.67028-0.52211-0.67028-0.23636 0-0.41275 0.127-0.57503 0.28928h-0.01058l-0.0247-0.24694h-0.23989z"/>
   <path d="m30.522 32.411c0 0.33867 0.12347 0.5715 0.49036 0.5715 0.10583 0 0.22225-0.03175 0.3175-0.0635l-0.05645-0.21872c-0.05644 0.02117-0.13406 0.04586-0.19403 0.04586-0.19756 0-0.26458-0.11994-0.26458-0.33161v-0.9525h0.46214v-0.23636h-0.46214v-0.47978h-0.24342l-0.03528 0.47978-0.26811 0.01764v0.21872h0.254z"/>
  </g>
  <path d="m146.98 59.928h-44.979v15.875h44.979z" fill="#1d232d" stroke="#ff867f" stroke-linecap="round" stroke-width=".26458"/>
  <rect transform="scale(-1,1)" x="-101.86" y="62.574" width="18.521" height="10.583" fill="#1d232d"/>
 </g>
 <path d="m101.73 62.574h-18.256" fill="none" stroke="#47d58a" stroke-linecap="square" stroke-miterlimit="22" stroke-width=".26458"/>
 <path d="m101.73 73.157h-18.256" fill="none" stroke="#47d58a" stroke-linecap="square" stroke-miterlimit="22" stroke-width=".26458"/>
 <g>
  <g fill="#e8eaec" stroke-linecap="round" stroke-width=".26458" aria-label="Component">
   <path d="m115.78 67.767c0 0.75494 0.43392 1.1994 1.016 1.1994 0.2928 0 0.52211-0.12347 0.70203-0.33514l-0.16581-0.17992c-0.14817 0.1658-0.31044 0.25753-0.52916 0.25753-0.44098 0-0.71967-0.36689-0.71967-0.94897 0-0.57503 0.29281-0.93486 0.73378-0.93486 0.1905 0 0.33866 0.08467 0.46213 0.21519l0.16581-0.18697c-0.13758-0.1517-0.35631-0.28575-0.63147-0.28575-0.59267 0-1.0336 0.45508-1.0336 1.1994z"/>
   <path d="m117.77 68.07c0 0.56797 0.37394 0.89605 0.79375 0.89605 0.4198 0 0.79375-0.32808 0.79375-0.89605 0-0.57503-0.37395-0.90311-0.79375-0.90311-0.41981 0-0.79375 0.32808-0.79375 0.90311zm0.29986 0c0-0.39511 0.20108-0.66322 0.49389-0.66322 0.29633 0 0.49388 0.26811 0.49388 0.66322 0 0.39158-0.19755 0.65616-0.49388 0.65616-0.29281 0-0.49389-0.26458-0.49389-0.65616z"/>
   <path d="m119.81 68.924h0.28927v-1.2418c0.15875-0.17639 0.30339-0.26458 0.43039-0.26458 0.21872 0 0.32103 0.13758 0.32103 0.45861v1.0477h0.28928v-1.2418c0.15875-0.17639 0.29633-0.26458 0.43038-0.26458 0.2152 0 0.3175 0.13758 0.3175 0.45861v1.0477h0.28928v-1.0866c0-0.43744-0.16933-0.67028-0.52211-0.67028-0.20814 0-0.38453 0.13406-0.56444 0.32808-0.0706-0.20461-0.21167-0.32808-0.47272-0.32808-0.20461 0-0.38453 0.127-0.5327 0.28928h-0.0106l-0.0247-0.24694h-0.23989z"/>
   <path d="m123.01 68.769c0.15875 0.12347 0.3175 0.19756 0.47625 0.19756 0.39158 0 0.74083-0.34219 0.74083-0.92428 0-0.53269-0.23636-0.87489-0.67733-0.87489-0.20108 0-0.39158 0.10936-0.5468 0.23989h-0.0106l-0.0247-0.19756h-0.23989v2.4377h0.28928v-0.57855zm7e-3 -0.22578v-0.89958c0.16933-0.15169 0.31397-0.23283 0.45861-0.23283 0.32455 0 0.45155 0.254 0.45155 0.63147 0 0.42333-0.20814 0.68086-0.49036 0.68086-0.11289 0-0.26458-0.04939-0.4198-0.17992z"/>
   <path d="m124.56 68.07c0 0.56797 0.37394 0.89605 0.79375 0.89605 0.4198 0 0.79375-0.32808 0.79375-0.89605 0-0.57503-0.37395-0.90311-0.79375-0.90311-0.41981 0-0.79375 0.32808-0.79375 0.90311zm0.29986 0c0-0.39511 0.20108-0.66322 0.49389-0.66322 0.29633 0 0.49389 0.26811 0.49389 0.66322 0 0.39158-0.19756 0.65616-0.49389 0.65616-0.29281 0-0.49389-0.26458-0.49389-0.65616z"/>
   <path d="m126.6 68.924h0.28928v-1.2418c0.17286-0.17286 0.2928-0.26458 0.46919-0.26458 0.22578 0 0.32455 0.13758 0.32455 0.45861v1.0477h0.28928v-1.0866c0-0.43744-0.16228-0.67028-0.52211-0.67028-0.23636 0-0.41275 0.127-0.57503 0.28928h-0.0106l-0.0247-0.24694h-0.23989z"/>
   <path d="m128.4 68.07c0 0.56092 0.36336 0.89605 0.82197 0.89605 0.23283 0 0.41627-0.08114 0.56444-0.17639l-0.1023-0.1905c-0.127 0.08114-0.26459 0.13406-0.42686 0.13406-0.32809 0-0.55034-0.23283-0.5715-0.60325h1.1571c7e-3 -0.04233 0.0106-0.09878 0.0106-0.15875 0-0.49036-0.24695-0.80433-0.68439-0.80433-0.39158 0-0.76905 0.34219-0.76905 0.90311zm0.28222-0.13053c0.0353-0.34572 0.254-0.54328 0.49389-0.54328 0.26811 0 0.42333 0.19403 0.42333 0.54328z"/>
   <path d="m130.28 68.924h0.28928v-1.2418c0.17286-0.17286 0.2928-0.26458 0.46919-0.26458 0.22578 0 0.32456 0.13758 0.32456 0.45861v1.0477h0.28927v-1.0866c0-0.43744-0.16227-0.67028-0.52211-0.67028-0.23636 0-0.41275 0.127-0.57502 0.28928h-0.0106l-0.0247-0.24694h-0.23989z"/>
   <path d="m132.26 68.395c0 0.33867 0.12347 0.5715 0.49036 0.5715 0.10583 0 0.22225-0.03175 0.3175-0.0635l-0.0565-0.21872c-0.0564 0.02117-0.13405 0.04586-0.19402 0.04586-0.19756 0-0.26459-0.11994-0.26459-0.33161v-0.9525h0.46214v-0.23636h-0.46214v-0.47978h-0.24341l-0.0353 0.47978-0.26811 0.01764v0.21872h0.254z"/>
  </g>
  <path d="m146.98 0.13229h-44.979v15.875h44.979z" fill="#1d232d" stroke="#ff867f" stroke-linecap="round" stroke-width=".26458"/>
  <rect transform="scale(-1,1)" x="-101.86" y="26.591" width="18.521" height="10.583" fill="#1d232d"/>
 </g>
 <path d="m101.73 26.591h-18.256" fill="none" stroke="#47d58a" stroke-linecap="square" stroke-miterlimit="22" stroke-width=".26458"/>
 <path d="m101.73 37.174h-18.256" fill="none" stroke="#47d58a" stroke-linecap="square" stroke-miterlimit="22" stroke-width=".26458"/>
 <g>
  <g fill="#e8eaec" stroke-linecap="round" stroke-width=".26458" aria-label="Component">
   <path d="m115.78 7.971c0 0.75494 0.43392 1.1994 1.016 1.1994 0.2928 0 0.52211-0.12347 0.70203-0.33514l-0.16581-0.17992c-0.14817 0.16581-0.31044 0.25753-0.52916 0.25753-0.44098 0-0.71967-0.36689-0.71967-0.94897 0-0.57503 0.29281-0.93486 0.73378-0.93486 0.1905 0 0.33866 0.084666 0.46213 0.21519l0.16581-0.18697c-0.13758-0.15169-0.35631-0.28575-0.63147-0.28575-0.59267 0-1.0336 0.45508-1.0336 1.1994z"/>
   <path d="m117.77 8.2744c0 0.56797 0.37394 0.89605 0.79375 0.89605 0.4198 0 0.79375-0.32808 0.79375-0.89605 0-0.57503-0.37395-0.90311-0.79375-0.90311-0.41981 0-0.79375 0.32808-0.79375 0.90311zm0.29986 0c0-0.39511 0.20108-0.66322 0.49389-0.66322 0.29633 0 0.49388 0.26811 0.49388 0.66322 0 0.39158-0.19755 0.65616-0.49388 0.65616-0.29281 0-0.49389-0.26458-0.49389-0.65616z"/>
   <path d="m119.81 9.1281h0.28927v-1.2418c0.15875-0.17639 0.30339-0.26458 0.43039-0.26458 0.21872 0 0.32103 0.13758 0.32103 0.45861v1.0477h0.28928v-1.2418c0.15875-0.17639 0.29633-0.26458 0.43038-0.26458 0.2152 0 0.3175 0.13758 0.3175 0.45861v1.0477h0.28928v-1.0866c0-0.43744-0.16933-0.67028-0.52211-0.67028-0.20814 0-0.38453 0.13406-0.56444 0.32808-0.0706-0.20461-0.21167-0.32808-0.47272-0.32808-0.20461 0-0.38453 0.127-0.5327 0.28928h-0.0106l-0.0247-0.24694h-0.23989z"/>
   <path d="m123.01 8.9729c0.15875 0.12347 0.3175 0.19756 0.47625 0.19756 0.39158 0 0.74083-0.34219 0.74083-0.92428 0-0.53269-0.23636-0.87489-0.67733-0.87489-0.20108 0-0.39158 0.10936-0.5468 0.23989h-0.0106l-0.0247-0.19756h-0.23989v2.4377h0.28928v-0.57855zm7e-3 -0.22578v-0.89958c0.16933-0.15169 0.31397-0.23283 0.45861-0.23283 0.32455 0 0.45155 0.254 0.45155 0.63147 0 0.42333-0.20814 0.68086-0.49036 0.68086-0.11289 0-0.26458-0.049389-0.4198-0.17992z"/>
   <path d="m124.56 8.2744c0 0.56797 0.37394 0.89605 0.79375 0.89605 0.4198 0 0.79375-0.32808 0.79375-0.89605 0-0.57503-0.37395-0.90311-0.79375-0.90311-0.41981 0-0.79375 0.32808-0.79375 0.90311zm0.29986 0c0-0.39511 0.20108-0.66322 0.49389-0.66322 0.29633 0 0.49389 0.26811 0.49389 0.66322 0 0.39158-0.19756 0.65616-0.49389 0.65616-0.29281 0-0.49389-0.26458-0.49389-0.65616z"/>
   <path d="m126.6 9.1281h0.28928v-1.2418c0.17286-0.17286 0.2928-0.26458 0.46919-0.26458 0.22578 0 0.32455 0.13758 0.32455 0.45861v1.0477h0.28928v-1.0866c0-0.43744-0.16228-0.67028-0.52211-0.67028-0.23636 0-0.41275 0.127-0.57503 0.28928h-0.0106l-0.0247-0.24694h-0.23989z"/>
   <path d="m128.4 8.2744c0 0.56092 0.36336 0.89605 0.82197 0.89605 0.23283 0 0.41627-0.081139 0.56444-0.17639l-0.1023-0.1905c-0.127 0.081139-0.26459 0.13406-0.42686 0.13406-0.32809 0-0.55034-0.23283-0.5715-0.60325h1.1571c7e-3 -0.042333 0.0106-0.098778 0.0106-0.15875 0-0.49036-0.24695-0.80433-0.68439-0.80433-0.39158 0-0.76905 0.34219-0.76905 0.90311zm0.28222-0.13053c0.0353-0.34572 0.254-0.54328 0.49389-0.54328 0.26811 0 0.42333 0.19403 0.42333 0.54328z"/>
   <path d="m130.28 9.1281h0.28928v-1.2418c0.17286-0.17286 0.2928-0.26458 0.46919-0.26458 0.22578 0 0.32456 0.13758 0.32456 0.45861v1.0477h0.28927v-1.0866c0-0.43744-0.16227-0.67028-0.52211-0.67028-0.23636 0-0.41275 0.127-0.57502 0.28928h-0.0106l-0.0247-0.24694h-0.23989z"/>
   <path d="m132.26 8.599c0 0.33867 0.12347 0.5715 0.49036 0.5715 0.10583 0 0.22225-0.03175 0.3175-0.0635l-0.0565-0.21872c-0.0564 0.021167-0.13405 0.045861-0.19402 0.045861-0.19756 0-0.26459-0.11994-0.26459-0.33161v-0.9525h0.46214v-0.23636h-0.46214v-0.47978h-0.24341l-0.0353 0.47978-0.26811 0.017639v0.21872h0.254z"/>
  </g>
  <path d="m50.147 27.649-1.0669 0.95591v6.1452l1.0669 0.95591h8.4496l1.0669-0.95591v-6.1452l-1.0669-0.95591z" fill="#1d232d" stroke="#ff867f" stroke-linecap="round" stroke-miterlimit="22" stroke-width=".26458"/>
  <path d="m50.173 27.649-1.0925 0.95591 4.7796 2.7595h1.0242l4.7796-2.7595-1.0925-0.95591z" fill="#ff867f"/>
  <g transform="matrix(-.0021183 -.003669 .0037318 -.0021545 60.503 33.365)" fill="#47d58a" stroke-width="123.85">
   <g fill="#47d58a" stroke-width="123.85">
    <path d="m486.41 221.41-364.07-208.5c-52.938-30.318-95.852-5.44-95.852 55.563v415.65c0 61.004 42.914 85.882 95.852 55.563l364.07-208.49c52.938-30.317 52.938-79.473 0-109.79z" fill="#47d58a" stroke-width="123.85"/>
   </g>
  </g>
  <g stroke-linecap="round">
   <path d="m146.98 23.945h-44.979v15.875h44.979z" fill="#1d232d" stroke="#ff867f" stroke-width=".26458"/>
   <g fill="#e8eaec" stroke-width=".26458" aria-label="Component">
    <path d="m115.78 31.784c0 0.75494 0.43392 1.1994 1.016 1.1994 0.2928 0 0.52211-0.12347 0.70203-0.33514l-0.16581-0.17992c-0.14817 0.1658-0.31044 0.25753-0.52916 0.25753-0.44098 0-0.71967-0.36689-0.71967-0.94897 0-0.57503 0.29281-0.93486 0.73378-0.93486 0.1905 0 0.33866 0.08467 0.46213 0.21519l0.16581-0.18697c-0.13758-0.15169-0.35631-0.28575-0.63147-0.28575-0.59267 0-1.0336 0.45508-1.0336 1.1994z"/>
    <path d="m117.77 32.087c0 0.56797 0.37394 0.89605 0.79375 0.89605 0.4198 0 0.79375-0.32808 0.79375-0.89605 0-0.57503-0.37395-0.90311-0.79375-0.90311-0.41981 0-0.79375 0.32808-0.79375 0.90311zm0.29986 0c0-0.39511 0.20108-0.66322 0.49389-0.66322 0.29633 0 0.49388 0.26811 0.49388 0.66322 0 0.39158-0.19755 0.65616-0.49388 0.65616-0.29281 0-0.49389-0.26458-0.49389-0.65616z"/>
    <path d="m119.81 32.941h0.28927v-1.2418c0.15875-0.17639 0.30339-0.26458 0.43039-0.26458 0.21872 0 0.32103 0.13758 0.32103 0.45861v1.0477h0.28928v-1.2418c0.15875-0.17639 0.29633-0.26458 0.43038-0.26458 0.2152 0 0.3175 0.13758 0.3175 0.45861v1.0477h0.28928v-1.0866c0-0.43744-0.16933-0.67028-0.52211-0.67028-0.20814 0-0.38453 0.13406-0.56444 0.32808-0.0706-0.20461-0.21167-0.32808-0.47272-0.32808-0.20461 0-0.38453 0.127-0.5327 0.28928h-0.0106l-0.0247-0.24694h-0.23989z"/>
    <path d="m123.01 32.785c0.15875 0.12347 0.3175 0.19756 0.47625 0.19756 0.39158 0 0.74083-0.34219 0.74083-0.92428 0-0.53269-0.23636-0.87489-0.67733-0.87489-0.20108 0-0.39158 0.10936-0.5468 0.23989h-0.0106l-0.0247-0.19756h-0.23989v2.4377h0.28928v-0.57855zm7e-3 -0.22578v-0.89958c0.16933-0.15169 0.31397-0.23283 0.45861-0.23283 0.32455 0 0.45155 0.254 0.45155 0.63147 0 0.42333-0.20814 0.68086-0.49036 0.68086-0.11289 0-0.26458-0.04939-0.4198-0.17992z"/>
    <path d="m124.56 32.087c0 0.56797 0.37394 0.89605 0.79375 0.89605 0.4198 0 0.79375-0.32808 0.79375-0.89605 0-0.57503-0.37395-0.90311-0.79375-0.90311-0.41981 0-0.79375 0.32808-0.79375 0.90311zm0.29986 0c0-0.39511 0.20108-0.66322 0.49389-0.66322 0.29633 0 0.49389 0.26811 0.49389 0.66322 0 0.39158-0.19756 0.65616-0.49389 0.65616-0.29281 0-0.49389-0.26458-0.49389-0.65616z"/>
    <path d="m126.6 32.941h0.28928v-1.2418c0.17286-0.17286 0.2928-0.26458 0.46919-0.26458 0.22578 0 0.32455 0.13758 0.32455 0.45861v1.0477h0.28928v-1.0866c0-0.43744-0.16228-0.67028-0.52211-0.67028-0.23636 0-0.41275 0.127-0.57503 0.28928h-0.0106l-0.0247-0.24694h-0.23989z"/>
    <path d="m128.4 32.087c0 0.56092 0.36336 0.89605 0.82197 0.89605 0.23283 0 0.41627-0.08114 0.56444-0.17639l-0.1023-0.1905c-0.127 0.08114-0.26459 0.13406-0.42686 0.13406-0.32809 0-0.55034-0.23283-0.5715-0.60325h1.1571c7e-3 -0.04233 0.0106-0.09878 0.0106-0.15875 0-0.49036-0.24695-0.80433-0.68439-0.80433-0.39158 0-0.76905 0.34219-0.76905 0.90311zm0.28222-0.13053c0.0353-0.34572 0.254-0.54328 0.49389-0.54328 0.26811 0 0.42333 0.19403 0.42333 0.54328z"/>
    <path d="m130.28 32.941h0.28928v-1.2418c0.17286-0.17286 0.2928-0.26458 0.46919-0.26458 0.22578 0 0.32456 0.13758 0.32456 0.45861v1.0477h0.28927v-1.0866c0-0.43744-0.16227-0.67028-0.52211-0.67028-0.23636 0-0.41275 0.127-0.57502 0.28928h-0.0106l-0.0247-0.24694h-0.23989z"/>
    <path d="m132.26 32.411c0 0.33867 0.12347 0.5715 0.49036 0.5715 0.10583 0 0.22225-0.03175 0.3175-0.0635l-0.0565-0.21872c-0.0564 0.02117-0.13405 0.04586-0.19402 0.04586-0.19756 0-0.26459-0.11994-0.26459-0.33161v-0.9525h0.46214v-0.23636h-0.46214v-0.47978h-0.24341l-0.0353 0.47978-0.26811 0.01764v0.21872h0.254z"/>
   </g>
   <path d="m79.251 27.649-1.0669 0.95591v6.1452l1.0669 0.95591h8.4496l1.0669-0.95591v-6.1452l-1.0669-0.95591z" fill="#1d232d" stroke="#ff867f" stroke-miterlimit="22" stroke-width=".26458"/>
  </g>
  <path d="m79.277 27.649-1.0925 0.95591 4.7796 2.7595h1.0242l4.7796-2.7595-1.0925-0.95591z" fill="#ff867f"/>
  <g transform="matrix(-.0021183 -.003669 .0037318 -.0021545 89.608 33.365)" fill="#47d58a" stroke-width="123.85">
   <g fill="#47d58a" stroke-width="123.85">
    <path d="m486.41 221.41-364.07-208.5c-52.938-30.318-95.852-5.44-95.852 55.563v415.65c0 61.004 42.914 85.882 95.852 55.563l364.07-208.49c52.938-30.317 52.938-79.473 0-109.79z" fill="#47d58a" stroke-width="123.85"/>
   </g>
  </g>
  <path d="m79.251 63.632-1.0669 0.95591v6.1452l1.0669 0.95591h8.4496l1.0669-0.95591v-6.1452l-1.0669-0.95591z" fill="#1d232d" stroke="#ff867f" stroke-linecap="round" stroke-miterlimit="22" stroke-width=".26458"/>
  <path d="m79.277 63.632-1.0925 0.95591 4.7796 2.7595h1.0242l4.7796-2.7595-1.0925-0.95591z" fill="#ff867f"/>
  <g transform="matrix(-.0021183 -.003669 .0037318 -.0021545 89.608 69.349)" fill="#47d58a" stroke-width="123.85">
   <g fill="#47d58a" stroke-width="123.85">
    <path d="m486.41 221.41-364.07-208.5c-52.938-30.318-95.852-5.44-95.852 55.563v415.65c0 61.004 42.914 85.882 95.852 55.563l364.07-208.49c52.938-30.317 52.938-79.473 0-109.79z" fill="#47d58a" stroke-width="123.85"/>
   </g>
  </g>
  <path d="m146.98 41.936h-44.979v15.875h44.979z" fill="#1d232d" stroke="#47d58a" stroke-linecap="round" stroke-width=".26458"/>
  <rect transform="scale(-1,1)" x="-101.86" y="44.582" width="18.521" height="10.583" fill="#1d232d"/>
 </g>
 <g stroke-width=".26458">
  <path d="m101.73 44.582h-18.256" fill="none" stroke="#47d58a" stroke-linecap="square" stroke-miterlimit="22"/>
  <path d="m101.73 55.166h-18.256" fill="none" stroke="#47d58a" stroke-linecap="square" stroke-miterlimit="22"/>
  <g fill="#e8eaec" stroke-linecap="round" aria-label="Component">
   <path d="m115.78 49.775c0 0.75494 0.43392 1.1994 1.016 1.1994 0.2928 0 0.52211-0.12347 0.70203-0.33514l-0.16581-0.17992c-0.14817 0.1658-0.31044 0.25753-0.52916 0.25753-0.44098 0-0.71967-0.36689-0.71967-0.94897 0-0.57503 0.29281-0.93486 0.73378-0.93486 0.1905 0 0.33866 0.08467 0.46213 0.21519l0.16581-0.18697c-0.13758-0.15169-0.35631-0.28575-0.63147-0.28575-0.59267 0-1.0336 0.45508-1.0336 1.1994z"/>
   <path d="m117.77 50.079c0 0.56797 0.37394 0.89605 0.79375 0.89605 0.4198 0 0.79375-0.32808 0.79375-0.89605 0-0.57503-0.37395-0.90311-0.79375-0.90311-0.41981 0-0.79375 0.32808-0.79375 0.90311zm0.29986 0c0-0.39511 0.20108-0.66322 0.49389-0.66322 0.29633 0 0.49388 0.26811 0.49388 0.66322 0 0.39158-0.19755 0.65616-0.49388 0.65616-0.29281 0-0.49389-0.26458-0.49389-0.65616z"/>
   <path d="m119.81 50.932h0.28927v-1.2418c0.15875-0.17639 0.30339-0.26458 0.43039-0.26458 0.21872 0 0.32103 0.13758 0.32103 0.45861v1.0477h0.28928v-1.2418c0.15875-0.17639 0.29633-0.26458 0.43038-0.26458 0.2152 0 0.3175 0.13758 0.3175 0.45861v1.0477h0.28928v-1.0866c0-0.43744-0.16933-0.67028-0.52211-0.67028-0.20814 0-0.38453 0.13406-0.56444 0.32808-0.0706-0.20461-0.21167-0.32808-0.47272-0.32808-0.20461 0-0.38453 0.127-0.5327 0.28928h-0.0106l-0.0247-0.24694h-0.23989z"/>
   <path d="m123.01 50.777c0.15875 0.12347 0.3175 0.19756 0.47625 0.19756 0.39158 0 0.74083-0.34219 0.74083-0.92428 0-0.53269-0.23636-0.87489-0.67733-0.87489-0.20108 0-0.39158 0.10936-0.5468 0.23989h-0.0106l-0.0247-0.19756h-0.23989v2.4377h0.28928v-0.57855zm7e-3 -0.22578v-0.89958c0.16933-0.15169 0.31397-0.23283 0.45861-0.23283 0.32455 0 0.45155 0.254 0.45155 0.63147 0 0.42333-0.20814 0.68086-0.49036 0.68086-0.11289 0-0.26458-0.04939-0.4198-0.17992z"/>
   <path d="m124.56 50.079c0 0.56797 0.37394 0.89605 0.79375 0.89605 0.4198 0 0.79375-0.32808 0.79375-0.89605 0-0.57503-0.37395-0.90311-0.79375-0.90311-0.41981 0-0.79375 0.32808-0.79375 0.90311zm0.29986 0c0-0.39511 0.20108-0.66322 0.49389-0.66322 0.29633 0 0.49389 0.26811 0.49389 0.66322 0 0.39158-0.19756 0.65616-0.49389 0.65616-0.29281 0-0.49389-0.26458-0.49389-0.65616z"/>
   <path d="m126.6 50.932h0.28928v-1.2418c0.17286-0.17286 0.2928-0.26458 0.46919-0.26458 0.22578 0 0.32455 0.13758 0.32455 0.45861v1.0477h0.28928v-1.0866c0-0.43744-0.16228-0.67028-0.52211-0.67028-0.23636 0-0.41275 0.127-0.57503 0.28928h-0.0106l-0.0247-0.24694h-0.23989z"/>
   <path d="m128.4 50.079c0 0.56092 0.36336 0.89605 0.82197 0.89605 0.23283 0 0.41627-0.08114 0.56444-0.17639l-0.1023-0.1905c-0.127 0.08114-0.26459 0.13406-0.42686 0.13406-0.32809 0-0.55034-0.23283-0.5715-0.60325h1.1571c7e-3 -0.04233 0.0106-0.09878 0.0106-0.15875 0-0.49036-0.24695-0.80433-0.68439-0.80433-0.39158 0-0.76905 0.34219-0.76905 0.90311zm0.28222-0.13053c0.0353-0.34572 0.254-0.54328 0.49389-0.54328 0.26811 0 0.42333 0.19403 0.42333 0.54328z"/>
   <path d="m130.28 50.932h0.28928v-1.2418c0.17286-0.17286 0.2928-0.26458 0.46919-0.26458 0.22578 0 0.32456 0.13758 0.32456 0.45861v1.0477h0.28927v-1.0866c0-0.43744-0.16227-0.67028-0.52211-0.67028-0.23636 0-0.41275 0.127-0.57502 0.28928h-0.0106l-0.0247-0.24694h-0.23989z"/>
   <path d="m132.26 50.403c0 0.33867 0.12347 0.5715 0.49036 0.5715 0.10583 0 0.22225-0.03175 0.3175-0.0635l-0.0565-0.21872c-0.0564 0.02117-0.13405 0.04586-0.19402 0.04586-0.19756 0-0.26459-0.11994-0.26459-0.33161v-0.9525h0.46214v-0.23636h-0.46214v-0.47978h-0.24341l-0.0353 0.47978-0.26811 0.01764v0.21872h0.254z"/>
  </g>
 </g>
 <g fill="#1d232d">
  <rect x="63.632" y="83.476" width="19.844" height="48.948" stroke="#47d58a" stroke-linecap="round" stroke-width=".26458"/>
  <path d="m0.13229 82.153h44.979v15.875h-44.979z" stroke="#47d58a" stroke-linecap="round" stroke-width=".26458"/>
  <rect x="45.244" y="84.799" width="18.521" height="10.583"/>
 </g>
 <path d="m45.376 84.799h18.256" fill="none" stroke="#47d58a" stroke-linecap="square" stroke-miterlimit="22" stroke-width=".26458"/>
 <path d="m45.376 95.382h18.256" fill="none" stroke="#47d58a" stroke-linecap="square" stroke-miterlimit="22" stroke-width=".26458"/>
 <g>
  <g fill="#e8eaec" stroke-linecap="round" stroke-width=".26458" aria-label="Component">
   <path d="m14.041 89.992c0 0.75494 0.43392 1.1994 1.016 1.1994 0.2928 0 0.52211-0.12347 0.70203-0.33514l-0.1658-0.17992c-0.14817 0.1658-0.31044 0.25753-0.52917 0.25753-0.44097 0-0.71966-0.36689-0.71966-0.94897 0-0.57503 0.2928-0.93486 0.73378-0.93486 0.1905 0 0.33867 0.08467 0.46214 0.21519l0.1658-0.18697c-0.13758-0.15169-0.3563-0.28575-0.63147-0.28575-0.59267 0-1.0336 0.45508-1.0336 1.1994z"/>
   <path d="m16.028 90.295c0 0.56797 0.37394 0.89605 0.79375 0.89605 0.4198 0 0.79375-0.32808 0.79375-0.89605 0-0.57503-0.37394-0.90311-0.79375-0.90311-0.4198 0-0.79375 0.32808-0.79375 0.90311zm0.29986 0c0-0.39511 0.20108-0.66322 0.49389-0.66322 0.29633 0 0.49389 0.26811 0.49389 0.66322 0 0.39158-0.19756 0.65616-0.49389 0.65616-0.2928 0-0.49389-0.26458-0.49389-0.65616z"/>
   <path d="m18.071 91.149h0.28928v-1.2418c0.15875-0.17639 0.30339-0.26458 0.43039-0.26458 0.21872 0 0.32103 0.13758 0.32103 0.45861v1.0477h0.28928v-1.2418c0.15875-0.17639 0.29633-0.26458 0.43039-0.26458 0.21519 0 0.3175 0.13758 0.3175 0.45861v1.0477h0.28928v-1.0866c0-0.43744-0.16933-0.67028-0.52211-0.67028-0.20814 0-0.38453 0.13406-0.56444 0.32808-0.07055-0.20461-0.21167-0.32808-0.47272-0.32808-0.20461 0-0.38453 0.127-0.53269 0.28928h-0.01058l-0.0247-0.24694h-0.23989z"/>
   <path d="m21.274 90.994c0.15875 0.12347 0.3175 0.19756 0.47625 0.19756 0.39158 0 0.74083-0.34219 0.74083-0.92428 0-0.53269-0.23636-0.87489-0.67733-0.87489-0.20108 0-0.39158 0.10936-0.5468 0.23989h-0.01058l-0.0247-0.19756h-0.23989v2.4377h0.28928v-0.57855zm0.0071-0.22578v-0.89958c0.16933-0.15169 0.31397-0.23283 0.45861-0.23283 0.32456 0 0.45156 0.254 0.45156 0.63147 0 0.42333-0.20814 0.68086-0.49036 0.68086-0.11289 0-0.26458-0.04939-0.4198-0.17992z"/>
   <path d="m22.822 90.295c0 0.56797 0.37394 0.89605 0.79375 0.89605 0.4198 0 0.79375-0.32808 0.79375-0.89605 0-0.57503-0.37394-0.90311-0.79375-0.90311-0.4198 0-0.79375 0.32808-0.79375 0.90311zm0.29986 0c0-0.39511 0.20108-0.66322 0.49389-0.66322 0.29633 0 0.49389 0.26811 0.49389 0.66322 0 0.39158-0.19756 0.65616-0.49389 0.65616-0.2928 0-0.49389-0.26458-0.49389-0.65616z"/>
   <path d="m24.864 91.149h0.28928v-1.2418c0.17286-0.17286 0.2928-0.26458 0.46919-0.26458 0.22578 0 0.32455 0.13758 0.32455 0.45861v1.0477h0.28928v-1.0866c0-0.43744-0.16228-0.67028-0.52211-0.67028-0.23636 0-0.41275 0.127-0.57503 0.28928h-0.01058l-0.02469-0.24694h-0.2399z"/>
   <path d="m26.667 90.295c0 0.56092 0.36336 0.89605 0.82197 0.89605 0.23283 0 0.41628-0.08114 0.56444-0.17639l-0.10231-0.1905c-0.127 0.08114-0.26458 0.13406-0.42686 0.13406-0.32808 0-0.55033-0.23283-0.5715-0.60325h1.1571c0.0071-0.04233 0.01058-0.09878 0.01058-0.15875 0-0.49036-0.24694-0.80433-0.68439-0.80433-0.39158 0-0.76905 0.34219-0.76905 0.90311zm0.28222-0.13053c0.03528-0.34572 0.254-0.54328 0.49389-0.54328 0.26811 0 0.42333 0.19403 0.42333 0.54328z"/>
   <path d="m28.544 91.149h0.28928v-1.2418c0.17286-0.17286 0.2928-0.26458 0.46919-0.26458 0.22578 0 0.32456 0.13758 0.32456 0.45861v1.0477h0.28928v-1.0866c0-0.43744-0.16228-0.67028-0.52211-0.67028-0.23636 0-0.41275 0.127-0.57503 0.28928h-0.01058l-0.0247-0.24694h-0.23989z"/>
   <path d="m30.522 90.62c0 0.33867 0.12347 0.5715 0.49036 0.5715 0.10583 0 0.22225-0.03175 0.3175-0.0635l-0.05645-0.21872c-0.05644 0.02117-0.13406 0.04586-0.19403 0.04586-0.19756 0-0.26458-0.11994-0.26458-0.33161v-0.9525h0.46214v-0.23636h-0.46214v-0.47978h-0.24342l-0.03528 0.47978-0.26811 0.01764v0.21872h0.254z"/>
  </g>
  <path d="m146.98 118.14h-44.979v15.875h44.979z" fill="#1d232d" stroke="#ff867f" stroke-linecap="round" stroke-width=".26458"/>
  <rect transform="scale(-1,1)" x="-101.86" y="120.78" width="18.521" height="10.583" fill="#1d232d"/>
 </g>
 <g stroke-width=".26458">
  <path d="m101.73 120.78h-18.256" fill="none" stroke="#47d58a" stroke-linecap="square" stroke-miterlimit="22"/>
  <path d="m101.73 131.37h-18.256" fill="none" stroke="#47d58a" stroke-linecap="square" stroke-miterlimit="22"/>
  <g fill="#e8eaec" stroke-linecap="round" aria-label="Component">
   <path d="m115.78 125.98c0 0.75494 0.43392 1.1994 1.016 1.1994 0.2928 0 0.52211-0.12347 0.70203-0.33514l-0.16581-0.17992c-0.14817 0.16581-0.31044 0.25753-0.52916 0.25753-0.44098 0-0.71967-0.36689-0.71967-0.94897 0-0.57503 0.29281-0.93486 0.73378-0.93486 0.1905 0 0.33866 0.0847 0.46213 0.2152l0.16581-0.18698c-0.13758-0.15169-0.35631-0.28575-0.63147-0.28575-0.59267 0-1.0336 0.45509-1.0336 1.1994z"/>
   <path d="m117.77 126.28c0 0.56797 0.37394 0.89606 0.79375 0.89606 0.4198 0 0.79375-0.32809 0.79375-0.89606 0-0.57502-0.37395-0.90311-0.79375-0.90311-0.41981 0-0.79375 0.32809-0.79375 0.90311zm0.29986 0c0-0.39511 0.20108-0.66322 0.49389-0.66322 0.29633 0 0.49388 0.26811 0.49388 0.66322 0 0.39159-0.19755 0.65617-0.49388 0.65617-0.29281 0-0.49389-0.26458-0.49389-0.65617z"/>
   <path d="m119.81 127.13h0.28927v-1.2418c0.15875-0.17639 0.30339-0.26458 0.43039-0.26458 0.21872 0 0.32103 0.13758 0.32103 0.45861v1.0477h0.28928v-1.2418c0.15875-0.17639 0.29633-0.26458 0.43038-0.26458 0.2152 0 0.3175 0.13758 0.3175 0.45861v1.0477h0.28928v-1.0866c0-0.43744-0.16933-0.67028-0.52211-0.67028-0.20814 0-0.38453 0.13406-0.56444 0.32809-0.0706-0.20461-0.21167-0.32809-0.47272-0.32809-0.20461 0-0.38453 0.127-0.5327 0.28928h-0.0106l-0.0247-0.24694h-0.23989z"/>
   <path d="m123.01 126.98c0.15875 0.12347 0.3175 0.19756 0.47625 0.19756 0.39158 0 0.74083-0.3422 0.74083-0.92428 0-0.53269-0.23636-0.87489-0.67733-0.87489-0.20108 0-0.39158 0.10937-0.5468 0.23989h-0.0106l-0.0247-0.19755h-0.23989v2.4377h0.28928v-0.57856zm7e-3 -0.22578v-0.89958c0.16933-0.15169 0.31397-0.23283 0.45861-0.23283 0.32455 0 0.45155 0.254 0.45155 0.63147 0 0.42333-0.20814 0.68086-0.49036 0.68086-0.11289 0-0.26458-0.0494-0.4198-0.17992z"/>
   <path d="m124.56 126.28c0 0.56797 0.37394 0.89606 0.79375 0.89606 0.4198 0 0.79375-0.32809 0.79375-0.89606 0-0.57502-0.37395-0.90311-0.79375-0.90311-0.41981 0-0.79375 0.32809-0.79375 0.90311zm0.29986 0c0-0.39511 0.20108-0.66322 0.49389-0.66322 0.29633 0 0.49389 0.26811 0.49389 0.66322 0 0.39159-0.19756 0.65617-0.49389 0.65617-0.29281 0-0.49389-0.26458-0.49389-0.65617z"/>
   <path d="m126.6 127.13h0.28928v-1.2418c0.17286-0.17286 0.2928-0.26458 0.46919-0.26458 0.22578 0 0.32455 0.13758 0.32455 0.45861v1.0477h0.28928v-1.0866c0-0.43744-0.16228-0.67028-0.52211-0.67028-0.23636 0-0.41275 0.127-0.57503 0.28928h-0.0106l-0.0247-0.24694h-0.23989z"/>
   <path d="m128.4 126.28c0 0.56092 0.36336 0.89606 0.82197 0.89606 0.23283 0 0.41627-0.0811 0.56444-0.17639l-0.1023-0.1905c-0.127 0.0811-0.26459 0.13405-0.42686 0.13405-0.32809 0-0.55034-0.23283-0.5715-0.60324h1.1571c7e-3 -0.0423 0.0106-0.0988 0.0106-0.15875 0-0.49036-0.24695-0.80434-0.68439-0.80434-0.39158 0-0.76905 0.3422-0.76905 0.90311zm0.28222-0.13052c0.0353-0.34573 0.254-0.54328 0.49389-0.54328 0.26811 0 0.42333 0.19403 0.42333 0.54328z"/>
   <path d="m130.28 127.13h0.28928v-1.2418c0.17286-0.17286 0.2928-0.26458 0.46919-0.26458 0.22578 0 0.32456 0.13758 0.32456 0.45861v1.0477h0.28927v-1.0866c0-0.43744-0.16227-0.67028-0.52211-0.67028-0.23636 0-0.41275 0.127-0.57502 0.28928h-0.0106l-0.0247-0.24694h-0.23989z"/>
   <path d="m132.26 126.6c0 0.33866 0.12347 0.5715 0.49036 0.5715 0.10583 0 0.22225-0.0317 0.3175-0.0635l-0.0565-0.21872c-0.0564 0.0212-0.13405 0.0459-0.19402 0.0459-0.19756 0-0.26459-0.11995-0.26459-0.33161v-0.9525h0.46214v-0.23636h-0.46214v-0.47978h-0.24341l-0.0353 0.47978-0.26811 0.0176v0.21872h0.254z"/>
  </g>
 </g>
 <rect transform="scale(-1,1)" x="-101.86" y="84.799" width="18.521" height="10.583" fill="#1d232d"/>
 <path d="m101.73 84.799h-18.256" fill="none" stroke="#47d58a" stroke-linecap="square" stroke-miterlimit="22" stroke-width=".26458"/>
 <path d="m101.73 95.382h-18.256" fill="none" stroke="#47d58a" stroke-linecap="square" stroke-miterlimit="22" stroke-width=".26458"/>
 <g>
  <path d="m50.147 85.857-1.0669 0.95591v6.1452l1.0669 0.95592h8.4496l1.0669-0.95592v-6.1452l-1.0669-0.95591z" fill="#1d232d" stroke="#47d58a" stroke-linecap="round" stroke-miterlimit="22" stroke-width=".26458"/>
  <path d="m50.173 85.857-1.0925 0.95591 4.7796 2.7595h1.0242l4.7796-2.7595-1.0925-0.95591z" fill="#47d58a"/>
  <g transform="matrix(-.0021183 -.003669 .0037318 -.0021545 60.503 91.574)" fill="#47d58a" stroke-width="123.85">
   <g fill="#47d58a" stroke-width="123.85">
    <path d="m486.41 221.41-364.07-208.5c-52.938-30.318-95.852-5.44-95.852 55.563v415.65c0 61.004 42.914 85.882 95.852 55.563l364.07-208.49c52.938-30.317 52.938-79.473 0-109.79z" fill="#47d58a" stroke-width="123.85"/>
   </g>
  </g>
  <g stroke-linecap="round">
   <path d="m146.98 82.153h-44.979v15.875h44.979z" fill="#1d232d" stroke="#ff867f" stroke-width=".26458"/>
   <g fill="#e8eaec" stroke-width=".26458" aria-label="Component">
    <path d="m115.78 89.992c0 0.75494 0.43392 1.1994 1.016 1.1994 0.2928 0 0.52211-0.12347 0.70203-0.33514l-0.16581-0.17992c-0.14817 0.1658-0.31044 0.25753-0.52916 0.25753-0.44098 0-0.71967-0.36689-0.71967-0.94897 0-0.57503 0.29281-0.93486 0.73378-0.93486 0.1905 0 0.33866 0.08467 0.46213 0.21519l0.16581-0.18697c-0.13758-0.15169-0.35631-0.28575-0.63147-0.28575-0.59267 0-1.0336 0.45508-1.0336 1.1994z"/>
    <path d="m117.77 90.295c0 0.56797 0.37394 0.89605 0.79375 0.89605 0.4198 0 0.79375-0.32808 0.79375-0.89605 0-0.57503-0.37395-0.90311-0.79375-0.90311-0.41981 0-0.79375 0.32808-0.79375 0.90311zm0.29986 0c0-0.39511 0.20108-0.66322 0.49389-0.66322 0.29633 0 0.49388 0.26811 0.49388 0.66322 0 0.39158-0.19755 0.65616-0.49388 0.65616-0.29281 0-0.49389-0.26458-0.49389-0.65616z"/>
    <path d="m119.81 91.149h0.28927v-1.2418c0.15875-0.17639 0.30339-0.26458 0.43039-0.26458 0.21872 0 0.32103 0.13758 0.32103 0.45861v1.0477h0.28928v-1.2418c0.15875-0.17639 0.29633-0.26458 0.43038-0.26458 0.2152 0 0.3175 0.13758 0.3175 0.45861v1.0477h0.28928v-1.0866c0-0.43744-0.16933-0.67028-0.52211-0.67028-0.20814 0-0.38453 0.13406-0.56444 0.32808-0.0706-0.20461-0.21167-0.32808-0.47272-0.32808-0.20461 0-0.38453 0.127-0.5327 0.28928h-0.0106l-0.0247-0.24694h-0.23989z"/>
    <path d="m123.01 90.994c0.15875 0.12347 0.3175 0.19756 0.47625 0.19756 0.39158 0 0.74083-0.34219 0.74083-0.92428 0-0.53269-0.23636-0.87489-0.67733-0.87489-0.20108 0-0.39158 0.10936-0.5468 0.23989h-0.0106l-0.0247-0.19756h-0.23989v2.4377h0.28928v-0.57855zm7e-3 -0.22578v-0.89958c0.16933-0.15169 0.31397-0.23283 0.45861-0.23283 0.32455 0 0.45155 0.254 0.45155 0.63147 0 0.42333-0.20814 0.68086-0.49036 0.68086-0.11289 0-0.26458-0.04939-0.4198-0.17992z"/>
    <path d="m124.56 90.295c0 0.56797 0.37394 0.89605 0.79375 0.89605 0.4198 0 0.79375-0.32808 0.79375-0.89605 0-0.57503-0.37395-0.90311-0.79375-0.90311-0.41981 0-0.79375 0.32808-0.79375 0.90311zm0.29986 0c0-0.39511 0.20108-0.66322 0.49389-0.66322 0.29633 0 0.49389 0.26811 0.49389 0.66322 0 0.39158-0.19756 0.65616-0.49389 0.65616-0.29281 0-0.49389-0.26458-0.49389-0.65616z"/>
    <path d="m126.6 91.149h0.28928v-1.2418c0.17286-0.17286 0.2928-0.26458 0.46919-0.26458 0.22578 0 0.32455 0.13758 0.32455 0.45861v1.0477h0.28928v-1.0866c0-0.43744-0.16228-0.67028-0.52211-0.67028-0.23636 0-0.41275 0.127-0.57503 0.28928h-0.0106l-0.0247-0.24694h-0.23989z"/>
    <path d="m128.4 90.295c0 0.56092 0.36336 0.89605 0.82197 0.89605 0.23283 0 0.41627-0.08114 0.56444-0.17639l-0.1023-0.1905c-0.127 0.08114-0.26459 0.13406-0.42686 0.13406-0.32809 0-0.55034-0.23283-0.5715-0.60325h1.1571c7e-3 -0.04233 0.0106-0.09878 0.0106-0.15875 0-0.49036-0.24695-0.80433-0.68439-0.80433-0.39158 0-0.76905 0.34219-0.76905 0.90311zm0.28222-0.13053c0.0353-0.34572 0.254-0.54328 0.49389-0.54328 0.26811 0 0.42333 0.19403 0.42333 0.54328z"/>
    <path d="m130.28 91.149h0.28928v-1.2418c0.17286-0.17286 0.2928-0.26458 0.46919-0.26458 0.22578 0 0.32456 0.13758 0.32456 0.45861v1.0477h0.28927v-1.0866c0-0.43744-0.16227-0.67028-0.52211-0.67028-0.23636 0-0.41275 0.127-0.57502 0.28928h-0.0106l-0.0247-0.24694h-0.23989z"/>
    <path d="m132.26 90.62c0 0.33867 0.12347 0.5715 0.49036 0.5715 0.10583 0 0.22225-0.03175 0.3175-0.0635l-0.0565-0.21872c-0.0564 0.02117-0.13405 0.04586-0.19402 0.04586-0.19756 0-0.26459-0.11994-0.26459-0.33161v-0.9525h0.46214v-0.23636h-0.46214v-0.47978h-0.24341l-0.0353 0.47978-0.26811 0.01764v0.21872h0.254z"/>
   </g>
   <path d="m79.251 85.857-1.0669 0.95591v6.1452l1.0669 0.95592h8.4496l1.0669-0.95592v-6.1452l-1.0669-0.95591z" fill="#1d232d" stroke="#47d58a" stroke-miterlimit="22" stroke-width=".26458"/>
  </g>
  <path d="m79.277 85.857-1.0925 0.95591 4.7796 2.7595h1.0242l4.7796-2.7595-1.0925-0.95591z" fill="#47d58a"/>
  <g transform="matrix(-.0021183 -.003669 .0037318 -.0021545 89.608 91.574)" fill="#47d58a" stroke-width="123.85">
   <g fill="#47d58a" stroke-width="123.85">
    <path d="m486.41 221.41-364.07-208.5c-52.938-30.318-95.852-5.44-95.852 55.563v415.65c0 61.004 42.914 85.882 95.852 55.563l364.07-208.49c52.938-30.317 52.938-79.473 0-109.79z" fill="#47d58a" stroke-width="123.85"/>
   </g>
  </g>
  <path d="m79.251 121.84-1.0669 0.95591v6.1452l1.0669 0.95592h8.4496l1.0669-0.95592v-6.1452l-1.0669-0.95591z" fill="#1d232d" stroke="#47d58a" stroke-linecap="round" stroke-miterlimit="22" stroke-width=".26458"/>
  <path d="m79.277 121.84-1.0925 0.95591 4.7796 2.7595h1.0242l4.7796-2.7595-1.0925-0.95591z" fill="#47d58a"/>
  <g transform="matrix(-.0021183 -.003669 .0037318 -.0021545 89.608 127.56)" fill="#47d58a" stroke-width="123.85">
   <g fill="#47d58a" stroke-width="123.85">
    <path d="m486.41 221.41-364.07-208.5c-52.938-30.318-95.852-5.44-95.852 55.563v415.65c0 61.004 42.914 85.882 95.852 55.563l364.07-208.49c52.938-30.317 52.938-79.473 0-109.79z" fill="#47d58a" stroke-width="123.85"/>
   </g>
  </g>
  <path d="m146.98 100.14h-44.979v15.875h44.979z" fill="#1d232d" stroke="#47d58a" stroke-linecap="round" stroke-width=".26458"/>
  <rect transform="scale(-1,1)" x="-101.86" y="102.79" width="18.521" height="10.583" fill="#1d232d"/>
 </g>
 <path d="m101.73 102.79h-18.256" fill="none" stroke="#47d58a" stroke-linecap="square" stroke-miterlimit="22" stroke-width=".26458"/>
 <path d="m101.73 113.37h-18.256" fill="none" stroke="#47d58a" stroke-linecap="square" stroke-miterlimit="22" stroke-width=".26458"/>
 <g>
  <g fill="#e8eaec" stroke-linecap="round" stroke-width=".26458" aria-label="Component">
   <path d="m115.78 107.98c0 0.75494 0.43392 1.1994 1.016 1.1994 0.2928 0 0.52211-0.12347 0.70203-0.33514l-0.16581-0.17991c-0.14817 0.1658-0.31044 0.25752-0.52916 0.25752-0.44098 0-0.71967-0.36688-0.71967-0.94897 0-0.57502 0.29281-0.93486 0.73378-0.93486 0.1905 0 0.33866 0.0847 0.46213 0.2152l0.16581-0.18697c-0.13758-0.1517-0.35631-0.28575-0.63147-0.28575-0.59267 0-1.0336 0.45508-1.0336 1.1994z"/>
   <path d="m117.77 108.29c0 0.56797 0.37394 0.89605 0.79375 0.89605 0.4198 0 0.79375-0.32808 0.79375-0.89605 0-0.57503-0.37395-0.90311-0.79375-0.90311-0.41981 0-0.79375 0.32808-0.79375 0.90311zm0.29986 0c0-0.39511 0.20108-0.66322 0.49389-0.66322 0.29633 0 0.49388 0.26811 0.49388 0.66322 0 0.39158-0.19755 0.65616-0.49388 0.65616-0.29281 0-0.49389-0.26458-0.49389-0.65616z"/>
   <path d="m119.81 109.14h0.28927v-1.2418c0.15875-0.17639 0.30339-0.26458 0.43039-0.26458 0.21872 0 0.32103 0.13758 0.32103 0.45861v1.0478h0.28928v-1.2418c0.15875-0.17639 0.29633-0.26458 0.43038-0.26458 0.2152 0 0.3175 0.13758 0.3175 0.45861v1.0478h0.28928v-1.0866c0-0.43744-0.16933-0.67027-0.52211-0.67027-0.20814 0-0.38453 0.13405-0.56444 0.32808-0.0706-0.20461-0.21167-0.32808-0.47272-0.32808-0.20461 0-0.38453 0.127-0.5327 0.28928h-0.0106l-0.0247-0.24695h-0.23989z"/>
   <path d="m123.01 108.99c0.15875 0.12347 0.3175 0.19755 0.47625 0.19755 0.39158 0 0.74083-0.34219 0.74083-0.92427 0-0.5327-0.23636-0.87489-0.67733-0.87489-0.20108 0-0.39158 0.10936-0.5468 0.23989h-0.0106l-0.0247-0.19756h-0.23989v2.4377h0.28928v-0.57855zm7e-3 -0.22578v-0.89958c0.16933-0.1517 0.31397-0.23284 0.45861-0.23284 0.32455 0 0.45155 0.254 0.45155 0.63148 0 0.42333-0.20814 0.68085-0.49036 0.68085-0.11289 0-0.26458-0.0494-0.4198-0.17991z"/>
   <path d="m124.56 108.29c0 0.56797 0.37394 0.89605 0.79375 0.89605 0.4198 0 0.79375-0.32808 0.79375-0.89605 0-0.57503-0.37395-0.90311-0.79375-0.90311-0.41981 0-0.79375 0.32808-0.79375 0.90311zm0.29986 0c0-0.39511 0.20108-0.66322 0.49389-0.66322 0.29633 0 0.49389 0.26811 0.49389 0.66322 0 0.39158-0.19756 0.65616-0.49389 0.65616-0.29281 0-0.49389-0.26458-0.49389-0.65616z"/>
   <path d="m126.6 109.14h0.28928v-1.2418c0.17286-0.17286 0.2928-0.26458 0.46919-0.26458 0.22578 0 0.32455 0.13758 0.32455 0.45861v1.0478h0.28928v-1.0866c0-0.43744-0.16228-0.67027-0.52211-0.67027-0.23636 0-0.41275 0.127-0.57503 0.28928h-0.0106l-0.0247-0.24695h-0.23989z"/>
   <path d="m128.4 108.29c0 0.56091 0.36336 0.89605 0.82197 0.89605 0.23283 0 0.41627-0.0811 0.56444-0.17639l-0.1023-0.1905c-0.127 0.0811-0.26459 0.13406-0.42686 0.13406-0.32809 0-0.55034-0.23283-0.5715-0.60325h1.1571c7e-3 -0.0423 0.0106-0.0988 0.0106-0.15875 0-0.49036-0.24695-0.80433-0.68439-0.80433-0.39158 0-0.76905 0.34219-0.76905 0.90311zm0.28222-0.13053c0.0353-0.34572 0.254-0.54328 0.49389-0.54328 0.26811 0 0.42333 0.19403 0.42333 0.54328z"/>
   <path d="m130.28 109.14h0.28928v-1.2418c0.17286-0.17286 0.2928-0.26458 0.46919-0.26458 0.22578 0 0.32456 0.13758 0.32456 0.45861v1.0478h0.28927v-1.0866c0-0.43744-0.16227-0.67027-0.52211-0.67027-0.23636 0-0.41275 0.127-0.57502 0.28928h-0.0106l-0.0247-0.24695h-0.23989z"/>
   <path d="m132.26 108.61c0 0.33867 0.12347 0.5715 0.49036 0.5715 0.10583 0 0.22225-0.0318 0.3175-0.0635l-0.0565-0.21872c-0.0564 0.0212-0.13405 0.0459-0.19402 0.0459-0.19756 0-0.26459-0.11994-0.26459-0.33161v-0.9525h0.46214v-0.23636h-0.46214v-0.47977h-0.24341l-0.0353 0.47977-0.26811 0.0176v0.21872h0.254z"/>
  </g>
  <path d="m79.251 104.11-1.0669 0.95592v6.1452l1.0669 0.95591h8.4496l1.0669-0.95591v-6.1452l-1.0669-0.95592z" fill="#1d232d" stroke="#47d58a" stroke-linecap="round" stroke-miterlimit="22" stroke-width=".26458"/>
  <path d="m79.277 104.11-1.0925 0.95592 4.7796 2.7594h1.0242l4.7796-2.7594-1.0925-0.95592z" fill="#47d58a"/>
  <g transform="matrix(-.0021183 -.003669 .0037318 -.0021545 89.608 109.83)" fill="#47d58a" stroke-width="123.85">
   <g fill="#47d58a" stroke-width="123.85">
    <path d="m486.41 221.41-364.07-208.5c-52.938-30.318-95.852-5.44-95.852 55.563v415.65c0 61.004 42.914 85.882 95.852 55.563l364.07-208.49c52.938-30.317 52.938-79.473 0-109.79z" fill="#47d58a" stroke-width="123.85"/>
   </g>
  </g>
 </g>
</svg>
