<?xml version="1.0" encoding="UTF-8"?>
<svg width="147.11mm" height="134.14mm" version="1.1" viewBox="0 0 147.11 134.14" xmlns="http://www.w3.org/2000/svg" xmlns:cc="http://creativecommons.org/ns#" xmlns:dc="http://purl.org/dc/elements/1.1/" xmlns:rdf="http://www.w3.org/1999/02/22-rdf-syntax-ns#">
 <metadata>
  <rdf:RDF>
   <cc:Work rdf:about="">
    <dc:format>image/svg+xml</dc:format>
    <dc:type rdf:resource="http://purl.org/dc/dcmitype/StillImage"/>
    <dc:title/>
   </cc:Work>
  </rdf:RDF>
 </metadata>
 <g transform="translate(-140.13 -77.588)">
  <rect x="185.11" y="80.366" width="57.428" height="10.583" fill="#1d232d"/>
  <path d="m185.52 80.366h56.608" fill="none" stroke="#47d58a" stroke-linecap="square" stroke-miterlimit="22" stroke-width=".26458"/>
  <path d="m185.52 90.949h56.608" fill="none" stroke="#47d58a" stroke-linecap="square" stroke-miterlimit="22" stroke-width=".26458"/>
  <g>
   <g stroke-linecap="round" stroke-width=".26458">
    <path d="m140.26 77.72h44.979v15.875h-44.979z" fill="#1d232d" stroke="#009244"/>
    <g fill="#e8eaec" aria-label="Component">
     <path d="m154.17 85.559c0 0.75494 0.43392 1.1994 1.016 1.1994 0.2928 0 0.52211-0.12347 0.70202-0.33514l-0.1658-0.17992c-0.14817 0.1658-0.31045 0.25753-0.52917 0.25753-0.44097 0-0.71966-0.36689-0.71966-0.94897 0-0.57503 0.2928-0.93486 0.73377-0.93486 0.1905 0 0.33867 0.08467 0.46214 0.21519l0.16581-0.18697c-0.13759-0.15169-0.35631-0.28575-0.63147-0.28575-0.59267 0-1.0336 0.45508-1.0336 1.1994z"/>
     <path d="m156.16 85.862c0 0.56797 0.37394 0.89605 0.79375 0.89605 0.4198 0 0.79374-0.32808 0.79374-0.89605 0-0.57503-0.37394-0.90311-0.79374-0.90311-0.41981 0-0.79375 0.32808-0.79375 0.90311zm0.29986 0c0-0.39511 0.20108-0.66322 0.49389-0.66322 0.29633 0 0.49388 0.26811 0.49388 0.66322 0 0.39158-0.19755 0.65617-0.49388 0.65617-0.29281 0-0.49389-0.26458-0.49389-0.65617z"/>
     <path d="m158.2 86.716h0.28927v-1.2418c0.15875-0.17639 0.30339-0.26458 0.43039-0.26458 0.21872 0 0.32103 0.13758 0.32103 0.45861v1.0477h0.28928v-1.2418c0.15874-0.17639 0.29633-0.26458 0.43038-0.26458 0.2152 0 0.3175 0.13758 0.3175 0.45861v1.0477h0.28928v-1.0866c0-0.43744-0.16933-0.67028-0.52211-0.67028-0.20814 0-0.38453 0.13406-0.56444 0.32808-0.0706-0.20461-0.21167-0.32808-0.47272-0.32808-0.20462 0-0.38453 0.127-0.5327 0.28928h-0.0106l-0.0247-0.24694h-0.23988z"/>
     <path d="m161.41 86.561c0.15875 0.12347 0.3175 0.19756 0.47625 0.19756 0.39158 0 0.74083-0.34219 0.74083-0.92428 0-0.53269-0.23636-0.87489-0.67733-0.87489-0.20108 0-0.39158 0.10936-0.5468 0.23989h-0.0106l-0.0247-0.19756h-0.23989v2.4377h0.28928v-0.57856zm7e-3 -0.22578v-0.89958c0.16933-0.15169 0.31397-0.23283 0.45861-0.23283 0.32455 0 0.45155 0.254 0.45155 0.63147 0 0.42333-0.20814 0.68086-0.49036 0.68086-0.11289 0-0.26458-0.04939-0.4198-0.17992z"/>
     <path d="m162.95 85.862c0 0.56797 0.37394 0.89605 0.79375 0.89605 0.4198 0 0.79375-0.32808 0.79375-0.89605 0-0.57503-0.37395-0.90311-0.79375-0.90311-0.41981 0-0.79375 0.32808-0.79375 0.90311zm0.29986 0c0-0.39511 0.20108-0.66322 0.49389-0.66322 0.29633 0 0.49389 0.26811 0.49389 0.66322 0 0.39158-0.19756 0.65617-0.49389 0.65617-0.29281 0-0.49389-0.26458-0.49389-0.65617z"/>
     <path d="m165 86.716h0.28928v-1.2418c0.17286-0.17286 0.2928-0.26458 0.46919-0.26458 0.22578 0 0.32455 0.13758 0.32455 0.45861v1.0477h0.28928v-1.0866c0-0.43744-0.16228-0.67028-0.52211-0.67028-0.23636 0-0.41275 0.127-0.57502 0.28928h-0.0106l-0.0247-0.24694h-0.23989z"/>
     <path d="m166.8 85.862c0 0.56092 0.36336 0.89605 0.82197 0.89605 0.23283 0 0.41628-0.08114 0.56444-0.17639l-0.1023-0.1905c-0.127 0.08114-0.26459 0.13406-0.42686 0.13406-0.32809 0-0.55034-0.23283-0.5715-0.60325h1.1571c7e-3 -0.04233 0.0106-0.09878 0.0106-0.15875 0-0.49036-0.24694-0.80433-0.68439-0.80433-0.39158 0-0.76905 0.34219-0.76905 0.90311zm0.28222-0.13053c0.0353-0.34572 0.254-0.54328 0.49389-0.54328 0.26811 0 0.42333 0.19403 0.42333 0.54328z"/>
     <path d="m168.68 86.716h0.28928v-1.2418c0.17286-0.17286 0.29281-0.26458 0.46919-0.26458 0.22578 0 0.32456 0.13758 0.32456 0.45861v1.0477h0.28928v-1.0866c0-0.43744-0.16228-0.67028-0.52211-0.67028-0.23636 0-0.41275 0.127-0.57503 0.28928h-0.0106l-0.0247-0.24694h-0.23989z"/>
     <path d="m170.65 86.187c0 0.33867 0.12347 0.5715 0.49036 0.5715 0.10583 0 0.22225-0.03175 0.3175-0.0635l-0.0564-0.21872c-0.0565 0.02117-0.13406 0.04586-0.19403 0.04586-0.19756 0-0.26458-0.11994-0.26458-0.33161v-0.9525h0.46213v-0.23636h-0.46213v-0.47978h-0.24342l-0.0353 0.47978-0.26811 0.01764v0.21872h0.254z"/>
    </g>
    <path d="m203.51 81.424-1.0669 0.95591v6.1452l1.0669 0.95591h8.4496l1.0668-0.95591v-6.1452l-1.0668-0.95591z" fill="#1d232d" stroke="#ff867f" stroke-miterlimit="22"/>
   </g>
   <path d="m203.53 81.424-1.0925 0.95591 4.7796 2.7595h1.0242l4.7796-2.7595-1.0925-0.95591z" fill="#ff867f"/>
   <g transform="matrix(-.0021183 -.003669 .0037318 -.0021545 213.86 87.141)" fill="#47d58a" stroke-width="123.85">
    <g fill="#47d58a" stroke-width="123.85">
     <path d="m486.41 221.41-364.07-208.5c-52.938-30.318-95.852-5.44-95.852 55.563v415.65c0 61.004 42.914 85.882 95.852 55.563l364.07-208.49c52.938-30.317 52.938-79.473 0-109.79z" fill="#47d58a" stroke-width="123.85"/>
    </g>
   </g>
  </g>
  <g fill="#1d232d">
   <rect x="203.76" y="102.86" width="19.844" height="48.948" stroke="#47d58a" stroke-linecap="round" stroke-width=".26458"/>
   <path d="m140.26 101.53h44.979v15.875h-44.979z" stroke="#009244" stroke-linecap="round" stroke-width=".26458"/>
   <rect x="185.38" y="104.18" width="18.521" height="10.583"/>
  </g>
  <path d="m185.51 104.18h18.256" fill="none" stroke="#47d58a" stroke-linecap="square" stroke-miterlimit="22" stroke-width=".26458"/>
  <path d="m185.51 114.76h18.256" fill="none" stroke="#47d58a" stroke-linecap="square" stroke-miterlimit="22" stroke-width=".26458"/>
  <g>
   <g fill="#e8eaec" stroke-linecap="round" stroke-width=".26458" aria-label="Component">
    <path d="m154.17 109.37c0 0.75494 0.43392 1.1994 1.016 1.1994 0.2928 0 0.52211-0.12347 0.70202-0.33514l-0.1658-0.17991c-0.14817 0.1658-0.31045 0.25753-0.52917 0.25753-0.44097 0-0.71966-0.36689-0.71966-0.94897 0-0.57503 0.2928-0.93486 0.73377-0.93486 0.1905 0 0.33867 0.0847 0.46214 0.21519l0.16581-0.18697c-0.13759-0.1517-0.35631-0.28575-0.63147-0.28575-0.59267 0-1.0336 0.45508-1.0336 1.1994z"/>
    <path d="m156.16 109.67c0 0.56797 0.37394 0.89605 0.79375 0.89605 0.4198 0 0.79374-0.32808 0.79374-0.89605 0-0.57503-0.37394-0.90311-0.79374-0.90311-0.41981 0-0.79375 0.32808-0.79375 0.90311zm0.29986 0c0-0.39511 0.20108-0.66322 0.49389-0.66322 0.29633 0 0.49388 0.26811 0.49388 0.66322 0 0.39158-0.19755 0.65616-0.49388 0.65616-0.29281 0-0.49389-0.26458-0.49389-0.65616z"/>
    <path d="m158.2 110.53h0.28927v-1.2418c0.15875-0.17638 0.30339-0.26458 0.43039-0.26458 0.21872 0 0.32103 0.13759 0.32103 0.45861v1.0478h0.28928v-1.2418c0.15874-0.17638 0.29633-0.26458 0.43038-0.26458 0.2152 0 0.3175 0.13759 0.3175 0.45861v1.0478h0.28928v-1.0866c0-0.43745-0.16933-0.67028-0.52211-0.67028-0.20814 0-0.38453 0.13406-0.56444 0.32808-0.0706-0.20461-0.21167-0.32808-0.47272-0.32808-0.20462 0-0.38453 0.127-0.5327 0.28928h-0.0106l-0.0247-0.24695h-0.23988z"/>
    <path d="m161.41 110.37c0.15875 0.12347 0.3175 0.19755 0.47625 0.19755 0.39158 0 0.74083-0.34219 0.74083-0.92427 0-0.5327-0.23636-0.87489-0.67733-0.87489-0.20108 0-0.39158 0.10936-0.5468 0.23989h-0.0106l-0.0247-0.19756h-0.23989v2.4377h0.28928v-0.57855zm7e-3 -0.22578v-0.89958c0.16933-0.15169 0.31397-0.23283 0.45861-0.23283 0.32455 0 0.45155 0.254 0.45155 0.63147 0 0.42333-0.20814 0.68086-0.49036 0.68086-0.11289 0-0.26458-0.0494-0.4198-0.17992z"/>
    <path d="m162.95 109.67c0 0.56797 0.37394 0.89605 0.79375 0.89605 0.4198 0 0.79375-0.32808 0.79375-0.89605 0-0.57503-0.37395-0.90311-0.79375-0.90311-0.41981 0-0.79375 0.32808-0.79375 0.90311zm0.29986 0c0-0.39511 0.20108-0.66322 0.49389-0.66322 0.29633 0 0.49389 0.26811 0.49389 0.66322 0 0.39158-0.19756 0.65616-0.49389 0.65616-0.29281 0-0.49389-0.26458-0.49389-0.65616z"/>
    <path d="m165 110.53h0.28928v-1.2418c0.17286-0.17286 0.2928-0.26458 0.46919-0.26458 0.22578 0 0.32455 0.13759 0.32455 0.45861v1.0478h0.28928v-1.0866c0-0.43745-0.16228-0.67028-0.52211-0.67028-0.23636 0-0.41275 0.127-0.57502 0.28928h-0.0106l-0.0247-0.24695h-0.23989z"/>
    <path d="m166.8 109.67c0 0.56091 0.36336 0.89605 0.82197 0.89605 0.23283 0 0.41628-0.0811 0.56444-0.17639l-0.1023-0.1905c-0.127 0.0811-0.26459 0.13406-0.42686 0.13406-0.32809 0-0.55034-0.23283-0.5715-0.60325h1.1571c7e-3 -0.0423 0.0106-0.0988 0.0106-0.15875 0-0.49036-0.24694-0.80433-0.68439-0.80433-0.39158 0-0.76905 0.34219-0.76905 0.90311zm0.28222-0.13053c0.0353-0.34572 0.254-0.54327 0.49389-0.54327 0.26811 0 0.42333 0.19402 0.42333 0.54327z"/>
    <path d="m168.68 110.53h0.28928v-1.2418c0.17286-0.17286 0.29281-0.26458 0.46919-0.26458 0.22578 0 0.32456 0.13759 0.32456 0.45861v1.0478h0.28928v-1.0866c0-0.43745-0.16228-0.67028-0.52211-0.67028-0.23636 0-0.41275 0.127-0.57503 0.28928h-0.0106l-0.0247-0.24695h-0.23989z"/>
    <path d="m170.65 110c0 0.33867 0.12347 0.5715 0.49036 0.5715 0.10583 0 0.22225-0.0318 0.3175-0.0635l-0.0564-0.21872c-0.0565 0.0212-0.13406 0.0459-0.19403 0.0459-0.19756 0-0.26458-0.11994-0.26458-0.33161v-0.9525h0.46213v-0.23636h-0.46213v-0.47977h-0.24342l-0.0353 0.47977-0.26811 0.0176v0.21872h0.254z"/>
   </g>
   <path d="m287.11 137.52h-44.979v15.875h44.979z" fill="#1d232d" stroke="#ff867f" stroke-linecap="round" stroke-width=".26458"/>
   <rect transform="scale(-1,1)" x="-242" y="140.16" width="18.521" height="10.583" fill="#1d232d"/>
  </g>
  <path d="m241.86 140.16h-18.256" fill="none" stroke="#47d58a" stroke-linecap="square" stroke-miterlimit="22" stroke-width=".26458"/>
  <path d="m241.86 150.74h-18.256" fill="none" stroke="#47d58a" stroke-linecap="square" stroke-miterlimit="22" stroke-width=".26458"/>
  <g>
   <g fill="#e8eaec" stroke-linecap="round" stroke-width=".26458" aria-label="Component">
    <path d="m255.91 145.35c0 0.75494 0.43392 1.1994 1.016 1.1994 0.29281 0 0.52211-0.12347 0.70203-0.33514l-0.16581-0.17991c-0.14816 0.1658-0.31044 0.25752-0.52916 0.25752-0.44098 0-0.71967-0.36688-0.71967-0.94897 0-0.57502 0.29281-0.93486 0.73378-0.93486 0.1905 0 0.33866 0.0847 0.46213 0.2152l0.16581-0.18697c-0.13758-0.1517-0.3563-0.28575-0.63147-0.28575-0.59267 0-1.0336 0.45508-1.0336 1.1994z"/>
    <path d="m257.9 145.66c0 0.56797 0.37394 0.89605 0.79375 0.89605 0.4198 0 0.79375-0.32808 0.79375-0.89605 0-0.57503-0.37395-0.90311-0.79375-0.90311-0.41981 0-0.79375 0.32808-0.79375 0.90311zm0.29986 0c0-0.39511 0.20108-0.66322 0.49389-0.66322 0.29633 0 0.49389 0.26811 0.49389 0.66322 0 0.39158-0.19756 0.65616-0.49389 0.65616-0.29281 0-0.49389-0.26458-0.49389-0.65616z"/>
    <path d="m259.94 146.51h0.28928v-1.2418c0.15875-0.17639 0.30338-0.26458 0.43038-0.26458 0.21873 0 0.32103 0.13758 0.32103 0.45861v1.0478h0.28928v-1.2418c0.15875-0.17639 0.29633-0.26458 0.43039-0.26458 0.21519 0 0.3175 0.13758 0.3175 0.45861v1.0478h0.28927v-1.0866c0-0.43744-0.16933-0.67027-0.52211-0.67027-0.20814 0-0.38452 0.13405-0.56444 0.32808-0.0706-0.20461-0.21167-0.32808-0.47272-0.32808-0.20461 0-0.38453 0.127-0.53269 0.28927h-0.0106l-0.0247-0.24694h-0.23989z"/>
    <path d="m263.14 146.36c0.15874 0.12347 0.31749 0.19755 0.47624 0.19755 0.39159 0 0.74084-0.34219 0.74084-0.92428 0-0.53269-0.23636-0.87488-0.67734-0.87488-0.20108 0-0.39158 0.10936-0.5468 0.23989h-0.0106l-0.0247-0.19756h-0.23989v2.4377h0.28928v-0.57855zm7e-3 -0.22578v-0.89958c0.16933-0.1517 0.31397-0.23284 0.45861-0.23284 0.32456 0 0.45156 0.254 0.45156 0.63147 0 0.42334-0.20814 0.68086-0.49036 0.68086-0.11289 0-0.26459-0.0494-0.41981-0.17991z"/>
    <path d="m264.69 145.66c0 0.56797 0.37395 0.89605 0.79375 0.89605 0.41981 0 0.79375-0.32808 0.79375-0.89605 0-0.57503-0.37394-0.90311-0.79375-0.90311-0.4198 0-0.79375 0.32808-0.79375 0.90311zm0.29986 0c0-0.39511 0.20109-0.66322 0.49389-0.66322 0.29633 0 0.49389 0.26811 0.49389 0.66322 0 0.39158-0.19756 0.65616-0.49389 0.65616-0.2928 0-0.49389-0.26458-0.49389-0.65616z"/>
    <path d="m266.73 146.51h0.28928v-1.2418c0.17286-0.17286 0.2928-0.26458 0.46919-0.26458 0.22578 0 0.32456 0.13758 0.32456 0.45861v1.0478h0.28928v-1.0866c0-0.43744-0.16228-0.67027-0.52211-0.67027-0.23637 0-0.41275 0.127-0.57503 0.28927h-0.0106l-0.0247-0.24694h-0.23989z"/>
    <path d="m268.54 145.66c0 0.56091 0.36336 0.89605 0.82197 0.89605 0.23284 0 0.41628-0.0811 0.56445-0.17639l-0.10231-0.1905c-0.127 0.0811-0.26458 0.13406-0.42686 0.13406-0.32808 0-0.55033-0.23284-0.5715-0.60325h1.1571c7e-3 -0.0423 0.0106-0.0988 0.0106-0.15875 0-0.49036-0.24694-0.80433-0.68438-0.80433-0.39159 0-0.76906 0.34219-0.76906 0.90311zm0.28222-0.13053c0.0353-0.34572 0.254-0.54328 0.49389-0.54328 0.26811 0 0.42333 0.19403 0.42333 0.54328z"/>
    <path d="m270.41 146.51h0.28927v-1.2418c0.17286-0.17286 0.29281-0.26458 0.4692-0.26458 0.22577 0 0.32455 0.13758 0.32455 0.45861v1.0478h0.28928v-1.0866c0-0.43744-0.16228-0.67027-0.52211-0.67027-0.23636 0-0.41275 0.127-0.57503 0.28927h-0.0106l-0.0247-0.24694h-0.23988z"/>
    <path d="m272.39 145.98c0 0.33867 0.12348 0.5715 0.49036 0.5715 0.10584 0 0.22225-0.0317 0.3175-0.0635l-0.0564-0.21872c-0.0564 0.0212-0.13406 0.0459-0.19403 0.0459-0.19755 0-0.26458-0.11994-0.26458-0.33161v-0.9525h0.46214v-0.23636h-0.46214v-0.47978h-0.24342l-0.0353 0.47978-0.26811 0.0176v0.21872h0.25399z"/>
   </g>
   <path d="m287.11 77.72h-44.979v15.875h44.979z" fill="#1d232d" stroke="#ff867f" stroke-linecap="round" stroke-width=".26458"/>
   <rect transform="scale(-1,1)" x="-242" y="104.18" width="18.521" height="10.583" fill="#1d232d"/>
  </g>
  <path d="m241.86 104.18h-18.256" fill="none" stroke="#47d58a" stroke-linecap="square" stroke-miterlimit="22" stroke-width=".26458"/>
  <path d="m241.86 114.76h-18.256" fill="none" stroke="#47d58a" stroke-linecap="square" stroke-miterlimit="22" stroke-width=".26458"/>
  <g>
   <g fill="#e8eaec" stroke-linecap="round" stroke-width=".26458" aria-label="Component">
    <path d="m255.91 85.559c0 0.75494 0.43392 1.1994 1.016 1.1994 0.29281 0 0.52211-0.12347 0.70203-0.33514l-0.16581-0.17992c-0.14816 0.1658-0.31044 0.25753-0.52916 0.25753-0.44098 0-0.71967-0.36689-0.71967-0.94897 0-0.57503 0.29281-0.93486 0.73378-0.93486 0.1905 0 0.33866 0.08467 0.46213 0.21519l0.16581-0.18697c-0.13758-0.15169-0.3563-0.28575-0.63147-0.28575-0.59267 0-1.0336 0.45508-1.0336 1.1994z"/>
    <path d="m257.9 85.862c0 0.56797 0.37394 0.89605 0.79375 0.89605 0.4198 0 0.79375-0.32808 0.79375-0.89605 0-0.57503-0.37395-0.90311-0.79375-0.90311-0.41981 0-0.79375 0.32808-0.79375 0.90311zm0.29986 0c0-0.39511 0.20108-0.66322 0.49389-0.66322 0.29633 0 0.49389 0.26811 0.49389 0.66322 0 0.39158-0.19756 0.65617-0.49389 0.65617-0.29281 0-0.49389-0.26458-0.49389-0.65617z"/>
    <path d="m259.94 86.716h0.28928v-1.2418c0.15875-0.17639 0.30338-0.26458 0.43038-0.26458 0.21873 0 0.32103 0.13758 0.32103 0.45861v1.0477h0.28928v-1.2418c0.15875-0.17639 0.29633-0.26458 0.43039-0.26458 0.21519 0 0.3175 0.13758 0.3175 0.45861v1.0477h0.28927v-1.0866c0-0.43744-0.16933-0.67028-0.52211-0.67028-0.20814 0-0.38452 0.13406-0.56444 0.32808-0.0706-0.20461-0.21167-0.32808-0.47272-0.32808-0.20461 0-0.38453 0.127-0.53269 0.28928h-0.0106l-0.02468-0.24694h-0.23989z"/>
    <path d="m263.14 86.561c0.15874 0.12347 0.31749 0.19756 0.47624 0.19756 0.39159 0 0.74084-0.34219 0.74084-0.92428 0-0.53269-0.23636-0.87489-0.67734-0.87489-0.20108 0-0.39158 0.10936-0.5468 0.23989h-0.0106l-0.0247-0.19756h-0.23989v2.4377h0.28928v-0.57856zm7e-3 -0.22578v-0.89958c0.16933-0.15169 0.31397-0.23283 0.45861-0.23283 0.32456 0 0.45156 0.254 0.45156 0.63147 0 0.42333-0.20814 0.68086-0.49036 0.68086-0.11289 0-0.26459-0.04939-0.41981-0.17992z"/>
    <path d="m264.69 85.862c0 0.56797 0.37395 0.89605 0.79375 0.89605 0.41981 0 0.79375-0.32808 0.79375-0.89605 0-0.57503-0.37394-0.90311-0.79375-0.90311-0.4198 0-0.79375 0.32808-0.79375 0.90311zm0.29986 0c0-0.39511 0.20109-0.66322 0.49389-0.66322 0.29633 0 0.49389 0.26811 0.49389 0.66322 0 0.39158-0.19756 0.65617-0.49389 0.65617-0.2928 0-0.49389-0.26458-0.49389-0.65617z"/>
    <path d="m266.73 86.716h0.28928v-1.2418c0.17286-0.17286 0.2928-0.26458 0.46919-0.26458 0.22578 0 0.32456 0.13758 0.32456 0.45861v1.0477h0.28928v-1.0866c0-0.43744-0.16228-0.67028-0.52211-0.67028-0.23637 0-0.41275 0.127-0.57503 0.28928h-0.0106l-0.0247-0.24694h-0.23989z"/>
    <path d="m268.54 85.862c0 0.56092 0.36336 0.89605 0.82197 0.89605 0.23284 0 0.41628-0.08114 0.56445-0.17639l-0.10231-0.1905c-0.127 0.08114-0.26458 0.13406-0.42686 0.13406-0.32808 0-0.55033-0.23283-0.5715-0.60325h1.1571c7e-3 -0.04233 0.0106-0.09878 0.0106-0.15875 0-0.49036-0.24694-0.80433-0.68438-0.80433-0.39159 0-0.76906 0.34219-0.76906 0.90311zm0.28222-0.13053c0.0353-0.34572 0.254-0.54328 0.49389-0.54328 0.26811 0 0.42333 0.19403 0.42333 0.54328z"/>
    <path d="m270.41 86.716h0.28927v-1.2418c0.17286-0.17286 0.29281-0.26458 0.4692-0.26458 0.22577 0 0.32455 0.13758 0.32455 0.45861v1.0477h0.28928v-1.0866c0-0.43744-0.16228-0.67028-0.52211-0.67028-0.23636 0-0.41275 0.127-0.57503 0.28928h-0.0106l-0.0247-0.24694h-0.23988z"/>
    <path d="m272.39 86.187c0 0.33867 0.12348 0.5715 0.49036 0.5715 0.10584 0 0.22225-0.03175 0.3175-0.0635l-0.0564-0.21872c-0.0564 0.02117-0.13406 0.04586-0.19403 0.04586-0.19755 0-0.26458-0.11994-0.26458-0.33161v-0.9525h0.46214v-0.23636h-0.46214v-0.47978h-0.24342l-0.0353 0.47978-0.26811 0.01764v0.21872h0.25399z"/>
   </g>
   <path d="m190.28 105.24-1.0669 0.95592v6.1452l1.0669 0.95591h8.4496l1.0669-0.95591v-6.1452l-1.0669-0.95592z" fill="#1d232d" stroke="#ff867f" stroke-linecap="round" stroke-miterlimit="22" stroke-width=".26458"/>
   <path d="m190.3 105.24-1.0925 0.95592 4.7796 2.7594h1.0242l4.7796-2.7594-1.0925-0.95592z" fill="#ff867f"/>
   <g transform="matrix(-.0021183 -.003669 .0037318 -.0021545 200.64 110.95)" fill="#47d58a" stroke-width="123.85">
    <g fill="#47d58a" stroke-width="123.85">
     <path d="m486.41 221.41-364.07-208.5c-52.938-30.318-95.852-5.44-95.852 55.563v415.65c0 61.004 42.914 85.882 95.852 55.563l364.07-208.49c52.938-30.317 52.938-79.473 0-109.79z" fill="#47d58a" stroke-width="123.85"/>
    </g>
   </g>
   <g stroke-linecap="round" stroke-width=".26458">
    <path d="m287.11 101.53h-44.979v15.875h44.979z" fill="#1d232d" stroke="#ff867f"/>
    <g fill="#e8eaec" aria-label="Component">
     <path d="m255.91 109.37c0 0.75494 0.43392 1.1994 1.016 1.1994 0.29281 0 0.52211-0.12347 0.70203-0.33514l-0.16581-0.17991c-0.14816 0.1658-0.31044 0.25753-0.52916 0.25753-0.44098 0-0.71967-0.36689-0.71967-0.94897 0-0.57503 0.29281-0.93486 0.73378-0.93486 0.1905 0 0.33866 0.0847 0.46213 0.21519l0.16581-0.18697c-0.13758-0.1517-0.3563-0.28575-0.63147-0.28575-0.59267 0-1.0336 0.45508-1.0336 1.1994z"/>
     <path d="m257.9 109.67c0 0.56797 0.37394 0.89605 0.79375 0.89605 0.4198 0 0.79375-0.32808 0.79375-0.89605 0-0.57503-0.37395-0.90311-0.79375-0.90311-0.41981 0-0.79375 0.32808-0.79375 0.90311zm0.29986 0c0-0.39511 0.20108-0.66322 0.49389-0.66322 0.29633 0 0.49389 0.26811 0.49389 0.66322 0 0.39158-0.19756 0.65616-0.49389 0.65616-0.29281 0-0.49389-0.26458-0.49389-0.65616z"/>
     <path d="m259.94 110.53h0.28928v-1.2418c0.15875-0.17638 0.30338-0.26458 0.43038-0.26458 0.21873 0 0.32103 0.13759 0.32103 0.45861v1.0478h0.28928v-1.2418c0.15875-0.17638 0.29633-0.26458 0.43039-0.26458 0.21519 0 0.3175 0.13759 0.3175 0.45861v1.0478h0.28927v-1.0866c0-0.43745-0.16933-0.67028-0.52211-0.67028-0.20814 0-0.38452 0.13406-0.56444 0.32808-0.0706-0.20461-0.21167-0.32808-0.47272-0.32808-0.20461 0-0.38453 0.127-0.53269 0.28928h-0.0106l-0.0247-0.24695h-0.23989z"/>
     <path d="m263.14 110.37c0.15874 0.12347 0.31749 0.19755 0.47624 0.19755 0.39159 0 0.74084-0.34219 0.74084-0.92427 0-0.5327-0.23636-0.87489-0.67734-0.87489-0.20108 0-0.39158 0.10936-0.5468 0.23989h-0.0106l-0.0247-0.19756h-0.23989v2.4377h0.28928v-0.57855zm7e-3 -0.22578v-0.89958c0.16933-0.15169 0.31397-0.23283 0.45861-0.23283 0.32456 0 0.45156 0.254 0.45156 0.63147 0 0.42333-0.20814 0.68086-0.49036 0.68086-0.11289 0-0.26459-0.0494-0.41981-0.17992z"/>
     <path d="m264.69 109.67c0 0.56797 0.37395 0.89605 0.79375 0.89605 0.41981 0 0.79375-0.32808 0.79375-0.89605 0-0.57503-0.37394-0.90311-0.79375-0.90311-0.4198 0-0.79375 0.32808-0.79375 0.90311zm0.29986 0c0-0.39511 0.20109-0.66322 0.49389-0.66322 0.29633 0 0.49389 0.26811 0.49389 0.66322 0 0.39158-0.19756 0.65616-0.49389 0.65616-0.2928 0-0.49389-0.26458-0.49389-0.65616z"/>
     <path d="m266.73 110.53h0.28928v-1.2418c0.17286-0.17286 0.2928-0.26458 0.46919-0.26458 0.22578 0 0.32456 0.13759 0.32456 0.45861v1.0478h0.28928v-1.0866c0-0.43745-0.16228-0.67028-0.52211-0.67028-0.23637 0-0.41275 0.127-0.57503 0.28928h-0.0106l-0.0247-0.24695h-0.23989z"/>
     <path d="m268.54 109.67c0 0.56091 0.36336 0.89605 0.82197 0.89605 0.23284 0 0.41628-0.0811 0.56445-0.17639l-0.10231-0.1905c-0.127 0.0811-0.26458 0.13406-0.42686 0.13406-0.32808 0-0.55033-0.23283-0.5715-0.60325h1.1571c7e-3 -0.0423 0.0106-0.0988 0.0106-0.15875 0-0.49036-0.24694-0.80433-0.68438-0.80433-0.39159 0-0.76906 0.34219-0.76906 0.90311zm0.28222-0.13053c0.0353-0.34572 0.254-0.54327 0.49389-0.54327 0.26811 0 0.42333 0.19402 0.42333 0.54327z"/>
     <path d="m270.41 110.53h0.28927v-1.2418c0.17286-0.17286 0.29281-0.26458 0.4692-0.26458 0.22577 0 0.32455 0.13759 0.32455 0.45861v1.0478h0.28928v-1.0866c0-0.43745-0.16228-0.67028-0.52211-0.67028-0.23636 0-0.41275 0.127-0.57503 0.28928h-0.0106l-0.0247-0.24695h-0.23988z"/>
     <path d="m272.39 110c0 0.33867 0.12348 0.5715 0.49036 0.5715 0.10584 0 0.22225-0.0318 0.3175-0.0635l-0.0564-0.21872c-0.0564 0.0212-0.13406 0.0459-0.19403 0.0459-0.19755 0-0.26458-0.11994-0.26458-0.33161v-0.9525h0.46214v-0.23636h-0.46214v-0.47977h-0.24342l-0.0353 0.47977-0.26811 0.0176v0.21872h0.25399z"/>
    </g>
    <path d="m219.38 105.24-1.0669 0.95592v6.1452l1.0669 0.95591h8.4496l1.0668-0.95591v-6.1452l-1.0668-0.95592z" fill="#1d232d" stroke="#ff867f" stroke-miterlimit="22"/>
   </g>
   <path d="m219.41 105.24-1.0925 0.95592 4.7796 2.7594h1.0242l4.7796-2.7594-1.0925-0.95592z" fill="#ff867f"/>
   <g transform="matrix(-.0021183 -.003669 .0037318 -.0021545 229.74 110.95)" fill="#47d58a" stroke-width="123.85">
    <g fill="#47d58a" stroke-width="123.85">
     <path d="m486.41 221.41-364.07-208.5c-52.938-30.318-95.852-5.44-95.852 55.563v415.65c0 61.004 42.914 85.882 95.852 55.563l364.07-208.49c52.938-30.317 52.938-79.473 0-109.79z" fill="#47d58a" stroke-width="123.85"/>
    </g>
   </g>
   <path d="m219.38 141.22-1.0669 0.95591v6.1452l1.0669 0.95592h8.4496l1.0668-0.95592v-6.1452l-1.0668-0.95591z" fill="#1d232d" stroke="#ff867f" stroke-linecap="round" stroke-miterlimit="22" stroke-width=".26458"/>
   <path d="m219.41 141.22-1.0925 0.95591 4.7796 2.7595h1.0242l4.7796-2.7595-1.0925-0.95591z" fill="#ff867f"/>
   <g transform="matrix(-.0021183 -.003669 .0037318 -.0021545 229.74 146.94)" fill="#47d58a" stroke-width="123.85">
    <g fill="#47d58a" stroke-width="123.85">
     <path d="m486.41 221.41-364.07-208.5c-52.938-30.318-95.852-5.44-95.852 55.563v415.65c0 61.004 42.914 85.882 95.852 55.563l364.07-208.49c52.938-30.317 52.938-79.473 0-109.79z" fill="#47d58a" stroke-width="123.85"/>
    </g>
   </g>
   <path d="m287.11 119.52h-44.979v15.875h44.979z" fill="#1d232d" stroke="#009244" stroke-linecap="round" stroke-width=".26458"/>
   <rect transform="scale(-1,1)" x="-242" y="122.17" width="18.521" height="10.583" fill="#1d232d"/>
  </g>
  <g stroke-width=".26458">
   <path d="m241.86 122.17h-18.256" fill="none" stroke="#47d58a" stroke-linecap="square" stroke-miterlimit="22"/>
   <path d="m241.86 132.75h-18.256" fill="none" stroke="#47d58a" stroke-linecap="square" stroke-miterlimit="22"/>
   <g fill="#e8eaec" stroke-linecap="round" aria-label="Component">
    <path d="m255.91 127.36c0 0.75494 0.43392 1.1994 1.016 1.1994 0.29281 0 0.52211-0.12347 0.70203-0.33514l-0.16581-0.17991c-0.14816 0.1658-0.31044 0.25752-0.52916 0.25752-0.44098 0-0.71967-0.36688-0.71967-0.94897 0-0.57502 0.29281-0.93485 0.73378-0.93485 0.1905 0 0.33866 0.0847 0.46213 0.21519l0.16581-0.18697c-0.13758-0.1517-0.3563-0.28575-0.63147-0.28575-0.59267 0-1.0336 0.45508-1.0336 1.1994z"/>
    <path d="m257.9 127.67c0 0.56797 0.37394 0.89605 0.79375 0.89605 0.4198 0 0.79375-0.32808 0.79375-0.89605 0-0.57503-0.37395-0.90311-0.79375-0.90311-0.41981 0-0.79375 0.32808-0.79375 0.90311zm0.29986 0c0-0.39511 0.20108-0.66322 0.49389-0.66322 0.29633 0 0.49389 0.26811 0.49389 0.66322 0 0.39158-0.19756 0.65616-0.49389 0.65616-0.29281 0-0.49389-0.26458-0.49389-0.65616z"/>
    <path d="m259.94 128.52h0.28928v-1.2418c0.15875-0.17639 0.30338-0.26458 0.43038-0.26458 0.21873 0 0.32103 0.13758 0.32103 0.45861v1.0478h0.28928v-1.2418c0.15875-0.17639 0.29633-0.26458 0.43039-0.26458 0.21519 0 0.3175 0.13758 0.3175 0.45861v1.0478h0.28927v-1.0866c0-0.43745-0.16933-0.67028-0.52211-0.67028-0.20814 0-0.38452 0.13405-0.56444 0.32808-0.0706-0.20461-0.21167-0.32808-0.47272-0.32808-0.20461 0-0.38453 0.127-0.53269 0.28928h-0.0106l-0.0247-0.24695h-0.23989z"/>
    <path d="m263.14 128.36c0.15874 0.12347 0.31749 0.19755 0.47624 0.19755 0.39159 0 0.74084-0.34219 0.74084-0.92427 0-0.5327-0.23636-0.87489-0.67734-0.87489-0.20108 0-0.39158 0.10936-0.5468 0.23989h-0.0106l-0.0247-0.19756h-0.23989v2.4377h0.28928v-0.57855zm7e-3 -0.22578v-0.89958c0.16933-0.1517 0.31397-0.23283 0.45861-0.23283 0.32456 0 0.45156 0.25399 0.45156 0.63147 0 0.42333-0.20814 0.68086-0.49036 0.68086-0.11289 0-0.26459-0.0494-0.41981-0.17992z"/>
    <path d="m264.69 127.67c0 0.56797 0.37395 0.89605 0.79375 0.89605 0.41981 0 0.79375-0.32808 0.79375-0.89605 0-0.57503-0.37394-0.90311-0.79375-0.90311-0.4198 0-0.79375 0.32808-0.79375 0.90311zm0.29986 0c0-0.39511 0.20109-0.66322 0.49389-0.66322 0.29633 0 0.49389 0.26811 0.49389 0.66322 0 0.39158-0.19756 0.65616-0.49389 0.65616-0.2928 0-0.49389-0.26458-0.49389-0.65616z"/>
    <path d="m266.73 128.52h0.28928v-1.2418c0.17286-0.17286 0.2928-0.26458 0.46919-0.26458 0.22578 0 0.32456 0.13758 0.32456 0.45861v1.0478h0.28928v-1.0866c0-0.43745-0.16228-0.67028-0.52211-0.67028-0.23637 0-0.41275 0.127-0.57503 0.28928h-0.0106l-0.0247-0.24695h-0.23989z"/>
    <path d="m268.54 127.67c0 0.56091 0.36336 0.89605 0.82197 0.89605 0.23284 0 0.41628-0.0811 0.56445-0.17639l-0.10231-0.1905c-0.127 0.0811-0.26458 0.13406-0.42686 0.13406-0.32808 0-0.55033-0.23283-0.5715-0.60325h1.1571c7e-3 -0.0423 0.0106-0.0988 0.0106-0.15875 0-0.49036-0.24694-0.80433-0.68438-0.80433-0.39159 0-0.76906 0.34219-0.76906 0.90311zm0.28222-0.13053c0.0353-0.34572 0.254-0.54328 0.49389-0.54328 0.26811 0 0.42333 0.19403 0.42333 0.54328z"/>
    <path d="m270.41 128.52h0.28927v-1.2418c0.17286-0.17286 0.29281-0.26458 0.4692-0.26458 0.22577 0 0.32455 0.13758 0.32455 0.45861v1.0478h0.28928v-1.0866c0-0.43745-0.16228-0.67028-0.52211-0.67028-0.23636 0-0.41275 0.127-0.57503 0.28928h-0.0106l-0.0247-0.24695h-0.23988z"/>
    <path d="m272.39 127.99c0 0.33867 0.12348 0.5715 0.49036 0.5715 0.10584 0 0.22225-0.0317 0.3175-0.0635l-0.0564-0.21872c-0.0564 0.0212-0.13406 0.0459-0.19403 0.0459-0.19755 0-0.26458-0.11994-0.26458-0.33161v-0.9525h0.46214v-0.23636h-0.46214v-0.47977h-0.24342l-0.0353 0.47977-0.26811 0.0176v0.21872h0.25399z"/>
   </g>
  </g>
  <g fill="#1d232d">
   <rect x="203.76" y="161.06" width="19.844" height="48.948" stroke="#47d58a" stroke-linecap="round" stroke-width=".26458"/>
   <path d="m140.26 159.74h44.979v15.875h-44.979z" stroke="#009244" stroke-linecap="round" stroke-width=".26458"/>
   <rect x="185.38" y="162.39" width="18.521" height="10.583"/>
  </g>
  <path d="m185.51 162.39h18.256" fill="none" stroke="#47d58a" stroke-linecap="square" stroke-miterlimit="22" stroke-width=".26458"/>
  <path d="m185.51 172.97h18.256" fill="none" stroke="#47d58a" stroke-linecap="square" stroke-miterlimit="22" stroke-width=".26458"/>
  <g>
   <g fill="#e8eaec" stroke-linecap="round" stroke-width=".26458" aria-label="Component">
    <path d="m154.17 167.58c0 0.75494 0.43392 1.1994 1.016 1.1994 0.2928 0 0.52211-0.12347 0.70202-0.33514l-0.1658-0.17991c-0.14817 0.1658-0.31045 0.25752-0.52917 0.25752-0.44097 0-0.71966-0.36688-0.71966-0.94897 0-0.57502 0.2928-0.93486 0.73377-0.93486 0.1905 0 0.33867 0.0847 0.46214 0.2152l0.16581-0.18697c-0.13759-0.1517-0.35631-0.28575-0.63147-0.28575-0.59267 0-1.0336 0.45508-1.0336 1.1994z"/>
    <path d="m156.16 167.88c0 0.56797 0.37394 0.89605 0.79375 0.89605 0.4198 0 0.79374-0.32808 0.79374-0.89605 0-0.57503-0.37394-0.90311-0.79374-0.90311-0.41981 0-0.79375 0.32808-0.79375 0.90311zm0.29986 0c0-0.39511 0.20108-0.66322 0.49389-0.66322 0.29633 0 0.49388 0.26811 0.49388 0.66322 0 0.39158-0.19755 0.65616-0.49388 0.65616-0.29281 0-0.49389-0.26458-0.49389-0.65616z"/>
    <path d="m158.2 168.74h0.28927v-1.2418c0.15875-0.17639 0.30339-0.26458 0.43039-0.26458 0.21872 0 0.32103 0.13758 0.32103 0.45861v1.0478h0.28928v-1.2418c0.15874-0.17639 0.29633-0.26458 0.43038-0.26458 0.2152 0 0.3175 0.13758 0.3175 0.45861v1.0478h0.28928v-1.0866c0-0.43744-0.16933-0.67027-0.52211-0.67027-0.20814 0-0.38453 0.13405-0.56444 0.32808-0.0706-0.20461-0.21167-0.32808-0.47272-0.32808-0.20462 0-0.38453 0.127-0.5327 0.28928h-0.0106l-0.0247-0.24695h-0.23988z"/>
    <path d="m161.41 168.58c0.15875 0.12347 0.3175 0.19755 0.47625 0.19755 0.39158 0 0.74083-0.34219 0.74083-0.92427 0-0.5327-0.23636-0.87489-0.67733-0.87489-0.20108 0-0.39158 0.10936-0.5468 0.23989h-0.0106l-0.0247-0.19756h-0.23989v2.4377h0.28928v-0.57855zm7e-3 -0.22578v-0.89958c0.16933-0.1517 0.31397-0.23284 0.45861-0.23284 0.32455 0 0.45155 0.254 0.45155 0.63148 0 0.42333-0.20814 0.68086-0.49036 0.68086-0.11289 0-0.26458-0.0494-0.4198-0.17992z"/>
    <path d="m162.95 167.88c0 0.56797 0.37394 0.89605 0.79375 0.89605 0.4198 0 0.79375-0.32808 0.79375-0.89605 0-0.57503-0.37395-0.90311-0.79375-0.90311-0.41981 0-0.79375 0.32808-0.79375 0.90311zm0.29986 0c0-0.39511 0.20108-0.66322 0.49389-0.66322 0.29633 0 0.49389 0.26811 0.49389 0.66322 0 0.39158-0.19756 0.65616-0.49389 0.65616-0.29281 0-0.49389-0.26458-0.49389-0.65616z"/>
    <path d="m165 168.74h0.28928v-1.2418c0.17286-0.17286 0.2928-0.26458 0.46919-0.26458 0.22578 0 0.32455 0.13758 0.32455 0.45861v1.0478h0.28928v-1.0866c0-0.43744-0.16228-0.67027-0.52211-0.67027-0.23636 0-0.41275 0.127-0.57502 0.28928h-0.0106l-0.0247-0.24695h-0.23989z"/>
    <path d="m166.8 167.88c0 0.56091 0.36336 0.89605 0.82197 0.89605 0.23283 0 0.41628-0.0811 0.56444-0.17639l-0.1023-0.1905c-0.127 0.0811-0.26459 0.13406-0.42686 0.13406-0.32809 0-0.55034-0.23283-0.5715-0.60325h1.1571c7e-3 -0.0423 0.0106-0.0988 0.0106-0.15875 0-0.49036-0.24694-0.80433-0.68439-0.80433-0.39158 0-0.76905 0.34219-0.76905 0.90311zm0.28222-0.13053c0.0353-0.34572 0.254-0.54328 0.49389-0.54328 0.26811 0 0.42333 0.19403 0.42333 0.54328z"/>
    <path d="m168.68 168.74h0.28928v-1.2418c0.17286-0.17286 0.29281-0.26458 0.46919-0.26458 0.22578 0 0.32456 0.13758 0.32456 0.45861v1.0478h0.28928v-1.0866c0-0.43744-0.16228-0.67027-0.52211-0.67027-0.23636 0-0.41275 0.127-0.57503 0.28928h-0.0106l-0.0247-0.24695h-0.23989z"/>
    <path d="m170.65 168.21c0 0.33867 0.12347 0.5715 0.49036 0.5715 0.10583 0 0.22225-0.0318 0.3175-0.0635l-0.0564-0.21872c-0.0565 0.0212-0.13406 0.0459-0.19403 0.0459-0.19756 0-0.26458-0.11994-0.26458-0.33161v-0.9525h0.46213v-0.23636h-0.46213v-0.47977h-0.24342l-0.0353 0.47977-0.26811 0.0176v0.21872h0.254z"/>
   </g>
   <path d="m287.11 195.72h-44.979v15.875h44.979z" fill="#1d232d" stroke="#ff867f" stroke-linecap="round" stroke-width=".26458"/>
   <rect transform="scale(-1,1)" x="-242" y="198.37" width="18.521" height="10.583" fill="#1d232d"/>
  </g>
  <g stroke-width=".26458">
   <path d="m241.86 198.37h-18.256" fill="none" stroke="#47d58a" stroke-linecap="square" stroke-miterlimit="22"/>
   <path d="m241.86 208.95h-18.256" fill="none" stroke="#47d58a" stroke-linecap="square" stroke-miterlimit="22"/>
   <g fill="#e8eaec" stroke-linecap="round" aria-label="Component">
    <path d="m255.91 203.56c0 0.75494 0.43392 1.1994 1.016 1.1994 0.29281 0 0.52211-0.12347 0.70203-0.33514l-0.16581-0.17992c-0.14816 0.16581-0.31044 0.25753-0.52916 0.25753-0.44098 0-0.71967-0.36689-0.71967-0.94897 0-0.57503 0.29281-0.93486 0.73378-0.93486 0.1905 0 0.33866 0.0847 0.46213 0.2152l0.16581-0.18698c-0.13758-0.15169-0.3563-0.28574-0.63147-0.28574-0.59267 0-1.0336 0.45508-1.0336 1.1994z"/>
    <path d="m257.9 203.87c0 0.56797 0.37394 0.89605 0.79375 0.89605 0.4198 0 0.79375-0.32808 0.79375-0.89605 0-0.57503-0.37395-0.90311-0.79375-0.90311-0.41981 0-0.79375 0.32808-0.79375 0.90311zm0.29986 0c0-0.39512 0.20108-0.66323 0.49389-0.66323 0.29633 0 0.49389 0.26811 0.49389 0.66323 0 0.39158-0.19756 0.65616-0.49389 0.65616-0.29281 0-0.49389-0.26458-0.49389-0.65616z"/>
    <path d="m259.94 204.72h0.28928v-1.2418c0.15875-0.17639 0.30338-0.26458 0.43038-0.26458 0.21873 0 0.32103 0.13758 0.32103 0.45861v1.0478h0.28928v-1.2418c0.15875-0.17639 0.29633-0.26458 0.43039-0.26458 0.21519 0 0.3175 0.13758 0.3175 0.45861v1.0478h0.28927v-1.0866c0-0.43744-0.16933-0.67027-0.52211-0.67027-0.20814 0-0.38452 0.13405-0.56444 0.32808-0.0706-0.20461-0.21167-0.32808-0.47272-0.32808-0.20461 0-0.38453 0.127-0.53269 0.28927h-0.0106l-0.0247-0.24694h-0.23989z"/>
    <path d="m263.14 204.56c0.15874 0.12348 0.31749 0.19756 0.47624 0.19756 0.39159 0 0.74084-0.3422 0.74084-0.92428 0-0.53269-0.23636-0.87488-0.67734-0.87488-0.20108 0-0.39158 0.10936-0.5468 0.23988h-0.0106l-0.0247-0.19755h-0.23989v2.4377h0.28928v-0.57856zm7e-3 -0.22577v-0.89959c0.16933-0.15169 0.31397-0.23283 0.45861-0.23283 0.32456 0 0.45156 0.254 0.45156 0.63147 0 0.42334-0.20814 0.68086-0.49036 0.68086-0.11289 0-0.26459-0.0494-0.41981-0.17991z"/>
    <path d="m264.69 203.87c0 0.56797 0.37395 0.89605 0.79375 0.89605 0.41981 0 0.79375-0.32808 0.79375-0.89605 0-0.57503-0.37394-0.90311-0.79375-0.90311-0.4198 0-0.79375 0.32808-0.79375 0.90311zm0.29986 0c0-0.39512 0.20109-0.66323 0.49389-0.66323 0.29633 0 0.49389 0.26811 0.49389 0.66323 0 0.39158-0.19756 0.65616-0.49389 0.65616-0.2928 0-0.49389-0.26458-0.49389-0.65616z"/>
    <path d="m266.73 204.72h0.28928v-1.2418c0.17286-0.17286 0.2928-0.26458 0.46919-0.26458 0.22578 0 0.32456 0.13758 0.32456 0.45861v1.0478h0.28928v-1.0866c0-0.43744-0.16228-0.67027-0.52211-0.67027-0.23637 0-0.41275 0.127-0.57503 0.28927h-0.0106l-0.0247-0.24694h-0.23989z"/>
    <path d="m268.54 203.87c0 0.56091 0.36336 0.89605 0.82197 0.89605 0.23284 0 0.41628-0.0811 0.56445-0.17639l-0.10231-0.1905c-0.127 0.0811-0.26458 0.13406-0.42686 0.13406-0.32808 0-0.55033-0.23284-0.5715-0.60325h1.1571c7e-3 -0.0423 0.0106-0.0988 0.0106-0.15875 0-0.49036-0.24694-0.80433-0.68438-0.80433-0.39159 0-0.76906 0.34219-0.76906 0.90311zm0.28222-0.13053c0.0353-0.34572 0.254-0.54328 0.49389-0.54328 0.26811 0 0.42333 0.19403 0.42333 0.54328z"/>
    <path d="m270.41 204.72h0.28927v-1.2418c0.17286-0.17286 0.29281-0.26458 0.4692-0.26458 0.22577 0 0.32455 0.13758 0.32455 0.45861v1.0478h0.28928v-1.0866c0-0.43744-0.16228-0.67027-0.52211-0.67027-0.23636 0-0.41275 0.127-0.57503 0.28927h-0.0106l-0.0247-0.24694h-0.23988z"/>
    <path d="m272.39 204.19c0 0.33867 0.12348 0.5715 0.49036 0.5715 0.10584 0 0.22225-0.0318 0.3175-0.0635l-0.0564-0.21872c-0.0564 0.0212-0.13406 0.0459-0.19403 0.0459-0.19755 0-0.26458-0.11995-0.26458-0.33161v-0.9525h0.46214v-0.23636h-0.46214v-0.47978h-0.24342l-0.0353 0.47978-0.26811 0.0176v0.21872h0.25399z"/>
   </g>
  </g>
  <rect transform="scale(-1,1)" x="-242" y="162.39" width="18.521" height="10.583" fill="#1d232d"/>
  <path d="m241.86 162.39h-18.256" fill="none" stroke="#47d58a" stroke-linecap="square" stroke-miterlimit="22" stroke-width=".26458"/>
  <path d="m241.86 172.97h-18.256" fill="none" stroke="#47d58a" stroke-linecap="square" stroke-miterlimit="22" stroke-width=".26458"/>
  <g>
   <path d="m190.28 163.44-1.0669 0.95591v6.1452l1.0669 0.95592h8.4496l1.0669-0.95592v-6.1452l-1.0669-0.95591z" fill="#1d232d" stroke="#47d58a" stroke-linecap="round" stroke-miterlimit="22" stroke-width=".26458"/>
   <path d="m190.3 163.44-1.0925 0.95591 4.7796 2.7595h1.0242l4.7796-2.7595-1.0925-0.95591z" fill="#47d58a"/>
   <g transform="matrix(-.0021183 -.003669 .0037318 -.0021545 200.64 169.16)" fill="#47d58a" stroke-width="123.85">
    <g fill="#47d58a" stroke-width="123.85">
     <path d="m486.41 221.41-364.07-208.5c-52.938-30.318-95.852-5.44-95.852 55.563v415.65c0 61.004 42.914 85.882 95.852 55.563l364.07-208.49c52.938-30.317 52.938-79.473 0-109.79z" fill="#47d58a" stroke-width="123.85"/>
    </g>
   </g>
   <g stroke-linecap="round" stroke-width=".26458">
    <path d="m287.11 159.74h-44.979v15.875h44.979z" fill="#1d232d" stroke="#ff867f"/>
    <g fill="#e8eaec" aria-label="Component">
     <path d="m255.91 167.58c0 0.75494 0.43392 1.1994 1.016 1.1994 0.29281 0 0.52211-0.12347 0.70203-0.33514l-0.16581-0.17991c-0.14816 0.1658-0.31044 0.25752-0.52916 0.25752-0.44098 0-0.71967-0.36688-0.71967-0.94897 0-0.57502 0.29281-0.93486 0.73378-0.93486 0.1905 0 0.33866 0.0847 0.46213 0.2152l0.16581-0.18697c-0.13758-0.1517-0.3563-0.28575-0.63147-0.28575-0.59267 0-1.0336 0.45508-1.0336 1.1994z"/>
     <path d="m257.9 167.88c0 0.56797 0.37394 0.89605 0.79375 0.89605 0.4198 0 0.79375-0.32808 0.79375-0.89605 0-0.57503-0.37395-0.90311-0.79375-0.90311-0.41981 0-0.79375 0.32808-0.79375 0.90311zm0.29986 0c0-0.39511 0.20108-0.66322 0.49389-0.66322 0.29633 0 0.49389 0.26811 0.49389 0.66322 0 0.39158-0.19756 0.65616-0.49389 0.65616-0.29281 0-0.49389-0.26458-0.49389-0.65616z"/>
     <path d="m259.94 168.74h0.28928v-1.2418c0.15875-0.17639 0.30338-0.26458 0.43038-0.26458 0.21873 0 0.32103 0.13758 0.32103 0.45861v1.0478h0.28928v-1.2418c0.15875-0.17639 0.29633-0.26458 0.43039-0.26458 0.21519 0 0.3175 0.13758 0.3175 0.45861v1.0478h0.28927v-1.0866c0-0.43744-0.16933-0.67027-0.52211-0.67027-0.20814 0-0.38452 0.13405-0.56444 0.32808-0.0706-0.20461-0.21167-0.32808-0.47272-0.32808-0.20461 0-0.38453 0.127-0.53269 0.28928h-0.0106l-0.0247-0.24695h-0.23989z"/>
     <path d="m263.14 168.58c0.15874 0.12347 0.31749 0.19755 0.47624 0.19755 0.39159 0 0.74084-0.34219 0.74084-0.92427 0-0.5327-0.23636-0.87489-0.67734-0.87489-0.20108 0-0.39158 0.10936-0.5468 0.23989h-0.0106l-0.0247-0.19756h-0.23989v2.4377h0.28928v-0.57855zm7e-3 -0.22578v-0.89958c0.16933-0.1517 0.31397-0.23284 0.45861-0.23284 0.32456 0 0.45156 0.254 0.45156 0.63148 0 0.42333-0.20814 0.68086-0.49036 0.68086-0.11289 0-0.26459-0.0494-0.41981-0.17992z"/>
     <path d="m264.69 167.88c0 0.56797 0.37395 0.89605 0.79375 0.89605 0.41981 0 0.79375-0.32808 0.79375-0.89605 0-0.57503-0.37394-0.90311-0.79375-0.90311-0.4198 0-0.79375 0.32808-0.79375 0.90311zm0.29986 0c0-0.39511 0.20109-0.66322 0.49389-0.66322 0.29633 0 0.49389 0.26811 0.49389 0.66322 0 0.39158-0.19756 0.65616-0.49389 0.65616-0.2928 0-0.49389-0.26458-0.49389-0.65616z"/>
     <path d="m266.73 168.74h0.28928v-1.2418c0.17286-0.17286 0.2928-0.26458 0.46919-0.26458 0.22578 0 0.32456 0.13758 0.32456 0.45861v1.0478h0.28928v-1.0866c0-0.43744-0.16228-0.67027-0.52211-0.67027-0.23637 0-0.41275 0.127-0.57503 0.28928h-0.0106l-0.0247-0.24695h-0.23989z"/>
     <path d="m268.54 167.88c0 0.56091 0.36336 0.89605 0.82197 0.89605 0.23284 0 0.41628-0.0811 0.56445-0.17639l-0.10231-0.1905c-0.127 0.0811-0.26458 0.13406-0.42686 0.13406-0.32808 0-0.55033-0.23283-0.5715-0.60325h1.1571c7e-3 -0.0423 0.0106-0.0988 0.0106-0.15875 0-0.49036-0.24694-0.80433-0.68438-0.80433-0.39159 0-0.76906 0.34219-0.76906 0.90311zm0.28222-0.13053c0.0353-0.34572 0.254-0.54328 0.49389-0.54328 0.26811 0 0.42333 0.19403 0.42333 0.54328z"/>
     <path d="m270.41 168.74h0.28927v-1.2418c0.17286-0.17286 0.29281-0.26458 0.4692-0.26458 0.22577 0 0.32455 0.13758 0.32455 0.45861v1.0478h0.28928v-1.0866c0-0.43744-0.16228-0.67027-0.52211-0.67027-0.23636 0-0.41275 0.127-0.57503 0.28928h-0.0106l-0.0247-0.24695h-0.23988z"/>
     <path d="m272.39 168.21c0 0.33867 0.12348 0.5715 0.49036 0.5715 0.10584 0 0.22225-0.0318 0.3175-0.0635l-0.0564-0.21872c-0.0564 0.0212-0.13406 0.0459-0.19403 0.0459-0.19755 0-0.26458-0.11994-0.26458-0.33161v-0.9525h0.46214v-0.23636h-0.46214v-0.47977h-0.24342l-0.0353 0.47977-0.26811 0.0176v0.21872h0.25399z"/>
    </g>
    <path d="m219.38 163.44-1.0669 0.95591v6.1452l1.0669 0.95592h8.4496l1.0668-0.95592v-6.1452l-1.0668-0.95591z" fill="#1d232d" stroke="#47d58a" stroke-miterlimit="22"/>
   </g>
   <path d="m219.41 163.44-1.0925 0.95591 4.7796 2.7595h1.0242l4.7796-2.7595-1.0925-0.95591z" fill="#47d58a"/>
   <g transform="matrix(-.0021183 -.003669 .0037318 -.0021545 229.74 169.16)" fill="#47d58a" stroke-width="123.85">
    <g fill="#47d58a" stroke-width="123.85">
     <path d="m486.41 221.41-364.07-208.5c-52.938-30.318-95.852-5.44-95.852 55.563v415.65c0 61.004 42.914 85.882 95.852 55.563l364.07-208.49c52.938-30.317 52.938-79.473 0-109.79z" fill="#47d58a" stroke-width="123.85"/>
    </g>
   </g>
   <path d="m219.38 199.43-1.0669 0.95591v6.1452l1.0669 0.95591h8.4496l1.0668-0.95591v-6.1452l-1.0668-0.95591z" fill="#1d232d" stroke="#47d58a" stroke-linecap="round" stroke-miterlimit="22" stroke-width=".26458"/>
   <path d="m219.41 199.43-1.0925 0.95591 4.7796 2.7595h1.0242l4.7796-2.7595-1.0925-0.95591z" fill="#47d58a"/>
   <g transform="matrix(-.0021183 -.003669 .0037318 -.0021545 229.74 205.14)" fill="#47d58a" stroke-width="123.85">
    <g fill="#47d58a" stroke-width="123.85">
     <path d="m486.41 221.41-364.07-208.5c-52.938-30.318-95.852-5.44-95.852 55.563v415.65c0 61.004 42.914 85.882 95.852 55.563l364.07-208.49c52.938-30.317 52.938-79.473 0-109.79z" fill="#47d58a" stroke-width="123.85"/>
    </g>
   </g>
   <path d="m287.11 177.73h-44.979v15.875h44.979z" fill="#1d232d" stroke="#009244" stroke-linecap="round" stroke-width=".26458"/>
   <rect transform="scale(-1,1)" x="-242" y="180.38" width="18.521" height="10.583" fill="#1d232d"/>
  </g>
  <path d="m241.86 180.38h-18.256" fill="none" stroke="#47d58a" stroke-linecap="square" stroke-miterlimit="22" stroke-width=".26458"/>
  <path d="m241.86 190.96h-18.256" fill="none" stroke="#47d58a" stroke-linecap="square" stroke-miterlimit="22" stroke-width=".26458"/>
  <g>
   <g fill="#e8eaec" stroke-linecap="round" stroke-width=".26458" aria-label="Component">
    <path d="m255.91 185.57c0 0.75494 0.43392 1.1994 1.016 1.1994 0.29281 0 0.52211-0.12347 0.70203-0.33514l-0.16581-0.17991c-0.14816 0.1658-0.31044 0.25752-0.52916 0.25752-0.44098 0-0.71967-0.36689-0.71967-0.94897 0-0.57502 0.29281-0.93486 0.73378-0.93486 0.1905 0 0.33866 0.0847 0.46213 0.2152l0.16581-0.18697c-0.13758-0.1517-0.3563-0.28575-0.63147-0.28575-0.59267 0-1.0336 0.45508-1.0336 1.1994z"/>
    <path d="m257.9 185.87c0 0.56797 0.37394 0.89605 0.79375 0.89605 0.4198 0 0.79375-0.32808 0.79375-0.89605 0-0.57503-0.37395-0.90311-0.79375-0.90311-0.41981 0-0.79375 0.32808-0.79375 0.90311zm0.29986 0c0-0.39511 0.20108-0.66322 0.49389-0.66322 0.29633 0 0.49389 0.26811 0.49389 0.66322 0 0.39158-0.19756 0.65616-0.49389 0.65616-0.29281 0-0.49389-0.26458-0.49389-0.65616z"/>
    <path d="m259.94 186.73h0.28928v-1.2418c0.15875-0.17639 0.30338-0.26458 0.43038-0.26458 0.21873 0 0.32103 0.13758 0.32103 0.45861v1.0478h0.28928v-1.2418c0.15875-0.17639 0.29633-0.26458 0.43039-0.26458 0.21519 0 0.3175 0.13758 0.3175 0.45861v1.0478h0.28927v-1.0866c0-0.43744-0.16933-0.67027-0.52211-0.67027-0.20814 0-0.38452 0.13405-0.56444 0.32808-0.0706-0.20461-0.21167-0.32808-0.47272-0.32808-0.20461 0-0.38453 0.127-0.53269 0.28927h-0.0106l-0.0247-0.24694h-0.23989z"/>
    <path d="m263.14 186.57c0.15874 0.12348 0.31749 0.19756 0.47624 0.19756 0.39159 0 0.74084-0.34219 0.74084-0.92428 0-0.53269-0.23636-0.87488-0.67734-0.87488-0.20108 0-0.39158 0.10936-0.5468 0.23989h-0.0106l-0.0247-0.19756h-0.23989v2.4377h0.28928v-0.57855zm7e-3 -0.22577v-0.89958c0.16933-0.1517 0.31397-0.23284 0.45861-0.23284 0.32456 0 0.45156 0.254 0.45156 0.63147 0 0.42334-0.20814 0.68086-0.49036 0.68086-0.11289 0-0.26459-0.0494-0.41981-0.17991z"/>
    <path d="m264.69 185.87c0 0.56797 0.37395 0.89605 0.79375 0.89605 0.41981 0 0.79375-0.32808 0.79375-0.89605 0-0.57503-0.37394-0.90311-0.79375-0.90311-0.4198 0-0.79375 0.32808-0.79375 0.90311zm0.29986 0c0-0.39511 0.20109-0.66322 0.49389-0.66322 0.29633 0 0.49389 0.26811 0.49389 0.66322 0 0.39158-0.19756 0.65616-0.49389 0.65616-0.2928 0-0.49389-0.26458-0.49389-0.65616z"/>
    <path d="m266.73 186.73h0.28928v-1.2418c0.17286-0.17286 0.2928-0.26458 0.46919-0.26458 0.22578 0 0.32456 0.13758 0.32456 0.45861v1.0478h0.28928v-1.0866c0-0.43744-0.16228-0.67027-0.52211-0.67027-0.23637 0-0.41275 0.127-0.57503 0.28927h-0.0106l-0.0247-0.24694h-0.23989z"/>
    <path d="m268.54 185.87c0 0.56091 0.36336 0.89605 0.82197 0.89605 0.23284 0 0.41628-0.0811 0.56445-0.17639l-0.10231-0.1905c-0.127 0.0811-0.26458 0.13406-0.42686 0.13406-0.32808 0-0.55033-0.23284-0.5715-0.60325h1.1571c7e-3 -0.0423 0.0106-0.0988 0.0106-0.15875 0-0.49036-0.24694-0.80433-0.68438-0.80433-0.39159 0-0.76906 0.34219-0.76906 0.90311zm0.28222-0.13053c0.0353-0.34572 0.254-0.54328 0.49389-0.54328 0.26811 0 0.42333 0.19403 0.42333 0.54328z"/>
    <path d="m270.41 186.73h0.28927v-1.2418c0.17286-0.17286 0.29281-0.26458 0.4692-0.26458 0.22577 0 0.32455 0.13758 0.32455 0.45861v1.0478h0.28928v-1.0866c0-0.43744-0.16228-0.67027-0.52211-0.67027-0.23636 0-0.41275 0.127-0.57503 0.28927h-0.0106l-0.0247-0.24694h-0.23988z"/>
    <path d="m272.39 186.2c0 0.33867 0.12348 0.5715 0.49036 0.5715 0.10584 0 0.22225-0.0318 0.3175-0.0635l-0.0564-0.21872c-0.0564 0.0212-0.13406 0.0459-0.19403 0.0459-0.19755 0-0.26458-0.11994-0.26458-0.33161v-0.9525h0.46214v-0.23636h-0.46214v-0.47978h-0.24342l-0.0353 0.47978-0.26811 0.0176v0.21872h0.25399z"/>
   </g>
   <path d="m219.38 181.7-1.0669 0.95591v6.1452l1.0669 0.95592h8.4496l1.0668-0.95592v-6.1452l-1.0668-0.95591z" fill="#1d232d" stroke="#47d58a" stroke-linecap="round" stroke-miterlimit="22" stroke-width=".26458"/>
   <path d="m219.41 181.7-1.0925 0.95591 4.7796 2.7595h1.0242l4.7796-2.7595-1.0925-0.95591z" fill="#47d58a"/>
   <g transform="matrix(-.0021183 -.003669 .0037318 -.0021545 229.74 187.42)" fill="#47d58a" stroke-width="123.85">
    <g fill="#47d58a" stroke-width="123.85">
     <path d="m486.41 221.41-364.07-208.5c-52.938-30.318-95.852-5.44-95.852 55.563v415.65c0 61.004 42.914 85.882 95.852 55.563l364.07-208.49c52.938-30.317 52.938-79.473 0-109.79z" fill="#47d58a" stroke-width="123.85"/>
    </g>
   </g>
  </g>
 </g>
</svg>
