<?xml version="1.0" encoding="UTF-8" standalone="no"?>
<svg
   xmlns:dc="http://purl.org/dc/elements/1.1/"
   xmlns:cc="http://creativecommons.org/ns#"
   xmlns:rdf="http://www.w3.org/1999/02/22-rdf-syntax-ns#"
   xmlns:svg="http://www.w3.org/2000/svg"
   xmlns="http://www.w3.org/2000/svg"
   xmlns:sodipodi="http://sodipodi.sourceforge.net/DTD/sodipodi-0.dtd"
   xmlns:inkscape="http://www.inkscape.org/namespaces/inkscape"
   sodipodi:docname="ic_summary.svg"
   inkscape:version="0.92.3 (2405546, 2018-03-11)"
   id="svg8"
   version="1.1"
   viewBox="0 0 26.484798 13.255626"
   height="50.100002"
   width="100.10003">
  <defs
     id="defs2" />
  <sodipodi:namedview
     inkscape:window-maximized="1"
     inkscape:window-y="-8"
     inkscape:window-x="-8"
     inkscape:window-height="1377"
     inkscape:window-width="2560"
     fit-margin-bottom="0"
     fit-margin-right="0"
     fit-margin-left="0"
     fit-margin-top="0"
     showgrid="true"
     inkscape:document-rotation="0"
     inkscape:current-layer="layer1"
     inkscape:document-units="mm"
     inkscape:cy="8.1482193"
     inkscape:cx="105.5169"
     inkscape:zoom="5.6"
     inkscape:pageshadow="2"
     inkscape:pageopacity="0"
     borderopacity="1.0"
     bordercolor="#666666"
     pagecolor="#303030"
     id="base"
     units="px">
    <inkscape:grid
       type="xygrid"
       id="grid1543" />
  </sodipodi:namedview>
  <metadata
     id="metadata5">
    <rdf:RDF>
      <cc:Work
         rdf:about="">
        <dc:format>image/svg+xml</dc:format>
        <dc:type
           rdf:resource="http://purl.org/dc/dcmitype/StillImage" />
        <dc:title />
      </cc:Work>
    </rdf:RDF>
  </metadata>
  <g
     transform="translate(-119.80522,-81.062664)"
     id="layer1"
     inkscape:groupmode="layer"
     inkscape:label="Layer 1">
    <rect
       y="93.825478"
       x="119.90496"
       height="0.30355409"
       width="1.8213246"
       id="rect8471"
       style="fill:#7b8694;fill-opacity:1;stroke:none;stroke-width:0.151777;stroke-linecap:square;stroke-miterlimit:40;stroke-dasharray:none;stroke-dashoffset:1.2;stroke-opacity:1" />
    <rect
       style="fill:#7b8694;fill-opacity:1;stroke:none;stroke-width:0.151777;stroke-linecap:square;stroke-miterlimit:40;stroke-dasharray:none;stroke-dashoffset:1.2;stroke-opacity:1"
       id="rect8473"
       width="1.8213246"
       height="0.30355409"
       x="122.33334"
       y="93.825478" />
    <rect
       y="93.825478"
       x="124.76183"
       height="0.30355409"
       width="1.8213246"
       id="rect8475"
       style="fill:#7b8694;fill-opacity:1;stroke:none;stroke-width:0.151777;stroke-linecap:square;stroke-miterlimit:40;stroke-dasharray:none;stroke-dashoffset:1.2;stroke-opacity:1" />
    <rect
       style="fill:#7b8694;fill-opacity:1;stroke:none;stroke-width:0.151777;stroke-linecap:square;stroke-miterlimit:40;stroke-dasharray:none;stroke-dashoffset:1.2;stroke-opacity:1"
       id="rect8477"
       width="1.8213246"
       height="0.30355409"
       x="127.19023"
       y="93.825478" />
    <rect
       y="93.825478"
       x="129.61871"
       height="0.30355409"
       width="1.8213246"
       id="rect8479"
       style="fill:#7b8694;fill-opacity:1;stroke:none;stroke-width:0.151777;stroke-linecap:square;stroke-miterlimit:40;stroke-dasharray:none;stroke-dashoffset:1.2;stroke-opacity:1" />
    <rect
       style="fill:#7b8694;fill-opacity:1;stroke:none;stroke-width:0.151777;stroke-linecap:square;stroke-miterlimit:40;stroke-dasharray:none;stroke-dashoffset:1.2;stroke-opacity:1"
       id="rect8481"
       width="1.8213246"
       height="0.30355409"
       x="132.04715"
       y="93.825478" />
    <rect
       y="93.825478"
       x="134.47559"
       height="0.30355409"
       width="1.8213246"
       id="rect8483"
       style="fill:#7b8694;fill-opacity:1;stroke:none;stroke-width:0.151777;stroke-linecap:square;stroke-miterlimit:40;stroke-dasharray:none;stroke-dashoffset:1.2;stroke-opacity:1" />
    <rect
       style="fill:#7b8694;fill-opacity:1;stroke:none;stroke-width:0.151777;stroke-linecap:square;stroke-miterlimit:40;stroke-dasharray:none;stroke-dashoffset:1.2;stroke-opacity:1"
       id="rect8485"
       width="1.8213246"
       height="0.30355409"
       x="136.90399"
       y="93.825478" />
    <rect
       y="93.825478"
       x="139.33243"
       height="0.30355409"
       width="1.8213246"
       id="rect8487"
       style="fill:#7b8694;fill-opacity:1;stroke:none;stroke-width:0.151777;stroke-linecap:square;stroke-miterlimit:40;stroke-dasharray:none;stroke-dashoffset:1.2;stroke-opacity:1" />
    <rect
       style="fill:#7b8694;fill-opacity:1;stroke:none;stroke-width:0.151777;stroke-linecap:square;stroke-miterlimit:40;stroke-dasharray:none;stroke-dashoffset:1.2;stroke-opacity:1"
       id="rect8489"
       width="1.8213246"
       height="0.30355409"
       x="141.76086"
       y="93.825478" />
    <rect
       y="93.825478"
       x="144.1893"
       height="0.30355409"
       width="1.8213246"
       id="rect8491"
       style="fill:#7b8694;fill-opacity:1;stroke:none;stroke-width:0.151777;stroke-linecap:square;stroke-miterlimit:40;stroke-dasharray:none;stroke-dashoffset:1.2;stroke-opacity:1" />
    <path
       style="fill:#1d232d;fill-opacity:1;stroke:none;stroke-width:0.0631791;stroke-linecap:square;stroke-miterlimit:40;stroke-dasharray:none;stroke-dashoffset:0;stroke-opacity:1"
       d="m 120.00481,93.2954 h 26.0779 l -10.34122,-8.068807 -5.88797,0.002 z"
       id="path9617"
       inkscape:connector-curvature="0" />
    <g
       id="g9613"
       transform="matrix(0.06523257,0,0,0.05343019,50.858255,63.641644)"
       style="stroke:#a6aeb8;stroke-width:0.535078;stroke-miterlimit:4;stroke-dasharray:none;stroke-opacity:1">
      <path
         d="M 1210.9785,404.02148 1060,555"
         style="fill:none;fill-opacity:1;stroke:#a6aeb8;stroke-width:0.535078;stroke-linecap:square;stroke-miterlimit:4;stroke-dasharray:none;stroke-dashoffset:0;stroke-opacity:1"
         id="path9477"
         inkscape:connector-curvature="0" />
      <path
         d="M 1229.0387,404.02128 1140,555"
         style="fill:none;fill-opacity:1;stroke:#a6aeb8;stroke-width:0.535078;stroke-linecap:square;stroke-miterlimit:4;stroke-dasharray:none;stroke-dashoffset:0;stroke-opacity:1"
         id="path9481"
         inkscape:connector-curvature="0" />
      <path
         d="M 1238.0686,404.02159 1180,555"
         style="fill:none;fill-opacity:1;stroke:#a6aeb8;stroke-width:0.535078;stroke-linecap:square;stroke-miterlimit:4;stroke-dasharray:none;stroke-dashoffset:0;stroke-opacity:1"
         id="path9483"
         inkscape:connector-curvature="0" />
      <path
         d="M 1247.0988,404.02133 1220,555"
         style="fill:none;fill-opacity:1;stroke:#a6aeb8;stroke-width:0.535078;stroke-linecap:square;stroke-miterlimit:4;stroke-dasharray:none;stroke-dashoffset:0;stroke-opacity:1"
         id="path9485"
         inkscape:connector-curvature="0" />
      <path
         d="M 1256.1288,404.02148 1260,555"
         style="fill:none;fill-opacity:1;stroke:#a6aeb8;stroke-width:0.535078;stroke-linecap:square;stroke-miterlimit:4;stroke-dasharray:none;stroke-dashoffset:0;stroke-opacity:1"
         id="path9487"
         inkscape:connector-curvature="0" />
      <path
         d="M 1265.1588,404.02135 1300,555"
         style="fill:none;fill-opacity:1;stroke:#a6aeb8;stroke-width:0.535078;stroke-linecap:square;stroke-miterlimit:4;stroke-dasharray:none;stroke-dashoffset:0;stroke-opacity:1"
         id="path9489"
         inkscape:connector-curvature="0" />
      <path
         d="M 1274.1889,404.02169 1340,555"
         style="fill:none;fill-opacity:1;stroke:#a6aeb8;stroke-width:0.535078;stroke-linecap:square;stroke-miterlimit:4;stroke-dasharray:none;stroke-dashoffset:0;stroke-opacity:1"
         id="path9491"
         inkscape:connector-curvature="0" />
      <path
         d="M 1283.2188,404.02141 1380,555"
         style="fill:none;fill-opacity:1;stroke:#a6aeb8;stroke-width:0.535078;stroke-linecap:square;stroke-miterlimit:4;stroke-dasharray:none;stroke-dashoffset:0;stroke-opacity:1"
         id="path9493"
         inkscape:connector-curvature="0" />
      <path
         d="M 1292.2486,404.02105 1420,555"
         style="fill:none;fill-opacity:1;stroke:#a6aeb8;stroke-width:0.535078;stroke-linecap:square;stroke-miterlimit:4;stroke-dasharray:none;stroke-dashoffset:0;stroke-opacity:1"
         id="path9495"
         inkscape:connector-curvature="0" />
      <path
         d="M 1220.0083,404.02185 1100,555"
         style="fill:none;fill-opacity:1;stroke:#a6aeb8;stroke-width:0.535078;stroke-linecap:square;stroke-miterlimit:4;stroke-dasharray:none;stroke-dashoffset:0;stroke-opacity:1"
         id="path9497"
         inkscape:connector-curvature="0" />
      <path
         sodipodi:nodetypes="cc"
         inkscape:connector-curvature="0"
         id="path9499"
         d="m 1060,555 h 399.7683"
         style="fill:none;fill-opacity:1;stroke:#a6aeb8;stroke-width:0.535078;stroke-linecap:square;stroke-miterlimit:4;stroke-dasharray:none;stroke-dashoffset:0;stroke-opacity:1" />
      <path
         sodipodi:nodetypes="cc"
         style="fill:none;fill-opacity:1;stroke:#a6aeb8;stroke-width:0.535078;stroke-linecap:square;stroke-miterlimit:4;stroke-dasharray:none;stroke-dashoffset:0;stroke-opacity:1"
         d="m 1100,515 h 317.6069"
         id="path9501"
         inkscape:connector-curvature="0" />
      <path
         sodipodi:nodetypes="cc"
         inkscape:connector-curvature="0"
         id="path9503"
         d="M 1130.3604,485 H 1386"
         style="fill:none;fill-opacity:1;stroke:#a6aeb8;stroke-width:0.535078;stroke-linecap:square;stroke-miterlimit:4;stroke-dasharray:none;stroke-dashoffset:0;stroke-opacity:1" />
      <path
         sodipodi:nodetypes="cc"
         style="fill:none;fill-opacity:1;stroke:#a6aeb8;stroke-width:0.535078;stroke-linecap:square;stroke-miterlimit:4;stroke-dasharray:none;stroke-dashoffset:0;stroke-opacity:1"
         d="M 1150.7051,465 H 1365"
         id="path9505"
         inkscape:connector-curvature="0" />
      <path
         sodipodi:nodetypes="cc"
         inkscape:connector-curvature="0"
         id="path9507"
         d="M 1167.3707,448 H 1347"
         style="fill:none;fill-opacity:1;stroke:#a6aeb8;stroke-width:0.535078;stroke-linecap:square;stroke-miterlimit:4;stroke-dasharray:none;stroke-dashoffset:0;stroke-opacity:1" />
      <path
         sodipodi:nodetypes="cc"
         style="fill:none;fill-opacity:1;stroke:#a6aeb8;stroke-width:0.535078;stroke-linecap:square;stroke-miterlimit:4;stroke-dasharray:none;stroke-dashoffset:0;stroke-opacity:1"
         d="M 1181.5367,434 H 1332.139"
         id="path9509"
         inkscape:connector-curvature="0" />
      <path
         sodipodi:nodetypes="cc"
         inkscape:connector-curvature="0"
         id="path9511"
         d="M 1192.2949,423 H 1320.869"
         style="fill:none;fill-opacity:1;stroke:#a6aeb8;stroke-width:0.535078;stroke-linecap:square;stroke-miterlimit:4;stroke-dasharray:none;stroke-dashoffset:0;stroke-opacity:1" />
      <path
         sodipodi:nodetypes="cc"
         style="fill:none;fill-opacity:1;stroke:#a6aeb8;stroke-width:0.535078;stroke-linecap:square;stroke-miterlimit:4;stroke-dasharray:none;stroke-dashoffset:0;stroke-opacity:1"
         d="m 1199.278,416 h 114.165"
         id="path9513"
         inkscape:connector-curvature="0" />
      <path
         sodipodi:nodetypes="cc"
         inkscape:connector-curvature="0"
         id="path9515"
         d="M 1204.2621,411 H 1308"
         style="fill:none;fill-opacity:1;stroke:#a6aeb8;stroke-width:0.535078;stroke-linecap:square;stroke-miterlimit:4;stroke-dasharray:none;stroke-dashoffset:0;stroke-opacity:1" />
      <path
         sodipodi:nodetypes="cc"
         style="fill:none;fill-opacity:1;stroke:#a6aeb8;stroke-width:0.535078;stroke-linecap:square;stroke-miterlimit:4;stroke-dasharray:none;stroke-dashoffset:0;stroke-opacity:1"
         d="M 1208.3707,407 H 1304"
         id="path9517"
         inkscape:connector-curvature="0" />
      <path
         sodipodi:nodetypes="cc"
         inkscape:connector-curvature="0"
         id="path9519"
         d="m 1212,404 h 88.9017"
         style="fill:none;fill-opacity:1;stroke:#a6aeb8;stroke-width:0.535078;stroke-linecap:square;stroke-miterlimit:4;stroke-dasharray:none;stroke-dashoffset:0;stroke-opacity:1" />
      <path
         style="fill:none;fill-opacity:1;stroke:#a6aeb8;stroke-width:0.535078;stroke-linecap:square;stroke-miterlimit:4;stroke-dasharray:none;stroke-dashoffset:0;stroke-opacity:1"
         d="M 1301.2397,403.98413 1460,555"
         id="path9521"
         inkscape:connector-curvature="0"
         sodipodi:nodetypes="cc" />
    </g>
    <path
       inkscape:connector-curvature="0"
       d="m 140.8017,89.147487 v 0.11726 h -0.23452 v 0.117397 h -0.1174 v 0.11726 h -0.11726 v 0.234651 h -0.1174 v 0.821224 0.117259 0.117393 h 0.1174 v -0.117393 h 0.11726 v -0.117259 h 0.1174 v 0.117259 h 0.11725 v 0.117393 h 0.23466 v -0.117393 -0.117259 h 0.23465 v 0.117259 0.117393 h 0.23452 v -0.117393 h 0.11739 v -0.117259 h 0.11727 v 0.117259 h 0.11739 v 0.117393 h 0.11726 v -0.117393 -0.117259 -0.821224 h -0.11726 v -0.234651 h -0.11739 v -0.11726 h -0.11727 V 89.264747 H 141.271 v -0.11726 z"
       style="opacity:1;fill:#cf2f25;fill-opacity:1;stroke:none;stroke-width:0.0694867;stroke-linecap:square;stroke-miterlimit:40;stroke-dashoffset:1.2"
       id="path9121" />
    <path
       inkscape:connector-curvature="0"
       d="m 127.56317,87.096433 v 0.07617 h 0.30493 v -0.07617 z m -0.15246,0.07629 v 0.07617 h -0.0762 v 0.07617 h -0.0763 v 0.152463 h -0.0762 v 0.533554 0.0763 0.07617 h 0.0762 v -0.07617 h 0.0763 v -0.0763 h 0.0762 v 0.0763 h 0.0763 v 0.07617 h 0.15246 v -0.07617 -0.0763 h 0.15246 v 0.0763 0.07617 h 0.15247 v -0.07617 h 0.0762 v -0.0763 h 0.0762 v 0.0763 h 0.0763 v 0.07617 h 0.0762 v -0.07617 -0.0763 -0.533554 h -0.0762 v -0.152463 h -0.0763 v -0.07617 h -0.0762 v -0.07617 z"
       style="opacity:1;fill:#6f8ce9;fill-opacity:1;stroke:none;stroke-width:0.0652137;stroke-linecap:square;stroke-miterlimit:40;stroke-dashoffset:1.2"
       id="path9139" />
    <path
       inkscape:connector-curvature="0"
       d="m 126.21317,87.944213 v 0.0931 h 0.37268 v -0.0931 z m -0.18635,0.09324 v 0.0931 h -0.0932 v 0.09311 h -0.0933 v 0.186342 h -0.0932 v 0.652137 0.09324 0.0931 h 0.0932 v -0.0931 h 0.0933 v -0.09324 h 0.0932 v 0.09324 h 0.0933 v 0.0931 h 0.18634 v -0.0931 -0.09324 h 0.18622 v 0.09324 0.0931 h 0.18634 v -0.0931 h 0.0933 v -0.09324 h 0.093 v 0.09324 h 0.0933 v 0.0931 h 0.0932 v -0.0931 -0.09324 -0.652137 h -0.0932 v -0.186344 h -0.0933 v -0.09311 h -0.0932 v -0.0931 z"
       style="opacity:1;fill:#47d58a;fill-opacity:1;stroke:none;stroke-width:0.0652137;stroke-linecap:square;stroke-miterlimit:40;stroke-dashoffset:1.2"
       id="path9123" />
    <path
       inkscape:connector-curvature="0"
       d="m 128.07647,87.944213 v 0.0931 h 0.37256 v -0.0931 z m -0.18634,0.09324 v 0.0931 h -0.0933 v 0.09311 h -0.093 v 0.186342 h -0.0932 v 0.652137 0.09324 0.0931 h 0.0932 v -0.0931 h 0.093 v -0.09324 h 0.0933 v 0.09324 h 0.0932 v 0.0931 h 0.18634 v -0.0931 -0.09324 h 0.18634 v 0.09324 0.0931 h 0.18635 v -0.0931 h 0.0932 v -0.09324 h 0.0933 v 0.09324 h 0.0932 v 0.0931 h 0.0933 v -0.0931 h -1.5e-4 v -0.09324 h 1.4e-4 v -0.652137 h -0.0933 V 88.22367 h -0.0932 v -0.09311 h -0.0933 v -0.0931 z"
       style="opacity:1;fill:#47d58a;fill-opacity:1;stroke:none;stroke-width:0.0652137;stroke-linecap:square;stroke-miterlimit:40;stroke-dashoffset:1.2"
       id="path9125" />
    <path
       inkscape:connector-curvature="0"
       d="m 129.08767,87.096433 v 0.07617 h 0.30493 v -0.07617 z m -0.15246,0.07629 v 0.07617 h -0.0762 v 0.07617 h -0.0763 v 0.152463 h -0.0762 v 0.533554 0.0763 0.07617 h 0.0762 v -0.07617 h 0.0763 v -0.0763 h 0.0762 v 0.0763 h 0.0763 v 0.07617 h 0.15247 v -0.07617 -0.0763 h 0.15233 v 0.0763 0.07617 h 0.15247 v -0.07617 h 0.0763 v -0.0763 h 0.0762 v 0.0763 h 0.0763 v 0.07617 h 0.0762 v -0.07617 -0.0763 -0.533554 h -0.0762 v -0.152463 h -0.0763 v -0.07617 h -0.0762 v -0.07617 z"
       style="opacity:1;fill:#6f8ce9;fill-opacity:1;stroke:none;stroke-width:0.0652137;stroke-linecap:square;stroke-miterlimit:40;stroke-dashoffset:1.2"
       id="path9141" />
    <path
       inkscape:connector-curvature="0"
       d="m 130.61217,87.096433 v 0.07617 h 0.30493 v -0.07617 z m -0.15246,0.07629 v 0.07617 h -0.0762 v 0.07617 h -0.0763 v 0.152463 h -0.0762 v 0.533554 0.0763 0.07617 h 0.0762 v -0.07617 h 0.0763 v -0.0763 h 0.0762 v 0.0763 h 0.0763 v 0.07617 h 0.15234 v -0.07617 -0.0763 h 0.15246 v 0.0763 0.07617 h 0.15246 v -0.07617 h 0.0763 v -0.0763 h 0.0762 v 0.0763 h 0.0762 v 0.07617 h 0.0763 v -0.07617 -0.0763 -0.533554 h -0.0763 v -0.152463 h -0.0762 v -0.07617 h -0.0762 v -0.07617 z"
       style="opacity:1;fill:#6f8ce9;fill-opacity:1;stroke:none;stroke-width:0.0652137;stroke-linecap:square;stroke-miterlimit:40;stroke-dashoffset:1.2"
       id="path9143" />
    <path
       inkscape:connector-curvature="0"
       d="m 129.93966,87.944213 v 0.0931 h 0.37269 v -0.0931 z m -0.18623,0.09324 v 0.0931 h -0.0933 v 0.09311 h -0.0932 v 0.186342 h -0.0933 v 0.652137 0.09324 0.0931 h 0.0933 v -0.0931 h 0.0932 v -0.09324 h 0.0933 v 0.09324 h 0.0931 v 0.0931 h 0.18634 v -0.0931 -0.09324 h 0.18634 v 0.09324 0.0931 h 0.18622 v -0.0931 h 0.0933 v -0.09324 h 0.0932 v 0.09324 h 0.0933 v 0.0931 h 0.0932 v -0.0931 -0.09324 -0.652137 h -0.0932 V 88.22367 h -0.0933 v -0.09311 h -0.0932 v -0.0931 z"
       style="opacity:1;fill:#47d58a;fill-opacity:1;stroke:none;stroke-width:0.0652137;stroke-linecap:square;stroke-miterlimit:40;stroke-dashoffset:1.2"
       id="path9127" />
    <path
       inkscape:connector-curvature="0"
       d="m 122.26161,90.791678 v 0.150628 h -0.30126 v 0.150627 h -0.15062 v 0.150628 h -0.15063 v 0.301254 h -0.15063 v 1.054394 0.15063 0.150628 h 0.15063 v -0.150628 h 0.15063 v -0.15063 h 0.15062 v 0.15063 h 0.15063 v 0.150628 h 0.30126 v -0.150628 -0.15063 h 0.30125 v 0.15063 0.150628 h 0.30126 v -0.150628 h 0.15063 v -0.15063 h 0.15063 v 0.15063 h 0.15062 v 0.150628 h 0.15063 v -0.150628 -0.15063 -1.054394 h -0.15063 v -0.301254 h -0.15062 v -0.150628 h -0.15063 v -0.150627 h -0.30126 v -0.150628 z"
       style="opacity:1;fill:#e9e56f;fill-opacity:1;stroke:none;stroke-width:0.075313;stroke-linecap:square;stroke-miterlimit:40;stroke-dashoffset:1.2"
       id="path9091" />
    <path
       inkscape:connector-curvature="0"
       d="m 125.27417,90.791678 v 0.150628 h -0.30126 v 0.150627 h -0.15063 v 0.150628 h -0.15062 v 0.301254 h -0.15063 v 1.054394 0.15063 0.150628 h 0.15063 v -0.150628 h 0.15062 v -0.15063 h 0.15063 v 0.15063 h 0.15063 v 0.150628 h 0.30126 v -0.150628 -0.15063 h 0.30125 v 0.15063 0.150628 h 0.30126 v -0.150628 h 0.15062 v -0.15063 h 0.15063 v 0.15063 h 0.15063 v 0.150628 h 0.15063 v -0.150628 -0.15063 -1.054394 h -0.15063 v -0.301254 h -0.15063 v -0.150628 h -0.15063 v -0.150627 h -0.30125 v -0.150628 z"
       style="opacity:1;fill:#e9e56f;fill-opacity:1;stroke:none;stroke-width:0.075313;stroke-linecap:square;stroke-miterlimit:40;stroke-dashoffset:1.2"
       id="path9093" />
    <path
       inkscape:connector-curvature="0"
       d="m 128.28672,90.791678 v 0.150628 h -0.30125 v 0.150627 h -0.15063 v 0.150628 h -0.15063 v 0.301254 h -0.15062 v 1.054394 0.15063 0.150628 h 0.15062 v -0.150628 h 0.15063 v -0.15063 h 0.15063 v 0.15063 h 0.15063 v 0.150628 h 0.30124 v -0.150628 -0.15063 h 0.30126 v 0.15063 0.150628 h 0.30125 v -0.150628 h 0.15064 v -0.15063 h 0.15062 v 0.15063 h 0.15063 v 0.150628 h 0.15062 v -0.150628 -0.15063 -1.054394 h -0.15062 v -0.301254 h -0.15063 v -0.150628 h -0.15062 v -0.150627 h -0.30125 v -0.150628 z"
       style="opacity:1;fill:#e9e56f;fill-opacity:1;stroke:none;stroke-width:0.075313;stroke-linecap:square;stroke-miterlimit:40;stroke-dashoffset:1.2"
       id="path9095" />
    <path
       inkscape:connector-curvature="0"
       d="m 131.29927,90.791678 v 0.150628 h -0.30126 v 0.150627 h -0.15062 v 0.150628 h -0.15063 v 0.301254 h -0.15063 v 1.054394 0.15063 0.150628 h 0.15063 v -0.150628 h 0.15063 v -0.15063 h 0.15062 v 0.15063 h 0.15063 v 0.150628 h 0.30126 v -0.150628 -0.15063 h 0.30125 v 0.15063 0.150628 h 0.30126 v -0.150628 h 0.15063 v -0.15063 h 0.15062 v 0.15063 h 0.15063 v 0.150628 h 0.15064 v -0.150628 -0.15063 -1.054394 h -0.15064 v -0.301254 h -0.15063 v -0.150628 h -0.15062 v -0.150627 h -0.30126 v -0.150628 z"
       style="opacity:1;fill:#e9e56f;fill-opacity:1;stroke:none;stroke-width:0.075313;stroke-linecap:square;stroke-miterlimit:40;stroke-dashoffset:1.2"
       id="path9097" />
    <path
       inkscape:connector-curvature="0"
       d="m 134.31183,90.791678 v 0.150628 h -0.30126 v 0.150627 h -0.15063 v 0.150628 h -0.15062 v 0.301254 h -0.15063 v 1.054394 0.15063 0.150628 h 0.15063 v -0.150628 h 0.15062 v -0.15063 h 0.15063 v 0.15063 h 0.15063 v 0.150628 h 0.30125 v -0.150628 -0.15063 h 0.30126 v 0.15063 0.150628 h 0.30126 v -0.150628 h 0.15062 v -0.15063 h 0.15063 v 0.15063 h 0.15063 v 0.150628 h 0.15063 v -0.150628 -0.15063 -1.054394 h -0.15063 v -0.301254 h -0.15063 v -0.150628 h -0.15063 v -0.150627 h -0.30125 v -0.150628 z"
       style="opacity:1;fill:#e9e56f;fill-opacity:1;stroke:none;stroke-width:0.075313;stroke-linecap:square;stroke-miterlimit:40;stroke-dashoffset:1.2"
       id="path9099" />
    <path
       inkscape:connector-curvature="0"
       d="m 137.32438,90.791678 v 0.150628 h -0.30125 v 0.150627 h -0.15063 v 0.150628 h -0.15063 v 0.301254 h -0.15063 v 1.054394 0.15063 0.150628 h 0.15063 v -0.150628 h 0.15063 v -0.15063 h 0.15063 v 0.15063 h 0.15063 v 0.150628 h 0.30125 v -0.150628 -0.15063 h 0.30126 v 0.15063 0.150628 h 0.30125 v -0.150628 h 0.15063 v -0.15063 h 0.15063 v 0.15063 h 0.15063 v 0.150628 h 0.15062 v -0.150628 -0.15063 -1.054394 h -0.15062 v -0.301254 h -0.15063 v -0.150628 h -0.15063 v -0.150627 h -0.30126 v -0.150628 z"
       style="opacity:1;fill:#e9e56f;fill-opacity:1;stroke:none;stroke-width:0.075313;stroke-linecap:square;stroke-miterlimit:40;stroke-dashoffset:1.2"
       id="path9101" />
    <path
       inkscape:connector-curvature="0"
       d="m 140.33694,90.791678 v 0.150628 h -0.30126 v 0.150627 h -0.15062 v 0.150628 h -0.15063 v 0.301254 h -0.15063 v 1.054394 0.15063 0.150628 h 0.15063 v -0.150628 h 0.15063 v -0.15063 h 0.15062 v 0.15063 h 0.15063 v 0.150628 h 0.30126 v -0.150628 -0.15063 h 0.30125 v 0.15063 0.150628 h 0.30126 v -0.150628 h 0.15063 v -0.15063 h 0.15063 v 0.15063 h 0.15062 v 0.150628 h 0.15063 v -0.150628 -0.15063 -1.054394 h -0.15063 v -0.301254 h -0.15062 v -0.150628 h -0.15063 v -0.150627 h -0.30126 v -0.150628 z"
       style="opacity:1;fill:#e9e56f;fill-opacity:1;stroke:none;stroke-width:0.075313;stroke-linecap:square;stroke-miterlimit:40;stroke-dashoffset:1.2"
       id="path9103" />
    <path
       inkscape:connector-curvature="0"
       d="m 143.3495,90.791678 v 0.150628 h -0.30126 v 0.150627 h -0.15063 v 0.150628 h -0.15062 v 0.301254 h -0.15063 v 1.054394 0.15063 0.150628 h 0.15063 v -0.150628 h 0.15062 v -0.15063 h 0.15063 v 0.15063 h 0.15063 v 0.150628 h 0.30126 v -0.150628 -0.15063 h 0.30125 v 0.15063 0.150628 h 0.30126 v -0.150628 h 0.15062 v -0.15063 h 0.15063 v 0.15063 h 0.15063 v 0.150628 h 0.15063 v -0.150628 -0.15063 -1.054394 h -0.15063 v -0.301254 h -0.15063 v -0.150628 h -0.15063 v -0.150627 h -0.30125 v -0.150628 z"
       style="opacity:1;fill:#e9e56f;fill-opacity:1;stroke:none;stroke-width:0.075313;stroke-linecap:square;stroke-miterlimit:40;stroke-dashoffset:1.2"
       id="path9105" />
    <path
       inkscape:connector-curvature="0"
       d="m 124.37753,89.147487 v 0.11726 h -0.23466 v 0.117397 h -0.11727 v 0.11726 h -0.11739 v 0.234651 h -0.11726 v 0.821224 0.117259 0.117393 h 0.11726 v -0.117393 h 0.11739 v -0.117259 h 0.11727 v 0.117259 h 0.11739 v 0.117393 h 0.23466 v -0.117393 -0.117259 h 0.23451 v 0.117259 0.117393 h 0.23466 v -0.117393 h 0.1174 v -0.117259 h 0.11725 v 0.117259 h 0.11727 v 0.117393 h 0.11739 v -0.117393 -0.117259 -0.821224 h -0.11739 v -0.234651 h -0.11727 v -0.11726 h -0.11725 v -0.117397 h -0.23465 v -0.11726 z"
       style="opacity:1;fill:#cf2f25;fill-opacity:1;stroke:none;stroke-width:0.0694867;stroke-linecap:square;stroke-miterlimit:40;stroke-dashoffset:1.2"
       id="path9107" />
    <path
       inkscape:connector-curvature="0"
       d="m 126.72379,89.147487 v 0.11726 h -0.23452 v 0.117397 h -0.11739 v 0.11726 h -0.11726 v 0.234651 h -0.11739 v 0.821224 0.117259 0.117393 h 0.11739 v -0.117393 h 0.11726 v -0.117259 h 0.11739 v 0.117259 h 0.11727 v 0.117393 h 0.23465 v -0.117393 -0.117259 h 0.23466 v 0.117259 0.117393 h 0.23452 v -0.117393 h 0.11739 v -0.117259 h 0.11726 v 0.117259 h 0.11739 v 0.117393 h 0.11726 v -0.117393 -0.117259 -0.821224 h -0.11726 v -0.234651 h -0.11739 v -0.11726 h -0.11726 v -0.117397 h -0.23466 v -0.11726 z"
       style="opacity:1;fill:#cf2f25;fill-opacity:1;stroke:none;stroke-width:0.0694867;stroke-linecap:square;stroke-miterlimit:40;stroke-dashoffset:1.2"
       id="path9109" />
    <path
       inkscape:connector-curvature="0"
       d="m 132.13668,87.096433 v 0.07617 h 0.30479 v -0.07617 z m -0.15247,0.07629 v 0.07617 h -0.0763 v 0.07617 h -0.0762 v 0.152463 h -0.0763 v 0.533554 0.0763 0.07617 h 0.0763 v -0.07617 h 0.0762 v -0.0763 h 0.0763 v 0.0763 h 0.0762 v 0.07617 h 0.15247 v -0.07617 -0.0763 h 0.15246 v 0.0763 0.07617 h 0.15246 v -0.07617 h 0.0762 v -0.0763 h 0.0763 v 0.0763 h 0.0762 v 0.07617 h 0.0763 v -0.07617 -0.0763 -0.533554 h -0.0763 v -0.152463 h -0.0762 v -0.07617 h -0.0763 v -0.07617 z"
       style="opacity:1;fill:#6f8ce9;fill-opacity:1;stroke:none;stroke-width:0.0652137;stroke-linecap:square;stroke-miterlimit:40;stroke-dashoffset:1.2"
       id="path9145" />
    <path
       inkscape:connector-curvature="0"
       d="m 131.80296,87.944213 v 0.0931 h 0.37256 v -0.0931 z m -0.18634,0.09324 v 0.0931 h -0.0932 v 0.09311 h -0.0933 v 0.186342 h -0.0932 v 0.652137 0.09324 0.0931 h 0.0932 v -0.0931 h 0.0933 v -0.09324 h 0.0932 v 0.09324 h 0.0933 v 0.0931 h 0.18621 v -0.0931 -0.09324 h 0.18634 v 0.09324 0.0931 h 0.18635 v -0.0931 h 0.093 v -0.09324 h 0.0933 v 0.09324 h 0.0932 v 0.0931 h 0.0933 v -0.0931 -0.09324 -0.652137 h -0.0933 V 88.22367 h -0.0932 v -0.09311 h -0.0932 v -0.0931 z"
       style="opacity:1;fill:#47d58a;fill-opacity:1;stroke:none;stroke-width:0.0652137;stroke-linecap:square;stroke-miterlimit:40;stroke-dashoffset:1.2"
       id="path9129" />
    <path
       inkscape:connector-curvature="0"
       d="m 129.0702,89.147487 v 0.11726 h -0.23466 v 0.117397 h -0.11725 v 0.11726 h -0.1174 v 0.234651 h -0.11726 v 0.821224 0.117259 0.117393 h 0.11726 v -0.117393 h 0.11726 v -0.117259 h 0.11739 v 0.117259 h 0.11727 v 0.117393 h 0.23465 v -0.117393 -0.117259 h 0.23466 v 0.117259 0.117393 h 0.23465 v -0.117393 h 0.11726 v -0.117259 h 0.11739 v 0.117259 h 0.11726 v 0.117393 h 0.11727 v -0.117393 -0.117259 -0.821224 h -0.11727 v -0.234651 h -0.11726 v -0.11726 h -0.11739 v -0.117397 h -0.23466 v -0.11726 z"
       style="opacity:1;fill:#cf2f25;fill-opacity:1;stroke:none;stroke-width:0.0694867;stroke-linecap:square;stroke-miterlimit:40;stroke-dashoffset:1.2"
       id="path9111" />
    <path
       inkscape:connector-curvature="0"
       d="m 133.66105,87.096433 v 0.07617 h 0.30493 v -0.07617 z m -0.15234,0.07629 v 0.07617 h -0.0763 v 0.07617 h -0.0762 v 0.152463 h -0.0763 v 0.533554 0.0763 0.07617 h 0.0763 v -0.07617 h 0.0762 v -0.0763 h 0.0763 v 0.0763 h 0.0762 v 0.07617 h 0.15247 v -0.07617 -0.0763 h 0.15246 v 0.0763 0.07617 h 0.15246 v -0.07617 h 0.0762 v -0.0763 h 0.0763 v 0.0763 h 0.0762 v 0.07617 h 0.0763 v -0.07617 -0.0763 -0.533554 h -0.0763 v -0.152463 h -0.0762 v -0.07617 h -0.0763 v -0.07617 z"
       style="opacity:1;fill:#6f8ce9;fill-opacity:1;stroke:none;stroke-width:0.0652137;stroke-linecap:square;stroke-miterlimit:40;stroke-dashoffset:1.2"
       id="path9147" />
    <path
       inkscape:connector-curvature="0"
       d="m 133.66614,87.944213 v 0.0931 h 0.37269 v -0.0931 z m -0.18621,0.09324 v 0.0931 h -0.0933 v 0.09311 h -0.0932 v 0.186342 h -0.0933 v 0.652137 0.09324 0.0931 h 0.0933 v -0.0931 h 0.0932 v -0.09324 h 0.0933 v 0.09324 h 0.0932 v 0.0931 h 0.18634 v -0.0931 -0.09324 h 0.18634 v 0.09324 0.0931 h 0.18636 v -0.0931 h 0.0932 v -0.09324 h 0.093 v 0.09324 h 0.0933 v 0.0931 h 0.0932 v -0.0931 -0.09324 -0.652137 h -0.0932 V 88.22367 h -0.0932 v -0.09311 h -0.0933 v -0.0931 z"
       style="opacity:1;fill:#47d58a;fill-opacity:1;stroke:none;stroke-width:0.0652137;stroke-linecap:square;stroke-miterlimit:40;stroke-dashoffset:1.2"
       id="path9131" />
    <path
       inkscape:connector-curvature="0"
       d="m 131.41648,89.147487 v 0.11726 h -0.23466 v 0.117397 h -0.11726 v 0.11726 h -0.11739 v 0.234651 h -0.11727 v 0.821224 0.117259 0.117393 h 0.11727 v -0.117393 h 0.11739 v -0.117259 h 0.11726 v 0.117259 h 0.11739 v 0.117393 h 0.23466 v -0.117393 -0.117259 h 0.23452 v 0.117259 0.117393 h 0.23465 v -0.117393 h 0.11725 v -0.117259 h 0.11741 v 0.117259 h 0.11725 v 0.117393 h 0.1174 v -0.117393 -0.117259 -0.821224 h -0.1174 v -0.234651 h -0.11725 v -0.11726 h -0.11727 v -0.117397 h -0.23465 v -0.11726 z"
       style="opacity:1;fill:#cf2f25;fill-opacity:1;stroke:none;stroke-width:0.0694867;stroke-linecap:square;stroke-miterlimit:40;stroke-dashoffset:1.2"
       id="path9113" />
    <path
       inkscape:connector-curvature="0"
       d="m 135.18555,87.096433 v 0.07617 h 0.30492 v -0.07617 z m -0.15234,0.07629 v 0.07617 h -0.0763 v 0.07617 h -0.0762 v 0.152463 h -0.0763 v 0.533554 0.0763 0.07617 h 0.0763 v -0.07617 h 0.0762 v -0.0763 h 0.0763 v 0.0763 h 0.0762 v 0.07617 h 0.15246 v -0.07617 -0.0763 h 0.15247 v 0.0763 0.07617 h 0.15246 v -0.07617 h 0.0762 v -0.0763 h 0.0762 v 0.0763 h 0.0763 v 0.07617 h 0.0762 v -0.07617 -0.0763 -0.533554 h -0.0762 v -0.152463 h -0.0762 v -0.07617 h -0.0763 v -0.07617 z"
       style="opacity:1;fill:#6f8ce9;fill-opacity:1;stroke:none;stroke-width:0.0652137;stroke-linecap:square;stroke-miterlimit:40;stroke-dashoffset:1.2"
       id="path9149" />
    <path
       inkscape:connector-curvature="0"
       d="m 135.52945,87.944213 v 0.0931 h 0.37268 v -0.0931 z m -0.18635,0.09324 v 0.0931 h -0.0932 v 0.09311 h -0.0933 v 0.186342 h -0.0931 v 0.652137 0.09324 0.0931 h 0.0931 v -0.0931 h 0.0933 v -0.09324 h 0.0932 v 0.09324 h 0.0933 v 0.0931 h 0.18635 v -0.0931 -0.09324 h 0.18621 v 0.09324 0.0931 h 0.18634 v -0.0931 h 0.0933 v -0.09324 h 0.093 v 0.09324 h 0.0932 v 0.0931 h 0.0933 v -0.0931 -0.09324 -0.652137 h -0.0933 V 88.22367 h -0.0932 v -0.09311 h -0.093 v -0.0931 z"
       style="opacity:1;fill:#47d58a;fill-opacity:1;stroke:none;stroke-width:0.0652137;stroke-linecap:square;stroke-miterlimit:40;stroke-dashoffset:1.2"
       id="path9133" />
    <path
       inkscape:connector-curvature="0"
       d="m 133.76274,89.147487 v 0.11726 h -0.23451 v 0.117397 h -0.11739 v 0.11726 h -0.11727 v 0.234651 h -0.1174 v 0.821224 0.117259 0.117393 h 0.1174 v -0.117393 h 0.11727 v -0.117259 h 0.11739 v 0.117259 h 0.11725 v 0.117393 h 0.23466 v -0.117393 -0.117259 h 0.23465 v 0.117259 0.117393 h 0.23452 v -0.117393 h 0.1174 v -0.117259 h 0.11725 v 0.117259 h 0.11739 v 0.117393 h 0.11727 v -0.117393 -0.117259 -0.821224 h -0.11727 v -0.234651 h -0.11739 v -0.11726 h -0.11725 v -0.117397 h -0.23465 v -0.11726 z"
       style="opacity:1;fill:#cf2f25;fill-opacity:1;stroke:none;stroke-width:0.0694867;stroke-linecap:square;stroke-miterlimit:40;stroke-dashoffset:1.2"
       id="path9115" />
    <path
       inkscape:connector-curvature="0"
       d="m 136.71004,87.096433 v 0.07617 h 0.30493 v -0.07617 z m -0.15246,0.07629 v 0.07617 h -0.0762 v 0.07617 h -0.0763 v 0.152463 h -0.0762 v 0.533554 0.0763 0.07617 h 0.0762 v -0.07617 h 0.0763 v -0.0763 h 0.0762 v 0.0763 h 0.0763 v 0.07617 h 0.15247 v -0.07617 -0.0763 h 0.15246 v 0.0763 0.07617 h 0.15234 v -0.07617 h 0.0763 v -0.0763 h 0.0762 v 0.0763 h 0.0763 v 0.07617 h 0.0762 v -0.07617 -0.0763 -0.533554 h -0.0762 v -0.152463 h -0.0763 v -0.07617 h -0.0762 v -0.07617 z"
       style="opacity:1;fill:#6f8ce9;fill-opacity:1;stroke:none;stroke-width:0.0652137;stroke-linecap:square;stroke-miterlimit:40;stroke-dashoffset:1.2"
       id="path9151" />
    <path
       inkscape:connector-curvature="0"
       d="m 137.39276,87.944213 v 0.0931 h 0.37256 v -0.0931 z m -0.18635,0.09324 v 0.0931 h -0.0933 v 0.09311 h -0.0932 v 0.186342 h -0.0933 v 0.652137 0.09324 0.0931 h 0.0933 v -0.0931 h 0.0932 v -0.09324 h 0.0933 v 0.09324 h 0.0932 v 0.0931 h 0.18634 v -0.0931 -0.09324 h 0.18634 v 0.09324 0.0931 h 0.18635 v -0.0931 h 0.0932 v -0.09324 h 0.0933 v 0.09324 h 0.0932 v 0.0931 h 0.0932 v -0.0931 -0.09324 -0.652137 h -0.0932 V 88.22367 h -0.0932 v -0.09311 h -0.0933 v -0.0931 z"
       style="opacity:1;fill:#47d58a;fill-opacity:1;stroke:none;stroke-width:0.0652137;stroke-linecap:square;stroke-miterlimit:40;stroke-dashoffset:1.2"
       id="path9135" />
    <path
       inkscape:connector-curvature="0"
       d="m 136.10901,89.147487 v 0.11726 h -0.23452 v 0.117397 h -0.11725 v 0.11726 h -0.1174 v 0.234651 h -0.11725 v 0.821224 0.117259 0.117393 h 0.11725 v -0.117393 h 0.11726 v -0.117259 h 0.11739 v 0.117259 h 0.11727 v 0.117393 h 0.23464 v -0.117393 -0.117259 h 0.23467 v 0.117259 0.117393 h 0.23464 v -0.117393 h 0.11727 v -0.117259 h 0.11726 v 0.117259 h 0.11739 v 0.117393 h 0.11726 v -0.117393 -0.117259 -0.821224 h -0.11726 v -0.234651 h -0.11726 v -0.11726 h -0.11739 v -0.117397 h -0.23466 v -0.11726 z"
       style="opacity:1;fill:#cf2f25;fill-opacity:1;stroke:none;stroke-width:0.0694867;stroke-linecap:square;stroke-miterlimit:40;stroke-dashoffset:1.2"
       id="path9117" />
    <path
       inkscape:connector-curvature="0"
       d="m 138.23455,87.096433 v 0.07617 h 0.30493 v -0.07617 z m -0.15246,0.07629 v 0.07617 h -0.0762 v 0.07617 h -0.0763 v 0.152463 h -0.0762 v 0.533554 0.0763 0.07617 h 0.0762 v -0.07617 h 0.0763 v -0.0763 h 0.0762 v 0.0763 h 0.0763 v 0.07617 h 0.15247 v -0.07617 -0.0763 h 0.15233 v 0.0763 0.07617 h 0.15247 v -0.07617 h 0.0763 v -0.0763 h 0.0762 v 0.0763 h 0.0763 v 0.07617 h 0.0762 v -0.07617 -0.0763 -0.533554 h -0.0762 v -0.152463 h -0.0763 v -0.07617 h -0.0762 v -0.07617 z"
       style="opacity:1;fill:#6f8ce9;fill-opacity:1;stroke:none;stroke-width:0.0652137;stroke-linecap:square;stroke-miterlimit:40;stroke-dashoffset:1.2"
       id="path9153" />
    <path
       inkscape:connector-curvature="0"
       d="m 139.25594,87.944213 v 0.0931 h 0.37269 v -0.0931 z m -0.18634,0.09324 v 0.0931 h -0.0932 v 0.09311 h -0.0933 v 0.186342 H 138.79 v 0.652137 0.09324 0.0931 h 0.0932 v -0.0931 h 0.0933 v -0.09324 h 0.0932 v 0.09324 h 0.0933 v 0.0931 h 0.18634 v -0.0931 -0.09324 h 0.18622 v 0.09324 0.0931 h 0.18633 v -0.0931 h 0.0933 v -0.09324 h 0.0932 v 0.09324 h 0.0933 v 0.0931 h 0.0932 v -0.0931 -0.09324 -0.652137 h -0.0932 V 88.22367 h -0.0933 v -0.09311 h -0.0932 v -0.0931 z"
       style="opacity:1;fill:#47d58a;fill-opacity:1;stroke:none;stroke-width:0.0652137;stroke-linecap:square;stroke-miterlimit:40;stroke-dashoffset:1.2"
       id="path9137" />
    <path
       inkscape:connector-curvature="0"
       d="m 138.45542,89.147487 v 0.11726 h -0.23466 v 0.117397 h -0.11725 v 0.11726 h -0.11739 v 0.234651 h -0.11727 v 0.821224 0.117259 0.117393 h 0.11727 v -0.117393 h 0.11739 v -0.117259 h 0.11725 v 0.117259 h 0.1174 v 0.117393 h 0.23466 v -0.117393 h -1.4e-4 v -0.117259 h 0.23466 v 0.117259 0.117393 h 0.23465 v -0.117393 h 0.11727 v -0.117259 h 0.11739 v 0.117259 h 0.11726 v 0.117393 h 0.11739 v -0.117393 -0.117259 -0.821224 h -0.11739 v -0.234651 h -0.11726 v -0.11726 h -0.11725 v -0.117397 h -0.23466 v -0.11726 z"
       style="opacity:1;fill:#cf2f25;fill-opacity:1;stroke:none;stroke-width:0.0694867;stroke-linecap:square;stroke-miterlimit:40;stroke-dashoffset:1.2"
       id="path9119" />
    <rect
       inkscape:export-ydpi="498.70001"
       inkscape:export-xdpi="498.70001"
       y="82.857536"
       x="130.5079"
       height="2.5681105"
       width="5.2171087"
       id="rect4092"
       style="opacity:1;fill:#1d232d;fill-opacity:1;stroke:#7b8694;stroke-width:0.0652137;stroke-linecap:square;stroke-miterlimit:40;stroke-dashoffset:1.2;stroke-opacity:1" />
    <path
       inkscape:export-ydpi="498.70001"
       inkscape:export-xdpi="498.70001"
       inkscape:connector-curvature="0"
       d="m 131.1823,83.08034 a 0.3912832,0.39002909 0 0 1 0.27664,0.11427 l -0.27664,0.275763 0.27664,0.275763 a 0.3912832,0.39002909 0 0 1 -0.27664,0.11427 0.3912832,0.39002909 0 0 1 -0.39129,-0.39003 0.3912832,0.39002909 0 0 1 0.39129,-0.390031 z"
       style="opacity:1;fill:#e9e56f;fill-opacity:1;stroke:none;stroke-width:0.0652137;stroke-linecap:round;stroke-miterlimit:40;stroke-dasharray:none;stroke-opacity:1"
       id="path4094" />
    <ellipse
       inkscape:export-ydpi="498.70001"
       inkscape:export-xdpi="498.70001"
       ry="0.097507268"
       rx="0.097820796"
       style="opacity:1;fill:#f3f4f5;fill-opacity:1;stroke:none;stroke-width:0.0652135;stroke-linecap:round;stroke-miterlimit:40;stroke-dasharray:none;stroke-opacity:1"
       id="ellipse4096"
       cx="131.94873"
       cy="-83.510567"
       transform="scale(1,-1)" />
    <ellipse
       inkscape:export-ydpi="498.70001"
       inkscape:export-xdpi="498.70001"
       ry="0.097507268"
       rx="0.097820796"
       transform="scale(1,-1)"
       cy="-83.510567"
       cx="132.53564"
       id="ellipse4098"
       style="opacity:1;fill:#f3f4f5;fill-opacity:1;stroke:none;stroke-width:0.0652135;stroke-linecap:round;stroke-miterlimit:40;stroke-dasharray:none;stroke-opacity:1" />
    <ellipse
       inkscape:export-ydpi="498.70001"
       inkscape:export-xdpi="498.70001"
       ry="0.097507268"
       rx="0.097820796"
       style="opacity:1;fill:#f3f4f5;fill-opacity:1;stroke:none;stroke-width:0.0652135;stroke-linecap:round;stroke-miterlimit:40;stroke-dasharray:none;stroke-opacity:1"
       id="ellipse4100"
       cx="133.12257"
       cy="-83.510567"
       transform="scale(1,-1)" />
    <ellipse
       inkscape:export-ydpi="498.70001"
       inkscape:export-xdpi="498.70001"
       ry="0.097507268"
       rx="0.097820796"
       transform="scale(1,-1)"
       cy="-83.510567"
       cx="133.70949"
       id="ellipse4102"
       style="opacity:1;fill:#f3f4f5;fill-opacity:1;stroke:none;stroke-width:0.0652135;stroke-linecap:round;stroke-miterlimit:40;stroke-dasharray:none;stroke-opacity:1" />
    <ellipse
       inkscape:export-ydpi="498.70001"
       inkscape:export-xdpi="498.70001"
       ry="0.097507268"
       rx="0.097820796"
       style="opacity:1;fill:#f3f4f5;fill-opacity:1;stroke:none;stroke-width:0.0652135;stroke-linecap:round;stroke-miterlimit:40;stroke-dasharray:none;stroke-opacity:1"
       id="ellipse4104"
       cx="134.29642"
       cy="-83.510567"
       transform="scale(1,-1)" />
    <ellipse
       inkscape:export-ydpi="498.70001"
       inkscape:export-xdpi="498.70001"
       ry="0.097507268"
       rx="0.097820796"
       transform="scale(1,-1)"
       cy="-83.510567"
       cx="134.88335"
       id="ellipse4106"
       style="opacity:1;fill:#f3f4f5;fill-opacity:1;stroke:none;stroke-width:0.0652135;stroke-linecap:round;stroke-miterlimit:40;stroke-dasharray:none;stroke-opacity:1" />
    <rect
       inkscape:export-ydpi="498.70001"
       inkscape:export-xdpi="498.70001"
       y="85.400871"
       x="130.37747"
       height="0.19564159"
       width="5.5431786"
       id="rect4108"
       style="opacity:1;fill:#a6aeb8;fill-opacity:1;stroke:none;stroke-width:0.0652137;stroke-linecap:square;stroke-miterlimit:40;stroke-dashoffset:1.2;stroke-opacity:1" />
    <rect
       inkscape:export-ydpi="498.70001"
       inkscape:export-xdpi="498.70001"
       style="opacity:1;fill:#7b8694;fill-opacity:1;stroke:none;stroke-width:0.0652137;stroke-linecap:square;stroke-miterlimit:40;stroke-dashoffset:1.2;stroke-opacity:1"
       id="rect4111"
       width="2.6085465"
       height="0.58284891"
       x="131.81219"
       y="85.596512" />
    <rect
       y="86.24865"
       x="130.11662"
       height="0.065213859"
       width="0.39128318"
       id="rect4113"
       style="fill:#1d232d;fill-opacity:1;stroke-width:0.0652137;stroke-linecap:square;stroke-miterlimit:40;stroke-dashoffset:1.2" />
    <ellipse
       style="opacity:1;fill:#f3f4f5;fill-opacity:1;stroke:none;stroke-width:0.0652135;stroke-linecap:round;stroke-miterlimit:40;stroke-dasharray:none;stroke-opacity:1"
       id="ellipse1015"
       cx="134.88335"
       cy="-84.039726"
       transform="scale(1,-1)"
       rx="0.097820796"
       ry="0.097507268"
       inkscape:export-xdpi="498.70001"
       inkscape:export-ydpi="498.70001" />
    <ellipse
       inkscape:export-ydpi="498.70001"
       inkscape:export-xdpi="498.70001"
       ry="0.097507268"
       rx="0.097820796"
       transform="scale(1,-1)"
       cy="-84.568886"
       cx="134.88335"
       id="ellipse1017"
       style="opacity:1;fill:#f3f4f5;fill-opacity:1;stroke:none;stroke-width:0.0652135;stroke-linecap:round;stroke-miterlimit:40;stroke-dasharray:none;stroke-opacity:1" />
    <ellipse
       style="opacity:1;fill:#f3f4f5;fill-opacity:1;stroke:none;stroke-width:0.0652135;stroke-linecap:round;stroke-miterlimit:40;stroke-dasharray:none;stroke-opacity:1"
       id="ellipse1019"
       cx="134.35417"
       cy="-84.568886"
       transform="scale(1,-1)"
       rx="0.097820796"
       ry="0.097507268"
       inkscape:export-xdpi="498.70001"
       inkscape:export-ydpi="498.70001" />
    <ellipse
       inkscape:export-ydpi="498.70001"
       inkscape:export-xdpi="498.70001"
       ry="0.097507268"
       rx="0.097820796"
       transform="scale(1,-1)"
       cy="-84.568886"
       cx="133.825"
       id="ellipse1021"
       style="opacity:1;fill:#f3f4f5;fill-opacity:1;stroke:none;stroke-width:0.0652135;stroke-linecap:round;stroke-miterlimit:40;stroke-dasharray:none;stroke-opacity:1" />
    <ellipse
       style="opacity:1;fill:#f3f4f5;fill-opacity:1;stroke:none;stroke-width:0.0652135;stroke-linecap:round;stroke-miterlimit:40;stroke-dasharray:none;stroke-opacity:1"
       id="ellipse1023"
       cx="133.29582"
       cy="-84.568886"
       transform="scale(1,-1)"
       rx="0.097820796"
       ry="0.097507268"
       inkscape:export-xdpi="498.70001"
       inkscape:export-ydpi="498.70001" />
    <ellipse
       inkscape:export-ydpi="498.70001"
       inkscape:export-xdpi="498.70001"
       ry="0.097507268"
       rx="0.097820796"
       transform="scale(1,-1)"
       cy="-84.568886"
       cx="132.76665"
       id="ellipse1025"
       style="opacity:1;fill:#f3f4f5;fill-opacity:1;stroke:none;stroke-width:0.0652135;stroke-linecap:round;stroke-miterlimit:40;stroke-dasharray:none;stroke-opacity:1" />
    <ellipse
       style="opacity:1;fill:#f3f4f5;fill-opacity:1;stroke:none;stroke-width:0.0652135;stroke-linecap:round;stroke-miterlimit:40;stroke-dasharray:none;stroke-opacity:1"
       id="ellipse1027"
       cx="132.23747"
       cy="-84.568886"
       transform="scale(1,-1)"
       rx="0.097820796"
       ry="0.097507268"
       inkscape:export-xdpi="498.70001"
       inkscape:export-ydpi="498.70001" />
    <ellipse
       inkscape:export-ydpi="498.70001"
       inkscape:export-xdpi="498.70001"
       ry="0.097507268"
       rx="0.097820796"
       transform="scale(1,-1)"
       cy="-84.568886"
       cx="131.7083"
       id="ellipse1029"
       style="opacity:1;fill:#f3f4f5;fill-opacity:1;stroke:none;stroke-width:0.0652135;stroke-linecap:round;stroke-miterlimit:40;stroke-dasharray:none;stroke-opacity:1" />
    <ellipse
       style="opacity:1;fill:#f3f4f5;fill-opacity:1;stroke:none;stroke-width:0.0652135;stroke-linecap:round;stroke-miterlimit:40;stroke-dasharray:none;stroke-opacity:1"
       id="ellipse1031"
       cx="131.17912"
       cy="-84.568886"
       transform="scale(1,-1)"
       rx="0.097820796"
       ry="0.097507268"
       inkscape:export-xdpi="498.70001"
       inkscape:export-ydpi="498.70001" />
    <ellipse
       inkscape:export-ydpi="498.70001"
       inkscape:export-xdpi="498.70001"
       ry="0.097507268"
       rx="0.097820796"
       transform="scale(1,-1)"
       cy="-85.098045"
       cx="131.17912"
       id="ellipse1033"
       style="opacity:1;fill:#f3f4f5;fill-opacity:1;stroke:none;stroke-width:0.0652135;stroke-linecap:round;stroke-miterlimit:40;stroke-dasharray:none;stroke-opacity:1" />
  </g>
</svg>
