<?xml version="1.0" encoding="UTF-8" standalone="no"?>
<svg
   xmlns:dc="http://purl.org/dc/elements/1.1/"
   xmlns:cc="http://creativecommons.org/ns#"
   xmlns:rdf="http://www.w3.org/1999/02/22-rdf-syntax-ns#"
   xmlns:svg="http://www.w3.org/2000/svg"
   xmlns="http://www.w3.org/2000/svg"
   xmlns:sodipodi="http://sodipodi.sourceforge.net/DTD/sodipodi-0.dtd"
   xmlns:inkscape="http://www.inkscape.org/namespaces/inkscape"
   sodipodi:docname="circle.svg"
   inkscape:version="1.0rc1 (09960d6f05, 2020-04-09)"
   id="svg8"
   version="1.1"
   viewBox="0 0 30.856001 30.855988"
   height="30.855988mm"
   width="30.856001mm">
  <defs
     id="defs2" />
  <sodipodi:namedview
     inkscape:window-maximized="1"
     inkscape:window-y="-8"
     inkscape:window-x="-8"
     inkscape:window-height="1377"
     inkscape:window-width="2560"
     fit-margin-bottom="0"
     fit-margin-right="0"
     fit-margin-left="0"
     fit-margin-top="0"
     showgrid="false"
     inkscape:document-rotation="0"
     inkscape:current-layer="layer1"
     inkscape:document-units="mm"
     inkscape:cy="73.428091"
     inkscape:cx="-5.394599"
     inkscape:zoom="3.959798"
     inkscape:pageshadow="2"
     inkscape:pageopacity="0.0"
     borderopacity="1.0"
     bordercolor="#666666"
     pagecolor="#ffffff"
     id="base" />
  <metadata
     id="metadata5">
    <rdf:RDF>
      <cc:Work
         rdf:about="">
        <dc:format>image/svg+xml</dc:format>
        <dc:type
           rdf:resource="http://purl.org/dc/dcmitype/StillImage" />
        <dc:title></dc:title>
      </cc:Work>
    </rdf:RDF>
  </metadata>
  <g
     transform="translate(-35.22081,-72.262484)"
     id="layer1"
     inkscape:groupmode="layer"
     inkscape:label="Layer 1">
    <path
       inkscape:connector-curvature="0"
       d="M 50.643642,72.394775 A 15.295761,15.29576 0 0 0 35.353101,87.690483 15.295761,15.29576 0 0 0 50.64881,102.98618 15.295761,15.29576 0 0 0 65.944518,87.690483 15.295761,15.29576 0 0 0 50.64881,72.394775 a 15.295761,15.29576 0 0 0 -0.0052,0 z m 0.0052,6.668836 a 8.6269505,8.6269505 0 0 1 8.626864,8.626872 8.6269505,8.6269505 0 0 1 -8.626864,8.626872 8.6269505,8.6269505 0 0 1 -8.626865,-8.626872 8.6269505,8.6269505 0 0 1 8.626865,-8.626872 z"
       style="fill:#0a2c9d;fill-opacity:1;stroke:#a6aeb8;stroke-width:0.264583;stroke-linecap:square;stroke-miterlimit:40;stroke-dasharray:none;stroke-dashoffset:1.2;stroke-opacity:1"
       id="circle5354" />
    <path
       inkscape:connector-curvature="0"
       id="ellipse5368"
       style="fill:#6f8ce9;fill-opacity:1;stroke:none;stroke-width:0.529167;stroke-linecap:square;stroke-miterlimit:40;stroke-dasharray:none;stroke-dashoffset:1.2;stroke-opacity:1"
       d="m 57.250984,94.534513 a 9.509587,9.5095859 0 0 1 -6.337591,2.66184 v 4.629177 a 14.137604,14.137603 0 0 0 9.610275,-4.01836 z" />
    <path
       inkscape:connector-curvature="0"
       id="path5414"
       style="fill:#6f8ce9;fill-opacity:1;stroke:none;stroke-width:0.529167;stroke-linecap:square;stroke-miterlimit:40;stroke-dasharray:none;stroke-dashoffset:1.2;stroke-opacity:1"
       d="m 44.046635,94.534513 -3.272684,3.272657 a 14.137604,14.137603 0 0 0 9.610275,4.01836 v -4.629177 a 9.509587,9.5095859 0 0 1 -6.337591,-2.66184 z" />
    <path
       inkscape:connector-curvature="0"
       id="path5428"
       style="fill:#6f8ce9;fill-opacity:1;stroke:none;stroke-width:0.529167;stroke-linecap:square;stroke-miterlimit:40;stroke-dasharray:none;stroke-dashoffset:1.2;stroke-opacity:1"
       d="m 36.512201,87.822774 a 14.137604,14.137603 0 0 0 3.890195,9.607683 l 3.273716,-3.27369 a 9.509587,9.5095859 0 0 1 -2.535766,-6.333993 z" />
    <path
       inkscape:connector-curvature="0"
       id="path5434"
       style="fill:#6f8ce9;fill-opacity:1;stroke:none;stroke-width:0.529167;stroke-linecap:square;stroke-miterlimit:40;stroke-dasharray:none;stroke-dashoffset:1.2;stroke-opacity:1"
       d="m 40.532122,77.815624 a 14.137604,14.137603 0 0 0 -4.015264,9.477984 h 4.630711 a 9.509587,9.5095859 0 0 1 2.65774,-6.204797 z" />
    <path
       inkscape:connector-curvature="0"
       id="path5392"
       style="fill:#6f8ce9;fill-opacity:1;stroke:none;stroke-width:0.529167;stroke-linecap:square;stroke-miterlimit:40;stroke-dasharray:none;stroke-dashoffset:1.2;stroke-opacity:1"
       d="m 60.157273,87.822774 a 9.509587,9.5095859 0 0 1 -2.535766,6.333993 l 3.273716,3.27369 a 14.137604,14.137603 0 0 0 3.890698,-9.607683 z" />
    <path
       inkscape:connector-curvature="0"
       id="path5440"
       style="fill:#6f8ce9;fill-opacity:1;stroke:none;stroke-width:0.529167;stroke-linecap:square;stroke-miterlimit:40;stroke-dasharray:none;stroke-dashoffset:1.2;stroke-opacity:1"
       d="m 60.765497,77.815624 -3.272657,3.272685 a 9.509587,9.5095859 0 0 1 2.65721,6.205299 h 4.630711 a 14.137604,14.137603 0 0 0 -4.015264,-9.477984 z" />
    <path
       inkscape:connector-curvature="0"
       id="path5420"
       style="fill:#6f8ce9;fill-opacity:1;stroke:none;stroke-width:0.529167;stroke-linecap:square;stroke-miterlimit:40;stroke-dasharray:none;stroke-dashoffset:1.2;stroke-opacity:1"
       d="m 50.913393,73.555436 v 4.629176 a 9.509587,9.5095859 0 0 1 6.201701,2.533174 l 3.27369,-3.273716 a 14.137604,14.137603 0 0 0 -9.475391,-3.888634 z" />
    <path
       inkscape:connector-curvature="0"
       id="path5408"
       style="fill:#6f8ce9;fill-opacity:1;stroke:none;stroke-width:0.529167;stroke-linecap:square;stroke-miterlimit:40;stroke-dasharray:none;stroke-dashoffset:1.2;stroke-opacity:1"
       d="m 50.384226,73.555436 a 14.137604,14.137603 0 0 0 -9.475391,3.888634 l 3.27369,3.273716 a 9.509587,9.5095859 0 0 1 6.201701,-2.533174 z" />
  </g>
</svg>
