<svg width="156.8mm" height="60.476mm" version="1.1" viewBox="0 0 156.8 60.476" xmlns="http://www.w3.org/2000/svg">
 <g transform="translate(-17.604 -217.63)">
  <path d="m48.952 217.76h125.13" fill="none" stroke="#47d58a" stroke-linecap="round" stroke-width=".26458"/>
  <rect x="48.961" y="218.01" width="125.45" height="15.022" fill="#1d232d"/>
  <rect x="48.961" y="233.03" width="125.45" height="15.022" fill="#1d232d"/>
  <path d="m48.952 232.8h125.13" fill="none" stroke="#47d58a" stroke-linecap="round" stroke-width=".26458"/>
  <rect x="48.961" y="263.08" width="125.45" height="15.022" fill="#1d232d"/>
  <rect x="48.961" y="248.06" width="125.45" height="15.022" fill="#1d232d"/>
  <g fill="none" stroke="#47d58a" stroke-linecap="round" stroke-width=".26458">
   <path d="m48.952 248.27h125.13"/>
   <path d="m48.952 263.31h125.13"/>
   <path d="m48.952 277.93h125.13"/>
  </g>
  <g fill="#e9e56f" stroke-width=".28222px">
   <g aria-label="Heavy game engines">
    <path d="m17.604 225.08h0.28182v-1.0367h1.0233v1.0367h0.27847v-2.2009h-0.27847v0.92264h-1.0233v-0.92264h-0.28182z"/>
    <path d="m19.635 224.27c0 0.53346 0.34557 0.85219 0.78173 0.85219 0.22143 0 0.3959-0.0772 0.53681-0.16775l-0.0973-0.18118c-0.12078 0.0772-0.25163 0.12749-0.40596 0.12749-0.31202 0-0.52339-0.22143-0.54352-0.57371h1.1005c0.0067-0.0403 0.01007-0.0939 0.01007-0.15098 0-0.46635-0.23486-0.76495-0.65088-0.76495-0.37241 0-0.7314 0.32544-0.7314 0.85889zm0.2684-0.12413c0.03355-0.3288 0.24156-0.51668 0.46971-0.51668 0.25498 0 0.40261 0.18452 0.40261 0.51668z"/>
    <path d="m21.294 224.66c0 0.29189 0.20466 0.463 0.47977 0.463 0.2013 0 0.38248-0.10736 0.54016-0.23486h0.0067l0.02349 0.1946h0.22814v-0.99981c0-0.40596-0.16775-0.67101-0.56701-0.67101-0.26169 0-0.48984 0.11407-0.64082 0.21137l0.11072 0.19123c0.12749-0.0872 0.29524-0.17446 0.48648-0.17446 0.26505 0 0.33551 0.2013 0.33551 0.40932-0.6945 0.0772-1.0032 0.25498-1.0032 0.61062zm0.27176-0.0201c0-0.20801 0.18453-0.34222 0.7314-0.40932v0.45294c-0.15769 0.14091-0.28854 0.21807-0.44622 0.21807-0.16104 0-0.28518-0.0772-0.28518-0.26169z"/>
    <path d="m23.444 225.08h0.32209l0.57707-1.6306h-0.27176l-0.30866 0.92599c-0.04697 0.16105-0.10065 0.32545-0.14762 0.47978h-0.01342c-0.05033-0.15433-0.10401-0.31873-0.15098-0.47978l-0.30867-0.92599h-0.28518z"/>
    <path d="m24.547 225.53-0.05368 0.21808c0.05368 0.0201 0.11743 0.0335 0.19124 0.0335 0.3288 0 0.49655-0.24492 0.61062-0.56701l0.61398-1.7648h-0.2684l-0.29189 0.90251c-0.04362 0.14427-0.09059 0.31202-0.13756 0.45964h-0.01342c-0.05033-0.15097-0.10736-0.31873-0.15769-0.45964l-0.33215-0.90251h-0.28518l0.65424 1.6339-0.03691 0.12079c-0.0671 0.2013-0.18453 0.34892-0.36906 0.34892-0.04026 0-0.09059-0.0134-0.12414-0.0235z"/>
    <path d="m27.016 225.36c0-0.0939 0.05033-0.19124 0.16775-0.27511 0.07046 0.0201 0.14762 0.0268 0.21137 0.0268h0.28183c0.21137 0 0.3288 0.0503 0.3288 0.2013 0 0.17111-0.20466 0.33215-0.51668 0.33215-0.29524 0-0.47306-0.11071-0.47306-0.28518zm-0.24156 0.0369c0 0.28182 0.27512 0.43951 0.67437 0.43951 0.50662 0 0.82535-0.26169 0.82535-0.56365 0-0.27176-0.19124-0.38919-0.57036-0.38919h-0.31538c-0.22143 0-0.28854-0.0738-0.28854-0.17781 0-0.0906 0.04697-0.14427 0.10401-0.1946 0.07381 0.0369 0.1644 0.057 0.24492 0.057 0.33215 0 0.5972-0.21808 0.5972-0.56701 0-0.13755-0.05704-0.26169-0.1342-0.3355h0.33551v-0.21137h-0.567c-0.06039-0.0235-0.14091-0.0403-0.2315-0.0403-0.33215 0-0.61398 0.22479-0.61398 0.58042 0 0.1946 0.10401 0.35228 0.21137 0.43952v0.0134c-0.08388 0.057-0.17782 0.16439-0.17782 0.30195 0 0.12749 0.06375 0.21473 0.14427 0.26505v0.0134c-0.14762 0.10065-0.23821 0.2315-0.23821 0.36906zm0.67437-1.0132c-0.18788 0-0.34557-0.15098-0.34557-0.38919s0.15433-0.37912 0.34557-0.37912c0.19124 0 0.34557 0.14091 0.34557 0.37912s-0.15769 0.38919-0.34557 0.38919z"/>
    <path d="m28.456 224.66c0 0.29189 0.20466 0.463 0.47977 0.463 0.2013 0 0.38248-0.10736 0.54016-0.23486h0.0067l0.02348 0.1946h0.22814v-0.99981c0-0.40596-0.16775-0.67101-0.567-0.67101-0.2617 0-0.48984 0.11407-0.64082 0.21137l0.11072 0.19123c0.12749-0.0872 0.29525-0.17446 0.48648-0.17446 0.26505 0 0.33551 0.2013 0.33551 0.40932-0.6945 0.0772-1.0032 0.25498-1.0032 0.61062zm0.27176-0.0201c0-0.20801 0.18453-0.34222 0.7314-0.40932v0.45294c-0.15769 0.14091-0.28854 0.21807-0.44622 0.21807-0.16104 0-0.28518-0.0772-0.28518-0.26169z"/>
    <path d="m30.254 225.08h0.27512v-1.181c0.15098-0.16776 0.28854-0.25163 0.40932-0.25163 0.20801 0 0.30531 0.13084 0.30531 0.43615v0.99646h0.27512v-1.181c0.15098-0.16776 0.28182-0.25163 0.40932-0.25163 0.20466 0 0.30196 0.13084 0.30196 0.43615v0.99646h0.27512v-1.0334c0-0.41603-0.16104-0.63746-0.49655-0.63746-0.19795 0-0.3657 0.12749-0.53681 0.31202-0.0671-0.1946-0.2013-0.31202-0.44958-0.31202-0.19459 0-0.3657 0.12078-0.50662 0.27511h-0.01007l-0.02349-0.23485h-0.22814z"/>
    <path d="m32.911 224.27c0 0.53346 0.34557 0.85219 0.78173 0.85219 0.22143 0 0.3959-0.0772 0.53681-0.16775l-0.0973-0.18118c-0.12078 0.0772-0.25163 0.12749-0.40596 0.12749-0.31202 0-0.52339-0.22143-0.54352-0.57371h1.1005c0.0067-0.0403 0.01006-0.0939 0.01006-0.15098 0-0.46635-0.23485-0.76495-0.65088-0.76495-0.37241 0-0.7314 0.32544-0.7314 0.85889zm0.2684-0.12413c0.03355-0.3288 0.24156-0.51668 0.46971-0.51668 0.25498 0 0.40261 0.18452 0.40261 0.51668z"/>
    <path d="m35.251 224.27c0 0.53346 0.34557 0.85219 0.78173 0.85219 0.22143 0 0.3959-0.0772 0.53681-0.16775l-0.0973-0.18118c-0.12078 0.0772-0.25163 0.12749-0.40596 0.12749-0.31202 0-0.52339-0.22143-0.54352-0.57371h1.1005c0.0067-0.0403 0.01007-0.0939 0.01007-0.15098 0-0.46635-0.23486-0.76495-0.65088-0.76495-0.37241 0-0.7314 0.32544-0.7314 0.85889zm0.2684-0.12413c0.03355-0.3288 0.24156-0.51668 0.46971-0.51668 0.25498 0 0.40261 0.18452 0.40261 0.51668z"/>
    <path d="m37.036 225.08h0.27512v-1.181c0.1644-0.1644 0.27847-0.25163 0.44622-0.25163 0.21472 0 0.30866 0.13084 0.30866 0.43615v0.99646h0.27512v-1.0334c0-0.41603-0.15433-0.63746-0.49655-0.63746-0.22479 0-0.39254 0.12078-0.54688 0.27511h-0.01007l-0.02349-0.23485h-0.22814z"/>
    <path d="m38.988 225.36c0-0.0939 0.05033-0.19124 0.16775-0.27511 0.07046 0.0201 0.14762 0.0268 0.21137 0.0268h0.28182c0.21137 0 0.3288 0.0503 0.3288 0.2013 0 0.17111-0.20466 0.33215-0.51668 0.33215-0.29525 0-0.47306-0.11071-0.47306-0.28518zm-0.24156 0.0369c0 0.28182 0.27512 0.43951 0.67437 0.43951 0.50662 0 0.82534-0.26169 0.82534-0.56365 0-0.27176-0.19124-0.38919-0.57036-0.38919h-0.31538c-0.22143 0-0.28854-0.0738-0.28854-0.17781 0-0.0906 0.04697-0.14427 0.10401-0.1946 0.07381 0.0369 0.1644 0.057 0.24492 0.057 0.33215 0 0.5972-0.21808 0.5972-0.56701 0-0.13755-0.05704-0.26169-0.1342-0.3355h0.33551v-0.21137h-0.56701c-0.06039-0.0235-0.14091-0.0403-0.2315-0.0403-0.33215 0-0.61398 0.22479-0.61398 0.58042 0 0.1946 0.10401 0.35228 0.21137 0.43952v0.0134c-0.08388 0.057-0.17782 0.16439-0.17782 0.30195 0 0.12749 0.06375 0.21473 0.14427 0.26505v0.0134c-0.14762 0.10065-0.23821 0.2315-0.23821 0.36906zm0.67437-1.0132c-0.18788 0-0.34557-0.15098-0.34557-0.38919s0.15433-0.37912 0.34557-0.37912c0.19124 0 0.34557 0.14091 0.34557 0.37912s-0.15769 0.38919-0.34557 0.38919z"/>
    <path d="m40.702 223.12c0.10736 0 0.19124-0.0738 0.19124-0.17782 0-0.10736-0.08388-0.17782-0.19124-0.17782-0.10736 0-0.19124 0.0705-0.19124 0.17782 0 0.10401 0.08388 0.17782 0.19124 0.17782zm-0.14091 1.9661h0.27512v-1.6306h-0.27512z"/>
    <path d="m41.387 225.08h0.27512v-1.181c0.1644-0.1644 0.27847-0.25163 0.44622-0.25163 0.21472 0 0.30866 0.13084 0.30866 0.43615v0.99646h0.27512v-1.0334c0-0.41603-0.15433-0.63746-0.49655-0.63746-0.22479 0-0.39254 0.12078-0.54688 0.27511h-0.01006l-0.02349-0.23485h-0.22814z"/>
    <path d="m43.101 224.27c0 0.53346 0.34557 0.85219 0.78173 0.85219 0.22143 0 0.3959-0.0772 0.53681-0.16775l-0.0973-0.18118c-0.12078 0.0772-0.25163 0.12749-0.40596 0.12749-0.31202 0-0.52339-0.22143-0.54352-0.57371h1.1005c0.0067-0.0403 0.01007-0.0939 0.01007-0.15098 0-0.46635-0.23486-0.76495-0.65088-0.76495-0.37241 0-0.7314 0.32544-0.7314 0.85889zm0.2684-0.12413c0.03355-0.3288 0.24156-0.51668 0.46971-0.51668 0.25498 0 0.40261 0.18452 0.40261 0.51668z"/>
    <path d="m44.705 224.9c0.15433 0.12749 0.37577 0.22479 0.60727 0.22479 0.38583 0 0.5972-0.22144 0.5972-0.48649 0-0.30866-0.2617-0.40596-0.49655-0.49319-0.18453-0.0705-0.36235-0.13085-0.36235-0.28182 0-0.12414 0.09394-0.23486 0.2986-0.23486 0.14427 0 0.2617 0.0604 0.37241 0.14427l0.13085-0.17446c-0.12414-0.10066-0.30196-0.18453-0.50662-0.18453-0.35228 0-0.5603 0.2013-0.5603 0.463 0 0.27511 0.25498 0.38583 0.48648 0.4697 0.17782 0.0671 0.37241 0.14092 0.37241 0.30867 0 0.14091-0.10736 0.25498-0.32209 0.25498-0.19459 0-0.33886-0.0805-0.47977-0.19459z"/>
   </g>
   <g aria-label="Light game engines">
    <path d="m19.15 240.11h1.2414v-0.23821h-0.95955v-1.9627h-0.28182z"/>
    <path d="m20.886 238.15c0.10736 0 0.19124-0.0738 0.19124-0.17782 0-0.10736-0.08388-0.17782-0.19124-0.17782-0.10736 0-0.19124 0.0705-0.19124 0.17782 0 0.10401 0.08388 0.17782 0.19124 0.17782zm-0.14091 1.9661h0.27512v-1.6306h-0.27512z"/>
    <path d="m21.689 240.39c0-0.0939 0.05033-0.19124 0.16775-0.27512 0.07046 0.0201 0.14762 0.0268 0.21137 0.0268h0.28182c0.21137 0 0.3288 0.0503 0.3288 0.20131 0 0.17111-0.20466 0.33215-0.51668 0.33215-0.29524 0-0.47306-0.11072-0.47306-0.28518zm-0.24156 0.0369c0 0.28183 0.27512 0.43952 0.67437 0.43952 0.50661 0 0.82534-0.2617 0.82534-0.56365 0-0.27176-0.19124-0.38919-0.57036-0.38919h-0.31538c-0.22144 0-0.28854-0.0738-0.28854-0.17782 0-0.0906 0.04697-0.14427 0.10401-0.19459 0.07381 0.0369 0.1644 0.057 0.24492 0.057 0.33215 0 0.5972-0.21807 0.5972-0.567 0-0.13756-0.05704-0.2617-0.1342-0.33551h0.33551v-0.21137h-0.56701c-0.06039-0.0235-0.14091-0.0403-0.2315-0.0403-0.33215 0-0.61398 0.22479-0.61398 0.58043 0 0.19459 0.10401 0.35228 0.21137 0.43951v0.0134c-0.08388 0.057-0.17782 0.1644-0.17782 0.30196 0 0.12749 0.06375 0.21472 0.14427 0.26505v0.0134c-0.14762 0.10065-0.23821 0.2315-0.23821 0.36905zm0.67437-1.0132c-0.18788 0-0.34557-0.15098-0.34557-0.38919s0.15433-0.37912 0.34557-0.37912c0.19124 0 0.34557 0.14091 0.34557 0.37912s-0.15769 0.38919-0.34557 0.38919z"/>
    <path d="m23.262 240.11h0.27512v-1.181c0.1644-0.1644 0.27847-0.25163 0.44622-0.25163 0.21472 0 0.30867 0.13085 0.30867 0.43616v0.99645h0.27512v-1.0334c0-0.41602-0.15433-0.63746-0.49655-0.63746-0.22479 0-0.38919 0.12079-0.54352 0.26841l0.01007-0.33551v-0.65088h-0.27512z"/>
    <path d="m25.137 239.61c0 0.32209 0.11743 0.54352 0.46635 0.54352 0.10065 0 0.21137-0.0302 0.30196-0.0604l-0.05368-0.20801c-0.05368 0.0201-0.12749 0.0436-0.18453 0.0436-0.18788 0-0.25163-0.11408-0.25163-0.31538v-0.90587h0.43951v-0.22479h-0.43951v-0.45628h-0.2315l-0.03355 0.45628-0.25498 0.0168v0.20801h0.24156z"/>
    <path d="m27.016 240.39c0-0.0939 0.05033-0.19124 0.16775-0.27512 0.07046 0.0201 0.14762 0.0268 0.21137 0.0268h0.28182c0.21137 0 0.3288 0.0503 0.3288 0.20131 0 0.17111-0.20466 0.33215-0.51668 0.33215-0.29525 0-0.47306-0.11072-0.47306-0.28518zm-0.24156 0.0369c0 0.28183 0.27512 0.43952 0.67437 0.43952 0.50661 0 0.82534-0.2617 0.82534-0.56365 0-0.27176-0.19124-0.38919-0.57036-0.38919h-0.31538c-0.22143 0-0.28854-0.0738-0.28854-0.17782 0-0.0906 0.04697-0.14427 0.10401-0.19459 0.07381 0.0369 0.1644 0.057 0.24492 0.057 0.33215 0 0.5972-0.21807 0.5972-0.567 0-0.13756-0.05704-0.2617-0.1342-0.33551h0.33551v-0.21137h-0.56701c-0.06039-0.0235-0.14091-0.0403-0.2315-0.0403-0.33215 0-0.61398 0.22479-0.61398 0.58043 0 0.19459 0.10401 0.35228 0.21137 0.43951v0.0134c-0.08388 0.057-0.17782 0.1644-0.17782 0.30196 0 0.12749 0.06375 0.21472 0.14427 0.26505v0.0134c-0.14762 0.10065-0.23821 0.2315-0.23821 0.36905zm0.67437-1.0132c-0.18788 0-0.34557-0.15098-0.34557-0.38919s0.15433-0.37912 0.34557-0.37912 0.34557 0.14091 0.34557 0.37912-0.15769 0.38919-0.34557 0.38919z"/>
    <path d="m28.456 239.69c0 0.29189 0.20466 0.46299 0.47977 0.46299 0.2013 0 0.38248-0.10736 0.54016-0.23485h0.0067l0.02349 0.19459h0.22814v-0.9998c0-0.40597-0.16775-0.67102-0.567-0.67102-0.2617 0-0.48984 0.11407-0.64082 0.21137l0.11072 0.19124c0.12749-0.0872 0.29524-0.17446 0.48648-0.17446 0.26505 0 0.33551 0.2013 0.33551 0.40931-0.6945 0.0772-1.0032 0.25499-1.0032 0.61063zm0.27176-0.0201c0-0.20802 0.18453-0.34222 0.7314-0.40932v0.45293c-0.15769 0.14091-0.28854 0.21808-0.44622 0.21808-0.16104 0-0.28518-0.0772-0.28518-0.26169z"/>
    <path d="m30.254 240.11h0.27512v-1.181c0.15098-0.16775 0.28854-0.25163 0.40932-0.25163 0.20801 0 0.30531 0.13085 0.30531 0.43616v0.99645h0.27512v-1.181c0.15098-0.16775 0.28182-0.25163 0.40932-0.25163 0.20466 0 0.30196 0.13085 0.30196 0.43616v0.99645h0.27512v-1.0334c0-0.41602-0.16104-0.63746-0.49655-0.63746-0.19795 0-0.3657 0.1275-0.53681 0.31202-0.0671-0.19459-0.2013-0.31202-0.44958-0.31202-0.19459 0-0.3657 0.12079-0.50662 0.27512h-0.01006l-0.02349-0.23486h-0.22814z"/>
    <path d="m32.911 239.3c0 0.53345 0.34557 0.85218 0.78173 0.85218 0.22144 0 0.3959-0.0772 0.53681-0.16775l-0.0973-0.18117c-0.12078 0.0772-0.25163 0.12749-0.40596 0.12749-0.31202 0-0.52339-0.22143-0.54352-0.57372h1.1005c0.0067-0.0403 0.01007-0.0939 0.01007-0.15097 0-0.46636-0.23486-0.76496-0.65088-0.76496-0.37241 0-0.7314 0.32544-0.7314 0.8589zm0.2684-0.12414c0.03355-0.32879 0.24156-0.51668 0.46971-0.51668 0.25498 0 0.40261 0.18453 0.40261 0.51668z"/>
    <path d="m35.251 239.3c0 0.53345 0.34557 0.85218 0.78173 0.85218 0.22143 0 0.3959-0.0772 0.53681-0.16775l-0.0973-0.18117c-0.12078 0.0772-0.25163 0.12749-0.40596 0.12749-0.31202 0-0.52339-0.22143-0.54352-0.57372h1.1005c0.0067-0.0403 0.01006-0.0939 0.01006-0.15097 0-0.46636-0.23485-0.76496-0.65088-0.76496-0.37241 0-0.7314 0.32544-0.7314 0.8589zm0.2684-0.12414c0.03355-0.32879 0.24156-0.51668 0.46971-0.51668 0.25498 0 0.40261 0.18453 0.40261 0.51668z"/>
    <path d="m37.036 240.11h0.27512v-1.181c0.1644-0.1644 0.27847-0.25163 0.44622-0.25163 0.21472 0 0.30867 0.13085 0.30867 0.43616v0.99645h0.27512v-1.0334c0-0.41602-0.15433-0.63746-0.49655-0.63746-0.22479 0-0.39254 0.12079-0.54688 0.27512h-0.01007l-0.02349-0.23486h-0.22814z"/>
    <path d="m38.988 240.39c0-0.0939 0.05033-0.19124 0.16775-0.27512 0.07046 0.0201 0.14762 0.0268 0.21137 0.0268h0.28182c0.21137 0 0.3288 0.0503 0.3288 0.20131 0 0.17111-0.20466 0.33215-0.51668 0.33215-0.29524 0-0.47306-0.11072-0.47306-0.28518zm-0.24156 0.0369c0 0.28183 0.27512 0.43952 0.67437 0.43952 0.50661 0 0.82534-0.2617 0.82534-0.56365 0-0.27176-0.19124-0.38919-0.57036-0.38919h-0.31538c-0.22144 0-0.28854-0.0738-0.28854-0.17782 0-0.0906 0.04697-0.14427 0.10401-0.19459 0.07381 0.0369 0.1644 0.057 0.24492 0.057 0.33215 0 0.5972-0.21807 0.5972-0.567 0-0.13756-0.05704-0.2617-0.1342-0.33551h0.33551v-0.21137h-0.56701c-0.06039-0.0235-0.14091-0.0403-0.2315-0.0403-0.33215 0-0.61398 0.22479-0.61398 0.58043 0 0.19459 0.10401 0.35228 0.21137 0.43951v0.0134c-0.08388 0.057-0.17782 0.1644-0.17782 0.30196 0 0.12749 0.06375 0.21472 0.14427 0.26505v0.0134c-0.14762 0.10065-0.23821 0.2315-0.23821 0.36905zm0.67437-1.0132c-0.18788 0-0.34557-0.15098-0.34557-0.38919s0.15433-0.37912 0.34557-0.37912c0.19124 0 0.34557 0.14091 0.34557 0.37912s-0.15769 0.38919-0.34557 0.38919z"/>
    <path d="m40.702 238.15c0.10736 0 0.19124-0.0738 0.19124-0.17782 0-0.10736-0.08388-0.17782-0.19124-0.17782-0.10736 0-0.19124 0.0705-0.19124 0.17782 0 0.10401 0.08388 0.17782 0.19124 0.17782zm-0.14091 1.9661h0.27512v-1.6306h-0.27512z"/>
    <path d="m41.387 240.11h0.27512v-1.181c0.1644-0.1644 0.27847-0.25163 0.44622-0.25163 0.21472 0 0.30867 0.13085 0.30867 0.43616v0.99645h0.27512v-1.0334c0-0.41602-0.15433-0.63746-0.49655-0.63746-0.22479 0-0.39254 0.12079-0.54688 0.27512h-0.01006l-0.02349-0.23486h-0.22814z"/>
    <path d="m43.101 239.3c0 0.53345 0.34557 0.85218 0.78173 0.85218 0.22143 0 0.3959-0.0772 0.53681-0.16775l-0.0973-0.18117c-0.12078 0.0772-0.25163 0.12749-0.40596 0.12749-0.31202 0-0.52339-0.22143-0.54352-0.57372h1.1005c0.0067-0.0403 0.01006-0.0939 0.01006-0.15097 0-0.46636-0.23485-0.76496-0.65088-0.76496-0.37241 0-0.7314 0.32544-0.7314 0.8589zm0.2684-0.12414c0.03355-0.32879 0.24156-0.51668 0.46971-0.51668 0.25498 0 0.40261 0.18453 0.40261 0.51668z"/>
    <path d="m44.705 239.93c0.15433 0.12749 0.37577 0.22478 0.60727 0.22478 0.38583 0 0.5972-0.22143 0.5972-0.48648 0-0.30867-0.2617-0.40596-0.49655-0.49319-0.18453-0.0705-0.36235-0.13085-0.36235-0.28183 0-0.12414 0.09394-0.23485 0.2986-0.23485 0.14427 0 0.2617 0.0604 0.37241 0.14426l0.13085-0.17446c-0.12414-0.10065-0.30196-0.18453-0.50661-0.18453-0.35228 0-0.5603 0.20131-0.5603 0.463 0 0.27512 0.25498 0.38583 0.48648 0.46971 0.17782 0.0671 0.37241 0.14091 0.37241 0.30867 0 0.14091-0.10736 0.25498-0.32209 0.25498-0.19459 0-0.33886-0.0805-0.47977-0.19459z"/>
   </g>
   <g aria-label="Toolkits">
    <path d="m35.684 256h0.27847v-1.9661h0.66766v-0.23486h-1.6138v0.23486h0.66766z"/>
    <path d="m36.646 255.19c0 0.54016 0.35564 0.85218 0.75489 0.85218 0.39925 0 0.75489-0.31202 0.75489-0.85218 0-0.54688-0.35564-0.8589-0.75489-0.8589-0.39925 0-0.75489 0.31202-0.75489 0.8589zm0.28518 0c0-0.37577 0.19124-0.63075 0.46971-0.63075 0.28182 0 0.46971 0.25498 0.46971 0.63075 0 0.37241-0.18788 0.62404-0.46971 0.62404-0.27847 0-0.46971-0.25163-0.46971-0.62404z"/>
    <path d="m38.468 255.19c0 0.54016 0.35564 0.85218 0.75489 0.85218 0.39925 0 0.75489-0.31202 0.75489-0.85218 0-0.54688-0.35564-0.8589-0.75489-0.8589-0.39925 0-0.75489 0.31202-0.75489 0.8589zm0.28518 0c0-0.37577 0.19124-0.63075 0.46971-0.63075 0.28182 0 0.46971 0.25498 0.46971 0.63075 0 0.37241-0.18788 0.62404-0.46971 0.62404-0.27847 0-0.46971-0.25163-0.46971-0.62404z"/>
    <path d="m40.411 255.67c0 0.23821 0.08388 0.36905 0.29189 0.36905 0.07381 0 0.12078-0.0101 0.15769-0.0268l-0.03691-0.20801c-0.03019 7e-3 -0.04362 7e-3 -0.06039 7e-3 -0.04026 0-0.07717-0.0335-0.07717-0.12078v-2.0801h-0.27512z"/>
    <path d="m41.269 256h0.27176v-0.42944l0.30531-0.35564 0.47642 0.78508h0.30196l-0.62069-0.97632 0.54688-0.65424h-0.30531l-0.6945 0.8589h-0.01006v-1.6171h-0.27176z"/>
    <path d="m43.068 254.03c0.10736 0 0.19124-0.0738 0.19124-0.17782 0-0.10736-0.08388-0.17782-0.19124-0.17782-0.10736 0-0.19124 0.0705-0.19124 0.17782 0 0.10401 0.08388 0.17782 0.19124 0.17782zm-0.14091 1.9661h0.27512v-1.6306h-0.27512z"/>
    <path d="m43.8 255.5c0 0.32209 0.11743 0.54352 0.46635 0.54352 0.10065 0 0.21137-0.0302 0.30196-0.0604l-0.05368-0.20801c-0.05368 0.0201-0.12749 0.0436-0.18453 0.0436-0.18788 0-0.25163-0.11407-0.25163-0.31537v-0.90587h0.43951v-0.22479h-0.43951v-0.45629h-0.2315l-0.03355 0.45629-0.25498 0.0168v0.20801h0.24156z"/>
    <path d="m44.705 255.81c0.15433 0.1275 0.37577 0.22479 0.60727 0.22479 0.38583 0 0.5972-0.22143 0.5972-0.48648 0-0.30867-0.2617-0.40596-0.49655-0.49319-0.18453-0.0705-0.36235-0.13085-0.36235-0.28183 0-0.12414 0.09394-0.23485 0.2986-0.23485 0.14427 0 0.2617 0.0604 0.37241 0.14426l0.13085-0.17446c-0.12414-0.10065-0.30196-0.18453-0.50661-0.18453-0.35228 0-0.5603 0.20131-0.5603 0.463 0 0.27512 0.25498 0.38583 0.48648 0.46971 0.17782 0.0671 0.37241 0.14091 0.37241 0.30867 0 0.14091-0.10736 0.25498-0.32209 0.25498-0.19459 0-0.33886-0.0805-0.47977-0.19459z"/>
   </g>
   <g aria-label="Libraries">
    <path d="m34.15 269.96h1.2414v-0.2382h-0.95955v-1.9627h-0.28182z"/>
    <path d="m35.886 267.99c0.10736 0 0.19124-0.0738 0.19124-0.17782 0-0.10736-0.08388-0.17782-0.19124-0.17782-0.10736 0-0.19124 0.0705-0.19124 0.17782 0 0.10401 0.08388 0.17782 0.19124 0.17782zm-0.14091 1.9661h0.27512v-1.6306h-0.27512z"/>
    <path d="m36.571 269.96h0.22143l0.02349-0.16104h0.01006c0.14427 0.12749 0.31538 0.20131 0.46635 0.20131 0.37241 0 0.70456-0.32545 0.70456-0.88239 0-0.50326-0.22479-0.8287-0.64753-0.8287-0.18117 0-0.36235 0.0973-0.50997 0.22815l0.0067-0.29525v-0.65088h-0.27512zm0.27512-0.36234v-0.85554c0.15433-0.14427 0.2986-0.22144 0.43616-0.22144 0.30866 0 0.42945 0.24157 0.42945 0.60056 0 0.40261-0.19795 0.64753-0.46635 0.64753-0.10736 0-0.25498-0.047-0.39925-0.17111z"/>
    <path d="m38.432 269.96h0.27512v-1.0468c0.11072-0.27512 0.27512-0.37577 0.41267-0.37577 0.0671 0 0.10401 0.0101 0.15769 0.0268l0.05368-0.24157c-0.05368-0.0235-0.10401-0.0335-0.17446-0.0335-0.18453 0-0.35228 0.13085-0.463 0.33551h-0.01006l-0.02349-0.29525h-0.22814z"/>
    <path d="m39.432 269.53c0 0.29189 0.20466 0.463 0.47977 0.463 0.2013 0 0.38248-0.10737 0.54016-0.23486h0.0067l0.02349 0.19459h0.22814v-0.9998c0-0.40597-0.16775-0.67102-0.567-0.67102-0.2617 0-0.48984 0.11408-0.64082 0.21137l0.11072 0.19124c0.12749-0.0872 0.29524-0.17446 0.48648-0.17446 0.26505 0 0.33551 0.2013 0.33551 0.40932-0.6945 0.0772-1.0032 0.25498-1.0032 0.61062zm0.27176-0.0201c0-0.20802 0.18453-0.34222 0.7314-0.40932v0.45293c-0.15769 0.14092-0.28854 0.21808-0.44622 0.21808-0.16104 0-0.28518-0.0772-0.28518-0.26169z"/>
    <path d="m41.23 269.96h0.27512v-1.0468c0.11072-0.27512 0.27512-0.37577 0.41267-0.37577 0.0671 0 0.10401 0.0101 0.15769 0.0268l0.05368-0.24157c-0.05368-0.0235-0.10401-0.0335-0.17446-0.0335-0.18453 0-0.35228 0.13085-0.463 0.33551h-0.01006l-0.02349-0.29525h-0.22814z"/>
    <path d="m42.537 267.99c0.10736 0 0.19124-0.0738 0.19124-0.17782 0-0.10736-0.08388-0.17782-0.19124-0.17782-0.10736 0-0.19124 0.0705-0.19124 0.17782 0 0.10401 0.08388 0.17782 0.19124 0.17782zm-0.14091 1.9661h0.27512v-1.6306h-0.27512z"/>
    <path d="m43.101 269.14c0 0.53345 0.34557 0.85219 0.78173 0.85219 0.22143 0 0.3959-0.0772 0.53681-0.16776l-0.0973-0.18117c-0.12078 0.0772-0.25163 0.12749-0.40596 0.12749-0.31202 0-0.52339-0.22143-0.54352-0.57371h1.1005c0.0067-0.0403 0.01006-0.0939 0.01006-0.15098 0-0.46636-0.23485-0.76496-0.65088-0.76496-0.37241 0-0.7314 0.32544-0.7314 0.8589zm0.2684-0.12414c0.03355-0.32879 0.24156-0.51668 0.46971-0.51668 0.25498 0 0.40261 0.18453 0.40261 0.51668z"/>
    <path d="m44.705 269.77c0.15433 0.12749 0.37577 0.22479 0.60727 0.22479 0.38583 0 0.5972-0.22144 0.5972-0.48649 0-0.30866-0.2617-0.40596-0.49655-0.49319-0.18453-0.0705-0.36235-0.13085-0.36235-0.28183 0-0.12414 0.09394-0.23485 0.2986-0.23485 0.14427 0 0.2617 0.0604 0.37241 0.14427l0.13085-0.17447c-0.12414-0.10065-0.30196-0.18453-0.50661-0.18453-0.35228 0-0.5603 0.20131-0.5603 0.463 0 0.27512 0.25498 0.38583 0.48648 0.46971 0.17782 0.0671 0.37241 0.14091 0.37241 0.30867 0 0.14091-0.10736 0.25498-0.32209 0.25498-0.19459 0-0.33886-0.0805-0.47977-0.19459z"/>
   </g>
   <g aria-label="Unity">
    <path d="m99.633 230.66c0 0.56634 0.27377 0.75959 0.63343 0.75959 0.35967 0 0.63344-0.19325 0.63344-0.75959v-1.0334h-0.21472v1.0387c0 0.42408-0.1852 0.55828-0.41872 0.55828-0.22814 0-0.40797-0.1342-0.40797-0.55828v-1.0387h-0.22546z"/>
    <path d="m101.35 231.39h0.22009v-0.94479c0.13152-0.13152 0.22278-0.2013 0.35698-0.2013 0.17178 0 0.24693 0.10468 0.24693 0.34893v0.79716h0.2201v-0.82669c0-0.33282-0.12347-0.50997-0.39724-0.50997-0.17984 0-0.31404 0.0966-0.4375 0.22009h-8e-3l-0.0188-0.18788h-0.18252z"/>
    <path d="m102.93 229.82c0.0859 0 0.15299-0.059 0.15299-0.14226 0-0.0859-0.0671-0.14225-0.15299-0.14225-0.0859 0-0.15299 0.0564-0.15299 0.14225 0 0.0832 0.0671 0.14226 0.15299 0.14226zm-0.11273 1.5728h0.22009v-1.3044h-0.22009z"/>
    <path d="m103.51 230.99c0 0.25767 0.0939 0.43482 0.37309 0.43482 0.0805 0 0.16909-0.0242 0.24156-0.0483l-0.0429-0.16641c-0.043 0.0161-0.102 0.0349-0.14763 0.0349-0.1503 0-0.2013-0.0913-0.2013-0.2523v-0.7247h0.35161v-0.17983h-0.35161v-0.36503h-0.1852l-0.0268 0.36503-0.20399 0.0134v0.16641h0.19325z"/>
    <path d="m104.29 231.75-0.0429 0.17446c0.0429 0.0161 0.0939 0.0268 0.153 0.0268 0.26303 0 0.39723-0.19594 0.48849-0.45361l0.49118-1.4118h-0.21472l-0.23351 0.72201c-0.0349 0.11541-0.0725 0.24962-0.11005 0.36771h-0.0107c-0.0403-0.12078-0.0859-0.25498-0.12615-0.36771l-0.26572-0.72201h-0.22814l0.52339 1.3071-0.0295 0.0966c-0.0537 0.16104-0.14762 0.27914-0.29524 0.27914-0.0322 0-0.0725-0.0107-0.0993-0.0188z"/>
   </g>
   <g aria-label="Unreal Engine">
    <path d="m51.887 230.66c0 0.56634 0.27377 0.75959 0.63344 0.75959 0.35966 0 0.63344-0.19325 0.63344-0.75959v-1.0334h-0.21472v1.0387c0 0.42408-0.1852 0.55828-0.41871 0.55828-0.22814 0-0.40798-0.1342-0.40798-0.55828v-1.0387h-0.22546z"/>
    <path d="m53.601 231.39h0.22009v-0.94479c0.13152-0.13152 0.22278-0.2013 0.35698-0.2013 0.17178 0 0.24693 0.10468 0.24693 0.34893v0.79716h0.22009v-0.82669c0-0.33282-0.12347-0.50997-0.39724-0.50997-0.17983 0-0.31403 0.0966-0.4375 0.22009h-0.0081l-0.01879-0.18788h-0.18252z"/>
    <path d="m55.069 231.39h0.22009v-0.83742c0.08857-0.2201 0.22009-0.30062 0.33014-0.30062 0.05368 0 0.0832 8e-3 0.12615 0.0215l0.04295-0.19325c-0.04295-0.0188-0.08321-0.0268-0.13957-0.0268-0.14762 0-0.28182 0.10468-0.3704 0.26841h-0.0081l-0.01879-0.2362h-0.18252z"/>
    <path d="m55.879 230.74c0 0.42676 0.27646 0.68175 0.62538 0.68175 0.17715 0 0.31672-0.0617 0.42945-0.13421l-0.07784-0.14493c-0.09663 0.0617-0.2013 0.10199-0.32477 0.10199-0.24962 0-0.41871-0.17715-0.43482-0.45897h0.88037c0.0054-0.0322 0.0081-0.0752 0.0081-0.12078 0-0.37309-0.18788-0.61197-0.52071-0.61197-0.29793 0-0.58512 0.26035-0.58512 0.68712zm0.21472-0.0993c0.02684-0.26304 0.19325-0.41334 0.37577-0.41334 0.20399 0 0.32209 0.14762 0.32209 0.41334z"/>
    <path d="m57.206 231.05c0 0.23351 0.16373 0.3704 0.38382 0.3704 0.16104 0 0.30598-0.0859 0.43213-0.18789h0.0054l0.01879 0.15568h0.18252v-0.79985c0-0.32477-0.1342-0.53681-0.4536-0.53681-0.20936 0-0.39187 0.0913-0.51265 0.1691l0.08857 0.15299c0.10199-0.0698 0.2362-0.13957 0.38919-0.13957 0.21204 0 0.2684 0.16104 0.2684 0.32745-0.5556 0.0617-0.80253 0.20399-0.80253 0.4885zm0.21741-0.0161c0-0.16641 0.14762-0.27377 0.58512-0.32745v0.36235c-0.12615 0.11273-0.23083 0.17446-0.35698 0.17446-0.12884 0-0.22814-0.0617-0.22814-0.20936z"/>
    <path d="m58.644 231.13c0 0.19057 0.0671 0.29525 0.23351 0.29525 0.05905 0 0.09663-8e-3 0.12615-0.0215l-0.02952-0.16642c-0.02416 5e-3 -0.03489 5e-3 -0.04831 5e-3 -0.03221 0-0.06173-0.0268-0.06173-0.0966v-1.6641h-0.22009z"/>
    <path d="m59.884 231.39h1.0414v-0.19057h-0.81595v-0.6388h0.66564v-0.19057h-0.66564v-0.55291h0.78911v-0.18789h-1.0146z"/>
    <path d="m61.27 231.39h0.22009v-0.94479c0.13152-0.13152 0.22278-0.2013 0.35698-0.2013 0.17178 0 0.24693 0.10468 0.24693 0.34893v0.79716h0.22009v-0.82669c0-0.33282-0.12347-0.50997-0.39724-0.50997-0.17983 0-0.31403 0.0966-0.4375 0.22009h-0.0081l-0.01879-0.18788h-0.18252z"/>
    <path d="m62.832 231.61c0-0.0752 0.04026-0.15299 0.1342-0.22009 0.05636 0.0161 0.1181 0.0215 0.1691 0.0215h0.22546c0.1691 0 0.26304 0.0403 0.26304 0.16104 0 0.13689-0.16373 0.26573-0.41334 0.26573-0.2362 0-0.37845-0.0886-0.37845-0.22815zm-0.19325 0.0295c0 0.22546 0.22009 0.35161 0.53949 0.35161 0.40529 0 0.66028-0.20936 0.66028-0.45092 0-0.21741-0.15299-0.31135-0.45629-0.31135h-0.2523c-0.17715 0-0.23083-0.059-0.23083-0.14226 0-0.0725 0.03758-0.11541 0.0832-0.15567 0.05905 0.0295 0.13152 0.0456 0.19594 0.0456 0.26572 0 0.47776-0.17447 0.47776-0.45361 0-0.11005-0.04563-0.20936-0.10736-0.2684h0.2684v-0.1691h-0.4536c-0.04831-0.0188-0.11273-0.0322-0.1852-0.0322-0.26572 0-0.49118 0.17983-0.49118 0.46434 0 0.15568 0.0832 0.28183 0.1691 0.35161v0.0107c-0.0671 0.0456-0.14226 0.13152-0.14226 0.24156 0 0.102 0.051 0.17178 0.11541 0.21204v0.0107c-0.1181 0.0805-0.19057 0.1852-0.19057 0.29525zm0.53949-0.81059c-0.15031 0-0.27646-0.12078-0.27646-0.31135 0-0.19056 0.12347-0.3033 0.27646-0.3033s0.27646 0.11274 0.27646 0.3033c0 0.19057-0.12615 0.31135-0.27646 0.31135z"/>
    <path d="m64.203 229.82c0.08589 0 0.15299-0.059 0.15299-0.14226 0-0.0859-0.0671-0.14225-0.15299-0.14225-0.08589 0-0.15299 0.0564-0.15299 0.14225 0 0.0832 0.0671 0.14226 0.15299 0.14226zm-0.11273 1.5728h0.22009v-1.3044h-0.22009z"/>
    <path d="m64.751 231.39h0.22009v-0.94479c0.13152-0.13152 0.22278-0.2013 0.35698-0.2013 0.17178 0 0.24693 0.10468 0.24693 0.34893v0.79716h0.22009v-0.82669c0-0.33282-0.12347-0.50997-0.39724-0.50997-0.17983 0-0.31403 0.0966-0.4375 0.22009h-0.0081l-0.01879-0.18788h-0.18252z"/>
    <path d="m66.122 230.74c0 0.42676 0.27646 0.68175 0.62538 0.68175 0.17715 0 0.31672-0.0617 0.42945-0.13421l-0.07784-0.14493c-0.09663 0.0617-0.2013 0.10199-0.32477 0.10199-0.24962 0-0.41871-0.17715-0.43482-0.45897h0.88037c0.0054-0.0322 0.0081-0.0752 0.0081-0.12078 0-0.37309-0.18788-0.61197-0.5207-0.61197-0.29793 0-0.58512 0.26035-0.58512 0.68712zm0.21472-0.0993c0.02684-0.26304 0.19325-0.41334 0.37577-0.41334 0.20399 0 0.32209 0.14762 0.32209 0.41334z"/>
   </g>
   <g aria-label="CryEngine">
    <path d="m75.189 230.51c0 0.57439 0.33014 0.91258 0.77301 0.91258 0.22278 0 0.39724-0.0939 0.53413-0.25499l-0.12615-0.13688c-0.11273 0.12615-0.2362 0.19593-0.40261 0.19593-0.33551 0-0.54755-0.27914-0.54755-0.72201 0-0.4375 0.22278-0.71127 0.55828-0.71127 0.14494 0 0.25767 0.0644 0.35161 0.16373l0.12615-0.14226c-0.10468-0.11541-0.27109-0.21741-0.48044-0.21741-0.45092 0-0.78643 0.34625-0.78643 0.91258z"/>
    <path d="m76.798 231.39h0.22009v-0.83742c0.08857-0.2201 0.22009-0.30062 0.33014-0.30062 0.05368 0 0.08321 8e-3 0.12615 0.0215l0.04294-0.19325c-0.04294-0.0188-0.08321-0.0268-0.13957-0.0268-0.14762 0-0.28182 0.10468-0.3704 0.26841h-0.0081l-0.01879-0.2362h-0.18252z"/>
    <path d="m77.695 231.75-0.04295 0.17446c0.04295 0.0161 0.09394 0.0268 0.15299 0.0268 0.26304 0 0.39724-0.19594 0.4885-0.45361l0.49118-1.4118h-0.21472l-0.23351 0.72201c-0.03489 0.11541-0.07247 0.24962-0.11005 0.36771h-0.01074c-0.04026-0.12078-0.08589-0.25498-0.12615-0.36771l-0.26572-0.72201h-0.22814l0.52339 1.3071-0.02953 0.0966c-0.05368 0.16104-0.14762 0.27914-0.29524 0.27914-0.03221 0-0.07247-0.0107-0.09931-0.0188z"/>
    <path d="m79.05 231.39h1.0414v-0.19057h-0.81595v-0.6388h0.66564v-0.19057h-0.66564v-0.55291h0.78911v-0.18789h-1.0146z"/>
    <path d="m80.436 231.39h0.22009v-0.94479c0.13152-0.13152 0.22278-0.2013 0.35698-0.2013 0.17178 0 0.24693 0.10468 0.24693 0.34893v0.79716h0.22009v-0.82669c0-0.33282-0.12347-0.50997-0.39724-0.50997-0.17983 0-0.31403 0.0966-0.4375 0.22009h-0.0081l-0.01879-0.18788h-0.18247z"/>
    <path d="m81.998 231.61c0-0.0752 0.04026-0.15299 0.1342-0.22009 0.05637 0.0161 0.1181 0.0215 0.1691 0.0215h0.22546c0.1691 0 0.26304 0.0403 0.26304 0.16104 0 0.13689-0.16373 0.26573-0.41334 0.26573-0.2362 0-0.37845-0.0886-0.37845-0.22815zm-0.19325 0.0295c0 0.22546 0.22009 0.35161 0.53949 0.35161 0.40529 0 0.66028-0.20936 0.66028-0.45092 0-0.21741-0.15299-0.31135-0.45629-0.31135h-0.2523c-0.17715 0-0.23083-0.059-0.23083-0.14226 0-0.0725 0.03758-0.11541 0.08321-0.15567 0.05905 0.0295 0.13152 0.0456 0.19594 0.0456 0.26572 0 0.47776-0.17447 0.47776-0.45361 0-0.11005-0.04563-0.20936-0.10736-0.2684h0.2684v-0.1691h-0.4536c-0.04831-0.0188-0.11273-0.0322-0.1852-0.0322-0.26572 0-0.49118 0.17983-0.49118 0.46434 0 0.15568 0.08321 0.28183 0.1691 0.35161v0.0107c-0.0671 0.0456-0.14226 0.13152-0.14226 0.24156 0 0.102 0.051 0.17178 0.11541 0.21204v0.0107c-0.1181 0.0805-0.19057 0.1852-0.19057 0.29525zm0.53949-0.81059c-0.15031 0-0.27646-0.12078-0.27646-0.31135 0-0.19056 0.12347-0.3033 0.27646-0.3033s0.27646 0.11274 0.27646 0.3033c0 0.19057-0.12615 0.31135-0.27646 0.31135z"/>
    <path d="m83.369 229.82c0.08589 0 0.15299-0.059 0.15299-0.14226 0-0.0859-0.0671-0.14225-0.15299-0.14225-0.08589 0-0.15299 0.0564-0.15299 0.14225 0 0.0832 0.0671 0.14226 0.15299 0.14226zm-0.11273 1.5728h0.22009v-1.3044h-0.22009z"/>
    <path d="m83.917 231.39h0.22009v-0.94479c0.13152-0.13152 0.22278-0.2013 0.35698-0.2013 0.17178 0 0.24693 0.10468 0.24693 0.34893v0.79716h0.22009v-0.82669c0-0.33282-0.12347-0.50997-0.39724-0.50997-0.17983 0-0.31403 0.0966-0.4375 0.22009h-0.0081l-0.01879-0.18788h-0.18252z"/>
    <path d="m85.288 230.74c0 0.42676 0.27646 0.68175 0.62538 0.68175 0.17715 0 0.31672-0.0617 0.42945-0.13421l-0.07784-0.14493c-0.09663 0.0617-0.2013 0.10199-0.32477 0.10199-0.24962 0-0.41871-0.17715-0.43482-0.45897h0.88037c0.0054-0.0322 0.0081-0.0752 0.0081-0.12078 0-0.37309-0.18788-0.61197-0.5207-0.61197-0.29793 0-0.58512 0.26035-0.58512 0.68712zm0.21472-0.0993c0.02684-0.26304 0.19325-0.41334 0.37577-0.41334 0.20399 0 0.32209 0.14762 0.32209 0.41334z"/>
   </g>
   <g aria-label="Cocos2D">
    <path d="m75.973 245.92c0 0.57439 0.33014 0.91258 0.77301 0.91258 0.22278 0 0.39724-0.0939 0.53413-0.25499l-0.12615-0.13688c-0.11273 0.12615-0.2362 0.19593-0.40261 0.19593-0.33551 0-0.54755-0.27914-0.54755-0.72201 0-0.4375 0.22278-0.71127 0.55828-0.71127 0.14494 0 0.25767 0.0644 0.35161 0.16373l0.12615-0.14226c-0.10468-0.11541-0.27109-0.21741-0.48044-0.21741-0.45092 0-0.78643 0.34625-0.78643 0.91258z"/>
    <path d="m77.485 246.15c0 0.43213 0.28451 0.68175 0.60391 0.68175s0.60391-0.24962 0.60391-0.68175c0-0.4375-0.28451-0.68712-0.60391-0.68712s-0.60391 0.24962-0.60391 0.68712zm0.22814 0c0-0.30061 0.15299-0.5046 0.37577-0.5046 0.22546 0 0.37577 0.20399 0.37577 0.5046 0 0.29793-0.15031 0.49923-0.37577 0.49923-0.22278 0-0.37577-0.2013-0.37577-0.49923z"/>
    <path d="m78.943 246.15c0 0.43213 0.26572 0.68175 0.61196 0.68175 0.15567 0 0.30598-0.0644 0.42408-0.1691l-0.09931-0.14494c-0.07784 0.0698-0.18252 0.13152-0.30598 0.13152-0.23888 0-0.40261-0.2013-0.40261-0.49923 0-0.30061 0.17178-0.5046 0.40798-0.5046 0.10468 0 0.1852 0.0483 0.26304 0.11541l0.11005-0.14225c-0.08857-0.0832-0.20936-0.15568-0.38114-0.15568-0.33551 0-0.62807 0.24962-0.62807 0.68712z"/>
    <path d="m80.106 246.15c0 0.43213 0.28451 0.68175 0.60391 0.68175 0.3194 0 0.60391-0.24962 0.60391-0.68175 0-0.4375-0.28451-0.68712-0.60391-0.68712-0.3194 0-0.60391 0.24962-0.60391 0.68712zm0.22814 0c0-0.30061 0.15299-0.5046 0.37577-0.5046 0.22546 0 0.37577 0.20399 0.37577 0.5046 0 0.29793-0.15031 0.49923-0.37577 0.49923-0.22278 0-0.37577-0.2013-0.37577-0.49923z"/>
    <path d="m81.515 246.65c0.12347 0.10199 0.30061 0.17983 0.48581 0.17983 0.30867 0 0.47776-0.17715 0.47776-0.38919 0-0.24693-0.20936-0.32477-0.39724-0.39455-0.14762-0.0564-0.28988-0.10468-0.28988-0.22546 0-0.0993 0.07515-0.18789 0.23888-0.18789 0.11542 0 0.20936 0.0483 0.29793 0.11542l0.10468-0.13957c-0.09931-0.0805-0.24156-0.14763-0.40529-0.14763-0.28182 0-0.44824 0.16105-0.44824 0.3704 0 0.22009 0.20399 0.30867 0.38919 0.37577 0.14226 0.0537 0.29793 0.11273 0.29793 0.24693 0 0.11273-0.08589 0.20399-0.25767 0.20399-0.15568 0-0.27109-0.0644-0.38382-0.15568z"/>
    <path d="m82.675 246.8h1.1058v-0.19057h-0.49655c-0.08857 0-0.19325 8e-3 -0.28719 0.0161 0.40529-0.42408 0.69785-0.74349 0.69785-1.0656 0-0.3033-0.19594-0.5046-0.51265-0.5046-0.22278 0-0.37577 0.10468-0.51802 0.26035l0.12615 0.12615c0.09931-0.11541 0.22278-0.20667 0.36503-0.20667 0.21741 0 0.32477 0.13957 0.32477 0.3355 0 0.27646-0.28988 0.58513-0.80522 1.0978z"/>
    <path d="m84.132 246.8h0.45092c0.53144 0 0.82132-0.32745 0.82132-0.88842 0-0.55828-0.28988-0.87232-0.83206-0.87232h-0.44018zm0.22546-0.18252v-1.3957h0.19862c0.41334 0 0.61733 0.24693 0.61733 0.6898 0 0.44555-0.20399 0.7059-0.61733 0.7059z"/>
   </g>
   <g aria-label="Fusion">
    <path d="m119.99 246.8h0.22546v-0.78911h0.67101v-0.18788h-0.67101v-0.59586h0.79179v-0.18789h-1.0172z"/>
    <path d="m121.23 246.32c0 0.33282 0.12347 0.50997 0.39993 0.50997 0.17983 0 0.30866-0.0939 0.42944-0.2362h8e-3l0.0188 0.20399h0.18251v-1.3044h-0.22009v0.926c-0.12347 0.15299-0.21741 0.22009-0.35161 0.22009-0.17178 0-0.24425-0.10468-0.24425-0.34893v-0.79716h-0.22278z"/>
    <path d="m122.57 246.65c0.12347 0.10199 0.30061 0.17983 0.48581 0.17983 0.30867 0 0.47776-0.17715 0.47776-0.38919 0-0.24693-0.20935-0.32477-0.39723-0.39455-0.14763-0.0564-0.28988-0.10468-0.28988-0.22546 0-0.0993 0.0752-0.18789 0.23888-0.18789 0.11541 0 0.20935 0.0483 0.29793 0.11542l0.10468-0.13957c-0.0993-0.0805-0.24157-0.14763-0.4053-0.14763-0.28182 0-0.44823 0.16105-0.44823 0.3704 0 0.22009 0.20399 0.30867 0.38919 0.37577 0.14225 0.0537 0.29792 0.11273 0.29792 0.24693 0 0.11273-0.0859 0.20399-0.25766 0.20399-0.15568 0-0.27109-0.0644-0.38382-0.15568z"/>
    <path d="m123.95 245.22c0.0859 0 0.15299-0.0591 0.15299-0.14226 0-0.0859-0.0671-0.14225-0.15299-0.14225-0.0859 0-0.15299 0.0564-0.15299 0.14225 0 0.0832 0.0671 0.14226 0.15299 0.14226zm-0.11273 1.5728h0.22009v-1.3044h-0.22009z"/>
    <path d="m124.4 246.15c0 0.43213 0.28451 0.68175 0.60391 0.68175 0.31941 0 0.60392-0.24962 0.60392-0.68175 0-0.4375-0.28451-0.68712-0.60392-0.68712-0.3194 0-0.60391 0.24962-0.60391 0.68712zm0.22815 0c0-0.30061 0.15299-0.5046 0.37576-0.5046 0.22546 0 0.37577 0.20399 0.37577 0.5046 0 0.29793-0.15031 0.49923-0.37577 0.49923-0.22277 0-0.37576-0.2013-0.37576-0.49923z"/>
    <path d="m125.96 246.8h0.2201v-0.94479c0.13151-0.13151 0.22277-0.2013 0.35697-0.2013 0.17178 0 0.24694 0.10468 0.24694 0.34893v0.79716h0.22009v-0.82669c0-0.33282-0.12347-0.50997-0.39724-0.50997-0.17983 0-0.31403 0.0966-0.4375 0.22009h-8e-3l-0.0188-0.18788h-0.18252z"/>
   </g>
   <g aria-label="GameMaker">
    <path d="m138.25 245.92c0 0.57439 0.33014 0.91258 0.7918 0.91258 0.23619 0 0.43213-0.0913 0.54754-0.20399v-0.7408h-0.57707v0.1852h0.37308v0.45897c-0.0698 0.0644-0.19325 0.10468-0.3194 0.10468-0.37576 0-0.58512-0.27914-0.58512-0.72201 0-0.4375 0.22814-0.71127 0.58512-0.71127 0.17447 0 0.28451 0.0698 0.37309 0.16373l0.12883-0.14226c-0.10468-0.10736-0.26572-0.21741-0.5046-0.21741-0.47239 0-0.81327 0.34625-0.81327 0.91258z"/>
    <path d="m139.91 246.46c0 0.23351 0.16373 0.3704 0.38382 0.3704 0.16105 0 0.30598-0.0859 0.43213-0.18789h5e-3l0.0188 0.15568h0.18252v-0.79985c0-0.32477-0.13421-0.53681-0.45361-0.53681-0.20935 0-0.39187 0.0913-0.51265 0.1691l0.0886 0.15299c0.102-0.0698 0.2362-0.13957 0.38919-0.13957 0.21204 0 0.2684 0.16104 0.2684 0.32745-0.55559 0.0617-0.80253 0.20399-0.80253 0.4885zm0.21741-0.0161c0-0.16642 0.14762-0.27378 0.58512-0.32746v0.36235c-0.12615 0.11273-0.23082 0.17446-0.35697 0.17446-0.12884 0-0.22815-0.0617-0.22815-0.20935z"/>
    <path d="m141.35 246.8h0.22009v-0.94479c0.12078-0.1342 0.23083-0.2013 0.32746-0.2013 0.16641 0 0.24424 0.10468 0.24424 0.34893v0.79716h0.2201v-0.94479c0.12078-0.1342 0.22546-0.2013 0.32745-0.2013 0.16373 0 0.24157 0.10468 0.24157 0.34893v0.79716h0.22009v-0.82669c0-0.33282-0.12884-0.50997-0.39724-0.50997-0.15836 0-0.29256 0.102-0.42945 0.24962-0.0537-0.15568-0.16104-0.24962-0.35966-0.24962-0.15568 0-0.29256 0.0966-0.40529 0.22009h-8e-3l-0.0188-0.18788h-0.18251z"/>
    <path d="m143.48 246.15c0 0.42676 0.27646 0.68175 0.62539 0.68175 0.17714 0 0.31671-0.0617 0.42944-0.1342l-0.0778-0.14494c-0.0966 0.0617-0.20131 0.10199-0.32477 0.10199-0.24962 0-0.41872-0.17715-0.43482-0.45897h0.88037c5e-3 -0.0322 8e-3 -0.0752 8e-3 -0.12078 0-0.37309-0.18788-0.61197-0.5207-0.61197-0.29793 0-0.58513 0.26036-0.58513 0.68712zm0.21473-0.0993c0.0268-0.26304 0.19325-0.41334 0.37576-0.41334 0.20399 0 0.32209 0.14762 0.32209 0.41334z"/>
    <path d="m144.92 246.8h0.20667v-0.96894c0-0.15568-0.0161-0.36503-0.0268-0.52071h0.0107l0.13957 0.39187 0.33819 0.92063h0.12883l0.33819-0.92063 0.13957-0.39187h0.0107c-0.0107 0.15568-0.0295 0.36503-0.0295 0.52071v0.96894h0.21204v-1.7607h-0.26303l-0.33819 0.94479-0.12347 0.35966h-0.0107l-0.12615-0.35966-0.34087-0.94479h-0.26572z"/>
    <path d="m146.78 246.46c0 0.23351 0.16372 0.3704 0.38382 0.3704 0.16104 0 0.30598-0.0859 0.43213-0.18789h5e-3l0.0188 0.15568h0.18251v-0.79985c0-0.32477-0.1342-0.53681-0.4536-0.53681-0.20936 0-0.39188 0.0913-0.51266 0.1691l0.0886 0.15299c0.10199-0.0698 0.23619-0.13957 0.38918-0.13957 0.21204 0 0.26841 0.16104 0.26841 0.32745-0.5556 0.0617-0.80253 0.20399-0.80253 0.4885zm0.21741-0.0161c0-0.16642 0.14762-0.27378 0.58512-0.32746v0.36235c-0.12615 0.11273-0.23083 0.17446-0.35698 0.17446-0.12883 0-0.22814-0.0617-0.22814-0.20935z"/>
    <path d="m148.22 246.8h0.21741v-0.34356l0.24425-0.28451 0.38114 0.62807h0.24156l-0.49655-0.78106 0.4375-0.52339h-0.24425l-0.5556 0.68712h-8e-3v-1.2937h-0.21741z"/>
    <path d="m149.4 246.15c0 0.42676 0.27645 0.68175 0.62538 0.68175 0.17715 0 0.31672-0.0617 0.42945-0.1342l-0.0778-0.14494c-0.0966 0.0617-0.2013 0.10199-0.32477 0.10199-0.24962 0-0.41871-0.17715-0.43482-0.45897h0.88037c5e-3 -0.0322 8e-3 -0.0752 8e-3 -0.12078 0-0.37309-0.18788-0.61197-0.5207-0.61197-0.29793 0-0.58512 0.26036-0.58512 0.68712zm0.21472-0.0993c0.0268-0.26304 0.19325-0.41334 0.37577-0.41334 0.20398 0 0.32208 0.14762 0.32208 0.41334z"/>
    <path d="m150.83 246.8h0.22009v-0.83742c0.0886-0.2201 0.2201-0.30062 0.33014-0.30062 0.0537 0 0.0832 8e-3 0.12615 0.0215l0.043-0.19325c-0.043-0.0188-0.0832-0.0268-0.13957-0.0268-0.14763 0-0.28183 0.10468-0.3704 0.26841h-8e-3l-0.0188-0.2362h-0.18252z"/>
   </g>
   <g aria-label="Naughty Dog">
    <path d="m116.58 231.39h0.21204v-0.92063c0-0.1852-0.0161-0.37308-0.0268-0.55023h0.0107l0.19057 0.36235 0.63612 1.1085h0.23083v-1.7607h-0.21204v0.90989c0 0.1852 0.0188 0.38382 0.0295 0.56097h-0.0107l-0.19057-0.36503-0.63881-1.1058h-0.23082z"/>
    <path d="m118.23 231.05c0 0.23351 0.16373 0.3704 0.38382 0.3704 0.16104 0 0.30598-0.0859 0.43213-0.18789h5e-3l0.0188 0.15568h0.18251v-0.79985c0-0.32477-0.1342-0.53681-0.4536-0.53681-0.20936 0-0.39187 0.0913-0.51265 0.1691l0.0886 0.15299c0.10199-0.0698 0.2362-0.13957 0.38919-0.13957 0.21204 0 0.2684 0.16104 0.2684 0.32745-0.5556 0.0617-0.80253 0.20399-0.80253 0.4885zm0.21741-0.0161c0-0.16641 0.14762-0.27377 0.58512-0.32745v0.36235c-0.12615 0.11273-0.23083 0.17446-0.35698 0.17446-0.12883 0-0.22814-0.0617-0.22814-0.20936z"/>
    <path d="m119.64 230.91c0 0.33282 0.12346 0.50997 0.39992 0.50997 0.17983 0 0.30867-0.0939 0.42945-0.2362h8e-3l0.0188 0.20399h0.18252v-1.3044h-0.2201v0.926c-0.12346 0.15299-0.2174 0.22009-0.35161 0.22009-0.17178 0-0.24425-0.10468-0.24425-0.34893v-0.79716h-0.22277z"/>
    <path d="m121.22 231.61c0-0.0752 0.0403-0.15299 0.1342-0.22009 0.0564 0.0161 0.1181 0.0215 0.16909 0.0215h0.22546c0.1691 0 0.26304 0.0403 0.26304 0.16104 0 0.13689-0.16373 0.26573-0.41334 0.26573-0.2362 0-0.37845-0.0886-0.37845-0.22815zm-0.19326 0.0295c0 0.22546 0.2201 0.35161 0.5395 0.35161 0.40529 0 0.66027-0.20936 0.66027-0.45092 0-0.21741-0.15299-0.31135-0.45628-0.31135h-0.2523c-0.17715 0-0.23083-0.059-0.23083-0.14226 0-0.0725 0.0376-0.11541 0.0832-0.15567 0.0591 0.0295 0.13152 0.0456 0.19594 0.0456 0.26572 0 0.47776-0.17447 0.47776-0.45361 0-0.11005-0.0456-0.20936-0.10736-0.2684h0.2684v-0.1691h-0.4536c-0.0483-0.0188-0.11273-0.0322-0.1852-0.0322-0.26572 0-0.49118 0.17983-0.49118 0.46434 0 0.15568 0.0832 0.28183 0.16909 0.35161v0.0107c-0.0671 0.0456-0.14225 0.13152-0.14225 0.24156 0 0.102 0.051 0.17178 0.11541 0.21204v0.0107c-0.1181 0.0805-0.19057 0.1852-0.19057 0.29525zm0.5395-0.81059c-0.15031 0-0.27646-0.12078-0.27646-0.31135 0-0.19056 0.12347-0.3033 0.27646-0.3033s0.27646 0.11274 0.27646 0.3033c0 0.19057-0.12616 0.31135-0.27646 0.31135z"/>
    <path d="m122.48 231.39h0.2201v-0.94479c0.13151-0.13152 0.22277-0.2013 0.35697-0.2013 0.17178 0 0.24694 0.10468 0.24694 0.34893v0.79716h0.22009v-0.82669c0-0.33282-0.12347-0.50997-0.39724-0.50997-0.17983 0-0.31135 0.0966-0.43482 0.21473l8e-3 -0.26841v-0.5207h-0.2201z"/>
    <path d="m123.98 230.99c0 0.25767 0.0939 0.43482 0.37308 0.43482 0.0805 0 0.1691-0.0242 0.24157-0.0483l-0.043-0.16641c-0.0429 0.0161-0.10199 0.0349-0.14762 0.0349-0.15031 0-0.20131-0.0913-0.20131-0.2523v-0.7247h0.35161v-0.17983h-0.35161v-0.36503h-0.1852l-0.0268 0.36503-0.20398 0.0134v0.16641h0.19325z"/>
    <path d="m124.76 231.75-0.0429 0.17446c0.0429 0.0161 0.0939 0.0268 0.15299 0.0268 0.26304 0 0.39724-0.19594 0.4885-0.45361l0.49118-1.4118h-0.21473l-0.23351 0.72201c-0.0349 0.11541-0.0725 0.24962-0.11004 0.36771h-0.0107c-0.0403-0.12078-0.0859-0.25498-0.12615-0.36771l-0.26572-0.72201h-0.22815l0.52339 1.3071-0.0295 0.0966c-0.0537 0.16104-0.14762 0.27914-0.29525 0.27914-0.0322 0-0.0725-0.0107-0.0993-0.0188z"/>
    <path d="m126.65 231.39h0.45092c0.53144 0 0.82132-0.32746 0.82132-0.88842 0-0.55828-0.28988-0.87232-0.83206-0.87232h-0.44018zm0.22546-0.18252v-1.3957h0.19862c0.41334 0 0.61733 0.24693 0.61733 0.6898 0 0.44555-0.20399 0.7059-0.61733 0.7059z"/>
    <path d="m128.18 230.74c0 0.43213 0.28451 0.68175 0.60391 0.68175s0.60391-0.24962 0.60391-0.68175c0-0.4375-0.28451-0.68712-0.60391-0.68712s-0.60391 0.24962-0.60391 0.68712zm0.22814 0c0-0.30061 0.15299-0.5046 0.37577-0.5046 0.22546 0 0.37577 0.20399 0.37577 0.5046 0 0.29793-0.15031 0.49923-0.37577 0.49923-0.22278 0-0.37577-0.2013-0.37577-0.49923z"/>
    <path d="m129.83 231.61c0-0.0752 0.0403-0.15299 0.1342-0.22009 0.0564 0.0161 0.1181 0.0215 0.1691 0.0215h0.22546c0.16909 0 0.26304 0.0403 0.26304 0.16104 0 0.13689-0.16373 0.26573-0.41335 0.26573-0.23619 0-0.37845-0.0886-0.37845-0.22815zm-0.19325 0.0295c0 0.22546 0.22009 0.35161 0.53949 0.35161 0.40529 0 0.66028-0.20936 0.66028-0.45092 0-0.21741-0.15299-0.31135-0.45629-0.31135h-0.2523c-0.17715 0-0.23083-0.059-0.23083-0.14226 0-0.0725 0.0376-0.11541 0.0832-0.15567 0.059 0.0295 0.13152 0.0456 0.19593 0.0456 0.26572 0 0.47776-0.17447 0.47776-0.45361 0-0.11005-0.0456-0.20936-0.10736-0.2684h0.26841v-0.1691h-0.45361c-0.0483-0.0188-0.11273-0.0322-0.1852-0.0322-0.26572 0-0.49118 0.17983-0.49118 0.46434 0 0.15568 0.0832 0.28183 0.1691 0.35161v0.0107c-0.0671 0.0456-0.14226 0.13152-0.14226 0.24156 0 0.102 0.051 0.17178 0.11542 0.21204v0.0107c-0.1181 0.0805-0.19057 0.1852-0.19057 0.29525zm0.53949-0.81059c-0.1503 0-0.27645-0.12078-0.27645-0.31135 0-0.19056 0.12346-0.3033 0.27645-0.3033s0.27646 0.11274 0.27646 0.3033c0 0.19057-0.12615 0.31135-0.27646 0.31135z"/>
   </g>
   <g aria-label="RAGE Engine">
    <path d="m138.55 229.81h0.29524c0.27378 0 0.42408 0.0832 0.42408 0.31404 0 0.22814-0.1503 0.34087-0.42408 0.34087h-0.29524zm0.99578 1.5809-0.44824-0.76764c0.23888-0.0617 0.39456-0.22546 0.39456-0.49923 0-0.36503-0.25767-0.49387-0.61465-0.49387h-0.55291v1.7607h0.22546v-0.74348h0.31672l0.42408 0.74348z"/>
    <path d="m140.06 230.67 0.0859-0.26841c0.0617-0.19593 0.1181-0.38918 0.17447-0.59317h0.0107c0.0564 0.20399 0.11273 0.39724 0.17446 0.59317l0.0832 0.26841zm0.75422 0.71664h0.2362l-0.59586-1.7607h-0.2523l-0.59586 1.7607h0.22814l0.1691-0.53681h0.64149z"/>
    <path d="m141.16 230.51c0 0.57439 0.33014 0.91258 0.7918 0.91258 0.23619 0 0.43213-0.0913 0.54754-0.20399v-0.7408h-0.57707v0.1852h0.37309v0.45897c-0.0698 0.0644-0.19325 0.10468-0.31941 0.10468-0.37576 0-0.58512-0.27914-0.58512-0.72201 0-0.4375 0.22815-0.71127 0.58512-0.71127 0.17447 0 0.28451 0.0698 0.37309 0.16373l0.12883-0.14226c-0.10468-0.10736-0.26572-0.21741-0.5046-0.21741-0.47239 0-0.81327 0.34625-0.81327 0.91258z"/>
    <path d="m142.9 231.39h1.0414v-0.19057h-0.81595v-0.6388h0.66565v-0.19057h-0.66565v-0.55291h0.78911v-0.18789h-1.0146z"/>
    <path d="m144.84 231.39h1.0414v-0.19057h-0.81595v-0.6388h0.66564v-0.19057h-0.66564v-0.55291h0.78911v-0.18789h-1.0146z"/>
    <path d="m146.22 231.39h0.22009v-0.94479c0.13152-0.13152 0.22278-0.2013 0.35698-0.2013 0.17178 0 0.24693 0.10468 0.24693 0.34893v0.79716h0.22009v-0.82669c0-0.33282-0.12346-0.50997-0.39724-0.50997-0.17983 0-0.31403 0.0966-0.4375 0.22009h-8e-3l-0.0188-0.18788h-0.18251z"/>
    <path d="m147.79 231.61c0-0.0752 0.0403-0.15299 0.1342-0.22009 0.0564 0.0161 0.1181 0.0215 0.1691 0.0215h0.22546c0.16909 0 0.26303 0.0403 0.26303 0.16104 0 0.13689-0.16372 0.26573-0.41334 0.26573-0.2362 0-0.37845-0.0886-0.37845-0.22815zm-0.19325 0.0295c0 0.22546 0.22009 0.35161 0.53949 0.35161 0.40529 0 0.66028-0.20936 0.66028-0.45092 0-0.21741-0.15299-0.31135-0.45629-0.31135h-0.2523c-0.17715 0-0.23083-0.059-0.23083-0.14226 0-0.0725 0.0376-0.11541 0.0832-0.15567 0.059 0.0295 0.13152 0.0456 0.19593 0.0456 0.26572 0 0.47776-0.17447 0.47776-0.45361 0-0.11005-0.0456-0.20936-0.10736-0.2684h0.26841v-0.1691h-0.45361c-0.0483-0.0188-0.11273-0.0322-0.1852-0.0322-0.26572 0-0.49118 0.17983-0.49118 0.46434 0 0.15568 0.0832 0.28183 0.1691 0.35161v0.0107c-0.0671 0.0456-0.14226 0.13152-0.14226 0.24156 0 0.102 0.051 0.17178 0.11542 0.21204v0.0107c-0.1181 0.0805-0.19057 0.1852-0.19057 0.29525zm0.53949-0.81059c-0.1503 0-0.27645-0.12078-0.27645-0.31135 0-0.19056 0.12346-0.3033 0.27645-0.3033s0.27646 0.11274 0.27646 0.3033c0 0.19057-0.12615 0.31135-0.27646 0.31135z"/>
    <path d="m149.16 229.82c0.0859 0 0.15299-0.059 0.15299-0.14226 0-0.0859-0.0671-0.14225-0.15299-0.14225-0.0859 0-0.15299 0.0564-0.15299 0.14225 0 0.0832 0.0671 0.14226 0.15299 0.14226zm-0.11273 1.5728h0.22009v-1.3044h-0.22009z"/>
    <path d="m149.7 231.39h0.22009v-0.94479c0.13152-0.13152 0.22277-0.2013 0.35698-0.2013 0.17178 0 0.24693 0.10468 0.24693 0.34893v0.79716h0.22009v-0.82669c0-0.33282-0.12346-0.50997-0.39724-0.50997-0.17983 0-0.31403 0.0966-0.4375 0.22009h-8e-3l-0.0188-0.18788h-0.18251z"/>
    <path d="m151.08 230.74c0 0.42676 0.27646 0.68175 0.62538 0.68175 0.17715 0 0.31672-0.0617 0.42945-0.13421l-0.0778-0.14493c-0.0966 0.0617-0.2013 0.10199-0.32477 0.10199-0.24961 0-0.41871-0.17715-0.43481-0.45897h0.88037c5e-3 -0.0322 8e-3 -0.0752 8e-3 -0.12078 0-0.37309-0.18789-0.61197-0.52071-0.61197-0.29793 0-0.58512 0.26035-0.58512 0.68712zm0.21472-0.0993c0.0268-0.26304 0.19326-0.41334 0.37577-0.41334 0.20399 0 0.32209 0.14762 0.32209 0.41334z"/>
   </g>
   <g aria-label="Godot">
    <path d="m98.534 245.92c0 0.57439 0.33014 0.91258 0.7918 0.91258 0.2362 0 0.43213-0.0913 0.54755-0.20399v-0.7408h-0.57707v0.1852h0.37308v0.45897c-0.06978 0.0644-0.19325 0.10468-0.3194 0.10468-0.37577 0-0.58512-0.27914-0.58512-0.72201 0-0.4375 0.22814-0.71127 0.58512-0.71127 0.17446 0 0.28451 0.0698 0.37308 0.16373l0.12884-0.14226c-0.10468-0.10736-0.26572-0.21741-0.5046-0.21741-0.47239 0-0.81327 0.34625-0.81327 0.91258z"/>
    <path d="m100.17 246.15c0 0.43213 0.28451 0.68175 0.60391 0.68175 0.31941 0 0.60391-0.24962 0.60391-0.68175 0-0.4375-0.2845-0.68712-0.60391-0.68712-0.3194 0-0.60391 0.24962-0.60391 0.68712zm0.22815 0c0-0.30061 0.15299-0.5046 0.37576-0.5046 0.22546 0 0.37577 0.20399 0.37577 0.5046 0 0.29793-0.15031 0.49923-0.37577 0.49923-0.22277 0-0.37576-0.2013-0.37576-0.49923z"/>
    <path d="m101.63 246.15c0 0.43482 0.21204 0.68175 0.5395 0.68175 0.15299 0 0.29256-0.0859 0.39455-0.1852h8e-3l0.0188 0.15299h0.18252v-1.911h-0.22278v0.50191l0.0107 0.22278c-0.11542-0.0939-0.21473-0.15031-0.36503-0.15031-0.29793 0-0.56634 0.26304-0.56634 0.68712zm0.22815-3e-3c0-0.29793 0.16641-0.49924 0.37576-0.49924 0.10736 0 0.20667 0.0376 0.31672 0.13689v0.68175c-0.10736 0.12078-0.21204 0.17983-0.33282 0.17983-0.22815 0-0.35966-0.18788-0.35966-0.49923z"/>
    <path d="m103.11 246.15c0 0.43213 0.28451 0.68175 0.60391 0.68175s0.60391-0.24962 0.60391-0.68175c0-0.4375-0.28451-0.68712-0.60391-0.68712s-0.60391 0.24962-0.60391 0.68712zm0.22814 0c0-0.30061 0.15299-0.5046 0.37577-0.5046 0.22546 0 0.37576 0.20399 0.37576 0.5046 0 0.29793-0.1503 0.49923-0.37576 0.49923-0.22278 0-0.37577-0.2013-0.37577-0.49923z"/>
    <path d="m104.7 246.39c0 0.25767 0.0939 0.43482 0.37309 0.43482 0.0805 0 0.16909-0.0242 0.24156-0.0483l-0.0429-0.16642c-0.0429 0.0161-0.102 0.0349-0.14763 0.0349-0.1503 0-0.2013-0.0913-0.2013-0.2523v-0.7247h0.35161v-0.17983h-0.35161v-0.36503h-0.1852l-0.0268 0.36503-0.20399 0.0134v0.16641h0.19325z"/>
   </g>
   <g aria-label="Torque 2D">
    <path d="m54.35 246.8h0.22278v-1.5728h0.53413v-0.18789h-1.291v0.18789h0.53413z"/>
    <path d="m55.12 246.15c0 0.43213 0.28451 0.68175 0.60391 0.68175s0.60391-0.24962 0.60391-0.68175c0-0.4375-0.28451-0.68712-0.60391-0.68712s-0.60391 0.24962-0.60391 0.68712zm0.22814 0c0-0.30061 0.15299-0.5046 0.37577-0.5046 0.22546 0 0.37577 0.20399 0.37577 0.5046 0 0.29793-0.15031 0.49923-0.37577 0.49923-0.22278 0-0.37577-0.2013-0.37577-0.49923z"/>
    <path d="m56.674 246.8h0.22009v-0.83742c0.08857-0.2201 0.22009-0.30062 0.33014-0.30062 0.05368 0 0.08321 8e-3 0.12615 0.0215l0.04294-0.19325c-0.04294-0.0188-0.0832-0.0268-0.13957-0.0268-0.14762 0-0.28182 0.10468-0.3704 0.26841h-0.0081l-0.01879-0.2362h-0.18252z"/>
    <path d="m57.487 246.15c0 0.43482 0.21204 0.68175 0.53949 0.68175 0.15031 0 0.28719-0.0805 0.39187-0.17715l-0.01074 0.23083v0.46434h0.22278v-1.8547h-0.17714l-0.02147 0.12347h-0.0054c-0.1181-0.102-0.22278-0.15568-0.37308-0.15568-0.29793 0-0.56633 0.26304-0.56633 0.68712zm0.22814-3e-3c0-0.29793 0.16641-0.49924 0.37577-0.49924 0.10736 0 0.20667 0.0376 0.31672 0.13689v0.68175c-0.10736 0.12078-0.21204 0.17983-0.33282 0.17983-0.22814 0-0.35966-0.18788-0.35966-0.49923z"/>
    <path d="m59.041 246.32c0 0.33282 0.12347 0.50997 0.39992 0.50997 0.17983 0 0.30867-0.0939 0.42945-0.2362h0.0081l0.01879 0.20399h0.18252v-1.3044h-0.22009v0.926c-0.12347 0.15299-0.21741 0.22009-0.35161 0.22009-0.17178 0-0.24425-0.10468-0.24425-0.34893v-0.79716h-0.22282z"/>
    <path d="m60.425 246.15c0 0.42676 0.27646 0.68175 0.62538 0.68175 0.17715 0 0.31672-0.0617 0.42945-0.1342l-0.07784-0.14494c-0.09663 0.0617-0.2013 0.10199-0.32477 0.10199-0.24962 0-0.41871-0.17715-0.43482-0.45897h0.88037c0.0054-0.0322 0.0081-0.0752 0.0081-0.12078 0-0.37309-0.18788-0.61197-0.5207-0.61197-0.29793 0-0.58512 0.26036-0.58512 0.68712zm0.21472-0.0993c0.02684-0.26304 0.19325-0.41334 0.37577-0.41334 0.20399 0 0.32209 0.14762 0.32209 0.41334z"/>
    <path d="m62.281 246.8h1.1058v-0.19057h-0.49655c-0.08857 0-0.19325 8e-3 -0.28719 0.0161 0.40529-0.42408 0.69785-0.74349 0.69785-1.0656 0-0.3033-0.19594-0.5046-0.51265-0.5046-0.22278 0-0.37577 0.10468-0.51802 0.26035l0.12615 0.12615c0.09931-0.11541 0.22278-0.20667 0.36503-0.20667 0.21741 0 0.32477 0.13957 0.32477 0.3355 0 0.27646-0.28988 0.58513-0.80522 1.0978z"/>
    <path d="m63.739 246.8h0.45092c0.53144 0 0.82132-0.32745 0.82132-0.88842 0-0.55828-0.28988-0.87232-0.83206-0.87232h-0.44018zm0.22546-0.18252v-1.3957h0.19862c0.41334 0 0.61733 0.24693 0.61733 0.6898 0 0.44555-0.20399 0.7059-0.61733 0.7059z"/>
   </g>
   <g aria-label="OpenFrameworks">
    <path d="m50.247 261.88c0.44018 0 0.75153-0.35429 0.75153-0.92063 0-0.56096-0.31135-0.90452-0.75153-0.90452-0.44287 0-0.75422 0.34087-0.75422 0.90452 0 0.56634 0.31135 0.92063 0.75422 0.92063zm0-0.19593c-0.31672 0-0.52339-0.28451-0.52339-0.7247 0-0.4375 0.20667-0.70859 0.52339-0.70859 0.31403 0 0.5207 0.27109 0.5207 0.70859 0 0.44019-0.20667 0.7247-0.5207 0.7247z"/>
    <path d="m51.563 261.73c0.12078 0.094 0.24156 0.15031 0.36235 0.15031 0.29793 0 0.56365-0.26035 0.56365-0.70322 0-0.40529-0.17983-0.66564-0.51534-0.66564-0.15299 0-0.29793 0.0832-0.41603 0.18251h-0.0081l-0.01879-0.15031h-0.18247v1.8547h0.22009v-0.44018zm0.0054-0.17178v-0.68443c0.12883-0.11541 0.23888-0.17715 0.34893-0.17715 0.24693 0 0.34356 0.19326 0.34356 0.48045 0 0.32209-0.15836 0.51802-0.37308 0.51802-0.08589 0-0.2013-0.0376-0.3194-0.13689z"/>
    <path d="m52.741 261.2c0 0.42677 0.27646 0.68175 0.62538 0.68175 0.17715 0 0.31672-0.0617 0.42945-0.1342l-0.07784-0.14494c-0.09663 0.0617-0.2013 0.10199-0.32477 0.10199-0.24962 0-0.41871-0.17714-0.43482-0.45897h0.88037c0.0054-0.0322 0.0081-0.0752 0.0081-0.12078 0-0.37308-0.18788-0.61196-0.5207-0.61196-0.29793 0-0.58512 0.26035-0.58512 0.68711zm0.21472-0.0993c0.02684-0.26303 0.19325-0.41334 0.37577-0.41334 0.20399 0 0.32209 0.14762 0.32209 0.41334z"/>
    <path d="m54.169 261.85h0.22009v-0.94478c0.13152-0.13152 0.22278-0.20131 0.35698-0.20131 0.17178 0 0.24693 0.10468 0.24693 0.34893v0.79716h0.22009v-0.82669c0-0.33282-0.12347-0.50996-0.39724-0.50996-0.17983 0-0.31403 0.0966-0.4375 0.22009h-0.0081l-0.01879-0.18789h-0.18247z"/>
    <path d="m55.65 261.85h0.22546v-0.78911h0.67101v-0.18788h-0.67101v-0.59586h0.7918v-0.18788h-1.0173z"/>
    <path d="m56.895 261.85h0.22009v-0.83742c0.08857-0.22009 0.22009-0.30062 0.33014-0.30062 0.05368 0 0.08321 8e-3 0.12615 0.0215l0.04294-0.19325c-0.04294-0.0188-0.0832-0.0268-0.13957-0.0268-0.14762 0-0.28182 0.10467-0.3704 0.2684h-0.0081l-0.01879-0.2362h-0.18252z"/>
    <path d="m57.695 261.51c0 0.23351 0.16373 0.3704 0.38382 0.3704 0.16104 0 0.30598-0.0859 0.43213-0.18788h0.0054l0.01879 0.15567h0.18252v-0.79984c0-0.32477-0.1342-0.53681-0.4536-0.53681-0.20936 0-0.39187 0.0913-0.51265 0.16909l0.08857 0.15299c0.10199-0.0698 0.2362-0.13957 0.38919-0.13957 0.21204 0 0.2684 0.16104 0.2684 0.32745-0.5556 0.0617-0.80253 0.20399-0.80253 0.4885zm0.21741-0.0161c0-0.16641 0.14762-0.27378 0.58512-0.32746v0.36235c-0.12615 0.11273-0.23083 0.17446-0.35698 0.17446-0.12884 0-0.22814-0.0617-0.22814-0.20935z"/>
    <path d="m59.133 261.85h0.22009v-0.94478c0.12078-0.13421 0.23083-0.20131 0.32746-0.20131 0.16641 0 0.24425 0.10468 0.24425 0.34893v0.79716h0.22009v-0.94478c0.12078-0.13421 0.22546-0.20131 0.32745-0.20131 0.16373 0 0.24156 0.10468 0.24156 0.34893v0.79716h0.22009v-0.82669c0-0.33282-0.12883-0.50996-0.39724-0.50996-0.15836 0-0.29256 0.10199-0.42945 0.24961-0.05368-0.15567-0.16104-0.24961-0.35966-0.24961-0.15568 0-0.29256 0.0966-0.40529 0.22009h-0.0081l-0.01879-0.18789h-0.18252z"/>
    <path d="m61.259 261.2c0 0.42677 0.27646 0.68175 0.62538 0.68175 0.17715 0 0.31672-0.0617 0.42945-0.1342l-0.07784-0.14494c-0.09663 0.0617-0.2013 0.10199-0.32477 0.10199-0.24962 0-0.41871-0.17714-0.43482-0.45897h0.88037c0.0054-0.0322 0.0081-0.0752 0.0081-0.12078 0-0.37308-0.18788-0.61196-0.52071-0.61196-0.29793 0-0.58512 0.26035-0.58512 0.68711zm0.21472-0.0993c0.02684-0.26303 0.19325-0.41334 0.37577-0.41334 0.20399 0 0.32209 0.14762 0.32209 0.41334z"/>
    <path d="m62.91 261.85h0.25767l0.18252-0.69785c0.03489-0.12347 0.06173-0.24693 0.09126-0.37845h0.01074c0.03221 0.13152 0.05636 0.2523 0.08857 0.37577l0.18788 0.70053h0.2684l0.34893-1.3044h-0.20936l-0.19057 0.75422c-0.02684 0.12347-0.051 0.24157-0.08052 0.36235h-0.01074c-0.02952-0.12078-0.05905-0.23888-0.09126-0.36235l-0.20399-0.75422h-0.21472l-0.2013 0.75422c-0.03221 0.12078-0.05905 0.24157-0.08857 0.36235h-0.01074c-0.02416-0.12078-0.04831-0.23888-0.07784-0.36235l-0.19325-0.75422h-0.22546z"/>
    <path d="m64.525 261.2c0 0.43213 0.28451 0.68175 0.60391 0.68175s0.60391-0.24962 0.60391-0.68175c0-0.4375-0.28451-0.68711-0.60391-0.68711s-0.60391 0.24961-0.60391 0.68711zm0.22814 0c0-0.30061 0.15299-0.5046 0.37577-0.5046 0.22546 0 0.37577 0.20399 0.37577 0.5046 0 0.29793-0.15031 0.49924-0.37577 0.49924-0.22278 0-0.37577-0.20131-0.37577-0.49924z"/>
    <path d="m66.079 261.85h0.22009v-0.83742c0.08857-0.22009 0.22009-0.30062 0.33014-0.30062 0.05368 0 0.08321 8e-3 0.12615 0.0215l0.04295-0.19325c-0.04295-0.0188-0.08321-0.0268-0.13957-0.0268-0.14762 0-0.28182 0.10467-0.3704 0.2684h-0.0081l-0.01879-0.2362h-0.18252z"/>
    <path d="m67.012 261.85h0.21741v-0.34356l0.24425-0.28451 0.38114 0.62807h0.24156l-0.49655-0.78106 0.4375-0.52339h-0.24425l-0.5556 0.68712h-0.0081v-1.2937h-0.21741z"/>
    <path d="m68.194 261.71c0.12347 0.10199 0.30061 0.17983 0.48581 0.17983 0.30866 0 0.47776-0.17715 0.47776-0.38919 0-0.24693-0.20936-0.32477-0.39724-0.39455-0.14762-0.0564-0.28988-0.10468-0.28988-0.22546 0-0.0993 0.07515-0.18789 0.23888-0.18789 0.11541 0 0.20936 0.0483 0.29793 0.11542l0.10468-0.13957c-0.09931-0.0805-0.24156-0.14762-0.40529-0.14762-0.28182 0-0.44824 0.16104-0.44824 0.37039 0 0.2201 0.20399 0.30867 0.38919 0.37577 0.14226 0.0537 0.29793 0.11273 0.29793 0.24693 0 0.11273-0.08589 0.20399-0.25767 0.20399-0.15568 0-0.27109-0.0644-0.38382-0.15567z"/>
   </g>
   <g aria-label="Processing">
    <path d="m74.865 261.85h0.22546v-0.69785h0.31672c0.38382 0 0.64954-0.17446 0.64954-0.54486 0-0.38651-0.26035-0.51802-0.64954-0.51802h-0.54218zm0.22546-0.88037v-0.70053h0.28719c0.3033 0 0.45629 0.0832 0.45629 0.33819 0 0.24961-0.14762 0.36234-0.45629 0.36234z"/>
    <path d="m76.382 261.85h0.22009v-0.83742c0.08857-0.22009 0.22009-0.30062 0.33014-0.30062 0.05368 0 0.08321 8e-3 0.12615 0.0215l0.04295-0.19325c-0.04295-0.0188-0.08321-0.0268-0.13957-0.0268-0.14762 0-0.28183 0.10467-0.3704 0.2684h-0.0081l-0.01879-0.2362h-0.18252z"/>
    <path d="m77.193 261.2c0 0.43213 0.28451 0.68175 0.60391 0.68175s0.60391-0.24962 0.60391-0.68175c0-0.4375-0.28451-0.68711-0.60391-0.68711s-0.60391 0.24961-0.60391 0.68711zm0.22814 0c0-0.30061 0.15299-0.5046 0.37577-0.5046 0.22546 0 0.37577 0.20399 0.37577 0.5046 0 0.29793-0.15031 0.49924-0.37577 0.49924-0.22278 0-0.37577-0.20131-0.37577-0.49924z"/>
    <path d="m78.65 261.2c0 0.43213 0.26572 0.68175 0.61196 0.68175 0.15568 0 0.30598-0.0644 0.42408-0.16909l-0.09931-0.14494c-0.07784 0.0698-0.18252 0.13152-0.30598 0.13152-0.23888 0-0.40261-0.20131-0.40261-0.49924 0-0.30061 0.17178-0.5046 0.40798-0.5046 0.10468 0 0.1852 0.0483 0.26304 0.11541l0.11005-0.14225c-0.08857-0.0832-0.20936-0.15567-0.38114-0.15567-0.33551 0-0.62807 0.24961-0.62807 0.68711z"/>
    <path d="m79.814 261.2c0 0.42677 0.27646 0.68175 0.62538 0.68175 0.17715 0 0.31672-0.0617 0.42945-0.1342l-0.07784-0.14494c-0.09662 0.0617-0.2013 0.10199-0.32477 0.10199-0.24962 0-0.41871-0.17714-0.43482-0.45897h0.88037c0.0054-0.0322 0.0081-0.0752 0.0081-0.12078 0-0.37308-0.18788-0.61196-0.52071-0.61196-0.29793 0-0.58512 0.26035-0.58512 0.68711zm0.21472-0.0993c0.02684-0.26303 0.19325-0.41334 0.37577-0.41334 0.20399 0 0.32209 0.14762 0.32209 0.41334z"/>
    <path d="m81.097 261.71c0.12347 0.10199 0.30061 0.17983 0.48581 0.17983 0.30867 0 0.47776-0.17715 0.47776-0.38919 0-0.24693-0.20936-0.32477-0.39724-0.39455-0.14762-0.0564-0.28988-0.10468-0.28988-0.22546 0-0.0993 0.07515-0.18789 0.23888-0.18789 0.11541 0 0.20936 0.0483 0.29793 0.11542l0.10468-0.13957c-0.09931-0.0805-0.24156-0.14762-0.40529-0.14762-0.28182 0-0.44824 0.16104-0.44824 0.37039 0 0.2201 0.20399 0.30867 0.38919 0.37577 0.14225 0.0537 0.29793 0.11273 0.29793 0.24693 0 0.11273-0.08589 0.20399-0.25767 0.20399-0.15568 0-0.27109-0.0644-0.38382-0.15567z"/>
    <path d="m82.224 261.71c0.12347 0.10199 0.30061 0.17983 0.48581 0.17983 0.30867 0 0.47776-0.17715 0.47776-0.38919 0-0.24693-0.20936-0.32477-0.39724-0.39455-0.14762-0.0564-0.28988-0.10468-0.28988-0.22546 0-0.0993 0.07515-0.18789 0.23888-0.18789 0.11542 0 0.20936 0.0483 0.29793 0.11542l0.10468-0.13957c-0.09931-0.0805-0.24156-0.14762-0.40529-0.14762-0.28182 0-0.44824 0.16104-0.44824 0.37039 0 0.2201 0.20399 0.30867 0.38919 0.37577 0.14226 0.0537 0.29793 0.11273 0.29793 0.24693 0 0.11273-0.08589 0.20399-0.25767 0.20399-0.15568 0-0.27109-0.0644-0.38382-0.15567z"/>
    <path d="m83.609 260.28c0.08589 0 0.15299-0.0591 0.15299-0.14226 0-0.0859-0.0671-0.14225-0.15299-0.14225-0.08589 0-0.15299 0.0564-0.15299 0.14225 0 0.0832 0.0671 0.14226 0.15299 0.14226zm-0.11273 1.5728h0.22009v-1.3044h-0.22009z"/>
    <path d="m84.157 261.85h0.22009v-0.94478c0.13152-0.13152 0.22278-0.20131 0.35698-0.20131 0.17178 0 0.24693 0.10468 0.24693 0.34893v0.79716h0.22009v-0.82669c0-0.33282-0.12347-0.50996-0.39724-0.50996-0.17983 0-0.31403 0.0966-0.4375 0.22009h-0.0081l-0.01879-0.18789h-0.18252z"/>
    <path d="m85.718 262.07c0-0.0752 0.04026-0.15299 0.1342-0.22009 0.05636 0.0161 0.1181 0.0215 0.1691 0.0215h0.22546c0.1691 0 0.26304 0.0403 0.26304 0.16105 0 0.13688-0.16373 0.26572-0.41334 0.26572-0.2362 0-0.37845-0.0886-0.37845-0.22815zm-0.19325 0.0295c0 0.22546 0.22009 0.35161 0.5395 0.35161 0.40529 0 0.66028-0.20936 0.66028-0.45092 0-0.21741-0.15299-0.31135-0.45629-0.31135h-0.2523c-0.17715 0-0.23083-0.0591-0.23083-0.14226 0-0.0725 0.03758-0.11541 0.08321-0.15567 0.05905 0.0295 0.13152 0.0456 0.19594 0.0456 0.26572 0 0.47776-0.17446 0.47776-0.45361 0-0.11004-0.04563-0.20935-0.10736-0.2684h0.2684v-0.1691h-0.45361c-0.04831-0.0188-0.11273-0.0322-0.1852-0.0322-0.26572 0-0.49118 0.17983-0.49118 0.46434 0 0.15567 0.08321 0.28182 0.1691 0.35161v0.0107c-0.0671 0.0456-0.14226 0.13152-0.14226 0.24157 0 0.10199 0.051 0.17178 0.11541 0.21204v0.0107c-0.1181 0.0805-0.19057 0.1852-0.19057 0.29525zm0.5395-0.81058c-0.15031 0-0.27646-0.12079-0.27646-0.31135 0-0.19057 0.12347-0.3033 0.27646-0.3033 0.15299 0 0.27646 0.11273 0.27646 0.3033 0 0.19056-0.12615 0.31135-0.27646 0.31135z"/>
   </g>
   <g aria-label="p5.js">
    <path d="m100.12 261.73c0.12078 0.094 0.24156 0.15031 0.36235 0.15031 0.29793 0 0.56365-0.26035 0.56365-0.70322 0-0.40529-0.17983-0.66564-0.51534-0.66564-0.15299 0-0.29793 0.0832-0.41603 0.18251h-8e-3l-0.0188-0.15031h-0.18251v1.8547h0.22009v-0.44018zm5e-3 -0.17178v-0.68443c0.12883-0.11541 0.23888-0.17715 0.34892-0.17715 0.24694 0 0.34356 0.19326 0.34356 0.48045 0 0.32209-0.15836 0.51802-0.37308 0.51802-0.0859 0-0.2013-0.0376-0.3194-0.13689z"/>
    <path d="m101.24 261.65c0.1181 0.1181 0.2872 0.23351 0.56097 0.23351 0.29793 0 0.57707-0.20936 0.57707-0.57975 0-0.3704-0.23888-0.53681-0.53144-0.53681-0.10468 0-0.18252 0.0268-0.26304 0.0698l0.0456-0.50728h0.66296v-0.19057h-0.85621l-0.0564 0.824 0.11809 0.0752c0.102-0.0671 0.17447-0.10467 0.29256-0.10467 0.2201 0 0.36504 0.13957 0.36504 0.37576 0 0.23888-0.16642 0.39188-0.37577 0.39188-0.20131 0-0.33014-0.094-0.43213-0.19594z"/>
    <path d="m102.68 261.72c0 0.0966 0.0725 0.16641 0.16104 0.16641 0.0859 0 0.15836-0.0698 0.15836-0.16641 0-0.10199-0.0725-0.17178-0.15836-0.17178-0.0886 0-0.16104 0.0698-0.16104 0.17178z"/>
    <path d="m103.4 262c0 0.15836-0.0322 0.25499-0.16104 0.25499-0.0456 0-0.0913-0.0107-0.12346-0.0215l-0.0456 0.16641c0.0456 0.0188 0.11273 0.0349 0.19325 0.0349 0.26035 0 0.35698-0.16909 0.35698-0.43482v-1.4521h-0.2201zm0.11273-1.7205c0.0832 0 0.15031-0.0591 0.15031-0.14226 0-0.0859-0.0671-0.14225-0.15031-0.14225-0.0859 0-0.15299 0.0564-0.15299 0.14225 0 0.0832 0.0671 0.14226 0.15299 0.14226z"/>
    <path d="m103.92 261.71c0.12347 0.10199 0.30061 0.17983 0.48581 0.17983 0.30867 0 0.47776-0.17715 0.47776-0.38919 0-0.24693-0.20935-0.32477-0.39724-0.39455-0.14762-0.0564-0.28987-0.10468-0.28987-0.22546 0-0.0993 0.0751-0.18789 0.23888-0.18789 0.11541 0 0.20935 0.0483 0.29793 0.11542l0.10467-0.13957c-0.0993-0.0805-0.24156-0.14762-0.40529-0.14762-0.28182 0-0.44823 0.16104-0.44823 0.37039 0 0.2201 0.20398 0.30867 0.38918 0.37577 0.14226 0.0537 0.29793 0.11273 0.29793 0.24693 0 0.11273-0.0859 0.20399-0.25767 0.20399-0.15567 0-0.27108-0.0644-0.38381-0.15567z"/>
   </g>
   <g aria-label="BonsaiJS">
    <path d="m97.955 276.43h0.56365c0.39187 0 0.66564-0.16909 0.66564-0.51533 0-0.24157-0.15031-0.38114-0.40798-0.4214v-0.0107c0.20936-0.0537 0.30867-0.20935 0.30867-0.38381 0-0.30867-0.24962-0.42945-0.6066-0.42945h-0.52339zm0.22546-1.0092v-0.57439h0.27109c0.27109 0 0.41334 0.0805 0.41334 0.27109 0 0.19594-0.12615 0.3033-0.42408 0.3033zm0 0.83206v-0.66565h0.30598c0.30867 0 0.47776 0.0993 0.47776 0.31672 0 0.23888-0.17715 0.34893-0.47776 0.34893z"/>
    <path d="m99.413 275.78c0 0.43214 0.28451 0.68175 0.60391 0.68175 0.31941 0 0.60392-0.24961 0.60392-0.68175 0-0.4375-0.28451-0.68711-0.60392-0.68711-0.3194 0-0.60391 0.24961-0.60391 0.68711zm0.22814 0c0-0.30061 0.15299-0.5046 0.37576-0.5046 0.22546 0 0.37577 0.20399 0.37577 0.5046 0 0.29793-0.15031 0.49924-0.37577 0.49924-0.22277 0-0.37576-0.20131-0.37576-0.49924z"/>
    <path d="m100.97 276.43h0.2201v-0.94478c0.13151-0.13152 0.22277-0.20131 0.35697-0.20131 0.17178 0 0.24694 0.10468 0.24694 0.34893v0.79716h0.22009v-0.82668c0-0.33283-0.12347-0.50997-0.39724-0.50997-0.17983 0-0.31403 0.0966-0.4375 0.22009h-8e-3l-0.0188-0.18788h-0.18252z"/>
    <path d="m102.29 276.28c0.12346 0.102 0.30061 0.17983 0.48581 0.17983 0.30866 0 0.47776-0.17714 0.47776-0.38918 0-0.24694-0.20936-0.32477-0.39724-0.39456-0.14762-0.0564-0.28988-0.10468-0.28988-0.22546 0-0.0993 0.0752-0.18788 0.23888-0.18788 0.11542 0 0.20936 0.0483 0.29793 0.11541l0.10468-0.13957c-0.0993-0.0805-0.24156-0.14762-0.40529-0.14762-0.28183 0-0.44824 0.16104-0.44824 0.3704 0 0.22009 0.20399 0.30866 0.38919 0.37576 0.14225 0.0537 0.29793 0.11273 0.29793 0.24694 0 0.11273-0.0859 0.20398-0.25767 0.20398-0.15567 0-0.27109-0.0644-0.38382-0.15567z"/>
    <path d="m103.5 276.09c0 0.23352 0.16373 0.3704 0.38382 0.3704 0.16104 0 0.30598-0.0859 0.43213-0.18788h5e-3l0.0188 0.15567h0.18251v-0.79984c0-0.32477-0.1342-0.53681-0.4536-0.53681-0.20936 0-0.39187 0.0913-0.51266 0.16909l0.0886 0.15299c0.10199-0.0698 0.23619-0.13957 0.38918-0.13957 0.21204 0 0.26841 0.16105 0.26841 0.32746-0.5556 0.0617-0.80253 0.20398-0.80253 0.48849zm0.21741-0.0161c0-0.16641 0.14762-0.27377 0.58512-0.32745v0.36234c-0.12615 0.11273-0.23083 0.17447-0.35698 0.17447-0.12883 0-0.22814-0.0617-0.22814-0.20936z"/>
    <path d="m105.05 274.85c0.0859 0 0.153-0.059 0.153-0.14225 0-0.0859-0.0671-0.14226-0.153-0.14226s-0.15299 0.0564-0.15299 0.14226c0 0.0832 0.0671 0.14225 0.15299 0.14225zm-0.11273 1.5728h0.2201v-1.3044h-0.2201z"/>
    <path d="m105.45 276.18c0.10199 0.1852 0.26035 0.28182 0.48313 0.28182 0.34624 0 0.48581-0.24693 0.48581-0.55023v-1.2427h-0.22278v1.2212c0 0.26841-0.0939 0.37577-0.28182 0.37577-0.12615 0-0.22546-0.059-0.30598-0.19862z"/>
    <path d="m106.76 276.2c0.15299 0.15836 0.36771 0.26035 0.61464 0.26035 0.3704 0 0.60123-0.22277 0.60123-0.50191 0-0.26036-0.15836-0.38114-0.36235-0.46971l-0.2523-0.10737c-0.13688-0.059-0.29256-0.12346-0.29256-0.29256 0-0.15836 0.13152-0.25767 0.33014-0.25767 0.16104 0 0.29256 0.0644 0.39992 0.16642l0.1181-0.14494c-0.12346-0.12884-0.30866-0.21741-0.51802-0.21741-0.3194 0-0.5556 0.19862-0.5556 0.46702 0 0.25767 0.19325 0.38382 0.35698 0.45361l0.2523 0.11004c0.16641 0.0752 0.29525 0.13152 0.29525 0.31135 0 0.17178-0.13689 0.2872-0.36772 0.2872-0.1852 0-0.35966-0.0886-0.48581-0.22009z"/>
   </g>
   <g aria-label="SDL">
    <path d="m57.169 276.2c0.15299 0.15836 0.36772 0.26035 0.61465 0.26035 0.3704 0 0.60123-0.22277 0.60123-0.50191 0-0.26036-0.15836-0.38114-0.36235-0.46971l-0.2523-0.10737c-0.13689-0.059-0.29256-0.12346-0.29256-0.29256 0-0.15836 0.13152-0.25767 0.33014-0.25767 0.16104 0 0.29256 0.0644 0.39992 0.16642l0.1181-0.14494c-0.12347-0.12884-0.30867-0.21741-0.51802-0.21741-0.3194 0-0.5556 0.19862-0.5556 0.46702 0 0.25767 0.19325 0.38382 0.35698 0.45361l0.2523 0.11004c0.16641 0.0752 0.29524 0.13152 0.29524 0.31135 0 0.17178-0.13689 0.2872-0.36771 0.2872-0.1852 0-0.35966-0.0886-0.48581-0.22009z"/>
    <path d="m58.716 276.43h0.45092c0.53144 0 0.82132-0.32745 0.82132-0.88842 0-0.55828-0.28988-0.87231-0.83206-0.87231h-0.44018zm0.22546-0.18251v-1.3957h0.19862c0.41334 0 0.61733 0.24694 0.61733 0.6898 0 0.44556-0.20399 0.70591-0.61733 0.70591z"/>
    <path d="m60.357 276.43h0.9931v-0.19056h-0.76764v-1.5702h-0.22546z"/>
   </g>
   <g aria-label="CreateJS">
    <path d="m76.822 275.55c0 0.57438 0.33014 0.91257 0.77301 0.91257 0.22278 0 0.39724-0.0939 0.53413-0.25498l-0.12615-0.13689c-0.11273 0.12615-0.2362 0.19594-0.40261 0.19594-0.33551 0-0.54755-0.27914-0.54755-0.72201 0-0.4375 0.22278-0.71128 0.55828-0.71128 0.14494 0 0.25767 0.0644 0.35161 0.16373l0.12615-0.14225c-0.10468-0.11542-0.27109-0.21741-0.48044-0.21741-0.45092 0-0.78643 0.34624-0.78643 0.91258z"/>
    <path d="m78.431 276.43h0.22009v-0.83742c0.08857-0.22009 0.22009-0.30061 0.33014-0.30061 0.05368 0 0.08321 8e-3 0.12615 0.0215l0.04294-0.19325c-0.04294-0.0188-0.0832-0.0268-0.13957-0.0268-0.14762 0-0.28183 0.10468-0.3704 0.2684h-0.0081l-0.01879-0.23619h-0.18252z"/>
    <path d="m79.241 275.78c0 0.42677 0.27646 0.68175 0.62538 0.68175 0.17715 0 0.31672-0.0617 0.42945-0.1342l-0.07784-0.14494c-0.09663 0.0617-0.2013 0.102-0.32477 0.102-0.24962 0-0.41871-0.17715-0.43482-0.45898h0.88037c0.0054-0.0322 0.0081-0.0752 0.0081-0.12078 0-0.37308-0.18788-0.61196-0.52071-0.61196-0.29793 0-0.58512 0.26035-0.58512 0.68711zm0.21472-0.0993c0.02684-0.26303 0.19325-0.41334 0.37577-0.41334 0.20399 0 0.32209 0.14762 0.32209 0.41334z"/>
    <path d="m80.568 276.09c0 0.23352 0.16373 0.3704 0.38382 0.3704 0.16104 0 0.30598-0.0859 0.43213-0.18788h0.0054l0.01879 0.15567h0.18252v-0.79984c0-0.32477-0.1342-0.53681-0.4536-0.53681-0.20936 0-0.39187 0.0913-0.51265 0.16909l0.08857 0.15299c0.10199-0.0698 0.2362-0.13957 0.38919-0.13957 0.21204 0 0.2684 0.16105 0.2684 0.32746-0.5556 0.0617-0.80253 0.20398-0.80253 0.48849zm0.21741-0.0161c0-0.16641 0.14762-0.27377 0.58512-0.32745v0.36234c-0.12615 0.11273-0.23083 0.17447-0.35698 0.17447-0.12884 0-0.22814-0.0617-0.22814-0.20936z"/>
    <path d="m82.043 276.02c0 0.25767 0.09394 0.43481 0.37308 0.43481 0.08052 0 0.1691-0.0242 0.24156-0.0483l-0.04295-0.16641c-0.04295 0.0161-0.10199 0.0349-0.14762 0.0349-0.15031 0-0.2013-0.0913-0.2013-0.2523v-0.72469h0.35161v-0.17983h-0.35161v-0.36503h-0.1852l-0.02684 0.36503-0.20399 0.0134v0.16641h0.19325z"/>
    <path d="m82.79 275.78c0 0.42677 0.27646 0.68175 0.62538 0.68175 0.17715 0 0.31672-0.0617 0.42945-0.1342l-0.07784-0.14494c-0.09663 0.0617-0.2013 0.102-0.32477 0.102-0.24962 0-0.41871-0.17715-0.43482-0.45898h0.88037c0.0054-0.0322 0.0081-0.0752 0.0081-0.12078 0-0.37308-0.18788-0.61196-0.5207-0.61196-0.29793 0-0.58512 0.26035-0.58512 0.68711zm0.21472-0.0993c0.02684-0.26303 0.19325-0.41334 0.37577-0.41334 0.20399 0 0.32209 0.14762 0.32209 0.41334z"/>
    <path d="m84.023 276.18c0.10199 0.1852 0.26035 0.28182 0.48313 0.28182 0.34624 0 0.48581-0.24693 0.48581-0.55023v-1.2427h-0.22278v1.2212c0 0.26841-0.09394 0.37577-0.28182 0.37577-0.12615 0-0.22546-0.059-0.30598-0.19862z"/>
    <path d="m85.327 276.2c0.15299 0.15836 0.36772 0.26035 0.61465 0.26035 0.3704 0 0.60123-0.22277 0.60123-0.50191 0-0.26036-0.15836-0.38114-0.36235-0.46971l-0.2523-0.10737c-0.13689-0.059-0.29256-0.12346-0.29256-0.29256 0-0.15836 0.13152-0.25767 0.33014-0.25767 0.16104 0 0.29256 0.0644 0.39992 0.16642l0.1181-0.14494c-0.12347-0.12884-0.30866-0.21741-0.51802-0.21741-0.3194 0-0.5556 0.19862-0.5556 0.46702 0 0.25767 0.19325 0.38382 0.35698 0.45361l0.2523 0.11004c0.16641 0.0752 0.29524 0.13152 0.29524 0.31135 0 0.17178-0.13689 0.2872-0.36772 0.2872-0.1852 0-0.35966-0.0886-0.48581-0.22009z"/>
   </g>
   <g aria-label="KiwiJS">
    <path d="m120.96 276.43h0.22546v-0.55828l0.30061-0.35698 0.52607 0.91526h0.24962l-0.63612-1.0897 0.55291-0.67101h-0.25498l-0.73275 0.88305h-5e-3v-0.88305h-0.22546z"/>
    <path d="m122.6 274.85c0.0859 0 0.15299-0.059 0.15299-0.14225 0-0.0859-0.0671-0.14226-0.15299-0.14226-0.0859 0-0.15299 0.0564-0.15299 0.14226 0 0.0832 0.0671 0.14225 0.15299 0.14225zm-0.11273 1.5728h0.22009v-1.3044h-0.22009z"/>
    <path d="m123.36 276.43h0.25767l0.18251-0.69785c0.0349-0.12347 0.0617-0.24693 0.0913-0.37845h0.0107c0.0322 0.13152 0.0564 0.2523 0.0886 0.37577l0.18788 0.70053h0.26841l0.34892-1.3044h-0.20935l-0.19057 0.75421c-0.0268 0.12347-0.051 0.24157-0.0805 0.36235h-0.0107c-0.0295-0.12078-0.059-0.23888-0.0913-0.36235l-0.20399-0.75421h-0.21473l-0.2013 0.75421c-0.0322 0.12079-0.059 0.24157-0.0886 0.36235h-0.0107c-0.0242-0.12078-0.0483-0.23888-0.0778-0.36235l-0.19325-0.75421h-0.22546z"/>
    <path d="m125.19 274.85c0.0859 0 0.15299-0.059 0.15299-0.14225 0-0.0859-0.0671-0.14226-0.15299-0.14226-0.0859 0-0.15299 0.0564-0.15299 0.14226 0 0.0832 0.0671 0.14225 0.15299 0.14225zm-0.11273 1.5728h0.22009v-1.3044h-0.22009z"/>
    <path d="m125.6 276.18c0.10199 0.1852 0.26035 0.28182 0.48313 0.28182 0.34624 0 0.48581-0.24693 0.48581-0.55023v-1.2427h-0.22277v1.2212c0 0.26841-0.0939 0.37577-0.28183 0.37577-0.12615 0-0.22546-0.059-0.30598-0.19862z"/>
    <path d="m126.9 276.2c0.15299 0.15836 0.36771 0.26035 0.61465 0.26035 0.3704 0 0.60122-0.22277 0.60122-0.50191 0-0.26036-0.15835-0.38114-0.36234-0.46971l-0.2523-0.10737c-0.13689-0.059-0.29256-0.12346-0.29256-0.29256 0-0.15836 0.13151-0.25767 0.33013-0.25767 0.16105 0 0.29256 0.0644 0.39993 0.16642l0.1181-0.14494c-0.12347-0.12884-0.30867-0.21741-0.51803-0.21741-0.3194 0-0.55559 0.19862-0.55559 0.46702 0 0.25767 0.19325 0.38382 0.35697 0.45361l0.2523 0.11004c0.16642 0.0752 0.29525 0.13152 0.29525 0.31135 0 0.17178-0.13689 0.2872-0.36771 0.2872-0.1852 0-0.35967-0.0886-0.48582-0.22009z"/>
   </g>
   <g aria-label="Horde3D">
    <path d="m139.96 276.43h0.22546v-0.82937h0.81863v0.82937h0.22278v-1.7607h-0.22278v0.73811h-0.81863v-0.73811h-0.22546z"/>
    <path d="m141.59 275.78c0 0.43214 0.28451 0.68175 0.60391 0.68175s0.60391-0.24961 0.60391-0.68175c0-0.4375-0.28451-0.68711-0.60391-0.68711s-0.60391 0.24961-0.60391 0.68711zm0.22814 0c0-0.30061 0.15299-0.5046 0.37577-0.5046 0.22546 0 0.37576 0.20399 0.37576 0.5046 0 0.29793-0.1503 0.49924-0.37576 0.49924-0.22278 0-0.37577-0.20131-0.37577-0.49924z"/>
    <path d="m143.14 276.43h0.22009v-0.83742c0.0886-0.22009 0.22009-0.30061 0.33014-0.30061 0.0537 0 0.0832 8e-3 0.12615 0.0215l0.0429-0.19325c-0.0429-0.0188-0.0832-0.0268-0.13957-0.0268-0.14762 0-0.28182 0.10468-0.3704 0.2684h-8e-3l-0.0188-0.23619h-0.18251z"/>
    <path d="m143.96 275.78c0 0.43482 0.21204 0.68175 0.5395 0.68175 0.15299 0 0.29256-0.0859 0.39455-0.1852h8e-3l0.0188 0.15299h0.18252v-1.911h-0.22278v0.50192l0.0107 0.22277c-0.11542-0.0939-0.21473-0.1503-0.36503-0.1503-0.29793 0-0.56634 0.26303-0.56634 0.68711zm0.22815-3e-3c0-0.29793 0.16641-0.49923 0.37576-0.49923 0.10736 0 0.20667 0.0376 0.31672 0.13688v0.68175c-0.10736 0.12078-0.21204 0.17983-0.33282 0.17983-0.22815 0-0.35966-0.18788-0.35966-0.49923z"/>
    <path d="m145.44 275.78c0 0.42677 0.27645 0.68175 0.62538 0.68175 0.17715 0 0.31672-0.0617 0.42945-0.1342l-0.0778-0.14494c-0.0966 0.0617-0.2013 0.102-0.32477 0.102-0.24962 0-0.41871-0.17715-0.43482-0.45898h0.88037c5e-3 -0.0322 8e-3 -0.0752 8e-3 -0.12078 0-0.37308-0.18788-0.61196-0.5207-0.61196-0.29793 0-0.58512 0.26035-0.58512 0.68711zm0.21472-0.0993c0.0268-0.26303 0.19325-0.41334 0.37577-0.41334 0.20398 0 0.32208 0.14762 0.32208 0.41334z"/>
    <path d="m146.72 276.22c0.11541 0.12615 0.28987 0.24156 0.56365 0.24156 0.31403 0 0.56365-0.1852 0.56365-0.48849 0-0.2362-0.16373-0.38651-0.3704-0.43482v-0.0107c0.1852-0.0698 0.31135-0.2013 0.31135-0.40797 0-0.27646-0.21473-0.43482-0.51266-0.43482-0.2013 0-0.35966 0.0913-0.49118 0.21473l0.1181 0.13957c0.102-0.102 0.22278-0.17447 0.36503-0.17447 0.18252 0 0.29525 0.10468 0.29525 0.27109 0 0.17983-0.12078 0.3194-0.48582 0.3194v0.1691c0.40798 0 0.54755 0.13689 0.54755 0.34087 0 0.19057-0.14762 0.31404-0.35429 0.31404-0.20131 0-0.33551-0.0966-0.4375-0.20399z"/>
    <path d="m148.22 276.43h0.45092c0.53145 0 0.82132-0.32745 0.82132-0.88842 0-0.55828-0.28987-0.87231-0.83205-0.87231h-0.44019zm0.22546-0.18251v-1.3957h0.19862c0.41335 0 0.61733 0.24694 0.61733 0.6898 0 0.44556-0.20398 0.70591-0.61733 0.70591z"/>
   </g>
   <g aria-label="BabylonJS">
    <path d="m118.75 261.85h0.56365c0.39187 0 0.66565-0.16909 0.66565-0.51534 0-0.24156-0.15031-0.38113-0.40798-0.42139v-0.0107c0.20936-0.0537 0.30867-0.20935 0.30867-0.38382 0-0.30866-0.24962-0.42944-0.6066-0.42944h-0.52339zm0.22546-1.0092v-0.57439h0.27109c0.27109 0 0.41335 0.0805 0.41335 0.27109 0 0.19594-0.12615 0.3033-0.42408 0.3033zm0 0.83205v-0.66564h0.30598c0.30867 0 0.47777 0.0993 0.47777 0.31672 0 0.23888-0.17715 0.34892-0.47777 0.34892z"/>
    <path d="m120.24 261.51c0 0.23351 0.16373 0.3704 0.38382 0.3704 0.16104 0 0.30598-0.0859 0.43213-0.18788h5e-3l0.0188 0.15567h0.18251v-0.79984c0-0.32477-0.1342-0.53681-0.4536-0.53681-0.20936 0-0.39187 0.0913-0.51266 0.16909l0.0886 0.15299c0.10199-0.0698 0.23619-0.13957 0.38918-0.13957 0.21204 0 0.26841 0.16104 0.26841 0.32745-0.5556 0.0617-0.80253 0.20399-0.80253 0.4885zm0.21741-0.0161c0-0.16641 0.14762-0.27378 0.58512-0.32746v0.36235c-0.12615 0.11273-0.23083 0.17446-0.35698 0.17446-0.12883 0-0.22814-0.0617-0.22814-0.20935z"/>
    <path d="m121.68 261.85h0.17715l0.0188-0.12883h8e-3c0.11542 0.10199 0.2523 0.16104 0.37309 0.16104 0.29792 0 0.56365-0.26035 0.56365-0.7059 0-0.40261-0.17984-0.66296-0.51803-0.66296-0.14493 0-0.28987 0.0778-0.40797 0.18251l5e-3 -0.2362v-0.5207h-0.2201zm0.2201-0.28988v-0.68443c0.12346-0.11541 0.23888-0.17715 0.34892-0.17715 0.24694 0 0.34356 0.19326 0.34356 0.48045 0 0.32209-0.15836 0.51802-0.37308 0.51802-0.0859 0-0.20399-0.0376-0.3194-0.13689z"/>
    <path d="m123.07 262.21-0.043 0.17447c0.043 0.0161 0.0939 0.0268 0.15299 0.0268 0.26304 0 0.39724-0.19594 0.4885-0.45361l0.49118-1.4118h-0.21472l-0.23352 0.72201c-0.0349 0.11542-0.0725 0.24962-0.11004 0.36772h-0.0107c-0.0403-0.12078-0.0859-0.25499-0.12615-0.36772l-0.26572-0.72201h-0.22814l0.52339 1.3071-0.0295 0.0966c-0.0537 0.16105-0.14762 0.27914-0.29524 0.27914-0.0322 0-0.0725-0.0107-0.0993-0.0188z"/>
    <path d="m124.41 261.59c0 0.19056 0.0671 0.29524 0.23351 0.29524 0.059 0 0.0966-8e-3 0.12615-0.0215l-0.0295-0.16641c-0.0242 5e-3 -0.0349 5e-3 -0.0483 5e-3 -0.0322 0-0.0617-0.0269-0.0617-0.0966v-1.6641h-0.22009z"/>
    <path d="m125 261.2c0 0.43213 0.28451 0.68175 0.60391 0.68175s0.60391-0.24962 0.60391-0.68175c0-0.4375-0.28451-0.68711-0.60391-0.68711s-0.60391 0.24961-0.60391 0.68711zm0.22814 0c0-0.30061 0.15299-0.5046 0.37577-0.5046 0.22546 0 0.37577 0.20399 0.37577 0.5046 0 0.29793-0.15031 0.49924-0.37577 0.49924-0.22278 0-0.37577-0.20131-0.37577-0.49924z"/>
    <path d="m126.55 261.85h0.22009v-0.94478c0.13152-0.13152 0.22278-0.20131 0.35698-0.20131 0.17178 0 0.24693 0.10468 0.24693 0.34893v0.79716h0.2201v-0.82669c0-0.33282-0.12347-0.50996-0.39724-0.50996-0.17984 0-0.31404 0.0966-0.4375 0.22009h-8e-3l-0.0188-0.18789h-0.18252z"/>
    <path d="m127.88 261.6c0.10199 0.18519 0.26035 0.28182 0.48312 0.28182 0.34625 0 0.48582-0.24693 0.48582-0.55023v-1.2427h-0.22278v1.2212c0 0.2684-0.0939 0.37577-0.28182 0.37577-0.12615 0-0.22546-0.0591-0.30599-0.19862z"/>
    <path d="m129.18 261.62c0.153 0.15836 0.36772 0.26035 0.61465 0.26035 0.3704 0 0.60123-0.22278 0.60123-0.50192 0-0.26035-0.15836-0.38113-0.36235-0.46971l-0.2523-0.10736c-0.13688-0.0591-0.29256-0.12346-0.29256-0.29256 0-0.15836 0.13152-0.25767 0.33014-0.25767 0.16104 0 0.29256 0.0644 0.39992 0.16641l0.1181-0.14494c-0.12347-0.12883-0.30867-0.2174-0.51802-0.2174-0.3194 0-0.5556 0.19862-0.5556 0.46702 0 0.25767 0.19325 0.38382 0.35698 0.45361l0.2523 0.11004c0.16641 0.0752 0.29525 0.13152 0.29525 0.31135 0 0.17178-0.13689 0.2872-0.36772 0.2872-0.1852 0-0.35966-0.0886-0.48581-0.2201z"/>
   </g>
   <g aria-label="Polycode">
    <path d="m140.04 261.85h0.22546v-0.69785h0.31672c0.38382 0 0.64954-0.17446 0.64954-0.54486 0-0.38651-0.26036-0.51802-0.64954-0.51802h-0.54218zm0.22546-0.88037v-0.70053h0.28719c0.3033 0 0.45629 0.0832 0.45629 0.33819 0 0.24961-0.14762 0.36234-0.45629 0.36234z"/>
    <path d="m141.4 261.2c0 0.43213 0.28451 0.68175 0.60391 0.68175 0.31941 0 0.60391-0.24962 0.60391-0.68175 0-0.4375-0.2845-0.68711-0.60391-0.68711-0.3194 0-0.60391 0.24961-0.60391 0.68711zm0.22815 0c0-0.30061 0.15299-0.5046 0.37576-0.5046 0.22546 0 0.37577 0.20399 0.37577 0.5046 0 0.29793-0.15031 0.49924-0.37577 0.49924-0.22277 0-0.37576-0.20131-0.37576-0.49924z"/>
    <path d="m142.95 261.59c0 0.19056 0.0671 0.29524 0.23352 0.29524 0.059 0 0.0966-8e-3 0.12615-0.0215l-0.0295-0.16641c-0.0242 5e-3 -0.0349 5e-3 -0.0483 5e-3 -0.0322 0-0.0617-0.0269-0.0617-0.0966v-1.6641h-0.2201z"/>
    <path d="m143.55 262.21-0.0429 0.17447c0.0429 0.0161 0.094 0.0268 0.15299 0.0268 0.26304 0 0.39724-0.19594 0.4885-0.45361l0.49118-1.4118h-0.21472l-0.23351 0.72201c-0.0349 0.11542-0.0725 0.24962-0.11005 0.36772h-0.0107c-0.0403-0.12078-0.0859-0.25499-0.12615-0.36772l-0.26572-0.72201h-0.22814l0.52339 1.3071-0.0295 0.0966c-0.0537 0.16105-0.14762 0.27914-0.29524 0.27914-0.0322 0-0.0725-0.0107-0.0993-0.0188z"/>
    <path d="m144.78 261.2c0 0.43213 0.26572 0.68175 0.61196 0.68175 0.15568 0 0.30598-0.0644 0.42408-0.16909l-0.0993-0.14494c-0.0778 0.0698-0.18251 0.13152-0.30598 0.13152-0.23888 0-0.40261-0.20131-0.40261-0.49924 0-0.30061 0.17178-0.5046 0.40798-0.5046 0.10468 0 0.1852 0.0483 0.26304 0.11541l0.11004-0.14225c-0.0886-0.0832-0.20935-0.15567-0.38113-0.15567-0.33551 0-0.62807 0.24961-0.62807 0.68711z"/>
    <path d="m145.95 261.2c0 0.43213 0.2845 0.68175 0.60391 0.68175 0.3194 0 0.60391-0.24962 0.60391-0.68175 0-0.4375-0.28451-0.68711-0.60391-0.68711-0.31941 0-0.60391 0.24961-0.60391 0.68711zm0.22814 0c0-0.30061 0.15299-0.5046 0.37577-0.5046 0.22546 0 0.37576 0.20399 0.37576 0.5046 0 0.29793-0.1503 0.49924-0.37576 0.49924-0.22278 0-0.37577-0.20131-0.37577-0.49924z"/>
    <path d="m147.41 261.2c0 0.43482 0.21204 0.68175 0.5395 0.68175 0.15299 0 0.29256-0.0859 0.39455-0.1852h8e-3l0.0188 0.15299h0.18252v-1.911h-0.22278v0.50192l0.0107 0.22277c-0.11541-0.0939-0.21472-0.1503-0.36503-0.1503-0.29793 0-0.56634 0.26303-0.56634 0.68711zm0.22815-3e-3c0-0.29793 0.16641-0.49924 0.37577-0.49924 0.10736 0 0.20667 0.0376 0.31671 0.13689v0.68175c-0.10736 0.12078-0.21204 0.17983-0.33282 0.17983-0.22814 0-0.35966-0.18788-0.35966-0.49923z"/>
    <path d="m148.89 261.2c0 0.42677 0.27646 0.68175 0.62538 0.68175 0.17715 0 0.31672-0.0617 0.42945-0.1342l-0.0778-0.14494c-0.0966 0.0617-0.2013 0.10199-0.32477 0.10199-0.24961 0-0.41871-0.17714-0.43481-0.45897h0.88037c5e-3 -0.0322 8e-3 -0.0752 8e-3 -0.12078 0-0.37308-0.18789-0.61196-0.52071-0.61196-0.29793 0-0.58512 0.26035-0.58512 0.68711zm0.21472-0.0993c0.0268-0.26303 0.19326-0.41334 0.37577-0.41334 0.20399 0 0.32209 0.14762 0.32209 0.41334z"/>
   </g>
   <g aria-label="Source 2">
    <path d="m160.34 231.16c0.153 0.15836 0.36772 0.26036 0.61465 0.26036 0.3704 0 0.60123-0.22278 0.60123-0.50192 0-0.26035-0.15836-0.38114-0.36235-0.46971l-0.2523-0.10736c-0.13688-0.059-0.29256-0.12347-0.29256-0.29256 0-0.15836 0.13152-0.25767 0.33014-0.25767 0.16104 0 0.29256 0.0644 0.39992 0.16641l0.1181-0.14494c-0.12347-0.12883-0.30867-0.21741-0.51802-0.21741-0.3194 0-0.5556 0.19862-0.5556 0.46703 0 0.25767 0.19325 0.38382 0.35698 0.4536l0.2523 0.11005c0.16641 0.0752 0.29525 0.13152 0.29525 0.31135 0 0.17178-0.13689 0.28719-0.36772 0.28719-0.1852 0-0.35966-0.0886-0.48581-0.22009z"/>
    <path d="m161.78 230.74c0 0.43213 0.28451 0.68175 0.60391 0.68175s0.60391-0.24962 0.60391-0.68175c0-0.4375-0.28451-0.68712-0.60391-0.68712s-0.60391 0.24962-0.60391 0.68712zm0.22814 0c0-0.30061 0.15299-0.5046 0.37577-0.5046 0.22546 0 0.37577 0.20399 0.37577 0.5046 0 0.29793-0.15031 0.49923-0.37577 0.49923-0.22278 0-0.37577-0.2013-0.37577-0.49923z"/>
    <path d="m163.31 230.91c0 0.33282 0.12347 0.50997 0.39992 0.50997 0.17984 0 0.30867-0.0939 0.42945-0.2362h8e-3l0.0188 0.20399h0.18252v-1.3044h-0.22009v0.926c-0.12347 0.15299-0.21741 0.22009-0.35161 0.22009-0.17178 0-0.24425-0.10468-0.24425-0.34893v-0.79716h-0.22278z"/>
    <path d="m164.79 231.39h0.22009v-0.83742c0.0886-0.2201 0.22009-0.30062 0.33014-0.30062 0.0537 0 0.0832 8e-3 0.12615 0.0215l0.0429-0.19325c-0.0429-0.0188-0.0832-0.0268-0.13957-0.0268-0.14762 0-0.28182 0.10468-0.3704 0.26841h-8e-3l-0.0188-0.2362h-0.18251z"/>
    <path d="m165.6 230.74c0 0.43213 0.26572 0.68175 0.61196 0.68175 0.15567 0 0.30598-0.0644 0.42408-0.1691l-0.0993-0.14494c-0.0778 0.0698-0.18252 0.13152-0.30598 0.13152-0.23888 0-0.40261-0.2013-0.40261-0.49923 0-0.30061 0.17178-0.5046 0.40798-0.5046 0.10467 0 0.1852 0.0483 0.26303 0.11541l0.11005-0.14225c-0.0886-0.0832-0.20936-0.15568-0.38114-0.15568-0.3355 0-0.62806 0.24962-0.62806 0.68712z"/>
    <path d="m166.77 230.74c0 0.42676 0.27646 0.68175 0.62539 0.68175 0.17714 0 0.31672-0.0617 0.42945-0.13421l-0.0778-0.14493c-0.0966 0.0617-0.20131 0.10199-0.32477 0.10199-0.24962 0-0.41871-0.17715-0.43482-0.45897h0.88037c5e-3 -0.0322 8e-3 -0.0752 8e-3 -0.12078 0-0.37309-0.18788-0.61197-0.5207-0.61197-0.29793 0-0.58513 0.26035-0.58513 0.68712zm0.21473-0.0993c0.0268-0.26304 0.19325-0.41334 0.37577-0.41334 0.20398 0 0.32208 0.14762 0.32208 0.41334z"/>
    <path d="m168.62 231.39h1.1058v-0.19057h-0.49654c-0.0886 0-0.19326 8e-3 -0.2872 0.0161 0.40529-0.42408 0.69785-0.74349 0.69785-1.0656 0-0.3033-0.19593-0.5046-0.51265-0.5046-0.22277 0-0.37577 0.10467-0.51802 0.26035l0.12615 0.12615c0.0993-0.11541 0.22278-0.20667 0.36503-0.20667 0.21741 0 0.32477 0.13957 0.32477 0.3355 0 0.27646-0.28988 0.58513-0.80521 1.0978z"/>
   </g>
   <g aria-label="Phaser">
    <path d="m161.63 246.8h0.22546v-0.69785h0.31672c0.38382 0 0.64954-0.17447 0.64954-0.54487 0-0.3865-0.26035-0.51802-0.64954-0.51802h-0.54218zm0.22546-0.88037v-0.70054h0.2872c0.30329 0 0.45628 0.0832 0.45628 0.33819 0 0.24962-0.14762 0.36235-0.45628 0.36235z"/>
    <path d="m163.14 246.8h0.22009v-0.94479c0.13152-0.13151 0.22278-0.2013 0.35698-0.2013 0.17178 0 0.24693 0.10468 0.24693 0.34893v0.79716h0.22009v-0.82669c0-0.33282-0.12346-0.50997-0.39723-0.50997-0.17984 0-0.31135 0.0966-0.43482 0.21473l8e-3 -0.26841v-0.5207h-0.22009z"/>
    <path d="m164.54 246.46c0 0.23351 0.16373 0.3704 0.38382 0.3704 0.16104 0 0.30598-0.0859 0.43213-0.18789h5e-3l0.0188 0.15568h0.18251v-0.79985c0-0.32477-0.1342-0.53681-0.4536-0.53681-0.20936 0-0.39187 0.0913-0.51266 0.1691l0.0886 0.15299c0.10199-0.0698 0.23619-0.13957 0.38919-0.13957 0.21204 0 0.2684 0.16104 0.2684 0.32745-0.5556 0.0617-0.80253 0.20399-0.80253 0.4885zm0.21741-0.0161c0-0.16642 0.14762-0.27378 0.58512-0.32746v0.36235c-0.12615 0.11273-0.23083 0.17446-0.35698 0.17446-0.12883 0-0.22814-0.0617-0.22814-0.20935z"/>
    <path d="m165.83 246.65c0.12346 0.10199 0.30061 0.17983 0.48581 0.17983 0.30867 0 0.47776-0.17715 0.47776-0.38919 0-0.24693-0.20935-0.32477-0.39724-0.39455-0.14762-0.0564-0.28988-0.10468-0.28988-0.22546 0-0.0993 0.0752-0.18789 0.23888-0.18789 0.11542 0 0.20936 0.0483 0.29793 0.11542l0.10468-0.13957c-0.0993-0.0805-0.24156-0.14763-0.40529-0.14763-0.28182 0-0.44824 0.16105-0.44824 0.3704 0 0.22009 0.20399 0.30867 0.38919 0.37577 0.14226 0.0537 0.29793 0.11273 0.29793 0.24693 0 0.11273-0.0859 0.20399-0.25767 0.20399-0.15567 0-0.27109-0.0644-0.38382-0.15568z"/>
    <path d="m167.01 246.15c0 0.42676 0.27646 0.68175 0.62539 0.68175 0.17714 0 0.31671-0.0617 0.42944-0.1342l-0.0778-0.14494c-0.0966 0.0617-0.20131 0.10199-0.32477 0.10199-0.24962 0-0.41872-0.17715-0.43482-0.45897h0.88037c5e-3 -0.0322 8e-3 -0.0752 8e-3 -0.12078 0-0.37309-0.18788-0.61197-0.52071-0.61197-0.29793 0-0.58512 0.26036-0.58512 0.68712zm0.21473-0.0993c0.0268-0.26304 0.19325-0.41334 0.37576-0.41334 0.20399 0 0.32209 0.14762 0.32209 0.41334z"/>
    <path d="m168.44 246.8h0.22009v-0.83742c0.0886-0.2201 0.22009-0.30062 0.33014-0.30062 0.0537 0 0.0832 8e-3 0.12615 0.0215l0.0429-0.19325c-0.0429-0.0188-0.0832-0.0268-0.13957-0.0268-0.14762 0-0.28182 0.10468-0.3704 0.26841h-8e-3l-0.0188-0.2362h-0.18251z"/>
   </g>
   <g aria-label="PixiJS">
    <path d="m162.18 261.85h0.22546v-0.69785h0.31671c0.38382 0 0.64954-0.17446 0.64954-0.54486 0-0.38651-0.26035-0.51802-0.64954-0.51802h-0.54217zm0.22546-0.88037v-0.70053h0.28719c0.3033 0 0.45629 0.0832 0.45629 0.33819 0 0.24961-0.14763 0.36234-0.45629 0.36234z"/>
    <path d="m163.81 260.28c0.0859 0 0.15299-0.0591 0.15299-0.14226 0-0.0859-0.0671-0.14225-0.15299-0.14225-0.0859 0-0.15299 0.0564-0.15299 0.14225 0 0.0832 0.0671 0.14226 0.15299 0.14226zm-0.11273 1.5728h0.22009v-1.3044h-0.22009z"/>
    <path d="m164.18 261.85h0.23083l0.17715-0.3033c0.0429-0.0805 0.0859-0.15835 0.13152-0.23351h0.0107c0.0483 0.0752 0.0966 0.15568 0.14225 0.23351l0.19057 0.3033h0.23888l-0.42408-0.65759 0.39455-0.64686h-0.23083l-0.15835 0.2872c-0.0403 0.0698-0.0805 0.14494-0.1181 0.21741h-0.0107c-0.0456-0.0725-0.0886-0.14763-0.12883-0.21741l-0.17447-0.2872h-0.23888l0.39456 0.6227z"/>
    <path d="m165.67 260.28c0.0859 0 0.15299-0.0591 0.15299-0.14226 0-0.0859-0.0671-0.14225-0.15299-0.14225-0.0859 0-0.15299 0.0564-0.15299 0.14225 0 0.0832 0.0671 0.14226 0.15299 0.14226zm-0.11273 1.5728h0.22009v-1.3044h-0.22009z"/>
    <path d="m166.07 261.6c0.102 0.18519 0.26036 0.28182 0.48313 0.28182 0.34625 0 0.48582-0.24693 0.48582-0.55023v-1.2427h-0.22278v1.2212c0 0.2684-0.0939 0.37577-0.28182 0.37577-0.12615 0-0.22546-0.0591-0.30599-0.19862z"/>
    <path d="m167.38 261.62c0.153 0.15836 0.36772 0.26035 0.61465 0.26035 0.3704 0 0.60123-0.22278 0.60123-0.50192 0-0.26035-0.15836-0.38113-0.36235-0.46971l-0.2523-0.10736c-0.13688-0.0591-0.29256-0.12346-0.29256-0.29256 0-0.15836 0.13152-0.25767 0.33014-0.25767 0.16104 0 0.29256 0.0644 0.39992 0.16641l0.1181-0.14494c-0.12347-0.12883-0.30867-0.2174-0.51802-0.2174-0.3194 0-0.5556 0.19862-0.5556 0.46702 0 0.25767 0.19325 0.38382 0.35698 0.45361l0.2523 0.11004c0.16641 0.0752 0.29524 0.13152 0.29524 0.31135 0 0.17178-0.13688 0.2872-0.36771 0.2872-0.1852 0-0.35966-0.0886-0.48581-0.2201z"/>
   </g>
   <g aria-label="PaperJS">
    <path d="m161.1 276.43h0.22546v-0.69785h0.31672c0.38382 0 0.64954-0.17446 0.64954-0.54486 0-0.3865-0.26036-0.51802-0.64954-0.51802h-0.54218zm0.22546-0.88036v-0.70054h0.28719c0.3033 0 0.45629 0.0832 0.45629 0.33819 0 0.24962-0.14762 0.36235-0.45629 0.36235z"/>
    <path d="m162.44 276.09c0 0.23352 0.16372 0.3704 0.38382 0.3704 0.16104 0 0.30598-0.0859 0.43213-0.18788h5e-3l0.0188 0.15567h0.18251v-0.79984c0-0.32477-0.1342-0.53681-0.4536-0.53681-0.20936 0-0.39187 0.0913-0.51266 0.16909l0.0886 0.15299c0.10199-0.0698 0.23619-0.13957 0.38918-0.13957 0.21204 0 0.26841 0.16105 0.26841 0.32746-0.5556 0.0617-0.80253 0.20398-0.80253 0.48849zm0.21741-0.0161c0-0.16641 0.14762-0.27377 0.58512-0.32745v0.36234c-0.12615 0.11273-0.23083 0.17447-0.35698 0.17447-0.12883 0-0.22814-0.0617-0.22814-0.20936z"/>
    <path d="m164.09 276.31c0.12078 0.0939 0.24156 0.1503 0.36234 0.1503 0.29793 0 0.56366-0.26035 0.56366-0.70322 0-0.40529-0.17984-0.66564-0.51534-0.66564-0.15299 0-0.29793 0.0832-0.41603 0.18251h-8e-3l-0.0188-0.1503h-0.18252v1.8547h0.2201v-0.44018zm5e-3 -0.17178v-0.68444c0.12883-0.11541 0.23888-0.17714 0.34892-0.17714 0.24693 0 0.34356 0.19325 0.34356 0.48044 0 0.32209-0.15836 0.51802-0.37308 0.51802-0.0859 0-0.20131-0.0376-0.3194-0.13688z"/>
    <path d="m165.27 275.78c0 0.42677 0.27645 0.68175 0.62538 0.68175 0.17715 0 0.31672-0.0617 0.42945-0.1342l-0.0778-0.14494c-0.0966 0.0617-0.2013 0.102-0.32477 0.102-0.24962 0-0.41871-0.17715-0.43482-0.45898h0.88037c5e-3 -0.0322 8e-3 -0.0752 8e-3 -0.12078 0-0.37308-0.18789-0.61196-0.52071-0.61196-0.29793 0-0.58512 0.26035-0.58512 0.68711zm0.21472-0.0993c0.0268-0.26303 0.19325-0.41334 0.37577-0.41334 0.20399 0 0.32208 0.14762 0.32208 0.41334z"/>
    <path d="m166.7 276.43h0.2201v-0.83742c0.0886-0.22009 0.22009-0.30061 0.33013-0.30061 0.0537 0 0.0832 8e-3 0.12615 0.0215l0.0429-0.19325c-0.0429-0.0188-0.0832-0.0268-0.13957-0.0268-0.14762 0-0.28183 0.10468-0.3704 0.2684h-8e-3l-0.0188-0.23619h-0.18252z"/>
    <path d="m167.34 276.18c0.102 0.1852 0.26035 0.28182 0.48313 0.28182 0.34624 0 0.48581-0.24693 0.48581-0.55023v-1.2427h-0.22277v1.2212c0 0.26841-0.0939 0.37577-0.28183 0.37577-0.12615 0-0.22546-0.059-0.30598-0.19862z"/>
    <path d="m168.64 276.2c0.15299 0.15836 0.36772 0.26035 0.61465 0.26035 0.3704 0 0.60123-0.22277 0.60123-0.50191 0-0.26036-0.15836-0.38114-0.36235-0.46971l-0.2523-0.10737c-0.13689-0.059-0.29256-0.12346-0.29256-0.29256 0-0.15836 0.13152-0.25767 0.33014-0.25767 0.16104 0 0.29256 0.0644 0.39992 0.16642l0.1181-0.14494c-0.12347-0.12884-0.30867-0.21741-0.51802-0.21741-0.31941 0-0.5556 0.19862-0.5556 0.46702 0 0.25767 0.19325 0.38382 0.35698 0.45361l0.2523 0.11004c0.16641 0.0752 0.29524 0.13152 0.29524 0.31135 0 0.17178-0.13688 0.2872-0.36771 0.2872-0.1852 0-0.35967-0.0886-0.48582-0.22009z"/>
   </g>
  </g>
 </g>
</svg>
