<svg width="750" height="400" version="1.1" viewBox="0 0 198.44 105.83" xmlns="http://www.w3.org/2000/svg">
  <g transform="matrix(1 0 0 1 -162.72 -81.451)">
    <path
      d="m206.5 107.66-41.846 55.121h21.044l22.916-30.184 14.287 18.816h-14.365l-8.631 11.368h52.584l-41.85-55.121z" />
    <path d="m252.8 107.66-11.75 15.475h51.417l-2e-3 -15.475z" />
    <path
      d="m295.14 107.66v27.585l-54.343-3e-3v7.4193l15.275 20.118h3.4614v-12.827h35.394l15.836-15.998v-26.295z" />
    <path
      d="m342.5 107.66-9.1e-4 27.607h-29.457l-17.901 18.093v9.4215h15.586v-16.684h31.773v16.684h15.344v-55.121z" />
  </g>
</svg>