<svg width="45.219mm" height="20.563mm" version="1.1" viewBox="0 0 45.219 20.563" xmlns="http://www.w3.org/2000/svg">
 <g transform="translate(-124.64 -83.084)">
  <g stroke-width=".26458">
   <path d="m125.16 100.83 10.142-0.0295c4e-3 -0.19844 3e-3 -0.39632-5e-3 -0.59338-7e-3 -0.19707-0.0206-0.39336-0.0391-0.58865-0.0185-0.19526-0.0427-0.38955-0.0722-0.58259-0.0295-0.19307-0.0645-0.38492-0.1048-0.57531-0.0403-0.19042-0.0859-0.37939-0.13674-0.56674-0.0508-0.18732-0.10689-0.37301-0.16809-0.55684-0.0612-0.18383-0.1275-0.36581-0.19886-0.54573-3.5435 1.3787-4.0727 1.825-9.4172 4.0387z" fill="#a19d22" fill-opacity=".5" stroke="#e9dc6f"/>
   <path d="m125.39 100.62 41.29-17.103" fill="none" stroke="#e8eaec"/>
   <path d="m125.28 100.82h41.414v-17.734" fill="none" stroke="#e8eaec" stroke-dasharray="0.26458333, 0.79375"/>
  </g>
  <circle cx="125.36" cy="100.72" r=".64196" fill="#d54747" stroke="#d54747" stroke-linecap="round" stroke-width=".16348"/>
  <g transform="matrix(.0019067 -.0009228 .0009386 .0019394 165.61 83.338)" fill="#d2d6dc" stroke-width="247.7">
   <g fill="#d2d6dc" stroke-width="247.7">
    <path d="m486.41 221.41-364.07-208.5c-52.938-30.318-95.852-5.44-95.852 55.563v415.65c0 61.004 42.914 85.882 95.852 55.563l364.07-208.49c52.938-30.317 52.938-79.473 0-109.79z" fill="#d2d6dc" stroke-width="247.7"/>
   </g>
  </g>
  <g fill="#e8eaec" stroke-linecap="round" stroke-width=".26458">
   <g transform="scale(.99996 1)" aria-label="atan2(y, x)">
    <path d="m136.8 97.469 0.11113 0.14605c0.12065-0.12382 0.28257-0.16192 0.4191-0.16192 0.17145 0 0.25717 0.07303 0.29845 0.1397 0.0476 0.07937 0.0444 0.17462 0.0444 0.25082v0.0508h-0.0444c-0.2159 0-0.4445 0-0.62865 0.06668-0.2286 0.08255-0.3302 0.254-0.3302 0.41275 0 0.21272 0.18415 0.41275 0.48577 0.41275 0.1778 0 0.36195-0.06668 0.5207-0.19685v0.15875h0.2159v-0.89852c0-0.11748-3e-3 -0.2286-0.0699-0.3429-0.0952-0.15558-0.2794-0.23812-0.50482-0.23812-0.19368 0-0.381 0.06032-0.51753 0.20002zm0.88265 0.60008v0.09842c0 0.07303 0 0.16828-0.0984 0.27305-0.054 0.05397-0.1905 0.17145-0.381 0.17145-0.19368 0-0.3048-0.12382-0.3048-0.25082 0-0.10795 0.073-0.22542 0.254-0.26988 0.13335-0.03175 0.32702-0.02222 0.47942-0.02222z"/>
    <path d="m138.69 96.91-0.0286 0.39052h-0.34608l-3e-3 0.18732h0.33972c-0.019 0.24765-0.0286 0.4953-0.0286 0.73978 0 0.13018 0 0.27622 0.0857 0.39688 0.0699 0.09525 0.18098 0.1524 0.3302 0.1524 0.17145 0 0.33973-0.07303 0.46355-0.16192l-0.0699-0.18098c-0.12382 0.09208-0.23812 0.13335-0.32702 0.13335-0.10795 0-0.21908-0.06033-0.24448-0.23495 0-0.0127-0.01-0.06668-0.01-0.2794 0-0.18732 0.01-0.37782 0.0286-0.56515h0.47625v-0.1905h-0.47307s0.0222-0.26035 0.0381-0.3429c3e-3 -0.03175 0.0286-0.0508 0.0159-0.08573z"/>
    <path d="m139.97 97.469 0.11113 0.14605c0.12065-0.12382 0.28257-0.16192 0.4191-0.16192 0.17145 0 0.25717 0.07303 0.29845 0.1397 0.0476 0.07937 0.0445 0.17462 0.0445 0.25082v0.0508h-0.0445c-0.2159 0-0.4445 0-0.62865 0.06668-0.2286 0.08255-0.3302 0.254-0.3302 0.41275 0 0.21272 0.18415 0.41275 0.48577 0.41275 0.1778 0 0.36195-0.06668 0.5207-0.19685v0.15875h0.2159v-0.89852c0-0.11748-3e-3 -0.2286-0.0698-0.3429-0.0953-0.15558-0.2794-0.23812-0.50482-0.23812-0.19368 0-0.381 0.06032-0.51753 0.20002zm0.88265 0.60008v0.09842c0 0.07303 0 0.16828-0.0984 0.27305-0.054 0.05397-0.1905 0.17145-0.381 0.17145-0.19368 0-0.3048-0.12382-0.3048-0.25082 0-0.10795 0.073-0.22542 0.254-0.26988 0.13335-0.03175 0.32702-0.02222 0.47942-0.02222z"/>
    <path d="m141.49 98.748h0.23178v-0.83502c0-0.09525 0.0127-0.16828 0.073-0.24765 0.054-0.07303 0.19368-0.2032 0.34608-0.2032 0.073 0 0.14605 0.03175 0.19685 0.09207 0.0794 0.09525 0.0794 0.21908 0.0794 0.32068v0.87312h0.22543v-0.87948c0-0.11112 0-0.23178-0.0508-0.34925-0.073-0.16192-0.22225-0.254-0.38735-0.254-0.19685 0-0.37465 0.127-0.4826 0.28892v-0.254h-0.23178z"/>
    <path d="m143.1 97.078 0.16192 0.13018c0.0191-0.02857 0.01-0.04762 0.0286-0.07303 0.0476-0.07303 0.1651-0.18098 0.33655-0.18098 0.21272 0 0.381 0.16192 0.381 0.37465 0 0.2413-0.2032 0.41592-0.34608 0.5461-0.22542 0.2032-0.40957 0.4064-0.57467 0.73342v0.1397h1.162v-0.21908c-0.0222-0.0095-0.0381 0.0063-0.0445 0.0127-0.0127 0.0127-0.019 0.0127-0.0317 0.0127h-0.83185c0.1651-0.28575 0.39687-0.4826 0.53975-0.61595 0.14287-0.13652 0.34607-0.33972 0.34607-0.62548 0-0.30798-0.25082-0.55562-0.5715-0.55562-0.22542 0-0.43815 0.12065-0.55562 0.32068z"/>
    <path d="m145.69 96.633c-0.48895 0.2159-0.80328 0.71438-0.80328 1.2954 0 0.57785 0.3048 1.1049 0.80645 1.3684l0.10478-0.16828c-0.43498-0.25082-0.68898-0.71755-0.68898-1.2097 0-0.45402 0.21908-0.86042 0.59055-1.0763 6e-3 -0.0063 0.0159-0.0127 0.0286-0.0127 0.01 0 0.019 0.0064 0.0317 0.0064 6e-3 0 0.0159-0.0032 0.0286-0.0064z"/>
    <path d="m146.18 97.3 0.59055 1.4446-0.0476 0.10478c-0.0254 0.06033-0.054 0.12065-0.0984 0.16828-0.0603 0.06667-0.13653 0.09525-0.2032 0.09525-0.10795 0-0.16193-0.07303-0.17145-0.08572-0.01-0.01587-6e-3 -0.0381-0.0254-0.05397l-0.11748 0.20638c0.0826 0.07937 0.19368 0.12065 0.31433 0.12065 0.13017 0 0.2667-0.04762 0.36195-0.15558 0.0635-0.07303 0.0952-0.14922 0.127-0.23178l0.45085-1.197c0.054-0.13652 0.1016-0.27622 0.14605-0.4191h-0.23813c-0.0254 0.13335-0.0667 0.26035-0.11112 0.38735l-0.27623 0.77788-0.42545-1.07c-3e-3 -0.0095-3e-3 -0.01587-3e-3 -0.0254 0-0.02222 0.0159-0.0381 0.0127-0.06667z"/>
    <path d="m148.59 98.688c0-0.16192-0.10795-0.26352-0.21908-0.26352-0.10477 0-0.18415 0.08572-0.18415 0.18098 0 0.08572 0.0603 0.12065 0.0889 0.1397s0.073 0.04762 0.073 0.1143c0 0.0508-0.0286 0.10478-0.0444 0.13018-0.0318 0.0508-0.0857 0.13018-0.16193 0.20002l0.11113 0.09525c0.22225-0.22542 0.33655-0.4318 0.33655-0.5969z"/>
    <path d="m151.95 97.297-0.36195 0.53658-0.381-0.53658h-0.24765l0.49848 0.71438-0.508 0.7366h0.25717l0.37783-0.56198 0.40005 0.56198h0.26035l-0.5334-0.74295 0.4699-0.70802z"/>
    <path d="m152.63 96.834c0.4191 0.22542 0.6858 0.65722 0.6858 1.1303 0 0.47625-0.27305 0.92075-0.70168 1.1462l0.0603 0.19368c0.52705-0.25082 0.86677-0.77788 0.86677-1.3494 0-0.56515-0.33337-1.0795-0.8509-1.3176z"/>
   </g>
   <g transform="scale(.99996 1)" stroke="#cf2f25" aria-label="x">
    <path d="m147.71 102.06-0.36195 0.53658-0.381-0.53658h-0.24765l0.49848 0.71438-0.508 0.7366h0.25717l0.37783-0.56198 0.40005 0.56198h0.26035l-0.5334-0.74295 0.4699-0.70803z" fill="#e8eaec" stroke="none"/>
   </g>
   <g transform="scale(.99996 1)" stroke="#cf2f25" aria-label="y">
    <path d="m168.4 90.95 0.59055 1.4446-0.0476 0.10478c-0.0254 0.06033-0.054 0.12065-0.0984 0.16828-0.0603 0.06667-0.13652 0.09525-0.2032 0.09525-0.10795 0-0.16192-0.07303-0.17145-0.08572-0.01-0.01588-6e-3 -0.0381-0.0254-0.05398l-0.11747 0.20638c0.0825 0.07937 0.19367 0.12065 0.31432 0.12065 0.13018 0 0.2667-0.04762 0.36195-0.15558 0.0635-0.07303 0.0953-0.14922 0.127-0.23178l0.45085-1.197c0.054-0.13652 0.1016-0.27622 0.14605-0.4191h-0.23812c-0.0254 0.13335-0.0667 0.26035-0.11113 0.38735l-0.27622 0.77788-0.42545-1.07c-3e-3 -0.0095-3e-3 -0.01587-3e-3 -0.0254 0-0.02222 0.0159-0.0381 0.0127-0.06667z" fill="#e8eaec" stroke="none"/>
   </g>
  </g>
 </g>
</svg>
