<?xml version="1.0" encoding="UTF-8"?>
<svg width="51.694mm" height="29.192mm" version="1.1" viewBox="0 0 51.694 29.192" xmlns="http://www.w3.org/2000/svg" xmlns:cc="http://creativecommons.org/ns#" xmlns:dc="http://purl.org/dc/elements/1.1/" xmlns:rdf="http://www.w3.org/1999/02/22-rdf-syntax-ns#">
 <metadata>
  <rdf:RDF>
   <cc:Work rdf:about="">
    <dc:format>image/svg+xml</dc:format>
    <dc:type rdf:resource="http://purl.org/dc/dcmitype/StillImage"/>
    <dc:title/>
   </cc:Work>
  </rdf:RDF>
 </metadata>
 <g transform="translate(-35.564 -77.257)">
  <path d="m82.594 100.33v-21.431" fill="none" stroke="#7b8694" stroke-dasharray="1.05833, 0.264583" stroke-width=".26458"/>
  <g>
   <path d="m40.062 100.33 42.598-21.431" fill="none" stroke="#7b8694" stroke-width=".26458"/>
   <circle transform="rotate(-27)" cx="37.791" cy="107.76" r=".57845" fill="#d2d6dc" stroke="#d2d6dc" stroke-linecap="round" stroke-width=".34707"/>
   <path d="m35.564 100.33h50.271" fill="none" stroke="#7b8694" stroke-width=".26458"/>
   <circle transform="rotate(-27)" cx="28.061" cy="126.85" r=".57845" fill="#d2d6dc" stroke="#d2d6dc" stroke-linecap="round" stroke-width=".34707"/>
   <circle transform="rotate(-27)" cx="-9.6582" cy="107.63" r=".57845" fill="#d2d6dc" stroke="#d2d6dc" stroke-linecap="round" stroke-width=".34707"/>
  </g>
  <path d="m40.326 104.03h39.158" fill="none" stroke="#e9e56f" stroke-width=".26458px"/>
  <g fill="#e8eaec" stroke-linecap="round" stroke-width=".26458">
   <g transform="scale(.99996 1)" stroke="#cf2f25" aria-label="v">
    <path d="m44.318 101.12 0.4789 1.2197h0.15081l0.29369-0.69056c0.07144-0.16933 0.14023-0.34396 0.17992-0.52917h-0.17198c-0.03175 0.17727-0.09525 0.34396-0.16404 0.50271l-0.19314 0.44979-0.34925-0.88371c-0.0026-5e-3 -0.0053-0.0106-0.0053-0.0159 0-0.0159 0.01323-0.0318 0.0079-0.0529z" fill="#e8eaec" stroke="none"/>
   </g>
   <g transform="scale(.99996 1)" aria-label="v'">
    <path d="m58.077 105.09 0.4789 1.2197h0.15081l0.29369-0.69056c0.07144-0.16933 0.14023-0.34396 0.17992-0.52917h-0.17198c-0.03175 0.17727-0.09525 0.34396-0.16404 0.50271l-0.19314 0.44979-0.34925-0.88371c-0.0026-5e-3 -0.0053-0.0106-0.0053-0.0159 0-0.0159 0.01323-0.0318 0.0079-0.0529z"/>
    <path d="m60.141 104.7c0-0.11907-0.06879-0.16405-0.11906-0.16405-0.05292 0-0.11377 0.0423-0.11377 0.14553 0 0.0582 0.01588 0.11112 0.01588 0.16668 0 0.0529-0.01058 0.10319-0.02646 0.14817l-0.05556 0.17727 0.14552 0.037 0.0635-0.17727c0.06615-0.17992 0.08996-0.26458 0.08996-0.33337z"/>
   </g>
   <g transform="scale(.99996 1)" stroke="#cf2f25" aria-label="Q">
    <path d="m85.624 77.553c0.11642 0 0.25929 0.06879 0.33867 0.26458 0.05821 0.14023 0.06615 0.30162 0.06615 0.43921 0 0.54769-0.254 0.64823-0.39423 0.64823-0.19315 0-0.4154-0.18521-0.4154-0.70644 0-0.48419 0.2249-0.64558 0.40481-0.64558zm0.58473 0.68262c0-0.1561-0.01058-0.35983-0.10054-0.5371-0.10583-0.21431-0.29633-0.31221-0.47625-0.31221-0.24606 0-0.59267 0.1905-0.59267 0.83873 0 0.58737 0.28046 0.80962 0.51858 0.84666 0 0.15081 0.03969 0.26458 0.15875 0.32279 0.10319 0.05027 0.2196 0.03969 0.4101 0.03969l0.0026-0.17992c-0.08202 0.0053-0.15346 0.01588-0.21431 0.01588-0.16404 0-0.1905-0.10848-0.19315-0.20108 0.15081-0.02646 0.29633-0.127 0.38894-0.30956 0.08731-0.17462 0.0979-0.381 0.0979-0.52387z" fill="#e8eaec" stroke="none"/>
   </g>
   <g transform="scale(.99996 1)" aria-label="Q'">
    <path d="m85.624 97.131c0.11642 0 0.25929 0.06879 0.33867 0.26458 0.05821 0.14023 0.06615 0.30162 0.06615 0.43921 0 0.54769-0.254 0.64823-0.39423 0.64823-0.19315 0-0.4154-0.18521-0.4154-0.70644 0-0.48419 0.2249-0.64558 0.40481-0.64558zm0.58473 0.68262c0-0.1561-0.01058-0.35983-0.10054-0.5371-0.10583-0.21431-0.29633-0.31221-0.47625-0.31221-0.24606 0-0.59267 0.1905-0.59267 0.83873 0 0.58737 0.28046 0.80962 0.51858 0.84666 0 0.15081 0.03969 0.26458 0.15875 0.32279 0.10319 0.05027 0.2196 0.03969 0.4101 0.03969l0.0026-0.17992c-0.08202 0.0053-0.15346 0.01587-0.21431 0.01587-0.16404 0-0.1905-0.10848-0.19315-0.20108 0.15081-0.02646 0.29633-0.127 0.38894-0.30956 0.08731-0.17462 0.0979-0.381 0.0979-0.52387z"/>
    <path d="m87.13 97.03c0-0.11906-0.06879-0.16404-0.11906-0.16404-0.05292 0-0.11377 0.04233-0.11377 0.14552 0 0.05821 0.01588 0.11112 0.01588 0.16669 0 0.05292-0.01058 0.10319-0.02646 0.14817l-0.05556 0.17727 0.14552 0.03704 0.0635-0.17727c0.06615-0.17992 0.08996-0.26458 0.08996-0.33338z"/>
   </g>
   <g transform="scale(.99996 1)" stroke="#cf2f25" aria-label="W">
    <path d="m57.754 88.514 0.26458 1.6616h0.07408l0.2884-1.0901 0.2831 1.0901h0.07408l0.25929-1.6616h-0.1561l-0.15081 1.1192-0.26723-0.99748h-0.05556l-0.26458 0.99483-0.17992-1.1165z" fill="#e8eaec" stroke="none"/>
   </g>
   <g transform="scale(.99996 1)" stroke="#cf2f25" aria-label="P">
    <path d="m38.547 97.245v1.6484h0.19314v-0.7276h0.32279c0.10319 0 0.20108-0.0026 0.30162-0.05292 0.15346-0.07673 0.23283-0.23548 0.23283-0.40217s-0.07937-0.32808-0.23548-0.40746c-0.10319-0.05556-0.20637-0.05821-0.31221-0.05821zm0.19314 0.17462h0.30956c0.06879 0 0.13494 0.0026 0.20373 0.0344 0.10054 0.05292 0.1561 0.15875 0.1561 0.26458 0 0.10583-0.05292 0.20373-0.14817 0.25135-0.0635 0.03175-0.127 0.0344-0.1905 0.0344h-0.33337z" fill="#e8eaec" stroke="none"/>
   </g>
  </g>
  <path d="m40.541 100.33h15.603" fill="none" stroke="#d2d6dc" stroke-width=".26458"/>
  <g stroke-width="247.7">
   <g transform="matrix(.0021182 -1.534e-5 1.5606e-5 .0021545 55.883 99.712)" fill="#d2d6dc">
    <g fill="#d2d6dc" stroke-width="247.7">
     <path d="m486.41 221.41-364.07-208.5c-52.938-30.318-95.852-5.44-95.852 55.563v415.65c0 61.004 42.914 85.882 95.852 55.563l364.07-208.49c52.938-30.317 52.938-79.473 0-109.79z" fill="#d2d6dc" stroke-width="247.7"/>
    </g>
   </g>
   <g transform="matrix(.0018619 -.0010101 .0010274 .0018938 80.686 79.254)" fill="#d2d6dc">
    <g fill="#d2d6dc" stroke-width="247.7">
     <path d="m486.41 221.41-364.07-208.5c-52.938-30.318-95.852-5.44-95.852 55.563v415.65c0 61.004 42.914 85.882 95.852 55.563l364.07-208.49c52.938-30.317 52.938-79.473 0-109.79z" fill="#d2d6dc" stroke-width="247.7"/>
    </g>
   </g>
   <g transform="matrix(.0021182 -1.534e-5 1.5606e-5 .0021545 79.166 103.42)" fill="#e9e56f">
    <g fill="#e9e56f" stroke-width="247.7">
     <path d="m486.41 221.41-364.07-208.5c-52.938-30.318-95.852-5.44-95.852 55.563v415.65c0 61.004 42.914 85.882 95.852 55.563l364.07-208.49c52.938-30.317 52.938-79.473 0-109.79z" fill="#e9e56f" stroke-width="247.7"/>
    </g>
   </g>
  </g>
 </g>
</svg>
