<?xml version="1.0" encoding="UTF-8"?>
<svg width="86.352mm" height="65.654mm" version="1.1" viewBox="0 0 86.352 65.654" xmlns="http://www.w3.org/2000/svg" xmlns:cc="http://creativecommons.org/ns#" xmlns:dc="http://purl.org/dc/elements/1.1/" xmlns:rdf="http://www.w3.org/1999/02/22-rdf-syntax-ns#">
 <metadata>
  <rdf:RDF>
   <cc:Work rdf:about="">
    <dc:format>image/svg+xml</dc:format>
    <dc:type rdf:resource="http://purl.org/dc/dcmitype/StillImage"/>
    <dc:title/>
   </cc:Work>
  </rdf:RDF>
 </metadata>
 <g transform="translate(-26.973 -64.84)">
  <g fill="#1d232d" fill-rule="evenodd" stroke="#535e70" stroke-width=".26458">
   <path d="m66.257 91.55-9.9078-19.795 4.2599-2.2101 16.513 15.519z"/>
   <path d="m82.576 88.513 30.427 7.9837-4.1628 2.718-37.534-3.4313z"/>
   <path d="m92.552 76.721-0.81219-5.0111 3.4521-1.8686 3.6214 5.6227z"/>
   <path d="m99.753 74.957 10.695 2.7349-3.0968 1.9704-11.456-0.64548z"/>
   <path d="m50.255 98.773c-0.41992 0.41169-0.59208 1.0162-0.87998 1.5288-0.37947 0.67551-0.92482 1.2878-1.1169 2.0384-0.16857 0.65826-0.28128 1.4198 0 2.0385 0.28496 0.62698 0.93041 1.0722 1.5568 1.3589 0.88067 0.40299 1.9088 0.37682 2.8769 0.40764 0.73512 0.0233 1.4979 0.0492 2.1998-0.16983 12.535-3.9176 34.014-19.875 34.014-19.875l11.192-11.03-0.93337-0.88889c-14.066 7.1046-38.942 15.927-48.909 24.591z"/>
   <path d="m95.42 76.605 0.0509-1.7836 4.6706-8.5444 1.6585-1.1381-2.1153 9.6486z"/>
  </g>
  <ellipse cx="73.313" cy="90.584" rx="1.3369" ry="1.3363" fill="#47d58a"/>
  <g fill="none" stroke-width=".26458">
   <g stroke="#47d58a">
    <path d="m73.039 90.306-32.164-15.8"/>
    <path d="m73.627 89.764v33.958"/>
    <path d="m73.674 90.426-35.389 19.731"/>
   </g>
   <g stroke="#e9e56f">
    <path d="m47.173 108.32s0.3057-0.39161 0.3684-0.62535c0.07591-0.28178 0.05839-0.591-0.0093-0.87542-0.08255-0.35732-0.27977-0.68157-0.47268-0.99349-0.2136-0.34509-0.46125-0.67426-0.75078-0.95882-0.18627-0.18317-0.39272-0.35359-0.62553-0.47241-0.23955-0.12232-0.50379-0.21022-0.77166-0.2363-0.15761-0.0151-0.32803-0.0159-0.47265 0.0492-0.16899 0.0759-0.31234 0.21786-0.40997 0.37518-0.09686 0.15565-0.14409 0.34502-0.15309 0.528-0.01085 0.22831 0.12512 0.674 0.12512 0.674"/>
    <path d="m75.967 112.74s-0.09112 0.30859-0.17701 0.44215c-0.10771 0.16759-0.2509 0.31625-0.41283 0.43233-0.16449 0.11776-0.36224 0.18132-0.5506 0.25551-0.1764 0.0692-0.35608 0.1329-0.54065 0.17684-0.27395 0.065-0.55377 0.12872-0.83555 0.12774-0.35166 0-0.70242-0.075-1.0419-0.167-0.28845-0.0784-0.57949-0.17068-0.83563-0.32425-0.18526-0.11115-0.38865-0.23259-0.49154-0.42256-0.09451-0.17426-0.11568-0.39487-0.07842-0.58952 0.03667-0.19164 0.14375-0.37664 0.2852-0.51105 0.20913-0.19886 0.77655-0.38319 0.77655-0.38319"/>
    <path d="m49.101 81.176s-0.27832-0.269-0.35391-0.44209c-0.07173-0.16396-0.0784-0.3519-0.0784-0.53065 1.59e-4 -0.22183 0.03919-0.4444 0.09835-0.65831 0.05085-0.18426 0.13213-0.35917 0.21627-0.5306 0.09501-0.19368 0.20772-0.37872 0.32441-0.56015 0.11308-0.17582 0.23228-0.34824 0.36378-0.51091 0.12819-0.15875 0.25964-0.31716 0.41275-0.45199 0.16251-0.14298 0.33827-0.27482 0.53094-0.37343 0.16042-0.08173 0.33123-0.16356 0.51115-0.17682 0.17626-0.01323 0.36761 0.01085 0.52088 0.09819 0.14716 0.08456 0.24794 0.23746 0.33433 0.3833 0.06757 0.11404 0.11613 0.24244 0.13764 0.37335 0.03916 0.23929-0.02011 0.72721-0.02011 0.72721"/>
   </g>
  </g>
  <g fill="#e8eaec" stroke-linecap="round" stroke-width=".26458">
   <g transform="scale(.99996 1)" aria-label="Pitch axis">
    <path d="m33.985 85.329h0.3556v-1.1007h0.49953c0.60537 0 1.0245-0.27517 1.0245-0.85937 0-0.6096-0.41063-0.81703-1.0245-0.81703h-0.85513zm0.3556-1.3885v-1.1049h0.45297c0.47837 0 0.71967 0.13123 0.71967 0.5334 0 0.3937-0.23283 0.5715-0.71967 0.5715z"/>
    <path d="m36.556 82.848c0.13547 0 0.2413-0.09313 0.2413-0.22437 0-0.13547-0.10583-0.22437-0.2413-0.22437-0.13547 0-0.2413 0.0889-0.2413 0.22437 0 0.13123 0.10583 0.22437 0.2413 0.22437zm-0.1778 2.4807h0.34713v-2.0574h-0.34713z"/>
    <path d="m37.48 84.694c0 0.4064 0.14817 0.6858 0.58843 0.6858 0.127 0 0.2667-0.0381 0.381-0.0762l-0.06773-0.26247c-0.06773 0.0254-0.16087 0.05503-0.23283 0.05503-0.23707 0-0.3175-0.14393-0.3175-0.39793v-1.143h0.55457v-0.28363h-0.55457v-0.57573h-0.2921l-0.04233 0.57573-0.32173 0.02117v0.26247h0.3048z"/>
    <path d="m38.657 84.305c0 0.68157 0.4191 1.0753 0.9652 1.0753 0.24553 0 0.4826-0.1016 0.66887-0.2667l-0.15663-0.2286c-0.12277 0.11007-0.28787 0.20743-0.4826 0.20743-0.37677 0-0.635-0.3175-0.635-0.7874 0-0.47413 0.27093-0.79587 0.64347-0.79587 0.1651 0 0.2921 0.0762 0.41487 0.18203l0.17357-0.22437c-0.1397-0.13123-0.3302-0.24553-0.60113-0.24553-0.52917 0-0.9906 0.3937-0.9906 1.0837z"/>
    <path d="m40.736 85.329h0.34713v-1.4901c0.20743-0.20743 0.35137-0.3175 0.56303-0.3175 0.27093 0 0.38947 0.1651 0.38947 0.55033v1.2573h0.34713v-1.3039c0-0.52493-0.19473-0.80433-0.62653-0.80433-0.28363 0-0.49107 0.1524-0.6858 0.33867l0.0127-0.42333v-0.82127h-0.34713z"/>
    <path d="m43.793 84.796c0 0.3683 0.25823 0.5842 0.60537 0.5842 0.254 0 0.4826-0.13547 0.68157-0.29633h0.0085l0.02963 0.24553h0.28787v-1.2615c0-0.51223-0.21167-0.84667-0.71543-0.84667-0.3302 0-0.61807 0.14393-0.80857 0.2667l0.1397 0.2413c0.16087-0.11007 0.37253-0.22013 0.61383-0.22013 0.33443 0 0.42333 0.254 0.42333 0.51647-0.8763 0.09737-1.2658 0.32173-1.2658 0.77047zm0.3429-0.0254c0-0.26247 0.23283-0.4318 0.92287-0.51647v0.5715c-0.19897 0.1778-0.36407 0.27517-0.56303 0.27517-0.2032 0-0.35983-0.09737-0.35983-0.3302z"/>
    <path d="m45.773 85.329h0.36407l0.2794-0.47837c0.06773-0.127 0.13547-0.24977 0.20743-0.3683h0.01693c0.0762 0.11853 0.1524 0.24553 0.22437 0.3683l0.30057 0.47837h0.37677l-0.66887-1.0372 0.6223-1.0202h-0.36407l-0.24977 0.45297c-0.0635 0.11007-0.127 0.2286-0.18627 0.3429h-0.01693c-0.07197-0.1143-0.1397-0.23283-0.2032-0.3429l-0.27517-0.45297h-0.37677l0.6223 0.98213z"/>
    <path d="m48.124 82.848c0.13547 0 0.2413-0.09313 0.2413-0.22437 0-0.13547-0.10583-0.22437-0.2413-0.22437-0.13547 0-0.2413 0.0889-0.2413 0.22437 0 0.13123 0.10583 0.22437 0.2413 0.22437zm-0.1778 2.4807h0.34713v-2.0574h-0.34713z"/>
    <path d="m48.759 85.096c0.19473 0.16087 0.47413 0.28363 0.76623 0.28363 0.48683 0 0.75353-0.2794 0.75353-0.61383 0-0.38947-0.3302-0.51223-0.62653-0.6223-0.23283-0.0889-0.4572-0.1651-0.4572-0.3556 0-0.15663 0.11853-0.29633 0.37677-0.29633 0.18203 0 0.3302 0.0762 0.4699 0.18203l0.1651-0.22013c-0.15663-0.127-0.381-0.23283-0.63923-0.23283-0.4445 0-0.70697 0.254-0.70697 0.5842 0 0.34713 0.32173 0.48683 0.61383 0.59267 0.22437 0.08467 0.4699 0.1778 0.4699 0.38947 0 0.1778-0.13547 0.32173-0.4064 0.32173-0.24553 0-0.42757-0.1016-0.60537-0.24553z"/>
   </g>
   <g transform="scale(.99996 1)" aria-label="Roll Axis">
    <path d="m27.462 104h0.46567c0.4318 0 0.66887 0.13123 0.66887 0.4953 0 0.35983-0.23707 0.53763-0.66887 0.53763h-0.46567zm1.5706 2.4934-0.70697-1.2107c0.37677-0.0974 0.6223-0.3556 0.6223-0.7874 0-0.57574-0.4064-0.77893-0.96943-0.77893h-0.87207v2.7771h0.3556v-1.1726h0.49953l0.66887 1.1726z"/>
    <path d="m29.33 105.47c0 0.68157 0.44873 1.0753 0.9525 1.0753s0.9525-0.3937 0.9525-1.0753c0-0.69003-0.44873-1.0837-0.9525-1.0837s-0.9525 0.3937-0.9525 1.0837zm0.35983 0c0-0.47413 0.2413-0.79586 0.59267-0.79586 0.3556 0 0.59267 0.32173 0.59267 0.79586 0 0.4699-0.23707 0.7874-0.59267 0.7874-0.35137 0-0.59267-0.3175-0.59267-0.7874z"/>
    <path d="m31.781 106.08c0 0.30057 0.10583 0.46567 0.3683 0.46567 0.09313 0 0.1524-0.0127 0.19897-0.0339l-0.04657-0.26246c-0.0381 8e-3 -0.05503 8e-3 -0.0762 8e-3 -0.0508 0-0.09737-0.0423-0.09737-0.1524v-2.6247h-0.34713z"/>
    <path d="m32.864 106.08c0 0.30057 0.10583 0.46567 0.3683 0.46567 0.09313 0 0.1524-0.0127 0.19897-0.0339l-0.04657-0.26246c-0.0381 8e-3 -0.05503 8e-3 -0.0762 8e-3 -0.0508 0-0.09737-0.0423-0.09737-0.1524v-2.6247h-0.34713z"/>
    <path d="m35.167 105.36 0.13547-0.42333c0.09737-0.30904 0.18627-0.61384 0.27517-0.93557h0.01693c0.0889 0.32173 0.1778 0.62653 0.27517 0.93557l0.13123 0.42333zm1.1896 1.1303h0.37253l-0.9398-2.7771h-0.39793l-0.9398 2.7771h0.35983l0.2667-0.84667h1.0118z"/>
    <path d="m36.785 106.49h0.36407l0.2794-0.47837c0.06773-0.127 0.13547-0.24976 0.20743-0.3683h0.01693c0.0762 0.11854 0.1524 0.24554 0.22437 0.3683l0.30057 0.47837h0.37677l-0.66887-1.0372 0.6223-1.0202h-0.36407l-0.24977 0.45297c-0.0635 0.11006-0.127 0.2286-0.18627 0.3429h-0.01693c-0.07197-0.1143-0.1397-0.23284-0.2032-0.3429l-0.27517-0.45297h-0.37677l0.6223 0.98213z"/>
    <path d="m39.136 104.01c0.13547 0 0.2413-0.0931 0.2413-0.22437 0-0.13546-0.10583-0.22436-0.2413-0.22436s-0.2413 0.0889-0.2413 0.22436c0 0.13123 0.10583 0.22437 0.2413 0.22437zm-0.1778 2.4807h0.34713v-2.0574h-0.34713z"/>
    <path d="m39.771 106.26c0.19473 0.16086 0.47413 0.28363 0.76623 0.28363 0.48683 0 0.75353-0.2794 0.75353-0.61383 0-0.38947-0.3302-0.51224-0.62653-0.6223-0.23283-0.0889-0.4572-0.1651-0.4572-0.3556 0-0.15664 0.11853-0.29634 0.37677-0.29634 0.18203 0 0.3302 0.0762 0.4699 0.18204l0.1651-0.22014c-0.15663-0.127-0.381-0.23283-0.63923-0.23283-0.4445 0-0.70697 0.254-0.70697 0.5842 0 0.34713 0.32173 0.48683 0.61383 0.59267 0.22437 0.0847 0.4699 0.1778 0.4699 0.38946 0 0.1778-0.13547 0.32174-0.4064 0.32174-0.24553 0-0.42757-0.1016-0.60537-0.24554z"/>
   </g>
   <g transform="scale(.99996 1)" aria-label="Yaw Axis">
    <path d="m67.248 130.31h0.35137v-1.0753l0.83397-1.7018h-0.36407l-0.35983 0.78316c-0.08467 0.2032-0.18203 0.39793-0.27517 0.60537h-0.01693c-0.09737-0.20744-0.18203-0.40217-0.27093-0.60537l-0.3556-0.78316h-0.381l0.8382 1.7018z"/>
    <path d="m68.384 129.77c0 0.3683 0.25823 0.5842 0.60537 0.5842 0.254 0 0.4826-0.13547 0.68157-0.29633h0.0085l0.02963 0.24553h0.28787v-1.2615c0-0.51224-0.21167-0.84667-0.71543-0.84667-0.3302 0-0.61807 0.14393-0.80857 0.2667l0.1397 0.2413c0.16087-0.11007 0.37253-0.22013 0.61383-0.22013 0.33443 0 0.42333 0.254 0.42333 0.51646-0.8763 0.0974-1.2658 0.32174-1.2658 0.77047zm0.3429-0.0254c0-0.26247 0.23283-0.4318 0.92287-0.51647v0.5715c-0.19897 0.1778-0.36407 0.27517-0.56303 0.27517-0.2032 0-0.35983-0.0974-0.35983-0.3302z"/>
    <path d="m70.978 130.31h0.4064l0.28787-1.1007c0.05503-0.19473 0.09737-0.38946 0.14393-0.5969h0.01693c0.0508 0.20744 0.0889 0.39794 0.1397 0.59267l0.29633 1.1049h0.42333l0.55033-2.0574h-0.3302l-0.30057 1.1896c-0.04233 0.19473-0.08043 0.381-0.127 0.5715h-0.01693c-0.04657-0.1905-0.09313-0.37677-0.14393-0.5715l-0.32173-1.1896h-0.33867l-0.3175 1.1896c-0.0508 0.1905-0.09313 0.381-0.1397 0.5715h-0.01693c-0.0381-0.1905-0.0762-0.37677-0.12277-0.5715l-0.3048-1.1896h-0.3556z"/>
    <path d="m74.914 129.18 0.13547-0.42333c0.09737-0.30904 0.18627-0.61384 0.27517-0.93557h0.01693c0.0889 0.32173 0.1778 0.62653 0.27517 0.93557l0.13123 0.42333zm1.1896 1.1303h0.37253l-0.9398-2.7771h-0.39793l-0.9398 2.7771h0.35983l0.2667-0.84667h1.0118z"/>
    <path d="m76.532 130.31h0.36407l0.2794-0.47837c0.06773-0.127 0.13547-0.24976 0.20743-0.3683h0.01693c0.0762 0.11854 0.1524 0.24554 0.22437 0.3683l0.30057 0.47837h0.37677l-0.66887-1.0372 0.6223-1.0202h-0.36407l-0.24977 0.45297c-0.0635 0.11006-0.127 0.2286-0.18627 0.3429h-0.01693c-0.07197-0.1143-0.1397-0.23284-0.2032-0.3429l-0.27517-0.45297h-0.37677l0.6223 0.98213z"/>
    <path d="m78.883 127.83c0.13547 0 0.2413-0.0931 0.2413-0.22437 0-0.13546-0.10583-0.22436-0.2413-0.22436s-0.2413 0.0889-0.2413 0.22436c0 0.13124 0.10583 0.22437 0.2413 0.22437zm-0.1778 2.4807h0.34713v-2.0574h-0.34713z"/>
    <path d="m79.518 130.07c0.19473 0.16086 0.47413 0.28363 0.76623 0.28363 0.48683 0 0.75353-0.2794 0.75353-0.61383 0-0.38947-0.3302-0.51224-0.62653-0.6223-0.23283-0.0889-0.4572-0.1651-0.4572-0.3556 0-0.15664 0.11853-0.29634 0.37677-0.29634 0.18203 0 0.3302 0.0762 0.4699 0.18204l0.1651-0.22014c-0.15663-0.127-0.381-0.23283-0.63923-0.23283-0.4445 0-0.70697 0.254-0.70697 0.5842 0 0.34713 0.32173 0.48683 0.61383 0.59267 0.22437 0.0847 0.4699 0.1778 0.4699 0.38946 0 0.1778-0.13547 0.32174-0.4064 0.32174-0.24553 0-0.42757-0.1016-0.60537-0.24554z"/>
   </g>
  </g>
  <g fill="#47d58a" stroke-width="123.85">
   <g transform="matrix(-.003669 -.0021183 .0021546 -.0037318 41.497 76.17)">
    <g fill="#47d58a" stroke-width="123.85">
     <path d="m486.41 221.41-364.07-208.5c-52.938-30.318-95.852-5.44-95.852 55.563v415.65c0 61.004 42.914 85.882 95.852 55.563l364.07-208.49c52.938-30.317 52.938-79.473 0-109.79z" fill="#47d58a" stroke-width="123.85"/>
    </g>
   </g>
   <g transform="matrix(-.00048238 -.004209 .0042811 -.00049064 37.774 110.97)">
    <g fill="#47d58a" stroke-width="123.85">
     <path d="m486.41 221.41-364.07-208.5c-52.938-30.318-95.852-5.44-95.852 55.563v415.65c0 61.004 42.914 85.882 95.852 55.563l364.07-208.49c52.938-30.317 52.938-79.473 0-109.79z" fill="#47d58a" stroke-width="123.85"/>
    </g>
   </g>
   <g transform="matrix(-.0036592 -.0021351 .0021716 -.0037219 73.805 125.5)">
    <g fill="#47d58a" stroke-width="123.85">
     <path d="m486.41 221.41-364.07-208.5c-52.938-30.318-95.852-5.44-95.852 55.563v415.65c0 61.004 42.914 85.882 95.852 55.563l364.07-208.49c52.938-30.317 52.938-79.473 0-109.79z" fill="#47d58a" stroke-width="123.85"/>
    </g>
   </g>
  </g>
  <g fill="#e9e56f" stroke-width="247.7">
   <g transform="matrix(-.0018296 -.0010675 .0010858 -.0018609 72.335 112.45)">
    <g fill="#e9e56f" stroke-width="247.7">
     <path d="m486.41 221.41-364.07-208.5c-52.938-30.318-95.852-5.44-95.852 55.563v415.65c0 61.004 42.914 85.882 95.852 55.563l364.07-208.49c52.938-30.317 52.938-79.473 0-109.79z" fill="#e9e56f" stroke-width="247.7"/>
    </g>
   </g>
   <g transform="matrix(-.0018296 -.0010675 .0010858 -.0018609 52.227 79.116)">
    <g fill="#e9e56f" stroke-width="247.7">
     <path d="m486.41 221.41-364.07-208.5c-52.938-30.318-95.852-5.44-95.852 55.563v415.65c0 61.004 42.914 85.882 95.852 55.563l364.07-208.49c52.938-30.317 52.938-79.473 0-109.79z" fill="#e9e56f" stroke-width="247.7"/>
    </g>
   </g>
   <g transform="matrix(-.0018296 -.0010675 .0010858 -.0018609 44.025 106.37)">
    <g fill="#e9e56f" stroke-width="247.7">
     <path d="m486.41 221.41-364.07-208.5c-52.938-30.318-95.852-5.44-95.852 55.563v415.65c0 61.004 42.914 85.882 95.852 55.563l364.07-208.49c52.938-30.317 52.938-79.473 0-109.79z" fill="#e9e56f" stroke-width="247.7"/>
    </g>
   </g>
  </g>
 </g>
</svg>
