<?xml version="1.0" encoding="UTF-8"?>
<svg class="animated inactive" width="235.5" height="94.549" enable-background="new 0 0 198.44 105.83" version="1.1" viewBox="0 0 60.998 13.196" xml:space="preserve" xmlns="http://www.w3.org/2000/svg" xmlns:cc="http://creativecommons.org/ns#" xmlns:dc="http://purl.org/dc/elements/1.1/" xmlns:rdf="http://www.w3.org/1999/02/22-rdf-syntax-ns#"><metadata><rdf:RDF><cc:Work rdf:about=""><dc:format>image/svg+xml</dc:format><dc:type rdf:resource="http://purl.org/dc/dcmitype/StillImage"/><dc:title/></cc:Work></rdf:RDF></metadata>
  <filter id="blur-filter" x="-2" y="-2" width="200" height="200">
    <feGaussianBlur in="SourceGraphic" stdDeviation="2"/>
  </filter><g><circle cx="1.5926" cy="6.6324" r="1.5926" fill="#a6aeb8"/><path transform="matrix(.31449 .033032 -.033054 .31428 -51.381 -90.395)" d="m379.91 292.52-18.515 16.671-24.777 2.6042-21.576-12.457-10.133-22.76 5.1799-24.369 18.515-16.671 24.777-2.6042 21.576 12.457 10.133 22.76z" fill="#1d232d" stroke="#a6aeb8" stroke-linecap="round" stroke-width=".81937"/><path d="m4.6767 6.6118h27.193" fill="#d2d6dc" stroke="#d2d6dc" stroke-dashoffset="1.2" stroke-linecap="round" stroke-miterlimit="40" stroke-width=".25901"/><g transform="matrix(.0041474 0 0 .0042184 31.266 5.4034)" fill="#d2d6dc" stroke-width="123.85"><g fill="#d2d6dc" stroke-width="123.85"><path d="m486.41 221.41-364.07-208.5c-52.938-30.318-95.852-5.44-95.852 55.563v415.65c0 61.004 42.914 85.882 95.852 55.563l364.07-208.49c52.938-30.317 52.938-79.473 0-109.79z" fill="#d2d6dc" stroke-width="123.85"/></g></g></g></svg>
