<svg class="animated inactive" width="337" height="350.52" enable-background="new 0 0 198.44 105.83" version="1.1" viewBox="0 0 87.287 48.921" xml:space="preserve" xmlns="http://www.w3.org/2000/svg">
  <filter id="blur-filter" x="-2" y="-2" width="200" height="200">
    <feGaussianBlur in="SourceGraphic" stdDeviation="2"/>
  </filter><g stroke-linecap="round" stroke-width=".25901"><path d="m0.12951-20.804h86.769v4.7968h-86.769z" fill="#1d232d" stroke="#009244"/><g fill="#e8eaec" aria-label="Instruction Cache"><path d="m32.218-17.437h0.26108v-2.0389h-0.26108z"/><path d="m33.004-17.437h0.25487v-1.0941c0.1523-0.1523 0.25798-0.23311 0.41338-0.23311 0.19892 0 0.28595 0.12122 0.28595 0.40406v0.92312h0.25487v-0.95731c0-0.38541-0.14297-0.59055-0.46-0.59055-0.20824 0-0.36365 0.11189-0.50663 0.25487h-0.0093l-0.02176-0.21757h-0.21138z"/><path d="m34.536-17.608c0.14297 0.11811 0.34811 0.20824 0.56257 0.20824 0.35744 0 0.55325-0.20514 0.55325-0.45068 0-0.28595-0.24244-0.37608-0.46-0.4569-0.17095-0.06527-0.33568-0.12122-0.33568-0.26108 0-0.115 0.08703-0.21757 0.27662-0.21757 0.13365 0 0.24244 0.05595 0.345 0.13365l0.12122-0.16162c-0.115-0.09325-0.27973-0.17095-0.46933-0.17095-0.32636 0-0.51906 0.18649-0.51906 0.42892 0 0.25487 0.23622 0.35744 0.45068 0.43514 0.16473 0.06216 0.345 0.13054 0.345 0.28595 0 0.13054-0.09946 0.23622-0.29838 0.23622-0.18027 0-0.31392-0.0746-0.44446-0.18027z"/><path d="m36.052-17.904c0 0.29838 0.10878 0.50352 0.43203 0.50352 0.09324 0 0.19581-0.02797 0.27973-0.05595l-0.04973-0.1927c-0.04973 0.01865-0.11811 0.04041-0.17095 0.04041-0.17406 0-0.23311-0.10568-0.23311-0.29216v-0.8392h0.40717v-0.20824h-0.40717v-0.42271h-0.21446l-0.03108 0.42271-0.23622 0.01554v0.1927h0.22379z"/><path d="m37.059-17.437h0.25487v-0.96974c0.10257-0.25487 0.25487-0.34811 0.3823-0.34811 0.06216 0 0.09635 0.0093 0.14608 0.02487l0.04973-0.22379c-0.04973-0.02176-0.09635-0.03108-0.16162-0.03108-0.17095 0-0.32636 0.12122-0.42892 0.31081h-0.0093l-0.02176-0.27352h-0.21135z"/><path d="m38.118-17.991c0 0.38541 0.14297 0.59055 0.46311 0.59055 0.20824 0 0.35744-0.10878 0.4973-0.27352h0.0093l0.02176 0.23622h0.21135v-1.5106h-0.25487v1.0723c-0.14297 0.17716-0.25176 0.25487-0.40717 0.25487-0.19892 0-0.28284-0.12122-0.28284-0.40406v-0.92312h-0.25798z"/><path d="m39.721-18.189c0 0.50041 0.30771 0.78947 0.70866 0.78947 0.18027 0 0.35433-0.07459 0.49109-0.19581l-0.115-0.16784c-0.09014 0.08081-0.21135 0.1523-0.35433 0.1523-0.27662 0-0.46622-0.23311-0.46622-0.57812 0-0.34811 0.19892-0.58433 0.47244-0.58433 0.12122 0 0.21446 0.05595 0.3046 0.13365l0.12743-0.16473c-0.10257-0.09635-0.24244-0.18027-0.44136-0.18027-0.38852 0-0.7273 0.28906-0.7273 0.79568z"/><path d="m41.291-17.904c0 0.29838 0.10878 0.50352 0.43203 0.50352 0.09325 0 0.19581-0.02797 0.27973-0.05595l-0.04973-0.1927c-0.04973 0.01865-0.11811 0.04041-0.17095 0.04041-0.17406 0-0.23311-0.10568-0.23311-0.29216v-0.8392h0.40717v-0.20824h-0.40717v-0.42271h-0.21446l-0.03108 0.42271-0.23622 0.01554v0.1927h0.22379z"/><path d="m42.428-19.259c0.09946 0 0.17716-0.06838 0.17716-0.16473 0-0.09946-0.0777-0.16473-0.17716-0.16473-0.09946 0-0.17716 0.06527-0.17716 0.16473 0 0.09635 0.0777 0.16473 0.17716 0.16473zm-0.13054 1.8214h0.25487v-1.5106h-0.25487z"/><path d="m42.951-18.189c0 0.50041 0.32946 0.78947 0.69933 0.78947s0.69933-0.28906 0.69933-0.78947c0-0.50663-0.32946-0.79568-0.69933-0.79568s-0.69933 0.28906-0.69933 0.79568zm0.26419 0c0-0.34811 0.17716-0.58433 0.43514-0.58433 0.26108 0 0.43514 0.23622 0.43514 0.58433 0 0.345-0.17406 0.57812-0.43514 0.57812-0.25798 0-0.43514-0.23311-0.43514-0.57812z"/><path d="m44.75-17.437h0.25487v-1.0941c0.1523-0.1523 0.25798-0.23311 0.41338-0.23311 0.19892 0 0.28595 0.12122 0.28595 0.40406v0.92312h0.25487v-0.95731c0-0.38541-0.14297-0.59055-0.46-0.59055-0.20824 0-0.36365 0.11189-0.50663 0.25487h-0.0093l-0.02176-0.21757h-0.21135z"/><path d="m46.973-18.457c0 0.66514 0.3823 1.0568 0.89514 1.0568 0.25798 0 0.46-0.10878 0.61852-0.29527l-0.14608-0.15852c-0.13054 0.14608-0.27352 0.22689-0.46622 0.22689-0.38852 0-0.63406-0.32325-0.63406-0.83609 0-0.50663 0.25798-0.82366 0.64649-0.82366 0.16784 0 0.29838 0.07459 0.40717 0.1896l0.14608-0.16473c-0.12122-0.13365-0.31392-0.25176-0.55636-0.25176-0.52217 0-0.91069 0.40095-0.91069 1.0568z"/><path d="m48.761-17.829c0 0.27041 0.1896 0.42892 0.44446 0.42892 0.18649 0 0.35433-0.09946 0.50041-0.21757h0.0062l0.02176 0.18027h0.21135v-0.92623c0-0.37608-0.15541-0.62163-0.52528-0.62163-0.24244 0-0.45379 0.10568-0.59366 0.19581l0.10257 0.17716c0.11811-0.08081 0.27352-0.16162 0.45068-0.16162 0.24554 0 0.31081 0.18649 0.31081 0.37919-0.64338 0.07149-0.92933 0.23622-0.92933 0.56568zm0.25176-0.01865c0-0.1927 0.17095-0.31703 0.67758-0.37919v0.4196c-0.14608 0.13054-0.2673 0.20203-0.41338 0.20203-0.14919 0-0.26419-0.07149-0.26419-0.24244z"/><path d="m50.314-18.189c0 0.50041 0.30771 0.78947 0.70866 0.78947 0.18027 0 0.35433-0.07459 0.49109-0.19581l-0.115-0.16784c-0.09014 0.08081-0.21135 0.1523-0.35433 0.1523-0.27662 0-0.46622-0.23311-0.46622-0.57812 0-0.34811 0.19892-0.58433 0.47244-0.58433 0.12122 0 0.21446 0.05595 0.3046 0.13365l0.12743-0.16473c-0.10257-0.09635-0.24244-0.18027-0.44136-0.18027-0.38852 0-0.72731 0.28906-0.72731 0.79568z"/><path d="m51.841-17.437h0.25487v-1.0941c0.1523-0.1523 0.25798-0.23311 0.41338-0.23311 0.19892 0 0.28595 0.12122 0.28595 0.40406v0.92312h0.25487v-0.95731c0-0.38541-0.14298-0.59055-0.46001-0.59055-0.20824 0-0.36054 0.11189-0.50352 0.24865l0.0093-0.31081v-0.60298h-0.25487z"/><path d="m53.423-18.189c0 0.4942 0.32014 0.78947 0.7242 0.78947 0.20514 0 0.36676-0.07149 0.4973-0.15541l-0.09014-0.16784c-0.11189 0.07149-0.23311 0.11811-0.37608 0.11811-0.28906 0-0.48487-0.20514-0.50352-0.53149h1.0195c0.0062-0.0373 0.0093-0.08703 0.0093-0.13987 0-0.43203-0.21757-0.70866-0.60298-0.70866-0.345 0-0.67758 0.30149-0.67758 0.79568zm0.24865-0.115c0.03108-0.3046 0.22379-0.47865 0.43514-0.47865 0.23622 0 0.37298 0.17095 0.37298 0.47865z"/></g><path d="m4.4356-14.07-4.0471 3.6262v50.248l4.0471 3.6262h78.675l4.0471-3.6262v-50.248l-4.0471-3.6262z" fill="#121824" stroke="#009244"/><path d="m4.0147-11.998h79.258v4.7968h-79.258z" fill="#1d232d" stroke="#009244"/><g fill="#e8eaec" aria-label="Instruction Buffer"><path d="m32.276-8.6309h0.26108v-2.0389h-0.26108z"/><path d="m33.061-8.6309h0.25487v-1.0941c0.1523-0.1523 0.25798-0.23311 0.41338-0.23311 0.19892 0 0.28595 0.12122 0.28595 0.40406v0.92312h0.25487v-0.95731c0-0.38541-0.14297-0.59055-0.46-0.59055-0.20825 0-0.36365 0.11189-0.50663 0.25487h-0.0093l-0.02176-0.21757h-0.21135z"/><path d="m34.593-8.8019c0.14298 0.11811 0.34811 0.20825 0.56257 0.20825 0.35744 0 0.55325-0.20514 0.55325-0.45068 0-0.28595-0.24244-0.37609-0.46-0.4569-0.17095-0.065271-0.33568-0.12122-0.33568-0.26108 0-0.115 0.08703-0.21757 0.27662-0.21757 0.13365 0 0.24244 0.055947 0.345 0.13365l0.12122-0.16162c-0.115-0.09324-0.27973-0.17095-0.46933-0.17095-0.32636 0-0.51906 0.18649-0.51906 0.42892 0 0.25487 0.23622 0.35744 0.45068 0.43514 0.16473 0.062163 0.345 0.13054 0.345 0.28595 0 0.13054-0.09946 0.23622-0.29838 0.23622-0.18027 0-0.31392-0.074595-0.44446-0.18027z"/><path d="m36.11-9.0971c0 0.29838 0.10878 0.50352 0.43203 0.50352 0.09324 0 0.19581-0.027973 0.27973-0.055947l-0.04973-0.1927c-0.04973 0.018649-0.11811 0.040406-0.17095 0.040406-0.17406 0-0.23311-0.10568-0.23311-0.29217v-0.8392h0.40717v-0.20825h-0.40717v-0.42271h-0.21446l-0.03108 0.42271-0.23622 0.01554v0.19271h0.22379z"/><path d="m37.117-8.6309h0.25487v-0.96974c0.10257-0.25487 0.25487-0.34811 0.3823-0.34811 0.06216 0 0.09635 0.00932 0.14608 0.024865l0.04973-0.22379c-0.04973-0.02176-0.09635-0.03108-0.16162-0.03108-0.17095 0-0.32636 0.12122-0.42892 0.31081h-0.0093l-0.02176-0.27352h-0.21135z"/><path d="m38.175-9.1842c0 0.38541 0.14298 0.59055 0.46311 0.59055 0.20825 0 0.35744-0.10878 0.4973-0.27352h0.0093l0.02176 0.23622h0.21135v-1.5106h-0.25487v1.0723c-0.14298 0.17716-0.25176 0.25487-0.40717 0.25487-0.19892 0-0.28284-0.12122-0.28284-0.40406v-0.92312h-0.25798z"/><path d="m39.779-9.3831c0 0.50041 0.30771 0.78947 0.70866 0.78947 0.18027 0 0.35433-0.074596 0.49109-0.19581l-0.115-0.16784c-0.09014 0.080812-0.21135 0.1523-0.35433 0.1523-0.27662 0-0.46622-0.23311-0.46622-0.57811 0-0.34811 0.19892-0.58433 0.47244-0.58433 0.12122 0 0.21446 0.055947 0.3046 0.13365l0.12743-0.16473c-0.10257-0.096352-0.24244-0.18027-0.44136-0.18027-0.38852 0-0.72731 0.28906-0.72731 0.79568z"/><path d="m41.349-9.0971c0 0.29838 0.10878 0.50352 0.43203 0.50352 0.09324 0 0.19581-0.027973 0.27973-0.055947l-0.04973-0.1927c-0.04973 0.018649-0.11811 0.040406-0.17095 0.040406-0.17406 0-0.23311-0.10568-0.23311-0.29217v-0.8392h0.40717v-0.20824h-0.40717v-0.42271h-0.21446l-0.03108 0.42271-0.23622 0.01554v0.19271h0.22379z"/><path d="m42.486-10.452c0.09946 0 0.17716-0.06838 0.17716-0.16473 0-0.09946-0.0777-0.16473-0.17716-0.16473-0.09946 0-0.17716 0.06527-0.17716 0.16473 0 0.09635 0.0777 0.16473 0.17716 0.16473zm-0.13054 1.8214h0.25487v-1.5106h-0.25487z"/><path d="m43.008-9.3831c0 0.50041 0.32946 0.78947 0.69933 0.78947s0.69933-0.28906 0.69933-0.78947c0-0.50663-0.32946-0.79568-0.69933-0.79568s-0.69933 0.28906-0.69933 0.79568zm0.26419 0c0-0.34811 0.17716-0.58433 0.43514-0.58433 0.26108 0 0.43514 0.23622 0.43514 0.58433 0 0.345-0.17406 0.57811-0.43514 0.57811-0.25798 0-0.43514-0.23311-0.43514-0.57811z"/><path d="m44.808-8.6309h0.25487v-1.0941c0.1523-0.1523 0.25798-0.23311 0.41338-0.23311 0.19892 0 0.28595 0.12122 0.28595 0.40406v0.92312h0.25487v-0.95731c0-0.38541-0.14298-0.59055-0.46-0.59055-0.20825 0-0.36365 0.11189-0.50663 0.25487h-0.0093l-0.02176-0.21757h-0.21135z"/><path d="m47.149-8.6309h0.65271c0.45379 0 0.77082-0.19581 0.77082-0.59676 0-0.27973-0.17406-0.44136-0.47244-0.48798v-0.012433c0.24244-0.062163 0.35744-0.24244 0.35744-0.44446 0-0.35744-0.28906-0.4973-0.70244-0.4973h-0.60609zm0.26108-1.1687v-0.66514h0.31392c0.31392 0 0.47865 0.09324 0.47865 0.31392 0 0.22689-0.14608 0.35122-0.49109 0.35122zm0 0.96352v-0.77082h0.35433c0.35744 0 0.55325 0.115 0.55325 0.36676 0 0.27662-0.20514 0.40406-0.55325 0.40406z"/><path d="m48.926-9.1842c0 0.38541 0.14297 0.59055 0.46311 0.59055 0.20825 0 0.35744-0.10878 0.4973-0.27352h0.0093l0.02176 0.23622h0.21135v-1.5106h-0.25487v1.0723c-0.14297 0.17716-0.25176 0.25487-0.40717 0.25487-0.19892 0-0.28284-0.12122-0.28284-0.40406v-0.92312h-0.25798z"/><path d="m52.261-10.831c-0.06838-0.02797-0.15852-0.04973-0.25176-0.04973-0.30149 0-0.44136 0.1927-0.44136 0.50041v0.23933h-0.62784v-0.1927c0-0.19892 0.08703-0.30771 0.23622-0.30771 0.0746 0 0.13676 0.01243 0.20203 0.04041l0.05284-0.1927c-0.0746-0.03419-0.17716-0.05595-0.27662-0.05595-0.31392 0-0.46933 0.19581-0.46933 0.50974v0.19892l-0.20514 0.01554v0.19271h0.20514v1.3023h0.25487v-1.3023h0.62784v1.3023h0.25487v-1.3023h0.32014v-0.20825h-0.32014v-0.23933c0-0.1927 0.07149-0.29217 0.21446-0.29217 0.05284 0 0.11189 0.01243 0.17095 0.0373z"/><path d="m52.284-9.3831c0 0.49419 0.32014 0.78947 0.7242 0.78947 0.20514 0 0.36676-0.071487 0.4973-0.15541l-0.09014-0.16784c-0.11189 0.071487-0.23311 0.11811-0.37608 0.11811-0.28906 0-0.48487-0.20514-0.50352-0.53149h1.0195c0.0062-0.037298 0.0093-0.087028 0.0093-0.13987 0-0.43203-0.21757-0.70866-0.60298-0.70866-0.345 0-0.67758 0.30149-0.67758 0.79568zm0.24865-0.115c0.03108-0.3046 0.22379-0.47865 0.43514-0.47865 0.23622 0 0.37298 0.17095 0.37298 0.47865z"/><path d="m53.938-8.6309h0.25487v-0.96974c0.10257-0.25487 0.25487-0.34811 0.3823-0.34811 0.06216 0 0.09635 0.00932 0.14608 0.024865l0.04973-0.22379c-0.04973-0.02176-0.09635-0.03108-0.16162-0.03108-0.17095 0-0.32636 0.12122-0.42892 0.31081h-0.0093l-0.02176-0.27352h-0.21135z"/></g><path d="m4.0147-5.7818h79.258v4.7968h-79.258z" fill="#1d232d" stroke="#009244"/><g fill="#e8eaec" aria-label="Warp Scheduler"><path d="m33.613-2.4146h0.30771l0.3046-1.2277c0.03419-0.15852 0.06838-0.3046 0.10257-0.46311h0.01243c0.02797 0.15852 0.06216 0.3046 0.09635 0.46311l0.30771 1.2277h0.31392l0.42271-2.0389h-0.25176l-0.21446 1.1096c-0.0373 0.21757-0.0746 0.43825-0.115 0.65893h-0.01243c-0.04973-0.22068-0.09946-0.44446-0.14608-0.65893l-0.28284-1.1096h-0.23622l-0.28284 1.1096c-0.04973 0.21757-0.09946 0.43825-0.14297 0.65893h-0.01243c-0.04041-0.22068-0.08081-0.43825-0.12122-0.65893l-0.21446-1.1096h-0.2673z"/><path d="m35.679-2.8062c0 0.27041 0.1896 0.42892 0.44446 0.42892 0.18649 0 0.35433-0.099461 0.50041-0.21757h0.0062l0.02176 0.18027h0.21135v-0.92623c0-0.37609-0.15541-0.62163-0.52528-0.62163-0.24244 0-0.45379 0.10568-0.59366 0.19581l0.10257 0.17716c0.11811-0.080812 0.27352-0.16162 0.45068-0.16162 0.24554 0 0.31081 0.18649 0.31081 0.37919-0.64339 0.071487-0.92934 0.23622-0.92934 0.56568zm0.25176-0.018649c0-0.1927 0.17095-0.31703 0.67758-0.37919v0.4196c-0.14608 0.13054-0.2673 0.20203-0.41338 0.20203-0.14919 0-0.26419-0.071487-0.26419-0.24244z"/><path d="m37.344-2.4146h0.25487v-0.96974c0.10257-0.25487 0.25487-0.34811 0.3823-0.34811 0.06216 0 0.09635 0.00932 0.14608 0.024865l0.04973-0.22379c-0.04973-0.021757-0.09635-0.031081-0.16162-0.031081-0.17095 0-0.32636 0.12122-0.42892 0.31081h-0.0093l-0.02176-0.27352h-0.21135z"/><path d="m38.673-2.5514c0.13987 0.10878 0.27973 0.17406 0.4196 0.17406 0.345 0 0.65271-0.30149 0.65271-0.81433 0-0.46933-0.20824-0.77082-0.59676-0.77082-0.17716 0-0.345 0.096352-0.48176 0.21135h-0.0093l-0.02176-0.17406h-0.21135v2.1477h0.25487v-0.50974zm0.0062-0.19892v-0.79258c0.14919-0.13365 0.27662-0.20514 0.40406-0.20514 0.28595 0 0.39784 0.22379 0.39784 0.55636 0 0.37298-0.18338 0.59987-0.43203 0.59987-0.09946 0-0.23311-0.043514-0.36987-0.15852z"/><path d="m40.643-2.6788c0.17716 0.18338 0.42582 0.30149 0.71176 0.30149 0.42892 0 0.69622-0.25798 0.69622-0.58122 0-0.30149-0.18338-0.44136-0.4196-0.54392l-0.29217-0.12433c-0.15852-0.068379-0.33879-0.14297-0.33879-0.33879 0-0.18338 0.1523-0.29838 0.3823-0.29838 0.18649 0 0.33879 0.074595 0.46311 0.1927l0.13676-0.16784c-0.14298-0.14919-0.35744-0.25176-0.59987-0.25176-0.36987 0-0.64338 0.23-0.64338 0.54082 0 0.29838 0.22379 0.44446 0.41338 0.52528l0.29216 0.12743c0.1927 0.087028 0.3419 0.1523 0.3419 0.36054 0 0.19892-0.15852 0.33257-0.42582 0.33257-0.21446 0-0.41649-0.10257-0.56257-0.25487z"/><path d="m42.307-3.1668c0 0.50041 0.30771 0.78947 0.70866 0.78947 0.18027 0 0.35433-0.074595 0.49109-0.19581l-0.115-0.16784c-0.09014 0.080812-0.21135 0.1523-0.35433 0.1523-0.27662 0-0.46622-0.23311-0.46622-0.57811 0-0.34811 0.19892-0.58433 0.47244-0.58433 0.12122 0 0.21446 0.055947 0.3046 0.13365l0.12743-0.16473c-0.10257-0.096352-0.24244-0.18027-0.44136-0.18027-0.38852 0-0.72731 0.28906-0.72731 0.79568z"/><path d="m43.834-2.4146h0.25487v-1.0941c0.1523-0.1523 0.25798-0.23311 0.41338-0.23311 0.19892 0 0.28595 0.12122 0.28595 0.40406v0.92312h0.25487v-0.95731c0-0.38541-0.14298-0.59055-0.46-0.59055-0.20825 0-0.36054 0.11189-0.50352 0.24865l0.0093-0.31081v-0.60298h-0.25487z"/><path d="m45.415-3.1668c0 0.49419 0.32014 0.78947 0.7242 0.78947 0.20514 0 0.36676-0.071487 0.4973-0.15541l-0.09014-0.16784c-0.11189 0.071487-0.23311 0.11811-0.37608 0.11811-0.28906 0-0.48487-0.20514-0.50352-0.53149h1.0195c0.0062-0.037298 0.0093-0.087028 0.0093-0.13987 0-0.43203-0.21757-0.70866-0.60298-0.70866-0.345 0-0.67758 0.30149-0.67758 0.79568zm0.24865-0.115c0.03108-0.3046 0.22379-0.47865 0.43514-0.47865 0.23622 0 0.37298 0.17095 0.37298 0.47865z"/><path d="m46.96-3.1668c0 0.50352 0.24554 0.78947 0.62474 0.78947 0.17716 0 0.33879-0.099461 0.4569-0.21446h0.0093l0.02176 0.17716h0.21135v-2.213h-0.25798v0.58122l0.01243 0.25798c-0.13365-0.10878-0.24865-0.17406-0.42271-0.17406-0.345 0-0.65582 0.3046-0.65582 0.79568zm0.26419-0.00311c0-0.345 0.1927-0.57811 0.43514-0.57811 0.12432 0 0.23933 0.043514 0.36676 0.15852v0.78947c-0.12432 0.13987-0.24554 0.20825-0.38541 0.20825-0.26419 0-0.41649-0.21757-0.41649-0.57811z"/><path d="m48.772-2.9679c0 0.38541 0.14298 0.59055 0.46311 0.59055 0.20825 0 0.35744-0.10878 0.4973-0.27352h0.0093l0.02176 0.23622h0.21135v-1.5106h-0.25487v1.0723c-0.14298 0.17716-0.25176 0.25487-0.40717 0.25487-0.19892 0-0.28284-0.12122-0.28284-0.40406v-0.92312h-0.25798z"/><path d="m50.487-2.7192c0 0.22068 0.0777 0.3419 0.27041 0.3419 0.06838 0 0.11189-0.00932 0.14608-0.024865l-0.03419-0.1927c-0.02797 0.00622-0.04041 0.00622-0.05595 0.00622-0.0373 0-0.07149-0.031081-0.07149-0.11189v-1.927h-0.25487z"/><path d="m51.17-3.1668c0 0.49419 0.32014 0.78947 0.7242 0.78947 0.20514 0 0.36676-0.071487 0.4973-0.15541l-0.090136-0.16784c-0.11189 0.071487-0.23311 0.11811-0.37608 0.11811-0.28906 0-0.48487-0.20514-0.50352-0.53149h1.0195c0.0062-0.037298 0.0093-0.087028 0.0093-0.13987 0-0.43203-0.21757-0.70866-0.60298-0.70866-0.345 0-0.67758 0.30149-0.67758 0.79568zm0.24865-0.115c0.03108-0.3046 0.22379-0.47865 0.43514-0.47865 0.23622 0 0.37298 0.17095 0.37298 0.47865z"/><path d="m52.824-2.4146h0.25487v-0.96974c0.10257-0.25487 0.25487-0.34811 0.3823-0.34811 0.06216 0 0.09635 0.00932 0.14608 0.024865l0.04973-0.22379c-0.04973-0.021757-0.09635-0.031081-0.16162-0.031081-0.17095 0-0.32636 0.12122-0.42892 0.31081h-0.0093l-0.02176-0.27352h-0.21135z"/></g><path d="m4.0147 0.43451h38.852v4.7968h-38.852z" fill="#1d232d" stroke="#009244"/><g fill="#e8eaec" aria-label="Dispatch Unit"><path d="m14.96 3.8017h0.52217c0.61541 0 0.95109-0.37919 0.95109-1.0288 0-0.64649-0.33568-1.0101-0.96352-1.0101h-0.50974zm0.26108-0.21135v-1.6162h0.23c0.47865 0 0.71487 0.28595 0.71487 0.79879 0 0.51595-0.23622 0.81744-0.71487 0.81744z"/><path d="m16.975 1.9803c0.09946 0 0.17716-0.068379 0.17716-0.16473 0-0.099461-0.0777-0.16473-0.17716-0.16473-0.09946 0-0.17716 0.065271-0.17716 0.16473 0 0.096352 0.0777 0.16473 0.17716 0.16473zm-0.13054 1.8214h0.25487v-1.5106h-0.25487z"/><path d="m17.442 3.6307c0.14297 0.11811 0.34811 0.20825 0.56257 0.20825 0.35744 0 0.55325-0.20514 0.55325-0.45068 0-0.28595-0.24244-0.37609-0.46-0.4569-0.17095-0.065271-0.33568-0.12122-0.33568-0.26108 0-0.115 0.08703-0.21757 0.27662-0.21757 0.13365 0 0.24244 0.055946 0.345 0.13365l0.12122-0.16162c-0.115-0.093244-0.27973-0.17095-0.46933-0.17095-0.32636 0-0.51906 0.18649-0.51906 0.42892 0 0.25487 0.23622 0.35744 0.45068 0.43514 0.16473 0.062163 0.345 0.13054 0.345 0.28595 0 0.13054-0.09946 0.23622-0.29838 0.23622-0.18027 0-0.31392-0.074595-0.44446-0.18027z"/><path d="m19.164 3.6649c0.13987 0.10878 0.27973 0.17406 0.4196 0.17406 0.345 0 0.65271-0.30149 0.65271-0.81433 0-0.46933-0.20825-0.77082-0.59676-0.77082-0.17716 0-0.345 0.096352-0.48176 0.21135h-0.0093l-0.02176-0.17406h-0.21138v2.1477h0.25487v-0.50974zm0.0062-0.19892v-0.79258c0.14919-0.13365 0.27662-0.20514 0.40406-0.20514 0.28595 0 0.39784 0.22379 0.39784 0.55636 0 0.37298-0.18338 0.59987-0.43203 0.59987-0.09946 0-0.23311-0.043514-0.36987-0.15852z"/><path d="m20.522 3.41c0 0.27041 0.1896 0.42892 0.44446 0.42892 0.18649 0 0.35433-0.099461 0.50041-0.21757h0.0062l0.02176 0.18027h0.21135v-0.92623c0-0.37609-0.15541-0.62163-0.52528-0.62163-0.24244 0-0.45379 0.10568-0.59366 0.19581l0.10257 0.17716c0.11811-0.080812 0.27352-0.16162 0.45068-0.16162 0.24554 0 0.31081 0.18649 0.31081 0.37919-0.64338 0.071487-0.92933 0.23622-0.92933 0.56568zm0.25176-0.018649c0-0.1927 0.17095-0.31703 0.67758-0.37919v0.4196c-0.14608 0.13054-0.2673 0.20203-0.41338 0.20203-0.14919 0-0.26419-0.071487-0.26419-0.24244z"/><path d="m22.23 3.3354c0 0.29838 0.10878 0.50352 0.43203 0.50352 0.09324 0 0.19581-0.027973 0.27973-0.055947l-0.04973-0.1927c-0.04973 0.018649-0.11811 0.040406-0.17095 0.040406-0.17406 0-0.23311-0.10568-0.23311-0.29217v-0.8392h0.40717v-0.20825h-0.40717v-0.42271h-0.21446l-0.03108 0.42271-0.23622 0.015541v0.1927h0.22379z"/><path d="m23.095 3.0495c0 0.50041 0.30771 0.78947 0.70866 0.78947 0.18027 0 0.35433-0.074595 0.49109-0.19581l-0.115-0.16784c-0.09014 0.080812-0.21135 0.1523-0.35433 0.1523-0.27662 0-0.46622-0.23311-0.46622-0.57811 0-0.34811 0.19892-0.58433 0.47244-0.58433 0.12122 0 0.21446 0.055947 0.3046 0.13365l0.12743-0.16473c-0.10257-0.096352-0.24244-0.18027-0.44136-0.18027-0.38852 0-0.72731 0.28906-0.72731 0.79568z"/><path d="m24.621 3.8017h0.25487v-1.0941c0.1523-0.1523 0.25798-0.23311 0.41338-0.23311 0.19892 0 0.28595 0.12122 0.28595 0.40406v0.92312h0.25487v-0.95731c0-0.38541-0.14298-0.59055-0.46-0.59055-0.20825 0-0.36054 0.11189-0.50352 0.24865l0.0093-0.31081v-0.60298h-0.25487z"/><path d="m26.946 2.9594c0 0.65582 0.31703 0.8796 0.73352 0.8796s0.73352-0.22379 0.73352-0.8796v-1.1966h-0.24865v1.2029c0 0.49109-0.21446 0.64649-0.48487 0.64649-0.26419 0-0.47244-0.15541-0.47244-0.64649v-1.2029h-0.26108z"/><path d="m28.931 3.8017h0.25487v-1.0941c0.1523-0.1523 0.25798-0.23311 0.41338-0.23311 0.19892 0 0.28595 0.12122 0.28595 0.40406v0.92312h0.25487v-0.95731c0-0.38541-0.14297-0.59055-0.46-0.59055-0.20824 0-0.36365 0.11189-0.50663 0.25487h-0.0093l-0.02176-0.21757h-0.21135z"/><path d="m30.762 1.9803c0.09946 0 0.17716-0.068379 0.17716-0.16473 0-0.099461-0.0777-0.16473-0.17716-0.16473-0.09946 0-0.17716 0.065271-0.17716 0.16473 0 0.096352 0.0777 0.16473 0.17716 0.16473zm-0.13054 1.8214h0.25487v-1.5106h-0.25487z"/><path d="m31.44 3.3354c0 0.29838 0.10878 0.50352 0.43203 0.50352 0.09324 0 0.19581-0.027973 0.27973-0.055947l-0.04973-0.1927c-0.04973 0.018649-0.11811 0.040406-0.17095 0.040406-0.17406 0-0.23311-0.10568-0.23311-0.29217v-0.8392h0.40717v-0.20825h-0.40717v-0.42271h-0.21446l-0.03108 0.42271-0.23622 0.015541v0.1927h0.22378z"/></g><path d="m4.0147 6.6508h79.258v4.7968h-79.258z" fill="#1d232d" stroke="#009244"/><g fill="#e8eaec" aria-label="Register File"><path d="m36.018 8.1873h0.3419c0.31703 0 0.49109 0.096352 0.49109 0.36365 0 0.26419-0.17406 0.39473-0.49109 0.39473h-0.3419zm1.1531 1.8307-0.51906-0.88893c0.27662-0.071487 0.4569-0.26108 0.4569-0.57811 0-0.42271-0.29838-0.5719-0.71176-0.5719h-0.64028v2.0389h0.26108v-0.86096h0.36676l0.49109 0.86096z"/><path d="m37.39 9.2658c0 0.49419 0.32014 0.78947 0.7242 0.78947 0.20514 0 0.36676-0.071487 0.4973-0.15541l-0.090137-0.16784c-0.11189 0.071487-0.23311 0.11811-0.37608 0.11811-0.28906 0-0.48487-0.20514-0.50352-0.53149h1.0195c0.0062-0.037298 0.0093-0.087028 0.0093-0.13987 0-0.43203-0.21757-0.70866-0.60298-0.70866-0.345 0-0.67758 0.30149-0.67758 0.79568zm0.24865-0.115c0.03108-0.3046 0.22379-0.47865 0.43514-0.47865 0.23622 0 0.37298 0.17095 0.37298 0.47865z"/><path d="m39.122 10.273c0-0.08703 0.04662-0.17716 0.15541-0.25487 0.06527 0.01865 0.13676 0.02486 0.19581 0.02486h0.26108c0.19581 0 0.3046 0.04662 0.3046 0.18649 0 0.15852-0.1896 0.30771-0.47865 0.30771-0.27352 0-0.43825-0.10257-0.43825-0.26419zm-0.22379 0.03419c0 0.26108 0.25487 0.40717 0.62474 0.40717 0.46933 0 0.7646-0.24244 0.7646-0.52217 0-0.25176-0.17716-0.36054-0.52838-0.36054h-0.29216c-0.20514 0-0.2673-0.068379-0.2673-0.16473 0-0.08392 0.04351-0.13365 0.09635-0.18027 0.06838 0.03419 0.1523 0.052838 0.22689 0.052838 0.30771 0 0.55325-0.20203 0.55325-0.52528 0-0.12743-0.05284-0.24244-0.12432-0.31081h0.31081v-0.19581h-0.52528c-0.05595-0.021757-0.13054-0.037298-0.21446-0.037298-0.30771 0-0.56879 0.20825-0.56879 0.53771 0 0.18027 0.09635 0.32635 0.19581 0.40717v0.012433c-0.0777 0.052838-0.16473 0.1523-0.16473 0.27973 0 0.11811 0.05906 0.19892 0.13365 0.24554v0.012433c-0.13676 0.093244-0.22068 0.21446-0.22068 0.3419zm0.62474-0.93866c-0.17406 0-0.32014-0.13987-0.32014-0.36054s0.14298-0.35122 0.32014-0.35122 0.32014 0.13054 0.32014 0.35122-0.14608 0.36054-0.32014 0.36054z"/><path d="m40.71 8.1966c0.09946 0 0.17716-0.068379 0.17716-0.16473 0-0.099461-0.0777-0.16473-0.17716-0.16473-0.09946 0-0.17716 0.065271-0.17716 0.16473 0 0.096352 0.0777 0.16473 0.17716 0.16473zm-0.13054 1.8214h0.25487v-1.5106h-0.25487z"/><path d="m41.177 9.847c0.14297 0.11811 0.34811 0.20825 0.56257 0.20825 0.35744 0 0.55325-0.20514 0.55325-0.45068 0-0.28595-0.24244-0.37609-0.46-0.4569-0.17095-0.065271-0.33568-0.12122-0.33568-0.26108 0-0.115 0.08703-0.21757 0.27662-0.21757 0.13365 0 0.24244 0.055947 0.345 0.13365l0.12122-0.16162c-0.115-0.093244-0.27973-0.17095-0.46933-0.17095-0.32636 0-0.51906 0.18649-0.51906 0.42892 0 0.25487 0.23622 0.35744 0.45068 0.43514 0.16473 0.062163 0.345 0.13054 0.345 0.28595 0 0.13054-0.09946 0.23622-0.29838 0.23622-0.18027 0-0.31392-0.074596-0.44446-0.18027z"/><path d="m42.693 9.5517c0 0.29838 0.10878 0.50352 0.43203 0.50352 0.09324 0 0.19581-0.02797 0.27973-0.055947l-0.04973-0.1927c-0.04973 0.018649-0.11811 0.040406-0.17095 0.040406-0.17406 0-0.23311-0.10568-0.23311-0.29217v-0.8392h0.40717v-0.20825h-0.40717v-0.42271h-0.21446l-0.03108 0.42271-0.23622 0.015541v0.1927h0.22379z"/><path d="m43.558 9.2658c0 0.49419 0.32014 0.78947 0.7242 0.78947 0.20514 0 0.36676-0.071487 0.4973-0.15541l-0.090136-0.16784c-0.11189 0.071487-0.23311 0.11811-0.37608 0.11811-0.28906 0-0.48487-0.20514-0.50352-0.53149h1.0195c0.0062-0.037298 0.0093-0.087028 0.0093-0.13987 0-0.43203-0.21757-0.70866-0.60298-0.70866-0.345 0-0.67758 0.30149-0.67758 0.79568zm0.24865-0.115c0.03108-0.3046 0.22379-0.47865 0.43514-0.47865 0.23622 0 0.37298 0.17095 0.37298 0.47865z"/><path d="m45.212 10.018h0.25487v-0.96974c0.10257-0.25487 0.25487-0.34811 0.3823-0.34811 0.06216 0 0.09635 0.00932 0.14608 0.024865l0.04973-0.22379c-0.04973-0.021757-0.09635-0.031081-0.16162-0.031081-0.17095 0-0.32636 0.12122-0.42892 0.31081h-0.0093l-0.02176-0.27352h-0.21135z"/><path d="m46.933 10.018h0.26108v-0.91379h0.77704v-0.21757h-0.77704v-0.69001h0.9169v-0.21757h-1.178z"/><path d="m48.566 8.1966c0.09946 0 0.17716-0.068379 0.17716-0.16473 0-0.099461-0.0777-0.16473-0.17716-0.16473-0.09946 0-0.17716 0.065271-0.17716 0.16473 0 0.096352 0.0777 0.16473 0.17716 0.16473zm-0.13054 1.8214h0.25487v-1.5106h-0.25487z"/><path d="m49.2 9.7134c0 0.22068 0.0777 0.3419 0.27041 0.3419 0.06838 0 0.11189-0.0093 0.14608-0.02487l-0.03419-0.19271c-0.02797 0.00622-0.04041 0.00622-0.05595 0.00622-0.0373 0-0.07149-0.031081-0.07149-0.11189v-1.927h-0.25487z"/><path d="m49.883 9.2658c0 0.49419 0.32014 0.78947 0.7242 0.78947 0.20514 0 0.36676-0.071487 0.4973-0.15541l-0.090136-0.16784c-0.11189 0.071487-0.23311 0.11811-0.37608 0.11811-0.28906 0-0.48487-0.20514-0.50352-0.53149h1.0195c0.0062-0.037298 0.0093-0.087028 0.0093-0.13987 0-0.43203-0.21757-0.70866-0.60298-0.70866-0.345 0-0.67758 0.30149-0.67758 0.79568zm0.24865-0.115c0.03108-0.3046 0.22379-0.47865 0.43514-0.47865 0.23622 0 0.37298 0.17095 0.37298 0.47865z"/></g><path d="m34.319 12.867h8.5474v6.3509h-8.5474z" fill="#1d232d" stroke="#e9e56f"/><g fill="#e8eaec" aria-label="FP32"><path d="m35.531 17.27h0.26108v-0.91379h0.77704v-0.21757h-0.77704v-0.69001h0.9169v-0.21757h-1.178z"/><path d="m37.049 17.27h0.26108v-0.80812h0.36676c0.44446 0 0.75217-0.20203 0.75217-0.63095 0-0.44757-0.30149-0.59987-0.75217-0.59987h-0.62784zm0.26108-1.0195v-0.81122h0.33257c0.35122 0 0.52838 0.09635 0.52838 0.39163 0 0.28906-0.17095 0.4196-0.52838 0.4196z"/><path d="m38.632 17.028c0.13365 0.14608 0.33568 0.27973 0.65271 0.27973 0.36365 0 0.65271-0.21446 0.65271-0.56568 0-0.27352-0.1896-0.44757-0.42892-0.50352v-0.01243c0.21446-0.08081 0.36054-0.23311 0.36054-0.47244 0-0.32014-0.24865-0.50352-0.59366-0.50352-0.23311 0-0.41649 0.10568-0.56879 0.24865l0.13676 0.16162c0.11811-0.11811 0.25798-0.20203 0.42271-0.20203 0.21135 0 0.3419 0.12122 0.3419 0.31392 0 0.20825-0.13987 0.36987-0.56257 0.36987v0.19581c0.47244 0 0.63406 0.15852 0.63406 0.39473 0 0.22068-0.17095 0.36365-0.41028 0.36365-0.23311 0-0.38852-0.11189-0.50663-0.23622z"/><path d="m40.217 17.27h1.2806v-0.22068h-0.57501c-0.10257 0-0.22379 0.0093-0.33257 0.01865 0.46933-0.49109 0.80812-0.86096 0.80812-1.2339 0-0.35122-0.22689-0.58433-0.59366-0.58433-0.25798 0-0.43514 0.12122-0.59987 0.30149l0.14608 0.14608c0.115-0.13365 0.25798-0.23933 0.42271-0.23933 0.25176 0 0.37608 0.16162 0.37608 0.38852 0 0.32014-0.33568 0.67758-0.93244 1.2712z"/></g><path d="m64.623 12.867h18.648v28.885h-18.648z" fill="#1d232d" stroke="#e9e56f"/><g fill="#e8eaec" aria-label="Tensor  Core"><path d="m70.248 25.559h0.25798v-1.8214h0.61852v-0.21757h-1.495v0.21757h0.61852z"/><path d="m71.14 24.806c0 0.4942 0.32014 0.78947 0.7242 0.78947 0.20514 0 0.36676-0.07149 0.4973-0.15541l-0.09014-0.16784c-0.11189 0.07149-0.23311 0.11811-0.37608 0.11811-0.28906 0-0.48487-0.20514-0.50352-0.53149h1.0195c0.0062-0.0373 0.0093-0.08703 0.0093-0.13987 0-0.43203-0.21757-0.70866-0.60298-0.70866-0.345 0-0.67758 0.30149-0.67758 0.79568zm0.24865-0.115c0.03108-0.3046 0.22379-0.47865 0.43514-0.47865 0.23622 0 0.37298 0.17095 0.37298 0.47865z"/><path d="m72.794 25.559h0.25487v-1.0941c0.1523-0.1523 0.25798-0.23311 0.41338-0.23311 0.19892 0 0.28595 0.12122 0.28595 0.40406v0.92312h0.25487v-0.95731c0-0.38541-0.14298-0.59055-0.46-0.59055-0.20825 0-0.36365 0.11189-0.50663 0.25487h-0.0093l-0.02176-0.21757h-0.21135z"/><path d="m74.326 25.388c0.14297 0.11811 0.34811 0.20824 0.56257 0.20824 0.35744 0 0.55325-0.20514 0.55325-0.45068 0-0.28595-0.24244-0.37609-0.46-0.4569-0.17095-0.06527-0.33568-0.12122-0.33568-0.26108 0-0.115 0.08703-0.21757 0.27662-0.21757 0.13365 0 0.24244 0.05595 0.345 0.13365l0.12122-0.16162c-0.115-0.09324-0.27973-0.17095-0.46933-0.17095-0.32636 0-0.51906 0.18649-0.51906 0.42892 0 0.25487 0.23622 0.35744 0.45068 0.43514 0.16473 0.06216 0.345 0.13054 0.345 0.28595 0 0.13054-0.09946 0.23622-0.29838 0.23622-0.18027 0-0.31392-0.07459-0.44446-0.18027z"/><path d="m75.687 24.806c0 0.50041 0.32946 0.78947 0.69933 0.78947s0.69933-0.28906 0.69933-0.78947c0-0.50663-0.32946-0.79568-0.69933-0.79568s-0.69933 0.28906-0.69933 0.79568zm0.26419 0c0-0.34811 0.17716-0.58433 0.43514-0.58433 0.26108 0 0.43514 0.23622 0.43514 0.58433 0 0.345-0.17406 0.57812-0.43514 0.57812-0.25798 0-0.43514-0.23311-0.43514-0.57812z"/><path d="m77.486 25.559h0.25487v-0.96974c0.10257-0.25487 0.25487-0.34811 0.3823-0.34811 0.06216 0 0.09635 0.0093 0.14608 0.02487l0.04973-0.22379c-0.04973-0.02176-0.09635-0.03108-0.16162-0.03108-0.17095 0-0.32635 0.12122-0.42892 0.31081h-0.0093l-0.02176-0.27352h-0.21135z"/><path d="m71.064 28.54c0 0.66514 0.3823 1.0568 0.89514 1.0568 0.25798 0 0.46-0.10878 0.61852-0.29527l-0.14608-0.15852c-0.13054 0.14608-0.27352 0.2269-0.46622 0.2269-0.38852 0-0.63406-0.32325-0.63406-0.83609 0-0.50663 0.25798-0.82366 0.64649-0.82366 0.16784 0 0.29838 0.0746 0.40717 0.1896l0.14608-0.16473c-0.12122-0.13365-0.31392-0.25176-0.55636-0.25176-0.52217 0-0.91069 0.40095-0.91069 1.0568z"/><path d="m72.816 28.808c0 0.50041 0.32946 0.78947 0.69933 0.78947s0.69933-0.28906 0.69933-0.78947c0-0.50663-0.32946-0.79568-0.69933-0.79568s-0.69933 0.28906-0.69933 0.79568zm0.26419 0c0-0.34811 0.17716-0.58433 0.43514-0.58433 0.26108 0 0.43514 0.23622 0.43514 0.58433 0 0.345-0.17406 0.57812-0.43514 0.57812-0.25798 0-0.43514-0.23311-0.43514-0.57812z"/><path d="m74.615 29.56h0.25487v-0.96974c0.10257-0.25487 0.25487-0.34811 0.3823-0.34811 0.06216 0 0.09635 0.0093 0.14608 0.02487l0.04973-0.22379c-0.04973-0.02176-0.09635-0.03108-0.16162-0.03108-0.17095 0-0.32636 0.12122-0.42892 0.31081h-0.0093l-0.02176-0.27352h-0.21135z"/><path d="m75.553 28.808c0 0.4942 0.32014 0.78947 0.7242 0.78947 0.20514 0 0.36676-0.07149 0.4973-0.15541l-0.09014-0.16784c-0.11189 0.07149-0.23311 0.11811-0.37608 0.11811-0.28906 0-0.48487-0.20514-0.50352-0.53149h1.0195c0.0062-0.0373 0.0093-0.08703 0.0093-0.13987 0-0.43203-0.21757-0.70866-0.60298-0.70866-0.345 0-0.67758 0.30149-0.67758 0.79568zm0.24865-0.115c0.03108-0.3046 0.22379-0.47865 0.43514-0.47865 0.23622 0 0.37298 0.17095 0.37298 0.47865z"/></g><path d="m44.421 0.43451h38.852v4.7968h-38.852z" fill="#1d232d" stroke="#009244"/><g fill="#e8eaec" aria-label="Dispatch Unit"><path d="m55.366 3.8017h0.52217c0.61541 0 0.95109-0.37919 0.95109-1.0288 0-0.64649-0.33568-1.0101-0.96352-1.0101h-0.50974zm0.26108-0.21135v-1.6162h0.23c0.47865 0 0.71487 0.28595 0.71487 0.79879 0 0.51595-0.23622 0.81744-0.71487 0.81744z"/><path d="m57.381 1.9803c0.09946 0 0.17716-0.068379 0.17716-0.16473 0-0.099461-0.0777-0.16473-0.17716-0.16473-0.09946 0-0.17716 0.065271-0.17716 0.16473 0 0.096352 0.0777 0.16473 0.17716 0.16473zm-0.13054 1.8214h0.25487v-1.5106h-0.25487z"/><path d="m57.848 3.6307c0.14297 0.11811 0.34811 0.20825 0.56257 0.20825 0.35744 0 0.55325-0.20514 0.55325-0.45068 0-0.28595-0.24244-0.37609-0.46-0.4569-0.17095-0.065271-0.33568-0.12122-0.33568-0.26108 0-0.115 0.08703-0.21757 0.27662-0.21757 0.13365 0 0.24244 0.055946 0.345 0.13365l0.12122-0.16162c-0.115-0.093244-0.27973-0.17095-0.46933-0.17095-0.32636 0-0.51906 0.18649-0.51906 0.42892 0 0.25487 0.23622 0.35744 0.45068 0.43514 0.16473 0.062163 0.345 0.13054 0.345 0.28595 0 0.13054-0.09946 0.23622-0.29838 0.23622-0.18027 0-0.31392-0.074595-0.44446-0.18027z"/><path d="m59.569 3.6649c0.13987 0.10878 0.27973 0.17406 0.4196 0.17406 0.345 0 0.65271-0.30149 0.65271-0.81433 0-0.46933-0.20825-0.77082-0.59676-0.77082-0.17716 0-0.345 0.096352-0.48176 0.21135h-0.0093l-0.02176-0.17406h-0.21135v2.1477h0.25487v-0.50974zm0.0062-0.19892v-0.79258c0.14919-0.13365 0.27662-0.20514 0.40406-0.20514 0.28595 0 0.39784 0.22379 0.39784 0.55636 0 0.37298-0.18338 0.59987-0.43203 0.59987-0.09946 0-0.23311-0.043514-0.36987-0.15852z"/><path d="m60.928 3.41c0 0.27041 0.1896 0.42892 0.44446 0.42892 0.18649 0 0.35433-0.099461 0.50041-0.21757h0.0062l0.02176 0.18027h0.21135v-0.92623c0-0.37609-0.15541-0.62163-0.52528-0.62163-0.24244 0-0.45379 0.10568-0.59366 0.19581l0.10257 0.17716c0.11811-0.080812 0.27352-0.16162 0.45068-0.16162 0.24554 0 0.31081 0.18649 0.31081 0.37919-0.64338 0.071487-0.92933 0.23622-0.92933 0.56568zm0.25176-0.018649c0-0.1927 0.17095-0.31703 0.67758-0.37919v0.4196c-0.14608 0.13054-0.2673 0.20203-0.41338 0.20203-0.14919 0-0.26419-0.071487-0.26419-0.24244z"/><path d="m62.636 3.3354c0 0.29838 0.10878 0.50352 0.43203 0.50352 0.09324 0 0.19581-0.027973 0.27973-0.055947l-0.04973-0.1927c-0.04973 0.018649-0.11811 0.040406-0.17095 0.040406-0.17406 0-0.23311-0.10568-0.23311-0.29217v-0.8392h0.40716v-0.20825h-0.40717v-0.42271h-0.21446l-0.03108 0.42271-0.23622 0.015541v0.1927h0.22379z"/><path d="m63.501 3.0495c0 0.50041 0.30771 0.78947 0.70866 0.78947 0.18027 0 0.35433-0.074595 0.49109-0.19581l-0.115-0.16784c-0.09014 0.080812-0.21135 0.1523-0.35433 0.1523-0.27662 0-0.46622-0.23311-0.46622-0.57811 0-0.34811 0.19892-0.58433 0.47244-0.58433 0.12122 0 0.21446 0.055947 0.3046 0.13365l0.12743-0.16473c-0.10257-0.096352-0.24244-0.18027-0.44136-0.18027-0.38852 0-0.7273 0.28906-0.7273 0.79568z"/><path d="m65.027 3.8017h0.25487v-1.0941c0.1523-0.1523 0.25798-0.23311 0.41338-0.23311 0.19892 0 0.28595 0.12122 0.28595 0.40406v0.92312h0.25487v-0.95731c0-0.38541-0.14298-0.59055-0.46-0.59055-0.20825 0-0.36054 0.11189-0.50352 0.24865l0.0093-0.31081v-0.60298h-0.25487z"/><path d="m67.352 2.9594c0 0.65582 0.31703 0.8796 0.73352 0.8796s0.73352-0.22379 0.73352-0.8796v-1.1966h-0.24865v1.2029c0 0.49109-0.21446 0.64649-0.48487 0.64649-0.26419 0-0.47244-0.15541-0.47244-0.64649v-1.2029h-0.26108z"/><path d="m69.337 3.8017h0.25487v-1.0941c0.1523-0.1523 0.25798-0.23311 0.41338-0.23311 0.19892 0 0.28595 0.12122 0.28595 0.40406v0.92312h0.25487v-0.95731c0-0.38541-0.14298-0.59055-0.46-0.59055-0.20825 0-0.36365 0.11189-0.50663 0.25487h-0.0093l-0.021781-0.21757h-0.21135z"/><path d="m71.167 1.9803c0.09946 0 0.17716-0.068379 0.17716-0.16473 0-0.099461-0.0777-0.16473-0.17716-0.16473-0.09946 0-0.17716 0.065271-0.17716 0.16473 0 0.096352 0.0777 0.16473 0.17716 0.16473zm-0.13054 1.8214h0.25487v-1.5106h-0.25487z"/><path d="m71.845 3.3354c0 0.29838 0.10878 0.50352 0.43203 0.50352 0.09324 0 0.19581-0.027973 0.27973-0.055947l-0.04973-0.1927c-0.04973 0.018649-0.11811 0.040406-0.17095 0.040406-0.17406 0-0.23311-0.10568-0.23311-0.29217v-0.8392h0.40717v-0.20825h-0.40717v-0.42271h-0.21446l-0.03108 0.42271-0.23622 0.015541v0.1927h0.22379z"/></g><path d="m0.12951 45.244h86.769v4.7968h-86.769z" fill="#1d232d" stroke="#009244"/><g fill="#e8eaec" aria-label="128KB L1 Data Cache / Shared Memory"><path d="m18.598 48.611h1.1189v-0.21135h-0.41027v-1.7716h-0.19581c-0.10878 0.06527-0.23933 0.115-0.4196 0.14608v0.16473h0.36054v1.4608h-0.45379z"/><path d="m20.019 48.611h1.2806v-0.22068h-0.57501c-0.10257 0-0.22379 0.0093-0.33257 0.01865 0.46933-0.49109 0.80812-0.86096 0.80812-1.2339 0-0.35122-0.2269-0.58433-0.59366-0.58433-0.25798 0-0.43514 0.12122-0.59987 0.30149l0.14608 0.14608c0.115-0.13365 0.25798-0.23933 0.42271-0.23933 0.25176 0 0.37608 0.16162 0.37608 0.38852 0 0.32014-0.33568 0.67758-0.93244 1.2712z"/><path d="m21.794 48.079c0-0.18027 0.11811-0.32636 0.27662-0.43203 0.28595 0.115 0.53771 0.20825 0.53771 0.46311 0 0.20514-0.15852 0.34811-0.38852 0.34811-0.24244 0-0.42582-0.15852-0.42582-0.37919zm0.55947-0.55014c-0.23933-0.09324-0.4569-0.1927-0.4569-0.42892 0-0.1927 0.13676-0.32014 0.32014-0.32014 0.21757 0 0.345 0.15541 0.345 0.35122 0 0.14608-0.07459 0.27973-0.20824 0.39784zm-0.78947 0.57501c0 0.31392 0.27662 0.54392 0.6496 0.54392 0.38541 0 0.64028-0.23311 0.64028-0.52838 0-0.2673-0.16784-0.40717-0.345-0.50974v-0.01243c0.12122-0.09324 0.27352-0.27041 0.27352-0.47865 0-0.30771-0.21446-0.52838-0.55946-0.52838-0.32014 0-0.56257 0.20514-0.56257 0.50974 0 0.20825 0.13054 0.35433 0.27662 0.4569v0.01243c-0.18649 0.09946-0.37298 0.27662-0.37298 0.5346z"/><path d="m23.249 48.611h0.26108v-0.64649l0.34811-0.41338 0.6092 1.0599h0.28906l-0.73663-1.2619 0.64028-0.77704h-0.29527l-0.84852 1.0226h-0.0062v-1.0226h-0.26108z"/><path d="m25.033 48.611h0.65271c0.45379 0 0.77082-0.19581 0.77082-0.59676 0-0.27973-0.17406-0.44136-0.47244-0.48798v-0.01243c0.24244-0.06216 0.35744-0.24244 0.35744-0.44446 0-0.35744-0.28906-0.4973-0.70244-0.4973h-0.60609zm0.26108-1.1687v-0.66514h0.31392c0.31392 0 0.47865 0.09324 0.47865 0.31392 0 0.22689-0.14608 0.35122-0.49109 0.35122zm0 0.96352v-0.77082h0.35433c0.35744 0 0.55325 0.115 0.55325 0.36676 0 0.27662-0.20514 0.40406-0.55325 0.40406z"/><path d="m27.474 48.611h1.15v-0.22068h-0.88893v-1.8183h-0.26108z"/><path d="m28.942 48.611h1.1189v-0.21135h-0.41027v-1.7716h-0.19581c-0.10878 0.06527-0.23933 0.115-0.4196 0.14608v0.16473h0.36054v1.4608h-0.45379z"/><path d="m31.134 48.611h0.52217c0.61541 0 0.95109-0.37919 0.95109-1.0288 0-0.64649-0.33568-1.0101-0.96352-1.0101h-0.50974zm0.26108-0.21135v-1.6162h0.23c0.47865 0 0.71487 0.28595 0.71487 0.79879 0 0.51595-0.23622 0.81744-0.71487 0.81744z"/><path d="m32.944 48.219c0 0.27041 0.1896 0.42892 0.44446 0.42892 0.18649 0 0.35433-0.09946 0.50041-0.21757h0.0062l0.02176 0.18027h0.21135v-0.92623c0-0.37608-0.15541-0.62163-0.52528-0.62163-0.24244 0-0.45379 0.10568-0.59366 0.19581l0.10257 0.17716c0.11811-0.08081 0.27352-0.16162 0.45068-0.16162 0.24554 0 0.31082 0.18649 0.31082 0.37919-0.64339 0.07149-0.92934 0.23622-0.92934 0.56568zm0.25176-0.01865c0-0.1927 0.17095-0.31703 0.67758-0.37919v0.4196c-0.14608 0.13054-0.2673 0.20203-0.41338 0.20203-0.14919 0-0.26419-0.07149-0.26419-0.24244z"/><path d="m34.653 48.145c0 0.29838 0.10878 0.50352 0.43203 0.50352 0.09325 0 0.19581-0.02797 0.27973-0.05595l-0.04973-0.1927c-0.04973 0.01865-0.11811 0.04041-0.17095 0.04041-0.17406 0-0.23311-0.10568-0.23311-0.29217v-0.8392h0.40717v-0.20825h-0.40717v-0.42271h-0.21446l-0.03108 0.42271-0.23622 0.01554v0.1927h0.22379z"/><path d="m35.53 48.219c0 0.27041 0.1896 0.42892 0.44446 0.42892 0.18649 0 0.35433-0.09946 0.50041-0.21757h0.0062l0.02176 0.18027h0.21135v-0.92623c0-0.37608-0.15541-0.62163-0.52528-0.62163-0.24244 0-0.45379 0.10568-0.59366 0.19581l0.10257 0.17716c0.11811-0.08081 0.27352-0.16162 0.45068-0.16162 0.24554 0 0.31082 0.18649 0.31082 0.37919-0.64339 0.07149-0.92934 0.23622-0.92934 0.56568zm0.25176-0.01865c0-0.1927 0.17095-0.31703 0.67758-0.37919v0.4196c-0.14608 0.13054-0.2673 0.20203-0.41338 0.20203-0.14919 0-0.26419-0.07149-0.26419-0.24244z"/><path d="m37.718 47.591c0 0.66514 0.3823 1.0568 0.89514 1.0568 0.25798 0 0.46-0.10878 0.61852-0.29527l-0.14608-0.15852c-0.13054 0.14608-0.27352 0.2269-0.46622 0.2269-0.38852 0-0.63406-0.32325-0.63406-0.83609 0-0.50663 0.25798-0.82366 0.64649-0.82366 0.16784 0 0.29838 0.0746 0.40717 0.1896l0.14608-0.16473c-0.12122-0.13365-0.31392-0.25176-0.55636-0.25176-0.52217 0-0.91069 0.40095-0.91069 1.0568z"/><path d="m39.507 48.219c0 0.27041 0.1896 0.42892 0.44446 0.42892 0.18649 0 0.35433-0.09946 0.50041-0.21757h0.0062l0.02176 0.18027h0.21135v-0.92623c0-0.37608-0.15541-0.62163-0.52528-0.62163-0.24244 0-0.45379 0.10568-0.59366 0.19581l0.10257 0.17716c0.11811-0.08081 0.27352-0.16162 0.45068-0.16162 0.24554 0 0.31081 0.18649 0.31081 0.37919-0.64338 0.07149-0.92934 0.23622-0.92934 0.56568zm0.25176-0.01865c0-0.1927 0.17095-0.31703 0.67758-0.37919v0.4196c-0.14608 0.13054-0.2673 0.20203-0.41338 0.20203-0.14919 0-0.26419-0.07149-0.26419-0.24244z"/><path d="m41.06 47.859c0 0.50041 0.30771 0.78947 0.70866 0.78947 0.18027 0 0.35433-0.0746 0.49109-0.19581l-0.115-0.16784c-0.09014 0.08081-0.21135 0.1523-0.35433 0.1523-0.27662 0-0.46622-0.23311-0.46622-0.57811 0-0.34811 0.19892-0.58433 0.47244-0.58433 0.12122 0 0.21446 0.05595 0.3046 0.13365l0.12743-0.16473c-0.10257-0.09635-0.24244-0.18027-0.44136-0.18027-0.38852 0-0.7273 0.28906-0.7273 0.79568z"/><path d="m42.586 48.611h0.25487v-1.0941c0.1523-0.1523 0.25798-0.23311 0.41338-0.23311 0.19892 0 0.28595 0.12122 0.28595 0.40406v0.92312h0.25487v-0.95731c0-0.38541-0.14297-0.59055-0.46-0.59055-0.20824 0-0.36054 0.11189-0.50352 0.24865l0.0093-0.31081v-0.60298h-0.25487z"/><path d="m44.168 47.859c0 0.4942 0.32014 0.78947 0.7242 0.78947 0.20514 0 0.36676-0.07149 0.4973-0.15541l-0.09014-0.16784c-0.11189 0.07149-0.23311 0.11811-0.37609 0.11811-0.28906 0-0.48487-0.20514-0.50352-0.53149h1.0195c0.0062-0.0373 0.0093-0.08703 0.0093-0.13987 0-0.43203-0.21757-0.70866-0.60298-0.70866-0.345 0-0.67758 0.30149-0.67758 0.79568zm0.24865-0.115c0.03108-0.3046 0.22379-0.47865 0.43514-0.47865 0.23622 0 0.37298 0.17095 0.37298 0.47865z"/><path d="m46.223 49.108h0.1896l0.82677-2.7041h-0.18649z"/><path d="m48.028 48.347c0.17716 0.18338 0.42582 0.30149 0.71176 0.30149 0.42892 0 0.69622-0.25798 0.69622-0.58122 0-0.30149-0.18338-0.44136-0.4196-0.54392l-0.29217-0.12433c-0.15852-0.06838-0.33879-0.14298-0.33879-0.33879 0-0.18338 0.1523-0.29838 0.3823-0.29838 0.18649 0 0.33879 0.0746 0.46311 0.1927l0.13676-0.16784c-0.14298-0.14919-0.35744-0.25176-0.59987-0.25176-0.36987 0-0.64338 0.23-0.64338 0.54082 0 0.29838 0.22379 0.44446 0.41338 0.52528l0.29216 0.12743c0.1927 0.08703 0.3419 0.1523 0.3419 0.36054 0 0.19892-0.15852 0.33257-0.42582 0.33257-0.21446 0-0.41649-0.10257-0.56257-0.25487z"/><path d="m49.804 48.611h0.25487v-1.0941c0.1523-0.1523 0.25798-0.23311 0.41338-0.23311 0.19892 0 0.28595 0.12122 0.28595 0.40406v0.92312h0.25487v-0.95731c0-0.38541-0.14298-0.59055-0.46-0.59055-0.20825 0-0.36054 0.11189-0.50352 0.24865l0.0093-0.31081v-0.60298h-0.25484z"/><path d="m51.423 48.219c0 0.27041 0.1896 0.42892 0.44446 0.42892 0.18649 0 0.35433-0.09946 0.50041-0.21757h0.0062l0.02176 0.18027h0.21135v-0.92623c0-0.37608-0.15541-0.62163-0.52528-0.62163-0.24244 0-0.45379 0.10568-0.59366 0.19581l0.10257 0.17716c0.11811-0.08081 0.27352-0.16162 0.45068-0.16162 0.24554 0 0.31082 0.18649 0.31082 0.37919-0.64339 0.07149-0.92934 0.23622-0.92934 0.56568zm0.25176-0.01865c0-0.1927 0.17095-0.31703 0.67758-0.37919v0.4196c-0.14608 0.13054-0.2673 0.20203-0.41338 0.20203-0.14919 0-0.26419-0.07149-0.26419-0.24244z"/><path d="m53.088 48.611h0.25487v-0.96974c0.10257-0.25487 0.25487-0.34811 0.3823-0.34811 0.06216 0 0.09635 0.0093 0.14608 0.02486l0.04973-0.22379c-0.04973-0.02176-0.09635-0.03108-0.16162-0.03108-0.17095 0-0.32636 0.12122-0.42892 0.31082h-0.0093l-0.02176-0.27352h-0.21135z"/><path d="m54.027 47.859c0 0.4942 0.32014 0.78947 0.7242 0.78947 0.20514 0 0.36676-0.07149 0.4973-0.15541l-0.09014-0.16784c-0.11189 0.07149-0.23311 0.11811-0.37608 0.11811-0.28906 0-0.48487-0.20514-0.50352-0.53149h1.0195c0.0062-0.0373 0.0093-0.08703 0.0093-0.13987 0-0.43203-0.21757-0.70866-0.60298-0.70866-0.345 0-0.67758 0.30149-0.67758 0.79568zm0.24865-0.115c0.03108-0.3046 0.22379-0.47865 0.43514-0.47865 0.23622 0 0.37298 0.17095 0.37298 0.47865z"/><path d="m55.572 47.859c0 0.50352 0.24554 0.78947 0.62474 0.78947 0.17716 0 0.33879-0.09946 0.4569-0.21446h0.0093l0.02176 0.17716h0.21135v-2.213h-0.25795v0.58122l0.01243 0.25798c-0.13365-0.10878-0.24865-0.17406-0.42271-0.17406-0.345 0-0.65582 0.3046-0.65582 0.79568zm0.26419-0.0031c0-0.345 0.1927-0.57812 0.43514-0.57812 0.12433 0 0.23933 0.04351 0.36676 0.15852v0.78947c-0.12433 0.13987-0.24554 0.20824-0.38541 0.20824-0.26419 0-0.41649-0.21757-0.41649-0.57811z"/><path d="m58.045 48.611h0.23933v-1.122c0-0.18027-0.01865-0.42271-0.03108-0.60298h0.01243l0.16162 0.45379 0.39163 1.0661h0.14919l0.39163-1.0661 0.16162-0.45379h0.01243c-0.01243 0.18027-0.03419 0.42271-0.03419 0.60298v1.122h0.24554v-2.0389h-0.3046l-0.39163 1.0941-0.14298 0.41649h-0.01243l-0.14608-0.41649-0.39473-1.0941h-0.30771z"/><path d="m60.164 47.859c0 0.4942 0.32014 0.78947 0.7242 0.78947 0.20514 0 0.36676-0.07149 0.4973-0.15541l-0.09014-0.16784c-0.11189 0.07149-0.23311 0.11811-0.37609 0.11811-0.28906 0-0.48487-0.20514-0.50352-0.53149h1.0195c0.0062-0.0373 0.0093-0.08703 0.0093-0.13987 0-0.43203-0.21757-0.70866-0.60298-0.70866-0.345 0-0.67758 0.30149-0.67758 0.79568zm0.24865-0.115c0.03108-0.3046 0.22379-0.47865 0.43514-0.47865 0.23622 0 0.37298 0.17095 0.37298 0.47865z"/><path d="m61.818 48.611h0.25487v-1.0941c0.13987-0.15541 0.2673-0.23311 0.37919-0.23311 0.1927 0 0.28284 0.12122 0.28284 0.40406v0.92312h0.25487v-1.0941c0.13987-0.15541 0.26108-0.23311 0.37919-0.23311 0.1896 0 0.27973 0.12122 0.27973 0.40406v0.92312h0.25487v-0.95731c0-0.38541-0.14919-0.59055-0.46-0.59055-0.18338 0-0.33879 0.11811-0.4973 0.28906-0.06216-0.18027-0.18649-0.28906-0.41649-0.28906-0.18027 0-0.33879 0.11189-0.46933 0.25487h-0.0093l-0.02176-0.21757h-0.21135z"/><path d="m64.28 47.859c0 0.50041 0.32946 0.78947 0.69933 0.78947s0.69933-0.28906 0.69933-0.78947c0-0.50663-0.32946-0.79568-0.69933-0.79568s-0.69933 0.28906-0.69933 0.79568zm0.26419 0c0-0.34811 0.17716-0.58433 0.43514-0.58433 0.26108 0 0.43514 0.23622 0.43514 0.58433 0 0.345-0.17406 0.57811-0.43514 0.57811-0.25798 0-0.43514-0.23311-0.43514-0.57811z"/><path d="m66.079 48.611h0.25487v-0.96974c0.10257-0.25487 0.25487-0.34811 0.3823-0.34811 0.06216 0 0.09635 0.0093 0.14608 0.02486l0.04973-0.22379c-0.04973-0.02176-0.09635-0.03108-0.16162-0.03108-0.17095 0-0.32636 0.12122-0.42892 0.31082h-0.0093l-0.02176-0.27352h-0.21135z"/><path d="m67.118 49.027-0.04973 0.20203c0.04973 0.01865 0.10878 0.03108 0.17716 0.03108 0.3046 0 0.46-0.22689 0.56568-0.52528l0.56879-1.6349h-0.24865l-0.27041 0.83609c-0.04041 0.13365-0.08392 0.28906-0.12743 0.42582h-0.01243c-0.04662-0.13987-0.09946-0.29527-0.14608-0.42582l-0.30771-0.83609h-0.26419l0.60609 1.5137-0.03419 0.11189c-0.06216 0.18649-0.17095 0.32325-0.3419 0.32325-0.0373 0-0.08392-0.01243-0.115-0.02176z"/></g><path d="m0.12951 51.46h42.478v4.7968h-42.478z" fill="#1d232d" stroke="#009244"/><g fill="#e8eaec" aria-label="Tex"><path d="m20.15 54.827h0.25798v-1.8214h0.61852v-0.21757h-1.495v0.21757h0.61852z"/><path d="m21.042 54.075c0 0.4942 0.32014 0.78947 0.7242 0.78947 0.20514 0 0.36676-0.07149 0.4973-0.15541l-0.09014-0.16784c-0.11189 0.07149-0.23311 0.11811-0.37609 0.11811-0.28906 0-0.48487-0.20514-0.50352-0.53149h1.0195c0.0062-0.0373 0.0093-0.08703 0.0093-0.13987 0-0.43203-0.21757-0.70866-0.60298-0.70866-0.345 0-0.67758 0.30149-0.67758 0.79568zm0.24865-0.115c0.03108-0.3046 0.22379-0.47865 0.43514-0.47865 0.23622 0 0.37298 0.17095 0.37298 0.47865z"/><path d="m22.46 54.827h0.2673l0.20514-0.35122c0.04973-0.09324 0.09946-0.18338 0.1523-0.27041h0.01243c0.05595 0.08703 0.11189 0.18027 0.16473 0.27041l0.22068 0.35122h0.27662l-0.49109-0.76149 0.4569-0.74906h-0.2673l-0.18338 0.33257c-0.04662 0.08081-0.09324 0.16784-0.13676 0.25176h-0.01243c-0.05284-0.08392-0.10257-0.17095-0.14919-0.25176l-0.20203-0.33257h-0.27662l0.4569 0.72109z"/></g><path d="m0.12951 57.676h86.769v12.049h-86.769z" fill="#1d232d" stroke="#e9e56f"/><g fill="#e8eaec" aria-label="RT Core 2nd Generation"><path d="m28.545 62.58h0.3419c0.31703 0 0.49109 0.09635 0.49109 0.36365 0 0.26419-0.17406 0.39473-0.49109 0.39473h-0.3419zm1.1531 1.8307-0.51906-0.88893c0.27662-0.07149 0.4569-0.26108 0.4569-0.57811 0-0.42271-0.29838-0.5719-0.71176-0.5719h-0.64028v2.0389h0.26108v-0.86096h0.36676l0.49109 0.86096z"/><path d="m30.44 64.41h0.25798v-1.8214h0.61852v-0.21757h-1.495v0.21757h0.61852z"/><path d="m32.173 63.391c0 0.66514 0.3823 1.0568 0.89514 1.0568 0.25798 0 0.46-0.10878 0.61852-0.29527l-0.14608-0.15852c-0.13054 0.14608-0.27352 0.22689-0.46622 0.22689-0.38852 0-0.63406-0.32325-0.63406-0.83609 0-0.50663 0.25798-0.82366 0.64649-0.82366 0.16784 0 0.29838 0.0746 0.40717 0.1896l0.14608-0.16473c-0.12122-0.13365-0.31392-0.25176-0.55636-0.25176-0.52217 0-0.91068 0.40095-0.91068 1.0568z"/><path d="m33.924 63.658c0 0.50041 0.32946 0.78947 0.69933 0.78947s0.69933-0.28906 0.69933-0.78947c0-0.50663-0.32946-0.79568-0.69933-0.79568s-0.69933 0.28906-0.69933 0.79568zm0.26419 0c0-0.34811 0.17716-0.58433 0.43514-0.58433 0.26108 0 0.43514 0.23622 0.43514 0.58433 0 0.345-0.17406 0.57811-0.43514 0.57811-0.25798 0-0.43514-0.23311-0.43514-0.57811z"/><path d="m35.723 64.41h0.25487v-0.96974c0.10257-0.25487 0.25487-0.34811 0.3823-0.34811 0.06216 0 0.09635 0.0093 0.14608 0.02486l0.04973-0.22379c-0.04973-0.02176-0.09635-0.03108-0.16162-0.03108-0.17095 0-0.32636 0.12122-0.42892 0.31082h-0.0093l-0.02176-0.27352h-0.21135z"/><path d="m36.662 63.658c0 0.49419 0.32014 0.78947 0.7242 0.78947 0.20514 0 0.36676-0.07149 0.4973-0.15541l-0.09014-0.16784c-0.11189 0.07149-0.23311 0.11811-0.37608 0.11811-0.28906 0-0.48487-0.20514-0.50352-0.53149h1.0195c0.0062-0.0373 0.0093-0.08703 0.0093-0.13987 0-0.43203-0.21757-0.70866-0.60298-0.70866-0.345 0-0.67758 0.30149-0.67758 0.79568zm0.24865-0.115c0.03108-0.3046 0.22379-0.47865 0.43514-0.47865 0.23622 0 0.37298 0.17095 0.37298 0.47865z"/><path d="m38.81 64.41h1.2806v-0.22068h-0.57501c-0.10257 0-0.22379 0.0093-0.33257 0.01865 0.46933-0.49109 0.80812-0.86096 0.80812-1.2339 0-0.35122-0.2269-0.58433-0.59366-0.58433-0.25798 0-0.43514 0.12122-0.59987 0.30149l0.14608 0.14608c0.115-0.13365 0.25798-0.23933 0.42271-0.23933 0.25176 0 0.37608 0.16162 0.37608 0.38852 0 0.32014-0.33568 0.67758-0.93244 1.2712z"/><path d="m40.483 64.41h0.25487v-1.0941c0.1523-0.1523 0.25798-0.23311 0.41338-0.23311 0.19892 0 0.28595 0.12122 0.28595 0.40406v0.92312h0.25487v-0.95731c0-0.38541-0.14297-0.59055-0.46-0.59055-0.20824 0-0.36365 0.11189-0.50663 0.25487h-0.0093l-0.02176-0.21757h-0.21135z"/><path d="m42.074 63.658c0 0.50352 0.24554 0.78947 0.62474 0.78947 0.17716 0 0.33879-0.09946 0.4569-0.21446h0.0093l0.02176 0.17716h0.21135v-2.213h-0.25798v0.58122l0.01243 0.25798c-0.13365-0.10878-0.24865-0.17406-0.42271-0.17406-0.345 0-0.65582 0.3046-0.65582 0.79568zm0.26419-0.0031c0-0.345 0.1927-0.57812 0.43514-0.57812 0.12433 0 0.23933 0.04351 0.36676 0.15852v0.78947c-0.12433 0.13987-0.24554 0.20824-0.38541 0.20824-0.26419 0-0.41649-0.21757-0.41649-0.57811z"/><path d="m44.429 63.391c0 0.66514 0.3823 1.0568 0.9169 1.0568 0.27352 0 0.50041-0.10568 0.63406-0.23622v-0.85785h-0.66825v0.21446h0.43203v0.53149c-0.08081 0.0746-0.22379 0.12122-0.36987 0.12122-0.43514 0-0.67758-0.32325-0.67758-0.83609 0-0.50663 0.26419-0.82366 0.67758-0.82366 0.20203 0 0.32946 0.08081 0.43203 0.1896l0.14919-0.16473c-0.12122-0.12433-0.30771-0.25176-0.58433-0.25176-0.54703 0-0.94177 0.40095-0.94177 1.0568z"/><path d="m46.32 63.658c0 0.49419 0.32014 0.78947 0.7242 0.78947 0.20514 0 0.36676-0.07149 0.4973-0.15541l-0.09014-0.16784c-0.11189 0.07149-0.23311 0.11811-0.37608 0.11811-0.28906 0-0.48487-0.20514-0.50352-0.53149h1.0195c0.0062-0.0373 0.0093-0.08703 0.0093-0.13987 0-0.43203-0.21757-0.70866-0.60298-0.70866-0.345 0-0.67758 0.30149-0.67758 0.79568zm0.24865-0.115c0.03108-0.3046 0.22379-0.47865 0.43514-0.47865 0.23622 0 0.37298 0.17095 0.37298 0.47865z"/><path d="m47.974 64.41h0.25487v-1.0941c0.1523-0.1523 0.25798-0.23311 0.41338-0.23311 0.19892 0 0.28595 0.12122 0.28595 0.40406v0.92312h0.25487v-0.95731c0-0.38541-0.14297-0.59055-0.46-0.59055-0.20824 0-0.36365 0.11189-0.50663 0.25487h-0.0093l-0.02176-0.21757h-0.21135z"/><path d="m49.562 63.658c0 0.49419 0.32014 0.78947 0.7242 0.78947 0.20514 0 0.36676-0.07149 0.4973-0.15541l-0.09014-0.16784c-0.11189 0.07149-0.23311 0.11811-0.37609 0.11811-0.28906 0-0.48487-0.20514-0.50352-0.53149h1.0195c0.0062-0.0373 0.0093-0.08703 0.0093-0.13987 0-0.43203-0.21757-0.70866-0.60298-0.70866-0.345 0-0.67758 0.30149-0.67758 0.79568zm0.24865-0.115c0.03108-0.3046 0.22379-0.47865 0.43514-0.47865 0.23622 0 0.37298 0.17095 0.37298 0.47865z"/><path d="m51.215 64.41h0.25487v-0.96974c0.10257-0.25487 0.25487-0.34811 0.3823-0.34811 0.06216 0 0.09635 0.0093 0.14608 0.02486l0.04973-0.22379c-0.04973-0.02176-0.09635-0.03108-0.16162-0.03108-0.17095 0-0.32636 0.12122-0.42892 0.31082h-0.0093l-0.02176-0.27352h-0.21135z"/><path d="m52.143 64.019c0 0.27041 0.1896 0.42892 0.44446 0.42892 0.18649 0 0.35433-0.09946 0.50041-0.21757h0.0062l0.02176 0.18027h0.21135v-0.92623c0-0.37608-0.15541-0.62163-0.52528-0.62163-0.24244 0-0.45379 0.10568-0.59366 0.19581l0.10257 0.17716c0.11811-0.08081 0.27352-0.16162 0.45068-0.16162 0.24554 0 0.31081 0.18649 0.31081 0.37919-0.64338 0.07149-0.92933 0.23622-0.92933 0.56568zm0.25176-0.01865c0-0.1927 0.17095-0.31703 0.67758-0.37919v0.4196c-0.14608 0.13054-0.2673 0.20203-0.41338 0.20203-0.14919 0-0.26419-0.07149-0.26419-0.24244z"/><path d="m53.851 63.944c0 0.29838 0.10878 0.50352 0.43203 0.50352 0.09324 0 0.19581-0.02797 0.27973-0.05595l-0.04973-0.1927c-0.04973 0.01865-0.11811 0.04041-0.17095 0.04041-0.17406 0-0.23311-0.10568-0.23311-0.29216v-0.8392h0.40717v-0.20825h-0.40717v-0.42271h-0.21446l-0.03108 0.42271-0.23622 0.01554v0.1927h0.22379z"/><path d="m54.988 62.589c0.09946 0 0.17716-0.06838 0.17716-0.16473 0-0.09946-0.0777-0.16473-0.17716-0.16473-0.09946 0-0.17716 0.06527-0.17716 0.16473 0 0.09635 0.0777 0.16473 0.17716 0.16473zm-0.13054 1.8214h0.25487v-1.5106h-0.25487z"/><path d="m55.511 63.658c0 0.50041 0.32946 0.78947 0.69933 0.78947s0.69933-0.28906 0.69933-0.78947c0-0.50663-0.32946-0.79568-0.69933-0.79568s-0.69933 0.28906-0.69933 0.79568zm0.26419 0c0-0.34811 0.17716-0.58433 0.43514-0.58433 0.26108 0 0.43514 0.23622 0.43514 0.58433 0 0.345-0.17406 0.57811-0.43514 0.57811-0.25798 0-0.43514-0.23311-0.43514-0.57811z"/><path d="m57.31 64.41h0.25487v-1.0941c0.1523-0.1523 0.25798-0.23311 0.41338-0.23311 0.19892 0 0.28595 0.12122 0.28595 0.40406v0.92312h0.25487v-0.95731c0-0.38541-0.14298-0.59055-0.46-0.59055-0.20825 0-0.36365 0.11189-0.50663 0.25487h-0.0093l-0.02176-0.21757h-0.21135z"/></g><path d="m44.421 51.46h42.478v4.7968h-42.478z" fill="#1d232d" stroke="#009244"/><g fill="#e8eaec" aria-label="Tex"><path d="m63.664 54.827h0.25798v-1.8214h0.61852v-0.21757h-1.495v0.21757h0.61852z"/><path d="m64.556 54.075c0 0.4942 0.32014 0.78947 0.7242 0.78947 0.20514 0 0.36676-0.07149 0.4973-0.15541l-0.09014-0.16784c-0.11189 0.07149-0.23311 0.11811-0.37609 0.11811-0.28906 0-0.48487-0.20514-0.50352-0.53149h1.0195c0.0062-0.0373 0.0093-0.08703 0.0093-0.13987 0-0.43203-0.21757-0.70866-0.60298-0.70866-0.345 0-0.67758 0.30149-0.67758 0.79568zm0.24865-0.115c0.03108-0.3046 0.22379-0.47865 0.43514-0.47865 0.23622 0 0.37298 0.17095 0.37298 0.47865z"/><path d="m65.974 54.827h0.2673l0.20514-0.35122c0.04973-0.09324 0.09946-0.18338 0.1523-0.27041h0.01243c0.05595 0.08703 0.11189 0.18027 0.16473 0.27041l0.22068 0.35122h0.27662l-0.49109-0.76149 0.4569-0.74906h-0.2673l-0.18338 0.33257c-0.04662 0.08081-0.09324 0.16784-0.13676 0.25176h-0.01243c-0.05284-0.08392-0.10257-0.17095-0.14919-0.25176l-0.20203-0.33257h-0.27662l0.4569 0.72109z"/></g><path d="m34.319 20.378h8.5474v6.3509h-8.5474z" fill="#1d232d" stroke="#e9e56f"/><g fill="#e8eaec" aria-label="FP32"><path d="m35.531 24.782h0.26108v-0.91379h0.77704v-0.21757h-0.77704v-0.69001h0.9169v-0.21757h-1.178z"/><path d="m37.049 24.782h0.26108v-0.80812h0.36676c0.44446 0 0.75217-0.20203 0.75217-0.63095 0-0.44757-0.30149-0.59987-0.75217-0.59987h-0.62784zm0.26108-1.0195v-0.81122h0.33257c0.35122 0 0.52838 0.09635 0.52838 0.39163 0 0.28906-0.17095 0.4196-0.52838 0.4196z"/><path d="m38.632 24.539c0.13365 0.14608 0.33568 0.27973 0.65271 0.27973 0.36365 0 0.65271-0.21446 0.65271-0.56568 0-0.27352-0.1896-0.44757-0.42892-0.50352v-0.01243c0.21446-0.08081 0.36054-0.23311 0.36054-0.47244 0-0.32014-0.24865-0.50352-0.59366-0.50352-0.23311 0-0.41649 0.10568-0.56879 0.24865l0.13676 0.16162c0.11811-0.11811 0.25798-0.20203 0.42271-0.20203 0.21135 0 0.3419 0.12122 0.3419 0.31392 0 0.20825-0.13987 0.36987-0.56257 0.36987v0.19581c0.47244 0 0.63406 0.15852 0.63406 0.39473 0 0.22068-0.17095 0.36365-0.41028 0.36365-0.23311 0-0.38852-0.11189-0.50663-0.23622z"/><path d="m40.217 24.782h1.2806v-0.22068h-0.57501c-0.10257 0-0.22379 0.0093-0.33257 0.01865 0.46933-0.49109 0.80812-0.86096 0.80812-1.2339 0-0.35122-0.22689-0.58433-0.59366-0.58433-0.25798 0-0.43514 0.12122-0.59987 0.30149l0.14608 0.14608c0.115-0.13365 0.25798-0.23933 0.42271-0.23933 0.25176 0 0.37608 0.16162 0.37608 0.38852 0 0.32014-0.33568 0.67758-0.93244 1.2712z"/></g><path d="m44.421 20.378h8.5474v6.3509h-8.5474z" fill="#1d232d" stroke="#e9e56f"/><g fill="#e8eaec" aria-label="FP32"><path d="m45.632 24.782h0.26108v-0.91379h0.77704v-0.21757h-0.77704v-0.69001h0.9169v-0.21757h-1.178z"/><path d="m47.15 24.782h0.26108v-0.80812h0.36676c0.44446 0 0.75217-0.20203 0.75217-0.63095 0-0.44757-0.30149-0.59987-0.75217-0.59987h-0.62784zm0.26108-1.0195v-0.81122h0.33257c0.35122 0 0.52838 0.09635 0.52838 0.39163 0 0.28906-0.17095 0.4196-0.52838 0.4196z"/><path d="m48.733 24.539c0.13365 0.14608 0.33568 0.27973 0.65271 0.27973 0.36365 0 0.65271-0.21446 0.65271-0.56568 0-0.27352-0.1896-0.44757-0.42892-0.50352v-0.01243c0.21446-0.08081 0.36054-0.23311 0.36054-0.47244 0-0.32014-0.24865-0.50352-0.59366-0.50352-0.23311 0-0.41649 0.10568-0.56879 0.24865l0.13676 0.16162c0.11811-0.11811 0.25798-0.20203 0.42271-0.20203 0.21135 0 0.3419 0.12122 0.3419 0.31392 0 0.20825-0.13987 0.36987-0.56257 0.36987v0.19581c0.47244 0 0.63406 0.15852 0.63406 0.39473 0 0.22068-0.17095 0.36365-0.41027 0.36365-0.23311 0-0.38852-0.11189-0.50663-0.23622z"/><path d="m50.318 24.782h1.2806v-0.22068h-0.57501c-0.10257 0-0.22379 0.0093-0.33257 0.01865 0.46933-0.49109 0.80812-0.86096 0.80812-1.2339 0-0.35122-0.2269-0.58433-0.59366-0.58433-0.25798 0-0.43514 0.12122-0.59987 0.30149l0.14608 0.14608c0.115-0.13365 0.25798-0.23933 0.42271-0.23933 0.25176 0 0.37608 0.16162 0.37608 0.38852 0 0.32014-0.33568 0.67758-0.93244 1.2712z"/></g><path d="m54.522 20.378h8.5474v6.3509h-8.5474z" fill="#1d232d" stroke="#e9e56f"/><g fill="#e8eaec" aria-label="FP32"><path d="m55.734 24.782h0.26108v-0.91379h0.77704v-0.21757h-0.77704v-0.69001h0.9169v-0.21757h-1.178z"/><path d="m57.252 24.782h0.26108v-0.80812h0.36676c0.44446 0 0.75217-0.20203 0.75217-0.63095 0-0.44757-0.30149-0.59987-0.75217-0.59987h-0.62784zm0.26108-1.0195v-0.81122h0.33257c0.35122 0 0.52838 0.09635 0.52838 0.39163 0 0.28906-0.17095 0.4196-0.52838 0.4196z"/><path d="m58.835 24.539c0.13365 0.14608 0.33568 0.27973 0.65271 0.27973 0.36365 0 0.65271-0.21446 0.65271-0.56568 0-0.27352-0.1896-0.44757-0.42892-0.50352v-0.01243c0.21446-0.08081 0.36054-0.23311 0.36054-0.47244 0-0.32014-0.24865-0.50352-0.59366-0.50352-0.23311 0-0.41649 0.10568-0.56879 0.24865l0.13676 0.16162c0.11811-0.11811 0.25798-0.20203 0.42271-0.20203 0.21135 0 0.3419 0.12122 0.3419 0.31392 0 0.20825-0.13987 0.36987-0.56257 0.36987v0.19581c0.47244 0 0.63406 0.15852 0.63406 0.39473 0 0.22068-0.17095 0.36365-0.41028 0.36365-0.23311 0-0.38852-0.11189-0.50663-0.23622z"/><path d="m60.42 24.782h1.2806v-0.22068h-0.57501c-0.10257 0-0.22379 0.0093-0.33257 0.01865 0.46933-0.49109 0.80812-0.86096 0.80812-1.2339 0-0.35122-0.2269-0.58433-0.59366-0.58433-0.25798 0-0.43514 0.12122-0.59987 0.30149l0.14608 0.14608c0.115-0.13365 0.25798-0.23933 0.42271-0.23933 0.25176 0 0.37608 0.16162 0.37608 0.38852 0 0.32014-0.33568 0.67758-0.93244 1.2712z"/></g><path d="m54.522 27.89h8.5474v6.3509h-8.5474z" fill="#1d232d" stroke="#e9e56f"/><g fill="#e8eaec" aria-label="FP32"><path d="m55.734 32.293h0.26108v-0.91379h0.77704v-0.21757h-0.77704v-0.69001h0.9169v-0.21757h-1.178z"/><path d="m57.252 32.293h0.26108v-0.80812h0.36676c0.44446 0 0.75217-0.20203 0.75217-0.63095 0-0.44757-0.30149-0.59987-0.75217-0.59987h-0.62784zm0.26108-1.0195v-0.81122h0.33257c0.35122 0 0.52838 0.09635 0.52838 0.39163 0 0.28906-0.17095 0.4196-0.52838 0.4196z"/><path d="m58.835 32.051c0.13365 0.14608 0.33568 0.27973 0.65271 0.27973 0.36365 0 0.65271-0.21446 0.65271-0.56568 0-0.27352-0.1896-0.44757-0.42892-0.50352v-0.01243c0.21446-0.08081 0.36054-0.23311 0.36054-0.47244 0-0.32014-0.24865-0.50352-0.59366-0.50352-0.23311 0-0.41649 0.10568-0.56879 0.24865l0.13676 0.16162c0.11811-0.11811 0.25798-0.20203 0.42271-0.20203 0.21135 0 0.3419 0.12122 0.3419 0.31392 0 0.20825-0.13987 0.36987-0.56257 0.36987v0.19581c0.47244 0 0.63406 0.15852 0.63406 0.39473 0 0.22068-0.17095 0.36365-0.41028 0.36365-0.23311 0-0.38852-0.11189-0.50663-0.23622z"/><path d="m60.42 32.293h1.2806v-0.22068h-0.57501c-0.10257 0-0.22379 0.0093-0.33257 0.01865 0.46933-0.49109 0.80812-0.86096 0.80812-1.2339 0-0.35122-0.2269-0.58433-0.59366-0.58433-0.25798 0-0.43514 0.12122-0.59987 0.30149l0.14608 0.14608c0.115-0.13365 0.25798-0.23933 0.42271-0.23933 0.25176 0 0.37608 0.16162 0.37608 0.38852 0 0.32014-0.33568 0.67758-0.93244 1.2712z"/></g><path d="m44.421 27.89h8.5474v6.3509h-8.5474z" fill="#1d232d" stroke="#e9e56f"/><g fill="#e8eaec" aria-label="FP32"><path d="m45.632 32.293h0.26108v-0.91379h0.77704v-0.21757h-0.77704v-0.69001h0.9169v-0.21757h-1.178z"/><path d="m47.15 32.293h0.26108v-0.80812h0.36676c0.44446 0 0.75217-0.20203 0.75217-0.63095 0-0.44757-0.30149-0.59987-0.75217-0.59987h-0.62784zm0.26108-1.0195v-0.81122h0.33257c0.35122 0 0.52838 0.09635 0.52838 0.39163 0 0.28906-0.17095 0.4196-0.52838 0.4196z"/><path d="m48.733 32.051c0.13365 0.14608 0.33568 0.27973 0.65271 0.27973 0.36365 0 0.65271-0.21446 0.65271-0.56568 0-0.27352-0.1896-0.44757-0.42892-0.50352v-0.01243c0.21446-0.08081 0.36054-0.23311 0.36054-0.47244 0-0.32014-0.24865-0.50352-0.59366-0.50352-0.23311 0-0.41649 0.10568-0.56879 0.24865l0.13676 0.16162c0.11811-0.11811 0.25798-0.20203 0.42271-0.20203 0.21135 0 0.3419 0.12122 0.3419 0.31392 0 0.20825-0.13987 0.36987-0.56257 0.36987v0.19581c0.47244 0 0.63406 0.15852 0.63406 0.39473 0 0.22068-0.17095 0.36365-0.41027 0.36365-0.23311 0-0.38852-0.11189-0.50663-0.23622z"/><path d="m50.318 32.293h1.2806v-0.22068h-0.57501c-0.10257 0-0.22379 0.0093-0.33257 0.01865 0.46933-0.49109 0.80812-0.86096 0.80812-1.2339 0-0.35122-0.2269-0.58433-0.59366-0.58433-0.25798 0-0.43514 0.12122-0.59987 0.30149l0.14608 0.14608c0.115-0.13365 0.25798-0.23933 0.42271-0.23933 0.25176 0 0.37608 0.16162 0.37608 0.38852 0 0.32014-0.33568 0.67758-0.93244 1.2712z"/></g><path d="m34.319 27.89h8.5474v6.3509h-8.5474z" fill="#1d232d" stroke="#e9e56f"/><g fill="#e8eaec" aria-label="FP32"><path d="m35.531 32.293h0.26108v-0.91379h0.77704v-0.21757h-0.77704v-0.69001h0.9169v-0.21757h-1.178z"/><path d="m37.049 32.293h0.26108v-0.80812h0.36676c0.44446 0 0.75217-0.20203 0.75217-0.63095 0-0.44757-0.30149-0.59987-0.75217-0.59987h-0.62784zm0.26108-1.0195v-0.81122h0.33257c0.35122 0 0.52838 0.09635 0.52838 0.39163 0 0.28906-0.17095 0.4196-0.52838 0.4196z"/><path d="m38.632 32.051c0.13365 0.14608 0.33568 0.27973 0.65271 0.27973 0.36365 0 0.65271-0.21446 0.65271-0.56568 0-0.27352-0.1896-0.44757-0.42892-0.50352v-0.01243c0.21446-0.08081 0.36054-0.23311 0.36054-0.47244 0-0.32014-0.24865-0.50352-0.59366-0.50352-0.23311 0-0.41649 0.10568-0.56879 0.24865l0.13676 0.16162c0.11811-0.11811 0.25798-0.20203 0.42271-0.20203 0.21135 0 0.3419 0.12122 0.3419 0.31392 0 0.20825-0.13987 0.36987-0.56257 0.36987v0.19581c0.47244 0 0.63406 0.15852 0.63406 0.39473 0 0.22068-0.17095 0.36365-0.41028 0.36365-0.23311 0-0.38852-0.11189-0.50663-0.23622z"/><path d="m40.217 32.293h1.2806v-0.22068h-0.57501c-0.10257 0-0.22379 0.0093-0.33257 0.01865 0.46933-0.49109 0.80812-0.86096 0.80812-1.2339 0-0.35122-0.22689-0.58433-0.59366-0.58433-0.25798 0-0.43514 0.12122-0.59987 0.30149l0.14608 0.14608c0.115-0.13365 0.25798-0.23933 0.42271-0.23933 0.25176 0 0.37608 0.16162 0.37608 0.38852 0 0.32014-0.33568 0.67758-0.93244 1.2712z"/></g><path d="m34.319 35.401h8.5474v6.3509h-8.5474z" fill="#1d232d" stroke="#e9e56f"/><g fill="#e8eaec" aria-label="FP32"><path d="m35.531 39.804h0.26108v-0.91379h0.77704v-0.21757h-0.77704v-0.69001h0.9169v-0.21757h-1.178z"/><path d="m37.049 39.804h0.26108v-0.80812h0.36676c0.44446 0 0.75217-0.20203 0.75217-0.63095 0-0.44757-0.30149-0.59987-0.75217-0.59987h-0.62784zm0.26108-1.0195v-0.81122h0.33257c0.35122 0 0.52838 0.09635 0.52838 0.39163 0 0.28906-0.17095 0.4196-0.52838 0.4196z"/><path d="m38.632 39.562c0.13365 0.14608 0.33568 0.27973 0.65271 0.27973 0.36365 0 0.65271-0.21446 0.65271-0.56568 0-0.27352-0.1896-0.44757-0.42892-0.50352v-0.01243c0.21446-0.08081 0.36054-0.23311 0.36054-0.47244 0-0.32014-0.24865-0.50352-0.59366-0.50352-0.23311 0-0.41649 0.10568-0.56879 0.24865l0.13676 0.16162c0.11811-0.11811 0.25798-0.20203 0.42271-0.20203 0.21135 0 0.3419 0.12122 0.3419 0.31392 0 0.20825-0.13987 0.36987-0.56257 0.36987v0.19581c0.47244 0 0.63406 0.15852 0.63406 0.39473 0 0.22068-0.17095 0.36365-0.41028 0.36365-0.23311 0-0.38852-0.11189-0.50663-0.23622z"/><path d="m40.217 39.804h1.2806v-0.22068h-0.57501c-0.10257 0-0.22379 0.0093-0.33257 0.01865 0.46933-0.49109 0.80812-0.86096 0.80812-1.2339 0-0.35122-0.22689-0.58433-0.59366-0.58433-0.25798 0-0.43514 0.12122-0.59987 0.30149l0.14608 0.14608c0.115-0.13365 0.25798-0.23933 0.42271-0.23933 0.25176 0 0.37608 0.16162 0.37608 0.38852 0 0.32014-0.33568 0.67758-0.93244 1.2712z"/></g><path d="m44.421 35.401h8.5474v6.3509h-8.5474z" fill="#1d232d" stroke="#e9e56f"/><g fill="#e8eaec" aria-label="FP32"><path d="m45.632 39.804h0.26108v-0.91379h0.77704v-0.21757h-0.77704v-0.69001h0.9169v-0.21757h-1.178z"/><path d="m47.15 39.804h0.26108v-0.80812h0.36676c0.44446 0 0.75217-0.20203 0.75217-0.63095 0-0.44757-0.30149-0.59987-0.75217-0.59987h-0.62784zm0.26108-1.0195v-0.81122h0.33257c0.35122 0 0.52838 0.09635 0.52838 0.39163 0 0.28906-0.17095 0.4196-0.52838 0.4196z"/><path d="m48.733 39.562c0.13365 0.14608 0.33568 0.27973 0.65271 0.27973 0.36365 0 0.65271-0.21446 0.65271-0.56568 0-0.27352-0.1896-0.44757-0.42892-0.50352v-0.01243c0.21446-0.08081 0.36054-0.23311 0.36054-0.47244 0-0.32014-0.24865-0.50352-0.59366-0.50352-0.23311 0-0.41649 0.10568-0.56879 0.24865l0.13676 0.16162c0.11811-0.11811 0.25798-0.20203 0.42271-0.20203 0.21135 0 0.3419 0.12122 0.3419 0.31392 0 0.20825-0.13987 0.36987-0.56257 0.36987v0.19581c0.47244 0 0.63406 0.15852 0.63406 0.39473 0 0.22068-0.17095 0.36365-0.41027 0.36365-0.23311 0-0.38852-0.11189-0.50663-0.23622z"/><path d="m50.318 39.804h1.2806v-0.22068h-0.57501c-0.10257 0-0.22379 0.0093-0.33257 0.01865 0.46933-0.49109 0.80812-0.86096 0.80812-1.2339 0-0.35122-0.2269-0.58433-0.59366-0.58433-0.25798 0-0.43514 0.12122-0.59987 0.30149l0.14608 0.14608c0.115-0.13365 0.25798-0.23933 0.42271-0.23933 0.25176 0 0.37608 0.16162 0.37608 0.38852 0 0.32014-0.33568 0.67758-0.93244 1.2712z"/></g><path d="m54.522 35.401h8.5474v6.3509h-8.5474z" fill="#1d232d" stroke="#e9e56f"/><g fill="#e8eaec" aria-label="FP32"><path d="m55.734 39.804h0.26108v-0.91379h0.77704v-0.21757h-0.77704v-0.69001h0.9169v-0.21757h-1.178z"/><path d="m57.252 39.804h0.26108v-0.80812h0.36676c0.44446 0 0.75217-0.20203 0.75217-0.63095 0-0.44757-0.30149-0.59987-0.75217-0.59987h-0.62784zm0.26108-1.0195v-0.81122h0.33257c0.35122 0 0.52838 0.09635 0.52838 0.39163 0 0.28906-0.17095 0.4196-0.52838 0.4196z"/><path d="m58.835 39.562c0.13365 0.14608 0.33568 0.27973 0.65271 0.27973 0.36365 0 0.65271-0.21446 0.65271-0.56568 0-0.27352-0.1896-0.44757-0.42892-0.50352v-0.01243c0.21446-0.08081 0.36054-0.23311 0.36054-0.47244 0-0.32014-0.24865-0.50352-0.59366-0.50352-0.23311 0-0.41649 0.10568-0.56879 0.24865l0.13676 0.16162c0.11811-0.11811 0.25798-0.20203 0.42271-0.20203 0.21135 0 0.3419 0.12122 0.3419 0.31392 0 0.20825-0.13987 0.36987-0.56257 0.36987v0.19581c0.47244 0 0.63406 0.15852 0.63406 0.39473 0 0.22068-0.17095 0.36365-0.41028 0.36365-0.23311 0-0.38852-0.11189-0.50663-0.23622z"/><path d="m60.42 39.804h1.2806v-0.22068h-0.57501c-0.10257 0-0.22379 0.0093-0.33257 0.01865 0.46933-0.49109 0.80812-0.86096 0.80812-1.2339 0-0.35122-0.2269-0.58433-0.59366-0.58433-0.25798 0-0.43514 0.12122-0.59987 0.30149l0.14608 0.14608c0.115-0.13365 0.25798-0.23933 0.42271-0.23933 0.25176 0 0.37608 0.16162 0.37608 0.38852 0 0.32014-0.33568 0.67758-0.93244 1.2712z"/></g><path d="m44.421 12.867h8.5474v6.3509h-8.5474z" fill="#1d232d" stroke="#e9e56f"/><g fill="#e8eaec" aria-label="FP32"><path d="m45.632 17.27h0.26108v-0.91379h0.77704v-0.21757h-0.77704v-0.69001h0.9169v-0.21757h-1.178z"/><path d="m47.15 17.27h0.26108v-0.80812h0.36676c0.44446 0 0.75217-0.20203 0.75217-0.63095 0-0.44757-0.30149-0.59987-0.75217-0.59987h-0.62784zm0.26108-1.0195v-0.81122h0.33257c0.35122 0 0.52838 0.09635 0.52838 0.39163 0 0.28906-0.17095 0.4196-0.52838 0.4196z"/><path d="m48.733 17.028c0.13365 0.14608 0.33568 0.27973 0.65271 0.27973 0.36365 0 0.65271-0.21446 0.65271-0.56568 0-0.27352-0.1896-0.44757-0.42892-0.50352v-0.01243c0.21446-0.08081 0.36054-0.23311 0.36054-0.47244 0-0.32014-0.24865-0.50352-0.59366-0.50352-0.23311 0-0.41649 0.10568-0.56879 0.24865l0.13676 0.16162c0.11811-0.11811 0.25798-0.20203 0.42271-0.20203 0.21135 0 0.3419 0.12122 0.3419 0.31392 0 0.20825-0.13987 0.36987-0.56257 0.36987v0.19581c0.47244 0 0.63406 0.15852 0.63406 0.39473 0 0.22068-0.17095 0.36365-0.41027 0.36365-0.23311 0-0.38852-0.11189-0.50663-0.23622z"/><path d="m50.318 17.27h1.2806v-0.22068h-0.57501c-0.10257 0-0.22379 0.0093-0.33257 0.01865 0.46933-0.49109 0.80812-0.86096 0.80812-1.2339 0-0.35122-0.2269-0.58433-0.59366-0.58433-0.25798 0-0.43514 0.12122-0.59987 0.30149l0.14608 0.14608c0.115-0.13365 0.25798-0.23933 0.42271-0.23933 0.25176 0 0.37608 0.16162 0.37608 0.38852 0 0.32014-0.33568 0.67758-0.93244 1.2712z"/></g><path d="m54.522 12.867h8.5474v6.3509h-8.5474z" fill="#1d232d" stroke="#e9e56f"/><g fill="#e8eaec" aria-label="FP32"><path d="m55.734 17.27h0.26108v-0.91379h0.77704v-0.21757h-0.77704v-0.69001h0.9169v-0.21757h-1.178z"/><path d="m57.252 17.27h0.26108v-0.80812h0.36676c0.44446 0 0.75217-0.20203 0.75217-0.63095 0-0.44757-0.30149-0.59987-0.75217-0.59987h-0.62784zm0.26108-1.0195v-0.81122h0.33257c0.35122 0 0.52838 0.09635 0.52838 0.39163 0 0.28906-0.17095 0.4196-0.52838 0.4196z"/><path d="m58.835 17.028c0.13365 0.14608 0.33568 0.27973 0.65271 0.27973 0.36365 0 0.65271-0.21446 0.65271-0.56568 0-0.27352-0.1896-0.44757-0.42892-0.50352v-0.01243c0.21446-0.08081 0.36054-0.23311 0.36054-0.47244 0-0.32014-0.24865-0.50352-0.59366-0.50352-0.23311 0-0.41649 0.10568-0.56879 0.24865l0.13676 0.16162c0.11811-0.11811 0.25798-0.20203 0.42271-0.20203 0.21135 0 0.3419 0.12122 0.3419 0.31392 0 0.20825-0.13987 0.36987-0.56257 0.36987v0.19581c0.47244 0 0.63406 0.15852 0.63406 0.39473 0 0.22068-0.17095 0.36365-0.41028 0.36365-0.23311 0-0.38852-0.11189-0.50663-0.23622z"/><path d="m60.42 17.27h1.2806v-0.22068h-0.57501c-0.10257 0-0.22379 0.0093-0.33257 0.01865 0.46933-0.49109 0.80812-0.86096 0.80812-1.2339 0-0.35122-0.2269-0.58433-0.59366-0.58433-0.25798 0-0.43514 0.12122-0.59987 0.30149l0.14608 0.14608c0.115-0.13365 0.25798-0.23933 0.42271-0.23933 0.25176 0 0.37608 0.16162 0.37608 0.38852 0 0.32014-0.33568 0.67758-0.93244 1.2712z"/></g><path d="m24.218 12.867h8.5474v6.3509h-8.5474z" fill="#1d232d" stroke="#e9e56f"/><g fill="#e8eaec" aria-label="FP32"><path d="m25.429 17.27h0.26108v-0.91379h0.77704v-0.21757h-0.77704v-0.69001h0.9169v-0.21757h-1.178z"/><path d="m26.947 17.27h0.26108v-0.80812h0.36676c0.44446 0 0.75217-0.20203 0.75217-0.63095 0-0.44757-0.30149-0.59987-0.75217-0.59987h-0.62784zm0.26108-1.0195v-0.81122h0.33257c0.35122 0 0.52838 0.09635 0.52838 0.39163 0 0.28906-0.17095 0.4196-0.52838 0.4196z"/><path d="m28.53 17.028c0.13365 0.14608 0.33568 0.27973 0.65271 0.27973 0.36365 0 0.65271-0.21446 0.65271-0.56568 0-0.27352-0.1896-0.44757-0.42892-0.50352v-0.01243c0.21446-0.08081 0.36054-0.23311 0.36054-0.47244 0-0.32014-0.24865-0.50352-0.59366-0.50352-0.23311 0-0.41649 0.10568-0.56879 0.24865l0.13676 0.16162c0.11811-0.11811 0.25798-0.20203 0.42271-0.20203 0.21135 0 0.3419 0.12122 0.3419 0.31392 0 0.20825-0.13987 0.36987-0.56257 0.36987v0.19581c0.47244 0 0.63406 0.15852 0.63406 0.39473 0 0.22068-0.17095 0.36365-0.41028 0.36365-0.23311 0-0.38852-0.11189-0.50663-0.23622z"/><path d="m30.116 17.27h1.2806v-0.22068h-0.57501c-0.10257 0-0.22379 0.0093-0.33257 0.01865 0.46933-0.49109 0.80812-0.86096 0.80812-1.2339 0-0.35122-0.2269-0.58433-0.59366-0.58433-0.25798 0-0.43514 0.12122-0.59987 0.30149l0.14608 0.14608c0.115-0.13365 0.25798-0.23933 0.42271-0.23933 0.25176 0 0.37608 0.16162 0.37608 0.38852 0 0.32014-0.33568 0.67758-0.93244 1.2712z"/></g><path d="m24.218 20.378h8.5474v6.3509h-8.5474z" fill="#1d232d" stroke="#e9e56f"/><g fill="#e8eaec" aria-label="FP32"><path d="m25.429 24.782h0.26108v-0.91379h0.77704v-0.21757h-0.77704v-0.69001h0.9169v-0.21757h-1.178z"/><path d="m26.947 24.782h0.26108v-0.80812h0.36676c0.44446 0 0.75217-0.20203 0.75217-0.63095 0-0.44757-0.30149-0.59987-0.75217-0.59987h-0.62784zm0.26108-1.0195v-0.81122h0.33257c0.35122 0 0.52838 0.09635 0.52838 0.39163 0 0.28906-0.17095 0.4196-0.52838 0.4196z"/><path d="m28.53 24.539c0.13365 0.14608 0.33568 0.27973 0.65271 0.27973 0.36365 0 0.65271-0.21446 0.65271-0.56568 0-0.27352-0.1896-0.44757-0.42892-0.50352v-0.01243c0.21446-0.08081 0.36054-0.23311 0.36054-0.47244 0-0.32014-0.24865-0.50352-0.59366-0.50352-0.23311 0-0.41649 0.10568-0.56879 0.24865l0.13676 0.16162c0.11811-0.11811 0.25798-0.20203 0.42271-0.20203 0.21135 0 0.3419 0.12122 0.3419 0.31392 0 0.20825-0.13987 0.36987-0.56257 0.36987v0.19581c0.47244 0 0.63406 0.15852 0.63406 0.39473 0 0.22068-0.17095 0.36365-0.41028 0.36365-0.23311 0-0.38852-0.11189-0.50663-0.23622z"/><path d="m30.116 24.782h1.2806v-0.22068h-0.57501c-0.10257 0-0.22379 0.0093-0.33257 0.01865 0.46933-0.49109 0.80812-0.86096 0.80812-1.2339 0-0.35122-0.2269-0.58433-0.59366-0.58433-0.25798 0-0.43514 0.12122-0.59987 0.30149l0.14608 0.14608c0.115-0.13365 0.25798-0.23933 0.42271-0.23933 0.25176 0 0.37608 0.16162 0.37608 0.38852 0 0.32014-0.33568 0.67758-0.93244 1.2712z"/></g><path d="m24.218 27.89h8.5474v6.3509h-8.5474z" fill="#1d232d" stroke="#e9e56f"/><g fill="#e8eaec" aria-label="FP32"><path d="m25.429 32.293h0.26108v-0.91379h0.77704v-0.21757h-0.77704v-0.69001h0.9169v-0.21757h-1.178z"/><path d="m26.947 32.293h0.26108v-0.80812h0.36676c0.44446 0 0.75217-0.20203 0.75217-0.63095 0-0.44757-0.30149-0.59987-0.75217-0.59987h-0.62784zm0.26108-1.0195v-0.81122h0.33257c0.35122 0 0.52838 0.09635 0.52838 0.39163 0 0.28906-0.17095 0.4196-0.52838 0.4196z"/><path d="m28.53 32.051c0.13365 0.14608 0.33568 0.27973 0.65271 0.27973 0.36365 0 0.65271-0.21446 0.65271-0.56568 0-0.27352-0.1896-0.44757-0.42892-0.50352v-0.01243c0.21446-0.08081 0.36054-0.23311 0.36054-0.47244 0-0.32014-0.24865-0.50352-0.59366-0.50352-0.23311 0-0.41649 0.10568-0.56879 0.24865l0.13676 0.16162c0.11811-0.11811 0.25798-0.20203 0.42271-0.20203 0.21135 0 0.3419 0.12122 0.3419 0.31392 0 0.20825-0.13987 0.36987-0.56257 0.36987v0.19581c0.47244 0 0.63406 0.15852 0.63406 0.39473 0 0.22068-0.17095 0.36365-0.41028 0.36365-0.23311 0-0.38852-0.11189-0.50663-0.23622z"/><path d="m30.116 32.293h1.2806v-0.22068h-0.57501c-0.10257 0-0.22379 0.0093-0.33257 0.01865 0.46933-0.49109 0.80812-0.86096 0.80812-1.2339 0-0.35122-0.2269-0.58433-0.59366-0.58433-0.25798 0-0.43514 0.12122-0.59987 0.30149l0.14608 0.14608c0.115-0.13365 0.25798-0.23933 0.42271-0.23933 0.25176 0 0.37608 0.16162 0.37608 0.38852 0 0.32014-0.33568 0.67758-0.93244 1.2712z"/></g><path d="m24.218 35.401h8.5474v6.3509h-8.5474z" fill="#1d232d" stroke="#e9e56f"/><g fill="#e8eaec" aria-label="FP32"><path d="m25.429 39.804h0.26108v-0.91379h0.77704v-0.21757h-0.77704v-0.69001h0.9169v-0.21757h-1.178z"/><path d="m26.947 39.804h0.26108v-0.80812h0.36676c0.44446 0 0.75217-0.20203 0.75217-0.63095 0-0.44757-0.30149-0.59987-0.75217-0.59987h-0.62784zm0.26108-1.0195v-0.81122h0.33257c0.35122 0 0.52838 0.09635 0.52838 0.39163 0 0.28906-0.17095 0.4196-0.52838 0.4196z"/><path d="m28.53 39.562c0.13365 0.14608 0.33568 0.27973 0.65271 0.27973 0.36365 0 0.65271-0.21446 0.65271-0.56568 0-0.27352-0.1896-0.44757-0.42892-0.50352v-0.01243c0.21446-0.08081 0.36054-0.23311 0.36054-0.47244 0-0.32014-0.24865-0.50352-0.59366-0.50352-0.23311 0-0.41649 0.10568-0.56879 0.24865l0.13676 0.16162c0.11811-0.11811 0.25798-0.20203 0.42271-0.20203 0.21135 0 0.3419 0.12122 0.3419 0.31392 0 0.20825-0.13987 0.36987-0.56257 0.36987v0.19581c0.47244 0 0.63406 0.15852 0.63406 0.39473 0 0.22068-0.17095 0.36365-0.41028 0.36365-0.23311 0-0.38852-0.11189-0.50663-0.23622z"/><path d="m30.116 39.804h1.2806v-0.22068h-0.57501c-0.10257 0-0.22379 0.0093-0.33257 0.01865 0.46933-0.49109 0.80812-0.86096 0.80812-1.2339 0-0.35122-0.2269-0.58433-0.59366-0.58433-0.25798 0-0.43514 0.12122-0.59987 0.30149l0.14608 0.14608c0.115-0.13365 0.25798-0.23933 0.42271-0.23933 0.25176 0 0.37608 0.16162 0.37608 0.38852 0 0.32014-0.33568 0.67758-0.93244 1.2712z"/></g><path d="m14.116 12.867h8.5474v6.3509h-8.5474z" fill="#1d232d" stroke="#e9e56f"/><g fill="#e8eaec" aria-label="INT32"><path d="m14.748 17.27h0.26108v-2.0389h-0.26108z"/><path d="m15.55 17.27h0.24554v-1.0661c0-0.21446-0.01865-0.43203-0.03108-0.63717h0.01243l0.22068 0.4196 0.73663 1.2837h0.2673v-2.0389h-0.24554v1.0537c0 0.21446 0.02176 0.44446 0.03419 0.6496h-0.01243l-0.22068-0.42271-0.73974-1.2806h-0.2673z"/><path d="m17.973 17.27h0.25798v-1.8214h0.61852v-0.21757h-1.495v0.21757h0.61852z"/><path d="m19.008 17.028c0.13365 0.14608 0.33568 0.27973 0.65271 0.27973 0.36365 0 0.65271-0.21446 0.65271-0.56568 0-0.27352-0.1896-0.44757-0.42892-0.50352v-0.01243c0.21446-0.08081 0.36054-0.23311 0.36054-0.47244 0-0.32014-0.24865-0.50352-0.59366-0.50352-0.23311 0-0.41649 0.10568-0.56879 0.24865l0.13676 0.16162c0.11811-0.11811 0.25798-0.20203 0.42271-0.20203 0.21135 0 0.3419 0.12122 0.3419 0.31392 0 0.20825-0.13987 0.36987-0.56257 0.36987v0.19581c0.47244 0 0.63406 0.15852 0.63406 0.39473 0 0.22068-0.17095 0.36365-0.41028 0.36365-0.23311 0-0.38852-0.11189-0.50663-0.23622z"/><path d="m20.594 17.27h1.2806v-0.22068h-0.57501c-0.10257 0-0.22379 0.0093-0.33257 0.01865 0.46933-0.49109 0.80812-0.86096 0.80812-1.2339 0-0.35122-0.22689-0.58433-0.59366-0.58433-0.25798 0-0.43514 0.12122-0.59987 0.30149l0.14608 0.14608c0.115-0.13365 0.25798-0.23933 0.42271-0.23933 0.25176 0 0.37608 0.16162 0.37608 0.38852 0 0.32014-0.33568 0.67758-0.93244 1.2712z"/></g><path d="m14.116 20.378h8.5474v6.3509h-8.5474z" fill="#1d232d" stroke="#e9e56f"/><g fill="#e8eaec" aria-label="INT32"><path d="m14.748 24.782h0.26108v-2.0389h-0.26108z"/><path d="m15.55 24.782h0.24554v-1.0661c0-0.21446-0.01865-0.43203-0.03108-0.63717h0.01243l0.22068 0.4196 0.73663 1.2837h0.2673v-2.0389h-0.24554v1.0537c0 0.21446 0.02176 0.44446 0.03419 0.6496h-0.01243l-0.22068-0.42271-0.73974-1.2806h-0.2673z"/><path d="m17.973 24.782h0.25798v-1.8214h0.61852v-0.21757h-1.495v0.21757h0.61852z"/><path d="m19.008 24.539c0.13365 0.14608 0.33568 0.27973 0.65271 0.27973 0.36365 0 0.65271-0.21446 0.65271-0.56568 0-0.27352-0.1896-0.44757-0.42892-0.50352v-0.01243c0.21446-0.08081 0.36054-0.23311 0.36054-0.47244 0-0.32014-0.24865-0.50352-0.59366-0.50352-0.23311 0-0.41649 0.10568-0.56879 0.24865l0.13676 0.16162c0.11811-0.11811 0.25798-0.20203 0.42271-0.20203 0.21135 0 0.3419 0.12122 0.3419 0.31392 0 0.20825-0.13987 0.36987-0.56257 0.36987v0.19581c0.47244 0 0.63406 0.15852 0.63406 0.39473 0 0.22068-0.17095 0.36365-0.41028 0.36365-0.23311 0-0.38852-0.11189-0.50663-0.23622z"/><path d="m20.594 24.782h1.2806v-0.22068h-0.57501c-0.10257 0-0.22379 0.0093-0.33257 0.01865 0.46933-0.49109 0.80812-0.86096 0.80812-1.2339 0-0.35122-0.22689-0.58433-0.59366-0.58433-0.25798 0-0.43514 0.12122-0.59987 0.30149l0.14608 0.14608c0.115-0.13365 0.25798-0.23933 0.42271-0.23933 0.25176 0 0.37608 0.16162 0.37608 0.38852 0 0.32014-0.33568 0.67758-0.93244 1.2712z"/></g><path d="m14.116 27.89h8.5474v6.3509h-8.5474z" fill="#1d232d" stroke="#e9e56f"/><g fill="#e8eaec" aria-label="INT32"><path d="m14.748 32.293h0.26108v-2.0389h-0.26108z"/><path d="m15.55 32.293h0.24554v-1.0661c0-0.21446-0.01865-0.43203-0.03108-0.63717h0.01243l0.22068 0.4196 0.73663 1.2837h0.2673v-2.0389h-0.24554v1.0537c0 0.21446 0.02176 0.44446 0.03419 0.6496h-0.01243l-0.22068-0.42271-0.73974-1.2806h-0.2673z"/><path d="m17.973 32.293h0.25798v-1.8214h0.61852v-0.21757h-1.495v0.21757h0.61852z"/><path d="m19.008 32.051c0.13365 0.14608 0.33568 0.27973 0.65271 0.27973 0.36365 0 0.65271-0.21446 0.65271-0.56568 0-0.27352-0.1896-0.44757-0.42892-0.50352v-0.01243c0.21446-0.08081 0.36054-0.23311 0.36054-0.47244 0-0.32014-0.24865-0.50352-0.59366-0.50352-0.23311 0-0.41649 0.10568-0.56879 0.24865l0.13676 0.16162c0.11811-0.11811 0.25798-0.20203 0.42271-0.20203 0.21135 0 0.3419 0.12122 0.3419 0.31392 0 0.20825-0.13987 0.36987-0.56257 0.36987v0.19581c0.47244 0 0.63406 0.15852 0.63406 0.39473 0 0.22068-0.17095 0.36365-0.41028 0.36365-0.23311 0-0.38852-0.11189-0.50663-0.23622z"/><path d="m20.594 32.293h1.2806v-0.22068h-0.57501c-0.10257 0-0.22379 0.0093-0.33257 0.01865 0.46933-0.49109 0.80812-0.86096 0.80812-1.2339 0-0.35122-0.22689-0.58433-0.59366-0.58433-0.25798 0-0.43514 0.12122-0.59987 0.30149l0.14608 0.14608c0.115-0.13365 0.25798-0.23933 0.42271-0.23933 0.25176 0 0.37608 0.16162 0.37608 0.38852 0 0.32014-0.33568 0.67758-0.93244 1.2712z"/></g><path d="m14.116 35.401h8.5474v6.3509h-8.5474z" fill="#1d232d" stroke="#e9e56f"/><g fill="#e8eaec" aria-label="INT32"><path d="m14.748 39.804h0.26108v-2.0389h-0.26108z"/><path d="m15.55 39.804h0.24554v-1.0661c0-0.21446-0.01865-0.43203-0.03108-0.63717h0.01243l0.22068 0.4196 0.73663 1.2837h0.2673v-2.0389h-0.24554v1.0537c0 0.21446 0.02176 0.44446 0.03419 0.6496h-0.01243l-0.22068-0.42271-0.73974-1.2806h-0.2673z"/><path d="m17.973 39.804h0.25798v-1.8214h0.61852v-0.21757h-1.495v0.21757h0.61852z"/><path d="m19.008 39.562c0.13365 0.14608 0.33568 0.27973 0.65271 0.27973 0.36365 0 0.65271-0.21446 0.65271-0.56568 0-0.27352-0.1896-0.44757-0.42892-0.50352v-0.01243c0.21446-0.08081 0.36054-0.23311 0.36054-0.47244 0-0.32014-0.24865-0.50352-0.59366-0.50352-0.23311 0-0.41649 0.10568-0.56879 0.24865l0.13676 0.16162c0.11811-0.11811 0.25798-0.20203 0.42271-0.20203 0.21135 0 0.3419 0.12122 0.3419 0.31392 0 0.20825-0.13987 0.36987-0.56257 0.36987v0.19581c0.47244 0 0.63406 0.15852 0.63406 0.39473 0 0.22068-0.17095 0.36365-0.41028 0.36365-0.23311 0-0.38852-0.11189-0.50663-0.23622z"/><path d="m20.594 39.804h1.2806v-0.22068h-0.57501c-0.10257 0-0.22379 0.0093-0.33257 0.01865 0.46933-0.49109 0.80812-0.86096 0.80812-1.2339 0-0.35122-0.22689-0.58433-0.59366-0.58433-0.25798 0-0.43514 0.12122-0.59987 0.30149l0.14608 0.14608c0.115-0.13365 0.25798-0.23933 0.42271-0.23933 0.25176 0 0.37608 0.16162 0.37608 0.38852 0 0.32014-0.33568 0.67758-0.93244 1.2712z"/></g><path d="m4.0147 35.401h8.5474v6.3509h-8.5474z" fill="#1d232d" stroke="#e9e56f"/><g fill="#e8eaec" aria-label="INT32"><path d="m4.6468 39.804h0.26108v-2.0389h-0.26108z"/><path d="m5.4481 39.804h0.24554v-1.0661c0-0.21446-0.018649-0.43203-0.031081-0.63717h0.012433l0.22068 0.4196 0.73663 1.2837h0.2673v-2.0389h-0.24554v1.0537c0 0.21446 0.021757 0.44446 0.03419 0.6496h-0.012433l-0.22068-0.42271-0.73974-1.2806h-0.2673z"/><path d="m7.8711 39.804h0.25798v-1.8214h0.61852v-0.21757h-1.495v0.21757h0.61852z"/><path d="m8.9069 39.562c0.13365 0.14608 0.33568 0.27973 0.65271 0.27973 0.36365 0 0.65271-0.21446 0.65271-0.56568 0-0.27352-0.1896-0.44757-0.42892-0.50352v-0.01243c0.21446-0.08081 0.36054-0.23311 0.36054-0.47244 0-0.32014-0.24865-0.50352-0.59366-0.50352-0.23311 0-0.41649 0.10568-0.56879 0.24865l0.13676 0.16162c0.11811-0.11811 0.25798-0.20203 0.42271-0.20203 0.21135 0 0.3419 0.12122 0.3419 0.31392 0 0.20825-0.13987 0.36987-0.56257 0.36987v0.19581c0.47244 0 0.63406 0.15852 0.63406 0.39473 0 0.22068-0.17095 0.36365-0.41027 0.36365-0.23311 0-0.38852-0.11189-0.50663-0.23622z"/><path d="m10.492 39.804h1.2806v-0.22068h-0.57501c-0.10257 0-0.22379 0.0093-0.33257 0.01865 0.46933-0.49109 0.80812-0.86096 0.80812-1.2339 0-0.35122-0.22689-0.58433-0.59366-0.58433-0.25798 0-0.43514 0.12122-0.59987 0.30149l0.14608 0.14608c0.115-0.13365 0.25798-0.23933 0.42271-0.23933 0.25176 0 0.37608 0.16162 0.37608 0.38852 0 0.32014-0.33568 0.67758-0.93244 1.2712z"/></g><path d="m4.0147 27.89h8.5474v6.3509h-8.5474z" fill="#1d232d" stroke="#e9e56f"/><g fill="#e8eaec" aria-label="INT32"><path d="m4.6468 32.293h0.26108v-2.0389h-0.26108z"/><path d="m5.4481 32.293h0.24554v-1.0661c0-0.21446-0.018649-0.43203-0.031081-0.63717h0.012433l0.22068 0.4196 0.73663 1.2837h0.2673v-2.0389h-0.24554v1.0537c0 0.21446 0.021757 0.44446 0.03419 0.6496h-0.012433l-0.22068-0.42271-0.73974-1.2806h-0.2673z"/><path d="m7.8711 32.293h0.25798v-1.8214h0.61852v-0.21757h-1.495v0.21757h0.61852z"/><path d="m8.9069 32.051c0.13365 0.14608 0.33568 0.27973 0.65271 0.27973 0.36365 0 0.65271-0.21446 0.65271-0.56568 0-0.27352-0.1896-0.44757-0.42892-0.50352v-0.01243c0.21446-0.08081 0.36054-0.23311 0.36054-0.47244 0-0.32014-0.24865-0.50352-0.59366-0.50352-0.23311 0-0.41649 0.10568-0.56879 0.24865l0.13676 0.16162c0.11811-0.11811 0.25798-0.20203 0.42271-0.20203 0.21135 0 0.3419 0.12122 0.3419 0.31392 0 0.20825-0.13987 0.36987-0.56257 0.36987v0.19581c0.47244 0 0.63406 0.15852 0.63406 0.39473 0 0.22068-0.17095 0.36365-0.41027 0.36365-0.23311 0-0.38852-0.11189-0.50663-0.23622z"/><path d="m10.492 32.293h1.2806v-0.22068h-0.57501c-0.10257 0-0.22379 0.0093-0.33257 0.01865 0.46933-0.49109 0.80812-0.86096 0.80812-1.2339 0-0.35122-0.22689-0.58433-0.59366-0.58433-0.25798 0-0.43514 0.12122-0.59987 0.30149l0.14608 0.14608c0.115-0.13365 0.25798-0.23933 0.42271-0.23933 0.25176 0 0.37608 0.16162 0.37608 0.38852 0 0.32014-0.33568 0.67758-0.93244 1.2712z"/></g><path d="m4.0147 20.378h8.5474v6.3509h-8.5474z" fill="#1d232d" stroke="#e9e56f"/><g fill="#e8eaec" aria-label="INT32"><path d="m4.6468 24.782h0.26108v-2.0389h-0.26108z"/><path d="m5.4481 24.782h0.24554v-1.0661c0-0.21446-0.018649-0.43203-0.031081-0.63717h0.012433l0.22068 0.4196 0.73663 1.2837h0.2673v-2.0389h-0.24554v1.0537c0 0.21446 0.021757 0.44446 0.03419 0.6496h-0.012433l-0.22068-0.42271-0.73974-1.2806h-0.2673z"/><path d="m7.8711 24.782h0.25798v-1.8214h0.61852v-0.21757h-1.495v0.21757h0.61852z"/><path d="m8.9069 24.539c0.13365 0.14608 0.33568 0.27973 0.65271 0.27973 0.36365 0 0.65271-0.21446 0.65271-0.56568 0-0.27352-0.1896-0.44757-0.42892-0.50352v-0.01243c0.21446-0.08081 0.36054-0.23311 0.36054-0.47244 0-0.32014-0.24865-0.50352-0.59366-0.50352-0.23311 0-0.41649 0.10568-0.56879 0.24865l0.13676 0.16162c0.11811-0.11811 0.25798-0.20203 0.42271-0.20203 0.21135 0 0.3419 0.12122 0.3419 0.31392 0 0.20825-0.13987 0.36987-0.56257 0.36987v0.19581c0.47244 0 0.63406 0.15852 0.63406 0.39473 0 0.22068-0.17095 0.36365-0.41027 0.36365-0.23311 0-0.38852-0.11189-0.50663-0.23622z"/><path d="m10.492 24.782h1.2806v-0.22068h-0.57501c-0.10257 0-0.22379 0.0093-0.33257 0.01865 0.46933-0.49109 0.80812-0.86096 0.80812-1.2339 0-0.35122-0.22689-0.58433-0.59366-0.58433-0.25798 0-0.43514 0.12122-0.59987 0.30149l0.14608 0.14608c0.115-0.13365 0.25798-0.23933 0.42271-0.23933 0.25176 0 0.37608 0.16162 0.37608 0.38852 0 0.32014-0.33568 0.67758-0.93244 1.2712z"/></g><path d="m4.0147 12.867h8.5474v6.3509h-8.5474z" fill="#1d232d" stroke="#e9e56f"/><g fill="#e8eaec" aria-label="INT32"><path d="m4.6468 17.27h0.26108v-2.0389h-0.26108z"/><path d="m5.4481 17.27h0.24554v-1.0661c0-0.21446-0.018649-0.43203-0.031081-0.63717h0.012433l0.22068 0.4196 0.73663 1.2837h0.2673v-2.0389h-0.24554v1.0537c0 0.21446 0.021757 0.44446 0.03419 0.6496h-0.012433l-0.22068-0.42271-0.73974-1.2806h-0.2673z"/><path d="m7.8711 17.27h0.25798v-1.8214h0.61852v-0.21757h-1.495v0.21757h0.61852z"/><path d="m8.9069 17.028c0.13365 0.14608 0.33568 0.27973 0.65271 0.27973 0.36365 0 0.65271-0.21446 0.65271-0.56568 0-0.27352-0.1896-0.44757-0.42892-0.50352v-0.01243c0.21446-0.08081 0.36054-0.23311 0.36054-0.47244 0-0.32014-0.24865-0.50352-0.59366-0.50352-0.23311 0-0.41649 0.10568-0.56879 0.24865l0.13676 0.16162c0.11811-0.11811 0.25798-0.20203 0.42271-0.20203 0.21135 0 0.3419 0.12122 0.3419 0.31392 0 0.20825-0.13987 0.36987-0.56257 0.36987v0.19581c0.47244 0 0.63406 0.15852 0.63406 0.39473 0 0.22068-0.17095 0.36365-0.41027 0.36365-0.23311 0-0.38852-0.11189-0.50663-0.23622z"/><path d="m10.492 17.27h1.2806v-0.22068h-0.57501c-0.10257 0-0.22379 0.0093-0.33257 0.01865 0.46933-0.49109 0.80812-0.86096 0.80812-1.2339 0-0.35122-0.22689-0.58433-0.59366-0.58433-0.25798 0-0.43514 0.12122-0.59987 0.30149l0.14608 0.14608c0.115-0.13365 0.25798-0.23933 0.42271-0.23933 0.25176 0 0.37608 0.16162 0.37608 0.38852 0 0.32014-0.33568 0.67758-0.93244 1.2712z"/></g></g></svg>
