<svg width="244.08mm" height="124.84mm" version="1.1" viewBox="0 0 244.08 124.84" xmlns="http://www.w3.org/2000/svg">
 <g transform="translate(-20.833 -144.62)">
  <path d="m80.785 266.17c1e-5 -34.45 27.927-62.377 62.377-62.377 34.45 0 62.377 27.927 62.377 62.377" fill="none" stroke="#e9e56f" stroke-linecap="round" stroke-width=".26458"/>
  <g fill="#ffc585" fill-rule="evenodd" stroke="#e9e56f" stroke-width=".26458">
   <path d="m202.48 250.3-6.0748 1.6277"/>
   <path d="m196.35 235.49-5.4465 3.1445"/>
   <path d="m186.6 222.77-4.447 4.447"/>
   <path d="m173.89 213.01-3.1445 5.4465"/>
  </g>
  <g fill="#7affff" fill-rule="evenodd" stroke="#e9e56f" stroke-width=".26458">
   <path d="m159.08 206.87-1.6278 6.0747"/>
   <path d="m143.19 204.78v6.2891"/>
   <path d="m127.3 206.87 1.6277 6.0748"/>
   <path d="m112.49 213 3.1446 5.4465"/>
   <path d="m99.777 222.75 4.4471 4.447"/>
   <path d="m90.017 235.46 5.4465 3.1445"/>
   <path d="m83.881 250.27 6.0748 1.6277"/>
   <path d="m81.785 266.16 6.2891-6e-5"/>
  </g>
  <path d="m31.334 265.43c2.9e-5 -61.429 49.798-111.23 111.23-111.23 61.429-2e-5 111.23 49.798 111.23 111.23" fill="none" stroke="#e9e56f" stroke-linecap="round" stroke-width=".26458"/>
  <path d="m20.965 266.66c4.5e-5 -67.329 54.581-121.91 121.91-121.91 67.329-3e-5 121.91 54.581 121.91 121.91" fill="none" stroke="#e9e56f" stroke-linecap="round" stroke-width=".26458"/>
  <g fill="#ffc585" fill-rule="evenodd" stroke="#e9e56f" stroke-width=".26458">
   <path d="m204.57 266.18-6.289 2.1e-4"/>
   <path d="m202.48 250.3-6.0748 1.6277"/>
   <path d="m196.35 235.49-5.4465 3.1445"/>
   <path d="m186.6 222.77-4.447 4.447"/>
   <path d="m173.89 213.01-3.1445 5.4465"/>
  </g>
  <g fill="#7affff" fill-rule="evenodd" stroke="#e9e56f" stroke-width=".26458">
   <path d="m159.08 206.87-1.6278 6.0747"/>
   <path d="m143.19 204.78v6.2891"/>
   <path d="m127.3 206.87 1.6277 6.0748"/>
   <path d="m112.49 213 3.1446 5.4465"/>
   <path d="m99.777 222.75 4.4471 4.447"/>
   <path d="m90.017 235.46 5.4465 3.1445"/>
   <path d="m83.881 250.27 6.0748 1.6277"/>
   <path d="m81.785 266.16 6.2891-6e-5"/>
  </g>
  <g stroke="#e9e56f" stroke-width=".26458">
   <path d="m31.334 265.43c2.9e-5 -61.429 49.798-111.23 111.23-111.23 61.429-2e-5 111.23 49.798 111.23 111.23" fill="none" stroke-linecap="round"/>
   <path d="m20.965 266.66c4.5e-5 -67.329 54.581-121.91 121.91-121.91 67.329-3e-5 121.91 54.581 121.91 121.91" fill="none" stroke-linecap="round"/>
   <path d="m204.57 266.18-6.289 2.1e-4" fill="#ffc585" fill-rule="evenodd"/>
  </g>
  <g fill="#7affff" fill-rule="evenodd" stroke="#e9e56f" stroke-width=".26458">
   <path d="m82.307 258.18 6.2353 0.82084"/>
   <path d="m86.434 242.79 5.8104 2.4067"/>
   <path d="m94.405 228.98 4.9895 3.8285"/>
   <path d="m105.68 217.71 3.8286 4.9895"/>
   <path d="m119.48 209.74 2.4068 5.8104"/>
   <path d="m134.88 205.62 0.82098 6.2353"/>
   <path d="m150.82 205.62-0.82084 6.2353"/>
   <path d="m166.22 209.75-2.4067 5.8104"/>
   <path d="m180.02 217.72-3.8286 4.9895"/>
   <path d="m191.29 228.99-4.9895 3.8286"/>
   <path d="m199.26 242.79-5.8104 2.4068"/>
   <path d="m203.39 258.19-6.2353 0.82095"/>
  </g>
  <g fill="#e9e56f" stroke-linecap="round" stroke-width=".26458">
   <g aria-label="2020">
    <path d="m188.15 266.56h1.7441v-0.30056h-0.78317c-0.1397 0-0.3048 0.0127-0.45297 0.0254 0.63924-0.66887 1.1007-1.1726 1.1007-1.6806 0-0.47836-0.30903-0.79586-0.80857-0.79586-0.35136 0-0.59266 0.1651-0.81703 0.41063l0.19897 0.19897c0.15663-0.18204 0.35136-0.32597 0.57573-0.32597 0.3429 0 0.51223 0.22013 0.51223 0.52917 0 0.43603-0.4572 0.92286-1.27 1.7314z"/>
    <path d="m191.13 266.62c0.53763 0 0.8636-0.50376 0.8636-1.4097 0-0.90593-0.32597-1.3928-0.8636-1.3928-0.54187 0-0.86783 0.48683-0.86783 1.3928 0 0.90594 0.32596 1.4097 0.86783 1.4097zm0-0.2794c-0.3175 0-0.52917-0.33866-0.52917-1.1303 0-0.79163 0.21167-1.1134 0.52917-1.1134 0.31327 0 0.52493 0.32173 0.52493 1.1134 0 0.79164-0.21166 1.1303-0.52493 1.1303z"/>
    <path d="m192.35 266.56h1.7441v-0.30056h-0.78317c-0.1397 0-0.3048 0.0127-0.45297 0.0254 0.63924-0.66887 1.1007-1.1726 1.1007-1.6806 0-0.47836-0.30903-0.79586-0.80857-0.79586-0.35136 0-0.59266 0.1651-0.81703 0.41063l0.19897 0.19897c0.15663-0.18204 0.35136-0.32597 0.57573-0.32597 0.3429 0 0.51223 0.22013 0.51223 0.52917 0 0.43603-0.4572 0.92286-1.27 1.7314z"/>
    <path d="m195.33 266.62c0.53763 0 0.8636-0.50376 0.8636-1.4097 0-0.90593-0.32597-1.3928-0.8636-1.3928-0.54187 0-0.86783 0.48683-0.86783 1.3928 0 0.90594 0.32596 1.4097 0.86783 1.4097zm0-0.2794c-0.3175 0-0.52917-0.33866-0.52917-1.1303 0-0.79163 0.21167-1.1134 0.52917-1.1134 0.31327 0 0.52493 0.32173 0.52493 1.1134 0 0.79164-0.21166 1.1303-0.52493 1.1303z"/>
   </g>
   <g aria-label="2015">
    <path d="m183.92 247.51h1.7441v-0.30057h-0.78317c-0.1397 0-0.3048 0.0127-0.45296 0.0254 0.63923-0.66886 1.1007-1.1726 1.1007-1.6806 0-0.47837-0.30903-0.79587-0.80856-0.79587-0.35137 0-0.59267 0.1651-0.81704 0.41064l0.19897 0.19896c0.15663-0.18203 0.35137-0.32596 0.57573-0.32596 0.3429 0 0.51224 0.22013 0.51224 0.52916 0 0.43604-0.4572 0.92287-1.27 1.7314z"/>
    <path d="m186.9 247.57c0.53764 0 0.8636-0.50377 0.8636-1.4097s-0.32596-1.3928-0.8636-1.3928c-0.54186 0-0.86783 0.48684-0.86783 1.3928s0.32597 1.4097 0.86783 1.4097zm0-0.2794c-0.3175 0-0.52916-0.33867-0.52916-1.1303s0.21166-1.1134 0.52916-1.1134c0.31327 0 0.52494 0.32174 0.52494 1.1134s-0.21167 1.1303-0.52494 1.1303z"/>
    <path d="m188.28 247.51h1.524v-0.28787h-0.5588v-2.413h-0.2667c-0.14817 0.0889-0.32597 0.15664-0.5715 0.19897v0.22437h0.49106v1.9897h-0.61806z"/>
    <path d="m190.15 247.2c0.18626 0.18627 0.45296 0.3683 0.88476 0.3683 0.4699 0 0.91017-0.3302 0.91017-0.9144s-0.37677-0.84667-0.8382-0.84667c-0.1651 0-0.28787 0.0423-0.41487 0.11007l0.072-0.8001h1.0456v-0.30057h-1.3504l-0.0889 1.2996 0.18627 0.11853c0.16086-0.10583 0.27516-0.1651 0.46143-0.1651 0.34713 0 0.57573 0.22013 0.57573 0.59267 0 0.37676-0.26246 0.61806-0.59266 0.61806-0.3175 0-0.5207-0.14816-0.68157-0.30903z"/>
   </g>
   <g aria-label="2010">
    <path d="m173.33 231.64h1.7441v-0.30057h-0.78317c-0.1397 0-0.3048 0.0127-0.45297 0.0254 0.63924-0.66886 1.1007-1.1726 1.1007-1.6806 0-0.47837-0.30903-0.79587-0.80857-0.79587-0.35136 0-0.59266 0.1651-0.81703 0.41064l0.19897 0.19896c0.15663-0.18203 0.35136-0.32596 0.57573-0.32596 0.3429 0 0.51223 0.22013 0.51223 0.52916 0 0.43604-0.4572 0.92287-1.27 1.7314z"/>
    <path d="m176.32 231.69c0.53763 0 0.8636-0.50377 0.8636-1.4097s-0.32597-1.3928-0.8636-1.3928c-0.54187 0-0.86783 0.48684-0.86783 1.3928s0.32596 1.4097 0.86783 1.4097zm0-0.2794c-0.3175 0-0.52917-0.33867-0.52917-1.1303s0.21167-1.1134 0.52917-1.1134c0.31327 0 0.52493 0.32174 0.52493 1.1134s-0.21166 1.1303-0.52493 1.1303z"/>
    <path d="m177.7 231.64h1.524v-0.28787h-0.5588v-2.413h-0.2667c-0.14816 0.0889-0.32596 0.15664-0.5715 0.19897v0.22437h0.49107v1.9897h-0.61807z"/>
    <path d="m180.52 231.69c0.53763 0 0.8636-0.50377 0.8636-1.4097s-0.32597-1.3928-0.8636-1.3928c-0.54187 0-0.86783 0.48684-0.86783 1.3928s0.32596 1.4097 0.86783 1.4097zm0-0.2794c-0.3175 0-0.52917-0.33867-0.52917-1.1303s0.21167-1.1134 0.52917-1.1134c0.31327 0 0.52493 0.32174 0.52493 1.1134s-0.21166 1.1303-0.52493 1.1303z"/>
   </g>
   <g aria-label="2005">
    <path d="m156.13 219.73h1.7441v-0.30057h-0.78317c-0.1397 0-0.3048 0.0127-0.45296 0.0254 0.63923-0.66886 1.1007-1.1726 1.1007-1.6806 0-0.47837-0.30903-0.79587-0.80856-0.79587-0.35137 0-0.59267 0.1651-0.81704 0.41064l0.19897 0.19896c0.15663-0.18203 0.35137-0.32596 0.57573-0.32596 0.3429 0 0.51224 0.22013 0.51224 0.52916 0 0.43604-0.4572 0.92287-1.27 1.7314z"/>
    <path d="m159.12 219.78c0.53764 0 0.8636-0.50377 0.8636-1.4097s-0.32596-1.3928-0.8636-1.3928c-0.54186 0-0.86783 0.48684-0.86783 1.3928s0.32597 1.4097 0.86783 1.4097zm0-0.2794c-0.3175 0-0.52916-0.33867-0.52916-1.1303s0.21166-1.1134 0.52916-1.1134c0.31327 0 0.52494 0.32174 0.52494 1.1134s-0.21167 1.1303-0.52494 1.1303z"/>
    <path d="m161.22 219.78c0.53764 0 0.8636-0.50377 0.8636-1.4097s-0.32596-1.3928-0.8636-1.3928c-0.54186 0-0.86783 0.48684-0.86783 1.3928s0.32597 1.4097 0.86783 1.4097zm0-0.2794c-0.3175 0-0.52916-0.33867-0.52916-1.1303s0.21166-1.1134 0.52916-1.1134c0.31327 0 0.52494 0.32174 0.52494 1.1134s-0.21167 1.1303-0.52494 1.1303z"/>
    <path d="m162.37 219.42c0.18626 0.18627 0.45296 0.3683 0.88476 0.3683 0.4699 0 0.91017-0.3302 0.91017-0.9144s-0.37677-0.84667-0.8382-0.84667c-0.1651 0-0.28787 0.0423-0.41487 0.11007l0.072-0.8001h1.0456v-0.30057h-1.3504l-0.0889 1.2996 0.18627 0.11853c0.16086-0.10583 0.27516-0.1651 0.46143-0.1651 0.34713 0 0.57573 0.22013 0.57573 0.59267 0 0.37676-0.26246 0.61806-0.59266 0.61806-0.3175 0-0.5207-0.14816-0.68157-0.30903z"/>
   </g>
   <g aria-label="2000">
    <path d="m139.2 215.5h1.7441v-0.30056h-0.78317c-0.1397 0-0.3048 0.0127-0.45297 0.0254 0.63924-0.66887 1.1007-1.1726 1.1007-1.6806 0-0.47836-0.30903-0.79586-0.80857-0.79586-0.35136 0-0.59266 0.1651-0.81703 0.41063l0.19897 0.19897c0.15663-0.18204 0.35136-0.32597 0.57573-0.32597 0.3429 0 0.51223 0.22013 0.51223 0.52917 0 0.43603-0.4572 0.92286-1.27 1.7314z"/>
    <path d="m142.19 215.55c0.53763 0 0.8636-0.50376 0.8636-1.4097 0-0.90593-0.32597-1.3928-0.8636-1.3928-0.54187 0-0.86783 0.48683-0.86783 1.3928 0 0.90594 0.32596 1.4097 0.86783 1.4097zm0-0.2794c-0.3175 0-0.52917-0.33866-0.52917-1.1303 0-0.79163 0.21167-1.1134 0.52917-1.1134 0.31327 0 0.52493 0.32173 0.52493 1.1134 0 0.79164-0.21166 1.1303-0.52493 1.1303z"/>
    <path d="m144.29 215.55c0.53763 0 0.8636-0.50376 0.8636-1.4097 0-0.90593-0.32597-1.3928-0.8636-1.3928-0.54187 0-0.86783 0.48683-0.86783 1.3928 0 0.90594 0.32596 1.4097 0.86783 1.4097zm0-0.2794c-0.3175 0-0.52917-0.33866-0.52917-1.1303 0-0.79163 0.21167-1.1134 0.52917-1.1134 0.31327 0 0.52493 0.32173 0.52493 1.1134 0 0.79164-0.21166 1.1303-0.52493 1.1303z"/>
    <path d="m146.39 215.55c0.53763 0 0.8636-0.50376 0.8636-1.4097 0-0.90593-0.32597-1.3928-0.8636-1.3928-0.54187 0-0.86783 0.48683-0.86783 1.3928 0 0.90594 0.32596 1.4097 0.86783 1.4097zm0-0.2794c-0.3175 0-0.52917-0.33866-0.52917-1.1303 0-0.79163 0.21167-1.1134 0.52917-1.1134 0.31327 0 0.52493 0.32173 0.52493 1.1134 0 0.79164-0.21166 1.1303-0.52493 1.1303z"/>
   </g>
   <g aria-label="1995">
    <path d="m121.38 219.73h1.524v-0.28787h-0.5588v-2.413h-0.2667c-0.14816 0.0889-0.32596 0.15664-0.5715 0.19897v0.22437h0.49107v1.9897h-0.61807z"/>
    <path d="m124.14 218.42c-0.33443 0-0.49953-0.22014-0.49953-0.5715 0-0.3556 0.20743-0.59267 0.4699-0.59267 0.3429 0 0.55033 0.2794 0.5969 0.80433-0.18203 0.25824-0.3937 0.35984-0.56727 0.35984zm-0.77893 1.0795c0.14817 0.16086 0.36407 0.28363 0.65193 0.28363 0.53764 0 1.0287-0.4191 1.0287-1.5028 0-0.86784-0.39793-1.2996-0.93133-1.2996-0.4318 0-0.79587 0.35137-0.79587 0.86784 0 0.55456 0.30057 0.83396 0.76624 0.83396 0.22436 0 0.46566-0.13123 0.635-0.34713-0.0127 0.8636-0.33444 1.1599-0.71544 1.1599-0.16933 0-0.33443-0.0847-0.4445-0.2159z"/>
    <path d="m126.24 218.42c-0.33443 0-0.49953-0.22014-0.49953-0.5715 0-0.3556 0.20743-0.59267 0.4699-0.59267 0.3429 0 0.55033 0.2794 0.5969 0.80433-0.18203 0.25824-0.3937 0.35984-0.56727 0.35984zm-0.77893 1.0795c0.14817 0.16086 0.36407 0.28363 0.65193 0.28363 0.53764 0 1.0287-0.4191 1.0287-1.5028 0-0.86784-0.39793-1.2996-0.93133-1.2996-0.4318 0-0.79587 0.35137-0.79587 0.86784 0 0.55456 0.30057 0.83396 0.76624 0.83396 0.22436 0 0.46566-0.13123 0.635-0.34713-0.0127 0.8636-0.33444 1.1599-0.71544 1.1599-0.16933 0-0.33443-0.0847-0.4445-0.2159z"/>
    <path d="m127.45 219.42c0.18627 0.18627 0.45297 0.3683 0.88477 0.3683 0.4699 0 0.91017-0.3302 0.91017-0.9144s-0.37677-0.84667-0.8382-0.84667c-0.1651 0-0.28787 0.0423-0.41487 0.11007l0.072-0.8001h1.0456v-0.30057h-1.3504l-0.0889 1.2996 0.18626 0.11853c0.16087-0.10583 0.27517-0.1651 0.46144-0.1651 0.34713 0 0.57573 0.22013 0.57573 0.59267 0 0.37676-0.26247 0.61806-0.59267 0.61806-0.3175 0-0.5207-0.14816-0.68156-0.30903z"/>
   </g>
   <g aria-label="1990">
    <path d="m104.71 231.64h1.524v-0.28787h-0.5588v-2.413h-0.2667c-0.14817 0.0889-0.32597 0.15664-0.5715 0.19897v0.22437h0.49106v1.9897h-0.61806z"/>
    <path d="m107.47 230.33c-0.33444 0-0.49954-0.22014-0.49954-0.5715 0-0.3556 0.20744-0.59267 0.4699-0.59267 0.3429 0 0.55034 0.2794 0.5969 0.80433-0.18203 0.25824-0.3937 0.35984-0.56726 0.35984zm-0.77894 1.0795c0.14817 0.16086 0.36407 0.28363 0.65194 0.28363 0.53763 0 1.0287-0.4191 1.0287-1.5028 0-0.86784-0.39794-1.2996-0.93134-1.2996-0.4318 0-0.79586 0.35137-0.79586 0.86784 0 0.55456 0.30056 0.83396 0.76623 0.83396 0.22437 0 0.46567-0.13123 0.635-0.34713-0.0127 0.8636-0.33443 1.1599-0.71543 1.1599-0.16934 0-0.33444-0.0847-0.4445-0.2159z"/>
    <path d="m109.57 230.33c-0.33444 0-0.49954-0.22014-0.49954-0.5715 0-0.3556 0.20744-0.59267 0.4699-0.59267 0.3429 0 0.55034 0.2794 0.5969 0.80433-0.18203 0.25824-0.3937 0.35984-0.56726 0.35984zm-0.77894 1.0795c0.14817 0.16086 0.36407 0.28363 0.65194 0.28363 0.53763 0 1.0287-0.4191 1.0287-1.5028 0-0.86784-0.39794-1.2996-0.93134-1.2996-0.4318 0-0.79586 0.35137-0.79586 0.86784 0 0.55456 0.30056 0.83396 0.76623 0.83396 0.22437 0 0.46567-0.13123 0.635-0.34713-0.0127 0.8636-0.33443 1.1599-0.71543 1.1599-0.16934 0-0.33444-0.0847-0.4445-0.2159z"/>
    <path d="m111.73 231.69c0.53764 0 0.8636-0.50377 0.8636-1.4097s-0.32596-1.3928-0.8636-1.3928c-0.54186 0-0.86783 0.48684-0.86783 1.3928s0.32597 1.4097 0.86783 1.4097zm0-0.2794c-0.3175 0-0.52916-0.33867-0.52916-1.1303s0.21166-1.1134 0.52916-1.1134c0.31327 0 0.52494 0.32174 0.52494 1.1134s-0.21167 1.1303-0.52494 1.1303z"/>
   </g>
   <g aria-label="1985">
    <path d="m93.858 247.51h1.524v-0.28787h-0.5588v-2.413h-0.2667c-0.14817 0.0889-0.32597 0.15664-0.5715 0.19897v0.22437h0.49107v1.9897h-0.61807z"/>
    <path d="m96.619 246.2c-0.33443 0-0.49953-0.22014-0.49953-0.5715 0-0.3556 0.20743-0.59267 0.4699-0.59267 0.3429 0 0.55033 0.2794 0.5969 0.80433-0.18203 0.25824-0.3937 0.35984-0.56727 0.35984zm-0.77893 1.0795c0.14817 0.16086 0.36407 0.28363 0.65193 0.28363 0.53763 0 1.0287-0.4191 1.0287-1.5028 0-0.86784-0.39793-1.2996-0.93133-1.2996-0.4318 0-0.79587 0.35137-0.79587 0.86784 0 0.55456 0.30057 0.83396 0.76623 0.83396 0.22437 0 0.46567-0.13123 0.635-0.34713-0.0127 0.8636-0.33443 1.1599-0.71543 1.1599-0.16933 0-0.33443-0.0847-0.4445-0.2159z"/>
    <path d="m98.211 246.79c0-0.24553 0.16087-0.4445 0.37677-0.58843 0.38947 0.15663 0.73237 0.28363 0.73237 0.63076 0 0.2794-0.2159 0.47414-0.52917 0.47414-0.3302 0-0.57997-0.2159-0.57997-0.51647zm0.762-0.7493c-0.32597-0.127-0.6223-0.26247-0.6223-0.5842 0-0.26247 0.18627-0.43603 0.43603-0.43603 0.29633 0 0.4699 0.21166 0.4699 0.47836 0 0.19897-0.1016 0.381-0.28363 0.54187zm-1.0753 0.78317c0 0.42756 0.37677 0.74083 0.88477 0.74083 0.52493 0 0.87207-0.3175 0.87207-0.71967 0-0.36406-0.2286-0.55456-0.4699-0.69426v-0.0169c0.1651-0.127 0.37253-0.3683 0.37253-0.65193 0-0.4191-0.2921-0.71967-0.762-0.71967-0.43603 0-0.76623 0.2794-0.76623 0.69427 0 0.28363 0.1778 0.4826 0.37677 0.6223v0.0169c-0.254 0.13547-0.508 0.37677-0.508 0.72814z"/>
    <path d="m99.93 247.2c0.18627 0.18627 0.45297 0.3683 0.88477 0.3683 0.4699 0 0.91017-0.3302 0.91017-0.9144s-0.37677-0.84667-0.8382-0.84667c-0.1651 0-0.28787 0.0423-0.41487 0.11007l0.072-0.8001h1.0456v-0.30057h-1.3504l-0.0889 1.2996 0.18626 0.11853c0.16087-0.10583 0.27517-0.1651 0.46144-0.1651 0.34713 0 0.57573 0.22013 0.57573 0.59267 0 0.37676-0.26247 0.61806-0.59267 0.61806-0.3175 0-0.5207-0.14816-0.68156-0.30903z"/>
   </g>
   <g aria-label="1980">
    <path d="m90.419 266.56h1.524v-0.28786h-0.5588v-2.413h-0.2667c-0.14817 0.0889-0.32597 0.15663-0.5715 0.19896v0.22437h0.49107v1.9897h-0.61807z"/>
    <path d="m93.179 265.25c-0.33443 0-0.49953-0.22013-0.49953-0.5715 0-0.3556 0.20743-0.59267 0.4699-0.59267 0.3429 0 0.55033 0.2794 0.5969 0.80434-0.18203 0.25823-0.3937 0.35983-0.56727 0.35983zm-0.77893 1.0795c0.14817 0.16087 0.36407 0.28363 0.65193 0.28363 0.53763 0 1.0287-0.4191 1.0287-1.5028 0-0.86783-0.39793-1.2996-0.93133-1.2996-0.4318 0-0.79587 0.35136-0.79587 0.86783 0 0.55457 0.30057 0.83397 0.76623 0.83397 0.22437 0 0.46567-0.13124 0.635-0.34714-0.0127 0.8636-0.33443 1.1599-0.71543 1.1599-0.16933 0-0.33443-0.0847-0.4445-0.2159z"/>
    <path d="m94.771 265.84c0-0.24553 0.16087-0.4445 0.37677-0.58843 0.38947 0.15663 0.73237 0.28363 0.73237 0.63077 0 0.2794-0.2159 0.47413-0.52917 0.47413-0.3302 0-0.57997-0.2159-0.57997-0.51647zm0.762-0.7493c-0.32597-0.127-0.6223-0.26246-0.6223-0.5842 0-0.26246 0.18627-0.43603 0.43603-0.43603 0.29633 0 0.4699 0.21167 0.4699 0.47837 0 0.19896-0.1016 0.381-0.28363 0.54186zm-1.0753 0.78317c0 0.42757 0.37677 0.74083 0.88477 0.74083 0.52493 0 0.87207-0.3175 0.87207-0.71966 0-0.36407-0.2286-0.55457-0.4699-0.69427v-0.0169c0.1651-0.127 0.37253-0.3683 0.37253-0.65194 0-0.4191-0.2921-0.71966-0.762-0.71966-0.43603 0-0.76623 0.2794-0.76623 0.69426 0 0.28364 0.1778 0.4826 0.37677 0.6223v0.0169c-0.254 0.13546-0.508 0.37676-0.508 0.72813z"/>
    <path d="m97.439 266.62c0.53763 0 0.8636-0.50376 0.8636-1.4097 0-0.90593-0.32597-1.3928-0.8636-1.3928-0.54187 0-0.86783 0.48683-0.86783 1.3928 0 0.90594 0.32597 1.4097 0.86783 1.4097zm0-0.2794c-0.3175 0-0.52917-0.33866-0.52917-1.1303 0-0.79163 0.21167-1.1134 0.52917-1.1134 0.31327 0 0.52493 0.32173 0.52493 1.1134 0 0.79164-0.21167 1.1303-0.52493 1.1303z"/>
   </g>
  </g>
  <path d="m31.334 265.43c2.9e-5 -61.429 49.798-111.23 111.23-111.23 61.429-2e-5 111.23 49.798 111.23 111.23" fill="none" stroke="#e9e56f" stroke-linecap="round" stroke-width=".26458"/>
  <g transform="matrix(.26458 0 0 .26458 -114.64 -240.53)" fill="#e9e56f" stroke-linecap="round" aria-label=" MDA           CGA        EGA         VGA          S3 Trio64      S3Virge      3dfx Voodoo  Geforce 256           Geforce 3       Geforce 8800   GTX 480        GTX 1080 TI             RTX 3090        ">
   <path d="m541.22 1911.8 0.0731-2.719-4.7783-0.1285c-1.2795-0.034-3.1853 0.1545-4.4486 0.2605l2e-3 -0.08 3.0469-0.9585 5.1119-1.8633 0.0317-1.1795-5.0039-2.1553-2.9904-1.1408 2e-3 -0.08c1.2558 0.1738 3.1486 0.4648 4.4282 0.4992l4.7783 0.1285 0.0742-2.759-13.035-0.3505-0.0839 3.1189 5.8009 2.2767 2.2582 0.841-2e-3 0.08-2.3001 0.7184-5.9165 2.0217-0.0839 3.1189z"/>
   <path d="m541.7 1896.6 0.22625-3.8533c0.2239-3.8135-1.7224-6.4921-6.1947-6.7547-4.4723-0.2626-6.5989 2.1769-6.8334 6.1701l-0.2157 3.6736zm-2.2024-3.0944-8.2658-0.4853 0.0328-0.559c0.12895-2.1962 1.1752-3.6374 4.2898-3.4545 3.1146 0.1829 4.1049 1.7436 3.9759 3.9398z"/>
   <path d="m537.33 1880.9-1.168-0.4221c-1.2642-0.4705-2.7476-0.96-4.0966-1.3776l7e-3 -0.08c1.3859-0.2417 2.9495-0.4479 4.2756-0.6946l1.2231-0.2156zm5.7414-3.7196 0.26852-3.1085-13.344 2.9626-0.30294 3.5069 12.639 5.2071 0.25819-2.9889-3.0196-1.0638 0.34426-3.9852z"/>
   <path d="m544.23 1826.6c4.2755 0.9511 7.1199-1.2436 7.8539-4.543 0.35177-1.5813 0.0202-3.1303-0.97521-4.4581l-2.0893 1.1948c0.54433 0.7767 0.82833 1.6185 0.59381 2.6727-0.41257 1.8547-2.209 2.7459-4.825 2.1639-2.5575-0.5689-3.7914-2.2981-3.3962-4.0747 0.19978-0.898 0.70534-1.4207 1.4343-1.9347l-1.4248-1.9765c-1.0696 0.6636-2.1458 1.8174-2.4976 3.3987-0.7296 3.2799 1.1092 6.6188 5.3262 7.5569z"/>
   <path d="m546.64 1815.8c4.2478 1.0677 7.1611-1.0871 8.0192-4.5009 0.4437-1.765 0.10156-3.5215-0.46453-4.633l-5.819-1.4627-1.1653 4.6358 2.3276 0.585 0.52658-2.0948 2.1724 0.5461c0.17415 0.3737 0.17828 0.9316 0.0515 1.4359-0.59972 2.3858-2.4101 3.1886-5.0092 2.5353-2.541-0.6387-3.7222-2.4205-3.2346-4.3601 0.27304-1.0862 0.79272-1.5949 1.5355-2.0887l-1.3702-2.0148c-1.068 0.6389-2.1899 1.7386-2.6385 3.523-0.86301 3.4332 0.87885 6.8407 5.0685 7.8939z"/>
   <path d="m551.7 1800.5-1.0684-0.6331c-1.1539-0.6987-2.5195-1.457-3.7667-2.1196l0.0217-0.077c1.4067 0.022 2.9812 0.1118 4.3301 0.1174l1.2418 0.017zm6.3358-2.5802 0.84516-3.0033-13.663 0.4143-0.95352 3.3884 11.442 7.4791 0.81265-2.8879-2.7674-1.6098 1.0835-3.8504z"/>
   <path d="m570.13 1762 3.0977-7.7865-2.3043-0.9167-2.0035 5.0361-2.7875-1.109 1.6413-4.1255-2.2858-0.9094-1.6413 4.1256-2.4344-0.9685 1.9296-4.8503-2.3043-0.9168-3.0238 7.6007z"/>
   <path d="m568.04 1749.9c4.0238 1.7302 7.2428 0.067 8.6333-3.1672 0.71896-1.672 0.66072-3.4604 0.27874-4.6479l-5.512-2.3702-1.8882 4.3912 2.2048 0.9481 0.85327-1.9843 2.0578 0.8848c0.11245 0.3967 0.0277 0.9481-0.17767 1.4258-0.97178 2.2599-2.8868 2.7645-5.3489 1.7058-2.4069-1.035-3.2896-2.982-2.4995-4.8194 0.44244-1.0289 1.0364-1.4483 1.8484-1.8176l-1.032-2.2072c-1.156 0.4608-2.4387 1.3679-3.1656 3.0582-1.3984 3.2521-0.22105 6.8933 3.7476 8.5999z"/>
   <path d="m575.47 1735.5-0.95412-0.795c-1.028-0.8734-2.2556-1.8393-3.3815-2.6919l0.0336-0.072c1.3853 0.2453 2.9254 0.5846 4.2563 0.8047l1.2233 0.2144zm6.6656-1.5393 1.3122-2.8307-13.555-1.7646-1.4804 3.1935 10.106 9.2042 1.2618-2.7218-2.476-2.0296 1.6823-3.629z"/>
   <path d="m603.08 1694.9 1.8429-3.0225-9.0823-10.153-1.5722 2.5785 4.3894 4.4801c1.0146 1.0637 2.0062 1.9729 3.0274 3.0641l-0.0417 0.068c-1.4377-0.4082-2.7001-0.8734-4.1103-1.2882l-6.0136-1.8163-1.6243 2.6639z"/>
   <path d="m601.86 1684.6c3.6762 2.3812 7.1288 1.2815 9.0425-1.6728 0.98945-1.5276 1.2323-3.3004 1.0551-4.5352l-5.0358-3.2619-2.5987 4.0119 2.0143 1.3047 1.1743-1.8129 1.88 1.2178c0.0443 0.41-0.13182 0.9393-0.41452 1.3757-1.3374 2.0647-3.31 2.2406-5.5593 0.7836-2.199-1.4244-2.7422-3.492-1.6549-5.1706 0.6089-0.94 1.2649-1.2538 2.1273-1.4815l-0.64682-2.3492c-1.217 0.2602-2.6337 0.9391-3.6341 2.4834-1.9245 2.9712-1.3752 6.7584 2.2506 9.107z"/>
   <path d="m611.59 1671.7-0.8073-0.9437c-0.86701-1.0334-1.9153-2.1915-2.8822-3.2208l0.0453-0.066c1.3245 0.4742 2.786 1.0669 4.0611 1.5071l1.17 0.4165zm6.8294-0.3998 1.7683-2.5705-13.067-4.0126-1.995 2.9001 8.4197 10.768 1.7003-2.4716-2.1006-2.4161 2.267-3.2955z"/>
   <path d="m645.07 1634.4c1.8168-0.1804 3.4896-1.103 4.6171-2.3753 2.0561-2.32 1.8429-4.9141 0.22639-6.3467-1.3771-1.2204-2.8336-1.175-4.3605-0.417l-1.6099 0.7913c-1.1004 0.5481-1.8803 1.006-2.479 0.4754-0.55382-0.4908-0.44537-1.2766 0.21788-2.025 0.68978-0.7783 1.518-1.1399 2.5824-1.3458l-0.41041-2.3413c-1.581 0.095-3.078 0.8799-4.0729 2.0025-1.7908 2.0207-1.7902 4.6133-0.17369 6.046 1.422 1.2601 3.1091 1.045 4.4153 0.3854l1.6531-0.7798c1.1153-0.5348 1.8007-0.9162 2.4144-0.3723 0.58375 0.5173 0.54503 1.2847-0.26413 2.1977-0.71631 0.8083-1.9313 1.335-3.1402 1.4929z"/>
   <path d="m652.36 1626.3c1.4173 0.063 2.9258-0.4995 4.3301-2.0066 1.7452-1.8729 2.2374-4.3667 0.51078-5.9756-1.1998-1.118-2.6834-1.0515-3.9859-0.2696l-0.0585-0.055c0.50281-1.3904 0.34784-2.5736-0.61789-3.4735-1.6242-1.5134-3.7458-1.0847-5.532 0.8321-1.0635 1.1413-1.4825 2.5004-1.5417 4.0308l2.3258 0.1444c0.0332-1.0625 0.18955-1.8464 0.8031-2.5048 0.68172-0.7316 1.4439-0.7868 2.0877-0.1869 0.74624 0.6953 0.7529 1.6857-0.80143 3.3537l1.5218 1.418c1.8816-2.0192 2.8436-2.0249 3.663-1.2613 0.70235 0.6544 0.5384 1.6225-0.30693 2.5297-0.73626 0.7901-1.7722 1.1097-2.8316 1.1612z"/>
   <path d="m666.18 1614.1 2.0754-2.0824-7.4796-7.4545 2.5272-2.5357-1.7566-1.7506-7.1439 7.1679 1.7566 1.7506 2.5413-2.5498z"/>
   <path d="m671.47 1608.8 2.1186-2.0384-3.9935-4.1508c-0.55432-1.3262-0.22413-2.3099 0.30913-2.823 0.30267-0.2912 0.56046-0.4559 0.88922-0.6335l-1.4151-2.1632c-0.28497 0.1077-0.58545 0.2858-0.98901 0.674-0.73504 0.7072-1.0696 1.9172-0.65941 3.382l-0.0577 0.056-1.3505-1.1152-1.7295 1.6639z"/>
   <path d="m670.54 1594c0.73132-0.682 0.80674-1.6275 0.19291-2.2857-0.61384-0.6582-1.5486-0.6342-2.2799 0.048-0.71669 0.6684-0.82038 1.6129-0.20655 2.271 0.61383 0.6582 1.5769 0.6352 2.2936-0.033zm6.6938 9.3182 2.1501-2.0052-6.7658-7.2547-2.1501 2.0052z"/>
   <path d="m677.51 1596.3c2.2041 2.456 5.1998 2.3206 7.0753 0.6374 1.8606-1.6697 2.3182-4.6333 0.11416-7.0893-2.2041-2.4561-5.1998-2.3206-7.0604-0.6508-1.8755 1.6831-2.3331 4.6467-0.12904 7.1027zm2.2476-2.017c-1.1488-1.2801-1.437-2.4996-0.52897-3.3144 0.89309-0.8015 2.0892-0.3969 3.238 0.8832s1.4221 2.5129 0.52897 3.3143c-0.90798 0.8149-2.0892 0.397-3.238-0.8831z"/>
   <path d="m691.51 1587.9c-0.66941 0.5712-1.7238 0.6296-3.2198-0.723-0.15599-1.0763 0.15579-1.7893 0.64263-2.2048 0.73026-0.6231 1.5873-0.6972 2.4571 0.3222 0.93473 1.0954 0.78949 2.0343 0.12008 2.6056zm-3.0218-9.8575c-1.1408-0.1045-2.5232 0.1549-3.8012 1.2455-2.0386 1.7396-2.5208 4.9643 0.55599 8.57 2.8951 3.3926 5.8694 3.2734 7.7407 1.6765 1.7496-1.4929 2.1585-3.9715 0.44487-5.9798-1.7396-2.0386-3.7616-1.9433-5.4199-0.5282-0.59334 0.5063-1.1055 1.6007-1.0623 2.6681-1.8453-2.3166-1.6425-3.8043-0.57749-4.713 0.56291-0.4804 1.4441-0.6802 2.0904-0.6007z"/>
   <path d="m695.73 1580.1-0.43578-3.2016c-0.17443-0.7858-0.34887-1.5717-0.54174-2.3168l0.0621-0.051c0.47327 0.6463 1.1803 1.6438 1.6972 2.2803l1.2986 1.5991zm5.3407-4.3372-1.1334 0.9204-4.6776-5.7599-2.7946 2.2694 1.2144 8.8558 1.2734 1.5681 4.2695-3.4672 1.9164 2.3598 2.127-1.7273-1.9164-2.3599 1.1334-0.9203z"/>
   <path d="m724.5 1562.8c1.8059 0.2684 3.6533-0.218 5.0573-1.1765 2.5602-1.748 2.9867-4.3156 1.7687-6.0995-1.0375-1.5196-2.4611-1.8311-4.1268-1.4688l-1.7544 0.3745c-1.2009 0.2629-2.069 0.5166-2.5201-0.1441-0.41726-0.6112-0.1203-1.3467 0.70557-1.9106 0.8589-0.5864 1.7504-0.7349 2.8328-0.6748l0.17349-2.3706c-1.5565-0.2935-3.1997 0.1019-4.4385 0.9477-2.2298 1.5225-2.8622 4.0369-1.6442 5.8207 1.0714 1.5692 2.76 1.7724 4.1876 1.4515l1.7934-0.3527c1.2121-0.2464 1.9699-0.4489 2.4323 0.2283 0.43982 0.6442 0.21495 1.3789-0.7926 2.0668-0.89193 0.609-2.1987 0.8232-3.4096 0.6812z"/>
   <path d="m733.55 1556.7c1.359 0.4073 2.9592 0.23 4.689-0.8885 2.1497-1.3901 3.236-3.6882 1.9545-5.67-0.8905-1.3771-2.3453-1.6749-3.7994-1.2348l-0.0434-0.067c0.82711-1.2255 0.96576-2.4107 0.24902-3.5192-1.2054-1.8642-3.3675-1.9666-5.5677-0.544-1.31 0.8471-2.0482 2.0627-2.4793 3.5323l2.2202 0.7079c0.2917-1.0222 0.63467-1.7441 1.3904-2.2328 0.83974-0.543 1.5924-0.4104 2.0702 0.3286 0.55384 0.8565 0.31846 1.8185-1.5961 3.0565l1.1294 1.7467c2.3177-1.4987 3.252-1.2692 3.8602-0.3287 0.52127 0.8061 0.1259 1.7048-0.91538 2.3781-0.90692 0.5865-1.9895 0.6434-3.0295 0.4347z"/>
   <path d="m746.1 1550.6 3.02-1.847-3.4423-13.18-2.5764 1.5757 1.8584 5.9903c0.4167 1.4097 0.88359 2.6714 1.2937 4.1086l-0.0683 0.042c-1.0926-1.0197-2.0031-2.0102-3.0681-3.0233l-4.5201-4.3625-2.6617 1.6278z"/>
   <path d="m748.99 1535.6c0.86299-0.5052 1.1438-1.4111 0.68907-2.1878s-1.372-0.9581-2.235-0.4529c-0.84574 0.4951-1.1539 1.3939-0.69918 2.1706s1.3994 0.9653 2.2451 0.4701zm4.4893 10.559 2.5372-1.4854-5.0117-8.5609-2.5372 1.4853z"/>
   <path d="m758.24 1543.4 2.5598-1.446-2.833-5.0152c-0.2063-1.4224 0.35865-2.2929 1.003-2.6568 0.36569-0.2066 0.65641-0.3019 1.019-0.3919l-0.83132-2.4476c-0.30282 0.033-0.6382 0.1308-1.1258 0.4062-0.88811 0.5017-1.5137 1.5901-1.4815 3.1109l-0.0696 0.039-1.0299-1.4167-2.0897 1.1804z"/>
   <path d="m767.19 1539.8c-0.17042-0.3171-0.1539-0.6665 0.0117-1.1188 0.31974-0.081 0.69101-0.2352 1.29-0.5571l0.89845-0.4829c0.86322-0.4639 1.4146-0.5787 1.7081-0.033 0.32192 0.5989-0.26804 1.5291-1.4308 2.154-1.1627 0.6249-2.1272 0.6892-2.4775 0.037zm-1.9138 1.5509c0.83321 1.5503 2.8138 1.3486 4.8573 0.2503 2.9949-1.6096 4.1697-3.944 3.1945-5.7585-0.84268-1.5679-2.3733-1.5854-4.5226-0.4302l-1.4093 0.7574c-0.96892 0.5208-1.4349 0.4988-1.6716 0.058-0.16096-0.2995-0.15809-0.5054-0.0332-0.8223 0.45385-0.085 0.83459-0.2215 1.1517-0.3919 1.9202-1.0321 2.9334-2.78 1.8541-4.7884-0.24617-0.458-0.59673-0.8145-0.89731-0.9936l1.3917-0.7479-1.0131-1.885-3.1886 1.7137c-0.46331 0.067-0.97684 0.2526-1.4701 0.5177-1.885 1.0131-3.0433 2.998-1.9166 5.0944 0.54916 1.0218 1.5579 1.5468 2.4017 1.6382l0.0379 0.07c-0.35544 0.6906-0.44685 1.5344-0.10599 2.1686 0.3882 0.7223 0.98671 0.991 1.6057 1.0443l0.0379 0.071c-0.5642 0.8935-0.69217 1.7116-0.30396 2.4339zm0.72406-7.9047c-0.68706 0.3692-1.4631 0.1506-1.9838-0.8184-0.50182-0.9337-0.24658-1.6839 0.44047-2.0532 0.68706-0.3692 1.4631-0.1505 1.9554 0.7655 0.52076 0.969 0.27498 1.7368-0.41207 2.1061z"/>
   <path d="m771.35 1530.5c1.4829 2.9257 4.2954 3.6527 6.8286 2.3688 1.0525-0.5335 2.04-1.5049 2.6334-2.5904l-1.6789-1.1447c-0.44329 0.718-0.95037 1.2217-1.6104 1.5562-1.1774 0.5968-2.3678 0.4602-3.2778-0.7602l5.2983-2.6855c-0.055-0.2412-0.21847-0.6965-0.45356-1.1603-1.2207-2.4083-3.4007-3.6128-5.9161-2.3379-2.1229 1.076-3.2793 3.8819-1.8235 6.754zm2.0542-2.1847c-0.41838-1.2678 0.0149-2.1825 0.83551-2.5984 1.0525-0.5335 1.8424-0.037 2.3577 0.9799z"/>
   <path d="m804.82 1518.6c1.2591 0.6539 2.8642 0.7784 4.7725 0 2.3714-0.9644 3.8675-3.0194 2.9785-5.2055-0.61779-1.5192-1.9915-2.0833-3.5021-1.9224l-0.0301-0.074c1.0413-1.0496 1.3988-2.1881 0.90153-3.4108-0.83628-2.0565-2.9413-2.5607-5.3683-1.5737-1.4451 0.5876-2.3972 1.6441-3.0951 3.0075l2.049 1.1098c0.47738-0.9498 0.94907-1.595 1.7828-1.934 0.92633-0.3767 1.641-0.106 1.9725 0.7092 0.38423 0.9449-0.0266 1.846-2.1386 2.7049l0.78354 1.9267c2.5567-1.0397 3.4318-0.6398 3.8537 0.3977 0.36164 0.8892-0.19454 1.6983-1.3432 2.1655-1.0004 0.4068-2.0746 0.2607-3.0574-0.1385z"/>
   <path d="m813.75 1511.3c1.143 3.0317 3.3316 4.3012 5.6334 3.4334 0.89828-0.3387 1.6318-1.1709 2.0399-2.0729l0.0748-0.028 0.53287 0.8464 2.2457-0.8466-4.9459-13.119-2.751 1.0372 1.1924 3.1627 0.6485 1.3799c-0.86206-0.3589-1.6207-0.5004-2.65-0.1123-1.965 0.7408-3.1637 3.2874-2.0207 6.3191zm2.8117-1.1028c-0.66322-1.7591-0.18766-2.8789 0.6919-3.2105 0.50528-0.1905 1.1044-0.2454 1.7603 0.02l1.4323 3.799c-0.21631 0.7869-0.5995 1.1878-1.1984 1.4136-1.0667 0.4022-1.9947-0.1884-2.6862-2.0224z"/>
   <path d="m827.88 1496.6c-0.46817 0-1.2137 0.047-1.9869 0.3196-2.5272 0.8921-2.8788 2.8402-2.1797 4.8204l0.17975 0.5092-1.2114 0.5337 0.72565 2.0557 1.2447-0.4394 2.5365 7.1855 2.7723-0.9787-2.5365-7.1854 1.6785-0.5925-0.7656-2.1689-1.6785 0.5925-0.19973-0.5657c-0.33953-0.9619-0.0766-1.4789 0.60232-1.7185 0.30175-0.1066 0.66785-0.1509 1.0284-0.151z"/>
   <path d="m832.05 1509.9 2.8861-0.9549 0.22538-1.802c0.0457-0.626 0.12931-1.2646 0.18126-1.8717l0.076-0.025c0.47971 0.4312 0.95299 0.9066 1.4327 1.3377l1.4266 1.2554 3.0001-0.9925-4.4191-3.6149 1.1323-5.7465-2.8861 0.9549-0.143 1.7326c-0.033 0.6008-0.0976 1.2331-0.1116 1.8275l-0.076 0.025c-0.44173-0.4437-0.90873-0.9001-1.3315-1.3501l-1.338-1.2426-3.0001 0.9926 4.2104 3.6207z"/>
   <path d="m849.15 1504.4 3.397-0.996 0.11196-13.622-2.898 0.8497 0.23286 6.2677c0.0349 1.4695 0.15677 2.8094 0.17808 4.3037l-0.0768 0.023c-0.789-1.2693-1.4099-2.4629-2.1741-3.7186l-3.2268-5.3898-2.994 0.8778z"/>
   <path d="m855.22 1497.5c0.84746 3.1894 3.5776 4.4299 6.0131 3.7827 2.4162-0.642 4.1704-3.0741 3.323-6.2634-0.84746-3.1893-3.5776-4.4298-5.9937-3.7878-2.4355 0.6471-4.1898 3.0792-3.3423 6.2685zm2.9187-0.7755c-0.44171-1.6623-0.14432-2.8795 1.0348-3.1928 1.1598-0.3082 2.0414 0.5957 2.4832 2.258 0.4417 1.6623 0.12498 2.8847-1.0348 3.1928-1.1791 0.3133-2.0414-0.5957-2.4832-2.258z"/>
   <path d="m866.07 1494.6c0.76447 3.2102 3.4615 4.5211 5.913 3.9373 2.432-0.5791 4.2487-2.9649 3.4843-6.1751-0.76448-3.2102-3.4615-4.5211-5.8935-3.942-2.4514 0.5838-4.2682 2.9696-3.5037 6.1798zm2.9378-0.6996c-0.39845-1.6732-0.0696-2.8823 1.1172-3.1649 1.1674-0.278 2.0253 0.6485 2.4238 2.3217 0.39846 1.6732 0.0502 2.8869-1.1172 3.1649-1.1868 0.2826-2.0253-0.6485-2.4238-2.3217z"/>
   <path d="m877.05 1492c0.66737 3.1705 2.6368 4.7589 5.044 4.2522 0.93942-0.1977 1.7913-0.9084 2.3321-1.7376l0.0783-0.016 0.39757 0.9178 2.3485-0.4943-2.8878-13.719-2.877 0.6056 0.6962 3.3075 0.43051 1.4627c-0.79724-0.4862-1.5255-0.7417-2.6019-0.5151-2.055 0.4325-3.6279 2.7666-2.9606 5.9371zm2.947-0.6612c-0.38724-1.8397 0.25349-2.8738 1.1733-3.0674 0.52842-0.1113 1.1289-0.074 1.7367 0.2884l0.83627 3.973c-0.33376 0.7447-0.7736 1.0825-1.3999 1.2144-1.1156 0.2348-1.9427-0.4904-2.3464-2.4084z"/>
   <path d="m888.33 1489.7c0.59462 3.246 3.219 4.6969 5.6978 4.2428 2.4591-0.4505 4.3988-2.7374 3.8041-5.9834s-3.219-4.6969-5.6781-4.2464c-2.4788 0.4541-4.4184 2.741-3.8238 5.987zm2.9706-0.5442c-0.30992-1.6918 0.0821-2.8819 1.2821-3.1017 1.1804-0.2163 1.9884 0.754 2.2983 2.4459 0.30993 1.6918-0.10172 2.8855-1.2821 3.1017-1.2 0.2199-1.9884-0.754-2.2983-2.4459z"/>
   <path d="m899.37 1487.7c0.5106 3.2603 3.0966 4.7784 5.5863 4.3885 2.4699-0.3868 4.468-2.6229 3.9574-5.8831-0.51059-3.2603-3.0966-4.7785-5.5665-4.3917-2.4897 0.39-4.4877 2.626-3.9772 5.8863zm2.9836-0.4673c-0.26613-1.6993 0.15645-2.8788 1.3618-3.0676 1.1856-0.1857 1.9683 0.8051 2.2344 2.5044s-0.17621 2.882-1.3618 3.0677c-1.2053 0.1887-1.9683-0.8052-2.2344-2.5045z"/>
   <path d="m918.87 1483.4c0.47346 4.3543 3.5057 6.3382 7.005 5.9577 1.8093-0.1968 3.3377-1.1274 4.1836-2.0442l-0.64858-5.9649-4.752 0.5167 0.25943 2.386 2.1473-0.2335 0.24214 2.2269c-0.29002 0.293-0.81172 0.4906-1.3287 0.5468-2.4456 0.2659-3.8271-1.1531-4.1168-3.8174-0.28322-2.6046 0.97755-4.331 2.9658-4.5472 1.1134-0.1211 1.7709 0.1897 2.4919 0.7148l1.4138-1.9844c-0.96997-0.7798-2.3908-1.4501-4.22-1.2512-3.5192 0.3826-6.11 3.1992-5.643 7.4939z"/>
   <path d="m931.64 1483.5c0.26792 3.2691 2.5975 5.0046 5.428 4.7726 1.1761-0.096 2.4573-0.6228 3.4168-1.4038l-1.1221-1.694c-0.68165 0.4973-1.3414 0.7722-2.0789 0.8326-1.3156 0.1078-2.3662-0.4683-2.7478-1.942l5.9202-0.4852c0.0402-0.2441 0.0608-0.7274 0.0183-1.2457-0.22055-2.691-1.7841-4.6297-4.5947-4.3994-2.372 0.1944-4.5026 2.3557-4.2396 5.5649zm2.7273-1.2469c0.0915-1.3319 0.83819-2.0152 1.7551-2.0904 1.1761-0.096 1.7198 0.6618 1.8129 1.798z"/>
   <path d="m948.09 1473.4c-0.44912-0.1322-1.1802-0.287-1.9986-0.2359-2.6748 0.167-3.5457 1.9447-3.4149 4.0406l0.0336 0.539-1.3112 0.182 0.13582 2.1758 1.3174-0.082 0.47476 7.6052 2.9343-0.1832-0.47476-7.6051 1.7765-0.1109-0.1433-2.2956-1.7765 0.1109-0.0374-0.5988c-0.0635-1.018 0.33071-1.4434 1.0493-1.4883 0.31937-0.02 0.68366 0.037 1.0305 0.1361z"/>
   <path d="m948.67 1482.3c0.13855 3.2971 2.5363 5.098 5.0541 4.9922 2.4978-0.1049 4.736-2.1007 4.5974-5.3978-0.13856-3.297-2.5363-5.098-5.0341-4.993-2.5178 0.1058-4.756 2.1015-4.6174 5.3986zm3.0173-0.1268c-0.0722-1.7184 0.48107-2.8427 1.7-2.8939 1.1989-0.05 1.8646 1.0226 1.9368 2.7411 0.0722 1.7185-0.50105 2.8436-1.7 2.8939-1.2189 0.051-1.8646-1.0226-1.9368-2.7411z"/>
   <path d="m960.55 1486.8 2.9394-0.06-0.11767-5.7588c0.49251-1.3503 1.4025-1.849 2.1424-1.8641 0.41991-0.01 0.72108 0.045 1.083 0.1379l0.42801-2.5493c-0.2824-0.1143-0.62396-0.1873-1.1838-0.1759-1.0198 0.021-2.0865 0.6828-2.779 2.0372h-0.08l-0.2355-1.7356-2.3995 0.049z"/>
   <path d="m967.73 1481.7c5e-3 3.3 2.1482 5.1967 4.9082 5.1923 1.08 0 2.3394-0.4037 3.298-1.2452l-1.1829-1.8581c-0.4794 0.3807-1.0589 0.7216-1.7789 0.7228-1.28 0-2.2217-1.0965-2.2244-2.8165-3e-3 -1.72 0.89556-2.8214 2.3156-2.8237 0.46-7e-4 0.90029 0.1786 1.3809 0.5779l1.3371-1.8222c-0.66107-0.6789-1.6818-1.1373-2.9018-1.1354-2.74 0-5.157 1.9081-5.1518 5.2081z"/>
   <path d="m976.63 1481.7c-0.0663 3.2793 2.0745 5.243 4.9139 5.3004 1.1798 0.024 2.508-0.3694 3.5419-1.0487l-0.94382-1.7994c-0.72875 0.4253-1.413 0.6316-2.1529 0.6166-1.3197-0.027-2.3062-0.7068-2.5358-2.2117l5.9388 0.12c0.0648-0.2387 0.13453-0.7174 0.14504-1.2373 0.0546-2.6994-1.3035-4.7873-4.1229-4.8443-2.3795-0.048-4.7191 1.885-4.7841 5.1044zm2.84-0.9628c0.22664-1.3157 1.039-1.9194 1.9588-1.9008 1.1798 0.024 1.6435 0.8334 1.6204 1.9731z"/>
   <path d="m991.07 1487 8.9271 0.4798 0.1331-2.4765-2.5563-0.1373c-0.59913-0.032-1.4822 4e-4 -2.1255 0.046 2.173-2.0464 4.2924-4.2158 4.4073-6.3527 0.13094-2.4365-1.4808-4.1254-3.9772-4.2595-1.8174-0.098-3.0322 0.518-4.3623 1.7884l1.5129 1.6636c0.67557-0.6447 1.4078-1.2262 2.3265-1.1768 1.0984 0.059 1.7609 0.7756 1.6944 2.0138-0.0966 1.7974-2.4903 3.8519-5.8898 6.7336z"/>
   <path d="m1001.4 1486c0.9191 1.0748 2.2541 1.9615 4.3278 2.1235 2.4724 0.1931 4.772-1.2522 4.9916-4.0637 0.2102-2.6918-1.5476-4.0728-3.721-4.2426-0.5184-0.041-0.9433 0.01-1.439 0.1885l0.4046-2.3556 4.6459 0.3628 0.1931-2.4724-7.1781-0.5607-0.8589 6.3725 1.2506 0.9402c0.7951-0.4193 1.1864-0.5493 1.9242-0.4916 1.1764 0.092 1.9409 0.8336 1.8413 2.1097-0.1013 1.2961-0.9917 1.9086-2.2877 1.8074-1.0768-0.084-1.9304-0.7125-2.6336-1.4695z"/>
   <path d="m1017.1 1487c-0.8754-0.09-1.6457-0.8123-1.7001-2.8284 0.671-0.8559 1.402-1.1227 2.0387-1.0573 0.955 0.098 1.6002 0.6669 1.4634 1.9999-0.1471 1.4325-0.9266 1.9757-1.802 1.8858zm5.0446-8.9918c-0.7121-0.8974-1.8542-1.7184-3.5254-1.8899-2.666-0.2737-5.3317 1.6039-5.8157 6.3191-0.4555 4.4367 1.6844 6.506 4.1315 6.7572 2.288 0.2349 4.3634-1.1805 4.633-3.8067 0.2737-2.666-1.1913-4.0629-3.3599-4.2856-0.776-0.08-1.9213 0.3054-2.6636 1.0737 0.4018-2.9344 1.618-3.8148 3.0107-3.6718 0.7361 0.076 1.4891 0.5751 1.8777 1.0975z"/>
   <path d="m1069.6 1491.1c-1.0258 4.2582 1.1577 7.15 4.5799 7.9744 1.7693 0.4262 3.5223 0.067 4.6282-0.5103l1.4051-5.8332-4.6471-1.1194-0.562 2.3332 2.0999 0.5059-0.5246 2.1777c-0.372 0.1778-0.9297 0.1875-1.4353 0.066-2.3916-0.5761-3.2123-2.3784-2.5847-4.9839 0.6136-2.5472 2.3836-3.746 4.328-3.2776 1.0888 0.2623 1.6026 0.7769 2.1037 1.5148l2.0012-1.39c-0.6494-1.0616-1.7601-2.1726-3.549-2.6035-3.4415-0.8291-6.8316 0.9464-7.8433 5.1462z"/>
   <path d="m1081.6 1495.5c-0.8535 3.1671 0.7518 5.5882 3.494 6.3271 1.1393 0.3071 2.5231 0.245 3.6902-0.1654l-0.4831-1.9737c-0.8097 0.2375-1.5235 0.2729-2.238 0.08-1.2746-0.3435-2.0684-1.241-1.9291-2.7569l5.7354 1.5456c0.1203-0.2161 0.3032-0.664 0.4385-1.1661 0.7025-2.607-0.1132-4.9603-2.8361-5.6941-2.298-0.6193-5.034 0.6941-5.8718 3.8031zm2.9882-0.251c0.5366-1.2225 1.4704-1.613 2.3587-1.3736 1.1394 0.307 1.3947 1.2044 1.098 2.3051z"/>
   <path d="m1100.5 1491.5c-0.3779-0.2765-1.0134-0.6695-1.8008-0.8985-2.5734-0.7483-3.9947 0.6297-4.581 2.6462l-0.1508 0.5185-1.2954-0.2725-0.6087 2.0933 1.2675 0.3685-2.1275 7.317 2.823 0.8209 2.1276-7.317 1.7092 0.497 0.6422-2.2085-1.7092-0.497 0.1675-0.5762c0.2848-0.9794 0.7998-1.2462 1.4912-1.0452 0.3072 0.089 0.6306 0.2667 0.9235 0.4768z"/>
   <path d="m1098 1500.1c-0.9869 3.149 0.6587 5.6558 3.0634 6.4095 2.3856 0.7476 5.1676-0.3716 6.1545-3.5205 0.9869-3.149-0.6587-5.6559-3.0442-6.4035-2.4047-0.7537-5.1868 0.3655-6.1737 3.5145zm2.8818 0.9032c0.5144-1.6413 1.4159-2.5115 2.5801-2.1467 1.1451 0.3589 1.4077 1.594 0.8933 3.2353s-1.435 2.5055-2.5801 2.1466c-1.1641-0.3648-1.4077-1.5939-0.8933-3.2352z"/>
   <path d="m1107.6 1508.4 2.7854 0.9409 1.8435-5.457c0.9215-1.1031 1.9467-1.2634 2.6478-1.0266 0.3979 0.1344 0.6629 0.2873 0.972 0.4972l1.2676-2.2527c-0.2268-0.2033-0.5233-0.3879-1.0539-0.5672-0.9663-0.3264-2.1943-0.066-3.3053 0.9733l-0.076-0.026 0.3674-1.7124-2.2738-0.7682z"/>
   <path d="m1116.1 1506c-1.1165 3.1054 0.2545 5.6174 2.8517 6.5512 1.0163 0.3654 2.3373 0.4153 3.5249-0.05l-0.4811-2.1495c-0.5802 0.1952-1.2411 0.3189-1.9186 0.075-1.2045-0.4331-1.7169-1.7863-1.135-3.4048 0.582-1.6186 1.8011-2.3492 3.1373-1.8688 0.4329 0.1556 0.786 0.4739 1.1024 1.0127l1.8767-1.2593c-0.391-0.8632-1.1952-1.6412-2.3432-2.0539-2.5784-0.9271-5.4986 0.042-6.6151 3.1475z"/>
   <path d="m1124.5 1509c-1.1785 3.061 0.166 5.636 2.8164 6.6565 1.1012 0.4239 2.4839 0.5063 3.6873 0.2195l-0.275-2.0132c-0.83 0.1519-1.5436 0.1129-2.2342-0.153-1.2318-0.4743-1.9279-1.4495-1.6316-2.9428l5.5433 2.1343c0.1423-0.2024 0.3707-0.6288 0.5576-1.1141 0.9701-2.5197 0.4037-4.9452-2.2279-5.9584-2.2211-0.8551-5.0789 0.1662-6.2359 3.1712zm2.9982 0.061c0.6609-1.16 1.6302-1.4512 2.4888-1.1206 1.1012 0.424 1.2617 1.343 0.8521 2.4069z"/>
   <path d="m1136.6 1517.4c0.4246 1.3537 1.4684 2.5794 3.3644 3.3848 2.3562 1.0009 4.8682 0.6121 5.791-1.56 0.6412-1.5094 0.072-2.8811-1.1074-3.8385l0.031-0.074c1.4785 0 2.5377-0.5517 3.0538-1.7667 0.868-2.0433-0.2593-3.8911-2.6707-4.9155-1.4358-0.6099-2.8564-0.5397-4.315-0.073l0.6584 2.2354c1.01-0.3315 1.8001-0.4522 2.6285-0.1003 0.9204 0.391 1.2325 1.0886 0.8884 1.8985-0.3988 0.9388-1.3274 1.2832-3.4259 0.3917l-0.8132 1.9144c2.5403 1.0792 2.8741 1.9815 2.4362 3.0123-0.3754 0.8836-1.3412 1.06-2.4825 0.5752-0.9941-0.4223-1.6481-1.2868-2.0583-2.265z"/>
   <path d="m1175.5 1530.3c-2.0885 3.85-0.7239 7.2068 2.3702 8.8852 1.5997 0.8678 3.3861 0.9722 4.6034 0.6996l2.8608-5.274-4.2016-2.2792-1.1443 2.1096 1.8986 1.0299-1.0681 1.969c-0.4052 0.076-0.9466-0.058-1.4037-0.3064-2.1624-1.173-2.4909-3.1259-1.2131-5.4817 1.2493-2.303 3.2684-3.0052 5.0264-2.0515 0.9845 0.534 1.3483 1.1636 1.6424 2.0057l2.2918-0.8273c-0.354-1.1931-1.1408-2.5528-2.7582-3.4302-3.1117-1.6879-6.8448-0.846-8.9046 2.9513z"/>
   <path d="m1186 1537.6c-1.6404 2.8404-0.7128 5.5933 1.7465 7.0136 1.0218 0.5901 2.375 0.8866 3.6083 0.7905l0.042-2.0315c-0.8436 0.021-1.5424-0.1286-2.1833-0.4987-1.143-0.6602-1.6789-1.7318-1.1539-3.1608l5.1438 2.9707c0.172-0.1779 0.464-0.5635 0.7241-1.0138 1.3503-2.3381 1.1681-4.8221-1.2739-6.2325-2.061-1.1902-5.0429-0.6259-6.6532 2.1625zm2.9521 0.5271c0.8333-1.0431 1.8362-1.1799 2.6328-0.7198 1.0219 0.5901 1.0375 1.523 0.4673 2.5102z"/>
   <path d="m1205.3 1538.7c-0.294-0.3644-0.8069-0.9079-1.5088-1.3318-2.2941-1.3855-4.0221-0.4198-5.1078 1.3777l-0.2792 0.4623-1.1816-0.5968-1.127 1.866 1.1299 0.6825-3.9394 6.5226 2.5166 1.52 3.9394-6.5227 1.5237 0.9202 1.1891-1.9688-1.5237-0.9202 0.3102-0.5136c0.5273-0.8731 1.0936-0.9984 1.7099-0.6262 0.2739 0.1655 0.5407 0.4201 0.7697 0.6986z"/>
   <path d="m1200.7 1546.3c-1.7638 2.7891-0.8185 5.635 1.3114 6.9819 2.1129 1.3362 5.0893 0.9703 6.8531-1.8188 1.7637-2.7891 0.8184-5.6349-1.2945-6.9711-2.1299-1.3469-5.1062-0.9811-6.87 1.808zm2.5525 1.6142c0.9193-1.4537 2.0143-2.0627 3.0454-1.4107 1.0142 0.6414 0.9503 1.9025 0.031 3.3562s-2.0312 2.052-3.0455 1.4106c-1.0311-0.652-0.9503-1.9024-0.031-3.3561z"/>
   <path d="m1207.9 1556.8 2.4499 1.6253 3.1843-4.7997c1.1741-0.8291 2.2061-0.7205 2.8228-0.3114 0.35 0.2322 0.5668 0.448 0.8115 0.7304l1.8042-1.8512c-0.167-0.2548-0.4061-0.5094-0.8728-0.819-0.8499-0.5639-2.1037-0.6277-3.4445 0.091l-0.067-0.044 0.7953-1.5605-1.9999-1.3268z"/>
   <path d="m1216.7 1556.7c-1.8768 2.7144-1.1971 5.4942 1.0731 7.0639 0.8883 0.6142 2.1522 1.0018 3.4195 0.8568l0.087-2.201c-0.6109 0.04-1.2813-0.011-1.8735-0.4201-1.0529-0.7279-1.2005-2.1673-0.2223-3.5821 0.9782-1.4147 2.3441-1.8077 3.5121-1.0001 0.3783 0.2616 0.6379 0.6599 0.8052 1.2619l2.1373-0.7349c-0.1562-0.9347-0.7336-1.8932-1.737-2.587-2.2538-1.5583-5.3249-1.3718-7.2016 1.3426z"/>
   <path d="m1224 1561.8c-1.9246 2.6559-1.286 5.4898 1.0136 7.1563 0.9555 0.6924 2.2708 1.1269 3.5075 1.1586l0.2509-2.0164c-0.8412-0.066-1.5209-0.287-2.1201-0.7213-1.0688-0.7745-1.4913-1.8958-0.8216-3.2629l4.8098 3.4855c0.1894-0.1591 0.5197-0.5126 0.8248-0.9336 1.5843-2.1863 1.6595-4.6759-0.624-6.3307-1.9271-1.3965-4.9514-1.1429-6.8409 1.4645zm2.882 0.8288c0.9365-0.9515 1.9481-0.9841 2.6931-0.4442 0.9555 0.6924 0.8747 1.6218 0.2058 2.5449z"/>
   <path d="m1237.1 1573.2c0.4788-0.6157 1.2524-0.9263 2.0136-0.9931 0.8457 1.519 1.4405 2.5135 0.753 3.3977-0.6507 0.8368-1.5383 0.8053-2.3119 0.2037-0.8368-0.6506-1.1422-1.7241-0.4547-2.6083zm4.4764-1.3582c-0.7194-1.1928-1.1071-2.1276-0.4688-2.9487 0.6016-0.7736 1.4015-0.7597 2.0172-0.2809 0.7579 0.5893 0.8106 1.4664 0.2091 2.24-0.4052 0.521-1.0068 0.8386-1.7575 0.9896zm-6.6744 0.08c-1.2645 1.6262-0.652 3.9012 1.3531 5.4603 2.1315 1.6574 4.4855 1.5624 5.7132-0.016 1.0312-1.3262 0.8591-2.7014 0.3012-3.9713l0.049-0.063c1.0507 0.082 2.268-0.2125 3.0169-1.1756 1.289-1.6579 0.9204-3.6926-0.9111-5.1167-1.863-1.4486-4.0276-1.4343-5.3535 0.2708-0.8225 1.0579-0.8189 2.2261-0.4995 3.4119l-0.049 0.063c-1.3402-0.2314-2.675-0.079-3.6203 1.1372z"/>
   <path d="m1245.4 1579.8c0.4937-0.604 1.2745-0.8956 2.0372-0.9438 0.8084 1.5391 1.3788 2.5478 0.67 3.415-0.6709 0.8207-1.5574 0.7676-2.3162 0.1474-0.8207-0.6709-1.0998-1.7515-0.391-2.6186zm4.5081-1.2489c-0.6901-1.2098-1.0549-2.1539-0.3967-2.9591 0.6202-0.7588 1.4195-0.7254 2.0234-0.2317 0.7433 0.6076 0.7746 1.4856 0.1544 2.2444-0.4177 0.511-1.0269 0.8138-1.7811 0.9464zm-6.6743-0.083c-1.3038 1.595-0.7469 3.8842 1.2197 5.4918 2.0904 1.7088 4.446 1.6711 5.7118 0.1226 1.0633-1.3007 0.9247-2.6797 0.3979-3.9628l0.051-0.062c1.0484 0.1079 2.2726-0.1572 3.0447-1.1018 1.329-1.6259 1.0101-3.669-0.7862-5.1373-1.8272-1.4936-3.9915-1.532-5.3585 0.1403-0.8481 1.0375-0.8729 2.2055-0.5824 3.3987l-0.051 0.062c-1.3341-0.2639-2.6723-0.1437-3.6469 1.0486z"/>
   <path d="m1252.6 1590.7c2.0634 1.7722 4.9556 1.1981 7.7703-2.0791s2.8805-6.1471 0.8171-7.9193-4.8905-1.2739-7.7052 2.0032c-2.8147 3.2772-2.9456 6.223-0.8822 7.9952zm1.4855-1.7296c-0.7434-0.6385-0.7488-1.8295 1.5056-4.4543 2.2674-2.6399 3.3673-2.7234 4.1108-2.0849 0.7586 0.6516 0.8269 1.7384-1.4405 4.3784-2.2544 2.6248-3.4173 2.8123-4.1759 2.1608z"/>
   <path d="m1260.5 1597.7c2.0197 1.8219 4.9251 1.3183 7.8187-1.8894s3.0292-6.0752 1.0095-7.8971-4.8581-1.3926-7.7517 1.8152c-2.8936 3.2077-3.0962 6.1494-1.0765 7.9713zm1.5272-1.693c-0.7277-0.6564-0.704-1.8471 1.6136-4.4162 2.3309-2.584 3.4325-2.6408 4.1602-1.9843 0.7426 0.6698 0.7844 1.758-1.5466 4.342-2.3175 2.5691-3.4847 2.7284-4.2272 2.0585z"/>
   <path d="m1278.8 1605.8c-3.1092 3.085-2.7696 6.6926-0.2903 9.1913 1.2819 1.2919 2.9625 1.9066 4.2066 1.9962l4.2591-4.2261-3.3668-3.3931-1.7036 1.6905 1.5214 1.5333-1.5901 1.5777c-0.4099-0.044-0.8897-0.3287-1.2559-0.6978-1.7327-1.7463-1.4847-3.7111 0.4177-5.5987 1.8598-1.8454 3.9956-1.9361 5.4044-0.5164 0.7888 0.795 0.9558 1.5028 0.9947 2.3939l2.433-0.132c0-1.2445-0.3569-2.7733-1.6529-4.0794-2.4934-2.5129-6.3108-2.7823-9.3773 0.2606z"/>
   <path d="m1285.1 1621.4 2.0146 2.1413 7.691-7.2362 2.4532 2.6074 1.8062-1.6994-6.9346-7.3706-1.8062 1.6994 2.4668 2.622z"/>
   <path d="m1289.8 1626.4 2.0928 2.3408 2.7962-0.8634c0.7069-0.2296 1.3855-0.4607 2.1952-0.7554l0.053 0.06c-0.3697 0.7866-0.6618 1.4502-0.9421 2.1569l-1.1299 2.7271 2.1862 2.4453 2.4909-7.0561 7.0837-1.7993-2.0929-2.3408-2.5271 0.8643c-0.6206 0.2061-1.3008 0.4655-2.1121 0.7883l-0.053-0.06c0.3581-0.8298 0.6784-1.4918 0.9257-2.1153l1.0874-2.4746-2.1995-2.4601-2.4602 6.7603z"/>
   <path d="m1306 1636.9 3.1959-0.476c0.7836-0.1842 1.5672-0.3685 2.3098-0.5708l0.051 0.062c-0.6402 0.4814-1.6287 1.2008-2.2587 1.7257l-1.5827 1.3186zm4.4039 5.2858-0.9345-1.1217 5.7007-4.7495-2.3044-2.7659-8.8398 1.3255-1.5519 1.2931 3.5205 4.2255-2.3356 1.946 1.7539 2.1051 2.3356-1.9459 0.9346 1.1217z"/>
   <path d="m1311.6 1646.3c0.6112-0.4845 1.4364-0.6027 2.1917-0.4869 0.4611 1.6763 0.8028 2.7836-0.075 3.4793-0.8306 0.6585-1.6854 0.4173-2.2942-0.3507-0.6584-0.8307-0.7003-1.946 0.1774-2.6417zm4.6708-0.2571c-0.4158-1.3294-0.5706-2.3296 0.2444-2.9756 0.768-0.6088 1.5417-0.4055 2.0262 0.2058 0.5964 0.7523 0.4395 1.6168-0.3285 2.2256-0.5172 0.41-1.177 0.5757-1.9421 0.5442zm-6.5027-1.5065c-1.6143 1.2797-1.5592 3.635 0.019 5.6255 1.6772 2.1159 3.9866 2.5822 5.5539 1.3398 1.3165-1.0436 1.4757-2.4204 1.235-3.7864l0.063-0.05c1.0012 0.3293 2.2537 0.3318 3.2098-0.4261 1.6456-1.3045 1.7704-3.3686 0.3292-5.1866-1.466-1.8495-3.5721-2.3493-5.2648-1.0075-1.0501 0.8324-1.3238 1.9682-1.2949 3.1958l-0.063 0.05c-1.247-0.5428-2.58-0.7111-3.7868 0.2455z"/>
   <path d="m1316.2 1658.6c1.6372 2.172 4.5853 2.229 8.0351-0.3713s4.1271-5.39 2.4899-7.562c-1.6373-2.1721-4.5056-2.2892-7.9553 0.3111-3.4498 2.6003-4.207 5.4501-2.5697 7.6222zm1.8207-1.3724c-0.5899-0.7826-0.3407-1.9472 2.4223-4.0298 2.779-2.0947 3.8714-1.9413 4.4612-1.1588 0.602 0.7986 0.4365 1.875-2.3424 3.9697-2.763 2.0826-3.9392 2.0174-4.5411 1.2189z"/>
   <path d="m1344.3 1687.8c-3.7524 2.2592-4.2786 5.8443-2.463 8.86 0.9387 1.5592 2.4254 2.5551 3.6128 2.9374l5.1403-3.0948-2.4655-4.095-2.0562 1.2379 1.1142 1.8505-1.9191 1.1553c-0.3878-0.14-0.7862-0.5304-1.0545-0.9759-1.2688-2.1075-0.5616-3.9573 1.7344-5.3397 2.2446-1.3514 4.3409-0.9326 5.3725 0.7808 0.5777 0.9595 0.5719 1.6867 0.3983 2.5616l2.3948 0.4491c0.3-1.2078 0.3114-2.7788-0.6377-4.3551-1.8259-3.0328-5.4703-4.2003-9.1713-1.9721z"/>
   <path d="m1346.7 1704.4 1.4485 2.5585 9.1894-5.2028 1.7638 3.1154 2.1581-1.2219-4.9859-8.8065-2.1581 1.2219 1.7736 3.1327z"/>
   <path d="m1350.1 1710.4 1.4765 2.7711 2.9213-0.1741c0.7412-0.055 1.4553-0.1182 2.3118-0.212l0.038 0.071c-0.5461 0.6763-0.9875 1.2514-1.4278 1.8712l-1.7456 2.3805 1.5423 2.8947 4.0967-6.2618 7.3082-0.064-1.4765-2.7712-2.6601 0.2389c-0.6518 0.053-1.3742 0.143-2.2389 0.2638l-0.038-0.071c0.545-0.721 1.0134-1.2878 1.4019-1.8347l1.6444-2.1452-1.5518-2.9124-3.9965 5.9819z"/>
   <path d="m1357.8 1725.2 3.5461 7.2603 2.1386-1.0446-1.0445-2.1385 9.273-4.5292-0.948-1.9409c-0.8802-0.5717-1.5899-1.2044-2.4292-2.3303l-1.6353 0.7988 1.0445 2.1385-6.5953 3.2214-1.2113-2.48z"/>
   <path d="m1363.8 1738.3c1.1332 2.4727 4.0006 3.1606 7.9277 1.3606 3.9272-1.7999 5.187-4.3794 4.0538-6.852-1.1333-2.4727-3.9098-3.2022-7.8369-1.4023-3.9272 1.7999-5.2779 4.4211-4.1446 6.8937zm2.0726-0.9499c-0.4083-0.8909 0.085-1.975 3.2303-3.4166 3.1635-1.4499 4.1976-1.0658 4.6059-0.175 0.4166 0.9091 0.024 1.925-3.1393 3.3749-3.1454 1.4416-4.2802 1.1257-4.6969 0.2167z"/>
   <path d="m1370.8 1744.7c0.7168-0.3074 1.5441-0.2052 2.2427 0.1045 0.01 1.7385 0.045 2.8966-0.9839 3.3381-0.9742 0.4178-1.7359-0.039-2.1222-0.9396-0.4178-0.9742-0.166-2.0615 0.8634-2.503zm4.5749 0.9758c-0.053-1.3918 0.06-2.3976 1.0156-2.8076 0.9007-0.3862 1.5941 0.013 1.9015 0.7296 0.3784 0.8823 5e-4 1.6755-0.9002 2.0618-0.6066 0.2601-1.2867 0.2471-2.0169 0.016zm-5.8807-3.1577c-1.8932 0.8119-2.4572 3.0994-1.4561 5.4338 1.0642 2.4814 3.1706 3.5366 5.0087 2.7483 1.544-0.6622 2.0584-1.9491 2.1841-3.3305l0.073-0.032c0.8799 0.5801 2.088 0.9107 3.2093 0.4299 1.93-0.8277 2.5913-2.787 1.6769-4.9192-0.9302-2.1689-2.8318-3.2032-4.817-2.3518-1.2315 0.5282-1.7932 1.5525-2.087 2.7448l-0.074 0.032c-1.0611-0.8506-2.3034-1.3624-3.7188-0.7554z"/>
   <path d="m1372.1 1757.7c1.0102 2.5254 3.8402 3.3536 7.8512 1.7492s5.3963-4.1187 4.3861-6.6442c-1.0102-2.5254-3.7473-3.3908-7.7583-1.7863-4.0111 1.6044-5.4892 4.1558-4.479 6.6813zm2.1169-0.8468c-0.3639-0.9099 0.182-1.9684 3.3945-3.2534 3.2311-1.2924 4.245-0.8579 4.609 0.052 0.3714 0.9285-0.071 1.9238-3.3017 3.2163-3.2125 1.285-4.3304 0.9136-4.7018-0.015z"/>
   <path d="m1377.2 1770.2 0.9955 2.7663 9.9362-3.5758 1.2123 3.3685 2.3335-0.8397-3.4268-9.5222-2.3335 0.8398 1.219 3.3873z"/>
   <path d="m1380 1778.3 0.9464 2.8047 12.356-4.1692-0.9463-2.8046z"/>
   <path d="m1406.5 1837.6 0.2648 1.4764c0.272 1.5158-0.013 2.4203-1.2727 2.6463-1.2598 0.2261-2.0578-0.4842-2.3297-2l-0.2649-1.4764zm-9.2252 9.1731 4.6188-3.8155c0.854 1.2488 2.2208 1.9586 4.1106 1.6196 3.0513-0.5475 3.5936-2.9611 3.1063-5.6778l-0.83-4.6261-12.835 2.3026 0.5227 2.9135 4.6262-0.8299 0.2825 1.5748-4.1847 3.2907z"/>
   <path d="m1397.9 1850.8 0.4428 2.9064 10.44-1.5905 0.5392 3.5392 2.4518-0.3736-1.5243-10.004-2.4517 0.3735 0.5422 3.5589z"/>
   <path d="m1398.9 1857.6 0.3934 3.1153 2.7919 0.8771c0.7122 0.2124 1.4021 0.4075 2.2359 0.6248l0.01 0.079c-0.7511 0.4375-1.3683 0.8178-2.0004 1.2403l-2.4786 1.6032 0.4109 3.2542 6.0573-4.3935 6.8524 2.5415-0.3934-3.1152-2.5709-0.7237c-0.6279-0.1827-1.3351-0.3555-2.1862-0.5504l-0.01-0.079c0.7659-0.4797 1.4055-0.8427 1.9632-1.2155l2.3003-1.4194-0.4135-3.274-5.8641 4.1675z"/>
   <path d="m1402.3 1873.1c-0.9923 1.014-1.5791 2.5132-1.3926 4.5648 0.2317 2.5495 1.7617 4.5793 4.112 4.3657 1.6333-0.1484 2.5731-1.2982 2.8592-2.7902l0.08-0.01c0.7007 1.302 1.6857 1.9756 3.0003 1.8561 2.2109-0.2009 3.3064-2.0677 3.0693-4.677-0.1412-1.5536-0.8745-2.7722-1.9754-3.8369l-1.6587 1.6368c0.7696 0.7334 1.2494 1.3726 1.3308 2.2689 0.091 0.9959-0.3766 1.6006-1.253 1.6803-1.0158 0.092-1.7582-0.5632-1.9646-2.8338l-2.0714 0.1882c0.2498 2.7487-0.3876 3.4693-1.503 3.5707-0.9561 0.087-1.5681-0.6809-1.6803-1.9158-0.098-1.0756 0.3549-2.0606 1.0231-2.8844z"/>
   <path d="m1401.8 1888.6c0.1802 2.714 2.6157 4.3763 6.9262 4.09 4.3106-0.2863 6.4051-2.2495 6.2248-4.9635s-2.516-4.3829-6.8265-4.0966-6.5048 2.2561-6.3245 4.9701zm2.275-0.1511c-0.065-0.9778 0.7813-1.8158 4.2337-2.0451 3.4724-0.2306 4.3024 0.496 4.3673 1.4738 0.066 0.9978-0.6616 1.8079-4.134 2.0385-3.4524 0.2293-4.4008-0.4694-4.467-1.4672z"/>
   <path d="m1409.4 1898.5c-0.04-0.9592 0.4288-1.6996 1.7676-1.756 1.4387-0.061 2.0893 0.6526 2.1255 1.5119 0.038 0.8992-0.567 1.7454-2.5543 2.0893-0.9427-0.5207-1.3119-1.2058-1.3388-1.8452zm-5.7311-3.9423c-0.7656 0.833-1.4327 2.1022-1.362 3.7807 0.112 2.6577 2.3545 5.0454 7.0903 4.8458 4.456-0.1877 6.195-2.6231 6.0915-5.0809-0.097-2.298-1.7962-4.1481-4.4339-4.0369-2.6776 0.1128-3.8483 1.7836-3.7574 3.9416 0.033 0.7794 0.5787 1.8573 1.4457 2.4814-2.9616 0.025-4.007-1.0322-4.0667-2.451-0.031-0.7393 0.3547-1.5563 0.8166-1.9961z"/>
   <path d="m1402.7 1909.6c0.049 2.7195 2.4014 4.4975 6.7207 4.4197 4.3193-0.078 6.5061-1.9375 6.4572-4.657-0.049-2.7196-2.3014-4.4993-6.6207-4.4215-4.3193 0.078-6.6062 1.9392-6.5572 4.6588zm2.2796-0.041c-0.018-0.9798 0.8682-1.7759 4.3276-1.8382 3.4795-0.063 4.2734 0.7032 4.291 1.683 0.018 0.9999-0.7481 1.7738-4.2276 1.8364-3.4594 0.062-4.373-0.6813-4.391-1.6812z"/>
  </g>
 </g>
</svg>
