<?xml version="1.0" encoding="UTF-8"?>
<svg width="151mm" height="65.347mm" version="1.1" viewBox="0 0 151 65.347" xmlns="http://www.w3.org/2000/svg" xmlns:cc="http://creativecommons.org/ns#" xmlns:dc="http://purl.org/dc/elements/1.1/" xmlns:rdf="http://www.w3.org/1999/02/22-rdf-syntax-ns#">
 <metadata>
  <rdf:RDF>
   <cc:Work rdf:about="">
    <dc:format>image/svg+xml</dc:format>
    <dc:type rdf:resource="http://purl.org/dc/dcmitype/StillImage"/>
    <dc:title/>
   </cc:Work>
  </rdf:RDF>
 </metadata>
 <g transform="translate(99.704 -119.14)">
  <g fill="none" stroke="#009244" stroke-dashoffset="1.2" stroke-linecap="square" stroke-miterlimit="40" stroke-width=".26458">
   <path d="m-99.572 135.67v-2.9104h2.9104" style="paint-order:normal"/>
   <path d="m-69.145 135.67v-2.9104h-2.9104" style="paint-order:normal"/>
   <path d="m-99.572 144.41v2.9104h2.9104" style="paint-order:normal"/>
   <path d="m-69.145 144.41v2.9104h-2.9104" style="paint-order:normal"/>
  </g>
  <rect x="-99.043" y="133.29" width="29.369" height="13.494" fill="#1d232d"/>
  <g fill="#e8eaec" stroke-linecap="round" stroke-width=".26458" aria-label="Object A">
   <path d="m-89.46 141.54c0.60748 0 1.0372-0.48895 1.0372-1.2705 0-0.77417-0.42968-1.2483-1.0372-1.2483-0.61119 0-1.0409 0.47043-1.0409 1.2483 0 0.78158 0.42968 1.2705 1.0409 1.2705zm0-0.27041c-0.43709 0-0.72231-0.39264-0.72231-1.0001 0-0.60378 0.28522-0.9779 0.72231-0.9779 0.43339 0 0.71861 0.37412 0.71861 0.9779 0 0.60748-0.28522 1.0001-0.71861 1.0001z"/>
   <path d="m-87.941 141.5h0.24448l0.02593-0.1778h0.01111c0.15928 0.14076 0.34819 0.22225 0.51488 0.22225 0.41116 0 0.77788-0.35931 0.77788-0.9742 0-0.55562-0.24818-0.91493-0.7149-0.91493-0.20002 0-0.40005 0.10742-0.56303 0.25189l0.0074-0.32597v-0.71861h-0.30374zm0.30374-0.40005v-0.94457c0.17039-0.15927 0.32967-0.24447 0.48154-0.24447 0.34078 0 0.47413 0.2667 0.47413 0.66305 0 0.4445-0.21855 0.7149-0.51488 0.7149-0.11853 0-0.28152-0.0519-0.4408-0.18891z"/>
   <path d="m-85.883 141.7c0 0.21854-0.04445 0.35189-0.22225 0.35189-0.06297 0-0.12594-0.0148-0.17039-0.0296l-0.06297 0.22966c0.06297 0.0259 0.15558 0.0481 0.2667 0.0481 0.3593 0 0.49265-0.23336 0.49265-0.60007v-2.004h-0.30374zm0.15558-2.3744c0.11483 0 0.20743-0.0815 0.20743-0.19632 0-0.11853-0.0926-0.19632-0.20743-0.19632-0.11853 0-0.21114 0.0778-0.21114 0.19632 0 0.11483 0.0926 0.19632 0.21114 0.19632z"/>
   <path d="m-85.108 140.6c0 0.58896 0.38153 0.94086 0.86307 0.94086 0.24448 0 0.43709-0.0852 0.59267-0.18521l-0.10742-0.20003c-0.13335 0.0852-0.27781 0.14076-0.4482 0.14076-0.34449 0-0.57785-0.24447-0.60008-0.63341h1.215c0.0074-0.0445 0.01111-0.10372 0.01111-0.16669 0-0.51488-0.25929-0.84455-0.71861-0.84455-0.41116 0-0.80751 0.35931-0.80751 0.94827zm0.29633-0.13706c0.03704-0.363 0.2667-0.57044 0.51858-0.57044 0.28152 0 0.4445 0.20373 0.4445 0.57044z"/>
   <path d="m-83.27 140.6c0 0.59637 0.36671 0.94086 0.84455 0.94086 0.21484 0 0.42228-0.0889 0.58526-0.23336l-0.13706-0.20003c-0.10742 0.0963-0.25188 0.1815-0.42228 0.1815-0.32967 0-0.55563-0.27781-0.55563-0.68897 0-0.41487 0.23707-0.69638 0.56303-0.69638 0.14446 0 0.25559 0.0667 0.36301 0.15927l0.15187-0.19632c-0.12224-0.11483-0.28892-0.21484-0.52599-0.21484-0.46302 0-0.86678 0.34449-0.86678 0.94827z"/>
   <path d="m-81.4 140.94c0 0.3556 0.12965 0.60008 0.51488 0.60008 0.11112 0 0.23336-0.0333 0.33338-0.0667l-0.05927-0.22966c-0.05927 0.0222-0.14076 0.0482-0.20373 0.0482-0.20743 0-0.27781-0.12594-0.27781-0.34819v-1.0001h0.48525v-0.24818h-0.48525v-0.50377h-0.25559l-0.03704 0.50377-0.28152 0.0185v0.22966h0.2667z"/>
   <path d="m-79.132 140.51 0.11853-0.37041c0.0852-0.27041 0.16298-0.53711 0.24077-0.81862h0.01482c0.07779 0.28151 0.15558 0.54821 0.24077 0.81862l0.11483 0.37041zm1.0409 0.98902h0.32597l-0.82233-2.4299h-0.34819l-0.82233 2.4299h0.31486l0.23336-0.74084h0.8853z"/>
  </g>
  <g fill="none" stroke="#535e70" stroke-dashoffset="1.2" stroke-linecap="square" stroke-miterlimit="40" stroke-width=".26458">
   <path d="m-99.572 154.2v-2.9104h2.9104" style="paint-order:normal"/>
   <path d="m-69.145 154.2v-2.9104h-2.9104" style="paint-order:normal"/>
   <path d="m-99.572 162.93v2.9104h2.9104" style="paint-order:normal"/>
   <path d="m-69.145 162.93v2.9104h-2.9104" style="paint-order:normal"/>
  </g>
  <rect x="-99.043" y="151.81" width="29.369" height="13.494" fill="#1d232d"/>
  <g fill="#535e70" stroke-linecap="round" stroke-width=".26458" aria-label="Object B">
   <path d="m-89.547 160.06c0.60748 0 1.0372-0.48895 1.0372-1.2705 0-0.77417-0.42968-1.2483-1.0372-1.2483-0.61119 0-1.0409 0.47043-1.0409 1.2483 0 0.78158 0.42968 1.2705 1.0409 1.2705zm0-0.2704c-0.43709 0-0.72231-0.39264-0.72231-1.0001 0-0.60378 0.28522-0.9779 0.72231-0.9779 0.43339 0 0.71861 0.37412 0.71861 0.9779 0 0.60749-0.28522 1.0001-0.71861 1.0001z"/>
   <path d="m-88.028 160.02h0.24448l0.02593-0.1778h0.01111c0.15928 0.14076 0.34819 0.22225 0.51488 0.22225 0.41116 0 0.77788-0.3593 0.77788-0.97419 0-0.55563-0.24818-0.91493-0.7149-0.91493-0.20002 0-0.40005 0.10742-0.56303 0.25188l0.0074-0.32597v-0.71861h-0.30374zm0.30374-0.40005v-0.94456c0.17039-0.15928 0.32967-0.24448 0.48154-0.24448 0.34078 0 0.47413 0.2667 0.47413 0.66305 0 0.4445-0.21855 0.7149-0.51488 0.7149-0.11853 0-0.28152-0.0519-0.4408-0.18891z"/>
   <path d="m-85.969 160.22c0 0.21855-0.04445 0.3519-0.22225 0.3519-0.06297 0-0.12594-0.0148-0.17039-0.0296l-0.06297 0.22966c0.06297 0.0259 0.15558 0.0482 0.2667 0.0482 0.3593 0 0.49266-0.23337 0.49266-0.60008v-2.004h-0.30374zm0.15558-2.3744c0.11483 0 0.20743-0.0815 0.20743-0.19632 0-0.11854-0.09261-0.19632-0.20743-0.19632-0.11853 0-0.21114 0.0778-0.21114 0.19632 0 0.11483 0.09261 0.19632 0.21114 0.19632z"/>
   <path d="m-85.195 159.12c0 0.58897 0.38153 0.94086 0.86307 0.94086 0.24448 0 0.43709-0.0852 0.59267-0.18521l-0.10742-0.20002c-0.13335 0.0852-0.27781 0.14076-0.4482 0.14076-0.34449 0-0.57785-0.24448-0.60008-0.63342h1.215c0.0074-0.0445 0.01111-0.10371 0.01111-0.16668 0-0.51488-0.25929-0.84455-0.71861-0.84455-0.41116 0-0.80751 0.3593-0.80751 0.94826zm0.29633-0.13705c0.03704-0.36301 0.2667-0.57044 0.51858-0.57044 0.28152 0 0.4445 0.20373 0.4445 0.57044z"/>
   <path d="m-83.357 159.12c0 0.59637 0.36671 0.94086 0.84455 0.94086 0.21484 0 0.42228-0.0889 0.58526-0.23336l-0.13705-0.20003c-0.10742 0.0963-0.25188 0.18151-0.42228 0.18151-0.32967 0-0.55562-0.27781-0.55562-0.68898 0-0.41486 0.23707-0.69638 0.56303-0.69638 0.14446 0 0.25559 0.0667 0.36301 0.15928l0.15187-0.19632c-0.12224-0.11483-0.28892-0.21484-0.52599-0.21484-0.46302 0-0.86678 0.34448-0.86678 0.94826z"/>
   <path d="m-81.486 159.46c0 0.3556 0.12965 0.60007 0.51488 0.60007 0.11112 0 0.23336-0.0333 0.33338-0.0667l-0.05927-0.22966c-0.05927 0.0222-0.14076 0.0481-0.20373 0.0481-0.20743 0-0.27781-0.12594-0.27781-0.34819v-1.0001h0.48525v-0.24817h-0.48525v-0.50377h-0.25559l-0.03704 0.50377-0.28152 0.0185v0.22965h0.2667z"/>
   <path d="m-79.523 160.02h0.77788c0.54081 0 0.91863-0.23336 0.91863-0.7112 0-0.33337-0.20743-0.52599-0.56303-0.58155v-0.0148c0.28892-0.0741 0.42598-0.28893 0.42598-0.5297 0-0.42598-0.34449-0.59266-0.83714-0.59266h-0.72231zm0.31115-1.3928v-0.79269h0.37412c0.37412 0 0.57044 0.11113 0.57044 0.37412 0 0.27041-0.1741 0.41857-0.58526 0.41857zm0 1.1483v-0.91864h0.42228c0.42598 0 0.65934 0.13706 0.65934 0.43709 0 0.32968-0.24448 0.48155-0.65934 0.48155z"/>
  </g>
  <g fill="none" stroke="#535e70" stroke-dashoffset="1.2" stroke-linecap="square" stroke-miterlimit="40" stroke-width=".26458">
   <path d="m-99.572 172.72v-2.9104h2.9104" style="paint-order:normal"/>
   <path d="m-69.145 172.72v-2.9104h-2.9104" style="paint-order:normal"/>
   <path d="m-99.572 181.45v2.9104h2.9104" style="paint-order:normal"/>
   <path d="m-69.145 181.45v2.9104h-2.9104" style="paint-order:normal"/>
  </g>
  <g>
   <rect x="-99.043" y="170.33" width="29.369" height="13.494" fill="#1d232d"/>
   <g fill="#535e70" stroke-linecap="round" stroke-width=".26458" aria-label="Object C">
    <path d="m-89.515 178.58c0.60748 0 1.0372-0.48895 1.0372-1.2705 0-0.77417-0.42968-1.2483-1.0372-1.2483-0.61119 0-1.0409 0.47043-1.0409 1.2483 0 0.78158 0.42968 1.2705 1.0409 1.2705zm0-0.2704c-0.43709 0-0.72231-0.39265-0.72231-1.0001 0-0.60378 0.28522-0.9779 0.72231-0.9779 0.43339 0 0.71861 0.37412 0.71861 0.9779 0 0.60748-0.28522 1.0001-0.71861 1.0001z"/>
    <path d="m-87.995 178.54h0.24448l0.02593-0.1778h0.01111c0.15928 0.14076 0.34819 0.22225 0.51488 0.22225 0.41116 0 0.77788-0.3593 0.77788-0.9742 0-0.55562-0.24818-0.91493-0.7149-0.91493-0.20003 0-0.40005 0.10742-0.56303 0.25189l0.0074-0.32597v-0.71861h-0.30374zm0.30374-0.40005v-0.94456c0.17039-0.15928 0.32967-0.24448 0.48154-0.24448 0.34078 0 0.47413 0.2667 0.47413 0.66305 0 0.4445-0.21855 0.7149-0.51488 0.7149-0.11853 0-0.28152-0.0519-0.4408-0.18891z"/>
    <path d="m-85.937 178.74c0 0.21855-0.04445 0.3519-0.22225 0.3519-0.06297 0-0.12594-0.0148-0.17039-0.0296l-0.06297 0.22966c0.06297 0.0259 0.15558 0.0482 0.2667 0.0482 0.3593 0 0.49266-0.23336 0.49266-0.60007v-2.004h-0.30374zm0.15558-2.3744c0.11483 0 0.20743-0.0815 0.20743-0.19632 0-0.11854-0.0926-0.19633-0.20743-0.19633-0.11853 0-0.21114 0.0778-0.21114 0.19633 0 0.11482 0.0926 0.19632 0.21114 0.19632z"/>
    <path d="m-85.162 177.64c0 0.58896 0.38153 0.94086 0.86307 0.94086 0.24448 0 0.43709-0.0852 0.59267-0.18521l-0.10742-0.20002c-0.13335 0.0852-0.27781 0.14075-0.4482 0.14075-0.34449 0-0.57785-0.24447-0.60008-0.63341h1.215c0.0074-0.0444 0.01111-0.10372 0.01111-0.16669 0-0.51488-0.25929-0.84455-0.71861-0.84455-0.41116 0-0.80751 0.35931-0.80751 0.94827zm0.29633-0.13705c0.03704-0.36301 0.2667-0.57045 0.51858-0.57045 0.28152 0 0.4445 0.20373 0.4445 0.57045z"/>
    <path d="m-83.325 177.64c0 0.59637 0.36671 0.94086 0.84455 0.94086 0.21484 0 0.42228-0.0889 0.58526-0.23336l-0.13705-0.20003c-0.10742 0.0963-0.25188 0.18151-0.42228 0.18151-0.32967 0-0.55563-0.27782-0.55563-0.68898 0-0.41487 0.23707-0.69638 0.56303-0.69638 0.14446 0 0.25559 0.0667 0.36301 0.15928l0.15187-0.19632c-0.12224-0.11483-0.28893-0.21485-0.52599-0.21485-0.46302 0-0.86678 0.34449-0.86678 0.94827z"/>
    <path d="m-81.454 177.98c0 0.3556 0.12965 0.60008 0.51488 0.60008 0.11113 0 0.23336-0.0333 0.33338-0.0667l-0.05927-0.22965c-0.05927 0.0222-0.14076 0.0482-0.20373 0.0482-0.20743 0-0.27781-0.12594-0.27781-0.34819v-1.0001h0.48525v-0.24818h-0.48525v-0.50376h-0.25559l-0.03704 0.50376-0.28152 0.0185v0.22966h0.2667z"/>
    <path d="m-79.631 177.32c0 0.79269 0.45561 1.2594 1.0668 1.2594 0.30745 0 0.54822-0.12965 0.73713-0.3519l-0.1741-0.18891c-0.15558 0.1741-0.32597 0.27041-0.55562 0.27041-0.46302 0-0.75565-0.38524-0.75565-0.99643 0-0.60378 0.30745-0.9816 0.77047-0.9816 0.20002 0 0.3556 0.0889 0.48525 0.22595l0.1741-0.19632c-0.14446-0.15928-0.37412-0.30004-0.66305-0.30004-0.6223 0-1.0853 0.47784-1.0853 1.2594z"/>
   </g>
   <rect x="-74.172" y="134.09" width="3.7042" height="3.7042" fill="#009244"/>
   <rect x="-74.172" y="152.61" width="3.7042" height="3.7042" fill="#535e70"/>
   <rect x="-74.172" y="171.13" width="3.7042" height="3.7042" fill="#535e70"/>
   <g fill="#e8eaec" stroke-linecap="round" stroke-width=".26458" aria-label="  frame N update 1/3">
    <path d="m-90.102 119.34c-0.08149-0.0296-0.21484-0.0667-0.36671-0.0667-0.49636 0-0.67786 0.31856-0.67786 0.7075v0.10001l-0.24448 0.0185v0.40375h0.24448v1.4113h0.54451v-1.4113h0.32967v-0.42598h-0.32967v-0.11112c0-0.18891 0.07779-0.263 0.21114-0.263 0.05927 0 0.12594 0.0148 0.18891 0.0371z"/>
    <path d="m-89.973 121.92h0.54451v-1.0668c0.09631-0.24818 0.2667-0.33708 0.40375-0.33708 0.07779 0 0.13335 0.0111 0.20002 0.0296l0.0889-0.47043c-0.05186-0.0222-0.11483-0.037-0.21855-0.037-0.18891 0-0.38894 0.11854-0.52229 0.36672h-0.01482l-0.03704-0.32227h-0.4445z"/>
    <path d="m-88.673 121.4c0 0.31115 0.21114 0.55562 0.54451 0.55562 0.20743 0 0.38153-0.0963 0.5371-0.23336h0.01111l0.04075 0.18891h0.4445v-1.052c0-0.56303-0.25929-0.82974-0.72972-0.82974-0.28892 0-0.55192 0.10002-0.78528 0.24078l0.19262 0.3593c0.1778-0.10372 0.33338-0.16669 0.48895-0.16669 0.19632 0 0.27781 0.10372 0.28892 0.2667-0.72602 0.0741-1.0335 0.28522-1.0335 0.67046zm0.51858-0.0408c0-0.14076 0.12594-0.25188 0.51488-0.30374v0.32226c-0.09631 0.0963-0.1778 0.15558-0.30374 0.15558-0.12965 0-0.21114-0.0556-0.21114-0.1741z"/>
    <path d="m-86.631 121.92h0.54451v-1.2409c0.11483-0.11854 0.22225-0.1778 0.31115-0.1778 0.15558 0 0.22596 0.0815 0.22596 0.34819v1.0705h0.54451v-1.2409c0.11853-0.11854 0.22225-0.1778 0.31485-0.1778 0.15558 0 0.22596 0.0815 0.22596 0.34819v1.0705h0.54451v-1.1409c0-0.45932-0.1778-0.74084-0.57415-0.74084-0.24448 0-0.41487 0.14076-0.57785 0.30745-0.09261-0.19632-0.24818-0.30745-0.50747-0.30745-0.24077 0-0.40375 0.12965-0.55562 0.28152h-0.01482l-0.03704-0.23707h-0.4445z"/>
    <path d="m-83.562 121c0 0.60748 0.40376 0.96308 0.92975 0.96308 0.21855 0 0.46302-0.0778 0.65193-0.20743l-0.1815-0.32967c-0.13335 0.0815-0.25929 0.12224-0.39635 0.12224-0.24448 0-0.42968-0.12224-0.47784-0.40005h1.1001c0.01111-0.0444 0.02223-0.13335 0.02223-0.22966 0-0.50007-0.25929-0.8816-0.78158-0.8816-0.4408 0-0.86678 0.36672-0.86678 0.96309zm0.52229-0.18891c0.03704-0.24448 0.18521-0.35931 0.3556-0.35931 0.21855 0 0.30745 0.14817 0.30745 0.35931z"/>
    <path d="m-80.723 121.92h0.52229v-0.85566c0-0.28522-0.04445-0.60748-0.07038-0.87418h0.01482l0.23707 0.52599 0.62971 1.2038h0.55933v-2.4151h-0.51858v0.85196c0 0.28522 0.04445 0.62601 0.07038 0.8816h-0.01482l-0.24077-0.5334-0.62971-1.2002h-0.55933z"/>
    <path d="m-92.806 125.89c0 0.45931 0.17039 0.74083 0.57044 0.74083 0.25188 0 0.42228-0.11483 0.57785-0.30004h0.01111l0.04075 0.25559h0.4445v-1.8373h-0.54451v1.215c-0.10742 0.14446-0.18891 0.20373-0.32597 0.20373-0.15928 0-0.22966-0.0852-0.22966-0.34819v-1.0705h-0.54451z"/>
    <path d="m-90.156 126.43c0.12965 0.12224 0.27781 0.19262 0.43709 0.19262 0.39635 0 0.77417-0.36301 0.77417-0.99272 0-0.56674-0.27411-0.93345-0.71861-0.93345-0.19262 0-0.37782 0.0963-0.52229 0.22596h-0.01482l-0.03704-0.18151h-0.4445v2.5188h0.54451v-0.53711zm0.01852-0.37041v-0.75195c0.10742-0.11483 0.20373-0.16669 0.31486-0.16669 0.21855 0 0.31856 0.16669 0.31856 0.49636 0 0.37783-0.15187 0.54081-0.34078 0.54081-0.0926 0-0.19632-0.0296-0.29263-0.11853z"/>
    <path d="m-88.659 125.66c0 0.60007 0.29633 0.96308 0.75195 0.96308 0.1778 0 0.3593-0.0963 0.48895-0.22596h0.01482l0.03704 0.18151h0.4445v-2.5966h-0.54451v0.626l0.02222 0.28152c-0.12594-0.11854-0.24818-0.19262-0.45191-0.19262-0.38894 0-0.76306 0.36301-0.76306 0.96309zm0.55933-7e-3c0-0.3482 0.15558-0.51118 0.32967-0.51118 0.10001 0 0.20743 0.0296 0.30374 0.11853v0.75195c-0.0889 0.12224-0.1815 0.16669-0.30004 0.16669-0.21114 0-0.33338-0.16298-0.33338-0.52599z"/>
    <path d="m-86.51 126.07c0 0.31115 0.21114 0.55563 0.54451 0.55563 0.20743 0 0.38153-0.0963 0.5371-0.23336h0.01111l0.04075 0.18891h0.4445v-1.052c0-0.56303-0.25929-0.82973-0.72972-0.82973-0.28893 0-0.55192 0.10001-0.78528 0.24077l0.19262 0.35931c0.1778-0.10372 0.33338-0.16669 0.48895-0.16669 0.19632 0 0.27781 0.10372 0.28892 0.2667-0.72602 0.0741-1.0335 0.28522-1.0335 0.67045zm0.51858-0.0407c0-0.14076 0.12594-0.25189 0.51488-0.30374v0.32226c-0.09631 0.0963-0.1778 0.15557-0.30374 0.15557-0.12965 0-0.21114-0.0556-0.21114-0.17409z"/>
    <path d="m-84.394 125.92c0 0.42598 0.1778 0.7112 0.63341 0.7112 0.1778 0 0.31115-0.037 0.40746-0.0667l-0.0852-0.39634c-0.04815 0.0185-0.11483 0.037-0.1741 0.037-0.14446 0-0.23707-0.0852-0.23707-0.29263v-0.73713h0.4408v-0.42598h-0.4408v-0.48895h-0.45191l-0.06297 0.48895-0.28152 0.0222v0.40375h0.25188z"/>
    <path d="m-83.193 125.66c0 0.60748 0.40376 0.96308 0.92975 0.96308 0.21855 0 0.46302-0.0778 0.65193-0.20743l-0.1815-0.32968c-0.13335 0.0815-0.25929 0.12224-0.39635 0.12224-0.24448 0-0.42968-0.12224-0.47784-0.40005h1.1001c0.01111-0.0445 0.02222-0.13335 0.02222-0.22966 0-0.50006-0.25929-0.88159-0.78158-0.88159-0.4408 0-0.86678 0.36671-0.86678 0.96309zm0.52229-0.18892c0.03704-0.24447 0.18521-0.3593 0.3556-0.3593 0.21855 0 0.30745 0.14816 0.30745 0.3593z"/>
    <path d="m-80.376 126.58h1.4965v-0.4408h-0.4408v-1.9114h-0.40005c-0.16669 0.10001-0.32967 0.16669-0.58526 0.21484v0.33708h0.4408v1.3594h-0.51118z"/>
    <path d="m-78.634 127.18h0.3556l0.74454-3.2226h-0.3556z"/>
    <path d="m-77.342 126.29c0.17039 0.20003 0.43709 0.33338 0.81862 0.33338 0.47413 0 0.87418-0.24818 0.87418-0.68527 0-0.30374-0.19632-0.49636-0.46673-0.57415v-0.0148c0.25188-0.10742 0.39264-0.27781 0.39264-0.52228 0-0.41117-0.32597-0.64453-0.81121-0.64453-0.28892 0-0.52599 0.11483-0.74083 0.30004l0.27411 0.33337c0.14817-0.12964 0.27411-0.20743 0.4408-0.20743 0.18521 0 0.28892 0.0963 0.28892 0.25929 0 0.18892-0.13335 0.31486-0.55562 0.31486v0.38523c0.51118 0 0.63341 0.12965 0.63341 0.33708 0 0.1778-0.15187 0.27781-0.38153 0.27781-0.20002 0-0.37412-0.10001-0.51488-0.23706z"/>
   </g>
  </g>
  <g fill="none" stroke-dashoffset="1.2" stroke-linecap="square" stroke-miterlimit="40" stroke-width=".26458">
   <g stroke="#009244">
    <path d="m-46.655 135.67v-2.9104h2.9104" style="paint-order:normal"/>
    <path d="m-16.228 135.67v-2.9104h-2.9104" style="paint-order:normal"/>
    <path d="m-46.655 144.41v2.9104h2.9104" style="paint-order:normal"/>
   </g>
   <path d="m-16.493 157.9c15.081 0 8.2021-18.521 0.26458-18.521" stroke="#47d58a"/>
  </g>
  <g transform="matrix(-.0042365 0 0 .0043091 -14.531 138.38)" fill="#47d58a" stroke-width="123.85">
   <g fill="#47d58a" stroke-width="123.85">
    <path d="m486.41 221.41-364.07-208.5c-52.938-30.318-95.852-5.44-95.852 55.563v415.65c0 61.004 42.914 85.882 95.852 55.563l364.07-208.49c52.938-30.317 52.938-79.473 0-109.79z" fill="#47d58a" stroke-width="123.85"/>
   </g>
  </g>
  <path d="m-16.228 144.41v2.9104h-2.9104" fill="none" stroke="#009244" stroke-dashoffset="1.2" stroke-linecap="square" stroke-miterlimit="40" stroke-width=".26458" style="paint-order:normal"/>
  <rect x="-46.126" y="133.29" width="29.369" height="13.494" fill="#1d232d"/>
  <g fill="#e8eaec" stroke-linecap="round" stroke-width=".26458" aria-label="Object A">
   <path d="m-36.544 141.54c0.60748 0 1.0372-0.48895 1.0372-1.2705 0-0.77417-0.42968-1.2483-1.0372-1.2483-0.61119 0-1.0409 0.47043-1.0409 1.2483 0 0.78158 0.42968 1.2705 1.0409 1.2705zm0-0.27041c-0.43709 0-0.72231-0.39264-0.72231-1.0001 0-0.60378 0.28522-0.9779 0.72231-0.9779 0.43339 0 0.71861 0.37412 0.71861 0.9779 0 0.60748-0.28522 1.0001-0.71861 1.0001z"/>
   <path d="m-35.024 141.5h0.24448l0.02593-0.1778h0.01111c0.15928 0.14076 0.34819 0.22225 0.51488 0.22225 0.41116 0 0.77788-0.35931 0.77788-0.9742 0-0.55562-0.24818-0.91493-0.7149-0.91493-0.20002 0-0.40005 0.10742-0.56303 0.25189l0.0074-0.32597v-0.71861h-0.30374zm0.30374-0.40005v-0.94457c0.17039-0.15927 0.32967-0.24447 0.48154-0.24447 0.34078 0 0.47413 0.2667 0.47413 0.66305 0 0.4445-0.21855 0.7149-0.51488 0.7149-0.11853 0-0.28152-0.0519-0.4408-0.18891z"/>
   <path d="m-32.966 141.7c0 0.21854-0.04445 0.35189-0.22225 0.35189-0.06297 0-0.12594-0.0148-0.17039-0.0296l-0.06297 0.22966c0.06297 0.0259 0.15558 0.0481 0.2667 0.0481 0.3593 0 0.49265-0.23336 0.49265-0.60007v-2.004h-0.30374zm0.15558-2.3744c0.11483 0 0.20743-0.0815 0.20743-0.19632 0-0.11853-0.0926-0.19632-0.20743-0.19632-0.11853 0-0.21114 0.0778-0.21114 0.19632 0 0.11483 0.0926 0.19632 0.21114 0.19632z"/>
   <path d="m-32.191 140.6c0 0.58896 0.38153 0.94086 0.86307 0.94086 0.24448 0 0.43709-0.0852 0.59267-0.18521l-0.10742-0.20003c-0.13335 0.0852-0.27781 0.14076-0.4482 0.14076-0.34449 0-0.57785-0.24447-0.60008-0.63341h1.215c0.0074-0.0445 0.01111-0.10372 0.01111-0.16669 0-0.51488-0.25929-0.84455-0.71861-0.84455-0.41116 0-0.80751 0.35931-0.80751 0.94827zm0.29633-0.13706c0.03704-0.363 0.2667-0.57044 0.51858-0.57044 0.28152 0 0.4445 0.20373 0.4445 0.57044z"/>
   <path d="m-30.354 140.6c0 0.59637 0.36671 0.94086 0.84455 0.94086 0.21484 0 0.42228-0.0889 0.58526-0.23336l-0.13705-0.20003c-0.10742 0.0963-0.25188 0.1815-0.42228 0.1815-0.32967 0-0.55563-0.27781-0.55563-0.68897 0-0.41487 0.23707-0.69638 0.56303-0.69638 0.14446 0 0.25559 0.0667 0.36301 0.15927l0.15187-0.19632c-0.12224-0.11483-0.28892-0.21484-0.52599-0.21484-0.46302 0-0.86678 0.34449-0.86678 0.94827z"/>
   <path d="m-28.483 140.94c0 0.3556 0.12965 0.60008 0.51488 0.60008 0.11112 0 0.23336-0.0333 0.33338-0.0667l-0.05927-0.22966c-0.05927 0.0222-0.14076 0.0482-0.20373 0.0482-0.20743 0-0.27781-0.12594-0.27781-0.34819v-1.0001h0.48525v-0.24818h-0.48525v-0.50377h-0.25559l-0.03704 0.50377-0.28152 0.0185v0.22966h0.2667z"/>
   <path d="m-26.216 140.51 0.11853-0.37041c0.0852-0.27041 0.16298-0.53711 0.24077-0.81862h0.01482c0.07779 0.28151 0.15558 0.54821 0.24077 0.81862l0.11483 0.37041zm1.0409 0.98902h0.32597l-0.82233-2.4299h-0.34819l-0.82233 2.4299h0.31486l0.23336-0.74084h0.8853z"/>
  </g>
  <g fill="none" stroke="#009244" stroke-dashoffset="1.2" stroke-linecap="square" stroke-miterlimit="40" stroke-width=".26458">
   <path d="m-46.655 154.2v-2.9104h2.9104" style="paint-order:normal"/>
   <path d="m-16.228 154.2v-2.9104h-2.9104" style="paint-order:normal"/>
   <path d="m-46.655 162.93v2.9104h2.9104" style="paint-order:normal"/>
   <path d="m-16.228 162.93v2.9104h-2.9104" style="paint-order:normal"/>
  </g>
  <g>
   <rect x="-46.126" y="151.81" width="29.369" height="13.494" fill="#1d232d"/>
   <g fill="#e8eaec" stroke-linecap="round" stroke-width=".26458" aria-label="Object B">
    <path d="m-36.631 160.06c0.60748 0 1.0372-0.48895 1.0372-1.2705 0-0.77417-0.42968-1.2483-1.0372-1.2483-0.61119 0-1.0409 0.47043-1.0409 1.2483 0 0.78158 0.42968 1.2705 1.0409 1.2705zm0-0.2704c-0.43709 0-0.72231-0.39264-0.72231-1.0001 0-0.60378 0.28522-0.9779 0.72231-0.9779 0.43339 0 0.71861 0.37412 0.71861 0.9779 0 0.60749-0.28522 1.0001-0.71861 1.0001z"/>
    <path d="m-35.111 160.02h0.24448l0.02593-0.1778h0.01111c0.15928 0.14076 0.34819 0.22225 0.51488 0.22225 0.41116 0 0.77788-0.3593 0.77788-0.97419 0-0.55563-0.24818-0.91493-0.7149-0.91493-0.20002 0-0.40005 0.10742-0.56303 0.25188l0.0074-0.32597v-0.71861h-0.30374zm0.30374-0.40005v-0.94456c0.17039-0.15928 0.32967-0.24448 0.48154-0.24448 0.34078 0 0.47413 0.2667 0.47413 0.66305 0 0.4445-0.21855 0.7149-0.51488 0.7149-0.11853 0-0.28152-0.0519-0.4408-0.18891z"/>
    <path d="m-33.053 160.22c0 0.21855-0.04445 0.3519-0.22225 0.3519-0.06297 0-0.12594-0.0148-0.17039-0.0296l-0.06297 0.22966c0.06297 0.0259 0.15558 0.0482 0.2667 0.0482 0.3593 0 0.49266-0.23337 0.49266-0.60008v-2.004h-0.30374zm0.15558-2.3744c0.11483 0 0.20743-0.0815 0.20743-0.19632 0-0.11854-0.0926-0.19632-0.20743-0.19632-0.11853 0-0.21114 0.0778-0.21114 0.19632 0 0.11483 0.0926 0.19632 0.21114 0.19632z"/>
    <path d="m-32.278 159.12c0 0.58897 0.38153 0.94086 0.86307 0.94086 0.24448 0 0.43709-0.0852 0.59267-0.18521l-0.10742-0.20002c-0.13335 0.0852-0.27781 0.14076-0.4482 0.14076-0.34449 0-0.57785-0.24448-0.60008-0.63342h1.215c0.0074-0.0445 0.01111-0.10371 0.01111-0.16668 0-0.51488-0.25929-0.84455-0.71861-0.84455-0.41116 0-0.80751 0.3593-0.80751 0.94826zm0.29633-0.13705c0.03704-0.36301 0.2667-0.57044 0.51858-0.57044 0.28152 0 0.4445 0.20373 0.4445 0.57044z"/>
    <path d="m-30.441 159.12c0 0.59637 0.36671 0.94086 0.84455 0.94086 0.21484 0 0.42228-0.0889 0.58526-0.23336l-0.13705-0.20003c-0.10742 0.0963-0.25188 0.18151-0.42228 0.18151-0.32967 0-0.55562-0.27781-0.55562-0.68898 0-0.41486 0.23707-0.69638 0.56303-0.69638 0.14446 0 0.25559 0.0667 0.36301 0.15928l0.15187-0.19632c-0.12224-0.11483-0.28892-0.21484-0.52599-0.21484-0.46302 0-0.86678 0.34448-0.86678 0.94826z"/>
    <path d="m-28.57 159.46c0 0.3556 0.12965 0.60007 0.51488 0.60007 0.11112 0 0.23336-0.0333 0.33338-0.0667l-0.05927-0.22966c-0.05927 0.0222-0.14076 0.0481-0.20373 0.0481-0.20743 0-0.27781-0.12594-0.27781-0.34819v-1.0001h0.48525v-0.24817h-0.48525v-0.50377h-0.25559l-0.03704 0.50377-0.28152 0.0185v0.22965h0.2667z"/>
    <path d="m-26.606 160.02h0.77788c0.54081 0 0.91863-0.23336 0.91863-0.7112 0-0.33337-0.20743-0.52599-0.56303-0.58155v-0.0148c0.28893-0.0741 0.42598-0.28893 0.42598-0.5297 0-0.42598-0.34449-0.59266-0.83714-0.59266h-0.72231zm0.31115-1.3928v-0.79269h0.37412c0.37412 0 0.57044 0.11113 0.57044 0.37412 0 0.27041-0.1741 0.41857-0.58526 0.41857zm0 1.1483v-0.91864h0.42228c0.42598 0 0.65934 0.13706 0.65934 0.43709 0 0.32968-0.24448 0.48155-0.65934 0.48155z"/>
   </g>
   <rect x="-21.255" y="134.09" width="3.7042" height="3.7042" fill="#535e70"/>
   <rect x="-21.255" y="152.61" width="3.7042" height="3.7042" fill="#009244"/>
   <g fill="#e8eaec" stroke-linecap="round" stroke-width=".26458" aria-label="  frame N update 2/3">
    <path d="m-37.186 119.34c-0.08149-0.0296-0.21484-0.0667-0.36671-0.0667-0.49636 0-0.67786 0.31856-0.67786 0.7075v0.10001l-0.24448 0.0185v0.40375h0.24448v1.4113h0.54451v-1.4113h0.32967v-0.42598h-0.32967v-0.11112c0-0.18891 0.07779-0.263 0.21114-0.263 0.05927 0 0.12594 0.0148 0.18891 0.0371z"/>
    <path d="m-37.057 121.92h0.54451v-1.0668c0.09631-0.24818 0.2667-0.33708 0.40375-0.33708 0.07779 0 0.13335 0.0111 0.20003 0.0296l0.0889-0.47043c-0.05186-0.0222-0.11483-0.037-0.21855-0.037-0.18891 0-0.38894 0.11854-0.52229 0.36672h-0.01482l-0.03704-0.32227h-0.4445z"/>
    <path d="m-35.756 121.4c0 0.31115 0.21114 0.55562 0.54451 0.55562 0.20743 0 0.38153-0.0963 0.5371-0.23336h0.01111l0.04075 0.18891h0.4445v-1.052c0-0.56303-0.25929-0.82974-0.72972-0.82974-0.28892 0-0.55192 0.10002-0.78528 0.24078l0.19262 0.3593c0.1778-0.10372 0.33338-0.16669 0.48895-0.16669 0.19632 0 0.27781 0.10372 0.28892 0.2667-0.72602 0.0741-1.0335 0.28522-1.0335 0.67046zm0.51858-0.0408c0-0.14076 0.12594-0.25188 0.51488-0.30374v0.32226c-0.09631 0.0963-0.1778 0.15558-0.30374 0.15558-0.12965 0-0.21114-0.0556-0.21114-0.1741z"/>
    <path d="m-33.714 121.92h0.54451v-1.2409c0.11483-0.11854 0.22225-0.1778 0.31115-0.1778 0.15558 0 0.22595 0.0815 0.22595 0.34819v1.0705h0.54451v-1.2409c0.11853-0.11854 0.22225-0.1778 0.31485-0.1778 0.15558 0 0.22596 0.0815 0.22596 0.34819v1.0705h0.54451v-1.1409c0-0.45932-0.1778-0.74084-0.57415-0.74084-0.24448 0-0.41487 0.14076-0.57785 0.30745-0.0926-0.19632-0.24818-0.30745-0.50747-0.30745-0.24077 0-0.40376 0.12965-0.55563 0.28152h-0.01482l-0.03704-0.23707h-0.4445z"/>
    <path d="m-30.646 121c0 0.60748 0.40376 0.96308 0.92975 0.96308 0.21855 0 0.46302-0.0778 0.65193-0.20743l-0.1815-0.32967c-0.13335 0.0815-0.25929 0.12224-0.39635 0.12224-0.24448 0-0.42968-0.12224-0.47784-0.40005h1.1001c0.01111-0.0444 0.02222-0.13335 0.02222-0.22966 0-0.50007-0.25929-0.8816-0.78158-0.8816-0.4408 0-0.86678 0.36672-0.86678 0.96309zm0.52229-0.18891c0.03704-0.24448 0.18521-0.35931 0.3556-0.35931 0.21855 0 0.30745 0.14817 0.30745 0.35931z"/>
    <path d="m-27.806 121.92h0.52229v-0.85566c0-0.28522-0.04445-0.60748-0.07038-0.87418h0.01482l0.23707 0.52599 0.62971 1.2038h0.55933v-2.4151h-0.51858v0.85196c0 0.28522 0.04445 0.62601 0.07038 0.8816h-0.01482l-0.24077-0.5334-0.62971-1.2002h-0.55933z"/>
    <path d="m-39.89 125.89c0 0.45931 0.17039 0.74083 0.57044 0.74083 0.25188 0 0.42228-0.11483 0.57785-0.30004h0.01111l0.04075 0.25559h0.4445v-1.8373h-0.54451v1.215c-0.10742 0.14446-0.18891 0.20373-0.32597 0.20373-0.15928 0-0.22966-0.0852-0.22966-0.34819v-1.0705h-0.54451z"/>
    <path d="m-37.24 126.43c0.12965 0.12224 0.27781 0.19262 0.43709 0.19262 0.39635 0 0.77417-0.36301 0.77417-0.99272 0-0.56674-0.27411-0.93345-0.71861-0.93345-0.19262 0-0.37782 0.0963-0.52229 0.22596h-0.01482l-0.03704-0.18151h-0.4445v2.5188h0.54451v-0.53711zm0.01852-0.37041v-0.75195c0.10742-0.11483 0.20373-0.16669 0.31485-0.16669 0.21855 0 0.31856 0.16669 0.31856 0.49636 0 0.37783-0.15187 0.54081-0.34078 0.54081-0.0926 0-0.19632-0.0296-0.29263-0.11853z"/>
    <path d="m-35.742 125.66c0 0.60007 0.29633 0.96308 0.75195 0.96308 0.1778 0 0.3593-0.0963 0.48895-0.22596h0.01482l0.03704 0.18151h0.4445v-2.5966h-0.54451v0.626l0.02222 0.28152c-0.12594-0.11854-0.24818-0.19262-0.45191-0.19262-0.38894 0-0.76306 0.36301-0.76306 0.96309zm0.55933-7e-3c0-0.3482 0.15558-0.51118 0.32967-0.51118 0.10001 0 0.20743 0.0296 0.30374 0.11853v0.75195c-0.0889 0.12224-0.1815 0.16669-0.30004 0.16669-0.21114 0-0.33338-0.16298-0.33338-0.52599z"/>
    <path d="m-33.593 126.07c0 0.31115 0.21114 0.55563 0.54451 0.55563 0.20743 0 0.38153-0.0963 0.5371-0.23336h0.01111l0.04075 0.18891h0.4445v-1.052c0-0.56303-0.25929-0.82973-0.72972-0.82973-0.28892 0-0.55192 0.10001-0.78528 0.24077l0.19262 0.35931c0.1778-0.10372 0.33338-0.16669 0.48895-0.16669 0.19632 0 0.27781 0.10372 0.28892 0.2667-0.72602 0.0741-1.0335 0.28522-1.0335 0.67045zm0.51858-0.0407c0-0.14076 0.12594-0.25189 0.51488-0.30374v0.32226c-0.09631 0.0963-0.1778 0.15557-0.30374 0.15557-0.12965 0-0.21114-0.0556-0.21114-0.17409z"/>
    <path d="m-31.477 125.92c0 0.42598 0.1778 0.7112 0.63341 0.7112 0.1778 0 0.31115-0.037 0.40746-0.0667l-0.0852-0.39634c-0.04815 0.0185-0.11483 0.037-0.1741 0.037-0.14446 0-0.23707-0.0852-0.23707-0.29263v-0.73713h0.4408v-0.42598h-0.4408v-0.48895h-0.45191l-0.06297 0.48895-0.28152 0.0222v0.40375h0.25188z"/>
    <path d="m-30.277 125.66c0 0.60748 0.40376 0.96308 0.92975 0.96308 0.21855 0 0.46302-0.0778 0.65193-0.20743l-0.1815-0.32968c-0.13335 0.0815-0.25929 0.12224-0.39635 0.12224-0.24448 0-0.42968-0.12224-0.47784-0.40005h1.1001c0.01111-0.0445 0.02223-0.13335 0.02223-0.22966 0-0.50006-0.25929-0.88159-0.78158-0.88159-0.4408 0-0.86678 0.36671-0.86678 0.96309zm0.52229-0.18892c0.03704-0.24447 0.18521-0.3593 0.3556-0.3593 0.21855 0 0.30745 0.14816 0.30745 0.3593z"/>
    <path d="m-27.582 126.58h1.6558v-0.45932h-0.47413c-0.11112 0-0.27411 0.0148-0.39264 0.0296 0.38153-0.40005 0.75195-0.82233 0.75195-1.2187 0-0.45191-0.31486-0.74824-0.77788-0.74824-0.33708 0-0.55562 0.12594-0.78899 0.37412l0.29633 0.29263c0.11853-0.12594 0.24818-0.24077 0.41857-0.24077 0.20373 0 0.33338 0.12594 0.33338 0.3556 0 0.33338-0.42228 0.73713-1.0224 1.3039z"/>
    <path d="m-25.717 127.18h0.3556l0.74454-3.2226h-0.3556z"/>
    <path d="m-24.425 126.29c0.17039 0.20003 0.43709 0.33338 0.81862 0.33338 0.47413 0 0.87418-0.24818 0.87418-0.68527 0-0.30374-0.19632-0.49636-0.46672-0.57415v-0.0148c0.25188-0.10742 0.39264-0.27781 0.39264-0.52228 0-0.41117-0.32597-0.64453-0.81121-0.64453-0.28892 0-0.52599 0.11483-0.74083 0.30004l0.27411 0.33337c0.14817-0.12964 0.27411-0.20743 0.4408-0.20743 0.18521 0 0.28892 0.0963 0.28892 0.25929 0 0.18892-0.13335 0.31486-0.55562 0.31486v0.38523c0.51118 0 0.63341 0.12965 0.63341 0.33708 0 0.1778-0.15187 0.27781-0.38153 0.27781-0.20003 0-0.37412-0.10001-0.51488-0.23706z"/>
   </g>
  </g>
  <g fill="none" stroke="#009244" stroke-dashoffset="1.2" stroke-linecap="square" stroke-miterlimit="40" stroke-width=".26458">
   <path d="m6.2617 135.67v-2.9104h2.9104" style="paint-order:normal"/>
   <path d="m36.689 135.67v-2.9104h-2.9104" style="paint-order:normal"/>
   <path d="m6.2617 144.41v2.9104h2.9104" style="paint-order:normal"/>
   <path d="m36.689 144.41v2.9104h-2.9104" style="paint-order:normal"/>
  </g>
  <rect x="6.7908" y="133.29" width="29.369" height="13.494" fill="#1d232d"/>
  <g fill="#e8eaec" stroke-linecap="round" stroke-width=".26458" aria-label="Object A">
   <path d="m16.373 141.54c0.60748 0 1.0372-0.48895 1.0372-1.2705 0-0.77417-0.42968-1.2483-1.0372-1.2483-0.61119 0-1.0409 0.47043-1.0409 1.2483 0 0.78158 0.42968 1.2705 1.0409 1.2705zm0-0.27041c-0.43709 0-0.72231-0.39264-0.72231-1.0001 0-0.60378 0.28522-0.9779 0.72231-0.9779 0.43339 0 0.71861 0.37412 0.71861 0.9779 0 0.60748-0.28522 1.0001-0.71861 1.0001z"/>
   <path d="m17.892 141.5h0.24448l0.02593-0.1778h0.01111c0.15928 0.14076 0.34819 0.22225 0.51488 0.22225 0.41116 0 0.77788-0.35931 0.77788-0.9742 0-0.55562-0.24818-0.91493-0.7149-0.91493-0.20002 0-0.40005 0.10742-0.56303 0.25189l0.0074-0.32597v-0.71861h-0.30374zm0.30374-0.40005v-0.94457c0.17039-0.15927 0.32967-0.24447 0.48154-0.24447 0.34078 0 0.47413 0.2667 0.47413 0.66305 0 0.4445-0.21855 0.7149-0.51488 0.7149-0.11853 0-0.28152-0.0519-0.4408-0.18891z"/>
   <path d="m19.951 141.7c0 0.21854-0.04445 0.35189-0.22225 0.35189-0.06297 0-0.12594-0.0148-0.17039-0.0296l-0.06297 0.22966c0.06297 0.0259 0.15558 0.0481 0.2667 0.0481 0.3593 0 0.49265-0.23336 0.49265-0.60007v-2.004h-0.30374zm0.15558-2.3744c0.11483 0 0.20743-0.0815 0.20743-0.19632 0-0.11853-0.0926-0.19632-0.20743-0.19632-0.11853 0-0.21114 0.0778-0.21114 0.19632 0 0.11483 0.0926 0.19632 0.21114 0.19632z"/>
   <path d="m20.725 140.6c0 0.58896 0.38153 0.94086 0.86307 0.94086 0.24448 0 0.43709-0.0852 0.59267-0.18521l-0.10742-0.20003c-0.13335 0.0852-0.27781 0.14076-0.4482 0.14076-0.34449 0-0.57785-0.24447-0.60008-0.63341h1.215c0.0074-0.0445 0.01111-0.10372 0.01111-0.16669 0-0.51488-0.25929-0.84455-0.71861-0.84455-0.41116 0-0.80751 0.35931-0.80751 0.94827zm0.29633-0.13706c0.03704-0.363 0.2667-0.57044 0.51858-0.57044 0.28152 0 0.4445 0.20373 0.4445 0.57044z"/>
   <path d="m22.563 140.6c0 0.59637 0.36671 0.94086 0.84455 0.94086 0.21484 0 0.42228-0.0889 0.58526-0.23336l-0.13706-0.20003c-0.10742 0.0963-0.25188 0.1815-0.42228 0.1815-0.32967 0-0.55563-0.27781-0.55563-0.68897 0-0.41487 0.23707-0.69638 0.56303-0.69638 0.14446 0 0.25559 0.0667 0.36301 0.15927l0.15187-0.19632c-0.12224-0.11483-0.28892-0.21484-0.52599-0.21484-0.46302 0-0.86678 0.34449-0.86678 0.94827z"/>
   <path d="m24.434 140.94c0 0.3556 0.12965 0.60008 0.51488 0.60008 0.11112 0 0.23336-0.0333 0.33338-0.0667l-0.05927-0.22966c-0.05927 0.0222-0.14076 0.0482-0.20373 0.0482-0.20743 0-0.27781-0.12594-0.27781-0.34819v-1.0001h0.48525v-0.24818h-0.48525v-0.50377h-0.25559l-0.03704 0.50377-0.28152 0.0185v0.22966h0.2667z"/>
   <path d="m26.701 140.51 0.11853-0.37041c0.0852-0.27041 0.16298-0.53711 0.24077-0.81862h0.01482c0.07779 0.28151 0.15558 0.54821 0.24077 0.81862l0.11483 0.37041zm1.0409 0.98902h0.32597l-0.82233-2.4299h-0.34819l-0.82233 2.4299h0.31486l0.23336-0.74084h0.8853z"/>
  </g>
  <g fill="none" stroke="#009244" stroke-dashoffset="1.2" stroke-linecap="square" stroke-miterlimit="40" stroke-width=".26458">
   <path d="m6.2617 154.2v-2.9104h2.9104" style="paint-order:normal"/>
   <path d="m36.689 154.2v-2.9104h-2.9104" style="paint-order:normal"/>
   <path d="m6.2617 162.93v2.9104h2.9104" style="paint-order:normal"/>
   <path d="m36.689 162.93v2.9104h-2.9104" style="paint-order:normal"/>
  </g>
  <rect x="6.7908" y="151.81" width="29.369" height="13.494" fill="#1d232d"/>
  <g fill="#e8eaec" stroke-linecap="round" stroke-width=".26458" aria-label="Object B">
   <path d="m16.286 160.06c0.60748 0 1.0372-0.48895 1.0372-1.2705 0-0.77417-0.42968-1.2483-1.0372-1.2483-0.61119 0-1.0409 0.47043-1.0409 1.2483 0 0.78158 0.42968 1.2705 1.0409 1.2705zm0-0.2704c-0.43709 0-0.72231-0.39264-0.72231-1.0001 0-0.60378 0.28522-0.9779 0.72231-0.9779 0.43339 0 0.71861 0.37412 0.71861 0.9779 0 0.60749-0.28522 1.0001-0.71861 1.0001z"/>
   <path d="m17.806 160.02h0.24448l0.02593-0.1778h0.01111c0.15928 0.14076 0.34819 0.22225 0.51488 0.22225 0.41116 0 0.77788-0.3593 0.77788-0.97419 0-0.55563-0.24818-0.91493-0.7149-0.91493-0.20002 0-0.40005 0.10742-0.56303 0.25188l0.0074-0.32597v-0.71861h-0.30374zm0.30374-0.40005v-0.94456c0.17039-0.15928 0.32967-0.24448 0.48154-0.24448 0.34078 0 0.47413 0.2667 0.47413 0.66305 0 0.4445-0.21855 0.7149-0.51488 0.7149-0.11853 0-0.28152-0.0519-0.4408-0.18891z"/>
   <path d="m19.864 160.22c0 0.21855-0.04445 0.3519-0.22225 0.3519-0.06297 0-0.12594-0.0148-0.17039-0.0296l-0.06297 0.22966c0.06297 0.0259 0.15558 0.0482 0.2667 0.0482 0.3593 0 0.49266-0.23337 0.49266-0.60008v-2.004h-0.30374zm0.15558-2.3744c0.11483 0 0.20743-0.0815 0.20743-0.19632 0-0.11854-0.0926-0.19632-0.20743-0.19632-0.11853 0-0.21114 0.0778-0.21114 0.19632 0 0.11483 0.0926 0.19632 0.21114 0.19632z"/>
   <path d="m20.638 159.12c0 0.58897 0.38153 0.94086 0.86307 0.94086 0.24448 0 0.43709-0.0852 0.59267-0.18521l-0.10742-0.20002c-0.13335 0.0852-0.27781 0.14076-0.4482 0.14076-0.34449 0-0.57785-0.24448-0.60008-0.63342h1.215c0.0074-0.0445 0.01111-0.10371 0.01111-0.16668 0-0.51488-0.25929-0.84455-0.71861-0.84455-0.41116 0-0.80751 0.3593-0.80751 0.94826zm0.29633-0.13705c0.03704-0.36301 0.2667-0.57044 0.51858-0.57044 0.28152 0 0.4445 0.20373 0.4445 0.57044z"/>
   <path d="m22.476 159.12c0 0.59637 0.36671 0.94086 0.84455 0.94086 0.21484 0 0.42228-0.0889 0.58526-0.23336l-0.13705-0.20003c-0.10742 0.0963-0.25188 0.18151-0.42228 0.18151-0.32967 0-0.55562-0.27781-0.55562-0.68898 0-0.41486 0.23707-0.69638 0.56303-0.69638 0.14446 0 0.25559 0.0667 0.36301 0.15928l0.15187-0.19632c-0.12224-0.11483-0.28892-0.21484-0.52599-0.21484-0.46302 0-0.86678 0.34448-0.86678 0.94826z"/>
   <path d="m24.347 159.46c0 0.3556 0.12965 0.60007 0.51488 0.60007 0.11112 0 0.23336-0.0333 0.33338-0.0667l-0.05927-0.22966c-0.05927 0.0222-0.14076 0.0481-0.20373 0.0481-0.20743 0-0.27781-0.12594-0.27781-0.34819v-1.0001h0.48525v-0.24817h-0.48525v-0.50377h-0.25559l-0.03704 0.50377-0.28152 0.0185v0.22965h0.2667z"/>
   <path d="m26.31 160.02h0.77788c0.54081 0 0.91863-0.23336 0.91863-0.7112 0-0.33337-0.20743-0.52599-0.56303-0.58155v-0.0148c0.28892-0.0741 0.42598-0.28893 0.42598-0.5297 0-0.42598-0.34449-0.59266-0.83714-0.59266h-0.72231zm0.31115-1.3928v-0.79269h0.37412c0.37412 0 0.57044 0.11113 0.57044 0.37412 0 0.27041-0.1741 0.41857-0.58526 0.41857zm0 1.1483v-0.91864h0.42228c0.42598 0 0.65934 0.13706 0.65934 0.43709 0 0.32968-0.24448 0.48155-0.65934 0.48155z"/>
  </g>
  <g fill="none" stroke="#009244" stroke-dashoffset="1.2" stroke-linecap="square" stroke-miterlimit="40" stroke-width=".26458">
   <path d="m6.2617 172.72v-2.9104h2.9104" style="paint-order:normal"/>
   <path d="m36.689 172.72v-2.9104h-2.9104" style="paint-order:normal"/>
   <path d="m6.2617 181.45v2.9104h2.9104" style="paint-order:normal"/>
   <path d="m36.689 181.45v2.9104h-2.9104" style="paint-order:normal"/>
  </g>
  <g>
   <rect x="6.7908" y="170.33" width="29.369" height="13.494" fill="#1d232d"/>
   <g fill="#e8eaec" stroke-linecap="round" stroke-width=".26458" aria-label="Object C">
    <path d="m16.319 178.58c0.60748 0 1.0372-0.48895 1.0372-1.2705 0-0.77417-0.42968-1.2483-1.0372-1.2483-0.61119 0-1.0409 0.47043-1.0409 1.2483 0 0.78158 0.42968 1.2705 1.0409 1.2705zm0-0.2704c-0.43709 0-0.72231-0.39265-0.72231-1.0001 0-0.60378 0.28522-0.9779 0.72231-0.9779 0.43339 0 0.71861 0.37412 0.71861 0.9779 0 0.60748-0.28522 1.0001-0.71861 1.0001z"/>
    <path d="m17.838 178.54h0.24448l0.02593-0.1778h0.01111c0.15928 0.14076 0.34819 0.22225 0.51488 0.22225 0.41116 0 0.77788-0.3593 0.77788-0.9742 0-0.55562-0.24818-0.91493-0.7149-0.91493-0.20003 0-0.40005 0.10742-0.56303 0.25189l0.0074-0.32597v-0.71861h-0.30374zm0.30374-0.40005v-0.94456c0.17039-0.15928 0.32967-0.24448 0.48154-0.24448 0.34078 0 0.47413 0.2667 0.47413 0.66305 0 0.4445-0.21855 0.7149-0.51488 0.7149-0.11853 0-0.28152-0.0519-0.4408-0.18891z"/>
    <path d="m19.896 178.74c0 0.21855-0.04445 0.3519-0.22225 0.3519-0.06297 0-0.12594-0.0148-0.17039-0.0296l-0.06297 0.22966c0.06297 0.0259 0.15558 0.0482 0.2667 0.0482 0.3593 0 0.49266-0.23336 0.49266-0.60007v-2.004h-0.30374zm0.15558-2.3744c0.11483 0 0.20743-0.0815 0.20743-0.19632 0-0.11854-0.0926-0.19633-0.20743-0.19633-0.11853 0-0.21114 0.0778-0.21114 0.19633 0 0.11482 0.0926 0.19632 0.21114 0.19632z"/>
    <path d="m20.671 177.64c0 0.58896 0.38153 0.94086 0.86307 0.94086 0.24448 0 0.43709-0.0852 0.59267-0.18521l-0.10742-0.20002c-0.13335 0.0852-0.27781 0.14075-0.4482 0.14075-0.34449 0-0.57785-0.24447-0.60008-0.63341h1.215c0.0074-0.0444 0.01111-0.10372 0.01111-0.16669 0-0.51488-0.25929-0.84455-0.71861-0.84455-0.41116 0-0.80751 0.35931-0.80751 0.94827zm0.29633-0.13705c0.03704-0.36301 0.2667-0.57045 0.51858-0.57045 0.28152 0 0.4445 0.20373 0.4445 0.57045z"/>
    <path d="m22.509 177.64c0 0.59637 0.36671 0.94086 0.84455 0.94086 0.21484 0 0.42228-0.0889 0.58526-0.23336l-0.13705-0.20003c-0.10742 0.0963-0.25188 0.18151-0.42228 0.18151-0.32967 0-0.55563-0.27782-0.55563-0.68898 0-0.41487 0.23707-0.69638 0.56303-0.69638 0.14446 0 0.25559 0.0667 0.36301 0.15928l0.15187-0.19632c-0.12224-0.11483-0.28893-0.21485-0.52599-0.21485-0.46302 0-0.86678 0.34449-0.86678 0.94827z"/>
    <path d="m24.379 177.98c0 0.3556 0.12965 0.60008 0.51488 0.60008 0.11113 0 0.23336-0.0333 0.33338-0.0667l-0.05927-0.22965c-0.05927 0.0222-0.14076 0.0482-0.20373 0.0482-0.20743 0-0.27781-0.12594-0.27781-0.34819v-1.0001h0.48525v-0.24818h-0.48525v-0.50376h-0.25559l-0.03704 0.50376-0.28152 0.0185v0.22966h0.2667z"/>
    <path d="m26.202 177.32c0 0.79269 0.45561 1.2594 1.0668 1.2594 0.30745 0 0.54822-0.12965 0.73713-0.3519l-0.1741-0.18891c-0.15558 0.1741-0.32597 0.27041-0.55562 0.27041-0.46302 0-0.75565-0.38524-0.75565-0.99643 0-0.60378 0.30745-0.9816 0.77047-0.9816 0.20002 0 0.3556 0.0889 0.48525 0.22595l0.1741-0.19632c-0.14446-0.15928-0.37412-0.30004-0.66305-0.30004-0.6223 0-1.0853 0.47784-1.0853 1.2594z"/>
   </g>
   <rect x="31.662" y="134.09" width="3.7042" height="3.7042" fill="#535e70"/>
   <rect x="31.662" y="152.61" width="3.7042" height="3.7042" fill="#535e70"/>
   <rect x="31.662" y="171.13" width="3.7042" height="3.7042" fill="#009244"/>
   <g fill="#e8eaec" stroke-linecap="round" stroke-width=".26458" aria-label="  frame N update 3/3">
    <path d="m15.731 119.34c-0.08149-0.0296-0.21484-0.0667-0.36671-0.0667-0.49636 0-0.67786 0.31856-0.67786 0.7075v0.10001l-0.24448 0.0185v0.40375h0.24448v1.4113h0.54451v-1.4113h0.32967v-0.42598h-0.32967v-0.11112c0-0.18891 0.07779-0.263 0.21114-0.263 0.05927 0 0.12594 0.0148 0.18891 0.0371z"/>
    <path d="m15.86 121.92h0.54451v-1.0668c0.09631-0.24818 0.2667-0.33708 0.40375-0.33708 0.07779 0 0.13335 0.0111 0.20003 0.0296l0.0889-0.47043c-0.05186-0.0222-0.11483-0.037-0.21855-0.037-0.18891 0-0.38894 0.11854-0.52229 0.36672h-0.01482l-0.03704-0.32227h-0.4445z"/>
    <path d="m17.161 121.4c0 0.31115 0.21114 0.55562 0.54451 0.55562 0.20743 0 0.38153-0.0963 0.5371-0.23336h0.01111l0.04075 0.18891h0.4445v-1.052c0-0.56303-0.25929-0.82974-0.72972-0.82974-0.28892 0-0.55192 0.10002-0.78528 0.24078l0.19262 0.3593c0.1778-0.10372 0.33338-0.16669 0.48895-0.16669 0.19632 0 0.27781 0.10372 0.28892 0.2667-0.72602 0.0741-1.0335 0.28522-1.0335 0.67046zm0.51858-0.0408c0-0.14076 0.12594-0.25188 0.51488-0.30374v0.32226c-0.09631 0.0963-0.1778 0.15558-0.30374 0.15558-0.12965 0-0.21114-0.0556-0.21114-0.1741z"/>
    <path d="m19.202 121.92h0.54451v-1.2409c0.11483-0.11854 0.22225-0.1778 0.31115-0.1778 0.15558 0 0.22595 0.0815 0.22595 0.34819v1.0705h0.54451v-1.2409c0.11853-0.11854 0.22225-0.1778 0.31485-0.1778 0.15558 0 0.22596 0.0815 0.22596 0.34819v1.0705h0.54451v-1.1409c0-0.45932-0.1778-0.74084-0.57415-0.74084-0.24448 0-0.41487 0.14076-0.57785 0.30745-0.0926-0.19632-0.24818-0.30745-0.50747-0.30745-0.24077 0-0.40376 0.12965-0.55563 0.28152h-0.01482l-0.03704-0.23707h-0.4445z"/>
    <path d="m22.271 121c0 0.60748 0.40376 0.96308 0.92975 0.96308 0.21855 0 0.46302-0.0778 0.65193-0.20743l-0.1815-0.32967c-0.13335 0.0815-0.25929 0.12224-0.39635 0.12224-0.24448 0-0.42968-0.12224-0.47784-0.40005h1.1001c0.01111-0.0444 0.02222-0.13335 0.02222-0.22966 0-0.50007-0.25929-0.8816-0.78158-0.8816-0.4408 0-0.86678 0.36672-0.86678 0.96309zm0.52229-0.18891c0.03704-0.24448 0.18521-0.35931 0.3556-0.35931 0.21855 0 0.30745 0.14817 0.30745 0.35931z"/>
    <path d="m25.11 121.92h0.52229v-0.85566c0-0.28522-0.04445-0.60748-0.07038-0.87418h0.01482l0.23707 0.52599 0.62971 1.2038h0.55933v-2.4151h-0.51858v0.85196c0 0.28522 0.04445 0.62601 0.07038 0.8816h-0.01482l-0.24077-0.5334-0.62971-1.2002h-0.55933z"/>
    <path d="m13.027 125.89c0 0.45931 0.17039 0.74083 0.57044 0.74083 0.25188 0 0.42228-0.11483 0.57785-0.30004h0.01111l0.04075 0.25559h0.4445v-1.8373h-0.54451v1.215c-0.10742 0.14446-0.18891 0.20373-0.32597 0.20373-0.15928 0-0.22966-0.0852-0.22966-0.34819v-1.0705h-0.54451z"/>
    <path d="m15.677 126.43c0.12965 0.12224 0.27781 0.19262 0.43709 0.19262 0.39635 0 0.77417-0.36301 0.77417-0.99272 0-0.56674-0.27411-0.93345-0.71861-0.93345-0.19262 0-0.37782 0.0963-0.52229 0.22596h-0.01482l-0.03704-0.18151h-0.4445v2.5188h0.54451v-0.53711zm0.01852-0.37041v-0.75195c0.10742-0.11483 0.20373-0.16669 0.31485-0.16669 0.21855 0 0.31856 0.16669 0.31856 0.49636 0 0.37783-0.15187 0.54081-0.34078 0.54081-0.0926 0-0.19632-0.0296-0.29263-0.11853z"/>
    <path d="m17.174 125.66c0 0.60007 0.29633 0.96308 0.75195 0.96308 0.1778 0 0.3593-0.0963 0.48895-0.22596h0.01482l0.03704 0.18151h0.4445v-2.5966h-0.54451v0.626l0.02222 0.28152c-0.12594-0.11854-0.24818-0.19262-0.45191-0.19262-0.38894 0-0.76306 0.36301-0.76306 0.96309zm0.55933-7e-3c0-0.3482 0.15558-0.51118 0.32967-0.51118 0.10001 0 0.20743 0.0296 0.30374 0.11853v0.75195c-0.0889 0.12224-0.1815 0.16669-0.30004 0.16669-0.21114 0-0.33338-0.16298-0.33338-0.52599z"/>
    <path d="m19.324 126.07c0 0.31115 0.21114 0.55563 0.54451 0.55563 0.20743 0 0.38153-0.0963 0.5371-0.23336h0.01111l0.04075 0.18891h0.4445v-1.052c0-0.56303-0.25929-0.82973-0.72972-0.82973-0.28892 0-0.55192 0.10001-0.78528 0.24077l0.19262 0.35931c0.1778-0.10372 0.33338-0.16669 0.48895-0.16669 0.19632 0 0.27781 0.10372 0.28892 0.2667-0.72602 0.0741-1.0335 0.28522-1.0335 0.67045zm0.51858-0.0407c0-0.14076 0.12594-0.25189 0.51488-0.30374v0.32226c-0.09631 0.0963-0.1778 0.15557-0.30374 0.15557-0.12965 0-0.21114-0.0556-0.21114-0.17409z"/>
    <path d="m21.44 125.92c0 0.42598 0.1778 0.7112 0.63341 0.7112 0.1778 0 0.31115-0.037 0.40746-0.0667l-0.0852-0.39634c-0.04815 0.0185-0.11483 0.037-0.1741 0.037-0.14446 0-0.23707-0.0852-0.23707-0.29263v-0.73713h0.4408v-0.42598h-0.4408v-0.48895h-0.45191l-0.06297 0.48895-0.28152 0.0222v0.40375h0.25188z"/>
    <path d="m22.64 125.66c0 0.60748 0.40376 0.96308 0.92975 0.96308 0.21855 0 0.46302-0.0778 0.65193-0.20743l-0.1815-0.32968c-0.13335 0.0815-0.25929 0.12224-0.39635 0.12224-0.24448 0-0.42968-0.12224-0.47784-0.40005h1.1001c0.01111-0.0445 0.02223-0.13335 0.02223-0.22966 0-0.50006-0.25929-0.88159-0.78158-0.88159-0.4408 0-0.86678 0.36671-0.86678 0.96309zm0.52229-0.18892c0.03704-0.24447 0.18521-0.3593 0.3556-0.3593 0.21855 0 0.30745 0.14816 0.30745 0.3593z"/>
    <path d="m25.279 126.29c0.17039 0.20003 0.43709 0.33338 0.81862 0.33338 0.47413 0 0.87418-0.24818 0.87418-0.68527 0-0.30374-0.19632-0.49636-0.46672-0.57415v-0.0148c0.25188-0.10742 0.39264-0.27781 0.39264-0.52228 0-0.41117-0.32597-0.64453-0.81121-0.64453-0.28893 0-0.52599 0.11483-0.74083 0.30004l0.27411 0.33337c0.14817-0.12964 0.27411-0.20743 0.4408-0.20743 0.18521 0 0.28893 0.0963 0.28893 0.25929 0 0.18892-0.13335 0.31486-0.55563 0.31486v0.38523c0.51118 0 0.63341 0.12965 0.63341 0.33708 0 0.1778-0.15187 0.27781-0.38153 0.27781-0.20002 0-0.37412-0.10001-0.51488-0.23706z"/>
    <path d="m27.199 127.18h0.3556l0.74454-3.2226h-0.3556z"/>
    <path d="m28.492 126.29c0.17039 0.20003 0.43709 0.33338 0.81862 0.33338 0.47413 0 0.87418-0.24818 0.87418-0.68527 0-0.30374-0.19632-0.49636-0.46672-0.57415v-0.0148c0.25188-0.10742 0.39264-0.27781 0.39264-0.52228 0-0.41117-0.32597-0.64453-0.81121-0.64453-0.28892 0-0.52599 0.11483-0.74083 0.30004l0.27411 0.33337c0.14817-0.12964 0.27411-0.20743 0.4408-0.20743 0.18521 0 0.28892 0.0963 0.28892 0.25929 0 0.18892-0.13335 0.31486-0.55562 0.31486v0.38523c0.51118 0 0.63341 0.12965 0.63341 0.33708 0 0.1778-0.15187 0.27781-0.38153 0.27781-0.20002 0-0.37412-0.10001-0.51488-0.23706z"/>
   </g>
  </g>
  <g fill="none" stroke="#535e70" stroke-dashoffset="1.2" stroke-linecap="square" stroke-miterlimit="40" stroke-width=".26458">
   <path d="m-46.655 172.72v-2.9104h2.9104" style="paint-order:normal"/>
   <path d="m-16.228 172.72v-2.9104h-2.9104" style="paint-order:normal"/>
   <path d="m-46.655 181.45v2.9104h2.9104" style="paint-order:normal"/>
   <path d="m-16.228 181.45v2.9104h-2.9104" style="paint-order:normal"/>
  </g>
  <g>
   <rect x="-46.126" y="170.33" width="29.369" height="13.494" fill="#1d232d"/>
   <g fill="#535e70" stroke-linecap="round" stroke-width=".26458" aria-label="Object C">
    <path d="m-36.598 178.58c0.60748 0 1.0372-0.48895 1.0372-1.2705 0-0.77417-0.42968-1.2483-1.0372-1.2483-0.61119 0-1.0409 0.47043-1.0409 1.2483 0 0.78158 0.42968 1.2705 1.0409 1.2705zm0-0.2704c-0.43709 0-0.72231-0.39265-0.72231-1.0001 0-0.60378 0.28522-0.9779 0.72231-0.9779 0.43339 0 0.71861 0.37412 0.71861 0.9779 0 0.60748-0.28522 1.0001-0.71861 1.0001z"/>
    <path d="m-35.079 178.54h0.24448l0.02593-0.1778h0.01111c0.15928 0.14076 0.34819 0.22225 0.51488 0.22225 0.41116 0 0.77788-0.3593 0.77788-0.9742 0-0.55562-0.24818-0.91493-0.7149-0.91493-0.20002 0-0.40005 0.10742-0.56303 0.25189l0.0074-0.32597v-0.71861h-0.30374zm0.30374-0.40005v-0.94456c0.17039-0.15928 0.32967-0.24448 0.48154-0.24448 0.34078 0 0.47413 0.2667 0.47413 0.66305 0 0.4445-0.21855 0.7149-0.51488 0.7149-0.11853 0-0.28152-0.0519-0.4408-0.18891z"/>
    <path d="m-33.02 178.74c0 0.21855-0.04445 0.3519-0.22225 0.3519-0.06297 0-0.12594-0.0148-0.17039-0.0296l-0.06297 0.22966c0.06297 0.0259 0.15558 0.0482 0.2667 0.0482 0.3593 0 0.49266-0.23336 0.49266-0.60007v-2.004h-0.30374zm0.15558-2.3744c0.11483 0 0.20743-0.0815 0.20743-0.19632 0-0.11854-0.0926-0.19633-0.20743-0.19633-0.11853 0-0.21114 0.0778-0.21114 0.19633 0 0.11482 0.0926 0.19632 0.21114 0.19632z"/>
    <path d="m-32.246 177.64c0 0.58896 0.38153 0.94086 0.86307 0.94086 0.24448 0 0.43709-0.0852 0.59267-0.18521l-0.10742-0.20002c-0.13335 0.0852-0.27781 0.14075-0.4482 0.14075-0.34449 0-0.57785-0.24447-0.60008-0.63341h1.215c0.0074-0.0444 0.01111-0.10372 0.01111-0.16669 0-0.51488-0.25929-0.84455-0.71861-0.84455-0.41116 0-0.80751 0.35931-0.80751 0.94827zm0.29633-0.13705c0.03704-0.36301 0.2667-0.57045 0.51858-0.57045 0.28152 0 0.4445 0.20373 0.4445 0.57045z"/>
    <path d="m-30.408 177.64c0 0.59637 0.36671 0.94086 0.84455 0.94086 0.21484 0 0.42228-0.0889 0.58526-0.23336l-0.13705-0.20003c-0.10742 0.0963-0.25188 0.18151-0.42228 0.18151-0.32967 0-0.55563-0.27782-0.55563-0.68898 0-0.41487 0.23707-0.69638 0.56303-0.69638 0.14446 0 0.25559 0.0667 0.36301 0.15928l0.15187-0.19632c-0.12224-0.11483-0.28892-0.21485-0.52599-0.21485-0.46302 0-0.86678 0.34449-0.86678 0.94827z"/>
    <path d="m-28.537 177.98c0 0.3556 0.12965 0.60008 0.51488 0.60008 0.11112 0 0.23336-0.0333 0.33338-0.0667l-0.05927-0.22965c-0.05927 0.0222-0.14076 0.0482-0.20373 0.0482-0.20743 0-0.27781-0.12594-0.27781-0.34819v-1.0001h0.48525v-0.24818h-0.48525v-0.50376h-0.25559l-0.03704 0.50376-0.28152 0.0185v0.22966h0.2667z"/>
    <path d="m-26.714 177.32c0 0.79269 0.45561 1.2594 1.0668 1.2594 0.30745 0 0.54822-0.12965 0.73713-0.3519l-0.1741-0.18891c-0.15558 0.1741-0.32597 0.27041-0.55563 0.27041-0.46302 0-0.75565-0.38524-0.75565-0.99643 0-0.60378 0.30745-0.9816 0.77047-0.9816 0.20002 0 0.3556 0.0889 0.48525 0.22595l0.1741-0.19632c-0.14446-0.15928-0.37412-0.30004-0.66305-0.30004-0.6223 0-1.0853 0.47784-1.0853 1.2594z"/>
   </g>
   <rect x="-21.255" y="171.13" width="3.7042" height="3.7042" fill="#535e70"/>
  </g>
  <path d="m36.424 176.42c15.081 0 8.2021-18.521 0.26458-18.521" fill="none" stroke="#47d58a" stroke-dashoffset="1.2" stroke-linecap="square" stroke-miterlimit="40" stroke-width=".26458"/>
  <g transform="matrix(-.0042365 0 0 .0043091 38.385 156.9)" fill="#47d58a" stroke-width="123.85">
   <g fill="#47d58a" stroke-width="123.85">
    <path d="m486.41 221.41-364.07-208.5c-52.938-30.318-95.852-5.44-95.852 55.563v415.65c0 61.004 42.914 85.882 95.852 55.563l364.07-208.49c52.938-30.317 52.938-79.473 0-109.79z" fill="#47d58a" stroke-width="123.85"/>
   </g>
  </g>
  <path d="m-69.409 140.63c15.081 0 8.2021 18.521 0.26458 18.521" fill="none" stroke="#cf2f25" stroke-dashoffset="1.2" stroke-linecap="square" stroke-miterlimit="40" stroke-width=".26458"/>
  <g transform="matrix(-.0042365 0 0 -.0043091 -67.448 160.15)" fill="#cf2f25" stroke-width="123.85">
   <g fill="#cf2f25" stroke-width="123.85">
    <path d="m486.41 221.41-364.07-208.5c-52.938-30.318-95.852-5.44-95.852 55.563v415.65c0 61.004 42.914 85.882 95.852 55.563l364.07-208.49c52.938-30.317 52.938-79.473 0-109.79z" fill="#cf2f25" stroke-width="123.85"/>
   </g>
  </g>
  <path d="m-16.493 159.15c15.081 0 8.2021 18.521 0.26458 18.521" fill="none" stroke="#cf2f25" stroke-dashoffset="1.2" stroke-linecap="square" stroke-miterlimit="40" stroke-width=".26458"/>
  <g transform="matrix(-.0042365 0 0 -.0043091 -14.531 178.67)" fill="#cf2f25" stroke-width="123.85">
   <g fill="#cf2f25" stroke-width="123.85">
    <path d="m486.41 221.41-364.07-208.5c-52.938-30.318-95.852-5.44-95.852 55.563v415.65c0 61.004 42.914 85.882 95.852 55.563l364.07-208.49c52.938-30.317 52.938-79.473 0-109.79z" fill="#cf2f25" stroke-width="123.85"/>
   </g>
  </g>
  <g fill="#e8eaec" stroke-linecap="round" stroke-width=".26458">
   <g aria-label="read  previous">
    <path d="m-64.143 136.44h0.26035v-0.9906c0.10478-0.26035 0.26035-0.3556 0.39052-0.3556 0.0635 0 0.09843 0.01 0.14922 0.0254l0.0508-0.2286c-0.0508-0.0222-0.09842-0.0317-0.1651-0.0317-0.17462 0-0.33338 0.12383-0.43815 0.3175h-0.0095l-0.02222-0.2794h-0.2159z"/>
    <path d="m-63.184 135.67c0 0.50483 0.32702 0.80645 0.73978 0.80645 0.20955 0 0.37465-0.073 0.508-0.15875l-0.09208-0.17145c-0.1143 0.073-0.23812 0.12065-0.38418 0.12065-0.29528 0-0.4953-0.20955-0.51435-0.54292h1.0414c0.0064-0.0381 0.0095-0.0889 0.0095-0.14288 0-0.44132-0.22225-0.7239-0.61595-0.7239-0.35242 0-0.69215 0.30798-0.69215 0.8128zm0.254-0.11747c0.03175-0.31115 0.2286-0.48895 0.4445-0.48895 0.2413 0 0.381 0.17462 0.381 0.48895z"/>
    <path d="m-61.614 136.04c0 0.27623 0.19368 0.43815 0.45402 0.43815 0.1905 0 0.36195-0.1016 0.51118-0.22225h0.0064l0.02222 0.18415h0.2159v-0.94615c0-0.38417-0.15875-0.635-0.53658-0.635-0.24765 0-0.46355 0.10795-0.60642 0.20003l0.10478 0.18097c0.12065-0.0825 0.2794-0.1651 0.46038-0.1651 0.25082 0 0.3175 0.1905 0.3175 0.38735-0.65722 0.073-0.94932 0.2413-0.94932 0.57785zm0.25718-0.019c0-0.19685 0.17462-0.32385 0.69215-0.38735v0.42863c-0.14922 0.13335-0.27305 0.20637-0.42228 0.20637-0.1524 0-0.26988-0.073-0.26988-0.24765z"/>
    <path d="m-60.025 135.67c0 0.51435 0.25082 0.80645 0.63818 0.80645 0.18098 0 0.34608-0.1016 0.46672-0.21907h0.0095l0.02222 0.18097h0.2159v-2.2606h-0.26352v0.59373l0.0127 0.26352c-0.13652-0.11112-0.254-0.1778-0.4318-0.1778-0.35242 0-0.66992 0.31115-0.66992 0.8128zm0.26988-3e-3c0-0.35243 0.19685-0.59055 0.4445-0.59055 0.127 0 0.24448 0.0445 0.37465 0.16192v0.80645c-0.127 0.14288-0.25082 0.21273-0.3937 0.21273-0.26988 0-0.42545-0.22225-0.42545-0.59055z"/>
    <path d="m-66.313 140.3c0.14288 0.11112 0.28575 0.1778 0.42862 0.1778 0.35242 0 0.66675-0.30798 0.66675-0.83185 0-0.47943-0.21272-0.7874-0.6096-0.7874-0.18098 0-0.35242 0.0984-0.49212 0.2159h-0.0095l-0.02222-0.1778h-0.2159v2.1939h0.26035v-0.5207zm0.0063-0.2032v-0.80963c0.1524-0.13652 0.28258-0.20955 0.41275-0.20955 0.2921 0 0.4064 0.2286 0.4064 0.56833 0 0.381-0.18732 0.61277-0.44132 0.61277-0.1016 0-0.23812-0.0444-0.37782-0.16192z"/>
    <path d="m-64.806 140.44h0.26035v-0.9906c0.10478-0.26035 0.26035-0.3556 0.39052-0.3556 0.0635 0 0.09843 0.01 0.14922 0.0254l0.0508-0.2286c-0.0508-0.0222-0.09842-0.0318-0.1651-0.0318-0.17462 0-0.33338 0.12382-0.43815 0.3175h-0.0095l-0.02222-0.2794h-0.2159z"/>
    <path d="m-63.848 139.67c0 0.50482 0.32702 0.80645 0.73978 0.80645 0.20955 0 0.37465-0.073 0.508-0.15875l-0.09208-0.17145c-0.1143 0.073-0.23812 0.12065-0.38418 0.12065-0.29528 0-0.4953-0.20955-0.51435-0.54293h1.0414c0.0064-0.0381 0.0095-0.0889 0.0095-0.14287 0-0.44133-0.22225-0.7239-0.61595-0.7239-0.35242 0-0.69215 0.30797-0.69215 0.8128zm0.254-0.11748c0.03175-0.31115 0.2286-0.48895 0.4445-0.48895 0.2413 0 0.381 0.17463 0.381 0.48895z"/>
    <path d="m-61.806 140.44h0.3048l0.5461-1.543h-0.25718l-0.2921 0.8763c-0.04445 0.1524-0.09525 0.30797-0.1397 0.45402h-0.0127c-0.04762-0.14605-0.09842-0.30162-0.14288-0.45402l-0.2921-0.8763h-0.26988z"/>
    <path d="m-60.524 138.58c0.1016 0 0.18098-0.0699 0.18098-0.16828 0-0.1016-0.07937-0.16827-0.18098-0.16827-0.1016 0-0.18098 0.0667-0.18098 0.16827 0 0.0984 0.07937 0.16828 0.18098 0.16828zm-0.13335 1.8606h0.26035v-1.543h-0.26035z"/>
    <path d="m-59.991 139.67c0 0.51117 0.33655 0.80645 0.71438 0.80645s0.71438-0.29528 0.71438-0.80645c0-0.51753-0.33655-0.8128-0.71438-0.8128s-0.71438 0.29527-0.71438 0.8128zm0.26988 0c0-0.3556 0.18098-0.5969 0.4445-0.5969 0.2667 0 0.4445 0.2413 0.4445 0.5969 0 0.35242-0.1778 0.59055-0.4445 0.59055-0.26352 0-0.4445-0.23813-0.4445-0.59055z"/>
    <path d="m-58.175 139.87c0 0.3937 0.14605 0.60325 0.47308 0.60325 0.21272 0 0.36512-0.11113 0.508-0.2794h0.0095l0.02222 0.2413h0.2159v-1.543h-0.26035v1.0954c-0.14605 0.18098-0.25718 0.26035-0.41592 0.26035-0.2032 0-0.28892-0.12382-0.28892-0.41275v-0.94297h-0.26352z"/>
    <path d="m-56.594 140.26c0.14605 0.12065 0.3556 0.21273 0.57468 0.21273 0.36512 0 0.56515-0.20955 0.56515-0.46038 0-0.2921-0.24765-0.38417-0.4699-0.46672-0.17462-0.0667-0.3429-0.12383-0.3429-0.2667 0-0.11748 0.0889-0.22225 0.28258-0.22225 0.13652 0 0.24765 0.0572 0.35242 0.13652l0.12382-0.1651c-0.11748-0.0952-0.28575-0.17462-0.47942-0.17462-0.33338 0-0.53022 0.1905-0.53022 0.43815 0 0.26035 0.2413 0.36512 0.46038 0.4445 0.16828 0.0635 0.35242 0.13335 0.35242 0.2921 0 0.13335-0.1016 0.2413-0.3048 0.2413-0.18415 0-0.32068-0.0762-0.45402-0.18415z"/>
   </g>
   <g aria-label="read  current">
    <path d="m-8.5802 136.44h0.26035v-0.9906c0.10478-0.26035 0.26035-0.3556 0.39052-0.3556 0.0635 0 0.098425 0.01 0.14922 0.0254l0.0508-0.2286c-0.0508-0.0222-0.098425-0.0317-0.1651-0.0317-0.17462 0-0.33338 0.12383-0.43815 0.3175h-0.00953l-0.022225-0.2794h-0.2159z"/>
    <path d="m-7.6217 135.67c0 0.50483 0.32702 0.80645 0.73978 0.80645 0.20955 0 0.37465-0.073 0.508-0.15875l-0.092075-0.17145c-0.1143 0.073-0.23812 0.12065-0.38418 0.12065-0.29528 0-0.4953-0.20955-0.51435-0.54292h1.0414c0.00635-0.0381 0.00953-0.0889 0.00953-0.14288 0-0.44132-0.22225-0.7239-0.61595-0.7239-0.35242 0-0.69215 0.30798-0.69215 0.8128zm0.254-0.11747c0.03175-0.31115 0.2286-0.48895 0.4445-0.48895 0.2413 0 0.381 0.17462 0.381 0.48895z"/>
    <path d="m-6.0519 136.04c0 0.27623 0.19368 0.43815 0.45402 0.43815 0.1905 0 0.36195-0.1016 0.51118-0.22225h0.00635l0.022225 0.18415h0.2159v-0.94615c0-0.38417-0.15875-0.635-0.53658-0.635-0.24765 0-0.46355 0.10795-0.60642 0.20003l0.10478 0.18097c0.12065-0.0825 0.2794-0.1651 0.46038-0.1651 0.25082 0 0.3175 0.1905 0.3175 0.38735-0.65722 0.073-0.94932 0.2413-0.94932 0.57785zm0.25718-0.019c0-0.19685 0.17462-0.32385 0.69215-0.38735v0.42863c-0.14922 0.13335-0.27305 0.20637-0.42228 0.20637-0.1524 0-0.26988-0.073-0.26988-0.24765z"/>
    <path d="m-4.4621 135.67c0 0.51435 0.25082 0.80645 0.63817 0.80645 0.18098 0 0.34608-0.1016 0.46672-0.21907h0.00953l0.022225 0.18097h0.2159v-2.2606h-0.26352v0.59373l0.0127 0.26352c-0.13652-0.11112-0.254-0.1778-0.4318-0.1778-0.35242 0-0.66992 0.31115-0.66992 0.8128zm0.26987-3e-3c0-0.35243 0.19685-0.59055 0.4445-0.59055 0.127 0 0.24448 0.0445 0.37465 0.16192v0.80645c-0.127 0.14288-0.25082 0.21273-0.3937 0.21273-0.26988 0-0.42545-0.22225-0.42545-0.59055z"/>
    <path d="m-10.248 139.67c0 0.51117 0.31433 0.80645 0.7239 0.80645 0.18415 0 0.36195-0.0762 0.50165-0.20003l-0.11748-0.17145c-0.092075 0.0825-0.2159 0.15558-0.36195 0.15558-0.28258 0-0.47625-0.23813-0.47625-0.59055 0-0.3556 0.2032-0.5969 0.4826-0.5969 0.12382 0 0.21908 0.0572 0.31115 0.13652l0.13018-0.16827c-0.10478-0.0984-0.24765-0.18415-0.45085-0.18415-0.39688 0-0.74295 0.29527-0.74295 0.8128z"/>
    <path d="m-8.7109 139.87c0 0.3937 0.14605 0.60325 0.47308 0.60325 0.21272 0 0.36512-0.11113 0.508-0.2794h0.00953l0.022225 0.2413h0.2159v-1.543h-0.26035v1.0954c-0.14605 0.18098-0.25718 0.26035-0.41592 0.26035-0.2032 0-0.28892-0.12382-0.28892-0.41275v-0.94297h-0.26352z"/>
    <path d="m-6.9586 140.44h0.26035v-0.9906c0.10478-0.26035 0.26035-0.3556 0.39052-0.3556 0.0635 0 0.098425 0.01 0.14922 0.0254l0.0508-0.2286c-0.0508-0.0222-0.098425-0.0318-0.1651-0.0318-0.17462 0-0.33338 0.12382-0.43815 0.3175h-0.00953l-0.022225-0.2794h-0.2159z"/>
    <path d="m-5.8548 140.44h0.26035v-0.9906c0.10478-0.26035 0.26035-0.3556 0.39052-0.3556 0.0635 0 0.098425 0.01 0.14922 0.0254l0.0508-0.2286c-0.0508-0.0222-0.098425-0.0318-0.1651-0.0318-0.17462 0-0.33338 0.12382-0.43815 0.3175h-0.00953l-0.022225-0.2794h-0.2159z"/>
    <path d="m-4.8962 139.67c0 0.50482 0.32702 0.80645 0.73978 0.80645 0.20955 0 0.37465-0.073 0.508-0.15875l-0.092075-0.17145c-0.1143 0.073-0.23812 0.12065-0.38418 0.12065-0.29528 0-0.4953-0.20955-0.51435-0.54293h1.0414c0.00635-0.0381 0.00952-0.0889 0.00952-0.14287 0-0.44133-0.22225-0.7239-0.61595-0.7239-0.35242 0-0.69215 0.30797-0.69215 0.8128zm0.254-0.11748c0.03175-0.31115 0.2286-0.48895 0.4445-0.48895 0.2413 0 0.381 0.17463 0.381 0.48895z"/>
    <path d="m-3.2069 140.44h0.26035v-1.1176c0.15558-0.15558 0.26352-0.23813 0.42228-0.23813 0.2032 0 0.2921 0.12383 0.2921 0.41275v0.94298h0.26035v-0.9779c0-0.3937-0.14605-0.60325-0.4699-0.60325-0.21272 0-0.37148 0.1143-0.51752 0.26035h-0.00953l-0.022225-0.22225h-0.2159z"/>
    <path d="m-1.4261 139.96c0 0.3048 0.11112 0.51435 0.44132 0.51435 0.09525 0 0.20002-0.0286 0.28575-0.0572l-0.0508-0.19685c-0.0508 0.0191-0.12065 0.0413-0.17462 0.0413-0.1778 0-0.23812-0.10795-0.23812-0.29845v-0.85725h0.41592v-0.21272h-0.41592v-0.4318h-0.21908l-0.03175 0.4318-0.2413 0.0159v0.19685h0.2286z"/>
   </g>
   <g aria-label="read  current">
    <path d="m43.278 154.43h0.26035v-0.9906c0.10478-0.26035 0.26035-0.3556 0.39052-0.3556 0.0635 0 0.09842 0.01 0.14922 0.0254l0.0508-0.2286c-0.0508-0.0222-0.09842-0.0317-0.1651-0.0317-0.17462 0-0.33338 0.12383-0.43815 0.3175h-0.0095l-0.02222-0.2794h-0.2159z"/>
    <path d="m44.237 153.66c0 0.50483 0.32702 0.80645 0.73978 0.80645 0.20955 0 0.37465-0.073 0.508-0.15875l-0.09208-0.17145c-0.1143 0.073-0.23812 0.12065-0.38418 0.12065-0.29528 0-0.4953-0.20955-0.51435-0.54292h1.0414c0.0063-0.0381 0.0095-0.0889 0.0095-0.14288 0-0.44132-0.22225-0.7239-0.61595-0.7239-0.35242 0-0.69215 0.30798-0.69215 0.8128zm0.254-0.11747c0.03175-0.31115 0.2286-0.48895 0.4445-0.48895 0.2413 0 0.381 0.17462 0.381 0.48895z"/>
    <path d="m45.806 154.03c0 0.27623 0.19368 0.43815 0.45402 0.43815 0.1905 0 0.36195-0.1016 0.51118-0.22225h0.0064l0.02222 0.18415h0.2159v-0.94615c0-0.38417-0.15875-0.635-0.53658-0.635-0.24765 0-0.46355 0.10795-0.60642 0.20003l0.10478 0.18097c0.12065-0.0825 0.2794-0.1651 0.46038-0.1651 0.25082 0 0.3175 0.1905 0.3175 0.38735-0.65722 0.073-0.94932 0.2413-0.94932 0.57785zm0.25718-0.019c0-0.19685 0.17462-0.32385 0.69215-0.38735v0.42863c-0.14922 0.13335-0.27305 0.20637-0.42228 0.20637-0.1524 0-0.26988-0.073-0.26988-0.24765z"/>
    <path d="m47.396 153.66c0 0.51435 0.25082 0.80645 0.63818 0.80645 0.18098 0 0.34608-0.1016 0.46672-0.21907h0.0095l0.02222 0.18097h0.2159v-2.2606h-0.26352v0.59373l0.0127 0.26352c-0.13652-0.11112-0.254-0.1778-0.4318-0.1778-0.35242 0-0.66992 0.31115-0.66992 0.8128zm0.26988-3e-3c0-0.35243 0.19685-0.59055 0.4445-0.59055 0.127 0 0.24448 0.0445 0.37465 0.16192v0.80645c-0.127 0.14288-0.25082 0.21273-0.3937 0.21273-0.26988 0-0.42545-0.22225-0.42545-0.59055z"/>
    <path d="m41.61 157.66c0 0.51117 0.31432 0.80645 0.7239 0.80645 0.18415 0 0.36195-0.0762 0.50165-0.20003l-0.11748-0.17145c-0.09208 0.0825-0.2159 0.15558-0.36195 0.15558-0.28258 0-0.47625-0.23813-0.47625-0.59055 0-0.3556 0.2032-0.5969 0.4826-0.5969 0.12382 0 0.21908 0.0572 0.31115 0.13652l0.13018-0.16827c-0.10478-0.0984-0.24765-0.18415-0.45085-0.18415-0.39688 0-0.74295 0.29527-0.74295 0.8128z"/>
    <path d="m43.147 157.87c0 0.3937 0.14605 0.60325 0.47308 0.60325 0.21272 0 0.36512-0.11113 0.508-0.2794h0.0095l0.02222 0.2413h0.2159v-1.543h-0.26035v1.0954c-0.14605 0.18098-0.25718 0.26035-0.41592 0.26035-0.2032 0-0.28892-0.12382-0.28892-0.41275v-0.94297h-0.26352z"/>
    <path d="m44.9 158.43h0.26035v-0.9906c0.10478-0.26035 0.26035-0.3556 0.39052-0.3556 0.0635 0 0.09842 0.01 0.14922 0.0254l0.0508-0.2286c-0.0508-0.0222-0.09842-0.0318-0.1651-0.0318-0.17462 0-0.33338 0.12382-0.43815 0.3175h-0.0095l-0.02222-0.2794h-0.2159z"/>
    <path d="m46.004 158.43h0.26035v-0.9906c0.10478-0.26035 0.26035-0.3556 0.39052-0.3556 0.0635 0 0.09842 0.01 0.14922 0.0254l0.0508-0.2286c-0.0508-0.0222-0.09842-0.0318-0.1651-0.0318-0.17462 0-0.33338 0.12382-0.43815 0.3175h-0.0095l-0.02223-0.2794h-0.2159z"/>
    <path d="m46.962 157.66c0 0.50482 0.32702 0.80645 0.73978 0.80645 0.20955 0 0.37465-0.073 0.508-0.15875l-0.09208-0.17145c-0.1143 0.073-0.23812 0.12065-0.38418 0.12065-0.29528 0-0.4953-0.20955-0.51435-0.54293h1.0414c0.0063-0.0381 0.0095-0.0889 0.0095-0.14287 0-0.44133-0.22225-0.7239-0.61595-0.7239-0.35242 0-0.69215 0.30797-0.69215 0.8128zm0.254-0.11748c0.03175-0.31115 0.2286-0.48895 0.4445-0.48895 0.2413 0 0.381 0.17463 0.381 0.48895z"/>
    <path d="m48.651 158.43h0.26035v-1.1176c0.15558-0.15558 0.26352-0.23813 0.42228-0.23813 0.2032 0 0.2921 0.12383 0.2921 0.41275v0.94298h0.26035v-0.9779c0-0.3937-0.14605-0.60325-0.4699-0.60325-0.21272 0-0.37148 0.1143-0.51752 0.26035h-0.0095l-0.02223-0.22225h-0.2159z"/>
    <path d="m50.432 157.95c0 0.3048 0.11112 0.51435 0.44132 0.51435 0.09525 0 0.20002-0.0286 0.28575-0.0572l-0.0508-0.19685c-0.0508 0.0191-0.12065 0.0413-0.17462 0.0413-0.1778 0-0.23812-0.10795-0.23812-0.29845v-0.85725h0.41592v-0.21272h-0.41592v-0.4318h-0.21907l-0.03175 0.4318-0.2413 0.0159v0.19685h0.2286z"/>
   </g>
   <g aria-label="read  previous">
    <path d="m-8.5802 168.19h0.26035v-0.9906c0.10478-0.26035 0.26035-0.3556 0.39052-0.3556 0.0635 0 0.098425 0.01 0.14922 0.0254l0.0508-0.2286c-0.0508-0.0222-0.098425-0.0317-0.1651-0.0317-0.17462 0-0.33338 0.12383-0.43815 0.3175h-0.00953l-0.022225-0.2794h-0.2159z"/>
    <path d="m-7.6217 167.42c0 0.50483 0.32702 0.80645 0.73978 0.80645 0.20955 0 0.37465-0.073 0.508-0.15875l-0.092075-0.17145c-0.1143 0.073-0.23812 0.12065-0.38418 0.12065-0.29528 0-0.4953-0.20955-0.51435-0.54292h1.0414c0.00635-0.0381 0.00953-0.0889 0.00953-0.14288 0-0.44132-0.22225-0.7239-0.61595-0.7239-0.35242 0-0.69215 0.30798-0.69215 0.8128zm0.254-0.11747c0.03175-0.31115 0.2286-0.48895 0.4445-0.48895 0.2413 0 0.381 0.17462 0.381 0.48895z"/>
    <path d="m-6.0519 167.79c0 0.27623 0.19368 0.43815 0.45402 0.43815 0.1905 0 0.36195-0.1016 0.51118-0.22225h0.00635l0.022225 0.18415h0.2159v-0.94615c0-0.38417-0.15875-0.635-0.53658-0.635-0.24765 0-0.46355 0.10795-0.60642 0.20003l0.10478 0.18097c0.12065-0.0825 0.2794-0.1651 0.46038-0.1651 0.25082 0 0.3175 0.1905 0.3175 0.38735-0.65722 0.073-0.94932 0.2413-0.94932 0.57785zm0.25718-0.019c0-0.19685 0.17462-0.32385 0.69215-0.38735v0.42863c-0.14922 0.13335-0.27305 0.20637-0.42228 0.20637-0.1524 0-0.26988-0.073-0.26988-0.24765z"/>
    <path d="m-4.4621 167.42c0 0.51435 0.25082 0.80645 0.63817 0.80645 0.18098 0 0.34608-0.1016 0.46672-0.21907h0.00953l0.022225 0.18097h0.2159v-2.2606h-0.26352v0.59373l0.0127 0.26352c-0.13652-0.11112-0.254-0.1778-0.4318-0.1778-0.35242 0-0.66992 0.31115-0.66992 0.8128zm0.26987-3e-3c0-0.35243 0.19685-0.59055 0.4445-0.59055 0.127 0 0.24448 0.0445 0.37465 0.16192v0.80645c-0.127 0.14288-0.25082 0.21273-0.3937 0.21273-0.26988 0-0.42545-0.22225-0.42545-0.59055z"/>
    <path d="m-10.751 172.05c0.14288 0.11112 0.28575 0.1778 0.42862 0.1778 0.35242 0 0.66675-0.30798 0.66675-0.83185 0-0.47943-0.21272-0.7874-0.6096-0.7874-0.18098 0-0.35242 0.0984-0.49212 0.2159h-0.0095l-0.02223-0.1778h-0.2159v2.1939h0.26035v-0.5207zm0.0064-0.2032v-0.80963c0.1524-0.13652 0.28258-0.20955 0.41275-0.20955 0.2921 0 0.4064 0.2286 0.4064 0.56833 0 0.381-0.18732 0.61277-0.44132 0.61277-0.1016 0-0.23812-0.0444-0.37782-0.16192z"/>
    <path d="m-9.2437 172.19h0.26035v-0.9906c0.10478-0.26035 0.26035-0.3556 0.39052-0.3556 0.0635 0 0.098425 0.01 0.14922 0.0254l0.0508-0.2286c-0.0508-0.0222-0.098425-0.0318-0.1651-0.0318-0.17462 0-0.33338 0.12382-0.43815 0.3175h-0.00953l-0.022225-0.2794h-0.2159z"/>
    <path d="m-8.2852 171.42c0 0.50482 0.32702 0.80645 0.73978 0.80645 0.20955 0 0.37465-0.073 0.508-0.15875l-0.092075-0.17145c-0.1143 0.073-0.23812 0.12065-0.38418 0.12065-0.29528 0-0.4953-0.20955-0.51435-0.54293h1.0414c0.00635-0.0381 0.00953-0.0889 0.00953-0.14287 0-0.44133-0.22225-0.7239-0.61595-0.7239-0.35242 0-0.69215 0.30797-0.69215 0.8128zm0.254-0.11748c0.03175-0.31115 0.2286-0.48895 0.4445-0.48895 0.2413 0 0.381 0.17463 0.381 0.48895z"/>
    <path d="m-6.2438 172.19h0.3048l0.5461-1.543h-0.25718l-0.2921 0.8763c-0.04445 0.1524-0.09525 0.30797-0.1397 0.45402h-0.0127c-0.047625-0.14605-0.098425-0.30162-0.14288-0.45402l-0.2921-0.8763h-0.26988z"/>
    <path d="m-4.9618 170.33c0.1016 0 0.18098-0.0699 0.18098-0.16828 0-0.1016-0.079375-0.16827-0.18098-0.16827s-0.18098 0.0667-0.18098 0.16827c0 0.0984 0.079375 0.16828 0.18098 0.16828zm-0.13335 1.8606h0.26035v-1.543h-0.26035z"/>
    <path d="m-4.4281 171.42c0 0.51117 0.33655 0.80645 0.71438 0.80645s0.71438-0.29528 0.71438-0.80645c0-0.51753-0.33655-0.8128-0.71438-0.8128s-0.71438 0.29527-0.71438 0.8128zm0.26988 0c0-0.3556 0.18098-0.5969 0.4445-0.5969 0.2667 0 0.4445 0.2413 0.4445 0.5969 0 0.35242-0.1778 0.59055-0.4445 0.59055-0.26352 0-0.4445-0.23813-0.4445-0.59055z"/>
    <path d="m-2.6121 171.62c0 0.3937 0.14605 0.60325 0.47308 0.60325 0.21272 0 0.36512-0.11113 0.508-0.2794h0.00953l0.022225 0.2413h0.2159v-1.543h-0.26035v1.0954c-0.14605 0.18098-0.25718 0.26035-0.41592 0.26035-0.2032 0-0.28892-0.12382-0.28892-0.41275v-0.94297h-0.26353z"/>
    <path d="m-1.0312 172.01c0.14605 0.12065 0.3556 0.21273 0.57467 0.21273 0.36512 0 0.56515-0.20955 0.56515-0.46038 0-0.2921-0.24765-0.38417-0.4699-0.46672-0.17462-0.0667-0.3429-0.12383-0.3429-0.2667 0-0.11748 0.0889-0.22225 0.28258-0.22225 0.13652 0 0.24765 0.0572 0.35242 0.13652l0.12382-0.1651c-0.11748-0.0952-0.28575-0.17462-0.47942-0.17462-0.33338 0-0.53022 0.1905-0.53022 0.43815 0 0.26035 0.2413 0.36512 0.46037 0.4445 0.16828 0.0635 0.35242 0.13335 0.35242 0.2921 0 0.13335-0.1016 0.2413-0.3048 0.2413-0.18415 0-0.32068-0.0762-0.45402-0.18415z"/>
   </g>
  </g>
 </g>
</svg>
