<?xml version="1.0" encoding="UTF-8"?>
<svg width="71.818mm" height="65.77mm" version="1.1" viewBox="0 0 71.818 65.77" xmlns="http://www.w3.org/2000/svg" xmlns:cc="http://creativecommons.org/ns#" xmlns:dc="http://purl.org/dc/elements/1.1/" xmlns:rdf="http://www.w3.org/1999/02/22-rdf-syntax-ns#">
 <metadata>
  <rdf:RDF>
   <cc:Work rdf:about="">
    <dc:format>image/svg+xml</dc:format>
    <dc:type rdf:resource="http://purl.org/dc/dcmitype/StillImage"/>
    <dc:title/>
   </cc:Work>
  </rdf:RDF>
 </metadata>
 <g transform="translate(-100.06 -81.954)">
  <g fill="none" stroke="#30d2d5" stroke-dashoffset="1.2" stroke-linecap="square" stroke-width=".26458">
   <rect x="144.36" y="89.446" width="2.6458" height="2.6458"/>
   <rect x="147.01" y="89.446" width="2.6458" height="2.6458"/>
   <rect x="141.71" y="89.446" width="2.6458" height="2.6458"/>
   <rect x="139.07" y="89.446" width="2.6458" height="2.6458"/>
   <rect x="149.65" y="89.446" width="2.6458" height="2.6458"/>
   <rect x="152.3" y="89.446" width="2.6458" height="2.6458"/>
   <rect x="154.94" y="89.446" width="2.6458" height="2.6458"/>
   <rect x="157.59" y="89.446" width="2.6458" height="2.6458"/>
   <rect x="160.23" y="89.446" width="2.6458" height="2.6458"/>
   <rect x="162.88" y="89.446" width="2.6458" height="2.6458"/>
   <rect x="165.53" y="89.446" width="2.6458" height="2.6458"/>
   <rect x="168.17" y="89.446" width="2.6458" height="2.6458"/>
   <rect x="152.3" y="92.092" width="2.6458" height="2.6458"/>
  </g>
  <g fill="#e8eaec" stroke-linecap="round" stroke-width=".26458">
   <g aria-label="pac-dots">
    <path d="m106.35 91.636c0.16669 0.12965 0.33337 0.20743 0.50006 0.20743 0.41116 0 0.77788-0.3593 0.77788-0.97049 0-0.55933-0.24818-0.91863-0.7112-0.91863-0.21114 0-0.41117 0.11483-0.57415 0.25188h-0.0111l-0.0259-0.20743h-0.25189v2.5596h0.30375v-0.60748zm7e-3 -0.23707v-0.94456c0.1778-0.15928 0.32967-0.24448 0.48154-0.24448 0.34078 0 0.47413 0.2667 0.47413 0.66305 0 0.4445-0.21854 0.7149-0.51488 0.7149-0.11853 0-0.27781-0.05186-0.44079-0.18891z"/>
    <path d="m107.97 91.332c0 0.32226 0.22595 0.51118 0.52969 0.51118 0.22225 0 0.42228-0.11853 0.59638-0.25929h7e-3l0.0259 0.21484h0.25189v-1.1038c0-0.4482-0.18521-0.74083-0.62601-0.74083-0.28892 0-0.54081 0.12594-0.70749 0.23336l0.12223 0.21114c0.14076-0.09631 0.32597-0.19262 0.53711-0.19262 0.29263 0 0.37041 0.22225 0.37041 0.45191-0.76676 0.0852-1.1075 0.28152-1.1075 0.67416zm0.30004-0.02222c0-0.22966 0.20372-0.37782 0.8075-0.45191v0.50006c-0.17409 0.15558-0.31855 0.24077-0.49265 0.24077-0.1778 0-0.31485-0.0852-0.31485-0.28893z"/>
    <path d="m109.82 90.902c0 0.59637 0.36671 0.94086 0.84455 0.94086 0.21484 0 0.42228-0.0889 0.58526-0.23336l-0.13705-0.20002c-0.10742 0.09631-0.25189 0.1815-0.42228 0.1815-0.32967 0-0.55562-0.27781-0.55562-0.68898 0-0.41487 0.23706-0.69638 0.56303-0.69638 0.14446 0 0.25559 0.06668 0.36301 0.15928l0.15187-0.19632c-0.12224-0.11483-0.28893-0.21484-0.52599-0.21484-0.46302 0-0.86678 0.34449-0.86678 0.94827z"/>
    <path d="m111.41 90.987h0.85196v-0.23336h-0.85196z"/>
    <path d="m112.58 90.902c0 0.60008 0.29263 0.94086 0.74454 0.94086 0.21114 0 0.40376-0.11853 0.54451-0.25559h0.0111l0.0259 0.21114h0.25188v-2.6374h-0.30745v0.69268l0.0148 0.30745c-0.15928-0.12965-0.29633-0.20743-0.50377-0.20743-0.41116 0-0.78158 0.36301-0.78158 0.94827zm0.31486-0.0037c0-0.41116 0.22966-0.68898 0.51858-0.68898 0.14817 0 0.28522 0.05186 0.43709 0.18891v0.94086c-0.14816 0.16669-0.29263 0.24818-0.45931 0.24818-0.31486 0-0.49636-0.25929-0.49636-0.68898z"/>
    <path d="m114.64 90.902c0 0.59637 0.39264 0.94086 0.83343 0.94086 0.4408 0 0.83344-0.34449 0.83344-0.94086 0-0.60378-0.39264-0.94827-0.83344-0.94827-0.44079 0-0.83343 0.34449-0.83343 0.94827zm0.31485 0c0-0.41487 0.21114-0.69638 0.51858-0.69638 0.31115 0 0.51859 0.28152 0.51859 0.69638 0 0.41116-0.20744 0.68898-0.51859 0.68898-0.30744 0-0.51858-0.27781-0.51858-0.68898z"/>
    <path d="m116.83 91.243c0 0.3556 0.12965 0.60008 0.51488 0.60008 0.11113 0 0.23337-0.03334 0.33338-0.06668l-0.0593-0.22966c-0.0593 0.02223-0.14076 0.04815-0.20373 0.04815-0.20743 0-0.27781-0.12594-0.27781-0.34819v-1.0001h0.48525v-0.24818h-0.48525v-0.50377h-0.25559l-0.037 0.50377-0.28152 0.01852v0.22966h0.2667z"/>
    <path d="m117.83 91.595c0.1704 0.14076 0.41487 0.24818 0.67046 0.24818 0.42598 0 0.65934-0.24448 0.65934-0.5371 0-0.34078-0.28892-0.4482-0.54822-0.54451-0.20373-0.07779-0.40005-0.14446-0.40005-0.31115 0-0.13705 0.10372-0.25929 0.32967-0.25929 0.15928 0 0.28893 0.06668 0.41117 0.15928l0.14446-0.19262c-0.13705-0.11112-0.33338-0.20373-0.55933-0.20373-0.38894 0-0.6186 0.22225-0.6186 0.51118 0 0.30374 0.28152 0.42598 0.53711 0.51858 0.19632 0.07408 0.41116 0.15558 0.41116 0.34078 0 0.15558-0.11853 0.28152-0.3556 0.28152-0.21484 0-0.37412-0.0889-0.5297-0.21484z"/>
   </g>
   <g aria-label="stage">
    <path d="m111.1 84.187c0.17039 0.14076 0.41487 0.24818 0.67046 0.24818 0.42598 0 0.65934-0.24448 0.65934-0.5371 0-0.34078-0.28893-0.4482-0.54822-0.54451-0.20373-0.07779-0.40005-0.14446-0.40005-0.31115 0-0.13705 0.10372-0.25929 0.32967-0.25929 0.15928 0 0.28893 0.06668 0.41116 0.15928l0.14447-0.19262c-0.13706-0.11112-0.33338-0.20373-0.55933-0.20373-0.38894 0-0.6186 0.22225-0.6186 0.51118 0 0.30374 0.28152 0.42598 0.53711 0.51858 0.19632 0.07408 0.41116 0.15558 0.41116 0.34078 0 0.15558-0.11853 0.28152-0.3556 0.28152-0.21484 0-0.37412-0.0889-0.5297-0.21484z"/>
    <path d="m112.9 83.835c0 0.3556 0.12964 0.60008 0.51488 0.60008 0.11112 0 0.23336-0.03334 0.33337-0.06668l-0.0593-0.22966c-0.0593 0.02223-0.14076 0.04815-0.20373 0.04815-0.20744 0-0.27782-0.12594-0.27782-0.34819v-1.0001h0.48525v-0.24818h-0.48525v-0.50377h-0.25558l-0.037 0.50377-0.28151 0.01852v0.22966h0.2667z"/>
    <path d="m113.95 83.924c0 0.32226 0.22595 0.51118 0.5297 0.51118 0.22225 0 0.42227-0.11853 0.59637-0.25929h7e-3l0.0259 0.21484h0.25188v-1.1038c0-0.4482-0.18521-0.74083-0.62601-0.74083-0.28892 0-0.5408 0.12594-0.70749 0.23336l0.12224 0.21114c0.14075-0.09631 0.32596-0.19262 0.5371-0.19262 0.29263 0 0.37042 0.22225 0.37042 0.45191-0.76677 0.08519-1.1076 0.28152-1.1076 0.67416zm0.30004-0.02223c0-0.22966 0.20373-0.37782 0.80751-0.45191v0.50006c-0.1741 0.15558-0.31856 0.24077-0.49266 0.24077-0.1778 0-0.31485-0.0852-0.31485-0.28893z"/>
    <path d="m116.06 84.694c0-0.10372 0.0556-0.21114 0.18521-0.30374 0.0778 0.02222 0.16298 0.02963 0.23336 0.02963h0.31115c0.23336 0 0.36301 0.05556 0.36301 0.22225 0 0.18891-0.22595 0.36671-0.57044 0.36671-0.32597 0-0.52229-0.12224-0.52229-0.31485zm-0.2667 0.04075c0 0.31115 0.30374 0.48525 0.74454 0.48525 0.55933 0 0.91122-0.28892 0.91122-0.6223 0-0.30004-0.21113-0.42968-0.62971-0.42968h-0.34819c-0.24447 0-0.31856-0.08149-0.31856-0.19632 0-0.10001 0.0519-0.15928 0.11483-0.21484 0.0815 0.04075 0.18151 0.06297 0.27041 0.06297 0.36671 0 0.65934-0.24077 0.65934-0.626 0-0.15187-0.063-0.28892-0.14817-0.37042h0.37042v-0.23337h-0.626c-0.0667-0.02593-0.15558-0.04445-0.25559-0.04445-0.36672 0-0.67787 0.24818-0.67787 0.64082 0 0.21484 0.11483 0.38894 0.23337 0.48525v0.01482c-0.0926 0.06297-0.19632 0.1815-0.19632 0.33338 0 0.14076 0.0704 0.23707 0.15928 0.29263v0.01482c-0.16299 0.11112-0.263 0.25559-0.263 0.40746zm0.74454-1.1187c-0.20744 0-0.38153-0.16669-0.38153-0.42968s0.17039-0.41857 0.38153-0.41857 0.38153 0.15558 0.38153 0.41857-0.1741 0.42968-0.38153 0.42968z"/>
    <path d="m117.62 83.494c0 0.58896 0.38152 0.94086 0.86307 0.94086 0.24447 0 0.43709-0.0852 0.59266-0.18521l-0.10742-0.20002c-0.13335 0.0852-0.27781 0.14076-0.4482 0.14076-0.34449 0-0.57785-0.24448-0.60008-0.63341h1.215c7e-3 -0.04445 0.0111-0.10372 0.0111-0.16669 0-0.51488-0.25929-0.84455-0.71861-0.84455-0.41116 0-0.8075 0.3593-0.8075 0.94827zm0.29633-0.13705c0.037-0.36301 0.2667-0.57044 0.51858-0.57044 0.28152 0 0.4445 0.20373 0.4445 0.57044z"/>
   </g>
   <g aria-label="power pellet">
    <path d="m100.49 99.309c0.16669 0.12965 0.33338 0.20743 0.50007 0.20743 0.41116 0 0.77787-0.3593 0.77787-0.97049 0-0.55933-0.24818-0.91863-0.7112-0.91863-0.21113 0-0.41116 0.11483-0.57414 0.25188h-0.0111l-0.0259-0.20743h-0.25188v2.5596h0.30374v-0.60749zm7e-3 -0.23707v-0.94456c0.1778-0.15928 0.32967-0.24448 0.48155-0.24448 0.34078 0 0.47413 0.2667 0.47413 0.66305 0 0.4445-0.21855 0.7149-0.51488 0.7149-0.11853 0-0.27781-0.05186-0.4408-0.18891z"/>
    <path d="m102.11 98.575c0 0.59637 0.39264 0.94086 0.83344 0.94086 0.44079 0 0.83343-0.34449 0.83343-0.94086 0-0.60378-0.39264-0.94827-0.83343-0.94827-0.4408 0-0.83344 0.34449-0.83344 0.94827zm0.31485 0c0-0.41487 0.21114-0.69638 0.51859-0.69638 0.31115 0 0.51858 0.28152 0.51858 0.69638 0 0.41116-0.20743 0.68898-0.51858 0.68898-0.30745 0-0.51859-0.27781-0.51859-0.68898z"/>
    <path d="m104.53 99.472h0.3556l0.25188-0.96308c0.0482-0.17039 0.0852-0.34078 0.12594-0.52229h0.0148c0.0444 0.1815 0.0778 0.34819 0.12224 0.51858l0.25929 0.96679h0.37042l0.48154-1.8002h-0.28893l-0.26299 1.0409c-0.037 0.17039-0.0704 0.33338-0.11113 0.50006h-0.0148c-0.0408-0.16669-0.0815-0.32967-0.12595-0.50006l-0.28151-1.0409h-0.29634l-0.27781 1.0409c-0.0445 0.16669-0.0815 0.33338-0.12224 0.50006h-0.0148c-0.0333-0.16669-0.0667-0.32967-0.10742-0.50006l-0.2667-1.0409h-0.31115z"/>
    <path d="m106.76 98.575c0 0.58896 0.38153 0.94086 0.86307 0.94086 0.24448 0 0.43709-0.0852 0.59267-0.18521l-0.10742-0.20002c-0.13335 0.0852-0.27782 0.14076-0.44821 0.14076-0.34448 0-0.57785-0.24448-0.60007-0.63341h1.215c7e-3 -0.04445 0.0111-0.10372 0.0111-0.16669 0-0.51488-0.25929-0.84455-0.71861-0.84455-0.41116 0-0.80751 0.3593-0.80751 0.94827zm0.29633-0.13705c0.037-0.36301 0.2667-0.57044 0.51859-0.57044 0.28151 0 0.4445 0.20373 0.4445 0.57044z"/>
    <path d="m108.73 99.472h0.30374v-1.1557c0.12223-0.30374 0.30374-0.41487 0.45561-0.41487 0.0741 0 0.11483 0.01111 0.1741 0.02963l0.0593-0.2667c-0.0593-0.02593-0.11483-0.03704-0.19261-0.03704-0.20373 0-0.38894 0.14446-0.51118 0.37042h-0.0111l-0.0259-0.32597h-0.25188z"/>
    <path d="m111.06 99.309c0.16669 0.12965 0.33338 0.20743 0.50007 0.20743 0.41116 0 0.77787-0.3593 0.77787-0.97049 0-0.55933-0.24818-0.91863-0.7112-0.91863-0.21114 0-0.41116 0.11483-0.57415 0.25188h-0.0111l-0.0259-0.20743h-0.25188v2.5596h0.30374v-0.60749zm7e-3 -0.23707v-0.94456c0.1778-0.15928 0.32967-0.24448 0.48154-0.24448 0.34079 0 0.47414 0.2667 0.47414 0.66305 0 0.4445-0.21855 0.7149-0.51488 0.7149-0.11854 0-0.27782-0.05186-0.4408-0.18891z"/>
    <path d="m112.68 98.575c0 0.58896 0.38153 0.94086 0.86308 0.94086 0.24447 0 0.43709-0.0852 0.59266-0.18521l-0.10742-0.20002c-0.13335 0.0852-0.27781 0.14076-0.4482 0.14076-0.34449 0-0.57785-0.24448-0.60008-0.63341h1.215c7e-3 -0.04445 0.0111-0.10372 0.0111-0.16669 0-0.51488-0.25929-0.84455-0.71861-0.84455-0.41116 0-0.80751 0.3593-0.80751 0.94827zm0.29634-0.13705c0.037-0.36301 0.2667-0.57044 0.51858-0.57044 0.28152 0 0.4445 0.20373 0.4445 0.57044z"/>
    <path d="m114.65 99.109c0 0.263 0.0926 0.40746 0.32226 0.40746 0.0815 0 0.13335-0.01111 0.1741-0.02963l-0.0408-0.22966c-0.0333 0.0074-0.0481 0.0074-0.0667 0.0074-0.0445 0-0.0852-0.03704-0.0852-0.13335v-2.2966h-0.30374z"/>
    <path d="m115.6 99.109c0 0.263 0.0926 0.40746 0.32226 0.40746 0.0815 0 0.13335-0.01111 0.1741-0.02963l-0.0408-0.22966c-0.0333 0.0074-0.0481 0.0074-0.0667 0.0074-0.0444 0-0.0852-0.03704-0.0852-0.13335v-2.2966h-0.30374z"/>
    <path d="m116.42 98.575c0 0.58896 0.38153 0.94086 0.86307 0.94086 0.24448 0 0.4371-0.0852 0.59267-0.18521l-0.10742-0.20002c-0.13335 0.0852-0.27781 0.14076-0.4482 0.14076-0.34449 0-0.57785-0.24448-0.60008-0.63341h1.215c7e-3 -0.04445 0.0111-0.10372 0.0111-0.16669 0-0.51488-0.25929-0.84455-0.71861-0.84455-0.41116 0-0.80751 0.3593-0.80751 0.94827zm0.29634-0.13705c0.037-0.36301 0.2667-0.57044 0.51858-0.57044 0.28152 0 0.4445 0.20373 0.4445 0.57044z"/>
    <path d="m118.39 98.916c0 0.3556 0.12964 0.60008 0.51487 0.60008 0.11113 0 0.23337-0.03334 0.33338-0.06668l-0.0593-0.22966c-0.0593 0.02223-0.14075 0.04815-0.20373 0.04815-0.20743 0-0.27781-0.12594-0.27781-0.34819v-1.0001h0.48525v-0.24818h-0.48525v-0.50377h-0.25559l-0.037 0.50377-0.28151 0.01852v0.22966h0.2667z"/>
   </g>
   <g aria-label="ghost">
    <path d="m111.01 115.65c0-0.10371 0.0556-0.21114 0.18521-0.30374 0.0778 0.0222 0.16299 0.0296 0.23337 0.0296h0.31115c0.23336 0 0.363 0.0556 0.363 0.22225 0 0.18892-0.22595 0.36672-0.57044 0.36672-0.32596 0-0.52229-0.12224-0.52229-0.31486zm-0.2667 0.0408c0 0.31115 0.30375 0.48524 0.74454 0.48524 0.55933 0 0.91123-0.28892 0.91123-0.6223 0-0.30003-0.21114-0.42968-0.62971-0.42968h-0.34819c-0.24448 0-0.31856-0.0815-0.31856-0.19632 0-0.10001 0.0519-0.15928 0.11483-0.21484 0.0815 0.0407 0.1815 0.063 0.2704 0.063 0.36671 0 0.65934-0.24077 0.65934-0.62601 0-0.15187-0.063-0.28892-0.14816-0.37041h0.37041v-0.23337h-0.626c-0.0667-0.0259-0.15558-0.0444-0.25559-0.0444-0.36671 0-0.67786 0.24818-0.67786 0.64082 0 0.21485 0.11483 0.38894 0.23336 0.48525v0.0148c-0.0926 0.063-0.19632 0.1815-0.19632 0.33337 0 0.14076 0.0704 0.23707 0.15928 0.29263v0.0148c-0.16298 0.11112-0.263 0.25559-0.263 0.40746zm0.74454-1.1187c-0.20743 0-0.38153-0.16669-0.38153-0.42969 0-0.26299 0.17039-0.41857 0.38153-0.41857s0.38153 0.15558 0.38153 0.41857c0 0.263-0.17409 0.42969-0.38153 0.42969z"/>
    <path d="m112.75 115.35h0.30374v-1.3039c0.18151-0.1815 0.30745-0.27781 0.49266-0.27781 0.23707 0 0.34078 0.14446 0.34078 0.48154v1.1001h0.30374v-1.1409c0-0.45932-0.17039-0.7038-0.54821-0.7038-0.24818 0-0.42969 0.13335-0.60008 0.29634l0.0111-0.37042v-0.71861h-0.30374z"/>
    <path d="m114.64 114.45c0 0.59637 0.39264 0.94086 0.83343 0.94086 0.4408 0 0.83344-0.34449 0.83344-0.94086 0-0.60378-0.39264-0.94827-0.83344-0.94827-0.44079 0-0.83343 0.34449-0.83343 0.94827zm0.31485 0c0-0.41487 0.21114-0.69638 0.51858-0.69638 0.31115 0 0.51859 0.28151 0.51859 0.69638 0 0.41116-0.20744 0.68898-0.51859 0.68898-0.30744 0-0.51858-0.27782-0.51858-0.68898z"/>
    <path d="m116.58 115.14c0.17039 0.14076 0.41487 0.24818 0.67045 0.24818 0.42598 0 0.65935-0.24448 0.65935-0.5371 0-0.34079-0.28893-0.44821-0.54822-0.54452-0.20373-0.0778-0.40005-0.14446-0.40005-0.31115 0-0.13705 0.10372-0.25929 0.32967-0.25929 0.15928 0 0.28892 0.0667 0.41116 0.15928l0.14447-0.19262c-0.13706-0.11112-0.33338-0.20373-0.55933-0.20373-0.38894 0-0.6186 0.22225-0.6186 0.51118 0 0.30374 0.28152 0.42598 0.5371 0.51858 0.19632 0.0741 0.41117 0.15558 0.41117 0.34079 0 0.15557-0.11854 0.28151-0.3556 0.28151-0.21485 0-0.37412-0.0889-0.5297-0.21484z"/>
    <path d="m118.39 114.79c0 0.3556 0.12965 0.60008 0.51488 0.60008 0.11113 0 0.23337-0.0333 0.33338-0.0667l-0.0593-0.22965c-0.0593 0.0222-0.14076 0.0482-0.20373 0.0482-0.20743 0-0.27781-0.12594-0.27781-0.34819v-1.0001h0.48525v-0.24818h-0.48525v-0.50376h-0.25559l-0.037 0.50376-0.28152 0.0185v0.22966h0.2667z"/>
   </g>
   <g aria-label="center box">
    <path d="m103.25 123.18c0 0.59637 0.36671 0.94086 0.84455 0.94086 0.21484 0 0.42227-0.0889 0.58526-0.23337l-0.13706-0.20002c-0.10742 0.0963-0.25188 0.1815-0.42227 0.1815-0.32967 0-0.55563-0.27781-0.55563-0.68897 0-0.41487 0.23707-0.69639 0.56304-0.69639 0.14446 0 0.25558 0.0667 0.363 0.15928l0.15187-0.19632c-0.12223-0.11483-0.28892-0.21484-0.52599-0.21484-0.46302 0-0.86677 0.34449-0.86677 0.94827z"/>
    <path d="m104.85 123.18c0 0.58896 0.38153 0.94086 0.86307 0.94086 0.24448 0 0.4371-0.0852 0.59267-0.18521l-0.10742-0.20003c-0.13335 0.0852-0.27781 0.14076-0.4482 0.14076-0.34449 0-0.57786-0.24447-0.60008-0.63341h1.215c7e-3 -0.0444 0.0111-0.10372 0.0111-0.16669 0-0.51488-0.25929-0.84455-0.71861-0.84455-0.41116 0-0.80751 0.3593-0.80751 0.94827zm0.29634-0.13706c0.037-0.36301 0.2667-0.57044 0.51858-0.57044 0.28152 0 0.4445 0.20373 0.4445 0.57044z"/>
    <path d="m106.83 124.08h0.30374v-1.3039c0.1815-0.18151 0.30745-0.27781 0.49265-0.27781 0.23707 0 0.34079 0.14446 0.34079 0.48154v1.1001h0.30374v-1.1409c0-0.45931-0.17039-0.70379-0.54822-0.70379-0.24818 0-0.43339 0.13335-0.60378 0.30374h-0.0111l-0.0259-0.25929h-0.25188z"/>
    <path d="m108.9 123.52c0 0.3556 0.12965 0.60008 0.51488 0.60008 0.11113 0 0.23337-0.0333 0.33338-0.0667l-0.0593-0.22966c-0.0593 0.0222-0.14076 0.0482-0.20373 0.0482-0.20743 0-0.27781-0.12594-0.27781-0.34819v-1.0001h0.48525v-0.24818h-0.48525v-0.50377h-0.25559l-0.037 0.50377-0.28152 0.0185v0.22966h0.2667z"/>
    <path d="m109.93 123.18c0 0.58896 0.38153 0.94086 0.86307 0.94086 0.24447 0 0.43709-0.0852 0.59267-0.18521l-0.10743-0.20003c-0.13335 0.0852-0.27781 0.14076-0.4482 0.14076-0.34449 0-0.57785-0.24447-0.60008-0.63341h1.215c7e-3 -0.0444 0.0111-0.10372 0.0111-0.16669 0-0.51488-0.25929-0.84455-0.7186-0.84455-0.41117 0-0.80751 0.3593-0.80751 0.94827zm0.29633-0.13706c0.037-0.36301 0.2667-0.57044 0.51858-0.57044 0.28152 0 0.4445 0.20373 0.4445 0.57044z"/>
    <path d="m111.9 124.08h0.30374v-1.1557c0.12224-0.30375 0.30375-0.41487 0.45562-0.41487 0.0741 0 0.11483 0.0111 0.17409 0.0296l0.0593-0.2667c-0.0593-0.0259-0.11483-0.037-0.19262-0.037-0.20373 0-0.38894 0.14446-0.51117 0.37042h-0.0111l-0.0259-0.32597h-0.25189z"/>
    <path d="m113.94 124.08h0.24447l0.0259-0.1778h0.0111c0.15928 0.14076 0.34819 0.22225 0.51488 0.22225 0.41116 0 0.77788-0.35931 0.77788-0.9742 0-0.55563-0.24818-0.91493-0.71491-0.91493-0.20002 0-0.40005 0.10742-0.56303 0.25188l7e-3 -0.32596v-0.71861h-0.30374zm0.30374-0.40005v-0.94457c0.17039-0.15928 0.32967-0.24447 0.48154-0.24447 0.34078 0 0.47413 0.2667 0.47413 0.66304 0 0.4445-0.21854 0.71491-0.51488 0.71491-0.11853 0-0.28151-0.0519-0.44079-0.18891z"/>
    <path d="m115.86 123.18c0 0.59637 0.39264 0.94086 0.83344 0.94086s0.83344-0.34449 0.83344-0.94086c0-0.60378-0.39264-0.94827-0.83344-0.94827s-0.83344 0.34449-0.83344 0.94827zm0.31486 0c0-0.41487 0.21113-0.69639 0.51858-0.69639 0.31115 0 0.51858 0.28152 0.51858 0.69639 0 0.41116-0.20743 0.68897-0.51858 0.68897-0.30745 0-0.51858-0.27781-0.51858-0.68897z"/>
    <path d="m117.69 124.08h0.31856l0.24448-0.41857c0.0593-0.11113 0.11853-0.21855 0.1815-0.32227h0.0148c0.0667 0.10372 0.13335 0.21484 0.19632 0.32227l0.263 0.41857h0.32967l-0.58526-0.90752 0.54451-0.89271h-0.31856l-0.21854 0.39635c-0.0556 0.0963-0.11113 0.20002-0.16299 0.30003h-0.0148c-0.063-0.10001-0.12224-0.20373-0.1778-0.30003l-0.24077-0.39635h-0.32968l0.54452 0.85937z"/>
   </g>
   <g aria-label="pacman">
    <path d="m107.31 146.67c0.16669 0.12965 0.33338 0.20743 0.50007 0.20743 0.41116 0 0.77787-0.3593 0.77787-0.97049 0-0.55933-0.24818-0.91863-0.7112-0.91863-0.21114 0-0.41116 0.11483-0.57414 0.25188h-0.0111l-0.0259-0.20743h-0.25188v2.5596h0.30374v-0.60748zm7e-3 -0.23707v-0.94456c0.1778-0.15928 0.32967-0.24447 0.48154-0.24447 0.34079 0 0.47414 0.2667 0.47414 0.66304 0 0.4445-0.21855 0.71491-0.51488 0.71491-0.11854 0-0.27781-0.0519-0.4408-0.18892z"/>
    <path d="m108.93 146.37c0 0.32226 0.22596 0.51117 0.5297 0.51117 0.22225 0 0.42228-0.11853 0.59637-0.25929h7e-3l0.0259 0.21484h0.25188v-1.1038c0-0.4482-0.18521-0.74083-0.626-0.74083-0.28893 0-0.54081 0.12594-0.7075 0.23336l0.12224 0.21114c0.14076-0.0963 0.32597-0.19262 0.5371-0.19262 0.29263 0 0.37042 0.22225 0.37042 0.45191-0.76676 0.0852-1.1076 0.28152-1.1076 0.67416zm0.30004-0.0222c0-0.22965 0.20373-0.37782 0.80751-0.4519v0.50006c-0.1741 0.15557-0.31856 0.24077-0.49265 0.24077-0.1778 0-0.31486-0.0852-0.31486-0.28893z"/>
    <path d="m110.78 145.94c0 0.59637 0.36671 0.94085 0.84455 0.94085 0.21484 0 0.42227-0.0889 0.58526-0.23336l-0.13706-0.20002c-0.10742 0.0963-0.25188 0.1815-0.42227 0.1815-0.32967 0-0.55563-0.27781-0.55563-0.68897 0-0.41487 0.23707-0.69639 0.56304-0.69639 0.14446 0 0.25558 0.0667 0.363 0.15928l0.15187-0.19632c-0.12223-0.11483-0.28892-0.21484-0.52599-0.21484-0.46302 0-0.86677 0.34449-0.86677 0.94827z"/>
    <path d="m112.6 146.83h0.30375v-1.3039c0.16668-0.18521 0.31855-0.27782 0.4519-0.27782 0.22966 0 0.33708 0.14447 0.33708 0.48155v1.1001h0.30375v-1.3039c0.16668-0.18521 0.31115-0.27782 0.4519-0.27782 0.22596 0 0.33338 0.14447 0.33338 0.48155v1.1001h0.30374v-1.1409c0-0.45932-0.1778-0.70379-0.54822-0.70379-0.21854 0-0.40375 0.14076-0.59266 0.34449-0.0741-0.21485-0.22225-0.34449-0.49636-0.34449-0.21484 0-0.40376 0.13335-0.55933 0.30374h-0.0111l-0.0259-0.25929h-0.25189z"/>
    <path d="m115.58 146.37c0 0.32226 0.22595 0.51117 0.5297 0.51117 0.22225 0 0.42227-0.11853 0.59637-0.25929h7e-3l0.0259 0.21484h0.25188v-1.1038c0-0.4482-0.18521-0.74083-0.62601-0.74083-0.28892 0-0.5408 0.12594-0.70749 0.23336l0.12224 0.21114c0.14075-0.0963 0.32596-0.19262 0.5371-0.19262 0.29263 0 0.37042 0.22225 0.37042 0.45191-0.76677 0.0852-1.1076 0.28152-1.1076 0.67416zm0.30004-0.0222c0-0.22965 0.20373-0.37782 0.80751-0.4519v0.50006c-0.1741 0.15557-0.31856 0.24077-0.49266 0.24077-0.1778 0-0.31485-0.0852-0.31485-0.28893z"/>
    <path d="m117.56 146.83h0.30374v-1.3039c0.18151-0.18151 0.30745-0.27782 0.49266-0.27782 0.23707 0 0.34078 0.14447 0.34078 0.48155v1.1001h0.30374v-1.1409c0-0.45932-0.17039-0.70379-0.54821-0.70379-0.24818 0-0.43339 0.13335-0.60378 0.30374h-0.0111l-0.0259-0.25929h-0.25189z"/>
   </g>
  </g>
  <g fill="none" stroke="#30d2d5" stroke-dashoffset="1.2" stroke-linecap="square" stroke-width=".52917">
   <path d="m120.55 83.625h25.4v3.9688"/>
   <path d="m120.55 90.505h18.256"/>
   <path d="m120.55 98.178h18.521"/>
   <path d="m120.55 114.32h51.065"/>
   <path d="m120.55 122.78h44.185"/>
   <path d="m120.55 146.07h51.065"/>
  </g>
 </g>
</svg>
