<svg width="28.573mm" height="28.468mm" version="1.1" viewBox="0 0 28.573 28.468" xmlns="http://www.w3.org/2000/svg">
 <path d="m14.141 25.652v-22.578" fill="none" stroke="#d54747" stroke-width=".14111"/>
 <path d="m2.8609 14.222h22.578" fill="none" stroke="#d54747" stroke-width=".14111"/>
 <g>
  <g transform="translate(-1.8635 -5.1686)" fill="#e9e56f" aria-label="X">
   <path d="m28.32 17.893-0.16728 0.30843-0.1712-0.30843h-0.09802l0.21694 0.39991-0.22217 0.41429h0.10063l0.17382-0.3215 0.18166 0.3215h0.10194l-0.23001-0.4169 0.20518-0.3973z" fill="#e9e56f" stroke-width=".28222px"/>
  </g>
  <g transform="translate(-1.8635 -5.1686)" fill="#e9e56f" aria-label="Y">
   <path d="m16.856 7.1686 0.25092 0.49401v0.32019h0.09932v-0.32019l0.23002-0.49401h-0.09671l-0.18035 0.39468-0.19996-0.39468z" fill="#e9e56f" stroke-width=".28222px"/>
  </g>
  <path d="m19.28 11.374-11.827 6.2301 0.26251 0.43782 11.577-6.6354z" color="#000000" color-rendering="auto" dominant-baseline="auto" fill="#d54747" fill-rule="evenodd" image-rendering="auto" shape-rendering="auto" solid-color="#000000" style="font-feature-settings:normal;font-variant-alternates:normal;font-variant-caps:normal;font-variant-ligatures:normal;font-variant-numeric:normal;font-variant-position:normal;isolation:auto;mix-blend-mode:normal;shape-padding:0;text-decoration-color:#000000;text-decoration-line:none;text-decoration-style:solid;text-indent:0;text-orientation:mixed;text-transform:none;white-space:normal"/>
  <g transform="translate(-4.9167 -1.6297)" fill="#e9e56f" aria-label="Z">
   <path d="m25.085 12.249v0.08234h0.39468l-0.41036 0.66913v0.06404h0.53844v-0.08887c-0.01568-0.0026-0.02091 0.0078-0.03921 0.0078h-0.38423l0.40252-0.66913 0.0013-0.06535z" fill="#e9e56f" stroke-width=".28222px"/>
  </g>
 </g>
 <g transform="matrix(-.28222 0 0 -.28222 155.32 80.557)">
  <path d="m501.47 274.25-1.2053 3.2778-1.2053-3.2778c0.71162 0.52365 1.6852 0.52064 2.4106 0z" fill="#fff" fill-rule="evenodd" stroke="#d54747" stroke-linejoin="round" stroke-width=".1875"/>
 </g>
 <g transform="matrix(-.28222 0 0 .28222 155.32 -51.883)">
  <path d="m501.47 274.25-1.2053 3.2778-1.2053-3.2778c0.71162 0.52365 1.6852 0.52064 2.4106 0z" fill="#fff" fill-rule="evenodd" stroke="#d54747" stroke-linejoin="round" stroke-width=".1875"/>
 </g>
 <g transform="matrix(0 -.28222 -.28222 0 80.35 155.4)">
  <path d="m501.47 274.25-1.2053 3.2778-1.2053-3.2778c0.71162 0.52365 1.6852 0.52064 2.4106 0z" fill="#fff" fill-rule="evenodd" stroke="#d54747" stroke-linejoin="round" stroke-width=".1875"/>
 </g>
 <g transform="matrix(0 -.28222 .28222 0 -52.089 155.4)">
  <path d="m501.47 274.25-1.2053 3.2778-1.2053-3.2778c0.71162 0.52365 1.6852 0.52064 2.4106 0z" fill="#fff" fill-rule="evenodd" stroke="#d54747" stroke-linejoin="round" stroke-width=".1875"/>
 </g>
 <g transform="matrix(-.062236 -.084167 .044727 -.041207 38.107 64.831)">
  <path d="m501.47 274.25-1.2053 3.2778-1.2053-3.2778c0.71162 0.52365 1.6852 0.52064 2.4106 0z" fill="#fff" fill-rule="evenodd" stroke="#d54747" stroke-linejoin="round" stroke-width=".1875"/>
 </g>
 <g transform="matrix(.40738 .58725 -.82307 .54051 30.472 -424.74)">
  <path d="m501.47 274.25-1.2053 3.2778-1.2053-3.2778c0.71162 0.52365 1.6852 0.52064 2.4106 0z" fill="#fff" fill-rule="evenodd" stroke="#d54747" stroke-linejoin="round" stroke-width=".1875"/>
 </g>
</svg>
