<svg width="17.92mm" height="17.92mm" version="1.1" viewBox="0 0 17.92 17.92" xmlns="http://www.w3.org/2000/svg">
 <g transform="translate(-381.11 -447.17)">
  <g fill="#e9e56f" aria-label="overlap">
   <g fill="#e9e56f" aria-label="Double Precision 64b">
    <g transform="rotate(-16.619)" fill="#e9e56f" aria-label="steering force">
     <g fill-opacity=".72549">
      <circle transform="rotate(16.619)" cx="390.07" cy="456.13" r="7.9598" fill="#d54747"/>
      <circle transform="rotate(16.619)" cx="390.07" cy="456.13" r="4.8772" fill="#d54747"/>
      <circle transform="rotate(16.619)" cx="390.07" cy="456.13" r="2.0516" fill="#f1c3c3"/>
     </g>
     <g fill="#000">
      <circle transform="rotate(16.619)" cx="390.07" cy="454.02" r=".26458" style="paint-order:fill markers stroke"/>
      <circle transform="rotate(16.619)" cx="393.77" cy="450.31" r=".26458" style="paint-order:fill markers stroke"/>
      <circle transform="rotate(16.619)" cx="390.07" cy="456.66" r=".26458" style="paint-order:fill markers stroke"/>
      <circle transform="rotate(16.619)" cx="391.39" cy="455.61" r=".26458" style="paint-order:fill markers stroke"/>
      <circle transform="rotate(16.619)" cx="390.07" cy="454.81" r=".26458" style="paint-order:fill markers stroke"/>
      <circle transform="rotate(16.619)" cx="391.39" cy="453.49" r=".26458" style="paint-order:fill markers stroke"/>
      <circle transform="rotate(16.619)" cx="392.45" cy="455.08" r=".26458" style="paint-order:fill markers stroke"/>
      <circle transform="rotate(16.619)" cx="390.86" cy="456.66" r=".26458" style="paint-order:fill markers stroke"/>
      <circle transform="rotate(16.619)" cx="389.54" cy="458.25" r=".26458" style="paint-order:fill markers stroke"/>
      <circle transform="rotate(16.619)" cx="388.75" cy="457.19" r=".26458" style="paint-order:fill markers stroke"/>
      <circle transform="rotate(16.619)" cx="388.22" cy="455.87" r=".26458" style="paint-order:fill markers stroke"/>
      <circle transform="rotate(16.619)" cx="389.54" cy="455.61" r=".26458" style="paint-order:fill markers stroke"/>
      <circle transform="rotate(16.619)" cx="388.75" cy="454.81" r=".26458" style="paint-order:fill markers stroke"/>
      <circle transform="rotate(16.619)" cx="387.69" cy="453.75" r=".26458" style="paint-order:fill markers stroke"/>
      <circle transform="rotate(16.619)" cx="386.1" cy="455.34" r=".26458" style="paint-order:fill markers stroke"/>
      <circle transform="rotate(16.619)" cx="387.95" cy="457.46" r=".26458" style="paint-order:fill markers stroke"/>
      <circle transform="rotate(16.619)" cx="390.07" cy="459.57" r=".26458" style="paint-order:fill markers stroke"/>
      <circle transform="rotate(16.619)" cx="390.86" cy="457.46" r=".26458" style="paint-order:fill markers stroke"/>
      <circle transform="rotate(16.619)" cx="390.34" cy="455.61" r=".26458" style="paint-order:fill markers stroke"/>
      <circle transform="rotate(16.619)" cx="389.28" cy="456.66" r=".26458" style="paint-order:fill markers stroke"/>
      <circle transform="rotate(16.619)" cx="391.39" cy="458.25" r=".26458" style="paint-order:fill markers stroke"/>
      <circle transform="rotate(16.619)" cx="393.25" cy="457.46" r=".26458" style="paint-order:fill markers stroke"/>
      <circle transform="rotate(16.619)" cx="392.98" cy="456.4" r=".26458" style="paint-order:fill markers stroke"/>
      <circle transform="rotate(16.619)" cx="394.83" cy="455.08" r=".26458" style="paint-order:fill markers stroke"/>
      <circle transform="rotate(16.619)" cx="391.66" cy="456.66" r=".26458" style="paint-order:fill markers stroke"/>
      <circle transform="rotate(16.619)" cx="390.07" cy="457.46" r=".26458" style="paint-order:fill markers stroke"/>
      <circle transform="rotate(16.619)" cx="387.16" cy="456.13" r=".26458" style="paint-order:fill markers stroke"/>
      <circle transform="rotate(16.619)" cx="385.04" cy="457.99" r=".26458" style="paint-order:fill markers stroke"/>
      <circle transform="rotate(16.619)" cx="389.81" cy="452.69" r=".26458" style="paint-order:fill markers stroke"/>
      <circle transform="rotate(16.619)" cx="388.22" cy="459.57" r=".26458" style="paint-order:fill markers stroke"/>
      <circle transform="rotate(16.619)" cx="387.42" cy="460.63" r=".26458" style="paint-order:fill markers stroke"/>
     </g>
    </g>
   </g>
  </g>
 </g>
</svg>
