<svg width="86.579mm" height="59.312mm" version="1.1" viewBox="0 0 86.579 59.312" xmlns="http://www.w3.org/2000/svg">
 <g transform="translate(-195.72 -175.4)">
  <g>
   <path d="m266.78 185.02v-0.80282" fill="#e9e56f" stroke="#e9e56f" stroke-width=".10195px"/>
   <path d="m266.85 184.07 0.50973-0.49061" fill="#e9e56f" stroke="#e9e56f" stroke-width=".10195px"/>
   <g stroke-width=".052917">
    <path d="m199.26 186.95s5.5503-0.12014 8.3259-0.14417c2.607-0.0226 5.2145 0.0372 7.8213 0 1.2619-0.018 31.116 0.10492 32.36-0.10813 1.3557-0.2322 2.6723-0.70178 3.9287-1.2615 1.4606-0.65074 2.8102-1.5343 4.1449-2.4149 0.87448-0.57697 1.621-1.3414 2.523-1.8742 0.52307-0.30901 1.075-0.58604 1.658-0.7569 0.3261-0.0956 0.71416-0.31278 1.0092-0.14418 0.19178 0.10959 0.17022 0.40767 0.2523 0.61273 0.0862 0.21542 0.20952 0.42072 0.25231 0.64878 0.11519 0.61403-0.0616 1.2525 0 1.8742 0.0845 0.85348 0.23407 1.7091 0.5046 2.523 0.0881 0.26518 0.12414 0.6077 0.36043 0.7569 0.25397 0.16036 0.60082-8e-3 0.90107 0 2.4776 0.0661 7.4249 0.39647 7.4249 0.39647" fill="#103f13" stroke="#6fe978"/>
    <ellipse cx="266.9" cy="185.12" rx=".70406" ry=".43645" fill="#3f1010" stroke="#e96f6f"/>
    <rect x="265.59" y="185.12" width="3.3005" height="1.7713" fill="#282828" stroke="#acacac"/>
    <path d="m266.56 183.51 0.98122 0.84741-0.42689 0.0255-0.35044-0.0701-0.22301-0.24212-0.051-0.33769z" fill="#10113f" stroke="#6f89e9"/>
   </g>
  </g>
  <g transform="matrix(.86242 0 0 .86242 -343.24 -145.44)" fill="none" stroke="#6fa1e9" stroke-width=".61358">
   <path d="m705 382.36v-2h2"/>
   <path d="m710.8 382.36v-2h-2"/>
   <path d="m705 384.16v2h2"/>
   <path d="m710.8 384.16v2h-2"/>
  </g>
  <g stroke-width=".052917">
   <g>
    <rect x="200.02" y="183.88" width=".5046" height="2.3608" fill="#3e3910" stroke="#e9e56f"/>
    <rect x="199.27" y="186.09" width="1.9824" height=".88305" fill="#272727" stroke="#acacac"/>
    <rect x="200.43" y="183.61" width="2.8654" height=".44153" fill="#1f3e10" stroke="#9de96f"/>
   </g>
   <path d="m201.37 183.76-0.2523-0.34242-0.7569-0.12614-0.94613-0.036-0.0901 0.12616 0.30637 0.28834 0.0655 0.24441h-0.4079v-0.33452h-0.46856v0.84701l0.0901 0.2523 0.12616 0.12615 0.21625 0.12616v-0.63076h0.35142l0.0631 0.25231 0.18923 0.21625 0.59471-0.21625 1.5498-0.56769z" fill="#10153f" stroke="#6f7ae9"/>
  </g>
  <path d="m203.78 183.85s35.446-6.6252 50.483-0.0637" fill="none" stroke="#d54747" stroke-width=".10186"/>
  <path d="m203.66 183.54s24.602-10.253 59.85-4.1543" fill="none" stroke="#d54747" stroke-width=".10186"/>
  <g>
   <path d="m203.46 184.15 0.1545-0.0966-0.18915-0.1577 0.23655-0.0474-0.0946-0.18239 0.25227-0.16447-0.33789 0.0406 0.0341-0.1577c-0.10544 0.0847-0.19579 0.16947-0.2256 0.23874l-0.0179 0.43705c0.12653 0.058 0.0946 0.0461 0.18776 0.0898z" fill="#ffc015"/>
   <path d="m204.18 182.99c-0.1103 0.0251-0.43505 0.20831-0.66364 0.39185l-0.0341 0.1577 0.33789-0.0406-0.25227 0.16447 0.0946 0.18239-0.23655 0.0474 0.18915 0.1577-0.1545 0.0966c1.5299 0.7177-1.0178-0.33482 1.47 0.0679l-1.1893-0.25227c0.72505-0.0746 1.9668-0.14178 0.40539-0.16227 1.0803-0.48702 1.6692-0.6331 0.0631-0.3154 1.291-0.8048 0.29945-0.23138-0.46851-0.09 0.462-0.32767 0.53534-0.42739 0.43865-0.40539z" fill="#e5e053"/>
   <path d="m253.39 183.82c0.0858 0.0737 0.42644 0.22541 0.71002 0.29974l0.14696-0.0666-0.23387-0.24724 0.28236 0.1047 0.0902-0.1846 0.17895 0.1618 0.014-0.24587 0.16959 0.0666c-0.33461-1.6564 0.33719 1.017-0.82096-1.2213l0.50565 1.1056c-0.49178-0.53799-1.2853-1.4956-0.3718-0.22901-1.0346-0.57774-1.5027-0.96383-0.29095 0.13713-1.4154-0.55779-0.3642-0.10275 0.20673 0.42996-0.53837-0.17597-0.66215-0.17551-0.58689-0.11093z" fill="#e9e56f"/>
   <circle cx="263.35" cy="179.4" r=".44153" fill="#fff037"/>
   <path d="m201.83 196.63 2.1345-0.84105 0.35681 0.48424-2.1854 0.85379z" fill="#82d4e5" stroke="#000" stroke-width=".10195px"/>
   <g stroke-width=".052917">
    <path d="m200.78 197.21-0.0446-0.68813 1.1596-0.37592 0.93662 1.0449-1.4272 0.37593z" fill="#101f3f" stroke="#6f97e9"/>
    <rect x="200.58" y="198.05" width=".57562" height=".34061" fill="#3f1010" stroke="#e96f6f"/>
    <rect x="202.06" y="198.05" width=".57562" height=".34061" fill="#3f1010" stroke="#e96f6f"/>
   </g>
  </g>
  <g fill="#282828" stroke="#acacac" stroke-width=".052917">
   <path d="m201.16 197.35-1.0067-0.40778h-0.55433l-0.2676 0.73911 0.0446 0.3568 1.7394 0.0446 0.0446-0.71361z"/>
   <path d="m202.05 197.35 1.0067-0.40778h0.55433l0.2676 0.73911-0.0446 0.3568-1.7394 0.0446-0.0446-0.71361z"/>
   <path d="m200.85 197.82 0.26761 0.61804h1.0258l0.26761-0.57344-0.44601-0.78371-0.69052 0.0852z"/>
  </g>
  <path d="m204.32 196.37 0.0956-0.15512-0.2395-0.0574 0.19094-0.14745-0.16571-0.12146 0.15305-0.25936-0.28474 0.18638-0.0395-0.15642c-0.0569 0.12266-0.10022 0.23877-0.0962 0.31406l0.17794 0.39959c0.13914-4e-3 0.10525-1e-3 0.20811-3e-3z" fill="#ff9abb"/>
  <path d="m204.45 195.01c-0.0877 0.0714-0.29738 0.37977-0.42074 0.64571l0.0395 0.15642 0.28474-0.18638-0.15305 0.25936 0.16571 0.12146-0.19094 0.14745 0.2395 0.0574-0.0956 0.15512c1.6895-0.036-1.0606 0.15173 1.3474-0.59168l-1.1777 0.30184c0.61657-0.38872 1.6995-1.0001 0.29123-0.32536 0.75184-0.91591 1.2147-1.3082-0.0834-0.31064 0.79965-1.2942 0.16562-0.34025-0.45978 0.12731 0.26855-0.49868 0.29001-0.6206 0.21312-0.55796z" fill="#e9e56f"/>
  <path d="m204.28 195.93c5.1747-2.4363 52.693-7.3888 57.057-4.7658 1.9036 1.1441 5.4122 5.5227 5.4122 5.5227" fill="none" stroke="#d54747" stroke-width=".10195px"/>
  <g>
   <path d="m265.19 195.32c0.0766 0.30597 0.60696 1.2002 1.1324 1.8264l0.44168 0.0854-0.13364-0.93949 0.47371 0.69332 0.50275-0.27466 0.14635 0.65658 0.4282-0.53683 0.27854 0.4249c1.9084-4.3082-0.87195 2.8574 0.10057-4.1021l-0.6315 3.3306c-0.25183-2.0167-0.51393-5.4744-0.47684-1.1203-1.4228-2.982-1.8656-4.615-0.88304-0.15692-2.3214-3.5504-0.66306-0.82081-0.2226 1.3115-0.94134-1.2681-1.2237-1.4666-1.1566-1.1984z" fill="#e9e56f"/>
   <path d="m199.69 209.09 0.13447 0.11985 0.30695 0.0848 0.0819-0.114 0.14324-0.15202 0.19293 0.13155 0.35956 0.12278 0.33618-0.12278 0.13447-0.24555 9e-3 -0.33618 0.0205-0.17539 0.14616-0.16371v-0.21339l0.32741-0.74836-0.0819-0.30987-0.26602-0.22509-0.52327-0.0935-0.53203 0.23387-0.12277 0.59342 0.1637 0.5028-0.0205 0.18416 0.0409 0.11109h-0.27479l-0.1754 0.13447-0.10231 0.26601-0.0409 0.15201-0.14324 0.0526z" fill="#3e102e"/>
   <path d="m201.05 209.33c0.16078-0.0222 0.29302-0.13153 0.35915-0.29683 0.0351-0.0878 0.0406-0.12049 0.0408-0.24194 1e-4 -0.0624-2e-3 -0.1599-5e-3 -0.21675l-6e-3 -0.10338 0.0309-0.0161c0.0421-0.0219 0.10152-0.0879 0.12645-0.14051 0.0188-0.0396 0.0206-0.0495 0.0206-0.11017-1e-5 -0.0553-3e-3 -0.0716-0.0145-0.0953l-0.0145-0.0286 0.0319-0.0421c0.0774-0.1023 0.19661-0.32754 0.25091-0.47422 0.0319-0.0861 0.0603-0.19981 0.0662-0.26464 0.0108-0.11895-0.0377-0.27984-0.1215-0.40321-0.0599-0.0882-0.17527-0.18267-0.28327-0.23189-0.1247-0.0568-0.21631-0.0735-0.40529-0.0736-0.15758 0-0.20771 7e-3 -0.33013 0.0439-0.25454 0.0776-0.44502 0.26889-0.49387 0.49598-0.0156 0.0725-0.0157 0.2348-2e-4 0.33346 0.023 0.14627 0.0806 0.34031 0.15935 0.53638 0.0328 0.0816 0.0354 0.0919 0.0296 0.11671-3e-3 0.0149-5e-3 0.0459-3e-3 0.0689l4e-3 0.0417-0.0181-0.0133c-0.0393-0.0289-0.15918-0.0337-0.24172-0.01-0.0894 0.0261-0.16665 0.1041-0.23225 0.23427-0.0316 0.0627-0.0516 0.14128-0.0646 0.25373l-0.0118 0.10171h-0.0482c-0.0699 0-0.11261 0.0157-0.15346 0.0565-0.0407 0.0406-0.0614 0.0814-0.0712 0.14056-0.0141 0.0853 0.0148 0.19132 0.0669 0.2454 0.0662 0.0686 0.20991 0.10404 0.36942 0.091 0.11606-0.01 0.168-0.0229 0.19976-0.0516 0.0272-0.0245 0.0654-0.0958 0.0789-0.14719l8e-3 -0.0288 0.0488 0.0464c0.1131 0.10743 0.2281 0.16144 0.38593 0.18123 0.0522 6e-3 0.19985 8e-3 0.24143 2e-3zm-1.1604-0.13627c-0.0413-0.0105-0.0791-0.0354-0.10051-0.0664-0.016-0.0232-0.0195-0.0349-0.0193-0.0654 5.6e-4 -0.0989 0.0901-0.16925 0.20065-0.15792l0.0419 4e-3 4e-3 -0.0252c0.0341-0.20904 0.0744-0.32839 0.14884-0.44078 0.0289-0.0436 0.0846-0.0826 0.13541-0.0948 0.0486-0.0117 0.13424-5e-3 0.17769 0.0136 0.0268 0.0115 0.049 0.0304 0.096 0.0813 0.0658 0.0714 0.0857 0.0855 0.12088 0.0855 0.0252 0 0.0413-0.0138 0.0481-0.0412 7e-3 -0.028-1e-3 -0.0437-0.0532-0.0991-0.0266-0.0284-0.055-0.0656-0.0632-0.0825-0.0209-0.0432-0.0248-0.0998-0.0107-0.15764 0.0143-0.0587 0.0133-0.0645-0.0413-0.25315-0.10584-0.36557-0.11795-0.42419-0.1178-0.57022 1e-4 -0.0895 3e-3 -0.11572 0.0152-0.16263 0.0242-0.0898 0.0506-0.13707 0.11099-0.19806 0.0617-0.0623 0.0921-0.0842 0.17409-0.125 0.1241-0.0618 0.22322-0.0845 0.36866-0.0845 0.226 7e-5 0.41648 0.0654 0.53929 0.18505 0.0316 0.0308 0.0975 0.11478 0.0934 0.11896-1e-3 1e-3 -0.0154-1e-3 -0.0318-5e-3 -0.0611-0.0142-0.16906 3e-3 -0.20132 0.0323-0.0176 0.016-0.0151 0.0452 5e-3 0.0612 0.0497 0.0391 0.20308 0.0331 0.25046-0.01 0.0104-9e-3 0.0119-8e-3 0.0186 0.0239 0.026 0.12119-0.0126 0.3086-0.11062 0.53699-0.0683 0.15909-0.14155 0.28692-0.20228 0.35279l-0.0271 0.0294 0.0166 0.0179c0.0545 0.0588 0.0327 0.1565-0.0466 0.20899-0.0523 0.0347-0.0907 0.0445-0.17294 0.0441-0.0825 0-0.10928-7e-3 -0.16339-0.0417-0.0779-0.0497-0.12723-0.0608-0.15339-0.0347-0.0166 0.0166-0.0168 0.0418-5.6e-4 0.0775 0.0202 0.0445 0.0811 0.0821 0.19399 0.11971 0.0461 0.0154 0.0688 0.0189 0.1214 0.0192h0.0647l5e-3 0.0367c3e-3 0.0202 5e-3 0.1012 5e-3 0.18006 2e-4 0.16477-7e-3 0.20127-0.0596 0.31029-0.0484 0.1-0.1124 0.15305-0.20948 0.17362-0.0598 0.0127-0.21805 0.0124-0.28598 0-0.19133-0.0363-0.29532-0.11719-0.40212-0.31283-0.0238-0.0436-0.0298-0.0506-0.0341-0.04-3e-3 7e-3 -0.0188 0.0642-0.0353 0.12701-0.0165 0.0628-0.0357 0.12753-0.0427 0.14381-0.0221 0.0515-0.067 0.0776-0.15785 0.0917-0.0457 7e-3 -0.17381 3e-3 -0.21318-7e-3zm1.6872-1.3536c0.0717-0.0794 0.12414-0.2703 0.094-0.34237-0.0114-0.0273-0.0278-0.037-0.0625-0.037-0.0817 0-0.1214 0.0985-0.11305 0.28032 6e-3 0.12748 0.0297 0.15643 0.0815 0.0991zm-0.35205-7e-3c0.033-0.0363 0.064-0.14959 0.0634-0.23175-2.9e-4 -0.0568-8e-3 -0.0857-0.0295-0.11756-0.0218-0.0319-0.0465-0.0406-0.0808-0.0287-0.0324 0.0113-0.0535 0.0395-0.0688 0.0923-0.0199 0.0685 2e-3 0.23082 0.0386 0.28177 0.0176 0.0247 0.0565 0.0267 0.0772 4e-3zm0.13873-0.69812c0.0344-8e-3 0.05-0.0199 0.05-0.037 0-0.0501-0.15733-0.10061-0.33734-0.10831-0.10189-4e-3 -0.13179 0-0.15359 0.0216-0.0337 0.0337-0.0113 0.0742 0.0512 0.0928 0.0874 0.026 0.33045 0.0453 0.38969 0.031z" fill="#e96fe3" stroke-width=".10195"/>
   <path d="m203.25 207.59 0.0956-0.15512-0.2395-0.0573 0.19093-0.14746-0.16571-0.12146 0.15306-0.25935-0.28475 0.18638-0.0395-0.15642c-0.0569 0.12266-0.10022 0.23876-0.0962 0.31406l0.17794 0.39959c0.13914-4e-3 0.10525-1e-3 0.20811-3e-3z" fill="#ff9abb"/>
   <path d="m203.38 206.23c-0.0877 0.0715-0.29738 0.37978-0.42075 0.64571l0.0395 0.15643 0.28475-0.18639-0.15306 0.25936 0.16571 0.12146-0.19093 0.14745 0.2395 0.0574-0.0956 0.15512c1.6895-0.036-1.0606 0.15174 1.3474-0.59168l-1.1777 0.30184c0.61658-0.38871 1.6995-1.0001 0.29124-0.32535 0.75184-0.91591 1.2147-1.3082-0.0834-0.31064 0.79966-1.2942 0.16563-0.34025-0.45977 0.12731 0.26854-0.49869 0.29001-0.6206 0.21312-0.55797z" fill="#e9e56f"/>
  </g>
  <path d="m202.76 207.27c6.4078-2.5935 15.301-9.3929 17.382-6.2696 2.0041 3.0084-13.97 7.0092-19.115 7.9008" fill="none" stroke="#d54747" stroke-width=".10195px"/>
  <g>
   <path d="m201.43 209.25c0.11116 0.0209 0.48203-0.0177 0.76482-0.0949l0.0941-0.13108-0.32609-0.0974 0.29692-0.0503-0.0141-0.20497 0.23583 0.0508-0.11064-0.22001 0.18019-0.027c-1.1172-1.2679 0.80006 0.71266-1.3212-0.64806l0.99025 0.7053c-0.69473-0.22047-1.8604-0.65373-0.43648-0.0127-1.1848 0.0162-1.7832-0.0845-0.18356 0.26412-1.5048 0.22367-0.36685 0.0929 0.39383 0.26923-0.5543 0.11644-0.66131 0.17866-0.56385 0.19702z" fill="#e9e56f"/>
   <path d="m199.69 220.21 0.13447 0.11985 0.30695 0.0848 0.0819-0.114 0.14324-0.15202 0.19293 0.13155 0.35956 0.12278 0.33618-0.12278 0.13447-0.24555 9e-3 -0.33617 0.0205-0.1754 0.14616-0.1637v-0.2134l0.32741-0.74836-0.0819-0.30986-0.26602-0.2251-0.52327-0.0935-0.53203 0.23386-0.12277 0.59343 0.1637 0.5028-0.0205 0.18416 0.0409 0.11108h-0.27479l-0.1754 0.13448-0.10231 0.26601-0.0409 0.15201-0.14324 0.0526z" fill="#3e102e"/>
   <path d="m201.05 220.45c0.16078-0.0223 0.29302-0.13153 0.35915-0.29683 0.0351-0.0878 0.0406-0.12049 0.0408-0.24194 1e-4 -0.0624-2e-3 -0.1599-5e-3 -0.21675l-6e-3 -0.10337 0.0309-0.0161c0.0421-0.0219 0.10152-0.0879 0.12645-0.14051 0.0188-0.0396 0.0206-0.0495 0.0206-0.11018-1e-5 -0.0553-3e-3 -0.0716-0.0145-0.0953l-0.0145-0.0286 0.0319-0.0421c0.0774-0.10229 0.19661-0.32754 0.25091-0.47422 0.0319-0.0861 0.0603-0.1998 0.0662-0.26464 0.0108-0.11895-0.0377-0.27984-0.1215-0.4032-0.0599-0.0883-0.17527-0.18268-0.28327-0.2319-0.1247-0.0568-0.21631-0.0735-0.40529-0.0736-0.15758 0-0.20771 6e-3 -0.33013 0.0439-0.25454 0.0776-0.44502 0.26889-0.49387 0.49598-0.0156 0.0725-0.0157 0.23481-2e-4 0.33347 0.023 0.14627 0.0806 0.34031 0.15935 0.53637 0.0328 0.0816 0.0354 0.092 0.0296 0.11672-3e-3 0.0149-5e-3 0.0459-3e-3 0.0689l4e-3 0.0417-0.0181-0.0133c-0.0393-0.0289-0.15918-0.0337-0.24172-0.01-0.0894 0.0261-0.16665 0.10409-0.23225 0.23427-0.0316 0.0627-0.0516 0.14127-0.0646 0.25373l-0.0118 0.10171h-0.0482c-0.0699 0-0.11261 0.0157-0.15346 0.0565-0.0407 0.0406-0.0614 0.0814-0.0712 0.14055-0.0141 0.0853 0.0148 0.19133 0.0669 0.2454 0.0662 0.0686 0.20991 0.10404 0.36942 0.091 0.11606-0.01 0.168-0.0229 0.19976-0.0516 0.0272-0.0245 0.0654-0.0958 0.0789-0.14719l8e-3 -0.0288 0.0488 0.0463c0.1131 0.10743 0.2281 0.16144 0.38593 0.18123 0.0522 7e-3 0.19985 8e-3 0.24143 2e-3zm-1.1604-0.13627c-0.0413-0.0105-0.0791-0.0354-0.10051-0.0664-0.016-0.0231-0.0195-0.0349-0.0193-0.0654 5.6e-4 -0.0989 0.0901-0.16925 0.20065-0.15792l0.0419 4e-3 4e-3 -0.0252c0.0341-0.20904 0.0744-0.32839 0.14884-0.44078 0.0289-0.0436 0.0846-0.0826 0.13541-0.0948 0.0486-0.0117 0.13424-5e-3 0.17769 0.0136 0.0268 0.0115 0.049 0.0304 0.096 0.0813 0.0658 0.0714 0.0857 0.0855 0.12088 0.0855 0.0252 0 0.0413-0.0138 0.0481-0.0412 7e-3 -0.028-1e-3 -0.0437-0.0532-0.0991-0.0266-0.0284-0.055-0.0656-0.0632-0.0825-0.0209-0.0432-0.0248-0.0998-0.0107-0.15764 0.0143-0.0587 0.0133-0.0645-0.0413-0.25315-0.10584-0.36556-0.11795-0.42419-0.1178-0.57022 1e-4 -0.0895 3e-3 -0.11572 0.0152-0.16263 0.0242-0.0898 0.0506-0.13707 0.11099-0.19806 0.0617-0.0623 0.0921-0.0842 0.17409-0.12499 0.1241-0.0618 0.22322-0.0845 0.36866-0.0845 0.226 7e-5 0.41648 0.0654 0.53929 0.18505 0.0316 0.0307 0.0975 0.11478 0.0934 0.11895-1e-3 1e-3 -0.0154-1e-3 -0.0318-5e-3 -0.0611-0.0142-0.16906 3e-3 -0.20132 0.0323-0.0176 0.016-0.0151 0.0452 5e-3 0.0612 0.0497 0.0391 0.20308 0.0331 0.25046-0.01 0.0104-9e-3 0.0119-7e-3 0.0186 0.0239 0.026 0.12119-0.0126 0.3086-0.11062 0.53699-0.0683 0.15909-0.14155 0.28692-0.20228 0.35279l-0.0271 0.0294 0.0166 0.0179c0.0545 0.0588 0.0327 0.1565-0.0466 0.20899-0.0523 0.0347-0.0907 0.0445-0.17294 0.0441-0.0825 0-0.10928-7e-3 -0.16339-0.0417-0.0779-0.0497-0.12723-0.0608-0.15339-0.0347-0.0166 0.0166-0.0168 0.0418-5.6e-4 0.0775 0.0202 0.0445 0.0811 0.0821 0.19399 0.1197 0.0461 0.0154 0.0688 0.0189 0.1214 0.0192h0.0647l5e-3 0.0367c3e-3 0.0202 5e-3 0.1012 5e-3 0.18007 2e-4 0.16476-7e-3 0.20127-0.0596 0.31029-0.0484 0.1-0.1124 0.15305-0.20948 0.17362-0.0598 0.0127-0.21805 0.0124-0.28598 0-0.19133-0.0363-0.29532-0.11719-0.40212-0.31284-0.0238-0.0436-0.0298-0.0506-0.0341-0.04-3e-3 7e-3 -0.0188 0.0642-0.0353 0.12702-0.0165 0.0628-0.0357 0.12753-0.0427 0.14381-0.0221 0.0515-0.067 0.0776-0.15785 0.0917-0.0457 7e-3 -0.17381 3e-3 -0.21318-7e-3zm1.6872-1.3536c0.0717-0.0794 0.12414-0.2703 0.094-0.34237-0.0114-0.0273-0.0278-0.037-0.0625-0.037-0.0817 0-0.1214 0.0985-0.11305 0.28032 6e-3 0.12748 0.0297 0.15644 0.0815 0.0991zm-0.35205-7e-3c0.033-0.0363 0.064-0.14959 0.0634-0.23175-2.9e-4 -0.0568-8e-3 -0.0857-0.0295-0.11756-0.0218-0.0319-0.0465-0.0406-0.0808-0.0287-0.0324 0.0113-0.0535 0.0395-0.0688 0.0923-0.0199 0.0686 2e-3 0.23083 0.0386 0.28177 0.0176 0.0247 0.0565 0.0267 0.0772 4e-3zm0.13873-0.69812c0.0344-8e-3 0.05-0.0199 0.05-0.037 0-0.0501-0.15733-0.1006-0.33734-0.10831-0.10189-4e-3 -0.13179 0-0.15359 0.0216-0.0337 0.0337-0.0113 0.0742 0.0512 0.0927 0.0874 0.026 0.33045 0.0453 0.38969 0.031z" fill="#e96fe3" stroke-width=".10195"/>
   <rect transform="rotate(-2.9312)" x="187.71" y="228.8" width="3.775" height=".79473" fill="#282828" stroke="#acacac" stroke-width=".052917"/>
   <path d="m203.18 219.38 0.13792-0.11907-0.21104-0.12692 0.22652-0.083-0.12136-0.16578 0.22416-0.20112-0.32771 0.0918 0.01-0.16104c-0.0913 0.0998-0.16757 0.19742-0.18643 0.27042l0.0491 0.43464c0.13392 0.038 0.10065 0.0308 0.19928 0.0601z" fill="#ff9abb"/>
   <path d="m203.71 218.12c-0.10516 0.0417-0.39808 0.27239-0.59592 0.48873l-0.01 0.16104 0.32771-0.0918-0.22416 0.20112 0.12135 0.16578-0.22652 0.083 0.21105 0.12692-0.13793 0.11907c1.6217 0.47533-1.057-0.17527 1.4631-0.15768l-1.2139-0.0675c0.70511-0.18462 1.922-0.44085 0.37581-0.22235 0.9931-0.64645 1.5528-0.88088 0.0141-0.32133 1.1528-0.99274 0.26055-0.27445-0.47676-0.0173 0.40646-0.39445 0.4637-0.50421 0.3715-0.46769z" fill="#e9e56f"/>
   <path d="m271.64 214.89c-0.89566 0.0853-2.307-0.3218-2.6506 0.50973-0.19616 0.47475 0.51181 0.90277 0.86653 1.2743 0.46931 0.49158 0.95704 1.1366 1.6311 1.2233 0.89188 0.11478 2.0643-0.23152 2.4977-1.0194 0.32444-0.58989 0.15958-1.556-0.35681-1.9879-0.50827-0.42516-1.3283-0.0628-1.9879 0z" fill="#282828" stroke="#acacac" stroke-width=".10195px"/>
   <path d="m268.57 220.21-0.13447 0.11985-0.30695 0.0848-0.0818-0.114-0.14324-0.15202-0.19293 0.13155-0.35956 0.12278-0.33618-0.12278-0.13447-0.24555-9e-3 -0.33617-0.0204-0.1754-0.14616-0.1637v-0.2134l-0.32741-0.74836 0.0818-0.30986 0.26602-0.2251 0.52326-0.0935 0.53204 0.23386 0.12277 0.59343-0.1637 0.5028 0.0204 0.18416-0.0409 0.11108h0.27479l0.17539 0.13448 0.10232 0.26601 0.0409 0.15201 0.14324 0.0526z" fill="#3e102e"/>
   <path d="m267.21 220.45c-0.16078-0.0223-0.29302-0.13153-0.35915-0.29683-0.0351-0.0878-0.0407-0.12049-0.0408-0.24194-9e-5 -0.0624 2e-3 -0.1599 5e-3 -0.21675l6e-3 -0.10337-0.0309-0.0161c-0.0421-0.0219-0.10152-0.0879-0.12645-0.14051-0.0188-0.0396-0.0206-0.0495-0.0206-0.11018 1e-5 -0.0553 3e-3 -0.0716 0.0145-0.0953l0.0145-0.0286-0.0319-0.0421c-0.0774-0.10229-0.19661-0.32754-0.2509-0.47422-0.0319-0.0861-0.0603-0.1998-0.0662-0.26464-0.0107-0.11895 0.0377-0.27984 0.12149-0.4032 0.0599-0.0883 0.17528-0.18268 0.28328-0.2319 0.12469-0.0568 0.21631-0.0735 0.40529-0.0736 0.15758 0 0.2077 6e-3 0.33012 0.0439 0.25454 0.0776 0.44503 0.26889 0.49387 0.49598 0.0156 0.0725 0.0157 0.23481 2.1e-4 0.33347-0.023 0.14627-0.0806 0.34031-0.15935 0.53637-0.0328 0.0816-0.0354 0.092-0.0296 0.11672 4e-3 0.0149 5e-3 0.0459 3e-3 0.0689l-4e-3 0.0417 0.0181-0.0133c0.0393-0.0289 0.15918-0.0337 0.24172-0.01 0.0894 0.0261 0.16665 0.10409 0.23224 0.23427 0.0316 0.0627 0.0516 0.14127 0.0646 0.25373l0.0118 0.10171h0.0482c0.0699 0 0.11262 0.0157 0.15348 0.0565 0.0407 0.0406 0.0614 0.0814 0.0712 0.14055 0.0141 0.0853-0.0148 0.19133-0.0669 0.2454-0.0661 0.0686-0.20992 0.10404-0.36943 0.091-0.11605-0.01-0.16799-0.0229-0.19976-0.0516-0.0272-0.0245-0.0654-0.0958-0.0789-0.14719l-8e-3 -0.0288-0.0488 0.0463c-0.11309 0.10743-0.2281 0.16144-0.38593 0.18123-0.0522 7e-3 -0.19985 8e-3 -0.24143 2e-3zm1.1604-0.13627c0.0413-0.0105 0.0791-0.0354 0.10051-0.0664 0.016-0.0231 0.0195-0.0349 0.0193-0.0654-5.3e-4 -0.0989-0.0901-0.16925-0.20066-0.15792l-0.0419 4e-3 -4e-3 -0.0252c-0.0341-0.20904-0.0744-0.32839-0.14884-0.44078-0.0289-0.0436-0.0846-0.0826-0.1354-0.0948-0.0486-0.0117-0.13425-5e-3 -0.17769 0.0136-0.0268 0.0115-0.049 0.0304-0.096 0.0813-0.0658 0.0714-0.0857 0.0855-0.12088 0.0855-0.0252 0-0.0413-0.0138-0.0481-0.0412-7e-3 -0.028 1e-3 -0.0437 0.0532-0.0991 0.0266-0.0284 0.055-0.0656 0.0633-0.0825 0.0209-0.0432 0.0247-0.0998 0.0107-0.15764-0.0143-0.0587-0.0133-0.0645 0.0413-0.25315 0.10584-0.36556 0.11795-0.42419 0.11779-0.57022-9e-5 -0.0895-3e-3 -0.11572-0.0152-0.16263-0.0242-0.0898-0.0506-0.13707-0.11099-0.19806-0.0617-0.0623-0.0921-0.0842-0.17408-0.12499-0.12411-0.0618-0.22322-0.0845-0.36866-0.0845-0.226 7e-5 -0.41649 0.0654-0.5393 0.18505-0.0316 0.0307-0.0975 0.11478-0.0934 0.11895 1e-3 1e-3 0.0154-1e-3 0.0318-5e-3 0.0611-0.0142 0.16906 3e-3 0.20132 0.0323 0.0176 0.016 0.0151 0.0452-5e-3 0.0612-0.0497 0.0391-0.20308 0.0331-0.25046-0.01-0.0104-9e-3 -0.0118-7e-3 -0.0186 0.0239-0.026 0.12119 0.0126 0.3086 0.11061 0.53699 0.0683 0.15909 0.14155 0.28692 0.20228 0.35279l0.0271 0.0294-0.0166 0.0179c-0.0545 0.0588-0.0327 0.1565 0.0466 0.20899 0.0523 0.0347 0.0907 0.0445 0.17293 0.0441 0.0825 0 0.10928-7e-3 0.1634-0.0417 0.0779-0.0497 0.12722-0.0608 0.15339-0.0347 0.0166 0.0166 0.0168 0.0418 5.3e-4 0.0775-0.0202 0.0445-0.0812 0.0821-0.19399 0.1197-0.0461 0.0154-0.0688 0.0189-0.12141 0.0192h-0.0647l-5e-3 0.0367c-3e-3 0.0202-5e-3 0.1012-5e-3 0.18007-2e-4 0.16476 7e-3 0.20127 0.0596 0.31029 0.0484 0.1 0.11241 0.15305 0.20948 0.17362 0.0598 0.0127 0.21805 0.0124 0.28598 0 0.19134-0.0363 0.29532-0.11719 0.40212-0.31284 0.0238-0.0436 0.0298-0.0506 0.0341-0.04 3e-3 7e-3 0.0188 0.0642 0.0353 0.12702 0.0165 0.0628 0.0358 0.12753 0.0427 0.14381 0.0221 0.0515 0.067 0.0776 0.15786 0.0917 0.0457 7e-3 0.17381 3e-3 0.21317-7e-3zm-1.6872-1.3536c-0.0717-0.0794-0.12414-0.2703-0.094-0.34237 0.0114-0.0273 0.0278-0.037 0.0625-0.037 0.0817 0 0.1214 0.0985 0.11306 0.28032-6e-3 0.12748-0.0297 0.15644-0.0815 0.0991zm0.35205-7e-3c-0.033-0.0363-0.064-0.14959-0.0634-0.23175 2.6e-4 -0.0568 8e-3 -0.0857 0.0295-0.11756 0.0218-0.0319 0.0465-0.0406 0.0808-0.0287 0.0324 0.0113 0.0535 0.0395 0.0688 0.0923 0.0199 0.0686-2e-3 0.23083-0.0385 0.28177-0.0176 0.0247-0.0565 0.0267-0.0772 4e-3zm-0.13873-0.69812c-0.0344-8e-3 -0.05-0.0199-0.05-0.037 0-0.0501 0.15733-0.1006 0.33734-0.10831 0.10189-4e-3 0.13179 0 0.15359 0.0216 0.0337 0.0337 0.0113 0.0742-0.0512 0.0927-0.0874 0.026-0.33045 0.0453-0.38969 0.031z" fill="#e96fe3" stroke-width=".10195"/>
   <path d="m266.84 220.13c0.27693 0.15099 1.2939 0.36693 2.1105 0.40484l0.3621-0.26694-0.78147-0.53836 0.83088 0.12145 0.13869-0.55583 0.58202 0.33728-0.10463-0.67867 0.50122 0.0831c-1.8751-4.3228 1.5105 2.5775-2.9486-2.8537l2.0214 2.7213c-1.6538-1.1814-4.3742-3.3317-1.147-0.40849-3.1572-0.97435-4.6581-1.7553-0.71377 0.54306-4.1841-0.6987-1.0529-0.0686 0.81363 1.0524-1.5704-0.16704-1.9078-0.0939-1.665 0.0385z" fill="#e9e56f"/>
   <path d="m199.26 231.8s5.5503-0.12015 8.3259-0.14417c2.607-0.0226 5.2145 0.0372 7.8213 0 1.2619-0.018 30.057 0.10492 31.301-0.10814 1.3557-0.2322 2.6723-0.70178 3.9287-1.2615 6.9137-1.205 17.357 2.1063 28.82 1.6219" fill="#103f13" stroke="#6fe978" stroke-width=".052917"/>
  </g>
  <g fill="#282828" stroke="#acacac" stroke-width=".052917">
   <rect x="252.64" y="223.52" width="2.6672" height="6.5058"/>
   <rect transform="scale(1,-1)" x="252.19" y="-223.52" width=".9172" height=".8897"/>
   <rect transform="scale(1,-1)" x="254.85" y="-223.52" width=".9172" height=".8897"/>
   <rect transform="scale(1,-1)" x="253.51" y="-223.52" width=".9172" height=".8897"/>
  </g>
  <g fill="none" stroke="#6fa1e9" stroke-width=".61358">
   <g transform="matrix(.86242 0 0 .86242 -343.24 -123.02)">
    <path d="m705 382.36v-2h2"/>
    <path d="m710.8 382.36v-2h-2"/>
    <path d="m705 384.16v2h2"/>
    <path d="m710.8 384.16v2h-2"/>
   </g>
   <g transform="matrix(.86242 0 0 .86242 -343.24 -111.8)">
    <path d="m705 382.36v-2h2"/>
    <path d="m710.8 382.36v-2h-2"/>
    <path d="m705 384.16v2h2"/>
    <path d="m710.8 384.16v2h-2"/>
   </g>
   <g transform="matrix(.86242 0 0 .86242 -343.24 -100.59)">
    <path d="m705 382.36v-2h2"/>
    <path d="m710.8 382.36v-2h-2"/>
    <path d="m705 384.16v2h2"/>
    <path d="m710.8 384.16v2h-2"/>
   </g>
  </g>
  <g>
   <path d="m202.02 231.79c-0.0435-6e-3 -0.0905-0.039-0.10376-0.0738-0.015-0.0393-9e-3 -0.0698 0.12196-0.65692 0.022-0.0986 0.0396-0.18378 0.0389-0.18925l-1e-3 -0.01-0.0807-1e-3c-0.0444-1e-3 -0.0807-2e-3 -0.0807-3e-3s0.0131-0.0187 0.0292-0.0388c0.0345-0.0431 0.0611-0.0826 0.0897-0.13291 0.0263-0.0462 0.0647-0.12688 0.0765-0.16064 0.0119-0.0339 0.0137-0.0359 0.0335-0.0359 0.0175 0 0.12862 0.0148 0.19373 0.0258 0.0756 0.0127 0.0787 0.0139 0.10358 0.0369 0.032 0.0296 0.0412 0.0499 0.0383 0.0841-5e-3 0.0534-0.0225 0.11711-0.11915 0.42293-0.0308 0.0975-0.0618 0.19612-0.0689 0.21913-0.0132 0.043-0.12202 0.38262-0.13832 0.43186-0.0196 0.0591-0.0696 0.0899-0.13282 0.0818zm-1.8026-8e-3c-0.26213-6e-3 -0.28025-0.0104-0.31134-0.0777-0.019-0.0411-0.0184-0.066 3e-3 -0.10766 0.0148-0.0293 0.0175-0.0325 0.0378-0.0425 0.0402-0.0197 0.10065-0.028 0.34464-0.047 0.30956-0.0241 0.44824-0.037 0.45708-0.0424 2e-3 -1e-3 3e-3 -0.0768 3e-3 -0.16835v-0.16643l0.0481 7e-3c0.0889 0.0129 0.14854 0.0171 0.24538 0.0174 0.053 0 0.0972 1e-3 0.0984 2e-3 1e-3 1e-3 -3e-3 0.0388-9e-3 0.0837s-0.0163 0.11564-0.022 0.15728c-0.0152 0.109-0.0441 0.27954-0.0514 0.30281-0.0143 0.0457-0.0414 0.0726-0.0821 0.0813-0.0224 5e-3 -0.54975 5e-3 -0.76086 0zm0.68927-0.72749c-0.0742-6e-3 -0.28262-0.0469-0.2914-0.0565-1e-3 -1e-3 2e-3 -0.018 7e-3 -0.0367 0.0142-0.05 0.0593-0.20104 0.0791-0.26494 9e-3 -0.0307 0.0292-0.0952 0.0439-0.14344 0.0147-0.0482 0.0339-0.11079 0.0428-0.13904l0.0162-0.0514 0.088 3e-3c0.12153 4e-3 0.26245-5e-3 0.37292-0.0217 0.0549-8e-3 0.12031-0.0252 0.18895-0.0482l0.0714-0.0239 0.078 0.0166c0.11472 0.0244 0.33841 0.0742 0.38772 0.0864 0.0264 6e-3 0.0429 0.0125 0.0429 0.0156 0 3e-3 -6e-3 0.0257-0.0139 0.051-0.0715 0.23589-0.22582 0.42079-0.42043 0.50372-0.0453 0.0193-0.12824 0.0438-0.15948 0.047l-0.0224 2e-3 -6e-3 -0.0154c-8e-3 -0.0211-0.0302-0.10143-0.0566-0.20869-0.0246-0.0999-0.0418-0.15936-0.0462-0.15936-4e-3 0-7e-3 0.0231-0.0338 0.23189-0.0122 0.0949-0.023 0.17548-0.0241 0.1791-3e-3 9e-3 -0.0274 0.0182-0.0705 0.0256-0.0355 6e-3 -0.22803 0.0111-0.27386 7e-3zm-0.0336-0.7948c-0.0219-2e-3 -0.0337-5e-3 -0.0384-0.0104-4e-3 -5e-3 -0.0113-0.0303-0.0189-0.0689-0.0217-0.10981-0.10073-0.37045-0.12738-0.42015-0.0106-0.0199-0.0113-0.0203-0.0586-0.0392-0.0263-0.0105-0.089-0.0345-0.13944-0.0533-0.25263-0.0942-0.32395-0.12299-0.33882-0.13696-5e-3 -5e-3 -0.0132-0.0178-0.0181-0.0291-0.0262-0.0598 6e-3 -0.13746 0.0637-0.15409 0.0157-5e-3 0.26941-0.0554 0.48725-0.0978 0.076-0.0148 0.14056-0.0283 0.14344-0.0301 4e-3 -3e-3 -5.5e-4 -0.0142-0.0193-0.0502-0.0433-0.0828-0.0539-0.13885-0.0456-0.24149 3e-3 -0.0404 7e-3 -0.0635 0.011-0.0698 9e-3 -0.0134 0.0423-0.0269 0.10458-0.0422 0.14863-0.0364 0.29788-0.0367 0.40684-1e-3 0.085 0.028 0.11755 0.0443 0.12678 0.0635 8e-3 0.0164 0.0162 0.0599 0.0122 0.0642-2e-3 2e-3 -0.0328 1e-3 -0.0805-4e-3 -0.10198-0.01-0.15956-8e-3 -0.19031 6e-3 -0.0266 0.0122-0.0359 0.0242-0.049 0.0634-0.0139 0.0416-0.0183 0.0734-0.0183 0.13412l-3e-5 0.0528h0.0111c6e-3 0 0.0326-3e-3 0.0588-6e-3 0.0456-6e-3 0.0893-0.0119 0.47794-0.0655 0.38573-0.0533 0.49126-0.0677 0.51507-0.0702 0.0236-3e-3 0.026-4e-3 0.0427-0.0224 0.0181-0.0201 0.078-0.10793 0.0932-0.13657 7e-3 -0.0133 8e-3 -0.0228 8e-3 -0.058 0-0.0376 8.4e-4 -0.0431 9e-3 -0.0514 0.0291-0.0312 0.14939-0.0495 0.32608-0.0494 0.16491 4e-5 0.22227 9e-3 0.29736 0.0452 0.0473 0.023 0.0898 0.0603 0.12028 0.10557l0.0187 0.0279 0.0258 1e-3c0.0154 1e-3 0.0777-6e-3 0.15334-0.0168 0.0701-0.01 0.14888-0.02 0.17501-0.0225 0.0443-4e-3 0.0479-4e-3 0.0528 3e-3 6e-3 9e-3 7e-3 0.0181 8.5e-4 0.0313-4e-3 8e-3 -0.01 0.0111-0.0329 0.0161-0.0438 9e-3 -0.0986 0.0181-0.11397 0.0182-0.0216 0-0.0247 4e-3 -0.0276 0.0359-4e-3 0.0443-0.0128 0.0496-0.10384 0.0635-0.0274 4e-3 -0.062 9e-3 -0.077 0.0104-0.0313 3e-3 -0.031 3e-3 -0.0404 0.0493-0.0243 0.12066-0.16075 0.23771-0.30206 0.25913-0.0424 6e-3 -0.0589 2e-3 -0.082-0.0231-0.018-0.0193-0.0202-0.0204-0.0822-0.0398-0.0351-0.011-0.10051-0.0302-0.14543-0.0429-0.0449-0.0126-0.0837-0.0237-0.0863-0.0246-0.0114-4e-3 -0.11505 0.0919-0.30021 0.27796-0.11659 0.11718-0.20617 0.20401-0.21913 0.21239-0.012 8e-3 -0.0301 0.0164-0.04 0.019-0.0209 6e-3 -0.0328 3e-3 -0.13726-0.0263-0.0826-0.0234-0.18632-0.0498-0.19537-0.0498-7e-3 0-7e-3 6e-3 -5e-3 0.0946 3e-3 0.11935 0.0227 0.38588 0.0289 0.39597 4e-3 6e-3 -0.0165 0.0196-0.0473 0.0313-0.0336 0.0128-0.15311 0.0433-0.21003 0.0535-0.0495 9e-3 -0.10575 0.0138-0.21111 0.0183-0.10432 5e-3 -0.12353 4e-3 -0.16916-1e-3zm0.96793-0.87619c0.0554-0.0316 0.0908-0.0561 0.0868-0.0602-5e-3 -5e-3 -0.12643-0.0339-0.18277-0.0435-0.0448-8e-3 -0.0604-8e-3 -0.12115-6e-3 -0.0685 2e-3 -0.14586 0.0114-0.15236 0.0179-5e-3 5e-3 0.0735 0.0403 0.24201 0.10762l0.0598 0.0239 0.0119-7e-3c7e-3 -4e-3 0.0317-0.0184 0.0558-0.0322zm0.87085-0.12758c4e-3 -2e-3 0.0284-9e-3 0.0537-0.0158 0.0834-0.0212 0.13859-0.0587 0.1704-0.11587 0.0179-0.0321 0.0187-0.0419 4e-3 -0.0452-0.0122-3e-3 -0.23278 0.0242-0.32409 0.0394-0.032 5e-3 -0.0712 0.0143-0.0871 0.0198-0.0378 0.0132-0.0858 0.0392-0.0858 0.0464 0 8e-3 0.0601 0.0284 0.14543 0.0496 0.11089 0.0275 0.11246 0.0278 0.12381 0.0217zm-0.31996-0.23698c0.19639-0.025 0.52727-0.0767 0.53392-0.0833 9e-3 -9e-3 -0.0701-0.0559-0.11113-0.0655-0.0709-0.0166-0.27303-0.016-0.38003 1e-3l-0.0637 0.0102-0.0151 0.0167c-0.0191 0.0212-0.0865 0.1219-0.0865 0.12931 0 7e-3 -4e-3 8e-3 0.12258-8e-3zm-1.0648-0.26889c-0.0799-0.0256-0.11282-0.0298-0.23318-0.0297-0.11888 0-0.15323 4e-3 -0.24603 0.0253-0.0461 0.0107-0.0488 0.0109-0.0488 4e-3 0-0.02 0.0598-0.18496 0.0919-0.25357 0.041-0.0875 0.0893-0.15227 0.12428-0.16627 0.086-0.0345 0.19528 0.0554 0.2873 0.23639 0.0255 0.0502 0.0745 0.1639 0.0796 0.18493 3e-3 0.01 2e-3 0.0109-8e-3 0.0107-6e-3 0-0.0271-5e-3 -0.0468-0.0118z" fill="#10153f" stroke="#6f7ae9" stroke-width=".052917"/>
   <path d="m203.83 228.83c10.677-3.736 50.385-3.5115 61.001-0.64083" fill="none" stroke="#d54747" stroke-width=".10195px"/>
   <path d="m265.35 230.96c-0.0147-0.0379 3e-3 -0.0726 0.0461-0.0925 0.0139-6e-3 0.0634-0.024 0.11015-0.0393l0.085-0.0278 0.27902-0.31522c0.28189-0.31846 0.31256-0.35252 0.32152-0.35724 3e-3 -1e-3 0.0111 0.0122 0.0194 0.0325 8e-3 0.0193 0.021 0.0416 0.0289 0.0496 8e-3 8e-3 0.0168 0.017 0.0198 0.0201 6e-3 7e-3 6e-3 0.0354-2e-4 0.0971-7e-3 0.0685-0.0139 0.0948-0.0285 0.11258-0.0296 0.0359-0.39237 0.39137-0.53548 0.5247l-0.0241 0.0224-0.0573 3e-3c-0.13426 8e-3 -0.21085 5e-3 -0.24196-8e-3 -0.0124-5e-3 -0.0177-0.0105-0.0222-0.0222zm1.6931 0.99108c-0.0212-0.0311-0.0869-0.15377-0.10813-0.20197-0.0101-0.0228-0.0177-0.0461-0.0171-0.0517 2e-3 -0.0131 0.0374-0.1537 0.12796-0.502 0.0917-0.35255 0.11741-0.44762 0.12158-0.44869 2e-3 0 0.0129 0.0107 0.0246 0.0249 0.0175 0.0211 0.0287 0.03 0.0618 0.0493 0.05 0.0295 0.0808 0.0345 0.12042 0.0208l0.0263-9e-3 -5e-3 0.0183c-8e-3 0.0283-0.10339 0.31938-0.1953 0.59516l-0.0831 0.2494 0.0147 0.0631c0.0279 0.11978 0.033 0.1655 0.0206 0.18655-0.0114 0.0193-0.0314 0.0329-0.0539 0.0367-0.0237 4e-3 -0.0365-3e-3 -0.0554-0.0309zm-0.77318-0.58559c-7e-3 -0.035-0.0188-0.13442-0.0208-0.18266-2e-3 -0.0511 0.0132-0.19293 0.13774-1.2784 0.0882-0.7683 0.0811-0.69165 0.0646-0.70066-7e-3 -4e-3 -0.0418-0.0113-0.0763-0.016-0.0344-5e-3 -0.0687-0.0109-0.076-0.0138-0.016-6e-3 -0.0208-0.0216-0.0134-0.0429 7e-3 -0.0209 0.0237-0.0224 0.12936-0.0117 0.0992 0.01 0.0985 0.0101 0.10294-0.022 4e-3 -0.0273 2.7e-4 -0.0323-0.0348-0.0489-0.0391-0.0186-0.058-0.0374-0.0673-0.0673-0.0162-0.0518 0.0109-0.0929 0.0917-0.13854l0.0414-0.0234 8e-3 -0.0502c4e-3 -0.0276 0.0109-0.0555 0.0147-0.0619 8e-3 -0.0136 0.0235-0.0189 0.035-0.0121 9e-3 5e-3 0.0171 0.0376 0.0142 0.0581-1e-3 8e-3 -5.3e-4 0.0151 1e-3 0.0161 7e-3 4e-3 0.0573-0.0194 0.18384-0.0869 0.14841-0.0792 0.20924-0.10951 0.22709-0.11316 0.0117-2e-3 0.012-2e-3 9e-3 0.0117-8e-3 0.0449-0.01 0.0698-5e-3 0.0818 3e-3 8e-3 0.0265 0.0339 0.0521 0.0588 0.0597 0.0583 0.0625 0.0628 0.0488 0.0793-0.0143 0.0172-0.0485 0.0327-0.30092 0.1362-0.11938 0.049-0.22439 0.0921-0.23336 0.0958l-0.0163 7e-3 -5e-3 0.035c-3e-3 0.0192-3e-3 0.0403-2e-3 0.0467 3e-3 0.0113 4e-3 0.012 0.0419 0.0186 0.0214 4e-3 0.0645 0.0105 0.0957 0.0149 0.0878 0.0124 0.10616 0.0239 0.0879 0.0549-0.012 0.0204-0.0288 0.0228-0.10875 0.0161-0.0347-3e-3 -0.0694-4e-3 -0.0772-3e-3l-0.014 3e-3 -7e-3 0.0501c-7e-3 0.057-0.0995 0.8294-0.1352 1.1354-0.077 0.65984-0.0931 0.76718-0.13128 0.87595-0.0193 0.055-0.0481 0.11155-0.0548 0.10762-2e-3 -1e-3 -6e-3 -0.014-9e-3 -0.0285zm0.9602-0.90951c0.011-0.0821 0.0232-0.14305 0.0334-0.16699 8e-3 -0.0194 0.0113-0.0221 0.041-0.0369 0.0399-0.0198 0.0982-0.0352 0.12688-0.0335 0.0446 3e-3 0.11211 0.0404 0.14051 0.0784 0.0136 0.0182 0.0129 0.0216-0.0281 0.13377-0.0175 0.0479-0.0345 0.0959-0.0377 0.10683-3e-3 0.0109-7e-3 0.0202-9e-3 0.0206-2e-3 0-0.0141-0.0132-0.0274-0.0303s-0.0319-0.0371-0.0415-0.0443c-0.0445-0.0338-0.11226-0.0302-0.1712 9e-3 -0.0175 0.0117-0.0324 0.0209-0.0331 0.0205-7.9e-4 -1e-3 2e-3 -0.0262 6e-3 -0.0573zm-0.63803-0.46311c0.0132-0.12181 0.0288-0.23384 0.0352-0.25285 7e-3 -0.0204 0.0208-0.0193 0.0456 3e-3 0.0288 0.0263 0.0485 0.0586 0.0598 0.0983 0.0106 0.0376 0.0189 0.11531 0.0132 0.12492-3e-3 5e-3 -0.12543 0.10528-0.14691 0.11999-6e-3 4e-3 -0.013 7e-3 -0.0146 6e-3 -2e-3 -1e-3 2e-3 -0.0459 8e-3 -0.0999zm1.297 0.54225c-0.0246-0.0408-0.0367-0.0694-0.0484-0.11393-0.0573-0.21901 0.011-0.56467 0.19592-0.99115 0.0678-0.15641 0.14511-0.3088 0.2662-0.52486l0.0507-0.0904 0.0303 0.015c0.0166 8e-3 0.0613 0.0307 0.0991 0.05 0.0809 0.041 0.13424 0.0619 0.1772 0.0693 0.0496 8e-3 0.10879 0.0139 0.13671 0.0122 0.0311-2e-3 0.0314-2e-3 0.0772 0.0646 0.0349 0.0504 0.0707 0.0928 0.10721 0.12673 0.0143 0.0133 0.0536 0.0387 0.1228 0.0795l0.10174 0.06-0.089 0.14558c-0.2042 0.33418-0.2844 0.45717-0.37308 0.57211-0.28489 0.36923-0.58035 0.58318-0.7871 0.56996-0.0329-2e-3 -0.0478-0.0119-0.0675-0.0447zm0.16142-0.15147c0.2161-0.084 0.45025-0.3201 0.72566-0.73178 0.0659-0.0985 0.18278-0.2816 0.18191-0.28497-2.6e-4 -2e-3 -0.022-0.0198-0.0479-0.0407-0.0633-0.0508-0.0909-0.077-0.13568-0.12873-0.0208-0.024-0.0425-0.0464-0.0483-0.0498-6e-3 -3e-3 -0.034-0.0103-0.0628-0.0153-0.0679-0.0118-0.15396-0.0366-0.19234-0.0553-0.0442-0.0216-0.0468-0.0202-0.0834 0.0438-0.0587 0.1028-0.15377 0.30069-0.21252 0.44241-0.107 0.2581-0.16758 0.48686-0.17213 0.64997-3e-3 0.0906 6e-3 0.16621 0.0192 0.17411 4e-3 3e-3 0.0167 1e-3 0.0282-4e-3zm-0.76431-0.27934c0.0175-0.1185 0.0414-0.26767 0.0496-0.30993l8e-3 -0.0397 0.0409 2e-3c0.0606 3e-3 0.12319 0.0178 0.15393 0.0358 0.0502 0.0296 0.10452 0.0511 0.15431 0.0617 0.0385 8e-3 0.0497 0.0121 0.0514 0.0182 2e-3 7e-3 -0.0387 0.12335-0.096 0.2752-0.0111 0.0293-0.0215 0.0577-0.0233 0.0631-3e-3 0.01-4e-3 9e-3 -0.0695-0.0273-0.0661-0.0371-0.0664-0.0371-0.10041-0.039-0.0461-3e-3 -0.0921 4e-3 -0.13969 0.0189l-0.0395 0.0127 0.0106-0.0716zm-0.47686-0.26834c-9e-3 -0.0346-0.0236-0.0735-0.0315-0.0865-0.0192-0.0315-0.0537-0.0624-0.10107-0.0904-0.0509-0.0301-0.0522-0.0341-0.0244-0.0727 0.0211-0.0294 0.20302-0.25096 0.21437-0.26113 6e-3 -5e-3 0.01-2e-3 0.0345 0.0374 0.0328 0.0509 0.0539 0.0722 0.12256 0.12357 0.0567 0.0424 0.097 0.0808 0.12053 0.11452 0.0128 0.0183 0.0146 0.0243 0.01 0.0324-8e-3 0.0131-0.32105 0.2701-0.32564 0.26709-1e-3 -1e-3 -0.01-0.0297-0.0192-0.0642zm0.46138-0.2717c-0.0223-0.0153-0.0454-0.0321-0.0512-0.0373-6e-3 -5e-3 -0.0328-0.0299-0.0599-0.0548s-0.0671-0.0585-0.0889-0.0747c-0.0481-0.0357-0.062-0.0494-0.0823-0.0811-0.0216-0.0338-0.0555-0.1114-0.0615-0.14084-8e-3 -0.039-1e-3 -0.0442 0.14406-0.10692 0.05-0.0216 0.10839-0.0475 0.1297-0.0575l0.0387-0.0182 0.0253 0.0309c0.0803 0.0984 0.19249 0.25224 0.19275 0.26438 4e-5 3e-3 -5e-3 6e-3 -0.0119 5e-3 -7e-3 0-0.0344 5e-3 -0.0618 0.0117-0.081 0.0193-0.16351 0.058-0.16694 0.0784-5e-3 0.0268 0.10269 0.11078 0.20873 0.1636 0.0601 0.0299 0.1505 0.0597 0.15954 0.0525 0.0171-0.0136 0.0231-0.11793 0.01-0.16918-4e-3 -0.0162-0.0148-0.0418-0.0235-0.0567-9e-3 -0.0157-0.0134-0.0278-0.0102-0.0287 0.0109-3e-3 0.32762 0.0433 0.32831 0.0478 2e-4 1e-3 -0.0151 0.0421-0.0341 0.0906s-0.047 0.12573-0.0624 0.17158c-0.0346 0.10327-0.0363 0.10637-0.0592 0.10668-0.0208 0-0.0683-0.0151-0.11276-0.0366-0.0174-8e-3 -0.0671-0.0277-0.11043-0.0427-0.0482-0.0169-0.10146-0.0389-0.13728-0.057-0.0322-0.0163-0.0593-0.0303-0.0602-0.0313-1e-3 -1e-3 -0.0199-0.0143-0.0423-0.0295zm0.13936-0.47975c-0.0554-0.0728-0.10133-0.13464-0.10203-0.13737-1e-3 -6e-3 0.0365-0.0947 0.17689-0.41219 0.15792-0.35728 0.17959-0.4047 0.18548-0.40607 5e-3 -1e-3 0.16473 0.0375 0.17218 0.0419 2e-3 1e-3 2e-3 0.0106-1e-3 0.0207-0.0138 0.0498 0.0198 0.14224 0.0877 0.24138l0.0312 0.0456-0.2184 0.36763c-0.14154 0.23819-0.22063 0.36821-0.22476 0.36924-4e-3 1e-3 -0.0406-0.0434-0.10713-0.13081zm0.2283 0.10162c0.0242-0.0444 0.12183-0.21263 0.21692-0.37387l0.17291-0.29317 0.0379 3e-3c0.087 6e-3 0.18509-0.0102 0.24491-0.0399 0.0179-9e-3 0.0341-0.0143 0.036-0.0119 2e-3 2e-3 0.0279 0.029 0.0578 0.0593 0.0776 0.0785 0.0728 0.0687 0.0493 0.10242-0.0109 0.0156-0.0243 0.0311-0.0298 0.0345-0.01 6e-3 -0.0116 5e-3 -0.0453-0.0182-0.0194-0.0134-0.0385-0.0277-0.0424-0.0316-0.01-0.01-0.0148-4e-3 -0.0846 0.10256-0.0765 0.1162-0.24379 0.4158-0.3007 0.53838-0.0235 0.0506-0.024 0.0509-0.0821 0.0469-0.0453-3e-3 -0.26499-0.0314-0.27084-0.0348-2e-3 -1e-3 0.0138-0.0349 0.0401-0.083zm-0.44521-0.47015c-0.0154-0.0143-0.0404-0.0389-0.0556-0.0546l-0.0276-0.0285 0.0127-0.0557c0.0156-0.0683 0.0272-0.0941 0.0517-0.11494 0.0306-0.0261 0.0657-0.0473 0.0721-0.0435 4e-3 3e-3 7.9e-4 0.0216-0.0132 0.07-0.0106 0.0365-0.019 0.0673-0.0186 0.0684 2e-4 1e-3 0.0192 0.0325 0.0419 0.0699l0.0413 0.0679-9e-3 0.0152c-5e-3 8e-3 -0.0183 0.0216-0.0292 0.0293-0.0229 0.0163-0.0234 0.0161-0.066-0.0236zm0.13525-0.12315-0.0315-0.0521 0.0347-0.10797 0.0347-0.10795 0.0686-0.0482c0.0377-0.0265 0.0823-0.057 0.0991-0.0677l0.0305-0.0196-6e-3 0.0153c-3e-3 8e-3 -0.0318 0.0744-0.0636 0.14659-0.0318 0.0722-0.0733 0.16744-0.092 0.21159-0.0388 0.0912-0.0367 0.087-0.0405 0.0842-2e-3 -1e-3 -0.017-0.0255-0.0343-0.0541zm0.67673-0.18211c-0.0417-0.051-0.092-0.15843-0.0901-0.19225 1e-3 -0.023 9e-3 -0.0315 0.0431-0.0485l0.0317-0.0157 8e-3 0.0289c0.0131 0.0444 0.0346 0.0746 0.078 0.10925 0.0499 0.0399 0.11436 0.0579 0.17356 0.0485l0.0359-5e-3 2e-3 0.0266c1e-3 0.0146 7.9e-4 0.0316-1e-3 0.0377-9e-3 0.0318-0.0971 0.0508-0.20167 0.0438-0.0454-3e-3 -0.0612-0.01-0.0801-0.0326zm0.0869-0.20313c-9e-3 -0.0142-0.0144-0.0371-0.0198-0.0808-5e-3 -0.0416-0.0123-0.0712-0.0222-0.0928-0.0233-0.0509-0.0157-0.0863 0.0383-0.17787 0.0359-0.061 0.0535-0.0805 0.0985-0.10901 0.0624-0.0396 0.14352-0.0532 0.20361-0.0342 0.0445 0.0141 0.099 0.0563 0.12495 0.0969 0.0289 0.0452 0.0456 0.13394 0.0357 0.19001-0.0144 0.0818-0.0876 0.18856-0.16664 0.24324-0.0409 0.0283-0.0915 0.0486-0.1203 0.0482-0.0314 0-0.0815-0.0176-0.124-0.0427-0.0297-0.0175-0.0379-0.0245-0.048-0.0409zm0.30462-0.0321c0.0596-0.0415 0.12019-0.16275 0.10824-0.21656-4e-3 -0.0176-7e-3 -0.0209-0.0205-0.0264-9e-3 -3e-3 -0.0432-9e-3 -0.0764-0.0116-0.0607-5e-3 -0.11884-0.0202-0.18798-0.048l-0.0323-0.013-0.0165 0.0344c-9e-3 0.0189-0.0162 0.0356-0.0158 0.0371 2.6e-4 1e-3 0.0104 0.0103 0.0222 0.0197 0.0375 0.0297 0.074 0.0747 0.12069 0.1492 0.0328 0.0522 0.0495 0.0748 0.0605 0.0815 0.0147 9e-3 0.0162 8e-3 0.0378-7e-3zm-0.70186-0.43885c-0.0567-0.0474-0.10573-0.11359-0.12881-0.17398-7e-3 -0.0195-0.0171-0.0539-0.0215-0.0765-7e-3 -0.0384-0.0127-0.1033-9e-3 -0.1096 7.9e-4 -1e-3 0.0131 8e-3 0.0277 0.0197 0.032 0.0275 0.0692 0.0503 0.0829 0.0509 9e-3 0 0.0126-4e-3 0.0394-0.0513 0.0258-0.0458 0.0312-0.0531 0.0469-0.0628 0.0462-0.0286 0.11842 8e-3 0.10611 0.0539-3e-3 9e-3 -6e-3 0.0201-9e-3 0.0242-3e-3 4e-3 -5e-3 0.0244-6e-3 0.0451-3e-3 0.0505 0.0167 0.12541 0.0417 0.16274 0.0392 0.0586 0.11241 0.0927 0.22995 0.10721 7e-3 1e-3 4e-3 5e-3 -0.0249 0.0347-0.0381 0.0384-0.0693 0.0543-0.1206 0.0613-0.0414 6e-3 -0.0717 3e-3 -0.11232-0.01-0.0389-0.0123-0.11541-0.0528-0.14262-0.0756zm0.29318-0.12354c-0.027-0.0275-0.0453-0.0604-0.0557-0.10019-0.019-0.0727 1e-3 -0.13339 0.0635-0.18873 0.0569-0.0507 0.0998-0.0447 0.0824 0.0116-0.0159 0.0511 3e-3 0.10185 0.044 0.11843 0.0252 0.0101 0.0715 9e-3 0.12748-4e-3 0.0944-0.021 0.16841-1e-3 0.24253 0.0638 0.0688 0.0606 0.0979 0.162 0.0634 0.22086-6e-3 0.0106-0.0126 0.0183-0.0142 0.0173-2e-3 -1e-3 -9e-3 -0.01-0.0174-0.0188-0.0226-0.0266-0.0917-0.066-0.12593-0.0718-0.0328-5e-3 -0.14125-7e-3 -0.21618-4e-3 -0.0686 3e-3 -0.0992 1e-3 -0.13289-8e-3 -0.0319-9e-3 -0.0374-0.0124-0.0612-0.0361z" fill="#3f1310" stroke="#e96f6f" stroke-width=".052917"/>
  </g>
  <path d="m264.29 228.34c-2e-3 -7e-3 0.013-0.0271 0.0358-0.0489 0.0431-0.0412 0.0381-0.0415 0.11349 7e-3l0.0454 0.0293-0.0167 0.0147c-0.033 0.0292-0.0402 0.0305-0.10855 0.0201-0.0527-8e-3 -0.0674-0.0127-0.0695-0.0223zm-0.50309-0.0811c-7e-3 -5e-3 -0.0116-0.0127-0.0111-0.0163 1e-3 -6e-3 0.21712-0.21071 0.22697-0.21449 8e-3 -3e-3 0.12087 0.0683 0.11763 0.074-0.0112 0.0197-0.19205 0.17351-0.20797 0.17694-0.0263 6e-3 -0.11025-8e-3 -0.12557-0.0202zm0.26471 0.0403c-7e-3 -5e-3 -0.0115-0.0134-0.0109-0.0176 1e-3 -0.01 0.1439-0.13976 0.15193-0.13854 3e-3 0 0.0304 0.017 0.0601 0.0366l0.0539 0.0357-0.0557 0.0497c-0.0306 0.0273-0.0614 0.0516-0.0684 0.0539-0.0192 6e-3 -0.11726-8e-3 -0.13092-0.0199zm0.37775-0.016c-0.028-0.0187-0.0506-0.036-0.0503-0.0384 2.7e-4 -3e-3 0.0229-0.0247 0.0501-0.0496 0.0272-0.0248 0.0498-0.0473 0.0502-0.05 2.7e-4 -3e-3 -0.0173-7e-3 -0.0393-0.0109-0.0391-6e-3 -0.0409-5e-3 -0.074 0.0267-0.0529 0.0511-0.0493 0.0508-0.11323 9e-3l-0.057-0.0368 0.0296-0.033-0.0524-7e-3c-0.0448-6e-3 -0.0604-0.012-0.10814-0.0423-0.0307-0.0196-0.0583-0.0424-0.0614-0.0507-3e-3 -8e-3 -0.0382-0.072-0.0779-0.14147-0.0397-0.0694-0.0713-0.13217-0.0702-0.13934 1e-3 -8e-3 0.0104-0.0134 0.0263-0.0142 0.0358-2e-3 0.087 7e-3 0.10753 0.019 0.01 6e-3 0.0503 0.064 0.0897 0.12973l0.0717 0.11958 0.041 6e-3c0.0225 4e-3 0.0413 5e-3 0.0416 3e-3 2.6e-4 -2e-3 -0.0269-0.0517-0.0606-0.11017-0.0337-0.0585-0.0607-0.10967-0.0601-0.11376 4e-3 -0.0244 0.13538-8e-3 0.15783 0.0191 7e-3 9e-3 0.0415 0.0653 0.0765 0.12571l0.0636 0.10991 0.0397 6e-3c0.0218 3e-3 0.0401 4e-3 0.0406 0 5.3e-4 -3e-3 -0.0254-0.0508-0.0574-0.10596-0.032-0.0551-0.0573-0.1067-0.0561-0.11456 2e-3 -0.0102 0.01-0.0146 0.0284-0.0152 0.0395-1e-3 0.11819 0.0196 0.1263 0.0337 4e-3 7e-3 0.037 0.0624 0.0737 0.1238l0.0667 0.1116 0.66894 0.10381 0.66894 0.10382-0.164 0.0872-1.1883-0.181-0.0813 0.0762c-0.0447 0.0419-0.0846 0.0755-0.0887 0.0745-4e-3 -1e-3 -0.0304-0.017-0.0584-0.0357zm2.511 0.39226c-1e-3 -6e-3 0.0127-0.0418 0.031-0.0803l0.0333-0.0702-1.1388-0.1774 0.1626-0.0874 0.93083 0.1418 0.15621 0.10322c0.0859 0.0568 0.15601 0.1053 0.15577 0.10783-5.3e-4 5e-3 -0.30859 0.076-0.32114 0.0741-4e-3 -1e-3 -9e-3 -6e-3 -0.01-0.0114zm0.19008-0.16878c-0.0895-0.0595-0.14005-0.0972-0.1303-0.0972 9e-3 -3e-5 0.0164-3e-3 0.017-7e-3 5.3e-4 -4e-3 -8e-3 -0.0384-0.0193-0.077-0.0112-0.0385-0.0199-0.073-0.0193-0.0766 5.3e-4 -4e-3 8e-3 -5e-3 0.0168-5e-3 0.0187 3e-3 0.34045 0.1705 0.50293 0.26206 0.0669 0.0377 0.0594 0.0436-0.1005 0.0807-0.0514 0.0119-0.0997 0.0204-0.10735 0.019-8e-3 -1e-3 -0.0797-0.0464-0.16015-0.0998z" fill="#fff975" stroke-width=".10195"/>
  <g fill="#e9e56f" stroke-width=".10195px">
   <g transform="scale(1.0015 .99852)" aria-label="Total Annihilation">
    <path d="m199.64 178.19h-0.38704v1.1985h-0.15706v-1.1985h-0.38611v-0.1421h0.93021z"/>
    <path d="m200.04 179.41q-0.21222 0-0.33936-0.13369-0.12621-0.13463-0.12621-0.3562 0-0.2412 0.13182-0.37675 0.13182-0.13556 0.35619-0.13556 0.21409 0 0.33375 0.13182 0.1206 0.13181 0.1206 0.36554 0 0.22904-0.12995 0.36741-0.12901 0.13743-0.34684 0.13743zm0.0112-0.87319q-0.14771 0-0.23372 0.10097-0.086 0.10003-0.086 0.27673 0 0.17014 0.0869 0.26831 0.087 0.0982 0.23279 0.0982 0.14865 0 0.22811-0.0963 0.0804-0.0963 0.0804-0.27392 0-0.1795-0.0804-0.27673-0.0795-0.0972-0.22811-0.0972z"/>
    <path d="m201.21 179.38q-0.0542 0.0299-0.14304 0.0299-0.25149 0-0.25149-0.28047v-0.56654h-0.16454v-0.13089h0.16454v-0.23372l0.15332-0.0496v0.28327h0.24121v0.13089h-0.24121v0.53943q0 0.0963 0.0327 0.13743 0.0327 0.0411 0.10844 0.0411 0.058 0 0.10004-0.0318z"/>
    <path d="m202.1 179.39h-0.15332v-0.14958h-4e-3q-0.10004 0.17202-0.29449 0.17202-0.14304 0-0.22438-0.0757-0.0804-0.0757-0.0804-0.201 0-0.26831 0.316-0.31225l0.28701-0.0402q0-0.24401-0.19727-0.24401-0.17295 0-0.31225 0.1178v-0.15706q0.14117-0.0898 0.32534-0.0898 0.3375 0 0.3375 0.35712zm-0.15332-0.48427-0.23092 0.0318q-0.10658 0.015-0.1608 0.0533-0.0542 0.0374-0.0542 0.13369 0 0.0701 0.0496 0.11499 0.0505 0.0439 0.13369 0.0439 0.11406 0 0.18791-0.0795 0.0748-0.0804 0.0748-0.20287z"/>
    <path d="m202.54 179.39h-0.15332v-1.4173h0.15332z"/>
    <path d="m204.43 179.39h-0.17389l-0.1421-0.37583h-0.56841l-0.13369 0.37583h-0.17483l0.51419-1.3406h0.16267zm-0.36741-0.51699-0.21035-0.57122q-0.0103-0.028-0.0206-0.0897h-4e-3q-9e-3 0.057-0.0215 0.0897l-0.20848 0.57122z"/>
    <path d="m205.4 179.39h-0.15332v-0.54598q0-0.30477-0.2225-0.30477-0.11499 0-0.19072 0.087-0.0748 0.086-0.0748 0.21782v0.54598h-0.15332v-0.95733h0.15332v0.15893h4e-3q0.10845-0.18136 0.31412-0.18136 0.15706 0 0.24027 0.1019 0.0832 0.10097 0.0832 0.29262z"/>
    <path d="m206.49 179.39h-0.15332v-0.54598q0-0.30477-0.2225-0.30477-0.115 0-0.19072 0.087-0.0748 0.086-0.0748 0.21782v0.54598h-0.15332v-0.95733h0.15332v0.15893h4e-3q0.10844-0.18136 0.31412-0.18136 0.15706 0 0.24026 0.1019 0.0832 0.10097 0.0832 0.29262z"/>
    <path d="m206.86 178.19q-0.0411 0-0.0701-0.028t-0.029-0.071 0.029-0.0711q0.029-0.029 0.0701-0.029 0.0421 0 0.0711 0.029 0.0299 0.028 0.0299 0.0711 0 0.0411-0.0299 0.0701-0.029 0.029-0.0711 0.029zm0.0748 1.2004h-0.15332v-0.95733h0.15332z"/>
    <path d="m208.04 179.39h-0.15332v-0.55159q0-0.29916-0.2225-0.29916-0.11219 0-0.18885 0.087-0.0767 0.086-0.0767 0.22156v0.54224h-0.15332v-1.4173h0.15332v0.61889h4e-3q0.11032-0.18136 0.31412-0.18136 0.32347 0 0.32347 0.38984z"/>
    <path d="m208.41 178.19q-0.0411 0-0.0701-0.028t-0.029-0.071 0.029-0.0711q0.029-0.029 0.0701-0.029 0.0421 0 0.0711 0.029 0.0299 0.028 0.0299 0.0711 0 0.0411-0.0299 0.0701-0.029 0.029-0.0711 0.029zm0.0748 1.2004h-0.15332v-0.95733h0.15332z"/>
    <path d="m208.94 179.39h-0.15332v-1.4173h0.15332z"/>
    <path d="m209.94 179.39h-0.15332v-0.14958h-4e-3q-0.10004 0.17202-0.29449 0.17202-0.14304 0-0.22438-0.0757-0.0804-0.0757-0.0804-0.201 0-0.26831 0.316-0.31225l0.28701-0.0402q0-0.24401-0.19727-0.24401-0.17295 0-0.31225 0.1178v-0.15706q0.14117-0.0898 0.32534-0.0898 0.3375 0 0.3375 0.35712zm-0.15332-0.48427-0.23092 0.0318q-0.10658 0.015-0.1608 0.0533-0.0542 0.0374-0.0542 0.13369 0 0.0701 0.0496 0.11499 0.0505 0.0439 0.13369 0.0439 0.11406 0 0.18791-0.0795 0.0748-0.0804 0.0748-0.20287z"/>
    <path d="m210.67 179.38q-0.0542 0.0299-0.14304 0.0299-0.25148 0-0.25148-0.28047v-0.56654h-0.16454v-0.13089h0.16454v-0.23372l0.15332-0.0496v0.28327h0.2412v0.13089h-0.2412v0.53943q0 0.0963 0.0327 0.13743 0.0327 0.0411 0.10844 0.0411 0.058 0 0.10004-0.0318z"/>
    <path d="m210.96 178.19q-0.0411 0-0.0701-0.028t-0.029-0.071 0.029-0.0711q0.029-0.029 0.0701-0.029 0.0421 0 0.071 0.029 0.0299 0.028 0.0299 0.0711 0 0.0411-0.0299 0.0701-0.029 0.029-0.071 0.029zm0.0748 1.2004h-0.15332v-0.95733h0.15332z"/>
    <path d="m211.75 179.41q-0.21222 0-0.33936-0.13369-0.12621-0.13463-0.12621-0.3562 0-0.2412 0.13182-0.37675 0.13182-0.13556 0.35619-0.13556 0.21409 0 0.33375 0.13182 0.1206 0.13181 0.1206 0.36554 0 0.22904-0.12994 0.36741-0.12902 0.13743-0.34685 0.13743zm0.0112-0.87319q-0.14771 0-0.23372 0.10097-0.086 0.10003-0.086 0.27673 0 0.17014 0.0869 0.26831 0.087 0.0982 0.23279 0.0982 0.14865 0 0.22811-0.0963 0.0804-0.0963 0.0804-0.27392 0-0.1795-0.0804-0.27673-0.0795-0.0972-0.22811-0.0972z"/>
    <path d="m213.26 179.39h-0.15332v-0.54598q0-0.30477-0.22251-0.30477-0.11499 0-0.19071 0.087-0.0748 0.086-0.0748 0.21782v0.54598h-0.15332v-0.95733h0.15332v0.15893h4e-3q0.10844-0.18136 0.31412-0.18136 0.15706 0 0.24026 0.1019 0.0832 0.10097 0.0832 0.29262z"/>
   </g>
   <g transform="scale(1.0015 .99852)" aria-label="Starcraft">
    <path d="m198.78 190.57v-0.18511q0.0318 0.0281 0.0757 0.0505 0.0449 0.0224 0.0935 0.0383 0.0495 0.015 0.0991 0.0234 0.0496 8e-3 0.0916 8e-3 0.14491 0 0.21596-0.0533 0.072-0.0542 0.072-0.15519 0-0.0542-0.0243-0.0944-0.0234-0.0402-0.0654-0.0729-0.0421-0.0336-0.10004-0.0636-0.057-0.0309-0.1234-0.0645-0.0701-0.0355-0.13089-0.072-0.0608-0.0365-0.10564-0.0804-0.0449-0.0439-0.071-0.0991-0.0252-0.0561-0.0252-0.13088 0-0.0916 0.0402-0.15893 0.0402-0.0682 0.10564-0.11219 0.0654-0.0439 0.14865-0.0654 0.0841-0.0215 0.17108-0.0215 0.1982 0 0.28888 0.0477v0.1767q-0.11873-0.0823-0.30477-0.0823-0.0514 0-0.10284 0.0112-0.0514 0.0103-0.0916 0.0346t-0.0654 0.0626-0.0252 0.0935q0 0.0514 0.0187 0.0888 0.0196 0.0374 0.057 0.0682 0.0374 0.0309 0.0907 0.0598 0.0542 0.029 0.12434 0.0636 0.072 0.0355 0.13649 0.0748 0.0645 0.0393 0.11312 0.0869 0.0486 0.0477 0.0767 0.10565 0.029 0.058 0.029 0.13275 0 0.0991-0.0393 0.16828-0.0383 0.0683-0.10471 0.11125-0.0654 0.043-0.15145 0.0617-0.086 0.0196-0.18137 0.0196-0.0318 0-0.0785-6e-3 -0.0467-5e-3 -0.0954-0.015-0.0486-9e-3 -0.0925-0.0234-0.043-0.015-0.0692-0.0327z"/>
    <path d="m200.23 190.61q-0.0542 0.0299-0.14303 0.0299-0.25149 0-0.25149-0.28047v-0.56654h-0.16454v-0.13088h0.16454v-0.23373l0.15332-0.0495v0.28328h0.2412v0.13088h-0.2412v0.53943q0 0.0963 0.0327 0.13743 0.0327 0.0411 0.10845 0.0411 0.058 0 0.10003-0.0318z"/>
    <path d="m201.12 190.62h-0.15333v-0.14958h-4e-3q-0.10003 0.17202-0.29448 0.17202-0.14304 0-0.22438-0.0757-0.0804-0.0757-0.0804-0.201 0-0.26831 0.31599-0.31225l0.28701-0.0402q0-0.24401-0.19726-0.24401-0.17295 0-0.31225 0.1178v-0.15706q0.14117-0.0897 0.32534-0.0897 0.3375 0 0.3375 0.35712zm-0.15333-0.48427-0.23091 0.0318q-0.10658 0.015-0.1608 0.0533-0.0542 0.0374-0.0542 0.13369 0 0.0701 0.0496 0.11499 0.0505 0.0439 0.13369 0.0439 0.11406 0 0.18791-0.0795 0.0748-0.0804 0.0748-0.20287z"/>
    <path d="m201.91 189.82q-0.0402-0.0309-0.11593-0.0309-0.0982 0-0.16454 0.0926-0.0654 0.0925-0.0654 0.25242v0.48801h-0.15332v-0.95732h0.15332v0.19726h4e-3q0.0327-0.10097 0.10003-0.15706 0.0673-0.057 0.15052-0.057 0.0598 0 0.0916 0.0131z"/>
    <path d="m202.73 190.58q-0.11032 0.0664-0.26177 0.0664-0.20474 0-0.33095-0.13276-0.12528-0.13369-0.12528-0.34591 0-0.23652 0.13556-0.37956 0.13556-0.14397 0.3618-0.14397 0.12621 0 0.22251 0.0467v0.15706q-0.10658-0.0748-0.22812-0.0748-0.14677 0-0.2412 0.10564-0.0935 0.10471-0.0935 0.2758 0 0.16828 0.0879 0.2655 0.0888 0.0972 0.23746 0.0972 0.12528 0 0.2356-0.0832z"/>
    <path d="m203.46 189.82q-0.0402-0.0309-0.11593-0.0309-0.0982 0-0.16454 0.0926-0.0654 0.0925-0.0654 0.25242v0.48801h-0.15332v-0.95732h0.15332v0.19726h4e-3q0.0327-0.10097 0.10003-0.15706 0.0673-0.057 0.15052-0.057 0.0598 0 0.0916 0.0131z"/>
    <path d="m204.31 190.62h-0.15332v-0.14958h-4e-3q-0.10004 0.17202-0.29449 0.17202-0.14304 0-0.22437-0.0757-0.0804-0.0757-0.0804-0.201 0-0.26831 0.31599-0.31225l0.28701-0.0402q0-0.24401-0.19726-0.24401-0.17296 0-0.31226 0.1178v-0.15706q0.14117-0.0897 0.32534-0.0897 0.3375 0 0.3375 0.35712zm-0.15332-0.48427-0.23092 0.0318q-0.10658 0.015-0.1608 0.0533-0.0542 0.0374-0.0542 0.13369 0 0.0701 0.0496 0.11499 0.0505 0.0439 0.13368 0.0439 0.11406 0 0.18792-0.0795 0.0748-0.0804 0.0748-0.20287z"/>
    <path d="m205.08 189.34q-0.0449-0.0252-0.1019-0.0252-0.1608 0-0.1608 0.20287v0.14772h0.22437v0.13088h-0.22437v0.82644h-0.15239v-0.82644h-0.1636v-0.13088h0.1636v-0.1552q0-0.15051 0.087-0.23746 0.0869-0.0879 0.21689-0.0879 0.0701 0 0.11125 0.0168z"/>
    <path d="m205.65 190.61q-0.0542 0.0299-0.14304 0.0299-0.25148 0-0.25148-0.28047v-0.56654h-0.16454v-0.13088h0.16454v-0.23373l0.15332-0.0495v0.28328h0.2412v0.13088h-0.2412v0.53943q0 0.0963 0.0327 0.13743 0.0327 0.0411 0.10844 0.0411 0.058 0 0.10004-0.0318z"/>
   </g>
   <g transform="scale(1.0015 .99852)" aria-label="Worms">
    <path d="m200.44 200.51-0.37863 1.3406h-0.18417l-0.27579-0.97977q-0.0178-0.0626-0.0215-0.13649h-4e-3q-6e-3 0.0692-0.0243 0.13462l-0.27766 0.98164h-0.1823l-0.39266-1.3406h0.17296l0.28514 1.0284q0.0178 0.0645 0.0224 0.13463h5e-3q5e-3 -0.0496 0.029-0.13463l0.29636-1.0284h0.15052l0.2842 1.0358q0.015 0.0533 0.0224 0.12528h4e-3q4e-3 -0.0486 0.0252-0.12902l0.27392-1.0321z"/>
    <path d="m200.94 201.87q-0.21222 0-0.33936-0.13369-0.12621-0.13462-0.12621-0.35619 0-0.2412 0.13182-0.37676t0.35619-0.13556q0.21409 0 0.33375 0.13182 0.1206 0.13182 0.1206 0.36554 0 0.22905-0.12994 0.36741-0.12902 0.13743-0.34685 0.13743zm0.0112-0.87318q-0.14771 0-0.23372 0.10097-0.086 0.10003-0.086 0.27672 0 0.17015 0.0869 0.26832 0.087 0.0982 0.23279 0.0982 0.14865 0 0.22811-0.0963 0.0804-0.0963 0.0804-0.27393 0-0.17949-0.0804-0.27672-0.0795-0.0972-0.22811-0.0972z"/>
    <path d="m202.16 201.05q-0.0402-0.0308-0.11592-0.0308-0.0982 0-0.16454 0.0926-0.0654 0.0926-0.0654 0.25241v0.48802h-0.15332v-0.95733h0.15332v0.19726h4e-3q0.0327-0.10097 0.10003-0.15706 0.0673-0.057 0.15052-0.057 0.0598 0 0.0916 0.0131z"/>
    <path d="m203.68 201.85h-0.15332v-0.54972q0-0.15893-0.0496-0.22998-0.0486-0.0711-0.16454-0.0711-0.0982 0-0.16735 0.0898-0.0682 0.0898-0.0682 0.21502v0.54598h-0.15332v-0.56842q0-0.28233-0.21783-0.28233-0.10097 0-0.16641 0.0851-0.0654 0.0841-0.0654 0.2197v0.54598h-0.15333v-0.95733h0.15333v0.15145h4e-3q0.1019-0.17389 0.29729-0.17389 0.0982 0 0.17108 0.0552 0.0729 0.0542 0.10004 0.14304 0.10657-0.1982 0.31786-0.1982 0.31599 0 0.31599 0.38985z"/>
    <path d="m203.92 201.82v-0.16454q0.12528 0.0926 0.27579 0.0926 0.20194 0 0.20194-0.13463 0-0.0383-0.0178-0.0645-0.0168-0.0271-0.0468-0.0477-0.029-0.0206-0.0692-0.0365-0.0393-0.0168-0.0851-0.0346-0.0636-0.0252-0.11219-0.0505-0.0477-0.0262-0.0804-0.058-0.0318-0.0327-0.0486-0.0739-0.0159-0.0411-0.0159-0.0963 0-0.0673 0.0309-0.11873 0.0308-0.0524 0.0823-0.0869 0.0514-0.0355 0.11686-0.0533 0.0664-0.0178 0.1365-0.0178 0.12434 0 0.2225 0.043v0.15519q-0.10564-0.0692-0.24307-0.0692-0.043 0-0.0776 0.0103-0.0346 9e-3 -0.0598 0.0271-0.0243 0.0178-0.0383 0.043-0.0131 0.0243-0.0131 0.0542 0 0.0374 0.0131 0.0626 0.014 0.0252 0.0402 0.0449 0.0262 0.0196 0.0636 0.0355t0.0851 0.0346q0.0636 0.0243 0.11405 0.0505 0.0505 0.0252 0.086 0.058 0.0355 0.0318 0.0542 0.0738 0.0196 0.0421 0.0196 0.10004 0 0.071-0.0318 0.1234-0.0309 0.0524-0.0832 0.087-0.0524 0.0346-0.1206 0.0514-0.0683 0.0168-0.14304 0.0168-0.14771 0-0.25616-0.057z"/>
   </g>
   <g transform="scale(1.0015 .99852)" aria-label="Worms: AI player">
    <path d="m200.44 211.74-0.37863 1.3406h-0.18417l-0.27579-0.97976q-0.0178-0.0626-0.0215-0.1365h-4e-3q-6e-3 0.0692-0.0243 0.13463l-0.27766 0.98163h-0.1823l-0.39266-1.3406h0.17296l0.28514 1.0284q0.0178 0.0645 0.0224 0.13463h5e-3q5e-3 -0.0495 0.029-0.13463l0.29636-1.0284h0.15052l0.2842 1.0358q0.015 0.0533 0.0224 0.12528h4e-3q4e-3 -0.0486 0.0252-0.12902l0.27392-1.0321z"/>
    <path d="m200.94 213.1q-0.21222 0-0.33936-0.13368-0.12621-0.13463-0.12621-0.3562 0-0.2412 0.13182-0.37676 0.13182-0.13555 0.35619-0.13555 0.21409 0 0.33375 0.13181 0.1206 0.13182 0.1206 0.36555 0 0.22904-0.12994 0.36741-0.12902 0.13742-0.34685 0.13742zm0.0112-0.87318q-0.14771 0-0.23372 0.10097-0.086 0.10003-0.086 0.27672 0 0.17015 0.0869 0.26832 0.087 0.0982 0.23279 0.0982 0.14865 0 0.22811-0.0963 0.0804-0.0963 0.0804-0.27393 0-0.17949-0.0804-0.27672-0.0795-0.0972-0.22811-0.0972z"/>
    <path d="m202.16 212.28q-0.0402-0.0309-0.11592-0.0309-0.0982 0-0.16454 0.0926-0.0654 0.0925-0.0654 0.25242v0.48801h-0.15332v-0.95733h0.15332v0.19726h4e-3q0.0327-0.10096 0.10003-0.15706 0.0673-0.057 0.15052-0.057 0.0598 0 0.0916 0.0131z"/>
    <path d="m203.68 213.08h-0.15332v-0.54972q0-0.15893-0.0496-0.22998-0.0486-0.071-0.16454-0.071-0.0982 0-0.16735 0.0897-0.0682 0.0898-0.0682 0.21502v0.54598h-0.15332v-0.56841q0-0.28234-0.21783-0.28234-0.10097 0-0.16641 0.0851-0.0654 0.0841-0.0654 0.2197v0.54598h-0.15333v-0.95733h0.15333v0.15145h4e-3q0.1019-0.17388 0.29729-0.17388 0.0982 0 0.17108 0.0551 0.0729 0.0542 0.10004 0.14304 0.10657-0.19819 0.31786-0.19819 0.31599 0 0.31599 0.38984z"/>
    <path d="m203.92 213.05v-0.16454q0.12528 0.0925 0.27579 0.0925 0.20194 0 0.20194-0.13462 0-0.0383-0.0178-0.0645-0.0168-0.0271-0.0468-0.0477-0.029-0.0206-0.0692-0.0365-0.0393-0.0168-0.0851-0.0346-0.0636-0.0252-0.11219-0.0505-0.0477-0.0262-0.0804-0.058-0.0318-0.0327-0.0486-0.0738-0.0159-0.0411-0.0159-0.0963 0-0.0673 0.0309-0.11873 0.0308-0.0523 0.0823-0.0869 0.0514-0.0355 0.11686-0.0533 0.0664-0.0178 0.1365-0.0178 0.12434 0 0.2225 0.043v0.15519q-0.10564-0.0692-0.24307-0.0692-0.043 0-0.0776 0.0103-0.0346 9e-3 -0.0598 0.0271-0.0243 0.0178-0.0383 0.043-0.0131 0.0243-0.0131 0.0542 0 0.0374 0.0131 0.0626 0.014 0.0252 0.0402 0.0449 0.0262 0.0196 0.0636 0.0355t0.0851 0.0346q0.0636 0.0243 0.11405 0.0505 0.0505 0.0252 0.086 0.058 0.0355 0.0318 0.0542 0.0739 0.0196 0.0421 0.0196 0.10003 0 0.0711-0.0318 0.1234-0.0309 0.0524-0.0832 0.087-0.0524 0.0346-0.1206 0.0514-0.0683 0.0168-0.14304 0.0168-0.14771 0-0.25616-0.057z"/>
    <path d="m204.84 212.31q-0.043 0-0.0738-0.0309-0.0299-0.0308-0.0299-0.0739 0-0.043 0.0299-0.0729 0.0308-0.0299 0.0738-0.0299 0.0439 0 0.0748 0.0299 0.0308 0.0299 0.0308 0.0729t-0.0308 0.0739q-0.0309 0.0309-0.0748 0.0309zm0 0.79091q-0.043 0-0.0738-0.0308-0.0299-0.0309-0.0299-0.0739t0.0299-0.0739q0.0308-0.0318 0.0738-0.0318 0.0439 0 0.0748 0.0318 0.0308 0.0309 0.0308 0.0739t-0.0308 0.0739q-0.0309 0.0308-0.0748 0.0308z"/>
    <path d="m206.78 213.08h-0.17388l-0.14211-0.37583h-0.56841l-0.13369 0.37583h-0.17482l0.51419-1.3406h0.16267zm-0.36741-0.517-0.21035-0.57121q-0.0103-0.0281-0.0206-0.0898h-4e-3q-9e-3 0.057-0.0215 0.0898l-0.20847 0.57121z"/>
    <path d="m207.14 213.08h-0.15706v-1.3406h0.15706z"/>
    <path d="m208.15 212.94h-4e-3v0.5787h-0.15332v-1.3977h0.15332v0.16828h4e-3q0.11312-0.19071 0.33095-0.19071 0.18511 0 0.28888 0.12901 0.10377 0.12808 0.10377 0.34404 0 0.24026-0.11686 0.38517-0.11686 0.14397-0.31973 0.14397-0.18604 0-0.28701-0.1608zm-4e-3 -0.3861v0.13368q0 0.11873 0.0767 0.20194 0.0776 0.0823 0.19633 0.0823 0.13929 0 0.21783-0.10658 0.0795-0.10657 0.0795-0.29636 0-0.15986-0.0739-0.25055-0.0739-0.0907-0.20006-0.0907-0.13369 0-0.21503 0.0935-0.0813 0.0925-0.0813 0.23279z"/>
    <path d="m209.27 213.08h-0.15332v-1.4173h0.15332z"/>
    <path d="m210.27 213.08h-0.15332v-0.14959h-4e-3q-0.10004 0.17202-0.29449 0.17202-0.14304 0-0.22438-0.0757-0.0804-0.0757-0.0804-0.201 0-0.26831 0.316-0.31225l0.28701-0.0402q0-0.24401-0.19727-0.24401-0.17295 0-0.31225 0.1178v-0.15707q0.14117-0.0897 0.32534-0.0897 0.3375 0 0.3375 0.35712zm-0.15332-0.48427-0.23092 0.0318q-0.10658 0.015-0.1608 0.0533-0.0542 0.0374-0.0542 0.13369 0 0.0701 0.0496 0.11499 0.0505 0.0439 0.13369 0.0439 0.11406 0 0.18791-0.0795 0.0748-0.0804 0.0748-0.20287z"/>
    <path d="m211.32 212.12-0.44033 1.1106q-0.1178 0.29729-0.33095 0.29729-0.0598 0-0.10003-0.0121v-0.13743q0.0495 0.0168 0.0907 0.0168 0.11593 0 0.17389-0.13836l0.0767-0.18137-0.37396-0.95546h0.17015l0.25897 0.73669q5e-3 0.014 0.0196 0.0729h6e-3q5e-3 -0.0224 0.0187-0.071l0.27205-0.73856z"/>
    <path d="m212.25 212.64h-0.67593q4e-3 0.15986 0.086 0.24681 0.0823 0.0869 0.22625 0.0869 0.16173 0 0.29729-0.10658v0.14398q-0.12621 0.0916-0.33375 0.0916-0.20288 0-0.3188-0.12995-0.11593-0.13088-0.11593-0.36741 0-0.22343 0.12621-0.36367 0.12715-0.14116 0.31506-0.14116t0.29075 0.12153q0.10284 0.12154 0.10284 0.33749zm-0.15706-0.12995q-9.4e-4 -0.13276-0.0645-0.20661-0.0626-0.0739-0.17483-0.0739-0.10844 0-0.18417 0.0776-0.0757 0.0776-0.0935 0.20287z"/>
    <path d="m212.98 212.28q-0.0402-0.0309-0.11592-0.0309-0.0982 0-0.16454 0.0926-0.0654 0.0925-0.0654 0.25242v0.48801h-0.15332v-0.95733h0.15332v0.19726h4e-3q0.0327-0.10096 0.10004-0.15706 0.0673-0.057 0.15051-0.057 0.0598 0 0.0916 0.0131z"/>
   </g>
   <g transform="scale(1.0015 .99852)" aria-label="Age of Empires">
    <path d="m199.88 224.31h-0.17389l-0.1421-0.37582h-0.56841l-0.13369 0.37582h-0.17482l0.51418-1.3406h0.16267zm-0.36741-0.51699-0.21035-0.57121q-0.0103-0.0281-0.0206-0.0898h-4e-3q-9e-3 0.057-0.0215 0.0898l-0.20848 0.57121z"/>
    <path d="m200.88 224.23q0 0.52728-0.50484 0.52728-0.17763 0-0.31038-0.0673v-0.15332q0.16173 0.0897 0.30851 0.0897 0.35339 0 0.35339-0.37582v-0.10471h-4e-3q-0.10938 0.18324-0.32908 0.18324-0.17856 0-0.28795-0.12714-0.10844-0.12808-0.10844-0.34311 0-0.244 0.11686-0.38798 0.11779-0.14397 0.3216-0.14397 0.19352 0 0.28701 0.15519h4e-3v-0.13275h0.15332zm-0.15332-0.35619v-0.14117q0-0.11405-0.0776-0.19539-0.0767-0.0813-0.19165-0.0813-0.1421 0-0.2225 0.10377-0.0804 0.10284-0.0804 0.28888 0 0.15986 0.0767 0.25616 0.0776 0.0954 0.20474 0.0954 0.12901 0 0.20941-0.0916 0.0813-0.0916 0.0813-0.23466z"/>
    <path d="m201.96 223.87h-0.67592q4e-3 0.15987 0.086 0.24681 0.0823 0.087 0.22624 0.087 0.16174 0 0.2973-0.10658v0.14397q-0.12621 0.0916-0.33376 0.0916-0.20287 0-0.31879-0.12995-0.11593-0.13088-0.11593-0.36741 0-0.22344 0.12621-0.36367 0.12714-0.14117 0.31506-0.14117 0.18791 0 0.29075 0.12154 0.10283 0.12153 0.10283 0.33749zm-0.15706-0.12995q-9.3e-4 -0.13275-0.0645-0.20661-0.0626-0.0738-0.17483-0.0738-0.10844 0-0.18417 0.0776-0.0757 0.0776-0.0935 0.20287z"/>
    <path d="m203.11 224.33q-0.21222 0-0.33936-0.13369-0.12621-0.13462-0.12621-0.35619 0-0.2412 0.13181-0.37676 0.13182-0.13556 0.3562-0.13556 0.21409 0 0.33375 0.13182 0.1206 0.13182 0.1206 0.36554 0 0.22905-0.12995 0.36741-0.12901 0.13743-0.34684 0.13743zm0.0112-0.87318q-0.14771 0-0.23372 0.10096-0.086 0.10004-0.086 0.27673 0 0.17015 0.0869 0.26831 0.087 0.0982 0.23279 0.0982 0.14864 0 0.22811-0.0963 0.0804-0.0963 0.0804-0.27392 0-0.1795-0.0804-0.27673-0.0795-0.0972-0.22811-0.0972z"/>
    <path d="m204.31 223.03q-0.0449-0.0252-0.1019-0.0252-0.1608 0-0.1608 0.20287v0.14771h0.22437v0.13088h-0.22437v0.82644h-0.15239v-0.82644h-0.1636v-0.13088h0.1636v-0.15519q0-0.15052 0.087-0.23746 0.0869-0.0879 0.21689-0.0879 0.0701 0 0.11125 0.0168z"/>
    <path d="m205.69 224.31h-0.71052v-1.3406h0.6806v0.1421h-0.52354v0.44594h0.48428v0.14117h-0.48428v0.46931h0.55346z"/>
    <path d="m207.29 224.31h-0.15332v-0.54971q0-0.15893-0.0496-0.22998-0.0486-0.0711-0.16454-0.0711-0.0982 0-0.16734 0.0898-0.0682 0.0897-0.0682 0.21502v0.54597h-0.15332v-0.56841q0-0.28233-0.21783-0.28233-0.10097 0-0.16641 0.0851-0.0654 0.0841-0.0654 0.2197v0.54597h-0.15332v-0.95732h0.15332v0.15145h4e-3q0.1019-0.17389 0.29729-0.17389 0.0982 0 0.17109 0.0552 0.0729 0.0542 0.10003 0.14304 0.10658-0.1982 0.31786-0.1982 0.31599 0 0.31599 0.38985z"/>
    <path d="m207.73 224.17h-4e-3v0.5787h-0.15332v-1.3977h0.15332v0.16828h4e-3q0.11312-0.19072 0.33095-0.19072 0.18511 0 0.28888 0.12902 0.10377 0.12808 0.10377 0.34403 0 0.24027-0.11686 0.38518-0.11686 0.14397-0.31973 0.14397-0.18604 0-0.28701-0.1608zm-4e-3 -0.38611v0.13369q0 0.11873 0.0767 0.20194 0.0776 0.0823 0.19633 0.0823 0.1393 0 0.21783-0.10658 0.0795-0.10658 0.0795-0.29636 0-0.15987-0.0739-0.25055-0.0738-0.0907-0.20006-0.0907-0.13369 0-0.21502 0.0935-0.0813 0.0925-0.0813 0.23278z"/>
    <path d="m208.78 223.11q-0.0411 0-0.0701-0.0281-0.029-0.028-0.029-0.071t0.029-0.0711q0.029-0.029 0.0701-0.029 0.0421 0 0.071 0.029 0.0299 0.0281 0.0299 0.0711 0 0.0411-0.0299 0.0701-0.029 0.029-0.071 0.029zm0.0748 1.2004h-0.15332v-0.95732h0.15332z"/>
    <path d="m209.66 223.51q-0.0402-0.0308-0.11592-0.0308-0.0982 0-0.16454 0.0925-0.0654 0.0926-0.0654 0.25242v0.48801h-0.15332v-0.95732h0.15332v0.19726h4e-3q0.0327-0.10097 0.10003-0.15706 0.0673-0.057 0.15052-0.057 0.0598 0 0.0916 0.0131z"/>
    <path d="m210.6 223.87h-0.67593q4e-3 0.15987 0.086 0.24681 0.0823 0.087 0.22625 0.087 0.16173 0 0.29729-0.10658v0.14397q-0.12621 0.0916-0.33375 0.0916-0.20287 0-0.3188-0.12995-0.11593-0.13088-0.11593-0.36741 0-0.22344 0.12621-0.36367 0.12715-0.14117 0.31506-0.14117t0.29075 0.12154q0.10284 0.12153 0.10284 0.33749zm-0.15706-0.12995q-9.4e-4 -0.13275-0.0645-0.20661-0.0626-0.0738-0.17482-0.0738-0.10845 0-0.18418 0.0776-0.0757 0.0776-0.0935 0.20287z"/>
    <path d="m210.77 224.28v-0.16454q0.12528 0.0926 0.27579 0.0926 0.20194 0 0.20194-0.13463 0-0.0383-0.0178-0.0645-0.0168-0.0271-0.0467-0.0477-0.029-0.0206-0.0692-0.0365-0.0393-0.0168-0.0851-0.0346-0.0636-0.0252-0.11218-0.0505-0.0477-0.0262-0.0804-0.058-0.0318-0.0327-0.0486-0.0739-0.0159-0.0411-0.0159-0.0963 0-0.0673 0.0309-0.11873 0.0308-0.0524 0.0823-0.087 0.0514-0.0355 0.11686-0.0533 0.0664-0.0178 0.1365-0.0178 0.12434 0 0.2225 0.043v0.15519q-0.10564-0.0692-0.24307-0.0692-0.043 0-0.0776 0.0103-0.0346 9e-3 -0.0598 0.0271-0.0243 0.0178-0.0383 0.043-0.0131 0.0243-0.0131 0.0542 0 0.0374 0.0131 0.0626 0.014 0.0252 0.0402 0.0449 0.0262 0.0196 0.0636 0.0355t0.0851 0.0346q0.0636 0.0243 0.11405 0.0505 0.0505 0.0252 0.086 0.058 0.0355 0.0318 0.0542 0.0738 0.0196 0.0421 0.0196 0.10003 0 0.0711-0.0318 0.12341-0.0309 0.0524-0.0832 0.0869-0.0524 0.0346-0.1206 0.0514-0.0683 0.0168-0.14304 0.0168-0.14771 0-0.25616-0.057z"/>
   </g>
  </g>
  <g fill="none" stroke="#ffef29" stroke-dasharray="0.26458335, 0.5291667" stroke-width=".26458">
   <path d="m197.72 188.25h82.579"/>
   <path d="m197.72 199.47h82.579"/>
   <path d="m197.72 210.68h82.579"/>
   <path d="m197.72 221.89h82.579"/>
  </g>
  <g>
   <path d="m199.26 198.46s5.5503-0.12014 8.3259-0.14417c2.607-0.0226 5.2145 0.0372 7.8213 0 1.2619-0.018 31.116 0.10493 32.36-0.10813 1.3557-0.2322 2.6723-0.70178 3.9287-1.2615 1.4606-0.65074 2.8102-1.5343 4.1449-2.4149 0.87448-0.57697 1.621-1.3414 2.523-1.8742 0.52307-0.309 1.075-0.58604 1.658-0.7569 0.3261-0.0956 0.71416-0.31278 1.0092-0.14418 0.19178 0.10959 0.17022 0.40767 0.2523 0.61273 0.0862 0.21542 0.20952 0.42072 0.25231 0.64878 0.11519 0.61404-0.0616 1.2525 0 1.8742 0.0845 0.85349 0.23407 1.7091 0.5046 2.523 0.0881 0.26518 0.12414 0.6077 0.36043 0.7569 0.25397 0.16036 0.60082-8e-3 0.90107 0 2.4776 0.0661 7.4249 0.39648 7.4249 0.39648" fill="#103f13" stroke="#6fe978" stroke-width=".052917"/>
   <path d="m266.85 195.59 0.50973-0.49061" fill="#e9e56f" stroke="#e9e56f" stroke-width=".10195px"/>
   <rect x="265.59" y="196.69" width="3.3005" height="1.7713" fill="#282828" stroke="#a7b1a8" stroke-width=".052917"/>
  </g>
  <g transform="matrix(.86242 0 0 .86242 -343.24 -133.92)" fill="none" stroke="#6fa1e9" stroke-width=".61358">
   <path d="m705 382.36v-2h2"/>
   <path d="m710.8 382.36v-2h-2"/>
   <path d="m705 384.16v2h2"/>
   <path d="m710.8 384.16v2h-2"/>
  </g>
  <g stroke-width=".052917">
   <path d="m199.26 209.37s5.5503-0.12015 8.3259-0.14418c2.607-0.0226 5.2145 0.0372 7.8213 0 1.2619-0.0181 31.116 0.10493 32.36-0.10813 1.3557-0.2322 2.6723-0.70178 3.9287-1.2615 1.4606-0.65074 2.8102-1.5343 4.1449-2.4149 0.87448-0.57697 1.621-1.3414 2.523-1.8742 0.52307-0.309 1.075-0.58604 1.658-0.7569 0.3261-0.0956 0.71416-0.31278 1.0092-0.14418 0.19178 0.10959 0.17022 0.40767 0.2523 0.61273 0.0862 0.21542 0.20952 0.42072 0.25231 0.64878 0.11519 0.61404-0.0616 1.2525 0 1.8742 0.0845 0.85349 0.23407 1.7091 0.5046 2.523 0.0881 0.26518 0.12414 0.60771 0.36043 0.7569 0.25397 0.16036 0.60082-8e-3 0.90107 0 2.4776 0.0661 7.4249 0.39648 7.4249 0.39648" fill="#103f13" stroke="#6fe978"/>
   <rect transform="rotate(-20.487)" x="113.76" y="264.92" width="3.775" height=".79473" fill="#282828" stroke="#acacac"/>
   <path d="m199.26 220.55s5.5503-0.12014 8.3259-0.14417c2.607-0.0226 5.2145 0.0372 7.8213 0 1.2619-0.018 31.116 0.10492 32.36-0.10813 1.3557-0.23221 2.6723-0.70178 3.9287-1.2615 1.4606-0.65074 2.8102-0.74053 4.1449-1.6211 0.87448-0.57697 1.621-0.81219 2.523-1.3451 0.52307-0.309 1.075-0.58603 1.658-0.75689 0.3261-0.0956 0.71416-0.31278 1.0092-0.14419 0.19178 0.1096 0.17022 0.40767 0.2523 0.61274 0.0862 0.21541 0.20952 0.42071 0.25231 0.64877 0.11519 0.61404-0.0616 0.72338 0 1.3451 0.0845 0.85348 0.23407 0.91538 0.5046 1.7293 0.0881 0.26518 0.12414 0.6077 0.36043 0.7569 0.25397 0.16036 0.60082-8e-3 0.90107 0 2.4776 0.0661 7.4249 0.39647 7.4249 0.39647" fill="#103f13" stroke="#6fe978"/>
   <path d="m199.26 210.98s5.5503 0.12015 8.3259 0.14418c2.607 0.0226 5.2145-0.0372 7.8213 0 1.2619 0.018 36.407-0.10493 37.651 0.10813 2.1672 0.96814 1.4859 0.22177 2.782 1.0306 0.87448 0.57697 1.621 0.28303 2.523 0.8159 0.9404 0.43763 2.5738 1.6437 2.9195 0.28835 0.0862-0.21542 0.20952-0.42072 0.25231-0.64878 0.0708-0.57857 4e-3 -0.776 0.86503-1.45 0.25397-0.16036 0.60082 8e-3 0.90107 0 2.4776-0.0661 7.4249-0.39648 7.4249-0.39648" fill="#103f13" stroke="#6fe978"/>
  </g>
  <path d="m203.32 218.92s69.189-7.5737 74.976-3.5057c3.0305 2.13-8.4336 3.7042-8.4336 3.7042" fill="none" stroke="#d54747" stroke-width=".10186"/>
  <path d="m268.57 209.09-0.13447 0.11985-0.30695 0.0848-0.0818-0.114-0.14324-0.15202-0.19293 0.13155-0.35956 0.12278-0.33618-0.12278-0.13447-0.24555-9e-3 -0.33618-0.0204-0.17539-0.14616-0.16371v-0.21339l-0.32741-0.74836 0.0818-0.30987 0.26602-0.22509 0.52326-0.0935 0.53204 0.23387 0.12277 0.59342-0.1637 0.5028 0.0204 0.18416-0.0409 0.11109h0.27479l0.17539 0.13447 0.10232 0.26601 0.0409 0.15201 0.14324 0.0526z" fill="#3e102e"/>
  <path d="m267.21 209.33c-0.16078-0.0222-0.29302-0.13153-0.35915-0.29683-0.0351-0.0878-0.0407-0.12049-0.0408-0.24194-9e-5 -0.0624 2e-3 -0.1599 5e-3 -0.21675l6e-3 -0.10338-0.0309-0.0161c-0.0421-0.0219-0.10152-0.0879-0.12645-0.14051-0.0188-0.0396-0.0206-0.0495-0.0206-0.11017 1e-5 -0.0553 3e-3 -0.0716 0.0145-0.0953l0.0145-0.0286-0.0319-0.0421c-0.0774-0.1023-0.19661-0.32754-0.2509-0.47422-0.0319-0.0861-0.0603-0.19981-0.0662-0.26464-0.0107-0.11895 0.0377-0.27984 0.12149-0.40321 0.0599-0.0882 0.17528-0.18267 0.28328-0.23189 0.12469-0.0568 0.21631-0.0735 0.40529-0.0736 0.15758 0 0.2077 7e-3 0.33012 0.0439 0.25454 0.0776 0.44503 0.26889 0.49387 0.49598 0.0156 0.0725 0.0157 0.2348 2.1e-4 0.33346-0.023 0.14627-0.0806 0.34031-0.15935 0.53638-0.0328 0.0816-0.0354 0.0919-0.0296 0.11671 4e-3 0.0149 5e-3 0.0459 3e-3 0.0689l-4e-3 0.0417 0.0181-0.0133c0.0393-0.0289 0.15918-0.0337 0.24172-0.01 0.0894 0.0261 0.16665 0.1041 0.23224 0.23427 0.0316 0.0627 0.0516 0.14128 0.0646 0.25373l0.0118 0.10171h0.0482c0.0699 0 0.11262 0.0157 0.15348 0.0565 0.0407 0.0406 0.0614 0.0814 0.0712 0.14056 0.0141 0.0853-0.0148 0.19132-0.0669 0.2454-0.0661 0.0686-0.20992 0.10404-0.36943 0.091-0.11605-0.01-0.16799-0.0229-0.19976-0.0516-0.0272-0.0245-0.0654-0.0958-0.0789-0.14719l-8e-3 -0.0288-0.0488 0.0464c-0.11309 0.10743-0.2281 0.16144-0.38593 0.18123-0.0522 6e-3 -0.19985 8e-3 -0.24143 2e-3zm1.1604-0.13627c0.0413-0.0105 0.0791-0.0354 0.10051-0.0664 0.016-0.0232 0.0195-0.0349 0.0193-0.0654-5.3e-4 -0.0989-0.0901-0.16925-0.20066-0.15792l-0.0419 4e-3 -4e-3 -0.0252c-0.0341-0.20904-0.0744-0.32839-0.14884-0.44078-0.0289-0.0436-0.0846-0.0826-0.1354-0.0948-0.0486-0.0117-0.13425-5e-3 -0.17769 0.0136-0.0268 0.0115-0.049 0.0304-0.096 0.0813-0.0658 0.0714-0.0857 0.0855-0.12088 0.0855-0.0252 0-0.0413-0.0138-0.0481-0.0412-7e-3 -0.028 1e-3 -0.0437 0.0532-0.0991 0.0266-0.0284 0.055-0.0656 0.0633-0.0825 0.0209-0.0432 0.0247-0.0998 0.0107-0.15764-0.0143-0.0587-0.0133-0.0645 0.0413-0.25315 0.10584-0.36557 0.11795-0.42419 0.11779-0.57022-9e-5 -0.0895-3e-3 -0.11572-0.0152-0.16263-0.0242-0.0898-0.0506-0.13707-0.11099-0.19806-0.0617-0.0623-0.0921-0.0842-0.17408-0.125-0.12411-0.0618-0.22322-0.0845-0.36866-0.0845-0.226 7e-5 -0.41649 0.0654-0.5393 0.18505-0.0316 0.0308-0.0975 0.11478-0.0934 0.11896 1e-3 1e-3 0.0154-1e-3 0.0318-5e-3 0.0611-0.0142 0.16906 3e-3 0.20132 0.0323 0.0176 0.016 0.0151 0.0452-5e-3 0.0612-0.0497 0.0391-0.20308 0.0331-0.25046-0.01-0.0104-9e-3 -0.0118-8e-3 -0.0186 0.0239-0.026 0.12119 0.0126 0.3086 0.11061 0.53699 0.0683 0.15909 0.14155 0.28692 0.20228 0.35279l0.0271 0.0294-0.0166 0.0179c-0.0545 0.0588-0.0327 0.1565 0.0466 0.20899 0.0523 0.0347 0.0907 0.0445 0.17293 0.0441 0.0825 0 0.10928-7e-3 0.1634-0.0417 0.0779-0.0497 0.12722-0.0608 0.15339-0.0347 0.0166 0.0166 0.0168 0.0418 5.3e-4 0.0775-0.0202 0.0445-0.0812 0.0821-0.19399 0.11971-0.0461 0.0154-0.0688 0.0189-0.12141 0.0192h-0.0647l-5e-3 0.0367c-3e-3 0.0202-5e-3 0.1012-5e-3 0.18006-2e-4 0.16477 7e-3 0.20127 0.0596 0.31029 0.0484 0.1 0.11241 0.15305 0.20948 0.17362 0.0598 0.0127 0.21805 0.0124 0.28598 0 0.19134-0.0363 0.29532-0.11719 0.40212-0.31283 0.0238-0.0436 0.0298-0.0506 0.0341-0.04 3e-3 7e-3 0.0188 0.0642 0.0353 0.12701 0.0165 0.0628 0.0358 0.12753 0.0427 0.14381 0.0221 0.0515 0.067 0.0776 0.15786 0.0917 0.0457 7e-3 0.17381 3e-3 0.21317-7e-3zm-1.6872-1.3536c-0.0717-0.0794-0.12414-0.2703-0.094-0.34237 0.0114-0.0273 0.0278-0.037 0.0625-0.037 0.0817 0 0.1214 0.0985 0.11306 0.28032-6e-3 0.12748-0.0297 0.15643-0.0815 0.0991zm0.35205-7e-3c-0.033-0.0363-0.064-0.14959-0.0634-0.23175 2.6e-4 -0.0568 8e-3 -0.0857 0.0295-0.11756 0.0218-0.0319 0.0465-0.0406 0.0808-0.0287 0.0324 0.0113 0.0535 0.0395 0.0688 0.0923 0.0199 0.0685-2e-3 0.23082-0.0385 0.28177-0.0176 0.0247-0.0565 0.0267-0.0772 4e-3zm-0.13873-0.69812c-0.0344-8e-3 -0.05-0.0199-0.05-0.037 0-0.0501 0.15733-0.10061 0.33734-0.10831 0.10189-4e-3 0.13179 0 0.15359 0.0216 0.0337 0.0337 0.0113 0.0742-0.0512 0.0928-0.0874 0.026-0.33045 0.0453-0.38969 0.031z" fill="#e96fe3" stroke-width=".10195"/>
 </g>
</svg>
