<svg width="61.857mm" height="42.078mm" version="1.1" viewBox="0 0 61.857 42.078" xmlns="http://www.w3.org/2000/svg">
 <g transform="translate(-167.78 -140.07)">
  <g fill="#e9e56f" aria-label="overlap">
   <path d="m178.39 141.47h34.288v34.311h-34.288z" fill="#0d203b" fill-opacity=".38431" opacity=".503" style="paint-order:normal"/>
   <g fill="#454545">
    <rect x="179.66" y="141.64" width=".28222" height=".28222"/>
    <rect x="180.79" y="141.64" width=".28222" height=".28222"/>
    <rect x="181.92" y="141.64" width=".28222" height=".28222"/>
    <rect x="183.05" y="141.64" width=".28222" height=".28222"/>
    <rect x="184.18" y="141.64" width=".28222" height=".28222"/>
    <rect x="178.53" y="142.77" width=".28222" height=".28222"/>
    <rect x="178.53" y="143.9" width=".28222" height=".28222"/>
    <rect x="178.53" y="145.02" width=".28222" height=".28222"/>
    <rect x="178.53" y="146.15" width=".28222" height=".28222"/>
    <rect x="178.53" y="147.28" width=".28222" height=".28222"/>
    <rect x="179.66" y="147.28" width=".28222" height=".28222"/>
    <rect x="180.79" y="147.28" width=".28222" height=".28222"/>
    <rect x="181.92" y="147.28" width=".28222" height=".28222"/>
    <rect x="183.05" y="147.28" width=".28222" height=".28222"/>
    <rect x="184.18" y="147.28" width=".28222" height=".28222"/>
    <rect x="184.18" y="146.15" width=".28222" height=".28222"/>
    <rect x="184.18" y="145.02" width=".28222" height=".28222"/>
    <rect x="184.18" y="143.9" width=".28222" height=".28222"/>
    <rect x="184.18" y="142.77" width=".28222" height=".28222"/>
    <rect x="184.18" y="141.92" width=".28222" height=".28222"/>
   </g>
   <rect x="178.82" y="147.28" width=".28222" height=".28222" fill="#6fa8e9"/>
   <g fill="#454545">
    <rect x="178.82" y="152.93" width=".28222" height=".28222"/>
    <rect x="178.82" y="158.57" width=".28222" height=".28222"/>
    <rect x="178.82" y="164.22" width=".28222" height=".28222"/>
    <rect x="178.82" y="169.86" width=".28222" height=".28222"/>
    <rect x="178.25" y="141.64" width=".28222" height="34.149"/>
    <rect x="189.82" y="141.92" width=".28222" height=".28222"/>
    <rect x="195.47" y="141.92" width=".28222" height=".28222"/>
    <rect x="201.11" y="141.92" width=".28222" height=".28222"/>
    <rect x="206.76" y="141.92" width=".28222" height=".28222"/>
    <rect x="212.4" y="141.92" width=".28222" height=".28222"/>
    <g transform="matrix(.28222 0 0 .28222 157.37 73.237)">
     <rect x="95" y="242.36" width="1" height="1"/>
     <rect x="99" y="242.36" width="1" height="1"/>
     <rect x="103" y="242.36" width="1" height="1"/>
     <rect x="107" y="242.36" width="1" height="1"/>
     <rect x="111" y="242.36" width="1" height="1"/>
     <rect x="115" y="242.36" width="1" height="1"/>
     <rect x="95" y="246.36" width="1" height="1"/>
     <rect x="95" y="250.36" width="1" height="1"/>
     <rect x="95" y="254.36" width="1" height="1"/>
     <rect x="95" y="258.36" width="1" height="1"/>
     <rect x="95" y="262.36" width="1" height="1"/>
     <rect x="99" y="262.36" width="1" height="1"/>
     <rect x="103" y="262.36" width="1" height="1"/>
     <rect x="107" y="262.36" width="1" height="1"/>
     <rect x="111" y="262.36" width="1" height="1"/>
     <rect x="115" y="262.36" width="1" height="1"/>
     <rect x="115" y="258.36" width="1" height="1"/>
     <rect x="115" y="254.36" width="1" height="1"/>
     <rect x="115" y="250.36" width="1" height="1"/>
     <rect x="115" y="246.36" width="1" height="1"/>
    </g>
    <g transform="matrix(.28222 0 0 .28222 163.01 73.237)">
     <rect x="95" y="242.36" width="1" height="1"/>
     <rect x="99" y="242.36" width="1" height="1"/>
     <rect x="103" y="242.36" width="1" height="1"/>
     <rect x="107" y="242.36" width="1" height="1"/>
     <rect x="111" y="242.36" width="1" height="1"/>
     <rect x="115" y="242.36" width="1" height="1"/>
     <rect x="95" y="246.36" width="1" height="1"/>
     <rect x="95" y="250.36" width="1" height="1"/>
     <rect x="95" y="254.36" width="1" height="1"/>
     <rect x="95" y="258.36" width="1" height="1"/>
     <rect x="95" y="262.36" width="1" height="1"/>
     <rect x="99" y="262.36" width="1" height="1"/>
     <rect x="103" y="262.36" width="1" height="1"/>
     <rect x="107" y="262.36" width="1" height="1"/>
     <rect x="111" y="262.36" width="1" height="1"/>
     <rect x="115" y="262.36" width="1" height="1"/>
     <rect x="115" y="258.36" width="1" height="1"/>
     <rect x="115" y="254.36" width="1" height="1"/>
     <rect x="115" y="250.36" width="1" height="1"/>
     <rect x="115" y="246.36" width="1" height="1"/>
    </g>
    <rect x="195.47" y="141.64" width=".28222" height=".28222"/>
    <rect x="196.6" y="141.64" width=".28222" height=".28222"/>
    <rect x="197.72" y="141.64" width=".28222" height=".28222"/>
    <rect x="198.85" y="141.64" width=".28222" height=".28222"/>
    <rect x="199.98" y="141.64" width=".28222" height=".28222"/>
    <rect x="201.11" y="141.64" width=".28222" height=".28222"/>
    <rect x="195.47" y="142.77" width=".28222" height=".28222"/>
    <rect x="195.47" y="143.9" width=".28222" height=".28222"/>
    <rect x="195.47" y="145.02" width=".28222" height=".28222"/>
    <rect x="195.47" y="146.15" width=".28222" height=".28222"/>
   </g>
   <g fill="#6fa8e9">
    <rect x="195.47" y="147.28" width=".28222" height=".28222"/>
    <rect x="196.6" y="147.28" width=".28222" height=".28222"/>
    <rect x="197.72" y="147.28" width=".28222" height=".28222"/>
    <rect x="198.85" y="147.28" width=".28222" height=".28222"/>
    <rect x="199.98" y="147.28" width=".28222" height=".28222"/>
    <rect x="201.11" y="147.28" width=".28222" height=".28222"/>
   </g>
   <g fill="#454545">
    <rect x="201.11" y="146.15" width=".28222" height=".28222"/>
    <rect x="201.11" y="145.02" width=".28222" height=".28222"/>
    <rect x="201.11" y="143.9" width=".28222" height=".28222"/>
    <rect x="201.11" y="142.77" width=".28222" height=".28222"/>
    <g transform="matrix(.28222 0 0 .28222 174.3 73.237)">
     <rect x="95" y="242.36" width="1" height="1"/>
     <rect x="99" y="242.36" width="1" height="1"/>
     <rect x="103" y="242.36" width="1" height="1"/>
     <rect x="107" y="242.36" width="1" height="1"/>
     <rect x="111" y="242.36" width="1" height="1"/>
     <rect x="115" y="242.36" width="1" height="1"/>
     <rect x="95" y="246.36" width="1" height="1"/>
     <rect x="95" y="250.36" width="1" height="1"/>
     <rect x="95" y="254.36" width="1" height="1"/>
     <rect x="95" y="258.36" width="1" height="1"/>
     <rect x="95" y="262.36" width="1" height="1"/>
     <rect x="99" y="262.36" width="1" height="1"/>
     <rect x="103" y="262.36" width="1" height="1"/>
     <rect x="107" y="262.36" width="1" height="1"/>
     <rect x="111" y="262.36" width="1" height="1"/>
     <rect x="115" y="262.36" width="1" height="1"/>
     <rect x="115" y="258.36" width="1" height="1"/>
     <rect x="115" y="254.36" width="1" height="1"/>
     <rect x="115" y="250.36" width="1" height="1"/>
     <rect x="115" y="246.36" width="1" height="1"/>
    </g>
   </g>
   <g fill="#6fa8e9">
    <rect x="178.53" y="147.28" width=".28222" height=".28222"/>
    <rect x="179.66" y="147.28" width=".28222" height=".28222"/>
    <rect x="180.79" y="147.28" width=".28222" height=".28222"/>
    <rect x="181.92" y="147.28" width=".28222" height=".28222"/>
    <rect x="183.05" y="147.28" width=".28222" height=".28222"/>
    <rect x="184.18" y="147.28" width=".28222" height=".28222"/>
   </g>
   <g fill="#454545">
    <rect x="178.53" y="148.41" width=".28222" height=".28222"/>
    <rect x="178.53" y="149.54" width=".28222" height=".28222"/>
    <rect x="178.53" y="150.67" width=".28222" height=".28222"/>
    <rect x="178.53" y="151.8" width=".28222" height=".28222"/>
    <rect x="178.53" y="152.93" width=".28222" height=".28222"/>
    <rect x="179.66" y="152.93" width=".28222" height=".28222"/>
    <rect x="180.79" y="152.93" width=".28222" height=".28222"/>
    <rect x="181.92" y="152.93" width=".28222" height=".28222"/>
    <rect x="183.05" y="152.93" width=".28222" height=".28222"/>
    <rect x="184.18" y="152.93" width=".28222" height=".28222"/>
    <rect x="184.18" y="151.8" width=".28222" height=".28222"/>
    <rect x="184.18" y="150.67" width=".28222" height=".28222"/>
    <rect x="184.18" y="149.54" width=".28222" height=".28222"/>
    <rect x="184.18" y="148.41" width=".28222" height=".28222"/>
   </g>
   <g fill="#6fa8e9">
    <rect x="184.18" y="147.28" width=".28222" height=".28222"/>
    <rect x="185.31" y="147.28" width=".28222" height=".28222"/>
    <rect x="186.44" y="147.28" width=".28222" height=".28222"/>
    <rect x="187.56" y="147.28" width=".28222" height=".28222"/>
    <rect x="188.69" y="147.28" width=".28222" height=".28222"/>
    <rect x="189.82" y="147.28" width=".28222" height=".28222"/>
   </g>
   <g fill="#454545">
    <rect x="184.18" y="148.41" width=".28222" height=".28222"/>
    <rect x="184.18" y="149.54" width=".28222" height=".28222"/>
    <rect x="184.18" y="150.67" width=".28222" height=".28222"/>
    <rect x="184.18" y="151.8" width=".28222" height=".28222"/>
    <rect x="184.18" y="152.93" width=".28222" height=".28222"/>
    <rect x="185.31" y="152.93" width=".28222" height=".28222"/>
    <rect x="186.44" y="152.93" width=".28222" height=".28222"/>
    <rect x="187.56" y="152.93" width=".28222" height=".28222"/>
    <rect x="188.69" y="152.93" width=".28222" height=".28222"/>
    <rect x="189.82" y="152.93" width=".28222" height=".28222"/>
    <rect x="189.82" y="151.8" width=".28222" height=".28222"/>
    <rect x="189.82" y="150.67" width=".28222" height=".28222"/>
    <rect x="189.82" y="149.54" width=".28222" height=".28222"/>
    <rect x="189.82" y="148.41" width=".28222" height=".28222"/>
   </g>
   <g fill="#6fa8e9">
    <rect x="189.82" y="147.28" width=".28222" height=".28222"/>
    <rect x="190.95" y="147.28" width=".28222" height=".28222"/>
    <rect x="192.08" y="147.28" width=".28222" height=".28222"/>
    <rect x="193.21" y="147.28" width=".28222" height=".28222"/>
    <rect x="194.34" y="147.28" width=".28222" height=".28222"/>
    <rect x="195.47" y="147.28" width=".28222" height=".28222"/>
   </g>
   <g fill="#454545">
    <rect x="189.82" y="148.41" width=".28222" height=".28222"/>
    <rect x="189.82" y="149.54" width=".28222" height=".28222"/>
    <rect x="189.82" y="150.67" width=".28222" height=".28222"/>
    <rect x="189.82" y="151.8" width=".28222" height=".28222"/>
    <rect x="189.82" y="152.93" width=".28222" height=".28222"/>
    <rect x="190.95" y="152.93" width=".28222" height=".28222"/>
    <rect x="192.08" y="152.93" width=".28222" height=".28222"/>
    <rect x="193.21" y="152.93" width=".28222" height=".28222"/>
    <rect x="194.34" y="152.93" width=".28222" height=".28222"/>
    <rect x="195.47" y="152.93" width=".28222" height=".28222"/>
    <rect x="195.47" y="151.8" width=".28222" height=".28222"/>
    <rect x="195.47" y="150.67" width=".28222" height=".28222"/>
    <rect x="195.47" y="149.54" width=".28222" height=".28222"/>
    <rect x="195.47" y="148.41" width=".28222" height=".28222"/>
   </g>
   <g fill="#6fa8e9">
    <rect x="195.47" y="147.28" width=".28222" height=".28222"/>
    <rect x="196.6" y="147.28" width=".28222" height=".28222"/>
    <rect x="197.72" y="147.28" width=".28222" height=".28222"/>
    <rect x="198.85" y="147.28" width=".28222" height=".28222"/>
    <rect x="199.98" y="147.28" width=".28222" height=".28222"/>
    <rect x="201.11" y="147.28" width=".28222" height=".28222"/>
   </g>
   <g fill="#454545">
    <rect x="195.47" y="148.41" width=".28222" height=".28222"/>
    <rect x="195.47" y="149.54" width=".28222" height=".28222"/>
    <rect x="195.47" y="150.67" width=".28222" height=".28222"/>
    <rect x="195.47" y="151.8" width=".28222" height=".28222"/>
    <rect x="195.47" y="152.93" width=".28222" height=".28222"/>
    <rect x="196.6" y="152.93" width=".28222" height=".28222"/>
    <rect x="197.72" y="152.93" width=".28222" height=".28222"/>
    <rect x="198.85" y="152.93" width=".28222" height=".28222"/>
    <rect x="199.98" y="152.93" width=".28222" height=".28222"/>
    <rect x="201.11" y="152.93" width=".28222" height=".28222"/>
    <rect x="201.11" y="151.8" width=".28222" height=".28222"/>
    <rect x="201.11" y="150.67" width=".28222" height=".28222"/>
    <rect x="201.11" y="149.54" width=".28222" height=".28222"/>
    <rect x="201.11" y="148.41" width=".28222" height=".28222"/>
   </g>
   <g fill="#6fa8e9">
    <rect x="201.11" y="147.28" width=".28222" height=".28222"/>
    <rect x="202.24" y="147.28" width=".28222" height=".28222"/>
    <rect x="203.37" y="147.28" width=".28222" height=".28222"/>
    <rect x="204.5" y="147.28" width=".28222" height=".28222"/>
    <rect x="205.63" y="147.28" width=".28222" height=".28222"/>
    <rect x="206.76" y="147.28" width=".28222" height=".28222"/>
   </g>
   <g fill="#454545">
    <rect x="201.11" y="148.41" width=".28222" height=".28222"/>
    <rect x="201.11" y="149.54" width=".28222" height=".28222"/>
    <rect x="201.11" y="150.67" width=".28222" height=".28222"/>
    <rect x="201.11" y="151.8" width=".28222" height=".28222"/>
    <rect x="201.11" y="152.93" width=".28222" height=".28222"/>
    <rect x="202.24" y="152.93" width=".28222" height=".28222"/>
    <rect x="203.37" y="152.93" width=".28222" height=".28222"/>
    <rect x="204.5" y="152.93" width=".28222" height=".28222"/>
    <rect x="205.63" y="152.93" width=".28222" height=".28222"/>
    <rect x="206.76" y="152.93" width=".28222" height=".28222"/>
    <rect x="206.76" y="151.8" width=".28222" height=".28222"/>
    <rect x="206.76" y="150.67" width=".28222" height=".28222"/>
    <rect x="206.76" y="149.54" width=".28222" height=".28222"/>
    <rect x="206.76" y="148.41" width=".28222" height=".28222"/>
    <g transform="matrix(.28222 0 0 .28222 151.72 84.526)">
     <rect x="95" y="242.36" width="1" height="1"/>
     <rect x="99" y="242.36" width="1" height="1"/>
     <rect x="103" y="242.36" width="1" height="1"/>
     <rect x="107" y="242.36" width="1" height="1"/>
     <rect x="111" y="242.36" width="1" height="1"/>
     <rect x="115" y="242.36" width="1" height="1"/>
     <rect x="95" y="246.36" width="1" height="1"/>
     <rect x="95" y="250.36" width="1" height="1"/>
     <rect x="95" y="254.36" width="1" height="1"/>
     <rect x="95" y="258.36" width="1" height="1"/>
     <rect x="95" y="262.36" width="1" height="1"/>
     <rect x="99" y="262.36" width="1" height="1"/>
     <rect x="103" y="262.36" width="1" height="1"/>
     <rect x="107" y="262.36" width="1" height="1"/>
     <rect x="111" y="262.36" width="1" height="1"/>
     <rect x="115" y="262.36" width="1" height="1"/>
     <rect x="115" y="258.36" width="1" height="1"/>
     <rect x="115" y="254.36" width="1" height="1"/>
     <rect x="115" y="250.36" width="1" height="1"/>
     <rect x="115" y="246.36" width="1" height="1"/>
    </g>
    <g transform="matrix(.28222 0 0 .28222 157.37 84.526)">
     <rect x="95" y="242.36" width="1" height="1"/>
     <rect x="99" y="242.36" width="1" height="1"/>
     <rect x="103" y="242.36" width="1" height="1"/>
     <rect x="107" y="242.36" width="1" height="1"/>
     <rect x="111" y="242.36" width="1" height="1"/>
     <rect x="115" y="242.36" width="1" height="1"/>
     <rect x="95" y="246.36" width="1" height="1"/>
     <rect x="95" y="250.36" width="1" height="1"/>
     <rect x="95" y="254.36" width="1" height="1"/>
     <rect x="95" y="258.36" width="1" height="1"/>
     <rect x="95" y="262.36" width="1" height="1"/>
     <rect x="99" y="262.36" width="1" height="1"/>
     <rect x="103" y="262.36" width="1" height="1"/>
     <rect x="107" y="262.36" width="1" height="1"/>
     <rect x="111" y="262.36" width="1" height="1"/>
     <rect x="115" y="262.36" width="1" height="1"/>
     <rect x="115" y="258.36" width="1" height="1"/>
     <rect x="115" y="254.36" width="1" height="1"/>
     <rect x="115" y="250.36" width="1" height="1"/>
     <rect x="115" y="246.36" width="1" height="1"/>
    </g>
    <g transform="matrix(.28222 0 0 .28222 163.01 84.526)">
     <rect x="95" y="242.36" width="1" height="1"/>
     <rect x="99" y="242.36" width="1" height="1"/>
     <rect x="103" y="242.36" width="1" height="1"/>
     <rect x="107" y="242.36" width="1" height="1"/>
     <rect x="111" y="242.36" width="1" height="1"/>
     <rect x="115" y="242.36" width="1" height="1"/>
     <rect x="95" y="246.36" width="1" height="1"/>
     <rect x="95" y="250.36" width="1" height="1"/>
     <rect x="95" y="254.36" width="1" height="1"/>
     <rect x="95" y="258.36" width="1" height="1"/>
     <rect x="95" y="262.36" width="1" height="1"/>
     <rect x="99" y="262.36" width="1" height="1"/>
     <rect x="103" y="262.36" width="1" height="1"/>
     <rect x="107" y="262.36" width="1" height="1"/>
     <rect x="111" y="262.36" width="1" height="1"/>
     <rect x="115" y="262.36" width="1" height="1"/>
     <rect x="115" y="258.36" width="1" height="1"/>
     <rect x="115" y="254.36" width="1" height="1"/>
     <rect x="115" y="250.36" width="1" height="1"/>
     <rect x="115" y="246.36" width="1" height="1"/>
    </g>
    <rect x="195.47" y="152.93" width=".28222" height=".28222"/>
    <rect x="196.6" y="152.93" width=".28222" height=".28222"/>
    <rect x="197.72" y="152.93" width=".28222" height=".28222"/>
    <rect x="198.85" y="152.93" width=".28222" height=".28222"/>
    <rect x="199.98" y="152.93" width=".28222" height=".28222"/>
    <rect x="201.11" y="152.93" width=".28222" height=".28222"/>
    <rect x="195.47" y="154.06" width=".28222" height=".28222"/>
    <rect x="195.47" y="155.18" width=".28222" height=".28222"/>
    <rect x="195.47" y="156.31" width=".28222" height=".28222"/>
    <rect x="195.47" y="157.44" width=".28222" height=".28222"/>
    <rect x="195.47" y="158.57" width=".28222" height=".28222"/>
    <rect x="196.6" y="158.57" width=".28222" height=".28222"/>
    <rect x="197.72" y="158.57" width=".28222" height=".28222"/>
    <rect x="198.85" y="158.57" width=".28222" height=".28222"/>
    <rect x="199.98" y="158.57" width=".28222" height=".28222"/>
    <rect x="201.11" y="158.57" width=".28222" height=".28222"/>
    <rect x="201.11" y="157.44" width=".28222" height=".28222"/>
    <rect x="201.11" y="156.31" width=".28222" height=".28222"/>
    <rect x="201.11" y="155.18" width=".28222" height=".28222"/>
    <rect x="201.11" y="154.06" width=".28222" height=".28222"/>
    <g transform="matrix(.28222 0 0 .28222 174.3 84.526)">
     <rect x="95" y="242.36" width="1" height="1"/>
     <rect x="99" y="242.36" width="1" height="1"/>
     <rect x="103" y="242.36" width="1" height="1"/>
     <rect x="107" y="242.36" width="1" height="1"/>
     <rect x="111" y="242.36" width="1" height="1"/>
     <rect x="115" y="242.36" width="1" height="1"/>
     <rect x="95" y="246.36" width="1" height="1"/>
     <rect x="95" y="250.36" width="1" height="1"/>
     <rect x="95" y="254.36" width="1" height="1"/>
     <rect x="95" y="258.36" width="1" height="1"/>
     <rect x="95" y="262.36" width="1" height="1"/>
     <rect x="99" y="262.36" width="1" height="1"/>
     <rect x="103" y="262.36" width="1" height="1"/>
     <rect x="107" y="262.36" width="1" height="1"/>
     <rect x="111" y="262.36" width="1" height="1"/>
     <rect x="115" y="262.36" width="1" height="1"/>
     <rect x="115" y="258.36" width="1" height="1"/>
     <rect x="115" y="254.36" width="1" height="1"/>
     <rect x="115" y="250.36" width="1" height="1"/>
     <rect x="115" y="246.36" width="1" height="1"/>
    </g>
    <g transform="matrix(.28222 0 0 .28222 151.72 90.171)">
     <rect x="95" y="242.36" width="1" height="1"/>
     <rect x="99" y="242.36" width="1" height="1"/>
     <rect x="103" y="242.36" width="1" height="1"/>
     <rect x="107" y="242.36" width="1" height="1"/>
     <rect x="111" y="242.36" width="1" height="1"/>
     <rect x="115" y="242.36" width="1" height="1"/>
     <rect x="95" y="246.36" width="1" height="1"/>
     <rect x="95" y="250.36" width="1" height="1"/>
     <rect x="95" y="254.36" width="1" height="1"/>
     <rect x="95" y="258.36" width="1" height="1"/>
     <rect x="95" y="262.36" width="1" height="1"/>
     <rect x="99" y="262.36" width="1" height="1"/>
     <rect x="103" y="262.36" width="1" height="1"/>
     <rect x="107" y="262.36" width="1" height="1"/>
     <rect x="111" y="262.36" width="1" height="1"/>
     <rect x="115" y="262.36" width="1" height="1"/>
     <rect x="115" y="258.36" width="1" height="1"/>
     <rect x="115" y="254.36" width="1" height="1"/>
     <rect x="115" y="250.36" width="1" height="1"/>
     <rect x="115" y="246.36" width="1" height="1"/>
    </g>
    <g transform="matrix(.28222 0 0 .28222 157.37 90.171)">
     <rect x="95" y="242.36" width="1" height="1"/>
     <rect x="99" y="242.36" width="1" height="1"/>
     <rect x="103" y="242.36" width="1" height="1"/>
     <rect x="107" y="242.36" width="1" height="1"/>
     <rect x="111" y="242.36" width="1" height="1"/>
     <rect x="115" y="242.36" width="1" height="1"/>
     <rect x="95" y="246.36" width="1" height="1"/>
     <rect x="95" y="250.36" width="1" height="1"/>
     <rect x="95" y="254.36" width="1" height="1"/>
     <rect x="95" y="258.36" width="1" height="1"/>
     <rect x="95" y="262.36" width="1" height="1"/>
     <rect x="99" y="262.36" width="1" height="1"/>
     <rect x="103" y="262.36" width="1" height="1"/>
     <rect x="107" y="262.36" width="1" height="1"/>
     <rect x="111" y="262.36" width="1" height="1"/>
     <rect x="115" y="262.36" width="1" height="1"/>
     <rect x="115" y="258.36" width="1" height="1"/>
     <rect x="115" y="254.36" width="1" height="1"/>
     <rect x="115" y="250.36" width="1" height="1"/>
     <rect x="115" y="246.36" width="1" height="1"/>
    </g>
    <g transform="matrix(.28222 0 0 .28222 163.01 90.171)">
     <rect x="95" y="242.36" width="1" height="1"/>
     <rect x="99" y="242.36" width="1" height="1"/>
     <rect x="103" y="242.36" width="1" height="1"/>
     <rect x="107" y="242.36" width="1" height="1"/>
     <rect x="111" y="242.36" width="1" height="1"/>
     <rect x="115" y="242.36" width="1" height="1"/>
     <rect x="95" y="246.36" width="1" height="1"/>
     <rect x="95" y="250.36" width="1" height="1"/>
     <rect x="95" y="254.36" width="1" height="1"/>
     <rect x="95" y="258.36" width="1" height="1"/>
     <rect x="95" y="262.36" width="1" height="1"/>
     <rect x="99" y="262.36" width="1" height="1"/>
     <rect x="103" y="262.36" width="1" height="1"/>
     <rect x="107" y="262.36" width="1" height="1"/>
     <rect x="111" y="262.36" width="1" height="1"/>
     <rect x="115" y="262.36" width="1" height="1"/>
     <rect x="115" y="258.36" width="1" height="1"/>
     <rect x="115" y="254.36" width="1" height="1"/>
     <rect x="115" y="250.36" width="1" height="1"/>
     <rect x="115" y="246.36" width="1" height="1"/>
    </g>
    <rect x="195.47" y="158.57" width=".28222" height=".28222"/>
    <rect x="196.6" y="158.57" width=".28222" height=".28222"/>
    <rect x="197.72" y="158.57" width=".28222" height=".28222"/>
    <rect x="198.85" y="158.57" width=".28222" height=".28222"/>
    <rect x="199.98" y="158.57" width=".28222" height=".28222"/>
    <rect x="201.11" y="158.57" width=".28222" height=".28222"/>
    <rect x="195.47" y="159.7" width=".28222" height=".28222"/>
    <rect x="195.47" y="160.83" width=".28222" height=".28222"/>
    <rect x="195.47" y="161.96" width=".28222" height=".28222"/>
    <rect x="195.47" y="163.09" width=".28222" height=".28222"/>
    <rect x="195.47" y="164.22" width=".28222" height=".28222"/>
    <rect x="196.6" y="164.22" width=".28222" height=".28222"/>
    <rect x="197.72" y="164.22" width=".28222" height=".28222"/>
    <rect x="198.85" y="164.22" width=".28222" height=".28222"/>
    <rect x="199.98" y="164.22" width=".28222" height=".28222"/>
    <rect x="201.11" y="164.22" width=".28222" height=".28222"/>
    <rect x="201.11" y="163.09" width=".28222" height=".28222"/>
    <rect x="201.11" y="161.96" width=".28222" height=".28222"/>
    <rect x="201.11" y="160.83" width=".28222" height=".28222"/>
    <rect x="201.11" y="159.7" width=".28222" height=".28222"/>
    <g transform="matrix(.28222 0 0 .28222 174.3 90.171)">
     <rect x="95" y="242.36" width="1" height="1"/>
     <rect x="99" y="242.36" width="1" height="1"/>
     <rect x="103" y="242.36" width="1" height="1"/>
     <rect x="107" y="242.36" width="1" height="1"/>
     <rect x="111" y="242.36" width="1" height="1"/>
     <rect x="115" y="242.36" width="1" height="1"/>
     <rect x="95" y="246.36" width="1" height="1"/>
     <rect x="95" y="250.36" width="1" height="1"/>
     <rect x="95" y="254.36" width="1" height="1"/>
     <rect x="95" y="258.36" width="1" height="1"/>
     <rect x="95" y="262.36" width="1" height="1"/>
     <rect x="99" y="262.36" width="1" height="1"/>
     <rect x="103" y="262.36" width="1" height="1"/>
     <rect x="107" y="262.36" width="1" height="1"/>
     <rect x="111" y="262.36" width="1" height="1"/>
     <rect x="115" y="262.36" width="1" height="1"/>
     <rect x="115" y="258.36" width="1" height="1"/>
     <rect x="115" y="254.36" width="1" height="1"/>
     <rect x="115" y="250.36" width="1" height="1"/>
     <rect x="115" y="246.36" width="1" height="1"/>
    </g>
    <g transform="matrix(.28222 0 0 .28222 151.72 95.815)">
     <rect x="95" y="242.36" width="1" height="1"/>
     <rect x="99" y="242.36" width="1" height="1"/>
     <rect x="103" y="242.36" width="1" height="1"/>
     <rect x="107" y="242.36" width="1" height="1"/>
     <rect x="111" y="242.36" width="1" height="1"/>
     <rect x="115" y="242.36" width="1" height="1"/>
     <rect x="95" y="246.36" width="1" height="1"/>
     <rect x="95" y="250.36" width="1" height="1"/>
     <rect x="95" y="254.36" width="1" height="1"/>
     <rect x="95" y="258.36" width="1" height="1"/>
     <rect x="95" y="262.36" width="1" height="1"/>
     <rect x="99" y="262.36" width="1" height="1"/>
     <rect x="103" y="262.36" width="1" height="1"/>
     <rect x="107" y="262.36" width="1" height="1"/>
     <rect x="111" y="262.36" width="1" height="1"/>
     <rect x="115" y="262.36" width="1" height="1"/>
     <rect x="115" y="258.36" width="1" height="1"/>
     <rect x="115" y="254.36" width="1" height="1"/>
     <rect x="115" y="250.36" width="1" height="1"/>
     <rect x="115" y="246.36" width="1" height="1"/>
    </g>
    <g transform="matrix(.28222 0 0 .28222 157.37 95.815)">
     <rect x="95" y="242.36" width="1" height="1"/>
     <rect x="99" y="242.36" width="1" height="1"/>
     <rect x="103" y="242.36" width="1" height="1"/>
     <rect x="107" y="242.36" width="1" height="1"/>
     <rect x="111" y="242.36" width="1" height="1"/>
     <rect x="115" y="242.36" width="1" height="1"/>
     <rect x="95" y="246.36" width="1" height="1"/>
     <rect x="95" y="250.36" width="1" height="1"/>
     <rect x="95" y="254.36" width="1" height="1"/>
     <rect x="95" y="258.36" width="1" height="1"/>
     <rect x="95" y="262.36" width="1" height="1"/>
     <rect x="99" y="262.36" width="1" height="1"/>
     <rect x="103" y="262.36" width="1" height="1"/>
     <rect x="107" y="262.36" width="1" height="1"/>
     <rect x="111" y="262.36" width="1" height="1"/>
     <rect x="115" y="262.36" width="1" height="1"/>
     <rect x="115" y="258.36" width="1" height="1"/>
     <rect x="115" y="254.36" width="1" height="1"/>
     <rect x="115" y="250.36" width="1" height="1"/>
     <rect x="115" y="246.36" width="1" height="1"/>
    </g>
    <g transform="matrix(.28222 0 0 .28222 163.01 95.815)">
     <rect x="95" y="242.36" width="1" height="1"/>
     <rect x="99" y="242.36" width="1" height="1"/>
     <rect x="103" y="242.36" width="1" height="1"/>
     <rect x="107" y="242.36" width="1" height="1"/>
     <rect x="111" y="242.36" width="1" height="1"/>
     <rect x="115" y="242.36" width="1" height="1"/>
     <rect x="95" y="246.36" width="1" height="1"/>
     <rect x="95" y="250.36" width="1" height="1"/>
     <rect x="95" y="254.36" width="1" height="1"/>
     <rect x="95" y="258.36" width="1" height="1"/>
     <rect x="95" y="262.36" width="1" height="1"/>
     <rect x="99" y="262.36" width="1" height="1"/>
     <rect x="103" y="262.36" width="1" height="1"/>
     <rect x="107" y="262.36" width="1" height="1"/>
     <rect x="111" y="262.36" width="1" height="1"/>
     <rect x="115" y="262.36" width="1" height="1"/>
     <rect x="115" y="258.36" width="1" height="1"/>
     <rect x="115" y="254.36" width="1" height="1"/>
     <rect x="115" y="250.36" width="1" height="1"/>
     <rect x="115" y="246.36" width="1" height="1"/>
    </g>
    <rect x="195.47" y="164.22" width=".28222" height=".28222"/>
    <rect x="196.6" y="164.22" width=".28222" height=".28222"/>
    <rect x="197.72" y="164.22" width=".28222" height=".28222"/>
    <rect x="198.85" y="164.22" width=".28222" height=".28222"/>
    <rect x="199.98" y="164.22" width=".28222" height=".28222"/>
    <rect x="201.11" y="164.22" width=".28222" height=".28222"/>
    <rect x="195.47" y="165.34" width=".28222" height=".28222"/>
    <rect x="195.47" y="166.47" width=".28222" height=".28222"/>
    <rect x="195.47" y="167.6" width=".28222" height=".28222"/>
    <rect x="195.47" y="168.73" width=".28222" height=".28222"/>
    <rect x="195.47" y="169.86" width=".28222" height=".28222"/>
    <rect x="196.6" y="169.86" width=".28222" height=".28222"/>
    <rect x="197.72" y="169.86" width=".28222" height=".28222"/>
    <rect x="198.85" y="169.86" width=".28222" height=".28222"/>
    <rect x="199.98" y="169.86" width=".28222" height=".28222"/>
    <rect x="201.11" y="169.86" width=".28222" height=".28222"/>
    <rect x="201.11" y="168.73" width=".28222" height=".28222"/>
    <rect x="201.11" y="167.6" width=".28222" height=".28222"/>
    <rect x="201.11" y="166.47" width=".28222" height=".28222"/>
    <rect x="201.11" y="165.34" width=".28222" height=".28222"/>
    <g transform="matrix(.28222 0 0 .28222 174.3 95.815)">
     <rect x="95" y="242.36" width="1" height="1"/>
     <rect x="99" y="242.36" width="1" height="1"/>
     <rect x="103" y="242.36" width="1" height="1"/>
     <rect x="107" y="242.36" width="1" height="1"/>
     <rect x="111" y="242.36" width="1" height="1"/>
     <rect x="115" y="242.36" width="1" height="1"/>
     <rect x="95" y="246.36" width="1" height="1"/>
     <rect x="95" y="250.36" width="1" height="1"/>
     <rect x="95" y="254.36" width="1" height="1"/>
     <rect x="95" y="258.36" width="1" height="1"/>
     <rect x="95" y="262.36" width="1" height="1"/>
     <rect x="99" y="262.36" width="1" height="1"/>
     <rect x="103" y="262.36" width="1" height="1"/>
     <rect x="107" y="262.36" width="1" height="1"/>
     <rect x="111" y="262.36" width="1" height="1"/>
     <rect x="115" y="262.36" width="1" height="1"/>
     <rect x="115" y="258.36" width="1" height="1"/>
     <rect x="115" y="254.36" width="1" height="1"/>
     <rect x="115" y="250.36" width="1" height="1"/>
     <rect x="115" y="246.36" width="1" height="1"/>
    </g>
    <rect x="178.25" y="141.36" width="34.431" height=".28222"/>
    <g transform="matrix(.28222 0 0 .28222 151.72 101.46)">
     <rect x="96" y="262.36" width="1" height="1"/>
     <rect x="99" y="242.36" width="1" height="1"/>
     <rect x="103" y="242.36" width="1" height="1"/>
     <rect x="107" y="242.36" width="1" height="1"/>
     <rect x="111" y="242.36" width="1" height="1"/>
     <rect x="115" y="242.36" width="1" height="1"/>
     <rect x="95" y="246.36" width="1" height="1"/>
     <rect x="95" y="250.36" width="1" height="1"/>
     <rect x="95" y="254.36" width="1" height="1"/>
     <rect x="95" y="258.36" width="1" height="1"/>
     <rect x="95" y="262.36" width="1" height="1"/>
     <rect x="99" y="262.36" width="1" height="1"/>
     <rect x="103" y="262.36" width="1" height="1"/>
     <rect x="107" y="262.36" width="1" height="1"/>
     <rect x="111" y="262.36" width="1" height="1"/>
     <rect x="115" y="262.36" width="1" height="1"/>
     <rect x="115" y="258.36" width="1" height="1"/>
     <rect x="115" y="254.36" width="1" height="1"/>
     <rect x="115" y="250.36" width="1" height="1"/>
     <rect x="115" y="246.36" width="1" height="1"/>
    </g>
    <g transform="matrix(.28222 0 0 .28222 157.37 101.46)">
     <rect x="95" y="242.36" width="1" height="1"/>
     <rect x="99" y="242.36" width="1" height="1"/>
     <rect x="103" y="242.36" width="1" height="1"/>
     <rect x="107" y="242.36" width="1" height="1"/>
     <rect x="111" y="242.36" width="1" height="1"/>
     <rect x="115" y="242.36" width="1" height="1"/>
     <rect x="95" y="246.36" width="1" height="1"/>
     <rect x="95" y="250.36" width="1" height="1"/>
     <rect x="95" y="254.36" width="1" height="1"/>
     <rect x="95" y="258.36" width="1" height="1"/>
     <rect x="95" y="262.36" width="1" height="1"/>
     <rect x="99" y="262.36" width="1" height="1"/>
     <rect x="103" y="262.36" width="1" height="1"/>
     <rect x="107" y="262.36" width="1" height="1"/>
     <rect x="111" y="262.36" width="1" height="1"/>
     <rect x="115" y="262.36" width="1" height="1"/>
     <rect x="115" y="258.36" width="1" height="1"/>
     <rect x="115" y="254.36" width="1" height="1"/>
     <rect x="115" y="250.36" width="1" height="1"/>
     <rect x="115" y="246.36" width="1" height="1"/>
    </g>
    <g transform="matrix(.28222 0 0 .28222 163.01 101.46)">
     <rect x="95" y="242.36" width="1" height="1"/>
     <rect x="99" y="242.36" width="1" height="1"/>
     <rect x="103" y="242.36" width="1" height="1"/>
     <rect x="107" y="242.36" width="1" height="1"/>
     <rect x="111" y="242.36" width="1" height="1"/>
     <rect x="115" y="242.36" width="1" height="1"/>
     <rect x="95" y="246.36" width="1" height="1"/>
     <rect x="95" y="250.36" width="1" height="1"/>
     <rect x="95" y="254.36" width="1" height="1"/>
     <rect x="95" y="258.36" width="1" height="1"/>
     <rect x="95" y="262.36" width="1" height="1"/>
     <rect x="99" y="262.36" width="1" height="1"/>
     <rect x="103" y="262.36" width="1" height="1"/>
     <rect x="107" y="262.36" width="1" height="1"/>
     <rect x="111" y="262.36" width="1" height="1"/>
     <rect x="115" y="262.36" width="1" height="1"/>
     <rect x="115" y="258.36" width="1" height="1"/>
     <rect x="115" y="254.36" width="1" height="1"/>
     <rect x="115" y="250.36" width="1" height="1"/>
     <rect x="115" y="246.36" width="1" height="1"/>
    </g>
    <rect x="195.47" y="169.86" width=".28222" height=".28222"/>
    <rect x="196.6" y="169.86" width=".28222" height=".28222"/>
    <rect x="197.72" y="169.86" width=".28222" height=".28222"/>
    <rect x="198.85" y="169.86" width=".28222" height=".28222"/>
    <rect x="199.98" y="169.86" width=".28222" height=".28222"/>
    <rect x="201.11" y="169.86" width=".28222" height=".28222"/>
    <rect x="195.47" y="170.99" width=".28222" height=".28222"/>
    <rect x="195.47" y="172.12" width=".28222" height=".28222"/>
    <rect x="195.47" y="173.25" width=".28222" height=".28222"/>
    <rect x="195.47" y="174.38" width=".28222" height=".28222"/>
    <rect x="195.47" y="175.5" width=".28222" height=".28222"/>
    <rect x="196.6" y="175.5" width=".28222" height=".28222"/>
    <rect x="197.72" y="175.5" width=".28222" height=".28222"/>
    <rect x="198.85" y="175.5" width=".28222" height=".28222"/>
    <rect x="199.98" y="175.5" width=".28222" height=".28222"/>
    <rect x="201.11" y="175.5" width=".28222" height=".28222"/>
    <rect x="201.11" y="174.38" width=".28222" height=".28222"/>
    <rect x="201.11" y="173.25" width=".28222" height=".28222"/>
    <rect x="201.11" y="172.12" width=".28222" height=".28222"/>
    <rect x="201.11" y="170.99" width=".28222" height=".28222"/>
    <g transform="matrix(.28222 0 0 .28222 174.3 101.46)">
     <rect x="95" y="242.36" width="1" height="1"/>
     <rect x="99" y="242.36" width="1" height="1"/>
     <rect x="103" y="242.36" width="1" height="1"/>
     <rect x="107" y="242.36" width="1" height="1"/>
     <rect x="111" y="242.36" width="1" height="1"/>
     <rect x="115" y="242.36" width="1" height="1"/>
     <rect x="95" y="246.36" width="1" height="1"/>
     <rect x="95" y="250.36" width="1" height="1"/>
     <rect x="95" y="254.36" width="1" height="1"/>
     <rect x="95" y="258.36" width="1" height="1"/>
     <rect x="95" y="262.36" width="1" height="1"/>
     <rect x="99" y="262.36" width="1" height="1"/>
     <rect x="103" y="262.36" width="1" height="1"/>
     <rect x="107" y="262.36" width="1" height="1"/>
     <rect x="111" y="262.36" width="1" height="1"/>
     <rect x="115" y="262.36" width="1" height="1"/>
     <rect x="115" y="258.36" width="1" height="1"/>
     <rect x="115" y="254.36" width="1" height="1"/>
     <rect x="115" y="250.36" width="1" height="1"/>
     <rect x="115" y="246.36" width="1" height="1"/>
    </g>
    <g transform="matrix(.28222 0 0 .28222 179.94 73.237)">
     <rect x="95" y="242.36" width="1" height="1"/>
     <rect x="99" y="242.36" width="1" height="1"/>
     <rect x="103" y="242.36" width="1" height="1"/>
     <rect x="107" y="242.36" width="1" height="1"/>
     <rect x="111" y="242.36" width="1" height="1"/>
     <rect x="115" y="242.36" width="1" height="1"/>
     <rect x="95" y="246.36" width="1" height="1"/>
     <rect x="95" y="250.36" width="1" height="1"/>
     <rect x="95" y="254.36" width="1" height="1"/>
     <rect x="95" y="258.36" width="1" height="1"/>
     <rect x="95" y="262.36" width="1" height="1"/>
     <rect x="99" y="262.36" width="1" height="1"/>
     <rect x="103" y="262.36" width="1" height="1"/>
     <rect x="107" y="262.36" width="1" height="1"/>
     <rect x="111" y="262.36" width="1" height="1"/>
     <rect x="115" y="262.36" width="1" height="1"/>
     <rect x="115" y="258.36" width="1" height="1"/>
     <rect x="115" y="254.36" width="1" height="1"/>
     <rect x="115" y="250.36" width="1" height="1"/>
     <rect x="115" y="246.36" width="1" height="1"/>
    </g>
   </g>
   <g fill="#6fa8e9">
    <rect x="206.76" y="147.28" width=".28222" height=".28222"/>
    <rect x="207.88" y="147.28" width=".28222" height=".28222"/>
    <rect x="209.01" y="147.28" width=".28222" height=".28222"/>
    <rect x="210.14" y="147.28" width=".28222" height=".28222"/>
    <rect x="211.27" y="147.28" width=".28222" height=".28222"/>
    <rect x="212.4" y="147.28" width=".28222" height=".28222"/>
   </g>
   <g fill="#454545">
    <rect x="206.76" y="148.41" width=".28222" height=".28222"/>
    <rect x="206.76" y="149.54" width=".28222" height=".28222"/>
    <rect x="206.76" y="150.67" width=".28222" height=".28222"/>
    <rect x="206.76" y="151.8" width=".28222" height=".28222"/>
    <rect x="206.76" y="152.93" width=".28222" height=".28222"/>
    <rect x="207.88" y="152.93" width=".28222" height=".28222"/>
    <rect x="209.01" y="152.93" width=".28222" height=".28222"/>
    <rect x="210.14" y="152.93" width=".28222" height=".28222"/>
    <rect x="211.27" y="152.93" width=".28222" height=".28222"/>
    <rect x="212.4" y="152.93" width=".28222" height=".28222"/>
    <rect x="212.4" y="151.8" width=".28222" height=".28222"/>
    <rect x="212.4" y="150.67" width=".28222" height=".28222"/>
    <rect x="212.4" y="149.54" width=".28222" height=".28222"/>
    <rect x="212.4" y="148.41" width=".28222" height=".28222"/>
    <g transform="matrix(.28222 0 0 .28222 179.94 84.526)">
     <rect x="95" y="242.36" width="1" height="1"/>
     <rect x="99" y="242.36" width="1" height="1"/>
     <rect x="103" y="242.36" width="1" height="1"/>
     <rect x="107" y="242.36" width="1" height="1"/>
     <rect x="111" y="242.36" width="1" height="1"/>
     <rect x="115" y="242.36" width="1" height="1"/>
     <rect x="95" y="246.36" width="1" height="1"/>
     <rect x="95" y="250.36" width="1" height="1"/>
     <rect x="95" y="254.36" width="1" height="1"/>
     <rect x="95" y="258.36" width="1" height="1"/>
     <rect x="95" y="262.36" width="1" height="1"/>
     <rect x="99" y="262.36" width="1" height="1"/>
     <rect x="103" y="262.36" width="1" height="1"/>
     <rect x="107" y="262.36" width="1" height="1"/>
     <rect x="111" y="262.36" width="1" height="1"/>
     <rect x="115" y="262.36" width="1" height="1"/>
     <rect x="115" y="258.36" width="1" height="1"/>
     <rect x="115" y="254.36" width="1" height="1"/>
     <rect x="115" y="250.36" width="1" height="1"/>
     <rect x="115" y="246.36" width="1" height="1"/>
    </g>
    <g transform="matrix(.28222 0 0 .28222 179.94 90.171)">
     <rect x="95" y="242.36" width="1" height="1"/>
     <rect x="99" y="242.36" width="1" height="1"/>
     <rect x="103" y="242.36" width="1" height="1"/>
     <rect x="107" y="242.36" width="1" height="1"/>
     <rect x="111" y="242.36" width="1" height="1"/>
     <rect x="115" y="242.36" width="1" height="1"/>
     <rect x="95" y="246.36" width="1" height="1"/>
     <rect x="95" y="250.36" width="1" height="1"/>
     <rect x="95" y="254.36" width="1" height="1"/>
     <rect x="95" y="258.36" width="1" height="1"/>
     <rect x="95" y="262.36" width="1" height="1"/>
     <rect x="99" y="262.36" width="1" height="1"/>
     <rect x="103" y="262.36" width="1" height="1"/>
     <rect x="107" y="262.36" width="1" height="1"/>
     <rect x="111" y="262.36" width="1" height="1"/>
     <rect x="115" y="262.36" width="1" height="1"/>
     <rect x="115" y="258.36" width="1" height="1"/>
     <rect x="115" y="254.36" width="1" height="1"/>
     <rect x="115" y="250.36" width="1" height="1"/>
     <rect x="115" y="246.36" width="1" height="1"/>
    </g>
    <g transform="matrix(.28222 0 0 .28222 179.94 95.815)">
     <rect x="95" y="242.36" width="1" height="1"/>
     <rect x="99" y="242.36" width="1" height="1"/>
     <rect x="103" y="242.36" width="1" height="1"/>
     <rect x="107" y="242.36" width="1" height="1"/>
     <rect x="111" y="242.36" width="1" height="1"/>
     <rect x="115" y="242.36" width="1" height="1"/>
     <rect x="95" y="246.36" width="1" height="1"/>
     <rect x="95" y="250.36" width="1" height="1"/>
     <rect x="95" y="254.36" width="1" height="1"/>
     <rect x="95" y="258.36" width="1" height="1"/>
     <rect x="95" y="262.36" width="1" height="1"/>
     <rect x="99" y="262.36" width="1" height="1"/>
     <rect x="103" y="262.36" width="1" height="1"/>
     <rect x="107" y="262.36" width="1" height="1"/>
     <rect x="111" y="262.36" width="1" height="1"/>
     <rect x="115" y="262.36" width="1" height="1"/>
     <rect x="115" y="258.36" width="1" height="1"/>
     <rect x="115" y="254.36" width="1" height="1"/>
     <rect x="115" y="250.36" width="1" height="1"/>
     <rect x="115" y="246.36" width="1" height="1"/>
    </g>
    <g transform="matrix(.28222 0 0 .28222 179.94 101.46)">
     <rect x="95" y="242.36" width="1" height="1"/>
     <rect x="99" y="242.36" width="1" height="1"/>
     <rect x="103" y="242.36" width="1" height="1"/>
     <rect x="107" y="242.36" width="1" height="1"/>
     <rect x="111" y="242.36" width="1" height="1"/>
     <rect x="115" y="242.36" width="1" height="1"/>
     <rect x="95" y="246.36" width="1" height="1"/>
     <rect x="95" y="250.36" width="1" height="1"/>
     <rect x="95" y="254.36" width="1" height="1"/>
     <rect x="95" y="258.36" width="1" height="1"/>
     <rect x="95" y="262.36" width="1" height="1"/>
     <rect x="99" y="262.36" width="1" height="1"/>
     <rect x="103" y="262.36" width="1" height="1"/>
     <rect x="107" y="262.36" width="1" height="1"/>
     <rect x="111" y="262.36" width="1" height="1"/>
     <rect x="115" y="262.36" width="1" height="1"/>
     <rect x="115" y="258.36" width="1" height="1"/>
     <rect x="115" y="254.36" width="1" height="1"/>
     <rect x="115" y="250.36" width="1" height="1"/>
     <rect x="115" y="246.36" width="1" height="1"/>
    </g>
   </g>
   <g fill="#e9e56f" stroke-width=".28222px">
    <g aria-label="10^-12">
     <path d="m176 176.93h-0.0785l-0.27308 0.14166 0.0273 0.0666 0.21164-0.0597v0.82264h-0.19798v0.0939h0.50177v-0.0939h-0.19115z"/>
     <path d="m176.77 176.92c-0.16896 0-0.34305 0.20822-0.34305 0.54785 0 0.34476 0.17579 0.54274 0.34476 0.54274 0.1536 0 0.33622-0.16726 0.33622-0.5342 0-0.36183-0.17408-0.55639-0.33793-0.55639zm0.16555 0.24406-0.37377 0.48471c-0.0154-0.0597-0.0239-0.1263-0.0239-0.2014 0-0.27307 0.12459-0.42326 0.2304-0.42326 0.058 0 0.12118 0.0461 0.16726 0.13995zm0.0393 0.11264c0.0154 0.0597 0.0222 0.13142 0.0222 0.21505 0 0.29697-0.12801 0.40961-0.22188 0.40961-0.0632 0-0.128-0.0512-0.17408-0.14507z"/>
     <path d="m177.36 177.36 0.0853 0.041 0.18603-0.29867 0.16555 0.29867 0.0922-0.0427-0.23211-0.43692h-0.0376z"/>
     <path d="m178.17 177.4v0.11264h0.61442v-0.11264z"/>
     <path d="m179.41 176.93h-0.0785l-0.27308 0.14166 0.0273 0.0666 0.21163-0.0597v0.82264h-0.19798v0.0939h0.50178v-0.0939h-0.19115z"/>
     <path d="m179.89 177.09 0.087 0.07c0.0102-0.0154 5e-3 -0.0256 0.0154-0.0393 0.0256-0.0393 0.0887-0.0973 0.18091-0.0973 0.11435 0 0.20481 0.0871 0.20481 0.2014 0 0.12971-0.10923 0.22358-0.18603 0.29355-0.12118 0.10923-0.22017 0.21846-0.30892 0.39426v0.0751h0.62466v-0.11776c-0.0119-5e-3 -0.0205 3e-3 -0.0239 7e-3 -7e-3 7e-3 -0.0102 7e-3 -0.0171 7e-3h-0.44716c0.0887-0.1536 0.21334-0.25942 0.29014-0.3311 0.0768-0.0734 0.18603-0.18262 0.18603-0.33623 0-0.16555-0.13483-0.29867-0.30721-0.29867-0.12117 0-0.23552 0.0649-0.29867 0.17237z"/>
    </g>
    <g aria-label="10^-8">
     <path d="m182.77 176.93h-0.0785l-0.27307 0.14166 0.0273 0.0666 0.21164-0.0597v0.82264h-0.19798v0.0939h0.50177v-0.0939h-0.19115z"/>
     <path d="m183.55 176.92c-0.16896 0-0.34305 0.20822-0.34305 0.54785 0 0.34476 0.17579 0.54274 0.34476 0.54274 0.1536 0 0.33622-0.16726 0.33622-0.5342 0-0.36183-0.17408-0.55639-0.33793-0.55639zm0.16555 0.24406-0.37377 0.48471c-0.0154-0.0597-0.0239-0.1263-0.0239-0.2014 0-0.27307 0.12459-0.42326 0.23041-0.42326 0.058 0 0.12117 0.0461 0.16725 0.13995zm0.0393 0.11264c0.0154 0.0597 0.0222 0.13142 0.0222 0.21505 0 0.29697-0.12801 0.40961-0.22188 0.40961-0.0631 0-0.128-0.0512-0.17408-0.14507z"/>
     <path d="m184.13 177.36 0.0853 0.041 0.18603-0.29867 0.16555 0.29867 0.0922-0.0427-0.23212-0.43692h-0.0375z"/>
     <path d="m184.95 177.4v0.11264h0.61442v-0.11264z"/>
     <path d="m186.12 176.91c-0.16384 0-0.28843 0.11776-0.28843 0.26112 0 0.10411 0.0666 0.19969 0.16214 0.24919-0.1263 0.0597-0.21164 0.17579-0.21164 0.29867 0 0.15873 0.13995 0.28502 0.32257 0.28502 0.18604 0 0.32769-0.12971 0.32769-0.29184 0-0.1263-0.0853-0.23895-0.2048-0.29527 0.1024-0.0529 0.16896-0.1536 0.16896-0.25601 0-0.13995-0.12117-0.25088-0.27649-0.25088zm-0.0358 0.5598c0.13654 0.0427 0.227 0.13654 0.227 0.24065 0 0.1024-0.0871 0.18603-0.2014 0.18603-0.11605 0-0.2048-0.087-0.2048-0.19286 0-0.10069 0.0785-0.19286 0.1792-0.23382zm0.0256-0.46081c0.0956 0 0.17068 0.0717 0.17068 0.16043 0 0.0819-0.0631 0.16043-0.14678 0.2048 0 0-0.18774-0.0717-0.18774-0.21334 0-0.0836 0.0717-0.15189 0.16384-0.15189z"/>
    </g>
    <g aria-label="10^-4">
     <path d="m188.14 176.93h-0.0785l-0.27308 0.14166 0.0273 0.0666 0.21163-0.0597v0.82264h-0.19798v0.0939h0.50178v-0.0939h-0.19115z"/>
     <path d="m188.91 176.92c-0.16896 0-0.34305 0.20822-0.34305 0.54785 0 0.34476 0.17579 0.54274 0.34476 0.54274 0.1536 0 0.33622-0.16726 0.33622-0.5342 0-0.36183-0.17408-0.55639-0.33793-0.55639zm0.16555 0.24406-0.37377 0.48471c-0.0154-0.0597-0.0239-0.1263-0.0239-0.2014 0-0.27307 0.12459-0.42326 0.2304-0.42326 0.058 0 0.12118 0.0461 0.16726 0.13995zm0.0393 0.11264c0.0154 0.0597 0.0222 0.13142 0.0222 0.21505 0 0.29697-0.128 0.40961-0.22187 0.40961-0.0632 0-0.128-0.0512-0.17408-0.14507z"/>
     <path d="m189.49 177.36 0.0853 0.041 0.18603-0.29867 0.16555 0.29867 0.0922-0.0427-0.23211-0.43692h-0.0376z"/>
     <path d="m190.31 177.4v0.11264h0.61442v-0.11264z"/>
     <path d="m191.58 176.93-0.45228 0.68099v0.0887h0.42839v0.29356h0.12288v-0.29185h0.13825v-0.10582h-0.13825v-0.66562zm-0.0222 0.18945v0.47617h-0.31233z"/>
    </g>
    <g aria-label="10^0">
     <path d="m194.34 176.93h-0.0785l-0.27307 0.14166 0.0273 0.0666 0.21164-0.0597v0.82264h-0.19798v0.0939h0.50177v-0.0939h-0.19115z"/>
     <path d="m195.12 176.92c-0.16896 0-0.34305 0.20822-0.34305 0.54785 0 0.34476 0.17579 0.54274 0.34476 0.54274 0.15361 0 0.33622-0.16726 0.33622-0.5342 0-0.36183-0.17408-0.55639-0.33793-0.55639zm0.16556 0.24406-0.37378 0.48471c-0.0154-0.0597-0.0239-0.1263-0.0239-0.2014 0-0.27307 0.12459-0.42326 0.23041-0.42326 0.058 0 0.12117 0.0461 0.16726 0.13995zm0.0393 0.11264c0.0154 0.0597 0.0222 0.13142 0.0222 0.21505 0 0.29697-0.12801 0.40961-0.22188 0.40961-0.0632 0-0.128-0.0512-0.17408-0.14507z"/>
     <path d="m195.7 177.36 0.0853 0.041 0.18603-0.29867 0.16555 0.29867 0.0922-0.0427-0.23212-0.43692h-0.0376z"/>
     <path d="m196.83 176.92c-0.16897 0-0.34306 0.20822-0.34306 0.54785 0 0.34476 0.1758 0.54274 0.34476 0.54274 0.15361 0 0.33623-0.16726 0.33623-0.5342 0-0.36183-0.17409-0.55639-0.33793-0.55639zm0.16555 0.24406-0.37377 0.48471c-0.0154-0.0597-0.0239-0.1263-0.0239-0.2014 0-0.27307 0.12459-0.42326 0.23041-0.42326 0.058 0 0.12118 0.0461 0.16726 0.13995zm0.0392 0.11264c0.0154 0.0597 0.0222 0.13142 0.0222 0.21505 0 0.29697-0.128 0.40961-0.22187 0.40961-0.0631 0-0.12801-0.0512-0.17409-0.14507z"/>
    </g>
    <g aria-label="10^4">
     <path d="m199.99 176.93h-0.0785l-0.27308 0.14166 0.0273 0.0666 0.21163-0.0597v0.82264h-0.19798v0.0939h0.50178v-0.0939h-0.19115z"/>
     <path d="m200.76 176.92c-0.16897 0-0.34305 0.20822-0.34305 0.54785 0 0.34476 0.17579 0.54274 0.34476 0.54274 0.1536 0 0.33622-0.16726 0.33622-0.5342 0-0.36183-0.17409-0.55639-0.33793-0.55639zm0.16555 0.24406-0.37377 0.48471c-0.0154-0.0597-0.0239-0.1263-0.0239-0.2014 0-0.27307 0.12459-0.42326 0.23041-0.42326 0.058 0 0.12118 0.0461 0.16726 0.13995zm0.0393 0.11264c0.0154 0.0597 0.0222 0.13142 0.0222 0.21505 0 0.29697-0.128 0.40961-0.22187 0.40961-0.0632 0-0.12801-0.0512-0.17409-0.14507z"/>
     <path d="m201.35 177.36 0.0853 0.041 0.18604-0.29867 0.16555 0.29867 0.0922-0.0427-0.23211-0.43692h-0.0376z"/>
     <path d="m202.58 176.93-0.45228 0.68099v0.0887h0.42838v0.29356h0.12289v-0.29185h0.13824v-0.10582h-0.13824v-0.66562zm-0.0222 0.18945v0.47617h-0.31233z"/>
    </g>
    <g aria-label="10^8">
     <path d="m205.63 176.93h-0.0785l-0.27307 0.14166 0.0273 0.0666 0.21164-0.0597v0.82264h-0.19798v0.0939h0.50177v-0.0939h-0.19115z"/>
     <path d="m206.41 176.92c-0.16896 0-0.34305 0.20822-0.34305 0.54785 0 0.34476 0.17579 0.54274 0.34476 0.54274 0.1536 0 0.33622-0.16726 0.33622-0.5342 0-0.36183-0.17408-0.55639-0.33793-0.55639zm0.16555 0.24406-0.37377 0.48471c-0.0154-0.0597-0.0239-0.1263-0.0239-0.2014 0-0.27307 0.12459-0.42326 0.23041-0.42326 0.058 0 0.12117 0.0461 0.16725 0.13995zm0.0393 0.11264c0.0154 0.0597 0.0222 0.13142 0.0222 0.21505 0 0.29697-0.12801 0.40961-0.22188 0.40961-0.0632 0-0.128-0.0512-0.17408-0.14507z"/>
     <path d="m206.99 177.36 0.0853 0.041 0.18603-0.29867 0.16555 0.29867 0.0922-0.0427-0.23212-0.43692h-0.0376z"/>
     <path d="m208.13 176.91c-0.16384 0-0.28843 0.11776-0.28843 0.26112 0 0.10411 0.0666 0.19969 0.16214 0.24919-0.1263 0.0597-0.21164 0.17579-0.21164 0.29867 0 0.15873 0.13995 0.28502 0.32257 0.28502 0.18604 0 0.32769-0.12971 0.32769-0.29184 0-0.1263-0.0853-0.23895-0.2048-0.29527 0.1024-0.0529 0.16896-0.1536 0.16896-0.25601 0-0.13995-0.12118-0.25088-0.27649-0.25088zm-0.0358 0.5598c0.13654 0.0427 0.227 0.13654 0.227 0.24065 0 0.1024-0.0871 0.18603-0.2014 0.18603-0.11605 0-0.2048-0.087-0.2048-0.19286 0-0.10069 0.0785-0.19286 0.1792-0.23382zm0.0256-0.46081c0.0956 0 0.17067 0.0717 0.17067 0.16043 0 0.0819-0.0631 0.16043-0.14677 0.2048 0 0-0.18774-0.0717-0.18774-0.21334 0-0.0836 0.0717-0.15189 0.16384-0.15189z"/>
    </g>
    <g aria-label="10^12">
     <path d="m211 176.93h-0.0785l-0.27308 0.14166 0.0273 0.0666 0.21163-0.0597v0.82264h-0.19798v0.0939h0.50178v-0.0939h-0.19116z"/>
     <path d="m211.77 176.92c-0.16897 0-0.34305 0.20822-0.34305 0.54785 0 0.34476 0.17579 0.54274 0.34475 0.54274 0.15361 0 0.33623-0.16726 0.33623-0.5342 0-0.36183-0.17409-0.55639-0.33793-0.55639zm0.16555 0.24406-0.37377 0.48471c-0.0154-0.0597-0.0239-0.1263-0.0239-0.2014 0-0.27307 0.12459-0.42326 0.23041-0.42326 0.058 0 0.12118 0.0461 0.16726 0.13995zm0.0392 0.11264c0.0154 0.0597 0.0222 0.13142 0.0222 0.21505 0 0.29697-0.128 0.40961-0.22187 0.40961-0.0632 0-0.12801-0.0512-0.17409-0.14507z"/>
     <path d="m212.35 177.36 0.0853 0.041 0.18603-0.29867 0.16556 0.29867 0.0922-0.0427-0.23211-0.43692h-0.0376z"/>
     <path d="m213.56 176.93h-0.0785l-0.27308 0.14166 0.0273 0.0666 0.21163-0.0597v0.82264h-0.19797v0.0939h0.50177v-0.0939h-0.19115z"/>
     <path d="m214.03 177.09 0.087 0.07c0.0102-0.0154 5e-3 -0.0256 0.0154-0.0393 0.0256-0.0393 0.0888-0.0973 0.18092-0.0973 0.11435 0 0.2048 0.0871 0.2048 0.2014 0 0.12971-0.10923 0.22358-0.18603 0.29355-0.12118 0.10923-0.22017 0.21846-0.30892 0.39426v0.0751h0.62466v-0.11776c-0.0119-5e-3 -0.0205 3e-3 -0.0239 7e-3 -7e-3 7e-3 -0.0102 7e-3 -0.0171 7e-3h-0.44716c0.0888-0.1536 0.21334-0.25942 0.29015-0.3311 0.0768-0.0734 0.18603-0.18262 0.18603-0.33623 0-0.16555-0.13483-0.29867-0.30721-0.29867-0.12118 0-0.23553 0.0649-0.29868 0.17237z"/>
    </g>
    <g aria-label="10^-30">
     <path d="m172.9 174.95h-0.0785l-0.27307 0.14166 0.0273 0.0666 0.21163-0.0597v0.82264h-0.19798v0.0939h0.50178v-0.0939h-0.19116z"/>
     <path d="m173.67 174.94c-0.16897 0-0.34306 0.20822-0.34306 0.54786 0 0.34476 0.1758 0.54274 0.34476 0.54274 0.15361 0 0.33623-0.16726 0.33623-0.53421 0-0.36182-0.17409-0.55639-0.33793-0.55639zm0.16555 0.24406-0.37378 0.48471c-0.0154-0.0597-0.0239-0.1263-0.0239-0.20139 0-0.27308 0.12459-0.42327 0.23041-0.42327 0.058 0 0.12118 0.0461 0.16726 0.13995zm0.0392 0.11265c0.0154 0.0597 0.0222 0.13141 0.0222 0.21504 0 0.29697-0.128 0.40962-0.22187 0.40962-0.0631 0-0.12801-0.0512-0.17409-0.14508z"/>
     <path d="m174.25 175.39 0.0853 0.041 0.18603-0.29868 0.16556 0.29868 0.0922-0.0427-0.23212-0.43692h-0.0375z"/>
     <path d="m175.07 175.42v0.11265h0.61442v-0.11265z"/>
     <path d="m176.5 175.22c0-0.14508-0.12289-0.26967-0.29185-0.26967-0.0956 0-0.18945 0.041-0.25601 0.11435l0.0666 0.0734c0.0495-0.0529 0.11777-0.0819 0.18433-0.0819 0.10923 0 0.18432 0.0768 0.18432 0.16726 0 0.0632-0.0393 0.13483-0.11435 0.16726-0.0188 7e-3 -0.0666 0.0256-0.16725 0.0256v0.0956c0.0171-2e-3 0.0358-3e-3 0.0546-3e-3 0.14337 0 0.24918 0.0751 0.24918 0.2031 0 0.11606-0.0888 0.21676-0.21334 0.21676-0.099 0-0.15872-0.0649-0.16726-0.0734-0.0137-0.0154-7e-3 -0.0324-0.0222-0.0478l-0.0888 0.10752c0.07 0.0802 0.17238 0.12118 0.27819 0.12118 0.20481 0 0.32769-0.14507 0.32769-0.31062 0-0.1263-0.0717-0.23383-0.18262-0.27479 0.0956-0.0358 0.15873-0.12629 0.15873-0.2304z"/>
     <path d="m177.08 174.94c-0.16896 0-0.34305 0.20822-0.34305 0.54786 0 0.34476 0.17579 0.54274 0.34476 0.54274 0.1536 0 0.33622-0.16726 0.33622-0.53421 0-0.36182-0.17408-0.55639-0.33793-0.55639zm0.16555 0.24406-0.37377 0.48471c-0.0154-0.0597-0.0239-0.1263-0.0239-0.20139 0-0.27308 0.12459-0.42327 0.2304-0.42327 0.058 0 0.12118 0.0461 0.16726 0.13995zm0.0393 0.11265c0.0154 0.0597 0.0222 0.13141 0.0222 0.21504 0 0.29697-0.12801 0.40962-0.22188 0.40962-0.0632 0-0.128-0.0512-0.17408-0.14508z"/>
    </g>
    <g aria-label="10^-24">
     <path d="m172.9 169.31h-0.0785l-0.27307 0.14166 0.0273 0.0666 0.21163-0.0597v0.82264h-0.19798v0.0939h0.50178v-0.0939h-0.19116z"/>
     <path d="m173.67 169.3c-0.16897 0-0.34306 0.20822-0.34306 0.54785 0 0.34476 0.1758 0.54274 0.34476 0.54274 0.15361 0 0.33623-0.16726 0.33623-0.5342 0-0.36183-0.17409-0.55639-0.33793-0.55639zm0.16555 0.24406-0.37378 0.48471c-0.0154-0.0597-0.0239-0.1263-0.0239-0.2014 0-0.27307 0.12459-0.42326 0.23041-0.42326 0.058 0 0.12118 0.0461 0.16726 0.13995zm0.0392 0.11264c0.0154 0.0597 0.0222 0.13142 0.0222 0.21505 0 0.29697-0.128 0.40961-0.22187 0.40961-0.0631 0-0.12801-0.0512-0.17409-0.14507z"/>
     <path d="m174.25 169.74 0.0853 0.041 0.18603-0.29868 0.16556 0.29868 0.0922-0.0427-0.23212-0.43692h-0.0375z"/>
     <path d="m175.07 169.78v0.11264h0.61442v-0.11264z"/>
     <path d="m175.93 169.47 0.087 0.07c0.0102-0.0154 5e-3 -0.0256 0.0154-0.0393 0.0256-0.0393 0.0888-0.0973 0.18092-0.0973 0.11435 0 0.2048 0.0871 0.2048 0.2014 0 0.12971-0.10923 0.22358-0.18603 0.29355-0.12118 0.10923-0.22017 0.21846-0.30892 0.39425v0.0751h0.62466v-0.11776c-0.0119-5e-3 -0.0205 3e-3 -0.0239 7e-3 -7e-3 7e-3 -0.0102 7e-3 -0.0171 7e-3h-0.44716c0.0888-0.1536 0.21334-0.25942 0.29014-0.3311 0.0768-0.0734 0.18604-0.18262 0.18604-0.33623 0-0.16555-0.13483-0.29867-0.30721-0.29867-0.12118 0-0.23553 0.0649-0.29868 0.17237z"/>
     <path d="m177.19 169.31-0.45228 0.68098v0.0888h0.42838v0.29356h0.12289v-0.29185h0.13824v-0.10582h-0.13824v-0.66562zm-0.0222 0.18945v0.47617h-0.31233z"/>
    </g>
    <g aria-label="10^-18">
     <path d="m172.9 163.66h-0.0785l-0.27307 0.14166 0.0273 0.0666 0.21163-0.0597v0.82264h-0.19798v0.0939h0.50178v-0.0939h-0.19116z"/>
     <path d="m173.67 163.65c-0.16897 0-0.34306 0.20822-0.34306 0.54785 0 0.34476 0.1758 0.54274 0.34476 0.54274 0.15361 0 0.33623-0.16726 0.33623-0.5342 0-0.36183-0.17409-0.55639-0.33793-0.55639zm0.16555 0.24406-0.37378 0.48471c-0.0154-0.0597-0.0239-0.1263-0.0239-0.2014 0-0.27307 0.12459-0.42326 0.23041-0.42326 0.058 0 0.12118 0.0461 0.16726 0.13995zm0.0392 0.11264c0.0154 0.0597 0.0222 0.13142 0.0222 0.21505 0 0.29697-0.128 0.40961-0.22187 0.40961-0.0631 0-0.12801-0.0512-0.17409-0.14507z"/>
     <path d="m174.25 164.1 0.0853 0.041 0.18603-0.29867 0.16556 0.29867 0.0922-0.0427-0.23212-0.43692h-0.0375z"/>
     <path d="m175.07 164.13v0.11264h0.61442v-0.11264z"/>
     <path d="m176.31 163.66h-0.0785l-0.27308 0.14166 0.0273 0.0666 0.21164-0.0597v0.82264h-0.19798v0.0939h0.50177v-0.0939h-0.19115z"/>
     <path d="m177.1 163.65c-0.16385 0-0.28844 0.11776-0.28844 0.26112 0 0.10411 0.0666 0.19969 0.16214 0.24919-0.1263 0.0597-0.21163 0.17579-0.21163 0.29867 0 0.15873 0.13995 0.28502 0.32257 0.28502 0.18603 0 0.32769-0.12971 0.32769-0.29184 0-0.1263-0.0853-0.23895-0.20481-0.29527 0.10241-0.0529 0.16897-0.1536 0.16897-0.25601 0-0.13995-0.12118-0.25088-0.27649-0.25088zm-0.0358 0.5598c0.13653 0.0427 0.22699 0.13654 0.22699 0.24065 0 0.1024-0.087 0.18603-0.20139 0.18603-0.11606 0-0.20481-0.087-0.20481-0.19286 0-0.1007 0.0785-0.19286 0.17921-0.23382zm0.0256-0.46081c0.0956 0 0.17067 0.0717 0.17067 0.16043 0 0.0819-0.0632 0.16043-0.14678 0.2048 0 0-0.18774-0.0717-0.18774-0.21334 0-0.0836 0.0717-0.15189 0.16385-0.15189z"/>
    </g>
    <g aria-label="10^-12">
     <path d="m172.9 158.02h-0.0785l-0.27307 0.14166 0.0273 0.0666 0.21163-0.0597v0.82264h-0.19798v0.0939h0.50178v-0.0939h-0.19116z"/>
     <path d="m173.67 158.01c-0.16897 0-0.34306 0.20822-0.34306 0.54785 0 0.34476 0.1758 0.54274 0.34476 0.54274 0.15361 0 0.33623-0.16726 0.33623-0.5342 0-0.36183-0.17409-0.55639-0.33793-0.55639zm0.16555 0.24406-0.37378 0.48471c-0.0154-0.0597-0.0239-0.1263-0.0239-0.2014 0-0.27307 0.12459-0.42326 0.23041-0.42326 0.058 0 0.12118 0.0461 0.16726 0.13995zm0.0392 0.11264c0.0154 0.0597 0.0222 0.13142 0.0222 0.21505 0 0.29697-0.128 0.40961-0.22187 0.40961-0.0631 0-0.12801-0.0512-0.17409-0.14507z"/>
     <path d="m174.25 158.46 0.0853 0.041 0.18603-0.29867 0.16556 0.29867 0.0922-0.0427-0.23212-0.43692h-0.0375z"/>
     <path d="m175.07 158.49v0.11264h0.61442v-0.11264z"/>
     <path d="m176.31 158.02h-0.0785l-0.27308 0.14166 0.0273 0.0666 0.21164-0.0597v0.82264h-0.19798v0.0939h0.50177v-0.0939h-0.19115z"/>
     <path d="m176.79 158.18 0.087 0.07c0.0102-0.0154 5e-3 -0.0256 0.0154-0.0393 0.0256-0.0393 0.0888-0.0973 0.18092-0.0973 0.11435 0 0.2048 0.0871 0.2048 0.2014 0 0.12971-0.10923 0.22358-0.18603 0.29355-0.12118 0.10923-0.22017 0.21846-0.30892 0.39426v0.0751h0.62467v-0.11776c-0.012-5e-3 -0.0205 3e-3 -0.0239 7e-3 -7e-3 7e-3 -0.0102 7e-3 -0.0171 7e-3h-0.44716c0.0888-0.1536 0.21334-0.25942 0.29015-0.3311 0.0768-0.0734 0.18603-0.18262 0.18603-0.33623 0-0.16555-0.13483-0.29867-0.30721-0.29867-0.12118 0-0.23553 0.0648-0.29868 0.17237z"/>
    </g>
    <g aria-label="10^-6">
     <path d="m173.74 152.37h-0.0785l-0.27308 0.14166 0.0273 0.0666 0.21163-0.0597v0.82264h-0.19798v0.0939h0.50178v-0.0939h-0.19115z"/>
     <path d="m174.52 152.37c-0.16897 0-0.34305 0.20822-0.34305 0.54786 0 0.34476 0.17579 0.54274 0.34476 0.54274 0.1536 0 0.33622-0.16726 0.33622-0.53421 0-0.36182-0.17409-0.55639-0.33793-0.55639zm0.16555 0.24406-0.37377 0.48471c-0.0154-0.0597-0.0239-0.1263-0.0239-0.20139 0-0.27308 0.12459-0.42327 0.2304-0.42327 0.058 0 0.12118 0.0461 0.16726 0.13995zm0.0393 0.11265c0.0154 0.0597 0.0222 0.13141 0.0222 0.21504 0 0.29697-0.128 0.40962-0.22187 0.40962-0.0632 0-0.128-0.0512-0.17409-0.14507z"/>
     <path d="m175.1 152.81 0.0853 0.041 0.18604-0.29868 0.16555 0.29868 0.0922-0.0427-0.23211-0.43692h-0.0376z"/>
     <path d="m175.91 152.84v0.11265h0.61442v-0.11265z"/>
     <path d="m177.14 152.36c-0.12801 0-0.26455 0.0785-0.33111 0.26454-0.0358 0.1007-0.0444 0.22529-0.0444 0.32769 0 0.12459 0.0119 0.25772 0.0802 0.36012 0.0615 0.0939 0.15702 0.14166 0.25089 0.14166 0.16214 0 0.3038-0.13654 0.3038-0.3567 0-0.22017-0.14166-0.34818-0.29185-0.34818-0.0922 0-0.17921 0.0495-0.22529 0.12801 7e-3 -0.36353 0.18091-0.41132 0.25772-0.41132 0.07 0 0.11776 0.0376 0.12459 0.0444 0.0102 0.0119 0.0102 0.0273 0.0256 0.0393l0.0819-0.0922c-0.0614-0.0614-0.14678-0.0973-0.23211-0.0973zm-0.0444 0.49495c0.0853 0 0.18774 0.0666 0.18774 0.24918 0 0.16555-0.0922 0.24406-0.18262 0.24406-0.12971 0-0.22699-0.15189-0.21334-0.35158 0.0478-0.087 0.12971-0.14166 0.20822-0.14166z"/>
    </g>
   </g>
   <g>
    <g fill="#6fb2e9" stroke-width=".28222px" aria-label="10^0">
     <path d="m174.59 146.73h-0.0785l-0.27308 0.14166 0.0273 0.0666 0.21163-0.0597v0.82264h-0.19798v0.0939h0.50178v-0.0939h-0.19115z"/>
     <path d="m175.36 146.72c-0.16897 0-0.34305 0.20822-0.34305 0.54786 0 0.34476 0.17579 0.54274 0.34476 0.54274 0.1536 0 0.33622-0.16726 0.33622-0.53421 0-0.36182-0.17409-0.55639-0.33793-0.55639zm0.16555 0.24406-0.37377 0.48471c-0.0154-0.0597-0.0239-0.1263-0.0239-0.20139 0-0.27308 0.1246-0.42327 0.23041-0.42327 0.058 0 0.12118 0.0461 0.16726 0.13995zm0.0393 0.11265c0.0154 0.0597 0.0222 0.13141 0.0222 0.21504 0 0.29697-0.128 0.40962-0.22187 0.40962-0.0632 0-0.128-0.0512-0.17409-0.14507z"/>
     <path d="m175.95 147.17 0.0853 0.041 0.18604-0.29868 0.16555 0.29868 0.0922-0.0427-0.23211-0.43692h-0.0376z"/>
     <path d="m177.07 146.72c-0.16896 0-0.34305 0.20822-0.34305 0.54786 0 0.34476 0.17579 0.54274 0.34476 0.54274 0.1536 0 0.33622-0.16726 0.33622-0.53421 0-0.36182-0.17408-0.55639-0.33793-0.55639zm0.16555 0.24406-0.37377 0.48471c-0.0154-0.0597-0.0239-0.1263-0.0239-0.20139 0-0.27308 0.12459-0.42327 0.23041-0.42327 0.058 0 0.12117 0.0461 0.16725 0.13995zm0.0393 0.11265c0.0154 0.0597 0.0222 0.13141 0.0222 0.21504 0 0.29697-0.12801 0.40962-0.22188 0.40962-0.0631 0-0.128-0.0512-0.17408-0.14507z"/>
    </g>
    <g fill="#e9e56f" stroke-width=".28222px" aria-label="10^6">
     <path d="m174.59 141.08h-0.0785l-0.27308 0.14166 0.0273 0.0666 0.21163-0.0597v0.82264h-0.19798v0.0939h0.50178v-0.0939h-0.19115z"/>
     <path d="m175.36 141.08c-0.16897 0-0.34305 0.20822-0.34305 0.54786 0 0.34476 0.17579 0.54274 0.34476 0.54274 0.1536 0 0.33622-0.16726 0.33622-0.53421 0-0.36182-0.17409-0.55639-0.33793-0.55639zm0.16555 0.24406-0.37377 0.48471c-0.0154-0.0597-0.0239-0.1263-0.0239-0.20139 0-0.27308 0.1246-0.42327 0.23041-0.42327 0.058 0 0.12118 0.0461 0.16726 0.13995zm0.0393 0.11265c0.0154 0.0597 0.0222 0.13141 0.0222 0.21504 0 0.29697-0.128 0.40962-0.22187 0.40962-0.0632 0-0.128-0.0512-0.17409-0.14507z"/>
     <path d="m175.95 141.52 0.0853 0.041 0.18604-0.29868 0.16555 0.29868 0.0922-0.0427-0.23211-0.43692h-0.0376z"/>
     <path d="m177.13 141.07c-0.128 0-0.26454 0.0785-0.3311 0.26454-0.0358 0.1007-0.0444 0.22529-0.0444 0.32769 0 0.1246 0.0119 0.25772 0.0802 0.36012 0.0614 0.0939 0.15702 0.14166 0.25089 0.14166 0.16214 0 0.3038-0.13654 0.3038-0.3567 0-0.22017-0.14166-0.34818-0.29185-0.34818-0.0922 0-0.17921 0.0495-0.22529 0.12801 7e-3 -0.36353 0.18091-0.41132 0.25771-0.41132 0.07 0 0.11777 0.0375 0.12459 0.0444 0.0103 0.012 0.0103 0.0273 0.0256 0.0393l0.0819-0.0922c-0.0614-0.0614-0.14678-0.0973-0.23212-0.0973zm-0.0444 0.49495c0.0853 0 0.18774 0.0666 0.18774 0.24918 0 0.16555-0.0922 0.24406-0.18262 0.24406-0.12971 0-0.22699-0.15189-0.21334-0.35158 0.0478-0.087 0.12971-0.14166 0.20822-0.14166z"/>
    </g>
    <path d="m178.47 174.81 34.125-23.955" fill="none" stroke="#e9e56f" stroke-width=".26458"/>
    <path d="m178.47 166.34 34.125-23.955" fill="none" stroke="#d54747" stroke-width=".26458"/>
    <g fill="#e07979" stroke-width=".28222px" aria-label="Single Precision 32b">
     <path d="m213.95 141.49c-0.0648-0.0787-0.16042-0.12031-0.2653-0.12031-0.1743 0-0.29307 0.11414-0.29307 0.24679 0 0.0555 0.0216 0.12802 0.10181 0.18663 0.0895 0.0663 0.22828 0.0987 0.30077 0.14499 0.0632 0.0386 0.0802 0.0895 0.0802 0.13265 0 0.0833-0.071 0.1743-0.20977 0.1743-0.10489 0-0.18664-0.0525-0.22983-0.10643-5e-3 -6e-3 -5e-3 -9e-3 -5e-3 -0.0154 0-3e-3 0-0.0123-6e-3 -0.0154l-0.0648 0.11106c0.0756 0.0817 0.18355 0.12339 0.30232 0.12339 0.23445 0 0.32083-0.15733 0.32083-0.27764 0-0.0509-0.0154-0.11722-0.0756-0.17429-0.0833-0.0787-0.21903-0.10643-0.30695-0.15733-0.0802-0.0478-0.0972-0.10489-0.0972-0.14345 0-0.074 0.0632-0.14036 0.17275-0.14036 0.0895 0 0.15887 0.0401 0.19589 0.0941 5e-3 6e-3 3e-3 9e-3 3e-3 0.0154 0 9e-3 5e-3 0.0123 8e-3 0.0123z"/>
     <path d="m214.22 141.63v0.091h0.16967v0.52597h-0.17892v0.0879h0.45656v-0.0879h-0.16504v-0.61697zm0.22828-0.3054c-0.0447 0-0.0802 0.0355-0.0802 0.0787s0.0355 0.0787 0.0802 0.0787 0.0802-0.0355 0.0802-0.0787-0.0355-0.0787-0.0802-0.0787z"/>
     <path d="m214.93 142.33h0.1126v-0.40566c0-0.0463 6e-3 -0.0817 0.0355-0.12031 0.0262-0.0355 0.0941-0.0987 0.16813-0.0987 0.0355 0 0.0709 0.0154 0.0956 0.0447 0.0386 0.0463 0.0386 0.10643 0.0386 0.15578v0.42417h0.10951v-0.42725c0-0.054 0-0.1126-0.0247-0.16967-0.0355-0.0787-0.10797-0.12339-0.18817-0.12339-0.0956 0-0.18201 0.0617-0.23445 0.14036v-0.1234h-0.1126z"/>
     <path d="m215.79 141.85c0-0.0848 0.071-0.15424 0.15579-0.15424 0.0864 0 0.15579 0.0694 0.15579 0.15424 0 0.0848-0.0694 0.15424-0.15579 0.15424-0.0864 0-0.15579-0.0694-0.15579-0.15424zm0.16196-0.24216c-0.14036 0-0.26221 0.11105-0.26221 0.24833 0 0.0771 0.0386 0.14961 0.10334 0.19126-0.0509 0.0432-0.0802 0.091-0.0802 0.13573 0 0.0293 0.0123 0.071 0.0571 0.0941-0.0756 0.0478-0.11414 0.10026-0.11414 0.15579 0 0.0771 0.071 0.16812 0.31774 0.16812 0.23908 0 0.32546-0.12185 0.32546-0.21594 0-0.0617-0.0355-0.12339-0.10952-0.1527-0.074-0.0309-0.15887-0.02-0.23907-0.02-0.0525 0-0.0864-5e-3 -0.10026-9e-3 -0.0278-8e-3 -0.0432-0.0247-0.0432-0.0463 0-0.037 0.0432-0.0725 0.0509-0.0787 0.0278 0.0108 0.0586 0.0154 0.0895 0.0154 0.13882 0 0.25296-0.11105 0.25296-0.24062 0-0.0432-0.0123-0.0848-0.0355-0.12031 0.037-0.0216 0.0802-0.0339 0.1234-0.0339 0.0139 0 0.0262 2e-3 0.0401 5e-3l-0.0123-0.091c-0.0709-6e-3 -0.1419 0.017-0.19589 0.0617-0.0447-0.0432-0.10334-0.0663-0.16812-0.0663zm-0.10643 0.68946c0.0262 3e-3 0.0632 6e-3 0.11723 9e-3 0.0524 2e-3 0.10951-3e-3 0.14961 3e-3 0.0648 0.0108 0.0848 0.0509 0.0848 0.0817 0 0.0309-0.0185 0.0679-0.0663 0.0941-0.0524 0.0278-0.11105 0.0308-0.15887 0.0308-0.0324 0-0.0926-2e-3 -0.14499-0.0231-0.0571-0.0231-0.0694-0.0617-0.0694-0.0864 0-0.0509 0.0478-0.0879 0.0879-0.10952z"/>
     <path d="m216.5 141.31v0.0895h0.20052v0.84679h-0.20977v0.0879h0.52905v-0.0879h-0.20823v-0.93625z"/>
     <path d="m217.54 141.61c-0.16813 0-0.32391 0.12031-0.32391 0.37635 0 0.23599 0.14653 0.36093 0.33779 0.36093 0.1018 0 0.19281-0.037 0.25296-0.10951l-0.0617-0.0602c-0.0447 0.0524-0.11259 0.0802-0.182 0.0802-0.0941 0-0.23137-0.0524-0.23908-0.26376h0.49975c5e-3 -0.0478 3e-3 -0.0941-5e-3 -0.13419-0.0324-0.18972-0.1635-0.24987-0.27918-0.24987zm-0.21286 0.29923c0.0231-0.16658 0.12957-0.2144 0.20515-0.2144 0.11414 0 0.19589 0.10026 0.182 0.2144z"/>
     <path d="m218.77 141.37v0.96093h0.11259v-0.42417h0.18818c0.0602 0 0.11723-2e-3 0.17584-0.0308 0.0895-0.0447 0.13573-0.13728 0.13573-0.23445 0-0.0972-0.0463-0.19127-0.13727-0.23754-0.0602-0.0324-0.12031-0.0339-0.18201-0.0339zm0.11259 0.1018h0.18047c0.0401 0 0.0787 2e-3 0.11877 0.02 0.0586 0.0308 0.091 0.0925 0.091 0.15424 0 0.0617-0.0309 0.11877-0.0864 0.14653-0.037 0.0185-0.074 0.0201-0.11105 0.0201h-0.19435z"/>
     <path d="m219.6 141.63v0.7049h0.11106v-0.34242c0-0.0432 2e-3 -0.0895 0.0494-0.16504 0.0648-0.10181 0.14807-0.11877 0.19897-0.11877 0.0586 0 0.0956 0.0278 0.11568 0.0524 9e-3 0.0123 0.0139 0.0247 0.0262 0.0355l0.0524-0.10643c-0.0447-0.0463-0.10952-0.0771-0.18818-0.0771-0.10334 0-0.20823 0.0524-0.2545 0.1527l5e-3 -0.13574z"/>
     <path d="m220.62 141.61c-0.16813 0-0.32391 0.12031-0.32391 0.37635 0 0.23599 0.14653 0.36093 0.33779 0.36093 0.1018 0 0.1928-0.037 0.25296-0.10951l-0.0617-0.0602c-0.0447 0.0524-0.1126 0.0802-0.18201 0.0802-0.0941 0-0.23136-0.0524-0.23907-0.26376h0.49974c5e-3 -0.0478 3e-3 -0.0941-5e-3 -0.13419-0.0324-0.18972-0.1635-0.24987-0.27918-0.24987zm-0.21286 0.29923c0.0231-0.16658 0.12956-0.2144 0.20514-0.2144 0.11414 0 0.19589 0.10026 0.18201 0.2144z"/>
     <path d="m221.7 141.74c-0.0555-0.0817-0.14961-0.13111-0.26375-0.13111-0.20669 0-0.35322 0.15579-0.35322 0.3671 0 0.21285 0.14653 0.37018 0.34705 0.37018 0.0972 0 0.1928-0.0401 0.25913-0.1126l-0.0632-0.074c-0.0478 0.054-0.11723 0.0848-0.18664 0.0848-0.13727 0-0.24216-0.11414-0.24216-0.27918 0-0.16041 0.10334-0.26067 0.23291-0.26067 0.12031 0 0.17738 0.0833 0.18201 0.0925 6e-3 0.0108-3e-3 0.0262 9e-3 0.0355z"/>
     <path d="m221.93 141.63v0.091h0.16967v0.52597h-0.17893v0.0879h0.45656v-0.0879h-0.16504v-0.61697zm0.22828-0.3054c-0.0447 0-0.0802 0.0355-0.0802 0.0787s0.0355 0.0787 0.0802 0.0787 0.0802-0.0355 0.0802-0.0787-0.0355-0.0787-0.0802-0.0787z"/>
     <path d="m223.2 141.72c-0.0648-0.0709-0.15887-0.10951-0.26376-0.10951-0.16349 0-0.26992 0.091-0.26992 0.19589 0 0.12339 0.13265 0.16812 0.17121 0.182 0.0602 0.0216 0.13727 0.0401 0.18972 0.0648 0.0586 0.0278 0.0694 0.0648 0.0694 0.0895 0 0.0663-0.0802 0.11105-0.18047 0.11105-0.12031 0-0.19743-0.0725-0.22057-0.0972-5e-3 -6e-3 -5e-3 -0.0108-5e-3 -0.017 0-2e-3 2e-3 -0.0108-6e-3 -0.0139l-0.0648 0.10951c0.0833 0.0771 0.19127 0.1126 0.29769 0.1126 0.19281 0 0.29307-0.11414 0.29307-0.22057 0-0.0478-0.0201-0.1126-0.10335-0.15887-0.0787-0.0447-0.1928-0.0601-0.25913-0.0925-0.0571-0.0278-0.0694-0.0617-0.0694-0.0864 0-0.0555 0.0694-0.0956 0.14807-0.0956 0.1018 0 0.16967 0.0617 0.19589 0.0972 5e-3 5e-3 3e-3 9e-3 3e-3 0.0139 0 9e-3 6e-3 0.0123 9e-3 0.0123z"/>
     <path d="m223.47 141.63v0.091h0.16967v0.52597h-0.17892v0.0879h0.45656v-0.0879h-0.16504v-0.61697zm0.22828-0.3054c-0.0447 0-0.0802 0.0355-0.0802 0.0787s0.0355 0.0787 0.0802 0.0787 0.0802-0.0355 0.0802-0.0787-0.0355-0.0787-0.0802-0.0787z"/>
     <path d="m224.79 141.98c0-0.2437-0.15424-0.37018-0.31466-0.37018-0.17892 0-0.33316 0.15424-0.33316 0.37327 0 0.2144 0.1527 0.36555 0.33008 0.36555 0.16658 0 0.31774-0.13419 0.31774-0.36864zm-0.32237-0.27609c0.1018 0 0.20977 0.0879 0.20977 0.28072 0 0.17738-0.1018 0.26684-0.2036 0.26684-0.1126 0-0.2144-0.10488-0.2144-0.27918 0-0.17275 0.10026-0.26838 0.20823-0.26838z"/>
     <path d="m224.96 142.33h0.1126v-0.40566c0-0.0463 6e-3 -0.0817 0.0355-0.12031 0.0262-0.0355 0.0941-0.0987 0.16812-0.0987 0.0355 0 0.071 0.0154 0.0956 0.0447 0.0386 0.0463 0.0386 0.10643 0.0386 0.15578v0.42417h0.10952v-0.42725c0-0.054 0-0.1126-0.0247-0.16967-0.0355-0.0787-0.10797-0.12339-0.18818-0.12339-0.0956 0-0.18201 0.0617-0.23445 0.14036v-0.1234h-0.1126z"/>
     <path d="m227.03 141.61c0-0.13111-0.11106-0.24371-0.26376-0.24371-0.0864 0-0.17121 0.037-0.23136 0.10335l0.0601 0.0663c0.0447-0.0478 0.10643-0.074 0.16658-0.074 0.0987 0 0.16659 0.0694 0.16659 0.15116 0 0.0571-0.0355 0.12185-0.10335 0.15116-0.017 6e-3 -0.0602 0.0231-0.15115 0.0231v0.0864c0.0154-2e-3 0.0324-3e-3 0.0494-3e-3 0.12957 0 0.2252 0.0679 0.2252 0.18355 0 0.10488-0.0802 0.19589-0.19281 0.19589-0.0895 0-0.14344-0.0586-0.15115-0.0663-0.0123-0.0139-6e-3 -0.0293-0.0201-0.0432l-0.0802 0.0972c0.0632 0.0725 0.15578 0.10951 0.25141 0.10951 0.1851 0 0.29615-0.13111 0.29615-0.28072 0-0.11414-0.0648-0.21132-0.16504-0.24833 0.0864-0.0324 0.14345-0.11414 0.14345-0.20823z"/>
     <path d="m227.28 141.52 0.0787 0.0632c9e-3 -0.0139 5e-3 -0.0231 0.0139-0.0355 0.0231-0.0355 0.0802-0.0879 0.1635-0.0879 0.10334 0 0.18509 0.0787 0.18509 0.18201 0 0.11722-0.0987 0.20205-0.16813 0.26529-0.10951 0.0987-0.19897 0.19744-0.27918 0.35631v0.0679h0.56453v-0.10642c-0.0108-5e-3 -0.0185 3e-3 -0.0216 6e-3 -6e-3 6e-3 -9e-3 6e-3 -0.0154 6e-3h-0.40412c0.0802-0.13881 0.1928-0.23445 0.26221-0.29923 0.0694-0.0663 0.16813-0.16504 0.16813-0.30386 0-0.14961-0.12185-0.26992-0.27764-0.26992-0.10951 0-0.21286 0.0586-0.26993 0.15578z"/>
     <path d="m228.03 141.31v1.0257h0.0725l0.0386-0.0925c0.0463 0.0694 0.1234 0.11105 0.20823 0.11105 0.14499 0 0.29461-0.12339 0.29461-0.37944 0-0.24524-0.14499-0.35938-0.28381-0.35938-0.0895 0-0.17276 0.0478-0.21749 0.12493v-0.39486c0-9e-3 2e-3 -0.0123 9e-3 -0.0185 3e-3 -2e-3 0.0108-8e-3 9e-3 -0.017zm0.29152 0.40103c0.0663 0 0.20668 0.0386 0.20668 0.28843 0 0.2144-0.13882 0.2545-0.20823 0.2545-0.0478 0-0.15424-0.0185-0.17275-0.15424-5e-3 -0.0355-5e-3 -0.0771-5e-3 -0.13882 0-0.0632 3e-3 -0.10951 0.0185-0.14807 0.0262-0.0632 0.091-0.1018 0.16042-0.1018z"/>
    </g>
   </g>
   <g fill="#e9e56f" stroke-width=".28222px">
    <g aria-label="Double Precision 64b">
     <path d="m213.36 149.84v0.96248h0.20668c0.0756 0 0.14037-3e-3 0.20823-0.0386 0.13728-0.071 0.21286-0.23445 0.21286-0.44422 0-0.18509-0.0555-0.34704-0.17892-0.42725-0.0694-0.0463-0.13882-0.0524-0.22366-0.0524zm0.1018 0.0925h0.11722c0.0602 0 0.12031 3e-3 0.18047 0.0525 0.0895 0.074 0.11877 0.21131 0.11877 0.34859 0 0.18355-0.0602 0.28843-0.13728 0.34087-0.0602 0.0401-0.12031 0.0432-0.18047 0.0432h-0.0987z"/>
     <path d="m214.76 150.45c0-0.2437-0.15425-0.37018-0.31466-0.37018-0.17892 0-0.33317 0.15424-0.33317 0.37327 0 0.2144 0.1527 0.36555 0.33008 0.36555 0.16659 0 0.31775-0.13419 0.31775-0.36864zm-0.32237-0.27609c0.1018 0 0.20977 0.0879 0.20977 0.28072 0 0.17738-0.1018 0.26684-0.2036 0.26684-0.1126 0-0.2144-0.10488-0.2144-0.27918 0-0.17275 0.10026-0.26838 0.20823-0.26838z"/>
     <path d="m214.92 150.09v0.39332c0 0.0602 0 0.12186 0.0278 0.1851 0.0401 0.0925 0.12648 0.14344 0.21902 0.14344 0.0879 0 0.17121-0.0478 0.21749-0.12494l-2e-3 0.0524c0 0.0185 0 0.037 3e-3 0.054h0.11722c-8e-3 -0.02-9e-3 -0.0432-9e-3 -0.0632v-0.64011h-0.11106v0.38715c0 0.054-5e-3 0.0956-0.0278 0.13882-0.0324 0.0602-0.0956 0.10489-0.1635 0.10489-0.054 0-0.10643-0.0309-0.13419-0.0864-0.0247-0.0494-0.0247-0.10488-0.0247-0.15116v-0.39332z"/>
     <path d="m215.69 149.77v1.0257h0.0725l0.0386-0.0925c0.0463 0.0694 0.12339 0.11105 0.20823 0.11105 0.14499 0 0.2946-0.12339 0.2946-0.37944 0-0.24524-0.14499-0.35938-0.28381-0.35938-0.0895 0-0.17275 0.0478-0.21748 0.12493v-0.39486c0-9e-3 2e-3 -0.0123 9e-3 -0.0185 3e-3 -2e-3 0.0108-8e-3 9e-3 -0.017zm0.29152 0.40104c0.0663 0 0.20669 0.0386 0.20669 0.28843 0 0.2144-0.13882 0.2545-0.20823 0.2545-0.0478 0-0.15424-0.0185-0.17275-0.15424-5e-3 -0.0355-5e-3 -0.0771-5e-3 -0.13882 0-0.0632 3e-3 -0.10951 0.0185-0.14807 0.0262-0.0632 0.091-0.1018 0.16041-0.1018z"/>
     <path d="m216.5 149.77v0.0895h0.20052v0.84679h-0.20977v0.0879h0.52905v-0.0879h-0.20823v-0.93625z"/>
     <path d="m217.54 150.08c-0.16813 0-0.32391 0.12031-0.32391 0.37635 0 0.23599 0.14653 0.36093 0.33779 0.36093 0.1018 0 0.19281-0.037 0.25296-0.10951l-0.0617-0.0602c-0.0447 0.0524-0.11259 0.0802-0.182 0.0802-0.0941 0-0.23137-0.0524-0.23908-0.26376h0.49975c5e-3 -0.0478 3e-3 -0.0941-5e-3 -0.13419-0.0324-0.18972-0.1635-0.24987-0.27918-0.24987zm-0.21286 0.29923c0.0231-0.16658 0.12957-0.2144 0.20515-0.2144 0.11414 0 0.19589 0.10026 0.182 0.2144z"/>
     <path d="m218.77 149.84v0.96093h0.11259v-0.42417h0.18818c0.0602 0 0.11723-2e-3 0.17584-0.0308 0.0895-0.0447 0.13573-0.13727 0.13573-0.23444 0-0.0972-0.0463-0.19127-0.13727-0.23754-0.0602-0.0324-0.12031-0.0339-0.18201-0.0339zm0.11259 0.1018h0.18047c0.0401 0 0.0787 2e-3 0.11877 0.02 0.0586 0.0308 0.091 0.0925 0.091 0.15424 0 0.0617-0.0309 0.11877-0.0864 0.14653-0.037 0.0185-0.074 0.0201-0.11105 0.0201h-0.19435z"/>
     <path d="m219.6 150.09v0.7049h0.11106v-0.34243c0-0.0432 2e-3 -0.0895 0.0494-0.16504 0.0648-0.1018 0.14807-0.11876 0.19897-0.11876 0.0586 0 0.0956 0.0278 0.11568 0.0524 9e-3 0.0123 0.0139 0.0247 0.0262 0.0355l0.0524-0.10643c-0.0447-0.0463-0.10952-0.0771-0.18818-0.0771-0.10334 0-0.20823 0.0524-0.2545 0.1527l5e-3 -0.13574z"/>
     <path d="m220.62 150.08c-0.16813 0-0.32391 0.12031-0.32391 0.37635 0 0.23599 0.14653 0.36093 0.33779 0.36093 0.1018 0 0.1928-0.037 0.25296-0.10951l-0.0617-0.0602c-0.0447 0.0524-0.1126 0.0802-0.18201 0.0802-0.0941 0-0.23136-0.0524-0.23907-0.26376h0.49974c5e-3 -0.0478 3e-3 -0.0941-5e-3 -0.13419-0.0324-0.18972-0.1635-0.24987-0.27918-0.24987zm-0.21286 0.29923c0.0231-0.16658 0.12956-0.2144 0.20514-0.2144 0.11414 0 0.19589 0.10026 0.18201 0.2144z"/>
     <path d="m221.7 150.21c-0.0555-0.0817-0.14961-0.13111-0.26375-0.13111-0.20669 0-0.35322 0.15578-0.35322 0.3671 0 0.21285 0.14653 0.37018 0.34705 0.37018 0.0972 0 0.1928-0.0401 0.25913-0.1126l-0.0632-0.074c-0.0478 0.054-0.11723 0.0848-0.18664 0.0848-0.13727 0-0.24216-0.11414-0.24216-0.27918 0-0.16041 0.10334-0.26067 0.23291-0.26067 0.12031 0 0.17738 0.0833 0.18201 0.0926 6e-3 0.0108-3e-3 0.0262 9e-3 0.0355z"/>
     <path d="m221.93 150.09v0.091h0.16967v0.52597h-0.17893v0.0879h0.45656v-0.0879h-0.16504v-0.61697zm0.22828-0.3054c-0.0447 0-0.0802 0.0355-0.0802 0.0787s0.0355 0.0787 0.0802 0.0787 0.0802-0.0355 0.0802-0.0787-0.0355-0.0787-0.0802-0.0787z"/>
     <path d="m223.2 150.19c-0.0648-0.071-0.15887-0.10951-0.26376-0.10951-0.16349 0-0.26992 0.091-0.26992 0.19589 0 0.12339 0.13265 0.16812 0.17121 0.182 0.0602 0.0216 0.13727 0.0401 0.18972 0.0648 0.0586 0.0278 0.0694 0.0648 0.0694 0.0895 0 0.0663-0.0802 0.11105-0.18047 0.11105-0.12031 0-0.19743-0.0725-0.22057-0.0972-5e-3 -6e-3 -5e-3 -0.0108-5e-3 -0.017 0-2e-3 2e-3 -0.0108-6e-3 -0.0139l-0.0648 0.10951c0.0833 0.0771 0.19127 0.1126 0.29769 0.1126 0.19281 0 0.29307-0.11414 0.29307-0.22057 0-0.0478-0.0201-0.1126-0.10335-0.15887-0.0787-0.0447-0.1928-0.0601-0.25913-0.0925-0.0571-0.0278-0.0694-0.0617-0.0694-0.0864 0-0.0555 0.0694-0.0956 0.14807-0.0956 0.1018 0 0.16967 0.0617 0.19589 0.0972 5e-3 5e-3 3e-3 9e-3 3e-3 0.0139 0 9e-3 6e-3 0.0123 9e-3 0.0123z"/>
     <path d="m223.47 150.09v0.091h0.16967v0.52597h-0.17892v0.0879h0.45656v-0.0879h-0.16504v-0.61697zm0.22828-0.3054c-0.0447 0-0.0802 0.0355-0.0802 0.0787s0.0355 0.0787 0.0802 0.0787 0.0802-0.0355 0.0802-0.0787-0.0355-0.0787-0.0802-0.0787z"/>
     <path d="m224.79 150.45c0-0.2437-0.15424-0.37018-0.31466-0.37018-0.17892 0-0.33316 0.15424-0.33316 0.37327 0 0.2144 0.1527 0.36555 0.33008 0.36555 0.16658 0 0.31774-0.13419 0.31774-0.36864zm-0.32237-0.27609c0.1018 0 0.20977 0.0879 0.20977 0.28072 0 0.17738-0.1018 0.26684-0.2036 0.26684-0.1126 0-0.2144-0.10488-0.2144-0.27918 0-0.17275 0.10026-0.26838 0.20823-0.26838z"/>
     <path d="m224.96 150.8h0.1126v-0.40566c0-0.0463 6e-3 -0.0817 0.0355-0.12031 0.0262-0.0355 0.0941-0.0987 0.16812-0.0987 0.0355 0 0.071 0.0154 0.0956 0.0447 0.0386 0.0463 0.0386 0.10643 0.0386 0.15578v0.42417h0.10952v-0.42725c0-0.054 0-0.1126-0.0247-0.16967-0.0355-0.0787-0.10797-0.12339-0.18818-0.12339-0.0956 0-0.18201 0.0617-0.23445 0.14036v-0.1234h-0.1126z"/>
     <path d="m226.84 149.83c-0.11568 0-0.23908 0.071-0.29923 0.23908-0.0324 0.091-0.0401 0.2036-0.0401 0.29614 0 0.1126 0.0108 0.23291 0.0725 0.32546 0.0555 0.0848 0.1419 0.12802 0.22674 0.12802 0.14653 0 0.27455-0.1234 0.27455-0.32237s-0.12802-0.31466-0.26376-0.31466c-0.0833 0-0.16195 0.0447-0.2036 0.11569 6e-3 -0.32854 0.1635-0.37173 0.23291-0.37173 0.0632 0 0.10643 0.0339 0.1126 0.0401 9e-3 0.0108 9e-3 0.0247 0.0231 0.0355l0.074-0.0833c-0.0555-0.0555-0.13265-0.0879-0.20977-0.0879zm-0.0401 0.44731c0.0771 0 0.16966 0.0601 0.16966 0.22519 0 0.14962-0.0833 0.22057-0.16504 0.22057-0.11722 0-0.20514-0.13728-0.1928-0.31774 0.0432-0.0787 0.11722-0.12802 0.18818-0.12802z"/>
     <path d="m227.65 149.84-0.40875 0.61543v0.0802h0.38715v0.2653h0.11106v-0.26375h0.12494v-0.0956h-0.12494v-0.60155zm-0.0201 0.17121v0.43034h-0.28227z"/>
     <path d="m228.03 149.77v1.0257h0.0725l0.0386-0.0925c0.0463 0.0694 0.1234 0.11105 0.20823 0.11105 0.14499 0 0.29461-0.12339 0.29461-0.37944 0-0.24524-0.14499-0.35938-0.28381-0.35938-0.0895 0-0.17276 0.0478-0.21749 0.12493v-0.39486c0-9e-3 2e-3 -0.0123 9e-3 -0.0185 3e-3 -2e-3 0.0108-8e-3 9e-3 -0.017zm0.29152 0.40104c0.0663 0 0.20668 0.0386 0.20668 0.28843 0 0.2144-0.13882 0.2545-0.20823 0.2545-0.0478 0-0.15424-0.0185-0.17275-0.15424-5e-3 -0.0355-5e-3 -0.0771-5e-3 -0.13882 0-0.0632 3e-3 -0.10951 0.0185-0.14807 0.0262-0.0632 0.091-0.1018 0.16042-0.1018z"/>
    </g>
    <g aria-label="Value">
     <path d="m192.92 180.17 0.327 0.96865h0.0494l0.32237-0.96865h-0.10643l-0.2329 0.73883-0.24679-0.73883z"/>
     <path d="m193.79 180.51 0.054 0.0709c0.0586-0.0602 0.13728-0.0787 0.2036-0.0787 0.0833 0 0.12494 0.0355 0.14499 0.0679 0.0231 0.0386 0.0216 0.0848 0.0216 0.12185v0.0247h-0.0216c-0.10489 0-0.21594 0-0.3054 0.0324-0.11106 0.0401-0.16042 0.1234-0.16042 0.20052 0 0.10334 0.0895 0.20051 0.236 0.20051 0.0864 0 0.17583-0.0324 0.25296-0.0956v0.0771h0.10488v-0.43651c0-0.0571-2e-3 -0.11106-0.0339-0.16659-0.0463-0.0756-0.13574-0.11568-0.24525-0.11568-0.0941 0-0.18509 0.0293-0.25142 0.0972zm0.4288 0.29152v0.0478c0 0.0355 0 0.0817-0.0478 0.13265-0.0262 0.0262-0.0925 0.0833-0.18509 0.0833-0.0941 0-0.14807-0.0601-0.14807-0.12185 0-0.0524 0.0355-0.10951 0.12339-0.13111 0.0648-0.0154 0.15887-0.0108 0.23291-0.0108z"/>
     <path d="m194.55 180.11v0.0895h0.20051v0.8468h-0.20977v0.0879h0.52906v-0.0879h-0.20823v-0.93626z"/>
     <path d="m195.29 180.43v0.39332c0 0.0601 0 0.12185 0.0278 0.18509 0.0401 0.0925 0.12648 0.14344 0.21903 0.14344 0.0879 0 0.17121-0.0478 0.21748-0.12493l-2e-3 0.0524c0 0.0185 0 0.037 3e-3 0.054h0.11723c-8e-3 -0.0201-9e-3 -0.0432-9e-3 -0.0632v-0.64011h-0.11105v0.38715c0 0.054-5e-3 0.0956-0.0278 0.13882-0.0324 0.0601-0.0956 0.10488-0.16349 0.10488-0.054 0-0.10643-0.0308-0.13419-0.0864-0.0247-0.0494-0.0247-0.10489-0.0247-0.15116v-0.39332z"/>
     <path d="m196.36 180.41c-0.16812 0-0.32391 0.12031-0.32391 0.37635 0 0.236 0.14653 0.36093 0.33779 0.36093 0.1018 0 0.19281-0.037 0.25296-0.10951l-0.0617-0.0602c-0.0447 0.0524-0.1126 0.0802-0.18201 0.0802-0.0941 0-0.23137-0.0524-0.23908-0.26375h0.49975c5e-3 -0.0478 3e-3 -0.0941-5e-3 -0.1342-0.0324-0.18972-0.1635-0.24987-0.27918-0.24987zm-0.21285 0.29923c0.0231-0.16658 0.12956-0.2144 0.20514-0.2144 0.11414 0 0.19589 0.10026 0.18201 0.2144z"/>
    </g>
    <g transform="rotate(-90)" aria-label="Precision">
     <path d="m-161.36 168.83v0.96094h0.1126v-0.42417h0.18817c0.0602 0 0.11723-2e-3 0.17584-0.0309 0.0895-0.0447 0.13573-0.13728 0.13573-0.23445 0-0.0972-0.0463-0.19126-0.13727-0.23753-0.0602-0.0324-0.12031-0.0339-0.18201-0.0339zm0.1126 0.1018h0.18046c0.0401 0 0.0787 2e-3 0.11877 0.0201 0.0586 0.0308 0.091 0.0925 0.091 0.15424 0 0.0617-0.0309 0.11877-0.0864 0.14653-0.037 0.0185-0.074 0.0201-0.11106 0.0201h-0.19435z"/>
     <path d="m-160.52 169.09v0.70489h0.11105v-0.34242c0-0.0432 2e-3 -0.0895 0.0494-0.16504 0.0648-0.1018 0.14807-0.11877 0.19897-0.11877 0.0586 0 0.0956 0.0278 0.11568 0.0524 9e-3 0.0123 0.0139 0.0247 0.0262 0.0355l0.0524-0.10643c-0.0447-0.0463-0.10951-0.0771-0.18818-0.0771-0.10334 0-0.20823 0.0524-0.2545 0.1527l5e-3 -0.13573z"/>
     <path d="m-159.51 169.07c-0.16813 0-0.32391 0.12031-0.32391 0.37636 0 0.23599 0.14653 0.36093 0.33779 0.36093 0.1018 0 0.1928-0.037 0.25296-0.10952l-0.0617-0.0601c-0.0447 0.0524-0.1126 0.0802-0.18201 0.0802-0.0941 0-0.23136-0.0524-0.23907-0.26375h0.49975c5e-3 -0.0478 3e-3 -0.0941-5e-3 -0.13419-0.0324-0.18972-0.1635-0.24988-0.27918-0.24988zm-0.21286 0.29923c0.0231-0.16658 0.12957-0.21439 0.20515-0.21439 0.11414 0 0.19589 0.10025 0.182 0.21439z"/>
     <path d="m-158.43 169.21c-0.0555-0.0817-0.14962-0.13111-0.26376-0.13111-0.20669 0-0.35322 0.15579-0.35322 0.3671 0 0.21286 0.14653 0.37019 0.34705 0.37019 0.0972 0 0.19281-0.0401 0.25913-0.1126l-0.0632-0.074c-0.0478 0.054-0.11722 0.0848-0.18663 0.0848-0.13728 0-0.24217-0.11414-0.24217-0.27918 0-0.16042 0.10335-0.26067 0.23291-0.26067 0.12031 0 0.17738 0.0833 0.18201 0.0925 6e-3 0.0108-3e-3 0.0262 9e-3 0.0355z"/>
     <path d="m-158.2 169.09v0.091h0.16967v0.52597h-0.17892v0.0879h0.45656v-0.0879h-0.16504v-0.61697zm0.22828-0.30541c-0.0447 0-0.0802 0.0355-0.0802 0.0787s0.0355 0.0787 0.0802 0.0787 0.0802-0.0355 0.0802-0.0787-0.0355-0.0787-0.0802-0.0787z"/>
     <path d="m-156.93 169.18c-0.0648-0.071-0.15887-0.10952-0.26375-0.10952-0.1635 0-0.26993 0.091-0.26993 0.19589 0 0.1234 0.13265 0.16813 0.17121 0.18201 0.0602 0.0216 0.13728 0.0401 0.18972 0.0648 0.0586 0.0278 0.0694 0.0648 0.0694 0.0895 0 0.0663-0.0802 0.11106-0.18047 0.11106-0.12031 0-0.19743-0.0725-0.22056-0.0972-5e-3 -6e-3 -5e-3 -0.0108-5e-3 -0.017 0-2e-3 2e-3 -0.0108-6e-3 -0.0139l-0.0648 0.10952c0.0833 0.0771 0.19126 0.1126 0.29769 0.1126 0.1928 0 0.29306-0.11414 0.29306-0.22057 0-0.0478-0.0201-0.1126-0.10334-0.15887-0.0787-0.0447-0.19281-0.0602-0.25913-0.0926-0.0571-0.0278-0.0694-0.0617-0.0694-0.0864 0-0.0555 0.0694-0.0956 0.14807-0.0956 0.1018 0 0.16967 0.0617 0.19589 0.0972 5e-3 5e-3 3e-3 9e-3 3e-3 0.0139 0 9e-3 6e-3 0.0123 9e-3 0.0123z"/>
     <path d="m-156.66 169.09v0.091h0.16967v0.52597h-0.17892v0.0879h0.45656v-0.0879h-0.16504v-0.61697zm0.22828-0.30541c-0.0447 0-0.0802 0.0355-0.0802 0.0787s0.0355 0.0787 0.0802 0.0787 0.0802-0.0355 0.0802-0.0787-0.0355-0.0787-0.0802-0.0787z"/>
     <path d="m-155.34 169.44c0-0.24371-0.15424-0.37019-0.31465-0.37019-0.17893 0-0.33317 0.15425-0.33317 0.37327 0 0.2144 0.1527 0.36556 0.33008 0.36556 0.16658 0 0.31774-0.13419 0.31774-0.36864zm-0.32237-0.2761c0.1018 0 0.20977 0.0879 0.20977 0.28073 0 0.17738-0.1018 0.26684-0.2036 0.26684-0.11259 0-0.21439-0.10489-0.21439-0.27918 0-0.17276 0.10025-0.26839 0.20822-0.26839z"/>
     <path d="m-155.17 169.79h0.11259v-0.40566c0-0.0463 6e-3 -0.0817 0.0355-0.12031 0.0262-0.0355 0.0941-0.0987 0.16812-0.0987 0.0355 0 0.071 0.0154 0.0956 0.0447 0.0386 0.0463 0.0386 0.10643 0.0386 0.15579v0.42417h0.10951v-0.42726c0-0.054 0-0.11259-0.0247-0.16966-0.0355-0.0787-0.10797-0.1234-0.18818-0.1234-0.0956 0-0.182 0.0617-0.23445 0.14036v-0.12339h-0.11259z"/>
    </g>
   </g>
  </g>
 </g>
</svg>
