<svg width="36.317mm" height="21.429mm" version="1.1" viewBox="0 0 36.317 21.429" xmlns="http://www.w3.org/2000/svg">
 <g transform="translate(-474.99 -409.25)">
  <g fill="#e9e56f" aria-label="overlap">
   <g fill="#e9e56f" aria-label="Double Precision 64b">
    <g transform="rotate(-16.619)" fill="#e9e56f" aria-label="steering force">
     <g fill="#85e96f" shape-rendering="auto">
      <path d="m352.19 544.28-0.031-8e-3 -0.0262 0.0968 0.0285 7e-3 1e-3 4.4e-4 9.9e-4 3e-4 0.25443 0.0835 0.0308-0.096-0.25656-0.0836-1e-3 -4.5e-4zm-0.3277-0.0892-0.29221-0.0635-0.0219 0.0986 0.29023 0.0629 2e-3 7.4e-4 0.0263-0.0973-2e-3 -7.4e-4 -1e-3 -4.5e-4zm0.87278 0.2794-0.0356 0.094 0.0914 0.0354 0.18439 0.0815 0.0404-0.092-0.18622-0.0826-1e-3 -4.5e-4 -9.9e-4 -3e-4zm-1.4657-0.39433-0.0611-0.0102-1e-3 -4.5e-4 -9.8e-4 -2.9e-4 -0.23842-0.0269-0.0115 0.1001 0.23579 0.0267 1e-3 4.5e-4 9.9e-4 2.9e-4 0.059 0.0101zm2.0213 0.64485-0.0451 0.0896 0.13492 0.0683 0.12919 0.0731 0.0494-0.0877-0.13103-0.0742-9.9e-4 -2.9e-4 -9.8e-4 -3e-4zm-2.6269-0.70642-0.11073-7e-3 -9.9e-4 -3e-4 -1e-3 -4.4e-4 -0.19121-3e-3 -2e-3 0.10093 0.18908 3e-3 0.11009 7e-3zm3.1571 1.006-0.0539 0.0848 0.1622 0.10342 9.9e-4 3e-4 2e-3 4.5e-4 0.085 0.0604 0.0585-0.0823-0.0873-0.0617-1e-3 -4.4e-4 -9.9e-4 -3e-4zm-3.7667-1.011-0.14991 5e-3 -1e-3 -4.4e-4 -1e-3 7.2e-4 -0.15115 0.0131 8e-3 0.10012 0.15164-0.013 0.14764-5e-3zm4.2667 1.3593-0.0623 0.0785 0.18042 0.14175 2e-3 1e-3 0.0513 0.045 0.0659-0.0763-0.0531-0.046-9.9e-4 -3e-4 -9.8e-4 -2.9e-4zm-4.8736-1.308-0.18216 0.0249-1e-3 2.1e-4 -9.9e-4 -2.9e-4 -0.11653 0.0218 0.0185 0.0988 0.11361-0.0211 2e-3 -4.3e-4 0.17974-0.024zm5.3391 1.6999-0.0696 0.0725 0.18834 0.18025 8.4e-4 8.1e-4 6.8e-4 1e-3 0.0254 0.027 0.0735-0.0692-0.0276-0.0287-6.9e-4 -1e-3 -6.8e-4 -1e-3zm-5.9386-1.5919-0.20693 0.0483-1e-3 7.2e-4 -1e-3 2.1e-4 -0.0862 0.025 0.0277 0.0967 0.0838-0.0241 1e-3 -7.2e-4 9.9e-4 3e-4 0.20529-0.0482zm6.3659 2.0252-0.0759 0.0663 0.18775 0.21837 1e-3 1e-3 6e-3 7e-3 0.0793-0.0615-7e-3 -9e-3 -0.00142-2e-3zm-6.9528-1.8639-0.22629 0.077-1e-3 2.1e-4 -1e-3 7.2e-4 -0.0586 0.0229 0.0372 0.0941 0.0563-0.0226 0.2263-0.077zm7.3365 2.3343-0.053 0.0419-0.0266 0.0185 8.6e-4 8.1e-4 7.1e-4 1e-3 0.1724 0.24452 0.0822-0.0585-0.17358-0.24596-7.1e-4 -1e-3 -1e-3 -9.6e-4zm-7.9072-2.1191-0.23937 0.10814-1e-3 2.1e-4 -1e-3 7.2e-4 -0.0344 0.0178 0.046 0.0898 0.032-0.0169 2e-3 -5.7e-4 0.23808-0.10744zm8.2474 2.6235-0.0843 0.0547 0.012 0.0192 1e-3 1e-3 0.13591 0.23848 0.0877-0.0499-0.13744-0.24056-8.7e-4 -8.1e-4 -1e-3 -1e-3zm-8.7939-2.3573-0.24972 0.1428-1e-3 7.2e-4 -1e-3 2.1e-4 -0.0127 8e-3 0.0539 0.0851 0.0107-7e-3 1e-3 -2.1e-4 1e-3 -1e-3 0.24763-0.14126zm9.0857 2.892-0.0888 0.0463 0.0211 0.0414 5.6e-4 2e-3 0.10337 0.22823 0.0916-0.0412-0.10377-0.23051-7.1e-4 -1e-3 -1e-3 -1e-3zm-9.607-2.5763-0.24675 0.17443 0.0585 0.0822 0.24675-0.17443zm9.8489 3.1355-0.093 0.037 0.0266 0.0662 9.1e-4 2e-3 0.0727 0.21368 0.0954-0.0324-0.0736-0.21611-8.6e-4 -8.1e-4 -7.1e-4 -1e-3zm-10.336-2.7746-0.0177 0.0141-1e-3 7.2e-4 -1e-3 2.1e-4 -0.21199 0.18264 0.0657 0.0762 0.21026-0.18047 2e-3 -2e-3 0.0156-0.0126zm10.526 3.3532-0.0956 0.0276 0.0274 0.0961 0.0461 0.19441 0.098-0.0231-0.0465-0.19668-7.1e-4 -1e-3 -1e-3 -1e-3zm-10.98-2.9466-0.0362 0.0345-1e-3 2.1e-4 -1e-3 1e-3 -0.17457 0.18195 0.0732 0.0693 0.17234-0.17992 1e-3 -1e-3 1e-3 -2.1e-4 0.0346-0.0328zm11.116 3.5402-0.0993 0.0184 0.0232 0.1245 9.1e-4 2e-3 0.0224 0.169 0.1-0.0133-0.0231-0.17192 3e-4 -1e-3 -7.1e-4 -1e-3zm-11.531-3.0944-0.053 0.0619-1e-3 7.2e-4 -3e-4 1e-3 -0.13642 0.17338 0.079 0.0624 0.13483-0.1717 0.0533-0.0612zm11.612 3.6984-0.10111 8e-3 0.0136 0.16209 5e-3 0.13735 0.10092-4e-3 -5e-3 -0.13962 3.1e-4 -1e-3 3e-4 -1e-3zm-11.983-3.2153-0.0686 0.096-3e-4 1e-3 -3.1e-4 1e-3 -0.0989 0.156 0.0848 0.0539 0.0976-0.15368 0.0679-0.0957zm12.006 3.8236-0.10093-2e-3 -2e-3 0.19987-6.1e-4 2e-3 -1.5e-4 5e-4 -6e-3 0.0973 0.10059 6e-3 6e-3 -0.0995 4.5e-4 -2e-3 3e-4 -1e-3zm-12.331-3.3084-0.0807 0.14039-3e-4 1e-3 -3.1e-4 1e-3 -0.0634 0.12561 0.0899 0.0457 0.0623-0.12378 0.0801-0.14004zm12.298 3.9167-0.0996-0.0114-0.0283 0.24664-7.5e-4 0.0025-8e-3 0.0483 0.0993 0.0162 9e-3 -0.0508 3e-4 -1e-3 4.6e-4 -2e-3zm-12.575-3.3738-0.0866 0.19632-4.6e-4 2e-3 -3e-4 1e-3 -0.0314 0.0818 0.094 0.0356 0.03-0.0789 0.0868-0.19683zm12.487 3.9764-0.0983-0.0213-0.0644 0.29519 0.0981 0.0217zm-12.713-3.4106-0.0873 0.2673-6e-4 2e-3 -5e-3 0.0211 0.0973 0.0263 4e-3 -0.0186 6e-4 -2e-3 0.0866-0.26484zm12.569 4.0003-0.0973-0.0263-0.0105 0.0389-6e-4 2e-3 -0.0927 0.28513 0.0958 0.0314 0.0934-0.28761-0.0477-0.0154 0.0483 0.0133zm-12.644-3.3923-0.0973-0.0263-4e-3 0.0134-6e-4 2e-3 -0.061 0.28217 0.0981 0.0217 0.0615-0.28202zm12.337 3.9725-0.0225 0.0591-0.0952 0.2159 0.0919 0.0409 0.0958-0.21623 6e-4 -2e-3 0.0239-0.0619zm-12.452-3.3845-0.0998-0.0163-0.0118 0.072-3e-4 1e-3 -4.6e-4 2e-3 -0.026 0.22792 0.10025 0.011 0.0257-0.2253 1.5e-4 -5.1e-4 6.1e-4 -2e-3zm12.203 3.9293-0.0523 0.10466-0.09 0.15866 0.0876 0.0499 0.09-0.15866 4.5e-4 -2e-3 3e-4 -1e-3 0.054-0.10684zm-12.265-3.3334-0.10058-6e-3 -7e-3 0.12073-4.5e-4 2e-3 -3.1e-4 1e-3 -2e-3 0.18106 0.10043 1e-3 2e-3 -0.17844 6.1e-4 -2e-3 1.5e-4 -5.1e-4zm11.967 3.8533-0.0853 0.13579-0.0801 0.11306 0.0818 0.0584 0.0803-0.11356 6e-4 -2e-3 0.088-0.13768zm-11.973-3.2545-0.0999 4e-3 5e-3 0.16071-6e-4 2e-3 0.10398 0.031-3e-3 -0.0393z" color="#000000" color-rendering="auto" image-rendering="auto" solid-color="#000000" style="isolation:auto;mix-blend-mode:normal;text-decoration-color:#000000;text-decoration-line:none;text-decoration-style:solid;text-indent:0;text-transform:none;white-space:normal"/>
      <path d="m353.03 541.44-0.0445-0.0116-0.0382 0.14068 0.0411 0.0106 2e-3 5.9e-4 1e-3 4.4e-4 0.36857 0.12026 0.0452-0.1386-0.37204-0.1213-2e-3 -5.9e-4zm-0.47495-0.12882-0.42343-0.0919-0.0311 0.14225 0.42031 0.0915 3e-3 1e-3 0.0382-0.14067-3e-3 -1e-3 -2e-3 -6e-4zm1.2646 0.40495-0.0524 0.1359 0.13308 0.051 0.2668 0.11792 0.0592-0.13333-0.27062-0.1196-1e-3 -4.5e-4 -2e-3 -5.9e-4zm-2.1231-0.57115-0.0889-0.0147-2e-3 -5.9e-4 -1e-3 -4.5e-4 -0.34574-0.0396-0.0163 0.14505 0.34164 0.0389 1e-3 4.5e-4 2e-3 5.9e-4 0.0853 0.0141zm2.9281 0.93329-0.0657 0.12977 0.1959 0.0989 0.18665 0.10641 0.072-0.12736-0.18947-0.10779-2e-3 -5.9e-4 -1e-3 -4.4e-4zm-3.8056-1.0232-0.16019-9e-3 -2e-3 -5.9e-4 -1e-3 -4.4e-4 -0.27759-4e-3 -2e-3 0.14607 0.27397 4e-3 0.15989 0.01zm4.5734 1.4573-0.0783 0.12331 0.23527 0.14949 4e-3 0.00118 0.12277 0.0873 0.0847-0.11925-0.12644-0.0895-1e-3 -4.4e-4 -2e-3 -5.9e-4zm-5.4559-1.464-0.21802 8e-3 -1e-3 -4.5e-4 -2e-3 1e-3 -0.21914 0.0187 0.0123 0.14496 0.21914-0.0187 0.21412-7e-3zm6.18 1.9686-0.0901 0.11387 0.26138 0.20475 3e-3 2e-3 0.0745 0.0648 0.0956-0.11062-0.0767-0.0666-2e-3 -6.1e-4 -2e-3 -4.5e-4zm-7.0596-1.8947-0.26357 0.0357-2e-3 1e-3 -1e-3 -4.5e-4 -0.16904 0.0315 0.0268 0.14336 0.16516-0.0311 3e-3 -2.8e-4 0.26065-0.0349zm7.7341 2.4622-0.10048 0.10538 0.27265 0.26096 1e-3 1e-3 1e-3 2e-3 0.0364 0.0389 0.10603-0.10048-0.0394-0.0414-1e-3 -2e-3 -1e-3 -1e-3zm-8.6022-2.3055-0.30011 0.0695-4e-3 2e-3 -0.12443 0.0357 0.0401 0.14031 0.12102-0.0351 2e-3 -9.3e-4 1e-3 4.5e-4 0.29649-0.0701zm9.2212 2.933-0.11025 0.0965 0.27193 0.31576 2e-3 2e-3 8e-3 0.011 0.1152-0.0897-0.0105-0.0134-2e-3 -4e-3zm-10.072-2.6994-0.32757 0.11093-4e-3 2e-3 -0.0849 0.0334 0.0539 0.1358 0.0814-0.0323 0.32836-0.11178zm10.628 3.381-0.0774 0.0605-0.0382 0.0269 2e-3 4e-3 0.24927 0.35376 0.11962-0.0846-0.25229-0.35628-5.6e-4 -2e-3 -1e-3 -2e-3zm-11.455-3.0695-0.34656 0.1565-4e-3 2e-3 -0.0496 0.0251 0.0663 0.13033 0.0466-0.0244 2e-3 -9.4e-4 0.34463-0.15545zm11.947 3.8-0.12239 0.0794 0.0181 0.028 9.2e-4 2e-3 0.19783 0.34541 0.12621-0.0723-0.19907-0.34848-1e-3 -2e-3 -7.2e-4 -1e-3zm-12.739-3.4145-0.36163 0.207-4e-3 2e-3 -0.0178 0.0109 0.078 0.12358 0.0154-0.01 4e-3 -2e-3 0.35827-0.20477zm13.162 4.189-0.12899 0.0672 0.031 0.0605 9.1e-4 2e-3 0.1493 0.33093 0.13282-0.0601-0.15054-0.33399-2e-3 -4e-3zm-13.916-3.7315-0.35791 0.25234 0.0847 0.11912 0.35727-0.25199zm14.267 4.5416-0.1353 0.054 0.0382 0.0961 1e-3 3e-3 0.10532 0.31024 0.13813-0.0472-0.10656-0.31332-1e-3 -2e-3 -7.1e-4 -1e-3zm-14.974-4.0186-0.0255 0.0204-1e-3 1e-3 -2e-3 5.7e-4 -0.30701 0.26429 0.0947 0.11079 0.30464-0.26177 3e-3 -2e-3 0.0231-0.0179zm15.249 4.8566-0.13947 0.0409 0.0399 0.13918 0.0665 0.2814 0.14216-0.0336-0.0671-0.28481-2e-3 -4e-3zm-15.905-4.268-0.0527 0.0501-4e-3 2e-3 -0.25242 0.26388 0.10537 0.10048 0.25005-0.26135 4e-3 -2e-3 0.0502-0.047zm16.103 5.1283-0.14336 0.0268 0.0335 0.18042 7.7e-4 3e-3 0.033 0.24551 0.14455-0.0199-0.0337-0.24843 4.6e-4 -2e-3 -9.2e-4 -2e-3zm-16.703-4.4819-0.0766 0.0888-2e-3 2e-3 -3.1e-4 1e-3 -0.19768 0.25216 0.11451 0.0897 0.19551-0.2485 0.0768-0.0892zm16.821 5.3566-0.1466 0.0123 0.02 0.23464 8e-3 0.19857 0.14552-5e-3 -7e-3 -0.20219 4.6e-4 -2e-3 6e-4 -2e-3zm-17.357-4.6572-0.0997 0.13902-4.5e-4 2e-3 -4.6e-4 2e-3 -0.14342 0.22576 0.12331 0.0783 0.14139-0.22259 0.0986-0.13883zm17.391 5.5388-0.14607-2e-3 -4e-3 0.28952-6.1e-4 2e-3 -4.5e-4 2e-3 -9e-3 0.14074 0.14613 9e-3 9e-3 -0.144 6e-4 -2e-3 4.6e-4 -2e-3zm-17.863-4.7929-0.11618 0.20315-4.6e-4 2e-3 -6e-4 2e-3 -0.0917 0.18242 0.13041 0.0654 0.09-0.17861 0.11569-0.20329zm17.815 5.674-0.1444-0.0167-0.0408 0.35723-3e-4 1e-3 -7.6e-4 3e-3 -0.0113 0.0705 0.14397 0.0236 0.0117-0.0736 4.5e-4 -2e-3 6.1e-4 -2e-3zm-18.216-4.8875-0.12587 0.28439-6.1e-4 2e-3 -4.5e-4 2e-3 -0.0456 0.11851 0.13604 0.0519 0.0439-0.1147 0.12587-0.28439zm18.088 5.7604-0.1424-0.0306-0.093 0.42738 0.14275 0.0313zm-18.416-4.9402-0.12558 0.3864-6.1e-4 2e-3 -6e-4 2e-3 -8e-3 0.0295 0.14118 0.0384 6e-3 -0.0262 6e-4 -2e-3 4.6e-4 -2e-3 0.12518-0.38328zm18.208 5.7943-0.14018-0.0381-0.0155 0.0558-6e-4 2e-3 -6.1e-4 2e-3 -0.1344 0.41236 0.1386 0.0451 0.13609-0.41616-0.0694-0.0224 0.0704 0.0188zm-18.316-4.9137-0.14068-0.0382-6e-3 0.0188-6.1e-4 2e-3 -4.5e-4 2e-3 -0.0891 0.40862 0.14274 0.0313 0.0891-0.40863zm17.871 5.7538-0.0322 0.0864-0.13855 0.31243 0.13383 0.0593 0.1382-0.31306 6.1e-4 -2e-3 4.5e-4 -2e-3 0.0343-0.0895zm-18.038-4.9024-0.14397-0.0236-0.0171 0.10436-4.6e-4 2e-3 -6e-4 2e-3 -0.0376 0.33015 0.14506 0.0163 0.0371-0.32654 4.5e-4 -2e-3 7.6e-4 -3e-3zm17.677 5.6916-0.0755 0.15167-0.1307 0.2301 0.12686 0.0718 0.13056-0.22961 4.5e-4 -2e-3 6.1e-4 -2e-3 0.078-0.15469zm-17.766-4.8283-0.14563-9e-3 -3e-3 0.055 0.1436 0.0429z" color="#000000" color-rendering="auto" image-rendering="auto" solid-color="#000000" style="isolation:auto;mix-blend-mode:normal;text-decoration-color:#000000;text-decoration-line:none;text-decoration-style:solid;text-indent:0;text-transform:none;white-space:normal"/>
      <path d="m354.01 538.15-0.061-0.016-0.0516 0.19112 0.0561 0.0145 2e-3 5.9e-4 2e-3 7.4e-4 0.50123 0.16364 0.0612-0.18882-0.50584-0.16446-2e-3 -7.4e-4zm-0.64549-0.17541-0.57587-0.12497-0.0422 0.19394 0.57127 0.12413 4e-3 1e-3 0.0523-0.19147-5e-3 -1e-3 -2e-3 -7.4e-4zm1.7185 0.55014-0.071 0.18537 0.18056 0.069 0.36249 0.16051 0.0806-0.18142-0.3673-0.16249-4e-3 -0.00148zm-2.886-0.7762-0.12031-0.0197-3e-3 -8.8e-4 -2e-3 -5.9e-4 -0.4698-0.0539-0.0222 0.19722 0.46421 0.0528 2e-3 7.4e-4 2e-3 7.5e-4 0.11605 0.0195zm3.9798 1.2688-0.0889 0.17677 0.26618 0.13446 0.25373 0.14369 0.0979-0.17249-0.25774-0.1465-3e-3 -8.8e-4 -2e-3 -5.9e-4zm-5.1725-1.3907-0.21736-0.0126-4e-3 -0.00148-0.37702-5e-3 -3e-3 0.19874 0.37228 5e-3 0.21706 0.0136zm6.2163 1.9806-0.10653 0.1672 0.32038 0.20403 2e-3 6e-4 3e-3 7.6e-4 0.1679 0.11861 0.11471-0.16207-0.17192-0.12142-3e-3 -7.6e-4 -2e-3 -6e-4zm-7.4157-1.9896-0.29592 0.0104-2e-3 -5.9e-4 -3e-3 1e-3 -0.29774 0.0255 0.0171 0.19762 0.29773-0.0255 0.29103-0.0102zm8.4 2.676-0.12214 0.15445 0.35528 0.27862 3e-3 3e-3 0.10105 0.0879 0.12996-0.14996-0.10441-0.091-3e-3 -7.6e-4 -2e-3 -6e-4zm-9.5954-2.5755-0.35814 0.049-2e-3 9.3e-4 -2e-3 -7.4e-4 -0.22965 0.0431 0.0368 0.19487 0.22446-0.042 4e-3 -9.9e-4 0.35394-0.0475zm10.512 3.3464-0.13671 0.14363 0.37043 0.35433 1e-3 3e-3 2e-3 2e-3 0.0494 0.053 0.14429-0.13652-0.0533-0.0563-2e-3 -6e-3zm-11.692-3.1334-0.40787 0.0945-6e-3 2e-3 -0.16916 0.0482 0.0548 0.19054 0.16461-0.0474 3e-3 -1e-3 2e-3 5.9e-4 0.40312-0.0949zm12.534 3.9866-0.1502 0.13098 0.36956 0.42956 2e-3 3e-3 0.0112 0.0147 0.15669-0.12203-0.0146-0.0178-2e-3 -6e-3zm-13.69-3.6688-0.44516 0.1508-3e-3 1e-3 -2e-3 2e-3 -0.11547 0.0453 0.0727 0.18457 0.11077-0.0441 0.4461-0.15213zm14.446 4.5955-0.10546 0.0823-0.0518 0.0363 2e-3 6e-3 0.33913 0.48089 0.16249-0.11437-0.34285-0.48469-9.1e-4 -2e-3 -1e-3 -3e-3zm-15.568-4.1717-0.47166 0.21245-3e-3 1e-3 -2e-3 2e-3 -0.0679 0.0342 0.0901 0.17683 0.0632-0.0329 4e-3 -2e-3 0.46859-0.21121zm16.237 5.1642-0.1666 0.10828 0.0242 0.038 2e-3 3e-3 0.26813 0.4694 0.17216-0.098-0.27071-0.4734-2e-3 -6e-3zm-17.314-4.6406-0.49156 0.28093-6e-3 2e-3 -0.024 0.0155 0.10635 0.16765 0.0202-0.0134 6e-3 -2e-3 0.48756-0.27836zm17.889 5.6932-0.17499 0.0912 0.0418 0.0821 2e-3 4e-3 0.20277 0.4499 0.18085-0.0819-0.20486-0.45376-2e-3 -6e-3zm-18.915-5.0718-0.48583 0.34304 0.11452 0.162 0.48583-0.34305zm19.392 6.1726-0.18373 0.0735 0.0521 0.13095 1e-3 4e-3 0.14383 0.42151 0.18745-0.0643-0.14478-0.42557-2e-3 -6e-3zm-20.352-5.4616-0.0341 0.0276-2e-3 2e-3 -3e-3 1e-3 -0.41731 0.35919 0.12935 0.15024 0.41365-0.35596 4e-3 -3e-3 0.0314-0.024zm20.726 6.6015-0.18955 0.0551 0.0547 0.1889 0.0901 0.38284 0.19312-0.0454-0.0914-0.38754-2e-3 -6e-3zm-21.618-5.8017-0.0716 0.0682-6e-3 2e-3 -0.34277 0.35879 0.14299 0.13705 0.3401-0.35527 2e-3 -2e-3 3e-3 -1e-3 0.0683-0.0643zm21.887 6.9707-0.19521 0.0361 0.0455 0.24495 8.5e-4 5e-3 0.0451 0.33325 0.19666-0.0265-0.0459-0.33781 7.6e-4 -3e-3 -1e-3 -3e-3zm-22.703-6.0921-0.10407 0.12102-3e-3 2e-3 -4.6e-4 2e-3 -0.26888 0.34255 0.15594 0.12259 0.26557-0.33869 0.10457-0.12086zm22.863 7.2814-0.19896 0.0161 0.0271 0.31927 0.01 0.26995 0.19793-7e-3 -0.0102-0.27484 6e-4 -2e-3 7.6e-4 -3e-3zm-23.592-6.3304-0.13511 0.18887-6e-4 2e-3 -7.6e-4 3e-3 -0.19499 0.30636 0.1672 0.10653 0.19282-0.30269 0.13348-0.18882zm23.638 7.5284-0.19809-3e-3 -5e-3 0.39321-1e-3 3e-3 -4.6e-4 2e-3 -0.0124 0.19152 0.19791 0.0127 0.0127-0.19627 7.6e-4 -3e-3 7.5e-4 -3e-3zm-24.278-6.5142-0.15786 0.27592-7.6e-4 3e-3 -6e-4 2e-3 -0.12459 0.24756 0.17713 0.0895 0.12276-0.24325 0.15686-0.27622zm24.215 7.7119-0.19693-0.0232-0.0549 0.48569-6e-4 2e-3 -1e-3 3e-3 -0.0161 0.0955 0.19591 0.0321 0.0165-0.10025 6e-4 -2e-3 8.9e-4 -3e-3zm-24.759-6.6427-0.17087 0.38636-0.00152 6e-3 -0.0619 0.16056 0.18537 0.0709 0.0595-0.15589 0.17102-0.38687zm24.586 7.8291-0.19344-0.0421-0.12659 0.58132 0.19394 0.0423zm-25.03-6.7149-0.17137 0.52535-7.6e-4 3e-3 -7.5e-4 3e-3 -0.01 0.0407 0.19163 0.0518 9e-3 -0.0358 0.00152-6e-3 0.17003-0.5209zm24.748 7.8753-0.19112-0.0517-0.0211 0.0762-0.00152 6e-3 -0.18299 0.56072 0.18867 0.0617 0.18447-0.56567-0.0945-0.0304 0.096 0.0254zm-24.896-6.6786-0.19113-0.0517-8e-3 0.0257-6e-4 2e-3 -7.6e-4 3e-3 -0.12089 0.55498 0.19379 0.0427 0.12104-0.55548zm24.291 7.8208-0.0442 0.11732-0.18765 0.4245 0.18142 0.0806 0.18794-0.42549 7.6e-4 -3e-3 6.1e-4 -2e-3 0.0466-0.12198zm-24.517-6.6636-0.19656-0.0317-0.0228 0.14149-0.00152 6e-3 -0.0336 0.29144 0.19312 0.0576 0.0367-0.32178 6e-4 -2e-3 1e-3 -3e-3z" color="#000000" color-rendering="auto" image-rendering="auto" solid-color="#000000" style="isolation:auto;mix-blend-mode:normal;text-decoration-color:#000000;text-decoration-line:none;text-decoration-style:solid;text-indent:0;text-transform:none;white-space:normal"/>
     </g>
     <g>
      <path d="m359.79 551.26-0.20438-9.3837" fill="none" stroke="#e9e56f" stroke-width=".26458"/>
      <g transform="matrix(-.47422 .016874 -.016874 -.47422 601.5 664.81)" stroke="#e9e56f">
       <path d="m501.47 274.25-1.2053 3.2778-1.2053-3.2778c0.71162 0.52365 1.6852 0.52064 2.4106 0z" fill="#fff" fill-rule="evenodd" stroke="#e9e56f" stroke-linejoin="round" stroke-width=".1875"/>
      </g>
      <path d="m359.68 550.96-4.4203-8.2799" fill="none" stroke="#4776d5" stroke-width=".26458"/>
      <g transform="matrix(-.41548 .22923 -.22923 -.41548 626.62 543.11)" stroke="#4776d5">
       <path d="m501.47 274.25-1.2053 3.2778-1.2053-3.2778c0.71162 0.52365 1.6852 0.52064 2.4106 0z" fill="#fff" fill-rule="evenodd" stroke="#4776d5" stroke-linejoin="round" stroke-width=".1875"/>
      </g>
      <path d="m359.71 541.55-5.8411-7.347" fill="none" stroke="#e9e56f" stroke-width=".26458"/>
      <g transform="matrix(-.36733 .3004 -.3004 -.36733 620.85 485.68)" stroke="#e9e56f">
       <path d="m501.47 274.25-1.2053 3.2778-1.2053-3.2778c0.71162 0.52365 1.6852 0.52064 2.4106 0z" fill="#fff" fill-rule="evenodd" stroke="#e9e56f" stroke-linejoin="round" stroke-width=".1875"/>
      </g>
      <path d="m355.25 542.57-9.3852-0.12032" fill="none" stroke="#4776d5" stroke-width=".26458"/>
      <g transform="matrix(.0004609 .47452 -.47452 .0004609 477.09 304.92)" stroke="#4776d5">
       <path d="m501.47 274.25-1.2053 3.2778-1.2053-3.2778c0.71162 0.52365 1.6852 0.52064 2.4106 0z" fill="#fff" fill-rule="evenodd" stroke="#4776d5" stroke-linejoin="round" stroke-width=".1875"/>
      </g>
      <path d="m359.65 550.99-6.9315-6.3286" fill="none" stroke="#d54747" stroke-width=".26458"/>
     </g>
     <g transform="matrix(-.31509 .35481 -.35481 -.31509 608.64 454.45)">
      <path d="m501.47 274.25-1.2053 3.2778-1.2053-3.2778c0.71162 0.52365 1.6852 0.52064 2.4106 0z" fill="#fff" fill-rule="evenodd" stroke="#d54747" stroke-linejoin="round" stroke-width=".1875"/>
     </g>
     <path d="m351.61 546.21-0.0214-6e-3 -0.018 0.0674 0.0195 5e-3 9.9e-4 3e-4 5.1e-4 1.5e-4 0.17693 0.0577 0.0215-0.0664-0.17842-0.0581-5e-4 -1.5e-4zm-0.22743-0.062-0.20314-0.0439-0.015 0.0683 0.20151 0.044 1e-3 4.5e-4 0.0186-0.0678-2e-3 -5.9e-4 -5e-4 -1.5e-4zm0.60587 0.19431-0.0252 0.0647 0.0639 0.0245 0.12753 0.057 0.0289-0.0642-0.12967-0.057-9.9e-4 -2.9e-4 -9.9e-4 -3e-4zm-1.0173-0.27398-0.0427-7e-3 -9.8e-4 -2.9e-4 -9.9e-4 -3e-4 -0.16525-0.0191-8e-3 0.0699 0.16376 0.0187 5.1e-4 1.5e-4 9.9e-4 3e-4 0.0411 7e-3zm1.4029 0.44733-0.0316 0.0623 0.0937 0.0474 0.0894 0.051 0.0349-0.0608-0.0908-0.0519-9.9e-4 -3e-4 -9.9e-4 -2.9e-4zm-1.8237-0.4904-0.077-4e-3 -5.1e-4 -1.5e-4 -9.9e-4 -3e-4 -0.13265-2e-3 -8.9e-4 0.0698 0.13102 2e-3 0.0768 5e-3zm2.1919 0.69847-0.0377 0.0594 0.11246 0.0713 9.9e-4 3e-4 9.9e-4 2.9e-4 0.0592 0.042 0.0402-0.057-0.0606-0.0429-9.9e-4 -3e-4 -5.1e-4 -1.5e-4zm-2.6148-0.70174-0.10419 4e-3 -9.9e-4 -3e-4 -6.5e-4 3.6e-4 -0.10517 9e-3 6e-3 0.0698 0.10468-9e-3 0.1029-3e-3zm2.9616 0.94384-0.0432 0.0545 0.12556 0.0979 1e-3 1e-3 0.0356 0.0306 0.0459-0.0526-0.0373-0.0322-5.1e-4 -1.6e-4 -9.9e-4 -2.9e-4zm-3.3833-0.90791-0.12584 0.0169-1e-3 2.1e-4 -5.1e-4 -1.5e-4 -0.0811 0.0152 0.013 0.0686 0.0788-0.0148 2e-3 -6e-5 0.12471-0.0167zm3.7066 1.1797-0.0484 0.0503 0.13084 0.12534 3.6e-4 6.6e-4 8.4e-4 8e-4 0.0171 0.0186 0.051-0.0479-0.0188-0.0202-3.6e-4 -6.6e-4 -8.4e-4 -8e-4zm-4.1221-1.1047-0.14414 0.033-8.1e-4 8.6e-4 -1e-3 2.1e-4 -0.0595 0.0168 0.0193 0.0672 0.0583-0.0166 6.6e-4 -3.5e-4 9.9e-4 2.9e-4 0.14216-0.0336zm4.4184 1.4056-0.0525 0.0458 0.13004 0.15152 6.8e-4 1e-3 4e-3 5e-3 0.0549-0.0429-5e-3 -6e-3 -3.6e-4 -6.6e-4 -8.3e-4 -8e-4zm-4.8261-1.2938-0.15723 0.0534-6.6e-4 3.6e-4 -1e-3 2.1e-4 -0.0404 0.016 0.0253 0.0652 0.0392-0.0158 0.15723-0.0534zm5.0926 1.6204-0.0372 0.0288-0.0184 0.0129 0.00168 0.0016 0.11932 0.16936 0.0573-0.0401-0.12102-0.17094-3.5e-4 -6.6e-4 -8.4e-4 -8e-4zm-5.4888-1.4711-0.16586 0.0751-1e-3 2.1e-4 -6.6e-4 3.6e-4 -0.0241 0.0122 0.0321 0.0624 0.0224-0.0117 1e-3 -2.1e-4 0.16521-0.0747zm5.7246 1.8214-0.0582 0.0376 8e-3 0.0133 6.9e-4 1e-3 0.0945 0.16574 0.0605-0.0348-0.0952-0.16702-8.4e-4 -8e-4 -3.6e-4 -6.6e-4zm-6.1037-1.6369-0.17375 0.0997-6.6e-4 3.6e-4 -1e-3 2.1e-4 -9e-3 5e-3 0.0378 0.0593 7e-3 -4e-3 8.1e-4 -8.6e-4 6.6e-4 -3.5e-4 0.17216-0.098zm6.3063 2.008-0.0613 0.0319 0.0146 0.0286 5.6e-4 2e-3 0.0714 0.15829 0.0635-0.0285-0.0719-0.16008-8.7e-4 -8.1e-4 -3.5e-4 -6.6e-4zm-6.6684-1.7887-0.17094 0.12101 0.0401 0.0573 0.17143-0.12087zm6.8368 2.1766-0.0649 0.0259 0.0186 0.046 5.6e-4 2e-3 0.0506 0.14832 0.0662-0.0229-0.0512-0.15011-3.5e-4 -6.6e-4 -8.6e-4 -8e-4zm-7.1753-1.926-0.0121 0.01-6.6e-4 3.6e-4 -6.6e-4 3.5e-4 -0.14737 0.12697 0.0457 0.053 0.14594-0.12578 8.1e-4 -8.6e-4 0.0112-9e-3zm7.3067 2.3276-0.0667 0.0195 0.0195 0.0667 0.0321 0.13468 0.0678-0.0159-0.0321-0.13632-8.7e-4 -8.1e-4 -2e-4 -1e-3zm-7.6214-2.0451-0.0254 0.0237-6.6e-4 3.6e-4 -8.1e-4 8.6e-4 -0.12124 0.12614 0.0503 0.0484 0.11996-0.12545 1e-3 -2.1e-4 8.1e-4 -8.6e-4 0.024-0.0225zm7.7162 2.4574-0.0684 0.0125 0.0157 0.0867 5.6e-4 2e-3 0.0157 0.11739 0.0697-9e-3 -0.0162-0.11916 3e-4 -1e-3 -8.6e-4 -8.1e-4zm-8.0042-2.148-0.0366 0.043-1e-3 2.2e-4 -1.6e-4 5e-4 -0.0944 0.12118 0.0547 0.0427 0.0938-0.11922 0.0369-0.0424zm8.0609 2.5673-0.0708 6e-3 0.01 0.11235 4e-3 0.095 0.0697-2e-3 -3e-3 -0.097 1.5e-4 -5.1e-4 3e-4 -1e-3zm-8.3179-2.232-0.0474 0.0667-4.5e-4 0.0015-0.069 0.1083 0.0589 0.0376 0.0681-0.10696 0.0468-0.0664zm8.3337 2.6541-0.0698-8.8e-4 -2e-3 0.13854-4.5e-4 2e-3 -1.5e-4 5.1e-4 -4e-3 0.0673 0.0698 5e-3 5e-3 -0.0693 3e-4 -1e-3 1.5e-4 -5.1e-4zm-8.5591-2.2964-0.0559 0.0971-3.1e-4 1e-3 -3e-4 1e-3 -0.0438 0.0872 0.0623 0.0315 0.0434-0.0857 0.055-0.0974zm8.5367 2.7184-0.0694-8e-3 -0.0193 0.17113-1.6e-4 5.1e-4 -4.5e-4 2e-3 -6e-3 0.0339 0.069 0.0109 6e-3 -0.035 3e-4 -1e-3 3.1e-4 -1e-3zm-8.7291-2.3412-0.06 0.13581-3e-4 1e-3 -3.1e-4 1e-3 -0.0217 0.0566 0.0649 0.0248 0.0212-0.0546 0.0602-0.1368zm8.6683 2.7599-0.0683-0.015-0.045 0.20497 0.0683 0.015zm-8.8249-2.3671-0.06 0.18485-6e-4 2e-3 -4e-3 0.0145 0.0675 0.0179 3e-3 -0.0125 3e-4 -1e-3 1.5e-4 -5.1e-4 0.0597-0.18386zm8.7254 2.7764-0.0678-0.0186-7e-3 0.027-3.1e-4 1e-3 -3e-4 1e-3 -0.0644 0.19759 0.0662 0.022 0.065-0.19957-0.0334-0.0111 0.034 9e-3zm-8.7774-2.3546-0.0673-0.0184-3e-3 9e-3 -4.5e-4 0.0015-0.0427 0.19542 0.0683 0.015 0.0427-0.19542zm8.5641 2.7568-0.0157 0.0417-0.0662 0.14958 0.0638 0.0282 0.0662-0.14958 6e-4 -2e-3 0.0166-0.043zm-8.6438-2.3487-0.0694-0.0115-8e-3 0.05-3e-4 1e-3 -3.1e-4 1e-3 -0.018 0.15802 0.0694 8e-3 0.0176-0.15654 1.5e-4 -5e-4 4.5e-4 -2e-3zm8.4706 2.7268-0.0358 0.0729-0.0626 0.11022 0.0603 0.0347 0.0626-0.11022 3e-4 -1e-3 1.5e-4 -5.1e-4 0.0379-0.0745zm-8.5131-2.3134-0.0699-4e-3 -6e-3 0.0836-3.1e-4 1e-3 -3e-4 1e-3 -1e-3 0.12577 0.0699 8.8e-4 1e-3 -0.12414 3e-4 -1e-3 1.5e-4 -5.1e-4zm8.3066 2.6746-0.0595 0.0944-0.0559 0.0788 0.057 0.0402 0.0559-0.0788 1.5e-4 -5.1e-4 3e-4 -1e-3 0.0609-0.0956zm-8.3115-2.2586-0.0692 3e-3 4e-3 0.11171-3e-4 1e-3 -1.5e-4 5.1e-4 9e-3 0.098 0.0693-6e-3 -8e-3 -0.0978zm8.073 2.5989-0.0845 0.10797-0.0467 0.0535 0.0526 0.0459 0.0467-0.0535 8.1e-4 -8.6e-4 3e-4 -1e-3 0.0858-0.10867zm-8.0381-2.1846-0.0697 9e-3 0.0183 0.13382-3e-4 1e-3 3.6e-4 6.6e-4 0.0141 0.0738 0.0686-0.013-0.0136-0.072-6e-5 -2e-3zm7.7682 2.5015-0.10967 0.11449-1e-3 2.1e-4 -8.1e-4 8.6e-4 -0.0346 0.0328 0.048 0.0505 0.036-0.034 6.6e-4 -3.6e-4 1e-3 -7.1e-4 0.11062-0.11583zm-7.6954-2.0915-0.0688 0.0156 8e-3 0.0336 0.0782 0.0233z" color="#000000" color-rendering="auto" fill="#85e96f" image-rendering="auto" shape-rendering="auto" solid-color="#000000" style="isolation:auto;mix-blend-mode:normal;text-decoration-color:#000000;text-decoration-line:none;text-decoration-style:solid;text-indent:0;text-transform:none;white-space:normal"/>
     <path d="m355.2 534.16-0.081-0.0214-0.0684 0.25248 0.0745 0.0195 2e-3 7.4e-4 3e-3 8.9e-4 0.66247 0.21607 0.0802-0.24893-0.66792-0.2177-3e-3 -8.8e-4zm-0.85261-0.23129-0.76061-0.16555-0.0558 0.25568 0.75402 0.16412 6e-3 2e-3 0.0688-0.25233-9e-3 -3e-3zm2.2698 0.72657-0.0939 0.2443 0.23815 0.091 0.47923 0.21207 0.10604-0.23962-0.48488-0.21483-3e-3 -8.9e-4 -3e-3 -1e-3zm-3.8119-1.0256-0.15928-0.0265-3e-3 -1e-3 -3e-3 -8.8e-4 -0.6201-0.0708-0.0297 0.26025 0.61337 0.0698 3e-3 8.8e-4 4e-3 1e-3 0.15303 0.0257zm5.2561 1.6762-0.11753 0.23295 0.35208 0.17736 0.33467 0.19049 0.12946-0.22777-0.34017-0.19375-4e-3 -1e-3 -3e-3 -7.6e-4zm-6.8313-1.8373-0.2873-0.0167-6e-3 -0.00178-0.49855-6e-3 -3e-3 0.26219 0.49117 6e-3 0.28736 0.0184zm8.2102 2.6162-0.14046 0.22125 0.42248 0.26848 3e-3 8.8e-4 3e-3 1e-3 0.22127 0.15665 0.15166-0.2136-0.22662-0.1604-3e-3 -1e-3 -3e-3 -8.8e-4zm-9.7944-2.6279-0.39081 0.0139-3e-3 -8.8e-4 -4e-3 2e-3 -0.39345 0.0336 0.0225 0.26072 0.39345-0.0336 0.38428-0.0136zm11.094 3.5342-0.16113 0.20376 0.46881 0.36805 5e-3 4e-3 0.13351 0.11643 0.17192-0.19838-0.13836-0.12003-3e-3 -8.9e-4 -3e-3 -8.8e-4zm-12.673-3.4014-0.47325 0.0642-3e-3 2e-3 -3e-3 -8.9e-4 -0.30315 0.0562 0.0482 0.25761 0.29596-0.0557 6e-3 -5.5e-4 0.46756-0.0632zm13.884 4.4198-0.18104 0.18918 0.48963 0.46811 2e-3 3e-3 1e-3 3e-3 0.066 0.0698 0.19017-0.17998-0.0705-0.0744-4e-3 -6e-3zm-15.443-4.1386-0.53885 0.12499-4e-3 2e-3 -3e-3 2e-3 -0.22294 0.064 0.0721 0.25179 0.21725-0.063 4e-3 -2e-3 2e-3 7.4e-4 0.53296-0.12513zm16.554 5.2657-0.19824 0.17272 0.48868 0.56706 3e-3 4e-3 0.0147 0.0195 0.20662-0.16106-0.0187-0.0239-4e-3 -6e-3zm-18.081-4.8462-0.58799 0.19931-3e-3 2e-3 -4e-3 2e-3 -0.15227 0.0602 0.096 0.24384 0.14628-0.0583 0.58943-0.20049zm19.079 6.0697-0.13914 0.1084-0.0689 0.0485 4e-3 6e-3 0.44799 0.63473 0.21446-0.15117-0.4524-0.63981-4e-3 -6e-3zm-20.563-5.5104-0.62268 0.28117-3e-3 1e-3 -3e-3 2e-3 -0.0891 0.0457 0.11858 0.23332 0.084-0.0429 4e-3 -2e-3 0.61897-0.27958zm21.447 6.8216-0.22011 0.14301 0.032 0.05 3e-3 4e-3 0.35432 0.61971 0.22692-0.12965-0.35696-0.62535-4e-3 -6e-3zm-22.868-6.13-0.64973 0.37178-6e-3 4e-3 -0.0324 0.02 0.14043 0.22151 0.0274-0.0177 6e-3 -4e-3 0.64364-0.36767zm23.627 7.5198-0.23177 0.12065 0.0554 0.10877 2e-3 4e-3 0.26816 0.59399 0.23857-0.1073-0.27015-0.59997-4e-3 -6e-3zm-24.982-6.6986-0.64174 0.45345 0.15131 0.21396 0.64159-0.45295zm25.612 8.1528-0.2425 0.097 0.0683 0.17245 2e-3 6e-3 0.18931 0.55643 0.24796-0.0845-0.1913-0.56242-4e-3 -6e-3zm-26.881-7.2134-0.0453 0.0361-6e-3 4e-3 -0.55084 0.47411 0.1708 0.19928 0.54603-0.47068 5e-3 -4e-3 0.0418-0.0317zm27.374 8.7185-0.25031 0.0725 0.072 0.25016 0.11936 0.50535 0.25462-0.0599-0.12069-0.51169-1e-3 -3e-3 -2e-3 -4e-3zm-28.552-7.6622-0.0948 0.0898-6e-3 4e-3 -0.45293 0.47313 0.18868 0.1809 0.44898-0.46892 3e-3 -2e-3 3e-3 -1e-3 0.0902-0.0853zm28.907 9.2063-0.25746 0.0477 0.0603 0.32377 9.1e-4 6e-3 0.0591 0.4399 0.25967-0.0352-0.0604-0.44623 8.9e-4 -3e-3 -2e-3 -4e-3zm-29.986-8.0463-0.13782 0.16002-3e-3 2e-3 -7.6e-4 3e-3 -0.35486 0.45171 0.20574 0.16172 0.35061-0.44651 0.13882-0.15972zm30.196 9.617-0.26319 0.0217 0.0361 0.42117 0.0134 0.35617 0.26163-9e-3 -0.0136-0.36269 8.8e-4 -3e-3 8.9e-4 -3e-3zm-31.16-8.3606-0.17834 0.24877-8.8e-4 3e-3 -8.9e-4 3e-3 -0.25741 0.4053 0.22061 0.1408 0.2543-0.40029 0.17636-0.24936zm31.221 9.9428-0.26254-4e-3 -6e-3 0.51963-1e-3 4e-3 -7.6e-4 3e-3 -0.0162 0.25295 0.26147 0.0166 0.0163-0.25884 1e-3 -4e-3 8.9e-4 -3e-3zm-32.066-8.6037-0.20867 0.36484-7.5e-4 3e-3 -8.9e-4 3e-3 -0.16455 0.32725 0.23394 0.11782 0.16166-0.32116 0.20752-0.36464zm31.982 10.186-0.2601-0.0302-0.0727 0.64109-7.6e-4 3e-3 -1e-3 4e-3 -0.021 0.12639 0.25869 0.0422 0.0216-0.13213 8.9e-4 -3e-3 1e-3 -3e-3zm-32.701-8.7738-0.22629 0.51058-1e-3 3e-3 -8.9e-4 3e-3 -0.0812 0.21251 0.24445 0.0934 0.0788-0.20622 0.22578-0.51073zm32.472 10.341-0.25583-0.0553-0.16727 0.76818 0.25632 0.0555zm-33.059-8.8687-0.22667 0.69436-7.6e-4 3e-3 -1e-3 4e-3 -0.0133 0.0537 0.25298 0.0685 0.0114-0.0473 1e-3 -3e-3 8.9e-4 -3e-3 0.22475-0.68793zm32.685 10.402-0.25248-0.0684-0.0273 0.10078-0.00175 7e-3 -0.24154 0.74062 0.24928 0.0809 0.24332-0.74656-0.12439-0.0404 0.12646 0.0334zm-32.881-8.821-0.25248-0.0683-0.0101 0.0337-8.8e-4 3e-3 -8.9e-4 3e-3 -0.15969 0.73377 0.25617 0.056 0.15955-0.73328zm32.083 10.329-0.0585 0.15456-0.22228 0.50261 0.25353 0.0757 0.20866-0.47324 7.6e-4 -3e-3 8.8e-4 -3e-3 0.0621-0.16105z" color="#000000" color-rendering="auto" fill="#85e96f" image-rendering="auto" shape-rendering="auto" solid-color="#000000" style="isolation:auto;mix-blend-mode:normal;text-decoration-color:#000000;text-decoration-line:none;text-decoration-style:solid;text-indent:0;text-transform:none;white-space:normal"/>
     <path d="m352.7 544.43-6.6878 6.5855" fill="none" stroke="#d54747" stroke-width=".26458"/>
     <g transform="matrix(.33757 .33349 -.33349 .33757 269.52 290.66)">
      <path d="m501.47 274.25-1.2053 3.2778-1.2053-3.2778c0.71162 0.52365 1.6852 0.52064 2.4106 0z" fill="#fff" fill-rule="evenodd" stroke="#d54747" stroke-linejoin="round" stroke-width=".1875"/>
     </g>
     <g fill="#000" stroke-linecap="round" stroke-width=".16933">
      <circle transform="rotate(16.619)" cx="502.23" cy="425.07" r=".28222" stroke="#e9e56f"/>
      <circle transform="rotate(16.619)" cx="493.53" cy="421.02" r=".28222" stroke="#d54747"/>
      <circle transform="rotate(16.619)" cx="495.58" cy="418.36" r=".28222" stroke="#4776d5"/>
      <circle transform="rotate(16.619)" cx="499.42" cy="416.09" r=".28222" stroke="#e9e56f"/>
     </g>
    </g>
   </g>
  </g>
 </g>
</svg>
