<svg width="47.366mm" height="20.519mm" version="1.1" viewBox="0 0 47.366 20.519" xmlns="http://www.w3.org/2000/svg">
 <g transform="translate(-347.1 -415.51)">
  <g fill="#e9e56f" aria-label="overlap">
   <g fill="#e9e56f" aria-label="Double Precision 64b">
    <g transform="rotate(-16.619)" fill="#e9e56f" aria-label="steering force">
     <g fill="none">
      <path d="m209.98 515.9s4.3565-2.8843 6.6915-4.0405c1.5685-0.77664 3.2019-1.4438 4.8833-1.9295 2.0211-0.58376 4.1003-1.0809 6.2022-1.1676 1.9011-0.0784 3.8528 0.051 5.6776 0.59018 1.8802 0.55531 3.6518 1.521 5.2412 2.6688 1.6206 1.1705 2.9917 2.6754 4.2634 4.2178 1.3122 1.5915 2.3983 3.3641 3.4335 5.1482 1.1732 2.022 3.1343 6.2738 3.1343 6.2738" stroke="#e9e56f" stroke-width=".19756"/>
      <g stroke="#d54747">
       <path d="m252.22 528.54-42.188-12.592 4.8129-16.125" stroke-width=".28222px"/>
       <g stroke-width=".16933">
        <path d="m210.07 515.96 10.434-7.4517"/>
        <path d="m228.06 508.76 8.2108-0.29739"/>
        <path d="m226.96 512.65 1.1502-3.8537"/>
       </g>
      </g>
     </g>
     <g fill="#e9e56f">
      <g transform="rotate(16.619)" aria-label="g">
       <path d="m365 425.95c0-0.097 0.0811-0.17639 0.17815-0.17639 0.0988 0 0.17815 0.0794 0.17815 0.17639 0 0.097-0.0794 0.17639-0.17815 0.17639-0.0988 0-0.17815-0.0794-0.17815-0.17639zm0.18521-0.27693c-0.16052 0-0.29987 0.127-0.29987 0.28399 0 0.0882 0.0441 0.17109 0.11818 0.21872-0.0582 0.0494-0.0917 0.10407-0.0917 0.15522 0 0.0335 0.0141 0.0811 0.0653 0.1076-0.0864 0.0547-0.13053 0.11465-0.13053 0.17815 0 0.0882 0.0811 0.19227 0.36336 0.19227 0.2734 0 0.37218-0.13935 0.37218-0.24695 0-0.0705-0.0406-0.14111-0.12524-0.17462-0.0847-0.0353-0.18168-0.0229-0.2734-0.0229-0.06 0-0.0988-5e-3 -0.11465-0.0106-0.0318-9e-3 -0.0494-0.0282-0.0494-0.0529 0-0.0423 0.0494-0.0829 0.0582-0.09 0.0318 0.0123 0.067 0.0176 0.1023 0.0176 0.15875 0 0.28928-0.127 0.28928-0.27517 0-0.0494-0.0141-0.097-0.0406-0.13758 0.0423-0.0247 0.0917-0.0388 0.14111-0.0388 0.0159 0 0.03 2e-3 0.0459 5e-3l-0.0141-0.10407c-0.0811-7e-3 -0.16227 0.0194-0.22401 0.0706-0.0512-0.0494-0.11818-0.0759-0.19226-0.0759zm-0.12171 0.78846c0.03 4e-3 0.0723 7e-3 0.13405 0.0106 0.06 2e-3 0.12524-4e-3 0.1711 4e-3 0.0741 0.0123 0.097 0.0582 0.097 0.0935s-0.0212 0.0776-0.0758 0.10759c-0.06 0.0317-0.127 0.0353-0.18168 0.0353-0.0371 0-0.10584-2e-3 -0.16581-0.0265-0.0653-0.0265-0.0794-0.0706-0.0794-0.0988 0-0.0582 0.0547-0.10055 0.10054-0.12524z" fill="#e9e56f" stroke-width=".28222px"/>
      </g>
      <g transform="rotate(16.619)" aria-label="v">
       <path d="m373.04 419.21 0.31926 0.81315h0.10055l0.19579-0.46038c0.0476-0.11289 0.0935-0.2293 0.11994-0.35277h-0.11465c-0.0212 0.11818-0.0635 0.2293-0.10936 0.33513l-0.12877 0.29987-0.23283-0.58914c-2e-3 -4e-3 -4e-3 -7e-3 -4e-3 -0.0106 0-0.0106 9e-3 -0.0212 5e-3 -0.0353z" fill="#e9e56f" stroke-width=".28222px"/>
      </g>
      <g transform="rotate(16.619)" aria-label="x">
       <path d="m392.23 431.91-0.20109 0.29809-0.21166-0.29809h-0.13759l0.27693 0.39687-0.28222 0.40922h0.14288l0.2099-0.3122 0.22225 0.3122h0.14464l-0.29634-0.41275 0.26106-0.39334z" fill="#e9e56f" stroke-width=".28222px"/>
      </g>
      <g transform="rotate(16.619)" aria-label="y">
       <path d="m350.19 416.95 0.32808 0.80257-0.0265 0.0582c-0.0141 0.0335-0.03 0.067-0.0547 0.0935-0.0335 0.037-0.0758 0.0529-0.11289 0.0529-0.06 0-0.09-0.0406-0.0953-0.0476-5e-3 -9e-3 -4e-3 -0.0212-0.0141-0.03l-0.0653 0.11465c0.0459 0.0441 0.1076 0.067 0.17462 0.067 0.0723 0 0.14817-0.0265 0.20109-0.0864 0.0353-0.0406 0.0529-0.0829 0.0706-0.12877l0.25048-0.66498c0.03-0.0759 0.0564-0.15346 0.0811-0.23284h-0.13229c-0.0141 0.0741-0.037 0.14464-0.0617 0.2152l-0.15346 0.43215-0.23636-0.59443c-2e-3 -5e-3 -2e-3 -9e-3 -2e-3 -0.0141 0-0.0124 9e-3 -0.0212 7e-3 -0.037z" fill="#e9e56f" stroke-width=".28222px"/>
      </g>
      <g transform="rotate(16.619)" stroke-width=".28222px" aria-label="vy">
       <path d="m349.89 427.39 0.31926 0.81316h0.10054l0.1958-0.46038c0.0476-0.11289 0.0935-0.2293 0.11994-0.35278h-0.11465c-0.0212 0.11818-0.0635 0.22931-0.10936 0.33514l-0.12877 0.29986-0.23283-0.58914c-2e-3 -4e-3 -4e-3 -7e-3 -4e-3 -0.0106 0-0.0106 9e-3 -0.0212 5e-3 -0.0353z"/>
       <path d="m350.79 427.4 0.32808 0.80257-0.0265 0.0582c-0.0141 0.0335-0.03 0.067-0.0547 0.0935-0.0335 0.037-0.0759 0.0529-0.11289 0.0529-0.06 0-0.09-0.0406-0.0953-0.0476-5e-3 -9e-3 -4e-3 -0.0212-0.0141-0.03l-0.0653 0.11465c0.0459 0.0441 0.10759 0.067 0.17462 0.067 0.0723 0 0.14817-0.0265 0.20109-0.0864 0.0353-0.0406 0.0529-0.0829 0.0706-0.12877l0.25047-0.66498c0.03-0.0759 0.0564-0.15346 0.0811-0.23284h-0.13229c-0.0141 0.0741-0.037 0.14464-0.0617 0.2152l-0.15345 0.43215-0.23637-0.59443c-2e-3 -5e-3 -2e-3 -9e-3 -2e-3 -0.0141 0-0.0124 9e-3 -0.0212 7e-3 -0.037z"/>
      </g>
      <g transform="rotate(16.619)" stroke-width=".28222px" aria-label="vx">
       <path d="m355.82 432.47 0.31927 0.81315h0.10054l0.19579-0.46037c0.0476-0.11289 0.0935-0.22931 0.11995-0.35278h-0.11466c-0.0212 0.11818-0.0635 0.22931-0.10936 0.33514l-0.12876 0.29986-0.23283-0.58914c-2e-3 -4e-3 -4e-3 -7e-3 -4e-3 -0.0106 0-0.0106 9e-3 -0.0212 5e-3 -0.0353z"/>
       <path d="m357.27 432.47-0.20109 0.2981-0.21166-0.2981h-0.13759l0.27693 0.39688-0.28222 0.40922h0.14288l0.2099-0.31221 0.22225 0.31221h0.14464l-0.29634-0.41275 0.26106-0.39335z"/>
      </g>
      <g transform="rotate(16.619)" stroke-width=".28222px" aria-label="v0">
       <path d="m356.95 422.03 0.31926 0.81315h0.10055l0.19579-0.46037c0.0476-0.11289 0.0935-0.22931 0.11994-0.35278h-0.11465c-0.0212 0.11818-0.0635 0.22931-0.10936 0.33514l-0.12877 0.29986-0.23283-0.58914c-2e-3 -4e-3 -4e-3 -7e-3 -4e-3 -0.0106 0-0.0106 9e-3 -0.0212 5e-3 -0.0353z"/>
       <path d="m358.21 421.73c-0.17463 0-0.35454 0.21519-0.35454 0.56621 0 0.3563 0.18168 0.56091 0.3563 0.56091 0.15875 0 0.34749-0.17286 0.34749-0.55209 0-0.37395-0.17992-0.57503-0.34925-0.57503zm0.1711 0.25224-0.3863 0.50094c-0.0159-0.0617-0.0247-0.13053-0.0247-0.20814 0-0.28222 0.12876-0.43744 0.23813-0.43744 0.06 0 0.12523 0.0476 0.17286 0.14464zm0.0406 0.11641c0.0159 0.0617 0.0229 0.13582 0.0229 0.22225 0 0.30692-0.13229 0.42334-0.22931 0.42334-0.0653 0-0.13229-0.0529-0.17992-0.14994z"/>
      </g>
     </g>
     <g transform="matrix(.5215 .15727 .15727 -.5215 -89.433 564.97)" fill="#d54747">
      <path d="m501.47 274.25-1.2053 3.2778-1.2053-3.2778c0.71162 0.52365 1.6852 0.52064 2.4106 0z" fill="#d54747" fill-rule="evenodd" stroke="#d54747" stroke-linejoin="round" stroke-width=".1875"/>
     </g>
     <g transform="matrix(-.15727 .5215 .5215 .15727 186.7 224.17)" fill="#d54747">
      <path d="m501.47 274.25-1.2053 3.2778-1.2053-3.2778c0.71162 0.52365 1.6852 0.52064 2.4106 0z" fill="#d54747" fill-rule="evenodd" stroke="#d54747" stroke-linejoin="round" stroke-width=".1875"/>
     </g>
     <g transform="matrix(.34235 .10324 .10324 -.34235 12.147 552.53)">
      <path d="m501.47 274.25-1.2053 3.2778-1.2053-3.2778c0.71162 0.52365 1.6852 0.52064 2.4106 0z" fill="#fff" fill-rule="evenodd" stroke="#d54747" stroke-linejoin="round" stroke-width=".1875"/>
     </g>
     <g transform="matrix(-.10324 .34235 .34235 .10324 174.76 318.45)">
      <path d="m501.47 274.25-1.2053 3.2778-1.2053-3.2778c0.71162 0.52365 1.6852 0.52064 2.4106 0z" fill="#fff" fill-rule="evenodd" stroke="#d54747" stroke-linejoin="round" stroke-width=".1875"/>
     </g>
     <g transform="matrix(.33462 .098848 -.098848 .33462 86.927 370.52)">
      <path d="m501.47 274.25-1.2053 3.2778-1.2053-3.2778c0.71162 0.52365 1.6852 0.52064 2.4106 0z" fill="#fff" fill-rule="evenodd" stroke="#d54747" stroke-linejoin="round" stroke-width=".1875"/>
     </g>
     <g transform="matrix(-.22398 -.26754 .26754 -.22398 258.87 703.99)">
      <path d="m501.47 274.25-1.2053 3.2778-1.2053-3.2778c0.71162 0.52365 1.6852 0.52064 2.4106 0z" fill="#fff" fill-rule="evenodd" stroke="#d54747" stroke-linejoin="round" stroke-width=".1875"/>
     </g>
     <g transform="matrix(-.007079 -.34885 .34885 -.007079 143.32 684.93)">
      <path d="m501.47 274.25-1.2053 3.2778-1.2053-3.2778c0.71162 0.52365 1.6852 0.52064 2.4106 0z" fill="#fff" fill-rule="evenodd" stroke="#d54747" stroke-linejoin="round" stroke-width=".1875"/>
     </g>
     <g fill="#000" stroke="#d54747" stroke-linecap="round" stroke-width=".10823">
      <circle transform="rotate(-10.381)" cx="132.72" cy="541.52" r=".18038"/>
      <circle transform="rotate(-10.381)" cx="129.89" cy="541.27" r=".18038"/>
      <circle transform="rotate(-10.381)" cx="126.84" cy="541.42" r=".18038"/>
      <circle transform="rotate(-10.381)" cx="123.64" cy="541.87" r=".18038"/>
      <circle transform="rotate(-10.381)" cx="120.2" cy="542.79" r=".18038"/>
      <circle transform="rotate(-10.381)" cx="116.52" cy="544.18" r=".18038"/>
     </g>
    </g>
   </g>
  </g>
 </g>
</svg>
