<svg width="134.32mm" height="89.315mm" version="1.1" viewBox="0 0 134.32 89.315" xmlns="http://www.w3.org/2000/svg">
 <g transform="translate(-29.6 -96.616)">
  <rect x="75.668" y="97.676" width="42.234" height="42.234" fill="#0d0e3b" fill-opacity=".38431" stroke="#6f72e9" stroke-width=".084667"/>
  <g transform="matrix(-3.0554 -.012576 -.012576 3.0554 515.85 -60.061)" stroke-width=".12669">
   <g>
    <path d="m133.62 54.82h6.844c0.117 0.164 0.222 0.32 0.293 0.465h-7.43c0.07-0.145 0.176-0.301 0.293-0.465z" fill="#3b327d"/>
    <path d="m134.52 53.894h5.047c0.371 0.289 0.672 0.613 0.899 0.926h-6.844c0.223-0.313 0.527-0.637 0.898-0.926z" fill="#6549b6"/>
    <path d="m138.84 53.429c0.262 0.137 0.512 0.289 0.734 0.465h-5.047c0.219-0.176 0.473-0.328 0.735-0.465z" fill="#9882cd"/>
    <path d="m138.84 53.429h-3.578c0.523-0.277 1.121-0.465 1.789-0.465s1.266 0.188 1.789 0.465z" fill="#dfd7f4"/>
    <path d="m136.13 60.394 1.848-4e-3 -0.016-1.855-1.844 7e-3z" fill="#352968"/>
    <path d="m136.58 55.285v3.757c-0.848 0.133-1.519 0.618-2.144 1.196-0.114-0.211-0.5-0.426-0.586-0.645-0.086-0.226-0.157-0.457-0.211-0.691-0.055-0.235-0.09-0.477-0.114-0.715-0.019-0.242-0.027-0.488-0.015-0.735 0.011-0.242 0.039-0.488 0.086-0.73 0.047-0.246 0.109-0.488 0.187-0.73 0.028-0.082 0.07-0.161 0.102-0.243 0.062-0.156 0.406-0.312 0.484-0.464z" fill="#a980ff"/>
    <path d="m137.51 55.285v3.757c-0.153-0.023-0.305-0.039-0.465-0.039s-0.317 0.016-0.465 0.039v-3.757z" fill="#313e82"/>
    <path d="m139.79 55.285c0.227 0.277 0.43 0.691 0.504 0.929 0.074 0.242 0.129 0.492 0.168 0.742 0.035 0.25 0.109 0.305 0.113 0.559 0 0.25 0.027 0.496 0 0.742-0.031 0.246-0.176 0.692-0.23 0.93-0.055 0.238-0.125 0.465-0.203 0.687-0.075 0.207-0.383 0.188-0.473 0.375-0.629-0.582-1.309-1.07-2.16-1.207v-3.757z" fill="#a980ff"/>
    <path d="m138.44 58.999h1.855v-3.25h-1.855z" fill="#344183"/>
    <path d="m133.79 58.999h1.859v-3.25h-1.859z" fill="#833434"/>
    <path d="m134.44 60.238c-0.219 0.199-0.43 0.41-0.645 0.621-1.164-1.555-1.391-3.715-0.461-5.574h1.039c-0.117 0.234-0.219 0.468-0.297 0.71-0.082 0.239-0.144 0.485-0.191 0.727-0.043 0.246-0.07 0.488-0.082 0.734-0.012 0.243-8e-3 0.489 0.015 0.731 0.02 0.242 0.059 0.48 0.114 0.715 0.05 0.238 0.125 0.468 0.211 0.691 0.082 0.223 0.183 0.434 0.297 0.645z" fill="#aab2ff"/>
    <path d="m140.76 55.285c0.929 1.859 0.465 4.183-0.465 5.574-0.207-0.207-0.414-0.41-0.625-0.61 0.09-0.187 0.18-0.382 0.25-0.589 0.082-0.219 0.148-0.45 0.207-0.688 0.055-0.234 0.101-0.477 0.129-0.727 0.027-0.246 0.043-0.496 0.039-0.746 0-0.254-0.016-0.504-0.055-0.757-0.035-0.25-0.09-0.497-0.164-0.743-0.074-0.242-0.168-0.48-0.285-0.714z" fill="#a980ff"/>
    <path d="m134.26 58.535h0.93v-0.926h-0.93z" fill="#e70707"/>
    <path d="m134.26 57.144h0.93v-0.93h-0.93z" fill="#4dab44"/>
   </g>
   <g fill="#d6e8ff" fill-opacity=".60106">
    <path d="m136.49 62.437h1.496v-1.5h-1.496z"/>
    <path d="m135.01 64.735h1.496v-1.496h-1.496z"/>
    <path d="m136.19 61.687h1.5v-1.496h-1.5z"/>
    <path d="m135.96 63.19h1.496v-1.5h-1.496z"/>
    <path d="m135.77 64.243h1.496v-1.5h-1.496z"/>
    <path d="m136.8 62.123h1.496v-1.496h-1.496z"/>
   </g>
   <g fill="#5fa5ff" fill-opacity=".60106">
    <path d="m137.81 64.594h1.496v-1.496h-1.496z"/>
    <path d="m135.99 63.913h1.496v-1.496h-1.496z"/>
    <path d="m137.29 63.608h1.496v-1.496h-1.496z"/>
   </g>
  </g>
  <g stroke-width=".084667">
   <path d="m96.746 97.616v42.333" fill="none" stroke="#e9e56f"/>
   <path d="m75.579 118.78h42.333" fill="none" stroke="#e9e56f"/>
   <rect x="120.65" y="97.676" width="42.234" height="42.234" fill="#0d0e3b" fill-opacity=".38431" stroke="#6f72e9"/>
  </g>
  <g transform="matrix(-3.0554 -.012576 -.012576 3.0554 560.83 -60.061)" stroke-width=".12669">
   <g>
    <path d="m133.62 54.82h6.844c0.117 0.164 0.222 0.32 0.293 0.465h-7.43c0.07-0.145 0.176-0.301 0.293-0.465z" fill="#3b327d"/>
    <path d="m134.52 53.894h5.047c0.371 0.289 0.672 0.613 0.899 0.926h-6.844c0.223-0.313 0.527-0.637 0.898-0.926z" fill="#6549b6"/>
    <path d="m138.84 53.429c0.262 0.137 0.512 0.289 0.734 0.465h-5.047c0.219-0.176 0.473-0.328 0.735-0.465z" fill="#9882cd"/>
    <path d="m138.84 53.429h-3.578c0.523-0.277 1.121-0.465 1.789-0.465s1.266 0.188 1.789 0.465z" fill="#dfd7f4"/>
    <path d="m136.13 60.394 1.848-4e-3 -0.016-1.855-1.844 7e-3z" fill="#352968"/>
    <path d="m136.58 55.285v3.757c-0.848 0.133-1.519 0.618-2.144 1.196-0.114-0.211-0.5-0.426-0.586-0.645-0.086-0.226-0.157-0.457-0.211-0.691-0.055-0.235-0.09-0.477-0.114-0.715-0.019-0.242-0.027-0.488-0.015-0.735 0.011-0.242 0.039-0.488 0.086-0.73 0.047-0.246 0.109-0.488 0.187-0.73 0.028-0.082 0.07-0.161 0.102-0.243 0.062-0.156 0.406-0.312 0.484-0.464z" fill="#a980ff"/>
    <path d="m137.51 55.285v3.757c-0.153-0.023-0.305-0.039-0.465-0.039s-0.317 0.016-0.465 0.039v-3.757z" fill="#313e82"/>
    <path d="m139.79 55.285c0.227 0.277 0.43 0.691 0.504 0.929 0.074 0.242 0.129 0.492 0.168 0.742 0.035 0.25 0.109 0.305 0.113 0.559 0 0.25 0.027 0.496 0 0.742-0.031 0.246-0.176 0.692-0.23 0.93-0.055 0.238-0.125 0.465-0.203 0.687-0.075 0.207-0.383 0.188-0.473 0.375-0.629-0.582-1.309-1.07-2.16-1.207v-3.757z" fill="#a980ff"/>
    <path d="m138.44 58.999h1.855v-3.25h-1.855z" fill="#344183"/>
    <path d="m133.79 58.999h1.859v-3.25h-1.859z" fill="#833434"/>
    <path d="m134.44 60.238c-0.219 0.199-0.43 0.41-0.645 0.621-1.164-1.555-1.391-3.715-0.461-5.574h1.039c-0.117 0.234-0.219 0.468-0.297 0.71-0.082 0.239-0.144 0.485-0.191 0.727-0.043 0.246-0.07 0.488-0.082 0.734-0.012 0.243-8e-3 0.489 0.015 0.731 0.02 0.242 0.059 0.48 0.114 0.715 0.05 0.238 0.125 0.468 0.211 0.691 0.082 0.223 0.183 0.434 0.297 0.645z" fill="#aab2ff"/>
    <path d="m140.76 55.285c0.929 1.859 0.465 4.183-0.465 5.574-0.207-0.207-0.414-0.41-0.625-0.61 0.09-0.187 0.18-0.382 0.25-0.589 0.082-0.219 0.148-0.45 0.207-0.688 0.055-0.234 0.101-0.477 0.129-0.727 0.027-0.246 0.043-0.496 0.039-0.746 0-0.254-0.016-0.504-0.055-0.757-0.035-0.25-0.09-0.497-0.164-0.743-0.074-0.242-0.168-0.48-0.285-0.714z" fill="#a980ff"/>
    <path d="m134.26 58.535h0.93v-0.926h-0.93z" fill="#e70707"/>
    <path d="m134.26 57.144h0.93v-0.93h-0.93z" fill="#4dab44"/>
   </g>
   <g fill="#d6e8ff" fill-opacity=".60106">
    <path d="m136.49 62.437h1.496v-1.5h-1.496z"/>
    <path d="m135.01 64.735h1.496v-1.496h-1.496z"/>
    <path d="m136.19 61.687h1.5v-1.496h-1.5z"/>
    <path d="m135.96 63.19h1.496v-1.5h-1.496z"/>
    <path d="m135.77 64.243h1.496v-1.5h-1.496z"/>
    <path d="m136.8 62.123h1.496v-1.496h-1.496z"/>
   </g>
   <g fill="#5fa5ff" fill-opacity=".60106">
    <path d="m137.81 64.594h1.496v-1.496h-1.496z"/>
    <path d="m135.99 63.913h1.496v-1.496h-1.496z"/>
    <path d="m137.29 63.608h1.496v-1.496h-1.496z"/>
   </g>
  </g>
  <g fill="none" stroke="#e9e56f" stroke-width=".084667">
   <path d="m141.72 97.616v42.333"/>
   <path d="m120.56 118.78h42.333"/>
   <path d="m120.56 108.2h42.333"/>
   <path d="m120.56 129.37h42.333"/>
   <path d="m131.14 97.616v42.333"/>
   <path d="m152.31 97.616v42.333"/>
  </g>
  <rect x="75.668" y="142.65" width="42.234" height="42.234" fill="#0d0e3b" fill-opacity=".38431" stroke="#6f72e9" stroke-width=".084667"/>
  <g transform="matrix(-3.0554 -.012576 -.012576 3.0554 515.85 -15.082)" stroke-width=".12669">
   <g>
    <path d="m133.62 54.82h6.844c0.117 0.164 0.222 0.32 0.293 0.465h-7.43c0.07-0.145 0.176-0.301 0.293-0.465z" fill="#3b327d"/>
    <path d="m134.52 53.894h5.047c0.371 0.289 0.672 0.613 0.899 0.926h-6.844c0.223-0.313 0.527-0.637 0.898-0.926z" fill="#6549b6"/>
    <path d="m138.84 53.429c0.262 0.137 0.512 0.289 0.734 0.465h-5.047c0.219-0.176 0.473-0.328 0.735-0.465z" fill="#9882cd"/>
    <path d="m138.84 53.429h-3.578c0.523-0.277 1.121-0.465 1.789-0.465s1.266 0.188 1.789 0.465z" fill="#dfd7f4"/>
    <path d="m136.13 60.394 1.848-4e-3 -0.016-1.855-1.844 7e-3z" fill="#352968"/>
    <path d="m136.58 55.285v3.757c-0.848 0.133-1.519 0.618-2.144 1.196-0.114-0.211-0.5-0.426-0.586-0.645-0.086-0.226-0.157-0.457-0.211-0.691-0.055-0.235-0.09-0.477-0.114-0.715-0.019-0.242-0.027-0.488-0.015-0.735 0.011-0.242 0.039-0.488 0.086-0.73 0.047-0.246 0.109-0.488 0.187-0.73 0.028-0.082 0.07-0.161 0.102-0.243 0.062-0.156 0.406-0.312 0.484-0.464z" fill="#a980ff"/>
    <path d="m137.51 55.285v3.757c-0.153-0.023-0.305-0.039-0.465-0.039s-0.317 0.016-0.465 0.039v-3.757z" fill="#313e82"/>
    <path d="m139.79 55.285c0.227 0.277 0.43 0.691 0.504 0.929 0.074 0.242 0.129 0.492 0.168 0.742 0.035 0.25 0.109 0.305 0.113 0.559 0 0.25 0.027 0.496 0 0.742-0.031 0.246-0.176 0.692-0.23 0.93-0.055 0.238-0.125 0.465-0.203 0.687-0.075 0.207-0.383 0.188-0.473 0.375-0.629-0.582-1.309-1.07-2.16-1.207v-3.757z" fill="#a980ff"/>
    <path d="m138.44 58.999h1.855v-3.25h-1.855z" fill="#344183"/>
    <path d="m133.79 58.999h1.859v-3.25h-1.859z" fill="#833434"/>
    <path d="m134.44 60.238c-0.219 0.199-0.43 0.41-0.645 0.621-1.164-1.555-1.391-3.715-0.461-5.574h1.039c-0.117 0.234-0.219 0.468-0.297 0.71-0.082 0.239-0.144 0.485-0.191 0.727-0.043 0.246-0.07 0.488-0.082 0.734-0.012 0.243-8e-3 0.489 0.015 0.731 0.02 0.242 0.059 0.48 0.114 0.715 0.05 0.238 0.125 0.468 0.211 0.691 0.082 0.223 0.183 0.434 0.297 0.645z" fill="#aab2ff"/>
    <path d="m140.76 55.285c0.929 1.859 0.465 4.183-0.465 5.574-0.207-0.207-0.414-0.41-0.625-0.61 0.09-0.187 0.18-0.382 0.25-0.589 0.082-0.219 0.148-0.45 0.207-0.688 0.055-0.234 0.101-0.477 0.129-0.727 0.027-0.246 0.043-0.496 0.039-0.746 0-0.254-0.016-0.504-0.055-0.757-0.035-0.25-0.09-0.497-0.164-0.743-0.074-0.242-0.168-0.48-0.285-0.714z" fill="#a980ff"/>
    <path d="m134.26 58.535h0.93v-0.926h-0.93z" fill="#e70707"/>
    <path d="m134.26 57.144h0.93v-0.93h-0.93z" fill="#4dab44"/>
   </g>
   <g fill="#d6e8ff" fill-opacity=".60106">
    <path d="m136.49 62.437h1.496v-1.5h-1.496z"/>
    <path d="m135.01 64.735h1.496v-1.496h-1.496z"/>
    <path d="m136.19 61.687h1.5v-1.496h-1.5z"/>
    <path d="m135.96 63.19h1.496v-1.5h-1.496z"/>
    <path d="m135.77 64.243h1.496v-1.5h-1.496z"/>
    <path d="m136.8 62.123h1.496v-1.496h-1.496z"/>
   </g>
   <g fill="#5fa5ff" fill-opacity=".60106">
    <path d="m137.81 64.594h1.496v-1.496h-1.496z"/>
    <path d="m135.99 63.913h1.496v-1.496h-1.496z"/>
    <path d="m137.29 63.608h1.496v-1.496h-1.496z"/>
   </g>
  </g>
  <g fill="none" stroke="#e9e56f" stroke-width=".084667">
   <path d="m96.746 142.6v42.333"/>
   <path d="m75.579 163.76h42.333"/>
   <path d="m75.579 153.18h42.333"/>
   <path d="m75.579 174.35h42.333"/>
   <path d="m86.162 142.6v42.333"/>
   <path d="m107.33 142.6v42.333"/>
   <path d="m80.871 142.6v10.583"/>
   <path d="m75.579 147.89h10.583"/>
   <path d="m91.454 142.6v10.583"/>
   <path d="m86.162 147.89h10.583"/>
   <path d="m102.04 142.6v10.583"/>
   <path d="m96.746 147.89h10.583"/>
   <path d="m112.62 142.6v10.583"/>
   <path d="m107.33 147.89h10.583"/>
   <path d="m112.62 153.18v10.583"/>
   <path d="m107.33 158.47h10.583"/>
   <path d="m80.871 153.18v10.583"/>
   <path d="m75.579 158.47h10.583"/>
   <path d="m80.871 163.76v10.583"/>
   <path d="m75.579 169.05h10.583"/>
   <path d="m91.454 163.76v10.583"/>
   <path d="m86.162 169.05h10.583"/>
   <path d="m102.04 163.76v10.583"/>
   <path d="m96.746 169.05h10.583"/>
   <path d="m112.62 163.76v10.583"/>
   <path d="m107.33 169.05h10.583"/>
   <path d="m91.454 174.35v10.583"/>
   <path d="m86.162 179.64h10.583"/>
   <path d="m102.04 174.35v10.583"/>
   <path d="m96.746 179.64h10.583"/>
   <path d="m88.808 142.6v5.2917"/>
   <path d="m86.162 145.24h5.2917"/>
   <path d="m94.1 142.6v5.2917"/>
   <path d="m91.454 145.24h5.2917"/>
   <path d="m99.392 142.6v5.2917"/>
   <path d="m96.746 145.24h5.2917"/>
   <path d="m104.68 142.6v5.2917"/>
   <path d="m102.04 145.24h5.2917"/>
   <path d="m109.97 147.89v5.2917"/>
   <path d="m107.33 150.53h5.2917"/>
   <path d="m104.68 147.89v5.2917"/>
   <path d="m102.04 150.53h5.2917"/>
   <path d="m88.808 147.89v5.2917"/>
   <path d="m86.162 150.53h5.2917"/>
   <path d="m83.517 147.89v5.2917"/>
   <path d="m80.871 150.53h5.2917"/>
   <path d="m83.517 153.18v5.2917"/>
   <path d="m80.871 155.82h5.2917"/>
   <path d="m83.517 158.47v5.2917"/>
   <path d="m80.871 161.12h5.2917"/>
   <path d="m83.517 163.76v5.2917"/>
   <path d="m80.871 166.41h5.2917"/>
   <path d="m88.808 163.76v5.2917"/>
   <path d="m86.162 166.41h5.2917"/>
   <path d="m94.1 163.76v5.2917"/>
   <path d="m91.454 166.41h5.2917"/>
   <path d="m99.392 163.76v5.2917"/>
   <path d="m96.746 166.41h5.2917"/>
   <path d="m104.68 163.76v5.2917"/>
   <path d="m102.04 166.41h5.2917"/>
   <path d="m109.97 163.76v5.2917"/>
   <path d="m107.33 166.41h5.2917"/>
   <path d="m109.97 158.47v5.2917"/>
   <path d="m107.33 161.12h5.2917"/>
   <path d="m109.97 153.18v5.2917"/>
   <path d="m107.33 155.82h5.2917"/>
   <path d="m99.392 169.05v5.2917"/>
   <path d="m96.746 171.7h5.2917"/>
   <path d="m94.1 169.05v5.2917"/>
   <path d="m91.454 171.7h5.2917"/>
   <path d="m88.808 169.05v5.2917"/>
   <path d="m86.162 171.7h5.2917"/>
   <path d="m88.808 174.35v5.2917"/>
   <path d="m86.162 176.99h5.2917"/>
   <path d="m94.1 174.35v5.2917"/>
   <path d="m91.454 176.99h5.2917"/>
   <path d="m99.392 174.35v5.2917"/>
   <path d="m96.746 176.99h5.2917"/>
   <path d="m104.68 174.35v5.2917"/>
   <path d="m102.04 176.99h5.2917"/>
   <path d="m104.68 179.64v5.2917"/>
   <path d="m102.04 182.28h5.2917"/>
   <path d="m99.392 179.64v5.2917"/>
   <path d="m96.746 182.28h5.2917"/>
   <path d="m94.1 179.64v5.2917"/>
   <path d="m91.454 182.28h5.2917"/>
   <path d="m88.808 179.64v5.2917"/>
   <path d="m86.162 182.28h5.2917"/>
  </g>
  <rect x="120.65" y="142.65" width="42.234" height="42.234" fill="#0d0e3b" fill-opacity=".38431" stroke="#6f72e9" stroke-width=".084667"/>
  <g transform="matrix(-3.0554 -.012576 -.012576 3.0554 560.83 -15.082)" stroke-width=".12669">
   <g>
    <path d="m133.62 54.82h6.844c0.117 0.164 0.222 0.32 0.293 0.465h-7.43c0.07-0.145 0.176-0.301 0.293-0.465z" fill="#3b327d"/>
    <path d="m134.52 53.894h5.047c0.371 0.289 0.672 0.613 0.899 0.926h-6.844c0.223-0.313 0.527-0.637 0.898-0.926z" fill="#6549b6"/>
    <path d="m138.84 53.429c0.262 0.137 0.512 0.289 0.734 0.465h-5.047c0.219-0.176 0.473-0.328 0.735-0.465z" fill="#9882cd"/>
    <path d="m138.84 53.429h-3.578c0.523-0.277 1.121-0.465 1.789-0.465s1.266 0.188 1.789 0.465z" fill="#dfd7f4"/>
    <path d="m136.13 60.394 1.848-4e-3 -0.016-1.855-1.844 7e-3z" fill="#352968"/>
    <path d="m136.58 55.285v3.757c-0.848 0.133-1.519 0.618-2.144 1.196-0.114-0.211-0.5-0.426-0.586-0.645-0.086-0.226-0.157-0.457-0.211-0.691-0.055-0.235-0.09-0.477-0.114-0.715-0.019-0.242-0.027-0.488-0.015-0.735 0.011-0.242 0.039-0.488 0.086-0.73 0.047-0.246 0.109-0.488 0.187-0.73 0.028-0.082 0.07-0.161 0.102-0.243 0.062-0.156 0.406-0.312 0.484-0.464z" fill="#a980ff"/>
    <path d="m137.51 55.285v3.757c-0.153-0.023-0.305-0.039-0.465-0.039s-0.317 0.016-0.465 0.039v-3.757z" fill="#313e82"/>
    <path d="m139.79 55.285c0.227 0.277 0.43 0.691 0.504 0.929 0.074 0.242 0.129 0.492 0.168 0.742 0.035 0.25 0.109 0.305 0.113 0.559 0 0.25 0.027 0.496 0 0.742-0.031 0.246-0.176 0.692-0.23 0.93-0.055 0.238-0.125 0.465-0.203 0.687-0.075 0.207-0.383 0.188-0.473 0.375-0.629-0.582-1.309-1.07-2.16-1.207v-3.757z" fill="#a980ff"/>
    <path d="m138.44 58.999h1.855v-3.25h-1.855z" fill="#344183"/>
    <path d="m133.79 58.999h1.859v-3.25h-1.859z" fill="#833434"/>
    <path d="m134.44 60.238c-0.219 0.199-0.43 0.41-0.645 0.621-1.164-1.555-1.391-3.715-0.461-5.574h1.039c-0.117 0.234-0.219 0.468-0.297 0.71-0.082 0.239-0.144 0.485-0.191 0.727-0.043 0.246-0.07 0.488-0.082 0.734-0.012 0.243-8e-3 0.489 0.015 0.731 0.02 0.242 0.059 0.48 0.114 0.715 0.05 0.238 0.125 0.468 0.211 0.691 0.082 0.223 0.183 0.434 0.297 0.645z" fill="#aab2ff"/>
    <path d="m140.76 55.285c0.929 1.859 0.465 4.183-0.465 5.574-0.207-0.207-0.414-0.41-0.625-0.61 0.09-0.187 0.18-0.382 0.25-0.589 0.082-0.219 0.148-0.45 0.207-0.688 0.055-0.234 0.101-0.477 0.129-0.727 0.027-0.246 0.043-0.496 0.039-0.746 0-0.254-0.016-0.504-0.055-0.757-0.035-0.25-0.09-0.497-0.164-0.743-0.074-0.242-0.168-0.48-0.285-0.714z" fill="#a980ff"/>
    <path d="m134.26 58.535h0.93v-0.926h-0.93z" fill="#e70707"/>
    <path d="m134.26 57.144h0.93v-0.93h-0.93z" fill="#4dab44"/>
   </g>
   <g fill="#d6e8ff" fill-opacity=".60106">
    <path d="m136.49 62.437h1.496v-1.5h-1.496z"/>
    <path d="m135.01 64.735h1.496v-1.496h-1.496z"/>
    <path d="m136.19 61.687h1.5v-1.496h-1.5z"/>
    <path d="m135.96 63.19h1.496v-1.5h-1.496z"/>
    <path d="m135.77 64.243h1.496v-1.5h-1.496z"/>
    <path d="m136.8 62.123h1.496v-1.496h-1.496z"/>
   </g>
   <g fill="#5fa5ff" fill-opacity=".60106">
    <path d="m137.81 64.594h1.496v-1.496h-1.496z"/>
    <path d="m135.99 63.913h1.496v-1.496h-1.496z"/>
    <path d="m137.29 63.608h1.496v-1.496h-1.496z"/>
   </g>
  </g>
  <g fill="none" stroke="#e9e56f" stroke-width=".084667">
   <path d="m141.72 142.6v42.333"/>
   <path d="m120.56 163.76h42.333"/>
   <path d="m120.56 153.18h42.333"/>
   <path d="m120.56 174.35h42.333"/>
   <path d="m131.14 142.6v42.333"/>
   <path d="m152.31 142.6v42.333"/>
   <path d="m125.85 142.6v10.583"/>
   <path d="m120.56 147.89h10.583"/>
   <path d="m136.43 142.6v10.583"/>
   <path d="m131.14 147.89h10.583"/>
   <path d="m147.02 142.6v10.583"/>
   <path d="m141.72 147.89h10.583"/>
   <path d="m157.6 142.6v10.583"/>
   <path d="m152.31 147.89h10.583"/>
   <path d="m157.6 153.18v10.583"/>
   <path d="m152.31 158.47h10.583"/>
   <path d="m125.85 153.18v10.583"/>
   <path d="m120.56 158.47h10.583"/>
   <path d="m125.85 163.76v10.583"/>
   <path d="m120.56 169.05h10.583"/>
   <path d="m136.43 163.76v10.583"/>
   <path d="m131.14 169.05h10.583"/>
   <path d="m147.02 163.76v10.583"/>
   <path d="m141.72 169.05h10.583"/>
   <path d="m157.6 163.76v10.583"/>
   <path d="m152.31 169.05h10.583"/>
   <path d="m136.43 174.35v10.583"/>
   <path d="m131.14 179.64h10.583"/>
   <path d="m147.02 174.35v10.583"/>
   <path d="m141.72 179.64h10.583"/>
   <path d="m133.79 142.6v5.2917"/>
   <path d="m131.14 145.24h5.2917"/>
   <path d="m139.08 142.6v5.2917"/>
   <path d="m136.43 145.24h5.2917"/>
   <path d="m144.37 142.6v5.2917"/>
   <path d="m141.72 145.24h5.2917"/>
   <path d="m149.66 142.6v5.2917"/>
   <path d="m147.02 145.24h5.2917"/>
   <path d="m154.95 147.89v5.2917"/>
   <path d="m152.31 150.53h5.2917"/>
   <path d="m149.66 147.89v5.2917"/>
   <path d="m147.02 150.53h5.2917"/>
   <path d="m133.79 147.89v5.2917"/>
   <path d="m131.14 150.53h5.2917"/>
   <path d="m128.5 147.89v5.2917"/>
   <path d="m125.85 150.53h5.2917"/>
   <path d="m128.5 153.18v5.2917"/>
   <path d="m125.85 155.82h5.2917"/>
   <path d="m128.5 158.47v5.2917"/>
   <path d="m125.85 161.12h5.2917"/>
   <path d="m128.5 163.76v5.2917"/>
   <path d="m125.85 166.41h5.2917"/>
   <path d="m133.79 163.76v5.2917"/>
   <path d="m131.14 166.41h5.2917"/>
   <path d="m139.08 163.76v5.2917"/>
   <path d="m136.43 166.41h5.2917"/>
   <path d="m144.37 163.76v5.2917"/>
   <path d="m141.72 166.41h5.2917"/>
   <path d="m149.66 163.76v5.2917"/>
   <path d="m147.02 166.41h5.2917"/>
   <path d="m154.95 163.76v5.2917"/>
   <path d="m152.31 166.41h5.2917"/>
   <path d="m154.95 158.47v5.2917"/>
   <path d="m152.31 161.12h5.2917"/>
   <path d="m154.95 153.18v5.2917"/>
   <path d="m152.31 155.82h5.2917"/>
   <path d="m144.37 169.05v5.2917"/>
   <path d="m141.72 171.7h5.2917"/>
   <path d="m139.08 169.05v5.2917"/>
   <path d="m136.43 171.7h5.2917"/>
   <path d="m133.79 169.05v5.2917"/>
   <path d="m131.14 171.7h5.2917"/>
   <path d="m133.79 174.35v5.2917"/>
   <path d="m131.14 176.99h5.2917"/>
   <path d="m139.08 174.35v5.2917"/>
   <path d="m136.43 176.99h5.2917"/>
   <path d="m144.37 174.35v5.2917"/>
   <path d="m141.72 176.99h5.2917"/>
   <path d="m149.66 174.35v5.2917"/>
   <path d="m147.02 176.99h5.2917"/>
   <path d="m149.66 179.64v5.2917"/>
   <path d="m147.02 182.28h5.2917"/>
   <path d="m144.37 179.64v5.2917"/>
   <path d="m141.72 182.28h5.2917"/>
   <path d="m139.08 179.64v5.2917"/>
   <path d="m136.43 182.28h5.2917"/>
   <path d="m133.79 179.64v5.2917"/>
   <path d="m131.14 182.28h5.2917"/>
  </g>
  <rect x="30.689" y="142.65" width="42.234" height="42.234" fill="#0d0e3b" fill-opacity=".38431" stroke="#6f72e9" stroke-width=".084667"/>
  <g transform="matrix(-3.0554 -.012576 -.012576 3.0554 470.87 -15.082)" stroke-width=".12669">
   <g>
    <path d="m133.62 54.82h6.844c0.117 0.164 0.222 0.32 0.293 0.465h-7.43c0.07-0.145 0.176-0.301 0.293-0.465z" fill="#3b327d"/>
    <path d="m134.52 53.894h5.047c0.371 0.289 0.672 0.613 0.899 0.926h-6.844c0.223-0.313 0.527-0.637 0.898-0.926z" fill="#6549b6"/>
    <path d="m138.84 53.429c0.262 0.137 0.512 0.289 0.734 0.465h-5.047c0.219-0.176 0.473-0.328 0.735-0.465z" fill="#9882cd"/>
    <path d="m138.84 53.429h-3.578c0.523-0.277 1.121-0.465 1.789-0.465s1.266 0.188 1.789 0.465z" fill="#dfd7f4"/>
    <path d="m136.13 60.394 1.848-4e-3 -0.016-1.855-1.844 7e-3z" fill="#352968"/>
    <path d="m136.58 55.285v3.757c-0.848 0.133-1.519 0.618-2.144 1.196-0.114-0.211-0.5-0.426-0.586-0.645-0.086-0.226-0.157-0.457-0.211-0.691-0.055-0.235-0.09-0.477-0.114-0.715-0.019-0.242-0.027-0.488-0.015-0.735 0.011-0.242 0.039-0.488 0.086-0.73 0.047-0.246 0.109-0.488 0.187-0.73 0.028-0.082 0.07-0.161 0.102-0.243 0.062-0.156 0.406-0.312 0.484-0.464z" fill="#a980ff"/>
    <path d="m137.51 55.285v3.757c-0.153-0.023-0.305-0.039-0.465-0.039s-0.317 0.016-0.465 0.039v-3.757z" fill="#313e82"/>
    <path d="m139.79 55.285c0.227 0.277 0.43 0.691 0.504 0.929 0.074 0.242 0.129 0.492 0.168 0.742 0.035 0.25 0.109 0.305 0.113 0.559 0 0.25 0.027 0.496 0 0.742-0.031 0.246-0.176 0.692-0.23 0.93-0.055 0.238-0.125 0.465-0.203 0.687-0.075 0.207-0.383 0.188-0.473 0.375-0.629-0.582-1.309-1.07-2.16-1.207v-3.757z" fill="#a980ff"/>
    <path d="m138.44 58.999h1.855v-3.25h-1.855z" fill="#344183"/>
    <path d="m133.79 58.999h1.859v-3.25h-1.859z" fill="#833434"/>
    <path d="m134.44 60.238c-0.219 0.199-0.43 0.41-0.645 0.621-1.164-1.555-1.391-3.715-0.461-5.574h1.039c-0.117 0.234-0.219 0.468-0.297 0.71-0.082 0.239-0.144 0.485-0.191 0.727-0.043 0.246-0.07 0.488-0.082 0.734-0.012 0.243-8e-3 0.489 0.015 0.731 0.02 0.242 0.059 0.48 0.114 0.715 0.05 0.238 0.125 0.468 0.211 0.691 0.082 0.223 0.183 0.434 0.297 0.645z" fill="#aab2ff"/>
    <path d="m140.76 55.285c0.929 1.859 0.465 4.183-0.465 5.574-0.207-0.207-0.414-0.41-0.625-0.61 0.09-0.187 0.18-0.382 0.25-0.589 0.082-0.219 0.148-0.45 0.207-0.688 0.055-0.234 0.101-0.477 0.129-0.727 0.027-0.246 0.043-0.496 0.039-0.746 0-0.254-0.016-0.504-0.055-0.757-0.035-0.25-0.09-0.497-0.164-0.743-0.074-0.242-0.168-0.48-0.285-0.714z" fill="#a980ff"/>
    <path d="m134.26 58.535h0.93v-0.926h-0.93z" fill="#e70707"/>
    <path d="m134.26 57.144h0.93v-0.93h-0.93z" fill="#4dab44"/>
   </g>
   <g fill="#d6e8ff" fill-opacity=".60106">
    <path d="m136.49 62.437h1.496v-1.5h-1.496z"/>
    <path d="m135.01 64.735h1.496v-1.496h-1.496z"/>
    <path d="m136.19 61.687h1.5v-1.496h-1.5z"/>
    <path d="m135.96 63.19h1.496v-1.5h-1.496z"/>
    <path d="m135.77 64.243h1.496v-1.5h-1.496z"/>
    <path d="m136.8 62.123h1.496v-1.496h-1.496z"/>
   </g>
   <g fill="#5fa5ff" fill-opacity=".60106">
    <path d="m137.81 64.594h1.496v-1.496h-1.496z"/>
    <path d="m135.99 63.913h1.496v-1.496h-1.496z"/>
    <path d="m137.29 63.608h1.496v-1.496h-1.496z"/>
   </g>
  </g>
  <g fill="none" stroke="#e9e56f" stroke-width=".084667">
   <path d="m51.767 142.6v42.333"/>
   <path d="m30.6 163.76h42.333"/>
   <path d="m30.6 153.18h42.333"/>
   <path d="m30.6 174.35h42.333"/>
   <path d="m41.183 142.6v42.333"/>
   <path d="m62.35 142.6v42.333"/>
   <path d="m35.892 142.6v10.583"/>
   <path d="m30.6 147.89h10.583"/>
   <path d="m46.475 142.6v10.583"/>
   <path d="m41.183 147.89h10.583"/>
   <path d="m57.058 142.6v10.583"/>
   <path d="m51.767 147.89h10.583"/>
   <path d="m67.642 142.6v10.583"/>
   <path d="m62.35 147.89h10.583"/>
   <path d="m67.642 153.18v10.583"/>
   <path d="m62.35 158.47h10.583"/>
   <path d="m35.892 153.18v10.583"/>
   <path d="m30.6 158.47h10.583"/>
   <path d="m35.892 163.76v10.583"/>
   <path d="m30.6 169.05h10.583"/>
   <path d="m46.475 163.76v10.583"/>
   <path d="m41.183 169.05h10.583"/>
   <path d="m57.058 163.76v10.583"/>
   <path d="m51.767 169.05h10.583"/>
   <path d="m67.642 163.76v10.583"/>
   <path d="m62.35 169.05h10.583"/>
   <path d="m57.058 174.35v10.583"/>
   <path d="m51.767 179.64h10.583"/>
   <path d="m46.475 174.35v10.583"/>
   <path d="m41.183 179.64h10.583"/>
   <path d="m140.4 142.6v2.6458"/>
   <path d="m139.08 143.92h2.6458"/>
   <path d="m143.05 142.6v2.6458"/>
   <path d="m141.72 143.92h2.6458"/>
   <path d="m137.76 145.24v2.6458"/>
   <path d="m136.43 146.56h2.6458"/>
   <path d="m145.69 145.24v2.6458"/>
   <path d="m144.37 146.56h2.6458"/>
   <path d="m148.34 145.24v2.6458"/>
   <path d="m147.02 146.56h2.6458"/>
   <path d="m135.11 145.24v2.6458"/>
   <path d="m133.79 146.56h2.6458"/>
   <path d="m132.46 147.89v2.6458"/>
   <path d="m131.14 149.21h2.6458"/>
   <path d="m129.82 150.53v2.6458"/>
   <path d="m128.5 151.86h2.6458"/>
   <path d="m150.99 147.89v2.6458"/>
   <path d="m149.66 149.21h2.6458"/>
   <path d="m150.99 150.53v2.6458"/>
   <path d="m149.66 151.86h2.6458"/>
   <path d="m153.63 150.53v2.6458"/>
   <path d="m152.31 151.86h2.6458"/>
   <path d="m153.63 153.18v2.6458"/>
   <path d="m152.31 154.5h2.6458"/>
   <path d="m153.63 155.82v2.6458"/>
   <path d="m152.31 157.15h2.6458"/>
   <path d="m153.63 158.47v2.6458"/>
   <path d="m152.31 159.79h2.6458"/>
   <path d="m153.63 161.12v2.6458"/>
   <path d="m152.31 162.44h2.6458"/>
   <path d="m153.63 163.76v2.6458"/>
   <path d="m152.31 165.08h2.6458"/>
   <path d="m153.63 166.41v2.6458"/>
   <path d="m152.31 167.73h2.6458"/>
   <path d="m150.99 166.41v2.6458"/>
   <path d="m149.66 167.73h2.6458"/>
   <path d="m148.34 166.41v2.6458"/>
   <path d="m147.02 167.73h2.6458"/>
   <path d="m148.34 163.76v2.6458"/>
   <path d="m147.02 165.08h2.6458"/>
   <path d="m145.69 163.76v2.6458"/>
   <path d="m144.37 165.08h2.6458"/>
   <path d="m137.76 163.76v2.6458"/>
   <path d="m136.43 165.08h2.6458"/>
   <path d="m135.11 163.76v2.6458"/>
   <path d="m133.79 165.08h2.6458"/>
   <path d="m132.46 166.41v2.6458"/>
   <path d="m131.14 167.73h2.6458"/>
   <path d="m129.82 166.41v2.6458"/>
   <path d="m128.5 167.73h2.6458"/>
   <path d="m129.82 163.76v2.6458"/>
   <path d="m128.5 165.08h2.6458"/>
   <path d="m129.82 161.12v2.6458"/>
   <path d="m128.5 162.44h2.6458"/>
   <path d="m129.82 155.82v2.6458"/>
   <path d="m128.5 157.15h2.6458"/>
   <path d="m129.82 153.18v2.6458"/>
   <path d="m128.5 154.5h2.6458"/>
   <path d="m137.76 166.41v2.6458"/>
   <path d="m136.43 167.73h2.6458"/>
   <path d="m145.69 171.7v2.6458"/>
   <path d="m144.37 173.02h2.6458"/>
   <path d="m137.76 169.05v2.6458"/>
   <path d="m136.43 170.38h2.6458"/>
   <path d="m137.76 171.7v2.6458"/>
   <path d="m136.43 173.02h2.6458"/>
   <path d="m135.11 171.7v2.6458"/>
   <path d="m133.79 173.02h2.6458"/>
   <path d="m135.11 174.35v2.6458"/>
   <path d="m133.79 175.67h2.6458"/>
   <path d="m135.11 176.99v2.6458"/>
   <path d="m133.79 178.31h2.6458"/>
   <path d="m135.11 179.64v2.6458"/>
   <path d="m133.79 180.96h2.6458"/>
   <path d="m137.76 179.64v2.6458"/>
   <path d="m136.43 180.96h2.6458"/>
   <path d="m140.4 176.99v2.6458"/>
   <path d="m139.08 178.31h2.6458"/>
   <path d="m143.05 179.64v2.6458"/>
   <path d="m141.72 180.96h2.6458"/>
   <path d="m145.69 179.64v2.6458"/>
   <path d="m144.37 180.96h2.6458"/>
   <path d="m148.34 179.64v2.6458"/>
   <path d="m147.02 180.96h2.6458"/>
   <path d="m148.34 176.99v2.6458"/>
   <path d="m147.02 178.31h2.6458"/>
   <path d="m148.34 174.35v2.6458"/>
   <path d="m147.02 175.67h2.6458"/>
   <path d="m145.69 174.35v2.6458"/>
   <path d="m144.37 175.67h2.6458"/>
  </g>
  <rect x="30.689" y="97.676" width="42.234" height="42.234" fill="#0d0e3b" fill-opacity=".38431" stroke="#6f72e9" stroke-width=".084667"/>
  <g transform="matrix(-3.0554 -.012576 -.012576 3.0554 470.87 -60.061)" stroke-width=".12669">
   <g>
    <path d="m133.62 54.82h6.844c0.117 0.164 0.222 0.32 0.293 0.465h-7.43c0.07-0.145 0.176-0.301 0.293-0.465z" fill="#3b327d"/>
    <path d="m134.52 53.894h5.047c0.371 0.289 0.672 0.613 0.899 0.926h-6.844c0.223-0.313 0.527-0.637 0.898-0.926z" fill="#6549b6"/>
    <path d="m138.84 53.429c0.262 0.137 0.512 0.289 0.734 0.465h-5.047c0.219-0.176 0.473-0.328 0.735-0.465z" fill="#9882cd"/>
    <path d="m138.84 53.429h-3.578c0.523-0.277 1.121-0.465 1.789-0.465s1.266 0.188 1.789 0.465z" fill="#dfd7f4"/>
    <path d="m136.13 60.394 1.848-4e-3 -0.016-1.855-1.844 7e-3z" fill="#352968"/>
    <path d="m136.58 55.285v3.757c-0.848 0.133-1.519 0.618-2.144 1.196-0.114-0.211-0.5-0.426-0.586-0.645-0.086-0.226-0.157-0.457-0.211-0.691-0.055-0.235-0.09-0.477-0.114-0.715-0.019-0.242-0.027-0.488-0.015-0.735 0.011-0.242 0.039-0.488 0.086-0.73 0.047-0.246 0.109-0.488 0.187-0.73 0.028-0.082 0.07-0.161 0.102-0.243 0.062-0.156 0.406-0.312 0.484-0.464z" fill="#a980ff"/>
    <path d="m137.51 55.285v3.757c-0.153-0.023-0.305-0.039-0.465-0.039s-0.317 0.016-0.465 0.039v-3.757z" fill="#313e82"/>
    <path d="m139.79 55.285c0.227 0.277 0.43 0.691 0.504 0.929 0.074 0.242 0.129 0.492 0.168 0.742 0.035 0.25 0.109 0.305 0.113 0.559 0 0.25 0.027 0.496 0 0.742-0.031 0.246-0.176 0.692-0.23 0.93-0.055 0.238-0.125 0.465-0.203 0.687-0.075 0.207-0.383 0.188-0.473 0.375-0.629-0.582-1.309-1.07-2.16-1.207v-3.757z" fill="#a980ff"/>
    <path d="m138.44 58.999h1.855v-3.25h-1.855z" fill="#344183"/>
    <path d="m133.79 58.999h1.859v-3.25h-1.859z" fill="#833434"/>
    <path d="m134.44 60.238c-0.219 0.199-0.43 0.41-0.645 0.621-1.164-1.555-1.391-3.715-0.461-5.574h1.039c-0.117 0.234-0.219 0.468-0.297 0.71-0.082 0.239-0.144 0.485-0.191 0.727-0.043 0.246-0.07 0.488-0.082 0.734-0.012 0.243-8e-3 0.489 0.015 0.731 0.02 0.242 0.059 0.48 0.114 0.715 0.05 0.238 0.125 0.468 0.211 0.691 0.082 0.223 0.183 0.434 0.297 0.645z" fill="#aab2ff"/>
    <path d="m140.76 55.285c0.929 1.859 0.465 4.183-0.465 5.574-0.207-0.207-0.414-0.41-0.625-0.61 0.09-0.187 0.18-0.382 0.25-0.589 0.082-0.219 0.148-0.45 0.207-0.688 0.055-0.234 0.101-0.477 0.129-0.727 0.027-0.246 0.043-0.496 0.039-0.746 0-0.254-0.016-0.504-0.055-0.757-0.035-0.25-0.09-0.497-0.164-0.743-0.074-0.242-0.168-0.48-0.285-0.714z" fill="#a980ff"/>
    <path d="m134.26 58.535h0.93v-0.926h-0.93z" fill="#e70707"/>
    <path d="m134.26 57.144h0.93v-0.93h-0.93z" fill="#4dab44"/>
   </g>
   <g fill="#d6e8ff" fill-opacity=".60106">
    <path d="m136.49 62.437h1.496v-1.5h-1.496z"/>
    <path d="m135.01 64.735h1.496v-1.496h-1.496z"/>
    <path d="m136.19 61.687h1.5v-1.496h-1.5z"/>
    <path d="m135.96 63.19h1.496v-1.5h-1.496z"/>
    <path d="m135.77 64.243h1.496v-1.5h-1.496z"/>
    <path d="m136.8 62.123h1.496v-1.496h-1.496z"/>
   </g>
   <g fill="#5fa5ff" fill-opacity=".60106">
    <path d="m137.81 64.594h1.496v-1.496h-1.496z"/>
    <path d="m135.99 63.913h1.496v-1.496h-1.496z"/>
    <path d="m137.29 63.608h1.496v-1.496h-1.496z"/>
   </g>
  </g>
 </g>
</svg>
