<svg width="43.167mm" height="25.153mm" version="1.1" viewBox="0 0 43.167 25.153" xmlns="http://www.w3.org/2000/svg">
 <g transform="translate(-271.38 -266.57)">
  <g fill="#e9e56f" aria-label="overlap">
   <g fill="#e9e56f" aria-label="Double Precision 64b">
    <path d="m292.03 290.13 6.158-10.756" fill="none" stroke="#d600a3" stroke-width=".16933"/>
    <path d="m297.72 279.39h0.16922v-0.16922h-0.16922zm0.50822 0h0.16922v-0.16922h-0.16922zm0.50767 0h0.16922v-0.16922h-0.16922zm0.50822 0h0.16922v-0.16922h-0.16922zm0.50766 0h0.16979v-0.16922h-0.16979zm0.50823 0h0.16922v-0.16922h-0.16922zm0.50822 0h0.16922v-0.16922h-0.16922zm0.50767 0h0.16922v-0.16922h-0.16922zm0.50822 0h0.16922v-0.16922h-0.16922zm0.50766 0h0.16979v-0.16922h-0.16979zm0.50823 0h0.16922v-0.16922h-0.16922zm0.50822 0h0.16922v-0.16922h-0.16922zm0.50767 0h0.16922v-0.16922h-0.16922zm0.50822 0h0.16922v-0.16922h-0.16922zm0.50766 0h0.16979v-0.16922h-0.16979zm0.50823 0h0.16922v-0.16922h-0.16922zm0.50822 0h0.16922v-0.16922h-0.16922zm0.50767 0h0.16922v-0.16922h-0.16922zm0.50822 0h0.16922v-0.16922h-0.16922zm0.50766 0h0.16979v-0.16922h-0.16979zm0.50823 0h0.16922v-0.16922h-0.16922zm0.50822 0h0.16922v-0.16922h-0.16922zm0.50767 0h0.16922v-0.16922h-0.16922zm0.50822 0h0.16922v-0.16922h-0.16922zm0.50766 0h0.16979v-0.16922h-0.16979zm0.50823 0h0.16922v-0.16922h-0.16922z" color="#000000" color-rendering="auto" fill="#d54747" fill-rule="evenodd" image-rendering="auto" shape-rendering="auto" solid-color="#000000" style="isolation:auto;mix-blend-mode:normal;text-decoration-color:#000000;text-decoration-line:none;text-decoration-style:solid;text-indent:0;text-transform:none;white-space:normal"/>
    <path transform="matrix(.11436 -.21858 .12781 .066866 216.3 265.05)" d="m73.143 404.25-20.354 11.751v-23.503z" fill="#3b390d" fill-opacity=".38431" stroke="#e9e56f" stroke-width=".7013"/>
    <g fill="none">
     <g stroke-width=".16933">
      <path d="m274.57 279.31h22.875" stroke="#ae2828"/>
      <circle cx="310.64" cy="279.11" r="2.8222" stroke="#d54747"/>
      <path d="m274.59 279.27 5.3883-9.4119" stroke="#d600a3"/>
     </g>
     <path d="m274.6 279.32 13.672-5.0739" stroke="#7dffaf" stroke-width=".42333"/>
     <path d="m274.49 279.44 7.5972 5.0192" stroke="#ae2828" stroke-width=".16933"/>
    </g>
    <path d="m281.75 284.33 0.42224 0.28222 0.0943-0.14054-0.4228-0.28223zm0.56335 0.37649 0.42223 0.28168 0.0943-0.14057-0.4228-0.28223zm0.56334 0.37594 0.42223 0.28166 0.0942-0.14055-0.42277-0.28222zm0.56334 0.37592 0.42224 0.28223 0.0942-0.14112-0.42277-0.28222zm0.56335 0.37592 0.4222 0.28223 0.0943-0.14112-0.42276-0.28165zm0.56331 0.37592 0.42224 0.28223 0.0943-0.14112-0.42277-0.28165zm0.56335 0.37649 0.42279 0.28168 0.0937-0.14057-0.42223-0.28222zm0.56334 0.37595 0.4228 0.28165 0.0937-0.14054-0.42224-0.28223zm0.56335 0.37592 0.42279 0.28165 0.0937-0.14054-0.42223-0.28223zm0.56334 0.37592 0.4228 0.28222 0.0937-0.14111-0.42223-0.28166zm0.56334 0.37594 0.4228 0.28223 0.0937-0.14111-0.42223-0.28169zm0.56335 0.37592 0.42279 0.28223 0.0937-0.14058-0.42223-0.28222zm0.56334 0.37649 0.4228 0.28166 0.0937-0.14055-0.42224-0.28222zm0.56334 0.37592 0.42277 0.28168 0.0937-0.14057-0.42223-0.28222zm0.56335 0.37592 0.42277 0.28222 0.0937-0.14111-0.42223-0.28222zm0.56334 0.37595 0.30096 0.20063 0.0937-0.14111-0.3004-0.2001z" color="#000000" color-rendering="auto" fill="#7da4ff" fill-rule="evenodd" image-rendering="auto" shape-rendering="auto" solid-color="#000000" style="isolation:auto;mix-blend-mode:normal;text-decoration-color:#000000;text-decoration-line:none;text-decoration-style:solid;text-indent:0;text-transform:none;white-space:normal"/>
    <circle cx="274.55" cy="279.36" r=".37042" fill="#d54747"/>
    <path d="m280.69 268.43 7.5972 5.0192" fill="none" stroke="#2599b1" stroke-width=".16933"/>
    <g fill="#e9e56f">
     <g stroke-width=".28222px" aria-label="target">
      <path d="m308.91 282.3-0.0113 0.15481h-0.13719l-1e-3 0.0743h0.13468c-8e-3 0.0982-0.0113 0.19634-0.0113 0.29326 0 0.0516 0 0.1095 0.034 0.15732 0.0277 0.0378 0.0717 0.0604 0.1309 0.0604 0.068 0 0.13467-0.029 0.18376-0.0642l-0.0277-0.0717c-0.0491 0.0365-0.0944 0.0529-0.12964 0.0529-0.0428 0-0.0869-0.0239-0.0969-0.0931 0-5e-3 -4e-3 -0.0264-4e-3 -0.11076 0-0.0743 4e-3 -0.14978 0.0113-0.22403h0.18879v-0.0755h-0.18754s9e-3 -0.10321 0.0151-0.13593c1e-3 -0.0126 0.0113-0.0201 6e-3 -0.034z"/>
      <path d="m309.42 282.52 0.044 0.0579c0.0478-0.0491 0.11202-0.0642 0.16614-0.0642 0.068 0 0.10194 0.029 0.11831 0.0554 0.0189 0.0315 0.0176 0.0692 0.0176 0.0994v0.0201h-0.0176c-0.0856 0-0.17621 0-0.24921 0.0264-0.0906 0.0327-0.1309 0.10069-0.1309 0.16362 0 0.0843 0.073 0.16362 0.19257 0.16362 0.0705 0 0.14349-0.0264 0.20642-0.078v0.0629h0.0856v-0.35619c0-0.0466-1e-3 -0.0906-0.0277-0.13593-0.0378-0.0617-0.11076-0.0944-0.20012-0.0944-0.0768 0-0.15103 0.0239-0.20515 0.0793zm0.34989 0.23788v0.039c0 0.029 0 0.0667-0.039 0.10824-0.0214 0.0214-0.0755 0.068-0.15104 0.068-0.0768 0-0.12083-0.0491-0.12083-0.0994 0-0.0428 0.029-0.0894 0.10069-0.10699 0.0529-0.0126 0.12964-9e-3 0.19006-9e-3z"/>
      <path d="m310.06 282.45v0.57519h0.0906v-0.27942c0-0.0352 1e-3 -0.073 0.0403-0.13467 0.0529-0.0831 0.12083-0.0969 0.16237-0.0969 0.0478 0 0.078 0.0226 0.0944 0.0428 8e-3 0.0101 0.0113 0.0201 0.0214 0.029l0.0428-0.0868c-0.0365-0.0378-0.0894-0.0629-0.15355-0.0629-0.0843 0-0.16991 0.0428-0.20767 0.12461l4e-3 -0.11076z"/>
      <path d="m310.72 282.63c0-0.0692 0.0579-0.12586 0.12712-0.12586 0.0705 0 0.12713 0.0566 0.12713 0.12586 0 0.0692-0.0566 0.12586-0.12713 0.12586-0.0705 0-0.12712-0.0566-0.12712-0.12586zm0.13216-0.1976c-0.11454 0-0.21397 0.0906-0.21397 0.20264 0 0.0629 0.0315 0.12208 0.0843 0.15607-0.0415 0.0352-0.0654 0.0743-0.0654 0.11075 0 0.0239 0.0101 0.0579 0.0466 0.0768-0.0617 0.039-0.0931 0.0818-0.0931 0.12712 0 0.0629 0.0579 0.13719 0.25928 0.13719 0.19509 0 0.26557-0.0994 0.26557-0.17621 0-0.0503-0.029-0.10069-0.0894-0.1246-0.0604-0.0252-0.12964-0.0164-0.19509-0.0164-0.0428 0-0.0705-4e-3 -0.0818-8e-3 -0.0227-6e-3 -0.0352-0.0201-0.0352-0.0378 0-0.0302 0.0352-0.0592 0.0415-0.0642 0.0227 9e-3 0.0478 0.0126 0.073 0.0126 0.11328 0 0.20642-0.0906 0.20642-0.19634 0-0.0352-0.0101-0.0692-0.029-0.0982 0.0302-0.0176 0.0654-0.0277 0.10069-0.0277 0.0113 0 0.0214 1e-3 0.0327 4e-3l-0.0101-0.0743c-0.0579-5e-3 -0.11579 0.0138-0.15984 0.0503-0.0365-0.0352-0.0843-0.0541-0.13719-0.0541zm-0.0868 0.5626c0.0214 3e-3 0.0516 5e-3 0.0957 8e-3 0.0428 1e-3 0.0894-3e-3 0.12209 3e-3 0.0529 9e-3 0.0692 0.0415 0.0692 0.0667s-0.0151 0.0554-0.0541 0.0768c-0.0428 0.0226-0.0906 0.0252-0.12964 0.0252-0.0264 0-0.0755-1e-3 -0.11831-0.0189-0.0466-0.0189-0.0566-0.0504-0.0566-0.0705 0-0.0415 0.039-0.0718 0.0717-0.0894z"/>
      <path d="m311.52 282.44c-0.13719 0-0.26431 0.0982-0.26431 0.30711 0 0.19257 0.11957 0.29451 0.27564 0.29451 0.0831 0 0.15733-0.0302 0.20641-0.0894l-0.0503-0.0491c-0.0365 0.0428-0.0919 0.0654-0.14852 0.0654-0.0768 0-0.18879-0.0428-0.19508-0.21522h0.40779c4e-3 -0.039 3e-3 -0.0768-4e-3 -0.1095-0.0264-0.15481-0.13341-0.2039-0.22781-0.2039zm-0.17369 0.24418c0.0189-0.13594 0.10573-0.17495 0.1674-0.17495 0.0931 0 0.15984 0.0818 0.14852 0.17495z"/>
      <path d="m312.06 282.3-0.0113 0.15481h-0.13719l-1e-3 0.0743h0.13467c-8e-3 0.0982-0.0113 0.19634-0.0113 0.29326 0 0.0516 0 0.1095 0.034 0.15732 0.0277 0.0378 0.0717 0.0604 0.1309 0.0604 0.068 0 0.13467-0.029 0.18376-0.0642l-0.0277-0.0717c-0.0491 0.0365-0.0944 0.0529-0.12964 0.0529-0.0428 0-0.0868-0.0239-0.0969-0.0931 0-5e-3 -4e-3 -0.0264-4e-3 -0.11076 0-0.0743 4e-3 -0.14978 0.0113-0.22403h0.18879v-0.0755h-0.18753s9e-3 -0.10321 0.0151-0.13593c1e-3 -0.0126 0.0113-0.0201 6e-3 -0.034z"/>
     </g>
     <g transform="rotate(-60)" stroke-width=".28222px" aria-label="-current velocity">
      <path d="m-103.79 398.85v0.0831h0.45311v-0.0831z"/>
      <path d="m-102.68 398.8c-0.0453-0.0667-0.12208-0.10698-0.21522-0.10698-0.16866 0-0.28823 0.12712-0.28823 0.29955 0 0.17369 0.11957 0.30207 0.28319 0.30207 0.0793 0 0.15733-0.0327 0.21145-0.0919l-0.0516-0.0604c-0.039 0.044-0.0957 0.0692-0.1523 0.0692-0.11201 0-0.1976-0.0931-0.1976-0.22781 0-0.13089 0.0843-0.21271 0.19005-0.21271 0.0982 0 0.14474 0.068 0.14852 0.0755 5e-3 9e-3 -3e-3 0.0214 8e-3 0.029z"/>
      <path d="m-102.54 398.71v0.32095c0 0.0491 0 0.0994 0.0226 0.15103 0.0327 0.0755 0.10321 0.11705 0.17873 0.11705 0.0717 0 0.1397-0.039 0.17746-0.10195l-1e-3 0.0428c0 0.0151 0 0.0302 3e-3 0.044h0.0957c-6e-3 -0.0164-8e-3 -0.0352-8e-3 -0.0516v-0.52233h-0.0906v0.31591c0 0.0441-4e-3 0.078-0.0226 0.11328-0.0264 0.0491-0.078 0.0856-0.13342 0.0856-0.044 0-0.0868-0.0252-0.1095-0.0705-0.0201-0.0403-0.0201-0.0856-0.0201-0.12334v-0.32095z"/>
      <path d="m-101.87 398.71v0.57519h0.0906v-0.27942c0-0.0352 1e-3 -0.073 0.0403-0.13467 0.0529-0.0831 0.12082-0.0969 0.16236-0.0969 0.0478 0 0.078 0.0226 0.0944 0.0428 8e-3 0.0101 0.0113 0.0201 0.0214 0.029l0.0428-0.0868c-0.0365-0.0378-0.0894-0.0629-0.15355-0.0629-0.0843 0-0.16991 0.0428-0.20767 0.12461l4e-3 -0.11076z"/>
      <path d="m-101.24 398.71v0.57519h0.0906v-0.27942c0-0.0352 1e-3 -0.073 0.0403-0.13467 0.0529-0.0831 0.12083-0.0969 0.16236-0.0969 0.0478 0 0.078 0.0226 0.0944 0.0428 8e-3 0.0101 0.0113 0.0201 0.0214 0.029l0.0428-0.0868c-0.0365-0.0378-0.0894-0.0629-0.15356-0.0629-0.0843 0-0.16991 0.0428-0.20767 0.12461l4e-3 -0.11076z"/>
      <path d="m-100.41 398.7c-0.13719 0-0.26431 0.0982-0.26431 0.30711 0 0.19257 0.11957 0.29451 0.27564 0.29451 0.0831 0 0.15733-0.0302 0.20642-0.0894l-0.0503-0.0491c-0.0365 0.0428-0.0919 0.0654-0.14852 0.0654-0.0768 0-0.18879-0.0428-0.19508-0.21522h0.40779c4e-3 -0.039 3e-3 -0.0768-4e-3 -0.1095-0.0264-0.15481-0.13342-0.2039-0.22782-0.2039zm-0.17369 0.24417c0.0189-0.13593 0.10573-0.17494 0.1674-0.17494 0.0931 0 0.15985 0.0818 0.14852 0.17494z"/>
      <path d="m-100.02 399.28h0.09188v-0.33102c0-0.0378 5e-3 -0.0667 0.02895-0.0982 0.0214-0.0289 0.07678-0.0805 0.13719-0.0805 0.02895 0 0.0579 0.0126 0.07803 0.0365 0.03147 0.0378 0.03147 0.0868 0.03147 0.12712v0.34612h0.08936v-0.34864c0-0.044 0-0.0919-0.02014-0.13845-0.02895-0.0642-0.0881-0.10069-0.15355-0.10069-0.07803 0-0.14852 0.0504-0.19131 0.11454v-0.10069h-0.09188z"/>
      <path d="m-99.237 398.55-0.01133 0.15481h-0.13719l-0.0013 0.0743h0.13467c-0.0076 0.0982-0.01133 0.19634-0.01133 0.29325 0 0.0516 0 0.10951 0.03398 0.15733 0.02769 0.0378 0.07174 0.0604 0.1309 0.0604 0.06797 0 0.13467-0.029 0.18376-0.0642l-0.02769-0.0717c-0.04909 0.0365-0.0944 0.0529-0.12964 0.0529-0.04279 0-0.08685-0.0239-0.09691-0.0931 0-5e-3 -0.0038-0.0264-0.0038-0.11076 0-0.0743 0.0038-0.14978 0.01133-0.22403h0.18879v-0.0755h-0.18754s0.0088-0.10321 0.0151-0.13593c0.0013-0.0126 0.01133-0.0201 0.0063-0.034z"/>
      <path d="m-98.166 398.71 0.22781 0.58022h0.07174l0.13971-0.3285c0.03398-0.0806 0.06671-0.16362 0.08559-0.25172h-0.08181c-0.0151 0.0843-0.04531 0.16362-0.07803 0.23914l-0.09188 0.21396-0.16614-0.42038c-0.0013-3e-3 -0.0025-5e-3 -0.0025-8e-3 0-8e-3 0.0063-0.0151 0.0038-0.0252z"/>
      <path d="m-97.261 398.7c-0.13719 0-0.26431 0.0982-0.26431 0.30711 0 0.19257 0.11957 0.29451 0.27564 0.29451 0.08307 0 0.15733-0.0302 0.20642-0.0894l-0.05035-0.0491c-0.0365 0.0428-0.09188 0.0654-0.14852 0.0654-0.07678 0-0.18879-0.0428-0.19509-0.21522h0.4078c0.0038-0.039 0.0025-0.0768-0.0038-0.1095-0.02643-0.15481-0.13342-0.2039-0.22781-0.2039zm-0.17369 0.24417c0.01888-0.13593 0.10572-0.17494 0.1674-0.17494 0.09314 0 0.15985 0.0818 0.14852 0.17494z"/>
      <path d="m-96.851 398.45v0.073h0.16362v0.69099h-0.17117v0.0717h0.43171v-0.0717h-0.16991v-0.76399z"/>
      <path d="m-95.748 399c0-0.19886-0.12586-0.30207-0.25676-0.30207-0.146 0-0.27186 0.12586-0.27186 0.30459 0 0.17495 0.1246 0.29829 0.26935 0.29829 0.13593 0 0.25928-0.1095 0.25928-0.30081zm-0.26305-0.22529c0.08307 0 0.17117 0.0717 0.17117 0.22907 0 0.14474-0.08307 0.21774-0.16614 0.21774-0.09188 0-0.17495-0.0856-0.17495-0.22781 0-0.14097 0.08181-0.219 0.16992-0.219z"/>
      <path d="m-95.124 398.8c-0.04531-0.0667-0.12209-0.10698-0.21522-0.10698-0.16866 0-0.28822 0.12712-0.28822 0.29955 0 0.17369 0.11957 0.30207 0.28319 0.30207 0.07929 0 0.15733-0.0327 0.21145-0.0919l-0.0516-0.0604c-0.03902 0.044-0.09565 0.0692-0.15229 0.0692-0.11202 0-0.1976-0.0931-0.1976-0.22781 0-0.13089 0.08433-0.21271 0.19005-0.21271 0.09817 0 0.14474 0.068 0.14852 0.0755 5e-3 9e-3 -0.0025 0.0214 0.0076 0.029z"/>
      <path d="m-94.935 398.71v0.0743h0.13845v0.42919h-0.146v0.0717h0.37255v-0.0717h-0.13467v-0.50345zm0.18628-0.24921c-0.0365 0-0.06545 0.029-0.06545 0.0642s0.02895 0.0642 0.06545 0.0642 0.06545-0.029 0.06545-0.0642-0.02895-0.0642-0.06545-0.0642z"/>
      <path d="m-94.203 398.55-0.01133 0.15481h-0.13719l-0.0013 0.0743h0.13467c-0.0076 0.0982-0.01133 0.19634-0.01133 0.29325 0 0.0516 0 0.10951 0.03398 0.15733 0.02769 0.0378 0.07174 0.0604 0.1309 0.0604 0.06797 0 0.13467-0.029 0.18376-0.0642l-0.02769-0.0717c-0.04909 0.0365-0.0944 0.0529-0.12964 0.0529-0.04279 0-0.08684-0.0239-0.09691-0.0931 0-5e-3 -0.0038-0.0264-0.0038-0.11076 0-0.0743 0.0038-0.14978 0.01133-0.22403h0.18879v-0.0755h-0.18754s0.0088-0.10321 0.0151-0.13593c0.0013-0.0126 0.01133-0.0201 0.0063-0.034z"/>
      <path d="m-93.753 398.71 0.2341 0.57267-0.01888 0.0415c-0.01007 0.0239-0.0214 0.0478-0.03902 0.0667-0.02391 0.0264-0.05412 0.0378-0.08055 0.0378-0.04279 0-0.06419-0.029-0.06797-0.034-0.0038-6e-3 -0.0025-0.0151-0.01007-0.0214l-0.04657 0.0818c0.03272 0.0315 0.07678 0.0478 0.1246 0.0478 0.0516 0 0.10572-0.0189 0.14348-0.0617 0.02517-0.029 0.03776-0.0592 0.05035-0.0919l0.17872-0.4745c0.0214-0.0541 0.04028-0.1095 0.0579-0.16614h-0.0944c-0.01007 0.0529-0.02643 0.10321-0.04405 0.15355l-0.1095 0.30836-0.16866-0.42415c-0.0013-4e-3 -0.0013-6e-3 -0.0013-0.0101 0-9e-3 0.0063-0.0151 5e-3 -0.0264z"/>
     </g>
     <g transform="rotate(33.467)" stroke-width=".28222px" aria-label="steering force">
      <path d="m382.9 67.926c-0.0529-0.0579-0.12964-0.08936-0.21522-0.08936-0.13342 0-0.22026 0.07426-0.22026 0.15984 0 0.10069 0.10824 0.13719 0.1397 0.14852 0.0491 0.01762 0.11202 0.03272 0.15481 0.05286 0.0478 0.02266 0.0566 0.05286 0.0566 0.073 0 0.05412-0.0654 0.09062-0.14726 0.09062-0.0982 0-0.1611-0.05916-0.17998-0.07929-4e-3 -5e-3 -4e-3 -0.0088-4e-3 -0.01384 0-0.0013 1e-3 -0.0088-5e-3 -0.01133l-0.0529 0.08936c0.068 0.06293 0.15607 0.09188 0.24291 0.09188 0.15733 0 0.23914-0.09314 0.23914-0.17998 0-0.03902-0.0164-0.09188-0.0843-0.12964-0.0642-0.0365-0.15732-0.04909-0.21145-0.07552-0.0466-0.02266-0.0566-0.05034-0.0566-0.07048 0-0.04531 0.0566-0.07803 0.12082-0.07803 0.0831 0 0.13845 0.05034 0.15985 0.07929 4e-3 0.0038 3e-3 0.0076 3e-3 0.01133 0 0.0076 5e-3 0.01007 8e-3 0.01007z"/>
      <path d="m383.22 67.695-0.0113 0.15481h-0.13719l-1e-3 0.07426h0.13468c-8e-3 0.09817-0.0113 0.19634-0.0113 0.29326 0 0.0516 0 0.1095 0.034 0.15733 0.0277 0.03776 0.0717 0.06041 0.1309 0.06041 0.068 0 0.13467-0.02895 0.18376-0.06419l-0.0277-0.07174c-0.0491 0.0365-0.0944 0.05286-0.12964 0.05286-0.0428 0-0.0869-0.02391-0.0969-0.09314 0-5e-3 -4e-3 -0.02643-4e-3 -0.11076 0-0.07426 4e-3 -0.14978 0.0113-0.22404h0.18879v-0.07552h-0.18754s9e-3 -0.10321 0.0151-0.13593c1e-3 -0.01259 0.0113-0.02014 6e-3 -0.03398z"/>
      <path d="m383.94 67.836c-0.13719 0-0.26432 0.09817-0.26432 0.3071 0 0.19257 0.11957 0.29452 0.27564 0.29452 0.0831 0 0.15733-0.03021 0.20642-0.08936l-0.0504-0.04909c-0.0365 0.04279-0.0919 0.06545-0.14852 0.06545-0.0768 0-0.18879-0.04279-0.19508-0.21522h0.40779c4e-3 -0.03902 3e-3 -0.07678-4e-3 -0.1095-0.0264-0.15481-0.13342-0.2039-0.22781-0.2039zm-0.1737 0.24417c0.0189-0.13593 0.10573-0.17495 0.1674-0.17495 0.0931 0 0.15985 0.08181 0.14852 0.17495z"/>
      <path d="m384.57 67.836c-0.13719 0-0.26431 0.09817-0.26431 0.3071 0 0.19257 0.11957 0.29452 0.27564 0.29452 0.0831 0 0.15732-0.03021 0.20641-0.08936l-0.0503-0.04909c-0.0365 0.04279-0.0919 0.06545-0.14851 0.06545-0.0768 0-0.1888-0.04279-0.19509-0.21522h0.40779c4e-3 -0.03902 3e-3 -0.07678-4e-3 -0.1095-0.0264-0.15481-0.13342-0.2039-0.22781-0.2039zm-0.17369 0.24417c0.0189-0.13593 0.10572-0.17495 0.16739-0.17495 0.0931 0 0.15985 0.08181 0.14852 0.17495z"/>
      <path d="m384.99 67.85v0.57519h0.0906v-0.27941c0-0.03524 1e-3 -0.073 0.0403-0.13467 0.0529-0.08307 0.12082-0.09691 0.16236-0.09691 0.0478 0 0.078 0.02266 0.0944 0.04279 8e-3 0.01007 0.0113 0.02014 0.0214 0.02895l0.0428-0.08685c-0.0365-0.03776-0.0894-0.06293-0.15356-0.06293-0.0843 0-0.16991 0.04279-0.20767 0.1246l4e-3 -0.11076z"/>
      <path d="m385.63 67.849v0.07426h0.13845v0.42919h-0.146v0.07174h0.37255v-0.07174h-0.13467v-0.50345zm0.18628-0.24921c-0.0365 0-0.0654 0.02895-0.0654 0.06419s0.029 0.06419 0.0654 0.06419c0.0365 0 0.0655-0.02895 0.0655-0.06419s-0.029-0.06419-0.0655-0.06419z"/>
      <path d="m386.21 68.424h0.0919v-0.33102c0-0.03776 5e-3 -0.06671 0.0289-0.09817 0.0214-0.02895 0.0768-0.08055 0.13719-0.08055 0.029 0 0.0579 0.01259 0.078 0.0365 0.0315 0.03776 0.0315 0.08684 0.0315 0.12712v0.34612h0.0894v-0.34864c0-0.04405 0-0.09188-0.0201-0.13845-0.0289-0.06419-0.0881-0.10069-0.15355-0.10069-0.078 0-0.14852 0.05034-0.19131 0.11454v-0.10069h-0.0919z"/>
      <path d="m386.92 68.029c0-0.06922 0.0579-0.12586 0.12712-0.12586 0.0705 0 0.12712 0.05664 0.12712 0.12586 0 0.06923-0.0566 0.12586-0.12712 0.12586-0.0705 0-0.12712-0.05664-0.12712-0.12586zm0.13216-0.1976c-0.11454 0-0.21397 0.09062-0.21397 0.20264 0 0.06293 0.0315 0.12209 0.0843 0.15607-0.0415 0.03524-0.0654 0.07426-0.0654 0.11076 0 0.02391 0.0101 0.0579 0.0466 0.07678-0.0617 0.03902-0.0931 0.08181-0.0931 0.12712 0 0.06293 0.0579 0.13719 0.25928 0.13719 0.19508 0 0.26557-0.09943 0.26557-0.17621 0-0.05035-0.029-0.10069-0.0894-0.1246-0.0604-0.02517-0.12963-0.01636-0.19508-0.01636-0.0428 0-0.0705-0.0038-0.0818-0.0076-0.0227-0.0063-0.0352-0.02014-0.0352-0.03776 0-0.03021 0.0352-0.05916 0.0415-0.06419 0.0227 0.0088 0.0478 0.01259 0.073 0.01259 0.11328 0 0.20642-0.09062 0.20642-0.19634 0-0.03524-0.0101-0.06923-0.0289-0.09817 0.0302-0.01762 0.0654-0.02769 0.10069-0.02769 0.0113 0 0.0214 0.0013 0.0327 0.0038l-0.0101-0.07426c-0.0579-5e-3 -0.11579 0.01385-0.15984 0.05035-0.0365-0.03524-0.0843-0.05412-0.13719-0.05412zm-0.0869 0.56261c0.0214 0.0025 0.0516 5e-3 0.0957 0.0076 0.0428 0.0013 0.0894-0.0025 0.12208 0.0025 0.0529 0.0088 0.0692 0.04153 0.0692 0.06671 0 0.02517-0.0151 0.05538-0.0541 0.07678-0.0428 0.02266-0.0906 0.02517-0.12964 0.02517-0.0264 0-0.0755-0.0013-0.11831-0.01888-0.0466-0.01888-0.0566-0.05035-0.0566-0.07048 0-0.04153 0.039-0.07174 0.0717-0.08936z"/>
      <path d="m388.45 67.581c-0.0806 0-0.15607 0.03398-0.19635 0.09943-0.0302 0.04783-0.0315 0.09566-0.0315 0.14726v0.05664h-0.12587v0.07174h0.12587v0.46821h0.0868v-0.46821h0.18754v-0.07174h-0.18754v-0.04531c0-0.04153-1e-3 -0.08559 0.0201-0.12334 0.0239-0.04279 0.0692-0.06419 0.11579-0.06419 0.0554 0 0.10195 0.02895 0.12586 0.06545 4e-3 0.0063 4e-3 0.01007 4e-3 0.0151 0 0.0088 6e-3 0.01133 0.0101 0.01133l0.0415-0.08433c-0.0415-0.04909-0.10446-0.07803-0.1762-0.07803z"/>
      <path d="m389.22 68.14c0-0.19886-0.12586-0.30207-0.25676-0.30207-0.146 0-0.27186 0.12586-0.27186 0.30459 0 0.17495 0.1246 0.29829 0.26934 0.29829 0.13593 0 0.25928-0.1095 0.25928-0.30081zm-0.26305-0.22529c0.0831 0 0.17117 0.07174 0.17117 0.22907 0 0.14474-0.0831 0.21774-0.16614 0.21774-0.0919 0-0.17495-0.08559-0.17495-0.22781 0-0.14097 0.0818-0.219 0.16992-0.219z"/>
      <path d="m389.4 67.85v0.57519h0.0906v-0.27941c0-0.03524 1e-3 -0.073 0.0403-0.13467 0.0529-0.08307 0.12083-0.09691 0.16237-0.09691 0.0478 0 0.078 0.02266 0.0944 0.04279 8e-3 0.01007 0.0113 0.02014 0.0214 0.02895l0.0428-0.08685c-0.0365-0.03776-0.0894-0.06293-0.15355-0.06293-0.0843 0-0.16991 0.04279-0.20767 0.1246l4e-3 -0.11076z"/>
      <path d="m390.48 67.945c-0.0453-0.06671-0.12209-0.10698-0.21523-0.10698-0.16865 0-0.28822 0.12712-0.28822 0.29955 0 0.17369 0.11957 0.30207 0.28319 0.30207 0.0793 0 0.15733-0.03272 0.21145-0.09188l-0.0516-0.06041c-0.039 0.04405-0.0956 0.06922-0.15229 0.06922-0.11202 0-0.1976-0.09314-0.1976-0.22781 0-0.1309 0.0843-0.21271 0.19005-0.21271 0.0982 0 0.14474 0.06797 0.14852 0.07552 5e-3 0.0088-3e-3 0.0214 8e-3 0.02895z"/>
      <path d="m390.86 67.836c-0.13719 0-0.26431 0.09817-0.26431 0.3071 0 0.19257 0.11957 0.29452 0.27564 0.29452 0.0831 0 0.15733-0.03021 0.20642-0.08936l-0.0504-0.04909c-0.0365 0.04279-0.0919 0.06545-0.14852 0.06545-0.0768 0-0.18879-0.04279-0.19508-0.21522h0.40779c4e-3 -0.03902 3e-3 -0.07678-4e-3 -0.1095-0.0264-0.15481-0.13341-0.2039-0.22781-0.2039zm-0.17369 0.24417c0.0189-0.13593 0.10573-0.17495 0.1674-0.17495 0.0931 0 0.15985 0.08181 0.14852 0.17495z"/>
     </g>
     <g transform="rotate(34.42)" stroke-width=".28222px" aria-label="steering force">
      <path d="m385.13 77.063c-0.0529-0.0579-0.12964-0.08936-0.21522-0.08936-0.13342 0-0.22026 0.07426-0.22026 0.15985 0 0.10069 0.10824 0.13719 0.1397 0.14852 0.0491 0.01762 0.11202 0.03272 0.15481 0.05286 0.0478 0.02266 0.0566 0.05286 0.0566 0.073 0 0.05412-0.0654 0.09062-0.14726 0.09062-0.0982 0-0.1611-0.05916-0.17998-0.07929-4e-3 -5e-3 -4e-3 -0.0088-4e-3 -0.01384 0-0.0013 1e-3 -0.0088-5e-3 -0.01133l-0.0529 0.08936c0.068 0.06293 0.15607 0.09188 0.24291 0.09188 0.15733 0 0.23914-0.09314 0.23914-0.17998 0-0.03902-0.0164-0.09188-0.0843-0.12964-0.0642-0.0365-0.15733-0.04909-0.21145-0.07552-0.0466-0.02266-0.0566-0.05034-0.0566-0.07048 0-0.04531 0.0566-0.07803 0.12082-0.07803 0.0831 0 0.13845 0.05034 0.15985 0.07929 4e-3 0.0038 3e-3 0.0076 3e-3 0.01133 0 0.0076 5e-3 0.01007 8e-3 0.01007z"/>
      <path d="m385.45 76.832-0.0113 0.15481h-0.13719l-1e-3 0.07426h0.13467c-8e-3 0.09817-0.0113 0.19634-0.0113 0.29326 0 0.0516 0 0.1095 0.034 0.15733 0.0277 0.03776 0.0717 0.06041 0.1309 0.06041 0.068 0 0.13467-0.02895 0.18376-0.06419l-0.0277-0.07174c-0.0491 0.0365-0.0944 0.05286-0.12964 0.05286-0.0428 0-0.0868-0.02391-0.0969-0.09314 0-5e-3 -4e-3 -0.02643-4e-3 -0.11076 0-0.07426 4e-3 -0.14978 0.0113-0.22404h0.18879v-0.07552h-0.18754s9e-3 -0.10321 0.0151-0.13593c1e-3 -0.01259 0.0113-0.02014 6e-3 -0.03398z"/>
      <path d="m386.17 76.973c-0.13719 0-0.26431 0.09817-0.26431 0.3071 0 0.19257 0.11957 0.29452 0.27564 0.29452 0.0831 0 0.15733-0.03021 0.20642-0.08936l-0.0503-0.04909c-0.0365 0.04279-0.0919 0.06545-0.14852 0.06545-0.0768 0-0.18879-0.04279-0.19508-0.21522h0.40779c4e-3 -0.03902 3e-3 -0.07678-4e-3 -0.1095-0.0264-0.15481-0.13342-0.2039-0.22782-0.2039zm-0.17369 0.24417c0.0189-0.13593 0.10573-0.17495 0.1674-0.17495 0.0931 0 0.15985 0.08181 0.14852 0.17495z"/>
      <path d="m386.8 76.973c-0.13719 0-0.26431 0.09817-0.26431 0.3071 0 0.19257 0.11957 0.29452 0.27563 0.29452 0.0831 0 0.15733-0.03021 0.20642-0.08936l-0.0504-0.04909c-0.0365 0.04279-0.0919 0.06545-0.14851 0.06545-0.0768 0-0.1888-0.04279-0.19509-0.21522h0.40779c4e-3 -0.03902 3e-3 -0.07678-4e-3 -0.1095-0.0264-0.15481-0.13342-0.2039-0.22781-0.2039zm-0.17369 0.24417c0.0189-0.13593 0.10572-0.17495 0.16739-0.17495 0.0931 0 0.15985 0.08181 0.14852 0.17495z"/>
      <path d="m387.23 76.987v0.57519h0.0906v-0.27942c0-0.03524 1e-3 -0.073 0.0403-0.13467 0.0529-0.08307 0.12082-0.09691 0.16236-0.09691 0.0478 0 0.078 0.02266 0.0944 0.04279 8e-3 0.01007 0.0113 0.02014 0.0214 0.02895l0.0428-0.08685c-0.0365-0.03776-0.0894-0.06293-0.15355-0.06293-0.0843 0-0.16991 0.04279-0.20767 0.1246l4e-3 -0.11076z"/>
      <path d="m387.87 76.986v0.07426h0.13845v0.42919h-0.146v0.07174h0.37255v-0.07174h-0.13467v-0.50345zm0.18628-0.24921c-0.0365 0-0.0654 0.02895-0.0654 0.06419s0.029 0.06419 0.0654 0.06419c0.0365 0 0.0654-0.02895 0.0654-0.06419s-0.029-0.06419-0.0654-0.06419z"/>
      <path d="m388.45 77.561h0.0919v-0.33102c0-0.03776 5e-3 -0.06671 0.0289-0.09817 0.0214-0.02895 0.0768-0.08055 0.13719-0.08055 0.029 0 0.0579 0.01259 0.078 0.0365 0.0315 0.03776 0.0315 0.08684 0.0315 0.12712v0.34612h0.0894v-0.34864c0-0.04405 0-0.09188-0.0201-0.13845-0.029-0.06419-0.0881-0.10069-0.15355-0.10069-0.078 0-0.14852 0.05034-0.19131 0.11454v-0.10069h-0.0919z"/>
      <path d="m389.15 77.166c0-0.06923 0.0579-0.12586 0.12712-0.12586 0.0705 0 0.12712 0.05664 0.12712 0.12586 0 0.06922-0.0566 0.12586-0.12712 0.12586-0.0705 0-0.12712-0.05664-0.12712-0.12586zm0.13216-0.1976c-0.11454 0-0.21397 0.09062-0.21397 0.20264 0 0.06293 0.0315 0.12209 0.0843 0.15607-0.0415 0.03524-0.0654 0.07426-0.0654 0.11076 0 0.02391 0.0101 0.0579 0.0466 0.07678-0.0617 0.03902-0.0931 0.08181-0.0931 0.12712 0 0.06293 0.0579 0.13719 0.25928 0.13719 0.19508 0 0.26557-0.09943 0.26557-0.17621 0-0.05034-0.029-0.10069-0.0894-0.1246-0.0604-0.02517-0.12963-0.01636-0.19508-0.01636-0.0428 0-0.0705-0.0038-0.0818-0.0076-0.0227-0.0063-0.0352-0.02014-0.0352-0.03776 0-0.03021 0.0352-0.05915 0.0415-0.06419 0.0227 0.0088 0.0478 0.01259 0.073 0.01259 0.11328 0 0.20641-0.09062 0.20641-0.19635 0-0.03524-0.0101-0.06922-0.0289-0.09817 0.0302-0.01762 0.0654-0.02769 0.10069-0.02769 0.0113 0 0.0214 0.0013 0.0327 0.0038l-0.0101-0.07426c-0.0579-5e-3 -0.11579 0.01384-0.15984 0.05035-0.0365-0.03524-0.0843-0.05412-0.13719-0.05412zm-0.0868 0.5626c0.0214 0.0025 0.0516 5e-3 0.0957 0.0076 0.0428 0.0013 0.0894-0.0025 0.12208 0.0025 0.0529 0.0088 0.0692 0.04153 0.0692 0.06671 0 0.02517-0.0151 0.05538-0.0541 0.07678-0.0428 0.02266-0.0906 0.02517-0.12964 0.02517-0.0264 0-0.0755-0.0013-0.11831-0.01888-0.0466-0.01888-0.0566-0.05034-0.0566-0.07048 0-0.04153 0.039-0.07174 0.0717-0.08936z"/>
      <path d="m390.68 76.718c-0.0806 0-0.15607 0.03398-0.19635 0.09943-0.0302 0.04783-0.0315 0.09566-0.0315 0.14726v0.05664h-0.12586v0.07174h0.12586v0.46821h0.0868v-0.46821h0.18753v-0.07174h-0.18753v-0.04531c0-0.04153-1e-3 -0.08559 0.0201-0.12334 0.0239-0.04279 0.0692-0.06419 0.11579-0.06419 0.0554 0 0.10195 0.02895 0.12586 0.06545 4e-3 0.0063 4e-3 0.01007 4e-3 0.0151 0 0.0088 6e-3 0.01133 0.0101 0.01133l0.0415-0.08433c-0.0415-0.04909-0.10446-0.07803-0.1762-0.07803z"/>
      <path d="m391.46 77.277c0-0.19886-0.12587-0.30207-0.25676-0.30207-0.146 0-0.27187 0.12586-0.27187 0.30459 0 0.17495 0.12461 0.29829 0.26935 0.29829 0.13593 0 0.25928-0.1095 0.25928-0.30081zm-0.26306-0.22529c0.0831 0 0.17118 0.07174 0.17118 0.22907 0 0.14474-0.0831 0.21774-0.16614 0.21774-0.0919 0-0.17495-0.08559-0.17495-0.22781 0-0.14097 0.0818-0.219 0.16991-0.219z"/>
      <path d="m391.63 76.987v0.57519h0.0906v-0.27942c0-0.03524 1e-3 -0.073 0.0403-0.13467 0.0529-0.08307 0.12083-0.09691 0.16237-0.09691 0.0478 0 0.078 0.02266 0.0944 0.04279 8e-3 0.01007 0.0113 0.02014 0.0214 0.02895l0.0428-0.08685c-0.0365-0.03776-0.0894-0.06293-0.15355-0.06293-0.0843 0-0.16991 0.04279-0.20767 0.1246l4e-3 -0.11076z"/>
      <path d="m392.71 77.081c-0.0453-0.06671-0.12209-0.10698-0.21523-0.10698-0.16865 0-0.28822 0.12712-0.28822 0.29955 0 0.17369 0.11957 0.30207 0.28319 0.30207 0.0793 0 0.15733-0.03272 0.21145-0.09188l-0.0516-0.06041c-0.039 0.04405-0.0957 0.06922-0.15229 0.06922-0.11202 0-0.1976-0.09314-0.1976-0.22781 0-0.1309 0.0843-0.21271 0.19005-0.21271 0.0982 0 0.14474 0.06797 0.14852 0.07552 5e-3 0.0088-3e-3 0.0214 8e-3 0.02895z"/>
      <path d="m393.09 76.973c-0.13719 0-0.26431 0.09817-0.26431 0.3071 0 0.19257 0.11957 0.29452 0.27564 0.29452 0.0831 0 0.15733-0.03021 0.20642-0.08936l-0.0503-0.04909c-0.0365 0.04279-0.0919 0.06545-0.14852 0.06545-0.0768 0-0.18879-0.04279-0.19508-0.21522h0.40779c4e-3 -0.03902 3e-3 -0.07678-4e-3 -0.1095-0.0264-0.15481-0.13341-0.2039-0.22781-0.2039zm-0.17369 0.24417c0.0189-0.13593 0.10573-0.17495 0.1674-0.17495 0.0931 0 0.15985 0.08181 0.14852 0.17495z"/>
     </g>
     <g transform="rotate(-60)" stroke-width=".28222px" aria-label="current velocity">
      <path d="m-102.53 375.89c-0.0453-0.0667-0.12208-0.10698-0.21522-0.10698-0.16866 0-0.28823 0.12712-0.28823 0.29955 0 0.17369 0.11957 0.30207 0.28319 0.30207 0.0793 0 0.15733-0.0327 0.21145-0.0919l-0.0516-0.0604c-0.039 0.0441-0.0957 0.0692-0.1523 0.0692-0.11201 0-0.1976-0.0931-0.1976-0.22781 0-0.1309 0.0843-0.21271 0.19005-0.21271 0.0982 0 0.14474 0.068 0.14852 0.0755 5e-3 9e-3 -3e-3 0.0214 8e-3 0.029z"/>
      <path d="m-102.4 375.79v0.32095c0 0.0491 0 0.0994 0.0226 0.15104 0.0327 0.0755 0.10321 0.11705 0.17873 0.11705 0.0717 0 0.1397-0.039 0.17746-0.10195l-1e-3 0.0428c0 0.0151 0 0.0302 3e-3 0.0441h0.0957c-6e-3 -0.0164-8e-3 -0.0352-8e-3 -0.0516v-0.52233h-0.0906v0.31592c0 0.0441-4e-3 0.078-0.0227 0.11327-0.0264 0.0491-0.078 0.0856-0.13342 0.0856-0.0441 0-0.0868-0.0252-0.1095-0.0705-0.0201-0.0403-0.0201-0.0856-0.0201-0.12335v-0.32095z"/>
      <path d="m-101.72 375.79v0.57519h0.0906v-0.27941c0-0.0352 1e-3 -0.073 0.0403-0.13467 0.0529-0.0831 0.12083-0.0969 0.16237-0.0969 0.0478 0 0.078 0.0227 0.0944 0.0428 8e-3 0.0101 0.0113 0.0201 0.0214 0.0289l0.0428-0.0868c-0.0365-0.0378-0.0894-0.0629-0.15355-0.0629-0.0843 0-0.16991 0.0428-0.20767 0.1246l4e-3 -0.11076z"/>
      <path d="m-101.09 375.79v0.57519h0.0906v-0.27941c0-0.0352 1e-3 -0.073 0.0403-0.13467 0.0529-0.0831 0.12083-0.0969 0.16236-0.0969 0.0478 0 0.078 0.0227 0.0944 0.0428 8e-3 0.0101 0.0113 0.0201 0.0214 0.0289l0.0428-0.0868c-0.0365-0.0378-0.0894-0.0629-0.15356-0.0629-0.0843 0-0.16991 0.0428-0.20767 0.1246l4e-3 -0.11076z"/>
      <path d="m-100.26 375.78c-0.13719 0-0.26431 0.0982-0.26431 0.3071 0 0.19257 0.11957 0.29452 0.27564 0.29452 0.0831 0 0.15733-0.0302 0.20642-0.0894l-0.0504-0.0491c-0.0365 0.0428-0.0919 0.0654-0.14852 0.0654-0.0768 0-0.18879-0.0428-0.19508-0.21522h0.40779c4e-3 -0.039 3e-3 -0.0768-4e-3 -0.1095-0.0264-0.15482-0.13342-0.2039-0.22782-0.2039zm-0.17369 0.24417c0.0189-0.13593 0.10573-0.17495 0.1674-0.17495 0.0931 0 0.15985 0.0818 0.14852 0.17495z"/>
      <path d="m-99.873 376.37h0.09188v-0.33102c0-0.0378 5e-3 -0.0667 0.02895-0.0982 0.0214-0.0289 0.07678-0.0806 0.13719-0.0806 0.02895 0 0.0579 0.0126 0.07803 0.0365 0.03147 0.0378 0.03147 0.0868 0.03147 0.12712v0.34613h0.08936v-0.34864c0-0.0441 0-0.0919-0.02014-0.13845-0.02895-0.0642-0.0881-0.10069-0.15355-0.10069-0.07803 0-0.14852 0.0503-0.19131 0.11453v-0.10069h-0.09188z"/>
      <path d="m-99.093 375.64-0.01133 0.15481h-0.13719l-0.0013 0.0743h0.13467c-0.0076 0.0982-0.01133 0.19635-0.01133 0.29326 0 0.0516 0 0.1095 0.03398 0.15733 0.02769 0.0378 0.07174 0.0604 0.1309 0.0604 0.06797 0 0.13467-0.0289 0.18376-0.0642l-0.02769-0.0717c-0.04909 0.0365-0.0944 0.0529-0.12964 0.0529-0.04279 0-0.08684-0.0239-0.09691-0.0931 0-5e-3 -0.0038-0.0264-0.0038-0.11076 0-0.0743 0.0038-0.14978 0.01133-0.22404h0.18879v-0.0755h-0.18754s0.0088-0.1032 0.0151-0.13593c0.0013-0.0126 0.01133-0.0201 0.0063-0.034z"/>
      <path d="m-98.022 375.79 0.22781 0.58023h0.07174l0.13971-0.3285c0.03398-0.0805 0.06671-0.16362 0.08559-0.25173h-0.08181c-0.0151 0.0843-0.04531 0.16363-0.07803 0.23914l-0.09188 0.21397-0.16614-0.42038c-0.0013-3e-3 -0.0025-5e-3 -0.0025-8e-3 0-8e-3 0.0063-0.0151 0.0038-0.0252z"/>
      <path d="m-97.117 375.78c-0.13719 0-0.26431 0.0982-0.26431 0.3071 0 0.19257 0.11957 0.29452 0.27564 0.29452 0.08307 0 0.15733-0.0302 0.20641-0.0894l-0.05035-0.0491c-0.0365 0.0428-0.09188 0.0654-0.14852 0.0654-0.07678 0-0.18879-0.0428-0.19509-0.21522h0.40779c0.0038-0.039 0.0025-0.0768-0.0038-0.1095-0.02643-0.15482-0.13341-0.2039-0.22781-0.2039zm-0.17369 0.24417c0.01888-0.13593 0.10572-0.17495 0.1674-0.17495 0.09314 0 0.15985 0.0818 0.14852 0.17495z"/>
      <path d="m-96.707 375.53v0.073h0.16362v0.69098h-0.17117v0.0717h0.43171v-0.0717h-0.16992v-0.76398z"/>
      <path d="m-95.604 376.08c0-0.19887-0.12586-0.30207-0.25676-0.30207-0.146 0-0.27186 0.12586-0.27186 0.30458 0 0.17495 0.1246 0.2983 0.26935 0.2983 0.13593 0 0.25928-0.1095 0.25928-0.30081zm-0.26305-0.2253c0.08307 0 0.17117 0.0717 0.17117 0.22907 0 0.14474-0.08307 0.21774-0.16614 0.21774-0.09188 0-0.17495-0.0856-0.17495-0.22781 0-0.14096 0.08181-0.219 0.16991-0.219z"/>
      <path d="m-94.98 375.89c-0.04531-0.0667-0.12209-0.10698-0.21522-0.10698-0.16866 0-0.28822 0.12712-0.28822 0.29955 0 0.17369 0.11957 0.30207 0.28319 0.30207 0.07929 0 0.15733-0.0327 0.21145-0.0919l-0.0516-0.0604c-0.03902 0.0441-0.09566 0.0692-0.15229 0.0692-0.11202 0-0.1976-0.0931-0.1976-0.22781 0-0.1309 0.08433-0.21271 0.19005-0.21271 0.09817 0 0.14474 0.068 0.14852 0.0755 5e-3 9e-3 -0.0025 0.0214 0.0076 0.029z"/>
      <path d="m-94.791 375.79v0.0743h0.13845v0.42919h-0.146v0.0717h0.37255v-0.0717h-0.13467v-0.50345zm0.18628-0.2492c-0.0365 0-0.06545 0.0289-0.06545 0.0642 0 0.0352 0.02895 0.0642 0.06545 0.0642s0.06545-0.029 0.06545-0.0642c0-0.0353-0.02895-0.0642-0.06545-0.0642z"/>
      <path d="m-94.058 375.64-0.01133 0.15481h-0.13719l-0.0013 0.0743h0.13467c-0.0076 0.0982-0.01133 0.19635-0.01133 0.29326 0 0.0516 0 0.1095 0.03398 0.15733 0.02769 0.0378 0.07174 0.0604 0.1309 0.0604 0.06797 0 0.13467-0.0289 0.18376-0.0642l-0.02769-0.0717c-0.04909 0.0365-0.0944 0.0529-0.12964 0.0529-0.04279 0-0.08684-0.0239-0.09691-0.0931 0-5e-3 -0.0038-0.0264-0.0038-0.11076 0-0.0743 0.0038-0.14978 0.01133-0.22404h0.18879v-0.0755h-0.18754s0.0088-0.1032 0.0151-0.13593c0.0013-0.0126 0.01133-0.0201 0.0063-0.034z"/>
      <path d="m-93.609 375.79 0.2341 0.57268-0.01888 0.0415c-0.01007 0.0239-0.0214 0.0478-0.03902 0.0667-0.02391 0.0264-0.05412 0.0378-0.08055 0.0378-0.04279 0-0.06419-0.029-0.06797-0.034-0.0038-6e-3 -0.0025-0.0151-0.01007-0.0214l-0.04657 0.0818c0.03272 0.0315 0.07678 0.0478 0.1246 0.0478 0.0516 0 0.10572-0.0189 0.14348-0.0617 0.02517-0.0289 0.03776-0.0591 0.05035-0.0919l0.17872-0.4745c0.0214-0.0541 0.04028-0.1095 0.0579-0.16614h-0.0944c-0.01007 0.0529-0.02643 0.10321-0.04405 0.15356l-0.1095 0.30836-0.16866-0.42416c-0.0013-4e-3 -0.0013-6e-3 -0.0013-0.0101 0-9e-3 0.0063-0.0151 5e-3 -0.0264z"/>
     </g>
     <g transform="rotate(-20.562)" stroke-width=".28222px" aria-label="new velocity">
      <path d="m162.79 357.37h0.0919v-0.33102c0-0.0378 5e-3 -0.0667 0.029-0.0982 0.0214-0.029 0.0768-0.0806 0.13719-0.0806 0.0289 0 0.0579 0.0126 0.078 0.0365 0.0315 0.0378 0.0315 0.0868 0.0315 0.12712v0.34612h0.0894v-0.34864c0-0.0441 0-0.0919-0.0201-0.13845-0.029-0.0642-0.0881-0.10069-0.15355-0.10069-0.078 0-0.14852 0.0503-0.19131 0.11454v-0.10069h-0.0919z"/>
      <path d="m163.66 356.79c-0.13719 0-0.26431 0.0982-0.26431 0.30711 0 0.19257 0.11957 0.29451 0.27564 0.29451 0.0831 0 0.15732-0.0302 0.20641-0.0894l-0.0503-0.0491c-0.0365 0.0428-0.0919 0.0654-0.14852 0.0654-0.0768 0-0.1888-0.0428-0.19509-0.21522h0.4078c4e-3 -0.039 3e-3 -0.0768-4e-3 -0.1095-0.0264-0.15481-0.13341-0.2039-0.22781-0.2039zm-0.17369 0.24417c0.0189-0.13593 0.10572-0.17494 0.1674-0.17494 0.0931 0 0.15984 0.0818 0.14851 0.17494z"/>
      <path d="m163.98 356.8 0.11579 0.57645h0.0818l0.10069-0.37256 0.10698 0.37256h0.0843c0.039-0.19005 0.0717-0.38262 0.0957-0.57519h-0.0831c3e-3 0.0692-4e-3 0.13341-0.0541 0.46065l-0.12083-0.40779h-0.0554l-0.0994 0.40905-0.0831-0.41534c-3e-3 -9e-3 -3e-3 -0.0126 1e-3 -0.0227 1e-3 -6e-3 5e-3 -0.0151 1e-3 -0.0252z"/>
      <path d="m165.27 356.8 0.22781 0.58022h0.0717l0.13971-0.3285c0.034-0.0806 0.0667-0.16362 0.0856-0.25172h-0.0818c-0.0151 0.0843-0.0453 0.16362-0.078 0.23914l-0.0919 0.21396-0.16614-0.42038c-1e-3 -3e-3 -3e-3 -5e-3 -3e-3 -8e-3 0-8e-3 6e-3 -0.0151 4e-3 -0.0252z"/>
      <path d="m166.17 356.79c-0.13719 0-0.26431 0.0982-0.26431 0.30711 0 0.19257 0.11957 0.29451 0.27564 0.29451 0.0831 0 0.15733-0.0302 0.20641-0.0894l-0.0503-0.0491c-0.0365 0.0428-0.0919 0.0654-0.14852 0.0654-0.0768 0-0.1888-0.0428-0.19509-0.21522h0.4078c4e-3 -0.039 3e-3 -0.0768-4e-3 -0.1095-0.0264-0.15481-0.13341-0.2039-0.22781-0.2039zm-0.17369 0.24417c0.0189-0.13593 0.10572-0.17494 0.1674-0.17494 0.0931 0 0.15984 0.0818 0.14851 0.17494z"/>
      <path d="m166.58 356.54v0.073h0.16362v0.69099h-0.17117v0.0717h0.43171v-0.0717h-0.16992v-0.76399z"/>
      <path d="m167.69 357.09c0-0.19886-0.12587-0.30207-0.25676-0.30207-0.146 0-0.27187 0.12586-0.27187 0.30459 0 0.17495 0.12461 0.29829 0.26935 0.29829 0.13593 0 0.25928-0.1095 0.25928-0.30081zm-0.26306-0.22529c0.0831 0 0.17118 0.0717 0.17118 0.22907 0 0.14474-0.0831 0.21774-0.16614 0.21774-0.0919 0-0.17495-0.0856-0.17495-0.22781 0-0.14097 0.0818-0.219 0.16991-0.219z"/>
      <path d="m168.31 356.89c-0.0453-0.0667-0.12208-0.10698-0.21522-0.10698-0.16866 0-0.28823 0.12712-0.28823 0.29955 0 0.17369 0.11957 0.30207 0.2832 0.30207 0.0793 0 0.15732-0.0327 0.21144-0.0919l-0.0516-0.0604c-0.039 0.0441-0.0957 0.0692-0.15229 0.0692-0.11202 0-0.19761-0.0931-0.19761-0.22781 0-0.13089 0.0843-0.21271 0.19006-0.21271 0.0982 0 0.14474 0.068 0.14851 0.0755 5e-3 9e-3 -3e-3 0.0214 8e-3 0.029z"/>
      <path d="m168.5 356.8v0.0743h0.13845v0.42919h-0.146v0.0717h0.37255v-0.0717h-0.13467v-0.50345zm0.18628-0.24921c-0.0365 0-0.0654 0.029-0.0654 0.0642s0.0289 0.0642 0.0654 0.0642 0.0654-0.0289 0.0654-0.0642c0-0.0352-0.0289-0.0642-0.0654-0.0642z"/>
      <path d="m169.23 356.65-0.0113 0.15481h-0.13719l-1e-3 0.0743h0.13467c-8e-3 0.0982-0.0113 0.19634-0.0113 0.29325 0 0.0516 0 0.10951 0.034 0.15733 0.0277 0.0378 0.0717 0.0604 0.1309 0.0604 0.068 0 0.13467-0.029 0.18376-0.0642l-0.0277-0.0717c-0.0491 0.0365-0.0944 0.0529-0.12964 0.0529-0.0428 0-0.0868-0.0239-0.0969-0.0931 0-5e-3 -4e-3 -0.0264-4e-3 -0.11076 0-0.0743 4e-3 -0.14978 0.0113-0.22403h0.18879v-0.0755h-0.18754s9e-3 -0.10321 0.0151-0.13593c1e-3 -0.0126 0.0113-0.0201 6e-3 -0.034z"/>
      <path d="m169.68 356.8 0.2341 0.57267-0.0189 0.0415c-0.0101 0.0239-0.0214 0.0478-0.039 0.0667-0.0239 0.0264-0.0541 0.0378-0.0806 0.0378-0.0428 0-0.0642-0.029-0.068-0.034-4e-3 -6e-3 -3e-3 -0.0151-0.0101-0.0214l-0.0466 0.0818c0.0327 0.0315 0.0768 0.0478 0.1246 0.0478 0.0516 0 0.10573-0.0189 0.14349-0.0617 0.0252-0.029 0.0378-0.0592 0.0503-0.0919l0.17873-0.4745c0.0214-0.0541 0.0403-0.1095 0.0579-0.16614h-0.0944c-0.0101 0.0529-0.0264 0.1032-0.0441 0.15355l-0.1095 0.30836-0.16865-0.42415c-1e-3 -4e-3 -1e-3 -6e-3 -1e-3 -0.0101 0-9e-3 6e-3 -0.0151 5e-3 -0.0264z"/>
     </g>
     <g stroke-width=".28222px" aria-label="desired velocity">
      <path d="m282.67 278.25c-0.0277-0.0592-0.0894-0.0982-0.16866-0.0982-0.1095 0-0.24291 0.078-0.24291 0.29704 0 0.21271 0.11831 0.30585 0.22907 0.30585 0.073 0 0.14096-0.0415 0.17746-0.10573v0.0503c0 0.0138 1e-3 0.0277 5e-3 0.0415h0.0906c-5e-3 -0.0164-5e-3 -0.0352-5e-3 -0.0529l-1e-3 -0.74762c0-8e-3 0-0.0101 5e-3 -0.0176 3e-3 -4e-3 8e-3 -0.0101 6e-3 -0.0189h-0.0957zm-0.16488-0.0239c0.0503 0 0.1246 0.0264 0.14726 0.11202 8e-3 0.0264 0.0101 0.0579 0.0101 0.12209 0 0.044-3e-3 0.0755-0.0126 0.10572-0.0214 0.068-0.0818 0.10824-0.14097 0.10824-0.0654 0-0.16236-0.0503-0.16236-0.23913 0-0.16488 0.0919-0.20894 0.15859-0.20894z"/>
      <path d="m283.16 278.16c-0.13719 0-0.26431 0.0982-0.26431 0.30711 0 0.19257 0.11957 0.29452 0.27564 0.29452 0.0831 0 0.15733-0.0302 0.20642-0.0894l-0.0503-0.0491c-0.0365 0.0428-0.0919 0.0654-0.14852 0.0654-0.0768 0-0.18879-0.0428-0.19508-0.21523h0.40779c4e-3 -0.039 3e-3 -0.0768-4e-3 -0.1095-0.0264-0.15481-0.13341-0.2039-0.22781-0.2039zm-0.17369 0.24418c0.0189-0.13594 0.10573-0.17495 0.1674-0.17495 0.0931 0 0.15985 0.0818 0.14852 0.17495z"/>
      <path d="m284.01 278.25c-0.0529-0.0579-0.12964-0.0894-0.21523-0.0894-0.13341 0-0.22026 0.0743-0.22026 0.15985 0 0.10069 0.10824 0.13719 0.13971 0.14852 0.0491 0.0176 0.11202 0.0327 0.15481 0.0529 0.0478 0.0226 0.0566 0.0529 0.0566 0.073 0 0.0541-0.0654 0.0906-0.14726 0.0906-0.0982 0-0.1611-0.0592-0.17998-0.0793-4e-3 -5e-3 -4e-3 -9e-3 -4e-3 -0.0138 0-1e-3 1e-3 -9e-3 -5e-3 -0.0113l-0.0529 0.0894c0.068 0.0629 0.15607 0.0919 0.24292 0.0919 0.15733 0 0.23914-0.0931 0.23914-0.17999 0-0.039-0.0164-0.0919-0.0843-0.12964-0.0642-0.0365-0.15733-0.0491-0.21145-0.0755-0.0466-0.0227-0.0566-0.0504-0.0566-0.0705 0-0.0453 0.0566-0.078 0.12083-0.078 0.0831 0 0.13845 0.0503 0.15985 0.0793 4e-3 4e-3 3e-3 8e-3 3e-3 0.0113 0 8e-3 5e-3 0.0101 8e-3 0.0101z"/>
      <path d="m284.23 278.17v0.0743h0.13845v0.42919h-0.146v0.0717h0.37255v-0.0717h-0.13467v-0.50345zm0.18627-0.24921c-0.0365 0-0.0654 0.0289-0.0654 0.0642 0 0.0352 0.0289 0.0642 0.0654 0.0642s0.0654-0.029 0.0654-0.0642-0.029-0.0642-0.0654-0.0642z"/>
      <path d="m284.85 278.17v0.57519h0.0906v-0.27942c0-0.0352 1e-3 -0.073 0.0403-0.13467 0.0529-0.0831 0.12083-0.0969 0.16236-0.0969 0.0478 0 0.078 0.0226 0.0944 0.0428 8e-3 0.0101 0.0113 0.0201 0.0214 0.029l0.0428-0.0869c-0.0365-0.0377-0.0894-0.0629-0.15356-0.0629-0.0843 0-0.16991 0.0428-0.20767 0.12461l4e-3 -0.11076z"/>
      <path d="m285.68 278.16c-0.13719 0-0.26431 0.0982-0.26431 0.30711 0 0.19257 0.11957 0.29452 0.27564 0.29452 0.0831 0 0.15733-0.0302 0.20642-0.0894l-0.0503-0.0491c-0.0365 0.0428-0.0919 0.0654-0.14852 0.0654-0.0768 0-0.18879-0.0428-0.19508-0.21523h0.40779c4e-3 -0.039 3e-3 -0.0768-4e-3 -0.1095-0.0264-0.15481-0.13342-0.2039-0.22782-0.2039zm-0.17369 0.24418c0.0189-0.13594 0.10573-0.17495 0.1674-0.17495 0.0931 0 0.15985 0.0818 0.14852 0.17495z"/>
      <path d="m286.45 278.25c-0.0277-0.0592-0.0894-0.0982-0.16865-0.0982-0.1095 0-0.24292 0.078-0.24292 0.29704 0 0.21271 0.11831 0.30585 0.22907 0.30585 0.073 0 0.14097-0.0415 0.17747-0.10573v0.0503c0 0.0138 1e-3 0.0277 5e-3 0.0415h0.0906c-5e-3 -0.0164-5e-3 -0.0352-5e-3 -0.0529l-1e-3 -0.74762c0-8e-3 0-0.0101 5e-3 -0.0176 3e-3 -4e-3 8e-3 -0.0101 6e-3 -0.0189h-0.0957zm-0.16488-0.0239c0.0503 0 0.12461 0.0264 0.14726 0.11202 8e-3 0.0264 0.0101 0.0579 0.0101 0.12209 0 0.044-3e-3 0.0755-0.0126 0.10572-0.0214 0.068-0.0818 0.10824-0.14096 0.10824-0.0654 0-0.16237-0.0503-0.16237-0.23913 0-0.16488 0.0919-0.20894 0.15859-0.20894z"/>
      <path d="m287.29 278.17 0.22781 0.58023h0.0718l0.1397-0.32851c0.034-0.0806 0.0667-0.16362 0.0856-0.25172h-0.0818c-0.0151 0.0843-0.0453 0.16362-0.078 0.23914l-0.0919 0.21396-0.16613-0.42038c-1e-3 -3e-3 -3e-3 -5e-3 -3e-3 -8e-3 0-8e-3 6e-3 -0.0151 4e-3 -0.0252z"/>
      <path d="m288.19 278.16c-0.13719 0-0.26431 0.0982-0.26431 0.30711 0 0.19257 0.11957 0.29452 0.27564 0.29452 0.0831 0 0.15733-0.0302 0.20642-0.0894l-0.0503-0.0491c-0.0365 0.0428-0.0919 0.0654-0.14852 0.0654-0.0768 0-0.18879-0.0428-0.19508-0.21523h0.40779c4e-3 -0.039 3e-3 -0.0768-4e-3 -0.1095-0.0264-0.15481-0.13342-0.2039-0.22782-0.2039zm-0.17369 0.24418c0.0189-0.13594 0.10573-0.17495 0.1674-0.17495 0.0931 0 0.15985 0.0818 0.14852 0.17495z"/>
      <path d="m288.6 277.91v0.073h0.16362v0.69099h-0.17118v0.0717h0.43171v-0.0717h-0.16991v-0.76399z"/>
      <path d="m289.71 278.46c0-0.19886-0.12586-0.30207-0.25676-0.30207-0.146 0-0.27186 0.12586-0.27186 0.30459 0 0.17495 0.1246 0.29829 0.26934 0.29829 0.13594 0 0.25928-0.1095 0.25928-0.30081zm-0.26305-0.22529c0.0831 0 0.17117 0.0717 0.17117 0.22907 0 0.14474-0.0831 0.21774-0.16614 0.21774-0.0919 0-0.17495-0.0856-0.17495-0.22781 0-0.14097 0.0818-0.219 0.16992-0.219z"/>
      <path d="m290.33 278.26c-0.0453-0.0667-0.12209-0.10698-0.21522-0.10698-0.16866 0-0.28823 0.12712-0.28823 0.29955 0 0.17369 0.11957 0.30207 0.28319 0.30207 0.0793 0 0.15733-0.0327 0.21145-0.0919l-0.0516-0.0604c-0.039 0.044-0.0957 0.0692-0.1523 0.0692-0.11202 0-0.1976-0.0931-0.1976-0.22782 0-0.13089 0.0843-0.2127 0.19005-0.2127 0.0982 0 0.14474 0.068 0.14852 0.0755 5e-3 9e-3 -3e-3 0.0214 8e-3 0.029z"/>
      <path d="m290.52 278.17v0.0743h0.13845v0.42919h-0.146v0.0717h0.37256v-0.0717h-0.13468v-0.50345zm0.18628-0.24921c-0.0365 0-0.0654 0.0289-0.0654 0.0642 0 0.0352 0.0289 0.0642 0.0654 0.0642s0.0654-0.029 0.0654-0.0642-0.029-0.0642-0.0654-0.0642z"/>
      <path d="m291.25 278.02-0.0113 0.15481h-0.13719l-1e-3 0.0743h0.13467c-8e-3 0.0982-0.0113 0.19634-0.0113 0.29326 0 0.0516 0 0.1095 0.034 0.15732 0.0277 0.0378 0.0717 0.0604 0.13089 0.0604 0.068 0 0.13468-0.029 0.18376-0.0642l-0.0277-0.0717c-0.0491 0.0365-0.0944 0.0529-0.12964 0.0529-0.0428 0-0.0868-0.0239-0.0969-0.0931 0-5e-3 -4e-3 -0.0264-4e-3 -0.11076 0-0.0743 4e-3 -0.14977 0.0113-0.22403h0.18879v-0.0755h-0.18753s9e-3 -0.10321 0.0151-0.13593c1e-3 -0.0126 0.0113-0.0201 6e-3 -0.034z"/>
      <path d="m291.7 278.17 0.23411 0.57267-0.0189 0.0415c-0.0101 0.0239-0.0214 0.0478-0.039 0.0667-0.0239 0.0264-0.0541 0.0378-0.0805 0.0378-0.0428 0-0.0642-0.029-0.068-0.034-4e-3 -6e-3 -3e-3 -0.0151-0.0101-0.0214l-0.0466 0.0818c0.0327 0.0315 0.0768 0.0478 0.12461 0.0478 0.0516 0 0.10572-0.0189 0.14348-0.0617 0.0252-0.029 0.0378-0.0592 0.0504-0.0919l0.17872-0.4745c0.0214-0.0541 0.0403-0.1095 0.0579-0.16614h-0.0944c-0.0101 0.0529-0.0264 0.10321-0.0441 0.15355l-0.1095 0.30836-0.16866-0.42415c-1e-3 -4e-3 -1e-3 -6e-3 -1e-3 -0.0101 0-9e-3 6e-3 -0.0151 5e-3 -0.0264z"/>
     </g>
    </g>
    <g transform="matrix(-.42502 -.25086 .25086 -.42502 423.68 512.06)">
     <path d="m501.47 274.25-1.2053 3.2778-1.2053-3.2778c0.71162 0.52365 1.6852 0.52064 2.4106 0z" fill="#fff" fill-rule="evenodd" stroke="#d54747" stroke-linejoin="round" stroke-width=".1875"/>
    </g>
    <g transform="matrix(.16625 -.23037 .23037 .16625 141.43 342.76)">
     <path d="m501.47 274.25-1.2053 3.2778-1.2053-3.2778c0.71162 0.52365 1.6852 0.52064 2.4106 0z" fill="#fff" fill-rule="evenodd" stroke="#d54747" stroke-linejoin="round" stroke-width=".1875"/>
    </g>
    <g transform="matrix(-.24756 -.54853 .54853 -.24756 260.61 616.97)" stroke="#7dffaf">
     <path d="m501.47 274.25-1.2053 3.2778-1.2053-3.2778c0.71162 0.52365 1.6852 0.52064 2.4106 0z" fill="#fff" fill-rule="evenodd" stroke="#7dffaf" stroke-linejoin="round" stroke-width=".1875"/>
    </g>
    <g transform="matrix(-.299 .44539 .44539 .299 309.23 -20.563)">
     <path d="m501.47 274.25-1.2053 3.2778-1.2053-3.2778c0.71162 0.52365 1.6852 0.52064 2.4106 0z" fill="#fff" fill-rule="evenodd" stroke="#d54747" stroke-linejoin="round" stroke-width=".1875"/>
    </g>
    <g transform="matrix(-.299 .44539 .44539 .299 317.2 -15.243)">
     <path d="m501.47 274.25-1.2053 3.2778-1.2053-3.2778c0.71162 0.52365 1.6852 0.52064 2.4106 0z" fill="#fff" fill-rule="evenodd" stroke="#d54747" stroke-linejoin="round" stroke-width=".1875"/>
    </g>
    <g transform="matrix(-.47086 -.25704 -.25704 .47086 598.54 288.59)">
     <path d="m501.47 274.25-1.2053 3.2778-1.2053-3.2778c0.71162 0.52365 1.6852 0.52064 2.4106 0z" fill="#fff" fill-rule="evenodd" stroke="#d54747" stroke-linejoin="round" stroke-width=".1875"/>
    </g>
    <g transform="matrix(.008023 .81996 .81996 -.008023 66.247 -128.69)">
     <path d="m501.47 274.25-1.2053 3.2778-1.2053-3.2778c0.71162 0.52365 1.6852 0.52064 2.4106 0z" fill="#fff" fill-rule="evenodd" stroke="#d54747" stroke-linejoin="round" stroke-width=".1875"/>
    </g>
   </g>
  </g>
 </g>
</svg>
