<svg width="50.809mm" height="30.007mm" version="1.1" viewBox="0 0 50.809 30.007" xmlns="http://www.w3.org/2000/svg">
 <g transform="translate(-288.77 -311.07)">
  <g fill="#e9e56f" aria-label="overlap">
   <g fill="#e9e56f" aria-label="Double Precision 64b">
    <path transform="matrix(.24669 -.00017403 .00010176 .14424 276.79 265.11)" d="m73.143 404.25-20.354 11.751v-23.503z" fill="#3b390d" fill-opacity=".38431" stroke="#e9e56f" stroke-width=".7013"/>
    <g fill="none">
     <path d="m291.32 323.44h22.875" stroke="#ff7adf" stroke-width=".16933"/>
     <path d="m327.36 323.25h11.051" stroke="#d54747" stroke-width=".16933"/>
     <circle cx="327.39" cy="323.25" r="11.042" stroke="#d54747" stroke-width=".28222"/>
     <path d="m291.32 323.44 25.993-7.4336" stroke="#7dffaf" stroke-width=".16933"/>
    </g>
    <g fill="#d54747">
     <circle cx="291.38" cy="323.47" r=".49514"/>
     <circle cx="327.39" cy="323.25" r=".46997" stroke="#d54747" stroke-width=".42116"/>
     <circle cx="319.3" cy="315.54" r=".98677" stroke="#d54747" stroke-width=".88428"/>
    </g>
    <g fill="#6fafe9" stroke-width=".28222px" aria-label="radius">
     <path d="m329.84 324.75v0.87219h0.13741v-0.42369c0-0.0534 2e-3 -0.11069 0.0611-0.20421 0.0802-0.12596 0.18322-0.14696 0.2462-0.14696 0.0725 0 0.11833 0.0344 0.14314 0.0649 0.0115 0.0153 0.0172 0.0305 0.0324 0.0439l0.0649-0.13169c-0.0553-0.0573-0.1355-0.0954-0.23284-0.0954-0.12787 0-0.25764 0.0649-0.3149 0.18894l6e-3 -0.16795z"/>
     <path d="m330.78 324.85 0.0668 0.0878c0.0725-0.0744 0.16985-0.0973 0.25192-0.0973 0.10306 0 0.15459 0.0439 0.1794 0.084 0.0286 0.0477 0.0267 0.10497 0.0267 0.15077v0.0305h-0.0267c-0.12978 0-0.26719 0-0.37789 0.0401-0.13741 0.0496-0.19848 0.15268-0.19848 0.24811 0 0.12787 0.11069 0.2481 0.292 0.2481 0.10688 0 0.21757-0.0401 0.313-0.11832v0.0954h0.12978v-0.54011c0-0.0706-2e-3 -0.13741-0.042-0.20612-0.0573-0.0935-0.16795-0.14314-0.30345-0.14314-0.11642 0-0.22903 0.0363-0.31109 0.12024zm0.53056 0.36071v0.0592c0 0.0439 0 0.10115-0.0592 0.16414-0.0324 0.0324-0.11451 0.10306-0.22902 0.10306-0.11642 0-0.18322-0.0744-0.18322-0.15078 0-0.0649 0.0439-0.1355 0.15268-0.16222 0.0802-0.0191 0.19658-0.0134 0.28819-0.0134z"/>
     <path d="m332.27 324.88c-0.042-0.0897-0.13551-0.14886-0.25574-0.14886-0.16604 0-0.36835 0.11832-0.36835 0.45041 0 0.32254 0.1794 0.46377 0.34735 0.46377 0.1107 0 0.21376-0.063 0.2691-0.16032v0.0763c0 0.021 2e-3 0.042 8e-3 0.063h0.13741c-8e-3 -0.0248-8e-3 -0.0534-8e-3 -0.0802l-2e-3 -1.1336c0-0.0115 0-0.0153 8e-3 -0.0267 4e-3 -6e-3 0.0114-0.0153 0.01-0.0286h-0.14504zm-0.25002-0.0363c0.0763 0 0.18894 0.0401 0.2233 0.16986 0.0114 0.0401 0.0153 0.0878 0.0153 0.18512 0 0.0668-4e-3 0.11451-0.0191 0.16032-0.0324 0.10306-0.12405 0.16413-0.21375 0.16413-0.0992 0-0.2462-0.0763-0.2462-0.36262 0-0.25001 0.13932-0.31681 0.24047-0.31681z"/>
     <path d="m332.72 324.75v0.1126h0.20993v0.65081h-0.22138v0.10878h0.56492v-0.10878h-0.20421v-0.76341zm0.28246-0.37789c-0.0554 0-0.0992 0.0439-0.0992 0.0973s0.0439 0.0973 0.0992 0.0973 0.0992-0.0439 0.0992-0.0973-0.0439-0.0973-0.0992-0.0973z"/>
     <path d="m333.59 324.75v0.48667c0 0.0744 0 0.15077 0.0344 0.22902 0.0496 0.11451 0.1565 0.17749 0.27101 0.17749 0.10879 0 0.21185-0.0592 0.2691-0.15459l-2e-3 0.0649c0 0.0229 0 0.0458 4e-3 0.0668h0.14505c-0.01-0.0248-0.0115-0.0534-0.0115-0.0782v-0.79203h-0.13741v0.47904c0 0.0668-6e-3 0.11832-0.0344 0.17176-0.0401 0.0744-0.11833 0.12978-0.2023 0.12978-0.0668 0-0.13169-0.0382-0.16604-0.10688-0.0305-0.0611-0.0305-0.12977-0.0305-0.18703v-0.48667z"/>
     <path d="m335.25 324.87c-0.0802-0.0878-0.19658-0.1355-0.32636-0.1355-0.2023 0-0.33399 0.1126-0.33399 0.24238 0 0.15268 0.16414 0.20802 0.21185 0.2252 0.0744 0.0267 0.16986 0.0496 0.23475 0.0802 0.0725 0.0344 0.0859 0.0802 0.0859 0.11069 0 0.0821-0.0992 0.13742-0.2233 0.13742-0.14886 0-0.24429-0.0897-0.27292-0.12024-6e-3 -8e-3 -6e-3 -0.0134-6e-3 -0.021 0-2e-3 2e-3 -0.0134-8e-3 -0.0172l-0.0802 0.1355c0.10306 0.0954 0.23665 0.13933 0.36834 0.13933 0.23857 0 0.36262-0.14123 0.36262-0.27292 0-0.0592-0.0248-0.13932-0.12787-0.19658-0.0973-0.0554-0.23857-0.0744-0.32063-0.11451-0.0706-0.0344-0.0859-0.0763-0.0859-0.10688 0-0.0687 0.0859-0.11833 0.18322-0.11833 0.12596 0 0.20994 0.0763 0.24238 0.12024 6e-3 6e-3 4e-3 0.0115 4e-3 0.0172 0 0.0115 8e-3 0.0153 0.0115 0.0153z"/>
    </g>
    <path d="m323.89 314.96c-1.0765 0.45531-2.046 1.1142-2.8602 1.9283-0.81416 0.81415-1.473 1.7836-1.9283 2.8602" fill="none" stroke="#d54747" stroke-width=".22997"/>
    <g>
     <g fill="#e9e56f" stroke-width=".28222px" aria-label="current velocity">
      <path d="m297.77 324.9c-0.0687-0.10115-0.18512-0.16223-0.32635-0.16223-0.25574 0-0.43705 0.19276-0.43705 0.45423 0 0.26338 0.18131 0.45804 0.42941 0.45804 0.12024 0 0.23857-0.0496 0.32063-0.13932l-0.0783-0.0916c-0.0592 0.0668-0.14504 0.10497-0.23093 0.10497-0.16985 0-0.29963-0.14123-0.29963-0.34544 0-0.19848 0.12787-0.32254 0.28818-0.32254 0.14887 0 0.21948 0.10306 0.22521 0.11451 8e-3 0.0134-4e-3 0.0324 0.0114 0.0439z"/>
      <path d="m297.97 324.75v0.48667c0 0.0744 0 0.15077 0.0344 0.22902 0.0496 0.11451 0.1565 0.17749 0.27101 0.17749 0.10878 0 0.21184-0.0592 0.2691-0.15459l-2e-3 0.0649c0 0.0229 0 0.0458 4e-3 0.0668h0.14504c-0.01-0.0248-0.0114-0.0534-0.0114-0.0782v-0.79203h-0.13741v0.47904c0 0.0668-6e-3 0.11832-0.0344 0.17176-0.0401 0.0744-0.11833 0.12978-0.20231 0.12978-0.0668 0-0.13168-0.0382-0.16604-0.10688-0.0305-0.0611-0.0305-0.12977-0.0305-0.18703v-0.48667z"/>
      <path d="m298.99 324.75v0.87219h0.13741v-0.42369c0-0.0534 2e-3 -0.11069 0.0611-0.20421 0.0802-0.12596 0.18322-0.14696 0.2462-0.14696 0.0725 0 0.11833 0.0344 0.14314 0.0649 0.0115 0.0153 0.0172 0.0305 0.0324 0.0439l0.0649-0.13169c-0.0553-0.0573-0.1355-0.0954-0.23283-0.0954-0.12788 0-0.25765 0.0649-0.31491 0.18894l6e-3 -0.16795z"/>
      <path d="m299.95 324.75v0.87219h0.13742v-0.42369c0-0.0534 2e-3 -0.11069 0.0611-0.20421 0.0802-0.12596 0.18322-0.14696 0.2462-0.14696 0.0725 0 0.11833 0.0344 0.14314 0.0649 0.0114 0.0153 0.0172 0.0305 0.0324 0.0439l0.0649-0.13169c-0.0554-0.0573-0.1355-0.0954-0.23284-0.0954-0.12787 0-0.25765 0.0649-0.3149 0.18894l6e-3 -0.16795z"/>
      <path d="m301.21 324.73c-0.20803 0-0.40079 0.14886-0.40079 0.46567 0 0.29201 0.18131 0.4466 0.41796 0.4466 0.12596 0 0.23857-0.0458 0.313-0.13551l-0.0763-0.0744c-0.0554 0.0649-0.13932 0.0992-0.22521 0.0992-0.11642 0-0.28627-0.0649-0.29582-0.32635h0.61836c6e-3 -0.0592 4e-3 -0.11642-6e-3 -0.16605-0.0401-0.23474-0.20231-0.30917-0.34544-0.30917zm-0.26338 0.37025c0.0286-0.20612 0.16032-0.26529 0.25383-0.26529 0.14123 0 0.24238 0.12406 0.22521 0.26529z"/>
      <path d="m301.8 325.62h0.13932v-0.50194c0-0.0573 8e-3 -0.10115 0.0439-0.14886 0.0325-0.0439 0.11642-0.12215 0.20803-0.12215 0.0439 0 0.0878 0.0191 0.11833 0.0553 0.0477 0.0573 0.0477 0.13169 0.0477 0.19276v0.52484h0.13551v-0.52866c0-0.0668 0-0.13932-0.0305-0.20993-0.0439-0.0973-0.1336-0.15268-0.23284-0.15268-0.11833 0-0.2252 0.0763-0.29009 0.17367v-0.15268h-0.13932z"/>
      <path d="m302.98 324.52-0.0172 0.23475h-0.20803l-2e-3 0.1126h0.20421c-0.0115 0.14887-0.0172 0.29773-0.0172 0.44469 0 0.0782 0 0.16604 0.0515 0.23856 0.042 0.0573 0.10878 0.0916 0.19848 0.0916 0.10306 0 0.20421-0.0439 0.27864-0.0973l-0.042-0.10878c-0.0744 0.0554-0.14314 0.0802-0.19658 0.0802-0.0649 0-0.13169-0.0363-0.14696-0.14123 0-8e-3 -6e-3 -0.0401-6e-3 -0.16795 0-0.11261 6e-3 -0.22712 0.0172-0.33972h0.28627v-0.11451h-0.28437s0.0134-0.1565 0.0229-0.20612c2e-3 -0.0191 0.0172-0.0305 0.01-0.0515z"/>
      <path d="m304.6 324.75 0.34544 0.87983h0.10879l0.21184-0.49813c0.0515-0.12214 0.10115-0.2481 0.12978-0.3817h-0.12405c-0.0229 0.12787-0.0687 0.24811-0.11833 0.36262l-0.13932 0.32445-0.25193-0.63745c-2e-3 -4e-3 -4e-3 -8e-3 -4e-3 -0.0114 0-0.0115 0.01-0.0229 6e-3 -0.0382z"/>
      <path d="m305.98 324.73c-0.20803 0-0.40079 0.14886-0.40079 0.46567 0 0.29201 0.18131 0.4466 0.41797 0.4466 0.12596 0 0.23856-0.0458 0.313-0.13551l-0.0763-0.0744c-0.0553 0.0649-0.13932 0.0992-0.2252 0.0992-0.11642 0-0.28628-0.0649-0.29582-0.32635h0.61836c6e-3 -0.0592 4e-3 -0.11642-6e-3 -0.16605-0.0401-0.23474-0.2023-0.30917-0.34544-0.30917zm-0.26337 0.37025c0.0286-0.20612 0.16031-0.26529 0.25383-0.26529 0.14123 0 0.24238 0.12406 0.2252 0.26529z"/>
      <path d="m306.6 324.36v0.11069h0.24811v1.0478h-0.25956v0.10878h0.65462v-0.10878h-0.25765v-1.1585z"/>
      <path d="m308.27 325.19c0-0.30155-0.19085-0.45805-0.38934-0.45805-0.22139 0-0.41224 0.19086-0.41224 0.46186 0 0.26529 0.18894 0.45232 0.40842 0.45232 0.20612 0 0.39316-0.16604 0.39316-0.45613zm-0.39888-0.34163c0.12596 0 0.25956 0.10879 0.25956 0.34735 0 0.21948-0.12597 0.33018-0.25193 0.33018-0.13932 0-0.26528-0.12978-0.26528-0.34545 0-0.21375 0.12405-0.33208 0.25765-0.33208z"/>
      <path d="m309.22 324.9c-0.0687-0.10115-0.18513-0.16223-0.32636-0.16223-0.25574 0-0.43705 0.19276-0.43705 0.45423 0 0.26338 0.18131 0.45804 0.42942 0.45804 0.12024 0 0.23856-0.0496 0.32063-0.13932l-0.0783-0.0916c-0.0592 0.0668-0.14505 0.10497-0.23093 0.10497-0.16986 0-0.29964-0.14123-0.29964-0.34544 0-0.19848 0.12788-0.32254 0.28819-0.32254 0.14886 0 0.21948 0.10306 0.22521 0.11451 8e-3 0.0134-4e-3 0.0324 0.0115 0.0439z"/>
      <path d="m309.5 324.75v0.1126h0.20993v0.65081h-0.22138v0.10878h0.56492v-0.10878h-0.20421v-0.76341zm0.28246-0.37789c-0.0553 0-0.0992 0.0439-0.0992 0.0973s0.0439 0.0973 0.0992 0.0973c0.0554 0 0.0992-0.0439 0.0992-0.0973s-0.0439-0.0973-0.0992-0.0973z"/>
      <path d="m310.61 324.52-0.0172 0.23475h-0.20803l-2e-3 0.1126h0.20421c-0.0114 0.14887-0.0172 0.29773-0.0172 0.44469 0 0.0782 0 0.16604 0.0515 0.23856 0.042 0.0573 0.10879 0.0916 0.19849 0.0916 0.10306 0 0.20421-0.0439 0.27864-0.0973l-0.042-0.10878c-0.0744 0.0554-0.14314 0.0802-0.19658 0.0802-0.0649 0-0.13169-0.0363-0.14696-0.14123 0-8e-3 -6e-3 -0.0401-6e-3 -0.16795 0-0.11261 6e-3 -0.22712 0.0172-0.33972h0.28628v-0.11451h-0.28437s0.0134-0.1565 0.0229-0.20612c2e-3 -0.0191 0.0172-0.0305 0.01-0.0515z"/>
      <path d="m311.3 324.75 0.35499 0.86837-0.0286 0.063c-0.0153 0.0363-0.0324 0.0725-0.0592 0.10116-0.0363 0.0401-0.0821 0.0573-0.12215 0.0573-0.0649 0-0.0973-0.0439-0.10306-0.0515-6e-3 -0.01-4e-3 -0.0229-0.0153-0.0324l-0.0706 0.12405c0.0496 0.0477 0.11642 0.0725 0.18894 0.0725 0.0783 0 0.16032-0.0286 0.21757-0.0935 0.0382-0.0439 0.0573-0.0897 0.0763-0.13933l0.27101-0.71951c0.0324-0.0821 0.0611-0.16604 0.0878-0.25192h-0.14314c-0.0153 0.0802-0.0401 0.1565-0.0668 0.23284l-0.16604 0.46759-0.25575-0.64317c-2e-3 -6e-3 -2e-3 -0.01-2e-3 -0.0153 0-0.0134 0.01-0.0229 8e-3 -0.0401z"/>
     </g>
     <g transform="rotate(-16.619)" fill="#e9e56f" stroke-width=".28222px" aria-label="steering force">
      <path d="m192.12 391.86c-0.0802-0.0878-0.19658-0.13551-0.32636-0.13551-0.2023 0-0.33399 0.11261-0.33399 0.24239 0 0.15268 0.16413 0.20802 0.21185 0.2252 0.0744 0.0267 0.16985 0.0496 0.23474 0.0802 0.0725 0.0344 0.0859 0.0802 0.0859 0.11069 0 0.0821-0.0992 0.13742-0.2233 0.13742-0.14886 0-0.24429-0.0897-0.27292-0.12024-6e-3 -8e-3 -6e-3 -0.0134-6e-3 -0.021 0-2e-3 2e-3 -0.0134-8e-3 -0.0172l-0.0802 0.1355c0.10306 0.0954 0.23665 0.13932 0.36834 0.13932 0.23856 0 0.36262-0.14123 0.36262-0.27291 0-0.0592-0.0248-0.13932-0.12787-0.19658-0.0973-0.0554-0.23857-0.0744-0.32063-0.11451-0.0706-0.0344-0.0859-0.0763-0.0859-0.10688 0-0.0687 0.0859-0.11833 0.18322-0.11833 0.12596 0 0.20994 0.0763 0.24238 0.12024 6e-3 6e-3 4e-3 0.0115 4e-3 0.0172 0 0.0115 8e-3 0.0153 0.0114 0.0153z"/>
      <path d="m192.61 391.51-0.0172 0.23475h-0.20803l-2e-3 0.1126h0.20422c-0.0115 0.14886-0.0172 0.29773-0.0172 0.44468 0 0.0783 0 0.16605 0.0515 0.23857 0.042 0.0573 0.10878 0.0916 0.19848 0.0916 0.10306 0 0.20422-0.0439 0.27865-0.0973l-0.042-0.10878c-0.0744 0.0554-0.14314 0.0802-0.19658 0.0802-0.0649 0-0.13168-0.0363-0.14695-0.14123 0-8e-3 -6e-3 -0.0401-6e-3 -0.16795 0-0.11261 6e-3 -0.22712 0.0172-0.33972h0.28628v-0.11451h-0.28437s0.0134-0.1565 0.0229-0.20612c2e-3 -0.0191 0.0172-0.0305 0.01-0.0515z"/>
      <path d="m193.7 391.72c-0.20803 0-0.40079 0.14887-0.40079 0.46568 0 0.29201 0.18131 0.44659 0.41797 0.44659 0.12596 0 0.23856-0.0458 0.31299-0.1355l-0.0763-0.0744c-0.0553 0.0649-0.13932 0.0992-0.2252 0.0992-0.11642 0-0.28628-0.0649-0.29582-0.32636h0.61836c6e-3 -0.0592 4e-3 -0.11641-6e-3 -0.16604-0.0401-0.23474-0.2023-0.30918-0.34544-0.30918zm-0.26337 0.37026c0.0286-0.20612 0.16031-0.26529 0.25383-0.26529 0.14123 0 0.24238 0.12406 0.2252 0.26529z"/>
      <path d="m194.65 391.72c-0.20803 0-0.40079 0.14887-0.40079 0.46568 0 0.29201 0.18131 0.44659 0.41796 0.44659 0.12597 0 0.23857-0.0458 0.313-0.1355l-0.0763-0.0744c-0.0554 0.0649-0.13932 0.0992-0.2252 0.0992-0.11642 0-0.28628-0.0649-0.29582-0.32636h0.61835c6e-3 -0.0592 4e-3 -0.11641-6e-3 -0.16604-0.0401-0.23474-0.2023-0.30918-0.34544-0.30918zm-0.26338 0.37026c0.0286-0.20612 0.16032-0.26529 0.25384-0.26529 0.14123 0 0.24238 0.12406 0.2252 0.26529z"/>
      <path d="m195.31 391.74v0.87219h0.13741v-0.42369c0-0.0534 2e-3 -0.11069 0.0611-0.20421 0.0801-0.12596 0.18321-0.14696 0.2462-0.14696 0.0725 0 0.11832 0.0344 0.14313 0.0649 0.0115 0.0153 0.0172 0.0305 0.0325 0.0439l0.0649-0.13169c-0.0553-0.0573-0.13551-0.0954-0.23284-0.0954-0.12787 0-0.25765 0.0649-0.31491 0.18895l6e-3 -0.16795z"/>
      <path d="m196.27 391.74v0.1126h0.20993v0.65081h-0.22138v0.10878h0.56492v-0.10878h-0.20421v-0.76341zm0.28246-0.37789c-0.0553 0-0.0992 0.0439-0.0992 0.0973s0.0439 0.0973 0.0992 0.0973c0.0554 0 0.0992-0.0439 0.0992-0.0973s-0.0439-0.0973-0.0992-0.0973z"/>
      <path d="m197.16 392.61h0.13932v-0.50194c0-0.0573 8e-3 -0.10115 0.0439-0.14886 0.0324-0.0439 0.11642-0.12215 0.20803-0.12215 0.0439 0 0.0878 0.0191 0.11833 0.0553 0.0477 0.0573 0.0477 0.13169 0.0477 0.19276v0.52484h0.1355v-0.52866c0-0.0668 0-0.13932-0.0305-0.20993-0.0439-0.0973-0.1336-0.15269-0.23284-0.15269-0.11833 0-0.22521 0.0763-0.2901 0.17368v-0.15268h-0.13932z"/>
      <path d="m198.22 392.01c0-0.10497 0.0878-0.19085 0.19276-0.19085 0.10688 0 0.19276 0.0859 0.19276 0.19085 0 0.10497-0.0859 0.19085-0.19276 0.19085-0.10687 0-0.19276-0.0859-0.19276-0.19085zm0.2004-0.29964c-0.17368 0-0.32445 0.13741-0.32445 0.30727 0 0.0954 0.0477 0.18513 0.12787 0.23666-0.063 0.0534-0.0992 0.1126-0.0992 0.16795 0 0.0363 0.0153 0.0878 0.0706 0.11642-0.0935 0.0592-0.14123 0.12405-0.14123 0.19276 0 0.0954 0.0878 0.20802 0.39316 0.20802 0.29582 0 0.40269-0.15077 0.40269-0.26719 0-0.0763-0.0439-0.15268-0.1355-0.18894-0.0916-0.0382-0.19658-0.0248-0.29582-0.0248-0.0649 0-0.10688-6e-3 -0.12405-0.0115-0.0344-0.01-0.0534-0.0305-0.0534-0.0573 0-0.0458 0.0534-0.0897 0.063-0.0973 0.0343 0.0134 0.0725 0.0191 0.11069 0.0191 0.17177 0 0.313-0.13741 0.313-0.29773 0-0.0534-0.0153-0.10496-0.0439-0.14886 0.0458-0.0267 0.0993-0.042 0.15268-0.042 0.0172 0 0.0325 2e-3 0.0496 6e-3l-0.0153-0.1126c-0.0878-8e-3 -0.17559 0.021-0.24238 0.0763-0.0553-0.0534-0.12787-0.0821-0.20803-0.0821zm-0.13169 0.85311c0.0325 4e-3 0.0782 8e-3 0.14505 0.0115 0.0649 2e-3 0.1355-4e-3 0.18512 4e-3 0.0802 0.0134 0.10497 0.063 0.10497 0.10116 0 0.0382-0.0229 0.084-0.0821 0.11642-0.0649 0.0343-0.13742 0.0382-0.19658 0.0382-0.0401 0-0.11451-2e-3 -0.1794-0.0286-0.0706-0.0286-0.0859-0.0763-0.0859-0.10688 0-0.063 0.0592-0.10878 0.10878-0.1355z"/>
      <path d="m200.54 391.34c-0.12214 0-0.23665 0.0515-0.29772 0.15077-0.0458 0.0725-0.0477 0.14505-0.0477 0.2233v0.0859h-0.19085v0.10878h0.19085v0.70997h0.13169v-0.70997h0.28437v-0.10878h-0.28437v-0.0687c0-0.063-2e-3 -0.12978 0.0305-0.18703 0.0363-0.0649 0.10497-0.0973 0.17558-0.0973 0.084 0 0.15459 0.0439 0.19085 0.0992 6e-3 0.01 6e-3 0.0153 6e-3 0.0229 0 0.0134 0.01 0.0172 0.0153 0.0172l0.063-0.12787c-0.063-0.0744-0.15841-0.11832-0.2672-0.11832z"/>
      <path d="m201.72 392.18c0-0.30155-0.19085-0.45805-0.38934-0.45805-0.22139 0-0.41224 0.19085-0.41224 0.46186 0 0.26529 0.18894 0.45232 0.40842 0.45232 0.20612 0 0.39316-0.16604 0.39316-0.45613zm-0.39888-0.34163c0.12596 0 0.25956 0.10879 0.25956 0.34735 0 0.21948-0.12597 0.33018-0.25193 0.33018-0.13932 0-0.26528-0.12978-0.26528-0.34545 0-0.21375 0.12405-0.33208 0.25765-0.33208z"/>
      <path d="m201.99 391.74v0.87219h0.13742v-0.42369c0-0.0534 2e-3 -0.11069 0.0611-0.20421 0.0802-0.12596 0.18322-0.14696 0.2462-0.14696 0.0725 0 0.11832 0.0344 0.14313 0.0649 0.0115 0.0153 0.0172 0.0305 0.0325 0.0439l0.0649-0.13169c-0.0553-0.0573-0.13551-0.0954-0.23284-0.0954-0.12787 0-0.25765 0.0649-0.3149 0.18895l6e-3 -0.16795z"/>
      <path d="m203.62 391.89c-0.0687-0.10115-0.18513-0.16223-0.32636-0.16223-0.25574 0-0.43705 0.19276-0.43705 0.45423 0 0.26337 0.18131 0.45804 0.42942 0.45804 0.12024 0 0.23856-0.0496 0.32063-0.13932l-0.0782-0.0916c-0.0592 0.0668-0.14505 0.10497-0.23093 0.10497-0.16986 0-0.29964-0.14123-0.29964-0.34544 0-0.19849 0.12787-0.32254 0.28819-0.32254 0.14886 0 0.21948 0.10306 0.2252 0.11451 8e-3 0.0134-4e-3 0.0324 0.0114 0.0439z"/>
      <path d="m204.2 391.72c-0.20803 0-0.40079 0.14887-0.40079 0.46568 0 0.29201 0.18131 0.44659 0.41797 0.44659 0.12596 0 0.23856-0.0458 0.31299-0.1355l-0.0763-0.0744c-0.0553 0.0649-0.13932 0.0992-0.2252 0.0992-0.11642 0-0.28628-0.0649-0.29582-0.32636h0.61836c6e-3 -0.0592 4e-3 -0.11641-6e-3 -0.16604-0.0401-0.23474-0.2023-0.30918-0.34544-0.30918zm-0.26337 0.37026c0.0286-0.20612 0.16031-0.26529 0.25383-0.26529 0.14123 0 0.24238 0.12406 0.2252 0.26529z"/>
     </g>
     <g fill="#6fafe9" stroke-width=".28222px" aria-label="distance">
      <path d="m306.42 339.31c-0.042-0.0897-0.13551-0.14886-0.25574-0.14886-0.16605 0-0.36835 0.11832-0.36835 0.4504 0 0.32254 0.1794 0.46377 0.34735 0.46377 0.1107 0 0.21376-0.063 0.2691-0.16031v0.0763c0 0.021 2e-3 0.042 8e-3 0.063h0.13741c-8e-3 -0.0248-8e-3 -0.0534-8e-3 -0.0802l-2e-3 -1.1336c0-0.0115 0-0.0153 8e-3 -0.0267 4e-3 -6e-3 0.0114-0.0153 0.01-0.0286h-0.14504zm-0.25002-0.0363c0.0763 0 0.18894 0.0401 0.2233 0.16986 0.0114 0.0401 0.0153 0.0878 0.0153 0.18512 0 0.0668-4e-3 0.11451-0.0191 0.16032-0.0324 0.10306-0.12405 0.16413-0.21375 0.16413-0.0992 0-0.2462-0.0763-0.2462-0.36262 0-0.25001 0.13932-0.31681 0.24047-0.31681z"/>
      <path d="m306.87 339.18v0.1126h0.20993v0.65081h-0.22138v0.10878h0.56492v-0.10878h-0.20421v-0.76341zm0.28246-0.37789c-0.0554 0-0.0992 0.0439-0.0992 0.0973s0.0439 0.0973 0.0992 0.0973 0.0992-0.0439 0.0992-0.0973-0.0439-0.0973-0.0992-0.0973z"/>
      <path d="m308.45 339.3c-0.0802-0.0878-0.19658-0.13551-0.32636-0.13551-0.2023 0-0.33399 0.11261-0.33399 0.24239 0 0.15268 0.16414 0.20802 0.21185 0.2252 0.0744 0.0267 0.16986 0.0496 0.23475 0.0802 0.0725 0.0344 0.0859 0.0802 0.0859 0.11069 0 0.0821-0.0992 0.13741-0.2233 0.13741-0.14886 0-0.24429-0.0897-0.27291-0.12023-6e-3 -8e-3 -6e-3 -0.0134-6e-3 -0.021 0-2e-3 2e-3 -0.0134-8e-3 -0.0172l-0.0802 0.1355c0.10306 0.0954 0.23666 0.13932 0.36834 0.13932 0.23857 0 0.36262-0.14123 0.36262-0.27291 0-0.0592-0.0248-0.13933-0.12787-0.19658-0.0973-0.0553-0.23856-0.0744-0.32063-0.11451-0.0706-0.0344-0.0859-0.0763-0.0859-0.10688 0-0.0687 0.0859-0.11833 0.18321-0.11833 0.12597 0 0.20994 0.0763 0.24239 0.12024 6e-3 6e-3 4e-3 0.0114 4e-3 0.0172 0 0.0114 8e-3 0.0153 0.0114 0.0153z"/>
      <path d="m308.94 338.95-0.0172 0.23475h-0.20802l-2e-3 0.1126h0.20421c-0.0114 0.14886-0.0172 0.29773-0.0172 0.44468 0 0.0783 0 0.16604 0.0515 0.23857 0.042 0.0573 0.10879 0.0916 0.19849 0.0916 0.10306 0 0.20421-0.0439 0.27864-0.0973l-0.042-0.10878c-0.0744 0.0553-0.14314 0.0802-0.19657 0.0802-0.0649 0-0.13169-0.0363-0.14696-0.14124 0-8e-3 -6e-3 -0.0401-6e-3 -0.16794 0-0.11261 6e-3 -0.22712 0.0172-0.33972h0.28628v-0.11451h-0.28437s0.0134-0.1565 0.0229-0.20612c2e-3 -0.0191 0.0172-0.0305 0.01-0.0515z"/>
      <path d="m309.7 339.28 0.0668 0.0878c0.0725-0.0744 0.16986-0.0973 0.25193-0.0973 0.10306 0 0.15459 0.0439 0.1794 0.084 0.0286 0.0477 0.0267 0.10497 0.0267 0.15077v0.0305h-0.0267c-0.12978 0-0.2672 0-0.37789 0.0401-0.13741 0.0496-0.19849 0.15268-0.19849 0.24811 0 0.12787 0.1107 0.2481 0.29201 0.2481 0.10687 0 0.21757-0.0401 0.31299-0.11833v0.0954h0.12978v-0.54011c0-0.0706-2e-3 -0.13741-0.042-0.20612-0.0573-0.0935-0.16795-0.14314-0.30346-0.14314-0.11642 0-0.22902 0.0363-0.31109 0.12024zm0.53057 0.36071v0.0592c0 0.0439 0 0.10115-0.0592 0.16413-0.0324 0.0324-0.11451 0.10306-0.22903 0.10306-0.11641 0-0.18321-0.0744-0.18321-0.15077 0-0.0649 0.0439-0.1355 0.15268-0.16222 0.0802-0.0191 0.19658-0.0134 0.28818-0.0134z"/>
      <path d="m310.62 340.05h0.13933v-0.50194c0-0.0572 8e-3 -0.10115 0.0439-0.14886 0.0324-0.0439 0.11642-0.12215 0.20803-0.12215 0.0439 0 0.0878 0.0191 0.11833 0.0554 0.0477 0.0573 0.0477 0.13169 0.0477 0.19276v0.52484h0.1355v-0.52866c0-0.0668 0-0.13932-0.0305-0.20993-0.0439-0.0973-0.1336-0.15269-0.23284-0.15269-0.11833 0-0.22521 0.0763-0.29009 0.17368v-0.15268h-0.13933z"/>
      <path d="m312.31 339.32c-0.0687-0.10115-0.18512-0.16223-0.32635-0.16223-0.25574 0-0.43705 0.19276-0.43705 0.45423 0 0.26337 0.18131 0.45804 0.42941 0.45804 0.12024 0 0.23857-0.0496 0.32063-0.13932l-0.0782-0.0916c-0.0592 0.0668-0.14505 0.10497-0.23093 0.10497-0.16986 0-0.29964-0.14123-0.29964-0.34544 0-0.19849 0.12787-0.32254 0.28818-0.32254 0.14887 0 0.21948 0.10306 0.22521 0.11451 8e-3 0.0134-4e-3 0.0324 0.0114 0.0439z"/>
      <path d="m312.89 339.16c-0.20803 0-0.40079 0.14887-0.40079 0.46568 0 0.292 0.18131 0.44659 0.41796 0.44659 0.12596 0 0.23857-0.0458 0.313-0.1355l-0.0763-0.0744c-0.0554 0.0649-0.13932 0.0992-0.22521 0.0992-0.11642 0-0.28627-0.0649-0.29582-0.32636h0.61836c6e-3 -0.0592 4e-3 -0.11642-6e-3 -0.16604-0.0401-0.23474-0.20231-0.30918-0.34544-0.30918zm-0.26338 0.37026c0.0286-0.20612 0.16032-0.26529 0.25383-0.26529 0.14123 0 0.24238 0.12406 0.22521 0.26529z"/>
     </g>
     <g transform="rotate(-45)" fill="#6fafe9" stroke-width=".28222px" aria-label="jitter">
      <path d="m0.67938 452.79v0.11451h0.32636v0.72333c0 0.0477-0.00191 0.0935-0.022902 0.13932-0.032445 0.0706-0.10115 0.11069-0.17558 0.11069-0.10497 0-0.16222-0.0763-0.16986-0.0878-0.007634-0.0134-0.003817-0.0248-0.017177-0.0344l-0.087792 0.11832c0.062981 0.0783 0.15841 0.12215 0.26528 0.12215 0.12596 0 0.2462-0.0592 0.30536-0.17368 0.03817-0.0744 0.040079-0.14504 0.040079-0.21947v-0.81303zm0.39697-0.37789c-0.055347 0-0.099243 0.0439-0.099243 0.0973s0.043896 0.0973 0.099243 0.0973c0.053438 0 0.097334-0.0439 0.097334-0.0973s-0.043896-0.0973-0.097334-0.0973z"/>
      <path d="m1.5974 452.79v0.1126h0.20994v0.6508h-0.22139v0.10879h0.56492v-0.10879h-0.20421v-0.7634zm0.28246-0.37789c-0.055347 0-0.099243 0.0439-0.099243 0.0973s0.043896 0.0973 0.099243 0.0973 0.099243-0.0439 0.099243-0.0973-0.043896-0.0973-0.099243-0.0973z"/>
      <path d="m2.7081 452.56-0.017177 0.23475h-0.20803l-0.00191 0.1126h0.20421c-0.011451 0.14886-0.017177 0.29773-0.017177 0.44468 0 0.0782 0 0.16604 0.05153 0.23857 0.041987 0.0573 0.10879 0.0916 0.19849 0.0916 0.10306 0 0.20421-0.0439 0.27864-0.0973l-0.041986-0.10881c-0.074432 0.0553-0.14314 0.0802-0.19658 0.0802-0.06489 0-0.13169-0.0363-0.14696-0.14123 0-8e-3 -0.00573-0.0401-0.00573-0.16795 0-0.1126 0.00573-0.22711 0.017177-0.33971h0.28628v-0.11456h-0.28437s0.01336-0.1565 0.022902-0.20612c0.00191-0.0191 0.017177-0.0305 0.00954-0.0515z"/>
      <path d="m3.6624 452.56-0.017177 0.23475h-0.20803l-0.00191 0.1126h0.20421c-0.011451 0.14886-0.017177 0.29773-0.017177 0.44468 0 0.0782 0 0.16604 0.05153 0.23857 0.041987 0.0573 0.10879 0.0916 0.19849 0.0916 0.10306 0 0.20421-0.0439 0.27864-0.0973l-0.041987-0.10878c-0.074432 0.0553-0.14314 0.0802-0.19658 0.0802-0.06489 0-0.13169-0.0363-0.14696-0.14123 0-8e-3 -0.00573-0.0401-0.00573-0.16795 0-0.1126 0.00573-0.22711 0.017177-0.33971h0.28628v-0.11459h-0.28437s0.01336-0.1565 0.022902-0.20612c0.00191-0.0191 0.017177-0.0305 0.00954-0.0515z"/>
      <path d="m4.7502 452.77c-0.20803 0-0.40079 0.14887-0.40079 0.46568 0 0.292 0.18131 0.44659 0.41796 0.44659 0.12596 0 0.23856-0.0458 0.313-0.1355l-0.076341-0.0744c-0.055347 0.0649-0.13932 0.0992-0.2252 0.0992-0.11642 0-0.28628-0.0649-0.29582-0.32636h0.61836c0.00573-0.0592 0.00382-0.11642-0.00573-0.16604-0.040079-0.23474-0.2023-0.30918-0.34544-0.30918zm-0.26338 0.37025c0.028628-0.20611 0.16032-0.26528 0.25383-0.26528 0.14123 0 0.24238 0.12405 0.2252 0.26528z"/>
      <path d="m5.401 452.79v0.87219h0.13741v-0.42369c0-0.0534 0.00191-0.1107 0.061072-0.20421 0.080158-0.12597 0.18322-0.14696 0.2462-0.14696 0.072524 0 0.11833 0.0343 0.14314 0.0649 0.011451 0.0153 0.017177 0.0305 0.032445 0.0439l0.064889-0.13169c-0.055347-0.0573-0.1355-0.0954-0.23284-0.0954-0.12787 0-0.25765 0.0649-0.3149 0.18895l0.00573-0.16795z"/>
     </g>
    </g>
    <g transform="matrix(.019795 .71972 .71972 -.019795 105.92 -31.136)">
     <path d="m501.47 274.25-1.2053 3.2778-1.2053-3.2778c0.71162 0.52365 1.6852 0.52064 2.4106 0z" fill="#fff" fill-rule="evenodd" stroke="#d54747" stroke-linejoin="round" stroke-width=".1875"/>
    </g>
    <g transform="matrix(.21895 .68589 .68589 -.21895 17.721 33.505)">
     <path d="m501.47 274.25-1.2053 3.2778-1.2053-3.2778c0.71162 0.52365 1.6852 0.52064 2.4106 0z" fill="#fff" fill-rule="evenodd" stroke="#d54747" stroke-linejoin="round" stroke-width=".1875"/>
    </g>
    <g transform="matrix(.15802 .49501 .49501 -.15802 108.69 110.78)">
     <path d="m501.47 274.25-1.2053 3.2778-1.2053-3.2778c0.71162 0.52365 1.6852 0.52064 2.4106 0z" fill="#fff" fill-rule="evenodd" stroke="#d54747" stroke-linejoin="round" stroke-width=".1875"/>
    </g>
    <g transform="matrix(-.48892 -.17598 -.17598 .48892 612.3 272.82)">
     <path d="m501.47 274.25-1.2053 3.2778-1.2053-3.2778c0.71162 0.52365 1.6852 0.52064 2.4106 0z" fill="#fff" fill-rule="evenodd" stroke="#d54747" stroke-linejoin="round" stroke-width=".1875"/>
    </g>
    <path d="m292.03 336.58v1.3229h35.719v-1.3229" fill="none" stroke="#d54747" stroke-width=".26458px"/>
   </g>
  </g>
 </g>
</svg>
