<svg width="36.033mm" height="17.682mm" version="1.1" viewBox="0 0 36.033 17.682" xmlns="http://www.w3.org/2000/svg">
 <g transform="translate(-259.46 -235.24)">
  <g fill="#e9e56f" aria-label="overlap">
   <g fill="#e9e56f" aria-label="Double Precision 64b">
    <path d="m260.6 244.08c0 4.2524 14.502 7.6996 22.202 7.6996 6.7372 0 11.549-3.4472 11.549-7.6996s-4.8123-7.6997-11.549-7.6997c-7.6997 0-22.202 3.4473-22.202 7.6997z" fill="#0d1c3b" fill-opacity=".38431" stroke="#6f97e9" stroke-width=".28222"/>
    <path transform="matrix(.24669 .00076043 -.00044463 .14424 269.29 185.73)" d="m73.143 404.25-20.354 11.751v-23.503z" fill="#3b390d" fill-opacity=".38431" stroke="#e9e56f" stroke-width=".7013"/>
    <g fill="none" stroke="#d54747" stroke-width=".28222">
     <path d="m261.79 244.07h30.848"/>
     <path d="m283.83 244.02-0.023 6.8478"/>
     <path d="m283.81 244.19-2e-3 -6.8479"/>
    </g>
    <circle cx="283.84" cy="244.05" r=".45204" fill="#d54747"/>
    <g fill="#e9e56f" stroke-width=".28222px">
     <g transform="rotate(-90)" aria-label="steering">
      <path d="m-242.2 281.37c-0.0627-0.0686-0.15368-0.10593-0.25514-0.10593-0.15816 0-0.26111 0.088-0.26111 0.18949 0 0.11936 0.12832 0.16263 0.16562 0.17606 0.0582 0.0209 0.13279 0.0388 0.18352 0.0627 0.0567 0.0269 0.0671 0.0627 0.0671 0.0865 0 0.0642-0.0776 0.10743-0.17457 0.10743-0.11637 0-0.19098-0.0701-0.21336-0.094-4e-3 -6e-3 -4e-3 -0.0104-4e-3 -0.0164 0-1e-3 1e-3 -0.0104-6e-3 -0.0134l-0.0627 0.10594c0.0806 0.0746 0.18502 0.10891 0.28797 0.10891 0.1865 0 0.28348-0.11041 0.28348-0.21336 0-0.0462-0.0194-0.10892-0.1-0.15368-0.0761-0.0433-0.18651-0.0582-0.25067-0.0895-0.0552-0.0269-0.0671-0.0597-0.0671-0.0836 0-0.0537 0.0671-0.0925 0.14324-0.0925 0.0985 0 0.16412 0.0597 0.18949 0.094 4e-3 4e-3 3e-3 9e-3 3e-3 0.0134 0 9e-3 6e-3 0.0119 9e-3 0.0119z"/>
      <path d="m-241.81 281.09-0.0134 0.18352h-0.16263l-1e-3 0.088h0.15965c-9e-3 0.11638-0.0134 0.23276-0.0134 0.34765 0 0.0612 0 0.1298 0.0403 0.1865 0.0328 0.0448 0.085 0.0716 0.15517 0.0716 0.0806 0 0.15965-0.0343 0.21784-0.0761l-0.0328-0.0851c-0.0582 0.0433-0.1119 0.0627-0.15368 0.0627-0.0507 0-0.10295-0.0283-0.11489-0.11042 0-6e-3 -4e-3 -0.0313-4e-3 -0.1313 0-0.088 4e-3 -0.17755 0.0134-0.26558h0.2238v-0.0895h-0.22231s0.0104-0.12235 0.0179-0.16114c1e-3 -0.0149 0.0134-0.0239 7e-3 -0.0403z"/>
      <path d="m-240.96 281.26c-0.16264 0-0.31333 0.11638-0.31333 0.36406 0 0.22828 0.14174 0.34913 0.32676 0.34913 0.0985 0 0.1865-0.0358 0.24469-0.10593l-0.0597-0.0582c-0.0433 0.0507-0.10892 0.0776-0.17606 0.0776-0.091 0-0.22381-0.0507-0.23127-0.25514h0.48342c4e-3 -0.0463 3e-3 -0.091-4e-3 -0.12981-0.0313-0.18352-0.15816-0.24171-0.27006-0.24171zm-0.2059 0.28945c0.0224-0.16114 0.12533-0.20739 0.19844-0.20739 0.11041 0 0.18949 0.097 0.17606 0.20739z"/>
      <path d="m-240.22 281.26c-0.16263 0-0.31333 0.11638-0.31333 0.36406 0 0.22828 0.14174 0.34913 0.32676 0.34913 0.0985 0 0.1865-0.0358 0.24469-0.10593l-0.0597-0.0582c-0.0433 0.0507-0.10892 0.0776-0.17606 0.0776-0.091 0-0.22381-0.0507-0.23127-0.25514h0.48342c4e-3 -0.0463 3e-3 -0.091-4e-3 -0.12981-0.0313-0.18352-0.15816-0.24171-0.27006-0.24171zm-0.2059 0.28945c0.0224-0.16114 0.12533-0.20739 0.19844-0.20739 0.11041 0 0.18949 0.097 0.17606 0.20739z"/>
      <path d="m-239.71 281.28v0.68186h0.10743v-0.33123c0-0.0418 1e-3 -0.0865 0.0478-0.15965 0.0627-0.0985 0.14323-0.11489 0.19247-0.11489 0.0567 0 0.0925 0.0269 0.1119 0.0507 9e-3 0.0119 0.0134 0.0239 0.0254 0.0343l0.0507-0.10295c-0.0433-0.0448-0.10594-0.0746-0.18203-0.0746-0.1 0-0.20143 0.0507-0.24619 0.14771l4e-3 -0.1313z"/>
      <path d="m-238.95 281.28v0.088h0.16412v0.50879h-0.17307v0.085h0.44164v-0.085h-0.15965v-0.59682zm0.22082-0.29543c-0.0433 0-0.0776 0.0343-0.0776 0.0761s0.0343 0.0761 0.0776 0.0761 0.0776-0.0343 0.0776-0.0761-0.0343-0.0761-0.0776-0.0761z"/>
      <path d="m-238.26 281.96h0.10892v-0.39241c0-0.0448 6e-3 -0.0791 0.0343-0.11637 0.0254-0.0343 0.091-0.0955 0.16263-0.0955 0.0343 0 0.0686 0.0149 0.0925 0.0433 0.0373 0.0448 0.0373 0.10296 0.0373 0.1507v0.41031h0.10593v-0.41329c0-0.0522 0-0.10892-0.0239-0.16413-0.0343-0.0761-0.10444-0.11936-0.18203-0.11936-0.0925 0-0.17606 0.0597-0.22679 0.13577v-0.11936h-0.10892z"/>
      <path d="m-237.43 281.49c0-0.0821 0.0686-0.1492 0.1507-0.1492 0.0836 0 0.15069 0.0671 0.15069 0.1492s-0.0671 0.1492-0.15069 0.1492c-0.0836 0-0.1507-0.0671-0.1507-0.1492zm0.15666-0.23425c-0.13577 0-0.25364 0.10743-0.25364 0.24022 0 0.0746 0.0373 0.14473 0.1 0.18501-0.0492 0.0418-0.0776 0.088-0.0776 0.1313 0 0.0283 0.0119 0.0686 0.0552 0.091-0.0731 0.0462-0.11041 0.097-0.11041 0.15069 0 0.0746 0.0686 0.16264 0.30736 0.16264 0.23127 0 0.31482-0.11788 0.31482-0.20889 0-0.0597-0.0343-0.11936-0.10593-0.14771-0.0716-0.0298-0.15368-0.0194-0.23127-0.0194-0.0507 0-0.0836-4e-3 -0.097-9e-3 -0.0269-7e-3 -0.0418-0.0239-0.0418-0.0448 0-0.0358 0.0418-0.0701 0.0492-0.0761 0.0269 0.0104 0.0567 0.0149 0.0865 0.0149 0.13428 0 0.24469-0.10742 0.24469-0.23276 0-0.0418-0.0119-0.0821-0.0343-0.11637 0.0358-0.0209 0.0776-0.0328 0.11936-0.0328 0.0134 0 0.0254 1e-3 0.0388 4e-3l-0.0119-0.088c-0.0686-6e-3 -0.13727 0.0164-0.18949 0.0597-0.0433-0.0418-0.1-0.0642-0.16264-0.0642zm-0.10295 0.66694c0.0254 3e-3 0.0612 6e-3 0.1134 9e-3 0.0507 1e-3 0.10593-3e-3 0.14473 3e-3 0.0627 0.0104 0.0821 0.0492 0.0821 0.0791 0 0.0298-0.0179 0.0657-0.0642 0.091-0.0507 0.0269-0.10743 0.0298-0.15368 0.0298-0.0313 0-0.0895-1e-3 -0.14025-0.0224-0.0552-0.0224-0.0671-0.0597-0.0671-0.0835 0-0.0492 0.0462-0.0851 0.085-0.10594z"/>
     </g>
     <g aria-label="braking">
      <path d="m271.44 242.31v0.99221h0.0701l0.0373-0.0895c0.0448 0.0671 0.11936 0.10742 0.20143 0.10742 0.14025 0 0.28498-0.11936 0.28498-0.36704 0-0.23723-0.14026-0.34764-0.27454-0.34764-0.0865 0-0.16711 0.0462-0.21038 0.12085v-0.38196c0-9e-3 1e-3 -0.0119 9e-3 -0.0179 3e-3 -1e-3 0.0104-7e-3 9e-3 -0.0164zm0.282 0.38793c0.0642 0 0.19993 0.0373 0.19993 0.27901 0 0.2074-0.13428 0.24619-0.20142 0.24619-0.0463 0-0.14921-0.0179-0.16711-0.1492-4e-3 -0.0343-4e-3 -0.0746-4e-3 -0.13429 0-0.0612 3e-3 -0.10593 0.0179-0.14323 0.0254-0.0612 0.088-0.0985 0.15517-0.0985z"/>
      <path d="m272.24 242.62v0.68186h0.10742v-0.33123c0-0.0418 1e-3 -0.0865 0.0478-0.15965 0.0627-0.0985 0.14323-0.11489 0.19247-0.11489 0.0567 0 0.0925 0.0269 0.1119 0.0507 9e-3 0.0119 0.0134 0.0239 0.0254 0.0343l0.0507-0.10295c-0.0433-0.0448-0.10594-0.0746-0.18203-0.0746-0.1 0-0.20143 0.0507-0.24619 0.14771l4e-3 -0.1313z"/>
      <path d="m272.97 242.7 0.0522 0.0686c0.0567-0.0582 0.13279-0.0761 0.19695-0.0761 0.0806 0 0.12085 0.0343 0.14025 0.0657 0.0224 0.0373 0.0209 0.0821 0.0209 0.11787v0.0239h-0.0209c-0.10146 0-0.20888 0-0.29542 0.0313-0.10743 0.0388-0.15518 0.11937-0.15518 0.19397 0 0.1 0.0865 0.19396 0.22829 0.19396 0.0836 0 0.17009-0.0313 0.24469-0.0925v0.0746h0.10146v-0.42225c0-0.0552-1e-3 -0.10742-0.0328-0.16114-0.0448-0.0731-0.1313-0.1119-0.23724-0.1119-0.091 0-0.17904 0.0284-0.2432 0.094zm0.41479 0.28199v0.0463c0 0.0343 0 0.0791-0.0463 0.12831-0.0254 0.0254-0.0895 0.0806-0.17904 0.0806-0.091 0-0.14324-0.0582-0.14324-0.11787 0-0.0507 0.0343-0.10593 0.11936-0.12682 0.0627-0.0149 0.15369-0.0105 0.2253-0.0105z"/>
      <path d="m273.68 242.31v0.99221h0.10743v-0.25812l0.091-0.0836 0.27752 0.34765s0.0582-6e-3 0.12832-6e-3h0.0104l-0.33422-0.40733 0.28797-0.27005h-0.0388c-0.0269 0-0.0537-2e-3 -0.0806-9e-3l-0.34167 0.31781v-0.58488c0-6e-3 1e-3 -0.0104 6e-3 -0.0179 4e-3 -4e-3 0.0104-0.0104 9e-3 -0.0209z"/>
      <path d="m274.49 242.62v0.088h0.16413v0.50878h-0.17308v0.085h0.44165v-0.085h-0.15965v-0.59681zm0.22083-0.29543c-0.0433 0-0.0776 0.0343-0.0776 0.0761s0.0343 0.0761 0.0776 0.0761 0.0776-0.0343 0.0776-0.0761-0.0343-0.0761-0.0776-0.0761z"/>
      <path d="m275.18 243.3h0.10892v-0.39241c0-0.0448 6e-3 -0.0791 0.0343-0.11638 0.0254-0.0343 0.091-0.0955 0.16264-0.0955 0.0343 0 0.0686 0.0149 0.0925 0.0433 0.0373 0.0448 0.0373 0.10295 0.0373 0.1507v0.41031h0.10594v-0.4133c0-0.0522 0-0.10891-0.0239-0.16412-0.0343-0.0761-0.10445-0.11936-0.18203-0.11936-0.0925 0-0.17607 0.0597-0.22679 0.13577v-0.11936h-0.10892z"/>
      <path d="m276.01 242.83c0-0.0821 0.0686-0.14921 0.1507-0.14921 0.0835 0 0.1507 0.0671 0.1507 0.14921 0 0.0821-0.0672 0.1492-0.1507 0.1492-0.0836 0-0.1507-0.0671-0.1507-0.1492zm0.15667-0.23425c-0.13578 0-0.25365 0.10743-0.25365 0.24022 0 0.0746 0.0373 0.14473 0.1 0.18501-0.0492 0.0418-0.0776 0.088-0.0776 0.1313 0 0.0284 0.0119 0.0686 0.0552 0.091-0.0731 0.0463-0.11041 0.097-0.11041 0.1507 0 0.0746 0.0686 0.16263 0.30736 0.16263 0.23126 0 0.31482-0.11787 0.31482-0.20888 0-0.0597-0.0343-0.11937-0.10594-0.14771-0.0716-0.0299-0.15368-0.0194-0.23126-0.0194-0.0507 0-0.0836-4e-3 -0.097-9e-3 -0.0269-7e-3 -0.0418-0.0239-0.0418-0.0448 0-0.0358 0.0418-0.0701 0.0492-0.0761 0.0269 0.0105 0.0567 0.0149 0.0865 0.0149 0.13429 0 0.2447-0.10743 0.2447-0.23276 0-0.0418-0.0119-0.0821-0.0343-0.11638 0.0358-0.0209 0.0776-0.0328 0.11936-0.0328 0.0134 0 0.0254 1e-3 0.0388 4e-3l-0.0119-0.088c-0.0686-6e-3 -0.13727 0.0164-0.18949 0.0597-0.0433-0.0418-0.1-0.0642-0.16263-0.0642zm-0.10295 0.66694c0.0254 3e-3 0.0612 6e-3 0.11339 9e-3 0.0507 2e-3 0.10594-3e-3 0.14473 3e-3 0.0627 0.0104 0.0821 0.0492 0.0821 0.0791 0 0.0298-0.0179 0.0657-0.0641 0.091-0.0507 0.0269-0.10743 0.0298-0.15369 0.0298-0.0313 0-0.0895-1e-3 -0.14025-0.0224-0.0552-0.0224-0.0671-0.0597-0.0671-0.0836 0-0.0492 0.0463-0.085 0.0851-0.10594z"/>
     </g>
     <g aria-label="thrust">
      <path d="m286.59 242.44-0.0134 0.18352h-0.16263l-1e-3 0.088h0.15965c-9e-3 0.11638-0.0134 0.23276-0.0134 0.34765 0 0.0612 0 0.1298 0.0403 0.1865 0.0328 0.0448 0.0851 0.0716 0.15517 0.0716 0.0806 0 0.15965-0.0343 0.21784-0.0761l-0.0328-0.085c-0.0582 0.0433-0.11191 0.0627-0.15368 0.0627-0.0507 0-0.10295-0.0283-0.11489-0.11041 0-6e-3 -4e-3 -0.0313-4e-3 -0.1313 0-0.088 4e-3 -0.17755 0.0134-0.26558h0.22381v-0.0895h-0.22232s0.0104-0.12235 0.0179-0.16114c1e-3 -0.0149 0.0134-0.0239 7e-3 -0.0403z"/>
      <path d="m287.15 243.3h0.11041v-0.39241c0-0.0448 4e-3 -0.0791 0.0328-0.11638 0.0269-0.0343 0.0925-0.0955 0.16413-0.0955 0.0343 0 0.0686 0.0149 0.0925 0.0433 0.0373 0.0448 0.0373 0.10295 0.0373 0.1507v0.41031h0.10593v-0.4133c0-0.0522-1e-3 -0.10891-0.0254-0.16412-0.0343-0.0761-0.10295-0.11936-0.18054-0.11936-0.0925 0-0.17755 0.0597-0.22679 0.13577v-0.39539c0-4e-3 0-9e-3 4e-3 -0.0134 4e-3 -4e-3 0.0104-9e-3 0.0104-0.0164 0-1e-3 0-3e-3 -1e-3 -4e-3h-0.12384z"/>
      <path d="m287.95 242.62v0.68186h0.10743v-0.33123c0-0.0418 1e-3 -0.0865 0.0477-0.15965 0.0627-0.0985 0.14324-0.11489 0.19248-0.11489 0.0567 0 0.0925 0.0269 0.1119 0.0507 9e-3 0.0119 0.0134 0.0239 0.0254 0.0343l0.0507-0.10295c-0.0433-0.0448-0.10593-0.0746-0.18203-0.0746-0.1 0-0.20142 0.0507-0.24618 0.14771l4e-3 -0.1313z"/>
      <path d="m288.64 242.62v0.38047c0 0.0582 0 0.11787 0.0268 0.17904 0.0388 0.0895 0.12235 0.13876 0.21187 0.13876 0.085 0 0.16562-0.0462 0.21038-0.12085l-1e-3 0.0507c0 0.0179 0 0.0358 3e-3 0.0522h0.1134c-7e-3 -0.0194-9e-3 -0.0418-9e-3 -0.0612v-0.6192h-0.10743v0.3745c0 0.0522-4e-3 0.0925-0.0269 0.13429-0.0313 0.0582-0.0925 0.10145-0.15815 0.10145-0.0522 0-0.10296-0.0298-0.12981-0.0836-0.0239-0.0478-0.0239-0.10146-0.0239-0.14622v-0.38047z"/>
      <path d="m289.93 242.71c-0.0627-0.0686-0.15368-0.10593-0.25514-0.10593-0.15815 0-0.2611 0.088-0.2611 0.18949 0 0.11936 0.12831 0.16263 0.16561 0.17606 0.0582 0.0209 0.13279 0.0388 0.18352 0.0627 0.0567 0.0269 0.0672 0.0627 0.0672 0.0865 0 0.0642-0.0776 0.10743-0.17457 0.10743-0.11638 0-0.19098-0.0701-0.21337-0.094-4e-3 -6e-3 -4e-3 -0.0104-4e-3 -0.0164 0-2e-3 1e-3 -0.0105-6e-3 -0.0134l-0.0627 0.10593c0.0806 0.0746 0.18502 0.10892 0.28797 0.10892 0.1865 0 0.28349-0.11041 0.28349-0.21336 0-0.0463-0.0194-0.10892-0.1-0.15368-0.0761-0.0433-0.18651-0.0582-0.25066-0.0895-0.0552-0.0269-0.0671-0.0597-0.0671-0.0836 0-0.0537 0.0671-0.0925 0.14324-0.0925 0.0985 0 0.16413 0.0597 0.18949 0.094 4e-3 4e-3 3e-3 9e-3 3e-3 0.0134 0 9e-3 6e-3 0.0119 9e-3 0.0119z"/>
      <path d="m290.32 242.44-0.0134 0.18352h-0.16264l-1e-3 0.088h0.15965c-9e-3 0.11638-0.0134 0.23276-0.0134 0.34765 0 0.0612 0 0.1298 0.0403 0.1865 0.0328 0.0448 0.085 0.0716 0.15517 0.0716 0.0806 0 0.15965-0.0343 0.21784-0.0761l-0.0328-0.085c-0.0582 0.0433-0.1119 0.0627-0.15368 0.0627-0.0507 0-0.10295-0.0283-0.11488-0.11041 0-6e-3 -4e-3 -0.0313-4e-3 -0.1313 0-0.088 4e-3 -0.17755 0.0134-0.26558h0.2238v-0.0895h-0.22231s0.0104-0.12235 0.0179-0.16114c1e-3 -0.0149 0.0134-0.0239 7e-3 -0.0403z"/>
     </g>
    </g>
    <g transform="matrix(-.0020383 .71999 .71999 .0020383 95.286 -116.67)">
     <path d="m501.47 274.25-1.2053 3.2778-1.2053-3.2778c0.71162 0.52365 1.6852 0.52064 2.4106 0z" fill="#fff" fill-rule="evenodd" stroke="#d54747" stroke-linejoin="round" stroke-width=".1875"/>
    </g>
    <g transform="matrix(.0020383 .71999 -.71999 .0020383 459.71 -116.67)">
     <path d="m501.47 274.25-1.2053 3.2778-1.2053-3.2778c0.71162 0.52365 1.6852 0.52064 2.4106 0z" fill="#fff" fill-rule="evenodd" stroke="#d54747" stroke-linejoin="round" stroke-width=".1875"/>
    </g>
    <g transform="matrix(-.71999 .0020383 -.0020383 -.71999 644.56 435.55)">
     <path d="m501.47 274.25-1.2053 3.2778-1.2053-3.2778c0.71162 0.52365 1.6852 0.52064 2.4106 0z" fill="#fff" fill-rule="evenodd" stroke="#d54747" stroke-linejoin="round" stroke-width=".1875"/>
    </g>
    <g transform="matrix(-.71999 -.0020383 -.0020383 .71999 644.56 52.636)">
     <path d="m501.47 274.25-1.2053 3.2778-1.2053-3.2778c0.71162 0.52365 1.6852 0.52064 2.4106 0z" fill="#fff" fill-rule="evenodd" stroke="#d54747" stroke-linejoin="round" stroke-width=".1875"/>
    </g>
   </g>
  </g>
 </g>
</svg>
