<svg width="62.367mm" height="58.68mm" version="1.1" viewBox="0 0 62.367 58.68" xmlns="http://www.w3.org/2000/svg">
 <g transform="translate(-289.59 -313.74)">
  <g fill="#e9e56f" aria-label="overlap">
   <g fill="#e9e56f" aria-label="Double Precision 64b">
    <g transform="rotate(-16.619)" fill="#e9e56f" aria-label="steering force">
     <g>
      <path transform="matrix(.11302 .21928 -.12822 .066085 235.13 348.34)" d="m73.143 404.25-20.354 11.751v-23.503z" fill="#3b390d" fill-opacity=".38431" stroke="#e9e56f" stroke-width=".7013"/>
      <path d="m191.73 391.53s5.3556 10.866 8.514 12.56c4.0522 2.1731 9.3459 1.7818 13.782 0.57334 2.6175-0.71296 4.207-5.0816 6.8368-4.4154 3.8986 0.98754 2.206 8.7703 5.7969 10.581 4.1733 2.1048 13.894-1.8926 13.894-1.8926" fill="none" stroke="#e9e56f" stroke-dasharray="1.12888896, 0.28222224" stroke-width=".28222"/>
      <path d="m193.93 395.39 6.3156 8.7011 13.782 0.57334 6.8368-4.4154 5.7969 10.581 13.894-1.8926" fill="none" stroke="#d54747" stroke-width=".45156"/>
     </g>
     <g fill="#fff">
      <circle transform="rotate(16.619)" cx="307.4" cy="329.91" r=".70149"/>
      <circle transform="rotate(16.619)" cx="320.88" cy="326.52" r=".70149"/>
      <circle transform="rotate(16.619)" cx="326.17" cy="320.53" r=".70149"/>
      <circle transform="rotate(16.619)" cx="334.6" cy="328.66" r=".70149"/>
      <circle transform="rotate(16.619)" cx="347.25" cy="323.12" r=".70149"/>
     </g>
     <g>
      <g transform="rotate(16.619)" fill="#e9e56f" stroke-width=".28222px" aria-label="radius = 1">
       <path d="m315.12 315.4v1.451h0.2286v-0.70485c0-0.0889 3e-3 -0.18415 0.1016-0.33972 0.13335-0.20955 0.3048-0.24448 0.40958-0.24448 0.12065 0 0.19685 0.0572 0.23812 0.10795 0.019 0.0254 0.0286 0.0508 0.054 0.073l0.10795-0.21908c-0.0921-0.0952-0.22543-0.15875-0.38735-0.15875-0.21273 0-0.42863 0.10795-0.52388 0.31433l0.01-0.2794z"/>
       <path d="m316.68 315.57 0.11112 0.14605c0.12065-0.12382 0.28258-0.16192 0.4191-0.16192 0.17145 0 0.25718 0.073 0.29845 0.1397 0.0476 0.0794 0.0445 0.17462 0.0445 0.25082v0.0508h-0.0445c-0.2159 0-0.4445 0-0.62865 0.0667-0.2286 0.0826-0.3302 0.254-0.3302 0.41275 0 0.21272 0.18415 0.41275 0.48578 0.41275 0.1778 0 0.36195-0.0667 0.5207-0.19685v0.15875h0.2159v-0.89853c0-0.11747-3e-3 -0.2286-0.0698-0.3429-0.0953-0.15557-0.2794-0.23812-0.50483-0.23812-0.19367 0-0.381 0.0603-0.51752 0.20002zm0.88265 0.60008v0.0984c0 0.073 0 0.16828-0.0984 0.27305-0.054 0.054-0.1905 0.17145-0.381 0.17145-0.19367 0-0.3048-0.12382-0.3048-0.25082 0-0.10795 0.073-0.22543 0.254-0.26988 0.13335-0.0318 0.32703-0.0222 0.47943-0.0222z"/>
       <path d="m319.16 315.61c-0.0698-0.14923-0.22542-0.24765-0.42545-0.24765-0.27622 0-0.61277 0.19685-0.61277 0.7493 0 0.53657 0.29845 0.77152 0.57785 0.77152 0.18415 0 0.3556-0.10477 0.44767-0.2667v0.127c0 0.0349 3e-3 0.0699 0.0127 0.10478h0.2286c-0.0127-0.0413-0.0127-0.0889-0.0127-0.13335l-3e-3 -1.886c0-0.019 0-0.0254 0.0127-0.0444 6e-3 -0.01 0.019-0.0254 0.0159-0.0476h-0.2413zm-0.41592-0.0603c0.127 0 0.31432 0.0667 0.37147 0.28258 0.019 0.0667 0.0254 0.14605 0.0254 0.30797 0 0.11113-6e-3 0.1905-0.0317 0.2667-0.054 0.17145-0.20637 0.27305-0.3556 0.27305-0.1651 0-0.40957-0.127-0.40957-0.60325 0-0.41592 0.23177-0.52705 0.40005-0.52705z"/>
       <path d="m319.91 315.4v0.18733h0.34925v1.0827h-0.3683v0.18098h0.9398v-0.18098h-0.33973v-1.27zm0.4699-0.62865c-0.0921 0-0.1651 0.073-0.1651 0.16193 0 0.0889 0.073 0.16192 0.1651 0.16192s0.1651-0.073 0.1651-0.16192c0-0.0889-0.073-0.16193-0.1651-0.16193z"/>
       <path d="m321.35 315.4v0.80962c0 0.12383 0 0.25083 0.0571 0.381 0.0826 0.1905 0.26035 0.29528 0.45085 0.29528 0.18097 0 0.35242-0.0984 0.44767-0.25718l-3e-3 0.10795c0 0.0381 0 0.0762 6e-3 0.11113h0.2413c-0.0159-0.0413-0.019-0.0889-0.019-0.13018v-1.3176h-0.2286v0.79692c0 0.11113-0.01 0.19685-0.0571 0.28575-0.0667 0.12383-0.19685 0.2159-0.33655 0.2159-0.11113 0-0.21908-0.0635-0.27623-0.1778-0.0508-0.1016-0.0508-0.2159-0.0508-0.31115v-0.80962z"/>
       <path d="m324.12 315.59c-0.13335-0.14605-0.32703-0.22543-0.54293-0.22543-0.33655 0-0.55562 0.18733-0.55562 0.40323 0 0.254 0.27305 0.34607 0.35242 0.37465 0.12383 0.0444 0.28258 0.0825 0.39053 0.13335 0.12065 0.0572 0.14287 0.13335 0.14287 0.18415 0 0.13652-0.1651 0.2286-0.37147 0.2286-0.24765 0-0.4064-0.14923-0.45403-0.20003-0.01-0.0127-0.01-0.0222-0.01-0.0349 0-3e-3 3e-3 -0.0222-0.0127-0.0286l-0.13335 0.22543c0.17145 0.15875 0.3937 0.23177 0.61277 0.23177 0.39688 0 0.60325-0.23495 0.60325-0.45402 0-0.0984-0.0413-0.23178-0.21272-0.32703-0.16193-0.0921-0.39688-0.12382-0.5334-0.1905-0.11748-0.0572-0.14288-0.127-0.14288-0.1778 0-0.1143 0.14288-0.19685 0.3048-0.19685 0.20955 0 0.34925 0.127 0.40323 0.20003 0.01 0.01 6e-3 0.019 6e-3 0.0286 0 0.019 0.0127 0.0254 0.019 0.0254z"/>
       <path d="m326.06 315.46v0.19367h1.3049v-0.19367zm0 0.65722v0.19368h1.3049v-0.19368z"/>
       <path d="m330.04 314.87h-0.14605l-0.508 0.26353 0.0508 0.12382 0.3937-0.11112v1.5304h-0.3683v0.17462h0.93345v-0.17462h-0.3556z"/>
      </g>
      <g>
       <path transform="matrix(.11302 .21928 -.12822 .066085 230.12 365.1)" d="m73.143 404.25-20.354 11.751v-23.503z" fill="#3b390d" fill-opacity=".38431" stroke="#e9e56f" stroke-width=".7013"/>
       <path d="m186.73 408.3s5.8886 9.2553 9.0469 10.949c4.0522 2.1731 8.3331 1.948 12.77 0.73962 2.6175-0.71299 3.9064-3.1037 6.5504-2.4964 2.56 0.588 1.5845 6.8406 5.1754 8.6516 4.1733 2.1048 14.446-1.3892 14.446-1.3892" fill="none" stroke="#e9e56f" stroke-dasharray="1.12888896, 0.28222224" stroke-width=".28222"/>
       <path d="m188.92 412.16 6.3156 8.7011 13.782 0.57334 6.8368-4.4154 5.7969 10.581 13.894-1.8926" fill="none" stroke="#d54747" stroke-width=".45156"/>
      </g>
     </g>
     <g fill="#fff">
      <circle transform="rotate(16.619)" cx="307.4" cy="347.41" r=".70149"/>
      <circle transform="rotate(16.619)" cx="320.88" cy="344.02" r=".70149"/>
      <circle transform="rotate(16.619)" cx="326.17" cy="338.02" r=".70149"/>
      <circle transform="rotate(16.619)" cx="334.6" cy="346.16" r=".70149"/>
      <circle transform="rotate(16.619)" cx="347.25" cy="340.61" r=".70149"/>
     </g>
     <g transform="rotate(16.619)" fill="#e9e56f" stroke-width=".28222px" aria-label="radius = 10">
      <path d="m313.71 332.9v1.451h0.2286v-0.70485c0-0.0889 3e-3 -0.18415 0.1016-0.33972 0.13335-0.20955 0.3048-0.24448 0.40958-0.24448 0.12065 0 0.19685 0.0572 0.23812 0.10795 0.019 0.0254 0.0286 0.0508 0.054 0.073l0.10795-0.21908c-0.0921-0.0952-0.22543-0.15875-0.38735-0.15875-0.21273 0-0.42863 0.10795-0.52388 0.31433l0.01-0.2794z"/>
      <path d="m315.27 333.07 0.11112 0.14605c0.12065-0.12382 0.28258-0.16192 0.4191-0.16192 0.17145 0 0.25718 0.073 0.29845 0.1397 0.0476 0.0794 0.0444 0.17462 0.0444 0.25082v0.0508h-0.0444c-0.2159 0-0.4445 0-0.62865 0.0667-0.2286 0.0825-0.3302 0.254-0.3302 0.41275 0 0.21272 0.18415 0.41275 0.48578 0.41275 0.1778 0 0.36195-0.0667 0.5207-0.19685v0.15875h0.2159v-0.89853c0-0.11747-3e-3 -0.2286-0.0699-0.3429-0.0952-0.15557-0.2794-0.23812-0.50483-0.23812-0.19367 0-0.381 0.0603-0.51752 0.20002zm0.88265 0.60008v0.0984c0 0.073 0 0.16828-0.0984 0.27305-0.054 0.054-0.1905 0.17145-0.381 0.17145-0.19367 0-0.3048-0.12382-0.3048-0.25082 0-0.10795 0.073-0.22543 0.254-0.26988 0.13335-0.0318 0.32703-0.0222 0.47943-0.0222z"/>
      <path d="m317.75 333.11c-0.0699-0.14923-0.22542-0.24765-0.42545-0.24765-0.27622 0-0.61277 0.19685-0.61277 0.7493 0 0.53657 0.29845 0.77152 0.57785 0.77152 0.18415 0 0.3556-0.10477 0.44767-0.2667v0.127c0 0.0349 3e-3 0.0699 0.0127 0.10478h0.2286c-0.0127-0.0413-0.0127-0.0889-0.0127-0.13335l-3e-3 -1.886c0-0.019 0-0.0254 0.0127-0.0444 6e-3 -0.01 0.0191-0.0254 0.0159-0.0476h-0.2413zm-0.41592-0.0603c0.127 0 0.31432 0.0667 0.37147 0.28258 0.0191 0.0667 0.0254 0.14605 0.0254 0.30797 0 0.11113-6e-3 0.1905-0.0318 0.2667-0.054 0.17145-0.20637 0.27305-0.3556 0.27305-0.1651 0-0.40957-0.127-0.40957-0.60325 0-0.41592 0.23177-0.52705 0.40005-0.52705z"/>
      <path d="m318.5 332.9v0.18733h0.34925v1.0827h-0.3683v0.18098h0.9398v-0.18098h-0.33973v-1.27zm0.4699-0.62865c-0.0921 0-0.1651 0.073-0.1651 0.16193 0 0.0889 0.073 0.16192 0.1651 0.16192s0.1651-0.073 0.1651-0.16192c0-0.0889-0.073-0.16193-0.1651-0.16193z"/>
      <path d="m319.94 332.9v0.80962c0 0.12383 0 0.25083 0.0572 0.381 0.0825 0.1905 0.26035 0.29528 0.45085 0.29528 0.18097 0 0.35242-0.0984 0.44767-0.25718l-3e-3 0.10795c0 0.0381 0 0.0762 6e-3 0.11113h0.2413c-0.0159-0.0413-0.019-0.0889-0.019-0.13018v-1.3176h-0.2286v0.79692c0 0.11113-0.01 0.19685-0.0572 0.28575-0.0667 0.12383-0.19685 0.2159-0.33655 0.2159-0.11113 0-0.21908-0.0635-0.27623-0.1778-0.0508-0.1016-0.0508-0.2159-0.0508-0.31115v-0.80962z"/>
      <path d="m322.71 333.09c-0.13335-0.14605-0.32703-0.22543-0.54293-0.22543-0.33655 0-0.55562 0.18733-0.55562 0.40323 0 0.254 0.27305 0.34607 0.35242 0.37465 0.12383 0.0445 0.28258 0.0826 0.39053 0.13335 0.12065 0.0572 0.14287 0.13335 0.14287 0.18415 0 0.13652-0.1651 0.2286-0.37147 0.2286-0.24765 0-0.4064-0.14923-0.45403-0.20003-0.01-0.0127-0.01-0.0222-0.01-0.0349 0-3e-3 3e-3 -0.0222-0.0127-0.0286l-0.13335 0.22543c0.17145 0.15875 0.3937 0.23177 0.61277 0.23177 0.39688 0 0.60325-0.23495 0.60325-0.45402 0-0.0984-0.0413-0.23178-0.21272-0.32703-0.16193-0.0921-0.39688-0.12382-0.5334-0.1905-0.11748-0.0572-0.14288-0.127-0.14288-0.1778 0-0.1143 0.14288-0.19685 0.3048-0.19685 0.20955 0 0.34925 0.127 0.40323 0.20003 0.01 0.01 6e-3 0.019 6e-3 0.0286 0 0.019 0.0127 0.0254 0.0191 0.0254z"/>
      <path d="m324.65 332.96v0.19367h1.3049v-0.19367zm0 0.65722v0.19368h1.3049v-0.19368z"/>
      <path d="m328.63 332.37h-0.14605l-0.508 0.26353 0.0508 0.12382 0.3937-0.11112v1.5304h-0.3683v0.17462h0.93345v-0.17462h-0.3556z"/>
      <path d="m330.07 332.36c-0.31432 0-0.63817 0.38735-0.63817 1.0192 0 0.64135 0.32702 1.0096 0.64135 1.0096 0.28575 0 0.62547-0.31115 0.62547-0.99378 0-0.6731-0.32385-1.035-0.62865-1.035zm0.30798 0.45403-0.69533 0.9017c-0.0286-0.11113-0.0444-0.23495-0.0444-0.37465 0-0.508 0.23178-0.7874 0.42863-0.7874 0.10795 0 0.22542 0.0857 0.31115 0.26035zm0.073 0.20955c0.0286 0.11112 0.0413 0.24447 0.0413 0.40005 0 0.55245-0.23813 0.762-0.41275 0.762-0.11748 0-0.23813-0.0953-0.32385-0.26988z"/>
     </g>
     <g fill="#fff" fill-opacity=".25234" stroke="#a9a9a9" stroke-width=".16933">
      <circle transform="rotate(16.619)" cx="307.4" cy="347.41" r="2.1479"/>
      <circle transform="rotate(16.619)" cx="320.95" cy="344.02" r="2.1479"/>
      <circle transform="rotate(16.619)" cx="326.2" cy="338.02" r="2.1479"/>
      <circle transform="rotate(16.619)" cx="334.63" cy="346.14" r="2.1479"/>
      <circle transform="rotate(16.619)" cx="347.26" cy="340.53" r="2.1479"/>
     </g>
     <g>
      <path transform="matrix(.11302 .21928 -.12822 .066085 224.31 384.58)" d="m73.143 404.25-20.354 11.751v-23.503z" fill="#3b390d" fill-opacity=".38431" stroke="#e9e56f" stroke-width=".7013"/>
      <path d="m180.91 427.77s3.3972 9.1238 6.5556 10.818c4.0522 2.1731 10.897 1.8912 15.334 0.68278 2.6175-0.71296 5.3278-5.8031 7.9577-5.137 3.8986 0.98755 2.4416 8.2064 6.0325 10.017 4.1732 2.1047 12.853-0.84943 12.853-0.84943" fill="none" stroke="#e9e56f" stroke-dasharray="1.12888896, 0.28222224" stroke-width=".28222"/>
      <path d="m183.11 431.63 6.3156 8.7011 13.782 0.57334 6.8368-4.4154 5.7969 10.581 13.894-1.8926" fill="none" stroke="#d54747" stroke-width=".45156"/>
     </g>
     <g fill="#fff">
      <circle transform="rotate(16.619)" cx="307.4" cy="367.73" r=".70149"/>
      <circle transform="rotate(16.619)" cx="320.88" cy="364.34" r=".70149"/>
      <circle transform="rotate(16.619)" cx="326.17" cy="358.34" r=".70149"/>
      <circle transform="rotate(16.619)" cx="334.6" cy="366.48" r=".70149"/>
      <circle transform="rotate(16.619)" cx="347.25" cy="360.93" r=".70149"/>
     </g>
     <g transform="rotate(16.619)" fill="#e9e56f" stroke-width=".28222px" aria-label="radius = 20">
      <path d="m313.71 352.09v1.451h0.2286v-0.70485c0-0.0889 3e-3 -0.18415 0.1016-0.33972 0.13335-0.20955 0.3048-0.24448 0.40958-0.24448 0.12065 0 0.19685 0.0572 0.23812 0.10795 0.019 0.0254 0.0286 0.0508 0.054 0.073l0.10795-0.21908c-0.0921-0.0953-0.22543-0.15875-0.38735-0.15875-0.21273 0-0.42863 0.10795-0.52388 0.31433l0.01-0.2794z"/>
      <path d="m315.27 352.26 0.11112 0.14605c0.12065-0.12382 0.28258-0.16192 0.4191-0.16192 0.17145 0 0.25718 0.073 0.29845 0.1397 0.0476 0.0794 0.0444 0.17462 0.0444 0.25082v0.0508h-0.0444c-0.2159 0-0.4445 0-0.62865 0.0667-0.2286 0.0825-0.3302 0.254-0.3302 0.41275 0 0.21272 0.18415 0.41275 0.48578 0.41275 0.1778 0 0.36195-0.0667 0.5207-0.19685v0.15875h0.2159v-0.89853c0-0.11747-3e-3 -0.2286-0.0699-0.3429-0.0952-0.15557-0.2794-0.23812-0.50483-0.23812-0.19367 0-0.381 0.0603-0.51752 0.20002zm0.88265 0.60008v0.0984c0 0.073 0 0.16828-0.0984 0.27305-0.054 0.054-0.1905 0.17145-0.381 0.17145-0.19367 0-0.3048-0.12382-0.3048-0.25082 0-0.10795 0.073-0.22543 0.254-0.26988 0.13335-0.0317 0.32703-0.0222 0.47943-0.0222z"/>
      <path d="m317.75 352.3c-0.0699-0.14923-0.22542-0.24765-0.42545-0.24765-0.27622 0-0.61277 0.19685-0.61277 0.7493 0 0.53657 0.29845 0.77152 0.57785 0.77152 0.18415 0 0.3556-0.10477 0.44767-0.2667v0.127c0 0.0349 3e-3 0.0699 0.0127 0.10478h0.2286c-0.0127-0.0413-0.0127-0.0889-0.0127-0.13335l-3e-3 -1.886c0-0.019 0-0.0254 0.0127-0.0445 6e-3 -0.01 0.0191-0.0254 0.0159-0.0476h-0.2413zm-0.41592-0.0603c0.127 0 0.31432 0.0667 0.37147 0.28258 0.0191 0.0667 0.0254 0.14605 0.0254 0.30797 0 0.11113-6e-3 0.1905-0.0318 0.2667-0.054 0.17145-0.20637 0.27305-0.3556 0.27305-0.1651 0-0.40957-0.127-0.40957-0.60325 0-0.41592 0.23177-0.52705 0.40005-0.52705z"/>
      <path d="m318.5 352.09v0.18733h0.34925v1.0827h-0.3683v0.18098h0.9398v-0.18098h-0.33973v-1.27zm0.4699-0.62865c-0.0921 0-0.1651 0.073-0.1651 0.16193 0 0.0889 0.073 0.16192 0.1651 0.16192s0.1651-0.073 0.1651-0.16192c0-0.0889-0.073-0.16193-0.1651-0.16193z"/>
      <path d="m319.94 352.09v0.80962c0 0.12383 0 0.25083 0.0572 0.381 0.0825 0.1905 0.26035 0.29528 0.45085 0.29528 0.18097 0 0.35242-0.0984 0.44767-0.25718l-3e-3 0.10795c0 0.0381 0 0.0762 6e-3 0.11113h0.2413c-0.0159-0.0413-0.019-0.0889-0.019-0.13018v-1.3176h-0.2286v0.79692c0 0.11113-0.01 0.19685-0.0572 0.28575-0.0667 0.12383-0.19685 0.2159-0.33655 0.2159-0.11113 0-0.21908-0.0635-0.27623-0.1778-0.0508-0.1016-0.0508-0.2159-0.0508-0.31115v-0.80962z"/>
      <path d="m322.71 352.28c-0.13335-0.14605-0.32703-0.22543-0.54293-0.22543-0.33655 0-0.55562 0.18733-0.55562 0.40323 0 0.254 0.27305 0.34607 0.35242 0.37465 0.12383 0.0445 0.28258 0.0826 0.39053 0.13335 0.12065 0.0572 0.14287 0.13335 0.14287 0.18415 0 0.13652-0.1651 0.2286-0.37147 0.2286-0.24765 0-0.4064-0.14923-0.45403-0.20003-0.01-0.0127-0.01-0.0222-0.01-0.0349 0-3e-3 3e-3 -0.0222-0.0127-0.0286l-0.13335 0.22543c0.17145 0.15875 0.3937 0.23177 0.61277 0.23177 0.39688 0 0.60325-0.23495 0.60325-0.45402 0-0.0984-0.0413-0.23178-0.21272-0.32703-0.16193-0.0921-0.39688-0.12382-0.5334-0.1905-0.11748-0.0572-0.14288-0.127-0.14288-0.1778 0-0.1143 0.14288-0.19685 0.3048-0.19685 0.20955 0 0.34925 0.127 0.40323 0.20003 0.01 0.01 6e-3 0.019 6e-3 0.0286 0 0.019 0.0127 0.0254 0.0191 0.0254z"/>
      <path d="m324.65 352.15v0.19367h1.3049v-0.19367zm0 0.65722v0.19368h1.3049v-0.19368z"/>
      <path d="m327.93 351.87 0.16193 0.13017c0.019-0.0286 0.01-0.0476 0.0286-0.073 0.0476-0.073 0.1651-0.18098 0.33655-0.18098 0.21273 0 0.381 0.16193 0.381 0.37465 0 0.2413-0.2032 0.41593-0.34607 0.5461-0.22543 0.2032-0.40958 0.4064-0.57468 0.73343v0.1397h1.162v-0.21908c-0.0222-0.01-0.0381 6e-3 -0.0444 0.0127-0.0127 0.0127-0.019 0.0127-0.0317 0.0127h-0.83185c0.1651-0.28575 0.39688-0.4826 0.53975-0.61595 0.14288-0.13652 0.34608-0.33972 0.34608-0.62547 0-0.30798-0.25083-0.55563-0.5715-0.55563-0.22543 0-0.43815 0.12065-0.55563 0.32068z"/>
      <path d="m330.07 351.55c-0.31432 0-0.63817 0.38735-0.63817 1.0192 0 0.64135 0.32702 1.0096 0.64135 1.0096 0.28575 0 0.62547-0.31115 0.62547-0.99378 0-0.6731-0.32385-1.035-0.62865-1.035zm0.30798 0.45403-0.69533 0.9017c-0.0286-0.11113-0.0444-0.23495-0.0444-0.37465 0-0.508 0.23178-0.7874 0.42863-0.7874 0.10795 0 0.22542 0.0857 0.31115 0.26035zm0.073 0.20955c0.0286 0.11112 0.0413 0.24447 0.0413 0.40005 0 0.55245-0.23813 0.762-0.41275 0.762-0.11748 0-0.23813-0.0953-0.32385-0.26988z"/>
     </g>
     <g fill="#fff" fill-opacity=".25234" stroke="#a9a9a9" stroke-width=".16933">
      <circle transform="rotate(16.619)" cx="307.4" cy="367.73" r="3.6073"/>
      <circle transform="rotate(16.619)" cx="320.81" cy="364.34" r="3.6073"/>
      <circle transform="rotate(16.619)" cx="326.1" cy="358.38" r="3.6073"/>
      <circle transform="rotate(16.619)" cx="334.56" cy="366.46" r="3.6073"/>
      <circle transform="rotate(16.619)" cx="347.26" cy="360.81" r="3.6073"/>
     </g>
    </g>
   </g>
  </g>
 </g>
</svg>
