<svg width="51.673mm" height="29.468mm" version="1.1" viewBox="0 0 51.673 29.468" xmlns="http://www.w3.org/2000/svg">
 <g transform="translate(-4.1838 -142.58)">
  <path d="m51.555 146.88v21.652h-44.602z" fill="none" stroke="#d54747" stroke-width=".28222px"/>
  <g fill="#e9e56f">
   <g stroke-width=".28222px" aria-label="ax">
    <path d="m28.987 170.15 0.07543 0.0991c0.0819-0.084 0.19182-0.10991 0.28449-0.10991 0.11638 0 0.17458 0.0496 0.20259 0.0948 0.03233 0.0539 0.03017 0.11854 0.03017 0.17026v0.0345h-0.03017c-0.14656 0-0.30173 0-0.42674 0.0453-0.15518 0.056-0.22414 0.17242-0.22414 0.28019 0 0.1444 0.125 0.28018 0.32975 0.28018 0.12069 0 0.2457-0.0453 0.35346-0.13363v0.10776h0.14656v-0.60993c0-0.0797-0.0022-0.15518-0.04742-0.23276-0.06466-0.10561-0.18966-0.16165-0.34268-0.16165-0.13147 0-0.25863 0.041-0.3513 0.13578zm0.59916 0.40734v0.0668c0 0.0496 0 0.11422-0.06681 0.18535-0.03664 0.0366-0.12932 0.11638-0.25863 0.11638-0.13147 0-0.2069-0.084-0.2069-0.17026 0-0.0733 0.04957-0.15303 0.17242-0.1832 0.09052-0.0215 0.22199-0.0151 0.32544-0.0151z"/>
    <path d="m30.651 170.03-0.2457 0.36424-0.25863-0.36424h-0.16811l0.33837 0.48493-0.34484 0.50001h0.17458l0.25647-0.38147 0.27156 0.38147h0.17673l-0.36208-0.50432 0.31898-0.48062z"/>
   </g>
   <g stroke-width=".28222px" aria-label="ay">
    <path d="m52.976 158.01 0.07543 0.0991c0.0819-0.084 0.19182-0.10992 0.28449-0.10992 0.11638 0 0.17457 0.0496 0.20259 0.0948 0.03233 0.0539 0.03017 0.11854 0.03017 0.17027v0.0345h-0.03017c-0.14656 0-0.30173 0-0.42674 0.0453-0.15518 0.056-0.22414 0.17242-0.22414 0.28018 0 0.1444 0.125 0.28018 0.32975 0.28018 0.12069 0 0.2457-0.0453 0.35346-0.13362v0.10776h0.14656v-0.60993c0-0.0797-0.0022-0.15518-0.04742-0.23277-0.06466-0.10561-0.18966-0.16164-0.34268-0.16164-0.13147 0-0.25863 0.0409-0.3513 0.13578zm0.59916 0.40734v0.0668c0 0.0496 0 0.11423-0.06681 0.18535-0.03664 0.0366-0.12932 0.11639-0.25863 0.11639-0.13147 0-0.2069-0.0841-0.2069-0.17027 0-0.0733 0.04957-0.15302 0.17242-0.18319 0.09052-0.0216 0.22199-0.0151 0.32544-0.0151z"/>
    <path d="m53.956 157.9 0.40088 0.98064-0.03233 0.0711c-0.01724 0.041-0.03664 0.0819-0.06681 0.11423-0.04095 0.0453-0.09267 0.0647-0.13794 0.0647-0.07328 0-0.10992-0.0496-0.11638-0.0582-0.0065-0.0108-0.0043-0.0259-0.01724-0.0366l-0.07974 0.14009c0.05604 0.0539 0.13147 0.0819 0.21337 0.0819 0.08836 0 0.18104-0.0323 0.2457-0.1056 0.04311-0.0496 0.06466-0.1013 0.08621-0.15734l0.30604-0.81252c0.03664-0.0927 0.06897-0.18751 0.09914-0.28449h-0.16164c-0.01724 0.0905-0.04526 0.17673-0.07543 0.26294l-0.18751 0.52803-0.2888-0.72632c-0.0022-6e-3 -0.0022-0.0108-0.0022-0.0172 0-0.0151 0.01078-0.0259 0.0086-0.0453z"/>
   </g>
   <g aria-label="a">
    <path d="m30.944 157.93 0.07543 0.0991c0.0819-0.0841 0.19182-0.10991 0.28449-0.10991 0.11638 0 0.17458 0.0496 0.20259 0.0948 0.03233 0.0539 0.03017 0.11853 0.03017 0.17026v0.0345h-0.03017c-0.14656 0-0.30173 0-0.42674 0.0453-0.15518 0.056-0.22414 0.17242-0.22414 0.28019 0 0.1444 0.125 0.28018 0.32975 0.28018 0.12069 0 0.2457-0.0453 0.35346-0.13363v0.10776h0.14656v-0.60993c0-0.0797-0.0022-0.15518-0.04742-0.23277-0.06466-0.1056-0.18966-0.16164-0.34268-0.16164-0.13147 0-0.25863 0.041-0.3513 0.13578zm0.59916 0.40734v0.0668c0 0.0496 0 0.11423-0.06681 0.18536-0.03664 0.0366-0.12932 0.11638-0.25863 0.11638-0.13147 0-0.2069-0.0841-0.2069-0.17027 0-0.0733 0.04957-0.15302 0.17242-0.18319 0.09052-0.0215 0.22199-0.0151 0.32544-0.0151z" fill="#e9e56f" stroke-width=".28222px"/>
   </g>
  </g>
  <g fill="none" stroke="#d54747">
   <path d="m5.4559 165.54 44.602-21.652" stroke-width=".19756"/>
   <path d="m6.1217 164.29c-0.33452 0.51509-0.80256 1.367-0.80256 1.367l1.464 0.15875" stroke-width=".16933"/>
   <path d="m49.551 145.13c0.29343-0.53958 0.69379-1.4253 0.69379-1.4253l-1.472-0.0444" stroke-width=".16933"/>
  </g>
  <g fill="#e9e56f" stroke-width=".28222px" aria-label="|a|">
   <path d="m25.642 152.17v1.7328h0.1444v-1.7328z"/>
   <path d="m26.448 152.71 0.07543 0.0991c0.0819-0.0841 0.19182-0.10992 0.28449-0.10992 0.11638 0 0.17457 0.0496 0.20259 0.0948 0.03233 0.0539 0.03017 0.11854 0.03017 0.17026v0.0345h-0.03017c-0.14656 0-0.30173 0-0.42674 0.0453-0.15518 0.056-0.22414 0.17242-0.22414 0.28018 0 0.1444 0.125 0.28018 0.32975 0.28018 0.12069 0 0.2457-0.0453 0.35346-0.13362v0.10776h0.14656v-0.60993c0-0.0798-0.0022-0.15518-0.04742-0.23277-0.06466-0.10561-0.18966-0.16164-0.34268-0.16164-0.13147 0-0.25863 0.0409-0.3513 0.13578zm0.59916 0.40734v0.0668c0 0.0496 0 0.11423-0.06681 0.18535-0.03664 0.0366-0.12931 0.11638-0.25863 0.11638-0.13147 0-0.2069-0.084-0.2069-0.17026 0-0.0733 0.04957-0.15302 0.17242-0.1832 0.09052-0.0216 0.22199-0.0151 0.32544-0.0151z"/>
   <path d="m27.797 152.17v1.7328h0.1444v-1.7328z"/>
  </g>
  <g transform="matrix(-.38612 -.73586 .73586 -.38612 40.687 621.96)">
   <path d="m501.47 274.25-1.2053 3.2778-1.2053-3.2778c0.71162 0.52365 1.6852 0.52064 2.4106 0z" fill="#fff" fill-rule="evenodd" stroke="#d54747" stroke-linejoin="round" stroke-width=".1875"/>
  </g>
 </g>
</svg>
