<svg width="46.481mm" height="21.759mm" version="1.1" viewBox="0 0 46.481 21.759" xmlns="http://www.w3.org/2000/svg">
 <g transform="translate(-14.724 -146.2)">
  <path d="m16.041 150.96 14.898 15.818 28.686-17.28z" fill="none" stroke="#d54747" stroke-width=".28222px"/>
  <path d="m30.872 166.73 4.9119-15.686" fill="none" stroke="#d54747" stroke-width=".28222px"/>
  <g fill="#e9e56f">
   <g stroke-width=".28222px" aria-label="-b">
    <path d="m24.893 148.17v0.14225h0.77589v-0.14225z"/>
    <path d="m25.947 147.48v1.4332h0.1013l0.05388-0.12932c0.06466 0.097 0.17242 0.15518 0.29096 0.15518 0.20259 0 0.41165-0.17242 0.41165-0.53019 0-0.34268-0.20259-0.50217-0.39656-0.50217-0.125 0-0.24139 0.0668-0.30389 0.17458v-0.55175c0-0.0129 0.0022-0.0172 0.01293-0.0259 0.0043-2e-3 0.01509-0.0108 0.01293-0.0237zm0.40734 0.56037c0.09267 0 0.2888 0.0539 0.2888 0.40303 0 0.29958-0.19397 0.35561-0.29096 0.35561-0.06681 0-0.21552-0.0259-0.24139-0.21552-0.0065-0.0496-0.0065-0.10776-0.0065-0.19397 0-0.0884 0.0043-0.15303 0.02586-0.20691 0.03664-0.0884 0.12716-0.14224 0.22414-0.14224z"/>
   </g>
   <g aria-label="b">
    <path d="m46.036 147.2v1.4332h0.1013l0.05388-0.12932c0.06466 0.097 0.17242 0.15518 0.29096 0.15518 0.20259 0 0.41165-0.17242 0.41165-0.53019 0-0.34268-0.20259-0.50217-0.39656-0.50217-0.125 0-0.24139 0.0668-0.30389 0.17457v-0.55174c0-0.0129 0.0022-0.0172 0.01293-0.0259 0.0043-2e-3 0.01509-0.0108 0.01293-0.0237zm0.40734 0.56037c0.09268 0 0.2888 0.0539 0.2888 0.40303 0 0.29957-0.19397 0.35561-0.29096 0.35561-0.06681 0-0.21552-0.0259-0.24139-0.21552-0.0065-0.0496-0.0065-0.10777-0.0065-0.19398 0-0.0884 0.0043-0.15302 0.02586-0.2069 0.03664-0.0884 0.12716-0.14224 0.22414-0.14224z" fill="#e9e56f" stroke-width=".28222px"/>
   </g>
   <g aria-label="a">
    <path d="m31.427 157.08 0.07543 0.0991c0.0819-0.084 0.19182-0.10992 0.28449-0.10992 0.11638 0 0.17458 0.0496 0.20259 0.0948 0.03233 0.0539 0.03017 0.11854 0.03017 0.17027v0.0345h-0.03017c-0.14656 0-0.30173 0-0.42674 0.0453-0.15518 0.056-0.22414 0.17242-0.22414 0.28018 0 0.1444 0.125 0.28018 0.32975 0.28018 0.12069 0 0.2457-0.0453 0.35346-0.13362v0.10776h0.14656v-0.60993c0-0.0798-0.0022-0.15518-0.04742-0.23277-0.06466-0.1056-0.18966-0.16164-0.34268-0.16164-0.13147 0-0.25863 0.0409-0.3513 0.13578zm0.59916 0.40734v0.0668c0 0.0496 0 0.11423-0.06681 0.18535-0.03664 0.0366-0.12931 0.11639-0.25863 0.11639-0.13147 0-0.2069-0.0841-0.2069-0.17027 0-0.0733 0.04957-0.15302 0.17242-0.18319 0.09052-0.0216 0.22199-0.0151 0.32544-0.0151z" fill="#e9e56f" stroke-width=".28222px"/>
   </g>
   <g stroke-width=".28222px" aria-label="a+b">
    <path d="m45.539 159.9 0.07543 0.0991c0.0819-0.084 0.19182-0.10992 0.28449-0.10992 0.11638 0 0.17457 0.0496 0.20259 0.0948 0.03233 0.0539 0.03017 0.11854 0.03017 0.17027v0.0345h-0.03017c-0.14656 0-0.30173 0-0.42674 0.0453-0.15518 0.056-0.22414 0.17242-0.22414 0.28018 0 0.1444 0.125 0.28018 0.32975 0.28018 0.12069 0 0.2457-0.0453 0.35346-0.13362v0.10776h0.14656v-0.60993c0-0.0797-0.0022-0.15518-0.04741-0.23277-0.06466-0.1056-0.18966-0.16164-0.34268-0.16164-0.13147 0-0.25863 0.041-0.3513 0.13578zm0.59916 0.40734v0.0668c0 0.0496 0 0.11423-0.06681 0.18535-0.03664 0.0366-0.12932 0.11639-0.25863 0.11639-0.13147 0-0.2069-0.0841-0.2069-0.17027 0-0.0733 0.04957-0.15302 0.17242-0.18319 0.09052-0.0216 0.22199-0.0151 0.32544-0.0151z"/>
    <path d="m46.899 159.64v0.36639h-0.38148v0.13362h0.38148v0.40303h0.13578v-0.40303h0.36855v-0.13362h-0.36855v-0.36639z"/>
    <path d="m47.627 159.33v1.4332h0.1013l0.05388-0.12931c0.06466 0.097 0.17242 0.15517 0.29096 0.15517 0.20259 0 0.41165-0.17241 0.41165-0.53018 0-0.34269-0.20259-0.50218-0.39656-0.50218-0.125 0-0.24139 0.0668-0.30389 0.17458v-0.55174c0-0.0129 0.0022-0.0172 0.01293-0.0259 0.0043-2e-3 0.01509-0.0108 0.01293-0.0237zm0.40734 0.56036c0.09268 0 0.2888 0.0539 0.2888 0.40303 0 0.29958-0.19397 0.35561-0.29096 0.35561-0.06681 0-0.21552-0.0259-0.24139-0.21552-0.0065-0.0496-0.0065-0.10776-0.0065-0.19397 0-0.0884 0.0043-0.15302 0.02586-0.20691 0.03664-0.0884 0.12716-0.14224 0.22414-0.14224z"/>
   </g>
   <g stroke-width=".28222px" aria-label="a-b">
    <path d="m18.727 159.33 0.07543 0.0991c0.0819-0.084 0.19182-0.10991 0.28449-0.10991 0.11638 0 0.17458 0.0496 0.20259 0.0948 0.03233 0.0539 0.03017 0.11853 0.03017 0.17026v0.0345h-0.03017c-0.14656 0-0.30173 0-0.42674 0.0453-0.15518 0.056-0.22414 0.17242-0.22414 0.28019 0 0.1444 0.125 0.28018 0.32975 0.28018 0.12069 0 0.2457-0.0453 0.35346-0.13363v0.10776h0.14656v-0.60993c0-0.0797-0.0022-0.15518-0.04741-0.23277-0.06466-0.1056-0.18966-0.16164-0.34268-0.16164-0.13147 0-0.25863 0.0409-0.3513 0.13578zm0.59916 0.40734v0.0668c0 0.0496 0 0.11423-0.06681 0.18536-0.03664 0.0366-0.12932 0.11638-0.25863 0.11638-0.13147 0-0.2069-0.0841-0.2069-0.17027 0-0.0733 0.04957-0.15302 0.17242-0.18319 0.09052-0.0216 0.22199-0.0151 0.32544-0.0151z"/>
    <path d="m19.762 159.46v0.14224h0.77589v-0.14224z"/>
    <path d="m20.816 158.77v1.4332h0.1013l0.05388-0.12931c0.06466 0.097 0.17242 0.15518 0.29096 0.15518 0.20259 0 0.41165-0.17242 0.41165-0.53019 0-0.34269-0.20259-0.50217-0.39656-0.50217-0.125 0-0.24139 0.0668-0.30389 0.17457v-0.55174c0-0.0129 0.0022-0.0172 0.01293-0.0259 0.0043-2e-3 0.01509-0.0108 0.01293-0.0237zm0.40734 0.56036c0.09267 0 0.2888 0.0539 0.2888 0.40303 0 0.29958-0.19397 0.35562-0.29096 0.35562-0.06681 0-0.21552-0.0259-0.24139-0.21553-0.0065-0.0496-0.0065-0.10776-0.0065-0.19397 0-0.0884 0.0043-0.15302 0.02586-0.2069 0.03664-0.0884 0.12716-0.14225 0.22414-0.14225z"/>
   </g>
  </g>
  <g transform="matrix(-.39603 -.73058 .73058 -.39603 55.494 624.69)">
   <path d="m501.47 274.25-1.2053 3.2778-1.2053-3.2778c0.71162 0.52365 1.6852 0.52064 2.4106 0z" fill="#fff" fill-rule="evenodd" stroke="#d54747" stroke-linejoin="round" stroke-width=".1875"/>
  </g>
  <g transform="matrix(-.80688 -.19881 .19881 -.80688 384.41 473.62)">
   <path d="m501.47 274.25-1.2053 3.2778-1.2053-3.2778c0.71162 0.52365 1.6852 0.52064 2.4106 0z" fill="#fff" fill-rule="evenodd" stroke="#d54747" stroke-linejoin="round" stroke-width=".1875"/>
  </g>
  <g transform="matrix(-.61066 .56363 -.56363 -.61066 477.75 38.283)">
   <path d="m501.47 274.25-1.2053 3.2778-1.2053-3.2778c0.71162 0.52365 1.6852 0.52064 2.4106 0z" fill="#fff" fill-rule="evenodd" stroke="#d54747" stroke-linejoin="round" stroke-width=".1875"/>
  </g>
 </g>
</svg>
