<svg width="170.76mm" height="84.308mm" version="1.1" viewBox="0 0 170.76 84.308" xmlns="http://www.w3.org/2000/svg">
 <g transform="translate(-21.969 -201.19)">
  <g fill="#2f3744" stroke="#535e70" stroke-dashoffset="1.2" stroke-linecap="round" stroke-miterlimit="40">
   <g stroke-width=".13229">
    <path d="m44.013 203.47v81.756"/>
    <path d="m49.305 203.47v81.756"/>
    <path d="m54.596 203.47v81.756"/>
    <path d="m59.888 203.47v81.756"/>
   </g>
   <path d="m65.18 203.47v81.756" stroke-width=".26458"/>
   <g stroke-width=".13229">
    <path d="m70.471 203.47v81.756"/>
    <path d="m75.763 203.47v81.756"/>
    <path d="m81.055 203.47v81.756"/>
    <path d="m86.346 203.47v81.756"/>
   </g>
   <path d="m91.638 203.47v81.756" stroke-width=".26458"/>
   <g stroke-width=".13229">
    <path d="m96.93 203.47v81.756"/>
    <path d="m102.22 203.47v81.756"/>
    <path d="m107.51 203.47v81.756"/>
    <path d="m112.8 203.47v81.756"/>
   </g>
   <path d="m118.1 203.47v81.756" stroke-width=".26458"/>
   <g stroke-width=".13229">
    <path d="m123.39 203.47v81.756"/>
    <path d="m128.68 203.47v81.756"/>
    <path d="m133.97 203.47v81.756"/>
    <path d="m139.26 203.47v81.756"/>
   </g>
   <path d="m144.55 203.47v81.756" stroke-width=".26458"/>
   <g stroke-width=".13229">
    <path d="m149.85 203.47v81.756"/>
    <path d="m155.14 203.47v81.756"/>
    <path d="m160.43 203.47v81.756"/>
    <path d="m165.72 203.47v81.756"/>
    <path d="m35.679 277.43h135.2"/>
    <path d="m35.679 272.13h135.2"/>
    <path d="m35.679 266.84h135.2"/>
    <path d="m35.679 261.55h135.2"/>
   </g>
   <path d="m35.679 256.26h135.2" stroke-width=".26458"/>
   <g stroke-width=".13229">
    <path d="m35.679 250.97h135.2"/>
    <path d="m35.679 245.68h135.2"/>
    <path d="m35.679 240.38h135.2"/>
    <path d="m35.679 235.09h135.2"/>
   </g>
   <path d="m35.679 229.8h135.2" stroke-width=".26458"/>
   <g stroke-width=".13229">
    <path d="m35.679 224.51h135.2"/>
    <path d="m35.679 219.22h135.2"/>
    <path d="m35.679 213.93h135.2"/>
    <path d="m35.679 208.63h135.2"/>
   </g>
   <path d="m38.854 203.34h132.17" stroke-width=".26458"/>
  </g>
  <g stroke-dashoffset="1.2" stroke-linecap="round" stroke-miterlimit="40">
   <path d="m38.721 203.47v81.756" fill="#d2d6dc" stroke="#d2d6dc" stroke-width=".52917"/>
   <path d="m171.01 203.47v81.756" fill="#2f3744" stroke="#535e70" stroke-width=".26458"/>
   <path d="m35.943 282.72h134.94" fill="#d2d6dc" stroke="#d2d6dc" stroke-width=".52917"/>
  </g>
  <g fill="#e8eaec" stroke-linecap="round" stroke-width=".26458">
   <g aria-label="Complexity">
    <path d="m175.29 282.78c0 0.79269 0.45561 1.2594 1.0668 1.2594 0.30744 0 0.54821-0.12964 0.73712-0.35189l-0.17409-0.18892c-0.15558 0.1741-0.32597 0.27041-0.55563 0.27041-0.46302 0-0.75565-0.38524-0.75565-0.99642 0-0.60378 0.30745-0.98161 0.77047-0.98161 0.20003 0 0.3556 0.0889 0.48525 0.22596l0.17409-0.19632c-0.14446-0.15928-0.37412-0.30004-0.66304-0.30004-0.6223 0-1.0853 0.47784-1.0853 1.2594z"/>
    <path d="m177.38 283.1c0 0.59637 0.39264 0.94086 0.83343 0.94086 0.4408 0 0.83344-0.34449 0.83344-0.94086 0-0.60378-0.39264-0.94826-0.83344-0.94826-0.44079 0-0.83343 0.34448-0.83343 0.94826zm0.31485 0c0-0.41486 0.21114-0.69638 0.51858-0.69638 0.31115 0 0.51859 0.28152 0.51859 0.69638 0 0.41117-0.20744 0.68898-0.51859 0.68898-0.30744 0-0.51858-0.27781-0.51858-0.68898z"/>
    <path d="m179.53 284h0.30374v-1.3039c0.16669-0.18521 0.31856-0.27782 0.45191-0.27782 0.22966 0 0.33708 0.14447 0.33708 0.48154v1.1001h0.30374v-1.3039c0.16669-0.18521 0.31115-0.27782 0.45191-0.27782 0.22596 0 0.33338 0.14447 0.33338 0.48154v1.1001h0.30374v-1.1409c0-0.45932-0.1778-0.70379-0.54822-0.70379-0.21854 0-0.40375 0.14076-0.59266 0.34448-0.0741-0.21484-0.22225-0.34448-0.49636-0.34448-0.21484 0-0.40376 0.13335-0.55933 0.30374h-0.0111l-0.0259-0.25929h-0.25189z"/>
    <path d="m182.89 283.83c0.16669 0.12964 0.33337 0.20743 0.50006 0.20743 0.41116 0 0.77788-0.3593 0.77788-0.97049 0-0.55933-0.24818-0.91863-0.7112-0.91863-0.21114 0-0.41117 0.11483-0.57415 0.25188h-0.0111l-0.0259-0.20743h-0.25188v2.5596h0.30374v-0.60749zm7e-3 -0.23707v-0.94456c0.1778-0.15928 0.32967-0.24448 0.48154-0.24448 0.34078 0 0.47413 0.2667 0.47413 0.66305 0 0.4445-0.21854 0.7149-0.51488 0.7149-0.11853 0-0.27781-0.0519-0.44079-0.18891z"/>
    <path d="m184.65 283.63c0 0.263 0.0926 0.40746 0.32226 0.40746 0.0815 0 0.13335-0.0111 0.1741-0.0296l-0.0408-0.22966c-0.0333 7e-3 -0.0481 7e-3 -0.0667 7e-3 -0.0445 0-0.0852-0.037-0.0852-0.13335v-2.2966h-0.30374z"/>
    <path d="m185.46 283.1c0 0.58897 0.38153 0.94086 0.86307 0.94086 0.24447 0 0.43709-0.0852 0.59266-0.18521l-0.10742-0.20002c-0.13335 0.0852-0.27781 0.14076-0.4482 0.14076-0.34449 0-0.57785-0.24448-0.60008-0.63342h1.215c7e-3 -0.0444 0.0111-0.10371 0.0111-0.16668 0-0.51488-0.25929-0.84455-0.71861-0.84455-0.41116 0-0.8075 0.3593-0.8075 0.94826zm0.29633-0.13705c0.037-0.36301 0.2667-0.57044 0.51858-0.57044 0.28152 0 0.4445 0.20373 0.4445 0.57044z"/>
    <path d="m187.15 284h0.31856l0.24447-0.41857c0.0593-0.11112 0.11854-0.21854 0.18151-0.32226h0.0148c0.0667 0.10372 0.13335 0.21484 0.19632 0.32226l0.263 0.41857h0.32967l-0.58526-0.90752 0.54451-0.8927h-0.31855l-0.21855 0.39634c-0.0556 0.0963-0.11112 0.20003-0.16298 0.30004h-0.0148c-0.063-0.10001-0.12224-0.20373-0.1778-0.30004l-0.24077-0.39634h-0.32967l0.54451 0.85936z"/>
    <path d="m189.21 281.83c0.11853 0 0.21114-0.0815 0.21114-0.19632 0-0.11853-0.0926-0.19632-0.21114-0.19632s-0.21114 0.0778-0.21114 0.19632c0 0.11483 0.0926 0.19632 0.21114 0.19632zm-0.15558 2.1706h0.30374v-1.8002h-0.30374z"/>
    <path d="m190.02 283.44c0 0.3556 0.12965 0.60007 0.51488 0.60007 0.11113 0 0.23337-0.0333 0.33338-0.0667l-0.0593-0.22966c-0.0593 0.0222-0.14076 0.0482-0.20373 0.0482-0.20743 0-0.27781-0.12594-0.27781-0.34819v-1.0001h0.48525v-0.24818h-0.48525v-0.50377h-0.25559l-0.037 0.50377-0.28152 0.0185v0.22966h0.2667z"/>
    <path d="m191.09 284.49-0.0593 0.24077c0.0593 0.0222 0.12965 0.037 0.21114 0.037 0.36301 0 0.54822-0.2704 0.67416-0.626l0.67786-1.9484h-0.29633l-0.32226 0.99642c-0.0482 0.15928-0.10002 0.34449-0.15187 0.50747h-0.0148c-0.0556-0.16669-0.11853-0.3519-0.1741-0.50747l-0.36671-0.99642h-0.31485l0.72231 1.8039-0.0407 0.13335c-0.0741 0.22225-0.20373 0.38523-0.40745 0.38523-0.0445 0-0.10002-0.0148-0.13706-0.0259z"/>
   </g>
   <g aria-label="1000">
    <path d="m23.516 273.15h1.3335v-0.25188h-0.48895v-2.1114h-0.23336c-0.12965 0.0778-0.28522 0.13706-0.50006 0.1741v0.19632h0.42968v1.741h-0.54081z"/>
    <path d="m25.983 273.19c0.47043 0 0.75565-0.44079 0.75565-1.2335 0-0.79269-0.28522-1.2187-0.75565-1.2187-0.47413 0-0.75935 0.42598-0.75935 1.2187 0 0.7927 0.28522 1.2335 0.75935 1.2335zm0-0.24447c-0.27781 0-0.46302-0.29634-0.46302-0.98902s0.18521-0.97419 0.46302-0.97419c0.27411 0 0.45932 0.28151 0.45932 0.97419s-0.18521 0.98902-0.45932 0.98902z"/>
    <path d="m27.821 273.19c0.47043 0 0.75565-0.44079 0.75565-1.2335 0-0.79269-0.28522-1.2187-0.75565-1.2187-0.47413 0-0.75935 0.42598-0.75935 1.2187 0 0.7927 0.28522 1.2335 0.75935 1.2335zm0-0.24447c-0.27781 0-0.46302-0.29634-0.46302-0.98902s0.18521-0.97419 0.46302-0.97419c0.27411 0 0.45932 0.28151 0.45932 0.97419s-0.18521 0.98902-0.45932 0.98902z"/>
    <path d="m29.658 273.19c0.47043 0 0.75565-0.44079 0.75565-1.2335 0-0.79269-0.28522-1.2187-0.75565-1.2187-0.47413 0-0.75935 0.42598-0.75935 1.2187 0 0.7927 0.28522 1.2335 0.75935 1.2335zm0-0.24447c-0.27781 0-0.46302-0.29634-0.46302-0.98902s0.18521-0.97419 0.46302-0.97419c0.27411 0 0.45932 0.28151 0.45932 0.97419s-0.18521 0.98902-0.45932 0.98902z"/>
   </g>
   <g aria-label="10k">
    <path d="m25.231 262.57h1.3335v-0.25189h-0.48895v-2.1114h-0.23336c-0.12965 0.0778-0.28522 0.13705-0.50006 0.1741v0.19632h0.42968v1.741h-0.54081z"/>
    <path d="m27.699 262.61c0.47043 0 0.75565-0.4408 0.75565-1.2335s-0.28522-1.2187-0.75565-1.2187c-0.47413 0-0.75935 0.42598-0.75935 1.2187s0.28522 1.2335 0.75935 1.2335zm0-0.24448c-0.27781 0-0.46302-0.29633-0.46302-0.98901s0.18521-0.9742 0.46302-0.9742c0.27411 0 0.45932 0.28152 0.45932 0.9742s-0.18521 0.98901-0.45932 0.98901z"/>
    <path d="m28.918 262.57h0.30004v-0.47414l0.33708-0.39264 0.52599 0.86678h0.33338l-0.68527-1.0779 0.60378-0.72232h-0.33708l-0.76676 0.94827h-0.01111v-1.7854h-0.30004z"/>
   </g>
   <g aria-label="100k">
    <path d="m23.394 251.98h1.3335v-0.25188h-0.48895v-2.1114h-0.23336c-0.12965 0.0778-0.28522 0.13705-0.50006 0.17409v0.19632h0.42968v1.741h-0.54081z"/>
    <path d="m25.861 252.03c0.47043 0 0.75565-0.44079 0.75565-1.2335s-0.28522-1.2187-0.75565-1.2187c-0.47413 0-0.75935 0.42598-0.75935 1.2187s0.28522 1.2335 0.75935 1.2335zm0-0.24447c-0.27781 0-0.46302-0.29633-0.46302-0.98901s0.18521-0.9742 0.46302-0.9742c0.27411 0 0.45932 0.28152 0.45932 0.9742s-0.18521 0.98901-0.45932 0.98901z"/>
    <path d="m27.699 252.03c0.47043 0 0.75565-0.44079 0.75565-1.2335s-0.28522-1.2187-0.75565-1.2187c-0.47413 0-0.75935 0.42598-0.75935 1.2187s0.28522 1.2335 0.75935 1.2335zm0-0.24447c-0.27781 0-0.46302-0.29633-0.46302-0.98901s0.18521-0.9742 0.46302-0.9742c0.27411 0 0.45932 0.28152 0.45932 0.9742s-0.18521 0.98901-0.45932 0.98901z"/>
    <path d="m28.918 251.98h0.30004v-0.47413l0.33708-0.39264 0.52599 0.86677h0.33338l-0.68527-1.0779 0.60378-0.72231h-0.33708l-0.76676 0.94827h-0.01111v-1.7854h-0.30004z"/>
   </g>
   <g aria-label="1M">
    <path d="m26.521 241.4h1.3335v-0.25188h-0.48895v-2.1114h-0.23336c-0.12964 0.0778-0.28522 0.13706-0.50006 0.1741v0.19632h0.42968v1.741h-0.54081z"/>
    <path d="m28.388 241.4h0.28522v-1.3372c0-0.21484-0.02222-0.50377-0.03704-0.71861h0.01482l0.19262 0.54081 0.46672 1.2705h0.1778l0.46672-1.2705 0.19262-0.54081h0.01482c-0.01482 0.21484-0.04075 0.50377-0.04075 0.71861v1.3372h0.29263v-2.4299h-0.36301l-0.46672 1.3039-0.17039 0.49636h-0.01482l-0.1741-0.49636-0.47043-1.3039h-0.36671z"/>
   </g>
   <g aria-label="10M">
    <path d="m24.683 230.82h1.3335v-0.25189h-0.48895v-2.1114h-0.23336c-0.12964 0.0778-0.28522 0.13705-0.50006 0.1741v0.19632h0.42968v1.741h-0.54081z"/>
    <path d="m27.15 230.86c0.47043 0 0.75565-0.4408 0.75565-1.2335s-0.28522-1.2187-0.75565-1.2187c-0.47413 0-0.75935 0.42598-0.75935 1.2187s0.28522 1.2335 0.75935 1.2335zm0-0.24448c-0.27781 0-0.46302-0.29633-0.46302-0.98901s0.18521-0.9742 0.46302-0.9742c0.27411 0 0.45932 0.28152 0.45932 0.9742s-0.18521 0.98901-0.45932 0.98901z"/>
    <path d="m28.388 230.82h0.28522v-1.3372c0-0.21484-0.02223-0.50376-0.03704-0.7186h0.01482l0.19262 0.5408 0.46672 1.2705h0.1778l0.46672-1.2705 0.19262-0.5408h0.01482c-0.01482 0.21484-0.04075 0.50376-0.04075 0.7186v1.3372h0.29263v-2.4299h-0.36301l-0.46672 1.3039-0.17039 0.49636h-0.01482l-0.1741-0.49636-0.47043-1.3039h-0.36671z"/>
   </g>
   <g aria-label="100M">
    <path d="m22.845 220.23h1.3335v-0.25188h-0.48895v-2.1114h-0.23336c-0.12964 0.0778-0.28522 0.13705-0.50006 0.17409v0.19632h0.42968v1.741h-0.54081z"/>
    <path d="m25.313 220.28c0.47043 0 0.75565-0.44079 0.75565-1.2335s-0.28522-1.2187-0.75565-1.2187c-0.47413 0-0.75935 0.42598-0.75935 1.2187s0.28522 1.2335 0.75935 1.2335zm0-0.24447c-0.27781 0-0.46302-0.29633-0.46302-0.98901s0.18521-0.9742 0.46302-0.9742c0.27411 0 0.45932 0.28152 0.45932 0.9742s-0.18521 0.98901-0.45932 0.98901z"/>
    <path d="m27.15 220.28c0.47043 0 0.75565-0.44079 0.75565-1.2335s-0.28522-1.2187-0.75565-1.2187c-0.47413 0-0.75935 0.42598-0.75935 1.2187s0.28522 1.2335 0.75935 1.2335zm0-0.24447c-0.27781 0-0.46302-0.29633-0.46302-0.98901s0.18521-0.9742 0.46302-0.9742c0.27411 0 0.45932 0.28152 0.45932 0.9742s-0.18521 0.98901-0.45932 0.98901z"/>
    <path d="m28.388 220.23h0.28522v-1.3372c0-0.21484-0.02222-0.50377-0.03704-0.71861h0.01482l0.19262 0.54081 0.46672 1.2705h0.1778l0.46672-1.2705 0.19262-0.54081h0.01482c-0.01482 0.21484-0.04075 0.50377-0.04075 0.71861v1.3372h0.29263v-2.4299h-0.36301l-0.46672 1.3039-0.17039 0.49636h-0.01482l-0.1741-0.49636-0.47043-1.3039h-0.36671z"/>
   </g>
   <g aria-label="1Bn">
    <path d="m25.387 209.65h1.3335v-0.25188h-0.48895v-2.1114h-0.23336c-0.12965 0.0778-0.28522 0.13706-0.50006 0.1741v0.19632h0.42968v1.741h-0.54081z"/>
    <path d="m27.254 209.65h0.77788c0.54081 0 0.91863-0.23336 0.91863-0.7112 0-0.33337-0.20743-0.52599-0.56303-0.58155v-0.0148c0.28892-0.0741 0.42598-0.28892 0.42598-0.5297 0-0.42597-0.34449-0.59266-0.83714-0.59266h-0.72231zm0.31115-1.3928v-0.79269h0.37412c0.37412 0 0.57044 0.11113 0.57044 0.37412 0 0.27041-0.1741 0.41857-0.58526 0.41857zm0 1.1483v-0.91864h0.42228c0.42598 0 0.65934 0.13706 0.65934 0.43709 0 0.32968-0.24448 0.48155-0.65934 0.48155z"/>
    <path d="m29.399 209.65h0.30374v-1.3039c0.1815-0.1815 0.30745-0.27781 0.49265-0.27781 0.23707 0 0.34078 0.14446 0.34078 0.48154v1.1001h0.30374v-1.1409c0-0.45932-0.17039-0.70379-0.54822-0.70379-0.24818 0-0.43339 0.13335-0.60378 0.30374h-0.01111l-0.02593-0.25929h-0.25188z"/>
   </g>
  </g>
  <circle cx="171.01" cy="208.64" r="1.3613" fill="#47d58a"/>
  <g fill="#e8eaec" stroke-linecap="round" stroke-width=".26458" aria-label="RDR2">
   <path d="m162.06 207.78h0.34925c0.32385 0 0.50165 0.0984 0.50165 0.37147 0 0.26988-0.1778 0.40323-0.50165 0.40323h-0.34925zm1.1779 1.8701-0.53022-0.90805c0.28257-0.073 0.46672-0.2667 0.46672-0.59055 0-0.4318-0.3048-0.5842-0.72707-0.5842h-0.65405v2.0828h0.2667v-0.87947h0.37465l0.50165 0.87947z"/>
   <path d="m163.62 209.65h0.5334c0.62865 0 0.97155-0.38735 0.97155-1.0509 0-0.6604-0.3429-1.0319-0.98425-1.0319h-0.5207zm0.2667-0.2159v-1.651h0.23495c0.48895 0 0.73025 0.2921 0.73025 0.81598 0 0.52705-0.2413 0.83502-0.73025 0.83502z"/>
   <path d="m165.83 207.78h0.34925c0.32385 0 0.50165 0.0984 0.50165 0.37147 0 0.26988-0.1778 0.40323-0.50165 0.40323h-0.34925zm1.1779 1.8701-0.53022-0.90805c0.28257-0.073 0.46672-0.2667 0.46672-0.59055 0-0.4318-0.3048-0.5842-0.72707-0.5842h-0.65405v2.0828h0.2667v-0.87947h0.37465l0.50165 0.87947z"/>
   <path d="m167.24 209.65h1.3081v-0.22542h-0.58738c-0.10477 0-0.2286 0.01-0.33972 0.019 0.47942-0.50165 0.8255-0.87948 0.8255-1.2605 0-0.35877-0.23178-0.5969-0.60643-0.5969-0.26352 0-0.4445 0.12383-0.61277 0.30798l0.14922 0.14922c0.11748-0.13652 0.26353-0.24447 0.4318-0.24447 0.25718 0 0.38418 0.1651 0.38418 0.39687 0 0.32703-0.3429 0.69215-0.9525 1.2986z"/>
  </g>
  <g fill="#e8eaec" stroke-linecap="round" stroke-width=".26458" aria-label="Cost $">
   <path d="m22.101 202.88c0 0.79269 0.45561 1.2594 1.0668 1.2594 0.30745 0 0.54822-0.12965 0.73713-0.3519l-0.1741-0.18891c-0.15558 0.17409-0.32597 0.2704-0.55562 0.2704-0.46302 0-0.75565-0.38523-0.75565-0.99642 0-0.60378 0.30744-0.9816 0.77047-0.9816 0.20002 0 0.3556 0.0889 0.48525 0.22595l0.1741-0.19632c-0.14446-0.15928-0.37412-0.30004-0.66305-0.30004-0.6223 0-1.0853 0.47784-1.0853 1.2594z"/>
   <path d="m24.188 203.2c0 0.59637 0.39264 0.94086 0.83344 0.94086 0.4408 0 0.83344-0.34449 0.83344-0.94086 0-0.60378-0.39264-0.94827-0.83344-0.94827-0.4408 0-0.83344 0.34449-0.83344 0.94827zm0.31485 0c0-0.41487 0.21114-0.69638 0.51858-0.69638 0.31115 0 0.51858 0.28151 0.51858 0.69638 0 0.41116-0.20743 0.68897-0.51858 0.68897-0.30744 0-0.51858-0.27781-0.51858-0.68897z"/>
   <path d="m26.132 203.89c0.17039 0.14076 0.41487 0.24818 0.67045 0.24818 0.42598 0 0.65934-0.24448 0.65934-0.53711 0-0.34078-0.28892-0.4482-0.54822-0.54451-0.20373-0.0778-0.40005-0.14446-0.40005-0.31115 0-0.13705 0.10372-0.25929 0.32967-0.25929 0.15928 0 0.28892 0.0667 0.41116 0.15928l0.14446-0.19262c-0.13705-0.11112-0.33338-0.20373-0.55933-0.20373-0.38894 0-0.6186 0.22225-0.6186 0.51118 0 0.30374 0.28152 0.42598 0.5371 0.51858 0.19632 0.0741 0.41116 0.15558 0.41116 0.34078 0 0.15558-0.11853 0.28152-0.3556 0.28152-0.21484 0-0.37412-0.0889-0.5297-0.21484z"/>
   <path d="m27.94 203.54c0 0.3556 0.12964 0.60008 0.51488 0.60008 0.11112 0 0.23336-0.0333 0.33338-0.0667l-0.05927-0.22966c-0.05927 0.0222-0.14076 0.0482-0.20373 0.0482-0.20743 0-0.27781-0.12594-0.27781-0.34819v-1.0001h0.48525v-0.24818h-0.48525v-0.50376h-0.25559l-0.03704 0.50376-0.28152 0.0185v0.22966h0.2667z"/>
   <path d="m31.151 201.97c-0.13335-0.14076-0.28892-0.25559-0.52599-0.28152v-0.36671h-0.22225v0.37042c-0.32226 0.0519-0.5371 0.28892-0.5371 0.61859 0 0.72232 1.0335 0.59267 1.0335 1.1927 0 0.22966-0.13705 0.38153-0.41116 0.38153-0.22596 0-0.41487-0.11112-0.57415-0.24818l-0.14076 0.21114c0.15558 0.14446 0.39264 0.263 0.62971 0.28522v0.36672h0.22225v-0.37413c0.3519-0.0481 0.57415-0.29262 0.57415-0.64452 0-0.7964-1.0335-0.64823-1.0335-1.1853 0-0.21485 0.14446-0.3556 0.37042-0.3556 0.20002 0 0.31485 0.0778 0.45191 0.21113z"/>
  </g>
  <circle cx="165.72" cy="213.66" r="1.3613" fill="#47d58a"/>
  <g fill="#e8eaec" stroke-linecap="round" stroke-width=".26458" aria-label="GTA V">
   <path d="m156.15 213.64c0 0.67945 0.39052 1.0795 0.93662 1.0795 0.2794 0 0.51118-0.10795 0.6477-0.2413v-0.8763h-0.68262v0.21907h0.44132v0.54293c-0.0825 0.0762-0.2286 0.12382-0.37782 0.12382-0.4445 0-0.69215-0.3302-0.69215-0.85407 0-0.51753 0.26987-0.84138 0.69215-0.84138 0.20637 0 0.33655 0.0825 0.44132 0.19368l0.1524-0.16828c-0.12382-0.127-0.31432-0.25717-0.5969-0.25717-0.5588 0-0.96202 0.40957-0.96202 1.0795z"/>
   <path d="m158.58 214.68h0.26352v-1.8606h0.63183v-0.22225h-1.5272v0.22225h0.63183z"/>
   <path d="m159.97 213.83 0.1016-0.3175c0.073-0.23177 0.1397-0.46037 0.20637-0.70167h0.0127c0.0667 0.2413 0.13335 0.4699 0.20638 0.70167l0.0984 0.3175zm0.89217 0.84773h0.2794l-0.70485-2.0828h-0.29845l-0.70485 2.0828h0.26988l0.20002-0.635h0.75883z"/>
   <path d="m162.43 214.68h0.30797l0.6604-2.0828h-0.26987l-0.33338 1.124c-0.0699 0.24765-0.12382 0.4445-0.20002 0.68897h-0.0127c-0.0762-0.24447-0.127-0.44132-0.20003-0.68897l-0.33655-1.124h-0.2794z"/>
  </g>
  <circle cx="142.17" cy="217.1" r="1.3613" fill="#47d58a"/>
  <g fill="#e8eaec" stroke-linecap="round" stroke-width=".26458" aria-label="Shadow of the Tomb Raider">
   <path d="m103.36 217.85c0.18098 0.18733 0.43498 0.30798 0.72708 0.30798 0.43815 0 0.7112-0.26353 0.7112-0.59373 0-0.30797-0.18733-0.45085-0.42863-0.55562l-0.29845-0.127c-0.16192-0.0698-0.34607-0.14605-0.34607-0.34608 0-0.18732 0.15557-0.3048 0.39052-0.3048 0.1905 0 0.34608 0.0762 0.47308 0.19685l0.1397-0.17145c-0.14605-0.1524-0.36513-0.25717-0.61278-0.25717-0.37782 0-0.65722 0.23495-0.65722 0.55245 0 0.3048 0.2286 0.45402 0.42227 0.53657l0.29845 0.13018c0.19685 0.0889 0.34925 0.15557 0.34925 0.3683 0 0.2032-0.16192 0.33972-0.43497 0.33972-0.21908 0-0.42545-0.10477-0.57468-0.26035z"/>
   <path d="m105.18 218.12h0.26035v-1.1176c0.15558-0.15558 0.26353-0.23813 0.42228-0.23813 0.2032 0 0.2921 0.12383 0.2921 0.41275v0.94298h0.26035v-0.9779c0-0.3937-0.14605-0.60325-0.4699-0.60325-0.21273 0-0.3683 0.1143-0.51435 0.254l0.01-0.3175v-0.61595h-0.26035z"/>
   <path d="m106.83 217.72c0 0.27622 0.19367 0.43815 0.45402 0.43815 0.1905 0 0.36195-0.1016 0.51118-0.22225h6e-3l0.0222 0.18415h0.2159v-0.94615c0-0.38418-0.15875-0.635-0.53657-0.635-0.24765 0-0.46355 0.10795-0.60643 0.20002l0.10478 0.18098c0.12065-0.0825 0.2794-0.1651 0.46037-0.1651 0.25083 0 0.3175 0.1905 0.3175 0.38735-0.65722 0.073-0.94932 0.2413-0.94932 0.57785zm0.25717-0.019c0-0.19685 0.17463-0.32385 0.69215-0.38735v0.42862c-0.14922 0.13335-0.27305 0.20638-0.42227 0.20638-0.1524 0-0.26988-0.073-0.26988-0.24765z"/>
   <path d="m108.42 217.35c0 0.51435 0.25083 0.80645 0.63818 0.80645 0.18097 0 0.34607-0.1016 0.46672-0.21908h0.01l0.0222 0.18098h0.2159v-2.2606h-0.26352v0.59372l0.0127 0.26353c-0.13653-0.11113-0.254-0.1778-0.4318-0.1778-0.35243 0-0.66993 0.31115-0.66993 0.8128zm0.26988-3e-3c0-0.35242 0.19685-0.59055 0.4445-0.59055 0.127 0 0.24447 0.0445 0.37465 0.16193v0.80645c-0.127 0.14287-0.25083 0.21272-0.3937 0.21272-0.26988 0-0.42545-0.22225-0.42545-0.59055z"/>
   <path d="m110.18 217.35c0 0.51117 0.33655 0.80645 0.71437 0.80645 0.37783 0 0.71438-0.29528 0.71438-0.80645 0-0.51753-0.33655-0.8128-0.71438-0.8128-0.37782 0-0.71437 0.29527-0.71437 0.8128zm0.26987 0c0-0.3556 0.18098-0.5969 0.4445-0.5969 0.2667 0 0.4445 0.2413 0.4445 0.5969 0 0.35242-0.1778 0.59055-0.4445 0.59055-0.26352 0-0.4445-0.23813-0.4445-0.59055z"/>
   <path d="m112.25 218.12h0.3048l0.2159-0.8255c0.0413-0.14605 0.073-0.2921 0.10795-0.44768h0.0127c0.0381 0.15558 0.0667 0.29845 0.10477 0.4445l0.22225 0.82868h0.3175l0.41275-1.543h-0.24765l-0.22542 0.89217c-0.0318 0.14605-0.0603 0.28575-0.0953 0.42863h-0.0127c-0.0349-0.14288-0.0699-0.28258-0.10795-0.42863l-0.2413-0.89217h-0.254l-0.23813 0.89217c-0.0381 0.14288-0.0699 0.28575-0.10477 0.42863h-0.0127c-0.0286-0.14288-0.0572-0.28258-0.0921-0.42863l-0.2286-0.89217h-0.2667z"/>
   <path d="m114.81 217.35c0 0.51117 0.33655 0.80645 0.71438 0.80645 0.37782 0 0.71437-0.29528 0.71437-0.80645 0-0.51753-0.33655-0.8128-0.71437-0.8128-0.37783 0-0.71438 0.29527-0.71438 0.8128zm0.26988 0c0-0.3556 0.18097-0.5969 0.4445-0.5969 0.2667 0 0.4445 0.2413 0.4445 0.5969 0 0.35242-0.1778 0.59055-0.4445 0.59055-0.26353 0-0.4445-0.23813-0.4445-0.59055z"/>
   <path d="m117.4 215.87c-0.0698-0.0286-0.16192-0.0508-0.25717-0.0508-0.30798 0-0.45085 0.19685-0.45085 0.51117v0.24448l-0.20955 0.0159v0.19685h0.20955v1.3303h0.26035v-1.3303h0.32702v-0.21272h-0.32702v-0.24448c0-0.19685 0.0698-0.29845 0.2159-0.29845 0.0572 0 0.11747 0.0127 0.17462 0.0381z"/>
   <path d="m118.26 217.64c0 0.3048 0.11112 0.51435 0.44132 0.51435 0.0953 0 0.20003-0.0286 0.28575-0.0572l-0.0508-0.19685c-0.0508 0.019-0.12065 0.0413-0.17462 0.0413-0.1778 0-0.23813-0.10795-0.23813-0.29845v-0.85725h0.41593v-0.21272h-0.41593v-0.4318h-0.21907l-0.0318 0.4318-0.2413 0.0159v0.19685h0.2286z"/>
   <path d="m119.29 218.12h0.26035v-1.1176c0.15557-0.15558 0.26352-0.23813 0.42227-0.23813 0.2032 0 0.2921 0.12383 0.2921 0.41275v0.94298h0.26035v-0.9779c0-0.3937-0.14605-0.60325-0.4699-0.60325-0.21272 0-0.3683 0.1143-0.51435 0.254l0.01-0.3175v-0.61595h-0.26035z"/>
   <path d="m120.91 217.35c0 0.50482 0.32703 0.80645 0.73978 0.80645 0.20955 0 0.37465-0.073 0.508-0.15875l-0.0921-0.17145c-0.1143 0.073-0.23812 0.12065-0.38417 0.12065-0.29528 0-0.4953-0.20955-0.51435-0.54293h1.0414c6e-3 -0.0381 0.01-0.0889 0.01-0.14287 0-0.44133-0.22225-0.7239-0.61595-0.7239-0.35242 0-0.69215 0.30797-0.69215 0.8128zm0.254-0.11748c0.0318-0.31115 0.2286-0.48895 0.4445-0.48895 0.2413 0 0.381 0.17463 0.381 0.48895z"/>
   <path d="m123.69 218.12h0.26353v-1.8606h0.63182v-0.22225h-1.5272v0.22225h0.63182z"/>
   <path d="m124.6 217.35c0 0.51117 0.33655 0.80645 0.71438 0.80645 0.37782 0 0.71437-0.29528 0.71437-0.80645 0-0.51753-0.33655-0.8128-0.71437-0.8128-0.37783 0-0.71438 0.29527-0.71438 0.8128zm0.26988 0c0-0.3556 0.18097-0.5969 0.4445-0.5969 0.2667 0 0.4445 0.2413 0.4445 0.5969 0 0.35242-0.1778 0.59055-0.4445 0.59055-0.26353 0-0.4445-0.23813-0.4445-0.59055z"/>
   <path d="m126.44 218.12h0.26035v-1.1176c0.14287-0.15875 0.27305-0.23813 0.38735-0.23813 0.19685 0 0.28892 0.12383 0.28892 0.41275v0.94298h0.26035v-1.1176c0.14288-0.15875 0.2667-0.23813 0.38735-0.23813 0.19368 0 0.28575 0.12383 0.28575 0.41275v0.94298h0.26035v-0.9779c0-0.3937-0.1524-0.60325-0.4699-0.60325-0.18732 0-0.34607 0.12065-0.508 0.29527-0.0635-0.18415-0.1905-0.29527-0.42545-0.29527-0.18415 0-0.34607 0.1143-0.47942 0.26035h-0.01l-0.0222-0.22225h-0.2159z"/>
   <path d="m129.06 218.12h0.20955l0.0222-0.1524h0.01c0.13653 0.12065 0.29845 0.1905 0.44133 0.1905 0.35242 0 0.66675-0.30798 0.66675-0.83503 0-0.47625-0.21273-0.78422-0.61278-0.78422-0.17145 0-0.3429 0.0921-0.4826 0.2159l6e-3 -0.2794v-0.61595h-0.26035zm0.26035-0.3429v-0.80963c0.14605-0.13652 0.28258-0.20955 0.41275-0.20955 0.2921 0 0.4064 0.2286 0.4064 0.56833 0 0.381-0.18732 0.61277-0.44132 0.61277-0.1016 0-0.2413-0.0445-0.37783-0.16192z"/>
   <path d="m131.75 216.25h0.34925c0.32385 0 0.50165 0.0984 0.50165 0.37148 0 0.26987-0.1778 0.40322-0.50165 0.40322h-0.34925zm1.1779 1.8701-0.53023-0.90805c0.28258-0.073 0.46673-0.2667 0.46673-0.59055 0-0.4318-0.3048-0.5842-0.72708-0.5842h-0.65405v2.0828h0.2667v-0.87948h0.37465l0.50165 0.87948z"/>
   <path d="m133.19 217.72c0 0.27622 0.19367 0.43815 0.45402 0.43815 0.1905 0 0.36195-0.1016 0.51118-0.22225h6e-3l0.0222 0.18415h0.2159v-0.94615c0-0.38418-0.15875-0.635-0.53657-0.635-0.24765 0-0.46355 0.10795-0.60643 0.20002l0.10478 0.18098c0.12065-0.0825 0.2794-0.1651 0.46037-0.1651 0.25083 0 0.3175 0.1905 0.3175 0.38735-0.65722 0.073-0.94932 0.2413-0.94932 0.57785zm0.25717-0.019c0-0.19685 0.17463-0.32385 0.69215-0.38735v0.42862c-0.14922 0.13335-0.27305 0.20638-0.42227 0.20638-0.1524 0-0.26988-0.073-0.26988-0.24765z"/>
   <path d="m135.02 216.26c0.1016 0 0.18098-0.0699 0.18098-0.16828 0-0.1016-0.0794-0.16827-0.18098-0.16827-0.1016 0-0.18097 0.0667-0.18097 0.16827 0 0.0984 0.0794 0.16828 0.18097 0.16828zm-0.13335 1.8606h0.26035v-1.543h-0.26035z"/>
   <path d="m135.56 217.35c0 0.51435 0.25082 0.80645 0.63817 0.80645 0.18098 0 0.34608-0.1016 0.46673-0.21908h0.01l0.0222 0.18098h0.2159v-2.2606h-0.26353v0.59372l0.0127 0.26353c-0.13652-0.11113-0.254-0.1778-0.4318-0.1778-0.35242 0-0.66992 0.31115-0.66992 0.8128zm0.26987-3e-3c0-0.35242 0.19685-0.59055 0.4445-0.59055 0.127 0 0.24448 0.0445 0.37465 0.16193v0.80645c-0.127 0.14287-0.25082 0.21272-0.3937 0.21272-0.26987 0-0.42545-0.22225-0.42545-0.59055z"/>
   <path d="m137.32 217.35c0 0.50482 0.32702 0.80645 0.73977 0.80645 0.20955 0 0.37465-0.073 0.508-0.15875l-0.0921-0.17145c-0.1143 0.073-0.23813 0.12065-0.38418 0.12065-0.29527 0-0.4953-0.20955-0.51435-0.54293h1.0414c6e-3 -0.0381 0.01-0.0889 0.01-0.14287 0-0.44133-0.22225-0.7239-0.61595-0.7239-0.35243 0-0.69215 0.30797-0.69215 0.8128zm0.254-0.11748c0.0317-0.31115 0.2286-0.48895 0.4445-0.48895 0.2413 0 0.381 0.17463 0.381 0.48895z"/>
   <path d="m139 218.12h0.26035v-0.9906c0.10477-0.26035 0.26035-0.3556 0.39052-0.3556 0.0635 0 0.0984 0.01 0.14923 0.0254l0.0508-0.2286c-0.0508-0.0222-0.0984-0.0317-0.1651-0.0317-0.17463 0-0.33338 0.12382-0.43815 0.3175h-0.01l-0.0222-0.2794h-0.2159z"/>
  </g>
  <circle cx="171.01" cy="222.66" r="1.3613" fill="#47d58a"/>
  <g fill="#e8eaec" stroke-linecap="round" stroke-width=".26458" aria-label="CoD Modern Warfare">
   <path d="m141.61 222.63c0 0.67945 0.39053 1.0795 0.9144 1.0795 0.26353 0 0.4699-0.11112 0.63183-0.30162l-0.14923-0.16193c-0.13335 0.14923-0.2794 0.23178-0.47625 0.23178-0.39687 0-0.6477-0.3302-0.6477-0.85408 0-0.51752 0.26353-0.84137 0.6604-0.84137 0.17145 0 0.3048 0.0762 0.41593 0.19367l0.14922-0.16827c-0.12382-0.13653-0.32067-0.25718-0.56832-0.25718-0.5334 0-0.93028 0.40958-0.93028 1.0795z"/>
   <path d="m143.4 222.9c0 0.51118 0.33655 0.80645 0.71437 0.80645 0.37783 0 0.71438-0.29527 0.71438-0.80645 0-0.51752-0.33655-0.8128-0.71438-0.8128-0.37782 0-0.71437 0.29528-0.71437 0.8128zm0.26987 0c0-0.3556 0.18098-0.5969 0.4445-0.5969 0.2667 0 0.4445 0.2413 0.4445 0.5969 0 0.35243-0.1778 0.59055-0.4445 0.59055-0.26352 0-0.4445-0.23812-0.4445-0.59055z"/>
   <path d="m145.25 223.67h0.5334c0.62865 0 0.97155-0.38735 0.97155-1.0509 0-0.6604-0.3429-1.0319-0.98425-1.0319h-0.5207zm0.2667-0.2159v-1.651h0.23495c0.48895 0 0.73025 0.2921 0.73025 0.81598 0 0.52705-0.2413 0.83502-0.73025 0.83502z"/>
   <path d="m147.83 223.67h0.24447v-1.1462c0-0.18415-0.0191-0.4318-0.0318-0.61595h0.0127l0.1651 0.46355 0.40005 1.089h0.1524l0.40005-1.089 0.1651-0.46355h0.0127c-0.0127 0.18415-0.0349 0.4318-0.0349 0.61595v1.1462h0.25082v-2.0828h-0.31115l-0.40005 1.1176-0.14605 0.42545h-0.0127l-0.14922-0.42545-0.40323-1.1176h-0.31432z"/>
   <path d="m149.99 222.9c0 0.51118 0.33655 0.80645 0.71437 0.80645 0.37783 0 0.71438-0.29527 0.71438-0.80645 0-0.51752-0.33655-0.8128-0.71438-0.8128-0.37782 0-0.71437 0.29528-0.71437 0.8128zm0.26987 0c0-0.3556 0.18098-0.5969 0.4445-0.5969 0.2667 0 0.4445 0.2413 0.4445 0.5969 0 0.35243-0.1778 0.59055-0.4445 0.59055-0.26352 0-0.4445-0.23812-0.4445-0.59055z"/>
   <path d="m151.72 222.9c0 0.51435 0.25082 0.80645 0.63817 0.80645 0.18098 0 0.34608-0.1016 0.46673-0.21907h0.01l0.0222 0.18097h0.2159v-2.2606h-0.26353v0.59373l0.0127 0.26352c-0.13652-0.11112-0.254-0.1778-0.4318-0.1778-0.35242 0-0.66992 0.31115-0.66992 0.8128zm0.26987-3e-3c0-0.35243 0.19685-0.59055 0.4445-0.59055 0.127 0 0.24448 0.0445 0.37465 0.16192v0.80645c-0.127 0.14288-0.25082 0.21273-0.3937 0.21273-0.26987 0-0.42545-0.22225-0.42545-0.59055z"/>
   <path d="m153.48 222.9c0 0.50483 0.32703 0.80645 0.73978 0.80645 0.20955 0 0.37465-0.073 0.508-0.15875l-0.0921-0.17145c-0.1143 0.073-0.23812 0.12065-0.38417 0.12065-0.29528 0-0.4953-0.20955-0.51435-0.54292h1.0414c6e-3 -0.0381 0.01-0.0889 0.01-0.14288 0-0.44132-0.22225-0.7239-0.61595-0.7239-0.35242 0-0.69215 0.30798-0.69215 0.8128zm0.254-0.11747c0.0317-0.31115 0.2286-0.48895 0.4445-0.48895 0.2413 0 0.381 0.17462 0.381 0.48895z"/>
   <path d="m155.17 223.67h0.26035v-0.9906c0.10478-0.26035 0.26035-0.3556 0.39053-0.3556 0.0635 0 0.0984 0.01 0.14922 0.0254l0.0508-0.2286c-0.0508-0.0222-0.0984-0.0317-0.1651-0.0317-0.17462 0-0.33337 0.12383-0.43815 0.3175h-0.01l-0.0222-0.2794h-0.2159z"/>
   <path d="m156.27 223.67h0.26035v-1.1176c0.15558-0.15557 0.26353-0.23812 0.42228-0.23812 0.2032 0 0.2921 0.12382 0.2921 0.41275v0.94297h0.26035v-0.9779c0-0.3937-0.14605-0.60325-0.4699-0.60325-0.21273 0-0.37148 0.1143-0.51753 0.26035h-0.01l-0.0222-0.22225h-0.2159z"/>
   <path d="m158.89 223.67h0.31433l0.31115-1.2541c0.0349-0.16193 0.0699-0.31115 0.10477-0.47308h0.0127c0.0286 0.16193 0.0635 0.31115 0.0984 0.47308l0.31432 1.2541h0.32068l0.4318-2.0828h-0.25718l-0.21907 1.1335c-0.0381 0.22225-0.0762 0.44767-0.11748 0.6731h-0.0127c-0.0508-0.22543-0.1016-0.45403-0.14922-0.6731l-0.28893-1.1335h-0.2413l-0.28892 1.1335c-0.0508 0.22225-0.1016 0.44767-0.14605 0.6731h-0.0127c-0.0413-0.22543-0.0825-0.44768-0.12383-0.6731l-0.21907-1.1335h-0.27305z"/>
   <path d="m161 223.27c0 0.27623 0.19367 0.43815 0.45402 0.43815 0.1905 0 0.36195-0.1016 0.51118-0.22225h6e-3l0.0222 0.18415h0.2159v-0.94615c0-0.38417-0.15875-0.635-0.53657-0.635-0.24765 0-0.46355 0.10795-0.60643 0.20003l0.10478 0.18097c0.12065-0.0825 0.2794-0.1651 0.46037-0.1651 0.25083 0 0.3175 0.1905 0.3175 0.38735-0.65722 0.073-0.94932 0.2413-0.94932 0.57785zm0.25717-0.019c0-0.19685 0.17463-0.32385 0.69215-0.38735v0.42863c-0.14922 0.13335-0.27305 0.20637-0.42227 0.20637-0.1524 0-0.26988-0.073-0.26988-0.24765z"/>
   <path d="m162.7 223.67h0.26035v-0.9906c0.10477-0.26035 0.26035-0.3556 0.39052-0.3556 0.0635 0 0.0984 0.01 0.14923 0.0254l0.0508-0.2286c-0.0508-0.0222-0.0984-0.0317-0.1651-0.0317-0.17463 0-0.33338 0.12383-0.43815 0.3175h-0.01l-0.0222-0.2794h-0.2159z"/>
   <path d="m164.56 221.42c-0.0699-0.0286-0.16193-0.0508-0.25718-0.0508-0.30797 0-0.45085 0.19685-0.45085 0.51118v0.24447l-0.20955 0.0159v0.19685h0.20955v1.3303h0.26035v-1.3303h0.32703v-0.21273h-0.32703v-0.24447c0-0.19685 0.0698-0.29845 0.2159-0.29845 0.0572 0 0.11748 0.0127 0.17463 0.0381z"/>
   <path d="m164.6 223.27c0 0.27623 0.19367 0.43815 0.45402 0.43815 0.1905 0 0.36195-0.1016 0.51118-0.22225h6e-3l0.0222 0.18415h0.2159v-0.94615c0-0.38417-0.15875-0.635-0.53657-0.635-0.24765 0-0.46355 0.10795-0.60643 0.20003l0.10478 0.18097c0.12065-0.0825 0.2794-0.1651 0.46037-0.1651 0.25083 0 0.3175 0.1905 0.3175 0.38735-0.65722 0.073-0.94932 0.2413-0.94932 0.57785zm0.25717-0.019c0-0.19685 0.17463-0.32385 0.69215-0.38735v0.42863c-0.14922 0.13335-0.27305 0.20637-0.42227 0.20637-0.1524 0-0.26988-0.073-0.26988-0.24765z"/>
   <path d="m166.3 223.67h0.26035v-0.9906c0.10477-0.26035 0.26035-0.3556 0.39052-0.3556 0.0635 0 0.0984 0.01 0.14923 0.0254l0.0508-0.2286c-0.0508-0.0222-0.0984-0.0317-0.1651-0.0317-0.17463 0-0.33338 0.12383-0.43815 0.3175h-0.01l-0.0222-0.2794h-0.2159z"/>
   <path d="m167.26 222.9c0 0.50483 0.32702 0.80645 0.73977 0.80645 0.20955 0 0.37465-0.073 0.508-0.15875l-0.0921-0.17145c-0.1143 0.073-0.23813 0.12065-0.38418 0.12065-0.29527 0-0.4953-0.20955-0.51435-0.54292h1.0414c6e-3 -0.0381 0.01-0.0889 0.01-0.14288 0-0.44132-0.22225-0.7239-0.61595-0.7239-0.35243 0-0.69215 0.30798-0.69215 0.8128zm0.254-0.11747c0.0317-0.31115 0.2286-0.48895 0.4445-0.48895 0.2413 0 0.381 0.17462 0.381 0.48895z"/>
  </g>
  <circle cx="102.22" cy="225.83" r="1.3613" fill="#47d58a"/>
  <g fill="#e8eaec" stroke-linecap="round" stroke-width=".26458" aria-label="Duke Nukem Forever">
   <path d="m72.602 226.85h0.5334c0.62865 0 0.97155-0.38735 0.97155-1.0509 0-0.6604-0.3429-1.0319-0.98425-1.0319h-0.5207zm0.2667-0.2159v-1.651h0.23495c0.48895 0 0.73025 0.2921 0.73025 0.81598 0 0.52705-0.2413 0.83502-0.73025 0.83502z"/>
   <path d="m74.505 226.28c0 0.3937 0.14605 0.60325 0.47308 0.60325 0.21272 0 0.36512-0.11112 0.508-0.2794h0.0095l0.02222 0.2413h0.2159v-1.543h-0.26035v1.0954c-0.14605 0.18097-0.25718 0.26035-0.41592 0.26035-0.2032 0-0.28892-0.12383-0.28892-0.41275v-0.94298h-0.26352z"/>
   <path d="m76.257 226.85h0.25718v-0.4064l0.28892-0.33655 0.45085 0.74295h0.28575l-0.58738-0.92392 0.51752-0.61913h-0.28892l-0.65722 0.8128h-0.0095v-1.5304h-0.25718z"/>
   <path d="m77.656 226.08c0 0.50483 0.32702 0.80645 0.73978 0.80645 0.20955 0 0.37465-0.073 0.508-0.15875l-0.09207-0.17145c-0.1143 0.073-0.23812 0.12065-0.38418 0.12065-0.29528 0-0.4953-0.20955-0.51435-0.54292h1.0414c0.0063-0.0381 0.0095-0.0889 0.0095-0.14288 0-0.44132-0.22225-0.7239-0.61595-0.7239-0.35242 0-0.69215 0.30798-0.69215 0.8128zm0.254-0.11747c0.03175-0.31115 0.2286-0.48895 0.4445-0.48895 0.2413 0 0.381 0.17462 0.381 0.48895z"/>
   <path d="m80 226.85h0.25082v-1.089c0-0.21908-0.01905-0.44133-0.03175-0.65088h0.0127l0.22542 0.42863 0.75248 1.3113h0.27305v-2.0828h-0.25082v1.0763c0 0.21907 0.02223 0.45402 0.03493 0.66357h-0.0127l-0.22542-0.4318-0.75565-1.3081h-0.27305z"/>
   <path d="m82.002 226.28c0 0.3937 0.14605 0.60325 0.47308 0.60325 0.21272 0 0.36512-0.11112 0.508-0.2794h0.0095l0.02223 0.2413h0.2159v-1.543h-0.26035v1.0954c-0.14605 0.18097-0.25718 0.26035-0.41592 0.26035-0.2032 0-0.28892-0.12383-0.28892-0.41275v-0.94298h-0.26352z"/>
   <path d="m83.754 226.85h0.25718v-0.4064l0.28892-0.33655 0.45085 0.74295h0.28575l-0.58738-0.92392 0.51752-0.61913h-0.28892l-0.65722 0.8128h-0.0095v-1.5304h-0.25718z"/>
   <path d="m85.153 226.08c0 0.50483 0.32702 0.80645 0.73978 0.80645 0.20955 0 0.37465-0.073 0.508-0.15875l-0.09208-0.17145c-0.1143 0.073-0.23812 0.12065-0.38418 0.12065-0.29528 0-0.4953-0.20955-0.51435-0.54292h1.0414c0.0063-0.0381 0.0095-0.0889 0.0095-0.14288 0-0.44132-0.22225-0.7239-0.61595-0.7239-0.35242 0-0.69215 0.30798-0.69215 0.8128zm0.254-0.11747c0.03175-0.31115 0.2286-0.48895 0.4445-0.48895 0.2413 0 0.381 0.17462 0.381 0.48895z"/>
   <path d="m86.843 226.85h0.26035v-1.1176c0.14288-0.15875 0.27305-0.23812 0.38735-0.23812 0.19685 0 0.28892 0.12382 0.28892 0.41275v0.94297h0.26035v-1.1176c0.14288-0.15875 0.2667-0.23812 0.38735-0.23812 0.19368 0 0.28575 0.12382 0.28575 0.41275v0.94297h0.26035v-0.9779c0-0.3937-0.1524-0.60325-0.4699-0.60325-0.18732 0-0.34608 0.12065-0.508 0.29528-0.0635-0.18415-0.1905-0.29528-0.42545-0.29528-0.18415 0-0.34608 0.1143-0.47942 0.26035h-0.0095l-0.02222-0.22225h-0.2159z"/>
   <path d="m90.127 226.85h0.2667v-0.93345h0.79375v-0.22225h-0.79375v-0.70485h0.93662v-0.22225h-1.2033z"/>
   <path d="m91.503 226.08c0 0.51118 0.33655 0.80645 0.71438 0.80645s0.71438-0.29527 0.71438-0.80645c0-0.51752-0.33655-0.8128-0.71438-0.8128s-0.71438 0.29528-0.71438 0.8128zm0.26988 0c0-0.3556 0.18098-0.5969 0.4445-0.5969 0.2667 0 0.4445 0.2413 0.4445 0.5969 0 0.35243-0.1778 0.59055-0.4445 0.59055-0.26352 0-0.4445-0.23812-0.4445-0.59055z"/>
   <path d="m93.341 226.85h0.26035v-0.9906c0.10478-0.26035 0.26035-0.3556 0.39052-0.3556 0.0635 0 0.09842 0.01 0.14922 0.0254l0.0508-0.2286c-0.0508-0.0222-0.09842-0.0318-0.1651-0.0318-0.17462 0-0.33338 0.12383-0.43815 0.3175h-0.0095l-0.02222-0.2794h-0.2159z"/>
   <path d="m94.3 226.08c0 0.50483 0.32702 0.80645 0.73978 0.80645 0.20955 0 0.37465-0.073 0.508-0.15875l-0.09207-0.17145c-0.1143 0.073-0.23812 0.12065-0.38418 0.12065-0.29528 0-0.4953-0.20955-0.51435-0.54292h1.0414c0.0064-0.0381 0.0095-0.0889 0.0095-0.14288 0-0.44132-0.22225-0.7239-0.61595-0.7239-0.35242 0-0.69215 0.30798-0.69215 0.8128zm0.254-0.11747c0.03175-0.31115 0.2286-0.48895 0.4445-0.48895 0.2413 0 0.381 0.17462 0.381 0.48895z"/>
   <path d="m96.341 226.85h0.3048l0.5461-1.543h-0.25718l-0.2921 0.8763c-0.04445 0.1524-0.09525 0.30798-0.1397 0.45403h-0.0127c-0.04762-0.14605-0.09842-0.30163-0.14288-0.45403l-0.2921-0.8763h-0.26988z"/>
   <path d="m97.363 226.08c0 0.50483 0.32702 0.80645 0.73978 0.80645 0.20955 0 0.37465-0.073 0.508-0.15875l-0.09207-0.17145c-0.1143 0.073-0.23812 0.12065-0.38418 0.12065-0.29528 0-0.4953-0.20955-0.51435-0.54292h1.0414c0.0063-0.0381 0.0095-0.0889 0.0095-0.14288 0-0.44132-0.22225-0.7239-0.61595-0.7239-0.35242 0-0.69215 0.30798-0.69215 0.8128zm0.254-0.11747c0.03175-0.31115 0.2286-0.48895 0.4445-0.48895 0.2413 0 0.381 0.17462 0.381 0.48895z"/>
   <path d="m99.053 226.85h0.26035v-0.9906c0.10478-0.26035 0.26035-0.3556 0.39052-0.3556 0.0635 0 0.09842 0.01 0.14922 0.0254l0.0508-0.2286c-0.0508-0.0222-0.09843-0.0318-0.1651-0.0318-0.17462 0-0.33338 0.12383-0.43815 0.3175h-0.0095l-0.02223-0.2794h-0.2159z"/>
  </g>
  <circle cx="136.62" cy="211.81" r="1.3613" fill="#47d58a"/>
  <g fill="#e8eaec" stroke-linecap="round" stroke-width=".26458" aria-label="Destiny">
   <path d="m124.65 212.82h0.5334c0.62865 0 0.97155-0.38735 0.97155-1.0509 0-0.6604-0.3429-1.0319-0.98425-1.0319h-0.5207zm0.2667-0.2159v-1.651h0.23495c0.48895 0 0.73025 0.2921 0.73025 0.81598 0 0.52705-0.2413 0.83502-0.73025 0.83502z"/>
   <path d="m126.46 212.06c0 0.50483 0.32702 0.80645 0.73977 0.80645 0.20955 0 0.37465-0.073 0.508-0.15875l-0.0921-0.17145c-0.1143 0.073-0.23813 0.12065-0.38418 0.12065-0.29527 0-0.4953-0.20955-0.51435-0.54292h1.0414c6e-3 -0.0381 0.01-0.0889 0.01-0.14288 0-0.44132-0.22225-0.7239-0.61595-0.7239-0.35243 0-0.69215 0.30798-0.69215 0.8128zm0.254-0.11747c0.0318-0.31115 0.2286-0.48895 0.4445-0.48895 0.2413 0 0.381 0.17462 0.381 0.48895z"/>
   <path d="m127.98 212.65c0.14605 0.12065 0.3556 0.21272 0.57467 0.21272 0.36513 0 0.56515-0.20955 0.56515-0.46037 0-0.2921-0.24765-0.38418-0.4699-0.46673-0.17462-0.0667-0.3429-0.12382-0.3429-0.2667 0-0.11747 0.0889-0.22225 0.28258-0.22225 0.13652 0 0.24765 0.0572 0.35242 0.13653l0.12383-0.1651c-0.11748-0.0952-0.28575-0.17463-0.47943-0.17463-0.33337 0-0.53022 0.1905-0.53022 0.43815 0 0.26035 0.2413 0.36513 0.46037 0.4445 0.16828 0.0635 0.35243 0.13335 0.35243 0.2921 0 0.13335-0.1016 0.2413-0.3048 0.2413-0.18415 0-0.32068-0.0762-0.45403-0.18415z"/>
   <path d="m129.52 212.35c0 0.3048 0.11112 0.51435 0.44132 0.51435 0.0952 0 0.20003-0.0286 0.28575-0.0572l-0.0508-0.19685c-0.0508 0.0191-0.12065 0.0413-0.17462 0.0413-0.1778 0-0.23813-0.10795-0.23813-0.29845v-0.85725h0.41593v-0.21273h-0.41593v-0.4318h-0.21907l-0.0317 0.4318-0.2413 0.0159v0.19685h0.2286z"/>
   <path d="m130.69 210.96c0.1016 0 0.18098-0.0699 0.18098-0.16827 0-0.1016-0.0794-0.16828-0.18098-0.16828-0.1016 0-0.18097 0.0667-0.18097 0.16828 0 0.0984 0.0794 0.16827 0.18097 0.16827zm-0.13335 1.8606h0.26035v-1.543h-0.26035z"/>
   <path d="m131.33 212.82h0.26035v-1.1176c0.15557-0.15557 0.26352-0.23812 0.42227-0.23812 0.2032 0 0.2921 0.12382 0.2921 0.41275v0.94297h0.26035v-0.9779c0-0.3937-0.14605-0.60325-0.4699-0.60325-0.21272 0-0.37147 0.1143-0.51752 0.26035h-0.01l-0.0222-0.22225h-0.2159z"/>
   <path d="m132.97 213.25-0.0508 0.20638c0.0508 0.019 0.11113 0.0317 0.18098 0.0317 0.31115 0 0.4699-0.23178 0.57785-0.53658l0.58102-1.67h-0.254l-0.27622 0.85408c-0.0413 0.13652-0.0857 0.29527-0.13018 0.43497h-0.0127c-0.0476-0.14287-0.1016-0.30162-0.14922-0.43497l-0.31433-0.85408h-0.26987l0.61912 1.5462-0.0349 0.1143c-0.0635 0.1905-0.17463 0.3302-0.34925 0.3302-0.0381 0-0.0857-0.0127-0.11748-0.0222z"/>
  </g>
  <circle cx="133.97" cy="229.01" r="1.3613" fill="#47d58a"/>
  <g fill="#e8eaec" stroke-linecap="round" stroke-width=".26458" aria-label="Clash of Clans">
   <path d="m113.27 228.98c0 0.67945 0.39052 1.0795 0.9144 1.0795 0.26352 0 0.4699-0.11113 0.63182-0.30163l-0.14922-0.16192c-0.13335 0.14922-0.2794 0.23177-0.47625 0.23177-0.39688 0-0.6477-0.3302-0.6477-0.85407 0-0.51753 0.26352-0.84138 0.6604-0.84138 0.17145 0 0.3048 0.0762 0.41592 0.19368l0.14923-0.16828c-0.12383-0.13652-0.32068-0.25717-0.56833-0.25717-0.5334 0-0.93027 0.40957-0.93027 1.0795z"/>
   <path d="m115.17 229.71c0 0.22542 0.0794 0.34925 0.27623 0.34925 0.0699 0 0.1143-0.01 0.14922-0.0254l-0.0349-0.19685c-0.0286 6e-3 -0.0413 6e-3 -0.0571 6e-3 -0.0381 0-0.073-0.0317-0.073-0.1143v-1.9685h-0.26035z"/>
   <path d="m115.91 229.62c0 0.27622 0.19367 0.43815 0.45402 0.43815 0.1905 0 0.36195-0.1016 0.51118-0.22225h6e-3l0.0222 0.18415h0.2159v-0.94615c0-0.38418-0.15875-0.635-0.53657-0.635-0.24765 0-0.46355 0.10795-0.60643 0.20002l0.10478 0.18098c0.12065-0.0825 0.2794-0.1651 0.46037-0.1651 0.25083 0 0.3175 0.1905 0.3175 0.38735-0.65722 0.073-0.94932 0.2413-0.94932 0.57785zm0.25717-0.019c0-0.19685 0.17463-0.32385 0.69215-0.38735v0.42862c-0.14922 0.13335-0.27305 0.20638-0.42227 0.20638-0.1524 0-0.26988-0.073-0.26988-0.24765z"/>
   <path d="m117.44 229.85c0.14605 0.12065 0.3556 0.21273 0.57468 0.21273 0.36512 0 0.56515-0.20955 0.56515-0.46038 0-0.2921-0.24765-0.38417-0.4699-0.46672-0.17463-0.0667-0.3429-0.12383-0.3429-0.2667 0-0.11748 0.0889-0.22225 0.28257-0.22225 0.13653 0 0.24765 0.0571 0.35243 0.13652l0.12382-0.1651c-0.11747-0.0952-0.28575-0.17462-0.47942-0.17462-0.33338 0-0.53023 0.1905-0.53023 0.43815 0 0.26035 0.2413 0.36512 0.46038 0.4445 0.16827 0.0635 0.35242 0.13335 0.35242 0.2921 0 0.13335-0.1016 0.2413-0.3048 0.2413-0.18415 0-0.32067-0.0762-0.45402-0.18415z"/>
   <path d="m118.94 230.02h0.26035v-1.1176c0.15558-0.15558 0.26353-0.23813 0.42228-0.23813 0.2032 0 0.2921 0.12383 0.2921 0.41275v0.94298h0.26035v-0.9779c0-0.3937-0.14605-0.60325-0.4699-0.60325-0.21273 0-0.3683 0.1143-0.51435 0.254l0.01-0.3175v-0.61595h-0.26035z"/>
   <path d="m121.19 229.25c0 0.51117 0.33655 0.80645 0.71438 0.80645 0.37782 0 0.71437-0.29528 0.71437-0.80645 0-0.51753-0.33655-0.8128-0.71437-0.8128-0.37783 0-0.71438 0.29527-0.71438 0.8128zm0.26988 0c0-0.3556 0.18097-0.5969 0.4445-0.5969 0.2667 0 0.4445 0.2413 0.4445 0.5969 0 0.35242-0.1778 0.59055-0.4445 0.59055-0.26353 0-0.4445-0.23813-0.4445-0.59055z"/>
   <path d="m123.79 227.77c-0.0699-0.0286-0.16192-0.0508-0.25717-0.0508-0.30798 0-0.45085 0.19685-0.45085 0.51117v0.24448l-0.20955 0.0159v0.19685h0.20955v1.3303h0.26035v-1.3303h0.32702v-0.21272h-0.32702v-0.24448c0-0.19685 0.0699-0.29845 0.2159-0.29845 0.0571 0 0.11747 0.0127 0.17462 0.0381z"/>
   <path d="m124.5 228.98c0 0.67945 0.39052 1.0795 0.9144 1.0795 0.26352 0 0.4699-0.11113 0.63182-0.30163l-0.14922-0.16192c-0.13335 0.14922-0.2794 0.23177-0.47625 0.23177-0.39688 0-0.6477-0.3302-0.6477-0.85407 0-0.51753 0.26352-0.84138 0.6604-0.84138 0.17145 0 0.3048 0.0762 0.41592 0.19368l0.14923-0.16828c-0.12383-0.13652-0.32068-0.25717-0.56833-0.25717-0.5334 0-0.93027 0.40957-0.93027 1.0795z"/>
   <path d="m126.4 229.71c0 0.22542 0.0794 0.34925 0.27623 0.34925 0.0699 0 0.1143-0.01 0.14922-0.0254l-0.0349-0.19685c-0.0286 6e-3 -0.0413 6e-3 -0.0572 6e-3 -0.0381 0-0.073-0.0317-0.073-0.1143v-1.9685h-0.26035z"/>
   <path d="m127.14 229.62c0 0.27622 0.19367 0.43815 0.45402 0.43815 0.1905 0 0.36195-0.1016 0.51118-0.22225h6e-3l0.0222 0.18415h0.2159v-0.94615c0-0.38418-0.15875-0.635-0.53657-0.635-0.24765 0-0.46355 0.10795-0.60643 0.20002l0.10478 0.18098c0.12065-0.0825 0.2794-0.1651 0.46037-0.1651 0.25083 0 0.3175 0.1905 0.3175 0.38735-0.65722 0.073-0.94932 0.2413-0.94932 0.57785zm0.25717-0.019c0-0.19685 0.17463-0.32385 0.69215-0.38735v0.42862c-0.14922 0.13335-0.27305 0.20638-0.42227 0.20638-0.1524 0-0.26988-0.073-0.26988-0.24765z"/>
   <path d="m128.84 230.02h0.26035v-1.1176c0.15558-0.15558 0.26353-0.23813 0.42228-0.23813 0.2032 0 0.2921 0.12383 0.2921 0.41275v0.94298h0.26035v-0.9779c0-0.3937-0.14605-0.60325-0.4699-0.60325-0.21273 0-0.37148 0.1143-0.51753 0.26035h-0.01l-0.0222-0.22225h-0.2159z"/>
   <path d="m130.4 229.85c0.14605 0.12065 0.3556 0.21273 0.57468 0.21273 0.36512 0 0.56515-0.20955 0.56515-0.46038 0-0.2921-0.24765-0.38417-0.4699-0.46672-0.17463-0.0667-0.3429-0.12383-0.3429-0.2667 0-0.11748 0.0889-0.22225 0.28257-0.22225 0.13653 0 0.24765 0.0571 0.35243 0.13652l0.12382-0.1651c-0.11747-0.0952-0.28575-0.17462-0.47942-0.17462-0.33338 0-0.53023 0.1905-0.53023 0.43815 0 0.26035 0.2413 0.36512 0.46038 0.4445 0.16827 0.0635 0.35242 0.13335 0.35242 0.2921 0 0.13335-0.1016 0.2413-0.3048 0.2413-0.18415 0-0.32067-0.0762-0.45402-0.18415z"/>
  </g>
  <circle cx="131.33" cy="249.12" r="1.3613" fill="#47d58a"/>
  <g fill="#e8eaec" stroke-linecap="round" stroke-width=".26458" aria-label="Hearthstone">
   <path d="m112.75 250.13h0.2667v-0.98107h0.96837v0.98107h0.26353v-2.0828h-0.26353v0.87313h-0.96837v-0.87313h-0.2667z"/>
   <path d="m114.67 249.36c0 0.50483 0.32703 0.80645 0.73978 0.80645 0.20955 0 0.37465-0.073 0.508-0.15875l-0.0921-0.17145c-0.1143 0.073-0.23812 0.12065-0.38417 0.12065-0.29528 0-0.4953-0.20955-0.51435-0.54292h1.0414c6e-3 -0.0381 0.01-0.0889 0.01-0.14288 0-0.44132-0.22225-0.7239-0.61595-0.7239-0.35242 0-0.69215 0.30798-0.69215 0.8128zm0.254-0.11747c0.0318-0.31115 0.2286-0.48895 0.4445-0.48895 0.2413 0 0.381 0.17462 0.381 0.48895z"/>
   <path d="m116.24 249.73c0 0.27623 0.19368 0.43815 0.45403 0.43815 0.1905 0 0.36195-0.1016 0.51117-0.22225h6e-3l0.0222 0.18415h0.2159v-0.94615c0-0.38417-0.15875-0.635-0.53658-0.635-0.24765 0-0.46355 0.10795-0.60642 0.20003l0.10477 0.18097c0.12065-0.0825 0.2794-0.1651 0.46038-0.1651 0.25082 0 0.3175 0.1905 0.3175 0.38735-0.65723 0.073-0.94933 0.2413-0.94933 0.57785zm0.25718-0.0191c0-0.19685 0.17462-0.32385 0.69215-0.38735v0.42863c-0.14923 0.13335-0.27305 0.20637-0.42228 0.20637-0.1524 0-0.26987-0.073-0.26987-0.24765z"/>
   <path d="m117.94 250.13h0.26035v-0.9906c0.10477-0.26035 0.26035-0.3556 0.39052-0.3556 0.0635 0 0.0984 0.01 0.14923 0.0254l0.0508-0.2286c-0.0508-0.0222-0.0984-0.0318-0.1651-0.0318-0.17463 0-0.33338 0.12383-0.43815 0.3175h-0.01l-0.0222-0.2794h-0.2159z"/>
   <path d="m119.09 249.65c0 0.3048 0.11112 0.51435 0.44132 0.51435 0.0953 0 0.20003-0.0286 0.28575-0.0571l-0.0508-0.19685c-0.0508 0.019-0.12065 0.0413-0.17462 0.0413-0.1778 0-0.23813-0.10795-0.23813-0.29845v-0.85725h0.41593v-0.21273h-0.41593v-0.4318h-0.21907l-0.0318 0.4318-0.2413 0.0159v0.19685h0.2286z"/>
   <path d="m120.12 250.13h0.26035v-1.1176c0.15557-0.15557 0.26352-0.23812 0.42227-0.23812 0.2032 0 0.2921 0.12382 0.2921 0.41275v0.94297h0.26035v-0.9779c0-0.3937-0.14605-0.60325-0.4699-0.60325-0.21272 0-0.3683 0.1143-0.51435 0.254l0.01-0.3175v-0.61595h-0.26035z"/>
   <path d="m121.68 249.96c0.14605 0.12065 0.3556 0.21272 0.57467 0.21272 0.36513 0 0.56515-0.20955 0.56515-0.46037 0-0.2921-0.24765-0.38418-0.4699-0.46673-0.17462-0.0667-0.3429-0.12382-0.3429-0.2667 0-0.11747 0.0889-0.22225 0.28258-0.22225 0.13652 0 0.24765 0.0572 0.35242 0.13653l0.12383-0.1651c-0.11748-0.0952-0.28575-0.17463-0.47943-0.17463-0.33337 0-0.53022 0.1905-0.53022 0.43815 0 0.26035 0.2413 0.36513 0.46037 0.4445 0.16828 0.0635 0.35243 0.13335 0.35243 0.2921 0 0.13335-0.1016 0.2413-0.3048 0.2413-0.18415 0-0.32068-0.0762-0.45403-0.18415z"/>
   <path d="m123.23 249.65c0 0.3048 0.11112 0.51435 0.44132 0.51435 0.0952 0 0.20003-0.0286 0.28575-0.0571l-0.0508-0.19685c-0.0508 0.019-0.12065 0.0413-0.17462 0.0413-0.1778 0-0.23813-0.10795-0.23813-0.29845v-0.85725h0.41593v-0.21273h-0.41593v-0.4318h-0.21907l-0.0318 0.4318-0.2413 0.0159v0.19685h0.2286z"/>
   <path d="m124.11 249.36c0 0.51118 0.33655 0.80645 0.71438 0.80645 0.37782 0 0.71437-0.29527 0.71437-0.80645 0-0.51752-0.33655-0.8128-0.71437-0.8128-0.37783 0-0.71438 0.29528-0.71438 0.8128zm0.26988 0c0-0.3556 0.18097-0.5969 0.4445-0.5969 0.2667 0 0.4445 0.2413 0.4445 0.5969 0 0.35243-0.1778 0.59055-0.4445 0.59055-0.26353 0-0.4445-0.23812-0.4445-0.59055z"/>
   <path d="m125.95 250.13h0.26035v-1.1176c0.15558-0.15557 0.26353-0.23812 0.42228-0.23812 0.2032 0 0.2921 0.12382 0.2921 0.41275v0.94297h0.26035v-0.9779c0-0.3937-0.14605-0.60325-0.4699-0.60325-0.21273 0-0.37148 0.1143-0.51753 0.26035h-0.01l-0.0222-0.22225h-0.2159z"/>
   <path d="m127.57 249.36c0 0.50483 0.32702 0.80645 0.73977 0.80645 0.20955 0 0.37465-0.073 0.508-0.15875l-0.0921-0.17145c-0.1143 0.073-0.23813 0.12065-0.38418 0.12065-0.29527 0-0.4953-0.20955-0.51435-0.54292h1.0414c6e-3 -0.0381 0.01-0.0889 0.01-0.14288 0-0.44132-0.22225-0.7239-0.61595-0.7239-0.35243 0-0.69215 0.30798-0.69215 0.8128zm0.254-0.11747c0.0317-0.31115 0.2286-0.48895 0.4445-0.48895 0.2413 0 0.381 0.17462 0.381 0.48895z"/>
  </g>
  <circle cx="86.347" cy="248.59" r="1.3613" fill="#47d58a"/>
  <g fill="#e8eaec" stroke-linecap="round" stroke-width=".26458" aria-label="Poker Room">
   <path d="m68.131 249.6h0.2667v-0.8255h0.37465c0.45402 0 0.76835-0.20638 0.76835-0.64453 0-0.4572-0.30798-0.61277-0.76835-0.61277h-0.64135zm0.2667-1.0414v-0.82868h0.33972c0.35878 0 0.53975 0.0984 0.53975 0.40005 0 0.29528-0.17462 0.42863-0.53975 0.42863z"/>
   <path d="m69.737 248.83c0 0.51117 0.33655 0.80645 0.71438 0.80645s0.71438-0.29528 0.71438-0.80645c0-0.51753-0.33655-0.8128-0.71438-0.8128s-0.71438 0.29527-0.71438 0.8128zm0.26988 0c0-0.3556 0.18098-0.5969 0.4445-0.5969 0.2667 0 0.4445 0.2413 0.4445 0.5969 0 0.35242-0.1778 0.59055-0.4445 0.59055-0.26352 0-0.4445-0.23813-0.4445-0.59055z"/>
   <path d="m71.575 249.6h0.25718v-0.4064l0.28892-0.33655 0.45085 0.74295h0.28575l-0.58738-0.92393 0.51752-0.61912h-0.28892l-0.65722 0.8128h-0.0095v-1.5304h-0.25718z"/>
   <path d="m72.974 248.83c0 0.50482 0.32702 0.80645 0.73978 0.80645 0.20955 0 0.37465-0.073 0.508-0.15875l-0.09208-0.17145c-0.1143 0.073-0.23812 0.12065-0.38418 0.12065-0.29528 0-0.4953-0.20955-0.51435-0.54293h1.0414c0.0063-0.0381 0.0095-0.0889 0.0095-0.14287 0-0.44133-0.22225-0.7239-0.61595-0.7239-0.35242 0-0.69215 0.30797-0.69215 0.8128zm0.254-0.11748c0.03175-0.31115 0.2286-0.48895 0.4445-0.48895 0.2413 0 0.381 0.17463 0.381 0.48895z"/>
   <path d="m74.664 249.6h0.26035v-0.9906c0.10478-0.26035 0.26035-0.3556 0.39052-0.3556 0.0635 0 0.09843 0.01 0.14922 0.0254l0.0508-0.2286c-0.0508-0.0222-0.09843-0.0317-0.1651-0.0317-0.17462 0-0.33338 0.12382-0.43815 0.3175h-0.0095l-0.02223-0.2794h-0.2159z"/>
   <path d="m76.689 247.73h0.34925c0.32385 0 0.50165 0.0984 0.50165 0.37148 0 0.26987-0.1778 0.40322-0.50165 0.40322h-0.34925zm1.1779 1.8701-0.53022-0.90805c0.28258-0.073 0.46672-0.2667 0.46672-0.59055 0-0.4318-0.3048-0.5842-0.72708-0.5842h-0.65405v2.0828h0.2667v-0.87948h0.37465l0.50165 0.87948z"/>
   <path d="m78.09 248.83c0 0.51117 0.33655 0.80645 0.71438 0.80645s0.71438-0.29528 0.71438-0.80645c0-0.51753-0.33655-0.8128-0.71438-0.8128s-0.71438 0.29527-0.71438 0.8128zm0.26988 0c0-0.3556 0.18098-0.5969 0.4445-0.5969 0.2667 0 0.4445 0.2413 0.4445 0.5969 0 0.35242-0.1778 0.59055-0.4445 0.59055-0.26352 0-0.4445-0.23813-0.4445-0.59055z"/>
   <path d="m79.814 248.83c0 0.51117 0.33655 0.80645 0.71438 0.80645s0.71438-0.29528 0.71438-0.80645c0-0.51753-0.33655-0.8128-0.71438-0.8128s-0.71438 0.29527-0.71438 0.8128zm0.26988 0c0-0.3556 0.18098-0.5969 0.4445-0.5969 0.2667 0 0.4445 0.2413 0.4445 0.5969 0 0.35242-0.1778 0.59055-0.4445 0.59055-0.26352 0-0.4445-0.23813-0.4445-0.59055z"/>
   <path d="m81.652 249.6h0.26035v-1.1176c0.14288-0.15875 0.27305-0.23813 0.38735-0.23813 0.19685 0 0.28892 0.12383 0.28892 0.41275v0.94298h0.26035v-1.1176c0.14288-0.15875 0.2667-0.23813 0.38735-0.23813 0.19368 0 0.28575 0.12383 0.28575 0.41275v0.94298h0.26035v-0.9779c0-0.3937-0.1524-0.60325-0.4699-0.60325-0.18732 0-0.34608 0.12065-0.508 0.29527-0.0635-0.18415-0.1905-0.29527-0.42545-0.29527-0.18415 0-0.34608 0.1143-0.47942 0.26035h-0.0095l-0.02222-0.22225h-0.2159z"/>
  </g>
  <circle cx="79.997" cy="251.76" r="1.3613" fill="#47d58a"/>
  <g fill="#e8eaec" stroke-linecap="round" stroke-width=".26458" aria-label="Angry Birds">
   <path d="m63.077 251.93 0.1016-0.3175c0.07303-0.23178 0.1397-0.46038 0.20638-0.70168h0.0127c0.06668 0.2413 0.13335 0.4699 0.20638 0.70168l0.09842 0.3175zm0.89218 0.84772h0.2794l-0.70485-2.0828h-0.29845l-0.70485 2.0828h0.26988l0.20002-0.635h0.75882z"/>
   <path d="m64.506 252.78h0.26035v-1.1176c0.15558-0.15557 0.26352-0.23812 0.42228-0.23812 0.2032 0 0.2921 0.12382 0.2921 0.41275v0.94297h0.26035v-0.9779c0-0.3937-0.14605-0.60325-0.4699-0.60325-0.21272 0-0.37148 0.1143-0.51752 0.26035h-0.0095l-0.02222-0.22225h-0.2159z"/>
   <path d="m66.353 253.04c0-0.0889 0.04762-0.18097 0.15875-0.26035 0.06668 0.019 0.1397 0.0254 0.20002 0.0254h0.2667c0.20002 0 0.31115 0.0476 0.31115 0.1905 0 0.16193-0.19368 0.31433-0.48895 0.31433-0.2794 0-0.44768-0.10478-0.44768-0.26988zm-0.2286 0.0349c0 0.2667 0.26035 0.41592 0.63818 0.41592 0.47942 0 0.78105-0.24765 0.78105-0.5334 0-0.25717-0.18098-0.3683-0.53975-0.3683h-0.29845c-0.20955 0-0.27305-0.0699-0.27305-0.16827 0-0.0857 0.04445-0.13653 0.09843-0.18415 0.06985 0.0349 0.15558 0.054 0.23178 0.054 0.31432 0 0.56515-0.20637 0.56515-0.53657 0-0.13018-0.05397-0.24765-0.127-0.3175h0.3175v-0.20003h-0.53658c-0.05715-0.0222-0.13335-0.0381-0.21908-0.0381-0.31432 0-0.58102 0.21273-0.58102 0.54928 0 0.18415 0.09843 0.33337 0.20002 0.41592v0.0127c-0.07937 0.054-0.16828 0.15558-0.16828 0.28575 0 0.12065 0.06033 0.2032 0.13652 0.25083v0.0127c-0.1397 0.0952-0.22542 0.21907-0.22542 0.34925zm0.63818-0.95885c-0.1778 0-0.32702-0.14288-0.32702-0.3683 0-0.22543 0.14605-0.35878 0.32702-0.35878s0.32702 0.13335 0.32702 0.35878c0 0.22542-0.14922 0.3683-0.32702 0.3683z"/>
   <path d="m67.842 252.78h0.26035v-0.9906c0.10478-0.26035 0.26035-0.3556 0.39052-0.3556 0.0635 0 0.09843 0.01 0.14922 0.0254l0.0508-0.2286c-0.0508-0.0222-0.09842-0.0317-0.1651-0.0317-0.17462 0-0.33338 0.12383-0.43815 0.3175h-0.0095l-0.02222-0.2794h-0.2159z"/>
   <path d="m68.903 253.2-0.0508 0.20638c0.0508 0.019 0.11112 0.0317 0.18098 0.0317 0.31115 0 0.4699-0.23178 0.57785-0.53658l0.58102-1.67h-0.254l-0.27622 0.85408c-0.04127 0.13652-0.08572 0.29527-0.13018 0.43497h-0.0127c-0.04763-0.14287-0.1016-0.30162-0.14922-0.43497l-0.31432-0.85408h-0.26988l0.61912 1.5462-0.03493 0.1143c-0.0635 0.1905-0.17462 0.3302-0.34925 0.3302-0.0381 0-0.08573-0.0127-0.11748-0.0222z"/>
   <path d="m71.145 252.78h0.66675c0.46355 0 0.7874-0.20002 0.7874-0.6096 0-0.28575-0.1778-0.45085-0.4826-0.49847v-0.0127c0.24765-0.0635 0.36512-0.24765 0.36512-0.45403 0-0.36512-0.29528-0.508-0.71755-0.508h-0.61912zm0.2667-1.1938v-0.67945h0.32068c0.32068 0 0.48895 0.0952 0.48895 0.32068 0 0.23177-0.14922 0.35877-0.50165 0.35877zm0 0.98425v-0.7874h0.36195c0.36512 0 0.56515 0.11748 0.56515 0.37465 0 0.28258-0.20955 0.41275-0.56515 0.41275z"/>
   <path d="m73.116 250.92c0.1016 0 0.18098-0.0699 0.18098-0.16827 0-0.1016-0.07937-0.16828-0.18098-0.16828-0.1016 0-0.18098 0.0667-0.18098 0.16828 0 0.0984 0.07937 0.16827 0.18098 0.16827zm-0.13335 1.8606h0.26035v-1.543h-0.26035z"/>
   <path d="m73.764 252.78h0.26035v-0.9906c0.10478-0.26035 0.26035-0.3556 0.39052-0.3556 0.0635 0 0.09843 0.01 0.14922 0.0254l0.0508-0.2286c-0.0508-0.0222-0.09843-0.0317-0.1651-0.0317-0.17462 0-0.33338 0.12383-0.43815 0.3175h-0.0095l-0.02223-0.2794h-0.2159z"/>
   <path d="m74.726 252.01c0 0.51435 0.25082 0.80645 0.63818 0.80645 0.18098 0 0.34608-0.1016 0.46672-0.21907h0.0095l0.02223 0.18097h0.2159v-2.2606h-0.26352v0.59373l0.0127 0.26352c-0.13652-0.11112-0.254-0.1778-0.4318-0.1778-0.35242 0-0.66992 0.31115-0.66992 0.8128zm0.26988-3e-3c0-0.35243 0.19685-0.59055 0.4445-0.59055 0.127 0 0.24448 0.0444 0.37465 0.16192v0.80645c-0.127 0.14288-0.25082 0.21273-0.3937 0.21273-0.26988 0-0.42545-0.22225-0.42545-0.59055z"/>
   <path d="m76.427 252.6c0.14605 0.12065 0.3556 0.21272 0.57468 0.21272 0.36512 0 0.56515-0.20955 0.56515-0.46037 0-0.2921-0.24765-0.38418-0.4699-0.46673-0.17462-0.0667-0.3429-0.12382-0.3429-0.2667 0-0.11747 0.0889-0.22225 0.28258-0.22225 0.13652 0 0.24765 0.0572 0.35242 0.13653l0.12382-0.1651c-0.11748-0.0952-0.28575-0.17463-0.47942-0.17463-0.33338 0-0.53022 0.1905-0.53022 0.43815 0 0.26035 0.2413 0.36513 0.46038 0.4445 0.16828 0.0635 0.35242 0.13335 0.35242 0.2921 0 0.13335-0.1016 0.2413-0.3048 0.2413-0.18415 0-0.32068-0.0762-0.45402-0.18415z"/>
  </g>
  <circle cx="62.534" cy="275.31" r="1.3613" fill="#47d58a"/>
  <g fill="#e8eaec" stroke-linecap="round" stroke-width=".26458" aria-label="2048">
   <path d="m54.035 276.32h1.3081v-0.22543h-0.58738c-0.10478 0-0.2286 0.01-0.33972 0.019 0.47942-0.50165 0.8255-0.87947 0.8255-1.2605 0-0.35878-0.23178-0.5969-0.60642-0.5969-0.26352 0-0.4445 0.12382-0.61278 0.30797l0.14922 0.14923c0.11748-0.13653 0.26352-0.24448 0.4318-0.24448 0.25718 0 0.38418 0.1651 0.38418 0.39688 0 0.32702-0.3429 0.69215-0.9525 1.2986z"/>
   <path d="m56.274 276.36c0.40322 0 0.6477-0.37783 0.6477-1.0573s-0.24448-1.0446-0.6477-1.0446c-0.4064 0-0.65088 0.36512-0.65088 1.0446s0.24448 1.0573 0.65088 1.0573zm0-0.20955c-0.23812 0-0.39688-0.254-0.39688-0.84773 0-0.59372 0.15875-0.83502 0.39688-0.83502 0.23495 0 0.3937 0.2413 0.3937 0.83502 0 0.59373-0.15875 0.84773-0.3937 0.84773z"/>
   <path d="m57.389 275.56 0.47308-0.69215c0.05715-0.0984 0.1143-0.18733 0.1651-0.28575h0.0127c-0.0063 0.10795-0.01588 0.28257-0.01588 0.39052v0.58738zm1.1589 0h-0.27622v-1.2573h-0.2921l-0.86678 1.2954v0.17145h0.91122v0.5588h0.24765v-0.5588h0.27622z"/>
   <path d="m58.999 275.78c0-0.18415 0.12065-0.33337 0.28258-0.44132 0.2921 0.11747 0.54928 0.21272 0.54928 0.47307 0 0.20955-0.16192 0.3556-0.39688 0.3556-0.24765 0-0.43498-0.16192-0.43498-0.38735zm0.5715-0.56197c-0.24448-0.0953-0.46672-0.19685-0.46672-0.43815 0-0.19685 0.1397-0.32703 0.32702-0.32703 0.22225 0 0.35242 0.15875 0.35242 0.35878 0 0.14922-0.0762 0.28575-0.21272 0.4064zm-0.80645 0.58737c0 0.32068 0.28258 0.55563 0.66358 0.55563 0.3937 0 0.65405-0.23813 0.65405-0.53975 0-0.27305-0.17145-0.41593-0.35242-0.5207v-0.0127c0.12382-0.0952 0.2794-0.27623 0.2794-0.48895 0-0.31433-0.21908-0.53975-0.5715-0.53975-0.32702 0-0.57468 0.20955-0.57468 0.5207 0 0.21272 0.13335 0.36195 0.28258 0.46672v0.0127c-0.1905 0.1016-0.381 0.28258-0.381 0.5461z"/>
  </g>
  <circle cx="56.978" cy="278.75" r="1.3613" fill="#47d58a"/>
  <g fill="#e8eaec" stroke-linecap="round" stroke-width=".26458" aria-label="Flappy Bird">
   <path d="m39.841 279.76h0.2667v-0.93345h0.79375v-0.22225h-0.79375v-0.70485h0.93662v-0.22225h-1.2033z"/>
   <path d="m41.376 279.45c0 0.22543 0.07937 0.34925 0.27622 0.34925 0.06985 0 0.1143-0.01 0.14922-0.0254l-0.03493-0.19685c-0.02857 6e-3 -0.04127 6e-3 -0.05715 6e-3 -0.0381 0-0.07303-0.0317-0.07303-0.1143v-1.9685h-0.26035z"/>
   <path d="m42.112 279.36c0 0.27623 0.19368 0.43815 0.45402 0.43815 0.1905 0 0.36195-0.1016 0.51118-0.22225h0.0064l0.02222 0.18415h0.2159v-0.94615c0-0.38417-0.15875-0.635-0.53658-0.635-0.24765 0-0.46355 0.10795-0.60642 0.20003l0.10478 0.18097c0.12065-0.0825 0.2794-0.1651 0.46038-0.1651 0.25082 0 0.3175 0.1905 0.3175 0.38735-0.65722 0.073-0.94932 0.2413-0.94932 0.57785zm0.25718-0.019c0-0.19685 0.17462-0.32385 0.69215-0.38735v0.42863c-0.14922 0.13335-0.27305 0.20637-0.42228 0.20637-0.1524 0-0.26988-0.073-0.26988-0.24765z"/>
   <path d="m44.067 279.62c0.14288 0.11113 0.28575 0.1778 0.42862 0.1778 0.35242 0 0.66675-0.30797 0.66675-0.83185 0-0.47942-0.21272-0.7874-0.6096-0.7874-0.18098 0-0.35242 0.0984-0.49212 0.2159h-0.0095l-0.02222-0.1778h-0.2159v2.1939h0.26035v-0.5207zm0.0063-0.2032v-0.80962c0.1524-0.13653 0.28258-0.20955 0.41275-0.20955 0.2921 0 0.4064 0.2286 0.4064 0.56832 0 0.381-0.18732 0.61278-0.44132 0.61278-0.1016 0-0.23812-0.0444-0.37782-0.16193z"/>
   <path d="m45.828 279.62c0.14288 0.11113 0.28575 0.1778 0.42862 0.1778 0.35242 0 0.66675-0.30797 0.66675-0.83185 0-0.47942-0.21272-0.7874-0.6096-0.7874-0.18098 0-0.35242 0.0984-0.49212 0.2159h-0.0095l-0.02222-0.1778h-0.2159v2.1939h0.26035v-0.5207zm0.0063-0.2032v-0.80962c0.1524-0.13653 0.28258-0.20955 0.41275-0.20955 0.2921 0 0.4064 0.2286 0.4064 0.56832 0 0.381-0.18732 0.61278-0.44132 0.61278-0.1016 0-0.23812-0.0444-0.37782-0.16193z"/>
   <path d="m47.218 280.19-0.0508 0.20638c0.0508 0.019 0.11112 0.0317 0.18098 0.0317 0.31115 0 0.4699-0.23178 0.57785-0.53658l0.58102-1.67h-0.254l-0.27622 0.85408c-0.04127 0.13652-0.08572 0.29527-0.13018 0.43497h-0.0127c-0.04763-0.14287-0.1016-0.30162-0.14922-0.43497l-0.31432-0.85408h-0.26988l0.61912 1.5462-0.03493 0.1143c-0.0635 0.1905-0.17462 0.3302-0.34925 0.3302-0.0381 0-0.08573-0.0127-0.11748-0.0222z"/>
   <path d="m49.459 279.76h0.66675c0.46355 0 0.7874-0.20002 0.7874-0.6096 0-0.28575-0.1778-0.45085-0.4826-0.49847v-0.0127c0.24765-0.0635 0.36512-0.24765 0.36512-0.45403 0-0.36512-0.29528-0.508-0.71755-0.508h-0.61912zm0.2667-1.1938v-0.67945h0.32068c0.32068 0 0.48895 0.0952 0.48895 0.32068 0 0.23177-0.14922 0.35877-0.50165 0.35877zm0 0.98425v-0.7874h0.36195c0.36512 0 0.56515 0.11748 0.56515 0.37465 0 0.28258-0.20955 0.41275-0.56515 0.41275z"/>
   <path d="m51.431 277.9c0.1016 0 0.18098-0.0699 0.18098-0.16827 0-0.1016-0.07937-0.16828-0.18098-0.16828-0.1016 0-0.18098 0.0667-0.18098 0.16828 0 0.0984 0.07937 0.16827 0.18098 0.16827zm-0.13335 1.8606h0.26035v-1.543h-0.26035z"/>
   <path d="m52.079 279.76h0.26035v-0.9906c0.10478-0.26035 0.26035-0.3556 0.39052-0.3556 0.0635 0 0.09843 0.01 0.14922 0.0254l0.0508-0.2286c-0.0508-0.0222-0.09842-0.0317-0.1651-0.0317-0.17462 0-0.33338 0.12383-0.43815 0.3175h-0.0095l-0.02222-0.2794h-0.2159z"/>
   <path d="m53.041 279c0 0.51435 0.25082 0.80645 0.63818 0.80645 0.18098 0 0.34608-0.1016 0.46672-0.21907h0.0095l0.02222 0.18097h0.2159v-2.2606h-0.26352v0.59373l0.0127 0.26352c-0.13652-0.11112-0.254-0.1778-0.4318-0.1778-0.35242 0-0.66992 0.31115-0.66992 0.8128zm0.26988-3e-3c0-0.35243 0.19685-0.59055 0.4445-0.59055 0.127 0 0.24448 0.0445 0.37465 0.16192v0.80645c-0.127 0.14288-0.25082 0.21273-0.3937 0.21273-0.26988 0-0.42545-0.22225-0.42545-0.59055z"/>
  </g>
  <circle cx="149.85" cy="219.75" r="1.3613" fill="#47d58a"/>
  <g fill="#e8eaec" stroke-linecap="round" stroke-width=".26458" aria-label="Cyberpunk 2077">
   <path d="m126.26 219.72c0 0.67945 0.39053 1.0795 0.9144 1.0795 0.26353 0 0.4699-0.11112 0.63183-0.30162l-0.14923-0.16193c-0.13335 0.14923-0.2794 0.23178-0.47625 0.23178-0.39687 0-0.6477-0.3302-0.6477-0.85408 0-0.51752 0.26353-0.84137 0.6604-0.84137 0.17145 0 0.3048 0.0762 0.41593 0.19367l0.14922-0.16827c-0.12382-0.13653-0.32067-0.25718-0.56832-0.25718-0.5334 0-0.93028 0.40958-0.93028 1.0795z"/>
   <path d="m128.02 221.19-0.0508 0.20638c0.0508 0.019 0.11113 0.0317 0.18098 0.0317 0.31115 0 0.4699-0.23178 0.57785-0.53658l0.58102-1.67h-0.254l-0.27622 0.85408c-0.0413 0.13652-0.0857 0.29527-0.13018 0.43497h-0.0127c-0.0476-0.14287-0.1016-0.30162-0.14922-0.43497l-0.31433-0.85408h-0.26987l0.61912 1.5462-0.0349 0.1143c-0.0635 0.1905-0.17463 0.3302-0.34925 0.3302-0.0381 0-0.0857-0.0127-0.11748-0.0222z"/>
   <path d="m129.61 220.76h0.20955l0.0222-0.1524h0.01c0.13652 0.12065 0.29845 0.1905 0.44132 0.1905 0.35243 0 0.66675-0.30797 0.66675-0.83502 0-0.47625-0.21272-0.78423-0.61277-0.78423-0.17145 0-0.3429 0.0921-0.4826 0.2159l6e-3 -0.2794v-0.61595h-0.26035zm0.26035-0.3429v-0.80962c0.14605-0.13653 0.28257-0.20955 0.41275-0.20955 0.2921 0 0.4064 0.2286 0.4064 0.56832 0 0.381-0.18733 0.61278-0.44133 0.61278-0.1016 0-0.2413-0.0444-0.37782-0.16193z"/>
   <path d="m131.25 219.99c0 0.50483 0.32703 0.80645 0.73978 0.80645 0.20955 0 0.37465-0.073 0.508-0.15875l-0.0921-0.17145c-0.1143 0.073-0.23812 0.12065-0.38417 0.12065-0.29528 0-0.4953-0.20955-0.51435-0.54292h1.0414c6e-3 -0.0381 0.01-0.0889 0.01-0.14288 0-0.44132-0.22225-0.7239-0.61595-0.7239-0.35242 0-0.69215 0.30798-0.69215 0.8128zm0.254-0.11747c0.0317-0.31115 0.2286-0.48895 0.4445-0.48895 0.2413 0 0.381 0.17462 0.381 0.48895z"/>
   <path d="m132.94 220.76h0.26035v-0.9906c0.10478-0.26035 0.26035-0.3556 0.39053-0.3556 0.0635 0 0.0984 0.01 0.14922 0.0254l0.0508-0.2286c-0.0508-0.0222-0.0984-0.0318-0.1651-0.0318-0.17462 0-0.33337 0.12383-0.43815 0.3175h-0.01l-0.0222-0.2794h-0.2159z"/>
   <path d="m134.3 220.62c0.14287 0.11113 0.28575 0.1778 0.42862 0.1778 0.35243 0 0.66675-0.30797 0.66675-0.83185 0-0.47942-0.21272-0.7874-0.6096-0.7874-0.18097 0-0.35242 0.0984-0.49212 0.2159h-0.01l-0.0222-0.1778h-0.2159v2.1939h0.26035v-0.5207zm6e-3 -0.2032v-0.80962c0.1524-0.13653 0.28257-0.20955 0.41275-0.20955 0.2921 0 0.4064 0.2286 0.4064 0.56832 0 0.381-0.18733 0.61278-0.44133 0.61278-0.1016 0-0.23812-0.0444-0.37782-0.16193z"/>
   <path d="m135.78 220.2c0 0.3937 0.14605 0.60325 0.47307 0.60325 0.21273 0 0.36513-0.11112 0.508-0.2794h0.01l0.0222 0.2413h0.2159v-1.543h-0.26035v1.0954c-0.14605 0.18097-0.25717 0.26035-0.41592 0.26035-0.2032 0-0.28893-0.12383-0.28893-0.41275v-0.94298h-0.26352z"/>
   <path d="m137.54 220.76h0.26035v-1.1176c0.15557-0.15557 0.26352-0.23812 0.42227-0.23812 0.2032 0 0.2921 0.12382 0.2921 0.41275v0.94297h0.26035v-0.9779c0-0.3937-0.14605-0.60325-0.4699-0.60325-0.21272 0-0.37147 0.1143-0.51752 0.26035h-0.01l-0.0222-0.22225h-0.2159z"/>
   <path d="m139.27 220.76h0.25717v-0.4064l0.28893-0.33655 0.45085 0.74295h0.28575l-0.58738-0.92392 0.51753-0.61913h-0.28893l-0.65722 0.8128h-0.01v-1.5304h-0.25717z"/>
   <path d="m141.35 220.76h1.3081v-0.22542h-0.58737c-0.10478 0-0.2286 0.01-0.33973 0.019 0.47943-0.50165 0.8255-0.87948 0.8255-1.2605 0-0.35877-0.23177-0.5969-0.60642-0.5969-0.26353 0-0.4445 0.12383-0.61278 0.30798l0.14923 0.14922c0.11747-0.13652 0.26352-0.24447 0.4318-0.24447 0.25717 0 0.38417 0.1651 0.38417 0.39687 0 0.32703-0.3429 0.69215-0.9525 1.2986z"/>
   <path d="m143.59 220.8c0.40322 0 0.6477-0.37782 0.6477-1.0573s-0.24448-1.0446-0.6477-1.0446c-0.4064 0-0.65088 0.36513-0.65088 1.0446s0.24448 1.0573 0.65088 1.0573zm0-0.20955c-0.23813 0-0.39688-0.254-0.39688-0.84772 0-0.59373 0.15875-0.83503 0.39688-0.83503 0.23495 0 0.3937 0.2413 0.3937 0.83503 0 0.59372-0.15875 0.84772-0.3937 0.84772z"/>
   <path d="m144.93 220.76h0.26988c0.0349-0.79057 0.13335-1.251 0.61277-1.8637v-0.16193h-1.3049v0.22543h1.0096c-0.40005 0.55562-0.55245 1.0382-0.58738 1.8002z"/>
   <path d="m146.51 220.76h0.26988c0.0349-0.79057 0.13335-1.251 0.61277-1.8637v-0.16193h-1.3049v0.22543h1.0096c-0.40005 0.55562-0.55245 1.0382-0.58738 1.8002z"/>
  </g>
  <circle cx="155.14" cy="225.57" r="1.3613" fill="#47d58a"/>
  <g fill="#e8eaec" stroke-linecap="round" stroke-width=".26458" aria-label="Kingdom Come">
   <path d="m132.71 226.58h0.2667v-0.6604l0.3556-0.42228 0.6223 1.0827h0.29528l-0.75248-1.289 0.65405-0.79375h-0.30162l-0.86678 1.0446h-6e-3v-1.0446h-0.2667z"/>
   <path d="m134.65 224.72c0.1016 0 0.18098-0.0699 0.18098-0.16828 0-0.1016-0.0794-0.16827-0.18098-0.16827-0.1016 0-0.18097 0.0667-0.18097 0.16827 0 0.0984 0.0794 0.16828 0.18097 0.16828zm-0.13335 1.8606h0.26035v-1.543h-0.26035z"/>
   <path d="m135.3 226.58h0.26035v-1.1176c0.15557-0.15558 0.26352-0.23813 0.42227-0.23813 0.2032 0 0.2921 0.12383 0.2921 0.41275v0.94298h0.26035v-0.9779c0-0.3937-0.14605-0.60325-0.4699-0.60325-0.21272 0-0.37147 0.1143-0.51752 0.26035h-0.01l-0.0222-0.22225h-0.2159z"/>
   <path d="m137.15 226.84c0-0.0889 0.0476-0.18098 0.15875-0.26035 0.0667 0.019 0.1397 0.0254 0.20003 0.0254h0.2667c0.20002 0 0.31115 0.0476 0.31115 0.1905 0 0.16192-0.19368 0.31432-0.48895 0.31432-0.2794 0-0.44768-0.10477-0.44768-0.26987zm-0.2286 0.0349c0 0.2667 0.26035 0.41593 0.63818 0.41593 0.47942 0 0.78105-0.24765 0.78105-0.5334 0-0.25718-0.18098-0.3683-0.53975-0.3683h-0.29845c-0.20955 0-0.27305-0.0699-0.27305-0.16828 0-0.0857 0.0445-0.13652 0.0984-0.18415 0.0699 0.0349 0.15558 0.054 0.23178 0.054 0.31432 0 0.56515-0.20638 0.56515-0.53658 0-0.13017-0.054-0.24765-0.127-0.3175h0.3175v-0.20002h-0.53658c-0.0572-0.0222-0.13335-0.0381-0.21907-0.0381-0.31433 0-0.58103 0.21272-0.58103 0.54927 0 0.18415 0.0984 0.33338 0.20003 0.41593v0.0127c-0.0794 0.054-0.16828 0.15557-0.16828 0.28575 0 0.12065 0.0603 0.2032 0.13653 0.25082v0.0127c-0.1397 0.0952-0.22543 0.21908-0.22543 0.34925zm0.63818-0.95885c-0.1778 0-0.32703-0.14287-0.32703-0.3683 0-0.22542 0.14605-0.35877 0.32703-0.35877 0.18097 0 0.32702 0.13335 0.32702 0.35877 0 0.22543-0.14922 0.3683-0.32702 0.3683z"/>
   <path d="m138.48 225.81c0 0.51435 0.25082 0.80645 0.63817 0.80645 0.18098 0 0.34608-0.1016 0.46673-0.21908h0.01l0.0222 0.18098h0.2159v-2.2606h-0.26353v0.59372l0.0127 0.26353c-0.13652-0.11113-0.254-0.1778-0.4318-0.1778-0.35242 0-0.66992 0.31115-0.66992 0.8128zm0.26987-3e-3c0-0.35242 0.19685-0.59055 0.4445-0.59055 0.127 0 0.24448 0.0444 0.37465 0.16193v0.80645c-0.127 0.14287-0.25082 0.21272-0.3937 0.21272-0.26987 0-0.42545-0.22225-0.42545-0.59055z"/>
   <path d="m140.24 225.81c0 0.51117 0.33655 0.80645 0.71438 0.80645 0.37782 0 0.71437-0.29528 0.71437-0.80645 0-0.51753-0.33655-0.8128-0.71437-0.8128-0.37783 0-0.71438 0.29527-0.71438 0.8128zm0.26988 0c0-0.3556 0.18097-0.5969 0.4445-0.5969 0.2667 0 0.4445 0.2413 0.4445 0.5969 0 0.35242-0.1778 0.59055-0.4445 0.59055-0.26353 0-0.4445-0.23813-0.4445-0.59055z"/>
   <path d="m142.08 226.58h0.26035v-1.1176c0.14287-0.15875 0.27305-0.23813 0.38735-0.23813 0.19685 0 0.28892 0.12383 0.28892 0.41275v0.94298h0.26035v-1.1176c0.14288-0.15875 0.2667-0.23813 0.38735-0.23813 0.19368 0 0.28575 0.12383 0.28575 0.41275v0.94298h0.26035v-0.9779c0-0.3937-0.1524-0.60325-0.4699-0.60325-0.18732 0-0.34607 0.12065-0.508 0.29527-0.0635-0.18415-0.1905-0.29527-0.42545-0.29527-0.18415 0-0.34607 0.1143-0.47942 0.26035h-0.01l-0.0222-0.22225h-0.2159z"/>
   <path d="m145.24 225.54c0 0.67945 0.39053 1.0795 0.9144 1.0795 0.26353 0 0.4699-0.11113 0.63183-0.30163l-0.14923-0.16192c-0.13335 0.14922-0.2794 0.23177-0.47625 0.23177-0.39687 0-0.6477-0.3302-0.6477-0.85407 0-0.51753 0.26353-0.84138 0.6604-0.84138 0.17145 0 0.3048 0.0762 0.41593 0.19368l0.14922-0.16828c-0.12382-0.13652-0.32067-0.25717-0.56832-0.25717-0.5334 0-0.93028 0.40957-0.93028 1.0795z"/>
   <path d="m147.03 225.81c0 0.51117 0.33655 0.80645 0.71437 0.80645 0.37783 0 0.71438-0.29528 0.71438-0.80645 0-0.51753-0.33655-0.8128-0.71438-0.8128-0.37782 0-0.71437 0.29527-0.71437 0.8128zm0.26987 0c0-0.3556 0.18098-0.5969 0.4445-0.5969 0.2667 0 0.4445 0.2413 0.4445 0.5969 0 0.35242-0.1778 0.59055-0.4445 0.59055-0.26352 0-0.4445-0.23813-0.4445-0.59055z"/>
   <path d="m148.87 226.58h0.26035v-1.1176c0.14288-0.15875 0.27305-0.23813 0.38735-0.23813 0.19685 0 0.28893 0.12383 0.28893 0.41275v0.94298h0.26035v-1.1176c0.14287-0.15875 0.2667-0.23813 0.38735-0.23813 0.19367 0 0.28575 0.12383 0.28575 0.41275v0.94298h0.26035v-0.9779c0-0.3937-0.1524-0.60325-0.4699-0.60325-0.18733 0-0.34608 0.12065-0.508 0.29527-0.0635-0.18415-0.1905-0.29527-0.42545-0.29527-0.18415 0-0.34608 0.1143-0.47943 0.26035h-0.01l-0.0222-0.22225h-0.2159z"/>
   <path d="m151.38 225.81c0 0.50482 0.32702 0.80645 0.73977 0.80645 0.20955 0 0.37465-0.073 0.508-0.15875l-0.0921-0.17145c-0.1143 0.073-0.23813 0.12065-0.38418 0.12065-0.29527 0-0.4953-0.20955-0.51435-0.54293h1.0414c6e-3 -0.0381 0.01-0.0889 0.01-0.14287 0-0.44133-0.22225-0.7239-0.61595-0.7239-0.35243 0-0.69215 0.30797-0.69215 0.8128zm0.254-0.11748c0.0317-0.31115 0.2286-0.48895 0.4445-0.48895 0.2413 0 0.381 0.17463 0.381 0.48895z"/>
  </g>
  <circle cx="123.39" cy="223.19" r="1.3613" fill="#47d58a"/>
  <g fill="#e8eaec" stroke-linecap="round" stroke-width=".26458" aria-label="Halo 3">
   <path d="m112.91 224.2h0.2667v-0.98107h0.96837v0.98107h0.26353v-2.0828h-0.26353v0.87313h-0.96837v-0.87313h-0.2667z"/>
   <path d="m114.87 223.8c0 0.27623 0.19368 0.43815 0.45403 0.43815 0.1905 0 0.36195-0.1016 0.51117-0.22225h6e-3l0.0222 0.18415h0.2159v-0.94615c0-0.38417-0.15875-0.635-0.53658-0.635-0.24765 0-0.46355 0.10795-0.60642 0.20003l0.10477 0.18097c0.12065-0.0825 0.2794-0.1651 0.46038-0.1651 0.25082 0 0.3175 0.1905 0.3175 0.38735-0.65723 0.073-0.94933 0.2413-0.94933 0.57785zm0.25718-0.0191c0-0.19685 0.17462-0.32385 0.69215-0.38735v0.42863c-0.14923 0.13335-0.27305 0.20637-0.42228 0.20637-0.1524 0-0.26987-0.073-0.26987-0.24765z"/>
   <path d="m116.57 223.89c0 0.22543 0.0794 0.34925 0.27622 0.34925 0.0699 0 0.1143-0.01 0.14923-0.0254l-0.0349-0.19685c-0.0286 6e-3 -0.0413 6e-3 -0.0571 6e-3 -0.0381 0-0.073-0.0318-0.073-0.1143v-1.9685h-0.26035z"/>
   <path d="m117.27 223.43c0 0.51118 0.33655 0.80645 0.71438 0.80645 0.37782 0 0.71437-0.29527 0.71437-0.80645 0-0.51752-0.33655-0.8128-0.71437-0.8128-0.37783 0-0.71438 0.29528-0.71438 0.8128zm0.26988 0c0-0.3556 0.18097-0.5969 0.4445-0.5969 0.2667 0 0.4445 0.2413 0.4445 0.5969 0 0.35243-0.1778 0.59055-0.4445 0.59055-0.26353 0-0.4445-0.23812-0.4445-0.59055z"/>
   <path d="m119.57 223.95c0.13652 0.14923 0.3429 0.28575 0.66675 0.28575 0.37147 0 0.66675-0.21907 0.66675-0.57785 0-0.2794-0.19368-0.4572-0.43815-0.51435v-0.0127c0.21907-0.0825 0.3683-0.23812 0.3683-0.4826 0-0.32702-0.254-0.51435-0.60643-0.51435-0.23812 0-0.42545 0.10795-0.58102 0.254l0.1397 0.1651c0.12065-0.12065 0.26352-0.20637 0.4318-0.20637 0.2159 0 0.34925 0.12382 0.34925 0.32067 0 0.21273-0.14288 0.37783-0.57468 0.37783v0.20002c0.4826 0 0.6477 0.16193 0.6477 0.40323 0 0.22542-0.17462 0.37147-0.4191 0.37147-0.23812 0-0.39687-0.1143-0.51752-0.2413z"/>
  </g>
 </g>
</svg>
