<?xml version="1.0" encoding="UTF-8"?>
<svg width="94.155mm" height="57.819mm" version="1.1" viewBox="0 0 94.155 57.819" xmlns="http://www.w3.org/2000/svg" xmlns:cc="http://creativecommons.org/ns#" xmlns:dc="http://purl.org/dc/elements/1.1/" xmlns:rdf="http://www.w3.org/1999/02/22-rdf-syntax-ns#">
 <metadata>
  <rdf:RDF>
   <cc:Work rdf:about="">
    <dc:format>image/svg+xml</dc:format>
    <dc:type rdf:resource="http://purl.org/dc/dcmitype/StillImage"/>
    <dc:title/>
   </cc:Work>
  </rdf:RDF>
 </metadata>
 <g transform="translate(100.57 -190.63)">
  <rect transform="rotate(-90)" x="-200.02" y="-76.264" width="9.2604" height="69.718" fill="#1d232d" stroke="#47d58a" stroke-linecap="round" stroke-width=".26458"/>
  <rect transform="rotate(-90)" x="-210.87" y="-76.264" width="9.2604" height="69.718" fill="#1d232d" stroke="#47d58a" stroke-linecap="round" stroke-width=".26458"/>
  <rect transform="rotate(-90)" x="-209.68" y="-75.338" width="6.8792" height="5.2917" fill="#47d58a"/>
  <g fill="#1d232d" stroke="#47d58a" stroke-linecap="round" stroke-width=".26458">
   <rect transform="rotate(-90)" x="-221.72" y="-76.264" width="9.2604" height="69.718"/>
   <rect transform="rotate(-90)" x="-232.56" y="-76.264" width="9.2604" height="69.718"/>
   <rect transform="rotate(-90)" x="-243.41" y="-76.264" width="9.2604" height="69.718"/>
  </g>
  <rect transform="rotate(-90)" x="-242.22" y="-75.338" width="6.8792" height="2.7517" fill="#47d58a"/>
  <rect transform="rotate(-90)" x="-220.53" y="-75.338" width="6.8792" height="5.8208" fill="#47d58a"/>
  <rect transform="rotate(-90)" x="-220.53" y="-69.517" width="6.8792" height="7.9375" fill="#009244"/>
  <rect transform="rotate(-90)" x="-220.53" y="-61.58" width="6.8792" height="1.3229" fill="#47d58a"/>
  <rect transform="rotate(-90)" x="-220.53" y="-60.257" width="6.8792" height="2.3812" fill="#009244"/>
  <rect transform="rotate(-90)" x="-220.53" y="-57.875" width="6.8792" height="3.7042" fill="#47d58a"/>
  <rect transform="rotate(-90)" x="-220.53" y="-54.171" width="6.8792" height="5.2917" fill="#009244"/>
  <g fill="#47d58a">
   <rect transform="rotate(-90)" x="-242.22" y="-72.163" width="6.8792" height=".52917"/>
   <rect transform="rotate(-90)" x="-242.22" y="-68.723" width="6.8792" height="1.0583"/>
   <rect transform="rotate(-90)" x="-242.22" y="-67.136" width="6.8792" height="1.8521"/>
   <rect transform="rotate(-90)" x="-242.22" y="-64.755" width="6.8792" height="1.3229"/>
   <rect transform="rotate(-90)" x="-242.22" y="-59.463" width="6.8792" height="3.175"/>
   <rect transform="rotate(-90)" x="-242.22" y="-55.759" width="6.8792" height="1.3229"/>
   <rect transform="rotate(-90)" x="-242.22" y="-46.234" width="6.8792" height="7.9375"/>
   <rect transform="rotate(-90)" x="-242.22" y="-38.032" width="6.8792" height="3.4396"/>
   <rect transform="rotate(-90)" x="-242.22" y="-30.094" width="6.8792" height="2.9104"/>
   <rect transform="rotate(-90)" x="-242.22" y="-25.861" width="6.8792" height="1.3229"/>
   <rect transform="rotate(-90)" x="-242.22" y="-24.273" width="6.8792" height=".79375"/>
   <rect transform="rotate(-90)" x="-242.22" y="-23.215" width="6.8792" height="1.8521"/>
   <rect transform="rotate(-90)" x="-242.22" y="-17.923" width="6.8792" height="5.8208"/>
  </g>
  <g fill="#e8eaec" stroke-linecap="round" stroke-width=".26458">
   <g aria-label="Free Memory">
    <path d="m-100.44 196.95h0.31115v-1.089h0.92604v-0.2593h-0.92604v-0.82232h1.0927v-0.25929h-1.4039z"/>
    <path d="m-98.719 196.95h0.30374v-1.1557c0.12224-0.30374 0.30374-0.41487 0.45561-0.41487 0.07408 0 0.11483 0.0111 0.1741 0.0296l0.05927-0.2667c-0.05927-0.0259-0.11483-0.037-0.19262-0.037-0.20373 0-0.38894 0.14447-0.51118 0.37042h-0.01111l-0.02593-0.32597h-0.25188z"/>
    <path d="m-97.6 196.05c0 0.58896 0.38153 0.94086 0.86307 0.94086 0.24448 0 0.43709-0.0852 0.59267-0.18521l-0.10742-0.20002c-0.13335 0.0852-0.27781 0.14076-0.4482 0.14076-0.34449 0-0.57785-0.24448-0.60008-0.63342h1.215c0.0074-0.0444 0.01111-0.10371 0.01111-0.16668 0-0.51488-0.25929-0.84456-0.71861-0.84456-0.41116 0-0.80751 0.35931-0.80751 0.94827zm0.29633-0.13705c0.03704-0.36301 0.2667-0.57044 0.51858-0.57044 0.28152 0 0.4445 0.20372 0.4445 0.57044z"/>
    <path d="m-95.763 196.05c0 0.58896 0.38153 0.94086 0.86307 0.94086 0.24448 0 0.43709-0.0852 0.59267-0.18521l-0.10742-0.20002c-0.13335 0.0852-0.27781 0.14076-0.4482 0.14076-0.34449 0-0.57785-0.24448-0.60008-0.63342h1.215c0.0074-0.0444 0.01111-0.10371 0.01111-0.16668 0-0.51488-0.25929-0.84456-0.71861-0.84456-0.41116 0-0.80751 0.35931-0.80751 0.94827zm0.29633-0.13705c0.03704-0.36301 0.2667-0.57044 0.51858-0.57044 0.28152 0 0.4445 0.20372 0.4445 0.57044z"/>
    <path d="m-93.028 196.95h0.28522v-1.3372c0-0.21485-0.02222-0.50377-0.03704-0.71861h0.01482l0.19262 0.54081 0.46672 1.2705h0.1778l0.46673-1.2705 0.19262-0.54081h0.01482c-0.01482 0.21484-0.04074 0.50376-0.04074 0.71861v1.3372h0.29263v-2.4299h-0.36301l-0.46672 1.3039-0.17039 0.49636h-0.01482l-0.1741-0.49636-0.47043-1.3039h-0.36671z"/>
    <path d="m-90.503 196.05c0 0.58896 0.38153 0.94086 0.86307 0.94086 0.24448 0 0.43709-0.0852 0.59267-0.18521l-0.10742-0.20002c-0.13335 0.0852-0.27781 0.14076-0.4482 0.14076-0.34449 0-0.57785-0.24448-0.60008-0.63342h1.215c0.0074-0.0444 0.01111-0.10371 0.01111-0.16668 0-0.51488-0.25929-0.84456-0.71861-0.84456-0.41116 0-0.80751 0.35931-0.80751 0.94827zm0.29633-0.13705c0.03704-0.36301 0.2667-0.57044 0.51858-0.57044 0.28152 0 0.4445 0.20372 0.4445 0.57044z"/>
    <path d="m-88.532 196.95h0.30374v-1.3039c0.16669-0.18521 0.31856-0.27781 0.45191-0.27781 0.22966 0 0.33708 0.14446 0.33708 0.48154v1.1001h0.30374v-1.3039c0.16669-0.18521 0.31115-0.27781 0.45191-0.27781 0.22596 0 0.33338 0.14446 0.33338 0.48154v1.1001h0.30374v-1.1409c0-0.45932-0.1778-0.7038-0.54822-0.7038-0.21855 0-0.40375 0.14076-0.59267 0.34449-0.07408-0.21484-0.22225-0.34449-0.49636-0.34449-0.21484 0-0.40375 0.13335-0.55933 0.30375h-0.01111l-0.02593-0.2593h-0.25188z"/>
    <path d="m-85.598 196.05c0 0.59637 0.39264 0.94086 0.83344 0.94086s0.83344-0.34449 0.83344-0.94086c0-0.60378-0.39264-0.94827-0.83344-0.94827s-0.83344 0.34449-0.83344 0.94827zm0.31485 0c0-0.41487 0.21114-0.69638 0.51858-0.69638 0.31115 0 0.51858 0.28151 0.51858 0.69638 0 0.41116-0.20743 0.68898-0.51858 0.68898-0.30745 0-0.51858-0.27782-0.51858-0.68898z"/>
    <path d="m-83.453 196.95h0.30374v-1.1557c0.12224-0.30374 0.30374-0.41487 0.45561-0.41487 0.07408 0 0.11483 0.0111 0.1741 0.0296l0.05927-0.2667c-0.05927-0.0259-0.11483-0.037-0.19262-0.037-0.20373 0-0.38894 0.14447-0.51118 0.37042h-0.01111l-0.02593-0.32597h-0.25188z"/>
    <path d="m-82.215 197.45-0.05927 0.24077c0.05927 0.0222 0.12964 0.037 0.21114 0.037 0.36301 0 0.54822-0.2704 0.67416-0.626l0.67786-1.9484h-0.29633l-0.32226 0.99643c-0.04815 0.15928-0.10001 0.34448-0.15187 0.50747h-0.01482c-0.05556-0.16669-0.11853-0.3519-0.1741-0.50747l-0.36671-0.99643h-0.31485l0.72231 1.8039-0.04075 0.13335c-0.07408 0.22225-0.20373 0.38523-0.40746 0.38523-0.04445 0-0.10001-0.0148-0.13706-0.0259z"/>
   </g>
   <g aria-label="1x malloc">
    <path d="m-95.121 207.53h1.3335v-0.25188h-0.48895v-2.1114h-0.23336c-0.12965 0.0778-0.28522 0.13706-0.50006 0.1741v0.19632h0.42968v1.741h-0.54081z"/>
    <path d="m-93.524 207.53h0.31856l0.24448-0.41857c0.05927-0.11112 0.11853-0.21854 0.1815-0.32226h0.01482c0.06667 0.10372 0.13335 0.21484 0.19632 0.32226l0.263 0.41857h0.32967l-0.58526-0.90752 0.54451-0.8927h-0.31856l-0.21855 0.39634c-0.05556 0.0963-0.11112 0.20003-0.16298 0.30004h-0.01482c-0.06297-0.10001-0.12224-0.20373-0.1778-0.30004l-0.24077-0.39634h-0.32967l0.54451 0.85937z"/>
    <path d="m-90.878 207.53h0.30374v-1.3039c0.16669-0.18521 0.31856-0.27782 0.45191-0.27782 0.22966 0 0.33708 0.14447 0.33708 0.48155v1.1001h0.30374v-1.3039c0.16669-0.18521 0.31115-0.27782 0.45191-0.27782 0.22595 0 0.33338 0.14447 0.33338 0.48155v1.1001h0.30374v-1.1409c0-0.45932-0.1778-0.70379-0.54822-0.70379-0.21855 0-0.40376 0.14076-0.59267 0.34449-0.07408-0.21485-0.22225-0.34449-0.49636-0.34449-0.21484 0-0.40376 0.13335-0.55933 0.30374h-0.01111l-0.02593-0.25929h-0.25188z"/>
    <path d="m-87.899 207.07c0 0.32226 0.22595 0.51117 0.5297 0.51117 0.22225 0 0.42228-0.11853 0.59637-0.25929h0.0074l0.02593 0.21484h0.25188v-1.1038c0-0.4482-0.18521-0.74083-0.626-0.74083-0.28893 0-0.54081 0.12594-0.7075 0.23336l0.12224 0.21114c0.14076-0.0963 0.32597-0.19262 0.5371-0.19262 0.29263 0 0.37042 0.22225 0.37042 0.45191-0.76676 0.0852-1.1075 0.28152-1.1075 0.67416zm0.30004-0.0222c0-0.22965 0.20373-0.37782 0.80751-0.4519v0.50006c-0.1741 0.15557-0.31856 0.24077-0.49265 0.24077-0.1778 0-0.31486-0.0852-0.31486-0.28893z"/>
    <path d="m-85.915 207.17c0 0.26299 0.0926 0.40745 0.32226 0.40745 0.08149 0 0.13335-0.0111 0.1741-0.0296l-0.04075-0.22966c-0.03334 7e-3 -0.04815 7e-3 -0.06668 7e-3 -0.04445 0-0.0852-0.037-0.0852-0.13335v-2.2966h-0.30374z"/>
    <path d="m-84.967 207.17c0 0.26299 0.0926 0.40745 0.32226 0.40745 0.08149 0 0.13335-0.0111 0.1741-0.0296l-0.04075-0.22966c-0.03334 7e-3 -0.04815 7e-3 -0.06668 7e-3 -0.04445 0-0.0852-0.037-0.0852-0.13335v-2.2966h-0.30374z"/>
    <path d="m-84.153 206.64c0 0.59637 0.39264 0.94085 0.83344 0.94085 0.4408 0 0.83344-0.34448 0.83344-0.94085 0-0.60378-0.39264-0.94827-0.83344-0.94827-0.4408 0-0.83344 0.34449-0.83344 0.94827zm0.31486 0c0-0.41487 0.21114-0.69639 0.51858-0.69639 0.31115 0 0.51858 0.28152 0.51858 0.69639 0 0.41116-0.20743 0.68897-0.51858 0.68897-0.30745 0-0.51858-0.27781-0.51858-0.68897z"/>
    <path d="m-82.141 206.64c0 0.59637 0.36671 0.94085 0.84455 0.94085 0.21484 0 0.42228-0.0889 0.58526-0.23336l-0.13705-0.20002c-0.10742 0.0963-0.25188 0.1815-0.42228 0.1815-0.32967 0-0.55563-0.27781-0.55563-0.68897 0-0.41487 0.23707-0.69639 0.56303-0.69639 0.14446 0 0.25559 0.0667 0.36301 0.15928l0.15187-0.19632c-0.12224-0.11483-0.28893-0.21484-0.52599-0.21484-0.46302 0-0.86678 0.34449-0.86678 0.94827z"/>
   </g>
   <g aria-label="6x malloc">
    <path d="m-94.421 217.92c-0.30004 0-0.48154-0.24818-0.51858-0.70749 0.15928-0.22225 0.34449-0.31116 0.49266-0.31116 0.29263 0 0.43709 0.19262 0.43709 0.50007 0 0.31115-0.1778 0.51858-0.41116 0.51858zm0.65564-1.9595c-0.13335-0.14447-0.31485-0.25189-0.57044-0.25189-0.47043 0-0.90011 0.36672-0.90011 1.315 0 0.75936 0.3519 1.1372 0.81492 1.1372 0.38153 0 0.70009-0.30744 0.70009-0.75935 0-0.48525-0.2667-0.72972-0.67416-0.72972-0.19262 0-0.40375 0.11483-0.55192 0.29633 0.01482-0.74824 0.29263-1.0038 0.6223-1.0038 0.14817 0 0.29263 0.0704 0.38894 0.18521z"/>
    <path d="m-93.524 218.12h0.31856l0.24448-0.41857c0.05927-0.11112 0.11853-0.21854 0.1815-0.32226h0.01482c0.06667 0.10372 0.13335 0.21484 0.19632 0.32226l0.263 0.41857h0.32967l-0.58526-0.90752 0.54451-0.8927h-0.31856l-0.21855 0.39634c-0.05556 0.0963-0.11112 0.20003-0.16298 0.30004h-0.01482c-0.06297-0.10001-0.12224-0.20373-0.1778-0.30004l-0.24077-0.39634h-0.32967l0.54451 0.85936z"/>
    <path d="m-90.878 218.12h0.30374v-1.3039c0.16669-0.1852 0.31856-0.27781 0.45191-0.27781 0.22966 0 0.33708 0.14446 0.33708 0.48154v1.1001h0.30374v-1.3039c0.16669-0.1852 0.31115-0.27781 0.45191-0.27781 0.22595 0 0.33338 0.14446 0.33338 0.48154v1.1001h0.30374v-1.1409c0-0.45932-0.1778-0.70379-0.54822-0.70379-0.21855 0-0.40376 0.14075-0.59267 0.34448-0.07408-0.21484-0.22225-0.34448-0.49636-0.34448-0.21484 0-0.40376 0.13335-0.55933 0.30374h-0.01111l-0.02593-0.25929h-0.25188z"/>
    <path d="m-87.899 217.65c0 0.32226 0.22595 0.51117 0.5297 0.51117 0.22225 0 0.42228-0.11853 0.59637-0.25929h0.0074l0.02593 0.21484h0.25188v-1.1038c0-0.4482-0.18521-0.74083-0.626-0.74083-0.28893 0-0.54081 0.12594-0.7075 0.23336l0.12224 0.21114c0.14076-0.0963 0.32597-0.19262 0.5371-0.19262 0.29263 0 0.37042 0.22225 0.37042 0.45191-0.76676 0.0852-1.1075 0.28152-1.1075 0.67416zm0.30004-0.0222c0-0.22966 0.20373-0.37782 0.80751-0.45191v0.50007c-0.1741 0.15557-0.31856 0.24077-0.49265 0.24077-0.1778 0-0.31486-0.0852-0.31486-0.28893z"/>
    <path d="m-85.915 217.75c0 0.263 0.0926 0.40746 0.32226 0.40746 0.08149 0 0.13335-0.0111 0.1741-0.0296l-0.04075-0.22966c-0.03334 7e-3 -0.04815 7e-3 -0.06668 7e-3 -0.04445 0-0.0852-0.037-0.0852-0.13335v-2.2966h-0.30374z"/>
    <path d="m-84.967 217.75c0 0.263 0.0926 0.40746 0.32226 0.40746 0.08149 0 0.13335-0.0111 0.1741-0.0296l-0.04075-0.22966c-0.03334 7e-3 -0.04815 7e-3 -0.06668 7e-3 -0.04445 0-0.0852-0.037-0.0852-0.13335v-2.2966h-0.30374z"/>
    <path d="m-84.153 217.22c0 0.59637 0.39264 0.94086 0.83344 0.94086 0.4408 0 0.83344-0.34449 0.83344-0.94086 0-0.60378-0.39264-0.94826-0.83344-0.94826-0.4408 0-0.83344 0.34448-0.83344 0.94826zm0.31486 0c0-0.41486 0.21114-0.69638 0.51858-0.69638 0.31115 0 0.51858 0.28152 0.51858 0.69638 0 0.41117-0.20743 0.68898-0.51858 0.68898-0.30745 0-0.51858-0.27781-0.51858-0.68898z"/>
    <path d="m-82.141 217.22c0 0.59637 0.36671 0.94086 0.84455 0.94086 0.21484 0 0.42228-0.0889 0.58526-0.23336l-0.13705-0.20003c-0.10742 0.0963-0.25188 0.18151-0.42228 0.18151-0.32967 0-0.55563-0.27781-0.55563-0.68898 0-0.41486 0.23707-0.69638 0.56303-0.69638 0.14446 0 0.25559 0.0667 0.36301 0.15928l0.15187-0.19632c-0.12224-0.11483-0.28893-0.21484-0.52599-0.21484-0.46302 0-0.86678 0.34448-0.86678 0.94826z"/>
   </g>
   <g aria-label="6x malloc 3x free">
    <path d="m-94.421 226.65c-0.30004 0-0.48154-0.24818-0.51858-0.7075 0.15928-0.22225 0.34449-0.31115 0.49266-0.31115 0.29263 0 0.43709 0.19262 0.43709 0.50006 0 0.31116-0.1778 0.51859-0.41116 0.51859zm0.65564-1.9595c-0.13335-0.14446-0.31486-0.25188-0.57044-0.25188-0.47043 0-0.90011 0.36671-0.90011 1.315 0 0.75935 0.3519 1.1372 0.81492 1.1372 0.38153 0 0.70009-0.30745 0.70009-0.75936 0-0.48524-0.2667-0.72972-0.67416-0.72972-0.19262 0-0.40376 0.11483-0.55192 0.29634 0.01482-0.74825 0.29263-1.0038 0.6223-1.0038 0.14817 0 0.29263 0.0704 0.38894 0.18521z"/>
    <path d="m-93.524 226.85h0.31856l0.24448-0.41857c0.05927-0.11113 0.11853-0.21855 0.1815-0.32226h0.01482c0.06668 0.10371 0.13335 0.21484 0.19632 0.32226l0.263 0.41857h0.32967l-0.58526-0.90752 0.54451-0.89271h-0.31856l-0.21855 0.39635c-0.05556 0.0963-0.11112 0.20002-0.16298 0.30004h-0.01482c-0.06297-0.10002-0.12224-0.20373-0.1778-0.30004l-0.24077-0.39635h-0.32967l0.54451 0.85937z"/>
    <path d="m-90.878 226.85h0.30374v-1.3039c0.16669-0.18521 0.31856-0.27781 0.45191-0.27781 0.22966 0 0.33708 0.14446 0.33708 0.48154v1.1001h0.30374v-1.3039c0.16669-0.18521 0.31115-0.27781 0.45191-0.27781 0.22595 0 0.33338 0.14446 0.33338 0.48154v1.1001h0.30374v-1.1409c0-0.45932-0.1778-0.7038-0.54822-0.7038-0.21855 0-0.40376 0.14076-0.59267 0.34449-0.07408-0.21484-0.22225-0.34449-0.49636-0.34449-0.21484 0-0.40376 0.13335-0.55933 0.30374h-0.01111l-0.02593-0.25929h-0.25188z"/>
    <path d="m-87.899 226.38c0 0.32227 0.22595 0.51118 0.5297 0.51118 0.22225 0 0.42228-0.11853 0.59637-0.25929h0.0074l0.02593 0.21484h0.25188v-1.1038c0-0.44821-0.18521-0.74084-0.626-0.74084-0.28893 0-0.54081 0.12594-0.7075 0.23337l0.12224 0.21113c0.14076-0.0963 0.32597-0.19261 0.5371-0.19261 0.29263 0 0.37042 0.22225 0.37042 0.45191-0.76676 0.0852-1.1075 0.28151-1.1075 0.67415zm0.30004-0.0222c0-0.22966 0.20373-0.37783 0.80751-0.45191v0.50006c-0.1741 0.15558-0.31856 0.24077-0.49265 0.24077-0.1778 0-0.31486-0.0852-0.31486-0.28892z"/>
    <path d="m-85.915 226.48c0 0.263 0.0926 0.40746 0.32226 0.40746 0.08149 0 0.13335-0.0111 0.1741-0.0296l-0.04075-0.22966c-0.03334 7e-3 -0.04816 7e-3 -0.06668 7e-3 -0.04445 0-0.0852-0.037-0.0852-0.13335v-2.2966h-0.30374z"/>
    <path d="m-84.967 226.48c0 0.263 0.0926 0.40746 0.32226 0.40746 0.08149 0 0.13335-0.0111 0.1741-0.0296l-0.04075-0.22966c-0.03334 7e-3 -0.04815 7e-3 -0.06668 7e-3 -0.04445 0-0.0852-0.037-0.0852-0.13335v-2.2966h-0.30374z"/>
    <path d="m-84.153 225.95c0 0.59637 0.39264 0.94086 0.83344 0.94086 0.4408 0 0.83344-0.34449 0.83344-0.94086 0-0.60378-0.39264-0.94827-0.83344-0.94827-0.4408 0-0.83344 0.34449-0.83344 0.94827zm0.31486 0c0-0.41487 0.21114-0.69638 0.51858-0.69638 0.31115 0 0.51858 0.28151 0.51858 0.69638 0 0.41116-0.20743 0.68898-0.51858 0.68898-0.30745 0-0.51858-0.27782-0.51858-0.68898z"/>
    <path d="m-82.141 225.95c0 0.59637 0.36671 0.94086 0.84455 0.94086 0.21484 0 0.42228-0.0889 0.58526-0.23336l-0.13705-0.20003c-0.10742 0.0963-0.25188 0.18151-0.42228 0.18151-0.32967 0-0.55563-0.27782-0.55563-0.68898 0-0.41487 0.23707-0.69638 0.56303-0.69638 0.14446 0 0.25559 0.0667 0.36301 0.15928l0.15187-0.19633c-0.12224-0.11482-0.28893-0.21484-0.52599-0.21484-0.46302 0-0.86678 0.34449-0.86678 0.94827z"/>
    <path d="m-90.774 231.22c0.15928 0.1741 0.40005 0.33338 0.77788 0.33338 0.43339 0 0.77788-0.25559 0.77788-0.67416 0-0.32597-0.22595-0.5334-0.51118-0.60008v-0.0148c0.25559-0.0963 0.42968-0.27781 0.42968-0.56303 0-0.38153-0.29633-0.60007-0.7075-0.60007-0.27781 0-0.49636 0.12594-0.67786 0.29633l0.16298 0.19262c0.14076-0.14076 0.30745-0.24078 0.50377-0.24078 0.25188 0 0.40746 0.14447 0.40746 0.37413 0 0.24818-0.16669 0.44079-0.67046 0.44079v0.23336c0.56303 0 0.75565 0.18892 0.75565 0.47043 0 0.263-0.20373 0.43339-0.48895 0.43339-0.27781 0-0.46302-0.13335-0.60378-0.28151z"/>
    <path d="m-88.981 231.51h0.31856l0.24448-0.41858c0.05927-0.11112 0.11853-0.21854 0.1815-0.32226h0.01482c0.06668 0.10372 0.13335 0.21484 0.19632 0.32226l0.263 0.41858h0.32967l-0.58526-0.90753 0.54451-0.8927h-0.31856l-0.21855 0.39635c-0.05556 0.0963-0.11112 0.20002-0.16298 0.30003h-0.01482c-0.06297-0.10001-0.12224-0.20373-0.1778-0.30003l-0.24077-0.39635h-0.32967l0.54451 0.85937z"/>
    <path d="m-85.457 228.89c-0.08149-0.0333-0.18891-0.0593-0.30004-0.0593-0.3593 0-0.52599 0.22966-0.52599 0.59637v0.28522l-0.24448 0.0185v0.22966h0.24448v1.552h0.30374v-1.552h0.38153v-0.24818h-0.38153v-0.28522c0-0.22966 0.08149-0.34819 0.25188-0.34819 0.06667 0 0.13705 0.0148 0.20373 0.0445z"/>
    <path d="m-85.249 231.51h0.30374v-1.1557c0.12224-0.30374 0.30374-0.41486 0.45561-0.41486 0.07408 0 0.11483 0.0111 0.1741 0.0296l0.05927-0.2667c-0.05927-0.0259-0.11483-0.037-0.19262-0.037-0.20373 0-0.38894 0.14446-0.51118 0.37042h-0.01111l-0.02593-0.32597h-0.25188z"/>
    <path d="m-84.131 230.62c0 0.58896 0.38153 0.94086 0.86307 0.94086 0.24448 0 0.43709-0.0852 0.59267-0.18521l-0.10742-0.20003c-0.13335 0.0852-0.27781 0.14076-0.4482 0.14076-0.34449 0-0.57785-0.24447-0.60008-0.63341h1.215c0.0074-0.0445 0.01111-0.10372 0.01111-0.16669 0-0.51488-0.25929-0.84455-0.71861-0.84455-0.41116 0-0.80751 0.3593-0.80751 0.94827zm0.29633-0.13706c0.03704-0.36301 0.2667-0.57044 0.51858-0.57044 0.28152 0 0.4445 0.20373 0.4445 0.57044z"/>
    <path d="m-82.293 230.62c0 0.58896 0.38153 0.94086 0.86307 0.94086 0.24448 0 0.43709-0.0852 0.59267-0.18521l-0.10742-0.20003c-0.13335 0.0852-0.27781 0.14076-0.4482 0.14076-0.34449 0-0.57785-0.24447-0.60008-0.63341h1.215c0.0074-0.0445 0.01111-0.10372 0.01111-0.16669 0-0.51488-0.25929-0.84455-0.71861-0.84455-0.41116 0-0.80751 0.3593-0.80751 0.94827zm0.29633-0.13706c0.03704-0.36301 0.2667-0.57044 0.51858-0.57044 0.28152 0 0.4445 0.20373 0.4445 0.57044z"/>
   </g>
   <g aria-label="nx malloc nx free">
    <path d="m-95.298 237.96h0.30374v-1.3039c0.1815-0.1815 0.30745-0.27781 0.49265-0.27781 0.23707 0 0.34078 0.14446 0.34078 0.48154v1.1001h0.30374v-1.1409c0-0.45932-0.17039-0.70379-0.54822-0.70379-0.24818 0-0.43339 0.13335-0.60378 0.30374h-0.01111l-0.02593-0.25929h-0.25188z"/>
    <path d="m-93.524 237.96h0.31856l0.24448-0.41857c0.05927-0.11112 0.11853-0.21854 0.1815-0.32226h0.01482c0.06668 0.10372 0.13335 0.21484 0.19632 0.32226l0.263 0.41857h0.32967l-0.58526-0.90752 0.54451-0.8927h-0.31856l-0.21855 0.39634c-0.05556 0.0963-0.11112 0.20003-0.16298 0.30004h-0.01482c-0.06297-0.10001-0.12224-0.20373-0.1778-0.30004l-0.24077-0.39634h-0.32967l0.54451 0.85936z"/>
    <path d="m-90.878 237.96h0.30374v-1.3039c0.16669-0.1852 0.31856-0.27781 0.45191-0.27781 0.22966 0 0.33708 0.14446 0.33708 0.48154v1.1001h0.30374v-1.3039c0.16669-0.1852 0.31115-0.27781 0.45191-0.27781 0.22596 0 0.33338 0.14446 0.33338 0.48154v1.1001h0.30374v-1.1409c0-0.45932-0.1778-0.70379-0.54822-0.70379-0.21855 0-0.40376 0.14075-0.59267 0.34448-0.07408-0.21484-0.22225-0.34448-0.49636-0.34448-0.21484 0-0.40376 0.13335-0.55933 0.30374h-0.01111l-0.02593-0.25929h-0.25188z"/>
    <path d="m-87.899 237.49c0 0.32226 0.22596 0.51117 0.5297 0.51117 0.22225 0 0.42228-0.11853 0.59637-0.25929h0.0074l0.02593 0.21484h0.25188v-1.1038c0-0.4482-0.18521-0.74083-0.626-0.74083-0.28892 0-0.54081 0.12594-0.7075 0.23336l0.12224 0.21114c0.14076-0.0963 0.32597-0.19262 0.5371-0.19262 0.29263 0 0.37042 0.22225 0.37042 0.45191-0.76676 0.0852-1.1075 0.28152-1.1075 0.67416zm0.30004-0.0222c0-0.22966 0.20373-0.37782 0.80751-0.45191v0.50007c-0.1741 0.15557-0.31856 0.24077-0.49265 0.24077-0.1778 0-0.31486-0.0852-0.31486-0.28893z"/>
    <path d="m-85.915 237.6c0 0.263 0.0926 0.40746 0.32226 0.40746 0.08149 0 0.13335-0.0111 0.1741-0.0296l-0.04075-0.22966c-0.03334 7e-3 -0.04815 7e-3 -0.06668 7e-3 -0.04445 0-0.0852-0.037-0.0852-0.13335v-2.2966h-0.30374z"/>
    <path d="m-84.967 237.6c0 0.263 0.09261 0.40746 0.32226 0.40746 0.08149 0 0.13335-0.0111 0.1741-0.0296l-0.04075-0.22966c-0.03334 7e-3 -0.04815 7e-3 -0.06668 7e-3 -0.04445 0-0.0852-0.037-0.0852-0.13335v-2.2966h-0.30374z"/>
    <path d="m-84.153 237.06c0 0.59637 0.39264 0.94086 0.83344 0.94086 0.4408 0 0.83344-0.34449 0.83344-0.94086 0-0.60378-0.39264-0.94826-0.83344-0.94826-0.4408 0-0.83344 0.34448-0.83344 0.94826zm0.31486 0c0-0.41486 0.21114-0.69638 0.51858-0.69638 0.31115 0 0.51858 0.28152 0.51858 0.69638 0 0.41117-0.20743 0.68898-0.51858 0.68898-0.30745 0-0.51858-0.27781-0.51858-0.68898z"/>
    <path d="m-82.141 237.06c0 0.59637 0.36671 0.94086 0.84455 0.94086 0.21484 0 0.42228-0.0889 0.58526-0.23336l-0.13706-0.20003c-0.10742 0.0963-0.25188 0.18151-0.42228 0.18151-0.32967 0-0.55563-0.27781-0.55563-0.68898 0-0.41486 0.23707-0.69638 0.56303-0.69638 0.14446 0 0.25559 0.0667 0.36301 0.15928l0.15187-0.19632c-0.12224-0.11483-0.28892-0.21484-0.52599-0.21484-0.46302 0-0.86678 0.34448-0.86678 0.94826z"/>
    <path d="m-90.755 242.63h0.30374v-1.3039c0.1815-0.1815 0.30745-0.27781 0.49265-0.27781 0.23707 0 0.34078 0.14446 0.34078 0.48154v1.1001h0.30374v-1.1409c0-0.45931-0.17039-0.70379-0.54822-0.70379-0.24818 0-0.43339 0.13335-0.60378 0.30374h-0.01111l-0.02593-0.25929h-0.25188z"/>
    <path d="m-88.981 242.63h0.31856l0.24448-0.41857c0.05927-0.11113 0.11853-0.21855 0.1815-0.32227h0.01482c0.06668 0.10372 0.13335 0.21485 0.19632 0.32227l0.263 0.41857h0.32967l-0.58526-0.90752 0.54451-0.89271h-0.31856l-0.21855 0.39635c-0.05556 0.0963-0.11112 0.20002-0.16298 0.30004h-0.01482c-0.06297-0.10002-0.12224-0.20373-0.1778-0.30004l-0.24077-0.39635h-0.32967l0.54451 0.85937z"/>
    <path d="m-85.457 240c-0.08149-0.0333-0.18891-0.0593-0.30004-0.0593-0.3593 0-0.52599 0.22966-0.52599 0.59637v0.28522l-0.24448 0.0185v0.22966h0.24448v1.552h0.30374v-1.552h0.38153v-0.24818h-0.38153v-0.28522c0-0.22966 0.08149-0.34819 0.25188-0.34819 0.06667 0 0.13705 0.0148 0.20373 0.0444z"/>
    <path d="m-85.249 242.63h0.30374v-1.1557c0.12224-0.30374 0.30374-0.41487 0.45561-0.41487 0.07408 0 0.11483 0.0111 0.1741 0.0296l0.05927-0.2667c-0.05927-0.0259-0.11483-0.037-0.19262-0.037-0.20373 0-0.38894 0.14446-0.51118 0.37042h-0.01111l-0.02593-0.32597h-0.25188z"/>
    <path d="m-84.131 241.73c0 0.58896 0.38153 0.94086 0.86307 0.94086 0.24448 0 0.43709-0.0852 0.59267-0.18521l-0.10742-0.20002c-0.13335 0.0852-0.27781 0.14075-0.4482 0.14075-0.34449 0-0.57785-0.24447-0.60008-0.63341h1.215c0.0074-0.0444 0.01111-0.10372 0.01111-0.16669 0-0.51488-0.25929-0.84455-0.71861-0.84455-0.41116 0-0.80751 0.35931-0.80751 0.94827zm0.29633-0.13705c0.03704-0.36301 0.2667-0.57045 0.51858-0.57045 0.28152 0 0.4445 0.20373 0.4445 0.57045z"/>
    <path d="m-82.293 241.73c0 0.58896 0.38153 0.94086 0.86307 0.94086 0.24448 0 0.43709-0.0852 0.59267-0.18521l-0.10742-0.20002c-0.13335 0.0852-0.27781 0.14075-0.4482 0.14075-0.34449 0-0.57785-0.24447-0.60008-0.63341h1.215c0.0074-0.0444 0.01111-0.10372 0.01111-0.16669 0-0.51488-0.25929-0.84455-0.71861-0.84455-0.41116 0-0.80751 0.35931-0.80751 0.94827zm0.29633-0.13705c0.03704-0.36301 0.2667-0.57045 0.51858-0.57045 0.28152 0 0.4445 0.20373 0.4445 0.57045z"/>
   </g>
  </g>
  <g fill="#009244">
   <rect transform="rotate(-90)" x="-231.37" y="-69.517" width="6.8792" height="7.9375"/>
   <rect transform="rotate(-90)" x="-231.37" y="-60.257" width="6.8792" height="2.3812"/>
   <rect transform="rotate(-90)" x="-231.37" y="-54.171" width="6.8792" height="5.2917"/>
  </g>
  <g fill="#e8eaec" stroke-linecap="round" stroke-width=".26458" aria-label="Memory fragmentation">
   <path d="m-59.354 247.48h0.28522v-1.3372c0-0.21485-0.02223-0.50377-0.03704-0.71861h0.01482l0.19262 0.54081 0.46673 1.2705h0.1778l0.46672-1.2705 0.19262-0.54081h0.01482c-0.01482 0.21484-0.04075 0.50376-0.04075 0.71861v1.3372h0.29263v-2.4299h-0.36301l-0.46673 1.3039-0.17039 0.49636h-0.01482l-0.1741-0.49636-0.47043-1.3039h-0.36671z"/>
   <path d="m-56.829 246.59c0 0.58897 0.38153 0.94086 0.86307 0.94086 0.24448 0 0.43709-0.0852 0.59267-0.18521l-0.10742-0.20002c-0.13335 0.0852-0.27781 0.14076-0.4482 0.14076-0.34449 0-0.57785-0.24448-0.60008-0.63342h1.215c0.0074-0.0444 0.01111-0.10371 0.01111-0.16668 0-0.51488-0.25929-0.84455-0.71861-0.84455-0.41116 0-0.80751 0.3593-0.80751 0.94826zm0.29633-0.13705c0.03704-0.36301 0.2667-0.57044 0.51858-0.57044 0.28152 0 0.4445 0.20373 0.4445 0.57044z"/>
   <path d="m-54.858 247.48h0.30374v-1.3039c0.16669-0.1852 0.31856-0.27781 0.45191-0.27781 0.22966 0 0.33708 0.14446 0.33708 0.48154v1.1001h0.30374v-1.3039c0.16669-0.1852 0.31115-0.27781 0.45191-0.27781 0.22595 0 0.33338 0.14446 0.33338 0.48154v1.1001h0.30374v-1.1409c0-0.45932-0.1778-0.70379-0.54822-0.70379-0.21855 0-0.40376 0.14075-0.59267 0.34448-0.07408-0.21484-0.22225-0.34448-0.49636-0.34448-0.21484 0-0.40376 0.13335-0.55933 0.30374h-0.01111l-0.02593-0.25929h-0.25188z"/>
   <path d="m-51.924 246.59c0 0.59637 0.39264 0.94086 0.83344 0.94086s0.83344-0.34449 0.83344-0.94086c0-0.60378-0.39264-0.94826-0.83344-0.94826s-0.83344 0.34448-0.83344 0.94826zm0.31485 0c0-0.41486 0.21114-0.69638 0.51858-0.69638 0.31115 0 0.51858 0.28152 0.51858 0.69638 0 0.41117-0.20743 0.68898-0.51858 0.68898-0.30745 0-0.51858-0.27781-0.51858-0.68898z"/>
   <path d="m-49.779 247.48h0.30374v-1.1557c0.12224-0.30374 0.30374-0.41487 0.45561-0.41487 0.07408 0 0.11483 0.0111 0.1741 0.0296l0.05927-0.2667c-0.05927-0.0259-0.11483-0.037-0.19262-0.037-0.20373 0-0.38894 0.14446-0.51118 0.37041h-0.01111l-0.02593-0.32596h-0.25188z"/>
   <path d="m-48.541 247.98-0.05927 0.24077c0.05927 0.0222 0.12965 0.037 0.21114 0.037 0.36301 0 0.54822-0.2704 0.67416-0.626l0.67786-1.9484h-0.29633l-0.32226 0.99642c-0.04815 0.15928-0.10001 0.34448-0.15187 0.50747h-0.01482c-0.05556-0.16669-0.11853-0.3519-0.1741-0.50747l-0.36671-0.99642h-0.31485l0.72231 1.8039-0.04075 0.13335c-0.07408 0.22225-0.20373 0.38523-0.40746 0.38523-0.04445 0-0.10001-0.0148-0.13705-0.0259z"/>
   <path d="m-45.067 244.86c-0.08149-0.0333-0.18891-0.0593-0.30004-0.0593-0.3593 0-0.52599 0.22966-0.52599 0.59637v0.28523l-0.24448 0.0185v0.22965h0.24448v1.552h0.30374v-1.552h0.38153v-0.24817h-0.38153v-0.28523c0-0.22965 0.08149-0.34819 0.25188-0.34819 0.06668 0 0.13705 0.0148 0.20373 0.0445z"/>
   <path d="m-44.86 247.48h0.30374v-1.1557c0.12224-0.30374 0.30374-0.41487 0.45561-0.41487 0.07408 0 0.11483 0.0111 0.1741 0.0296l0.05927-0.2667c-0.05927-0.0259-0.11483-0.037-0.19262-0.037-0.20373 0-0.38894 0.14446-0.51118 0.37041h-0.01111l-0.02593-0.32596h-0.25188z"/>
   <path d="m-43.755 247.02c0 0.32226 0.22596 0.51117 0.5297 0.51117 0.22225 0 0.42228-0.11853 0.59637-0.25929h0.0074l0.02593 0.21484h0.25188v-1.1038c0-0.44821-0.18521-0.74083-0.626-0.74083-0.28892 0-0.54081 0.12594-0.7075 0.23336l0.12224 0.21114c0.14076-0.0963 0.32597-0.19262 0.5371-0.19262 0.29263 0 0.37042 0.22225 0.37042 0.45191-0.76676 0.0852-1.1075 0.28151-1.1075 0.67416zm0.30004-0.0222c0-0.22966 0.20373-0.37782 0.80751-0.45191v0.50007c-0.1741 0.15557-0.31856 0.24077-0.49266 0.24077-0.1778 0-0.31485-0.0852-0.31485-0.28893z"/>
   <path d="m-41.641 247.79c0-0.10371 0.05556-0.21113 0.18521-0.30374 0.07779 0.0222 0.16298 0.0296 0.23336 0.0296h0.31115c0.23336 0 0.36301 0.0556 0.36301 0.22225 0 0.18891-0.22596 0.36671-0.57044 0.36671-0.32597 0-0.52229-0.12224-0.52229-0.31486zm-0.2667 0.0408c0 0.31115 0.30374 0.48525 0.74454 0.48525 0.55933 0 0.91122-0.28893 0.91122-0.6223 0-0.30004-0.21114-0.42969-0.62971-0.42969h-0.34819c-0.24448 0-0.31856-0.0815-0.31856-0.19632 0-0.10001 0.05186-0.15928 0.11483-0.21484 0.08149 0.0407 0.1815 0.063 0.2704 0.063 0.36671 0 0.65934-0.24077 0.65934-0.62601 0-0.15187-0.06297-0.28892-0.14817-0.37041h0.37042v-0.23336h-0.626c-0.06667-0.0259-0.15558-0.0444-0.25559-0.0444-0.36671 0-0.67786 0.24817-0.67786 0.64082 0 0.21484 0.11483 0.38893 0.23336 0.48524v0.0148c-0.0926 0.063-0.19632 0.1815-0.19632 0.33337 0 0.14076 0.07038 0.23707 0.15928 0.29263v0.0148c-0.16298 0.11113-0.263 0.25559-0.263 0.40746zm0.74454-1.1187c-0.20743 0-0.38153-0.16669-0.38153-0.42968 0-0.263 0.17039-0.41857 0.38153-0.41857 0.21114 0 0.38153 0.15557 0.38153 0.41857 0 0.26299-0.1741 0.42968-0.38153 0.42968z"/>
   <path d="m-39.904 247.48h0.30374v-1.3039c0.16669-0.1852 0.31856-0.27781 0.45191-0.27781 0.22966 0 0.33708 0.14446 0.33708 0.48154v1.1001h0.30374v-1.3039c0.16669-0.1852 0.31115-0.27781 0.45191-0.27781 0.22595 0 0.33338 0.14446 0.33338 0.48154v1.1001h0.30374v-1.1409c0-0.45932-0.1778-0.70379-0.54822-0.70379-0.21855 0-0.40376 0.14075-0.59267 0.34448-0.07408-0.21484-0.22225-0.34448-0.49636-0.34448-0.21484 0-0.40376 0.13335-0.55933 0.30374h-0.01111l-0.02593-0.25929h-0.25188z"/>
   <path d="m-36.97 246.59c0 0.58897 0.38153 0.94086 0.86307 0.94086 0.24448 0 0.43709-0.0852 0.59267-0.18521l-0.10742-0.20002c-0.13335 0.0852-0.27781 0.14076-0.4482 0.14076-0.34449 0-0.57785-0.24448-0.60008-0.63342h1.215c0.0074-0.0444 0.01111-0.10371 0.01111-0.16668 0-0.51488-0.25929-0.84455-0.71861-0.84455-0.41116 0-0.80751 0.3593-0.80751 0.94826zm0.29633-0.13705c0.03704-0.36301 0.2667-0.57044 0.51858-0.57044 0.28152 0 0.4445 0.20373 0.4445 0.57044z"/>
   <path d="m-34.999 247.48h0.30374v-1.3039c0.1815-0.1815 0.30745-0.27781 0.49266-0.27781 0.23707 0 0.34078 0.14446 0.34078 0.48154v1.1001h0.30374v-1.1409c0-0.45932-0.17039-0.70379-0.54822-0.70379-0.24818 0-0.43339 0.13335-0.60378 0.30374h-0.01111l-0.02593-0.25929h-0.25188z"/>
   <path d="m-32.921 246.93c0 0.3556 0.12965 0.60007 0.51488 0.60007 0.11112 0 0.23336-0.0333 0.33338-0.0667l-0.05927-0.22966c-0.05927 0.0222-0.14076 0.0481-0.20373 0.0481-0.20743 0-0.27781-0.12594-0.27781-0.34819v-1.0001h0.48525v-0.24817h-0.48525v-0.50377h-0.25559l-0.03704 0.50377-0.28152 0.0185v0.22965h0.2667z"/>
   <path d="m-31.875 247.02c0 0.32226 0.22595 0.51117 0.5297 0.51117 0.22225 0 0.42228-0.11853 0.59637-0.25929h0.0074l0.02593 0.21484h0.25188v-1.1038c0-0.44821-0.18521-0.74083-0.626-0.74083-0.28892 0-0.54081 0.12594-0.7075 0.23336l0.12224 0.21114c0.14076-0.0963 0.32597-0.19262 0.5371-0.19262 0.29263 0 0.37042 0.22225 0.37042 0.45191-0.76676 0.0852-1.1075 0.28151-1.1075 0.67416zm0.30004-0.0222c0-0.22966 0.20373-0.37782 0.80751-0.45191v0.50007c-0.1741 0.15557-0.31856 0.24077-0.49266 0.24077-0.1778 0-0.31485-0.0852-0.31485-0.28893z"/>
   <path d="m-29.839 246.93c0 0.3556 0.12965 0.60007 0.51488 0.60007 0.11112 0 0.23336-0.0333 0.33338-0.0667l-0.05927-0.22966c-0.05927 0.0222-0.14076 0.0481-0.20373 0.0481-0.20743 0-0.27781-0.12594-0.27781-0.34819v-1.0001h0.48525v-0.24817h-0.48525v-0.50377h-0.25559l-0.03704 0.50377-0.28152 0.0185v0.22965h0.2667z"/>
   <path d="m-28.484 245.31c0.11853 0 0.21114-0.0815 0.21114-0.19632 0-0.11854-0.0926-0.19632-0.21114-0.19632-0.11853 0-0.21114 0.0778-0.21114 0.19632 0 0.11483 0.0926 0.19632 0.21114 0.19632zm-0.15558 2.1706h0.30374v-1.8002h-0.30374z"/>
   <path d="m-27.861 246.59c0 0.59637 0.39264 0.94086 0.83344 0.94086s0.83344-0.34449 0.83344-0.94086c0-0.60378-0.39264-0.94826-0.83344-0.94826s-0.83344 0.34448-0.83344 0.94826zm0.31485 0c0-0.41486 0.21114-0.69638 0.51858-0.69638 0.31115 0 0.51858 0.28152 0.51858 0.69638 0 0.41117-0.20743 0.68898-0.51858 0.68898-0.30745 0-0.51858-0.27781-0.51858-0.68898z"/>
   <path d="m-25.716 247.48h0.30374v-1.3039c0.1815-0.1815 0.30745-0.27781 0.49265-0.27781 0.23707 0 0.34078 0.14446 0.34078 0.48154v1.1001h0.30374v-1.1409c0-0.45932-0.17039-0.70379-0.54822-0.70379-0.24818 0-0.43339 0.13335-0.60378 0.30374h-0.01111l-0.02593-0.25929h-0.25188z"/>
  </g>
 </g>
</svg>
