<svg width="125.94mm" height="62.706mm" version="1.1" viewBox="0 0 125.94 62.706" xmlns="http://www.w3.org/2000/svg">
 <g transform="translate(-109.93 -141.88)">
  <g transform="matrix(-.0021183 -.003669 -.0037318 .0021545 207.99 173.41)" fill="#47d58a" stroke-width="123.85">
   <g fill="#47d58a" stroke-width="123.85">
    <path d="m486.41 221.41-364.07-208.5c-52.938-30.318-95.852-5.44-95.852 55.563v415.65c0 61.004 42.914 85.882 95.852 55.563l364.07-208.49c52.938-30.317 52.938-79.473 0-109.79z" fill="#47d58a" stroke-width="123.85"/>
   </g>
  </g>
  <path d="m205.85 173.23h-16.404" fill="none" stroke="#47d58a" stroke-linecap="square" stroke-width=".26458"/>
  <g>
   <rect x="156.37" y="142.01" width="33.073" height="62.442" fill="#1d232d" stroke="#e9e56f" stroke-linecap="round" stroke-width=".26458"/>
   <g fill="#e9e56f" stroke-linecap="round" stroke-width=".26458" aria-label="Builder">
    <path d="m167.47 174.26h0.77788c0.54081 0 0.91863-0.23336 0.91863-0.7112 0-0.33338-0.20743-0.52599-0.56303-0.58155v-0.0148c0.28892-0.0741 0.42598-0.28893 0.42598-0.5297 0-0.42598-0.34449-0.59266-0.83714-0.59266h-0.72232zm0.31115-1.3928v-0.79269h0.37412c0.37413 0 0.57045 0.11113 0.57045 0.37412 0 0.27041-0.1741 0.41857-0.58526 0.41857zm0 1.1483v-0.91863h0.42228c0.42598 0 0.65934 0.13706 0.65934 0.43709 0 0.32967-0.24447 0.48154-0.65934 0.48154z"/>
    <path d="m169.59 173.6c0 0.45931 0.17039 0.70379 0.55192 0.70379 0.24818 0 0.42598-0.12965 0.59267-0.32597h0.0111l0.0259 0.28152h0.25188v-1.8002h-0.30374v1.2779c-0.17039 0.21114-0.30004 0.30374-0.48525 0.30374-0.23706 0-0.33707-0.14446-0.33707-0.48154v-1.1001h-0.30745z"/>
    <path d="m171.79 172.09c0.11854 0 0.21114-0.0815 0.21114-0.19632 0-0.11854-0.0926-0.19632-0.21114-0.19632-0.11853 0-0.21113 0.0778-0.21113 0.19632 0 0.11483 0.0926 0.19632 0.21113 0.19632zm-0.15557 2.1706h0.30374v-1.8002h-0.30374z"/>
    <path d="m172.55 173.9c0 0.263 0.0926 0.40746 0.32226 0.40746 0.0815 0 0.13335-0.0111 0.1741-0.0296l-0.0408-0.22966c-0.0333 7e-3 -0.0481 7e-3 -0.0667 7e-3 -0.0445 0-0.0852-0.037-0.0852-0.13335v-2.2966h-0.30374z"/>
    <path d="m173.36 173.36c0 0.60008 0.29263 0.94086 0.74454 0.94086 0.21114 0 0.40375-0.11853 0.54451-0.25559h0.0111l0.0259 0.21114h0.25189v-2.6374h-0.30745v0.69268l0.0148 0.30745c-0.15928-0.12965-0.29634-0.20744-0.50377-0.20744-0.41116 0-0.78158 0.36301-0.78158 0.94827zm0.31486-4e-3c0-0.41117 0.22965-0.68898 0.51858-0.68898 0.14817 0 0.28522 0.0519 0.43709 0.18891v0.94086c-0.14817 0.16669-0.29263 0.24818-0.45932 0.24818-0.31485 0-0.49635-0.25929-0.49635-0.68897z"/>
    <path d="m175.41 173.36c0 0.58896 0.38153 0.94086 0.86307 0.94086 0.24448 0 0.4371-0.0852 0.59267-0.18521l-0.10742-0.20002c-0.13335 0.0852-0.27781 0.14075-0.4482 0.14075-0.34449 0-0.57785-0.24447-0.60008-0.63341h1.215c7e-3 -0.0445 0.0111-0.10371 0.0111-0.16669 0-0.51487-0.25929-0.84455-0.71861-0.84455-0.41116 0-0.80751 0.35931-0.80751 0.94827zm0.29634-0.13705c0.037-0.36301 0.2667-0.57044 0.51858-0.57044 0.28152 0 0.4445 0.20372 0.4445 0.57044z"/>
    <path d="m177.39 174.26h0.30374v-1.1557c0.12224-0.30374 0.30374-0.41487 0.45561-0.41487 0.0741 0 0.11483 0.0111 0.1741 0.0296l0.0593-0.2667c-0.0593-0.0259-0.11483-0.0371-0.19261-0.0371-0.20373 0-0.38894 0.14447-0.51118 0.37042h-0.0111l-0.0259-0.32597h-0.25188z"/>
   </g>
   <g transform="matrix(-.0021183 -.003669 -.0037318 .0021545 156.4 146.96)" fill="#47d58a" stroke-width="123.85">
    <g fill="#47d58a" stroke-width="123.85">
     <path d="m486.41 221.41-364.07-208.5c-52.938-30.318-95.852-5.44-95.852 55.563v415.65c0 61.004 42.914 85.882 95.852 55.563l364.07-208.49c52.938-30.317 52.938-79.473 0-109.79z" fill="#47d58a" stroke-width="123.85"/>
    </g>
   </g>
  </g>
  <path d="m154.25 146.77h-16.404" fill="none" stroke="#47d58a" stroke-linecap="square" stroke-width=".26458"/>
  <g transform="matrix(-.0021183 -.003669 -.0037318 .0021545 156.4 160.19)" fill="#47d58a" stroke-width="123.85">
   <g fill="#47d58a" stroke-width="123.85">
    <path d="m486.41 221.41-364.07-208.5c-52.938-30.318-95.852-5.44-95.852 55.563v415.65c0 61.004 42.914 85.882 95.852 55.563l364.07-208.49c52.938-30.317 52.938-79.473 0-109.79z" fill="#47d58a" stroke-width="123.85"/>
   </g>
  </g>
  <path d="m154.25 160h-16.404" fill="none" stroke="#47d58a" stroke-linecap="square" stroke-width=".26458"/>
  <g transform="matrix(-.0021183 -.003669 -.0037318 .0021545 156.4 173.41)" fill="#47d58a" stroke-width="123.85">
   <g fill="#47d58a" stroke-width="123.85">
    <path d="m486.41 221.41-364.07-208.5c-52.938-30.318-95.852-5.44-95.852 55.563v415.65c0 61.004 42.914 85.882 95.852 55.563l364.07-208.49c52.938-30.317 52.938-79.473 0-109.79z" fill="#47d58a" stroke-width="123.85"/>
   </g>
  </g>
  <path d="m154.25 173.23h-16.404" fill="none" stroke="#47d58a" stroke-linecap="square" stroke-width=".26458"/>
  <g transform="matrix(-.0021183 -.003669 -.0037318 .0021545 156.4 186.64)" fill="#47d58a" stroke-width="123.85">
   <g fill="#47d58a" stroke-width="123.85">
    <path d="m486.41 221.41-364.07-208.5c-52.938-30.318-95.852-5.44-95.852 55.563v415.65c0 61.004 42.914 85.882 95.852 55.563l364.07-208.49c52.938-30.317 52.938-79.473 0-109.79z" fill="#47d58a" stroke-width="123.85"/>
   </g>
  </g>
  <path d="m154.25 186.46h-16.404" fill="none" stroke="#47d58a" stroke-linecap="square" stroke-width=".26458"/>
  <g transform="matrix(-.0021183 -.003669 -.0037318 .0021545 156.4 199.87)" fill="#47d58a" stroke-width="123.85">
   <g fill="#47d58a" stroke-width="123.85">
    <path d="m486.41 221.41-364.07-208.5c-52.938-30.318-95.852-5.44-95.852 55.563v415.65c0 61.004 42.914 85.882 95.852 55.563l364.07-208.49c52.938-30.317 52.938-79.473 0-109.79z" fill="#47d58a" stroke-width="123.85"/>
   </g>
  </g>
  <path d="m154.25 199.69h-16.404" fill="none" stroke="#47d58a" stroke-linecap="square" stroke-width=".26458"/>
  <g stroke-linecap="round" stroke-width=".26458">
   <rect x="110.07" y="142.01" width="27.781" height="9.525" fill="#1d232d" stroke="#009244"/>
   <g fill="#47d58a" aria-label="Position">
    <path d="m117.78 147.8h0.31115v-0.96308h0.43709c0.5297 0 0.89641-0.24077 0.89641-0.75195 0-0.5334-0.3593-0.7149-0.89641-0.7149h-0.74824zm0.31115-1.215v-0.96679h0.39635c0.41857 0 0.62971 0.11483 0.62971 0.46672 0 0.34449-0.20373 0.50007-0.62971 0.50007z"/>
    <path d="m119.66 146.91c0 0.59637 0.39264 0.94086 0.83344 0.94086 0.44079 0 0.83343-0.34449 0.83343-0.94086 0-0.60378-0.39264-0.94826-0.83343-0.94826-0.4408 0-0.83344 0.34448-0.83344 0.94826zm0.31485 0c0-0.41486 0.21114-0.69638 0.51859-0.69638 0.31115 0 0.51858 0.28152 0.51858 0.69638 0 0.41117-0.20743 0.68898-0.51858 0.68898-0.30745 0-0.51859-0.27781-0.51859-0.68898z"/>
    <path d="m121.6 147.6c0.17039 0.14076 0.41487 0.24818 0.67045 0.24818 0.42598 0 0.65934-0.24447 0.65934-0.5371 0-0.34079-0.28892-0.44821-0.54821-0.54451-0.20373-0.0778-0.40005-0.14447-0.40005-0.31115 0-0.13706 0.10371-0.2593 0.32967-0.2593 0.15928 0 0.28892 0.0667 0.41116 0.15928l0.14446-0.19261c-0.13705-0.11113-0.33337-0.20373-0.55933-0.20373-0.38893 0-0.61859 0.22225-0.61859 0.51117 0 0.30374 0.28152 0.42598 0.5371 0.51859 0.19632 0.0741 0.41117 0.15557 0.41117 0.34078 0 0.15557-0.11854 0.28152-0.3556 0.28152-0.21485 0-0.37413-0.0889-0.5297-0.21485z"/>
    <path d="m123.51 145.63c0.11853 0 0.21114-0.0815 0.21114-0.19632 0-0.11853-0.0926-0.19632-0.21114-0.19632-0.11853 0-0.21114 0.0778-0.21114 0.19632 0 0.11483 0.0926 0.19632 0.21114 0.19632zm-0.15557 2.1706h0.30374v-1.8002h-0.30374z"/>
    <path d="m124.32 147.25c0 0.3556 0.12964 0.60007 0.51487 0.60007 0.11113 0 0.23337-0.0333 0.33338-0.0667l-0.0593-0.22966c-0.0593 0.0222-0.14076 0.0481-0.20373 0.0481-0.20743 0-0.27781-0.12594-0.27781-0.34819v-1.0001h0.48525v-0.24818h-0.48525v-0.50377h-0.25559l-0.037 0.50377-0.28151 0.0185v0.22966h0.2667z"/>
    <path d="m125.67 145.63c0.11853 0 0.21113-0.0815 0.21113-0.19632 0-0.11853-0.0926-0.19632-0.21113-0.19632-0.11854 0-0.21114 0.0778-0.21114 0.19632 0 0.11483 0.0926 0.19632 0.21114 0.19632zm-0.15558 2.1706h0.30374v-1.8002h-0.30374z"/>
    <path d="m126.3 146.91c0 0.59637 0.39264 0.94086 0.83344 0.94086s0.83344-0.34449 0.83344-0.94086c0-0.60378-0.39264-0.94826-0.83344-0.94826s-0.83344 0.34448-0.83344 0.94826zm0.31486 0c0-0.41486 0.21113-0.69638 0.51858-0.69638 0.31115 0 0.51858 0.28152 0.51858 0.69638 0 0.41117-0.20743 0.68898-0.51858 0.68898-0.30745 0-0.51858-0.27781-0.51858-0.68898z"/>
    <path d="m128.44 147.8h0.30374v-1.3039c0.1815-0.18151 0.30745-0.27782 0.49265-0.27782 0.23707 0 0.34079 0.14447 0.34079 0.48154v1.1001h0.30374v-1.1409c0-0.45932-0.17039-0.70379-0.54822-0.70379-0.24818 0-0.43338 0.13335-0.60378 0.30374h-0.0111l-0.0259-0.25929h-0.25188z"/>
   </g>
   <rect x="110.07" y="155.24" width="27.781" height="9.525" fill="#1d232d" stroke="#009244"/>
   <g fill="#47d58a" aria-label="Texture">
    <path d="m118.88 161.03h0.30744v-2.1706h0.73713v-0.2593h-1.7817v0.2593h0.73713z"/>
    <path d="m119.94 160.14c0 0.58896 0.38152 0.94086 0.86307 0.94086 0.24447 0 0.43709-0.0852 0.59266-0.18521l-0.10742-0.20003c-0.13335 0.0852-0.27781 0.14076-0.4482 0.14076-0.34449 0-0.57785-0.24447-0.60008-0.63341h1.215c7e-3 -0.0444 0.0111-0.10372 0.0111-0.16669 0-0.51488-0.25929-0.84455-0.71861-0.84455-0.41116 0-0.8075 0.35931-0.8075 0.94827zm0.29633-0.13705c0.037-0.36301 0.2667-0.57045 0.51858-0.57045 0.28152 0 0.4445 0.20373 0.4445 0.57045z"/>
    <path d="m121.63 161.03h0.31856l0.24447-0.41857c0.0593-0.11113 0.11853-0.21855 0.1815-0.32227h0.0148c0.0667 0.10372 0.13335 0.21485 0.19632 0.32227l0.263 0.41857h0.32967l-0.58526-0.90752 0.54451-0.89271h-0.31856l-0.21854 0.39635c-0.0556 0.0963-0.11113 0.20002-0.16298 0.30004h-0.0148c-0.063-0.10002-0.12224-0.20373-0.1778-0.30004l-0.24077-0.39635h-0.32967l0.54451 0.85937z"/>
    <path d="m123.59 160.48c0 0.3556 0.12965 0.60008 0.51488 0.60008 0.11113 0 0.23336-0.0333 0.33338-0.0667l-0.0593-0.22966c-0.0593 0.0222-0.14076 0.0482-0.20373 0.0482-0.20743 0-0.27781-0.12594-0.27781-0.34819v-1.0001h0.48524v-0.24818h-0.48524v-0.50376h-0.25559l-0.037 0.50376-0.28152 0.0185v0.22966h0.2667z"/>
    <path d="m124.74 160.37c0 0.45931 0.17039 0.70379 0.55192 0.70379 0.24818 0 0.42598-0.12965 0.59267-0.32597h0.0111l0.0259 0.28152h0.25188v-1.8002h-0.30374v1.2779c-0.17039 0.21114-0.30003 0.30374-0.48524 0.30374-0.23707 0-0.33708-0.14446-0.33708-0.48154v-1.1001h-0.30745z"/>
    <path d="m126.78 161.03h0.30374v-1.1557c0.12224-0.30374 0.30375-0.41487 0.45562-0.41487 0.0741 0 0.11483 0.0111 0.17409 0.0296l0.0593-0.2667c-0.0593-0.0259-0.11483-0.037-0.19262-0.037-0.20373 0-0.38893 0.14447-0.51117 0.37042h-0.0111l-0.0259-0.32597h-0.25189z"/>
    <path d="m127.9 160.14c0 0.58896 0.38153 0.94086 0.86307 0.94086 0.24447 0 0.43709-0.0852 0.59266-0.18521l-0.10742-0.20003c-0.13335 0.0852-0.27781 0.14076-0.4482 0.14076-0.34449 0-0.57785-0.24447-0.60008-0.63341h1.215c7e-3 -0.0444 0.0111-0.10372 0.0111-0.16669 0-0.51488-0.25929-0.84455-0.71861-0.84455-0.41116 0-0.8075 0.35931-0.8075 0.94827zm0.29633-0.13705c0.037-0.36301 0.2667-0.57045 0.51858-0.57045 0.28152 0 0.4445 0.20373 0.4445 0.57045z"/>
   </g>
   <rect x="110.07" y="168.47" width="27.781" height="9.525" fill="#1d232d" stroke="#009244"/>
   <g fill="#47d58a" aria-label="Animation">
    <path d="m116.39 173.27 0.11854-0.37042c0.0852-0.2704 0.16298-0.5371 0.24077-0.81862h0.0148c0.0778 0.28152 0.15558 0.54822 0.24078 0.81862l0.11482 0.37042zm1.0409 0.98901h0.32597l-0.82232-2.4299h-0.3482l-0.82232 2.4299h0.31485l0.23337-0.74083h0.88529z"/>
    <path d="m118.06 174.26h0.30375v-1.3039c0.1815-0.1815 0.30744-0.27781 0.49265-0.27781 0.23707 0 0.34078 0.14446 0.34078 0.48154v1.1001h0.30375v-1.1409c0-0.45932-0.1704-0.7038-0.54822-0.7038-0.24818 0-0.43339 0.13335-0.60378 0.30375h-0.0111l-0.0259-0.2593h-0.25189z"/>
    <path d="m120.24 172.09c0.11853 0 0.21113-0.0815 0.21113-0.19632 0-0.11854-0.0926-0.19632-0.21113-0.19632-0.11854 0-0.21114 0.0778-0.21114 0.19632 0 0.11483 0.0926 0.19632 0.21114 0.19632zm-0.15558 2.1706h0.30374v-1.8002h-0.30374z"/>
    <path d="m121 174.26h0.30374v-1.3039c0.16669-0.18521 0.31856-0.27781 0.45191-0.27781 0.22966 0 0.33708 0.14446 0.33708 0.48154v1.1001h0.30374v-1.3039c0.16669-0.18521 0.31115-0.27781 0.45191-0.27781 0.22596 0 0.33338 0.14446 0.33338 0.48154v1.1001h0.30374v-1.1409c0-0.45932-0.1778-0.7038-0.54822-0.7038-0.21854 0-0.40375 0.14076-0.59267 0.34449-0.0741-0.21484-0.22225-0.34449-0.49635-0.34449-0.21485 0-0.40376 0.13335-0.55933 0.30375h-0.0111l-0.0259-0.2593h-0.25189z"/>
    <path d="m123.98 173.79c0 0.32227 0.22595 0.51118 0.52969 0.51118 0.22225 0 0.42228-0.11853 0.59637-0.25929h7e-3l0.0259 0.21484h0.25188v-1.1038c0-0.44821-0.18521-0.74084-0.626-0.74084-0.28893 0-0.54081 0.12595-0.7075 0.23337l0.12224 0.21113c0.14076-0.0963 0.32597-0.19261 0.5371-0.19261 0.29263 0 0.37042 0.22225 0.37042 0.45191-0.76676 0.0852-1.1075 0.28151-1.1075 0.67415zm0.30003-0.0222c0-0.22966 0.20373-0.37783 0.80751-0.45191v0.50006c-0.17409 0.15558-0.31856 0.24077-0.49265 0.24077-0.1778 0-0.31486-0.0852-0.31486-0.28892z"/>
    <path d="m126.01 173.71c0 0.3556 0.12964 0.60008 0.51487 0.60008 0.11113 0 0.23337-0.0333 0.33338-0.0667l-0.0593-0.22965c-0.0593 0.0222-0.14076 0.0481-0.20373 0.0481-0.20743 0-0.27781-0.12594-0.27781-0.34819v-1.0001h0.48525v-0.24818h-0.48525v-0.50376h-0.25559l-0.037 0.50376-0.28151 0.0185v0.22965h0.2667z"/>
    <path d="m127.37 172.09c0.11853 0 0.21113-0.0815 0.21113-0.19632 0-0.11854-0.0926-0.19632-0.21113-0.19632-0.11854 0-0.21114 0.0778-0.21114 0.19632 0 0.11483 0.0926 0.19632 0.21114 0.19632zm-0.15558 2.1706h0.30374v-1.8002h-0.30374z"/>
    <path d="m127.99 173.36c0 0.59637 0.39264 0.94086 0.83344 0.94086s0.83344-0.34449 0.83344-0.94086c0-0.60378-0.39264-0.94827-0.83344-0.94827s-0.83344 0.34449-0.83344 0.94827zm0.31486 0c0-0.41487 0.21113-0.69638 0.51858-0.69638 0.31115 0 0.51858 0.28151 0.51858 0.69638 0 0.41116-0.20743 0.68898-0.51858 0.68898-0.30745 0-0.51858-0.27782-0.51858-0.68898z"/>
    <path d="m130.13 174.26h0.30374v-1.3039c0.18151-0.1815 0.30745-0.27781 0.49266-0.27781 0.23706 0 0.34078 0.14446 0.34078 0.48154v1.1001h0.30374v-1.1409c0-0.45932-0.17039-0.7038-0.54822-0.7038-0.24818 0-0.43338 0.13335-0.60378 0.30375h-0.0111l-0.0259-0.2593h-0.25188z"/>
   </g>
   <rect x="110.07" y="181.7" width="27.781" height="9.525" fill="#1d232d" stroke="#009244"/>
   <g fill="#47d58a" aria-label="Behavior">
    <path d="m117.21 187.49h0.77788c0.54081 0 0.91863-0.23336 0.91863-0.7112 0-0.33337-0.20743-0.52599-0.56303-0.58155v-0.0148c0.28892-0.0741 0.42598-0.28892 0.42598-0.52969 0-0.42598-0.34449-0.59267-0.83714-0.59267h-0.72232zm0.31115-1.3928v-0.7927h0.37412c0.37413 0 0.57045 0.11113 0.57045 0.37412 0 0.27041-0.1741 0.41858-0.58526 0.41858zm0 1.1483v-0.91864h0.42228c0.42598 0 0.65934 0.13706 0.65934 0.4371 0 0.32967-0.24447 0.48154-0.65934 0.48154z"/>
    <path d="m119.22 186.59c0 0.58897 0.38153 0.94086 0.86307 0.94086 0.24447 0 0.43709-0.0852 0.59267-0.18521l-0.10743-0.20002c-0.13335 0.0852-0.27781 0.14076-0.4482 0.14076-0.34449 0-0.57785-0.24448-0.60007-0.63342h1.215c7e-3 -0.0444 0.0111-0.10371 0.0111-0.16668 0-0.51488-0.25929-0.84455-0.7186-0.84455-0.41117 0-0.80751 0.3593-0.80751 0.94826zm0.29633-0.13705c0.037-0.36301 0.2667-0.57044 0.51858-0.57044 0.28152 0 0.4445 0.20373 0.4445 0.57044z"/>
    <path d="m121.19 187.49h0.30374v-1.3039c0.18151-0.18151 0.30745-0.27782 0.49266-0.27782 0.23706 0 0.34078 0.14447 0.34078 0.48154v1.1001h0.30374v-1.1409c0-0.45932-0.17039-0.70379-0.54821-0.70379-0.24818 0-0.42969 0.13335-0.60008 0.29633l0.0111-0.37042v-0.7186h-0.30374z"/>
    <path d="m123.12 187.02c0 0.32226 0.22596 0.51117 0.5297 0.51117 0.22225 0 0.42227-0.11853 0.59637-0.25929h7e-3l0.0259 0.21484h0.25188v-1.1038c0-0.4482-0.18521-0.74083-0.626-0.74083-0.28893 0-0.54081 0.12594-0.7075 0.23336l0.12224 0.21114c0.14076-0.0963 0.32597-0.19262 0.5371-0.19262 0.29263 0 0.37042 0.22225 0.37042 0.45191-0.76676 0.0852-1.1076 0.28152-1.1076 0.67416zm0.30004-0.0222c0-0.22966 0.20373-0.37782 0.80751-0.45191v0.50007c-0.1741 0.15557-0.31856 0.24077-0.49265 0.24077-0.1778 0-0.31486-0.0852-0.31486-0.28893z"/>
    <path d="m125.49 187.49h0.3556l0.63712-1.8002h-0.30004l-0.34078 1.0224c-0.0519 0.1778-0.11113 0.3593-0.16298 0.52969h-0.0148c-0.0556-0.17039-0.11483-0.35189-0.16669-0.52969l-0.34078-1.0224h-0.31486z"/>
    <path d="m126.99 185.32c0.11854 0 0.21114-0.0815 0.21114-0.19632 0-0.11853-0.0926-0.19632-0.21114-0.19632-0.11853 0-0.21113 0.0778-0.21113 0.19632 0 0.11483 0.0926 0.19632 0.21113 0.19632zm-0.15557 2.1706h0.30374v-1.8002h-0.30374z"/>
    <path d="m127.61 186.59c0 0.59637 0.39264 0.94086 0.83344 0.94086 0.44079 0 0.83344-0.34449 0.83344-0.94086 0-0.60378-0.39265-0.94826-0.83344-0.94826-0.4408 0-0.83344 0.34448-0.83344 0.94826zm0.31485 0c0-0.41486 0.21114-0.69638 0.51859-0.69638 0.31115 0 0.51858 0.28152 0.51858 0.69638 0 0.41117-0.20743 0.68898-0.51858 0.68898-0.30745 0-0.51859-0.27781-0.51859-0.68898z"/>
    <path d="m129.75 187.49h0.30374v-1.1557c0.12224-0.30374 0.30374-0.41486 0.45561-0.41486 0.0741 0 0.11483 0.0111 0.1741 0.0296l0.0593-0.2667c-0.0593-0.0259-0.11483-0.037-0.19261-0.037-0.20373 0-0.38894 0.14446-0.51118 0.37041h-0.0111l-0.0259-0.32596h-0.25188z"/>
   </g>
   <rect x="110.07" y="194.93" width="27.781" height="9.525" fill="#1d232d" stroke="#009244"/>
   <g fill="#47d58a" aria-label="Configuration">
    <path d="m113.34 199.5c0 0.79269 0.45562 1.2594 1.0668 1.2594 0.30745 0 0.54822-0.12965 0.73713-0.3519l-0.17409-0.18891c-0.15558 0.1741-0.32597 0.2704-0.55563 0.2704-0.46302 0-0.75565-0.38523-0.75565-0.99642 0-0.60378 0.30745-0.9816 0.77047-0.9816 0.20002 0 0.3556 0.0889 0.48525 0.22595l0.17409-0.19632c-0.14446-0.15928-0.37412-0.30004-0.66304-0.30004-0.6223 0-1.0853 0.47784-1.0853 1.2594z"/>
    <path d="m115.43 199.82c0 0.59637 0.39264 0.94086 0.83343 0.94086 0.4408 0 0.83344-0.34449 0.83344-0.94086 0-0.60378-0.39264-0.94827-0.83344-0.94827-0.44079 0-0.83343 0.34449-0.83343 0.94827zm0.31485 0c0-0.41487 0.21114-0.69638 0.51858-0.69638 0.31115 0 0.51859 0.28151 0.51859 0.69638 0 0.41116-0.20744 0.68897-0.51859 0.68897-0.30744 0-0.51858-0.27781-0.51858-0.68897z"/>
    <path d="m117.57 200.72h0.30374v-1.3039c0.18151-0.1815 0.30745-0.27781 0.49266-0.27781 0.23706 0 0.34078 0.14446 0.34078 0.48154v1.1001h0.30374v-1.1409c0-0.45931-0.17039-0.70379-0.54821-0.70379-0.24818 0-0.43339 0.13335-0.60378 0.30374h-0.0111l-0.0259-0.25929h-0.25189z"/>
    <path d="m120.47 198.1c-0.0815-0.0333-0.18892-0.0593-0.30004-0.0593-0.35931 0-0.52599 0.22966-0.52599 0.59637v0.28522l-0.24448 0.0185v0.22966h0.24448v1.552h0.30374v-1.552h0.38153v-0.24818h-0.38153v-0.28522c0-0.22966 0.0815-0.34819 0.25188-0.34819 0.0667 0 0.13706 0.0148 0.20373 0.0445z"/>
    <path d="m120.84 198.55c0.11853 0 0.21114-0.0815 0.21114-0.19632 0-0.11854-0.0926-0.19633-0.21114-0.19633s-0.21114 0.0778-0.21114 0.19633c0 0.11482 0.0926 0.19632 0.21114 0.19632zm-0.15558 2.1706h0.30374v-1.8002h-0.30374z"/>
    <path d="m121.72 201.02c0-0.10372 0.0556-0.21114 0.18521-0.30374 0.0778 0.0222 0.16298 0.0296 0.23336 0.0296h0.31115c0.23336 0 0.36301 0.0556 0.36301 0.22225 0 0.18891-0.22595 0.36671-0.57044 0.36671-0.32597 0-0.52229-0.12223-0.52229-0.31485zm-0.2667 0.0408c0 0.31115 0.30374 0.48524 0.74454 0.48524 0.55933 0 0.91122-0.28892 0.91122-0.6223 0-0.30004-0.21113-0.42968-0.6297-0.42968h-0.3482c-0.24447 0-0.31855-0.0815-0.31855-0.19632 0-0.10002 0.0519-0.15928 0.11482-0.21484 0.0815 0.0407 0.18151 0.063 0.27041 0.063 0.36671 0 0.65934-0.24077 0.65934-0.62601 0-0.15187-0.063-0.28892-0.14817-0.37041h0.37042v-0.23337h-0.626c-0.0667-0.0259-0.15558-0.0444-0.25559-0.0444-0.36671 0-0.67786 0.24818-0.67786 0.64082 0 0.21485 0.11483 0.38894 0.23336 0.48525v0.0148c-0.0926 0.063-0.19632 0.1815-0.19632 0.33337 0 0.14076 0.0704 0.23707 0.15928 0.29263v0.0148c-0.16299 0.11112-0.263 0.25558-0.263 0.40746zm0.74454-1.1187c-0.20743 0-0.38153-0.16669-0.38153-0.42969 0-0.26299 0.17039-0.41857 0.38153-0.41857s0.38153 0.15558 0.38153 0.41857c0 0.263-0.1741 0.42969-0.38153 0.42969z"/>
    <path d="m123.43 200.06c0 0.45931 0.17039 0.70379 0.55192 0.70379 0.24818 0 0.42598-0.12965 0.59267-0.32597h0.0111l0.0259 0.28152h0.25188v-1.8002h-0.30374v1.2779c-0.17039 0.21114-0.30004 0.30374-0.48525 0.30374-0.23706 0-0.33708-0.14446-0.33708-0.48154v-1.1001h-0.30744z"/>
    <path d="m125.48 200.72h0.30374v-1.1557c0.12224-0.30374 0.30374-0.41487 0.45561-0.41487 0.0741 0 0.11483 0.0111 0.1741 0.0296l0.0593-0.2667c-0.0593-0.0259-0.11483-0.037-0.19262-0.037-0.20373 0-0.38894 0.14447-0.51118 0.37042h-0.0111l-0.0259-0.32597h-0.25188z"/>
    <path d="m126.58 200.25c0 0.32227 0.22596 0.51118 0.5297 0.51118 0.22225 0 0.42228-0.11854 0.59637-0.25929h7e-3l0.0259 0.21484h0.25188v-1.1038c0-0.44821-0.18521-0.74084-0.626-0.74084-0.28893 0-0.54081 0.12594-0.7075 0.23337l0.12224 0.21113c0.14076-0.0963 0.32597-0.19261 0.5371-0.19261 0.29263 0 0.37042 0.22225 0.37042 0.4519-0.76676 0.0852-1.1076 0.28152-1.1076 0.67416zm0.30004-0.0222c0-0.22966 0.20373-0.37783 0.80751-0.45191v0.50006c-0.1741 0.15558-0.31856 0.24077-0.49265 0.24077-0.1778 0-0.31486-0.0852-0.31486-0.28892z"/>
    <path d="m128.62 200.16c0 0.3556 0.12965 0.60008 0.51488 0.60008 0.11113 0 0.23337-0.0333 0.33338-0.0667l-0.0593-0.22966c-0.0593 0.0222-0.14076 0.0482-0.20373 0.0482-0.20743 0-0.27781-0.12594-0.27781-0.34819v-1.0001h0.48525v-0.24818h-0.48525v-0.50376h-0.25559l-0.037 0.50376-0.28152 0.0185v0.22966h0.2667z"/>
    <path d="m129.98 198.55c0.11853 0 0.21113-0.0815 0.21113-0.19632 0-0.11854-0.0926-0.19633-0.21113-0.19633-0.11854 0-0.21114 0.0778-0.21114 0.19633 0 0.11482 0.0926 0.19632 0.21114 0.19632zm-0.15558 2.1706h0.30374v-1.8002h-0.30374z"/>
    <path d="m130.6 199.82c0 0.59637 0.39264 0.94086 0.83344 0.94086s0.83344-0.34449 0.83344-0.94086c0-0.60378-0.39264-0.94827-0.83344-0.94827s-0.83344 0.34449-0.83344 0.94827zm0.31486 0c0-0.41487 0.21113-0.69638 0.51858-0.69638 0.31115 0 0.51858 0.28151 0.51858 0.69638 0 0.41116-0.20743 0.68897-0.51858 0.68897-0.30745 0-0.51858-0.27781-0.51858-0.68897z"/>
    <path d="m132.74 200.72h0.30374v-1.3039c0.18151-0.1815 0.30745-0.27781 0.49266-0.27781 0.23706 0 0.34078 0.14446 0.34078 0.48154v1.1001h0.30374v-1.1409c0-0.45931-0.17039-0.70379-0.54822-0.70379-0.24818 0-0.43338 0.13335-0.60378 0.30374h-0.0111l-0.0259-0.25929h-0.25188z"/>
   </g>
   <rect x="207.96" y="168.47" width="27.781" height="9.525" fill="#1d232d" stroke="#6f8ce9"/>
   <g fill="#6f8ce9" aria-label="Entity">
    <path d="m217.48 174.26h1.4372v-0.263h-1.1261v-0.88159h0.91864v-0.26299h-0.91864v-0.76306h1.089v-0.25929h-1.4002z"/>
    <path d="m219.39 174.26h0.30374v-1.3039c0.1815-0.1815 0.30745-0.27781 0.49265-0.27781 0.23707 0 0.34079 0.14446 0.34079 0.48154v1.1001h0.30374v-1.1409c0-0.45932-0.17039-0.7038-0.54822-0.7038-0.24818 0-0.43339 0.13335-0.60378 0.30375h-0.0111l-0.0259-0.2593h-0.25188z"/>
    <path d="m221.47 173.71c0 0.3556 0.12965 0.60008 0.51488 0.60008 0.11113 0 0.23336-0.0333 0.33338-0.0667l-0.0593-0.22965c-0.0593 0.0222-0.14076 0.0481-0.20373 0.0481-0.20743 0-0.27781-0.12594-0.27781-0.34819v-1.0001h0.48524v-0.24818h-0.48524v-0.50376h-0.25559l-0.037 0.50376-0.28152 0.0185v0.22965h0.2667z"/>
    <path d="m222.82 172.09c0.11854 0 0.21114-0.0815 0.21114-0.19632 0-0.11854-0.0926-0.19632-0.21114-0.19632-0.11853 0-0.21114 0.0778-0.21114 0.19632 0 0.11483 0.0926 0.19632 0.21114 0.19632zm-0.15557 2.1706h0.30374v-1.8002h-0.30374z"/>
    <path d="m223.63 173.71c0 0.3556 0.12964 0.60008 0.51488 0.60008 0.11112 0 0.23336-0.0333 0.33337-0.0667l-0.0593-0.22965c-0.0593 0.0222-0.14076 0.0481-0.20373 0.0481-0.20744 0-0.27782-0.12594-0.27782-0.34819v-1.0001h0.48525v-0.24818h-0.48525v-0.50376h-0.25558l-0.037 0.50376-0.28151 0.0185v0.22965h0.2667z"/>
    <path d="m224.71 174.76-0.0593 0.24077c0.0593 0.0222 0.12964 0.037 0.21114 0.037 0.363 0 0.54821-0.2704 0.67415-0.626l0.67787-1.9484h-0.29634l-0.32226 0.99643c-0.0481 0.15927-0.10001 0.34448-0.15187 0.50747h-0.0148c-0.0556-0.16669-0.11853-0.3519-0.17409-0.50747l-0.36671-0.99643h-0.31486l0.72231 1.8039-0.0407 0.13335c-0.0741 0.22225-0.20373 0.38524-0.40746 0.38524-0.0444 0-0.10001-0.0148-0.13705-0.0259z"/>
   </g>
   <g fill="#e8eaec" aria-label="build()">
    <path d="m193.57 169.62v2.1114h0.14922l0.0794-0.1905c0.0952 0.14287 0.254 0.2286 0.42862 0.2286 0.29845 0 0.60643-0.254 0.60643-0.78105 0-0.50483-0.29845-0.73978-0.5842-0.73978-0.18415 0-0.3556 0.0984-0.44768 0.25718v-0.8128c0-0.019 3e-3 -0.0254 0.019-0.0381 6e-3 -3e-3 0.0222-0.0159 0.0191-0.0349zm0.60007 0.8255c0.13653 0 0.42545 0.0794 0.42545 0.59373 0 0.44132-0.28575 0.52387-0.42862 0.52387-0.0984 0-0.3175-0.0381-0.3556-0.3175-0.01-0.073-0.01-0.15875-0.01-0.28575 0-0.13017 6e-3 -0.22542 0.0381-0.3048 0.054-0.13017 0.18733-0.20955 0.3302-0.20955z"/>
    <path d="m195.16 170.28v0.80962c0 0.12383 0 0.25083 0.0572 0.381 0.0825 0.1905 0.26035 0.29528 0.45085 0.29528 0.18098 0 0.35243-0.0984 0.44768-0.25718l-3e-3 0.10795c0 0.0381 0 0.0762 6e-3 0.11113h0.2413c-0.0159-0.0413-0.019-0.0889-0.019-0.13018v-1.3176h-0.2286v0.79692c0 0.11113-0.01 0.19685-0.0572 0.28575-0.0667 0.12383-0.19685 0.2159-0.33655 0.2159-0.11112 0-0.21907-0.0635-0.27622-0.1778-0.0508-0.1016-0.0508-0.2159-0.0508-0.31115v-0.80962z"/>
    <path d="m196.89 170.28v0.18733h0.34925v1.0827h-0.3683v0.18098h0.9398v-0.18098h-0.33972v-1.27zm0.4699-0.62865c-0.0921 0-0.1651 0.073-0.1651 0.16193 0 0.0889 0.073 0.16192 0.1651 0.16192s0.1651-0.073 0.1651-0.16192c0-0.0889-0.073-0.16193-0.1651-0.16193z"/>
    <path d="m198.41 169.62v0.18415h0.41275v1.7431h-0.4318v0.18098h1.089v-0.18098h-0.42863v-1.9272z"/>
    <path d="m200.91 170.49c-0.0699-0.14923-0.22543-0.24765-0.42545-0.24765-0.27623 0-0.61278 0.19685-0.61278 0.7493 0 0.53657 0.29845 0.77152 0.57785 0.77152 0.18415 0 0.3556-0.10477 0.44768-0.2667v0.127c0 0.0349 3e-3 0.0699 0.0127 0.10478h0.2286c-0.0127-0.0413-0.0127-0.0889-0.0127-0.13335l-3e-3 -1.886c0-0.019 0-0.0254 0.0127-0.0444 6e-3 -0.01 0.0191-0.0254 0.0159-0.0476h-0.2413zm-0.41593-0.0603c0.127 0 0.31433 0.0667 0.37148 0.28258 0.019 0.0667 0.0254 0.14605 0.0254 0.30797 0 0.11113-6e-3 0.1905-0.0318 0.2667-0.054 0.17145-0.20638 0.27305-0.3556 0.27305-0.1651 0-0.40958-0.127-0.40958-0.60325 0-0.41592 0.23178-0.52705 0.40005-0.52705z"/>
    <path d="m202.56 169.61c-0.48895 0.2159-0.80328 0.71437-0.80328 1.2954 0 0.57785 0.3048 1.1049 0.80645 1.3684l0.10478-0.16827c-0.43498-0.25083-0.68898-0.71755-0.68898-1.2097 0-0.45402 0.21908-0.86042 0.59055-1.0763 6e-3 -6e-3 0.0159-0.0127 0.0286-0.0127 0.01 0 0.019 6e-3 0.0317 6e-3 6e-3 0 0.0159-3e-3 0.0286-6e-3z"/>
    <path d="m203.15 169.81c0.4191 0.22543 0.6858 0.65723 0.6858 1.1303 0 0.47625-0.27305 0.92075-0.70168 1.1462l0.0603 0.19367c0.52705-0.25082 0.86677-0.77787 0.86677-1.3494 0-0.56515-0.33337-1.0795-0.8509-1.3176z"/>
   </g>
  </g>
 </g>
</svg>
