<svg width="853.14" height="495.34" version="1.1" viewBox="0 0 225.73 131.06" xmlns="http://www.w3.org/2000/svg">
 <g>
  <path d="m113.99 5.5565 109.54 87.315-51.331 36.545-15.875-12.182" fill="none" stroke="#47d58a" stroke-linecap="round" stroke-width="2.6459"/>
  <path d="m111.47 5.5565-109.28 87.315 51.066 36.545 15.875-12.182" fill="none" stroke="#47d58a" stroke-linecap="round" stroke-width="2.6459"/>
  <g transform="matrix(.098123 0 0 .098123 -399.17 -434.11)" stroke="#7b8694" stroke-width="2.6965">
   <path d="m5212.8 5569.8c-6.0841-1.0782-12.866-3.5403-17.528-6.3639-3.1599-1.9136-5.4432-2.1718-23.5-2.6574-19.462-0.5235-20.189-0.6192-27.019-3.5559-3.8604-1.6598-9.9354-4.9836-13.5-7.3861-8.9992-6.0653-21.162-18.446-24.387-24.823-7.2901-14.417-4.8389-29.857 6.5473-41.243 8.9772-8.9772 19.651-13.785 32.859-14.8l8.5-0.6535-0.3184-9.6393c-0.5092-15.418 2.5989-22.861 9.5466-22.861 5.6409 0 9.6481 3.8124 14.34 13.643 3.6232 7.5912 4.3256 8.4796 6.2566 7.9141 5.9595-1.7455 24.65-3.5379 36.675-3.5171 12.046 0.021 27.803 1.5648 35.127 3.4418 2.4865 0.6372 2.8475 0.2173 6.7563-7.8582 4.7465-9.8063 8.7782-13.624 14.389-13.624 7.1562 0 10.259 7.771 9.1802 22.991l-0.691 9.7461 8.3695 0.4844c18.271 1.0575 34.304 11.034 41.156 25.609 2.5103 5.3388 2.9762 7.5571 2.9762 14.17 0 6.669-0.4612 8.8259-3.0862 14.435-5.5976 11.962-22.961 27.103-39.177 34.163-6.2619 2.7262-7.2118 2.8438-25.933 3.2107-19.144 0.3751-19.508 0.4228-24.5 3.2101-9.4177 5.259-23.091 7.7274-33.038 5.9644z" fill="#f6c9a0"/>
   <path d="m5212.8 5569.8c-6.0841-1.0782-12.866-3.5403-17.528-6.3639-3.1599-1.9136-5.4432-2.1718-23.5-2.6574-19.462-0.5235-20.189-0.6191-27.019-3.5559-3.8604-1.6598-9.9354-4.9836-13.5-7.3861-8.9992-6.0653-21.162-18.446-24.387-24.823-7.2901-14.417-4.8389-29.857 6.5473-41.243 8.9772-8.9772 19.651-13.785 32.859-14.8l8.5-0.6535-0.3184-9.6393c-0.5092-15.418 2.5989-22.861 9.5466-22.861 5.6409 0 9.6481 3.8124 14.34 13.643 3.6232 7.5912 4.3256 8.4796 6.2566 7.9141 4.1585-1.218 23.211-3.5405 29.112-3.5488l5.9371-0.01-2.7635 2.8844c-1.699 1.7734-4.2407 3.1206-6.5988 3.4977-2.1095 0.3373-5.9389 1.515-8.51 2.6171-5.6906 2.4392-16.502 10.762-16.502 12.704 0 0.7743 2.4089 2.5107 5.3532 3.8586l5.3532 2.4508 9.3968-4.4313c5.1683-2.4373 12.322-5.2075 15.897-6.1561 6.9485-1.8436 22.543-2.4679 27.473-1.0998 2.8874 0.8013 2.9227 0.7696 1.228-1.1031-2.6621-2.9414-10.679-6.9811-17.252-8.6932-3.5549-0.9259-6.8215-2.5295-8.2156-4.0329l-2.3142-2.4958 6.2904 0.032c6.0643 0.031 22.5 2.0618 27.917 3.4501 2.4865 0.6372 2.8475 0.2173 6.7563-7.8582 4.7465-9.8063 8.7782-13.624 14.389-13.624 7.1562 0 10.259 7.771 9.1802 22.991l-0.691 9.7461 8.3695 0.4844c18.271 1.0575 34.304 11.034 41.156 25.609 2.5103 5.3388 2.9762 7.5571 2.9762 14.17 0 6.669-0.4612 8.8259-3.0862 14.435-5.5976 11.962-22.961 27.103-39.177 34.163-6.2619 2.7262-7.2118 2.8438-25.933 3.2107-19.144 0.3751-19.508 0.4228-24.5 3.2101-9.4177 5.259-23.091 7.7274-33.038 5.9644z" fill="#4d6fdc"/>
   <path d="m5208.9 5567.2c-3.2533-0.7871-8.4283-2.8714-11.5-4.6317l-5.5849-3.2008-19.5-0.5566c-18.102-0.5167-19.95-0.7447-25.779-3.1804-10.856-4.5362-17.383-9.036-27.319-18.833-12.016-11.848-14.343-16.868-13.67-29.5 0.5225-9.8074 3.3785-15.992 10.432-22.59 9.1766-8.5836 18.625-12.569 32.528-13.722l8.3069-0.6885-0.3646-12.008c-0.4137-13.626 0.8893-18.635 5.3799-20.681 5.3141-2.4213 11.359 3.2894 16.52 15.606 2.4269 5.7917 2.7146 6.0819 6.0067 6.0581 1.9018-0.014 4.6953-0.3599 6.2078-0.7691 2.6452-0.7157 2.75-0.6004 2.7495 3.025-4e-4 3.2818-0.6469 4.3257-5 8.0746-2.7497 2.368-4.9995 4.9597-4.9995 5.7593s2.8752 2.8717 6.3895 4.6046l6.3894 3.1508 8.3606-4.1164c11.949-5.883 22.398-8.5645 33.36-8.5608 6.2103 0 10.2 0.5229 12.872 1.68 6.6957 2.8999 7.5101 1.9494 2.3779-2.7751-3.9804-3.6642-4.75-4.9571-4.75-7.9794 0-3.4482 0.1208-3.5739 2.75-2.8626 1.5125 0.4092 4.2848 0.7553 6.1607 0.7691 3.2713 0.024 3.5227-0.2471 6.1475-6.6268 3.3972-8.257 6.2217-12.146 10.494-14.446 2.748-1.4799 3.7609-1.5808 5.933-0.5911 4.4881 2.0449 5.7888 7.046 5.3777 20.676l-0.3624 12.013 8.0343 0.6667c18.771 1.5576 34.548 11.108 40.823 24.711 3.108 6.7376 3.0347 20.661-0.1452 27.573-2.824 6.1388-18.343 21.626-26.457 26.404-13.272 7.8141-16.288 8.5459-37.755 9.1587l-19.5 0.5566-5.5281 3.17c-10.503 6.0229-22.973 7.6658-35.387 4.6625z" fill="#6f8ce9"/>
   <path d="m5210.3 5566.4c-3.025-0.6633-9.8205-3.3328-15.101-5.9322-8.0075-3.9417-9.9164-5.3414-11.5-8.4328-1.0444-2.0386-3.1131-5.8367-4.5972-8.4403-4.0039-7.0242-5.8264-14.151-6.4749-25.321-0.7905-13.614 0.7025-22.268 5.435-31.5 2.1145-4.125 4.2705-7.4068 4.7913-7.2928 0.5208 0.1139 3.9819 1.3266 7.6914 2.6947l6.7446 2.4876 7.7554-3.8527c14.773-7.3389 29.81-10.363 40.357-8.1162 8.2001 1.7467 15.431 7.0107 18.344 13.355 4.7774 10.402 6.5537 18.18 6.5537 28.696 0 16.014-2.7116 24.919-10.95 35.961-3.4296 4.5966-5.447 6.0885-13.74 10.161-13.517 6.6371-23.291 8.1687-35.31 5.5332zm-52.375-99.751c-0.3438-1.7188-0.6233-7.4563-0.6213-12.75 0.01-15.703 4.5491-20.138 12.9-12.593 3.44 3.1078 9.0965 13.971 9.0965 17.469 0 0.7513-19.056 10.999-20.453 10.999-0.1636 0-0.5787-1.4063-0.9224-3.125zm114.18-1.7448c-5.3339-2.5466-9.7214-5.188-9.75-5.8697-0.029-0.6817 1.1074-4.1356 2.5244-7.6753 5.1598-12.889 13.657-17.483 17.727-9.5852 1.4903 2.8917 1.75 5.4475 1.4943 14.706-0.1703 6.1632-0.757 11.622-1.3038 12.13-0.6224 0.5787-4.6219-0.8074-10.692-3.7057z" fill="#1d232d"/>
  </g>
  <rect x=".33754" y=".26466" width="224.9" height="129.65" fill="none" stroke="#7b8694" stroke-linecap="round" stroke-width=".26459"/>
 </g>
 <circle cx="112.79" cy="6.8794" r="6.6148" fill="#cf2f25"/>
 <path d="m42.672 69.058h140.23v13.23h-140.23z" fill="#7b8694"/>
 <g fill="none" stroke-linecap="round">
  <path d="m91.774 0.5976c-0.96676 2.5352-1.4668 5.2245-1.4759 7.9377 0 12.421 10.069 22.49 22.49 22.49 12.421 0 22.49-10.069 22.49-22.49-3e-3 -2.7122-0.49759-5.4014-1.4583-7.9377" stroke="#cf2f25" stroke-dasharray="2.11672659, 6.35017978" stroke-width="1.0584"/>
  <path d="m69.081 0.52918c-0.48735 2.6181-0.73848 5.2747-0.75036 7.9377 1.1e-4 24.554 19.905 44.458 44.458 44.459 24.554-1.06e-4 44.458-19.905 44.458-44.459-6e-3 -2.6625-0.25099-5.3191-0.73225-7.9377" stroke="#cf2f25" stroke-dasharray="1.58754495, 4.76263484" stroke-width=".79377"/>
  <path d="m37.48 0.26459c-0.28388 2.6365-0.42911 5.286-0.43512 7.9377-7.9e-5 24.935 12.05 47.054 30.643 60.856h90.202c18.593-13.802 30.644-35.921 30.643-60.856-0.0286-2.6529-0.19664-5.3025-0.50333-7.9377z" stroke="#e9e56f" stroke-dasharray="1.0583633, 3.17508989" stroke-width=".52918"/>
  <path d="m196.21 81.795c17.875-20.262 27.82-46.414 27.82-73.592 0-2.6485-0.0968-5.2961-0.28682-7.9377h-221.81c-0.22697 2.6403-0.3595 5.2879-0.39739 7.9377-7.9e-5 27.178 9.9455 53.331 27.821 73.593" stroke="#e9e56f" stroke-dasharray="0.52918164, 1.58754494" stroke-width=".26459"/>
 </g>
 <g transform="matrix(.012758 -.012865 .013086 .012976 64.672 114.19)" fill="#47d58a" stroke-width="14.48">
  <g fill="#47d58a" stroke-width="14.48">
   <path d="m486.41 221.41-364.07-208.5c-52.938-30.318-95.852-5.44-95.852 55.563v415.65c0 61.004 42.914 85.882 95.852 55.563l364.07-208.49c52.938-30.317 52.938-79.473 0-109.79z" fill="#47d58a" stroke-width="14.48"/>
  </g>
 </g>
 <g transform="matrix(-.012758 -.012865 -.013086 .012976 160.7 114.19)" fill="#47d58a" stroke-width="14.48">
  <g fill="#47d58a" stroke-width="14.48">
   <path d="m486.41 221.41-364.07-208.5c-52.938-30.318-95.852-5.44-95.852 55.563v415.65c0 61.004 42.914 85.882 95.852 55.563l364.07-208.49c52.938-30.317 52.938-79.473 0-109.79z" fill="#47d58a" stroke-width="14.48"/>
  </g>
 </g>
</svg>
