<svg width="47.161mm" height="13.081mm" version="1.1" viewBox="0 0 47.161 13.081" xmlns="http://www.w3.org/2000/svg">
 <g transform="translate(-154.73 -57.011)">
  <path d="m171.25 66.271 15.522-2.8222" fill="none" stroke="#e9e56f" stroke-width=".056444"/>
  <rect x="155.76" y="60.654" width="45.099" height="2.7658" fill="#3b390d" fill-opacity=".38431" stroke="#e9e56f" stroke-width=".056444"/>
  <g fill="none" stroke="#e9e56f" stroke-width=".056444">
   <path d="m158.55 60.626v2.8222"/>
   <path d="m161.37 60.626v2.8222"/>
   <path d="m164.2 60.626v2.8222"/>
   <path d="m167.02 60.626v2.8222"/>
   <path d="m169.84 60.626v2.8222"/>
   <path d="m172.66 60.626v2.8222"/>
   <path d="m175.49 60.626v2.8222"/>
   <path d="m178.31 60.626v2.8222"/>
   <path d="m181.13 60.626v2.8222"/>
   <path d="m183.95 60.626v2.8222"/>
   <path d="m186.77 60.626v2.8222"/>
   <path d="m189.6 60.626v2.8222"/>
   <path d="m192.42 60.626v2.8222"/>
   <path d="m195.24 60.626v2.8222"/>
   <path d="m198.06 60.626v2.8222"/>
  </g>
  <g fill="#6fe997" opacity=".91" stroke-width=".28222px" aria-label="0 0 0 0 0 0 0 0 0 0 0 1 1 0 1 0">
   <path d="m157.23 61.16c-0.27974 0-0.56795 0.34472-0.56795 0.90701 0 0.57077 0.29104 0.89853 0.57077 0.89853 0.2543 0 0.55664-0.27691 0.55664-0.8844 0-0.59902-0.28821-0.92114-0.55946-0.92114zm0.27408 0.40406-0.6188 0.80246c-0.0254-0.09889-0.0396-0.20909-0.0396-0.33342 0-0.45209 0.20626-0.70074 0.38145-0.70074 0.0961 0 0.20062 0.07629 0.27691 0.2317zm0.065 0.18649c0.0254 0.0989 0.0367 0.21757 0.0367 0.35602 0 0.49165-0.21192 0.67814-0.36733 0.67814-0.10454 0-0.21192-0.08477-0.28821-0.24017z"/>
   <path d="m160.05 61.16c-0.27973 0-0.56794 0.34472-0.56794 0.90701 0 0.57077 0.29103 0.89853 0.57077 0.89853 0.2543 0 0.55664-0.27691 0.55664-0.8844 0-0.59902-0.28821-0.92114-0.55947-0.92114zm0.27408 0.40406-0.6188 0.80246c-0.0254-0.09889-0.0396-0.20909-0.0396-0.33342 0-0.45209 0.20627-0.70074 0.38146-0.70074 0.0961 0 0.20061 0.07629 0.2769 0.2317zm0.065 0.18649c0.0254 0.0989 0.0367 0.21757 0.0367 0.35602 0 0.49165-0.21192 0.67814-0.36732 0.67814-0.10455 0-0.21192-0.08477-0.28821-0.24017z"/>
   <path d="m162.88 61.16c-0.27973 0-0.56794 0.34472-0.56794 0.90701 0 0.57077 0.29103 0.89853 0.57076 0.89853 0.2543 0 0.55664-0.27691 0.55664-0.8844 0-0.59902-0.28821-0.92114-0.55946-0.92114zm0.27408 0.40406-0.6188 0.80246c-0.0254-0.09889-0.0396-0.20909-0.0396-0.33342 0-0.45209 0.20627-0.70074 0.38145-0.70074 0.0961 0 0.20062 0.07629 0.27691 0.2317zm0.065 0.18649c0.0254 0.0989 0.0367 0.21757 0.0367 0.35602 0 0.49165-0.21192 0.67814-0.36733 0.67814-0.10454 0-0.21191-0.08477-0.2882-0.24017z"/>
   <path d="m165.7 61.16c-0.27973 0-0.56794 0.34472-0.56794 0.90701 0 0.57077 0.29104 0.89853 0.57077 0.89853 0.2543 0 0.55664-0.27691 0.55664-0.8844 0-0.59902-0.28821-0.92114-0.55947-0.92114zm0.27408 0.40406-0.6188 0.80246c-0.0254-0.09889-0.0395-0.20909-0.0395-0.33342 0-0.45209 0.20626-0.70074 0.38145-0.70074 0.0961 0 0.20061 0.07629 0.2769 0.2317zm0.065 0.18649c0.0254 0.0989 0.0367 0.21757 0.0367 0.35602 0 0.49165-0.21192 0.67814-0.36733 0.67814-0.10455 0-0.21192-0.08477-0.28821-0.24017z"/>
   <path d="m168.53 61.16c-0.27973 0-0.56794 0.34472-0.56794 0.90701 0 0.57077 0.29103 0.89853 0.57077 0.89853 0.2543 0 0.55663-0.27691 0.55663-0.8844 0-0.59902-0.28821-0.92114-0.55946-0.92114zm0.27408 0.40406-0.6188 0.80246c-0.0254-0.09889-0.0396-0.20909-0.0396-0.33342 0-0.45209 0.20627-0.70074 0.38145-0.70074 0.0961 0 0.20062 0.07629 0.27691 0.2317zm0.065 0.18649c0.0254 0.0989 0.0367 0.21757 0.0367 0.35602 0 0.49165-0.21192 0.67814-0.36732 0.67814-0.10455 0-0.21192-0.08477-0.28821-0.24017z"/>
   <path d="m171.35 61.16c-0.27974 0-0.56795 0.34472-0.56795 0.90701 0 0.57077 0.29104 0.89853 0.57077 0.89853 0.2543 0 0.55664-0.27691 0.55664-0.8844 0-0.59902-0.28821-0.92114-0.55946-0.92114zm0.27408 0.40406-0.6188 0.80246c-0.0254-0.09889-0.0396-0.20909-0.0396-0.33342 0-0.45209 0.20626-0.70074 0.38145-0.70074 0.0961 0 0.20062 0.07629 0.27691 0.2317zm0.065 0.18649c0.0254 0.0989 0.0367 0.21757 0.0367 0.35602 0 0.49165-0.21192 0.67814-0.36733 0.67814-0.10454 0-0.21192-0.08477-0.28821-0.24017z"/>
   <path d="m174.18 61.16c-0.27973 0-0.56794 0.34472-0.56794 0.90701 0 0.57077 0.29104 0.89853 0.57077 0.89853 0.2543 0 0.55664-0.27691 0.55664-0.8844 0-0.59902-0.28821-0.92114-0.55947-0.92114zm0.27408 0.40406-0.6188 0.80246c-0.0254-0.09889-0.0396-0.20909-0.0396-0.33342 0-0.45209 0.20627-0.70074 0.38146-0.70074 0.0961 0 0.20061 0.07629 0.2769 0.2317zm0.065 0.18649c0.0254 0.0989 0.0367 0.21757 0.0367 0.35602 0 0.49165-0.21191 0.67814-0.36732 0.67814-0.10455 0-0.21192-0.08477-0.28821-0.24017z"/>
   <path d="m177 61.16c-0.27973 0-0.56794 0.34472-0.56794 0.90701 0 0.57077 0.29103 0.89853 0.57076 0.89853 0.2543 0 0.55664-0.27691 0.55664-0.8844 0-0.59902-0.28821-0.92114-0.55946-0.92114zm0.27408 0.40406-0.6188 0.80246c-0.0254-0.09889-0.0396-0.20909-0.0396-0.33342 0-0.45209 0.20627-0.70074 0.38145-0.70074 0.0961 0 0.20062 0.07629 0.27691 0.2317zm0.065 0.18649c0.0254 0.0989 0.0367 0.21757 0.0367 0.35602 0 0.49165-0.21192 0.67814-0.36733 0.67814-0.10454 0-0.21191-0.08477-0.2882-0.24017z"/>
   <path d="m179.83 61.16c-0.27973 0-0.56794 0.34472-0.56794 0.90701 0 0.57077 0.29104 0.89853 0.57077 0.89853 0.2543 0 0.55664-0.27691 0.55664-0.8844 0-0.59902-0.28821-0.92114-0.55947-0.92114zm0.27408 0.40406-0.6188 0.80246c-0.0254-0.09889-0.0395-0.20909-0.0395-0.33342 0-0.45209 0.20626-0.70074 0.38145-0.70074 0.0961 0 0.20061 0.07629 0.2769 0.2317zm0.065 0.18649c0.0254 0.0989 0.0367 0.21757 0.0367 0.35602 0 0.49165-0.21192 0.67814-0.36733 0.67814-0.10455 0-0.21192-0.08477-0.28821-0.24017z"/>
   <path d="m182.66 61.16c-0.27973 0-0.56794 0.34472-0.56794 0.90701 0 0.57077 0.29103 0.89853 0.57077 0.89853 0.2543 0 0.55663-0.27691 0.55663-0.8844 0-0.59902-0.2882-0.92114-0.55946-0.92114zm0.27408 0.40406-0.6188 0.80246c-0.0254-0.09889-0.0396-0.20909-0.0396-0.33342 0-0.45209 0.20627-0.70074 0.38146-0.70074 0.0961 0 0.20061 0.07629 0.2769 0.2317zm0.065 0.18649c0.0254 0.0989 0.0367 0.21757 0.0367 0.35602 0 0.49165-0.21192 0.67814-0.36732 0.67814-0.10455 0-0.21192-0.08477-0.28821-0.24017z"/>
   <path d="m185.48 61.16c-0.27974 0-0.56795 0.34472-0.56795 0.90701 0 0.57077 0.29104 0.89853 0.57077 0.89853 0.2543 0 0.55664-0.27691 0.55664-0.8844 0-0.59902-0.28821-0.92114-0.55946-0.92114zm0.27408 0.40406-0.6188 0.80246c-0.0254-0.09889-0.0396-0.20909-0.0396-0.33342 0-0.45209 0.20626-0.70074 0.38145-0.70074 0.0961 0 0.20062 0.07629 0.27691 0.2317zm0.065 0.18649c0.0254 0.0989 0.0367 0.21757 0.0367 0.35602 0 0.49165-0.21192 0.67814-0.36733 0.67814-0.10454 0-0.21192-0.08477-0.28821-0.24017z"/>
   <path d="m188.44 61.171h-0.12998l-0.45209 0.23452 0.0452 0.1102 0.35037-0.0989v1.3619h-0.32777v0.15541h0.83072v-0.15541h-0.31646z"/>
   <path d="m191.26 61.171h-0.12998l-0.45209 0.23452 0.0452 0.1102 0.35037-0.0989v1.3619h-0.32777v0.15541h0.83072v-0.15541h-0.31646z"/>
   <path d="m193.96 61.16c-0.27974 0-0.56794 0.34472-0.56794 0.90701 0 0.57077 0.29103 0.89853 0.57076 0.89853 0.2543 0 0.55664-0.27691 0.55664-0.8844 0-0.59902-0.28821-0.92114-0.55946-0.92114zm0.27408 0.40406-0.6188 0.80246c-0.0254-0.09889-0.0396-0.20909-0.0396-0.33342 0-0.45209 0.20626-0.70074 0.38145-0.70074 0.0961 0 0.20062 0.07629 0.27691 0.2317zm0.065 0.18649c0.0254 0.0989 0.0367 0.21757 0.0367 0.35602 0 0.49165-0.21192 0.67814-0.36733 0.67814-0.10454 0-0.21192-0.08477-0.28821-0.24017z"/>
   <path d="m196.91 61.171h-0.12998l-0.45209 0.23452 0.0452 0.1102 0.35037-0.0989v1.3619h-0.32777v0.15541h0.83072v-0.15541h-0.31646z"/>
   <path d="m199.61 61.16c-0.27974 0-0.56795 0.34472-0.56795 0.90701 0 0.57077 0.29104 0.89853 0.57077 0.89853 0.2543 0 0.55664-0.27691 0.55664-0.8844 0-0.59902-0.28821-0.92114-0.55946-0.92114zm0.27408 0.40406-0.6188 0.80246c-0.0254-0.09889-0.0396-0.20909-0.0396-0.33342 0-0.45209 0.20626-0.70074 0.38145-0.70074 0.0961 0 0.20062 0.07629 0.27691 0.2317zm0.065 0.18649c0.0254 0.0989 0.0367 0.21757 0.0367 0.35602 0 0.49165-0.21192 0.67814-0.36733 0.67814-0.10454 0-0.21192-0.08477-0.28821-0.24017z"/>
  </g>
  <rect x="171.28" y="66.299" width="14.055" height="2.7658" fill="#3b390d" fill-opacity=".38431" stroke="#e9e56f" stroke-width=".056444"/>
  <g fill="none" stroke="#e9e56f" stroke-width=".056444">
   <path d="m174.07 66.271v2.8222"/>
   <path d="m176.9 66.271v2.8222"/>
   <path d="m179.72 66.271v2.8222"/>
   <path d="m182.54 66.271v2.8222"/>
  </g>
  <g>
   <g fill="#6fe997" opacity=".91" stroke-width=".28222px" aria-label="1 1 0 1 0">
    <path d="m172.88 66.815h-0.12997l-0.45209 0.23452 0.0452 0.1102 0.35038-0.09889v1.3619h-0.32777v0.15541h0.83072v-0.15541h-0.31647z"/>
    <path d="m175.7 66.815h-0.12998l-0.45209 0.23452 0.0452 0.1102 0.35037-0.09889v1.3619h-0.32776v0.15541h0.83071v-0.15541h-0.31646z"/>
    <path d="m178.4 66.804c-0.27973 0-0.56794 0.34472-0.56794 0.90701 0 0.57077 0.29103 0.89853 0.57077 0.89853 0.2543 0 0.55663-0.27691 0.55663-0.8844 0-0.59902-0.28821-0.92114-0.55946-0.92114zm0.27408 0.40406-0.6188 0.80246c-0.0254-0.09889-0.0396-0.20909-0.0396-0.33342 0-0.45209 0.20627-0.70074 0.38145-0.70074 0.0961 0 0.20062 0.07629 0.27691 0.2317zm0.065 0.18649c0.0254 0.09889 0.0367 0.21757 0.0367 0.35602 0 0.49165-0.21192 0.67814-0.36732 0.67814-0.10455 0-0.21192-0.08477-0.28821-0.24017z"/>
    <path d="m181.35 66.815h-0.12997l-0.4521 0.23452 0.0452 0.1102 0.35037-0.09889v1.3619h-0.32776v0.15541h0.83072v-0.15541h-0.31647z"/>
    <path d="m184.05 66.804c-0.27973 0-0.56794 0.34472-0.56794 0.90701 0 0.57077 0.29104 0.89853 0.57077 0.89853 0.2543 0 0.55664-0.27691 0.55664-0.8844 0-0.59902-0.28821-0.92114-0.55947-0.92114zm0.27408 0.40406-0.6188 0.80246c-0.0254-0.09889-0.0396-0.20909-0.0396-0.33342 0-0.45209 0.20627-0.70074 0.38146-0.70074 0.0961 0 0.20061 0.07629 0.2769 0.2317zm0.065 0.18649c0.0254 0.09889 0.0367 0.21757 0.0367 0.35602 0 0.49165-0.21191 0.67814-0.36732 0.67814-0.10455 0-0.21192-0.08477-0.28821-0.24017z"/>
   </g>
   <g fill="#e9e56f" opacity=".91" stroke-width=".28222px" aria-label="0                 7                  15">
    <path d="m157.35 58.011c-0.22092 0-0.44852 0.27224-0.44852 0.71629 0 0.45075 0.22983 0.7096 0.45075 0.7096 0.20083 0 0.43959-0.21868 0.43959-0.69844 0-0.47307-0.22761-0.72745-0.44182-0.72745zm0.21645 0.3191-0.48869 0.63373c-0.0201-0.0781-0.0312-0.16513-0.0312-0.26331 0-0.35703 0.16289-0.5534 0.30124-0.5534 0.0759 0 0.15844 0.06025 0.21869 0.18298zm0.0513 0.14728c0.0201 0.0781 0.029 0.17182 0.029 0.28116 0 0.38827-0.16736 0.53555-0.29009 0.53555-0.0826 0-0.16736-0.06694-0.22761-0.18967z"/>
    <path d="m177.05 58.02v0.14951h0.5958c-0.0714 0.16513-0.13835 0.33025-0.20306 0.49761-0.0937 0.24546-0.18298 0.49315-0.26555 0.74307h0.17629c0.0669-0.21868 0.14058-0.43513 0.22091-0.64935 0.0803-0.22091 0.16959-0.43736 0.26331-0.65381v-0.08703z"/>
    <path d="m198.74 58.02h-0.10265l-0.35703 0.18521 0.0357 0.08703 0.2767-0.0781v1.0756h-0.25885v0.12273h0.65605v-0.12273h-0.24992z"/>
    <path d="m199.43 58.02-0.0491 0.70737 0.10042 0.04017c0.0669-0.08479 0.16512-0.13166 0.26108-0.13166 0.14504 0 0.28339 0.11157 0.28339 0.33248 0 0.21422-0.13166 0.33025-0.28116 0.33025-0.14951 0-0.24769-0.1138-0.25439-0.12719-9e-3 -0.01785 2e-3 -0.04017-0.0178-0.05355l-0.13835 0.10488c0.0937 0.13612 0.24769 0.21422 0.41282 0.21422 0.241 0 0.43959-0.1629 0.43959-0.46414 0-0.29901-0.18744-0.46414-0.42174-0.46414-0.0759 0-0.15397 0.01785-0.22538 0.05355l0.0201-0.40166h0.57571v-0.14058z"/>
   </g>
   <path d="m185.36 66.271 15.522-2.8222" fill="none" stroke="#e9e56f" stroke-width=".056444"/>
   <g fill="#e9e56f" opacity=".91" stroke-width=".28222px" aria-label="5 bits">
    <path d="m188.07 67.051-0.0491 0.70737 0.10042 0.04017c0.0669-0.08479 0.16512-0.13166 0.26108-0.13166 0.14504 0 0.28339 0.11157 0.28339 0.33249 0 0.21422-0.13165 0.33025-0.28116 0.33025s-0.24769-0.1138-0.25439-0.12719c-9e-3 -0.01785 2e-3 -0.04017-0.0179-0.05356l-0.13835 0.10488c0.0937 0.13612 0.24769 0.21422 0.41282 0.21422 0.241 0 0.43959-0.1629 0.43959-0.46414 0-0.29901-0.18744-0.46414-0.42174-0.46414-0.0759 0-0.15397 0.01785-0.22537 0.05356l0.0201-0.40166h0.57571v-0.14058z"/>
    <path d="m190.2 66.958v1.4839h0.10488l0.0558-0.13389c0.0669 0.10042 0.17851 0.16066 0.30124 0.16066 0.20976 0 0.42621-0.17852 0.42621-0.54894 0-0.3548-0.20976-0.51993-0.41059-0.51993-0.12942 0-0.24992 0.06918-0.31463 0.18075v-0.57125c0-0.01339 2e-3 -0.01785 0.0134-0.02678 4e-3 -0.0022 0.0156-0.01116 0.0134-0.02455zm0.42174 0.58018c0.096 0 0.29902 0.05579 0.29902 0.41728 0 0.31017-0.20083 0.36819-0.30125 0.36819-0.0692 0-0.22314-0.02678-0.24992-0.22314-7e-3 -0.05132-7e-3 -0.11157-7e-3 -0.20083 0-0.09149 4e-3 -0.15843 0.0268-0.21422 0.0379-0.09149 0.13166-0.14728 0.23207-0.14728z"/>
    <path d="m191.42 67.422v0.13166h0.24546v0.76092h-0.25885v0.12719h0.66051v-0.12719h-0.23876v-0.89258zm0.33025-0.44183c-0.0647 0-0.11603 0.05132-0.11603 0.1138 0 0.06248 0.0513 0.1138 0.11603 0.1138 0.0647 0 0.11604-0.05132 0.11604-0.1138 0-0.06248-0.0513-0.1138-0.11604-0.1138z"/>
    <path d="m192.72 67.15-0.0201 0.27447h-0.24323l-2e-3 0.13166h0.23876c-0.0134 0.17405-0.0201 0.34811-0.0201 0.51993 0 0.09149 0 0.19414 0.0602 0.27893 0.0491 0.06694 0.12719 0.10711 0.23207 0.10711 0.1205 0 0.23876-0.05132 0.32579-0.1138l-0.0491-0.12719c-0.087 0.06471-0.16736 0.09372-0.22984 0.09372-0.0759 0-0.15397-0.0424-0.17182-0.16513 0-0.0089-7e-3 -0.04686-7e-3 -0.19637 0-0.13166 7e-3 -0.26554 0.0201-0.3972h0.33471v-0.13389h-0.33248s0.0156-0.18298 0.0268-0.241c2e-3 -0.02232 0.0201-0.0357 0.0112-0.06025z"/>
    <path d="m194.38 67.558c-0.0937-0.10265-0.22984-0.15843-0.38158-0.15843-0.23653 0-0.3905 0.13166-0.3905 0.28339 0 0.17852 0.1919 0.24323 0.24769 0.26331 0.087 0.03124 0.1986 0.05802 0.27446 0.09372 0.0848 0.04017 0.10042 0.09372 0.10042 0.12942 0 0.09595-0.11604 0.16066-0.26108 0.16066-0.17405 0-0.28562-0.10488-0.3191-0.14058-7e-3 -0.0089-7e-3 -0.01562-7e-3 -0.02455 0-0.0022 2e-3 -0.01562-9e-3 -0.02008l-0.0937 0.15843c0.1205 0.11157 0.2767 0.1629 0.43067 0.1629 0.27893 0 0.42398-0.16513 0.42398-0.3191 0-0.06918-0.029-0.1629-0.14951-0.22984-0.1138-0.06471-0.27893-0.08703-0.37488-0.13389-0.0826-0.04017-0.10042-0.08926-0.10042-0.12496 0-0.08033 0.10042-0.13835 0.21422-0.13835 0.14728 0 0.24546 0.08926 0.28339 0.14058 7e-3 0.0067 4e-3 0.01339 4e-3 0.02008 0 0.01339 9e-3 0.01785 0.0134 0.01785z"/>
   </g>
  </g>
 </g>
</svg>
