<svg width="70.744mm" height="24.847mm" version="1.1" viewBox="0 0 70.744 24.847" xmlns="http://www.w3.org/2000/svg">
 <g transform="translate(-143.96 -46.966)">
  <g transform="rotate(-54.591)" fill="#e9e56f" opacity=".91" aria-label="Initial state">
   <g stroke="#e9e56f" stroke-width=".056444">
    <path d="m62.935 182.68 3.4503-2.4528" fill="none" opacity=".91"/>
    <path d="m56.394 173.48 3.4503-2.4528" fill="none" opacity=".91"/>
    <rect transform="rotate(54.591)" x="151.52" y="50.346" width="62.031" height="4.1769" fill="#3b390d" fill-opacity=".38431" opacity=".91"/>
   </g>
   <g fill="none" stroke="#e9e56f" stroke-width=".056444">
    <path d="m46.583 159.68 3.4503-2.4528" opacity=".91"/>
    <path d="m49.853 164.28 3.4503-2.4528" opacity=".91"/>
    <path d="m53.124 168.88 3.4503-2.4528" opacity=".91"/>
    <path d="m56.394 173.48 3.4503-2.4528" opacity=".91"/>
    <path d="m59.665 178.08 3.4503-2.4528" opacity=".91"/>
    <path d="m62.935 182.68 3.4503-2.4528" opacity=".91"/>
   </g>
   <g fill="#e9e56f" stroke-width=".28222px">
    <g transform="rotate(54.591)" opacity=".91" aria-label="Client">
     <path d="m145.41 51.934c-0.1711 0-0.41804 0.12524-0.41804 0.56621 0 0.42333 0.23636 0.56092 0.41804 0.56092 0.13053 0 0.25224-0.06879 0.32103-0.18168l-0.09-0.05821c-0.0512 0.0829-0.13935 0.13229-0.22401 0.13229-0.16228 0-0.30516-0.16757-0.30516-0.46567 0-0.29104 0.13935-0.45508 0.29457-0.45508 0.0847 0 0.16581 0.05115 0.20991 0.12876 4e-3 0.0053 7e-3 0.01058 7e-3 0.01764 0 0.0053-2e-3 0.0088-2e-3 0.01411 0 0.0018 0 0.01058 9e-3 0.01587l0.11641-0.05644c-0.0582-0.13229-0.1905-0.21872-0.3369-0.21872z"/>
     <path d="m145.95 51.871v0.1023h0.2293v0.96838h-0.23989v0.10054h0.60502v-0.10054h-0.23813v-1.0707z"/>
     <path d="m146.87 52.236v0.10407h0.19402v0.60149h-0.20461v0.10054h0.52211v-0.10054h-0.18873v-0.70556zm0.26105-0.34925c-0.0511 0-0.0917 0.04057-0.0917 0.08996s0.0406 0.08996 0.0917 0.08996c0.0512 0 0.0917-0.04057 0.0917-0.08996s-0.0406-0.08996-0.0917-0.08996z"/>
     <path d="m148.02 52.218c-0.19226 0-0.37042 0.13758-0.37042 0.43039 0 0.26988 0.16757 0.41275 0.3863 0.41275 0.11641 0 0.22048-0.04233 0.28927-0.12524l-0.0705-0.06879c-0.0512 0.05997-0.12876 0.09172-0.20814 0.09172-0.1076 0-0.26458-0.05997-0.2734-0.30162h0.5715c5e-3 -0.05468 4e-3 -0.1076-5e-3 -0.15346-0.037-0.21696-0.18698-0.28575-0.31927-0.28575zm-0.24341 0.34219c0.0265-0.1905 0.14816-0.24518 0.23459-0.24518 0.13053 0 0.22402 0.11465 0.20814 0.24518z"/>
     <path d="m148.57 53.042h0.12876v-0.4639c0-0.05292 7e-3 -0.09349 0.0406-0.13758 0.03-0.04057 0.1076-0.11289 0.19226-0.11289 0.0406 0 0.0811 0.01764 0.10937 0.05115 0.0441 0.05292 0.0441 0.12171 0.0441 0.17815v0.48507h0.12524v-0.4886c0-0.06174 0-0.12876-0.0282-0.19403-0.0406-0.08996-0.12348-0.14111-0.2152-0.14111-0.10936 0-0.20814 0.07056-0.26811 0.16051v-0.14111h-0.12876z"/>
     <path d="m149.66 52.021-0.0159 0.21696h-0.19226l-2e-3 0.10407h0.18873c-0.0106 0.13758-0.0159 0.27517-0.0159 0.41099 0 0.07232 0 0.15346 0.0476 0.22049 0.0388 0.05292 0.10054 0.08467 0.18345 0.08467 0.0952 0 0.18873-0.04057 0.25752-0.08996l-0.0388-0.10054c-0.0688 0.05115-0.13229 0.07408-0.18168 0.07408-0.06 0-0.12171-0.03351-0.13582-0.13053 0-0.0071-5e-3 -0.03704-5e-3 -0.15522 0-0.10407 5e-3 -0.2099 0.0159-0.31397h0.26458v-0.10583h-0.26281s0.0123-0.14464 0.0212-0.1905c2e-3 -0.01764 0.0159-0.02822 9e-3 -0.04763z"/>
    </g>
    <g transform="rotate(54.591)" opacity=".91" aria-label="Server">
     <path d="m145.64 61.953c-0.0741-0.08996-0.18345-0.13758-0.30339-0.13758-0.19932 0-0.33514 0.13053-0.33514 0.28222 0 0.0635 0.0247 0.1464 0.11642 0.21343 0.1023 0.07585 0.26105 0.11289 0.34395 0.16581 0.0723 0.0441 0.0917 0.1023 0.0917 0.15169 0 0.09525-0.0811 0.19932-0.23989 0.19932-0.11995 0-0.21343-0.05997-0.26282-0.12171-5e-3 -0.0071-5e-3 -0.01058-5e-3 -0.01764 0-0.0035 0-0.01411-7e-3 -0.01764l-0.0741 0.127c0.0864 0.09349 0.2099 0.14111 0.34572 0.14111 0.26811 0 0.36689-0.17992 0.36689-0.3175 0-0.05821-0.0176-0.13406-0.0864-0.19932-0.0952-0.08996-0.25047-0.12171-0.35102-0.17992-0.0917-0.05468-0.11112-0.11994-0.11112-0.16404 0-0.08467 0.0723-0.16051 0.19755-0.16051 0.10231 0 0.18168 0.04586 0.22402 0.1076 5e-3 0.0071 4e-3 0.01058 4e-3 0.01764 0 0.01058 5e-3 0.01411 9e-3 0.01411z"/>
     <path d="m146.21 62.096c-0.19227 0-0.37042 0.13758-0.37042 0.43039 0 0.26988 0.16757 0.41275 0.38629 0.41275 0.11642 0 0.22049-0.04233 0.28928-0.12524l-0.0706-0.06879c-0.0511 0.05997-0.12876 0.09172-0.20814 0.09172-0.10759 0-0.26458-0.05997-0.2734-0.30162h0.5715c5e-3 -0.05468 4e-3 -0.1076-5e-3 -0.15346-0.037-0.21696-0.18697-0.28575-0.31926-0.28575zm-0.24342 0.34219c0.0265-0.1905 0.14817-0.24518 0.2346-0.24518 0.13052 0 0.22401 0.11465 0.20814 0.24518z"/>
     <path d="m146.81 62.116v0.8061h0.127v-0.39158c0-0.04939 2e-3 -0.10231 0.0564-0.18874 0.0741-0.11642 0.16933-0.13582 0.22754-0.13582 0.067 0 0.10936 0.03175 0.13229 0.05997 0.0106 0.01411 0.0159 0.02822 0.03 0.04057l0.06-0.12171c-0.0512-0.05292-0.12524-0.08819-0.2152-0.08819-0.11818 0-0.23812 0.05997-0.29104 0.17462l5e-3 -0.15522z"/>
     <path d="m147.59 62.114 0.31927 0.81315h0.10054l0.19579-0.46038c0.0476-0.11289 0.0935-0.22931 0.11995-0.35278h-0.11466c-0.0212 0.11818-0.0635 0.2293-0.10936 0.33514l-0.12876 0.29986-0.23284-0.58914c-2e-3 -0.0035-4e-3 -0.0071-4e-3 -0.01058 0-0.01058 9e-3 -0.02117 5e-3 -0.03528z"/>
     <path d="m148.86 62.096c-0.19226 0-0.37042 0.13758-0.37042 0.43039 0 0.26988 0.16757 0.41275 0.38629 0.41275 0.11642 0 0.22049-0.04233 0.28928-0.12524l-0.0705-0.06879c-0.0512 0.05997-0.12877 0.09172-0.20814 0.09172-0.1076 0-0.26459-0.05997-0.2734-0.30162h0.5715c5e-3 -0.05468 4e-3 -0.1076-5e-3 -0.15346-0.037-0.21696-0.18697-0.28575-0.31926-0.28575zm-0.24342 0.34219c0.0265-0.1905 0.14817-0.24518 0.2346-0.24518 0.13053 0 0.22401 0.11465 0.20814 0.24518z"/>
     <path d="m149.46 62.116v0.8061h0.127v-0.39158c0-0.04939 2e-3 -0.10231 0.0564-0.18874 0.0741-0.11642 0.16933-0.13582 0.22754-0.13582 0.067 0 0.10936 0.03175 0.13229 0.05997 0.0106 0.01411 0.0159 0.02822 0.03 0.04057l0.06-0.12171c-0.0511-0.05292-0.12523-0.08819-0.21519-0.08819-0.11818 0-0.23813 0.05997-0.29104 0.17462l5e-3 -0.15522z"/>
    </g>
    <g transform="rotate(54.591)" opacity=".91" aria-label="Time">
     <path d="m146.7 69.441v0.11112h0.31044v0.98954h0.12524v-0.98954h0.32455v-0.11112z"/>
     <path d="m147.72 69.734v0.10407h0.19403v0.60149h-0.20461v0.10054h0.52211v-0.10054h-0.18874v-0.70556zm0.26106-0.34925c-0.0512 0-0.0917 0.04057-0.0917 0.08996s0.0406 0.08996 0.0917 0.08996c0.0512 0 0.0917-0.04057 0.0917-0.08996s-0.0406-0.08996-0.0917-0.08996z"/>
     <path d="m148.48 70.54h0.11642v-0.53622c0-0.03881 4e-3 -0.07408 0.0264-0.11642 0.0282-0.05292 0.0635-0.07408 0.097-0.07408 0.0282 0 0.06 0.01764 0.0741 0.06174 0.0106 0.03351 9e-3 0.07232 9e-3 0.10583v0.55915h0.11818v-0.53269c0-0.04233 4e-3 -0.07585 0.0335-0.127 0.0141-0.02117 0.0441-0.07232 0.0935-0.07232 0.0265 0 0.0512 0.01587 0.0635 0.04586 0.0159 0.03351 0.0123 0.07937 0.0123 0.11642v0.5715h0.11994v-0.57326c0-0.06703 2e-3 -0.13406-0.0335-0.18874-0.03-0.04586-0.0811-0.0635-0.12524-0.0635-0.0776 0-0.14993 0.04586-0.18168 0.11642-0.0123-0.06703-0.0688-0.11642-0.14111-0.11642-0.067 0-0.12876 0.04233-0.1658 0.09878l2e-3 -0.07937h-0.11818z"/>
     <path d="m149.75 69.716c-0.19226 0-0.37041 0.13758-0.37041 0.43039 0 0.26988 0.16757 0.41275 0.38629 0.41275 0.11642 0 0.22048-0.04233 0.28928-0.12524l-0.0706-0.06879c-0.0512 0.05997-0.12876 0.09172-0.20814 0.09172-0.1076 0-0.26458-0.05997-0.2734-0.30162h0.5715c5e-3 -0.05468 4e-3 -0.1076-5e-3 -0.15346-0.037-0.21696-0.18697-0.28575-0.31927-0.28575zm-0.24341 0.34219c0.0265-0.1905 0.14816-0.24518 0.23459-0.24518 0.13053 0 0.22402 0.11465 0.20814 0.24518z"/>
    </g>
   </g>
   <g fill="none" stroke="#d54747" stroke-width=".26458">
    <path d="m30.66 164.07 35.975 50.605" opacity=".91"/>
    <path d="m30.058 164.5 1.2083-0.85895" opacity=".91"/>
    <path d="m33.328 169.1 1.2083-0.85895" opacity=".91"/>
    <path d="m36.599 173.7 1.2083-0.85896" opacity=".91"/>
    <path d="m39.869 178.3 1.2083-0.85895" opacity=".91"/>
    <path d="m43.14 182.9 1.2083-0.85895" opacity=".91"/>
    <path d="m46.41 187.5 1.2083-0.85896" opacity=".91"/>
    <path d="m49.68 192.1 1.2083-0.85895" opacity=".91"/>
    <path d="m52.951 196.7 1.2083-0.85896" opacity=".91"/>
   </g>
   <g transform="matrix(.16352 .23002 -.23002 .16352 48.483 139.28)" opacity=".91" stroke="#d54747">
    <path d="m45.42 66.92 15.514-15.426" fill="none" stroke="#d54747" stroke-width="1px"/>
   </g>
   <g fill="none" stroke="#e9e56f" stroke-width=".056444">
    <path d="m66.206 187.28 3.4503-2.4528" opacity=".91"/>
    <path d="m66.206 187.28 3.4503-2.4528" opacity=".91"/>
    <path d="m69.476 191.88 3.4503-2.4528" opacity=".91"/>
    <path d="m69.476 191.88 3.4503-2.4528" opacity=".91"/>
    <path d="m72.747 196.48 3.4503-2.4528" opacity=".91"/>
    <path d="m72.747 196.48 3.4503-2.4528" opacity=".91"/>
    <path d="m54.884 188.4 3.4503-2.4528" opacity=".91"/>
    <path d="m48.344 179.2 3.4503-2.4528" opacity=".91"/>
   </g>
   <rect transform="rotate(54.591)" x="151.52" y="60.224" width="62.031" height="4.1769" fill="#3b390d" fill-opacity=".38431" opacity=".91" stroke="#e9e56f" stroke-width=".056444"/>
   <g fill="none" stroke="#e9e56f" stroke-width=".056444">
    <path d="m38.532 165.4 3.4503-2.4528" opacity=".91"/>
    <path d="m41.803 170 3.4503-2.4528" opacity=".91"/>
    <path d="m45.073 174.6 3.4503-2.4528" opacity=".91"/>
    <path d="m48.344 179.2 3.4503-2.4528" opacity=".91"/>
    <path d="m51.614 183.8 3.4503-2.4528" opacity=".91"/>
    <path d="m54.884 188.4 3.4503-2.4528" opacity=".91"/>
    <path d="m58.155 193 3.4503-2.4528" opacity=".91"/>
    <path d="m58.155 193 3.4503-2.4528" opacity=".91"/>
    <path d="m61.425 197.6 3.4503-2.4528" opacity=".91"/>
    <path d="m61.425 197.6 3.4503-2.4528" opacity=".91"/>
    <path d="m64.696 202.2 3.4503-2.4528" opacity=".91"/>
    <path d="m64.696 202.2 3.4503-2.4528" opacity=".91"/>
   </g>
   <g stroke="#d54747">
    <g transform="matrix(.16352 .23002 -.23002 .16352 58.294 153.08)" opacity=".91">
     <path d="m45.42 66.92 15.514-15.426" fill="none" stroke="#d54747" stroke-width="1px"/>
    </g>
    <g transform="matrix(.16352 .23002 -.23002 .16352 68.105 166.88)" opacity=".91">
     <path d="m45.42 66.92 15.514-15.426" fill="none" stroke="#d54747" stroke-width="1px"/>
    </g>
    <g transform="matrix(.16352 .23002 -.23002 .16352 77.917 180.68)" opacity=".91">
     <path d="m45.42 66.92 15.514-15.426" fill="none" stroke="#d54747" stroke-width="1px"/>
    </g>
   </g>
   <g>
    <path d="m76.017 201.08 3.4503-2.4528" fill="none" opacity=".91" stroke="#e9e56f" stroke-width=".056444"/>
    <path d="m67.966 206.8 3.4503-2.4528" fill="none" opacity=".91" stroke="#e9e56f" stroke-width=".056444"/>
    <g transform="rotate(54.591)" fill="#e9e56f" opacity=".91" stroke-width=".28222px" aria-label="Datagrams">
     <path d="m157.72 57.588v1.1007h0.23636c0.0864 0 0.16051-0.0035 0.23812-0.0441 0.15699-0.08114 0.24342-0.26811 0.24342-0.508 0-0.21167-0.0635-0.39688-0.20461-0.4886-0.0794-0.05292-0.15875-0.05997-0.25576-0.05997zm0.11641 0.10583h0.13406c0.0688 0 0.13758 0.0035 0.20638 0.05997 0.1023 0.08467 0.13581 0.24165 0.13581 0.39864 0 0.2099-0.0688 0.32985-0.15698 0.38982-0.0688 0.04586-0.13758 0.04939-0.20638 0.04939h-0.11289z"/>
     <path d="m158.66 57.976 0.0617 0.08114c0.067-0.06879 0.15699-0.08996 0.23284-0.08996 0.0952 0 0.14287 0.04057 0.1658 0.07761 0.0265 0.0441 0.0247 0.09701 0.0247 0.13935v0.02822h-0.0247c-0.11994 0-0.24694 0-0.34925 0.03704-0.127 0.04586-0.18344 0.14111-0.18344 0.22931 0 0.11818 0.1023 0.2293 0.26987 0.2293 0.0988 0 0.20109-0.03704 0.28928-0.10936v0.08819h0.11994v-0.49918c0-0.06526-2e-3 -0.127-0.0388-0.1905-0.0529-0.08643-0.15522-0.13229-0.28046-0.13229-0.1076 0-0.21167 0.03351-0.28751 0.11112zm0.49036 0.33338v0.05468c0 0.04057 0 0.09349-0.0547 0.15169-0.03 0.02999-0.10584 0.09525-0.21167 0.09525-0.1076 0-0.16933-0.06879-0.16933-0.13935 0-0.05997 0.0406-0.12524 0.14111-0.14993 0.0741-0.01764 0.18168-0.01235 0.26635-0.01235z"/>
     <path d="m159.72 57.665-0.0159 0.21696h-0.19227l-2e-3 0.10407h0.18874c-0.0106 0.13758-0.0159 0.27517-0.0159 0.41099 0 0.07232 0 0.15346 0.0476 0.22049 0.0388 0.05292 0.10054 0.08467 0.18344 0.08467 0.0952 0 0.18874-0.04057 0.25753-0.08996l-0.0388-0.10054c-0.0688 0.05115-0.13229 0.07408-0.18168 0.07408-0.06 0-0.12171-0.03351-0.13582-0.13053 0-0.0071-5e-3 -0.03704-5e-3 -0.15522 0-0.10407 5e-3 -0.2099 0.0159-0.31397h0.26458v-0.10583h-0.26282s0.0123-0.14464 0.0212-0.1905c2e-3 -0.01764 0.0159-0.02822 9e-3 -0.04763z"/>
     <path d="m160.43 57.976 0.0617 0.08114c0.067-0.06879 0.15699-0.08996 0.23283-0.08996 0.0952 0 0.14288 0.04057 0.16581 0.07761 0.0265 0.0441 0.0247 0.09701 0.0247 0.13935v0.02822h-0.0247c-0.11994 0-0.24694 0-0.34925 0.03704-0.127 0.04586-0.18344 0.14111-0.18344 0.22931 0 0.11818 0.1023 0.2293 0.26987 0.2293 0.0988 0 0.20108-0.03704 0.28928-0.10936v0.08819h0.11994v-0.49918c0-0.06526-2e-3 -0.127-0.0388-0.1905-0.0529-0.08643-0.15522-0.13229-0.28046-0.13229-0.1076 0-0.21167 0.03351-0.28751 0.11112zm0.49036 0.33338v0.05468c0 0.04057 0 0.09349-0.0547 0.15169-0.03 0.02999-0.10584 0.09525-0.21167 0.09525-0.1076 0-0.16933-0.06879-0.16933-0.13935 0-0.05997 0.0406-0.12524 0.14111-0.14993 0.0741-0.01764 0.18168-0.01235 0.26634-0.01235z"/>
     <path d="m161.37 58.133c0-0.09701 0.0811-0.17639 0.17815-0.17639 0.0988 0 0.17815 0.07937 0.17815 0.17639 0 0.09701-0.0794 0.17639-0.17815 0.17639-0.0988 0-0.17815-0.07937-0.17815-0.17639zm0.1852-0.27693c-0.16051 0-0.29986 0.127-0.29986 0.28399 0 0.08819 0.0441 0.1711 0.11818 0.21872-0.0582 0.04939-0.0917 0.10407-0.0917 0.15522 0 0.03351 0.0141 0.08114 0.0653 0.1076-0.0864 0.05468-0.13053 0.11465-0.13053 0.17815 0 0.08819 0.0811 0.19226 0.36336 0.19226 0.2734 0 0.37218-0.13935 0.37218-0.24694 0-0.07056-0.0406-0.14111-0.12524-0.17462-0.0847-0.03528-0.18168-0.02293-0.2734-0.02293-0.06 0-0.0988-0.0053-0.11465-0.01058-0.0318-0.0088-0.0494-0.02822-0.0494-0.05292 0-0.04233 0.0494-0.0829 0.0582-0.08996 0.0317 0.01235 0.067 0.01764 0.1023 0.01764 0.15875 0 0.28928-0.127 0.28928-0.27517 0-0.04939-0.0141-0.09701-0.0406-0.13758 0.0423-0.0247 0.0917-0.03881 0.14111-0.03881 0.0159 0 0.03 0.0018 0.0459 0.0053l-0.0141-0.10407c-0.0811-0.0071-0.16228 0.0194-0.22401 0.07056-0.0512-0.04939-0.11818-0.07585-0.19227-0.07585zm-0.1217 0.78846c0.03 0.0035 0.0723 0.0071 0.13405 0.01058 0.06 0.0018 0.12524-0.0035 0.1711 0.0035 0.0741 0.01235 0.097 0.05821 0.097 0.09349s-0.0212 0.07761-0.0758 0.1076c-0.06 0.03175-0.127 0.03528-0.18169 0.03528-0.037 0-0.10583-0.0018-0.1658-0.02646-0.0653-0.02646-0.0794-0.07056-0.0794-0.09878 0-0.05821 0.0547-0.10054 0.10055-0.12524z"/>
     <path d="m162.21 57.882v0.8061h0.127v-0.39158c0-0.04939 2e-3 -0.10231 0.0564-0.18874 0.0741-0.11642 0.16934-0.13582 0.22755-0.13582 0.067 0 0.10936 0.03175 0.13229 0.05997 0.0106 0.01411 0.0159 0.02822 0.03 0.04057l0.06-0.12171c-0.0512-0.05292-0.12524-0.08819-0.2152-0.08819-0.11818 0-0.23812 0.05997-0.29104 0.17462l5e-3 -0.15522z"/>
     <path d="m163.07 57.976 0.0617 0.08114c0.067-0.06879 0.15699-0.08996 0.23284-0.08996 0.0953 0 0.14287 0.04057 0.1658 0.07761 0.0265 0.0441 0.0247 0.09701 0.0247 0.13935v0.02822h-0.0247c-0.11994 0-0.24694 0-0.34925 0.03704-0.127 0.04586-0.18344 0.14111-0.18344 0.22931 0 0.11818 0.1023 0.2293 0.26987 0.2293 0.0988 0 0.20109-0.03704 0.28928-0.10936v0.08819h0.11995v-0.49918c0-0.06526-2e-3 -0.127-0.0388-0.1905-0.0529-0.08643-0.15522-0.13229-0.28046-0.13229-0.10759 0-0.21166 0.03351-0.28751 0.11112zm0.49036 0.33338v0.05468c0 0.04057 0 0.09349-0.0547 0.15169-0.03 0.02999-0.10583 0.09525-0.21167 0.09525-0.10759 0-0.16933-0.06879-0.16933-0.13935 0-0.05997 0.0406-0.12524 0.14111-0.14993 0.0741-0.01764 0.18168-0.01235 0.26635-0.01235z"/>
     <path d="m163.86 58.687h0.11641v-0.53622c0-0.03881 4e-3 -0.07408 0.0265-0.11642 0.0282-0.05292 0.0635-0.07408 0.097-0.07408 0.0282 0 0.06 0.01764 0.0741 0.06174 0.0106 0.03351 9e-3 0.07232 9e-3 0.10583v0.55915h0.11818v-0.53269c0-0.04233 4e-3 -0.07585 0.0335-0.127 0.0141-0.02117 0.0441-0.07232 0.0935-0.07232 0.0265 0 0.0511 0.01588 0.0635 0.04586 0.0159 0.03351 0.0123 0.07938 0.0123 0.11642v0.5715h0.11994v-0.57326c0-0.06703 2e-3 -0.13406-0.0335-0.18874-0.03-0.04586-0.0811-0.0635-0.12524-0.0635-0.0776 0-0.14993 0.04586-0.18168 0.11642-0.0123-0.06703-0.0688-0.11642-0.14111-0.11642-0.067 0-0.12876 0.04233-0.16581 0.09878l2e-3 -0.07938h-0.11818z"/>
     <path d="m165.44 57.988c-0.0741-0.08114-0.18168-0.12524-0.30163-0.12524-0.18697 0-0.30868 0.10407-0.30868 0.22401 0 0.14111 0.1517 0.19226 0.19579 0.20814 0.0688 0.0247 0.15699 0.04586 0.21696 0.07408 0.067 0.03175 0.0794 0.07408 0.0794 0.10231 0 0.07585-0.0917 0.127-0.20638 0.127-0.13758 0-0.22578-0.0829-0.25223-0.11112-5e-3 -0.0071-5e-3 -0.01235-5e-3 -0.0194 0-0.0018 2e-3 -0.01235-7e-3 -0.01587l-0.0741 0.12524c0.0952 0.0882 0.21872 0.12876 0.34043 0.12876 0.22048 0 0.33513-0.13053 0.33513-0.25224 0-0.05468-0.0229-0.12876-0.11818-0.18168-0.0899-0.05115-0.22048-0.06879-0.29633-0.10583-0.0653-0.03175-0.0794-0.07056-0.0794-0.09878 0-0.0635 0.0794-0.10936 0.16933-0.10936 0.11642 0 0.19403 0.07056 0.22401 0.11112 5e-3 0.0053 4e-3 0.01058 4e-3 0.01588 0 0.01058 7e-3 0.01411 0.0106 0.01411z"/>
    </g>
   </g>
   <g fill="none" stroke="#d54747" stroke-width=".26458">
    <path d="m56.221 201.3 1.2083-0.85896" opacity=".91"/>
    <path d="m59.492 205.9 1.2083-0.85895" opacity=".91"/>
    <path d="m62.762 210.5 1.2083-0.85896" opacity=".91"/>
    <path d="m66.033 215.1 1.2083-0.85896" opacity=".91"/>
   </g>
   <g fill="#e9e56f" stroke-width=".28222px">
    <g transform="rotate(54.591)" opacity=".91" aria-label="0°">
     <path d="m154.35 64.918c-0.17463 0-0.35454 0.2152-0.35454 0.56621 0 0.35631 0.18168 0.56092 0.3563 0.56092 0.15875 0 0.34749-0.17286 0.34749-0.5521 0-0.37394-0.17992-0.57503-0.34925-0.57503zm0.17109 0.25224-0.38629 0.50094c-0.0159-0.06174-0.0247-0.13053-0.0247-0.20814 0-0.28222 0.12876-0.43744 0.23812-0.43744 0.06 0 0.12524 0.04763 0.17286 0.14464zm0.0406 0.11642c0.0159 0.06174 0.0229 0.13582 0.0229 0.22225 0 0.30692-0.13229 0.42333-0.2293 0.42333-0.0653 0-0.13229-0.05292-0.17992-0.14993z"/>
     <path d="m155.47 65.135c0-0.13053-0.10583-0.23636-0.23812-0.23636-0.13053 0-0.23813 0.10583-0.23813 0.23636 0 0.13053 0.1076 0.23636 0.23813 0.23636 0.13229 0 0.23812-0.10583 0.23812-0.23636zm-0.23636-0.14288c0.0723 0 0.13229 0.06174 0.13229 0.14111 0 0.07937-0.06 0.14111-0.13229 0.14111-0.0705 0-0.13053-0.06174-0.13053-0.14111 0-0.07938 0.06-0.14111 0.13053-0.14111z"/>
    </g>
    <g transform="rotate(54.591)" opacity=".91" aria-label="20°">
     <path d="m159.4 65.097 0.09 0.07232c0.0106-0.01587 5e-3 -0.02646 0.0159-0.04057 0.0265-0.04057 0.0917-0.10054 0.18697-0.10054 0.11818 0 0.21167 0.08996 0.21167 0.20814 0 0.13406-0.11289 0.23107-0.19227 0.30339-0.12523 0.11289-0.22754 0.22578-0.31926 0.40746v0.07761h0.64558v-0.12171c-0.0123-0.0053-0.0212 0.0035-0.0247 0.0071-7e-3 0.0071-0.0106 0.0071-0.0176 0.0071h-0.46214c0.0917-0.15875 0.22049-0.26811 0.29986-0.34219 0.0794-0.07585 0.19226-0.18874 0.19226-0.34749 0-0.1711-0.13934-0.30868-0.3175-0.30868-0.12523 0-0.24341 0.06703-0.30868 0.17815z"/>
     <path d="m160.59 64.918c-0.17463 0-0.35455 0.2152-0.35455 0.56621 0 0.35631 0.18168 0.56092 0.35631 0.56092 0.15875 0 0.34749-0.17286 0.34749-0.5521 0-0.37394-0.17992-0.57503-0.34925-0.57503zm0.17109 0.25224-0.38629 0.50094c-0.0159-0.06174-0.0247-0.13053-0.0247-0.20814 0-0.28222 0.12876-0.43744 0.23812-0.43744 0.06 0 0.12524 0.04763 0.17286 0.14464zm0.0406 0.11642c0.0159 0.06174 0.0229 0.13582 0.0229 0.22225 0 0.30692-0.13229 0.42333-0.2293 0.42333-0.0653 0-0.1323-0.05292-0.17992-0.14993z"/>
     <path d="m161.72 65.135c0-0.13053-0.10583-0.23636-0.23812-0.23636-0.13053 0-0.23813 0.10583-0.23813 0.23636 0 0.13053 0.1076 0.23636 0.23813 0.23636 0.13229 0 0.23812-0.10583 0.23812-0.23636zm-0.23636-0.14288c0.0723 0 0.13229 0.06174 0.13229 0.14111 0 0.07937-0.06 0.14111-0.13229 0.14111-0.0706 0-0.13053-0.06174-0.13053-0.14111 0-0.07938 0.06-0.14111 0.13053-0.14111z"/>
    </g>
    <g transform="rotate(54.591)" opacity=".91" aria-label="40°">
     <path d="m165.46 64.926-0.46743 0.70379v0.09172h0.44273v0.30339h0.127v-0.30162h0.14288v-0.10936h-0.14288v-0.68792zm-0.0229 0.19579v0.49212h-0.3228z"/>
     <path d="m166.24 64.918c-0.17463 0-0.35454 0.2152-0.35454 0.56621 0 0.35631 0.18168 0.56092 0.3563 0.56092 0.15875 0 0.34749-0.17286 0.34749-0.5521 0-0.37394-0.17992-0.57503-0.34925-0.57503zm0.1711 0.25224-0.38629 0.50094c-0.0159-0.06174-0.0247-0.13053-0.0247-0.20814 0-0.28222 0.12876-0.43744 0.23813-0.43744 0.06 0 0.12523 0.04763 0.17286 0.14464zm0.0406 0.11642c0.0159 0.06174 0.0229 0.13582 0.0229 0.22225 0 0.30692-0.13229 0.42333-0.22931 0.42333-0.0653 0-0.13229-0.05292-0.17992-0.14993z"/>
     <path d="m167.36 65.135c0-0.13053-0.10584-0.23636-0.23813-0.23636-0.13053 0-0.23813 0.10583-0.23813 0.23636 0 0.13053 0.1076 0.23636 0.23813 0.23636 0.13229 0 0.23813-0.10583 0.23813-0.23636zm-0.23637-0.14288c0.0723 0 0.1323 0.06174 0.1323 0.14111 0 0.07937-0.06 0.14111-0.1323 0.14111-0.0705 0-0.13052-0.06174-0.13052-0.14111 0-0.07938 0.06-0.14111 0.13052-0.14111z"/>
    </g>
    <g transform="rotate(54.591)" opacity=".91" aria-label="60°">
     <path d="m171.06 64.913c-0.1323 0-0.27341 0.08114-0.3422 0.2734-0.037 0.10407-0.0459 0.23283-0.0459 0.33867 0 0.12876 0.0123 0.26635 0.0829 0.37218 0.0635 0.09701 0.16228 0.1464 0.25929 0.1464 0.16757 0 0.31398-0.14111 0.31398-0.36865 0-0.22754-0.14641-0.35983-0.30163-0.35983-0.0952 0-0.18521 0.05115-0.23283 0.13229 7e-3 -0.37571 0.18697-0.4251 0.26635-0.4251 0.0723 0 0.1217 0.0388 0.12876 0.04586 0.0106 0.01235 0.0106 0.02822 0.0265 0.04057l0.0847-0.09525c-0.0635-0.0635-0.15169-0.10054-0.23988-0.10054zm-0.0459 0.51153c0.0882 0 0.19403 0.06879 0.19403 0.25753 0 0.1711-0.0952 0.25224-0.18873 0.25224-0.13406 0-0.2346-0.15699-0.22049-0.36336 0.0494-0.08996 0.13406-0.1464 0.21519-0.1464z"/>
     <path d="m171.88 64.918c-0.17463 0-0.35454 0.2152-0.35454 0.56621 0 0.35631 0.18168 0.56092 0.3563 0.56092 0.15875 0 0.34749-0.17286 0.34749-0.5521 0-0.37394-0.17992-0.57503-0.34925-0.57503zm0.1711 0.25224-0.38629 0.50094c-0.0159-0.06174-0.0247-0.13053-0.0247-0.20814 0-0.28222 0.12876-0.43744 0.23813-0.43744 0.06 0 0.12523 0.04763 0.17286 0.14464zm0.0406 0.11642c0.0159 0.06174 0.0229 0.13582 0.0229 0.22225 0 0.30692-0.13229 0.42333-0.22931 0.42333-0.0653 0-0.13229-0.05292-0.17992-0.14993z"/>
     <path d="m173.01 65.135c0-0.13053-0.10583-0.23636-0.23812-0.23636-0.13053 0-0.23813 0.10583-0.23813 0.23636 0 0.13053 0.1076 0.23636 0.23813 0.23636 0.13229 0 0.23812-0.10583 0.23812-0.23636zm-0.23636-0.14288c0.0723 0 0.1323 0.06174 0.1323 0.14111 0 0.07937-0.06 0.14111-0.1323 0.14111-0.0705 0-0.13052-0.06174-0.13052-0.14111 0-0.07938 0.06-0.14111 0.13052-0.14111z"/>
    </g>
    <g transform="rotate(54.591)" opacity=".91" aria-label="80°">
     <path d="m176.65 64.913c-0.16933 0-0.2981 0.12171-0.2981 0.26988 0 0.1076 0.0688 0.20638 0.16757 0.25753-0.13052 0.06174-0.21872 0.18168-0.21872 0.30868 0 0.16404 0.14464 0.29457 0.33338 0.29457 0.19226 0 0.33866-0.13406 0.33866-0.30162 0-0.13053-0.0882-0.24694-0.21166-0.30515 0.10583-0.05468 0.17462-0.15875 0.17462-0.26458 0-0.14464-0.12523-0.25929-0.28575-0.25929zm-0.037 0.57856c0.14111 0.0441 0.2346 0.14111 0.2346 0.24871 0 0.10583-0.09 0.19226-0.20814 0.19226-0.11995 0-0.21167-0.08996-0.21167-0.19932 0-0.10407 0.0811-0.19932 0.18521-0.24165zm0.0265-0.47625c0.0988 0 0.17639 0.07408 0.17639 0.16581 0 0.08467-0.0653 0.1658-0.1517 0.21167 0 0-0.19402-0.07408-0.19402-0.22049 0-0.08643 0.0741-0.15699 0.16933-0.15699z"/>
     <path d="m177.52 64.918c-0.17463 0-0.35454 0.2152-0.35454 0.56621 0 0.35631 0.18168 0.56092 0.3563 0.56092 0.15875 0 0.34749-0.17286 0.34749-0.5521 0-0.37394-0.17992-0.57503-0.34925-0.57503zm0.1711 0.25224-0.3863 0.50094c-0.0159-0.06174-0.0247-0.13053-0.0247-0.20814 0-0.28222 0.12876-0.43744 0.23813-0.43744 0.06 0 0.12523 0.04763 0.17286 0.14464zm0.0406 0.11642c0.0159 0.06174 0.0229 0.13582 0.0229 0.22225 0 0.30692-0.1323 0.42333-0.22931 0.42333-0.0653 0-0.13229-0.05292-0.17992-0.14993z"/>
     <path d="m178.65 65.135c0-0.13053-0.10583-0.23636-0.23812-0.23636-0.13053 0-0.23813 0.10583-0.23813 0.23636 0 0.13053 0.1076 0.23636 0.23813 0.23636 0.13229 0 0.23812-0.10583 0.23812-0.23636zm-0.23636-0.14288c0.0723 0 0.13229 0.06174 0.13229 0.14111 0 0.07937-0.06 0.14111-0.13229 0.14111-0.0705 0-0.13052-0.06174-0.13052-0.14111 0-0.07938 0.06-0.14111 0.13052-0.14111z"/>
    </g>
    <g transform="rotate(54.591)" opacity=".91" aria-label="100°">
     <path d="m181.52 64.926h-0.0811l-0.28223 0.1464 0.0282 0.06879 0.21872-0.06174v0.85019h-0.20461v0.09701h0.51858v-0.09701h-0.19756z"/>
     <path d="m182.32 64.918c-0.17463 0-0.35454 0.2152-0.35454 0.56621 0 0.35631 0.18168 0.56092 0.3563 0.56092 0.15875 0 0.34749-0.17286 0.34749-0.5521 0-0.37394-0.17992-0.57503-0.34925-0.57503zm0.1711 0.25224-0.38629 0.50094c-0.0159-0.06174-0.0247-0.13053-0.0247-0.20814 0-0.28222 0.12876-0.43744 0.23813-0.43744 0.06 0 0.12523 0.04763 0.17286 0.14464zm0.0406 0.11642c0.0159 0.06174 0.0229 0.13582 0.0229 0.22225 0 0.30692-0.13229 0.42333-0.22931 0.42333-0.0653 0-0.13229-0.05292-0.17992-0.14993z"/>
     <path d="m183.2 64.918c-0.17462 0-0.35454 0.2152-0.35454 0.56621 0 0.35631 0.18168 0.56092 0.35631 0.56092 0.15875 0 0.34748-0.17286 0.34748-0.5521 0-0.37394-0.17991-0.57503-0.34925-0.57503zm0.1711 0.25224-0.38629 0.50094c-0.0159-0.06174-0.0247-0.13053-0.0247-0.20814 0-0.28222 0.12876-0.43744 0.23812-0.43744 0.06 0 0.12524 0.04763 0.17286 0.14464zm0.0406 0.11642c0.0159 0.06174 0.0229 0.13582 0.0229 0.22225 0 0.30692-0.13229 0.42333-0.2293 0.42333-0.0653 0-0.1323-0.05292-0.17992-0.14993z"/>
     <path d="m184.33 65.135c0-0.13053-0.10583-0.23636-0.23813-0.23636-0.13052 0-0.23812 0.10583-0.23812 0.23636 0 0.13053 0.1076 0.23636 0.23812 0.23636 0.1323 0 0.23813-0.10583 0.23813-0.23636zm-0.23636-0.14288c0.0723 0 0.13229 0.06174 0.13229 0.14111 0 0.07937-0.06 0.14111-0.13229 0.14111-0.0706 0-0.13053-0.06174-0.13053-0.14111 0-0.07938 0.06-0.14111 0.13053-0.14111z"/>
    </g>
    <g transform="rotate(54.591)" opacity=".91" aria-label="120°">
     <path d="m187.45 64.926h-0.0811l-0.28222 0.1464 0.0282 0.06879 0.21872-0.06174v0.85019h-0.20461v0.09701h0.51859v-0.09701h-0.19756z"/>
     <path d="m187.94 65.097 0.09 0.07232c0.0106-0.01587 5e-3 -0.02646 0.0159-0.04057 0.0265-0.04057 0.0917-0.10054 0.18698-0.10054 0.11818 0 0.21166 0.08996 0.21166 0.20814 0 0.13406-0.11289 0.23107-0.19226 0.30339-0.12524 0.11289-0.22754 0.22578-0.31927 0.40746v0.07761h0.64559v-0.12171c-0.0123-0.0053-0.0212 0.0035-0.0247 0.0071-7e-3 0.0071-0.0106 0.0071-0.0176 0.0071h-0.46213c0.0917-0.15875 0.22048-0.26811 0.29986-0.34219 0.0794-0.07585 0.19226-0.18874 0.19226-0.34749 0-0.1711-0.13935-0.30868-0.3175-0.30868-0.12524 0-0.24342 0.06703-0.30868 0.17815z"/>
     <path d="m189.13 64.918c-0.17462 0-0.35454 0.2152-0.35454 0.56621 0 0.35631 0.18168 0.56092 0.3563 0.56092 0.15875 0 0.34749-0.17286 0.34749-0.5521 0-0.37394-0.17992-0.57503-0.34925-0.57503zm0.1711 0.25224-0.38629 0.50094c-0.0159-0.06174-0.0247-0.13053-0.0247-0.20814 0-0.28222 0.12877-0.43744 0.23813-0.43744 0.06 0 0.12523 0.04763 0.17286 0.14464zm0.0406 0.11642c0.0159 0.06174 0.0229 0.13582 0.0229 0.22225 0 0.30692-0.13229 0.42333-0.22931 0.42333-0.0653 0-0.13229-0.05292-0.17991-0.14993z"/>
     <path d="m190.26 65.135c0-0.13053-0.10584-0.23636-0.23813-0.23636-0.13053 0-0.23812 0.10583-0.23812 0.23636 0 0.13053 0.10759 0.23636 0.23812 0.23636 0.13229 0 0.23813-0.10583 0.23813-0.23636zm-0.23637-0.14288c0.0723 0 0.1323 0.06174 0.1323 0.14111 0 0.07937-0.06 0.14111-0.1323 0.14111-0.0705 0-0.13052-0.06174-0.13052-0.14111 0-0.07938 0.06-0.14111 0.13052-0.14111z"/>
    </g>
    <g transform="rotate(54.591)" opacity=".91" aria-label="140°">
     <path d="m193.09 64.926h-0.0811l-0.28222 0.1464 0.0282 0.06879 0.21872-0.06174v0.85019h-0.20461v0.09701h0.51859v-0.09701h-0.19756z"/>
     <path d="m194 64.926-0.46743 0.70379v0.09172h0.44273v0.30339h0.127v-0.30162h0.14288v-0.10936h-0.14288v-0.68792zm-0.0229 0.19579v0.49212h-0.3228z"/>
     <path d="m194.77 64.918c-0.17462 0-0.35454 0.2152-0.35454 0.56621 0 0.35631 0.18168 0.56092 0.3563 0.56092 0.15875 0 0.34749-0.17286 0.34749-0.5521 0-0.37394-0.17992-0.57503-0.34925-0.57503zm0.1711 0.25224-0.38629 0.50094c-0.0159-0.06174-0.0247-0.13053-0.0247-0.20814 0-0.28222 0.12877-0.43744 0.23813-0.43744 0.06 0 0.12523 0.04763 0.17286 0.14464zm0.0406 0.11642c0.0159 0.06174 0.0229 0.13582 0.0229 0.22225 0 0.30692-0.13229 0.42333-0.22931 0.42333-0.0653 0-0.13229-0.05292-0.17991-0.14993z"/>
     <path d="m195.9 65.135c0-0.13053-0.10584-0.23636-0.23813-0.23636-0.13053 0-0.23812 0.10583-0.23812 0.23636 0 0.13053 0.10759 0.23636 0.23812 0.23636 0.13229 0 0.23813-0.10583 0.23813-0.23636zm-0.23637-0.14288c0.0723 0 0.1323 0.06174 0.1323 0.14111 0 0.07937-0.06 0.14111-0.1323 0.14111-0.0705 0-0.13052-0.06174-0.13052-0.14111 0-0.07938 0.06-0.14111 0.13052-0.14111z"/>
    </g>
    <g transform="rotate(54.591)" opacity=".91" aria-label="160°">
     <path d="m198.74 64.926h-0.0811l-0.28222 0.1464 0.0282 0.06879 0.21872-0.06174v0.85019h-0.20461v0.09701h0.51859v-0.09701h-0.19756z"/>
     <path d="m199.6 64.913c-0.1323 0-0.27341 0.08114-0.3422 0.2734-0.037 0.10407-0.0459 0.23283-0.0459 0.33867 0 0.12876 0.0123 0.26635 0.0829 0.37218 0.0635 0.09701 0.16228 0.1464 0.25929 0.1464 0.16757 0 0.31398-0.14111 0.31398-0.36865 0-0.22754-0.14641-0.35983-0.30163-0.35983-0.0952 0-0.18521 0.05115-0.23283 0.13229 7e-3 -0.37571 0.18697-0.4251 0.26635-0.4251 0.0723 0 0.1217 0.0388 0.12876 0.04586 0.0106 0.01235 0.0106 0.02822 0.0265 0.04057l0.0847-0.09525c-0.0635-0.0635-0.15169-0.10054-0.23988-0.10054zm-0.0459 0.51153c0.0882 0 0.19403 0.06879 0.19403 0.25753 0 0.1711-0.0952 0.25224-0.18873 0.25224-0.13406 0-0.2346-0.15699-0.22049-0.36336 0.0494-0.08996 0.13406-0.1464 0.21519-0.1464z"/>
     <path d="m200.42 64.918c-0.17462 0-0.35454 0.2152-0.35454 0.56621 0 0.35631 0.18168 0.56092 0.3563 0.56092 0.15875 0 0.34749-0.17286 0.34749-0.5521 0-0.37394-0.17992-0.57503-0.34925-0.57503zm0.1711 0.25224-0.38629 0.50094c-0.0159-0.06174-0.0247-0.13053-0.0247-0.20814 0-0.28222 0.12877-0.43744 0.23813-0.43744 0.06 0 0.12523 0.04763 0.17286 0.14464zm0.0406 0.11642c0.0159 0.06174 0.0229 0.13582 0.0229 0.22225 0 0.30692-0.13229 0.42333-0.22931 0.42333-0.0653 0-0.13229-0.05292-0.17991-0.14993z"/>
     <path d="m201.55 65.135c0-0.13053-0.10584-0.23636-0.23813-0.23636-0.13053 0-0.23812 0.10583-0.23812 0.23636 0 0.13053 0.10759 0.23636 0.23812 0.23636 0.13229 0 0.23813-0.10583 0.23813-0.23636zm-0.23637-0.14288c0.0723 0 0.1323 0.06174 0.1323 0.14111 0 0.07937-0.06 0.14111-0.1323 0.14111-0.0706 0-0.13052-0.06174-0.13052-0.14111 0-0.07938 0.06-0.14111 0.13052-0.14111z"/>
    </g>
    <g transform="rotate(54.591)" opacity=".91" aria-label="180°">
     <path d="m204.38 64.926h-0.0811l-0.28222 0.1464 0.0282 0.06879 0.21872-0.06174v0.85019h-0.20461v0.09701h0.51859v-0.09701h-0.19756z"/>
     <path d="m205.19 64.913c-0.16933 0-0.29809 0.12171-0.29809 0.26988 0 0.1076 0.0688 0.20638 0.16756 0.25753-0.13052 0.06174-0.21872 0.18168-0.21872 0.30868 0 0.16404 0.14464 0.29457 0.33338 0.29457 0.19226 0 0.33866-0.13406 0.33866-0.30162 0-0.13053-0.0882-0.24694-0.21166-0.30515 0.10583-0.05468 0.17462-0.15875 0.17462-0.26458 0-0.14464-0.12523-0.25929-0.28575-0.25929zm-0.037 0.57856c0.14111 0.0441 0.2346 0.14111 0.2346 0.24871 0 0.10583-0.09 0.19226-0.20814 0.19226-0.11995 0-0.21167-0.08996-0.21167-0.19932 0-0.10407 0.0811-0.19932 0.18521-0.24165zm0.0265-0.47625c0.0988 0 0.17639 0.07408 0.17639 0.16581 0 0.08467-0.0653 0.1658-0.1517 0.21167 0 0-0.19402-0.07408-0.19402-0.22049 0-0.08643 0.0741-0.15699 0.16933-0.15699z"/>
     <path d="m206.06 64.918c-0.17463 0-0.35454 0.2152-0.35454 0.56621 0 0.35631 0.18168 0.56092 0.3563 0.56092 0.15875 0 0.34749-0.17286 0.34749-0.5521 0-0.37394-0.17992-0.57503-0.34925-0.57503zm0.1711 0.25224-0.38629 0.50094c-0.0159-0.06174-0.0247-0.13053-0.0247-0.20814 0-0.28222 0.12876-0.43744 0.23813-0.43744 0.06 0 0.12523 0.04763 0.17286 0.14464zm0.0406 0.11642c0.0159 0.06174 0.0229 0.13582 0.0229 0.22225 0 0.30692-0.13229 0.42333-0.22931 0.42333-0.0653 0-0.13229-0.05292-0.17992-0.14993z"/>
     <path d="m207.19 65.135c0-0.13053-0.10583-0.23636-0.23812-0.23636-0.13053 0-0.23813 0.10583-0.23813 0.23636 0 0.13053 0.1076 0.23636 0.23813 0.23636 0.13229 0 0.23812-0.10583 0.23812-0.23636zm-0.23636-0.14288c0.0723 0 0.1323 0.06174 0.1323 0.14111 0 0.07937-0.06 0.14111-0.1323 0.14111-0.0705 0-0.13052-0.06174-0.13052-0.14111 0-0.07938 0.06-0.14111 0.13052-0.14111z"/>
    </g>
    <g transform="rotate(54.591)" opacity=".91" aria-label="200°">
     <path d="m209.64 65.097 0.09 0.07232c0.0106-0.01587 5e-3 -0.02646 0.0159-0.04057 0.0265-0.04057 0.0917-0.10054 0.18697-0.10054 0.11819 0 0.21167 0.08996 0.21167 0.20814 0 0.13406-0.11289 0.23107-0.19226 0.30339-0.12524 0.11289-0.22754 0.22578-0.31927 0.40746v0.07761h0.64559v-0.12171c-0.0123-0.0053-0.0212 0.0035-0.0247 0.0071-7e-3 0.0071-0.0106 0.0071-0.0176 0.0071h-0.46214c0.0917-0.15875 0.22049-0.26811 0.29987-0.34219 0.0794-0.07585 0.19226-0.18874 0.19226-0.34749 0-0.1711-0.13935-0.30868-0.3175-0.30868-0.12524 0-0.24342 0.06703-0.30868 0.17815z"/>
     <path d="m210.83 64.918c-0.17462 0-0.35454 0.2152-0.35454 0.56621 0 0.35631 0.18168 0.56092 0.3563 0.56092 0.15875 0 0.34749-0.17286 0.34749-0.5521 0-0.37394-0.17992-0.57503-0.34925-0.57503zm0.1711 0.25224-0.38629 0.50094c-0.0159-0.06174-0.0247-0.13053-0.0247-0.20814 0-0.28222 0.12877-0.43744 0.23813-0.43744 0.06 0 0.12523 0.04763 0.17286 0.14464zm0.0406 0.11642c0.0159 0.06174 0.0229 0.13582 0.0229 0.22225 0 0.30692-0.13229 0.42333-0.22931 0.42333-0.0653 0-0.13229-0.05292-0.17991-0.14993z"/>
     <path d="m211.71 64.918c-0.17462 0-0.35454 0.2152-0.35454 0.56621 0 0.35631 0.18168 0.56092 0.35631 0.56092 0.15875 0 0.34748-0.17286 0.34748-0.5521 0-0.37394-0.17991-0.57503-0.34925-0.57503zm0.1711 0.25224-0.38629 0.50094c-0.0159-0.06174-0.0247-0.13053-0.0247-0.20814 0-0.28222 0.12876-0.43744 0.23812-0.43744 0.06 0 0.12524 0.04763 0.17286 0.14464zm0.0406 0.11642c0.0159 0.06174 0.0229 0.13582 0.0229 0.22225 0 0.30692-0.13229 0.42333-0.2293 0.42333-0.0653 0-0.1323-0.05292-0.17992-0.14993z"/>
     <path d="m212.84 65.135c0-0.13053-0.10583-0.23636-0.23813-0.23636-0.13052 0-0.23812 0.10583-0.23812 0.23636 0 0.13053 0.1076 0.23636 0.23812 0.23636 0.1323 0 0.23813-0.10583 0.23813-0.23636zm-0.23636-0.14288c0.0723 0 0.13229 0.06174 0.13229 0.14111 0 0.07937-0.06 0.14111-0.13229 0.14111-0.0706 0-0.13053-0.06174-0.13053-0.14111 0-0.07938 0.06-0.14111 0.13053-0.14111z"/>
    </g>
    <g transform="rotate(54.591)" opacity=".91" aria-label="0°">
     <path d="m154.35 47.985c-0.17463 0-0.35454 0.21519-0.35454 0.56621 0 0.35631 0.18168 0.56092 0.3563 0.56092 0.15875 0 0.34749-0.17286 0.34749-0.5521 0-0.37394-0.17992-0.57503-0.34925-0.57503zm0.17109 0.25224-0.38629 0.50094c-0.0159-0.06174-0.0247-0.13053-0.0247-0.20814 0-0.28222 0.12876-0.43744 0.23812-0.43744 0.06 0 0.12524 0.04762 0.17286 0.14464zm0.0406 0.11642c0.0159 0.06174 0.0229 0.13582 0.0229 0.22225 0 0.30692-0.13229 0.42333-0.2293 0.42333-0.0653 0-0.13229-0.05292-0.17992-0.14993z"/>
     <path d="m155.47 48.202c0-0.13053-0.10583-0.23636-0.23812-0.23636-0.13053 0-0.23813 0.10583-0.23813 0.23636s0.1076 0.23636 0.23813 0.23636c0.13229 0 0.23812-0.10583 0.23812-0.23636zm-0.23636-0.14288c0.0723 0 0.13229 0.06174 0.13229 0.14111 0 0.07937-0.06 0.14111-0.13229 0.14111-0.0705 0-0.13053-0.06174-0.13053-0.14111 0-0.07937 0.06-0.14111 0.13053-0.14111z"/>
    </g>
    <g transform="rotate(54.591)" opacity=".91" aria-label="0°">
     <path d="m159.99 47.985c-0.17463 0-0.35454 0.21519-0.35454 0.56621 0 0.35631 0.18168 0.56092 0.3563 0.56092 0.15875 0 0.34749-0.17286 0.34749-0.5521 0-0.37394-0.17992-0.57503-0.34925-0.57503zm0.17109 0.25224-0.38629 0.50094c-0.0159-0.06174-0.0247-0.13053-0.0247-0.20814 0-0.28222 0.12876-0.43744 0.23812-0.43744 0.06 0 0.12524 0.04762 0.17286 0.14464zm0.0406 0.11642c0.0159 0.06174 0.0229 0.13582 0.0229 0.22225 0 0.30692-0.13229 0.42333-0.2293 0.42333-0.0653 0-0.13229-0.05292-0.17992-0.14993z"/>
     <path d="m161.12 48.202c0-0.13053-0.10583-0.23636-0.23812-0.23636-0.13053 0-0.23813 0.10583-0.23813 0.23636s0.1076 0.23636 0.23813 0.23636c0.13229 0 0.23812-0.10583 0.23812-0.23636zm-0.23636-0.14288c0.0723 0 0.13229 0.06174 0.13229 0.14111 0 0.07937-0.06 0.14111-0.13229 0.14111-0.0705 0-0.13053-0.06174-0.13053-0.14111 0-0.07937 0.06-0.14111 0.13053-0.14111z"/>
    </g>
    <g transform="rotate(54.591)" opacity=".91" aria-label="0°">
     <path d="m165.64 47.985c-0.17463 0-0.35454 0.21519-0.35454 0.56621 0 0.35631 0.18168 0.56092 0.3563 0.56092 0.15875 0 0.34749-0.17286 0.34749-0.5521 0-0.37394-0.17992-0.57503-0.34925-0.57503zm0.17109 0.25224-0.38629 0.50094c-0.0159-0.06174-0.0247-0.13053-0.0247-0.20814 0-0.28222 0.12876-0.43744 0.23812-0.43744 0.06 0 0.12524 0.04762 0.17286 0.14464zm0.0406 0.11642c0.0159 0.06174 0.0229 0.13582 0.0229 0.22225 0 0.30692-0.13229 0.42333-0.2293 0.42333-0.0653 0-0.13229-0.05292-0.17992-0.14993z"/>
     <path d="m166.76 48.202c0-0.13053-0.10583-0.23636-0.23812-0.23636-0.13053 0-0.23813 0.10583-0.23813 0.23636s0.1076 0.23636 0.23813 0.23636c0.13229 0 0.23812-0.10583 0.23812-0.23636zm-0.23636-0.14288c0.0723 0 0.13229 0.06174 0.13229 0.14111 0 0.07937-0.06 0.14111-0.13229 0.14111-0.0705 0-0.13053-0.06174-0.13053-0.14111 0-0.07937 0.06-0.14111 0.13053-0.14111z"/>
    </g>
    <g transform="rotate(54.591)" opacity=".91" aria-label="0°">
     <path d="m171.28 47.985c-0.17462 0-0.35454 0.21519-0.35454 0.56621 0 0.35631 0.18168 0.56092 0.35631 0.56092 0.15875 0 0.34748-0.17286 0.34748-0.5521 0-0.37394-0.17991-0.57503-0.34925-0.57503zm0.1711 0.25224-0.38629 0.50094c-0.0159-0.06174-0.0247-0.13053-0.0247-0.20814 0-0.28222 0.12877-0.43744 0.23813-0.43744 0.06 0 0.12523 0.04762 0.17286 0.14464zm0.0406 0.11642c0.0159 0.06174 0.0229 0.13582 0.0229 0.22225 0 0.30692-0.13229 0.42333-0.22931 0.42333-0.0653 0-0.13229-0.05292-0.17991-0.14993z"/>
     <path d="m172.41 48.202c0-0.13053-0.10584-0.23636-0.23813-0.23636-0.13053 0-0.23812 0.10583-0.23812 0.23636s0.10759 0.23636 0.23812 0.23636c0.13229 0 0.23813-0.10583 0.23813-0.23636zm-0.23636-0.14288c0.0723 0 0.13229 0.06174 0.13229 0.14111 0 0.07937-0.06 0.14111-0.13229 0.14111-0.0706 0-0.13053-0.06174-0.13053-0.14111 0-0.07937 0.06-0.14111 0.13053-0.14111z"/>
    </g>
    <g transform="rotate(54.591)" opacity=".91" aria-label="60°">
     <path d="m176.42 47.98c-0.13229 0-0.2734 0.08114-0.34219 0.2734-0.037 0.10407-0.0459 0.23283-0.0459 0.33867 0 0.12876 0.0123 0.26635 0.0829 0.37218 0.0635 0.09701 0.16228 0.1464 0.25929 0.1464 0.16757 0 0.31397-0.14111 0.31397-0.36865s-0.1464-0.35983-0.30162-0.35983c-0.0952 0-0.18521 0.05115-0.23283 0.13229 7e-3 -0.37571 0.18697-0.4251 0.26634-0.4251 0.0723 0 0.12171 0.03881 0.12877 0.04586 0.0106 0.01235 0.0106 0.02822 0.0265 0.04057l0.0847-0.09525c-0.0635-0.0635-0.15169-0.10054-0.23989-0.10054zm-0.0459 0.51153c0.0882 0 0.19403 0.06879 0.19403 0.25753 0 0.1711-0.0952 0.25224-0.18874 0.25224-0.13405 0-0.23459-0.15699-0.22048-0.36336 0.0494-0.08996 0.13405-0.1464 0.21519-0.1464z"/>
     <path d="m177.24 47.985c-0.17463 0-0.35454 0.21519-0.35454 0.56621 0 0.35631 0.18168 0.56092 0.3563 0.56092 0.15875 0 0.34749-0.17286 0.34749-0.5521 0-0.37394-0.17992-0.57503-0.34925-0.57503zm0.1711 0.25224-0.3863 0.50094c-0.0159-0.06174-0.0247-0.13053-0.0247-0.20814 0-0.28222 0.12876-0.43744 0.23812-0.43744 0.06 0 0.12524 0.04762 0.17287 0.14464zm0.0406 0.11642c0.0159 0.06174 0.0229 0.13582 0.0229 0.22225 0 0.30692-0.1323 0.42333-0.22931 0.42333-0.0653 0-0.13229-0.05292-0.17992-0.14993z"/>
     <path d="m178.37 48.202c0-0.13053-0.10583-0.23636-0.23812-0.23636-0.13053 0-0.23813 0.10583-0.23813 0.23636s0.1076 0.23636 0.23813 0.23636c0.13229 0 0.23812-0.10583 0.23812-0.23636zm-0.23636-0.14288c0.0723 0 0.13229 0.06174 0.13229 0.14111 0 0.07937-0.06 0.14111-0.13229 0.14111-0.0705 0-0.13053-0.06174-0.13053-0.14111 0-0.07937 0.06-0.14111 0.13053-0.14111z"/>
    </g>
    <g transform="rotate(54.591)" opacity=".91" aria-label="60°">
     <path d="m182.07 47.98c-0.13229 0-0.2734 0.08114-0.34219 0.2734-0.037 0.10407-0.0459 0.23283-0.0459 0.33867 0 0.12876 0.0123 0.26635 0.0829 0.37218 0.0635 0.09701 0.16228 0.1464 0.25929 0.1464 0.16757 0 0.31397-0.14111 0.31397-0.36865s-0.1464-0.35983-0.30162-0.35983c-0.0952 0-0.18521 0.05115-0.23283 0.13229 7e-3 -0.37571 0.18697-0.4251 0.26634-0.4251 0.0723 0 0.12171 0.03881 0.12877 0.04586 0.0106 0.01235 0.0106 0.02822 0.0265 0.04057l0.0847-0.09525c-0.0635-0.0635-0.15169-0.10054-0.23989-0.10054zm-0.0459 0.51153c0.0882 0 0.19403 0.06879 0.19403 0.25753 0 0.1711-0.0952 0.25224-0.18874 0.25224-0.13405 0-0.23459-0.15699-0.22048-0.36336 0.0494-0.08996 0.13405-0.1464 0.21519-0.1464z"/>
     <path d="m182.89 47.985c-0.17463 0-0.35454 0.21519-0.35454 0.56621 0 0.35631 0.18168 0.56092 0.3563 0.56092 0.15875 0 0.34749-0.17286 0.34749-0.5521 0-0.37394-0.17992-0.57503-0.34925-0.57503zm0.17109 0.25224-0.38629 0.50094c-0.0159-0.06174-0.0247-0.13053-0.0247-0.20814 0-0.28222 0.12876-0.43744 0.23812-0.43744 0.06 0 0.12524 0.04762 0.17286 0.14464zm0.0406 0.11642c0.0159 0.06174 0.0229 0.13582 0.0229 0.22225 0 0.30692-0.13229 0.42333-0.2293 0.42333-0.0653 0-0.13229-0.05292-0.17992-0.14993z"/>
     <path d="m184.01 48.202c0-0.13053-0.10583-0.23636-0.23812-0.23636-0.13053 0-0.23813 0.10583-0.23813 0.23636s0.1076 0.23636 0.23813 0.23636c0.13229 0 0.23812-0.10583 0.23812-0.23636zm-0.23636-0.14288c0.0723 0 0.13229 0.06174 0.13229 0.14111 0 0.07937-0.06 0.14111-0.13229 0.14111-0.0705 0-0.13053-0.06174-0.13053-0.14111 0-0.07937 0.06-0.14111 0.13053-0.14111z"/>
    </g>
    <g transform="rotate(54.591)" opacity=".91" aria-label="60°">
     <path d="m187.71 47.98c-0.13229 0-0.2734 0.08114-0.34219 0.2734-0.037 0.10407-0.0459 0.23283-0.0459 0.33867 0 0.12876 0.0123 0.26635 0.0829 0.37218 0.0635 0.09701 0.16228 0.1464 0.25929 0.1464 0.16757 0 0.31397-0.14111 0.31397-0.36865s-0.1464-0.35983-0.30162-0.35983c-0.0952 0-0.18521 0.05115-0.23283 0.13229 7e-3 -0.37571 0.18697-0.4251 0.26634-0.4251 0.0723 0 0.12171 0.03881 0.12877 0.04586 0.0106 0.01235 0.0106 0.02822 0.0265 0.04057l0.0847-0.09525c-0.0635-0.0635-0.15169-0.10054-0.23989-0.10054zm-0.0459 0.51153c0.0882 0 0.19403 0.06879 0.19403 0.25753 0 0.1711-0.0952 0.25224-0.18874 0.25224-0.13405 0-0.23459-0.15699-0.22048-0.36336 0.0494-0.08996 0.13405-0.1464 0.21519-0.1464z"/>
     <path d="m188.53 47.985c-0.17463 0-0.35454 0.21519-0.35454 0.56621 0 0.35631 0.18168 0.56092 0.3563 0.56092 0.15875 0 0.34749-0.17286 0.34749-0.5521 0-0.37394-0.17992-0.57503-0.34925-0.57503zm0.17109 0.25224-0.38629 0.50094c-0.0159-0.06174-0.0247-0.13053-0.0247-0.20814 0-0.28222 0.12876-0.43744 0.23812-0.43744 0.06 0 0.12524 0.04762 0.17286 0.14464zm0.0406 0.11642c0.0159 0.06174 0.0229 0.13582 0.0229 0.22225 0 0.30692-0.13229 0.42333-0.2293 0.42333-0.0653 0-0.13229-0.05292-0.17992-0.14993z"/>
     <path d="m189.66 48.202c0-0.13053-0.10583-0.23636-0.23812-0.23636-0.13053 0-0.23813 0.10583-0.23813 0.23636s0.1076 0.23636 0.23813 0.23636c0.13229 0 0.23812-0.10583 0.23812-0.23636zm-0.23636-0.14288c0.0723 0 0.13229 0.06174 0.13229 0.14111 0 0.07937-0.06 0.14111-0.13229 0.14111-0.0706 0-0.13053-0.06174-0.13053-0.14111 0-0.07937 0.06-0.14111 0.13053-0.14111z"/>
    </g>
    <g transform="rotate(54.591)" opacity=".91" aria-label="120°">
     <path d="m193.09 47.992h-0.0811l-0.28222 0.1464 0.0282 0.06879 0.21872-0.06174v0.85019h-0.20461v0.09701h0.51859v-0.09701h-0.19756z"/>
     <path d="m193.59 48.163 0.09 0.07232c0.0106-0.01588 5e-3 -0.02646 0.0159-0.04057 0.0265-0.04057 0.0917-0.10054 0.18697-0.10054 0.11819 0 0.21167 0.08996 0.21167 0.20814 0 0.13406-0.11289 0.23107-0.19226 0.30339-0.12524 0.11289-0.22754 0.22578-0.31927 0.40746v0.07761h0.64559v-0.12171c-0.0123-0.0053-0.0212 0.0035-0.0247 0.0071-7e-3 0.0071-0.0106 0.0071-0.0176 0.0071h-0.46214c0.0917-0.15875 0.22049-0.26811 0.29987-0.3422 0.0794-0.07585 0.19226-0.18874 0.19226-0.34749 0-0.1711-0.13935-0.30868-0.3175-0.30868-0.12524 0-0.24342 0.06703-0.30868 0.17815z"/>
     <path d="m194.77 47.985c-0.17462 0-0.35454 0.21519-0.35454 0.56621 0 0.35631 0.18168 0.56092 0.3563 0.56092 0.15875 0 0.34749-0.17286 0.34749-0.5521 0-0.37394-0.17992-0.57503-0.34925-0.57503zm0.1711 0.25224-0.38629 0.50094c-0.0159-0.06174-0.0247-0.13053-0.0247-0.20814 0-0.28222 0.12877-0.43744 0.23813-0.43744 0.06 0 0.12523 0.04762 0.17286 0.14464zm0.0406 0.11642c0.0159 0.06174 0.0229 0.13582 0.0229 0.22225 0 0.30692-0.13229 0.42333-0.22931 0.42333-0.0653 0-0.13229-0.05292-0.17991-0.14993z"/>
     <path d="m195.9 48.202c0-0.13053-0.10584-0.23636-0.23813-0.23636-0.13053 0-0.23812 0.10583-0.23812 0.23636s0.10759 0.23636 0.23812 0.23636c0.13229 0 0.23813-0.10583 0.23813-0.23636zm-0.23637-0.14288c0.0723 0 0.1323 0.06174 0.1323 0.14111 0 0.07937-0.06 0.14111-0.1323 0.14111-0.0705 0-0.13052-0.06174-0.13052-0.14111 0-0.07937 0.06-0.14111 0.13052-0.14111z"/>
    </g>
    <g transform="rotate(54.591)" opacity=".91" aria-label="120°">
     <path d="m198.74 47.992h-0.0811l-0.28222 0.1464 0.0282 0.06879 0.21872-0.06174v0.85019h-0.20461v0.09701h0.51859v-0.09701h-0.19756z"/>
     <path d="m199.23 48.163 0.09 0.07232c0.0106-0.01588 5e-3 -0.02646 0.0159-0.04057 0.0265-0.04057 0.0917-0.10054 0.18697-0.10054 0.11818 0 0.21167 0.08996 0.21167 0.20814 0 0.13406-0.11289 0.23107-0.19226 0.30339-0.12524 0.11289-0.22754 0.22578-0.31927 0.40746v0.07761h0.64559v-0.12171c-0.0123-0.0053-0.0212 0.0035-0.0247 0.0071-7e-3 0.0071-0.0106 0.0071-0.0176 0.0071h-0.46214c0.0917-0.15875 0.22049-0.26811 0.29987-0.3422 0.0794-0.07585 0.19226-0.18874 0.19226-0.34749 0-0.1711-0.13935-0.30868-0.3175-0.30868-0.12524 0-0.24342 0.06703-0.30868 0.17815z"/>
     <path d="m200.42 47.985c-0.17462 0-0.35454 0.21519-0.35454 0.56621 0 0.35631 0.18168 0.56092 0.3563 0.56092 0.15875 0 0.34749-0.17286 0.34749-0.5521 0-0.37394-0.17992-0.57503-0.34925-0.57503zm0.1711 0.25224-0.38629 0.50094c-0.0159-0.06174-0.0247-0.13053-0.0247-0.20814 0-0.28222 0.12877-0.43744 0.23813-0.43744 0.06 0 0.12523 0.04762 0.17286 0.14464zm0.0406 0.11642c0.0159 0.06174 0.0229 0.13582 0.0229 0.22225 0 0.30692-0.13229 0.42333-0.22931 0.42333-0.0653 0-0.13229-0.05292-0.17991-0.14993z"/>
     <path d="m201.55 48.202c0-0.13053-0.10584-0.23636-0.23813-0.23636-0.13053 0-0.23812 0.10583-0.23812 0.23636s0.10759 0.23636 0.23812 0.23636c0.13229 0 0.23813-0.10583 0.23813-0.23636zm-0.23637-0.14288c0.0723 0 0.1323 0.06174 0.1323 0.14111 0 0.07937-0.06 0.14111-0.1323 0.14111-0.0706 0-0.13052-0.06174-0.13052-0.14111 0-0.07937 0.06-0.14111 0.13052-0.14111z"/>
    </g>
    <g transform="rotate(54.591)" opacity=".91" aria-label="120°">
     <path d="m204.38 47.992h-0.0811l-0.28222 0.1464 0.0282 0.06879 0.21872-0.06174v0.85019h-0.20461v0.09701h0.51859v-0.09701h-0.19756z"/>
     <path d="m204.87 48.163 0.09 0.07232c0.0106-0.01588 5e-3 -0.02646 0.0159-0.04057 0.0265-0.04057 0.0917-0.10054 0.18697-0.10054 0.11818 0 0.21167 0.08996 0.21167 0.20814 0 0.13406-0.11289 0.23107-0.19226 0.30339-0.12524 0.11289-0.22754 0.22578-0.31927 0.40746v0.07761h0.64559v-0.12171c-0.0123-0.0053-0.0212 0.0035-0.0247 0.0071-7e-3 0.0071-0.0106 0.0071-0.0176 0.0071h-0.46214c0.0917-0.15875 0.22049-0.26811 0.29987-0.3422 0.0794-0.07585 0.19226-0.18874 0.19226-0.34749 0-0.1711-0.13935-0.30868-0.3175-0.30868-0.12524 0-0.24342 0.06703-0.30868 0.17815z"/>
     <path d="m206.06 47.985c-0.17463 0-0.35454 0.21519-0.35454 0.56621 0 0.35631 0.18168 0.56092 0.3563 0.56092 0.15875 0 0.34749-0.17286 0.34749-0.5521 0-0.37394-0.17992-0.57503-0.34925-0.57503zm0.1711 0.25224-0.38629 0.50094c-0.0159-0.06174-0.0247-0.13053-0.0247-0.20814 0-0.28222 0.12876-0.43744 0.23813-0.43744 0.06 0 0.12523 0.04762 0.17286 0.14464zm0.0406 0.11642c0.0159 0.06174 0.0229 0.13582 0.0229 0.22225 0 0.30692-0.13229 0.42333-0.22931 0.42333-0.0653 0-0.13229-0.05292-0.17992-0.14993z"/>
     <path d="m207.19 48.202c0-0.13053-0.10583-0.23636-0.23812-0.23636-0.13053 0-0.23813 0.10583-0.23813 0.23636s0.1076 0.23636 0.23813 0.23636c0.13229 0 0.23812-0.10583 0.23812-0.23636zm-0.23636-0.14288c0.0723 0 0.1323 0.06174 0.1323 0.14111 0 0.07937-0.06 0.14111-0.1323 0.14111-0.0705 0-0.13052-0.06174-0.13052-0.14111 0-0.07937 0.06-0.14111 0.13052-0.14111z"/>
    </g>
    <g transform="rotate(54.591)" opacity=".91" aria-label="180°">
     <path d="m210.03 47.992h-0.0811l-0.28223 0.1464 0.0282 0.06879 0.21872-0.06174v0.85019h-0.20461v0.09701h0.51858v-0.09701h-0.19756z"/>
     <path d="m210.84 47.98c-0.16934 0-0.2981 0.12171-0.2981 0.26988 0 0.1076 0.0688 0.20638 0.16757 0.25753-0.13053 0.06174-0.21872 0.18168-0.21872 0.30868 0 0.16404 0.14464 0.29457 0.33337 0.29457 0.19227 0 0.33867-0.13406 0.33867-0.30162 0-0.13053-0.0882-0.24694-0.21167-0.30515 0.10584-0.05468 0.17463-0.15875 0.17463-0.26458 0-0.14464-0.12524-0.25929-0.28575-0.25929zm-0.037 0.57856c0.14111 0.0441 0.23459 0.14111 0.23459 0.24871 0 0.10583-0.09 0.19226-0.20814 0.19226-0.11994 0-0.21166-0.08996-0.21166-0.19932 0-0.10407 0.0811-0.19932 0.18521-0.24165zm0.0264-0.47625c0.0988 0 0.17639 0.07408 0.17639 0.1658 0 0.08467-0.0653 0.16581-0.15169 0.21167 0 0-0.19403-0.07408-0.19403-0.22049 0-0.08643 0.0741-0.15699 0.16933-0.15699z"/>
     <path d="m211.71 47.985c-0.17462 0-0.35454 0.21519-0.35454 0.56621 0 0.35631 0.18168 0.56092 0.35631 0.56092 0.15875 0 0.34748-0.17286 0.34748-0.5521 0-0.37394-0.17991-0.57503-0.34925-0.57503zm0.1711 0.25224-0.38629 0.50094c-0.0159-0.06174-0.0247-0.13053-0.0247-0.20814 0-0.28222 0.12876-0.43744 0.23812-0.43744 0.06 0 0.12524 0.04762 0.17286 0.14464zm0.0406 0.11642c0.0159 0.06174 0.0229 0.13582 0.0229 0.22225 0 0.30692-0.13229 0.42333-0.2293 0.42333-0.0653 0-0.1323-0.05292-0.17992-0.14993z"/>
     <path d="m212.84 48.202c0-0.13053-0.10583-0.23636-0.23813-0.23636-0.13052 0-0.23812 0.10583-0.23812 0.23636s0.1076 0.23636 0.23812 0.23636c0.1323 0 0.23813-0.10583 0.23813-0.23636zm-0.23636-0.14288c0.0723 0 0.13229 0.06174 0.13229 0.14111 0 0.07937-0.06 0.14111-0.13229 0.14111-0.0706 0-0.13053-0.06174-0.13053-0.14111 0-0.07937 0.06-0.14111 0.13053-0.14111z"/>
    </g>
   </g>
   <g transform="matrix(-.12703 .51987 .51987 .12703 -32.73 -133.29)">
    <path d="m501.47 274.25-1.2053 3.2778-1.2053-3.2778c0.71162 0.52365 1.6852 0.52064 2.4106 0z" fill="#fff" fill-rule="evenodd" stroke="#d54747" stroke-linejoin="round" stroke-width=".1875"/>
   </g>
   <g transform="matrix(-.12703 .51987 .51987 .12703 -22.918 -119.49)">
    <path d="m501.47 274.25-1.2053 3.2778-1.2053-3.2778c0.71162 0.52365 1.6852 0.52064 2.4106 0z" fill="#fff" fill-rule="evenodd" stroke="#d54747" stroke-linejoin="round" stroke-width=".1875"/>
   </g>
   <g transform="matrix(-.12703 .51987 .51987 .12703 -13.107 -105.69)">
    <path d="m501.47 274.25-1.2053 3.2778-1.2053-3.2778c0.71162 0.52365 1.6852 0.52064 2.4106 0z" fill="#fff" fill-rule="evenodd" stroke="#d54747" stroke-linejoin="round" stroke-width=".1875"/>
   </g>
   <g transform="matrix(-.12703 .51987 .51987 .12703 -3.2955 -91.89)">
    <path d="m501.47 274.25-1.2053 3.2778-1.2053-3.2778c0.71162 0.52365 1.6852 0.52064 2.4106 0z" fill="#fff" fill-rule="evenodd" stroke="#d54747" stroke-linejoin="round" stroke-width=".1875"/>
   </g>
  </g>
 </g>
</svg>
