<svg width="73.386mm" height="42.669mm" version="1.1" viewBox="0 0 73.386 42.669" xmlns="http://www.w3.org/2000/svg">
 <g transform="translate(-139.79 -37.086)">
  <g fill="none" stroke="#e9e56f">
   <path d="m180.36 51.682v-3.9572" opacity=".91" stroke-width=".056444"/>
   <rect x="148.73" y="56.985" width="63.372" height="3.9044" opacity=".91" stroke-width=".14111"/>
   <g>
    <g stroke-width=".14111">
     <path d="m153.98 60.916v-3.9572" opacity=".91"/>
     <path d="m159.26 60.916v-3.9572" opacity=".91"/>
     <path d="m164.54 60.916v-3.9572" opacity=".91"/>
     <path d="m169.81 60.916v-3.9572" opacity=".91"/>
     <path d="m175.09 60.916v-3.9572" opacity=".91"/>
     <path d="m180.36 60.916v-3.9572" opacity=".91"/>
    </g>
    <path d="m180.36 70.149v-3.9572" opacity=".91" stroke-width=".056444"/>
   </g>
   <rect x="148.73" y="66.218" width="63.372" height="3.9044" opacity=".91" stroke-width=".14111"/>
   <g stroke-width=".14111">
    <path d="m153.98 70.149v-3.9572" opacity=".91"/>
    <path d="m159.26 70.149v-3.9572" opacity=".91"/>
    <path d="m164.54 70.149v-3.9572" opacity=".91"/>
    <path d="m169.81 70.149v-3.9572" opacity=".91"/>
    <path d="m175.09 70.149v-3.9572" opacity=".91"/>
    <path d="m180.36 70.149v-3.9572" opacity=".91"/>
   </g>
  </g>
  <g fill="#e9e56f">
   <g opacity=".91" stroke-width=".28222px" aria-label="Client A">
    <path d="m141.18 49.236c-0.15993 0-0.39077 0.11707-0.39077 0.52927 0 0.39572 0.22094 0.52433 0.39077 0.52433 0.12202 0 0.23579-0.06431 0.30009-0.16983l-0.0841-0.05441c-0.0478 0.0775-0.13026 0.12366-0.2094 0.12366-0.15169 0-0.28525-0.15664-0.28525-0.43529 0-0.27206 0.13026-0.4254 0.27536-0.4254 0.0791 0 0.15499 0.04782 0.19621 0.12036 3e-3 0.0049 7e-3 0.0099 7e-3 0.01649 0 0.0049-2e-3 0.0082-2e-3 0.01319 0 0.0016 0 0.0099 8e-3 0.01484l0.10882-0.05276c-0.0544-0.12366-0.17807-0.20446-0.31493-0.20446z"/>
    <path d="m141.69 49.177v0.09563h0.21435v0.90521h-0.22424v0.09398h0.56555v-0.09398h-0.22259v-1.0008z"/>
    <path d="m142.55 49.518v0.09728h0.18137v0.56225h-0.19126v0.09398h0.48805v-0.09398h-0.17642v-0.65953zm0.24403-0.32647c-0.0478 0-0.0857 0.03792-0.0857 0.08409s0.0379 0.08409 0.0857 0.08409 0.0857-0.03792 0.0857-0.08409-0.0379-0.08409-0.0857-0.08409z"/>
    <path d="m143.62 49.502c-0.17973 0-0.34626 0.12861-0.34626 0.40231 0 0.25227 0.15664 0.38583 0.3611 0.38583 0.10882 0 0.2061-0.03957 0.2704-0.11707l-0.066-0.0643c-0.0478 0.05606-0.12036 0.08574-0.19456 0.08574-0.10058 0-0.24732-0.05606-0.25557-0.28195h0.53422c5e-3 -0.05111 3e-3 -0.10058-5e-3 -0.14345-0.0346-0.20281-0.17477-0.26711-0.29843-0.26711zm-0.22754 0.31987c0.0247-0.17807 0.1385-0.22919 0.21929-0.22919 0.12202 0 0.2094 0.10717 0.19456 0.22919z"/>
    <path d="m144.13 50.272h0.12037v-0.43364c0-0.04946 7e-3 -0.08739 0.0379-0.12861 0.028-0.03792 0.10058-0.10552 0.17972-0.10552 0.0379 0 0.0759 0.01649 0.10223 0.04782 0.0412 0.04946 0.0412 0.11377 0.0412 0.16653v0.45343h0.11707v-0.45673c0-0.05771 0-0.12036-0.0264-0.18137-0.0379-0.08409-0.11542-0.13191-0.20116-0.13191-0.10223 0-0.19456 0.06595-0.25062 0.15004v-0.13191h-0.12037z"/>
    <path d="m145.16 49.317-0.0148 0.20281h-0.17973l-2e-3 0.09728h0.17642c-0.01 0.12861-0.0148 0.25722-0.0148 0.38418 0 0.0676 0 0.14345 0.0445 0.2061 0.0363 0.04946 0.094 0.07914 0.17148 0.07914 0.089 0 0.17642-0.03792 0.24073-0.08409l-0.0363-0.09398c-0.0643 0.04782-0.12366 0.06925-0.16983 0.06925-0.0561 0-0.11377-0.03133-0.12696-0.12201 0-0.0066-5e-3 -0.03462-5e-3 -0.1451 0-0.09728 5e-3 -0.19621 0.0148-0.29349h0.24732v-0.09893h-0.24567s0.0115-0.1352 0.0198-0.17807c2e-3 -0.01649 0.0148-0.02638 8e-3 -0.04452z"/>
    <path d="m146.52 50.274h0.11377l0.10058-0.30174h0.32481l0.11377 0.30009h0.12037l-0.39737-1.0454h-0.0132zm0.51443-0.39077h-0.27865l0.13356-0.39077z"/>
   </g>
   <g opacity=".91" stroke-width=".28222px" aria-label="Server">
    <path d="m143.24 58.602c-0.0693-0.08409-0.17148-0.12861-0.2836-0.12861-0.18632 0-0.31328 0.12201-0.31328 0.26381 0 0.05936 0.0231 0.13685 0.10883 0.19951 0.0956 0.0709 0.24402 0.10552 0.32152 0.15499 0.0676 0.04122 0.0857 0.09563 0.0857 0.1418 0 0.08904-0.0759 0.18632-0.22424 0.18632-0.11213 0-0.19951-0.05606-0.24568-0.11377-5e-3 -0.0066-5e-3 -0.0099-5e-3 -0.01649 0-0.0033 0-0.01319-7e-3 -0.01649l-0.0693 0.11872c0.0808 0.08739 0.19621 0.13191 0.32317 0.13191 0.25062 0 0.34295-0.16818 0.34295-0.29679 0-0.05441-0.0165-0.12531-0.0808-0.18632-0.089-0.08409-0.23413-0.11377-0.32812-0.16818-0.0857-0.05111-0.10387-0.11212-0.10387-0.15334 0-0.07914 0.0676-0.15004 0.18467-0.15004 0.0956 0 0.16983 0.04287 0.2094 0.10058 5e-3 0.0066 3e-3 0.0099 3e-3 0.01649 0 0.0099 5e-3 0.01319 8e-3 0.01319z"/>
    <path d="m143.77 58.735c-0.17972 0-0.34626 0.12861-0.34626 0.40231 0 0.25227 0.15664 0.38583 0.3611 0.38583 0.10882 0 0.2061-0.03957 0.27041-0.11707l-0.066-0.0643c-0.0478 0.05606-0.12036 0.08574-0.19456 0.08574-0.10058 0-0.24732-0.05606-0.25557-0.28195h0.53422c5e-3 -0.05111 3e-3 -0.10058-5e-3 -0.14345-0.0346-0.20281-0.17478-0.26711-0.29844-0.26711zm-0.22754 0.31987c0.0247-0.17807 0.1385-0.22919 0.21929-0.22919 0.12202 0 0.20941 0.10717 0.19457 0.22919z"/>
    <path d="m144.34 58.753v0.75351h0.11871v-0.36604c0-0.04617 2e-3 -0.09563 0.0528-0.17642 0.0693-0.10882 0.15828-0.12696 0.2127-0.12696 0.0626 0 0.10222 0.02968 0.12366 0.05606 0.01 0.01319 0.0148 0.02638 0.028 0.03792l0.0561-0.11377c-0.0478-0.04946-0.11707-0.08244-0.20116-0.08244-0.11047 0-0.22259 0.05606-0.27206 0.16323l5e-3 -0.1451z"/>
    <path d="m145.06 58.752 0.29844 0.76011h0.094l0.18302-0.43034c0.0445-0.10552 0.0874-0.21435 0.11212-0.32976h-0.10717c-0.0198 0.11047-0.0594 0.21435-0.10223 0.31328l-0.12036 0.2803-0.21765-0.55071c-2e-3 -0.0033-3e-3 -0.0066-3e-3 -0.0099 0-0.0099 8e-3 -0.01979 5e-3 -0.03298z"/>
    <path d="m146.25 58.735c-0.17972 0-0.34625 0.12861-0.34625 0.40231 0 0.25227 0.15663 0.38583 0.36109 0.38583 0.10882 0 0.2061-0.03957 0.27041-0.11707l-0.066-0.0643c-0.0478 0.05606-0.12036 0.08574-0.19456 0.08574-0.10058 0-0.24732-0.05606-0.25557-0.28195h0.53422c5e-3 -0.05111 3e-3 -0.10058-5e-3 -0.14345-0.0346-0.20281-0.17478-0.26711-0.29844-0.26711zm-0.22754 0.31987c0.0247-0.17807 0.1385-0.22919 0.2193-0.22919 0.12201 0 0.2094 0.10717 0.19456 0.22919z"/>
    <path d="m146.81 58.753v0.75351h0.11872v-0.36604c0-0.04617 2e-3 -0.09563 0.0528-0.17642 0.0693-0.10882 0.15829-0.12696 0.2127-0.12696 0.0626 0 0.10222 0.02968 0.12366 0.05606 0.01 0.01319 0.0148 0.02638 0.028 0.03792l0.0561-0.11377c-0.0478-0.04946-0.11707-0.08244-0.20116-0.08244-0.11047 0-0.22259 0.05606-0.27205 0.16323l5e-3 -0.1451z"/>
   </g>
   <g opacity=".91" stroke-width=".28222px" aria-label="Client B">
    <path d="m141.32 67.703c-0.15994 0-0.39077 0.11707-0.39077 0.52927 0 0.39572 0.22094 0.52433 0.39077 0.52433 0.12201 0 0.23578-0.0643 0.30009-0.16983l-0.0841-0.05441c-0.0478 0.07749-0.13026 0.12366-0.2094 0.12366-0.1517 0-0.28525-0.15664-0.28525-0.43529 0-0.27206 0.13026-0.4254 0.27535-0.4254 0.0791 0 0.15499 0.04782 0.19621 0.12036 3e-3 0.0049 7e-3 0.0099 7e-3 0.01649 0 0.0049-2e-3 0.0082-2e-3 0.01319 0 0.0016 0 0.0099 8e-3 0.01484l0.10883-0.05276c-0.0544-0.12366-0.17808-0.20445-0.31493-0.20445z"/>
    <path d="m141.83 67.644v0.09563h0.21435v0.90521h-0.22424v0.09398h0.56555v-0.09398h-0.2226v-1.0008z"/>
    <path d="m142.69 67.985v0.09728h0.18137v0.56225h-0.19126v0.09398h0.48805v-0.09398h-0.17643v-0.65953zm0.24403-0.32647c-0.0478 0-0.0857 0.03792-0.0857 0.08409s0.0379 0.08409 0.0857 0.08409 0.0857-0.03792 0.0857-0.08409-0.0379-0.08409-0.0857-0.08409z"/>
    <path d="m143.76 67.969c-0.17972 0-0.34625 0.12861-0.34625 0.40231 0 0.25227 0.15664 0.38583 0.36109 0.38583 0.10883 0 0.20611-0.03957 0.27041-0.11707l-0.0659-0.06431c-0.0478 0.05606-0.12037 0.08574-0.19456 0.08574-0.10058 0-0.24733-0.05606-0.25557-0.28195h0.53422c5e-3 -0.05111 3e-3 -0.10058-5e-3 -0.14345-0.0346-0.20281-0.17477-0.26711-0.29844-0.26711zm-0.22753 0.31987c0.0247-0.17807 0.1385-0.22919 0.21929-0.22919 0.12201 0 0.2094 0.10717 0.19456 0.22919z"/>
    <path d="m144.27 68.739h0.12037v-0.43364c0-0.04946 7e-3 -0.08739 0.0379-0.12861 0.028-0.03792 0.10058-0.10552 0.17972-0.10552 0.0379 0 0.0759 0.01649 0.10223 0.04782 0.0412 0.04946 0.0412 0.11377 0.0412 0.16653v0.45343h0.11707v-0.45672c0-0.05771 0-0.12036-0.0264-0.18137-0.0379-0.08409-0.11541-0.13191-0.20115-0.13191-0.10223 0-0.19456 0.06595-0.25062 0.15004v-0.13191h-0.12037z"/>
    <path d="m145.3 67.784-0.0148 0.20281h-0.17973l-2e-3 0.09728h0.17643c-0.01 0.12861-0.0148 0.25722-0.0148 0.38418 0 0.0676 0 0.14345 0.0445 0.2061 0.0363 0.04946 0.094 0.07914 0.17148 0.07914 0.089 0 0.17642-0.03792 0.24072-0.08409l-0.0363-0.09398c-0.0643 0.04782-0.12366 0.06925-0.16983 0.06925-0.0561 0-0.11377-0.03133-0.12696-0.12201 0-0.0066-5e-3 -0.03463-5e-3 -0.1451 0-0.09728 5e-3 -0.19621 0.0148-0.29349h0.24733v-0.09893h-0.24568s0.0115-0.1352 0.0198-0.17807c2e-3 -0.01649 0.0148-0.02638 8e-3 -0.04452z"/>
    <path d="m146.71 67.712v1.0272h0.29019c0.0693 0 0.14015 0 0.21105-0.02968 0.11047-0.04782 0.17148-0.1484 0.17148-0.25392 0-0.12036-0.0775-0.22754-0.19127-0.26546 0.0907-0.03792 0.1517-0.12861 0.1517-0.22589 0-0.09233-0.0528-0.18137-0.15005-0.22259-0.0643-0.02803-0.12861-0.02968-0.19126-0.02968zm0.11377 0.09893h0.16158c0.0445 0 0.0907 0 0.13685 0.01814 0.0676 0.02803 0.10388 0.08574 0.10388 0.1451 0 0.05936-0.0346 0.11542-0.0989 0.14345-0.0478 0.01979-0.0973 0.01979-0.14345 0.01979h-0.15993zm0 0.42375h0.16818c0.0511 0 0.10222 0.0016 0.15334 0.02638 0.0758 0.03463 0.11706 0.10882 0.11706 0.18302 0 0.0742-0.0396 0.1418-0.11047 0.17478-0.0445 0.01979-0.0874 0.01979-0.1319 0.01979h-0.19621z"/>
   </g>
   <g transform="rotate(-54.591)" opacity=".91" stroke-width=".28222px" aria-label="Initial state">
    <path d="m49.565 149.73v0.0973h0.18962v0.83595h-0.20116v0.0956h0.53092v-0.094h-0.21435v-0.8376h0.20281v-0.0973z"/>
    <path d="m50.356 150.75h0.12036v-0.43364c0-0.0495 0.0066-0.0874 0.03792-0.12861 0.02803-0.0379 0.10058-0.10553 0.17972-0.10553 0.03792 0 0.07585 0.0165 0.10223 0.0478 0.04122 0.0495 0.04122 0.11377 0.04122 0.16653v0.45343h0.11707v-0.45673c0-0.0577 0-0.12036-0.02638-0.18137-0.03792-0.0841-0.11542-0.13191-0.20116-0.13191-0.10223 0-0.19456 0.066-0.25062 0.15005v-0.13191h-0.12036z"/>
    <path d="m51.243 150v0.0973h0.18137v0.56225h-0.19126v0.094h0.48805v-0.094h-0.17642v-0.65953zm0.24403-0.32647c-0.04782 0-0.08574 0.0379-0.08574 0.0841s0.03792 0.0841 0.08574 0.0841 0.08574-0.0379 0.08574-0.0841-0.03792-0.0841-0.08574-0.0841z"/>
    <path d="m52.203 149.8-0.01484 0.2028h-0.17972l-0.0016 0.0973h0.17642c-0.0099 0.12861-0.01484 0.25722-0.01484 0.38418 0 0.0676 0 0.14345 0.04452 0.2061 0.03627 0.0495 0.09398 0.0791 0.17148 0.0791 0.08904 0 0.17642-0.0379 0.24073-0.0841l-0.03628-0.094c-0.0643 0.0478-0.12366 0.0693-0.16983 0.0693-0.05606 0-0.11377-0.0313-0.12696-0.12201 0-7e-3 -0.0049-0.0346-0.0049-0.1451 0-0.0973 0.0049-0.19621 0.01484-0.29349h0.24732v-0.0989h-0.24568s0.01154-0.1352 0.01979-0.17807c0.0016-0.0165 0.01484-0.0264 0.0082-0.0445z"/>
    <path d="m52.892 150v0.0973h0.18137v0.56225h-0.19126v0.094h0.48805v-0.094h-0.17642v-0.65953zm0.24403-0.32647c-0.04782 0-0.08574 0.0379-0.08574 0.0841s0.03792 0.0841 0.08574 0.0841 0.08574-0.0379 0.08574-0.0841-0.03792-0.0841-0.08574-0.0841z"/>
    <path d="m53.69 150.09 0.05771 0.0759c0.06266-0.0643 0.14675-0.0841 0.21764-0.0841 0.08904 0 0.13356 0.0379 0.15499 0.0725 0.02473 0.0412 0.02308 0.0907 0.02308 0.13026v0.0264h-0.02308c-0.11212 0-0.23084 0-0.32647 0.0346-0.11872 0.0429-0.17148 0.1319-0.17148 0.21435 0 0.11047 0.09563 0.21434 0.25227 0.21434 0.09233 0 0.18797-0.0346 0.27041-0.10222v0.0824h0.11212v-0.46662c0-0.061-0.0016-0.11872-0.03627-0.17807-0.04946-0.0808-0.1451-0.12367-0.26216-0.12367-0.10058 0-0.19786 0.0313-0.26876 0.10388zm0.45837 0.31163v0.0511c0 0.0379 0 0.0874-0.05111 0.1418-0.02803 0.028-0.09893 0.089-0.19786 0.089-0.10058 0-0.15829-0.0643-0.15829-0.13026 0-0.0561 0.03792-0.11707 0.13191-0.14015 0.06925-0.0165 0.16983-0.0115 0.24897-0.0115z"/>
    <path d="m54.505 149.66v0.0956h0.21435v0.9052h-0.22424v0.094h0.56555v-0.094h-0.22259v-1.0008z"/>
    <path d="m56.727 150.1c-0.06925-0.0759-0.16983-0.11707-0.28195-0.11707-0.17478 0-0.28854 0.0973-0.28854 0.20941 0 0.1319 0.1418 0.17972 0.18302 0.19456 0.0643 0.0231 0.14675 0.0429 0.20281 0.0693 0.06265 0.0297 0.0742 0.0692 0.0742 0.0956 0 0.0709-0.08574 0.11872-0.19291 0.11872-0.12861 0-0.21105-0.0775-0.23578-0.10388-0.0049-7e-3 -0.0049-0.0115-0.0049-0.0181 0-2e-3 0.0016-0.0115-0.0066-0.0148l-0.06925 0.11707c0.08904 0.0824 0.20446 0.12036 0.31822 0.12036 0.2061 0 0.31328-0.12201 0.31328-0.23578 0-0.0511-0.02143-0.12036-0.11047-0.16983-0.08409-0.0478-0.2061-0.0643-0.277-0.0989-0.06101-0.0297-0.0742-0.0659-0.0742-0.0923 0-0.0594 0.0742-0.10223 0.15829-0.10223 0.10882 0 0.18137 0.066 0.2094 0.10388 0.0049 5e-3 0.0033 0.01 0.0033 0.0148 0 0.01 0.0066 0.0132 0.0099 0.0132z"/>
    <path d="m57.15 149.8-0.01484 0.2028h-0.17972l-0.0016 0.0973h0.17642c-0.0099 0.12861-0.01484 0.25722-0.01484 0.38418 0 0.0676 0 0.14345 0.04452 0.2061 0.03627 0.0495 0.09398 0.0791 0.17148 0.0791 0.08904 0 0.17642-0.0379 0.24073-0.0841l-0.03627-0.094c-0.0643 0.0478-0.12366 0.0693-0.16983 0.0693-0.05606 0-0.11377-0.0313-0.12696-0.12201 0-7e-3 -0.0049-0.0346-0.0049-0.1451 0-0.0973 0.0049-0.19621 0.01484-0.29349h0.24732v-0.0989h-0.24568s0.01154-0.1352 0.01979-0.17807c0.0016-0.0165 0.01484-0.0264 0.0082-0.0445z"/>
    <path d="m57.812 150.09 0.05771 0.0759c0.06266-0.0643 0.14675-0.0841 0.21764-0.0841 0.08904 0 0.13356 0.0379 0.15499 0.0725 0.02473 0.0412 0.02308 0.0907 0.02308 0.13026v0.0264h-0.02308c-0.11212 0-0.23084 0-0.32647 0.0346-0.11872 0.0429-0.17148 0.1319-0.17148 0.21435 0 0.11047 0.09563 0.21434 0.25227 0.21434 0.09233 0 0.18797-0.0346 0.27041-0.10222v0.0824h0.11212v-0.46662c0-0.061-0.0016-0.11872-0.03627-0.17807-0.04946-0.0808-0.1451-0.12367-0.26216-0.12367-0.10058 0-0.19786 0.0313-0.26876 0.10388zm0.45837 0.31163v0.0511c0 0.0379 0 0.0874-0.05111 0.1418-0.02803 0.028-0.09893 0.089-0.19786 0.089-0.10058 0-0.15829-0.0643-0.15829-0.13026 0-0.0561 0.03792-0.11707 0.13191-0.14015 0.06925-0.0165 0.16983-0.0115 0.24897-0.0115z"/>
    <path d="m58.798 149.8-0.01484 0.2028h-0.17972l-0.0016 0.0973h0.17642c-0.0099 0.12861-0.01484 0.25722-0.01484 0.38418 0 0.0676 0 0.14345 0.04452 0.2061 0.03628 0.0495 0.09398 0.0791 0.17148 0.0791 0.08904 0 0.17642-0.0379 0.24073-0.0841l-0.03627-0.094c-0.0643 0.0478-0.12366 0.0693-0.16983 0.0693-0.05606 0-0.11377-0.0313-0.12696-0.12201 0-7e-3 -0.0049-0.0346-0.0049-0.1451 0-0.0973 0.0049-0.19621 0.01484-0.29349h0.24732v-0.0989h-0.24568s0.01154-0.1352 0.01979-0.17807c0.0016-0.0165 0.01484-0.0264 0.0082-0.0445z"/>
    <path d="m59.738 149.98c-0.17972 0-0.34625 0.12861-0.34625 0.40232 0 0.25227 0.15664 0.38582 0.36109 0.38582 0.10882 0 0.2061-0.0396 0.27041-0.11706l-0.06595-0.0643c-0.04782 0.0561-0.12036 0.0857-0.19456 0.0857-0.10058 0-0.24732-0.0561-0.25557-0.28195h0.53422c0.0049-0.0511 0.0033-0.10058-0.0049-0.14345-0.03462-0.2028-0.17478-0.26711-0.29844-0.26711zm-0.22754 0.31988c0.02473-0.17808 0.1385-0.22919 0.21929-0.22919 0.12201 0 0.2094 0.10717 0.19456 0.22919z"/>
   </g>
   <g opacity=".91" stroke-width=".28222px" aria-label="Time">
    <path d="m144.23 77.473v0.10388h0.29019v0.92499h0.11707v-0.92499h0.30338v-0.10388z"/>
    <path d="m145.18 77.746v0.09728h0.18137v0.56225h-0.19126v0.09398h0.48805v-0.09398h-0.17642v-0.65953zm0.24403-0.32647c-0.0478 0-0.0857 0.03792-0.0857 0.08409s0.0379 0.08409 0.0857 0.08409 0.0857-0.03792 0.0857-0.08409-0.0379-0.08409-0.0857-0.08409z"/>
    <path d="m145.89 78.5h0.10882v-0.50124c0-0.03627 3e-3 -0.06925 0.0247-0.10882 0.0264-0.04946 0.0594-0.06925 0.0907-0.06925 0.0264 0 0.0561 0.01649 0.0692 0.05771 0.01 0.03133 8e-3 0.0676 8e-3 0.09893v0.52268h0.11047v-0.49795c0-0.03957 3e-3 -0.0709 0.0313-0.11872 0.0132-0.01979 0.0412-0.0676 0.0874-0.0676 0.0247 0 0.0478 0.01484 0.0594 0.04287 0.0148 0.03133 0.0115 0.0742 0.0115 0.10882v0.53422h0.11212v-0.53587c0-0.06266 2e-3 -0.12531-0.0313-0.17642-0.028-0.04287-0.0758-0.05936-0.11707-0.05936-0.0725 0-0.14015 0.04287-0.16982 0.10882-0.0115-0.06265-0.0643-0.10882-0.13191-0.10882-0.0627 0-0.12037 0.03957-0.15499 0.09233l2e-3 -0.0742h-0.11047z"/>
    <path d="m147.08 77.73c-0.17972 0-0.34625 0.12861-0.34625 0.40231 0 0.25227 0.15664 0.38583 0.36109 0.38583 0.10882 0 0.2061-0.03957 0.27041-0.11707l-0.066-0.0643c-0.0478 0.05606-0.12037 0.08574-0.19457 0.08574-0.10057 0-0.24732-0.05606-0.25556-0.28195h0.53422c5e-3 -0.05111 3e-3 -0.10058-5e-3 -0.14345-0.0346-0.20281-0.17478-0.26711-0.29844-0.26711zm-0.22754 0.31987c0.0247-0.17807 0.1385-0.22919 0.2193-0.22919 0.12201 0 0.2094 0.10717 0.19456 0.22919z"/>
   </g>
  </g>
  <g fill="none" stroke="#d54747" stroke-width=".26458">
   <path d="m148.71 78.064h63.428" opacity=".91"/>
   <path d="m148.71 78.755v-1.3858" opacity=".91"/>
   <path d="m153.98 78.755v-1.3858" opacity=".91"/>
   <path d="m159.26 78.755v-1.3858" opacity=".91"/>
   <path d="m164.53 78.755v-1.3858" opacity=".91"/>
   <path d="m169.81 78.755v-1.3858" opacity=".91"/>
   <path d="m175.09 78.755v-1.3858" opacity=".91"/>
   <path d="m180.36 78.755v-1.3858" opacity=".91"/>
   <path d="m185.64 78.755v-1.3858" opacity=".91"/>
  </g>
  <g fill="#e9e56f" stroke-width=".28222px">
   <g transform="rotate(-54.591)" opacity=".91" aria-label="Change 1">
    <path d="m52.934 154.02c-0.15994 0-0.39077 0.11706-0.39077 0.52927 0 0.39572 0.22094 0.52433 0.39077 0.52433 0.12201 0 0.23578-0.0643 0.30009-0.16983l-0.08409-0.0544c-0.04782 0.0775-0.13026 0.12366-0.2094 0.12366-0.15169 0-0.28525-0.15664-0.28525-0.43529 0-0.27206 0.13026-0.4254 0.27535-0.4254 0.07914 0 0.15499 0.0478 0.19621 0.12037 0.0033 5e-3 0.0066 0.01 0.0066 0.0165 0 5e-3 -0.0016 8e-3 -0.0016 0.0132 0 2e-3 0 0.01 0.0082 0.0148l0.10882-0.0528c-0.05441-0.12366-0.17807-0.20445-0.31493-0.20445z"/>
    <path d="m53.415 155.05h0.12201v-0.43364c0-0.0495 0.0049-0.0874 0.03627-0.12861 0.02968-0.0379 0.10223-0.10552 0.18137-0.10552 0.03792 0 0.07585 0.0165 0.10223 0.0478 0.04122 0.0495 0.04122 0.11377 0.04122 0.16653v0.45343h0.11707v-0.45672c0-0.0577-0.0016-0.12037-0.02803-0.18138-0.03792-0.0841-0.11377-0.1319-0.19951-0.1319-0.10223 0-0.19621 0.066-0.25062 0.15004v-0.43694c0-5e-3 0-0.01 0.0049-0.0148 0.0049-5e-3 0.01154-0.01 0.01154-0.0181 0-2e-3 0-3e-3 -0.0016-5e-3h-0.13685z"/>
    <path d="m54.274 154.39 0.05771 0.0759c0.06265-0.0643 0.14674-0.0841 0.21764-0.0841 0.08904 0 0.13356 0.0379 0.15499 0.0726 0.02473 0.0412 0.02308 0.0907 0.02308 0.13025v0.0264h-0.02308c-0.11212 0-0.23084 0-0.32647 0.0346-0.11872 0.0429-0.17148 0.13191-0.17148 0.21435 0 0.11047 0.09563 0.21435 0.25227 0.21435 0.09233 0 0.18797-0.0346 0.27041-0.10223v0.0824h0.11212v-0.46662c0-0.061-0.0016-0.11871-0.03627-0.17807-0.04946-0.0808-0.1451-0.12366-0.26216-0.12366-0.10058 0-0.19786 0.0313-0.26876 0.10387zm0.45837 0.31163v0.0511c0 0.0379 0 0.0874-0.05111 0.1418-0.02803 0.028-0.09893 0.089-0.19786 0.089-0.10058 0-0.15829-0.0643-0.15829-0.13026 0-0.0561 0.03792-0.11706 0.13191-0.14015 0.06925-0.0165 0.16983-0.0115 0.24897-0.0115z"/>
    <path d="m55.062 155.05h0.12036v-0.43364c0-0.0495 0.0066-0.0874 0.03792-0.12861 0.02803-0.0379 0.10058-0.10552 0.17972-0.10552 0.03792 0 0.07585 0.0165 0.10223 0.0478 0.04122 0.0495 0.04122 0.11377 0.04122 0.16653v0.45343h0.11707v-0.45672c0-0.0577 0-0.12037-0.02638-0.18138-0.03792-0.0841-0.11542-0.1319-0.20116-0.1319-0.10223 0-0.19456 0.066-0.25062 0.15004v-0.13191h-0.12036z"/>
    <path d="m55.981 154.54c0-0.0907 0.07585-0.16488 0.16653-0.16488 0.09233 0 0.16653 0.0742 0.16653 0.16488 0 0.0907-0.0742 0.16488-0.16653 0.16488-0.09233 0-0.16653-0.0742-0.16653-0.16488zm0.17313-0.25887c-0.15004 0-0.2803 0.11872-0.2803 0.26546 0 0.0825 0.04122 0.15994 0.11047 0.20446-0.05441 0.0462-0.08574 0.0973-0.08574 0.1451 0 0.0313 0.01319 0.0758 0.06101 0.10057-0.08079 0.0511-0.12201 0.10718-0.12201 0.16654 0 0.0824 0.07585 0.17972 0.33966 0.17972 0.25557 0 0.3479-0.13026 0.3479-0.23084 0-0.0659-0.03792-0.1319-0.11707-0.16323-0.07914-0.033-0.16983-0.0214-0.25557-0.0214-0.05606 0-0.09233-5e-3 -0.10717-0.01-0.02968-8e-3 -0.04617-0.0264-0.04617-0.0495 0-0.0396 0.04617-0.0775 0.05441-0.0841 0.02968 0.0115 0.06266 0.0165 0.09563 0.0165 0.1484 0 0.27041-0.11871 0.27041-0.25721 0-0.0462-0.01319-0.0907-0.03792-0.12861 0.03957-0.0231 0.08574-0.0363 0.13191-0.0363 0.01484 0 0.02803 2e-3 0.04287 5e-3l-0.01319-0.0973c-0.07585-7e-3 -0.15169 0.0181-0.2094 0.0659-0.04782-0.0462-0.11047-0.0709-0.17972-0.0709zm-0.11377 0.73703c0.02803 3e-3 0.0676 7e-3 0.12531 0.01 0.05606 2e-3 0.11707-3e-3 0.15994 3e-3 0.06925 0.0115 0.09069 0.0544 0.09069 0.0874s-0.01979 0.0725-0.0709 0.10058c-0.05606 0.0297-0.11872 0.033-0.16983 0.033-0.03463 0-0.09893-2e-3 -0.15499-0.0247-0.06101-0.0247-0.0742-0.0659-0.0742-0.0923 0-0.0544 0.05111-0.094 0.09398-0.11707z"/>
    <path d="m57.024 154.28c-0.17972 0-0.34625 0.12861-0.34625 0.40231 0 0.25227 0.15664 0.38583 0.36109 0.38583 0.10882 0 0.2061-0.0396 0.27041-0.11707l-0.06595-0.0643c-0.04782 0.0561-0.12036 0.0857-0.19456 0.0857-0.10058 0-0.24732-0.0561-0.25557-0.28195h0.53422c0.0049-0.0511 0.0033-0.10058-0.0049-0.14345-0.03463-0.20281-0.17478-0.26711-0.29844-0.26711zm-0.22754 0.31987c0.02473-0.17807 0.1385-0.22919 0.21929-0.22919 0.12201 0 0.2094 0.10718 0.19456 0.22919z"/>
    <path d="m58.738 154.03h-0.07585l-0.26381 0.13685 0.02638 0.0643 0.20445-0.0577v0.79473h-0.19126v0.0907h0.48476v-0.0907h-0.18467z"/>
   </g>
   <g transform="rotate(-54.591)" opacity=".91" aria-label="Change 2">
    <path d="m62.105 166.92c-0.15994 0-0.39077 0.11707-0.39077 0.52928 0 0.39571 0.22094 0.52432 0.39077 0.52432 0.12201 0 0.23578-0.0643 0.30009-0.16983l-0.08409-0.0544c-0.04782 0.0775-0.13026 0.12366-0.2094 0.12366-0.15169 0-0.28525-0.15663-0.28525-0.43529 0-0.27205 0.13026-0.42539 0.27536-0.42539 0.07914 0 0.15499 0.0478 0.19621 0.12036 0.0033 5e-3 0.0066 0.01 0.0066 0.0165 0 5e-3 -0.0016 8e-3 -0.0016 0.0132 0 2e-3 0 0.01 0.0082 0.0148l0.10882-0.0528c-0.05441-0.12367-0.17807-0.20446-0.31493-0.20446z"/>
    <path d="m62.586 167.96h0.12201v-0.43365c0-0.0495 0.0049-0.0874 0.03627-0.1286 0.02968-0.0379 0.10223-0.10553 0.18137-0.10553 0.03792 0 0.07585 0.0165 0.10223 0.0478 0.04122 0.0495 0.04122 0.11377 0.04122 0.16653v0.45343h0.11707v-0.45673c0-0.0577-0.0016-0.12036-0.02803-0.18137-0.03792-0.0841-0.11377-0.13191-0.19951-0.13191-0.10223 0-0.19621 0.066-0.25062 0.15005v-0.43694c0-5e-3 0-0.01 0.0049-0.0148 0.0049-5e-3 0.01154-0.01 0.01154-0.0181 0-2e-3 0-3e-3 -0.0016-5e-3h-0.13685z"/>
    <path d="m63.446 167.29 0.05771 0.0758c0.06266-0.0643 0.14675-0.0841 0.21764-0.0841 0.08904 0 0.13356 0.0379 0.15499 0.0726 0.02473 0.0412 0.02308 0.0907 0.02308 0.13026v0.0264h-0.02308c-0.11212 0-0.23084 0-0.32647 0.0346-0.11872 0.0429-0.17148 0.1319-0.17148 0.21434 0 0.11048 0.09563 0.21435 0.25227 0.21435 0.09233 0 0.18797-0.0346 0.27041-0.10223v0.0824h0.11212v-0.46662c0-0.061-0.0016-0.11872-0.03627-0.17808-0.04946-0.0808-0.1451-0.12366-0.26216-0.12366-0.10058 0-0.19786 0.0313-0.26876 0.10388zm0.45837 0.31163v0.0511c0 0.0379 0 0.0874-0.05111 0.1418-0.02803 0.028-0.09893 0.089-0.19786 0.089-0.10058 0-0.15829-0.0643-0.15829-0.13026 0-0.0561 0.03792-0.11707 0.13191-0.14015 0.06925-0.0165 0.16983-0.0115 0.24897-0.0115z"/>
    <path d="m64.234 167.96h0.12036v-0.43365c0-0.0495 0.0066-0.0874 0.03792-0.1286 0.02803-0.0379 0.10058-0.10553 0.17972-0.10553 0.03792 0 0.07585 0.0165 0.10223 0.0478 0.04122 0.0495 0.04122 0.11377 0.04122 0.16653v0.45343h0.11707v-0.45673c0-0.0577 0-0.12036-0.02638-0.18137-0.03792-0.0841-0.11542-0.13191-0.20116-0.13191-0.10223 0-0.19456 0.066-0.25062 0.15005v-0.13191h-0.12036z"/>
    <path d="m65.152 167.44c0-0.0907 0.07585-0.16488 0.16653-0.16488 0.09233 0 0.16653 0.0742 0.16653 0.16488 0 0.0907-0.0742 0.16489-0.16653 0.16489-0.09233 0-0.16653-0.0742-0.16653-0.16489zm0.17313-0.25886c-0.15004 0-0.2803 0.11871-0.2803 0.26546 0 0.0824 0.04122 0.15994 0.11047 0.20445-0.05441 0.0462-0.08574 0.0973-0.08574 0.1451 0 0.0313 0.01319 0.0759 0.06101 0.10058-0.08079 0.0511-0.12201 0.10717-0.12201 0.16653 0 0.0824 0.07585 0.17972 0.33966 0.17972 0.25557 0 0.3479-0.13025 0.3479-0.23083 0-0.066-0.03792-0.13191-0.11707-0.16324-0.07914-0.033-0.16983-0.0214-0.25557-0.0214-0.05606 0-0.09234-5e-3 -0.10717-0.01-0.02968-8e-3 -0.04617-0.0264-0.04617-0.0495 0-0.0396 0.04617-0.0775 0.05441-0.0841 0.02968 0.0115 0.06266 0.0165 0.09563 0.0165 0.1484 0 0.27041-0.11872 0.27041-0.25722 0-0.0462-0.01319-0.0907-0.03792-0.12861 0.03957-0.0231 0.08574-0.0363 0.13191-0.0363 0.01484 0 0.02803 2e-3 0.04287 5e-3l-0.01319-0.0973c-0.07585-7e-3 -0.15169 0.0181-0.2094 0.066-0.04782-0.0462-0.11047-0.0709-0.17972-0.0709zm-0.11377 0.73702c0.02803 3e-3 0.0676 7e-3 0.12531 0.01 0.05606 2e-3 0.11707-3e-3 0.15994 3e-3 0.06925 0.0116 0.09068 0.0544 0.09068 0.0874s-0.01979 0.0725-0.0709 0.10058c-0.05606 0.0297-0.11872 0.033-0.16983 0.033-0.03463 0-0.09893-2e-3 -0.15499-0.0247-0.06101-0.0247-0.0742-0.066-0.0742-0.0923 0-0.0544 0.05111-0.094 0.09398-0.11707z"/>
    <path d="m66.196 167.19c-0.17972 0-0.34625 0.12861-0.34625 0.40232 0 0.25227 0.15664 0.38582 0.36109 0.38582 0.10882 0 0.2061-0.0396 0.27041-0.11706l-0.06595-0.0643c-0.04782 0.0561-0.12036 0.0857-0.19456 0.0857-0.10058 0-0.24732-0.0561-0.25557-0.28195h0.53422c0.0049-0.0511 0.0033-0.10058-0.0049-0.14345-0.03463-0.2028-0.17478-0.26711-0.29844-0.26711zm-0.22754 0.31988c0.02473-0.17808 0.1385-0.22919 0.21929-0.22919 0.12201 0 0.2094 0.10717 0.19456 0.22919z"/>
    <path d="m67.546 167.09 0.08409 0.0676c0.0099-0.0148 0.0049-0.0247 0.01484-0.0379 0.02473-0.0379 0.08574-0.094 0.17478-0.094 0.11047 0 0.19786 0.0841 0.19786 0.19456 0 0.12531-0.10552 0.216-0.17972 0.2836-0.11707 0.10552-0.2127 0.21105-0.29844 0.38088v0.0726h0.60347v-0.11377c-0.01154-5e-3 -0.01979 3e-3 -0.02308 7e-3 -0.0066 7e-3 -0.0099 7e-3 -0.01649 7e-3h-0.43199c0.08574-0.1484 0.2061-0.25062 0.2803-0.31988 0.0742-0.0709 0.17972-0.17642 0.17972-0.32481 0-0.15994-0.13026-0.28855-0.29679-0.28855-0.11707 0-0.22754 0.0627-0.28854 0.16653z"/>
   </g>
   <g transform="rotate(-54.591)" opacity=".91" aria-label="Change 3">
    <path d="m36.004 181.45c-0.15994 0-0.39077 0.11707-0.39077 0.52928 0 0.39571 0.22094 0.52432 0.39077 0.52432 0.12201 0 0.23578-0.0643 0.30009-0.16983l-0.08409-0.0544c-0.04782 0.0775-0.13026 0.12367-0.2094 0.12367-0.15169 0-0.28525-0.15664-0.28525-0.4353 0-0.27205 0.13026-0.42539 0.27535-0.42539 0.07914 0 0.15499 0.0478 0.19621 0.12036 0.0033 5e-3 0.0066 0.01 0.0066 0.0165 0 5e-3 -0.0016 8e-3 -0.0016 0.0132 0 2e-3 0 0.01 0.0082 0.0148l0.10882-0.0528c-0.05441-0.12366-0.17807-0.20446-0.31493-0.20446z"/>
    <path d="m36.486 182.49h0.12201v-0.43365c0-0.0495 0.0049-0.0874 0.03627-0.1286 0.02968-0.0379 0.10223-0.10553 0.18137-0.10553 0.03792 0 0.07585 0.0165 0.10223 0.0478 0.04122 0.0495 0.04122 0.11377 0.04122 0.16653v0.45343h0.11707v-0.45673c0-0.0577-0.0016-0.12036-0.02803-0.18137-0.03792-0.0841-0.11377-0.13191-0.19951-0.13191-0.10223 0-0.19621 0.066-0.25062 0.15005v-0.43694c0-5e-3 0-0.01 0.0049-0.0148 0.0049-5e-3 0.01154-0.01 0.01154-0.0181 0-2e-3 0-3e-3 -0.0016-5e-3h-0.13685z"/>
    <path d="m37.345 181.82 0.05771 0.0758c0.06266-0.0643 0.14675-0.0841 0.21765-0.0841 0.08904 0 0.13356 0.0379 0.15499 0.0726 0.02473 0.0412 0.02308 0.0907 0.02308 0.13026v0.0264h-0.02308c-0.11212 0-0.23084 0-0.32647 0.0346-0.11872 0.0429-0.17148 0.1319-0.17148 0.21434 0 0.11048 0.09563 0.21435 0.25227 0.21435 0.09233 0 0.18797-0.0346 0.27041-0.10222v0.0824h0.11212v-0.46662c0-0.061-0.0016-0.11872-0.03627-0.17808-0.04947-0.0808-0.1451-0.12366-0.26216-0.12366-0.10058 0-0.19786 0.0313-0.26876 0.10388zm0.45837 0.31163v0.0511c0 0.0379 0 0.0874-0.05111 0.1418-0.02803 0.028-0.09893 0.089-0.19786 0.089-0.10058 0-0.15829-0.0643-0.15829-0.13026 0-0.0561 0.03792-0.11707 0.13191-0.14015 0.06925-0.0165 0.16983-0.0115 0.24897-0.0115z"/>
    <path d="m38.133 182.49h0.12036v-0.43365c0-0.0495 0.0066-0.0874 0.03792-0.1286 0.02803-0.0379 0.10058-0.10553 0.17972-0.10553 0.03792 0 0.07585 0.0165 0.10223 0.0478 0.04122 0.0495 0.04122 0.11377 0.04122 0.16653v0.45343h0.11707v-0.45673c0-0.0577 0-0.12036-0.02638-0.18137-0.03792-0.0841-0.11542-0.13191-0.20116-0.13191-0.10223 0-0.19456 0.066-0.25062 0.15005v-0.13191h-0.12036z"/>
    <path d="m39.051 181.97c0-0.0907 0.07585-0.16488 0.16653-0.16488 0.09233 0 0.16653 0.0742 0.16653 0.16488 0 0.0907-0.0742 0.16489-0.16653 0.16489-0.09234 0-0.16653-0.0742-0.16653-0.16489zm0.17313-0.25886c-0.15004 0-0.2803 0.11871-0.2803 0.26546 0 0.0824 0.04122 0.15994 0.11047 0.20445-0.05441 0.0462-0.08574 0.0973-0.08574 0.1451 0 0.0313 0.01319 0.0759 0.06101 0.10058-0.08079 0.0511-0.12201 0.10717-0.12201 0.16653 0 0.0824 0.07585 0.17972 0.33966 0.17972 0.25557 0 0.3479-0.13025 0.3479-0.23083 0-0.066-0.03792-0.13191-0.11707-0.16324-0.07914-0.033-0.16983-0.0214-0.25557-0.0214-0.05606 0-0.09233-5e-3 -0.10717-0.01-0.02968-8e-3 -0.04617-0.0264-0.04617-0.0495 0-0.0396 0.04617-0.0775 0.05441-0.0841 0.02968 0.0115 0.06266 0.0165 0.09563 0.0165 0.1484 0 0.27041-0.11872 0.27041-0.25722 0-0.0462-0.01319-0.0907-0.03792-0.12861 0.03957-0.0231 0.08574-0.0363 0.13191-0.0363 0.01484 0 0.02803 2e-3 0.04287 5e-3l-0.01319-0.0973c-0.07585-7e-3 -0.15169 0.0181-0.2094 0.0659-0.04782-0.0462-0.11047-0.0709-0.17972-0.0709zm-0.11377 0.73702c0.02803 3e-3 0.0676 7e-3 0.12531 0.01 0.05606 2e-3 0.11707-3e-3 0.15994 3e-3 0.06925 0.0115 0.09069 0.0544 0.09069 0.0874s-0.01979 0.0726-0.0709 0.10058c-0.05606 0.0297-0.11872 0.033-0.16983 0.033-0.03463 0-0.09893-2e-3 -0.15499-0.0247-0.06101-0.0247-0.0742-0.066-0.0742-0.0923 0-0.0544 0.05111-0.094 0.09398-0.11707z"/>
    <path d="m40.095 181.72c-0.17972 0-0.34625 0.12861-0.34625 0.40232 0 0.25227 0.15664 0.38582 0.36109 0.38582 0.10882 0 0.2061-0.0396 0.27041-0.11706l-0.06595-0.0643c-0.04782 0.0561-0.12036 0.0857-0.19456 0.0857-0.10058 0-0.24732-0.0561-0.25557-0.28195h0.53422c0.0049-0.0511 0.0033-0.10058-0.0049-0.14345-0.03463-0.2028-0.17478-0.26711-0.29844-0.26711zm-0.22754 0.31988c0.02473-0.17808 0.1385-0.22919 0.21929-0.22919 0.12201 0 0.2094 0.10717 0.19456 0.22919z"/>
    <path d="m41.994 181.72c0-0.14015-0.11872-0.26051-0.28195-0.26051-0.09233 0-0.18302 0.0396-0.24732 0.11047l0.06431 0.0709c0.04782-0.0511 0.11377-0.0791 0.17807-0.0791 0.10552 0 0.17807 0.0742 0.17807 0.16158 0 0.061-0.03792 0.13026-0.11047 0.16159-0.01814 7e-3 -0.0643 0.0247-0.16158 0.0247v0.0923c0.01649-2e-3 0.03462-3e-3 0.05276-3e-3 0.1385 0 0.24073 0.0725 0.24073 0.19621 0 0.11212-0.08574 0.2094-0.2061 0.2094-0.09563 0-0.15334-0.0627-0.16158-0.0709-0.01319-0.0148-0.0066-0.0313-0.02144-0.0462l-0.08574 0.10388c0.0676 0.0775 0.16653 0.11706 0.26876 0.11706 0.19786 0 0.31658-0.14015 0.31658-0.30008 0-0.12202-0.06925-0.22589-0.17642-0.26546 0.09233-0.0346 0.15334-0.12202 0.15334-0.2226z"/>
   </g>
   <g transform="rotate(-54.591)" opacity=".91" aria-label="Change 4">
    <path d="m65.162 171.22c-0.15994 0-0.39077 0.11707-0.39077 0.52927 0 0.39572 0.22094 0.52433 0.39077 0.52433 0.12201 0 0.23578-0.0643 0.30009-0.16983l-0.08409-0.0544c-0.04782 0.0775-0.13026 0.12366-0.2094 0.12366-0.15169 0-0.28525-0.15664-0.28525-0.43529 0-0.27205 0.13026-0.42539 0.27535-0.42539 0.07914 0 0.15499 0.0478 0.19621 0.12036 0.0033 5e-3 0.0066 0.01 0.0066 0.0165 0 5e-3 -0.0016 8e-3 -0.0016 0.0132 0 2e-3 0 0.01 0.0082 0.0148l0.10882-0.0528c-0.05441-0.12367-0.17807-0.20446-0.31493-0.20446z"/>
    <path d="m65.644 172.26h0.12201v-0.43364c0-0.0495 0.0049-0.0874 0.03627-0.12861 0.02968-0.0379 0.10223-0.10552 0.18137-0.10552 0.03792 0 0.07585 0.0165 0.10223 0.0478 0.04122 0.0495 0.04122 0.11376 0.04122 0.16653v0.45342h0.11707v-0.45672c0-0.0577-0.0016-0.12036-0.02803-0.18137-0.03792-0.0841-0.11377-0.13191-0.19951-0.13191-0.10223 0-0.19621 0.066-0.25062 0.15005v-0.43694c0-5e-3 0-0.01 0.0049-0.0148 0.0049-5e-3 0.01154-0.01 0.01154-0.0181 0-2e-3 0-3e-3 -0.0016-5e-3h-0.13685z"/>
    <path d="m66.503 171.59 0.05771 0.0758c0.06266-0.0643 0.14674-0.0841 0.21764-0.0841 0.08904 0 0.13356 0.0379 0.15499 0.0725 0.02473 0.0412 0.02308 0.0907 0.02308 0.13026v0.0264h-0.02308c-0.11212 0-0.23084 0-0.32647 0.0346-0.11872 0.0429-0.17148 0.1319-0.17148 0.21434 0 0.11047 0.09563 0.21435 0.25227 0.21435 0.09233 0 0.18797-0.0346 0.27041-0.10223v0.0824h0.11212v-0.46661c0-0.061-0.0016-0.11872-0.03627-0.17808-0.04946-0.0808-0.1451-0.12366-0.26216-0.12366-0.10058 0-0.19786 0.0313-0.26876 0.10388zm0.45837 0.31163v0.0511c0 0.0379 0 0.0874-0.05111 0.1418-0.02803 0.028-0.09893 0.089-0.19786 0.089-0.10058 0-0.15829-0.0643-0.15829-0.13026 0-0.0561 0.03792-0.11707 0.13191-0.14015 0.06925-0.0165 0.16983-0.0115 0.24897-0.0115z"/>
    <path d="m67.291 172.26h0.12036v-0.43364c0-0.0495 0.0066-0.0874 0.03792-0.12861 0.02803-0.0379 0.10058-0.10552 0.17972-0.10552 0.03792 0 0.07585 0.0165 0.10223 0.0478 0.04122 0.0495 0.04122 0.11376 0.04122 0.16653v0.45342h0.11707v-0.45672c0-0.0577 0-0.12036-0.02638-0.18137-0.03792-0.0841-0.11542-0.13191-0.20116-0.13191-0.10223 0-0.19456 0.066-0.25062 0.15005v-0.13191h-0.12036z"/>
    <path d="m68.209 171.74c0-0.0907 0.07585-0.16488 0.16653-0.16488 0.09233 0 0.16653 0.0742 0.16653 0.16488 0 0.0907-0.0742 0.16489-0.16653 0.16489-0.09233 0-0.16653-0.0742-0.16653-0.16489zm0.17313-0.25886c-0.15004 0-0.2803 0.11871-0.2803 0.26546 0 0.0824 0.04122 0.15993 0.11047 0.20445-0.05441 0.0462-0.08574 0.0973-0.08574 0.1451 0 0.0313 0.01319 0.0759 0.06101 0.10058-0.08079 0.0511-0.12201 0.10717-0.12201 0.16653 0 0.0824 0.07585 0.17972 0.33966 0.17972 0.25557 0 0.3479-0.13026 0.3479-0.23083 0-0.066-0.03792-0.13191-0.11707-0.16324-0.07914-0.033-0.16983-0.0214-0.25557-0.0214-0.05606 0-0.09233-5e-3 -0.10717-0.01-0.02968-8e-3 -0.04617-0.0264-0.04617-0.0495 0-0.0396 0.04617-0.0775 0.05441-0.0841 0.02968 0.0115 0.06266 0.0165 0.09563 0.0165 0.14839 0 0.27041-0.11872 0.27041-0.25722 0-0.0462-0.01319-0.0907-0.03792-0.12861 0.03957-0.0231 0.08574-0.0363 0.13191-0.0363 0.01484 0 0.02803 2e-3 0.04287 5e-3l-0.01319-0.0973c-0.07585-7e-3 -0.15169 0.0181-0.2094 0.066-0.04782-0.0462-0.11047-0.0709-0.17972-0.0709zm-0.11377 0.73702c0.02803 3e-3 0.0676 7e-3 0.12531 0.01 0.05606 2e-3 0.11707-3e-3 0.15994 3e-3 0.06925 0.0115 0.09069 0.0544 0.09069 0.0874s-0.01979 0.0726-0.0709 0.10058c-0.05606 0.0297-0.11872 0.033-0.16983 0.033-0.03463 0-0.09893-2e-3 -0.15499-0.0247-0.06101-0.0247-0.0742-0.0659-0.0742-0.0923 0-0.0544 0.05111-0.094 0.09398-0.11707z"/>
    <path d="m69.253 171.49c-0.17972 0-0.34625 0.12861-0.34625 0.40232 0 0.25227 0.15664 0.38582 0.36109 0.38582 0.10882 0 0.2061-0.0396 0.27041-0.11706l-0.06595-0.0643c-0.04782 0.0561-0.12036 0.0857-0.19456 0.0857-0.10058 0-0.24732-0.0561-0.25557-0.28195h0.53422c0.0049-0.0511 0.0033-0.10058-0.0049-0.14345-0.03463-0.2028-0.17478-0.26711-0.29844-0.26711zm-0.22754 0.31987c0.02473-0.17807 0.1385-0.22918 0.21929-0.22918 0.12201 0 0.2094 0.10717 0.19456 0.22918z"/>
    <path d="m70.992 171.23-0.43694 0.65788v0.0857h0.41386v0.28359h0.11872v-0.28194h0.13356v-0.10223h-0.13356v-0.64304zm-0.02143 0.18302v0.46002h-0.30174z"/>
   </g>
  </g>
  <g fill="none" stroke="#e9e56f" stroke-width=".14111">
   <rect x="148.73" y="47.752" width="63.372" height="3.9044" opacity=".91"/>
   <g>
    <path d="m153.98 51.682v-3.9572" opacity=".91"/>
    <path d="m159.26 51.682v-3.9572" opacity=".91"/>
    <path d="m164.54 51.682v-3.9572" opacity=".91"/>
    <path d="m169.81 51.682v-3.9572" opacity=".91"/>
    <path d="m175.09 51.682v-3.9572" opacity=".91"/>
    <path d="m180.36 51.682v-3.9572" opacity=".91"/>
   </g>
  </g>
  <g stroke="#d54747" stroke-width="1.0698">
   <g transform="matrix(.26381 0 0 .26381 150.02 39.188)" opacity=".91">
    <path d="m45.42 66.92 15.514-15.426" fill="none" stroke="#d54747" stroke-width="1.0698px"/>
   </g>
   <g transform="matrix(.26381 0 0 .26381 165.85 39.188)" opacity=".91">
    <path d="m45.42 66.92 15.514-15.426" fill="none" stroke="#d54747" stroke-width="1.0698px"/>
   </g>
   <g transform="matrix(.26381 0 0 -.26381 150.02 78.842)" opacity=".91">
    <path d="m45.42 66.92 15.514-15.426" fill="none" stroke="#d54747" stroke-width="1.0698px"/>
   </g>
   <g transform="matrix(.26381 0 0 -.26381 165.85 78.842)" opacity=".91">
    <path d="m45.42 66.92 15.514-15.426" fill="none" stroke="#d54747" stroke-width="1.0698px"/>
   </g>
   <g transform="matrix(.26381 0 0 -.26381 144.75 69.608)" opacity=".91">
    <path d="m45.42 66.92 15.514-15.426" fill="none" stroke="#d54747" stroke-width="1.0698px"/>
   </g>
   <g transform="matrix(.26381 0 0 -.26381 160.58 69.608)" opacity=".91">
    <path d="m45.42 66.92 15.514-15.426" fill="none" stroke="#d54747" stroke-width="1.0698px"/>
   </g>
   <g transform="matrix(.26381 0 0 -.26381 165.85 69.608)" opacity=".91">
    <path d="m45.42 66.92 15.514-15.426" fill="none" stroke="#d54747" stroke-width="1.0698px"/>
   </g>
   <g transform="matrix(.26381 0 0 .26381 160.58 48.421)" opacity=".91">
    <path d="m45.42 66.92 15.514-15.426" fill="none" stroke="#d54747" stroke-width="1.0698px"/>
   </g>
  </g>
  <g stroke-width="1.0698">
   <g transform="matrix(-.35666 .35078 .35078 .35666 242.45 -217.84)">
    <path d="m501.47 274.25-1.2053 3.2778-1.2053-3.2778c0.71162 0.52365 1.6852 0.52064 2.4106 0z" fill="#fff" fill-rule="evenodd" stroke="#d54747" stroke-linejoin="round" stroke-width=".20058"/>
   </g>
   <g transform="matrix(.32727 .37835 .37835 -.32727 -101.58 -46.568)">
    <path d="m501.47 274.25-1.2053 3.2778-1.2053-3.2778c0.71162 0.52365 1.6852 0.52064 2.4106 0z" fill="#fff" fill-rule="evenodd" stroke="#d54747" stroke-linejoin="round" stroke-width=".20058"/>
   </g>
   <g transform="matrix(-.35666 .35078 .35078 .35666 258.36 -217.84)">
    <path d="m501.47 274.25-1.2053 3.2778-1.2053-3.2778c0.71162 0.52365 1.6852 0.52064 2.4106 0z" fill="#fff" fill-rule="evenodd" stroke="#d54747" stroke-linejoin="round" stroke-width=".20058"/>
   </g>
   <g transform="matrix(-.35666 .35078 .35078 .35666 263.62 -217.84)">
    <path d="m501.47 274.25-1.2053 3.2778-1.2053-3.2778c0.71162 0.52365 1.6852 0.52064 2.4106 0z" fill="#fff" fill-rule="evenodd" stroke="#d54747" stroke-linejoin="round" stroke-width=".20058"/>
   </g>
   <g transform="matrix(.32727 .37835 .37835 -.32727 -85.778 -46.568)">
    <path d="m501.47 274.25-1.2053 3.2778-1.2053-3.2778c0.71162 0.52365 1.6852 0.52064 2.4106 0z" fill="#fff" fill-rule="evenodd" stroke="#d54747" stroke-linejoin="round" stroke-width=".20058"/>
   </g>
   <g transform="matrix(-.35666 .35078 .35078 .35666 263.66 -208.53)">
    <path d="m501.47 274.25-1.2053 3.2778-1.2053-3.2778c0.71162 0.52365 1.6852 0.52064 2.4106 0z" fill="#fff" fill-rule="evenodd" stroke="#d54747" stroke-linejoin="round" stroke-width=".20058"/>
   </g>
   <g transform="matrix(-.35666 .35078 .35078 .35666 247.83 -208.53)">
    <path d="m501.47 274.25-1.2053 3.2778-1.2053-3.2778c0.71162 0.52365 1.6852 0.52064 2.4106 0z" fill="#fff" fill-rule="evenodd" stroke="#d54747" stroke-linejoin="round" stroke-width=".20058"/>
   </g>
   <g transform="matrix(.32727 .37835 .37835 -.32727 -90.97 -37.417)">
    <path d="m501.47 274.25-1.2053 3.2778-1.2053-3.2778c0.71162 0.52365 1.6852 0.52064 2.4106 0z" fill="#fff" fill-rule="evenodd" stroke="#d54747" stroke-linejoin="round" stroke-width=".20058"/>
   </g>
  </g>
  <g fill="none">
   <g stroke="#e9e56f" stroke-width=".14111">
    <path d="m185.64 51.682v-3.9572" opacity=".91"/>
    <path d="m190.83 51.682v-3.9572" opacity=".91"/>
    <path d="m196.28 51.682v-3.9572" opacity=".91"/>
    <path d="m201.47 51.682v-3.9572" opacity=".91"/>
    <path d="m206.66 51.682v-3.9572" opacity=".91"/>
    <path d="m185.64 60.911v-3.9572" opacity=".91"/>
    <path d="m190.83 60.911v-3.9572" opacity=".91"/>
    <path d="m196.28 60.911v-3.9572" opacity=".91"/>
    <path d="m201.47 60.911v-3.9572" opacity=".91"/>
    <path d="m206.66 60.911v-3.9572" opacity=".91"/>
    <path d="m185.64 70.124v-3.9572" opacity=".91"/>
    <path d="m190.83 70.124v-3.9572" opacity=".91"/>
    <path d="m196.28 70.124v-3.9572" opacity=".91"/>
    <path d="m201.47 70.124v-3.9572" opacity=".91"/>
    <path d="m206.66 70.124v-3.9572" opacity=".91"/>
   </g>
   <g stroke="#d54747" stroke-width=".26458">
    <path d="m201.39 78.755v-1.3858" opacity=".91"/>
    <path d="m206.83 78.755v-1.3858" opacity=".91"/>
    <path d="m212.02 78.755v-1.3858" opacity=".91"/>
    <path d="m190.75 78.755v-1.3858" opacity=".91"/>
    <path d="m196.19 78.755v-1.3858" opacity=".91"/>
   </g>
  </g>
  <g fill="#f9f4f4" stroke="#f50030" stroke-linecap="round" stroke-width=".26458">
   <rect x="154.44" y="48.179" width="1.2921" height="1.2921" opacity=".4" style="paint-order:normal"/>
   <rect x="159.73" y="48.179" width="1.2921" height="1.2921" opacity=".4" style="paint-order:normal"/>
   <rect x="165.02" y="48.179" width="1.2921" height="1.2921" style="paint-order:normal"/>
   <rect x="159.73" y="57.439" width="1.2921" height="1.2921" style="paint-order:normal"/>
   <rect x="165.02" y="66.699" width="1.2921" height="1.2921" style="paint-order:normal"/>
   <rect x="170.31" y="66.699" width="1.2921" height="1.2921" style="paint-order:normal"/>
   <rect x="170.31" y="48.179" width="1.2921" height="1.2921" style="paint-order:normal"/>
   <rect x="175.61" y="48.179" width="1.2921" height="1.2921" style="paint-order:normal"/>
   <rect x="180.9" y="48.179" width="1.2921" height="1.2921" style="paint-order:normal"/>
   <rect x="186.19" y="48.179" width="1.2921" height="1.2921" style="paint-order:normal"/>
   <rect x="165.02" y="57.439" width="1.2921" height="1.2921" style="paint-order:normal"/>
   <rect x="170.31" y="57.439" width="1.2921" height="1.2921" style="paint-order:normal"/>
   <rect x="175.61" y="57.439" width="1.2921" height="1.2921" style="paint-order:normal"/>
   <rect x="180.9" y="57.439" width="1.2921" height="1.2921" style="paint-order:normal"/>
  </g>
  <rect x="186.19" y="57.439" width="1.2921" height="1.2921" stroke="#c900f5" stroke-linecap="round" stroke-width=".26458" style="paint-order:normal"/>
  <g fill="#f9f4f4" stroke="#f50030" stroke-linecap="round" stroke-width=".26458">
   <rect x="175.61" y="66.699" width="1.2921" height="1.2921" style="paint-order:normal"/>
   <rect x="180.9" y="66.699" width="1.2921" height="1.2921" style="paint-order:normal"/>
   <rect x="186.19" y="66.699" width="1.2921" height="1.2921" style="paint-order:normal"/>
  </g>
  <g fill="#fff" stroke-linecap="round">
   <g stroke="#f50030" stroke-width=".26458">
    <circle cx="173.02" cy="48.809" r=".68213" opacity=".4" style="paint-order:normal"/>
    <circle cx="178.31" cy="48.809" r=".68213" opacity=".4" style="paint-order:normal"/>
    <circle cx="183.61" cy="48.809" r=".68213" style="paint-order:normal"/>
    <circle cx="188.9" cy="48.809" r=".68213" style="paint-order:normal"/>
    <circle cx="194.19" cy="48.809" r=".68213" style="paint-order:normal"/>
   </g>
   <circle cx="199.48" cy="48.809" r=".68213" opacity=".4" stroke="#00f542" stroke-width=".26458" style="paint-order:normal"/>
   <g stroke="#f50030" stroke-width=".26458">
    <circle cx="178.31" cy="58.069" r=".68213" style="paint-order:normal"/>
    <circle cx="183.61" cy="58.069" r=".68213" style="paint-order:normal"/>
    <circle cx="188.9" cy="58.069" r=".68213" style="paint-order:normal"/>
    <circle cx="194.19" cy="58.069" r=".68213" style="paint-order:normal"/>
    <circle cx="199.48" cy="58.069" r=".68213" style="paint-order:normal"/>
    <circle cx="183.61" cy="67.33" r=".68213" style="paint-order:normal"/>
    <circle cx="188.9" cy="67.33" r=".68213" style="paint-order:normal"/>
    <circle cx="194.19" cy="67.33" r=".68213" style="paint-order:normal"/>
   </g>
   <circle cx="199.48" cy="67.33" r=".68213" opacity=".4" stroke="#00b7f5" stroke-width=".26458" style="paint-order:normal"/>
   <g stroke="#000bf5" stroke-width="1.0035">
    <path transform="matrix(.26409 0 0 .26324 140.18 84.546)" d="m116.92-60.878 2.5498 4.4164-5.0997-1e-6z" opacity=".4" style="paint-order:normal"/>
    <path transform="matrix(.26409 0 0 .26324 145.47 84.546)" d="m116.92-60.878 2.5498 4.4164-5.0997-1e-6z" opacity=".4" style="paint-order:normal"/>
    <path transform="matrix(.26409 0 0 .26324 150.77 84.546)" d="m116.92-60.878 2.5498 4.4164-5.0997-1e-6z" style="paint-order:normal"/>
    <path transform="matrix(.26409 0 0 .26324 156.06 84.546)" d="m116.92-60.878 2.5498 4.4164-5.0997-1e-6z" style="paint-order:normal"/>
    <path transform="matrix(.26409 0 0 .26324 161.35 84.546)" d="m116.92-60.878 2.5498 4.4164-5.0997-1e-6z" style="paint-order:normal"/>
    <path transform="matrix(.26409 0 0 .26324 166.64 84.546)" d="m116.92-60.878 2.5498 4.4164-5.0997-1e-6z" style="paint-order:normal"/>
    <path transform="matrix(.26409 0 0 .26324 171.93 84.546)" d="m116.92-60.878 2.5498 4.4164-5.0997-1e-6z" style="paint-order:normal"/>
    <path transform="matrix(.26409 0 0 .26324 177.22 84.546)" d="m116.92-60.878 2.5498 4.4164-5.0997-1e-6z" style="paint-order:normal"/>
    <path transform="matrix(.26409 0 0 .26324 145.47 75.285)" d="m116.92-60.878 2.5498 4.4164-5.0997-1e-6z" style="paint-order:normal"/>
    <path transform="matrix(.26409 0 0 .26324 150.77 75.285)" d="m116.92-60.878 2.5498 4.4164-5.0997-1e-6z" style="paint-order:normal"/>
    <path transform="matrix(.26409 0 0 .26324 156.06 75.285)" d="m116.92-60.878 2.5498 4.4164-5.0997-1e-6z" style="paint-order:normal"/>
    <path transform="matrix(.26409 0 0 .26324 161.35 75.285)" d="m116.92-60.878 2.5498 4.4164-5.0997-1e-6z" style="paint-order:normal"/>
    <path transform="matrix(.26409 0 0 .26324 166.64 75.285)" d="m116.92-60.878 2.5498 4.4164-5.0997-1e-6z" style="paint-order:normal"/>
    <path transform="matrix(.26409 0 0 .26324 171.93 75.285)" d="m116.92-60.878 2.5498 4.4164-5.0997-1e-6z" style="paint-order:normal"/>
    <path transform="matrix(.26409 0 0 .26324 177.22 75.285)" d="m116.92-60.878 2.5498 4.4164-5.0997-1e-6z" style="paint-order:normal"/>
    <path transform="matrix(.26409 0 0 .26324 150.77 66.025)" d="m116.92-60.878 2.5498 4.4164-5.0997-1e-6z" style="paint-order:normal"/>
    <path transform="matrix(.26409 0 0 .26324 156.06 66.025)" d="m116.92-60.878 2.5498 4.4164-5.0997-1e-6z" style="paint-order:normal"/>
    <path transform="matrix(.26409 0 0 .26324 161.35 66.025)" d="m116.92-60.878 2.5498 4.4164-5.0997-1e-6z" style="paint-order:normal"/>
    <path transform="matrix(.26409 0 0 .26324 166.64 66.025)" d="m116.92-60.878 2.5498 4.4164-5.0997-1e-6z" style="paint-order:normal"/>
    <path transform="matrix(.26409 0 0 .26324 171.93 66.025)" d="m116.92-60.878 2.5498 4.4164-5.0997-1e-6z" style="paint-order:normal"/>
    <path transform="matrix(.26409 0 0 .26324 177.22 66.025)" d="m116.92-60.878 2.5498 4.4164-5.0997-1e-6z" style="paint-order:normal"/>
   </g>
  </g>
  <g transform="rotate(-54.591)" fill="#e9e56f" opacity=".91" stroke-width=".28222px" aria-label="Change 5">
   <path d="m62.534 184.38c-0.11844 0-0.28937 0.0867-0.28937 0.39193 0 0.29303 0.16361 0.38827 0.28937 0.38827 0.09035 0 0.1746-0.0476 0.22222-0.12576l-0.06227-0.0403c-0.03541 0.0574-0.09646 0.0916-0.15506 0.0916-0.11233 0-0.21123-0.11599-0.21123-0.32234 0-0.20146 0.09646-0.31501 0.2039-0.31501 0.05861 0 0.11477 0.0354 0.1453 0.0891 0.0024 4e-3 0.0049 7e-3 0.0049 0.0122 0 4e-3 -0.0012 6e-3 -0.0012 0.01 0 1e-3 0 7e-3 0.0061 0.011l0.08058-0.0391c-0.04029-0.0916-0.13186-0.1514-0.2332-0.1514z"/>
   <path d="m62.89 185.15h0.09035v-0.32112c0-0.0366 0.0037-0.0647 0.02686-0.0952 0.02198-0.0281 0.0757-0.0781 0.13431-0.0781 0.02808 0 0.05617 0.0122 0.0757 0.0354 0.03052 0.0366 0.03052 0.0842 0.03052 0.12332v0.33577h0.08669v-0.33821c0-0.0427-0.0012-0.0891-0.02076-0.13431-0.02808-0.0623-0.08425-0.0977-0.14774-0.0977-0.0757 0-0.1453 0.0488-0.18559 0.11111v-0.32356c0-4e-3 0-7e-3 0.0037-0.011s0.0085-7e-3 0.0085-0.0134c0-1e-3 0-2e-3 -0.0012-4e-3h-0.10134z"/>
   <path d="m63.527 184.65 0.04273 0.0562c0.0464-0.0476 0.10867-0.0623 0.16117-0.0623 0.06593 0 0.0989 0.0281 0.11477 0.0537 0.01831 0.0305 0.01709 0.0672 0.01709 0.0965v0.0195h-0.017086c-0.08303 0-0.17094 0-0.24175 0.0257-0.08791 0.0317-0.12698 0.0977-0.12698 0.15872 0 0.0818 0.07082 0.15873 0.18681 0.15873 0.06837 0 0.13919-0.0256 0.20024-0.0757v0.061h0.08303v-0.34554c0-0.0452-0.0012-0.0879-0.02686-0.13186-0.03663-0.0598-0.10745-0.0916-0.19414-0.0916-0.07448 0-0.14652 0.0232-0.19902 0.0769zm0.33943 0.23077v0.0379c0 0.0281 0 0.0647-0.03785 0.105-0.02076 0.0208-0.07326 0.0659-0.14652 0.0659-0.07448 0-0.11721-0.0476-0.11721-0.0965 0-0.0415 0.02808-0.0867 0.09768-0.10378 0.05128-0.0122 0.12576-9e-3 0.18437-9e-3z"/>
   <path d="m64.11 185.15h0.08913v-0.32112c0-0.0366 0.0049-0.0647 0.02808-0.0952 0.02076-0.0281 0.07448-0.0781 0.13309-0.0781 0.02808 0 0.05616 0.0122 0.0757 0.0354 0.03052 0.0366 0.03052 0.0842 0.03052 0.12332v0.33577h0.08669v-0.33821c0-0.0427 0-0.0891-0.01953-0.13431-0.02808-0.0623-0.08547-0.0977-0.14896-0.0977-0.0757 0-0.14407 0.0488-0.18559 0.11111v-0.0977h-0.08913z"/>
   <path d="m64.79 184.76c0-0.0671 0.05616-0.1221 0.12332-0.1221 0.06837 0 0.12332 0.0549 0.12332 0.1221 0 0.0671-0.05494 0.1221-0.12332 0.1221-0.06837 0-0.12332-0.0549-0.12332-0.1221zm0.1282-0.19169c-0.11111 0-0.20756 0.0879-0.20756 0.19658 0 0.061 0.03052 0.11843 0.0818 0.1514-0.04029 0.0342-0.06349 0.072-0.06349 0.10744 0 0.0232 0.0098 0.0562 0.04518 0.0745-0.05983 0.0378-0.09035 0.0794-0.09035 0.12332 0 0.061 0.05616 0.13308 0.25152 0.13308 0.18925 0 0.25762-0.0965 0.25762-0.17093 0-0.0488-0.02808-0.0977-0.08669-0.12088-0.05861-0.0244-0.12576-0.0159-0.18925-0.0159-0.04151 0-0.06837-4e-3 -0.07936-7e-3 -0.02198-6e-3 -0.03419-0.0195-0.03419-0.0366 0-0.0293 0.03419-0.0574 0.04029-0.0623 0.02198 9e-3 0.0464 0.0122 0.07082 0.0122 0.10989 0 0.20024-0.0879 0.20024-0.19047 0-0.0342-0.0098-0.0671-0.02808-0.0952 0.0293-0.0171 0.06349-0.0269 0.09768-0.0269 0.01099 0 0.02076 1e-3 0.03175 4e-3l-0.0098-0.072c-0.05616-5e-3 -0.11233 0.0134-0.15506 0.0488-0.03541-0.0342-0.08181-0.0525-0.13309-0.0525zm-0.08425 0.54577c0.02076 2e-3 0.05006 5e-3 0.09279 7e-3 0.04151 1e-3 0.08669-2e-3 0.11843 2e-3 0.05128 9e-3 0.06715 0.0403 0.06715 0.0647s-0.01465 0.0537-0.0525 0.0745c-0.04151 0.022-0.08791 0.0244-0.12576 0.0244-0.02564 0-0.07326-1e-3 -0.11477-0.0183-0.04518-0.0183-0.05494-0.0488-0.05494-0.0684 0-0.0403 0.03785-0.0696 0.0696-0.0867z"/>
   <path d="m65.563 184.57c-0.13309 0-0.2564 0.0952-0.2564 0.29792 0 0.18681 0.11599 0.28571 0.26739 0.28571 0.08058 0 0.15262-0.0293 0.20024-0.0867l-0.04884-0.0476c-0.03541 0.0415-0.08913 0.0635-0.14408 0.0635-0.07448 0-0.18315-0.0415-0.18925-0.20879h0.3956c0.0037-0.0378 0.0024-0.0745-0.0037-0.10622-0.02564-0.15018-0.12942-0.1978-0.221-0.1978zm-0.16849 0.23687c0.01832-0.13186 0.10256-0.16971 0.16239-0.16971 0.09035 0 0.15506 0.0794 0.14407 0.16971z"/>
   <path d="m66.599 184.38-0.02686 0.38705 0.05494 0.022c0.03663-0.0464 0.09035-0.072 0.14285-0.072 0.07936 0 0.15506 0.061 0.15506 0.18192 0 0.11722-0.07204 0.18071-0.15384 0.18071-0.0818 0-0.13553-0.0623-0.13919-0.0696-0.0049-0.01 0.0012-0.022-0.0098-0.0293l-0.0757 0.0574c0.05128 0.0745 0.13553 0.11722 0.22588 0.11722 0.13186 0 0.24053-0.0891 0.24053-0.25396 0-0.16361-0.10256-0.25397-0.23076-0.25397-0.04151 0-0.08425 0.01-0.12332 0.0293l0.01099-0.21978h0.31501v-0.0769z"/>
  </g>
  <g stroke-width="1.0698">
   <g transform="matrix(.26381 0 0 -.26381 176.44 78.842)" opacity=".91" stroke="#d54747">
    <path d="m45.42 66.92 15.514-15.426" fill="none" stroke="#d54747" stroke-width="1.0698px"/>
   </g>
   <g transform="matrix(-.35666 .35078 .35078 .35666 274.24 -208.53)">
    <path d="m501.47 274.25-1.2053 3.2778-1.2053-3.2778c0.71162 0.52365 1.6852 0.52064 2.4106 0z" fill="#fff" fill-rule="evenodd" stroke="#d54747" stroke-linejoin="round" stroke-width=".20058"/>
   </g>
   <g transform="matrix(.26381 0 0 .26381 176.48 39.188)" opacity=".91" stroke="#d54747">
    <path d="m45.42 66.92 15.514-15.426" fill="none" stroke="#d54747" stroke-width="1.0698px"/>
   </g>
   <g transform="matrix(.32727 .37835 .37835 -.32727 -75.118 -46.568)">
    <path d="m501.47 274.25-1.2053 3.2778-1.2053-3.2778c0.71162 0.52365 1.6852 0.52064 2.4106 0z" fill="#fff" fill-rule="evenodd" stroke="#d54747" stroke-linejoin="round" stroke-width=".20058"/>
   </g>
  </g>
  <g stroke="#c900f5" stroke-linecap="round" stroke-width=".26458">
   <rect x="191.48" y="57.439" width="1.2921" height="1.2921" style="paint-order:normal"/>
   <rect x="196.77" y="57.439" width="1.2921" height="1.2921" style="paint-order:normal"/>
   <rect x="202.06" y="57.439" width="1.2921" height="1.2921" style="paint-order:normal"/>
   <rect x="207.36" y="57.439" width="1.2921" height="1.2921" style="paint-order:normal"/>
   <rect x="191.48" y="48.179" width="1.2921" height="1.2921" style="paint-order:normal"/>
   <rect x="196.77" y="48.179" width="1.2921" height="1.2921" style="paint-order:normal"/>
   <rect x="202.06" y="48.179" width="1.2921" height="1.2921" style="paint-order:normal"/>
   <rect x="207.36" y="48.179" width="1.2921" height="1.2921" style="paint-order:normal"/>
   <rect x="207.36" y="66.699" width="1.2921" height="1.2921" style="paint-order:normal"/>
   <rect x="202.06" y="66.699" width="1.2921" height="1.2921" style="paint-order:normal"/>
   <rect x="196.77" y="66.699" width="1.2921" height="1.2921" style="paint-order:normal"/>
   <rect x="191.48" y="66.699" width="1.2921" height="1.2921" style="paint-order:normal"/>
  </g>
  <g>
   <g transform="rotate(-54.591)" fill="#e9e56f" opacity=".91" stroke-width=".28222px" aria-label="Change 6">
    <path d="m77.58 188.69c-0.15994 0-0.39077 0.11707-0.39077 0.52927 0 0.39572 0.22094 0.52433 0.39077 0.52433 0.12201 0 0.23578-0.0643 0.30009-0.16983l-0.08409-0.0544c-0.04782 0.0775-0.13026 0.12366-0.2094 0.12366-0.15169 0-0.28525-0.15664-0.28525-0.43529 0-0.27205 0.13026-0.4254 0.27535-0.4254 0.07914 0 0.15499 0.0478 0.19621 0.12037 0.0033 5e-3 0.0066 0.01 0.0066 0.0165 0 5e-3 -0.0016 8e-3 -0.0016 0.0132 0 2e-3 0 0.01 0.0082 0.0148l0.10882-0.0528c-0.05441-0.12367-0.17807-0.20446-0.31493-0.20446z"/>
    <path d="m78.061 189.72h0.12201v-0.43364c0-0.0495 0.0049-0.0874 0.03627-0.12861 0.02968-0.0379 0.10223-0.10552 0.18137-0.10552 0.03792 0 0.07585 0.0165 0.10223 0.0478 0.04122 0.0495 0.04122 0.11377 0.04122 0.16654v0.45342h0.11707v-0.45672c0-0.0577-0.0016-0.12037-0.02803-0.18137-0.03792-0.0841-0.11377-0.13191-0.19951-0.13191-0.10223 0-0.19621 0.0659-0.25062 0.15004v-0.43693c0-5e-3 0-0.01 0.0049-0.0148 0.0049-5e-3 0.01154-0.01 0.01154-0.0181 0-2e-3 0-3e-3 -0.0016-5e-3h-0.13685z"/>
    <path d="m78.92 189.06 0.05771 0.0758c0.06266-0.0643 0.14675-0.0841 0.21765-0.0841 0.08904 0 0.13356 0.0379 0.15499 0.0726 0.02473 0.0412 0.02308 0.0907 0.02308 0.13026v0.0264h-0.02308c-0.11212 0-0.23084 0-0.32647 0.0346-0.11872 0.0429-0.17148 0.13191-0.17148 0.21435 0 0.11047 0.09563 0.21435 0.25227 0.21435 0.09233 0 0.18797-0.0346 0.27041-0.10223v0.0824h0.11212v-0.46661c0-0.061-0.0016-0.11872-0.03627-0.17808-0.04946-0.0808-0.1451-0.12366-0.26216-0.12366-0.10058 0-0.19786 0.0313-0.26876 0.10388zm0.45837 0.31163v0.0511c0 0.0379 0 0.0874-0.05111 0.1418-0.02803 0.028-0.09893 0.089-0.19786 0.089-0.10058 0-0.15829-0.0643-0.15829-0.13025 0-0.0561 0.03792-0.11707 0.13191-0.14015 0.06925-0.0165 0.16983-0.0115 0.24897-0.0115z"/>
    <path d="m79.708 189.72h0.12036v-0.43364c0-0.0495 0.0066-0.0874 0.03792-0.12861 0.02803-0.0379 0.10058-0.10552 0.17972-0.10552 0.03792 0 0.07585 0.0165 0.10223 0.0478 0.04122 0.0495 0.04122 0.11377 0.04122 0.16654v0.45342h0.11707v-0.45672c0-0.0577 0-0.12037-0.02638-0.18137-0.03792-0.0841-0.11542-0.13191-0.20116-0.13191-0.10223 0-0.19456 0.0659-0.25062 0.15004v-0.1319h-0.12036z"/>
    <path d="m80.627 189.21c0-0.0907 0.07585-0.16488 0.16653-0.16488 0.09234 0 0.16653 0.0742 0.16653 0.16488 0 0.0907-0.0742 0.16489-0.16653 0.16489-0.09233 0-0.16653-0.0742-0.16653-0.16489zm0.17313-0.25886c-0.15004 0-0.2803 0.11871-0.2803 0.26546 0 0.0824 0.04122 0.15993 0.11047 0.20445-0.05441 0.0462-0.08574 0.0973-0.08574 0.1451 0 0.0313 0.01319 0.0759 0.06101 0.10058-0.08079 0.0511-0.12201 0.10717-0.12201 0.16653 0 0.0824 0.07585 0.17972 0.33966 0.17972 0.25557 0 0.3479-0.13026 0.3479-0.23083 0-0.066-0.03792-0.13191-0.11707-0.16324-0.07914-0.033-0.16983-0.0214-0.25557-0.0214-0.05606 0-0.09233-5e-3 -0.10717-0.01-0.02968-8e-3 -0.04617-0.0264-0.04617-0.0495 0-0.0396 0.04617-0.0775 0.05441-0.0841 0.02968 0.0115 0.06266 0.0165 0.09563 0.0165 0.1484 0 0.27041-0.11872 0.27041-0.25722 0-0.0462-0.01319-0.0907-0.03792-0.12861 0.03957-0.0231 0.08574-0.0363 0.13191-0.0363 0.01484 0 0.02803 2e-3 0.04287 5e-3l-0.01319-0.0973c-0.07585-7e-3 -0.15169 0.0181-0.2094 0.066-0.04782-0.0462-0.11047-0.0709-0.17972-0.0709zm-0.11377 0.73702c0.02803 3e-3 0.0676 7e-3 0.12531 0.01 0.05606 2e-3 0.11707-3e-3 0.15994 3e-3 0.06925 0.0115 0.09068 0.0544 0.09068 0.0874s-0.01979 0.0726-0.0709 0.10058c-0.05606 0.0297-0.11872 0.033-0.16983 0.033-0.03462 0-0.09893-2e-3 -0.15499-0.0247-0.06101-0.0247-0.0742-0.066-0.0742-0.0923 0-0.0544 0.05111-0.094 0.09398-0.11707z"/>
    <path d="m81.67 188.95c-0.17972 0-0.34625 0.12861-0.34625 0.40232 0 0.25227 0.15664 0.38582 0.36109 0.38582 0.10882 0 0.2061-0.0396 0.27041-0.11707l-0.06595-0.0643c-0.04782 0.0561-0.12036 0.0857-0.19456 0.0857-0.10058 0-0.24732-0.0561-0.25557-0.28195h0.53422c0.0049-0.0511 0.0033-0.10058-0.0049-0.14345-0.03463-0.2028-0.17478-0.26711-0.29844-0.26711zm-0.22754 0.31987c0.02473-0.17807 0.1385-0.22918 0.2193-0.22918 0.12201 0 0.2094 0.10717 0.19456 0.22918z"/>
    <path d="m83.367 188.68c-0.12366 0-0.25557 0.0759-0.31987 0.25557-0.03463 0.0973-0.04287 0.21765-0.04287 0.31658 0 0.12036 0.01154 0.24897 0.07749 0.3479 0.05936 0.0907 0.15169 0.13685 0.24238 0.13685 0.15664 0 0.29349-0.13191 0.29349-0.3446 0-0.2127-0.13685-0.33636-0.28195-0.33636-0.08904 0-0.17313 0.0478-0.21765 0.12366 0.0066-0.3512 0.17478-0.39737 0.24897-0.39737 0.0676 0 0.11377 0.0363 0.12036 0.0429 0.0099 0.0115 0.0099 0.0264 0.02473 0.0379l0.07914-0.089c-0.05936-0.0594-0.1418-0.094-0.22424-0.094zm-0.04287 0.47816c0.08244 0 0.18137 0.0643 0.18137 0.24073 0 0.15994-0.08904 0.23578-0.17642 0.23578-0.12531 0-0.21929-0.14674-0.2061-0.33965 0.04617-0.0841 0.12531-0.13686 0.20116-0.13686z"/>
   </g>
   <g transform="rotate(-54.591)" fill="#e9e56f" opacity=".91" stroke-width=".28222px" aria-label="Change 7">
    <path d="m51.335 203.02c-0.15994 0-0.39077 0.11706-0.39077 0.52927 0 0.39572 0.22094 0.52433 0.39077 0.52433 0.12201 0 0.23578-0.0643 0.30009-0.16983l-0.08409-0.0544c-0.04782 0.0775-0.13026 0.12366-0.2094 0.12366-0.15169 0-0.28525-0.15664-0.28525-0.43529 0-0.27206 0.13026-0.4254 0.27535-0.4254 0.07914 0 0.15499 0.0478 0.19621 0.12037 0.0033 5e-3 0.0066 0.01 0.0066 0.0165 0 5e-3 -0.0016 8e-3 -0.0016 0.0132 0 2e-3 0 0.01 0.0082 0.0148l0.10882-0.0528c-0.05441-0.12366-0.17807-0.20445-0.31493-0.20445z"/>
    <path d="m51.816 204.05h0.12201v-0.43364c0-0.0495 0.0049-0.0874 0.03627-0.12861 0.02968-0.0379 0.10223-0.10553 0.18137-0.10553 0.03792 0 0.07585 0.0165 0.10223 0.0478 0.04122 0.0495 0.04122 0.11377 0.04122 0.16653v0.45343h0.11707v-0.45673c0-0.0577-0.0016-0.12036-0.02803-0.18137-0.03792-0.0841-0.11377-0.1319-0.19951-0.1319-0.10223 0-0.19621 0.066-0.25062 0.15004v-0.43694c0-5e-3 0-0.01 0.0049-0.0148 0.0049-5e-3 0.01154-0.01 0.01154-0.0181 0-2e-3 0-3e-3 -0.0016-5e-3h-0.13685z"/>
    <path d="m52.675 203.39 0.05771 0.0759c0.06266-0.0643 0.14675-0.0841 0.21764-0.0841 0.08904 0 0.13356 0.0379 0.15499 0.0726 0.02473 0.0412 0.02308 0.0907 0.02308 0.13025v0.0264h-0.02308c-0.11212 0-0.23084 0-0.32647 0.0346-0.11872 0.0429-0.17148 0.13191-0.17148 0.21435 0 0.11047 0.09563 0.21435 0.25227 0.21435 0.09233 0 0.18797-0.0346 0.27041-0.10223v0.0824h0.11212v-0.46662c0-0.061-0.0016-0.11871-0.03627-0.17807-0.04947-0.0808-0.1451-0.12366-0.26216-0.12366-0.10058 0-0.19786 0.0313-0.26876 0.10387zm0.45837 0.31163v0.0511c0 0.0379 0 0.0874-0.05111 0.1418-0.02803 0.028-0.09893 0.089-0.19786 0.089-0.10058 0-0.15829-0.0643-0.15829-0.13026 0-0.0561 0.03792-0.11706 0.13191-0.14015 0.06925-0.0165 0.16983-0.0115 0.24897-0.0115z"/>
    <path d="m53.463 204.05h0.12036v-0.43364c0-0.0495 0.0066-0.0874 0.03792-0.12861 0.02803-0.0379 0.10058-0.10553 0.17972-0.10553 0.03792 0 0.07585 0.0165 0.10223 0.0478 0.04122 0.0495 0.04122 0.11377 0.04122 0.16653v0.45343h0.11707v-0.45673c0-0.0577 0-0.12036-0.02638-0.18137-0.03792-0.0841-0.11542-0.1319-0.20116-0.1319-0.10223 0-0.19456 0.066-0.25062 0.15004v-0.13191h-0.12036z"/>
    <path d="m54.382 203.53c0-0.0907 0.07585-0.16488 0.16653-0.16488 0.09234 0 0.16653 0.0742 0.16653 0.16488 0 0.0907-0.0742 0.16488-0.16653 0.16488-0.09233 0-0.16653-0.0742-0.16653-0.16488zm0.17313-0.25887c-0.15004 0-0.2803 0.11872-0.2803 0.26546 0 0.0824 0.04122 0.15994 0.11047 0.20446-0.05441 0.0462-0.08574 0.0973-0.08574 0.14509 0 0.0313 0.01319 0.0759 0.06101 0.10058-0.08079 0.0511-0.12201 0.10718-0.12201 0.16654 0 0.0824 0.07585 0.17972 0.33966 0.17972 0.25557 0 0.3479-0.13026 0.3479-0.23084 0-0.0659-0.03792-0.1319-0.11707-0.16323-0.07914-0.033-0.16983-0.0214-0.25557-0.0214-0.05606 0-0.09233-5e-3 -0.10717-0.01-0.02968-8e-3 -0.04617-0.0264-0.04617-0.0495 0-0.0396 0.04617-0.0775 0.05441-0.0841 0.02968 0.0115 0.06266 0.0165 0.09563 0.0165 0.1484 0 0.27041-0.11871 0.27041-0.25721 0-0.0462-0.01319-0.0907-0.03792-0.12861 0.03957-0.0231 0.08574-0.0363 0.13191-0.0363 0.01484 0 0.02803 2e-3 0.04287 5e-3l-0.01319-0.0973c-0.07585-7e-3 -0.15169 0.0181-0.2094 0.0659-0.04782-0.0462-0.11047-0.0709-0.17972-0.0709zm-0.11377 0.73703c0.02803 3e-3 0.0676 7e-3 0.12531 0.01 0.05606 2e-3 0.11707-3e-3 0.15994 3e-3 0.06925 0.0115 0.09069 0.0544 0.09069 0.0874s-0.01979 0.0725-0.0709 0.10058c-0.05606 0.0297-0.11872 0.033-0.16983 0.033-0.03462 0-0.09893-2e-3 -0.15499-0.0247-0.06101-0.0247-0.0742-0.0659-0.0742-0.0923 0-0.0544 0.05111-0.094 0.09398-0.11706z"/>
    <path d="m55.425 203.28c-0.17972 0-0.34625 0.12861-0.34625 0.40231 0 0.25227 0.15664 0.38583 0.36109 0.38583 0.10882 0 0.2061-0.0396 0.27041-0.11707l-0.06595-0.0643c-0.04782 0.0561-0.12036 0.0857-0.19456 0.0857-0.10058 0-0.24732-0.0561-0.25557-0.28195h0.53422c0.0049-0.0511 0.0033-0.10058-0.0049-0.14345-0.03462-0.20281-0.17478-0.26711-0.29844-0.26711zm-0.22754 0.31987c0.02473-0.17807 0.1385-0.22919 0.21929-0.22919 0.12201 0 0.2094 0.10718 0.19456 0.22919z"/>
    <path d="m56.777 203.02v0.11047h0.44024c-0.05276 0.12202-0.10223 0.24403-0.15004 0.36769-0.06925 0.18137-0.1352 0.36439-0.19621 0.54906h0.13026c0.04946-0.16159 0.10388-0.32152 0.16323-0.47981 0.05936-0.16323 0.12531-0.32317 0.19456-0.48311v-0.0643z"/>
   </g>
   <g transform="matrix(.26381 0 0 -.26381 171.14 78.842)" opacity=".91" stroke="#d54747" stroke-width="1.0698">
    <path d="m45.42 66.92 15.514-15.426" fill="none" stroke="#d54747" stroke-width="1.0698px"/>
   </g>
  </g>
  <g transform="matrix(-.35666 .35078 .35078 .35666 268.95 -208.53)" stroke-width="1.0698">
   <path d="m501.47 274.25-1.2053 3.2778-1.2053-3.2778c0.71162 0.52365 1.6852 0.52064 2.4106 0z" fill="#fff" fill-rule="evenodd" stroke="#d54747" stroke-linejoin="round" stroke-width=".20058"/>
  </g>
  <g fill="#fff" stroke="#ecf500" stroke-linecap="round" stroke-width="1.0153">
   <path transform="matrix(.26057 0 0 .26064 141.22 82.962)" d="m145.46-125.76-0.35729 3.3994-3.3434 0.71066-1.7091-2.9602 2.2872-2.5402z" opacity=".51" style="paint-order:normal"/>
   <path transform="matrix(.26057 0 0 .26064 146.51 82.962)" d="m145.46-125.76-0.35729 3.3994-3.3434 0.71066-1.7091-2.9602 2.2872-2.5402z" opacity=".51" style="paint-order:normal"/>
   <path transform="matrix(.26057 0 0 .26064 151.81 82.962)" d="m145.46-125.76-0.35729 3.3994-3.3434 0.71066-1.7091-2.9602 2.2872-2.5402z" style="paint-order:normal"/>
   <path transform="matrix(.26057 0 0 .26064 157.1 82.962)" d="m145.46-125.76-0.35729 3.3994-3.3434 0.71066-1.7091-2.9602 2.2872-2.5402z" style="paint-order:normal"/>
   <path transform="matrix(.26057 0 0 .26064 162.39 82.962)" d="m145.46-125.76-0.35729 3.3994-3.3434 0.71066-1.7091-2.9602 2.2872-2.5402z" style="paint-order:normal"/>
   <path transform="matrix(.26057 0 0 .26064 167.68 82.962)" d="m145.46-125.76-0.35729 3.3994-3.3434 0.71066-1.7091-2.9602 2.2872-2.5402z" style="paint-order:normal"/>
   <path transform="matrix(.26057 0 0 .26064 172.97 82.962)" d="m145.46-125.76-0.35729 3.3994-3.3434 0.71066-1.7091-2.9602 2.2872-2.5402z" style="paint-order:normal"/>
   <path transform="matrix(.26057 0 0 .26064 172.97 92.223)" d="m145.46-125.76-0.35729 3.3994-3.3434 0.71066-1.7091-2.9602 2.2872-2.5402z" style="paint-order:normal"/>
   <path transform="matrix(.26057 0 0 .26064 167.68 92.223)" d="m145.46-125.76-0.35729 3.3994-3.3434 0.71066-1.7091-2.9602 2.2872-2.5402z" style="paint-order:normal"/>
   <path transform="matrix(.26057 0 0 .26064 162.39 92.223)" d="m145.46-125.76-0.35729 3.3994-3.3434 0.71066-1.7091-2.9602 2.2872-2.5402z" style="paint-order:normal"/>
   <path transform="matrix(.26057 0 0 .26064 157.1 92.223)" d="m145.46-125.76-0.35729 3.3994-3.3434 0.71066-1.7091-2.9602 2.2872-2.5402z" style="paint-order:normal"/>
   <path transform="matrix(.26057 0 0 .26064 151.81 92.223)" d="m145.46-125.76-0.35729 3.3994-3.3434 0.71066-1.7091-2.9602 2.2872-2.5402z" style="paint-order:normal"/>
   <path transform="matrix(.26057 0 0 .26064 146.51 92.223)" d="m145.46-125.76-0.35729 3.3994-3.3434 0.71066-1.7091-2.9602 2.2872-2.5402z" style="paint-order:normal"/>
   <path transform="matrix(.26057 0 0 .26064 151.81 101.48)" d="m145.46-125.76-0.35729 3.3994-3.3434 0.71066-1.7091-2.9602 2.2872-2.5402z" style="paint-order:normal"/>
   <path transform="matrix(.26057 0 0 .26064 157.1 101.48)" d="m145.46-125.76-0.35729 3.3994-3.3434 0.71066-1.7091-2.9602 2.2872-2.5402z" style="paint-order:normal"/>
   <path transform="matrix(.26057 0 0 .26064 162.39 101.48)" d="m145.46-125.76-0.35729 3.3994-3.3434 0.71066-1.7091-2.9602 2.2872-2.5402z" style="paint-order:normal"/>
   <path transform="matrix(.26057 0 0 .26064 167.68 101.48)" d="m145.46-125.76-0.35729 3.3994-3.3434 0.71066-1.7091-2.9602 2.2872-2.5402z" style="paint-order:normal"/>
   <path transform="matrix(.26057 0 0 .26064 172.97 101.48)" d="m145.46-125.76-0.35729 3.3994-3.3434 0.71066-1.7091-2.9602 2.2872-2.5402z" style="paint-order:normal"/>
  </g>
  <g stroke-width="1.0698">
   <g transform="matrix(.26381 0 0 -.26381 187.02 69.608)" opacity=".91" stroke="#d54747">
    <path d="m45.42 66.92 15.514-15.426" fill="none" stroke="#d54747" stroke-width="1.0698px"/>
   </g>
   <g transform="matrix(-.35666 .35078 .35078 .35666 284.78 -217.84)">
    <path d="m501.47 274.25-1.2053 3.2778-1.2053-3.2778c0.71162 0.52365 1.6852 0.52064 2.4106 0z" fill="#fff" fill-rule="evenodd" stroke="#d54747" stroke-linejoin="round" stroke-width=".20058"/>
   </g>
   <g transform="matrix(.26381 0 0 .26381 187.04 48.421)" opacity=".91" stroke="#d54747">
    <path d="m45.42 66.92 15.514-15.426" fill="none" stroke="#d54747" stroke-width="1.0698px"/>
   </g>
   <g transform="matrix(.32727 .37835 .37835 -.32727 -64.512 -37.417)">
    <path d="m501.47 274.25-1.2053 3.2778-1.2053-3.2778c0.71162 0.52365 1.6852 0.52064 2.4106 0z" fill="#fff" fill-rule="evenodd" stroke="#d54747" stroke-linejoin="round" stroke-width=".20058"/>
   </g>
  </g>
  <g fill="#fff" stroke-linecap="round" stroke-width=".26458">
   <g stroke="#00f542">
    <circle cx="204.77" cy="48.809" r=".68213" opacity=".4" style="paint-order:normal"/>
    <circle cx="210.06" cy="48.809" r=".68213" style="paint-order:normal"/>
    <circle cx="204.77" cy="58.069" r=".68213" style="paint-order:normal"/>
    <circle cx="210.06" cy="58.069" r=".68213" style="paint-order:normal"/>
   </g>
   <circle cx="204.77" cy="67.33" r=".68213" opacity=".4" stroke="#00b7f5" style="paint-order:normal"/>
   <circle cx="210.06" cy="67.33" r=".68213" stroke="#00f542" style="paint-order:normal"/>
  </g>
  <g stroke-width="1.0698">
   <g transform="matrix(.26381 0 0 .26381 192.36 39.188)" opacity=".91" stroke="#d54747">
    <path d="m45.42 66.92 15.514-15.426" fill="none" stroke="#d54747" stroke-width="1.0698px"/>
   </g>
   <g transform="matrix(.32727 .37835 .37835 -.32727 -59.243 -46.568)">
    <path d="m501.47 274.25-1.2053 3.2778-1.2053-3.2778c0.71162 0.52365 1.6852 0.52064 2.4106 0z" fill="#fff" fill-rule="evenodd" stroke="#d54747" stroke-linejoin="round" stroke-width=".20058"/>
   </g>
   <g transform="matrix(.26381 0 0 -.26381 192.31 78.842)" opacity=".91" stroke="#d54747">
    <path d="m45.42 66.92 15.514-15.426" fill="none" stroke="#d54747" stroke-width="1.0698px"/>
   </g>
   <g transform="matrix(-.35666 .35078 .35078 .35666 290.12 -208.53)">
    <path d="m501.47 274.25-1.2053 3.2778-1.2053-3.2778c0.71162 0.52365 1.6852 0.52064 2.4106 0z" fill="#fff" fill-rule="evenodd" stroke="#d54747" stroke-linejoin="round" stroke-width=".20058"/>
   </g>
  </g>
  <g transform="rotate(-43.782)" fill="#e9e56f" opacity=".91" stroke-width=".28222px" aria-label="too late!">
   <path d="m98.473 184.16-0.01081 0.1477h-0.13089l-0.0012 0.0708h0.12848c-0.0072 0.0937-0.01081 0.18733-0.01081 0.27979 0 0.0492 0 0.10447 0.03242 0.1501 0.02642 0.036 0.06844 0.0576 0.12488 0.0576 0.06484 0 0.12848-0.0276 0.17531-0.0612l-0.02642-0.0684c-0.04683 0.0348-0.09006 0.0504-0.12368 0.0504-0.04083 0-0.08285-0.0228-0.09246-0.0889 0-5e-3 -0.0036-0.0252-0.0036-0.10567 0-0.0708 0.0036-0.14289 0.01081-0.21374h0.18012v-0.072h-0.17892s0.0084-0.0985 0.01441-0.12969c0.0012-0.012 0.01081-0.0192 6e-3 -0.0324z"/>
   <path d="m99.4 184.59c0-0.18973-0.12008-0.28819-0.24496-0.28819-0.13929 0-0.25937 0.12008-0.25937 0.29059 0 0.16691 0.11888 0.28459 0.25697 0.28459 0.12968 0 0.24736-0.10447 0.24736-0.28699zm-0.25096-0.21494c0.07925 0 0.16331 0.0684 0.16331 0.21854 0 0.13809-0.07925 0.20774-0.1585 0.20774-0.08766 0-0.16691-0.0817-0.16691-0.21735 0-0.13448 0.07805-0.20893 0.16211-0.20893z"/>
   <path d="m100 184.59c0-0.18973-0.12008-0.28819-0.24496-0.28819-0.13929 0-0.25937 0.12008-0.25937 0.29059 0 0.16691 0.11888 0.28459 0.25697 0.28459 0.12968 0 0.24736-0.10447 0.24736-0.28699zm-0.25096-0.21494c0.07925 0 0.16331 0.0684 0.16331 0.21854 0 0.13809-0.07925 0.20774-0.1585 0.20774-0.08766 0-0.16691-0.0817-0.16691-0.21735 0-0.13448 0.07805-0.20893 0.16211-0.20893z"/>
   <path d="m100.75 184.06v0.0696h0.1561v0.65923h-0.1633v0.0685h0.41186v-0.0685h-0.1621v-0.72888z"/>
   <path d="m101.36 184.38 0.042 0.0552c0.0456-0.0468 0.10687-0.0612 0.1585-0.0612 0.0648 0 0.0973 0.0276 0.11287 0.0528 0.018 0.03 0.0168 0.066 0.0168 0.0949v0.0192h-0.0168c-0.0816 0-0.16811 0-0.23775 0.0252-0.0865 0.0312-0.12488 0.0961-0.12488 0.1561 0 0.0805 0.0696 0.15611 0.18372 0.15611 0.0672 0 0.13689-0.0252 0.19692-0.0744v0.06h0.0817v-0.33983c0-0.0444-1e-3 -0.0864-0.0264-0.12968-0.036-0.0588-0.10567-0.0901-0.19092-0.0901-0.0732 0-0.1441 0.0228-0.19573 0.0756zm0.33382 0.22695v0.0372c0 0.0276 0 0.0636-0.0372 0.10327-0.0204 0.0204-0.072 0.0648-0.14409 0.0648-0.0733 0-0.11528-0.0468-0.11528-0.0949 0-0.0408 0.0276-0.0853 0.0961-0.10207 0.0504-0.012 0.12368-8e-3 0.18131-8e-3z"/>
   <path d="m102.08 184.16-0.0108 0.1477h-0.13088l-1e-3 0.0708h0.12849c-7e-3 0.0937-0.0108 0.18733-0.0108 0.27979 0 0.0492 0 0.10447 0.0324 0.1501 0.0264 0.036 0.0684 0.0576 0.12488 0.0576 0.0649 0 0.12849-0.0276 0.17532-0.0612l-0.0264-0.0684c-0.0468 0.0348-0.0901 0.0504-0.12368 0.0504-0.0408 0-0.0828-0.0228-0.0925-0.0889 0-5e-3 -4e-3 -0.0252-4e-3 -0.10567 0-0.0708 4e-3 -0.14289 0.0108-0.21374h0.18011v-0.072h-0.17891s8e-3 -0.0985 0.0144-0.12969c1e-3 -0.012 0.0108-0.0192 6e-3 -0.0324z"/>
   <path d="m102.76 184.3c-0.13089 0-0.25217 0.0937-0.25217 0.29299 0 0.18372 0.11408 0.28098 0.26297 0.28098 0.0793 0 0.1501-0.0288 0.19693-0.0853l-0.048-0.0468c-0.0348 0.0408-0.0877 0.0624-0.14169 0.0624-0.0733 0-0.18012-0.0408-0.18612-0.20534h0.38905c4e-3 -0.0372 2e-3 -0.0732-4e-3 -0.10446-0.0252-0.1477-0.12728-0.19453-0.21734-0.19453zm-0.16571 0.23295c0.018-0.12968 0.10086-0.16691 0.1597-0.16691 0.0889 0 0.1525 0.078 0.1417 0.16691z"/>
   <path d="m103.41 184.8c0-0.0396-0.0312-0.072-0.0709-0.072-0.0396 0-0.0708 0.0324-0.0708 0.072 0 0.0384 0.0312 0.0709 0.0708 0.0709s0.0709-0.0324 0.0709-0.0709zm-0.0684-0.74449c-0.0216 0-0.042 0.012-0.0528 0.0384-6e-3 0.0132-8e-3 0.0288-8e-3 0.0516 0 0.0384 7e-3 0.0672 0.012 0.1465l0.0168 0.33141h0.06l0.0228-0.33141c2e-3 -0.0456 0.0108-0.0913 0.0108-0.13689 0-0.0276-2e-3 -0.042-5e-3 -0.0492-0.01-0.036-0.0348-0.0504-0.0564-0.0504z"/>
  </g>
  <circle cx="204.23" cy="58.746" r="4.9775" fill="none" stroke="#a6a0f5" stroke-dasharray="0.26458334, 0.52916668" stroke-linecap="round" stroke-width=".26458" style="paint-order:normal"/>
 </g>
</svg>
