<svg width="73.386mm" height="39.551mm" version="1.1" viewBox="0 0 73.386 39.551" xmlns="http://www.w3.org/2000/svg">
 <g transform="translate(-57.366 -49.235)">
  <g fill="none" stroke="#e9e56f">
   <path d="m97.941 60.714v-3.9572" opacity=".91" stroke-width=".056444"/>
   <rect x="66.31" y="66.017" width="63.372" height="3.9044" opacity=".91" stroke-width=".14111"/>
   <g>
    <g stroke-width=".14111">
     <path d="m71.56 69.947v-3.9572" opacity=".91"/>
     <path d="m76.836 69.947v-3.9572" opacity=".91"/>
     <path d="m82.112 69.947v-3.9572" opacity=".91"/>
     <path d="m87.388 69.947v-3.9572" opacity=".91"/>
     <path d="m92.665 69.947v-3.9572" opacity=".91"/>
     <path d="m97.941 69.947v-3.9572" opacity=".91"/>
    </g>
    <path d="m97.941 79.181v-3.9572" opacity=".91" stroke-width=".056444"/>
   </g>
   <rect x="66.31" y="75.25" width="63.372" height="3.9044" opacity=".91" stroke-width=".14111"/>
   <g stroke-width=".14111">
    <path d="m71.56 79.181v-3.9572" opacity=".91"/>
    <path d="m76.836 79.181v-3.9572" opacity=".91"/>
    <path d="m82.112 79.181v-3.9572" opacity=".91"/>
    <path d="m87.388 79.181v-3.9572" opacity=".91"/>
    <path d="m92.665 79.181v-3.9572" opacity=".91"/>
    <path d="m97.941 79.181v-3.9572" opacity=".91"/>
   </g>
  </g>
  <g fill="#e9e56f" stroke-width=".28222px">
   <g opacity=".91" aria-label="Client A">
    <path d="m58.756 58.268c-0.15994 0-0.39077 0.11707-0.39077 0.52927 0 0.39572 0.22094 0.52433 0.39077 0.52433 0.12201 0 0.23578-0.06431 0.30009-0.16983l-0.08409-0.05441c-0.04782 0.07749-0.13026 0.12366-0.2094 0.12366-0.15169 0-0.28525-0.15664-0.28525-0.43529 0-0.27206 0.13026-0.4254 0.27535-0.4254 0.07914 0 0.15499 0.04782 0.19621 0.12036 0.0033 0.0049 0.0066 0.0099 0.0066 0.01649 0 0.0049-0.0016 0.0082-0.0016 0.01319 0 0.0016 0 0.0099 0.0082 0.01484l0.10882-0.05276c-0.05441-0.12366-0.17807-0.20446-0.31493-0.20446z"/>
    <path d="m59.263 58.209v0.09563h0.21435v0.90521h-0.22424v0.09398h0.56555v-0.09398h-0.22259v-1.0008z"/>
    <path d="m60.123 58.55v0.09728h0.18137v0.56225h-0.19126v0.09398h0.48805v-0.09398h-0.17642v-0.65953zm0.24403-0.32647c-0.04782 0-0.08574 0.03792-0.08574 0.08409s0.03792 0.08409 0.08574 0.08409 0.08574-0.03792 0.08574-0.08409-0.03792-0.08409-0.08574-0.08409z"/>
    <path d="m61.198 58.533c-0.17972 0-0.34625 0.12861-0.34625 0.40231 0 0.25227 0.15664 0.38583 0.36109 0.38583 0.10882 0 0.2061-0.03957 0.27041-0.11707l-0.06595-0.0643c-0.04782 0.05606-0.12036 0.08574-0.19456 0.08574-0.10058 0-0.24732-0.05606-0.25557-0.28195h0.53422c0.0049-0.05111 0.0033-0.10058-0.0049-0.14345-0.03462-0.20281-0.17478-0.26711-0.29844-0.26711zm-0.22754 0.31987c0.02473-0.17807 0.1385-0.22919 0.21929-0.22919 0.12201 0 0.2094 0.10717 0.19456 0.22919z"/>
    <path d="m61.709 59.303h0.12036v-0.43364c0-0.04946 0.0066-0.08739 0.03792-0.12861 0.02803-0.03792 0.10058-0.10552 0.17972-0.10552 0.03792 0 0.07585 0.01649 0.10223 0.04782 0.04122 0.04946 0.04122 0.11377 0.04122 0.16653v0.45343h0.11707v-0.45673c0-0.05771 0-0.12036-0.02638-0.18137-0.03792-0.08409-0.11542-0.13191-0.20116-0.13191-0.10223 0-0.19456 0.06595-0.25062 0.15004v-0.13191h-0.12036z"/>
    <path d="m62.732 58.349-0.01484 0.20281h-0.17972l-0.0016 0.09728h0.17642c-0.0099 0.12861-0.01484 0.25722-0.01484 0.38418 0 0.0676 0 0.14345 0.04452 0.2061 0.03627 0.04946 0.09398 0.07914 0.17148 0.07914 0.08904 0 0.17642-0.03792 0.24073-0.08409l-0.03627-0.09398c-0.0643 0.04782-0.12366 0.06925-0.16983 0.06925-0.05606 0-0.11377-0.03133-0.12696-0.12201 0-0.0066-0.0049-0.03462-0.0049-0.1451 0-0.09728 0.0049-0.19621 0.01484-0.29349h0.24732v-0.09893h-0.24568s0.01154-0.1352 0.01979-0.17807c0.0016-0.01649 0.01484-0.02638 0.0082-0.04452z"/>
    <path d="m64.094 59.305h0.11377l0.10058-0.30174h0.32482l0.11377 0.30009h0.12036l-0.39737-1.0454h-0.01319zm0.51444-0.39077h-0.27865l0.13356-0.39077z"/>
   </g>
   <g opacity=".91" aria-label="Server">
    <path d="m60.815 67.633c-0.06925-0.08409-0.17148-0.12861-0.2836-0.12861-0.18632 0-0.31328 0.12201-0.31328 0.26381 0 0.05936 0.02308 0.13685 0.10882 0.19951 0.09563 0.0709 0.24403 0.10552 0.32152 0.15499 0.0676 0.04122 0.08574 0.09563 0.08574 0.1418 0 0.08904-0.07585 0.18632-0.22424 0.18632-0.11212 0-0.19951-0.05606-0.24568-0.11377-0.0049-0.0066-0.0049-0.0099-0.0049-0.01649 0-0.0033 0-0.01319-0.0066-0.01649l-0.06925 0.11872c0.08079 0.08739 0.19621 0.13191 0.32317 0.13191 0.25062 0 0.34296-0.16818 0.34296-0.29679 0-0.05441-0.01649-0.12531-0.08079-0.18632-0.08904-0.08409-0.23413-0.11377-0.32812-0.16818-0.08574-0.05111-0.10388-0.11212-0.10388-0.15334 0-0.07914 0.0676-0.15004 0.18467-0.15004 0.09563 0 0.16983 0.04287 0.2094 0.10058 0.0049 0.0066 0.0033 0.0099 0.0033 0.01649 0 0.0099 0.0049 0.01319 0.0082 0.01319z"/>
    <path d="m61.35 67.767c-0.17972 0-0.34625 0.12861-0.34625 0.40231 0 0.25227 0.15664 0.38583 0.36109 0.38583 0.10882 0 0.2061-0.03957 0.27041-0.11707l-0.06595-0.0643c-0.04782 0.05606-0.12036 0.08574-0.19456 0.08574-0.10058 0-0.24732-0.05606-0.25557-0.28195h0.53422c0.0049-0.05111 0.0033-0.10058-0.0049-0.14345-0.03463-0.2028-0.17478-0.26711-0.29844-0.26711zm-0.22754 0.31987c0.02473-0.17807 0.1385-0.22919 0.21929-0.22919 0.12201 0 0.2094 0.10717 0.19456 0.22919z"/>
    <path d="m61.912 67.785v0.75352h0.11872v-0.36604c0-0.04617 0.0016-0.09563 0.05276-0.17642 0.06925-0.10882 0.15829-0.12696 0.2127-0.12696 0.06265 0 0.10223 0.02968 0.12366 0.05606 0.0099 0.01319 0.01484 0.02638 0.02803 0.03792l0.05606-0.11377c-0.04782-0.04946-0.11707-0.08244-0.20116-0.08244-0.11047 0-0.22259 0.05606-0.27206 0.16323l0.0049-0.1451z"/>
    <path d="m62.637 67.783 0.29844 0.76011h0.09398l0.18302-0.43034c0.04452-0.10552 0.08739-0.21435 0.11212-0.32976h-0.10717c-0.01979 0.11047-0.05936 0.21435-0.10223 0.31328l-0.12036 0.2803-0.21765-0.55071c-0.0016-0.0033-0.0033-0.0066-0.0033-0.0099 0-0.0099 0.0082-0.01979 0.0049-0.03298z"/>
    <path d="m63.823 67.767c-0.17972 0-0.34625 0.12861-0.34625 0.40231 0 0.25227 0.15664 0.38583 0.36109 0.38583 0.10882 0 0.2061-0.03957 0.27041-0.11707l-0.06595-0.0643c-0.04782 0.05606-0.12036 0.08574-0.19456 0.08574-0.10058 0-0.24732-0.05606-0.25557-0.28195h0.53422c0.0049-0.05111 0.0033-0.10058-0.0049-0.14345-0.03463-0.2028-0.17478-0.26711-0.29844-0.26711zm-0.22754 0.31987c0.02473-0.17807 0.1385-0.22919 0.21929-0.22919 0.12201 0 0.2094 0.10717 0.19456 0.22919z"/>
    <path d="m64.385 67.785v0.75352h0.11872v-0.36604c0-0.04617 0.0016-0.09563 0.05276-0.17642 0.06925-0.10882 0.15829-0.12696 0.2127-0.12696 0.06266 0 0.10223 0.02968 0.12366 0.05606 0.0099 0.01319 0.01484 0.02638 0.02803 0.03792l0.05606-0.11377c-0.04782-0.04946-0.11707-0.08244-0.20116-0.08244-0.11047 0-0.22259 0.05606-0.27206 0.16323l0.0049-0.1451z"/>
   </g>
   <g opacity=".91" aria-label="Client B">
    <path d="m58.896 76.735c-0.15994 0-0.39077 0.11707-0.39077 0.52927 0 0.39572 0.22094 0.52433 0.39077 0.52433 0.12201 0 0.23578-0.0643 0.30009-0.16983l-0.08409-0.05441c-0.04782 0.07749-0.13026 0.12366-0.2094 0.12366-0.15169 0-0.28525-0.15664-0.28525-0.43529 0-0.27206 0.13026-0.4254 0.27535-0.4254 0.07914 0 0.15499 0.04782 0.19621 0.12036 0.0033 0.0049 0.0066 0.0099 0.0066 0.01649 0 0.0049-0.0016 0.0082-0.0016 0.01319 0 0.0016 0 0.0099 0.0082 0.01484l0.10882-0.05276c-0.05441-0.12366-0.17807-0.20446-0.31493-0.20446z"/>
    <path d="m59.403 76.675v0.09563h0.21435v0.90521h-0.22424v0.09398h0.56555v-0.09398h-0.22259v-1.0008z"/>
    <path d="m60.263 77.017v0.09728h0.18137v0.56225h-0.19126v0.09398h0.48805v-0.09398h-0.17642v-0.65953zm0.24403-0.32647c-0.04782 0-0.08574 0.03792-0.08574 0.08409s0.03792 0.08409 0.08574 0.08409 0.08574-0.03792 0.08574-0.08409-0.03792-0.08409-0.08574-0.08409z"/>
    <path d="m61.338 77c-0.17972 0-0.34625 0.12861-0.34625 0.40231 0 0.25227 0.15664 0.38583 0.36109 0.38583 0.10882 0 0.2061-0.03957 0.27041-0.11707l-0.06595-0.0643c-0.04782 0.05606-0.12036 0.08574-0.19456 0.08574-0.10058 0-0.24732-0.05606-0.25557-0.28195h0.53422c0.0049-0.05111 0.0033-0.10058-0.0049-0.14345-0.03462-0.2028-0.17478-0.26711-0.29844-0.26711zm-0.22754 0.31987c0.02473-0.17807 0.1385-0.22919 0.21929-0.22919 0.12201 0 0.2094 0.10717 0.19456 0.22919z"/>
    <path d="m61.849 77.77h0.12036v-0.43364c0-0.04947 0.0066-0.08739 0.03792-0.12861 0.02803-0.03792 0.10058-0.10552 0.17972-0.10552 0.03792 0 0.07585 0.01649 0.10223 0.04782 0.04122 0.04946 0.04122 0.11377 0.04122 0.16653v0.45343h0.11707v-0.45672c0-0.05771 0-0.12036-0.02638-0.18137-0.03792-0.08409-0.11542-0.13191-0.20116-0.13191-0.10223 0-0.19456 0.06595-0.25062 0.15004v-0.13191h-0.12036z"/>
    <path d="m62.872 76.816-0.01484 0.2028h-0.17972l-0.0016 0.09728h0.17642c-0.0099 0.12861-0.01484 0.25722-0.01484 0.38418 0 0.0676 0 0.14345 0.04452 0.2061 0.03627 0.04946 0.09398 0.07914 0.17148 0.07914 0.08904 0 0.17642-0.03792 0.24073-0.08409l-0.03628-0.09398c-0.0643 0.04782-0.12366 0.06925-0.16983 0.06925-0.05606 0-0.11377-0.03133-0.12696-0.12201 0-0.0066-0.0049-0.03462-0.0049-0.1451 0-0.09728 0.0049-0.19621 0.01484-0.29349h0.24732v-0.09893h-0.24577s0.01154-0.1352 0.01979-0.17807c0.0016-0.01649 0.01484-0.02638 0.0082-0.04452z"/>
    <path d="m64.29 76.743v1.0272h0.29019c0.06925 0 0.14015 0 0.21105-0.02968 0.11047-0.04782 0.17148-0.1484 0.17148-0.25392 0-0.12036-0.07749-0.22754-0.19126-0.26546 0.09069-0.03792 0.15169-0.12861 0.15169-0.22589 0-0.09234-0.05276-0.18137-0.15004-0.22259-0.0643-0.02803-0.12861-0.02968-0.19126-0.02968zm0.11377 0.09893h0.16158c0.04452 0 0.09068 0 0.13685 0.01814 0.0676 0.02803 0.10388 0.08574 0.10388 0.1451 0 0.05936-0.03463 0.11542-0.09893 0.14345-0.04782 0.01979-0.09728 0.01979-0.14345 0.01979h-0.15994zm0 0.42375h0.16818c0.05111 0 0.10223 0.0016 0.15334 0.02638 0.07585 0.03463 0.11707 0.10882 0.11707 0.18302 0 0.0742-0.03957 0.1418-0.11047 0.17478-0.04452 0.01979-0.08739 0.01979-0.13191 0.01979h-0.19621z"/>
   </g>
   <g opacity=".91" aria-label="Time">
    <path d="m61.809 86.504v0.10388h0.29019v0.92499h0.11707v-0.92499h0.30338v-0.10388z"/>
    <path d="m62.757 86.778v0.09728h0.18137v0.56225h-0.19126v0.09398h0.48805v-0.09398h-0.17642v-0.65953zm0.24403-0.32647c-0.04782 0-0.08574 0.03792-0.08574 0.08409s0.03792 0.08409 0.08574 0.08409 0.08574-0.03792 0.08574-0.08409-0.03792-0.08409-0.08574-0.08409z"/>
    <path d="m63.468 87.531h0.10882v-0.50124c0-0.03627 0.0033-0.06925 0.02473-0.10882 0.02638-0.04946 0.05936-0.06925 0.09069-0.06925 0.02638 0 0.05606 0.01649 0.06925 0.05771 0.0099 0.03133 0.0082 0.0676 0.0082 0.09893v0.52268h0.11047v-0.49795c0-0.03957 0.0033-0.0709 0.03133-0.11872 0.01319-0.01979 0.04122-0.0676 0.08739-0.0676 0.02473 0 0.04782 0.01484 0.05936 0.04287 0.01484 0.03133 0.01154 0.0742 0.01154 0.10882v0.53422h0.11212v-0.53587c0-0.06266 0.0016-0.12531-0.03133-0.17642-0.02803-0.04287-0.07585-0.05936-0.11707-0.05936-0.07255 0-0.14015 0.04287-0.16983 0.10882-0.01154-0.06266-0.0643-0.10882-0.13191-0.10882-0.06265 0-0.12036 0.03957-0.15499 0.09233l0.0016-0.0742h-0.11047z"/>
    <path d="m64.656 86.761c-0.17972 0-0.34625 0.12861-0.34625 0.40231 0 0.25227 0.15664 0.38583 0.36109 0.38583 0.10882 0 0.2061-0.03957 0.27041-0.11707l-0.06595-0.0643c-0.04782 0.05606-0.12036 0.08574-0.19456 0.08574-0.10058 0-0.24732-0.05606-0.25557-0.28195h0.53422c0.0049-0.05111 0.0033-0.10058-0.0049-0.14345-0.03463-0.20281-0.17478-0.26711-0.29844-0.26711zm-0.22754 0.31987c0.02473-0.17807 0.1385-0.22919 0.21929-0.22919 0.12201 0 0.2094 0.10717 0.19456 0.22919z"/>
   </g>
  </g>
  <g fill="none" stroke="#d54747" stroke-width=".26458">
   <path d="m66.282 87.095h63.428" opacity=".91"/>
   <path d="m66.282 87.786v-1.3858" opacity=".91"/>
   <path d="m71.558 87.786v-1.3858" opacity=".91"/>
   <path d="m76.834 87.786v-1.3858" opacity=".91"/>
   <path d="m82.11 87.786v-1.3858" opacity=".91"/>
   <path d="m87.387 87.786v-1.3858" opacity=".91"/>
   <path d="m92.663 87.786v-1.3858" opacity=".91"/>
   <path d="m97.939 87.786v-1.3858" opacity=".91"/>
   <path d="m103.22 87.786v-1.3858" opacity=".91"/>
  </g>
  <g fill="#e9e56f" stroke-width=".28222px">
   <g transform="rotate(-54.591)" opacity=".91" aria-label="Change 1">
    <path d="m-2.1845 92.074c-0.15994 0-0.39077 0.11707-0.39077 0.52927 0 0.39572 0.22094 0.52433 0.39077 0.52433 0.12201 0 0.23578-0.0643 0.30009-0.16983l-0.08409-0.05441c-0.047816 0.07749-0.13026 0.12366-0.2094 0.12366-0.15169 0-0.28525-0.15664-0.28525-0.43529 0-0.27206 0.13026-0.4254 0.27535-0.4254 0.079144 0 0.15499 0.04782 0.19621 0.12036 0.0033 0.0049 0.0066 0.0099 0.0066 0.01649 0 0.0049-0.00165 0.0082-0.00165 0.01319 0 0.0016 0 0.0099 0.00824 0.01484l0.10882-0.05276c-0.054411-0.12366-0.17807-0.20445-0.31493-0.20445z"/>
    <path d="m-1.703 93.109h0.12201v-0.43364c0-0.04946 0.00495-0.08739 0.036274-0.12861 0.029679-0.03792 0.10223-0.10552 0.18137-0.10552 0.037923 0 0.075846 0.01649 0.10223 0.04782 0.041221 0.04946 0.041221 0.11377 0.041221 0.16653v0.45343h0.11707v-0.45672c0-0.05771-0.00165-0.12036-0.02803-0.18137-0.037923-0.08409-0.11377-0.13191-0.19951-0.13191-0.10223 0-0.19621 0.06595-0.25062 0.15004v-0.43694c0-0.0049 0-0.0099 0.00495-0.01484 0.00495-0.0049 0.011542-0.0099 0.011542-0.01814 0-0.0016 0-0.0033-0.00165-0.0049h-0.13686z"/>
    <path d="m-0.84397 92.445 0.057709 0.07585c0.062655-0.0643 0.14675-0.08409 0.21765-0.08409 0.089037 0 0.13356 0.03792 0.15499 0.07255 0.024732 0.04122 0.023084 0.09069 0.023084 0.13026v0.02638h-0.023084c-0.11212 0-0.23084 0-0.32647 0.03463-0.11872 0.04287-0.17148 0.13191-0.17148 0.21435 0 0.11047 0.095632 0.21435 0.25227 0.21435 0.092334 0 0.18797-0.03463 0.27041-0.10223v0.08244h0.11212v-0.46663c0-0.06101-0.001649-0.11872-0.036274-0.17807-0.049465-0.08079-0.1451-0.12366-0.26216-0.12366-0.10058 0-0.19786 0.03133-0.26876 0.10388zm0.45837 0.31163v0.05111c0 0.03792 0 0.08739-0.051114 0.1418-0.02803 0.02803-0.09893 0.08904-0.19786 0.08904-0.10058 0-0.15829-0.0643-0.15829-0.13026 0-0.05606 0.037923-0.11707 0.13191-0.14015 0.069251-0.01649 0.16983-0.01154 0.24897-0.01154z"/>
    <path d="m-0.055827 93.109h0.12036v-0.43364c0-0.04946 0.0065953-0.08739 0.037923-0.12861 0.02803-0.03792 0.10058-0.10552 0.17972-0.10552 0.037923 0 0.075846 0.01649 0.10223 0.04782 0.041221 0.04946 0.041221 0.11377 0.041221 0.16653v0.45343h0.11707v-0.45672c0-0.05771 0-0.12036-0.026381-0.18137-0.037923-0.08409-0.11542-0.13191-0.20116-0.13191-0.10223 0-0.19456 0.06595-0.25062 0.15004v-0.13191h-0.12036z"/>
    <path d="m0.86257 92.591c0-0.09068 0.075846-0.16488 0.16653-0.16488 0.092334 0 0.16653 0.0742 0.16653 0.16488 0 0.09069-0.074197 0.16488-0.16653 0.16488-0.092334 0-0.16653-0.0742-0.16653-0.16488zm0.17313-0.25887c-0.15004 0-0.2803 0.11872-0.2803 0.26546 0 0.08244 0.041221 0.15994 0.11047 0.20445-0.054411 0.04617-0.085739 0.09728-0.085739 0.1451 0 0.03133 0.013191 0.07585 0.061007 0.10058-0.080792 0.05111-0.12201 0.10717-0.12201 0.16653 0 0.08244 0.075846 0.17972 0.33966 0.17972 0.25557 0 0.3479-0.13026 0.3479-0.23084 0-0.06595-0.037923-0.13191-0.11707-0.16323-0.079144-0.03298-0.16983-0.02144-0.25557-0.02144-0.05606 0-0.092334-0.0049-0.10717-0.0099-0.029679-0.0082-0.046167-0.02638-0.046167-0.04946 0-0.03957 0.046167-0.07749 0.054411-0.08409 0.029679 0.01154 0.062656 0.01649 0.095632 0.01649 0.14839 0 0.27041-0.11872 0.27041-0.25722 0-0.04617-0.013191-0.09068-0.037923-0.12861 0.039572-0.02308 0.085739-0.03628 0.13191-0.03628 0.014839 0 0.02803 0.0016 0.04287 0.0049l-0.013191-0.09728c-0.075846-0.0066-0.15169 0.01814-0.2094 0.06595-0.047816-0.04617-0.11047-0.0709-0.17972-0.0709zm-0.11377 0.73703c0.02803 0.0033 0.067602 0.0066 0.12531 0.0099 0.05606 0.0016 0.11707-0.0033 0.15994 0.0033 0.069251 0.01154 0.090686 0.05441 0.090686 0.08739s-0.019786 0.07255-0.0709 0.10058c-0.05606 0.02968-0.11872 0.03298-0.16983 0.03298-0.034625 0-0.09893-0.0016-0.15499-0.02473-0.061007-0.02473-0.074197-0.06595-0.074197-0.09233 0-0.05441 0.051114-0.09398 0.093983-0.11707z"/>
    <path d="m1.9063 92.339c-0.17972 0-0.34625 0.12861-0.34625 0.40231 0 0.25227 0.15664 0.38582 0.36109 0.38582 0.10882 0 0.2061-0.03957 0.27041-0.11707l-0.065953-0.0643c-0.047816 0.05606-0.12036 0.08574-0.19456 0.08574-0.10058 0-0.24732-0.05606-0.25557-0.28195h0.53422c0.00495-0.05111 0.0033-0.10058-0.00495-0.14345-0.034625-0.20281-0.17478-0.26711-0.29844-0.26711zm-0.22754 0.31987c0.024732-0.17807 0.1385-0.22919 0.21929-0.22919 0.12201 0 0.2094 0.10717 0.19456 0.22919z"/>
    <path d="m3.6194 92.082h-0.075846l-0.26381 0.13685 0.026381 0.06431 0.20445-0.05771v0.79474h-0.19126v0.09068h0.48476v-0.09068h-0.18467z"/>
   </g>
   <g transform="rotate(-54.591)" opacity=".91" aria-label="Change 2">
    <path d="m0.85479 96.349c-0.15994 0-0.39077 0.11707-0.39077 0.52927 0 0.39572 0.22094 0.52433 0.39077 0.52433 0.12201 0 0.23578-0.0643 0.30009-0.16983l-0.08409-0.05441c-0.047816 0.07749-0.13026 0.12366-0.2094 0.12366-0.15169 0-0.28525-0.15664-0.28525-0.43529 0-0.27206 0.13026-0.4254 0.27535-0.4254 0.079144 0 0.15499 0.04782 0.19621 0.12036 0.0033 0.0049 0.0066 0.0099 0.0066 0.01649 0 0.0049-0.00165 0.0082-0.00165 0.01319 0 0.0016 0 0.0099 0.00824 0.01484l0.10882-0.052765c-0.054411-0.12366-0.17807-0.20446-0.31493-0.20446z"/>
    <path d="m1.3362 97.384h0.12201v-0.43364c0-0.04946 0.00495-0.08739 0.036274-0.12861 0.029679-0.03792 0.10223-0.10552 0.18137-0.10552 0.037923 0 0.075846 0.01649 0.10223 0.04782 0.041221 0.04946 0.041221 0.11377 0.041221 0.16653v0.45343h0.11707v-0.45672c0-0.05771-0.00165-0.12036-0.02803-0.18137-0.037923-0.08409-0.11377-0.13191-0.19951-0.13191-0.10223 0-0.19621 0.06595-0.25062 0.15004v-0.43694c0-0.0049 0-0.0099 0.00495-0.01484 0.00495-0.0049 0.011542-0.0099 0.011542-0.01814 0-0.0016 0-0.0033-0.00165-0.0049h-0.13686z"/>
    <path d="m2.1953 96.72 0.057709 0.07585c0.062655-0.06431 0.14675-0.08409 0.21765-0.08409 0.089037 0 0.13356 0.03792 0.15499 0.07255 0.024732 0.04122 0.023084 0.09069 0.023084 0.13026v0.02638h-0.023084c-0.11212 0-0.23084 0-0.32647 0.03462-0.11872 0.04287-0.17148 0.13191-0.17148 0.21435 0 0.11047 0.095632 0.21435 0.25227 0.21435 0.092334 0 0.18797-0.03463 0.27041-0.10223v0.08244h0.11212v-0.46662c0-0.06101-0.00165-0.11872-0.036274-0.17807-0.049465-0.08079-0.1451-0.12366-0.26216-0.12366-0.10058 0-0.19786 0.03133-0.26876 0.10388zm0.45837 0.31163v0.05111c0 0.03792 0 0.08739-0.051114 0.1418-0.02803 0.02803-0.09893 0.08904-0.19786 0.08904-0.10058 0-0.15829-0.0643-0.15829-0.13026 0-0.05606 0.037923-0.11707 0.13191-0.14015 0.069251-0.01649 0.16983-0.01154 0.24897-0.01154z"/>
    <path d="m2.9834 97.384h0.12036v-0.43364c0-0.04946 0.0066-0.08739 0.037923-0.12861 0.02803-0.03792 0.10058-0.10552 0.17972-0.10552 0.037923 0 0.075846 0.01649 0.10223 0.04782 0.041221 0.04946 0.041221 0.11377 0.041221 0.16653v0.45343h0.11707v-0.45672c0-0.05771 0-0.12036-0.026381-0.18137-0.037923-0.08409-0.11542-0.13191-0.20116-0.13191-0.10223 0-0.19456 0.06595-0.25062 0.15004v-0.13191h-0.12036z"/>
    <path d="m3.9018 96.866c0-0.09068 0.075846-0.16488 0.16653-0.16488 0.092334 0 0.16653 0.0742 0.16653 0.16488 0 0.09069-0.074197 0.16488-0.16653 0.16488-0.092334 0-0.16653-0.0742-0.16653-0.16488zm0.17313-0.25887c-0.15004 0-0.2803 0.11872-0.2803 0.26546 0 0.08244 0.041221 0.15994 0.11047 0.20445-0.054411 0.04617-0.085739 0.09728-0.085739 0.1451 0 0.03133 0.013191 0.07585 0.061007 0.10058-0.080792 0.05111-0.12201 0.10717-0.12201 0.16653 0 0.08244 0.075846 0.17972 0.33966 0.17972 0.25557 0 0.3479-0.13026 0.3479-0.23084 0-0.06595-0.037923-0.13191-0.11707-0.16323-0.079144-0.03298-0.16983-0.02143-0.25557-0.02143-0.05606 0-0.092334-0.0049-0.10717-0.0099-0.029679-0.0082-0.046167-0.02638-0.046167-0.04946 0-0.03957 0.046167-0.07749 0.054411-0.08409 0.029679 0.01154 0.062655 0.01649 0.095632 0.01649 0.14839 0 0.27041-0.11872 0.27041-0.25722 0-0.04617-0.013191-0.09069-0.037923-0.12861 0.039572-0.02308 0.085739-0.03627 0.13191-0.03627 0.014839 0 0.02803 0.0016 0.04287 0.0049l-0.013191-0.09728c-0.075846-0.0066-0.15169 0.01814-0.2094 0.06595-0.047816-0.04617-0.11047-0.0709-0.17972-0.0709zm-0.11377 0.73703c0.02803 0.0033 0.067602 0.0066 0.12531 0.0099 0.05606 0.0016 0.11707-0.0033 0.15994 0.0033 0.069251 0.01154 0.090686 0.05441 0.090686 0.08739s-0.019786 0.07255-0.0709 0.10058c-0.05606 0.02968-0.11872 0.03298-0.16983 0.03298-0.034625 0-0.09893-0.0016-0.15499-0.02473-0.061007-0.02473-0.074197-0.06595-0.074197-0.09233 0-0.05441 0.051114-0.09398 0.093983-0.11707z"/>
    <path d="m4.9455 96.614c-0.17972 0-0.34625 0.12861-0.34625 0.40231 0 0.25227 0.15664 0.38582 0.36109 0.38582 0.10882 0 0.2061-0.03957 0.27041-0.11707l-0.065953-0.0643c-0.047816 0.05606-0.12036 0.08574-0.19456 0.08574-0.10058 0-0.24732-0.05606-0.25557-0.28195h0.53422c0.00495-0.05111 0.0033-0.10058-0.00495-0.14345-0.034625-0.20281-0.17478-0.26711-0.29844-0.26711zm-0.22754 0.31987c0.024732-0.17807 0.1385-0.22919 0.21929-0.22919 0.12201 0 0.2094 0.10717 0.19456 0.22919z"/>
    <path d="m6.2959 96.517 0.08409 0.0676c0.00989-0.01484 0.00495-0.02473 0.014839-0.03792 0.024732-0.03792 0.085739-0.09398 0.17478-0.09398 0.11047 0 0.19786 0.08409 0.19786 0.19456 0 0.12531-0.10552 0.216-0.17972 0.2836-0.11707 0.10552-0.2127 0.21105-0.29844 0.38088v0.07255h0.60347v-0.11377c-0.011542-0.0049-0.019786 0.0033-0.023084 0.0066-0.0066 0.0066-0.00989 0.0066-0.016488 0.0066h-0.43199c0.085739-0.1484 0.2061-0.25062 0.2803-0.31987 0.074197-0.0709 0.17972-0.17642 0.17972-0.32482 0-0.15994-0.13026-0.28854-0.29679-0.28854-0.11707 0-0.22754 0.06266-0.28854 0.16653z"/>
   </g>
   <g transform="rotate(-54.591)" opacity=".91" aria-label="Change 3">
    <path d="m-22.18 115.19c-0.15994 0-0.39077 0.11707-0.39077 0.52928 0 0.39572 0.22094 0.52432 0.39077 0.52432 0.12201 0 0.23578-0.0643 0.30009-0.16982l-0.08409-0.0544c-0.04782 0.0775-0.13026 0.12367-0.2094 0.12367-0.15169 0-0.28525-0.15664-0.28525-0.43529 0-0.27206 0.13026-0.4254 0.27535-0.4254 0.07914 0 0.15499 0.0478 0.19621 0.12036 0.0033 5e-3 0.0066 0.01 0.0066 0.0165 0 5e-3 -0.0016 8e-3 -0.0016 0.0132 0 2e-3 0 0.01 0.0082 0.0148l0.10882-0.0528c-0.05441-0.12366-0.17807-0.20446-0.31493-0.20446z"/>
    <path d="m-21.698 116.23h0.12201v-0.43364c0-0.0495 0.0049-0.0874 0.03627-0.12861 0.02968-0.0379 0.10223-0.10553 0.18137-0.10553 0.03792 0 0.07585 0.0165 0.10223 0.0478 0.04122 0.0495 0.04122 0.11377 0.04122 0.16653v0.45343h0.11707v-0.45673c0-0.0577-0.0016-0.12036-0.02803-0.18137-0.03792-0.0841-0.11377-0.1319-0.19951-0.1319-0.10223 0-0.19621 0.066-0.25062 0.15004v-0.43694c0-5e-3 0-0.01 0.0049-0.0148 0.0049-5e-3 0.01154-0.01 0.01154-0.0181 0-2e-3 0-3e-3 -0.0016-5e-3h-0.13685z"/>
    <path d="m-20.839 115.56 0.05771 0.0759c0.06266-0.0643 0.14675-0.0841 0.21765-0.0841 0.08904 0 0.13356 0.0379 0.15499 0.0725 0.02473 0.0412 0.02308 0.0907 0.02308 0.13026v0.0264h-0.02308c-0.11212 0-0.23084 0-0.32647 0.0346-0.11872 0.0429-0.17148 0.1319-0.17148 0.21435 0 0.11047 0.09563 0.21434 0.25227 0.21434 0.09233 0 0.18797-0.0346 0.27041-0.10222v0.0824h0.11212v-0.46662c0-0.061-0.0016-0.11872-0.03627-0.17807-0.04946-0.0808-0.1451-0.12367-0.26216-0.12367-0.10058 0-0.19786 0.0313-0.26876 0.10388zm0.45838 0.31163v0.0511c0 0.0379 0 0.0874-0.05111 0.1418-0.02803 0.028-0.09893 0.089-0.19786 0.089-0.10058 0-0.15829-0.0643-0.15829-0.13026 0-0.0561 0.03792-0.11707 0.13191-0.14015 0.06925-0.0165 0.16983-0.0115 0.24897-0.0115z"/>
    <path d="m-20.051 116.23h0.12036v-0.43364c0-0.0495 0.0066-0.0874 0.03792-0.12861 0.02803-0.0379 0.10058-0.10553 0.17972-0.10553 0.03792 0 0.07585 0.0165 0.10223 0.0478 0.04122 0.0495 0.04122 0.11377 0.04122 0.16653v0.45343h0.11707v-0.45673c0-0.0577 0-0.12036-0.02638-0.18137-0.03792-0.0841-0.11542-0.1319-0.20116-0.1319-0.10223 0-0.19456 0.066-0.25062 0.15004v-0.13191h-0.12036z"/>
    <path d="m-19.133 115.71c0-0.0907 0.07585-0.16489 0.16653-0.16489 0.09233 0 0.16653 0.0742 0.16653 0.16489 0 0.0907-0.0742 0.16488-0.16653 0.16488-0.09233 0-0.16653-0.0742-0.16653-0.16488zm0.17313-0.25887c-0.15004 0-0.2803 0.11872-0.2803 0.26546 0 0.0824 0.04122 0.15994 0.11047 0.20446-0.05441 0.0462-0.08574 0.0973-0.08574 0.14509 0 0.0313 0.01319 0.0759 0.06101 0.10058-0.08079 0.0511-0.12201 0.10717-0.12201 0.16653 0 0.0824 0.07585 0.17972 0.33966 0.17972 0.25557 0 0.3479-0.13025 0.3479-0.23083 0-0.066-0.03792-0.13191-0.11707-0.16323-0.07914-0.033-0.16983-0.0214-0.25557-0.0214-0.05606 0-0.09233-5e-3 -0.10717-0.01-0.02968-8e-3 -0.04617-0.0264-0.04617-0.0495 0-0.0396 0.04617-0.0775 0.05441-0.0841 0.02968 0.0115 0.06266 0.0165 0.09563 0.0165 0.1484 0 0.27041-0.11871 0.27041-0.25722 0-0.0462-0.01319-0.0907-0.03792-0.12861 0.03957-0.0231 0.08574-0.0363 0.13191-0.0363 0.01484 0 0.02803 2e-3 0.04287 5e-3l-0.01319-0.0973c-0.07585-7e-3 -0.15169 0.0181-0.2094 0.066-0.04782-0.0462-0.11047-0.0709-0.17972-0.0709zm-0.11377 0.73703c0.02803 3e-3 0.0676 7e-3 0.12531 0.01 0.05606 2e-3 0.11707-3e-3 0.15994 3e-3 0.06925 0.0115 0.09069 0.0544 0.09069 0.0874s-0.01978 0.0725-0.0709 0.10058c-0.05606 0.0297-0.11872 0.033-0.16983 0.033-0.03463 0-0.09893-2e-3 -0.15499-0.0247-0.06101-0.0247-0.0742-0.066-0.0742-0.0923 0-0.0544 0.05111-0.094 0.09398-0.11706z"/>
    <path d="m-18.089 115.46c-0.17972 0-0.34625 0.1286-0.34625 0.40231 0 0.25227 0.15664 0.38582 0.36109 0.38582 0.10882 0 0.2061-0.0396 0.27041-0.11706l-0.06595-0.0643c-0.04782 0.0561-0.12036 0.0857-0.19456 0.0857-0.10058 0-0.24732-0.0561-0.25557-0.28195h0.53422c0.0049-0.0511 0.0033-0.10058-0.0049-0.14344-0.03463-0.20281-0.17478-0.26711-0.29844-0.26711zm-0.22754 0.31987c0.02473-0.17808 0.1385-0.22919 0.21929-0.22919 0.12201 0 0.2094 0.10717 0.19456 0.22919z"/>
    <path d="m-16.19 115.46c0-0.14016-0.11872-0.26052-0.28195-0.26052-0.09233 0-0.18302 0.0396-0.24732 0.11047l0.0643 0.0709c0.04782-0.0511 0.11377-0.0791 0.17807-0.0791 0.10552 0 0.17807 0.0742 0.17807 0.16158 0 0.061-0.03792 0.13026-0.11047 0.16159-0.01814 7e-3 -0.0643 0.0247-0.16158 0.0247v0.0923c0.01649-2e-3 0.03462-3e-3 0.05276-3e-3 0.1385 0 0.24073 0.0725 0.24073 0.19621 0 0.11212-0.08574 0.2094-0.2061 0.2094-0.09563 0-0.15334-0.0627-0.16158-0.0709-0.01319-0.0148-0.0066-0.0313-0.02144-0.0462l-0.08574 0.10388c0.0676 0.0775 0.16653 0.11706 0.26876 0.11706 0.19786 0 0.31658-0.14015 0.31658-0.30008 0-0.12202-0.06925-0.22589-0.17642-0.26546 0.09233-0.0346 0.15334-0.12202 0.15334-0.22259z"/>
   </g>
  </g>
  <g fill="none" stroke="#e9e56f" stroke-width=".14111">
   <rect x="66.31" y="56.783" width="63.372" height="3.9044" opacity=".91"/>
   <g>
    <path d="m71.56 60.714v-3.9572" opacity=".91"/>
    <path d="m76.836 60.714v-3.9572" opacity=".91"/>
    <path d="m82.112 60.714v-3.9572" opacity=".91"/>
    <path d="m87.388 60.714v-3.9572" opacity=".91"/>
    <path d="m92.665 60.714v-3.9572" opacity=".91"/>
    <path d="m97.941 60.714v-3.9572" opacity=".91"/>
   </g>
  </g>
  <g stroke="#d54747" stroke-width="1.0698">
   <g transform="matrix(.26381 0 0 .26381 67.601 48.219)" opacity=".91">
    <path d="m45.42 66.92 15.514-15.426" fill="none" stroke="#d54747" stroke-width="1.0698px"/>
   </g>
   <g transform="matrix(.26381 0 0 -.26381 67.601 87.873)" opacity=".91">
    <path d="m45.42 66.92 37.233-17.287" fill="none" stroke="#d54747" stroke-width="1.0698px"/>
   </g>
   <g transform="matrix(.26381 0 0 -.26381 62.324 78.64)" opacity=".91">
    <path d="m45.42 66.92 15.514-15.426" fill="none" stroke="#d54747" stroke-width="1.0698px"/>
   </g>
  </g>
  <g stroke-width="1.0698">
   <g transform="matrix(-.35666 .35078 .35078 .35666 160.03 -208.81)">
    <path d="m501.47 274.25-1.2053 3.2778-1.2053-3.2778c0.71162 0.52365 1.6852 0.52064 2.4106 0z" fill="#fff" fill-rule="evenodd" stroke="#d54747" stroke-linejoin="round" stroke-width=".20058"/>
   </g>
   <g transform="matrix(.32727 .37835 .37835 -.32727 -184 -37.537)">
    <path d="m501.47 274.25-1.2053 3.2778-1.2053-3.2778c0.71162 0.52365 1.6852 0.52064 2.4106 0z" fill="#fff" fill-rule="evenodd" stroke="#d54747" stroke-linejoin="round" stroke-width=".20058"/>
   </g>
   <g transform="matrix(-.23558 .44131 .44131 .23558 85.083 -211.17)">
    <path d="m501.47 274.25-1.2053 3.2778-1.2053-3.2778c0.71162 0.52365 1.6852 0.52064 2.4106 0z" fill="#fff" fill-rule="evenodd" stroke="#d54747" stroke-linejoin="round" stroke-width=".20058"/>
   </g>
  </g>
  <g fill="none">
   <g stroke="#e9e56f" stroke-width=".14111">
    <path d="m103.22 60.714v-3.9572" opacity=".91"/>
    <path d="m108.41 60.714v-3.9572" opacity=".91"/>
    <path d="m113.85 60.714v-3.9572" opacity=".91"/>
    <path d="m119.05 60.714v-3.9572" opacity=".91"/>
    <path d="m124.24 60.714v-3.9572" opacity=".91"/>
    <path d="m103.22 69.942v-3.9572" opacity=".91"/>
    <path d="m108.41 69.942v-3.9572" opacity=".91"/>
    <path d="m113.85 69.942v-3.9572" opacity=".91"/>
    <path d="m119.05 69.942v-3.9572" opacity=".91"/>
    <path d="m124.24 69.942v-3.9572" opacity=".91"/>
    <path d="m103.22 79.155v-3.9572" opacity=".91"/>
    <path d="m108.41 79.155v-3.9572" opacity=".91"/>
    <path d="m113.85 79.155v-3.9572" opacity=".91"/>
    <path d="m119.05 79.155v-3.9572" opacity=".91"/>
    <path d="m124.24 79.155v-3.9572" opacity=".91"/>
   </g>
   <g stroke="#d54747" stroke-width=".26458">
    <path d="m118.96 87.786v-1.3858" opacity=".91"/>
    <path d="m124.4 87.786v-1.3858" opacity=".91"/>
    <path d="m129.6 87.786v-1.3858" opacity=".91"/>
    <path d="m108.33 87.786v-1.3858" opacity=".91"/>
    <path d="m113.77 87.786v-1.3858" opacity=".91"/>
   </g>
  </g>
  <g fill="#f9f4f4" stroke="#f50030" stroke-linecap="round" stroke-width=".26458">
   <rect x="72.015" y="57.21" width="1.2921" height="1.2921" opacity=".4" style="paint-order:normal"/>
   <rect x="77.307" y="57.21" width="1.2921" height="1.2921" opacity=".4" style="paint-order:normal"/>
   <rect x="82.599" y="57.21" width="1.2921" height="1.2921" style="paint-order:normal"/>
   <rect x="77.307" y="66.47" width="1.2921" height="1.2921" style="paint-order:normal"/>
   <rect x="87.89" y="75.731" width="1.2921" height="1.2921" style="paint-order:normal"/>
   <rect x="87.89" y="57.21" width="1.2921" height="1.2921" style="paint-order:normal"/>
   <rect x="82.599" y="66.47" width="1.2921" height="1.2921" style="paint-order:normal"/>
   <rect x="87.89" y="66.47" width="1.2921" height="1.2921" style="paint-order:normal"/>
   <rect x="93.182" y="75.731" width="1.2921" height="1.2921" style="paint-order:normal"/>
  </g>
  <g transform="matrix(.26381 0 0 .26381 72.892 57.247)" opacity=".91" stroke="#d54747" stroke-width="1.0698">
   <path d="m45.42 66.92 37.233-17.287" fill="none" stroke="#d54747" stroke-width="1.0698px"/>
  </g>
  <g transform="matrix(-.23558 -.44131 .44131 -.23558 90.375 356.29)" stroke-width="1.0698">
   <path d="m501.47 274.25-1.2053 3.2778-1.2053-3.2778c0.71162 0.52365 1.6852 0.52064 2.4106 0z" fill="#fff" fill-rule="evenodd" stroke="#d54747" stroke-linejoin="round" stroke-width=".20058"/>
  </g>
  <circle cx="80.016" cy="57.84" r=".68213" fill="#fff" opacity=".4" stroke="#f50030" stroke-linecap="round" stroke-width=".26458" style="paint-order:normal"/>
  <g transform="matrix(.26381 0 0 -.26381 67.616 78.64)" opacity=".91" stroke="#d54747" stroke-width="1.0698">
   <path d="m45.42 66.92 15.514-15.426" fill="none" stroke="#d54747" stroke-width="1.0698px"/>
  </g>
  <g transform="matrix(-.35666 .35078 .35078 .35666 165.32 -208.81)" stroke-width="1.0698">
   <path d="m501.47 274.25-1.2053 3.2778-1.2053-3.2778c0.71162 0.52365 1.6852 0.52064 2.4106 0z" fill="#fff" fill-rule="evenodd" stroke="#d54747" stroke-linejoin="round" stroke-width=".20058"/>
  </g>
  <g fill="#fff" stroke="#f50030" stroke-linecap="round" stroke-width=".26458">
   <circle cx="85.308" cy="57.84" r=".68213" opacity=".4" style="paint-order:normal"/>
   <circle cx="90.599" cy="57.84" r=".68213" style="paint-order:normal"/>
   <circle cx="85.308" cy="67.101" r=".68213" style="paint-order:normal"/>
  </g>
  <g transform="matrix(.26381 0 0 .26381 72.892 48.219)" opacity=".91" stroke="#d54747" stroke-width="1.0698">
   <path d="m45.42 66.92 15.514-15.426" fill="none" stroke="#d54747" stroke-width="1.0698px"/>
  </g>
  <g transform="matrix(.32727 .37835 .37835 -.32727 -178.71 -37.537)" stroke-width="1.0698">
   <path d="m501.47 274.25-1.2053 3.2778-1.2053-3.2778c0.71162 0.52365 1.6852 0.52064 2.4106 0z" fill="#fff" fill-rule="evenodd" stroke="#d54747" stroke-linejoin="round" stroke-width=".20058"/>
  </g>
  <circle cx="90.599" cy="67.101" r=".68213" fill="#fff" stroke="#f50030" stroke-linecap="round" stroke-width=".26458" style="paint-order:normal"/>
  <g transform="matrix(.26381 0 0 -.26381 72.892 87.873)" opacity=".91" stroke="#d54747" stroke-width="1.0698">
   <path d="m45.42 66.92 37.233-17.287" fill="none" stroke="#d54747" stroke-width="1.0698px"/>
  </g>
  <g transform="matrix(-.23558 .44131 .44131 .23558 90.375 -211.17)" stroke-width="1.0698">
   <path d="m501.47 274.25-1.2053 3.2778-1.2053-3.2778c0.71162 0.52365 1.6852 0.52064 2.4106 0z" fill="#fff" fill-rule="evenodd" stroke="#d54747" stroke-linejoin="round" stroke-width=".20058"/>
  </g>
  <g fill="#fff" stroke-linecap="round">
   <g stroke="#000bf5" stroke-width="1.0035">
    <path transform="matrix(.26409 0 0 .26324 52.467 93.577)" d="m116.92-60.878 2.5498 4.4164-5.0997-1e-6z" opacity=".4" style="paint-order:normal"/>
    <path transform="matrix(.26409 0 0 .26324 57.759 93.577)" d="m116.92-60.878 2.5498 4.4164-5.0997-1e-6z" opacity=".4" style="paint-order:normal"/>
    <path transform="matrix(.26409 0 0 .26324 63.051 93.577)" d="m116.92-60.878 2.5498 4.4164-5.0997-1e-6z" opacity=".4" style="paint-order:normal"/>
    <path transform="matrix(.26409 0 0 .26324 68.342 93.577)" d="m116.92-60.878 2.5498 4.4164-5.0997-1e-6z" opacity=".4" style="paint-order:normal"/>
    <path transform="matrix(.26409 0 0 .26324 73.634 93.577)" d="m116.92-60.878 2.5498 4.4164-5.0997-1e-6z" style="paint-order:normal"/>
   </g>
   <circle cx="95.891" cy="76.361" r=".68213" stroke="#f50030" stroke-width=".26458" style="paint-order:normal"/>
  </g>
  <g stroke-linecap="round">
   <rect x="93.182" y="66.47" width="1.2921" height="1.2921" fill="#f9f4f4" stroke="#f50030" stroke-width=".26458" style="paint-order:normal"/>
   <circle cx="95.891" cy="67.101" r=".68213" fill="#fff" stroke="#f50030" stroke-width=".26458" style="paint-order:normal"/>
   <path transform="matrix(.26409 0 0 .26324 63.051 84.317)" d="m116.92-60.878 2.5498 4.4164-5.0997-1e-6z" fill="#fff" stroke="#000bf5" stroke-width="1.0035" style="paint-order:normal"/>
  </g>
  <g transform="matrix(.26381 0 0 .26381 83.476 48.219)" opacity=".91" stroke="#d54747" stroke-width="1.0698">
   <path d="m45.42 66.92 15.514-15.426" fill="none" stroke="#d54747" stroke-width="1.0698px"/>
  </g>
  <g transform="matrix(.32727 .37835 .37835 -.32727 -168.12 -37.537)" stroke-width="1.0698">
   <path d="m501.47 274.25-1.2053 3.2778-1.2053-3.2778c0.71162 0.52365 1.6852 0.52064 2.4106 0z" fill="#fff" fill-rule="evenodd" stroke="#d54747" stroke-linejoin="round" stroke-width=".20058"/>
  </g>
  <g stroke-linecap="round">
   <g stroke="#f50030" stroke-width=".26458">
    <rect x="93.182" y="57.21" width="1.2921" height="1.2921" fill="#f9f4f4" style="paint-order:normal"/>
    <circle cx="95.891" cy="57.84" r=".68213" fill="#fff" style="paint-order:normal"/>
    <rect x="98.474" y="57.21" width="1.2921" height="1.2921" fill="#f9f4f4" style="paint-order:normal"/>
    <circle cx="101.18" cy="57.84" r=".68213" fill="#fff" style="paint-order:normal"/>
   </g>
   <path transform="matrix(.26409 0 0 .26324 68.342 75.056)" d="m116.92-60.878 2.5498 4.4164-5.0997-1e-6z" fill="#fff" stroke="#000bf5" stroke-width="1.0035" style="paint-order:normal"/>
   <rect x="98.474" y="66.47" width="1.2921" height="1.2921" fill="#f9f4f4" stroke="#f50030" stroke-width=".26458" style="paint-order:normal"/>
   <circle cx="101.18" cy="67.101" r=".68213" fill="#fff" stroke="#f50030" stroke-width=".26458" style="paint-order:normal"/>
   <path transform="matrix(.26409 0 0 .26324 68.342 84.317)" d="m116.92-60.878 2.5498 4.4164-5.0997-1e-6z" fill="#fff" stroke="#000bf5" stroke-width="1.0035" style="paint-order:normal"/>
  </g>
  <g fill="#e9e56f">
   <g transform="rotate(-54.591)" opacity=".91" stroke-width=".28222px" aria-label="Change 6">
    <path d="m-9.9157 132.44c-0.15994 0-0.39077 0.11707-0.39077 0.52927 0 0.39572 0.22094 0.52433 0.39077 0.52433 0.12201 0 0.23578-0.0643 0.30009-0.16983l-0.08409-0.0544c-0.047816 0.0775-0.13026 0.12366-0.2094 0.12366-0.15169 0-0.28525-0.15664-0.28525-0.43529 0-0.27205 0.13026-0.42539 0.27535-0.42539 0.079144 0 0.15499 0.0478 0.19621 0.12036 0.0033 5e-3 0.0066 0.01 0.0066 0.0165 0 5e-3 -0.00165 8e-3 -0.00165 0.0132 0 2e-3 0 0.01 0.00824 0.0148l0.10882-0.0528c-0.054411-0.12367-0.17807-0.20446-0.31493-0.20446z"/>
    <path d="m-9.4342 133.48h0.12201v-0.43364c0-0.0495 0.00495-0.0874 0.036274-0.12861 0.029679-0.0379 0.10223-0.10552 0.18137-0.10552 0.037923 0 0.075846 0.0165 0.10223 0.0478 0.041221 0.0495 0.041221 0.11376 0.041221 0.16653v0.45342h0.11707v-0.45672c0-0.0577-0.00165-0.12037-0.02803-0.18137-0.037923-0.0841-0.11377-0.13191-0.19951-0.13191-0.10223 0-0.19621 0.066-0.25062 0.15005v-0.43694c0-5e-3 0-0.01 0.00495-0.0148 0.00495-5e-3 0.011542-0.01 0.011542-0.0181 0-2e-3 0-3e-3 -0.00165-5e-3h-0.13685z"/>
    <path d="m-8.5752 132.82 0.057709 0.0758c0.062655-0.0643 0.14675-0.0841 0.21765-0.0841 0.089037 0 0.13356 0.0379 0.15499 0.0726 0.024732 0.0412 0.023084 0.0907 0.023084 0.13026v0.0264h-0.023084c-0.11212 0-0.23084 0-0.32647 0.0346-0.11872 0.0429-0.17148 0.1319-0.17148 0.21434 0 0.11047 0.095632 0.21435 0.25227 0.21435 0.092334 0 0.18797-0.0346 0.27041-0.10223v0.0824h0.11212v-0.46661c0-0.061-0.00165-0.11872-0.036274-0.17808-0.049465-0.0808-0.1451-0.12366-0.26216-0.12366-0.10058 0-0.19786 0.0313-0.26876 0.10388zm0.45837 0.31163v0.0511c0 0.0379 0 0.0874-0.051114 0.1418-0.02803 0.028-0.09893 0.089-0.19786 0.089-0.10058 0-0.15829-0.0643-0.15829-0.13026 0-0.0561 0.037923-0.11707 0.13191-0.14015 0.069251-0.0165 0.16983-0.0115 0.24897-0.0115z"/>
    <path d="m-7.7871 133.48h0.12036v-0.43364c0-0.0495 0.0066-0.0874 0.037923-0.12861 0.02803-0.0379 0.10058-0.10552 0.17972-0.10552 0.037923 0 0.075846 0.0165 0.10223 0.0478 0.041221 0.0495 0.041221 0.11376 0.041221 0.16653v0.45342h0.11707v-0.45672c0-0.0577 0-0.12037-0.026381-0.18137-0.037923-0.0841-0.11542-0.13191-0.20116-0.13191-0.10223 0-0.19456 0.066-0.25062 0.15005v-0.13191h-0.12036z"/>
    <path d="m-6.8687 132.96c0-0.0907 0.075846-0.16488 0.16653-0.16488 0.092334 0 0.16653 0.0742 0.16653 0.16488 0 0.0907-0.074197 0.16489-0.16653 0.16489-0.092334 0-0.16653-0.0742-0.16653-0.16489zm0.17313-0.25886c-0.15004 0-0.2803 0.11871-0.2803 0.26546 0 0.0824 0.041221 0.15993 0.11047 0.20445-0.054411 0.0462-0.085739 0.0973-0.085739 0.1451 0 0.0313 0.013191 0.0759 0.061007 0.10058-0.080793 0.0511-0.12201 0.10717-0.12201 0.16653 0 0.0824 0.075846 0.17972 0.33966 0.17972 0.25557 0 0.3479-0.13026 0.3479-0.23083 0-0.066-0.037923-0.13191-0.11707-0.16324-0.079144-0.033-0.16983-0.0214-0.25557-0.0214-0.05606 0-0.092334-5e-3 -0.10717-0.01-0.029679-8e-3 -0.046167-0.0264-0.046167-0.0495 0-0.0396 0.046167-0.0775 0.054411-0.0841 0.029679 0.0115 0.062655 0.0165 0.095632 0.0165 0.14839 0 0.27041-0.11872 0.27041-0.25722 0-0.0462-0.013191-0.0907-0.037923-0.12861 0.039572-0.0231 0.085739-0.0363 0.13191-0.0363 0.014839 0 0.02803 2e-3 0.04287 5e-3l-0.013191-0.0973c-0.075846-7e-3 -0.15169 0.0181-0.2094 0.066-0.047816-0.0462-0.11047-0.0709-0.17972-0.0709zm-0.11377 0.73702c0.02803 3e-3 0.067602 7e-3 0.12531 0.01 0.05606 2e-3 0.11707-3e-3 0.15994 3e-3 0.069251 0.0115 0.090686 0.0544 0.090686 0.0874s-0.019786 0.0725-0.0709 0.10058c-0.05606 0.0297-0.11872 0.033-0.16983 0.033-0.034625 0-0.09893-2e-3 -0.15499-0.0247-0.061007-0.0247-0.074197-0.0659-0.074197-0.0923 0-0.0544 0.051114-0.094 0.093983-0.11707z"/>
    <path d="m-5.825 132.71c-0.17972 0-0.34625 0.12861-0.34625 0.40232 0 0.25227 0.15664 0.38582 0.36109 0.38582 0.10882 0 0.2061-0.0396 0.27041-0.11707l-0.065953-0.0643c-0.047816 0.0561-0.12036 0.0857-0.19456 0.0857-0.10058 0-0.24732-0.0561-0.25557-0.28195h0.53422c0.00495-0.0511 0.0033-0.10058-0.00495-0.14345-0.034625-0.2028-0.17478-0.26711-0.29844-0.26711zm-0.22754 0.31987c0.024732-0.17807 0.1385-0.22918 0.21929-0.22918 0.12201 0 0.2094 0.10717 0.19456 0.22918z"/>
    <path d="m-4.1283 132.44c-0.12366 0-0.25557 0.0759-0.31987 0.25557-0.034625 0.0973-0.04287 0.21765-0.04287 0.31658 0 0.12036 0.011542 0.24897 0.077495 0.3479 0.059358 0.0907 0.15169 0.13685 0.24238 0.13685 0.15664 0 0.29349-0.1319 0.29349-0.3446s-0.13685-0.33636-0.28195-0.33636c-0.089037 0-0.17313 0.0478-0.21765 0.12366 0.0066-0.3512 0.17478-0.39737 0.24897-0.39737 0.067602 0 0.11377 0.0363 0.12036 0.0429 0.00989 0.0115 0.00989 0.0264 0.024732 0.0379l0.079144-0.089c-0.059358-0.0594-0.1418-0.094-0.22424-0.094zm-0.04287 0.47816c0.082441 0 0.18137 0.0643 0.18137 0.24073 0 0.15994-0.089037 0.23578-0.17642 0.23578-0.12531 0-0.21929-0.14674-0.2061-0.33965 0.046167-0.0841 0.12531-0.13686 0.20116-0.13686z"/>
   </g>
   <g transform="rotate(-54.591)" opacity=".91" stroke-width=".28222px" aria-label="Change 5">
    <path d="m16.185 117.91c-0.15994 0-0.39077 0.11706-0.39077 0.52927 0 0.39572 0.22094 0.52433 0.39077 0.52433 0.12201 0 0.23578-0.0643 0.30009-0.16983l-0.08409-0.0544c-0.04782 0.0775-0.13026 0.12366-0.2094 0.12366-0.15169 0-0.28525-0.15664-0.28525-0.43529 0-0.27206 0.13026-0.4254 0.27535-0.4254 0.07914 0 0.15499 0.0478 0.19621 0.12037 0.0033 5e-3 0.0066 0.01 0.0066 0.0165 0 5e-3 -0.0016 8e-3 -0.0016 0.0132 0 2e-3 0 0.01 0.0082 0.0148l0.10882-0.0528c-0.05441-0.12366-0.17807-0.20445-0.31493-0.20445z"/>
    <path d="m16.666 118.95h0.12201v-0.43364c0-0.0495 0.0049-0.0874 0.03627-0.12861 0.02968-0.0379 0.10223-0.10552 0.18137-0.10552 0.03792 0 0.07585 0.0165 0.10223 0.0478 0.04122 0.0495 0.04122 0.11377 0.04122 0.16653v0.45343h0.11707v-0.45672c0-0.0577-0.0016-0.12037-0.02803-0.18137-0.03792-0.0841-0.11377-0.13191-0.19951-0.13191-0.10223 0-0.19621 0.066-0.25062 0.15004v-0.43694c0-5e-3 0-0.01 0.0049-0.0148 0.0049-5e-3 0.01154-0.01 0.01154-0.0181 0-2e-3 0-3e-3 -0.0016-5e-3h-0.13685z"/>
    <path d="m17.526 118.28 0.05771 0.0758c0.06266-0.0643 0.14674-0.0841 0.21764-0.0841 0.08904 0 0.13356 0.0379 0.15499 0.0725 0.02473 0.0412 0.02308 0.0907 0.02308 0.13026v0.0264h-0.02308c-0.11212 0-0.23084 0-0.32647 0.0346-0.11872 0.0429-0.17148 0.13191-0.17148 0.21435 0 0.11047 0.09563 0.21435 0.25227 0.21435 0.09233 0 0.18797-0.0346 0.27041-0.10223v0.0824h0.11212v-0.46662c0-0.061-0.0016-0.11871-0.03627-0.17807-0.04947-0.0808-0.1451-0.12366-0.26216-0.12366-0.10058 0-0.19786 0.0313-0.26876 0.10387zm0.45837 0.31163v0.0511c0 0.0379 0 0.0874-0.05111 0.1418-0.02803 0.028-0.09893 0.089-0.19786 0.089-0.10058 0-0.15829-0.0643-0.15829-0.13026 0-0.0561 0.03792-0.11706 0.13191-0.14015 0.06925-0.0165 0.16983-0.0115 0.24897-0.0115z"/>
    <path d="m18.314 118.95h0.12036v-0.43364c0-0.0495 0.0066-0.0874 0.03792-0.12861 0.02803-0.0379 0.10058-0.10552 0.17972-0.10552 0.03792 0 0.07585 0.0165 0.10223 0.0478 0.04122 0.0495 0.04122 0.11377 0.04122 0.16653v0.45343h0.11707v-0.45672c0-0.0577 0-0.12037-0.02638-0.18137-0.03792-0.0841-0.11542-0.13191-0.20116-0.13191-0.10223 0-0.19456 0.066-0.25062 0.15004v-0.1319h-0.12036z"/>
    <path d="m19.232 118.43c0-0.0907 0.07585-0.16488 0.16653-0.16488 0.09233 0 0.16653 0.0742 0.16653 0.16488 0 0.0907-0.0742 0.16488-0.16653 0.16488-0.09233 0-0.16653-0.0742-0.16653-0.16488zm0.17313-0.25887c-0.15004 0-0.2803 0.11872-0.2803 0.26547 0 0.0824 0.04122 0.15993 0.11047 0.20445-0.05441 0.0462-0.08574 0.0973-0.08574 0.1451 0 0.0313 0.01319 0.0758 0.06101 0.10058-0.08079 0.0511-0.12201 0.10717-0.12201 0.16653 0 0.0824 0.07585 0.17972 0.33966 0.17972 0.25557 0 0.3479-0.13026 0.3479-0.23084 0-0.066-0.03792-0.1319-0.11707-0.16323-0.07914-0.033-0.16983-0.0214-0.25557-0.0214-0.05606 0-0.09233-5e-3 -0.10717-0.01-0.02968-8e-3 -0.04617-0.0264-0.04617-0.0495 0-0.0396 0.04617-0.0775 0.05441-0.0841 0.02968 0.0115 0.06265 0.0165 0.09563 0.0165 0.14839 0 0.27041-0.11871 0.27041-0.25721 0-0.0462-0.01319-0.0907-0.03792-0.12861 0.03957-0.0231 0.08574-0.0363 0.13191-0.0363 0.01484 0 0.02803 2e-3 0.04287 5e-3l-0.01319-0.0973c-0.07585-7e-3 -0.15169 0.0181-0.2094 0.066-0.04782-0.0462-0.11047-0.0709-0.17972-0.0709zm-0.11377 0.73703c0.02803 3e-3 0.0676 7e-3 0.12531 0.01 0.05606 2e-3 0.11707-3e-3 0.15994 3e-3 0.06925 0.0115 0.09069 0.0544 0.09069 0.0874s-0.01979 0.0726-0.0709 0.10058c-0.05606 0.0297-0.11872 0.033-0.16983 0.033-0.03463 0-0.09893-2e-3 -0.15499-0.0247-0.06101-0.0247-0.0742-0.066-0.0742-0.0923 0-0.0544 0.05111-0.094 0.09398-0.11707z"/>
    <path d="m20.276 118.18c-0.17972 0-0.34625 0.12861-0.34625 0.40231 0 0.25227 0.15664 0.38583 0.36109 0.38583 0.10882 0 0.2061-0.0396 0.27041-0.11707l-0.06595-0.0643c-0.04782 0.0561-0.12036 0.0857-0.19456 0.0857-0.10058 0-0.24732-0.0561-0.25557-0.28195h0.53422c0.0049-0.0511 0.0033-0.10058-0.0049-0.14345-0.03463-0.20281-0.17478-0.26711-0.29844-0.26711zm-0.22754 0.31987c0.02473-0.17807 0.1385-0.22919 0.21929-0.22919 0.12201 0 0.2094 0.10718 0.19456 0.22919z"/>
    <path d="m21.674 117.92-0.03627 0.52268 0.0742 0.0297c0.04947-0.0627 0.12201-0.0973 0.19291-0.0973 0.10717 0 0.2094 0.0824 0.2094 0.24567 0 0.15829-0.09728 0.24403-0.20775 0.24403-0.11047 0-0.18302-0.0841-0.18797-0.094-0.0066-0.0132 0.0016-0.0297-0.01319-0.0396l-0.10223 0.0775c0.06925 0.10058 0.18302 0.15829 0.30503 0.15829 0.17807 0 0.32482-0.12037 0.32482-0.34296 0-0.22094-0.1385-0.34295-0.31163-0.34295-0.05606 0-0.11377 0.0132-0.16653 0.0396l0.01484-0.29679h0.4254v-0.10388z"/>
   </g>
   <g transform="rotate(-45.348)" opacity=".91" stroke-width=".28222px" aria-label="Change 4">
    <path d="m27.765 120.06c-0.11843 0-0.28937 0.0867-0.28937 0.39193 0 0.29304 0.16361 0.38827 0.28937 0.38827 0.09035 0 0.1746-0.0476 0.22222-0.12576l-0.06227-0.0403c-0.03541 0.0574-0.09646 0.0916-0.15506 0.0916-0.11233 0-0.21123-0.11599-0.21123-0.32233 0-0.20146 0.09646-0.31501 0.2039-0.31501 0.05861 0 0.11477 0.0354 0.1453 0.0891 0.0024 4e-3 0.0049 7e-3 0.0049 0.0122 0 4e-3 -0.0012 6e-3 -0.0012 0.01 0 1e-3 0 7e-3 0.0061 0.011l0.08058-0.0391c-0.04029-0.0916-0.13186-0.1514-0.23321-0.1514z"/>
    <path d="m28.121 120.83h0.09035v-0.32111c0-0.0366 0.0037-0.0647 0.02686-0.0952 0.02198-0.0281 0.0757-0.0781 0.13431-0.0781 0.02808 0 0.05617 0.0122 0.0757 0.0354 0.03052 0.0366 0.03052 0.0842 0.03052 0.12332v0.33576h0.08669v-0.33821c0-0.0427-0.0012-0.0891-0.02076-0.1343-0.02808-0.0623-0.08425-0.0977-0.14774-0.0977-0.0757 0-0.1453 0.0488-0.18559 0.11111v-0.32356c0-4e-3 0-7e-3 0.0037-0.011s0.0085-7e-3 0.0085-0.0134c0-1e-3 0-2e-3 -0.0012-4e-3h-0.10134z"/>
    <path d="m28.757 120.34 0.04273 0.0562c0.0464-0.0476 0.10867-0.0623 0.16117-0.0623 0.06593 0 0.0989 0.0281 0.11477 0.0537 0.01832 0.0305 0.01709 0.0671 0.01709 0.0965v0.0195h-0.01709c-0.08303 0-0.17094 0-0.24175 0.0256-0.08791 0.0318-0.12698 0.0977-0.12698 0.15873 0 0.0818 0.07082 0.15872 0.18681 0.15872 0.06837 0 0.13919-0.0256 0.20024-0.0757v0.061h0.08303v-0.34553c0-0.0452-0.0012-0.0879-0.02686-0.13187-0.03663-0.0598-0.10744-0.0916-0.19413-0.0916-0.07448 0-0.14652 0.0232-0.19902 0.0769zm0.33943 0.23076v0.0379c0 0.0281 0 0.0647-0.03785 0.10501-0.02076 0.0208-0.07326 0.0659-0.14652 0.0659-0.07448 0-0.11721-0.0476-0.11721-0.0965 0-0.0415 0.02808-0.0867 0.09768-0.10378 0.05128-0.0122 0.12576-9e-3 0.18437-9e-3z"/>
    <path d="m29.341 120.83h0.08913v-0.32111c0-0.0366 0.0049-0.0647 0.02808-0.0952 0.02076-0.0281 0.07448-0.0781 0.13309-0.0781 0.02808 0 0.05617 0.0122 0.0757 0.0354 0.03052 0.0366 0.03052 0.0842 0.03052 0.12332v0.33576h0.08669v-0.33821c0-0.0427 0-0.0891-0.01954-0.1343-0.02808-0.0623-0.08547-0.0977-0.14896-0.0977-0.0757 0-0.14408 0.0488-0.18559 0.11111v-0.0977h-0.08913z"/>
    <path d="m30.021 120.45c0-0.0672 0.05616-0.1221 0.12332-0.1221 0.06837 0 0.12332 0.0549 0.12332 0.1221 0 0.0671-0.05494 0.12209-0.12332 0.12209-0.06837 0-0.12332-0.0549-0.12332-0.12209zm0.1282-0.1917c-0.11111 0-0.20757 0.0879-0.20757 0.19658 0 0.061 0.03052 0.11844 0.0818 0.1514-0.04029 0.0342-0.06349 0.072-0.06349 0.10745 0 0.0232 0.0098 0.0562 0.04518 0.0745-0.05983 0.0378-0.09035 0.0794-0.09035 0.12331 0 0.061 0.05617 0.13309 0.25152 0.13309 0.18925 0 0.25762-0.0965 0.25762-0.17094 0-0.0488-0.02808-0.0977-0.08669-0.12087-0.05861-0.0244-0.12576-0.0159-0.18925-0.0159-0.04151 0-0.06837-4e-3 -0.07936-7e-3 -0.02198-6e-3 -0.03419-0.0195-0.03419-0.0366 0-0.0293 0.03419-0.0574 0.04029-0.0623 0.02198 9e-3 0.0464 0.0122 0.07082 0.0122 0.10989 0 0.20024-0.0879 0.20024-0.19047 0-0.0342-0.0098-0.0672-0.02808-0.0952 0.0293-0.0171 0.06349-0.0269 0.09768-0.0269 0.01099 0 0.02076 1e-3 0.03175 4e-3l-0.0098-0.072c-0.05617-5e-3 -0.11233 0.0134-0.15506 0.0488-0.03541-0.0342-0.08181-0.0525-0.13309-0.0525zm-0.08425 0.54578c0.02076 2e-3 0.05006 5e-3 0.09279 7e-3 0.04151 1e-3 0.08669-2e-3 0.11844 2e-3 0.05128 9e-3 0.06715 0.0403 0.06715 0.0647s-0.01465 0.0537-0.0525 0.0745c-0.04151 0.022-0.08791 0.0244-0.12576 0.0244-0.02564 0-0.07326-1e-3 -0.11477-0.0183-0.04518-0.0183-0.05494-0.0488-0.05494-0.0684 0-0.0403 0.03785-0.0696 0.0696-0.0867z"/>
    <path d="m30.794 120.26c-0.13309 0-0.2564 0.0952-0.2564 0.29792 0 0.1868 0.11599 0.2857 0.26739 0.2857 0.08058 0 0.15262-0.0293 0.20024-0.0867l-0.04884-0.0476c-0.03541 0.0415-0.08913 0.0635-0.14408 0.0635-0.07448 0-0.18314-0.0415-0.18925-0.20879h0.3956c0.0037-0.0378 0.0024-0.0745-0.0037-0.10622-0.02564-0.15018-0.12942-0.1978-0.221-0.1978zm-0.16849 0.23687c0.01831-0.13187 0.10256-0.16972 0.16239-0.16972 0.09035 0 0.15506 0.0794 0.14408 0.16972z"/>
    <path d="m32.082 120.07-0.32356 0.48716v0.0635h0.30646v0.21h0.08791v-0.20878h0.0989v-0.0757h-0.0989v-0.47618zm-0.01587 0.13552v0.34066h-0.22344z"/>
   </g>
  </g>
  <g transform="matrix(.26381 0 0 -.26381 83.476 87.873)" opacity=".91" stroke="#d54747" stroke-width="1.0698">
   <path d="m45.42 66.92 37.233-17.287" fill="none" stroke="#d54747" stroke-width="1.0698px"/>
  </g>
  <g transform="matrix(-.23558 .44131 .44131 .23558 100.96 -211.17)" stroke-width="1.0698">
   <path d="m501.47 274.25-1.2053 3.2778-1.2053-3.2778c0.71162 0.52365 1.6852 0.52064 2.4106 0z" fill="#fff" fill-rule="evenodd" stroke="#d54747" stroke-linejoin="round" stroke-width=".20058"/>
  </g>
  <g stroke="#f50030" stroke-linecap="round" stroke-width=".26458">
   <rect x="98.474" y="75.731" width="1.2921" height="1.2921" fill="#f9f4f4" style="paint-order:normal"/>
   <circle cx="101.18" cy="76.361" r=".68213" fill="#fff" style="paint-order:normal"/>
   <rect x="103.77" y="75.731" width="1.2921" height="1.2921" fill="#f9f4f4" style="paint-order:normal"/>
   <circle cx="106.47" cy="76.361" r=".68213" fill="#fff" style="paint-order:normal"/>
   <rect x="109.06" y="75.731" width="1.2921" height="1.2921" fill="#f9f4f4" style="paint-order:normal"/>
  </g>
  <g fill="#fff" stroke-linecap="round">
   <g stroke="#f50030" stroke-width=".26458">
    <circle cx="111.77" cy="76.361" r=".68213" style="paint-order:normal"/>
    <circle cx="117.06" cy="76.361" r=".68213" style="paint-order:normal"/>
    <circle cx="122.35" cy="76.361" r=".68213" style="paint-order:normal"/>
    <circle cx="127.64" cy="76.361" r=".68213" style="paint-order:normal"/>
   </g>
   <g stroke="#000bf5" stroke-width="1.0035">
    <path transform="matrix(.26409 0 0 .26324 78.926 93.577)" d="m116.92-60.878 2.5498 4.4164-5.0997-1e-6z" style="paint-order:normal"/>
    <path transform="matrix(.26409 0 0 .26324 84.217 93.577)" d="m116.92-60.878 2.5498 4.4164-5.0997-1e-6z" style="paint-order:normal"/>
    <path transform="matrix(.26409 0 0 .26324 89.509 93.577)" d="m116.92-60.878 2.5498 4.4164-5.0997-1e-6z" style="paint-order:normal"/>
    <path transform="matrix(.26409 0 0 .26324 94.801 93.577)" d="m116.92-60.878 2.5498 4.4164-5.0997-1e-6z" style="paint-order:normal"/>
   </g>
  </g>
  <rect x="103.77" y="66.47" width="1.2921" height="1.2921" stroke="#e500f5" stroke-linecap="round" stroke-width=".26458" style="paint-order:normal"/>
  <g fill="#fff" stroke-linecap="round">
   <circle cx="106.47" cy="67.101" r=".68213" stroke="#f50030" stroke-width=".26458" style="paint-order:normal"/>
   <path transform="matrix(.26409 0 0 .26324 73.634 84.317)" d="m116.92-60.878 2.5498 4.4164-5.0997-1e-6z" stroke="#000bf5" stroke-width="1.0035" style="paint-order:normal"/>
   <circle cx="111.77" cy="67.101" r=".68213" stroke="#f50030" stroke-width=".26458" style="paint-order:normal"/>
   <path transform="matrix(.26409 0 0 .26324 78.926 84.317)" d="m116.92-60.878 2.5498 4.4164-5.0997-1e-6z" stroke="#000bf5" stroke-width="1.0035" style="paint-order:normal"/>
   <circle cx="117.06" cy="67.101" r=".68213" stroke="#f50030" stroke-width=".26458" style="paint-order:normal"/>
   <path transform="matrix(.26409 0 0 .26324 84.217 84.317)" d="m116.92-60.878 2.5498 4.4164-5.0997-1e-6z" stroke="#000bf5" stroke-width="1.0035" style="paint-order:normal"/>
   <circle cx="122.35" cy="67.101" r=".68213" stroke="#f50030" stroke-width=".26458" style="paint-order:normal"/>
   <path transform="matrix(.26409 0 0 .26324 89.509 84.317)" d="m116.92-60.878 2.5498 4.4164-5.0997-1e-6z" stroke="#000bf5" stroke-width="1.0035" style="paint-order:normal"/>
   <circle cx="127.64" cy="67.101" r=".68213" stroke="#f50030" stroke-width=".26458" style="paint-order:normal"/>
   <path transform="matrix(.26409 0 0 .26324 94.801 84.317)" d="m116.92-60.878 2.5498 4.4164-5.0997-1e-6z" stroke="#000bf5" stroke-width="1.0035" style="paint-order:normal"/>
  </g>
  <rect x="103.77" y="57.21" width="1.2921" height="1.2921" fill="#f9f4f4" stroke="#f50030" stroke-linecap="round" stroke-width=".26458" style="paint-order:normal"/>
  <g fill="#fff" stroke-linecap="round">
   <circle cx="106.47" cy="57.84" r=".68213" stroke="#f50030" stroke-width=".26458" style="paint-order:normal"/>
   <path transform="matrix(.26409 0 0 .26324 73.634 75.056)" d="m116.92-60.878 2.5498 4.4164-5.0997-1e-6z" stroke="#000bf5" stroke-width="1.0035" style="paint-order:normal"/>
   <circle cx="111.77" cy="57.84" r=".68213" stroke="#f50030" stroke-width=".26458" style="paint-order:normal"/>
   <path transform="matrix(.26409 0 0 .26324 78.926 75.056)" d="m116.92-60.878 2.5498 4.4164-5.0997-1e-6z" stroke="#000bf5" stroke-width="1.0035" style="paint-order:normal"/>
   <circle cx="117.06" cy="57.84" r=".68213" stroke="#f50030" stroke-width=".26458" style="paint-order:normal"/>
   <path transform="matrix(.26409 0 0 .26324 84.217 75.056)" d="m116.92-60.878 2.5498 4.4164-5.0997-1e-6z" stroke="#000bf5" stroke-width="1.0035" style="paint-order:normal"/>
   <circle cx="122.35" cy="57.84" r=".68213" stroke="#f50030" stroke-width=".26458" style="paint-order:normal"/>
   <path transform="matrix(.26409 0 0 .26324 89.509 75.056)" d="m116.92-60.878 2.5498 4.4164-5.0997-1e-6z" stroke="#000bf5" stroke-width="1.0035" style="paint-order:normal"/>
   <circle cx="127.64" cy="57.84" r=".68213" stroke="#f50030" stroke-width=".26458" style="paint-order:normal"/>
   <path transform="matrix(.26409 0 0 .26324 94.801 75.056)" d="m116.92-60.878 2.5498 4.4164-5.0997-1e-6z" stroke="#000bf5" stroke-width="1.0035" style="paint-order:normal"/>
   <path transform="matrix(.26057 0 0 .26064 69.383 91.994)" d="m145.46-125.76-0.35729 3.3994-3.3434 0.71066-1.7091-2.9602 2.2872-2.5402z" opacity=".4" stroke="#ecf500" stroke-width="1.0153" style="paint-order:normal"/>
  </g>
  <g fill="#361d33" stroke="#00f356" stroke-linecap="round" stroke-width=".26458">
   <rect x="105.88" y="77.513" width="1.2921" height="1.2921" opacity=".4" style="paint-order:normal"/>
   <rect x="111.17" y="77.513" width="1.2921" height="1.2921" opacity=".4" style="paint-order:normal"/>
   <rect x="116.47" y="77.513" width="1.2921" height="1.2921" opacity=".4" style="paint-order:normal"/>
  </g>
  <g stroke-width="1.0698">
   <g transform="matrix(.26381 0 0 .26381 94.059 57.247)" opacity=".91" stroke="#d54747">
    <path d="m45.42 66.92 37.233-17.287" fill="none" stroke="#d54747" stroke-width="1.0698px"/>
   </g>
   <g transform="matrix(-.23558 -.44131 .44131 -.23558 111.54 356.29)">
    <path d="m501.47 274.25-1.2053 3.2778-1.2053-3.2778c0.71162 0.52365 1.6852 0.52064 2.4106 0z" fill="#fff" fill-rule="evenodd" stroke="#d54747" stroke-linejoin="round" stroke-width=".20058"/>
   </g>
   <g transform="matrix(.26381 0 0 -.26381 104.64 87.873)" opacity=".91" stroke="#d54747">
    <path d="m45.42 66.92 37.233-17.287" fill="none" stroke="#d54747" stroke-width="1.0698px"/>
   </g>
   <g transform="matrix(-.23558 .44131 .44131 .23558 122.12 -211.17)">
    <path d="m501.47 274.25-1.2053 3.2778-1.2053-3.2778c0.71162 0.52365 1.6852 0.52064 2.4106 0z" fill="#fff" fill-rule="evenodd" stroke="#d54747" stroke-linejoin="round" stroke-width=".20058"/>
   </g>
   <g transform="matrix(.26381 0 0 -.26381 94.059 87.873)" opacity=".91" stroke="#d54747">
    <path d="m45.42 66.92 37.233-17.287" fill="none" stroke="#d54747" stroke-width="1.0698px"/>
   </g>
   <g transform="matrix(-.23558 .44131 .44131 .23558 111.54 -211.17)">
    <path d="m501.47 274.25-1.2053 3.2778-1.2053-3.2778c0.71162 0.52365 1.6852 0.52064 2.4106 0z" fill="#fff" fill-rule="evenodd" stroke="#d54747" stroke-linejoin="round" stroke-width=".20058"/>
   </g>
   <g transform="matrix(.26381 0 0 .26381 94.059 48.219)" opacity=".91" stroke="#d54747">
    <path d="m45.42 66.92 15.514-15.426" fill="none" stroke="#d54747" stroke-width="1.0698px"/>
   </g>
   <g transform="matrix(.32727 .37835 .37835 -.32727 -157.54 -37.537)">
    <path d="m501.47 274.25-1.2053 3.2778-1.2053-3.2778c0.71162 0.52365 1.6852 0.52064 2.4106 0z" fill="#fff" fill-rule="evenodd" stroke="#d54747" stroke-linejoin="round" stroke-width=".20058"/>
   </g>
  </g>
  <g stroke="#e500f5" stroke-linecap="round" stroke-width=".26458">
   <rect x="109.06" y="66.47" width="1.2921" height="1.2921" style="paint-order:normal"/>
   <rect x="114.35" y="66.47" width="1.2921" height="1.2921" style="paint-order:normal"/>
   <rect x="119.64" y="66.47" width="1.2921" height="1.2921" style="paint-order:normal"/>
   <rect x="124.93" y="66.47" width="1.2921" height="1.2921" style="paint-order:normal"/>
   <rect x="124.93" y="57.21" width="1.2921" height="1.2921" style="paint-order:normal"/>
   <rect x="119.64" y="57.21" width="1.2921" height="1.2921" style="paint-order:normal"/>
   <rect x="114.35" y="57.21" width="1.2921" height="1.2921" style="paint-order:normal"/>
   <rect x="109.06" y="57.21" width="1.2921" height="1.2921" style="paint-order:normal"/>
  </g>
  <g fill="#fff" stroke="#ecf500" stroke-linecap="round" stroke-width="1.0153">
   <path transform="matrix(.26057 0 0 .26064 74.674 91.994)" d="m145.46-125.76-0.35729 3.3994-3.3434 0.71066-1.7091-2.9602 2.2872-2.5402z" opacity=".4" style="paint-order:normal"/>
   <path transform="matrix(.26057 0 0 .26064 79.966 91.994)" d="m145.46-125.76-0.35729 3.3994-3.3434 0.71066-1.7091-2.9602 2.2872-2.5402z" style="paint-order:normal"/>
   <path transform="matrix(.26057 0 0 .26064 85.258 91.994)" d="m145.46-125.76-0.35729 3.3994-3.3434 0.71066-1.7091-2.9602 2.2872-2.5402z" style="paint-order:normal"/>
   <path transform="matrix(.26057 0 0 .26064 90.549 91.994)" d="m145.46-125.76-0.35729 3.3994-3.3434 0.71066-1.7091-2.9602 2.2872-2.5402z" style="paint-order:normal"/>
  </g>
  <g stroke-width="1.0698">
   <g transform="matrix(.26381 0 0 .26381 99.351 48.219)" opacity=".91" stroke="#d54747">
    <path d="m45.42 66.92 15.514-15.426" fill="none" stroke="#d54747" stroke-width="1.0698px"/>
   </g>
   <g transform="matrix(.32727 .37835 .37835 -.32727 -152.25 -37.537)">
    <path d="m501.47 274.25-1.2053 3.2778-1.2053-3.2778c0.71162 0.52365 1.6852 0.52064 2.4106 0z" fill="#fff" fill-rule="evenodd" stroke="#d54747" stroke-linejoin="round" stroke-width=".20058"/>
   </g>
   <g transform="matrix(.26381 0 0 -.26381 94.074 78.64)" opacity=".91" stroke="#d54747">
    <path d="m45.42 66.92 15.514-15.426" fill="none" stroke="#d54747" stroke-width="1.0698px"/>
   </g>
   <g transform="matrix(-.35666 .35078 .35078 .35666 191.78 -208.81)">
    <path d="m501.47 274.25-1.2053 3.2778-1.2053-3.2778c0.71162 0.52365 1.6852 0.52064 2.4106 0z" fill="#fff" fill-rule="evenodd" stroke="#d54747" stroke-linejoin="round" stroke-width=".20058"/>
   </g>
   <g transform="matrix(.26381 0 0 -.26381 99.351 87.873)" opacity=".91" stroke="#d54747">
    <path d="m45.42 66.92 37.233-17.287" fill="none" stroke="#d54747" stroke-width="1.0698px"/>
   </g>
   <g transform="matrix(-.23558 .44131 .44131 .23558 116.83 -211.17)">
    <path d="m501.47 274.25-1.2053 3.2778-1.2053-3.2778c0.71162 0.52365 1.6852 0.52064 2.4106 0z" fill="#fff" fill-rule="evenodd" stroke="#d54747" stroke-linejoin="round" stroke-width=".20058"/>
   </g>
  </g>
  <g stroke="#e500f5" stroke-linecap="round" stroke-width=".26458">
   <rect x="114.35" y="75.731" width="1.2921" height="1.2921" style="paint-order:normal"/>
   <rect x="119.64" y="75.731" width="1.2921" height="1.2921" style="paint-order:normal"/>
   <rect x="124.93" y="75.731" width="1.2921" height="1.2921" style="paint-order:normal"/>
  </g>
  <g fill="#fff" stroke="#ecf500" stroke-linecap="round" stroke-width="1.0153">
   <path transform="matrix(.26057 0 0 .26064 74.674 101.25)" d="m145.46-125.76-0.35729 3.3994-3.3434 0.71066-1.7091-2.9602 2.2872-2.5402z" style="paint-order:normal"/>
   <path transform="matrix(.26057 0 0 .26064 79.966 101.25)" d="m145.46-125.76-0.35729 3.3994-3.3434 0.71066-1.7091-2.9602 2.2872-2.5402z" style="paint-order:normal"/>
   <path transform="matrix(.26057 0 0 .26064 85.258 101.25)" d="m145.46-125.76-0.35729 3.3994-3.3434 0.71066-1.7091-2.9602 2.2872-2.5402z" style="paint-order:normal"/>
   <path transform="matrix(.26057 0 0 .26064 90.549 101.25)" d="m145.46-125.76-0.35729 3.3994-3.3434 0.71066-1.7091-2.9602 2.2872-2.5402z" style="paint-order:normal"/>
   <path transform="matrix(.26057 0 0 .26064 90.549 110.51)" d="m145.46-125.76-0.35729 3.3994-3.3434 0.71066-1.7091-2.9602 2.2872-2.5402z" style="paint-order:normal"/>
  </g>
  <circle cx="123.99" cy="77.368" r="4.9775" fill="none" stroke="#a6a0f5" stroke-dasharray="0.26458334, 0.52916668" stroke-linecap="round" stroke-width=".26458" style="paint-order:normal"/>
  <g fill="#e9e56f" opacity=".91" aria-label="?">
   <path d="m122.6 78.855c0-0.0806-0.0702-0.1482-0.1534-0.1482-0.0858 0-0.15601 0.0676-0.15601 0.1482 0 0.0832 0.0702 0.1482 0.15601 0.1482 0.0832 0 0.1534-0.065 0.1534-0.1482zm-0.66821-1.3416 0.1326 0.1222c0.0832-0.1378 0.221-0.2236 0.35101-0.2236 0.156 0 0.2756 0.1196 0.2756 0.273 0 0.1716-0.1352 0.2782-0.2132 0.36401-0.117 0.1248-0.1222 0.2184-0.1222 0.3328v0.1092h0.169v-0.1092c0-0.091 8e-3 -0.169 0.1144-0.2626 0.0858-0.0754 0.2574-0.1768 0.2574-0.42121 0-0.2418-0.169-0.45761-0.4628-0.45761-0.19501 0-0.38741 0.0988-0.50181 0.273z" fill="#e9e56f" stroke-width=".28222px"/>
  </g>
 </g>
</svg>
