<svg width="37.332mm" height="24.88mm" version="1.1" viewBox="0 0 37.332 24.88" xmlns="http://www.w3.org/2000/svg">
 <g transform="translate(-125.6 -74.789)">
  <g fill-opacity=".38431">
   <rect x="133.74" y="80.833" width="28.134" height="17.728" fill="#3b390d"/>
   <rect x="126.68" y="80.833" width="6.9667" height="17.802" fill="#0d0f3b"/>
   <rect x="126.66" y="75.837" width="35.169" height="5.0464" fill="#0d0f3b"/>
  </g>
  <g fill="none" stroke="#e9e56f">
   <g stroke-width=".09525">
    <path d="m126.67 75.837h35.169"/>
    <path d="m126.67 80.909h35.201"/>
    <path d="m126.67 85.272h35.169"/>
    <path d="m126.67 89.71h35.169"/>
    <path d="m126.67 94.148h35.169"/>
   </g>
   <path d="m126.64 98.635v-22.768" stroke-width=".09813"/>
   <path d="m133.68 98.604v-22.768" stroke-width=".09813"/>
   <path d="m126.67 98.587h35.169" stroke-width=".09525"/>
  </g>
  <g>
   <g transform="scale(1.0015 .99852)" fill="#fff" stroke-width=".28222px" aria-label="Bit">
    <path d="m128.37 77.91v1.508h0.42601c0.10166 0 0.20574 0 0.30982-0.04357 0.16217-0.07019 0.25173-0.21784 0.25173-0.37276 0-0.1767-0.11376-0.33403-0.28078-0.3897 0.13313-0.05567 0.22269-0.1888 0.22269-0.33161 0-0.13555-0.0775-0.26625-0.22027-0.32677-0.0944-0.04115-0.18879-0.04357-0.28077-0.04357zm0.16702 0.14523h0.2372c0.0654 0 0.13313 0 0.2009 0.02663 0.0992 0.04115 0.15249 0.12586 0.15249 0.213 0 0.08714-0.0508 0.16943-0.14522 0.21058-0.0702 0.02905-0.14281 0.02905-0.21059 0.02905h-0.23478zm0 0.62206h0.24689c0.075 0 0.15007 0.0024 0.2251 0.03873 0.11134 0.05083 0.17186 0.15975 0.17186 0.26867s-0.0581 0.20816-0.16218 0.25657c-0.0653 0.02905-0.12828 0.02905-0.19364 0.02905h-0.28803z"/>
    <path d="m129.72 78.312v0.14281h0.26626v0.82538h-0.28078v0.13797h0.71646v-0.13797h-0.25899v-0.96819zm0.35824-0.47926c-0.0702 0-0.12587 0.05567-0.12587 0.12344 0 0.06777 0.0557 0.12344 0.12587 0.12344 0.0702 0 0.12586-0.05567 0.12586-0.12344 0-0.06777-0.0557-0.12344-0.12586-0.12344z"/>
    <path d="m131.13 78.017-0.0218 0.29772h-0.26383l-2e-3 0.14281h0.25899c-0.0145 0.1888-0.0218 0.3776-0.0218 0.56397 0 0.09924 0 0.21058 0.0654 0.30256 0.0532 0.07261 0.13797 0.11618 0.25173 0.11618 0.13071 0 0.25899-0.05567 0.35339-0.12344l-0.0533-0.13797c-0.0944 0.07019-0.18154 0.10166-0.24931 0.10166-0.0823 0-0.16701-0.04599-0.18638-0.17912 0-0.0097-7e-3 -0.05083-7e-3 -0.213 0-0.14281 7e-3 -0.28804 0.0218-0.43085h0.36307v-0.14523h-0.36065s0.0169-0.19848 0.029-0.26141c2e-3 -0.0242 0.0218-0.03873 0.0121-0.06535z"/>
   </g>
   <g transform="scale(1.0015 .99852)" fill="#e9e56f" stroke-width=".28222px" aria-label="Sequence">
    <path d="m143.98 82.627c-0.10166-0.12344-0.25173-0.1888-0.41632-0.1888-0.27351 0-0.45989 0.17912-0.45989 0.38728 0 0.08714 0.0339 0.2009 0.15975 0.29288 0.14039 0.10408 0.35823 0.15491 0.472 0.22753 0.0992 0.06051 0.12586 0.14039 0.12586 0.20816 0 0.13071-0.11134 0.27352-0.32918 0.27352-0.1646 0-0.29288-0.0823-0.36066-0.16701-7e-3 -0.0097-7e-3 -0.01452-7e-3 -0.0242 0-0.0048 0-0.01936-0.01-0.02421l-0.10166 0.17428c0.1186 0.12829 0.28804 0.19364 0.47441 0.19364 0.36792 0 0.50347-0.24689 0.50347-0.43569 0-0.07988-0.0242-0.18396-0.11861-0.27352-0.1307-0.12344-0.34371-0.16701-0.48168-0.24689-0.12586-0.07503-0.15249-0.16459-0.15249-0.2251 0-0.11618 0.0992-0.22026 0.2711-0.22026 0.14039 0 0.24931 0.06293 0.3074 0.14765 7e-3 0.0097 5e-3 0.01452 5e-3 0.0242 0 0.01452 7e-3 0.01936 0.0121 0.01936z"/>
    <path d="m144.77 82.823c-0.26383 0-0.5083 0.1888-0.5083 0.5906 0 0.37034 0.22995 0.56639 0.53009 0.56639 0.15975 0 0.30256-0.05809 0.39696-0.17185l-0.0968-0.0944c-0.0702 0.0823-0.1767 0.12586-0.28562 0.12586-0.14765 0-0.36307-0.0823-0.37518-0.4139h0.78424c7e-3 -0.07503 5e-3 -0.14765-7e-3 -0.21058-0.0508-0.29772-0.25657-0.39212-0.43811-0.39212zm-0.33402 0.46957c0.0363-0.26141 0.20332-0.33645 0.32192-0.33645 0.17912 0 0.3074 0.15733 0.28562 0.33645z"/>
    <path d="m146.25 83.009c0 0.0024-0.0774-0.1888-0.32192-0.1888-0.24205 0-0.47926 0.19606-0.47926 0.57124 0 0.35823 0.21058 0.58818 0.45505 0.58818 0.14039 0 0.26868-0.07988 0.33887-0.20332v0.58092h0.17185v-1.508h-0.16459zm-0.31466-0.04599c0.0992 0 0.2251 0.05083 0.27351 0.18638 0.0218 0.06293 0.0266 0.13071 0.0266 0.26625 0 0.0823-5e-3 0.14281-0.0218 0.2009-0.0436 0.13071-0.15733 0.20816-0.27109 0.20816-0.15975 0-0.3195-0.14523-0.3195-0.45747 0-0.29046 0.16459-0.40422 0.31224-0.40422z"/>
    <path d="m146.71 82.849v0.61722c0 0.0944 0 0.19122 0.0436 0.29046 0.0629 0.14523 0.19848 0.22511 0.34371 0.22511 0.13797 0 0.26867-0.07503 0.34129-0.19606l-2e-3 0.0823c0 0.02905 0 0.05809 5e-3 0.08472h0.18396c-0.0121-0.03147-0.0145-0.06777-0.0145-0.09924v-1.0045h-0.17427v0.60754c0 0.08472-7e-3 0.15007-0.0436 0.21784-0.0508 0.0944-0.15007 0.16459-0.25657 0.16459-0.0847 0-0.16702-0.04841-0.21058-0.13555-0.0387-0.07746-0.0387-0.16459-0.0387-0.23721v-0.61722z"/>
    <path d="m148.4 82.823c-0.26383 0-0.5083 0.1888-0.5083 0.5906 0 0.37034 0.22995 0.56639 0.53009 0.56639 0.15975 0 0.30256-0.05809 0.39695-0.17185l-0.0968-0.0944c-0.0702 0.0823-0.1767 0.12586-0.28562 0.12586-0.14765 0-0.36307-0.0823-0.37518-0.4139h0.78424c7e-3 -0.07503 5e-3 -0.14765-7e-3 -0.21058-0.0508-0.29772-0.25657-0.39212-0.43811-0.39212zm-0.33403 0.46957c0.0363-0.26141 0.20332-0.33645 0.32193-0.33645 0.17911 0 0.3074 0.15733 0.28562 0.33645z"/>
    <path d="m149.15 83.953h0.1767v-0.63659c0-0.07261 0.01-0.12829 0.0557-0.1888 0.0412-0.05567 0.14765-0.15491 0.26383-0.15491 0.0557 0 0.11134 0.0242 0.15007 0.07019 0.0605 0.07262 0.0605 0.16701 0.0605 0.24447v0.66563h0.17186v-0.67048c0-0.08472 0-0.1767-0.0387-0.26625-0.0557-0.12344-0.16943-0.19364-0.2953-0.19364-0.15007 0-0.28562 0.09682-0.36791 0.22026v-0.19364h-0.1767z"/>
    <path d="m151.3 83.031c-0.0871-0.12829-0.23478-0.20574-0.4139-0.20574-0.32435 0-0.55429 0.24447-0.55429 0.57608 0 0.33403 0.22994 0.58092 0.54461 0.58092 0.15249 0 0.30256-0.06293 0.40664-0.1767l-0.0992-0.11618c-0.075 0.08472-0.18396 0.13313-0.29288 0.13313-0.21542 0-0.38002-0.17912-0.38002-0.43811 0-0.25173 0.16218-0.40906 0.3655-0.40906 0.1888 0 0.27835 0.13071 0.28562 0.14523 0.01 0.01694-5e-3 0.04115 0.0145 0.05567z"/>
    <path d="m152.03 82.823c-0.26383 0-0.5083 0.1888-0.5083 0.5906 0 0.37034 0.22994 0.56639 0.53008 0.56639 0.15976 0 0.30256-0.05809 0.39696-0.17185l-0.0968-0.0944c-0.0702 0.0823-0.17669 0.12586-0.28561 0.12586-0.14765 0-0.36308-0.0823-0.37518-0.4139h0.78424c7e-3 -0.07503 5e-3 -0.14765-7e-3 -0.21058-0.0508-0.29772-0.25657-0.39212-0.43811-0.39212zm-0.33403 0.46957c0.0363-0.26141 0.20332-0.33645 0.32193-0.33645 0.17911 0 0.3074 0.15733 0.28561 0.33645z"/>
   </g>
   <path d="m147.77 80.889v-5.0526" fill="none" stroke="#e9e56f" stroke-width=".09813"/>
  </g>
  <g fill="#fff">
   <g transform="scale(1.0015 .99852)" stroke-width=".28222px" aria-label="Bits 0-15">
    <path d="m135.15 77.918v1.508h0.42601c0.10166 0 0.20574 0 0.30982-0.04357 0.16217-0.07019 0.25173-0.21784 0.25173-0.37276 0-0.1767-0.11376-0.33403-0.28078-0.3897 0.13313-0.05567 0.22269-0.1888 0.22269-0.33161 0-0.13555-0.0775-0.26625-0.22026-0.32677-0.0944-0.04115-0.1888-0.04357-0.28078-0.04357zm0.16702 0.14523h0.2372c0.0654 0 0.13313 0 0.2009 0.02663 0.0992 0.04115 0.1525 0.12586 0.1525 0.213 0 0.08714-0.0508 0.16943-0.14523 0.21058-0.0702 0.02905-0.14281 0.02905-0.21059 0.02905h-0.23478zm0 0.62206h0.24689c0.075 0 0.15007 0.0024 0.2251 0.03873 0.11134 0.05083 0.17186 0.15975 0.17186 0.26867s-0.0581 0.20816-0.16218 0.25657c-0.0653 0.02905-0.12828 0.02905-0.19364 0.02905h-0.28803z"/>
    <path d="m136.5 78.319v0.14281h0.26626v0.82538h-0.28078v0.13797h0.71646v-0.13797h-0.25899v-0.96819zm0.35824-0.47926c-0.0702 0-0.12587 0.05567-0.12587 0.12344 0 0.06777 0.0557 0.12344 0.12587 0.12344 0.0702 0 0.12586-0.05567 0.12586-0.12344 0-0.06777-0.0557-0.12344-0.12586-0.12344z"/>
    <path d="m137.91 78.024-0.0218 0.29772h-0.26383l-2e-3 0.14281h0.25899c-0.0145 0.1888-0.0218 0.3776-0.0218 0.56397 0 0.09924 0 0.21058 0.0653 0.30256 0.0533 0.07261 0.13797 0.11618 0.25173 0.11618 0.13071 0 0.25899-0.05567 0.35339-0.12344l-0.0532-0.13797c-0.0944 0.07019-0.18154 0.10166-0.24931 0.10166-0.0823 0-0.16701-0.04599-0.18638-0.17912 0-0.0097-7e-3 -0.05083-7e-3 -0.213 0-0.14281 7e-3 -0.28804 0.0218-0.43085h0.36307v-0.14523h-0.36065s0.0169-0.19848 0.029-0.26141c2e-3 -0.0242 0.0218-0.03873 0.0121-0.06535z"/>
    <path d="m139.71 78.467c-0.10166-0.11134-0.24931-0.17185-0.4139-0.17185-0.25658 0-0.42359 0.14281-0.42359 0.3074 0 0.19364 0.20816 0.26383 0.26867 0.28562 0.0944 0.03389 0.21543 0.06293 0.29772 0.10166 0.092 0.04357 0.10893 0.10166 0.10893 0.14039 0 0.10408-0.12587 0.17428-0.2832 0.17428-0.1888 0-0.30982-0.11376-0.34613-0.15249-7e-3 -0.0097-7e-3 -0.01694-7e-3 -0.02662 0-0.0024 2e-3 -0.01694-0.01-0.02179l-0.10166 0.17186c0.1307 0.12102 0.30014 0.1767 0.46715 0.1767 0.30256 0 0.45989-0.17912 0.45989-0.34613 0-0.07503-0.0315-0.1767-0.16217-0.24931-0.12345-0.07019-0.30256-0.0944-0.40664-0.14523-0.0896-0.04357-0.10892-0.09682-0.10892-0.13555 0-0.08714 0.10892-0.15007 0.23236-0.15007 0.15975 0 0.26626 0.09682 0.3074 0.15249 7e-3 0.0073 5e-3 0.01452 5e-3 0.02178 0 0.01452 0.01 0.01936 0.0145 0.01936z"/>
    <path d="m141.69 77.908c-0.23963 0-0.48652 0.2953-0.48652 0.77698 0 0.48894 0.24931 0.76972 0.48894 0.76972 0.21784 0 0.47683-0.23721 0.47683-0.75761 0-0.51314-0.24689-0.78908-0.47925-0.78908zm0.23478 0.34613-0.53008 0.68742c-0.0218-0.08472-0.0339-0.17912-0.0339-0.28562 0-0.38728 0.1767-0.60028 0.32677-0.60028 0.0823 0 0.17185 0.06535 0.2372 0.19848zm0.0557 0.15975c0.0218 0.08472 0.0315 0.18638 0.0315 0.30498 0 0.42116-0.18154 0.58092-0.31466 0.58092-0.0896 0-0.18154-0.07261-0.24689-0.20574z"/>
    <path d="m142.46 78.586v0.15975h0.87138v-0.15975z"/>
    <path d="m144.22 77.918h-0.11134l-0.38728 0.2009 0.0387 0.0944 0.30014-0.08472v1.1667h-0.28077v0.13313h0.71162v-0.13313h-0.2711z"/>
    <path d="m144.97 77.918-0.0532 0.76729 0.10893 0.04357c0.0726-0.09198 0.17911-0.14281 0.28319-0.14281 0.15733 0 0.3074 0.12102 0.3074 0.36065 0 0.23237-0.1428 0.35823-0.30498 0.35823-0.16217 0-0.26867-0.12344-0.27593-0.13797-0.01-0.01936 2e-3 -0.04357-0.0194-0.05809l-0.15007 0.11376c0.10166 0.14765 0.26868 0.23237 0.44779 0.23237 0.26142 0 0.47684-0.1767 0.47684-0.50346 0-0.32434-0.20332-0.50346-0.45747-0.50346-0.0823 0-0.16702 0.01936-0.24447 0.05809l0.0218-0.43569h0.62449v-0.15249z"/>
   </g>
   <g transform="scale(1.0015 .99852)" aria-label="0">
    <path d="m129.99 82.423c-0.23962 0-0.48651 0.2953-0.48651 0.77698 0 0.48894 0.24931 0.76972 0.48893 0.76972 0.21785 0 0.47684-0.23721 0.47684-0.75761 0-0.51314-0.24689-0.78908-0.47926-0.78908zm0.23479 0.34613-0.53009 0.68742c-0.0218-0.08472-0.0339-0.17912-0.0339-0.28562 0-0.38728 0.17669-0.60028 0.32676-0.60028 0.0823 0 0.17186 0.06535 0.23721 0.19848zm0.0557 0.15975c0.0218 0.08472 0.0315 0.18638 0.0315 0.30498 0 0.42116-0.18154 0.58092-0.31466 0.58092-0.0896 0-0.18154-0.07261-0.24689-0.20574z" fill="#fff" stroke-width=".28222px"/>
   </g>
   <g transform="scale(1.0015 .99852)" stroke-width=".28222px" aria-label="32">
    <path d="m129.81 87.333c0-0.20574-0.17427-0.38244-0.4139-0.38244-0.13555 0-0.26867 0.05809-0.36307 0.16217l0.0944 0.10408c0.0702-0.07504 0.16701-0.11618 0.26141-0.11618 0.15491 0 0.26141 0.10892 0.26141 0.23721 0 0.08956-0.0557 0.19122-0.16217 0.23721-0.0266 0.0097-0.0944 0.03631-0.23721 0.03631v0.13555c0.0242-0.0024 0.0508-0.0048 0.0775-0.0048 0.20332 0 0.35339 0.1065 0.35339 0.28804 0 0.16459-0.12587 0.3074-0.30256 0.3074-0.14039 0-0.22511-0.09198-0.23721-0.10408-0.0194-0.02179-0.01-0.04599-0.0315-0.06777l-0.12586 0.15249c0.0992 0.11376 0.24447 0.17185 0.39454 0.17185 0.29045 0 0.46473-0.20574 0.46473-0.44053 0-0.17912-0.10166-0.33161-0.25899-0.3897 0.13554-0.05083 0.2251-0.17912 0.2251-0.32676z"/>
    <path d="m130.22 87.19 0.12345 0.09924c0.0145-0.02178 7e-3 -0.03631 0.0218-0.05567 0.0363-0.05567 0.12587-0.13797 0.25657-0.13797 0.16218 0 0.29046 0.12344 0.29046 0.28562 0 0.18396-0.15491 0.31708-0.26383 0.41632-0.17186 0.15491-0.31224 0.30982-0.43811 0.55913v0.1065h0.8859v-0.16701c-0.0169-0.0073-0.029 0.0048-0.0339 0.0097-0.01 0.0097-0.0145 0.0097-0.0242 0.0097h-0.63417c0.12587-0.21784 0.30256-0.36791 0.41148-0.46957 0.10892-0.10408 0.26384-0.25899 0.26384-0.47684 0-0.23479-0.19122-0.42358-0.43569-0.42358-0.17186 0-0.33403 0.09198-0.42359 0.24447z"/>
   </g>
   <g transform="scale(1.0015 .99852)" stroke-width=".28222px" aria-label="64">
    <path d="m129.52 91.46c-0.18153 0-0.37517 0.11134-0.46957 0.37518-0.0508 0.14281-0.0629 0.3195-0.0629 0.46473 0 0.1767 0.0169 0.36549 0.11376 0.51072 0.0871 0.13313 0.22268 0.2009 0.35581 0.2009 0.22995 0 0.43085-0.19364 0.43085-0.50588 0-0.31224-0.2009-0.49378-0.41391-0.49378-0.1307 0-0.25415 0.07019-0.3195 0.18154 0.01-0.51556 0.25657-0.58334 0.36549-0.58334 0.0992 0 0.16702 0.05325 0.1767 0.06293 0.0145 0.01694 0.0145 0.03873 0.0363 0.05567l0.11618-0.13071c-0.0871-0.08714-0.20816-0.13797-0.32919-0.13797zm-0.0629 0.70194c0.12102 0 0.26625 0.0944 0.26625 0.35339 0 0.23479-0.1307 0.34613-0.25899 0.34613-0.18396 0-0.32192-0.21542-0.30256-0.49862 0.0678-0.12344 0.18396-0.2009 0.2953-0.2009z"/>
    <path d="m130.79 91.477-0.64143 0.96577v0.12586h0.60754v0.41632h0.17428v-0.4139h0.19606v-0.15007h-0.19606v-0.94399zm-0.0315 0.26867v0.67532h-0.44295z"/>
   </g>
   <g transform="scale(1.0015 .99852)" stroke-width=".28222px" aria-label="96">
    <path d="m129.35 97.534c0.18396 0 0.37517-0.11134 0.46715-0.35097 0.0266-0.07019 0.0654-0.2009 0.0654-0.44779 0-0.1888-0.0169-0.3195-0.0533-0.42116-0.0774-0.23237-0.25173-0.32919-0.40906-0.32919-0.23478 0-0.43084 0.20816-0.43084 0.50104 0 0.28804 0.19363 0.47442 0.4139 0.47442 0.12344 0 0.23963-0.06051 0.30982-0.16217-7e-3 0.23479-0.046 0.33645-0.0605 0.37276-0.0653 0.15249-0.19122 0.20816-0.29772 0.20816-0.10892 0-0.18154-0.05325-0.18154-0.05567-0.0218-0.01452-0.0145-0.04115-0.0412-0.05809l-0.11618 0.13071c0.0896 0.08714 0.20816 0.13797 0.33403 0.13797zm0.0678-0.7213c-0.13312 0-0.26383-0.10892-0.26383-0.33403 0-0.22026 0.12586-0.34371 0.26383-0.34371 0.16944 0 0.31467 0.1888 0.28804 0.49378-0.0678 0.11376-0.17912 0.18396-0.28804 0.18396z"/>
    <path d="m130.73 95.983c-0.18154 0-0.37518 0.11134-0.46958 0.37518-0.0508 0.14281-0.0629 0.3195-0.0629 0.46473 0 0.1767 0.0169 0.36549 0.11376 0.51072 0.0871 0.13313 0.22269 0.2009 0.35581 0.2009 0.22995 0 0.43085-0.19364 0.43085-0.50588 0-0.31224-0.2009-0.49378-0.4139-0.49378-0.13071 0-0.25415 0.07019-0.31951 0.18154 0.01-0.51556 0.25657-0.58334 0.3655-0.58334 0.0992 0 0.16701 0.05325 0.17669 0.06293 0.0145 0.01694 0.0145 0.03873 0.0363 0.05567l0.11618-0.13071c-0.0871-0.08714-0.20816-0.13797-0.32918-0.13797zm-0.0629 0.70194c0.12103 0 0.26626 0.0944 0.26626 0.35339 0 0.23479-0.13071 0.34613-0.259 0.34613-0.18395 0-0.32192-0.21542-0.30256-0.49862 0.0678-0.12344 0.18396-0.2009 0.2953-0.2009z"/>
   </g>
  </g>
  <g>
   <path d="m161.88 98.669v-22.833" fill="none" stroke="#e9e56f" stroke-width=".09813"/>
   <g transform="scale(1.0015 .99852)" fill="#fff" stroke-width=".28222px" aria-label="Bits 16-31">
    <path d="m148.96 77.918v1.508h0.426c0.10166 0 0.20575 0 0.30983-0.04357 0.16217-0.07019 0.25173-0.21784 0.25173-0.37276 0-0.1767-0.11377-0.33403-0.28078-0.3897 0.13313-0.05567 0.22269-0.1888 0.22269-0.33161 0-0.13555-0.0775-0.26625-0.22027-0.32677-0.0944-0.04115-0.1888-0.04357-0.28078-0.04357zm0.16701 0.14523h0.23721c0.0653 0 0.13313 0 0.2009 0.02663 0.0992 0.04115 0.15249 0.12586 0.15249 0.213 0 0.08714-0.0508 0.16943-0.14523 0.21058-0.0702 0.02905-0.14281 0.02905-0.21058 0.02905h-0.23479zm0 0.62206h0.24689c0.075 0 0.15007 0.0024 0.22511 0.03873 0.11134 0.05083 0.17185 0.15975 0.17185 0.26867s-0.0581 0.20816-0.16217 0.25657c-0.0653 0.02905-0.12829 0.02905-0.19364 0.02905h-0.28804z"/>
    <path d="m150.31 78.319v0.14281h0.26625v0.82538h-0.28077v0.13797h0.71646v-0.13797h-0.25899v-0.96819zm0.35823-0.47926c-0.0702 0-0.12586 0.05567-0.12586 0.12344 0 0.06777 0.0557 0.12344 0.12586 0.12344 0.0702 0 0.12587-0.05567 0.12587-0.12344 0-0.06777-0.0557-0.12344-0.12587-0.12344z"/>
    <path d="m151.72 78.024-0.0218 0.29772h-0.26383l-2e-3 0.14281h0.259c-0.0145 0.1888-0.0218 0.3776-0.0218 0.56397 0 0.09924 0 0.21058 0.0654 0.30256 0.0532 0.07261 0.13796 0.11618 0.25173 0.11618 0.1307 0 0.25899-0.05567 0.35339-0.12344l-0.0533-0.13797c-0.0944 0.07019-0.18154 0.10166-0.24931 0.10166-0.0823 0-0.16702-0.04599-0.18638-0.17912 0-0.0097-7e-3 -0.05083-7e-3 -0.213 0-0.14281 7e-3 -0.28804 0.0218-0.43085h0.36307v-0.14523h-0.36065s0.017-0.19848 0.0291-0.26141c2e-3 -0.0242 0.0218-0.03873 0.0121-0.06535z"/>
    <path d="m153.52 78.467c-0.10166-0.11134-0.24931-0.17185-0.4139-0.17185-0.25657 0-0.42358 0.14281-0.42358 0.3074 0 0.19364 0.20816 0.26383 0.26867 0.28562 0.0944 0.03389 0.21542 0.06293 0.29772 0.10166 0.092 0.04357 0.10892 0.10166 0.10892 0.14039 0 0.10408-0.12586 0.17428-0.2832 0.17428-0.18879 0-0.30982-0.11376-0.34612-0.15249-7e-3 -0.0097-7e-3 -0.01694-7e-3 -0.02662 0-0.0024 2e-3 -0.01694-0.01-0.02179l-0.10166 0.17186c0.13071 0.12102 0.30014 0.1767 0.46716 0.1767 0.30256 0 0.45989-0.17912 0.45989-0.34613 0-0.07503-0.0315-0.1767-0.16217-0.24931-0.12345-0.07019-0.30257-0.0944-0.40665-0.14523-0.0896-0.04357-0.10892-0.09682-0.10892-0.13555 0-0.08714 0.10892-0.15007 0.23237-0.15007 0.15975 0 0.26625 0.09682 0.3074 0.15249 7e-3 0.0073 5e-3 0.01452 5e-3 0.02178 0 0.01452 0.01 0.01936 0.0145 0.01936z"/>
    <path d="m155.61 77.918h-0.11134l-0.38728 0.2009 0.0387 0.0944 0.30014-0.08472v1.1667h-0.28077v0.13313h0.71162v-0.13313h-0.2711z"/>
    <path d="m156.8 77.901c-0.18153 0-0.37517 0.11134-0.46957 0.37518-0.0508 0.14281-0.0629 0.3195-0.0629 0.46473 0 0.1767 0.0169 0.36549 0.11376 0.51072 0.0871 0.13313 0.22268 0.2009 0.35581 0.2009 0.22995 0 0.43085-0.19364 0.43085-0.50588 0-0.31224-0.2009-0.49378-0.41391-0.49378-0.1307 0-0.25415 0.07019-0.3195 0.18154 0.01-0.51556 0.25657-0.58334 0.36549-0.58334 0.0992 0 0.16702 0.05325 0.1767 0.06293 0.0145 0.01694 0.0145 0.03873 0.0363 0.05567l0.11618-0.13071c-0.0871-0.08714-0.20816-0.13797-0.32919-0.13797zm-0.0629 0.70194c0.12102 0 0.26625 0.0944 0.26625 0.35339 0 0.23479-0.1307 0.34613-0.25899 0.34613-0.18396 0-0.32192-0.21542-0.30256-0.49862 0.0678-0.12344 0.18396-0.2009 0.2953-0.2009z"/>
    <path d="m157.48 78.586v0.15975h0.87137v-0.15975z"/>
    <path d="m159.52 78.295c0-0.20574-0.17428-0.38244-0.41391-0.38244-0.13554 0-0.26867 0.05809-0.36307 0.16217l0.0944 0.10408c0.0702-0.07503 0.16701-0.11618 0.26141-0.11618 0.15491 0 0.26142 0.10892 0.26142 0.23721 0 0.08956-0.0557 0.19122-0.16218 0.23721-0.0266 0.0097-0.0944 0.03631-0.2372 0.03631v0.13555c0.0242-0.0024 0.0508-0.0048 0.0774-0.0048 0.20332 0 0.35339 0.1065 0.35339 0.28804 0 0.16459-0.12586 0.3074-0.30256 0.3074-0.14039 0-0.2251-0.09198-0.23721-0.10408-0.0194-0.02179-0.01-0.04599-0.0315-0.06777l-0.12587 0.15249c0.0992 0.11376 0.24447 0.17185 0.39454 0.17185 0.29046 0 0.46473-0.20574 0.46473-0.44053 0-0.17912-0.10166-0.33161-0.25899-0.3897 0.13555-0.05083 0.22511-0.17912 0.22511-0.32677z"/>
    <path d="m160.45 77.918h-0.11135l-0.38727 0.2009 0.0387 0.0944 0.30014-0.08472v1.1667h-0.28077v0.13313h0.71162v-0.13313h-0.27109z"/>
   </g>
   <g transform="scale(1.0015 .99852)" fill="#e9e56f" stroke-width=".28222px" aria-label="ACK Sequence">
    <path d="m140.71 88.478h0.16701l0.14765-0.44295h0.47684l0.16701 0.44053h0.1767l-0.58334-1.5346h-0.0194zm0.75519-0.57366h-0.40906l0.19606-0.57366z"/>
    <path d="m142.56 86.955c-0.23479 0-0.57365 0.17186-0.57365 0.77698 0 0.58092 0.32434 0.76972 0.57365 0.76972 0.17912 0 0.34613-0.0944 0.44053-0.24931l-0.12345-0.07988c-0.0702 0.11376-0.19121 0.18154-0.3074 0.18154-0.22268 0-0.41874-0.22995-0.41874-0.63901 0-0.39938 0.19122-0.62448 0.40422-0.62448 0.11618 0 0.22753 0.07019 0.28804 0.1767 5e-3 0.0073 0.01 0.01452 0.01 0.0242 0 0.0073-2e-3 0.0121-2e-3 0.01936 0 0.0024 0 0.01452 0.0121 0.02178l0.15975-0.07745c-0.0799-0.18154-0.26141-0.30014-0.46231-0.30014z"/>
    <path d="m143.2 86.968v1.508h0.17912v-0.62448l0.1186-0.12829 0.52525 0.76487s0.0944-0.0097 0.21542-0.0097l-0.60996-0.85685 0.56881-0.65353h-0.0629c-0.0411 0-0.0823 0-0.12345-0.0121l-0.63174 0.7092v-0.63659c0-0.0097 0-0.01694 0.01-0.02662 5e-3 -0.0073 0.0169-0.01936 0.0121-0.03389z"/>
    <path d="m146.57 87.149c-0.10166-0.12344-0.25173-0.1888-0.41633-0.1888-0.27351 0-0.45989 0.17912-0.45989 0.38728 0 0.08714 0.0339 0.2009 0.15975 0.29288 0.14039 0.10408 0.35823 0.15491 0.472 0.22753 0.0992 0.06051 0.12586 0.14039 0.12586 0.20816 0 0.13071-0.11134 0.27352-0.32918 0.27352-0.1646 0-0.29288-0.0823-0.36066-0.16701-7e-3 -0.0097-7e-3 -0.01452-7e-3 -0.0242 0-0.0048 0-0.01936-0.01-0.02421l-0.10166 0.17428c0.1186 0.12829 0.28804 0.19364 0.47442 0.19364 0.36791 0 0.50346-0.24689 0.50346-0.43569 0-0.07988-0.0242-0.18396-0.11861-0.27351-0.1307-0.12344-0.34371-0.16701-0.48167-0.24689-0.12587-0.07503-0.15249-0.16459-0.15249-0.2251 0-0.11618 0.0992-0.22026 0.27109-0.22026 0.14039 0 0.24931 0.06293 0.3074 0.14765 7e-3 0.0097 5e-3 0.01452 5e-3 0.02421 0 0.01452 7e-3 0.01936 0.0121 0.01936z"/>
    <path d="m147.35 87.345c-0.26383 0-0.5083 0.1888-0.5083 0.5906 0 0.37033 0.22995 0.56639 0.53009 0.56639 0.15975 0 0.30256-0.05809 0.39696-0.17186l-0.0968-0.0944c-0.0702 0.0823-0.1767 0.12587-0.28562 0.12587-0.14765 0-0.36307-0.0823-0.37517-0.4139h0.78423c7e-3 -0.07503 5e-3 -0.14765-7e-3 -0.21058-0.0508-0.29772-0.25657-0.39212-0.43811-0.39212zm-0.33402 0.46957c0.0363-0.26141 0.20332-0.33645 0.32192-0.33645 0.17912 0 0.3074 0.15733 0.28562 0.33645z"/>
    <path d="m148.84 87.531c0 0.0024-0.0774-0.1888-0.32192-0.1888-0.24205 0-0.47926 0.19606-0.47926 0.57124 0 0.35823 0.21058 0.58818 0.45505 0.58818 0.14039 0 0.26868-0.07988 0.33887-0.20332v0.58092h0.17186v-1.508h-0.1646zm-0.31466-0.04599c0.0992 0 0.2251 0.05083 0.27351 0.18638 0.0218 0.06293 0.0266 0.13071 0.0266 0.26625 0 0.0823-5e-3 0.14281-0.0218 0.2009-0.0436 0.13071-0.15734 0.20816-0.2711 0.20816-0.15975 0-0.3195-0.14523-0.3195-0.45747 0-0.29046 0.16459-0.40422 0.31224-0.40422z"/>
    <path d="m149.3 87.372v0.61722c0 0.0944 0 0.19122 0.0436 0.29046 0.0629 0.14523 0.19848 0.2251 0.34371 0.2251 0.13797 0 0.26868-0.07504 0.34129-0.19606l-2e-3 0.0823c0 0.02905 0 0.05809 5e-3 0.08472h0.18396c-0.0121-0.03147-0.0145-0.06777-0.0145-0.09924v-1.0045h-0.17427v0.60754c0 0.08472-7e-3 0.15007-0.0436 0.21784-0.0508 0.0944-0.15007 0.16459-0.25657 0.16459-0.0847 0-0.16701-0.04841-0.21058-0.13555-0.0387-0.07746-0.0387-0.16459-0.0387-0.23721v-0.61722z"/>
    <path d="m150.98 87.345c-0.26383 0-0.5083 0.1888-0.5083 0.5906 0 0.37033 0.22995 0.56639 0.53009 0.56639 0.15975 0 0.30256-0.05809 0.39696-0.17186l-0.0968-0.0944c-0.0702 0.0823-0.1767 0.12587-0.28562 0.12587-0.14765 0-0.36307-0.0823-0.37518-0.4139h0.78424c7e-3 -0.07503 5e-3 -0.14765-7e-3 -0.21058-0.0508-0.29772-0.25657-0.39212-0.43811-0.39212zm-0.33402 0.46957c0.0363-0.26141 0.20332-0.33645 0.32192-0.33645 0.17912 0 0.3074 0.15733 0.28562 0.33645z"/>
    <path d="m151.73 88.475h0.1767v-0.63659c0-0.07261 0.01-0.12829 0.0557-0.1888 0.0411-0.05567 0.14765-0.15491 0.26383-0.15491 0.0557 0 0.11134 0.0242 0.15007 0.07019 0.0605 0.07261 0.0605 0.16701 0.0605 0.24447v0.66563h0.17186v-0.67047c0-0.08472 0-0.1767-0.0387-0.26625-0.0557-0.12344-0.16943-0.19364-0.2953-0.19364-0.15007 0-0.28561 0.09682-0.36791 0.22026v-0.19364h-0.1767z"/>
    <path d="m153.88 87.553c-0.0871-0.12828-0.23478-0.20574-0.4139-0.20574-0.32434 0-0.55429 0.24447-0.55429 0.57608 0 0.33403 0.22995 0.58092 0.54461 0.58092 0.15249 0 0.30256-0.06293 0.40664-0.1767l-0.0992-0.11618c-0.075 0.08472-0.18396 0.13313-0.29288 0.13313-0.21542 0-0.38001-0.17912-0.38001-0.43811 0-0.25173 0.16217-0.40906 0.36549-0.40906 0.1888 0 0.27835 0.13071 0.28562 0.14523 0.01 0.01694-5e-3 0.04115 0.0145 0.05567z"/>
    <path d="m154.61 87.345c-0.26383 0-0.5083 0.1888-0.5083 0.5906 0 0.37033 0.22994 0.56639 0.53009 0.56639 0.15975 0 0.30256-0.05809 0.39695-0.17186l-0.0968-0.0944c-0.0702 0.0823-0.1767 0.12587-0.28562 0.12587-0.14765 0-0.36307-0.0823-0.37518-0.4139h0.78424c7e-3 -0.07503 5e-3 -0.14765-7e-3 -0.21058-0.0508-0.29772-0.25657-0.39212-0.43811-0.39212zm-0.33403 0.46957c0.0363-0.26141 0.20332-0.33645 0.32193-0.33645 0.17911 0 0.3074 0.15733 0.28562 0.33645z"/>
   </g>
   <path d="m147.77 94.154v-4.4882" fill="none" stroke="#e9e56f" stroke-width=".09813"/>
  </g>
  <g fill="#e9e56f" stroke-width=".28222px">
   <g transform="scale(1.0015 .99852)" aria-label="QPort">
    <path d="m138.18 91.628c0.1065 0 0.23721 0.06293 0.30982 0.24205 0.0533 0.12829 0.0605 0.27594 0.0605 0.4018 0 0.50104-0.23237 0.59302-0.36066 0.59302-0.17669 0-0.38001-0.16943-0.38001-0.64627 0-0.44295 0.20574-0.5906 0.37033-0.5906zm0.53493 0.62449c0-0.14281-0.01-0.32919-0.092-0.49136-0.0968-0.19606-0.27109-0.28562-0.43569-0.28562-0.2251 0-0.54219 0.17428-0.54219 0.76729 0 0.53735 0.25658 0.74067 0.47442 0.77456 0 0.13797 0.0363 0.24205 0.14523 0.2953 0.0944 0.04599 0.2009 0.03631 0.37517 0.03631l2e-3 -0.16459c-0.075 0.0048-0.14038 0.01452-0.19605 0.01452-0.15007 0-0.17428-0.09924-0.1767-0.18396 0.13797-0.02421 0.27109-0.11618 0.35581-0.2832 0.0799-0.15975 0.0896-0.34855 0.0896-0.47926z"/>
    <path d="m138.93 91.49v1.508h0.1767v-0.66563h0.2953c0.0944 0 0.18395-0.0024 0.27593-0.04841 0.14039-0.07019 0.213-0.21542 0.213-0.36791s-0.0726-0.30014-0.21542-0.37276c-0.0944-0.05083-0.1888-0.05325-0.28562-0.05325zm0.1767 0.15975h0.28319c0.0629 0 0.12345 0.0024 0.18638 0.03147 0.092 0.04841 0.14281 0.14523 0.14281 0.24205s-0.0484 0.18638-0.13555 0.22995c-0.0581 0.02904-0.11618 0.03147-0.17427 0.03147h-0.30498z"/>
    <path d="m141.11 92.451c0-0.38244-0.24205-0.58092-0.49378-0.58092-0.28078 0-0.52282 0.24205-0.52282 0.58576 0 0.33645 0.23962 0.57366 0.51798 0.57366 0.26141 0 0.49862-0.21058 0.49862-0.5785zm-0.50588-0.43327c0.15975 0 0.32918 0.13797 0.32918 0.44053 0 0.27836-0.15975 0.41874-0.3195 0.41874-0.1767 0-0.33645-0.16459-0.33645-0.43811 0-0.27109 0.15733-0.42116 0.32677-0.42116z"/>
    <path d="m141.45 91.894v1.1062h0.17427v-0.53735c0-0.06777 2e-3 -0.14039 0.0775-0.25899 0.10166-0.15975 0.23236-0.18638 0.31224-0.18638 0.092 0 0.15007 0.04357 0.18154 0.0823 0.0145 0.01936 0.0218 0.03873 0.0411 0.05567l0.0823-0.16701c-0.0702-0.07261-0.17185-0.12102-0.2953-0.12102-0.16217 0-0.32676 0.0823-0.39938 0.23963l7e-3 -0.213z"/>
    <path d="m142.87 91.596-0.0218 0.29772h-0.26383l-2e-3 0.14281h0.25899c-0.0145 0.1888-0.0218 0.3776-0.0218 0.56397 0 0.09924 0 0.21058 0.0654 0.30256 0.0532 0.07261 0.13796 0.11618 0.25173 0.11618 0.1307 0 0.25899-0.05567 0.35339-0.12344l-0.0532-0.13797c-0.0944 0.07019-0.18154 0.10166-0.24931 0.10166-0.0823 0-0.16702-0.04599-0.18638-0.17912 0-0.0097-7e-3 -0.05083-7e-3 -0.213 0-0.14281 7e-3 -0.28804 0.0218-0.43085h0.36308v-0.14523h-0.36066s0.017-0.19848 0.0291-0.26141c2e-3 -0.02421 0.0218-0.03873 0.0121-0.06535z"/>
   </g>
   <g transform="scale(1.0015 .99852)" aria-label="Commands">
    <path d="m150.36 91.478c-0.23478 0-0.57365 0.17186-0.57365 0.77698 0 0.58092 0.32434 0.76972 0.57365 0.76972 0.17912 0 0.34613-0.0944 0.44053-0.24931l-0.12344-0.07988c-0.0702 0.11376-0.19122 0.18154-0.3074 0.18154-0.22269 0-0.41875-0.22995-0.41875-0.63901 0-0.39938 0.19122-0.62449 0.40422-0.62449 0.11619 0 0.22753 0.07019 0.28804 0.1767 5e-3 0.0073 0.01 0.01452 0.01 0.0242 0 0.0073-2e-3 0.0121-2e-3 0.01936 0 0.0024 0 0.01452 0.0121 0.02178l0.15975-0.07746c-0.0799-0.18154-0.26142-0.30014-0.46232-0.30014z"/>
    <path d="m152.02 92.451c0-0.38244-0.24205-0.58092-0.49378-0.58092-0.28078 0-0.52283 0.24205-0.52283 0.58576 0 0.33645 0.23963 0.57366 0.51799 0.57366 0.26141 0 0.49862-0.21058 0.49862-0.5785zm-0.50589-0.43327c0.15976 0 0.32919 0.13797 0.32919 0.44053 0 0.27836-0.15975 0.41874-0.3195 0.41874-0.1767 0-0.33645-0.16459-0.33645-0.43811 0-0.27109 0.15733-0.42116 0.32676-0.42116z"/>
    <path d="m152.2 92.998h0.15976v-0.73583c0-0.05325 5e-3 -0.10166 0.0363-0.15975 0.0387-0.07261 0.0871-0.10166 0.13313-0.10166 0.0387 0 0.0823 0.0242 0.10166 0.08472 0.0145 0.04599 0.0121 0.09924 0.0121 0.14523v0.76729h0.16217v-0.73099c0-0.05809 5e-3 -0.10408 0.046-0.17427 0.0194-0.02905 0.0605-0.09924 0.12829-0.09924 0.0363 0 0.0702 0.02178 0.0871 0.06293 0.0218 0.04599 0.0169 0.10892 0.0169 0.15975v0.78424h0.16459v-0.78666c0-0.09198 2e-3 -0.18396-0.046-0.25899-0.0411-0.06293-0.11134-0.08714-0.17185-0.08714-0.1065 0-0.20574 0.06293-0.24931 0.15975-0.0169-0.09198-0.0944-0.15975-0.19364-0.15975-0.092 0-0.17669 0.05809-0.22752 0.13555l2e-3 -0.10892h-0.16218z"/>
    <path d="m153.41 92.998h0.15975v-0.73583c0-0.05325 5e-3 -0.10166 0.0363-0.15975 0.0387-0.07261 0.0871-0.10166 0.13312-0.10166 0.0387 0 0.0823 0.0242 0.10166 0.08472 0.0145 0.04599 0.0121 0.09924 0.0121 0.14523v0.76729h0.16217v-0.73099c0-0.05809 5e-3 -0.10408 0.046-0.17427 0.0194-0.02905 0.0605-0.09924 0.12828-0.09924 0.0363 0 0.0702 0.02178 0.0871 0.06293 0.0218 0.04599 0.0169 0.10892 0.0169 0.15975v0.78424h0.1646v-0.78666c0-0.09198 2e-3 -0.18396-0.046-0.25899-0.0412-0.06293-0.11134-0.08714-0.17186-0.08714-0.1065 0-0.20574 0.06293-0.24931 0.15975-0.0169-0.09198-0.0944-0.15975-0.19364-0.15975-0.092 0-0.17669 0.05809-0.22752 0.13555l2e-3 -0.10892h-0.16217z"/>
    <path d="m154.75 92.022 0.0847 0.11134c0.092-0.0944 0.21543-0.12344 0.31951-0.12344 0.1307 0 0.19606 0.05567 0.22752 0.1065 0.0363 0.06051 0.0339 0.13313 0.0339 0.19122v0.03873h-0.0339c-0.16459 0-0.33887 0-0.47925 0.05083-0.17428 0.06293-0.25173 0.19364-0.25173 0.31466 0 0.16217 0.14038 0.31466 0.37033 0.31466 0.13555 0 0.27593-0.05083 0.39696-0.15007v0.12102h0.16459v-0.685c0-0.08956-2e-3 -0.17428-0.0532-0.26141-0.0726-0.1186-0.213-0.18154-0.38486-0.18154-0.14765 0-0.29045 0.04599-0.39454 0.15249zm0.6729 0.45747v0.07503c0 0.05567 0 0.12829-0.075 0.20816-0.0411 0.04115-0.14522 0.13071-0.29045 0.13071-0.14765 0-0.23237-0.0944-0.23237-0.19122 0-0.0823 0.0557-0.17186 0.19364-0.20574 0.10166-0.02421 0.24931-0.01694 0.36549-0.01694z"/>
    <path d="m155.91 92.998h0.17669v-0.63659c0-0.07261 0.01-0.12828 0.0557-0.1888 0.0411-0.05567 0.14765-0.15491 0.26384-0.15491 0.0557 0 0.11134 0.0242 0.15007 0.07019 0.0605 0.07261 0.0605 0.16701 0.0605 0.24447v0.66563h0.17185v-0.67047c0-0.08472 0-0.1767-0.0387-0.26625-0.0557-0.12344-0.16944-0.19364-0.2953-0.19364-0.15007 0-0.28562 0.09682-0.36792 0.22026v-0.19363h-0.17669z"/>
    <path d="m157.85 92.054c-0.0532-0.11376-0.17186-0.1888-0.32435-0.1888-0.21058 0-0.46715 0.15007-0.46715 0.57123 0 0.40906 0.22752 0.58818 0.44053 0.58818 0.14039 0 0.27109-0.07988 0.34129-0.20332v0.09682c0 0.02663 2e-3 0.05325 0.01 0.07988h0.17427c-0.01-0.03147-0.01-0.06777-0.01-0.10166l-2e-3 -1.4378c0-0.01452 0-0.01936 0.01-0.03389 5e-3 -0.0073 0.0145-0.01936 0.0121-0.03631h-0.18395zm-0.31709-0.04599c0.0968 0 0.23963 0.05083 0.2832 0.21542 0.0145 0.05083 0.0194 0.11134 0.0194 0.23479 0 0.08472-5e-3 0.14523-0.0242 0.20332-0.0412 0.13071-0.15733 0.20816-0.27109 0.20816-0.12587 0-0.31225-0.09682-0.31225-0.45989 0-0.31708 0.1767-0.4018 0.30498-0.4018z"/>
    <path d="m159.21 92.039c-0.10166-0.11134-0.24931-0.17186-0.4139-0.17186-0.25658 0-0.42359 0.14281-0.42359 0.3074 0 0.19364 0.20816 0.26383 0.26868 0.28562 0.0944 0.03389 0.21542 0.06293 0.29771 0.10166 0.092 0.04357 0.10893 0.10166 0.10893 0.14039 0 0.10408-0.12587 0.17428-0.2832 0.17428-0.1888 0-0.30982-0.11376-0.34613-0.15249-7e-3 -0.0097-7e-3 -0.01694-7e-3 -0.02663 0-0.0024 2e-3 -0.01694-0.01-0.02178l-0.10166 0.17185c0.1307 0.12102 0.30014 0.1767 0.46715 0.1767 0.30256 0 0.45989-0.17912 0.45989-0.34613 0-0.07503-0.0315-0.1767-0.16217-0.24931-0.12344-0.07019-0.30256-0.0944-0.40664-0.14523-0.0896-0.04357-0.10892-0.09682-0.10892-0.13555 0-0.08714 0.10892-0.15007 0.23236-0.15007 0.15976 0 0.26626 0.09682 0.30741 0.15249 7e-3 0.0073 5e-3 0.01452 5e-3 0.02178 0 0.01452 0.01 0.01936 0.0145 0.01936z"/>
   </g>
   <g transform="scale(1.0015 .99852)" aria-label="Commands">
    <path d="m143.6 96c-0.23479 0-0.57366 0.17185-0.57366 0.77698 0 0.58092 0.32435 0.76971 0.57366 0.76971 0.17911 0 0.34613-0.0944 0.44053-0.24931l-0.12345-0.07988c-0.0702 0.11376-0.19122 0.18154-0.3074 0.18154-0.22268 0-0.41874-0.22995-0.41874-0.63901 0-0.39938 0.19121-0.62448 0.40422-0.62448 0.11618 0 0.22752 0.07019 0.28804 0.1767 5e-3 0.0073 0.01 0.01452 0.01 0.0242 0 0.0073-2e-3 0.0121-2e-3 0.01936 0 0.0024 0 0.01452 0.0121 0.02178l0.15975-0.07746c-0.0799-0.18154-0.26141-0.30014-0.46231-0.30014z"/>
    <path d="m145.25 96.973c0-0.38244-0.24205-0.58092-0.49378-0.58092-0.28077 0-0.52282 0.24205-0.52282 0.58576 0 0.33645 0.23962 0.57366 0.51798 0.57366 0.26141 0 0.49862-0.21058 0.49862-0.5785zm-0.50588-0.43327c0.15975 0 0.32918 0.13797 0.32918 0.44053 0 0.27836-0.15975 0.41874-0.3195 0.41874-0.17669 0-0.33645-0.16459-0.33645-0.43811 0-0.2711 0.15733-0.42116 0.32677-0.42116z"/>
    <path d="m145.44 97.52h0.15975v-0.73583c0-0.05325 5e-3 -0.10166 0.0363-0.15975 0.0387-0.07261 0.0871-0.10166 0.13312-0.10166 0.0387 0 0.0823 0.0242 0.10166 0.08472 0.0145 0.04599 0.0121 0.09924 0.0121 0.14523v0.76729h0.16217v-0.73099c0-0.05809 5e-3 -0.10408 0.046-0.17428 0.0194-0.02905 0.0605-0.09924 0.12828-0.09924 0.0363 0 0.0702 0.02178 0.0871 0.06293 0.0218 0.04599 0.017 0.10892 0.017 0.15975v0.78424h0.16459v-0.78666c0-0.09198 2e-3 -0.18396-0.046-0.25899-0.0411-0.06293-0.11134-0.08714-0.17186-0.08714-0.1065 0-0.20574 0.06293-0.24931 0.15975-0.0169-0.09198-0.0944-0.15975-0.19363-0.15975-0.092 0-0.1767 0.05809-0.22753 0.13555l2e-3 -0.10892h-0.16217z"/>
    <path d="m146.65 97.52h0.15975v-0.73583c0-0.05325 5e-3 -0.10166 0.0363-0.15975 0.0387-0.07261 0.0871-0.10166 0.13313-0.10166 0.0387 0 0.0823 0.0242 0.10166 0.08472 0.0145 0.04599 0.0121 0.09924 0.0121 0.14523v0.76729h0.16217v-0.73099c0-0.05809 5e-3 -0.10408 0.046-0.17428 0.0194-0.02905 0.0605-0.09924 0.12829-0.09924 0.0363 0 0.0702 0.02178 0.0871 0.06293 0.0218 0.04599 0.017 0.10892 0.017 0.15975v0.78424h0.16459v-0.78666c0-0.09198 2e-3 -0.18396-0.046-0.25899-0.0411-0.06293-0.11134-0.08714-0.17185-0.08714-0.1065 0-0.20574 0.06293-0.24931 0.15975-0.017-0.09198-0.0944-0.15975-0.19364-0.15975-0.092 0-0.1767 0.05809-0.22753 0.13555l2e-3 -0.10892h-0.16217z"/>
    <path d="m147.99 96.544 0.0847 0.11134c0.092-0.0944 0.21542-0.12344 0.3195-0.12344 0.13071 0 0.19606 0.05567 0.22753 0.1065 0.0363 0.06051 0.0339 0.13313 0.0339 0.19122v0.03873h-0.0339c-0.1646 0-0.33887 0-0.47926 0.05083-0.17428 0.06293-0.25173 0.19364-0.25173 0.31466 0 0.16217 0.14039 0.31466 0.37033 0.31466 0.13555 0 0.27594-0.05083 0.39696-0.15007v0.12102h0.1646v-0.685c0-0.08956-2e-3 -0.17428-0.0533-0.26141-0.0726-0.1186-0.21301-0.18154-0.38486-0.18154-0.14765 0-0.29046 0.04599-0.39454 0.15249zm0.67289 0.45747v0.07503c0 0.05567 0 0.12829-0.075 0.20816-0.0412 0.04115-0.14523 0.13071-0.29046 0.13071-0.14765 0-0.23237-0.0944-0.23237-0.19122 0-0.0823 0.0557-0.17186 0.19364-0.20574 0.10166-0.02421 0.24931-0.01694 0.3655-0.01694z"/>
    <path d="m149.15 97.52h0.1767v-0.63659c0-0.07261 0.01-0.12829 0.0557-0.1888 0.0412-0.05567 0.14765-0.15491 0.26383-0.15491 0.0557 0 0.11134 0.0242 0.15007 0.07019 0.0605 0.07261 0.0605 0.16701 0.0605 0.24447v0.66563h0.17186v-0.67048c0-0.08472 0-0.1767-0.0387-0.26625-0.0557-0.12344-0.16943-0.19364-0.2953-0.19364-0.15007 0-0.28562 0.09682-0.36791 0.22026v-0.19364h-0.1767z"/>
    <path d="m151.09 96.576c-0.0533-0.11376-0.17185-0.1888-0.32434-0.1888-0.21059 0-0.46716 0.15007-0.46716 0.57123 0 0.40906 0.22753 0.58818 0.44053 0.58818 0.14039 0 0.2711-0.07988 0.34129-0.20332v0.09682c0 0.02663 2e-3 0.05325 0.01 0.07988h0.17428c-0.01-0.03147-0.01-0.06777-0.01-0.10166l-2e-3 -1.4378c0-0.01452 0-0.01936 0.01-0.03389 5e-3 -0.0073 0.0145-0.01936 0.0121-0.03631h-0.18396zm-0.31708-0.04599c0.0968 0 0.23963 0.05083 0.28319 0.21542 0.0145 0.05083 0.0194 0.11134 0.0194 0.23479 0 0.08472-5e-3 0.14523-0.0242 0.20332-0.0411 0.13071-0.15733 0.20816-0.27109 0.20816-0.12587 0-0.31224-0.09682-0.31224-0.45989 0-0.31708 0.17669-0.4018 0.30498-0.4018z"/>
    <path d="m152.45 96.561c-0.10166-0.11134-0.24931-0.17186-0.4139-0.17186-0.25657 0-0.42358 0.14281-0.42358 0.3074 0 0.19364 0.20816 0.26383 0.26867 0.28562 0.0944 0.03389 0.21542 0.06293 0.29772 0.10166 0.092 0.04357 0.10892 0.10166 0.10892 0.14039 0 0.10408-0.12586 0.17428-0.2832 0.17428-0.18879 0-0.30982-0.11376-0.34613-0.15249-7e-3 -0.0097-7e-3 -0.01694-7e-3 -0.02662 0-0.0024 2e-3 -0.01694-0.01-0.02179l-0.10166 0.17186c0.13071 0.12102 0.30014 0.1767 0.46715 0.1767 0.30257 0 0.4599-0.17912 0.4599-0.34613 0-0.07503-0.0315-0.1767-0.16218-0.24931-0.12344-0.07019-0.30256-0.0944-0.40664-0.14523-0.0896-0.04357-0.10892-0.09682-0.10892-0.13555 0-0.08714 0.10892-0.15007 0.23237-0.15007 0.15975 0 0.26625 0.09682 0.3074 0.15249 7e-3 0.0073 5e-3 0.01452 5e-3 0.02178 0 0.01452 0.01 0.01936 0.0145 0.01936z"/>
   </g>
  </g>
 </g>
</svg>
