<svg width="58.705mm" height="14.854mm" version="1.1" viewBox="0 0 58.705 14.854" xmlns="http://www.w3.org/2000/svg">
 <g transform="translate(-140.55 -19.793)">
  <g transform="rotate(-54.591)" fill="#e9e56f" opacity=".91" aria-label="Initial state">
   <g transform="rotate(54.591)" fill="#e9e56f" opacity=".91" stroke-width=".28222px" aria-label="Time">
    <path d="m146.03 29.432v0.11112h0.31045v0.98954h0.12523v-0.98954h0.32456v-0.11112z"/>
    <path d="m147.04 29.725v0.10407h0.19403v0.60149h-0.20462v0.10054h0.52212v-0.10054h-0.18874v-0.70556zm0.26105-0.34925c-0.0512 0-0.0917 0.04057-0.0917 0.08996s0.0406 0.08996 0.0917 0.08996c0.0512 0 0.0917-0.04057 0.0917-0.08996s-0.0406-0.08996-0.0917-0.08996z"/>
    <path d="m147.8 30.531h0.11642v-0.53622c0-0.0388 4e-3 -0.07408 0.0265-0.11642 0.0282-0.05292 0.0635-0.07408 0.097-0.07408 0.0282 0 0.06 0.01764 0.0741 0.06174 0.0106 0.03351 9e-3 0.07232 9e-3 0.10583v0.55915h0.11818v-0.5327c0-0.04233 4e-3 -0.07585 0.0335-0.127 0.0141-0.02117 0.0441-0.07232 0.0935-0.07232 0.0264 0 0.0511 0.01588 0.0635 0.04586 0.0159 0.03351 0.0123 0.07937 0.0123 0.11642v0.5715h0.11995v-0.57326c0-0.06703 2e-3 -0.13406-0.0335-0.18874-0.03-0.04586-0.0811-0.0635-0.12523-0.0635-0.0776 0-0.14993 0.04586-0.18168 0.11642-0.0123-0.06703-0.0688-0.11642-0.14111-0.11642-0.067 0-0.12877 0.04233-0.16581 0.09878l2e-3 -0.07937h-0.11818z"/>
    <path d="m149.07 29.707c-0.19227 0-0.37042 0.13758-0.37042 0.43039 0 0.26988 0.16757 0.41275 0.38629 0.41275 0.11642 0 0.22049-0.04233 0.28928-0.12524l-0.0705-0.06879c-0.0512 0.05997-0.12877 0.09172-0.20814 0.09172-0.1076 0-0.26459-0.05997-0.27341-0.30162h0.5715c5e-3 -0.05468 4e-3 -0.1076-5e-3 -0.15346-0.037-0.21696-0.18697-0.28575-0.31926-0.28575zm-0.24342 0.3422c0.0265-0.1905 0.14817-0.24518 0.2346-0.24518 0.13053 0 0.22401 0.11465 0.20814 0.24518z"/>
   </g>
   <g fill="none" stroke="#d54747" stroke-width=".26458">
    <path d="m62.879 140.34 26.164 36.803" opacity=".91"/>
    <path d="m62.277 140.77 1.2083-0.85895" opacity=".91"/>
    <path d="m65.547 145.37 1.2083-0.85896" opacity=".91"/>
    <path d="m68.817 149.97 1.2083-0.85895" opacity=".91"/>
    <path d="m72.088 154.57 1.2083-0.85895" opacity=".91"/>
    <path d="m75.358 159.17 1.2083-0.85896" opacity=".91"/>
    <path d="m78.629 163.77 1.2083-0.85896" opacity=".91"/>
    <path d="m81.899 168.37 1.2083-0.85895" opacity=".91"/>
    <path d="m85.17 172.97 1.2083-0.85896" opacity=".91"/>
   </g>
   <g fill="#e9e56f" stroke-width=".28222px">
    <g transform="rotate(54.591)" opacity=".91" aria-label="Snapshots">
     <path d="m142.22 32.387c-0.0741-0.08996-0.18344-0.13758-0.30339-0.13758-0.19932 0-0.33514 0.13053-0.33514 0.28222 0 0.0635 0.0247 0.1464 0.11642 0.21343 0.1023 0.07585 0.26105 0.11289 0.34396 0.1658 0.0723 0.0441 0.0917 0.10231 0.0917 0.1517 0 0.09525-0.0811 0.19932-0.23989 0.19932-0.11994 0-0.21343-0.05997-0.26282-0.12171-5e-3 -0.0071-5e-3 -0.01058-5e-3 -0.01764 0-0.0035 0-0.01411-7e-3 -0.01764l-0.0741 0.127c0.0864 0.09349 0.2099 0.14111 0.34572 0.14111 0.26811 0 0.36689-0.17992 0.36689-0.3175 0-0.05821-0.0176-0.13406-0.0864-0.19932-0.0953-0.08996-0.25047-0.12171-0.35101-0.17992-0.0917-0.05468-0.11113-0.11994-0.11113-0.16404 0-0.08467 0.0723-0.16051 0.19756-0.16051 0.1023 0 0.18168 0.04586 0.22401 0.1076 5e-3 0.0071 4e-3 0.01058 4e-3 0.01764 0 0.01058 5e-3 0.01411 9e-3 0.01411z"/>
     <path d="m142.46 33.353h0.12877v-0.4639c0-0.05292 7e-3 -0.09349 0.0406-0.13758 0.03-0.04057 0.1076-0.11289 0.19227-0.11289 0.0406 0 0.0811 0.01764 0.10936 0.05115 0.0441 0.05292 0.0441 0.12171 0.0441 0.17815v0.48507h0.12523v-0.4886c0-0.06174 0-0.12876-0.0282-0.19403-0.0406-0.08996-0.12347-0.14111-0.21519-0.14111-0.10936 0-0.20814 0.07056-0.26811 0.16051v-0.14111h-0.12877z"/>
     <path d="m143.38 32.642 0.0617 0.08114c0.067-0.06879 0.15698-0.08996 0.23283-0.08996 0.0952 0 0.14288 0.04057 0.16581 0.07761 0.0264 0.0441 0.0247 0.09701 0.0247 0.13935v0.02822h-0.0247c-0.11995 0-0.24695 0-0.34925 0.03704-0.127 0.04586-0.18345 0.14111-0.18345 0.2293 0 0.11818 0.10231 0.22931 0.26988 0.22931 0.0988 0 0.20108-0.03704 0.28927-0.10936v0.08819h0.11995v-0.49918c0-0.06526-2e-3 -0.127-0.0388-0.1905-0.0529-0.08643-0.15522-0.13229-0.28045-0.13229-0.1076 0-0.21167 0.03351-0.28752 0.11112zm0.49036 0.33338v0.05468c0 0.04057 0 0.09349-0.0547 0.15169-0.03 0.02999-0.10583 0.09525-0.21166 0.09525-0.1076 0-0.16934-0.06879-0.16934-0.13935 0-0.05997 0.0406-0.12524 0.14111-0.14993 0.0741-0.01764 0.18168-0.01235 0.26635-0.01235z"/>
     <path d="m144.21 32.549 2e-3 1.0989h0.12876v-0.4004c0.0547 0.07938 0.14464 0.12876 0.24166 0.12876 0.1658 0 0.33866-0.13935 0.33866-0.43392 0-0.28399-0.16757-0.41099-0.32632-0.41099-0.10407 0-0.20108 0.05292-0.25576 0.14111v-0.12347zm0.3369 0.08996c0.0705 0 0.24165 0.03704 0.24165 0.32985 0 0.254-0.1658 0.29457-0.24165 0.29457-0.0759 0-0.15346-0.03881-0.18521-0.11112-0.0229-0.05468-0.0229-0.12171-0.0229-0.23812 0-0.06703 4e-3 -0.11642 0.0212-0.15875 0.0317-0.07232 0.10583-0.11642 0.18697-0.11642z"/>
     <path d="m145.75 32.655c-0.0741-0.08114-0.18168-0.12524-0.30162-0.12524-0.18698 0-0.30869 0.10407-0.30869 0.22401 0 0.14111 0.1517 0.19226 0.1958 0.20814 0.0688 0.02469 0.15698 0.04586 0.21696 0.07408 0.067 0.03175 0.0794 0.07408 0.0794 0.10231 0 0.07585-0.0917 0.127-0.20637 0.127-0.13759 0-0.22578-0.0829-0.25224-0.11112-5e-3 -0.0071-5e-3 -0.01235-5e-3 -0.0194 0-0.0018 2e-3 -0.01235-7e-3 -0.01588l-0.0741 0.12524c0.0952 0.08819 0.21872 0.12876 0.34043 0.12876 0.22049 0 0.33514-0.13053 0.33514-0.25224 0-0.05468-0.0229-0.12876-0.11818-0.18168-0.09-0.05115-0.22049-0.06879-0.29634-0.10583-0.0653-0.03175-0.0794-0.07055-0.0794-0.09878 0-0.0635 0.0794-0.10936 0.16933-0.10936 0.11642 0 0.19403 0.07056 0.22402 0.11112 5e-3 0.0053 4e-3 0.01058 4e-3 0.01588 0 0.01058 7e-3 0.01411 0.0106 0.01411z"/>
     <path d="m145.99 33.353h0.13053v-0.4639c0-0.05292 5e-3 -0.09349 0.0388-0.13758 0.0318-0.04057 0.10936-0.11289 0.19402-0.11289 0.0406 0 0.0811 0.01764 0.10937 0.05115 0.0441 0.05292 0.0441 0.12171 0.0441 0.17815v0.48507h0.12524v-0.4886c0-0.06174-2e-3 -0.12876-0.03-0.19403-0.0406-0.08996-0.12171-0.14111-0.21343-0.14111-0.10936 0-0.2099 0.07056-0.26811 0.16051v-0.46743c0-0.0053 0-0.01058 5e-3 -0.01588s0.0123-0.01058 0.0123-0.0194c0-0.0018 0-0.0035-2e-3 -0.0053h-0.14641z"/>
     <path d="m147.56 32.955c0-0.27869-0.17639-0.42333-0.35983-0.42333-0.20462 0-0.381 0.17639-0.381 0.42686 0 0.24518 0.17462 0.41804 0.37747 0.41804 0.1905 0 0.36336-0.15346 0.36336-0.42157zm-0.36865-0.31574c0.11641 0 0.23988 0.10054 0.23988 0.32103 0 0.20285-0.11641 0.30515-0.23283 0.30515-0.12876 0-0.24518-0.11994-0.24518-0.31926 0-0.19756 0.11465-0.30692 0.23813-0.30692z"/>
     <path d="m147.96 32.332-0.0159 0.21696h-0.19226l-2e-3 0.10407h0.18874c-0.0106 0.13758-0.0159 0.27517-0.0159 0.41099 0 0.07232 0 0.15346 0.0476 0.22049 0.0388 0.05292 0.10054 0.08467 0.18344 0.08467 0.0952 0 0.18874-0.04057 0.25753-0.08996l-0.0388-0.10054c-0.0688 0.05115-0.13229 0.07408-0.18168 0.07408-0.06 0-0.1217-0.03351-0.13582-0.13053 0-0.0071-5e-3 -0.03704-5e-3 -0.15522 0-0.10407 5e-3 -0.2099 0.0159-0.31397h0.26458v-0.10583h-0.26282s0.0124-0.14464 0.0212-0.1905c2e-3 -0.01764 0.0159-0.02822 9e-3 -0.04762z"/>
     <path d="m149.28 32.655c-0.0741-0.08114-0.18168-0.12524-0.30163-0.12524-0.18697 0-0.30868 0.10407-0.30868 0.22401 0 0.14111 0.1517 0.19226 0.19579 0.20814 0.0688 0.02469 0.15699 0.04586 0.21696 0.07408 0.067 0.03175 0.0794 0.07408 0.0794 0.10231 0 0.07585-0.0917 0.127-0.20638 0.127-0.13758 0-0.22577-0.0829-0.25223-0.11112-5e-3 -0.0071-5e-3 -0.01235-5e-3 -0.0194 0-0.0018 2e-3 -0.01235-7e-3 -0.01588l-0.0741 0.12524c0.0952 0.08819 0.21872 0.12876 0.34043 0.12876 0.22048 0 0.33514-0.13053 0.33514-0.25224 0-0.05468-0.0229-0.12876-0.11818-0.18168-0.09-0.05115-0.22049-0.06879-0.29634-0.10583-0.0653-0.03175-0.0794-0.07055-0.0794-0.09878 0-0.0635 0.0794-0.10936 0.16933-0.10936 0.11642 0 0.19403 0.07056 0.22401 0.11112 5e-3 0.0053 4e-3 0.01058 4e-3 0.01588 0 0.01058 7e-3 0.01411 0.0106 0.01411z"/>
    </g>
    <g transform="rotate(54.591)" opacity=".91" aria-label="200">
     <path d="m155.14 32.425 0.09 0.07232c0.0106-0.01588 5e-3 -0.02646 0.0159-0.04057 0.0265-0.04057 0.0917-0.10054 0.18697-0.10054 0.11818 0 0.21167 0.08996 0.21167 0.20814 0 0.13406-0.11289 0.23107-0.19227 0.30339-0.12523 0.11289-0.22754 0.22578-0.31926 0.40746v0.07761h0.64558v-0.12171c-0.0123-0.0053-0.0212 0.0035-0.0247 0.0071-7e-3 0.0071-0.0106 0.0071-0.0176 0.0071h-0.46214c0.0917-0.15875 0.22049-0.26811 0.29986-0.34219 0.0794-0.07585 0.19226-0.18874 0.19226-0.34749 0-0.1711-0.13934-0.30868-0.3175-0.30868-0.12523 0-0.24341 0.06703-0.30868 0.17815z"/>
     <path d="m156.33 32.247c-0.17462 0-0.35454 0.21519-0.35454 0.56621 0 0.35631 0.18168 0.56092 0.35631 0.56092 0.15875 0 0.34748-0.17286 0.34748-0.5521 0-0.37394-0.17991-0.57503-0.34925-0.57503zm0.1711 0.25224-0.38629 0.50094c-0.0159-0.06174-0.0247-0.13053-0.0247-0.20814 0-0.28222 0.12876-0.43744 0.23812-0.43744 0.06 0 0.12524 0.04763 0.17286 0.14464zm0.0406 0.11642c0.0159 0.06174 0.0229 0.13582 0.0229 0.22225 0 0.30692-0.13229 0.42333-0.2293 0.42333-0.0653 0-0.1323-0.05292-0.17992-0.14993z"/>
     <path d="m157.21 32.247c-0.17463 0-0.35454 0.21519-0.35454 0.56621 0 0.35631 0.18168 0.56092 0.3563 0.56092 0.15875 0 0.34749-0.17286 0.34749-0.5521 0-0.37394-0.17992-0.57503-0.34925-0.57503zm0.1711 0.25224-0.3863 0.50094c-0.0159-0.06174-0.0247-0.13053-0.0247-0.20814 0-0.28222 0.12876-0.43744 0.23813-0.43744 0.06 0 0.12523 0.04763 0.17286 0.14464zm0.0406 0.11642c0.0159 0.06174 0.0229 0.13582 0.0229 0.22225 0 0.30692-0.1323 0.42333-0.22931 0.42333-0.0653 0-0.13229-0.05292-0.17992-0.14993z"/>
    </g>
    <g transform="rotate(54.591)" opacity=".91" aria-label="201">
     <path d="m160.78 32.425 0.09 0.07232c0.0106-0.01588 5e-3 -0.02646 0.0159-0.04057 0.0265-0.04057 0.0917-0.10054 0.18697-0.10054 0.11818 0 0.21167 0.08996 0.21167 0.20814 0 0.13406-0.11289 0.23107-0.19227 0.30339-0.12523 0.11289-0.22754 0.22578-0.31926 0.40746v0.07761h0.64558v-0.12171c-0.0123-0.0053-0.0212 0.0035-0.0247 0.0071-7e-3 0.0071-0.0106 0.0071-0.0176 0.0071h-0.46214c0.0917-0.15875 0.22048-0.26811 0.29986-0.34219 0.0794-0.07585 0.19226-0.18874 0.19226-0.34749 0-0.1711-0.13934-0.30868-0.3175-0.30868-0.12523 0-0.24341 0.06703-0.30868 0.17815z"/>
     <path d="m161.97 32.247c-0.17462 0-0.35454 0.21519-0.35454 0.56621 0 0.35631 0.18168 0.56092 0.35631 0.56092 0.15875 0 0.34748-0.17286 0.34748-0.5521 0-0.37394-0.17991-0.57503-0.34925-0.57503zm0.1711 0.25224-0.38629 0.50094c-0.0159-0.06174-0.0247-0.13053-0.0247-0.20814 0-0.28222 0.12876-0.43744 0.23812-0.43744 0.06 0 0.12524 0.04763 0.17286 0.14464zm0.0406 0.11642c0.0159 0.06174 0.0229 0.13582 0.0229 0.22225 0 0.30692-0.13229 0.42333-0.2293 0.42333-0.0653 0-0.1323-0.05292-0.17992-0.14993z"/>
     <path d="m162.94 32.254h-0.0811l-0.28222 0.1464 0.0282 0.06879 0.21872-0.06174v0.85019h-0.20461v0.09701h0.51858v-0.09701h-0.19755z"/>
    </g>
    <g transform="rotate(54.591)" opacity=".91" aria-label="202">
     <path d="m166.43 32.425 0.09 0.07232c0.0106-0.01588 5e-3 -0.02646 0.0159-0.04057 0.0265-0.04057 0.0917-0.10054 0.18697-0.10054 0.11818 0 0.21167 0.08996 0.21167 0.20814 0 0.13406-0.11289 0.23107-0.19226 0.30339-0.12524 0.11289-0.22755 0.22578-0.31927 0.40746v0.07761h0.64559v-0.12171c-0.0123-0.0053-0.0212 0.0035-0.0247 0.0071-7e-3 0.0071-0.0106 0.0071-0.0176 0.0071h-0.46214c0.0917-0.15875 0.22049-0.26811 0.29986-0.34219 0.0794-0.07585 0.19227-0.18874 0.19227-0.34749 0-0.1711-0.13935-0.30868-0.3175-0.30868-0.12524 0-0.24342 0.06703-0.30868 0.17815z"/>
     <path d="m167.62 32.247c-0.17463 0-0.35454 0.21519-0.35454 0.56621 0 0.35631 0.18168 0.56092 0.3563 0.56092 0.15875 0 0.34749-0.17286 0.34749-0.5521 0-0.37394-0.17992-0.57503-0.34925-0.57503zm0.1711 0.25224-0.3863 0.50094c-0.0159-0.06174-0.0247-0.13053-0.0247-0.20814 0-0.28222 0.12876-0.43744 0.23813-0.43744 0.06 0 0.12523 0.04763 0.17286 0.14464zm0.0406 0.11642c0.0159 0.06174 0.0229 0.13582 0.0229 0.22225 0 0.30692-0.1323 0.42333-0.22931 0.42333-0.0653 0-0.13229-0.05292-0.17992-0.14993z"/>
     <path d="m168.19 32.425 0.09 0.07232c0.0106-0.01588 5e-3 -0.02646 0.0159-0.04057 0.0265-0.04057 0.0917-0.10054 0.18697-0.10054 0.11818 0 0.21167 0.08996 0.21167 0.20814 0 0.13406-0.11289 0.23107-0.19226 0.30339-0.12524 0.11289-0.22755 0.22578-0.31927 0.40746v0.07761h0.64558v-0.12171c-0.0123-0.0053-0.0212 0.0035-0.0247 0.0071-7e-3 0.0071-0.0106 0.0071-0.0176 0.0071h-0.46214c0.0917-0.15875 0.22049-0.26811 0.29986-0.34219 0.0794-0.07585 0.19227-0.18874 0.19227-0.34749 0-0.1711-0.13935-0.30868-0.3175-0.30868-0.12524 0-0.24342 0.06703-0.30868 0.17815z"/>
    </g>
    <g transform="rotate(54.591)" opacity=".91" aria-label="203">
     <path d="m172.07 32.425 0.09 0.07232c0.0106-0.01588 5e-3 -0.02646 0.0159-0.04057 0.0265-0.04057 0.0917-0.10054 0.18697-0.10054 0.11818 0 0.21167 0.08996 0.21167 0.20814 0 0.13406-0.11289 0.23107-0.19226 0.30339-0.12524 0.11289-0.22755 0.22578-0.31927 0.40746v0.07761h0.64559v-0.12171c-0.0123-0.0053-0.0212 0.0035-0.0247 0.0071-7e-3 0.0071-0.0106 0.0071-0.0176 0.0071h-0.46214c0.0917-0.15875 0.22049-0.26811 0.29986-0.34219 0.0794-0.07585 0.19227-0.18874 0.19227-0.34749 0-0.1711-0.13935-0.30868-0.3175-0.30868-0.12524 0-0.24342 0.06703-0.30868 0.17815z"/>
     <path d="m173.26 32.247c-0.17463 0-0.35454 0.21519-0.35454 0.56621 0 0.35631 0.18168 0.56092 0.3563 0.56092 0.15875 0 0.34749-0.17286 0.34749-0.5521 0-0.37394-0.17992-0.57503-0.34925-0.57503zm0.1711 0.25224-0.3863 0.50094c-0.0159-0.06174-0.0247-0.13053-0.0247-0.20814 0-0.28222 0.12876-0.43744 0.23813-0.43744 0.06 0 0.12523 0.04763 0.17286 0.14464zm0.0406 0.11642c0.0159 0.06174 0.0229 0.13582 0.0229 0.22225 0 0.30692-0.1323 0.42333-0.22931 0.42333-0.0653 0-0.13229-0.05292-0.17992-0.14993z"/>
     <path d="m174.42 32.529c0-0.14993-0.127-0.27869-0.30162-0.27869-0.0988 0-0.19579 0.04233-0.26459 0.11818l0.0688 0.07585c0.0512-0.05468 0.1217-0.08467 0.1905-0.08467 0.11288 0 0.1905 0.07937 0.1905 0.17286 0 0.06526-0.0406 0.13935-0.11819 0.17286-0.0194 0.0071-0.0688 0.02646-0.17286 0.02646v0.09878c0.0176-0.0018 0.037-0.0035 0.0564-0.0035 0.14816 0 0.25753 0.07761 0.25753 0.2099 0 0.11994-0.0917 0.22401-0.22049 0.22401-0.10231 0-0.16404-0.06703-0.17286-0.07585-0.0141-0.01588-7e-3 -0.03351-0.0229-0.04939l-0.0917 0.11112c0.0723 0.0829 0.17815 0.12524 0.28751 0.12524 0.21167 0 0.33867-0.14993 0.33867-0.32103 0-0.13053-0.0741-0.24165-0.18874-0.28399 0.0988-0.03704 0.16404-0.13053 0.16404-0.23812z"/>
    </g>
    <g transform="rotate(54.591)" opacity=".91" aria-label="204">
     <path d="m177.72 32.425 0.09 0.07232c0.0106-0.01588 5e-3 -0.02646 0.0159-0.04057 0.0265-0.04057 0.0917-0.10054 0.18697-0.10054 0.11818 0 0.21167 0.08996 0.21167 0.20814 0 0.13406-0.11289 0.23107-0.19226 0.30339-0.12524 0.11289-0.22755 0.22578-0.31927 0.40746v0.07761h0.64559v-0.12171c-0.0123-0.0053-0.0212 0.0035-0.0247 0.0071-7e-3 0.0071-0.0106 0.0071-0.0176 0.0071h-0.46214c0.0917-0.15875 0.22049-0.26811 0.29986-0.34219 0.0794-0.07585 0.19227-0.18874 0.19227-0.34749 0-0.1711-0.13935-0.30868-0.3175-0.30868-0.12524 0-0.24342 0.06703-0.30868 0.17815z"/>
     <path d="m178.91 32.247c-0.17463 0-0.35454 0.21519-0.35454 0.56621 0 0.35631 0.18168 0.56092 0.3563 0.56092 0.15875 0 0.34749-0.17286 0.34749-0.5521 0-0.37394-0.17992-0.57503-0.34925-0.57503zm0.1711 0.25224-0.3863 0.50094c-0.0159-0.06174-0.0247-0.13053-0.0247-0.20814 0-0.28222 0.12876-0.43744 0.23812-0.43744 0.06 0 0.12524 0.04763 0.17287 0.14464zm0.0406 0.11642c0.0159 0.06174 0.0229 0.13582 0.0229 0.22225 0 0.30692-0.1323 0.42333-0.22931 0.42333-0.0653 0-0.13229-0.05292-0.17992-0.14993z"/>
     <path d="m179.9 32.254-0.46743 0.70379v0.09172h0.44274v0.30339h0.127v-0.30162h0.14287v-0.10936h-0.14287v-0.68792zm-0.0229 0.19579v0.49212h-0.32279z"/>
    </g>
    <g transform="rotate(54.591)" opacity=".91" aria-label="205">
     <path d="m183.36 32.425 0.09 0.07232c0.0106-0.01588 5e-3 -0.02646 0.0159-0.04057 0.0264-0.04057 0.0917-0.10054 0.18697-0.10054 0.11818 0 0.21166 0.08996 0.21166 0.20814 0 0.13406-0.11288 0.23107-0.19226 0.30339-0.12524 0.11289-0.22754 0.22578-0.31926 0.40746v0.07761h0.64558v-0.12171c-0.0124-0.0053-0.0212 0.0035-0.0247 0.0071-7e-3 0.0071-0.0106 0.0071-0.0176 0.0071h-0.46214c0.0917-0.15875 0.22048-0.26811 0.29986-0.34219 0.0794-0.07585 0.19226-0.18874 0.19226-0.34749 0-0.1711-0.13934-0.30868-0.3175-0.30868-0.12523 0-0.24341 0.06703-0.30868 0.17815z"/>
     <path d="m184.55 32.247c-0.17462 0-0.35454 0.21519-0.35454 0.56621 0 0.35631 0.18168 0.56092 0.35631 0.56092 0.15875 0 0.34748-0.17286 0.34748-0.5521 0-0.37394-0.17991-0.57503-0.34925-0.57503zm0.1711 0.25224-0.38629 0.50094c-0.0159-0.06174-0.0247-0.13053-0.0247-0.20814 0-0.28222 0.12877-0.43744 0.23813-0.43744 0.06 0 0.12524 0.04763 0.17286 0.14464zm0.0406 0.11642c0.0159 0.06174 0.0229 0.13582 0.0229 0.22225 0 0.30692-0.13229 0.42333-0.2293 0.42333-0.0653 0-0.1323-0.05292-0.17992-0.14993z"/>
     <path d="m185.18 32.254-0.0388 0.55915 0.0794 0.03175c0.0529-0.06703 0.13053-0.10407 0.20638-0.10407 0.11465 0 0.22401 0.08819 0.22401 0.26282 0 0.16933-0.10407 0.26106-0.22225 0.26106s-0.19579-0.08996-0.20108-0.10054c-7e-3 -0.01411 2e-3 -0.03175-0.0141-0.04233l-0.10936 0.0829c0.0741 0.1076 0.19579 0.16933 0.32632 0.16933 0.1905 0 0.34748-0.12876 0.34748-0.36689 0-0.23636-0.14816-0.36689-0.33337-0.36689-0.06 0-0.12171 0.01411-0.17816 0.04233l0.0159-0.3175h0.45508v-0.11112z"/>
    </g>
    <g transform="rotate(54.591)" opacity=".91" aria-label="206">
     <path d="m189.01 32.425 0.09 0.07232c0.0106-0.01588 5e-3 -0.02646 0.0159-0.04057 0.0265-0.04057 0.0917-0.10054 0.18697-0.10054 0.11818 0 0.21166 0.08996 0.21166 0.20814 0 0.13406-0.11288 0.23107-0.19226 0.30339-0.12524 0.11289-0.22754 0.22578-0.31926 0.40746v0.07761h0.64558v-0.12171c-0.0123-0.0053-0.0212 0.0035-0.0247 0.0071-7e-3 0.0071-0.0106 0.0071-0.0176 0.0071h-0.46214c0.0917-0.15875 0.22048-0.26811 0.29986-0.34219 0.0794-0.07585 0.19226-0.18874 0.19226-0.34749 0-0.1711-0.13934-0.30868-0.3175-0.30868-0.12523 0-0.24341 0.06703-0.30868 0.17815z"/>
     <path d="m190.2 32.247c-0.17462 0-0.35454 0.21519-0.35454 0.56621 0 0.35631 0.18168 0.56092 0.35631 0.56092 0.15875 0 0.34748-0.17286 0.34748-0.5521 0-0.37394-0.17991-0.57503-0.34925-0.57503zm0.1711 0.25224-0.38629 0.50094c-0.0159-0.06174-0.0247-0.13053-0.0247-0.20814 0-0.28222 0.12877-0.43744 0.23813-0.43744 0.06 0 0.12524 0.04763 0.17286 0.14464zm0.0406 0.11642c0.0159 0.06174 0.0229 0.13582 0.0229 0.22225 0 0.30692-0.13229 0.42333-0.22931 0.42333-0.0653 0-0.13229-0.05292-0.17991-0.14993z"/>
     <path d="m191.14 32.242c-0.13229 0-0.2734 0.08114-0.3422 0.2734-0.037 0.10407-0.0459 0.23283-0.0459 0.33867 0 0.12876 0.0123 0.26635 0.0829 0.37218 0.0635 0.09701 0.16227 0.1464 0.25929 0.1464 0.16757 0 0.31397-0.14111 0.31397-0.36865 0-0.22754-0.1464-0.35983-0.30163-0.35983-0.0952 0-0.1852 0.05115-0.23283 0.13229 7e-3 -0.37571 0.18697-0.4251 0.26635-0.4251 0.0723 0 0.12171 0.03881 0.12876 0.04586 0.0106 0.01235 0.0106 0.02822 0.0265 0.04057l0.0847-0.09525c-0.0635-0.0635-0.1517-0.10054-0.23989-0.10054zm-0.0459 0.51153c0.0882 0 0.19402 0.06879 0.19402 0.25753 0 0.1711-0.0952 0.25224-0.18873 0.25224-0.13406 0-0.2346-0.15699-0.22049-0.36336 0.0494-0.08996 0.13406-0.1464 0.2152-0.1464z"/>
    </g>
    <g transform="rotate(54.591)" opacity=".91" aria-label="Client Time">
     <path d="m189.14 20.857c-0.1711 0-0.41805 0.12524-0.41805 0.56621 0 0.42333 0.23637 0.56092 0.41805 0.56092 0.13052 0 0.25223-0.06879 0.32102-0.18168l-0.09-0.05821c-0.0512 0.0829-0.13935 0.13229-0.22402 0.13229-0.16228 0-0.30515-0.16757-0.30515-0.46567 0-0.29104 0.13935-0.45508 0.29457-0.45508 0.0847 0 0.1658 0.05115 0.2099 0.12876 4e-3 0.0053 7e-3 0.01058 7e-3 0.01764 0 0.0053-2e-3 0.0088-2e-3 0.01411 0 0.0018 0 0.01058 9e-3 0.01588l0.11642-0.05644c-0.0582-0.13229-0.1905-0.21872-0.3369-0.21872z"/>
     <path d="m189.68 20.793v0.10231h0.22931v0.96838h-0.23989v0.10054h0.60501v-0.10054h-0.23812v-1.0707z"/>
     <path d="m190.6 21.158v0.10407h0.19403v0.60149h-0.20461v0.10054h0.52211v-0.10054h-0.18874v-0.70556zm0.26106-0.34925c-0.0512 0-0.0917 0.04057-0.0917 0.08996s0.0406 0.08996 0.0917 0.08996c0.0512 0 0.0917-0.04057 0.0917-0.08996s-0.0406-0.08996-0.0917-0.08996z"/>
     <path d="m191.75 21.141c-0.19227 0-0.37042 0.13758-0.37042 0.43039 0 0.26988 0.16757 0.41275 0.38629 0.41275 0.11642 0 0.22049-0.04233 0.28928-0.12524l-0.0706-0.06879c-0.0512 0.05997-0.12876 0.09172-0.20814 0.09172-0.10759 0-0.26458-0.05997-0.2734-0.30162h0.5715c5e-3 -0.05468 4e-3 -0.1076-5e-3 -0.15346-0.037-0.21696-0.18697-0.28575-0.31926-0.28575zm-0.24342 0.3422c0.0265-0.1905 0.14817-0.24518 0.2346-0.24518 0.13052 0 0.22401 0.11465 0.20814 0.24518z"/>
     <path d="m192.3 21.964h0.12877v-0.4639c0-0.05292 7e-3 -0.09349 0.0406-0.13758 0.03-0.04057 0.10759-0.11289 0.19226-0.11289 0.0406 0 0.0811 0.01764 0.10936 0.05115 0.0441 0.05292 0.0441 0.12171 0.0441 0.17815v0.48507h0.12523v-0.4886c0-0.06174 0-0.12876-0.0282-0.19403-0.0406-0.08996-0.12347-0.14111-0.21519-0.14111-0.10936 0-0.20814 0.07056-0.26811 0.16051v-0.14111h-0.12877z"/>
     <path d="m193.39 20.943-0.0159 0.21696h-0.19227l-2e-3 0.10407h0.18874c-0.0106 0.13758-0.0159 0.27517-0.0159 0.41099 0 0.07232 0 0.15346 0.0476 0.22049 0.0388 0.05292 0.10054 0.08467 0.18344 0.08467 0.0952 0 0.18874-0.04057 0.25753-0.08996l-0.0388-0.10054c-0.0688 0.05115-0.13229 0.07408-0.18168 0.07408-0.06 0-0.12171-0.03351-0.13582-0.13053 0-0.0071-5e-3 -0.03704-5e-3 -0.15522 0-0.10407 5e-3 -0.2099 0.0159-0.31397h0.26458v-0.10583h-0.26282s0.0123-0.14464 0.0212-0.1905c2e-3 -0.01764 0.0159-0.02822 9e-3 -0.04763z"/>
     <path d="m194.88 20.866v0.11112h0.31045v0.98954h0.12523v-0.98954h0.32456v-0.11112z"/>
     <path d="m195.89 21.158v0.10407h0.19403v0.60149h-0.20462v0.10054h0.52212v-0.10054h-0.18874v-0.70556zm0.26105-0.34925c-0.0512 0-0.0917 0.04057-0.0917 0.08996s0.0406 0.08996 0.0917 0.08996c0.0512 0 0.0917-0.04057 0.0917-0.08996s-0.0406-0.08996-0.0917-0.08996z"/>
     <path d="m196.65 21.964h0.11642v-0.53622c0-0.0388 4e-3 -0.07408 0.0265-0.11642 0.0282-0.05292 0.0635-0.07408 0.097-0.07408 0.0282 0 0.06 0.01764 0.0741 0.06174 0.0106 0.03351 9e-3 0.07232 9e-3 0.10583v0.55915h0.11818v-0.5327c0-0.04233 4e-3 -0.07585 0.0335-0.127 0.0141-0.02117 0.0441-0.07232 0.0935-0.07232 0.0264 0 0.0511 0.01588 0.0635 0.04586 0.0159 0.03351 0.0123 0.07937 0.0123 0.11642v0.5715h0.11995v-0.57326c0-0.06703 2e-3 -0.13406-0.0335-0.18874-0.03-0.04586-0.0811-0.0635-0.12523-0.0635-0.0776 0-0.14993 0.04586-0.18168 0.11642-0.0123-0.06703-0.0688-0.11642-0.14111-0.11642-0.067 0-0.12877 0.04233-0.16581 0.09878l2e-3 -0.07937h-0.11818z"/>
     <path d="m197.93 21.141c-0.19227 0-0.37042 0.13758-0.37042 0.43039 0 0.26988 0.16757 0.41275 0.38629 0.41275 0.11642 0 0.22049-0.04233 0.28928-0.12524l-0.0706-0.06879c-0.0512 0.05997-0.12876 0.09172-0.20813 0.09172-0.1076 0-0.26459-0.05997-0.27341-0.30162h0.5715c5e-3 -0.05468 4e-3 -0.1076-5e-3 -0.15346-0.037-0.21696-0.18697-0.28575-0.31926-0.28575zm-0.24342 0.3422c0.0265-0.1905 0.14817-0.24518 0.2346-0.24518 0.13053 0 0.22401 0.11465 0.20814 0.24518z"/>
    </g>
   </g>
   <g>
    <path d="m88.44 177.57 1.2083-0.85895" fill="none" opacity=".91" stroke="#d54747" stroke-width=".26458"/>
    <path d="m64.029 139.52 2.3002-1.6352 3.2705 4.6004-2.3002 1.6352" fill="none" stroke="#d54747" stroke-width=".26458"/>
    <g transform="rotate(54.591)" fill="#e9e56f" opacity=".91" stroke-width=".28222px" aria-label="30 ms">
     <path d="m152.12 23.963c0-0.14993-0.127-0.27869-0.30162-0.27869-0.0988 0-0.19579 0.04233-0.26459 0.11818l0.0688 0.07585c0.0512-0.05468 0.1217-0.08467 0.1905-0.08467 0.11288 0 0.1905 0.07938 0.1905 0.17286 0 0.06526-0.0406 0.13935-0.11819 0.17286-0.0194 0.0071-0.0688 0.02646-0.17286 0.02646v0.09878c0.0176-0.0018 0.037-0.0035 0.0564-0.0035 0.14816 0 0.25753 0.07761 0.25753 0.2099 0 0.11994-0.0917 0.22401-0.22049 0.22401-0.10231 0-0.16404-0.06703-0.17286-0.07585-0.0141-0.01588-7e-3 -0.03351-0.0229-0.04939l-0.0917 0.11112c0.0723 0.0829 0.17815 0.12524 0.28751 0.12524 0.21167 0 0.33867-0.14993 0.33867-0.32103 0-0.13053-0.0741-0.24165-0.18874-0.28399 0.0988-0.03704 0.16404-0.13053 0.16404-0.23812z"/>
     <path d="m152.72 23.681c-0.17463 0-0.35454 0.21519-0.35454 0.56621 0 0.35631 0.18168 0.56092 0.3563 0.56092 0.15875 0 0.34749-0.17286 0.34749-0.5521 0-0.37394-0.17992-0.57503-0.34925-0.57503zm0.1711 0.25224-0.3863 0.50094c-0.0159-0.06174-0.0247-0.13053-0.0247-0.20814 0-0.28222 0.12876-0.43744 0.23812-0.43744 0.06 0 0.12524 0.04763 0.17287 0.14464zm0.0406 0.11642c0.0159 0.06174 0.0229 0.13582 0.0229 0.22225 0 0.30692-0.1323 0.42333-0.22931 0.42333-0.0653 0-0.13229-0.05292-0.17992-0.14993z"/>
     <path d="m154.11 24.787h0.11641v-0.53622c0-0.0388 4e-3 -0.07408 0.0265-0.11642 0.0282-0.05292 0.0635-0.07408 0.097-0.07408 0.0282 0 0.06 0.01764 0.0741 0.06174 0.0106 0.03351 9e-3 0.07232 9e-3 0.10583v0.55915h0.11818v-0.53269c0-0.04233 4e-3 -0.07585 0.0335-0.127 0.0141-0.02117 0.0441-0.07232 0.0935-0.07232 0.0265 0 0.0512 0.01587 0.0635 0.04586 0.0159 0.03351 0.0123 0.07937 0.0123 0.11642v0.5715h0.11995v-0.57326c0-0.06703 2e-3 -0.13406-0.0335-0.18874-0.03-0.04586-0.0811-0.0635-0.12524-0.0635-0.0776 0-0.14993 0.04586-0.18168 0.11642-0.0123-0.06703-0.0688-0.11642-0.14111-0.11642-0.067 0-0.12877 0.04233-0.16581 0.09878l2e-3 -0.07937h-0.11818z"/>
     <path d="m155.69 24.088c-0.0741-0.08114-0.18168-0.12524-0.30163-0.12524-0.18697 0-0.30868 0.10407-0.30868 0.22401 0 0.14111 0.15169 0.19226 0.19579 0.20814 0.0688 0.02469 0.15699 0.04586 0.21696 0.07408 0.067 0.03175 0.0794 0.07408 0.0794 0.10231 0 0.07585-0.0917 0.127-0.20638 0.127-0.13758 0-0.22578-0.0829-0.25224-0.11112-5e-3 -0.0071-5e-3 -0.01235-5e-3 -0.0194 0-0.0018 2e-3 -0.01235-7e-3 -0.01588l-0.0741 0.12524c0.0952 0.08819 0.21873 0.12876 0.34043 0.12876 0.22049 0 0.33514-0.13053 0.33514-0.25224 0-0.05468-0.0229-0.12876-0.11818-0.18168-0.09-0.05115-0.22048-0.06879-0.29633-0.10583-0.0653-0.03175-0.0794-0.07055-0.0794-0.09878 0-0.0635 0.0794-0.10936 0.16934-0.10936 0.11641 0 0.19403 0.07056 0.22401 0.11112 5e-3 0.0053 4e-3 0.01058 4e-3 0.01587 0 0.01058 7e-3 0.01411 0.0106 0.01411z"/>
    </g>
    <path d="m75.176 155.2 2.3002-1.6352 10.575 14.876-2.3002 1.6352" fill="none" stroke="#d54747" stroke-width=".26458"/>
    <g transform="rotate(54.591)" fill="#e9e56f" opacity=".91" stroke-width=".28222px" aria-label="Reserve">
     <path d="m176.05 23.688v1.0989h0.12348v-0.48507h0.21343l0.24341 0.48507h0.13935l-0.254-0.4886c0.13229-0.03704 0.22402-0.16228 0.22402-0.30868 0-0.10936-0.0547-0.21343-0.15699-0.26458-0.0688-0.03528-0.13758-0.03704-0.2099-0.03704zm0.12348 0.11642h0.19932c0.0459 0 0.09 0.0018 0.13582 0.02293 0.0688 0.03528 0.10407 0.10583 0.10407 0.17639 0 0.07056-0.0335 0.13582-0.097 0.16757-0.0423 0.02117-0.0847 0.02293-0.12876 0.02293h-0.21343z"/>
     <path d="m177.29 23.963c-0.19227 0-0.37042 0.13758-0.37042 0.43039 0 0.26988 0.16757 0.41275 0.38629 0.41275 0.11642 0 0.22049-0.04233 0.28928-0.12524l-0.0706-0.06879c-0.0511 0.05997-0.12876 0.09172-0.20814 0.09172-0.10759 0-0.26458-0.05997-0.2734-0.30162h0.5715c5e-3 -0.05468 4e-3 -0.1076-5e-3 -0.15346-0.037-0.21696-0.18697-0.28575-0.31926-0.28575zm-0.24342 0.3422c0.0265-0.1905 0.14817-0.24518 0.2346-0.24518 0.13052 0 0.22401 0.11465 0.20813 0.24518z"/>
     <path d="m178.48 24.088c-0.0741-0.08114-0.18168-0.12524-0.30163-0.12524-0.18697 0-0.30868 0.10407-0.30868 0.22401 0 0.14111 0.1517 0.19226 0.19579 0.20814 0.0688 0.02469 0.15699 0.04586 0.21696 0.07408 0.067 0.03175 0.0794 0.07408 0.0794 0.10231 0 0.07585-0.0917 0.127-0.20638 0.127-0.13758 0-0.22578-0.0829-0.25224-0.11112-5e-3 -0.0071-5e-3 -0.01235-5e-3 -0.0194 0-0.0018 2e-3 -0.01235-7e-3 -0.01588l-0.0741 0.12524c0.0952 0.08819 0.21873 0.12876 0.34043 0.12876 0.22049 0 0.33514-0.13053 0.33514-0.25224 0-0.05468-0.0229-0.12876-0.11818-0.18168-0.09-0.05115-0.22048-0.06879-0.29633-0.10583-0.0653-0.03175-0.0794-0.07055-0.0794-0.09878 0-0.0635 0.0794-0.10936 0.16934-0.10936 0.11641 0 0.19403 0.07056 0.22401 0.11112 5e-3 0.0053 4e-3 0.01058 4e-3 0.01587 0 0.01058 7e-3 0.01411 0.0106 0.01411z"/>
     <path d="m179.05 23.963c-0.19226 0-0.37041 0.13758-0.37041 0.43039 0 0.26988 0.16757 0.41275 0.38629 0.41275 0.11642 0 0.22049-0.04233 0.28928-0.12524l-0.0706-0.06879c-0.0511 0.05997-0.12876 0.09172-0.20814 0.09172-0.10759 0-0.26458-0.05997-0.2734-0.30162h0.5715c5e-3 -0.05468 4e-3 -0.1076-5e-3 -0.15346-0.037-0.21696-0.18697-0.28575-0.31927-0.28575zm-0.24341 0.3422c0.0265-0.1905 0.14816-0.24518 0.23459-0.24518 0.13053 0 0.22402 0.11465 0.20814 0.24518z"/>
     <path d="m179.65 23.982v0.8061h0.127v-0.39158c0-0.04939 2e-3 -0.10231 0.0564-0.18874 0.0741-0.11642 0.16934-0.13582 0.22755-0.13582 0.067 0 0.10936 0.03175 0.13229 0.05997 0.0106 0.01411 0.0159 0.02822 0.03 0.04057l0.06-0.12171c-0.0512-0.05292-0.12524-0.08819-0.2152-0.08819-0.11818 0-0.23812 0.05997-0.29104 0.17462l5e-3 -0.15522z"/>
     <path d="m180.43 23.981 0.31927 0.81315h0.10054l0.19579-0.46038c0.0476-0.11289 0.0935-0.22931 0.11994-0.35278h-0.11465c-0.0212 0.11818-0.0635 0.22931-0.10936 0.33514l-0.12876 0.29986-0.23284-0.58914c-2e-3 -0.0035-4e-3 -0.0071-4e-3 -0.01058 0-0.01058 9e-3 -0.02117 5e-3 -0.03528z"/>
     <path d="m181.7 23.963c-0.19227 0-0.37042 0.13758-0.37042 0.43039 0 0.26988 0.16757 0.41275 0.38629 0.41275 0.11642 0 0.22049-0.04233 0.28928-0.12524l-0.0706-0.06879c-0.0512 0.05997-0.12876 0.09172-0.20813 0.09172-0.1076 0-0.26459-0.05997-0.27341-0.30162h0.5715c5e-3 -0.05468 4e-3 -0.1076-5e-3 -0.15346-0.037-0.21696-0.18697-0.28575-0.31926-0.28575zm-0.24342 0.3422c0.0265-0.1905 0.14817-0.24518 0.2346-0.24518 0.13053 0 0.22401 0.11465 0.20814 0.24518z"/>
    </g>
    <g transform="rotate(54.591)" fill="#e9e56f" opacity=".91" stroke-width=".28222px" aria-label="Render time">
     <path d="m159.12 21.43v1.0989h0.12347v-0.48507h0.21343l0.24342 0.48507h0.13934l-0.254-0.4886c0.13229-0.03704 0.22402-0.16228 0.22402-0.30868 0-0.10936-0.0547-0.21343-0.15699-0.26458-0.0688-0.03528-0.13758-0.03704-0.2099-0.03704zm0.12347 0.11642h0.19932c0.0459 0 0.09 0.0018 0.13582 0.02293 0.0688 0.03528 0.10407 0.10583 0.10407 0.17639 0 0.07056-0.0335 0.13582-0.097 0.16757-0.0423 0.02117-0.0847 0.02293-0.12876 0.02293h-0.21343z"/>
     <path d="m160.35 21.705c-0.19227 0-0.37042 0.13758-0.37042 0.43039 0 0.26988 0.16757 0.41275 0.38629 0.41275 0.11642 0 0.22049-0.04233 0.28928-0.12524l-0.0706-0.06879c-0.0512 0.05997-0.12876 0.09172-0.20814 0.09172-0.10759 0-0.26458-0.05997-0.2734-0.30162h0.5715c5e-3 -0.05468 4e-3 -0.1076-5e-3 -0.15346-0.037-0.21696-0.18697-0.28575-0.31926-0.28575zm-0.24342 0.34219c0.0265-0.1905 0.14817-0.24518 0.2346-0.24518 0.13052 0 0.22401 0.11465 0.20814 0.24518z"/>
     <path d="m160.9 22.529h0.12877v-0.4639c0-0.05292 7e-3 -0.09349 0.0406-0.13758 0.03-0.04057 0.1076-0.11289 0.19227-0.11289 0.0406 0 0.0811 0.01764 0.10936 0.05115 0.0441 0.05292 0.0441 0.12171 0.0441 0.17815v0.48507h0.12523v-0.4886c0-0.06174 0-0.12876-0.0282-0.19403-0.0406-0.08996-0.12347-0.14111-0.21519-0.14111-0.10936 0-0.20814 0.07056-0.26811 0.16051v-0.14111h-0.12877z"/>
     <path d="m162.32 21.841c-0.0388-0.0829-0.12523-0.13758-0.23636-0.13758-0.15346 0-0.34043 0.10936-0.34043 0.41628 0 0.2981 0.16581 0.42862 0.32103 0.42862 0.10231 0 0.19756-0.05821 0.24871-0.14817v0.07056c0 0.0194 2e-3 0.0388 7e-3 0.05821h0.127c-7e-3 -0.02293-7e-3 -0.04939-7e-3 -0.07408l-2e-3 -1.0478c0-0.01058 0-0.01411 7e-3 -0.02469 4e-3 -0.0053 0.0106-0.01411 9e-3 -0.02646h-0.13406zm-0.23107-0.03351c0.0706 0 0.17463 0.03704 0.20638 0.15699 0.0106 0.03704 0.0141 0.08114 0.0141 0.1711 0 0.06174-4e-3 0.10583-0.0176 0.14817-0.03 0.09525-0.11465 0.15169-0.19755 0.15169-0.0917 0-0.22755-0.07056-0.22755-0.33514 0-0.23107 0.12877-0.2928 0.22225-0.2928z"/>
     <path d="m163 21.705c-0.19226 0-0.37042 0.13758-0.37042 0.43039 0 0.26988 0.16757 0.41275 0.38629 0.41275 0.11642 0 0.22049-0.04233 0.28928-0.12524l-0.0705-0.06879c-0.0512 0.05997-0.12877 0.09172-0.20814 0.09172-0.1076 0-0.26459-0.05997-0.27341-0.30162h0.5715c5e-3 -0.05468 4e-3 -0.1076-5e-3 -0.15346-0.037-0.21696-0.18697-0.28575-0.31926-0.28575zm-0.24342 0.34219c0.0265-0.1905 0.14817-0.24518 0.2346-0.24518 0.13053 0 0.22401 0.11465 0.20814 0.24518z"/>
     <path d="m163.6 21.725v0.8061h0.127v-0.39158c0-0.04939 2e-3 -0.10231 0.0564-0.18874 0.0741-0.11642 0.16933-0.13582 0.22754-0.13582 0.067 0 0.10936 0.03175 0.13229 0.05997 0.0106 0.01411 0.0159 0.02822 0.03 0.04057l0.06-0.12171c-0.0512-0.05292-0.12523-0.08819-0.21519-0.08819-0.11818 0-0.23813 0.05997-0.29104 0.17462l5e-3 -0.15522z"/>
     <path d="m165.52 21.508-0.0159 0.21696h-0.19227l-2e-3 0.10407h0.18873c-0.0106 0.13758-0.0159 0.27517-0.0159 0.41099 0 0.07232 0 0.15346 0.0476 0.22049 0.0388 0.05292 0.10055 0.08467 0.18345 0.08467 0.0953 0 0.18873-0.04057 0.25753-0.08996l-0.0388-0.10054c-0.0688 0.05115-0.13229 0.07408-0.18168 0.07408-0.06 0-0.12171-0.03351-0.13582-0.13053 0-0.0071-5e-3 -0.03704-5e-3 -0.15522 0-0.10407 5e-3 -0.2099 0.0159-0.31397h0.26459v-0.10583h-0.26282s0.0123-0.14464 0.0212-0.1905c2e-3 -0.01764 0.0159-0.02822 9e-3 -0.04763z"/>
     <path d="m166.26 21.723v0.10407h0.19402v0.60149h-0.20461v0.10054h0.52211v-0.10054h-0.18873v-0.70556zm0.26105-0.34925c-0.0512 0-0.0917 0.04057-0.0917 0.08996s0.0406 0.08996 0.0917 0.08996 0.0917-0.04057 0.0917-0.08996-0.0406-0.08996-0.0917-0.08996z"/>
     <path d="m167.02 22.529h0.11642v-0.53622c0-0.03881 4e-3 -0.07408 0.0265-0.11642 0.0282-0.05292 0.0635-0.07408 0.097-0.07408 0.0282 0 0.06 0.01764 0.0741 0.06174 0.0106 0.03351 9e-3 0.07232 9e-3 0.10583v0.55915h0.11818v-0.53269c0-0.04233 4e-3 -0.07585 0.0335-0.127 0.0141-0.02117 0.0441-0.07232 0.0935-0.07232 0.0265 0 0.0512 0.01587 0.0635 0.04586 0.0159 0.03351 0.0123 0.07937 0.0123 0.11642v0.5715h0.11995v-0.57326c0-0.06703 2e-3 -0.13406-0.0335-0.18874-0.03-0.04586-0.0811-0.0635-0.12523-0.0635-0.0776 0-0.14993 0.04586-0.18168 0.11642-0.0123-0.06703-0.0688-0.11642-0.14112-0.11642-0.067 0-0.12876 0.04233-0.1658 0.09878l2e-3 -0.07937h-0.11818z"/>
     <path d="m168.29 21.705c-0.19227 0-0.37042 0.13758-0.37042 0.43039 0 0.26988 0.16757 0.41275 0.38629 0.41275 0.11642 0 0.22049-0.04233 0.28928-0.12524l-0.0706-0.06879c-0.0512 0.05997-0.12876 0.09172-0.20814 0.09172-0.10759 0-0.26458-0.05997-0.2734-0.30162h0.5715c5e-3 -0.05468 4e-3 -0.1076-5e-3 -0.15346-0.037-0.21696-0.18697-0.28575-0.31926-0.28575zm-0.24342 0.34219c0.0265-0.1905 0.14817-0.24518 0.2346-0.24518 0.13052 0 0.22401 0.11465 0.20814 0.24518z"/>
    </g>
   </g>
   <g transform="matrix(-.13956 .01285 -.01285 -.13956 84.752 160.6)" opacity=".91" stroke="#e9e56f">
    <path d="m36.265 79.224 24.543-27.947" fill="none" stroke="#e9e56f" stroke-width="1px"/>
   </g>
   <g transform="matrix(-.05799 .12759 .12759 .05799 83.818 159.28)" opacity=".91">
    <path d="m36.265 79.224 24.543-27.947" fill="none" stroke="#e9e56f" stroke-width="1px"/>
   </g>
   <g transform="matrix(-.17525 -.11899 -.11899 .17525 196.11 165.42)" stroke="#e9e56f">
    <path d="m501.47 274.25-1.2053 3.2778-1.2053-3.2778c0.71162 0.52365 1.6852 0.52064 2.4106 0z" fill="#fff" fill-rule="evenodd" stroke="#e9e56f" stroke-linejoin="round" stroke-width=".1875"/>
   </g>
   <g transform="matrix(-.059603 -.20328 -.20328 .059603 172.66 255.28)" stroke="#e9e56f">
    <path d="m501.47 274.25-1.2053 3.2778-1.2053-3.2778c0.71162 0.52365 1.6852 0.52064 2.4106 0z" fill="#fff" fill-rule="evenodd" stroke="#e9e56f" stroke-linejoin="round" stroke-width=".1875"/>
   </g>
  </g>
 </g>
</svg>
