<svg width="65.554mm" height="19.284mm" version="1.1" viewBox="0 0 65.554 19.284" xmlns="http://www.w3.org/2000/svg">
 <g transform="translate(-120.85 -63.73)">
  <g fill-opacity=".38431">
   <rect x="129" y="73.081" width="56.312" height="8.8818" fill="#3b390d"/>
   <rect x="121.94" y="73.081" width="6.9667" height="8.863" fill="#0d0f3b"/>
   <rect x="121.97" y="68.085" width="63.384" height="5.0464" fill="#0d0f3b"/>
  </g>
  <g fill="none" stroke="#e9e56f">
   <g stroke-width=".09525">
    <path d="m121.93 68.085h63.366"/>
    <path d="m121.93 73.157h63.424"/>
    <path d="m121.93 77.52h63.366"/>
    <path d="m121.93 81.958h63.366"/>
   </g>
   <path d="m121.9 82.014v-13.911" stroke-width=".09813"/>
   <path d="m128.94 81.996v-13.911" stroke-width=".09813"/>
  </g>
  <g transform="scale(1.0015 .99852)" fill="#fff" stroke-width=".28222px" aria-label="Bit">
   <path d="m123.64 70.147v1.508h0.42601c0.10166 0 0.20574 0 0.30982-0.04357 0.16218-0.07019 0.25173-0.21784 0.25173-0.37276 0-0.1767-0.11376-0.33403-0.28077-0.3897 0.13312-0.05567 0.22268-0.1888 0.22268-0.33161 0-0.13555-0.0774-0.26625-0.22026-0.32676-0.0944-0.04115-0.1888-0.04357-0.28078-0.04357zm0.16702 0.14523h0.23721c0.0653 0 0.13312 0 0.2009 0.02663 0.0992 0.04115 0.15249 0.12586 0.15249 0.213 0 0.08714-0.0508 0.16943-0.14523 0.21058-0.0702 0.02904-0.14281 0.02904-0.21058 0.02904h-0.23479zm0 0.62206h0.24689c0.075 0 0.15007 0.0024 0.2251 0.03873 0.11135 0.05083 0.17186 0.15975 0.17186 0.26867s-0.0581 0.20816-0.16218 0.25657c-0.0654 0.02905-0.12828 0.02905-0.19363 0.02905h-0.28804z"/>
   <path d="m124.99 70.549v0.14281h0.26625v0.82539h-0.28078v0.13797h0.71647v-0.13797h-0.259v-0.96819zm0.35823-0.47926c-0.0702 0-0.12587 0.05567-0.12587 0.12344 0 0.06777 0.0557 0.12344 0.12587 0.12344 0.0702 0 0.12586-0.05567 0.12586-0.12344 0-0.06777-0.0557-0.12344-0.12586-0.12344z"/>
   <path d="m126.4 70.254-0.0218 0.29772h-0.26383l-2e-3 0.14281h0.25899c-0.0145 0.1888-0.0218 0.3776-0.0218 0.56397 0 0.09924 0 0.21058 0.0653 0.30256 0.0533 0.07261 0.13797 0.11618 0.25173 0.11618 0.13071 0 0.25899-0.05567 0.35339-0.12344l-0.0532-0.13797c-0.0944 0.07019-0.18153 0.10166-0.24931 0.10166-0.0823 0-0.16701-0.04599-0.18638-0.17912 0-0.0097-7e-3 -0.05083-7e-3 -0.213 0-0.14281 7e-3 -0.28804 0.0218-0.43085h0.36307v-0.14523h-0.36065s0.0169-0.19848 0.029-0.26141c2e-3 -0.02421 0.0218-0.03873 0.0121-0.06535z"/>
  </g>
  <g transform="scale(1.0015 .99852)" fill="#d36fe9" stroke-width=".28222px" aria-label="Source Port">
   <path d="m137.27 74.864c-0.10166-0.12344-0.25173-0.1888-0.41632-0.1888-0.27351 0-0.45989 0.17912-0.45989 0.38728 0 0.08714 0.0339 0.2009 0.15975 0.29288 0.14039 0.10408 0.35823 0.15491 0.472 0.22753 0.0992 0.06051 0.12586 0.14039 0.12586 0.20816 0 0.13071-0.11134 0.27351-0.32919 0.27351-0.16459 0-0.29287-0.0823-0.36065-0.16701-7e-3 -0.0097-7e-3 -0.01452-7e-3 -0.0242 0-0.0048 0-0.01936-0.01-0.0242l-0.10166 0.17428c0.1186 0.12829 0.28804 0.19364 0.47441 0.19364 0.36792 0 0.50346-0.24689 0.50346-0.43569 0-0.07988-0.0242-0.18396-0.1186-0.27352-0.13071-0.12344-0.34371-0.16701-0.48168-0.24689-0.12586-0.07503-0.15249-0.16459-0.15249-0.2251 0-0.11618 0.0992-0.22026 0.2711-0.22026 0.14039 0 0.24931 0.06293 0.3074 0.14765 7e-3 0.0097 5e-3 0.01452 5e-3 0.0242 0 0.01452 7e-3 0.01936 0.0121 0.01936z"/>
   <path d="m138.55 75.643c0-0.38244-0.24205-0.58092-0.49378-0.58092-0.28078 0-0.52282 0.24205-0.52282 0.58576 0 0.33645 0.23962 0.57366 0.51798 0.57366 0.26141 0 0.49862-0.21058 0.49862-0.5785zm-0.50588-0.43327c0.15975 0 0.32918 0.13797 0.32918 0.44053 0 0.27836-0.15975 0.41874-0.3195 0.41874-0.1767 0-0.33645-0.16459-0.33645-0.43811 0-0.27109 0.15733-0.42116 0.32677-0.42116z"/>
   <path d="m138.79 75.086v0.61722c0 0.0944 0 0.19122 0.0436 0.29046 0.0629 0.14523 0.19848 0.2251 0.34371 0.2251 0.13796 0 0.26867-0.07503 0.34129-0.19606l-2e-3 0.0823c0 0.02905 0 0.05809 5e-3 0.08472h0.18395c-0.0121-0.03147-0.0145-0.06777-0.0145-0.09924v-1.0045h-0.17427v0.60754c0 0.08472-7e-3 0.15007-0.0436 0.21784-0.0508 0.0944-0.15007 0.16459-0.25657 0.16459-0.0847 0-0.16702-0.04841-0.21059-0.13555-0.0387-0.07746-0.0387-0.16459-0.0387-0.23721v-0.61722z"/>
   <path d="m140.09 75.086v1.1062h0.17428v-0.53735c0-0.06777 2e-3 -0.14039 0.0774-0.25899 0.10166-0.15975 0.23237-0.18638 0.31224-0.18638 0.092 0 0.15007 0.04357 0.18154 0.0823 0.0145 0.01936 0.0218 0.03873 0.0412 0.05567l0.0823-0.16701c-0.0702-0.07261-0.17185-0.12102-0.29529-0.12102-0.16218 0-0.32677 0.0823-0.39938 0.23963l7e-3 -0.213z"/>
   <path d="m142.17 75.268c-0.0871-0.12829-0.23479-0.20574-0.41391-0.20574-0.32434 0-0.55429 0.24447-0.55429 0.57608 0 0.33403 0.22995 0.58092 0.54461 0.58092 0.15249 0 0.30256-0.06293 0.40664-0.1767l-0.0992-0.11618c-0.075 0.08472-0.18395 0.13313-0.29288 0.13313-0.21542 0-0.38001-0.17912-0.38001-0.43811 0-0.25173 0.16217-0.40906 0.36549-0.40906 0.1888 0 0.27836 0.13071 0.28562 0.14523 0.01 0.01694-5e-3 0.04115 0.0145 0.05567z"/>
   <path d="m142.9 75.06c-0.26383 0-0.5083 0.1888-0.5083 0.5906 0 0.37034 0.22995 0.56639 0.53009 0.56639 0.15975 0 0.30256-0.05809 0.39696-0.17185l-0.0968-0.0944c-0.0702 0.0823-0.1767 0.12586-0.28562 0.12586-0.14765 0-0.36307-0.0823-0.37517-0.4139h0.78423c7e-3 -0.07503 5e-3 -0.14765-7e-3 -0.21058-0.0508-0.29772-0.25657-0.39212-0.43811-0.39212zm-0.33402 0.46957c0.0363-0.26141 0.20332-0.33645 0.32192-0.33645 0.17912 0 0.3074 0.15733 0.28562 0.33645z"/>
   <path d="m144.83 74.682v1.508h0.1767v-0.66563h0.2953c0.0944 0 0.18395-0.0024 0.27593-0.04841 0.14039-0.07019 0.213-0.21542 0.213-0.36791 0-0.15249-0.0726-0.30014-0.21542-0.37276-0.0944-0.05083-0.1888-0.05325-0.28562-0.05325zm0.1767 0.15975h0.28319c0.0629 0 0.12345 0.0024 0.18638 0.03147 0.092 0.04841 0.14281 0.14523 0.14281 0.24205 0 0.09682-0.0484 0.18638-0.13555 0.22995-0.0581 0.02905-0.11618 0.03147-0.17427 0.03147h-0.30498z"/>
   <path d="m147.02 75.643c0-0.38244-0.24205-0.58092-0.49378-0.58092-0.28078 0-0.52282 0.24205-0.52282 0.58576 0 0.33645 0.23962 0.57366 0.51798 0.57366 0.26141 0 0.49862-0.21058 0.49862-0.5785zm-0.50588-0.43327c0.15975 0 0.32918 0.13797 0.32918 0.44053 0 0.27836-0.15975 0.41874-0.3195 0.41874-0.17669 0-0.33645-0.16459-0.33645-0.43811 0-0.27109 0.15733-0.42116 0.32677-0.42116z"/>
   <path d="m147.35 75.086v1.1062h0.17427v-0.53735c0-0.06777 2e-3 -0.14039 0.0775-0.25899 0.10166-0.15975 0.23237-0.18638 0.31224-0.18638 0.092 0 0.15007 0.04357 0.18154 0.0823 0.0145 0.01936 0.0218 0.03873 0.0412 0.05567l0.0823-0.16701c-0.0702-0.07261-0.17185-0.12102-0.2953-0.12102-0.16217 0-0.32676 0.0823-0.39938 0.23963l7e-3 -0.213z"/>
   <path d="m148.78 74.788-0.0218 0.29772h-0.26383l-2e-3 0.14281h0.25899c-0.0145 0.1888-0.0218 0.3776-0.0218 0.56397 0 0.09924 0 0.21058 0.0654 0.30256 0.0532 0.07261 0.13796 0.11618 0.25173 0.11618 0.1307 0 0.25899-0.05567 0.35339-0.12344l-0.0532-0.13797c-0.0944 0.07019-0.18154 0.10166-0.24931 0.10166-0.0823 0-0.16702-0.04599-0.18638-0.17912 0-0.0097-7e-3 -0.05083-7e-3 -0.213 0-0.14281 7e-3 -0.28804 0.0218-0.43085h0.36308v-0.14523h-0.36066s0.017-0.19848 0.0291-0.26141c2e-3 -0.02421 0.0218-0.03873 0.0121-0.06535z"/>
  </g>
  <g fill="#fff">
   <g transform="scale(1.0015 .99852)" stroke-width=".28222px" aria-label="Bits 0-15">
    <path d="m137.46 70.154v1.508h0.42601c0.10166 0 0.20574 0 0.30982-0.04357 0.16217-0.07019 0.25173-0.21784 0.25173-0.37276 0-0.1767-0.11376-0.33403-0.28078-0.3897 0.13313-0.05567 0.22269-0.1888 0.22269-0.33161 0-0.13555-0.0775-0.26625-0.22027-0.32676-0.0944-0.04115-0.18879-0.04357-0.28077-0.04357zm0.16701 0.14523h0.23721c0.0654 0 0.13313 0 0.2009 0.02663 0.0992 0.04115 0.15249 0.12586 0.15249 0.213 0 0.08714-0.0508 0.16943-0.14523 0.21058-0.0702 0.02904-0.1428 0.02904-0.21058 0.02904h-0.23479zm0 0.62206h0.24689c0.075 0 0.15007 0.0024 0.22511 0.03873 0.11134 0.05083 0.17185 0.15975 0.17185 0.26867s-0.0581 0.20816-0.16217 0.25657c-0.0653 0.02905-0.12828 0.02905-0.19364 0.02905h-0.28804z"/>
    <path d="m138.81 70.556v0.14281h0.26626v0.82539h-0.28078v0.13797h0.71646v-0.13797h-0.25899v-0.96819zm0.35823-0.47926c-0.0702 0-0.12586 0.05567-0.12586 0.12344 0 0.06777 0.0557 0.12344 0.12586 0.12344 0.0702 0 0.12587-0.05567 0.12587-0.12344 0-0.06777-0.0557-0.12344-0.12587-0.12344z"/>
    <path d="m140.22 70.261-0.0218 0.29772h-0.26383l-2e-3 0.14281h0.25899c-0.0145 0.1888-0.0218 0.3776-0.0218 0.56397 0 0.09924 0 0.21058 0.0654 0.30256 0.0532 0.07261 0.13797 0.11618 0.25173 0.11618 0.1307 0 0.25899-0.05567 0.35339-0.12344l-0.0532-0.13797c-0.0944 0.07019-0.18154 0.10166-0.24931 0.10166-0.0823 0-0.16701-0.04599-0.18638-0.17912 0-0.0097-7e-3 -0.05083-7e-3 -0.213 0-0.14281 7e-3 -0.28804 0.0218-0.43085h0.36308v-0.14523h-0.36066s0.017-0.19848 0.0291-0.26141c2e-3 -0.02421 0.0218-0.03873 0.0121-0.06535z"/>
    <path d="m142.02 70.704c-0.10166-0.11134-0.24931-0.17185-0.41391-0.17185-0.25657 0-0.42358 0.14281-0.42358 0.3074 0 0.19364 0.20816 0.26383 0.26867 0.28562 0.0944 0.03389 0.21543 0.06293 0.29772 0.10166 0.092 0.04357 0.10892 0.10166 0.10892 0.14039 0 0.10408-0.12586 0.17428-0.28319 0.17428-0.1888 0-0.30983-0.11376-0.34613-0.15249-7e-3 -0.0097-7e-3 -0.01694-7e-3 -0.02663 0-0.0024 2e-3 -0.01694-0.01-0.02178l-0.10166 0.17186c0.13071 0.12102 0.30014 0.1767 0.46716 0.1767 0.30256 0 0.45989-0.17912 0.45989-0.34613 0-0.07503-0.0315-0.1767-0.16217-0.24931-0.12345-0.07019-0.30256-0.0944-0.40664-0.14523-0.0896-0.04357-0.10893-0.09682-0.10893-0.13555 0-0.08714 0.10893-0.15007 0.23237-0.15007 0.15975 0 0.26625 0.09682 0.3074 0.15249 7e-3 0.0073 5e-3 0.01452 5e-3 0.02178 0 0.01452 0.01 0.01936 0.0145 0.01936z"/>
    <path d="m144 70.145c-0.23962 0-0.48651 0.2953-0.48651 0.77698 0 0.48894 0.24931 0.76972 0.48893 0.76972 0.21785 0 0.47684-0.23721 0.47684-0.75761 0-0.51314-0.24689-0.78908-0.47926-0.78908zm0.23479 0.34613-0.53009 0.68742c-0.0218-0.08472-0.0339-0.17912-0.0339-0.28562 0-0.38728 0.17669-0.60028 0.32676-0.60028 0.0823 0 0.17186 0.06535 0.23721 0.19848zm0.0557 0.15975c0.0218 0.08472 0.0315 0.18638 0.0315 0.30498 0 0.42116-0.18154 0.58092-0.31466 0.58092-0.0896 0-0.18154-0.07261-0.24689-0.20574z"/>
    <path d="m144.77 70.822v0.15975h0.87137v-0.15975z"/>
    <path d="m146.53 70.154h-0.11134l-0.38728 0.2009 0.0387 0.0944 0.30014-0.08472v1.1667h-0.28078v0.13313h0.71163v-0.13312h-0.2711z"/>
    <path d="m147.28 70.154-0.0532 0.76729 0.10892 0.04357c0.0726-0.09198 0.17912-0.14281 0.2832-0.14281 0.15733 0 0.3074 0.12102 0.3074 0.36065 0 0.23237-0.14281 0.35823-0.30498 0.35823s-0.26867-0.12344-0.27593-0.13797c-0.01-0.01936 2e-3 -0.04357-0.0194-0.05809l-0.15007 0.11376c0.10166 0.14765 0.26868 0.23237 0.44779 0.23237 0.26141 0 0.47684-0.1767 0.47684-0.50346 0-0.32435-0.20332-0.50346-0.45747-0.50346-0.0823 0-0.16702 0.01936-0.24447 0.05809l0.0218-0.43569h0.62449v-0.15249z"/>
   </g>
   <g transform="scale(1.0015 .99852)" aria-label="0">
    <path d="m125.26 74.66c-0.23963 0-0.48652 0.2953-0.48652 0.77698 0 0.48894 0.24931 0.76971 0.48894 0.76971 0.21784 0 0.47683-0.23721 0.47683-0.75761 0-0.51314-0.24689-0.78908-0.47925-0.78908zm0.23479 0.34613-0.53009 0.68742c-0.0218-0.08472-0.0339-0.17912-0.0339-0.28562 0-0.38728 0.1767-0.60028 0.32677-0.60028 0.0823 0 0.17185 0.06535 0.23721 0.19848zm0.0557 0.15975c0.0218 0.08472 0.0315 0.18638 0.0315 0.30498 0 0.42116-0.18153 0.58092-0.31466 0.58092-0.0896 0-0.18154-0.07261-0.24689-0.20574z" fill="#fff" stroke-width=".28222px"/>
   </g>
   <g transform="scale(1.0015 .99852)" stroke-width=".28222px" aria-label="32">
    <path d="m125.08 79.569c0-0.20574-0.17428-0.38244-0.41391-0.38244-0.13554 0-0.26867 0.05809-0.36307 0.16217l0.0944 0.10408c0.0702-0.07503 0.16701-0.11618 0.26141-0.11618 0.15491 0 0.26141 0.10892 0.26141 0.23721 0 0.08956-0.0557 0.19122-0.16217 0.23721-0.0266 0.0097-0.0944 0.03631-0.23721 0.03631v0.13555c0.0242-0.0024 0.0508-0.0048 0.0775-0.0048 0.20332 0 0.35339 0.1065 0.35339 0.28804 0 0.16459-0.12586 0.3074-0.30256 0.3074-0.14039 0-0.2251-0.09198-0.23721-0.10408-0.0194-0.02179-0.01-0.04599-0.0315-0.06777l-0.12587 0.15249c0.0992 0.11376 0.24447 0.17185 0.39454 0.17185 0.29046 0 0.46473-0.20574 0.46473-0.44053 0-0.17912-0.10166-0.33161-0.25899-0.3897 0.13555-0.05083 0.22511-0.17912 0.22511-0.32677z"/>
    <path d="m125.48 79.426 0.12344 0.09924c0.0145-0.02178 7e-3 -0.03631 0.0218-0.05567 0.0363-0.05567 0.12586-0.13797 0.25657-0.13797 0.16217 0 0.29046 0.12344 0.29046 0.28562 0 0.18396-0.15491 0.31708-0.26384 0.41632-0.17185 0.15491-0.31224 0.30982-0.4381 0.55913v0.1065h0.88589v-0.16701c-0.0169-0.0073-0.029 0.0048-0.0339 0.0097-0.01 0.0097-0.0145 0.0097-0.0242 0.0097h-0.63417c0.12587-0.21784 0.30257-0.36791 0.41149-0.46957 0.10892-0.10408 0.26383-0.25899 0.26383-0.47684 0-0.23479-0.19122-0.42358-0.43569-0.42358-0.17185 0-0.33402 0.09198-0.42358 0.24447z"/>
   </g>
  </g>
  <g>
   <path d="m185.36 82.009v-13.924" fill="none" stroke="#e9e56f" stroke-width=".09813"/>
   <g transform="scale(1.0015 .99852)" fill="#fff" stroke-width=".28222px" aria-label="Bits 16-31">
    <path d="m165.08 70.154v1.508h0.426c0.10167 0 0.20575 0 0.30983-0.04357 0.16217-0.07019 0.25173-0.21784 0.25173-0.37276 0-0.1767-0.11377-0.33403-0.28078-0.3897 0.13313-0.05567 0.22269-0.1888 0.22269-0.33161 0-0.13555-0.0775-0.26625-0.22027-0.32676-0.0944-0.04115-0.1888-0.04357-0.28077-0.04357zm0.16701 0.14523h0.23721c0.0653 0 0.13313 0 0.2009 0.02663 0.0992 0.04115 0.15249 0.12586 0.15249 0.213 0 0.08714-0.0508 0.16943-0.14523 0.21058-0.0702 0.02904-0.14281 0.02904-0.21058 0.02904h-0.23479zm0 0.62206h0.24689c0.075 0 0.15007 0.0024 0.22511 0.03873 0.11134 0.05083 0.17185 0.15975 0.17185 0.26867s-0.0581 0.20816-0.16217 0.25657c-0.0653 0.02905-0.12829 0.02905-0.19364 0.02905h-0.28804z"/>
    <path d="m166.43 70.556v0.14281h0.26625v0.82539h-0.28077v0.13797h0.71646v-0.13797h-0.25899v-0.96819zm0.35823-0.47926c-0.0702 0-0.12586 0.05567-0.12586 0.12344 0 0.06777 0.0557 0.12344 0.12586 0.12344 0.0702 0 0.12587-0.05567 0.12587-0.12344 0-0.06777-0.0557-0.12344-0.12587-0.12344z"/>
    <path d="m167.84 70.261-0.0218 0.29772h-0.26383l-2e-3 0.14281h0.25899c-0.0145 0.1888-0.0218 0.3776-0.0218 0.56397 0 0.09924 0 0.21058 0.0654 0.30256 0.0533 0.07261 0.13796 0.11618 0.25173 0.11618 0.1307 0 0.25899-0.05567 0.35339-0.12344l-0.0532-0.13797c-0.0944 0.07019-0.18154 0.10166-0.24931 0.10166-0.0823 0-0.16702-0.04599-0.18638-0.17912 0-0.0097-7e-3 -0.05083-7e-3 -0.213 0-0.14281 7e-3 -0.28804 0.0218-0.43085h0.36308v-0.14523h-0.36066s0.0169-0.19848 0.029-0.26141c2e-3 -0.02421 0.0218-0.03873 0.0121-0.06535z"/>
    <path d="m169.64 70.704c-0.10166-0.11134-0.24931-0.17185-0.4139-0.17185-0.25657 0-0.42358 0.14281-0.42358 0.3074 0 0.19364 0.20816 0.26383 0.26867 0.28562 0.0944 0.03389 0.21542 0.06293 0.29772 0.10166 0.092 0.04357 0.10892 0.10166 0.10892 0.14039 0 0.10408-0.12586 0.17428-0.28319 0.17428-0.1888 0-0.30983-0.11376-0.34613-0.15249-7e-3 -0.0097-7e-3 -0.01694-7e-3 -0.02663 0-0.0024 2e-3 -0.01694-0.01-0.02178l-0.10166 0.17186c0.13071 0.12102 0.30014 0.1767 0.46716 0.1767 0.30256 0 0.45989-0.17912 0.45989-0.34613 0-0.07503-0.0315-0.1767-0.16217-0.24931-0.12345-0.07019-0.30257-0.0944-0.40665-0.14523-0.0896-0.04357-0.10892-0.09682-0.10892-0.13555 0-0.08714 0.10892-0.15007 0.23237-0.15007 0.15975 0 0.26625 0.09682 0.3074 0.15249 7e-3 0.0073 5e-3 0.01452 5e-3 0.02178 0 0.01452 0.01 0.01936 0.0145 0.01936z"/>
    <path d="m171.73 70.154h-0.11134l-0.38728 0.2009 0.0387 0.0944 0.30014-0.08472v1.1667h-0.28077v0.13313h0.71162v-0.13312h-0.2711z"/>
    <path d="m172.92 70.137c-0.18153 0-0.37517 0.11134-0.46957 0.37518-0.0508 0.14281-0.0629 0.3195-0.0629 0.46473 0 0.1767 0.0169 0.36549 0.11376 0.51072 0.0871 0.13313 0.22268 0.2009 0.35581 0.2009 0.22995 0 0.43085-0.19364 0.43085-0.50588 0-0.31224-0.2009-0.49378-0.41391-0.49378-0.1307 0-0.25415 0.07019-0.3195 0.18154 0.01-0.51556 0.25657-0.58334 0.36549-0.58334 0.0992 0 0.16702 0.05325 0.1767 0.06293 0.0145 0.01694 0.0145 0.03873 0.0363 0.05567l0.11618-0.13071c-0.0871-0.08714-0.20816-0.13797-0.32919-0.13797zm-0.0629 0.70194c0.12102 0 0.26625 0.0944 0.26625 0.35339 0 0.23479-0.1307 0.34613-0.25899 0.34613-0.18396 0-0.32192-0.21542-0.30256-0.49862 0.0678-0.12344 0.18396-0.2009 0.2953-0.2009z"/>
    <path d="m173.6 70.822v0.15975h0.87137v-0.15975z"/>
    <path d="m175.63 70.532c0-0.20574-0.17428-0.38244-0.4139-0.38244-0.13555 0-0.26868 0.05809-0.36308 0.16217l0.0944 0.10408c0.0702-0.07504 0.16701-0.11618 0.26141-0.11618 0.15491 0 0.26142 0.10892 0.26142 0.23721 0 0.08956-0.0557 0.19122-0.16218 0.23721-0.0266 0.0097-0.0944 0.03631-0.2372 0.03631v0.13555c0.0242-0.0024 0.0508-0.0048 0.0774-0.0048 0.20332 0 0.35339 0.1065 0.35339 0.28804 0 0.16459-0.12586 0.3074-0.30256 0.3074-0.14039 0-0.2251-0.09198-0.23721-0.10408-0.0194-0.02178-0.01-0.04599-0.0315-0.06777l-0.12587 0.15249c0.0992 0.11376 0.24447 0.17185 0.39454 0.17185 0.29046 0 0.46473-0.20574 0.46473-0.44053 0-0.17912-0.10166-0.33161-0.25899-0.3897 0.13555-0.05083 0.22511-0.17912 0.22511-0.32676z"/>
    <path d="m176.57 70.154h-0.11135l-0.38727 0.2009 0.0387 0.0944 0.30014-0.08472v1.1667h-0.28077v0.13313h0.71162v-0.13312h-0.27109z"/>
   </g>
   <path d="m157.14 73.137v-5.0526" fill="none" stroke="#e9e56f" stroke-width=".09813"/>
   <g transform="scale(1.0015 .99852)" fill="#d36fe9" stroke-width=".28222px" aria-label="Destination port">
    <path d="m161.15 74.682v1.5104h0.32435c0.1186 0 0.22026-0.0048 0.32676-0.06051 0.21543-0.11134 0.33403-0.36791 0.33403-0.6971 0-0.29046-0.0871-0.54461-0.28078-0.67047-0.10892-0.07261-0.21784-0.0823-0.35097-0.0823zm0.15975 0.14523h0.18396c0.0944 0 0.1888 0.0048 0.2832 0.0823 0.14039 0.11618 0.18638 0.33161 0.18638 0.54703 0 0.28804-0.0944 0.45263-0.21543 0.53493-0.0944 0.06293-0.1888 0.06777-0.28319 0.06777h-0.15492z"/>
    <path d="m162.86 75.06c-0.26384 0-0.50831 0.1888-0.50831 0.5906 0 0.37034 0.22995 0.56639 0.53009 0.56639 0.15975 0 0.30256-0.05809 0.39696-0.17185l-0.0968-0.0944c-0.0702 0.0823-0.1767 0.12586-0.28562 0.12586-0.14765 0-0.36307-0.0823-0.37517-0.4139h0.78423c7e-3 -0.07503 5e-3 -0.14765-7e-3 -0.21058-0.0508-0.29772-0.25657-0.39212-0.4381-0.39212zm-0.33403 0.46957c0.0363-0.26141 0.20332-0.33645 0.32192-0.33645 0.17912 0 0.3074 0.15733 0.28562 0.33645z"/>
    <path d="m164.49 75.231c-0.10166-0.11134-0.24931-0.17185-0.4139-0.17185-0.25657 0-0.42359 0.14281-0.42359 0.3074 0 0.19364 0.20817 0.26383 0.26868 0.28562 0.0944 0.03389 0.21542 0.06293 0.29772 0.10166 0.092 0.04357 0.10892 0.10166 0.10892 0.14039 0 0.10408-0.12587 0.17428-0.2832 0.17428-0.18879 0-0.30982-0.11376-0.34613-0.15249-7e-3 -0.0097-7e-3 -0.01694-7e-3 -0.02663 0-0.0024 2e-3 -0.01694-0.01-0.02178l-0.10166 0.17186c0.13071 0.12102 0.30014 0.1767 0.46715 0.1767 0.30256 0 0.4599-0.17912 0.4599-0.34613 0-0.07504-0.0315-0.1767-0.16218-0.24931-0.12344-0.07019-0.30256-0.0944-0.40664-0.14523-0.0896-0.04357-0.10892-0.09682-0.10892-0.13555 0-0.08714 0.10892-0.15007 0.23237-0.15007 0.15975 0 0.26625 0.09682 0.3074 0.15249 7e-3 0.0073 5e-3 0.01452 5e-3 0.02178 0 0.01452 0.01 0.01936 0.0145 0.01936z"/>
    <path d="m165.11 74.788-0.0218 0.29772h-0.26383l-2e-3 0.14281h0.25899c-0.0145 0.1888-0.0218 0.3776-0.0218 0.56397 0 0.09924 0 0.21058 0.0653 0.30256 0.0533 0.07261 0.13797 0.11618 0.25173 0.11618 0.13071 0 0.25899-0.05567 0.35339-0.12344l-0.0532-0.13797c-0.0944 0.07019-0.18154 0.10166-0.24931 0.10166-0.0823 0-0.16701-0.04599-0.18638-0.17912 0-0.0097-7e-3 -0.05083-7e-3 -0.213 0-0.14281 7e-3 -0.28804 0.0218-0.43085h0.36307v-0.14523h-0.36065s0.0169-0.19848 0.029-0.26141c2e-3 -0.02421 0.0218-0.03873 0.0121-0.06535z"/>
    <path d="m166.12 75.084v0.14281h0.26625v0.82539h-0.28077v0.13797h0.71646v-0.13797h-0.25899v-0.96819zm0.35823-0.47926c-0.0702 0-0.12586 0.05567-0.12586 0.12344 0 0.06777 0.0557 0.12344 0.12586 0.12344 0.0702 0 0.12587-0.05567 0.12587-0.12344 0-0.06777-0.0557-0.12344-0.12587-0.12344z"/>
    <path d="m167.24 76.19h0.1767v-0.63659c0-0.07261 0.01-0.12829 0.0557-0.1888 0.0412-0.05567 0.14765-0.15491 0.26383-0.15491 0.0557 0 0.11135 0.0242 0.15007 0.07019 0.0605 0.07261 0.0605 0.16701 0.0605 0.24447v0.66563h0.17185v-0.67048c0-0.08472 0-0.1767-0.0387-0.26625-0.0557-0.12344-0.16943-0.19364-0.2953-0.19364-0.15007 0-0.28561 0.09682-0.36791 0.22026v-0.19364h-0.1767z"/>
    <path d="m168.5 75.215 0.0847 0.11134c0.092-0.0944 0.21542-0.12344 0.3195-0.12344 0.13071 0 0.19606 0.05567 0.22752 0.1065 0.0363 0.06051 0.0339 0.13313 0.0339 0.19122v0.03873h-0.0339c-0.16459 0-0.33886 0-0.47925 0.05083-0.17428 0.06293-0.25173 0.19364-0.25173 0.31466 0 0.16217 0.14039 0.31466 0.37033 0.31466 0.13555 0 0.27594-0.05083 0.39696-0.15007v0.12102h0.1646v-0.685c0-0.08956-2e-3 -0.17428-0.0533-0.26141-0.0726-0.1186-0.213-0.18154-0.38485-0.18154-0.14765 0-0.29046 0.04599-0.39454 0.15249zm0.67289 0.45747v0.07503c0 0.05567 0 0.12829-0.075 0.20816-0.0412 0.04115-0.14523 0.13071-0.29046 0.13071-0.14765 0-0.23237-0.0944-0.23237-0.19122 0-0.0823 0.0557-0.17185 0.19364-0.20574 0.10166-0.02421 0.24931-0.01694 0.3655-0.01694z"/>
    <path d="m169.95 74.788-0.0218 0.29772h-0.26383l-2e-3 0.14281h0.25899c-0.0145 0.1888-0.0218 0.3776-0.0218 0.56397 0 0.09924 0 0.21058 0.0653 0.30256 0.0533 0.07261 0.13797 0.11618 0.25173 0.11618 0.13071 0 0.25899-0.05567 0.35339-0.12344l-0.0532-0.13797c-0.0944 0.07019-0.18153 0.10166-0.24931 0.10166-0.0823 0-0.16701-0.04599-0.18638-0.17912 0-0.0097-7e-3 -0.05083-7e-3 -0.213 0-0.14281 7e-3 -0.28804 0.0218-0.43085h0.36307v-0.14523h-0.36065s0.0169-0.19848 0.029-0.26141c2e-3 -0.02421 0.0218-0.03873 0.0121-0.06535z"/>
    <path d="m170.96 75.084v0.14281h0.26625v0.82539h-0.28077v0.13797h0.71646v-0.13797h-0.25899v-0.96819zm0.35823-0.47926c-0.0702 0-0.12586 0.05567-0.12586 0.12344 0 0.06777 0.0557 0.12344 0.12586 0.12344 0.0702 0 0.12587-0.05567 0.12587-0.12344 0-0.06777-0.0557-0.12344-0.12587-0.12344z"/>
    <path d="m173.03 75.643c0-0.38244-0.24205-0.58092-0.49378-0.58092-0.28078 0-0.52283 0.24205-0.52283 0.58576 0 0.33645 0.23963 0.57366 0.51799 0.57366 0.26141 0 0.49862-0.21058 0.49862-0.5785zm-0.50588-0.43327c0.15975 0 0.32918 0.13797 0.32918 0.44053 0 0.27836-0.15975 0.41874-0.3195 0.41874-0.1767 0-0.33645-0.16459-0.33645-0.43811 0-0.27109 0.15733-0.42116 0.32677-0.42116z"/>
    <path d="m173.29 76.19h0.17669v-0.63659c0-0.07261 0.01-0.12829 0.0557-0.1888 0.0411-0.05567 0.14764-0.15491 0.26383-0.15491 0.0557 0 0.11134 0.0242 0.15007 0.07019 0.0605 0.07261 0.0605 0.16701 0.0605 0.24447v0.66563h0.17185v-0.67048c0-0.08472 0-0.1767-0.0387-0.26625-0.0557-0.12344-0.16944-0.19364-0.2953-0.19364-0.15007 0-0.28562 0.09682-0.36792 0.22026v-0.19364h-0.17669z"/>
    <path d="m175.69 75.086 2e-3 1.508h0.1767v-0.54945c0.075 0.10892 0.19848 0.1767 0.3316 0.1767 0.22753 0 0.46474-0.19122 0.46474-0.59544 0-0.3897-0.22995-0.56397-0.44779-0.56397-0.14281 0-0.27594 0.07261-0.35097 0.19364v-0.16943zm0.46231 0.12344c0.0968 0 0.33161 0.05083 0.33161 0.45263 0 0.34855-0.22753 0.40422-0.33161 0.40422s-0.21058-0.05325-0.25415-0.15249c-0.0315-0.07503-0.0315-0.16701-0.0315-0.32676 0-0.09198 5e-3 -0.15975 0.029-0.21784 0.0436-0.09924 0.14523-0.15975 0.25657-0.15975z"/>
    <path d="m177.87 75.643c0-0.38244-0.24205-0.58092-0.49378-0.58092-0.28078 0-0.52283 0.24205-0.52283 0.58576 0 0.33645 0.23963 0.57366 0.51799 0.57366 0.26141 0 0.49862-0.21058 0.49862-0.5785zm-0.50588-0.43327c0.15975 0 0.32918 0.13797 0.32918 0.44053 0 0.27836-0.15975 0.41874-0.3195 0.41874-0.1767 0-0.33645-0.16459-0.33645-0.43811 0-0.27109 0.15733-0.42116 0.32677-0.42116z"/>
    <path d="m178.2 75.086v1.1062h0.17428v-0.53735c0-0.06777 2e-3 -0.14039 0.0775-0.25899 0.10166-0.15975 0.23236-0.18638 0.31224-0.18638 0.092 0 0.15007 0.04357 0.18153 0.0823 0.0145 0.01936 0.0218 0.03873 0.0411 0.05567l0.0823-0.16701c-0.0702-0.07261-0.17186-0.12102-0.2953-0.12102-0.16217 0-0.32677 0.0823-0.39938 0.23963l7e-3 -0.213z"/>
    <path d="m179.63 74.788-0.0218 0.29772h-0.26384l-2e-3 0.14281h0.259c-0.0145 0.1888-0.0218 0.3776-0.0218 0.56397 0 0.09924 0 0.21058 0.0654 0.30256 0.0532 0.07261 0.13797 0.11618 0.25173 0.11618 0.13071 0 0.259-0.05567 0.3534-0.12344l-0.0533-0.13797c-0.0944 0.07019-0.18153 0.10166-0.24931 0.10166-0.0823 0-0.16701-0.04599-0.18637-0.17912 0-0.0097-7e-3 -0.05083-7e-3 -0.213 0-0.14281 7e-3 -0.28804 0.0218-0.43085h0.36307v-0.14523h-0.36065s0.0169-0.19848 0.029-0.26141c2e-3 -0.02421 0.0218-0.03873 0.0121-0.06535z"/>
   </g>
   <path d="m157.14 81.957v-8.7923" fill="none" stroke="#e9e56f" stroke-width=".09813"/>
  </g>
  <g fill="#e9e56f">
   <g transform="scale(1.0015 .99852)" stroke-width=".28222px" aria-label="Checksum">
    <path d="m167.05 79.192c-0.23478 0-0.57365 0.17186-0.57365 0.77698 0 0.58092 0.32434 0.76972 0.57365 0.76972 0.17912 0 0.34613-0.0944 0.44053-0.24931l-0.12344-0.07988c-0.0702 0.11376-0.19122 0.18154-0.3074 0.18154-0.22269 0-0.41875-0.22995-0.41875-0.63901 0-0.39938 0.19122-0.62449 0.40422-0.62449 0.11619 0 0.22753 0.07019 0.28804 0.1767 5e-3 0.0073 0.01 0.01452 0.01 0.02421 0 0.0073-2e-3 0.0121-2e-3 0.01936 0 0.0024 0 0.01452 0.0121 0.02178l0.15976-0.07746c-0.0799-0.18154-0.26142-0.30014-0.46232-0.30014z"/>
    <path d="m167.75 80.712h0.17911v-0.63659c0-0.07261 7e-3 -0.12828 0.0533-0.1888 0.0436-0.05567 0.15007-0.15491 0.26626-0.15491 0.0557 0 0.11134 0.0242 0.15007 0.07019 0.0605 0.07261 0.0605 0.16701 0.0605 0.24447v0.66563h0.17185v-0.67047c0-0.08472-2e-3 -0.1767-0.0411-0.26625-0.0557-0.12344-0.16701-0.19364-0.29287-0.19364-0.15007 0-0.28804 0.09682-0.36792 0.22026v-0.64143c0-0.0073 0-0.01452 7e-3 -0.02178 7e-3 -0.0073 0.017-0.01452 0.017-0.02663 0-0.0024 0-0.0048-2e-3 -0.0073h-0.2009z"/>
    <path d="m169.42 79.582c-0.26383 0-0.5083 0.1888-0.5083 0.5906 0 0.37033 0.22994 0.56639 0.53008 0.56639 0.15976 0 0.30257-0.05809 0.39696-0.17186l-0.0968-0.0944c-0.0702 0.0823-0.17669 0.12586-0.28561 0.12586-0.14765 0-0.36308-0.0823-0.37518-0.4139h0.78424c7e-3 -0.07503 5e-3 -0.14765-7e-3 -0.21058-0.0508-0.29772-0.25657-0.39212-0.43811-0.39212zm-0.33403 0.46958c0.0363-0.26141 0.20332-0.33645 0.32193-0.33645 0.17911 0 0.3074 0.15733 0.28562 0.33645z"/>
    <path d="m171.11 79.79c-0.0871-0.12829-0.23479-0.20574-0.4139-0.20574-0.32435 0-0.55429 0.24447-0.55429 0.57608 0 0.33403 0.22994 0.58092 0.5446 0.58092 0.1525 0 0.30257-0.06293 0.40665-0.1767l-0.0992-0.11618c-0.075 0.08472-0.18396 0.13313-0.29288 0.13313-0.21543 0-0.38002-0.17912-0.38002-0.43811 0-0.25173 0.16217-0.40906 0.36549-0.40906 0.1888 0 0.27836 0.13071 0.28562 0.14523 0.01 0.01694-5e-3 0.04115 0.0145 0.05567z"/>
    <path d="m171.38 79.105v1.6096h0.17428v-0.41874l0.14765-0.13555 0.45021 0.56397s0.0944-0.0097 0.20816-0.0097h0.0169l-0.54219-0.66079 0.46716-0.43811h-0.0629c-0.0436 0-0.0871-0.0024-0.13071-0.01452l-0.55429 0.51556v-0.94883c0-0.0097 2e-3 -0.01694 0.01-0.02904 7e-3 -0.0073 0.0169-0.01694 0.0145-0.03389z"/>
    <path d="m173.47 79.754c-0.10166-0.11134-0.24931-0.17186-0.4139-0.17186-0.25657 0-0.42358 0.14281-0.42358 0.3074 0 0.19364 0.20816 0.26383 0.26867 0.28562 0.0944 0.03389 0.21542 0.06293 0.29772 0.10166 0.092 0.04357 0.10892 0.10166 0.10892 0.14039 0 0.10408-0.12586 0.17428-0.2832 0.17428-0.18879 0-0.30982-0.11376-0.34613-0.15249-7e-3 -0.0097-7e-3 -0.01694-7e-3 -0.02662 0-0.0024 2e-3 -0.01694-0.01-0.02178l-0.10166 0.17185c0.13071 0.12102 0.30014 0.1767 0.46715 0.1767 0.30257 0 0.4599-0.17912 0.4599-0.34613 0-0.07503-0.0315-0.1767-0.16218-0.24931-0.12344-0.07019-0.30256-0.0944-0.40664-0.14523-0.0896-0.04357-0.10892-0.09682-0.10892-0.13555 0-0.08714 0.10892-0.15007 0.23237-0.15007 0.15975 0 0.26625 0.09682 0.3074 0.15249 7e-3 0.0073 5e-3 0.01452 5e-3 0.02178 0 0.01452 0.01 0.01936 0.0145 0.01936z"/>
    <path d="m173.79 79.608v0.61722c0 0.0944 0 0.19122 0.0436 0.29046 0.0629 0.14523 0.19848 0.2251 0.3437 0.2251 0.13797 0 0.26868-0.07503 0.34129-0.19606l-2e-3 0.0823c0 0.02905 0 0.05809 5e-3 0.08472h0.18396c-0.0121-0.03147-0.0145-0.06777-0.0145-0.09924v-1.0045h-0.17428v0.60754c0 0.08472-7e-3 0.15007-0.0436 0.21784-0.0508 0.0944-0.15007 0.16459-0.25657 0.16459-0.0847 0-0.16701-0.04841-0.21058-0.13555-0.0387-0.07746-0.0387-0.16459-0.0387-0.23721v-0.61722z"/>
    <path d="m174.94 80.712h0.15975v-0.73583c0-0.05325 5e-3 -0.10166 0.0363-0.15975 0.0387-0.07262 0.0871-0.10166 0.13312-0.10166 0.0387 0 0.0823 0.0242 0.10166 0.08472 0.0145 0.04599 0.0121 0.09924 0.0121 0.14523v0.76729h0.16217v-0.73099c0-0.05809 5e-3 -0.10408 0.046-0.17428 0.0194-0.02905 0.0605-0.09924 0.12828-0.09924 0.0363 0 0.0702 0.02178 0.0871 0.06293 0.0218 0.04599 0.0169 0.10892 0.0169 0.15975v0.78424h0.1646v-0.78666c0-0.09198 2e-3 -0.18396-0.046-0.25899-0.0411-0.06293-0.11134-0.08714-0.17186-0.08714-0.1065 0-0.20574 0.06293-0.24931 0.15975-0.0169-0.09198-0.0944-0.15975-0.19364-0.15975-0.092 0-0.17669 0.05809-0.22752 0.13555l2e-3 -0.10892h-0.16217z"/>
   </g>
   <g transform="scale(1.0015 .99852)" stroke-width=".28222px" aria-label="Length">
    <path d="m139.48 79.204v1.5104h0.90284v-0.14523h-0.72857v-1.2829c0-0.02178 7e-3 -0.02905 0.0145-0.04357 2e-3 -0.0073 0.01-0.01936 7e-3 -0.03873z"/>
    <path d="m141.16 79.582c-0.26383 0-0.5083 0.1888-0.5083 0.5906 0 0.37033 0.22995 0.56639 0.53009 0.56639 0.15975 0 0.30256-0.05809 0.39696-0.17186l-0.0968-0.0944c-0.0702 0.0823-0.1767 0.12586-0.28562 0.12586-0.14765 0-0.36307-0.0823-0.37517-0.4139h0.78423c7e-3 -0.07503 5e-3 -0.14765-7e-3 -0.21058-0.0508-0.29772-0.25657-0.39212-0.43811-0.39212zm-0.33402 0.46958c0.0363-0.26141 0.20332-0.33645 0.32192-0.33645 0.17912 0 0.3074 0.15733 0.28562 0.33645z"/>
    <path d="m141.91 80.712h0.1767v-0.63659c0-0.07261 0.01-0.12828 0.0557-0.1888 0.0412-0.05567 0.14765-0.15491 0.26383-0.15491 0.0557 0 0.11135 0.0242 0.15007 0.07019 0.0605 0.07261 0.0605 0.16701 0.0605 0.24447v0.66563h0.17185v-0.67047c0-0.08472 0-0.1767-0.0387-0.26625-0.0557-0.12344-0.16943-0.19364-0.2953-0.19364-0.15007 0-0.28561 0.09682-0.36791 0.22026v-0.19364h-0.1767z"/>
    <path d="m143.26 79.952c0-0.13313 0.11134-0.24205 0.24446-0.24205 0.13555 0 0.24447 0.10892 0.24447 0.24205 0 0.13313-0.10892 0.24205-0.24447 0.24205-0.13554 0-0.24446-0.10892-0.24446-0.24205zm0.25415-0.38002c-0.22027 0-0.41149 0.17428-0.41149 0.3897 0 0.12102 0.0605 0.23479 0.16218 0.30014-0.0799 0.06777-0.12587 0.14281-0.12587 0.213 0 0.04599 0.0194 0.11134 0.0896 0.14765-0.1186 0.07503-0.17912 0.15733-0.17912 0.24447 0 0.12102 0.11135 0.26383 0.49862 0.26383 0.37518 0 0.51073-0.19122 0.51073-0.33887 0-0.09682-0.0557-0.19364-0.17186-0.23963-0.11618-0.04841-0.24931-0.03147-0.37517-0.03147-0.0823 0-0.13555-0.0073-0.15734-0.01452-0.0436-0.0121-0.0678-0.03873-0.0678-0.07261 0-0.05809 0.0678-0.11376 0.0799-0.12344 0.0436 0.01694 0.092 0.0242 0.14039 0.0242 0.21784 0 0.39695-0.17428 0.39695-0.3776 0-0.06777-0.0194-0.13313-0.0557-0.1888 0.0581-0.03389 0.12587-0.05325 0.19364-0.05325 0.0218 0 0.0412 0.0024 0.0629 0.0073l-0.0194-0.14281c-0.11134-0.0097-0.22268 0.02663-0.3074 0.09682-0.0702-0.06777-0.16217-0.10408-0.26383-0.10408zm-0.16702 1.082c0.0411 0.0048 0.0992 0.0097 0.18396 0.01452 0.0823 0.0024 0.17185-0.0048 0.23479 0.0048 0.10166 0.01694 0.13312 0.07988 0.13312 0.12829 0 0.04841-0.029 0.1065-0.10408 0.14765-0.0823 0.04357-0.17427 0.04841-0.24931 0.04841-0.0508 0-0.14523-0.0024-0.22752-0.03631-0.0896-0.03631-0.10892-0.09682-0.10892-0.13555 0-0.07988 0.075-0.13797 0.13796-0.17185z"/>
    <path d="m144.62 79.311-0.0218 0.29772h-0.26383l-2e-3 0.14281h0.25899c-0.0145 0.1888-0.0218 0.3776-0.0218 0.56397 0 0.09924 0 0.21058 0.0653 0.30256 0.0533 0.07261 0.13797 0.11618 0.25173 0.11618 0.13071 0 0.25899-0.05567 0.35339-0.12344l-0.0532-0.13797c-0.0944 0.07019-0.18153 0.10166-0.24931 0.10166-0.0823 0-0.16701-0.04599-0.18637-0.17912 0-0.0097-7e-3 -0.05083-7e-3 -0.213 0-0.14281 7e-3 -0.28804 0.0218-0.43085h0.36307v-0.14523h-0.36065s0.0169-0.19848 0.029-0.26141c2e-3 -0.0242 0.0218-0.03873 0.0121-0.06535z"/>
    <path d="m145.54 80.712h0.17912v-0.63659c0-0.07261 7e-3 -0.12828 0.0532-0.1888 0.0436-0.05567 0.15007-0.15491 0.26625-0.15491 0.0557 0 0.11135 0.0242 0.15007 0.07019 0.0605 0.07261 0.0605 0.16701 0.0605 0.24447v0.66563h0.17185v-0.67047c0-0.08472-2e-3 -0.1767-0.0412-0.26625-0.0557-0.12344-0.16701-0.19364-0.29288-0.19364-0.15007 0-0.28803 0.09682-0.36791 0.22026v-0.64143c0-0.0073 0-0.01452 7e-3 -0.02178 7e-3 -0.0073 0.0169-0.01452 0.0169-0.02663 0-0.0024 0-0.0048-2e-3 -0.0073h-0.2009z"/>
   </g>
   <g opacity=".91" aria-label="0">
    <path d="m128.85 64.739c-0.2794 0-0.56727 0.34431-0.56727 0.90593 0 0.57009 0.29069 0.89747 0.57009 0.89747 0.254 0 0.55598-0.27658 0.55598-0.88336 0-0.59831-0.28787-0.92004-0.5588-0.92004zm0.27375 0.40358-0.61807 0.80151c-0.0254-0.09878-0.0395-0.20884-0.0395-0.33302 0-0.45156 0.20603-0.69991 0.381-0.69991 0.096 0 0.20038 0.0762 0.27658 0.23142zm0.0649 0.18627c0.0254 0.09878 0.0367 0.21731 0.0367 0.3556 0 0.49107-0.21167 0.67733-0.36689 0.67733-0.10442 0-0.21166-0.08467-0.28786-0.23989z" fill="#e9e56f" stroke-width=".28222px"/>
   </g>
   <g opacity=".91" aria-label="8">
    <path d="m142.98 64.73c-0.27094 0-0.47696 0.19473-0.47696 0.4318 0 0.17216 0.11007 0.3302 0.26811 0.41204-0.20884 0.09878-0.34995 0.29069-0.34995 0.49389 0 0.26247 0.23142 0.47131 0.5334 0.47131 0.30762 0 0.54186-0.21449 0.54186-0.4826 0-0.20884-0.14111-0.39511-0.33866-0.48824 0.16933-0.08749 0.2794-0.254 0.2794-0.42333 0-0.23142-0.20038-0.41487-0.4572-0.41487zm-0.0593 0.92569c0.22578 0.07056 0.37535 0.22578 0.37535 0.39793 0 0.16933-0.14393 0.30762-0.33302 0.30762-0.19191 0-0.33866-0.14393-0.33866-0.31891 0-0.16651 0.12982-0.31891 0.29633-0.38664zm0.0423-0.762c0.15805 0 0.28222 0.11853 0.28222 0.26529 0 0.13547-0.10442 0.26529-0.24271 0.33867 0 0-0.31044-0.11853-0.31044-0.35278 0-0.13829 0.11853-0.25118 0.27093-0.25118z" fill="#e9e56f" stroke-width=".28222px"/>
   </g>
   <g opacity=".91" stroke-width=".28222px" aria-label="16">
    <path d="m156.35 64.75h-0.12982l-0.45156 0.23424 0.0452 0.11007 0.34996-0.09878v1.3603h-0.32738v0.15522h0.82973v-0.15522h-0.31609z"/>
    <path d="m157.73 64.73c-0.21167 0-0.43744 0.12982-0.54751 0.43744-0.0593 0.16651-0.0734 0.37253-0.0734 0.54187 0 0.20602 0.0198 0.42616 0.13265 0.59549 0.1016 0.15522 0.25964 0.23424 0.41486 0.23424 0.26811 0 0.50236-0.22578 0.50236-0.58984s-0.23425-0.57573-0.4826-0.57573c-0.1524 0-0.29633 0.08184-0.37253 0.21167 0.0113-0.60113 0.29915-0.68016 0.42615-0.68016 0.11571 0 0.19473 0.06209 0.20602 0.07338 0.0169 0.01976 0.0169 0.04516 0.0423 0.06491l0.13546-0.1524c-0.1016-0.1016-0.24271-0.16087-0.38382-0.16087zm-0.0734 0.81844c0.14111 0 0.31045 0.11007 0.31045 0.41204 0 0.27376-0.1524 0.40358-0.30198 0.40358-0.21449 0-0.37536-0.25118-0.35278-0.58138 0.079-0.14393 0.21449-0.23424 0.34431-0.23424z"/>
   </g>
   <g opacity=".91" stroke-width=".28222px" aria-label="24">
    <path d="m170.12 65.024 0.14393 0.11571c0.0169-0.0254 8e-3 -0.04233 0.0254-0.06491 0.0423-0.06491 0.14676-0.16087 0.29916-0.16087 0.18909 0 0.33867 0.14393 0.33867 0.33302 0 0.21449-0.18063 0.36971-0.30763 0.48542-0.20037 0.18062-0.36406 0.36124-0.51082 0.65193v0.12418h1.0329v-0.19473c-0.0198-0.0085-0.0339 0.0056-0.0395 0.01129-0.0113 0.01129-0.0169 0.01129-0.0282 0.01129h-0.73942c0.14675-0.254 0.35278-0.42898 0.47978-0.54751 0.127-0.12136 0.30762-0.30198 0.30762-0.55598 0-0.27376-0.22296-0.49389-0.508-0.49389-0.20038 0-0.38947 0.10724-0.49389 0.28504z"/>
    <path d="m172.2 64.75-0.74789 1.1261v0.14676h0.70837v0.48542h0.2032v-0.4826h0.2286v-0.17498h-0.2286v-1.1007zm-0.0367 0.31327v0.7874h-0.51647z"/>
   </g>
  </g>
 </g>
</svg>
