<svg width="160.34mm" height="71.702mm" version="1.1" viewBox="0 0 160.34 71.702" xmlns="http://www.w3.org/2000/svg">
 <g transform="translate(.79375 -109.2)">
  <path d="m3.4727 109.33-4.1341 3.7042v64.029l4.1341 3.7042h35.388l4.1341-3.7042v-64.029l-4.1341-3.7042z" fill="#1d232d" stroke="#009244" stroke-linecap="round" stroke-width=".26458"/>
  <path d="m21.823 114.15a15.296 15.296 0 0 0-15.291 15.296 15.296 15.296 0 0 0 15.296 15.296 15.296 15.296 0 0 0 15.296-15.296 15.296 15.296 0 0 0-15.296-15.296 15.296 15.296 0 0 0-0.0053 0zm0.0053 6.6688a8.627 8.627 0 0 1 8.6267 8.6269 8.627 8.627 0 0 1-8.6269 8.6269 8.627 8.627 0 0 1-8.6269-8.6269 8.627 8.627 0 0 1 8.6269-8.6269z" fill="#1d232d" stroke="#a6aeb8" stroke-dashoffset="1.2" stroke-linecap="square" stroke-miterlimit="40" stroke-width=".26458"/>
  <g fill="#7b8694">
   <path d="m28.43 136.29a9.5096 9.5096 0 0 1-6.3376 2.6618v4.6292a14.138 14.138 0 0 0 9.6103-4.0184z"/>
   <path d="m15.226 136.29-3.2727 3.2727a14.138 14.138 0 0 0 9.6103 4.0184v-4.6292a9.5096 9.5096 0 0 1-6.3376-2.6618z"/>
   <path d="m7.6915 129.58a14.138 14.138 0 0 0 3.8902 9.6077l3.2737-3.2737a9.5096 9.5096 0 0 1-2.5358-6.334z"/>
   <path d="m11.711 119.57a14.138 14.138 0 0 0-4.0153 9.478h4.6307a9.5096 9.5096 0 0 1 2.6577-6.2048z"/>
   <path d="m31.337 129.58a9.5096 9.5096 0 0 1-2.5358 6.334l3.2737 3.2737a14.138 14.138 0 0 0 3.8907-9.6077z"/>
   <path d="m31.945 119.57-3.2727 3.2727a9.5096 9.5096 0 0 1 2.6572 6.2053h4.6307a14.138 14.138 0 0 0-4.0153-9.478z"/>
   <path d="m22.093 115.31v4.6292a9.5096 9.5096 0 0 1 6.2017 2.5332l3.2737-3.2737a14.138 14.138 0 0 0-9.4754-3.8886z"/>
   <path d="m21.564 115.31a14.138 14.138 0 0 0-9.4754 3.8886l3.2737 3.2737a9.5096 9.5096 0 0 1 6.2017-2.5332z"/>
  </g>
  <g fill="#e8eaec" stroke-linecap="round" stroke-width=".26458" aria-label="Update">
   <path d="m17.224 128.52v1.2986c0 0.1397 0.0032 0.27305 0.0762 0.40958 0.10795 0.2032 0.3302 0.30797 0.56198 0.30797 0.2286 0 0.45085-0.1016 0.56198-0.31115 0.0762-0.13652 0.07938-0.27305 0.07938-0.4191v-1.2859h-0.20955v1.2922c0 0.1016-0.0032 0.20003-0.0508 0.30163-0.07302 0.1524-0.22225 0.23177-0.37782 0.23177s-0.3048-0.0825-0.37465-0.23495c-0.04763-0.0952-0.04763-0.19367-0.04763-0.2921v-1.197c0-0.0127 0-0.0254 0.0127-0.0413 0.0063-0.01 0.01905-0.0254 0.01905-0.0444 0-3e-3 0-0.01-0.0032-0.0159z"/>
   <path d="m18.84 129.05 0.0032 1.978h0.23175v-0.72073c0.09843 0.14288 0.26035 0.23178 0.43498 0.23178 0.29845 0 0.6096-0.25083 0.6096-0.78105 0-0.51118-0.30162-0.73978-0.58738-0.73978-0.18732 0-0.36195 0.0952-0.46038 0.254v-0.22225zm0.60642 0.16193c0.127 0 0.43498 0.0667 0.43498 0.59372 0 0.4572-0.29845 0.53023-0.43498 0.53023s-0.27622-0.0699-0.33338-0.20003c-0.04127-0.0984-0.04127-0.21907-0.04127-0.42862 0-0.12065 0.0064-0.20955 0.0381-0.28575 0.05715-0.13018 0.1905-0.20955 0.33655-0.20955z"/>
   <path d="m21.419 129.26c-0.06985-0.14922-0.22542-0.24765-0.42545-0.24765-0.27622 0-0.61278 0.19685-0.61278 0.7493 0 0.53658 0.29845 0.77153 0.57785 0.77153 0.18415 0 0.3556-0.10478 0.44768-0.2667v0.127c0 0.0349 0.0032 0.0698 0.0127 0.10477h0.2286c-0.0127-0.0413-0.0127-0.0889-0.0127-0.13335l-0.0032-1.886c0-0.019 0-0.0254 0.0127-0.0445 0.0063-0.01 0.01905-0.0254 0.01587-0.0476h-0.2413zm-0.41592-0.0603c0.127 0 0.31432 0.0667 0.37148 0.28257 0.01905 0.0667 0.0254 0.14605 0.0254 0.30798 0 0.11112-0.0064 0.1905-0.03175 0.2667-0.05398 0.17145-0.20638 0.27305-0.3556 0.27305-0.1651 0-0.40958-0.127-0.40958-0.60325 0-0.41593 0.23178-0.52705 0.40005-0.52705z"/>
   <path d="m22.114 129.22 0.11112 0.14605c0.12065-0.12383 0.28258-0.16193 0.4191-0.16193 0.17145 0 0.25718 0.073 0.29845 0.1397 0.04763 0.0794 0.04445 0.17463 0.04445 0.25083v0.0508h-0.04445c-0.2159 0-0.4445 0-0.62865 0.0667-0.2286 0.0825-0.3302 0.254-0.3302 0.41275 0 0.21273 0.18415 0.41275 0.48578 0.41275 0.1778 0 0.36195-0.0667 0.5207-0.19685v0.15875h0.2159v-0.89852c0-0.11748-0.0032-0.2286-0.06985-0.3429-0.09525-0.15558-0.2794-0.23813-0.50482-0.23813-0.19368 0-0.381 0.0603-0.51752 0.20003zm0.88265 0.60007v0.0984c0 0.073 0 0.16827-0.09842 0.27305-0.05398 0.054-0.1905 0.17145-0.381 0.17145-0.19368 0-0.3048-0.12383-0.3048-0.25083 0-0.10795 0.07303-0.22542 0.254-0.26987 0.13335-0.0317 0.32702-0.0222 0.47942-0.0222z"/>
   <path d="m24.013 128.66-0.02858 0.39052h-0.34608l-0.0032 0.18733h0.33972c-0.01905 0.24765-0.02858 0.4953-0.02858 0.73977 0 0.13018 0 0.27623 0.08573 0.39688 0.06985 0.0953 0.18098 0.1524 0.3302 0.1524 0.17145 0 0.33972-0.073 0.46355-0.16193l-0.06985-0.18097c-0.12382 0.0921-0.23812 0.13335-0.32702 0.13335-0.10795 0-0.21908-0.0603-0.24448-0.23495 0-0.0127-0.0095-0.0667-0.0095-0.2794 0-0.18733 0.0095-0.37783 0.02858-0.56515h0.47625v-0.1905h-0.47308s0.02223-0.26035 0.0381-0.3429c0.0032-0.0317 0.02858-0.0508 0.01588-0.0857z"/>
   <path d="m25.822 129.02c-0.34608 0-0.66675 0.24765-0.66675 0.7747 0 0.48577 0.30162 0.74295 0.69532 0.74295 0.20955 0 0.39688-0.0762 0.5207-0.22543l-0.127-0.12382c-0.09208 0.10795-0.23178 0.1651-0.37465 0.1651-0.19368 0-0.47625-0.10795-0.49212-0.54293h1.0287c0.0095-0.0984 0.0064-0.19367-0.0095-0.27622-0.06668-0.39053-0.33655-0.51435-0.57468-0.51435zm-0.43815 0.61595c0.04763-0.3429 0.2667-0.44133 0.42228-0.44133 0.23495 0 0.40322 0.20638 0.37465 0.44133z"/>
  </g>
  <g fill="#47d58a" stroke-linecap="round" stroke-width=".26458" aria-label="PIXI">
   <path d="m4.4294 113.44h0.54822v-0.81862h0.33338c0.51118 0 0.94456-0.25188 0.94456-0.81862 0-0.58526-0.41857-0.77788-0.94456-0.77788h-0.88159zm0.54822-1.252v-0.72972h0.30004c0.28892 0 0.4445 0.0926 0.4445 0.34449 0 0.25188-0.14446 0.38523-0.4445 0.38523z"/>
   <path d="m6.6722 113.44h0.54822v-2.4151h-0.54822z"/>
   <path d="m7.5456 113.44h0.58155l0.22595-0.49265c0.055563-0.12595 0.10742-0.24818 0.16669-0.39635h0.014817c0.062971 0.14817 0.11853 0.2704 0.1815 0.39635l0.23707 0.49265h0.60748l-0.66675-1.215 0.626-1.2002h-0.58155l-0.19262 0.45562c-0.048154 0.11112-0.096308 0.23706-0.15187 0.38893h-0.014817c-0.070379-0.15187-0.12224-0.27781-0.1778-0.38893l-0.20743-0.45562h-0.61119l0.62971 1.1742z"/>
   <path d="m9.8844 113.44h0.54822v-2.4151h-0.54822z"/>
  </g>
  <g fill="#2f3744" stroke-linecap="round" stroke-width=".26458">
   <rect x="18.653" y="151.68" width="5.2917" height="5.2782" stroke="#e8eaec"/>
   <g stroke="#009244">
    <rect x="10.716" y="159.62" width="5.2917" height="5.2782"/>
    <rect x="26.591" y="159.62" width="5.2917" height="5.2782"/>
    <rect x="22.357" y="167.56" width="5.2917" height="5.2782"/>
    <rect x="30.824" y="167.56" width="5.2917" height="5.2782"/>
    <rect x="14.949" y="167.56" width="5.2917" height="5.2782"/>
    <rect x="6.4823" y="167.56" width="5.2917" height="5.2782"/>
   </g>
  </g>
  <g fill="none" stroke="#009244" stroke-linecap="round" stroke-miterlimit="3.8" stroke-width=".26458">
   <path d="m13.097 159.49 8.2021-2.3812 8.2021 2.3812"/>
   <path d="m9.1281 167.42 4.2333-2.3812 4.4979 2.3812"/>
   <path d="m25.003 167.42 4.2333-2.3812 4.4979 2.3812"/>
  </g>
  <g stroke-width=".26458">
   <g fill="#e8eaec" stroke-linecap="round" aria-label="Scene Graph">
    <path d="m13.359 149.28c0.18098 0.18732 0.43498 0.30797 0.72708 0.30797 0.43815 0 0.7112-0.26352 0.7112-0.59372 0-0.30798-0.18732-0.45085-0.42862-0.55563l-0.29845-0.127c-0.16192-0.0699-0.34608-0.14605-0.34608-0.34607 0-0.18733 0.15558-0.3048 0.39052-0.3048 0.1905 0 0.34608 0.0762 0.47308 0.19685l0.1397-0.17145c-0.14605-0.1524-0.36512-0.25718-0.61278-0.25718-0.37782 0-0.65722 0.23495-0.65722 0.55245 0 0.3048 0.2286 0.45403 0.42228 0.53658l0.29845 0.13017c0.19685 0.0889 0.34925 0.15558 0.34925 0.3683 0 0.2032-0.16192 0.33973-0.43498 0.33973-0.21908 0-0.42545-0.10478-0.57468-0.26035z"/>
    <path d="m15.059 148.78c0 0.51118 0.31432 0.80645 0.7239 0.80645 0.18415 0 0.36195-0.0762 0.50165-0.20002l-0.11748-0.17145c-0.09208 0.0825-0.2159 0.15557-0.36195 0.15557-0.28258 0-0.47625-0.23812-0.47625-0.59055 0-0.3556 0.2032-0.5969 0.4826-0.5969 0.12382 0 0.21908 0.0572 0.31115 0.13653l0.13018-0.16828c-0.10478-0.0984-0.24765-0.18415-0.45085-0.18415-0.39688 0-0.74295 0.29528-0.74295 0.8128z"/>
    <path d="m16.435 148.78c0 0.50483 0.32702 0.80645 0.73978 0.80645 0.20955 0 0.37465-0.073 0.508-0.15875l-0.09208-0.17145c-0.1143 0.073-0.23812 0.12065-0.38418 0.12065-0.29528 0-0.4953-0.20955-0.51435-0.54292h1.0414c0.0064-0.0381 0.0095-0.0889 0.0095-0.14288 0-0.44132-0.22225-0.7239-0.61595-0.7239-0.35242 0-0.69215 0.30798-0.69215 0.8128zm0.254-0.11747c0.03175-0.31115 0.2286-0.48895 0.4445-0.48895 0.2413 0 0.381 0.17462 0.381 0.48895z"/>
    <path d="m18.125 149.55h0.26035v-1.1176c0.15558-0.15557 0.26352-0.23812 0.42228-0.23812 0.2032 0 0.2921 0.12382 0.2921 0.41275v0.94297h0.26035v-0.9779c0-0.3937-0.14605-0.60325-0.4699-0.60325-0.21272 0-0.37148 0.1143-0.51752 0.26035h-0.0095l-0.02222-0.22225h-0.2159z"/>
    <path d="m19.747 148.78c0 0.50483 0.32702 0.80645 0.73978 0.80645 0.20955 0 0.37465-0.073 0.508-0.15875l-0.09208-0.17145c-0.1143 0.073-0.23812 0.12065-0.38418 0.12065-0.29528 0-0.4953-0.20955-0.51435-0.54292h1.0414c0.0064-0.0381 0.0095-0.0889 0.0095-0.14288 0-0.44132-0.22225-0.7239-0.61595-0.7239-0.35242 0-0.69215 0.30798-0.69215 0.8128zm0.254-0.11747c0.03175-0.31115 0.2286-0.48895 0.4445-0.48895 0.2413 0 0.381 0.17462 0.381 0.48895z"/>
    <path d="m21.97 148.51c0 0.67945 0.39052 1.0795 0.93662 1.0795 0.2794 0 0.51118-0.10795 0.6477-0.2413v-0.8763h-0.68262v0.21908h0.44132v0.54292c-0.08255 0.0762-0.2286 0.12383-0.37782 0.12383-0.4445 0-0.69215-0.3302-0.69215-0.85408 0-0.51752 0.26988-0.84137 0.69215-0.84137 0.20638 0 0.33655 0.0825 0.44132 0.19367l0.1524-0.16827c-0.12382-0.127-0.31432-0.25718-0.5969-0.25718-0.5588 0-0.96202 0.40958-0.96202 1.0795z"/>
    <path d="m24.016 149.55h0.26035v-0.9906c0.10478-0.26035 0.26035-0.3556 0.39052-0.3556 0.0635 0 0.09842 0.01 0.14922 0.0254l0.0508-0.2286c-0.0508-0.0222-0.09842-0.0318-0.1651-0.0318-0.17462 0-0.33338 0.12383-0.43815 0.3175h-0.0095l-0.02223-0.2794h-0.2159z"/>
    <path d="m24.963 149.15c0 0.27623 0.19368 0.43815 0.45402 0.43815 0.1905 0 0.36195-0.1016 0.51118-0.22225h0.0064l0.02222 0.18415h0.2159v-0.94615c0-0.38417-0.15875-0.635-0.53658-0.635-0.24765 0-0.46355 0.10795-0.60642 0.20003l0.10478 0.18097c0.12065-0.0825 0.2794-0.1651 0.46038-0.1651 0.25082 0 0.3175 0.1905 0.3175 0.38735-0.65722 0.073-0.94932 0.2413-0.94932 0.57785zm0.25718-0.019c0-0.19685 0.17462-0.32385 0.69215-0.38735v0.42863c-0.14922 0.13335-0.27305 0.20637-0.42228 0.20637-0.1524 0-0.26988-0.073-0.26988-0.24765z"/>
    <path d="m26.918 149.41c0.14288 0.11113 0.28575 0.1778 0.42862 0.1778 0.35242 0 0.66675-0.30797 0.66675-0.83185 0-0.47942-0.21272-0.7874-0.6096-0.7874-0.18098 0-0.35242 0.0984-0.49212 0.2159h-0.0095l-0.02223-0.1778h-0.2159v2.1939h0.26035v-0.5207zm0.0064-0.2032v-0.80962c0.1524-0.13653 0.28258-0.20955 0.41275-0.20955 0.2921 0 0.4064 0.2286 0.4064 0.56832 0 0.381-0.18732 0.61278-0.44132 0.61278-0.1016 0-0.23812-0.0444-0.37782-0.16193z"/>
    <path d="m28.425 149.55h0.26035v-1.1176c0.15558-0.15557 0.26352-0.23812 0.42228-0.23812 0.2032 0 0.2921 0.12382 0.2921 0.41275v0.94297h0.26035v-0.9779c0-0.3937-0.14605-0.60325-0.4699-0.60325-0.21272 0-0.3683 0.1143-0.51435 0.254l0.0095-0.3175v-0.61595h-0.26035z"/>
   </g>
   <path d="m61.681 109.33-4.1341 3.7042v64.029l4.1341 3.7042h35.388l4.1341-3.7042v-64.029l-4.1341-3.7042z" fill="#1d232d" stroke="#ff867f" stroke-linecap="round"/>
   <path d="m80.031 114.15a15.296 15.296 0 0 0-15.291 15.296 15.296 15.296 0 0 0 15.296 15.296 15.296 15.296 0 0 0 15.296-15.296 15.296 15.296 0 0 0-15.296-15.296 15.296 15.296 0 0 0-0.0053 0zm0.0053 6.6688a8.627 8.627 0 0 1 8.6267 8.6269 8.627 8.627 0 0 1-8.6269 8.6269 8.627 8.627 0 0 1-8.6269-8.6269 8.627 8.627 0 0 1 8.6269-8.6269z" fill="#1d232d" stroke="#a6aeb8" stroke-dashoffset="1.2" stroke-linecap="square" stroke-miterlimit="40"/>
  </g>
  <g fill="#7b8694">
   <path d="m86.639 136.29a9.5096 9.5096 0 0 1-6.3376 2.6618v4.6292a14.138 14.138 0 0 0 9.6103-4.0184z"/>
   <path d="m73.434 136.29-3.2727 3.2727a14.138 14.138 0 0 0 9.6103 4.0184v-4.6292a9.5096 9.5096 0 0 1-6.3376-2.6618z"/>
   <path d="m65.9 129.58a14.138 14.138 0 0 0 3.8902 9.6077l3.2737-3.2737a9.5096 9.5096 0 0 1-2.5358-6.334z"/>
   <path d="m69.92 119.57a14.138 14.138 0 0 0-4.0153 9.478h4.6307a9.5096 9.5096 0 0 1 2.6577-6.2048z"/>
   <path d="m89.545 129.58a9.5096 9.5096 0 0 1-2.5358 6.334l3.2737 3.2737a14.138 14.138 0 0 0 3.8907-9.6077z"/>
   <path d="m90.153 119.57-3.2727 3.2727a9.5096 9.5096 0 0 1 2.6572 6.2053h4.6307a14.138 14.138 0 0 0-4.0153-9.478z"/>
   <path d="m80.301 115.31v4.6292a9.5096 9.5096 0 0 1 6.2017 2.5332l3.2737-3.2737a14.138 14.138 0 0 0-9.4754-3.8886z"/>
   <path d="m79.772 115.31a14.138 14.138 0 0 0-9.4754 3.8886l3.2737 3.2737a9.5096 9.5096 0 0 1 6.2017-2.5332z"/>
  </g>
  <g stroke-width=".26458">
   <g stroke-linecap="round">
    <g fill="#e8eaec" aria-label="Update">
     <path d="m75.433 128.52v1.2986c0 0.1397 0.0032 0.27305 0.0762 0.40958 0.10795 0.2032 0.3302 0.30797 0.56198 0.30797 0.2286 0 0.45085-0.1016 0.56198-0.31115 0.0762-0.13652 0.07937-0.27305 0.07937-0.4191v-1.2859h-0.20955v1.2922c0 0.1016-0.0032 0.20003-0.0508 0.30163-0.07302 0.1524-0.22225 0.23177-0.37782 0.23177s-0.3048-0.0825-0.37465-0.23495c-0.04763-0.0952-0.04763-0.19367-0.04763-0.2921v-1.197c0-0.0127 0-0.0254 0.0127-0.0413 0.0063-0.01 0.01905-0.0254 0.01905-0.0444 0-3e-3 0-0.01-0.0032-0.0159z"/>
     <path d="m77.049 129.05 0.0032 1.978h0.23178v-0.72073c0.09843 0.14288 0.26035 0.23178 0.43498 0.23178 0.29845 0 0.6096-0.25083 0.6096-0.78105 0-0.51118-0.30162-0.73978-0.58738-0.73978-0.18732 0-0.36195 0.0952-0.46038 0.254v-0.22225zm0.60642 0.16193c0.127 0 0.43498 0.0667 0.43498 0.59372 0 0.4572-0.29845 0.53023-0.43498 0.53023s-0.27622-0.0699-0.33338-0.20003c-0.04127-0.0984-0.04127-0.21907-0.04127-0.42862 0-0.12065 0.0063-0.20955 0.0381-0.28575 0.05715-0.13018 0.1905-0.20955 0.33655-0.20955z"/>
     <path d="m79.627 129.26c-0.06985-0.14922-0.22542-0.24765-0.42545-0.24765-0.27622 0-0.61278 0.19685-0.61278 0.7493 0 0.53658 0.29845 0.77153 0.57785 0.77153 0.18415 0 0.3556-0.10478 0.44768-0.2667v0.127c0 0.0349 0.0032 0.0698 0.0127 0.10477h0.2286c-0.0127-0.0413-0.0127-0.0889-0.0127-0.13335l-0.0032-1.886c0-0.019 0-0.0254 0.0127-0.0445 0.0063-0.01 0.01905-0.0254 0.01587-0.0476h-0.2413zm-0.41592-0.0603c0.127 0 0.31432 0.0667 0.37148 0.28257 0.01905 0.0667 0.0254 0.14605 0.0254 0.30798 0 0.11112-0.0063 0.1905-0.03175 0.2667-0.05397 0.17145-0.20638 0.27305-0.3556 0.27305-0.1651 0-0.40958-0.127-0.40958-0.60325 0-0.41593 0.23178-0.52705 0.40005-0.52705z"/>
     <path d="m80.322 129.22 0.11112 0.14605c0.12065-0.12383 0.28258-0.16193 0.4191-0.16193 0.17145 0 0.25718 0.073 0.29845 0.1397 0.04762 0.0794 0.04445 0.17463 0.04445 0.25083v0.0508h-0.04445c-0.2159 0-0.4445 0-0.62865 0.0667-0.2286 0.0825-0.3302 0.254-0.3302 0.41275 0 0.21273 0.18415 0.41275 0.48578 0.41275 0.1778 0 0.36195-0.0667 0.5207-0.19685v0.15875h0.2159v-0.89852c0-0.11748-0.0032-0.2286-0.06985-0.3429-0.09525-0.15558-0.2794-0.23813-0.50482-0.23813-0.19368 0-0.381 0.0603-0.51752 0.20003zm0.88265 0.60007v0.0984c0 0.073 0 0.16827-0.09843 0.27305-0.05397 0.054-0.1905 0.17145-0.381 0.17145-0.19368 0-0.3048-0.12383-0.3048-0.25083 0-0.10795 0.07303-0.22542 0.254-0.26987 0.13335-0.0317 0.32702-0.0222 0.47942-0.0222z"/>
     <path d="m82.221 128.66-0.02858 0.39052h-0.34608l-0.0032 0.18733h0.33972c-0.01905 0.24765-0.02858 0.4953-0.02858 0.73977 0 0.13018 0 0.27623 0.08572 0.39688 0.06985 0.0953 0.18098 0.1524 0.3302 0.1524 0.17145 0 0.33972-0.073 0.46355-0.16193l-0.06985-0.18097c-0.12382 0.0921-0.23812 0.13335-0.32702 0.13335-0.10795 0-0.21908-0.0603-0.24448-0.23495 0-0.0127-0.0095-0.0667-0.0095-0.2794 0-0.18733 0.0095-0.37783 0.02858-0.56515h0.47625v-0.1905h-0.47308s0.02222-0.26035 0.0381-0.3429c0.0032-0.0317 0.02857-0.0508 0.01587-0.0857z"/>
     <path d="m84.031 129.02c-0.34608 0-0.66675 0.24765-0.66675 0.7747 0 0.48577 0.30162 0.74295 0.69532 0.74295 0.20955 0 0.39688-0.0762 0.5207-0.22543l-0.127-0.12382c-0.09207 0.10795-0.23178 0.1651-0.37465 0.1651-0.19368 0-0.47625-0.10795-0.49212-0.54293h1.0287c0.0095-0.0984 0.0064-0.19367-0.0095-0.27622-0.06668-0.39053-0.33655-0.51435-0.57468-0.51435zm-0.43815 0.61595c0.04762-0.3429 0.2667-0.44133 0.42228-0.44133 0.23495 0 0.40322 0.20638 0.37465 0.44133z"/>
    </g>
    <g fill="#47d58a" aria-label="ECS">
     <path d="m62.638 113.44h1.552v-0.45932h-1.0038v-0.55562h0.82232v-0.45561h-0.82232v-0.48525h0.96679v-0.45932h-1.515z"/>
     <path d="m64.549 112.24c0 0.81121 0.51118 1.2372 1.1372 1.2372 0.30004 0 0.56674-0.12224 0.76676-0.3556l-0.30004-0.32967c-0.11853 0.12964-0.25929 0.21484-0.45932 0.21484-0.3519 0-0.58526-0.28892-0.58526-0.78528 0-0.48525 0.263-0.77788 0.60008-0.77788 0.17039 0 0.28522 0.0704 0.40746 0.18151l0.30004-0.33708c-0.16298-0.16669-0.41487-0.31486-0.7149-0.31486-0.6223 0-1.152 0.46673-1.152 1.2668z"/>
     <path d="m66.555 113.13c0.24818 0.22966 0.58155 0.34819 0.89641 0.34819 0.57414 0 0.90752-0.34819 0.90752-0.74824 0-0.34079-0.18521-0.53711-0.47784-0.65564l-0.30745-0.12594c-0.21114-0.0852-0.37042-0.13706-0.37042-0.28522 0-0.13706 0.12224-0.21855 0.30745-0.21855 0.19262 0 0.34449 0.0704 0.50377 0.19262l0.27411-0.34449c-0.20743-0.20743-0.50006-0.31856-0.77788-0.31856-0.50006 0-0.85937 0.31856-0.85937 0.71861 0 0.3519 0.23707 0.55933 0.48895 0.65934l0.31115 0.13335c0.21114 0.0889 0.34819 0.13706 0.34819 0.28893 0 0.14446-0.11112 0.23336-0.33708 0.23336-0.20002 0-0.42228-0.10372-0.59267-0.25188z"/>
    </g>
    <rect x="76.861" y="151.68" width="5.2917" height="5.2782" fill="#2f3744" stroke="#ff867f"/>
    <path d="m119.89 109.33-4.1341 3.7042v64.029l4.1341 3.7042h35.388l4.1341-3.7042v-64.029l-4.1341-3.7042z" fill="#1d232d" stroke="#e9e56f"/>
   </g>
   <path d="m138.24 114.15a15.296 15.296 0 0 0-15.291 15.296 15.296 15.296 0 0 0 15.296 15.296 15.296 15.296 0 0 0 15.296-15.296 15.296 15.296 0 0 0-15.296-15.296 15.296 15.296 0 0 0-5e-3 0zm5e-3 6.6688a8.627 8.627 0 0 1 8.6267 8.6269 8.627 8.627 0 0 1-8.6269 8.6269 8.627 8.627 0 0 1-8.6269-8.6269 8.627 8.627 0 0 1 8.6269-8.6269z" fill="#1d232d" stroke="#a6aeb8" stroke-dashoffset="1.2" stroke-linecap="square" stroke-miterlimit="40"/>
  </g>
  <g fill="#7b8694">
   <path d="m144.85 136.29a9.5096 9.5096 0 0 1-6.3376 2.6618v4.6292a14.138 14.138 0 0 0 9.6103-4.0184z"/>
   <path d="m131.64 136.29-3.2727 3.2727a14.138 14.138 0 0 0 9.6103 4.0184v-4.6292a9.5096 9.5096 0 0 1-6.3376-2.6618z"/>
   <path d="m124.11 129.58a14.138 14.138 0 0 0 3.8902 9.6077l3.2737-3.2737a9.5096 9.5096 0 0 1-2.5358-6.334z"/>
   <path d="m128.13 119.57a14.138 14.138 0 0 0-4.0153 9.478h4.6307a9.5096 9.5096 0 0 1 2.6577-6.2048z"/>
   <path d="m147.75 129.58a9.5096 9.5096 0 0 1-2.5358 6.334l3.2737 3.2737a14.138 14.138 0 0 0 3.8907-9.6077z"/>
   <path d="m148.36 119.57-3.2727 3.2727a9.5096 9.5096 0 0 1 2.6572 6.2053h4.6307a14.138 14.138 0 0 0-4.0153-9.478z"/>
   <path d="m138.51 115.31v4.6292a9.5096 9.5096 0 0 1 6.2017 2.5332l3.2737-3.2737a14.138 14.138 0 0 0-9.4754-3.8886z"/>
   <path d="m137.98 115.31a14.138 14.138 0 0 0-9.4754 3.8886l3.2737 3.2737a9.5096 9.5096 0 0 1 6.2017-2.5332z"/>
  </g>
  <g fill="#e8eaec" stroke-linecap="round" stroke-width=".26458" aria-label="Update">
   <path d="m133.64 128.52v1.2986c0 0.1397 3e-3 0.27305 0.0762 0.40958 0.10795 0.2032 0.3302 0.30797 0.56197 0.30797 0.2286 0 0.45085-0.1016 0.56198-0.31115 0.0762-0.13652 0.0794-0.27305 0.0794-0.4191v-1.2859h-0.20955v1.2922c0 0.1016-3e-3 0.20003-0.0508 0.30163-0.073 0.1524-0.22225 0.23177-0.37782 0.23177-0.15558 0-0.3048-0.0825-0.37465-0.23495-0.0476-0.0952-0.0476-0.19367-0.0476-0.2921v-1.197c0-0.0127 0-0.0254 0.0127-0.0413 6e-3 -0.01 0.0191-0.0254 0.0191-0.0444 0-3e-3 0-0.01-3e-3 -0.0159z"/>
   <path d="m135.26 129.05 3e-3 1.978h0.23177v-0.72073c0.0984 0.14288 0.26035 0.23178 0.43498 0.23178 0.29845 0 0.6096-0.25083 0.6096-0.78105 0-0.51118-0.30163-0.73978-0.58738-0.73978-0.18732 0-0.36195 0.0952-0.46037 0.254v-0.22225zm0.60643 0.16193c0.127 0 0.43497 0.0667 0.43497 0.59372 0 0.4572-0.29845 0.53023-0.43497 0.53023-0.13653 0-0.27623-0.0699-0.33338-0.20003-0.0413-0.0984-0.0413-0.21907-0.0413-0.42862 0-0.12065 6e-3 -0.20955 0.0381-0.28575 0.0572-0.13018 0.1905-0.20955 0.33655-0.20955z"/>
   <path d="m137.84 129.26c-0.0699-0.14922-0.22542-0.24765-0.42545-0.24765-0.27622 0-0.61277 0.19685-0.61277 0.7493 0 0.53658 0.29845 0.77153 0.57785 0.77153 0.18415 0 0.3556-0.10478 0.44767-0.2667v0.127c0 0.0349 3e-3 0.0698 0.0127 0.10477h0.2286c-0.0127-0.0413-0.0127-0.0889-0.0127-0.13335l-3e-3 -1.886c0-0.019 0-0.0254 0.0127-0.0445 6e-3 -0.01 0.019-0.0254 0.0159-0.0476h-0.2413zm-0.41592-0.0603c0.127 0 0.31432 0.0667 0.37147 0.28257 0.019 0.0667 0.0254 0.14605 0.0254 0.30798 0 0.11112-6e-3 0.1905-0.0317 0.2667-0.054 0.17145-0.20637 0.27305-0.3556 0.27305-0.1651 0-0.40957-0.127-0.40957-0.60325 0-0.41593 0.23177-0.52705 0.40005-0.52705z"/>
   <path d="m138.53 129.22 0.11112 0.14605c0.12065-0.12383 0.28258-0.16193 0.4191-0.16193 0.17145 0 0.25718 0.073 0.29845 0.1397 0.0476 0.0794 0.0445 0.17463 0.0445 0.25083v0.0508h-0.0445c-0.2159 0-0.4445 0-0.62865 0.0667-0.2286 0.0825-0.3302 0.254-0.3302 0.41275 0 0.21273 0.18415 0.41275 0.48578 0.41275 0.1778 0 0.36195-0.0667 0.5207-0.19685v0.15875h0.2159v-0.89852c0-0.11748-3e-3 -0.2286-0.0699-0.3429-0.0952-0.15558-0.2794-0.23813-0.50483-0.23813-0.19367 0-0.381 0.0603-0.51752 0.20003zm0.88265 0.60007v0.0984c0 0.073 0 0.16827-0.0984 0.27305-0.054 0.054-0.1905 0.17145-0.381 0.17145-0.19367 0-0.3048-0.12383-0.3048-0.25083 0-0.10795 0.073-0.22542 0.254-0.26987 0.13335-0.0317 0.32703-0.0222 0.47943-0.0222z"/>
   <path d="m140.43 128.66-0.0286 0.39052h-0.34607l-3e-3 0.18733h0.33973c-0.019 0.24765-0.0286 0.4953-0.0286 0.73977 0 0.13018 0 0.27623 0.0857 0.39688 0.0699 0.0953 0.18097 0.1524 0.3302 0.1524 0.17145 0 0.33972-0.073 0.46355-0.16193l-0.0699-0.18097c-0.12383 0.0921-0.23813 0.13335-0.32703 0.13335-0.10795 0-0.21907-0.0603-0.24447-0.23495 0-0.0127-0.01-0.0667-0.01-0.2794 0-0.18733 0.01-0.37783 0.0286-0.56515h0.47625v-0.1905h-0.47308s0.0222-0.26035 0.0381-0.3429c3e-3 -0.0317 0.0286-0.0508 0.0159-0.0857z"/>
   <path d="m142.24 129.02c-0.34608 0-0.66675 0.24765-0.66675 0.7747 0 0.48577 0.30162 0.74295 0.69532 0.74295 0.20955 0 0.39688-0.0762 0.5207-0.22543l-0.127-0.12382c-0.0921 0.10795-0.23177 0.1651-0.37465 0.1651-0.19367 0-0.47625-0.10795-0.49212-0.54293h1.0287c0.01-0.0984 6e-3 -0.19367-0.01-0.27622-0.0667-0.39053-0.33655-0.51435-0.57467-0.51435zm-0.43815 0.61595c0.0476-0.3429 0.2667-0.44133 0.42227-0.44133 0.23495 0 0.40323 0.20638 0.37465 0.44133z"/>
  </g>
  <g fill="#47d58a" stroke-linecap="round" stroke-width=".26458" aria-label="MATTERJS">
   <path d="m120.85 113.44h0.50377v-0.8853c0-0.23706-0.0444-0.58896-0.0704-0.82232h0.0148l0.19262 0.55933 0.37041 0.93715h0.21855l0.37412-0.93715 0.19632-0.55933h0.0148c-0.0259 0.23336-0.0704 0.58526-0.0704 0.82232v0.8853h0.51117v-2.4151h-0.57785l-0.39264 1.0853-0.14446 0.42228h-0.0148l-0.14446-0.42228-0.40376-1.0853h-0.57785z"/>
   <path d="m124.18 112.44 0.0593-0.22225c0.0667-0.24077 0.13335-0.52228 0.18892-0.77787h0.0148c0.0667 0.25188 0.12965 0.5371 0.19632 0.77787l0.0593 0.22225zm0.77787 1.0001h0.57785l-0.75935-2.4151h-0.65193l-0.75936 2.4151h0.55563l0.14816-0.57415h0.74084z"/>
   <path d="m126.11 113.44h0.54451v-1.9558h0.66305v-0.45932h-1.8743v0.45932h0.66675z"/>
   <path d="m128.16 113.44h0.54452v-1.9558h0.66304v-0.45932h-1.8743v0.45932h0.66675z"/>
   <path d="m129.74 113.44h1.552v-0.45932h-1.0038v-0.55562h0.82233v-0.45561h-0.82233v-0.48525h0.96679v-0.45932h-1.515z"/>
   <path d="m132.32 111.45h0.27781c0.28522 0 0.4408 0.0815 0.4408 0.31856 0 0.23707-0.15558 0.3593-0.4408 0.3593h-0.27781zm1.3705 1.9817-0.54451-0.96679c0.25559-0.11483 0.42968-0.34078 0.42968-0.69638 0-0.57415-0.42227-0.75195-0.93345-0.75195h-0.87048v2.4151h0.54822v-0.87048h0.29633l0.46302 0.87048z"/>
   <path d="m133.78 113.04c0.16669 0.29263 0.41116 0.43709 0.78158 0.43709 0.5334 0 0.77417-0.38153 0.77417-0.84825v-1.6113h-0.54822v1.5669c0 0.32226-0.10371 0.42227-0.30003 0.42227-0.12224 0-0.24448-0.0778-0.33708-0.24077z"/>
   <path d="m135.73 113.13c0.24818 0.22966 0.58156 0.34819 0.89641 0.34819 0.57415 0 0.90752-0.34819 0.90752-0.74824 0-0.34079-0.18521-0.53711-0.47784-0.65564l-0.30744-0.12594c-0.21114-0.0852-0.37042-0.13706-0.37042-0.28522 0-0.13706 0.12224-0.21855 0.30745-0.21855 0.19261 0 0.34448 0.0704 0.50376 0.19262l0.27411-0.34449c-0.20743-0.20743-0.50006-0.31856-0.77787-0.31856-0.50007 0-0.85937 0.31856-0.85937 0.71861 0 0.3519 0.23707 0.55933 0.48895 0.65934l0.31115 0.13335c0.21114 0.0889 0.34819 0.13706 0.34819 0.28893 0 0.14446-0.11112 0.23336-0.33708 0.23336-0.20002 0-0.42227-0.10372-0.59266-0.25188z"/>
  </g>
  <g fill="#2f3744" stroke="#ff867f" stroke-linecap="round" stroke-width=".26458">
   <rect x="68.924" y="151.68" width="5.2917" height="5.2782"/>
   <rect x="84.799" y="151.68" width="5.2917" height="5.2782"/>
   <rect x="84.799" y="164.91" width="5.2917" height="5.2782"/>
   <rect x="76.861" y="164.91" width="5.2917" height="5.2782"/>
   <rect x="68.924" y="164.91" width="5.2917" height="5.2782"/>
  </g>
  <g fill="#e8eaec" stroke-linecap="round" stroke-width=".26458" aria-label="MatterBody">
   <path d="m72.281 149.55h0.24448v-1.1462c0-0.18415-0.01905-0.4318-0.03175-0.61595h0.0127l0.1651 0.46355 0.40005 1.089h0.1524l0.40005-1.089 0.1651-0.46355h0.0127c-0.0127 0.18415-0.03493 0.4318-0.03493 0.61595v1.1462h0.25082v-2.0828h-0.31115l-0.40005 1.1176-0.14605 0.42545h-0.0127l-0.14922-0.42545-0.40322-1.1176h-0.31432z"/>
   <path d="m74.483 149.15c0 0.27623 0.19368 0.43815 0.45402 0.43815 0.1905 0 0.36195-0.1016 0.51118-0.22225h0.0063l0.02223 0.18415h0.2159v-0.94615c0-0.38417-0.15875-0.635-0.53658-0.635-0.24765 0-0.46355 0.10795-0.60642 0.20003l0.10478 0.18097c0.12065-0.0825 0.2794-0.1651 0.46038-0.1651 0.25082 0 0.3175 0.1905 0.3175 0.38735-0.65722 0.073-0.94932 0.2413-0.94932 0.57785zm0.25718-0.019c0-0.19685 0.17462-0.32385 0.69215-0.38735v0.42863c-0.14922 0.13335-0.27305 0.20637-0.42228 0.20637-0.1524 0-0.26988-0.073-0.26988-0.24765z"/>
   <path d="m76.229 149.08c0 0.3048 0.11112 0.51435 0.44132 0.51435 0.09525 0 0.20002-0.0286 0.28575-0.0572l-0.0508-0.19685c-0.0508 0.019-0.12065 0.0413-0.17462 0.0413-0.1778 0-0.23812-0.10795-0.23812-0.29845v-0.85725h0.41592v-0.21273h-0.41592v-0.4318h-0.21908l-0.03175 0.4318-0.2413 0.0159v0.19685h0.2286z"/>
   <path d="m77.302 149.08c0 0.3048 0.11112 0.51435 0.44132 0.51435 0.09525 0 0.20002-0.0286 0.28575-0.0572l-0.0508-0.19685c-0.0508 0.019-0.12065 0.0413-0.17462 0.0413-0.1778 0-0.23812-0.10795-0.23812-0.29845v-0.85725h0.41592v-0.21273h-0.41592v-0.4318h-0.21908l-0.03175 0.4318-0.2413 0.0159v0.19685h0.2286z"/>
   <path d="m78.185 148.78c0 0.50483 0.32702 0.80645 0.73978 0.80645 0.20955 0 0.37465-0.073 0.508-0.15875l-0.09208-0.17145c-0.1143 0.073-0.23812 0.12065-0.38418 0.12065-0.29528 0-0.4953-0.20955-0.51435-0.54292h1.0414c0.0063-0.0381 0.0095-0.0889 0.0095-0.14288 0-0.44132-0.22225-0.7239-0.61595-0.7239-0.35242 0-0.69215 0.30798-0.69215 0.8128zm0.254-0.11747c0.03175-0.31115 0.2286-0.48895 0.4445-0.48895 0.2413 0 0.381 0.17462 0.381 0.48895z"/>
   <path d="m79.874 149.55h0.26035v-0.9906c0.10478-0.26035 0.26035-0.3556 0.39052-0.3556 0.0635 0 0.09842 0.01 0.14922 0.0254l0.0508-0.2286c-0.0508-0.0222-0.09842-0.0318-0.1651-0.0318-0.17462 0-0.33338 0.12383-0.43815 0.3175h-0.0095l-0.02222-0.2794h-0.2159z"/>
   <path d="m80.994 149.55h0.66675c0.46355 0 0.7874-0.20002 0.7874-0.6096 0-0.28575-0.1778-0.45085-0.4826-0.49847v-0.0127c0.24765-0.0635 0.36512-0.24765 0.36512-0.45403 0-0.36512-0.29528-0.508-0.71755-0.508h-0.61912zm0.2667-1.1938v-0.67945h0.32068c0.32068 0 0.48895 0.0952 0.48895 0.32068 0 0.23177-0.14922 0.35877-0.50165 0.35877zm0 0.98425v-0.7874h0.36195c0.36512 0 0.56515 0.11748 0.56515 0.37465 0 0.28258-0.20955 0.41275-0.56515 0.41275z"/>
   <path d="m82.718 148.78c0 0.51118 0.33655 0.80645 0.71438 0.80645s0.71438-0.29527 0.71438-0.80645c0-0.51752-0.33655-0.8128-0.71438-0.8128s-0.71438 0.29528-0.71438 0.8128zm0.26988 0c0-0.3556 0.18098-0.5969 0.4445-0.5969 0.2667 0 0.4445 0.2413 0.4445 0.5969 0 0.35243-0.1778 0.59055-0.4445 0.59055-0.26352 0-0.4445-0.23812-0.4445-0.59055z"/>
   <path d="m84.445 148.78c0 0.51435 0.25082 0.80645 0.63818 0.80645 0.18098 0 0.34608-0.1016 0.46672-0.21907h0.0095l0.02222 0.18097h0.2159v-2.2606h-0.26352v0.59373l0.0127 0.26352c-0.13652-0.11112-0.254-0.1778-0.4318-0.1778-0.35242 0-0.66992 0.31115-0.66992 0.8128zm0.26988-3e-3c0-0.35243 0.19685-0.59055 0.4445-0.59055 0.127 0 0.24448 0.0444 0.37465 0.16192v0.80645c-0.127 0.14288-0.25082 0.21273-0.3937 0.21273-0.26988 0-0.42545-0.22225-0.42545-0.59055z"/>
   <path d="m86.212 149.98-0.0508 0.20638c0.0508 0.019 0.11112 0.0317 0.18098 0.0317 0.31115 0 0.4699-0.23178 0.57785-0.53658l0.58102-1.67h-0.254l-0.27622 0.85408c-0.04127 0.13652-0.08572 0.29527-0.13018 0.43497h-0.0127c-0.04763-0.14287-0.1016-0.30162-0.14922-0.43497l-0.31432-0.85408h-0.26988l0.61912 1.5462-0.03493 0.1143c-0.0635 0.1905-0.17462 0.3302-0.34925 0.3302-0.0381 0-0.08573-0.0127-0.11748-0.0222z"/>
  </g>
  <g fill="#e8eaec" stroke-linecap="round" stroke-width=".26458" aria-label="MatterConstraint">
   <path d="m68.74 162.78h0.24448v-1.1462c0-0.18415-0.01905-0.4318-0.03175-0.61595h0.0127l0.1651 0.46355 0.40005 1.089h0.1524l0.40005-1.089 0.1651-0.46355h0.0127c-0.0127 0.18415-0.03493 0.4318-0.03493 0.61595v1.1462h0.25082v-2.0828h-0.31115l-0.40005 1.1176-0.14605 0.42545h-0.0127l-0.14922-0.42545-0.40322-1.1176h-0.31432z"/>
   <path d="m70.943 162.38c0 0.27623 0.19368 0.43815 0.45402 0.43815 0.1905 0 0.36195-0.1016 0.51118-0.22225h0.0063l0.02223 0.18415h0.2159v-0.94615c0-0.38417-0.15875-0.635-0.53658-0.635-0.24765 0-0.46355 0.10795-0.60642 0.20003l0.10478 0.18097c0.12065-0.0825 0.2794-0.1651 0.46038-0.1651 0.25082 0 0.3175 0.1905 0.3175 0.38735-0.65722 0.073-0.94932 0.2413-0.94932 0.57785zm0.25718-0.019c0-0.19685 0.17462-0.32385 0.69215-0.38735v0.42863c-0.14922 0.13335-0.27305 0.20637-0.42228 0.20637-0.1524 0-0.26988-0.073-0.26988-0.24765z"/>
   <path d="m72.688 162.3c0 0.3048 0.11112 0.51435 0.44132 0.51435 0.09525 0 0.20002-0.0286 0.28575-0.0572l-0.0508-0.19685c-0.0508 0.019-0.12065 0.0413-0.17462 0.0413-0.1778 0-0.23812-0.10795-0.23812-0.29845v-0.85725h0.41592v-0.21273h-0.41592v-0.4318h-0.21908l-0.03175 0.4318-0.2413 0.0159v0.19685h0.2286z"/>
   <path d="m73.761 162.3c0 0.3048 0.11112 0.51435 0.44132 0.51435 0.09525 0 0.20002-0.0286 0.28575-0.0572l-0.0508-0.19685c-0.0508 0.019-0.12065 0.0413-0.17462 0.0413-0.1778 0-0.23812-0.10795-0.23812-0.29845v-0.85725h0.41592v-0.21273h-0.41592v-0.4318h-0.21908l-0.03175 0.4318-0.2413 0.0159v0.19685h0.2286z"/>
   <path d="m74.644 162.01c0 0.50483 0.32702 0.80645 0.73978 0.80645 0.20955 0 0.37465-0.073 0.508-0.15875l-0.09208-0.17145c-0.1143 0.073-0.23812 0.12065-0.38418 0.12065-0.29528 0-0.4953-0.20955-0.51435-0.54292h1.0414c0.0063-0.0381 0.0095-0.0889 0.0095-0.14288 0-0.44132-0.22225-0.7239-0.61595-0.7239-0.35242 0-0.69215 0.30798-0.69215 0.8128zm0.254-0.11747c0.03175-0.31115 0.2286-0.48895 0.4445-0.48895 0.2413 0 0.381 0.17462 0.381 0.48895z"/>
   <path d="m76.333 162.78h0.26035v-0.9906c0.10478-0.26035 0.26035-0.3556 0.39052-0.3556 0.0635 0 0.09843 0.01 0.14922 0.0254l0.0508-0.2286c-0.0508-0.0222-0.09842-0.0317-0.1651-0.0317-0.17462 0-0.33338 0.12383-0.43815 0.3175h-0.0095l-0.02222-0.2794h-0.2159z"/>
   <path d="m77.332 161.74c0 0.67945 0.39052 1.0795 0.9144 1.0795 0.26352 0 0.4699-0.11112 0.63182-0.30162l-0.14922-0.16193c-0.13335 0.14923-0.2794 0.23178-0.47625 0.23178-0.39688 0-0.6477-0.3302-0.6477-0.85408 0-0.51752 0.26352-0.84137 0.6604-0.84137 0.17145 0 0.3048 0.0762 0.41592 0.19367l0.14922-0.16827c-0.12382-0.13653-0.32068-0.25718-0.56832-0.25718-0.5334 0-0.93028 0.40958-0.93028 1.0795z"/>
   <path d="m79.121 162.01c0 0.51118 0.33655 0.80645 0.71438 0.80645s0.71438-0.29527 0.71438-0.80645c0-0.51752-0.33655-0.8128-0.71438-0.8128s-0.71438 0.29528-0.71438 0.8128zm0.26988 0c0-0.3556 0.18098-0.5969 0.4445-0.5969 0.2667 0 0.4445 0.2413 0.4445 0.5969 0 0.35243-0.1778 0.59055-0.4445 0.59055-0.26352 0-0.4445-0.23812-0.4445-0.59055z"/>
   <path d="m80.959 162.78h0.26035v-1.1176c0.15558-0.15557 0.26352-0.23812 0.42228-0.23812 0.2032 0 0.2921 0.12382 0.2921 0.41275v0.94297h0.26035v-0.9779c0-0.3937-0.14605-0.60325-0.4699-0.60325-0.21272 0-0.37148 0.1143-0.51752 0.26035h-0.0095l-0.02222-0.22225h-0.2159z"/>
   <path d="m82.524 162.61c0.14605 0.12065 0.3556 0.21272 0.57468 0.21272 0.36512 0 0.56515-0.20955 0.56515-0.46037 0-0.2921-0.24765-0.38418-0.4699-0.46673-0.17462-0.0667-0.3429-0.12382-0.3429-0.2667 0-0.11747 0.0889-0.22225 0.28258-0.22225 0.13652 0 0.24765 0.0571 0.35242 0.13653l0.12382-0.1651c-0.11748-0.0953-0.28575-0.17463-0.47942-0.17463-0.33338 0-0.53022 0.1905-0.53022 0.43815 0 0.26035 0.2413 0.36513 0.46038 0.4445 0.16828 0.0635 0.35242 0.13335 0.35242 0.2921 0 0.13335-0.1016 0.2413-0.3048 0.2413-0.18415 0-0.32068-0.0762-0.45402-0.18415z"/>
   <path d="m84.073 162.3c0 0.3048 0.11112 0.51435 0.44132 0.51435 0.09525 0 0.20002-0.0286 0.28575-0.0572l-0.0508-0.19685c-0.0508 0.019-0.12065 0.0413-0.17462 0.0413-0.1778 0-0.23812-0.10795-0.23812-0.29845v-0.85725h0.41592v-0.21273h-0.41592v-0.4318h-0.21908l-0.03175 0.4318-0.2413 0.0159v0.19685h0.2286z"/>
   <path d="m85.102 162.78h0.26035v-0.9906c0.10478-0.26035 0.26035-0.3556 0.39052-0.3556 0.0635 0 0.09843 0.01 0.14922 0.0254l0.0508-0.2286c-0.0508-0.0222-0.09842-0.0317-0.1651-0.0317-0.17462 0-0.33338 0.12383-0.43815 0.3175h-0.0095l-0.02222-0.2794h-0.2159z"/>
   <path d="m86.049 162.38c0 0.27623 0.19368 0.43815 0.45402 0.43815 0.1905 0 0.36195-0.1016 0.51118-0.22225h0.0063l0.02223 0.18415h0.2159v-0.94615c0-0.38417-0.15875-0.635-0.53658-0.635-0.24765 0-0.46355 0.10795-0.60642 0.20003l0.10478 0.18097c0.12065-0.0825 0.2794-0.1651 0.46038-0.1651 0.25082 0 0.3175 0.1905 0.3175 0.38735-0.65722 0.073-0.94932 0.2413-0.94932 0.57785zm0.25718-0.019c0-0.19685 0.17462-0.32385 0.69215-0.38735v0.42863c-0.14922 0.13335-0.27305 0.20637-0.42228 0.20637-0.1524 0-0.26988-0.073-0.26988-0.24765z"/>
   <path d="m87.883 160.92c0.1016 0 0.18098-0.0699 0.18098-0.16827 0-0.1016-0.07937-0.16828-0.18098-0.16828-0.1016 0-0.18098 0.0667-0.18098 0.16828 0 0.0984 0.07937 0.16827 0.18098 0.16827zm-0.13335 1.8606h0.26035v-1.543h-0.26035z"/>
   <path d="m88.531 162.78h0.26035v-1.1176c0.15558-0.15557 0.26352-0.23812 0.42228-0.23812 0.2032 0 0.2921 0.12382 0.2921 0.41275v0.94297h0.26035v-0.9779c0-0.3937-0.14605-0.60325-0.4699-0.60325-0.21272 0-0.37148 0.1143-0.51752 0.26035h-0.0095l-0.02222-0.22225h-0.2159z"/>
   <path d="m90.312 162.3c0 0.3048 0.11112 0.51435 0.44132 0.51435 0.09525 0 0.20002-0.0286 0.28575-0.0572l-0.0508-0.19685c-0.0508 0.019-0.12065 0.0413-0.17462 0.0413-0.1778 0-0.23812-0.10795-0.23812-0.29845v-0.85725h0.41592v-0.21273h-0.41592v-0.4318h-0.21908l-0.03175 0.4318-0.2413 0.0159v0.19685h0.2286z"/>
  </g>
  <g fill="#2f3744" stroke="#e9e56f" stroke-linecap="round" stroke-width=".26458">
   <rect x="135.07" y="151.68" width="5.2917" height="5.2782"/>
   <rect x="127.13" y="151.68" width="5.2917" height="5.2782"/>
   <rect x="143.01" y="151.68" width="5.2917" height="5.2782"/>
   <rect x="143.01" y="164.91" width="5.2917" height="5.2782"/>
   <rect x="135.07" y="164.91" width="5.2917" height="5.2782"/>
   <rect x="127.13" y="164.91" width="5.2917" height="5.2782"/>
  </g>
  <g stroke-width=".26458">
   <g fill="#e8eaec" stroke-linecap="round" aria-label="Bodies">
    <path d="m133.74 149.55h0.66675c0.46355 0 0.7874-0.20002 0.7874-0.6096 0-0.28575-0.1778-0.45085-0.4826-0.49847v-0.0127c0.24765-0.0635 0.36513-0.24765 0.36513-0.45403 0-0.36512-0.29528-0.508-0.71755-0.508h-0.61913zm0.2667-1.1938v-0.67945h0.32068c0.32067 0 0.48895 0.0952 0.48895 0.32068 0 0.23177-0.14923 0.35877-0.50165 0.35877zm0 0.98425v-0.7874h0.36195c0.36513 0 0.56515 0.11748 0.56515 0.37465 0 0.28258-0.20955 0.41275-0.56515 0.41275z"/>
    <path d="m135.47 148.78c0 0.51118 0.33655 0.80645 0.71437 0.80645 0.37783 0 0.71438-0.29527 0.71438-0.80645 0-0.51752-0.33655-0.8128-0.71438-0.8128-0.37782 0-0.71437 0.29528-0.71437 0.8128zm0.26987 0c0-0.3556 0.18098-0.5969 0.4445-0.5969 0.2667 0 0.4445 0.2413 0.4445 0.5969 0 0.35243-0.1778 0.59055-0.4445 0.59055-0.26352 0-0.4445-0.23812-0.4445-0.59055z"/>
    <path d="m137.19 148.78c0 0.51435 0.25082 0.80645 0.63817 0.80645 0.18098 0 0.34608-0.1016 0.46673-0.21907h0.01l0.0222 0.18097h0.2159v-2.2606h-0.26353v0.59373l0.0127 0.26352c-0.13652-0.11112-0.254-0.1778-0.4318-0.1778-0.35242 0-0.66992 0.31115-0.66992 0.8128zm0.26987-3e-3c0-0.35243 0.19685-0.59055 0.4445-0.59055 0.127 0 0.24448 0.0444 0.37465 0.16192v0.80645c-0.127 0.14288-0.25082 0.21273-0.3937 0.21273-0.26987 0-0.42545-0.22225-0.42545-0.59055z"/>
    <path d="m139.2 147.69c0.1016 0 0.18097-0.0699 0.18097-0.16827 0-0.1016-0.0794-0.16828-0.18097-0.16828-0.1016 0-0.18098 0.0667-0.18098 0.16828 0 0.0984 0.0794 0.16827 0.18098 0.16827zm-0.13335 1.8606h0.26035v-1.543h-0.26035z"/>
    <path d="m139.73 148.78c0 0.50483 0.32703 0.80645 0.73978 0.80645 0.20955 0 0.37465-0.073 0.508-0.15875l-0.0921-0.17145c-0.1143 0.073-0.23812 0.12065-0.38417 0.12065-0.29528 0-0.4953-0.20955-0.51435-0.54292h1.0414c6e-3 -0.0381 0.01-0.0889 0.01-0.14288 0-0.44132-0.22225-0.7239-0.61595-0.7239-0.35242 0-0.69215 0.30798-0.69215 0.8128zm0.254-0.11747c0.0318-0.31115 0.2286-0.48895 0.4445-0.48895 0.2413 0 0.381 0.17462 0.381 0.48895z"/>
    <path d="m141.25 149.38c0.14605 0.12065 0.3556 0.21272 0.57468 0.21272 0.36512 0 0.56515-0.20955 0.56515-0.46037 0-0.2921-0.24765-0.38418-0.4699-0.46673-0.17463-0.0667-0.3429-0.12382-0.3429-0.2667 0-0.11747 0.0889-0.22225 0.28257-0.22225 0.13653 0 0.24765 0.0572 0.35243 0.13653l0.12382-0.1651c-0.11747-0.0952-0.28575-0.17463-0.47942-0.17463-0.33338 0-0.53023 0.1905-0.53023 0.43815 0 0.26035 0.2413 0.36513 0.46038 0.4445 0.16827 0.0635 0.35242 0.13335 0.35242 0.2921 0 0.13335-0.1016 0.2413-0.3048 0.2413-0.18415 0-0.32067-0.0762-0.45402-0.18415z"/>
   </g>
   <g fill="#e8eaec" stroke-linecap="round" aria-label="Constraints">
    <path d="m130.52 161.74c0 0.67945 0.39053 1.0795 0.9144 1.0795 0.26353 0 0.4699-0.11112 0.63183-0.30162l-0.14923-0.16193c-0.13335 0.14923-0.2794 0.23178-0.47625 0.23178-0.39687 0-0.6477-0.3302-0.6477-0.85408 0-0.51752 0.26353-0.84137 0.6604-0.84137 0.17145 0 0.3048 0.0762 0.41593 0.19367l0.14922-0.16827c-0.12382-0.13653-0.32067-0.25718-0.56832-0.25718-0.5334 0-0.93028 0.40958-0.93028 1.0795z"/>
    <path d="m132.31 162.01c0 0.51118 0.33655 0.80645 0.71437 0.80645 0.37783 0 0.71438-0.29527 0.71438-0.80645 0-0.51752-0.33655-0.8128-0.71438-0.8128-0.37782 0-0.71437 0.29528-0.71437 0.8128zm0.26987 0c0-0.3556 0.18098-0.5969 0.4445-0.5969 0.2667 0 0.4445 0.2413 0.4445 0.5969 0 0.35243-0.1778 0.59055-0.4445 0.59055-0.26352 0-0.4445-0.23812-0.4445-0.59055z"/>
    <path d="m134.14 162.78h0.26035v-1.1176c0.15557-0.15557 0.26352-0.23812 0.42227-0.23812 0.2032 0 0.2921 0.12382 0.2921 0.41275v0.94297h0.26035v-0.9779c0-0.3937-0.14605-0.60325-0.4699-0.60325-0.21272 0-0.37147 0.1143-0.51752 0.26035h-0.01l-0.0222-0.22225h-0.2159z"/>
    <path d="m135.71 162.61c0.14605 0.12065 0.3556 0.21272 0.57468 0.21272 0.36512 0 0.56515-0.20955 0.56515-0.46037 0-0.2921-0.24765-0.38418-0.4699-0.46673-0.17463-0.0667-0.3429-0.12382-0.3429-0.2667 0-0.11747 0.0889-0.22225 0.28257-0.22225 0.13653 0 0.24765 0.0571 0.35243 0.13653l0.12382-0.1651c-0.11747-0.0953-0.28575-0.17463-0.47942-0.17463-0.33338 0-0.53023 0.1905-0.53023 0.43815 0 0.26035 0.2413 0.36513 0.46038 0.4445 0.16827 0.0635 0.35242 0.13335 0.35242 0.2921 0 0.13335-0.1016 0.2413-0.3048 0.2413-0.18415 0-0.32067-0.0762-0.45402-0.18415z"/>
    <path d="m137.26 162.3c0 0.3048 0.11112 0.51435 0.44132 0.51435 0.0952 0 0.20003-0.0286 0.28575-0.0572l-0.0508-0.19685c-0.0508 0.019-0.12065 0.0413-0.17462 0.0413-0.1778 0-0.23813-0.10795-0.23813-0.29845v-0.85725h0.41593v-0.21273h-0.41593v-0.4318h-0.21907l-0.0317 0.4318-0.2413 0.0159v0.19685h0.2286z"/>
    <path d="m138.29 162.78h0.26035v-0.9906c0.10477-0.26035 0.26035-0.3556 0.39052-0.3556 0.0635 0 0.0984 0.01 0.14923 0.0254l0.0508-0.2286c-0.0508-0.0222-0.0984-0.0317-0.1651-0.0317-0.17463 0-0.33338 0.12383-0.43815 0.3175h-0.01l-0.0222-0.2794h-0.2159z"/>
    <path d="m139.23 162.38c0 0.27623 0.19368 0.43815 0.45403 0.43815 0.1905 0 0.36195-0.1016 0.51117-0.22225h6e-3l0.0222 0.18415h0.2159v-0.94615c0-0.38417-0.15875-0.635-0.53658-0.635-0.24765 0-0.46355 0.10795-0.60642 0.20003l0.10477 0.18097c0.12065-0.0825 0.2794-0.1651 0.46038-0.1651 0.25082 0 0.3175 0.1905 0.3175 0.38735-0.65723 0.073-0.94933 0.2413-0.94933 0.57785zm0.25718-0.019c0-0.19685 0.17462-0.32385 0.69215-0.38735v0.42863c-0.14923 0.13335-0.27305 0.20637-0.42228 0.20637-0.1524 0-0.26987-0.073-0.26987-0.24765z"/>
    <path d="m141.07 160.92c0.1016 0 0.18097-0.0699 0.18097-0.16827 0-0.1016-0.0794-0.16828-0.18097-0.16828-0.1016 0-0.18098 0.0667-0.18098 0.16828 0 0.0984 0.0794 0.16827 0.18098 0.16827zm-0.13335 1.8606h0.26035v-1.543h-0.26035z"/>
    <path d="m141.72 162.78h0.26035v-1.1176c0.15557-0.15557 0.26352-0.23812 0.42227-0.23812 0.2032 0 0.2921 0.12382 0.2921 0.41275v0.94297h0.26035v-0.9779c0-0.3937-0.14605-0.60325-0.4699-0.60325-0.21272 0-0.37147 0.1143-0.51752 0.26035h-0.01l-0.0222-0.22225h-0.2159z"/>
    <path d="m143.5 162.3c0 0.3048 0.11113 0.51435 0.44133 0.51435 0.0952 0 0.20002-0.0286 0.28575-0.0572l-0.0508-0.19685c-0.0508 0.019-0.12065 0.0413-0.17463 0.0413-0.1778 0-0.23812-0.10795-0.23812-0.29845v-0.85725h0.41592v-0.21273h-0.41592v-0.4318h-0.21908l-0.0317 0.4318-0.2413 0.0159v0.19685h0.2286z"/>
    <path d="m144.35 162.61c0.14605 0.12065 0.3556 0.21272 0.57467 0.21272 0.36513 0 0.56515-0.20955 0.56515-0.46037 0-0.2921-0.24765-0.38418-0.4699-0.46673-0.17462-0.0667-0.3429-0.12382-0.3429-0.2667 0-0.11747 0.0889-0.22225 0.28258-0.22225 0.13652 0 0.24765 0.0571 0.35242 0.13653l0.12383-0.1651c-0.11748-0.0953-0.28575-0.17463-0.47943-0.17463-0.33337 0-0.53022 0.1905-0.53022 0.43815 0 0.26035 0.2413 0.36513 0.46037 0.4445 0.16828 0.0635 0.35243 0.13335 0.35243 0.2921 0 0.13335-0.1016 0.2413-0.3048 0.2413-0.18415 0-0.32068-0.0762-0.45403-0.18415z"/>
   </g>
   <path d="m102.65 142.94h11.642" fill="none" stroke="#47d58a" stroke-linecap="square"/>
  </g>
  <g>
   <g fill="#e8eaec" stroke-linecap="round" stroke-width=".26458" aria-label="sync">
    <path d="m106.54 140.89c-0.13335-0.14605-0.32702-0.22543-0.54292-0.22543-0.33655 0-0.55563 0.18733-0.55563 0.40323 0 0.254 0.27305 0.34607 0.35243 0.37465 0.12382 0.0445 0.28257 0.0825 0.39052 0.13335 0.12065 0.0571 0.14288 0.13335 0.14288 0.18415 0 0.13652-0.1651 0.2286-0.37148 0.2286-0.24765 0-0.4064-0.14923-0.45402-0.20003-0.01-0.0127-0.01-0.0222-0.01-0.0349 0-3e-3 3e-3 -0.0222-0.0127-0.0286l-0.13335 0.22543c0.17145 0.15875 0.3937 0.23177 0.61278 0.23177 0.39687 0 0.60325-0.23495 0.60325-0.45402 0-0.0984-0.0413-0.23178-0.21273-0.32703-0.16192-0.0921-0.39687-0.12382-0.5334-0.1905-0.11747-0.0571-0.14287-0.127-0.14287-0.1778 0-0.1143 0.14287-0.19685 0.3048-0.19685 0.20955 0 0.34925 0.127 0.40322 0.20003 0.01 0.01 6e-3 0.019 6e-3 0.0286 0 0.019 0.0127 0.0254 0.0191 0.0254z"/>
    <path d="m106.9 140.7 0.59055 1.4446-0.0476 0.10478c-0.0254 0.0603-0.054 0.12065-0.0984 0.16827-0.0603 0.0667-0.13653 0.0953-0.2032 0.0953-0.10795 0-0.16193-0.073-0.17145-0.0857-0.01-0.0159-6e-3 -0.0381-0.0254-0.054l-0.11748 0.20638c0.0825 0.0794 0.19368 0.12065 0.31433 0.12065 0.13017 0 0.2667-0.0476 0.36195-0.15558 0.0635-0.073 0.0953-0.14922 0.127-0.23177l0.45085-1.197c0.054-0.13652 0.1016-0.27622 0.14605-0.4191h-0.23813c-0.0254 0.13335-0.0667 0.26035-0.11112 0.38735l-0.27623 0.77788-0.42545-1.07c-3e-3 -0.01-3e-3 -0.0159-3e-3 -0.0254 0-0.0222 0.0159-0.0381 0.0127-0.0667z"/>
    <path d="m108.56 142.14h0.23178v-0.83503c0-0.0952 0.0127-0.16827 0.073-0.24765 0.054-0.073 0.19368-0.2032 0.34608-0.2032 0.073 0 0.14605 0.0317 0.19685 0.0921 0.0794 0.0952 0.0794 0.21907 0.0794 0.32067v0.87313h0.22543v-0.87948c0-0.11112 0-0.23177-0.0508-0.34925-0.073-0.16192-0.22225-0.254-0.38735-0.254-0.19685 0-0.37465 0.127-0.4826 0.28893v-0.254h-0.23178z"/>
    <path d="m111.38 140.93c-0.1143-0.16827-0.30797-0.26987-0.54292-0.26987-0.42545 0-0.72708 0.32067-0.72708 0.75565 0 0.43815 0.30163 0.762 0.71438 0.762 0.20002 0 0.39687-0.0825 0.5334-0.23178l-0.13018-0.1524c-0.0984 0.11113-0.2413 0.17463-0.38417 0.17463-0.28258 0-0.49848-0.23495-0.49848-0.57468 0-0.3302 0.21273-0.53657 0.47943-0.53657 0.24765 0 0.36512 0.17145 0.37465 0.1905 0.0127 0.0222-6e-3 0.054 0.0191 0.073z"/>
   </g>
   <g transform="matrix(.0042365 0 0 .0043091 113.53 141.75)" fill="#47d58a" stroke-width="123.85">
    <g fill="#47d58a" stroke-width="123.85">
     <path d="m486.41 221.41-364.07-208.5c-52.938-30.318-95.852-5.44-95.852 55.563v415.65c0 61.004 42.914 85.882 95.852 55.563l364.07-208.49c52.938-30.317 52.938-79.473 0-109.79z" fill="#47d58a" stroke-width="123.85"/>
    </g>
   </g>
   <g transform="matrix(-.0042365 0 0 .0043091 103.43 141.75)" fill="#47d58a" stroke-width="123.85">
    <g fill="#47d58a" stroke-width="123.85">
     <path d="m486.41 221.41-364.07-208.5c-52.938-30.318-95.852-5.44-95.852 55.563v415.65c0 61.004 42.914 85.882 95.852 55.563l364.07-208.49c52.938-30.317 52.938-79.473 0-109.79z" fill="#47d58a" stroke-width="123.85"/>
    </g>
   </g>
  </g>
  <path d="m44.447 142.94h11.642" fill="none" stroke="#47d58a" stroke-linecap="square" stroke-width=".26458"/>
  <g>
   <g fill="#e8eaec" stroke-linecap="round" stroke-width=".26458" aria-label="sync">
    <path d="m48.335 140.89c-0.13335-0.14605-0.32702-0.22543-0.54292-0.22543-0.33655 0-0.55562 0.18733-0.55562 0.40323 0 0.254 0.27305 0.34607 0.35242 0.37465 0.12382 0.0445 0.28258 0.0825 0.39052 0.13335 0.12065 0.0571 0.14288 0.13335 0.14288 0.18415 0 0.13652-0.1651 0.2286-0.37148 0.2286-0.24765 0-0.4064-0.14923-0.45402-0.20003-0.0095-0.0127-0.0095-0.0222-0.0095-0.0349 0-3e-3 0.0032-0.0222-0.0127-0.0286l-0.13335 0.22543c0.17145 0.15875 0.3937 0.23177 0.61278 0.23177 0.39688 0 0.60325-0.23495 0.60325-0.45402 0-0.0984-0.04128-0.23178-0.21272-0.32703-0.16192-0.0921-0.39688-0.12382-0.5334-0.1905-0.11748-0.0571-0.14288-0.127-0.14288-0.1778 0-0.1143 0.14288-0.19685 0.3048-0.19685 0.20955 0 0.34925 0.127 0.40322 0.20003 0.0095 0.01 0.0063 0.019 0.0063 0.0286 0 0.019 0.0127 0.0254 0.01905 0.0254z"/>
    <path d="m48.694 140.7 0.59055 1.4446-0.04762 0.10478c-0.0254 0.0603-0.05398 0.12065-0.09843 0.16827-0.06032 0.0667-0.13652 0.0953-0.2032 0.0953-0.10795 0-0.16192-0.073-0.17145-0.0857-0.0095-0.0159-0.0064-0.0381-0.0254-0.054l-0.11748 0.20638c0.08255 0.0794 0.19368 0.12065 0.31432 0.12065 0.13018 0 0.2667-0.0476 0.36195-0.15558 0.0635-0.073 0.09525-0.14922 0.127-0.23177l0.45085-1.197c0.05398-0.13652 0.1016-0.27622 0.14605-0.4191h-0.23812c-0.0254 0.13335-0.06667 0.26035-0.11112 0.38735l-0.27622 0.77788-0.42545-1.07c-0.0032-0.01-0.0032-0.0159-0.0032-0.0254 0-0.0222 0.01588-0.0381 0.0127-0.0667z"/>
    <path d="m50.354 142.14h0.23178v-0.83503c0-0.0952 0.0127-0.16827 0.07303-0.24765 0.05398-0.073 0.19368-0.2032 0.34608-0.2032 0.07303 0 0.14605 0.0317 0.19685 0.0921 0.07937 0.0952 0.07937 0.21907 0.07937 0.32067v0.87313h0.22542v-0.87948c0-0.11112 0-0.23177-0.0508-0.34925-0.07303-0.16192-0.22225-0.254-0.38735-0.254-0.19685 0-0.37465 0.127-0.4826 0.28893v-0.254h-0.23178z"/>
    <path d="m53.174 140.93c-0.1143-0.16827-0.30798-0.26987-0.54292-0.26987-0.42545 0-0.72708 0.32067-0.72708 0.75565 0 0.43815 0.30162 0.762 0.71438 0.762 0.20002 0 0.39688-0.0825 0.5334-0.23178l-0.13018-0.1524c-0.09842 0.11113-0.2413 0.17463-0.38418 0.17463-0.28258 0-0.49848-0.23495-0.49848-0.57468 0-0.3302 0.21272-0.53657 0.47942-0.53657 0.24765 0 0.36512 0.17145 0.37465 0.1905 0.0127 0.0222-0.0063 0.054 0.01905 0.073z"/>
   </g>
   <g transform="matrix(.0042365 0 0 .0043091 55.317 141.75)" fill="#47d58a" stroke-width="123.85">
    <g fill="#47d58a" stroke-width="123.85">
     <path d="m486.41 221.41-364.07-208.5c-52.938-30.318-95.852-5.44-95.852 55.563v415.65c0 61.004 42.914 85.882 95.852 55.563l364.07-208.49c52.938-30.317 52.938-79.473 0-109.79z" fill="#47d58a" stroke-width="123.85"/>
    </g>
   </g>
   <g transform="matrix(-.0042365 0 0 .0043091 45.223 141.75)" fill="#47d58a" stroke-width="123.85">
    <g fill="#47d58a" stroke-width="123.85">
     <path d="m486.41 221.41-364.07-208.5c-52.938-30.318-95.852-5.44-95.852 55.563v415.65c0 61.004 42.914 85.882 95.852 55.563l364.07-208.49c52.938-30.317 52.938-79.473 0-109.79z" fill="#47d58a" stroke-width="123.85"/>
    </g>
   </g>
  </g>
 </g>
</svg>
