<svg width="8.3441mm" height="8.357mm" version="1.1" viewBox="0 0 8.3441 8.3571" xmlns="http://www.w3.org/2000/svg">
 <g transform="translate(26.346 -54.8)">
  <g fill="#e9e56f" aria-label="IF action">
   <path d="m-22.119 55.892c0.19064-0.0098 1.6497-0.04626 1.6464 0.08914-0.0052 0.20977-1.528 0.12578-1.9072 0.14993-0.64006 0.04075-1.0467 0.30589-1.3248 0.86398-0.18178 0.3648-0.19654 0.47466-0.19654 1.4653v1.0712h0.76098l0.02678 0.73075c0.02388 0.64824 0.04836 0.75392 0.21639 0.93265 0.11051 0.11755 0.31275 0.22128 0.48507 0.24884 0.28789 0.04604 0.29545 0.05562 0.29545 0.37357 0 0.17947-0.02627 0.35277-0.05827 0.38522-0.03199 0.03244-0.06908-0.0839-0.08221-0.2586-0.02097-0.27914-0.04696-0.3175-0.2145-0.3175-0.1088 0-0.31495-0.11412-0.48034-0.26553-0.28458-0.26052-0.29043-0.27752-0.32852-0.95029l-0.03874-0.68539-0.36884-0.02362-0.36853-0.02362v-1.1887c0-1.2491 0.05012-1.4978 0.3868-1.9258 0.26986-0.34302 0.77692-0.59529 1.3075-0.65074 0.09974-0.01041 0.17962-0.01755 0.24317-0.02077zm1.7868 0.22456c0.15491 0.0044 0.0778 3.6607 0.0778 4.6176 0 0.95693-0.02874 1.5128-0.0778 1.5128-0.04907 0-0.07748-0.55591-0.07748-1.5128 0-0.95693-0.12583-4.6234 0.07748-4.6176z" fill="#e9e56f" stroke-width=".28222"/>
  </g>
 </g>
</svg>
