<svg width="50.005mm" height="35.159mm" version="1.1" viewBox="0 0 50.005 35.159" xmlns="http://www.w3.org/2000/svg">
 <g transform="translate(52.576 -32.111)">
  <g fill="#e9e56f" aria-label="IF action">
   <g fill="#e9e56f" stroke-width=".28222px">
    <g transform="scale(1.0015 .99852)" aria-label="Health">
     <path d="m-44.67 39.983h-0.15575v-0.60632h-0.68791v0.60632h-0.15575v-1.3295h0.15575v0.58314h0.68791v-0.58314h0.15575z"/>
     <path d="m-43.577 39.547h-0.67029q0.0037 0.15853 0.08529 0.24475 0.08158 0.08622 0.22436 0.08622 0.16039 0 0.29482-0.10569v0.14277q-0.12516 0.09086-0.33097 0.09086-0.20118 0-0.31614-0.12887-0.11496-0.12979-0.11496-0.36435 0-0.22158 0.12516-0.36064 0.12608-0.13999 0.31243-0.13999t0.28833 0.12052q0.10198 0.12052 0.10198 0.33468zm-0.15575-0.12887q-9.27e-4 -0.13165-0.06397-0.20489-0.06212-0.07324-0.17337-0.07324-0.10754 0-0.18264 0.07695-0.07509 0.07695-0.09271 0.20118z"/>
     <path d="m-42.667 39.983h-0.15204v-0.14834h-0.0037q-0.0992 0.17059-0.29204 0.17059-0.14185 0-0.2225-0.07509-0.07973-0.07509-0.07973-0.19933 0-0.26608 0.31336-0.30965l0.28462-0.03986q0-0.24197-0.19562-0.24197-0.17151 0-0.30965 0.11681v-0.15575q0.13999-0.089 0.32263-0.089 0.33468 0 0.33468 0.35415zm-0.15204-0.48024-0.22899 0.03152q-0.10569 0.01483-0.15946 0.05284-0.05377 0.03708-0.05377 0.13258 0 0.06953 0.04914 0.11403 0.05006 0.04357 0.13258 0.04357 0.11311 0 0.18635-0.0788 0.07417-0.07973 0.07417-0.20118z"/>
     <path d="m-42.226 39.983h-0.15204v-1.4055h0.15204z"/>
     <path d="m-41.478 39.974q-0.05377 0.02967-0.14185 0.02967-0.24939 0-0.24939-0.27813v-0.56182h-0.16317v-0.12979h0.16317v-0.23178l0.15204-0.04914v0.28091h0.23919v0.12979h-0.23919v0.53494q0 0.09549 0.03245 0.13628 0.03245 0.04079 0.10754 0.04079 0.05748 0 0.0992-0.03152z"/>
     <path d="m-40.485 39.983h-0.15204v-0.54699q0-0.29667-0.22065-0.29667-0.11125 0-0.18727 0.08622-0.07602 0.08529-0.07602 0.21972v0.53772h-0.15204v-1.4055h0.15204v0.61374h0.0037q0.1094-0.17986 0.3115-0.17986 0.32078 0 0.32078 0.3866z"/>
    </g>
    <g transform="scale(1.0015 .99852)" aria-label="Armor">
     <path d="m-44.563 45.636h-0.17244l-0.14092-0.37269h-0.56368l-0.13258 0.37269h-0.17337l0.5099-1.3295h0.16132zm-0.36435-0.51268-0.2086-0.56646q-0.0102-0.02781-0.0204-0.089h-0.0037q-0.0093 0.05655-0.02132 0.089l-0.20674 0.56646z"/>
     <path d="m-43.893 44.841q-0.03986-0.03059-0.11496-0.03059-0.09735 0-0.16317 0.09178-0.0649 0.09178-0.0649 0.25032v0.48394h-0.15204v-0.94935h0.15204v0.19562h0.0037q0.03245-0.10013 0.0992-0.15575 0.06675-0.05655 0.14926-0.05655 0.05933 0 0.09086 0.01298z"/>
     <path d="m-42.38 45.636h-0.15204v-0.54513q0-0.15761-0.04914-0.22807-0.04821-0.07046-0.16317-0.07046-0.09735 0-0.16595 0.089-0.06768 0.089-0.06768 0.21323v0.54142h-0.15204v-0.56368q0-0.27998-0.21601-0.27998-0.10013 0-0.16502 0.08436-0.0649 0.08344-0.0649 0.21787v0.54142h-0.15204v-0.94935h0.15204v0.15019h0.0037q0.10105-0.17244 0.29482-0.17244 0.09735 0 0.16966 0.0547 0.07231 0.05377 0.0992 0.14185 0.10569-0.19654 0.31521-0.19654 0.31336 0 0.31336 0.3866z"/>
     <path d="m-41.696 45.658q-0.21045 0-0.33654-0.13258-0.12516-0.1335-0.12516-0.35322 0-0.23919 0.13072-0.37362t0.35322-0.13443q0.2123 0 0.33097 0.13072 0.1196 0.13072 0.1196 0.3625 0 0.22714-0.12887 0.36435-0.12794 0.13628-0.34395 0.13628zm0.01112-0.86591q-0.14648 0-0.23178 0.10013-0.08529 0.0992-0.08529 0.27442 0 0.16873 0.08622 0.26608 0.08622 0.09735 0.23085 0.09735 0.14741 0 0.22621-0.09549 0.07973-0.09549 0.07973-0.27164 0-0.178-0.07973-0.27442-0.0788-0.09642-0.22621-0.09642z"/>
     <path d="m-40.485 44.841q-0.03986-0.03059-0.11496-0.03059-0.09734 0-0.16317 0.09178-0.0649 0.09178-0.0649 0.25032v0.48394h-0.15204v-0.94935h0.15204v0.19562h0.0037q0.03245-0.10013 0.0992-0.15575 0.06675-0.05655 0.14926-0.05655 0.05933 0 0.09086 0.01298z"/>
    </g>
    <g transform="scale(1.0015 .99852)" aria-label="Proximity">
     <path d="m-47.974 50.786v0.50249h-0.15575v-1.3295h0.36528q0.21323 0 0.33005 0.10384 0.11774 0.10384 0.11774 0.29296t-0.13072 0.30965q-0.12979 0.12052-0.35137 0.12052zm0-0.68605v0.54513h0.16317q0.16132 0 0.24568-0.07324 0.08529-0.07417 0.08529-0.2086 0-0.2633-0.3115-0.2633z"/>
     <path d="m-46.59 50.493q-0.03986-0.0306-0.11496-0.0306-0.09734 0-0.16317 0.09178-0.0649 0.09178-0.0649 0.25032v0.48394h-0.15204v-0.94935h0.15204v0.19562h0.0037q0.03245-0.10013 0.0992-0.15575 0.06675-0.05655 0.14926-0.05655 0.05933 0 0.09086 0.01298z"/>
     <path d="m-46.028 51.311q-0.21045 0-0.33654-0.13258-0.12516-0.1335-0.12516-0.35322 0-0.23919 0.13072-0.37362 0.13072-0.13443 0.35322-0.13443 0.21231 0 0.33097 0.13072 0.1196 0.13072 0.1196 0.3625 0 0.22714-0.12887 0.36435-0.12794 0.13628-0.34395 0.13628zm0.01112-0.86591q-0.14648 0-0.23177 0.10013-0.08529 0.0992-0.08529 0.27442 0 0.16873 0.08622 0.26608 0.08622 0.09735 0.23085 0.09735 0.14741 0 0.22621-0.09549 0.07973-0.09549 0.07973-0.27164 0-0.178-0.07973-0.27442-0.0788-0.09642-0.22621-0.09642z"/>
     <path d="m-44.619 50.34-0.31892 0.48024 0.31336 0.46911h-0.17708l-0.18635-0.3078q-0.01761-0.02874-0.04172-0.07231h-0.0037q-0.0046 0.0083-0.04357 0.07231l-0.19006 0.3078h-0.17522l0.32356-0.4654-0.30965-0.48394h0.17708l0.18356 0.32448q0.0204 0.03616 0.03987 0.07417h0.0037l0.23734-0.39865z"/>
     <path d="m-44.363 50.099q-0.04079 0-0.06953-0.02781t-0.02874-0.07046 0.02874-0.07046q0.02874-0.02874 0.06953-0.02874 0.04172 0 0.07046 0.02874 0.02967 0.02781 0.02967 0.07046 0 0.04079-0.02967 0.06953-0.02874 0.02874-0.07046 0.02874zm0.07417 1.1904h-0.15204v-0.94935h0.15204z"/>
     <path d="m-42.633 51.289h-0.15204v-0.54513q0-0.15761-0.04914-0.22807-0.04821-0.07046-0.16317-0.07046-0.09735 0-0.16595 0.089-0.06768 0.089-0.06768 0.21323v0.54142h-0.15204v-0.56368q0-0.27998-0.21601-0.27998-0.10013 0-0.16502 0.08436-0.0649 0.08344-0.0649 0.21787v0.54142h-0.15204v-0.94935h0.15204v0.15019h0.0037q0.10105-0.17244 0.29482-0.17244 0.09734 0 0.16966 0.0547 0.07231 0.05377 0.0992 0.14185 0.10569-0.19654 0.31521-0.19654 0.31336 0 0.31336 0.3866z"/>
     <path d="m-42.268 50.099q-0.04079 0-0.06953-0.02781t-0.02874-0.07046 0.02874-0.07046q0.02874-0.02874 0.06953-0.02874 0.04172 0 0.07046 0.02874 0.02967 0.02781 0.02967 0.07046 0 0.04079-0.02967 0.06953-0.02874 0.02874-0.07046 0.02874zm0.07417 1.1904h-0.15204v-0.94935h0.15204z"/>
     <path d="m-41.446 51.28q-0.05377 0.02967-0.14185 0.02967-0.24939 0-0.24939-0.27813v-0.56182h-0.16317v-0.12979h0.16317v-0.23177l0.15204-0.04914v0.28091h0.23919v0.12979h-0.23919v0.53494q0 0.09549 0.03245 0.13628 0.03245 0.04079 0.10754 0.04079 0.05748 0 0.0992-0.03152z"/>
     <path d="m-40.485 50.34-0.43666 1.1014q-0.11681 0.29482-0.32819 0.29482-0.05933 0-0.0992-0.01205v-0.13628q0.04914 0.01669 0.08993 0.01669 0.11496 0 0.17244-0.13721l0.07602-0.17986-0.37084-0.94749h0.16873l0.25681 0.73055q0.0046 0.01391 0.01947 0.07231h0.0056q0.0046-0.02225 0.01854-0.07046l0.26978-0.73241z"/>
    </g>
    <g transform="scale(1.0015 .99852)" aria-label="Enemy type">
     <path d="m-49.309 56.942h-0.70459v-1.3295h0.67493v0.14092h-0.51918v0.44223h0.48024v0.13999h-0.48024v0.4654h0.54884z"/>
     <path d="m-48.285 56.942h-0.15204v-0.54142q0-0.30223-0.22065-0.30223-0.11403 0-0.18913 0.08622-0.07417 0.08529-0.07417 0.21601v0.54142h-0.15204v-0.94935h0.15204v0.15761h0.0037q0.10754-0.17986 0.3115-0.17986 0.15575 0 0.23826 0.10105 0.08251 0.10013 0.08251 0.29018z"/>
     <path d="m-47.235 56.505h-0.67029q0.0037 0.15853 0.08529 0.24475 0.08158 0.08622 0.22436 0.08622 0.16039 0 0.29482-0.10569v0.14277q-0.12516 0.09086-0.33097 0.09086-0.20118 0-0.31614-0.12887-0.11496-0.12979-0.11496-0.36435 0-0.22158 0.12516-0.36064 0.12608-0.13999 0.31243-0.13999 0.18635 0 0.28833 0.12052 0.10198 0.12052 0.10198 0.33468zm-0.15575-0.12887q-9.27e-4 -0.13165-0.06397-0.20489-0.06212-0.07324-0.17337-0.07324-0.10754 0-0.18264 0.07695-0.0751 0.07695-0.09271 0.20118z"/>
     <path d="m-45.656 56.942h-0.15204v-0.54513q0-0.15761-0.04914-0.22807-0.04821-0.07046-0.16317-0.07046-0.09735 0-0.16595 0.089-0.06768 0.089-0.06768 0.21323v0.54142h-0.15204v-0.56368q0-0.27998-0.21601-0.27998-0.10013 0-0.16502 0.08437-0.0649 0.08344-0.0649 0.21787v0.54142h-0.15204v-0.94935h0.15204v0.15019h0.0037q0.10105-0.17244 0.29482-0.17244 0.09734 0 0.16966 0.0547 0.07231 0.05377 0.0992 0.14185 0.10569-0.19654 0.31521-0.19654 0.31336 0 0.31336 0.3866z"/>
     <path d="m-44.613 55.992-0.43666 1.1014q-0.11682 0.29482-0.32819 0.29482-0.05933 0-0.0992-0.01205v-0.13628q0.04914 0.01669 0.08993 0.01669 0.11496 0 0.17244-0.13721l0.07602-0.17986-0.37084-0.94749h0.16873l0.25681 0.73055q0.0046 0.01391 0.01947 0.07231h0.0056q0.0046-0.02225 0.01854-0.07046l0.26978-0.73241z"/>
     <path d="m-43.489 56.932q-0.05377 0.02967-0.14185 0.02967-0.24939 0-0.24939-0.27813v-0.56182h-0.16317v-0.12979h0.16317v-0.23177l0.15204-0.04914v0.28091h0.23919v0.12979h-0.23919v0.53494q0 0.09549 0.03245 0.13628 0.03245 0.04079 0.10754 0.04079 0.05748 0 0.0992-0.03152z"/>
     <path d="m-42.529 55.992-0.43666 1.1014q-0.11682 0.29482-0.32819 0.29482-0.05933 0-0.0992-0.01205v-0.13628q0.04914 0.01669 0.08993 0.01669 0.11496 0 0.17244-0.13721l0.07602-0.17986-0.37084-0.94749h0.16873l0.25681 0.73055q0.0046 0.01391 0.01947 0.07231h0.0056q0.0046-0.02225 0.01854-0.07046l0.26978-0.73241z"/>
     <path d="m-42.209 56.805h-0.0037v0.57387h-0.15204v-1.386h0.15204v0.16688h0.0037q0.11218-0.18913 0.32819-0.18913 0.18356 0 0.28647 0.12794 0.10291 0.12701 0.10291 0.34117 0 0.23826-0.11589 0.38196-0.11589 0.14277-0.31707 0.14277-0.18449 0-0.28462-0.15946zm-0.0037-0.38289v0.13257q0 0.11774 0.07602 0.20025 0.07695 0.08158 0.19469 0.08158 0.13814 0 0.21601-0.10569 0.0788-0.10569 0.0788-0.29389 0-0.15853-0.07324-0.24846-0.07324-0.08993-0.1984-0.08993-0.13258 0-0.21323 0.09271-0.08066 0.09178-0.08066 0.23085z"/>
     <path d="m-40.485 56.505h-0.67029q0.0037 0.15853 0.08529 0.24475 0.08158 0.08622 0.22436 0.08622 0.16039 0 0.29482-0.10569v0.14277q-0.12516 0.09086-0.33097 0.09086-0.20118 0-0.31614-0.12887-0.11496-0.12979-0.11496-0.36435 0-0.22158 0.12516-0.36064 0.12609-0.13999 0.31243-0.13999 0.18635 0 0.28833 0.12052 0.10198 0.12052 0.10198 0.33468zm-0.15575-0.12887q-9.27e-4 -0.13165-0.06397-0.20489-0.06211-0.07324-0.17337-0.07324-0.10754 0-0.18264 0.07695-0.07509 0.07695-0.09271 0.20118z"/>
    </g>
   </g>
   <g>
    <rect x="-29.293" y="37.336" width="9.8778" height="26.811" fill="#232323"/>
    <g transform="scale(1.0015 .99852)" fill="#e9e56f" stroke-width=".28222px" aria-label="Attack">
     <path d="m-7.6652 48.18h-0.17244l-0.14092-0.37269h-0.56368l-0.13257 0.37269h-0.17337l0.5099-1.3295h0.16132zm-0.36435-0.51268-0.2086-0.56646q-0.010198-0.02781-0.020396-0.089h-0.00371q-0.00927 0.05655-0.021323 0.089l-0.20674 0.56646z"/>
     <path d="m-7.0506 48.171q-0.053772 0.02967-0.14185 0.02967-0.24939 0-0.24939-0.27813v-0.56182h-0.16317v-0.12979h0.16317v-0.23178l0.15204-0.04914v0.28091h0.23919v0.12979h-0.23919v0.53494q0 0.09549 0.032448 0.13628 0.032448 0.04079 0.10754 0.04079 0.05748 0 0.0992-0.03152z"/>
     <path d="m-6.4053 48.171q-0.053772 0.02967-0.14185 0.02967-0.24939 0-0.24939-0.27813v-0.56182h-0.16317v-0.12979h0.16317v-0.23178l0.15204-0.04914v0.28091h0.23919v0.12979h-0.23919v0.53494q0 0.09549 0.032448 0.13628 0.032448 0.04079 0.10754 0.04079 0.05748 0 0.099199-0.03152z"/>
     <path d="m-5.5209 48.18h-0.15204v-0.14834h-0.00371q-0.0992 0.17059-0.29204 0.17059-0.14185 0-0.2225-0.07509-0.07973-0.07509-0.07973-0.19933 0-0.26608 0.31336-0.30965l0.28462-0.03986q0-0.24197-0.19562-0.24197-0.17151 0-0.30965 0.11681v-0.15575q0.13999-0.089 0.32263-0.089 0.33468 0 0.33468 0.35415zm-0.15204-0.48024-0.22899 0.03152q-0.10569 0.01483-0.15946 0.05284-0.053772 0.03708-0.053772 0.13258 0 0.06953 0.049136 0.11403 0.050063 0.04357 0.13258 0.04357 0.11311 0 0.18635-0.0788 0.074168-0.07973 0.074168-0.20118z"/>
     <path d="m-4.5854 48.136q-0.1094 0.06582-0.25959 0.06582-0.20303 0-0.32819-0.13165-0.12423-0.13258-0.12423-0.34303 0-0.23456 0.13443-0.3764 0.13443-0.14277 0.35879-0.14277 0.12516 0 0.22065 0.04635v0.15575q-0.10569-0.07417-0.22621-0.07417-0.14555 0-0.23919 0.10476-0.09271 0.10384-0.09271 0.27349 0 0.16688 0.087147 0.2633 0.088074 0.09642 0.23548 0.09642 0.12423 0 0.23363-0.08251z"/>
     <path d="m-3.5656 48.18h-0.21323l-0.41905-0.45613h-0.00371v0.45613h-0.15204v-1.4055h0.15204v0.89094h0.00371l0.39865-0.43481h0.19933l-0.44037 0.45799z"/>
    </g>
    <g transform="scale(1.0015 .99852)" fill="#e9e56f" stroke-width=".28222px" aria-label="Flee">
     <path d="m-8.0194 52.644h-0.51917v0.45984h0.48024v0.13999h-0.48024v0.58871h-0.15575v-1.3295h0.67493z"/>
     <path d="m-7.6356 53.833h-0.15204v-1.4055h0.15204z"/>
     <path d="m-6.5648 53.396h-0.67029q0.00371 0.15853 0.085293 0.24475 0.081585 0.08622 0.22436 0.08622 0.16039 0 0.29482-0.10569v0.14277q-0.12516 0.09086-0.33097 0.09086-0.20118 0-0.31614-0.12887-0.11496-0.12979-0.11496-0.36435 0-0.22158 0.12516-0.36064 0.12609-0.13999 0.31243-0.13999t0.28833 0.12052 0.10198 0.33468zm-0.15575-0.12887q-9.27e-4 -0.13165-0.06397-0.20489-0.062115-0.07324-0.17337-0.07324-0.10754 0-0.18264 0.07695-0.075095 0.07695-0.09271 0.20118z"/>
     <path d="m-5.5709 53.396h-0.67029q0.00371 0.15853 0.085293 0.24475 0.081584 0.08622 0.22436 0.08622 0.16039 0 0.29482-0.10569v0.14277q-0.12516 0.09086-0.33097 0.09086-0.20118 0-0.31614-0.12887-0.11496-0.12979-0.11496-0.36435 0-0.22158 0.12516-0.36064 0.12609-0.13999 0.31243-0.13999t0.28833 0.12052q0.10198 0.12052 0.10198 0.33468zm-0.15575-0.12887q-9.271e-4 -0.13165-0.06397-0.20489-0.062116-0.07324-0.17337-0.07324-0.10754 0-0.18264 0.07695-0.075095 0.07695-0.09271 0.20118z"/>
    </g>
   </g>
   <g fill="none" stroke="#d54747" stroke-width=".14111">
    <path d="m-33.446 39.632 6.6476 2.54"/>
    <path d="m-33.396 45.195 6.5978-2.9978"/>
    <path d="m-33.446 50.783 6.6975-8.5606"/>
    <path d="m-33.385 56.422 6.6675-14.182"/>
    <path d="m-33.385 62.207 6.6675-19.861"/>
    <path d="m-33.446 39.632 6.6476 8.1844"/>
    <path d="m-33.396 45.195 6.5978 2.6466"/>
    <path d="m-33.446 50.783 6.6975-2.9162"/>
    <path d="m-33.385 56.422 6.6675-8.5372"/>
    <path d="m-33.385 62.207 6.6675-14.217"/>
    <path d="m-33.446 39.632 6.6476 13.829"/>
    <path d="m-33.396 45.195 6.5978 8.2911"/>
    <path d="m-33.446 50.783 6.6975 2.7283"/>
    <path d="m-33.385 56.422 6.6675-2.8928"/>
    <path d="m-33.385 62.207 6.6675-8.5725"/>
    <path d="m-33.446 39.632 6.6476 19.473"/>
    <path d="m-33.396 45.195 6.5978 13.936"/>
    <path d="m-33.446 50.783 6.6975 8.3727"/>
    <path d="m-33.385 56.422 6.6675 2.7517"/>
    <path d="m-33.385 62.207 6.6675-2.9281"/>
   </g>
   <g fill="#0d1d3b" fill-opacity=".38431" stroke="#6f9ae9" stroke-width=".14111">
    <ellipse cx="-35.684" cy="39.453" rx="2.3102" ry="2.2972"/>
    <ellipse cx="-35.684" cy="45.097" rx="2.3102" ry="2.2972"/>
    <ellipse cx="-35.684" cy="50.742" rx="2.3102" ry="2.2972"/>
    <ellipse cx="-35.684" cy="56.386" rx="2.3102" ry="2.2972"/>
    <ellipse cx="-35.684" cy="62.03" rx="2.3102" ry="2.2972"/>
   </g>
   <g fill="none" stroke="#d54747" stroke-width=".14111">
    <path d="m-22.095 41.975 6.828 5.8385"/>
    <path d="m-22.006 47.761h6.6164"/>
    <path d="m-22.024 53.405 6.6693-5.5915"/>
    <path d="m-21.989 59.085 6.5811-11.307"/>
    <path d="m-22.042 42.011 6.6164 11.395"/>
    <path d="m-22.024 47.69 6.5634 5.6974"/>
    <path d="m-22.077 53.423h6.7046"/>
    <path d="m-22.024 59.085 6.5634-5.6621"/>
   </g>
   <ellipse cx="-13.106" cy="47.637" rx="2.3102" ry="2.2972" fill="#0d3b0d" fill-opacity=".38431" stroke="#6fe96f" stroke-width=".14111"/>
   <ellipse cx="-13.106" cy="53.282" rx="2.3102" ry="2.2972" fill="#0d3b0d" fill-opacity=".38431" stroke="#6fe96f" stroke-width=".14111"/>
   <g fill="#330d3b" fill-opacity=".38431" stroke="#d36fe9" stroke-width=".14111">
    <ellipse cx="-24.395" cy="47.637" rx="2.3102" ry="2.2972"/>
    <ellipse cx="-24.395" cy="53.282" rx="2.3102" ry="2.2972"/>
    <ellipse cx="-24.395" cy="58.926" rx="2.3102" ry="2.2972"/>
    <ellipse cx="-24.395" cy="41.993" rx="2.3102" ry="2.2972"/>
   </g>
   <g>
    <g fill="#6f9ae9" stroke-width=".28222px" aria-label="Input layer">
     <path d="m-39.872 34.416h-0.14469v-1.2351h0.14469z"/>
     <path d="m-38.835 34.416h-0.14125v-0.50298q0-0.28078-0.20498-0.28078-0.10594 0-0.1757 0.0801-0.0689 0.07924-0.0689 0.20068v0.50298h-0.14125v-0.88194h0.14125v0.14642h0.0034q0.09991-0.16709 0.28939-0.16709 0.14469 0 0.22135 0.09388 0.07665 0.09302 0.07665 0.26958z"/>
     <path d="m-38.424 34.289h-0.0034v0.53313h-0.14125v-1.2876h0.14125v0.15503h0.0034q0.10421-0.1757 0.30489-0.1757 0.17053 0 0.26613 0.11886 0.0956 0.11799 0.0956 0.31695 0 0.22135-0.10766 0.35484-0.10766 0.13264-0.29456 0.13264-0.17139 0-0.26441-0.14814zm-0.0034-0.35571v0.12316q0 0.10938 0.07062 0.18604 0.07149 0.07579 0.18087 0.07579 0.12833 0 0.20068-0.09819 0.07321-0.09819 0.07321-0.27302 0-0.14728-0.06804-0.23082-0.06804-0.08354-0.18431-0.08354-0.12316 0-0.19809 0.08613-0.07493 0.08527-0.07493 0.21446z"/>
     <path d="m-36.818 34.416h-0.14125v-0.13953h-0.0034q-0.08785 0.1602-0.27216 0.1602-0.31523 0-0.31523-0.37552v-0.5271h0.14039v0.50471q0 0.27905 0.2136 0.27905 0.10335 0 0.16967-0.07579 0.06718-0.07665 0.06718-0.19982v-0.50815h0.14125z"/>
     <path d="m-36.123 34.408q-0.04995 0.02756-0.13178 0.02756-0.23168 0-0.23168-0.25838v-0.52193h-0.15158v-0.12058h0.15158v-0.21532l0.14125-0.04565v0.26097h0.22221v0.12058h-0.22221v0.49696q0 0.08871 0.03014 0.12661 0.03014 0.0379 0.09991 0.0379 0.0534 0 0.09216-0.02928z"/>
     <path d="m-35.309 34.416h-0.14125v-1.3057h0.14125z"/>
     <path d="m-34.392 34.416h-0.14125v-0.1378h-0.0034q-0.09216 0.15847-0.2713 0.15847-0.13178 0-0.20671-0.06976-0.07407-0.06976-0.07407-0.18517 0-0.24718 0.29111-0.28766l0.26441-0.03703q0-0.22479-0.18173-0.22479-0.15934 0-0.28767 0.10852v-0.1447q0.13005-0.08268 0.29972-0.08268 0.31092 0 0.31092 0.32901zm-0.14125-0.44614-0.21273 0.02928q-0.09819 0.01378-0.14814 0.04909-0.04995 0.03445-0.04995 0.12316 0 0.0646 0.04565 0.10594 0.04651 0.04048 0.12316 0.04048 0.10508 0 0.17312-0.07321 0.0689-0.07407 0.0689-0.1869z"/>
     <path d="m-33.422 33.534-0.40566 1.0232q-0.10852 0.27388-0.30489 0.27388-0.05512 0-0.09216-0.0112v-0.12661q0.04565 0.0155 0.08354 0.0155 0.1068 0 0.1602-0.12747l0.07062-0.16709-0.34451-0.88022h0.15675l0.23857 0.67868q0.0043 0.01292 0.01809 0.06718h0.0052q0.0043-0.02067 0.01723-0.06546l0.25063-0.68041z"/>
     <path d="m-32.561 34.011h-0.6227q0.0034 0.14728 0.07924 0.22738 0.07579 0.0801 0.20843 0.0801 0.149 0 0.27388-0.09819v0.13264q-0.11627 0.0844-0.30747 0.0844-0.1869 0-0.2937-0.11972-0.1068-0.12058-0.1068-0.33848 0-0.20584 0.11627-0.33504 0.11713-0.13005 0.29025-0.13005 0.17312 0 0.26786 0.11196 0.09474 0.11197 0.09474 0.31092zm-0.14469-0.11972q-8.61e-4 -0.1223-0.05943-0.19034-0.05771-0.06804-0.16106-0.06804-0.09991 0-0.16967 0.07149-0.06976 0.07149-0.08613 0.1869z"/>
     <path d="m-31.887 33.677q-0.03704-0.02842-0.1068-0.02842-0.09043 0-0.15158 0.08527-0.06029 0.08527-0.06029 0.23254v0.44958h-0.14125v-0.88194h0.14125v0.18173h0.0034q0.03014-0.09302 0.09216-0.14469 0.06201-0.05254 0.13866-0.05254 0.05512 0 0.08441 0.01206z"/>
    </g>
    <g fill="#d36fe9" stroke-width=".28222px" aria-label="Hidden layer(s)">
     <path d="m-28.929 34.416h-0.1447v-0.56327h-0.63906v0.56327h-0.14469v-1.2351h0.14469v0.54174h0.63906v-0.54174h0.1447z"/>
     <path d="m-28.55 33.31q-0.0379 0-0.0646-0.02584t-0.0267-0.06546 0.0267-0.06546q0.0267-0.0267 0.0646-0.0267 0.03876 0 0.06546 0.0267 0.02756 0.02584 0.02756 0.06546 0 0.0379-0.02756 0.0646-0.0267 0.0267-0.06546 0.0267zm0.0689 1.1059h-0.14125v-0.88194h0.14125z"/>
     <path d="m-27.442 34.416h-0.14125v-0.14986h-0.0034q-0.09819 0.17053-0.30317 0.17053-0.16623 0-0.26613-0.11799-0.09905-0.11886-0.09905-0.32298 0-0.21876 0.11024-0.35054t0.29369-0.13178q0.18173 0 0.26441 0.14297h0.0034v-0.54605h0.14125zm-0.14125-0.39877v-0.13005q0-0.1068-0.07062-0.18087t-0.17914-0.07407q-0.12919 0-0.20326 0.09474t-0.07407 0.26183q0 0.15244 0.07062 0.24116 0.07149 0.08785 0.1912 0.08785 0.118 0 0.1912-0.08527 0.07407-0.08527 0.07407-0.21532z"/>
     <path d="m-26.402 34.416h-0.14125v-0.14986h-0.0034q-0.09818 0.17053-0.30317 0.17053-0.16623 0-0.26613-0.11799-0.09905-0.11886-0.09905-0.32298 0-0.21876 0.11024-0.35054t0.29369-0.13178q0.18173 0 0.26441 0.14297h0.0034v-0.54605h0.14125zm-0.14125-0.39877v-0.13005q0-0.1068-0.07062-0.18087t-0.17914-0.07407q-0.12919 0-0.20326 0.09474t-0.07407 0.26183q0 0.15244 0.07062 0.24116 0.07149 0.08785 0.1912 0.08785 0.11799 0 0.1912-0.08527 0.07407-0.08527 0.07407-0.21532z"/>
     <path d="m-25.405 34.011h-0.6227q0.0034 0.14728 0.07924 0.22738 0.07579 0.0801 0.20843 0.0801 0.149 0 0.27388-0.09819v0.13264q-0.11627 0.0844-0.30748 0.0844-0.1869 0-0.2937-0.11972-0.1068-0.12058-0.1068-0.33848 0-0.20584 0.11627-0.33504 0.11713-0.13005 0.29025-0.13005t0.26786 0.11196q0.09474 0.11197 0.09474 0.31092zm-0.14469-0.11972q-8.61e-4 -0.1223-0.05943-0.19034-0.05771-0.06804-0.16106-0.06804-0.09991 0-0.16967 0.07149-0.06976 0.07149-0.08613 0.1869z"/>
     <path d="m-24.459 34.416h-0.14125v-0.50298q0-0.28078-0.20498-0.28078-0.10594 0-0.1757 0.0801-0.0689 0.07924-0.0689 0.20068v0.50298h-0.14125v-0.88194h0.14125v0.14642h0.0034q0.09991-0.16709 0.28939-0.16709 0.14469 0 0.22135 0.09388 0.07665 0.09302 0.07665 0.26958z"/>
     <path d="m-23.568 34.416h-0.14125v-1.3057h0.14125z"/>
     <path d="m-22.651 34.416h-0.14125v-0.1378h-0.0034q-0.09216 0.15847-0.2713 0.15847-0.13178 0-0.20671-0.06976-0.07407-0.06976-0.07407-0.18517 0-0.24718 0.29111-0.28766l0.26441-0.03703q0-0.22479-0.18173-0.22479-0.15934 0-0.28766 0.10852v-0.1447q0.13005-0.08268 0.29972-0.08268 0.31092 0 0.31092 0.32901zm-0.14125-0.44614-0.21274 0.02928q-0.09819 0.01378-0.14814 0.04909-0.04995 0.03445-0.04995 0.12316 0 0.0646 0.04565 0.10594 0.04651 0.04048 0.12316 0.04048 0.10508 0 0.17312-0.07321 0.0689-0.07407 0.0689-0.1869z"/>
     <path d="m-21.681 33.534-0.40566 1.0232q-0.10852 0.27388-0.30489 0.27388-0.05512 0-0.09216-0.0112v-0.12661q0.04565 0.0155 0.08354 0.0155 0.1068 0 0.1602-0.12747l0.07062-0.16709-0.34451-0.88022h0.15675l0.23857 0.67868q0.0043 0.01292 0.01809 0.06718h0.0052q0.0043-0.02067 0.01722-0.06546l0.25063-0.68041z"/>
     <path d="m-20.82 34.011h-0.6227q0.0034 0.14728 0.07924 0.22738 0.07579 0.0801 0.20843 0.0801 0.149 0 0.27388-0.09819v0.13264q-0.11627 0.0844-0.30748 0.0844-0.1869 0-0.2937-0.11972-0.1068-0.12058-0.1068-0.33848 0-0.20584 0.11627-0.33504 0.11713-0.13005 0.29025-0.13005t0.26786 0.11196q0.09474 0.11197 0.09474 0.31092zm-0.14469-0.11972q-8.61e-4 -0.1223-0.05943-0.19034-0.0577-0.06804-0.16106-0.06804-0.09991 0-0.16967 0.07149-0.06976 0.07149-0.08613 0.1869z"/>
     <path d="m-20.145 33.677q-0.03703-0.02842-0.1068-0.02842-0.09043 0-0.15158 0.08527-0.06029 0.08527-0.06029 0.23254v0.44958h-0.14125v-0.88194h0.14125v0.18173h0.0034q0.03015-0.09302 0.09216-0.14469 0.06201-0.05254 0.13867-0.05254 0.05512 0 0.0844 0.01206z"/>
     <path d="m-19.622 34.697h-0.12575q-0.267-0.30489-0.267-0.75189 0-0.44872 0.267-0.76395h0.12747q-0.27044 0.32728-0.27044 0.76223 0 0.4315 0.26872 0.75362z"/>
     <path d="m-19.511 34.384v-0.15158q0.11541 0.08527 0.25408 0.08527 0.18604 0 0.18604-0.12402 0-0.03531-0.01636-0.05943-0.0155-0.02498-0.04306-0.04393-0.0267-0.01895-0.06373-0.03359-0.03617-0.0155-0.07838-0.03187-0.05857-0.02325-0.10335-0.04651-0.04392-0.02412-0.07407-0.0534-0.02928-0.03015-0.04479-0.06804-0.01464-0.0379-0.01464-0.08871 0-0.06201 0.02842-0.10938 0.02842-0.04823 0.07579-0.0801 0.04737-0.03273 0.10766-0.04909 0.06115-0.01636 0.12575-0.01636 0.11455 0 0.20498 0.03962v0.14297q-0.09732-0.06373-0.22393-0.06373-0.03962 0-0.07149 0.0095-0.03187 0.0086-0.05512 0.02498-0.02239 0.01637-0.03531 0.03962-0.01206 0.02239-0.01206 0.04995 0 0.03445 0.01206 0.0577 0.01292 0.02325 0.03703 0.04134 0.02412 0.01809 0.05857 0.03273t0.07838 0.03187q0.05857 0.02239 0.10508 0.04651 0.04651 0.02325 0.07924 0.0534 0.03273 0.02928 0.04995 0.06804 0.01809 0.03876 0.01809 0.09216 0 0.06546-0.02928 0.11369-0.02842 0.04823-0.07665 0.0801t-0.1111 0.04737q-0.06287 0.0155-0.13178 0.0155-0.13608 0-0.23599-0.05254z"/>
     <path d="m-18.707 34.697h-0.12575q0.26872-0.32212 0.26872-0.75362 0-0.43494-0.27044-0.76223h0.12747q0.26872 0.31523 0.26872 0.76395 0 0.447-0.26872 0.75189z"/>
    </g>
    <g fill="#6fe96f" stroke-width=".28222px" aria-label="Output layer">
     <path d="m-16.095 34.437q-0.26269 0-0.42116-0.17312-0.15761-0.17312-0.15761-0.45045 0-0.298 0.16106-0.47542 0.16106-0.17742 0.43839-0.17742 0.2558 0 0.41169 0.17226 0.15675 0.17226 0.15675 0.45045 0 0.30231-0.1602 0.47801-0.1602 0.1757-0.42891 0.1757zm0.01034-1.1455q-0.19465 0-0.31609 0.14039-0.12144 0.14039-0.12144 0.36862t0.11799 0.36776q0.11886 0.13866 0.3092 0.13866 0.20326 0 0.32039-0.13264 0.11713-0.13264 0.11713-0.37121 0-0.2446-0.11369-0.3781-0.11369-0.1335-0.3135-0.1335z"/>
     <path d="m-14.569 34.416h-0.14125v-0.13953h-0.0034q-0.08785 0.1602-0.27216 0.1602-0.31523 0-0.31523-0.37552v-0.5271h0.14039v0.50471q0 0.27905 0.2136 0.27905 0.10335 0 0.16967-0.07579 0.06718-0.07665 0.06718-0.19982v-0.50815h0.14125z"/>
     <path d="m-13.874 34.408q-0.04995 0.02756-0.13178 0.02756-0.23168 0-0.23168-0.25838v-0.52193h-0.15158v-0.12058h0.15158v-0.21532l0.14125-0.04565v0.26097h0.22221v0.12058h-0.22221v0.49696q0 0.08871 0.03014 0.12661 0.03014 0.0379 0.09991 0.0379 0.0534 0 0.09216-0.02928z"/>
     <path d="m-13.538 34.289h-0.0034v0.53313h-0.14125v-1.2876h0.14125v0.15503h0.0034q0.10421-0.1757 0.30489-0.1757 0.17053 0 0.26613 0.11886 0.0956 0.11799 0.0956 0.31695 0 0.22135-0.10766 0.35484-0.10766 0.13264-0.29456 0.13264-0.17139 0-0.26441-0.14814zm-0.0034-0.35571v0.12316q0 0.10938 0.07062 0.18604 0.07149 0.07579 0.18087 0.07579 0.12833 0 0.20068-0.09819 0.07321-0.09819 0.07321-0.27302 0-0.14728-0.06804-0.23082-0.06804-0.08354-0.18431-0.08354-0.12316 0-0.19809 0.08613-0.07493 0.08527-0.07493 0.21446z"/>
     <path d="m-11.933 34.416h-0.14125v-0.13953h-0.0034q-0.08785 0.1602-0.27216 0.1602-0.31523 0-0.31523-0.37552v-0.5271h0.14039v0.50471q0 0.27905 0.2136 0.27905 0.10335 0 0.16967-0.07579 0.06718-0.07665 0.06718-0.19982v-0.50815h0.14125z"/>
     <path d="m-11.238 34.408q-0.04995 0.02756-0.13178 0.02756-0.23168 0-0.23168-0.25838v-0.52193h-0.15158v-0.12058h0.15158v-0.21532l0.14125-0.04565v0.26097h0.22221v0.12058h-0.22221v0.49696q0 0.08871 0.03014 0.12661 0.03014 0.0379 0.09991 0.0379 0.0534 0 0.09216-0.02928z"/>
     <path d="m-10.424 34.416h-0.14125v-1.3057h0.14125z"/>
     <path d="m-9.5069 34.416h-0.14125v-0.1378h-0.00345q-0.092156 0.15847-0.2713 0.15847-0.13177 0-0.20671-0.06976-0.07407-0.06976-0.07407-0.18517 0-0.24718 0.29111-0.28766l0.26441-0.03703q0-0.22479-0.18173-0.22479-0.15934 0-0.28767 0.10852v-0.1447q0.13005-0.08268 0.29972-0.08268 0.31092 0 0.31092 0.32901zm-0.14125-0.44614-0.21273 0.02928q-0.098185 0.01378-0.14814 0.04909-0.04995 0.03445-0.04995 0.12316 0 0.0646 0.04565 0.10594 0.046509 0.04048 0.12316 0.04048 0.10508 0 0.17312-0.07321 0.068902-0.07407 0.068902-0.1869z"/>
     <path d="m-8.5371 33.534-0.40566 1.0232q-0.10852 0.27388-0.30489 0.27388-0.055122 0-0.092156-0.0112v-0.12661q0.045648 0.0155 0.083544 0.0155 0.1068 0 0.1602-0.12747l0.070624-0.16709-0.34451-0.88022h0.15675l0.23857 0.67868q0.00431 0.01292 0.018087 0.06718h0.00517q0.00431-0.02067 0.017225-0.06546l0.25063-0.68041z"/>
     <path d="m-7.6758 34.011h-0.6227q0.00345 0.14728 0.079237 0.22738 0.075792 0.0801 0.20843 0.0801 0.149 0 0.27389-0.09819v0.13264q-0.11627 0.0844-0.30747 0.0844-0.1869 0-0.29369-0.11972-0.1068-0.12058-0.1068-0.33848 0-0.20584 0.11627-0.33504 0.11713-0.13005 0.29025-0.13005 0.17312 0 0.26786 0.11196 0.09474 0.11197 0.09474 0.31092zm-0.14469-0.11972q-8.612e-4 -0.1223-0.059428-0.19034-0.057705-0.06804-0.16106-0.06804-0.099908 0-0.16967 0.07149-0.069763 0.07149-0.086127 0.1869z"/>
     <path d="m-7.0014 33.677q-0.037035-0.02842-0.1068-0.02842-0.090434 0-0.15158 0.08527-0.060289 0.08527-0.060289 0.23254v0.44958h-0.14125v-0.88194h0.14125v0.18173h0.00345q0.030145-0.09302 0.092156-0.14469 0.062012-0.05254 0.13867-0.05254 0.055122 0 0.084405 0.01206z"/>
    </g>
    <g transform="scale(1.0015 .99852)" fill="#e9e56f" stroke-width=".28222px" aria-label="Enemy health">
     <path d="m-50.795 62.506h-0.70459v-1.3295h0.67493v0.14092h-0.51917v0.44222h0.48024v0.13999h-0.48024v0.4654h0.54884z"/>
     <path d="m-49.771 62.506h-0.15204v-0.54142q0-0.30223-0.22065-0.30223-0.11403 0-0.18913 0.08622-0.07417 0.08529-0.07417 0.21601v0.54142h-0.15204v-0.94935h0.15204v0.15761h0.0037q0.10754-0.17986 0.3115-0.17986 0.15575 0 0.23826 0.10105 0.08251 0.10013 0.08251 0.29018z"/>
     <path d="m-48.721 62.07h-0.67029q0.0037 0.15853 0.08529 0.24475 0.08159 0.08622 0.22436 0.08622 0.16039 0 0.29482-0.10569v0.14277q-0.12516 0.09086-0.33097 0.09086-0.20118 0-0.31614-0.12887-0.11496-0.12979-0.11496-0.36435 0-0.22158 0.12516-0.36064 0.12608-0.13999 0.31243-0.13999 0.18635 0 0.28833 0.12052 0.10198 0.12052 0.10198 0.33468zm-0.15575-0.12887q-9.27e-4 -0.13165-0.06397-0.20489-0.06211-0.07324-0.17337-0.07324-0.10754 0-0.18264 0.07695-0.0751 0.07695-0.09271 0.20118z"/>
     <path d="m-47.142 62.506h-0.15204v-0.54513q0-0.15761-0.04914-0.22807-0.04821-0.07046-0.16317-0.07046-0.09735 0-0.16595 0.089-0.06768 0.089-0.06768 0.21323v0.54142h-0.15204v-0.56368q0-0.27998-0.21601-0.27998-0.10013 0-0.16502 0.08437-0.0649 0.08344-0.0649 0.21787v0.54142h-0.15204v-0.94935h0.15204v0.15019h0.0037q0.10105-0.17244 0.29482-0.17244 0.09735 0 0.16966 0.0547 0.07231 0.05377 0.0992 0.14185 0.10569-0.19654 0.31521-0.19654 0.31336 0 0.31336 0.3866z"/>
     <path d="m-46.099 61.557-0.43666 1.1014q-0.11681 0.29482-0.32819 0.29482-0.05933 0-0.0992-0.01205v-0.13628q0.04914 0.01669 0.08993 0.01669 0.11496 0 0.17244-0.13721l0.07602-0.17986-0.37084-0.94749h0.16873l0.25681 0.73055q0.0046 0.01391 0.01947 0.07231h0.0056q0.0046-0.02225 0.01854-0.07046l0.26979-0.73241z"/>
     <path d="m-44.628 62.506h-0.15204v-0.54699q0-0.29667-0.22065-0.29667-0.11125 0-0.18727 0.08622-0.07602 0.08529-0.07602 0.21972v0.53772h-0.15204v-1.4055h0.15204v0.61374h0.0037q0.1094-0.17986 0.3115-0.17986 0.32078 0 0.32078 0.3866z"/>
     <path d="m-43.577 62.07h-0.67029q0.0037 0.15853 0.08529 0.24475 0.08158 0.08622 0.22436 0.08622 0.16039 0 0.29482-0.10569v0.14277q-0.12516 0.09086-0.33097 0.09086-0.20118 0-0.31614-0.12887-0.11496-0.12979-0.11496-0.36435 0-0.22158 0.12516-0.36064 0.12608-0.13999 0.31243-0.13999t0.28833 0.12052q0.10198 0.12052 0.10198 0.33468zm-0.15575-0.12887q-9.27e-4 -0.13165-0.06397-0.20489-0.06212-0.07324-0.17337-0.07324-0.10754 0-0.18264 0.07695-0.07509 0.07695-0.09271 0.20118z"/>
     <path d="m-42.667 62.506h-0.15204v-0.14834h-0.0037q-0.0992 0.17059-0.29204 0.17059-0.14185 0-0.2225-0.0751-0.07973-0.07509-0.07973-0.19933 0-0.26608 0.31336-0.30965l0.28462-0.03987q0-0.24197-0.19562-0.24197-0.17151 0-0.30965 0.11681v-0.15575q0.13999-0.089 0.32263-0.089 0.33468 0 0.33468 0.35415zm-0.15204-0.48024-0.22899 0.03152q-0.10569 0.01483-0.15946 0.05284-0.05377 0.03708-0.05377 0.13258 0 0.06953 0.04914 0.11403 0.05006 0.04357 0.13258 0.04357 0.11311 0 0.18635-0.0788 0.07417-0.07973 0.07417-0.20118z"/>
     <path d="m-42.226 62.506h-0.15204v-1.4055h0.15204z"/>
     <path d="m-41.478 62.497q-0.05377 0.02967-0.14184 0.02967-0.24939 0-0.24939-0.27813v-0.56182h-0.16317v-0.12979h0.16317v-0.23177l0.15204-0.04914v0.28091h0.23919v0.12979h-0.23919v0.53494q0 0.09549 0.03245 0.13628 0.03245 0.04079 0.10754 0.04079 0.05748 0 0.0992-0.03152z"/>
     <path d="m-40.485 62.506h-0.15204v-0.54699q0-0.29667-0.22065-0.29667-0.11125 0-0.18727 0.08622-0.07602 0.08529-0.07602 0.21972v0.53772h-0.15204v-1.4055h0.15204v0.61374h0.0037q0.1094-0.17986 0.3115-0.17986 0.32078 0 0.32078 0.3866z"/>
    </g>
    <g transform="scale(1.0015 .99852)" fill="#6f9ae9" stroke-width="1.126px" aria-label="...">
     <path d="m-37.194 66.368q-0.17016 0-0.29222-0.12207-0.11837-0.12207-0.11837-0.29222t0.11837-0.29222q0.12207-0.12577 0.29222-0.12577 0.17386 0 0.29592 0.12577 0.12207 0.12207 0.12207 0.29222t-0.12207 0.29222-0.29592 0.12207z"/>
     <path d="m-35.551 66.368q-0.17016 0-0.29222-0.12207-0.11837-0.12207-0.11837-0.29222t0.11837-0.29222q0.12207-0.12577 0.29222-0.12577 0.17386 0 0.29592 0.12577 0.12207 0.12207 0.12207 0.29222t-0.12207 0.29222-0.29592 0.12207z"/>
     <path d="m-33.909 66.368q-0.17016 0-0.29222-0.12207-0.11837-0.12207-0.11837-0.29222t0.11837-0.29222q0.12207-0.12577 0.29222-0.12577 0.17386 0 0.29592 0.12577 0.12207 0.12207 0.12207 0.29222t-0.12207 0.29222-0.29592 0.12207z"/>
    </g>
   </g>
  </g>
 </g>
</svg>
