<svg width="54.725mm" height="30.2mm" version="1.1" viewBox="0 0 54.725 30.2" xmlns="http://www.w3.org/2000/svg">
 <g transform="translate(-48.233 -61.162)">
  <g>
   <ellipse transform="matrix(-.42777 -.90389 .98869 -.14999 0 0)" cx="-76.343" cy="23.088" rx="3.4703" ry="5.6035" fill="#3b390d" fill-opacity=".38431" stroke="#e9e56f" stroke-width=".28837"/>
   <g fill="#e9e56f" stroke-width=".28222px" aria-label="Selector">
    <path d="m51.18 71.807c-0.12135-0.14736-0.3005-0.22537-0.49698-0.22537-0.3265 0-0.54899 0.21382-0.54899 0.4623 0 0.10402 0.04045 0.23982 0.1907 0.34962 0.16758 0.12424 0.42763 0.18492 0.56343 0.2716 0.11846 0.07224 0.15025 0.16758 0.15025 0.24849 0 0.15603-0.13291 0.3265-0.39296 0.3265-0.19648 0-0.34962-0.09824-0.43052-0.19937-0.0087-0.01156-0.0087-0.01734-0.0087-0.02889 0-0.0058 0-0.02311-0.01156-0.02889l-0.12136 0.20804c0.14158 0.15314 0.34384 0.23115 0.56632 0.23115 0.43919 0 0.601-0.29472 0.601-0.52009 0-0.09535-0.02889-0.21959-0.14158-0.3265-0.15603-0.14736-0.4103-0.19937-0.57499-0.29472-0.15025-0.08957-0.18203-0.19648-0.18203-0.26871 0-0.13869 0.11846-0.26294 0.32361-0.26294 0.16758 0 0.29761 0.07512 0.36695 0.17625 0.0087 0.01156 0.0058 0.01734 0.0058 0.02889 0 0.01734 0.0087 0.02312 0.01445 0.02312z"/>
    <path d="m52.116 72.041c-0.31494 0-0.60678 0.22537-0.60678 0.70501 0 0.44208 0.27449 0.67612 0.63278 0.67612 0.1907 0 0.36118-0.06935 0.47386-0.20515l-0.11558-0.11269c-0.08379 0.09824-0.21093 0.15025-0.34095 0.15025-0.17625 0-0.43341-0.09824-0.44786-0.49409h0.93617c0.0087-0.08957 0.0058-0.17625-0.0087-0.25138-0.06068-0.3554-0.30628-0.46808-0.52298-0.46808zm-0.39874 0.56054c0.04334-0.31206 0.24271-0.40163 0.38429-0.40163 0.21382 0 0.36695 0.18781 0.34095 0.40163z"/>
    <path d="m53.058 71.472v0.16758h0.37562v1.5863h-0.39296v0.1647h0.99106v-0.1647h-0.39007v-1.7539z"/>
    <path d="m55.006 72.041c-0.31494 0-0.60677 0.22537-0.60677 0.70501 0 0.44208 0.27449 0.67612 0.63278 0.67612 0.1907 0 0.36118-0.06935 0.47386-0.20515l-0.11558-0.11269c-0.08379 0.09824-0.21093 0.15025-0.34095 0.15025-0.17625 0-0.43341-0.09824-0.44786-0.49409h0.93617c0.0087-0.08957 0.0058-0.17625-0.0087-0.25138-0.06068-0.3554-0.30628-0.46808-0.52298-0.46808zm-0.39874 0.56054c0.04334-0.31206 0.24271-0.40163 0.38429-0.40163 0.21382 0 0.36695 0.18781 0.34095 0.40163z"/>
    <path d="m57.022 72.29c-0.10402-0.15314-0.28027-0.2456-0.49409-0.2456-0.38718 0-0.66167 0.29183-0.66167 0.68768 0 0.39874 0.27449 0.69346 0.65012 0.69346 0.18203 0 0.36118-0.07512 0.48542-0.21093l-0.11847-0.13869c-0.08957 0.10113-0.21959 0.15892-0.34962 0.15892-0.25716 0-0.45364-0.21382-0.45364-0.52298 0-0.3005 0.19359-0.48831 0.4363-0.48831 0.22537 0 0.33228 0.15603 0.34095 0.17336 0.01156 0.02023-0.0058 0.04912 0.01734 0.06646z"/>
    <path d="m57.693 71.718-0.026 0.3554h-0.31494l-0.0029 0.17048h0.30917c-0.01734 0.22537-0.026 0.45075-0.026 0.67323 0 0.11847 0 0.25138 0.07801 0.36118 0.06357 0.08668 0.1647 0.13869 0.3005 0.13869 0.15603 0 0.30917-0.06646 0.42185-0.14736l-0.06357-0.1647c-0.11269 0.08379-0.2167 0.12135-0.29761 0.12135-0.09824 0-0.19937-0.0549-0.22248-0.21382 0-0.01156-0.0087-0.06068-0.0087-0.25427 0-0.17047 0.0087-0.34384 0.026-0.51431h0.43341v-0.17336h-0.43052s0.02023-0.23693 0.03467-0.31206c0.0029-0.02889 0.026-0.04623 0.01445-0.07801z"/>
    <path d="m59.923 72.738c0-0.45653-0.28894-0.69346-0.58944-0.69346-0.33517 0-0.62411 0.28894-0.62411 0.69924 0 0.40163 0.28605 0.68479 0.61833 0.68479 0.31206 0 0.59522-0.25138 0.59522-0.69057zm-0.60388-0.5172c0.1907 0 0.39296 0.1647 0.39296 0.52587 0 0.33228-0.1907 0.49987-0.3814 0.49987-0.21093 0-0.40163-0.19648-0.40163-0.52298 0-0.32361 0.18781-0.50276 0.39007-0.50276z"/>
    <path d="m60.325 72.073v1.3205h0.20804v-0.64145c0-0.0809 0.0029-0.16759 0.09246-0.30917 0.12136-0.1907 0.27738-0.22248 0.37273-0.22248 0.1098 0 0.17914 0.05201 0.2167 0.09824 0.01734 0.02312 0.02601 0.04623 0.04912 0.06646l0.09824-0.19937c-0.08379-0.08668-0.20515-0.14447-0.35251-0.14447-0.19359 0-0.39007 0.09824-0.47675 0.28605l0.0087-0.25427z"/>
   </g>
   <ellipse transform="matrix(-.42777 -.90389 .98869 -.14999 0 0)" cx="-79.437" cy="41.731" rx="3.4703" ry="5.6035" fill="#3b390d" fill-opacity=".38431" stroke="#e9e56f" stroke-width=".28837"/>
  </g>
  <g fill="#e9e56f">
   <g stroke-width=".28222px" aria-label="Sequence">
    <path d="m70.936 71.807c-0.12136-0.14736-0.3005-0.22537-0.49698-0.22537-0.3265 0-0.54899 0.21382-0.54899 0.4623 0 0.10402 0.04045 0.23982 0.1907 0.34962 0.16758 0.12424 0.42763 0.18492 0.56343 0.2716 0.11847 0.07224 0.15025 0.16758 0.15025 0.24849 0 0.15603-0.13291 0.3265-0.39296 0.3265-0.19648 0-0.34962-0.09824-0.43052-0.19937-0.0087-0.01156-0.0087-0.01734-0.0087-0.02889 0-0.0058 0-0.02311-0.01156-0.02889l-0.12136 0.20804c0.14158 0.15314 0.34384 0.23115 0.56632 0.23115 0.43919 0 0.601-0.29472 0.601-0.52009 0-0.09535-0.02889-0.21959-0.14158-0.3265-0.15603-0.14736-0.4103-0.19937-0.57499-0.29472-0.15025-0.08957-0.18203-0.19648-0.18203-0.26871 0-0.13869 0.11847-0.26294 0.32361-0.26294 0.16759 0 0.29761 0.07512 0.36695 0.17625 0.0087 0.01156 0.0058 0.01734 0.0058 0.02889 0 0.01734 0.0087 0.02312 0.01445 0.02312z"/>
    <path d="m71.872 72.041c-0.31494 0-0.60677 0.22537-0.60677 0.70501 0 0.44208 0.27449 0.67612 0.63278 0.67612 0.1907 0 0.36118-0.06935 0.47386-0.20515l-0.11558-0.11269c-0.08379 0.09824-0.21093 0.15025-0.34095 0.15025-0.17625 0-0.43341-0.09824-0.44786-0.49409h0.93617c0.0087-0.08957 0.0058-0.17625-0.0087-0.25138-0.06068-0.3554-0.30628-0.46808-0.52298-0.46808zm-0.39874 0.56054c0.04334-0.31206 0.24271-0.40163 0.38429-0.40163 0.21382 0 0.36695 0.18781 0.34095 0.40163z"/>
    <path d="m73.649 72.264c0 0.0029-0.09246-0.22537-0.38429-0.22537-0.28894 0-0.5721 0.23404-0.5721 0.6819 0 0.42763 0.25138 0.70212 0.54321 0.70212 0.16758 0 0.32072-0.09535 0.40452-0.24271v0.69346h0.20515v-1.8001h-0.19648zm-0.37562-0.0549c0.11846 0 0.26871 0.06068 0.3265 0.22248 0.026 0.07512 0.03178 0.15603 0.03178 0.31783 0 0.09824-0.0058 0.17048-0.02601 0.23982-0.05201 0.15603-0.18781 0.24849-0.32361 0.24849-0.1907 0-0.3814-0.17336-0.3814-0.5461 0-0.34673 0.19648-0.48253 0.37273-0.48253z"/>
    <path d="m74.195 72.073v0.7368c0 0.11269 0 0.22826 0.05201 0.34673 0.07512 0.17336 0.23693 0.26871 0.4103 0.26871 0.1647 0 0.32072-0.08957 0.40741-0.23404l-0.0029 0.09824c0 0.03467 0 0.06935 0.0058 0.10113h0.2196c-0.01445-0.03756-0.01734-0.0809-0.01734-0.11846v-1.1991h-0.20804v0.72524c0 0.10113-0.0087 0.17914-0.05201 0.26005-0.06068 0.11269-0.17914 0.19648-0.30628 0.19648-0.10113 0-0.19937-0.05779-0.25138-0.16181-0.04623-0.09246-0.04623-0.19648-0.04623-0.28316v-0.7368z"/>
    <path d="m76.206 72.041c-0.31494 0-0.60677 0.22537-0.60677 0.70501 0 0.44208 0.27449 0.67612 0.63278 0.67612 0.1907 0 0.36118-0.06935 0.47386-0.20515l-0.11558-0.11269c-0.08379 0.09824-0.21093 0.15025-0.34095 0.15025-0.17625 0-0.43341-0.09824-0.44786-0.49409h0.93617c0.0087-0.08957 0.0058-0.17625-0.0087-0.25138-0.06068-0.3554-0.30628-0.46808-0.52298-0.46808zm-0.39874 0.56054c0.04334-0.31206 0.24271-0.40163 0.38429-0.40163 0.21382 0 0.36695 0.18781 0.34095 0.40163z"/>
    <path d="m77.102 73.391h0.21093v-0.75991c0-0.08668 0.01156-0.15314 0.06646-0.22537 0.04912-0.06646 0.17625-0.18492 0.31494-0.18492 0.06646 0 0.13291 0.02889 0.17914 0.08379 0.07224 0.08668 0.07224 0.19937 0.07224 0.29183v0.79458h0.20514v-0.80036c0-0.10113 0-0.21093-0.04623-0.31783-0.06646-0.14736-0.20226-0.23115-0.35251-0.23115-0.17914 0-0.34095 0.11558-0.43919 0.26294v-0.23115h-0.21093z"/>
    <path d="m79.667 72.29c-0.10402-0.15314-0.28027-0.2456-0.49409-0.2456-0.38718 0-0.66167 0.29183-0.66167 0.68768 0 0.39874 0.27449 0.69346 0.65012 0.69346 0.18203 0 0.36118-0.07512 0.48542-0.21093l-0.11846-0.13869c-0.08957 0.10113-0.2196 0.15892-0.34962 0.15892-0.25716 0-0.45364-0.21382-0.45364-0.52298 0-0.3005 0.19359-0.48831 0.4363-0.48831 0.22537 0 0.33228 0.15603 0.34095 0.17336 0.01156 0.02023-0.0058 0.04912 0.01734 0.06646z"/>
    <path d="m80.54 72.041c-0.31494 0-0.60678 0.22537-0.60678 0.70501 0 0.44208 0.27449 0.67612 0.63278 0.67612 0.1907 0 0.36118-0.06935 0.47386-0.20515l-0.11558-0.11269c-0.08379 0.09824-0.21093 0.15025-0.34095 0.15025-0.17625 0-0.43341-0.09824-0.44786-0.49409h0.93617c0.0087-0.08957 0.0058-0.17625-0.0087-0.25138-0.06068-0.3554-0.30628-0.46808-0.52298-0.46808zm-0.39874 0.56054c0.04334-0.31206 0.24271-0.40163 0.38429-0.40163 0.21382 0 0.36695 0.18781 0.34095 0.40163z"/>
   </g>
   <path d="m72.011 65.49 6.0008 0.07171" fill-rule="evenodd" stroke="#e9e56f" stroke-width=".28222"/>
   <path d="m76.969 64.852 1.7494 0.71998-1.7991 0.58485c0.29811-0.37437 0.31657-0.90145 0.0497-1.3048z" fill-rule="evenodd" stroke="#e9e56f" stroke-linejoin="round" stroke-width=".10156"/>
  </g>
  <ellipse transform="matrix(-.42777 -.90389 .98869 -.14999 0 0)" cx="-82.531" cy="60.374" rx="3.4703" ry="5.6035" fill="#3b390d" fill-opacity=".38431" stroke="#e9e56f" stroke-width=".28837"/>
  <g fill="#e9e56f" stroke-width=".28222px" aria-label="Parallel">
   <path d="m89.605 71.591v1.8001h0.21093v-0.79458h0.35251c0.11269 0 0.2196-0.0029 0.32939-0.05779 0.16758-0.08379 0.25427-0.25716 0.25427-0.43919s-0.08668-0.35829-0.25716-0.44497c-0.11269-0.06068-0.22537-0.06357-0.34095-0.06357zm0.21093 0.1907h0.33806c0.07512 0 0.14736 0.0029 0.22248 0.03756 0.1098 0.05779 0.17048 0.17336 0.17048 0.28894s-0.05779 0.22248-0.16181 0.27449c-0.06934 0.03467-0.13869 0.03756-0.20804 0.03756h-0.36406z"/>
   <path d="m91.142 72.226 0.10113 0.13291c0.1098-0.11269 0.25716-0.14736 0.3814-0.14736 0.15603 0 0.23404 0.06646 0.2716 0.12713 0.04334 0.07224 0.04045 0.15892 0.04045 0.22826v0.04623h-0.04045c-0.19648 0-0.40452 0-0.5721 0.06068-0.20804 0.07512-0.3005 0.23115-0.3005 0.37562 0 0.19359 0.16759 0.37562 0.44208 0.37562 0.16181 0 0.32939-0.06068 0.47386-0.17914v0.14447h0.19648v-0.8177c0-0.10691-0.0029-0.20804-0.06357-0.31206-0.08668-0.14158-0.25427-0.2167-0.45942-0.2167-0.17625 0-0.34673 0.0549-0.47097 0.18203zm0.80325 0.5461v0.08957c0 0.06646 0 0.15314-0.08957 0.24849-0.04912 0.04912-0.17336 0.15603-0.34673 0.15603-0.17625 0-0.27738-0.11269-0.27738-0.22826 0-0.09824 0.06646-0.20515 0.23115-0.2456 0.12136-0.02889 0.29761-0.02023 0.4363-0.02023z"/>
   <path d="m92.613 72.073v1.3205h0.20804v-0.64145c0-0.0809 0.0029-0.16759 0.09246-0.30917 0.12136-0.1907 0.27738-0.22248 0.37273-0.22248 0.1098 0 0.17914 0.05201 0.2167 0.09824 0.01734 0.02312 0.026 0.04623 0.04912 0.06646l0.09824-0.19937c-0.08379-0.08668-0.20515-0.14447-0.35251-0.14447-0.19359 0-0.39007 0.09824-0.47675 0.28605l0.0087-0.25427z"/>
   <path d="m94.031 72.226 0.10113 0.13291c0.1098-0.11269 0.25716-0.14736 0.3814-0.14736 0.15603 0 0.23404 0.06646 0.2716 0.12713 0.04334 0.07224 0.04045 0.15892 0.04045 0.22826v0.04623h-0.04045c-0.19648 0-0.40452 0-0.5721 0.06068-0.20804 0.07512-0.3005 0.23115-0.3005 0.37562 0 0.19359 0.16758 0.37562 0.44208 0.37562 0.16181 0 0.32939-0.06068 0.47386-0.17914v0.14447h0.19648v-0.8177c0-0.10691-0.0029-0.20804-0.06357-0.31206-0.08668-0.14158-0.25427-0.2167-0.45942-0.2167-0.17625 0-0.34673 0.0549-0.47097 0.18203zm0.80325 0.5461v0.08957c0 0.06646 0 0.15314-0.08957 0.24849-0.04912 0.04912-0.17336 0.15603-0.34673 0.15603-0.17625 0-0.27738-0.11269-0.27738-0.22826 0-0.09824 0.06646-0.20515 0.23115-0.2456 0.12136-0.02889 0.29761-0.02023 0.4363-0.02023z"/>
   <path d="m95.459 71.472v0.16758h0.37562v1.5863h-0.39296v0.1647h0.99106v-0.1647h-0.39007v-1.7539z"/>
   <path d="m96.903 71.472v0.16758h0.37562v1.5863h-0.39296v0.1647h0.99106v-0.1647h-0.39007v-1.7539z"/>
   <path d="m98.851 72.041c-0.31494 0-0.60678 0.22537-0.60678 0.70501 0 0.44208 0.27449 0.67612 0.63278 0.67612 0.1907 0 0.36118-0.06935 0.47386-0.20515l-0.11558-0.11269c-0.08379 0.09824-0.21093 0.15025-0.34095 0.15025-0.17625 0-0.43341-0.09824-0.44786-0.49409h0.93617c0.0087-0.08957 0.0058-0.17625-0.0087-0.25138-0.06068-0.3554-0.30628-0.46808-0.52298-0.46808zm-0.39874 0.56054c0.04334-0.31206 0.24271-0.40163 0.38429-0.40163 0.21382 0 0.36695 0.18781 0.34095 0.40163z"/>
   <path d="m99.793 71.472v0.16758h0.37563v1.5863h-0.39296v0.1647h0.99106v-0.1647h-0.39007v-1.7539z"/>
  </g>
  <g stroke="#e9e56f">
   <path d="m91.767 64.361 6.0008 0.07171" fill="none" stroke-width=".28222"/>
   <path d="m96.725 63.723 1.7494 0.71998-1.7991 0.58488c0.29814-0.3744 0.31654-0.90148 0.0497-1.3049z" fill="#e9e56f" fill-rule="evenodd" stroke-linejoin="round" stroke-width=".10156"/>
   <path d="m91.767 66.619 6.0008 0.07171" fill="none" stroke-width=".28222"/>
   <path d="m96.725 65.981 1.7494 0.71998-1.7991 0.58485c0.29814-0.37437 0.31654-0.90145 0.0497-1.3048z" fill="#e9e56f" fill-rule="evenodd" stroke-linejoin="round" stroke-width=".10156"/>
  </g>
  <g>
   <path d="m55.502 80.644h-2.7572l-2.7572 2.8366 2.7572 2.8365h5.5144l2.7572-2.8365-2.7572-2.8366z" fill="#0d3b10" fill-opacity=".38431" fill-rule="evenodd" stroke="#6fe978" stroke-width=".28222px"/>
   <g fill="#e9e56f" stroke-width=".28222px" aria-label="Decorator">
    <path d="m49.233 88.524v1.803h0.38718c0.14158 0 0.26294-0.0058 0.39007-0.07223 0.25716-0.13291 0.39874-0.43919 0.39874-0.83215 0-0.34673-0.10402-0.65012-0.33517-0.80036-0.13002-0.08668-0.26005-0.09824-0.41896-0.09824zm0.1907 0.17336h0.2196c0.11269 0 0.22537 0.0058 0.33806 0.09824 0.16758 0.13869 0.22248 0.39585 0.22248 0.653 0 0.34384-0.11269 0.54032-0.25716 0.63856-0.11269 0.07512-0.22537 0.0809-0.33806 0.0809h-0.18492z"/>
    <path d="m51.27 88.975c-0.31494 0-0.60678 0.22537-0.60678 0.70501 0 0.44208 0.27449 0.67612 0.63278 0.67612 0.1907 0 0.36118-0.06935 0.47386-0.20515l-0.11558-0.11269c-0.08379 0.09824-0.21093 0.15025-0.34095 0.15025-0.17625 0-0.43341-0.09824-0.44786-0.49409h0.93617c0.0087-0.08957 0.0058-0.17625-0.0087-0.25138-0.06068-0.3554-0.30628-0.46808-0.52298-0.46808zm-0.39874 0.56054c0.04334-0.31206 0.24271-0.40163 0.38429-0.40163 0.21382 0 0.36695 0.18781 0.34095 0.40163z"/>
    <path d="m53.286 89.223c-0.10402-0.15314-0.28027-0.2456-0.49409-0.2456-0.38718 0-0.66167 0.29183-0.66167 0.68768 0 0.39874 0.27449 0.69346 0.65012 0.69346 0.18203 0 0.36118-0.07512 0.48542-0.21093l-0.11846-0.13869c-0.08957 0.10113-0.2196 0.15892-0.34962 0.15892-0.25716 0-0.45364-0.21382-0.45364-0.52298 0-0.3005 0.19359-0.48831 0.4363-0.48831 0.22537 0 0.33228 0.15603 0.34095 0.17336 0.01156 0.02023-0.0058 0.04912 0.01734 0.06646z"/>
    <path d="m54.743 89.671c0-0.45653-0.28894-0.69346-0.58944-0.69346-0.33517 0-0.62411 0.28894-0.62411 0.69924 0 0.40163 0.28605 0.68479 0.61833 0.68479 0.31206 0 0.59522-0.25138 0.59522-0.69057zm-0.60388-0.5172c0.1907 0 0.39296 0.1647 0.39296 0.52587 0 0.33228-0.1907 0.49987-0.3814 0.49987-0.21093 0-0.40163-0.19648-0.40163-0.52298 0-0.32361 0.18781-0.50276 0.39007-0.50276z"/>
    <path d="m55.144 89.007v1.3205h0.20804v-0.64145c0-0.0809 0.0029-0.16758 0.09246-0.30917 0.12136-0.1907 0.27738-0.22248 0.37273-0.22248 0.1098 0 0.17914 0.05201 0.2167 0.09824 0.01734 0.02312 0.026 0.04623 0.04912 0.06646l0.09824-0.19937c-0.08379-0.08668-0.20515-0.14447-0.35251-0.14447-0.19359 0-0.39007 0.09824-0.47675 0.28605l0.0087-0.25427z"/>
    <path d="m56.563 89.16 0.10113 0.13291c0.1098-0.11269 0.25716-0.14736 0.3814-0.14736 0.15603 0 0.23404 0.06646 0.2716 0.12713 0.04334 0.07223 0.04045 0.15892 0.04045 0.22826v0.04623h-0.04045c-0.19648 0-0.40452 0-0.5721 0.06068-0.20804 0.07512-0.3005 0.23115-0.3005 0.37562 0 0.19359 0.16758 0.37562 0.44208 0.37562 0.16181 0 0.32939-0.06068 0.47386-0.17914v0.14447h0.19648v-0.8177c0-0.10691-0.0029-0.20804-0.06357-0.31206-0.08668-0.14158-0.25427-0.2167-0.45942-0.2167-0.17625 0-0.34673 0.0549-0.47097 0.18203zm0.80325 0.5461v0.08957c0 0.06646 0 0.15314-0.08957 0.24849-0.04912 0.04912-0.17336 0.15603-0.34673 0.15603-0.17625 0-0.27738-0.11269-0.27738-0.22826 0-0.09824 0.06646-0.20515 0.23115-0.2456 0.12136-0.02889 0.29761-0.02023 0.4363-0.02023z"/>
    <path d="m58.291 88.651-0.026 0.3554h-0.31494l-0.0029 0.17047h0.30917c-0.01734 0.22537-0.026 0.45075-0.026 0.67323 0 0.11846 0 0.25138 0.07801 0.36118 0.06357 0.08668 0.1647 0.13869 0.3005 0.13869 0.15603 0 0.30917-0.06646 0.42185-0.14736l-0.06357-0.1647c-0.11269 0.08379-0.2167 0.12136-0.29761 0.12136-0.09824 0-0.19937-0.0549-0.22248-0.21382 0-0.01156-0.0087-0.06068-0.0087-0.25427 0-0.17048 0.0087-0.34384 0.026-0.51431h0.43341v-0.17336h-0.43052s0.02023-0.23693 0.03467-0.31206c0.0029-0.02889 0.026-0.04623 0.01445-0.07801z"/>
    <path d="m60.521 89.671c0-0.45653-0.28894-0.69346-0.58944-0.69346-0.33517 0-0.62411 0.28894-0.62411 0.69924 0 0.40163 0.28605 0.68479 0.61833 0.68479 0.31206 0 0.59522-0.25138 0.59522-0.69057zm-0.60388-0.5172c0.1907 0 0.39296 0.1647 0.39296 0.52587 0 0.33228-0.1907 0.49987-0.3814 0.49987-0.21093 0-0.40163-0.19648-0.40163-0.52298 0-0.32361 0.18781-0.50276 0.39007-0.50276z"/>
    <path d="m60.923 89.007v1.3205h0.20804v-0.64145c0-0.0809 0.0029-0.16758 0.09246-0.30917 0.12136-0.1907 0.27738-0.22248 0.37273-0.22248 0.1098 0 0.17914 0.05201 0.2167 0.09824 0.01734 0.02312 0.02601 0.04623 0.04912 0.06646l0.09824-0.19937c-0.08379-0.08668-0.20515-0.14447-0.35251-0.14447-0.19359 0-0.39007 0.09824-0.47675 0.28605l0.0087-0.25427z"/>
   </g>
   <rect x="70.111" y="79.939" width="11.289" height="5.6444" fill="#0d223b" fill-opacity=".38431" stroke="#6fa6e9" stroke-width=".28222"/>
   <g fill="#e9e56f" stroke-width=".28222px" aria-label="Action">
    <path d="m71.698 90.327h0.19937l0.17625-0.52876h0.56921l0.19937 0.52587h0.21093l-0.69635-1.8319h-0.02312zm0.90149-0.68479h-0.48831l0.23404-0.68479z"/>
    <path d="m74.419 89.223c-0.10402-0.15314-0.28027-0.2456-0.49409-0.2456-0.38718 0-0.66167 0.29183-0.66167 0.68768 0 0.39874 0.27449 0.69346 0.65012 0.69346 0.18203 0 0.36118-0.07512 0.48542-0.21093l-0.11846-0.13869c-0.08957 0.10113-0.2196 0.15892-0.34962 0.15892-0.25716 0-0.45364-0.21382-0.45364-0.52298 0-0.3005 0.19359-0.48831 0.4363-0.48831 0.22537 0 0.33228 0.15603 0.34095 0.17336 0.01156 0.02023-0.0058 0.04912 0.01734 0.06646z"/>
    <path d="m75.09 88.651-0.026 0.3554h-0.31494l-0.0029 0.17047h0.30917c-0.01734 0.22537-0.026 0.45075-0.026 0.67323 0 0.11846 0 0.25138 0.07801 0.36118 0.06357 0.08668 0.1647 0.13869 0.3005 0.13869 0.15603 0 0.30917-0.06646 0.42185-0.14736l-0.06357-0.1647c-0.11269 0.08379-0.2167 0.12136-0.29761 0.12136-0.09824 0-0.19937-0.0549-0.22248-0.21382 0-0.01156-0.0087-0.06068-0.0087-0.25427 0-0.17048 0.0087-0.34384 0.026-0.51431h0.43341v-0.17336h-0.43052s0.02022-0.23693 0.03467-0.31206c0.0029-0.02889 0.026-0.04623 0.01445-0.07801z"/>
    <path d="m76.298 89.004v0.17048h0.31783v0.98529h-0.33517v0.1647h0.85526v-0.1647h-0.30917v-1.1558zm0.42763-0.5721c-0.08379 0-0.15025 0.06646-0.15025 0.14736 0 0.0809 0.06646 0.14736 0.15025 0.14736 0.08379 0 0.15025-0.06646 0.15025-0.14736s-0.06646-0.14736-0.15025-0.14736z"/>
    <path d="m78.765 89.671c0-0.45653-0.28894-0.69346-0.58944-0.69346-0.33517 0-0.62411 0.28894-0.62411 0.69924 0 0.40163 0.28605 0.68479 0.61833 0.68479 0.31206 0 0.59522-0.25138 0.59522-0.69057zm-0.60388-0.5172c0.1907 0 0.39296 0.1647 0.39296 0.52587 0 0.33228-0.1907 0.49987-0.3814 0.49987-0.21093 0-0.40163-0.19648-0.40163-0.52298 0-0.32361 0.18781-0.50276 0.39007-0.50276z"/>
    <path d="m79.077 90.324h0.21093v-0.75991c0-0.08668 0.01156-0.15314 0.06646-0.22537 0.04912-0.06646 0.17625-0.18492 0.31494-0.18492 0.06646 0 0.13291 0.02889 0.17914 0.08379 0.07223 0.08668 0.07223 0.19937 0.07223 0.29183v0.79459h0.20515v-0.80036c0-0.10113 0-0.21093-0.04623-0.31783-0.06646-0.14736-0.20226-0.23115-0.35251-0.23115-0.17914 0-0.34095 0.11558-0.43919 0.26294v-0.23115h-0.21093z"/>
   </g>
   <rect transform="matrix(.90397 .4276 -.90397 .4276 0 0)" x="146.26" y="41.012" width="6.7576" height="6.7576" fill="#3b390d" fill-opacity=".38431" stroke="#e9e56f" stroke-width=".32098"/>
   <g fill="#e9e56f" stroke-width=".28222px" aria-label="Condition">
    <path d="m89.955 88.51c-0.28027 0-0.68479 0.20515-0.68479 0.9275 0 0.69346 0.38718 0.91883 0.68479 0.91883 0.21382 0 0.41318-0.11269 0.52587-0.29761l-0.14736-0.09535c-0.08379 0.1358-0.22826 0.2167-0.36695 0.2167-0.26582 0-0.49987-0.27449-0.49987-0.7628 0-0.47675 0.22826-0.74547 0.48253-0.74547 0.13869 0 0.2716 0.08379 0.34384 0.21093 0.0058 0.0087 0.01156 0.01734 0.01156 0.02889 0 0.0087-0.0029 0.01445-0.0029 0.02312 0 0.0029 0 0.01734 0.01445 0.026l0.1907-0.09246c-0.09535-0.2167-0.31206-0.35829-0.55188-0.35829z"/>
    <path d="m91.929 89.671c0-0.45653-0.28894-0.69346-0.58944-0.69346-0.33517 0-0.62411 0.28894-0.62411 0.69924 0 0.40163 0.28605 0.68479 0.61833 0.68479 0.31206 0 0.59522-0.25138 0.59522-0.69057zm-0.60388-0.5172c0.1907 0 0.39296 0.1647 0.39296 0.52587 0 0.33228-0.1907 0.49987-0.3814 0.49987-0.21093 0-0.40163-0.19648-0.40163-0.52298 0-0.32361 0.18781-0.50276 0.39007-0.50276z"/>
    <path d="m92.241 90.324h0.21093v-0.75991c0-0.08668 0.01156-0.15314 0.06646-0.22537 0.04912-0.06646 0.17625-0.18492 0.31494-0.18492 0.06646 0 0.13291 0.02889 0.17914 0.08379 0.07224 0.08668 0.07224 0.19937 0.07224 0.29183v0.79459h0.20515v-0.80036c0-0.10113 0-0.21093-0.04623-0.31783-0.06646-0.14736-0.20226-0.23115-0.35251-0.23115-0.17914 0-0.34095 0.11558-0.43919 0.26294v-0.23115h-0.21093z"/>
    <path d="m94.561 89.197c-0.06357-0.1358-0.20515-0.22537-0.38718-0.22537-0.25138 0-0.55765 0.17914-0.55765 0.6819 0 0.48831 0.2716 0.70212 0.52587 0.70212 0.16758 0 0.32361-0.09535 0.40741-0.24271v0.11558c0 0.03178 0.0029 0.06357 0.01156 0.09535h0.20804c-0.01156-0.03756-0.01156-0.0809-0.01156-0.12136l-0.0029-1.7163c0-0.01734 0-0.02312 0.01156-0.04045 0.0058-0.0087 0.01734-0.02312 0.01445-0.04334h-0.2196zm-0.37851-0.0549c0.11558 0 0.28605 0.06068 0.33806 0.25716 0.01734 0.06068 0.02312 0.13291 0.02312 0.28027 0 0.10113-0.0058 0.17336-0.02889 0.24271-0.04912 0.15603-0.18781 0.24849-0.32361 0.24849-0.15025 0-0.37273-0.11558-0.37273-0.54899 0-0.37851 0.21093-0.47964 0.36406-0.47964z"/>
    <path d="m95.24 89.004v0.17048h0.31783v0.98529h-0.33517v0.1647h0.85526v-0.1647h-0.30917v-1.1558zm0.42763-0.5721c-0.08379 0-0.15025 0.06646-0.15025 0.14736 0 0.0809 0.06646 0.14736 0.15025 0.14736 0.08379 0 0.15025-0.06646 0.15025-0.14736s-0.06646-0.14736-0.15025-0.14736z"/>
    <path d="m96.922 88.651-0.026 0.3554h-0.31494l-0.0029 0.17047h0.30917c-0.01734 0.22537-0.026 0.45075-0.026 0.67323 0 0.11846 0 0.25138 0.07801 0.36118 0.06357 0.08668 0.1647 0.13869 0.3005 0.13869 0.15603 0 0.30917-0.06646 0.42185-0.14736l-0.06357-0.1647c-0.11269 0.08379-0.2167 0.12136-0.29761 0.12136-0.09824 0-0.19937-0.0549-0.22248-0.21382 0-0.01156-0.0087-0.06068-0.0087-0.25427 0-0.17048 0.0087-0.34384 0.026-0.51431h0.43341v-0.17336h-0.43052s0.02023-0.23693 0.03467-0.31206c0.0029-0.02889 0.026-0.04623 0.01445-0.07801z"/>
    <path d="m98.129 89.004v0.17048h0.31784v0.98529h-0.33517v0.1647h0.85526v-0.1647h-0.30917v-1.1558zm0.42763-0.5721c-0.08379 0-0.15025 0.06646-0.15025 0.14736 0 0.0809 0.06646 0.14736 0.15025 0.14736 0.08379 0 0.15025-0.06646 0.15025-0.14736s-0.06646-0.14736-0.15025-0.14736z"/>
    <path d="m100.6 89.671c0-0.45653-0.28894-0.69346-0.58944-0.69346-0.33517 0-0.62411 0.28894-0.62411 0.69924 0 0.40163 0.28605 0.68479 0.61833 0.68479 0.31206 0 0.59522-0.25138 0.59522-0.69057zm-0.60388-0.5172c0.1907 0 0.39295 0.1647 0.39295 0.52587 0 0.33228-0.1907 0.49987-0.3814 0.49987-0.21092 0-0.40162-0.19648-0.40162-0.52298 0-0.32361 0.18781-0.50276 0.39007-0.50276z"/>
    <path d="m100.91 90.324h0.21092v-0.75991c0-0.08668 0.0116-0.15314 0.0665-0.22537 0.0491-0.06646 0.17625-0.18492 0.31494-0.18492 0.0665 0 0.13292 0.02889 0.17915 0.08379 0.0722 0.08668 0.0722 0.19937 0.0722 0.29183v0.79459h0.20515v-0.80036c0-0.10113 0-0.21093-0.0462-0.31783-0.0665-0.14736-0.20226-0.23115-0.35251-0.23115-0.17914 0-0.34095 0.11558-0.43919 0.26294v-0.23115h-0.21092z"/>
   </g>
  </g>
  <g transform="matrix(.635 0 0 .635 -393.99 -177.84)">
   <g fill="none" stroke="#e9e56f" stroke-width=".4">
    <path d="m705 382.36v-2h2"/>
    <path d="m710.8 382.36v-2h-2"/>
    <path d="m705 384.16v2h2"/>
    <path d="m710.8 384.16v2h-2"/>
   </g>
   <rect x="706.26" y="381.64" width="3.3438" height="3.3438" fill="#e9e56f"/>
  </g>
 </g>
</svg>
