<svg width="82.433mm" height="39.734mm" version="1.1" viewBox="0 0 82.433 39.734" xmlns="http://www.w3.org/2000/svg">
 <g transform="translate(52.956 -52.436)">
  <g fill="#e9e56f" aria-label="IF action">
   <g fill="none" stroke="#d54747" stroke-width=".28222px">
    <path d="m-34.982 62.154-4.3405 14.29"/>
    <path d="m-39.322 76.394 4.3654-4.9484"/>
    <path d="m-34.982 89.429-4.3405-13.161"/>
    <path d="m-39.322 76.318 4.3654 4.9484"/>
    <path d="m-22.376 62.302h4.3392"/>
    <path d="m-22.411 62.32 4.3392-6.8262"/>
    <path d="m-22.411 62.267 4.3392 8.5196"/>
    <path d="m-22.359 80.928 4.2906-4.2532"/>
    <path d="m-22.359 80.908 4.2906 4.2532"/>
    <path d="m-5.4427 62.302h4.3392"/>
    <path d="m11.491 62.302h4.3392"/>
    <path d="m11.491 73.873h4.3392"/>
    <path d="m11.491 83.469h4.3392"/>
    <path d="m-5.4261 76.694 4.2906-2.842"/>
    <path d="m-5.4261 76.675 4.2906 2.2776"/>
    <path d="m-5.4261 85.261 4.2906-1.9954"/>
    <path d="m-5.4261 85.241 4.2906 3.1243"/>
   </g>
   <rect x="-51.9" y="74.377" width="12.587" height="4.0366" fill="#3b390d" fill-opacity=".38431" stroke="#e9e56f" stroke-width=".11289"/>
   <g fill="#e9e56f" stroke-width=".28222px" aria-label="Goal:Attack">
    <path d="m-49.835 75.819c-0.1464 0-0.4251 0.09172-0.4251 0.57326 0 0.41628 0.23283 0.55386 0.42333 0.55386 0.10231 0 0.22049-0.03704 0.32279-0.11465v-0.42862h-0.31221v0.10583h0.19932v0.26282c-0.06174 0.0441-0.13229 0.06703-0.19756 0.06703-0.07232 0-0.14993-0.02822-0.2099-0.09701-0.09172-0.10407-0.10407-0.25929-0.10407-0.37394 0-0.1023 0.01235-0.20108 0.05468-0.28222 0.05644-0.1076 0.15522-0.15699 0.24694-0.15699 0.09878 0 0.17639 0.05468 0.2099 0.12876 0.0053 0.01235 0.01058 0.02646 0.02469 0.03528l0.08643-0.08819c-0.0635-0.11465-0.18344-0.18521-0.31926-0.18521z"/>
    <path d="m-48.63 76.53c0-0.2787-0.17639-0.42333-0.35983-0.42333-0.20461 0-0.381 0.17639-0.381 0.42686 0 0.24518 0.17462 0.41804 0.37747 0.41804 0.1905 0 0.36336-0.15346 0.36336-0.42157zm-0.36865-0.31574c0.11642 0 0.23989 0.10054 0.23989 0.32103 0 0.20285-0.11642 0.30515-0.23283 0.30515-0.12876 0-0.24518-0.11994-0.24518-0.31926 0-0.19756 0.11465-0.30692 0.23812-0.30692z"/>
    <path d="m-48.401 76.217 0.06174 0.08114c0.06703-0.06879 0.15699-0.08996 0.23283-0.08996 0.09525 0 0.14288 0.04057 0.16581 0.07761 0.02646 0.0441 0.02469 0.09701 0.02469 0.13935v0.02822h-0.02469c-0.11994 0-0.24694 0-0.34925 0.03704-0.127 0.04586-0.18344 0.14111-0.18344 0.22931 0 0.11818 0.10231 0.22931 0.26988 0.22931 0.09878 0 0.20108-0.03704 0.28928-0.10936v0.08819h0.11994v-0.49918c0-0.06526-0.0018-0.127-0.03881-0.1905-0.05292-0.08643-0.15522-0.13229-0.28046-0.13229-0.1076 0-0.21167 0.03351-0.28751 0.11112zm0.49036 0.33338v0.05468c0 0.04057 0 0.09349-0.05468 0.1517-0.02999 0.02999-0.10583 0.09525-0.21167 0.09525-0.1076 0-0.16933-0.06879-0.16933-0.13935 0-0.05997 0.04057-0.12524 0.14111-0.14993 0.07408-0.01764 0.18168-0.01235 0.26635-0.01235z"/>
    <path d="m-47.529 75.757v0.1023h0.2293v0.96838h-0.23989v0.10054h0.60501v-0.10054h-0.23812v-1.0707z"/>
    <path d="m-46.272 76.285c0-0.05468-0.04586-0.10054-0.10407-0.10054s-0.10407 0.04586-0.10407 0.10054c0 0.05644 0.04586 0.10054 0.10407 0.10054 0.05821 0 0.10407-0.0441 0.10407-0.10054zm0 0.56268c0-0.05468-0.04586-0.10054-0.10407-0.10054s-0.10407 0.04586-0.10407 0.10054c0 0.05644 0.04586 0.10231 0.10407 0.10231 0.05821 0 0.10407-0.04586 0.10407-0.10231z"/>
    <path d="m-45.889 76.93h0.12171l0.1076-0.32279h0.34749l0.12171 0.32103h0.12876l-0.4251-1.1183h-0.01411zm0.55033-0.41804h-0.2981l0.14288-0.41804z"/>
    <path d="m-44.7 75.907-0.01587 0.21696h-0.19226l-0.0018 0.10407h0.18874c-0.01058 0.13758-0.01588 0.27517-0.01588 0.41099 0 0.07232 0 0.15346 0.04763 0.22049 0.03881 0.05292 0.10054 0.08467 0.18344 0.08467 0.09525 0 0.18874-0.04057 0.25753-0.08996l-0.03881-0.10054c-0.06879 0.05115-0.13229 0.07408-0.18168 0.07408-0.05997 0-0.12171-0.03351-0.13582-0.13053 0-0.0071-0.0053-0.03704-0.0053-0.15522 0-0.10407 0.0053-0.2099 0.01588-0.31397h0.26458v-0.10583h-0.26282s0.01235-0.14464 0.02117-0.1905c0.0018-0.01764 0.01588-0.02822 0.0088-0.04762z"/>
    <path d="m-43.818 75.907-0.01588 0.21696h-0.19226l-0.0018 0.10407h0.18874c-0.01058 0.13758-0.01588 0.27517-0.01588 0.41099 0 0.07232 0 0.15346 0.04762 0.22049 0.03881 0.05292 0.10054 0.08467 0.18344 0.08467 0.09525 0 0.18874-0.04057 0.25753-0.08996l-0.03881-0.10054c-0.06879 0.05115-0.13229 0.07408-0.18168 0.07408-0.05997 0-0.12171-0.03351-0.13582-0.13053 0-0.0071-0.0053-0.03704-0.0053-0.15522 0-0.10407 0.0053-0.2099 0.01588-0.31397h0.26458v-0.10583h-0.26282s0.01235-0.14464 0.02117-0.1905c0.0018-0.01764 0.01588-0.02822 0.0088-0.04762z"/>
    <path d="m-43.109 76.217 0.06174 0.08114c0.06703-0.06879 0.15699-0.08996 0.23283-0.08996 0.09525 0 0.14288 0.04057 0.1658 0.07761 0.02646 0.0441 0.0247 0.09701 0.0247 0.13935v0.02822h-0.0247c-0.11994 0-0.24694 0-0.34925 0.03704-0.127 0.04586-0.18344 0.14111-0.18344 0.22931 0 0.11818 0.10231 0.22931 0.26988 0.22931 0.09878 0 0.20108-0.03704 0.28928-0.10936v0.08819h0.11994v-0.49918c0-0.06526-0.0018-0.127-0.0388-0.1905-0.05292-0.08643-0.15522-0.13229-0.28046-0.13229-0.1076 0-0.21167 0.03351-0.28751 0.11112zm0.49036 0.33338v0.05468c0 0.04057 0 0.09349-0.05468 0.1517-0.02999 0.02999-0.10583 0.09525-0.21167 0.09525-0.1076 0-0.16933-0.06879-0.16933-0.13935 0-0.05997 0.04057-0.12524 0.14111-0.14993 0.07408-0.01764 0.18168-0.01235 0.26635-0.01235z"/>
    <path d="m-41.582 76.256c-0.0635-0.09349-0.1711-0.14993-0.30162-0.14993-0.23636 0-0.40393 0.17815-0.40393 0.4198 0 0.24342 0.16757 0.42333 0.39688 0.42333 0.11112 0 0.22049-0.04586 0.29633-0.12876l-0.07232-0.08467c-0.05468 0.06174-0.13406 0.09701-0.21343 0.09701-0.15699 0-0.27693-0.13053-0.27693-0.31926 0-0.18344 0.11818-0.2981 0.26635-0.2981 0.13758 0 0.20285 0.09525 0.20814 0.10583 0.0071 0.01235-0.0035 0.02999 0.01058 0.04057z"/>
    <path d="m-41.388 75.757v1.173h0.127v-0.30515l0.1076-0.09878 0.32808 0.41099s0.06879-0.0071 0.15169-0.0071h0.01235l-0.39511-0.48154 0.34043-0.31926h-0.04586c-0.03175 0-0.0635-0.0018-0.09525-0.01058l-0.40393 0.37571v-0.69144c0-0.0071 0.0018-0.01235 0.0071-0.02117 0.0053-0.0053 0.01235-0.01235 0.01058-0.02469z"/>
   </g>
   <rect x="-34.967" y="60.266" width="12.587" height="4.0366" fill="#3b390d" fill-opacity=".38431" stroke="#e9e56f" stroke-width=".11289"/>
   <g fill="#e9e56f" stroke-width=".28222px" aria-label="MoveTo">
    <path d="m-31.626 61.718v1.1007h0.11642v-0.82374l0.22225 0.43568h0.04586l0.23812-0.44274v0.83079h0.11642v-1.1007h-0.09172l-0.27693 0.53799-0.2734-0.53799z"/>
    <path d="m-30.003 62.419c0-0.27869-0.17639-0.42333-0.35983-0.42333-0.20461 0-0.381 0.17639-0.381 0.42686 0 0.24518 0.17462 0.41804 0.37747 0.41804 0.1905 0 0.36336-0.15346 0.36336-0.42157zm-0.36865-0.31574c0.11642 0 0.23989 0.10054 0.23989 0.32103 0 0.20285-0.11642 0.30515-0.23283 0.30515-0.12876 0-0.24518-0.11994-0.24518-0.31926 0-0.19756 0.11465-0.30692 0.23812-0.30692z"/>
    <path d="m-29.864 62.011 0.31926 0.81315h0.10054l0.19579-0.46038c0.04763-0.11289 0.09349-0.22931 0.11994-0.35278h-0.11465c-0.02117 0.11818-0.0635 0.2293-0.10936 0.33514l-0.12876 0.29986-0.23283-0.58914c-0.0018-0.0035-0.0035-0.0071-0.0035-0.01058 0-0.01058 0.0088-0.02117 0.0053-0.03528z"/>
    <path d="m-28.596 61.993c-0.19226 0-0.37042 0.13758-0.37042 0.43039 0 0.26988 0.16757 0.41275 0.38629 0.41275 0.11642 0 0.22049-0.04233 0.28928-0.12524l-0.07055-0.06879c-0.05115 0.05997-0.12876 0.09172-0.20814 0.09172-0.1076 0-0.26458-0.05997-0.2734-0.30162h0.5715c0.0053-0.05468 0.0035-0.1076-0.0053-0.15346-0.03704-0.21696-0.18697-0.28575-0.31926-0.28575zm-0.24342 0.34219c0.02646-0.1905 0.14817-0.24518 0.2346-0.24518 0.13053 0 0.22401 0.11465 0.20814 0.24518z"/>
    <path d="m-28.114 61.718v0.11112h0.31044v0.98954h0.12524v-0.98954h0.32456v-0.11112z"/>
    <path d="m-26.476 62.419c0-0.27869-0.17639-0.42333-0.35983-0.42333-0.20461 0-0.381 0.17639-0.381 0.42686 0 0.24518 0.17462 0.41804 0.37747 0.41804 0.1905 0 0.36336-0.15346 0.36336-0.42157zm-0.36865-0.31574c0.11642 0 0.23989 0.10054 0.23989 0.32103 0 0.20285-0.11642 0.30515-0.23283 0.30515-0.12876 0-0.24518-0.11994-0.24518-0.31926 0-0.19756 0.11465-0.30692 0.23812-0.30692z"/>
   </g>
   <rect x="-34.967" y="69.862" width="12.587" height="4.0366" fill="#3b390d" fill-opacity=".38431" stroke="#e9e56f" stroke-width=".11289"/>
   <g fill="#e9e56f" stroke-width=".28222px" aria-label="Reload Weapon">
    <path d="m-34.138 71.314v1.0989h0.12347v-0.48507h0.21343l0.24342 0.48507h0.13935l-0.254-0.4886c0.13229-0.03704 0.22401-0.16228 0.22401-0.30868 0-0.10936-0.05468-0.21343-0.15699-0.26458-0.06879-0.03528-0.13758-0.03704-0.2099-0.03704zm0.12347 0.11642h0.19932c0.04586 0 0.08996 0.0018 0.13582 0.02293 0.06879 0.03528 0.10407 0.10583 0.10407 0.17639 0 0.07055-0.03351 0.13582-0.09701 0.16757-0.04233 0.02117-0.08467 0.02293-0.12876 0.02293h-0.21343z"/>
    <path d="m-32.9 71.589c-0.19226 0-0.37042 0.13758-0.37042 0.43039 0 0.26988 0.16757 0.41275 0.38629 0.41275 0.11642 0 0.22049-0.04233 0.28928-0.12524l-0.07055-0.06879c-0.05115 0.05997-0.12876 0.09172-0.20814 0.09172-0.1076 0-0.26458-0.05997-0.2734-0.30162h0.5715c0.0053-0.05468 0.0035-0.1076-0.0053-0.15346-0.03704-0.21696-0.18697-0.28575-0.31926-0.28575zm-0.24342 0.3422c0.02646-0.1905 0.14817-0.24518 0.2346-0.24518 0.13053 0 0.22401 0.11465 0.20814 0.24518z"/>
    <path d="m-32.325 71.242v0.10231h0.22931v0.96838h-0.23989v0.10054h0.60501v-0.10054h-0.23812v-1.0707z"/>
    <path d="m-30.78 72.014c0-0.2787-0.17639-0.42333-0.35983-0.42333-0.20461 0-0.381 0.17639-0.381 0.42686 0 0.24518 0.17462 0.41804 0.37747 0.41804 0.1905 0 0.36336-0.15346 0.36336-0.42157zm-0.36865-0.31574c0.11642 0 0.23989 0.10054 0.23989 0.32103 0 0.20285-0.11642 0.30515-0.23283 0.30515-0.12876 0-0.24518-0.11994-0.24518-0.31926 0-0.19756 0.11465-0.30692 0.23812-0.30692z"/>
    <path d="m-30.55 71.702 0.06174 0.08114c0.06703-0.06879 0.15699-0.08996 0.23283-0.08996 0.09525 0 0.14288 0.04057 0.16581 0.07761 0.02646 0.0441 0.02469 0.09701 0.02469 0.13935v0.02822h-0.02469c-0.11994 0-0.24694 0-0.34925 0.03704-0.127 0.04586-0.18344 0.14111-0.18344 0.22931 0 0.11818 0.10231 0.2293 0.26988 0.2293 0.09878 0 0.20108-0.03704 0.28928-0.10936v0.08819h0.11994v-0.49918c0-0.06526-0.0018-0.127-0.0388-0.1905-0.05292-0.08643-0.15522-0.13229-0.28046-0.13229-0.1076 0-0.21167 0.03351-0.28751 0.11112zm0.49036 0.33338v0.05468c0 0.04057 0 0.09349-0.05468 0.15169-0.02999 0.02999-0.10583 0.09525-0.21167 0.09525-0.1076 0-0.16933-0.06879-0.16933-0.13935 0-0.05997 0.04057-0.12524 0.14111-0.14993 0.07408-0.01764 0.18168-0.01235 0.26635-0.01235z"/>
    <path d="m-29.173 71.725c-0.03881-0.0829-0.12524-0.13758-0.23636-0.13758-0.15346 0-0.34043 0.10936-0.34043 0.41628 0 0.2981 0.16581 0.42862 0.32103 0.42862 0.10231 0 0.19756-0.05821 0.24871-0.14817v0.07055c0 0.0194 0.0018 0.03881 0.0071 0.05821h0.127c-0.0071-0.02293-0.0071-0.04939-0.0071-0.07408l-0.0018-1.0478c0-0.01058 0-0.01411 0.0071-0.02469 0.0035-0.0053 0.01058-0.01411 0.0088-0.02646h-0.13406zm-0.23107-0.03351c0.07056 0 0.17462 0.03704 0.20638 0.15699 0.01058 0.03704 0.01411 0.08114 0.01411 0.1711 0 0.06174-0.0035 0.10583-0.01764 0.14817-0.02999 0.09525-0.11465 0.15169-0.19756 0.15169-0.09172 0-0.22754-0.07055-0.22754-0.33514 0-0.23107 0.12876-0.2928 0.22225-0.2928z"/>
    <path d="m-28.033 71.314 0.17639 1.1077h0.04939l0.19226-0.72672 0.18874 0.72672h0.04939l0.17286-1.1077h-0.10407l-0.10054 0.74612-0.17815-0.66499h-0.03704l-0.17639 0.66322-0.11994-0.74436z"/>
    <path d="m-26.726 71.589c-0.19226 0-0.37042 0.13758-0.37042 0.43039 0 0.26988 0.16757 0.41275 0.38629 0.41275 0.11642 0 0.22049-0.04233 0.28928-0.12524l-0.07056-0.06879c-0.05115 0.05997-0.12876 0.09172-0.20814 0.09172-0.1076 0-0.26458-0.05997-0.2734-0.30162h0.5715c0.0053-0.05468 0.0035-0.1076-0.0053-0.15346-0.03704-0.21696-0.18697-0.28575-0.31926-0.28575zm-0.24342 0.3422c0.02646-0.1905 0.14817-0.24518 0.2346-0.24518 0.13053 0 0.22401 0.11465 0.20814 0.24518z"/>
    <path d="m-26.141 71.702 0.06174 0.08114c0.06703-0.06879 0.15699-0.08996 0.23283-0.08996 0.09525 0 0.14288 0.04057 0.1658 0.07761 0.02646 0.0441 0.0247 0.09701 0.0247 0.13935v0.02822h-0.0247c-0.11994 0-0.24694 0-0.34925 0.03704-0.127 0.04586-0.18344 0.14111-0.18344 0.22931 0 0.11818 0.1023 0.2293 0.26988 0.2293 0.09878 0 0.20108-0.03704 0.28928-0.10936v0.08819h0.11994v-0.49918c0-0.06526-0.0018-0.127-0.03881-0.1905-0.05292-0.08643-0.15522-0.13229-0.28046-0.13229-0.1076 0-0.21167 0.03351-0.28751 0.11112zm0.49036 0.33338v0.05468c0 0.04057 0 0.09349-0.05468 0.15169-0.02999 0.02999-0.10583 0.09525-0.21167 0.09525-0.1076 0-0.16933-0.06879-0.16933-0.13935 0-0.05997 0.04057-0.12524 0.14111-0.14993 0.07408-0.01764 0.18168-0.01235 0.26635-0.01235z"/>
    <path d="m-25.313 71.608 0.0018 1.0989h0.12876v-0.4004c0.05468 0.07937 0.14464 0.12876 0.24165 0.12876 0.16581 0 0.33867-0.13935 0.33867-0.43392 0-0.28399-0.16757-0.41099-0.32632-0.41099-0.10407 0-0.20108 0.05292-0.25576 0.14111v-0.12347zm0.3369 0.08996c0.07056 0 0.24165 0.03704 0.24165 0.32985 0 0.254-0.1658 0.29457-0.24165 0.29457-0.07585 0-0.15346-0.0388-0.18521-0.11112-0.02293-0.05468-0.02293-0.12171-0.02293-0.23812 0-0.06703 0.0035-0.11642 0.02117-0.15875 0.03175-0.07232 0.10583-0.11642 0.18697-0.11642z"/>
    <path d="m-23.724 72.014c0-0.2787-0.17639-0.42333-0.35983-0.42333-0.20461 0-0.381 0.17639-0.381 0.42686 0 0.24518 0.17462 0.41804 0.37747 0.41804 0.1905 0 0.36336-0.15346 0.36336-0.42157zm-0.36865-0.31574c0.11642 0 0.23989 0.10054 0.23989 0.32103 0 0.20285-0.11642 0.30515-0.23283 0.30515-0.12876 0-0.24518-0.11994-0.24518-0.31926 0-0.19756 0.11465-0.30692 0.23812-0.30692z"/>
    <path d="m-23.534 72.413h0.12876v-0.4639c0-0.05292 0.0071-0.09349 0.04057-0.13758 0.02999-0.04057 0.1076-0.11289 0.19226-0.11289 0.04057 0 0.08114 0.01764 0.10936 0.05115 0.0441 0.05292 0.0441 0.12171 0.0441 0.17815v0.48507h0.12524v-0.4886c0-0.06174 0-0.12876-0.02822-0.19403-0.04057-0.08996-0.12347-0.14111-0.2152-0.14111-0.10936 0-0.20814 0.07056-0.26811 0.16051v-0.14111h-0.12877z"/>
   </g>
   <rect x="-34.967" y="78.893" width="12.587" height="4.0366" fill="#3b390d" fill-opacity=".38431" stroke="#e9e56f" stroke-width=".11289"/>
   <g fill="#e9e56f" stroke-width=".28222px" aria-label="DrawWeapon">
    <path d="m-32.732 80.345v1.1007h0.23636c0.08643 0 0.16051-0.0035 0.23812-0.0441 0.15699-0.08114 0.24342-0.26811 0.24342-0.508 0-0.21167-0.0635-0.39688-0.20461-0.4886-0.07937-0.05292-0.15875-0.05997-0.25576-0.05997zm0.11642 0.10583h0.13406c0.06879 0 0.13758 0.0035 0.20638 0.05997 0.10231 0.08467 0.13582 0.24165 0.13582 0.39864 0 0.2099-0.06879 0.32985-0.15699 0.38982-0.06879 0.04586-0.13758 0.04939-0.20638 0.04939h-0.11289z"/>
    <path d="m-31.769 80.64v0.8061h0.127v-0.39158c0-0.04939 0.0018-0.10231 0.05645-0.18874 0.07408-0.11642 0.16933-0.13582 0.22754-0.13582 0.06703 0 0.10936 0.03175 0.13229 0.05997 0.01058 0.01411 0.01588 0.02822 0.02999 0.04057l0.05997-0.12171c-0.05115-0.05292-0.12524-0.08819-0.21519-0.08819-0.11818 0-0.23812 0.05997-0.29104 0.17462l0.0053-0.15522z"/>
    <path d="m-30.903 80.733 0.06174 0.08114c0.06703-0.06879 0.15699-0.08996 0.23283-0.08996 0.09525 0 0.14288 0.04057 0.16581 0.07761 0.02646 0.0441 0.02469 0.09701 0.02469 0.13935v0.02822h-0.02469c-0.11994 0-0.24694 0-0.34925 0.03704-0.127 0.04586-0.18344 0.14111-0.18344 0.2293 0 0.11818 0.10231 0.22931 0.26988 0.22931 0.09878 0 0.20108-0.03704 0.28928-0.10936v0.08819h0.11994v-0.49918c0-0.06526-0.0018-0.127-0.0388-0.1905-0.05292-0.08643-0.15522-0.13229-0.28046-0.13229-0.1076 0-0.21167 0.03351-0.28751 0.11112zm0.49036 0.33338v0.05468c0 0.04057 0 0.09349-0.05468 0.1517-0.02999 0.02999-0.10583 0.09525-0.21167 0.09525-0.1076 0-0.16933-0.06879-0.16933-0.13935 0-0.05997 0.04057-0.12524 0.14111-0.14993 0.07408-0.01764 0.18168-0.01235 0.26635-0.01235z"/>
    <path d="m-30.153 80.638 0.16228 0.80786h0.11465l0.14111-0.52211 0.14993 0.52211h0.11818c0.05468-0.26635 0.10054-0.53622 0.13406-0.8061h-0.11642c0.0035 0.09701-0.0053 0.18697-0.07585 0.64558l-0.16933-0.5715h-0.07761l-0.13935 0.57326-0.11642-0.58208c-0.0035-0.01235-0.0035-0.01764 0.0018-0.03175 0.0018-0.0088 0.0071-0.02117 0.0018-0.03528z"/>
    <path d="m-29.268 80.345 0.17639 1.1077h0.04939l0.19226-0.72672 0.18874 0.72672h0.04939l0.17286-1.1077h-0.10407l-0.10054 0.74612-0.17815-0.66499h-0.03704l-0.17639 0.66322-0.11994-0.74436z"/>
    <path d="m-27.961 80.62c-0.19226 0-0.37042 0.13758-0.37042 0.43039 0 0.26988 0.16757 0.41275 0.38629 0.41275 0.11642 0 0.22049-0.04233 0.28928-0.12524l-0.07056-0.06879c-0.05115 0.05997-0.12876 0.09172-0.20814 0.09172-0.1076 0-0.26458-0.05997-0.2734-0.30162h0.5715c0.0053-0.05468 0.0035-0.1076-0.0053-0.15346-0.03704-0.21696-0.18697-0.28575-0.31926-0.28575zm-0.24342 0.34219c0.02646-0.1905 0.14817-0.24518 0.2346-0.24518 0.13053 0 0.22401 0.11465 0.20814 0.24518z"/>
    <path d="m-27.375 80.733 0.06174 0.08114c0.06703-0.06879 0.15699-0.08996 0.23283-0.08996 0.09525 0 0.14288 0.04057 0.16581 0.07761 0.02646 0.0441 0.02469 0.09701 0.02469 0.13935v0.02822h-0.02469c-0.11994 0-0.24694 0-0.34925 0.03704-0.127 0.04586-0.18344 0.14111-0.18344 0.2293 0 0.11818 0.10231 0.22931 0.26988 0.22931 0.09878 0 0.20108-0.03704 0.28928-0.10936v0.08819h0.11994v-0.49918c0-0.06526-0.0018-0.127-0.0388-0.1905-0.05292-0.08643-0.15522-0.13229-0.28046-0.13229-0.1076 0-0.21167 0.03351-0.28751 0.11112zm0.49036 0.33338v0.05468c0 0.04057 0 0.09349-0.05468 0.1517-0.02999 0.02999-0.10583 0.09525-0.21167 0.09525-0.1076 0-0.16933-0.06879-0.16933-0.13935 0-0.05997 0.04057-0.12524 0.14111-0.14993 0.07408-0.01764 0.18168-0.01235 0.26635-0.01235z"/>
    <path d="m-26.548 80.64 0.0018 1.0989h0.12876v-0.4004c0.05468 0.07938 0.14464 0.12876 0.24165 0.12876 0.1658 0 0.33867-0.13935 0.33867-0.43392 0-0.28399-0.16757-0.41099-0.32632-0.41099-0.10407 0-0.20108 0.05292-0.25576 0.14111v-0.12347zm0.3369 0.08996c0.07056 0 0.24165 0.03704 0.24165 0.32985 0 0.254-0.16581 0.29457-0.24165 0.29457-0.07585 0-0.15346-0.03881-0.18521-0.11112-0.02293-0.05468-0.02293-0.12171-0.02293-0.23812 0-0.06703 0.0035-0.11642 0.02117-0.15875 0.03175-0.07232 0.10583-0.11642 0.18697-0.11642z"/>
    <path d="m-24.959 81.045c0-0.27869-0.17639-0.42333-0.35983-0.42333-0.20461 0-0.381 0.17639-0.381 0.42686 0 0.24518 0.17462 0.41804 0.37747 0.41804 0.1905 0 0.36336-0.15346 0.36336-0.42157zm-0.36865-0.31574c0.11642 0 0.23989 0.10054 0.23989 0.32103 0 0.20285-0.11642 0.30515-0.23283 0.30515-0.12876 0-0.24518-0.11994-0.24518-0.31926 0-0.19756 0.11465-0.30692 0.23812-0.30692z"/>
    <path d="m-24.768 81.444h0.12876v-0.4639c0-0.05292 0.0071-0.09349 0.04057-0.13758 0.02999-0.04057 0.1076-0.11289 0.19226-0.11289 0.04057 0 0.08114 0.01764 0.10936 0.05115 0.0441 0.05292 0.0441 0.12171 0.0441 0.17815v0.48507h0.12524v-0.4886c0-0.06174 0-0.12876-0.02822-0.19403-0.04057-0.08996-0.12347-0.14111-0.21519-0.14111-0.10936 0-0.20814 0.07056-0.26811 0.16051v-0.14111h-0.12876z"/>
   </g>
   <rect x="-34.967" y="87.077" width="12.587" height="4.0366" fill="#0d1f3b" fill-opacity=".38431" stroke="#6fa0e9" stroke-width=".11289"/>
   <g fill="#e9e56f" stroke-width=".28222px" aria-label="Attack">
    <path d="m-31.408 89.63h0.12171l0.1076-0.32279h0.34749l0.12171 0.32103h0.12876l-0.4251-1.1183h-0.01411zm0.55033-0.41804h-0.2981l0.14288-0.41804z"/>
    <path d="m-30.219 88.607-0.01587 0.21696h-0.19226l-0.0018 0.10407h0.18874c-0.01058 0.13758-0.01588 0.27517-0.01588 0.41099 0 0.07232 0 0.15346 0.04763 0.22049 0.03881 0.05292 0.10054 0.08467 0.18344 0.08467 0.09525 0 0.18874-0.04057 0.25753-0.08996l-0.03881-0.10054c-0.06879 0.05115-0.13229 0.07408-0.18168 0.07408-0.05997 0-0.12171-0.03351-0.13582-0.13053 0-0.0071-0.0053-0.03704-0.0053-0.15522 0-0.10407 0.0053-0.2099 0.01588-0.31397h0.26458v-0.10583h-0.26282s0.01235-0.14464 0.02117-0.1905c0.0018-0.01764 0.01588-0.02822 0.0088-0.04763z"/>
    <path d="m-29.337 88.607-0.01588 0.21696h-0.19226l-0.0018 0.10407h0.18874c-0.01058 0.13758-0.01587 0.27517-0.01587 0.41099 0 0.07232 0 0.15346 0.04763 0.22049 0.0388 0.05292 0.10054 0.08467 0.18344 0.08467 0.09525 0 0.18874-0.04057 0.25753-0.08996l-0.03881-0.10054c-0.06879 0.05115-0.13229 0.07408-0.18168 0.07408-0.05997 0-0.12171-0.03351-0.13582-0.13053 0-0.0071-0.0053-0.03704-0.0053-0.15522 0-0.10407 0.0053-0.2099 0.01588-0.31397h0.26458v-0.10583h-0.26282s0.01235-0.14464 0.02117-0.1905c0.0018-0.01764 0.01588-0.02822 0.0088-0.04763z"/>
    <path d="m-28.628 88.917 0.06174 0.08114c0.06703-0.06879 0.15699-0.08996 0.23283-0.08996 0.09525 0 0.14288 0.04057 0.16581 0.07761 0.02646 0.0441 0.02469 0.09701 0.02469 0.13935v0.02822h-0.02469c-0.11994 0-0.24694 0-0.34925 0.03704-0.127 0.04586-0.18344 0.14111-0.18344 0.22931 0 0.11818 0.10231 0.2293 0.26988 0.2293 0.09878 0 0.20108-0.03704 0.28928-0.10936v0.08819h0.11994v-0.49918c0-0.06526-0.0018-0.127-0.03881-0.1905-0.05292-0.08643-0.15522-0.13229-0.28046-0.13229-0.1076 0-0.21167 0.03351-0.28751 0.11112zm0.49036 0.33338v0.05468c0 0.04057 0 0.09349-0.05468 0.15169-0.02999 0.02999-0.10583 0.09525-0.21167 0.09525-0.1076 0-0.16933-0.06879-0.16933-0.13935 0-0.05997 0.04057-0.12524 0.14111-0.14993 0.07408-0.01764 0.18168-0.01235 0.26635-0.01235z"/>
    <path d="m-27.1 88.956c-0.0635-0.09349-0.1711-0.14993-0.30162-0.14993-0.23636 0-0.40393 0.17815-0.40393 0.41981 0 0.24342 0.16757 0.42333 0.39688 0.42333 0.11112 0 0.22049-0.04586 0.29633-0.12876l-0.07232-0.08467c-0.05468 0.06174-0.13406 0.09701-0.21343 0.09701-0.15699 0-0.27693-0.13053-0.27693-0.31926 0-0.18344 0.11818-0.2981 0.26635-0.2981 0.13758 0 0.20285 0.09525 0.20814 0.10583 0.0071 0.01235-0.0035 0.02999 0.01058 0.04057z"/>
    <path d="m-26.906 88.457v1.173h0.127v-0.30515l0.1076-0.09878 0.32808 0.41099s0.06879-0.0071 0.15169-0.0071h0.01235l-0.39511-0.48154 0.34043-0.31926h-0.04586c-0.03175 0-0.0635-0.0018-0.09525-0.01058l-0.40393 0.37571v-0.69144c0-0.0071 0.0018-0.01235 0.0071-0.02117 0.0053-0.0053 0.01235-0.01235 0.01058-0.02469z"/>
   </g>
   <rect x="-18.033" y="53.493" width="12.587" height="4.0366" fill="#3b390d" fill-opacity=".38431" stroke="#e9e56f" stroke-width=".11289"/>
   <g fill="#e9e56f" stroke-width=".28222px" aria-label="Reload Weapon">
    <path d="m-17.205 54.945v1.0989h0.12347v-0.48507h0.21343l0.24342 0.48507h0.13935l-0.254-0.4886c0.13229-0.03704 0.22401-0.16228 0.22401-0.30868 0-0.10936-0.05468-0.21343-0.15699-0.26458-0.06879-0.03528-0.13758-0.03704-0.2099-0.03704zm0.12347 0.11642h0.19932c0.04586 0 0.08996 0.0018 0.13582 0.02293 0.06879 0.03528 0.10407 0.10583 0.10407 0.17639 0 0.07056-0.03351 0.13582-0.09701 0.16757-0.04233 0.02117-0.08467 0.02293-0.12876 0.02293h-0.21343z"/>
    <path d="m-15.966 55.22c-0.19226 0-0.37042 0.13758-0.37042 0.43039 0 0.26988 0.16757 0.41275 0.38629 0.41275 0.11642 0 0.22049-0.04233 0.28928-0.12524l-0.07056-0.06879c-0.05115 0.05997-0.12876 0.09172-0.20814 0.09172-0.1076 0-0.26458-0.05997-0.2734-0.30162h0.5715c0.0053-0.05468 0.0035-0.1076-0.0053-0.15346-0.03704-0.21696-0.18697-0.28575-0.31926-0.28575zm-0.24342 0.34219c0.02646-0.1905 0.14817-0.24518 0.2346-0.24518 0.13053 0 0.22401 0.11465 0.20814 0.24518z"/>
    <path d="m-15.391 54.873v0.10231h0.2293v0.96838h-0.23989v0.10054h0.60501v-0.10054h-0.23812v-1.0707z"/>
    <path d="m-13.846 55.645c0-0.2787-0.17639-0.42333-0.35983-0.42333-0.20461 0-0.381 0.17639-0.381 0.42686 0 0.24518 0.17462 0.41804 0.37747 0.41804 0.1905 0 0.36336-0.15346 0.36336-0.42157zm-0.36865-0.31574c0.11642 0 0.23989 0.10054 0.23989 0.32103 0 0.20285-0.11642 0.30515-0.23283 0.30515-0.12876 0-0.24518-0.11994-0.24518-0.31926 0-0.19756 0.11465-0.30692 0.23812-0.30692z"/>
    <path d="m-13.617 55.333 0.06174 0.08114c0.06703-0.06879 0.15699-0.08996 0.23283-0.08996 0.09525 0 0.14288 0.04057 0.1658 0.07761 0.02646 0.0441 0.02469 0.09701 0.02469 0.13935v0.02822h-0.02469c-0.11994 0-0.24694 0-0.34925 0.03704-0.127 0.04586-0.18344 0.14111-0.18344 0.22931 0 0.11818 0.1023 0.2293 0.26988 0.2293 0.09878 0 0.20108-0.03704 0.28928-0.10936v0.08819h0.11994v-0.49918c0-0.06526-0.0018-0.127-0.03881-0.1905-0.05292-0.08643-0.15522-0.13229-0.28046-0.13229-0.1076 0-0.21167 0.03351-0.28751 0.11112zm0.49036 0.33338v0.05468c0 0.04057 0 0.09349-0.05468 0.15169-0.02999 0.02999-0.10583 0.09525-0.21167 0.09525-0.1076 0-0.16933-0.06879-0.16933-0.13935 0-0.05997 0.04057-0.12524 0.14111-0.14993 0.07408-0.01764 0.18168-0.01235 0.26635-0.01235z"/>
    <path d="m-12.239 55.356c-0.0388-0.0829-0.12524-0.13758-0.23636-0.13758-0.15346 0-0.34043 0.10936-0.34043 0.41628 0 0.2981 0.1658 0.42862 0.32103 0.42862 0.10231 0 0.19756-0.05821 0.24871-0.14817v0.07055c0 0.0194 0.0018 0.03881 0.0071 0.05821h0.127c-0.0071-0.02293-0.0071-0.04939-0.0071-0.07408l-0.0018-1.0478c0-0.01058 0-0.01411 0.0071-0.02469 0.0035-0.0053 0.01058-0.01411 0.0088-0.02646h-0.13406zm-0.23107-0.03351c0.07056 0 0.17462 0.03704 0.20638 0.15699 0.01058 0.03704 0.01411 0.08114 0.01411 0.1711 0 0.06174-0.0035 0.10583-0.01764 0.14817-0.02999 0.09525-0.11465 0.1517-0.19756 0.1517-0.09172 0-0.22754-0.07056-0.22754-0.33514 0-0.23107 0.12876-0.29281 0.22225-0.29281z"/>
    <path d="m-11.1 54.945 0.17639 1.1077h0.04939l0.19226-0.72672 0.18874 0.72672h0.04939l0.17286-1.1077h-0.10407l-0.10054 0.74612-0.17815-0.66499h-0.03704l-0.17639 0.66322-0.11994-0.74436z"/>
    <path d="m-9.7928 55.22c-0.19226 0-0.37042 0.13758-0.37042 0.43039 0 0.26988 0.16757 0.41275 0.38629 0.41275 0.11642 0 0.22049-0.04233 0.28928-0.12524l-0.070556-0.06879c-0.051153 0.05997-0.12876 0.09172-0.20814 0.09172-0.1076 0-0.26458-0.05997-0.2734-0.30162h0.5715c0.00529-0.05468 0.00353-0.1076-0.00529-0.15346-0.037042-0.21696-0.18697-0.28575-0.31926-0.28575zm-0.24342 0.34219c0.02646-0.1905 0.14817-0.24518 0.2346-0.24518 0.13053 0 0.22401 0.11465 0.20814 0.24518z"/>
    <path d="m-9.2072 55.333 0.061736 0.08114c0.067028-0.06879 0.15699-0.08996 0.23283-0.08996 0.09525 0 0.14288 0.04057 0.16581 0.07761 0.026458 0.0441 0.024694 0.09701 0.024694 0.13935v0.02822h-0.024694c-0.11994 0-0.24694 0-0.34925 0.03704-0.127 0.04586-0.18344 0.14111-0.18344 0.22931 0 0.11818 0.10231 0.2293 0.26988 0.2293 0.098778 0 0.20108-0.03704 0.28928-0.10936v0.08819h0.11994v-0.49918c0-0.06526-0.00176-0.127-0.038806-0.1905-0.052917-0.08643-0.15522-0.13229-0.28046-0.13229-0.1076 0-0.21167 0.03351-0.28751 0.11112zm0.49036 0.33338v0.05468c0 0.04057 0 0.09349-0.054681 0.15169-0.029986 0.02999-0.10583 0.09525-0.21167 0.09525-0.1076 0-0.16933-0.06879-0.16933-0.13935 0-0.05997 0.04057-0.12524 0.14111-0.14993 0.074083-0.01764 0.18168-0.01235 0.26635-0.01235z"/>
    <path d="m-8.3799 55.24 0.00176 1.0989h0.12876v-0.4004c0.05468 0.07937 0.14464 0.12876 0.24165 0.12876 0.16581 0 0.33867-0.13935 0.33867-0.43392 0-0.28399-0.16757-0.41099-0.32632-0.41099-0.10407 0-0.20108 0.05292-0.25576 0.14111v-0.12347zm0.3369 0.08996c0.070555 0 0.24165 0.03704 0.24165 0.32985 0 0.254-0.16581 0.29457-0.24165 0.29457-0.075847 0-0.15346-0.03881-0.18521-0.11112-0.02293-0.05468-0.02293-0.12171-0.02293-0.23812 0-0.06703 0.00353-0.11642 0.021167-0.15875 0.03175-0.07232 0.10583-0.11642 0.18697-0.11642z"/>
    <path d="m-6.7907 55.645c0-0.2787-0.17639-0.42333-0.35983-0.42333-0.20461 0-0.381 0.17639-0.381 0.42686 0 0.24518 0.17462 0.41804 0.37747 0.41804 0.1905 0 0.36336-0.15346 0.36336-0.42157zm-0.36865-0.31574c0.11642 0 0.23989 0.10054 0.23989 0.32103 0 0.20285-0.11642 0.30515-0.23283 0.30515-0.12876 0-0.24518-0.11994-0.24518-0.31926 0-0.19756 0.11465-0.30692 0.23812-0.30692z"/>
    <path d="m-6.6002 56.044h0.12876v-0.4639c0-0.05292 0.00706-0.09349 0.040569-0.13758 0.029986-0.04057 0.1076-0.11289 0.19226-0.11289 0.04057 0 0.081139 0.01764 0.10936 0.05115 0.044097 0.05292 0.044097 0.12171 0.044097 0.17815v0.48507h0.12524v-0.4886c0-0.06174 0-0.12876-0.028222-0.19403-0.04057-0.08996-0.12347-0.14111-0.21519-0.14111-0.10936 0-0.20814 0.07055-0.26811 0.16051v-0.14111h-0.12876z"/>
   </g>
   <rect x="-18.033" y="60.266" width="12.587" height="4.0366" fill="#3b390d" fill-opacity=".38431" stroke="#e9e56f" stroke-width=".11289"/>
   <g fill="#e9e56f" stroke-width=".28222px" aria-label="DrawWeapon">
    <path d="m-15.799 61.718v1.1007h0.23636c0.08643 0 0.16051-0.0035 0.23812-0.0441 0.15699-0.08114 0.24342-0.26811 0.24342-0.508 0-0.21167-0.0635-0.39688-0.20461-0.4886-0.07937-0.05292-0.15875-0.05997-0.25576-0.05997zm0.11642 0.10583h0.13406c0.06879 0 0.13758 0.0035 0.20638 0.05997 0.10231 0.08467 0.13582 0.24165 0.13582 0.39864 0 0.2099-0.06879 0.32985-0.15699 0.38982-0.06879 0.04586-0.13758 0.04939-0.20638 0.04939h-0.11289z"/>
    <path d="m-14.836 62.013v0.8061h0.127v-0.39158c0-0.04939 0.0018-0.10231 0.05644-0.18874 0.07408-0.11642 0.16933-0.13582 0.22754-0.13582 0.06703 0 0.10936 0.03175 0.13229 0.05997 0.01058 0.01411 0.01588 0.02822 0.02999 0.04057l0.05997-0.12171c-0.05115-0.05292-0.12524-0.08819-0.2152-0.08819-0.11818 0-0.23812 0.05997-0.29104 0.17462l0.0053-0.15522z"/>
    <path d="m-13.97 62.106 0.06174 0.08114c0.06703-0.06879 0.15699-0.08996 0.23283-0.08996 0.09525 0 0.14288 0.04057 0.16581 0.07761 0.02646 0.0441 0.02469 0.09701 0.02469 0.13935v0.02822h-0.02469c-0.11994 0-0.24694 0-0.34925 0.03704-0.127 0.04586-0.18344 0.14111-0.18344 0.2293 0 0.11818 0.1023 0.22931 0.26988 0.22931 0.09878 0 0.20108-0.03704 0.28928-0.10936v0.08819h0.11994v-0.49918c0-0.06526-0.0018-0.127-0.03881-0.1905-0.05292-0.08643-0.15522-0.13229-0.28046-0.13229-0.1076 0-0.21167 0.03351-0.28751 0.11112zm0.49036 0.33338v0.05468c0 0.04057 0 0.09349-0.05468 0.1517-0.02999 0.02999-0.10583 0.09525-0.21167 0.09525-0.1076 0-0.16933-0.06879-0.16933-0.13935 0-0.05997 0.04057-0.12524 0.14111-0.14993 0.07408-0.01764 0.18168-0.01235 0.26635-0.01235z"/>
    <path d="m-13.22 62.011 0.16228 0.80786h0.11465l0.14111-0.52211 0.14993 0.52211h0.11818c0.05468-0.26635 0.10054-0.53622 0.13406-0.8061h-0.11642c0.0035 0.09701-0.0053 0.18697-0.07585 0.64558l-0.16933-0.5715h-0.07761l-0.13935 0.57326-0.11642-0.58208c-0.0035-0.01235-0.0035-0.01764 0.0018-0.03175 0.0018-0.0088 0.0071-0.02117 0.0018-0.03528z"/>
    <path d="m-12.335 61.718 0.17639 1.1077h0.04939l0.19226-0.72672 0.18874 0.72672h0.04939l0.17286-1.1077h-0.10407l-0.10054 0.74612-0.17815-0.66499h-0.03704l-0.17639 0.66322-0.11994-0.74436z"/>
    <path d="m-11.028 61.993c-0.19226 0-0.37042 0.13758-0.37042 0.43039 0 0.26988 0.16757 0.41275 0.38629 0.41275 0.11642 0 0.22049-0.04233 0.28928-0.12524l-0.07056-0.06879c-0.05115 0.05997-0.12876 0.09172-0.20814 0.09172-0.1076 0-0.26458-0.05997-0.2734-0.30162h0.5715c0.0053-0.05468 0.0035-0.1076-0.0053-0.15346-0.03704-0.21696-0.18697-0.28575-0.31926-0.28575zm-0.24342 0.34219c0.02646-0.1905 0.14817-0.24518 0.2346-0.24518 0.13053 0 0.22401 0.11465 0.20814 0.24518z"/>
    <path d="m-10.442 62.106 0.06174 0.08114c0.06703-0.06879 0.15699-0.08996 0.23283-0.08996 0.09525 0 0.14288 0.04057 0.16581 0.07761 0.026458 0.0441 0.024694 0.09701 0.024694 0.13935v0.02822h-0.024694c-0.11994 0-0.24694 0-0.34925 0.03704-0.127 0.04586-0.18344 0.14111-0.18344 0.2293 0 0.11818 0.1023 0.22931 0.26988 0.22931 0.09878 0 0.20108-0.03704 0.28928-0.10936v0.08819h0.11994v-0.49918c0-0.06526-0.00176-0.127-0.038806-0.1905-0.052917-0.08643-0.15522-0.13229-0.28046-0.13229-0.1076 0-0.21167 0.03351-0.28751 0.11112zm0.49036 0.33338v0.05468c0 0.04057 0 0.09349-0.05468 0.1517-0.02999 0.02999-0.10583 0.09525-0.21167 0.09525-0.1076 0-0.16933-0.06879-0.16933-0.13935 0-0.05997 0.04057-0.12524 0.14111-0.14993 0.07408-0.01764 0.18168-0.01235 0.26635-0.01235z"/>
    <path d="m-9.6147 62.013 0.00176 1.0989h0.12876v-0.4004c0.05468 0.07937 0.14464 0.12876 0.24165 0.12876 0.16581 0 0.33867-0.13935 0.33867-0.43392 0-0.28399-0.16757-0.41099-0.32632-0.41099-0.10407 0-0.20108 0.05292-0.25576 0.14111v-0.12347zm0.3369 0.08996c0.070556 0 0.24165 0.03704 0.24165 0.32985 0 0.254-0.16581 0.29457-0.24165 0.29457-0.075847 0-0.15346-0.03881-0.18521-0.11112-0.022931-0.05468-0.022931-0.12171-0.022931-0.23812 0-0.06703 0.00353-0.11642 0.021167-0.15875 0.03175-0.07232 0.10583-0.11642 0.18697-0.11642z"/>
    <path d="m-8.0254 62.419c0-0.27869-0.17639-0.42333-0.35983-0.42333-0.20461 0-0.381 0.17639-0.381 0.42686 0 0.24518 0.17462 0.41804 0.37747 0.41804 0.1905 0 0.36336-0.15346 0.36336-0.42157zm-0.36865-0.31574c0.11642 0 0.23989 0.10054 0.23989 0.32103 0 0.20285-0.11642 0.30515-0.23283 0.30515-0.12876 0-0.24518-0.11994-0.24518-0.31926 0-0.19756 0.11465-0.30692 0.23812-0.30692z"/>
    <path d="m-7.8349 62.817h0.12876v-0.4639c0-0.05292 0.00706-0.09349 0.040569-0.13758 0.029986-0.04057 0.1076-0.11289 0.19226-0.11289 0.04057 0 0.081139 0.01764 0.10936 0.05115 0.044097 0.05292 0.044097 0.12171 0.044097 0.17815v0.48507h0.12524v-0.4886c0-0.06174 0-0.12876-0.028222-0.19403-0.04057-0.08996-0.12347-0.14111-0.21519-0.14111-0.10936 0-0.20814 0.07056-0.26811 0.16051v-0.14111h-0.12876z"/>
   </g>
   <rect x="-18.033" y="68.733" width="12.587" height="4.0366" fill="#0d1f3b" fill-opacity=".38431" stroke="#6fa0e9" stroke-width=".11289"/>
   <g fill="#e9e56f" stroke-width=".28222px" aria-label="Attack">
    <path d="m-14.474 71.286h0.12171l0.1076-0.32279h0.34749l0.12171 0.32103h0.12876l-0.4251-1.1183h-0.01411zm0.55033-0.41804h-0.2981l0.14288-0.41804z"/>
    <path d="m-13.285 70.263-0.01588 0.21696h-0.19226l-0.0018 0.10407h0.18874c-0.01058 0.13758-0.01587 0.27517-0.01587 0.41099 0 0.07232 0 0.15346 0.04763 0.22049 0.0388 0.05292 0.10054 0.08467 0.18344 0.08467 0.09525 0 0.18874-0.04057 0.25753-0.08996l-0.03881-0.10054c-0.06879 0.05115-0.13229 0.07408-0.18168 0.07408-0.05997 0-0.12171-0.03351-0.13582-0.13053 0-0.0071-0.0053-0.03704-0.0053-0.15522 0-0.10407 0.0053-0.2099 0.01588-0.31397h0.26458v-0.10583h-0.26282s0.01235-0.14464 0.02117-0.1905c0.0018-0.01764 0.01588-0.02822 0.0088-0.04762z"/>
    <path d="m-12.403 70.263-0.01588 0.21696h-0.19226l-0.0018 0.10407h0.18874c-0.01058 0.13758-0.01588 0.27517-0.01588 0.41099 0 0.07232 0 0.15346 0.04763 0.22049 0.03881 0.05292 0.10054 0.08467 0.18344 0.08467 0.09525 0 0.18874-0.04057 0.25753-0.08996l-0.0388-0.10054c-0.06879 0.05115-0.13229 0.07408-0.18168 0.07408-0.05997 0-0.12171-0.03351-0.13582-0.13053 0-0.0071-0.0053-0.03704-0.0053-0.15522 0-0.10407 0.0053-0.2099 0.01587-0.31397h0.26458v-0.10583h-0.26282s0.01235-0.14464 0.02117-0.1905c0.0018-0.01764 0.01588-0.02822 0.0088-0.04762z"/>
    <path d="m-11.694 70.573 0.06174 0.08114c0.06703-0.06879 0.15699-0.08996 0.23283-0.08996 0.09525 0 0.14288 0.04057 0.1658 0.07761 0.02646 0.0441 0.0247 0.09701 0.0247 0.13935v0.02822h-0.0247c-0.11994 0-0.24694 0-0.34925 0.03704-0.127 0.04586-0.18344 0.14111-0.18344 0.22931 0 0.11818 0.1023 0.2293 0.26988 0.2293 0.09878 0 0.20108-0.03704 0.28928-0.10936v0.08819h0.11994v-0.49918c0-0.06526-0.0018-0.127-0.03881-0.1905-0.05292-0.08643-0.15522-0.13229-0.28046-0.13229-0.1076 0-0.21167 0.03351-0.28751 0.11112zm0.49036 0.33338v0.05468c0 0.04057 0 0.09349-0.05468 0.15169-0.02999 0.02999-0.10583 0.09525-0.21167 0.09525-0.1076 0-0.16933-0.06879-0.16933-0.13935 0-0.05997 0.04057-0.12524 0.14111-0.14993 0.07408-0.01764 0.18168-0.01235 0.26635-0.01235z"/>
    <path d="m-10.167 70.612c-0.0635-0.09349-0.1711-0.14993-0.30162-0.14993-0.23636 0-0.40393 0.17815-0.40393 0.41981 0 0.24342 0.16757 0.42333 0.39688 0.42333 0.11112 0 0.22049-0.04586 0.29633-0.12876l-0.07232-0.08467c-0.05468 0.06174-0.13406 0.09701-0.21343 0.09701-0.15699 0-0.27693-0.13053-0.27693-0.31926 0-0.18344 0.11818-0.2981 0.26635-0.2981 0.13758 0 0.20285 0.09525 0.20814 0.10583 0.0071 0.01235-0.0035 0.02999 0.01058 0.04057z"/>
    <path d="m-9.9727 70.113v1.173h0.127v-0.30515l0.1076-0.09878 0.32808 0.41099s0.068792-0.0071 0.15169-0.0071h0.012347l-0.39511-0.48154 0.34043-0.31926h-0.045861c-0.03175 0-0.0635-0.0018-0.09525-0.01058l-0.40393 0.37571v-0.69144c0-0.0071 0.00176-0.01235 0.00706-0.02117 0.00529-0.0053 0.012347-0.01235 0.010583-0.0247z"/>
   </g>
   <rect x="-18.033" y="74.659" width="12.587" height="4.0366" fill="#3b390d" fill-opacity=".38431" stroke="#e9e56f" stroke-width=".11289"/>
   <g fill="#e9e56f" stroke-width=".28222px" aria-label="Reload Weapon">
    <path d="m-17.205 76.112v1.0989h0.12347v-0.48507h0.21343l0.24342 0.48507h0.13935l-0.254-0.4886c0.13229-0.03704 0.22401-0.16228 0.22401-0.30868 0-0.10936-0.05468-0.21343-0.15699-0.26458-0.06879-0.03528-0.13758-0.03704-0.2099-0.03704zm0.12347 0.11642h0.19932c0.04586 0 0.08996 0.0018 0.13582 0.02293 0.06879 0.03528 0.10407 0.10583 0.10407 0.17639 0 0.07056-0.03351 0.13582-0.09701 0.16757-0.04233 0.02117-0.08467 0.02293-0.12876 0.02293h-0.21343z"/>
    <path d="m-15.966 76.387c-0.19226 0-0.37042 0.13758-0.37042 0.43039 0 0.26988 0.16757 0.41275 0.38629 0.41275 0.11642 0 0.22049-0.04233 0.28928-0.12524l-0.07056-0.06879c-0.05115 0.05997-0.12876 0.09172-0.20814 0.09172-0.1076 0-0.26458-0.05997-0.2734-0.30162h0.5715c0.0053-0.05468 0.0035-0.1076-0.0053-0.15346-0.03704-0.21696-0.18697-0.28575-0.31926-0.28575zm-0.24342 0.34219c0.02646-0.1905 0.14817-0.24518 0.2346-0.24518 0.13053 0 0.22401 0.11465 0.20814 0.24518z"/>
    <path d="m-15.391 76.039v0.1023h0.2293v0.96838h-0.23989v0.10054h0.60501v-0.10054h-0.23812v-1.0707z"/>
    <path d="m-13.846 76.812c0-0.2787-0.17639-0.42333-0.35983-0.42333-0.20461 0-0.381 0.17639-0.381 0.42686 0 0.24518 0.17462 0.41804 0.37747 0.41804 0.1905 0 0.36336-0.15346 0.36336-0.42157zm-0.36865-0.31574c0.11642 0 0.23989 0.10054 0.23989 0.32103 0 0.20285-0.11642 0.30515-0.23283 0.30515-0.12876 0-0.24518-0.11994-0.24518-0.31926 0-0.19756 0.11465-0.30692 0.23812-0.30692z"/>
    <path d="m-13.617 76.5 0.06174 0.08114c0.06703-0.06879 0.15699-0.08996 0.23283-0.08996 0.09525 0 0.14288 0.04057 0.1658 0.07761 0.02646 0.0441 0.02469 0.09701 0.02469 0.13935v0.02822h-0.02469c-0.11994 0-0.24694 0-0.34925 0.03704-0.127 0.04586-0.18344 0.14111-0.18344 0.22931 0 0.11818 0.1023 0.2293 0.26988 0.2293 0.09878 0 0.20108-0.03704 0.28928-0.10936v0.0882h0.11994v-0.49918c0-0.06526-0.0018-0.127-0.03881-0.1905-0.05292-0.08643-0.15522-0.13229-0.28046-0.13229-0.1076 0-0.21167 0.03351-0.28751 0.11112zm0.49036 0.33338v0.05468c0 0.04057 0 0.09349-0.05468 0.1517-0.02999 0.02999-0.10583 0.09525-0.21167 0.09525-0.1076 0-0.16933-0.06879-0.16933-0.13935 0-0.05997 0.04057-0.12524 0.14111-0.14993 0.07408-0.01764 0.18168-0.01235 0.26635-0.01235z"/>
    <path d="m-12.239 76.523c-0.0388-0.0829-0.12524-0.13758-0.23636-0.13758-0.15346 0-0.34043 0.10936-0.34043 0.41628 0 0.2981 0.1658 0.42862 0.32103 0.42862 0.10231 0 0.19756-0.05821 0.24871-0.14817v0.07055c0 0.0194 0.0018 0.03881 0.0071 0.05821h0.127c-0.0071-0.02293-0.0071-0.04939-0.0071-0.07408l-0.0018-1.0478c0-0.01058 0-0.01411 0.0071-0.02469 0.0035-0.0053 0.01058-0.01411 0.0088-0.02646h-0.13406zm-0.23107-0.03351c0.07056 0 0.17462 0.03704 0.20638 0.15699 0.01058 0.03704 0.01411 0.08114 0.01411 0.1711 0 0.06174-0.0035 0.10583-0.01764 0.14817-0.02999 0.09525-0.11465 0.1517-0.19756 0.1517-0.09172 0-0.22754-0.07056-0.22754-0.33514 0-0.23107 0.12876-0.29281 0.22225-0.29281z"/>
    <path d="m-11.1 76.112 0.17639 1.1077h0.04939l0.19226-0.72672 0.18874 0.72672h0.04939l0.17286-1.1077h-0.10407l-0.10054 0.74612-0.17815-0.66499h-0.03704l-0.17639 0.66322-0.11994-0.74436z"/>
    <path d="m-9.7928 76.387c-0.19226 0-0.37042 0.13758-0.37042 0.43039 0 0.26988 0.16757 0.41275 0.38629 0.41275 0.11642 0 0.22049-0.04233 0.28928-0.12524l-0.070556-0.06879c-0.051153 0.05997-0.12876 0.09172-0.20814 0.09172-0.1076 0-0.26458-0.05997-0.2734-0.30162h0.5715c0.00529-0.05468 0.00353-0.1076-0.00529-0.15346-0.037042-0.21696-0.18697-0.28575-0.31926-0.28575zm-0.24342 0.34219c0.02646-0.1905 0.14817-0.24518 0.2346-0.24518 0.13053 0 0.22401 0.11465 0.20814 0.24518z"/>
    <path d="m-9.2072 76.5 0.061736 0.08114c0.067028-0.06879 0.15699-0.08996 0.23283-0.08996 0.09525 0 0.14288 0.04057 0.16581 0.07761 0.026458 0.0441 0.024694 0.09701 0.024694 0.13935v0.02822h-0.024694c-0.11994 0-0.24694 0-0.34925 0.03704-0.127 0.04586-0.18344 0.14111-0.18344 0.22931 0 0.11818 0.10231 0.2293 0.26988 0.2293 0.098778 0 0.20108-0.03704 0.28928-0.10936v0.0882h0.11994v-0.49918c0-0.06526-0.00176-0.127-0.038806-0.1905-0.052917-0.08643-0.15522-0.13229-0.28046-0.13229-0.1076 0-0.21167 0.03351-0.28751 0.11112zm0.49036 0.33338v0.05468c0 0.04057 0 0.09349-0.054681 0.1517-0.029986 0.02999-0.10583 0.09525-0.21167 0.09525-0.1076 0-0.16933-0.06879-0.16933-0.13935 0-0.05997 0.04057-0.12524 0.14111-0.14993 0.074083-0.01764 0.18168-0.01235 0.26635-0.01235z"/>
    <path d="m-8.3799 76.406 0.00176 1.0989h0.12876v-0.4004c0.05468 0.07937 0.14464 0.12876 0.24165 0.12876 0.16581 0 0.33867-0.13935 0.33867-0.43392 0-0.28399-0.16757-0.41099-0.32632-0.41099-0.10407 0-0.20108 0.05292-0.25576 0.14111v-0.12347zm0.3369 0.08996c0.070555 0 0.24165 0.03704 0.24165 0.32985 0 0.254-0.16581 0.29457-0.24165 0.29457-0.075847 0-0.15346-0.0388-0.18521-0.11112-0.02293-0.05468-0.02293-0.12171-0.02293-0.23812 0-0.06703 0.00353-0.11642 0.021167-0.15875 0.03175-0.07232 0.10583-0.11642 0.18697-0.11642z"/>
    <path d="m-6.7907 76.812c0-0.2787-0.17639-0.42333-0.35983-0.42333-0.20461 0-0.381 0.17639-0.381 0.42686 0 0.24518 0.17462 0.41804 0.37747 0.41804 0.1905 0 0.36336-0.15346 0.36336-0.42157zm-0.36865-0.31574c0.11642 0 0.23989 0.10054 0.23989 0.32103 0 0.20285-0.11642 0.30515-0.23283 0.30515-0.12876 0-0.24518-0.11994-0.24518-0.31926 0-0.19756 0.11465-0.30692 0.23812-0.30692z"/>
    <path d="m-6.6002 77.211h0.12876v-0.4639c0-0.05292 0.00706-0.09349 0.040569-0.13758 0.029986-0.04057 0.1076-0.11289 0.19226-0.11289 0.04057 0 0.081139 0.01764 0.10936 0.05115 0.044097 0.05292 0.044097 0.12171 0.044097 0.17815v0.48507h0.12524v-0.4886c0-0.06174 0-0.12876-0.028222-0.19403-0.04057-0.08996-0.12347-0.14111-0.21519-0.14111-0.10936 0-0.20814 0.07055-0.26811 0.16051v-0.14111h-0.12876z"/>
   </g>
   <rect x="-18.033" y="83.126" width="12.587" height="4.0366" fill="#3b390d" fill-opacity=".38431" stroke="#e9e56f" stroke-width=".11289"/>
   <g fill="#e9e56f" stroke-width=".28222px" aria-label="MoveTo">
    <path d="m-14.428 84.578v1.1007h0.11642v-0.82374l0.22225 0.43568h0.04586l0.23812-0.44274v0.83079h0.11642v-1.1007h-0.09172l-0.27693 0.53799-0.2734-0.53799z"/>
    <path d="m-12.806 85.279c0-0.27869-0.17639-0.42333-0.35983-0.42333-0.20461 0-0.381 0.17639-0.381 0.42686 0 0.24518 0.17462 0.41804 0.37747 0.41804 0.1905 0 0.36336-0.15346 0.36336-0.42157zm-0.36865-0.31574c0.11642 0 0.23989 0.10054 0.23989 0.32103 0 0.20285-0.11642 0.30515-0.23283 0.30515-0.12876 0-0.24518-0.11994-0.24518-0.31926 0-0.19756 0.11465-0.30692 0.23812-0.30692z"/>
    <path d="m-12.666 84.871 0.31926 0.81315h0.10054l0.19579-0.46038c0.04763-0.11289 0.09349-0.2293 0.11994-0.35278h-0.11465c-0.02117 0.11818-0.0635 0.2293-0.10936 0.33514l-0.12876 0.29986-0.23283-0.58914c-0.0018-0.0035-0.0035-0.0071-0.0035-0.01058 0-0.01058 0.0088-0.02117 0.0053-0.03528z"/>
    <path d="m-11.398 84.853c-0.19226 0-0.37042 0.13758-0.37042 0.43039 0 0.26988 0.16757 0.41275 0.38629 0.41275 0.11642 0 0.22049-0.04233 0.28928-0.12524l-0.07056-0.06879c-0.05115 0.05997-0.12876 0.09172-0.20814 0.09172-0.1076 0-0.26458-0.05997-0.2734-0.30162h0.5715c0.0053-0.05468 0.0035-0.1076-0.0053-0.15346-0.03704-0.21696-0.18697-0.28575-0.31926-0.28575zm-0.24342 0.34219c0.02646-0.1905 0.14817-0.24518 0.2346-0.24518 0.13053 0 0.22401 0.11465 0.20814 0.24518z"/>
    <path d="m-10.916 84.578v0.11112h0.31044v0.98954h0.12524v-0.98954h0.32456v-0.11112z"/>
    <path d="m-9.2777 85.279c0-0.27869-0.17639-0.42333-0.35983-0.42333-0.20461 0-0.381 0.17639-0.381 0.42686 0 0.24518 0.17462 0.41804 0.37747 0.41804 0.1905 0 0.36336-0.15346 0.36336-0.42157zm-0.36865-0.31574c0.11642 0 0.23989 0.10054 0.23989 0.32103 0 0.20285-0.11642 0.30515-0.23283 0.30515-0.12876 0-0.24518-0.11994-0.24518-0.31926 0-0.19756 0.11465-0.30692 0.23812-0.30692z"/>
   </g>
   <rect x="-1.1" y="71.837" width="12.587" height="4.0366" fill="#3b390d" fill-opacity=".38431" stroke="#e9e56f" stroke-width=".11289"/>
   <g fill="#e9e56f" stroke-width=".28222px" aria-label="MoveTo">
    <path d="m2.2404 73.289v1.1007h0.11642v-0.82374l0.22225 0.43568h0.045861l0.23812-0.44274v0.83079h0.11642v-1.1007h-0.091722l-0.27693 0.53799-0.2734-0.53799z"/>
    <path d="m3.8632 73.99c0-0.27869-0.17639-0.42333-0.35983-0.42333-0.20461 0-0.381 0.17639-0.381 0.42686 0 0.24518 0.17462 0.41804 0.37747 0.41804 0.1905 0 0.36336-0.15346 0.36336-0.42157zm-0.36865-0.31574c0.11642 0 0.23989 0.10054 0.23989 0.32103 0 0.20285-0.11642 0.30515-0.23283 0.30515-0.12876 0-0.24518-0.11994-0.24518-0.31926 0-0.19756 0.11465-0.30692 0.23813-0.30692z"/>
    <path d="m4.0026 73.582 0.31926 0.81315h0.10054l0.19579-0.46038c0.047625-0.11289 0.093486-0.2293 0.11994-0.35278h-0.11465c-0.021167 0.11818-0.0635 0.2293-0.10936 0.33514l-0.12876 0.29986-0.23283-0.58914c-0.00176-0.0035-0.00353-0.0071-0.00353-0.01058 0-0.01058 0.00882-0.02117 0.00529-0.03528z"/>
    <path d="m5.2708 73.565c-0.19226 0-0.37042 0.13758-0.37042 0.43039 0 0.26988 0.16757 0.41275 0.38629 0.41275 0.11642 0 0.22049-0.04233 0.28928-0.12524l-0.070556-0.06879c-0.051153 0.05997-0.12876 0.09172-0.20814 0.09172-0.1076 0-0.26458-0.05997-0.2734-0.30162h0.5715c0.00529-0.05468 0.00353-0.1076-0.00529-0.15346-0.037042-0.21696-0.18697-0.28575-0.31926-0.28575zm-0.24342 0.34219c0.026458-0.1905 0.14817-0.24518 0.2346-0.24518 0.13053 0 0.22401 0.11465 0.20814 0.24518z"/>
    <path d="m5.7523 73.289v0.11112h0.31044v0.98954h0.12524v-0.98954h0.32456v-0.11112z"/>
    <path d="m7.391 73.99c0-0.27869-0.17639-0.42333-0.35983-0.42333-0.20461 0-0.381 0.17639-0.381 0.42686 0 0.24518 0.17462 0.41804 0.37747 0.41804 0.1905 0 0.36336-0.15346 0.36336-0.42157zm-0.36865-0.31574c0.11642 0 0.23989 0.10054 0.23989 0.32103 0 0.20285-0.11642 0.30515-0.23283 0.30515-0.12876 0-0.24518-0.11994-0.24518-0.31926 0-0.19756 0.11465-0.30692 0.23812-0.30692z"/>
   </g>
   <rect x="-1.1" y="76.635" width="12.587" height="4.0366" fill="#3b390d" fill-opacity=".38431" stroke="#e9e56f" stroke-width=".11289"/>
   <g fill="#e9e56f" stroke-width=".28222px" aria-label="Attack">
    <path d="m2.1946 79.188h0.12171l0.1076-0.32279h0.34749l0.12171 0.32103h0.12876l-0.4251-1.1183h-0.014111zm0.55033-0.41804h-0.2981l0.14288-0.41804z"/>
    <path d="m3.3834 78.165-0.015875 0.21696h-0.19226l-0.00176 0.10407h0.18874c-0.010583 0.13758-0.015875 0.27517-0.015875 0.41099 0 0.07232 0 0.15346 0.047625 0.22049 0.038806 0.05292 0.10054 0.08467 0.18344 0.08467 0.09525 0 0.18874-0.04057 0.25753-0.08996l-0.038806-0.10054c-0.068792 0.05115-0.13229 0.07408-0.18168 0.07408-0.059972 0-0.12171-0.03351-0.13582-0.13053 0-0.0071-0.00529-0.03704-0.00529-0.15522 0-0.10407 0.00529-0.2099 0.015875-0.31397h0.26458v-0.10583h-0.26282s0.012347-0.14464 0.021167-0.1905c0.00176-0.01764 0.015875-0.02822 0.00882-0.04763z"/>
    <path d="m4.2654 78.165-0.015875 0.21696h-0.19226l-0.00176 0.10407h0.18874c-0.010583 0.13758-0.015875 0.27517-0.015875 0.41099 0 0.07232 0 0.15346 0.047625 0.22049 0.038805 0.05292 0.10054 0.08467 0.18344 0.08467 0.09525 0 0.18874-0.04057 0.25753-0.08996l-0.038806-0.10054c-0.068792 0.05115-0.13229 0.07408-0.18168 0.07408-0.059972 0-0.12171-0.03351-0.13582-0.13053 0-0.0071-0.00529-0.03704-0.00529-0.15522 0-0.10407 0.00529-0.2099 0.015875-0.31397h0.26458v-0.10583h-0.26282s0.012347-0.14464 0.021167-0.1905c0.00176-0.01764 0.015875-0.02822 0.00882-0.04763z"/>
    <path d="m4.9745 78.475 0.061736 0.08114c0.067028-0.06879 0.15699-0.08996 0.23283-0.08996 0.09525 0 0.14288 0.04057 0.16581 0.07761 0.026458 0.0441 0.024694 0.09701 0.024694 0.13935v0.02822h-0.024694c-0.11994 0-0.24694 0-0.34925 0.03704-0.127 0.04586-0.18344 0.14111-0.18344 0.22931 0 0.11818 0.10231 0.2293 0.26988 0.2293 0.098778 0 0.20108-0.03704 0.28928-0.10936v0.08819h0.11994v-0.49918c0-0.06526-0.00176-0.127-0.038805-0.1905-0.052917-0.08643-0.15522-0.13229-0.28046-0.13229-0.1076 0-0.21167 0.03351-0.28751 0.11112zm0.49036 0.33338v0.05468c0 0.04057 0 0.09349-0.054681 0.1517-0.029986 0.02999-0.10583 0.09525-0.21167 0.09525-0.1076 0-0.16933-0.06879-0.16933-0.13935 0-0.05997 0.04057-0.12524 0.14111-0.14993 0.074083-0.01764 0.18168-0.01235 0.26635-0.01235z"/>
    <path d="m6.502 78.514c-0.0635-0.09349-0.1711-0.14993-0.30162-0.14993-0.23636 0-0.40393 0.17815-0.40393 0.4198 0 0.24342 0.16757 0.42333 0.39688 0.42333 0.11112 0 0.22049-0.04586 0.29633-0.12876l-0.072319-0.08467c-0.054681 0.06174-0.13406 0.09701-0.21343 0.09701-0.15699 0-0.27693-0.13053-0.27693-0.31926 0-0.18344 0.11818-0.2981 0.26635-0.2981 0.13758 0 0.20285 0.09525 0.20814 0.10583 0.00706 0.01235-0.00353 0.02999 0.010583 0.04057z"/>
    <path d="m6.696 78.015v1.173h0.127v-0.30515l0.1076-0.09878 0.32808 0.41099s0.068792-0.0071 0.15169-0.0071h0.012347l-0.39511-0.4815 0.34043-0.31926h-0.045861c-0.03175 0-0.0635-0.0018-0.09525-0.01058l-0.40393 0.37571v-0.69144c0-0.0071 0.00176-0.01235 0.00706-0.02117 0.00529-0.0053 0.012347-0.01235 0.010583-0.02469z"/>
   </g>
   <rect x="-1.1" y="86.23" width="12.587" height="4.0366" fill="#3b390d" fill-opacity=".38431" stroke="#e9e56f" stroke-width=".11289"/>
   <g fill="#e9e56f" stroke-width=".28222px" aria-label="Attack">
    <path d="m2.1946 88.783h0.12171l0.1076-0.32279h0.34749l0.12171 0.32103h0.12876l-0.4251-1.1183h-0.014111zm0.55033-0.41804h-0.2981l0.14288-0.41804z"/>
    <path d="m3.3834 87.76-0.015875 0.21696h-0.19226l-0.00176 0.10407h0.18874c-0.010583 0.13758-0.015875 0.27517-0.015875 0.41099 0 0.07232 0 0.15346 0.047625 0.22049 0.038806 0.05292 0.10054 0.08467 0.18344 0.08467 0.09525 0 0.18874-0.04057 0.25753-0.08996l-0.038806-0.10054c-0.068792 0.05115-0.13229 0.07408-0.18168 0.07408-0.059972 0-0.12171-0.03351-0.13582-0.13053 0-0.0071-0.00529-0.03704-0.00529-0.15522 0-0.10407 0.00529-0.2099 0.015875-0.31397h0.26458v-0.10583h-0.26282s0.012347-0.14464 0.021167-0.1905c0.00176-0.01764 0.015875-0.02822 0.00882-0.04762z"/>
    <path d="m4.2654 87.76-0.015875 0.21696h-0.19226l-0.00176 0.10407h0.18874c-0.010583 0.13758-0.015875 0.27517-0.015875 0.41099 0 0.07232 0 0.15346 0.047625 0.22049 0.038805 0.05292 0.10054 0.08467 0.18344 0.08467 0.09525 0 0.18874-0.04057 0.25753-0.08996l-0.038806-0.10054c-0.068792 0.05115-0.13229 0.07408-0.18168 0.07408-0.059972 0-0.12171-0.03351-0.13582-0.13053 0-0.0071-0.00529-0.03704-0.00529-0.15522 0-0.10407 0.00529-0.2099 0.015875-0.31397h0.26458v-0.10583h-0.26282s0.012347-0.14464 0.021167-0.1905c0.00176-0.01764 0.015875-0.02822 0.00882-0.04762z"/>
    <path d="m4.9745 88.071 0.061736 0.08114c0.067028-0.06879 0.15699-0.08996 0.23283-0.08996 0.09525 0 0.14288 0.04057 0.16581 0.07761 0.026458 0.0441 0.024694 0.09701 0.024694 0.13935v0.02822h-0.024694c-0.11994 0-0.24694 0-0.34925 0.03704-0.127 0.04586-0.18344 0.14111-0.18344 0.2293 0 0.11818 0.10231 0.22931 0.26988 0.22931 0.098778 0 0.20108-0.03704 0.28928-0.10936v0.08819h0.11994v-0.49918c0-0.06526-0.00176-0.127-0.038805-0.1905-0.052917-0.08643-0.15522-0.13229-0.28046-0.13229-0.1076 0-0.21167 0.03351-0.28751 0.11112zm0.49036 0.33338v0.05468c0 0.04057 0 0.09349-0.054681 0.15169-0.029986 0.02999-0.10583 0.09525-0.21167 0.09525-0.1076 0-0.16933-0.06879-0.16933-0.13935 0-0.05997 0.04057-0.12524 0.14111-0.14993 0.074083-0.01764 0.18168-0.01235 0.26635-0.01235z"/>
    <path d="m6.502 88.11c-0.0635-0.09349-0.1711-0.14993-0.30162-0.14993-0.23636 0-0.40393 0.17815-0.40393 0.41981 0 0.24342 0.16757 0.42333 0.39688 0.42333 0.11112 0 0.22049-0.04586 0.29633-0.12876l-0.072319-0.08467c-0.054681 0.06174-0.13406 0.09701-0.21343 0.09701-0.15699 0-0.27693-0.13053-0.27693-0.31926 0-0.18344 0.11818-0.2981 0.26635-0.2981 0.13758 0 0.20285 0.09525 0.20814 0.10583 0.00706 0.01235-0.00353 0.02999 0.010583 0.04057z"/>
    <path d="m6.696 87.61v1.173h0.127v-0.30515l0.1076-0.09878 0.32808 0.41099s0.068792-0.0071 0.15169-0.0071h0.012347l-0.39511-0.48149 0.34043-0.31926h-0.045861c-0.03175 0-0.0635-0.0018-0.09525-0.01058l-0.40393 0.37571v-0.69144c0-0.0071 0.00176-0.01235 0.00706-0.02117 0.00529-0.0053 0.012347-0.01235 0.010583-0.02469z"/>
   </g>
   <rect x="-1.1" y="81.433" width="12.587" height="4.0366" fill="#3b390d" fill-opacity=".38431" stroke="#e9e56f" stroke-width=".11289"/>
   <g fill="#e9e56f" stroke-width=".28222px" aria-label="Reload Weapon">
    <path d="m-0.27133 82.885v1.0989h0.12347v-0.48507h0.21343l0.24342 0.48507h0.13935l-0.254-0.4886c0.13229-0.037042 0.22401-0.16228 0.22401-0.30868 0-0.10936-0.05468-0.21343-0.15699-0.26458-0.068792-0.03528-0.13758-0.03704-0.2099-0.03704zm0.12347 0.11642h0.19932c0.045861 0 0.089958 0.0018 0.13582 0.02293 0.068792 0.03528 0.10407 0.10583 0.10407 0.17639 0 0.07056-0.033514 0.13582-0.097014 0.16757-0.042333 0.02117-0.084667 0.02293-0.12876 0.02293h-0.21343z"/>
    <path d="m0.96692 83.16c-0.19226 0-0.37042 0.13758-0.37042 0.43039 0 0.26988 0.16757 0.41275 0.38629 0.41275 0.11642 0 0.22049-0.04233 0.28928-0.12524l-0.070556-0.06879c-0.051153 0.05997-0.12876 0.09172-0.20814 0.09172-0.1076 0-0.26458-0.05997-0.2734-0.30162h0.5715c0.00529-0.05468 0.00353-0.1076-0.00529-0.15346-0.037042-0.21696-0.18697-0.28575-0.31926-0.28575zm-0.24342 0.34219c0.026458-0.1905 0.14817-0.24518 0.2346-0.24518 0.13053 0 0.22401 0.11465 0.20814 0.24518z"/>
    <path d="m1.5419 82.813v0.1023h0.22931v0.96838h-0.23989v0.10054h0.60501v-0.10054h-0.23812v-1.0707z"/>
    <path d="m3.0871 83.585c0-0.27869-0.17639-0.42333-0.35983-0.42333-0.20461 0-0.381 0.17639-0.381 0.42686 0 0.24518 0.17462 0.41804 0.37747 0.41804 0.1905 0 0.36336-0.15346 0.36336-0.42157zm-0.36865-0.31574c0.11642 0 0.23989 0.10054 0.23989 0.32103 0 0.20285-0.11642 0.30515-0.23283 0.30515-0.12876 0-0.24518-0.11994-0.24518-0.31926 0-0.19756 0.11465-0.30692 0.23812-0.30692z"/>
    <path d="m3.3164 83.273 0.061736 0.08114c0.067028-0.06879 0.15699-0.08996 0.23283-0.08996 0.09525 0 0.14288 0.04057 0.16581 0.07761 0.026458 0.0441 0.024694 0.09701 0.024694 0.13935v0.02822h-0.024694c-0.11994 0-0.24694 0-0.34925 0.03704-0.127 0.04586-0.18344 0.14111-0.18344 0.2293 0 0.11818 0.10231 0.22931 0.26988 0.22931 0.098778 0 0.20108-0.03704 0.28928-0.10936v0.08819h0.11994v-0.49918c0-0.06526-0.00176-0.127-0.038806-0.1905-0.052917-0.08643-0.15522-0.13229-0.28046-0.13229-0.1076 0-0.21167 0.03351-0.28751 0.11112zm0.49036 0.33338v0.05468c0 0.04057 0 0.09349-0.054681 0.1517-0.029986 0.02999-0.10583 0.09525-0.21167 0.09525-0.1076 0-0.16933-0.06879-0.16933-0.13935 0-0.05997 0.04057-0.12524 0.14111-0.14993 0.074083-0.01764 0.18168-0.01235 0.26635-0.01235z"/>
    <path d="m4.694 83.296c-0.038806-0.0829-0.12524-0.13758-0.23636-0.13758-0.15346 0-0.34043 0.10936-0.34043 0.41628 0 0.2981 0.16581 0.42862 0.32103 0.42862 0.10231 0 0.19756-0.05821 0.24871-0.14817v0.07056c0 0.0194 0.00176 0.03881 0.00706 0.05821h0.127c-0.00706-0.02293-0.00706-0.04939-0.00706-0.07408l-0.00176-1.0478c0-0.01058 0-0.01411 0.00706-0.0247 0.00353-0.0053 0.010583-0.01411 0.00882-0.02646h-0.13406zm-0.23107-0.03351c0.070556 0 0.17462 0.03704 0.20638 0.15699 0.010583 0.03704 0.014111 0.08114 0.014111 0.1711 0 0.06174-0.00353 0.10583-0.017639 0.14817-0.029986 0.09525-0.11465 0.15169-0.19756 0.15169-0.091722 0-0.22754-0.07056-0.22754-0.33514 0-0.23107 0.12876-0.2928 0.22225-0.2928z"/>
    <path d="m5.8335 82.885 0.17639 1.1077h0.049389l0.19226-0.72672 0.18874 0.72672h0.049389l0.17286-1.1077h-0.10407l-0.10054 0.74612-0.17815-0.66499h-0.037042l-0.17639 0.66322-0.11994-0.74436z"/>
    <path d="m7.1405 83.16c-0.19226 0-0.37042 0.13758-0.37042 0.43039 0 0.26988 0.16757 0.41275 0.38629 0.41275 0.11642 0 0.22049-0.04233 0.28928-0.12524l-0.070556-0.06879c-0.051153 0.05997-0.12876 0.09172-0.20814 0.09172-0.1076 0-0.26458-0.05997-0.2734-0.30162h0.5715c0.00529-0.05468 0.00353-0.1076-0.00529-0.15346-0.037042-0.21696-0.18697-0.28575-0.31926-0.28575zm-0.24342 0.34219c0.026458-0.1905 0.14817-0.24518 0.2346-0.24518 0.13053 0 0.22401 0.11465 0.20814 0.24518z"/>
    <path d="m7.7261 83.273 0.061736 0.08114c0.067028-0.06879 0.15699-0.08996 0.23283-0.08996 0.09525 0 0.14288 0.04057 0.16581 0.07761 0.026458 0.0441 0.024694 0.09701 0.024694 0.13935v0.02822h-0.024694c-0.11994 0-0.24694 0-0.34925 0.03704-0.127 0.04586-0.18344 0.14111-0.18344 0.2293 0 0.11818 0.10231 0.22931 0.26988 0.22931 0.098778 0 0.20108-0.03704 0.28928-0.10936v0.08819h0.11994v-0.49918c0-0.06526-0.00176-0.127-0.038806-0.1905-0.052917-0.08643-0.15522-0.13229-0.28046-0.13229-0.1076 0-0.21167 0.03351-0.28751 0.11112zm0.49036 0.33338v0.05468c0 0.04057 0 0.09349-0.054681 0.1517-0.029986 0.02999-0.10583 0.09525-0.21167 0.09525-0.1076 0-0.16933-0.06879-0.16933-0.13935 0-0.05997 0.040569-0.12524 0.14111-0.14993 0.074083-0.01764 0.18168-0.01235 0.26635-0.01235z"/>
    <path d="m8.5534 83.18 0.00176 1.0989h0.12876v-0.4004c0.054681 0.07937 0.14464 0.12876 0.24165 0.12876 0.16581 0 0.33867-0.13935 0.33867-0.43392 0-0.28399-0.16757-0.41099-0.32632-0.41099-0.10407 0-0.20108 0.05292-0.25576 0.14111v-0.12347zm0.3369 0.08996c0.070556 0 0.24165 0.03704 0.24165 0.32985 0 0.254-0.16581 0.29457-0.24165 0.29457-0.075847 0-0.15346-0.03881-0.18521-0.11112-0.022931-0.05468-0.022931-0.12171-0.022931-0.23812 0-0.06703 0.00353-0.11642 0.021167-0.15875 0.03175-0.07232 0.10583-0.11642 0.18697-0.11642z"/>
    <path d="m10.143 83.585c0-0.27869-0.17639-0.42333-0.35983-0.42333-0.20461 0-0.381 0.17639-0.381 0.42686 0 0.24518 0.17462 0.41804 0.37747 0.41804 0.1905 0 0.36336-0.15346 0.36336-0.42157zm-0.36865-0.31574c0.11642 0 0.23989 0.10054 0.23989 0.32103 0 0.20285-0.11642 0.30515-0.23283 0.30515-0.12876 0-0.24518-0.11994-0.24518-0.31926 0-0.19756 0.11465-0.30692 0.23812-0.30692z"/>
    <path d="m10.333 83.984h0.12876v-0.4639c0-0.05292 0.0071-0.09349 0.04057-0.13758 0.02999-0.04057 0.1076-0.11289 0.19226-0.11289 0.04057 0 0.08114 0.01764 0.10936 0.05115 0.0441 0.05292 0.0441 0.12171 0.0441 0.17815v0.48507h0.12524v-0.4886c0-0.06174 0-0.12876-0.02822-0.19403-0.04057-0.08996-0.12347-0.14111-0.2152-0.14111-0.10936 0-0.20814 0.07056-0.26811 0.16051v-0.14111h-0.12876z"/>
   </g>
   <rect x="-1.1" y="60.266" width="12.587" height="4.0366" fill="#3b390d" fill-opacity=".38431" stroke="#e9e56f" stroke-width=".11289"/>
   <g fill="#e9e56f" stroke-width=".28222px" aria-label="Reload Weapon">
    <path d="m-0.27133 61.718v1.0989h0.12347v-0.48507h0.21343l0.24342 0.48507h0.13935l-0.254-0.4886c0.13229-0.037042 0.22401-0.16228 0.22401-0.30868 0-0.10936-0.05468-0.21343-0.15699-0.26458-0.068792-0.03528-0.13758-0.03704-0.2099-0.03704zm0.12347 0.11642h0.19932c0.045861 0 0.089958 0.0018 0.13582 0.02293 0.068792 0.03528 0.10407 0.10583 0.10407 0.17639 0 0.07056-0.033514 0.13582-0.097014 0.16757-0.042333 0.02117-0.084667 0.02293-0.12876 0.02293h-0.21343z"/>
    <path d="m0.96692 61.993c-0.19226 0-0.37042 0.13758-0.37042 0.43039 0 0.26988 0.16757 0.41275 0.38629 0.41275 0.11642 0 0.22049-0.04233 0.28928-0.12524l-0.070556-0.06879c-0.051153 0.05997-0.12876 0.09172-0.20814 0.09172-0.1076 0-0.26458-0.05997-0.2734-0.30162h0.5715c0.00529-0.05468 0.00353-0.1076-0.00529-0.15346-0.037042-0.21696-0.18697-0.28575-0.31926-0.28575zm-0.24342 0.34219c0.026458-0.1905 0.14817-0.24518 0.2346-0.24518 0.13053 0 0.22401 0.11465 0.20814 0.24518z"/>
    <path d="m1.5419 61.646v0.1023h0.22931v0.96838h-0.23989v0.10054h0.60501v-0.10054h-0.23812v-1.0707z"/>
    <path d="m3.0871 62.419c0-0.27869-0.17639-0.42333-0.35983-0.42333-0.20461 0-0.381 0.17639-0.381 0.42686 0 0.24518 0.17462 0.41804 0.37747 0.41804 0.1905 0 0.36336-0.15346 0.36336-0.42157zm-0.36865-0.31574c0.11642 0 0.23989 0.10054 0.23989 0.32103 0 0.20285-0.11642 0.30515-0.23283 0.30515-0.12876 0-0.24518-0.11994-0.24518-0.31926 0-0.19756 0.11465-0.30692 0.23812-0.30692z"/>
    <path d="m3.3164 62.106 0.061736 0.08114c0.067028-0.06879 0.15699-0.08996 0.23283-0.08996 0.09525 0 0.14288 0.04057 0.16581 0.07761 0.026458 0.0441 0.024694 0.09701 0.024694 0.13935v0.02822h-0.024694c-0.11994 0-0.24694 0-0.34925 0.03704-0.127 0.04586-0.18344 0.14111-0.18344 0.2293 0 0.11818 0.10231 0.22931 0.26988 0.22931 0.098778 0 0.20108-0.03704 0.28928-0.10936v0.08819h0.11994v-0.49918c0-0.06526-0.00176-0.127-0.038806-0.1905-0.052917-0.08643-0.15522-0.13229-0.28046-0.13229-0.1076 0-0.21167 0.03351-0.28751 0.11112zm0.49036 0.33338v0.05468c0 0.04057 0 0.09349-0.054681 0.1517-0.029986 0.02999-0.10583 0.09525-0.21167 0.09525-0.1076 0-0.16933-0.06879-0.16933-0.13935 0-0.05997 0.04057-0.12524 0.14111-0.14993 0.074083-0.01764 0.18168-0.01235 0.26635-0.01235z"/>
    <path d="m4.694 62.129c-0.038806-0.0829-0.12524-0.13758-0.23636-0.13758-0.15346 0-0.34043 0.10936-0.34043 0.41628 0 0.2981 0.16581 0.42862 0.32103 0.42862 0.10231 0 0.19756-0.05821 0.24871-0.14817v0.07056c0 0.0194 0.00176 0.03881 0.00706 0.05821h0.127c-0.00706-0.02293-0.00706-0.04939-0.00706-0.07408l-0.00176-1.0478c0-0.01058 0-0.01411 0.00706-0.0247 0.00353-0.0053 0.010583-0.01411 0.00882-0.02646h-0.13406zm-0.23107-0.03351c0.070556 0 0.17462 0.03704 0.20638 0.15699 0.010583 0.03704 0.014111 0.08114 0.014111 0.1711 0 0.06174-0.00353 0.10583-0.017639 0.14817-0.029986 0.09525-0.11465 0.15169-0.19756 0.15169-0.091722 0-0.22754-0.07056-0.22754-0.33514 0-0.23107 0.12876-0.2928 0.22225-0.2928z"/>
    <path d="m5.8335 61.718 0.17639 1.1077h0.049389l0.19226-0.72672 0.18874 0.72672h0.049389l0.17286-1.1077h-0.10407l-0.10054 0.74612-0.17815-0.66499h-0.037042l-0.17639 0.66322-0.11994-0.74436z"/>
    <path d="m7.1405 61.993c-0.19226 0-0.37042 0.13758-0.37042 0.43039 0 0.26988 0.16757 0.41275 0.38629 0.41275 0.11642 0 0.22049-0.04233 0.28928-0.12524l-0.070556-0.06879c-0.051153 0.05997-0.12876 0.09172-0.20814 0.09172-0.1076 0-0.26458-0.05997-0.2734-0.30162h0.5715c0.00529-0.05468 0.00353-0.1076-0.00529-0.15346-0.037042-0.21696-0.18697-0.28575-0.31926-0.28575zm-0.24342 0.34219c0.026458-0.1905 0.14817-0.24518 0.2346-0.24518 0.13053 0 0.22401 0.11465 0.20814 0.24518z"/>
    <path d="m7.7261 62.106 0.061736 0.08114c0.067028-0.06879 0.15699-0.08996 0.23283-0.08996 0.09525 0 0.14288 0.04057 0.16581 0.07761 0.026458 0.0441 0.024694 0.09701 0.024694 0.13935v0.02822h-0.024694c-0.11994 0-0.24694 0-0.34925 0.03704-0.127 0.04586-0.18344 0.14111-0.18344 0.2293 0 0.11818 0.10231 0.22931 0.26988 0.22931 0.098778 0 0.20108-0.03704 0.28928-0.10936v0.08819h0.11994v-0.49918c0-0.06526-0.00176-0.127-0.038806-0.1905-0.052917-0.08643-0.15522-0.13229-0.28046-0.13229-0.1076 0-0.21167 0.03351-0.28751 0.11112zm0.49036 0.33338v0.05468c0 0.04057 0 0.09349-0.054681 0.1517-0.029986 0.02999-0.10583 0.09525-0.21167 0.09525-0.1076 0-0.16933-0.06879-0.16933-0.13935 0-0.05997 0.040569-0.12524 0.14111-0.14993 0.074083-0.01764 0.18168-0.01235 0.26635-0.01235z"/>
    <path d="m8.5534 62.013 0.00176 1.0989h0.12876v-0.4004c0.054681 0.07937 0.14464 0.12876 0.24165 0.12876 0.16581 0 0.33867-0.13935 0.33867-0.43392 0-0.28399-0.16757-0.41099-0.32632-0.41099-0.10407 0-0.20108 0.05292-0.25576 0.14111v-0.12347zm0.3369 0.08996c0.070556 0 0.24165 0.03704 0.24165 0.32985 0 0.254-0.16581 0.29457-0.24165 0.29457-0.075847 0-0.15346-0.03881-0.18521-0.11112-0.022931-0.05468-0.022931-0.12171-0.022931-0.23812 0-0.06703 0.00353-0.11642 0.021167-0.15875 0.03175-0.07232 0.10583-0.11642 0.18697-0.11642z"/>
    <path d="m10.143 62.419c0-0.27869-0.17639-0.42333-0.35983-0.42333-0.20461 0-0.381 0.17639-0.381 0.42686 0 0.24518 0.17462 0.41804 0.37747 0.41804 0.1905 0 0.36336-0.15346 0.36336-0.42157zm-0.36865-0.31574c0.11642 0 0.23989 0.10054 0.23989 0.32103 0 0.20285-0.11642 0.30515-0.23283 0.30515-0.12876 0-0.24518-0.11994-0.24518-0.31926 0-0.19756 0.11465-0.30692 0.23812-0.30692z"/>
    <path d="m10.333 62.817h0.12876v-0.4639c0-0.05292 0.0071-0.09349 0.04057-0.13758 0.02999-0.04057 0.1076-0.11289 0.19226-0.11289 0.04057 0 0.08114 0.01764 0.10936 0.05115 0.0441 0.05292 0.0441 0.12171 0.0441 0.17815v0.48507h0.12524v-0.4886c0-0.06174 0-0.12876-0.02822-0.19403-0.04057-0.08996-0.12347-0.14111-0.2152-0.14111-0.10936 0-0.20814 0.07056-0.26811 0.16051v-0.14111h-0.12876z"/>
   </g>
   <rect x="15.833" y="60.266" width="12.587" height="4.0366" fill="#0d1f3b" fill-opacity=".38431" stroke="#6fa0e9" stroke-width=".11289"/>
   <g fill="#e9e56f" stroke-width=".28222px" aria-label="Attack">
    <path d="m19.128 62.819h0.12171l0.1076-0.32279h0.34749l0.12171 0.32103h0.12876l-0.4251-1.1183h-0.01411zm0.55033-0.41804h-0.2981l0.14288-0.41804z"/>
    <path d="m20.317 61.796-0.01587 0.21696h-0.19226l-0.0018 0.10407h0.18874c-0.01058 0.13758-0.01588 0.27517-0.01588 0.41099 0 0.07232 0 0.15346 0.04763 0.22049 0.0388 0.05292 0.10054 0.08467 0.18344 0.08467 0.09525 0 0.18874-0.04057 0.25753-0.08996l-0.0388-0.10054c-0.06879 0.05115-0.13229 0.07408-0.18168 0.07408-0.05997 0-0.12171-0.03351-0.13582-0.13053 0-0.0071-0.0053-0.03704-0.0053-0.15522 0-0.10407 0.0053-0.2099 0.01588-0.31397h0.26458v-0.10583h-0.26282s0.01235-0.14464 0.02117-0.1905c0.0018-0.01764 0.01588-0.02822 0.0088-0.04762z"/>
    <path d="m21.199 61.796-0.01588 0.21696h-0.19226l-0.0018 0.10407h0.18874c-0.01058 0.13758-0.01588 0.27517-0.01588 0.41099 0 0.07232 0 0.15346 0.04763 0.22049 0.03881 0.05292 0.10054 0.08467 0.18344 0.08467 0.09525 0 0.18874-0.04057 0.25753-0.08996l-0.03881-0.10054c-0.06879 0.05115-0.13229 0.07408-0.18168 0.07408-0.05997 0-0.12171-0.03351-0.13582-0.13053 0-0.0071-0.0053-0.03704-0.0053-0.15522 0-0.10407 0.0053-0.2099 0.01588-0.31397h0.26458v-0.10583h-0.26282s0.01235-0.14464 0.02117-0.1905c0.0018-0.01764 0.01588-0.02822 0.0088-0.04762z"/>
    <path d="m21.908 62.106 0.06174 0.08114c0.06703-0.06879 0.15699-0.08996 0.23283-0.08996 0.09525 0 0.14288 0.04057 0.1658 0.07761 0.02646 0.0441 0.0247 0.09701 0.0247 0.13935v0.02822h-0.0247c-0.11994 0-0.24694 0-0.34925 0.03704-0.127 0.04586-0.18344 0.14111-0.18344 0.2293 0 0.11818 0.10231 0.22931 0.26988 0.22931 0.09878 0 0.20108-0.03704 0.28928-0.10936v0.08819h0.11994v-0.49918c0-0.06526-0.0018-0.127-0.0388-0.1905-0.05292-0.08643-0.15522-0.13229-0.28046-0.13229-0.1076 0-0.21167 0.03351-0.28751 0.11112zm0.49036 0.33338v0.05468c0 0.04057 0 0.09349-0.05468 0.1517-0.02999 0.02999-0.10583 0.09525-0.21167 0.09525-0.1076 0-0.16933-0.06879-0.16933-0.13935 0-0.05997 0.04057-0.12524 0.14111-0.14993 0.07408-0.01764 0.18168-0.01235 0.26635-0.01235z"/>
    <path d="m23.435 62.145c-0.0635-0.09349-0.1711-0.14993-0.30162-0.14993-0.23636 0-0.40393 0.17815-0.40393 0.4198 0 0.24342 0.16757 0.42333 0.39688 0.42333 0.11112 0 0.22049-0.04586 0.29633-0.12876l-0.07232-0.08467c-0.05468 0.06174-0.13406 0.09701-0.21343 0.09701-0.15699 0-0.27693-0.13053-0.27693-0.31926 0-0.18344 0.11818-0.2981 0.26635-0.2981 0.13758 0 0.20285 0.09525 0.20814 0.10583 0.0071 0.01235-0.0035 0.02999 0.01058 0.04057z"/>
    <path d="m23.629 61.646v1.173h0.127v-0.30515l0.1076-0.09878 0.32808 0.41099s0.06879-0.0071 0.1517-0.0071h0.01235l-0.39511-0.48154 0.34043-0.31926h-0.04586c-0.03175 0-0.0635-0.0018-0.09525-0.01058l-0.40393 0.37571v-0.6914c0-0.0071 0.0018-0.01235 0.0071-0.02117 0.0053-0.0053 0.01235-0.01235 0.01058-0.02469z"/>
   </g>
   <rect x="15.833" y="71.837" width="12.587" height="4.0366" fill="#0d1f3b" fill-opacity=".38431" stroke="#6fa0e9" stroke-width=".11289"/>
   <g fill="#e9e56f" stroke-width=".28222px" aria-label="Attack">
    <path d="m19.128 74.39h0.12171l0.1076-0.32279h0.34749l0.12171 0.32103h0.12876l-0.4251-1.1183h-0.01411zm0.55033-0.41804h-0.2981l0.14288-0.41804z"/>
    <path d="m20.317 73.367-0.01587 0.21696h-0.19226l-0.0018 0.10407h0.18874c-0.01058 0.13758-0.01588 0.27517-0.01588 0.41099 0 0.07232 0 0.15346 0.04763 0.22049 0.0388 0.05292 0.10054 0.08467 0.18344 0.08467 0.09525 0 0.18874-0.04057 0.25753-0.08996l-0.0388-0.10054c-0.06879 0.05115-0.13229 0.07408-0.18168 0.07408-0.05997 0-0.12171-0.03351-0.13582-0.13053 0-0.0071-0.0053-0.03704-0.0053-0.15522 0-0.10407 0.0053-0.2099 0.01588-0.31397h0.26458v-0.10583h-0.26282s0.01235-0.14464 0.02117-0.1905c0.0018-0.01764 0.01588-0.02822 0.0088-0.04762z"/>
    <path d="m21.199 73.367-0.01588 0.21696h-0.19226l-0.0018 0.10407h0.18874c-0.01058 0.13758-0.01588 0.27517-0.01588 0.41099 0 0.07232 0 0.15346 0.04763 0.22049 0.03881 0.05292 0.10054 0.08467 0.18344 0.08467 0.09525 0 0.18874-0.04057 0.25753-0.08996l-0.03881-0.10054c-0.06879 0.05115-0.13229 0.07408-0.18168 0.07408-0.05997 0-0.12171-0.03351-0.13582-0.13053 0-0.0071-0.0053-0.03704-0.0053-0.15522 0-0.10407 0.0053-0.2099 0.01588-0.31397h0.26458v-0.10583h-0.26282s0.01235-0.14464 0.02117-0.1905c0.0018-0.01764 0.01588-0.02822 0.0088-0.04762z"/>
    <path d="m21.908 73.677 0.06174 0.08114c0.06703-0.06879 0.15699-0.08996 0.23283-0.08996 0.09525 0 0.14288 0.04057 0.1658 0.07761 0.02646 0.0441 0.0247 0.09701 0.0247 0.13935v0.02822h-0.0247c-0.11994 0-0.24694 0-0.34925 0.03704-0.127 0.04586-0.18344 0.14111-0.18344 0.22931 0 0.11818 0.10231 0.22931 0.26988 0.22931 0.09878 0 0.20108-0.03704 0.28928-0.10936v0.08819h0.11994v-0.49917c0-0.06526-0.0018-0.127-0.0388-0.1905-0.05292-0.08643-0.15522-0.13229-0.28046-0.13229-0.1076 0-0.21167 0.03351-0.28751 0.11112zm0.49036 0.33338v0.05468c0 0.04057 0 0.09349-0.05468 0.1517-0.02999 0.02999-0.10583 0.09525-0.21167 0.09525-0.1076 0-0.16933-0.06879-0.16933-0.13935 0-0.05997 0.04057-0.12524 0.14111-0.14993 0.07408-0.01764 0.18168-0.01235 0.26635-0.01235z"/>
    <path d="m23.435 73.716c-0.0635-0.09349-0.1711-0.14993-0.30162-0.14993-0.23636 0-0.40393 0.17815-0.40393 0.4198 0 0.24342 0.16757 0.42333 0.39688 0.42333 0.11112 0 0.22049-0.04586 0.29633-0.12876l-0.07232-0.08467c-0.05468 0.06174-0.13406 0.09701-0.21343 0.09701-0.15699 0-0.27693-0.13053-0.27693-0.31926 0-0.18344 0.11818-0.2981 0.26635-0.2981 0.13758 0 0.20285 0.09525 0.20814 0.10583 0.0071 0.01235-0.0035 0.02999 0.01058 0.04057z"/>
    <path d="m23.629 73.217v1.173h0.127v-0.30515l0.1076-0.09878 0.32808 0.41099s0.06879-0.0071 0.1517-0.0071h0.01235l-0.39511-0.48154 0.34043-0.31926h-0.04586c-0.03175 0-0.0635-0.0018-0.09525-0.01058l-0.40393 0.37571v-0.6914c0-0.0071 0.0018-0.01235 0.0071-0.02117 0.0053-0.0053 0.01235-0.01235 0.01058-0.02469z"/>
   </g>
   <rect x="15.833" y="81.715" width="12.587" height="4.0366" fill="#0d1f3b" fill-opacity=".38431" stroke="#6fa0e9" stroke-width=".11289"/>
   <g fill="#e9e56f" stroke-width=".28222px" aria-label="Attack">
    <path d="m19.128 84.268h0.12171l0.1076-0.32279h0.34749l0.12171 0.32103h0.12876l-0.4251-1.1183h-0.01411zm0.55033-0.41804h-0.2981l0.14288-0.41804z"/>
    <path d="m20.317 83.245-0.01587 0.21696h-0.19226l-0.0018 0.10407h0.18874c-0.01058 0.13758-0.01588 0.27517-0.01588 0.41099 0 0.07232 0 0.15346 0.04763 0.22049 0.0388 0.05292 0.10054 0.08467 0.18344 0.08467 0.09525 0 0.18874-0.04057 0.25753-0.08996l-0.0388-0.10054c-0.06879 0.05115-0.13229 0.07408-0.18168 0.07408-0.05997 0-0.12171-0.03351-0.13582-0.13053 0-0.0071-0.0053-0.03704-0.0053-0.15522 0-0.10407 0.0053-0.2099 0.01588-0.31397h0.26458v-0.10583h-0.26282s0.01235-0.14464 0.02117-0.1905c0.0018-0.01764 0.01588-0.02822 0.0088-0.04763z"/>
    <path d="m21.199 83.245-0.01588 0.21696h-0.19226l-0.0018 0.10407h0.18874c-0.01058 0.13758-0.01588 0.27517-0.01588 0.41099 0 0.07232 0 0.15346 0.04763 0.22049 0.03881 0.05292 0.10054 0.08467 0.18344 0.08467 0.09525 0 0.18874-0.04057 0.25753-0.08996l-0.03881-0.10054c-0.06879 0.05115-0.13229 0.07408-0.18168 0.07408-0.05997 0-0.12171-0.03351-0.13582-0.13053 0-0.0071-0.0053-0.03704-0.0053-0.15522 0-0.10407 0.0053-0.2099 0.01588-0.31397h0.26458v-0.10583h-0.26282s0.01235-0.14464 0.02117-0.1905c0.0018-0.01764 0.01588-0.02822 0.0088-0.04763z"/>
    <path d="m21.908 83.555 0.06174 0.08114c0.06703-0.06879 0.15699-0.08996 0.23283-0.08996 0.09525 0 0.14288 0.04057 0.1658 0.07761 0.02646 0.0441 0.0247 0.09701 0.0247 0.13935v0.02822h-0.0247c-0.11994 0-0.24694 0-0.34925 0.03704-0.127 0.04586-0.18344 0.14111-0.18344 0.2293 0 0.11818 0.10231 0.22931 0.26988 0.22931 0.09878 0 0.20108-0.03704 0.28928-0.10936v0.08819h0.11994v-0.49918c0-0.06526-0.0018-0.127-0.0388-0.1905-0.05292-0.08643-0.15522-0.13229-0.28046-0.13229-0.1076 0-0.21167 0.03351-0.28751 0.11112zm0.49036 0.33338v0.05468c0 0.04057 0 0.09349-0.05468 0.1517-0.02999 0.02999-0.10583 0.09525-0.21167 0.09525-0.1076 0-0.16933-0.06879-0.16933-0.13935 0-0.05997 0.04057-0.12524 0.14111-0.14993 0.07408-0.01764 0.18168-0.01235 0.26635-0.01235z"/>
    <path d="m23.435 83.594c-0.0635-0.09349-0.1711-0.14993-0.30162-0.14993-0.23636 0-0.40393 0.17815-0.40393 0.4198 0 0.24342 0.16757 0.42333 0.39688 0.42333 0.11112 0 0.22049-0.04586 0.29633-0.12876l-0.07232-0.08467c-0.05468 0.06174-0.13406 0.09701-0.21343 0.09701-0.15699 0-0.27693-0.13053-0.27693-0.31926 0-0.18344 0.11818-0.2981 0.26635-0.2981 0.13758 0 0.20285 0.09525 0.20814 0.10583 0.0071 0.01235-0.0035 0.02999 0.01058 0.04057z"/>
    <path d="m23.629 83.095v1.173h0.127v-0.30515l0.1076-0.09878 0.32808 0.41099s0.06879-0.0071 0.1517-0.0071h0.01235l-0.39511-0.48154 0.34043-0.31926h-0.04586c-0.03175 0-0.0635-0.0018-0.09525-0.01058l-0.40393 0.37571v-0.69144c0-0.0071 0.0018-0.01235 0.0071-0.02117 0.0053-0.0053 0.01235-0.01235 0.01058-0.02469z"/>
   </g>
   <g transform="matrix(.28222 0 0 .28222 -217.06 -193.37)" fill="none" stroke="#d54747" stroke-width="1px">
    <path d="m755 885.01 7.6464-7.6464"/>
    <path d="m762.65 885.01-7.6464-7.6464"/>
   </g>
   <g transform="matrix(.28222 0 0 .28222 -217.06 -178.13)" fill="none" stroke="#d54747" stroke-width="1px">
    <path d="m755 885.01 7.6464-7.6464"/>
    <path d="m762.65 885.01-7.6464-7.6464"/>
   </g>
   <g transform="matrix(.28222 0 0 .28222 -234.55 -177)" fill="none" stroke="#d54747" stroke-width="1px">
    <path d="m755 885.01 7.6464-7.6464"/>
    <path d="m762.65 885.01-7.6464-7.6464"/>
   </g>
   <g transform="matrix(.28222 0 0 .28222 -234.55 -159.79)" fill="none" stroke="#d54747" stroke-width="1px">
    <path d="m755 885.01 7.6464-7.6464"/>
    <path d="m762.65 885.01-7.6464-7.6464"/>
   </g>
   <g transform="matrix(.28222 0 0 .28222 -200.69 -160.35)" fill="none" stroke="#d54747" stroke-width="1px">
    <path d="m755 885.01 7.6464-7.6464"/>
    <path d="m762.65 885.01-7.6464-7.6464"/>
   </g>
   <g transform="matrix(.28222 0 0 .28222 -200.69 -170.23)" fill="none" stroke="#d54747" stroke-width="1px">
    <path d="m755 885.01 7.6464-7.6464"/>
    <path d="m762.65 885.01-7.6464-7.6464"/>
   </g>
  </g>
 </g>
</svg>
