<svg enable-background="new 0 0 595.28 841.89" version="1.1" viewBox="0 0 493.18 228.88" xml:space="preserve" xmlns="http://www.w3.org/2000/svg">
<g transform="translate(-51.722 -184.48)">
	<path d="m172.38 186.82c7.313 0 13.221 5.953 13.221 13.229v52.252c0 7.317-5.908 13.228-13.221 13.228h-105.11c-7.272 0-13.221-5.911-13.221-13.228v-52.252c0-7.276 5.949-13.229 13.221-13.229z" clip-rule="evenodd" fill="#3b390d" fill-opacity=".38431" fill-rule="evenodd"/>
		<path d="m172.38 186.82c7.313 0 13.221 5.953 13.221 13.229v52.252c0 7.317-5.908 13.228-13.221 13.228v0h-105.11v0c-7.272 0-13.221-5.911-13.221-13.228v-52.252c0-7.276 5.949-13.229 13.221-13.229v0z" fill="none" stroke="#e9e66f" stroke-linecap="round" stroke-linejoin="round" stroke-miterlimit="10" stroke-width=".6614"/>
	<g transform="scale(.9997 1.0003)" fill="#e9e66f" stroke-width=".9997" aria-label="Sleeping"><path d="m101.55 221.13c-0.49989-0.607-1.2378-0.92835-2.0471-0.92835-1.3449 0-2.2614 0.88075-2.2614 1.9043 0 0.42847 0.16663 0.98786 0.78553 1.4401 0.69032 0.51179 1.7615 0.76173 2.3209 1.1188 0.48799 0.29755 0.61891 0.69031 0.61891 1.0236 0 0.64271-0.54749 1.3449-1.6187 1.3449-0.80934 0-1.4401-0.40467-1.7734-0.82124-0.03571-0.0476-0.03571-0.0714-0.03571-0.11902 0-0.0238 0-0.0952-0.04761-0.11902l-0.49988 0.85694c0.5832 0.63081 1.4163 0.95216 2.3328 0.95216 1.8091 0 2.4756-1.214 2.4756-2.1424 0-0.39276-0.11902-0.90455-0.5832-1.3449-0.64271-0.60701-1.6901-0.82124-2.3685-1.214-0.6189-0.36896-0.74983-0.80933-0.74983-1.1069 0-0.5713 0.48798-1.0831 1.333-1.0831 0.69032 0 1.2259 0.30946 1.5116 0.72603 0.0357 0.0476 0.0238 0.0714 0.0238 0.11902 0 0.0714 0.0357 0.0952 0.0595 0.0952z"/><path d="m103.34 219.75v0.69032h1.5473v6.5342h-1.6187v0.67841h4.0824v-0.67841h-1.6068v-7.2245z"/><path d="m111.36 222.09c-1.2973 0-2.4994 0.92835-2.4994 2.9041 0 1.821 1.1307 2.7851 2.6065 2.7851 0.78553 0 1.4878-0.28565 1.9519-0.84504l-0.47608-0.46418c-0.34516 0.40467-0.86885 0.61891-1.4044 0.61891-0.72602 0-1.7853-0.40467-1.8448-2.0352h3.8562c0.0357-0.36896 0.0238-0.72602-0.0357-1.0355-0.24995-1.464-1.2616-1.9281-2.1543-1.9281zm-1.6425 2.309c0.17853-1.2854 0.99977-1.6544 1.583-1.6544 0.88075 0 1.5116 0.77363 1.4044 1.6544z"/><path d="m117.31 222.09c-1.2973 0-2.4994 0.92835-2.4994 2.9041 0 1.821 1.1307 2.7851 2.6065 2.7851 0.78553 0 1.4878-0.28565 1.9519-0.84504l-0.47608-0.46418c-0.34516 0.40467-0.86885 0.61891-1.4044 0.61891-0.72602 0-1.7853-0.40467-1.8448-2.0352h3.8562c0.0357-0.36896 0.0238-0.72602-0.0357-1.0355-0.24995-1.464-1.2616-1.9281-2.1543-1.9281zm-1.6425 2.309c0.17853-1.2854 0.99977-1.6544 1.583-1.6544 0.88075 0 1.5116 0.77363 1.4044 1.6544z"/><path d="m120.89 222.22 0.0119 7.4149h0.86884v-2.7018c0.36897 0.53559 0.97597 0.86885 1.6306 0.86885 1.1188 0 2.2852-0.94026 2.2852-2.9279 0-1.9162-1.1307-2.7732-2.2019-2.7732-0.70222 0-1.3568 0.35706-1.7258 0.95216v-0.83314zm2.2733 0.607c0.47608 0 1.6306 0.24994 1.6306 2.2257 0 1.7139-1.1188 1.9876-1.6306 1.9876-0.51179 0-1.0355-0.26185-1.2497-0.74983-0.15473-0.36896-0.15473-0.82124-0.15473-1.6068 0-0.45227 0.0238-0.78553 0.14283-1.0712 0.21423-0.48798 0.71412-0.78553 1.2616-0.78553z"/><path d="m127.4 222.21v0.70221h1.3092v4.0586h-1.3806v0.67841h3.523v-0.67841h-1.2735v-4.7608zm1.7615-2.3566c-0.34516 0-0.61891 0.27375-0.61891 0.607 0 0.33326 0.27375 0.607 0.61891 0.607s0.6189-0.27374 0.6189-0.607c0-0.33325-0.27374-0.607-0.6189-0.607z"/><path d="m132.9 227.65h0.86884v-3.1302c0-0.35706 0.0476-0.6308 0.27375-0.92835 0.20233-0.27375 0.72602-0.76173 1.2973-0.76173 0.27374 0 0.54749 0.11902 0.73792 0.34516 0.29755 0.35706 0.29755 0.82124 0.29755 1.2021v3.273h0.84504v-3.2968c0-0.41657 0-0.86885-0.19043-1.3092-0.27375-0.60701-0.83314-0.95216-1.452-0.95216-0.73793 0-1.4044 0.47608-1.8091 1.0831v-0.95216h-0.86884z"/><path d="m139.53 223.91c0-0.65461 0.54749-1.1902 1.2021-1.1902 0.66651 0 1.2021 0.53559 1.2021 1.1902s-0.53559 1.1902-1.2021 1.1902-1.2021-0.53559-1.2021-1.1902zm1.2497-1.8686c-1.0831 0-2.0233 0.85694-2.0233 1.9162 0 0.5951 0.29755 1.1545 0.79743 1.4758-0.39276 0.33325-0.6189 0.70222-0.6189 1.0474 0 0.22614 0.0952 0.5475 0.44037 0.72603-0.58319 0.36896-0.88074 0.77363-0.88074 1.2021 0 0.5951 0.54749 1.2973 2.4518 1.2973 1.8448 0 2.5113-0.94026 2.5113-1.6663 0-0.47608-0.27375-0.95216-0.84504-1.1783-0.5713-0.23804-1.2259-0.15473-1.8448-0.15473-0.40467 0-0.66651-0.0357-0.77363-0.0714-0.21424-0.0595-0.33326-0.19043-0.33326-0.35706 0-0.28565 0.33326-0.55939 0.39277-0.607 0.21423 0.0833 0.45227 0.11902 0.69031 0.11902 1.0712 0 1.9519-0.85695 1.9519-1.8567 0-0.33326-0.0952-0.65461-0.27374-0.92836 0.28564-0.16663 0.6189-0.26184 0.95216-0.26184 0.10711 0 0.20233 0.0119 0.30945 0.0357l-0.0952-0.70222c-0.54749-0.0476-1.095 0.13093-1.5116 0.47608-0.34516-0.33325-0.79744-0.51178-1.2973-0.51178zm-0.82124 5.3202c0.20234 0.0238 0.48798 0.0476 0.90455 0.0714 0.40467 0.0119 0.84505-0.0238 1.1545 0.0238 0.49988 0.0833 0.65461 0.39276 0.65461 0.6308s-0.14283 0.52369-0.51179 0.72603c-0.40467 0.21423-0.85694 0.23804-1.2259 0.23804-0.24995 0-0.71412-0.0119-1.1188-0.17853-0.44038-0.17853-0.53559-0.47608-0.53559-0.66652 0-0.39276 0.36896-0.67841 0.67841-0.84504z"/></g>
	<path d="m172.38 255.93c0-0.91-1.322-1.654-2.975-1.654-1.611 0-2.975 0.744-2.975 1.654 0 0.951 1.363 1.653 2.975 1.653 1.653 0 2.975-0.703 2.975-1.653" clip-rule="evenodd" fill="#3c3c18" fill-rule="evenodd"/>
		<path d="m173.04 256.26c0-1.075-1.446-1.984-3.305-1.984-1.818 0-3.305 0.91-3.305 1.984 0 1.116 1.487 1.984 3.305 1.984 1.858 1e-3 3.305-0.868 3.305-1.984" fill="none" stroke="#e9e66f" stroke-linecap="round" stroke-linejoin="round" stroke-miterlimit="10" stroke-width=".6614"/>
	<path d="m181.64 255.93c0-0.91-1.322-1.654-2.975-1.654-1.611 0-2.975 0.744-2.975 1.654 0 0.951 1.363 1.653 2.975 1.653 1.653 0 2.975-0.703 2.975-1.653" clip-rule="evenodd" fill="#3c3c18" fill-rule="evenodd"/>
		<path d="m182.3 256.26c0-1.075-1.446-1.984-3.305-1.984-1.818 0-3.305 0.91-3.305 1.984 0 1.116 1.487 1.984 3.305 1.984 1.859 1e-3 3.305-0.868 3.305-1.984" fill="none" stroke="#e9e66f" stroke-linecap="round" stroke-linejoin="round" stroke-miterlimit="10" stroke-width=".6614"/>
		<line x1="173.04" x2="175.69" y1="256.26" y2="256.26" fill="none" stroke="#e9e66f" stroke-linecap="round" stroke-linejoin="round" stroke-miterlimit="10" stroke-width=".6614"/>
	<path d="m172.38 332.33c7.313 0 13.221 5.953 13.221 13.229v52.252c0 7.316-5.908 13.229-13.221 13.229h-105.11c-7.272 0-13.221-5.912-13.221-13.229v-52.252c0-7.275 5.949-13.229 13.221-13.229z" clip-rule="evenodd" fill="#3b390d" fill-opacity=".38431" fill-rule="evenodd"/>
		<path d="m172.38 332.33c7.313 0 13.221 5.953 13.221 13.229v52.252c0 7.316-5.908 13.229-13.221 13.229v0h-105.11v0c-7.272 0-13.221-5.912-13.221-13.229v-52.252c0-7.275 5.949-13.229 13.221-13.229v0z" fill="none" stroke="#e9e66f" stroke-linecap="round" stroke-linejoin="round" stroke-miterlimit="10" stroke-width=".6614"/>
	<g transform="scale(.9997 1.0003)" fill="#e9e66f" stroke-width=".9997" aria-label="Patrol"><path d="m103.02 365.71v7.415h0.86885v-3.273h1.452c0.46418 0 0.90456-0.0119 1.3568-0.23804 0.69032-0.34516 1.0474-1.0593 1.0474-1.8091 0-0.74983-0.35706-1.4758-1.0593-1.8329-0.46418-0.24994-0.92836-0.26185-1.4044-0.26185zm0.86885 0.78554h1.3925c0.30946 0 0.60701 0.0119 0.91646 0.15472 0.45227 0.23804 0.70222 0.71412 0.70222 1.1902s-0.23804 0.91646-0.66652 1.1307c-0.28564 0.14283-0.57129 0.15473-0.85694 0.15473h-1.4996z"/><path d="m109.36 368.32 0.41657 0.5475c0.45227-0.46418 1.0593-0.60701 1.5711-0.60701 0.64271 0 0.96406 0.27375 1.1188 0.52369 0.17853 0.29755 0.16663 0.65461 0.16663 0.94026v0.19043h-0.16663c-0.80934 0-1.6663 0-2.3566 0.24994-0.85694 0.30946-1.2378 0.95216-1.2378 1.5473 0 0.79744 0.69031 1.5473 1.821 1.5473 0.66651 0 1.3568-0.24994 1.9519-0.73792v0.5951h0.80934v-3.3683c0-0.44037-0.0119-0.85694-0.26185-1.2854-0.35706-0.5832-1.0474-0.89265-1.8924-0.89265-0.72602 0-1.4282 0.22614-1.94 0.74982zm3.3088 2.2495v0.36896c0 0.27375 0 0.63081-0.36896 1.0236-0.20233 0.20233-0.71412 0.6427-1.4282 0.6427-0.72602 0-1.1426-0.46417-1.1426-0.94025 0-0.40467 0.27375-0.84505 0.95216-1.0117 0.49988-0.11902 1.2259-0.0833 1.7972-0.0833z"/><path d="m116.47 366.23-0.10711 1.464h-1.2973l-0.0119 0.70222h1.2735c-0.0714 0.92835-0.10712 1.8567-0.10712 2.7732 0 0.48798 0 1.0355 0.32136 1.4878 0.26184 0.35706 0.67841 0.5713 1.2378 0.5713 0.64271 0 1.2735-0.27375 1.7377-0.607l-0.26185-0.67842c-0.46418 0.34516-0.89265 0.49989-1.2259 0.49989-0.40467 0-0.82124-0.22614-0.91646-0.88075 0-0.0476-0.0357-0.24994-0.0357-1.0474 0-0.70222 0.0357-1.4163 0.10711-2.1186h1.7853v-0.71412h-1.7734s0.0833-0.97597 0.14282-1.2854c0.0119-0.11902 0.10712-0.19043 0.0595-0.32135z"/><path d="m121.37 367.69v5.4392h0.85694v-2.6422c0-0.33326 0.0119-0.69032 0.38086-1.2735 0.49989-0.78553 1.1426-0.91645 1.5354-0.91645 0.45228 0 0.73793 0.21424 0.89265 0.40467 0.0714 0.0952 0.10712 0.19043 0.20234 0.27374l0.40466-0.82123c-0.34515-0.35706-0.84504-0.5951-1.452-0.5951-0.79743 0-1.6068 0.40466-1.9638 1.1783l0.0357-1.0474z"/><path d="m131.61 370.43c0-1.8805-1.1902-2.8565-2.428-2.8565-1.3806 0-2.5708 1.1902-2.5708 2.8803 0 1.6544 1.1783 2.8208 2.547 2.8208 1.2854 0 2.4518-1.0355 2.4518-2.8446zm-2.4875-2.1305c0.78553 0 1.6187 0.67841 1.6187 2.1662 0 1.3687-0.78553 2.059-1.5711 2.059-0.86885 0-1.6544-0.80934-1.6544-2.1543 0-1.333 0.77363-2.071 1.6068-2.071z"/><path d="m133.09 365.22v0.69032h1.5473v6.5342h-1.6187v0.67841h4.0824v-0.67841h-1.6068v-7.2245z"/></g>
	<path d="m172.38 401.44c0-0.909-1.322-1.653-2.975-1.653-1.611 0-2.975 0.744-2.975 1.653 0 0.951 1.363 1.653 2.975 1.653 1.653 1e-3 2.975-0.702 2.975-1.653" clip-rule="evenodd" fill="#3c3c18" fill-rule="evenodd"/>
		<path d="m173.04 401.78c0-1.075-1.446-1.984-3.305-1.984-1.818 0-3.305 0.909-3.305 1.984 0 1.116 1.487 1.984 3.305 1.984 1.858 1e-3 3.305-0.867 3.305-1.984" fill="none" stroke="#e9e66f" stroke-linecap="round" stroke-linejoin="round" stroke-miterlimit="10" stroke-width=".6614"/>
	<path d="m181.64 401.44c0-0.909-1.322-1.653-2.975-1.653-1.611 0-2.975 0.744-2.975 1.653 0 0.951 1.363 1.653 2.975 1.653 1.653 1e-3 2.975-0.702 2.975-1.653" clip-rule="evenodd" fill="#3c3c18" fill-rule="evenodd"/>
		<path d="m182.3 401.78c0-1.075-1.446-1.984-3.305-1.984-1.818 0-3.305 0.909-3.305 1.984 0 1.116 1.487 1.984 3.305 1.984 1.859 1e-3 3.305-0.867 3.305-1.984" fill="none" stroke="#e9e66f" stroke-linecap="round" stroke-linejoin="round" stroke-miterlimit="10" stroke-width=".6614"/>
		<line x1="173.04" x2="175.69" y1="401.78" y2="401.78" fill="none" stroke="#e9e66f" stroke-linecap="round" stroke-linejoin="round" stroke-miterlimit="10" stroke-width=".6614"/>
	<path d="m529.35 186.82c7.314 0 13.223 5.953 13.223 13.229v197.76c0 7.316-5.908 13.229-13.223 13.229h-276.98c-7.271 0-13.221-5.912-13.221-13.229v-197.76c0-7.276 5.95-13.229 13.221-13.229z" clip-rule="evenodd" fill="#3b390d" fill-opacity=".38431" fill-rule="evenodd"/>
		<path d="m529.35 186.82c7.314 0 13.223 5.953 13.223 13.229v197.76c0 7.316-5.908 13.229-13.223 13.229v0h-276.98v0c-7.271 0-13.221-5.912-13.221-13.229v-197.76c0-7.276 5.95-13.229 13.221-13.229v0z" fill="none" stroke="#e9e66f" stroke-linecap="round" stroke-linejoin="round" stroke-miterlimit="10" stroke-width=".6614"/>
	<g transform="matrix(.9994 0 0 1 367.38 198.72)" fill="#e9e66f" aria-label="Pursuing"><path d="m0.69055-7.4174v7.4174h0.86914v-3.2742h1.4525c0.46433 0 0.90486-0.011906 1.3573-0.23812 0.69055-0.34527 1.0477-1.0596 1.0477-1.8097s-0.35718-1.4763-1.0596-1.8335c-0.46433-0.25003-0.92867-0.26193-1.4049-0.26193zm0.86914 0.7858h1.393c0.30956 0 0.60721 0.011906 0.91676 0.15478 0.45243 0.23812 0.70245 0.71436 0.70245 1.1906s-0.23812 0.91676-0.66674 1.1311c-0.28574 0.14287-0.57149 0.15478-0.85723 0.15478h-1.5002z"/><path d="m6.6912-5.4291v3.036c0 0.46433 0 0.94057 0.21431 1.4287 0.30956 0.71436 0.97629 1.1073 1.6907 1.1073 0.67864 0 1.3216-0.36909 1.6787-0.96439l-0.011906 0.4048c0 0.14287 0 0.28574 0.02381 0.41671h0.90486c-0.05953-0.15478-0.07144-0.33337-0.07144-0.48815v-4.941h-0.85723v2.9884c0 0.41671-0.03572 0.73817-0.21431 1.0715-0.25003 0.46433-0.73817 0.80961-1.262 0.80961-0.41671 0-0.82151-0.23812-1.0358-0.66674-0.1905-0.38099-0.1905-0.80961-0.1905-1.1668v-3.036z"/><path d="m13.085-5.4291v5.441h0.85723v-2.6431c0-0.33337 0.01191-0.69055 0.38099-1.2739 0.50005-0.7858 1.143-0.91676 1.5359-0.91676 0.45243 0 0.73817 0.21431 0.89295 0.4048 0.07144 0.095248 0.10715 0.1905 0.2024 0.27384l0.4048-0.82151c-0.34527-0.35718-0.84533-0.5953-1.4525-0.5953-0.7977 0-1.6073 0.4048-1.9645 1.1787l0.03572-1.0477z"/><path d="m23.002-4.7148c-0.50005-0.54768-1.2263-0.84533-2.0359-0.84533-1.262 0-2.0836 0.70245-2.0836 1.5121 0 0.95248 1.0239 1.2978 1.3216 1.4049 0.46433 0.16668 1.0596 0.30956 1.4644 0.50005 0.45243 0.21431 0.53577 0.50005 0.53577 0.69055 0 0.51196-0.61911 0.85723-1.393 0.85723-0.92867 0-1.524-0.55958-1.7026-0.75008-0.03572-0.047624-0.03572-0.083342-0.03572-0.13097 0-0.011906 0.01191-0.083342-0.04762-0.10715l-0.50005 0.84533c0.64292 0.5953 1.4763 0.86914 2.2979 0.86914 1.4882 0 2.2621-0.88104 2.2621-1.7026 0-0.36909-0.15478-0.86914-0.7977-1.2263-0.60721-0.34527-1.4882-0.46433-2.0002-0.71436-0.44052-0.21431-0.53577-0.47624-0.53577-0.66674 0-0.42862 0.53577-0.73817 1.143-0.73817 0.7858 0 1.3097 0.47624 1.5121 0.75008 0.03572 0.035718 0.02381 0.071436 0.02381 0.10715 0 0.071436 0.04762 0.095248 0.07144 0.095248z"/><path d="m24.55-5.4291v3.036c0 0.46433 0 0.94057 0.21431 1.4287 0.30956 0.71436 0.97629 1.1073 1.6907 1.1073 0.67864 0 1.3216-0.36909 1.6787-0.96439l-0.011906 0.4048c0 0.14287 0 0.28574 0.02381 0.41671h0.90486c-0.05953-0.15478-0.07144-0.33337-0.07144-0.48815v-4.941h-0.85723v2.9884c0 0.41671-0.03572 0.73817-0.21431 1.0715-0.25003 0.46433-0.73817 0.80961-1.262 0.80961-0.41671 0-0.82151-0.23812-1.0358-0.66674-0.1905-0.38099-0.1905-0.80961-0.1905-1.1668v-3.036z"/><path d="m31.027-5.441v0.70245h1.3097v4.0599h-1.3811v0.67864h3.5242v-0.67864h-1.2739v-4.7624zm1.7621-2.3574c-0.34527 0-0.61911 0.27384-0.61911 0.60721s0.27384 0.60721 0.61911 0.60721 0.61911-0.27384 0.61911-0.60721-0.27384-0.60721-0.61911-0.60721z"/><path d="m36.528 0h0.86914v-3.1313c0-0.35718 0.04762-0.63102 0.27384-0.92867 0.2024-0.27384 0.72627-0.76198 1.2978-0.76198 0.27384 0 0.54768 0.11906 0.73817 0.34527 0.29765 0.35718 0.29765 0.82151 0.29765 1.2025v3.2742h0.84533v-3.298c0-0.41671 0-0.86914-0.1905-1.3097-0.27384-0.60721-0.83342-0.95248-1.4525-0.95248-0.73817 0-1.4049 0.47624-1.8097 1.0834v-0.95248h-0.86914z"/><path d="m43.159-3.7385c0-0.65483 0.54768-1.1906 1.2025-1.1906 0.66674 0 1.2025 0.53577 1.2025 1.1906 0 0.65483-0.53577 1.1906-1.2025 1.1906s-1.2025-0.53577-1.2025-1.1906zm1.2501-1.8692c-1.0834 0-2.024 0.85723-2.024 1.9169 0 0.5953 0.29765 1.1549 0.7977 1.4763-0.3929 0.33337-0.61911 0.70245-0.61911 1.0477 0 0.22621 0.09525 0.54768 0.44052 0.72627-0.58339 0.36909-0.88104 0.77389-0.88104 1.2025 0 0.5953 0.54768 1.2978 2.4526 1.2978 1.8454 0 2.5122-0.94057 2.5122-1.6668 0-0.47624-0.27384-0.95248-0.84533-1.1787-0.57149-0.23812-1.2263-0.15478-1.8454-0.15478-0.4048 0-0.66674-0.035718-0.77389-0.071436-0.21431-0.05953-0.33337-0.1905-0.33337-0.35718 0-0.28574 0.33337-0.55958 0.3929-0.60721 0.21431 0.083342 0.45243 0.11906 0.69055 0.11906 1.0715 0 1.9526-0.85723 1.9526-1.8573 0-0.33337-0.09525-0.65483-0.27384-0.92867 0.28574-0.16668 0.61911-0.26193 0.95248-0.26193 0.10715 0 0.2024 0.011906 0.30956 0.035718l-0.09525-0.70245c-0.54768-0.047624-1.0954 0.13097-1.5121 0.47624-0.34527-0.33337-0.7977-0.51196-1.2978-0.51196zm-0.82151 5.322c0.2024 0.023812 0.48815 0.047624 0.90486 0.071436 0.4048 0.011906 0.84533-0.023812 1.1549 0.023812 0.50005 0.083342 0.65483 0.3929 0.65483 0.63102 0 0.23812-0.14287 0.52386-0.51196 0.72627-0.4048 0.21431-0.85723 0.23812-1.2263 0.23812-0.25003 0-0.71436-0.011906-1.1192-0.17859-0.44052-0.17859-0.53577-0.47624-0.53577-0.66674 0-0.3929 0.36909-0.67864 0.67864-0.84533z"/></g>
	<path d="m529.35 401.44c0-0.909-1.322-1.653-2.975-1.653-1.611 0-2.975 0.744-2.975 1.653 0 0.951 1.363 1.653 2.975 1.653 1.652 1e-3 2.975-0.702 2.975-1.653" clip-rule="evenodd" fill="#3c3c18" fill-rule="evenodd"/>
		<path d="m530.01 401.78c0-1.075-1.447-1.984-3.305-1.984-1.818 0-3.307 0.909-3.307 1.984 0 1.116 1.488 1.984 3.307 1.984 1.858 1e-3 3.305-0.867 3.305-1.984" fill="none" stroke="#e9e66f" stroke-linecap="round" stroke-linejoin="round" stroke-miterlimit="10" stroke-width=".6614"/>
	<path d="m538.6 401.44c0-0.909-1.322-1.653-2.975-1.653-1.611 0-2.975 0.744-2.975 1.653 0 0.951 1.363 1.653 2.975 1.653 1.652 1e-3 2.975-0.702 2.975-1.653" clip-rule="evenodd" fill="#3c3c18" fill-rule="evenodd"/>
		<path d="m539.26 401.78c0-1.075-1.445-1.984-3.305-1.984-1.818 0-3.305 0.909-3.305 1.984 0 1.116 1.486 1.984 3.305 1.984 1.859 1e-3 3.305-0.867 3.305-1.984" fill="none" stroke="#e9e66f" stroke-linecap="round" stroke-linejoin="round" stroke-miterlimit="10" stroke-width=".6614"/>
		<line x1="530.01" x2="532.65" y1="401.78" y2="401.78" fill="none" stroke="#e9e66f" stroke-linecap="round" stroke-linejoin="round" stroke-miterlimit="10" stroke-width=".6614"/>
	<path d="m344.25 213.27c7.314 0 13.223 5.953 13.223 13.229v25.795c0 7.317-5.908 13.228-13.223 13.228h-65.443c-7.271 0-13.221-5.911-13.221-13.228v-25.796c0-7.275 5.949-13.229 13.221-13.229h65.443z" clip-rule="evenodd" fill="#0d183b" fill-opacity=".38431" fill-rule="evenodd"/>
		<path d="m344.25 213.27c7.314 0 13.223 5.953 13.223 13.229v25.795c0 7.317-5.908 13.228-13.223 13.228v0h-65.443v0c-7.271 0-13.221-5.911-13.221-13.228v-25.796c0-7.275 5.949-13.229 13.221-13.229v0h65.443z" fill="none" stroke="#6f8ce9" stroke-linecap="round" stroke-linejoin="round" stroke-miterlimit="10" stroke-width=".6614"/>
	<g transform="scale(.9997 1.0003)" fill="#e9e66f" stroke-width=".9997" aria-label="Chase"><path d="m300.03 234.63c-1.1545 0-2.8208 0.84505-2.8208 3.8206 0 2.8565 1.5949 3.7848 2.8208 3.7848 0.88075 0 1.702-0.46418 2.1662-1.2259l-0.607-0.39277c-0.34516 0.55939-0.94026 0.89265-1.5116 0.89265-1.095 0-2.059-1.1307-2.059-3.1421 0-1.9638 0.94026-3.0707 1.9876-3.0707 0.5713 0 1.1188 0.34515 1.4163 0.86884 0.0238 0.0357 0.0476 0.0714 0.0476 0.11902 0 0.0357-0.0119 0.0595-0.0119 0.0952 0 0.0119 0 0.0714 0.0595 0.10712l0.78553-0.38087c-0.39277-0.89265-1.2854-1.4758-2.2733-1.4758z"/><path d="m303.51 242.1h0.88075v-3.1302c0-0.35706 0.0357-0.6308 0.26184-0.92835 0.21424-0.27375 0.73793-0.76173 1.3092-0.76173 0.27375 0 0.5475 0.11902 0.73793 0.34516 0.29755 0.35706 0.29755 0.82124 0.29755 1.2021v3.273h0.84504v-3.2968c0-0.41657-0.0119-0.86885-0.20233-1.3092-0.27375-0.60701-0.82124-0.95216-1.4402-0.95216-0.73792 0-1.4163 0.47608-1.8091 1.0831v-3.154c0-0.0357 0-0.0714 0.0357-0.10712 0.0357-0.0357 0.0833-0.0714 0.0833-0.13092 0-0.0119 0-0.0238-0.0119-0.0357h-0.98787z"/><path d="m309.71 237.31 0.41657 0.5475c0.45228-0.46418 1.0593-0.60701 1.5711-0.60701 0.64271 0 0.96406 0.27375 1.1188 0.52369 0.17853 0.29755 0.16662 0.65461 0.16662 0.94026v0.19043h-0.16662c-0.80934 0-1.6663 0-2.3566 0.24994-0.85694 0.30946-1.2378 0.95216-1.2378 1.5473 0 0.79744 0.69032 1.5473 1.821 1.5473 0.66651 0 1.3568-0.24994 1.9519-0.73792v0.5951h0.80933v-3.3683c0-0.44037-0.0119-0.85694-0.26184-1.2854-0.35706-0.5832-1.0474-0.89265-1.8924-0.89265-0.72602 0-1.4282 0.22614-1.94 0.74982zm3.3088 2.2495v0.36896c0 0.27375 0 0.63081-0.36896 1.0236-0.20234 0.20233-0.71412 0.6427-1.4282 0.6427-0.72602 0-1.1426-0.46417-1.1426-0.94025 0-0.40467 0.27374-0.84505 0.95216-1.0117 0.49988-0.11902 1.2259-0.0833 1.7972-0.0833z"/><path d="m319.73 237.39c-0.49989-0.54749-1.2259-0.84504-2.0352-0.84504-1.2616 0-2.0828 0.70221-2.0828 1.5116 0 0.95216 1.0236 1.2973 1.3211 1.4044 0.46418 0.16662 1.0593 0.30945 1.4639 0.49988 0.45228 0.21424 0.53559 0.49988 0.53559 0.69032 0 0.51178-0.6189 0.85694-1.3925 0.85694-0.92836 0-1.5235-0.55939-1.702-0.74983-0.0357-0.0476-0.0357-0.0833-0.0357-0.13092 0-0.0119 0.0119-0.0833-0.0476-0.10712l-0.49988 0.84505c0.6427 0.5951 1.4758 0.86884 2.2971 0.86884 1.4878 0 2.2614-0.88075 2.2614-1.702 0-0.36897-0.15472-0.86885-0.79743-1.2259-0.607-0.34516-1.4878-0.46418-1.9995-0.71412-0.44037-0.21424-0.53559-0.47608-0.53559-0.66651 0-0.42847 0.53559-0.73793 1.1426-0.73793 0.78554 0 1.3092 0.47608 1.5116 0.74983 0.0357 0.0357 0.0238 0.0714 0.0238 0.10712 0 0.0714 0.0476 0.0952 0.0714 0.0952z"/><path d="m323.61 236.55c-1.2973 0-2.4994 0.92835-2.4994 2.9041 0 1.821 1.1307 2.7851 2.6065 2.7851 0.78553 0 1.4878-0.28565 1.9519-0.84504l-0.47608-0.46418c-0.34516 0.40467-0.86885 0.61891-1.4044 0.61891-0.72602 0-1.7853-0.40467-1.8448-2.0352h3.8562c0.0357-0.36896 0.0238-0.72602-0.0357-1.0355-0.24994-1.464-1.2616-1.9281-2.1543-1.9281zm-1.6425 2.309c0.17853-1.2854 0.99977-1.6544 1.583-1.6544 0.88075 0 1.5116 0.77363 1.4044 1.6544z"/></g>
	<path d="m502.9 319.1c7.313 0 13.221 5.953 13.221 13.229v25.795c0 7.317-5.908 13.229-13.221 13.229h-65.443c-7.271 0-13.221-5.911-13.221-13.229v-25.795c0-7.275 5.949-13.229 13.221-13.229z" clip-rule="evenodd" fill="#0d183b" fill-opacity=".38431" fill-rule="evenodd"/>
		<path d="m502.9 319.1c7.313 0 13.221 5.953 13.221 13.229v25.795c0 7.317-5.908 13.229-13.221 13.229v0h-65.443v0c-7.271 0-13.221-5.911-13.221-13.229v-25.795c0-7.275 5.949-13.229 13.221-13.229v0z" fill="none" stroke="#6f8ce9" stroke-linecap="round" stroke-linejoin="round" stroke-miterlimit="10" stroke-width=".6614"/>
	<g transform="scale(.9997 1.0003)" fill="#e9e66f" stroke-width=".9997" aria-label="Wait"><path d="m458.96 340.48 1.1902 7.4744h0.33326l1.2973-4.9036 1.2735 4.9036h0.33326l1.1664-7.4744h-0.70222l-0.67841 5.0345-1.2021-4.487h-0.24994l-1.1902 4.4752-0.80934-5.0226z"/><path d="m465.78 343.1 0.41657 0.54749c0.45227-0.46418 1.0593-0.607 1.5711-0.607 0.64271 0 0.96406 0.27374 1.1188 0.52369 0.17853 0.29755 0.16663 0.65461 0.16663 0.94025v0.19044h-0.16663c-0.80934 0-1.6663 0-2.3566 0.24994-0.85694 0.30945-1.2378 0.95216-1.2378 1.5473 0 0.79743 0.69031 1.5473 1.821 1.5473 0.66651 0 1.3568-0.24994 1.9519-0.73793v0.5951h0.80934v-3.3683c0-0.44038-0.0119-0.85695-0.26185-1.2854-0.35706-0.5832-1.0474-0.89265-1.8924-0.89265-0.72602 0-1.4282 0.22614-1.94 0.74983zm3.3088 2.2495v0.36896c0 0.27374 0 0.6308-0.36896 1.0236-0.20233 0.20233-0.71412 0.64271-1.4282 0.64271-0.72602 0-1.1426-0.46418-1.1426-0.94026 0-0.40467 0.27375-0.84504 0.95216-1.0117 0.49988-0.11902 1.2259-0.0833 1.7972-0.0833z"/><path d="m471.92 342.45v0.70222h1.3092v4.0586h-1.3806v0.67841h3.523v-0.67841h-1.2735v-4.7608zm1.7615-2.3566c-0.34516 0-0.61891 0.27375-0.61891 0.60701 0 0.33325 0.27375 0.607 0.61891 0.607 0.34515 0 0.6189-0.27375 0.6189-0.607 0-0.33326-0.27375-0.60701-0.6189-0.60701z"/><path d="m478.84 341-0.10711 1.4639h-1.2973l-0.0119 0.70222h1.2735c-0.0714 0.92836-0.10712 1.8567-0.10712 2.7732 0 0.48798 0 1.0355 0.32136 1.4878 0.26184 0.35706 0.67841 0.57129 1.2378 0.57129 0.64271 0 1.2735-0.27374 1.7377-0.607l-0.26185-0.67841c-0.46418 0.34515-0.89265 0.49988-1.2259 0.49988-0.40467 0-0.82124-0.22614-0.91646-0.88075 0-0.0476-0.0357-0.24994-0.0357-1.0474 0-0.70222 0.0357-1.4163 0.10711-2.1186h1.7853v-0.71412h-1.7734s0.0833-0.97596 0.14282-1.2854c0.0119-0.11902 0.10712-0.19043 0.0595-0.32135z"/></g>
	<path d="m344.25 319.1c7.314 0 13.223 5.953 13.223 13.229v25.795c0 7.317-5.908 13.229-13.223 13.229h-65.443c-7.271 0-13.221-5.911-13.221-13.229v-25.795c0-7.275 5.949-13.229 13.221-13.229z" clip-rule="evenodd" fill="#0d183b" fill-opacity=".38431" fill-rule="evenodd"/>
		<path d="m344.25 319.1c7.314 0 13.223 5.953 13.223 13.229v25.795c0 7.317-5.908 13.229-13.223 13.229v0h-65.443v0c-7.271 0-13.221-5.911-13.221-13.229v-25.795c0-7.275 5.949-13.229 13.221-13.229v0z" fill="none" stroke="#6f8ce9" stroke-linecap="round" stroke-linejoin="round" stroke-miterlimit="10" stroke-width=".6614"/>
	<g transform="scale(.9997 1.0003)" fill="#e9e66f" stroke-width=".9997" aria-label="Return"><path d="m294.77 340.48v7.4149h0.83314v-3.273h1.4401l1.6425 3.273h0.94026l-1.7139-3.2968c0.89265-0.24994 1.5116-1.095 1.5116-2.0828 0-0.73792-0.36896-1.4401-1.0593-1.7853-0.46417-0.23804-0.92835-0.24994-1.4163-0.24994zm0.83314 0.78553h1.3449c0.30945 0 0.607 0.0119 0.91645 0.15473 0.46418 0.23804 0.70222 0.71412 0.70222 1.1902s-0.22614 0.91645-0.65461 1.1307c-0.28565 0.14282-0.5713 0.15472-0.86885 0.15472h-1.4401z"/><path d="m303.12 342.34c-1.2973 0-2.4994 0.92836-2.4994 2.9041 0 1.821 1.1307 2.7851 2.6065 2.7851 0.78553 0 1.4878-0.28565 1.9519-0.84505l-0.47608-0.46417c-0.34516 0.40466-0.86885 0.6189-1.4044 0.6189-0.72602 0-1.7853-0.40467-1.8448-2.0352h3.8562c0.0357-0.36896 0.0238-0.72602-0.0357-1.0355-0.24995-1.4639-1.2616-1.9281-2.1543-1.9281zm-1.6425 2.309c0.17853-1.2854 0.99977-1.6544 1.583-1.6544 0.88075 0 1.5116 0.77363 1.4044 1.6544z"/><path d="m308.24 341-0.10711 1.4639h-1.2973l-0.0119 0.70222h1.2735c-0.0714 0.92836-0.10712 1.8567-0.10712 2.7732 0 0.48798 0 1.0355 0.32136 1.4878 0.26184 0.35706 0.67841 0.57129 1.2378 0.57129 0.64271 0 1.2735-0.27374 1.7377-0.607l-0.26185-0.67841c-0.46418 0.34515-0.89265 0.49988-1.2259 0.49988-0.40467 0-0.82124-0.22614-0.91646-0.88075 0-0.0476-0.0357-0.24994-0.0357-1.0474 0-0.70222 0.0357-1.4163 0.10711-2.1186h1.7853v-0.71412h-1.7734s0.0833-0.97596 0.14282-1.2854c0.0119-0.11902 0.10712-0.19043 0.0595-0.32135z"/><path d="m312.69 342.47v3.035c0 0.46418 0 0.94026 0.21424 1.4282 0.30945 0.71412 0.97596 1.1069 1.6901 1.1069 0.67842 0 1.3211-0.36896 1.6782-0.96406l-0.0119 0.40466c0 0.14283 0 0.28565 0.0238 0.41657h0.90455c-0.0595-0.15472-0.0714-0.33325-0.0714-0.48798v-4.9393h-0.85695v2.9874c0 0.41657-0.0357 0.73793-0.21423 1.0712-0.24995 0.46418-0.73793 0.80934-1.2616 0.80934-0.41657 0-0.82123-0.23804-1.0355-0.66651-0.19043-0.38087-0.19043-0.80934-0.19043-1.1664v-3.035z"/><path d="m319.08 342.47v5.4392h0.85694v-2.6422c0-0.33325 0.0119-0.69031 0.38086-1.2735 0.49989-0.78553 1.1426-0.91646 1.5354-0.91646 0.45228 0 0.73793 0.21424 0.89265 0.40467 0.0714 0.0952 0.10712 0.19043 0.20234 0.27375l0.40466-0.82124c-0.34515-0.35706-0.84504-0.5951-1.452-0.5951-0.79743 0-1.6068 0.40467-1.9638 1.1783l0.0357-1.0474z"/><path d="m324.67 347.89h0.86885v-3.1302c0-0.35706 0.0476-0.63081 0.27375-0.92836 0.20233-0.27374 0.72602-0.76173 1.2973-0.76173 0.27375 0 0.5475 0.11902 0.73793 0.34516 0.29755 0.35706 0.29755 0.82124 0.29755 1.2021v3.273h0.84504v-3.2968c0-0.41657 0-0.86885-0.19043-1.3092-0.27375-0.607-0.83314-0.95216-1.452-0.95216-0.73792 0-1.4044 0.47608-1.8091 1.0831v-0.95216h-0.86885z"/></g>
	<path d="m502.9 213.27c7.313 0 13.221 5.953 13.221 13.229v25.795c0 7.317-5.908 13.228-13.221 13.228h-65.443c-7.271 0-13.221-5.911-13.221-13.228v-25.796c0-7.275 5.949-13.229 13.221-13.229h65.443z" clip-rule="evenodd" fill="#0d183b" fill-opacity=".38431" fill-rule="evenodd"/>
		<path d="m502.9 213.27c7.313 0 13.221 5.953 13.221 13.229v25.795c0 7.317-5.908 13.228-13.221 13.228v0h-65.443v0c-7.271 0-13.221-5.911-13.221-13.228v-25.796c0-7.275 5.949-13.229 13.221-13.229v0h65.443z" fill="none" stroke="#6f8ce9" stroke-linecap="round" stroke-linejoin="round" stroke-miterlimit="10" stroke-width=".6614"/>
	<g transform="scale(.9997 1.0003)" fill="#e9e66f" stroke-width=".9997" aria-label="Attack"><path d="m452.96 242.12h0.82124l0.72602-2.1781h2.3447l0.82123 2.1662h0.86885l-2.8684-7.5459h-0.0952zm3.7134-2.8208h-2.0114l0.96406-2.8208z"/><path d="m460.99 235.21-0.10712 1.464h-1.2973l-0.0119 0.70222h1.2735c-0.0714 0.92835-0.10712 1.8567-0.10712 2.7732 0 0.48798 0 1.0355 0.32135 1.4878 0.26185 0.35706 0.67842 0.5713 1.2378 0.5713 0.64271 0 1.2735-0.27375 1.7377-0.607l-0.26184-0.67842c-0.46418 0.34516-0.89265 0.49989-1.2259 0.49989-0.40467 0-0.82124-0.22614-0.91645-0.88075 0-0.0476-0.0357-0.24994-0.0357-1.0474 0-0.70222 0.0357-1.4163 0.10712-2.1186h1.7853v-0.71412h-1.7734s0.0833-0.97597 0.14283-1.2854c0.0119-0.11902 0.10711-0.19043 0.0595-0.32135z"/><path d="m466.94 235.21-0.10712 1.464h-1.2973l-0.0119 0.70222h1.2735c-0.0714 0.92835-0.10712 1.8567-0.10712 2.7732 0 0.48798 0 1.0355 0.32135 1.4878 0.26185 0.35706 0.67842 0.5713 1.2378 0.5713 0.64271 0 1.2735-0.27375 1.7377-0.607l-0.26184-0.67842c-0.46418 0.34516-0.89265 0.49989-1.2259 0.49989-0.40467 0-0.82124-0.22614-0.91645-0.88075 0-0.0476-0.0357-0.24994-0.0357-1.0474 0-0.70222 0.0357-1.4163 0.10712-2.1186h1.7853v-0.71412h-1.7734s0.0833-0.97597 0.14283-1.2854c0.0119-0.11902 0.10711-0.19043 0.0595-0.32135z"/><path d="m471.72 237.31 0.41657 0.5475c0.45228-0.46418 1.0593-0.60701 1.5711-0.60701 0.64271 0 0.96406 0.27375 1.1188 0.52369 0.17853 0.29755 0.16662 0.65461 0.16662 0.94026v0.19043h-0.16662c-0.80934 0-1.6663 0-2.3566 0.24994-0.85694 0.30946-1.2378 0.95216-1.2378 1.5473 0 0.79744 0.69032 1.5473 1.821 1.5473 0.66651 0 1.3568-0.24994 1.9519-0.73792v0.5951h0.80933v-3.3683c0-0.44037-0.0119-0.85694-0.26184-1.2854-0.35706-0.5832-1.0474-0.89265-1.8924-0.89265-0.72602 0-1.4282 0.22614-1.94 0.74982zm3.3088 2.2495v0.36896c0 0.27375 0 0.63081-0.36896 1.0236-0.20234 0.20233-0.71412 0.6427-1.4282 0.6427-0.72602 0-1.1426-0.46417-1.1426-0.94025 0-0.40467 0.27374-0.84505 0.95216-1.0117 0.49988-0.11902 1.2259-0.0833 1.7972-0.0833z"/><path d="m482.03 237.57c-0.42848-0.63081-1.1545-1.0117-2.0352-1.0117-1.5949 0-2.7256 1.2021-2.7256 2.8327 0 1.6425 1.1307 2.8565 2.678 2.8565 0.74982 0 1.4878-0.30945 1.9995-0.86884l-0.48798-0.5713c-0.36896 0.41657-0.90455 0.65461-1.4401 0.65461-1.0593 0-1.8686-0.88075-1.8686-2.1543 0-1.2378 0.79744-2.0114 1.7972-2.0114 0.92835 0 1.3687 0.64271 1.4044 0.71412 0.0476 0.0833-0.0238 0.20234 0.0714 0.27375z"/><path d="m483.34 234.2v7.9148h0.85694v-2.059l0.72602-0.66652 2.2138 2.7732s0.46418-0.0476 1.0236-0.0476h0.0833l-2.666-3.2492 2.2971-2.1543h-0.30945c-0.21424 0-0.42848-0.0119-0.64271-0.0714l-2.7256 2.5351v-4.6656c0-0.0476 0.0119-0.0833 0.0476-0.14282 0.0357-0.0357 0.0833-0.0833 0.0714-0.16663z"/></g><g fill="none" stroke="#d54d47" stroke-linecap="round" stroke-linejoin="bevel" stroke-miterlimit="10" stroke-width="1.3228">
		<line x1="146.6" x2="146.6" y1="332.33" y2="266.19"/>
		<path d="m146.6 266.19 3.305 9.26m-3.305-9.26-3.305 9.26"/>
		<line x1="239.15" x2="186.26" y1="223.19" y2="223.19"/>
		<path d="m186.26 223.19 9.255-3.307m-9.255 3.307 9.255 3.307"/>
		<line x1="103.63" x2="103.63" y1="266.19" y2="332.33"/>
		<path d="m103.63 332.33-3.305-9.26m3.305 9.26 3.305-9.26"/>
		<line x1="424.24" x2="358.14" y1="345.56" y2="345.56"/>
		<path d="m358.14 345.56 9.254-3.307m-9.254 3.307 9.254 3.307"/>
		<line x1="424.24" x2="358.14" y1="247.67" y2="247.67"/>
		<path d="m358.14 247.67 9.254-3.307m-9.254 3.307 9.254 3.307"/>
		<line x1="358.14" x2="424.24" y1="231.13" y2="231.13"/>
		<path d="m424.24 231.13-9.256 3.307m9.256-3.307-9.256-3.307"/>
		<line x1="424.24" x2="326.4" y1="331" y2="266.19"/>
		<path d="m326.4 266.19 9.256 2.646m-9.256-2.646 5.949 7.937"/>
		<line x1="358.14" x2="442.75" y1="262.22" y2="319.1"/>
		<path d="m442.75 319.1-9.256-2.646m9.256 2.646-5.951-7.937"/>
		<line x1="239.15" x2="186.26" y1="372.01" y2="372.01"/>
		<path d="m186.26 372.01 9.255-3.308m-9.255 3.308 9.255 3.307"/>
		<line x1="186.26" x2="239.15" y1="346.88" y2="346.88"/>
		<path d="m239.15 346.88-9.254 3.307m9.254-3.307-9.254-3.308"/>
</g></g>
</svg>
