<svg width="107.34mm" height="89.675mm" version="1.1" viewBox="0 0 107.34 89.675" xmlns="http://www.w3.org/2000/svg">
 <g transform="translate(42.36 -138.31)">
  <g fill="#0d303b" fill-opacity=".38431" fill-rule="evenodd" stroke="#6fcbe9" stroke-width=".14111">
   <path d="m-37.057 224.57h8.0081v-23.812z"/>
   <path d="m-36.986 224.64v-29.245l7.8317 5.5386z"/>
   <path d="m-29.155 200.97 2.54-2.293-10.409-3.382z"/>
   <path d="m-36.81 195.29h24.765l-14.605 3.3867z"/>
   <path d="m-26.65 198.71h10.266l4.2686-3.4219z"/>
   <path d="m-16.49 198.74 2.0108 2.0814 2.3989-5.4328z"/>
   <path d="m-14.55 200.75 2.3989 20.144 0.14111-25.612z"/>
   <path d="m-14.409 200.79-1.0583 23.742 3.4219-3.5983z"/>
   <path d="m-15.51 224.68 3.4175-3.642 2.3199 2.3698z"/>
   <path d="m-15.51 224.73h20.505l-14.892-1.3969z"/>
   <path d="m-9.7228 223.39h9.0301l5.5877 1.2473z"/>
   <path d="m-0.81735 223.36 2.3199-2.3448 3.3177 3.6171z"/>
   <path d="m4.8203 224.61v-23.897l-3.3925 20.305z"/>
   <path d="m1.4776 220.99 0.99781-25.544 2.3199 5.5877z"/>
   <path d="m4.8001 200.97 6.6146-5.6092h-8.9958z"/>
   <path d="m4.8001 201.02 6.6851-2.2931v-3.4043z"/>
   <path d="m11.538 195.37 5.715 3.4749h-5.7326z"/>
   <path d="m11.556 195.36h9.1722l-3.5983 3.4396z"/>
   <path d="m20.851 195.41-1.464 5.5915-2.346-2.2578z"/>
   <path d="m20.887 195.43v25.828l-1.4486-20.469z"/>
   <path d="m19.246 200.97-0.77611 23.319 2.2225-3.0692z"/>
   <path d="m18.365 224.56 4.3529-1.372-1.9333-2.033z"/>
   <path d="m18.316 224.58 14.506-1.3096h-10.34z"/>
   <path d="m18.303 224.62h20.368l-5.9868-1.2846z"/>
   <path d="m38.561 224.74-3.4572-3.4748-2.3283 2.0108z"/>
   <path d="m38.526 224.66v-23.724l-3.4043 20.391z"/>
   <path d="m35.192 221.22 1.0936-25.753 2.3283 5.6797z"/>
   <path d="m36.285 195.45 4.5508 3.2103-2.1696 2.3812z"/>
   <path d="m36.321 195.3 14.764 3.4925h-10.495z"/>
   <path d="m36.401 195.35h23.673l-9.2547 3.4674z"/>
   <path d="m50.994 198.74 2.3698 2.245 6.81-5.6875z"/>
   <path d="m53.219 201 6.8792 23.46v-29.21z"/>
   <path d="m53.254 200.97-1.0231 23.53h8.0081z"/>
  </g>
  <rect x="-41.219" y="193.1" width="105.06" height="33.726" fill="none" stroke="#e9e56f" stroke-width=".28222"/>
  <g fill="#3b390d" fill-opacity=".38431" stroke="#e9e56f">
   <rect x="-25.9" y="200.67" width="6.35" height="26.176" stroke-width=".28222"/>
   <rect x="8.8031" y="200.91" width="6.35" height="25.887" stroke-width=".28222"/>
   <rect x="42.753" y="200.58" width="6.35" height="26.247" stroke-width=".28222"/>
   <rect x="25.367" y="193.08" width="6.35" height="27.234" stroke-width=".28222"/>
   <rect x="-8.144" y="193.07" width="6.35" height="27.234" stroke-width=".28222"/>
  </g>
  <rect x="-41.219" y="139.48" width="105.06" height="33.726" fill="none" stroke="#e9e56f" stroke-width=".28222"/>
  <g fill="#3b390d" fill-opacity=".38431" stroke="#e9e56f">
   <rect x="-25.9" y="147.05" width="6.35" height="26.176" stroke-width=".28222"/>
   <rect x="8.8031" y="147.29" width="6.35" height="25.887" stroke-width=".28222"/>
   <rect x="42.753" y="146.96" width="6.35" height="26.247" stroke-width=".28222"/>
   <rect x="25.367" y="139.45" width="6.35" height="27.234" stroke-width=".28222"/>
   <rect x="-8.144" y="139.45" width="6.35" height="27.234" stroke-width=".28222"/>
  </g>
  <rect x="10.815" y="175.32" width="2.6811" height="12.277" fill="#d54747"/>
  <path d="m12.085 191.9-4.3383-7.5142h8.6766z" fill="#d54747"/>
 </g>
</svg>
