<svg width="45.727mm" height="20.401mm" version="1.1" viewBox="0 0 45.727 20.401" xmlns="http://www.w3.org/2000/svg">
 <g transform="translate(47.407 -43.055)">
  <g fill="#e9e56f" aria-label="IF action">
   <path d="m-46.393 44.106h19.855v18.318h-19.855z" fill="#fff" fill-opacity=".65888" style="paint-order:normal"/>
   <g fill="#f7e506">
    <rect x="-46.326" y="56.783" width="1.4111" height="1.4111"/>
    <rect x="-46.326" y="53.961" width="1.4111" height="1.4111"/>
    <rect x="-46.326" y="55.372" width="1.4111" height="1.4111"/>
    <rect x="-46.326" y="51.138" width="1.4111" height="1.4111"/>
    <rect x="-46.326" y="52.549" width="1.4111" height="1.4111"/>
    <rect x="-44.915" y="56.783" width="1.4111" height="1.4111"/>
    <rect x="-42.092" y="58.194" width="1.4111" height="1.4111"/>
   </g>
   <rect x="-43.504" y="56.783" width="1.4111" height="1.4111" fill="#ffbc05" fill-opacity=".92056"/>
   <g>
    <rect x="-43.504" y="58.194" width="1.4111" height="1.4111" fill="#f7e506"/>
    <rect x="-39.27" y="58.194" width="1.4111" height="1.4111" fill="#f7e506"/>
    <rect x="-39.27" y="56.783" width="1.4111" height="1.4111" fill="#d82525"/>
   </g>
   <g fill="#ffbc05" fill-opacity=".92056">
    <rect x="-37.859" y="56.783" width="1.4111" height="1.4111"/>
    <rect x="-36.448" y="56.783" width="1.4111" height="1.4111"/>
    <rect x="-35.037" y="56.783" width="1.4111" height="1.4111"/>
   </g>
   <rect x="-33.626" y="56.783" width="1.4111" height="1.4111" fill="#f7e506"/>
   <rect x="-32.215" y="56.783" width="1.4111" height="1.4111" fill="#f7e506"/>
   <rect x="-42.092" y="56.783" width="1.4111" height="1.4111" fill="#ffbc05" fill-opacity=".92056"/>
   <rect x="-40.681" y="58.194" width="1.4111" height="1.4111" fill="#f7e506"/>
   <rect x="-40.681" y="56.783" width="1.4111" height="1.4111" fill="#ffbc05" fill-opacity=".92056"/>
   <g fill="#f7e506">
    <rect x="-37.859" y="58.194" width="1.4111" height="1.4111"/>
    <rect x="-35.037" y="58.194" width="1.4111" height="1.4111"/>
    <rect x="-33.626" y="58.194" width="1.4111" height="1.4111"/>
    <rect x="-36.448" y="58.194" width="1.4111" height="1.4111"/>
   </g>
   <rect x="-44.915" y="53.961" width="1.4111" height="1.4111" fill="#ffbc05" fill-opacity=".92056"/>
   <rect x="-44.915" y="55.372" width="1.4111" height="1.4111" fill="#ffbc05" fill-opacity=".92056"/>
   <g fill="#de6f1f">
    <rect x="-42.092" y="55.372" width="1.4111" height="1.4111"/>
    <rect x="-43.504" y="53.961" width="1.4111" height="1.4111"/>
    <rect x="-43.504" y="55.372" width="1.4111" height="1.4111"/>
   </g>
   <g fill="#d82525">
    <rect x="-39.27" y="55.372" width="1.4111" height="1.4111"/>
    <rect x="-39.27" y="53.961" width="1.4111" height="1.4111"/>
    <rect x="-37.859" y="53.961" width="1.4111" height="1.4111"/>
   </g>
   <rect x="-36.448" y="53.961" width="1.4111" height="1.4111" fill="#de6f1f"/>
   <rect x="-35.037" y="53.961" width="1.4111" height="1.4111" fill="#de6f1f"/>
   <rect x="-33.626" y="53.961" width="1.4111" height="1.4111" fill="#ffbc05" fill-opacity=".92056"/>
   <rect x="-32.215" y="53.961" width="1.4111" height="1.4111" fill="#f7e506"/>
   <rect x="-42.092" y="53.961" width="1.4111" height="1.4111" fill="#de6f1f"/>
   <g fill="#d82525">
    <rect x="-40.681" y="55.372" width="1.4111" height="1.4111"/>
    <rect x="-40.681" y="53.961" width="1.4111" height="1.4111"/>
    <rect x="-37.859" y="55.372" width="1.4111" height="1.4111"/>
   </g>
   <rect x="-35.037" y="55.372" width="1.4111" height="1.4111" fill="#de6f1f"/>
   <rect x="-32.215" y="55.372" width="1.4111" height="1.4111" fill="#f7e506"/>
   <rect x="-33.626" y="55.372" width="1.4111" height="1.4111" fill="#ffbc05" fill-opacity=".92056"/>
   <rect x="-36.448" y="55.372" width="1.4111" height="1.4111" fill="#de6f1f"/>
   <rect x="-44.915" y="51.138" width="1.4111" height="1.4111" fill="#f7e506"/>
   <rect x="-44.915" y="52.549" width="1.4111" height="1.4111" fill="#ffbc05" fill-opacity=".92056"/>
   <rect x="-42.092" y="52.549" width="1.4111" height="1.4111" fill="#de6f1f"/>
   <rect x="-43.504" y="51.138" width="1.4111" height="1.4111" fill="#ffbc05" fill-opacity=".92056"/>
   <g>
    <rect x="-43.504" y="52.549" width="1.4111" height="1.4111" fill="#de6f1f"/>
    <rect x="-39.27" y="52.549" width="1.4111" height="1.4111" fill="#d82525"/>
    <rect x="-39.27" y="51.138" width="1.4111" height="1.4111" fill="#d82525"/>
   </g>
   <g fill="#ffbc05" fill-opacity=".92056">
    <rect x="-37.859" y="51.138" width="1.4111" height="1.4111"/>
    <rect x="-36.448" y="51.138" width="1.4111" height="1.4111"/>
    <rect x="-35.037" y="51.138" width="1.4111" height="1.4111"/>
   </g>
   <rect x="-33.626" y="51.138" width="1.4111" height="1.4111" fill="#f7e506"/>
   <rect x="-32.215" y="51.138" width="1.4111" height="1.4111" fill="#f7e506"/>
   <rect x="-42.092" y="51.138" width="1.4111" height="1.4111" fill="#ffbc05" fill-opacity=".92056"/>
   <rect x="-40.681" y="52.549" width="1.4111" height="1.4111" fill="#d82525"/>
   <rect x="-40.681" y="51.138" width="1.4111" height="1.4111" fill="#ffbc05" fill-opacity=".92056"/>
   <g>
    <rect x="-37.859" y="52.549" width="1.4111" height="1.4111" fill="#d82525"/>
    <rect x="-35.037" y="52.549" width="1.4111" height="1.4111" fill="#de6f1f"/>
    <rect x="-32.215" y="52.549" width="1.4111" height="1.4111" fill="#f7e506"/>
   </g>
   <rect x="-33.626" y="52.549" width="1.4111" height="1.4111" fill="#ffbc05" fill-opacity=".92056"/>
   <rect x="-36.448" y="52.549" width="1.4111" height="1.4111" fill="#de6f1f"/>
   <g fill="#f7e506">
    <rect x="-44.915" y="49.727" width="1.4111" height="1.4111"/>
    <rect x="-42.092" y="49.727" width="1.4111" height="1.4111"/>
    <rect x="-43.504" y="49.727" width="1.4111" height="1.4111"/>
    <rect x="-39.27" y="49.727" width="1.4111" height="1.4111"/>
    <rect x="-40.681" y="49.727" width="1.4111" height="1.4111"/>
    <rect x="-37.859" y="49.727" width="1.4111" height="1.4111"/>
    <rect x="-35.037" y="49.727" width="1.4111" height="1.4111"/>
    <rect x="-33.626" y="49.727" width="1.4111" height="1.4111"/>
    <rect x="-36.448" y="49.727" width="1.4111" height="1.4111"/>
   </g>
   <g fill="none" stroke="#2f3e69" stroke-width=".056444">
    <path d="m-46.378 44.083v18.344"/>
    <path d="m-44.915 44.083v18.344"/>
    <path d="m-43.504 44.083v18.344"/>
    <path d="m-42.092 44.083v18.344"/>
    <path d="m-40.681 44.083v18.344"/>
    <path d="m-39.27 44.083v18.344"/>
    <path d="m-37.859 44.083v18.344"/>
    <path d="m-36.448 44.083v18.344"/>
    <path d="m-35.037 44.083v18.344"/>
    <path d="m-33.626 44.083v18.344"/>
    <path d="m-32.215 44.083v18.344"/>
    <path d="m-30.804 44.083v18.344"/>
    <path d="m-29.392 44.083v18.344"/>
    <path d="m-27.981 44.083v18.344"/>
    <path d="m-26.521 44.083v18.344"/>
    <path d="m-46.401 44.083h19.899"/>
    <path d="m-46.401 45.494h19.899"/>
   </g>
   <g transform="matrix(.019134 0 0 -.019134 -57.885 61.538)">
    <rect x="1085" y="789.36" width="16" height="84" fill="#8f8f8f"/>
    <rect x="1128" y="789.36" width="16" height="84" fill="#8f8f8f"/>
    <rect x="1101" y="793.86" width="27" height="76" fill="#444"/>
    <rect x="1111" y="772.36" width="8" height="49" fill="#dcd0b7"/>
    <rect x="1101" y="816.36" width="27" height="32" fill="#231e11"/>
   </g>
   <g fill="none" stroke="#2f3e69" stroke-width=".056444">
    <path d="m-46.401 46.905h19.899"/>
    <path d="m-46.401 48.316h19.899"/>
    <path d="m-46.401 49.727h19.899"/>
    <path d="m-46.401 51.138h19.899"/>
    <path d="m-46.401 52.549h19.899"/>
    <path d="m-46.401 53.961h19.899"/>
    <path d="m-46.401 55.372h19.899"/>
    <path d="m-46.401 56.783h19.899"/>
    <path d="m-46.401 58.194h19.899"/>
   </g>
   <g>
    <path d="m-35.732 49.775-0.339 0.0171 0.01434 0.28222 0.33183-0.0171 0.21773 0.01103 0.01434-0.28167-0.22489-0.01157-0.0072-5.56e-4zm0.49224 0.30978 0.40624 0.06229 0.13505 0.03473 0.07-0.2734-0.14111-0.03638-0.0066-0.0017-0.0072-0.0011-0.41396-0.06339zm-1.426-0.21553-0.0072 0.0011-0.0066 0.0017-0.25246 0.06504 0.07056 0.2734 0.24584-0.06339 0.2927-0.04465-0.04244-0.27892zm2.2401 0.38254 0.01377 0.0039 0.41066 0.14993 0.07662 0.03693 0.12292-0.25411-0.08489-0.04079-0.0061-0.0033-0.0066-0.0022-0.41948-0.15324-0.0066-0.0028-0.0066-0.0017-0.02314-0.0061zm-3.1243-0.10969-0.0066 0.0022-0.0061 0.0033-0.18852 0.0904 0.12292 0.25466 0.1808-0.08764 0.32852-0.12016-0.09701-0.26513zm3.88 0.42278 0.05402 0.02645 0.36436 0.22104 0.04079 0.03032 0.16867-0.226-0.04575-0.03417-0.011-0.0078-0.37648-0.2282-0.0061-0.0039-0.0061-0.0028-0.06008-0.02921zm-4.6804 0.0099-0.011 0.0078-0.1378 0.10308 0.16867 0.226 0.13064-0.09757 0.33128-0.20174-0.14662-0.24088zm5.3655 0.43711 0.07497 0.05622 0.31309 0.28498 0.01377 0.01487 0.20891-0.18962-0.01817-0.0204-0.0044-5e-3 -5e-3 -0.0044-0.32467-0.2949-5e-3 -0.0044-5e-3 -0.0039-0.07993-0.05953zm-6.0628 0.1367-5e-3 0.0044-0.0044 5e-3 -0.09536 0.10528 0.20891 0.18962 0.09095-0.09977 0.30758-0.28002-0.19017-0.20891zm6.6543 0.4283 0.08379 0.0926 0.0028 0.0028 0.25246 0.33844 0.226-0.16922-0.26073-0.34892-0.0039-0.0055-5e-3 -5e-3 -0.08654-0.09481zm-6.9585-0.09481-0.0044 5e-3 -0.0039 0.0055-0.26293 0.35168-0.0078 0.011-0.05788 0.09536 0.24143 0.14662 0.05567-0.0915 0.25466-0.3401 0.0033-0.0039h-5.55e-4l-0.20837-0.18962zm7.437 0.75847 0.07993 0.13174 0.17198 0.35719 0.25466-0.12237-0.17529-0.36325-0.0028-0.0061-0.0039-0.0061-0.08379-0.1378zm-7.9447-0.0088-0.0033 0.0061-0.0028 0.0061-0.19237 0.39908-0.0033 0.0061-0.0022 0.0066-0.02591 0.07056 0.26514 0.09701 0.02424-0.06559 0.18576-0.3853 0.0204-0.03363-0.24143-0.14662zm8.2919 0.74855 0.0689 0.18907 0.0011 0.0028 0.08599 0.33569 0.27285-0.07056-0.0893-0.34892-0.0044-0.0132-0.07-0.19182zm-8.6491 0.09481-0.0028 0.0066-0.0017 0.0066-0.11245 0.43767-0.0017 0.0066-0.0011 0.0072-0.0033 0.02314 0.27892 0.04245 0.0022-0.01654 0.10914-0.42443 0.02811-0.07662-0.26514-0.09701zm8.8536 0.69563 0.03969 0.26073 0.01434 0.28608 0.28167-0.01434-0.01487-0.296-5.56e-4 -0.0072-0.0011-0.0072-0.04024-0.26458zm-9.0427 0.22214-0.0011 0.0072v0.0072l-0.02094 0.41066 0.28167 0.01434 0.0204-0.40073 0.02204-0.14717-0.27892-0.04244zm9.0824 0.93817-0.01377 0.0915 0.27891 0.04244 0.01434-0.09591 0.0011-0.0072 5.55e-4 -0.0072 0.02371-0.46688-0.28222-0.01434zm-9.0956-0.21663 0.01214 0.24033v0.0072l0.0011 0.0072 0.04906 0.3197 0.27892-0.04244-0.04796-0.31585-0.01157-0.23041zm9.0284 0.65815-0.10859 0.42113-0.0099 0.02757 0.26513 0.09701 0.01157-0.03142 0.0044-0.0132 0.11245-0.43766 0.0017-0.0066 0.0011-0.0072 0.01157-0.07827-0.27892-0.04244zm-8.906 0.20615 0.07552 0.2949 0.0017 0.0066 0.0028 0.0066 0.0893 0.24419 0.26513-0.09701-0.08654-0.23537-0.07497-0.29049zm8.6475 0.62563-0.18466 0.38309 0.25411 0.12237 0.18852-0.39081 0.0028-0.0061 0.0028-0.0066 0.04465-0.12292-0.26513-0.09701zm-8.3674 0.20064 0.15103 0.31309 0.0028 0.0061 0.0033 0.0061 0.113 0.18521 0.24143-0.14607-0.10914-0.1797-0.14828-0.30703zm7.9607 0.54846-0.23427 0.31309 0.226 0.16922 0.23812-0.31805 0.0039-0.0055 0.0033-0.0055 0.08709-0.14332-0.24088-0.14662zm-7.5318 0.21167 0.22765 0.30427 0.0039 5e-3 0.0044 5e-3 0.12458 0.1367 0.20836-0.18962-0.11851-0.13064-0.22434-0.29986zm6.9911 0.44373-0.26624 0.24198 0.18962 0.20891 0.27175-0.24639 5e-3 -0.0044 0.0044-5e-3 0.13284-0.14662-0.20891-0.18962zm-6.4294 0.22379 0.30262 0.27506 5e-3 5e-3 0.0055 0.0039 0.12402 0.09261 0.16922-0.226-0.11355-0.08433-0.0028-0.0028-0.30041-0.2723zm5.774 0.31695-0.28112 0.17088 0.14662 0.24088 0.28773-0.17474 0.0055-0.0033 0.0055-0.0039 0.18245-0.1367-0.16867-0.226zm-5.0155 0.10142-0.09536 0.12733 0.0017 0.0011 0.0055 0.0039 0.0055 0.0033 0.37648 0.22876 0.0061 0.0039 0.0061 0.0028 0.11024 0.05347 0.12237-0.25466-0.10418-0.05016-0.37042-0.22489zm4.2659 0.30593-0.27616 0.10087 0.09701 0.26513 0.28167-0.10308 0.0066-0.0028 0.0061-0.0028 0.23812-0.11465-0.12237-0.25466zm-3.5956 0.24088 0.03473 0.01654 0.0061 0.0028 0.0066 0.0028 0.41948 0.15324 0.0132 0.0044 0.07717 0.01984 0.07001-0.2734-0.06339-0.01597-0.0028-0.0011-0.41176-0.15048-0.02701-0.01267zm2.7638 0.0171-0.23757 0.03638 0.04244 0.27891 0.24529-0.03748 0.0072-0.0011 0.0066-0.0017 0.30648-0.07882-0.07056-0.2734zm-1.9331 0.25246 0.08709 0.02261 0.0066 0.0017 0.0072 0.0011 0.4531 0.0689 0.0072 0.0011 0.0072 5.56e-4 0.01597 5.56e-4 0.01434-0.28167h-0.0077l-0.43987-0.06725-0.08103-0.02094zm1.0418-0.16316-0.16151-0.0077-0.01434 0.28167 0.16867 0.0088h0.0144l0.39522-0.01984-0.01434-0.28222z" color="#000000" color-rendering="auto" fill="#3c7740" image-rendering="auto" shape-rendering="auto" solid-color="#000000" style="isolation:auto;mix-blend-mode:normal;text-decoration-color:#000000;text-decoration-line:none;text-decoration-style:solid;text-indent:0;text-transform:none;white-space:normal"/>
    <path d="m-35.711 55.356 0.19322-0.01013v-0.17841l0.09133-0.12956 0.13168 0.07222 0.13593-0.28036-0.0531-0.02125 0.09345-0.27824-0.28464-0.2571-0.0042-0.08061h-0.68507l-0.0042 0.08061-0.28464 0.2571 0.09345 0.27824-0.0531 0.02125 0.13593 0.28036 0.13168-0.07222 0.09133 0.12956v0.17841l0.19318 0.01013z" fill="#5d5d5d" fill-rule="evenodd"/>
    <rect transform="rotate(90)" x="53.49" y="35.643" width="1.6121" height=".21664" fill="#c2c2c2"/>
    <path d="m-41.355 55.356 0.19322-0.01013v-0.17841l0.09133-0.12956 0.13168 0.07222 0.13593-0.28036-0.0531-0.02125 0.09346-0.27824-0.28464-0.2571-0.0042-0.08061h-0.68507l-0.0042 0.08061-0.28464 0.2571 0.09345 0.27824-0.0531 0.02125 0.13593 0.28036 0.13168-0.07222 0.09133 0.12956v0.17841l0.19318 0.01013z" fill="#5d5d5d" fill-rule="evenodd"/>
    <rect transform="rotate(90)" x="53.49" y="41.287" width="1.6121" height=".21664" fill="#c2c2c2"/>
    <path d="m-41.377 49.775-0.339 0.0171 0.01434 0.28222 0.33183-0.0171 0.21773 0.01103 0.01434-0.28167-0.2249-0.01157-0.0072-5.56e-4zm0.49224 0.30978 0.40624 0.06229 0.13505 0.03473 0.07-0.2734-0.14111-0.03638-0.0066-0.0017-0.0072-0.0011-0.41396-0.06339zm-1.426-0.21553-0.0072 0.0011-0.0066 0.0017-0.25246 0.06504 0.07055 0.2734 0.24584-0.06339 0.2927-0.04465-0.04244-0.27892zm2.2401 0.38254 0.01377 0.0039 0.41066 0.14993 0.07662 0.03693 0.12292-0.25411-0.08489-0.04079-0.0061-0.0033-0.0066-0.0022-0.41948-0.15324-0.0066-0.0028-0.0066-0.0017-0.02314-0.0061zm-3.1243-0.10969-0.0066 0.0022-0.0061 0.0033-0.18852 0.0904 0.12292 0.25466 0.1808-0.08764 0.32852-0.12016-0.09701-0.26513zm3.88 0.42278 0.05402 0.02645 0.36435 0.22104 0.04079 0.03032 0.16867-0.226-0.04575-0.03417-0.011-0.0078-0.37648-0.2282-0.0061-0.0039-0.0061-0.0028-0.06008-0.02921zm-4.6804 0.0099-0.011 0.0078-0.1378 0.10308 0.16867 0.226 0.13064-0.09757 0.33128-0.20174-0.14662-0.24088zm5.3655 0.43711 0.07497 0.05622 0.31309 0.28498 0.01377 0.01487 0.20891-0.18962-0.01817-0.0204-0.0044-5e-3 -5e-3 -0.0044-0.32466-0.2949-5e-3 -0.0044-5e-3 -0.0039-0.07992-0.05953zm-6.0628 0.1367-5e-3 0.0044-0.0044 5e-3 -0.09536 0.10528 0.20891 0.18962 0.09095-0.09977 0.30758-0.28002-0.19017-0.20891zm6.6543 0.4283 0.08379 0.0926 0.0028 0.0028 0.25246 0.33844 0.226-0.16922-0.26072-0.34892-0.0039-0.0055-5e-3 -5e-3 -0.08654-0.09481zm-6.9585-0.09481-0.0044 5e-3 -0.0039 0.0055-0.26293 0.35167-0.0078 0.011-0.05788 0.09536 0.24143 0.14662 0.05567-0.0915 0.25466-0.3401 0.0033-0.0039h-5.63e-4l-0.20836-0.18962zm7.437 0.75847 0.07993 0.13174 0.17198 0.35719 0.25466-0.12237-0.17528-0.36325-0.0028-0.0061-0.0039-0.0061-0.08379-0.1378zm-7.9447-0.0088-0.0033 0.0061-0.0028 0.0061-0.19237 0.39908-0.0033 0.0061-0.0023 0.0066-0.02591 0.07055 0.26514 0.09701 0.02424-0.06559 0.18576-0.3853 0.0204-0.03363-0.24143-0.14662zm8.2919 0.74855 0.0689 0.18907 0.0011 0.0028 0.08599 0.33569 0.27285-0.07056-0.0893-0.34892-0.0044-0.0132-0.07001-0.19182zm-8.6491 0.09481-0.0028 0.0066-0.0017 0.0066-0.11245 0.43767-0.0017 0.0066-0.0011 0.0072-0.0033 0.02314 0.27892 0.04245 0.0023-0.01654 0.10914-0.42443 0.02811-0.07662-0.26514-0.09701zm8.8536 0.69563 0.03969 0.26072 0.01434 0.28608 0.28167-0.01434-0.01487-0.296-5.55e-4 -0.0072-0.0011-0.0072-0.04024-0.26458zm-9.0427 0.22214-0.0011 0.0072v0.0072l-0.02094 0.41066 0.28167 0.01434 0.0204-0.40073 0.02204-0.14717-0.27891-0.04244zm9.0824 0.93817-0.01377 0.0915 0.27892 0.04244 0.01434-0.09591 0.0011-0.0072 5.56e-4 -0.0072 0.02371-0.46688-0.28222-0.01434zm-9.0956-0.21663 0.01214 0.24033v0.0072l0.0011 0.0072 0.04906 0.3197 0.27892-0.04244-0.04796-0.31585-0.01157-0.23041zm9.0284 0.65815-0.10859 0.42113-0.0099 0.02757 0.26513 0.09701 0.01157-0.03142 0.0044-0.0132 0.11245-0.43766 0.0017-0.0066 0.0011-0.0072 0.01157-0.07827-0.27892-0.04244zm-8.906 0.20616 0.07552 0.2949 0.0017 0.0066 0.0028 0.0066 0.0893 0.24419 0.26513-0.09701-0.08654-0.23537-0.07497-0.29049zm8.6475 0.62563-0.18466 0.38309 0.25411 0.12237 0.18852-0.39081 0.0028-0.0061 0.0028-0.0066 0.04465-0.12292-0.26513-0.09701zm-8.3674 0.20064 0.15103 0.31309 0.0028 0.0061 0.0033 0.0061 0.113 0.18521 0.24143-0.14607-0.10914-0.1797-0.14828-0.30703zm7.9607 0.54846-0.23427 0.31309 0.226 0.16922 0.23812-0.31805 0.0039-0.0055 0.0033-0.0055 0.08709-0.14332-0.24088-0.14662zm-7.5318 0.21167 0.22765 0.30427 0.0039 5e-3 0.0044 5e-3 0.12458 0.1367 0.20836-0.18962-0.11851-0.13064-0.22434-0.29986zm6.9911 0.44373-0.26624 0.24198 0.18962 0.20891 0.27175-0.24639 5e-3 -0.0044 0.0044-5e-3 0.13284-0.14662-0.20891-0.18962zm-6.4294 0.22379 0.30262 0.27506 5e-3 5e-3 0.0055 0.0039 0.12402 0.09261 0.16922-0.226-0.11355-0.08433-0.0028-0.0028-0.30041-0.2723zm5.774 0.31695-0.28112 0.17088 0.14662 0.24088 0.28773-0.17474 0.0055-0.0033 0.0055-0.0039 0.18245-0.1367-0.16867-0.226zm-5.0155 0.10142-0.09536 0.12733 0.0017 0.0011 0.0055 0.0039 0.0055 0.0033 0.37648 0.22876 0.0061 0.0039 0.0061 0.0028 0.11024 0.05347 0.12237-0.25466-0.10418-0.05016-0.37042-0.22489zm4.2659 0.30593-0.27616 0.10087 0.09701 0.26513 0.28167-0.10308 0.0066-0.0028 0.0061-0.0028 0.23812-0.11465-0.12237-0.25466zm-3.5956 0.24088 0.03473 0.01654 0.0061 0.0028 0.0066 0.0028 0.41948 0.15324 0.0132 0.0044 0.07717 0.01984 0.07-0.2734-0.06339-0.01597-0.0028-0.0011-0.41176-0.15048-0.02701-0.01267zm2.7638 0.0171-0.23758 0.03638 0.04244 0.27892 0.24529-0.03748 0.0072-0.0011 0.0066-0.0017 0.30648-0.07882-0.07055-0.2734zm-1.9331 0.25246 0.08709 0.02261 0.0066 0.0017 0.0072 0.0011 0.4531 0.0689 0.0072 0.0011 0.0072 5.56e-4 0.01597 5.56e-4 0.01434-0.28167h-0.0077l-0.43987-0.06725-0.08103-0.02094zm1.0418-0.16316-0.16151-0.0077-0.01434 0.28167 0.16867 0.0088h0.0144l0.39522-0.01984-0.01434-0.28222z" color="#000000" color-rendering="auto" fill="#3c7740" image-rendering="auto" shape-rendering="auto" solid-color="#000000" style="isolation:auto;mix-blend-mode:normal;text-decoration-color:#000000;text-decoration-line:none;text-decoration-style:solid;text-indent:0;text-transform:none;white-space:normal"/>
   </g>
   <g fill="none" stroke="#2f3e69" stroke-width=".056444">
    <path d="m-46.401 59.605h19.899"/>
    <path d="m-46.401 61.016h19.899"/>
    <path d="m-46.401 62.427h19.899"/>
   </g>
   <path d="m-22.556 44.106h19.855v18.318h-19.855z" fill="#fff" fill-opacity=".65888" style="paint-order:normal"/>
   <g fill="#f7e506">
    <rect x="-22.513" y="56.783" width="1.4111" height="1.4111"/>
    <rect x="-22.513" y="53.961" width="1.4111" height="1.4111"/>
    <rect x="-22.513" y="55.372" width="1.4111" height="1.4111"/>
    <rect x="-22.513" y="51.138" width="1.4111" height="1.4111"/>
    <rect x="-22.513" y="52.549" width="1.4111" height="1.4111"/>
    <rect x="-21.102" y="56.783" width="1.4111" height="1.4111"/>
    <rect x="-18.28" y="58.194" width="1.4111" height="1.4111"/>
   </g>
   <rect x="-19.691" y="56.783" width="1.4111" height="1.4111" fill="#ffbc05" fill-opacity=".92056"/>
   <g>
    <rect x="-19.691" y="58.194" width="1.4111" height="1.4111" fill="#f7e506"/>
    <rect x="-15.458" y="58.194" width="1.4111" height="1.4111" fill="#f7e506"/>
    <rect x="-15.458" y="56.783" width="1.4111" height="1.4111" fill="#d82525"/>
   </g>
   <g fill="#ffbc05" fill-opacity=".92056">
    <rect x="-14.047" y="56.783" width="1.4111" height="1.4111"/>
    <rect x="-12.635" y="56.783" width="1.4111" height="1.4111"/>
    <rect x="-11.224" y="56.783" width="1.4111" height="1.4111"/>
   </g>
   <rect x="-9.8132" y="56.783" width="1.4111" height="1.4111" fill="#f7e506"/>
   <rect x="-8.4021" y="56.783" width="1.4111" height="1.4111" fill="#f7e506"/>
   <rect x="-18.28" y="56.783" width="1.4111" height="1.4111" fill="#ffbc05" fill-opacity=".92056"/>
   <rect x="-16.869" y="58.194" width="1.4111" height="1.4111" fill="#f7e506"/>
   <rect x="-16.869" y="56.783" width="1.4111" height="1.4111" fill="#ffbc05" fill-opacity=".92056"/>
   <g fill="#f7e506">
    <rect x="-14.047" y="58.194" width="1.4111" height="1.4111"/>
    <rect x="-11.224" y="58.194" width="1.4111" height="1.4111"/>
    <rect x="-9.8132" y="58.194" width="1.4111" height="1.4111"/>
    <rect x="-12.635" y="58.194" width="1.4111" height="1.4111"/>
   </g>
   <rect x="-21.102" y="53.961" width="1.4111" height="1.4111" fill="#ffbc05" fill-opacity=".92056"/>
   <rect x="-21.102" y="55.372" width="1.4111" height="1.4111" fill="#ffbc05" fill-opacity=".92056"/>
   <g fill="#de6f1f">
    <rect x="-18.28" y="55.372" width="1.4111" height="1.4111"/>
    <rect x="-19.691" y="53.961" width="1.4111" height="1.4111"/>
    <rect x="-19.691" y="55.372" width="1.4111" height="1.4111"/>
   </g>
   <g fill="#d82525">
    <rect x="-15.458" y="55.372" width="1.4111" height="1.4111"/>
    <rect x="-15.458" y="53.961" width="1.4111" height="1.4111"/>
    <rect x="-14.047" y="53.961" width="1.4111" height="1.4111"/>
   </g>
   <rect x="-12.635" y="53.961" width="1.4111" height="1.4111" fill="#de6f1f"/>
   <rect x="-11.224" y="53.961" width="1.4111" height="1.4111" fill="#de6f1f"/>
   <rect x="-9.8132" y="53.961" width="1.4111" height="1.4111" fill="#ffbc05" fill-opacity=".92056"/>
   <rect x="-8.4021" y="53.961" width="1.4111" height="1.4111" fill="#f7e506"/>
   <rect x="-18.28" y="53.961" width="1.4111" height="1.4111" fill="#de6f1f"/>
   <g fill="#d82525">
    <rect x="-16.869" y="55.372" width="1.4111" height="1.4111"/>
    <rect x="-16.869" y="53.961" width="1.4111" height="1.4111"/>
    <rect x="-14.047" y="55.372" width="1.4111" height="1.4111"/>
   </g>
   <rect x="-11.224" y="55.372" width="1.4111" height="1.4111" fill="#de6f1f"/>
   <rect x="-8.4021" y="55.372" width="1.4111" height="1.4111" fill="#f7e506"/>
   <rect x="-9.8132" y="55.372" width="1.4111" height="1.4111" fill="#ffbc05" fill-opacity=".92056"/>
   <rect x="-12.635" y="55.372" width="1.4111" height="1.4111" fill="#de6f1f"/>
   <rect x="-21.102" y="51.138" width="1.4111" height="1.4111" fill="#f7e506"/>
   <rect x="-21.102" y="52.549" width="1.4111" height="1.4111" fill="#ffbc05" fill-opacity=".92056"/>
   <rect x="-18.28" y="52.549" width="1.4111" height="1.4111" fill="#de6f1f"/>
   <rect x="-19.691" y="51.138" width="1.4111" height="1.4111" fill="#ffbc05" fill-opacity=".92056"/>
   <g>
    <rect x="-19.691" y="52.549" width="1.4111" height="1.4111" fill="#de6f1f"/>
    <rect x="-15.458" y="52.549" width="1.4111" height="1.4111" fill="#d82525"/>
    <rect x="-15.458" y="51.138" width="1.4111" height="1.4111" fill="#d82525"/>
   </g>
   <g fill="#ffbc05" fill-opacity=".92056">
    <rect x="-14.047" y="51.138" width="1.4111" height="1.4111"/>
    <rect x="-12.635" y="51.138" width="1.4111" height="1.4111"/>
    <rect x="-11.224" y="51.138" width="1.4111" height="1.4111"/>
   </g>
   <rect x="-9.8132" y="51.138" width="1.4111" height="1.4111" fill="#f7e506"/>
   <rect x="-8.4021" y="51.138" width="1.4111" height="1.4111" fill="#f7e506"/>
   <rect x="-18.28" y="51.138" width="1.4111" height="1.4111" fill="#ffbc05" fill-opacity=".92056"/>
   <rect x="-16.869" y="52.549" width="1.4111" height="1.4111" fill="#d82525"/>
   <rect x="-16.869" y="51.138" width="1.4111" height="1.4111" fill="#ffbc05" fill-opacity=".92056"/>
   <g>
    <rect x="-14.047" y="52.549" width="1.4111" height="1.4111" fill="#d82525"/>
    <rect x="-11.224" y="52.549" width="1.4111" height="1.4111" fill="#de6f1f"/>
    <rect x="-8.4021" y="52.549" width="1.4111" height="1.4111" fill="#f7e506"/>
   </g>
   <rect x="-9.8132" y="52.549" width="1.4111" height="1.4111" fill="#ffbc05" fill-opacity=".92056"/>
   <rect x="-12.635" y="52.549" width="1.4111" height="1.4111" fill="#de6f1f"/>
   <g fill="#f7e506">
    <rect x="-21.102" y="49.727" width="1.4111" height="1.4111"/>
    <rect x="-18.28" y="49.727" width="1.4111" height="1.4111"/>
    <rect x="-19.691" y="49.727" width="1.4111" height="1.4111"/>
    <rect x="-15.458" y="49.727" width="1.4111" height="1.4111"/>
    <rect x="-16.869" y="49.727" width="1.4111" height="1.4111"/>
    <rect x="-14.047" y="49.727" width="1.4111" height="1.4111"/>
    <rect x="-11.224" y="49.727" width="1.4111" height="1.4111"/>
    <rect x="-9.8132" y="49.727" width="1.4111" height="1.4111"/>
    <rect x="-12.635" y="49.727" width="1.4111" height="1.4111"/>
   </g>
   <g fill="none" stroke="#2f3e69" stroke-width=".056444">
    <path d="m-22.566 44.083v18.344"/>
    <path d="m-21.102 44.083v18.344"/>
    <path d="m-19.691 44.083v18.344"/>
    <path d="m-18.28 44.083v18.344"/>
    <path d="m-16.869 44.083v18.344"/>
    <path d="m-15.458 44.083v18.344"/>
    <path d="m-14.047 44.083v18.344"/>
    <path d="m-12.635 44.083v18.344"/>
    <path d="m-11.224 44.083v18.344"/>
    <path d="m-9.8132 44.083v18.344"/>
    <path d="m-8.4021 44.083v18.344"/>
    <path d="m-6.991 44.083v18.344"/>
    <path d="m-5.5799 44.083v18.344"/>
    <path d="m-4.1688 44.083v18.344"/>
    <path d="m-2.7081 44.083v18.344"/>
    <path d="m-22.588 44.083h19.899"/>
    <path d="m-22.588 45.494h19.899"/>
   </g>
   <g transform="matrix(.0093937 -.016669 -.016669 -.0093937 -9.4189 72.007)">
    <rect x="1085" y="789.36" width="16" height="84" fill="#8f8f8f"/>
    <rect x="1128" y="789.36" width="16" height="84" fill="#8f8f8f"/>
    <rect x="1101" y="793.86" width="27" height="76" fill="#444"/>
    <rect x="1111" y="772.36" width="8" height="49" fill="#dcd0b7"/>
    <rect x="1101" y="816.36" width="27" height="32" fill="#231e11"/>
   </g>
   <g fill="none" stroke="#2f3e69" stroke-width=".056444">
    <path d="m-22.588 46.905h19.899"/>
    <path d="m-22.588 48.316h19.899"/>
    <path d="m-22.588 49.727h19.899"/>
    <path d="m-22.588 51.138h19.899"/>
    <path d="m-22.588 52.549h19.899"/>
    <path d="m-22.588 53.961h19.899"/>
    <path d="m-22.588 55.372h19.899"/>
    <path d="m-22.588 56.783h19.899"/>
    <path d="m-22.588 58.194h19.899"/>
   </g>
   <g>
    <path d="m-11.92 49.775-0.339 0.0171 0.01434 0.28222 0.33183-0.0171 0.21773 0.01103 0.01434-0.28167-0.2249-0.01157-0.0072-5.56e-4zm0.49223 0.30978 0.40625 0.06229 0.13505 0.03473 0.07-0.2734-0.14111-0.03638-0.0066-0.0017-0.0072-0.0011-0.41396-0.06339zm-1.426-0.21553-0.0072 0.0011-0.0066 0.0017-0.25246 0.06504 0.07056 0.2734 0.24584-0.06339 0.2927-0.04465-0.04244-0.27892zm2.2401 0.38254 0.01379 0.0039 0.41066 0.14993 0.07662 0.03693 0.12292-0.25411-0.084886-0.04079-0.0061-0.0033-0.0066-0.0022-0.41948-0.15324-0.0066-0.0028-0.0066-0.0017-0.02315-0.0061zm-3.1243-0.10969-0.0066 0.0022-0.0061 0.0033-0.18852 0.0904 0.12292 0.25466 0.1808-0.08764 0.32852-0.12016-0.09701-0.26513zm3.88 0.42278 0.054017 0.02645 0.36435 0.22104 0.040791 0.03032 0.16867-0.226-0.045749-0.03417-0.011-0.0078-0.37648-0.2282-0.00606-0.0039-0.00606-0.0028-0.060084-0.02921zm-4.6804 0.0099-0.011 0.0078-0.1378 0.10308 0.16867 0.226 0.13064-0.09757 0.33128-0.20174-0.14662-0.24088zm5.3655 0.43711 0.074964 0.05622 0.31309 0.28498 0.013785 0.01487 0.20891-0.18962-0.018177-0.0204-0.00439-5e-3 -0.00497-0.0044-0.32467-0.2949-0.00497-0.0044-0.00497-0.0039-0.079925-0.05953zm-6.0628 0.1367-5e-3 0.0044-0.0044 5e-3 -0.09536 0.10528 0.20891 0.18962 0.09095-0.09977 0.30758-0.28002-0.19017-0.20891zm6.6543 0.4283 0.083786 0.0926 0.00283 0.0028 0.25245 0.33844 0.226-0.16922-0.26073-0.34892-0.00386-0.0055-0.00497-5e-3 -0.08654-0.09481zm-6.9585-0.09481-0.0044 5e-3 -0.0039 0.0055-0.26293 0.35168-0.0078 0.011-0.05788 0.09536 0.24143 0.14662 0.05567-0.0915 0.25466-0.3401 0.0033-0.0039h-5.29e-4l-0.20836-0.18962zm7.437 0.75847 0.079925 0.13174 0.17198 0.35719 0.25466-0.12237-0.17528-0.36325-0.00283-0.0061-0.00386-0.0061-0.083788-0.1378zm-7.9447-0.0088-0.0033 0.0061-0.0028 0.0061-0.19237 0.39908-0.0033 0.0061-0.0024 0.0066-0.0259 0.07056 0.26514 0.09701 0.02424-0.06559 0.18576-0.3853 0.0204-0.03363-0.24143-0.14662zm8.2919 0.74855 0.068903 0.18907 0.00106 0.0028 0.085992 0.33569 0.27285-0.07056-0.089297-0.34892-0.00476-0.0132-0.070006-0.19182zm-8.6491 0.09481-0.0028 0.0066-0.0016 0.0066-0.11245 0.43767-0.0016 0.0066-0.0011 0.0072-0.0033 0.02314 0.27892 0.04245 0.0024-0.01654 0.10914-0.42443 0.02811-0.07662-0.26514-0.09701zm8.8536 0.69563 0.039687 0.26073 0.01434 0.28608 0.28167-0.01434-0.01487-0.296-5.292e-4 -0.0072-0.00106-0.0072-0.040235-0.26458zm-9.0427 0.22214-0.0011 0.0072v0.0072l-0.02093 0.41066 0.28167 0.01434 0.0204-0.40073 0.02204-0.14717-0.27892-0.04244zm9.0824 0.93817-0.013785 0.0915 0.27892 0.04244 0.01434-0.09591 0.00106-0.0072 5.292e-4 -0.0072 0.023707-0.46688-0.28222-0.01434zm-9.0956-0.21663 0.01215 0.24033v0.0072l0.0011 0.0072 0.04906 0.3197 0.27891-0.04244-0.04796-0.31585-0.01156-0.23041zm9.0284 0.65815-0.10859 0.42113-0.0099 0.02757 0.26513 0.09701 0.011562-0.03142 0.00476-0.0132 0.11245-0.43766 0.00159-0.0066 0.00106-0.0072 0.011562-0.07827-0.27892-0.04244zm-8.906 0.20615 0.07552 0.2949 0.0016 0.0066 0.0028 0.0066 0.0893 0.24419 0.26513-0.09701-0.08654-0.23537-0.07497-0.29049zm8.6475 0.62563-0.18466 0.38309 0.25411 0.12237 0.18852-0.39081 0.00283-0.0061 0.00283-0.0066 0.044649-0.12292-0.26513-0.09701zm-8.3674 0.20064 0.15103 0.31309 0.0028 0.0061 0.0033 0.0061 0.113 0.18521 0.24143-0.14607-0.10914-0.1797-0.14828-0.30703zm7.9607 0.54846-0.23427 0.31309 0.226 0.16922 0.23812-0.31805 0.00386-0.0055 0.00331-0.0055 0.08709-0.14332-0.24088-0.14662zm-7.5318 0.21167 0.22765 0.30427 0.0039 5e-3 0.0044 5e-3 0.12458 0.1367 0.20836-0.18962-0.11851-0.13064-0.22434-0.29986zm6.9911 0.44373-0.26624 0.24198 0.18962 0.20891 0.27175-0.24639 0.00497-0.0044 0.00439-5e-3 0.13284-0.14662-0.20891-0.18962zm-6.4294 0.22379 0.30262 0.27506 5e-3 5e-3 0.0055 0.0039 0.12402 0.09261 0.16922-0.226-0.11355-0.08433-0.0028-0.0028-0.30041-0.2723zm5.774 0.31695-0.28112 0.17088 0.14662 0.24088 0.28773-0.17474 0.0055-0.0033 0.0055-0.0039 0.18245-0.1367-0.16867-0.226zm-5.0155 0.10142-0.09536 0.12733 0.0016 0.0011 0.0055 0.0039 0.0055 0.0033 0.37648 0.22876 0.0061 0.0039 0.0061 0.0028 0.11024 0.05347 0.12237-0.25466-0.10418-0.05016-0.37042-0.22489zm4.2659 0.30593-0.27616 0.10087 0.09701 0.26513 0.28167-0.10308 0.0066-0.0028 0.0061-0.0028 0.23812-0.11465-0.12237-0.25466zm-3.5956 0.24088 0.03473 0.01654 0.0061 0.0028 0.0066 0.0028 0.41948 0.15324 0.0132 0.0044 0.07717 0.01984 0.07-0.2734-0.06339-0.01597-0.0028-0.0011-0.41176-0.15048-0.02701-0.01267zm2.7638 0.0171-0.23757 0.03638 0.04244 0.27891 0.24529-0.03748 0.0072-0.0011 0.0066-0.0017 0.30648-0.07882-0.07055-0.2734zm-1.9331 0.25246 0.08709 0.02261 0.0066 0.0017 0.0072 0.0011 0.4531 0.0689 0.0072 0.0011 0.0072 5.56e-4 0.01598 5.56e-4 0.01434-0.28167h-0.0077l-0.43987-0.06725-0.08103-0.02094zm1.0418-0.16316-0.16151-0.0077-0.01434 0.28167 0.16867 0.0088h0.0144l0.39522-0.01984-0.01434-0.28222z" color="#000000" color-rendering="auto" fill="#3c7740" image-rendering="auto" shape-rendering="auto" solid-color="#000000" style="isolation:auto;mix-blend-mode:normal;text-decoration-color:#000000;text-decoration-line:none;text-decoration-style:solid;text-indent:0;text-transform:none;white-space:normal"/>
    <path d="m-11.899 55.356 0.19321-0.01013v-0.17841l0.09133-0.12956 0.13169 0.07222 0.13593-0.28036-0.0531-0.02125 0.09346-0.27824-0.28464-0.2571-0.0042-0.08061h-0.68507l-0.0042 0.08061-0.28464 0.2571 0.09345 0.27824-0.0531 0.02125 0.13593 0.28036 0.13169-0.07222 0.09133 0.12956v0.17841l0.19318 0.01013z" fill="#5d5d5d" fill-rule="evenodd"/>
    <rect transform="rotate(90)" x="53.49" y="11.83" width="1.6121" height=".21664" fill="#c2c2c2"/>
    <path d="m-17.543 55.356 0.19322-0.01013v-0.17841l0.09133-0.12956 0.13168 0.07222 0.13593-0.28036-0.0531-0.02125 0.09346-0.27824-0.28464-0.2571-0.0042-0.08061h-0.68507l-0.0042 0.08061-0.28464 0.2571 0.09345 0.27824-0.0531 0.02125 0.13593 0.28036 0.13168-0.07222 0.09133 0.12956v0.17841l0.19318 0.01013z" fill="#5d5d5d" fill-rule="evenodd"/>
    <rect transform="rotate(90)" x="53.49" y="17.475" width="1.6121" height=".21664" fill="#c2c2c2"/>
    <path d="m-17.564 49.775-0.339 0.0171 0.01434 0.28222 0.33183-0.0171 0.21773 0.01103 0.01434-0.28167-0.22489-0.01157-0.0072-5.56e-4zm0.49224 0.30978 0.40624 0.06229 0.13505 0.03473 0.07-0.2734-0.14111-0.03638-0.0066-0.0017-0.0072-0.0011-0.41396-0.06339zm-1.426-0.21553-0.0072 0.0011-0.0066 0.0017-0.25246 0.06504 0.07056 0.2734 0.24584-0.06339 0.2927-0.04465-0.04244-0.27892zm2.2401 0.38254 0.01378 0.0039 0.41066 0.14993 0.07662 0.03693 0.12292-0.25411-0.08489-0.04079-0.0061-0.0033-0.0066-0.0022-0.41947-0.15324-0.0066-0.0028-0.0066-0.0017-0.02315-0.0061zm-3.1243-0.10969-0.0066 0.0022-0.0061 0.0033-0.18852 0.0904 0.12292 0.25466 0.1808-0.08764 0.32852-0.12016-0.09701-0.26513zm3.88 0.42278 0.05402 0.02645 0.36436 0.22104 0.04079 0.03032 0.16867-0.226-0.04575-0.03417-0.011-0.0078-0.37648-0.2282-0.0061-0.0039-0.0061-0.0028-0.06008-0.02921zm-4.6804 0.0099-0.011 0.0078-0.1378 0.10308 0.16867 0.226 0.13064-0.09757 0.33128-0.20174-0.14662-0.24088zm5.3655 0.43711 0.07497 0.05622 0.31309 0.28498 0.01376 0.01487 0.20891-0.18962-0.01818-0.0204-0.0044-5e-3 -5e-3 -0.0044-0.32466-0.2949-5e-3 -0.0044-5e-3 -0.0039-0.07992-0.05953zm-6.0628 0.1367-5e-3 0.0044-0.0044 5e-3 -0.09536 0.10528 0.20891 0.18962 0.09095-0.09977 0.30758-0.28002-0.19017-0.20891zm6.6543 0.4283 0.08379 0.0926 0.0028 0.0028 0.25246 0.33844 0.226-0.16922-0.26072-0.34892-0.0039-0.0055-5e-3 -5e-3 -0.08654-0.09481zm-6.9585-0.09481-0.0044 5e-3 -0.0039 0.0055-0.26293 0.35168-0.0078 0.011-0.05788 0.09536 0.24143 0.14662 0.05567-0.0915 0.25466-0.3401 0.0033-0.0039h-5.56e-4l-0.20836-0.18962zm7.437 0.75847 0.07993 0.13174 0.17198 0.35719 0.25466-0.12237-0.17529-0.36325-0.0028-0.0061-0.0039-0.0061-0.08379-0.1378zm-7.9447-0.0088-0.0033 0.0061-0.0028 0.0061-0.19237 0.39908-0.0033 0.0061-0.0022 0.0066-0.02591 0.07056 0.26514 0.09701 0.02424-0.06559 0.18576-0.3853 0.02041-0.03363-0.24143-0.14662zm8.2919 0.74855 0.0689 0.18907 0.0011 0.0028 0.08599 0.33569 0.27285-0.07056-0.0893-0.34892-0.0048-0.0132-0.07001-0.19182zm-8.6491 0.09481-0.0028 0.0066-0.0017 0.0066-0.11245 0.43767-0.0017 0.0066-0.0011 0.0072-0.0033 0.02314 0.27892 0.04245 0.0022-0.01654 0.10914-0.42443 0.02811-0.07662-0.26514-0.09701zm8.8536 0.69563 0.03969 0.26073 0.01434 0.28608 0.28167-0.01434-0.01487-0.296-5.29e-4 -0.0072-0.0011-0.0072-0.04024-0.26458zm-9.0427 0.22214-0.0011 0.0072v0.0072l-0.02094 0.41066 0.28167 0.01434 0.02041-0.40073 0.02204-0.14717-0.27892-0.04244zm9.0824 0.93817-0.01379 0.0915 0.27891 0.04244 0.01434-0.09591 0.0011-0.0072 5.29e-4 -0.0072 0.02371-0.46688-0.28222-0.01434zm-9.0956-0.21663 0.01214 0.24033v0.0072l0.0011 0.0072 0.04906 0.3197 0.27892-0.04244-0.04795-0.31585-0.01157-0.23041zm9.0284 0.65815-0.10859 0.42113-0.0099 0.02757 0.26513 0.09701 0.01156-0.03142 0.0048-0.0132 0.11245-0.43766 0.0016-0.0066 0.0011-0.0072 0.01156-0.07827-0.27892-0.04244zm-8.906 0.20615 0.07552 0.2949 0.0017 0.0066 0.0028 0.0066 0.0893 0.24419 0.26513-0.09701-0.08654-0.23537-0.07497-0.29049zm8.6475 0.62563-0.18466 0.38309 0.25411 0.12237 0.18852-0.39081 0.0028-0.0061 0.0028-0.0066 0.04465-0.12292-0.26513-0.09701zm-8.3674 0.20064 0.15103 0.31309 0.0028 0.0061 0.0033 0.0061 0.113 0.18521 0.24143-0.14607-0.10914-0.1797-0.14828-0.30703zm7.9607 0.54846-0.23427 0.31309 0.226 0.16922 0.23812-0.31805 0.0039-0.0055 0.0033-0.0055 0.08709-0.14332-0.24088-0.14662zm-7.5318 0.21167 0.22765 0.30427 0.0039 5e-3 0.0044 5e-3 0.12458 0.1367 0.20836-0.18962-0.11851-0.13064-0.22434-0.29986zm6.9911 0.44373-0.26624 0.24198 0.18962 0.20891 0.27175-0.24639 5e-3 -0.0044 0.0044-5e-3 0.13284-0.14662-0.20891-0.18962zm-6.4294 0.22379 0.30262 0.27506 5e-3 5e-3 0.0055 0.0039 0.12402 0.09261 0.16922-0.226-0.11355-0.08433-0.0028-0.0028-0.30041-0.2723zm5.774 0.31695-0.28112 0.17088 0.14662 0.24088 0.28774-0.17474 0.0055-0.0033 0.0055-0.0039 0.18245-0.1367-0.16868-0.226zm-5.0155 0.10142-0.09536 0.12733 0.0017 0.0011 0.0055 0.0039 0.0055 0.0033 0.37648 0.22876 0.0061 0.0039 0.0061 0.0028 0.11024 0.05347 0.12237-0.25466-0.10418-0.05016-0.37042-0.22489zm4.2659 0.30593-0.27616 0.10087 0.09702 0.26513 0.28167-0.10308 0.0066-0.0028 0.0061-0.0028 0.23812-0.11465-0.12237-0.25466zm-3.5956 0.24088 0.03473 0.01654 0.0061 0.0028 0.0066 0.0028 0.41948 0.15324 0.0132 0.0044 0.07717 0.01984 0.07001-0.2734-0.06339-0.01597-0.0028-0.0011-0.41176-0.15048-0.02701-0.01267zm2.7638 0.0171-0.23758 0.03638 0.04245 0.27891 0.24529-0.03748 0.0072-0.0011 0.0066-0.0017 0.30648-0.07882-0.07056-0.2734zm-1.9331 0.25246 0.08709 0.02261 0.0066 0.0017 0.0072 0.0011 0.4531 0.0689 0.0072 0.0011 0.0072 5.56e-4 0.01598 5.56e-4 0.01434-0.28167h-0.0077l-0.43987-0.06725-0.08103-0.02094zm1.0418-0.16316-0.16151-0.0077-0.01434 0.28167 0.16867 0.0088h0.0144l0.39522-0.01984-0.01434-0.28222z" color="#000000" color-rendering="auto" fill="#3c7740" image-rendering="auto" shape-rendering="auto" solid-color="#000000" style="isolation:auto;mix-blend-mode:normal;text-decoration-color:#000000;text-decoration-line:none;text-decoration-style:solid;text-indent:0;text-transform:none;white-space:normal"/>
   </g>
   <g fill="none" stroke="#2f3e69" stroke-width=".056444">
    <path d="m-22.588 59.605h19.899"/>
    <path d="m-22.588 61.016h19.899"/>
    <path d="m-22.588 62.427h19.899"/>
   </g>
   <g transform="matrix(.28222 0 0 .28222 -304.83 -173.23)" fill="#d54747">
    <path d="m1039.7 777.29-0.4376 0.90039 22.969 11.113v35.539l-10.738 7.0918 0.543 0.83789 11.195-7.3867v-36.709z" color="#000000" color-rendering="auto" fill="#d54747" fill-rule="evenodd" image-rendering="auto" shape-rendering="auto" solid-color="#000000" style="isolation:auto;mix-blend-mode:normal;text-decoration-color:#000000;text-decoration-line:none;text-decoration-style:solid;text-indent:0;text-transform:none;white-space:normal"/>
   </g>
   <g transform="matrix(.22563 .30471 -.30471 .22563 -36.976 -152.91)">
    <path d="m501.47 274.25-1.2053 3.2778-1.2053-3.2778c0.71162 0.52365 1.6852 0.52064 2.4106 0z" fill="#fff" fill-rule="evenodd" stroke="#d54747" stroke-linejoin="round" stroke-width=".1875"/>
   </g>
  </g>
 </g>
</svg>
