<svg width="922.52" height="461.77" version="1.1" viewBox="0 0 244.09 122.18" xmlns="http://www.w3.org/2000/svg">
 <path d="m59.951 121.56c1e-5 -34.451 27.928-62.379 62.378-62.379 34.451 0 62.379 27.928 62.379 62.379" fill="none" stroke="#e9e56f" stroke-linecap="round" stroke-width=".26459"/>
 <g fill="#ffc585" fill-rule="evenodd" stroke="#e9e56f" stroke-width=".26459">
  <path d="m181.65 105.68-6.0749 1.6278"/>
  <path d="m175.52 90.871-5.4466 3.1446"/>
  <path d="m165.77 78.153-4.4472 4.4472"/>
  <path d="m153.06 68.393-3.1446 5.4466"/>
 </g>
 <g fill="#7affff" fill-rule="evenodd" stroke="#e9e56f" stroke-width=".26459">
  <path d="m138.25 62.256-1.6278 6.0749"/>
  <path d="m122.36 60.16v6.2892"/>
  <path d="m106.47 62.248 1.6278 6.075"/>
  <path d="m91.662 68.378 3.1447 5.4466"/>
  <path d="m78.944 78.131 4.4472 4.4472"/>
  <path d="m69.184 90.844 5.4467 3.1446"/>
  <path d="m63.047 105.65 6.075 1.6278"/>
  <path d="m60.951 121.54 6.2893-5e-5"/>
 </g>
 <g stroke="#e9e56f" stroke-width=".26459">
  <path d="m10.499 120.81c3e-5 -61.431 49.8-111.23 111.23-111.23 61.431-2.6e-5 111.23 49.8 111.23 111.23" fill="none" stroke-linecap="round"/>
  <path d="m0.13005 122.05c5e-5 -67.331 54.582-121.91 121.91-121.91 67.331-2.6e-5 121.91 54.582 121.91 121.91" fill="none" stroke-linecap="round"/>
  <path d="m183.74 121.57-6.2892 2.1e-4" fill="#ffc585" fill-rule="evenodd"/>
  <path d="m59.951 121.56c1e-5 -34.451 27.928-62.379 62.378-62.379 34.451 0 62.379 27.928 62.379 62.379" fill="none" stroke-linecap="round"/>
 </g>
 <g fill="#ffc585" fill-rule="evenodd" stroke="#e9e56f" stroke-width=".26459">
  <path d="m181.65 105.68-6.0749 1.6278"/>
  <path d="m175.52 90.871-5.4466 3.1446"/>
  <path d="m165.77 78.153-4.4472 4.4472"/>
  <path d="m153.06 68.393-3.1446 5.4466"/>
 </g>
 <g fill="#7affff" fill-rule="evenodd" stroke="#e9e56f" stroke-width=".26459">
  <path d="m138.25 62.256-1.6278 6.0749"/>
  <path d="m122.36 60.16v6.2892"/>
  <path d="m106.47 62.248 1.6278 6.075"/>
  <path d="m91.662 68.378 3.1447 5.4466"/>
  <path d="m78.944 78.131 4.4472 4.4472"/>
  <path d="m69.184 90.844 5.4467 3.1446"/>
  <path d="m63.047 105.65 6.075 1.6278"/>
  <path d="m60.951 121.54 6.2893-5e-5"/>
 </g>
 <g stroke="#e9e56f" stroke-width=".26459">
  <path d="m10.499 120.81c3e-5 -61.431 49.8-111.23 111.23-111.23 61.431-2.6e-5 111.23 49.8 111.23 111.23" fill="none" stroke-linecap="round"/>
  <path d="m0.13005 122.05c5e-5 -67.331 54.582-121.91 121.91-121.91 67.331-2.6e-5 121.91 54.582 121.91 121.91" fill="none" stroke-linecap="round"/>
  <path d="m183.74 121.57-6.2892 2.1e-4" fill="#ffc585" fill-rule="evenodd"/>
 </g>
 <g fill="#7affff" fill-rule="evenodd" stroke="#e9e56f" stroke-width=".26459">
  <path d="m61.474 113.57 6.2355 0.82087"/>
  <path d="m65.601 98.171 5.8106 2.4068"/>
  <path d="m73.572 84.367 4.9897 3.8286"/>
  <path d="m84.844 73.096 3.8287 4.9896"/>
  <path d="m98.65 65.126 2.4069 5.8105"/>
  <path d="m114.05 61.001 0.82099 6.2355"/>
  <path d="m129.99 61.002-0.82086 6.2355"/>
  <path d="m145.39 65.129-2.4068 5.8106"/>
  <path d="m159.19 73.1-3.8287 4.9897"/>
  <path d="m170.46 84.372-4.9896 3.8287"/>
  <path d="m178.43 98.178-5.8106 2.4069"/>
  <path d="m182.56 113.58-6.2355 0.82097"/>
 </g>
 <g fill="#e9e56f" stroke-linecap="round">
  <g transform="matrix(.27094 0 0 .27109 -171.39 -1072.6)" stroke-width="2.2038" aria-label="MOS 6581  MIDI  YM3812  Amiga MOD   Sound Blaster  MP3   DirectSound  FMOD  ALC5611         HD Audio    Wwise                    Dolby Atmos                                   VRWorks">
   <path d="m661.18 4399.2 0.0419-2.5329-4.4511-0.074c-1.1919-0.02-2.9649 0.1745-4.1403 0.2854l1e-3 -0.074 2.8282-0.9218 4.7426-1.7844 0.0182-1.0988-4.6807-1.959-2.7958-1.0337 1e-3 -0.074c1.1712 0.1497 2.9367 0.4025 4.1286 0.4223l4.4511 0.074 0.0426-2.57-12.143-0.2011-0.0481 2.9053 5.4241 2.0645 2.1111 0.7615-1e-3 0.075-2.1351 0.6912-5.4904 1.9396-0.0481 2.9053z"/>
   <path d="m661.93 4380.1c0.15761-3.2745-2.1163-5.6217-6.0792-5.8124-3.9442-0.1899-6.3401 1.9325-6.4977 5.207-0.15671 3.2558 2.0047 5.6163 5.9675 5.807 3.9628 0.1908 6.4526-1.9458 6.6093-5.2016zm-2.3628-0.1138c-0.0788 1.6372-1.674 2.6234-4.1113 2.5061-2.4186-0.1164-3.8188-1.2468-3.74-2.884 0.0797-1.6558 1.581-2.6278 3.9997-2.5114 2.4372 0.1173 3.9313 1.2335 3.8516 2.8893z"/>
   <path d="m660.56 4373c1.2454-1.1576 1.9658-2.7844 2.0849-4.3631 0.21709-2.879-1.4028-4.6822-3.4087-4.8335-1.7088-0.1289-2.7632 0.7256-3.4682 2.1481l-0.74776 1.494c-0.50702 1.0265-0.82728 1.8055-1.5702 1.7495-0.68723-0.052-1.0496-0.6956-0.9796-1.6242 0.0728-0.9659 0.48315-1.7008 1.1563-2.4532l-1.6237-1.5047c-1.1186 0.9617-1.7864 2.387-1.8914 3.78-0.18908 2.5074 1.2724 4.4295 3.2784 4.5808 1.7645 0.133 2.8942-0.9772 3.491-2.2024l0.7863-1.5098c0.5256-1.0251 0.81888-1.6941 1.5804-1.6367 0.72437 0.055 1.1281 0.6455 1.0427 1.7785-0.0756 1.0029-0.67973 2.0781-1.4871 2.8765z"/>
   <path d="m661.92 4354.2c-0.0886 0.8148-0.76574 1.5281-2.6436 1.5674-0.79339-0.6296-1.0377-1.312-0.97326-1.9045 0.0967-0.8888 0.63008-1.4866 1.8707-1.3517 1.3332 0.145 1.8348 0.8741 1.7462 1.6888zm-8.3458-4.7485c-0.83975 0.6581-1.6107 1.7172-1.7799 3.2726-0.26985 2.4813 1.4638 4.9744 5.8524 5.4517 4.1293 0.4491 6.0685-1.5322 6.3162-3.8098 0.23159-2.1295-1.075-4.0702-3.5192-4.3361-2.4813-0.2698-3.7905 1.0867-4.01 3.1051-0.0785 0.7221 0.27363 1.7909 0.9849 2.4866-2.7305-0.3906-3.5436-1.5283-3.4026-2.8245 0.0745-0.6851 0.54392-1.3835 1.0326-1.7426z"/>
   <path d="m662.87 4349.2c1.0455-0.801 1.9368-1.9982 2.1911-3.9186 0.30321-2.2897-0.92593-4.5005-3.5295-4.8452-2.4928-0.3302-3.865 1.2355-4.1316 3.2482-0.0636 0.4801-0.0411 0.8776 0.10337 1.3477l-2.1705-0.4941 0.56975-4.3024-2.2897-0.3032-0.8803 6.6475 5.8833 1.1173 0.93693-1.116c-0.35025-0.7604-0.45151-1.1308-0.36103-1.814 0.14427-1.0894 0.87234-1.7634 2.0541-1.6069 1.2002 0.159 1.7254 1.0176 1.5664 2.2179-0.13205 0.9971-0.75911 1.7596-1.4983 2.3756z"/>
   <path d="m662.71 4336.4c-0.71771-0.1122-1.3198-0.6022-1.7178-1.1923 0.85582-1.3744 1.3976-2.3078 2.4282-2.1467 0.97536 0.1525 1.3503 0.8898 1.2093 1.7915-0.15245 0.9754-0.88919 1.7086-1.9198 1.5475zm-3.1266-3.0338c-0.64705 1.1243-1.2337 1.8621-2.1906 1.7125-0.90174-0.1409-1.2514-0.7989-1.1392-1.5166 0.13807-0.8833 0.82879-1.3221 1.7305-1.1811 0.6073 0.095 1.1375 0.4417 1.5993 0.9852zm3.077 5.4015c1.8955 0.2962 3.4725-1.2294 3.8378-3.5666 0.38832-2.4844-0.75141-4.3593-2.5917-4.6469-1.5458-0.2416-2.5885 0.5192-3.3713 1.5468l-0.0736-0.012c-0.40712-0.8931-1.1967-1.7518-2.3193-1.9273-1.9323-0.302-3.4236 0.9166-3.7573 3.0513-0.33942 2.1715 0.64908 3.9285 2.6366 4.2392 1.233 0.1927 2.1831-0.3375 3.0049-1.1328l0.0736 0.011c0.4163 1.1962 1.1432 2.2148 2.5602 2.4363z"/>
   <path d="m667.27 4329.1 1.336-7.4055-2.1813-0.3936-0.39353 2.1813-9.4585-1.7063-0.35715 1.9796c0.3461 0.9142 0.53055 1.7803 0.54066 3.0881l1.6681 0.3009 0.39353-2.1813 6.7273 1.2136-0.45636 2.5296z"/>
   <path d="m670.61 4311.7 0.5672-2.4688-4.3387-0.9968c-1.1618-0.2669-2.9364-0.4453-4.1093-0.5809l0.0167-0.073 2.958-0.3142 5.0099-0.7602 0.24607-1.071-4.1716-2.8887-2.5201-1.5919 0.0167-0.073c1.1145 0.3898 2.789 1.0039 3.9508 1.2708l4.3387 0.9968 0.57554-2.5052-11.836-2.7192-0.65061 2.8319 4.8769 3.1463 1.9068 1.1834-0.0167 0.073-2.2321 0.2325-5.7736 0.7568-0.65061 2.8319z"/>
   <path d="m673.87 4297.8 0.68074-2.6713-11.768-2.9989-0.68074 2.6713z"/>
   <path d="m675.25 4292.4 0.96027-3.4642c0.95032-3.4284-0.29751-6.2484-4.3182-7.3629-4.0207-1.1145-6.4346 0.6905-7.4297 4.2804l-0.91549 3.3027zm-1.3996-3.2486-7.4311-2.0598 0.13931-0.5026c0.54731-1.9745 1.782-3.0819 4.5822-2.3057 2.8001 0.7762 3.3962 2.3911 2.8489 4.3655z"/>
   <path d="m678.47 4281 0.7917-2.6406-11.633-3.4878-0.7917 2.6406z"/>
   <path d="m683.14 4266.3 0.88302-2.5918-4.0904-1.3936-6.2217-5.9962-0.92507 2.7152 2.2963 1.9236c0.7558 0.6117 1.4351 1.217 2.2085 1.8347l-0.024 0.071c-0.99569 0.035-1.8912 0.064-2.8573 0.069l-2.9991 0.1392-0.94309 2.7681 8.5824-0.9328z"/>
   <path d="m685.62 4259 0.88539-2.3734-4.1709-1.5559c-1.1169-0.4167-2.8529-0.8257-3.998-1.1137l0.0261-0.07 2.9737 0.075 5.0663-0.098 0.38411-1.0296-3.7577-3.4097-2.2902-1.908 0.026-0.07c1.0539 0.5323 2.6337 1.3602 3.7506 1.7769l4.1709 1.5559 0.8984-2.4083-11.378-4.2447-1.0156 2.7225 4.4232 3.7573 1.7356 1.4228-0.026 0.07-2.2434-0.061-5.8229-0.01-1.0156 2.7225z"/>
   <path d="m688.92 4246.2c1.2543-0.4153 2.3802-1.4055 3.1022-3.183 0.89719-2.2089 0.49797-4.5423-1.5384-5.3694-1.4151-0.5748-2.684-0.025-3.558 1.088l-0.069-0.028c-0.0238-1.3767-0.5513-2.3549-1.6903-2.8175-1.9156-0.7781-3.6196 0.299-4.5378 2.5597-0.54673 1.346-0.46035 2.6678-4e-3 4.0191l2.0718-0.6461c-0.32362-0.9357-0.44771-1.6696-0.13229-2.4462 0.35047-0.8628 0.99542-1.1638 1.7547-0.8554 0.88012 0.3575 1.2145 1.2171 0.41547 3.1844l1.7947 0.729c0.96729-2.3815 1.8026-2.7057 2.769-2.3132 0.82835 0.3365 1.0069 1.2333 0.57233 2.3032-0.3785 0.9319-1.1739 1.5537-2.0788 1.9502z"/>
   <path d="m692 4233.8c-0.66641-0.2891-1.1259-0.9148-1.3626-1.586 1.174-1.115 1.9332-1.8821 2.8901-1.4669 0.90564 0.3929 1.083 1.2008 0.71981 2.0381-0.3929 0.9056-1.2904 1.4299-2.2473 1.0148zm-2.263-3.7228c-0.90905 0.9254-1.6624 1.4919-2.551 1.1065-0.83729-0.3633-1.0102-1.088-0.72107-1.7544 0.35583-0.8202 1.1347-1.0711 1.972-0.7079 0.56389 0.2446 0.98982 0.7137 1.3 1.3558zm1.6194 6.0018c1.76 0.7636 3.6701-0.3163 4.6116-2.4864 1.0008-2.3069 0.36929-4.4082-1.3395-5.1495-1.4354-0.6227-2.6359-0.1486-3.652 0.6491l-0.0684-0.03c-0.16936-0.9668-0.71754-1.9965-1.7599-2.4487-1.7942-0.7783-3.544 0.026-4.404 2.0081-0.87474 2.0163-0.35999 3.9654 1.4855 4.7661 1.1449 0.4966 2.1978 0.2225 3.1933-0.3405l0.0684 0.03c0.10201 1.2625 0.5493 2.4311 1.865 3.0019z"/>
   <path d="m698.27 4227.8 3.1562-6.8311-2.0121-0.9297-0.92969 2.0121-8.7249-4.0312-0.84375 1.8261c0.10498 0.9719 0.0656 1.8565-0.25366 3.1247l1.5387 0.711 0.92968-2.0122 6.2055 2.8672-1.0781 2.3334z"/>
   <path d="m702.14 4219.4 3.6686-7.4742-2.0734-1.0177-1.0505 2.1402c-0.24621 0.5017-0.54044 1.2702-0.73619 1.8381-0.9605-2.6086-2.046-5.2163-3.8351-6.0945-2.0399-1.0012-4.0752-0.2366-5.1011 1.8535-0.74685 1.5216-0.66257 2.7872-0.0593 4.3905l1.9775-0.6893c-0.30588-0.8141-0.53697-1.6538-0.15944-2.4229 0.4514-0.9197 1.3072-1.2258 2.3438-0.717 1.5049 0.7386 2.3918 3.5394 3.6205 7.5039z"/>
   <path d="m707.22 4198.4-0.83848-0.7967c-0.9024-0.874-1.9847-1.8461-2.9793-2.7067l0.0357-0.065c1.2725 0.3121 2.6833 0.7208 3.9067 1.0061l1.1239 0.2734zm6.288-1.0262 1.3912-2.5511-12.49-2.4621-1.5696 2.8781 8.8338 9.1668 1.3377-2.453-2.178-2.0363 1.7836-3.2706z"/>
   <path d="m715.4 4193.9 1.3864-2.3611-5.3808-3.1595c-0.22161-0.7997-0.2051-1.4164 0.0212-1.8019 0.39611-0.6746 0.92868-0.7723 2.0852-0.093l4.642 2.7257 1.3864-2.3612-5.3808-3.1595c-0.21219-0.8157-0.20511-1.4164 0.0307-1.8179 0.39611-0.6746 0.92867-0.7723 2.0852-0.093l4.642 2.7257 1.3864-2.3612-4.9471-2.9048c-1.9917-1.1695-3.6651-1.1153-4.6743 0.6034-0.62247 1.0601-0.44594 2.1573-0.13813 3.2884-1.0871-0.098-1.965 0.2934-2.6252 1.4178-0.61303 1.044-0.46583 2.0808-0.19397 3.1261l-0.0377 0.064-1.1223-0.443-1.1318 1.9275z"/>
   <path d="m715.29 4173.5c0.49157-0.791 0.32942-1.6593-0.38249-2.1017-0.71192-0.4425-1.5464-0.1935-2.038 0.5975-0.48175 0.7752-0.34525 1.6495 0.36667 2.0919 0.71191 0.4424 1.5721 0.1875 2.0538-0.5877zm8.2841 6.749 1.4452-2.3256-7.8469-4.8764-1.4452 2.3256z"/>
   <path d="m728.16 4175.1c-0.28163-0.1819-0.42537-0.4743-0.49379-0.9177 0.22428-0.2099 0.4577-0.5026 0.80132-1.0346l0.51542-0.7979c0.49521-0.7667 0.89325-1.1083 1.3783-0.795 0.53197 0.3436 0.46932 1.3675-0.1977 2.4002-0.66702 1.0326-1.4246 1.5189-2.0035 1.145zm-0.863 2.1256c1.3769 0.8894 2.9012-0.166 4.0735-1.981 1.7181-2.6599 1.626-5.092 0.0144-6.1329-1.3925-0.8995-2.6486-0.2251-3.8815 1.6837l-0.8085 1.2517c-0.55585 0.8605-0.94573 1.0522-1.3369 0.7995-0.26599-0.1718-0.35627-0.341-0.397-0.6555 0.33186-0.2735 0.58093-0.5561 0.76284-0.8377 1.1016-1.7055 1.1415-3.5867-0.64219-4.7388-0.4068-0.2628-0.85305-0.3958-1.1787-0.4066l0.7984-1.236-1.6742-1.0814-1.8292 2.832c-0.34751 0.2633-0.68296 0.6454-0.96594 1.0835-1.0814 1.6741-1.133 3.8138 0.72888 5.0165 0.90748 0.5861 1.9662 0.5604 2.6955 0.2554l0.0626 0.04c0.0208 0.723 0.32588 1.4522 0.88914 1.8161 0.6415 0.4143 1.2504 0.3642 1.7792 0.1292l0.0626 0.04c-0.0581 0.9825 0.20558 1.7072 0.84707 2.1215zm-2.9656-6.7717c-0.39415 0.6102-1.1253 0.781-1.9859 0.2251-0.82924-0.5356-0.95861-1.2622-0.56446-1.8724 0.39414-0.6102 1.1253-0.781 1.9389-0.2555 0.86054 0.5559 1.0056 1.2926 0.61141 1.9028z"/>
   <path d="m729.18 4166.7c1.2943 0.8791 2.9078 0.6916 3.8497-0.6951 0.58609-0.8628 0.67738-1.8591 0.54684-2.8935l0.0314-0.046 0.90094 0.3642 1.2559-1.8489-4.3759-2.9723c-2.342-1.5908-4.184-1.2658-5.5132 0.691-0.81634 1.2018-1.1434 2.5784-1.2172 3.9468l2.0388 0.214c0.0709-1.0327 0.24857-1.8577 0.68813-2.5049 0.55469-0.8166 1.2164-0.8625 1.9257-0.4483-1.7432 3.2293-1.7336 5.1048-0.13112 6.1932zm1.2957-2.2722c-0.58551-0.3977-0.69191-1.2356 0.19129-3l1.3405 0.9106c0.1285 0.6727 0.14478 1.1791-0.21106 1.703-0.36631 0.5393-0.82767 0.7213-1.3207 0.3864z"/>
   <path d="m739.45 4156.3 1.5016-2.0401-3.5853-2.6389c-0.96006-0.7066-2.5177-1.5755-3.54-2.1661l0.0442-0.06 2.8393 0.8871 4.8994 1.2934 0.65143-0.8851-2.6801-4.3085-1.68-2.4623 0.0442-0.06c0.86777 0.8006 2.1604 2.0295 3.1204 2.7362l3.5852 2.6388 1.5237-2.0701-9.7807-7.1989-1.7224 2.3401 3.2249 4.8252 1.2795 1.8438-0.0442 0.06-2.1407-0.6737-5.5988-1.5999-1.7224 2.3401z"/>
   <path d="m751.13 4141.1c2.0265-2.5769 1.534-5.8077-1.5846-8.2602-3.104-2.4409-6.2865-2.1002-8.313 0.4767-2.0149 2.5622-1.6219 5.7386 1.4967 8.191 3.1186 2.4525 6.3859 2.1547 8.4008-0.4075zm-1.8594-1.4623c-1.0132 1.2884-2.8848 1.1673-4.8028-0.341-1.9034-1.4968-2.3891-3.2295-1.3759-4.5179 1.0247-1.3031 2.8116-1.2249 4.7149 0.2719 1.918 1.5083 2.4885 3.2839 1.4637 4.587z"/>
   <path d="m755.82 4134.9 2.3034-2.76c2.2795-2.7314 2.3056-5.8151-0.89776-8.4884-3.2033-2.6734-6.1467-2.0244-8.5336 0.8357l-2.196 2.6313zm0.0645-3.5367-5.9204-4.9409 0.33417-0.4005c1.3128-1.573 2.8943-2.0727 5.1252-0.2109s2.108 3.5788 0.79522 5.1519z"/>
   <path d="m769.54 4116.7c1.6956-0.1272 3.2738-0.9486 4.3521-2.1079 1.9664-2.1138 1.8263-4.5338 0.35337-5.9039-1.2547-1.1672-2.6118-1.1577-4.0505-0.4863l-1.5167 0.7006c-1.0368 0.4856-1.7733 0.8944-2.3188 0.3869-0.5046-0.4694-0.38598-1.1985 0.24835-1.8804 0.65971-0.7092 1.439-1.0273 2.4346-1.1951l-0.32951-2.189c-1.4742 0.053-2.8856 0.75-3.837 1.7729-1.7127 1.8411-1.7704 4.255-0.29756 5.6252 1.2956 1.2052 2.8713 1.0428 4.1022 0.458l1.5566-0.6889c1.0504-0.4728 1.6972-0.8125 2.2563-0.2924 0.53187 0.4948 0.47858 1.2084-0.2953 2.0403-0.68508 0.7365-1.8281 1.1995-2.9572 1.3194z"/>
   <path d="m774.42 4106.9c2.1984 2.1476 4.9741 1.8386 6.6141 0.1598 1.627-1.6655 1.8711-4.4476-0.32739-6.5952-2.1984-2.1477-4.9741-1.8386-6.601-0.1731-1.64 1.6788-1.8841 4.4609 0.31437 6.6085zm1.9654-2.0119c-1.1459-1.1194-1.4882-2.235-0.69422-3.0477 0.78095-0.7995 1.9173-0.4966 3.0631 0.6227 1.1459 1.1194 1.4752 2.2483 0.69423 3.0478-0.79398 0.8127-1.9173 0.4966-3.0631-0.6228z"/>
   <path d="m782.84 4099.9c1.6118 1.6543 3.2133 2.0703 4.6542 0.6665 0.90721-0.8838 1.118-1.8953 1.0284-3.1083l0.04-0.039 1.0436 0.7776 1.601-1.5598-6.447-6.6173-1.9612 1.9107 4.2634 4.376c0.12003 0.8972 0.0345 1.3966-0.45914 1.8776-0.57368 0.5589-1.1261 0.499-2.049-0.4482l-3.7564-3.8557-1.9612 1.9107z"/>
   <path d="m792.95 4095 2.0085-1.8609-4.2408-4.5772c0.0448-0.8287 0.14387-1.3521 0.64942-1.8205 0.57387-0.5317 1.112-0.4716 2.0234 0.5122l3.6584 3.9487 2.0085-1.8608-3.899-4.2084c-1.5697-1.6943-3.1603-2.1504-4.636-0.7832-0.91546 0.8481-1.1556 1.9593-1.2231 3.0375l-0.0547 0.051-0.93415-0.7342-1.6396 1.5191z"/>
   <path d="m797.37 4084.6c1.9943 2.2645 4.319 2.6495 6.0383 1.1353 0.67095-0.5909 1.0358-1.5576 1.0942-2.4777l0.0559-0.049 0.743 0.5618 1.6774-1.4773-8.6297-9.7987-2.0548 1.8097 2.0805 2.3623 1.0195 0.9885c-0.8692-0.029-1.5767 0.098-2.3455 0.775-1.4677 1.2926-1.6731 3.9058 0.32124 6.1703zm2.0861-1.8868c-1.1572-1.314-1.1118-2.4461-0.4548-3.0247 0.37742-0.3324 0.88127-0.5776 1.5402-0.5622l2.499 2.8376c0.0708 0.7568-0.13095 1.2323-0.57826 1.6262-0.79676 0.7017-1.7997 0.4929-3.0061-0.8769z"/>
   <path d="m811.94 4078.1 3.4852-2.8585c2.0451-1.6774 2.9612-3.85 1.3901-5.7655-1.0277-1.2529-2.3122-1.3798-3.8523-0.5261l-0.0472-0.058c0.8583-1.1858 0.60379-2.4947-0.0813-3.33-1.4765-1.8003-3.4258-1.0928-5.3844 0.5136l-3.2116 2.6341zm-2.4635-7.3505-1.76-2.1459 1.0081-0.8268c0.97932-0.8032 1.7052-0.9168 2.284-0.2111 0.57879 0.7057 0.48411 1.5301-0.55282 2.3806zm3.2484 3.9605-2.0199-2.4627 1.181-0.9686c1.1666-0.9568 2.0523-1.081 2.7256-0.2601 0.69692 0.8497 0.44641 1.7778-0.70573 2.7228z"/>
   <path d="m818.73 4068.9c1.1528 1.463 2.411 2.0367 3.8887 0.8724 0.48281-0.3804 0.79093-0.7418 0.94433-1.0287l-1.5199-1.3872c-0.094 0.1215-0.15251 0.1676-0.2403 0.2368-0.17556 0.1383-0.49567 0.1534-0.85303-0.3001l-6.3749-8.0907-2.1507 1.6946z"/>
   <path d="m822.86 4066c0.94599 1.2462 2.5349 1.5835 3.8702 0.57 0.83083-0.6307 1.2353-1.5458 1.4418-2.5677l0.0445-0.034 0.73755 0.6328 1.7803-1.3514-3.1984-4.2135c-1.7118-2.2551-3.5612-2.535-5.4454-1.1047-1.1572 0.8784-1.9065 2.0785-2.4133 3.3518l1.8639 0.8535c0.39681-0.956 0.82848-1.6812 1.4516-2.1542 0.78632-0.5969 1.428-0.4292 1.9681 0.1898-2.6827 2.504-3.2721 4.2844-2.1009 5.8274zm1.9532-1.7398c-0.42795-0.5638-0.26137-1.3918 1.1388-2.782l0.97978 1.2907c-0.0929 0.6786-0.23914 1.1637-0.74357 1.5466-0.51927 0.3942-1.0146 0.4194-1.375-0.055z"/>
   <path d="m831.32 4061.5c1.2023 0.071 2.6392-0.3272 3.6192-1.0383 2.005-1.4549 2.3096-3.2869 1.3251-4.6437-0.99549-1.3719-2.4487-1.1228-3.6501-0.7804-0.9767 0.2715-1.8014 0.5938-2.1515 0.1114-0.27348-0.3769-0.15527-0.7849 0.4176-1.2006 0.52764-0.3829 1.2152-0.5136 2.0424-0.5154l0.0323-2.0487c-0.9983-0.012-2.1816 0.1333-3.3274 0.9646-1.7337 1.2581-2.1752 3.0283-1.1687 4.4152 0.89703 1.2362 2.4159 1.0776 3.572 0.768 0.98764-0.2564 1.9055-0.5772 2.2665-0.08 0.28442 0.3919 0.17302 0.841-0.4903 1.3223-0.63317 0.4595-1.4482 0.6366-2.4985 0.6163z"/>
   <path d="m837.7 4054.1c1.2266 1.7561 2.7808 2.4199 4.659 1.108 0.73298-0.5119 1.176-1.0486 1.4878-1.4481l-1.4925-1.3886c-0.14518 0.215-0.36672 0.4834-0.61105 0.654-0.59554 0.416-1.2226 0.3314-1.8199-0.5237l-2.1225-3.0388 1.8172-1.2692-1.2266-1.7561-1.8172 1.2692-1.4079-2.0157-1.863 1.3013 1.1483 2.197-1.0966 0.9022 1.1626 1.6644 1.0384-0.7252z"/>
   <path d="m841.99 4049.5c1.6996 2.5383 4.3814 2.8945 6.5792 1.423 0.91317-0.6114 1.717-1.6204 2.1437-2.6907l-1.6807-0.8696c-0.3292 0.7135-0.74143 1.2361-1.3141 1.6196-1.0215 0.6839-2.1374 0.6913-3.1158-0.3348l4.5968-3.0778c-0.0779-0.2168-0.28021-0.6194-0.54965-1.0218-1.399-2.0894-3.5498-2.9582-5.7321-1.497-1.8418 1.2332-2.5958 3.9573-0.92729 6.4491zm1.6538-2.2505c-0.52919-1.1252-0.23136-2.0195 0.4806-2.4962 0.91316-0.6114 1.6991-0.241 2.2898 0.6412z"/>
   <path d="m853.04 4047.7 2.3056-1.477-2.8936-4.517c-0.26538-1.3121 0.21495-2.1507 0.79526-2.5224 0.32937-0.211 0.59477-0.3147 0.92733-0.4171l-0.8996-2.233c-0.27986 0.046-0.58668 0.1546-1.0258 0.4359-0.7999 0.5124-1.3253 1.5569-1.2168 2.9694l-0.0627 0.04-1.031-1.264-1.8821 1.2057z"/>
   <path d="m866.11 4039.6 2.1914-1.2708-2.2332-3.851c-0.59803-1.0313-1.6791-2.4499-2.3806-3.3996l0.0644-0.037 2.2488 1.9472 3.9754 3.1422 0.95067-0.5513-0.73666-5.0204-0.55698-2.9283 0.0645-0.037c0.47589 1.0805 1.1702 2.7233 1.7682 3.7546l2.2332 3.851 2.2236-1.2895-6.0924-10.506-2.5136 1.4577 1.0299 5.7116 0.43683 2.2013-0.0645 0.037-1.6936-1.4725-4.4942-3.7026-2.5136 1.4577z"/>
   <path d="m878.41 4032.5 2.4256-1.31-1.9561-3.622 1.475-0.7966c2.2617-1.2214 3.5773-3.3714 2.2231-5.879-1.3985-2.5894-3.7107-2.4415-6.0379-1.1846l-3.9006 2.1065zm-0.56609-6.8495-1.7437-3.2286 1.3275-0.717c1.2783-0.6903 2.188-0.6524 2.7898 0.4621s0.28134 2.0496-1.0462 2.7666z"/>
   <path d="m886.8 4026.3c1.2194 0.5087 2.7188 0.4991 4.4293-0.3698 2.1256-1.0797 3.354-3.1034 2.3585-5.063-0.69174-1.3618-2.0106-1.7782-3.4-1.5111l-0.0337-0.067c0.88461-1.0552 1.1276-2.1396 0.57085-3.2357-0.93638-1.8433-2.9292-2.1472-5.1047-1.0421-1.2953 0.658-2.0966 1.7127-2.638 3.0323l1.9881 0.8704c0.36901-0.9187 0.75648-1.5543 1.5038-1.9339 0.83033-0.4218 1.5146-0.2262 1.8858 0.5045 0.43022 0.8469 0.1192 1.7152-1.774 2.6769l0.87733 1.7271c2.2917-1.1641 3.135-0.8613 3.6074 0.069 0.40492 0.7971-0.0482 1.5913-1.0778 2.1144-0.89676 0.4555-1.905 0.4036-2.8482 0.1097z"/>
   <path d="m907.69 4017.8 3.2879-1.4535c3.2539-1.4384 4.6437-4.1912 2.9567-8.0073-1.687-3.816-4.6132-4.5386-8.0203-3.0324l-3.1346 1.3858zm1.6251-3.1419-3.1179-7.0529 0.47701-0.2108c1.874-0.8285 3.5131-0.5756 4.688 2.082s0.30383 4.1424-1.5701 4.9708z"/>
   <path d="m915.5 4002.8c0.85926-0.3592 1.2309-1.1606 0.90757-1.9339-0.32328-0.7734-1.1475-1.0547-2.0067-0.6955-0.84208 0.3521-1.238 1.1434-0.91476 1.9168 0.32328 0.7733 1.1718 1.0646 2.0139 0.7126zm2.8332 10.303 2.5262-1.0561-3.5633-8.5238-2.5262 1.056z"/>
   <path d="m923.07 4011.2 2.5416-1.0185-1.9955-4.9795c-0.0147-1.3385 0.61434-2.0722 1.254-2.3286 0.36309-0.1455 0.64322-0.1975 0.98908-0.2358l-0.465-2.3621c-0.28363-0.01-0.60527 0.042-1.0894 0.2359-0.88178 0.3534-1.5937 1.2808-1.7519 2.6886l-0.0692 0.028-0.7757-1.435-2.0748 0.8315z"/>
   <path d="m927.66 4004.3c1.0788 2.8579 3.6097 3.8138 6.0842 2.8798 1.0282-0.3881 2.0401-1.1882 2.6987-2.1336l-1.4393-1.2286c-0.48263 0.6202-1.0028 1.0355-1.6475 1.2789-1.1501 0.4341-2.2385 0.188-2.9584-1.0335l5.1756-1.9536c-0.0267-0.2289-0.13225-0.6668-0.30327-1.1199-0.888-2.3525-2.7854-3.687-5.2424-2.7595-2.0737 0.7827-3.4265 3.2644-2.3675 6.07zm2.1216-1.8162c-0.25987-1.2159 0.23326-2.0192 1.0349-2.3218 1.0282-0.3881 1.7095 0.1511 2.0844 1.1444z"/>
   <path d="m936.78 4000.9c1.0219 2.8985 3.4899 3.9047 5.9141 3.05 0.94859-0.3345 1.9314-1.076 2.5145-2.1111l-1.6124-1.2682c-0.30392 0.4824-0.70806 0.9606-1.3405 1.1836-1.1243 0.3963-2.2905-0.2787-2.8232-1.7895-0.53263-1.5107-0.0828-2.7555 1.1645-3.1953 0.40403-0.1424 0.84623-0.1206 1.3917 0.082l0.61336-2.0135c-0.79027-0.3929-1.8286-0.481-2.9002-0.1032-2.4066 0.8484-3.9438 3.2667-2.9219 6.1651z"/>
   <path d="m946.34 3998.9c0.67378 2.0333 1.9736 3.1135 4.1484 2.3928 0.84868-0.2812 1.4266-0.6689 1.8394-0.9627l-1.0336-1.7571c-0.20055 0.1646-0.48951 0.3584-0.77241 0.4522-0.68955 0.2285-1.2663-0.032-1.5944-1.0218l-1.1659-3.5185 2.104-0.6973-0.67379-2.0333-2.104 0.6973-0.77339-2.3339-2.1571 0.7148 0.47282 2.4335-1.3086 0.5513 0.63863 1.9273 1.2023-0.3985z"/>
   <path d="m952.81 3998.7c1.5328 0.7359 3.3104 0.8116 4.8234 0.3451 2.7589-0.8505 3.8451-3.0176 3.2524-4.9399-0.50486-1.6376-1.6857-2.3066-3.2675-2.4427l-1.664-0.1497c-1.1408-0.097-1.983-0.1098-2.2025-0.8218-0.20304-0.6586 0.26362-1.2313 1.1536-1.5057 0.92558-0.2853 1.7596-0.1721 2.7061 0.1793l0.80682-2.0614c-1.3041-0.6895-2.8749-0.79-4.2099-0.3784-2.403 0.7408-3.6576 2.8039-3.0649 4.7262 0.52132 1.691 1.9678 2.3366 3.3264 2.444l1.6927 0.1798c1.1463 0.1144 1.8762 0.1428 2.1012 0.8726 0.21402 0.6942-0.18826 1.286-1.274 1.6207-0.96118 0.2964-2.1828 0.1272-3.2211-0.3323z"/>
   <path d="m961.92 3992.7c0.83244 2.9585 3.3916 4.0766 5.6508 3.4409 2.2413-0.6306 3.8419-2.9192 3.0094-5.8777-0.83243-2.9584-3.3916-4.0766-5.6329-3.4459-2.2592 0.6357-3.8598 2.9242-3.0274 5.8827zm2.7074-0.7618c-0.43388-1.542-0.17345-2.6795 0.92028-2.9872 1.0758-0.3027 1.9091 0.527 2.343 2.069 0.43387 1.542 0.15552 2.6845-0.92029 2.9872-1.0937 0.3078-1.9091-0.527-2.343-2.069z"/>
   <path d="m972.69 3990.8c0.56966 2.2383 1.7492 3.3988 3.6986 2.9027 1.2275-0.3124 1.9154-1.0833 2.4438-2.1788l0.0542-0.014 0.51555 1.195 2.1661-0.5513-2.2786-8.9533-2.6535 0.6754 1.5068 5.9207c-0.34431 0.8372-0.66793 1.2271-1.3358 1.397-0.77619 0.1976-1.2248-0.1303-1.551-1.4119l-1.3277-5.2167-2.6535 0.6753z"/>
   <path d="m983.91 3991.6 2.6698-0.6076-1.3847-6.0843c0.45306-0.6953 0.80051-1.0991 1.4725-1.252 0.7628-0.1736 1.1988 0.1474 1.4964 1.4551l1.1945 5.2488 2.6698-0.6076-1.2731-5.5939c-0.51253-2.2521-1.6621-3.4423-3.6236-2.9959-1.2168 0.277-1.9803 1.1193-2.5778 2.0194l-0.0727 0.016-0.44202-1.1029-2.1794 0.496z"/>
   <path d="m992.93 3984.9c0.59435 2.9584 2.4148 4.4545 4.661 4.0032 0.87655-0.1761 1.676-0.8306 2.1867-1.5982l0.073-0.015 0.36234 0.8582 2.1915-0.4403-2.5719-12.801-2.6844 0.5393 0.62002 3.0862 0.3884 1.3659c-0.73829-0.4597-1.4143-0.7038-2.4187-0.502-1.9174 0.3852-3.4023 2.5454-2.808 5.5037zm2.7502-0.5905c-0.34487-1.7166 0.26069-2.6742 1.119-2.8466 0.49306-0.099 1.052-0.059 1.6148 0.2835l0.74476 3.7071c-0.3172 0.6907-0.72972 1.0015-1.3141 1.119-1.0409 0.2091-1.805-0.4734-2.1645-2.263z"/>
   <path d="m1012.6 3985.9 2.7235-0.4264-0.7289-4.6558 4.1405-0.6482-0.3573-2.2819-4.1405 0.6483-0.435-2.7788 4.8581-0.7606-0.3572-2.2819-7.5817 1.1871z"/>
   <path d="m1022.3 3984.4 2.5128-0.3204-0.563-4.4159c-0.1508-1.1825-0.5963-2.9096-0.8741-4.0571l0.074-0.01 1.3166 2.6675 2.4437 4.439 1.0901-0.139 1.2701-4.9125 0.6236-2.9149 0.074-0.01c0.019 1.1805 0.021 2.9641 0.1719 4.1466l0.563 4.4159 2.5498-0.3251-1.5359-12.047-2.8824 0.3675-1.2683 5.6634-0.452 2.1982-0.074 0.01-0.9891-2.0144-2.7042-5.1569-2.8824 0.3675z"/>
   <path d="m1041.3 3982.4c3.2635-0.3106 5.2627-2.8958 4.8869-6.8453-0.3741-3.9311-2.8163-6.0001-6.0798-5.6895-3.2449 0.3088-5.2733 2.7845-4.8974 6.7341 0.3758 3.9496 2.8453 6.1095 6.0903 5.8007zm-0.2241-2.3549c-1.6318 0.1553-2.8351-1.2832-3.0663-3.7123-0.2294-2.4105 0.6899-3.9574 2.3216-4.1127 1.6503-0.157 2.8264 1.1905 3.0558 3.601 0.2311 2.4291-0.6608 4.0669-2.3111 4.224z"/>
   <path d="m1049 3981.5 3.5871-0.2366c3.55-0.2342 5.8002-2.3426 5.5256-6.5059-0.2746-4.1632-2.7749-5.8463-6.4921-5.6012l-3.4199 0.2256zm2.6049-2.3932-0.5075-7.6946 0.5204-0.034c2.0444-0.1349 3.4972 0.6653 3.6885 3.5647 0.1912 2.8994-1.1366 3.995-3.181 4.1299z"/>
   <path d="m1071.1 3975.3 0.2743-1.1236c0.3095-1.2176 0.6146-2.64 0.8667-3.9308h0.074c0.362 1.2592 0.7091 2.6864 1.07 3.8897l0.3216 1.111zm4.0174 4.945 2.9051-0.062-4.0753-12.061-3.2775 0.07-3.5598 12.223 2.7933-0.059 0.6836-2.9023 3.7244-0.079z"/>
   <path d="m1079.2 3980.2 7.5436 0.012v-2.3096l-4.7869-0.01 0.016-9.8347h-2.7567z"/>
   <path d="m1087.8 3974.3c-0.1007 4.0779 2.4161 6.2827 5.563 6.3604 1.5083 0.037 2.8642-0.5442 3.8986-1.6925l-1.4673-1.6944c-0.612 0.637-1.3301 1.0478-2.3357 1.023-1.7689-0.044-2.9062-1.5251-2.8446-4.0202 0.06-2.4393 1.4186-3.8778 3.1131-3.8359 0.8565 0.021 1.425 0.3892 2.0257 0.9629l1.5501-1.6572c-0.7986-0.8582-2.0464-1.6342-3.5547-1.6715-3.1283-0.077-5.849 2.2033-5.9482 6.2254z"/>
   <path d="m1098.1 3979.1c0.8847 0.9757 2.1515 1.765 4.0864 1.8596 2.3069 0.1128 4.4084-1.2949 4.5367-3.9181 0.1228-2.5116-1.5509-3.7497-3.5788-3.8488-0.4837-0.024-0.878 0.032-1.3345 0.2144l0.3129-2.2038 4.3348 0.2119 0.1128-2.3069-6.6975-0.3275-0.6269 5.9555 1.1896 0.8415c0.7288-0.412 1.0896-0.5435 1.7779-0.5098 1.0977 0.054 1.8295 0.7235 1.7713 1.9141-0.059 1.2093-0.8715 1.8036-2.0808 1.7445-1.0046-0.049-1.8163-0.611-2.4914-1.2967z"/>
   <path d="m1112.7 3979.5c-0.8175-0.059-1.5549-0.7097-1.6624-2.5849 0.6004-0.8158 1.2734-1.0847 1.8679-1.0418 0.8918 0.064 1.5085 0.5756 1.4187 1.8204-0.096 1.3376-0.8068 1.8653-1.6242 1.8063zm4.4423-8.5127c-0.6882-0.8153-1.7745-1.5473-3.3351-1.6599-2.4895-0.1795-4.9179 1.6435-5.2355 6.0465-0.2989 4.1429 1.7515 6.0089 4.0366 6.1737 2.1365 0.1541 4.0285-1.222 4.2054-3.6744 0.1796-2.4894-1.2236-3.7485-3.2486-3.8945-0.7246-0.052-1.7798 0.3385-2.4492 1.0745 0.2912-2.7428 1.3986-3.5967 2.699-3.5029 0.6874 0.05 1.4024 0.4933 1.779 0.9687z"/>
   <path d="m1118.5 3981.8 7.491 0.7155 0.2107-2.2065-2.2065-0.2108 0.9139-9.5676-2.0026-0.1913c-0.8822 0.4209-1.7299 0.6768-3.0323 0.7956l-0.1612 1.6873 2.2065 0.2108-0.65 6.8049-2.5587-0.2444z"/>
   <path d="m1128.3 3982.8 7.4723 0.8898 0.2621-2.201-2.201-0.2621 1.1365-9.5438-1.9976-0.2378c-0.8917 0.4002-1.7452 0.6363-3.05 0.7247l-0.2004 1.6831 2.2009 0.2621-0.8083 6.788-2.5524-0.304z"/>
   <path d="m1172.6 3990.1 2.6849 0.6252 1.149-4.9343 4.0817 0.9505-1.149 4.9343 2.6667 0.621 2.7543-11.828-2.6667-0.621-1.0603 4.5534-4.0818-0.9505 1.0603-4.5534-2.6848-0.6252z"/>
   <path d="m1184.8 3993 3.476 0.917c3.4399 0.9075 6.2441-0.3754 7.3084-4.4097s-0.7706-6.4254-4.3726-7.3757l-3.3139-0.8743zm3.231-1.4401 1.967-7.4562 0.5043 0.1331c1.9811 0.5226 3.1038 1.7435 2.3626 4.5531-0.7412 2.8095-2.3485 3.4257-4.3297 2.9031z"/>
   <path d="m1203.8 3993 0.6092-0.9832c0.672-1.0615 1.4033-2.319 2.0433-3.468l0.071 0.022c-0.046 1.3094-0.1591 2.7738-0.1893 4.0297l-0.039 1.156zm2.2853 5.9472 2.7809 0.8425-0.1331-12.73-3.1374-0.9505-7.1757 10.516 2.674 0.8101 1.5501-2.547 3.5653 1.0801z"/>
   <path d="m1210.9 3996.8c-0.7257 2.1927-0.357 3.8058 1.5528 4.4378 1.2024 0.398 2.1973 0.119 3.2326-0.5194l0.053 0.018-0.2093 1.2845 2.122 0.7023 2.9027-8.7709-2.5994-0.8602-1.9196 5.8c-0.741 0.52-1.2237 0.6741-1.8779 0.4576-0.7604-0.2516-0.9618-0.7695-0.5463-2.025l1.6913-5.1105-2.5994-0.8602z"/>
   <path d="m1221.1 3999c-1.0207 2.8396-0.2359 5.0614 1.9201 5.8364 0.8413 0.3024 1.8641 0.1554 2.6981-0.2376l0.07 0.025-0.1335 0.9219 2.1034 0.7561 4.4167-12.287-2.5766-0.9262-1.0648 2.9623-0.3737 1.37c-0.3943-0.7752-0.8468-1.3336-1.8108-1.6802-1.8405-0.6615-4.2283 0.4199-5.249 3.2595zm2.6594 0.9163c0.5922-1.6477 1.6056-2.1543 2.4295-1.8582 0.4732 0.1702 0.9311 0.4931 1.2357 1.0776l-1.279 3.5583c-0.6286 0.4272-1.1425 0.48-1.7034 0.2784-0.9991-0.3591-1.3003-1.3383-0.6828-3.0561z"/>
   <path d="m1235 3997.8c0.8703 0.3316 1.6917 0.01 1.9901-0.7766 0.2984-0.7833-0.1052-1.555-0.9755-1.8865-0.8529-0.3249-1.6851-0.024-1.9835 0.7592-0.2984 0.7833 0.116 1.579 0.9689 1.9039zm-5.0437 9.42 2.5587 0.9747 3.289-8.6334-2.5587-0.9747z"/>
   <path d="m1236 4004.5c-1.1471 2.8513 0.197 5.2994 2.3743 6.1754 2.16 0.869 4.825 0.034 5.9721-2.8174 1.1471-2.8513-0.1969-5.2994-2.357-6.1684-2.1773-0.876-4.8422-0.041-5.9894 2.8104zm2.6094 1.0498c0.5979-1.4861 1.4986-2.2279 2.5527-1.8038 1.0369 0.4171 1.1902 1.583 0.5923 3.0691s-1.516 2.221-2.5528 1.8039c-1.0541-0.4241-1.1901-1.5831-0.5922-3.0692z"/>
   <path d="m1259.7 4019.7 3.0522 1.4752 3.4389-4.4615c0.573-0.7575 1.1368-1.5815 1.66-2.3216l0.067 0.032c-0.2717 0.8617-0.5504 1.8235-0.7879 2.7431l-1.3259 5.4828 3.1025 1.4994 7.2301-9.994-2.3647-1.1429-3.2268 4.7503c-0.6939 1.0506-1.4041 2.1348-2.1057 3.2439l-0.067-0.032c0.3494-1.2793 0.6988-2.5586 1.0157-3.7708l1.2814-5.6905-2.0963-1.0131-3.646 4.5476c-0.7692 1.035-1.5465 2.0868-2.307 3.1467l-0.067-0.032c0.4084-1.2301 0.8167-2.4602 1.2169-3.6735l1.7175-5.4797-2.5323-1.2239z"/>
   <path d="m1273.6 4026.5 2.7676 1.4603 2.4459-2.8793c0.5481-0.6796 1.0633-1.3765 1.6722-2.1714l0.066 0.035c-0.3124 0.9514-0.5805 1.7787-0.8156 2.6234l-0.9797 3.653 2.8335 1.4951 6.2717-7.1367-2.2404-1.1821-2.7735 3.3804c-0.5742 0.729-1.0738 1.4763-1.6567 2.2218l-0.066-0.035c0.2699-0.9106 0.5389-1.7796 0.7671-2.6911l1.0767-4.2758-2.0922-1.1039-2.9053 3.3109c-0.6062 0.67-1.1726 1.4241-1.7555 2.1696l-0.066-0.035c0.3028-0.8932 0.6212-1.7361 0.9153-2.6128l1.2084-4.2062-2.4051-1.2691z"/>
   <path d="m1291.3 4024c0.8134 0.4537 1.6731 0.2508 2.0814-0.4812s0.1203-1.5538-0.693-2.0076c-0.7971-0.4446-1.664-0.267-2.0723 0.465s-0.1131 1.5792 0.6839 2.0238zm-6.3506 8.5933 2.3911 1.3339 4.5008-8.0682-2.3911-1.3339z"/>
   <path d="m1289.2 4033.8c0.4233 1.1275 1.371 2.2788 2.4188 2.8854 2.1439 1.2412 3.9417 0.7754 4.7816-0.6754 0.8492-1.4669 0.031-2.6937-0.7695-3.6524-0.6448-0.7822-1.2743-1.4049-0.9757-1.9207 0.2333-0.403 0.6541-0.4607 1.2667-0.1061 0.5642 0.3266 0.9629 0.9019 1.3006 1.6569l1.8851-0.8026c-0.3945-0.9171-1.0079-1.9394-2.233-2.6487-1.8538-1.0732-3.6507-0.7576-4.5093 0.7254-0.7652 1.3218 0 2.6454 0.7492 3.5761 0.6355 0.7983 1.3015 1.5067 0.9935 2.0387-0.2426 0.4191-0.6982 0.4997-1.4075 0.089-0.677-0.392-1.17-1.0648-1.5781-2.0328z"/>
   <path d="m1298.5 4035c-1.5865 2.6105-0.7802 5.1929 1.4801 6.5666 0.9391 0.5707 2.1928 0.8749 3.3431 0.8112l0.081-1.8907c-0.7858 0-1.4334-0.1518-2.0223-0.5098-1.0506-0.6384-1.5272-1.6474-1.0086-2.9669l4.7274 2.873c0.1639-0.162 0.4438-0.515 0.6953-0.9288 1.3059-2.1489 1.1881-4.4655-1.0562-5.8295-1.8942-1.1511-4.6824-0.6878-6.2398 1.8749zm2.7377 0.5522c0.7976-0.9538 1.7342-1.0603 2.4664-0.6153 0.9391 0.5707 0.9342 1.4396 0.3828 2.3469z"/>
   <path d="m1366.7 4091.6 2.6155 2.4662c2.5884 2.4407 5.6648 2.6534 8.5271-0.3822 2.8624-3.0356 2.3928-6.0129-0.3175-8.5686l-2.4936-2.3512zm3.5263 0.2785 5.2903-5.6105 0.3794 0.3578c1.4907 1.4057 1.8937 3.0145-0.1 5.1286-1.9934 2.1141-3.6999 1.8875-5.1906 0.4819z"/>
   <path d="m1378 4096c-2.1663 2.1801-1.8809 4.9582-0.2161 6.6125 1.6516 1.6411 4.4315 1.9089 6.5978-0.2712s1.8808-4.9582 0.2293-6.5994c-1.6648-1.6542-4.4447-1.922-6.611 0.2581zm1.9951 1.9825c1.1291-1.1363 2.2476-1.4691 3.0535-0.6683 0.7928 0.7878 0.4803 1.9215-0.6488 3.0577-1.1291 1.1363-2.2608 1.456-3.0535 0.6683-0.806-0.8009-0.4803-1.9214 0.6488-3.0577z"/>
   <path d="m1384.5 4105c-1.3371 1.2968-1.7787 2.6073-0.4689 3.9577 0.4279 0.4413 0.8189 0.7107 1.12 0.8339l1.224-1.6542c-0.1304-0.081-0.1823-0.1345-0.2601-0.2147-0.1556-0.1605-0.2035-0.4773 0.211-0.8793l7.3942-7.1711-1.9063-1.9656z"/>
   <path d="m1386.1 4110.8 1.4623 1.5652 0.8604-0.4978 0.051 0.054c-0.076 1.0649 0.2097 1.9707 0.7692 2.5696 1.3605 1.4564 3.9913 1.5987 6.3189-0.5756 2.0689-1.9327 2.4627-4.2124 0.9369-5.8457-0.5849-0.6261-1.4684-0.9988-2.4143-1.0837l1.0853-0.912 2.3411-2.187-1.8691-2.0008zm3.7748 0.2207 2.763-2.5812c0.778-0.013 1.3119 0.1764 1.6933 0.5847 0.7502 0.8031 0.481 1.7428-0.7304 2.8744-1.3883 1.297-2.5085 1.2984-3.157 0.6042-0.3179-0.3402-0.565-0.8231-0.5689-1.4821z"/>
   <path d="m1392.4 4119.5-1.8802 1.0256c0.1643 0.3525 0.3564 0.6803 0.728 1.0976 1.4491 1.6276 2.9959 1.5722 5.317 0.6778l9.1-3.8127-1.7465-1.9615-3.7062 1.8036c-0.8025 0.4152-1.5926 0.8443-2.3827 1.2734l-0.049-0.056c0.5206-0.7878 1.0258-1.5369 1.4784-2.289l2.0837-3.626-1.8331-2.0588-4.3534 8.6395-0.4484 0.2247c-0.7036 0.3022-1.3749 0.2765-1.9819-0.4052-0.1362-0.153-0.2416-0.3834-0.3252-0.5334z"/>
   <path d="m1407.9 4127.6 1.0494-0.4863c1.1448-0.5174 2.447-1.1658 3.6133-1.7738l0.048 0.057c-0.7585 1.0683-1.6578 2.2296-2.3734 3.2622l-0.6679 0.9443zm-1.3603 6.2243 1.8598 2.2325 6.8867-10.707-2.0983-2.5187-11.775 4.8395 1.7884 2.1467 2.695-1.2755 2.3845 2.8622z"/>
   <path d="m1411.6 4134.8c-1.6736 1.3368-2.2363 2.9305-0.8065 4.7206 0.558 0.6986 1.122 1.1062 1.5407 1.3916l1.2899-1.5785c-0.2239-0.1311-0.5059-0.3349-0.6919-0.5678-0.4534-0.5676-0.4093-1.1988 0.4058-1.8498l2.8962-2.3133 1.3833 1.7319 1.6737-1.3368-1.3834-1.7319 1.9211-1.5344-1.4182-1.7756-2.1187 1.2871-0.9708-1.0364-1.5863 1.2671 0.7904 0.9896z"/>
   <path d="m1413.3 4142.2 1.6496 2.1853 4.9802-3.7594c0.8236 0.1018 1.3869 0.3534 1.6563 0.7102 0.4713 0.6243 0.3575 1.1537-0.7129 1.9617l-4.2964 3.2431 1.6497 2.1854 4.9802-3.7594c0.8348 0.1166 1.3869 0.3533 1.6674 0.725 0.4714 0.6244 0.3575 1.1537-0.7129 1.9617l-4.2963 3.2432 1.6496 2.1853 4.5788-3.4564c1.8435-1.3915 2.4346-2.958 1.2339-4.5487-0.7407-0.9811-1.8218-1.2386-2.9846-1.3877 0.5074-0.9664 0.4821-1.9274-0.3035-2.9681-0.7294-0.9663-1.7435-1.2276-2.8131-1.3771l-0.045-0.059 0.8392-0.8669-1.3466-1.784z"/>
   <path d="m1426.3 4151.9c-2.5093 1.7746-2.7064 4.5604-1.3512 6.4766 1.3444 1.9009 4.0367 2.6432 6.5459 0.8686s2.7064-4.5604 1.362-6.4613c-1.3552-1.9162-4.0475-2.6585-6.5567-0.8839zm1.624 2.2963c1.3078-0.9249 2.4669-1.0602 3.123-0.1326 0.6453 0.9125 0.1423 1.9755-1.1656 2.9004-1.3078 0.9249-2.4776 1.045-3.1229 0.1326-0.6561-0.9277-0.1423-1.9754 1.1655-2.9004z"/>
   <path d="m1429.1 4162.1c-0.112 1.1991 0.2371 2.6489 0.9143 3.6524 1.3858 2.0535 3.2063 2.4204 4.5959 1.4827 1.405-0.9482 1.2056-2.4091 0.9043-3.6214-0.238-0.9854-0.532-1.8206-0.038-2.154 0.386-0.2605 0.7897-0.1285 1.1856 0.4582 0.3647 0.5404 0.4719 1.2321 0.4455 2.0588l2.0464 0.1021c0.046-0.9973-0.059-2.1849-0.8507-3.3583-1.1982-1.7756-2.9523-2.2771-4.3727-1.3186-1.2661 0.8544-1.1594 2.3778-0.8893 3.5438 0.2226 0.9958 0.5119 1.9241 0 2.2679-0.4014 0.2709-0.8464 0.1443-1.3049-0.5351-0.4376-0.6485-0.5868-1.469-0.5307-2.5181z"/>
   <path d="m1489 4296.4 0.8024 3.1977 12.672 0.6033-0.6845-2.728-5.8412-0.013c-1.3688-0.021-2.6202 0.043-4.0116 0.01l-0.018-0.072c1.2101-0.6877 2.3435-1.2218 3.5401-1.8869l5.134-2.8054-0.7072-2.8183z"/>
   <path d="m1501.3 4304.9 0.3045 1.3634c0.3127 1.3997 0.083 2.2525-1.0801 2.5124-1.1634 0.2599-1.9339-0.3696-2.2465-1.7693l-0.3046-1.3634zm-8.2231 8.8984 4.1477-3.732c0.8437 1.1284 2.1434 1.7351 3.8885 1.3453 2.8177-0.6294 3.2274-2.8966 2.667-5.4052l-0.9542-4.272-11.852 2.6474 0.6009 2.6904 4.272-0.9542 0.3248 1.4543-3.7644 3.2265z"/>
   <path d="m1493.6 4316.6 0.6335 3.3303 5.632 0.1043c0.9498 0.01 1.9474-0.029 2.8536-0.05l0.014 0.073c-0.854 0.2951-1.7924 0.6443-2.6726 1.0013l-5.1935 2.2012 0.6439 3.3852 12.334-0.1466-0.4908-2.58-5.7376 0.2381c-1.2573 0.069-2.5512 0.1439-3.8599 0.2412l-0.014-0.073c1.2356-0.4815 2.4713-0.963 3.6337-1.4306l5.3339-2.3607-0.4351-2.2873-5.8246-0.2194c-1.2895 0-2.5973 0-3.9017 0.022l-0.014-0.073c1.2313-0.4049 2.4625-0.8097 3.6755-1.2111l5.4243-1.8849-0.5255-2.763z"/>
   <path d="m1500.6 4329c-3.0353 0.4823-4.4439 2.8938-4.0756 5.2117 0.3653 2.2994 2.4519 4.1557 5.4872 3.6734 3.0353-0.4822 4.4439-2.8937 4.0785-5.1932-0.3682-2.3179-2.4548-4.1741-5.4901-3.6919zm0.4413 2.7778c1.582-0.2514 2.6815 0.1398 2.8597 1.2619 0.1754 1.1037-0.7458 1.8347-2.3278 2.0861-1.582 0.2513-2.6844-0.1582-2.8597-1.2619-0.1783-1.1222 0.7458-1.8348 2.3278-2.0861z"/>
   <path d="m1497.7 4340.5 0.3724 2.7127 5.3145-0.7295c1.3023 0.31 1.8617 1.0981 1.9554 1.7809 0.053 0.3875 0.036 0.6719-0.011 1.0167l2.4043 0.1212c0.075-0.2736 0.106-0.5974 0.035-1.1141-0.1292-0.9411-0.8565-1.8565-2.184-2.3511l-0.01-0.074 1.5801-0.405-0.3039-2.2144z"/>
   <path d="m1498.7 4347.8 0.3068 2.6458 2.2573-0.2617 1.4488 1.0133-3.3307 2.4863 0.3412 2.9419 5.0015-4.0864 4.1478 2.7817-0.3433-2.9604-3.9818-2.4822-0.01-0.074 7.4379-0.8625-0.3068-2.6458z"/>
   <path d="m1500.8 4357.1c-0.6734 0.9985-1.0622 2.4381-0.9491 3.6435 0.2314 2.4665 1.653 3.6614 3.3221 3.5049 1.6876-0.1584 2.2131-1.5359 2.5301-2.7443 0.2636-0.9788 0.4061-1.8528 0.9995-1.9084 0.4637-0.043 0.7546 0.2659 0.8207 0.9706 0.061 0.6491-0.1767 1.3075-0.5962 2.0203l1.7468 1.0709c0.5186-0.8531 0.9961-1.9456 0.8639-3.355-0.2001-2.1326-1.4989-3.4139-3.205-3.2539-1.5207 0.1427-2.1576 1.5307-2.4797 2.6834-0.2822 0.9806-0.4734 1.9339-1.0854 1.9914-0.4821 0.045-0.8119-0.2793-0.8884-1.0953-0.073-0.7789 0.1894-1.5706 0.7416-2.4642z"/>
  </g>
  <g stroke-width=".26459">
   <g transform="translate(-546.84 -60.391)" aria-label="2020">
    <path d="m714.16 182.34h1.7442v-0.30058h-0.78319c-0.13971 0-0.30481 0.0127-0.45298 0.0254 0.63925-0.66888 1.1007-1.1727 1.1007-1.6807 0-0.47838-0.30905-0.79589-0.80859-0.79589-0.35138 0-0.59269 0.16511-0.81706 0.41065l0.19897 0.19897c0.15664-0.18204 0.35138-0.32598 0.57575-0.32598 0.34291 0 0.51225 0.22014 0.51225 0.52919 0 0.43604-0.45721 0.92289-1.27 1.7315z"/>
    <path d="m717.14 182.39c0.53765 0 0.86363-0.50378 0.86363-1.4097s-0.32598-1.3928-0.86363-1.3928c-0.54188 0-0.86785 0.48685-0.86785 1.3928s0.32597 1.4097 0.86785 1.4097zm0-0.27941c-0.3175 0-0.52918-0.33867-0.52918-1.1303s0.21168-1.1134 0.52918-1.1134c0.31328 0 0.52495 0.32174 0.52495 1.1134s-0.21167 1.1303-0.52495 1.1303z"/>
    <path d="m718.36 182.34h1.7442v-0.30058h-0.78319c-0.13971 0-0.30481 0.0127-0.45298 0.0254 0.63925-0.66888 1.1007-1.1727 1.1007-1.6807 0-0.47838-0.30904-0.79589-0.80858-0.79589-0.35138 0-0.59269 0.16511-0.81706 0.41065l0.19897 0.19897c0.15664-0.18204 0.35138-0.32598 0.57575-0.32598 0.34291 0 0.51225 0.22014 0.51225 0.52919 0 0.43604-0.45721 0.92289-1.27 1.7315z"/>
    <path d="m721.34 182.39c0.53765 0 0.86363-0.50378 0.86363-1.4097s-0.32598-1.3928-0.86363-1.3928c-0.54188 0-0.86785 0.48685-0.86785 1.3928s0.32597 1.4097 0.86785 1.4097zm0-0.27941c-0.3175 0-0.52918-0.33867-0.52918-1.1303s0.21168-1.1134 0.52918-1.1134c0.31328 0 0.52495 0.32174 0.52495 1.1134s-0.21167 1.1303-0.52495 1.1303z"/>
   </g>
   <g transform="translate(-546.84 -60.391)" aria-label="2015">
    <path d="m709.93 163.29h1.7442v-0.30058h-0.78319c-0.13971 0-0.30481 0.0127-0.45298 0.0254 0.63925-0.66888 1.1007-1.1727 1.1007-1.6807 0-0.47838-0.30905-0.79589-0.80859-0.79589-0.35138 0-0.59269 0.16511-0.81706 0.41065l0.19897 0.19897c0.15664-0.18204 0.35138-0.32598 0.57575-0.32598 0.34291 0 0.51225 0.22014 0.51225 0.52918 0 0.43605-0.45721 0.9229-1.27 1.7315z"/>
    <path d="m712.91 163.34c0.53764 0 0.86362-0.50378 0.86362-1.4097s-0.32598-1.3928-0.86362-1.3928c-0.54189 0-0.86786 0.48685-0.86786 1.3928s0.32597 1.4097 0.86786 1.4097zm0-0.27941c-0.31751 0-0.52919-0.33868-0.52919-1.1303 0-0.79166 0.21168-1.1134 0.52919-1.1134 0.31327 0 0.52494 0.32174 0.52494 1.1134 0 0.79165-0.21167 1.1303-0.52494 1.1303z"/>
    <path d="m714.29 163.29h1.524v-0.28788h-0.55881v-2.4131h-0.26671c-0.14817 0.0889-0.32598 0.15664-0.57152 0.19897v0.22438h0.49108v1.9897h-0.61808z"/>
    <path d="m716.16 162.97c0.18627 0.18627 0.45298 0.36831 0.88479 0.36831 0.46992 0 0.9102-0.33021 0.9102-0.91443s-0.37678-0.84669-0.83823-0.84669c-0.1651 0-0.28787 0.0423-0.41488 0.11007l0.072-0.80012h1.0457v-0.30058h-1.3505l-0.0889 1.2997 0.18627 0.11854c0.16087-0.10584 0.27518-0.16511 0.46145-0.16511 0.34714 0 0.57575 0.22014 0.57575 0.59269 0 0.37678-0.26248 0.61808-0.59268 0.61808-0.31751 0-0.52072-0.14817-0.68159-0.30904z"/>
   </g>
   <g transform="translate(-546.84 -60.391)" aria-label="2010">
    <path d="m699.34 147.41h1.7442v-0.30057h-0.78319c-0.1397 0-0.30481 0.0127-0.45298 0.0254 0.63925-0.66889 1.1007-1.1727 1.1007-1.6807 0-0.47838-0.30904-0.79589-0.80859-0.79589-0.35138 0-0.59269 0.1651-0.81706 0.41064l0.19897 0.19898c0.15664-0.18204 0.35138-0.32598 0.57575-0.32598 0.34291 0 0.51225 0.22014 0.51225 0.52918 0 0.43605-0.45721 0.92289-1.27 1.7315z"/>
    <path d="m702.33 147.46c0.53765 0 0.86362-0.50378 0.86362-1.4097 0-0.90595-0.32597-1.3928-0.86362-1.3928-0.54189 0-0.86786 0.48685-0.86786 1.3928 0 0.90596 0.32597 1.4097 0.86786 1.4097zm0-0.2794c-0.31751 0-0.52918-0.33868-0.52918-1.1303 0-0.79165 0.21167-1.1134 0.52918-1.1134 0.31327 0 0.52495 0.32174 0.52495 1.1134 0 0.79166-0.21168 1.1303-0.52495 1.1303z"/>
    <path d="m703.71 147.41h1.524v-0.28787h-0.55881v-2.4131h-0.26671c-0.14817 0.0889-0.32598 0.15664-0.57152 0.19897v0.22438h0.49108v1.9897h-0.61808z"/>
    <path d="m706.53 147.46c0.53764 0 0.86362-0.50378 0.86362-1.4097 0-0.90595-0.32598-1.3928-0.86362-1.3928-0.54189 0-0.86786 0.48685-0.86786 1.3928 0 0.90596 0.32597 1.4097 0.86786 1.4097zm0-0.2794c-0.31751 0-0.52919-0.33868-0.52919-1.1303 0-0.79165 0.21168-1.1134 0.52919-1.1134 0.31327 0 0.52494 0.32174 0.52494 1.1134 0 0.79166-0.21167 1.1303-0.52494 1.1303z"/>
   </g>
   <g transform="translate(-546.84 -60.391)" aria-label="2005">
    <path d="m682.14 135.51h1.7442v-0.30058h-0.78319c-0.1397 0-0.3048 0.0127-0.45298 0.0254 0.63926-0.66888 1.1007-1.1727 1.1007-1.6807 0-0.47838-0.30904-0.79589-0.80859-0.79589-0.35137 0-0.59268 0.16511-0.81705 0.41065l0.19897 0.19897c0.15664-0.18204 0.35138-0.32598 0.57575-0.32598 0.34291 0 0.51225 0.22014 0.51225 0.52919 0 0.43604-0.45722 0.92289-1.27 1.7315z"/>
    <path d="m685.13 135.56c0.53765 0 0.86363-0.50378 0.86363-1.4097s-0.32598-1.3928-0.86363-1.3928c-0.54188 0-0.86786 0.48685-0.86786 1.3928s0.32598 1.4097 0.86786 1.4097zm0-0.27941c-0.31751 0-0.52918-0.33868-0.52918-1.1303 0-0.79166 0.21167-1.1134 0.52918-1.1134 0.31328 0 0.52495 0.32174 0.52495 1.1134 0 0.79165-0.21167 1.1303-0.52495 1.1303z"/>
    <path d="m687.23 135.56c0.53765 0 0.86363-0.50378 0.86363-1.4097s-0.32598-1.3928-0.86363-1.3928c-0.54188 0-0.86786 0.48685-0.86786 1.3928s0.32598 1.4097 0.86786 1.4097zm0-0.27941c-0.31751 0-0.52918-0.33868-0.52918-1.1303 0-0.79166 0.21167-1.1134 0.52918-1.1134 0.31328 0 0.52495 0.32174 0.52495 1.1134 0 0.79165-0.21167 1.1303-0.52495 1.1303z"/>
    <path d="m688.38 135.19c0.18627 0.18627 0.45298 0.36831 0.88479 0.36831 0.46991 0 0.91019-0.33021 0.91019-0.91443 0-0.58421-0.37678-0.84669-0.83822-0.84669-0.16511 0-0.28788 0.0423-0.41488 0.11007l0.072-0.80012h1.0457v-0.30058h-1.3505l-0.0889 1.2997 0.18627 0.11854c0.16087-0.10584 0.27517-0.1651 0.46145-0.1651 0.34714 0 0.57575 0.22014 0.57575 0.59268 0 0.37678-0.26248 0.61808-0.59269 0.61808-0.31751 0-0.52071-0.14817-0.68158-0.30904z"/>
   </g>
   <g transform="translate(-546.84 -60.391)" aria-label="2000">
    <path d="m665.21 131.27h1.7442v-0.30058h-0.78319c-0.13971 0-0.30481 0.0127-0.45298 0.0254 0.63925-0.66888 1.1007-1.1727 1.1007-1.6807 0-0.47838-0.30905-0.79589-0.80859-0.79589-0.35138 0-0.59269 0.16511-0.81706 0.41065l0.19897 0.19897c0.15664-0.18204 0.35138-0.32598 0.57575-0.32598 0.34291 0 0.51225 0.22014 0.51225 0.52919 0 0.43604-0.45721 0.92289-1.27 1.7315z"/>
    <path d="m668.19 131.32c0.53765 0 0.86363-0.50378 0.86363-1.4097s-0.32598-1.3928-0.86363-1.3928c-0.54188 0-0.86785 0.48685-0.86785 1.3928s0.32597 1.4097 0.86785 1.4097zm0-0.27941c-0.3175 0-0.52918-0.33867-0.52918-1.1303s0.21168-1.1134 0.52918-1.1134c0.31328 0 0.52495 0.32174 0.52495 1.1134s-0.21167 1.1303-0.52495 1.1303z"/>
    <path d="m670.29 131.32c0.53765 0 0.86363-0.50378 0.86363-1.4097s-0.32598-1.3928-0.86363-1.3928c-0.54188 0-0.86785 0.48685-0.86785 1.3928s0.32597 1.4097 0.86785 1.4097zm0-0.27941c-0.3175 0-0.52918-0.33867-0.52918-1.1303s0.21168-1.1134 0.52918-1.1134c0.31328 0 0.52495 0.32174 0.52495 1.1134s-0.21167 1.1303-0.52495 1.1303z"/>
    <path d="m672.4 131.32c0.53765 0 0.86363-0.50378 0.86363-1.4097s-0.32598-1.3928-0.86363-1.3928c-0.54188 0-0.86785 0.48685-0.86785 1.3928s0.32597 1.4097 0.86785 1.4097zm0-0.27941c-0.3175 0-0.52918-0.33867-0.52918-1.1303s0.21168-1.1134 0.52918-1.1134c0.31328 0 0.52495 0.32174 0.52495 1.1134s-0.21167 1.1303-0.52495 1.1303z"/>
   </g>
   <g transform="translate(-546.84 -60.391)" aria-label="1995">
    <path d="m647.38 135.51h1.524v-0.28788h-0.55881v-2.4131h-0.26671c-0.14817 0.0889-0.32598 0.15664-0.57152 0.19898v0.22437h0.49108v1.9897h-0.61808z"/>
    <path d="m650.14 134.19c-0.33444 0-0.49955-0.22014-0.49955-0.57152 0-0.35561 0.20744-0.59268 0.46991-0.59268 0.34291 0 0.55035 0.27941 0.59692 0.80435-0.18204 0.25824-0.39371 0.35985-0.56728 0.35985zm-0.77896 1.0795c0.14817 0.16087 0.36408 0.28364 0.65196 0.28364 0.53764 0 1.0287-0.41911 1.0287-1.5029 0-0.86785-0.39794-1.2997-0.93136-1.2997-0.43181 0-0.79588 0.35138-0.79588 0.86786 0 0.55458 0.30057 0.83399 0.76625 0.83399 0.22437 0 0.46568-0.13124 0.63502-0.34714-0.0127 0.86362-0.33444 1.16-0.71545 1.16-0.16934 0-0.33445-0.0847-0.44452-0.2159z"/>
    <path d="m652.24 134.19c-0.33444 0-0.49955-0.22014-0.49955-0.57152 0-0.35561 0.20744-0.59268 0.46991-0.59268 0.34291 0 0.55035 0.27941 0.59692 0.80435-0.18204 0.25824-0.39371 0.35985-0.56728 0.35985zm-0.77896 1.0795c0.14817 0.16087 0.36408 0.28364 0.65196 0.28364 0.53764 0 1.0287-0.41911 1.0287-1.5029 0-0.86785-0.39794-1.2997-0.93136-1.2997-0.43181 0-0.79588 0.35138-0.79588 0.86786 0 0.55458 0.30057 0.83399 0.76625 0.83399 0.22437 0 0.46568-0.13124 0.63502-0.34714-0.0127 0.86362-0.33444 1.16-0.71546 1.16-0.16933 0-0.33444-0.0847-0.44451-0.2159z"/>
    <path d="m653.45 135.19c0.18628 0.18627 0.45298 0.36831 0.88479 0.36831 0.46992 0 0.9102-0.33021 0.9102-0.91443 0-0.58421-0.37678-0.84669-0.83823-0.84669-0.1651 0-0.28787 0.0423-0.41487 0.11007l0.072-0.80012h1.0457v-0.30058h-1.3505l-0.0889 1.2997 0.18627 0.11854c0.16088-0.10584 0.27518-0.1651 0.46145-0.1651 0.34714 0 0.57575 0.22014 0.57575 0.59268 0 0.37678-0.26247 0.61808-0.59268 0.61808-0.31751 0-0.52072-0.14817-0.68159-0.30904z"/>
   </g>
   <g transform="translate(-546.84 -60.391)" aria-label="1990">
    <path d="m630.71 147.41h1.524v-0.28787h-0.55881v-2.4131h-0.26671c-0.14817 0.0889-0.32598 0.15664-0.57152 0.19897v0.22438h0.49108v1.9897h-0.61808z"/>
    <path d="m633.47 146.1c-0.33444 0-0.49955-0.22014-0.49955-0.57151 0-0.35561 0.20744-0.59269 0.46991-0.59269 0.34291 0 0.55035 0.27941 0.59692 0.80436-0.18204 0.25824-0.39371 0.35984-0.56728 0.35984zm-0.77896 1.0795c0.14817 0.16087 0.36408 0.28364 0.65195 0.28364 0.53765 0 1.0287-0.41911 1.0287-1.5029 0-0.86786-0.39794-1.2997-0.93136-1.2997-0.43181 0-0.79588 0.35138-0.79588 0.86786 0 0.55458 0.30057 0.83399 0.76625 0.83399 0.22437 0 0.46568-0.13124 0.63502-0.34715-0.0127 0.86363-0.33444 1.16-0.71546 1.16-0.16933 0-0.33444-0.0847-0.44451-0.21591z"/>
    <path d="m635.57 146.1c-0.33444 0-0.49955-0.22014-0.49955-0.57151 0-0.35561 0.20744-0.59269 0.46991-0.59269 0.34291 0 0.55035 0.27941 0.59692 0.80436-0.18204 0.25824-0.39371 0.35984-0.56728 0.35984zm-0.77896 1.0795c0.14817 0.16087 0.36408 0.28364 0.65195 0.28364 0.53765 0 1.0287-0.41911 1.0287-1.5029 0-0.86786-0.39794-1.2997-0.93136-1.2997-0.43181 0-0.79589 0.35138-0.79589 0.86786 0 0.55458 0.30058 0.83399 0.76626 0.83399 0.22437 0 0.46568-0.13124 0.63502-0.34715-0.0127 0.86363-0.33444 1.16-0.71546 1.16-0.16933 0-0.33444-0.0847-0.44451-0.21591z"/>
    <path d="m637.73 147.46c0.53764 0 0.86362-0.50378 0.86362-1.4097 0-0.90595-0.32598-1.3928-0.86362-1.3928-0.54189 0-0.86786 0.48685-0.86786 1.3928 0 0.90596 0.32597 1.4097 0.86786 1.4097zm0-0.2794c-0.31751 0-0.52919-0.33868-0.52919-1.1303 0-0.79165 0.21168-1.1134 0.52919-1.1134 0.31327 0 0.52494 0.32174 0.52494 1.1134 0 0.79166-0.21167 1.1303-0.52494 1.1303z"/>
   </g>
   <g transform="translate(-546.84 -60.391)" aria-label="1985">
    <path d="m619.87 163.29h1.524v-0.28788h-0.55882v-2.4131h-0.26671c-0.14817 0.0889-0.32597 0.15664-0.57151 0.19897v0.22438h0.49108v1.9897h-0.61809z"/>
    <path d="m622.63 161.98c-0.33444 0-0.49954-0.22014-0.49954-0.57152 0-0.35561 0.20743-0.59268 0.46991-0.59268 0.34291 0 0.55035 0.2794 0.59692 0.80435-0.18204 0.25824-0.39372 0.35985-0.56729 0.35985zm-0.77895 1.0795c0.14817 0.16087 0.36407 0.28364 0.65195 0.28364 0.53765 0 1.0287-0.41911 1.0287-1.5029 0-0.86786-0.39795-1.2997-0.93136-1.2997-0.43181 0-0.79589 0.35138-0.79589 0.86786 0 0.55458 0.30057 0.83399 0.76625 0.83399 0.22438 0 0.46568-0.13124 0.63502-0.34714-0.0127 0.86362-0.33444 1.16-0.71545 1.16-0.16934 0-0.33444-0.0847-0.44451-0.2159z"/>
    <path d="m624.22 162.57c0-0.24555 0.16087-0.44452 0.37678-0.58845 0.38947 0.15663 0.73238 0.28364 0.73238 0.63078 0 0.27941-0.2159 0.47415-0.52918 0.47415-0.33021 0-0.57998-0.21591-0.57998-0.51648zm0.76202-0.74933c-0.32598-0.127-0.62232-0.26247-0.62232-0.58421 0-0.26248 0.18627-0.43605 0.43605-0.43605 0.29634 0 0.46991 0.21167 0.46991 0.47838 0 0.19897-0.1016 0.38101-0.28364 0.54188zm-1.0753 0.78319c0 0.42758 0.37678 0.74086 0.88479 0.74086 0.52495 0 0.8721-0.31751 0.8721-0.71969 0-0.36408-0.22861-0.55458-0.46992-0.69429v-0.0169c0.16511-0.127 0.37255-0.36831 0.37255-0.65195 0-0.41911-0.29211-0.71969-0.76203-0.71969-0.43604 0-0.76625 0.27941-0.76625 0.69429 0 0.28364 0.1778 0.48261 0.37678 0.62231v0.0169c-0.25401 0.13547-0.50802 0.37678-0.50802 0.72815z"/>
    <path d="m625.94 162.97c0.18627 0.18627 0.45298 0.36831 0.88479 0.36831 0.46991 0 0.91019-0.33021 0.91019-0.91443s-0.37678-0.84669-0.83822-0.84669c-0.16511 0-0.28788 0.0423-0.41488 0.11007l0.072-0.80012h1.0457v-0.30058h-1.3505l-0.0889 1.2997 0.18627 0.11854c0.16087-0.10584 0.27517-0.16511 0.46145-0.16511 0.34714 0 0.57574 0.22014 0.57574 0.59269 0 0.37678-0.26247 0.61808-0.59268 0.61808-0.31751 0-0.52071-0.14817-0.68158-0.30904z"/>
   </g>
   <g transform="translate(-546.84 -60.391)" aria-label="1980">
    <path d="m616.43 182.34h1.524v-0.28788h-0.55882v-2.4131h-0.2667c-0.14817 0.0889-0.32598 0.15664-0.57152 0.19898v0.22437h0.49108v1.9897h-0.61808z"/>
    <path d="m619.19 181.03c-0.33445 0-0.49955-0.22014-0.49955-0.57152 0-0.35561 0.20744-0.59268 0.46991-0.59268 0.34291 0 0.55035 0.27941 0.59692 0.80435-0.18204 0.25824-0.39371 0.35985-0.56728 0.35985zm-0.77896 1.0795c0.14817 0.16087 0.36408 0.28364 0.65195 0.28364 0.53765 0 1.0287-0.41911 1.0287-1.5029 0-0.86785-0.39794-1.2997-0.93136-1.2997-0.43181 0-0.79589 0.35138-0.79589 0.86786 0 0.55458 0.30058 0.83399 0.76626 0.83399 0.22437 0 0.46568-0.13124 0.63502-0.34714-0.0127 0.86362-0.33445 1.16-0.71546 1.16-0.16934 0-0.33444-0.0847-0.44451-0.2159z"/>
    <path d="m620.78 181.62c0-0.24554 0.16087-0.44452 0.37678-0.58845 0.38948 0.15664 0.73239 0.28364 0.73239 0.63078 0 0.27941-0.21591 0.47415-0.52919 0.47415-0.33021 0-0.57998-0.21591-0.57998-0.51648zm0.76202-0.74932c-0.32597-0.12701-0.62232-0.26248-0.62232-0.58422 0-0.26247 0.18628-0.43605 0.43605-0.43605 0.29634 0 0.46991 0.21168 0.46991 0.47838 0 0.19898-0.1016 0.38102-0.28364 0.54189zm-1.0753 0.78319c0 0.42757 0.37677 0.74085 0.88479 0.74085 0.52495 0 0.87209-0.31751 0.87209-0.71969 0-0.36407-0.22861-0.55458-0.46991-0.69428v-0.0169c0.1651-0.127 0.37254-0.36831 0.37254-0.65195 0-0.41911-0.29211-0.71969-0.76202-0.71969-0.43605 0-0.76626 0.27941-0.76626 0.69429 0 0.28364 0.17781 0.48261 0.37678 0.62232v0.0169c-0.25401 0.13547-0.50801 0.37678-0.50801 0.72816z"/>
    <path d="m623.45 182.39c0.53765 0 0.86363-0.50378 0.86363-1.4097s-0.32598-1.3928-0.86363-1.3928c-0.54188 0-0.86785 0.48685-0.86785 1.3928s0.32597 1.4097 0.86785 1.4097zm0-0.27941c-0.31751 0-0.52918-0.33867-0.52918-1.1303s0.21167-1.1134 0.52918-1.1134c0.31328 0 0.52495 0.32174 0.52495 1.1134s-0.21167 1.1303-0.52495 1.1303z"/>
   </g>
  </g>
 </g>
 <g stroke="#e9e56f">
  <path d="m90.868 121.84c1e-5 -17.814 14.441-30.933 32.256-30.933 17.814 0 32.256 13.118 32.256 30.933" fill="none" stroke-linecap="round" stroke-width=".26459"/>
  <path d="m122.61 82.422a41.663 41.663 0 0 0-41.569 39.401h18.198a23.498 23.498 0 0 1 23.384-21.237v0a23.498 23.498 0 0 1 23.366 21.237h18.183a41.663 41.663 0 0 0-41.548-39.401 41.663 41.663 0 0 0-0.014 0z" fill="#1d232d" stroke-dashoffset="1.2" stroke-linecap="square" stroke-miterlimit="40" stroke-width=".26459"/>
  <path d="m10.499 120.81c3e-5 -61.431 49.8-111.23 111.23-111.23 61.431-2.6e-5 111.23 49.8 111.23 111.23" fill="none" stroke-linecap="round" stroke-width=".26459"/>
 </g>
 <g transform="matrix(.25079 0 0 .25023 -149.53 -981.15)" fill="#e9e56f" stroke-linecap="round" stroke-width="10.562" aria-label="PSG    SYNTH  CD AUDIO        3D SOUND    AMBISONICS">
  <path d="m961.63 4401.1 3.3749 0.118-0.0772 2.2067-9.7967-0.3427 0.1209-3.4568q0.12951-3.7028 3.2516-3.5936 1.4757 0.052 2.3538 1.1493 0.87159 1.0907 0.80947 2.867zm-4.7276-0.1654 3.0538 0.1068 0.0303-0.8676q0.0616-1.7626-1.4823-1.8166-1.5098-0.053-1.5715 1.7098z"/>
  <path d="m964.9 4395.2-2.1759-0.2251q0.55757-0.5402 0.88091-1.2078 0.31654-0.6682 0.3897-1.3754 0.0429-0.4148-2.3e-4 -0.7285-0.0424-0.3205-0.15052-0.5379-0.11419-0.2248-0.28043-0.3451-0.17304-0.121-0.38382-0.1428-0.28559-0.03-0.52686 0.1104-0.24127 0.14-0.46121 0.4059-0.21923 0.2591-0.43612 0.6284t-0.44691 0.7991q-0.59415 1.093-1.3393 1.5864-0.74445 0.4865-1.7168 0.3859-0.76156-0.079-1.2739-0.4411-0.51911-0.3629-0.81853-0.9231-0.29871-0.5669-0.39015-1.2774-0.0982-0.7111-0.018-1.4863 0.0788-0.7615 0.23448-1.3365 0.1496-0.5824 0.39134-1.0591l2.0331 0.2104q-0.19531 0.2272-0.35475 0.5062-0.15874 0.2722-0.27199 0.5698-0.12006 0.2968-0.19251 0.5986-0.0717 0.2949-0.0999 0.5669-0.0387 0.374 4e-3 0.6877 0.0363 0.313 0.14373 0.5372 0.10738 0.2241 0.27902 0.3587 0.16483 0.1339 0.38922 0.1571 0.24478 0.025 0.45534-0.083 0.20375-0.1095 0.40517-0.3292 0.19461-0.2204 0.39977-0.5428 0.19837-0.3231 0.41948-0.7332 0.30528-0.5595 0.6319-0.993 0.32053-0.441 0.70178-0.7383t0.84832-0.4277q0.46026-0.1311 1.0518-0.07 0.81596 0.084 1.3412 0.4549 0.51912 0.363 0.81103 0.9292 0.28511 0.5656 0.36154 1.2882 0.0771 0.7158-4e-3 1.4978-0.083 0.8024-0.29427 1.5159-0.21056 0.7066-0.53742 1.2089z"/>
  <path d="m966.95 4379q0.55872 1.5598 0.1795 3.6586-0.42055 2.3275-1.9485 3.4408-1.5335 1.1053-3.7937 0.6969-2.2737-0.4108-3.4416-2.1362t-0.72789-4.1606q0.27712-1.5337 0.91242-2.6277l2.0383 0.3683q-0.84756 1-1.1393 2.6145-0.2443 1.3521 0.48257 2.3657 0.72137 1.0056 2.1878 1.2706 1.4867 0.2686 2.438-0.3445 0.95253-0.6198 1.1871-1.9181 0.141-0.7803 2e-3 -1.2779l-1.8836-0.3403-0.34883 1.9306-1.7356-0.3136 0.74143-4.1034z"/>
  <path d="m972.08 4362.8-2.0214-0.8361q0.68846-0.3588 1.1887-0.9065 0.49392-0.5502 0.76566-1.2072 0.15939-0.3853 0.20749-0.6983 0.0507-0.3193 9e-3 -0.5585-0.0453-0.2481-0.17038-0.4107-0.13136-0.1653-0.32718-0.2463-0.26531-0.1098-0.53648-0.044-0.27116 0.065-0.55778 0.2575-0.284 0.1858-0.59717 0.478-0.31318 0.2921-0.65619 0.6385-0.88115 0.8783-1.736 1.1387-0.85226 0.2541-1.7556-0.1196-0.70749-0.2926-1.0953-0.7859-0.39408-0.4959-0.52137-1.1182-0.12467-0.6286-0.01-1.3356 0.10859-0.7097 0.40646-1.4298 0.29265-0.7075 0.6058-1.2141 0.30944-0.5156 0.67705-0.9036l1.8888 0.7813q-0.25199 0.162-0.48437 0.384-0.22976 0.2157-0.42314 0.4686-0.1997 0.2503-0.35518 0.5189-0.15287 0.2622-0.25739 0.5149-0.14371 0.3474-0.19181 0.6604-0.0544 0.3104-0.0154 0.5559t0.16516 0.4234q0.11982 0.1753 0.32827 0.2615 0.22741 0.094 0.46024 0.05 0.22652-0.047 0.48221-0.2001 0.24938-0.1557 0.53794-0.4062 0.28225-0.2532 0.6111-0.5832 0.45212-0.4492 0.88879-0.7716 0.43297-0.3314 0.88316-0.5076 0.45019-0.1763 0.93504-0.1681 0.47853 0.01 1.0281 0.233 0.75802 0.3135 1.1558 0.8183 0.39409 0.4959 0.51244 1.1219 0.11203 0.6234-0.0207 1.3378-0.13016 0.7081-0.43064 1.4346-0.30833 0.7454-0.71424 1.369-0.40331 0.6173-0.85979 1.0055z"/>
  <path d="m970.22 4344.3 4.214 5.686 3.1161 1.5635-0.9902 1.9735-3.0794-1.5451-7.0772-0.071 1.1312-2.2546 3.977 0.2287q0.11004 0.01 0.81603 0.1571l0.0123-0.024q-0.40006-0.3001-0.59539-0.5358l-2.5729-3.0882z"/>
  <path d="m984.15 4340.2-1.169 1.8973-7.363 0.2086q-0.64624 0.019-0.95075-0.01l-0.0144 0.023q0.471 0.226 1.3789 0.7854l4.5861 2.8257-1.0937 1.7751-8.3457-5.1423 1.2479-2.0253 7.1212-0.181q0.48323-0.015 0.93912 5e-4l0.0143-0.023q-0.31968-0.1328-1.1752-0.6599l-4.6152-2.8437 1.0937-1.775z"/>
  <path d="m983.13 4328-1.6645 2.2465 6.4318 4.7654-1.3186 1.7796-6.4318-4.7654-1.6563 2.2354-1.4446-1.0703 4.6393-6.2615z"/>
  <path d="m995.98 4325.4-1.4618 1.664-2.9992-2.6348-2.6799 3.0506 2.9992 2.6348-1.4573 1.6588-7.3646-6.4697 1.4572-1.6588 2.9376 2.5806 2.6799-3.0505-2.9376-2.5807 1.4618-1.664z"/>
  <path d="m1008.3 4313.7q-0.4871 1.0884-1.8108 2.2014-1.7266 1.4518-3.569 1.2683-1.8424-0.1836-3.2634-1.8735-1.5134-1.7999-1.3456-3.8522 0.17297-2.0568 1.9466-3.5482 1.0988-0.9239 2.0854-1.2801l1.3682 1.6272q-1.1318 0.1836-2.0945 0.9931-1.0569 0.8886-1.1469 2.0986-0.09 1.2101 0.8646 2.3454 0.915 1.0883 2.0727 1.2224 1.1533 0.1288 2.1893-0.7423 0.9889-0.8315 1.4056-2.0035z"/>
  <path d="m1009.9 4312.9-5.6818-7.9882 2.8299-2.0128q4.2559-3.0271 7.0255 0.8667 1.3273 1.8662 0.9555 3.8084-0.3663 1.9382-2.2992 3.3131zm-2.8404-7.8029 3.6016 5.0636 0.8913-0.6339q1.1698-0.8321 1.3335-2.0055 0.1692-1.1773-0.6906-2.3862-0.8122-1.1419-1.9387-1.3222-1.1249-0.1898-2.317 0.6581z"/>
  <path d="m1029.2 4300.8-2.1081 1.1603-1.6623-1.5742-3.0543 1.681 0.4466 2.2434-2.096 1.1536-1.6006-10.308 2.2937-1.2624zm-5.031-1.6552-2.5111-2.379q-0.2798-0.2674-0.5689-0.6934l-0.048 0.026q0.1777 0.3938 0.2623 0.831l0.6677 3.4248z"/>
  <path d="m1035.7 4293.3q1.8112 4.0275-1.942 5.7154-3.641 1.6373-5.4101-2.2967l-2.3214-5.1622 2.0199-0.9084 2.3327 5.1872q0.9757 2.1696 2.6715 1.407 1.6646-0.7486 0.7226-2.8434l-2.3663-5.262 2.0137-0.9055z"/>
  <path d="m1039.4 4296.4-3.273-9.2402 3.2734-1.1595q4.923-1.7437 6.5183 2.7604 0.7646 2.1586-0.1256 3.9243-0.8838 1.7635-3.1197 2.5555zm-0.5914-8.2828 2.0747 5.8573 1.031-0.3652q1.3531-0.4793 1.8324-1.5628 0.4856-1.0858-0.01-2.484-0.4679-1.321-1.5017-1.8033-1.0297-0.491-2.4086 0z"/>
  <path d="m1051.3 4292.4-2.1209 0.6142-2.727-9.4157 2.1209-0.6143z"/>
  <path d="m1057.5 4291q-2.0532 0.4661-3.6491-0.5736-1.5975-1.0464-2.0847-3.193-0.5145-2.2666 0.4811-3.9646 0.9955-1.698 3.162-2.1898 2.0466-0.4645 3.6107 0.5894 1.5708 1.0525 2.0686 3.2457 0.5114 2.2533-0.4886 3.9313-0.9934 1.6765-3.1 2.1546zm-1.73-8.0541q-1.1333 0.2572-1.6062 1.2618-0.4745 0.998-0.1567 2.3979 0.3223 1.4199 1.1765 2.0953 0.8543 0.6753 1.9342 0.4302 1.1133-0.2527 1.585-1.201 0.4703-0.9549 0.1465-2.3815-0.3375-1.4866-1.1584-2.1695t-1.9209-0.4332z"/>
  <path d="m1094.2 4287.4 0.1466-1.8741q0.9254 0.7923 2.2339 0.8947 0.8246 0.065 1.309-0.2541 0.4911-0.3181 0.5408-0.9519 0.051-0.6542-0.4936-1.0534-0.5379-0.3987-1.5329-0.4765l-0.9064-0.071 0.1291-1.6492 0.8382 0.066q1.9082 0.1493 2.0074-1.1183 0.093-1.1926-1.3719-1.3073-0.9813-0.077-1.9578 0.4845l0.1376-1.7583q1.0696-0.4375 2.4395-0.3303 1.4993 0.1174 2.2779 0.8571 0.7855 0.7403 0.7012 1.8171-0.1499 1.9151-2.13 2.2469v0.034q1.0258 0.2106 1.5764 0.8845 0.5512 0.6671 0.4803 1.5735-0.1072 1.3698-1.1714 2.0888-1.0643 0.719-2.8294 0.5808-1.5129-0.1184-2.4218-0.6832z"/>
  <path d="m1102.6 4288.5 1.4412-9.6962 3.4349 0.5105q5.1659 0.7678 4.4634 5.4942-0.3367 2.2652-1.9508 3.4075-1.6075 1.1433-3.9538 0.7945zm3.3609-7.5933-0.9136 6.1464 1.0819 0.1608q1.42 0.211 2.3512-0.5214 0.9381-0.7313 1.1561-2.1986 0.2061-1.3862-0.481-2.2969-0.6793-0.9164-2.1263-1.1315z"/>
  <path d="m1116.2 4290.4 0.5357-2.121q0.4544 0.6295 1.0685 1.0455 0.6158 0.4093 1.3051 0.5834 0.4043 0.1021 0.7209 0.1045 0.3233 0 0.554-0.072 0.2389-0.081 0.3819-0.2279 0.1446-0.1538 0.1965-0.3593 0.07-0.2784-0.034-0.5373-0.1038-0.2588-0.3353-0.5147-0.2249-0.2542-0.5591-0.522-0.3343-0.2677-0.7265-0.5571-0.9964-0.7452-1.3774-1.5535-0.3744-0.8067-0.1351-1.7545 0.1875-0.7423 0.6197-1.1972 0.4338-0.4615 1.0312-0.6773 0.604-0.2141 1.3202-0.2024 0.7179 0.01 1.4735 0.1958 0.7423 0.1875 1.2889 0.4243 0.5548 0.2318 0.9918 0.5395l-0.5005 1.9817q-0.1968-0.2259-0.45-0.4238-0.2465-0.1962-0.5247-0.3511-0.2765-0.1615-0.5647-0.2766-0.2816-0.1134-0.5467-0.1804-0.3645-0.092-0.6812-0.094-0.315-0.01-0.5522 0.065-0.2373 0.074-0.3952 0.2245-0.1562 0.1439-0.2114 0.3626-0.06 0.2386 0.017 0.4626 0.079 0.2174 0.2675 0.4483 0.1902 0.2243 0.4797 0.4737 0.2912 0.2427 0.6653 0.5205 0.5097 0.3825 0.8918 0.7681 0.3903 0.3806 0.6297 0.8007 0.2394 0.42 0.3013 0.901 0.063 0.4743-0.082 1.0509-0.2009 0.7954-0.643 1.2618-0.4339 0.4616-1.0362 0.669-0.6007 0.2009-1.3268 0.1726-0.7195-0.027-1.4817-0.2191-0.7821-0.1975-1.4578-0.5092-0.669-0.31-1.1191-0.7056z"/>
  <path d="m1128 4294.3q-1.9986-0.6624-2.8273-2.3774-0.8266-1.7215-0.1341-3.8109 0.7312-2.2062 2.4611-3.1452 1.73-0.9389 3.8388-0.24 1.9921 0.6602 2.7862 2.371 0.8006 1.7128 0.093 3.8476-0.7269 2.1933-2.4504 3.1128-1.717 0.9217-3.7674 0.2421zm2.6823-7.789q-1.1031-0.3656-2.0273 0.2499-0.922 0.6091-1.3736 1.9717-0.4581 1.3821-0.076 2.4018 0.3822 1.0197 1.4334 1.3681 1.0836 0.3591 1.9776-0.2088 0.8961-0.5743 1.3564-1.963 0.4796-1.447 0.1298-2.4559t-1.4204-1.3638z"/>
  <path d="m1143.2 4295.5q-1.7318 4.0623-5.5174 2.4485-3.6724-1.5656-1.9808-5.5335l2.2197-5.2068 2.0374 0.8686-2.2304 5.2319q-0.9329 2.1883 0.7775 2.9175 1.679 0.7158 2.5798-1.3971l2.2625-5.3074 2.0312 0.8659z"/>
  <path d="m1151.3 4304.5-1.9671-1.0474-0.6713-7.3353q-0.06-0.6437-0.052-0.9493l-0.024-0.013q-0.1959 0.4843-0.6971 1.4256l-2.5316 4.7547-1.8404-0.9799 4.6071-8.6526 2.0998 1.118 0.6286 7.0957q0.046 0.4813 0.058 0.9373l0.024 0.013q0.1123-0.3274 0.5846-1.2144l2.5477-4.7849 1.8404 0.9799z"/>
  <path d="m1153.2 4305.6 5.3552-8.2106 2.9087 1.8971q4.3744 2.8532 1.764 6.8554-1.2511 1.9181-3.1946 2.2828-1.9379 0.3683-3.9247-0.9276zm6.2225-5.4985-3.3947 5.2046 0.9161 0.5976q1.2024 0.7842 2.3543 0.5072 1.1576-0.2733 1.968-1.5158 0.7656-1.1738 0.5212-2.2881-0.235-1.1163-1.4603-1.9155z"/>
  <path d="m1179.7 4327.4-1.6846-1.7182 1.069-2.0245-2.4408-2.4894-2.0405 1.0336-1.675-1.7084 9.4978-4.3148 1.833 1.8695zm0.2408-5.2908 1.6157-3.0585q0.1822-0.3414 0.5148-0.7345l-0.038-0.039q-0.3314 0.2771-0.7298 0.4762l-3.1188 1.5644z"/>
  <path d="m1187.5 4337-1.3609-1.7039 4.5829-3.6604q0.7424-0.593 1.691-1.2456l-0.034-0.043q-0.8117 0.4296-1.2068 0.5702l-6.6412 2.3648-1.1263-1.4101 3.6953-5.9436q0.1486-0.2411 0.8763-1.0936l-0.038-0.048q-1.0769 0.9738-1.9315 1.6564l-4.2357 3.3831-1.2414-1.5543 7.6594-6.1177 2.0179 2.5264-3.2901 5.1913q-0.3955 0.6221-0.8774 1.147l0.026 0.032q0.7508-0.3635 1.3488-0.5786l5.7795-2.0528 1.9667 2.4624z"/>
  <path d="m1188.7 4338.9 8.2257-5.3321 1.9409 2.9943q0.8924 1.3767 0.8673 2.4439-0.025 1.0672-0.9429 1.6621-0.6654 0.4313-1.4582 0.3017-0.7891-0.124-1.4377-0.6974l-0.023 0.015q0.4599 0.9483 0.2591 1.8198-0.1971 0.8773-0.9715 1.3792-1.13 0.7326-2.3197 0.3551-1.184-0.3812-2.0912-1.7808zm8.0615-2.5943-1.9503 1.2642 0.528 0.8145q0.3718 0.5737 0.8591 0.7221 0.4967 0.1505 0.9843-0.1655 0.9063-0.5875 0.029-1.9413zm-3.327 2.1566-2.1683 1.4055 0.6507 1.0039q0.4165 0.6424 0.949 0.8104 0.5363 0.1738 1.0525-0.1608 0.4933-0.3198 0.5401-0.8634 0.051-0.5378-0.3659-1.1803z"/>
  <path d="m1194.6 4348.4-1.0885-1.9211 8.5286-4.8328 1.0885 1.921z"/>
  <path d="m1195.8 4349.8 1.9593-0.9728q-0.1824 0.7546-0.099 1.4916 0.09 0.734 0.4058 1.3708 0.1854 0.3735 0.3896 0.6155 0.2072 0.2483 0.4147 0.3742 0.2167 0.129 0.4215 0.1418 0.2109 0.01 0.4007-0.084 0.2572-0.1277 0.3863-0.3749 0.129-0.2473 0.1728-0.5896 0.047-0.3361 0.033-0.7642-0.014-0.428-0.049-0.9142-0.082-1.2414 0.284-2.0566 0.3691-0.8091 1.2447-1.2438 0.6858-0.3405 1.3124-0.3082 0.6327 0.029 1.1852 0.3427 0.5555 0.3195 1.0125 0.8711 0.4631 0.5485 0.8097 1.2465 0.3405 0.6858 0.5162 1.2549 0.1849 0.5722 0.2353 1.1043l-1.8307 0.9089q0.044-0.2964 0.029-0.6175-0.011-0.3149-0.075-0.6269-0.057-0.315-0.1573-0.6088-0.097-0.2876-0.2186-0.5326-0.1672-0.3367-0.3713-0.5788-0.198-0.2451-0.4086-0.3772-0.2106-0.132-0.4276-0.154-0.2109-0.025-0.4129 0.075-0.2204 0.1095-0.3402 0.314-0.1137 0.2014-0.1665 0.4948-0.047 0.2903-0.048 0.6724 0.01 0.3791 0.037 0.8439 0.041 0.636 0 1.177-0.035 0.544-0.1985 0.9991-0.1633 0.455-0.4883 0.8149-0.319 0.3568-0.8517 0.6212-0.7347 0.3648-1.3766 0.3324-0.6328-0.029-1.1821-0.3518-0.5433-0.3256-0.9941-0.8955-0.4479-0.5637-0.7974-1.2679-0.3588-0.7225-0.5616-1.4384-0.1998-0.7098-0.192-1.309z"/>
  <path d="m1200.5 4361.3q-0.7783-1.9563 0-3.694 0.7864-1.7402 2.8316-2.5539 2.1596-0.8592 3.9913-0.1387 1.8317 0.7206 2.653 2.7849 0.7758 1.95-0.023 3.6584-0.7966 1.7147-2.8863 2.5462-2.1468 0.8542-3.9595 0.126-1.8101-0.7218-2.6087-2.7289zm7.6892-2.9563q-0.4296-1.0798-1.4954-1.3915-1.0593-0.3142-2.3932 0.2165-1.3529 0.5383-1.8878 1.4868t-0.1255 1.9775q0.4221 1.0607 1.4319 1.3799 1.0162 0.3167 2.3755-0.2241 1.4164-0.5636 1.9639-1.4803 0.5476-0.9168 0.1306-1.9648z"/>
  <path d="m1205.4 4375.8-0.6219-2.14 4.7873-5.5982q0.4194-0.4921 0.6438-0.6997l-0.01-0.026q-0.4837 0.1975-1.5077 0.495l-5.1728 1.5031-0.5818-2.0021 9.4134-2.7353 0.6638 2.2844-4.6454 5.4003q-0.3129 0.3686-0.6307 0.6959l0.01 0.026q0.3129-0.1479 1.2779-0.4283l5.2056-1.5126 0.5818 2.0022z"/>
  <path d="m1206.3 4380.2-0.4711-2.1572 9.5771-2.0914 0.4711 2.1572z"/>
  <path d="m1208.2 4389.2q-0.6822-0.9779-0.9548-2.6858-0.3556-2.2276 0.7504-3.7125 1.1059-1.4849 3.2863-1.833 2.3222-0.3706 3.9952 0.8299 1.6741 1.2072 2.0394 3.4956 0.2263 1.4176 0.024 2.4468l-2.0994 0.3351q0.4254-1.0647 0.2271-2.3068-0.2177-1.3636-1.2086-2.0638t-2.4558-0.4664q-1.4041 0.2242-2.1151 1.1476-0.7042 0.9223-0.4908 2.2589 0.2036 1.2759 0.9938 2.2365z"/>
  <path d="m1208.4 4390.5 2.179-0.1926q-0.4447 0.6364-0.6353 1.3532-0.1837 0.7162-0.1211 1.4244 0.037 0.4154 0.1387 0.7152 0.1026 0.3066 0.25 0.4994 0.1549 0.1991 0.3409 0.2856 0.1929 0.086 0.404 0.067 0.286-0.025 0.4963-0.2086 0.2102-0.1833 0.3756-0.4861 0.166-0.296 0.3087-0.6998 0.1428-0.4038 0.2869-0.8695 0.3756-1.1861 1.0133-1.8121 0.6384-0.6191 1.6122-0.7052 0.7626-0.067 1.3345 0.1909 0.5786 0.2577 0.979 0.7507 0.4011 0.4998 0.6259 1.1799 0.2316 0.6795 0.3002 1.4558 0.067 0.7627 0.024 1.3567-0.036 0.6002-0.1829 1.1142l-2.036 0.1799q0.1486-0.2602 0.2521-0.5644 0.1041-0.2974 0.1587-0.6111 0.061-0.3142 0.075-0.6242 0.014-0.3033-0.01-0.5756-0.033-0.3746-0.1351-0.6744-0.095-0.3004-0.2432-0.5-0.1481-0.1997-0.3421-0.2992-0.1873-0.1001-0.412-0.08-0.2452 0.022-0.4312 0.1685-0.1792 0.1462-0.3352 0.4002-0.1492 0.2533-0.2893 0.6089-0.1333 0.3549-0.2725 0.7995-0.1933 0.6073-0.4316 1.095-0.2309 0.4939-0.5486 0.8583-0.3178 0.3643-0.7516 0.5811-0.427 0.2162-1.0194 0.2685-0.8171 0.072-1.4032-0.1916-0.5786-0.2577-0.9728-0.7581-0.3874-0.5011-0.5998-1.196-0.2118-0.6881-0.2811-1.4712-0.071-0.8035 8e-4 -1.5441 0.072-0.7339 0.2978-1.2891z"/>
 </g>
</svg>
