<?xml version="1.0" encoding="UTF-8"?>
<svg width="100.1" height="50.1" version="1.1" viewBox="0 0 26.485 13.256" xmlns="http://www.w3.org/2000/svg" xmlns:cc="http://creativecommons.org/ns#" xmlns:dc="http://purl.org/dc/elements/1.1/" xmlns:rdf="http://www.w3.org/1999/02/22-rdf-syntax-ns#">
 <metadata>
  <rdf:RDF>
   <cc:Work rdf:about="">
    <dc:format>image/svg+xml</dc:format>
    <dc:type rdf:resource="http://purl.org/dc/dcmitype/StillImage"/>
    <dc:title/>
   </cc:Work>
  </rdf:RDF>
 </metadata>
 <g transform="translate(-119.81 -81.063)">
  <rect x="121.13" y="82.386" width="23.812" height="10.583" fill="#1d232d" style="paint-order:normal"/>
  <g fill="#7b8694">
   <rect x="121.66" y="82.121" width="1.5875" height=".26458"/>
   <rect x="123.77" y="82.121" width="1.5875" height=".26458"/>
   <rect x="125.89" y="82.121" width="1.5875" height=".26458"/>
   <rect x="128.01" y="82.121" width="1.5875" height=".26458"/>
   <rect x="130.12" y="82.121" width="1.5875" height=".26458"/>
   <rect x="132.24" y="82.121" width="1.5875" height=".26458"/>
   <rect x="134.36" y="82.121" width="1.5875" height=".26458"/>
   <rect x="136.47" y="82.121" width="1.5875" height=".26458"/>
   <rect x="138.59" y="82.121" width="1.5875" height=".26458"/>
   <rect x="140.71" y="82.121" width="1.5875" height=".26458"/>
   <rect x="142.82" y="82.121" width="1.5875" height=".26458"/>
   <rect x="121.66" y="92.969" width="1.5875" height=".26458"/>
   <rect x="123.77" y="92.969" width="1.5875" height=".26458"/>
   <rect x="125.89" y="92.969" width="1.5875" height=".26458"/>
   <rect x="128.01" y="92.969" width="1.5875" height=".26458"/>
   <rect x="130.12" y="92.969" width="1.5875" height=".26458"/>
   <rect x="132.24" y="92.969" width="1.5875" height=".26458"/>
   <rect x="134.36" y="92.969" width="1.5875" height=".26458"/>
   <rect x="136.47" y="92.969" width="1.5875" height=".26458"/>
   <rect x="138.59" y="92.969" width="1.5875" height=".26458"/>
   <rect x="140.71" y="92.969" width="1.5875" height=".26458"/>
   <rect x="142.82" y="92.969" width="1.5875" height=".26458"/>
  </g>
  <g>
   <rect transform="rotate(-30)" x="68.241" y="139.85" width="5.0302" height="2.5151" fill="#1d232d" stroke="#a6aeb8" stroke-linecap="round" stroke-width=".077841"/>
   <path d="m137.51 85.103-10.06 5.659h10.06z" fill="#1d232d" fill-rule="evenodd" stroke="#7b8694" stroke-width=".077841"/>
   <path d="m130.59 84.665v2.9277l1.2441 2.1548" fill="none" stroke="#47d58a" stroke-dasharray="0.0389209, 0.116762" stroke-linecap="square" stroke-width=".038921"/>
  </g>
  <circle transform="rotate(-30)" cx="70.761" cy="141.12" r=".12576" fill="#47d58a"/>
  <g fill="none" stroke-width=".077841">
   <g stroke="#47d58a">
    <path d="m131.83 86.827c-0.36201-0.62703-0.76689-1.3283-1.1004-1.9059"/>
    <path d="m130.8 87.393c0.34521-0.18863 0.69045-0.37727 1.0357-0.5659"/>
    <path d="m131.84 86.803v2.8138"/>
   </g>
   <path d="m129.3 89.72-1.8527 1.0421h2.13a2.2008 2.2008 0 0 0-0.27729-1.0421z" stroke="#a6aeb8" stroke-linecap="round"/>
  </g>
  <g fill="#e8eaec">
   <g font-family="sans-serif" font-size="1.5091px" letter-spacing="0px" stroke-width=".12576px" word-spacing="0px">
    <text x="129.89024" y="90.267975" style="line-height:0%" xml:space="preserve"><tspan x="129.89024" y="90.267975" fill="#e8eaec" font-family="Inconsolata" font-size=".9341px" font-weight="500" stroke-width=".12576px" style="line-height:1.25">α</tspan></text>
    <text x="132.27959" y="89.890709" style="line-height:0%" xml:space="preserve"><tspan x="132.27959" y="89.890709" fill="#e8eaec" font-family="Inconsolata" font-size=".9341px" font-weight="500" stroke-width=".12576px" style="line-height:1.25">Fg</tspan></text>
    <text x="130.8963" y="84.483238" style="line-height:0%" xml:space="preserve"><tspan x="130.8963" y="84.483238" fill="#e8eaec" font-family="Inconsolata" font-size=".9341px" font-weight="500" stroke-width=".12576px" style="line-height:1.25">Fn</tspan></text>
    <text x="129.63872" y="87.249847" style="line-height:0%" xml:space="preserve"><tspan x="129.63872" y="87.249847" fill="#e8eaec" font-family="Inconsolata" font-size=".9341px" font-weight="500" stroke-width=".12576px" style="line-height:1.25">F</tspan></text>
   </g>
   <g stroke-width="201.8">
    <g transform="matrix(-.00033795 -.00068627 -.00069802 .00034373 130.97 84.898)">
     <g fill="#e8eaec" stroke-width="201.8">
      <path d="m486.41 221.41-364.07-208.5c-52.938-30.318-95.852-5.44-95.852 55.563v415.65c0 61.004 42.914 85.882 95.852 55.563l364.07-208.49c52.938-30.317 52.938-79.473 0-109.79z" fill="#e8eaec" stroke-width="201.8"/>
     </g>
    </g>
    <g transform="matrix(3.5467e-5 -.00076414 -.00077723 -3.6075e-5 130.92 87.616)">
     <g fill="#e8eaec" stroke-width="201.8">
      <path d="m486.41 221.41-364.07-208.5c-52.938-30.318-95.852-5.44-95.852 55.563v415.65c0 61.004 42.914 85.882 95.852 55.563l364.07-208.49c52.938-30.317 52.938-79.473 0-109.79z" fill="#e8eaec" stroke-width="201.8"/>
     </g>
    </g>
    <g transform="matrix(-.00066235 -.00038271 -.00038926 .00067369 132.1 89.445)">
     <g fill="#e8eaec" stroke-width="201.8">
      <path d="m486.41 221.41-364.07-208.5c-52.938-30.318-95.852-5.44-95.852 55.563v415.65c0 61.004 42.914 85.882 95.852 55.563l364.07-208.49c52.938-30.317 52.938-79.473 0-109.79z" fill="#e8eaec" stroke-width="201.8"/>
     </g>
    </g>
   </g>
  </g>
 </g>
</svg>
