<?xml version="1.0" encoding="UTF-8"?>
<svg width="448.71" height="104.91" version="1.1" viewBox="0 0 118.72 27.757" xmlns="http://www.w3.org/2000/svg" xmlns:cc="http://creativecommons.org/ns#" xmlns:dc="http://purl.org/dc/elements/1.1/" xmlns:rdf="http://www.w3.org/1999/02/22-rdf-syntax-ns#">
 <metadata>
  <rdf:RDF>
   <cc:Work rdf:about="">
    <dc:format>image/svg+xml</dc:format>
    <dc:type rdf:resource="http://purl.org/dc/dcmitype/StillImage"/>
    <dc:title/>
   </cc:Work>
  </rdf:RDF>
 </metadata>
 <g transform="translate(-75.745 -70.004)">
  <rect x="75.878" y="75.431" width="10.232" height="10.232" fill="#1d232d" stroke="#a6aeb8" stroke-width=".26458"/>
  <path d="m80.994 80.58v10.931" fill="none" stroke="#47d58a" stroke-width=".26458"/>
  <g>
   <rect x="102.54" y="85.872" width="25.894" height="2.4015" fill="#1d232d" stroke="#7b8694" stroke-width=".26458"/>
   <rect x="110.38" y="75.431" width="10.232" height="10.232" fill="#1d232d" stroke="#a6aeb8" stroke-width=".26458"/>
   <circle cx="80.994" cy="80.547" r=".52205" fill="#47d58a"/>
   <circle cx="115.49" cy="85.768" r=".52205" fill="#47d58a"/>
  </g>
  <g stroke-width=".26458">
   <path d="m115.49 85.801v7.2761" fill="none" stroke="#47d58a"/>
   <path d="m115.49 85.746v-7.2761" fill="none" stroke="#47d58a"/>
   <rect transform="rotate(-27)" x="83.717" y="145.4" width="25.894" height="2.4015" fill="#1d232d" stroke="#7b8694"/>
   <rect transform="rotate(-27)" x="91.548" y="134.96" width="10.232" height="10.232" fill="#1d232d" stroke="#a6aeb8"/>
   <path d="m149.57 80.624-4.9623-9.7392" fill="none" stroke="#47d58a"/>
  </g>
  <circle transform="rotate(-27)" cx="96.664" cy="140.07" r=".52205" fill="#47d58a"/>
  <g fill="none" stroke="#47d58a" stroke-width=".26458">
   <path d="m149.85 80.809 9.7391-4.9623"/>
   <path d="m149.71 80.987v10.93"/>
   <path d="m186.27 88.911v4.9836"/>
   <path d="m177.32 88.202h-4.9827"/>
  </g>
  <g>
   <g transform="matrix(.090282 0 0 .089753 159.61 42.834)" stroke-width="2.9393">
    <path d="m325.3 432.66-15 20h-110v53.207c1.6223 0.59201 3.1998 1.4111 4.7617 2.3144 5.4694 0.58839 15.435 1.6021 28.492 2.7031 5.4399-2.7854 10.825-5.9844 16.711-5.9844 8.4325 0 15.84 5.9714 23.852 8.6992 4.5221 0.20945 9.0536 0.38336 13.535 0.50782 5.8529-1.4028 11.615-4.1103 17.613-4.207 6.3732-0.10276 12.595 2.2109 18.85 3.748 12.281-0.88752 21.837-2.727 26.186-5.9883 20-15 30-75 30-75z" fill="#1d232d" fill-rule="evenodd" stroke="#7b8694"/>
    <path d="m170.26 514.9s16.025-10 25-10 16.029 9.7364 25 10c10.536 0.30963 19.459-10 30-10s19.479 9.345 30 10c8.4819 0.52807 16.503-4.863 25-5 10.137-0.16345 19.893 5.793 30 5 10.509-0.82452 19.486-10.747 30-10 7.4348 0.52838 20 10 20 10" fill="none" stroke="#2c57df"/>
    <rect x="340.3" y="447.66" width="15" height="14" fill="#1d232d" stroke="#7b8694" stroke-linecap="round"/>
   </g>
   <g stroke-width=".26458">
    <path d="m185.56 83.525v-12.157l-7.5076 10.012h7.5076" fill="#1d232d" fill-rule="evenodd" stroke="#7b8694"/>
    <path d="m183.53 88.579v-3.1425" fill="none" stroke="#47d58a"/>
    <path d="m185.51 77.449h4.9827" fill="none" stroke="#47d58a"/>
   </g>
  </g>
  <g fill="#e8eaec">
   <g stroke-width="201.8">
    <g transform="matrix(0 .0026001 -.0026446 0 81.729 90.679)">
     <g fill="#e8eaec" stroke-width="201.8">
      <path d="m486.41 221.41-364.07-208.5c-52.938-30.318-95.852-5.44-95.852 55.563v415.65c0 61.004 42.914 85.882 95.852 55.563l364.07-208.49c52.938-30.317 52.938-79.473 0-109.79z" fill="#e8eaec" stroke-width="201.8"/>
     </g>
    </g>
    <g transform="matrix(0 .0026001 -.0026446 0 116.21 92.531)">
     <g fill="#e8eaec" stroke-width="201.8">
      <path d="m486.41 221.41-364.07-208.5c-52.938-30.318-95.852-5.44-95.852 55.563v415.65c0 61.004 42.914 85.882 95.852 55.563l364.07-208.49c52.938-30.317 52.938-79.473 0-109.79z" fill="#e8eaec" stroke-width="201.8"/>
     </g>
    </g>
    <g transform="matrix(0 .0026001 -.0026446 0 150.44 91.395)">
     <g fill="#e8eaec" stroke-width="201.8">
      <path d="m486.41 221.41-364.07-208.5c-52.938-30.318-95.852-5.44-95.852 55.563v415.65c0 61.004 42.914 85.882 95.852 55.563l364.07-208.49c52.938-30.317 52.938-79.473 0-109.79z" fill="#e8eaec" stroke-width="201.8"/>
     </g>
    </g>
    <g transform="matrix(0 .0026001 -.0026446 0 187 92.896)">
     <g fill="#e8eaec" stroke-width="201.8">
      <path d="m486.41 221.41-364.07-208.5c-52.938-30.318-95.852-5.44-95.852 55.563v415.65c0 61.004 42.914 85.882 95.852 55.563l364.07-208.49c52.938-30.317 52.938-79.473 0-109.79z" fill="#e8eaec" stroke-width="201.8"/>
     </g>
    </g>
    <g transform="matrix(0 -.0026001 -.0026446 0 116.21 79.416)">
     <g fill="#e8eaec" stroke-width="201.8">
      <path d="m486.41 221.41-364.07-208.5c-52.938-30.318-95.852-5.44-95.852 55.563v415.65c0 61.004 42.914 85.882 95.852 55.563l364.07-208.49c52.938-30.317 52.938-79.473 0-109.79z" fill="#e8eaec" stroke-width="201.8"/>
     </g>
    </g>
    <g transform="matrix(0 -.0026001 -.0026446 0 184.26 86.031)">
     <g fill="#e8eaec" stroke-width="201.8">
      <path d="m486.41 221.41-364.07-208.5c-52.938-30.318-95.852-5.44-95.852 55.563v415.65c0 61.004 42.914 85.882 95.852 55.563l364.07-208.49c52.938-30.317 52.938-79.473 0-109.79z" fill="#e8eaec" stroke-width="201.8"/>
     </g>
    </g>
    <g transform="matrix(.0026001 0 0 -.0026446 190.43 78.174)">
     <g fill="#e8eaec" stroke-width="201.8">
      <path d="m486.41 221.41-364.07-208.5c-52.938-30.318-95.852-5.44-95.852 55.563v415.65c0 61.004 42.914 85.882 95.852 55.563l364.07-208.49c52.938-30.317 52.938-79.473 0-109.79z" fill="#e8eaec" stroke-width="201.8"/>
     </g>
    </g>
    <g transform="matrix(-.0026001 0 0 -.0026446 172.82 88.912)">
     <g fill="#e8eaec" stroke-width="201.8">
      <path d="m486.41 221.41-364.07-208.5c-52.938-30.318-95.852-5.44-95.852 55.563v415.65c0 61.004 42.914 85.882 95.852 55.563l364.07-208.49c52.938-30.317 52.938-79.473 0-109.79z" fill="#e8eaec" stroke-width="201.8"/>
     </g>
    </g>
    <g transform="matrix(-.00099502 -.0024022 -.0024433 .0010121 145.49 70.997)">
     <g fill="#e8eaec" stroke-width="201.8">
      <path d="m486.41 221.41-364.07-208.5c-52.938-30.318-95.852-5.44-95.852 55.563v415.65c0 61.004 42.914 85.882 95.852 55.563l364.07-208.49c52.938-30.317 52.938-79.473 0-109.79z" fill="#e8eaec" stroke-width="201.8"/>
     </g>
    </g>
    <g transform="matrix(-.0022495 -.001304 -.0013263 .002288 160.66 75.383)">
     <g fill="#e8eaec" stroke-width="201.8">
      <path d="m486.41 221.41-364.07-208.5c-52.938-30.318-95.852-5.44-95.852 55.563v415.65c0 61.004 42.914 85.882 95.852 55.563l364.07-208.49c52.938-30.317 52.938-79.473 0-109.79z" fill="#e8eaec" stroke-width="201.8"/>
     </g>
    </g>
   </g>
   <g stroke-linecap="round" stroke-width=".26458">
    <g aria-label="1 force">
     <path d="m77.017 97.591h1.143v-0.2159h-0.4191v-1.8098h-0.20002c-0.11112 0.06667-0.24448 0.11748-0.42862 0.14922v0.16828h0.3683v1.4922h-0.46355z"/>
     <path d="m79.993 95.343c-0.06985-0.02857-0.16192-0.0508-0.25718-0.0508-0.30798 0-0.45085 0.19685-0.45085 0.51117v0.24448l-0.20955 0.01588v0.19685h0.20955v1.3303h0.26035v-1.3303h0.32702v-0.21272h-0.32702v-0.24448c0-0.19685 0.06985-0.29845 0.2159-0.29845 0.05715 0 0.11748 0.0127 0.17462 0.0381z"/>
     <path d="m80.025 96.822c0 0.51118 0.33655 0.80645 0.71438 0.80645s0.71438-0.29528 0.71438-0.80645c0-0.51752-0.33655-0.8128-0.71438-0.8128s-0.71438 0.29528-0.71438 0.8128zm0.26988 0c0-0.3556 0.18098-0.5969 0.4445-0.5969 0.2667 0 0.4445 0.2413 0.4445 0.5969 0 0.35242-0.1778 0.59055-0.4445 0.59055-0.26352 0-0.4445-0.23812-0.4445-0.59055z"/>
     <path d="m81.864 97.591h0.26035v-0.9906c0.10478-0.26035 0.26035-0.3556 0.39052-0.3556 0.0635 0 0.09842 0.0095 0.14922 0.0254l0.0508-0.2286c-0.0508-0.02223-0.09843-0.03175-0.1651-0.03175-0.17462 0-0.33338 0.12382-0.43815 0.3175h-0.0095l-0.02223-0.2794h-0.2159z"/>
     <path d="m82.822 96.822c0 0.51118 0.31432 0.80645 0.7239 0.80645 0.18415 0 0.36195-0.0762 0.50165-0.20002l-0.11748-0.17145c-0.09207 0.08255-0.2159 0.15558-0.36195 0.15558-0.28258 0-0.47625-0.23812-0.47625-0.59055 0-0.3556 0.2032-0.5969 0.4826-0.5969 0.12382 0 0.21908 0.05715 0.31115 0.13652l0.13018-0.16828c-0.10478-0.09843-0.24765-0.18415-0.45085-0.18415-0.39688 0-0.74295 0.29528-0.74295 0.8128z"/>
     <path d="m84.199 96.822c0 0.50482 0.32702 0.80645 0.73978 0.80645 0.20955 0 0.37465-0.07303 0.508-0.15875l-0.09208-0.17145c-0.1143 0.07303-0.23812 0.12065-0.38418 0.12065-0.29528 0-0.4953-0.20955-0.51435-0.54292h1.0414c0.0063-0.0381 0.0095-0.0889 0.0095-0.14288 0-0.44132-0.22225-0.7239-0.61595-0.7239-0.35242 0-0.69215 0.30798-0.69215 0.8128zm0.254-0.11748c0.03175-0.31115 0.2286-0.48895 0.4445-0.48895 0.2413 0 0.381 0.17462 0.381 0.48895z"/>
    </g>
    <g aria-label="2 forces">
     <path d="m111.29 97.591h1.3081v-0.22542h-0.58738c-0.10477 0-0.2286 0.0095-0.33972 0.01905 0.47942-0.50165 0.8255-0.87948 0.8255-1.2605 0-0.35878-0.23178-0.5969-0.60643-0.5969-0.26352 0-0.4445 0.12382-0.61277 0.30798l0.14922 0.14922c0.11748-0.13652 0.26353-0.24448 0.4318-0.24448 0.25718 0 0.38418 0.1651 0.38418 0.39688 0 0.32702-0.3429 0.69215-0.9525 1.2986z"/>
     <path d="m114.39 95.343c-0.0698-0.02857-0.16193-0.0508-0.25718-0.0508-0.30797 0-0.45085 0.19685-0.45085 0.51117v0.24448l-0.20955 0.01588v0.19685h0.20955v1.3303h0.26035v-1.3303h0.32703v-0.21272h-0.32703v-0.24448c0-0.19685 0.0699-0.29845 0.2159-0.29845 0.0572 0 0.11748 0.0127 0.17463 0.0381z"/>
     <path d="m114.42 96.822c0 0.51118 0.33655 0.80645 0.71438 0.80645 0.37782 0 0.71437-0.29528 0.71437-0.80645 0-0.51752-0.33655-0.8128-0.71437-0.8128-0.37783 0-0.71438 0.29528-0.71438 0.8128zm0.26988 0c0-0.3556 0.18097-0.5969 0.4445-0.5969 0.2667 0 0.4445 0.2413 0.4445 0.5969 0 0.35242-0.1778 0.59055-0.4445 0.59055-0.26353 0-0.4445-0.23812-0.4445-0.59055z"/>
     <path d="m116.26 97.591h0.26035v-0.9906c0.10478-0.26035 0.26035-0.3556 0.39053-0.3556 0.0635 0 0.0984 0.0095 0.14922 0.0254l0.0508-0.2286c-0.0508-0.02223-0.0984-0.03175-0.1651-0.03175-0.17462 0-0.33337 0.12382-0.43815 0.3175h-0.01l-0.0222-0.2794h-0.2159z"/>
     <path d="m117.22 96.822c0 0.51118 0.31433 0.80645 0.7239 0.80645 0.18415 0 0.36195-0.0762 0.50165-0.20002l-0.11747-0.17145c-0.0921 0.08255-0.2159 0.15558-0.36195 0.15558-0.28258 0-0.47625-0.23812-0.47625-0.59055 0-0.3556 0.2032-0.5969 0.4826-0.5969 0.12382 0 0.21907 0.05715 0.31115 0.13652l0.13017-0.16828c-0.10477-0.09843-0.24765-0.18415-0.45085-0.18415-0.39687 0-0.74295 0.29528-0.74295 0.8128z"/>
     <path d="m118.59 96.822c0 0.50482 0.32703 0.80645 0.73978 0.80645 0.20955 0 0.37465-0.07303 0.508-0.15875l-0.0921-0.17145c-0.1143 0.07303-0.23812 0.12065-0.38417 0.12065-0.29528 0-0.4953-0.20955-0.51435-0.54292h1.0414c6e-3 -0.0381 0.01-0.0889 0.01-0.14288 0-0.44132-0.22225-0.7239-0.61595-0.7239-0.35242 0-0.69215 0.30798-0.69215 0.8128zm0.254-0.11748c0.0318-0.31115 0.2286-0.48895 0.4445-0.48895 0.2413 0 0.381 0.17462 0.381 0.48895z"/>
     <path d="m120.11 97.416c0.14605 0.12065 0.3556 0.21272 0.57468 0.21272 0.36512 0 0.56515-0.20955 0.56515-0.46038 0-0.2921-0.24765-0.38418-0.4699-0.46672-0.17463-0.06667-0.3429-0.12382-0.3429-0.2667 0-0.11748 0.0889-0.22225 0.28257-0.22225 0.13653 0 0.24765 0.05715 0.35243 0.13652l0.12382-0.1651c-0.11747-0.09525-0.28575-0.17462-0.47942-0.17462-0.33338 0-0.53023 0.1905-0.53023 0.43815 0 0.26035 0.2413 0.36512 0.46038 0.4445 0.16827 0.0635 0.35242 0.13335 0.35242 0.2921 0 0.13335-0.1016 0.2413-0.3048 0.2413-0.18415 0-0.32067-0.0762-0.45402-0.18415z"/>
    </g>
    <g aria-label="3 forces">
     <path d="m145.64 97.343c0.13653 0.14922 0.3429 0.28575 0.66675 0.28575 0.37148 0 0.66675-0.21908 0.66675-0.57785 0-0.2794-0.19367-0.4572-0.43815-0.51435v-0.0127c0.21908-0.08255 0.3683-0.23812 0.3683-0.4826 0-0.32702-0.254-0.51435-0.60642-0.51435-0.23813 0-0.42545 0.10795-0.58103 0.254l0.1397 0.1651c0.12065-0.12065 0.26353-0.20638 0.4318-0.20638 0.2159 0 0.34925 0.12382 0.34925 0.32068 0 0.21272-0.14287 0.37782-0.57467 0.37782v0.20002c0.4826 0 0.6477 0.16192 0.6477 0.40322 0 0.22542-0.17463 0.37148-0.4191 0.37148-0.23813 0-0.39688-0.1143-0.51753-0.2413z"/>
     <path d="m148.78 95.343c-0.0699-0.02857-0.16193-0.0508-0.25718-0.0508-0.30797 0-0.45085 0.19685-0.45085 0.51117v0.24448l-0.20955 0.01588v0.19685h0.20955v1.3303h0.26035v-1.3303h0.32703v-0.21272h-0.32703v-0.24448c0-0.19685 0.0699-0.29845 0.2159-0.29845 0.0572 0 0.11748 0.0127 0.17463 0.0381z"/>
     <path d="m148.82 96.822c0 0.51118 0.33655 0.80645 0.71438 0.80645 0.37782 0 0.71437-0.29528 0.71437-0.80645 0-0.51752-0.33655-0.8128-0.71437-0.8128-0.37783 0-0.71438 0.29528-0.71438 0.8128zm0.26988 0c0-0.3556 0.18097-0.5969 0.4445-0.5969 0.2667 0 0.4445 0.2413 0.4445 0.5969 0 0.35242-0.1778 0.59055-0.4445 0.59055-0.26353 0-0.4445-0.23812-0.4445-0.59055z"/>
     <path d="m150.66 97.591h0.26035v-0.9906c0.10477-0.26035 0.26035-0.3556 0.39052-0.3556 0.0635 0 0.0984 0.0095 0.14923 0.0254l0.0508-0.2286c-0.0508-0.02223-0.0984-0.03175-0.1651-0.03175-0.17463 0-0.33338 0.12382-0.43815 0.3175h-0.01l-0.0222-0.2794h-0.2159z"/>
     <path d="m151.61 96.822c0 0.51118 0.31433 0.80645 0.7239 0.80645 0.18415 0 0.36195-0.0762 0.50165-0.20002l-0.11747-0.17145c-0.0921 0.08255-0.2159 0.15558-0.36195 0.15558-0.28258 0-0.47625-0.23812-0.47625-0.59055 0-0.3556 0.2032-0.5969 0.4826-0.5969 0.12382 0 0.21907 0.05715 0.31115 0.13652l0.13017-0.16828c-0.10477-0.09843-0.24765-0.18415-0.45085-0.18415-0.39687 0-0.74295 0.29528-0.74295 0.8128z"/>
     <path d="m152.99 96.822c0 0.50482 0.32703 0.80645 0.73978 0.80645 0.20955 0 0.37465-0.07303 0.508-0.15875l-0.0921-0.17145c-0.1143 0.07303-0.23812 0.12065-0.38417 0.12065-0.29528 0-0.4953-0.20955-0.51435-0.54292h1.0414c6e-3 -0.0381 0.01-0.0889 0.01-0.14288 0-0.44132-0.22225-0.7239-0.61595-0.7239-0.35242 0-0.69215 0.30798-0.69215 0.8128zm0.254-0.11748c0.0317-0.31115 0.2286-0.48895 0.4445-0.48895 0.2413 0 0.381 0.17462 0.381 0.48895z"/>
     <path d="m154.51 97.416c0.14605 0.12065 0.3556 0.21272 0.57467 0.21272 0.36513 0 0.56515-0.20955 0.56515-0.46038 0-0.2921-0.24765-0.38418-0.4699-0.46672-0.17462-0.06667-0.3429-0.12382-0.3429-0.2667 0-0.11748 0.0889-0.22225 0.28258-0.22225 0.13652 0 0.24765 0.05715 0.35242 0.13652l0.12383-0.1651c-0.11748-0.09525-0.28575-0.17462-0.47943-0.17462-0.33337 0-0.53022 0.1905-0.53022 0.43815 0 0.26035 0.2413 0.36512 0.46037 0.4445 0.16828 0.0635 0.35243 0.13335 0.35243 0.2921 0 0.13335-0.1016 0.2413-0.3048 0.2413-0.18415 0-0.32068-0.0762-0.45403-0.18415z"/>
    </g>
    <g aria-label="4 forces">
     <path d="m180.28 96.822 0.47307-0.69215c0.0572-0.09842 0.1143-0.18732 0.1651-0.28575h0.0127c-6e-3 0.10795-0.0159 0.28258-0.0159 0.39052v0.58738zm1.1589 0h-0.27622v-1.2573h-0.2921l-0.86678 1.2954v0.17145h0.91123v0.5588h0.24765v-0.5588h0.27622z"/>
     <path d="m183.18 95.343c-0.0699-0.02857-0.16192-0.0508-0.25717-0.0508-0.30798 0-0.45085 0.19685-0.45085 0.51117v0.24448l-0.20955 0.01588v0.19685h0.20955v1.3303h0.26035v-1.3303h0.32702v-0.21272h-0.32702v-0.24448c0-0.19685 0.0699-0.29845 0.2159-0.29845 0.0572 0 0.11747 0.0127 0.17462 0.0381z"/>
     <path d="m183.21 96.822c0 0.51118 0.33655 0.80645 0.71437 0.80645 0.37783 0 0.71438-0.29528 0.71438-0.80645 0-0.51752-0.33655-0.8128-0.71438-0.8128-0.37782 0-0.71437 0.29528-0.71437 0.8128zm0.26987 0c0-0.3556 0.18098-0.5969 0.4445-0.5969 0.2667 0 0.4445 0.2413 0.4445 0.5969 0 0.35242-0.1778 0.59055-0.4445 0.59055-0.26352 0-0.4445-0.23812-0.4445-0.59055z"/>
     <path d="m185.05 97.591h0.26035v-0.9906c0.10478-0.26035 0.26035-0.3556 0.39053-0.3556 0.0635 0 0.0984 0.0095 0.14922 0.0254l0.0508-0.2286c-0.0508-0.02223-0.0984-0.03175-0.1651-0.03175-0.17462 0-0.33337 0.12382-0.43815 0.3175h-0.01l-0.0222-0.2794h-0.2159z"/>
     <path d="m186.01 96.822c0 0.51118 0.31433 0.80645 0.7239 0.80645 0.18415 0 0.36195-0.0762 0.50165-0.20002l-0.11747-0.17145c-0.0921 0.08255-0.2159 0.15558-0.36195 0.15558-0.28258 0-0.47625-0.23812-0.47625-0.59055 0-0.3556 0.2032-0.5969 0.4826-0.5969 0.12382 0 0.21907 0.05715 0.31115 0.13652l0.13017-0.16828c-0.10477-0.09843-0.24765-0.18415-0.45085-0.18415-0.39687 0-0.74295 0.29528-0.74295 0.8128z"/>
     <path d="m187.39 96.822c0 0.50482 0.32703 0.80645 0.73978 0.80645 0.20955 0 0.37465-0.07303 0.508-0.15875l-0.0921-0.17145c-0.1143 0.07303-0.23812 0.12065-0.38417 0.12065-0.29528 0-0.4953-0.20955-0.51435-0.54292h1.0414c6e-3 -0.0381 0.01-0.0889 0.01-0.14288 0-0.44132-0.22225-0.7239-0.61595-0.7239-0.35242 0-0.69215 0.30798-0.69215 0.8128zm0.254-0.11748c0.0317-0.31115 0.2286-0.48895 0.4445-0.48895 0.2413 0 0.381 0.17462 0.381 0.48895z"/>
     <path d="m188.9 97.416c0.14605 0.12065 0.3556 0.21272 0.57468 0.21272 0.36512 0 0.56515-0.20955 0.56515-0.46038 0-0.2921-0.24765-0.38418-0.4699-0.46672-0.17463-0.06667-0.3429-0.12382-0.3429-0.2667 0-0.11748 0.0889-0.22225 0.28257-0.22225 0.13653 0 0.24765 0.05715 0.35243 0.13652l0.12382-0.1651c-0.11747-0.09525-0.28575-0.17462-0.47942-0.17462-0.33338 0-0.53023 0.1905-0.53023 0.43815 0 0.26035 0.2413 0.36512 0.46038 0.4445 0.16827 0.0635 0.35242 0.13335 0.35242 0.2921 0 0.13335-0.1016 0.2413-0.3048 0.2413-0.18415 0-0.32067-0.0762-0.45402-0.18415z"/>
    </g>
   </g>
  </g>
 </g>
</svg>
