<?xml version="1.0" encoding="UTF-8"?>
<svg width="261.43" height="106.73" version="1.1" viewBox="0 0 69.17 28.239" xmlns="http://www.w3.org/2000/svg" xmlns:cc="http://creativecommons.org/ns#" xmlns:dc="http://purl.org/dc/elements/1.1/" xmlns:rdf="http://www.w3.org/1999/02/22-rdf-syntax-ns#">
 <metadata>
  <rdf:RDF>
   <cc:Work rdf:about="">
    <dc:format>image/svg+xml</dc:format>
    <dc:type rdf:resource="http://purl.org/dc/dcmitype/StillImage"/>
    <dc:title/>
   </cc:Work>
  </rdf:RDF>
 </metadata>
 <g transform="translate(-225.35 -119.25)">
  <g fill="#1d232d" stroke-linecap="round" stroke-width=".13229">
   <g stroke="#7b8694">
    <rect x="226.3" y="144.21" width="1.7098" height="2.1372"/>
    <rect x="228.01" y="141.65" width="2.1372" height="4.7019"/>
    <rect x="230.15" y="139.51" width="2.1372" height="6.8391"/>
    <rect x="232.29" y="137.27" width="2.1367" height="9.0797"/>
    <rect x="234.42" y="135.33" width="2.1376" height="11.019"/>
    <rect x="236.56" y="133.73" width="2.1364" height="12.622"/>
    <rect x="238.7" y="132.28" width="2.1373" height="14.068"/>
    <rect x="240.84" y="130.99" width="2.1373" height="15.355"/>
    <rect x="245.11" y="128.82" width="2.1372" height="17.525"/>
    <rect x="247.25" y="128" width="2.1373" height="18.342"/>
    <rect x="249.38" y="127.25" width="2.1375" height="19.094"/>
    <rect x="251.52" y="126.78" width="2.1374" height="19.568"/>
    <rect x="253.66" y="126.5" width="2.1377" height="19.847"/>
   </g>
   <rect x="255.8" y="126.45" width="2.1376" height="19.901" stroke="#a6aeb8"/>
   <g stroke="#7b8694">
    <rect x="257.93" y="126.42" width="2.1366" height="19.929"/>
    <rect x="260.07" y="126.62" width="2.1371" height="19.729"/>
    <rect x="262.21" y="126.87" width="2.1376" height="19.476"/>
    <rect x="264.34" y="127.43" width="2.1379" height="18.915"/>
    <rect x="266.48" y="128.11" width="2.1375" height="18.233"/>
    <rect x="268.62" y="129.01" width="2.1377" height="17.339"/>
    <rect x="270.76" y="130.1" width="2.1372" height="16.243"/>
    <rect x="272.89" y="131.39" width="2.1372" height="14.96"/>
    <rect x="275.03" y="132.8" width="2.1376" height="13.545"/>
    <rect x="277.17" y="134.38" width="2.1372" height="11.968"/>
    <rect x="279.31" y="136.29" width="2.1363" height="10.057"/>
    <rect x="281.44" y="138.29" width="2.1376" height="8.055"/>
    <rect x="283.58" y="140.43" width="2.1377" height="5.9179"/>
    <rect x="285.72" y="142.56" width="2.1378" height="3.7909"/>
    <rect x="287.86" y="144.95" width="2.1337" height="1.3922"/>
    <rect x="242.97" y="129.72" width="2.1373" height="16.624"/>
   </g>
  </g>
  <g>
   <path d="m226.26 146.43s5.0731-6.0731 7.9611-8.7626c1.9399-1.8066 4.0214-3.4823 6.2513-4.9156 2.6804-1.7228 5.4825-3.3449 8.4954-4.3813 2.7251-0.93742 5.6137-1.5949 8.4954-1.6029 2.9693-8e-3 5.9587 0.62542 8.7625 1.6029 2.859 0.99663 5.5008 2.5867 8.0145 4.2744 2.5938 1.7414 4.9378 3.8433 7.2131 5.9842 2.5785 2.4263 7.2665 7.7474 7.2665 7.7474" fill="none" stroke="#e9e56f" stroke-width=".26458"/>
   <path d="m293.05 146.48h-66.681v-25.486" fill="none" stroke="#a6aeb8" stroke-width=".26458"/>
   <g fill="#e8eaec" aria-label="x">
    <path d="m292.29 142.59-0.36195 0.53657-0.381-0.53657h-0.24765l0.49847 0.71437-0.508 0.7366h0.25718l0.37782-0.56197 0.40005 0.56197h0.26035l-0.5334-0.74295 0.4699-0.70802z" fill="#e8eaec" stroke-width=".42744px"/>
   </g>
   <g fill="#e8eaec" aria-label="y">
    <path d="m228.45 119.94 0.59055 1.4446-0.0476 0.10478c-0.0254 0.0603-0.054 0.12065-0.0984 0.16827-0.0603 0.0667-0.13653 0.0953-0.2032 0.0953-0.10795 0-0.16193-0.073-0.17145-0.0857-0.01-0.0159-6e-3 -0.0381-0.0254-0.054l-0.11748 0.20638c0.0825 0.0794 0.19368 0.12065 0.31433 0.12065 0.13017 0 0.2667-0.0476 0.36195-0.15558 0.0635-0.073 0.0953-0.14922 0.127-0.23177l0.45085-1.197c0.054-0.13652 0.1016-0.27622 0.14605-0.4191h-0.23813c-0.0254 0.13335-0.0667 0.26035-0.11112 0.38735l-0.27623 0.77788-0.42545-1.07c-3e-3 -0.01-3e-3 -0.0159-3e-3 -0.0254 0-0.0222 0.0159-0.0381 0.0127-0.0667z" fill="#e8eaec" stroke-width=".42744px"/>
   </g>
  </g>
  <g fill="#fff">
   <circle cx="283.49" cy="140.7" r=".42744"/>
   <circle cx="285.63" cy="142.89" r=".42744"/>
   <circle cx="230.06" cy="141.98" r=".42744"/>
   <circle cx="232.2" cy="139.76" r=".42744"/>
   <circle cx="234.33" cy="137.61" r=".42744"/>
   <circle cx="238.61" cy="134.01" r=".42744"/>
   <circle cx="242.88" cy="131.29" r=".42744"/>
   <circle cx="247.16" cy="129.1" r=".42744"/>
   <circle cx="251.43" cy="127.54" r=".42744"/>
   <circle cx="255.71" cy="126.83" r=".42744"/>
   <circle cx="259.98" cy="126.92" r=".42744"/>
   <circle cx="264.26" cy="127.8" r=".42744"/>
   <circle cx="268.53" cy="129.31" r=".42744"/>
   <circle cx="272.8" cy="131.72" r=".42744"/>
   <circle cx="277.08" cy="134.73" r=".42744"/>
   <circle cx="281.35" cy="138.56" r=".42744"/>
   <circle cx="279.22" cy="136.54" r=".42744"/>
   <circle cx="274.94" cy="133.12" r=".42744"/>
   <circle cx="270.67" cy="130.44" r=".42744"/>
   <circle cx="266.39" cy="128.4" r=".42744"/>
   <circle cx="262.12" cy="127.26" r=".42744"/>
   <circle cx="257.84" cy="126.72" r=".42744"/>
   <circle cx="253.57" cy="127.08" r=".42744"/>
   <circle cx="249.3" cy="128.3" r=".42744"/>
   <circle cx="245.02" cy="130.01" r=".42744"/>
   <circle cx="240.75" cy="132.58" r=".42744"/>
   <circle cx="236.47" cy="135.63" r=".42744"/>
   <circle cx="227.92" cy="144.5" r=".42744"/>
   <circle cx="287.77" cy="145.26" r=".42744"/>
  </g>
  <g transform="matrix(0 -.0035871 .0036486 0 225.35 121.13)" fill="#e8eaec" stroke-width="201.8">
   <g fill="#e8eaec" stroke-width="201.8">
    <path d="m486.41 221.41-364.07-208.5c-52.938-30.318-95.852-5.44-95.852 55.563v415.65c0 61.004 42.914 85.882 95.852 55.563l364.07-208.49c52.938-30.317 52.938-79.473 0-109.79z" fill="#e8eaec" stroke-width="201.8"/>
   </g>
  </g>
  <g transform="matrix(-.0017936 -.0031065 .0031597 -.0018243 292.89 147.64)" fill="#e8eaec" stroke-width="201.8">
   <g fill="#e8eaec" stroke-width="201.8">
    <path d="m486.41 221.41-364.07-208.5c-52.938-30.318-95.852-5.44-95.852 55.563v415.65c0 61.004 42.914 85.882 95.852 55.563l364.07-208.49c52.938-30.317 52.938-79.473 0-109.79z" fill="#e8eaec" stroke-width="201.8"/>
   </g>
  </g>
 </g>
</svg>
