<?xml version="1.0" encoding="UTF-8"?>
<svg width="261.43" height="106.08" version="1.1" viewBox="0 0 69.17 28.066" xmlns="http://www.w3.org/2000/svg" xmlns:cc="http://creativecommons.org/ns#" xmlns:dc="http://purl.org/dc/elements/1.1/" xmlns:rdf="http://www.w3.org/1999/02/22-rdf-syntax-ns#">
 <metadata>
  <rdf:RDF>
   <cc:Work rdf:about="">
    <dc:format>image/svg+xml</dc:format>
    <dc:type rdf:resource="http://purl.org/dc/dcmitype/StillImage"/>
    <dc:title/>
   </cc:Work>
  </rdf:RDF>
 </metadata>
 <g transform="translate(-212.87 -123.4)">
  <g fill="none" stroke-width=".26458">
   <path d="m213.76 150.4s5.0731-6.0731 7.9611-8.7625c1.94-1.8066 4.0214-3.4824 6.2513-4.9156 2.6804-1.7228 5.4825-3.3449 8.4954-4.3813 2.7251-0.93741 5.6137-1.5949 8.4955-1.6029 2.9693-8e-3 5.9587 0.62536 8.7625 1.6029 2.859 0.99666 5.5008 2.5867 8.0145 4.2744 2.5938 1.7414 4.9378 3.8433 7.2131 5.9842 2.5785 2.4263 7.2665 7.7474 7.2665 7.7474" stroke="#e9e56f"/>
   <path d="m213.76 150.4s4.9506-6.074 7.7688-8.7638c1.893-1.8068 3.9243-3.4828 6.1004-4.9164 2.6156-1.7229 5.35-3.3453 8.2902-4.3819 2.6592-0.93755 5.4781-1.5951 8.2902-1.6032 2.8976-8e-3 5.8148 0.62555 8.5509 1.6032 2.7899 0.99679 5.3679 2.5871 7.8209 4.275 2.5311 1.7416 4.8186 3.8439 7.0389 5.985 2.5164 2.4267 7.091 7.7485 7.091 7.7485" stroke="#6f8ce9"/>
   <path d="m213.76 150.4s4.8281-5.8103 7.5765-8.5006c1.8463-1.8071 3.8272-3.4833 5.9494-4.917 2.5508-1.7232 5.2176-3.3458 8.085-4.3825 2.5934-0.93768 5.3425-1.8599 8.0851-1.868 2.8259-8e-3 5.6709 0.62566 8.3393 1.6034 2.7209 0.99697 5.2351 2.5875 7.6274 4.2757 2.4685 1.7419 4.6994 3.8444 6.8646 5.9859 2.4541 2.427 6.9155 7.7496 6.9155 7.7496" stroke="#ff867f"/>
   <path d="m280.55 150.45h-66.681v-25.486" stroke="#a6aeb8"/>
  </g>
  <g fill="#e8eaec">
   <g aria-label="x">
    <path d="m279.79 146.56-0.36195 0.53657-0.381-0.53657h-0.24765l0.49847 0.71437-0.508 0.7366h0.25718l0.37782-0.56197 0.40005 0.56197h0.26035l-0.5334-0.74295 0.4699-0.70802z" fill="#e8eaec" stroke-width=".42744px"/>
   </g>
   <g aria-label="y">
    <path d="m215.95 123.91 0.59055 1.4446-0.0476 0.10478c-0.0254 0.0603-0.054 0.12065-0.0984 0.16827-0.0603 0.0667-0.13652 0.0953-0.2032 0.0953-0.10795 0-0.16192-0.073-0.17145-0.0857-0.01-0.0159-6e-3 -0.0381-0.0254-0.054l-0.11747 0.20638c0.0825 0.0794 0.19367 0.12065 0.31432 0.12065 0.13018 0 0.2667-0.0476 0.36195-0.15558 0.0635-0.073 0.0953-0.14922 0.127-0.23177l0.45085-1.197c0.054-0.13652 0.1016-0.27622 0.14605-0.4191h-0.23812c-0.0254 0.13335-0.0667 0.26035-0.11113 0.38735l-0.27622 0.77788-0.42545-1.07c-3e-3 -0.01-3e-3 -0.0159-3e-3 -0.0254 0-0.0222 0.0159-0.0381 0.0127-0.0667z" fill="#e8eaec" stroke-width=".42744px"/>
   </g>
   <g stroke-width=".42744px" aria-label="15 fps">
    <path d="m247.21 140.37h1.143v-0.2159h-0.4191v-1.8098h-0.20002c-0.11113 0.0667-0.24448 0.11747-0.42863 0.14922v0.16828h0.3683v1.4922h-0.46355z"/>
    <path d="m248.61 140.13c0.1397 0.1397 0.33973 0.27623 0.66358 0.27623 0.35242 0 0.68262-0.24765 0.68262-0.6858s-0.28257-0.635-0.62865-0.635c-0.12382 0-0.2159 0.0318-0.31115 0.0825l0.054-0.60008h0.78422v-0.22542h-1.0128l-0.0667 0.97472 0.1397 0.0889c0.12065-0.0794 0.20638-0.12382 0.34608-0.12382 0.26035 0 0.4318 0.1651 0.4318 0.4445 0 0.28257-0.19685 0.46355-0.4445 0.46355-0.23813 0-0.39053-0.11113-0.51118-0.23178z"/>
    <path d="m251.76 138.12c-0.0699-0.0286-0.16192-0.0508-0.25717-0.0508-0.30798 0-0.45085 0.19685-0.45085 0.51117v0.24448l-0.20955 0.0159v0.19685h0.20955v1.3303h0.26035v-1.3303h0.32702v-0.21272h-0.32702v-0.24448c0-0.19685 0.0699-0.29845 0.2159-0.29845 0.0572 0 0.11747 0.0127 0.17462 0.0381z"/>
    <path d="m252.19 140.23c0.14288 0.11112 0.28575 0.1778 0.42863 0.1778 0.35242 0 0.66675-0.30798 0.66675-0.83185 0-0.47943-0.21273-0.7874-0.6096-0.7874-0.18098 0-0.35243 0.0984-0.49213 0.2159h-0.01l-0.0222-0.1778h-0.2159v2.1939h0.26035v-0.5207zm6e-3 -0.2032v-0.80963c0.1524-0.13652 0.28258-0.20955 0.41275-0.20955 0.2921 0 0.4064 0.2286 0.4064 0.56833 0 0.381-0.18732 0.61277-0.44132 0.61277-0.1016 0-0.23813-0.0444-0.37783-0.16192z"/>
    <path d="m253.53 140.2c0.14605 0.12065 0.3556 0.21273 0.57468 0.21273 0.36512 0 0.56515-0.20955 0.56515-0.46038 0-0.2921-0.24765-0.38417-0.4699-0.46672-0.17463-0.0667-0.3429-0.12383-0.3429-0.2667 0-0.11748 0.0889-0.22225 0.28257-0.22225 0.13653 0 0.24765 0.0572 0.35243 0.13652l0.12382-0.1651c-0.11747-0.0952-0.28575-0.17462-0.47942-0.17462-0.33338 0-0.53023 0.1905-0.53023 0.43815 0 0.26035 0.2413 0.36512 0.46038 0.4445 0.16827 0.0635 0.35242 0.13335 0.35242 0.2921 0 0.13335-0.1016 0.2413-0.3048 0.2413-0.18415 0-0.32067-0.0762-0.45402-0.18415z"/>
   </g>
   <g stroke-width=".42744px" aria-label="30 fps">
    <path d="m247.04 142.79c0.13652 0.14923 0.3429 0.28575 0.66675 0.28575 0.37147 0 0.66675-0.21907 0.66675-0.57785 0-0.2794-0.19368-0.4572-0.43815-0.51435v-0.0127c0.21907-0.0825 0.3683-0.23812 0.3683-0.4826 0-0.32702-0.254-0.51435-0.60643-0.51435-0.23812 0-0.42545 0.10795-0.58102 0.254l0.1397 0.1651c0.12065-0.12065 0.26352-0.20637 0.4318-0.20637 0.2159 0 0.34925 0.12382 0.34925 0.32067 0 0.21273-0.14288 0.37783-0.57468 0.37783v0.20002c0.4826 0 0.6477 0.16193 0.6477 0.40323 0 0.22542-0.17462 0.37147-0.4191 0.37147-0.23812 0-0.39687-0.1143-0.51752-0.2413z"/>
    <path d="m249.32 143.08c0.40323 0 0.6477-0.37782 0.6477-1.0573s-0.24447-1.0446-0.6477-1.0446c-0.4064 0-0.65087 0.36513-0.65087 1.0446s0.24447 1.0573 0.65087 1.0573zm0-0.20955c-0.23812 0-0.39687-0.254-0.39687-0.84772 0-0.59373 0.15875-0.83503 0.39687-0.83503 0.23495 0 0.3937 0.2413 0.3937 0.83503 0 0.59372-0.15875 0.84772-0.3937 0.84772z"/>
    <path d="m251.76 140.79c-0.0699-0.0286-0.16192-0.0508-0.25717-0.0508-0.30798 0-0.45085 0.19685-0.45085 0.51118v0.24447l-0.20955 0.0159v0.19685h0.20955v1.3303h0.26035v-1.3303h0.32702v-0.21273h-0.32702v-0.24447c0-0.19685 0.0699-0.29845 0.2159-0.29845 0.0572 0 0.11747 0.0127 0.17462 0.0381z"/>
    <path d="m252.19 142.9c0.14288 0.11113 0.28575 0.1778 0.42863 0.1778 0.35242 0 0.66675-0.30797 0.66675-0.83185 0-0.47942-0.21273-0.7874-0.6096-0.7874-0.18098 0-0.35243 0.0984-0.49213 0.2159h-0.01l-0.0222-0.1778h-0.2159v2.1939h0.26035v-0.5207zm6e-3 -0.2032v-0.80962c0.1524-0.13653 0.28258-0.20955 0.41275-0.20955 0.2921 0 0.4064 0.2286 0.4064 0.56832 0 0.381-0.18732 0.61278-0.44132 0.61278-0.1016 0-0.23813-0.0445-0.37783-0.16193z"/>
    <path d="m253.53 142.86c0.14605 0.12065 0.3556 0.21272 0.57468 0.21272 0.36512 0 0.56515-0.20955 0.56515-0.46037 0-0.2921-0.24765-0.38418-0.4699-0.46673-0.17463-0.0667-0.3429-0.12382-0.3429-0.2667 0-0.11747 0.0889-0.22225 0.28257-0.22225 0.13653 0 0.24765 0.0571 0.35243 0.13653l0.12382-0.1651c-0.11747-0.0953-0.28575-0.17463-0.47942-0.17463-0.33338 0-0.53023 0.1905-0.53023 0.43815 0 0.26035 0.2413 0.36513 0.46038 0.4445 0.16827 0.0635 0.35242 0.13335 0.35242 0.2921 0 0.13335-0.1016 0.2413-0.3048 0.2413-0.18415 0-0.32067-0.0762-0.45402-0.18415z"/>
   </g>
   <g stroke-width=".42744px" aria-label="60 fps">
    <path d="m247.81 145.54c-0.25718 0-0.41275-0.21272-0.4445-0.60642 0.13652-0.1905 0.29527-0.2667 0.42227-0.2667 0.25083 0 0.37465 0.1651 0.37465 0.42862 0 0.2667-0.1524 0.4445-0.35242 0.4445zm0.56197-1.6796c-0.1143-0.12383-0.26987-0.2159-0.48895-0.2159-0.40322 0-0.77152 0.31432-0.77152 1.1271 0 0.65088 0.30162 0.97473 0.6985 0.97473 0.32702 0 0.60007-0.26353 0.60007-0.65088 0-0.41592-0.2286-0.62547-0.57785-0.62547-0.1651 0-0.34607 0.0984-0.47307 0.254 0.0127-0.64135 0.25082-0.86043 0.5334-0.86043 0.127 0 0.25082 0.0603 0.33337 0.15875z"/>
    <path d="m249.32 145.74c0.40323 0 0.6477-0.37783 0.6477-1.0573s-0.24447-1.0446-0.6477-1.0446c-0.4064 0-0.65087 0.36512-0.65087 1.0446s0.24447 1.0573 0.65087 1.0573zm0-0.20955c-0.23812 0-0.39687-0.254-0.39687-0.84773 0-0.59372 0.15875-0.83502 0.39687-0.83502 0.23495 0 0.3937 0.2413 0.3937 0.83502 0 0.59373-0.15875 0.84773-0.3937 0.84773z"/>
    <path d="m251.76 143.46c-0.0699-0.0286-0.16192-0.0508-0.25717-0.0508-0.30798 0-0.45085 0.19685-0.45085 0.51117v0.24448l-0.20955 0.0159v0.19685h0.20955v1.3303h0.26035v-1.3303h0.32702v-0.21275h-0.32702v-0.24448c0-0.19685 0.0699-0.29845 0.2159-0.29845 0.0572 0 0.11747 0.0127 0.17462 0.0381z"/>
    <path d="m252.19 145.57c0.14288 0.11112 0.28575 0.1778 0.42863 0.1778 0.35242 0 0.66675-0.30798 0.66675-0.83185 0-0.47943-0.21273-0.7874-0.6096-0.7874-0.18098 0-0.35243 0.0984-0.49213 0.2159h-0.01l-0.0222-0.1778h-0.2159v2.1939h0.26035v-0.5207zm6e-3 -0.2032v-0.80963c0.1524-0.13652 0.28258-0.20955 0.41275-0.20955 0.2921 0 0.4064 0.2286 0.4064 0.56833 0 0.381-0.18732 0.61277-0.44132 0.61277-0.1016 0-0.23813-0.0444-0.37783-0.16192z"/>
    <path d="m253.53 145.53c0.14605 0.12065 0.3556 0.21273 0.57468 0.21273 0.36512 0 0.56515-0.20955 0.56515-0.46038 0-0.2921-0.24765-0.38417-0.4699-0.46672-0.17463-0.0667-0.3429-0.12383-0.3429-0.2667 0-0.11748 0.0889-0.22225 0.28257-0.22225 0.13653 0 0.24765 0.0572 0.35243 0.13652l0.12382-0.1651c-0.11747-0.0952-0.28575-0.17462-0.47942-0.17462-0.33338 0-0.53023 0.1905-0.53023 0.43815 0 0.26035 0.2413 0.36512 0.46038 0.4445 0.16827 0.0635 0.35242 0.13335 0.35242 0.2921 0 0.13335-0.1016 0.2413-0.3048 0.2413-0.18415 0-0.32067-0.0762-0.45402-0.18415z"/>
   </g>
  </g>
  <g fill="none" stroke-width=".26458">
   <path d="m244.3 139.75h-9.377" stroke="#e9e56f"/>
   <path d="m244.3 142.41h-9.377" stroke="#6f8ce9"/>
   <path d="m244.3 145.08h-9.377" stroke="#ff867f"/>
  </g>
  <g transform="matrix(0 -.0035871 .0036486 0 212.87 125.28)" fill="#e8eaec" stroke-width="201.8">
   <g fill="#e8eaec" stroke-width="201.8">
    <path d="m486.41 221.41-364.07-208.5c-52.938-30.318-95.852-5.44-95.852 55.563v415.65c0 61.004 42.914 85.882 95.852 55.563l364.07-208.49c52.938-30.317 52.938-79.473 0-109.79z" fill="#e8eaec" stroke-width="201.8"/>
   </g>
  </g>
  <g transform="matrix(-.0017936 -.0031065 .0031597 -.0018243 280.41 151.62)" fill="#e8eaec" stroke-width="201.8">
   <g fill="#e8eaec" stroke-width="201.8">
    <path d="m486.41 221.41-364.07-208.5c-52.938-30.318-95.852-5.44-95.852 55.563v415.65c0 61.004 42.914 85.882 95.852 55.563l364.07-208.49c52.938-30.317 52.938-79.473 0-109.79z" fill="#e8eaec" stroke-width="201.8"/>
   </g>
  </g>
 </g>
</svg>
