<?xml version="1.0" encoding="UTF-8"?>
<svg width="235.13" height="179.44" version="1.1" viewBox="0 0 62.212 47.478" xmlns="http://www.w3.org/2000/svg" xmlns:cc="http://creativecommons.org/ns#" xmlns:dc="http://purl.org/dc/elements/1.1/" xmlns:rdf="http://www.w3.org/1999/02/22-rdf-syntax-ns#">
 <metadata>
  <rdf:RDF>
   <cc:Work rdf:about="">
    <dc:format>image/svg+xml</dc:format>
    <dc:type rdf:resource="http://purl.org/dc/dcmitype/StillImage"/>
    <dc:title/>
   </cc:Work>
  </rdf:RDF>
 </metadata>
 <g transform="translate(-167.44 -109.92)">
  <g fill="none">
   <g stroke-width=".26458">
    <path d="m175.01 153.5h52.973" stroke="#a6aeb8"/>
    <path d="m177.6 156.07v-43.372" stroke="#a6aeb8"/>
    <path d="m167.56 128.75c4.4483 8.8061 9.418 12.831 18.711 11.012 5.676-1.6201 10.633-6.1958 14.033-10.232 3.0993-3.7194 5.5035-8.0129 7.6013-12.376 1.122-2.3336 2.0882-4.7414 2.9486-7.1891" stroke="#e9e56f"/>
    <path d="m175.94 145.8 37.325-19.393" stroke="#e8eaec"/>
   </g>
   <path d="m219.46 138.64-15.739-5.9932" stroke="#a6aeb8" stroke-width=".13229"/>
  </g>
  <g fill="#e8eaec">
   <g stroke-width=".42744px" aria-label="r(t)">
    <path d="m169.91 111.89v1.451h0.2286v-0.70485c0-0.0889 3e-3 -0.18415 0.1016-0.33972 0.13335-0.20955 0.3048-0.24448 0.40958-0.24448 0.12065 0 0.19685 0.0572 0.23812 0.10795 0.0191 0.0254 0.0286 0.0508 0.054 0.073l0.10795-0.21908c-0.0921-0.0952-0.22543-0.15875-0.38735-0.15875-0.21273 0-0.42863 0.10795-0.52388 0.31433l0.01-0.2794z"/>
    <path d="m172.42 111.23c-0.48895 0.2159-0.80327 0.71437-0.80327 1.2954 0 0.57785 0.3048 1.1049 0.80645 1.3684l0.10477-0.16827c-0.43497-0.25083-0.68897-0.71755-0.68897-1.2097 0-0.45402 0.21907-0.86042 0.59055-1.0763 6e-3 -6e-3 0.0159-0.0127 0.0286-0.0127 0.01 0 0.019 6e-3 0.0318 6e-3 6e-3 0 0.0159-3e-3 0.0286-6e-3z"/>
    <path d="m173.36 111.5-0.0286 0.39053h-0.34607l-3e-3 0.18732h0.33973c-0.019 0.24765-0.0286 0.4953-0.0286 0.73978 0 0.13017 0 0.27622 0.0857 0.39687 0.0699 0.0952 0.18097 0.1524 0.3302 0.1524 0.17145 0 0.33972-0.073 0.46355-0.16192l-0.0699-0.18098c-0.12383 0.0921-0.23813 0.13335-0.32703 0.13335-0.10795 0-0.21907-0.0603-0.24447-0.23495 0-0.0127-0.01-0.0667-0.01-0.2794 0-0.18732 0.01-0.37782 0.0286-0.56515h0.47625v-0.1905h-0.47308s0.0222-0.26035 0.0381-0.3429c3e-3 -0.0318 0.0286-0.0508 0.0159-0.0857z"/>
    <path d="m174.6 111.43c0.4191 0.22543 0.6858 0.65723 0.6858 1.1303 0 0.47625-0.27305 0.92075-0.70167 1.1462l0.0603 0.19367c0.52705-0.25082 0.86678-0.77787 0.86678-1.3494 0-0.56515-0.33338-1.0795-0.8509-1.3176z"/>
   </g>
   <g aria-label="t">
    <path d="m227.41 155.53-0.0286 0.39053h-0.34607l-3e-3 0.18732h0.33973c-0.019 0.24765-0.0286 0.4953-0.0286 0.73978 0 0.13017 0 0.27622 0.0857 0.39687 0.0698 0.0952 0.18097 0.1524 0.3302 0.1524 0.17145 0 0.33972-0.073 0.46355-0.16192l-0.0699-0.18098c-0.12383 0.0921-0.23813 0.13335-0.32703 0.13335-0.10795 0-0.21907-0.0603-0.24447-0.23495 0-0.0127-0.01-0.0667-0.01-0.2794 0-0.18732 0.01-0.37782 0.0286-0.56515h0.47625v-0.1905h-0.47269s0.0222-0.26035 0.0381-0.3429c3e-3 -0.0317 0.0286-0.0508 0.0159-0.0857z" fill="#e8eaec" stroke-width=".42744px"/>
   </g>
   <g stroke-width=".42744px" aria-label="t2">
    <path d="m209.88 155.53-0.0286 0.39053h-0.34607l-3e-3 0.18732h0.33973c-0.0191 0.24765-0.0286 0.4953-0.0286 0.73978 0 0.13017 0 0.27622 0.0857 0.39687 0.0699 0.0952 0.18097 0.1524 0.3302 0.1524 0.17145 0 0.33972-0.073 0.46355-0.16192l-0.0699-0.18098c-0.12383 0.0921-0.23813 0.13335-0.32703 0.13335-0.10795 0-0.21907-0.0603-0.24447-0.23495 0-0.0127-0.01-0.0667-0.01-0.2794 0-0.18732 0.01-0.37782 0.0286-0.56515h0.47625v-0.1905h-0.47308s0.0222-0.26035 0.0381-0.3429c3e-3 -0.0317 0.0286-0.0508 0.0159-0.0857z"/>
    <path d="m211.12 155.7 0.16193 0.13017c0.0191-0.0286 0.01-0.0476 0.0286-0.073 0.0476-0.073 0.1651-0.18098 0.33655-0.18098 0.21273 0 0.381 0.16193 0.381 0.37465 0 0.2413-0.2032 0.41593-0.34607 0.5461-0.22543 0.2032-0.40958 0.4064-0.57468 0.73343v0.1397h1.162v-0.21908c-0.0222-0.01-0.0381 6e-3 -0.0445 0.0127-0.0127 0.0127-0.019 0.0127-0.0317 0.0127h-0.83185c0.1651-0.28575 0.39688-0.4826 0.53975-0.61595 0.14288-0.13652 0.34608-0.33972 0.34608-0.62547 0-0.30798-0.25083-0.55563-0.5715-0.55563-0.22543 0-0.43815 0.12065-0.55563 0.32068z"/>
   </g>
   <g stroke-width=".42744px" aria-label="t1">
    <path d="m188.94 155.53-0.0286 0.39053h-0.34608l-3e-3 0.18732h0.33972c-0.019 0.24765-0.0286 0.4953-0.0286 0.73978 0 0.13017 0 0.27622 0.0857 0.39687 0.0699 0.0952 0.18098 0.1524 0.3302 0.1524 0.17145 0 0.33973-0.073 0.46355-0.16192l-0.0699-0.18098c-0.12382 0.0921-0.23812 0.13335-0.32702 0.13335-0.10795 0-0.21908-0.0603-0.24448-0.23495 0-0.0127-0.01-0.0667-0.01-0.2794 0-0.18732 0.01-0.37782 0.0286-0.56515h0.47625v-0.1905h-0.47307s0.0222-0.26035 0.0381-0.3429c3e-3 -0.0317 0.0286-0.0508 0.0159-0.0857z"/>
    <path d="m190.87 155.39h-0.14605l-0.508 0.26353 0.0508 0.12382 0.3937-0.11112v1.5304h-0.3683v0.17462h0.93345v-0.17462h-0.3556z"/>
   </g>
  </g>
  <g>
   <path d="m189.18 149.28h18.888" fill="none" stroke="#a6aeb8" stroke-width=".13229"/>
   <g fill="#e8eaec" stroke-width=".42744px" aria-label="∆t">
    <path d="m196.02 148.39 0.80305-2.2061h0.32401l0.80616 2.2061zm0.96428-1.8898-0.57051 1.6232h1.1426z"/>
    <path d="m198.54 146.55-0.0286 0.39052h-0.34608l-3e-3 0.18733h0.33972c-0.019 0.24765-0.0286 0.4953-0.0286 0.73977 0 0.13018 0 0.27623 0.0857 0.39688 0.0699 0.0952 0.18098 0.1524 0.3302 0.1524 0.17145 0 0.33973-0.073 0.46355-0.16193l-0.0699-0.18097c-0.12382 0.0921-0.23812 0.13335-0.32702 0.13335-0.10795 0-0.21908-0.0603-0.24448-0.23495 0-0.0127-0.01-0.0667-0.01-0.2794 0-0.18733 0.01-0.37783 0.0286-0.56515h0.47625v-0.1905h-0.47307s0.0222-0.26035 0.0381-0.3429c3e-3 -0.0317 0.0286-0.0508 0.0159-0.0857z"/>
   </g>
   <path d="m182.3 138v-8.386" fill="none" stroke="#a6aeb8" stroke-width=".13229"/>
  </g>
  <g fill="#e8eaec" stroke-width=".42744px">
   <g aria-label="∆r">
    <path d="m182.77 134.62 0.80305-2.2061h0.32401l0.80615 2.2061zm0.96428-1.8898-0.57051 1.6232h1.1426z"/>
    <path d="m185.01 133.18v1.451h0.2286v-0.70485c0-0.0889 3e-3 -0.18415 0.1016-0.33972 0.13335-0.20955 0.3048-0.24448 0.40957-0.24448 0.12065 0 0.19685 0.0571 0.23813 0.10795 0.019 0.0254 0.0286 0.0508 0.054 0.073l0.10795-0.21908c-0.0921-0.0952-0.22542-0.15875-0.38735-0.15875-0.21272 0-0.42862 0.10795-0.52387 0.31433l0.01-0.2794z"/>
   </g>
   <g aria-label="r(t2)">
    <path d="m210.88 114.03v1.451h0.2286v-0.70485c0-0.0889 3e-3 -0.18415 0.1016-0.33972 0.13335-0.20955 0.3048-0.24448 0.40958-0.24448 0.12065 0 0.19685 0.0571 0.23812 0.10795 0.019 0.0254 0.0286 0.0508 0.054 0.073l0.10795-0.21908c-0.0921-0.0952-0.22543-0.15875-0.38735-0.15875-0.21273 0-0.42863 0.10795-0.52388 0.31433l0.01-0.2794z"/>
    <path d="m213.39 113.36c-0.48895 0.2159-0.80327 0.71437-0.80327 1.2954 0 0.57785 0.3048 1.1049 0.80645 1.3684l0.10477-0.16827c-0.43497-0.25083-0.68897-0.71755-0.68897-1.2097 0-0.45402 0.21907-0.86042 0.59055-1.0763 6e-3 -6e-3 0.0159-0.0127 0.0286-0.0127 0.01 0 0.019 6e-3 0.0318 6e-3 6e-3 0 0.0159-3e-3 0.0286-6e-3z"/>
    <path d="m214.34 113.64-0.0286 0.39053h-0.34607l-3e-3 0.18732h0.33973c-0.019 0.24765-0.0286 0.4953-0.0286 0.73978 0 0.13017 0 0.27622 0.0857 0.39687 0.0699 0.0953 0.18097 0.1524 0.3302 0.1524 0.17145 0 0.33972-0.073 0.46355-0.16192l-0.0699-0.18098c-0.12383 0.0921-0.23813 0.13335-0.32703 0.13335-0.10795 0-0.21907-0.0603-0.24447-0.23495 0-0.0127-0.01-0.0667-0.01-0.2794 0-0.18732 0.01-0.37782 0.0286-0.56515h0.47625v-0.1905h-0.47308s0.0222-0.26035 0.0381-0.3429c3e-3 -0.0318 0.0286-0.0508 0.0159-0.0857z"/>
    <path d="m215.57 113.81 0.16193 0.13017c0.019-0.0286 0.01-0.0476 0.0286-0.073 0.0476-0.073 0.1651-0.18098 0.33655-0.18098 0.21273 0 0.381 0.16193 0.381 0.37465 0 0.2413-0.2032 0.41593-0.34607 0.5461-0.22543 0.2032-0.40958 0.4064-0.57468 0.73343v0.1397h1.162v-0.21908c-0.0222-0.01-0.0381 6e-3 -0.0444 0.0127-0.0127 0.0127-0.0191 0.0127-0.0318 0.0127h-0.83185c0.1651-0.28575 0.39688-0.4826 0.53975-0.61595 0.14288-0.13652 0.34608-0.33972 0.34608-0.62547 0-0.30798-0.25083-0.55563-0.5715-0.55563-0.22543 0-0.43815 0.12065-0.55563 0.32068z"/>
    <path d="m217.16 113.56c0.4191 0.22543 0.6858 0.65723 0.6858 1.1303 0 0.47625-0.27305 0.92075-0.70167 1.1462l0.0603 0.19367c0.52705-0.25082 0.86678-0.77787 0.86678-1.3494 0-0.56515-0.33338-1.0795-0.8509-1.3176z"/>
   </g>
   <g aria-label="approx r(t2)">
    <path d="m210.85 129.59 0.11112 0.14605c0.12065-0.12383 0.28258-0.16193 0.4191-0.16193 0.17145 0 0.25718 0.073 0.29845 0.1397 0.0476 0.0794 0.0445 0.17463 0.0445 0.25083v0.0508h-0.0445c-0.2159 0-0.4445 0-0.62865 0.0667-0.2286 0.0825-0.3302 0.254-0.3302 0.41275 0 0.21273 0.18415 0.41275 0.48578 0.41275 0.1778 0 0.36195-0.0667 0.5207-0.19685v0.15875h0.2159v-0.89852c0-0.11748-3e-3 -0.2286-0.0699-0.3429-0.0952-0.15558-0.2794-0.23813-0.50483-0.23813-0.19367 0-0.381 0.0603-0.51752 0.20003zm0.88265 0.60007v0.0984c0 0.073 0 0.16827-0.0984 0.27305-0.054 0.054-0.1905 0.17145-0.381 0.17145-0.19367 0-0.3048-0.12383-0.3048-0.25083 0-0.10795 0.073-0.22542 0.254-0.26987 0.13335-0.0317 0.32703-0.0222 0.47943-0.0222z"/>
    <path d="m212.34 129.42 3e-3 1.978h0.23177v-0.72073c0.0984 0.14288 0.26035 0.23178 0.43498 0.23178 0.29845 0 0.6096-0.25083 0.6096-0.78105 0-0.51118-0.30163-0.73978-0.58738-0.73978-0.18732 0-0.36195 0.0952-0.46037 0.254v-0.22225zm0.60643 0.16193c0.127 0 0.43497 0.0667 0.43497 0.59372 0 0.4572-0.29845 0.53023-0.43497 0.53023-0.13653 0-0.27623-0.0699-0.33338-0.20003-0.0413-0.0984-0.0413-0.21907-0.0413-0.42862 0-0.12065 6e-3 -0.20955 0.0381-0.28575 0.0572-0.13018 0.1905-0.20955 0.33655-0.20955z"/>
    <path d="m213.93 129.42 3e-3 1.978h0.23177v-0.72073c0.0984 0.14288 0.26035 0.23178 0.43498 0.23178 0.29845 0 0.6096-0.25083 0.6096-0.78105 0-0.51118-0.30163-0.73978-0.58738-0.73978-0.18732 0-0.36195 0.0952-0.46037 0.254v-0.22225zm0.60643 0.16193c0.127 0 0.43497 0.0667 0.43497 0.59372 0 0.4572-0.29845 0.53023-0.43497 0.53023-0.13653 0-0.27623-0.0699-0.33338-0.20003-0.0413-0.0984-0.0413-0.21907-0.0413-0.42862 0-0.12065 6e-3 -0.20955 0.0381-0.28575 0.0571-0.13018 0.1905-0.20955 0.33655-0.20955z"/>
    <path d="m215.64 129.42v1.451h0.2286v-0.70485c0-0.0889 3e-3 -0.18415 0.1016-0.33973 0.13335-0.20955 0.3048-0.24447 0.40958-0.24447 0.12065 0 0.19685 0.0572 0.23812 0.10795 0.019 0.0254 0.0286 0.0508 0.054 0.073l0.10795-0.21907c-0.0921-0.0953-0.22543-0.15875-0.38735-0.15875-0.21273 0-0.42863 0.10795-0.52388 0.31432l0.01-0.2794z"/>
    <path d="m218.38 130.15c0-0.50165-0.3175-0.762-0.6477-0.762-0.3683 0-0.6858 0.3175-0.6858 0.76835 0 0.44133 0.31432 0.75248 0.67945 0.75248 0.3429 0 0.65405-0.27623 0.65405-0.75883zm-0.66358-0.56832c0.20955 0 0.4318 0.18097 0.4318 0.57785 0 0.36512-0.20955 0.54927-0.4191 0.54927-0.23177 0-0.44132-0.2159-0.44132-0.57467 0-0.3556 0.20637-0.55245 0.42862-0.55245z"/>
    <path d="m219.65 129.42-0.36195 0.53657-0.381-0.53657h-0.24765l0.49847 0.71437-0.508 0.7366h0.25718l0.37782-0.56197 0.40005 0.56197h0.26035l-0.5334-0.74295 0.4699-0.70802z"/>
    <path d="m221.99 129.42v1.451h0.2286v-0.70485c0-0.0889 3e-3 -0.18415 0.1016-0.33973 0.13335-0.20955 0.3048-0.24447 0.40958-0.24447 0.12065 0 0.19685 0.0572 0.23812 0.10795 0.019 0.0254 0.0286 0.0508 0.054 0.073l0.10795-0.21907c-0.0921-0.0953-0.22543-0.15875-0.38735-0.15875-0.21273 0-0.42863 0.10795-0.52388 0.31432l0.01-0.2794z"/>
    <path d="m224.51 128.75c-0.48895 0.2159-0.80327 0.71438-0.80327 1.2954 0 0.57785 0.3048 1.1049 0.80645 1.3684l0.10477-0.16828c-0.43497-0.25082-0.68897-0.71755-0.68897-1.2097 0-0.45403 0.21907-0.86043 0.59055-1.0763 6e-3 -6e-3 0.0159-0.0127 0.0286-0.0127 0.01 0 0.019 6e-3 0.0317 6e-3 6e-3 0 0.0159-3e-3 0.0286-6e-3z"/>
    <path d="m225.45 129.03-0.0286 0.39052h-0.34607l-3e-3 0.18733h0.33973c-0.0191 0.24765-0.0286 0.4953-0.0286 0.73977 0 0.13018 0 0.27623 0.0857 0.39688 0.0699 0.0953 0.18097 0.1524 0.3302 0.1524 0.17145 0 0.33972-0.073 0.46355-0.16193l-0.0699-0.18097c-0.12383 0.0921-0.23813 0.13335-0.32703 0.13335-0.10795 0-0.21907-0.0603-0.24447-0.23495 0-0.0127-0.01-0.0667-0.01-0.2794 0-0.18733 0.01-0.37783 0.0286-0.56515h0.47625v-0.1905h-0.47308s0.0222-0.26035 0.0381-0.3429c3e-3 -0.0317 0.0286-0.0508 0.0159-0.0857z"/>
    <path d="m226.69 129.2 0.16193 0.13018c0.0191-0.0286 0.01-0.0476 0.0286-0.073 0.0476-0.073 0.1651-0.18097 0.33655-0.18097 0.21273 0 0.381 0.16192 0.381 0.37465 0 0.2413-0.2032 0.41592-0.34607 0.5461-0.22543 0.2032-0.40958 0.4064-0.57468 0.73342v0.1397h1.162v-0.21907c-0.0222-0.01-0.0381 6e-3 -0.0445 0.0127-0.0127 0.0127-0.019 0.0127-0.0317 0.0127h-0.83185c0.1651-0.28575 0.39688-0.4826 0.53975-0.61595 0.14288-0.13653 0.34608-0.33973 0.34608-0.62548 0-0.30797-0.25083-0.55562-0.5715-0.55562-0.22543 0-0.43815 0.12065-0.55563 0.32067z"/>
    <path d="m228.27 128.95c0.4191 0.22542 0.6858 0.65722 0.6858 1.1303 0 0.47625-0.27305 0.92075-0.70167 1.1462l0.0603 0.19368c0.52705-0.25083 0.86678-0.77788 0.86678-1.3494 0-0.56515-0.33338-1.0795-0.8509-1.3176z"/>
   </g>
   <g aria-label="∆r/∆t=v(t1)">
    <path d="m211.97 141.97 0.80305-2.2061h0.32401l0.80615 2.2061zm0.96428-1.8898-0.57051 1.6232h1.1426z"/>
    <path d="m214.21 140.52v1.451h0.2286v-0.70485c0-0.0889 3e-3 -0.18415 0.1016-0.33973 0.13335-0.20955 0.3048-0.24447 0.40958-0.24447 0.12065 0 0.19685 0.0572 0.23812 0.10795 0.019 0.0254 0.0286 0.0508 0.054 0.073l0.10795-0.21907c-0.0921-0.0952-0.22543-0.15875-0.38735-0.15875-0.21273 0-0.42863 0.10795-0.52388 0.31432l0.01-0.2794z"/>
    <path d="m215.68 142.01 0.18733 0.0952 0.99695-2.1495-0.18733-0.0952z"/>
    <path d="m217.06 141.97 0.80305-2.2061h0.32401l0.80615 2.2061zm0.96428-1.8898-0.57051 1.6232h1.1426z"/>
    <path d="m219.57 140.13-0.0286 0.39052h-0.34607l-3e-3 0.18733h0.33973c-0.019 0.24765-0.0286 0.4953-0.0286 0.73977 0 0.13018 0 0.27623 0.0857 0.39688 0.0699 0.0952 0.18097 0.1524 0.3302 0.1524 0.17145 0 0.33972-0.073 0.46355-0.16193l-0.0699-0.18097c-0.12383 0.0921-0.23813 0.13335-0.32703 0.13335-0.10795 0-0.21907-0.0603-0.24447-0.23495 0-0.0127-0.01-0.0667-0.01-0.2794 0-0.18733 0.01-0.37783 0.0286-0.56515h0.47625v-0.1905h-0.47308s0.0222-0.26035 0.0381-0.3429c3e-3 -0.0317 0.0286-0.0508 0.0159-0.0857z"/>
    <path d="m220.7 140.58v0.19368h1.3049v-0.19368zm0 0.65723v0.19367h1.3049v-0.19367z"/>
    <path d="m222.28 140.52 0.57468 1.4637h0.18097l0.35243-0.82867c0.0857-0.2032 0.16827-0.41275 0.2159-0.635h-0.20638c-0.0381 0.21272-0.1143 0.41275-0.19685 0.60325l-0.23177 0.53975-0.4191-1.0604c-3e-3 -6e-3 -6e-3 -0.0127-6e-3 -0.0191 0-0.019 0.0159-0.0381 0.01-0.0635z"/>
    <path d="m224.98 139.86c-0.48895 0.2159-0.80327 0.71438-0.80327 1.2954 0 0.57785 0.3048 1.1049 0.80645 1.3684l0.10477-0.16828c-0.43497-0.25082-0.68897-0.71755-0.68897-1.2097 0-0.45403 0.21907-0.86043 0.59055-1.0763 6e-3 -6e-3 0.0159-0.0127 0.0286-0.0127 0.01 0 0.0191 6e-3 0.0318 6e-3 6e-3 0 0.0159-3e-3 0.0286-6e-3z"/>
    <path d="m225.92 140.13-0.0286 0.39052h-0.34607l-3e-3 0.18733h0.33973c-0.019 0.24765-0.0286 0.4953-0.0286 0.73977 0 0.13018 0 0.27623 0.0857 0.39688 0.0699 0.0952 0.18097 0.1524 0.3302 0.1524 0.17145 0 0.33972-0.073 0.46355-0.16193l-0.0699-0.18097c-0.12383 0.0921-0.23813 0.13335-0.32703 0.13335-0.10795 0-0.21907-0.0603-0.24447-0.23495 0-0.0127-0.01-0.0667-0.01-0.2794 0-0.18733 0.01-0.37783 0.0286-0.56515h0.47625v-0.1905h-0.47308s0.0222-0.26035 0.0381-0.3429c3e-3 -0.0317 0.0286-0.0508 0.0159-0.0857z"/>
    <path d="m227.86 139.99h-0.14605l-0.508 0.26352 0.0508 0.12383 0.3937-0.11113v1.5304h-0.3683v0.17463h0.93345v-0.17463h-0.3556z"/>
    <path d="m228.75 140.06c0.4191 0.22542 0.6858 0.65722 0.6858 1.1303 0 0.47625-0.27305 0.92075-0.70167 1.1462l0.0603 0.19368c0.52705-0.25083 0.86678-0.77788 0.86678-1.3494 0-0.56515-0.33338-1.0795-0.8509-1.3176z"/>
   </g>
   <g aria-label="r(t1)">
    <path d="m189.51 140.53v1.451h0.2286v-0.70485c0-0.0889 3e-3 -0.18415 0.1016-0.33973 0.13335-0.20955 0.3048-0.24447 0.40957-0.24447 0.12065 0 0.19685 0.0572 0.23813 0.10795 0.0191 0.0254 0.0286 0.0508 0.054 0.073l0.10795-0.21907c-0.0921-0.0952-0.22542-0.15875-0.38735-0.15875-0.21272 0-0.42862 0.10795-0.52387 0.31432l0.01-0.2794z"/>
    <path d="m192.02 139.87c-0.48895 0.2159-0.80328 0.71438-0.80328 1.2954 0 0.57785 0.3048 1.1049 0.80645 1.3684l0.10478-0.16828c-0.43498-0.25082-0.68898-0.71755-0.68898-1.2097 0-0.45403 0.21908-0.86043 0.59055-1.0763 6e-3 -6e-3 0.0159-0.0127 0.0286-0.0127 0.01 0 0.019 6e-3 0.0317 6e-3 6e-3 0 0.0159-3e-3 0.0286-6e-3z"/>
    <path d="m192.97 140.14-0.0286 0.39052h-0.34608l-3e-3 0.18733h0.33972c-0.019 0.24765-0.0286 0.4953-0.0286 0.73977 0 0.13018 0 0.27623 0.0857 0.39688 0.0698 0.0952 0.18098 0.1524 0.3302 0.1524 0.17145 0 0.33973-0.073 0.46355-0.16193l-0.0699-0.18097c-0.12382 0.0921-0.23812 0.13335-0.32702 0.13335-0.10795 0-0.21908-0.0603-0.24448-0.23495 0-0.0127-0.01-0.0667-0.01-0.2794 0-0.18733 0.01-0.37783 0.0286-0.56515h0.47625v-0.1905h-0.47266s0.0222-0.26035 0.0381-0.3429c3e-3 -0.0317 0.0286-0.0508 0.0159-0.0857z"/>
    <path d="m194.9 140h-0.14605l-0.508 0.26352 0.0508 0.12383 0.3937-0.11113v1.5304h-0.3683v0.17463h0.93345v-0.17463h-0.3556z"/>
    <path d="m195.79 140.07c0.4191 0.22542 0.6858 0.65722 0.6858 1.1303 0 0.47625-0.27305 0.92075-0.70168 1.1462l0.0603 0.19368c0.52705-0.25083 0.86677-0.77788 0.86677-1.3494 0-0.56515-0.33337-1.0795-0.8509-1.3176z"/>
   </g>
  </g>
  <path d="m188.12 156.05v-16.721h-12.038" fill="none" stroke="#6f8ce9" stroke-dasharray="0.132292, 0.396875" stroke-linecap="square" stroke-width=".13229"/>
  <circle cx="188.07" cy="139.35" r=".42744" fill="#e8eaec"/>
  <path d="m208.71 156.3v-40.356" fill="none" stroke="#6f8ce9" stroke-dasharray="0.132292, 0.396875" stroke-linecap="square" stroke-width=".13229"/>
  <circle cx="208.62" cy="115.94" r=".42744" fill="#e8eaec"/>
  <path d="m208.79 128.77h-32.756" fill="none" stroke="#6f8ce9" stroke-dasharray="0.132292, 0.396875" stroke-linecap="square" stroke-width=".13229"/>
  <g fill="#e8eaec">
   <circle cx="208.69" cy="128.73" r=".42744"/>
   <g stroke-width="201.8">
    <g transform="matrix(0 -.0035871 -.0036486 0 178.59 113.26)">
     <g fill="#e8eaec" stroke-width="201.8">
      <path d="m486.41 221.41-364.07-208.5c-52.938-30.318-95.852-5.44-95.852 55.563v415.65c0 61.004 42.914 85.882 95.852 55.563l364.07-208.49c52.938-30.317 52.938-79.473 0-109.79z" fill="#e8eaec" stroke-width="201.8"/>
     </g>
    </g>
    <g transform="matrix(.0035871 0 0 -.0036486 227.12 154.51)">
     <g fill="#e8eaec" stroke-width="201.8">
      <path d="m486.41 221.41-364.07-208.5c-52.938-30.318-95.852-5.44-95.852 55.563v415.65c0 61.004 42.914 85.882 95.852 55.563l364.07-208.49c52.938-30.317 52.938-79.473 0-109.79z" fill="#e8eaec" stroke-width="201.8"/>
     </g>
    </g>
    <g transform="matrix(0 .0026001 -.0026446 0 183.02 137.85)">
     <g fill="#e8eaec" stroke-width="201.8">
      <path d="m486.41 221.41-364.07-208.5c-52.938-30.318-95.852-5.44-95.852 55.563v415.65c0 61.004 42.914 85.882 95.852 55.563l364.07-208.49c52.938-30.317 52.938-79.473 0-109.79z" fill="#e8eaec" stroke-width="201.8"/>
     </g>
    </g>
    <g transform="matrix(0 -.0026001 -.0026446 0 183.02 130.3)">
     <g fill="#e8eaec" stroke-width="201.8">
      <path d="m486.41 221.41-364.07-208.5c-52.938-30.318-95.852-5.44-95.852 55.563v415.65c0 61.004 42.914 85.882 95.852 55.563l364.07-208.49c52.938-30.317 52.938-79.473 0-109.79z" fill="#e8eaec" stroke-width="201.8"/>
     </g>
    </g>
    <g transform="matrix(.0013001 .0022518 -.0022903 .0013223 189.38 148.42)">
     <g fill="#e8eaec" stroke-width="201.8">
      <path d="m486.41 221.41-364.07-208.5c-52.938-30.318-95.852-5.44-95.852 55.563v415.65c0 61.004 42.914 85.882 95.852 55.563l364.07-208.49c52.938-30.317 52.938-79.473 0-109.79z" fill="#e8eaec" stroke-width="201.8"/>
     </g>
    </g>
    <g transform="matrix(-.0013001 .0022518 .0022903 .0013223 207.42 148.42)">
     <g fill="#e8eaec" stroke-width="201.8">
      <path d="m486.41 221.41-364.07-208.5c-52.938-30.318-95.852-5.44-95.852 55.563v415.65c0 61.004 42.914 85.882 95.852 55.563l364.07-208.49c52.938-30.317 52.938-79.473 0-109.79z" fill="#e8eaec" stroke-width="201.8"/>
     </g>
    </g>
    <g transform="matrix(.0020635 -.001582 -.0016091 -.0020988 204.05 133.69)">
     <g fill="#e8eaec" stroke-width="201.8">
      <path d="m486.41 221.41-364.07-208.5c-52.938-30.318-95.852-5.44-95.852 55.563v415.65c0 61.004 42.914 85.882 95.852 55.563l364.07-208.49c52.938-30.317 52.938-79.473 0-109.79z" fill="#e8eaec" stroke-width="201.8"/>
     </g>
    </g>
   </g>
  </g>
 </g>
</svg>
