<?xml version="1.0" encoding="UTF-8" standalone="no"?>
<svg
   xmlns:dc="http://purl.org/dc/elements/1.1/"
   xmlns:cc="http://creativecommons.org/ns#"
   xmlns:rdf="http://www.w3.org/1999/02/22-rdf-syntax-ns#"
   xmlns:svg="http://www.w3.org/2000/svg"
   xmlns="http://www.w3.org/2000/svg"
   xmlns:sodipodi="http://sodipodi.sourceforge.net/DTD/sodipodi-0.dtd"
   xmlns:inkscape="http://www.inkscape.org/namespaces/inkscape"
   width="213.02486mm"
   height="109.47454mm"
   version="1.1"
   viewBox="0 0 213.02485 109.47454"
   id="svg384"
   sodipodi:docname="lifecycle_objects.svg"
   inkscape:version="0.92.3 (2405546, 2018-03-11)">
  <metadata
     id="metadata390">
    <rdf:RDF>
      <cc:Work
         rdf:about="">
        <dc:format>image/svg+xml</dc:format>
        <dc:type
           rdf:resource="http://purl.org/dc/dcmitype/StillImage" />
      </cc:Work>
    </rdf:RDF>
  </metadata>
  <defs
     id="defs388" />
  <sodipodi:namedview
     pagecolor="#ffffff"
     bordercolor="#666666"
     borderopacity="1"
     objecttolerance="10"
     gridtolerance="10"
     guidetolerance="10"
     inkscape:pageopacity="0"
     inkscape:pageshadow="2"
     inkscape:window-width="2560"
     inkscape:window-height="1377"
     id="namedview386"
     showgrid="false"
     inkscape:zoom="1.3953661"
     inkscape:cx="280.98533"
     inkscape:cy="95.973133"
     inkscape:window-x="-8"
     inkscape:window-y="-8"
     inkscape:window-maximized="1"
     inkscape:current-layer="svg384" />
  <g
     transform="matrix(1.2,0,0,1.2,-83.304612,-55.001652)"
     id="g382">
    <g
       id="g30"
       style="stroke-width:0.26458001;stroke-linecap:round">
      <path
         d="m 72.364,85.869 -2.8112,2.3812 v 3.9688 l 2.8112,2.3812 H 91.877 L 94.6882,92.219 V 88.2502 L 91.877,85.869 Z"
         id="path2"
         inkscape:connector-curvature="0"
         style="fill:#1d232d;stroke:#30d2d5" />
      <g
         aria-label="New"
         id="g10"
         style="fill:#e8eaec">
        <path
           d="m 79.124,91.425 h 0.29263 v -1.2705 c 0,-0.25559 -0.02222,-0.51488 -0.03704,-0.75935 h 0.01482 l 0.263,0.50006 0.87789,1.5298 h 0.31856 v -2.4299 h -0.29263 v 1.2557 c 0,0.25559 0.02593,0.5297 0.04075,0.77417 h -0.01482 l -0.263,-0.50377 -0.88159,-1.5261 h -0.31856 z"
           id="path4"
           inkscape:connector-curvature="0" />
        <path
           d="m 81.353,90.529 c 0,0.58896 0.38153,0.94086 0.86307,0.94086 0.24448,0 0.43709,-0.0852 0.59267,-0.18521 l -0.10742,-0.20002 c -0.13335,0.0852 -0.27781,0.14076 -0.4482,0.14076 -0.34449,0 -0.57785,-0.24448 -0.60008,-0.63341 h 1.215 c 0.0074,-0.04445 0.01111,-0.10372 0.01111,-0.16669 0,-0.51488 -0.25929,-0.84455 -0.71861,-0.84455 -0.41116,0 -0.80751,0.3593 -0.80751,0.94827 z m 0.29633,-0.13705 c 0.03704,-0.36301 0.2667,-0.57044 0.51858,-0.57044 0.28152,0 0.4445,0.20373 0.4445,0.57044 z"
           id="path6"
           inkscape:connector-curvature="0" />
        <path
           d="m 83.631,91.425 h 0.3556 l 0.25188,-0.96308 c 0.04815,-0.17039 0.0852,-0.34078 0.12594,-0.52229 h 0.01482 c 0.04445,0.1815 0.07779,0.34819 0.12224,0.51858 l 0.25929,0.96679 h 0.37042 l 0.48154,-1.8002 h -0.28892 l -0.263,1.0409 c -0.03704,0.17039 -0.07038,0.33338 -0.11112,0.50006 H 84.93487 C 84.89412,90.99907 84.85338,90.83609 84.80893,90.6657 l -0.28152,-1.0409 h -0.29633 l -0.27781,1.0409 c -0.04445,0.16669 -0.08149,0.33338 -0.12224,0.50006 H 83.81621 C 83.78287,90.99907 83.74954,90.83609 83.70879,90.6657 l -0.2667,-1.0409 h -0.31115 z"
           id="path8"
           inkscape:connector-curvature="0" />
      </g>
      <g
         aria-label="detach()"
         id="g28"
         style="fill:#e8eaec">
        <path
           d="m 235.85,108.44 c -0.0699,-0.14923 -0.22543,-0.24765 -0.42545,-0.24765 -0.27623,0 -0.61278,0.19685 -0.61278,0.7493 0,0.53657 0.29845,0.77152 0.57785,0.77152 0.18415,0 0.3556,-0.10477 0.44768,-0.2667 v 0.127 c 0,0.0349 0.003,0.0699 0.0127,0.10478 h 0.2286 c -0.0127,-0.0413 -0.0127,-0.0889 -0.0127,-0.13335 l -0.003,-1.886 c 0,-0.0191 0,-0.0254 0.0127,-0.0444 0.006,-0.01 0.019,-0.0254 0.0159,-0.0476 h -0.2413 z m -0.41593,-0.0603 c 0.127,0 0.31433,0.0667 0.37148,0.28258 0.019,0.0667 0.0254,0.14605 0.0254,0.30797 0,0.11113 -0.006,0.1905 -0.0317,0.2667 -0.054,0.17145 -0.20638,0.27305 -0.3556,0.27305 -0.1651,0 -0.40958,-0.127 -0.40958,-0.60325 0,-0.41592 0.23178,-0.52705 0.40005,-0.52705 z"
           id="path12"
           inkscape:connector-curvature="0" />
        <path
           d="m 237.08,108.2 c -0.34607,0 -0.66675,0.24765 -0.66675,0.7747 0,0.48578 0.30163,0.74295 0.69533,0.74295 0.20955,0 0.39687,-0.0762 0.5207,-0.22542 l -0.127,-0.12383 c -0.0921,0.10795 -0.23178,0.1651 -0.37465,0.1651 -0.19368,0 -0.47625,-0.10795 -0.49213,-0.54292 h 1.0287 c 0.01,-0.0984 0.006,-0.19368 -0.01,-0.27623 -0.0667,-0.39052 -0.33655,-0.51435 -0.57468,-0.51435 z m -0.43815,0.61595 c 0.0476,-0.3429 0.2667,-0.44132 0.42228,-0.44132 0.23495,0 0.40322,0.20637 0.37465,0.44132 z"
           id="path14"
           inkscape:connector-curvature="0" />
        <path
           d="m 238.45,107.84 -0.0286,0.39053 h -0.34608 l -0.003,0.18732 h 0.33972 c -0.019,0.24765 -0.0286,0.4953 -0.0286,0.73978 0,0.13017 0,0.27622 0.0857,0.39687 0.0699,0.0952 0.18098,0.1524 0.3302,0.1524 0.17145,0 0.33973,-0.073 0.46355,-0.16192 l -0.0699,-0.18098 c -0.12382,0.0921 -0.23812,0.13335 -0.32702,0.13335 -0.10795,0 -0.21908,-0.0603 -0.24448,-0.23495 0,-0.0127 -0.01,-0.0667 -0.01,-0.2794 0,-0.18732 0.01,-0.37782 0.0286,-0.56515 h 0.47625 v -0.1905 h -0.47307 c 0,0 0.0222,-0.26035 0.0381,-0.3429 0.003,-0.0318 0.0286,-0.0508 0.0159,-0.0857 z"
           id="path16"
           inkscape:connector-curvature="0" />
        <path
           d="m 239.72,108.4 0.11113,0.14605 c 0.12065,-0.12382 0.28257,-0.16192 0.4191,-0.16192 0.17145,0 0.25717,0.073 0.29845,0.1397 0.0476,0.0794 0.0444,0.17462 0.0444,0.25082 v 0.0508 h -0.0444 c -0.2159,0 -0.4445,0 -0.62865,0.0667 -0.2286,0.0825 -0.3302,0.254 -0.3302,0.41275 0,0.21272 0.18415,0.41275 0.48577,0.41275 0.1778,0 0.36195,-0.0667 0.5207,-0.19685 v 0.15875 h 0.2159 v -0.89853 c 0,-0.11747 -0.003,-0.2286 -0.0699,-0.3429 -0.0952,-0.15557 -0.2794,-0.23812 -0.50482,-0.23812 -0.19368,0 -0.381,0.0603 -0.51753,0.20002 z m 0.88265,0.60008 v 0.0984 c 0,0.073 0,0.16828 -0.0984,0.27305 -0.054,0.054 -0.1905,0.17145 -0.381,0.17145 -0.19368,0 -0.3048,-0.12382 -0.3048,-0.25082 0,-0.10795 0.073,-0.22543 0.254,-0.26988 0.13335,-0.0318 0.32702,-0.0222 0.47942,-0.0222 z"
           id="path18"
           inkscape:connector-curvature="0" />
        <path
           d="m 242.47,108.47 c -0.1143,-0.16827 -0.30797,-0.26987 -0.54292,-0.26987 -0.42545,0 -0.72708,0.32067 -0.72708,0.75565 0,0.43815 0.30163,0.762 0.71438,0.762 0.20002,0 0.39687,-0.0825 0.5334,-0.23178 l -0.13018,-0.1524 c -0.0984,0.11113 -0.2413,0.17463 -0.38417,0.17463 -0.28258,0 -0.49848,-0.23495 -0.49848,-0.57468 0,-0.3302 0.21273,-0.53657 0.47943,-0.53657 0.24765,0 0.36512,0.17145 0.37465,0.1905 0.0127,0.0222 -0.006,0.054 0.019,0.073 z"
           id="path20"
           inkscape:connector-curvature="0" />
        <path
           d="m 242.83,109.68 h 0.23495 v -0.83503 c 0,-0.0953 0.01,-0.16827 0.0699,-0.24765 0.0571,-0.073 0.19685,-0.2032 0.34925,-0.2032 0.073,0 0.14605,0.0318 0.19685,0.0921 0.0794,0.0953 0.0794,0.21907 0.0794,0.32067 v 0.87313 h 0.22543 v -0.87948 c 0,-0.11112 -0.003,-0.23177 -0.054,-0.34925 -0.073,-0.16192 -0.21907,-0.254 -0.38417,-0.254 -0.19685,0 -0.37783,0.127 -0.4826,0.28893 v -0.84138 c 0,-0.01 0,-0.019 0.01,-0.0286 0.01,-0.01 0.0222,-0.0191 0.0222,-0.0349 0,-0.003 0,-0.006 -0.003,-0.01 h -0.26352 z"
           id="path22"
           inkscape:connector-curvature="0" />
        <path
           d="m 245.44,107.57 c -0.48895,0.2159 -0.80328,0.71437 -0.80328,1.2954 0,0.57785 0.3048,1.1049 0.80645,1.3684 l 0.10478,-0.16827 c -0.43498,-0.25083 -0.68898,-0.71755 -0.68898,-1.2097 0,-0.45402 0.21908,-0.86042 0.59055,-1.0763 0.006,-0.006 0.0159,-0.0127 0.0286,-0.0127 0.01,0 0.0191,0.006 0.0318,0.006 0.006,0 0.0159,-0.003 0.0286,-0.006 z"
           id="path24"
           inkscape:connector-curvature="0" />
        <path
           d="m 246.03,107.77 c 0.4191,0.22543 0.6858,0.65723 0.6858,1.1303 0,0.47625 -0.27305,0.92075 -0.70167,1.1462 l 0.0603,0.19367 c 0.52705,-0.25082 0.86678,-0.77787 0.86678,-1.3494 0,-0.56515 -0.33338,-1.0795 -0.8509,-1.3176 z"
           id="path26"
           inkscape:connector-curvature="0" />
      </g>
    </g>
    <g
       id="g58"
       style="stroke-width:0.26458001">
      <g
         id="g54"
         style="stroke-linecap:round">
        <path
           d="M 220.89,93.415 208.709,109.29"
           id="path32"
           inkscape:connector-curvature="0"
           style="fill:none;stroke:#47d58a" />
        <path
           d="m 222.38,85.869 -2.8112,2.3812 v 3.9688 l 2.8112,2.3812 h 19.513 l 2.8112,-2.3812 V 88.2502 L 241.893,85.869 Z"
           id="path34"
           inkscape:connector-curvature="0"
           style="fill:#1d232d;stroke:#e9e56f" />
        <g
           aria-label="Attached"
           id="g52"
           style="fill:#e8eaec">
          <path
             d="m 225.96,90.436 0.11854,-0.37042 c 0.0852,-0.2704 0.16298,-0.5371 0.24077,-0.81862 h 0.0148 c 0.0778,0.28152 0.15558,0.54822 0.24078,0.81862 l 0.11482,0.37042 z m 1.0409,0.98901 h 0.32597 l -0.82232,-2.4299 h -0.3482 l -0.82232,2.4299 h 0.31485 l 0.23337,-0.74083 h 0.88529 z"
             id="path36"
             inkscape:connector-curvature="0" />
          <path
             d="m 227.63,90.87 c 0,0.3556 0.12965,0.60008 0.51488,0.60008 0.11112,0 0.23336,-0.03334 0.33337,-0.06668 l -0.0593,-0.22966 c -0.0593,0.02223 -0.14076,0.04815 -0.20373,0.04815 -0.20744,0 -0.27781,-0.12594 -0.27781,-0.34819 v -1.0001 h 0.48524 v -0.24818 h -0.48524 v -0.50377 h -0.25559 l -0.037,0.50377 -0.28152,0.01852 v 0.22966 h 0.2667 z"
             id="path38"
             inkscape:connector-curvature="0" />
          <path
             d="m 228.88,90.87 c 0,0.3556 0.12965,0.60008 0.51488,0.60008 0.11113,0 0.23336,-0.03334 0.33338,-0.06668 l -0.0593,-0.22966 c -0.0593,0.02223 -0.14076,0.04815 -0.20373,0.04815 -0.20743,0 -0.27781,-0.12594 -0.27781,-0.34819 v -1.0001 h 0.48524 v -0.24818 h -0.48524 v -0.50377 h -0.25559 l -0.037,0.50377 -0.28152,0.01852 v 0.22966 h 0.2667 z"
             id="path40"
             inkscape:connector-curvature="0" />
          <path
             d="m 229.93,90.959 c 0,0.32226 0.22596,0.51118 0.5297,0.51118 0.22225,0 0.42228,-0.11853 0.59637,-0.25929 h 0.007 l 0.0259,0.21484 h 0.25188 v -1.1038 c 0,-0.4482 -0.18521,-0.74083 -0.626,-0.74083 -0.28893,0 -0.54081,0.12594 -0.7075,0.23336 l 0.12224,0.21114 c 0.14076,-0.09631 0.32597,-0.19262 0.5371,-0.19262 0.29263,0 0.37042,0.22225 0.37042,0.45191 -0.76676,0.0852 -1.1076,0.28152 -1.1076,0.67416 z m 0.30004,-0.02223 c 0,-0.22966 0.20373,-0.37782 0.80751,-0.45191 v 0.50006 c -0.1741,0.15558 -0.31856,0.24077 -0.49265,0.24077 -0.1778,0 -0.31486,-0.0852 -0.31486,-0.28892 z"
             id="path42"
             inkscape:connector-curvature="0" />
          <path
             d="m 231.78,90.529 c 0,0.59637 0.36671,0.94086 0.84455,0.94086 0.21484,0 0.42227,-0.0889 0.58525,-0.23336 l -0.13705,-0.20002 c -0.10742,0.09631 -0.25188,0.1815 -0.42227,0.1815 -0.32968,0 -0.55563,-0.27781 -0.55563,-0.68898 0,-0.41487 0.23707,-0.69638 0.56303,-0.69638 0.14447,0 0.25559,0.06668 0.36301,0.15928 l 0.15187,-0.19632 c -0.12223,-0.11483 -0.28892,-0.21484 -0.52599,-0.21484 -0.46302,0 -0.86677,0.34449 -0.86677,0.94827 z"
             id="path44"
             inkscape:connector-curvature="0" />
          <path
             d="m 233.6,91.425 h 0.30374 v -1.3039 c 0.18151,-0.1815 0.30745,-0.27781 0.49266,-0.27781 0.23706,0 0.34078,0.14446 0.34078,0.48154 v 1.1001 h 0.30374 v -1.1409 c 0,-0.45932 -0.17039,-0.70379 -0.54821,-0.70379 -0.24818,0 -0.42969,0.13335 -0.60008,0.29633 l 0.0111,-0.37042 v -0.71861 h -0.30374 z"
             id="path46"
             inkscape:connector-curvature="0" />
          <path
             d="m 235.48,90.529 c 0,0.58896 0.38153,0.94086 0.86307,0.94086 0.24448,0 0.4371,-0.0852 0.59267,-0.18521 l -0.10742,-0.20002 c -0.13335,0.0852 -0.27781,0.14076 -0.4482,0.14076 -0.34449,0 -0.57785,-0.24448 -0.60008,-0.63341 h 1.215 c 0.007,-0.04445 0.0111,-0.10372 0.0111,-0.16669 0,-0.51488 -0.25929,-0.84455 -0.71861,-0.84455 -0.41116,0 -0.80751,0.3593 -0.80751,0.94827 z m 0.29634,-0.13705 c 0.037,-0.36301 0.2667,-0.57044 0.51858,-0.57044 0.28152,0 0.4445,0.20373 0.4445,0.57044 z"
             id="path48"
             inkscape:connector-curvature="0" />
          <path
             d="m 237.33,90.529 c 0,0.60008 0.29263,0.94086 0.74454,0.94086 0.21114,0 0.40375,-0.11853 0.54451,-0.25559 h 0.0111 l 0.0259,0.21114 h 0.25189 v -2.6374 h -0.30745 v 0.69268 l 0.0148,0.30745 c -0.15928,-0.12965 -0.29634,-0.20743 -0.50377,-0.20743 -0.41116,0 -0.78158,0.36301 -0.78158,0.94827 z m 0.31486,-0.0037 c 0,-0.41116 0.22965,-0.68898 0.51858,-0.68898 0.14817,0 0.28522,0.05186 0.43709,0.18891 v 0.94086 c -0.14817,0.16669 -0.29263,0.24818 -0.45932,0.24818 -0.31485,0 -0.49635,-0.25929 -0.49635,-0.68898 z"
             id="path50"
             inkscape:connector-curvature="0" />
        </g>
      </g>
      <path
         d="m 82.253,78.595 v 6.6146"
         id="path56"
         inkscape:connector-curvature="0"
         style="fill:none;stroke:#47d58a;stroke-linecap:square" />
    </g>
    <g
       transform="matrix(0,0.0042365,-0.0043091,0,83.442,83.381)"
       id="g64"
       style="fill:#47d58a;stroke-width:123.84999847">
      <g
         id="g62"
         style="fill:#47d58a;stroke-width:123.84999847">
        <path
           d="M 486.41,221.41 122.34,12.91 C 69.402,-17.408 26.488,7.47 26.488,68.473 v 415.65 c 0,61.004 42.914,85.882 95.852,55.563 l 364.07,-208.49 c 52.938,-30.317 52.938,-79.473 0,-109.79 z"
           id="path60"
           inkscape:connector-curvature="0"
           style="fill:#47d58a;stroke-width:123.84999847" />
      </g>
    </g>
    <g
       aria-label="constructor()"
       id="g92"
       style="fill:#e8eaec;stroke-width:0.26458001;stroke-linecap:round">
      <path
         d="m 73.382,75.928 c -0.1143,-0.16828 -0.30798,-0.26988 -0.54292,-0.26988 -0.42545,0 -0.72708,0.32068 -0.72708,0.75565 0,0.43815 0.30162,0.762 0.71438,0.762 0.20002,0 0.39688,-0.08255 0.5334,-0.23178 l -0.13018,-0.1524 c -0.09843,0.11112 -0.2413,0.17462 -0.38418,0.17462 -0.28258,0 -0.49848,-0.23495 -0.49848,-0.57468 0,-0.3302 0.21272,-0.53658 0.47942,-0.53658 0.24765,0 0.36512,0.17145 0.37465,0.1905 0.0127,0.02223 -0.0063,0.05398 0.01905,0.07303 z"
         id="path66"
         inkscape:connector-curvature="0" />
      <path
         d="m 74.982,76.42 c 0,-0.50165 -0.3175,-0.762 -0.6477,-0.762 -0.3683,0 -0.6858,0.3175 -0.6858,0.76835 0,0.44132 0.31432,0.75248 0.67945,0.75248 0.3429,0 0.65405,-0.27622 0.65405,-0.75882 z m -0.66358,-0.56832 c 0.20955,0 0.4318,0.18098 0.4318,0.57785 0,0.36512 -0.20955,0.54928 -0.4191,0.54928 -0.23178,0 -0.44132,-0.2159 -0.44132,-0.57468 0,-0.3556 0.20638,-0.55245 0.42862,-0.55245 z"
         id="path68"
         inkscape:connector-curvature="0" />
      <path
         d="m 75.325,77.138 h 0.23178 v -0.83502 c 0,-0.09525 0.0127,-0.16828 0.07303,-0.24765 0.05397,-0.07303 0.19368,-0.2032 0.34608,-0.2032 0.07303,0 0.14605,0.03175 0.19685,0.09208 0.07937,0.09525 0.07937,0.21908 0.07937,0.32068 v 0.87312 h 0.22542 v -0.87948 c 0,-0.11112 0,-0.23178 -0.0508,-0.34925 -0.07303,-0.16192 -0.22225,-0.254 -0.38735,-0.254 -0.19685,0 -0.37465,0.127 -0.4826,0.28892 v -0.254 H 75.325 Z"
         id="path70"
         inkscape:connector-curvature="0" />
      <path
         d="m 78.068,75.881 c -0.13335,-0.14605 -0.32702,-0.22542 -0.54292,-0.22542 -0.33655,0 -0.55562,0.18732 -0.55562,0.40322 0,0.254 0.27305,0.34608 0.35242,0.37465 0.12382,0.04445 0.28258,0.08255 0.39052,0.13335 0.12065,0.05715 0.14288,0.13335 0.14288,0.18415 0,0.13652 -0.1651,0.2286 -0.37148,0.2286 -0.24765,0 -0.4064,-0.14922 -0.45402,-0.20002 -0.0095,-0.0127 -0.0095,-0.02222 -0.0095,-0.03492 0,-0.0032 0.0032,-0.02223 -0.0127,-0.02858 l -0.13335,0.22542 c 0.17145,0.15875 0.3937,0.23178 0.61278,0.23178 0.39688,0 0.60325,-0.23495 0.60325,-0.45402 0,-0.09843 -0.04127,-0.23178 -0.21272,-0.32702 -0.16192,-0.09207 -0.39688,-0.12382 -0.5334,-0.1905 -0.11748,-0.05715 -0.14288,-0.127 -0.14288,-0.1778 0,-0.1143 0.14288,-0.19685 0.3048,-0.19685 0.20955,0 0.34925,0.127 0.40322,0.20002 0.0095,0.0095 0.0064,0.01905 0.0064,0.02858 0,0.01905 0.0127,0.0254 0.01905,0.0254 z"
         id="path72"
         inkscape:connector-curvature="0" />
      <path
         d="m 78.881,75.299 -0.02858,0.39052 h -0.34608 l -0.0032,0.18732 h 0.33972 c -0.01905,0.24765 -0.02858,0.4953 -0.02858,0.73978 0,0.13018 0,0.27622 0.08572,0.39688 0.06985,0.09525 0.18098,0.1524 0.3302,0.1524 0.17145,0 0.33972,-0.07303 0.46355,-0.16192 L 79.6239,76.823 c -0.12382,0.09207 -0.23812,0.13335 -0.32702,0.13335 -0.10795,0 -0.21908,-0.06032 -0.24448,-0.23495 0,-0.0127 -0.0095,-0.06668 -0.0095,-0.2794 0,-0.18732 0.0095,-0.37782 0.02858,-0.56515 h 0.47625 v -0.1905 h -0.47306 c 0,0 0.02223,-0.26035 0.0381,-0.3429 0.0032,-0.03175 0.02858,-0.0508 0.01587,-0.08572 z"
         id="path74"
         inkscape:connector-curvature="0" />
      <path
         d="m 80.186,75.69 v 1.451 h 0.2286 v -0.70485 c 0,-0.0889 0.0032,-0.18415 0.1016,-0.33972 0.13335,-0.20955 0.3048,-0.24448 0.40958,-0.24448 0.12065,0 0.19685,0.05715 0.23812,0.10795 0.01905,0.0254 0.02858,0.0508 0.05397,0.07303 l 0.10795,-0.21908 C 81.23375,75.7186 81.1004,75.6551 80.93847,75.6551 c -0.21272,0 -0.42862,0.10795 -0.52388,0.31432 l 0.0095,-0.2794 z"
         id="path76"
         inkscape:connector-curvature="0" />
      <path
         d="m 81.656,75.69 v 0.80962 c 0,0.12382 0,0.25082 0.05715,0.381 0.08255,0.1905 0.26035,0.29528 0.45085,0.29528 0.18098,0 0.35242,-0.09843 0.44768,-0.25718 l -0.0032,0.10795 c 0,0.0381 0,0.0762 0.0064,0.11112 h 0.2413 c -0.01587,-0.04127 -0.01905,-0.0889 -0.01905,-0.13018 v -1.3176 h -0.2286 v 0.79692 c 0,0.11112 -0.0095,0.19685 -0.05715,0.28575 -0.06668,0.12382 -0.19685,0.2159 -0.33655,0.2159 -0.11112,0 -0.21908,-0.0635 -0.27622,-0.1778 -0.0508,-0.1016 -0.0508,-0.2159 -0.0508,-0.31115 v -0.80962 z"
         id="path78"
         inkscape:connector-curvature="0" />
      <path
         d="m 84.495,75.928 c -0.1143,-0.16828 -0.30798,-0.26988 -0.54292,-0.26988 -0.42545,0 -0.72708,0.32068 -0.72708,0.75565 0,0.43815 0.30162,0.762 0.71438,0.762 0.20002,0 0.39688,-0.08255 0.5334,-0.23178 l -0.13018,-0.1524 c -0.09843,0.11112 -0.2413,0.17462 -0.38418,0.17462 -0.28258,0 -0.49848,-0.23495 -0.49848,-0.57468 0,-0.3302 0.21272,-0.53658 0.47942,-0.53658 0.24765,0 0.36512,0.17145 0.37465,0.1905 0.0127,0.02223 -0.0063,0.05398 0.01905,0.07303 z"
         id="path80"
         inkscape:connector-curvature="0" />
      <path
         d="m 85.231,75.299 -0.02857,0.39052 h -0.34608 l -0.0032,0.18732 h 0.33972 c -0.01905,0.24765 -0.02857,0.4953 -0.02857,0.73978 0,0.13018 0,0.27622 0.08572,0.39688 0.06985,0.09525 0.18098,0.1524 0.3302,0.1524 0.17145,0 0.33972,-0.07303 0.46355,-0.16192 L 85.97392,76.823 c -0.12382,0.09207 -0.23812,0.13335 -0.32702,0.13335 -0.10795,0 -0.21908,-0.06032 -0.24448,-0.23495 0,-0.0127 -0.0095,-0.06668 -0.0095,-0.2794 0,-0.18732 0.0095,-0.37782 0.02857,-0.56515 h 0.47625 v -0.1905 h -0.47308 c 0,0 0.02223,-0.26035 0.0381,-0.3429 0.0032,-0.03175 0.02858,-0.0508 0.01588,-0.08572 z"
         id="path82"
         inkscape:connector-curvature="0" />
      <path
         d="m 87.682,76.42 c 0,-0.50165 -0.3175,-0.762 -0.6477,-0.762 -0.3683,0 -0.6858,0.3175 -0.6858,0.76835 0,0.44132 0.31432,0.75248 0.67945,0.75248 0.3429,0 0.65405,-0.27622 0.65405,-0.75882 z m -0.66358,-0.56832 c 0.20955,0 0.4318,0.18098 0.4318,0.57785 0,0.36512 -0.20955,0.54928 -0.4191,0.54928 -0.23178,0 -0.44132,-0.2159 -0.44132,-0.57468 0,-0.3556 0.20638,-0.55245 0.42862,-0.55245 z"
         id="path84"
         inkscape:connector-curvature="0" />
      <path
         d="m 88.124,75.69 v 1.451 h 0.2286 v -0.70485 c 0,-0.0889 0.0032,-0.18415 0.1016,-0.33972 0.13335,-0.20955 0.3048,-0.24448 0.40958,-0.24448 0.12065,0 0.19685,0.05715 0.23812,0.10795 0.01905,0.0254 0.02858,0.0508 0.05397,0.07303 l 0.10795,-0.21908 C 89.17175,75.7186 89.0384,75.6551 88.87647,75.6551 c -0.21272,0 -0.42862,0.10795 -0.52388,0.31432 l 0.0095,-0.2794 z"
         id="path86"
         inkscape:connector-curvature="0" />
      <path
         d="m 90.638,75.023 c -0.48895,0.2159 -0.80328,0.71438 -0.80328,1.2954 0,0.57785 0.3048,1.1049 0.80645,1.3684 l 0.10478,-0.16828 c -0.43498,-0.25082 -0.68898,-0.71755 -0.68898,-1.2097 0,-0.45402 0.21908,-0.86042 0.59055,-1.0763 0.0063,-0.0063 0.01588,-0.0127 0.02858,-0.0127 0.0095,0 0.01905,0.0063 0.03175,0.0063 0.0063,0 0.01587,-0.0032 0.02857,-0.0063 z"
         id="path88"
         inkscape:connector-curvature="0" />
      <path
         d="m 91.229,75.223 c 0.4191,0.22542 0.6858,0.65722 0.6858,1.1303 0,0.47625 -0.27305,0.92075 -0.70168,1.1462 l 0.06033,0.19368 c 0.52705,-0.25082 0.86678,-0.77788 0.86678,-1.3494 0,-0.56515 -0.33338,-1.0795 -0.8509,-1.3176 z"
         id="path90"
         inkscape:connector-curvature="0" />
    </g>
    <path
       d="m 202.64,61.263 h 29.633 v 22.49"
       id="path94"
       inkscape:connector-curvature="0"
       style="fill:none;stroke:#47d58a;stroke-width:0.26458001;stroke-linecap:square" />
    <g
       id="g140"
       style="stroke-width:0.26458001;stroke-linecap:round">
      <path
         d="m 125.28,74.492 -4.1341,3.7042 v 32.279 l 4.1341,3.7042 h 45.971 l 4.1341,-3.7042 V 78.1962 L 171.251,74.492 Z"
         id="path96"
         inkscape:connector-curvature="0"
         style="fill:#1d232d;stroke:#30d2d5" />
      <path
         d="m 129.25,81.107 -4.1341,3.7042 v 21.696 l 4.1341,3.7042 h 38.034 l 4.1341,-3.7042 V 84.8112 L 167.284,81.107 Z"
         id="path98"
         inkscape:connector-curvature="0"
         style="fill:#1d232d;stroke:#30d2d5" />
      <g
         aria-label="GAMEOBJECT"
         id="g120"
         style="fill:#47d58a">
        <path
           d="m 126.12,77.4 c 0,0.81121 0.51858,1.2372 1.1705,1.2372 0.33708,0 0.63711,-0.14076 0.81121,-0.29263 v -1.1112 h -0.8853 v 0.4445 h 0.40005 v 0.41487 c -0.0593,0.04815 -0.15928,0.07408 -0.25558,0.07408 -0.45562,0 -0.68157,-0.28892 -0.68157,-0.78528 0,-0.48525 0.2667,-0.77788 0.63712,-0.77788 0.20743,0 0.32226,0.07038 0.4445,0.1815 l 0.30003,-0.33708 c -0.16298,-0.16298 -0.41116,-0.31485 -0.75194,-0.31485 -0.65564,0 -1.189,0.46672 -1.189,1.2668 z"
           id="path100"
           inkscape:connector-curvature="0" />
        <path
           d="m 129.07,77.593 0.0593,-0.22225 c 0.0667,-0.24077 0.13335,-0.52229 0.18891,-0.77788 h 0.0148 c 0.0667,0.25188 0.12964,0.5371 0.19632,0.77788 l 0.0593,0.22225 z m 0.77788,1.0001 h 0.57785 l -0.75936,-2.4151 h -0.65193 l -0.75935,2.4151 h 0.55562 l 0.14817,-0.57415 h 0.74083 z"
           id="path102"
           inkscape:connector-curvature="0" />
        <path
           d="m 130.68,78.593 h 0.50377 v -0.8853 c 0,-0.23707 -0.0445,-0.58896 -0.0704,-0.82232 h 0.0148 l 0.19262,0.55933 0.37041,0.93715 h 0.21855 l 0.37412,-0.93715 0.19632,-0.55933 h 0.0148 c -0.0259,0.23336 -0.0704,0.58526 -0.0704,0.82232 v 0.8853 h 0.51117 v -2.4151 h -0.57785 l -0.39264,1.0853 -0.14446,0.42228 h -0.0148 l -0.14446,-0.42228 -0.40376,-1.0853 h -0.57785 z"
           id="path104"
           inkscape:connector-curvature="0" />
        <path
           d="m 133.5,78.593 h 1.552 v -0.45932 h -1.0038 v -0.55562 h 0.82233 v -0.45561 h -0.82233 v -0.48524 h 0.96679 v -0.45932 h -1.515 z"
           id="path106"
           inkscape:connector-curvature="0" />
        <path
           d="m 136.51,78.637 c 0.65193,0 1.0964,-0.47413 1.0964,-1.2631 0,-0.78528 -0.4445,-1.2409 -1.0964,-1.2409 -0.64823,0 -1.0964,0.45191 -1.0964,1.2409 0,0.78899 0.44821,1.2631 1.0964,1.2631 z m 0,-0.47043 c -0.32597,0 -0.53711,-0.30744 -0.53711,-0.79269 0,-0.48154 0.21114,-0.77047 0.53711,-0.77047 0.32967,0 0.5371,0.28892 0.5371,0.77047 0,0.48525 -0.20743,0.79269 -0.5371,0.79269 z"
           id="path108"
           inkscape:connector-curvature="0" />
        <path
           d="m 138.06,78.593 h 0.89641 c 0.52599,0 0.94086,-0.21855 0.94086,-0.7112 0,-0.32226 -0.18151,-0.50377 -0.526,-0.56674 v -0.01482 c 0.28152,-0.07408 0.40746,-0.30744 0.40746,-0.52229 0,-0.46302 -0.38893,-0.60008 -0.8927,-0.60008 H 138.06 Z m 0.54822,-1.4409 v -0.55192 h 0.25929 c 0.25188,0 0.37782,0.07408 0.37782,0.25559 0,0.1815 -0.11853,0.29633 -0.38523,0.29633 z m 0,1.0186 v -0.63341 h 0.30374 c 0.30004,0 0.45191,0.0926 0.45191,0.30374 0,0.21855 -0.15558,0.32967 -0.45191,0.32967 z"
           id="path110"
           inkscape:connector-curvature="0" />
        <path
           d="m 140,78.2 c 0.16669,0.29263 0.41116,0.43709 0.78158,0.43709 0.5334,0 0.77417,-0.38153 0.77417,-0.84826 v -1.6113 h -0.54822 v 1.5669 c 0,0.32226 -0.10371,0.42228 -0.30003,0.42228 -0.12224,0 -0.24448,-0.07779 -0.33708,-0.24077 z"
           id="path112"
           inkscape:connector-curvature="0" />
        <path
           d="m 142.1,78.593 h 1.552 v -0.45932 h -1.0038 v -0.55562 h 0.82233 v -0.45561 h -0.82233 v -0.48524 h 0.96679 v -0.45932 h -1.515 z"
           id="path114"
           inkscape:connector-curvature="0" />
        <path
           d="m 144.01,77.4 c 0,0.81121 0.51118,1.2372 1.1372,1.2372 0.30004,0 0.56674,-0.12224 0.76677,-0.3556 l -0.30004,-0.32967 c -0.11854,0.12965 -0.25929,0.21484 -0.45932,0.21484 -0.35189,0 -0.58526,-0.28892 -0.58526,-0.78528 0,-0.48525 0.263,-0.77788 0.60008,-0.77788 0.17039,0 0.28522,0.07038 0.40746,0.1815 l 0.30003,-0.33708 c -0.16298,-0.16669 -0.41486,-0.31485 -0.7149,-0.31485 -0.6223,0 -1.152,0.46672 -1.152,1.2668 z"
           id="path116"
           inkscape:connector-curvature="0" />
        <path
           d="m 146.71,78.593 h 0.54452 v -1.9558 h 0.66304 v -0.45932 h -1.8743 v 0.45932 h 0.66675 z"
           id="path118"
           inkscape:connector-curvature="0" />
      </g>
      <g
         aria-label="CHILDREN"
         id="g138"
         style="fill:#47d58a">
        <path
           d="m 129.3,84.279 c 0,0.81121 0.51117,1.2372 1.1372,1.2372 0.30003,0 0.56673,-0.12224 0.76676,-0.3556 l -0.30004,-0.32967 c -0.11853,0.12965 -0.25929,0.21484 -0.45932,0.21484 -0.35189,0 -0.58525,-0.28892 -0.58525,-0.78528 0,-0.48525 0.26299,-0.77788 0.60007,-0.77788 0.17039,0 0.28522,0.07038 0.40746,0.1815 l 0.30004,-0.33708 c -0.16299,-0.16669 -0.41487,-0.31485 -0.71491,-0.31485 -0.6223,0 -1.152,0.46672 -1.152,1.2668 z"
           id="path122"
           inkscape:connector-curvature="0" />
        <path
           d="m 131.56,85.472 h 0.54822 v -1.0075 h 0.83344 v 1.0075 h 0.54451 v -2.4151 h -0.54451 v 0.92974 h -0.83344 V 83.0569 H 131.56 Z"
           id="path124"
           inkscape:connector-curvature="0" />
        <path
           d="m 134.05,85.472 h 0.54822 V 83.0569 H 134.05 Z"
           id="path126"
           inkscape:connector-curvature="0" />
        <path
           d="m 135.16,85.472 h 1.5002 v -0.45932 h -0.95197 v -1.9558 h -0.54822 z"
           id="path128"
           inkscape:connector-curvature="0" />
        <path
           d="m 137.07,85.472 h 0.71491 c 0.70749,0 1.1816,-0.38894 1.1816,-1.2187 0,-0.82973 -0.47414,-1.1964 -1.215,-1.1964 h -0.68157 z m 0.54822,-0.4408 v -1.5335 h 0.10372 c 0.40746,0 0.68527,0.1778 0.68527,0.75565 0,0.57785 -0.27781,0.77788 -0.68527,0.77788 z"
           id="path130"
           inkscape:connector-curvature="0" />
        <path
           d="m 139.97,83.49 h 0.27781 c 0.28522,0 0.4408,0.08149 0.4408,0.31856 0,0.23707 -0.15558,0.3593 -0.4408,0.3593 H 139.97 Z m 1.3705,1.9817 -0.54451,-0.96679 c 0.25558,-0.11483 0.42968,-0.34078 0.42968,-0.69638 0,-0.57414 -0.42227,-0.75194 -0.93345,-0.75194 h -0.87048 v 2.4151 h 0.54822 v -0.87048 h 0.29633 l 0.46302,0.87048 z"
           id="path132"
           inkscape:connector-curvature="0" />
        <path
           d="m 141.7,85.472 h 1.552 v -0.45932 h -1.0038 v -0.55562 h 0.82232 V 84.00145 H 142.2482 V 83.5162 h 0.96679 v -0.45932 h -1.515 z"
           id="path134"
           inkscape:connector-curvature="0" />
        <path
           d="m 143.73,85.472 h 0.52229 v -0.85566 c 0,-0.28522 -0.0445,-0.60748 -0.0704,-0.87418 h 0.0148 l 0.23707,0.52599 0.62971,1.2039 h 0.55933 v -2.4151 h -0.51859 v 0.85196 c 0,0.28522 0.0445,0.626 0.0704,0.88159 h -0.0148 l -0.24077,-0.5334 -0.62971,-1.2002 H 143.73 Z"
           id="path136"
           inkscape:connector-curvature="0" />
      </g>
    </g>
    <path
       d="m 164.93,90.369 h 52.652"
       id="path142"
       inkscape:connector-curvature="0"
       style="fill:none;stroke:#47d58a;stroke-width:0.26458001;stroke-linecap:square" />
    <g
       id="g170"
       style="stroke-width:0.26458001;stroke-linecap:round">
      <rect
         x="131.73"
         y="94.348999"
         width="33.073002"
         height="5.2782001"
         id="rect144"
         style="fill:#2f3744;stroke:#30d2d5" />
      <rect
         x="131.73"
         y="100.96"
         width="33.073002"
         height="5.2782001"
         id="rect146"
         style="fill:#2f3744;stroke:#30d2d5" />
      <g
         aria-label="addChild()"
         id="g168"
         style="fill:#e8eaec">
        <path
           d="m 101.06,88.294 0.11113,0.14605 c 0.12065,-0.12382 0.28257,-0.16192 0.4191,-0.16192 0.17145,0 0.25717,0.07303 0.29845,0.1397 0.0476,0.07937 0.0444,0.17462 0.0444,0.25082 v 0.0508 h -0.0444 c -0.2159,0 -0.4445,0 -0.62865,0.06668 -0.2286,0.08255 -0.3302,0.254 -0.3302,0.41275 0,0.21272 0.18415,0.41275 0.48577,0.41275 0.1778,0 0.36195,-0.06668 0.5207,-0.19685 v 0.15875 h 0.2159 v -0.89852 c 0,-0.11748 -0.003,-0.2286 -0.0699,-0.3429 -0.0952,-0.15558 -0.2794,-0.23812 -0.50482,-0.23812 -0.19368,0 -0.381,0.06033 -0.51753,0.20002 z m 0.88265,0.60008 v 0.09843 c 0,0.07302 0,0.16828 -0.0984,0.27305 -0.054,0.05397 -0.1905,0.17145 -0.381,0.17145 -0.19368,0 -0.3048,-0.12382 -0.3048,-0.25082 0,-0.10795 0.073,-0.22542 0.254,-0.26988 0.13335,-0.03175 0.32702,-0.02223 0.47942,-0.02223 z"
           id="path148"
           inkscape:connector-curvature="0" />
        <path
           d="m 103.54,88.335 c -0.0699,-0.14922 -0.22543,-0.24765 -0.42545,-0.24765 -0.27623,0 -0.61278,0.19685 -0.61278,0.7493 0,0.53658 0.29845,0.77152 0.57785,0.77152 0.18415,0 0.3556,-0.10478 0.44768,-0.2667 v 0.127 c 0,0.03493 0.003,0.06985 0.0127,0.10478 h 0.2286 c -0.0127,-0.04127 -0.0127,-0.0889 -0.0127,-0.13335 l -0.003,-1.886 c 0,-0.01905 0,-0.0254 0.0127,-0.04445 0.006,-0.0095 0.0191,-0.0254 0.0159,-0.04763 h -0.2413 z m -0.41593,-0.06032 c 0.127,0 0.31433,0.06668 0.37148,0.28258 0.0191,0.06668 0.0254,0.14605 0.0254,0.30798 0,0.11112 -0.006,0.1905 -0.0318,0.2667 -0.054,0.17145 -0.20638,0.27305 -0.3556,0.27305 -0.1651,0 -0.40958,-0.127 -0.40958,-0.60325 0,-0.41592 0.23178,-0.52705 0.40005,-0.52705 z"
           id="path150"
           inkscape:connector-curvature="0" />
        <path
           d="m 105.13,88.335 c -0.0699,-0.14922 -0.22543,-0.24765 -0.42545,-0.24765 -0.27623,0 -0.61278,0.19685 -0.61278,0.7493 0,0.53658 0.29845,0.77152 0.57785,0.77152 0.18415,0 0.3556,-0.10478 0.44768,-0.2667 v 0.127 c 0,0.03493 0.003,0.06985 0.0127,0.10478 h 0.2286 c -0.0127,-0.04127 -0.0127,-0.0889 -0.0127,-0.13335 l -0.003,-1.886 c 0,-0.01905 0,-0.0254 0.0127,-0.04445 0.006,-0.0095 0.019,-0.0254 0.0159,-0.04763 h -0.2413 z m -0.41593,-0.06032 c 0.127,0 0.31433,0.06668 0.37148,0.28258 0.019,0.06668 0.0254,0.14605 0.0254,0.30798 0,0.11112 -0.006,0.1905 -0.0317,0.2667 -0.054,0.17145 -0.20638,0.27305 -0.3556,0.27305 -0.1651,0 -0.40958,-0.127 -0.40958,-0.60325 0,-0.41592 0.23178,-0.52705 0.40005,-0.52705 z"
           id="path152"
           inkscape:connector-curvature="0" />
        <path
           d="m 106.42,87.579 c -0.30798,0 -0.75248,0.22542 -0.75248,1.0192 0,0.762 0.42545,1.0096 0.75248,1.0096 0.23495,0 0.45402,-0.12382 0.57785,-0.32702 L 106.83592,89.176 c -0.0921,0.14922 -0.25082,0.23812 -0.40322,0.23812 -0.2921,0 -0.54928,-0.30162 -0.54928,-0.8382 0,-0.52388 0.25083,-0.81915 0.53023,-0.81915 0.1524,0 0.29845,0.09208 0.37782,0.23178 0.006,0.0095 0.0127,0.01905 0.0127,0.03175 0,0.0095 -0.003,0.01588 -0.003,0.0254 0,0.0032 0,0.01905 0.0159,0.02858 l 0.20955,-0.1016 c -0.10477,-0.23812 -0.3429,-0.3937 -0.60642,-0.3937 z"
           id="path154"
           inkscape:connector-curvature="0" />
        <path
           d="m 107.34,89.573 h 0.23495 v -0.83502 c 0,-0.09525 0.01,-0.16828 0.0699,-0.24765 0.0571,-0.07302 0.19685,-0.2032 0.34925,-0.2032 0.073,0 0.14605,0.03175 0.19685,0.09208 0.0794,0.09525 0.0794,0.21908 0.0794,0.32068 v 0.87312 h 0.22543 v -0.87948 c 0,-0.11112 -0.003,-0.23178 -0.054,-0.34925 -0.073,-0.16192 -0.21907,-0.254 -0.38417,-0.254 -0.19685,0 -0.37783,0.127 -0.4826,0.28892 v -0.84138 c 0,-0.0095 0,-0.01905 0.01,-0.02857 0.01,-0.0095 0.0222,-0.01905 0.0222,-0.03493 0,-0.0032 0,-0.0063 -0.003,-0.0095 h -0.26352 z"
           id="path156"
           inkscape:connector-curvature="0" />
        <path
           d="m 109.05,88.122 v 0.18732 h 0.34925 v 1.0827 h -0.3683 V 89.573 h 0.9398 v -0.18098 h -0.33972 v -1.27 z m 0.4699,-0.62865 c -0.0921,0 -0.1651,0.07303 -0.1651,0.16192 0,0.0889 0.073,0.16192 0.1651,0.16192 0.0921,0 0.1651,-0.07303 0.1651,-0.16192 0,-0.0889 -0.073,-0.16192 -0.1651,-0.16192 z"
           id="path158"
           inkscape:connector-curvature="0" />
        <path
           d="m 110.57,87.465 v 0.18415 h 0.41275 v 1.7431 h -0.4318 v 0.18098 h 1.089 v -0.18098 h -0.42863 v -1.9272 z"
           id="path160"
           inkscape:connector-curvature="0" />
        <path
           d="m 113.06,88.335 c -0.0699,-0.14922 -0.22543,-0.24765 -0.42545,-0.24765 -0.27623,0 -0.61278,0.19685 -0.61278,0.7493 0,0.53658 0.29845,0.77152 0.57785,0.77152 0.18415,0 0.3556,-0.10478 0.44768,-0.2667 v 0.127 c 0,0.03493 0.003,0.06985 0.0127,0.10478 h 0.2286 c -0.0127,-0.04127 -0.0127,-0.0889 -0.0127,-0.13335 l -0.003,-1.886 c 0,-0.01905 0,-0.0254 0.0127,-0.04445 0.006,-0.0095 0.019,-0.0254 0.0159,-0.04763 h -0.2413 z m -0.41593,-0.06032 c 0.127,0 0.31433,0.06668 0.37148,0.28258 0.019,0.06668 0.0254,0.14605 0.0254,0.30798 0,0.11112 -0.006,0.1905 -0.0317,0.2667 -0.054,0.17145 -0.20638,0.27305 -0.3556,0.27305 -0.1651,0 -0.40958,-0.127 -0.40958,-0.60325 0,-0.41592 0.23178,-0.52705 0.40005,-0.52705 z"
           id="path162"
           inkscape:connector-curvature="0" />
        <path
           d="m 114.72,87.459 c -0.48895,0.2159 -0.80328,0.71438 -0.80328,1.2954 0,0.57785 0.3048,1.1049 0.80645,1.3684 l 0.10478,-0.16828 c -0.43498,-0.25082 -0.68898,-0.71755 -0.68898,-1.2097 0,-0.45402 0.21908,-0.86042 0.59055,-1.0763 0.006,-0.0063 0.0159,-0.0127 0.0286,-0.0127 0.01,0 0.0191,0.0063 0.0318,0.0063 0.006,0 0.0159,-0.0032 0.0286,-0.0063 z"
           id="path164"
           inkscape:connector-curvature="0" />
        <path
           d="m 115.31,87.659 c 0.4191,0.22542 0.6858,0.65722 0.6858,1.1303 0,0.47625 -0.27305,0.92075 -0.70168,1.1462 l 0.0603,0.19368 c 0.52705,-0.25082 0.86677,-0.77788 0.86677,-1.3494 0,-0.56515 -0.33337,-1.0795 -0.8509,-1.3176 z"
           id="path166"
           inkscape:connector-curvature="0" />
      </g>
    </g>
    <path
       d="m 94.817,90.369 h 36.512"
       id="path172"
       inkscape:connector-curvature="0"
       style="fill:none;stroke:#47d58a;stroke-width:0.26458001;stroke-linecap:square" />
    <g
       id="g200">
      <g
         transform="matrix(0.0042365,0,0,0.0043091,129.5,89.18)"
         id="g178"
         style="fill:#47d58a;stroke-width:123.84999847">
        <g
           id="g176"
           style="fill:#47d58a;stroke-width:123.84999847">
          <path
             d="M 486.41,221.41 122.34,12.91 C 69.402,-17.408 26.488,7.47 26.488,68.473 v 415.65 c 0,61.004 42.914,85.882 95.852,55.563 l 364.07,-208.49 c 52.938,-30.317 52.938,-79.473 0,-109.79 z"
             id="path174"
             inkscape:connector-curvature="0"
             style="fill:#47d58a;stroke-width:123.84999847" />
        </g>
      </g>
      <rect
         x="131.73"
         y="87.735001"
         width="33.073002"
         height="5.2782001"
         id="rect180"
         style="fill:#2f3744;stroke:#30d2d5;stroke-width:0.26458001;stroke-linecap:round" />
      <g
         aria-label="attach()"
         id="g198"
         style="fill:#e8eaec;stroke-width:0.26458001;stroke-linecap:round">
        <path
           d="m 190.22,88.029 0.11112,0.14605 c 0.12065,-0.12382 0.28258,-0.16192 0.4191,-0.16192 0.17145,0 0.25718,0.07303 0.29845,0.1397 0.0476,0.07937 0.0445,0.17462 0.0445,0.25082 v 0.0508 h -0.0445 c -0.2159,0 -0.4445,0 -0.62865,0.06668 -0.2286,0.08255 -0.3302,0.254 -0.3302,0.41275 0,0.21272 0.18415,0.41275 0.48578,0.41275 0.1778,0 0.36195,-0.06668 0.5207,-0.19685 v 0.15875 h 0.2159 v -0.89852 c 0,-0.11748 -0.003,-0.2286 -0.0699,-0.3429 -0.0952,-0.15558 -0.2794,-0.23812 -0.50483,-0.23812 -0.19367,0 -0.381,0.06033 -0.51752,0.20002 z m 0.88265,0.60008 v 0.09843 c 0,0.07303 0,0.16828 -0.0984,0.27305 -0.054,0.05398 -0.1905,0.17145 -0.381,0.17145 -0.19367,0 -0.3048,-0.12382 -0.3048,-0.25082 0,-0.10795 0.073,-0.22542 0.254,-0.26988 0.13335,-0.03175 0.32703,-0.02223 0.47943,-0.02223 z"
           id="path182"
           inkscape:connector-curvature="0" />
        <path
           d="m 192.12,87.47 -0.0286,0.39052 h -0.34607 l -0.003,0.18732 h 0.33973 c -0.019,0.24765 -0.0286,0.4953 -0.0286,0.73978 0,0.13018 0,0.27622 0.0857,0.39688 0.0699,0.09525 0.18097,0.1524 0.3302,0.1524 0.17145,0 0.33972,-0.07303 0.46355,-0.16192 l -0.0699,-0.18098 c -0.12383,0.09207 -0.23813,0.13335 -0.32703,0.13335 -0.10795,0 -0.21907,-0.06032 -0.24447,-0.23495 0,-0.0127 -0.01,-0.06667 -0.01,-0.2794 0,-0.18732 0.01,-0.37782 0.0286,-0.56515 h 0.47625 v -0.1905 h -0.47308 c 0,0 0.0222,-0.26035 0.0381,-0.3429 0.003,-0.03175 0.0286,-0.0508 0.0159,-0.08572 z"
           id="path184"
           inkscape:connector-curvature="0" />
        <path
           d="m 193.71,87.47 -0.0286,0.39052 h -0.34607 l -0.003,0.18732 h 0.33973 c -0.019,0.24765 -0.0286,0.4953 -0.0286,0.73978 0,0.13018 0,0.27622 0.0857,0.39688 0.0698,0.09525 0.18097,0.1524 0.3302,0.1524 0.17145,0 0.33972,-0.07303 0.46355,-0.16192 l -0.0699,-0.18098 c -0.12383,0.09207 -0.23813,0.13335 -0.32703,0.13335 -0.10795,0 -0.21907,-0.06032 -0.24447,-0.23495 0,-0.0127 -0.01,-0.06667 -0.01,-0.2794 0,-0.18732 0.01,-0.37782 0.0286,-0.56515 h 0.47625 v -0.1905 h -0.47308 c 0,0 0.0222,-0.26035 0.0381,-0.3429 0.003,-0.03175 0.0286,-0.0508 0.0159,-0.08572 z"
           id="path186"
           inkscape:connector-curvature="0" />
        <path
           d="m 194.99,88.029 0.11112,0.14605 c 0.12065,-0.12382 0.28258,-0.16192 0.4191,-0.16192 0.17145,0 0.25718,0.07303 0.29845,0.1397 0.0476,0.07937 0.0445,0.17462 0.0445,0.25082 v 0.0508 h -0.0445 c -0.2159,0 -0.4445,0 -0.62865,0.06668 -0.2286,0.08255 -0.3302,0.254 -0.3302,0.41275 0,0.21272 0.18415,0.41275 0.48578,0.41275 0.1778,0 0.36195,-0.06668 0.5207,-0.19685 v 0.15875 h 0.2159 v -0.89852 c 0,-0.11748 -0.003,-0.2286 -0.0699,-0.3429 -0.0952,-0.15558 -0.2794,-0.23812 -0.50483,-0.23812 -0.19367,0 -0.381,0.06033 -0.51752,0.20002 z m 0.88265,0.60008 v 0.09843 c 0,0.07303 0,0.16828 -0.0984,0.27305 -0.054,0.05398 -0.1905,0.17145 -0.381,0.17145 -0.19367,0 -0.3048,-0.12382 -0.3048,-0.25082 0,-0.10795 0.073,-0.22542 0.254,-0.26988 0.13335,-0.03175 0.32703,-0.02223 0.47943,-0.02223 z"
           id="path188"
           inkscape:connector-curvature="0" />
        <path
           d="m 197.74,88.099 c -0.1143,-0.16828 -0.30798,-0.26988 -0.54293,-0.26988 -0.42545,0 -0.72707,0.32068 -0.72707,0.75565 0,0.43815 0.30162,0.762 0.71437,0.762 0.20003,0 0.39688,-0.08255 0.5334,-0.23178 l -0.13017,-0.1524 c -0.0984,0.11112 -0.2413,0.17462 -0.38418,0.17462 -0.28257,0 -0.49847,-0.23495 -0.49847,-0.57468 0,-0.3302 0.21272,-0.53658 0.47942,-0.53658 0.24765,0 0.36513,0.17145 0.37465,0.1905 0.0127,0.02222 -0.006,0.05397 0.019,0.07303 z"
           id="path190"
           inkscape:connector-curvature="0" />
        <path
           d="m 198.1,89.309 h 0.23495 v -0.83502 c 0,-0.09525 0.01,-0.16828 0.0699,-0.24765 0.0572,-0.07303 0.19685,-0.2032 0.34925,-0.2032 0.073,0 0.14605,0.03175 0.19685,0.09207 0.0794,0.09525 0.0794,0.21908 0.0794,0.32068 V 89.309 h 0.22542 v -0.87948 c 0,-0.11112 -0.003,-0.23178 -0.054,-0.34925 -0.073,-0.16192 -0.21908,-0.254 -0.38418,-0.254 -0.19685,0 -0.37782,0.127 -0.4826,0.28892 v -0.84138 c 0,-0.0095 0,-0.01905 0.01,-0.02858 0.01,-0.0095 0.0222,-0.01905 0.0222,-0.03493 0,-0.0032 0,-0.0063 -0.003,-0.0095 h -0.26353 z"
           id="path192"
           inkscape:connector-curvature="0" />
        <path
           d="m 200.7,87.194 c -0.48895,0.2159 -0.80327,0.71438 -0.80327,1.2954 0,0.57785 0.3048,1.1049 0.80645,1.3684 l 0.10477,-0.16828 c -0.43497,-0.25082 -0.68897,-0.71755 -0.68897,-1.2097 0,-0.45402 0.21907,-0.86042 0.59055,-1.0763 0.006,-0.0063 0.0159,-0.0127 0.0286,-0.0127 0.01,0 0.019,0.0063 0.0317,0.0063 0.006,0 0.0159,-0.0032 0.0286,-0.0063 z"
           id="path194"
           inkscape:connector-curvature="0" />
        <path
           d="m 201.3,87.394 c 0.4191,0.22542 0.6858,0.65722 0.6858,1.1303 0,0.47625 -0.27305,0.92075 -0.70167,1.1462 l 0.0603,0.19368 c 0.52705,-0.25082 0.86678,-0.77788 0.86678,-1.3494 0,-0.56515 -0.33338,-1.0795 -0.8509,-1.3176 z"
           id="path196"
           inkscape:connector-curvature="0" />
      </g>
    </g>
    <path
       d="m 232.8,94.47 v 33.073"
       id="path202"
       inkscape:connector-curvature="0"
       style="fill:none;stroke:#47d58a;stroke-width:0.26458001;stroke-linecap:square" />
    <g
       transform="matrix(0,0.0042365,-0.0043091,0,233.99,125.71)"
       id="g208"
       style="fill:#47d58a;stroke-width:123.84999847">
      <g
         id="g206"
         style="fill:#47d58a;stroke-width:123.84999847">
        <path
           d="M 486.41,221.41 122.34,12.91 C 69.402,-17.408 26.488,7.47 26.488,68.473 v 415.65 c 0,61.004 42.914,85.882 95.852,55.563 l 364.07,-208.49 c 52.938,-30.317 52.938,-79.473 0,-109.79 z"
           id="path204"
           inkscape:connector-curvature="0"
           style="fill:#47d58a;stroke-width:123.84999847" />
      </g>
    </g>
    <path
       d="m 191.26,45.967 a 15.296,15.296 0 0 0 -15.291,15.296 15.296,15.296 0 0 0 15.296,15.296 15.296,15.296 0 0 0 15.296,-15.296 15.296,15.296 0 0 0 -15.296,-15.296 15.296,15.296 0 0 0 -0.005,0 z m 0.005,6.6688 a 8.627,8.627 0 0 1 8.6267,8.6269 8.627,8.627 0 0 1 -8.6269,8.6269 8.627,8.627 0 0 1 -8.6269,-8.6269 8.627,8.627 0 0 1 8.6269,-8.6269 z"
       stroke-miterlimit="40"
       id="path210"
       inkscape:connector-curvature="0"
       style="fill:#1d232d;stroke:#a6aeb8;stroke-width:0.26458001;stroke-linecap:square;stroke-miterlimit:40;stroke-dashoffset:1.20000005" />
    <g
       id="g228"
       style="fill:#7b8694">
      <path
         d="m 197.86,68.107 a 9.5096,9.5096 0 0 1 -6.3376,2.6618 v 4.6292 a 14.138,14.138 0 0 0 9.6103,-4.0184 z"
         id="path212"
         inkscape:connector-curvature="0" />
      <path
         d="m 184.66,68.107 -3.2727,3.2727 a 14.138,14.138 0 0 0 9.6103,4.0184 V 70.7689 A 9.5096,9.5096 0 0 1 184.66,68.1071 Z"
         id="path214"
         inkscape:connector-curvature="0" />
      <path
         d="m 177.12,61.395 a 14.138,14.138 0 0 0 3.8902,9.6077 l 3.2737,-3.2737 a 9.5096,9.5096 0 0 1 -2.5358,-6.334 z"
         id="path216"
         inkscape:connector-curvature="0" />
      <path
         d="m 181.14,51.388 a 14.138,14.138 0 0 0 -4.0153,9.478 h 4.6307 a 9.5096,9.5096 0 0 1 2.6577,-6.2048 z"
         id="path218"
         inkscape:connector-curvature="0" />
      <path
         d="m 200.77,61.395 a 9.5096,9.5096 0 0 1 -2.5358,6.334 l 3.2737,3.2737 a 14.138,14.138 0 0 0 3.8907,-9.6077 z"
         id="path220"
         inkscape:connector-curvature="0" />
      <path
         d="m 201.38,51.388 -3.2727,3.2727 a 9.5096,9.5096 0 0 1 2.6572,6.2053 h 4.6307 a 14.138,14.138 0 0 0 -4.0153,-9.478 z"
         id="path222"
         inkscape:connector-curvature="0" />
      <path
         d="m 191.53,47.128 v 4.6292 a 9.5096,9.5096 0 0 1 6.2017,2.5332 l 3.2737,-3.2737 A 14.138,14.138 0 0 0 191.53,47.1281 Z"
         id="path224"
         inkscape:connector-curvature="0" />
      <path
         d="m 191,47.128 a 14.138,14.138 0 0 0 -9.4754,3.8886 l 3.2737,3.2737 A 9.5096,9.5096 0 0 1 191,51.7571 Z"
         id="path226"
         inkscape:connector-curvature="0" />
    </g>
    <g
       id="g272">
      <g
         aria-label="Game loop"
         id="g246"
         style="fill:#e8eaec;stroke-width:0.26458001;stroke-linecap:round">
        <path
           d="m 185,60.324 c -0.26353,0 -0.76518,0.1651 -0.76518,1.0319 0,0.7493 0.4191,0.99695 0.762,0.99695 0.18415,0 0.39688,-0.06668 0.58103,-0.20638 v -0.77152 h -0.56198 v 0.1905 h 0.35878 v 0.47308 c -0.11113,0.07937 -0.23813,0.12065 -0.3556,0.12065 -0.13018,0 -0.26988,-0.0508 -0.37783,-0.17462 -0.1651,-0.18732 -0.18732,-0.46672 -0.18732,-0.6731 0,-0.18415 0.0222,-0.36195 0.0984,-0.508 0.1016,-0.19368 0.2794,-0.28258 0.4445,-0.28258 0.1778,0 0.3175,0.09842 0.37783,0.23178 0.01,0.02222 0.019,0.04762 0.0444,0.0635 l 0.15557,-0.15875 c -0.1143,-0.20638 -0.3302,-0.33338 -0.57467,-0.33338 z"
           id="path230"
           inkscape:connector-curvature="0" />
        <path
           d="m 185.99,61.042 0.11113,0.14605 c 0.12065,-0.12382 0.28257,-0.16192 0.4191,-0.16192 0.17145,0 0.25717,0.07303 0.29845,0.1397 0.0476,0.07938 0.0444,0.17462 0.0444,0.25082 v 0.0508 h -0.0444 c -0.2159,0 -0.4445,0 -0.62865,0.06668 -0.2286,0.08255 -0.3302,0.254 -0.3302,0.41275 0,0.21272 0.18415,0.41275 0.48577,0.41275 0.1778,0 0.36195,-0.06667 0.5207,-0.19685 v 0.15875 h 0.2159 v -0.89852 c 0,-0.11748 -0.003,-0.2286 -0.0699,-0.3429 -0.0952,-0.15558 -0.2794,-0.23812 -0.50482,-0.23812 -0.19368,0 -0.381,0.06033 -0.51753,0.20002 z m 0.88265,0.60008 v 0.09843 c 0,0.07302 0,0.16828 -0.0984,0.27305 -0.054,0.05398 -0.1905,0.17145 -0.381,0.17145 -0.19368,0 -0.3048,-0.12382 -0.3048,-0.25082 0,-0.10795 0.073,-0.22542 0.254,-0.26988 0.13335,-0.03175 0.32702,-0.02223 0.47942,-0.02223 z"
           id="path232"
           inkscape:connector-curvature="0" />
        <path
           d="m 187.41,62.321 h 0.20955 v -0.9652 c 0,-0.06985 0.006,-0.13335 0.0476,-0.20955 0.0508,-0.09525 0.1143,-0.13335 0.17463,-0.13335 0.0508,0 0.10795,0.03175 0.13335,0.11112 0.019,0.06032 0.0159,0.13018 0.0159,0.1905 v 1.0065 h 0.21273 v -0.95885 c 0,-0.0762 0.006,-0.13652 0.0603,-0.2286 0.0254,-0.0381 0.0794,-0.13018 0.16828,-0.13018 0.0476,0 0.0921,0.02857 0.1143,0.08255 0.0286,0.06032 0.0222,0.14288 0.0222,0.20955 v 1.0287 h 0.2159 v -1.0319 c 0,-0.12065 0.003,-0.2413 -0.0603,-0.33972 -0.054,-0.08255 -0.14605,-0.1143 -0.22543,-0.1143 -0.1397,0 -0.26987,0.08255 -0.32702,0.20955 -0.0222,-0.12065 -0.12383,-0.20955 -0.254,-0.20955 -0.12065,0 -0.23178,0.0762 -0.29845,0.1778 l 0.003,-0.14288 h -0.21272 z"
           id="path234"
           inkscape:connector-curvature="0" />
        <path
           d="m 189.7,60.838 c -0.34607,0 -0.66675,0.24765 -0.66675,0.7747 0,0.48578 0.30163,0.74295 0.69533,0.74295 0.20955,0 0.39687,-0.0762 0.5207,-0.22542 l -0.127,-0.12382 c -0.0921,0.10795 -0.23178,0.1651 -0.37465,0.1651 -0.19368,0 -0.47625,-0.10795 -0.49213,-0.54292 h 1.0287 c 0.01,-0.09842 0.006,-0.19368 -0.01,-0.27622 -0.0667,-0.39052 -0.33655,-0.51435 -0.57468,-0.51435 z m -0.43815,0.61595 c 0.0476,-0.3429 0.2667,-0.44132 0.42228,-0.44132 0.23495,0 0.40322,0.20638 0.37465,0.44132 z"
           id="path236"
           inkscape:connector-curvature="0" />
        <path
           d="m 192.32,60.213 v 0.18415 h 0.41275 v 1.7431 h -0.4318 v 0.18098 h 1.089 v -0.18098 h -0.42863 v -1.9272 z"
           id="path238"
           inkscape:connector-curvature="0" />
        <path
           d="m 195.1,61.604 c 0,-0.50165 -0.3175,-0.762 -0.6477,-0.762 -0.3683,0 -0.6858,0.3175 -0.6858,0.76835 0,0.44132 0.31433,0.75248 0.67945,0.75248 0.3429,0 0.65405,-0.27622 0.65405,-0.75882 z m -0.66357,-0.56832 c 0.20955,0 0.4318,0.18098 0.4318,0.57785 0,0.36512 -0.20955,0.54928 -0.4191,0.54928 -0.23178,0 -0.44133,-0.2159 -0.44133,-0.57468 0,-0.3556 0.20638,-0.55245 0.42863,-0.55245 z"
           id="path240"
           inkscape:connector-curvature="0" />
        <path
           d="m 196.69,61.604 c 0,-0.50165 -0.3175,-0.762 -0.6477,-0.762 -0.3683,0 -0.6858,0.3175 -0.6858,0.76835 0,0.44132 0.31433,0.75248 0.67945,0.75248 0.3429,0 0.65405,-0.27622 0.65405,-0.75882 z m -0.66357,-0.56832 c 0.20955,0 0.4318,0.18098 0.4318,0.57785 0,0.36512 -0.20955,0.54928 -0.4191,0.54928 -0.23178,0 -0.44133,-0.2159 -0.44133,-0.57468 0,-0.3556 0.20638,-0.55245 0.42863,-0.55245 z"
           id="path242"
           inkscape:connector-curvature="0" />
        <path
           d="m 197,60.873 0.003,1.978 h 0.23178 v -0.72072 c 0.0984,0.14288 0.26035,0.23178 0.43497,0.23178 0.29845,0 0.6096,-0.25082 0.6096,-0.78105 0,-0.51118 -0.30162,-0.73978 -0.58737,-0.73978 -0.18733,0 -0.36195,0.09525 -0.46038,0.254 v -0.22225 z m 0.60642,0.16192 c 0.127,0 0.43498,0.06667 0.43498,0.59372 0,0.4572 -0.29845,0.53022 -0.43498,0.53022 -0.13652,0 -0.27622,-0.06985 -0.33337,-0.20002 -0.0413,-0.09842 -0.0413,-0.21908 -0.0413,-0.42862 0,-0.12065 0.006,-0.20955 0.0381,-0.28575 0.0572,-0.13018 0.1905,-0.20955 0.33655,-0.20955 z"
           id="path244"
           inkscape:connector-curvature="0" />
      </g>
      <g
         transform="matrix(0,0.0042365,-0.0043091,0,233.46,83.381)"
         id="g252"
         style="fill:#47d58a;stroke-width:123.84999847">
        <g
           id="g250"
           style="fill:#47d58a;stroke-width:123.84999847">
          <path
             d="M 486.41,221.41 122.34,12.91 C 69.402,-17.408 26.488,7.47 26.488,68.473 v 415.65 c 0,61.004 42.914,85.882 95.852,55.563 l 364.07,-208.49 c 52.938,-30.317 52.938,-79.473 0,-109.79 z"
             id="path248"
             inkscape:connector-curvature="0"
             style="fill:#47d58a;stroke-width:123.84999847" />
        </g>
      </g>
      <g
         aria-label="update()"
         id="g270"
         style="fill:#e8eaec;stroke-width:0.26458001;stroke-linecap:round">
        <path
           d="m 214.21,59.021 v 0.80962 c 0,0.12382 0,0.25082 0.0571,0.381 0.0826,0.1905 0.26035,0.29528 0.45085,0.29528 0.18098,0 0.35243,-0.09842 0.44768,-0.25718 l -0.003,0.10795 c 0,0.0381 0,0.0762 0.006,0.11112 h 0.2413 c -0.0159,-0.04127 -0.019,-0.0889 -0.019,-0.13018 v -1.3176 h -0.2286 v 0.79692 c 0,0.11112 -0.01,0.19685 -0.0572,0.28575 -0.0667,0.12382 -0.19685,0.2159 -0.33655,0.2159 -0.11112,0 -0.21907,-0.0635 -0.27622,-0.1778 -0.0508,-0.1016 -0.0508,-0.2159 -0.0508,-0.31115 v -0.80962 z"
           id="path254"
           inkscape:connector-curvature="0" />
        <path
           d="m 215.79,59.021 0.003,1.978 h 0.23178 v -0.72072 c 0.0984,0.14288 0.26035,0.23178 0.43497,0.23178 0.29845,0 0.6096,-0.25082 0.6096,-0.78105 0,-0.51118 -0.30162,-0.73978 -0.58737,-0.73978 -0.18733,0 -0.36195,0.09525 -0.46038,0.254 v -0.22225 z m 0.60642,0.16192 c 0.127,0 0.43498,0.06667 0.43498,0.59372 0,0.4572 -0.29845,0.53022 -0.43498,0.53022 -0.13652,0 -0.27622,-0.06985 -0.33337,-0.20002 -0.0413,-0.09842 -0.0413,-0.21908 -0.0413,-0.42862 0,-0.12065 0.006,-0.20955 0.0381,-0.28575 0.0572,-0.13018 0.1905,-0.20955 0.33655,-0.20955 z"
           id="path256"
           inkscape:connector-curvature="0" />
        <path
           d="m 218.37,59.231 c -0.0699,-0.14922 -0.22543,-0.24765 -0.42545,-0.24765 -0.27623,0 -0.61278,0.19685 -0.61278,0.7493 0,0.53658 0.29845,0.77152 0.57785,0.77152 0.18415,0 0.3556,-0.10478 0.44768,-0.2667 v 0.127 c 0,0.03493 0.003,0.06985 0.0127,0.10478 h 0.2286 c -0.0127,-0.04127 -0.0127,-0.0889 -0.0127,-0.13335 l -0.003,-1.886 c 0,-0.01905 0,-0.0254 0.0127,-0.04445 0.006,-0.0095 0.019,-0.0254 0.0159,-0.04762 h -0.2413 z m -0.41593,-0.06032 c 0.127,0 0.31433,0.06668 0.37148,0.28258 0.019,0.06668 0.0254,0.14605 0.0254,0.30798 0,0.11112 -0.006,0.1905 -0.0317,0.2667 -0.054,0.17145 -0.20638,0.27305 -0.3556,0.27305 -0.1651,0 -0.40958,-0.127 -0.40958,-0.60325 0,-0.41592 0.23178,-0.52705 0.40005,-0.52705 z"
           id="path258"
           inkscape:connector-curvature="0" />
        <path
           d="m 219.06,59.19 0.11112,0.14605 c 0.12065,-0.12382 0.28258,-0.16192 0.4191,-0.16192 0.17145,0 0.25718,0.07303 0.29845,0.1397 0.0476,0.07937 0.0444,0.17462 0.0444,0.25082 v 0.0508 h -0.0444 c -0.2159,0 -0.4445,0 -0.62865,0.06667 -0.2286,0.08255 -0.3302,0.254 -0.3302,0.41275 0,0.21272 0.18415,0.41275 0.48578,0.41275 0.1778,0 0.36195,-0.06667 0.5207,-0.19685 v 0.15875 h 0.2159 V 59.571 c 0,-0.11748 -0.003,-0.2286 -0.0699,-0.3429 -0.0953,-0.15558 -0.2794,-0.23812 -0.50483,-0.23812 -0.19367,0 -0.381,0.06032 -0.51752,0.20002 z m 0.88265,0.60008 v 0.09842 c 0,0.07303 0,0.16828 -0.0984,0.27305 -0.054,0.05398 -0.1905,0.17145 -0.381,0.17145 -0.19367,0 -0.3048,-0.12382 -0.3048,-0.25082 0,-0.10795 0.073,-0.22542 0.254,-0.26988 0.13335,-0.03175 0.32703,-0.02222 0.47943,-0.02222 z"
           id="path260"
           inkscape:connector-curvature="0" />
        <path
           d="m 220.96,58.631 -0.0286,0.39052 h -0.34608 l -0.003,0.18732 h 0.33972 c -0.0191,0.24765 -0.0286,0.4953 -0.0286,0.73978 0,0.13018 0,0.27622 0.0857,0.39688 0.0699,0.09525 0.18098,0.1524 0.3302,0.1524 0.17145,0 0.33973,-0.07303 0.46355,-0.16192 l -0.0699,-0.18098 c -0.12382,0.09208 -0.23812,0.13335 -0.32702,0.13335 -0.10795,0 -0.21908,-0.06032 -0.24448,-0.23495 0,-0.0127 -0.01,-0.06668 -0.01,-0.2794 0,-0.18732 0.01,-0.37782 0.0286,-0.56515 h 0.47625 v -0.1905 h -0.47307 c 0,0 0.0222,-0.26035 0.0381,-0.3429 0.003,-0.03175 0.0286,-0.0508 0.0159,-0.08572 z"
           id="path262"
           inkscape:connector-curvature="0" />
        <path
           d="m 222.77,58.986 c -0.34607,0 -0.66675,0.24765 -0.66675,0.7747 0,0.48578 0.30163,0.74295 0.69533,0.74295 0.20955,0 0.39687,-0.0762 0.5207,-0.22542 l -0.127,-0.12382 c -0.0921,0.10795 -0.23178,0.1651 -0.37465,0.1651 -0.19368,0 -0.47625,-0.10795 -0.49213,-0.54292 h 1.0287 c 0.01,-0.09842 0.006,-0.19368 -0.01,-0.27622 -0.0667,-0.39052 -0.33655,-0.51435 -0.57468,-0.51435 z m -0.43815,0.61595 c 0.0476,-0.3429 0.2667,-0.44132 0.42228,-0.44132 0.23495,0 0.40322,0.20638 0.37465,0.44132 z"
           id="path264"
           inkscape:connector-curvature="0" />
        <path
           d="m 224.78,58.355 c -0.48895,0.2159 -0.80327,0.71438 -0.80327,1.2954 0,0.57785 0.3048,1.1049 0.80645,1.3684 l 0.10477,-0.16828 c -0.43497,-0.25082 -0.68897,-0.71755 -0.68897,-1.2097 0,-0.45402 0.21907,-0.86042 0.59055,-1.0763 0.006,-0.0064 0.0159,-0.0127 0.0286,-0.0127 0.01,0 0.019,0.0063 0.0318,0.0063 0.006,0 0.0159,-0.0032 0.0286,-0.0063 z"
           id="path266"
           inkscape:connector-curvature="0" />
        <path
           d="m 225.37,58.555 c 0.4191,0.22542 0.6858,0.65722 0.6858,1.1303 0,0.47625 -0.27305,0.92075 -0.70168,1.1462 l 0.0603,0.19368 c 0.52705,-0.25082 0.86677,-0.77788 0.86677,-1.3494 0,-0.56515 -0.33337,-1.0795 -0.8509,-1.3176 z"
           id="path268"
           inkscape:connector-curvature="0" />
      </g>
    </g>
    <path
       d="M 219.57,132.7 H 98.66 V 96.981 h 31.75"
       id="path274"
       inkscape:connector-curvature="0"
       style="fill:none;stroke:#47d58a;stroke-width:0.26458001;stroke-linecap:square" />
    <g
       id="g380">
      <g
         transform="matrix(0.0042365,0,0,0.0043091,129.5,95.795)"
         id="g280"
         style="fill:#47d58a;stroke-width:123.84999847">
        <g
           id="g278"
           style="fill:#47d58a;stroke-width:123.84999847">
          <path
             d="M 486.41,221.41 122.34,12.91 C 69.402,-17.408 26.488,7.47 26.488,68.473 v 415.65 c 0,61.004 42.914,85.882 95.852,55.563 l 364.07,-208.49 c 52.938,-30.317 52.938,-79.473 0,-109.79 z"
             id="path276"
             inkscape:connector-curvature="0"
             style="fill:#47d58a;stroke-width:123.84999847" />
        </g>
      </g>
      <g
         aria-label="addChild()"
         id="g302"
         style="fill:#e8eaec;stroke-width:0.26458001;stroke-linecap:round">
        <path
           d="m 143.39,130.36 0.11112,0.14605 c 0.12065,-0.12382 0.28258,-0.16192 0.4191,-0.16192 0.17145,0 0.25718,0.073 0.29845,0.1397 0.0476,0.0794 0.0444,0.17462 0.0444,0.25082 v 0.0508 h -0.0444 c -0.2159,0 -0.4445,0 -0.62865,0.0667 -0.2286,0.0825 -0.3302,0.254 -0.3302,0.41275 0,0.21272 0.18415,0.41275 0.48578,0.41275 0.1778,0 0.36195,-0.0667 0.5207,-0.19685 v 0.15875 h 0.2159 v -0.89853 c 0,-0.11747 -0.003,-0.2286 -0.0699,-0.3429 -0.0952,-0.15557 -0.2794,-0.23812 -0.50483,-0.23812 -0.19367,0 -0.381,0.0603 -0.51752,0.20002 z m 0.88265,0.60008 v 0.0984 c 0,0.073 0,0.16828 -0.0984,0.27305 -0.054,0.054 -0.1905,0.17145 -0.381,0.17145 -0.19367,0 -0.3048,-0.12382 -0.3048,-0.25082 0,-0.10795 0.073,-0.22543 0.254,-0.26988 0.13335,-0.0317 0.32703,-0.0222 0.47943,-0.0222 z"
           id="path282"
           inkscape:connector-curvature="0" />
        <path
           d="m 145.87,130.4 c -0.0699,-0.14923 -0.22542,-0.24765 -0.42545,-0.24765 -0.27622,0 -0.61277,0.19685 -0.61277,0.7493 0,0.53657 0.29845,0.77152 0.57785,0.77152 0.18415,0 0.3556,-0.10477 0.44767,-0.2667 v 0.127 c 0,0.0349 0.003,0.0699 0.0127,0.10478 h 0.2286 c -0.0127,-0.0413 -0.0127,-0.0889 -0.0127,-0.13335 l -0.003,-1.886 c 0,-0.019 0,-0.0254 0.0127,-0.0445 0.006,-0.01 0.019,-0.0254 0.0159,-0.0476 h -0.2413 z m -0.41592,-0.0603 c 0.127,0 0.31432,0.0667 0.37147,0.28258 0.019,0.0667 0.0254,0.14605 0.0254,0.30797 0,0.11113 -0.006,0.1905 -0.0318,0.2667 -0.054,0.17145 -0.20637,0.27305 -0.3556,0.27305 -0.1651,0 -0.40957,-0.127 -0.40957,-0.60325 0,-0.41592 0.23177,-0.52705 0.40005,-0.52705 z"
           id="path284"
           inkscape:connector-curvature="0" />
        <path
           d="m 147.46,130.4 c -0.0699,-0.14923 -0.22542,-0.24765 -0.42545,-0.24765 -0.27622,0 -0.61277,0.19685 -0.61277,0.7493 0,0.53657 0.29845,0.77152 0.57785,0.77152 0.18415,0 0.3556,-0.10477 0.44767,-0.2667 v 0.127 c 0,0.0349 0.003,0.0699 0.0127,0.10478 h 0.2286 c -0.0127,-0.0413 -0.0127,-0.0889 -0.0127,-0.13335 l -0.003,-1.886 c 0,-0.019 0,-0.0254 0.0127,-0.0445 0.006,-0.01 0.0191,-0.0254 0.0159,-0.0476 h -0.2413 z m -0.41592,-0.0603 c 0.127,0 0.31432,0.0667 0.37147,0.28258 0.0191,0.0667 0.0254,0.14605 0.0254,0.30797 0,0.11113 -0.006,0.1905 -0.0318,0.2667 -0.054,0.17145 -0.20637,0.27305 -0.3556,0.27305 -0.1651,0 -0.40957,-0.127 -0.40957,-0.60325 0,-0.41592 0.23177,-0.52705 0.40005,-0.52705 z"
           id="path286"
           inkscape:connector-curvature="0" />
        <path
           d="m 148.75,129.65 c -0.30797,0 -0.75247,0.22542 -0.75247,1.0192 0,0.762 0.42545,1.0096 0.75247,1.0096 0.23495,0 0.45403,-0.12382 0.57785,-0.32702 l -0.16192,-0.10478 c -0.0921,0.14923 -0.25083,0.23813 -0.40323,0.23813 -0.2921,0 -0.54927,-0.30163 -0.54927,-0.8382 0,-0.52388 0.25082,-0.81915 0.53022,-0.81915 0.1524,0 0.29845,0.0921 0.37783,0.23177 0.006,0.01 0.0127,0.0191 0.0127,0.0318 0,0.01 -0.003,0.0159 -0.003,0.0254 0,0.003 0,0.019 0.0159,0.0286 l 0.20955,-0.1016 c -0.10478,-0.23813 -0.3429,-0.3937 -0.60643,-0.3937 z"
           id="path288"
           inkscape:connector-curvature="0" />
        <path
           d="m 149.68,131.64 h 0.23495 v -0.83503 c 0,-0.0952 0.01,-0.16827 0.0699,-0.24765 0.0572,-0.073 0.19685,-0.2032 0.34925,-0.2032 0.073,0 0.14605,0.0318 0.19685,0.0921 0.0794,0.0952 0.0794,0.21907 0.0794,0.32067 v 0.87313 h 0.22542 v -0.87948 c 0,-0.11112 -0.003,-0.23177 -0.054,-0.34925 -0.073,-0.16192 -0.21908,-0.254 -0.38418,-0.254 -0.19685,0 -0.37782,0.127 -0.4826,0.28893 v -0.84138 c 0,-0.01 0,-0.019 0.01,-0.0286 0.01,-0.01 0.0222,-0.019 0.0222,-0.0349 0,-0.003 0,-0.006 -0.003,-0.01 h -0.26353 z"
           id="path290"
           inkscape:connector-curvature="0" />
        <path
           d="m 151.38,130.19 v 0.18733 h 0.34925 v 1.0827 h -0.3683 v 0.18098 h 0.9398 v -0.18098 h -0.33973 v -1.27 z m 0.4699,-0.62865 c -0.0921,0 -0.1651,0.073 -0.1651,0.16193 0,0.0889 0.073,0.16192 0.1651,0.16192 0.0921,0 0.1651,-0.073 0.1651,-0.16192 0,-0.0889 -0.073,-0.16193 -0.1651,-0.16193 z"
           id="path292"
           inkscape:connector-curvature="0" />
        <path
           d="m 152.9,129.53 v 0.18415 h 0.41275 v 1.7431 h -0.4318 v 0.18098 h 1.089 v -0.18098 h -0.42862 v -1.9272 z"
           id="path294"
           inkscape:connector-curvature="0" />
        <path
           d="m 155.4,130.4 c -0.0699,-0.14923 -0.22542,-0.24765 -0.42545,-0.24765 -0.27622,0 -0.61277,0.19685 -0.61277,0.7493 0,0.53657 0.29845,0.77152 0.57785,0.77152 0.18415,0 0.3556,-0.10477 0.44767,-0.2667 v 0.127 c 0,0.0349 0.003,0.0699 0.0127,0.10478 h 0.2286 c -0.0127,-0.0413 -0.0127,-0.0889 -0.0127,-0.13335 l -0.003,-1.886 c 0,-0.019 0,-0.0254 0.0127,-0.0445 0.006,-0.01 0.0191,-0.0254 0.0159,-0.0476 h -0.2413 z m -0.41592,-0.0603 c 0.127,0 0.31432,0.0667 0.37147,0.28258 0.0191,0.0667 0.0254,0.14605 0.0254,0.30797 0,0.11113 -0.006,0.1905 -0.0318,0.2667 -0.054,0.17145 -0.20637,0.27305 -0.3556,0.27305 -0.1651,0 -0.40957,-0.127 -0.40957,-0.60325 0,-0.41592 0.23177,-0.52705 0.40005,-0.52705 z"
           id="path296"
           inkscape:connector-curvature="0" />
        <path
           d="m 157.05,129.53 c -0.48895,0.2159 -0.80327,0.71437 -0.80327,1.2954 0,0.57785 0.3048,1.1049 0.80645,1.3684 l 0.10477,-0.16827 c -0.43497,-0.25083 -0.68897,-0.71755 -0.68897,-1.2097 0,-0.45402 0.21907,-0.86042 0.59055,-1.0763 0.006,-0.006 0.0159,-0.0127 0.0286,-0.0127 0.01,0 0.019,0.006 0.0317,0.006 0.006,0 0.0159,-0.003 0.0286,-0.006 z"
           id="path298"
           inkscape:connector-curvature="0" />
        <path
           d="m 157.64,129.73 c 0.4191,0.22543 0.6858,0.65723 0.6858,1.1303 0,0.47625 -0.27305,0.92075 -0.70167,1.1462 l 0.0603,0.19367 c 0.52705,-0.25082 0.86678,-0.77787 0.86678,-1.3494 0,-0.56515 -0.33338,-1.0795 -0.8509,-1.3176 z"
           id="path300"
           inkscape:connector-curvature="0" />
      </g>
      <g
         transform="matrix(0.0042365,0,0,0.0043091,217.34,89.18)"
         id="g308"
         style="fill:#47d58a;stroke-width:123.84999847">
        <g
           id="g306"
           style="fill:#47d58a;stroke-width:123.84999847">
          <path
             d="M 486.41,221.41 122.34,12.91 C 69.402,-17.408 26.488,7.47 26.488,68.473 v 415.65 c 0,61.004 42.914,85.882 95.852,55.563 l 364.07,-208.49 c 52.938,-30.317 52.938,-79.473 0,-109.79 z"
             id="path304"
             inkscape:connector-curvature="0"
             style="fill:#47d58a;stroke-width:123.84999847" />
        </g>
      </g>
      <g
         id="g352"
         style="stroke-width:0.26458001;stroke-linecap:round">
        <path
           d="m 222.38,128.2 -2.8112,2.3812 v 3.9688 l 2.8112,2.3812 h 19.513 l 2.8112,-2.3812 v -3.9688 L 241.893,128.2 Z"
           id="path310"
           inkscape:connector-curvature="0"
           style="fill:#1d232d;stroke:#30d2d5" />
        <g
           aria-label="Detached"
           id="g328"
           style="fill:#e8eaec">
          <path
             d="m 225.23,133.76 h 0.6223 c 0.73342,0 1.1335,-0.45191 1.1335,-1.2261 0,-0.77046 -0.40005,-1.2038 -1.1483,-1.2038 h -0.60748 z m 0.31115,-0.25188 v -1.9262 h 0.27411 c 0.57044,0 0.85195,0.34078 0.85195,0.95197 0,0.61489 -0.28151,0.9742 -0.85195,0.9742 z"
             id="path312"
             inkscape:connector-curvature="0" />
          <path
             d="m 227.34,132.86 c 0,0.58897 0.38153,0.94086 0.86307,0.94086 0.24447,0 0.43709,-0.0852 0.59267,-0.18521 l -0.10743,-0.20002 c -0.13335,0.0852 -0.27781,0.14076 -0.4482,0.14076 -0.34449,0 -0.57785,-0.24448 -0.60007,-0.63342 h 1.215 c 0.007,-0.0445 0.0111,-0.10371 0.0111,-0.16668 0,-0.51488 -0.25929,-0.84455 -0.7186,-0.84455 -0.41117,0 -0.80751,0.3593 -0.80751,0.94826 z m 0.29633,-0.13705 c 0.037,-0.36301 0.2667,-0.57044 0.51858,-0.57044 0.28152,0 0.4445,0.20373 0.4445,0.57044 z"
             id="path314"
             inkscape:connector-curvature="0" />
          <path
             d="m 229.31,133.2 c 0,0.3556 0.12964,0.60007 0.51488,0.60007 0.11112,0 0.23336,-0.0333 0.33337,-0.0667 l -0.0593,-0.22966 c -0.0593,0.0222 -0.14075,0.0481 -0.20372,0.0481 -0.20744,0 -0.27782,-0.12594 -0.27782,-0.34819 v -1.0001 h 0.48525 v -0.24818 h -0.48525 v -0.50377 h -0.25558 l -0.037,0.50377 -0.28151,0.0185 v 0.22966 h 0.2667 z"
             id="path316"
             inkscape:connector-curvature="0" />
          <path
             d="m 230.36,133.29 c 0,0.32226 0.22595,0.51117 0.5297,0.51117 0.22225,0 0.42227,-0.11853 0.59637,-0.25929 h 0.007 l 0.0259,0.21484 h 0.25189 v -1.1038 c 0,-0.4482 -0.18521,-0.74083 -0.62601,-0.74083 -0.28892,0 -0.54081,0.12594 -0.70749,0.23336 l 0.12223,0.21114 c 0.14076,-0.0963 0.32597,-0.19262 0.53711,-0.19262 0.29263,0 0.37042,0.22225 0.37042,0.45191 -0.76677,0.0852 -1.1076,0.28151 -1.1076,0.67416 z m 0.30004,-0.0222 c 0,-0.22966 0.20373,-0.37782 0.80751,-0.45191 v 0.50007 c -0.1741,0.15557 -0.31856,0.24077 -0.49266,0.24077 -0.1778,0 -0.31485,-0.0852 -0.31485,-0.28893 z"
             id="path318"
             inkscape:connector-curvature="0" />
          <path
             d="m 232.21,132.86 c 0,0.59637 0.36671,0.94086 0.84455,0.94086 0.21484,0 0.42228,-0.0889 0.58526,-0.23336 l -0.13705,-0.20003 c -0.10743,0.0963 -0.25189,0.18151 -0.42228,0.18151 -0.32967,0 -0.55562,-0.27781 -0.55562,-0.68898 0,-0.41486 0.23706,-0.69638 0.56303,-0.69638 0.14446,0 0.25559,0.0667 0.36301,0.15928 l 0.15187,-0.19632 c -0.12224,-0.11483 -0.28893,-0.21484 -0.52599,-0.21484 -0.46302,0 -0.86678,0.34448 -0.86678,0.94826 z"
             id="path320"
             inkscape:connector-curvature="0" />
          <path
             d="m 234.03,133.76 h 0.30374 v -1.3039 c 0.1815,-0.1815 0.30744,-0.27781 0.49265,-0.27781 0.23707,0 0.34079,0.14446 0.34079,0.48154 v 1.1001 h 0.30374 v -1.1409 c 0,-0.45932 -0.17039,-0.70379 -0.54822,-0.70379 -0.24818,0 -0.42968,0.13335 -0.60007,0.29633 l 0.0111,-0.37042 v -0.71861 h -0.30374 z"
             id="path322"
             inkscape:connector-curvature="0" />
          <path
             d="m 235.91,132.86 c 0,0.58897 0.38153,0.94086 0.86307,0.94086 0.24447,0 0.43709,-0.0852 0.59267,-0.18521 l -0.10743,-0.20002 c -0.13335,0.0852 -0.27781,0.14076 -0.4482,0.14076 -0.34449,0 -0.57785,-0.24448 -0.60007,-0.63342 h 1.215 c 0.007,-0.0445 0.0111,-0.10371 0.0111,-0.16668 0,-0.51488 -0.25929,-0.84455 -0.7186,-0.84455 -0.41117,0 -0.80751,0.3593 -0.80751,0.94826 z m 0.29633,-0.13705 c 0.037,-0.36301 0.2667,-0.57044 0.51858,-0.57044 0.28152,0 0.4445,0.20373 0.4445,0.57044 z"
             id="path324"
             inkscape:connector-curvature="0" />
          <path
             d="m 237.76,132.86 c 0,0.60008 0.29263,0.94086 0.74453,0.94086 0.21114,0 0.40376,-0.11853 0.54452,-0.25559 h 0.0111 l 0.0259,0.21114 h 0.25188 v -2.6374 h -0.30744 v 0.69268 l 0.0148,0.30745 c -0.15928,-0.12965 -0.29633,-0.20743 -0.50376,-0.20743 -0.41117,0 -0.78158,0.363 -0.78158,0.94826 z m 0.31485,-0.004 c 0,-0.41116 0.22966,-0.68898 0.51858,-0.68898 0.14817,0 0.28522,0.0519 0.4371,0.18892 v 0.94085 c -0.14817,0.16669 -0.29263,0.24818 -0.45932,0.24818 -0.31486,0 -0.49636,-0.25929 -0.49636,-0.68897 z"
             id="path326"
             inkscape:connector-curvature="0" />
        </g>
        <path
           d="m 198.31,110.21 -2.8112,2.3812 v 3.9688 l 2.8112,2.3812 h 19.513 l 2.8112,-2.3812 v -3.9688 L 217.823,110.21 Z"
           id="path330"
           inkscape:connector-curvature="0"
           style="fill:#1d232d;stroke:#7b8694" />
        <g
           aria-label="Destroyed"
           id="g350"
           style="fill:#7b8694">
          <path
             d="m 200.9,115.77 h 0.6223 c 0.73342,0 1.1335,-0.45191 1.1335,-1.2261 0,-0.77047 -0.40005,-1.2039 -1.1483,-1.2039 h -0.60748 z m 0.31115,-0.25189 v -1.9262 h 0.2741 c 0.57045,0 0.85196,0.34078 0.85196,0.95197 0,0.61489 -0.28151,0.97419 -0.85196,0.97419 z"
             id="path332"
             inkscape:connector-curvature="0" />
          <path
             d="m 203.01,114.87 c 0,0.58896 0.38153,0.94086 0.86307,0.94086 0.24447,0 0.43709,-0.0852 0.59266,-0.18521 l -0.10742,-0.20003 c -0.13335,0.0852 -0.27781,0.14076 -0.4482,0.14076 -0.34449,0 -0.57785,-0.24447 -0.60008,-0.63341 h 1.215 c 0.007,-0.0444 0.0111,-0.10372 0.0111,-0.16669 0,-0.51488 -0.25929,-0.84455 -0.7186,-0.84455 -0.41117,0 -0.80751,0.35931 -0.80751,0.94827 z m 0.29633,-0.13705 c 0.037,-0.36301 0.2667,-0.57045 0.51858,-0.57045 0.28152,0 0.4445,0.20373 0.4445,0.57045 z"
             id="path334"
             inkscape:connector-curvature="0" />
          <path
             d="m 204.78,115.56 c 0.17039,0.14076 0.41486,0.24818 0.67045,0.24818 0.42598,0 0.65934,-0.24448 0.65934,-0.53711 0,-0.34078 -0.28892,-0.4482 -0.54822,-0.54451 -0.20372,-0.0778 -0.40005,-0.14446 -0.40005,-0.31115 0,-0.13705 0.10372,-0.25929 0.32968,-0.25929 0.15927,0 0.28892,0.0667 0.41116,0.15928 l 0.14446,-0.19262 c -0.13705,-0.11112 -0.33337,-0.20373 -0.55933,-0.20373 -0.38894,0 -0.61859,0.22225 -0.61859,0.51118 0,0.30374 0.28151,0.42598 0.5371,0.51858 0.19632,0.0741 0.41116,0.15558 0.41116,0.34078 0,0.15558 -0.11853,0.28152 -0.3556,0.28152 -0.21484,0 -0.37412,-0.0889 -0.52969,-0.21484 z"
             id="path336"
             inkscape:connector-curvature="0" />
          <path
             d="m 206.59,115.21 c 0,0.3556 0.12965,0.60008 0.51488,0.60008 0.11112,0 0.23336,-0.0333 0.33337,-0.0667 l -0.0593,-0.22966 c -0.0593,0.0222 -0.14076,0.0482 -0.20373,0.0482 -0.20744,0 -0.27781,-0.12594 -0.27781,-0.34819 v -1.0001 h 0.48524 v -0.24818 h -0.48524 v -0.50376 h -0.25559 l -0.037,0.50376 -0.28152,0.0185 v 0.22966 h 0.2667 z"
             id="path338"
             inkscape:connector-curvature="0" />
          <path
             d="m 207.79,115.77 h 0.30375 v -1.1557 c 0.12223,-0.30374 0.30374,-0.41487 0.45561,-0.41487 0.0741,0 0.11483,0.0111 0.17409,0.0296 l 0.0593,-0.2667 c -0.0593,-0.0259 -0.11483,-0.037 -0.19262,-0.037 -0.20372,0 -0.38893,0.14447 -0.51117,0.37042 h -0.0111 l -0.0259,-0.32597 h -0.25189 z"
             id="path340"
             inkscape:connector-curvature="0" />
          <path
             d="m 208.91,114.87 c 0,0.59637 0.39264,0.94086 0.83343,0.94086 0.4408,0 0.83344,-0.34449 0.83344,-0.94086 0,-0.60378 -0.39264,-0.94827 -0.83344,-0.94827 -0.44079,0 -0.83343,0.34449 -0.83343,0.94827 z m 0.31485,0 c 0,-0.41487 0.21114,-0.69638 0.51858,-0.69638 0.31115,0 0.51859,0.28151 0.51859,0.69638 0,0.41116 -0.20744,0.68897 -0.51859,0.68897 -0.30744,0 -0.51858,-0.27781 -0.51858,-0.68897 z"
             id="path342"
             inkscape:connector-curvature="0" />
          <path
             d="m 210.92,116.26 -0.0593,0.24077 c 0.0593,0.0222 0.12965,0.037 0.21114,0.037 0.36301,0 0.54821,-0.27041 0.67416,-0.62601 l 0.67786,-1.9484 h -0.29633 l -0.32227,0.99642 c -0.0482,0.15928 -0.10001,0.34449 -0.15187,0.50747 h -0.0148 c -0.0556,-0.16668 -0.11854,-0.35189 -0.1741,-0.50747 l -0.36671,-0.99642 h -0.31486 l 0.72232,1.8039 -0.0408,0.13335 c -0.0741,0.22225 -0.20373,0.38524 -0.40746,0.38524 -0.0445,0 -0.10001,-0.0148 -0.13705,-0.0259 z"
             id="path344"
             inkscape:connector-curvature="0" />
          <path
             d="m 212.62,114.87 c 0,0.58896 0.38153,0.94086 0.86307,0.94086 0.24448,0 0.43709,-0.0852 0.59267,-0.18521 l -0.10742,-0.20003 c -0.13335,0.0852 -0.27782,0.14076 -0.44821,0.14076 -0.34449,0 -0.57785,-0.24447 -0.60007,-0.63341 h 1.215 c 0.007,-0.0444 0.0111,-0.10372 0.0111,-0.16669 0,-0.51488 -0.2593,-0.84455 -0.71861,-0.84455 -0.41116,0 -0.80751,0.35931 -0.80751,0.94827 z m 0.29633,-0.13705 c 0.037,-0.36301 0.2667,-0.57045 0.51859,-0.57045 0.28151,0 0.4445,0.20373 0.4445,0.57045 z"
             id="path346"
             inkscape:connector-curvature="0" />
          <path
             d="m 214.46,114.87 c 0,0.60007 0.29263,0.94086 0.74453,0.94086 0.21114,0 0.40376,-0.11854 0.54452,-0.25559 h 0.0111 l 0.0259,0.21114 h 0.25188 v -2.6374 h -0.30744 v 0.69268 l 0.0148,0.30745 c -0.15928,-0.12965 -0.29633,-0.20744 -0.50376,-0.20744 -0.41117,0 -0.78158,0.36301 -0.78158,0.94827 z m 0.31485,-0.004 c 0,-0.41117 0.22966,-0.68898 0.51858,-0.68898 0.14817,0 0.28522,0.0519 0.4371,0.18891 v 0.94086 c -0.14817,0.16669 -0.29263,0.24818 -0.45932,0.24818 -0.31486,0 -0.49636,-0.25929 -0.49636,-0.68897 z"
             id="path348"
             inkscape:connector-curvature="0" />
        </g>
      </g>
      <g
         transform="matrix(-0.002579,0.0033611,-0.0034186,-0.0026232,210.34,109.13)"
         id="g358"
         style="fill:#47d58a;stroke-width:123.84999847">
        <g
           id="g356"
           style="fill:#47d58a;stroke-width:123.84999847">
          <path
             d="M 486.41,221.41 122.34,12.91 C 69.402,-17.408 26.488,7.47 26.488,68.473 v 415.65 c 0,61.004 42.914,85.882 95.852,55.563 l 364.07,-208.49 c 52.938,-30.317 52.938,-79.473 0,-109.79 z"
             id="path354"
             inkscape:connector-curvature="0"
             style="fill:#47d58a;stroke-width:123.84999847" />
        </g>
      </g>
      <g
         aria-label="destroy()"
         id="g378"
         style="fill:#e8eaec;stroke-width:0.26458001;stroke-linecap:round">
        <path
           d="m 199.87,101.3 c -0.0699,-0.14922 -0.22543,-0.24765 -0.42545,-0.24765 -0.27623,0 -0.61278,0.19685 -0.61278,0.7493 0,0.53658 0.29845,0.77153 0.57785,0.77153 0.18415,0 0.3556,-0.10478 0.44768,-0.2667 v 0.127 c 0,0.0349 0.003,0.0699 0.0127,0.10477 h 0.2286 c -0.0127,-0.0413 -0.0127,-0.0889 -0.0127,-0.13335 l -0.003,-1.886 c 0,-0.0191 0,-0.0254 0.0127,-0.0444 0.006,-0.01 0.0191,-0.0254 0.0159,-0.0476 h -0.2413 z m -0.41593,-0.0603 c 0.127,0 0.31433,0.0667 0.37148,0.28257 0.0191,0.0667 0.0254,0.14605 0.0254,0.30798 0,0.11112 -0.006,0.1905 -0.0318,0.2667 -0.054,0.17145 -0.20638,0.27305 -0.3556,0.27305 -0.1651,0 -0.40958,-0.127 -0.40958,-0.60325 0,-0.41593 0.23178,-0.52705 0.40005,-0.52705 z"
           id="path360"
           inkscape:connector-curvature="0" />
        <path
           d="m 201.1,101.06 c -0.34607,0 -0.66675,0.24765 -0.66675,0.7747 0,0.48577 0.30163,0.74295 0.69533,0.74295 0.20955,0 0.39687,-0.0762 0.5207,-0.22543 l -0.127,-0.12382 c -0.0921,0.10795 -0.23178,0.1651 -0.37465,0.1651 -0.19368,0 -0.47625,-0.10795 -0.49213,-0.54293 h 1.0287 c 0.01,-0.0984 0.006,-0.19367 -0.01,-0.27622 -0.0667,-0.39053 -0.33655,-0.51435 -0.57468,-0.51435 z m -0.43815,0.61595 c 0.0476,-0.3429 0.2667,-0.44133 0.42228,-0.44133 0.23495,0 0.40322,0.20638 0.37465,0.44133 z"
           id="path362"
           inkscape:connector-curvature="0" />
        <path
           d="m 203.24,101.28 c -0.13335,-0.14605 -0.32702,-0.22542 -0.54292,-0.22542 -0.33655,0 -0.55563,0.18732 -0.55563,0.40322 0,0.254 0.27305,0.34608 0.35243,0.37465 0.12382,0.0444 0.28257,0.0825 0.39052,0.13335 0.12065,0.0571 0.14288,0.13335 0.14288,0.18415 0,0.13653 -0.1651,0.2286 -0.37148,0.2286 -0.24765,0 -0.4064,-0.14922 -0.45402,-0.20002 -0.01,-0.0127 -0.01,-0.0222 -0.01,-0.0349 0,-0.003 0.003,-0.0222 -0.0127,-0.0286 l -0.13335,0.22542 c 0.17145,0.15875 0.3937,0.23178 0.61278,0.23178 0.39687,0 0.60325,-0.23495 0.60325,-0.45403 0,-0.0984 -0.0413,-0.23177 -0.21273,-0.32702 -0.16192,-0.0921 -0.39687,-0.12383 -0.5334,-0.1905 -0.11747,-0.0571 -0.14287,-0.127 -0.14287,-0.1778 0,-0.1143 0.14287,-0.19685 0.3048,-0.19685 0.20955,0 0.34925,0.127 0.40322,0.20002 0.01,0.01 0.006,0.019 0.006,0.0286 0,0.0191 0.0127,0.0254 0.019,0.0254 z"
           id="path364"
           inkscape:connector-curvature="0" />
        <path
           d="m 204.05,100.7 -0.0286,0.39052 h -0.34608 l -0.003,0.18733 h 0.33972 c -0.019,0.24765 -0.0286,0.4953 -0.0286,0.73977 0,0.13018 0,0.27623 0.0857,0.39688 0.0699,0.0953 0.18098,0.1524 0.3302,0.1524 0.17145,0 0.33973,-0.073 0.46355,-0.16193 l -0.0699,-0.18097 c -0.12382,0.0921 -0.23812,0.13335 -0.32702,0.13335 -0.10795,0 -0.21908,-0.0603 -0.24448,-0.23495 0,-0.0127 -0.01,-0.0667 -0.01,-0.2794 0,-0.18733 0.01,-0.37783 0.0286,-0.56515 h 0.47625 v -0.1905 h -0.47307 c 0,0 0.0222,-0.26035 0.0381,-0.3429 0.003,-0.0318 0.0286,-0.0508 0.0159,-0.0857 z"
           id="path366"
           inkscape:connector-curvature="0" />
        <path
           d="m 205.36,101.09 v 1.451 h 0.2286 v -0.70485 c 0,-0.0889 0.003,-0.18415 0.1016,-0.33973 0.13335,-0.20955 0.3048,-0.24447 0.40957,-0.24447 0.12065,0 0.19685,0.0571 0.23813,0.10795 0.019,0.0254 0.0286,0.0508 0.054,0.073 l 0.10795,-0.21907 c -0.0921,-0.0953 -0.22542,-0.15875 -0.38735,-0.15875 -0.21272,0 -0.42862,0.10795 -0.52387,0.31432 l 0.01,-0.2794 z"
           id="path368"
           inkscape:connector-curvature="0" />
        <path
           d="m 208.09,101.82 c 0,-0.50165 -0.3175,-0.762 -0.6477,-0.762 -0.3683,0 -0.6858,0.3175 -0.6858,0.76835 0,0.44133 0.31433,0.75248 0.67945,0.75248 0.3429,0 0.65405,-0.27623 0.65405,-0.75883 z m -0.66357,-0.56832 c 0.20955,0 0.4318,0.18097 0.4318,0.57785 0,0.36512 -0.20955,0.54927 -0.4191,0.54927 -0.23178,0 -0.44133,-0.2159 -0.44133,-0.57467 0,-0.3556 0.20638,-0.55245 0.42863,-0.55245 z"
           id="path370"
           inkscape:connector-curvature="0" />
        <path
           d="m 208.36,101.09 0.59055,1.4446 -0.0476,0.10477 c -0.0254,0.0603 -0.054,0.12065 -0.0984,0.16828 -0.0603,0.0667 -0.13653,0.0952 -0.2032,0.0952 -0.10795,0 -0.16193,-0.073 -0.17145,-0.0857 -0.01,-0.0159 -0.006,-0.0381 -0.0254,-0.054 l -0.11748,0.20637 c 0.0825,0.0794 0.19368,0.12065 0.31433,0.12065 0.13017,0 0.2667,-0.0476 0.36195,-0.15557 0.0635,-0.073 0.0952,-0.14923 0.127,-0.23178 l 0.45085,-1.197 c 0.054,-0.13653 0.1016,-0.27623 0.14605,-0.4191 h -0.23813 c -0.0254,0.13335 -0.0667,0.26035 -0.11112,0.38735 l -0.27623,0.77787 -0.42545,-1.07 c -0.003,-0.01 -0.003,-0.0159 -0.003,-0.0254 0,-0.0222 0.0159,-0.0381 0.0127,-0.0667 z"
           id="path372"
           inkscape:connector-curvature="0" />
        <path
           d="m 211.04,100.42 c -0.48895,0.2159 -0.80328,0.71438 -0.80328,1.2954 0,0.57785 0.3048,1.1049 0.80645,1.3684 l 0.10478,-0.16828 c -0.43498,-0.25082 -0.68898,-0.71755 -0.68898,-1.2097 0,-0.45403 0.21908,-0.86043 0.59055,-1.0763 0.006,-0.006 0.0159,-0.0127 0.0286,-0.0127 0.01,0 0.019,0.006 0.0317,0.006 0.006,0 0.0159,-0.003 0.0286,-0.006 z"
           id="path374"
           inkscape:connector-curvature="0" />
        <path
           d="m 211.64,100.62 c 0.4191,0.22542 0.6858,0.65722 0.6858,1.1303 0,0.47625 -0.27305,0.92075 -0.70168,1.1462 l 0.0603,0.19368 c 0.52705,-0.25083 0.86677,-0.77788 0.86677,-1.3494 0,-0.56515 -0.33337,-1.0795 -0.8509,-1.3176 z"
           id="path376"
           inkscape:connector-curvature="0" />
      </g>
    </g>
  </g>
</svg>
