<svg width="152.3" height="141.42" version="1.1" viewBox="0 0 40.295 37.415" xmlns="http://www.w3.org/2000/svg">
 <g transform="translate(-176.03 -152.75)">
  <g>
   <path d="m196.29 177.98v-12.7" fill="none" stroke="#d54747" stroke-width=".14102"/>
   <path d="m201.9 165.2 2.8222 2.8222" fill="none" stroke="#d54747" stroke-width=".14111"/>
   <rect x="190.62" y="158.22" width="11.289" height="7.0554" fill="#3b390d" fill-opacity=".38431" stroke="#e9e56f" stroke-linecap="round" stroke-width=".084665"/>
  </g>
  <g fill="#e9e56f" stroke-width=".28222px" aria-label="Aesthetics">
   <path d="m191.07 162.47h0.14605l0.12911-0.38734h0.41698l0.14604 0.38523h0.15452l-0.51011-1.3419h-0.0169zm0.66039-0.50163h-0.35771l0.17144-0.50164z"/>
   <path d="m192.64 161.48c-0.23072 0-0.44449 0.16509-0.44449 0.51645 0 0.32384 0.20107 0.49529 0.46354 0.49529 0.13969 0 0.26457-0.0508 0.34712-0.15028l-0.0847-0.0825c-0.0614 0.072-0.15452 0.11007-0.24976 0.11007-0.12912 0-0.3175-0.072-0.32808-0.36195h0.68578c6e-3 -0.0656 4e-3 -0.12911-6e-3 -0.18414-0.0444-0.26035-0.22436-0.34289-0.3831-0.34289zm-0.2921 0.41062c0.0317-0.22859 0.1778-0.29421 0.28151-0.29421 0.15663 0 0.26881 0.13758 0.24976 0.29421z"/>
   <path d="m194.07 161.63c-0.0889-0.0974-0.21801-0.15028-0.36194-0.15028-0.22437 0-0.37041 0.12488-0.37041 0.26881 0 0.16933 0.18203 0.23071 0.23494 0.24976 0.0825 0.0296 0.18838 0.055 0.26035 0.0889 0.0804 0.0381 0.0952 0.0889 0.0952 0.12276 0 0.091-0.11006 0.1524-0.24764 0.1524-0.1651 0-0.27093-0.0995-0.30268-0.13335-6e-3 -8e-3 -6e-3 -0.0148-6e-3 -0.0233 0-2e-3 2e-3 -0.0148-8e-3 -0.019l-0.0889 0.15028c0.1143 0.10583 0.26246 0.15451 0.40851 0.15451 0.26457 0 0.40215-0.15663 0.40215-0.30268 0-0.0656-0.0275-0.15451-0.14181-0.21801-0.10795-0.0614-0.26458-0.0825-0.35559-0.127-0.0783-0.0381-0.0953-0.0847-0.0953-0.11853 0-0.0762 0.0953-0.13123 0.2032-0.13123 0.13969 0 0.23282 0.0847 0.26881 0.13335 6e-3 6e-3 4e-3 0.0127 4e-3 0.019 0 0.0127 8e-3 0.0169 0.0127 0.0169z"/>
   <path d="m194.61 161.24-0.0191 0.26035h-0.23071l-2e-3 0.12488h0.22648c-0.0127 0.1651-0.019 0.33019-0.019 0.49317 0 0.0868 0 0.18415 0.0572 0.26458 0.0466 0.0635 0.12065 0.1016 0.22013 0.1016 0.1143 0 0.22648-0.0487 0.30903-0.10795l-0.0466-0.12065c-0.0825 0.0614-0.15874 0.0889-0.21801 0.0889-0.072 0-0.14605-0.0402-0.16298-0.15663 0-8e-3 -6e-3 -0.0444-6e-3 -0.18626 0-0.12488 6e-3 -0.25188 0.019-0.37676h0.31749v-0.127h-0.31537s0.0148-0.17356 0.0254-0.22859c2e-3 -0.0212 0.019-0.0339 0.0106-0.0571z"/>
   <path d="m195.42 162.46h0.15663v-0.55667c0-0.0635 6e-3 -0.11218 0.0466-0.1651 0.0381-0.0487 0.13123-0.13546 0.23283-0.13546 0.0487 0 0.0974 0.0212 0.13123 0.0614 0.0529 0.0635 0.0529 0.14605 0.0529 0.21378v0.58207h0.15028v-0.58631c0-0.0741-2e-3 -0.15451-0.036-0.23282-0.0487-0.10795-0.14604-0.16933-0.25611-0.16933-0.13123 0-0.25188 0.0847-0.32173 0.19261v-0.56091c0-6e-3 0-0.0127 6e-3 -0.019 6e-3 -6e-3 0.0148-0.0127 0.0148-0.0233 0-2e-3 0-4e-3 -2e-3 -6e-3h-0.17568z"/>
   <path d="m196.88 161.48c-0.23072 0-0.44449 0.16509-0.44449 0.51645 0 0.32384 0.20107 0.49529 0.46354 0.49529 0.13969 0 0.26457-0.0508 0.34712-0.15028l-0.0847-0.0825c-0.0614 0.072-0.15452 0.11007-0.24976 0.11007-0.12912 0-0.3175-0.072-0.32808-0.36195h0.68578c6e-3 -0.0656 4e-3 -0.12911-6e-3 -0.18414-0.0444-0.26035-0.22436-0.34289-0.3831-0.34289zm-0.2921 0.41062c0.0317-0.22859 0.1778-0.29421 0.28151-0.29421 0.15663 0 0.26881 0.13758 0.24976 0.29421z"/>
   <path d="m197.79 161.24-0.019 0.26035h-0.23071l-2e-3 0.12488h0.22648c-0.0127 0.1651-0.0191 0.33019-0.0191 0.49317 0 0.0868 0 0.18415 0.0572 0.26458 0.0466 0.0635 0.12065 0.1016 0.22013 0.1016 0.1143 0 0.22648-0.0487 0.30903-0.10795l-0.0466-0.12065c-0.0825 0.0614-0.15874 0.0889-0.21801 0.0889-0.072 0-0.14605-0.0402-0.16298-0.15663 0-8e-3 -6e-3 -0.0444-6e-3 -0.18626 0-0.12488 6e-3 -0.25188 0.0191-0.37676h0.31749v-0.127h-0.31537s0.0148-0.17356 0.0254-0.22859c2e-3 -0.0212 0.0191-0.0339 0.0106-0.0571z"/>
   <path d="m198.67 161.5v0.12488h0.23283v0.72177h-0.24553v0.12065h0.62652v-0.12065h-0.22648v-0.84665zm0.31326-0.41909c-0.0614 0-0.11006 0.0487-0.11006 0.10795 0 0.0593 0.0487 0.10795 0.11006 0.10795 0.0614 0 0.11006-0.0487 0.11006-0.10795 0-0.0593-0.0487-0.10795-0.11006-0.10795z"/>
   <path d="m200.47 161.66c-0.0762-0.11219-0.20532-0.17992-0.36195-0.17992-0.28362 0-0.4847 0.21378-0.4847 0.50376 0 0.29209 0.20108 0.50799 0.47624 0.50799 0.13335 0 0.26458-0.055 0.35559-0.15452l-0.0868-0.10159c-0.0656 0.0741-0.16086 0.11641-0.25611 0.11641-0.18838 0-0.33231-0.15663-0.33231-0.38311 0-0.22013 0.14181-0.35771 0.31961-0.35771 0.16509 0 0.24341 0.1143 0.24976 0.127 8e-3 0.0148-4e-3 0.036 0.0127 0.0487z"/>
   <path d="m201.48 161.63c-0.0889-0.0974-0.21801-0.15028-0.36194-0.15028-0.22437 0-0.37041 0.12488-0.37041 0.26881 0 0.16933 0.18203 0.23071 0.23494 0.24976 0.0825 0.0296 0.18838 0.055 0.26035 0.0889 0.0804 0.0381 0.0952 0.0889 0.0952 0.12276 0 0.091-0.11006 0.1524-0.24764 0.1524-0.1651 0-0.27093-0.0995-0.30268-0.13335-6e-3 -8e-3 -6e-3 -0.0148-6e-3 -0.0233 0-2e-3 2e-3 -0.0148-8e-3 -0.019l-0.0889 0.15028c0.1143 0.10583 0.26246 0.15451 0.40851 0.15451 0.26457 0 0.40215-0.15663 0.40215-0.30268 0-0.0656-0.0275-0.15451-0.14181-0.21801-0.10795-0.0614-0.26458-0.0825-0.35559-0.127-0.0783-0.0381-0.0952-0.0847-0.0952-0.11853 0-0.0762 0.0952-0.13123 0.2032-0.13123 0.13969 0 0.23282 0.0847 0.26881 0.13335 6e-3 6e-3 4e-3 0.0127 4e-3 0.019 0 0.0127 8e-3 0.0169 0.0127 0.0169z"/>
  </g>
  <g>
   <path d="m204.73 175.02-2.8222 2.8222" fill="none" stroke="#d54747" stroke-width=".14111"/>
   <path d="m190.53 177.83-2.8222-2.8222" fill="none" stroke="#d54747" stroke-width=".14111"/>
   <rect x="190.62" y="177.84" width="11.289" height="7.0554" fill="#3b390d" fill-opacity=".38431" stroke="#e9e56f" stroke-linecap="round" stroke-width=".084665"/>
  </g>
  <g fill="#e9e56f" stroke-width=".28222px" aria-label="Technology">
   <path d="m191.1 180.76v0.13335h0.37253v1.1874h0.15028v-1.1874h0.38946v-0.13335z"/>
   <path d="m192.64 181.09c-0.23072 0-0.44449 0.1651-0.44449 0.51646 0 0.32384 0.20107 0.49529 0.46354 0.49529 0.13969 0 0.26457-0.0508 0.34712-0.15028l-0.0847-0.0825c-0.0614 0.072-0.15452 0.11006-0.24976 0.11006-0.12912 0-0.3175-0.072-0.32808-0.36194h0.68578c6e-3 -0.0656 4e-3 -0.12911-6e-3 -0.18415-0.0444-0.26034-0.22436-0.34289-0.3831-0.34289zm-0.2921 0.41063c0.0317-0.2286 0.1778-0.29421 0.28151-0.29421 0.15663 0 0.26881 0.13758 0.24976 0.29421z"/>
   <path d="m194.12 181.27c-0.0762-0.11218-0.20532-0.17991-0.36195-0.17991-0.28362 0-0.4847 0.21378-0.4847 0.50375 0 0.2921 0.20108 0.50799 0.47624 0.50799 0.13335 0 0.26458-0.055 0.35559-0.15451l-0.0868-0.1016c-0.0656 0.0741-0.16086 0.11642-0.25611 0.11642-0.18838 0-0.33231-0.15663-0.33231-0.38311 0-0.22013 0.14181-0.35771 0.31961-0.35771 0.16509 0 0.24341 0.1143 0.24976 0.127 8e-3 0.0148-4e-3 0.036 0.0127 0.0487z"/>
   <path d="m194.36 182.08h0.15663v-0.55667c0-0.0635 6e-3 -0.11218 0.0466-0.16509 0.0381-0.0487 0.13123-0.13547 0.23283-0.13547 0.0487 0 0.0974 0.0212 0.13123 0.0614 0.0529 0.0635 0.0529 0.14605 0.0529 0.21378v0.58207h0.15028v-0.5863c0-0.0741-2e-3 -0.15451-0.036-0.23283-0.0487-0.10795-0.14604-0.16933-0.25611-0.16933-0.13123 0-0.25188 0.0847-0.32173 0.19261v-0.5609c0-6e-3 0-0.0127 6e-3 -0.019 6e-3 -6e-3 0.0148-0.0127 0.0148-0.0233 0-2e-3 0-4e-3 -2e-3 -6e-3h-0.17568z"/>
   <path d="m195.42 182.08h0.15451v-0.55667c0-0.0635 8e-3 -0.11218 0.0487-0.16509 0.036-0.0487 0.12912-0.13547 0.23072-0.13547 0.0487 0 0.0974 0.0212 0.13123 0.0614 0.0529 0.0635 0.0529 0.14605 0.0529 0.21378v0.58207h0.15028v-0.5863c0-0.0741 0-0.15451-0.0339-0.23283-0.0487-0.10795-0.14817-0.16933-0.25823-0.16933-0.13123 0-0.24976 0.0847-0.32173 0.19261v-0.16932h-0.15451z"/>
   <path d="m197.3 181.6c0-0.33443-0.21166-0.50799-0.43179-0.50799-0.24553 0-0.45719 0.21166-0.45719 0.51222 0 0.29421 0.20955 0.50164 0.45296 0.50164 0.22859 0 0.43602-0.18415 0.43602-0.50587zm-0.44237-0.37888c0.1397 0 0.28786 0.12065 0.28786 0.38523 0 0.24341-0.1397 0.36617-0.27939 0.36617-0.15452 0-0.29421-0.14393-0.29421-0.38311 0-0.23706 0.13758-0.36829 0.28574-0.36829z"/>
   <path d="m197.57 180.67v0.12276h0.27516v1.162h-0.28786v0.12064h0.72601v-0.12064h-0.28575v-1.2848z"/>
   <path d="m199.42 181.6c0-0.33443-0.21166-0.50799-0.43179-0.50799-0.24552 0-0.45719 0.21166-0.45719 0.51222 0 0.29421 0.20955 0.50164 0.45296 0.50164 0.22859 0 0.43602-0.18415 0.43602-0.50587zm-0.44237-0.37888c0.1397 0 0.28786 0.12065 0.28786 0.38523 0 0.24341-0.1397 0.36617-0.27939 0.36617-0.15452 0-0.29421-0.14393-0.29421-0.38311 0-0.23706 0.13758-0.36829 0.28574-0.36829z"/>
   <path d="m199.77 181.41c0-0.11642 0.0974-0.21167 0.21377-0.21167 0.11854 0 0.21378 0.0952 0.21378 0.21167 0 0.11641-0.0952 0.21166-0.21378 0.21166-0.11853 0-0.21377-0.0952-0.21377-0.21166zm0.22224-0.33231c-0.19261 0-0.35982 0.15239-0.35982 0.34077 0 0.10583 0.0529 0.20531 0.14181 0.26246-0.0699 0.0593-0.11007 0.12488-0.11007 0.18627 0 0.0402 0.0169 0.0974 0.0783 0.12911-0.10371 0.0656-0.15663 0.13758-0.15663 0.21378 0 0.10583 0.0974 0.23071 0.43602 0.23071 0.32808 0 0.44661-0.16721 0.44661-0.29633 0-0.0847-0.0487-0.16933-0.15028-0.20954-0.1016-0.0423-0.21801-0.0275-0.32808-0.0275-0.072 0-0.11853-6e-3 -0.13758-0.0127-0.0381-0.0106-0.0593-0.0339-0.0593-0.0635 0-0.0508 0.0593-0.0995 0.0699-0.10794 0.0381 0.0148 0.0804 0.0212 0.12276 0.0212 0.1905 0 0.34713-0.1524 0.34713-0.33019 0-0.0593-0.0169-0.11642-0.0487-0.1651 0.0508-0.0296 0.11007-0.0466 0.16933-0.0466 0.019 0 0.036 2e-3 0.055 6e-3l-0.0169-0.12488c-0.0974-8e-3 -0.19473 0.0233-0.26881 0.0847-0.0614-0.0593-0.14181-0.091-0.23071-0.091zm-0.14605 0.94613c0.036 4e-3 0.0868 8e-3 0.16087 0.0127 0.072 2e-3 0.15028-4e-3 0.20531 4e-3 0.0889 0.0148 0.11641 0.0699 0.11641 0.11218 0 0.0423-0.0254 0.0931-0.091 0.12911-0.072 0.0381-0.1524 0.0423-0.21801 0.0423-0.0444 0-0.127-2e-3 -0.19897-0.0318-0.0783-0.0317-0.0952-0.0847-0.0952-0.11853 0-0.0699 0.0656-0.12065 0.12064-0.15028z"/>
   <path d="m200.66 181.11 0.39369 0.96306-0.0317 0.0699c-0.0169 0.0402-0.036 0.0804-0.0656 0.11218-0.0402 0.0444-0.091 0.0635-0.13546 0.0635-0.072 0-0.10795-0.0487-0.1143-0.0572-6e-3 -0.0106-4e-3 -0.0254-0.0169-0.036l-0.0783 0.13758c0.055 0.0529 0.12912 0.0804 0.20955 0.0804 0.0868 0 0.17779-0.0317 0.24129-0.10372 0.0423-0.0487 0.0635-0.0995 0.0847-0.15451l0.30056-0.79797c0.036-0.091 0.0677-0.18414 0.0974-0.27939h-0.15874c-0.0169 0.0889-0.0445 0.17356-0.0741 0.25823l-0.18414 0.51857-0.28363-0.7133c-2e-3 -6e-3 -2e-3 -0.0106-2e-3 -0.0169 0-0.0148 0.0106-0.0254 8e-3 -0.0444z"/>
  </g>
  <rect x="176.34" y="167.96" width="11.289" height="7.0554" fill="#3b390d" fill-opacity=".38431" stroke="#e9e56f" stroke-linecap="round" stroke-width=".084665"/>
  <g fill="#e9e56f" stroke-width=".28222px" aria-label="Mechanics">
   <path d="m177.41 170.88v1.3208h0.13969v-0.98846l0.2667 0.5228h0.055l0.28574-0.53127v0.99693h0.1397v-1.3208h-0.11007l-0.3323 0.64557-0.32808-0.64557z"/>
   <path d="m178.93 171.21c-0.23071 0-0.44449 0.1651-0.44449 0.51645 0 0.32385 0.20108 0.49529 0.46354 0.49529 0.1397 0 0.26458-0.0508 0.34712-0.15028l-0.0847-0.0825c-0.0614 0.072-0.15451 0.11006-0.24976 0.11006-0.12912 0-0.3175-0.072-0.32808-0.36194h0.68579c6e-3 -0.0656 4e-3 -0.12912-6e-3 -0.18415-0.0444-0.26034-0.22436-0.34289-0.38311-0.34289zm-0.29209 0.41062c0.0317-0.22859 0.17779-0.29421 0.28151-0.29421 0.15663 0 0.26881 0.13758 0.24976 0.29421z"/>
   <path d="m180.4 171.39c-0.0762-0.11218-0.20531-0.17991-0.36194-0.17991-0.28363 0-0.48471 0.21377-0.48471 0.50375 0 0.29209 0.20108 0.50799 0.47624 0.50799 0.13335 0 0.26458-0.055 0.35559-0.15451l-0.0868-0.1016c-0.0656 0.0741-0.16086 0.11641-0.25611 0.11641-0.18838 0-0.33231-0.15663-0.33231-0.38311 0-0.22012 0.14181-0.3577 0.31961-0.3577 0.1651 0 0.24341 0.11429 0.24976 0.12699 8e-3 0.0148-4e-3 0.036 0.0127 0.0487z"/>
   <path d="m180.64 172.2h0.15663v-0.55667c0-0.0635 6e-3 -0.11218 0.0466-0.1651 0.0381-0.0487 0.13123-0.13546 0.23283-0.13546 0.0487 0 0.0974 0.0212 0.13123 0.0614 0.0529 0.0635 0.0529 0.14605 0.0529 0.21378v0.58207h0.15028v-0.5863c0-0.0741-2e-3 -0.15452-0.036-0.23283-0.0487-0.10795-0.14604-0.16933-0.25611-0.16933-0.13123 0-0.25187 0.0847-0.32172 0.19261v-0.5609c0-6e-3 0-0.0127 6e-3 -0.019 6e-3 -6e-3 0.0148-0.0127 0.0148-0.0233 0-2e-3 0-4e-3 -2e-3 -6e-3h-0.17568z"/>
   <path d="m181.75 171.35 0.0741 0.0974c0.0804-0.0825 0.18838-0.10795 0.27939-0.10795 0.1143 0 0.17145 0.0487 0.19896 0.0931 0.0317 0.0529 0.0296 0.11641 0.0296 0.16721v0.0339h-0.0296c-0.14393 0-0.29632 0-0.41909 0.0444-0.15239 0.055-0.22012 0.16933-0.22012 0.27516 0 0.14181 0.12276 0.27516 0.32384 0.27516 0.11853 0 0.24129-0.0444 0.34712-0.13123v0.10583h0.14393v-0.599c0-0.0783-2e-3 -0.1524-0.0466-0.2286-0.0635-0.10371-0.18626-0.15874-0.33654-0.15874-0.12912 0-0.254 0.0402-0.34501 0.13334zm0.58842 0.40004v0.0656c0 0.0487 0 0.11218-0.0656 0.18203-0.036 0.036-0.127 0.1143-0.25399 0.1143-0.12912 0-0.2032-0.0825-0.2032-0.16722 0-0.072 0.0487-0.15028 0.16933-0.17991 0.0889-0.0212 0.21801-0.0148 0.31961-0.0148z"/>
   <path d="m182.76 172.2h0.15451v-0.55667c0-0.0635 8e-3 -0.11218 0.0487-0.1651 0.036-0.0487 0.12911-0.13546 0.23071-0.13546 0.0487 0 0.0974 0.0212 0.13123 0.0614 0.0529 0.0635 0.0529 0.14605 0.0529 0.21378v0.58207h0.15028v-0.5863c0-0.0741 0-0.15452-0.0339-0.23283-0.0487-0.10795-0.14817-0.16933-0.25823-0.16933-0.13123 0-0.24976 0.0847-0.32173 0.19261v-0.16933h-0.15451z"/>
   <path d="m183.9 171.23v0.12488h0.23283v0.72176h-0.24553v0.12065h0.62652v-0.12065h-0.22648v-0.84664zm0.31326-0.4191c-0.0614 0-0.11006 0.0487-0.11006 0.10795 0 0.0593 0.0487 0.10795 0.11006 0.10795 0.0614 0 0.11007-0.0487 0.11007-0.10795 0-0.0593-0.0487-0.10795-0.11007-0.10795z"/>
   <path d="m185.69 171.39c-0.0762-0.11218-0.20531-0.17991-0.36194-0.17991-0.28363 0-0.48471 0.21377-0.48471 0.50375 0 0.29209 0.20108 0.50799 0.47624 0.50799 0.13335 0 0.26458-0.055 0.35559-0.15451l-0.0868-0.1016c-0.0656 0.0741-0.16086 0.11641-0.25611 0.11641-0.18838 0-0.33231-0.15663-0.33231-0.38311 0-0.22012 0.14181-0.3577 0.31961-0.3577 0.1651 0 0.24341 0.11429 0.24976 0.12699 8e-3 0.0148-4e-3 0.036 0.0127 0.0487z"/>
   <path d="m186.7 171.36c-0.0889-0.0974-0.21801-0.15028-0.36194-0.15028-0.22436 0-0.37041 0.12488-0.37041 0.26881 0 0.16933 0.18203 0.23071 0.23495 0.24976 0.0825 0.0296 0.18837 0.055 0.26034 0.0889 0.0804 0.0381 0.0952 0.0889 0.0952 0.12276 0 0.091-0.11007 0.1524-0.24765 0.1524-0.16509 0-0.27092-0.0995-0.30267-0.13335-6e-3 -8e-3 -6e-3 -0.0148-6e-3 -0.0233 0-2e-3 2e-3 -0.0148-8e-3 -0.019l-0.0889 0.15028c0.1143 0.10583 0.26246 0.15451 0.40851 0.15451 0.26458 0 0.40216-0.15663 0.40216-0.30267 0-0.0656-0.0275-0.15452-0.14182-0.21802-0.10794-0.0614-0.26457-0.0825-0.35559-0.12699-0.0783-0.0381-0.0952-0.0847-0.0952-0.11853 0-0.0762 0.0952-0.13123 0.2032-0.13123 0.1397 0 0.23283 0.0847 0.26881 0.13334 6e-3 6e-3 4e-3 0.0127 4e-3 0.0191 0 0.0127 8e-3 0.0169 0.0127 0.0169z"/>
  </g>
  <rect x="204.73" y="167.96" width="11.289" height="7.0554" fill="#3b390d" fill-opacity=".38431" stroke="#e9e56f" stroke-linecap="round" stroke-width=".084665"/>
  <g>
   <g fill="#e9e56f" stroke-width=".28222px" aria-label="Story">
    <path d="m208.87 171.04c-0.0889-0.10794-0.22013-0.16509-0.36406-0.16509-0.23918 0-0.40216 0.15663-0.40216 0.33866 0 0.0762 0.0296 0.17568 0.1397 0.25611 0.12276 0.091 0.31326 0.13546 0.41274 0.19896 0.0868 0.0529 0.11006 0.12276 0.11006 0.18203 0 0.1143-0.0974 0.23918-0.28786 0.23918-0.14393 0-0.25611-0.072-0.31537-0.14605-6e-3 -8e-3 -6e-3 -0.0127-6e-3 -0.0212 0-4e-3 0-0.0169-8e-3 -0.0212l-0.0889 0.15239c0.10372 0.11218 0.25188 0.16933 0.41486 0.16933 0.32173 0 0.44026-0.21589 0.44026-0.38099 0-0.0699-0.0212-0.16086-0.10372-0.23918-0.11429-0.10794-0.30056-0.14604-0.4212-0.21589-0.11007-0.0656-0.13335-0.14393-0.13335-0.19685 0-0.1016 0.0868-0.19261 0.23706-0.19261 0.12276 0 0.21801 0.055 0.26881 0.12911 6e-3 8e-3 4e-3 0.0127 4e-3 0.0212 0 0.0127 6e-3 0.0169 0.0106 0.0169z"/>
    <path d="m209.41 170.97-0.019 0.26034h-0.23071l-2e-3 0.12488h0.22648c-0.0127 0.1651-0.019 0.3302-0.019 0.49317 0 0.0868 0 0.18415 0.0571 0.26458 0.0466 0.0635 0.12065 0.1016 0.22013 0.1016 0.1143 0 0.22648-0.0487 0.30902-0.10795l-0.0466-0.12064c-0.0825 0.0614-0.15875 0.0889-0.21801 0.0889-0.072 0-0.14605-0.0402-0.16298-0.15663 0-8e-3 -6e-3 -0.0444-6e-3 -0.18626 0-0.12488 6e-3 -0.25188 0.019-0.37676h0.31749v-0.12699h-0.31538s0.0148-0.17357 0.0254-0.2286c2e-3 -0.0212 0.019-0.0339 0.0106-0.0572z"/>
    <path d="m211.04 171.72c0-0.33442-0.21166-0.50798-0.43179-0.50798-0.24553 0-0.45719 0.21166-0.45719 0.51222 0 0.29421 0.20955 0.50164 0.45296 0.50164 0.22859 0 0.43602-0.18415 0.43602-0.50588zm-0.44237-0.37887c0.13969 0 0.28786 0.12065 0.28786 0.38522 0 0.24342-0.1397 0.36618-0.2794 0.36618-0.15451 0-0.29421-0.14393-0.29421-0.38311 0-0.23706 0.13758-0.36829 0.28575-0.36829z"/>
    <path d="m211.34 171.24v0.9673h0.1524v-0.46989c0-0.0593 2e-3 -0.12277 0.0677-0.22648 0.0889-0.1397 0.20319-0.16298 0.27304-0.16298 0.0804 0 0.13123 0.0381 0.15875 0.072 0.0127 0.0169 0.019 0.0339 0.036 0.0487l0.072-0.14605c-0.0614-0.0635-0.15028-0.10583-0.25823-0.10583-0.14181 0-0.28574 0.072-0.34924 0.20954l6e-3 -0.18626z"/>
    <path d="m212.28 171.24 0.39369 0.96306-0.0317 0.0699c-0.0169 0.0402-0.036 0.0804-0.0656 0.11218-0.0402 0.0444-0.091 0.0635-0.13546 0.0635-0.072 0-0.10795-0.0487-0.1143-0.0571-6e-3 -0.0106-4e-3 -0.0254-0.0169-0.036l-0.0783 0.13758c0.055 0.0529 0.12911 0.0804 0.20955 0.0804 0.0868 0 0.17779-0.0318 0.24129-0.10371 0.0423-0.0487 0.0635-0.0995 0.0847-0.15452l0.30056-0.79796c0.036-0.091 0.0677-0.18415 0.0974-0.27939h-0.15875c-0.0169 0.0889-0.0445 0.17356-0.0741 0.25822l-0.18414 0.51857-0.28363-0.7133c-2e-3 -6e-3 -2e-3 -0.0106-2e-3 -0.0169 0-0.0148 0.0106-0.0254 8e-3 -0.0445z"/>
   </g>
   <path d="m187.71 171.64h16.933" fill="none" stroke="#d54747" stroke-width=".14111"/>
   <path d="m187.69 168.07 2.8222-2.8222" fill="none" stroke="#d54747" stroke-width=".14111"/>
   <g fill="#e9e56f" stroke-width=".28222px" aria-label="More visible">
    <path d="m189.95 153.1v1.3208h0.1397v-0.98846l0.26669 0.5228h0.055l0.28574-0.53127v0.99693h0.1397v-1.3208h-0.11007l-0.33231 0.64557-0.32807-0.64557z"/>
    <path d="m191.9 153.94c0-0.33443-0.21166-0.50799-0.43179-0.50799-0.24552 0-0.45719 0.21166-0.45719 0.51222 0 0.29421 0.20955 0.50164 0.45296 0.50164 0.22859 0 0.43602-0.18415 0.43602-0.50587zm-0.44237-0.37888c0.1397 0 0.28786 0.12065 0.28786 0.38523 0 0.24341-0.1397 0.36617-0.27939 0.36617-0.15452 0-0.29421-0.14393-0.29421-0.38311 0-0.23706 0.13758-0.36829 0.28574-0.36829z"/>
    <path d="m192.19 153.46v0.9673h0.1524v-0.46989c0-0.0593 2e-3 -0.12276 0.0677-0.22648 0.0889-0.1397 0.2032-0.16298 0.27305-0.16298 0.0804 0 0.13123 0.0381 0.15874 0.072 0.0127 0.0169 0.019 0.0339 0.036 0.0487l0.072-0.14605c-0.0614-0.0635-0.15028-0.10583-0.25823-0.10583-0.14181 0-0.28574 0.072-0.34924 0.20955l6e-3 -0.18627z"/>
    <path d="m193.59 153.43c-0.23072 0-0.44449 0.1651-0.44449 0.51646 0 0.32384 0.20108 0.49529 0.46354 0.49529 0.13969 0 0.26457-0.0508 0.34712-0.15028l-0.0847-0.0825c-0.0614 0.072-0.15452 0.11006-0.24976 0.11006-0.12912 0-0.3175-0.072-0.32808-0.36194h0.68578c6e-3 -0.0656 4e-3 -0.12911-6e-3 -0.18415-0.0444-0.26034-0.22436-0.34289-0.3831-0.34289zm-0.2921 0.41063c0.0317-0.2286 0.1778-0.29421 0.28151-0.29421 0.15663 0 0.26881 0.13758 0.24976 0.29421z"/>
    <path d="m195.24 153.45 0.3831 0.97576h0.12065l0.23495-0.55244c0.0572-0.13546 0.11218-0.27516 0.14393-0.42332h-0.13758c-0.0254 0.14181-0.0762 0.27516-0.13123 0.40216l-0.15452 0.35982-0.27939-0.70695c-2e-3 -4e-3 -4e-3 -8e-3 -4e-3 -0.0127 0-0.0127 0.0106-0.0254 6e-3 -0.0423z"/>
    <path d="m196.44 153.45v0.12488h0.23283v0.72177h-0.24553v0.12064h0.62652v-0.12064h-0.22648v-0.84665zm0.31326-0.41909c-0.0614 0-0.11006 0.0487-0.11006 0.10794 0 0.0593 0.0487 0.10795 0.11006 0.10795 0.0614 0 0.11006-0.0487 0.11006-0.10795 0-0.0593-0.0487-0.10794-0.11006-0.10794z"/>
    <path d="m198.19 153.58c-0.0889-0.0974-0.21801-0.15028-0.36194-0.15028-0.22437 0-0.37041 0.12488-0.37041 0.26881 0 0.16933 0.18203 0.23071 0.23494 0.24976 0.0825 0.0296 0.18838 0.055 0.26035 0.0889 0.0804 0.0381 0.0952 0.0889 0.0952 0.12277 0 0.091-0.11006 0.15239-0.24764 0.15239-0.1651 0-0.27093-0.0995-0.30268-0.13334-6e-3 -8e-3 -6e-3 -0.0148-6e-3 -0.0233 0-2e-3 2e-3 -0.0148-8e-3 -0.019l-0.0889 0.15028c0.1143 0.10583 0.26246 0.15452 0.40851 0.15452 0.26457 0 0.40215-0.15663 0.40215-0.30268 0-0.0656-0.0275-0.15451-0.14181-0.21801-0.10795-0.0614-0.26458-0.0826-0.35559-0.127-0.0783-0.0381-0.0952-0.0847-0.0952-0.11853 0-0.0762 0.0952-0.13123 0.2032-0.13123 0.13969 0 0.23282 0.0847 0.26881 0.13335 6e-3 6e-3 4e-3 0.0127 4e-3 0.019 0 0.0127 8e-3 0.0169 0.0127 0.0169z"/>
    <path d="m198.55 153.45v0.12488h0.23283v0.72177h-0.24553v0.12064h0.62652v-0.12064h-0.22648v-0.84665zm0.31326-0.41909c-0.0614 0-0.11006 0.0487-0.11006 0.10794 0 0.0593 0.0487 0.10795 0.11006 0.10795 0.0614 0 0.11006-0.0487 0.11006-0.10795 0-0.0593-0.0487-0.10794-0.11006-0.10794z"/>
    <path d="m199.51 153.01v1.4076h0.0995l0.0529-0.12699c0.0635 0.0952 0.16933 0.15239 0.28574 0.15239 0.19896 0 0.40427-0.16933 0.40427-0.52069 0-0.33654-0.19896-0.49317-0.38945-0.49317-0.12277 0-0.23707 0.0656-0.29845 0.17145v-0.54186c0-0.0127 2e-3 -0.0169 0.0127-0.0254 4e-3 -2e-3 0.0148-0.0106 0.0127-0.0233zm0.40004 0.55032c0.091 0 0.28363 0.0529 0.28363 0.39581 0 0.29421-0.1905 0.34924-0.28575 0.34924-0.0656 0-0.21166-0.0254-0.23706-0.21166-6e-3 -0.0487-6e-3 -0.10583-6e-3 -0.1905 0-0.0868 4e-3 -0.15028 0.0254-0.20319 0.036-0.0868 0.12488-0.1397 0.22013-0.1397z"/>
    <path d="m200.62 153.02v0.12276h0.27517v1.162h-0.28786v0.12064h0.726v-0.12064h-0.28575v-1.2848z"/>
    <path d="m202.05 153.43c-0.23071 0-0.44449 0.1651-0.44449 0.51646 0 0.32384 0.20108 0.49529 0.46354 0.49529 0.13969 0 0.26457-0.0508 0.34712-0.15028l-0.0847-0.0825c-0.0614 0.072-0.15452 0.11006-0.24976 0.11006-0.12912 0-0.3175-0.072-0.32808-0.36194h0.68579c6e-3 -0.0656 4e-3 -0.12911-6e-3 -0.18415-0.0444-0.26034-0.22437-0.34289-0.38311-0.34289zm-0.2921 0.41063c0.0317-0.2286 0.1778-0.29421 0.28151-0.29421 0.15663 0 0.26881 0.13758 0.24977 0.29421z"/>
   </g>
   <g fill="#e9e56f" stroke-width=".28222px" aria-label="Less visible">
    <path d="m190 188.56v1.3208h0.78949v-0.127h-0.6371v-1.1218c0-0.019 6e-3 -0.0254 0.0127-0.0381 2e-3 -6e-3 8e-3 -0.0169 6e-3 -0.0339z"/>
    <path d="m191.47 188.89c-0.23072 0-0.44449 0.1651-0.44449 0.51646 0 0.32384 0.20108 0.49529 0.46354 0.49529 0.13969 0 0.26457-0.0508 0.34712-0.15028l-0.0847-0.0825c-0.0614 0.072-0.15452 0.11006-0.24976 0.11006-0.12912 0-0.3175-0.072-0.32808-0.36194h0.68578c6e-3 -0.0656 4e-3 -0.12911-6e-3 -0.18415-0.0444-0.26034-0.22436-0.34289-0.3831-0.34289zm-0.2921 0.41063c0.0317-0.2286 0.1778-0.29421 0.28151-0.29421 0.15663 0 0.26881 0.13758 0.24976 0.29421z"/>
    <path d="m192.9 189.04c-0.0889-0.0974-0.21801-0.15028-0.36194-0.15028-0.22437 0-0.37041 0.12488-0.37041 0.26881 0 0.16933 0.18203 0.23071 0.23494 0.24976 0.0825 0.0296 0.18838 0.055 0.26035 0.0889 0.0804 0.0381 0.0952 0.0889 0.0952 0.12277 0 0.091-0.11006 0.15239-0.24764 0.15239-0.1651 0-0.27093-0.0995-0.30268-0.13335-6e-3 -8e-3 -6e-3 -0.0148-6e-3 -0.0233 0-2e-3 2e-3 -0.0148-8e-3 -0.019l-0.0889 0.15028c0.1143 0.10583 0.26246 0.15452 0.40851 0.15452 0.26457 0 0.40215-0.15663 0.40215-0.30268 0-0.0656-0.0275-0.15451-0.14181-0.21801-0.10795-0.0614-0.26458-0.0825-0.35559-0.127-0.0783-0.0381-0.0952-0.0847-0.0952-0.11853 0-0.0762 0.0952-0.13123 0.2032-0.13123 0.13969 0 0.23282 0.0847 0.26881 0.13335 6e-3 6e-3 4e-3 0.0127 4e-3 0.0191 0 0.0127 8e-3 0.0169 0.0127 0.0169z"/>
    <path d="m193.95 189.04c-0.0889-0.0974-0.21801-0.15028-0.36194-0.15028-0.22437 0-0.37041 0.12488-0.37041 0.26881 0 0.16933 0.18203 0.23071 0.23494 0.24976 0.0825 0.0296 0.18838 0.055 0.26035 0.0889 0.0804 0.0381 0.0952 0.0889 0.0952 0.12277 0 0.091-0.11006 0.15239-0.24764 0.15239-0.1651 0-0.27093-0.0995-0.30268-0.13335-6e-3 -8e-3 -6e-3 -0.0148-6e-3 -0.0233 0-2e-3 2e-3 -0.0148-8e-3 -0.019l-0.0889 0.15028c0.1143 0.10583 0.26246 0.15452 0.40851 0.15452 0.26457 0 0.40215-0.15663 0.40215-0.30268 0-0.0656-0.0275-0.15451-0.14181-0.21801-0.10795-0.0614-0.26458-0.0825-0.35559-0.127-0.0783-0.0381-0.0952-0.0847-0.0952-0.11853 0-0.0762 0.0952-0.13123 0.2032-0.13123 0.13969 0 0.23282 0.0847 0.26881 0.13335 6e-3 6e-3 4e-3 0.0127 4e-3 0.0191 0 0.0127 8e-3 0.0169 0.0127 0.0169z"/>
    <path d="m195.24 188.91 0.3831 0.97576h0.12065l0.23495-0.55244c0.0572-0.13546 0.11218-0.27516 0.14393-0.42332h-0.13758c-0.0254 0.14181-0.0762 0.27516-0.13123 0.40216l-0.15452 0.35982-0.27939-0.70695c-2e-3 -4e-3 -4e-3 -8e-3 -4e-3 -0.0127 0-0.0127 0.0106-0.0254 6e-3 -0.0423z"/>
    <path d="m196.44 188.91v0.12488h0.23283v0.72177h-0.24553v0.12064h0.62652v-0.12064h-0.22648v-0.84665zm0.31326-0.41909c-0.0614 0-0.11006 0.0487-0.11006 0.10794 0 0.0593 0.0487 0.10795 0.11006 0.10795 0.0614 0 0.11006-0.0487 0.11006-0.10795 0-0.0593-0.0487-0.10794-0.11006-0.10794z"/>
    <path d="m198.19 189.04c-0.0889-0.0974-0.21801-0.15028-0.36194-0.15028-0.22437 0-0.37041 0.12488-0.37041 0.26881 0 0.16933 0.18203 0.23071 0.23494 0.24976 0.0825 0.0296 0.18838 0.055 0.26035 0.0889 0.0804 0.0381 0.0952 0.0889 0.0952 0.12277 0 0.091-0.11006 0.15239-0.24764 0.15239-0.1651 0-0.27093-0.0995-0.30268-0.13335-6e-3 -8e-3 -6e-3 -0.0148-6e-3 -0.0233 0-2e-3 2e-3 -0.0148-8e-3 -0.019l-0.0889 0.15028c0.1143 0.10583 0.26246 0.15452 0.40851 0.15452 0.26457 0 0.40215-0.15663 0.40215-0.30268 0-0.0656-0.0275-0.15451-0.14181-0.21801-0.10795-0.0614-0.26458-0.0825-0.35559-0.127-0.0783-0.0381-0.0952-0.0847-0.0952-0.11853 0-0.0762 0.0952-0.13123 0.2032-0.13123 0.13969 0 0.23282 0.0847 0.26881 0.13335 6e-3 6e-3 4e-3 0.0127 4e-3 0.0191 0 0.0127 8e-3 0.0169 0.0127 0.0169z"/>
    <path d="m198.55 188.91v0.12488h0.23283v0.72177h-0.24553v0.12064h0.62652v-0.12064h-0.22648v-0.84665zm0.31326-0.41909c-0.0614 0-0.11006 0.0487-0.11006 0.10794 0 0.0593 0.0487 0.10795 0.11006 0.10795 0.0614 0 0.11006-0.0487 0.11006-0.10795 0-0.0593-0.0487-0.10794-0.11006-0.10794z"/>
    <path d="m199.51 188.47v1.4076h0.0995l0.0529-0.12699c0.0635 0.0952 0.16933 0.15239 0.28574 0.15239 0.19896 0 0.40427-0.16933 0.40427-0.52069 0-0.33654-0.19896-0.49317-0.38945-0.49317-0.12277 0-0.23707 0.0656-0.29845 0.17145v-0.54186c0-0.0127 2e-3 -0.0169 0.0127-0.0254 4e-3 -2e-3 0.0148-0.0106 0.0127-0.0233zm0.40004 0.55032c0.091 0 0.28363 0.0529 0.28363 0.39581 0 0.29421-0.1905 0.34924-0.28575 0.34924-0.0656 0-0.21166-0.0254-0.23706-0.21166-6e-3 -0.0487-6e-3 -0.10583-6e-3 -0.1905 0-0.0868 4e-3 -0.15028 0.0254-0.20319 0.036-0.0868 0.12488-0.1397 0.22013-0.1397z"/>
    <path d="m200.62 188.47v0.12276h0.27517v1.162h-0.28786v0.12064h0.726v-0.12064h-0.28575v-1.2848z"/>
    <path d="m202.05 188.89c-0.23071 0-0.44449 0.1651-0.44449 0.51646 0 0.32384 0.20108 0.49529 0.46354 0.49529 0.13969 0 0.26457-0.0508 0.34712-0.15028l-0.0847-0.0825c-0.0614 0.072-0.15452 0.11006-0.24976 0.11006-0.12912 0-0.3175-0.072-0.32808-0.36194h0.68579c6e-3 -0.0656 4e-3 -0.12911-6e-3 -0.18415-0.0444-0.26034-0.22437-0.34289-0.38311-0.34289zm-0.2921 0.41063c0.0317-0.2286 0.1778-0.29421 0.28151-0.29421 0.15663 0 0.26881 0.13758 0.24977 0.29421z"/>
   </g>
  </g>
 </g>
</svg>
