<svg width="150.3" height="133.85" version="1.1" viewBox="0 0 39.766 35.413" xmlns="http://www.w3.org/2000/svg">
 <g transform="translate(-176.97 -153.75)">
  <path d="m196.85 178.72v-12.7" fill="none" stroke="#82d4e5" stroke-width=".14111"/>
  <path d="m191.29 158.96h11.289v7.0556h-11.289z" fill="none" stroke="#f6c9a0" stroke-linecap="round" stroke-width=".084667"/>
  <g fill="#82d4e5" stroke-width=".28222px" aria-label="Aesthetics">
   <path d="m191.74 163.21h0.14605l0.12912-0.38735h0.41698l0.14605 0.38523h0.15452l-0.51012-1.342h-0.0169zm0.6604-0.50165h-0.35772l0.17145-0.50165z"/>
   <path d="m193.31 162.22c-0.23072 0-0.4445 0.1651-0.4445 0.51647 0 0.32385 0.20108 0.4953 0.46355 0.4953 0.1397 0 0.26458-0.0508 0.34713-0.15029l-0.0847-0.0825c-0.0614 0.072-0.15452 0.11007-0.24977 0.11007-0.12912 0-0.3175-0.072-0.32808-0.36195h0.6858c6e-3 -0.0656 4e-3 -0.12912-6e-3 -0.18415-0.0445-0.26035-0.22437-0.3429-0.38312-0.3429zm-0.2921 0.41063c0.0318-0.2286 0.1778-0.29421 0.28152-0.29421 0.15663 0 0.26881 0.13758 0.24976 0.29421z"/>
   <path d="m194.74 162.37c-0.0889-0.0974-0.21801-0.15028-0.36195-0.15028-0.22436 0-0.37041 0.12488-0.37041 0.26882 0 0.16933 0.18203 0.23071 0.23495 0.24976 0.0825 0.0296 0.18838 0.055 0.26035 0.0889 0.0804 0.0381 0.0952 0.0889 0.0952 0.12277 0 0.091-0.11007 0.1524-0.24765 0.1524-0.1651 0-0.27094-0.0995-0.30269-0.13335-6e-3 -8e-3 -6e-3 -0.0148-6e-3 -0.0233 0-2e-3 2e-3 -0.0148-8e-3 -0.019l-0.0889 0.15028c0.1143 0.10583 0.26246 0.15452 0.40851 0.15452 0.26459 0 0.40217-0.15664 0.40217-0.30269 0-0.0656-0.0275-0.15451-0.14182-0.21801-0.10795-0.0614-0.26458-0.0825-0.3556-0.127-0.0783-0.0381-0.0952-0.0847-0.0952-0.11854 0-0.0762 0.0952-0.13123 0.2032-0.13123 0.1397 0 0.23284 0.0847 0.26882 0.13335 6e-3 6e-3 4e-3 0.0127 4e-3 0.0191 0 0.0127 8e-3 0.0169 0.0127 0.0169z"/>
   <path d="m195.28 161.98-0.019 0.26035h-0.23072l-2e-3 0.12489h0.22648c-0.0127 0.1651-0.0191 0.3302-0.0191 0.49318 0 0.0868 0 0.18415 0.0572 0.26458 0.0466 0.0635 0.12065 0.1016 0.22013 0.1016 0.1143 0 0.22649-0.0487 0.30904-0.10795l-0.0466-0.12065c-0.0826 0.0614-0.15875 0.0889-0.21802 0.0889-0.072 0-0.14605-0.0402-0.16298-0.15663 0-8e-3 -6e-3 -0.0444-6e-3 -0.18627 0-0.12488 6e-3 -0.25188 0.0191-0.37676h0.3175v-0.127h-0.31538s0.0148-0.17357 0.0254-0.2286c2e-3 -0.0212 0.0191-0.0339 0.0106-0.0572z"/>
   <path d="m196.09 163.21h0.15663v-0.55668c0-0.0635 6e-3 -0.11218 0.0466-0.1651 0.0381-0.0487 0.13123-0.13547 0.23283-0.13547 0.0487 0 0.0974 0.0212 0.13124 0.0614 0.0529 0.0635 0.0529 0.14605 0.0529 0.21378v0.58208h0.15029v-0.58631c0-0.0741-2e-3 -0.15452-0.036-0.23284-0.0487-0.10795-0.14605-0.16933-0.25611-0.16933-0.13124 0-0.25189 0.0847-0.32174 0.19262v-0.56092c0-6e-3 0-0.0127 6e-3 -0.019 6e-3 -6e-3 0.0148-0.0127 0.0148-0.0233 0-2e-3 0-4e-3 -2e-3 -6e-3h-0.17568z"/>
   <path d="m197.55 162.22c-0.23071 0-0.4445 0.1651-0.4445 0.51647 0 0.32385 0.20109 0.4953 0.46355 0.4953 0.1397 0 0.26459-0.0508 0.34714-0.15029l-0.0847-0.0825c-0.0614 0.072-0.15452 0.11007-0.24977 0.11007-0.12911 0-0.3175-0.072-0.32808-0.36195h0.6858c6e-3 -0.0656 4e-3 -0.12912-6e-3 -0.18415-0.0445-0.26035-0.22437-0.3429-0.38312-0.3429zm-0.2921 0.41063c0.0317-0.2286 0.1778-0.29421 0.28152-0.29421 0.15663 0 0.26882 0.13758 0.24977 0.29421z"/>
   <path d="m198.46 161.98-0.0191 0.26035h-0.23072l-2e-3 0.12489h0.22648c-0.0127 0.1651-0.019 0.3302-0.019 0.49318 0 0.0868 0 0.18415 0.0572 0.26458 0.0466 0.0635 0.12065 0.1016 0.22013 0.1016 0.1143 0 0.22649-0.0487 0.30904-0.10795l-0.0466-0.12065c-0.0825 0.0614-0.15875 0.0889-0.21802 0.0889-0.072 0-0.14605-0.0402-0.16298-0.15663 0-8e-3 -6e-3 -0.0444-6e-3 -0.18627 0-0.12488 6e-3 -0.25188 0.019-0.37676h0.3175v-0.127h-0.31538s0.0148-0.17357 0.0254-0.2286c2e-3 -0.0212 0.019-0.0339 0.0106-0.0572z"/>
   <path d="m199.34 162.24v0.12488h0.23283v0.72178h-0.24553v0.12065h0.62653v-0.12065h-0.22648v-0.84666zm0.31326-0.4191c-0.0614 0-0.11006 0.0487-0.11006 0.10795 0 0.0593 0.0487 0.10795 0.11006 0.10795 0.0614 0 0.11007-0.0487 0.11007-0.10795 0-0.0593-0.0487-0.10795-0.11007-0.10795z"/>
   <path d="m201.14 162.4c-0.0762-0.11218-0.20531-0.17991-0.36195-0.17991-0.28363 0-0.48471 0.21378-0.48471 0.50376 0 0.2921 0.20108 0.508 0.47625 0.508 0.13335 0 0.26458-0.055 0.3556-0.15451l-0.0868-0.1016c-0.0656 0.0741-0.16086 0.11641-0.25611 0.11641-0.18839 0-0.33232-0.15663-0.33232-0.38311 0-0.22014 0.14182-0.35772 0.31962-0.35772 0.1651 0 0.24341 0.1143 0.24976 0.127 8e-3 0.0148-4e-3 0.036 0.0127 0.0487z"/>
   <path d="m202.15 162.37c-0.0889-0.0974-0.21802-0.15028-0.36195-0.15028-0.22437 0-0.37042 0.12488-0.37042 0.26882 0 0.16933 0.18203 0.23071 0.23495 0.24976 0.0826 0.0296 0.18838 0.055 0.26035 0.0889 0.0804 0.0381 0.0952 0.0889 0.0952 0.12277 0 0.091-0.11007 0.1524-0.24765 0.1524-0.1651 0-0.27093-0.0995-0.30268-0.13335-6e-3 -8e-3 -6e-3 -0.0148-6e-3 -0.0233 0-2e-3 2e-3 -0.0148-8e-3 -0.019l-0.0889 0.15028c0.1143 0.10583 0.26247 0.15452 0.40852 0.15452 0.26458 0 0.40216-0.15664 0.40216-0.30269 0-0.0656-0.0275-0.15451-0.14181-0.21801-0.10795-0.0614-0.26459-0.0825-0.3556-0.127-0.0783-0.0381-0.0952-0.0847-0.0952-0.11854 0-0.0762 0.0952-0.13123 0.2032-0.13123 0.1397 0 0.23283 0.0847 0.26881 0.13335 6e-3 6e-3 4e-3 0.0127 4e-3 0.0191 0 0.0127 8e-3 0.0169 0.0127 0.0169z"/>
  </g>
  <path d="m191.29 178.58h11.289v7.0556h-11.289z" fill="none" stroke="#f6c9a0" stroke-linecap="round" stroke-width=".084667"/>
  <g fill="#82d4e5" stroke-width=".28222px" aria-label="Technology">
   <path d="m191.78 181.5v0.13335h0.37254v1.1874h0.15028v-1.1874h0.38947v-0.13335z"/>
   <path d="m193.31 181.83c-0.23072 0-0.4445 0.1651-0.4445 0.51647 0 0.32385 0.20108 0.4953 0.46355 0.4953 0.1397 0 0.26458-0.0508 0.34713-0.15029l-0.0847-0.0825c-0.0614 0.072-0.15452 0.11007-0.24977 0.11007-0.12912 0-0.3175-0.072-0.32808-0.36195h0.6858c6e-3 -0.0656 4e-3 -0.12912-6e-3 -0.18415-0.0445-0.26035-0.22437-0.3429-0.38312-0.3429zm-0.2921 0.41063c0.0318-0.2286 0.1778-0.29421 0.28152-0.29421 0.15663 0 0.26881 0.13758 0.24976 0.29421z"/>
   <path d="m194.79 182.01c-0.0762-0.11218-0.20531-0.17991-0.36195-0.17991-0.28363 0-0.48471 0.21378-0.48471 0.50376 0 0.2921 0.20108 0.508 0.47625 0.508 0.13335 0 0.26458-0.055 0.3556-0.15451l-0.0868-0.1016c-0.0656 0.0741-0.16086 0.11641-0.25611 0.11641-0.18839 0-0.33232-0.15663-0.33232-0.38311 0-0.22014 0.14182-0.35772 0.31962-0.35772 0.1651 0 0.24341 0.1143 0.24976 0.127 8e-3 0.0148-4e-3 0.036 0.0127 0.0487z"/>
   <path d="m195.03 182.82h0.15663v-0.55668c0-0.0635 6e-3 -0.11218 0.0466-0.1651 0.0381-0.0487 0.13123-0.13547 0.23283-0.13547 0.0487 0 0.0974 0.0212 0.13123 0.0614 0.0529 0.0635 0.0529 0.14605 0.0529 0.21378v0.58208h0.15028v-0.58631c0-0.0741-2e-3 -0.15452-0.036-0.23284-0.0487-0.10795-0.14605-0.16933-0.25612-0.16933-0.13123 0-0.25188 0.0847-0.32173 0.19262v-0.56092c0-6e-3 0-0.0127 6e-3 -0.019 6e-3 -6e-3 0.0148-0.0127 0.0148-0.0233 0-2e-3 0-4e-3 -2e-3 -6e-3h-0.17568z"/>
   <path d="m196.09 182.82h0.15452v-0.55668c0-0.0635 8e-3 -0.11218 0.0487-0.1651 0.036-0.0487 0.12912-0.13547 0.23072-0.13547 0.0487 0 0.0974 0.0212 0.13123 0.0614 0.0529 0.0635 0.0529 0.14605 0.0529 0.21378v0.58208h0.15028v-0.58631c0-0.0741 0-0.15452-0.0339-0.23284-0.0487-0.10795-0.14817-0.16933-0.25824-0.16933-0.13123 0-0.24976 0.0847-0.32173 0.19262v-0.16934h-0.15452z"/>
   <path d="m197.97 182.34c0-0.33444-0.21167-0.508-0.4318-0.508-0.24553 0-0.4572 0.21166-0.4572 0.51223 0 0.29422 0.20955 0.50165 0.45297 0.50165 0.2286 0 0.43603-0.18415 0.43603-0.50588zm-0.44238-0.37889c0.1397 0 0.28786 0.12065 0.28786 0.38524 0 0.24341-0.1397 0.36618-0.2794 0.36618-0.15451 0-0.29421-0.14393-0.29421-0.38312 0-0.23706 0.13758-0.3683 0.28575-0.3683z"/>
   <path d="m198.24 181.41v0.12276h0.27516v1.162h-0.28786v0.12065h0.72601v-0.12065h-0.28575v-1.2848z"/>
   <path d="m200.09 182.34c0-0.33444-0.21167-0.508-0.4318-0.508-0.24554 0-0.4572 0.21166-0.4572 0.51223 0 0.29422 0.20955 0.50165 0.45296 0.50165 0.2286 0 0.43604-0.18415 0.43604-0.50588zm-0.44239-0.37889c0.1397 0 0.28787 0.12065 0.28787 0.38524 0 0.24341-0.1397 0.36618-0.2794 0.36618-0.15452 0-0.29422-0.14393-0.29422-0.38312 0-0.23706 0.13759-0.3683 0.28575-0.3683z"/>
   <path d="m200.44 182.16c0-0.11642 0.0974-0.21167 0.21378-0.21167 0.11853 0 0.21378 0.0952 0.21378 0.21167 0 0.11642-0.0952 0.21167-0.21378 0.21167-0.11853 0-0.21378-0.0952-0.21378-0.21167zm0.22225-0.33232c-0.19262 0-0.35984 0.1524-0.35984 0.34079 0 0.10583 0.0529 0.20531 0.14182 0.26246-0.0699 0.0593-0.11007 0.12489-0.11007 0.18627 0 0.0402 0.0169 0.0974 0.0783 0.12912-0.10372 0.0656-0.15663 0.13758-0.15663 0.21378 0 0.10583 0.0974 0.23072 0.43603 0.23072 0.32808 0 0.44662-0.16722 0.44662-0.29634 0-0.0847-0.0487-0.16933-0.15029-0.20955-0.1016-0.0423-0.21801-0.0275-0.32808-0.0275-0.072 0-0.11853-6e-3 -0.13758-0.0127-0.0381-0.0106-0.0593-0.0339-0.0593-0.0635 0-0.0508 0.0593-0.0995 0.0699-0.10795 0.0381 0.0148 0.0804 0.0212 0.12277 0.0212 0.1905 0 0.34713-0.1524 0.34713-0.3302 0-0.0593-0.0169-0.11641-0.0487-0.1651 0.0508-0.0296 0.11006-0.0466 0.16933-0.0466 0.019 0 0.036 2e-3 0.055 6e-3l-0.0169-0.12489c-0.0974-8e-3 -0.19473 0.0233-0.26882 0.0847-0.0614-0.0593-0.14181-0.091-0.23071-0.091zm-0.14605 0.94615c0.036 4e-3 0.0868 8e-3 0.16086 0.0127 0.072 2e-3 0.15029-4e-3 0.20532 4e-3 0.0889 0.0148 0.11642 0.0699 0.11642 0.11218 0 0.0423-0.0254 0.0931-0.091 0.12912-0.072 0.0381-0.1524 0.0423-0.21802 0.0423-0.0445 0-0.127-2e-3 -0.19896-0.0318-0.0783-0.0317-0.0953-0.0847-0.0953-0.11853 0-0.0699 0.0656-0.12065 0.12065-0.15029z"/>
   <path d="m201.33 181.85 0.3937 0.96309-0.0318 0.0699c-0.0169 0.0402-0.036 0.0804-0.0656 0.11218-0.0402 0.0444-0.091 0.0635-0.13547 0.0635-0.072 0-0.10795-0.0487-0.1143-0.0572-6e-3 -0.0106-4e-3 -0.0254-0.0169-0.036l-0.0783 0.13758c0.055 0.0529 0.12912 0.0804 0.20955 0.0804 0.0868 0 0.1778-0.0317 0.2413-0.10371 0.0423-0.0487 0.0635-0.0995 0.0847-0.15452l0.30057-0.79798c0.036-0.091 0.0677-0.18415 0.0974-0.2794h-0.15875c-0.0169 0.0889-0.0444 0.17356-0.0741 0.25823l-0.18415 0.51858-0.28363-0.71331c-2e-3 -6e-3 -2e-3 -0.0106-2e-3 -0.0169 0-0.0148 0.0106-0.0254 8e-3 -0.0444z"/>
  </g>
  <path d="m177.01 168.7h11.289v7.0556h-11.289z" fill="none" stroke="#f6c9a0" stroke-linecap="round" stroke-width=".084667"/>
  <g fill="#82d4e5" stroke-width=".28222px" aria-label="Mechanics">
   <path d="m178.08 171.62v1.3208h0.1397v-0.98849l0.2667 0.52282h0.055l0.28575-0.53128v0.99695h0.1397v-1.3208h-0.11006l-0.33232 0.64558-0.32808-0.64558z"/>
   <path d="m179.6 171.95c-0.23072 0-0.4445 0.1651-0.4445 0.51646 0 0.32385 0.20108 0.4953 0.46355 0.4953 0.1397 0 0.26458-0.0508 0.34713-0.15028l-0.0847-0.0825c-0.0614 0.072-0.15451 0.11007-0.24976 0.11007-0.12912 0-0.3175-0.072-0.32809-0.36195h0.6858c6e-3 -0.0656 4e-3 -0.12912-6e-3 -0.18415-0.0445-0.26035-0.22436-0.3429-0.38311-0.3429zm-0.2921 0.41063c0.0318-0.2286 0.1778-0.29422 0.28151-0.29422 0.15664 0 0.26882 0.13759 0.24977 0.29422z"/>
   <path d="m181.07 172.14c-0.0762-0.11218-0.20532-0.17992-0.36195-0.17992-0.28363 0-0.48472 0.21379-0.48472 0.50377 0 0.2921 0.20109 0.508 0.47625 0.508 0.13335 0 0.26459-0.055 0.3556-0.15452l-0.0868-0.1016c-0.0656 0.0741-0.16087 0.11642-0.25612 0.11642-0.18838 0-0.33231-0.15663-0.33231-0.38312 0-0.22013 0.14181-0.35771 0.31961-0.35771 0.1651 0 0.24342 0.1143 0.24977 0.127 8e-3 0.0148-4e-3 0.036 0.0127 0.0487z"/>
   <path d="m181.31 172.94h0.15664v-0.55668c0-0.0635 6e-3 -0.11219 0.0466-0.1651 0.0381-0.0487 0.13124-0.13547 0.23284-0.13547 0.0487 0 0.0974 0.0212 0.13123 0.0614 0.0529 0.0635 0.0529 0.14605 0.0529 0.21379v0.58208h0.15028v-0.58632c0-0.0741-2e-3 -0.15451-0.036-0.23283-0.0487-0.10795-0.14605-0.16933-0.25612-0.16933-0.13123 0-0.25188 0.0847-0.32173 0.19261v-0.56091c0-6e-3 0-0.0127 6e-3 -0.019 6e-3 -6e-3 0.0148-0.0127 0.0148-0.0233 0-2e-3 0-4e-3 -2e-3 -6e-3h-0.17569z"/>
   <path d="m182.42 172.09 0.0741 0.0974c0.0804-0.0826 0.18838-0.10795 0.2794-0.10795 0.1143 0 0.17145 0.0487 0.19897 0.0931 0.0318 0.0529 0.0296 0.11642 0.0296 0.16722v0.0339h-0.0296c-0.14394 0-0.29634 0-0.4191 0.0445-0.1524 0.055-0.22014 0.16933-0.22014 0.27516 0 0.14182 0.12277 0.27517 0.32385 0.27517 0.11854 0 0.2413-0.0445 0.34714-0.13123v0.10583h0.14393v-0.59902c0-0.0783-2e-3 -0.1524-0.0466-0.2286-0.0635-0.10371-0.18626-0.15875-0.33655-0.15875-0.12911 0-0.254 0.0402-0.34501 0.13335zm0.58843 0.40005v0.0656c0 0.0487 0 0.11218-0.0656 0.18203-0.036 0.036-0.127 0.1143-0.254 0.1143-0.12911 0-0.2032-0.0825-0.2032-0.16721 0-0.072 0.0487-0.15029 0.16934-0.17992 0.0889-0.0212 0.21801-0.0148 0.31961-0.0148z"/>
   <path d="m183.43 172.94h0.15452v-0.55668c0-0.0635 8e-3 -0.11219 0.0487-0.1651 0.036-0.0487 0.12912-0.13547 0.23072-0.13547 0.0487 0 0.0974 0.0212 0.13123 0.0614 0.0529 0.0635 0.0529 0.14605 0.0529 0.21379v0.58208h0.15028v-0.58632c0-0.0741 0-0.15451-0.0339-0.23283-0.0487-0.10795-0.14817-0.16933-0.25824-0.16933-0.13123 0-0.24976 0.0847-0.32173 0.19261v-0.16933h-0.15452z"/>
   <path d="m184.57 171.97v0.12489h0.23283v0.72178h-0.24553v0.12065h0.62653v-0.12065h-0.22648v-0.84667zm0.31327-0.4191c-0.0614 0-0.11007 0.0487-0.11007 0.10795 0 0.0593 0.0487 0.10795 0.11007 0.10795 0.0614 0 0.11006-0.0487 0.11006-0.10795 0-0.0593-0.0487-0.10795-0.11006-0.10795z"/>
   <path d="m186.37 172.14c-0.0762-0.11218-0.20532-0.17992-0.36195-0.17992-0.28364 0-0.48472 0.21379-0.48472 0.50377 0 0.2921 0.20108 0.508 0.47625 0.508 0.13335 0 0.26458-0.055 0.3556-0.15452l-0.0868-0.1016c-0.0656 0.0741-0.16087 0.11642-0.25612 0.11642-0.18838 0-0.33232-0.15663-0.33232-0.38312 0-0.22013 0.14182-0.35771 0.31962-0.35771 0.1651 0 0.24342 0.1143 0.24977 0.127 8e-3 0.0148-4e-3 0.036 0.0127 0.0487z"/>
   <path d="m187.37 172.1c-0.0889-0.0974-0.21802-0.15028-0.36195-0.15028-0.22437 0-0.37042 0.12488-0.37042 0.26881 0 0.16934 0.18204 0.23072 0.23495 0.24977 0.0825 0.0296 0.18839 0.055 0.26035 0.0889 0.0804 0.0381 0.0953 0.0889 0.0953 0.12277 0 0.091-0.11006 0.1524-0.24765 0.1524-0.1651 0-0.27093-0.0995-0.30268-0.13335-6e-3 -8e-3 -6e-3 -0.0148-6e-3 -0.0233 0-2e-3 2e-3 -0.0148-8e-3 -0.0191l-0.0889 0.15029c0.1143 0.10583 0.26247 0.15451 0.40852 0.15451 0.26458 0 0.40217-0.15663 0.40217-0.30268 0-0.0656-0.0275-0.15452-0.14182-0.21802-0.10795-0.0614-0.26458-0.0825-0.3556-0.127-0.0783-0.0381-0.0952-0.0847-0.0952-0.11853 0-0.0762 0.0952-0.13123 0.2032-0.13123 0.1397 0 0.23283 0.0847 0.26882 0.13335 6e-3 6e-3 4e-3 0.0127 4e-3 0.019 0 0.0127 8e-3 0.0169 0.0127 0.0169z"/>
  </g>
  <path d="m205.4 168.7h11.289v7.0556h-11.289z" fill="none" stroke="#f6c9a0" stroke-linecap="round" stroke-width=".084667"/>
  <g fill="#82d4e5" stroke-width=".28222px" aria-label="Story">
   <path d="m209.54 171.78c-0.0889-0.10795-0.22014-0.1651-0.36407-0.1651-0.23918 0-0.40217 0.15663-0.40217 0.33866 0 0.0762 0.0296 0.17569 0.1397 0.25612 0.12277 0.091 0.31327 0.13547 0.41275 0.19897 0.0868 0.0529 0.11007 0.12276 0.11007 0.18203 0 0.1143-0.0974 0.23918-0.28787 0.23918-0.14393 0-0.25611-0.072-0.31538-0.14605-6e-3 -8e-3 -6e-3 -0.0127-6e-3 -0.0212 0-4e-3 0-0.0169-8e-3 -0.0212l-0.0889 0.1524c0.10372 0.11218 0.25189 0.16933 0.41487 0.16933 0.32173 0 0.44027-0.2159 0.44027-0.381 0-0.0698-0.0212-0.16086-0.10372-0.23918-0.1143-0.10795-0.30057-0.14605-0.42122-0.2159-0.11006-0.0656-0.13335-0.14393-0.13335-0.19685 0-0.1016 0.0868-0.19262 0.23707-0.19262 0.12277 0 0.21802 0.055 0.26882 0.12912 6e-3 8e-3 4e-3 0.0127 4e-3 0.0212 0 0.0127 6e-3 0.0169 0.0106 0.0169z"/>
   <path d="m210.08 171.72-0.019 0.26035h-0.23072l-2e-3 0.12488h0.22648c-0.0127 0.1651-0.0191 0.3302-0.0191 0.49319 0 0.0868 0 0.18415 0.0572 0.26458 0.0466 0.0635 0.12065 0.1016 0.22013 0.1016 0.1143 0 0.22649-0.0487 0.30904-0.10795l-0.0466-0.12065c-0.0825 0.0614-0.15875 0.0889-0.21802 0.0889-0.072 0-0.14605-0.0402-0.16298-0.15663 0-8e-3 -6e-3 -0.0445-6e-3 -0.18627 0-0.12488 6e-3 -0.25188 0.0191-0.37677h0.3175v-0.127h-0.31538s0.0148-0.17356 0.0254-0.2286c2e-3 -0.0212 0.019-0.0339 0.0106-0.0571z"/>
   <path d="m211.72 172.46c0-0.33443-0.21167-0.508-0.4318-0.508-0.24554 0-0.4572 0.21167-0.4572 0.51224 0 0.29421 0.20955 0.50165 0.45296 0.50165 0.2286 0 0.43604-0.18415 0.43604-0.50589zm-0.44239-0.37888c0.1397 0 0.28787 0.12065 0.28787 0.38523 0 0.24342-0.1397 0.36619-0.2794 0.36619-0.15452 0-0.29422-0.14394-0.29422-0.38312 0-0.23707 0.13759-0.3683 0.28575-0.3683z"/>
   <path d="m212.01 171.98v0.96732h0.1524v-0.4699c0-0.0593 2e-3 -0.12277 0.0677-0.22649 0.0889-0.1397 0.2032-0.16298 0.27305-0.16298 0.0804 0 0.13123 0.0381 0.15875 0.072 0.0127 0.0169 0.019 0.0339 0.036 0.0487l0.072-0.14605c-0.0614-0.0635-0.15029-0.10583-0.25824-0.10583-0.14181 0-0.28575 0.072-0.34925 0.20955l6e-3 -0.18627z"/>
   <path d="m212.95 171.98 0.3937 0.96308-0.0317 0.0699c-0.0169 0.0402-0.036 0.0804-0.0656 0.11219-0.0402 0.0445-0.091 0.0635-0.13547 0.0635-0.072 0-0.10795-0.0487-0.1143-0.0572-6e-3 -0.0106-4e-3 -0.0254-0.0169-0.036l-0.0783 0.13759c0.055 0.0529 0.12912 0.0804 0.20955 0.0804 0.0868 0 0.1778-0.0317 0.2413-0.10372 0.0423-0.0487 0.0635-0.0995 0.0847-0.15451l0.30057-0.79799c0.036-0.091 0.0677-0.18415 0.0974-0.2794h-0.15875c-0.0169 0.0889-0.0445 0.17357-0.0741 0.25824l-0.18415 0.51858-0.28363-0.71332c-2e-3 -6e-3 -2e-3 -0.0106-2e-3 -0.0169 0-0.0148 0.0106-0.0254 8e-3 -0.0444z"/>
  </g>
  <g fill="none" stroke="#82d4e5" stroke-width=".14111">
   <path d="m188.38 172.39h16.933"/>
   <path d="m188.38 168.84 2.8222-2.8222"/>
   <path d="m202.49 166.02 2.8222 2.8222"/>
   <path d="m205.32 175.9-2.8222 2.8222"/>
   <path d="m191.2 178.72-2.8222-2.8222"/>
  </g>
  <g fill="#f6c9a0" stroke-width=".28222px" aria-label="More visible">
   <path d="m190.62 153.84v1.3208h0.1397v-0.98849l0.2667 0.52282h0.055l0.28575-0.53128v0.99695h0.1397v-1.3208h-0.11007l-0.33231 0.64558-0.32809-0.64558z"/>
   <path d="m192.57 154.68c0-0.33443-0.21167-0.508-0.4318-0.508-0.24553 0-0.4572 0.21167-0.4572 0.51224 0 0.29421 0.20955 0.50165 0.45297 0.50165 0.2286 0 0.43603-0.18415 0.43603-0.50589zm-0.44238-0.37888c0.1397 0 0.28786 0.12065 0.28786 0.38523 0 0.24342-0.1397 0.36619-0.2794 0.36619-0.15451 0-0.29421-0.14394-0.29421-0.38312 0-0.23707 0.13758-0.3683 0.28575-0.3683z"/>
   <path d="m192.86 154.2v0.96732h0.1524v-0.4699c0-0.0593 2e-3 -0.12277 0.0677-0.22649 0.0889-0.1397 0.2032-0.16298 0.27305-0.16298 0.0804 0 0.13123 0.0381 0.15875 0.072 0.0127 0.0169 0.0191 0.0339 0.036 0.0487l0.072-0.14605c-0.0614-0.0635-0.15028-0.10583-0.25823-0.10583-0.14182 0-0.28575 0.072-0.34925 0.20955l6e-3 -0.18627z"/>
   <path d="m194.26 154.17c-0.23072 0-0.4445 0.1651-0.4445 0.51646 0 0.32385 0.20108 0.4953 0.46355 0.4953 0.1397 0 0.26458-0.0508 0.34713-0.15028l-0.0847-0.0825c-0.0614 0.072-0.15452 0.11007-0.24977 0.11007-0.12912 0-0.3175-0.072-0.32808-0.36195h0.6858c6e-3 -0.0656 4e-3 -0.12912-6e-3 -0.18415-0.0444-0.26035-0.22437-0.3429-0.38312-0.3429zm-0.2921 0.41063c0.0318-0.2286 0.1778-0.29422 0.28152-0.29422 0.15663 0 0.26881 0.13759 0.24976 0.29422z"/>
   <path d="m195.91 154.19 0.38311 0.97579h0.12065l0.23495-0.55245c0.0572-0.13547 0.11219-0.27517 0.14394-0.42334h-0.13759c-0.0254 0.14182-0.0762 0.27517-0.13123 0.40217l-0.15452 0.35983-0.2794-0.70696c-2e-3 -4e-3 -4e-3 -8e-3 -4e-3 -0.0127 0-0.0127 0.0106-0.0254 6e-3 -0.0423z"/>
   <path d="m197.11 154.19v0.12489h0.23283v0.72178h-0.24553v0.12065h0.62653v-0.12065h-0.22648v-0.84667zm0.31326-0.4191c-0.0614 0-0.11006 0.0487-0.11006 0.10795 0 0.0593 0.0487 0.10795 0.11006 0.10795 0.0614 0 0.11007-0.0487 0.11007-0.10795 0-0.0593-0.0487-0.10795-0.11007-0.10795z"/>
   <path d="m198.86 154.32c-0.0889-0.0974-0.21801-0.15028-0.36195-0.15028-0.22436 0-0.37041 0.12488-0.37041 0.26881 0 0.16934 0.18203 0.23072 0.23495 0.24977 0.0825 0.0296 0.18838 0.055 0.26035 0.0889 0.0804 0.0381 0.0952 0.0889 0.0952 0.12277 0 0.091-0.11007 0.1524-0.24765 0.1524-0.1651 0-0.27094-0.0995-0.30269-0.13335-6e-3 -8e-3 -6e-3 -0.0148-6e-3 -0.0233 0-2e-3 2e-3 -0.0148-8e-3 -0.0191l-0.0889 0.15029c0.1143 0.10583 0.26246 0.15451 0.40851 0.15451 0.26459 0 0.40217-0.15663 0.40217-0.30268 0-0.0656-0.0275-0.15452-0.14182-0.21802-0.10795-0.0614-0.26458-0.0825-0.3556-0.127-0.0783-0.0381-0.0953-0.0847-0.0953-0.11853 0-0.0762 0.0953-0.13123 0.2032-0.13123 0.1397 0 0.23284 0.0847 0.26882 0.13335 6e-3 6e-3 4e-3 0.0127 4e-3 0.019 0 0.0127 8e-3 0.0169 0.0127 0.0169z"/>
   <path d="m199.23 154.19v0.12489h0.23284v0.72178h-0.24554v0.12065h0.62654v-0.12065h-0.22649v-0.84667zm0.31327-0.4191c-0.0614 0-0.11007 0.0487-0.11007 0.10795 0 0.0593 0.0487 0.10795 0.11007 0.10795 0.0614 0 0.11007-0.0487 0.11007-0.10795 0-0.0593-0.0487-0.10795-0.11007-0.10795z"/>
   <path d="m200.19 153.75v1.4076h0.0995l0.0529-0.127c0.0635 0.0952 0.16934 0.1524 0.28575 0.1524 0.19897 0 0.40429-0.16933 0.40429-0.5207 0-0.33655-0.19897-0.49318-0.38947-0.49318-0.12277 0-0.23707 0.0656-0.29845 0.17145v-0.54187c0-0.0127 2e-3 -0.0169 0.0127-0.0254 4e-3 -2e-3 0.0148-0.0106 0.0127-0.0233zm0.40005 0.55033c0.091 0 0.28364 0.0529 0.28364 0.39582 0 0.29421-0.1905 0.34925-0.28575 0.34925-0.0656 0-0.21167-0.0254-0.23707-0.21167-6e-3 -0.0487-6e-3 -0.10583-6e-3 -0.1905 0-0.0868 4e-3 -0.15028 0.0254-0.2032 0.036-0.0868 0.12488-0.1397 0.22013-0.1397z"/>
   <path d="m201.3 153.76v0.12277h0.27517v1.162h-0.28787v0.12065h0.72602v-0.12065h-0.28575v-1.2848z"/>
   <path d="m202.72 154.17c-0.23072 0-0.4445 0.1651-0.4445 0.51646 0 0.32385 0.20108 0.4953 0.46355 0.4953 0.1397 0 0.26458-0.0508 0.34713-0.15028l-0.0847-0.0825c-0.0614 0.072-0.15451 0.11007-0.24976 0.11007-0.12912 0-0.3175-0.072-0.32809-0.36195h0.6858c6e-3 -0.0656 4e-3 -0.12912-6e-3 -0.18415-0.0445-0.26035-0.22436-0.3429-0.38311-0.3429zm-0.2921 0.41063c0.0318-0.2286 0.1778-0.29422 0.28151-0.29422 0.15664 0 0.26882 0.13759 0.24977 0.29422z"/>
  </g>
  <g fill="#f6c9a0" stroke-width=".28222px" aria-label="Less visible">
   <path d="m190.96 187.82v1.3208h0.78952v-0.127h-0.63712v-1.1218c0-0.019 6e-3 -0.0254 0.0127-0.0381 2e-3 -6e-3 8e-3 -0.0169 6e-3 -0.0339z"/>
   <path d="m192.42 188.15c-0.23072 0-0.4445 0.1651-0.4445 0.51647 0 0.32385 0.20108 0.4953 0.46355 0.4953 0.1397 0 0.26458-0.0508 0.34713-0.15029l-0.0847-0.0825c-0.0614 0.072-0.15451 0.11007-0.24976 0.11007-0.12912 0-0.3175-0.072-0.32809-0.36195h0.6858c6e-3 -0.0656 4e-3 -0.12912-6e-3 -0.18415-0.0445-0.26035-0.22436-0.3429-0.38311-0.3429zm-0.2921 0.41063c0.0318-0.2286 0.1778-0.29421 0.28151-0.29421 0.15664 0 0.26882 0.13758 0.24977 0.29421z"/>
   <path d="m193.85 188.3c-0.0889-0.0974-0.21802-0.15028-0.36195-0.15028-0.22437 0-0.37042 0.12488-0.37042 0.26882 0 0.16933 0.18204 0.23071 0.23495 0.24976 0.0825 0.0296 0.18839 0.055 0.26035 0.0889 0.0804 0.0381 0.0952 0.0889 0.0952 0.12277 0 0.091-0.11006 0.1524-0.24765 0.1524-0.1651 0-0.27093-0.0995-0.30268-0.13335-6e-3 -8e-3 -6e-3 -0.0148-6e-3 -0.0233 0-2e-3 2e-3 -0.0148-8e-3 -0.019l-0.0889 0.15028c0.1143 0.10583 0.26247 0.15452 0.40852 0.15452 0.26458 0 0.40217-0.15664 0.40217-0.30269 0-0.0656-0.0275-0.15451-0.14182-0.21801-0.10795-0.0614-0.26458-0.0825-0.3556-0.127-0.0783-0.0381-0.0952-0.0847-0.0952-0.11854 0-0.0762 0.0952-0.13123 0.2032-0.13123 0.1397 0 0.23283 0.0847 0.26882 0.13335 6e-3 6e-3 4e-3 0.0127 4e-3 0.019 0 0.0127 8e-3 0.0169 0.0127 0.0169z"/>
   <path d="m194.91 188.3c-0.0889-0.0974-0.21801-0.15028-0.36195-0.15028-0.22436 0-0.37041 0.12488-0.37041 0.26882 0 0.16933 0.18203 0.23071 0.23495 0.24976 0.0825 0.0296 0.18838 0.055 0.26035 0.0889 0.0804 0.0381 0.0952 0.0889 0.0952 0.12277 0 0.091-0.11007 0.1524-0.24765 0.1524-0.1651 0-0.27094-0.0995-0.30269-0.13335-6e-3 -8e-3 -6e-3 -0.0148-6e-3 -0.0233 0-2e-3 2e-3 -0.0148-8e-3 -0.019l-0.0889 0.15028c0.1143 0.10583 0.26246 0.15452 0.40851 0.15452 0.26459 0 0.40217-0.15664 0.40217-0.30269 0-0.0656-0.0275-0.15451-0.14182-0.21801-0.10795-0.0614-0.26458-0.0825-0.3556-0.127-0.0783-0.0381-0.0952-0.0847-0.0952-0.11854 0-0.0762 0.0952-0.13123 0.2032-0.13123 0.1397 0 0.23284 0.0847 0.26882 0.13335 6e-3 6e-3 4e-3 0.0127 4e-3 0.019 0 0.0127 8e-3 0.0169 0.0127 0.0169z"/>
   <path d="m196.19 188.17 0.38312 0.97578h0.12065l0.23495-0.55245c0.0572-0.13547 0.11218-0.27517 0.14393-0.42333h-0.13758c-0.0254 0.14181-0.0762 0.27516-0.13124 0.40216l-0.15451 0.35984-0.2794-0.70697c-2e-3 -4e-3 -4e-3 -8e-3 -4e-3 -0.0127 0-0.0127 0.0106-0.0254 6e-3 -0.0423z"/>
   <path d="m197.39 188.17v0.12488h0.23283v0.72178h-0.24553v0.12065h0.62653v-0.12065h-0.22648v-0.84666zm0.31326-0.4191c-0.0614 0-0.11006 0.0487-0.11006 0.10795 0 0.0593 0.0487 0.10795 0.11006 0.10795 0.0614 0 0.11007-0.0487 0.11007-0.10795 0-0.0593-0.0487-0.10795-0.11007-0.10795z"/>
   <path d="m199.14 188.3c-0.0889-0.0974-0.21801-0.15028-0.36194-0.15028-0.22437 0-0.37042 0.12488-0.37042 0.26882 0 0.16933 0.18203 0.23071 0.23495 0.24976 0.0826 0.0296 0.18838 0.055 0.26035 0.0889 0.0804 0.0381 0.0952 0.0889 0.0952 0.12277 0 0.091-0.11007 0.1524-0.24765 0.1524-0.1651 0-0.27093-0.0995-0.30268-0.13335-6e-3 -8e-3 -6e-3 -0.0148-6e-3 -0.0233 0-2e-3 2e-3 -0.0148-8e-3 -0.019l-0.0889 0.15028c0.1143 0.10583 0.26247 0.15452 0.40852 0.15452 0.26458 0 0.40216-0.15664 0.40216-0.30269 0-0.0656-0.0275-0.15451-0.14182-0.21801-0.10794-0.0614-0.26458-0.0825-0.35559-0.127-0.0783-0.0381-0.0952-0.0847-0.0952-0.11854 0-0.0762 0.0952-0.13123 0.2032-0.13123 0.1397 0 0.23283 0.0847 0.26881 0.13335 6e-3 6e-3 4e-3 0.0127 4e-3 0.019 0 0.0127 8e-3 0.0169 0.0127 0.0169z"/>
   <path d="m199.51 188.17v0.12488h0.23283v0.72178h-0.24553v0.12065h0.62653v-0.12065h-0.22648v-0.84666zm0.31326-0.4191c-0.0614 0-0.11006 0.0487-0.11006 0.10795 0 0.0593 0.0487 0.10795 0.11006 0.10795 0.0614 0 0.11007-0.0487 0.11007-0.10795 0-0.0593-0.0487-0.10795-0.11007-0.10795z"/>
   <path d="m200.47 187.73v1.4076h0.0995l0.0529-0.127c0.0635 0.0953 0.16933 0.1524 0.28575 0.1524 0.19896 0 0.40428-0.16933 0.40428-0.5207 0-0.33655-0.19897-0.49318-0.38947-0.49318-0.12276 0-0.23706 0.0656-0.29845 0.17145v-0.54187c0-0.0127 2e-3 -0.0169 0.0127-0.0254 4e-3 -2e-3 0.0148-0.0106 0.0127-0.0233zm0.40005 0.55033c0.091 0 0.28363 0.0529 0.28363 0.39582 0 0.29422-0.1905 0.34925-0.28575 0.34925-0.0656 0-0.21167-0.0254-0.23707-0.21167-6e-3 -0.0487-6e-3 -0.10583-6e-3 -0.1905 0-0.0868 4e-3 -0.15028 0.0254-0.2032 0.036-0.0868 0.12489-0.1397 0.22014-0.1397z"/>
   <path d="m201.58 187.74v0.12276h0.27516v1.162h-0.28786v0.12065h0.72601v-0.12065h-0.28575v-1.2848z"/>
   <path d="m203.01 188.15c-0.23072 0-0.4445 0.1651-0.4445 0.51647 0 0.32385 0.20108 0.4953 0.46355 0.4953 0.1397 0 0.26458-0.0508 0.34713-0.15029l-0.0847-0.0825c-0.0614 0.072-0.15452 0.11007-0.24977 0.11007-0.12912 0-0.3175-0.072-0.32808-0.36195h0.6858c6e-3 -0.0656 4e-3 -0.12912-6e-3 -0.18415-0.0445-0.26035-0.22437-0.3429-0.38312-0.3429zm-0.2921 0.41063c0.0317-0.2286 0.1778-0.29421 0.28152-0.29421 0.15663 0 0.26881 0.13758 0.24976 0.29421z"/>
  </g>
 </g>
</svg>
