<svg width="517.51" height="256.58" version="1.1" viewBox="0 0 136.92 67.889" xmlns="http://www.w3.org/2000/svg">
 <g fill="none" stroke-linecap="square">
  <g stroke="#6f8ce9" stroke-miterlimit="40" stroke-width=".26459">
   <path d="m0.13042 21.729v12.954"/>
   <path d="m2.8141 21.729v12.954"/>
   <path d="m5.4978 21.729v12.954"/>
   <path d="m8.1816 21.729v12.954"/>
   <path d="m10.865 21.729v12.954"/>
   <path d="m13.549 21.729v12.954"/>
   <path d="m16.233 21.729v12.954"/>
  </g>
  <path d="m19.047 28.201h16.03" stroke="#47d58a" stroke-dashoffset="1.2" stroke-width=".26459"/>
 </g>
 <g transform="matrix(.0031775 0 0 -.0032319 34.265 29.068)" fill="#47d58a" stroke-width="82.566">
  <g fill="#47d58a" stroke-width="82.566">
   <path d="m486.41 221.41-364.07-208.5c-52.938-30.318-95.852-5.44-95.852 55.563v415.65c0 61.004 42.914 85.882 95.852 55.563l364.07-208.49c52.938-30.317 52.938-79.473 0-109.79z" fill="#47d58a" stroke-width="82.566"/>
  </g>
 </g>
 <path d="m18.916 21.729v12.954" fill="none" stroke="#6f8ce9" stroke-linecap="square" stroke-miterlimit="40" stroke-width=".26459"/>
 <g fill="#e8eaec">
  <rect x="1.7406" y="21.454" width="2.147" height="8.0964"/>
  <rect x="4.4244" y="21.454" width="2.147" height="8.0964"/>
  <rect x="9.7918" y="21.454" width="2.147" height="8.0964"/>
  <rect x="12.475" y="21.454" width="2.147" height="8.0964"/>
  <rect x="15.159" y="21.454" width="2.147" height="8.0964"/>
  <path d="m0.13042 21.454h18.786" stroke="#6f8ce9" stroke-linecap="square" stroke-miterlimit="40" stroke-width=".26459"/>
  <path d="m18.916 34.683h-18.786" stroke="#6f8ce9" stroke-linecap="square" stroke-miterlimit="40" stroke-width=".26459"/>
 </g>
 <path d="m51.856 28.201h16.03" fill="none" stroke="#47d58a" stroke-dashoffset="1.2" stroke-linecap="square" stroke-width=".26459"/>
 <g>
  <path d="m36.247 21.586h15.611v12.965h-15.611z" fill="#1d232d" stroke="#009244" stroke-linecap="round" stroke-width=".26459"/>
  <g fill="#e8eaec" stroke-linecap="round" stroke-width=".26459" aria-label="VCO">
   <path d="m41.872 29.582h0.30798l0.66042-2.0829h-0.26988l-0.33338 1.124c-0.06985 0.24766-0.12383 0.44451-0.20003 0.689h-0.0127c-0.0762-0.24448-0.127-0.44134-0.20003-0.689l-0.33656-1.124h-0.27941z"/>
   <path d="m42.958 28.541c0 0.67947 0.39054 1.0795 0.91443 1.0795 0.26353 0 0.46991-0.11113 0.63184-0.30163l-0.14923-0.16193c-0.13335 0.14923-0.27941 0.23178-0.47626 0.23178-0.39689 0-0.64772-0.33021-0.64772-0.8541 0-0.51754 0.26353-0.8414 0.66042-0.8414 0.17146 0 0.30481 0.0762 0.41594 0.19368l0.14923-0.16828c-0.12383-0.13653-0.32068-0.25718-0.56834-0.25718-0.53342 0-0.9303 0.40959-0.9303 1.0795z"/>
   <path d="m45.556 29.62c0.52071 0 0.88902-0.41911 0.88902-1.0891 0-0.66359-0.36831-1.07-0.88902-1.07-0.52389 0-0.8922 0.40324-0.8922 1.07 0 0.66994 0.36831 1.0891 0.8922 1.0891zm0-0.23178c-0.37466 0-0.61914-0.33656-0.61914-0.85727 0-0.51754 0.24448-0.83822 0.61914-0.83822 0.37148 0 0.61597 0.32068 0.61597 0.83822 0 0.52071-0.24448 0.85727-0.61597 0.85727z"/>
  </g>
  <g transform="matrix(.0031775 0 0 -.0032319 67.075 29.068)" fill="#47d58a" stroke-width="82.566">
   <g fill="#47d58a" stroke-width="82.566">
    <path d="m486.41 221.41-364.07-208.5c-52.938-30.318-95.852-5.44-95.852 55.563v415.65c0 61.004 42.914 85.882 95.852 55.563l364.07-208.49c52.938-30.317 52.938-79.473 0-109.79z" fill="#47d58a" stroke-width="82.566"/>
   </g>
  </g>
 </g>
 <path d="m84.93 28.201h16.03" fill="none" stroke="#47d58a" stroke-dashoffset="1.2" stroke-linecap="square" stroke-width=".26459"/>
 <g>
  <g transform="matrix(.0031775 0 0 -.0032319 100.15 29.068)" fill="#47d58a" stroke-width="82.566">
   <g fill="#47d58a" stroke-width="82.566">
    <path d="m486.41 221.41-364.07-208.5c-52.938-30.318-95.852-5.44-95.852 55.563v415.65c0 61.004 42.914 85.882 95.852 55.563l364.07-208.49c52.938-30.317 52.938-79.473 0-109.79z" fill="#47d58a" stroke-width="82.566"/>
   </g>
  </g>
  <g stroke-linecap="round" stroke-width=".26459">
   <path d="m69.056 21.586h15.611v12.965h-15.611z" fill="#1d232d" stroke="#009244"/>
   <g fill="#e8eaec" aria-label="VCF">
    <path d="m74.905 29.582h0.30798l0.66042-2.0829h-0.26988l-0.33338 1.124c-0.06985 0.24766-0.12383 0.44451-0.20003 0.689h-0.0127c-0.0762-0.24448-0.127-0.44134-0.20003-0.689l-0.33656-1.124h-0.27941z"/>
    <path d="m75.991 28.541c0 0.67947 0.39054 1.0795 0.91443 1.0795 0.26353 0 0.46991-0.11113 0.63184-0.30163l-0.14923-0.16193c-0.13335 0.14923-0.27941 0.23178-0.47626 0.23178-0.39689 0-0.64772-0.33021-0.64772-0.8541 0-0.51754 0.26353-0.8414 0.66042-0.8414 0.17146 0 0.30481 0.0762 0.41594 0.19368l0.14923-0.16828c-0.12383-0.13653-0.32068-0.25718-0.56834-0.25718-0.53342 0-0.9303 0.40959-0.9303 1.0795z"/>
    <path d="m77.91 29.582h0.26671v-0.93348h0.79377v-0.22226h-0.79377v-0.70487h0.93665v-0.22226h-1.2034z"/>
   </g>
   <path d="m102.13 21.493 11.642 6.4825-11.642 6.4825z" fill="#1d232d" stroke="#009244"/>
   <g fill="#e8eaec" aria-label="VCA">
    <path d="m104.46 29.49h0.30798l0.66042-2.0829h-0.26988l-0.33339 1.124c-0.0699 0.24766-0.12383 0.44451-0.20003 0.689h-0.0127c-0.0762-0.24448-0.127-0.44134-0.20003-0.689l-0.33656-1.124h-0.27941z"/>
    <path d="m105.55 28.448c0 0.67947 0.39053 1.0795 0.91442 1.0795 0.26354 0 0.46992-0.11113 0.63185-0.30163l-0.14923-0.16193c-0.13336 0.14923-0.27941 0.23178-0.47627 0.23178-0.39688 0-0.64771-0.33021-0.64771-0.8541 0-0.51754 0.26353-0.8414 0.66042-0.8414 0.17145 0 0.3048 0.0762 0.41593 0.19368l0.14923-0.16828c-0.12383-0.13653-0.32068-0.25718-0.56834-0.25718-0.53342 0-0.9303 0.40959-0.9303 1.0795z"/>
    <path d="m107.73 28.642 0.1016-0.31751c0.073-0.23178 0.13971-0.46039 0.20638-0.7017h0.0127c0.0667 0.24131 0.13336 0.46991 0.20639 0.7017l0.0984 0.31751zm0.8922 0.84775h0.27941l-0.70487-2.0829h-0.29846l-0.70487 2.0829h0.26988l0.20003-0.63502h0.75885z"/>
   </g>
   <path d="m84.667 46.59h-15.611v9.2607h15.611z" fill="#1d232d" stroke="#009244"/>
   <g fill="#e8eaec" aria-label="EG">
    <path d="m75.266 52.774h1.2319v-0.22543h-0.96523v-0.75567h0.78742v-0.22543h-0.78742v-0.65407h0.93348v-0.22226h-1.2002z"/>
    <path d="m76.801 51.732c0 0.67947 0.39054 1.0795 0.93665 1.0795 0.27941 0 0.51119-0.10795 0.64772-0.24131v-0.87632h-0.68264v0.21908h0.44134v0.54294c-0.08255 0.0762-0.22861 0.12383-0.37784 0.12383-0.44451 0-0.69217-0.33021-0.69217-0.8541 0-0.51754 0.26988-0.8414 0.69217-0.8414 0.20638 0 0.33656 0.08255 0.44134 0.19368l0.1524-0.16828c-0.12383-0.127-0.31433-0.25718-0.59692-0.25718-0.55882 0-0.96205 0.40959-0.96205 1.0795z"/>
   </g>
  </g>
 </g>
 <path d="m76.842 46.329v-11.267" fill="none" stroke="#47d58a" stroke-dashoffset="1.2" stroke-linecap="square" stroke-width=".26459"/>
 <g transform="matrix(0 -.0031775 .0032319 0 75.95 36.333)" fill="#47d58a" stroke-width="82.566">
  <g fill="#47d58a" stroke-width="82.566">
   <path d="m486.41 221.41-364.07-208.5c-52.938-30.318-95.852-5.44-95.852 55.563v415.65c0 61.004 42.914 85.882 95.852 55.563l364.07-208.49c52.938-30.317 52.938-79.473 0-109.79z" fill="#47d58a" stroke-width="82.566"/>
  </g>
 </g>
 <g stroke-width=".26459">
  <path d="m51.726 4.2553h25.136v15.875" fill="none" stroke="#47d58a" stroke-linecap="square" stroke-miterlimit="40"/>
  <g>
   <path d="m51.593 9.3929h-15.611v-9.2607h15.611z" fill="#1d232d" stroke="#009244" stroke-linecap="round"/>
   <g fill="#e8eaec" stroke-linecap="round" aria-label="LFO">
    <path d="m41.423 5.6392h1.1748v-0.22543h-0.90808v-1.8574h-0.26671z"/>
    <path d="m42.948 5.6392h0.26671v-0.93348h0.79377v-0.22226h-0.79377v-0.70487h0.93665v-0.22226h-1.2034z"/>
    <path d="m45.239 5.6773c0.52072 0 0.88903-0.41911 0.88903-1.0891 0-0.66359-0.36831-1.07-0.88903-1.07-0.52389 0-0.8922 0.40324-0.8922 1.07 0 0.66994 0.36831 1.0891 0.8922 1.0891zm0-0.23178c-0.37466 0-0.61914-0.33656-0.61914-0.85727 0-0.51754 0.24448-0.83822 0.61914-0.83822 0.37149 0 0.61597 0.32068 0.61597 0.83822 0 0.52071-0.24448 0.85727-0.61597 0.85727z"/>
   </g>
   <path d="m43.768 9.6536v11.267" fill="none" stroke="#47d58a" stroke-dashoffset="1.2" stroke-linecap="square"/>
  </g>
 </g>
 <g transform="matrix(0 .0031775 .0032319 0 42.876 19.65)" fill="#47d58a" stroke-width="82.566">
  <g fill="#47d58a" stroke-width="82.566">
   <path d="m486.41 221.41-364.07-208.5c-52.938-30.318-95.852-5.44-95.852 55.563v415.65c0 61.004 42.914 85.882 95.852 55.563l364.07-208.49c52.938-30.317 52.938-79.473 0-109.79z" fill="#47d58a" stroke-width="82.566"/>
  </g>
 </g>
 <g transform="matrix(0 .0031775 .0032319 0 75.95 19.65)" fill="#47d58a" stroke-width="82.566">
  <g fill="#47d58a" stroke-width="82.566">
   <path d="m486.41 221.41-364.07-208.5c-52.938-30.318-95.852-5.44-95.852 55.563v415.65c0 61.004 42.914 85.882 95.852 55.563l364.07-208.49c52.938-30.317 52.938-79.473 0-109.79z" fill="#47d58a" stroke-width="82.566"/>
  </g>
 </g>
 <path d="m9.3911 34.683v30.428h67.471v-7.9377" fill="none" stroke="#47d58a" stroke-linecap="square" stroke-miterlimit="40" stroke-width=".26459"/>
 <path d="m6.7452 34.683v33.074h101.87v-34.397" fill="none" stroke="#47d58a" stroke-linecap="square" stroke-miterlimit="40" stroke-width=".26459"/>
 <g transform="matrix(0 -.0031775 .0032319 0 75.95 57.765)" fill="#47d58a" stroke-width="82.566">
  <g fill="#47d58a" stroke-width="82.566">
   <path d="m486.41 221.41-364.07-208.5c-52.938-30.318-95.852-5.44-95.852 55.563v415.65c0 61.004 42.914 85.882 95.852 55.563l364.07-208.49c52.938-30.317 52.938-79.473 0-109.79z" fill="#47d58a" stroke-width="82.566"/>
  </g>
 </g>
 <g transform="matrix(0 -.0031775 .0032319 0 107.7 33.687)" fill="#47d58a" stroke-width="82.566">
  <g fill="#47d58a" stroke-width="82.566">
   <path d="m486.41 221.41-364.07-208.5c-52.938-30.318-95.852-5.44-95.852 55.563v415.65c0 61.004 42.914 85.882 95.852 55.563l364.07-208.49c52.938-30.317 52.938-79.473 0-109.79z" fill="#47d58a" stroke-width="82.566"/>
  </g>
 </g>
 <path d="m114.04 28.201h16.03" fill="none" stroke="#47d58a" stroke-dashoffset="1.2" stroke-linecap="square" stroke-width=".26459"/>
 <g transform="matrix(.0031775 0 0 -.0032319 129.25 29.068)" fill="#47d58a" stroke-width="82.566">
  <g fill="#47d58a" stroke-width="82.566">
   <path d="m486.41 221.41-364.07-208.5c-52.938-30.318-95.852-5.44-95.852 55.563v415.65c0 61.004 42.914 85.882 95.852 55.563l364.07-208.49c52.938-30.317 52.938-79.473 0-109.79z" fill="#47d58a" stroke-width="82.566"/>
  </g>
 </g>
 <path d="m131.1 26.746v2.6459l2.6459 1.323 2.6459 2.6459h0.39689l-0.1323-10.584h-0.26459l-2.6459 2.6459z" fill="#1d232d" stroke="#009244" stroke-linecap="square" stroke-miterlimit="40" stroke-width=".26459"/>
 <g fill="#e8eaec" stroke-linecap="round" stroke-width=".26459">
  <g aria-label="pitch">
   <path d="m23.843 26.797c0.14288 0.11113 0.28576 0.1778 0.42864 0.1778 0.35244 0 0.66677-0.30798 0.66677-0.83187 0-0.47944-0.21273-0.78742-0.60962-0.78742-0.18098 0-0.35244 0.09843-0.49214 0.21591h-0.0095l-0.02223-0.1778h-0.21593v2.194h0.26036v-0.52071zm0.0064-0.20321v-0.80965c0.1524-0.13653 0.28258-0.20956 0.41276-0.20956 0.29211 0 0.40641 0.22861 0.40641 0.56834 0 0.38101-0.18733 0.61279-0.44134 0.61279-0.1016 0-0.23813-0.04445-0.37784-0.16193z"/>
   <path d="m25.483 25.076c0.1016 0 0.18098-0.06985 0.18098-0.16828 0-0.1016-0.07938-0.16828-0.18098-0.16828-0.1016 0-0.18098 0.06668-0.18098 0.16828 0 0.09843 0.07938 0.16828 0.18098 0.16828zm-0.13335 1.8606h0.26036v-1.5431h-0.26036z"/>
   <path d="m26.176 26.46c0 0.30481 0.11113 0.51436 0.44134 0.51436 0.09525 0 0.20003-0.02858 0.28576-0.05715l-0.0508-0.19686c-0.0508 0.01905-0.12065 0.04128-0.17463 0.04128-0.1778 0-0.23813-0.10795-0.23813-0.29846v-0.85728h0.41594v-0.21273h-0.41594v-0.43181h-0.21908l-0.03175 0.43181-0.24131 0.01588v0.19686h0.22861z"/>
   <path d="m27.059 26.168c0 0.51119 0.31433 0.80647 0.72392 0.80647 0.18416 0 0.36196-0.0762 0.50166-0.20003l-0.11748-0.17145c-0.09208 0.08255-0.21591 0.15558-0.36196 0.15558-0.28258 0-0.47626-0.23813-0.47626-0.59057 0-0.35561 0.20321-0.59692 0.48261-0.59692 0.12383 0 0.21908 0.05715 0.31116 0.13653l0.13018-0.16828c-0.10478-0.09843-0.24766-0.18416-0.45086-0.18416-0.39689 0-0.74297 0.29528-0.74297 0.81282z"/>
   <path d="m28.618 26.936h0.26036v-1.1176c0.15558-0.15558 0.26353-0.23813 0.42229-0.23813 0.20321 0 0.29211 0.12383 0.29211 0.41276v0.943h0.26036v-0.97793c0-0.39371-0.14606-0.60327-0.46991-0.60327-0.21273 0-0.36831 0.1143-0.51436 0.25401l0.0095-0.31751v-0.61597h-0.26036z"/>
  </g>
  <g aria-label="switch">
   <path d="m35.72 63.54c0.14606 0.12065 0.35561 0.21273 0.57469 0.21273 0.36514 0 0.56517-0.20956 0.56517-0.46039 0-0.29211-0.24766-0.38419-0.46991-0.46674-0.17463-0.06668-0.34291-0.12383-0.34291-0.26671 0-0.11748 0.0889-0.22226 0.28258-0.22226 0.13653 0 0.24766 0.05715 0.35244 0.13653l0.12383-0.1651c-0.11748-0.09525-0.28576-0.17463-0.47944-0.17463-0.33338 0-0.53024 0.1905-0.53024 0.43816 0 0.26036 0.24131 0.36514 0.46039 0.44451 0.16828 0.0635 0.35244 0.13335 0.35244 0.29211 0 0.13335-0.1016 0.24131-0.30481 0.24131-0.18416 0-0.32068-0.0762-0.45404-0.18416z"/>
   <path d="m37.469 63.715h0.30481l0.21591-0.82552c0.04128-0.14605 0.07303-0.29211 0.10795-0.44769h0.0127c0.0381 0.15558 0.06668 0.29846 0.10478 0.44451l0.22226 0.8287h0.31751l0.41276-1.5431h-0.24766l-0.22543 0.8922c-0.03175 0.14605-0.06033 0.28576-0.09525 0.42864h-0.0127c-0.03493-0.14288-0.06985-0.28258-0.10795-0.42864l-0.24131-0.8922h-0.25401l-0.23813 0.8922c-0.0381 0.14288-0.06985 0.28576-0.10478 0.42864h-0.0127c-0.02858-0.14288-0.05715-0.28258-0.09208-0.42864l-0.22861-0.8922h-0.26671z"/>
   <path d="m39.64 61.854c0.1016 0 0.18098-0.06985 0.18098-0.16828 0-0.1016-0.07938-0.16828-0.18098-0.16828-0.1016 0-0.18098 0.06668-0.18098 0.16828 0 0.09843 0.07938 0.16828 0.18098 0.16828zm-0.13335 1.8606h0.26036v-1.5431h-0.26036z"/>
   <path d="m40.332 63.238c0 0.30481 0.11113 0.51436 0.44134 0.51436 0.09525 0 0.20003-0.02858 0.28576-0.05715l-0.0508-0.19686c-0.0508 0.01905-0.12065 0.04128-0.17463 0.04128-0.1778 0-0.23813-0.10795-0.23813-0.29846v-0.85727h0.41594v-0.21273h-0.41594v-0.43181h-0.21908l-0.03175 0.43181-0.24131 0.01588v0.19686h0.22861z"/>
   <path d="m41.215 62.946c0 0.51119 0.31433 0.80647 0.72392 0.80647 0.18416 0 0.36196-0.0762 0.50166-0.20003l-0.11748-0.17146c-0.09208 0.08255-0.21591 0.15558-0.36196 0.15558-0.28258 0-0.47626-0.23813-0.47626-0.59057 0-0.35561 0.20321-0.59692 0.48261-0.59692 0.12383 0 0.21908 0.05715 0.31116 0.13653l0.13018-0.16828c-0.10478-0.09843-0.24766-0.18416-0.45086-0.18416-0.39689 0-0.74297 0.29528-0.74297 0.81282z"/>
   <path d="m42.775 63.715h0.26036v-1.1176c0.15558-0.15558 0.26353-0.23813 0.42229-0.23813 0.20321 0 0.29211 0.12383 0.29211 0.41276v0.943h0.26036v-0.97793c0-0.39371-0.14605-0.60327-0.46991-0.60327-0.21273 0-0.36831 0.1143-0.51436 0.25401l0.0095-0.31751v-0.61597h-0.26033z"/>
  </g>
  <g aria-label="velocity">
   <path d="m88.268 66.361h0.30481l0.54612-1.5431h-0.25718l-0.29211 0.87632c-0.04445 0.1524-0.09525 0.30798-0.1397 0.45404h-0.0127c-0.047627-0.14605-0.098428-0.30163-0.14288-0.45404l-0.29211-0.87632h-0.26988z"/>
   <path d="m89.29 65.592c0 0.50484 0.32703 0.80647 0.7398 0.80647 0.20956 0 0.37466-0.07303 0.50801-0.15875l-0.09208-0.17146c-0.1143 0.07303-0.23813 0.12065-0.38418 0.12065-0.29528 0-0.49531-0.20956-0.51436-0.54294h1.0414c0.0063-0.0381 0.0095-0.0889 0.0095-0.14288 0-0.44134-0.22226-0.72392-0.61597-0.72392-0.35244 0-0.69217 0.30798-0.69217 0.81282zm0.25401-0.11748c0.03175-0.31116 0.22861-0.48896 0.44451-0.48896 0.24131 0 0.38101 0.17463 0.38101 0.48896z"/>
   <path d="m90.98 66.049c0 0.22543 0.07938 0.34926 0.27623 0.34926 0.06985 0 0.1143-0.0095 0.14923-0.0254l-0.03493-0.19686c-0.02857 0.0063-0.04128 0.0063-0.05715 0.0063-0.0381 0-0.07303-0.03175-0.07303-0.1143v-1.9685h-0.26036z"/>
   <path d="m91.678 65.592c0 0.51119 0.33656 0.80647 0.7144 0.80647 0.37784 0 0.7144-0.29528 0.7144-0.80647 0-0.51754-0.33656-0.81282-0.7144-0.81282-0.37784 0-0.7144 0.29528-0.7144 0.81282zm0.26988 0c0-0.35561 0.18098-0.59692 0.44451-0.59692 0.26671 0 0.44451 0.24131 0.44451 0.59692 0 0.35244-0.1778 0.59057-0.44451 0.59057-0.26353 0-0.44451-0.23813-0.44451-0.59057z"/>
   <path d="m93.402 65.592c0 0.51119 0.31433 0.80647 0.72392 0.80647 0.18416 0 0.36196-0.0762 0.50166-0.20003l-0.11748-0.17146c-0.09208 0.08255-0.21591 0.15558-0.36196 0.15558-0.28258 0-0.47626-0.23813-0.47626-0.59057 0-0.35561 0.2032-0.59692 0.48261-0.59692 0.12383 0 0.21908 0.05715 0.31116 0.13653l0.13018-0.16828c-0.10478-0.09843-0.24766-0.18416-0.45086-0.18416-0.39689 0-0.74297 0.29528-0.74297 0.81282z"/>
   <path d="m95.094 64.5c0.1016 0 0.18098-0.06985 0.18098-0.16828 0-0.1016-0.07938-0.16828-0.18098-0.16828-0.1016 0-0.18098 0.06668-0.18098 0.16828 0 0.09843 0.07938 0.16828 0.18098 0.16828zm-0.13335 1.8606h0.26036v-1.5431h-0.26036z"/>
   <path d="m95.787 65.884c0 0.30481 0.11113 0.51436 0.44134 0.51436 0.09525 0 0.20003-0.02858 0.28576-0.05715l-0.0508-0.19686c-0.0508 0.01905-0.12065 0.04128-0.17463 0.04128-0.1778 0-0.23813-0.10795-0.23813-0.29846v-0.85727h0.41594v-0.21274h-0.41594v-0.43181h-0.21908l-0.03175 0.43181-0.24131 0.01588v0.19686h0.22861z"/>
   <path d="m96.71 66.786-0.0508 0.20638c0.0508 0.01905 0.11113 0.03175 0.18098 0.03175 0.31116 0 0.46991-0.23178 0.57787-0.53659l0.58104-1.6701h-0.25401l-0.27623 0.8541c-0.04128 0.13653-0.08573 0.29528-0.13018 0.43499h-0.0127c-0.04763-0.14288-0.1016-0.30163-0.14923-0.43499l-0.31433-0.8541h-0.26988l0.61914 1.5463-0.03493 0.1143c-0.0635 0.19051-0.17463 0.33021-0.34926 0.33021-0.0381 0-0.08573-0.0127-0.11748-0.02223z"/>
  </g>
  <g aria-label="dry">
   <path d="m57.197 26.168c0 0.51436 0.25083 0.80647 0.63819 0.80647 0.18098 0 0.34608-0.1016 0.46674-0.21908h0.0095l0.02222 0.18098h0.21591v-2.2607h-0.26353v0.59374l0.0127 0.26353c-0.13653-0.11113-0.25401-0.1778-0.43181-0.1778-0.35244 0-0.66994 0.31116-0.66994 0.81282zm0.26988-0.0032c0-0.35244 0.19686-0.59057 0.44451-0.59057 0.127 0 0.24448 0.04445 0.37466 0.16193v0.80647c-0.127 0.14288-0.25083 0.21273-0.39371 0.21273-0.26988 0-0.42546-0.22226-0.42546-0.59057z"/>
   <path d="m59.07 26.936h0.26036v-0.99063c0.10478-0.26036 0.26036-0.35561 0.39054-0.35561 0.0635 0 0.09843 0.0095 0.14923 0.0254l0.0508-0.22861c-0.0508-0.02223-0.09843-0.03175-0.1651-0.03175-0.17463 0-0.33338 0.12383-0.43816 0.31751h-0.0095l-0.02223-0.27941h-0.21591z"/>
   <path d="m60.131 27.362-0.0508 0.20638c0.0508 0.01905 0.11113 0.03175 0.18098 0.03175 0.31116 0 0.46991-0.23178 0.57787-0.53659l0.58104-1.6701h-0.25401l-0.27623 0.8541c-0.04128 0.13653-0.08573 0.29528-0.13018 0.43499h-0.0127c-0.04763-0.14288-0.1016-0.30163-0.14923-0.43499l-0.31433-0.8541h-0.26988l0.61914 1.5463-0.03493 0.1143c-0.0635 0.19051-0.17463 0.33021-0.34926 0.33021-0.0381 0-0.08573-0.0127-0.11748-0.02223z"/>
  </g>
  <g aria-label="wet">
   <path d="m91.453 26.936h0.30481l0.21591-0.82552c0.04128-0.14606 0.07303-0.29211 0.10795-0.44769h0.0127c0.0381 0.15558 0.06668 0.29846 0.10478 0.44451l0.22226 0.8287h0.31751l0.41276-1.5431h-0.24766l-0.22543 0.8922c-0.03175 0.14605-0.06033 0.28576-0.09525 0.42864h-0.0127c-0.03493-0.14288-0.06985-0.28258-0.10795-0.42864l-0.24131-0.8922h-0.25401l-0.23813 0.8922c-0.0381 0.14288-0.06985 0.28576-0.10478 0.42864h-0.0127c-0.02858-0.14288-0.05715-0.28258-0.09208-0.42864l-0.22861-0.8922h-0.26671z"/>
   <path d="m93.364 26.168c0 0.50484 0.32703 0.80647 0.7398 0.80647 0.20956 0 0.37466-0.07303 0.50801-0.15875l-0.09208-0.17146c-0.1143 0.07303-0.23813 0.12065-0.38419 0.12065-0.29528 0-0.49531-0.20956-0.51436-0.54294h1.0414c0.0064-0.0381 0.0095-0.0889 0.0095-0.14288 0-0.44134-0.22226-0.72392-0.61597-0.72392-0.35244 0-0.69217 0.30798-0.69217 0.81282zm0.25401-0.11748c0.03175-0.31116 0.22861-0.48896 0.44451-0.48896 0.24131 0 0.38101 0.17463 0.38101 0.48896z"/>
   <path d="m95.054 26.46c0 0.30481 0.11113 0.51436 0.44134 0.51436 0.09525 0 0.20003-0.02858 0.28576-0.05715l-0.0508-0.19686c-0.0508 0.01905-0.12065 0.04128-0.17463 0.04128-0.1778 0-0.23813-0.10795-0.23813-0.29846v-0.85728h0.41594v-0.21273h-0.41594v-0.43181h-0.21908l-0.03175 0.43181-0.24131 0.01588v0.19686h0.22861z"/>
  </g>
 </g>
</svg>
