<svg width="506" height="169" version="1.1" viewBox="0 0 133.88 44.716" xmlns="http://www.w3.org/2000/svg">
 <g stroke-linecap="round" stroke-width=".26459">
  <path d="m4.2651 0.1323-4.1342 3.7043v37.043l4.1342 3.7043h45.973l4.1342-3.7043v-37.043l-4.1342-3.7043z" fill="#1d232d" stroke="#009244"/>
  <path d="m5.555 9.9274h15.611v12.965h-15.611z" fill="#1d232d" stroke="#009244"/>
  <g fill="#e8eaec" aria-label="VCO">
   <path d="m11.18 17.924h0.30798l0.66042-2.0829h-0.26988l-0.33338 1.124c-0.06985 0.24766-0.12383 0.44451-0.20003 0.68899h-0.0127c-0.0762-0.24448-0.127-0.44134-0.20003-0.68899l-0.33656-1.124h-0.27941z"/>
   <path d="m12.266 16.882c0 0.67947 0.39054 1.0795 0.91443 1.0795 0.26353 0 0.46991-0.11113 0.63184-0.30163l-0.14923-0.16193c-0.13335 0.14923-0.27941 0.23178-0.47626 0.23178-0.39689 0-0.64772-0.33021-0.64772-0.8541 0-0.51754 0.26353-0.8414 0.66042-0.8414 0.17146 0 0.30481 0.0762 0.41594 0.19368l0.14923-0.16828c-0.12383-0.13653-0.32068-0.25718-0.56834-0.25718-0.53342 0-0.9303 0.40959-0.9303 1.0795z"/>
   <path d="m14.864 17.962c0.52072 0 0.88903-0.41911 0.88903-1.0891 0-0.66359-0.36831-1.07-0.88903-1.07-0.52389 0-0.8922 0.40324-0.8922 1.07 0 0.66994 0.36831 1.0891 0.8922 1.0891zm0-0.23178c-0.37466 0-0.61914-0.33656-0.61914-0.85728 0-0.51754 0.24448-0.83822 0.61914-0.83822 0.37149 0 0.61597 0.32068 0.61597 0.83822 0 0.52072-0.24448 0.85728-0.61597 0.85728z"/>
  </g>
  <path d="m33.337 10.099 11.642 6.4825-11.642 6.4825z" fill="#1d232d" stroke="#009244"/>
  <g fill="#e8eaec" aria-label="VCA">
   <path d="m35.668 18.096h0.30798l0.66042-2.0829h-0.26988l-0.33338 1.124c-0.06985 0.24766-0.12383 0.44451-0.20003 0.689h-0.0127c-0.0762-0.24448-0.127-0.44134-0.20003-0.689l-0.33656-1.124h-0.27941z"/>
   <path d="m36.754 17.054c0 0.67947 0.39054 1.0795 0.91443 1.0795 0.26353 0 0.46991-0.11113 0.63184-0.30163l-0.14923-0.16193c-0.13335 0.14923-0.27941 0.23178-0.47626 0.23178-0.39689 0-0.64772-0.33021-0.64772-0.8541 0-0.51754 0.26353-0.8414 0.66042-0.8414 0.17146 0 0.30481 0.0762 0.41594 0.19368l0.14923-0.16828c-0.12383-0.13653-0.32068-0.25718-0.56834-0.25718-0.53342 0-0.9303 0.40959-0.9303 1.0795z"/>
   <path d="m38.934 17.248 0.1016-0.31751c0.07303-0.23178 0.1397-0.46039 0.20638-0.7017h0.0127c0.06668 0.24131 0.13335 0.46991 0.20638 0.7017l0.09843 0.31751zm0.8922 0.84775h0.27941l-0.70487-2.0829h-0.29846l-0.70487 2.0829h0.26988l0.20003-0.63502h0.75885z"/>
  </g>
  <path d="m31.882 30.962h15.611v9.2607h-15.611z" fill="#1d232d" stroke="#009244"/>
  <g fill="#e8eaec" aria-label="EG">
   <path d="m38.151 37.146h1.2319v-0.22543h-0.96523v-0.75567h0.78742v-0.22543h-0.78742v-0.65407h0.93348v-0.22226h-1.2002z"/>
   <path d="m39.686 36.105c0 0.67947 0.39054 1.0795 0.93665 1.0795 0.27941 0 0.51119-0.10795 0.64772-0.24131v-0.87632h-0.68264v0.21908h0.44134v0.54294c-0.08255 0.0762-0.22861 0.12383-0.37784 0.12383-0.44451 0-0.69217-0.33021-0.69217-0.8541 0-0.51754 0.26988-0.8414 0.69217-0.8414 0.20638 0 0.33656 0.08255 0.44134 0.19368l0.1524-0.16828c-0.12383-0.127-0.31433-0.25718-0.59692-0.25718-0.55882 0-0.96205 0.40959-0.96205 1.0795z"/>
  </g>
 </g>
 <path d="m21.429 16.542h10.738" fill="none" stroke="#47d58a" stroke-dashoffset="1.2" stroke-linecap="square" stroke-width=".26459"/>
 <g transform="matrix(.0031775 0 0 -.0032319 31.425 17.409)" fill="#47d58a" stroke-width="82.566">
  <g fill="#47d58a" stroke-width="82.566">
   <path d="m486.41 221.41-364.07-208.5c-52.938-30.318-95.852-5.44-95.852 55.563v415.65c0 61.004 42.914 85.882 95.852 55.563l364.07-208.49c52.938-30.317 52.938-79.473 0-109.79z" fill="#47d58a" stroke-width="82.566"/>
  </g>
 </g>
 <path d="m39.707 30.702v-10.738" fill="none" stroke="#47d58a" stroke-dashoffset="1.2" stroke-linecap="square" stroke-width=".26459"/>
 <g>
  <g transform="matrix(0 -.0031775 -.0032319 0 40.599 21.235)" fill="#47d58a" stroke-width="82.566">
   <g fill="#47d58a" stroke-width="82.566">
    <path d="m486.41 221.41-364.07-208.5c-52.938-30.318-95.852-5.44-95.852 55.563v415.65c0 61.004 42.914 85.882 95.852 55.563l364.07-208.49c52.938-30.317 52.938-79.473 0-109.79z" fill="#47d58a" stroke-width="82.566"/>
   </g>
  </g>
  <g stroke-linecap="round" stroke-width=".26459">
   <g fill="#47d58a" aria-label="MODULATOR">
    <path d="m5.1817 4.2335h0.43181v-0.75885c0-0.20321-0.038101-0.50484-0.060327-0.70487h0.0127l0.16511 0.47944 0.31751 0.8033h0.18733l0.32068-0.8033 0.16828-0.47944h0.0127c-0.022225 0.20003-0.060326 0.50166-0.060326 0.70487v0.75885h0.43816v-2.0702h-0.49531l-0.33656 0.9303-0.12383 0.36196h-0.0127l-0.12383-0.36196-0.34608-0.9303h-0.49531z"/>
    <path d="m8.4416 4.2716c0.55882 0 0.93983-0.40641 0.93983-1.0827 0-0.67312-0.38101-1.0637-0.93983-1.0637-0.55564 0-0.93983 0.38736-0.93983 1.0637 0 0.67629 0.38419 1.0827 0.93983 1.0827zm0-0.40324c-0.27941 0-0.46039-0.26353-0.46039-0.67947 0-0.41276 0.18098-0.66042 0.46039-0.66042 0.28258 0 0.46039 0.24766 0.46039 0.66042 0 0.41594-0.1778 0.67947-0.46039 0.67947z"/>
    <path d="m9.7707 4.2335h0.61279c0.60644 0 1.0129-0.33338 1.0129-1.0446s-0.40641-1.0256-1.0414-1.0256h-0.58422zm0.46991-0.37784v-1.3145h0.0889c0.34926 0 0.58739 0.1524 0.58739 0.64772s-0.23813 0.66677-0.58739 0.66677z"/>
    <path d="m11.777 3.2746c0 0.69534 0.28893 0.99698 0.82552 0.99698 0.53659 0 0.81917-0.30163 0.81917-0.99698v-1.1113h-0.45086v1.1589c0 0.40641-0.13653 0.54612-0.36831 0.54612-0.23178 0-0.35878-0.1397-0.35878-0.54612v-1.1589h-0.46674z"/>
    <path d="m13.888 4.2335h1.2859v-0.39371h-0.816v-1.6764h-0.46991z"/>
    <path d="m15.942 3.3762 0.0508-0.19051c0.05715-0.20638 0.1143-0.44769 0.16193-0.66677h0.0127c0.05715 0.21591 0.11113 0.46039 0.16828 0.66677l0.0508 0.19051zm0.66677 0.85727h0.49532l-0.65089-2.0702h-0.55882l-0.65089 2.0702h0.47626l0.127-0.49214h0.63502z"/>
    <path d="m17.6 4.2335h0.46674v-1.6764h0.56834v-0.39371h-1.6066v0.39371h0.57152z"/>
    <path d="m19.709 4.2716c0.55882 0 0.93983-0.40641 0.93983-1.0827 0-0.67312-0.38101-1.0637-0.93983-1.0637-0.55564 0-0.93983 0.38736-0.93983 1.0637 0 0.67629 0.38419 1.0827 0.93983 1.0827zm0-0.40324c-0.27941 0-0.46039-0.26353-0.46039-0.67947 0-0.41276 0.18098-0.66042 0.46039-0.66042 0.28258 0 0.46039 0.24766 0.46039 0.66042 0 0.41594-0.1778 0.67947-0.46039 0.67947z"/>
    <path d="m21.508 2.5348h0.23813c0.24448 0 0.37784 0.069852 0.37784 0.27306 0 0.20321-0.13335 0.30798-0.37784 0.30798h-0.23813zm1.1748 1.6987-0.46674-0.8287c0.21908-0.098428 0.36831-0.29211 0.36831-0.59692 0-0.49214-0.36196-0.64454-0.80012-0.64454h-0.74615v2.0702h0.46991v-0.74615h0.25401l0.39689 0.74615z"/>
   </g>
   <path d="m83.642 0.1323-4.1342 3.7043v37.043l4.1342 3.7043h45.973l4.1342-3.7043v-37.043l-4.1342-3.7043z" fill="#1d232d" stroke="#009244"/>
   <path d="m126.87 9.9274h-15.611v12.965h15.611z" fill="#1d232d" stroke="#009244"/>
   <g fill="#e8eaec" aria-label="VCO">
    <path d="m117.11 17.924h0.30798l0.66042-2.0829h-0.26988l-0.33338 1.124c-0.0699 0.24766-0.12383 0.44451-0.20003 0.68899h-0.0127c-0.0762-0.24448-0.127-0.44134-0.20003-0.68899l-0.33656-1.124h-0.2794z"/>
    <path d="m118.19 16.882c0 0.67947 0.39054 1.0795 0.91443 1.0795 0.26353 0 0.46991-0.11113 0.63184-0.30163l-0.14923-0.16193c-0.13335 0.14923-0.27941 0.23178-0.47626 0.23178-0.39689 0-0.64772-0.33021-0.64772-0.8541 0-0.51754 0.26353-0.8414 0.66042-0.8414 0.17145 0 0.30481 0.0762 0.41593 0.19368l0.14923-0.16828c-0.12382-0.13653-0.32068-0.25718-0.56834-0.25718-0.53341 0-0.9303 0.40959-0.9303 1.0795z"/>
    <path d="m120.79 17.962c0.52072 0 0.88903-0.41911 0.88903-1.0891 0-0.66359-0.36831-1.07-0.88903-1.07-0.52389 0-0.8922 0.40324-0.8922 1.07 0 0.66994 0.36831 1.0891 0.8922 1.0891zm0-0.23178c-0.37466 0-0.61914-0.33656-0.61914-0.85728 0-0.51754 0.24448-0.83822 0.61914-0.83822 0.37149 0 0.61597 0.32068 0.61597 0.83822 0 0.52072-0.24448 0.85728-0.61597 0.85728z"/>
   </g>
   <path d="m99.088 10.099-11.642 6.4825 11.642 6.4825z" fill="#1d232d" stroke="#009244"/>
   <g fill="#e8eaec" aria-label="VCA">
    <path d="m92.984 18.096h0.30798l0.66042-2.0829h-0.26988l-0.33338 1.124c-0.06985 0.24766-0.12383 0.44451-0.20003 0.689h-0.0127c-0.076203-0.24448-0.127-0.44134-0.20003-0.689l-0.33656-1.124h-0.27941z"/>
    <path d="m94.07 17.054c0 0.67947 0.39054 1.0795 0.91443 1.0795 0.26353 0 0.46991-0.11113 0.63184-0.30163l-0.14923-0.16193c-0.13335 0.14923-0.27941 0.23178-0.47626 0.23178-0.39689 0-0.64772-0.33021-0.64772-0.8541 0-0.51754 0.26353-0.8414 0.66042-0.8414 0.17146 0 0.30481 0.0762 0.41594 0.19368l0.14923-0.16828c-0.12383-0.13653-0.32068-0.25718-0.56834-0.25718-0.53342 0-0.9303 0.40959-0.9303 1.0795z"/>
    <path d="m96.249 17.248 0.1016-0.31751c0.07303-0.23178 0.1397-0.46039 0.20638-0.7017h0.0127c0.06668 0.24131 0.13335 0.46991 0.20638 0.7017l0.09843 0.31751zm0.8922 0.84775h0.27941l-0.70487-2.0829h-0.29846l-0.70487 2.0829h0.26988l0.20003-0.63502h0.75885z"/>
   </g>
   <path d="m100.54 30.962h-15.611v9.2607h15.611z" fill="#1d232d" stroke="#009244"/>
   <g fill="#e8eaec" aria-label="EG">
    <path d="m91.142 37.146h1.2319v-0.22543h-0.96523v-0.75567h0.78742v-0.22543h-0.78742v-0.65407h0.93348v-0.22226h-1.2002z"/>
    <path d="m92.677 36.105c0 0.67947 0.39054 1.0795 0.93665 1.0795 0.27941 0 0.51119-0.10795 0.64772-0.24131v-0.87632h-0.68264v0.21908h0.44134v0.54294c-0.08255 0.0762-0.22861 0.12383-0.37784 0.12383-0.44451 0-0.69217-0.33021-0.69217-0.8541 0-0.51754 0.26988-0.8414 0.69217-0.8414 0.20638 0 0.33656 0.08255 0.44134 0.19368l0.1524-0.16828c-0.12383-0.127-0.31433-0.25718-0.59692-0.25718-0.55882 0-0.96205 0.40959-0.96205 1.0795z"/>
   </g>
  </g>
 </g>
 <path d="m111 16.542h-10.738" fill="none" stroke="#47d58a" stroke-dashoffset="1.2" stroke-linecap="square" stroke-width=".26459"/>
 <g transform="matrix(-.0031775 0 0 -.0032319 101 17.409)" fill="#47d58a" stroke-width="82.566">
  <g fill="#47d58a" stroke-width="82.566">
   <path d="m486.41 221.41-364.07-208.5c-52.938-30.318-95.852-5.44-95.852 55.563v415.65c0 61.004 42.914 85.882 95.852 55.563l364.07-208.49c52.938-30.317 52.938-79.473 0-109.79z" fill="#47d58a" stroke-width="82.566"/>
  </g>
 </g>
 <path d="m92.717 30.702v-10.738" fill="none" stroke="#47d58a" stroke-dashoffset="1.2" stroke-linecap="square" stroke-width=".26459"/>
 <g transform="matrix(0 -.0031775 .0032319 0 91.826 21.235)" fill="#47d58a" stroke-width="82.566">
  <g fill="#47d58a" stroke-width="82.566">
   <path d="m486.41 221.41-364.07-208.5c-52.938-30.318-95.852-5.44-95.852 55.563v415.65c0 61.004 42.914 85.882 95.852 55.563l364.07-208.49c52.938-30.317 52.938-79.473 0-109.79z" fill="#47d58a" stroke-width="82.566"/>
  </g>
 </g>
 <g stroke-width=".26459">
  <g fill="#47d58a" stroke-linecap="round" aria-label="CARRIER">
   <path d="m84.461 3.2111c0 0.69534 0.43816 1.0605 0.97475 1.0605 0.25718 0 0.48579-0.10478 0.65724-0.30481l-0.25718-0.28258c-0.1016 0.11113-0.22226 0.18416-0.39371 0.18416-0.30163 0-0.50166-0.24766-0.50166-0.67312 0-0.41594 0.22543-0.66677 0.51436-0.66677 0.14606 0 0.24448 0.060327 0.34926 0.15558l0.25718-0.28893c-0.1397-0.14288-0.35561-0.26988-0.61279-0.26988-0.53342 0-0.98745 0.40006-0.98745 1.0859z"/>
   <path d="m86.836 3.3762 0.0508-0.19051c0.05715-0.20638 0.1143-0.44769 0.16193-0.66677h0.0127c0.05715 0.21591 0.11113 0.46039 0.16828 0.66677l0.0508 0.19051zm0.66677 0.85727h0.49531l-0.65089-2.0702h-0.55882l-0.65089 2.0702h0.47626l0.127-0.49214h0.63502z"/>
   <path d="m88.681 2.5348h0.23813c0.24448 0 0.37784 0.069852 0.37784 0.27306 0 0.20321-0.13335 0.30798-0.37784 0.30798h-0.23813zm1.1748 1.6987-0.46674-0.8287c0.21908-0.098428 0.36831-0.29211 0.36831-0.59692 0-0.49214-0.36196-0.64454-0.80012-0.64454h-0.74615v2.0702h0.46991v-0.74615h0.25401l0.39689 0.74615z"/>
   <path d="m90.635 2.5348h0.23813c0.24448 0 0.37784 0.069852 0.37784 0.27306 0 0.20321-0.13335 0.30798-0.37784 0.30798h-0.23813zm1.1748 1.6987-0.46674-0.8287c0.21908-0.098428 0.36831-0.29211 0.36831-0.59692 0-0.49214-0.36196-0.64454-0.80012-0.64454h-0.74615v2.0702h0.46991v-0.74615h0.25401l0.39689 0.74615z"/>
   <path d="m92.118 4.2335h0.46991v-2.0702h-0.46991z"/>
   <path d="m93.073 4.2335h1.3304v-0.39371h-0.86045v-0.47626h0.70487v-0.39054h-0.70487v-0.41594h0.8287v-0.39371h-1.2986z"/>
   <path d="m95.28 2.5348h0.23813c0.24448 0 0.37784 0.069852 0.37784 0.27306 0 0.20321-0.13335 0.30798-0.37784 0.30798h-0.23813zm1.1748 1.6987-0.46674-0.8287c0.21908-0.098428 0.36831-0.29211 0.36831-0.59692 0-0.49214-0.36196-0.64454-0.80012-0.64454h-0.74615v2.0702h0.46991v-0.74615h0.25401l0.39689 0.74615z"/>
  </g>
  <path d="m45.242 16.542h16.03" fill="none" stroke="#47d58a" stroke-dashoffset="1.2" stroke-linecap="square"/>
  <path d="m66.258 20.619v9.6795" fill="none" stroke="#47d58a" stroke-dashoffset="1.2" stroke-linecap="square"/>
 </g>
 <g>
  <g transform="matrix(0 .0031775 .0032319 0 65.367 29.028)" fill="#47d58a" stroke-width="82.566">
   <g fill="#47d58a" stroke-width="82.566">
    <path d="m486.41 221.41-364.07-208.5c-52.938-30.318-95.852-5.44-95.852 55.563v415.65c0 61.004 42.914 85.882 95.852 55.563l364.07-208.49c52.938-30.317 52.938-79.473 0-109.79z" fill="#47d58a" stroke-width="82.566"/>
   </g>
  </g>
  <circle cx="66.279" cy="16.41" r="3.9689" fill="#1d232d" stroke="#009244" stroke-linecap="round" stroke-width=".26459"/>
  <g transform="matrix(.0031775 0 0 -.0032319 60.46 17.409)" fill="#47d58a" stroke-width="82.566">
   <g fill="#47d58a" stroke-width="82.566">
    <path d="m486.41 221.41-364.07-208.5c-52.938-30.318-95.852-5.44-95.852 55.563v415.65c0 61.004 42.914 85.882 95.852 55.563l364.07-208.49c52.938-30.317 52.938-79.473 0-109.79z" fill="#47d58a" stroke-width="82.566"/>
   </g>
  </g>
 </g>
 <path d="m87.183 16.542h-16.03" fill="none" stroke="#47d58a" stroke-dashoffset="1.2" stroke-linecap="square" stroke-width=".26459"/>
 <g>
  <g transform="matrix(-.0031775 0 0 -.0032319 72.09 17.409)" fill="#47d58a" stroke-width="82.566">
   <g fill="#47d58a" stroke-width="82.566">
    <path d="m486.41 221.41-364.07-208.5c-52.938-30.318-95.852-5.44-95.852 55.563v415.65c0 61.004 42.914 85.882 95.852 55.563l364.07-208.49c52.938-30.317 52.938-79.473 0-109.79z" fill="#47d58a" stroke-width="82.566"/>
   </g>
  </g>
  <g transform="matrix(1.0008 0 0 .99917 .26459 -.26459)" fill="#47d58a" stroke="#cf2f25" stroke-linecap="round" stroke-width=".26459" aria-label="+">
   <path d="m65.776 17.473h0.34291v-0.58422h0.55882v-0.33021h-0.55882v-0.58422h-0.34291v0.58422h-0.55882v0.33021h0.55882z" fill="#47d58a" stroke="none"/>
  </g>
  <path d="m5.4227 30.962h15.875v9.2607h-15.875z" fill="#2f3744"/>
 </g>
 <path d="m7.2748 36.783s2.4342-1.6141 6.0856-1.6141c4.2599 0 1.8257 1.6141 6.0856 1.6141" fill="none" stroke="#e8eaec" stroke-linecap="round" stroke-width=".26459"/>
 <path d="m111.26 30.962h15.875v9.2607h-15.875z" fill="#2f3744"/>
 <path d="m112.58 38.9s1.0584-5.2918 2.6459-5.2918c1.8521 0 0.79377 5.2918 2.6459 5.2918s0.79377-5.2918 2.6459-5.2918c1.8521 0 1.323 5.2918 2.6459 5.2918 1.323 0 1.0584-5.2918 2.6459-5.2918" fill="none" stroke="#e8eaec" stroke-linecap="round" stroke-width=".26459"/>
 <path d="m58.341 30.962h15.875v9.2607h-15.875z" fill="#2f3744"/>
 <path d="m59.664 38.9s-1.0584-5.2918 2.6459-5.2918c1.8521 0 2.6e-5 3.9845 2.6112 3.9742 1.3576-0.0053 0.82843-3.9742 2.1514-3.9742 1.8521 2.7e-5 0.52918 5.2918 3.1751 5.2918 1.323 0 1.0584-5.2918 2.6459-5.2918" fill="none" stroke="#e8eaec" stroke-linecap="round" stroke-width=".26459"/>
</svg>
