<?xml version="1.0" encoding="UTF-8"?>
<svg class="animated inactive" width="198.95" height="161.41" enable-background="new 0 0 198.44 105.83" version="1.1" viewBox="0 0 51.531 22.527" xml:space="preserve" xmlns="http://www.w3.org/2000/svg" xmlns:cc="http://creativecommons.org/ns#" xmlns:dc="http://purl.org/dc/elements/1.1/" xmlns:rdf="http://www.w3.org/1999/02/22-rdf-syntax-ns#"><metadata><rdf:RDF><cc:Work rdf:about=""><dc:format>image/svg+xml</dc:format><dc:type rdf:resource="http://purl.org/dc/dcmitype/StillImage"/><dc:title/></cc:Work></rdf:RDF></metadata>
  <filter id="blur-filter" x="-2" y="-2" width="200" height="200">
    <feGaussianBlur in="SourceGraphic" stdDeviation="2"/>
  </filter><g fill="#f0f" fill-rule="evenodd" stroke="#535e70" stroke-width=".12951"><path d="m1.9584 6.7418 23.71-12.569"/><path d="m2.7811 7.5834 23.766-12.905"/><path d="m3.6412 8.4812 23.86-13.336"/><path d="m4.3705 9.3977 24.084-13.71"/><path d="m5.3802 10.277 24.196-14.103"/><path d="m6.2778 11.249 24.159-14.514"/><path d="m7.2314 12.297 24.177-15.019"/><path d="m8.2411 13.307 24.196-15.487"/><path d="m9.2508 14.466 24.271-16.141"/><path d="m10.335 15.607 24.271-16.646"/><path d="m11.401 16.786 24.402-17.245"/><path d="m12.579 17.964 24.439-17.825"/><path d="m13.851 19.236 24.402-18.423"/><path d="m15.122 20.695 24.308-19.19"/><path d="m16.45 22.097 24.308-19.938"/><path d="m17.74 23.556 24.308-20.705"/><path d="m19.161 25.09 24.364-21.528"/><path d="m20.807 26.755 24.028-22.444"/><path d="m22.284 28.326 24.047-23.249"/><path d="m23.929 30.14 23.93-24.25"/><path d="m25.631 32.123 23.742-25.4"/><path d="m2.0184 6.703 23.641 25.393"/><path d="m3.5653 5.9095 23.905 24.209"/><path d="m5.0925 5.0763 24.005 23.283"/><path d="m6.5629 4.315 24.101 22.441"/><path d="m7.9286 3.5785 24.238 21.526"/><path d="m9.3301 2.8544 24.29 20.697"/><path d="m10.619 2.16 24.352 19.931"/><path d="m11.951 1.4624 24.361 19.218"/><path d="m13.196 0.79403 24.406 18.521"/><path d="m14.437 0.13988 24.372 17.861"/><path d="m15.594-0.4591 24.374 17.24"/><path d="m16.721-1.067 24.364 16.679"/><path d="m17.825-1.6753 24.326 16.114"/><path d="m18.956-2.2837 24.233 15.628"/><path d="m19.993-2.8251 24.147 15.127"/><path d="m20.972-3.3483 24.148 14.626"/><path d="m21.994-3.8865 24.023 14.177"/><path d="m22.899-4.3799 24.039 13.712"/><path d="m23.957-4.9199 23.822 13.329"/><path d="m24.869-5.3922 23.734 12.955"/><path d="m25.601-5.7943 23.776 12.567"/></g><g transform="matrix(.18244 0 0 .18238 6.5438 -131.14)" fill="none" stroke="#e9e56f" stroke-width="1.4199"><path d="m16.794 786.31-17.147-50.381 44.548 47.906 11.667 47.73z"/><path d="m43.487 782.95 137.18-85.383-8.8388 49.851-116.32 84.676"/><path d="m-0.35355 736.11 130.81-69.12 50.028 30.582"/><path d="m171.83 747.6-42.78-31.643 1.2374-48.614"/><path d="m129.05 716.31-112.43 69.473"/></g><g transform="matrix(.27628 0 0 .27628 -5.9569 -244.57)" fill-rule="evenodd"><path d="m48.312 929.05 5.8125-3.8438 1.25 1.2188 1.0938 1.125 1.0938 1.6875 1.0312 1.4062 0.5625 1.25-5.6875 4z" fill="#e8eaec"/><path d="m50.625 936.67 3.6562 4.7188 3.9688-2.9375-3.5625-4.9688z" fill="#a6aeb8"/><path d="m50.562 936.64-7.0938-9.625 4.1875-2.625 7.2812 9.2812z" fill="#535e70"/></g><g transform="translate(-.12951 1.4945)" fill="#e8eaec" stroke-linecap="round" stroke-width=".25901" aria-label="near plane"><path d="m0.12951 20.867h0.25487v-1.0941c0.1523-0.1523 0.25798-0.23311 0.41339-0.23311 0.19892 0 0.28595 0.12122 0.28595 0.40406v0.92312h0.25487v-0.95731c0-0.38541-0.14298-0.59055-0.46001-0.59055-0.20825 0-0.36365 0.11189-0.50663 0.25487h-0.0093245l-0.021757-0.21757h-0.21135z"/><path d="m1.7174 20.115c0 0.4942 0.32014 0.78947 0.7242 0.78947 0.20514 0 0.36676-0.07149 0.49731-0.15541l-0.090137-0.16784c-0.11189 0.07149-0.23311 0.11811-0.37609 0.11811-0.28906 0-0.48487-0.20514-0.50352-0.5315h1.0195c0.00622-0.0373 0.00932-0.08703 0.00932-0.13987 0-0.43204-0.21757-0.70866-0.60298-0.70866-0.34501 0-0.67758 0.30149-0.67758 0.79569zm0.24865-0.115c0.031082-0.3046 0.22379-0.47866 0.43514-0.47866 0.23622 0 0.37298 0.17095 0.37298 0.47866z"/><path d="m3.2541 20.476c0 0.27041 0.1896 0.42893 0.44447 0.42893 0.18649 0 0.35433-0.09946 0.50041-0.21757h0.00622l0.021757 0.18027h0.21135v-0.92623c0-0.37609-0.15541-0.62163-0.52528-0.62163-0.24244 0-0.45379 0.10568-0.59366 0.19581l0.10257 0.17716c0.11811-0.08081 0.27352-0.16162 0.45068-0.16162 0.24554 0 0.31082 0.18649 0.31082 0.3792-0.64339 0.07149-0.92934 0.23622-0.92934 0.56568zm0.25176-0.01865c0-0.19271 0.17095-0.31703 0.67758-0.3792v0.4196c-0.14608 0.13054-0.2673 0.20203-0.41339 0.20203-0.14919 0-0.26419-0.07149-0.26419-0.24244z"/><path d="m4.9192 20.867h0.25487v-0.96975c0.10257-0.25487 0.25487-0.34811 0.3823-0.34811 0.062163 0 0.096353 0.0093 0.14608 0.02487l0.049731-0.22379c-0.049731-0.02176-0.096353-0.03108-0.16162-0.03108-0.17095 0-0.32636 0.12122-0.42893 0.31082h-0.00932l-0.021762-0.27352h-0.21135z"/><path d="m6.8737 20.73c0.13987 0.10878 0.27973 0.17406 0.4196 0.17406 0.34501 0 0.65271-0.30149 0.65271-0.81434 0-0.46933-0.20825-0.77082-0.59677-0.77082-0.17717 0-0.34501 0.09635-0.48176 0.21136h-0.00932l-0.021762-0.17406h-0.21135v2.1477h0.25487v-0.50974zm0.00622-0.19892v-0.79258c0.14919-0.13365 0.27662-0.20514 0.40406-0.20514 0.28595 0 0.39784 0.22379 0.39784 0.55636 0 0.37298-0.18338 0.59988-0.43203 0.59988-0.099461 0-0.23311-0.04351-0.36987-0.15852z"/><path d="m8.3491 20.563c0 0.22068 0.077704 0.3419 0.27041 0.3419 0.068379 0 0.11189-0.0093 0.14608-0.02487l-0.03419-0.1927c-0.027973 0.0062-0.040406 0.0062-0.055947 0.0062-0.037298 0-0.071488-0.03108-0.071488-0.11189v-1.927h-0.25487z"/><path d="m9.0698 20.476c0 0.27041 0.1896 0.42893 0.44447 0.42893 0.18649 0 0.35433-0.09946 0.50041-0.21757h0.0062l0.02176 0.18027h0.21136v-0.92623c0-0.37609-0.15541-0.62163-0.52528-0.62163-0.24244 0-0.45379 0.10568-0.59366 0.19581l0.10257 0.17716c0.11811-0.08081 0.27352-0.16162 0.45068-0.16162 0.24554 0 0.31082 0.18649 0.31082 0.3792-0.64339 0.07149-0.92934 0.23622-0.92934 0.56568zm0.25176-0.01865c0-0.19271 0.17095-0.31703 0.67758-0.3792v0.4196c-0.14608 0.13054-0.2673 0.20203-0.41339 0.20203-0.14919 0-0.26419-0.07149-0.26419-0.24244z"/><path d="m10.735 20.867h0.25487v-1.0941c0.1523-0.1523 0.25798-0.23311 0.41338-0.23311 0.19892 0 0.28595 0.12122 0.28595 0.40406v0.92312h0.25487v-0.95731c0-0.38541-0.14298-0.59055-0.46001-0.59055-0.20825 0-0.36366 0.11189-0.50663 0.25487h-0.009325l-0.02176-0.21757h-0.21136z"/><path d="m12.323 20.115c0 0.4942 0.32014 0.78947 0.7242 0.78947 0.20514 0 0.36676-0.07149 0.4973-0.15541l-0.090136-0.16784c-0.11189 0.07149-0.23311 0.11811-0.37609 0.11811-0.28906 0-0.48487-0.20514-0.50352-0.5315h1.0195c0.0062-0.0373 0.0093-0.08703 0.0093-0.13987 0-0.43204-0.21757-0.70866-0.60298-0.70866-0.345 0-0.67758 0.30149-0.67758 0.79569zm0.24865-0.115c0.03108-0.3046 0.22379-0.47866 0.43514-0.47866 0.23622 0 0.37298 0.17095 0.37298 0.47866z"/></g><g transform="translate(-.12951 1.4945)" fill="#e8eaec" stroke-linecap="round" stroke-width=".25901" aria-label="far plane"><path d="m41.272-2.8315c-0.06838-0.027973-0.15852-0.049731-0.25176-0.049731-0.30149 0-0.44136 0.19271-0.44136 0.50041v0.23933l-0.20514 0.015541v0.19271h0.20514v1.3023h0.25487v-1.3023h0.32014v-0.20825h-0.32014v-0.23933c0-0.19271 0.06838-0.29217 0.21136-0.29217 0.05595 0 0.115 0.012433 0.17095 0.037298z"/><path d="m41.311-1.0225c0 0.27041 0.1896 0.42893 0.44447 0.42893 0.18649 0 0.35433-0.099461 0.50041-0.21757h0.0062l0.02176 0.18027h0.21135v-0.92623c0-0.37609-0.15541-0.62163-0.52528-0.62163-0.24244 0-0.45379 0.10568-0.59366 0.19581l0.10257 0.17717c0.11811-0.080812 0.27352-0.16162 0.45068-0.16162 0.24554 0 0.31082 0.18649 0.31082 0.3792-0.64339 0.071488-0.92934 0.23622-0.92934 0.56569zm0.25176-0.018649c0-0.19271 0.17095-0.31703 0.67758-0.3792v0.4196c-0.14608 0.13054-0.2673 0.20203-0.41338 0.20203-0.14919 0-0.26419-0.071488-0.26419-0.24244z"/><path d="m42.976-0.63091h0.25487v-0.96975c0.10257-0.25487 0.25487-0.34811 0.3823-0.34811 0.06216 0 0.09635 0.00932 0.14608 0.024865l0.04973-0.22379c-0.04973-0.021757-0.09635-0.031082-0.16162-0.031082-0.17095 0-0.32636 0.12122-0.42893 0.31082h-0.0093l-0.02176-0.27352h-0.21138z"/><path d="m44.93-0.76766c0.13987 0.10879 0.27973 0.17406 0.4196 0.17406 0.34501 0 0.65271-0.30149 0.65271-0.81434 0-0.46933-0.20825-0.77082-0.59677-0.77082-0.17716 0-0.34501 0.096353-0.48176 0.21135h-0.0093l-0.02176-0.17406h-0.21136v2.1477h0.25487v-0.50974zm0.0062-0.19892v-0.79258c0.14919-0.13365 0.27663-0.20514 0.40406-0.20514 0.28595 0 0.39784 0.22379 0.39784 0.55636 0 0.37298-0.18338 0.59987-0.43203 0.59987-0.09946 0-0.23311-0.043514-0.36987-0.15852z"/><path d="m46.406-0.93551c0 0.22068 0.0777 0.3419 0.27041 0.3419 0.06838 0 0.11189-0.009324 0.14608-0.024865l-0.03419-0.19271c-0.02797 0.006216-0.04041 0.006216-0.05595 0.006216-0.0373 0-0.07149-0.031082-0.07149-0.11189v-1.9271h-0.25487z"/><path d="m47.127-1.0225c0 0.27041 0.1896 0.42893 0.44447 0.42893 0.18649 0 0.35433-0.099461 0.50041-0.21757h0.0062l0.02176 0.18027h0.21135v-0.92623c0-0.37609-0.15541-0.62163-0.52528-0.62163-0.24244 0-0.45379 0.10568-0.59366 0.19581l0.10257 0.17717c0.11811-0.080812 0.27352-0.16162 0.45068-0.16162 0.24554 0 0.31082 0.18649 0.31082 0.3792-0.64339 0.071488-0.92934 0.23622-0.92934 0.56569zm0.25176-0.018649c0-0.19271 0.17095-0.31703 0.67758-0.3792v0.4196c-0.14608 0.13054-0.2673 0.20203-0.41338 0.20203-0.14919 0-0.26419-0.071488-0.26419-0.24244z"/><path d="m48.792-0.63091h0.25487v-1.0941c0.1523-0.1523 0.25798-0.23311 0.41338-0.23311 0.19892 0 0.28595 0.12122 0.28595 0.40406v0.92312h0.25487v-0.95731c0-0.38541-0.14298-0.59055-0.46001-0.59055-0.20825 0-0.36366 0.11189-0.50663 0.25487h-0.0093l-0.02176-0.21757h-0.21136z"/><path d="m50.38-1.3831c0 0.4942 0.32014 0.78947 0.7242 0.78947 0.20514 0 0.36676-0.071488 0.49731-0.15541l-0.09014-0.16784c-0.11189 0.071488-0.23311 0.11811-0.37609 0.11811-0.28906 0-0.48487-0.20514-0.50352-0.5315h1.0195c0.0062-0.037298 0.0093-0.087028 0.0093-0.13987 0-0.43203-0.21757-0.70866-0.60298-0.70866-0.34501 0-0.67758 0.30149-0.67758 0.79569zm0.24865-0.115c0.03108-0.3046 0.22379-0.47866 0.43514-0.47866 0.23622 0 0.37298 0.17095 0.37298 0.47866z"/></g></svg>
