<?xml version="1.0" encoding="UTF-8"?>
<svg class="animated inactive" width="257.07" height="165.2" enable-background="new 0 0 198.44 105.83" version="1.1" viewBox="0 0 66.584 23.057" xml:space="preserve" xmlns="http://www.w3.org/2000/svg" xmlns:cc="http://creativecommons.org/ns#" xmlns:dc="http://purl.org/dc/elements/1.1/" xmlns:rdf="http://www.w3.org/1999/02/22-rdf-syntax-ns#"><metadata><rdf:RDF><cc:Work rdf:about=""><dc:format>image/svg+xml</dc:format><dc:type rdf:resource="http://purl.org/dc/dcmitype/StillImage"/><dc:title/></cc:Work></rdf:RDF></metadata>
  <filter id="blur-filter" x="-2" y="-2" width="200" height="200">
    <feGaussianBlur in="SourceGraphic" stdDeviation="2"/>
  </filter><g fill="#f0f" fill-rule="evenodd" stroke="#535e70" stroke-width=".12951"><path d="m16.965 7.4986 23.71-12.569"/><path d="m17.788 8.3403 23.766-12.905"/><path d="m18.648 9.238 23.86-13.336"/><path d="m19.429 10.103 24.032-13.658"/><path d="m20.387 11.034 24.196-14.103"/><path d="m21.285 12.006 24.159-14.514"/><path d="m22.238 13.054 24.177-15.019"/><path d="m23.248 14.064 24.196-15.487"/><path d="m24.258 15.223 24.271-16.141"/><path d="m25.342 16.364 24.271-16.646"/><path d="m26.408 17.542 24.402-17.245"/><path d="m27.586 18.721 24.439-17.825"/><path d="m28.858 19.993 24.402-18.423"/><path d="m30.129 21.451 24.308-19.19"/><path d="m31.457 22.854 24.308-19.938"/><path d="m32.747 24.313 24.308-20.705"/><path d="m34.168 25.847 24.364-21.528"/><path d="m35.814 27.511 24.028-22.444"/><path d="m37.291 29.083 24.047-23.249"/><path d="m38.936 30.897 23.93-24.25"/><path d="m40.638 32.879 23.742-25.4"/><path d="m17.025 7.4598 23.641 25.393"/><path d="m18.572 6.6663 23.905 24.209"/><path d="m20.1 5.8331 24.005 23.283"/><path d="m21.57 5.0718 24.101 22.441"/><path d="m22.936 4.3353 24.238 21.526"/><path d="m24.337 3.6112 24.29 20.697"/><path d="m25.626 2.9169 24.352 19.931"/><path d="m26.958 2.2192 24.361 19.218"/><path d="m28.203 1.5509 24.407 18.521"/><path d="m29.444 0.8967 24.372 17.861"/><path d="m30.601 0.29772 24.374 17.24"/><path d="m31.728-0.31015 24.364 16.679"/><path d="m32.832-0.91849 24.326 16.114"/><path d="m33.963-1.5269 24.233 15.628"/><path d="m35-2.0683 24.147 15.127"/><path d="m35.979-2.5915 24.148 14.626"/><path d="m37.001-3.1297 24.023 14.177"/><path d="m37.906-3.6231 24.039 13.712"/><path d="m38.964-4.1631 23.822 13.329"/><path d="m39.876-4.6354 23.734 12.955"/><path d="m40.608-5.0375 23.776 12.567"/></g><g transform="matrix(.13351 0 0 .13351 34.321 -179.32)" fill-rule="evenodd"><path d="m38.562 1351 25.75-35.188 29.938 7.4375-26.875 37.688z" fill="#a6aeb8"/><path d="m38.438 1351.2 25.438 25.562 28.188 10.688-24.75-26.75z" fill="#1d232d"/><path d="m67.375 1360.8 26.887-37.285 22.675 27.535-24.75 36.438z" fill="#2f3744"/></g><g fill="none" stroke-width=".25901"><path d="m16.92 7.5322-0.53354-6.089" stroke="#6f8ce9"/><path d="m23.556 3.9481-6.5438 3.2831" stroke="#e9e56f"/><path d="m20.495 11.046-3.6408-3.7859" stroke="#ff867f"/></g><circle transform="rotate(-14.003)" cx="14.714" cy="11.116" r=".55658" fill="#e8eaec"/><path d="m18.754 18.916 45.334-18.25" fill="none" stroke="#e8eaec" stroke-width=".16577"/><g transform="matrix(.27628 0 0 .27628 23.197 -372.69)" fill="none" stroke-width=".9375"><path d="m77.914 1350.9-14.805-16.44" stroke="#6f8ce9"/><path d="m93.25 1329.4-15.335 21.611" stroke="#e9e56f"/><path d="m95.901 1356.7-18.12-5.7453" stroke="#ff867f"/></g><g fill="none" stroke="#e8eaec" stroke-width=".16577"><path d="m18.564 19.106 13.226-28.855"/><path d="m18.779 18.939 42.988 1.5486"/><path d="m18.852 18.768 11.259-9.1884"/></g><path d="m31.771-9.6406-1.7403 19.349 31.689 10.777 2.3149-19.798z" fill="#7b8694" fill-opacity=".47059"/><g><path d="m21.759 16.361 9.3936 2.9528 0.72523-5.6465-9.4626-2.9355z" fill="none" stroke="#e8eaec" stroke-width=".1934"/><path d="m30.05 9.7462 31.684 10.735 2.3212-19.788-32.264-10.387z" fill="none" stroke="#e8eaec" stroke-width=".25901"/><g transform="matrix(.27628 0 0 .27628 47.246 -296.3)" stroke-width=".9375"><g transform="rotate(-14.003 -865.75 1982.1)" fill="none" stroke-width=".9375"><path d="m77.567 1351.2-0.05983-11.406" stroke="#ff867f"/><path d="m53.447 1360.6 24.303-9.7231" stroke="#6f8ce9"/><path d="m90.032 1365.7-12.236-15.094" stroke="#e9e56f"/></g></g></g><path d="m18.669 19.025 11.378-9.3635 1.7628-19.299z" fill="#1d232d" fill-opacity=".47"/><path d="m18.886 18.934 11.072-9.2577 31.637 10.769z" fill-opacity=".46667"/><path d="m22.406 10.72-0.65561 5.755 9.4297 2.8411 0.71229-5.6174z" fill="#7b8694" fill-opacity=".47059"/><g transform="matrix(-.0017679 .0012387 -.0012599 -.0017982 50.624 2.4657)" fill="#e8eaec" stroke-width="237.94"><g fill="#e8eaec" stroke-width="237.94"><path d="m486.41 221.41-364.07-208.5c-52.938-30.318-95.852-5.44-95.852 55.563v415.65c0 61.004 42.914 85.882 95.852 55.563l364.07-208.49c52.938-30.317 52.938-79.473 0-109.79z" fill="#e8eaec" stroke-width="237.94"/></g></g><path d="m18.763 18.992 42.956 1.4974 2.3249-19.814z" fill="#1d232d" fill-opacity=".47"/><g transform="matrix(-.00091921 .0019532 -.0019866 -.00093496 41.534 -4.0737)" fill="#e8eaec" stroke-width="237.94"><g fill="#e8eaec" stroke-width="237.94"><path d="m486.41 221.41-364.07-208.5c-52.938-30.318-95.852-5.44-95.852 55.563v415.65c0 61.004 42.914 85.882 95.852 55.563l364.07-208.49c52.938-30.317 52.938-79.473 0-109.79z" fill="#e8eaec" stroke-width="237.94"/></g></g><circle transform="rotate(-14.003)" cx="43.271" cy="11.337" r=".55658" fill="#fff"/><path d="m18.723 19.049 13.052-28.738 32.267 10.373z" fill="#1d232d" fill-opacity=".47"/><circle transform="rotate(-14.003)" cx="13.61" cy="22.886" r=".55658" fill="#fff"/><g fill="#e8eaec"><g stroke-linecap="round" stroke-width=".25901"><g aria-label="model space"><path d="m50.413-4.7739h0.25487v-1.0941c0.13987-0.15541 0.2673-0.23311 0.3792-0.23311 0.19271 0 0.28284 0.12122 0.28284 0.40406v0.92312h0.25487v-1.0941c0.13987-0.15541 0.26108-0.23311 0.3792-0.23311 0.1896 0 0.27974 0.12122 0.27974 0.40406v0.92312h0.25487v-0.95731c0-0.38541-0.14919-0.59055-0.46001-0.59055-0.18338 0-0.33879 0.11811-0.49731 0.28906-0.06216-0.18027-0.18649-0.28906-0.41649-0.28906-0.18027 0-0.33879 0.11189-0.46933 0.25487h-0.0093l-0.021782-0.21757h-0.21136z"/><path d="m52.875-5.5261c0 0.50041 0.32946 0.78947 0.69934 0.78947s0.69934-0.28906 0.69934-0.78947c0-0.50663-0.32946-0.79569-0.69934-0.79569s-0.69934 0.28906-0.69934 0.79569zm0.26419 0c0-0.34811 0.17716-0.58433 0.43514-0.58433 0.26108 0 0.43514 0.23622 0.43514 0.58433 0 0.34501-0.17406 0.57812-0.43514 0.57812-0.25798 0-0.43514-0.23311-0.43514-0.57812z"/><path d="m54.565-5.5261c0 0.50352 0.24554 0.78947 0.62474 0.78947 0.17717 0 0.33879-0.099461 0.4569-0.21446h0.0093l0.02176 0.17717h0.21135v-2.213h-0.25798v0.58123l0.01243 0.25798c-0.13365-0.10879-0.24865-0.17406-0.42271-0.17406-0.34501 0-0.65582 0.3046-0.65582 0.79569zm0.26419-0.00311c0-0.34501 0.19271-0.57812 0.43514-0.57812 0.12433 0 0.23933 0.043514 0.36676 0.15852v0.78947c-0.12433 0.13987-0.24554 0.20825-0.38541 0.20825-0.26419 0-0.41649-0.21757-0.41649-0.57812z"/><path d="m56.286-5.5261c0 0.4942 0.32014 0.78947 0.7242 0.78947 0.20514 0 0.36676-0.071488 0.49731-0.15541l-0.09014-0.16784c-0.11189 0.071488-0.23311 0.11811-0.37609 0.11811-0.28906 0-0.48487-0.20514-0.50352-0.5315h1.0195c0.0062-0.037298 0.0093-0.087028 0.0093-0.13987 0-0.43203-0.21757-0.70866-0.60298-0.70866-0.34501 0-0.67758 0.30149-0.67758 0.79569zm0.24865-0.115c0.03108-0.3046 0.22379-0.47866 0.43514-0.47866 0.23622 0 0.37298 0.17095 0.37298 0.47866z"/><path d="m57.94-5.0785c0 0.22068 0.0777 0.3419 0.27041 0.3419 0.06838 0 0.11189-0.00932 0.14608-0.024865l-0.03419-0.19271c-0.02797 0.00622-0.04041 0.00622-0.05595 0.00622-0.0373 0-0.07149-0.031082-0.07149-0.11189v-1.9271h-0.25487z"/><path d="m59.193-4.9449c0.14298 0.11811 0.34811 0.20825 0.56258 0.20825 0.35744 0 0.55325-0.20514 0.55325-0.45068 0-0.28595-0.24244-0.37609-0.46001-0.4569-0.17095-0.065271-0.33568-0.12122-0.33568-0.26109 0-0.115 0.08703-0.21757 0.27663-0.21757 0.13365 0 0.24244 0.055947 0.34501 0.13365l0.12122-0.16162c-0.115-0.093245-0.27973-0.17095-0.46933-0.17095-0.32636 0-0.51906 0.18649-0.51906 0.42893 0 0.25487 0.23622 0.35744 0.45068 0.43514 0.16473 0.062163 0.345 0.13054 0.345 0.28595 0 0.13054-0.09946 0.23622-0.29838 0.23622-0.18027 0-0.31392-0.074596-0.44447-0.18027z"/><path d="m60.915-4.9107c0.13987 0.10879 0.27974 0.17406 0.4196 0.17406 0.34501 0 0.65271-0.30149 0.65271-0.81434 0-0.46933-0.20825-0.77082-0.59677-0.77082-0.17716 0-0.34501 0.096353-0.48176 0.21135h-0.0093l-0.02176-0.17406h-0.21136v2.1477h0.25487v-0.50974zm0.0062-0.19892v-0.79258c0.14919-0.13365 0.27663-0.20514 0.40406-0.20514 0.28595 0 0.39784 0.22379 0.39784 0.55636 0 0.37298-0.18338 0.59987-0.43203 0.59987-0.09946 0-0.23311-0.043514-0.36987-0.15852z"/><path d="m62.273-5.1656c0 0.27041 0.1896 0.42893 0.44447 0.42893 0.18649 0 0.35433-0.099461 0.50041-0.21757h0.0062l0.02176 0.18027h0.21136v-0.92623c0-0.37609-0.15541-0.62163-0.52528-0.62163-0.24244 0-0.45379 0.10568-0.59366 0.19581l0.10257 0.17717c0.11811-0.080812 0.27352-0.16162 0.45068-0.16162 0.24554 0 0.31082 0.18649 0.31082 0.3792-0.64339 0.071488-0.92934 0.23622-0.92934 0.56569zm0.25176-0.018649c0-0.19271 0.17095-0.31703 0.67758-0.3792v0.4196c-0.14608 0.13054-0.2673 0.20203-0.41338 0.20203-0.14919 0-0.26419-0.071488-0.26419-0.24244z"/><path d="m63.826-5.5261c0 0.50041 0.30771 0.78947 0.70866 0.78947 0.18027 0 0.35433-0.074596 0.49109-0.19581l-0.115-0.16784c-0.09014 0.080812-0.21136 0.1523-0.35433 0.1523-0.27663 0-0.46622-0.23311-0.46622-0.57812 0-0.34811 0.19892-0.58433 0.47244-0.58433 0.12122 0 0.21446 0.055947 0.3046 0.13365l0.12743-0.16473c-0.10257-0.096353-0.24244-0.18027-0.44136-0.18027-0.38852 0-0.72731 0.28906-0.72731 0.79569z"/><path d="m65.174-5.5261c0 0.4942 0.32014 0.78947 0.7242 0.78947 0.20514 0 0.36676-0.071488 0.49731-0.15541l-0.09014-0.16784c-0.11189 0.071488-0.23311 0.11811-0.37609 0.11811-0.28906 0-0.48487-0.20514-0.50352-0.5315h1.0195c0.0062-0.037298 0.0093-0.087028 0.0093-0.13987 0-0.43203-0.21757-0.70866-0.60298-0.70866-0.34501 0-0.67758 0.30149-0.67758 0.79569zm0.24865-0.115c0.03108-0.3046 0.22379-0.47866 0.43514-0.47866 0.23622 0 0.37298 0.17095 0.37298 0.47866z"/></g><g aria-label="world space"><path d="m0.54911 8.0634h0.29838l0.21135-0.80812c0.040406-0.14298 0.071488-0.28595 0.10568-0.43825h0.012433c0.037298 0.1523 0.065271 0.29217 0.10257 0.43514l0.21757 0.81123h0.31082l0.40406-1.5106h-0.24244l-0.22068 0.87339c-0.031082 0.14298-0.059055 0.27973-0.093245 0.4196h-0.012433c-0.03419-0.13987-0.06838-0.27663-0.10568-0.4196l-0.23622-0.87339h-0.24865l-0.23311 0.87339c-0.037298 0.13987-0.06838 0.27973-0.10257 0.4196h-0.012433c-0.027973-0.13987-0.055947-0.27663-0.090137-0.4196l-0.22379-0.87339h-0.26109z"/><path d="m2.4197 7.3112c0 0.50041 0.32946 0.78947 0.69934 0.78947 0.36987 0 0.69934-0.28906 0.69934-0.78947 0-0.50663-0.32946-0.79569-0.69934-0.79569-0.36987 0-0.69934 0.28906-0.69934 0.79569zm0.26419 0c0-0.34811 0.17717-0.58433 0.43514-0.58433 0.26109 0 0.43514 0.23622 0.43514 0.58433 0 0.34501-0.17406 0.57812-0.43514 0.57812-0.25798 0-0.43514-0.23311-0.43514-0.57812z"/><path d="m4.2193 8.0634h0.25487v-0.96975c0.10257-0.25487 0.25487-0.34811 0.3823-0.34811 0.062163 0 0.096353 0.00932 0.14608 0.024865l0.04973-0.22379c-0.04973-0.021757-0.096353-0.031082-0.16162-0.031082-0.17095 0-0.32636 0.12122-0.42893 0.31082h-0.00932l-0.021761-0.27352h-0.21135z"/><path d="m5.2998 7.7588c0 0.22068 0.077704 0.3419 0.27041 0.3419 0.068379 0 0.11189-0.00932 0.14608-0.024865l-0.03419-0.19271c-0.027973 0.00622-0.040406 0.00622-0.055947 0.00622-0.037298 0-0.071488-0.031082-0.071488-0.11189v-1.9271h-0.25487z"/><path d="m5.9863 7.3112c0 0.50352 0.24554 0.78947 0.62474 0.78947 0.17717 0 0.33879-0.099461 0.4569-0.21446h0.00932l0.021757 0.17717h0.21135v-2.213h-0.25797v0.58123l0.012433 0.25798c-0.13365-0.10879-0.24865-0.17406-0.42271-0.17406-0.34501 0-0.65582 0.3046-0.65582 0.79569zm0.26419-0.00311c0-0.34501 0.19271-0.57812 0.43514-0.57812 0.12433 0 0.23933 0.043514 0.36676 0.15852v0.78947c-0.12433 0.13987-0.24554 0.20825-0.38541 0.20825-0.26419 0-0.41649-0.21757-0.41649-0.57812z"/><path d="m8.2766 7.8924c0.14298 0.11811 0.34811 0.20825 0.56258 0.20825 0.35744 0 0.55325-0.20514 0.55325-0.45068 0-0.28595-0.24244-0.37609-0.46001-0.4569-0.17095-0.065271-0.33568-0.12122-0.33568-0.26109 0-0.115 0.087028-0.21757 0.27663-0.21757 0.13365 0 0.24244 0.055947 0.34501 0.13365l0.12122-0.16162c-0.115-0.093245-0.27973-0.17095-0.46933-0.17095-0.32636 0-0.51906 0.18649-0.51906 0.42893 0 0.25487 0.23622 0.35744 0.45068 0.43514 0.16473 0.062163 0.34501 0.13054 0.34501 0.28595 0 0.13054-0.099461 0.23622-0.29838 0.23622-0.18027 0-0.31392-0.074596-0.44447-0.18027z"/><path d="m9.9983 7.9266c0.13987 0.10879 0.27973 0.17406 0.4196 0.17406 0.34501 0 0.65271-0.30149 0.65271-0.81434 0-0.46933-0.20825-0.77082-0.59677-0.77082-0.17716 0-0.345 0.096353-0.48176 0.21135h-0.0093245l-0.021757-0.17406h-0.21135v2.1477h0.25487v-0.50974zm0.00622-0.19892v-0.79258c0.14919-0.13365 0.27663-0.20514 0.40406-0.20514 0.28595 0 0.39784 0.22379 0.39784 0.55636 0 0.37298-0.18338 0.59987-0.43203 0.59987-0.09946 0-0.23311-0.043514-0.36987-0.15852z"/><path d="m11.357 7.6718c0 0.27041 0.1896 0.42893 0.44447 0.42893 0.18649 0 0.35433-0.099461 0.50041-0.21757h0.0062l0.02176 0.18027h0.21135v-0.92623c0-0.37609-0.15541-0.62163-0.52528-0.62163-0.24244 0-0.45379 0.10568-0.59366 0.19581l0.10257 0.17717c0.11811-0.080812 0.27352-0.16162 0.45068-0.16162 0.24554 0 0.31082 0.18649 0.31082 0.3792-0.64339 0.071488-0.92934 0.23622-0.92934 0.56569zm0.25176-0.018649c0-0.19271 0.17095-0.31703 0.67758-0.3792v0.4196c-0.14608 0.13054-0.2673 0.20203-0.41338 0.20203-0.14919 0-0.26419-0.071488-0.26419-0.24244z"/><path d="m12.91 7.3112c0 0.50041 0.30771 0.78947 0.70866 0.78947 0.18027 0 0.35433-0.074596 0.49109-0.19581l-0.115-0.16784c-0.09014 0.080812-0.21136 0.1523-0.35433 0.1523-0.27663 0-0.46622-0.23311-0.46622-0.57812 0-0.34811 0.19892-0.58433 0.47244-0.58433 0.12122 0 0.21446 0.055947 0.3046 0.13365l0.12743-0.16473c-0.10257-0.096353-0.24244-0.18027-0.44136-0.18027-0.38852 0-0.72731 0.28906-0.72731 0.79569z"/><path d="m14.257 7.3112c0 0.4942 0.32014 0.78947 0.7242 0.78947 0.20514 0 0.36676-0.071488 0.4973-0.15541l-0.09014-0.16784c-0.11189 0.071488-0.23311 0.11811-0.37609 0.11811-0.28906 0-0.48487-0.20514-0.50352-0.5315h1.0195c0.0062-0.037298 0.0093-0.087028 0.0093-0.13987 0-0.43203-0.21757-0.70866-0.60298-0.70866-0.345 0-0.67758 0.30149-0.67758 0.79569zm0.24865-0.115c0.03108-0.3046 0.22379-0.47866 0.43514-0.47866 0.23622 0 0.37298 0.17095 0.37298 0.47866z"/></g><g aria-label="view space"><path d="m1.7369 19.233h0.29838l0.5346-1.5106h-0.25176l-0.28595 0.85785c-0.043514 0.14919-0.093245 0.30149-0.13676 0.44447h-0.012433c-0.046622-0.14298-0.096353-0.29528-0.13987-0.44447l-0.28595-0.85785h-0.26419z"/><path d="m2.992 17.412c0.099461 0 0.17717-0.06838 0.17717-0.16473 0-0.09946-0.077704-0.16473-0.17717-0.16473-0.099461 0-0.17717 0.06527-0.17717 0.16473 0 0.09635 0.077704 0.16473 0.17717 0.16473zm-0.13054 1.8214h0.25487v-1.5106h-0.25487z"/><path d="m3.5145 18.481c0 0.4942 0.32014 0.78947 0.7242 0.78947 0.20514 0 0.36676-0.07149 0.49731-0.15541l-0.090137-0.16784c-0.11189 0.07149-0.23311 0.11811-0.37609 0.11811-0.28906 0-0.48487-0.20514-0.50352-0.5315h1.0195c0.00622-0.0373 0.00932-0.08703 0.00932-0.13987 0-0.43204-0.21757-0.70866-0.60298-0.70866-0.34501 0-0.67758 0.30149-0.67758 0.79569zm0.24865-0.115c0.031082-0.3046 0.22379-0.47866 0.43514-0.47866 0.23622 0 0.37298 0.17095 0.37298 0.47866z"/><path d="m5.4258 19.233h0.29838l0.21135-0.80812c0.040406-0.14298 0.071488-0.28595 0.10568-0.43825h0.012433c0.037298 0.1523 0.065271 0.29217 0.10257 0.43514l0.21757 0.81123h0.31082l0.40406-1.5106h-0.24244l-0.22068 0.87339c-0.031082 0.14298-0.059055 0.27974-0.093245 0.4196h-0.012432c-0.03419-0.13987-0.06838-0.27663-0.10568-0.4196l-0.23622-0.87339h-0.24865l-0.23311 0.87339c-0.037298 0.13987-0.06838 0.27974-0.10257 0.4196h-0.012433c-0.027973-0.13987-0.055947-0.27663-0.090137-0.4196l-0.22379-0.87339h-0.26109z"/><path d="m7.8779 19.062c0.14298 0.11811 0.34811 0.20825 0.56258 0.20825 0.35744 0 0.55325-0.20514 0.55325-0.45068 0-0.28595-0.24244-0.37609-0.46001-0.4569-0.17095-0.06527-0.33568-0.12122-0.33568-0.26108 0-0.115 0.087028-0.21757 0.27663-0.21757 0.13365 0 0.24244 0.05595 0.34501 0.13365l0.12122-0.16162c-0.115-0.09325-0.27973-0.17095-0.46933-0.17095-0.32636 0-0.51906 0.18649-0.51906 0.42893 0 0.25487 0.23622 0.35744 0.45068 0.43514 0.16473 0.06216 0.34501 0.13054 0.34501 0.28595 0 0.13054-0.099461 0.23622-0.29838 0.23622-0.18027 0-0.31392-0.0746-0.44447-0.18027z"/><path d="m9.5996 19.097c0.13987 0.10878 0.27973 0.17406 0.4196 0.17406 0.34501 0 0.65271-0.30149 0.65271-0.81434 0-0.46933-0.20825-0.77082-0.59677-0.77082-0.17717 0-0.34501 0.09635-0.48176 0.21136h-0.00932l-0.021762-0.17406h-0.21135v2.1477h0.25487v-0.50974zm0.00622-0.19892v-0.79258c0.14919-0.13365 0.27663-0.20514 0.40406-0.20514 0.28595 0 0.39784 0.22379 0.39784 0.55636 0 0.37298-0.18338 0.59988-0.43203 0.59988-0.099461 0-0.23311-0.04351-0.36987-0.15852z"/><path d="m10.958 18.842c0 0.27041 0.1896 0.42893 0.44447 0.42893 0.18649 0 0.35433-0.09946 0.50041-0.21757h0.0062l0.02176 0.18027h0.21136v-0.92623c0-0.37609-0.15541-0.62163-0.52528-0.62163-0.24244 0-0.45379 0.10568-0.59366 0.19581l0.10257 0.17716c0.11811-0.08081 0.27352-0.16162 0.45068-0.16162 0.24554 0 0.31082 0.18649 0.31082 0.3792-0.64339 0.07149-0.92934 0.23622-0.92934 0.56568zm0.25176-0.01865c0-0.19271 0.17095-0.31703 0.67758-0.3792v0.4196c-0.14608 0.13054-0.2673 0.20203-0.41338 0.20203-0.14919 0-0.26419-0.07149-0.26419-0.24244z"/><path d="m12.511 18.481c0 0.50041 0.30771 0.78947 0.70866 0.78947 0.18027 0 0.35433-0.0746 0.49109-0.19581l-0.115-0.16784c-0.09014 0.08081-0.21136 0.1523-0.35433 0.1523-0.27663 0-0.46622-0.23311-0.46622-0.57812 0-0.34811 0.19892-0.58433 0.47244-0.58433 0.12122 0 0.21446 0.05595 0.3046 0.13365l0.12744-0.16473c-0.10257-0.09635-0.24244-0.18027-0.44136-0.18027-0.38852 0-0.72731 0.28906-0.72731 0.79569z"/><path d="m13.859 18.481c0 0.4942 0.32014 0.78947 0.7242 0.78947 0.20514 0 0.36676-0.07149 0.49731-0.15541l-0.09014-0.16784c-0.11189 0.07149-0.23311 0.11811-0.37609 0.11811-0.28906 0-0.48487-0.20514-0.50352-0.5315h1.0195c0.0062-0.0373 0.0093-0.08703 0.0093-0.13987 0-0.43204-0.21757-0.70866-0.60298-0.70866-0.34501 0-0.67758 0.30149-0.67758 0.79569zm0.24865-0.115c0.03108-0.3046 0.22379-0.47866 0.43514-0.47866 0.23622 0 0.37298 0.17095 0.37298 0.47866z"/></g><g stroke="#cf2f25" aria-label="x"><path d="m17.275 11.738h0.2673l0.20514-0.35122c0.04973-0.09324 0.09946-0.18338 0.1523-0.27041h0.01243c0.05595 0.08703 0.11189 0.18027 0.16473 0.27041l0.22068 0.35122h0.27663l-0.49109-0.7615 0.4569-0.74907h-0.2673l-0.18338 0.33257c-0.04662 0.08081-0.09324 0.16784-0.13676 0.25176h-0.01243c-0.05284-0.08392-0.10257-0.17095-0.14919-0.25176l-0.20203-0.33257h-0.27663l0.4569 0.72109z" fill="#e8eaec" stroke="none"/></g><g stroke="#cf2f25" aria-label="y"><path d="m24.06 2.8427-0.049731 0.20203c0.04973 0.018649 0.10879 0.031082 0.17716 0.031082 0.3046 0 0.46001-0.2269 0.56568-0.52528l0.56879-1.6349h-0.24865l-0.27041 0.8361c-0.04041 0.13365-0.08392 0.28906-0.12744 0.42582h-0.01243c-0.046625-0.13987-0.099464-0.29528-0.14609-0.42582l-0.30771-0.8361h-0.26419l0.60609 1.5137-0.03419 0.11189c-0.06216 0.18649-0.17095 0.32325-0.3419 0.32325-0.0373 0-0.08392-0.012433-0.115-0.021757z" fill="#e8eaec" stroke="none"/></g><g stroke="#cf2f25" aria-label="z"><path d="m16.793 0.53747h1.1438v-0.20825h-0.82056l0.79569-1.1656v-0.13676h-1.0319v0.20825h0.70866l-0.79569 1.1656z" fill="#e8eaec" stroke="none"/></g></g><g stroke-width="237.94"><g transform="matrix(-.0019035 -.0010181 .0010355 -.0019361 23.745 4.6515)"><g fill="#e8eaec" stroke-width="237.94"><path d="m486.41 221.41-364.07-208.5c-52.938-30.318-95.852-5.44-95.852 55.563v415.65c0 61.004 42.914 85.882 95.852 55.563l364.07-208.49c52.938-30.317 52.938-79.473 0-109.79z" fill="#e8eaec" stroke-width="237.94"/></g></g><g transform="matrix(-.0021561 -.00010517 .00010698 -.002193 49.464 -4.9036)"><g fill="#e8eaec" stroke-width="237.94"><path d="m486.41 221.41-364.07-208.5c-52.938-30.318-95.852-5.44-95.852 55.563v415.65c0 61.004 42.914 85.882 95.852 55.563l364.07-208.49c52.938-30.317 52.938-79.473 0-109.79z" fill="#e8eaec" stroke-width="237.94"/></g></g><g transform="matrix(-.0020656 .00062711 -.00063784 -.002101 23.657 22.65)"><g fill="#e8eaec" stroke-width="237.94"><path d="m486.41 221.41-364.07-208.5c-52.938-30.318-95.852-5.44-95.852 55.563v415.65c0 61.004 42.914 85.882 95.852 55.563l364.07-208.49c52.938-30.317 52.938-79.473 0-109.79z" fill="#e8eaec" stroke-width="237.94"/></g></g><g transform="matrix(-.0016046 .001444 -.0014687 -.0016321 13.872 23.3)"><g fill="#e8eaec" stroke-width="237.94"><path d="m486.41 221.41-364.07-208.5c-52.938-30.318-95.852-5.44-95.852 55.563v415.65c0 61.004 42.914 85.882 95.852 55.563l364.07-208.49c52.938-30.317 52.938-79.473 0-109.79z" fill="#e8eaec" stroke-width="237.94"/></g></g><g transform="matrix(-.0016046 .001444 -.0014687 -.0016321 18.739 16.244)"><g fill="#e8eaec" stroke-width="237.94"><path d="m486.41 221.41-364.07-208.5c-52.938-30.318-95.852-5.44-95.852 55.563v415.65c0 61.004 42.914 85.882 95.852 55.563l364.07-208.49c52.938-30.317 52.938-79.473 0-109.79z" fill="#e8eaec" stroke-width="237.94"/></g></g><g transform="matrix(-.0018206 .0011599 -.0011798 -.0018517 17.102 1.8155)"><g fill="#e8eaec" stroke-width="237.94"><path d="m486.41 221.41-364.07-208.5c-52.938-30.318-95.852-5.44-95.852 55.563v415.65c0 61.004 42.914 85.882 95.852 55.563l364.07-208.49c52.938-30.317 52.938-79.473 0-109.79z" fill="#e8eaec" stroke-width="237.94"/></g></g><g transform="matrix(-.0021558 .00011217 -.00011408 -.0021927 20.831 11.523)"><g fill="#e8eaec" stroke-width="237.94"><path d="m486.41 221.41-364.07-208.5c-52.938-30.318-95.852-5.44-95.852 55.563v415.65c0 61.004 42.914 85.882 95.852 55.563l364.07-208.49c52.938-30.317 52.938-79.473 0-109.79z" fill="#e8eaec" stroke-width="237.94"/></g></g></g></g></svg>
