<?xml version="1.0" encoding="UTF-8"?>
<svg width="324.78" height="186.5" version="1.1" viewBox="0 0 85.93 49.344" xmlns="http://www.w3.org/2000/svg" xmlns:cc="http://creativecommons.org/ns#" xmlns:dc="http://purl.org/dc/elements/1.1/" xmlns:rdf="http://www.w3.org/1999/02/22-rdf-syntax-ns#">
 <metadata>
  <rdf:RDF>
   <cc:Work rdf:about="">
    <dc:format>image/svg+xml</dc:format>
    <dc:type rdf:resource="http://purl.org/dc/dcmitype/StillImage"/>
    <dc:title/>
   </cc:Work>
  </rdf:RDF>
 </metadata>
 <g transform="translate(-387.66 -119.61)">
  <path transform="matrix(.43567 -.00030735 .00017972 .25475 364.59 36.56)" d="m73.143 404.25-20.354 11.751v-23.503z" fill="#e9e56f"/>
  <g fill="none" stroke-width=".26458">
   <g stroke="#a6aeb8">
    <path d="m390.26 139.58h40.399"/>
    <path d="m453.89 139.25h19.516"/>
    <circle cx="453.96" cy="139.24" r="19.501"/>
   </g>
   <path d="m390.26 139.58 45.906-13.128" stroke="#47d58a"/>
  </g>
  <g>
   <circle cx="390.36" cy="139.63" r=".87445" fill="#1d232d"/>
   <g>
    <circle cx="453.96" cy="139.24" r=".83" fill="#a6aeb8" stroke="#a6aeb8" stroke-width=".74379"/>
    <circle cx="439.66" cy="125.62" r="1.7427" fill="#a6aeb8" stroke="#a6aeb8" stroke-width="1.5617"/>
    <g fill="#e8eaec" stroke-width=".49842px" aria-label="radius">
     <path d="m458.21 143.43h0.26035v-0.9906c0.10477-0.26035 0.26035-0.3556 0.39052-0.3556 0.0635 0 0.0984 0.01 0.14923 0.0254l0.0508-0.2286c-0.0508-0.0222-0.0984-0.0318-0.1651-0.0318-0.17463 0-0.33338 0.12383-0.43815 0.3175h-0.01l-0.0222-0.2794h-0.2159z"/>
     <path d="m459.15 143.03c0 0.27623 0.19367 0.43815 0.45402 0.43815 0.1905 0 0.36195-0.1016 0.51118-0.22225h6e-3l0.0222 0.18415h0.2159v-0.94615c0-0.38417-0.15875-0.635-0.53657-0.635-0.24765 0-0.46355 0.10795-0.60643 0.20003l0.10478 0.18097c0.12065-0.0825 0.2794-0.1651 0.46037-0.1651 0.25083 0 0.3175 0.1905 0.3175 0.38735-0.65722 0.073-0.94932 0.2413-0.94932 0.57785zm0.25717-0.019c0-0.19685 0.17463-0.32385 0.69215-0.38735v0.42863c-0.14922 0.13335-0.27305 0.20637-0.42227 0.20637-0.1524 0-0.26988-0.073-0.26988-0.24765z"/>
     <path d="m460.74 142.66c0 0.51435 0.25083 0.80645 0.63818 0.80645 0.18097 0 0.34607-0.1016 0.46672-0.21907h0.01l0.0222 0.18097h0.2159v-2.2606h-0.26352v0.59373l0.0127 0.26352c-0.13653-0.11112-0.254-0.1778-0.4318-0.1778-0.35243 0-0.66993 0.31115-0.66993 0.8128zm0.26988-3e-3c0-0.35243 0.19685-0.59055 0.4445-0.59055 0.127 0 0.24447 0.0444 0.37465 0.16192v0.80645c-0.127 0.14288-0.25083 0.21273-0.3937 0.21273-0.26988 0-0.42545-0.22225-0.42545-0.59055z"/>
     <path d="m462.75 141.57c0.1016 0 0.18097-0.0699 0.18097-0.16827 0-0.1016-0.0794-0.16828-0.18097-0.16828-0.1016 0-0.18098 0.0667-0.18098 0.16828 0 0.0984 0.0794 0.16827 0.18098 0.16827zm-0.13335 1.8606h0.26035v-1.543h-0.26035z"/>
     <path d="m463.37 142.87c0 0.3937 0.14605 0.60325 0.47308 0.60325 0.21272 0 0.36512-0.11112 0.508-0.2794h0.01l0.0222 0.2413h0.2159v-1.543h-0.26035v1.0954c-0.14605 0.18097-0.25718 0.26035-0.41593 0.26035-0.2032 0-0.28892-0.12383-0.28892-0.41275v-0.94298h-0.26353z"/>
     <path d="m464.95 143.26c0.14605 0.12065 0.3556 0.21272 0.57468 0.21272 0.36512 0 0.56515-0.20955 0.56515-0.46037 0-0.2921-0.24765-0.38418-0.4699-0.46673-0.17463-0.0667-0.3429-0.12382-0.3429-0.2667 0-0.11747 0.0889-0.22225 0.28257-0.22225 0.13653 0 0.24765 0.0572 0.35243 0.13653l0.12382-0.1651c-0.11747-0.0952-0.28575-0.17463-0.47942-0.17463-0.33338 0-0.53023 0.1905-0.53023 0.43815 0 0.26035 0.2413 0.36513 0.46038 0.4445 0.16827 0.0635 0.35242 0.13335 0.35242 0.2921 0 0.13335-0.1016 0.2413-0.3048 0.2413-0.18415 0-0.32067-0.0762-0.45402-0.18415z"/>
    </g>
   </g>
  </g>
  <path d="m447.77 124.6c-1.9012 0.80414-3.6133 1.9677-5.0512 3.4056-1.4378 1.4378-2.6015 3.15-3.4055 5.0512" fill="none" stroke="#a6aeb8" stroke-width=".26458"/>
  <g fill="#e8eaec" stroke-width=".49842px">
   <g aria-label="current velocity">
    <path d="m400.24 142.66c0 0.51118 0.31433 0.80645 0.7239 0.80645 0.18415 0 0.36195-0.0762 0.50165-0.20002l-0.11747-0.17145c-0.0921 0.0825-0.2159 0.15557-0.36195 0.15557-0.28258 0-0.47625-0.23812-0.47625-0.59055 0-0.3556 0.2032-0.5969 0.4826-0.5969 0.12382 0 0.21907 0.0572 0.31115 0.13653l0.13017-0.16828c-0.10477-0.0984-0.24765-0.18415-0.45085-0.18415-0.39687 0-0.74295 0.29528-0.74295 0.8128z"/>
    <path d="m401.78 142.87c0 0.3937 0.14605 0.60325 0.47308 0.60325 0.21272 0 0.36512-0.11112 0.508-0.2794h0.01l0.0222 0.2413h0.2159v-1.543h-0.26035v1.0954c-0.14605 0.18097-0.25718 0.26035-0.41593 0.26035-0.2032 0-0.28892-0.12383-0.28892-0.41275v-0.94298h-0.26353z"/>
    <path d="m403.53 143.43h0.26035v-0.9906c0.10478-0.26035 0.26035-0.3556 0.39053-0.3556 0.0635 0 0.0984 0.01 0.14922 0.0254l0.0508-0.2286c-0.0508-0.0222-0.0984-0.0318-0.1651-0.0318-0.17462 0-0.33337 0.12383-0.43815 0.3175h-0.01l-0.0222-0.2794h-0.2159z"/>
    <path d="m404.64 143.43h0.26035v-0.9906c0.10478-0.26035 0.26035-0.3556 0.39053-0.3556 0.0635 0 0.0984 0.01 0.14922 0.0254l0.0508-0.2286c-0.0508-0.0222-0.0984-0.0318-0.1651-0.0318-0.17462 0-0.33337 0.12383-0.43815 0.3175h-0.01l-0.0222-0.2794h-0.2159z"/>
    <path d="m405.6 142.66c0 0.50483 0.32702 0.80645 0.73977 0.80645 0.20955 0 0.37465-0.073 0.508-0.15875l-0.0921-0.17145c-0.1143 0.073-0.23813 0.12065-0.38418 0.12065-0.29527 0-0.4953-0.20955-0.51435-0.54292h1.0414c6e-3 -0.0381 0.01-0.0889 0.01-0.14288 0-0.44132-0.22225-0.7239-0.61595-0.7239-0.35243 0-0.69215 0.30798-0.69215 0.8128zm0.254-0.11747c0.0317-0.31115 0.2286-0.48895 0.4445-0.48895 0.2413 0 0.381 0.17462 0.381 0.48895z"/>
    <path d="m407.28 143.43h0.26035v-1.1176c0.15558-0.15557 0.26353-0.23812 0.42228-0.23812 0.2032 0 0.2921 0.12382 0.2921 0.41275v0.94297h0.26035v-0.9779c0-0.3937-0.14605-0.60325-0.4699-0.60325-0.21273 0-0.37148 0.1143-0.51753 0.26035h-0.01l-0.0222-0.22225h-0.2159z"/>
    <path d="m409.07 142.96c0 0.3048 0.11113 0.51435 0.44133 0.51435 0.0952 0 0.20002-0.0286 0.28575-0.0572l-0.0508-0.19685c-0.0508 0.0191-0.12065 0.0413-0.17463 0.0413-0.1778 0-0.23812-0.10795-0.23812-0.29845v-0.85725h0.41592v-0.21273h-0.41592v-0.4318h-0.21908l-0.0317 0.4318-0.2413 0.0159v0.19685h0.2286z"/>
    <path d="m411.07 143.43h0.3048l0.5461-1.543h-0.25718l-0.2921 0.8763c-0.0444 0.1524-0.0952 0.30798-0.1397 0.45403h-0.0127c-0.0476-0.14605-0.0984-0.30163-0.14287-0.45403l-0.2921-0.8763h-0.26988z"/>
    <path d="m412.09 142.66c0 0.50483 0.32703 0.80645 0.73978 0.80645 0.20955 0 0.37465-0.073 0.508-0.15875l-0.0921-0.17145c-0.1143 0.073-0.23812 0.12065-0.38417 0.12065-0.29528 0-0.4953-0.20955-0.51435-0.54292h1.0414c6e-3 -0.0381 0.01-0.0889 0.01-0.14288 0-0.44132-0.22225-0.7239-0.61595-0.7239-0.35242 0-0.69215 0.30798-0.69215 0.8128zm0.254-0.11747c0.0317-0.31115 0.2286-0.48895 0.4445-0.48895 0.2413 0 0.381 0.17462 0.381 0.48895z"/>
    <path d="m413.78 143.12c0 0.22543 0.0794 0.34925 0.27622 0.34925 0.0698 0 0.1143-0.01 0.14923-0.0254l-0.0349-0.19685c-0.0286 6e-3 -0.0413 6e-3 -0.0571 6e-3 -0.0381 0-0.073-0.0318-0.073-0.1143v-1.9685h-0.26035z"/>
    <path d="m414.48 142.66c0 0.51118 0.33655 0.80645 0.71438 0.80645 0.37782 0 0.71437-0.29527 0.71437-0.80645 0-0.51752-0.33655-0.8128-0.71437-0.8128-0.37783 0-0.71438 0.29528-0.71438 0.8128zm0.26988 0c0-0.3556 0.18097-0.5969 0.4445-0.5969 0.2667 0 0.4445 0.2413 0.4445 0.5969 0 0.35243-0.1778 0.59055-0.4445 0.59055-0.26353 0-0.4445-0.23812-0.4445-0.59055z"/>
    <path d="m416.2 142.66c0 0.51118 0.31432 0.80645 0.7239 0.80645 0.18415 0 0.36195-0.0762 0.50165-0.20002l-0.11748-0.17145c-0.0921 0.0825-0.2159 0.15557-0.36195 0.15557-0.28257 0-0.47625-0.23812-0.47625-0.59055 0-0.3556 0.2032-0.5969 0.4826-0.5969 0.12383 0 0.21908 0.0572 0.31115 0.13653l0.13018-0.16828c-0.10478-0.0984-0.24765-0.18415-0.45085-0.18415-0.39688 0-0.74295 0.29528-0.74295 0.8128z"/>
    <path d="m417.89 141.57c0.1016 0 0.18098-0.0699 0.18098-0.16827 0-0.1016-0.0794-0.16828-0.18098-0.16828-0.1016 0-0.18097 0.0667-0.18097 0.16828 0 0.0984 0.0794 0.16827 0.18097 0.16827zm-0.13335 1.8606h0.26035v-1.543h-0.26035z"/>
    <path d="m418.58 142.96c0 0.3048 0.11112 0.51435 0.44132 0.51435 0.0953 0 0.20003-0.0286 0.28575-0.0572l-0.0508-0.19685c-0.0508 0.0191-0.12065 0.0413-0.17462 0.0413-0.1778 0-0.23813-0.10795-0.23813-0.29845v-0.85725h0.41593v-0.21273h-0.41593v-0.4318h-0.21907l-0.0317 0.4318-0.2413 0.0159v0.19685h0.2286z"/>
    <path d="m419.51 143.86-0.0508 0.20638c0.0508 0.019 0.11112 0.0317 0.18097 0.0317 0.31115 0 0.4699-0.23178 0.57785-0.53658l0.58103-1.67h-0.254l-0.27623 0.85408c-0.0413 0.13652-0.0857 0.29527-0.13017 0.43497h-0.0127c-0.0476-0.14287-0.1016-0.30162-0.14923-0.43497l-0.31432-0.85408h-0.26988l0.61913 1.5462-0.0349 0.1143c-0.0635 0.1905-0.17462 0.3302-0.34925 0.3302-0.0381 0-0.0857-0.0127-0.11747-0.0222z"/>
   </g>
   <g transform="rotate(-16.619)" aria-label="steering force">
    <path d="m342.34 244.06c0.14605 0.12065 0.3556 0.21272 0.57467 0.21272 0.36513 0 0.56515-0.20955 0.56515-0.46037 0-0.2921-0.24765-0.38418-0.4699-0.46673-0.17462-0.0667-0.3429-0.12382-0.3429-0.2667 0-0.11747 0.0889-0.22225 0.28258-0.22225 0.13652 0 0.24765 0.0572 0.35242 0.13653l0.12383-0.1651c-0.11748-0.0952-0.28575-0.17463-0.47943-0.17463-0.33337 0-0.53022 0.1905-0.53022 0.43815 0 0.26035 0.2413 0.36513 0.46037 0.4445 0.16828 0.0635 0.35243 0.13335 0.35243 0.2921 0 0.13335-0.1016 0.2413-0.3048 0.2413-0.18415 0-0.32068-0.0762-0.45403-0.18415z"/>
    <path d="m343.89 243.76c0 0.3048 0.11113 0.51435 0.44133 0.51435 0.0952 0 0.20002-0.0286 0.28575-0.0572l-0.0508-0.19685c-0.0508 0.0191-0.12065 0.0413-0.17463 0.0413-0.1778 0-0.23812-0.10795-0.23812-0.29845v-0.85725h0.41592v-0.21273h-0.41592v-0.4318h-0.21908l-0.0317 0.4318-0.2413 0.0159v0.19685h0.2286z"/>
    <path d="m344.77 243.47c0 0.50483 0.32702 0.80645 0.73977 0.80645 0.20955 0 0.37465-0.073 0.508-0.15875l-0.0921-0.17145c-0.1143 0.073-0.23813 0.12065-0.38418 0.12065-0.29527 0-0.4953-0.20955-0.51435-0.54292h1.0414c6e-3 -0.0381 0.01-0.0889 0.01-0.14288 0-0.44132-0.22225-0.7239-0.61595-0.7239-0.35243 0-0.69215 0.30798-0.69215 0.8128zm0.254-0.11747c0.0317-0.31115 0.2286-0.48895 0.4445-0.48895 0.2413 0 0.381 0.17462 0.381 0.48895z"/>
    <path d="m346.35 243.47c0 0.50483 0.32702 0.80645 0.73977 0.80645 0.20955 0 0.37465-0.073 0.508-0.15875l-0.0921-0.17145c-0.1143 0.073-0.23813 0.12065-0.38418 0.12065-0.29527 0-0.4953-0.20955-0.51435-0.54292h1.0414c6e-3 -0.0381 0.01-0.0889 0.01-0.14288 0-0.44132-0.22225-0.7239-0.61595-0.7239-0.35243 0-0.69215 0.30798-0.69215 0.8128zm0.254-0.11747c0.0318-0.31115 0.2286-0.48895 0.4445-0.48895 0.2413 0 0.381 0.17462 0.381 0.48895z"/>
    <path d="m348.04 244.24h0.26035v-0.9906c0.10478-0.26035 0.26035-0.3556 0.39053-0.3556 0.0635 0 0.0984 0.01 0.14922 0.0254l0.0508-0.2286c-0.0508-0.0222-0.0984-0.0317-0.1651-0.0317-0.17462 0-0.33337 0.12383-0.43815 0.3175h-0.01l-0.0222-0.2794h-0.2159z"/>
    <path d="m349.27 242.38c0.1016 0 0.18098-0.0699 0.18098-0.16827 0-0.1016-0.0794-0.16828-0.18098-0.16828-0.1016 0-0.18097 0.0667-0.18097 0.16828 0 0.0984 0.0794 0.16827 0.18097 0.16827zm-0.13335 1.8606h0.26035v-1.543h-0.26035z"/>
    <path d="m349.92 244.24h0.26035v-1.1176c0.15557-0.15557 0.26352-0.23812 0.42227-0.23812 0.2032 0 0.2921 0.12382 0.2921 0.41275v0.94297h0.26035v-0.9779c0-0.3937-0.14605-0.60325-0.4699-0.60325-0.21272 0-0.37147 0.1143-0.51752 0.26035h-0.01l-0.0222-0.22225h-0.2159z"/>
    <path d="m351.77 244.5c0-0.0889 0.0476-0.18097 0.15875-0.26035 0.0667 0.0191 0.1397 0.0254 0.20003 0.0254h0.2667c0.20002 0 0.31115 0.0476 0.31115 0.1905 0 0.16193-0.19368 0.31433-0.48895 0.31433-0.2794 0-0.44768-0.10478-0.44768-0.26988zm-0.2286 0.0349c0 0.2667 0.26035 0.41592 0.63818 0.41592 0.47942 0 0.78105-0.24765 0.78105-0.5334 0-0.25717-0.18098-0.3683-0.53975-0.3683h-0.29845c-0.20955 0-0.27305-0.0699-0.27305-0.16827 0-0.0857 0.0444-0.13653 0.0984-0.18415 0.0699 0.0349 0.15558 0.054 0.23178 0.054 0.31432 0 0.56515-0.20637 0.56515-0.53657 0-0.13018-0.054-0.24765-0.127-0.3175h0.3175v-0.20003h-0.53658c-0.0571-0.0222-0.13335-0.0381-0.21907-0.0381-0.31433 0-0.58103 0.21273-0.58103 0.54928 0 0.18415 0.0984 0.33337 0.20003 0.41592v0.0127c-0.0794 0.054-0.16828 0.15558-0.16828 0.28575 0 0.12065 0.0603 0.2032 0.13653 0.25083v0.0127c-0.1397 0.0952-0.22543 0.21907-0.22543 0.34925zm0.63818-0.95885c-0.1778 0-0.32703-0.14288-0.32703-0.3683 0-0.22543 0.14605-0.35878 0.32703-0.35878 0.18097 0 0.32702 0.13335 0.32702 0.35878 0 0.22542-0.14922 0.3683-0.32702 0.3683z"/>
    <path d="m354.65 241.99c-0.0699-0.0286-0.16193-0.0508-0.25718-0.0508-0.30797 0-0.45085 0.19685-0.45085 0.51118v0.24447l-0.20955 0.0159v0.19685h0.20955v1.3303h0.26035v-1.3303h0.32703v-0.21273h-0.32703v-0.24447c0-0.19685 0.0699-0.29845 0.2159-0.29845 0.0571 0 0.11748 0.0127 0.17463 0.0381z"/>
    <path d="m354.68 243.47c0 0.51118 0.33655 0.80645 0.71438 0.80645 0.37782 0 0.71437-0.29527 0.71437-0.80645 0-0.51752-0.33655-0.8128-0.71437-0.8128-0.37783 0-0.71438 0.29528-0.71438 0.8128zm0.26988 0c0-0.3556 0.18097-0.5969 0.4445-0.5969 0.2667 0 0.4445 0.2413 0.4445 0.5969 0 0.35243-0.1778 0.59055-0.4445 0.59055-0.26353 0-0.4445-0.23812-0.4445-0.59055z"/>
    <path d="m356.52 244.24h0.26035v-0.9906c0.10477-0.26035 0.26035-0.3556 0.39052-0.3556 0.0635 0 0.0984 0.01 0.14923 0.0254l0.0508-0.2286c-0.0508-0.0222-0.0984-0.0317-0.1651-0.0317-0.17463 0-0.33338 0.12383-0.43815 0.3175h-0.01l-0.0222-0.2794h-0.2159z"/>
    <path d="m357.48 243.47c0 0.51118 0.31432 0.80645 0.7239 0.80645 0.18415 0 0.36195-0.0762 0.50165-0.20002l-0.11748-0.17145c-0.0921 0.0825-0.2159 0.15557-0.36195 0.15557-0.28257 0-0.47625-0.23812-0.47625-0.59055 0-0.3556 0.2032-0.5969 0.4826-0.5969 0.12383 0 0.21908 0.0572 0.31115 0.13653l0.13018-0.16828c-0.10478-0.0984-0.24765-0.18415-0.45085-0.18415-0.39688 0-0.74295 0.29528-0.74295 0.8128z"/>
    <path d="m358.86 243.47c0 0.50483 0.32702 0.80645 0.73977 0.80645 0.20955 0 0.37465-0.073 0.508-0.15875l-0.0921-0.17145c-0.1143 0.073-0.23813 0.12065-0.38418 0.12065-0.29527 0-0.4953-0.20955-0.51435-0.54292h1.0414c6e-3 -0.0381 0.01-0.0889 0.01-0.14288 0-0.44132-0.22225-0.7239-0.61595-0.7239-0.35243 0-0.69215 0.30798-0.69215 0.8128zm0.254-0.11747c0.0317-0.31115 0.2286-0.48895 0.4445-0.48895 0.2413 0 0.381 0.17462 0.381 0.48895z"/>
   </g>
   <g aria-label="distance">
    <path d="m415.83 168.1c0 0.54603 0.26628 0.85612 0.67748 0.85612 0.19213 0 0.36739-0.10786 0.49548-0.23257h0.0101l0.0236 0.19212h0.2292v-2.3998h-0.27976v0.6303l0.0135 0.27975c-0.14493-0.11797-0.26964-0.18875-0.45839-0.18875-0.37413 0-0.71119 0.33031-0.71119 0.86286zm0.2865-3e-3c0-0.37413 0.20897-0.62692 0.47188-0.62692 0.13482 0 0.25953 0.0472 0.39772 0.1719v0.85612c-0.13482 0.15167-0.26627 0.22582-0.41795 0.22582-0.28649 0-0.45165-0.23594-0.45165-0.62692z"/>
    <path d="m417.96 166.94c0.10786 0 0.19212-0.0742 0.19212-0.17864 0-0.10785-0.0843-0.17864-0.19212-0.17864-0.10786 0-0.19212 0.0708-0.19212 0.17864 0 0.10449 0.0843 0.17864 0.19212 0.17864zm-0.14156 1.9751h0.27638v-1.6381h-0.27638z"/>
    <path d="m418.47 168.73c0.15504 0.12809 0.3775 0.22583 0.61007 0.22583 0.38761 0 0.59995-0.22245 0.59995-0.48873 0-0.31009-0.2629-0.40783-0.49884-0.49547-0.18538-0.0708-0.36402-0.13145-0.36402-0.28313 0-0.12471 0.0944-0.23593 0.29998-0.23593 0.14494 0 0.26291 0.0607 0.37413 0.14493l0.13146-0.17527c-0.12472-0.10112-0.30335-0.18538-0.50896-0.18538-0.35391 0-0.56288 0.20223-0.56288 0.46514 0 0.27638 0.25616 0.38761 0.48873 0.47187 0.17864 0.0674 0.37413 0.14157 0.37413 0.31009 0 0.14157-0.10786 0.25617-0.32357 0.25617-0.19549 0-0.34043-0.0809-0.48199-0.1955z"/>
    <path d="m420.11 168.41c0 0.32358 0.11797 0.54603 0.46851 0.54603 0.10111 0 0.21234-0.0303 0.30335-0.0607l-0.0539-0.20897c-0.0539 0.0202-0.12808 0.0438-0.18538 0.0438-0.18875 0-0.25279-0.11459-0.25279-0.31683v-0.91005h0.44154v-0.22582h-0.44154v-0.4584h-0.23257l-0.0337 0.4584-0.25616 0.0169v0.20897h0.24268z"/>
    <path d="m421.06 168.49c0 0.29323 0.2056 0.46513 0.48199 0.46513 0.20223 0 0.38424-0.10786 0.54266-0.23594h7e-3l0.0236 0.19549h0.2292v-1.0044c0-0.40784-0.16853-0.67411-0.56962-0.67411-0.26291 0-0.4921 0.1146-0.64378 0.21235l0.11123 0.19212c0.12808-0.0876 0.29661-0.17527 0.48873-0.17527 0.26627 0 0.33705 0.20223 0.33705 0.41121-0.6977 0.0775-1.0078 0.25616-1.0078 0.61344zm0.27302-0.0202c0-0.20897 0.18538-0.34379 0.73477-0.4112v0.45502c-0.15841 0.14156-0.28986 0.21909-0.44828 0.21909-0.16178 0-0.28649-0.0775-0.28649-0.26291z"/>
    <path d="m422.87 168.91h0.27638v-1.1864c0.16516-0.16516 0.27976-0.25279 0.44829-0.25279 0.21571 0 0.31009 0.13145 0.31009 0.43817v1.001h0.27638v-1.0381c0-0.41795-0.15504-0.64041-0.49884-0.64041-0.22583 0-0.39435 0.12134-0.5494 0.27639h-0.0101l-0.0236-0.23594h-0.22919z"/>
    <path d="m424.59 168.1c0 0.54266 0.33368 0.85612 0.76848 0.85612 0.19549 0 0.38425-0.0809 0.53255-0.21234l-0.12471-0.18201c-0.0978 0.0876-0.2292 0.16515-0.38424 0.16515-0.29998 0-0.50559-0.25279-0.50559-0.62692 0-0.3775 0.21572-0.63366 0.51233-0.63366 0.13145 0 0.23257 0.0607 0.33031 0.14493l0.13819-0.17864c-0.11122-0.10448-0.2629-0.19549-0.47861-0.19549-0.42132 0-0.78871 0.31346-0.78871 0.86286z"/>
    <path d="m426.05 168.1c0 0.53592 0.34716 0.85612 0.78533 0.85612 0.22246 0 0.39773-0.0775 0.53929-0.16853l-0.0977-0.18201c-0.12134 0.0775-0.2528 0.12809-0.40784 0.12809-0.31346 0-0.52581-0.22246-0.54603-0.57637h1.1055c7e-3 -0.0404 0.0101-0.0944 0.0101-0.15167 0-0.46851-0.23594-0.76849-0.65388-0.76849-0.37414 0-0.73478 0.32694-0.73478 0.86286zm0.26964-0.12471c0.0337-0.33031 0.24268-0.51906 0.47188-0.51906 0.25616 0 0.40446 0.18538 0.40446 0.51906z"/>
   </g>
   <g transform="rotate(-45)" aria-label="jitter">
    <path d="m218.41 408.31c0 0.18733-0.0381 0.30163-0.1905 0.30163-0.054 0-0.10795-0.0127-0.14605-0.0254l-0.054 0.19685c0.054 0.0222 0.13335 0.0413 0.2286 0.0413 0.30798 0 0.42228-0.20002 0.42228-0.51435v-1.7177h-0.26035zm0.13335-2.0352c0.0984 0 0.1778-0.0698 0.1778-0.16828 0-0.1016-0.0794-0.16827-0.1778-0.16827-0.1016 0-0.18098 0.0667-0.18098 0.16827 0 0.0984 0.0794 0.16828 0.18098 0.16828z"/>
    <path d="m219.32 406.27c0.1016 0 0.18098-0.0698 0.18098-0.16828 0-0.1016-0.0794-0.16827-0.18098-0.16827-0.1016 0-0.18097 0.0667-0.18097 0.16827 0 0.0984 0.0794 0.16828 0.18097 0.16828zm-0.13335 1.8606h0.26035v-1.543h-0.26035z"/>
    <path d="m220.01 407.65c0 0.3048 0.11112 0.51435 0.44132 0.51435 0.0952 0 0.20003-0.0286 0.28575-0.0572l-0.0508-0.19685c-0.0508 0.019-0.12065 0.0413-0.17462 0.0413-0.1778 0-0.23813-0.10795-0.23813-0.29845v-0.85725h0.41593v-0.21272h-0.41593v-0.4318h-0.21907l-0.0317 0.4318-0.2413 0.0159v0.19685h0.2286z"/>
    <path d="m221.08 407.65c0 0.3048 0.11113 0.51435 0.44133 0.51435 0.0952 0 0.20002-0.0286 0.28575-0.0572l-0.0508-0.19685c-0.0508 0.019-0.12065 0.0413-0.17463 0.0413-0.1778 0-0.23812-0.10795-0.23812-0.29845v-0.85725h0.41592v-0.21272h-0.41592v-0.4318h-0.21908l-0.0317 0.4318-0.2413 0.0159v0.19685h0.2286z"/>
    <path d="m221.97 407.36c0 0.50482 0.32702 0.80645 0.73977 0.80645 0.20955 0 0.37465-0.073 0.508-0.15875l-0.0921-0.17145c-0.1143 0.073-0.23813 0.12065-0.38418 0.12065-0.29527 0-0.4953-0.20955-0.51435-0.54293h1.0414c6e-3 -0.0381 0.01-0.0889 0.01-0.14287 0-0.44133-0.22225-0.7239-0.61595-0.7239-0.35243 0-0.69215 0.30797-0.69215 0.8128zm0.254-0.11748c0.0317-0.31115 0.2286-0.48895 0.4445-0.48895 0.2413 0 0.381 0.17463 0.381 0.48895z"/>
    <path d="m223.66 408.13h0.26035v-0.9906c0.10477-0.26035 0.26035-0.3556 0.39052-0.3556 0.0635 0 0.0984 0.01 0.14923 0.0254l0.0508-0.2286c-0.0508-0.0222-0.0984-0.0317-0.1651-0.0317-0.17463 0-0.33338 0.12382-0.43815 0.3175h-0.01l-0.0222-0.2794h-0.2159z"/>
   </g>
  </g>
  <path d="m391.5 162.78v2.3363h63.082v-2.3363" fill="none" stroke="#a6aeb8" stroke-width=".26458"/>
  <g fill="#e8eaec" stroke-width="201.8">
   <g transform="matrix(.0047704 0 0 -.0048521 430.45 140.93)">
    <g fill="#e8eaec" stroke-width="201.8">
     <path d="m486.41 221.41-364.07-208.5c-52.938-30.318-95.852-5.44-95.852 55.563v415.65c0 61.004 42.914 85.882 95.852 55.563l364.07-208.49c52.938-30.317 52.938-79.473 0-109.79z" fill="#e8eaec" stroke-width="201.8"/>
    </g>
   </g>
   <g transform="matrix(.0046192 -.0011918 -.0012122 -.0046982 435.1 128.15)">
    <g fill="#e8eaec" stroke-width="201.8">
     <path d="m486.41 221.41-364.07-208.5c-52.938-30.318-95.852-5.44-95.852 55.563v415.65c0 61.004 42.914 85.882 95.852 55.563l364.07-208.49c52.938-30.317 52.938-79.473 0-109.79z" fill="#e8eaec" stroke-width="201.8"/>
    </g>
   </g>
   <g transform="matrix(-.00027128 .0029015 .0029512 .00027593 447.2 123.84)">
    <g fill="#e8eaec" stroke-width="201.8">
     <path d="m486.41 221.41-364.07-208.5c-52.938-30.318-95.852-5.44-95.852 55.563v415.65c0 61.004 42.914 85.882 95.852 55.563l364.07-208.49c52.938-30.317 52.938-79.473 0-109.79z" fill="#e8eaec" stroke-width="201.8"/>
    </g>
   </g>
   <g transform="matrix(-.00069075 .0028311 .0028796 .00070258 438.67 132.43)">
    <g fill="#e8eaec" stroke-width="201.8">
     <path d="m486.41 221.41-364.07-208.5c-52.938-30.318-95.852-5.44-95.852 55.563v415.65c0 61.004 42.914 85.882 95.852 55.563l364.07-208.49c52.938-30.317 52.938-79.473 0-109.79z" fill="#e8eaec" stroke-width="201.8"/>
    </g>
   </g>
  </g>
 </g>
</svg>
