<?xml version="1.0" encoding="UTF-8"?>
<svg width="355.3" height="201.89" version="1.1" viewBox="0 0 94.008 53.418" xmlns="http://www.w3.org/2000/svg" xmlns:cc="http://creativecommons.org/ns#" xmlns:dc="http://purl.org/dc/elements/1.1/" xmlns:rdf="http://www.w3.org/1999/02/22-rdf-syntax-ns#">
 <metadata>
  <rdf:RDF>
   <cc:Work rdf:about="">
    <dc:format>image/svg+xml</dc:format>
    <dc:type rdf:resource="http://purl.org/dc/dcmitype/StillImage"/>
    <dc:title/>
   </cc:Work>
  </rdf:RDF>
 </metadata>
 <g transform="translate(-307.27 -130.3)">
  <path d="m352.04 182.44 14.112-24.65" fill="none" stroke="#a6aeb8" stroke-width=".26458"/>
  <path transform="matrix(.26206 -.50092 .2929 .15323 178.48 124.97)" d="m73.143 404.25-20.354 11.751v-23.503z" fill="#e9e56f"/>
  <path d="m312.03 157.63h52.422" fill="none" stroke="#a6aeb8" stroke-width=".26458"/>
  <circle cx="394.68" cy="157.46" r="6.4675" fill="#1d232d" stroke="#a6aeb8" stroke-width=".26458"/>
  <g fill="none">
   <path d="m312.08 157.55 7.0559-12.325 3.528-6.1625 1.764-3.0813" stroke="#a6aeb8" stroke-width=".26458"/>
   <path d="m312.09 157.67 31.331-11.627" stroke="#47d58a" stroke-width=".52917"/>
   <path d="m328.26 168.77 20.041 13.384" stroke="#a6aeb8" stroke-dasharray="0.264583, 0.79375" stroke-linecap="square" stroke-width=".26458"/>
   <path d="m311.83 157.95 17.41 11.502" stroke="#a6aeb8" stroke-width=".26458"/>
  </g>
  <circle cx="311.98" cy="157.75" r=".84886" fill="#1d232d"/>
  <path d="m326.05 132.72 17.41 11.502" fill="none" stroke="#a6aeb8" stroke-width=".26458"/>
  <g fill="#e8eaec">
   <g stroke-width=".64675px">
    <g transform="translate(0 .26458)" aria-label="target">
     <path d="m390.48 165.69c0 0.3048 0.11113 0.51435 0.44133 0.51435 0.0952 0 0.20002-0.0286 0.28575-0.0572l-0.0508-0.19685c-0.0508 0.0191-0.12065 0.0413-0.17463 0.0413-0.1778 0-0.23812-0.10795-0.23812-0.29845v-0.85725h0.41592v-0.21272h-0.41592v-0.4318h-0.21908l-0.0317 0.4318-0.2413 0.0159v0.19685h0.2286z"/>
     <path d="m391.38 165.77c0 0.27622 0.19368 0.43815 0.45403 0.43815 0.1905 0 0.36195-0.1016 0.51117-0.22225h6e-3l0.0222 0.18415h0.2159v-0.94615c0-0.38418-0.15875-0.635-0.53658-0.635-0.24765 0-0.46355 0.10795-0.60642 0.20002l0.10477 0.18098c0.12065-0.0825 0.2794-0.1651 0.46038-0.1651 0.25082 0 0.3175 0.1905 0.3175 0.38735-0.65723 0.073-0.94933 0.2413-0.94933 0.57785zm0.25718-0.019c0-0.19685 0.17462-0.32385 0.69215-0.38735v0.42862c-0.14923 0.13335-0.27305 0.20638-0.42228 0.20638-0.1524 0-0.26987-0.073-0.26987-0.24765z"/>
     <path d="m393.08 166.17h0.26035v-0.9906c0.10477-0.26035 0.26035-0.3556 0.39052-0.3556 0.0635 0 0.0984 0.01 0.14923 0.0254l0.0508-0.2286c-0.0508-0.0222-0.0984-0.0318-0.1651-0.0318-0.17463 0-0.33338 0.12382-0.43815 0.3175h-0.01l-0.0222-0.2794h-0.2159z"/>
     <path d="m394.26 166.43c0-0.0889 0.0476-0.18098 0.15875-0.26035 0.0667 0.019 0.1397 0.0254 0.20002 0.0254h0.2667c0.20003 0 0.31115 0.0476 0.31115 0.1905 0 0.16192-0.19367 0.31432-0.48895 0.31432-0.2794 0-0.44767-0.10477-0.44767-0.26987zm-0.2286 0.0349c0 0.2667 0.26035 0.41593 0.63817 0.41593 0.47943 0 0.78105-0.24765 0.78105-0.5334 0-0.25718-0.18097-0.3683-0.53975-0.3683h-0.29845c-0.20955 0-0.27305-0.0699-0.27305-0.16828 0-0.0857 0.0444-0.13652 0.0984-0.18415 0.0698 0.0349 0.15557 0.054 0.23177 0.054 0.31433 0 0.56515-0.20638 0.56515-0.53658 0-0.13017-0.054-0.24765-0.127-0.3175h0.3175v-0.20002h-0.53657c-0.0571-0.0222-0.13335-0.0381-0.21908-0.0381-0.31432 0-0.58102 0.21272-0.58102 0.54927 0 0.18415 0.0984 0.33338 0.20002 0.41593v0.0127c-0.0794 0.054-0.16827 0.15557-0.16827 0.28575 0 0.12065 0.0603 0.2032 0.13652 0.25082v0.0127c-0.1397 0.0952-0.22542 0.21908-0.22542 0.34925zm0.63817-0.95885c-0.1778 0-0.32702-0.14287-0.32702-0.3683 0-0.22542 0.14605-0.35877 0.32702-0.35877 0.18098 0 0.32703 0.13335 0.32703 0.35877 0 0.22543-0.14923 0.3683-0.32703 0.3683z"/>
     <path d="m395.6 165.4c0 0.50482 0.32702 0.80645 0.73977 0.80645 0.20955 0 0.37465-0.073 0.508-0.15875l-0.0921-0.17145c-0.1143 0.073-0.23813 0.12065-0.38418 0.12065-0.29527 0-0.4953-0.20955-0.51435-0.54293h1.0414c6e-3 -0.0381 0.01-0.0889 0.01-0.14287 0-0.44133-0.22225-0.7239-0.61595-0.7239-0.35243 0-0.69215 0.30797-0.69215 0.8128zm0.254-0.11748c0.0317-0.31115 0.2286-0.48895 0.4445-0.48895 0.2413 0 0.381 0.17463 0.381 0.48895z"/>
     <path d="m397.29 165.69c0 0.3048 0.11112 0.51435 0.44132 0.51435 0.0953 0 0.20003-0.0286 0.28575-0.0572l-0.0508-0.19685c-0.0508 0.0191-0.12065 0.0413-0.17462 0.0413-0.1778 0-0.23813-0.10795-0.23813-0.29845v-0.85725h0.41593v-0.21272h-0.41593v-0.4318h-0.21907l-0.0317 0.4318-0.2413 0.0159v0.19685h0.2286z"/>
    </g>
    <g transform="rotate(-60)" aria-label="-current velocity">
     <path d="m21.279 398.4h0.73025v-0.20003h-0.73025z"/>
     <path d="m22.281 398.33c0 0.51118 0.31432 0.80645 0.7239 0.80645 0.18415 0 0.36195-0.0762 0.50165-0.20002l-0.11748-0.17145c-0.09208 0.0826-0.2159 0.15557-0.36195 0.15557-0.28258 0-0.47625-0.23812-0.47625-0.59055 0-0.3556 0.2032-0.5969 0.4826-0.5969 0.12382 0 0.21908 0.0572 0.31115 0.13653l0.13018-0.16828c-0.10478-0.0984-0.24765-0.18415-0.45085-0.18415-0.39688 0-0.74295 0.29528-0.74295 0.8128z"/>
     <path d="m23.818 398.53c0 0.3937 0.14605 0.60325 0.47308 0.60325 0.21272 0 0.36512-0.11112 0.508-0.2794h0.0095l0.02222 0.2413h0.2159v-1.543h-0.26035v1.0954c-0.14605 0.18097-0.25718 0.26035-0.41592 0.26035-0.2032 0-0.28892-0.12383-0.28892-0.41275v-0.94298h-0.26352z"/>
     <path d="m25.57 399.1h0.26035v-0.9906c0.10478-0.26035 0.26035-0.3556 0.39052-0.3556 0.0635 0 0.09842 0.01 0.14922 0.0254l0.0508-0.2286c-0.0508-0.0222-0.09843-0.0317-0.1651-0.0317-0.17462 0-0.33338 0.12383-0.43815 0.3175h-0.0095l-0.02222-0.2794h-0.2159z"/>
     <path d="m26.674 399.1h0.26035v-0.9906c0.10478-0.26035 0.26035-0.3556 0.39052-0.3556 0.0635 0 0.09843 0.01 0.14922 0.0254l0.0508-0.2286c-0.0508-0.0222-0.09842-0.0317-0.1651-0.0317-0.17462 0-0.33338 0.12383-0.43815 0.3175h-0.0095l-0.02222-0.2794h-0.2159z"/>
     <path d="m27.632 398.33c0 0.50483 0.32702 0.80645 0.73978 0.80645 0.20955 0 0.37465-0.073 0.508-0.15875l-0.09208-0.17145c-0.1143 0.073-0.23812 0.12065-0.38418 0.12065-0.29528 0-0.4953-0.20955-0.51435-0.54292h1.0414c0.0064-0.0381 0.0095-0.0889 0.0095-0.14288 0-0.44132-0.22225-0.7239-0.61595-0.7239-0.35242 0-0.69215 0.30798-0.69215 0.8128zm0.254-0.11747c0.03175-0.31115 0.2286-0.48895 0.4445-0.48895 0.2413 0 0.381 0.17462 0.381 0.48895z"/>
     <path d="m29.322 399.1h0.26035v-1.1176c0.15558-0.15557 0.26352-0.23812 0.42228-0.23812 0.2032 0 0.2921 0.12382 0.2921 0.41275v0.94297h0.26035v-0.9779c0-0.3937-0.14605-0.60325-0.4699-0.60325-0.21272 0-0.37148 0.1143-0.51752 0.26035h-0.0095l-0.02222-0.22225h-0.2159z"/>
     <path d="m31.103 398.62c0 0.3048 0.11112 0.51435 0.44132 0.51435 0.09525 0 0.20002-0.0286 0.28575-0.0571l-0.0508-0.19685c-0.0508 0.019-0.12065 0.0413-0.17462 0.0413-0.1778 0-0.23812-0.10795-0.23812-0.29845v-0.85725h0.41592v-0.21273h-0.41592v-0.4318h-0.21908l-0.03175 0.4318-0.2413 0.0159v0.19685h0.2286z"/>
     <path d="m33.103 399.1h0.3048l0.5461-1.543h-0.25718l-0.2921 0.8763c-0.04445 0.1524-0.09525 0.30798-0.1397 0.45403h-0.0127c-0.04762-0.14605-0.09842-0.30163-0.14287-0.45403l-0.2921-0.8763h-0.26988z"/>
     <path d="m34.125 398.33c0 0.50483 0.32702 0.80645 0.73978 0.80645 0.20955 0 0.37465-0.073 0.508-0.15875l-0.09208-0.17145c-0.1143 0.073-0.23812 0.12065-0.38418 0.12065-0.29528 0-0.4953-0.20955-0.51435-0.54292h1.0414c0.0063-0.0381 0.0095-0.0889 0.0095-0.14288 0-0.44132-0.22225-0.7239-0.61595-0.7239-0.35242 0-0.69215 0.30798-0.69215 0.8128zm0.254-0.11747c0.03175-0.31115 0.2286-0.48895 0.4445-0.48895 0.2413 0 0.381 0.17462 0.381 0.48895z"/>
     <path d="m35.814 398.79c0 0.22543 0.07937 0.34925 0.27622 0.34925 0.06985 0 0.1143-0.01 0.14922-0.0254l-0.03493-0.19685c-0.02858 6e-3 -0.04127 6e-3 -0.05715 6e-3 -0.0381 0-0.07303-0.0317-0.07303-0.1143v-1.9685h-0.26035z"/>
     <path d="m36.512 398.33c0 0.51118 0.33655 0.80645 0.71438 0.80645s0.71438-0.29527 0.71438-0.80645c0-0.51752-0.33655-0.8128-0.71438-0.8128s-0.71438 0.29528-0.71438 0.8128zm0.26988 0c0-0.3556 0.18098-0.5969 0.4445-0.5969 0.2667 0 0.4445 0.2413 0.4445 0.5969 0 0.35243-0.1778 0.59055-0.4445 0.59055-0.26352 0-0.4445-0.23812-0.4445-0.59055z"/>
     <path d="m38.236 398.33c0 0.51118 0.31432 0.80645 0.7239 0.80645 0.18415 0 0.36195-0.0762 0.50165-0.20002l-0.11748-0.17145c-0.09208 0.0826-0.2159 0.15557-0.36195 0.15557-0.28258 0-0.47625-0.23812-0.47625-0.59055 0-0.3556 0.2032-0.5969 0.4826-0.5969 0.12382 0 0.21908 0.0572 0.31115 0.13653l0.13018-0.16828c-0.10478-0.0984-0.24765-0.18415-0.45085-0.18415-0.39688 0-0.74295 0.29528-0.74295 0.8128z"/>
     <path d="m39.929 397.24c0.1016 0 0.18098-0.0698 0.18098-0.16827 0-0.1016-0.07937-0.16828-0.18098-0.16828-0.1016 0-0.18098 0.0667-0.18098 0.16828 0 0.0984 0.07937 0.16827 0.18098 0.16827zm-0.13335 1.8606h0.26035v-1.543h-0.26035z"/>
     <path d="m40.621 398.62c0 0.3048 0.11112 0.51435 0.44132 0.51435 0.09525 0 0.20002-0.0286 0.28575-0.0571l-0.0508-0.19685c-0.0508 0.019-0.12065 0.0413-0.17462 0.0413-0.1778 0-0.23812-0.10795-0.23812-0.29845v-0.85725h0.41592v-0.21273h-0.41592v-0.4318h-0.21908l-0.03175 0.4318-0.2413 0.0159v0.19685h0.2286z"/>
     <path d="m41.545 399.52-0.0508 0.20638c0.0508 0.019 0.11112 0.0317 0.18098 0.0317 0.31115 0 0.4699-0.23178 0.57785-0.53658l0.58102-1.67h-0.254l-0.27622 0.85408c-0.04127 0.13652-0.08573 0.29527-0.13018 0.43497h-0.0127c-0.04762-0.14287-0.1016-0.30162-0.14922-0.43497l-0.31432-0.85408h-0.26988l0.61912 1.5462-0.03493 0.1143c-0.0635 0.1905-0.17462 0.3302-0.34925 0.3302-0.0381 0-0.08572-0.0127-0.11748-0.0222z"/>
    </g>
    <g transform="rotate(33.467)" aria-label="steering force">
     <path d="m345.66-70.9c0.14605 0.12065 0.3556 0.21272 0.57468 0.21272 0.36512 0 0.56515-0.20955 0.56515-0.46038 0-0.2921-0.24765-0.38418-0.4699-0.46672-0.17463-0.06668-0.3429-0.12382-0.3429-0.2667 0-0.11748 0.0889-0.22225 0.28257-0.22225 0.13653 0 0.24765 0.05715 0.35243 0.13652l0.12382-0.1651c-0.11747-0.09525-0.28575-0.17462-0.47942-0.17462-0.33338 0-0.53023 0.1905-0.53023 0.43815 0 0.26035 0.2413 0.36512 0.46038 0.4445 0.16827 0.0635 0.35242 0.13335 0.35242 0.2921 0 0.13335-0.1016 0.2413-0.3048 0.2413-0.18415 0-0.32067-0.0762-0.45402-0.18415z"/>
     <path d="m347.21-71.201c0 0.3048 0.11112 0.51435 0.44132 0.51435 0.0953 0 0.20003-0.02858 0.28575-0.05715l-0.0508-0.19685c-0.0508 0.01905-0.12065 0.04127-0.17462 0.04127-0.1778 0-0.23813-0.10795-0.23813-0.29845v-0.85725h0.41593v-0.21272h-0.41593v-0.4318h-0.21907l-0.0317 0.4318-0.2413 0.01587v0.19685h0.2286z"/>
     <path d="m348.09-71.493c0 0.50482 0.32703 0.80645 0.73978 0.80645 0.20955 0 0.37465-0.07303 0.508-0.15875l-0.0921-0.17145c-0.1143 0.07303-0.23812 0.12065-0.38417 0.12065-0.29528 0-0.4953-0.20955-0.51435-0.54292h1.0414c6e-3 -0.0381 0.01-0.0889 0.01-0.14288 0-0.44132-0.22225-0.7239-0.61595-0.7239-0.35242 0-0.69215 0.30798-0.69215 0.8128zm0.254-0.11748c0.0317-0.31115 0.2286-0.48895 0.4445-0.48895 0.2413 0 0.381 0.17462 0.381 0.48895z"/>
     <path d="m349.67-71.493c0 0.50482 0.32703 0.80645 0.73978 0.80645 0.20955 0 0.37465-0.07303 0.508-0.15875l-0.0921-0.17145c-0.1143 0.07303-0.23812 0.12065-0.38417 0.12065-0.29528 0-0.4953-0.20955-0.51435-0.54292h1.0414c6e-3 -0.0381 0.01-0.0889 0.01-0.14288 0-0.44132-0.22225-0.7239-0.61595-0.7239-0.35242 0-0.69215 0.30798-0.69215 0.8128zm0.254-0.11748c0.0317-0.31115 0.2286-0.48895 0.4445-0.48895 0.2413 0 0.381 0.17462 0.381 0.48895z"/>
     <path d="m351.35-70.725h0.26035v-0.9906c0.10477-0.26035 0.26035-0.3556 0.39052-0.3556 0.0635 0 0.0984 0.0095 0.14923 0.0254l0.0508-0.2286c-0.0508-0.02222-0.0984-0.03175-0.1651-0.03175-0.17463 0-0.33338 0.12382-0.43815 0.3175h-0.01l-0.0222-0.2794h-0.2159z"/>
     <path d="m352.59-72.586c0.1016 0 0.18097-0.06985 0.18097-0.16828 0-0.1016-0.0794-0.16828-0.18097-0.16828-0.1016 0-0.18098 0.06668-0.18098 0.16828 0 0.09842 0.0794 0.16828 0.18098 0.16828zm-0.13335 1.8606h0.26035v-1.543h-0.26035z"/>
     <path d="m353.24-70.725h0.26035v-1.1176c0.15558-0.15558 0.26353-0.23812 0.42228-0.23812 0.2032 0 0.2921 0.12382 0.2921 0.41275v0.94298h0.26035v-0.9779c0-0.3937-0.14605-0.60325-0.4699-0.60325-0.21273 0-0.37148 0.1143-0.51753 0.26035h-0.01l-0.0222-0.22225h-0.2159z"/>
     <path d="m355.09-70.465c0-0.0889 0.0476-0.18098 0.15875-0.26035 0.0667 0.01905 0.1397 0.0254 0.20002 0.0254h0.2667c0.20003 0 0.31115 0.04762 0.31115 0.1905 0 0.16192-0.19367 0.31432-0.48895 0.31432-0.2794 0-0.44767-0.10478-0.44767-0.26988zm-0.2286 0.03493c0 0.2667 0.26035 0.41592 0.63817 0.41592 0.47943 0 0.78105-0.24765 0.78105-0.5334 0-0.25718-0.18097-0.3683-0.53975-0.3683h-0.29845c-0.20955 0-0.27305-0.06985-0.27305-0.16828 0-0.08573 0.0445-0.13652 0.0984-0.18415 0.0699 0.03493 0.15557 0.05397 0.23177 0.05397 0.31433 0 0.56515-0.20638 0.56515-0.53658 0-0.13018-0.054-0.24765-0.127-0.3175h0.3175v-0.20002h-0.53657c-0.0571-0.02223-0.13335-0.0381-0.21908-0.0381-0.31432 0-0.58102 0.21272-0.58102 0.54928 0 0.18415 0.0984 0.33338 0.20002 0.41592v0.0127c-0.0794 0.05398-0.16827 0.15558-0.16827 0.28575 0 0.12065 0.0603 0.2032 0.13652 0.25082v0.0127c-0.1397 0.09525-0.22542 0.21908-0.22542 0.34925zm0.63817-0.95885c-0.1778 0-0.32702-0.14288-0.32702-0.3683s0.14605-0.35878 0.32702-0.35878c0.18098 0 0.32703 0.13335 0.32703 0.35878s-0.14923 0.3683-0.32703 0.3683z"/>
     <path d="m357.97-72.973c-0.0699-0.02858-0.16192-0.0508-0.25717-0.0508-0.30798 0-0.45085 0.19685-0.45085 0.51118v0.24448l-0.20955 0.01587v0.19685h0.20955v1.3303h0.26035v-1.3303h0.32702v-0.21272h-0.32702v-0.24448c0-0.19685 0.0699-0.29845 0.2159-0.29845 0.0571 0 0.11747 0.0127 0.17462 0.0381z"/>
     <path d="m358-71.493c0 0.51118 0.33655 0.80645 0.71437 0.80645 0.37783 0 0.71438-0.29528 0.71438-0.80645 0-0.51752-0.33655-0.8128-0.71438-0.8128-0.37782 0-0.71437 0.29528-0.71437 0.8128zm0.26987 0c0-0.3556 0.18098-0.5969 0.4445-0.5969 0.2667 0 0.4445 0.2413 0.4445 0.5969 0 0.35242-0.1778 0.59055-0.4445 0.59055-0.26352 0-0.4445-0.23812-0.4445-0.59055z"/>
     <path d="m359.84-70.725h0.26035v-0.9906c0.10478-0.26035 0.26035-0.3556 0.39053-0.3556 0.0635 0 0.0984 0.0095 0.14922 0.0254l0.0508-0.2286c-0.0508-0.02222-0.0984-0.03175-0.1651-0.03175-0.17462 0-0.33337 0.12382-0.43815 0.3175h-0.01l-0.0222-0.2794h-0.2159z"/>
     <path d="m360.8-71.493c0 0.51118 0.31433 0.80645 0.7239 0.80645 0.18415 0 0.36195-0.0762 0.50165-0.20002l-0.11747-0.17145c-0.0921 0.08255-0.2159 0.15558-0.36195 0.15558-0.28258 0-0.47625-0.23812-0.47625-0.59055 0-0.3556 0.2032-0.5969 0.4826-0.5969 0.12382 0 0.21907 0.05715 0.31115 0.13652l0.13017-0.16828c-0.10477-0.09842-0.24765-0.18415-0.45085-0.18415-0.39687 0-0.74295 0.29528-0.74295 0.8128z"/>
     <path d="m362.17-71.493c0 0.50482 0.32703 0.80645 0.73978 0.80645 0.20955 0 0.37465-0.07303 0.508-0.15875l-0.0921-0.17145c-0.1143 0.07303-0.23812 0.12065-0.38417 0.12065-0.29528 0-0.4953-0.20955-0.51435-0.54292h1.0414c6e-3 -0.0381 0.01-0.0889 0.01-0.14288 0-0.44132-0.22225-0.7239-0.61595-0.7239-0.35242 0-0.69215 0.30798-0.69215 0.8128zm0.254-0.11748c0.0317-0.31115 0.2286-0.48895 0.4445-0.48895 0.2413 0 0.381 0.17462 0.381 0.48895z"/>
    </g>
    <g transform="rotate(34.42)" aria-label="steering force">
     <path d="m347.06-41.105c0.14605 0.12065 0.3556 0.21272 0.57467 0.21272 0.36513 0 0.56515-0.20955 0.56515-0.46038 0-0.2921-0.24765-0.38418-0.4699-0.46672-0.17462-0.06668-0.3429-0.12382-0.3429-0.2667 0-0.11748 0.0889-0.22225 0.28258-0.22225 0.13652 0 0.24765 0.05715 0.35242 0.13652l0.12383-0.1651c-0.11748-0.09525-0.28575-0.17462-0.47943-0.17462-0.33337 0-0.53022 0.1905-0.53022 0.43815 0 0.26035 0.2413 0.36512 0.46037 0.4445 0.16828 0.0635 0.35243 0.13335 0.35243 0.2921 0 0.13335-0.1016 0.2413-0.3048 0.2413-0.18415 0-0.32068-0.0762-0.45403-0.18415z"/>
     <path d="m348.61-41.407c0 0.3048 0.11112 0.51435 0.44132 0.51435 0.0953 0 0.20003-0.02857 0.28575-0.05715l-0.0508-0.19685c-0.0508 0.01905-0.12065 0.04127-0.17462 0.04127-0.1778 0-0.23813-0.10795-0.23813-0.29845v-0.85725h0.41593v-0.21272h-0.41593v-0.4318h-0.21907l-0.0318 0.4318-0.2413 0.01588v0.19685h0.2286z"/>
     <path d="m349.5-41.699c0 0.50482 0.32703 0.80645 0.73978 0.80645 0.20955 0 0.37465-0.07303 0.508-0.15875l-0.0921-0.17145c-0.1143 0.07303-0.23812 0.12065-0.38417 0.12065-0.29528 0-0.4953-0.20955-0.51435-0.54292h1.0414c6e-3 -0.0381 0.01-0.0889 0.01-0.14288 0-0.44132-0.22225-0.7239-0.61595-0.7239-0.35242 0-0.69215 0.30798-0.69215 0.8128zm0.254-0.11748c0.0317-0.31115 0.2286-0.48895 0.4445-0.48895 0.2413 0 0.381 0.17462 0.381 0.48895z"/>
     <path d="m351.07-41.699c0 0.50482 0.32703 0.80645 0.73978 0.80645 0.20955 0 0.37465-0.07303 0.508-0.15875l-0.0921-0.17145c-0.1143 0.07303-0.23812 0.12065-0.38417 0.12065-0.29528 0-0.4953-0.20955-0.51435-0.54292h1.0414c6e-3 -0.0381 0.01-0.0889 0.01-0.14288 0-0.44132-0.22225-0.7239-0.61595-0.7239-0.35242 0-0.69215 0.30798-0.69215 0.8128zm0.254-0.11748c0.0317-0.31115 0.2286-0.48895 0.4445-0.48895 0.2413 0 0.381 0.17462 0.381 0.48895z"/>
     <path d="m352.76-40.931h0.26035v-0.9906c0.10477-0.26035 0.26035-0.3556 0.39052-0.3556 0.0635 0 0.0984 0.0095 0.14923 0.0254l0.0508-0.2286c-0.0508-0.02222-0.0984-0.03175-0.1651-0.03175-0.17463 0-0.33338 0.12382-0.43815 0.3175h-0.01l-0.0222-0.2794h-0.2159z"/>
     <path d="m354-42.791c0.1016 0 0.18097-0.06985 0.18097-0.16828 0-0.1016-0.0794-0.16828-0.18097-0.16828-0.1016 0-0.18098 0.06668-0.18098 0.16828 0 0.09842 0.0794 0.16828 0.18098 0.16828zm-0.13335 1.8606h0.26035v-1.543h-0.26035z"/>
     <path d="m354.65-40.931h0.26035v-1.1176c0.15557-0.15558 0.26352-0.23812 0.42227-0.23812 0.2032 0 0.2921 0.12382 0.2921 0.41275v0.94298h0.26035v-0.9779c0-0.3937-0.14605-0.60325-0.4699-0.60325-0.21272 0-0.37147 0.1143-0.51752 0.26035h-0.01l-0.0222-0.22225h-0.2159z"/>
     <path d="m356.49-40.67c0-0.0889 0.0476-0.18098 0.15875-0.26035 0.0667 0.01905 0.1397 0.0254 0.20002 0.0254h0.2667c0.20003 0 0.31115 0.04762 0.31115 0.1905 0 0.16192-0.19367 0.31432-0.48895 0.31432-0.2794 0-0.44767-0.10478-0.44767-0.26988zm-0.2286 0.03493c0 0.2667 0.26035 0.41592 0.63817 0.41592 0.47943 0 0.78105-0.24765 0.78105-0.5334 0-0.25718-0.18097-0.3683-0.53975-0.3683h-0.29845c-0.20955 0-0.27305-0.06985-0.27305-0.16828 0-0.08572 0.0445-0.13652 0.0984-0.18415 0.0699 0.03493 0.15557 0.05398 0.23177 0.05398 0.31433 0 0.56515-0.20638 0.56515-0.53658 0-0.13018-0.054-0.24765-0.127-0.3175h0.3175v-0.20002h-0.53657c-0.0571-0.02222-0.13335-0.0381-0.21908-0.0381-0.31432 0-0.58102 0.21272-0.58102 0.54928 0 0.18415 0.0984 0.33338 0.20002 0.41592v0.0127c-0.0794 0.05397-0.16827 0.15558-0.16827 0.28575 0 0.12065 0.0603 0.2032 0.13652 0.25082v0.0127c-0.1397 0.09525-0.22542 0.21908-0.22542 0.34925zm0.63817-0.95885c-0.1778 0-0.32702-0.14288-0.32702-0.3683s0.14605-0.35878 0.32702-0.35878c0.18098 0 0.32703 0.13335 0.32703 0.35878s-0.14923 0.3683-0.32703 0.3683z"/>
     <path d="m359.37-43.179c-0.0699-0.02857-0.16192-0.0508-0.25717-0.0508-0.30798 0-0.45085 0.19685-0.45085 0.51118v0.24448l-0.20955 0.01588v0.19685h0.20955v1.3303h0.26035v-1.3303h0.32702v-0.21272h-0.32702v-0.24448c0-0.19685 0.0698-0.29845 0.2159-0.29845 0.0572 0 0.11747 0.0127 0.17462 0.0381z"/>
     <path d="m359.4-41.699c0 0.51118 0.33655 0.80645 0.71437 0.80645 0.37783 0 0.71438-0.29528 0.71438-0.80645 0-0.51752-0.33655-0.8128-0.71438-0.8128-0.37782 0-0.71437 0.29528-0.71437 0.8128zm0.26987 0c0-0.3556 0.18098-0.5969 0.4445-0.5969 0.2667 0 0.4445 0.2413 0.4445 0.5969 0 0.35242-0.1778 0.59055-0.4445 0.59055-0.26352 0-0.4445-0.23812-0.4445-0.59055z"/>
     <path d="m361.24-40.931h0.26035v-0.9906c0.10478-0.26035 0.26035-0.3556 0.39053-0.3556 0.0635 0 0.0984 0.0095 0.14922 0.0254l0.0508-0.2286c-0.0508-0.02222-0.0984-0.03175-0.1651-0.03175-0.17462 0-0.33337 0.12382-0.43815 0.3175h-0.01l-0.0222-0.2794h-0.2159z"/>
     <path d="m362.2-41.699c0 0.51118 0.31433 0.80645 0.7239 0.80645 0.18415 0 0.36195-0.0762 0.50165-0.20002l-0.11747-0.17145c-0.0921 0.08255-0.2159 0.15558-0.36195 0.15558-0.28258 0-0.47625-0.23812-0.47625-0.59055 0-0.3556 0.2032-0.5969 0.4826-0.5969 0.12382 0 0.21907 0.05715 0.31115 0.13652l0.13017-0.16828c-0.10477-0.09842-0.24765-0.18415-0.45085-0.18415-0.39687 0-0.74295 0.29528-0.74295 0.8128z"/>
     <path d="m363.58-41.699c0 0.50482 0.32702 0.80645 0.73977 0.80645 0.20955 0 0.37465-0.07303 0.508-0.15875l-0.0921-0.17145c-0.1143 0.07303-0.23813 0.12065-0.38418 0.12065-0.29527 0-0.4953-0.20955-0.51435-0.54292h1.0414c6e-3 -0.0381 0.01-0.0889 0.01-0.14288 0-0.44132-0.22225-0.7239-0.61595-0.7239-0.35243 0-0.69215 0.30798-0.69215 0.8128zm0.254-0.11748c0.0317-0.31115 0.2286-0.48895 0.4445-0.48895 0.2413 0 0.381 0.17462 0.381 0.48895z"/>
    </g>
    <g transform="rotate(-60)" aria-label="current velocity">
     <path d="m23.067 345.81c0 0.51117 0.31432 0.80645 0.7239 0.80645 0.18415 0 0.36195-0.0762 0.50165-0.20003l-0.11748-0.17145c-0.09208 0.0826-0.2159 0.15558-0.36195 0.15558-0.28258 0-0.47625-0.23813-0.47625-0.59055 0-0.3556 0.2032-0.5969 0.4826-0.5969 0.12382 0 0.21908 0.0571 0.31115 0.13652l0.13018-0.16827c-0.10478-0.0984-0.24765-0.18415-0.45085-0.18415-0.39688 0-0.74295 0.29527-0.74295 0.8128z"/>
     <path d="m24.604 346.01c0 0.3937 0.14605 0.60325 0.47308 0.60325 0.21272 0 0.36512-0.11113 0.508-0.2794h0.0095l0.02222 0.2413h0.2159v-1.543h-0.26035v1.0954c-0.14605 0.18098-0.25718 0.26035-0.41592 0.26035-0.2032 0-0.28892-0.12382-0.28892-0.41275v-0.94297h-0.26352z"/>
     <path d="m26.356 346.58h0.26035v-0.9906c0.10478-0.26035 0.26035-0.3556 0.39052-0.3556 0.0635 0 0.09842 0.01 0.14922 0.0254l0.0508-0.2286c-0.0508-0.0222-0.09843-0.0317-0.1651-0.0317-0.17462 0-0.33338 0.12382-0.43815 0.3175h-0.0095l-0.02223-0.2794h-0.2159z"/>
     <path d="m27.46 346.58h0.26035v-0.9906c0.10478-0.26035 0.26035-0.3556 0.39052-0.3556 0.0635 0 0.09842 0.01 0.14922 0.0254l0.0508-0.2286c-0.0508-0.0222-0.09843-0.0317-0.1651-0.0317-0.17462 0-0.33338 0.12382-0.43815 0.3175h-0.0095l-0.02222-0.2794h-0.2159z"/>
     <path d="m28.419 345.81c0 0.50482 0.32702 0.80645 0.73978 0.80645 0.20955 0 0.37465-0.073 0.508-0.15875l-0.09208-0.17145c-0.1143 0.073-0.23812 0.12065-0.38418 0.12065-0.29528 0-0.4953-0.20955-0.51435-0.54293h1.0414c0.0064-0.0381 0.0095-0.0889 0.0095-0.14287 0-0.44133-0.22225-0.7239-0.61595-0.7239-0.35242 0-0.69215 0.30797-0.69215 0.8128zm0.254-0.11748c0.03175-0.31115 0.2286-0.48895 0.4445-0.48895 0.2413 0 0.381 0.17463 0.381 0.48895z"/>
     <path d="m30.108 346.58h0.26035v-1.1176c0.15558-0.15558 0.26352-0.23813 0.42228-0.23813 0.2032 0 0.2921 0.12383 0.2921 0.41275v0.94298h0.26035v-0.9779c0-0.3937-0.14605-0.60325-0.4699-0.60325-0.21272 0-0.37148 0.1143-0.51752 0.26035h-0.0095l-0.02222-0.22225h-0.2159z"/>
     <path d="m31.889 346.1c0 0.3048 0.11112 0.51435 0.44132 0.51435 0.09525 0 0.20002-0.0286 0.28575-0.0571l-0.0508-0.19685c-0.0508 0.0191-0.12065 0.0413-0.17462 0.0413-0.1778 0-0.23812-0.10795-0.23812-0.29845v-0.85725h0.41592v-0.21272h-0.41592v-0.4318h-0.21908l-0.03175 0.4318-0.2413 0.0159v0.19685h0.2286z"/>
     <path d="m33.889 346.58h0.3048l0.5461-1.543h-0.25718l-0.2921 0.8763c-0.04445 0.1524-0.09525 0.30797-0.1397 0.45402h-0.0127c-0.04762-0.14605-0.09842-0.30162-0.14288-0.45402l-0.2921-0.8763h-0.26988z"/>
     <path d="m34.911 345.81c0 0.50482 0.32702 0.80645 0.73978 0.80645 0.20955 0 0.37465-0.073 0.508-0.15875l-0.09208-0.17145c-0.1143 0.073-0.23812 0.12065-0.38418 0.12065-0.29528 0-0.4953-0.20955-0.51435-0.54293h1.0414c0.0063-0.0381 0.0095-0.0889 0.0095-0.14287 0-0.44133-0.22225-0.7239-0.61595-0.7239-0.35242 0-0.69215 0.30797-0.69215 0.8128zm0.254-0.11748c0.03175-0.31115 0.2286-0.48895 0.4445-0.48895 0.2413 0 0.381 0.17463 0.381 0.48895z"/>
     <path d="m36.601 346.27c0 0.22542 0.07937 0.34925 0.27622 0.34925 0.06985 0 0.1143-0.01 0.14922-0.0254l-0.03493-0.19685c-0.02857 6e-3 -0.04127 6e-3 -0.05715 6e-3 -0.0381 0-0.07303-0.0317-0.07303-0.1143v-1.9685h-0.26035z"/>
     <path d="m37.299 345.81c0 0.51117 0.33655 0.80645 0.71438 0.80645s0.71438-0.29528 0.71438-0.80645c0-0.51753-0.33655-0.8128-0.71438-0.8128s-0.71438 0.29527-0.71438 0.8128zm0.26988 0c0-0.3556 0.18098-0.5969 0.4445-0.5969 0.2667 0 0.4445 0.2413 0.4445 0.5969 0 0.35242-0.1778 0.59055-0.4445 0.59055-0.26352 0-0.4445-0.23813-0.4445-0.59055z"/>
     <path d="m39.023 345.81c0 0.51117 0.31432 0.80645 0.7239 0.80645 0.18415 0 0.36195-0.0762 0.50165-0.20003l-0.11748-0.17145c-0.09208 0.0826-0.2159 0.15558-0.36195 0.15558-0.28258 0-0.47625-0.23813-0.47625-0.59055 0-0.3556 0.2032-0.5969 0.4826-0.5969 0.12382 0 0.21908 0.0571 0.31115 0.13652l0.13018-0.16827c-0.10478-0.0984-0.24765-0.18415-0.45085-0.18415-0.39688 0-0.74295 0.29527-0.74295 0.8128z"/>
     <path d="m40.715 344.72c0.1016 0 0.18098-0.0699 0.18098-0.16828 0-0.1016-0.07937-0.16827-0.18098-0.16827-0.1016 0-0.18098 0.0667-0.18098 0.16827 0 0.0984 0.07938 0.16828 0.18098 0.16828zm-0.13335 1.8606h0.26035v-1.543h-0.26035z"/>
     <path d="m41.408 346.1c0 0.3048 0.11112 0.51435 0.44132 0.51435 0.09525 0 0.20002-0.0286 0.28575-0.0571l-0.0508-0.19685c-0.0508 0.0191-0.12065 0.0413-0.17462 0.0413-0.1778 0-0.23812-0.10795-0.23812-0.29845v-0.85725h0.41592v-0.21272h-0.41592v-0.4318h-0.21908l-0.03175 0.4318-0.2413 0.0159v0.19685h0.2286z"/>
     <path d="m42.331 347-0.0508 0.20637c0.0508 0.019 0.11112 0.0317 0.18098 0.0317 0.31115 0 0.4699-0.23177 0.57785-0.53657l0.58102-1.67h-0.254l-0.27622 0.85407c-0.04128 0.13653-0.08573 0.29528-0.13018 0.43498h-0.0127c-0.04762-0.14288-0.1016-0.30163-0.14922-0.43498l-0.31432-0.85407h-0.26988l0.61912 1.5462-0.03493 0.1143c-0.0635 0.1905-0.17462 0.3302-0.34925 0.3302-0.0381 0-0.08572-0.0127-0.11748-0.0222z"/>
    </g>
    <g transform="rotate(-20.562)" aria-label="new velocity">
     <path d="m245.57 255.87h0.26035v-1.1176c0.15557-0.15558 0.26352-0.23813 0.42227-0.23813 0.2032 0 0.2921 0.12383 0.2921 0.41275v0.94298h0.26035v-0.9779c0-0.3937-0.14605-0.60325-0.4699-0.60325-0.21272 0-0.37147 0.1143-0.51752 0.26035h-0.01l-0.0222-0.22225h-0.2159z"/>
     <path d="m247.19 255.1c0 0.50482 0.32702 0.80645 0.73977 0.80645 0.20955 0 0.37465-0.073 0.508-0.15875l-0.0921-0.17145c-0.1143 0.073-0.23813 0.12065-0.38418 0.12065-0.29527 0-0.4953-0.20955-0.51435-0.54293h1.0414c6e-3 -0.0381 0.01-0.0889 0.01-0.14287 0-0.44133-0.22225-0.7239-0.61595-0.7239-0.35243 0-0.69215 0.30797-0.69215 0.8128zm0.254-0.11748c0.0317-0.31115 0.2286-0.48895 0.4445-0.48895 0.2413 0 0.381 0.17463 0.381 0.48895z"/>
     <path d="m249.14 255.87h0.3048l0.2159-0.8255c0.0413-0.14605 0.073-0.2921 0.10795-0.44768h0.0127c0.0381 0.15558 0.0667 0.29845 0.10478 0.4445l0.22225 0.82868h0.3175l0.41275-1.543h-0.24765l-0.22543 0.89217c-0.0317 0.14605-0.0603 0.28575-0.0952 0.42863h-0.0127c-0.0349-0.14288-0.0699-0.28258-0.10795-0.42863l-0.2413-0.89217h-0.254l-0.23812 0.89217c-0.0381 0.14288-0.0699 0.28575-0.10478 0.42863h-0.0127c-0.0286-0.14288-0.0572-0.28258-0.0921-0.42863l-0.2286-0.89217h-0.2667z"/>
     <path d="m252.15 255.87h0.3048l0.5461-1.543h-0.25717l-0.2921 0.8763c-0.0445 0.1524-0.0952 0.30797-0.1397 0.45402h-0.0127c-0.0476-0.14605-0.0984-0.30162-0.14288-0.45402l-0.2921-0.8763h-0.26987z"/>
     <path d="m253.17 255.1c0 0.50482 0.32702 0.80645 0.73977 0.80645 0.20955 0 0.37465-0.073 0.508-0.15875l-0.0921-0.17145c-0.1143 0.073-0.23813 0.12065-0.38418 0.12065-0.29527 0-0.4953-0.20955-0.51435-0.54293h1.0414c6e-3 -0.0381 0.01-0.0889 0.01-0.14287 0-0.44133-0.22225-0.7239-0.61595-0.7239-0.35243 0-0.69215 0.30797-0.69215 0.8128zm0.254-0.11748c0.0317-0.31115 0.2286-0.48895 0.4445-0.48895 0.2413 0 0.381 0.17463 0.381 0.48895z"/>
     <path d="m254.86 255.56c0 0.22542 0.0794 0.34925 0.27622 0.34925 0.0698 0 0.1143-0.01 0.14923-0.0254l-0.0349-0.19685c-0.0286 6e-3 -0.0413 6e-3 -0.0572 6e-3 -0.0381 0-0.073-0.0318-0.073-0.1143v-1.9685h-0.26035z"/>
     <path d="m255.56 255.1c0 0.51117 0.33655 0.80645 0.71437 0.80645 0.37783 0 0.71438-0.29528 0.71438-0.80645 0-0.51753-0.33655-0.8128-0.71438-0.8128-0.37782 0-0.71437 0.29527-0.71437 0.8128zm0.26987 0c0-0.3556 0.18098-0.5969 0.4445-0.5969 0.2667 0 0.4445 0.2413 0.4445 0.5969 0 0.35242-0.1778 0.59055-0.4445 0.59055-0.26352 0-0.4445-0.23813-0.4445-0.59055z"/>
     <path d="m257.29 255.1c0 0.51117 0.31433 0.80645 0.7239 0.80645 0.18415 0 0.36195-0.0762 0.50165-0.20003l-0.11747-0.17145c-0.0921 0.0825-0.2159 0.15558-0.36195 0.15558-0.28258 0-0.47625-0.23813-0.47625-0.59055 0-0.3556 0.2032-0.5969 0.4826-0.5969 0.12382 0 0.21907 0.0572 0.31115 0.13652l0.13017-0.16827c-0.10477-0.0984-0.24765-0.18415-0.45085-0.18415-0.39687 0-0.74295 0.29527-0.74295 0.8128z"/>
     <path d="m258.98 254.01c0.1016 0 0.18097-0.0699 0.18097-0.16828 0-0.1016-0.0794-0.16827-0.18097-0.16827-0.1016 0-0.18098 0.0667-0.18098 0.16827 0 0.0984 0.0794 0.16828 0.18098 0.16828zm-0.13335 1.8606h0.26035v-1.543h-0.26035z"/>
     <path d="m259.67 255.39c0 0.3048 0.11112 0.51435 0.44132 0.51435 0.0952 0 0.20003-0.0286 0.28575-0.0572l-0.0508-0.19685c-0.0508 0.0191-0.12065 0.0413-0.17462 0.0413-0.1778 0-0.23813-0.10795-0.23813-0.29845v-0.85725h0.41593v-0.21272h-0.41593v-0.4318h-0.21907l-0.0317 0.4318-0.2413 0.0159v0.19685h0.2286z"/>
     <path d="m260.59 256.29-0.0508 0.20637c0.0508 0.0191 0.11113 0.0318 0.18098 0.0318 0.31115 0 0.4699-0.23177 0.57785-0.53657l0.58102-1.67h-0.254l-0.27622 0.85407c-0.0413 0.13653-0.0857 0.29528-0.13018 0.43498h-0.0127c-0.0476-0.14288-0.1016-0.30163-0.14922-0.43498l-0.31433-0.85407h-0.26987l0.61912 1.5462-0.0349 0.1143c-0.0635 0.1905-0.17463 0.3302-0.34925 0.3302-0.0381 0-0.0857-0.0127-0.11748-0.0222z"/>
    </g>
    <g aria-label="desired velocity">
     <path d="m329.67 155.58c0 0.51435 0.25082 0.80645 0.63817 0.80645 0.18098 0 0.34608-0.1016 0.46673-0.21908h0.01l0.0222 0.18098h0.2159v-2.2606h-0.26353v0.59372l0.0127 0.26353c-0.13652-0.11113-0.254-0.1778-0.4318-0.1778-0.35242 0-0.66992 0.31115-0.66992 0.8128zm0.26987-3e-3c0-0.35242 0.19685-0.59055 0.4445-0.59055 0.127 0 0.24448 0.0445 0.37465 0.16193v0.80645c-0.127 0.14287-0.25082 0.21272-0.3937 0.21272-0.26987 0-0.42545-0.22225-0.42545-0.59055z"/>
     <path d="m331.43 155.58c0 0.50482 0.32703 0.80645 0.73978 0.80645 0.20955 0 0.37465-0.073 0.508-0.15875l-0.0921-0.17145c-0.1143 0.073-0.23812 0.12065-0.38417 0.12065-0.29528 0-0.4953-0.20955-0.51435-0.54293h1.0414c6e-3 -0.0381 0.01-0.0889 0.01-0.14287 0-0.44133-0.22225-0.7239-0.61595-0.7239-0.35242 0-0.69215 0.30797-0.69215 0.8128zm0.254-0.11748c0.0317-0.31115 0.2286-0.48895 0.4445-0.48895 0.2413 0 0.381 0.17463 0.381 0.48895z"/>
     <path d="m332.94 156.17c0.14605 0.12065 0.3556 0.21273 0.57468 0.21273 0.36512 0 0.56515-0.20955 0.56515-0.46038 0-0.2921-0.24765-0.38417-0.4699-0.46672-0.17463-0.0667-0.3429-0.12383-0.3429-0.2667 0-0.11748 0.0889-0.22225 0.28257-0.22225 0.13653 0 0.24765 0.0572 0.35243 0.13652l0.12382-0.1651c-0.11747-0.0953-0.28575-0.17462-0.47942-0.17462-0.33338 0-0.53023 0.1905-0.53023 0.43815 0 0.26035 0.2413 0.36512 0.46038 0.4445 0.16827 0.0635 0.35242 0.13335 0.35242 0.2921 0 0.13335-0.1016 0.2413-0.3048 0.2413-0.18415 0-0.32067-0.0762-0.45402-0.18415z"/>
     <path d="m334.58 154.49c0.1016 0 0.18098-0.0699 0.18098-0.16828 0-0.1016-0.0794-0.16827-0.18098-0.16827-0.1016 0-0.18097 0.0667-0.18097 0.16827 0 0.0984 0.0794 0.16828 0.18097 0.16828zm-0.13335 1.8606h0.26035v-1.543h-0.26035z"/>
     <path d="m335.23 156.35h0.26035v-0.9906c0.10478-0.26035 0.26035-0.3556 0.39052-0.3556 0.0635 0 0.0984 0.01 0.14923 0.0254l0.0508-0.2286c-0.0508-0.0222-0.0984-0.0317-0.1651-0.0317-0.17462 0-0.33337 0.12382-0.43815 0.3175h-0.01l-0.0222-0.2794h-0.2159z"/>
     <path d="m336.19 155.58c0 0.50482 0.32703 0.80645 0.73978 0.80645 0.20955 0 0.37465-0.073 0.508-0.15875l-0.0921-0.17145c-0.1143 0.073-0.23812 0.12065-0.38417 0.12065-0.29528 0-0.4953-0.20955-0.51435-0.54293h1.0414c6e-3 -0.0381 0.01-0.0889 0.01-0.14287 0-0.44133-0.22225-0.7239-0.61595-0.7239-0.35242 0-0.69215 0.30797-0.69215 0.8128zm0.254-0.11748c0.0317-0.31115 0.2286-0.48895 0.4445-0.48895 0.2413 0 0.381 0.17463 0.381 0.48895z"/>
     <path d="m337.77 155.58c0 0.51435 0.25082 0.80645 0.63817 0.80645 0.18098 0 0.34608-0.1016 0.46673-0.21908h0.01l0.0222 0.18098h0.2159v-2.2606h-0.26353v0.59372l0.0127 0.26353c-0.13652-0.11113-0.254-0.1778-0.4318-0.1778-0.35242 0-0.66992 0.31115-0.66992 0.8128zm0.26987-3e-3c0-0.35242 0.19685-0.59055 0.4445-0.59055 0.127 0 0.24448 0.0445 0.37465 0.16193v0.80645c-0.127 0.14287-0.25082 0.21272-0.3937 0.21272-0.26987 0-0.42545-0.22225-0.42545-0.59055z"/>
     <path d="m340.61 156.35h0.3048l0.5461-1.543h-0.25718l-0.2921 0.8763c-0.0445 0.1524-0.0953 0.30797-0.1397 0.45402h-0.0127c-0.0476-0.14605-0.0984-0.30162-0.14287-0.45402l-0.2921-0.8763h-0.26988z"/>
     <path d="m341.63 155.58c0 0.50482 0.32703 0.80645 0.73978 0.80645 0.20955 0 0.37465-0.073 0.508-0.15875l-0.0921-0.17145c-0.1143 0.073-0.23812 0.12065-0.38417 0.12065-0.29528 0-0.4953-0.20955-0.51435-0.54293h1.0414c6e-3 -0.0381 0.01-0.0889 0.01-0.14287 0-0.44133-0.22225-0.7239-0.61595-0.7239-0.35242 0-0.69215 0.30797-0.69215 0.8128zm0.254-0.11748c0.0317-0.31115 0.2286-0.48895 0.4445-0.48895 0.2413 0 0.381 0.17463 0.381 0.48895z"/>
     <path d="m343.32 156.04c0 0.22542 0.0794 0.34925 0.27622 0.34925 0.0699 0 0.1143-0.01 0.14923-0.0254l-0.0349-0.19685c-0.0286 6e-3 -0.0413 6e-3 -0.0572 6e-3 -0.0381 0-0.073-0.0317-0.073-0.1143v-1.9685h-0.26035z"/>
     <path d="m344.02 155.58c0 0.51117 0.33655 0.80645 0.71438 0.80645 0.37782 0 0.71437-0.29528 0.71437-0.80645 0-0.51753-0.33655-0.8128-0.71437-0.8128-0.37783 0-0.71438 0.29527-0.71438 0.8128zm0.26988 0c0-0.3556 0.18097-0.5969 0.4445-0.5969 0.2667 0 0.4445 0.2413 0.4445 0.5969 0 0.35242-0.1778 0.59055-0.4445 0.59055-0.26353 0-0.4445-0.23813-0.4445-0.59055z"/>
     <path d="m345.74 155.58c0 0.51117 0.31432 0.80645 0.7239 0.80645 0.18415 0 0.36195-0.0762 0.50165-0.20003l-0.11748-0.17145c-0.0921 0.0825-0.2159 0.15558-0.36195 0.15558-0.28257 0-0.47625-0.23813-0.47625-0.59055 0-0.3556 0.2032-0.5969 0.4826-0.5969 0.12383 0 0.21908 0.0571 0.31115 0.13652l0.13018-0.16827c-0.10478-0.0984-0.24765-0.18415-0.45085-0.18415-0.39688 0-0.74295 0.29527-0.74295 0.8128z"/>
     <path d="m347.44 154.49c0.1016 0 0.18098-0.0699 0.18098-0.16828 0-0.1016-0.0794-0.16827-0.18098-0.16827-0.1016 0-0.18097 0.0667-0.18097 0.16827 0 0.0984 0.0794 0.16828 0.18097 0.16828zm-0.13335 1.8606h0.26035v-1.543h-0.26035z"/>
     <path d="m348.13 155.87c0 0.3048 0.11112 0.51435 0.44132 0.51435 0.0952 0 0.20003-0.0286 0.28575-0.0572l-0.0508-0.19685c-0.0508 0.019-0.12065 0.0413-0.17462 0.0413-0.1778 0-0.23813-0.10795-0.23813-0.29845v-0.85725h0.41593v-0.21272h-0.41593v-0.4318h-0.21907l-0.0317 0.4318-0.2413 0.0159v0.19685h0.2286z"/>
     <path d="m349.05 156.77-0.0508 0.20637c0.0508 0.0191 0.11112 0.0318 0.18097 0.0318 0.31115 0 0.4699-0.23177 0.57785-0.53657l0.58103-1.67h-0.254l-0.27623 0.85407c-0.0413 0.13653-0.0857 0.29528-0.13017 0.43498h-0.0127c-0.0476-0.14288-0.1016-0.30163-0.14923-0.43498l-0.31432-0.85407h-0.26988l0.61913 1.5462-0.0349 0.1143c-0.0635 0.1905-0.17462 0.3302-0.34925 0.3302-0.0381 0-0.0857-0.0127-0.11747-0.0222z"/>
    </g>
   </g>
   <g stroke-width="201.8">
    <g transform="matrix(.0061901 0 0 -.0062961 362.91 159.34)">
     <g fill="#e8eaec" stroke-width="201.8">
      <path d="m486.41 221.41-364.07-208.5c-52.938-30.318-95.852-5.44-95.852 55.563v415.65c0 61.004 42.914 85.882 95.852 55.563l364.07-208.49c52.938-30.317 52.938-79.473 0-109.79z" fill="#e8eaec" stroke-width="201.8"/>
     </g>
    </g>
    <g transform="matrix(.0051328 .0034599 .0035192 -.0052207 327.26 170.15)">
     <g fill="#e8eaec" stroke-width="201.8">
      <path d="m486.41 221.41-364.07-208.5c-52.938-30.318-95.852-5.44-95.852 55.563v415.65c0 61.004 42.914 85.882 95.852 55.563l364.07-208.49c52.938-30.317 52.938-79.473 0-109.79z" fill="#e8eaec" stroke-width="201.8"/>
     </g>
    </g>
    <g transform="matrix(.0051328 .0034599 .0035192 -.0052207 346.74 183.19)">
     <g fill="#e8eaec" stroke-width="201.8">
      <path d="m486.41 221.41-364.07-208.5c-52.938-30.318-95.852-5.44-95.852 55.563v415.65c0 61.004 42.914 85.882 95.852 55.563l364.07-208.49c52.938-30.317 52.938-79.473 0-109.79z" fill="#e8eaec" stroke-width="201.8"/>
     </g>
    </g>
    <g transform="matrix(-.0033514 .0052044 .0052935 .0034088 351.5 179.89)">
     <g fill="#e8eaec" stroke-width="201.8">
      <path d="m486.41 221.41-364.07-208.5c-52.938-30.318-95.852-5.44-95.852 55.563v415.65c0 61.004 42.914 85.882 95.852 55.563l364.07-208.49c52.938-30.317 52.938-79.473 0-109.79z" fill="#e8eaec" stroke-width="201.8"/>
     </g>
    </g>
    <g transform="matrix(.0028443 -.0054979 -.0055921 -.002893 325.83 137.24)">
     <g fill="#e8eaec" stroke-width="201.8">
      <path d="m486.41 221.41-364.07-208.5c-52.938-30.318-95.852-5.44-95.852 55.563v415.65c0 61.004 42.914 85.882 95.852 55.563l364.07-208.49c52.938-30.317 52.938-79.473 0-109.79z" fill="#e8eaec" stroke-width="201.8"/>
     </g>
    </g>
    <g transform="matrix(.0058151 -.0021217 -.002158 -.0059147 342.19 148.42)">
     <g fill="#e8eaec" stroke-width="201.8">
      <path d="m486.41 221.41-364.07-208.5c-52.938-30.318-95.852-5.44-95.852 55.563v415.65c0 61.004 42.914 85.882 95.852 55.563l364.07-208.49c52.938-30.317 52.938-79.473 0-109.79z" fill="#e8eaec" stroke-width="201.8"/>
     </g>
    </g>
    <g transform="matrix(.0031711 .0020599 .0020952 -.0032254 341.37 144.13)">
     <g fill="#e8eaec" stroke-width="201.8">
      <path d="m486.41 221.41-364.07-208.5c-52.938-30.318-95.852-5.44-95.852 55.563v415.65c0 61.004 42.914 85.882 95.852 55.563l364.07-208.49c52.938-30.317 52.938-79.473 0-109.79z" fill="#e8eaec" stroke-width="201.8"/>
     </g>
    </g>
   </g>
  </g>
  <path d="m366.16 157.63h28.511" fill="none" stroke="#a6aeb8" stroke-dasharray="0.264583, 0.79375" stroke-linecap="square" stroke-width=".26458"/>
  <circle cx="394.76" cy="157.54" r=".83" fill="#a6aeb8" stroke="#a6aeb8" stroke-width=".74379"/>
 </g>
</svg>
