<?xml version="1.0" encoding="UTF-8" standalone="no"?>
<svg
   xmlns:dc="http://purl.org/dc/elements/1.1/"
   xmlns:cc="http://creativecommons.org/ns#"
   xmlns:rdf="http://www.w3.org/1999/02/22-rdf-syntax-ns#"
   xmlns:svg="http://www.w3.org/2000/svg"
   xmlns="http://www.w3.org/2000/svg"
   xmlns:sodipodi="http://sodipodi.sourceforge.net/DTD/sodipodi-0.dtd"
   xmlns:inkscape="http://www.inkscape.org/namespaces/inkscape"
   width="100.1"
   height="50.1"
   version="1.1"
   viewBox="0 0 26.485 13.256"
   id="svg282"
   sodipodi:docname="chapter_assets_generic.svg"
   inkscape:version="0.92.3 (2405546, 2018-03-11)">
  <defs
     id="defs286" />
  <sodipodi:namedview
     pagecolor="#ffffff"
     bordercolor="#666666"
     borderopacity="1"
     objecttolerance="10"
     gridtolerance="10"
     guidetolerance="10"
     inkscape:pageopacity="0"
     inkscape:pageshadow="2"
     inkscape:window-width="1920"
     inkscape:window-height="1017"
     id="namedview284"
     showgrid="false"
     inkscape:zoom="22.627417"
     inkscape:cx="54.738723"
     inkscape:cy="18.758553"
     inkscape:window-x="2552"
     inkscape:window-y="-8"
     inkscape:window-maximized="1"
     inkscape:current-layer="text1296" />
  <metadata
     id="metadata2">
    <rdf:RDF>
      <cc:Work
         rdf:about="">
        <dc:format>image/svg+xml</dc:format>
        <dc:type
           rdf:resource="http://purl.org/dc/dcmitype/StillImage" />
        <dc:title></dc:title>
      </cc:Work>
    </rdf:RDF>
  </metadata>
  <g
     transform="translate(-119.81 -81.063)"
     id="g280">
    <rect
       x="121.13"
       y="82.386"
       width="23.812"
       height="10.583"
       fill="#1d232d"
       style="paint-order:normal"
       id="rect4" />
    <g
       fill="#7b8694"
       id="g50">
      <rect
         x="121.66"
         y="82.121"
         width="1.5875"
         height=".26458"
         id="rect6" />
      <rect
         x="123.77"
         y="82.121"
         width="1.5875"
         height=".26458"
         id="rect8" />
      <rect
         x="125.89"
         y="82.121"
         width="1.5875"
         height=".26458"
         id="rect10" />
      <rect
         x="128.01"
         y="82.121"
         width="1.5875"
         height=".26458"
         id="rect12" />
      <rect
         x="130.12"
         y="82.121"
         width="1.5875"
         height=".26458"
         id="rect14" />
      <rect
         x="132.24"
         y="82.121"
         width="1.5875"
         height=".26458"
         id="rect16" />
      <rect
         x="134.36"
         y="82.121"
         width="1.5875"
         height=".26458"
         id="rect18" />
      <rect
         x="136.47"
         y="82.121"
         width="1.5875"
         height=".26458"
         id="rect20" />
      <rect
         x="138.59"
         y="82.121"
         width="1.5875"
         height=".26458"
         id="rect22" />
      <rect
         x="140.71"
         y="82.121"
         width="1.5875"
         height=".26458"
         id="rect24" />
      <rect
         x="142.82"
         y="82.121"
         width="1.5875"
         height=".26458"
         id="rect26" />
      <rect
         x="121.66"
         y="92.969"
         width="1.5875"
         height=".26458"
         id="rect28" />
      <rect
         x="123.77"
         y="92.969"
         width="1.5875"
         height=".26458"
         id="rect30" />
      <rect
         x="125.89"
         y="92.969"
         width="1.5875"
         height=".26458"
         id="rect32" />
      <rect
         x="128.01"
         y="92.969"
         width="1.5875"
         height=".26458"
         id="rect34" />
      <rect
         x="130.12"
         y="92.969"
         width="1.5875"
         height=".26458"
         id="rect36" />
      <rect
         x="132.24"
         y="92.969"
         width="1.5875"
         height=".26458"
         id="rect38" />
      <rect
         x="134.36"
         y="92.969"
         width="1.5875"
         height=".26458"
         id="rect40" />
      <rect
         x="136.47"
         y="92.969"
         width="1.5875"
         height=".26458"
         id="rect42" />
      <rect
         x="138.59"
         y="92.969"
         width="1.5875"
         height=".26458"
         id="rect44" />
      <rect
         x="140.71"
         y="92.969"
         width="1.5875"
         height=".26458"
         id="rect46" />
      <rect
         x="142.82"
         y="92.969"
         width="1.5875"
         height=".26458"
         id="rect48" />
    </g>
  </g>
  <rect
     y="4.1134391"
     x="13.643327"
     height="4.9843297"
     width="4.9843297"
     id="rect1791"
     style="fill:#1d232d;fill-opacity:1;stroke:#7b8694;stroke-width:0.05538144;stroke-linecap:square;stroke-miterlimit:4;stroke-dasharray:none;stroke-dashoffset:1.20000005;stroke-opacity:1" />
  <rect
     style="fill:#1d232d;fill-opacity:1;stroke:#7b8694;stroke-width:0.05538144;stroke-linecap:square;stroke-miterlimit:4;stroke-dasharray:none;stroke-dashoffset:1.20000005;stroke-opacity:1"
     id="rect1793"
     width="4.9843297"
     height="4.9843297"
     x="8.1051836"
     y="4.1134391" />
  <path
     sodipodi:nodetypes="sssssscsscsccc"
     inkscape:connector-curvature="0"
     id="path1279"
     d="m 9.1439358,4.8363891 c -0.052489,0 -0.094754,0.042158 -0.094754,0.094646 v 3.33976 c 0,0.052489 0.042268,0.094754 0.094754,0.094754 h 2.8304032 c 0.05249,0 0.09475,-0.042268 0.09475,-0.094754 V 5.5964778 H 11.35919 c -0.05249,0 -0.09475,-0.042268 -0.09475,-0.094754 V 4.8363891 Z m 2.1285092,-0.00757 0.805545,0.7603329 z"
     style="fill:none;fill-opacity:1;stroke:#a0f1c6;stroke-width:0.05538144;stroke-linecap:square;stroke-miterlimit:4;stroke-dasharray:none;stroke-dashoffset:1.20000005;stroke-opacity:1" />
  <path
     style="fill:none;fill-opacity:1;stroke:#a0f1c6;stroke-width:0.05538144;stroke-linecap:square;stroke-miterlimit:4;stroke-dasharray:none;stroke-dashoffset:1.20000005;stroke-opacity:1"
     d="m 14.682079,4.8363891 c -0.05249,0 -0.09475,0.042158 -0.09475,0.094646 v 3.33976 c 0,0.052489 0.04227,0.094754 0.09475,0.094754 h 2.830403 c 0.05249,0 0.09475,-0.042268 0.09475,-0.094754 V 5.596478 h -0.709894 c -0.05249,0 -0.09475,-0.042268 -0.09475,-0.094754 V 4.8363891 Z m 2.128508,-0.00757 0.805546,0.7603329 z"
     id="path1281"
     inkscape:connector-curvature="0"
     sodipodi:nodetypes="sssssscsscsccc" />
  <g
     aria-label="00010 01101 01101"
     transform="matrix(0.20918753,0,0,0.20943205,9.782343,-0.68306964)"
     style="font-weight:bold;font-size:2.98790479px;line-height:1.25;font-family:'Segoe UI';-inkscape-font-specification:'Segoe UI Bold';fill:#a0f1c6;fill-opacity:1;stroke:#30d2d5;stroke-width:0.26459083;stroke-linecap:square;stroke-miterlimit:4;stroke-dasharray:none;stroke-dashoffset:1.20000005;stroke-opacity:1"
     id="text1296">
    <path
       d="m 26.736778,33.909475 q -0.746976,0 -0.746976,-1.048977 0,-0.544184 0.201334,-0.828677 0.202792,-0.285951 0.586493,-0.285951 0.729468,0 0.729468,1.066483 0,0.531054 -0.199874,0.814088 -0.198416,0.283034 -0.570445,0.283034 z m 0.02042,-1.812001 q -0.299082,0 -0.299082,0.751353 0,0.707585 0.293247,0.707585 0.285951,0 0.285951,-0.729469 0,-0.729469 -0.280116,-0.729469 z"
       style="stroke:none;stroke-width:0.26459083;fill:#a0f1c6;fill-opacity:1"
       id="path1302"
       inkscape:connector-curvature="0" />
    <path
       d="m 28.458325,33.909475 q -0.746976,0 -0.746976,-1.048977 0,-0.544184 0.201333,-0.828677 0.202793,-0.285951 0.586493,-0.285951 0.729469,0 0.729469,1.066483 0,0.531054 -0.199874,0.814088 -0.198416,0.283034 -0.570445,0.283034 z m 0.02043,-1.812001 q -0.299082,0 -0.299082,0.751353 0,0.707585 0.293246,0.707585 0.285952,0 0.285952,-0.729469 0,-0.729469 -0.280116,-0.729469 z"
       style="stroke:none;stroke-width:0.26459083;fill:#a0f1c6;fill-opacity:1"
       id="path1304"
       inkscape:connector-curvature="0" />
    <path
       d="m 30.179872,33.909475 q -0.746977,0 -0.746977,-1.048977 0,-0.544184 0.201334,-0.828677 0.202792,-0.285951 0.586493,-0.285951 0.729469,0 0.729469,1.066483 0,0.531054 -0.199875,0.814088 -0.198415,0.283034 -0.570444,0.283034 z m 0.02042,-1.812001 q -0.299083,0 -0.299083,0.751353 0,0.707585 0.293247,0.707585 0.285952,0 0.285952,-0.729469 0,-0.729469 -0.280116,-0.729469 z"
       style="stroke:none;stroke-width:0.26459083;fill:#a0f1c6;fill-opacity:1"
       id="path1306"
       inkscape:connector-curvature="0" />
    <path
       d="m 32.267612,31.734198 v 2.138803 H 31.808046 V 32.25358 q -0.03793,0.03356 -0.09045,0.06419 -0.05106,0.02918 -0.10942,0.05398 -0.05836,0.02334 -0.121092,0.04085 -0.06273,0.01605 -0.12401,0.02334 v -0.38807 q 0.17945,-0.05252 0.338474,-0.134222 0.159024,-0.0817 0.28741,-0.17945 z"
       style="stroke:none;stroke-width:0.26459083;fill:#a0f1c6;fill-opacity:1"
       id="path1308"
       inkscape:connector-curvature="0" />
    <path
       d="m 33.622965,33.909475 q -0.746976,0 -0.746976,-1.048977 0,-0.544184 0.201333,-0.828677 0.202792,-0.285951 0.586493,-0.285951 0.729469,0 0.729469,1.066483 0,0.531054 -0.199874,0.814088 -0.198416,0.283034 -0.570445,0.283034 z m 0.02042,-1.812001 q -0.299082,0 -0.299082,0.751353 0,0.707585 0.293246,0.707585 0.285952,0 0.285952,-0.729469 0,-0.729469 -0.280116,-0.729469 z"
       style="stroke:none;stroke-width:0.26459083;fill:#a0f1c6;fill-opacity:1"
       id="path1310"
       inkscape:connector-curvature="0" />
    <path
       d="m 26.736778,37.644356 q -0.746976,0 -0.746976,-1.048977 0,-0.544184 0.201334,-0.828677 0.202792,-0.285951 0.586493,-0.285951 0.729468,0 0.729468,1.066483 0,0.531054 -0.199874,0.814088 -0.198416,0.283034 -0.570445,0.283034 z m 0.02042,-1.812001 q -0.299082,0 -0.299082,0.751353 0,0.707585 0.293247,0.707585 0.285951,0 0.285951,-0.729469 0,-0.729469 -0.280116,-0.729469 z"
       style="stroke:none;stroke-width:0.26459083;fill:#a0f1c6;fill-opacity:1"
       id="path1312"
       inkscape:connector-curvature="0" />
    <path
       d="m 28.824518,35.469079 v 2.138803 h -0.459565 v -1.619421 q -0.03793,0.03356 -0.09045,0.06419 -0.05106,0.02918 -0.109421,0.05398 -0.05836,0.02334 -0.121091,0.04085 -0.06273,0.01605 -0.12401,0.02334 v -0.388077 q 0.179449,-0.05252 0.338473,-0.134222 0.159025,-0.0817 0.287411,-0.17945 z"
       style="stroke:none;stroke-width:0.26459083;fill:#a0f1c6;fill-opacity:1"
       id="path1314"
       inkscape:connector-curvature="0" />
    <path
       d="m 30.546065,35.469079 v 2.138803 H 30.0865 v -1.619421 q -0.03793,0.03356 -0.09046,0.06419 -0.05106,0.02918 -0.10942,0.05398 -0.05836,0.02334 -0.121092,0.04085 -0.06273,0.01605 -0.12401,0.02334 v -0.388077 q 0.17945,-0.05252 0.338474,-0.134222 0.159024,-0.0817 0.287411,-0.17945 z"
       style="stroke:none;stroke-width:0.26459083;fill:#a0f1c6;fill-opacity:1"
       id="path1316"
       inkscape:connector-curvature="0" />
    <path
       d="m 31.901418,37.644356 q -0.746976,0 -0.746976,-1.048977 0,-0.544184 0.201333,-0.828677 0.202793,-0.285951 0.586493,-0.285951 0.729469,0 0.729469,1.066483 0,0.531054 -0.199874,0.814088 -0.198416,0.283034 -0.570445,0.283034 z m 0.02042,-1.812001 q -0.299082,0 -0.299082,0.751353 0,0.707585 0.293247,0.707585 0.285951,0 0.285951,-0.729469 0,-0.729469 -0.280116,-0.729469 z"
       style="stroke:none;stroke-width:0.26459083;fill:#a0f1c6;fill-opacity:1"
       id="path1318"
       inkscape:connector-curvature="0" />
    <path
       d="m 33.989158,35.469079 v 2.138803 h -0.459565 v -1.619421 q -0.03793,0.03356 -0.09045,0.06419 -0.05106,0.02918 -0.109421,0.05398 -0.05836,0.02334 -0.121091,0.04085 -0.06273,0.01605 -0.12401,0.02334 v -0.388077 q 0.179449,-0.05252 0.338473,-0.134222 0.159025,-0.0817 0.287411,-0.17945 z"
       style="stroke:none;stroke-width:0.26459083;fill:#a0f1c6;fill-opacity:1"
       id="path1320"
       inkscape:connector-curvature="0" />
    <path
       d="m 26.736778,41.379237 q -0.746976,0 -0.746976,-1.048977 0,-0.544184 0.201334,-0.828677 0.202792,-0.285951 0.586493,-0.285951 0.729468,0 0.729468,1.066483 0,0.531054 -0.199874,0.814088 -0.198416,0.283034 -0.570445,0.283034 z m 0.02042,-1.812001 q -0.299082,0 -0.299082,0.751353 0,0.707585 0.293247,0.707585 0.285951,0 0.285951,-0.729469 0,-0.729469 -0.280116,-0.729469 z"
       style="stroke:none;stroke-width:0.26459083;fill:#a0f1c6;fill-opacity:1"
       id="path1322"
       inkscape:connector-curvature="0" />
    <path
       d="m 28.824518,39.20396 v 2.138803 h -0.459565 v -1.619421 q -0.03793,0.03356 -0.09045,0.06419 -0.05106,0.02918 -0.109421,0.05398 -0.05836,0.02334 -0.121091,0.04085 -0.06273,0.01605 -0.12401,0.02334 v -0.388077 q 0.179449,-0.05252 0.338473,-0.134223 0.159025,-0.0817 0.287411,-0.179449 z"
       style="stroke:none;stroke-width:0.26459083;fill:#a0f1c6;fill-opacity:1"
       id="path1324"
       inkscape:connector-curvature="0" />
    <path
       d="m 30.546065,39.20396 v 2.138803 H 30.0865 v -1.619421 q -0.03793,0.03356 -0.09046,0.06419 -0.05106,0.02918 -0.10942,0.05398 -0.05836,0.02334 -0.121092,0.04085 -0.06273,0.01605 -0.12401,0.02334 v -0.388077 q 0.17945,-0.05252 0.338474,-0.134223 0.159024,-0.0817 0.287411,-0.179449 z"
       style="stroke:none;stroke-width:0.26459083;fill:#a0f1c6;fill-opacity:1"
       id="path1326"
       inkscape:connector-curvature="0" />
    <path
       d="m 31.901418,41.379237 q -0.746976,0 -0.746976,-1.048977 0,-0.544184 0.201333,-0.828677 0.202793,-0.285951 0.586493,-0.285951 0.729469,0 0.729469,1.066483 0,0.531054 -0.199874,0.814088 -0.198416,0.283034 -0.570445,0.283034 z m 0.02042,-1.812001 q -0.299082,0 -0.299082,0.751353 0,0.707585 0.293247,0.707585 0.285951,0 0.285951,-0.729469 0,-0.729469 -0.280116,-0.729469 z"
       style="stroke:none;stroke-width:0.26459083;fill:#a0f1c6;fill-opacity:1"
       id="path1328"
       inkscape:connector-curvature="0" />
    <path
       d="m 33.989158,39.20396 v 2.138803 h -0.459565 v -1.619421 q -0.03793,0.03356 -0.09045,0.06419 -0.05106,0.02918 -0.109421,0.05398 -0.05836,0.02334 -0.121091,0.04085 -0.06273,0.01605 -0.12401,0.02334 v -0.388077 q 0.179449,-0.05252 0.338473,-0.134223 0.159025,-0.0817 0.287411,-0.179449 z"
       style="stroke:none;stroke-width:0.26459083;fill:#a0f1c6;fill-opacity:1"
       id="path1330"
       inkscape:connector-curvature="0" />
  </g>
  <path
     style="fill:#a0f1c6;fill-opacity:1;stroke-width:0.01207058"
     d="m 11.088627,7.6856373 c -0.02566,-0.00716 -0.07047,-0.03589 -0.09958,-0.063785 -0.0529,-0.050688 -0.05294,-0.050785 -0.05294,-0.1372861 v -0.086564 h -0.463898 -0.463896 l -0.025783,-0.036211 c -0.014179,-0.019914 -0.029677,-0.036211 -0.034429,-0.036211 -0.00477,0 -0.018631,0.016901 -0.030834,0.037554 l -0.022181,0.037553 -0.1162121,-0.00507 C 9.6525111,7.3900961 9.59264,7.3684216 9.5359209,7.3076853 L 9.5057439,7.2753673 9.5023839,6.6569472 9.4990239,6.038527 9.5269639,5.99705 c 0.086256,-0.1280585 0.319768,-0.1439914 0.4387987,-0.029939 0.052881,0.050673 0.052926,0.050778 0.052926,0.1372735 v 0.086563 h 0.313013 0.313013 l 0.02578,0.036211 c 0.01418,0.019914 0.02968,0.036211 0.03443,0.036211 0.0048,0 0.01849,-0.016662 0.03052,-0.037032 l 0.02188,-0.037032 0.267405,0.0038 c 0.259313,0.00373 0.269034,0.00477 0.321255,0.034011 0.02962,0.016595 0.06628,0.048637 0.08148,0.071192 l 0.02763,0.041015 v 0.6059942 0.605995 l -0.02763,0.041014 c -0.05767,0.085615 -0.213305,0.128453 -0.338888,0.093276 z m 0.176029,-0.070901 c 0.02469,-0.00686 0.06135,-0.026321 0.08148,-0.043252 l 0.03658,-0.030789 V 7.0299282 6.5191615 l -0.06337,0.024233 c -0.07575,0.028969 -0.209089,0.025627 -0.271588,-0.00679 l -0.03923,-0.020362 V 7.0301284 7.544015 l 0.0308,0.028551 c 0.05087,0.047145 0.144406,0.064666 0.225319,0.042193 z m -1.3614914,-0.3646115 0.047645,-0.069416 0.047697,0.072579 0.047697,0.072579 0.441936,-0.00313 0.441936,-0.00313 0.0031,-0.485841 0.0031,-0.4858411 h 0.02821 c 0.02172,0 0.03259,0.011151 0.04725,0.048473 0.01482,0.037725 0.03061,0.053724 0.07124,0.072161 0.08838,0.040105 0.206702,0.027015 0.267828,-0.02964 0.04267,-0.039545 0.04095,-0.081156 -0.0049,-0.1197773 -0.05693,-0.047906 -0.112501,-0.056573 -0.339599,-0.052978 l -0.20869,0.00328 -0.0477,0.069417 -0.0477,0.069416 -0.0476,-0.07243 -0.0476,-0.07243 h -0.456949 c -0.4200794,0 -0.4618763,-0.00186 -0.5174736,-0.02298 l -0.060481,-0.02298 v 0.5097359 0.509736 l 0.029029,0.027276 c 0.042141,0.03959 0.1123777,0.061302 0.1881049,0.058147 0.066135,-0.00276 0.066344,-0.00291 0.1138969,-0.072169 z M 10.035178,7.0781267 c -0.01059,-0.027604 0.0042,-0.05432 0.03018,-0.05432 0.02855,0 0.04321,0.033355 0.02454,0.055849 -0.01816,0.021883 -0.04603,0.0211 -0.05472,-0.00157 z m 0.15311,6.698e-4 c -0.02191,-0.026403 -0.0063,-0.057483 0.02655,-0.052814 0.01991,0.00283 0.02722,0.011926 0.02722,0.033877 0,0.035219 -0.03115,0.046191 -0.05376,0.018945 z m 0.148655,-6.698e-4 c -0.01059,-0.027604 0.0043,-0.05432 0.03018,-0.05432 0.02855,0 0.04321,0.033355 0.02454,0.055849 -0.01816,0.021883 -0.04603,0.0211 -0.05472,-0.00157 z m 0.15311,6.698e-4 c -0.02191,-0.026403 -0.0063,-0.057483 0.02655,-0.052814 0.01991,0.00283 0.02722,0.011926 0.02722,0.033877 0,0.035219 -0.03115,0.046191 -0.05376,0.018945 z m 0.148655,-6.698e-4 c -0.01059,-0.027604 0.0043,-0.05432 0.03018,-0.05432 0.02855,0 0.04321,0.033355 0.02454,0.055849 -0.01816,0.021883 -0.04603,0.0211 -0.05471,-0.00157 z m 0.15311,6.698e-4 c -0.02191,-0.026403 -0.0063,-0.057483 0.02655,-0.052814 0.01991,0.00283 0.02722,0.011926 0.02722,0.033877 0,0.035219 -0.03115,0.046191 -0.05376,0.018945 z M 9.8860943,7.0058581 c -0.02151,-0.025918 -0.00559,-0.056931 0.026851,-0.052299 0.030938,0.0044 0.043901,0.044087 0.019474,0.059571 -0.022629,0.014343 -0.029252,0.013299 -0.046325,-0.00723 z M 9.8058376,6.8487867 c -0.00956,-0.024919 0.00343,-0.054321 0.023957,-0.054321 0.024166,0 0.048085,0.032557 0.039799,0.054164 -0.00905,0.023584 -0.054723,0.023696 -0.063756,1.537e-4 z m 0.3721834,-0.1302632 -0.02637,-0.028074 0.04225,-0.040955 0.04225,-0.040955 -0.04252,-0.04355 -0.04252,-0.04355 0.02807,-0.026373 0.02807,-0.026373 0.04096,0.042253 0.04096,0.042253 0.04355,-0.042521 0.04355,-0.042521 0.02637,0.028074 0.02637,0.028074 -0.04225,0.040955 -0.04225,0.040955 0.04252,0.04355 0.04252,0.04355 -0.02807,0.026373 -0.02807,0.026373 -0.04096,-0.042253 -0.04096,-0.042253 -0.04355,0.042521 -0.04355,0.042521 z M 9.8860943,6.7040912 c -0.02151,-0.025911 -0.00559,-0.056931 0.026851,-0.052299 0.030938,0.0044 0.043901,0.044087 0.019474,0.059571 -0.022629,0.014343 -0.029252,0.013299 -0.046325,-0.00723 z m 0.1447197,-0.095427 c 0,-0.034444 0.03382,-0.051098 0.0569,-0.028022 0.02308,0.023077 0.0064,0.056901 -0.02802,0.056901 -0.02242,0 -0.02889,-0.00649 -0.02889,-0.028887 z M 9.9463197,6.1179382 c 0,-0.062555 -0.00433,-0.077042 -0.030476,-0.1012421 -0.028805,-0.026694 -0.1110783,-0.055178 -0.1589479,-0.055029 -0.082184,2.558e-4 -0.1847664,0.0648 -0.1847664,0.1162523 0,0.035793 0.050009,0.085068 0.1015121,0.1000174 0.020511,0.00597 0.090259,0.011315 0.1549874,0.011911 l 0.1176889,0.00112 z"
     id="path944"
     inkscape:connector-curvature="0" />
</svg>
