<?xml version="1.0" encoding="UTF-8"?>
<svg width="250.17mm" height="185.38mm" version="1.1" viewBox="0 0 250.17 185.38" xmlns="http://www.w3.org/2000/svg" xmlns:cc="http://creativecommons.org/ns#" xmlns:dc="http://purl.org/dc/elements/1.1/" xmlns:rdf="http://www.w3.org/1999/02/22-rdf-syntax-ns#">
 <metadata>
  <rdf:RDF>
   <cc:Work rdf:about="">
    <dc:format>image/svg+xml</dc:format>
    <dc:type rdf:resource="http://purl.org/dc/dcmitype/StillImage"/>
    <dc:title/>
   </cc:Work>
  </rdf:RDF>
 </metadata>
 <g fill="#121824" stroke="#535e70" stroke-linecap="round" stroke-width=".26458">
  <rect x="24.919" y="13.977" width="19.182" height="17.595"/>
  <rect x="55.346" y="20.062" width="19.182" height="17.595"/>
  <rect x="41.455" y="19.798" width="19.182" height="24.077"/>
  <rect x="25.713" y="32.498" width="27.914" height="24.077"/>
  <rect x="60.109" y="41.097" width="27.914" height="24.077"/>
  <rect x="37.487" y="42.949" width="27.914" height="15.743"/>
  <rect x="16.452" y="42.287" width="21.034" height="15.743"/>
  <rect x="60.902" y="28.132" width="27.12" height="15.743"/>
  <rect x="40.794" y="53.929" width="27.12" height="24.606"/>
  <rect x="157.45" y=".13229" width="19.182" height="17.595"/>
  <rect x="208.08" y="5.0952" width="19.182" height="17.595"/>
  <rect x="183.72" y="8.0111" width="19.182" height="24.077"/>
  <rect x="140.28" y="22.582" width="27.914" height="24.077"/>
  <rect x="214.72" y="51.199" width="27.914" height="24.077"/>
  <rect x="172.64" y="42.013" width="27.914" height="15.743"/>
  <rect x="144.36" y="51.455" width="21.034" height="15.743"/>
  <rect x="217.19" y="27.945" width="27.12" height="15.743"/>
  <rect x="175.76" y="64.967" width="27.12" height="24.606"/>
  <path d="m5.662 134.47-3.0758-3.8365s-0.62839-3.5057-0.62839-3.7372-1.819-3.8364-1.819-3.8364l0.69453-3.3734 1.5214-2.249 3.3404-1.7859h2.9435l7.3091 1.0583 4.1341-0.0662s2.249-1.356 2.3812-1.356 3.175 2.1497 3.3073 2.1828c0.13229 0.0331 1.356 3.1419 1.356 3.1419l0.16536 3.4727v5.92l-0.03307 3.7372-2.712 2.8773-1.7529 1.4552-5.0932 0.13229h-5.1263l-4.9279-0.59531z"/>
  <path d="m21.868 92.767-3.0096 0.76068-1.9844 1.4883-1.0583 2.9104-0.79375 1.2237-0.03307 3.5719 0.3638 2.3482 2.0505 2.249 2.249 1.5544 3.7703 1.1576 4.0018-1.4883s-0.76068-2.9766-0.76068-3.1419c0-0.16537-1.2898-2.3482-1.2898-2.3482s2.4805-2.4143 2.6789-2.4143c0.19844 0 0.29766-2.1167 0.29766-2.1167l-2.249-2.8773-1.7198-1.5544z"/>
  <path d="m44.06 106.03 3.1088-3.9026 5.3247-0.33073 1.7198-1.2568 4.2995 2.8112 2.2159 1.819 1.4221 1.7529 0.0992 4.2003-1.1245 2.5797s0.39688 3.8034 0.52917 3.8034 0.39687 1.6867 0.39687 1.6867l-1.3891 2.0836-1.8852 2.4474-2.7451 0.16537-4.7294-0.16537-2.9104-1.6867-2.8773-3.6711 0.13229-3.3734-1.6867-2.249 0.7276-3.3073-0.39687-1.819z"/>
  <path d="m68.783 100.33 5.3554-0.95885 1.5669-1.4032 3.695 1.2862 3.2039 0.88865 1.1225 2.2451s0.53789 3.5547 0.65481 3.5547c0.11693 0 1.2628 2.1281 1.2628 2.1281l0.0468 2.6426-1.1459 2.1983-2.7362 1.4266-3.0168 0.0468-3.391-0.21045s-2.8063-0.98224-2.8297-1.0758c-0.0234-0.0936-1.333-2.7596-1.333-2.7596l-2.0112-2.6192 0.18709-3.1104-0.0702-1.9176z"/>
  <path d="m79.282 128.35s0.4961-2.0505 0.59531-2.2159c0.0992-0.16537 2.5797-2.0505 2.5797-2.0505l1.9182-1.3229 3.4396-1.6536 4.8617 0.23151 3.1419 0.29766s2.3812 2.6128 2.5135 2.6458c0.13229 0.0331 2.249 2.0505 2.249 2.0505l1.1906 1.1906 0.0992 4.101-1.6206 2.282-3.9357 1.0253-5.8539 0.3638h-4.8286l-2.4143-1.9844-2.3482-0.3638-1.6867-2.8112z"/>
  <path d="m78.786 148.2 3.0096-2.4805 6.9784-0.23151 3.0427-0.56224 5.9531 0.26459 2.3151 2.1828s0.29765 4.2664 0.33073 4.3987c0.0331 0.13229-0.0661 5.887 0.0661 5.9862 0.13229 0.0992-1.4552 3.2742-1.4552 3.2742l-2.8443 1.819-5.1263 2.3151-5.2586 0.19843-2.9766-0.33072-3.638-1.1576s-2.5135-4.7625-2.5135-4.8948 0.69453-4.8617 0.69453-4.8617l-0.79375-3.3734z"/>
  <path d="m35.107 141.84 1.637-3.4612 3.7885-1.4032 3.3676-0.88868 4.724-0.46771 4.9111 2.3386 3.1337 1.7306 0.98221 5.2385-1.4967 4.8175-11.553 0.7016-5.9401-1.7773-3.3208-1.9644-0.0935-3.3208z"/>
  <path d="m6.5296 149.37-0.28062-2.9466s2.1515-1.4499 2.3386-1.4499 2.8531-0.0468 2.8531-0.0468l2.2918 1.9644 3.9756-0.42092 3.6015-0.0468 1.3096 2.1983 0.37417 3.087 0.60804 2.7596-2.5725 1.7773-2.3386 1.5902-4.8175 0.18709-4.4901 0.65482-2.8999-2.058-0.65482-2.1983z"/>
  <path d="m36.23 163.02 2.6192-2.4322 3.7418-1.029s3.5079 0.0936 3.7418 0c0.23386-0.0935 3.5547-0.74834 3.5547-0.74834l4.116-0.0468s3.087 1.7773 3.2741 1.7773c0.18708 0 2.1515 3.087 2.3854 3.1338 0.23386 0.0468 0.46772 4.5369 0.46772 4.5369l-0.42095 3.8821 0.0468 4.3498-2.6192 2.9934-3.8353 0.51451h-6.5949l-4.3498-1.3564-2.0112-2.6192-2.6192-5.0046-2.0112-3.1337z"/>
  <path d="m172.68 98.058-3.0096 0.76068-1.9844 1.4883-1.0583 2.9104-0.79375 1.2237-0.0331 3.5719 0.3638 2.3482 1.7591 1.9296c-0.27165 0.22664-0.59991 0.50135-0.63149 0.52504-0.0935 0.0701-0.98237 1.4495-0.98237 1.4495l-1.1689 2.4789-0.93586 1.6609s-1.0289 1.5664-1.1224 1.6366c-0.067 0.0503-0.042 1.0968-0.0202 1.8087l-6.2575-0.90591h-2.9435l-3.3404 1.7859-1.5214 2.249-0.69453 3.3734s1.819 3.6049 1.819 3.8364 0.62838 3.7372 0.62838 3.7372l3.0758 3.8365 1.9844 3.1419 4.4685 0.54001-0.2682 0.28681-0.19844 1.5544-0.0331 1.9182-0.0992 2.745 0.063 0.38449-0.1385-0.11888s-2.666 0.0465-2.853 0.0465c-0.18709 0-2.3384 1.45-2.3384 1.45l0.2806 2.9466-0.70176 5.0514 0.65474 2.1983 2.9001 2.0578 4.4902-0.65474 4.8173-0.18706 2.3389-1.5901 1.218-0.84129 1.603 2.8712 1.7772 2.9931 2.713 2.8065 3.3207 2.9931s3.6948 2.0113 3.8819 2.0113c0.0557 0 0.50057 0.0592 1.0516 0.13488l1.1322 1.7642 2.619 5.0048 2.0112 2.6195 4.3501 1.356h6.595l3.8349-0.51416 2.6195-2.9936-0.047-4.3496 0.42116-3.8825s-0.23381-4.4899-0.46767-4.5366c-0.23386-0.0468-2.1983-3.1337-2.3854-3.1337-0.18709 0-3.2742-1.7777-3.2742-1.7777l-4.116 0.047s-3.3204 0.65474-3.5543 0.74827c-0.0589 0.0235-0.32744 0.035-0.6935 0.0393-0.1768-0.0685-0.85215-1.4506-0.85215-1.4506l-0.0661-1.6867 0.0331-1.8852 0.23151-1.3891 1.2898-1.7198 0.74052-1.1751 9.139-0.55499 1.1353-3.654c0.57645 0.32123 1.124 0.63251 1.124 0.63251l2.0583 0.42066 3.0866 0.28059 2.666 0.46768 2.0583 1.2165 1.5436 1.403 3.6949 1.45s2.3851 0.3271 2.7125 0.3271c0.0691 0 0.44745 7e-3 0.70073 0.01l0.42892 1.8221s-0.69454 4.7294-0.69454 4.8617c0 0.13229 2.5136 4.8948 2.5136 4.8948l3.638 1.1576 2.9766 0.33073 5.2586-0.19844 5.1263-2.3151 2.8443-1.819s1.5875-3.175 1.4552-3.2742c-0.13229-0.0992-0.0331-5.8539-0.0661-5.9862-0.0331-0.13229-0.33073-4.3987-0.33073-4.3987l-2.3151-2.1828-5.9531-0.26458-3.0427 0.56224-6.9784 0.23151-3.0096 2.4805-0.0165 0.019c-0.10825-0.0696-0.2899-0.18707-0.2899-0.18707l-3.6013-1.5436-3.1342-1.1694s-5.1449-0.5144-5.332-0.65476c-0.18709-0.14028-2.7125-1.6371-2.7125-1.6371h-5.4725l-0.9772-0.24136-0.58085-3.098-1.9327-1.0671c0.033-0.0279 0.0597-0.0553 0.0765-0.0832 0.14032-0.23387 0.79527-0.98235 1.0759-1.0759 0.28063-0.0935 2.1048-0.18706 2.1048-0.18706s0.84151 0 1.2625-0.18708c0.42095-0.18709 1.918-0.98259 2.0583-1.2164 0.14032-0.23387 1.0759-0.98208 1.45-1.403 0.37418-0.42096 0.88832-0.74827 0.88832-0.74827l3.5083-0.0935 3.4608-0.0465s2.1515-1.2632 2.5724-1.5906c0.42096-0.32742 1.6841-1.3095 1.6841-1.3095h4.6271l1.3642 2.2738 2.3482 0.3638 2.4143 1.9844h4.8286l5.8539-0.3638 3.9357-1.0253 1.6206-2.282-0.0992-4.101-1.1906-1.1906s-2.1167-2.0174-2.249-2.0505c-0.13229-0.0331-2.5135-2.6458-2.5135-2.6458l-3.1419-0.29765-3.7372-0.17775v-3.328c0-0.23151-1.7859-1.9844-1.7859-1.9844l-0.3638-0.69453-1.2568-1.4552-0.97669-0.81388 1.1353-2.1782-0.047-2.6427s-1.146-2.128-1.263-2.128-0.65474-3.5548-0.65474-3.5548l-1.1224-2.2448-3.2039-0.88884-3.6949-1.2862-1.5668 1.403-5.3558 0.95911 0.56121 2.3616 0.0703 1.9177-0.18707 3.1104 2.0112 2.6195s1.3099 2.666 1.3332 2.7595c0.0234 0.0935 2.8293 1.0759 2.8293 1.0759l3.391 0.21032 3.0169-0.047 0.93586-0.48783 0.4067 1.9389 1.5214 1.9182s0.52917 1.4883 0.56224 1.6206c0.0331 0.13229 0.46302 1.4552 0.62839 1.5544 0.12953 0.0777 0.79094 0.43336 1.14 0.62166l-2.6283 1.2635-1.2748 0.87903c-0.0833-0.10295-0.15029-0.17698-0.18035-0.18449-0.1323-0.0331-2.282-1.1245-2.4143-1.1576-0.13229-0.0331-0.82682-0.62838-0.82682-0.62838s-2.1828-1.1906-2.3151-1.2568c-0.1323-0.0662-1.3229-1.1245-1.3229-1.1245l-2.5466-0.46302-3.6049-0.16537-1.4883-1.2898-2.0505-1.6206-5.0198-0.22945c-0.10936-0.90887-0.20568-1.8211-0.20568-1.8211l1.1245-2.5797-0.0992-4.2003-1.4221-1.7529-2.2159-1.819-4.2995-2.8112-1.7198 1.2568-5.3247 0.33072-3.1088 3.9026 0.23151 1.5875 0.39688 1.819-0.72761 3.3073 1.6867 2.249-0.13229 3.3734 2.8773 3.6711 2.9104 1.6867 4.7294 0.16536 2.745-0.16536 1.8852-2.4474 1.3891-2.0836s-0.0557-0.31734-0.10181-0.57722l1.5901 0.51107 2.2159 0.29766s1.5875 0.8599 1.7529 0.95911c0.16536 0.0992 1.7198 1.0914 1.7198 1.0914l0.39687 0.42995 3.0096 0.76068 1.356 1.4221 0.95911 1.0914 2.9104 1.6206h1.8175c-0.17664 0.65699-0.39533 1.5544-0.39533 1.5544l-0.0191 0.34263-2.7011 0.25011s-2.7595 0.047-2.9466 0.047-3.8351 0.0467-4.1625 0.0935c-0.3274 0.0468-2.9936 1.4495-3.2742 1.543-0.28063 0.0936-3.0871 1.7774-3.3678 1.9177-0.28063 0.1403-2.4789 0.93532-2.4789 0.93532s-2.4319 1.0762-2.7125 1.123c-0.28064 0.0468-2.4789 0.74827-2.4789 0.74827l-3.6484 1.1694-0.2682 0.33073-2.5993-1.2382-4.7243 0.46765-3.3678 0.88885-3.7884 1.403-1.6371 3.4613 0.14056 1.5436 0.0935 3.3207 3.3207 1.9642 3.5652 1.0671-0.21808 0.94514 0.0992 2.4143 0.16536 2.2159 0.16537 2.3151 1.3519 1.9642c-0.53583-0.0106-1.1999-0.0238-1.1999-0.0238l-3.7419 1.0289-2.619 2.4324-0.14625 1.3705-3.1605-0.0424-0.84181-0.88885-2.5724-2.3384-1.45-3.2742-1.3095-1.263s-0.88884-2.7125-0.88884-2.8996c0-0.18711-2.5254-1.8242-2.5254-1.8242l-0.32143-0.0641-0.0207-0.0951-0.37413-3.0866-1.3095-2.1983-3.6013 0.0465-2.8339 0.30022 0.0481-1.6128s-0.79375-1.6867-0.82682-1.8521c-0.0331-0.16537-0.46303-2.0505-0.46303-2.0505l0.59532-1.2568 0.0331-1.4883 8e-3 -0.29766h3.4313l5.0932-0.13229 1.7529-1.4552 2.712-2.8773 0.0331-3.7372v-5.9201l-0.16536-3.4726s-1.2237-3.1089-1.356-3.1419c-0.13229-0.0331-3.175-2.1828-3.3073-2.1828-0.1323 0-2.3812 1.356-2.3812 1.356l-2.0386 0.0326 0.0538-0.38397-0.0233-1.7539 1.3327-1.4966 1.0056-1.7074 1.1927-1.2392 0.80873-1.188 3.6546 1.1219 4.0018-1.4883s-0.76067-2.9766-0.76067-3.1419c0-0.16537-1.2898-2.3482-1.2898-2.3482s2.4805-2.4143 2.6789-2.4143 0.29766-2.1167 0.29766-2.1167l-2.249-2.8773-1.7198-1.5544z"/>
 </g>
 <g fill="#47d58a">
  <g transform="matrix(.23548 0 0 .23075 -36.677 -186.58)">
   <rect transform="rotate(-90)" x="-997.56" y="615.9" width="9.5" height="43.5"/>
   <path transform="rotate(-90 730.52 904.44)" d="m641.9 848.56-15.372-26.625h30.744z"/>
  </g>
  <g transform="matrix(-.16651 .16651 -.16316 -.16316 389.78 141.47)">
   <rect transform="rotate(-90)" x="-997.56" y="615.9" width="9.5" height="43.5"/>
   <path transform="rotate(-90 730.52 904.44)" d="m641.9 848.56-15.372-26.625h30.744z"/>
  </g>
  <g transform="matrix(.23548 0 0 .23075 -39.058 -93.979)">
   <rect transform="rotate(-90)" x="-997.56" y="615.9" width="9.5" height="43.5"/>
   <path transform="rotate(-90 730.52 904.44)" d="m641.9 848.56-15.372-26.625h30.744z"/>
  </g>
 </g>
</svg>
