<?xml version="1.0" encoding="UTF-8" standalone="no"?>
<svg
   xmlns:dc="http://purl.org/dc/elements/1.1/"
   xmlns:cc="http://creativecommons.org/ns#"
   xmlns:rdf="http://www.w3.org/1999/02/22-rdf-syntax-ns#"
   xmlns:svg="http://www.w3.org/2000/svg"
   xmlns="http://www.w3.org/2000/svg"
   xmlns:sodipodi="http://sodipodi.sourceforge.net/DTD/sodipodi-0.dtd"
   xmlns:inkscape="http://www.inkscape.org/namespaces/inkscape"
   inkscape:version="0.92.3 (2405546, 2018-03-11)"
   sodipodi:docname="logo_detached.svg"
   xml:space="preserve"
   viewBox="0 0 131.31176 20.097789"
   version="1.1"
   enable-background="new 0 0 198.44 105.83"
   height="143.99989"
   width="506.96881"
   class="animated inactive"
   id="lecture05Logo"><metadata
   id="metadata12"><rdf:RDF><cc:Work
       rdf:about=""><dc:format>image/svg+xml</dc:format><dc:type
         rdf:resource="http://purl.org/dc/dcmitype/StillImage" /><dc:title></dc:title></cc:Work></rdf:RDF></metadata><defs
   id="defs10" /><sodipodi:namedview
   fit-margin-bottom="0"
   fit-margin-right="0"
   fit-margin-left="0"
   fit-margin-top="0"
   inkscape:current-layer="lecture05Logo"
   inkscape:window-maximized="1"
   inkscape:window-y="-8"
   inkscape:window-x="-8"
   inkscape:cy="111.26509"
   inkscape:cx="62.101451"
   inkscape:zoom="3.3644595"
   showgrid="false"
   id="namedview8"
   inkscape:window-height="2097"
   inkscape:window-width="3840"
   inkscape:pageshadow="2"
   inkscape:pageopacity="0"
   guidetolerance="10"
   gridtolerance="10"
   objecttolerance="10"
   borderopacity="1"
   bordercolor="#666666"
   pagecolor="#6c6c6c" />
  <filter
   height="200"
   width="200"
   y="-2"
   x="-2"
   id="blur-filter">
    <feGaussianBlur
   id="feGaussianBlur2"
   stdDeviation="2"
   in="SourceGraphic" />
  </filter><path
   inkscape:connector-curvature="0"
   d="m 84.689333,10.048891 a 6.2163239,6.2163243 0 0 1 -6.216324,6.216324 6.2163239,6.2163243 0 0 1 -6.216324,-6.216324 6.2163239,6.2163243 0 0 1 6.216324,-6.2163243 6.2163239,6.2163243 0 0 1 6.216324,6.2163243"
   style="opacity:1;fill:#47d58a;fill-opacity:1;stroke:none;stroke-width:6.21630001;stroke-linecap:round;stroke-miterlimit:40;stroke-dasharray:none;stroke-opacity:1"
   id="circle8437" /><path
   inkscape:connector-curvature="0"
   d="m 72.256663,-2.3837388 a 6.2163239,6.2163243 0 0 1 -6.216324,6.2163235 6.2163239,6.2163243 0 0 1 -6.216324,-6.2163235 6.2163239,6.2163243 0 0 1 6.216324,-6.216325 6.2163239,6.2163243 0 0 1 6.216324,6.216325"
   style="opacity:1;fill:#cf2f25;fill-opacity:1;stroke:none;stroke-width:6.21630001;stroke-linecap:round;stroke-miterlimit:40;stroke-dasharray:none;stroke-opacity:1"
   id="circle8439" /><path
   inkscape:connector-curvature="0"
   d="m 72.256663,22.481527 a 6.2163239,6.2163243 0 0 1 -6.216324,6.216324 6.2163239,6.2163243 0 0 1 -6.216324,-6.216324 6.2163239,6.2163243 0 0 1 6.216324,-6.216324 6.2163239,6.2163243 0 0 1 6.216324,6.216324"
   style="opacity:1;fill:#2c57df;fill-opacity:1;stroke:none;stroke-width:6.21630001;stroke-linecap:round;stroke-miterlimit:40;stroke-dasharray:none;stroke-opacity:1"
   id="circle8441" /><path
   id="path8443"
   style="opacity:1;fill:#e9e56f;fill-opacity:1;stroke:none;stroke-width:6.21630001;stroke-linecap:round;stroke-miterlimit:40;stroke-dasharray:none;stroke-opacity:1"
   d="m 53.607695,3.8325587 a 6.216324,6.216324 0 0 0 -4.39513,1.82119 l 4.39513,4.3951293 -4.39513,4.39513 a 6.216324,6.216324 0 0 0 4.39513,1.821195 6.216324,6.216324 0 0 0 6.21632,-6.216325 6.216324,6.216324 0 0 0 -6.21632,-6.2163193 z"
   inkscape:connector-curvature="0" /></svg>