<svg version="1.1" viewBox="0 0 577.99 555.78" xmlns="http://www.w3.org/2000/svg">
 <g>
  <rect x="20.394" y="484.04" width="537.2" height="51.344" fill="#3b390d" fill-opacity=".38431" stroke="#e9e56f" stroke-width=".78788"/>
  <g transform="translate(-38.368 -15.31)" fill="#e9e56f" stroke-width="2.6263px" aria-label="Hardware">
   <path d="m295 520.1v10.226h1.1818v-4.8586h4.0051v4.875h1.149v-9.8649c0-0.18055 0.13132-0.18055 0.13132-0.29545 0-0.0328-0.0164-0.0492-0.0164-0.0821h-1.2475v4.3826h-4.0215v-3.9722c0-0.18055 0.1149-0.19697 0.1149-0.32828 0-0.0328-0.0164-0.0492-0.0164-0.0821z"/>
   <path d="m303.79 523.71 0.57449 0.75505c0.62374-0.64016 1.4609-0.83713 2.1667-0.83713 0.88637 0 1.3296 0.37753 1.5429 0.72223 0.24621 0.41035 0.22979 0.90278 0.22979 1.2967v0.26262h-0.22979c-1.1162 0-2.298 0-3.25 0.3447-1.1818 0.42677-1.7071 1.3131-1.7071 2.1338 0 1.0998 0.95202 2.1338 2.5114 2.1338 0.9192 0 1.8712-0.3447 2.6919-1.0177v0.82071h1.1162v-4.6452c0-0.60733-0.0164-1.1818-0.36111-1.7727-0.49242-0.8043-1.4444-1.2311-2.6098-1.2311-1.0013 0-1.9697 0.31187-2.6755 1.0341zm4.5631 3.1023v0.50884c0 0.37753 0 0.86995-0.50884 1.4116-0.27904 0.27904-0.98485 0.88637-1.9697 0.88637-1.0013 0-1.5758-0.64016-1.5758-1.2967 0-0.55808 0.37752-1.1654 1.3131-1.3952 0.6894-0.16414 1.6907-0.1149 2.4785-0.1149z"/>
   <path d="m312.15 522.84v7.5013h1.1818v-3.644c0-0.45959 0.0164-0.95202 0.52525-1.7563 0.6894-1.0833 1.5758-1.2639 2.1174-1.2639 0.62374 0 1.0177 0.29545 1.2311 0.55808 0.0985 0.13131 0.14772 0.26263 0.27904 0.37752l0.55808-1.1326c-0.47601-0.49243-1.1654-0.82071-2.0025-0.82071-1.0998 0-2.2159 0.55808-2.7083 1.625l0.0492-1.4444z"/>
   <path d="m324.82 523.93c-0.36111-0.77147-1.1654-1.2803-2.1995-1.2803-1.428 0-3.1679 1.0177-3.1679 3.8738 0 2.774 1.5429 3.9886 2.9874 3.9886 0.95202 0 1.8384-0.54167 2.3144-1.3788v0.65657c0 0.18055 0.0164 0.36111 0.0657 0.54167h1.1818c-0.0657-0.21339-0.0657-0.4596-0.0657-0.6894l-0.0164-9.75c0-0.0985 0-0.13131 0.0657-0.2298 0.0328-0.0492 0.0985-0.13131 0.0821-0.24621h-1.2475zm-2.1502-0.31187c0.65656 0 1.625 0.3447 1.9204 1.4609 0.0985 0.3447 0.13132 0.75505 0.13132 1.5922 0 0.57449-0.0328 0.98485-0.16414 1.3788-0.27905 0.88636-1.0669 1.4116-1.8384 1.4116-0.85354 0-2.1174-0.65656-2.1174-3.1187 0-2.1502 1.1982-2.7248 2.0682-2.7248z"/>
   <path d="m327.18 522.83 1.5101 7.5177h1.0669l1.3131-4.8586 1.3952 4.8586h1.0998c0.50884-2.4785 0.93561-4.9899 1.2475-7.5013h-1.0833c0.0328 0.90278-0.0493 1.7399-0.70581 6.0076l-1.5758-5.3182h-0.72223l-1.2967 5.3346-1.0833-5.4167c-0.0328-0.1149-0.0328-0.16414 0.0164-0.29546 0.0164-0.0821 0.0657-0.19697 0.0164-0.32828z"/>
   <path d="m336.62 523.71 0.5745 0.75505c0.62373-0.64016 1.4609-0.83713 2.1667-0.83713 0.88636 0 1.3295 0.37753 1.5429 0.72223 0.24621 0.41035 0.2298 0.90278 0.2298 1.2967v0.26262h-0.2298c-1.1162 0-2.298 0-3.25 0.3447-1.1818 0.42677-1.7071 1.3131-1.7071 2.1338 0 1.0998 0.95202 2.1338 2.5114 2.1338 0.91919 0 1.8712-0.3447 2.6919-1.0177v0.82071h1.1162v-4.6452c0-0.60733-0.0164-1.1818-0.36111-1.7727-0.49242-0.8043-1.4444-1.2311-2.6098-1.2311-1.0013 0-1.9697 0.31187-2.6755 1.0341zm4.5631 3.1023v0.50884c0 0.37753 0 0.86995-0.50884 1.4116-0.27904 0.27904-0.98485 0.88637-1.9697 0.88637-1.0013 0-1.5758-0.64016-1.5758-1.2967 0-0.55808 0.37752-1.1654 1.3131-1.3952 0.6894-0.16414 1.6907-0.1149 2.4785-0.1149z"/>
   <path d="m344.98 522.84v7.5013h1.1818v-3.644c0-0.45959 0.0164-0.95202 0.52525-1.7563 0.68939-1.0833 1.5758-1.2639 2.1174-1.2639 0.62374 0 1.0177 0.29545 1.2311 0.55808 0.0985 0.13131 0.14773 0.26263 0.27904 0.37752l0.55808-1.1326c-0.47601-0.49243-1.1654-0.82071-2.0025-0.82071-1.0998 0-2.2159 0.55808-2.7083 1.625l0.0492-1.4444z"/>
   <path d="m355.79 522.66c-1.7891 0-3.447 1.2803-3.447 4.0051 0 2.5114 1.5593 3.8409 3.5947 3.8409 1.0833 0 2.0518-0.39394 2.6919-1.1654l-0.65656-0.64016c-0.47601 0.55808-1.1982 0.85354-1.9369 0.85354-1.0013 0-2.4621-0.55808-2.5442-2.8068h5.3182c0.0492-0.50884 0.0328-1.0013-0.0492-1.428-0.3447-2.0189-1.7399-2.6591-2.971-2.6591zm-2.2652 3.1844c0.24621-1.7727 1.3788-2.2816 2.1831-2.2816 1.2146 0 2.0846 1.0669 1.9369 2.2816z"/>
  </g>
  <rect x="20.394" y="434.44" width="537.2" height="51.05" fill="#3b390d" fill-opacity=".38431" stroke="#e9e56f" stroke-width=".78788"/>
  <g transform="translate(-38.368 -15.31)" fill="#e9e56f" stroke-width="2.6263px" aria-label="Drivers">
   <path d="m300.23 470.2v10.242h2.1995c0.80429 0 1.4937-0.0328 2.2159-0.41035 1.4609-0.75505 2.2652-2.495 2.2652-4.7273 0-1.9697-0.59091-3.6932-1.904-4.5467-0.73863-0.49242-1.4773-0.55808-2.38-0.55808zm1.0833 0.98485h1.2475c0.64016 0 1.2803 0.0328 1.9205 0.55808 0.95202 0.78788 1.2639 2.2487 1.2639 3.7096 0 1.9533-0.64015 3.0694-1.4609 3.6275-0.64015 0.42677-1.2803 0.45959-1.9205 0.45959h-1.0505z"/>
   <path d="m309.19 472.94v7.5013h1.1818v-3.6439c0-0.4596 0.0164-0.95203 0.52525-1.7563 0.6894-1.0833 1.5758-1.2639 2.1174-1.2639 0.62374 0 1.0177 0.29545 1.2311 0.55808 0.0985 0.13131 0.14773 0.26263 0.27904 0.37753l0.55809-1.1326c-0.47602-0.49243-1.1654-0.82071-2.0025-0.82071-1.0998 0-2.2159 0.55808-2.7083 1.625l0.0492-1.4444z"/>
   <path d="m317.52 472.93v0.96844h1.8056v5.5972h-1.904v0.93561h4.8586v-0.93561h-1.7563v-6.5657zm2.4293-3.25c-0.47601 0-0.85354 0.37752-0.85354 0.83712s0.37753 0.83712 0.85354 0.83712 0.85354-0.37752 0.85354-0.83712-0.37753-0.83712-0.85354-0.83712z"/>
   <path d="m324.62 472.93 2.971 7.5669h0.9356l1.822-4.2841c0.44318-1.0505 0.86995-2.1338 1.1162-3.2828h-1.0669c-0.19697 1.0998-0.59091 2.1338-1.0177 3.1187l-1.1982 2.7904-2.1667-5.4823c-0.0164-0.0328-0.0328-0.0657-0.0328-0.0985 0-0.0985 0.0821-0.19697 0.0492-0.32829z"/>
   <path d="m336.42 472.76c-1.7892 0-3.447 1.2803-3.447 4.0051 0 2.5114 1.5594 3.8409 3.5947 3.8409 1.0833 0 2.0518-0.39394 2.6919-1.1654l-0.65657-0.64015c-0.47601 0.55808-1.1982 0.85353-1.9369 0.85353-1.0013 0-2.4621-0.55808-2.5442-2.8068h5.3182c0.0492-0.50884 0.0328-1.0013-0.0493-1.428-0.34469-2.019-1.7399-2.6591-2.971-2.6591zm-2.2652 3.1844c0.24622-1.7727 1.3788-2.2816 2.1831-2.2816 1.2146 0 2.0846 1.0669 1.9369 2.2816z"/>
   <path d="m342.02 472.94v7.5013h1.1818v-3.6439c0-0.4596 0.0164-0.95203 0.52525-1.7563 0.6894-1.0833 1.5758-1.2639 2.1174-1.2639 0.62374 0 1.0177 0.29545 1.2311 0.55808 0.0985 0.13131 0.14773 0.26263 0.27905 0.37753l0.55808-1.1326c-0.47601-0.49243-1.1654-0.82071-2.0025-0.82071-1.0998 0-2.2159 0.55808-2.7083 1.625l0.0492-1.4444z"/>
   <path d="m355.69 473.93c-0.6894-0.75505-1.6907-1.1654-2.8068-1.1654-1.7399 0-2.8725 0.96844-2.8725 2.0846 0 1.3131 1.4116 1.7892 1.822 1.9369 0.64015 0.2298 1.4609 0.42677 2.0189 0.6894 0.62374 0.29545 0.73864 0.68939 0.73864 0.95202 0 0.70581-0.85354 1.1818-1.9205 1.1818-1.2803 0-2.101-0.77147-2.3472-1.0341-0.0492-0.0657-0.0492-0.1149-0.0492-0.18056 0-0.0164 0.0164-0.1149-0.0657-0.14773l-0.68939 1.1654c0.88636 0.82071 2.0354 1.1982 3.1679 1.1982 2.0518 0 3.1187-1.2146 3.1187-2.3472 0-0.50884-0.21339-1.1982-1.0998-1.6907-0.83713-0.47601-2.0518-0.64015-2.7576-0.98485-0.60733-0.29546-0.73864-0.65657-0.73864-0.9192 0-0.59091 0.73864-1.0177 1.5758-1.0177 1.0833 0 1.8056 0.65656 2.0846 1.0341 0.0492 0.0492 0.0328 0.0985 0.0328 0.14773 0 0.0985 0.0657 0.13131 0.0985 0.13131z"/>
  </g>
  <rect x="20.394" y="384.44" width="537.2" height="51.05" fill="#3b390d" fill-opacity=".38431" stroke="#e9e56f" stroke-width=".78788"/>
  <g transform="translate(-38.368 -15.31)" fill="#e9e56f" stroke-width="2.6263px" aria-label="OS">
   <path d="m325.48 425.44c0-0.95202-0.0656-2.2159-0.62373-3.3157-0.67298-1.3131-1.8384-1.9204-2.9546-1.9204-1.5265 0-3.6768 1.1818-3.6768 5.2033s2.1174 5.2854 3.6932 5.2854c1.0998 0 2.2816-0.62374 2.9546-1.9861 0.54167-1.0998 0.60732-2.3636 0.60732-3.2664zm-3.6275-4.1692c0.72223 0 1.6086 0.42677 2.0846 1.625 0.3447 0.85354 0.39394 1.8384 0.39394 2.6919 0 0.67299-0.0328 1.7235-0.45959 2.5934-0.47601 1.0013-1.2639 1.3952-1.9533 1.3952-1.149 0-2.5606-1.0669-2.5606-4.3169 0-3.053 1.428-3.9886 2.495-3.9886z"/>
   <path d="m333.08 421.54c-0.6894-0.83712-1.7071-1.2803-2.8232-1.2803-1.8548 0-3.1187 1.2146-3.1187 2.6263 0 0.59091 0.22979 1.3624 1.0833 1.9861 0.95202 0.70581 2.4293 1.0505 3.2008 1.5429 0.67299 0.41036 0.85354 0.95203 0.85354 1.4116 0 0.88637-0.75505 1.8548-2.2323 1.8548-1.1162 0-1.9861-0.55808-2.4457-1.1326-0.0492-0.0657-0.0492-0.0985-0.0492-0.16415 0-0.0328 0-0.13131-0.0657-0.16414l-0.68939 1.1818c0.80429 0.86995 1.9533 1.3131 3.2172 1.3131 2.495 0 3.4141-1.6742 3.4141-2.9546 0-0.54167-0.16414-1.2475-0.80429-1.8548-0.88637-0.83712-2.3308-1.1326-3.2664-1.6742-0.85354-0.50884-1.0341-1.1162-1.0341-1.5265 0-0.78788 0.67298-1.4937 1.8384-1.4937 0.95203 0 1.6907 0.42677 2.0846 1.0013 0.0492 0.0657 0.0328 0.0985 0.0328 0.16414 0 0.0985 0.0492 0.13131 0.0821 0.13131z"/>
  </g>
  <rect x="20.394" y="334.44" width="537.2" height="51.05" fill="#3b390d" fill-opacity=".38431" stroke="#e9e56f" stroke-width=".78788"/>
  <g transform="translate(-38.368 -15.31)" fill="#e9e56f" stroke-width="2.6263px" aria-label="3rd Party SDKs">
   <path d="m277.2 372.97c0-1.3952-1.1818-2.5934-2.8068-2.5934-0.91919 0-1.822 0.39395-2.4621 1.0998l0.64016 0.70581c0.47601-0.50884 1.1326-0.78788 1.7727-0.78788 1.0505 0 1.7727 0.73864 1.7727 1.6086 0 0.60733-0.37753 1.2967-1.0998 1.6086-0.18056 0.0657-0.64015 0.24621-1.6086 0.24621v0.9192c0.16414-0.0164 0.3447-0.0328 0.52525-0.0328 1.3788 0 2.3965 0.72222 2.3965 1.9533 0 1.1162-0.85354 2.0846-2.0518 2.0846-0.95202 0-1.5265-0.62374-1.6086-0.70581-0.13131-0.14773-0.0657-0.31187-0.21338-0.4596l-0.85354 1.0341c0.67298 0.77147 1.6578 1.1654 2.6755 1.1654 1.9697 0 3.1515-1.3952 3.1515-2.9874 0-1.2146-0.68939-2.2487-1.7563-2.6427 0.9192-0.3447 1.5265-1.2146 1.5265-2.2159z"/>
   <path d="m280.3 373.15v7.5013h1.1818v-3.644c0-0.4596 0.0164-0.95202 0.52525-1.7563 0.6894-1.0833 1.5758-1.2639 2.1174-1.2639 0.62374 0 1.0177 0.29546 1.2311 0.55808 0.0985 0.13132 0.14772 0.26263 0.27904 0.37753l0.55808-1.1326c-0.47601-0.49242-1.1654-0.82071-2.0025-0.82071-1.0998 0-2.2159 0.55809-2.7083 1.625l0.0492-1.4444z"/>
   <path d="m292.98 374.23c-0.36111-0.77147-1.1654-1.2803-2.1995-1.2803-1.428 0-3.1679 1.0177-3.1679 3.8737 0 2.774 1.5429 3.9886 2.9874 3.9886 0.95202 0 1.8384-0.54167 2.3144-1.3788v0.65656c0 0.18056 0.0164 0.36112 0.0657 0.54167h1.1818c-0.0657-0.21338-0.0657-0.45959-0.0657-0.68939l-0.0164-9.75c0-0.0985 0-0.13131 0.0657-0.2298 0.0328-0.0492 0.0985-0.13131 0.0821-0.24621h-1.2475zm-2.1503-0.31187c0.65657 0 1.625 0.34469 1.9205 1.4609 0.0985 0.34469 0.13132 0.75505 0.13132 1.5922 0 0.5745-0.0328 0.98485-0.16415 1.3788-0.27904 0.88637-1.0669 1.4116-1.8384 1.4116-0.85354 0-2.1174-0.65657-2.1174-3.1187 0-2.1503 1.1982-2.7248 2.0682-2.7248z"/>
   <path d="m304.25 370.4v10.226h1.1982v-4.5139h2.0025c0.64015 0 1.2475-0.0164 1.8712-0.32828 0.95202-0.47601 1.4444-1.4609 1.4444-2.495 0-1.0341-0.49242-2.0354-1.4609-2.5278-0.64015-0.3447-1.2803-0.36112-1.9369-0.36112zm1.1982 1.0833h1.9205c0.42677 0 0.83712 0.0164 1.2639 0.21338 0.62374 0.32829 0.96844 0.98485 0.96844 1.6414s-0.32829 1.2639-0.9192 1.5594c-0.39394 0.19697-0.78788 0.21338-1.1818 0.21338h-2.0682z"/>
   <path d="m312.99 374.02 0.57449 0.75505c0.62374-0.64015 1.4609-0.83712 2.1667-0.83712 0.88637 0 1.3296 0.37753 1.5429 0.72222 0.24622 0.41036 0.2298 0.90278 0.2298 1.2967v0.26263h-0.2298c-1.1162 0-2.298 0-3.25 0.3447-1.1818 0.42677-1.7071 1.3131-1.7071 2.1338 0 1.0998 0.95203 2.1338 2.5114 2.1338 0.9192 0 1.8712-0.3447 2.6919-1.0177v0.82071h1.1162v-4.6452c0-0.60732-0.0164-1.1818-0.36111-1.7727-0.49243-0.80429-1.4444-1.2311-2.6098-1.2311-1.0013 0-1.9697 0.31187-2.6755 1.0341zm4.5631 3.1023v0.50884c0 0.37752 0 0.86995-0.50883 1.4116-0.27905 0.27904-0.98485 0.88636-1.9697 0.88636-1.0013 0-1.5758-0.64015-1.5758-1.2967 0-0.55808 0.37753-1.1654 1.3131-1.3952 0.68939-0.16414 1.6907-0.1149 2.4785-0.1149z"/>
   <path d="m321.34 373.15v7.5013h1.1818v-3.644c0-0.4596 0.0164-0.95202 0.52525-1.7563 0.6894-1.0833 1.5758-1.2639 2.1174-1.2639 0.62374 0 1.0177 0.29546 1.2311 0.55808 0.0985 0.13132 0.14772 0.26263 0.27904 0.37753l0.55808-1.1326c-0.47601-0.49242-1.1654-0.82071-2.0025-0.82071-1.0998 0-2.2159 0.55809-2.7083 1.625l0.0492-1.4444z"/>
   <path d="m331.01 371.13-0.14773 2.0189h-1.7892l-0.0164 0.96844h1.7563c-0.0985 1.2803-0.14773 2.5606-0.14773 3.8245 0 0.67298 0 1.428 0.44318 2.0518 0.36111 0.49242 0.93561 0.78788 1.7071 0.78788 0.88636 0 1.7563-0.37753 2.3965-0.83712l-0.36111-0.93561c-0.64015 0.47601-1.2311 0.68939-1.6907 0.68939-0.55808 0-1.1326-0.31187-1.2639-1.2146 0-0.0657-0.0492-0.3447-0.0492-1.4444 0-0.96844 0.0492-1.9533 0.14773-2.9217h2.4621v-0.98485h-2.4457s0.1149-1.346 0.19697-1.7727c0.0164-0.16415 0.14773-0.26263 0.0821-0.44319z"/>
   <path d="m336.87 373.15 3.053 7.4684-0.24621 0.54167c-0.13131 0.31186-0.27904 0.62373-0.50884 0.86995-0.31187 0.34469-0.70581 0.49242-1.0505 0.49242-0.55808 0-0.83712-0.37752-0.88636-0.44318-0.0493-0.0821-0.0328-0.19697-0.13132-0.27904l-0.60732 1.0669c0.42677 0.41035 1.0013 0.62374 1.625 0.62374 0.67298 0 1.3788-0.24621 1.8712-0.8043 0.32828-0.37752 0.49242-0.77146 0.65656-1.1982l2.3308-6.1881c0.27904-0.70581 0.52525-1.428 0.75505-2.1667h-1.2311c-0.13132 0.68939-0.3447 1.346-0.5745 2.0025l-1.428 4.0215-2.1995-5.5316c-0.0164-0.0492-0.0164-0.0821-0.0164-0.13131 0-0.1149 0.0821-0.19697 0.0657-0.3447z"/>
   <path d="m359.67 371.64c-0.6894-0.83713-1.7071-1.2803-2.8232-1.2803-1.8548 0-3.1187 1.2146-3.1187 2.6263 0 0.59091 0.2298 1.3624 1.0833 1.9861 0.95202 0.70581 2.4293 1.0505 3.2008 1.5429 0.67298 0.41036 0.85353 0.95203 0.85353 1.4116 0 0.88637-0.75505 1.8548-2.2323 1.8548-1.1162 0-1.9861-0.55809-2.4457-1.1326-0.0492-0.0657-0.0492-0.0985-0.0492-0.16414 0-0.0328 0-0.13132-0.0657-0.16415l-0.68939 1.1818c0.80429 0.86996 1.9533 1.3131 3.2172 1.3131 2.495 0 3.4141-1.6742 3.4141-2.9546 0-0.54167-0.16414-1.2475-0.80429-1.8548-0.88636-0.83713-2.3308-1.1326-3.2664-1.6742-0.85354-0.50884-1.0341-1.1162-1.0341-1.5265 0-0.78788 0.67298-1.4937 1.8384-1.4937 0.95203 0 1.6907 0.42677 2.0846 1.0013 0.0492 0.0657 0.0328 0.0985 0.0328 0.16414 0 0.0985 0.0492 0.13131 0.0821 0.13131z"/>
   <path d="m361.62 370.4v10.242h2.1995c0.8043 0 1.4937-0.0328 2.2159-0.41036 1.4609-0.75505 2.2652-2.495 2.2652-4.7273 0-1.9697-0.59091-3.6932-1.904-4.5467-0.73864-0.49243-1.4773-0.55809-2.3801-0.55809zm1.0833 0.98485h1.2475c0.64016 0 1.2803 0.0328 1.9205 0.55809 0.95202 0.78788 1.2639 2.2487 1.2639 3.7096 0 1.9533-0.64015 3.0694-1.4609 3.6275-0.64015 0.42677-1.2803 0.4596-1.9205 0.4596h-1.0505z"/>
   <path d="m369.65 370.4v10.226h1.2146v-4.2348l0.80429-0.86996 3.5619 5.1869s0.64015-0.0657 1.4609-0.0657l-4.1364-5.8106 3.8573-4.4318h-0.42677c-0.27904 0-0.55808 0-0.83712-0.0821l-4.2841 4.8094v-4.3169c0-0.0657 0-0.1149 0.0657-0.18056 0.0328-0.0492 0.1149-0.13131 0.0821-0.2298z"/>
   <path d="m384.26 374.13c-0.68939-0.75505-1.6907-1.1654-2.8068-1.1654-1.7399 0-2.8725 0.96844-2.8725 2.0846 0 1.3131 1.4116 1.7892 1.822 1.9369 0.64015 0.22979 1.4609 0.42676 2.0189 0.68939 0.62374 0.29546 0.73864 0.6894 0.73864 0.95202 0 0.70581-0.85354 1.1818-1.9205 1.1818-1.2803 0-2.101-0.77146-2.3472-1.0341-0.0493-0.0657-0.0493-0.1149-0.0493-0.18056 0-0.0164 0.0164-0.11489-0.0657-0.14772l-0.6894 1.1654c0.88637 0.82071 2.0354 1.1982 3.1679 1.1982 2.0518 0 3.1187-1.2146 3.1187-2.3472 0-0.50884-0.21338-1.1982-1.0998-1.6907-0.83712-0.47601-2.0518-0.64015-2.7576-0.98485-0.60732-0.29545-0.73864-0.65657-0.73864-0.91919 0-0.59091 0.73864-1.0177 1.5758-1.0177 1.0833 0 1.8056 0.65657 2.0846 1.0341 0.0492 0.0492 0.0328 0.0985 0.0328 0.14773 0 0.0985 0.0657 0.13131 0.0985 0.13131z"/>
  </g>
  <rect x="20.394" y="284.45" width="537.2" height="51.05" fill="#3b390d" fill-opacity=".38431" stroke="#e9e56f" stroke-width=".78788"/>
  <g transform="translate(-38.368 -15.31)" fill="#e9e56f" stroke-width="2.6263px" aria-label="Core Systems">
   <path d="m285.52 320.42c-1.5922 0-3.8902 1.1654-3.8902 5.269 0 3.9394 2.1995 5.2197 3.8902 5.2197 1.2146 0 2.3472-0.64015 2.9874-1.6907l-0.83712-0.54167c-0.47601 0.77147-1.2967 1.2311-2.0846 1.2311-1.5101 0-2.8396-1.5593-2.8396-4.3333 0-2.7083 1.2967-4.2348 2.7412-4.2348 0.78788 0 1.5429 0.47601 1.9533 1.1982 0.0328 0.0492 0.0657 0.0985 0.0657 0.16414 0 0.0493-0.0164 0.0821-0.0164 0.13132 0 0.0164 0 0.0985 0.0821 0.14772l1.0833-0.52525c-0.54167-1.2311-1.7727-2.0354-3.1351-2.0354z"/>
   <path d="m296.74 327.02c0-2.5934-1.6414-3.9394-3.3485-3.9394-1.904 0-3.5455 1.6414-3.5455 3.9722 0 2.2816 1.625 3.8902 3.5126 3.8902 1.7727 0 3.3813-1.428 3.3813-3.923zm-3.4306-2.9381c1.0833 0 2.2323 0.93561 2.2323 2.9874 0 1.8876-1.0833 2.8396-2.1667 2.8396-1.1982 0-2.2816-1.1162-2.2816-2.971 0-1.8384 1.0669-2.8561 2.2159-2.8561z"/>
   <path d="m299.02 323.25v7.5013h1.1818v-3.644c0-0.4596 0.0164-0.95202 0.52526-1.7563 0.68939-1.0833 1.5758-1.2639 2.1174-1.2639 0.62373 0 1.0177 0.29546 1.2311 0.55809 0.0985 0.13131 0.14773 0.26262 0.27904 0.37752l0.55808-1.1326c-0.47601-0.49242-1.1654-0.82071-2.0025-0.82071-1.0998 0-2.2159 0.55809-2.7083 1.625l0.0492-1.4444z"/>
   <path d="m309.83 323.07c-1.7891 0-3.447 1.2803-3.447 4.0051 0 2.5114 1.5593 3.8409 3.5947 3.8409 1.0833 0 2.0518-0.39394 2.6919-1.1654l-0.65656-0.64015c-0.47601 0.55808-1.1982 0.85354-1.9369 0.85354-1.0013 0-2.4621-0.55809-2.5442-2.8068h5.3182c0.0492-0.50884 0.0328-1.0013-0.0492-1.428-0.3447-2.0189-1.7399-2.6591-2.971-2.6591zm-2.2652 3.1844c0.24621-1.7727 1.3788-2.2816 2.1831-2.2816 1.2146 0 2.0846 1.0669 1.9369 2.2816z"/>
   <path d="m329.14 321.74c-0.6894-0.83713-1.7071-1.2803-2.8232-1.2803-1.8548 0-3.1187 1.2146-3.1187 2.6263 0 0.59091 0.22979 1.3624 1.0833 1.9861 0.95202 0.70581 2.4293 1.0505 3.2008 1.5429 0.67298 0.41035 0.85353 0.95202 0.85353 1.4116 0 0.88637-0.75505 1.8548-2.2323 1.8548-1.1162 0-1.9861-0.55809-2.4457-1.1326-0.0492-0.0657-0.0492-0.0985-0.0492-0.16414 0-0.0328 0-0.13132-0.0657-0.16415l-0.68939 1.1818c0.80429 0.86996 1.9533 1.3131 3.2172 1.3131 2.495 0 3.4141-1.6742 3.4141-2.9546 0-0.54167-0.16414-1.2475-0.80429-1.8548-0.88637-0.83713-2.3308-1.1326-3.2664-1.6742-0.85354-0.50884-1.0341-1.1162-1.0341-1.5265 0-0.78788 0.67298-1.4937 1.8384-1.4937 0.95203 0 1.6907 0.42677 2.0846 1.0013 0.0492 0.0657 0.0328 0.0985 0.0328 0.16414 0 0.0985 0.0492 0.13131 0.0821 0.13131z"/>
   <path d="m330.96 323.25 3.053 7.4684-0.24621 0.54167c-0.13132 0.31187-0.27905 0.62373-0.50884 0.86995-0.31187 0.34469-0.70581 0.49242-1.0505 0.49242-0.55808 0-0.83712-0.37752-0.88637-0.44318-0.0492-0.0821-0.0328-0.19697-0.13131-0.27904l-0.60732 1.0669c0.42676 0.41035 1.0013 0.62374 1.625 0.62374 0.67298 0 1.3788-0.24621 1.8712-0.8043 0.32829-0.37752 0.49243-0.77146 0.65657-1.1982l2.3308-6.1881c0.27904-0.70581 0.52526-1.428 0.75506-2.1667h-1.2311c-0.13131 0.68939-0.34469 1.346-0.57449 2.0025l-1.428 4.0215-2.1995-5.5316c-0.0164-0.0492-0.0164-0.0821-0.0164-0.13131 0-0.1149 0.0821-0.19697 0.0657-0.3447z"/>
   <path d="m345.52 324.23c-0.68939-0.75505-1.6907-1.1654-2.8068-1.1654-1.7399 0-2.8725 0.96844-2.8725 2.0846 0 1.3131 1.4116 1.7892 1.822 1.9369 0.64015 0.22979 1.4609 0.42676 2.0189 0.68939 0.62374 0.29546 0.73864 0.6894 0.73864 0.95202 0 0.70581-0.85354 1.1818-1.9205 1.1818-1.2803 0-2.101-0.77146-2.3472-1.0341-0.0492-0.0657-0.0492-0.1149-0.0492-0.18055 0-0.0164 0.0164-0.1149-0.0657-0.14773l-0.6894 1.1654c0.88637 0.82071 2.0354 1.1982 3.1679 1.1982 2.0518 0 3.1187-1.2146 3.1187-2.3472 0-0.50884-0.21338-1.1982-1.0998-1.6907-0.83712-0.47601-2.0518-0.64015-2.7576-0.98485-0.60732-0.29545-0.73864-0.65656-0.73864-0.91919 0-0.59091 0.73864-1.0177 1.5758-1.0177 1.0833 0 1.8056 0.65657 2.0846 1.0341 0.0493 0.0492 0.0328 0.0985 0.0328 0.14773 0 0.0985 0.0657 0.13131 0.0985 0.13131z"/>
   <path d="m349.72 321.23-0.14773 2.0189h-1.7891l-0.0164 0.96844h1.7563c-0.0985 1.2803-0.14773 2.5606-0.14773 3.8245 0 0.67298 0 1.428 0.44318 2.0518 0.36111 0.49243 0.93561 0.78788 1.7071 0.78788 0.88636 0 1.7563-0.37753 2.3965-0.83712l-0.36112-0.93561c-0.64015 0.47601-1.2311 0.68939-1.6907 0.68939-0.55808 0-1.1326-0.31186-1.2639-1.2146 0-0.0657-0.0492-0.3447-0.0492-1.4444 0-0.96844 0.0492-1.9533 0.14773-2.9217h2.4621v-0.98485h-2.4457s0.1149-1.346 0.19697-1.7727c0.0164-0.16415 0.14773-0.26263 0.0821-0.44319z"/>
   <path d="m359.08 323.07c-1.7891 0-3.447 1.2803-3.447 4.0051 0 2.5114 1.5594 3.8409 3.5947 3.8409 1.0833 0 2.0518-0.39394 2.6919-1.1654l-0.65657-0.64015c-0.47601 0.55808-1.1982 0.85354-1.9369 0.85354-1.0013 0-2.4621-0.55809-2.5442-2.8068h5.3182c0.0492-0.50884 0.0328-1.0013-0.0492-1.428-0.3447-2.0189-1.7399-2.6591-2.971-2.6591zm-2.2652 3.1844c0.24621-1.7727 1.3788-2.2816 2.1831-2.2816 1.2146 0 2.0846 1.0669 1.9369 2.2816z"/>
   <path d="m363.66 330.73h1.0833v-4.9899c0-0.36111 0.0328-0.68939 0.24622-1.0833 0.26262-0.49243 0.59091-0.6894 0.90277-0.6894 0.26263 0 0.55809 0.16415 0.6894 0.5745 0.0985 0.31187 0.0821 0.67298 0.0821 0.98485v5.2033h1.0998v-4.9571c0-0.39394 0.0328-0.70581 0.31187-1.1818 0.13131-0.19697 0.41035-0.67298 0.86995-0.67298 0.24621 0 0.47601 0.14773 0.59091 0.42677 0.14773 0.31187 0.1149 0.73864 0.1149 1.0833v5.3182h1.1162v-5.3346c0-0.62374 0.0164-1.2475-0.31187-1.7563-0.27904-0.42676-0.75505-0.59091-1.1654-0.59091-0.72223 0-1.3952 0.42677-1.6907 1.0833-0.1149-0.62374-0.64015-1.0833-1.3131-1.0833-0.62373 0-1.1982 0.39394-1.5429 0.9192l0.0164-0.73864h-1.0998z"/>
   <path d="m378.35 324.23c-0.6894-0.75505-1.6907-1.1654-2.8068-1.1654-1.7399 0-2.8725 0.96844-2.8725 2.0846 0 1.3131 1.4116 1.7892 1.822 1.9369 0.64015 0.22979 1.4609 0.42676 2.0189 0.68939 0.62374 0.29546 0.73864 0.6894 0.73864 0.95202 0 0.70581-0.85354 1.1818-1.9205 1.1818-1.2803 0-2.101-0.77146-2.3472-1.0341-0.0493-0.0657-0.0493-0.1149-0.0493-0.18055 0-0.0164 0.0164-0.1149-0.0656-0.14773l-0.6894 1.1654c0.88637 0.82071 2.0354 1.1982 3.1679 1.1982 2.0518 0 3.1187-1.2146 3.1187-2.3472 0-0.50884-0.21339-1.1982-1.0998-1.6907-0.83712-0.47601-2.0518-0.64015-2.7576-0.98485-0.60733-0.29545-0.73864-0.65656-0.73864-0.91919 0-0.59091 0.73864-1.0177 1.5758-1.0177 1.0833 0 1.8056 0.65657 2.0846 1.0341 0.0492 0.0492 0.0328 0.0985 0.0328 0.14773 0 0.0985 0.0657 0.13131 0.0985 0.13131z"/>
  </g>
  <rect x="20.394" y="127.91" width="537.2" height="156.39" fill="#3b200d" fill-opacity=".38431" stroke="#e96f6f" stroke-width=".78788"/>
 </g>
 <g fill="#0d103b" fill-opacity=".38431" stroke="#6fbde9" stroke-width=".78788">
  <rect x="20.394" y="20.394" width="537.2" height="106.89"/>
  <rect x="33.525" y="47.05" width="156.39" height="64.475"/>
  <rect x="204.63" y="47.05" width="169.13" height="64.475"/>
  <rect x="388.47" y="47.05" width="156.39" height="64.475"/>
 </g>
 <g fill="#3b320d" fill-opacity=".38431" stroke="#e96f6f" stroke-width=".78788">
  <rect x="33.919" y="154.56" width="90.344" height="50.95"/>
  <rect x="138.97" y="154.56" width="90.344" height="50.95"/>
  <rect x="244.02" y="154.56" width="90.344" height="50.95"/>
  <rect x="349.07" y="154.56" width="90.344" height="50.95"/>
  <rect x="454.12" y="154.56" width="90.344" height="50.95"/>
  <rect x="33.919" y="220.22" width="90.344" height="50.95"/>
  <rect x="138.97" y="220.22" width="90.344" height="50.95"/>
  <rect x="244.02" y="220.22" width="90.344" height="50.95"/>
  <rect x="349.07" y="220.22" width="90.344" height="50.95"/>
  <rect x="454.12" y="220.22" width="90.344" height="50.95"/>
 </g>
 <g fill="#6fbde9" stroke-width="2.6263px">
  <g transform="translate(-38.368 -15.31)" aria-label="Front End">
   <path d="m114.13 90.544v10.226h1.1654v-5.0227h3.8245v-0.98485h-3.8245v-3.2172h4.7273v-1.0013z"/>
   <path d="m122.7 93.285v7.5013h1.1818v-3.6439c0-0.4596 0.0164-0.95202 0.52526-1.7563 0.68939-1.0833 1.5758-1.2639 2.1174-1.2639 0.62374 0 1.0177 0.29546 1.2311 0.55808 0.0985 0.13131 0.14772 0.26263 0.27904 0.37753l0.55808-1.1326c-0.47601-0.49242-1.1654-0.82071-2.0025-0.82071-1.0998 0-2.2159 0.55808-2.7083 1.625l0.0492-1.4444z"/>
   <path d="m136.83 97.061c0-2.5934-1.6414-3.9394-3.3485-3.9394-1.904 0-3.5455 1.6414-3.5455 3.9722 0 2.2816 1.625 3.8902 3.5126 3.8902 1.7727 0 3.3813-1.428 3.3813-3.923zm-3.4306-2.9381c1.0833 0 2.2323 0.93561 2.2323 2.9874 0 1.8876-1.0833 2.8397-2.1667 2.8397-1.1982 0-2.2816-1.1162-2.2816-2.971 0-1.8384 1.0669-2.8561 2.2159-2.8561z"/>
   <path d="m138.6 100.77h1.1982v-4.3169c0-0.49243 0.0657-0.86995 0.37753-1.2803 0.27904-0.37753 1.0013-1.0505 1.7891-1.0505 0.37753 0 0.75505 0.16414 1.0177 0.47601 0.41035 0.49242 0.41035 1.1326 0.41035 1.6578v4.5139h1.1654v-4.5467c0-0.5745 0-1.1982-0.26263-1.8056-0.37752-0.83712-1.149-1.3131-2.0025-1.3131-1.0177 0-1.9369 0.65657-2.495 1.4937v-1.3131h-1.1982z"/>
   <path d="m148.78 91.266-0.14773 2.0189h-1.7891l-0.0164 0.96844h1.7563c-0.0985 1.2803-0.14773 2.5606-0.14773 3.8245 0 0.67298 0 1.428 0.44318 2.0518 0.36112 0.49243 0.93561 0.78788 1.7071 0.78788 0.88636 0 1.7563-0.37753 2.3965-0.83712l-0.36111-0.93561c-0.64016 0.47601-1.2311 0.6894-1.6907 0.6894-0.55809 0-1.1326-0.31187-1.2639-1.2146 0-0.06566-0.0493-0.3447-0.0493-1.4444 0-0.96844 0.0493-1.9533 0.14773-2.9217h2.4621v-0.98485h-2.4457s0.1149-1.346 0.19697-1.7727c0.0164-0.16414 0.14773-0.26263 0.0821-0.44318z"/>
   <path d="m163.06 90.544v10.226h6.2374v-1.0177h-5.1376v-3.7917h4.2677v-1.0505h-4.2677v-3.3485h5.1705v-1.0177z"/>
   <path d="m171.43 100.77h1.1982v-4.3169c0-0.49243 0.0657-0.86995 0.37753-1.2803 0.27904-0.37753 1.0013-1.0505 1.7891-1.0505 0.37753 0 0.75505 0.16414 1.0177 0.47601 0.41036 0.49242 0.41036 1.1326 0.41036 1.6578v4.5139h1.1654v-4.5467c0-0.5745 0-1.1982-0.26263-1.8056-0.37752-0.83712-1.149-1.3131-2.0025-1.3131-1.0177 0-1.9369 0.65657-2.495 1.4937v-1.3131h-1.1982z"/>
   <path d="m184.61 94.369c-0.36112-0.77147-1.1654-1.2803-2.1995-1.2803-1.428 0-3.1679 1.0177-3.1679 3.8737 0 2.774 1.5429 3.9886 2.9874 3.9886 0.95202 0 1.8384-0.54167 2.3144-1.3788v0.65656c0 0.18056 0.0164 0.36112 0.0657 0.54167h1.1818c-0.0657-0.21338-0.0657-0.45959-0.0657-0.68939l-0.0164-9.75c0-0.09848 0-0.13131 0.0657-0.2298 0.0328-0.04924 0.0985-0.13131 0.0821-0.24621h-1.2475zm-2.1503-0.31187c0.65657 0 1.625 0.3447 1.9205 1.4609 0.0985 0.3447 0.13131 0.75505 0.13131 1.5922 0 0.5745-0.0328 0.98485-0.16414 1.3788-0.27904 0.88636-1.0669 1.4116-1.8384 1.4116-0.85354 0-2.1174-0.65657-2.1174-3.1187 0-2.1503 1.1982-2.7248 2.0682-2.7248z"/>
  </g>
  <g transform="translate(-38.368 -15.31)" aria-label="Game Mechanics">
   <path d="m274.38 90.446c-1.3624 0-3.9558 0.85354-3.9558 5.3346 0 3.8737 2.1667 5.154 3.9394 5.154 0.95202 0 2.0518-0.34469 3.0038-1.0669v-3.9886h-2.9053v0.98485h1.8548v2.4457c-0.57449 0.41036-1.2311 0.62374-1.8384 0.62374-0.67299 0-1.3952-0.26263-1.9533-0.90278-0.85354-0.96844-0.96844-2.4129-0.96844-3.4798 0-0.95202 0.1149-1.8712 0.50884-2.6263 0.52526-1.0013 1.4444-1.4609 2.298-1.4609 0.91919 0 1.6414 0.50884 1.9533 1.1982 0.0493 0.1149 0.0985 0.24621 0.2298 0.32828l0.8043-0.82071c-0.59091-1.0669-1.7071-1.7235-2.971-1.7235z"/>
   <path d="m279.52 94.155 0.57449 0.75505c0.62374-0.64015 1.4609-0.83712 2.1667-0.83712 0.88637 0 1.3296 0.37753 1.5429 0.72222 0.24622 0.41036 0.2298 0.90278 0.2298 1.2967v0.26263h-0.2298c-1.1162 0-2.298 0-3.25 0.3447-1.1818 0.42677-1.7071 1.3131-1.7071 2.1338 0 1.0998 0.95203 2.1338 2.5114 2.1338 0.9192 0 1.8712-0.34469 2.6919-1.0177v0.82071h1.1162v-4.6452c0-0.60732-0.0164-1.1818-0.36111-1.7727-0.49243-0.8043-1.4444-1.2311-2.6098-1.2311-1.0013 0-1.9697 0.31187-2.6755 1.0341zm4.5631 3.1023v0.50884c0 0.37753 0 0.86995-0.50884 1.4116-0.27904 0.27904-0.98485 0.88636-1.9697 0.88636-1.0013 0-1.5758-0.64015-1.5758-1.2967 0-0.55808 0.37752-1.1654 1.3131-1.3952 0.68939-0.16414 1.6907-0.1149 2.4785-0.1149z"/>
   <path d="m286.85 100.77h1.0833v-4.9899c0-0.36111 0.0328-0.6894 0.24621-1.0833 0.26263-0.49242 0.59091-0.6894 0.90278-0.6894 0.26262 0 0.55808 0.16414 0.68939 0.5745 0.0985 0.31187 0.0821 0.67298 0.0821 0.98485v5.2033h1.0998v-4.9571c0-0.39394 0.0328-0.70581 0.31187-1.1818 0.13132-0.19697 0.41036-0.67298 0.86995-0.67298 0.24622 0 0.47601 0.14773 0.59091 0.42677 0.14773 0.31187 0.1149 0.73864 0.1149 1.0833v5.3182h1.1162v-5.3346c0-0.62374 0.0164-1.2475-0.31187-1.7563-0.27904-0.42677-0.75505-0.59091-1.1654-0.59091-0.72222 0-1.3952 0.42677-1.6907 1.0833-0.1149-0.62374-0.64015-1.0833-1.3131-1.0833-0.62374 0-1.1982 0.39394-1.5429 0.91919l0.0164-0.73864h-1.0998z"/>
   <path d="m298.69 93.105c-1.7892 0-3.447 1.2803-3.447 4.0051 0 2.5114 1.5594 3.8409 3.5947 3.8409 1.0833 0 2.0518-0.39394 2.6919-1.1654l-0.65657-0.64015c-0.47601 0.55808-1.1982 0.85354-1.9369 0.85354-1.0013 0-2.4621-0.55808-2.5442-2.8068h5.3182c0.0492-0.50884 0.0328-1.0013-0.0493-1.428-0.34469-2.0189-1.7399-2.6591-2.971-2.6591zm-2.2652 3.1843c0.24622-1.7727 1.3788-2.2816 2.1831-2.2816 1.2146 0 2.0846 1.0669 1.9369 2.2816z"/>
   <path d="m311.52 90.544v10.242h1.0833v-7.6654l2.0682 4.0543h0.42677l2.2159-4.12v7.7311h1.0833v-10.242h-0.85354l-2.577 5.0063-2.5442-5.0063z"/>
   <path d="m323.31 93.105c-1.7892 0-3.447 1.2803-3.447 4.0051 0 2.5114 1.5594 3.8409 3.5947 3.8409 1.0833 0 2.0518-0.39394 2.6919-1.1654l-0.65657-0.64015c-0.47601 0.55808-1.1982 0.85354-1.9369 0.85354-1.0013 0-2.4621-0.55808-2.5442-2.8068h5.3182c0.0493-0.50884 0.0328-1.0013-0.0492-1.428-0.3447-2.0189-1.7399-2.6591-2.971-2.6591zm-2.2652 3.1843c0.24621-1.7727 1.3788-2.2816 2.1831-2.2816 1.2146 0 2.0846 1.0669 1.9369 2.2816z"/>
   <path d="m334.77 94.516c-0.59091-0.86995-1.5922-1.3952-2.8068-1.3952-2.1995 0-3.7588 1.6578-3.7588 3.9066 0 2.2652 1.5593 3.9394 3.6932 3.9394 1.0341 0 2.0518-0.42677 2.7576-1.1982l-0.67298-0.78788c-0.50884 0.5745-1.2475 0.90278-1.9861 0.90278-1.4609 0-2.577-1.2146-2.577-2.971 0-1.7071 1.0998-2.774 2.4785-2.774 1.2803 0 1.8876 0.88637 1.9369 0.98485 0.0657 0.1149-0.0328 0.27904 0.0985 0.37753z"/>
   <path d="m336.62 100.77h1.2146v-4.3169c0-0.49243 0.0492-0.86995 0.36111-1.2803 0.29545-0.37753 1.0177-1.0505 1.8056-1.0505 0.37752 0 0.75505 0.16414 1.0177 0.47601 0.41035 0.49242 0.41035 1.1326 0.41035 1.6578v4.5139h1.1654v-4.5467c0-0.5745-0.0164-1.1982-0.27905-1.8056-0.37752-0.83712-1.1326-1.3131-1.9861-1.3131-1.0177 0-1.9533 0.65657-2.495 1.4937v-4.3498c0-0.04924 0-0.09848 0.0492-0.14773 0.0492-0.04924 0.1149-0.09848 0.1149-0.18056 0-0.01641 0-0.03283-0.0164-0.04924h-1.3624z"/>
   <path d="m345.17 94.155 0.5745 0.75505c0.62373-0.64015 1.4609-0.83712 2.1667-0.83712 0.88636 0 1.3295 0.37753 1.5429 0.72222 0.24621 0.41036 0.2298 0.90278 0.2298 1.2967v0.26263h-0.2298c-1.1162 0-2.298 0-3.25 0.3447-1.1818 0.42677-1.7071 1.3131-1.7071 2.1338 0 1.0998 0.95202 2.1338 2.5114 2.1338 0.91919 0 1.8712-0.34469 2.6919-1.0177v0.82071h1.1162v-4.6452c0-0.60732-0.0164-1.1818-0.36111-1.7727-0.49242-0.8043-1.4444-1.2311-2.6098-1.2311-1.0013 0-1.9697 0.31187-2.6755 1.0341zm4.5631 3.1023v0.50884c0 0.37753 0 0.86995-0.50884 1.4116-0.27904 0.27904-0.98485 0.88636-1.9697 0.88636-1.0013 0-1.5758-0.64015-1.5758-1.2967 0-0.55808 0.37753-1.1654 1.3131-1.3952 0.6894-0.16414 1.6907-0.1149 2.4785-0.1149z"/>
   <path d="m353.02 100.77h1.1982v-4.3169c0-0.49243 0.0657-0.86995 0.37752-1.2803 0.27904-0.37753 1.0013-1.0505 1.7892-1.0505 0.37752 0 0.75505 0.16414 1.0177 0.47601 0.41035 0.49242 0.41035 1.1326 0.41035 1.6578v4.5139h1.1654v-4.5467c0-0.5745 0-1.1982-0.26263-1.8056-0.37753-0.83712-1.149-1.3131-2.0025-1.3131-1.0177 0-1.9369 0.65657-2.495 1.4937v-1.3131h-1.1982z"/>
   <path d="m361.85 93.269v0.96844h1.8056v5.5972h-1.904v0.9356h4.8586v-0.9356h-1.7563v-6.5657zm2.4293-3.25c-0.47601 0-0.85353 0.37753-0.85353 0.83712s0.37752 0.83712 0.85353 0.83712 0.85354-0.37753 0.85354-0.83712-0.37753-0.83712-0.85354-0.83712z"/>
   <path d="m375.8 94.516c-0.59091-0.86995-1.5922-1.3952-2.8068-1.3952-2.1995 0-3.7588 1.6578-3.7588 3.9066 0 2.2652 1.5594 3.9394 3.6932 3.9394 1.0341 0 2.0518-0.42677 2.7576-1.1982l-0.67298-0.78788c-0.50884 0.5745-1.2475 0.90278-1.9861 0.90278-1.4609 0-2.577-1.2146-2.577-2.971 0-1.7071 1.0998-2.774 2.4785-2.774 1.2803 0 1.8876 0.88637 1.9369 0.98485 0.0657 0.1149-0.0328 0.27904 0.0985 0.37753z"/>
   <path d="m383.62 94.27c-0.68939-0.75505-1.6907-1.1654-2.8068-1.1654-1.7399 0-2.8725 0.96844-2.8725 2.0846 0 1.3131 1.4116 1.7891 1.822 1.9369 0.64016 0.2298 1.4609 0.42677 2.019 0.6894 0.62373 0.29546 0.73863 0.6894 0.73863 0.95202 0 0.70581-0.85353 1.1818-1.9204 1.1818-1.2803 0-2.101-0.77147-2.3472-1.0341-0.0492-0.06566-0.0492-0.1149-0.0492-0.18056 0-0.01641 0.0164-0.1149-0.0657-0.14773l-0.6894 1.1654c0.88637 0.82071 2.0354 1.1982 3.1679 1.1982 2.0518 0 3.1187-1.2146 3.1187-2.3472 0-0.50884-0.21338-1.1982-1.0998-1.6907-0.83712-0.47601-2.0518-0.64015-2.7576-0.98485-0.60732-0.29546-0.73864-0.65657-0.73864-0.91919 0-0.59091 0.73864-1.0177 1.5758-1.0177 1.0833 0 1.8056 0.65657 2.0846 1.0341 0.0492 0.04924 0.0328 0.09848 0.0328 0.14773 0 0.09848 0.0657 0.13131 0.0985 0.13131z"/>
  </g>
  <g transform="translate(-38.368 -15.31)" aria-label="Game subsystems">
   <path d="m450.34 90.446c-1.3624 0-3.9558 0.85354-3.9558 5.3346 0 3.8737 2.1667 5.154 3.9394 5.154 0.95202 0 2.0518-0.34469 3.0038-1.0669v-3.9886h-2.9053v0.98485h1.8548v2.4457c-0.57449 0.41036-1.2311 0.62374-1.8384 0.62374-0.67299 0-1.3952-0.26263-1.9533-0.90278-0.85354-0.96844-0.96844-2.4129-0.96844-3.4798 0-0.95202 0.1149-1.8712 0.50884-2.6263 0.52526-1.0013 1.4444-1.4609 2.298-1.4609 0.91919 0 1.6414 0.50884 1.9533 1.1982 0.0492 0.1149 0.0985 0.24621 0.2298 0.32828l0.8043-0.82071c-0.59091-1.0669-1.7071-1.7235-2.971-1.7235z"/>
   <path d="m455.48 94.155 0.57449 0.75505c0.62374-0.64015 1.4609-0.83712 2.1667-0.83712 0.88637 0 1.3296 0.37753 1.5429 0.72222 0.24622 0.41036 0.2298 0.90278 0.2298 1.2967v0.26263h-0.2298c-1.1162 0-2.298 0-3.25 0.3447-1.1818 0.42677-1.7071 1.3131-1.7071 2.1338 0 1.0998 0.95203 2.1338 2.5114 2.1338 0.9192 0 1.8712-0.34469 2.6919-1.0177v0.82071h1.1162v-4.6452c0-0.60732-0.0164-1.1818-0.36111-1.7727-0.49243-0.8043-1.4444-1.2311-2.6098-1.2311-1.0013 0-1.9697 0.31187-2.6755 1.0341zm4.5631 3.1023v0.50884c0 0.37753 0 0.86995-0.50884 1.4116-0.27904 0.27904-0.98485 0.88636-1.9697 0.88636-1.0013 0-1.5758-0.64015-1.5758-1.2967 0-0.55808 0.37752-1.1654 1.3131-1.3952 0.68939-0.16414 1.6907-0.1149 2.4785-0.1149z"/>
   <path d="m462.81 100.77h1.0833v-4.9899c0-0.36111 0.0328-0.6894 0.24621-1.0833 0.26262-0.49242 0.59091-0.6894 0.90278-0.6894 0.26262 0 0.55808 0.16414 0.68939 0.5745 0.0985 0.31187 0.0821 0.67298 0.0821 0.98485v5.2033h1.0998v-4.9571c0-0.39394 0.0328-0.70581 0.31187-1.1818 0.13132-0.19697 0.41036-0.67298 0.86995-0.67298 0.24622 0 0.47601 0.14773 0.59091 0.42677 0.14773 0.31187 0.1149 0.73864 0.1149 1.0833v5.3182h1.1162v-5.3346c0-0.62374 0.0164-1.2475-0.31187-1.7563-0.27904-0.42677-0.75505-0.59091-1.1654-0.59091-0.72222 0-1.3952 0.42677-1.6907 1.0833-0.1149-0.62374-0.64015-1.0833-1.3131-1.0833-0.62374 0-1.1982 0.39394-1.5429 0.91919l0.0164-0.73864h-1.0998z"/>
   <path d="m474.65 93.105c-1.7892 0-3.447 1.2803-3.447 4.0051 0 2.5114 1.5594 3.8409 3.5947 3.8409 1.0833 0 2.0518-0.39394 2.6919-1.1654l-0.65657-0.64015c-0.47601 0.55808-1.1982 0.85354-1.9369 0.85354-1.0013 0-2.4621-0.55808-2.5442-2.8068h5.3182c0.0492-0.50884 0.0328-1.0013-0.0493-1.428-0.34469-2.0189-1.7399-2.6591-2.971-2.6591zm-2.2652 3.1843c0.24622-1.7727 1.3788-2.2816 2.1831-2.2816 1.2146 0 2.0846 1.0669 1.9369 2.2816z"/>
   <path d="m493.92 94.27c-0.68939-0.75505-1.6907-1.1654-2.8068-1.1654-1.7399 0-2.8725 0.96844-2.8725 2.0846 0 1.3131 1.4116 1.7891 1.822 1.9369 0.64016 0.2298 1.4609 0.42677 2.019 0.6894 0.62374 0.29546 0.73863 0.6894 0.73863 0.95202 0 0.70581-0.85353 1.1818-1.9204 1.1818-1.2803 0-2.101-0.77147-2.3472-1.0341-0.0492-0.06566-0.0492-0.1149-0.0492-0.18056 0-0.01641 0.0164-0.1149-0.0657-0.14773l-0.68939 1.1654c0.88636 0.82071 2.0354 1.1982 3.1679 1.1982 2.0518 0 3.1187-1.2146 3.1187-2.3472 0-0.50884-0.21338-1.1982-1.0998-1.6907-0.83712-0.47601-2.0518-0.64015-2.7576-0.98485-0.60732-0.29546-0.73863-0.65657-0.73863-0.91919 0-0.59091 0.73863-1.0177 1.5758-1.0177 1.0833 0 1.8056 0.65657 2.0846 1.0341 0.0492 0.04924 0.0328 0.09848 0.0328 0.14773 0 0.09848 0.0657 0.13131 0.0985 0.13131z"/>
   <path d="m496.05 93.285v4.1856c0 0.64015 0 1.2967 0.29545 1.9697 0.42677 0.98486 1.346 1.5265 2.3308 1.5265 0.9356 0 1.822-0.50884 2.3144-1.3295l-0.0164 0.55808c0 0.19697 0 0.39394 0.0328 0.57449h1.2475c-0.0821-0.21338-0.0985-0.45959-0.0985-0.67298v-6.8119h-1.1818v4.12c0 0.5745-0.0492 1.0177-0.29545 1.4773-0.3447 0.64015-1.0177 1.1162-1.7399 1.1162-0.57449 0-1.1326-0.32828-1.428-0.91919-0.26263-0.52525-0.26263-1.1162-0.26263-1.6086v-4.1856z"/>
   <path d="m504.21 89.855v10.915h0.77147l0.41035-0.98485c0.49243 0.73864 1.3131 1.1818 2.2159 1.1818 1.5429 0 3.1351-1.3131 3.1351-4.0379 0-2.6099-1.5429-3.8245-3.0202-3.8245-0.95202 0-1.8384 0.50884-2.3144 1.3295v-4.202c0-0.09848 0.0164-0.13131 0.0985-0.19697 0.0328-0.01642 0.1149-0.08207 0.0985-0.18056zm3.1023 4.2677c0.70581 0 2.1995 0.41036 2.1995 3.0694 0 2.2816-1.4773 2.7083-2.2159 2.7083-0.50884 0-1.6414-0.19697-1.8384-1.6414-0.0492-0.37752-0.0492-0.82071-0.0492-1.4773 0-0.67298 0.0328-1.1654 0.19697-1.5758 0.27904-0.67298 0.96843-1.0833 1.7071-1.0833z"/>
   <path d="m518.54 94.27c-0.68939-0.75505-1.6907-1.1654-2.8068-1.1654-1.7399 0-2.8725 0.96844-2.8725 2.0846 0 1.3131 1.4116 1.7891 1.822 1.9369 0.64015 0.2298 1.4609 0.42677 2.0189 0.6894 0.62374 0.29546 0.73864 0.6894 0.73864 0.95202 0 0.70581-0.85353 1.1818-1.9205 1.1818-1.2803 0-2.101-0.77147-2.3472-1.0341-0.0492-0.06566-0.0492-0.1149-0.0492-0.18056 0-0.01641 0.0164-0.1149-0.0657-0.14773l-0.6894 1.1654c0.88637 0.82071 2.0354 1.1982 3.1679 1.1982 2.0518 0 3.1187-1.2146 3.1187-2.3472 0-0.50884-0.21338-1.1982-1.0998-1.6907-0.83712-0.47601-2.0518-0.64015-2.7576-0.98485-0.60732-0.29546-0.73864-0.65657-0.73864-0.91919 0-0.59091 0.73864-1.0177 1.5758-1.0177 1.0833 0 1.8056 0.65657 2.0846 1.0341 0.0493 0.04924 0.0328 0.09848 0.0328 0.14773 0 0.09848 0.0657 0.13131 0.0985 0.13131z"/>
   <path d="m520.39 93.285 3.053 7.4684-0.24621 0.54167c-0.13132 0.31187-0.27905 0.62373-0.50884 0.86995-0.31187 0.34469-0.70581 0.49242-1.0505 0.49242-0.55808 0-0.83712-0.37752-0.88637-0.44318-0.0492-0.0821-0.0328-0.19697-0.13131-0.27904l-0.60732 1.0669c0.42676 0.41035 1.0013 0.62374 1.625 0.62374 0.67298 0 1.3788-0.24621 1.8712-0.8043 0.32829-0.37752 0.49243-0.77146 0.65657-1.1982l2.3308-6.1881c0.27904-0.70581 0.52526-1.428 0.75506-2.1667h-1.2311c-0.13131 0.6894-0.34469 1.346-0.57449 2.0025l-1.428 4.0215-2.1995-5.5316c-0.0164-0.04924-0.0164-0.08207-0.0164-0.13131 0-0.1149 0.0821-0.19697 0.0657-0.3447z"/>
   <path d="m534.95 94.27c-0.68939-0.75505-1.6907-1.1654-2.8068-1.1654-1.7399 0-2.8725 0.96844-2.8725 2.0846 0 1.3131 1.4116 1.7891 1.822 1.9369 0.64015 0.2298 1.4609 0.42677 2.0189 0.6894 0.62374 0.29546 0.73864 0.6894 0.73864 0.95202 0 0.70581-0.85354 1.1818-1.9205 1.1818-1.2803 0-2.101-0.77147-2.3472-1.0341-0.0493-0.06566-0.0493-0.1149-0.0493-0.18056 0-0.01641 0.0164-0.1149-0.0657-0.14773l-0.6894 1.1654c0.88637 0.82071 2.0354 1.1982 3.1679 1.1982 2.0518 0 3.1187-1.2146 3.1187-2.3472 0-0.50884-0.21338-1.1982-1.0998-1.6907-0.83712-0.47601-2.0518-0.64015-2.7576-0.98485-0.60732-0.29546-0.73864-0.65657-0.73864-0.91919 0-0.59091 0.73864-1.0177 1.5758-1.0177 1.0833 0 1.8056 0.65657 2.0846 1.0341 0.0492 0.04924 0.0328 0.09848 0.0328 0.14773 0 0.09848 0.0657 0.13131 0.0985 0.13131z"/>
   <path d="m539.16 91.266-0.14773 2.0189h-1.7891l-0.0164 0.96844h1.7563c-0.0985 1.2803-0.14773 2.5606-0.14773 3.8245 0 0.67298 0 1.428 0.44318 2.0518 0.36111 0.49243 0.93561 0.78788 1.7071 0.78788 0.88636 0 1.7563-0.37753 2.3965-0.83712l-0.36112-0.93561c-0.64015 0.47601-1.2311 0.6894-1.6907 0.6894-0.55808 0-1.1326-0.31187-1.2639-1.2146 0-0.06566-0.0492-0.3447-0.0492-1.4444 0-0.96844 0.0492-1.9533 0.14773-2.9217h2.4621v-0.98485h-2.4457s0.1149-1.346 0.19697-1.7727c0.0164-0.16414 0.14773-0.26263 0.0821-0.44318z"/>
   <path d="m548.51 93.105c-1.7891 0-3.447 1.2803-3.447 4.0051 0 2.5114 1.5593 3.8409 3.5947 3.8409 1.0833 0 2.0518-0.39394 2.6919-1.1654l-0.65656-0.64015c-0.47601 0.55808-1.1982 0.85354-1.9369 0.85354-1.0013 0-2.4621-0.55808-2.5442-2.8068h5.3182c0.0492-0.50884 0.0328-1.0013-0.0492-1.428-0.3447-2.0189-1.7399-2.6591-2.971-2.6591zm-2.2652 3.1843c0.24621-1.7727 1.3788-2.2816 2.1831-2.2816 1.2146 0 2.0846 1.0669 1.9369 2.2816z"/>
   <path d="m553.09 100.77h1.0833v-4.9899c0-0.36111 0.0328-0.6894 0.24621-1.0833 0.26263-0.49242 0.59091-0.6894 0.90278-0.6894 0.26263 0 0.55808 0.16414 0.6894 0.5745 0.0985 0.31187 0.0821 0.67298 0.0821 0.98485v5.2033h1.0998v-4.9571c0-0.39394 0.0328-0.70581 0.31187-1.1818 0.13131-0.19697 0.41035-0.67298 0.86995-0.67298 0.24621 0 0.47601 0.14773 0.59091 0.42677 0.14773 0.31187 0.1149 0.73864 0.1149 1.0833v5.3182h1.1162v-5.3346c0-0.62374 0.0164-1.2475-0.31187-1.7563-0.27904-0.42677-0.75505-0.59091-1.1654-0.59091-0.72223 0-1.3952 0.42677-1.6907 1.0833-0.1149-0.62374-0.64016-1.0833-1.3131-1.0833-0.62374 0-1.1982 0.39394-1.5429 0.91919l0.0164-0.73864h-1.0998z"/>
   <path d="m567.78 94.27c-0.6894-0.75505-1.6907-1.1654-2.8068-1.1654-1.7399 0-2.8725 0.96844-2.8725 2.0846 0 1.3131 1.4116 1.7891 1.822 1.9369 0.64015 0.2298 1.4609 0.42677 2.0189 0.6894 0.62374 0.29546 0.73864 0.6894 0.73864 0.95202 0 0.70581-0.85354 1.1818-1.9205 1.1818-1.2803 0-2.101-0.77147-2.3472-1.0341-0.0492-0.06566-0.0492-0.1149-0.0492-0.18056 0-0.01641 0.0164-0.1149-0.0657-0.14773l-0.68939 1.1654c0.88636 0.82071 2.0354 1.1982 3.1679 1.1982 2.0518 0 3.1187-1.2146 3.1187-2.3472 0-0.50884-0.21339-1.1982-1.0998-1.6907-0.83713-0.47601-2.0518-0.64015-2.7576-0.98485-0.60733-0.29546-0.73864-0.65657-0.73864-0.91919 0-0.59091 0.73864-1.0177 1.5758-1.0177 1.0833 0 1.8056 0.65657 2.0846 1.0341 0.0492 0.04924 0.0328 0.09848 0.0328 0.14773 0 0.09848 0.0657 0.13131 0.0985 0.13131z"/>
  </g>
 </g>
 <g fill="#e96f6f" stroke-width="2.6263px">
  <g transform="translate(-38.368 -15.31)" aria-label="Modules">
   <path d="m299.23 150.78v10.242h1.0833v-7.6654l2.0682 4.0543h0.42677l2.2159-4.12v7.7311h1.0833v-10.242h-0.85354l-2.577 5.0063-2.5442-5.0063z"/>
   <path d="m314.33 157.3c0-2.5934-1.6414-3.9394-3.3485-3.9394-1.904 0-3.5455 1.6414-3.5455 3.9722 0 2.2816 1.625 3.8902 3.5126 3.8902 1.7727 0 3.3813-1.428 3.3813-3.923zm-3.4306-2.9381c1.0833 0 2.2323 0.93561 2.2323 2.9874 0 1.8876-1.0833 2.8396-2.1667 2.8396-1.1982 0-2.2816-1.1162-2.2816-2.971 0-1.8384 1.0669-2.8561 2.2159-2.8561z"/>
   <path d="m321.08 154.61c-0.36111-0.77146-1.1654-1.2803-2.1995-1.2803-1.428 0-3.1679 1.0177-3.1679 3.8737 0 2.774 1.5429 3.9886 2.9874 3.9886 0.95202 0 1.8384-0.54166 2.3144-1.3788v0.65657c0 0.18056 0.0164 0.36111 0.0657 0.54167h1.1818c-0.0657-0.21339-0.0657-0.4596-0.0657-0.6894l-0.0164-9.75c0-0.0985 0-0.13132 0.0657-0.2298 0.0328-0.0493 0.0985-0.13132 0.0821-0.24622h-1.2475zm-2.1502-0.31187c0.65656 0 1.625 0.3447 1.9205 1.4609 0.0985 0.3447 0.13131 0.75506 0.13131 1.5922 0 0.57449-0.0328 0.98485-0.16414 1.3788-0.27904 0.88636-1.0669 1.4116-1.8384 1.4116-0.85354 0-2.1174-0.65657-2.1174-3.1187 0-2.1502 1.1982-2.7248 2.0682-2.7248z"/>
   <path d="m324.21 153.53v4.1856c0 0.64015 0 1.2967 0.29546 1.9697 0.42677 0.98485 1.346 1.5265 2.3308 1.5265 0.93561 0 1.822-0.50884 2.3144-1.3296l-0.0164 0.55808c0 0.19697 0 0.39394 0.0328 0.5745h1.2475c-0.0821-0.21339-0.0985-0.4596-0.0985-0.67298v-6.8119h-1.1818v4.12c0 0.5745-0.0492 1.0177-0.29545 1.4773-0.3447 0.64015-1.0177 1.1162-1.7399 1.1162-0.5745 0-1.1326-0.32828-1.428-0.91919-0.26262-0.52525-0.26262-1.1162-0.26262-1.6086v-4.1856z"/>
   <path d="m332.78 150.11v0.95202h2.1338v9.0114h-2.2323v0.93561h5.6301v-0.93561h-2.2159v-9.9634z"/>
   <path d="m343.84 153.34c-1.7892 0-3.447 1.2803-3.447 4.0051 0 2.5114 1.5594 3.8409 3.5947 3.8409 1.0833 0 2.0518-0.39394 2.6919-1.1654l-0.65657-0.64015c-0.47601 0.55808-1.1982 0.85353-1.9369 0.85353-1.0013 0-2.4621-0.55808-2.5442-2.8068h5.3182c0.0492-0.50884 0.0328-1.0013-0.0493-1.428-0.34469-2.019-1.7399-2.6591-2.971-2.6591zm-2.2652 3.1844c0.24622-1.7727 1.3788-2.2816 2.1831-2.2816 1.2146 0 2.0846 1.0669 1.9369 2.2816z"/>
   <path d="m354.91 154.51c-0.68939-0.75506-1.6907-1.1654-2.8068-1.1654-1.7399 0-2.8725 0.96844-2.8725 2.0846 0 1.3131 1.4116 1.7891 1.822 1.9369 0.64016 0.2298 1.4609 0.42677 2.019 0.6894 0.62373 0.29545 0.73863 0.68939 0.73863 0.95202 0 0.70581-0.85353 1.1818-1.9204 1.1818-1.2803 0-2.101-0.77147-2.3472-1.0341-0.0492-0.0657-0.0492-0.1149-0.0492-0.18056 0-0.0164 0.0164-0.1149-0.0657-0.14773l-0.6894 1.1654c0.88637 0.82071 2.0354 1.1982 3.1679 1.1982 2.0518 0 3.1187-1.2146 3.1187-2.3472 0-0.50884-0.21338-1.1982-1.0998-1.6907-0.83712-0.47601-2.0518-0.64015-2.7576-0.98485-0.60732-0.29546-0.73864-0.65657-0.73864-0.9192 0-0.59091 0.73864-1.0177 1.5758-1.0177 1.0833 0 1.8056 0.65656 2.0846 1.0341 0.0493 0.0492 0.0328 0.0985 0.0328 0.14773 0 0.0985 0.0657 0.13131 0.0985 0.13131z"/>
  </g>
  <g transform="translate(-38.368 -15.31)" aria-label="Visual Effects">
   <path d="m93.035 180.41 3.4798 10.308h0.52525l3.4306-10.308h-1.1326l-2.4785 7.8624-2.6263-7.8624z"/>
   <path d="m102.57 183.14v0.96843h1.8056v5.5972h-1.904v0.93561h4.8586v-0.93561h-1.7563v-6.5657zm2.4293-3.25c-0.47602 0-0.85354 0.37753-0.85354 0.83712 0 0.4596 0.37752 0.83712 0.85354 0.83712 0.47601 0 0.85353-0.37752 0.85353-0.83712 0-0.45959-0.37752-0.83712-0.85353-0.83712z"/>
   <path d="m116.13 184.14c-0.68939-0.75505-1.6907-1.1654-2.8068-1.1654-1.7399 0-2.8725 0.96844-2.8725 2.0846 0 1.3131 1.4116 1.7892 1.822 1.9369 0.64016 0.22979 1.4609 0.42676 2.019 0.68939 0.62373 0.29546 0.73863 0.6894 0.73863 0.95202 0 0.70581-0.85353 1.1818-1.9204 1.1818-1.2803 0-2.101-0.77146-2.3472-1.0341-0.0492-0.0657-0.0492-0.1149-0.0492-0.18056 0-0.0164 0.0164-0.11489-0.0657-0.14772l-0.68939 1.1654c0.88636 0.82071 2.0354 1.1982 3.1679 1.1982 2.0518 0 3.1187-1.2146 3.1187-2.3472 0-0.50884-0.21338-1.1982-1.0998-1.6907-0.83712-0.47601-2.0518-0.64015-2.7576-0.98485-0.60732-0.29545-0.73864-0.65657-0.73864-0.91919 0-0.59091 0.73864-1.0177 1.5758-1.0177 1.0833 0 1.8056 0.65657 2.0846 1.0341 0.0492 0.0492 0.0328 0.0985 0.0328 0.14773 0 0.0985 0.0657 0.13131 0.0985 0.13131z"/>
   <path d="m118.26 183.15v4.1856c0 0.64016 0 1.2967 0.29545 1.9697 0.42677 0.98485 1.346 1.5265 2.3308 1.5265 0.93561 0 1.822-0.50884 2.3144-1.3296l-0.0164 0.55809c0 0.19697 0 0.39394 0.0328 0.57449h1.2475c-0.0821-0.21338-0.0985-0.4596-0.0985-0.67298v-6.8119h-1.1818v4.12c0 0.57449-0.0492 1.0177-0.29546 1.4773-0.34469 0.64015-1.0177 1.1162-1.7399 1.1162-0.5745 0-1.1326-0.32829-1.428-0.9192-0.26263-0.52525-0.26263-1.1162-0.26263-1.6086v-4.1856z"/>
   <path d="m126.93 184.02 0.57449 0.75505c0.62374-0.64015 1.4609-0.83712 2.1667-0.83712 0.88637 0 1.3296 0.37753 1.5429 0.72222 0.24621 0.41036 0.2298 0.90278 0.2298 1.2967v0.26263h-0.2298c-1.1162 0-2.298 0-3.25 0.3447-1.1818 0.42677-1.7071 1.3131-1.7071 2.1338 0 1.0998 0.95202 2.1338 2.5114 2.1338 0.91919 0 1.8712-0.3447 2.6919-1.0177v0.82071h1.1162v-4.6452c0-0.60732-0.0164-1.1818-0.36111-1.7727-0.49242-0.80429-1.4444-1.2311-2.6098-1.2311-1.0013 0-1.9697 0.31187-2.6755 1.0341zm4.5631 3.1023v0.50884c0 0.37752 0 0.86995-0.50884 1.4116-0.27904 0.27904-0.98485 0.88636-1.9697 0.88636-1.0013 0-1.5758-0.64015-1.5758-1.2967 0-0.55808 0.37752-1.1654 1.3131-1.3952 0.6894-0.16414 1.6907-0.1149 2.4785-0.1149z"/>
   <path d="m135.04 179.74v0.95202h2.1338v9.0114h-2.2323v0.93561h5.6301v-0.93561h-2.2159v-9.9634z"/>
   <path d="m89.473 200.93v10.226h6.2374v-1.0177h-5.1376v-3.7917h4.2677v-1.0505h-4.2677v-3.3485h5.1705v-1.0177z"/>
   <path d="m102.36 200.16c-1.0505 0-2.0354 0.44318-2.5606 1.2967-0.39394 0.62374-0.41035 1.2475-0.41035 1.9205v0.73864h-1.6414v0.9356h1.6414v6.1061h1.1326v-6.1061h2.4457v-0.9356h-2.4457v-0.59091c0-0.54167-0.0164-1.1162 0.26262-1.6086 0.31187-0.55808 0.90278-0.83713 1.5101-0.83713 0.72222 0 1.3296 0.37753 1.6414 0.85354 0.0493 0.0821 0.0493 0.13131 0.0493 0.19697 0 0.1149 0.0821 0.14773 0.13131 0.14773l0.54167-1.0998c-0.54167-0.64015-1.3624-1.0177-2.298-1.0177z"/>
   <path d="m110.57 200.16c-1.0505 0-2.0354 0.44318-2.5606 1.2967-0.39394 0.62374-0.41036 1.2475-0.41036 1.9205v0.73864h-1.6414v0.9356h1.6414v6.1061h1.1326v-6.1061h2.4457v-0.9356h-2.4457v-0.59091c0-0.54167-0.0164-1.1162 0.26263-1.6086 0.31187-0.55808 0.90278-0.83713 1.5101-0.83713 0.72223 0 1.3296 0.37753 1.6414 0.85354 0.0492 0.0821 0.0492 0.13131 0.0492 0.19697 0 0.1149 0.0821 0.14773 0.13132 0.14773l0.54166-1.0998c-0.54166-0.64015-1.3624-1.0177-2.298-1.0177z"/>
   <path d="m117.38 203.49c-1.7891 0-3.447 1.2803-3.447 4.0051 0 2.5114 1.5593 3.8409 3.5947 3.8409 1.0833 0 2.0518-0.39394 2.6919-1.1654l-0.65656-0.64016c-0.47601 0.55808-1.1982 0.85354-1.9369 0.85354-1.0013 0-2.4621-0.55808-2.5442-2.8068h5.3182c0.0492-0.50884 0.0328-1.0013-0.0492-1.428-0.3447-2.0189-1.7399-2.6591-2.971-2.6591zm-2.2652 3.1844c0.24621-1.7727 1.3788-2.2816 2.1831-2.2816 1.2146 0 2.0846 1.0669 1.9369 2.2816z"/>
   <path d="m128.83 204.9c-0.59091-0.86995-1.5922-1.3952-2.8068-1.3952-2.1995 0-3.7588 1.6578-3.7588 3.9066 0 2.2652 1.5594 3.9394 3.6932 3.9394 1.0341 0 2.0518-0.42677 2.7576-1.1982l-0.67298-0.78788c-0.50884 0.5745-1.2475 0.90278-1.9861 0.90278-1.4609 0-2.577-1.2146-2.577-2.971 0-1.7071 1.0998-2.774 2.4785-2.774 1.2803 0 1.8876 0.88637 1.9369 0.98485 0.0657 0.1149-0.0328 0.27904 0.0985 0.37753z"/>
   <path d="m132.64 201.65-0.14773 2.0189h-1.7891l-0.0164 0.96844h1.7563c-0.0985 1.2803-0.14773 2.5606-0.14773 3.8245 0 0.67298 0 1.428 0.44318 2.0518 0.36112 0.49243 0.93561 0.78788 1.7071 0.78788 0.88636 0 1.7563-0.37752 2.3965-0.83712l-0.36112-0.93561c-0.64015 0.47601-1.2311 0.6894-1.6906 0.6894-0.55809 0-1.1326-0.31187-1.2639-1.2146 0-0.0657-0.0492-0.3447-0.0492-1.4444 0-0.96843 0.0492-1.9533 0.14773-2.9217h2.4621v-0.98485h-2.4457s0.1149-1.346 0.19697-1.7727c0.0164-0.16414 0.14773-0.26263 0.0821-0.44318z"/>
   <path d="m144.85 204.66c-0.6894-0.75505-1.6907-1.1654-2.8068-1.1654-1.7399 0-2.8725 0.96843-2.8725 2.0846 0 1.3131 1.4116 1.7891 1.822 1.9369 0.64016 0.2298 1.4609 0.42677 2.019 0.68939 0.62374 0.29546 0.73864 0.6894 0.73864 0.95203 0 0.70581-0.85354 1.1818-1.9205 1.1818-1.2803 0-2.101-0.77147-2.3472-1.0341-0.0492-0.0657-0.0492-0.11489-0.0492-0.18055 0-0.0164 0.0164-0.1149-0.0657-0.14773l-0.68939 1.1654c0.88636 0.82071 2.0354 1.1982 3.1679 1.1982 2.0518 0 3.1187-1.2146 3.1187-2.3472 0-0.50884-0.21338-1.1982-1.0998-1.6907-0.83712-0.47602-2.0518-0.64016-2.7576-0.98485-0.60732-0.29546-0.73863-0.65657-0.73863-0.9192 0-0.59091 0.73863-1.0177 1.5758-1.0177 1.0833 0 1.8056 0.65657 2.0846 1.0341 0.0492 0.0492 0.0328 0.0985 0.0328 0.14772 0 0.0985 0.0657 0.13132 0.0985 0.13132z"/>
  </g>
  <g transform="translate(-38.368 -15.31)" aria-label="Animation">
   <path d="m186.33 200.5h1.1326l1.0013-3.0038h3.2336l1.1326 2.9874h1.1982l-3.9558-10.407h-0.13132zm5.1212-3.8902h-2.774l1.3296-3.8902z"/>
   <path d="m195.43 200.49h1.1982v-4.3169c0-0.49243 0.0657-0.86995 0.37753-1.2803 0.27904-0.37752 1.0013-1.0505 1.7891-1.0505 0.37753 0 0.75505 0.16414 1.0177 0.47601 0.41035 0.49242 0.41035 1.1326 0.41035 1.6578v4.5139h1.1654v-4.5467c0-0.57449 0-1.1982-0.26263-1.8056-0.37752-0.83712-1.149-1.3131-2.0025-1.3131-1.0177 0-1.9369 0.65657-2.495 1.4937v-1.3131h-1.1982z"/>
   <path d="m204.26 192.98v0.96844h1.8056v5.5972h-1.904v0.93561h4.8586v-0.93561h-1.7563v-6.5657zm2.4293-3.25c-0.47601 0-0.85354 0.37753-0.85354 0.83713 0 0.45959 0.37753 0.83712 0.85354 0.83712s0.85354-0.37753 0.85354-0.83712c0-0.4596-0.37753-0.83713-0.85354-0.83713z"/>
   <path d="m211.33 200.49h1.0833v-4.9899c0-0.36111 0.0328-0.6894 0.24621-1.0833 0.26262-0.49242 0.59091-0.68939 0.90278-0.68939 0.26262 0 0.55808 0.16414 0.68939 0.57449 0.0985 0.31187 0.0821 0.67299 0.0821 0.98485v5.2033h1.0998v-4.9571c0-0.39394 0.0328-0.70581 0.31187-1.1818 0.13132-0.19697 0.41036-0.67298 0.86995-0.67298 0.24622 0 0.47601 0.14772 0.59091 0.42676 0.14773 0.31187 0.1149 0.73864 0.1149 1.0833v5.3182h1.1162v-5.3346c0-0.62374 0.0164-1.2475-0.31187-1.7563-0.27904-0.42677-0.75506-0.59091-1.1654-0.59091-0.72222 0-1.3952 0.42677-1.6907 1.0833-0.1149-0.62373-0.64015-1.0833-1.3131-1.0833-0.62374 0-1.1982 0.39394-1.5429 0.91919l0.0164-0.73863h-1.0998z"/>
   <path d="m220.41 193.87 0.57449 0.75505c0.62374-0.64015 1.4609-0.83712 2.1667-0.83712 0.88637 0 1.3296 0.37752 1.5429 0.72222 0.24622 0.41035 0.2298 0.90278 0.2298 1.2967v0.26263h-0.2298c-1.1162 0-2.298 0-3.25 0.34469-1.1818 0.42677-1.7071 1.3131-1.7071 2.1338 0 1.0998 0.95203 2.1338 2.5114 2.1338 0.9192 0 1.8712-0.3447 2.6919-1.0177v0.82071h1.1162v-4.6452c0-0.60733-0.0164-1.1818-0.36111-1.7727-0.49243-0.8043-1.4444-1.2311-2.6098-1.2311-1.0013 0-1.9697 0.31187-2.6755 1.0341zm4.5631 3.1023v0.50884c0 0.37753 0 0.86995-0.50884 1.4116-0.27905 0.27904-0.98485 0.88637-1.9697 0.88637-1.0013 0-1.5758-0.64015-1.5758-1.2967 0-0.55808 0.37753-1.1654 1.3131-1.3952 0.68939-0.16414 1.6907-0.1149 2.4785-0.1149z"/>
   <path d="m230.22 190.98-0.14773 2.019h-1.7891l-0.0164 0.96843h1.7563c-0.0985 1.2803-0.14773 2.5606-0.14773 3.8245 0 0.67298 0 1.428 0.44318 2.0518 0.36112 0.49243 0.93561 0.78788 1.7071 0.78788 0.88636 0 1.7563-0.37752 2.3965-0.83712l-0.36111-0.93561c-0.64016 0.47602-1.2311 0.6894-1.6907 0.6894-0.55809 0-1.1326-0.31187-1.2639-1.2146 0-0.0657-0.0492-0.3447-0.0492-1.4444 0-0.96843 0.0492-1.9533 0.14773-2.9217h2.4621v-0.98485h-2.4457s0.1149-1.346 0.19697-1.7727c0.0164-0.16414 0.14773-0.26263 0.0821-0.44318z"/>
   <path d="m237.09 192.98v0.96844h1.8056v5.5972h-1.904v0.93561h4.8586v-0.93561h-1.7563v-6.5657zm2.4293-3.25c-0.47601 0-0.85353 0.37753-0.85353 0.83713 0 0.45959 0.37752 0.83712 0.85353 0.83712s0.85354-0.37753 0.85354-0.83712c0-0.4596-0.37753-0.83713-0.85354-0.83713z"/>
   <path d="m251.1 196.78c0-2.5934-1.6414-3.9394-3.3485-3.9394-1.904 0-3.5455 1.6414-3.5455 3.9722 0 2.2816 1.625 3.8902 3.5126 3.8902 1.7727 0 3.3813-1.428 3.3813-3.923zm-3.4306-2.9381c1.0833 0 2.2323 0.93561 2.2323 2.9874 0 1.8876-1.0833 2.8396-2.1667 2.8396-1.1982 0-2.2816-1.1162-2.2816-2.971 0-1.8384 1.0669-2.8561 2.2159-2.8561z"/>
   <path d="m252.88 200.49h1.1982v-4.3169c0-0.49243 0.0657-0.86995 0.37753-1.2803 0.27904-0.37752 1.0013-1.0505 1.7891-1.0505 0.37753 0 0.75505 0.16414 1.0177 0.47601 0.41035 0.49242 0.41035 1.1326 0.41035 1.6578v4.5139h1.1654v-4.5467c0-0.57449 0-1.1982-0.26263-1.8056-0.37752-0.83712-1.149-1.3131-2.0025-1.3131-1.0177 0-1.9369 0.65657-2.495 1.4937v-1.3131h-1.1982z"/>
  </g>
  <g transform="translate(-38.368 -15.31)" aria-label="Multiplayer">
   <path d="m283.93 190.26v10.242h1.0833v-7.6654l2.0682 4.0543h0.42677l2.2159-4.12v7.7311h1.0833v-10.242h-0.85354l-2.577 5.0063-2.5442-5.0063z"/>
   <path d="m292.5 193v4.1856c0 0.64015 0 1.2967 0.29545 1.9697 0.42677 0.98485 1.346 1.5265 2.3308 1.5265 0.93561 0 1.822-0.50884 2.3144-1.3296l-0.0164 0.55808c0 0.19697 0 0.39394 0.0328 0.5745h1.2475c-0.0821-0.21339-0.0985-0.4596-0.0985-0.67298v-6.8119h-1.1818v4.12c0 0.5745-0.0492 1.0177-0.29546 1.4773-0.34469 0.64015-1.0177 1.1162-1.7399 1.1162-0.57449 0-1.1326-0.32828-1.428-0.91919-0.26263-0.52526-0.26263-1.1162-0.26263-1.6086v-4.1856z"/>
   <path d="m301.07 189.59v0.95202h2.1338v9.0114h-2.2323v0.93561h5.6301v-0.93561h-2.2159v-9.9634z"/>
   <path d="m310.98 190.98-0.14772 2.019h-1.7892l-0.0164 0.96843h1.7563c-0.0985 1.2803-0.14772 2.5606-0.14772 3.8245 0 0.67298 0 1.428 0.44318 2.0518 0.36111 0.49243 0.93561 0.78788 1.7071 0.78788 0.88637 0 1.7563-0.37752 2.3965-0.83712l-0.36111-0.93561c-0.64015 0.47602-1.2311 0.6894-1.6907 0.6894-0.55808 0-1.1326-0.31187-1.2639-1.2146 0-0.0657-0.0492-0.3447-0.0492-1.4444 0-0.96843 0.0492-1.9533 0.14772-2.9217h2.4621v-0.98485h-2.4457s0.1149-1.346 0.19697-1.7727c0.0164-0.16414 0.14773-0.26263 0.0821-0.44318z"/>
   <path d="m317.84 192.98v0.96844h1.8056v5.5972h-1.904v0.93561h4.8586v-0.93561h-1.7563v-6.5657zm2.4293-3.25c-0.47601 0-0.85353 0.37753-0.85353 0.83713 0 0.45959 0.37752 0.83712 0.85353 0.83712 0.47602 0 0.85354-0.37753 0.85354-0.83712 0-0.4596-0.37752-0.83713-0.85354-0.83713z"/>
   <path d="m325.28 193 0.0164 10.226h1.1982v-3.726c0.50884 0.73863 1.346 1.1982 2.2488 1.1982 1.5429 0 3.1515-1.2967 3.1515-4.0379 0-2.6427-1.5594-3.8245-3.0366-3.8245-0.96844 0-1.8712 0.49243-2.3801 1.3131v-1.149zm3.1351 0.83712c0.65657 0 2.2487 0.3447 2.2487 3.0694 0 2.3636-1.5429 2.7412-2.2487 2.7412s-1.428-0.36111-1.7235-1.0341c-0.21338-0.50884-0.21338-1.1326-0.21338-2.2159 0-0.62374 0.0328-1.0833 0.19697-1.4773 0.29546-0.67298 0.98485-1.0833 1.7399-1.0833z"/>
   <path d="m333.9 189.59v0.95202h2.1338v9.0114h-2.2323v0.93561h5.6301v-0.93561h-2.2159v-9.9634z"/>
   <path d="m342.2 193.87 0.57449 0.75505c0.62374-0.64015 1.4609-0.83712 2.1667-0.83712 0.88637 0 1.3296 0.37752 1.5429 0.72222 0.24621 0.41035 0.2298 0.90278 0.2298 1.2967v0.26263h-0.2298c-1.1162 0-2.298 0-3.25 0.34469-1.1818 0.42677-1.7071 1.3131-1.7071 2.1338 0 1.0998 0.95202 2.1338 2.5114 2.1338 0.91919 0 1.8712-0.3447 2.6919-1.0177v0.82071h1.1162v-4.6452c0-0.60733-0.0164-1.1818-0.36111-1.7727-0.49242-0.8043-1.4444-1.2311-2.6098-1.2311-1.0013 0-1.9697 0.31187-2.6755 1.0341zm4.5631 3.1023v0.50884c0 0.37753 0 0.86995-0.50884 1.4116-0.27904 0.27904-0.98485 0.88637-1.9697 0.88637-1.0013 0-1.5758-0.64015-1.5758-1.2967 0-0.55808 0.37752-1.1654 1.3131-1.3952 0.6894-0.16414 1.6907-0.1149 2.4785-0.1149z"/>
   <path d="m349.67 193 3.053 7.4684-0.24621 0.54167c-0.13131 0.31187-0.27904 0.62374-0.50884 0.86995-0.31187 0.3447-0.70581 0.49243-1.0505 0.49243-0.55808 0-0.83712-0.37753-0.88636-0.44319-0.0492-0.0821-0.0328-0.19697-0.13132-0.27904l-0.60732 1.0669c0.42677 0.41036 1.0013 0.62374 1.625 0.62374 0.67298 0 1.3788-0.24621 1.8712-0.80429 0.32828-0.37753 0.49242-0.77147 0.65656-1.1982l2.3308-6.1881c0.27904-0.70581 0.52525-1.428 0.75505-2.1667h-1.2311c-0.13132 0.6894-0.3447 1.346-0.5745 2.0025l-1.428 4.0215-2.1995-5.5316c-0.0164-0.0493-0.0164-0.0821-0.0164-0.13132 0-0.1149 0.0821-0.19697 0.0657-0.34469z"/>
   <path d="m361.37 192.82c-1.7892 0-3.447 1.2803-3.447 4.0051 0 2.5114 1.5594 3.8409 3.5947 3.8409 1.0833 0 2.0518-0.39394 2.6919-1.1654l-0.65657-0.64016c-0.47601 0.55809-1.1982 0.85354-1.9369 0.85354-1.0013 0-2.4621-0.55808-2.5442-2.8068h5.3182c0.0492-0.50884 0.0328-1.0013-0.0492-1.428-0.34469-2.0189-1.7399-2.6591-2.971-2.6591zm-2.2652 3.1844c0.24622-1.7727 1.3788-2.2816 2.1831-2.2816 1.2146 0 2.0846 1.0669 1.9369 2.2816z"/>
   <path d="m366.97 193v7.5013h1.1818v-3.6439c0-0.4596 0.0164-0.95203 0.52525-1.7563 0.6894-1.0833 1.5758-1.2639 2.1174-1.2639 0.62374 0 1.0177 0.29545 1.2311 0.55808 0.0985 0.13131 0.14773 0.26263 0.27905 0.37753l0.55808-1.1326c-0.47601-0.49243-1.1654-0.82071-2.0025-0.82071-1.0998 0-2.2159 0.55808-2.7083 1.625l0.0492-1.4444z"/>
  </g>
  <g transform="translate(-38.368 -15.31)" aria-label="Audio">
   <path d="m412.19 200.5h1.1326l1.0013-3.0038h3.2336l1.1326 2.9874h1.1982l-3.9558-10.407h-0.13132zm5.1212-3.8902h-2.774l1.3296-3.8902z"/>
   <path d="m421.19 193v4.1856c0 0.64015 0 1.2967 0.29546 1.9697 0.42676 0.98485 1.346 1.5265 2.3308 1.5265 0.93561 0 1.822-0.50884 2.3144-1.3296l-0.0164 0.55808c0 0.19697 0 0.39394 0.0328 0.5745h1.2475c-0.0821-0.21339-0.0985-0.4596-0.0985-0.67298v-6.8119h-1.1818v4.12c0 0.5745-0.0492 1.0177-0.29545 1.4773-0.3447 0.64015-1.0177 1.1162-1.7399 1.1162-0.57449 0-1.1326-0.32828-1.428-0.91919-0.26263-0.52526-0.26263-1.1162-0.26263-1.6086v-4.1856z"/>
   <path d="m434.47 194.08c-0.36111-0.77147-1.1654-1.2803-2.1995-1.2803-1.428 0-3.1679 1.0177-3.1679 3.8738 0 2.774 1.5429 3.9886 2.9874 3.9886 0.95202 0 1.8384-0.54166 2.3144-1.3788v0.65657c0 0.18056 0.0164 0.36111 0.0657 0.54167h1.1818c-0.0657-0.21339-0.0657-0.4596-0.0657-0.6894l-0.0164-9.75c0-0.0985 0-0.13131 0.0657-0.22979 0.0328-0.0493 0.0985-0.13132 0.0821-0.24622h-1.2475zm-2.1502-0.31187c0.65657 0 1.625 0.3447 1.9205 1.4609 0.0985 0.3447 0.13131 0.75505 0.13131 1.5922 0 0.57449-0.0328 0.98485-0.16414 1.3788-0.27904 0.88636-1.0669 1.4116-1.8384 1.4116-0.85354 0-2.1174-0.65657-2.1174-3.1187 0-2.1502 1.1982-2.7248 2.0682-2.7248z"/>
   <path d="m438.32 192.98v0.96844h1.8056v5.5972h-1.904v0.93561h4.8586v-0.93561h-1.7563v-6.5657zm2.4293-3.25c-0.47601 0-0.85353 0.37753-0.85353 0.83713 0 0.45959 0.37752 0.83712 0.85353 0.83712s0.85354-0.37753 0.85354-0.83712c0-0.4596-0.37753-0.83713-0.85354-0.83713z"/>
   <path d="m452.34 196.78c0-2.5934-1.6414-3.9394-3.3485-3.9394-1.904 0-3.5455 1.6414-3.5455 3.9722 0 2.2816 1.625 3.8902 3.5126 3.8902 1.7727 0 3.3813-1.428 3.3813-3.923zm-3.4306-2.9381c1.0833 0 2.2323 0.93561 2.2323 2.9874 0 1.8876-1.0833 2.8396-2.1667 2.8396-1.1982 0-2.2816-1.1162-2.2816-2.971 0-1.8384 1.0669-2.8561 2.2159-2.8561z"/>
  </g>
  <g transform="translate(-38.368 -15.31)" aria-label="Scripting">
   <path d="m508.38 191.49c-0.68939-0.83712-1.7071-1.2803-2.8232-1.2803-1.8548 0-3.1187 1.2146-3.1187 2.6263 0 0.59091 0.2298 1.3624 1.0833 1.9861 0.95202 0.70581 2.4293 1.0505 3.2008 1.5429 0.67298 0.41035 0.85354 0.95202 0.85354 1.4116 0 0.88636-0.75505 1.8548-2.2323 1.8548-1.1162 0-1.9861-0.55808-2.4457-1.1326-0.0492-0.0656-0.0492-0.0985-0.0492-0.16414 0-0.0328 0-0.13131-0.0657-0.16414l-0.6894 1.1818c0.8043 0.86995 1.9533 1.3131 3.2172 1.3131 2.495 0 3.4142-1.6742 3.4142-2.9546 0-0.54167-0.16414-1.2475-0.80429-1.8548-0.88637-0.83712-2.3308-1.1326-3.2664-1.6742-0.85354-0.50884-1.0341-1.1162-1.0341-1.5265 0-0.78788 0.67298-1.4937 1.8384-1.4937 0.95202 0 1.6907 0.42677 2.0846 1.0013 0.0492 0.0657 0.0328 0.0985 0.0328 0.16414 0 0.0985 0.0492 0.13132 0.0821 0.13132z"/>
   <path d="m516.95 194.23c-0.59091-0.86995-1.5922-1.3952-2.8068-1.3952-2.1995 0-3.7588 1.6578-3.7588 3.9066 0 2.2652 1.5594 3.9394 3.6932 3.9394 1.0341 0 2.0518-0.42677 2.7576-1.1982l-0.67298-0.78788c-0.50884 0.5745-1.2475 0.90278-1.9861 0.90278-1.4609 0-2.577-1.2146-2.577-2.971 0-1.7071 1.0998-2.774 2.4785-2.774 1.2803 0 1.8876 0.88637 1.9369 0.98485 0.0657 0.1149-0.0328 0.27904 0.0985 0.37753z"/>
   <path d="m519.29 193v7.5013h1.1818v-3.6439c0-0.4596 0.0164-0.95203 0.52525-1.7563 0.68939-1.0833 1.5758-1.2639 2.1174-1.2639 0.62374 0 1.0177 0.29545 1.2311 0.55808 0.0985 0.13131 0.14773 0.26263 0.27904 0.37753l0.55808-1.1326c-0.47601-0.49243-1.1654-0.82071-2.0025-0.82071-1.0998 0-2.2159 0.55808-2.7083 1.625l0.0492-1.4444z"/>
   <path d="m527.62 192.98v0.96844h1.8056v5.5972h-1.904v0.93561h4.8586v-0.93561h-1.7563v-6.5657zm2.4293-3.25c-0.47601 0-0.85354 0.37753-0.85354 0.83713 0 0.45959 0.37753 0.83712 0.85354 0.83712s0.85354-0.37753 0.85354-0.83712c0-0.4596-0.37753-0.83713-0.85354-0.83713z"/>
   <path d="m535.05 193 0.0164 10.226h1.1982v-3.726c0.50884 0.73863 1.346 1.1982 2.2487 1.1982 1.5429 0 3.1515-1.2967 3.1515-4.0379 0-2.6427-1.5594-3.8245-3.0366-3.8245-0.96844 0-1.8712 0.49243-2.3801 1.3131v-1.149zm3.1351 0.83712c0.65656 0 2.2487 0.3447 2.2487 3.0694 0 2.3636-1.5429 2.7412-2.2487 2.7412s-1.428-0.36111-1.7235-1.0341c-0.21339-0.50884-0.21339-1.1326-0.21339-2.2159 0-0.62374 0.0328-1.0833 0.19697-1.4773 0.29546-0.67298 0.98485-1.0833 1.7399-1.0833z"/>
   <path d="m545.38 190.98-0.14772 2.019h-1.7892l-0.0164 0.96843h1.7563c-0.0985 1.2803-0.14772 2.5606-0.14772 3.8245 0 0.67298 0 1.428 0.44318 2.0518 0.36111 0.49243 0.93561 0.78788 1.7071 0.78788 0.88637 0 1.7563-0.37752 2.3965-0.83712l-0.36111-0.93561c-0.64015 0.47602-1.2311 0.6894-1.6907 0.6894-0.55808 0-1.1326-0.31187-1.2639-1.2146 0-0.0657-0.0492-0.3447-0.0492-1.4444 0-0.96843 0.0492-1.9533 0.14772-2.9217h2.4621v-0.98485h-2.4457s0.1149-1.346 0.19697-1.7727c0.0164-0.16414 0.14772-0.26263 0.0821-0.44318z"/>
   <path d="m552.24 192.98v0.96844h1.8056v5.5972h-1.904v0.93561h4.8586v-0.93561h-1.7563v-6.5657zm2.4293-3.25c-0.47601 0-0.85354 0.37753-0.85354 0.83713 0 0.45959 0.37753 0.83712 0.85354 0.83712s0.85353-0.37753 0.85353-0.83712c0-0.4596-0.37752-0.83713-0.85353-0.83713z"/>
   <path d="m559.82 200.49h1.1982v-4.3169c0-0.49243 0.0657-0.86995 0.37753-1.2803 0.27904-0.37752 1.0013-1.0505 1.7891-1.0505 0.37753 0 0.75505 0.16414 1.0177 0.47601 0.41035 0.49242 0.41035 1.1326 0.41035 1.6578v4.5139h1.1654v-4.5467c0-0.57449 0-1.1982-0.26263-1.8056-0.37752-0.83712-1.149-1.3131-2.0025-1.3131-1.0177 0-1.9369 0.65657-2.495 1.4937v-1.3131h-1.1982z"/>
   <path d="m568.96 195.33c0-0.90278 0.75505-1.6414 1.6578-1.6414 0.91919 0 1.6578 0.73864 1.6578 1.6414s-0.73864 1.6414-1.6578 1.6414-1.6578-0.73863-1.6578-1.6414zm1.7235-2.577c-1.4937 0-2.7904 1.1818-2.7904 2.6427 0 0.82071 0.41035 1.5922 1.0998 2.0354-0.54167 0.4596-0.85354 0.96844-0.85354 1.4444 0 0.31187 0.13131 0.75505 0.60732 1.0013-0.80429 0.50884-1.2146 1.0669-1.2146 1.6578 0 0.82071 0.75506 1.7892 3.3813 1.7892 2.5442 0 3.4634-1.2967 3.4634-2.298 0-0.65656-0.37752-1.3131-1.1654-1.625-0.78788-0.32828-1.6907-0.21338-2.5442-0.21338-0.55808 0-0.91919-0.0492-1.0669-0.0985-0.29545-0.0821-0.4596-0.26262-0.4596-0.49242 0-0.39394 0.4596-0.77147 0.54167-0.83713 0.29546 0.1149 0.62374 0.16415 0.95202 0.16415 1.4773 0 2.6919-1.1818 2.6919-2.5606 0-0.4596-0.13132-0.90278-0.37753-1.2803 0.39394-0.2298 0.85354-0.36111 1.3131-0.36111 0.14772 0 0.27904 0.0164 0.42676 0.0492l-0.13131-0.96844c-0.75505-0.0657-1.5101 0.18056-2.0846 0.65657-0.47601-0.45959-1.0998-0.70581-1.7891-0.70581zm-1.1326 7.3371c0.27904 0.0328 0.67298 0.0657 1.2475 0.0985 0.55808 0.0164 1.1654-0.0328 1.5922 0.0328 0.68939 0.1149 0.90278 0.54167 0.90278 0.86995s-0.19697 0.72222-0.70581 1.0013c-0.55808 0.29545-1.1818 0.32828-1.6907 0.32828-0.3447 0-0.98485-0.0164-1.5429-0.24621-0.60733-0.24622-0.73864-0.65657-0.73864-0.9192 0-0.54166 0.50884-0.9356 0.93561-1.1654z"/>
  </g>
  <g transform="translate(-38.368 -15.31)" aria-label="Resource Manager">
   <path d="m84.103 248.04v10.226h1.149v-4.5139h1.9861l2.2652 4.5139h1.2967l-2.3636-4.5467c1.2311-0.3447 2.0846-1.5101 2.0846-2.8725 0-1.0177-0.50884-1.9861-1.4609-2.4621-0.64015-0.32828-1.2803-0.3447-1.9533-0.3447zm1.149 1.0833h1.8548c0.42677 0 0.83712 0.0164 1.2639 0.21338 0.64015 0.32828 0.96844 0.98485 0.96844 1.6414s-0.31187 1.2639-0.90278 1.5593c-0.39394 0.19697-0.78788 0.21339-1.1982 0.21339h-1.9861z"/>
   <path d="m95.626 250.6c-1.7891 0-3.447 1.2803-3.447 4.0051 0 2.5114 1.5593 3.8409 3.5947 3.8409 1.0833 0 2.0518-0.39394 2.6919-1.1654l-0.65657-0.64015c-0.47601 0.55808-1.1982 0.85353-1.9369 0.85353-1.0013 0-2.4621-0.55808-2.5442-2.8068h5.3182c0.04924-0.50884 0.03283-1.0013-0.04924-1.428-0.3447-2.0189-1.7399-2.6591-2.971-2.6591zm-2.2652 3.1844c0.24621-1.7727 1.3788-2.2816 2.1831-2.2816 1.2146 0 2.0846 1.0669 1.9369 2.2816z"/>
   <path d="m106.69 251.76c-0.68939-0.75505-1.6907-1.1654-2.8068-1.1654-1.7399 0-2.8725 0.96844-2.8725 2.0846 0 1.3131 1.4116 1.7892 1.822 1.9369 0.64016 0.2298 1.4609 0.42677 2.019 0.6894 0.62373 0.29545 0.73863 0.6894 0.73863 0.95202 0 0.70581-0.85353 1.1818-1.9204 1.1818-1.2803 0-2.101-0.77146-2.3472-1.0341-0.0492-0.0657-0.0492-0.1149-0.0492-0.18056 0-0.0164 0.0164-0.1149-0.0657-0.14772l-0.68939 1.1654c0.88636 0.82071 2.0354 1.1982 3.1679 1.1982 2.0518 0 3.1187-1.2146 3.1187-2.3472 0-0.50884-0.21338-1.1982-1.0998-1.6907-0.83712-0.47601-2.0518-0.64015-2.7576-0.98485-0.60732-0.29545-0.73864-0.65657-0.73864-0.91919 0-0.59091 0.73864-1.0177 1.5758-1.0177 1.0833 0 1.8056 0.65656 2.0846 1.0341 0.0493 0.0492 0.0328 0.0985 0.0328 0.14773 0 0.0985 0.0657 0.13131 0.0985 0.13131z"/>
   <path d="m115.36 254.55c0-2.5934-1.6414-3.9394-3.3485-3.9394-1.904 0-3.5455 1.6414-3.5455 3.9722 0 2.2816 1.625 3.8902 3.5126 3.8902 1.7727 0 3.3813-1.428 3.3813-3.923zm-3.4306-2.9381c1.0833 0 2.2323 0.93561 2.2323 2.9874 0 1.8876-1.0833 2.8396-2.1667 2.8396-1.1982 0-2.2816-1.1162-2.2816-2.971 0-1.8384 1.0669-2.8561 2.2159-2.8561z"/>
   <path d="m117.03 250.78v4.1856c0 0.64015 0 1.2967 0.29546 1.9697 0.42676 0.98485 1.346 1.5265 2.3308 1.5265 0.93561 0 1.822-0.50884 2.3144-1.3296l-0.0164 0.55808c0 0.19697 0 0.39394 0.0328 0.5745h1.2475c-0.0821-0.21338-0.0985-0.4596-0.0985-0.67298v-6.8119h-1.1818v4.12c0 0.57449-0.0492 1.0177-0.29545 1.4773-0.3447 0.64015-1.0177 1.1162-1.7399 1.1162-0.5745 0-1.1326-0.32828-1.428-0.91919-0.26262-0.52525-0.26262-1.1162-0.26262-1.6086v-4.1856z"/>
   <path d="m125.84 250.78v7.5013h1.1818v-3.6439c0-0.4596 0.0164-0.95202 0.52525-1.7563 0.6894-1.0833 1.5758-1.2639 2.1174-1.2639 0.62374 0 1.0177 0.29546 1.2311 0.55808 0.0985 0.13132 0.14772 0.26263 0.27904 0.37753l0.55808-1.1326c-0.47601-0.49242-1.1654-0.82071-2.0025-0.82071-1.0998 0-2.2159 0.55808-2.7083 1.625l0.0492-1.4444z"/>
   <path d="m139.91 252.01c-0.59091-0.86995-1.5922-1.3952-2.8068-1.3952-2.1995 0-3.7588 1.6578-3.7588 3.9066 0 2.2652 1.5594 3.9394 3.6932 3.9394 1.0341 0 2.0518-0.42677 2.7576-1.1982l-0.67298-0.78788c-0.50884 0.57449-1.2475 0.90278-1.9861 0.90278-1.4609 0-2.577-1.2146-2.577-2.971 0-1.7071 1.0998-2.774 2.4785-2.774 1.2803 0 1.8876 0.88636 1.9369 0.98485 0.0657 0.11489-0.0328 0.27904 0.0985 0.37752z"/>
   <path d="m144.87 250.6c-1.7892 0-3.447 1.2803-3.447 4.0051 0 2.5114 1.5594 3.8409 3.5947 3.8409 1.0833 0 2.0518-0.39394 2.6919-1.1654l-0.65657-0.64015c-0.47601 0.55808-1.1982 0.85353-1.9369 0.85353-1.0013 0-2.4621-0.55808-2.5442-2.8068h5.3182c0.0493-0.50884 0.0328-1.0013-0.0492-1.428-0.3447-2.0189-1.7399-2.6591-2.971-2.6591zm-2.2652 3.1844c0.24621-1.7727 1.3788-2.2816 2.1831-2.2816 1.2146 0 2.0846 1.0669 1.9369 2.2816z"/>
   <path d="m87.944 264.12v10.242h1.0833v-7.6654l2.0682 4.0543h0.42677l2.2159-4.12v7.7311h1.0833v-10.242h-0.85354l-2.577 5.0063-2.5442-5.0063z"/>
   <path d="m96.972 267.74 0.5745 0.75505c0.62374-0.64015 1.4609-0.83712 2.1667-0.83712 0.88637 0 1.3295 0.37752 1.5429 0.72222 0.24622 0.41035 0.2298 0.90278 0.2298 1.2967v0.26263h-0.2298c-1.1162 0-2.298 0-3.25 0.34469-1.1818 0.42677-1.7071 1.3131-1.7071 2.1338 0 1.0998 0.95202 2.1338 2.5114 2.1338 0.91919 0 1.8712-0.3447 2.6919-1.0177v0.82071h1.1162v-4.6452c0-0.60733-0.0164-1.1818-0.36111-1.7727-0.49243-0.8043-1.4444-1.2311-2.6099-1.2311-1.0013 0-1.9697 0.31187-2.6755 1.0341zm4.5631 3.1023v0.50884c0 0.37752 0 0.86995-0.50884 1.4116-0.27904 0.27905-0.98485 0.88637-1.9697 0.88637-1.0013 0-1.5758-0.64015-1.5758-1.2967 0-0.55808 0.37752-1.1654 1.3131-1.3952 0.6894-0.16415 1.6907-0.1149 2.4785-0.1149z"/>
   <path d="m104.82 274.35h1.1982v-4.3169c0-0.49242 0.0657-0.86995 0.37753-1.2803 0.27904-0.37753 1.0013-1.0505 1.7891-1.0505 0.37753 0 0.75506 0.16414 1.0177 0.47601 0.41036 0.49243 0.41036 1.1326 0.41036 1.6578v4.5139h1.1654v-4.5467c0-0.57449 0-1.1982-0.26262-1.8056-0.37753-0.83712-1.149-1.3131-2.0025-1.3131-1.0177 0-1.9369 0.65657-2.495 1.4937v-1.3131h-1.1982z"/>
   <path d="m113.39 267.74 0.57449 0.75505c0.62374-0.64015 1.4609-0.83712 2.1667-0.83712 0.88637 0 1.3296 0.37752 1.5429 0.72222 0.24621 0.41035 0.22979 0.90278 0.22979 1.2967v0.26263h-0.22979c-1.1162 0-2.298 0-3.25 0.34469-1.1818 0.42677-1.7071 1.3131-1.7071 2.1338 0 1.0998 0.95202 2.1338 2.5114 2.1338 0.9192 0 1.8712-0.3447 2.6919-1.0177v0.82071h1.1162v-4.6452c0-0.60733-0.0164-1.1818-0.36111-1.7727-0.49243-0.8043-1.4444-1.2311-2.6098-1.2311-1.0013 0-1.9697 0.31187-2.6755 1.0341zm4.5631 3.1023v0.50884c0 0.37752 0 0.86995-0.50884 1.4116-0.27904 0.27905-0.98485 0.88637-1.9697 0.88637-1.0013 0-1.5758-0.64015-1.5758-1.2967 0-0.55808 0.37752-1.1654 1.3131-1.3952 0.68939-0.16415 1.6907-0.1149 2.4785-0.1149z"/>
   <path d="m122.17 269.2c0-0.90278 0.75505-1.6414 1.6578-1.6414 0.91919 0 1.6578 0.73864 1.6578 1.6414s-0.73864 1.6414-1.6578 1.6414c-0.9192 0-1.6578-0.73864-1.6578-1.6414zm1.7235-2.577c-1.4937 0-2.7904 1.1818-2.7904 2.6427 0 0.8207 0.41035 1.5922 1.0998 2.0354-0.54167 0.4596-0.85354 0.96844-0.85354 1.4444 0 0.31187 0.13131 0.75505 0.60732 1.0013-0.80429 0.50884-1.2146 1.0669-1.2146 1.6578 0 0.8207 0.75506 1.7891 3.3813 1.7891 2.5442 0 3.4634-1.2967 3.4634-2.298 0-0.65657-0.37752-1.3131-1.1654-1.625-0.78788-0.32828-1.6907-0.21338-2.5442-0.21338-0.55808 0-0.91919-0.0492-1.0669-0.0985-0.29546-0.0821-0.4596-0.26262-0.4596-0.49242 0-0.39394 0.4596-0.77147 0.54167-0.83712 0.29546 0.1149 0.62374 0.16414 0.95202 0.16414 1.4773 0 2.6919-1.1818 2.6919-2.5606 0-0.4596-0.13132-0.90278-0.37753-1.2803 0.39394-0.2298 0.85354-0.36111 1.3131-0.36111 0.14773 0 0.27905 0.0164 0.42677 0.0492l-0.13131-0.96843c-0.75505-0.0657-1.5101 0.18055-2.0846 0.65656-0.47601-0.45959-1.0998-0.70581-1.7892-0.70581zm-1.1326 7.3371c0.27904 0.0328 0.67298 0.0657 1.2475 0.0985 0.55809 0.0164 1.1654-0.0328 1.5922 0.0328 0.68939 0.1149 0.90278 0.54167 0.90278 0.86995 0 0.32829-0.19697 0.72223-0.70581 1.0013-0.55808 0.29545-1.1818 0.32828-1.6907 0.32828-0.3447 0-0.98485-0.0164-1.5429-0.24621-0.60733-0.24621-0.73864-0.65657-0.73864-0.9192 0-0.54166 0.50884-0.9356 0.93561-1.1654z"/>
   <path d="m132.56 266.68c-1.7892 0-3.447 1.2803-3.447 4.0051 0 2.5114 1.5594 3.8409 3.5947 3.8409 1.0833 0 2.0518-0.39394 2.6919-1.1654l-0.65657-0.64015c-0.47601 0.55808-1.1982 0.85353-1.9369 0.85353-1.0013 0-2.4621-0.55808-2.5442-2.8068h5.3182c0.0493-0.50884 0.0328-1.0013-0.0492-1.428-0.3447-2.019-1.7399-2.6591-2.971-2.6591zm-2.2652 3.1844c0.24621-1.7727 1.3788-2.2816 2.1831-2.2816 1.2146 0 2.0846 1.0669 1.9369 2.2816z"/>
   <path d="m138.15 266.87v7.5013h1.1818v-3.6439c0-0.4596 0.0164-0.95202 0.52526-1.7563 0.68939-1.0833 1.5758-1.2639 2.1174-1.2639 0.62374 0 1.0177 0.29545 1.2311 0.55808 0.0985 0.13131 0.14772 0.26263 0.27904 0.37753l0.55808-1.1326c-0.47601-0.49243-1.1654-0.82071-2.0025-0.82071-1.0998 0-2.2159 0.55808-2.7083 1.625l0.0492-1.4444z"/>
  </g>
  <g transform="translate(-38.368 -15.31)" aria-label="Renderer">
   <path d="m189.65 255.92v10.226h1.149v-4.5139h1.9861l2.2652 4.5139h1.2967l-2.3636-4.5467c1.2311-0.3447 2.0846-1.5101 2.0846-2.8725 0-1.0177-0.50884-1.9861-1.4609-2.4621-0.64015-0.32828-1.2803-0.34469-1.9533-0.34469zm1.149 1.0833h1.8548c0.42676 0 0.83712 0.0164 1.2639 0.21339 0.64015 0.32828 0.96843 0.98485 0.96843 1.6414 0 0.65657-0.31187 1.2639-0.90278 1.5594-0.39394 0.19697-0.78788 0.21338-1.1982 0.21338h-1.9861z"/>
   <path d="m201.17 258.48c-1.7891 0-3.447 1.2803-3.447 4.005 0 2.5114 1.5594 3.8409 3.5947 3.8409 1.0833 0 2.0518-0.39394 2.6919-1.1654l-0.65656-0.64015c-0.47602 0.55808-1.1982 0.85354-1.9369 0.85354-1.0013 0-2.4621-0.55808-2.5442-2.8068h5.3182c0.0492-0.50884 0.0328-1.0013-0.0492-1.428-0.3447-2.0189-1.7399-2.6591-2.971-2.6591zm-2.2652 3.1844c0.24621-1.7727 1.3788-2.2816 2.1831-2.2816 1.2146 0 2.0846 1.0669 1.9369 2.2816z"/>
   <path d="m206.26 266.14h1.1982v-4.3169c0-0.49243 0.0657-0.86995 0.37752-1.2803 0.27905-0.37752 1.0013-1.0505 1.7892-1.0505 0.37752 0 0.75505 0.16415 1.0177 0.47602 0.41035 0.49242 0.41035 1.1326 0.41035 1.6578v4.5139h1.1654v-4.5467c0-0.5745 0-1.1982-0.26263-1.8056-0.37752-0.83712-1.149-1.3131-2.0025-1.3131-1.0177 0-1.9369 0.65656-2.495 1.4937v-1.3131h-1.1982z"/>
   <path d="m219.44 259.74c-0.36111-0.77147-1.1654-1.2803-2.1995-1.2803-1.428 0-3.1679 1.0177-3.1679 3.8738 0 2.774 1.5429 3.9886 2.9874 3.9886 0.95202 0 1.8384-0.54167 2.3144-1.3788v0.65657c0 0.18055 0.0164 0.36111 0.0657 0.54166h1.1818c-0.0657-0.21338-0.0657-0.45959-0.0657-0.68939l-0.0164-9.75c0-0.0985 0-0.13131 0.0657-0.2298 0.0328-0.0492 0.0985-0.13131 0.0821-0.24621h-1.2475zm-2.1502-0.31187c0.65656 0 1.625 0.3447 1.9205 1.4609 0.0985 0.3447 0.13131 0.75505 0.13131 1.5922 0 0.5745-0.0328 0.98485-0.16414 1.3788-0.27904 0.88637-1.0669 1.4116-1.8384 1.4116-0.85354 0-2.1174-0.65656-2.1174-3.1187 0-2.1503 1.1982-2.7248 2.0682-2.7248z"/>
   <path d="m225.79 258.48c-1.7892 0-3.447 1.2803-3.447 4.005 0 2.5114 1.5594 3.8409 3.5947 3.8409 1.0833 0 2.0518-0.39394 2.6919-1.1654l-0.65657-0.64015c-0.47601 0.55808-1.1982 0.85354-1.9369 0.85354-1.0013 0-2.4621-0.55808-2.5442-2.8068h5.3182c0.0492-0.50884 0.0328-1.0013-0.0493-1.428-0.3447-2.0189-1.7399-2.6591-2.971-2.6591zm-2.2652 3.1844c0.24621-1.7727 1.3788-2.2816 2.1831-2.2816 1.2146 0 2.0846 1.0669 1.9369 2.2816z"/>
   <path d="m231.39 258.66v7.5013h1.1818v-3.644c0-0.45959 0.0164-0.95202 0.52525-1.7563 0.6894-1.0833 1.5758-1.2639 2.1174-1.2639 0.62374 0 1.0177 0.29546 1.2311 0.55809 0.0985 0.13131 0.14773 0.26262 0.27904 0.37752l0.55809-1.1326c-0.47601-0.49242-1.1654-0.8207-2.0025-0.8207-1.0998 0-2.2159 0.55808-2.7083 1.625l0.0492-1.4444z"/>
   <path d="m242.21 258.48c-1.7891 0-3.447 1.2803-3.447 4.005 0 2.5114 1.5594 3.8409 3.5947 3.8409 1.0833 0 2.0518-0.39394 2.6919-1.1654l-0.65656-0.64015c-0.47602 0.55808-1.1982 0.85354-1.9369 0.85354-1.0013 0-2.4621-0.55808-2.5442-2.8068h5.3182c0.0492-0.50884 0.0328-1.0013-0.0492-1.428-0.3447-2.0189-1.7399-2.6591-2.971-2.6591zm-2.2652 3.1844c0.24621-1.7727 1.3788-2.2816 2.1831-2.2816 1.2146 0 2.0846 1.0669 1.9369 2.2816z"/>
   <path d="m247.8 258.66v7.5013h1.1818v-3.644c0-0.45959 0.0164-0.95202 0.52526-1.7563 0.68939-1.0833 1.5758-1.2639 2.1174-1.2639 0.62374 0 1.0177 0.29546 1.2311 0.55809 0.0985 0.13131 0.14772 0.26262 0.27904 0.37752l0.55808-1.1326c-0.47601-0.49242-1.1654-0.8207-2.0025-0.8207-1.0998 0-2.2159 0.55808-2.7083 1.625l0.0492-1.4444z"/>
  </g>
  <g transform="translate(-38.368 -15.31)" aria-label="Profiler">
   <path d="m294.73 255.92v10.226h1.1982v-4.5139h2.0025c0.64016 0 1.2475-0.0164 1.8712-0.32829 0.95202-0.47601 1.4444-1.4609 1.4444-2.495s-0.49243-2.0354-1.4609-2.5278c-0.64016-0.3447-1.2803-0.36111-1.9369-0.36111zm1.1982 1.0833h1.9204c0.42677 0 0.83713 0.0164 1.2639 0.21339 0.62374 0.32828 0.96844 0.98485 0.96844 1.6414 0 0.65657-0.32828 1.2639-0.91919 1.5594-0.39394 0.19697-0.78788 0.21338-1.1818 0.21338h-2.0682z"/>
   <path d="m303.61 258.66v7.5013h1.1818v-3.644c0-0.45959 0.0164-0.95202 0.52525-1.7563 0.6894-1.0833 1.5758-1.2639 2.1174-1.2639 0.62374 0 1.0177 0.29546 1.2311 0.55809 0.0985 0.13131 0.14773 0.26262 0.27904 0.37752l0.55809-1.1326c-0.47602-0.49242-1.1654-0.8207-2.0025-0.8207-1.0998 0-2.2159 0.55808-2.7083 1.625l0.0492-1.4444z"/>
   <path d="m317.75 262.43c0-2.5934-1.6414-3.9394-3.3485-3.9394-1.904 0-3.5455 1.6414-3.5455 3.9722 0 2.2816 1.625 3.8902 3.5126 3.8902 1.7727 0 3.3813-1.428 3.3813-3.923zm-3.4306-2.9381c1.0833 0 2.2323 0.93561 2.2323 2.9874 0 1.8876-1.0833 2.8397-2.1667 2.8397-1.1982 0-2.2816-1.1162-2.2816-2.971 0-1.8384 1.0669-2.8561 2.2159-2.8561z"/>
   <path d="m324.03 255.15c-1.0505 0-2.0354 0.44318-2.5606 1.2967-0.39394 0.62374-0.41036 1.2475-0.41036 1.9205v0.73863h-1.6414v0.93561h1.6414v6.1061h1.1326v-6.1061h2.4457v-0.93561h-2.4457v-0.59091c0-0.54166-0.0164-1.1162 0.26263-1.6086 0.31187-0.55809 0.90278-0.83713 1.5101-0.83713 0.72222 0 1.3296 0.37753 1.6414 0.85354 0.0492 0.0821 0.0492 0.13131 0.0492 0.19697 0 0.1149 0.0821 0.14773 0.13131 0.14773l0.54167-1.0998c-0.54167-0.64015-1.3624-1.0177-2.298-1.0177z"/>
   <path d="m328.35 258.64v0.96843h1.8056v5.5972h-1.904v0.9356h4.8586v-0.9356h-1.7563v-6.5657zm2.4293-3.25c-0.47601 0-0.85354 0.37753-0.85354 0.83712 0 0.4596 0.37753 0.83713 0.85354 0.83713s0.85354-0.37753 0.85354-0.83713c0-0.45959-0.37753-0.83712-0.85354-0.83712z"/>
   <path d="m336.19 255.24v0.95203h2.1338v9.0114h-2.2323v0.9356h5.6301v-0.9356h-2.2159v-9.9634z"/>
   <path d="m347.26 258.48c-1.7891 0-3.447 1.2803-3.447 4.005 0 2.5114 1.5594 3.8409 3.5947 3.8409 1.0833 0 2.0518-0.39394 2.6919-1.1654l-0.65656-0.64015c-0.47602 0.55808-1.1982 0.85354-1.9369 0.85354-1.0013 0-2.4621-0.55808-2.5442-2.8068h5.3182c0.0492-0.50884 0.0328-1.0013-0.0492-1.428-0.3447-2.0189-1.7399-2.6591-2.971-2.6591zm-2.2652 3.1844c0.24621-1.7727 1.3788-2.2816 2.1831-2.2816 1.2146 0 2.0846 1.0669 1.9369 2.2816z"/>
   <path d="m352.86 258.66v7.5013h1.1818v-3.644c0-0.45959 0.0164-0.95202 0.52526-1.7563 0.68939-1.0833 1.5758-1.2639 2.1174-1.2639 0.62374 0 1.0177 0.29546 1.2311 0.55809 0.0985 0.13131 0.14772 0.26262 0.27904 0.37752l0.55808-1.1326c-0.47601-0.49242-1.1654-0.8207-2.0025-0.8207-1.0998 0-2.2159 0.55808-2.7083 1.625l0.0492-1.4444z"/>
  </g>
  <g transform="translate(-38.368 -15.31)" aria-label="Physics">
   <path d="m405.04 255.92v10.226h1.1982v-4.5139h2.0025c0.64015 0 1.2475-0.0164 1.8712-0.32829 0.95202-0.47601 1.4444-1.4609 1.4444-2.495s-0.49243-2.0354-1.4609-2.5278c-0.64015-0.3447-1.2803-0.36111-1.9369-0.36111zm1.1982 1.0833h1.9205c0.42676 0 0.83712 0.0164 1.2639 0.21339 0.62374 0.32828 0.96843 0.98485 0.96843 1.6414 0 0.65657-0.32828 1.2639-0.91919 1.5594-0.39394 0.19697-0.78788 0.21338-1.1818 0.21338h-2.0682z"/>
   <path d="m413.42 266.14h1.2146v-4.3169c0-0.49243 0.0493-0.86995 0.36112-1.2803 0.29545-0.37752 1.0177-1.0505 1.8056-1.0505 0.37753 0 0.75506 0.16415 1.0177 0.47602 0.41036 0.49242 0.41036 1.1326 0.41036 1.6578v4.5139h1.1654v-4.5467c0-0.5745-0.0164-1.1982-0.27904-1.8056-0.37752-0.83712-1.1326-1.3131-1.9861-1.3131-1.0177 0-1.9533 0.65656-2.495 1.4937v-4.3498c0-0.0492 0-0.0985 0.0493-0.14773 0.0492-0.0492 0.1149-0.0985 0.1149-0.18055 0-0.0164 0-0.0328-0.0164-0.0493h-1.3624z"/>
   <path d="m421.24 258.66 3.053 7.4684-0.24622 0.54167c-0.13131 0.31187-0.27904 0.62374-0.50884 0.86995-0.31187 0.3447-0.70581 0.49242-1.0505 0.49242-0.55808 0-0.83713-0.37752-0.88637-0.44318-0.0492-0.0821-0.0328-0.19697-0.13131-0.27904l-0.60733 1.0669c0.42677 0.41036 1.0013 0.62374 1.625 0.62374 0.67298 0 1.3788-0.24621 1.8712-0.80429 0.32829-0.37753 0.49243-0.77147 0.65657-1.1982l2.3308-6.1881c0.27904-0.70581 0.52526-1.428 0.75505-2.1667h-1.2311c-0.13131 0.68939-0.3447 1.346-0.5745 2.0025l-1.428 4.0215-2.1995-5.5316c-0.0164-0.0492-0.0164-0.0821-0.0164-0.13131 0-0.1149 0.0821-0.19697 0.0657-0.3447z"/>
   <path d="m435.8 259.64c-0.68939-0.75505-1.6907-1.1654-2.8068-1.1654-1.7399 0-2.8725 0.96843-2.8725 2.0846 0 1.3131 1.4116 1.7891 1.822 1.9369 0.64015 0.2298 1.4609 0.42677 2.0189 0.68939 0.62374 0.29546 0.73864 0.6894 0.73864 0.95203 0 0.7058-0.85354 1.1818-1.9205 1.1818-1.2803 0-2.101-0.77147-2.3472-1.0341-0.0492-0.0657-0.0492-0.1149-0.0492-0.18055 0-0.0164 0.0164-0.1149-0.0657-0.14773l-0.6894 1.1654c0.88637 0.8207 2.0354 1.1982 3.1679 1.1982 2.0518 0 3.1187-1.2146 3.1187-2.3472 0-0.50884-0.21338-1.1982-1.0998-1.6907-0.83712-0.47601-2.0518-0.64015-2.7576-0.98485-0.60732-0.29545-0.73864-0.65656-0.73864-0.91919 0-0.59091 0.73864-1.0177 1.5758-1.0177 1.0833 0 1.8056 0.65657 2.0846 1.0341 0.0492 0.0492 0.0328 0.0985 0.0328 0.14773 0 0.0985 0.0657 0.13132 0.0985 0.13132z"/>
   <path d="m438.65 258.64v0.96843h1.8056v5.5972h-1.904v0.9356h4.8586v-0.9356h-1.7563v-6.5657zm2.4293-3.25c-0.47601 0-0.85353 0.37753-0.85353 0.83712 0 0.4596 0.37752 0.83713 0.85353 0.83713s0.85354-0.37753 0.85354-0.83713c0-0.45959-0.37753-0.83712-0.85354-0.83712z"/>
   <path d="m452.6 259.89c-0.59091-0.86996-1.5922-1.3952-2.8068-1.3952-2.1995 0-3.7588 1.6578-3.7588 3.9066 0 2.2652 1.5594 3.9394 3.6932 3.9394 1.0341 0 2.0518-0.42676 2.7576-1.1982l-0.67298-0.78788c-0.50884 0.5745-1.2475 0.90278-1.9861 0.90278-1.4609 0-2.577-1.2146-2.577-2.971 0-1.7071 1.0998-2.774 2.4785-2.774 1.2803 0 1.8876 0.88636 1.9369 0.98485 0.0657 0.1149-0.0328 0.27904 0.0985 0.37753z"/>
   <path d="m460.42 259.64c-0.6894-0.75505-1.6907-1.1654-2.8068-1.1654-1.7399 0-2.8725 0.96843-2.8725 2.0846 0 1.3131 1.4116 1.7891 1.822 1.9369 0.64015 0.2298 1.4609 0.42677 2.0189 0.68939 0.62374 0.29546 0.73864 0.6894 0.73864 0.95203 0 0.7058-0.85354 1.1818-1.9205 1.1818-1.2803 0-2.101-0.77147-2.3472-1.0341-0.0492-0.0657-0.0492-0.1149-0.0492-0.18055 0-0.0164 0.0164-0.1149-0.0657-0.14773l-0.6894 1.1654c0.88637 0.8207 2.0354 1.1982 3.1679 1.1982 2.0518 0 3.1187-1.2146 3.1187-2.3472 0-0.50884-0.21339-1.1982-1.0998-1.6907-0.83712-0.47601-2.0518-0.64015-2.7576-0.98485-0.60733-0.29545-0.73864-0.65656-0.73864-0.91919 0-0.59091 0.73864-1.0177 1.5758-1.0177 1.0833 0 1.8056 0.65657 2.0846 1.0341 0.0492 0.0492 0.0328 0.0985 0.0328 0.14773 0 0.0985 0.0657 0.13132 0.0985 0.13132z"/>
  </g>
  <g transform="translate(-38.368 -15.31)" aria-label="Scene graph">
   <path d="m500.5 257.15c-0.68939-0.83712-1.7071-1.2803-2.8232-1.2803-1.8548 0-3.1187 1.2146-3.1187 2.6263 0 0.59091 0.2298 1.3624 1.0833 1.9861 0.95202 0.7058 2.4293 1.0505 3.2008 1.5429 0.67298 0.41035 0.85354 0.95202 0.85354 1.4116 0 0.88636-0.75505 1.8548-2.2323 1.8548-1.1162 0-1.9861-0.55808-2.4457-1.1326-0.0492-0.0657-0.0492-0.0985-0.0492-0.16414 0-0.0328 0-0.13132-0.0657-0.16414l-0.6894 1.1818c0.8043 0.86995 1.9533 1.3131 3.2172 1.3131 2.495 0 3.4142-1.6742 3.4142-2.9546 0-0.54167-0.16414-1.2475-0.80429-1.8548-0.88637-0.83712-2.3308-1.1326-3.2664-1.6742-0.85354-0.50884-1.0341-1.1162-1.0341-1.5265 0-0.78788 0.67298-1.4937 1.8384-1.4937 0.95202 0 1.6907 0.42676 2.0846 1.0013 0.0492 0.0657 0.0328 0.0985 0.0328 0.16414 0 0.0985 0.0492 0.13131 0.0821 0.13131z"/>
   <path d="m509.07 259.89c-0.59091-0.86996-1.5922-1.3952-2.8068-1.3952-2.1995 0-3.7588 1.6578-3.7588 3.9066 0 2.2652 1.5594 3.9394 3.6932 3.9394 1.0341 0 2.0518-0.42676 2.7576-1.1982l-0.67298-0.78788c-0.50884 0.5745-1.2475 0.90278-1.9861 0.90278-1.4609 0-2.577-1.2146-2.577-2.971 0-1.7071 1.0998-2.774 2.4785-2.774 1.2803 0 1.8876 0.88636 1.9369 0.98485 0.0657 0.1149-0.0328 0.27904 0.0985 0.37753z"/>
   <path d="m514.03 258.48c-1.7892 0-3.447 1.2803-3.447 4.005 0 2.5114 1.5594 3.8409 3.5947 3.8409 1.0833 0 2.0518-0.39394 2.6919-1.1654l-0.65657-0.64015c-0.47601 0.55808-1.1982 0.85354-1.9369 0.85354-1.0013 0-2.4621-0.55808-2.5442-2.8068h5.3182c0.0492-0.50884 0.0328-1.0013-0.0493-1.428-0.34469-2.0189-1.7399-2.6591-2.971-2.6591zm-2.2652 3.1844c0.24622-1.7727 1.3788-2.2816 2.1831-2.2816 1.2146 0 2.0846 1.0669 1.9369 2.2816z"/>
   <path d="m519.11 266.14h1.1982v-4.3169c0-0.49243 0.0657-0.86995 0.37752-1.2803 0.27904-0.37752 1.0013-1.0505 1.7892-1.0505 0.37752 0 0.75505 0.16415 1.0177 0.47602 0.41035 0.49242 0.41035 1.1326 0.41035 1.6578v4.5139h1.1654v-4.5467c0-0.5745 0-1.1982-0.26263-1.8056-0.37753-0.83712-1.149-1.3131-2.0025-1.3131-1.0177 0-1.9369 0.65656-2.495 1.4937v-1.3131h-1.1982z"/>
   <path d="m530.44 258.48c-1.7891 0-3.447 1.2803-3.447 4.005 0 2.5114 1.5594 3.8409 3.5947 3.8409 1.0833 0 2.0518-0.39394 2.6919-1.1654l-0.65657-0.64015c-0.47601 0.55808-1.1982 0.85354-1.9369 0.85354-1.0013 0-2.4621-0.55808-2.5442-2.8068h5.3182c0.0492-0.50884 0.0328-1.0013-0.0492-1.428-0.3447-2.0189-1.7399-2.6591-2.971-2.6591zm-2.2652 3.1844c0.24622-1.7727 1.3788-2.2816 2.1831-2.2816 1.2146 0 2.0846 1.0669 1.9369 2.2816z"/>
   <path d="m544.67 260.99c0-0.90277 0.75505-1.6414 1.6578-1.6414 0.91919 0 1.6578 0.73864 1.6578 1.6414 0 0.90278-0.73864 1.6414-1.6578 1.6414s-1.6578-0.73864-1.6578-1.6414zm1.7235-2.577c-1.4937 0-2.7904 1.1818-2.7904 2.6427 0 0.82071 0.41035 1.5922 1.0998 2.0354-0.54167 0.4596-0.85354 0.96843-0.85354 1.4444 0 0.31186 0.13131 0.75505 0.60732 1.0013-0.80429 0.50884-1.2146 1.0669-1.2146 1.6578 0 0.82071 0.75505 1.7892 3.3813 1.7892 2.5442 0 3.4634-1.2967 3.4634-2.298 0-0.65656-0.37753-1.3131-1.1654-1.625-0.78788-0.32828-1.6907-0.21339-2.5442-0.21339-0.55808 0-0.91919-0.0492-1.0669-0.0985-0.29545-0.0821-0.4596-0.26263-0.4596-0.49243 0-0.39394 0.4596-0.77146 0.54167-0.83712 0.29546 0.1149 0.62374 0.16414 0.95202 0.16414 1.4773 0 2.6919-1.1818 2.6919-2.5606 0-0.45959-0.13132-0.90278-0.37753-1.2803 0.39394-0.2298 0.85354-0.36111 1.3131-0.36111 0.14772 0 0.27904 0.0164 0.42676 0.0492l-0.13131-0.96844c-0.75505-0.0657-1.5101 0.18056-2.0846 0.65657-0.47601-0.4596-1.0998-0.70581-1.7891-0.70581zm-1.1326 7.3371c0.27904 0.0328 0.67298 0.0657 1.2475 0.0985 0.55808 0.0164 1.1654-0.0328 1.5922 0.0328 0.6894 0.1149 0.90278 0.54167 0.90278 0.86995s-0.19697 0.72222-0.70581 1.0013c-0.55808 0.29546-1.1818 0.32829-1.6907 0.32829-0.3447 0-0.98485-0.0164-1.5429-0.24622-0.60733-0.24621-0.73864-0.65656-0.73864-0.91919 0-0.54167 0.50884-0.93561 0.93561-1.1654z"/>
   <path d="m552.45 258.66v7.5013h1.1818v-3.644c0-0.45959 0.0164-0.95202 0.52525-1.7563 0.68939-1.0833 1.5758-1.2639 2.1174-1.2639 0.62374 0 1.0177 0.29546 1.2311 0.55809 0.0985 0.13131 0.14773 0.26262 0.27904 0.37752l0.55808-1.1326c-0.47601-0.49242-1.1654-0.8207-2.0025-0.8207-1.0998 0-2.2159 0.55808-2.7083 1.625l0.0492-1.4444z"/>
   <path d="m560.51 259.53 0.5745 0.75506c0.62374-0.64016 1.4609-0.83713 2.1667-0.83713 0.88636 0 1.3296 0.37753 1.5429 0.72223 0.24621 0.41035 0.2298 0.90278 0.2298 1.2967v0.26262h-0.2298c-1.1162 0-2.298 0-3.25 0.3447-1.1818 0.42677-1.7071 1.3131-1.7071 2.1338 0 1.0998 0.95202 2.1338 2.5114 2.1338 0.91919 0 1.8712-0.34469 2.6919-1.0177v0.8207h1.1162v-4.6452c0-0.60732-0.0164-1.1818-0.36112-1.7727-0.49242-0.80429-1.4444-1.2311-2.6098-1.2311-1.0013 0-1.9697 0.31187-2.6755 1.0341zm4.5631 3.1023v0.50884c0 0.37753 0 0.86995-0.50884 1.4116-0.27904 0.27904-0.98485 0.88636-1.9697 0.88636-1.0013 0-1.5758-0.64015-1.5758-1.2967 0-0.55809 0.37753-1.1654 1.3131-1.3952 0.6894-0.16414 1.6907-0.1149 2.4785-0.1149z"/>
   <path d="m568.21 258.66 0.0164 10.226h1.1982v-3.726c0.50884 0.73864 1.346 1.1982 2.2487 1.1982 1.5429 0 3.1515-1.2967 3.1515-4.0379 0-2.6427-1.5594-3.8245-3.0366-3.8245-0.96844 0-1.8712 0.49243-2.3801 1.3131v-1.149zm3.1351 0.83712c0.65657 0 2.2488 0.3447 2.2488 3.0695 0 2.3636-1.5429 2.7412-2.2488 2.7412s-1.428-0.36111-1.7235-1.0341c-0.21339-0.50884-0.21339-1.1326-0.21339-2.2159 0-0.62374 0.0328-1.0833 0.19697-1.4773 0.29546-0.67298 0.98485-1.0833 1.7399-1.0833z"/>
   <path d="m576.58 266.14h1.2146v-4.3169c0-0.49243 0.0492-0.86995 0.36111-1.2803 0.29546-0.37752 1.0177-1.0505 1.8056-1.0505 0.37753 0 0.75505 0.16415 1.0177 0.47602 0.41036 0.49242 0.41036 1.1326 0.41036 1.6578v4.5139h1.1654v-4.5467c0-0.5745-0.0164-1.1982-0.27904-1.8056-0.37752-0.83712-1.1326-1.3131-1.9861-1.3131-1.0177 0-1.9533 0.65656-2.495 1.4937v-4.3498c0-0.0492 0-0.0985 0.0492-0.14773 0.0492-0.0492 0.1149-0.0985 0.1149-0.18055 0-0.0164 0-0.0328-0.0164-0.0493h-1.3624z"/>
  </g>
 </g>
 <g transform="translate(-38.368 -15.31)" fill="#6fbde9" stroke-width="2.6263px" aria-label="GAME">
  <path d="m319.7 43.173c-1.3624 0-3.9558 0.85354-3.9558 5.3346 0 3.8737 2.1667 5.154 3.9394 5.154 0.95203 0 2.0518-0.3447 3.0038-1.0669v-3.9886h-2.9053v0.98485h1.8548v2.4457c-0.5745 0.41035-1.2311 0.62374-1.8384 0.62374-0.67298 0-1.3952-0.26263-1.9533-0.90278-0.85354-0.96844-0.96844-2.4129-0.96844-3.4798 0-0.95202 0.1149-1.8712 0.50884-2.6263 0.52525-1.0013 1.4444-1.4609 2.298-1.4609 0.9192 0 1.6414 0.50884 1.9533 1.1982 0.0492 0.1149 0.0985 0.24621 0.2298 0.32828l0.80429-0.82071c-0.59091-1.0669-1.7071-1.7235-2.971-1.7235z"/>
  <path d="m323.59 53.514h1.1326l1.0013-3.0038h3.2336l1.1326 2.9874h1.1982l-3.9558-10.407h-0.13132zm5.1212-3.8902h-2.774l1.3296-3.8902z"/>
  <path d="m332.22 43.271v10.242h1.0833v-7.6654l2.0682 4.0543h0.42677l2.2159-4.12v7.7311h1.0833v-10.242h-0.85354l-2.577 5.0063-2.5442-5.0063z"/>
  <path d="m340.72 43.271v10.226h6.2374v-1.0177h-5.1376v-3.7917h4.2677v-1.0505h-4.2677v-3.3485h5.1705v-1.0177z"/>
 </g>
</svg>
