<svg version="1.1" viewBox="0 0 1285.1 626.56" xmlns="http://www.w3.org/2000/svg">
 <rect x="10.867" y="39.751" width="142.69" height="56.035" fill="#3b390d" fill-opacity=".38431" stroke="#e9e56f" stroke-width="1.733"/>
 <g fill="none" stroke="#b62a2a" stroke-width="5.7768">
  <path d="m472.1 67.226h101.04"/>
  <path d="m472.1 226.48h101.04"/>
  <path d="m472.1 385.45h101.04"/>
  <path d="m472.1 545.06h101.04"/>
 </g>
 <g fill="#3b390d" fill-opacity=".38431" stroke="#e9e56f" stroke-width="1.733">
  <rect x="213.13" y="10.867" width="258.15" height="113.8"/>
  <rect x="329.31" y="199.11" width="142.69" height="56.035"/>
  <g stroke-linecap="round">
   <circle cx="646.31" cy="68.635" r="57.768"/>
   <circle cx="646.31" cy="224.61" r="57.768"/>
   <circle cx="646.31" cy="542.33" r="57.768"/>
  </g>
 </g>
 <g>
  <g fill="#e9e56f" stroke-width="5.7768px" aria-label="Synth">
   <path d="m52.64 57.015c-1.5164-1.8414-3.7549-2.8162-6.2101-2.8162-4.0799 0-6.8599 2.6718-6.8599 5.7768 0 1.2998 0.50547 2.9967 2.3829 4.3687 2.0941 1.5525 5.3435 2.3107 7.0405 3.3939 1.4803 0.90262 1.8775 2.0941 1.8775 3.105 0 1.9497-1.6608 4.0799-4.9103 4.0799-2.4551 0-4.3687-1.2276-5.3796-2.4912-0.10832-0.14442-0.10832-0.21663-0.10832-0.36105 0-0.07221 0-0.28884-0.14442-0.36105l-1.5164 2.5996c1.7691 1.9136 4.2965 2.8884 7.0766 2.8884 5.488 0 7.5098-3.6827 7.5098-6.4989 0-1.1915-0.36105-2.744-1.7691-4.0799-1.9497-1.8414-5.1269-2.4912-7.1849-3.6827-1.8775-1.1193-2.2746-2.4551-2.2746-3.3578 0-1.733 1.4803-3.2856 4.0438-3.2856 2.0941 0 3.7188 0.93873 4.5853 2.2024 0.10832 0.14442 0.07221 0.21663 0.07221 0.36105 0 0.21663 0.10832 0.28884 0.18052 0.28884z"/>
   <path d="m56.648 60.337 6.7155 16.428-0.54157 1.1915c-0.28884 0.686-0.61378 1.372-1.1193 1.9136-0.686 0.7582-1.5525 1.0832-2.3107 1.0832-1.2276 0-1.8414-0.83042-1.9497-0.97484-0.10832-0.18052-0.07221-0.43326-0.28884-0.61378l-1.3359 2.3468c0.93873 0.90262 2.2024 1.372 3.5744 1.372 1.4803 0 3.0328-0.54158 4.116-1.7691 0.7221-0.83042 1.0832-1.6969 1.4442-2.6357l5.1269-13.612c0.61378-1.5525 1.1554-3.1411 1.6608-4.7659h-2.7079c-0.28884 1.5164-0.7582 2.9606-1.2637 4.4048l-3.1411 8.8457-4.8381-12.167c-0.0361-0.10832-0.0361-0.18052-0.0361-0.28884 0-0.25273 0.18052-0.43326 0.14442-0.7582z"/>
   <path d="m75.531 76.801h2.6357v-9.4956c0-1.0832 0.14442-1.9136 0.83042-2.8162 0.61378-0.83042 2.2024-2.3107 3.9354-2.3107 0.83042 0 1.6608 0.36105 2.2385 1.047 0.90262 1.0831 0.90262 2.4912 0.90262 3.6466v9.9289h2.5635v-10.001c0-1.2637 0-2.6357-0.57768-3.9715-0.83042-1.8414-2.5273-2.8884-4.4048-2.8884-2.2385 0-4.2604 1.4442-5.488 3.2856v-2.8884h-2.6357z"/>
   <path d="m97.916 55.896-0.32494 4.4409h-3.9354l-0.03611 2.1302h3.8632c-0.21663 2.8162-0.32494 5.6324-0.32494 8.4125 0 1.4803 0 3.1411 0.97483 4.5131 0.79431 1.0832 2.058 1.733 3.7549 1.733 1.9497 0 3.8632-0.83041 5.2713-1.8414l-0.79431-2.058c-1.4081 1.047-2.7079 1.5164-3.7188 1.5164-1.2276 0-2.4912-0.68599-2.7801-2.6718 0-0.14442-0.10832-0.7582-0.10832-3.1772 0-2.1302 0.10832-4.2965 0.32494-6.4267h5.4158v-2.1663h-5.3796s0.25273-2.9606 0.43326-3.8993c0.0361-0.36105 0.32494-0.57768 0.18052-0.97483z"/>
   <path d="m111.67 76.801h2.6718v-9.4956c0-1.0832 0.10831-1.9136 0.79431-2.8162 0.64989-0.83042 2.2385-2.3107 3.9716-2.3107 0.83041 0 1.6608 0.36105 2.2385 1.047 0.90263 1.0831 0.90263 2.4912 0.90263 3.6466v9.9289h2.5634v-10.001c0-1.2637-0.0361-2.6357-0.61378-3.9715-0.83042-1.8414-2.4912-2.8884-4.3687-2.8884-2.2385 0-4.2965 1.4442-5.488 3.2856v-9.5678c0-0.10832 0-0.21663 0.10831-0.32494 0.10832-0.10832 0.25274-0.21663 0.25274-0.39716 0-0.0361 0-0.07221-0.0361-0.10832h-2.9967z"/>
  </g>
  <rect x="10.867" y="357.48" width="142.69" height="56.035" fill="#3b390d" fill-opacity=".38431" stroke="#e9e56f" stroke-width="1.733"/>
  <g fill="#e9e56f" stroke-width="5.7768px" aria-label=" Distance Attenuation">
   <path d="m268.71 32.221v22.53h4.8381c1.7691 0 3.2856-0.07221 4.8742-0.90262 3.2133-1.6608 4.9825-5.488 4.9825-10.398 0-4.3326-1.2998-8.1236-4.1882-10.001-1.6247-1.0831-3.2494-1.2276-5.2352-1.2276zm2.3829 2.1663h2.744c1.4081 0 2.8162 0.07221 4.2243 1.2276 2.0941 1.733 2.7801 4.9464 2.7801 8.1597 0 4.2965-1.4081 6.7516-3.2133 7.9792-1.4081 0.93873-2.8162 1.0109-4.2243 1.0109h-2.3107z"/>
   <path d="m288.67 38.214v2.1302h3.9715v12.312h-4.1882v2.058h10.687v-2.058h-3.8632v-14.442zm5.3435-7.1488c-1.047 0-1.8775 0.83042-1.8775 1.8414 0 1.0109 0.83042 1.8414 1.8775 1.8414 1.047 0 1.8775-0.83042 1.8775-1.8414 0-1.0109-0.83041-1.8414-1.8775-1.8414z"/>
   <path d="m318.5 40.417c-1.5164-1.6608-3.7188-2.5635-6.174-2.5635-3.8271 0-6.3184 2.1302-6.3184 4.5853 0 2.8884 3.105 3.9354 4.0076 4.2604 1.4081 0.50547 3.2134 0.93873 4.4409 1.5164 1.372 0.64989 1.6247 1.5164 1.6247 2.0941 0 1.5525-1.8775 2.5996-4.2243 2.5996-2.8162 0-4.6214-1.6969-5.163-2.2746-0.10831-0.14442-0.10831-0.25274-0.10831-0.39716 0-0.03611 0.0361-0.25274-0.14442-0.32494l-1.5164 2.5635c1.9497 1.8052 4.477 2.6357 6.9683 2.6357 4.5131 0 6.86-2.6718 6.86-5.163 0-1.1193-0.46937-2.6357-2.419-3.7188-1.8414-1.047-4.5131-1.4081-6.0656-2.1663-1.3359-0.64989-1.6247-1.4442-1.6247-2.0219 0-1.2998 1.6247-2.2385 3.4661-2.2385 2.3829 0 3.9716 1.4442 4.5853 2.2746 0.10831 0.10832 0.0722 0.21663 0.0722 0.32494 0 0.21663 0.14442 0.28884 0.21663 0.28884z"/>
   <path d="m327.74 33.81-0.32495 4.4409h-3.9354l-0.0361 2.1302h3.8632c-0.21663 2.8162-0.32495 5.6324-0.32495 8.4125 0 1.4803 0 3.1411 0.97484 4.5131 0.79431 1.0832 2.058 1.733 3.7549 1.733 1.9497 0 3.8632-0.83042 5.2713-1.8414l-0.7943-2.058c-1.4081 1.047-2.7079 1.5164-3.7188 1.5164-1.2276 0-2.4912-0.686-2.7801-2.6718 0-0.14442-0.10832-0.7582-0.10832-3.1772 0-2.1302 0.10832-4.2965 0.32495-6.4267h5.4158v-2.1663h-5.3796s0.25274-2.9606 0.43326-3.8993c0.0361-0.36105 0.32495-0.57768 0.18053-0.97484z"/>
   <path d="m342.25 40.164 1.2637 1.6608c1.372-1.4081 3.2133-1.8414 4.7658-1.8414 1.9497 0 2.9245 0.83042 3.3939 1.5886 0.54158 0.90262 0.50547 1.9858 0.50547 2.8523v0.57768h-0.50547c-2.4551 0-5.0547 0-7.1488 0.7582-2.5996 0.93873-3.7549 2.8884-3.7549 4.6936 0 2.419 2.0941 4.6936 5.5241 4.6936 2.0219 0 4.116-0.7582 5.9212-2.2385v1.8052h2.4551v-10.218c0-1.3359-0.0361-2.5996-0.79431-3.8993-1.0832-1.7691-3.1772-2.7079-5.7407-2.7079-2.2024 0-4.3326 0.686-5.8851 2.2746zm10.037 6.8238v1.1193c0 0.83041 0 1.9136-1.1193 3.105-0.61378 0.61378-2.1663 1.9497-4.3326 1.9497-2.2024 0-3.4661-1.4081-3.4661-2.8523 0-1.2276 0.83041-2.5635 2.8884-3.0689 1.5164-0.36105 3.7188-0.25274 5.4519-0.25274z"/>
   <path d="m359.51 54.714h2.6357v-9.4956c0-1.0832 0.14442-1.9136 0.83042-2.8162 0.61378-0.83041 2.2024-2.3107 3.9354-2.3107 0.83042 0 1.6608 0.36105 2.2385 1.047 0.90262 1.0831 0.90262 2.4912 0.90262 3.6466v9.9289h2.5635v-10.001c0-1.2637 0-2.6357-0.57768-3.9715-0.83042-1.8414-2.5274-2.8884-4.4048-2.8884-2.2385 0-4.2604 1.4442-5.488 3.2856v-2.8884h-2.6357z"/>
   <path d="m391.57 40.958c-1.2998-1.9136-3.5022-3.0689-6.174-3.0689-4.8381 0-8.268 3.6466-8.268 8.593 0 4.9825 3.43 8.6652 8.1236 8.6652 2.2746 0 4.5131-0.93873 6.0656-2.6357l-1.4803-1.733c-1.1192 1.2637-2.744 1.9858-4.3687 1.9858-3.2133 0-5.6685-2.6718-5.6685-6.535 0-3.7549 2.419-6.1017 5.4518-6.1017 2.8162 0 4.1521 1.9497 4.2604 2.1663 0.14442 0.25274-0.0722 0.61378 0.21663 0.83042z"/>
   <path d="m402.48 37.853c-3.9354 0-7.582 2.8162-7.582 8.8096 0 5.5241 3.43 8.4486 7.907 8.4486 2.3829 0 4.5131-0.86652 5.9212-2.5635l-1.4442-1.4081c-1.047 1.2276-2.6357 1.8775-4.2604 1.8775-2.2024 0-5.4158-1.2276-5.5963-6.174h11.698c0.10832-1.1193 0.0722-2.2024-0.10831-3.1411-0.75821-4.4409-3.8271-5.849-6.535-5.849zm-4.9825 7.0044c0.54157-3.8993 3.0328-5.0186 4.802-5.0186 2.6718 0 4.5853 2.3468 4.2604 5.0186z"/>
   <path d="m249.25 99.882h2.4912l2.2024-6.6072h7.1127l2.4912 6.5711h2.6357l-8.7013-22.891h-0.28884zm11.265-8.5569h-6.1017l2.9245-8.5569z"/>
   <path d="m273.58 78.941-0.32494 4.4409h-3.9354l-0.0361 2.1302h3.8632c-0.21663 2.8162-0.32494 5.6324-0.32494 8.4125 0 1.4803 0 3.1411 0.97483 4.5131 0.79431 1.0831 2.058 1.733 3.7549 1.733 1.9497 0 3.8632-0.83042 5.2713-1.8414l-0.79431-2.058c-1.4081 1.047-2.7079 1.5164-3.7188 1.5164-1.2276 0-2.4912-0.686-2.7801-2.6718 0-0.14442-0.10831-0.7582-0.10831-3.1772 0-2.1302 0.10831-4.2965 0.32494-6.4267h5.4158v-2.1663h-5.3796s0.25273-2.9606 0.43326-3.8993c0.0361-0.36105 0.32494-0.57768 0.18052-0.97484z"/>
   <path d="m291.63 78.941-0.32494 4.4409h-3.9354l-0.0361 2.1302h3.8632c-0.21663 2.8162-0.32494 5.6324-0.32494 8.4125 0 1.4803 0 3.1411 0.97483 4.5131 0.79431 1.0831 2.058 1.733 3.7549 1.733 1.9497 0 3.8632-0.83042 5.2713-1.8414l-0.79431-2.058c-1.4081 1.047-2.7079 1.5164-3.7188 1.5164-1.2276 0-2.4912-0.686-2.7801-2.6718 0-0.14442-0.10831-0.7582-0.10831-3.1772 0-2.1302 0.10831-4.2965 0.32494-6.4267h5.4158v-2.1663h-5.3796s0.25273-2.9606 0.43326-3.8993c0.0361-0.36105 0.32494-0.57768 0.18052-0.97484z"/>
   <path d="m312.21 82.985c-3.9354 0-7.582 2.8162-7.582 8.8096 0 5.5241 3.43 8.4486 7.907 8.4486 2.3829 0 4.5131-0.86652 5.9212-2.5635l-1.4442-1.4081c-1.047 1.2276-2.6357 1.8775-4.2604 1.8775-2.2024 0-5.4158-1.2276-5.5963-6.174h11.698c0.10832-1.1193 0.0722-2.2024-0.10831-3.1411-0.7582-4.4409-3.8271-5.849-6.535-5.849zm-4.9825 7.0044c0.54157-3.8993 3.0328-5.0186 4.802-5.0186 2.6718 0 4.5853 2.3468 4.2604 5.0186z"/>
   <path d="m323.41 99.846h2.6357v-9.4956c0-1.0831 0.14442-1.9136 0.83042-2.8162 0.61378-0.83042 2.2024-2.3107 3.9354-2.3107 0.83042 0 1.6608 0.36105 2.2385 1.047 0.90263 1.0832 0.90263 2.4912 0.90263 3.6466v9.9289h2.5634v-10.001c0-1.2637 0-2.6357-0.57768-3.9715-0.83041-1.8414-2.5274-2.8884-4.4048-2.8884-2.2385 0-4.2604 1.4442-5.488 3.2856v-2.8884h-2.6357z"/>
   <path d="m341.24 83.382v9.2068c0 1.4081 0 2.8523 0.64989 4.3326 0.93873 2.1663 2.9606 3.3578 5.1269 3.3578 2.058 0 4.0076-1.1193 5.0908-2.9245l-0.0361 1.2276c0 0.43326 0 0.86652 0.0722 1.2637h2.744c-0.18053-0.46936-0.21663-1.0109-0.21663-1.4803v-14.984h-2.5996v9.0624c0 1.2637-0.10832 2.2385-0.64989 3.2494-0.75821 1.4081-2.2385 2.4551-3.8271 2.4551-1.2637 0-2.4912-0.7221-3.1411-2.0219-0.57768-1.1554-0.57768-2.4551-0.57768-3.5383v-9.2068z"/>
   <path d="m360.31 85.295 1.2637 1.6608c1.372-1.4081 3.2134-1.8414 4.7659-1.8414 1.9497 0 2.9245 0.83041 3.3939 1.5886 0.54157 0.90262 0.50547 1.9858 0.50547 2.8523v0.57768h-0.50547c-2.4551 0-5.0547 0-7.1488 0.7582-2.5996 0.93873-3.7549 2.8884-3.7549 4.6936 0 2.419 2.0941 4.6936 5.5241 4.6936 2.0219 0 4.116-0.7582 5.9212-2.2385v1.8052h2.4551v-10.218c0-1.3359-0.0361-2.5996-0.79431-3.8993-1.0832-1.7691-3.1772-2.7079-5.7407-2.7079-2.2024 0-4.3326 0.68599-5.8851 2.2746zm10.037 6.8238v1.1193c0 0.83042 0 1.9136-1.1192 3.105-0.61379 0.61378-2.1663 1.9497-4.3326 1.9497-2.2024 0-3.4661-1.4081-3.4661-2.8523 0-1.2276 0.83042-2.5635 2.8884-3.0689 1.5164-0.36105 3.7188-0.25273 5.4518-0.25273z"/>
   <path d="m381.9 78.941-0.32495 4.4409h-3.9354l-0.0361 2.1302h3.8632c-0.21663 2.8162-0.32495 5.6324-0.32495 8.4125 0 1.4803 0 3.1411 0.97484 4.5131 0.79431 1.0831 2.058 1.733 3.7549 1.733 1.9497 0 3.8632-0.83042 5.2713-1.8414l-0.79431-2.058c-1.4081 1.047-2.7079 1.5164-3.7188 1.5164-1.2276 0-2.4912-0.686-2.7801-2.6718 0-0.14442-0.10832-0.7582-0.10832-3.1772 0-2.1302 0.10832-4.2965 0.32495-6.4267h5.4157v-2.1663h-5.3796s0.25274-2.9606 0.43326-3.8993c0.0361-0.36105 0.32495-0.57768 0.18053-0.97484z"/>
   <path d="m396.99 83.346v2.1302h3.9716v12.312h-4.1882v2.058h10.687v-2.058h-3.8632v-14.442zm5.3435-7.1488c-1.047 0-1.8775 0.83042-1.8775 1.8414 0 1.0109 0.83041 1.8414 1.8775 1.8414 1.047 0 1.8775-0.83042 1.8775-1.8414 0-1.0109-0.83042-1.8414-1.8775-1.8414z"/>
   <path d="m427.82 91.686c0-5.7046-3.6105-8.6652-7.3654-8.6652-4.1882 0-7.7987 3.6105-7.7987 8.7374 0 5.0186 3.5744 8.5569 7.7265 8.5569 3.8993 0 7.4376-3.1411 7.4376-8.6291zm-7.5459-6.4628c2.3829 0 4.9103 2.058 4.9103 6.5711 0 4.1521-2.3829 6.2462-4.7659 6.2462-2.6357 0-5.0186-2.4551-5.0186-6.535 0-4.0438 2.3468-6.2823 4.8742-6.2823z"/>
   <path d="m431.72 99.846h2.6357v-9.4956c0-1.0831 0.14442-1.9136 0.83042-2.8162 0.61378-0.83042 2.2024-2.3107 3.9354-2.3107 0.83042 0 1.6608 0.36105 2.2385 1.047 0.90263 1.0832 0.90263 2.4912 0.90263 3.6466v9.9289h2.5634v-10.001c0-1.2637 0-2.6357-0.57768-3.9715-0.83042-1.8414-2.5274-2.8884-4.4048-2.8884-2.2385 0-4.2604 1.4442-5.488 3.2856v-2.8884h-2.6357z"/>
  </g>
  <rect x="213.13" y="328.59" width="258.15" height="113.8" fill="#3b390d" fill-opacity=".38431" stroke="#e9e56f" stroke-width="1.733"/>
  <g fill="#e9e56f" stroke-width="5.7768px" aria-label="Reverb">
   <path d="m351.66 213.67v22.493h2.5274v-9.9289h4.3687l4.9825 9.9289h2.8523l-5.1991-10.001c2.7079-0.75821 4.5853-3.3217 4.5853-6.3184 0-2.2385-1.1193-4.3687-3.2133-5.4157-1.4081-0.7221-2.8162-0.75821-4.2965-0.75821zm2.5274 2.3829h4.0799c0.93873 0 1.8414 0.0361 2.7801 0.46937 1.4081 0.7221 2.1302 2.1663 2.1302 3.6105 0 1.4442-0.68599 2.7801-1.9858 3.43-0.86652 0.43326-1.733 0.46936-2.6357 0.46936h-4.3687z"/>
   <path d="m377.01 219.3c-3.9354 0-7.582 2.8162-7.582 8.8096 0 5.5241 3.43 8.4486 7.907 8.4486 2.3829 0 4.5131-0.86652 5.9212-2.5634l-1.4442-1.4081c-1.047 1.2276-2.6357 1.8775-4.2604 1.8775-2.2024 0-5.4157-1.2276-5.5963-6.174h11.698c0.10831-1.1192 0.0722-2.2024-0.10832-3.1411-0.7582-4.4409-3.8271-5.849-6.535-5.849zm-4.9825 7.0044c0.54158-3.8993 3.0328-5.0186 4.802-5.0186 2.6718 0 4.5853 2.3468 4.2604 5.0186z"/>
   <path d="m387.15 219.66 6.535 16.644h2.058l4.0076-9.4234c0.97483-2.3107 1.9136-4.6936 2.4551-7.221h-2.3468c-0.43326 2.419-1.2998 4.6936-2.2385 6.86l-2.6357 6.1378-4.7659-12.059c-0.0361-0.0722-0.0722-0.14442-0.0722-0.21663 0-0.21663 0.18053-0.43326 0.10832-0.7221z"/>
   <path d="m413.11 219.3c-3.9354 0-7.582 2.8162-7.582 8.8096 0 5.5241 3.43 8.4486 7.907 8.4486 2.3829 0 4.5131-0.86652 5.9212-2.5634l-1.4442-1.4081c-1.047 1.2276-2.6357 1.8775-4.2604 1.8775-2.2024 0-5.4158-1.2276-5.5963-6.174h11.698c0.10832-1.1192 0.0722-2.2024-0.10831-3.1411-0.75821-4.4409-3.8271-5.849-6.535-5.849zm-4.9825 7.0044c0.54157-3.8993 3.0328-5.0186 4.802-5.0186 2.6718 0 4.5853 2.3468 4.2604 5.0186z"/>
   <path d="m425.42 219.7v16.5h2.5996v-8.0153c0-1.0109 0.0361-2.0941 1.1554-3.8632 1.5164-2.3829 3.4661-2.7801 4.6575-2.7801 1.372 0 2.2385 0.64989 2.7079 1.2276 0.21663 0.28884 0.32494 0.57768 0.61378 0.83041l1.2276-2.4912c-1.047-1.0832-2.5634-1.8052-4.4048-1.8052-2.419 0-4.8742 1.2276-5.9573 3.5744l0.10832-3.1772z"/>
   <path d="m442.03 212.15v24.01h1.6969l0.90262-2.1663c1.0832 1.6247 2.8884 2.5996 4.8742 2.5996 3.3939 0 6.896-2.8884 6.896-8.8818 0-5.7407-3.3939-8.4125-6.6433-8.4125-2.0941 0-4.0438 1.1192-5.0908 2.9245v-9.2429c0-0.21663 0.0361-0.28884 0.21663-0.43326 0.0722-0.0361 0.25273-0.18053 0.21663-0.39716zm6.8238 9.3873c1.5525 0 4.8381 0.90262 4.8381 6.7516 0 5.0186-3.2494 5.9573-4.8742 5.9573-1.1192 0-3.6105-0.43326-4.0438-3.6105-0.10831-0.83042-0.10831-1.8052-0.10831-3.2494 0-1.4803 0.0722-2.5635 0.43326-3.4661 0.61378-1.4803 2.1302-2.3829 3.7549-2.3829z"/>
  </g>
  <rect x="329.31" y="516.84" width="142.69" height="56.035" fill="#3b390d" fill-opacity=".38431" stroke="#e9e56f" stroke-width="1.733"/>
 </g>
 <g>
  <g fill="#e9e56f" stroke-width="5.7768px" aria-label="Pan">
   <path d="m623.24 55.39v22.493h2.6357v-9.9289h4.4048c1.4081 0 2.744-0.03611 4.116-0.7221 2.0941-1.047 3.1772-3.2133 3.1772-5.488s-1.0832-4.477-3.2133-5.5602c-1.4081-0.7582-2.8162-0.79431-4.2604-0.79431zm2.6357 2.3829h4.2243c0.93873 0 1.8414 0.0361 2.7801 0.46936 1.372 0.7221 2.1302 2.1663 2.1302 3.6105 0 1.4442-0.72209 2.7801-2.0219 3.43-0.86652 0.43326-1.733 0.46936-2.5996 0.46936h-4.5492z"/>
   <path d="m642.45 63.333 1.2637 1.6608c1.372-1.4081 3.2133-1.8414 4.7658-1.8414 1.9497 0 2.9245 0.83041 3.3939 1.5886 0.54158 0.90262 0.50547 1.9858 0.50547 2.8523v0.57768h-0.50547c-2.4551 0-5.0547 0-7.1488 0.7582-2.5996 0.93873-3.7549 2.8884-3.7549 4.6936 0 2.419 2.0941 4.6936 5.5241 4.6936 2.0219 0 4.116-0.7582 5.9212-2.2385v1.8052h2.4551v-10.218c0-1.3359-0.0361-2.5996-0.79431-3.8993-1.0832-1.7691-3.1772-2.7079-5.7407-2.7079-2.2024 0-4.3326 0.68599-5.8851 2.2746zm10.037 6.8238v1.1193c0 0.83042 0 1.9136-1.1193 3.105-0.61378 0.61378-2.1663 1.9497-4.3326 1.9497-2.2024 0-3.4661-1.4081-3.4661-2.8523 0-1.2276 0.83041-2.5635 2.8884-3.0689 1.5164-0.36105 3.7188-0.25274 5.4519-0.25274z"/>
   <path d="m659.71 77.884h2.6357v-9.4956c0-1.0832 0.14442-1.9136 0.83041-2.8162 0.61379-0.83042 2.2024-2.3107 3.9354-2.3107 0.83041 0 1.6608 0.36105 2.2385 1.047 0.90263 1.0832 0.90263 2.4912 0.90263 3.6466v9.9289h2.5634v-10.001c0-1.2637 0-2.6357-0.57768-3.9715-0.83041-1.8414-2.5274-2.8884-4.4048-2.8884-2.2385 0-4.2604 1.4442-5.488 3.2856v-2.8884h-2.6357z"/>
  </g>
  <g fill="#e9e56f" stroke-width="5.7768px" aria-label="Pan">
   <path d="m623.24 211.36v22.493h2.6357v-9.9289h4.4048c1.4081 0 2.744-0.0361 4.116-0.7221 2.0941-1.047 3.1772-3.2133 3.1772-5.488 0-2.2746-1.0832-4.477-3.2133-5.5602-1.4081-0.75821-2.8162-0.79431-4.2604-0.79431zm2.6357 2.3829h4.2243c0.93873 0 1.8414 0.0361 2.7801 0.46936 1.372 0.7221 2.1302 2.1663 2.1302 3.6105s-0.72209 2.7801-2.0219 3.43c-0.86652 0.43326-1.733 0.46937-2.5996 0.46937h-4.5492z"/>
   <path d="m642.45 219.31 1.2637 1.6608c1.372-1.4081 3.2133-1.8414 4.7658-1.8414 1.9497 0 2.9245 0.83041 3.3939 1.5886 0.54158 0.90262 0.50547 1.9858 0.50547 2.8523v0.57768h-0.50547c-2.4551 0-5.0547 0-7.1488 0.75821-2.5996 0.93873-3.7549 2.8884-3.7549 4.6936 0 2.419 2.0941 4.6936 5.5241 4.6936 2.0219 0 4.116-0.7582 5.9212-2.2385v1.8052h2.4551v-10.218c0-1.3359-0.0361-2.5996-0.79431-3.8993-1.0832-1.7691-3.1772-2.7079-5.7407-2.7079-2.2024 0-4.3326 0.686-5.8851 2.2746zm10.037 6.8238v1.1192c0 0.83042 0 1.9136-1.1193 3.105-0.61378 0.61378-2.1663 1.9497-4.3326 1.9497-2.2024 0-3.4661-1.4081-3.4661-2.8523 0-1.2276 0.83041-2.5634 2.8884-3.0689 1.5164-0.36105 3.7188-0.25273 5.4519-0.25273z"/>
   <path d="m659.71 233.86h2.6357v-9.4956c0-1.0832 0.14442-1.9136 0.83041-2.8162 0.61379-0.83041 2.2024-2.3107 3.9354-2.3107 0.83041 0 1.6608 0.36105 2.2385 1.047 0.90263 1.0832 0.90263 2.4912 0.90263 3.6466v9.9289h2.5634v-10.001c0-1.2637 0-2.6357-0.57768-3.9716-0.83041-1.8414-2.5274-2.8884-4.4048-2.8884-2.2385 0-4.2604 1.4442-5.488 3.2856v-2.8884h-2.6357z"/>
  </g>
  <circle cx="646.31" cy="386.36" r="57.768" fill="#3b390d" fill-opacity=".38431" stroke="#e9e56f" stroke-linecap="round" stroke-width="1.733"/>
 </g>
 <g fill="#e9e56f" stroke-width="5.7768px">
  <g aria-label="Pan">
   <path d="m623.24 373.11v22.493h2.6357v-9.9289h4.4048c1.4081 0 2.744-0.0361 4.116-0.7221 2.0941-1.047 3.1772-3.2133 3.1772-5.488 0-2.2746-1.0832-4.477-3.2133-5.5602-1.4081-0.75821-2.8162-0.79431-4.2604-0.79431zm2.6357 2.3829h4.2243c0.93873 0 1.8414 0.0361 2.7801 0.46936 1.372 0.7221 2.1302 2.1663 2.1302 3.6105s-0.72209 2.7801-2.0219 3.43c-0.86652 0.43326-1.733 0.46937-2.5996 0.46937h-4.5492z"/>
   <path d="m642.45 381.06 1.2637 1.6608c1.372-1.4081 3.2133-1.8414 4.7658-1.8414 1.9497 0 2.9245 0.83041 3.3939 1.5886 0.54158 0.90262 0.50547 1.9858 0.50547 2.8523v0.57768h-0.50547c-2.4551 0-5.0547 0-7.1488 0.75821-2.5996 0.93873-3.7549 2.8884-3.7549 4.6936 0 2.419 2.0941 4.6936 5.5241 4.6936 2.0219 0 4.116-0.7582 5.9212-2.2385v1.8052h2.4551v-10.218c0-1.3359-0.0361-2.5996-0.79431-3.8993-1.0832-1.7691-3.1772-2.7079-5.7407-2.7079-2.2024 0-4.3326 0.68599-5.8851 2.2746zm10.037 6.8238v1.1192c0 0.83041 0 1.9136-1.1193 3.105-0.61378 0.61378-2.1663 1.9497-4.3326 1.9497-2.2024 0-3.4661-1.4081-3.4661-2.8523 0-1.2276 0.83041-2.5634 2.8884-3.0689 1.5164-0.36105 3.7188-0.25273 5.4519-0.25273z"/>
   <path d="m659.71 395.61h2.6357v-9.4956c0-1.0832 0.14442-1.9136 0.83041-2.8162 0.61379-0.83041 2.2024-2.3107 3.9354-2.3107 0.83041 0 1.6608 0.36105 2.2385 1.047 0.90263 1.0832 0.90263 2.4912 0.90263 3.6466v9.9289h2.5634v-10.001c0-1.2637 0-2.6357-0.57768-3.9716-0.83041-1.8414-2.5274-2.8884-4.4048-2.8884-2.2385 0-4.2604 1.4442-5.488 3.2856v-2.8884h-2.6357z"/>
  </g>
  <g aria-label="Pan">
   <path d="m623.24 529.09v22.493h2.6357v-9.9289h4.4048c1.4081 0 2.744-0.0361 4.116-0.7221 2.0941-1.047 3.1772-3.2133 3.1772-5.488 0-2.2746-1.0832-4.477-3.2133-5.5602-1.4081-0.75821-2.8162-0.79431-4.2604-0.79431zm2.6357 2.3829h4.2243c0.93873 0 1.8414 0.0361 2.7801 0.46936 1.372 0.7221 2.1302 2.1663 2.1302 3.6105s-0.72209 2.7801-2.0219 3.43c-0.86652 0.43326-1.733 0.46937-2.5996 0.46937h-4.5492z"/>
   <path d="m642.45 537.03 1.2637 1.6608c1.372-1.4081 3.2133-1.8414 4.7658-1.8414 1.9497 0 2.9245 0.83041 3.3939 1.5886 0.54158 0.90262 0.50547 1.9858 0.50547 2.8523v0.57768h-0.50547c-2.4551 0-5.0547 0-7.1488 0.75821-2.5996 0.93873-3.7549 2.8884-3.7549 4.6936 0 2.419 2.0941 4.6936 5.5241 4.6936 2.0219 0 4.116-0.7582 5.9212-2.2385v1.8052h2.4551v-10.218c0-1.3359-0.0361-2.5996-0.79431-3.8993-1.0832-1.7691-3.1772-2.7079-5.7407-2.7079-2.2024 0-4.3326 0.68599-5.8851 2.2746zm10.037 6.8238v1.1193c0 0.83041 0 1.9136-1.1193 3.105-0.61378 0.61378-2.1663 1.9497-4.3326 1.9497-2.2024 0-3.4661-1.4081-3.4661-2.8523 0-1.2276 0.83041-2.5634 2.8884-3.0689 1.5164-0.36105 3.7188-0.25274 5.4519-0.25274z"/>
   <path d="m659.71 551.58h2.6357v-9.4956c0-1.0832 0.14442-1.9136 0.83041-2.8162 0.61379-0.83041 2.2024-2.3107 3.9354-2.3107 0.83041 0 1.6608 0.36105 2.2385 1.047 0.90263 1.0832 0.90263 2.4912 0.90263 3.6466v9.9289h2.5634v-10.001c0-1.2637 0-2.6357-0.57768-3.9716-0.83041-1.8414-2.5274-2.8884-4.4048-2.8884-2.2385 0-4.2604 1.4442-5.488 3.2856v-2.8884h-2.6357z"/>
  </g>
  <g aria-label="Synth">
   <path d="m52.64 374.74c-1.5164-1.8414-3.7549-2.8162-6.2101-2.8162-4.0799 0-6.8599 2.6718-6.8599 5.7768 0 1.2998 0.50547 2.9967 2.3829 4.3687 2.0941 1.5525 5.3435 2.3107 7.0405 3.3939 1.4803 0.90262 1.8775 2.0941 1.8775 3.105 0 1.9497-1.6608 4.0799-4.9103 4.0799-2.4551 0-4.3687-1.2276-5.3796-2.4912-0.10832-0.14442-0.10832-0.21663-0.10832-0.36105 0-0.0722 0-0.28884-0.14442-0.36105l-1.5164 2.5996c1.7691 1.9136 4.2965 2.8884 7.0766 2.8884 5.488 0 7.5098-3.6827 7.5098-6.4989 0-1.1915-0.36105-2.744-1.7691-4.0799-1.9497-1.8414-5.1269-2.4912-7.1849-3.6827-1.8775-1.1192-2.2746-2.4551-2.2746-3.3578 0-1.733 1.4803-3.2856 4.0438-3.2856 2.0941 0 3.7188 0.93873 4.5853 2.2024 0.10832 0.14442 0.07221 0.21663 0.07221 0.36105 0 0.21663 0.10832 0.28884 0.18052 0.28884z"/>
   <path d="m56.648 378.06 6.7155 16.428-0.54157 1.1915c-0.28884 0.68599-0.61378 1.372-1.1193 1.9136-0.686 0.7582-1.5525 1.0832-2.3107 1.0832-1.2276 0-1.8414-0.83041-1.9497-0.97483-0.10832-0.18053-0.07221-0.43326-0.28884-0.61379l-1.3359 2.3468c0.93873 0.90263 2.2024 1.372 3.5744 1.372 1.4803 0 3.0328-0.54157 4.116-1.7691 0.7221-0.83042 1.0832-1.6969 1.4442-2.6357l5.1269-13.612c0.61378-1.5525 1.1554-3.1411 1.6608-4.7659h-2.7079c-0.28884 1.5164-0.7582 2.9606-1.2637 4.4048l-3.1411 8.8457-4.8381-12.167c-0.0361-0.10832-0.0361-0.18053-0.0361-0.28884 0-0.25274 0.18052-0.43326 0.14442-0.75821z"/>
   <path d="m75.531 394.53h2.6357v-9.4956c0-1.0832 0.14442-1.9136 0.83042-2.8162 0.61378-0.83042 2.2024-2.3107 3.9354-2.3107 0.83042 0 1.6608 0.36105 2.2385 1.047 0.90262 1.0832 0.90262 2.4912 0.90262 3.6466v9.9289h2.5635v-10.001c0-1.2637 0-2.6357-0.57768-3.9716-0.83042-1.8414-2.5273-2.8884-4.4048-2.8884-2.2385 0-4.2604 1.4442-5.488 3.2856v-2.8884h-2.6357z"/>
   <path d="m97.916 373.62-0.32494 4.4409h-3.9354l-0.03611 2.1302h3.8632c-0.21663 2.8162-0.32494 5.6324-0.32494 8.4125 0 1.4803 0 3.1411 0.97483 4.5131 0.79431 1.0832 2.058 1.733 3.7549 1.733 1.9497 0 3.8632-0.83041 5.2713-1.8414l-0.79431-2.058c-1.4081 1.047-2.7079 1.5164-3.7188 1.5164-1.2276 0-2.4912-0.68599-2.7801-2.6718 0-0.14442-0.10832-0.7582-0.10832-3.1772 0-2.1302 0.10832-4.2965 0.32494-6.4267h5.4158v-2.1663h-5.3796s0.25273-2.9606 0.43326-3.8993c0.0361-0.36105 0.32494-0.57768 0.18052-0.97483z"/>
   <path d="m111.67 394.53h2.6718v-9.4956c0-1.0832 0.10831-1.9136 0.79431-2.8162 0.64989-0.83042 2.2385-2.3107 3.9716-2.3107 0.83041 0 1.6608 0.36105 2.2385 1.047 0.90263 1.0832 0.90263 2.4912 0.90263 3.6466v9.9289h2.5634v-10.001c0-1.2637-0.0361-2.6357-0.61378-3.9716-0.83042-1.8414-2.4912-2.8884-4.3687-2.8884-2.2385 0-4.2965 1.4442-5.488 3.2856v-9.5678c0-0.10831 0-0.21663 0.10831-0.32494 0.10832-0.10832 0.25274-0.21663 0.25274-0.39716 0-0.0361 0-0.0722-0.0361-0.10831h-2.9967z"/>
  </g>
  <g aria-label=" Distance Attenuation">
   <path d="m268.71 349.95v22.53h4.8381c1.7691 0 3.2856-0.0722 4.8742-0.90262 3.2133-1.6608 4.9825-5.488 4.9825-10.398 0-4.3326-1.2998-8.1236-4.1882-10.001-1.6247-1.0832-3.2494-1.2276-5.2352-1.2276zm2.3829 2.1663h2.744c1.4081 0 2.8162 0.0722 4.2243 1.2276 2.0941 1.733 2.7801 4.9464 2.7801 8.1597 0 4.2965-1.4081 6.7516-3.2133 7.9792-1.4081 0.93873-2.8162 1.0109-4.2243 1.0109h-2.3107z"/>
   <path d="m288.67 355.94v2.1302h3.9715v12.312h-4.1882v2.058h10.687v-2.058h-3.8632v-14.442zm5.3435-7.1488c-1.047 0-1.8775 0.83042-1.8775 1.8414s0.83042 1.8414 1.8775 1.8414c1.047 0 1.8775-0.83041 1.8775-1.8414s-0.83041-1.8414-1.8775-1.8414z"/>
   <path d="m318.5 358.14c-1.5164-1.6608-3.7188-2.5634-6.174-2.5634-3.8271 0-6.3184 2.1302-6.3184 4.5853 0 2.8884 3.105 3.9354 4.0076 4.2604 1.4081 0.50547 3.2134 0.93873 4.4409 1.5164 1.372 0.64989 1.6247 1.5164 1.6247 2.0941 0 1.5525-1.8775 2.5996-4.2243 2.5996-2.8162 0-4.6214-1.6969-5.163-2.2746-0.10831-0.14442-0.10831-0.25273-0.10831-0.39715 0-0.0361 0.0361-0.25274-0.14442-0.32495l-1.5164 2.5635c1.9497 1.8052 4.477 2.6357 6.9683 2.6357 4.5131 0 6.86-2.6718 6.86-5.163 0-1.1193-0.46937-2.6357-2.419-3.7188-1.8414-1.047-4.5131-1.4081-6.0656-2.1663-1.3359-0.64989-1.6247-1.4442-1.6247-2.0219 0-1.2998 1.6247-2.2385 3.4661-2.2385 2.3829 0 3.9716 1.4442 4.5853 2.2746 0.10831 0.10832 0.0722 0.21663 0.0722 0.32495 0 0.21663 0.14442 0.28884 0.21663 0.28884z"/>
   <path d="m327.74 351.53-0.32495 4.4409h-3.9354l-0.0361 2.1302h3.8632c-0.21663 2.8162-0.32495 5.6324-0.32495 8.4125 0 1.4803 0 3.1411 0.97484 4.5131 0.79431 1.0832 2.058 1.733 3.7549 1.733 1.9497 0 3.8632-0.83041 5.2713-1.8414l-0.7943-2.058c-1.4081 1.047-2.7079 1.5164-3.7188 1.5164-1.2276 0-2.4912-0.68599-2.7801-2.6718 0-0.14442-0.10832-0.7582-0.10832-3.1772 0-2.1302 0.10832-4.2965 0.32495-6.4267h5.4158v-2.1663h-5.3796s0.25274-2.9606 0.43326-3.8993c0.0361-0.36105 0.32495-0.57768 0.18053-0.97483z"/>
   <path d="m342.25 357.89 1.2637 1.6608c1.372-1.4081 3.2133-1.8414 4.7658-1.8414 1.9497 0 2.9245 0.83042 3.3939 1.5886 0.54158 0.90263 0.50547 1.9858 0.50547 2.8523v0.57768h-0.50547c-2.4551 0-5.0547 0-7.1488 0.7582-2.5996 0.93873-3.7549 2.8884-3.7549 4.6936 0 2.419 2.0941 4.6936 5.5241 4.6936 2.0219 0 4.116-0.75821 5.9212-2.2385v1.8052h2.4551v-10.218c0-1.3359-0.0361-2.5996-0.79431-3.8993-1.0832-1.7692-3.1772-2.7079-5.7407-2.7079-2.2024 0-4.3326 0.686-5.8851 2.2746zm10.037 6.8238v1.1192c0 0.83042 0 1.9136-1.1193 3.105-0.61378 0.61379-2.1663 1.9497-4.3326 1.9497-2.2024 0-3.4661-1.4081-3.4661-2.8523 0-1.2276 0.83041-2.5635 2.8884-3.0689 1.5164-0.36105 3.7188-0.25274 5.4519-0.25274z"/>
   <path d="m359.51 372.44h2.6357v-9.4956c0-1.0832 0.14442-1.9136 0.83042-2.8162 0.61378-0.83042 2.2024-2.3107 3.9354-2.3107 0.83042 0 1.6608 0.36105 2.2385 1.047 0.90262 1.0832 0.90262 2.4912 0.90262 3.6466v9.9289h2.5635v-10.001c0-1.2637 0-2.6357-0.57768-3.9716-0.83042-1.8414-2.5274-2.8884-4.4048-2.8884-2.2385 0-4.2604 1.4442-5.488 3.2856v-2.8884h-2.6357z"/>
   <path d="m391.57 358.68c-1.2998-1.9136-3.5022-3.0689-6.174-3.0689-4.8381 0-8.268 3.6466-8.268 8.593 0 4.9825 3.43 8.6652 8.1236 8.6652 2.2746 0 4.5131-0.93873 6.0656-2.6357l-1.4803-1.733c-1.1192 1.2637-2.744 1.9858-4.3687 1.9858-3.2133 0-5.6685-2.6718-5.6685-6.535 0-3.7549 2.419-6.1018 5.4518-6.1018 2.8162 0 4.1521 1.9497 4.2604 2.1663 0.14442 0.25274-0.0722 0.61379 0.21663 0.83042z"/>
   <path d="m402.48 355.58c-3.9354 0-7.582 2.8162-7.582 8.8096 0 5.5241 3.43 8.4486 7.907 8.4486 2.3829 0 4.5131-0.86652 5.9212-2.5634l-1.4442-1.4081c-1.047 1.2276-2.6357 1.8775-4.2604 1.8775-2.2024 0-5.4158-1.2276-5.5963-6.174h11.698c0.10832-1.1192 0.0722-2.2024-0.10831-3.1411-0.75821-4.4409-3.8271-5.849-6.535-5.849zm-4.9825 7.0044c0.54157-3.8993 3.0328-5.0186 4.802-5.0186 2.6718 0 4.5853 2.3468 4.2604 5.0186z"/>
   <path d="m249.25 417.61h2.4912l2.2024-6.6072h7.1127l2.4912 6.5711h2.6357l-8.7013-22.891h-0.28884zm11.265-8.5569h-6.1017l2.9245-8.5569z"/>
   <path d="m273.58 396.67-0.32494 4.4409h-3.9354l-0.0361 2.1302h3.8632c-0.21663 2.8162-0.32494 5.6324-0.32494 8.4125 0 1.4803 0 3.1411 0.97483 4.5131 0.79431 1.0832 2.058 1.733 3.7549 1.733 1.9497 0 3.8632-0.83041 5.2713-1.8414l-0.79431-2.058c-1.4081 1.047-2.7079 1.5164-3.7188 1.5164-1.2276 0-2.4912-0.68599-2.7801-2.6718 0-0.14442-0.10831-0.7582-0.10831-3.1772 0-2.1302 0.10831-4.2965 0.32494-6.4267h5.4158v-2.1663h-5.3796s0.25273-2.9606 0.43326-3.8993c0.0361-0.36105 0.32494-0.57768 0.18052-0.97483z"/>
   <path d="m291.63 396.67-0.32494 4.4409h-3.9354l-0.0361 2.1302h3.8632c-0.21663 2.8162-0.32494 5.6324-0.32494 8.4125 0 1.4803 0 3.1411 0.97483 4.5131 0.79431 1.0832 2.058 1.733 3.7549 1.733 1.9497 0 3.8632-0.83041 5.2713-1.8414l-0.79431-2.058c-1.4081 1.047-2.7079 1.5164-3.7188 1.5164-1.2276 0-2.4912-0.68599-2.7801-2.6718 0-0.14442-0.10831-0.7582-0.10831-3.1772 0-2.1302 0.10831-4.2965 0.32494-6.4267h5.4158v-2.1663h-5.3796s0.25273-2.9606 0.43326-3.8993c0.0361-0.36105 0.32494-0.57768 0.18052-0.97483z"/>
   <path d="m312.21 400.71c-3.9354 0-7.582 2.8162-7.582 8.8096 0 5.5241 3.43 8.4486 7.907 8.4486 2.3829 0 4.5131-0.86652 5.9212-2.5634l-1.4442-1.4081c-1.047 1.2276-2.6357 1.8775-4.2604 1.8775-2.2024 0-5.4158-1.2276-5.5963-6.174h11.698c0.10832-1.1192 0.0722-2.2024-0.10831-3.1411-0.7582-4.4409-3.8271-5.849-6.535-5.849zm-4.9825 7.0044c0.54157-3.8993 3.0328-5.0186 4.802-5.0186 2.6718 0 4.5853 2.3468 4.2604 5.0186z"/>
   <path d="m323.41 417.57h2.6357v-9.4956c0-1.0832 0.14442-1.9136 0.83042-2.8162 0.61378-0.83042 2.2024-2.3107 3.9354-2.3107 0.83042 0 1.6608 0.36105 2.2385 1.047 0.90263 1.0832 0.90263 2.4912 0.90263 3.6466v9.9289h2.5634v-10.001c0-1.2637 0-2.6357-0.57768-3.9716-0.83041-1.8414-2.5274-2.8884-4.4048-2.8884-2.2385 0-4.2604 1.4442-5.488 3.2856v-2.8884h-2.6357z"/>
   <path d="m341.24 401.11v9.2068c0 1.4081 0 2.8523 0.64989 4.3326 0.93873 2.1663 2.9606 3.3578 5.1269 3.3578 2.058 0 4.0076-1.1193 5.0908-2.9245l-0.0361 1.2276c0 0.43326 0 0.86652 0.0722 1.2637h2.744c-0.18053-0.46937-0.21663-1.0109-0.21663-1.4803v-14.984h-2.5996v9.0624c0 1.2637-0.10832 2.2385-0.64989 3.2494-0.75821 1.4081-2.2385 2.4551-3.8271 2.4551-1.2637 0-2.4912-0.7221-3.1411-2.0219-0.57768-1.1554-0.57768-2.4551-0.57768-3.5383v-9.2068z"/>
   <path d="m360.31 403.02 1.2637 1.6608c1.372-1.4081 3.2134-1.8414 4.7659-1.8414 1.9497 0 2.9245 0.83042 3.3939 1.5886 0.54157 0.90263 0.50547 1.9858 0.50547 2.8523v0.57768h-0.50547c-2.4551 0-5.0547 0-7.1488 0.7582-2.5996 0.93873-3.7549 2.8884-3.7549 4.6936 0 2.419 2.0941 4.6936 5.5241 4.6936 2.0219 0 4.116-0.75821 5.9212-2.2385v1.8052h2.4551v-10.218c0-1.3359-0.0361-2.5996-0.79431-3.8993-1.0832-1.7692-3.1772-2.7079-5.7407-2.7079-2.2024 0-4.3326 0.686-5.8851 2.2746zm10.037 6.8238v1.1193c0 0.83041 0 1.9136-1.1192 3.105-0.61379 0.61379-2.1663 1.9497-4.3326 1.9497-2.2024 0-3.4661-1.4081-3.4661-2.8523 0-1.2276 0.83042-2.5634 2.8884-3.0689 1.5164-0.36105 3.7188-0.25274 5.4518-0.25274z"/>
   <path d="m381.9 396.67-0.32495 4.4409h-3.9354l-0.0361 2.1302h3.8632c-0.21663 2.8162-0.32495 5.6324-0.32495 8.4125 0 1.4803 0 3.1411 0.97484 4.5131 0.79431 1.0832 2.058 1.733 3.7549 1.733 1.9497 0 3.8632-0.83041 5.2713-1.8414l-0.79431-2.058c-1.4081 1.047-2.7079 1.5164-3.7188 1.5164-1.2276 0-2.4912-0.68599-2.7801-2.6718 0-0.14442-0.10832-0.7582-0.10832-3.1772 0-2.1302 0.10832-4.2965 0.32495-6.4267h5.4157v-2.1663h-5.3796s0.25274-2.9606 0.43326-3.8993c0.0361-0.36105 0.32495-0.57768 0.18053-0.97483z"/>
   <path d="m396.99 401.07v2.1302h3.9716v12.312h-4.1882v2.058h10.687v-2.058h-3.8632v-14.442zm5.3435-7.1488c-1.047 0-1.8775 0.83042-1.8775 1.8414s0.83041 1.8414 1.8775 1.8414c1.047 0 1.8775-0.83041 1.8775-1.8414s-0.83042-1.8414-1.8775-1.8414z"/>
   <path d="m427.82 409.41c0-5.7046-3.6105-8.6652-7.3654-8.6652-4.1882 0-7.7987 3.6105-7.7987 8.7374 0 5.0186 3.5744 8.5569 7.7265 8.5569 3.8993 0 7.4376-3.1411 7.4376-8.6291zm-7.5459-6.4628c2.3829 0 4.9103 2.058 4.9103 6.5711 0 4.1521-2.3829 6.2462-4.7659 6.2462-2.6357 0-5.0186-2.4551-5.0186-6.535 0-4.0438 2.3468-6.2823 4.8742-6.2823z"/>
   <path d="m431.72 417.57h2.6357v-9.4956c0-1.0832 0.14442-1.9136 0.83042-2.8162 0.61378-0.83042 2.2024-2.3107 3.9354-2.3107 0.83042 0 1.6608 0.36105 2.2385 1.047 0.90263 1.0832 0.90263 2.4912 0.90263 3.6466v9.9289h2.5634v-10.001c0-1.2637 0-2.6357-0.57768-3.9716-0.83042-1.8414-2.5274-2.8884-4.4048-2.8884-2.2385 0-4.2604 1.4442-5.488 3.2856v-2.8884h-2.6357z"/>
  </g>
  <g aria-label="Reverb">
   <path d="m351.66 531.39v22.493h2.5274v-9.9289h4.3687l4.9825 9.9289h2.8523l-5.1991-10.001c2.7079-0.7582 4.5853-3.3216 4.5853-6.3184 0-2.2385-1.1193-4.3687-3.2133-5.4158-1.4081-0.7221-2.8162-0.7582-4.2965-0.7582zm2.5274 2.3829h4.0799c0.93873 0 1.8414 0.0361 2.7801 0.46936 1.4081 0.7221 2.1302 2.1663 2.1302 3.6105s-0.68599 2.7801-1.9858 3.43c-0.86652 0.43326-1.733 0.46936-2.6357 0.46936h-4.3687z"/>
   <path d="m377.01 537.03c-3.9354 0-7.582 2.8162-7.582 8.8096 0 5.5241 3.43 8.4486 7.907 8.4486 2.3829 0 4.5131-0.86652 5.9212-2.5634l-1.4442-1.4081c-1.047 1.2276-2.6357 1.8775-4.2604 1.8775-2.2024 0-5.4157-1.2276-5.5963-6.174h11.698c0.10831-1.1193 0.0722-2.2024-0.10832-3.1411-0.7582-4.4409-3.8271-5.849-6.535-5.849zm-4.9825 7.0044c0.54158-3.8993 3.0328-5.0186 4.802-5.0186 2.6718 0 4.5853 2.3468 4.2604 5.0186z"/>
   <path d="m387.15 537.39 6.535 16.644h2.058l4.0076-9.4234c0.97483-2.3107 1.9136-4.6936 2.4551-7.221h-2.3468c-0.43326 2.419-1.2998 4.6936-2.2385 6.8599l-2.6357 6.1378-4.7659-12.059c-0.0361-0.0722-0.0722-0.14442-0.0722-0.21663 0-0.21663 0.18053-0.43326 0.10832-0.7221z"/>
   <path d="m413.11 537.03c-3.9354 0-7.582 2.8162-7.582 8.8096 0 5.5241 3.43 8.4486 7.907 8.4486 2.3829 0 4.5131-0.86652 5.9212-2.5634l-1.4442-1.4081c-1.047 1.2276-2.6357 1.8775-4.2604 1.8775-2.2024 0-5.4158-1.2276-5.5963-6.174h11.698c0.10832-1.1193 0.0722-2.2024-0.10831-3.1411-0.75821-4.4409-3.8271-5.849-6.535-5.849zm-4.9825 7.0044c0.54157-3.8993 3.0328-5.0186 4.802-5.0186 2.6718 0 4.5853 2.3468 4.2604 5.0186z"/>
   <path d="m425.42 537.42v16.5h2.5996v-8.0153c0-1.0109 0.0361-2.0941 1.1554-3.8632 1.5164-2.3829 3.4661-2.7801 4.6575-2.7801 1.372 0 2.2385 0.64989 2.7079 1.2276 0.21663 0.28884 0.32494 0.57768 0.61378 0.83041l1.2276-2.4912c-1.047-1.0832-2.5634-1.8052-4.4048-1.8052-2.419 0-4.8742 1.2276-5.9573 3.5744l0.10832-3.1772z"/>
   <path d="m442.03 529.88v24.01h1.6969l0.90262-2.1663c1.0832 1.6247 2.8884 2.5996 4.8742 2.5996 3.3939 0 6.896-2.8884 6.896-8.8818 0-5.7407-3.3939-8.4125-6.6433-8.4125-2.0941 0-4.0438 1.1192-5.0908 2.9245v-9.2429c0-0.21663 0.0361-0.28884 0.21663-0.43326 0.0722-0.0361 0.25273-0.18053 0.21663-0.39716zm6.8238 9.3873c1.5525 0 4.8381 0.90262 4.8381 6.7516 0 5.0186-3.2494 5.9573-4.8742 5.9573-1.1192 0-3.6105-0.43326-4.0438-3.6105-0.10831-0.83041-0.10831-1.8052-0.10831-3.2494 0-1.4803 0.0722-2.5634 0.43326-3.4661 0.61378-1.4803 2.1302-2.3829 3.7549-2.3829z"/>
  </g>
 </g>
 <rect x="819.62" y="10.867" width="171.57" height="604.83" fill="#3b390d" fill-opacity=".38431" stroke="#e9e56f" stroke-width="1.733"/>
 <g fill="#e9e56f" stroke-width="5.7768px">
  <g aria-label="MIXER">
   <path d="m860.96 287.47v22.53h2.3829v-16.861l4.5492 8.9179h0.93873l4.8742-9.0624v17.005h2.3829v-22.53h-1.8775l-5.6685 11.012-5.5963-11.012z"/>
   <path d="m880.74 287.47v2.1302h4.1521v18.305h-4.4048v2.0941h11.626v-2.058h-4.6936v-18.341h4.4409v-2.1302z"/>
   <path d="m909.27 287.47-4.6214 8.5208-4.7298-8.5208h-2.7079l5.9934 11.048-6.1378 11.445h2.7801l4.802-8.8818 5.0186 8.8818h2.8162l-6.3545-11.517 5.6685-10.976z"/>
   <path d="m915.77 287.47v22.493h13.72v-2.2385h-11.301v-8.3402h9.3873v-2.3107h-9.3873v-7.3654h11.373v-2.2385z"/>
   <path d="m933.75 287.47v22.493h2.5274v-9.9289h4.3687l4.9825 9.9289h2.8523l-5.1991-10.001c2.7079-0.75821 4.5853-3.3217 4.5853-6.3184 0-2.2385-1.1193-4.3687-3.2134-5.4158-1.4081-0.7221-2.8162-0.75821-4.2965-0.75821zm2.5274 2.3829h4.0799c0.93873 0 1.8414 0.0361 2.7801 0.46937 1.4081 0.7221 2.1302 2.1663 2.1302 3.6105s-0.686 2.7801-1.9858 3.43c-0.86651 0.43326-1.733 0.46937-2.6357 0.46937h-4.3687z"/>
  </g>
  <g aria-label="dry">
   <path d="m513.12 41.628c-0.79431-1.6969-2.5634-2.8162-4.8381-2.8162-3.1411 0-6.9683 2.2385-6.9683 8.5208 0 6.1017 3.3939 8.7735 6.5711 8.7735 2.0941 0 4.0438-1.1915 5.0908-3.0328v1.4442c0 0.39716 0.0361 0.79431 0.14442 1.1915h2.5996c-0.14442-0.46936-0.14442-1.0109-0.14442-1.5164l-0.0361-21.446c0-0.21663 0-0.28884 0.14442-0.50547 0.0722-0.10832 0.21662-0.28884 0.18052-0.54158h-2.744zm-4.7298-0.686c1.4442 0 3.5744 0.7582 4.2243 3.2133 0.21663 0.7582 0.28884 1.6608 0.28884 3.5022 0 1.2637-0.0722 2.1663-0.36105 3.0328-0.61378 1.9497-2.3468 3.105-4.0438 3.105-1.8775 0-4.6575-1.4442-4.6575-6.8599 0-4.7298 2.6357-5.9934 4.5492-5.9934z"/>
   <path d="m521.36 39.246v16.5h2.5996v-8.0153c0-1.0109 0.0361-2.0941 1.1554-3.8632 1.5164-2.3829 3.4661-2.7801 4.6575-2.7801 1.372 0 2.2385 0.64989 2.7079 1.2276 0.21663 0.28884 0.32495 0.57768 0.61379 0.83042l1.2276-2.4912c-1.047-1.0832-2.5635-1.8052-4.4048-1.8052-2.419 0-4.8742 1.2276-5.9573 3.5744l0.10831-3.1772z"/>
   <path d="m537.46 39.246 6.7155 16.428-0.54158 1.1915c-0.28884 0.686-0.61378 1.372-1.1192 1.9136-0.686 0.7582-1.5525 1.0832-2.3107 1.0832-1.2276 0-1.8414-0.83042-1.9497-0.97484-0.10831-0.18052-0.0722-0.43326-0.28884-0.61378l-1.3359 2.3468c0.93873 0.90262 2.2024 1.372 3.5744 1.372 1.4803 0 3.0328-0.54158 4.116-1.7691 0.7221-0.83041 1.0832-1.6969 1.4442-2.6357l5.1269-13.612c0.61379-1.5525 1.1554-3.1411 1.6608-4.7659h-2.7079c-0.28884 1.5164-0.7582 2.9606-1.2637 4.4048l-3.1411 8.8457-4.8381-12.167c-0.0361-0.10832-0.0361-0.18052-0.0361-0.28884 0-0.25274 0.18052-0.43326 0.14442-0.7582z"/>
  </g>
  <g aria-label="dry">
   <path d="m513.12 359.35c-0.79431-1.6969-2.5634-2.8162-4.8381-2.8162-3.1411 0-6.9683 2.2385-6.9683 8.5208 0 6.1018 3.3939 8.7735 6.5711 8.7735 2.0941 0 4.0438-1.1915 5.0908-3.0328v1.4442c0 0.39715 0.0361 0.7943 0.14442 1.1915h2.5996c-0.14442-0.46937-0.14442-1.0109-0.14442-1.5164l-0.0361-21.446c0-0.21663 0-0.28884 0.14442-0.50547 0.0722-0.10832 0.21662-0.28884 0.18052-0.54157h-2.744zm-4.7298-0.686c1.4442 0 3.5744 0.75821 4.2243 3.2133 0.21663 0.75821 0.28884 1.6608 0.28884 3.5022 0 1.2637-0.0722 2.1663-0.36105 3.0328-0.61378 1.9497-2.3468 3.105-4.0438 3.105-1.8775 0-4.6575-1.4442-4.6575-6.86 0-4.7298 2.6357-5.9934 4.5492-5.9934z"/>
   <path d="m521.36 356.97v16.5h2.5996v-8.0153c0-1.0109 0.0361-2.0941 1.1554-3.8632 1.5164-2.3829 3.4661-2.7801 4.6575-2.7801 1.372 0 2.2385 0.64989 2.7079 1.2276 0.21663 0.28884 0.32495 0.57768 0.61379 0.83042l1.2276-2.4912c-1.047-1.0832-2.5635-1.8052-4.4048-1.8052-2.419 0-4.8742 1.2276-5.9573 3.5744l0.10831-3.1772z"/>
   <path d="m537.46 356.97 6.7155 16.428-0.54158 1.1915c-0.28884 0.68599-0.61378 1.372-1.1192 1.9136-0.686 0.75821-1.5525 1.0832-2.3107 1.0832-1.2276 0-1.8414-0.83041-1.9497-0.97483-0.10831-0.18053-0.0722-0.43326-0.28884-0.61379l-1.3359 2.3468c0.93873 0.90262 2.2024 1.372 3.5744 1.372 1.4803 0 3.0328-0.54158 4.116-1.7692 0.7221-0.83041 1.0832-1.6969 1.4442-2.6357l5.1269-13.612c0.61379-1.5525 1.1554-3.1411 1.6608-4.7659h-2.7079c-0.28884 1.5164-0.7582 2.9606-1.2637 4.4048l-3.1411 8.8457-4.8381-12.167c-0.0361-0.10831-0.0361-0.18052-0.0361-0.28884 0-0.25273 0.18052-0.43326 0.14442-0.7582z"/>
  </g>
  <g aria-label="wet">
   <path d="m500.27 200.96 3.3217 16.536h2.3468l2.8884-10.687 3.0689 10.687h2.419c1.1192-5.4519 2.058-10.976 2.744-16.5h-2.3829c0.0722 1.9858-0.10832 3.8271-1.5525 13.214l-3.4661-11.698h-1.5886l-2.8523 11.734-2.3829-11.915c-0.0722-0.25273-0.0722-0.36105 0.0361-0.64989 0.0361-0.18052 0.14442-0.43326 0.0361-0.7221z"/>
   <path d="m527.1 200.6c-3.9354 0-7.582 2.8162-7.582 8.8096 0 5.5241 3.43 8.4486 7.907 8.4486 2.3829 0 4.5131-0.86652 5.9212-2.5635l-1.4442-1.4081c-1.047 1.2276-2.6357 1.8775-4.2604 1.8775-2.2024 0-5.4157-1.2276-5.5963-6.174h11.698c0.10831-1.1193 0.0722-2.2024-0.10832-3.1411-0.7582-4.4409-3.8271-5.849-6.535-5.849zm-4.9825 7.0044c0.54158-3.8993 3.0328-5.0186 4.802-5.0186 2.6718 0 4.5853 2.3468 4.2604 5.0186z"/>
   <path d="m542.62 196.55-0.32494 4.4409h-3.9354l-0.0361 2.1302h3.8632c-0.21663 2.8162-0.32494 5.6324-0.32494 8.4125 0 1.4803 0 3.1411 0.97483 4.5131 0.79431 1.0832 2.058 1.733 3.7549 1.733 1.9497 0 3.8632-0.83042 5.2713-1.8414l-0.79431-2.058c-1.4081 1.047-2.7079 1.5164-3.7188 1.5164-1.2276 0-2.4912-0.686-2.7801-2.6718 0-0.14442-0.10831-0.75821-0.10831-3.1772 0-2.1302 0.10831-4.2965 0.32494-6.4267h5.4158v-2.1663h-5.3796s0.25273-2.9606 0.43326-3.8993c0.0361-0.36105 0.32494-0.57768 0.18052-0.97484z"/>
  </g>
  <g aria-label="wet">
   <path d="m500.27 518.68 3.3217 16.536h2.3468l2.8884-10.687 3.0689 10.687h2.419c1.1192-5.4518 2.058-10.976 2.744-16.5h-2.3829c0.0722 1.9858-0.10832 3.8271-1.5525 13.214l-3.4661-11.698h-1.5886l-2.8523 11.734-2.3829-11.915c-0.0722-0.25273-0.0722-0.36105 0.0361-0.64989 0.0361-0.18052 0.14442-0.43326 0.0361-0.7221z"/>
   <path d="m527.1 518.32c-3.9354 0-7.582 2.8162-7.582 8.8096 0 5.5241 3.43 8.4486 7.907 8.4486 2.3829 0 4.5131-0.86652 5.9212-2.5635l-1.4442-1.4081c-1.047 1.2276-2.6357 1.8775-4.2604 1.8775-2.2024 0-5.4157-1.2276-5.5963-6.174h11.698c0.10831-1.1193 0.0722-2.2024-0.10832-3.1411-0.7582-4.4409-3.8271-5.849-6.535-5.849zm-4.9825 7.0044c0.54158-3.8993 3.0328-5.0186 4.802-5.0186 2.6718 0 4.5853 2.3468 4.2604 5.0186z"/>
   <path d="m542.62 514.28-0.32494 4.4409h-3.9354l-0.0361 2.1302h3.8632c-0.21663 2.8162-0.32494 5.6324-0.32494 8.4125 0 1.4803 0 3.1411 0.97483 4.5131 0.79431 1.0832 2.058 1.733 3.7549 1.733 1.9497 0 3.8632-0.83042 5.2713-1.8414l-0.79431-2.058c-1.4081 1.047-2.7079 1.5164-3.7188 1.5164-1.2276 0-2.4912-0.686-2.7801-2.6718 0-0.14442-0.10831-0.7582-0.10831-3.1772 0-2.1302 0.10831-4.2965 0.32494-6.4267h5.4158v-2.1663h-5.3796s0.25273-2.9606 0.43326-3.8993c0.0361-0.36105 0.32494-0.57768 0.18052-0.97484z"/>
  </g>
 </g>
 <rect x="1079.6" y="328.59" width="121.4" height="113.8" fill="#3b390d" fill-opacity=".38431" stroke="#e9e56f" stroke-width="1.733"/>
 <g>
  <g fill="#e9e56f" stroke-width="5.7768px" aria-label="LFE Gen">
   <path d="m1117.6 349.95v22.53h13.467v-2.1663h-10.868v-19.136c0-0.32494 0.1083-0.43326 0.2166-0.64989 0.036-0.10831 0.1444-0.28884 0.1083-0.57768z"/>
   <path d="m1136 349.95v22.493h2.5634v-11.048h8.4125v-2.1663h-8.4125v-7.0766h10.398v-2.2024z"/>
   <path d="m1153.4 349.95v22.493h13.72v-2.2385h-11.301v-8.3402h9.3873v-2.3107h-9.3873v-7.3654h11.373v-2.2385z"/>
   <path d="m1125.2 394.86c-2.9967 0-8.7013 1.8775-8.7013 11.734 0 8.5208 4.7658 11.337 8.6652 11.337 2.0941 0 4.5131-0.75821 6.6072-2.3468v-8.7735h-6.3906v2.1663h4.0799v5.3796c-1.2637 0.90263-2.7079 1.372-4.0438 1.372-1.4803 0-3.0689-0.57768-4.2965-1.9858-1.8774-2.1302-2.1302-5.3074-2.1302-7.6543 0-2.0941 0.2528-4.116 1.1193-5.7768 1.1553-2.2024 3.1772-3.2133 5.0547-3.2133 2.0219 0 3.6105 1.1193 4.2965 2.6357 0.1083 0.25273 0.2166 0.54157 0.5054 0.72209l1.7692-1.8052c-1.2998-2.3468-3.7549-3.791-6.535-3.791z"/>
   <path d="m1142.6 400.71c-3.9355 0-7.5821 2.8162-7.5821 8.8096 0 5.5241 3.43 8.4486 7.907 8.4486 2.3829 0 4.5131-0.86652 5.9212-2.5634l-1.4442-1.4081c-1.047 1.2276-2.6356 1.8775-4.2603 1.8775-2.2025 0-5.4158-1.2276-5.5963-6.174h11.698c0.1083-1.1192 0.072-2.2024-0.1083-3.1411-0.7582-4.4409-3.8272-5.849-6.535-5.849zm-4.9825 7.0044c0.5416-3.8993 3.0328-5.0186 4.802-5.0186 2.6717 0 4.5853 2.3468 4.2603 5.0186z"/>
   <path d="m1153.7 417.57h2.6357v-9.4956c0-1.0832 0.1444-1.9136 0.8304-2.8162 0.6138-0.83042 2.2024-2.3107 3.9354-2.3107 0.8305 0 1.6609 0.36105 2.2386 1.047 0.9026 1.0832 0.9026 2.4912 0.9026 3.6466v9.9289h2.5634v-10.001c0-1.2637 0-2.6357-0.5776-3.9716-0.8305-1.8414-2.5274-2.8884-4.4049-2.8884-2.2385 0-4.2603 1.4442-5.4879 3.2856v-2.8884h-2.6357z"/>
  </g>
  <circle cx="1251.8" cy="299.76" r="11.966" fill="none" stroke="#e9e56f" stroke-linecap="round" stroke-width="1.733"/>
  <g fill="#e9e56f" stroke-width="5.7768px" aria-label="out">
   <path d="m1239.6 271.62c0-5.7046-3.6105-8.6652-7.3654-8.6652-4.1882 0-7.7987 3.6105-7.7987 8.7374 0 5.0186 3.5744 8.5569 7.7265 8.5569 3.8993 0 7.4376-3.1411 7.4376-8.6291zm-7.5459-6.4628c2.3829 0 4.9103 2.058 4.9103 6.5711 0 4.1521-2.383 6.2462-4.7659 6.2462-2.6357 0-5.0186-2.4551-5.0186-6.535 0-4.0438 2.3468-6.2823 4.8742-6.2823z"/>
   <path d="m1243.3 263.31v9.2068c0 1.4081 0 2.8523 0.6499 4.3326 0.9388 2.1663 2.9606 3.3578 5.1269 3.3578 2.058 0 4.0077-1.1193 5.0908-2.9245l-0.036 1.2276c0 0.43326 0 0.86652 0.072 1.2637h2.744c-0.1805-0.46937-0.2166-1.0109-0.2166-1.4803v-14.984h-2.5996v9.0624c0 1.2637-0.1083 2.2385-0.6499 3.2494-0.7582 1.4081-2.2385 2.4551-3.8271 2.4551-1.2637 0-2.4912-0.7221-3.1411-2.0219-0.5777-1.1554-0.5777-2.4551-0.5777-3.5383v-9.2068z"/>
   <path d="m1265.9 258.87-0.325 4.4409h-3.9354l-0.036 2.1302h3.8632c-0.2166 2.8162-0.325 5.6324-0.325 8.4125 0 1.4803 0 3.1411 0.9749 4.5131 0.7943 1.0832 2.058 1.733 3.7549 1.733 1.9497 0 3.8632-0.83041 5.2713-1.8414l-0.7943-2.058c-1.4081 1.047-2.7079 1.5164-3.7188 1.5164-1.2276 0-2.4912-0.68599-2.7801-2.6718 0-0.14442-0.1083-0.7582-0.1083-3.1772 0-2.1302 0.1083-4.2965 0.325-6.4267h5.4157v-2.1663h-5.3796s0.2527-2.9606 0.4332-3.8993c0.036-0.36105 0.325-0.57768 0.1805-0.97483z"/>
  </g>
 </g>
 <g fill="none" stroke="#b62a2a" stroke-width="5.7768">
  <path d="m154.43 67.226h41.464"/>
  <path d="m154.43 386.76h41.464"/>
  <path d="m704.98 67.226h101.04"/>
  <path d="m704.98 226.48h101.04"/>
  <path d="m704.98 385.45h101.04"/>
  <path d="m704.98 545.06h101.04"/>
  <path d="m260.21 125.45v101.71h57.204"/>
  <path d="m260.21 443.3v101.71h57.204"/>
  <path d="m992.01 299.6h231.02"/>
  <path d="m1034.7 297.4v92.068h27.079"/>
  <path d="m1251.3 324.71v64.989h-49.419"/>
 </g>
 <g transform="matrix(0 -5.7768 5.7768 0 -1391.6 3276.6)">
  <path d="m501.47 274.25-1.2053 3.2778-1.2053-3.2778c0.71162 0.52365 1.6852 0.52064 2.4106 0z" fill="#fff" fill-rule="evenodd" stroke="#b62a2a" stroke-linejoin="round" stroke-width=".1875"/>
 </g>
 <g transform="matrix(0 -5.7768 5.7768 0 -1391.6 2957.1)">
  <path d="m501.47 274.25-1.2053 3.2778-1.2053-3.2778c0.71162 0.52365 1.6852 0.52064 2.4106 0z" fill="#fff" fill-rule="evenodd" stroke="#b62a2a" stroke-linejoin="round" stroke-width=".1875"/>
 </g>
 <g transform="matrix(0 -5.7768 5.7768 0 -1275.4 3117.2)">
  <path d="m501.47 274.25-1.2053 3.2778-1.2053-3.2778c0.71162 0.52365 1.6852 0.52064 2.4106 0z" fill="#fff" fill-rule="evenodd" stroke="#b62a2a" stroke-linejoin="round" stroke-width=".1875"/>
 </g>
 <g transform="matrix(0 -5.7768 5.7768 0 -1275.4 3435.1)">
  <path d="m501.47 274.25-1.2053 3.2778-1.2053-3.2778c0.71162 0.52365 1.6852 0.52064 2.4106 0z" fill="#fff" fill-rule="evenodd" stroke="#b62a2a" stroke-linejoin="round" stroke-width=".1875"/>
 </g>
 <g transform="matrix(0 -5.7768 5.7768 0 -1016 3435.1)">
  <path d="m501.47 274.25-1.2053 3.2778-1.2053-3.2778c0.71162 0.52365 1.6852 0.52064 2.4106 0z" fill="#fff" fill-rule="evenodd" stroke="#b62a2a" stroke-linejoin="round" stroke-width=".1875"/>
 </g>
 <g transform="matrix(0 -5.7768 5.7768 0 -1016 3275.3)">
  <path d="m501.47 274.25-1.2053 3.2778-1.2053-3.2778c0.71162 0.52365 1.6852 0.52064 2.4106 0z" fill="#fff" fill-rule="evenodd" stroke="#b62a2a" stroke-linejoin="round" stroke-width=".1875"/>
 </g>
 <g transform="matrix(0 -5.7768 5.7768 0 -1016 3116.6)">
  <path d="m501.47 274.25-1.2053 3.2778-1.2053-3.2778c0.71162 0.52365 1.6852 0.52064 2.4106 0z" fill="#fff" fill-rule="evenodd" stroke="#b62a2a" stroke-linejoin="round" stroke-width=".1875"/>
 </g>
 <g transform="matrix(0 -5.7768 5.7768 0 -1016 2957.6)">
  <path d="m501.47 274.25-1.2053 3.2778-1.2053-3.2778c0.71162 0.52365 1.6852 0.52064 2.4106 0z" fill="#fff" fill-rule="evenodd" stroke="#b62a2a" stroke-linejoin="round" stroke-width=".1875"/>
 </g>
 <g transform="matrix(0 -5.7768 5.7768 0 -785.07 3435.1)">
  <path d="m501.47 274.25-1.2053 3.2778-1.2053-3.2778c0.71162 0.52365 1.6852 0.52064 2.4106 0z" fill="#fff" fill-rule="evenodd" stroke="#b62a2a" stroke-linejoin="round" stroke-width=".1875"/>
 </g>
 <g transform="matrix(0 -5.7768 5.7768 0 -785.07 3275.3)">
  <path d="m501.47 274.25-1.2053 3.2778-1.2053-3.2778c0.71162 0.52365 1.6852 0.52064 2.4106 0z" fill="#fff" fill-rule="evenodd" stroke="#b62a2a" stroke-linejoin="round" stroke-width=".1875"/>
 </g>
 <g transform="matrix(0 -5.7768 5.7768 0 -785.07 3116.6)">
  <path d="m501.47 274.25-1.2053 3.2778-1.2053-3.2778c0.71162 0.52365 1.6852 0.52064 2.4106 0z" fill="#fff" fill-rule="evenodd" stroke="#b62a2a" stroke-linejoin="round" stroke-width=".1875"/>
 </g>
 <g transform="matrix(0 -5.7768 5.7768 0 -785.07 2957.6)">
  <path d="m501.47 274.25-1.2053 3.2778-1.2053-3.2778c0.71162 0.52365 1.6852 0.52064 2.4106 0z" fill="#fff" fill-rule="evenodd" stroke="#b62a2a" stroke-linejoin="round" stroke-width=".1875"/>
 </g>
 <g transform="matrix(0 -5.7768 5.7768 0 -525.12 3279)">
  <path d="m501.47 274.25-1.2053 3.2778-1.2053-3.2778c0.71162 0.52365 1.6852 0.52064 2.4106 0z" fill="#fff" fill-rule="evenodd" stroke="#b62a2a" stroke-linejoin="round" stroke-width=".1875"/>
 </g>
 <g transform="matrix(0 -5.7768 5.7768 0 -364.8 3189.4)">
  <path d="m501.47 274.25-1.2053 3.2778-1.2053-3.2778c0.71162 0.52365 1.6852 0.52064 2.4106 0z" fill="#fff" fill-rule="evenodd" stroke="#b62a2a" stroke-linejoin="round" stroke-width=".1875"/>
 </g>
 <g transform="matrix(-5.7768 0 0 -5.7768 4141.2 1916.3)">
  <path d="m501.47 274.25-1.2053 3.2778-1.2053-3.2778c0.71162 0.52365 1.6852 0.52064 2.4106 0z" fill="#fff" fill-rule="evenodd" stroke="#b62a2a" stroke-linejoin="round" stroke-width=".1875"/>
 </g>
</svg>
