<svg version="1.1" viewBox="0 0 1049.5 985.9" xmlns="http://www.w3.org/2000/svg">
 <g>
  <path d="m322.42 46.445h-118.39v111.82" fill="none" stroke="#b62a2a" stroke-width="5.8852px"/>
  <path d="m713.79 46.445h137.31v100.05" fill="none" stroke="#b62a2a" stroke-width="5.887"/>
  <rect x="334.86" y="10.883" width="380.03" height="79.882" fill="#3b390d" fill-opacity=".38431" stroke="#e9e56f" stroke-width="1.7655"/>
  <g fill="#e9e56f" stroke-width="5.8852px" aria-label="Raw image data">
   <path d="m404.23 39.711v22.915h2.5748v-10.115h4.4506l5.076 10.115h2.9058l-5.2966-10.189c2.7587-0.77243 4.6714-3.384 4.6714-6.4369 0-2.2805-1.1402-4.4507-3.2736-5.5173-1.4345-0.73564-2.869-0.77243-4.3771-0.77243zm2.5748 2.4276h4.1564c0.95633 0 1.8759 0.03678 2.8322 0.47817 1.4345 0.73564 2.1702 2.2069 2.1702 3.6782 0 1.4713-0.69886 2.8322-2.023 3.4943-0.88278 0.44139-1.7656 0.47817-2.6851 0.47817h-4.4506z"/>
   <path d="m423.87 47.803 1.2874 1.692c1.3977-1.4345 3.2736-1.8759 4.8553-1.8759 1.9862 0 2.9794 0.84599 3.4575 1.6184 0.55174 0.91956 0.51495 2.023 0.51495 2.9058v0.58852h-0.51495c-2.5012 0-5.1495 0-7.2829 0.77243-2.6483 0.95634-3.8254 2.9426-3.8254 4.7817 0 2.4644 2.1334 4.7817 5.6277 4.7817 2.0598 0 4.1932-0.77243 6.0323-2.2805v1.8391h2.5012v-10.409c0-1.3609-0.0368-2.6483-0.80921-3.9725-1.1035-1.8023-3.2368-2.7587-5.8484-2.7587-2.2437 0-4.4139 0.69886-5.9955 2.3173zm10.225 6.9518v1.1402c0 0.84599 0 1.9495-1.1402 3.1633-0.6253 0.6253-2.2069 1.9862-4.4139 1.9862-2.2437 0-3.5311-1.4345-3.5311-2.9058 0-1.2506 0.84599-2.6115 2.9426-3.1265 1.5449-0.36782 3.7886-0.25748 5.5541-0.25748z"/>
   <path d="m439.5 45.817 3.384 16.846h2.3908l2.9426-10.888 3.1265 10.888h2.4644c1.1402-5.5541 2.0966-11.182 2.7955-16.809h-2.4276c0.0736 2.023-0.11035 3.8989-1.5816 13.462l-3.5311-11.917h-1.6184l-2.9058 11.954-2.4276-12.138c-0.0736-0.25748-0.0736-0.36782 0.0368-0.66208 0.0368-0.18391 0.14712-0.44139 0.0368-0.73564z"/>
   <path d="m479.63 45.817v2.1702h4.046v12.543h-4.2667v2.0966h10.888v-2.0966h-3.9357v-14.713zm5.4438-7.2829c-1.0667 0-1.9127 0.84599-1.9127 1.8759 0 1.0299 0.84599 1.8759 1.9127 1.8759 1.0667 0 1.9127-0.84599 1.9127-1.8759 0-1.0299-0.846-1.8759-1.9127-1.8759z"/>
   <path d="m495.48 62.626h2.4276v-11.182c0-0.80921 0.0736-1.5449 0.55173-2.4276 0.58852-1.1035 1.3242-1.5449 2.023-1.5449 0.58852 0 1.2506 0.36782 1.5449 1.2874 0.22069 0.69886 0.18391 1.5081 0.18391 2.2069v11.66h2.4644v-11.108c0-0.88277 0.0736-1.5816 0.69886-2.6483 0.29426-0.44139 0.91956-1.5081 1.9495-1.5081 0.55174 0 1.0667 0.33104 1.3242 0.95634 0.33104 0.69886 0.25747 1.6552 0.25747 2.4276v11.917h2.5012v-11.954c0-1.3977 0.0368-2.7955-0.69887-3.9357-0.6253-0.95634-1.692-1.3242-2.6115-1.3242-1.6184 0-3.1265 0.95634-3.7886 2.4276-0.25748-1.3977-1.4345-2.4276-2.9426-2.4276-1.3977 0-2.6851 0.88277-3.4575 2.0598l0.0368-1.6552h-2.4644z"/>
   <path d="m515.83 47.803 1.2874 1.692c1.3977-1.4345 3.2736-1.8759 4.8553-1.8759 1.9862 0 2.9794 0.84599 3.4575 1.6184 0.55174 0.91956 0.51495 2.023 0.51495 2.9058v0.58852h-0.51495c-2.5012 0-5.1495 0-7.2829 0.77243-2.6483 0.95634-3.8254 2.9426-3.8254 4.7817 0 2.4644 2.1334 4.7817 5.6277 4.7817 2.0598 0 4.1932-0.77243 6.0323-2.2805v1.8391h2.5012v-10.409c0-1.3609-0.0368-2.6483-0.80921-3.9725-1.1035-1.8023-3.2368-2.7587-5.8484-2.7587-2.2437 0-4.4139 0.69886-5.9955 2.3173zm10.225 6.9518v1.1402c0 0.84599 0 1.9495-1.1402 3.1633-0.6253 0.6253-2.2069 1.9862-4.4139 1.9862-2.2437 0-3.5311-1.4345-3.5311-2.9058 0-1.2506 0.84599-2.6115 2.9426-3.1265 1.5449-0.36782 3.7886-0.25748 5.5541-0.25748z"/>
   <path d="m535.5 51.076c0-2.023 1.692-3.6782 3.715-3.6782 2.0598 0 3.715 1.6552 3.715 3.6782s-1.6552 3.6782-3.715 3.6782c-2.0598 0-3.715-1.6552-3.715-3.6782zm3.8621-5.7748c-3.3472 0-6.253 2.6483-6.253 5.9219 0 1.8391 0.91956 3.5679 2.4644 4.561-1.2138 1.0299-1.9127 2.1702-1.9127 3.2368 0 0.69886 0.29426 1.692 1.361 2.2437-1.8023 1.1403-2.7219 2.3908-2.7219 3.715 0 1.8391 1.692 4.0093 7.5772 4.0093 5.7012 0 7.761-2.9058 7.761-5.1495 0-1.4713-0.84599-2.9426-2.6115-3.6414-1.7655-0.73565-3.7886-0.47817-5.7012-0.47817-1.2506 0-2.0598-0.11035-2.3908-0.22069-0.66209-0.18391-1.0299-0.58852-1.0299-1.1035 0-0.88278 1.0299-1.7288 1.2138-1.8759 0.66208 0.25748 1.3977 0.36782 2.1334 0.36782 3.3104 0 6.0323-2.6483 6.0323-5.738 0-1.0299-0.29426-2.023-0.84599-2.869 0.88277-0.51495 1.9127-0.80921 2.9426-0.80921 0.33104 0 0.6253 0.03678 0.95634 0.11035l-0.29426-2.1702c-1.692-0.14713-3.384 0.4046-4.6714 1.4713-1.0667-1.0299-2.4644-1.5816-4.0093-1.5816zm-2.538 16.442c0.6253 0.07356 1.5081 0.14713 2.7954 0.22069 1.2506 0.03678 2.6115-0.07356 3.5679 0.07356 1.5449 0.25748 2.023 1.2138 2.023 1.9495s-0.44139 1.6184-1.5816 2.2437c-1.2506 0.66208-2.6483 0.73564-3.7886 0.73564-0.77242 0-2.2069-0.03678-3.4575-0.55173-1.3609-0.55173-1.6552-1.4713-1.6552-2.0598 0-1.2138 1.1402-2.0966 2.0966-2.6115z"/>
   <path d="m558.79 45.449c-4.0093 0-7.7243 2.869-7.7243 8.9749 0 5.6277 3.4943 8.607 8.0553 8.607 2.4276 0 4.5978-0.88277 6.0323-2.6115l-1.4713-1.4345c-1.0667 1.2506-2.6851 1.9127-4.3403 1.9127-2.2437 0-5.5173-1.2506-5.7012-6.2898h11.917c0.11035-1.1402 0.0736-2.2437-0.11034-3.2001-0.77243-4.5242-3.8989-5.9587-6.6576-5.9587zm-5.076 7.1358c0.55174-3.9725 3.0897-5.1127 4.892-5.1127 2.7219 0 4.6713 2.3908 4.3403 5.1127z"/>
   <path d="m599.73 48.281c-0.80921-1.7288-2.6115-2.869-4.9288-2.869-3.2001 0-7.099 2.2805-7.099 8.6806 0 6.2162 3.4575 8.9381 6.6944 8.9381 2.1334 0 4.1196-1.2138 5.1863-3.0897v1.4713c0 0.4046 0.0368 0.80921 0.14713 1.2138h2.6483c-0.14713-0.47817-0.14713-1.0299-0.14713-1.5449l-0.0368-21.849c0-0.22069 0-0.29426 0.14713-0.51495 0.0736-0.11035 0.22069-0.29426 0.18391-0.55173h-2.7954zm-4.8185-0.69886c1.4713 0 3.6414 0.77243 4.3035 3.2736 0.22069 0.77243 0.29426 1.692 0.29426 3.5679 0 1.2874-0.0736 2.2069-0.36783 3.0897-0.62529 1.9862-2.3908 3.1633-4.1196 3.1633-1.9127 0-4.7449-1.4713-4.7449-6.9886 0-4.8185 2.6851-6.1059 4.6346-6.1059z"/>
   <path d="m607.78 47.803 1.2874 1.692c1.3977-1.4345 3.2736-1.8759 4.8553-1.8759 1.9862 0 2.9794 0.84599 3.4575 1.6184 0.55173 0.91956 0.51495 2.023 0.51495 2.9058v0.58852h-0.51495c-2.5012 0-5.1495 0-7.2829 0.77243-2.6483 0.95634-3.8254 2.9426-3.8254 4.7817 0 2.4644 2.1334 4.7817 5.6277 4.7817 2.0598 0 4.1932-0.77243 6.0323-2.2805v1.8391h2.5012v-10.409c0-1.3609-0.0368-2.6483-0.80921-3.9725-1.1035-1.8023-3.2368-2.7587-5.8484-2.7587-2.2437 0-4.4139 0.69886-5.9955 2.3173zm10.225 6.9518v1.1402c0 0.84599 0 1.9495-1.1402 3.1633-0.6253 0.6253-2.2069 1.9862-4.4139 1.9862-2.2437 0-3.5311-1.4345-3.5311-2.9058 0-1.2506 0.84599-2.6115 2.9426-3.1265 1.5448-0.36782 3.7886-0.25748 5.5541-0.25748z"/>
   <path d="m629.78 41.329-0.33104 4.5242h-4.0093l-0.0368 2.1702h3.9357c-0.22069 2.869-0.33104 5.738-0.33104 8.5703 0 1.5081 0 3.2001 0.99312 4.5978 0.80921 1.1035 2.0966 1.7655 3.8254 1.7655 1.9862 0 3.9357-0.84599 5.3702-1.8759l-0.80921-2.0966c-1.4345 1.0667-2.7587 1.5449-3.7886 1.5449-1.2506 0-2.538-0.69886-2.8322-2.7219 0-0.14713-0.11035-0.77243-0.11035-3.2368 0-2.1702 0.11035-4.3771 0.33104-6.5472h5.5173v-2.2069h-5.4806s0.25747-3.0161 0.44138-3.9725c0.0368-0.36782 0.33104-0.58852 0.18391-0.99312z"/>
   <path d="m644.56 47.803 1.2874 1.692c1.3977-1.4345 3.2736-1.8759 4.8553-1.8759 1.9862 0 2.9794 0.84599 3.4575 1.6184 0.55173 0.91956 0.51495 2.023 0.51495 2.9058v0.58852h-0.51495c-2.5012 0-5.1495 0-7.2829 0.77243-2.6483 0.95634-3.8254 2.9426-3.8254 4.7817 0 2.4644 2.1334 4.7817 5.6277 4.7817 2.0598 0 4.1932-0.77243 6.0323-2.2805v1.8391h2.5012v-10.409c0-1.3609-0.0368-2.6483-0.80921-3.9725-1.1035-1.8023-3.2368-2.7587-5.8484-2.7587-2.2437 0-4.4139 0.69886-5.9955 2.3173zm10.225 6.9518v1.1402c0 0.84599 0 1.9495-1.1402 3.1633-0.62529 0.6253-2.2069 1.9862-4.4139 1.9862-2.2437 0-3.5311-1.4345-3.5311-2.9058 0-1.2506 0.846-2.6115 2.9426-3.1265 1.5448-0.36782 3.7886-0.25748 5.5541-0.25748z"/>
  </g>
 </g>
 <g fill="none" stroke="#b62a2a" stroke-width="5.8852px">
  <path d="m203.86 745.58v-50.392"/>
  <path d="m203.86 598.08v-50.392"/>
  <path d="m203.86 451.31v-50.392"/>
  <path d="m203.86 304.23v-50.392"/>
  <path d="m851.2 730.5v-50.392"/>
  <path d="m851.2 582.99v-50.392"/>
  <path d="m851.2 436.22v-50.392"/>
  <path d="m851.2 289.15v-50.392"/>
 </g>
 <g>
  <rect x="11.177" y="158.01" width="380.03" height="79.882" fill="#3b390d" fill-opacity=".38431" stroke="#e9e56f" stroke-width="1.7655"/>
  <g fill="#e9e56f" stroke-width="5.8852px" aria-label="Color transform">
   <path d="m71.018 186.66c-3.5679 0-8.7174 2.6115-8.7174 11.807 0 8.8277 4.9288 11.697 8.7174 11.697 2.7219 0 5.2599-1.4345 6.6944-3.7886l-1.8759-1.2138c-1.0667 1.7288-2.9058 2.7587-4.6713 2.7587-3.384 0-6.3633-3.4943-6.3633-9.7105 0-6.0691 2.9058-9.4898 6.1426-9.4898 1.7655 0 3.4575 1.0667 4.3771 2.6851 0.07356 0.11035 0.14713 0.2207 0.14713 0.36782 0 0.11035-0.03678 0.18392-0.03678 0.29426 0 0.0368 0 0.2207 0.18391 0.33104l2.4276-1.177c-1.2138-2.7587-3.9725-4.561-7.0254-4.561z"/>
   <path d="m96.14 201.44c0-5.8116-3.6782-8.8277-7.5036-8.8277-4.2667 0-7.945 3.6782-7.945 8.9013 0 5.1127 3.6414 8.7174 7.8714 8.7174 3.9725 0 7.5771-3.2001 7.5771-8.791zm-7.6875-6.584c2.4276 0 5.0024 2.0966 5.0024 6.6944 0 4.23-2.4276 6.3633-4.8553 6.3633-2.6851 0-5.1127-2.5012-5.1127-6.6576 0-4.1196 2.3908-6.4001 4.9656-6.4001z"/>
   <path d="m100.7 185.33v2.1334h4.7817v20.193h-5.0024v2.0966h12.616v-2.0966h-4.9656v-22.327z"/>
   <path d="m132.92 201.44c0-5.8116-3.6782-8.8277-7.5036-8.8277-4.2668 0-7.945 3.6782-7.945 8.9013 0 5.1127 3.6414 8.7174 7.8714 8.7174 3.9725 0 7.5772-3.2001 7.5772-8.791zm-7.6875-6.584c2.4276 0 5.0024 2.0966 5.0024 6.6944 0 4.23-2.4276 6.3633-4.8552 6.3633-2.6851 0-5.1127-2.5012-5.1127-6.6576 0-4.1196 2.3908-6.4001 4.9656-6.4001z"/>
   <path d="m138.04 192.98v16.809h2.6483v-8.1657c0-1.0299 0.0368-2.1334 1.177-3.9357 1.5448-2.4276 3.5311-2.8322 4.7449-2.8322 1.3977 0 2.2805 0.66208 2.7587 1.2506 0.2207 0.29426 0.33104 0.58852 0.6253 0.84599l1.2506-2.538c-1.0667-1.1035-2.6115-1.8391-4.4874-1.8391-2.4644 0-4.9656 1.2506-6.0691 3.6414l0.11034-3.2368z"/>
   <path d="m178.09 188.46-0.33104 4.5242h-4.0093l-0.0368 2.1702h3.9357c-0.22069 2.869-0.33104 5.738-0.33104 8.5703 0 1.5081 0 3.2001 0.99312 4.5978 0.80921 1.1035 2.0966 1.7656 3.8254 1.7656 1.9862 0 3.9357-0.84599 5.3702-1.8759l-0.80921-2.0966c-1.4345 1.0667-2.7587 1.5448-3.7886 1.5448-1.2506 0-2.538-0.69886-2.8322-2.7219 0-0.14713-0.11034-0.77243-0.11034-3.2368 0-2.1702 0.11034-4.3771 0.33104-6.5472h5.5173v-2.2069h-5.4806s0.25747-3.0162 0.44139-3.9725c0.0368-0.36782 0.33104-0.58851 0.18391-0.99312z"/>
   <path d="m193.21 192.98v16.809h2.6483v-8.1657c0-1.0299 0.0368-2.1334 1.177-3.9357 1.5449-2.4276 3.5311-2.8322 4.7449-2.8322 1.3977 0 2.2805 0.66208 2.7587 1.2506 0.2207 0.29426 0.33104 0.58852 0.6253 0.84599l1.2506-2.538c-1.0667-1.1035-2.6115-1.8391-4.4874-1.8391-2.4644 0-4.9656 1.2506-6.0691 3.6414l0.11034-3.2368z"/>
   <path d="m211.27 194.93 1.2874 1.692c1.3977-1.4345 3.2736-1.8759 4.8553-1.8759 1.9862 0 2.9794 0.84599 3.4575 1.6184 0.55174 0.91955 0.51496 2.023 0.51496 2.9058v0.58851h-0.51496c-2.5012 0-5.1495 0-7.2829 0.77243-2.6483 0.95634-3.8254 2.9426-3.8254 4.7817 0 2.4644 2.1334 4.7817 5.6277 4.7817 2.0598 0 4.1932-0.77243 6.0323-2.2805v1.8391h2.5012v-10.409c0-1.3609-0.0368-2.6483-0.80921-3.9725-1.1035-1.8023-3.2368-2.7587-5.8484-2.7587-2.2437 0-4.4139 0.69886-5.9955 2.3173zm10.225 6.9518v1.1402c0 0.84599 0 1.9495-1.1402 3.1633-0.6253 0.6253-2.2069 1.9862-4.4139 1.9862-2.2437 0-3.5311-1.4345-3.5311-2.9058 0-1.2506 0.846-2.6115 2.9426-3.1265 1.5449-0.36782 3.7886-0.25747 5.5541-0.25747z"/>
   <path d="m228.85 209.75h2.6851v-9.6737c0-1.1035 0.14713-1.9495 0.84599-2.869 0.6253-0.84599 2.2437-2.3541 4.0093-2.3541 0.84599 0 1.692 0.36782 2.2805 1.0667 0.91955 1.1035 0.91955 2.538 0.91955 3.715v10.115h2.6115v-10.189c0-1.2874 0-2.6851-0.58851-4.046-0.84599-1.8759-2.5748-2.9426-4.4874-2.9426-2.2805 0-4.3403 1.4713-5.5909 3.3472v-2.9426h-2.6851z"/>
   <path d="m260.63 195.19c-1.5448-1.692-3.7886-2.6116-6.2898-2.6116-3.8989 0-6.4369 2.1702-6.4369 4.6714 0 2.9426 3.1633 4.0093 4.0828 4.3403 1.4345 0.51495 3.2736 0.95634 4.5242 1.5448 1.3977 0.66209 1.6552 1.5449 1.6552 2.1334 0 1.5816-1.9127 2.6483-4.3035 2.6483-2.869 0-4.7081-1.7288-5.2599-2.3173-0.11034-0.14713-0.11034-0.25748-0.11034-0.40461 0-0.0368 0.0368-0.25747-0.14713-0.33104l-1.5449 2.6115c1.9862 1.8391 4.561 2.6851 7.099 2.6851 4.5978 0 6.9886-2.7219 6.9886-5.2599 0-1.1402-0.47817-2.6851-2.4644-3.7886-1.8759-1.0667-4.5978-1.4345-6.1794-2.2069-1.361-0.66208-1.6552-1.4713-1.6552-2.0598 0-1.3242 1.6552-2.2805 3.5311-2.2805 2.4276 0 4.046 1.4713 4.6714 2.3173 0.11035 0.11035 0.0736 0.22069 0.0736 0.33104 0 0.22069 0.14713 0.29426 0.22069 0.29426z"/>
   <path d="m275.75 185.11c-2.3541 0-4.561 0.99313-5.738 2.9058-0.88277 1.3977-0.91955 2.7955-0.91955 4.3035v1.6552h-3.6782v2.0966h3.6782v13.683h2.538v-13.683h5.4806v-2.0966h-5.4806v-1.3242c0-1.2138-0.0368-2.5012 0.58852-3.6047 0.69886-1.2506 2.023-1.8759 3.384-1.8759 1.6184 0 2.9794 0.84599 3.6782 1.9127 0.11035 0.18391 0.11035 0.29426 0.11035 0.44139 0 0.25747 0.18391 0.33104 0.29426 0.33104l1.2138-2.4644c-1.2138-1.4345-3.0529-2.2805-5.1495-2.2805z"/>
   <path d="m298.44 201.44c0-5.8116-3.6782-8.8277-7.5036-8.8277-4.2667 0-7.945 3.6782-7.945 8.9013 0 5.1127 3.6414 8.7174 7.8714 8.7174 3.9725 0 7.5772-3.2001 7.5772-8.791zm-7.6875-6.584c2.4276 0 5.0024 2.0966 5.0024 6.6944 0 4.23-2.4276 6.3633-4.8553 6.3633-2.6851 0-5.1127-2.5012-5.1127-6.6576 0-4.1196 2.3908-6.4001 4.9656-6.4001z"/>
   <path d="m303.56 192.98v16.809h2.6483v-8.1657c0-1.0299 0.0368-2.1334 1.177-3.9357 1.5448-2.4276 3.5311-2.8322 4.7449-2.8322 1.3977 0 2.2805 0.66208 2.7587 1.2506 0.22069 0.29426 0.33104 0.58852 0.6253 0.84599l1.2506-2.538c-1.0667-1.1035-2.6115-1.8391-4.4874-1.8391-2.4644 0-4.9656 1.2506-6.0691 3.6414l0.11035-3.2368z"/>
   <path d="m319.67 209.75h2.4276v-11.182c0-0.80921 0.0736-1.5448 0.55174-2.4276 0.58851-1.1035 1.3242-1.5448 2.023-1.5448 0.58852 0 1.2506 0.36782 1.5449 1.2874 0.22069 0.69886 0.18391 1.5081 0.18391 2.2069v11.66h2.4644v-11.108c0-0.88278 0.0736-1.5816 0.69886-2.6483 0.29426-0.44139 0.91956-1.5081 1.9495-1.5081 0.55174 0 1.0667 0.33104 1.3242 0.95634 0.33104 0.69886 0.25747 1.6552 0.25747 2.4276v11.917h2.5012v-11.954c0-1.3977 0.0368-2.7954-0.69887-3.9357-0.6253-0.95634-1.692-1.3242-2.6115-1.3242-1.6184 0-3.1265 0.95634-3.7886 2.4276-0.25748-1.3977-1.4345-2.4276-2.9426-2.4276-1.3977 0-2.6851 0.88278-3.4575 2.0598l0.0368-1.6552h-2.4644z"/>
  </g>
  <rect x="11.177" y="305.14" width="380.03" height="79.882" fill="#3b390d" fill-opacity=".38431" stroke="#e9e56f" stroke-width="1.7655"/>
  <g fill="#6f82e9" stroke-width="5.8852px" aria-label="Up-sampling">
   <path d="m103.86 333.97v15.044c0 1.6184 0.0368 3.1633 0.88278 4.7449 1.2506 2.3541 3.8254 3.5679 6.5105 3.5679 2.6483 0 5.2231-1.177 6.5105-3.6047 0.88277-1.5816 0.91955-3.1633 0.91955-4.8553v-14.897h-2.4276v14.97c0 1.177-0.0368 2.3173-0.58851 3.4943-0.84599 1.7656-2.5748 2.6851-4.3771 2.6851s-3.5311-0.95633-4.3403-2.7219c-0.55173-1.1035-0.55173-2.2437-0.55173-3.384v-13.867c0-0.14712 0-0.29425 0.14713-0.47817 0.0736-0.11034 0.22069-0.29425 0.22069-0.51495 0-0.0368 0-0.11034-0.0368-0.18391z"/>
   <path d="m122.59 340.11 0.0368 22.915h2.6851v-8.3496c1.1402 1.6552 3.0162 2.6851 5.0392 2.6851 3.4575 0 7.0622-2.9058 7.0622-9.0484 0-5.922-3.4943-8.5703-6.8047-8.5703-2.1702 0-4.1932 1.1035-5.3334 2.9426v-2.5748zm7.0254 1.8759c1.4713 0 5.0392 0.77242 5.0392 6.8783 0 5.2966-3.4575 6.1426-5.0392 6.1426-1.5816 0-3.2001-0.80921-3.8621-2.3173-0.47817-1.1402-0.47817-2.538-0.47817-4.9656 0-1.3977 0.0736-2.4276 0.44139-3.3104 0.66208-1.5081 2.2069-2.4276 3.8989-2.4276z"/>
   <path d="m141.38 344.12v2.4276h13.242v-2.4276z"/>
   <path d="m173.09 342.32c-1.5448-1.692-3.7886-2.6115-6.2898-2.6115-3.8989 0-6.4369 2.1702-6.4369 4.6713 0 2.9426 3.1633 4.0093 4.0828 4.3403 1.4345 0.51495 3.2736 0.95634 4.5242 1.5449 1.3977 0.66208 1.6552 1.5448 1.6552 2.1334 0 1.5816-1.9127 2.6483-4.3035 2.6483-2.869 0-4.7081-1.7288-5.2599-2.3173-0.11034-0.14713-0.11034-0.25748-0.11034-0.40461 0-0.0368 0.0368-0.25747-0.14713-0.33104l-1.5449 2.6115c1.9862 1.8391 4.561 2.6851 7.099 2.6851 4.5978 0 6.9886-2.7219 6.9886-5.2599 0-1.1402-0.47817-2.6851-2.4644-3.7886-1.8759-1.0667-4.5978-1.4345-6.1794-2.2069-1.361-0.66208-1.6552-1.4713-1.6552-2.0598 0-1.3242 1.6552-2.2805 3.5311-2.2805 2.4276 0 4.046 1.4713 4.6714 2.3173 0.11035 0.11035 0.0736 0.22069 0.0736 0.33104 0 0.22069 0.14713 0.29426 0.2207 0.29426z"/>
   <path d="m178.9 342.06 1.2874 1.692c1.3977-1.4345 3.2736-1.8759 4.8553-1.8759 1.9862 0 2.9794 0.84599 3.4575 1.6184 0.55174 0.91955 0.51495 2.023 0.51495 2.9058v0.58851h-0.51495c-2.5012 0-5.1495 0-7.2829 0.77243-2.6483 0.95634-3.8254 2.9426-3.8254 4.7817 0 2.4644 2.1334 4.7817 5.6277 4.7817 2.0598 0 4.1932-0.77243 6.0323-2.2805v1.8391h2.5012v-10.409c0-1.3609-0.0368-2.6483-0.80921-3.9725-1.1035-1.8023-3.2368-2.7587-5.8484-2.7587-2.2437 0-4.4139 0.69886-5.9955 2.3173zm10.225 6.9518v1.1402c0 0.84599 0 1.9495-1.1402 3.1633-0.6253 0.6253-2.2069 1.9862-4.4139 1.9862-2.2437 0-3.5311-1.4345-3.5311-2.9058 0-1.2506 0.84599-2.6115 2.9426-3.1265 1.5449-0.36782 3.7886-0.25747 5.5541-0.25747z"/>
   <path d="m195.34 356.88h2.4276v-11.182c0-0.80921 0.0736-1.5448 0.55173-2.4276 0.58852-1.1035 1.3242-1.5448 2.023-1.5448 0.58851 0 1.2506 0.36782 1.5448 1.2874 0.2207 0.69886 0.18391 1.5081 0.18391 2.2069v11.66h2.4644v-11.108c0-0.88278 0.0736-1.5816 0.69886-2.6483 0.29426-0.44139 0.91956-1.5081 1.9495-1.5081 0.55173 0 1.0667 0.33104 1.3242 0.95634 0.33104 0.69886 0.25748 1.6552 0.25748 2.4276v11.917h2.5012v-11.954c0-1.3977 0.0368-2.7954-0.69886-3.9357-0.6253-0.95634-1.692-1.3242-2.6115-1.3242-1.6184 0-3.1265 0.95633-3.7886 2.4276-0.25747-1.3977-1.4345-2.4276-2.9426-2.4276-1.3977 0-2.6851 0.88277-3.4575 2.0598l0.0368-1.6552h-2.4644z"/>
   <path d="m214.54 340.11 0.0368 22.915h2.6851v-8.3496c1.1402 1.6552 3.0162 2.6851 5.0392 2.6851 3.4575 0 7.0622-2.9058 7.0622-9.0484 0-5.922-3.4943-8.5703-6.8047-8.5703-2.1702 0-4.1932 1.1035-5.3334 2.9426v-2.5748zm7.0254 1.8759c1.4713 0 5.0392 0.77242 5.0392 6.8783 0 5.2966-3.4575 6.1426-5.0392 6.1426s-3.2001-0.80921-3.8621-2.3173c-0.47817-1.1402-0.47817-2.538-0.47817-4.9656 0-1.3977 0.0736-2.4276 0.44139-3.3104 0.66208-1.5081 2.2069-2.4276 3.8989-2.4276z"/>
   <path d="m233.85 332.46v2.1334h4.7817v20.193h-5.0024v2.0966h12.616v-2.0966h-4.9656v-22.327z"/>
   <path d="m253.05 340.07v2.1702h4.046v12.543h-4.2668v2.0966h10.888v-2.0966h-3.9357v-14.713zm5.4438-7.2829c-1.0667 0-1.9127 0.84599-1.9127 1.8759 0 1.0299 0.846 1.8759 1.9127 1.8759 1.0667 0 1.9127-0.84599 1.9127-1.8759 0-1.0299-0.84599-1.8759-1.9127-1.8759z"/>
   <path d="m270.05 356.88h2.6851v-9.6737c0-1.1035 0.14713-1.9495 0.846-2.869 0.62529-0.84599 2.2437-2.3541 4.0093-2.3541 0.846 0 1.692 0.36782 2.2805 1.0667 0.91956 1.1035 0.91956 2.538 0.91956 3.715v10.115h2.6115v-10.189c0-1.2874 0-2.6851-0.58852-4.046-0.84599-1.8759-2.5748-2.9426-4.4874-2.9426-2.2805 0-4.3403 1.4713-5.5909 3.3472v-2.9426h-2.6851z"/>
   <path d="m290.53 345.33c0-2.023 1.692-3.6782 3.715-3.6782 2.0598 0 3.715 1.6552 3.715 3.6782 0 2.023-1.6552 3.6782-3.715 3.6782-2.0598 0-3.715-1.6552-3.715-3.6782zm3.8621-5.7748c-3.3472 0-6.253 2.6483-6.253 5.9219 0 1.8391 0.91956 3.5679 2.4644 4.561-1.2138 1.0299-1.9127 2.1702-1.9127 3.2368 0 0.69886 0.29426 1.692 1.361 2.2437-1.8023 1.1402-2.7219 2.3908-2.7219 3.715 0 1.8391 1.692 4.0093 7.5772 4.0093 5.7012 0 7.761-2.9058 7.761-5.1495 0-1.4713-0.84599-2.9426-2.6115-3.6414-1.7656-0.73564-3.7886-0.47817-5.7012-0.47817-1.2506 0-2.0598-0.11034-2.3908-0.22069-0.66208-0.18391-1.0299-0.58852-1.0299-1.1035 0-0.88277 1.0299-1.7288 1.2138-1.8759 0.66208 0.25747 1.3977 0.36782 2.1334 0.36782 3.3104 0 6.0323-2.6483 6.0323-5.738 0-1.0299-0.29426-2.023-0.84599-2.869 0.88277-0.51495 1.9127-0.80921 2.9426-0.80921 0.33104 0 0.6253 0.0368 0.95634 0.11035l-0.29426-2.1702c-1.692-0.14713-3.384 0.40461-4.6714 1.4713-1.0667-1.0299-2.4644-1.5816-4.0093-1.5816zm-2.538 16.442c0.6253 0.0736 1.5081 0.14713 2.7954 0.22069 1.2506 0.0368 2.6115-0.0736 3.5679 0.0736 1.5448 0.25747 2.023 1.2138 2.023 1.9495 0 0.73564-0.44138 1.6184-1.5816 2.2437-1.2506 0.66209-2.6483 0.73565-3.7886 0.73565-0.77242 0-2.2069-0.0368-3.4575-0.55173-1.3609-0.55174-1.6552-1.4713-1.6552-2.0598 0-1.2138 1.1402-2.0966 2.0966-2.6115z"/>
  </g>
  <rect x="11.177" y="452.27" width="380.03" height="79.882" fill="#3b390d" fill-opacity=".38431" stroke="#e9e56f" stroke-width="1.7655"/>
  <g fill="#e96f6f" stroke-width="5.8852px" aria-label="Inverse DCT">
   <path d="m105.26 481.1v2.1702h4.23v18.649h-4.4874v2.1334h11.844v-2.0966h-4.7817v-18.685h4.5242v-2.1702z"/>
   <path d="m122.92 504.01h2.6851v-9.6737c0-1.1035 0.14713-1.9495 0.84599-2.869 0.6253-0.846 2.2437-2.3541 4.0093-2.3541 0.84599 0 1.692 0.36782 2.2805 1.0667 0.91956 1.1035 0.91956 2.538 0.91956 3.715v10.115h2.6115v-10.189c0-1.2874 0-2.6851-0.58852-4.046-0.84599-1.8759-2.5748-2.9426-4.4874-2.9426-2.2805 0-4.3403 1.4713-5.5909 3.3472v-2.9426h-2.6851z"/>
   <path d="m140.24 487.2 6.6576 16.957h2.0966l4.0828-9.6002c0.99312-2.3541 1.9495-4.7817 2.5012-7.3565h-2.3908c-0.44139 2.4644-1.3242 4.7817-2.2805 6.9886l-2.6851 6.253-4.8553-12.285c-0.0368-0.0736-0.0736-0.14713-0.0736-0.22069 0-0.2207 0.18391-0.44139 0.11035-0.73565z"/>
   <path d="m166.69 486.84c-4.0093 0-7.7243 2.869-7.7243 8.9749 0 5.6277 3.4943 8.607 8.0553 8.607 2.4276 0 4.5978-0.88277 6.0323-2.6115l-1.4713-1.4345c-1.0667 1.2506-2.6851 1.9127-4.3403 1.9127-2.2437 0-5.5173-1.2506-5.7012-6.2898h11.917c0.11034-1.1402 0.0736-2.2437-0.11035-3.2-0.77243-4.5242-3.8989-5.9587-6.6576-5.9587zm-5.076 7.1358c0.55173-3.9725 3.0897-5.1127 4.892-5.1127 2.7219 0 4.6714 2.3908 4.3403 5.1127z"/>
   <path d="m179.23 487.24v16.81h2.6483v-8.1657c0-1.0299 0.0368-2.1334 1.177-3.9357 1.5448-2.4276 3.5311-2.8322 4.7449-2.8322 1.3977 0 2.2805 0.66208 2.7587 1.2506 0.22069 0.29426 0.33104 0.58851 0.6253 0.84599l1.2506-2.538c-1.0667-1.1035-2.6115-1.8391-4.4874-1.8391-2.4644 0-4.9656 1.2506-6.0691 3.6414l0.11035-3.2368z"/>
   <path d="m209.87 489.45c-1.5448-1.692-3.7886-2.6115-6.2898-2.6115-3.8989 0-6.4369 2.1702-6.4369 4.6714 0 2.9426 3.1633 4.0093 4.0828 4.3403 1.4345 0.51496 3.2736 0.95634 4.5242 1.5449 1.3977 0.66208 1.6552 1.5448 1.6552 2.1334 0 1.5816-1.9127 2.6483-4.3035 2.6483-2.869 0-4.7081-1.7288-5.2599-2.3173-0.11034-0.14713-0.11034-0.25747-0.11034-0.4046 0-0.0368 0.0368-0.25748-0.14713-0.33104l-1.5449 2.6115c1.9862 1.8391 4.561 2.6851 7.099 2.6851 4.5978 0 6.9886-2.7219 6.9886-5.2599 0-1.1402-0.47817-2.6851-2.4644-3.7886-1.8759-1.0667-4.5978-1.4345-6.1794-2.2069-1.361-0.66208-1.6552-1.4713-1.6552-2.0598 0-1.3242 1.6552-2.2805 3.5311-2.2805 2.4276 0 4.046 1.4713 4.6714 2.3173 0.11035 0.11035 0.0736 0.2207 0.0736 0.33105 0 0.22069 0.14712 0.29425 0.22069 0.29425z"/>
   <path d="m221.86 486.84c-4.0093 0-7.7243 2.869-7.7243 8.9749 0 5.6277 3.4943 8.607 8.0553 8.607 2.4276 0 4.5978-0.88277 6.0323-2.6115l-1.4713-1.4345c-1.0667 1.2506-2.6851 1.9127-4.3403 1.9127-2.2437 0-5.5173-1.2506-5.7012-6.2898h11.917c0.11035-1.1402 0.0736-2.2437-0.11034-3.2-0.77243-4.5242-3.8989-5.9587-6.6576-5.9587zm-5.076 7.1358c0.55174-3.9725 3.0897-5.1127 4.892-5.1127 2.7219 0 4.6714 2.3908 4.3403 5.1127z"/>
   <path d="m251.1 481.1v22.952h4.9288c1.8023 0 3.3472-0.0736 4.9656-0.91956 3.2736-1.692 5.076-5.5909 5.076-10.593 0-4.4139-1.3242-8.276-4.2667-10.189-1.6552-1.1035-3.3104-1.2506-5.3334-1.2506zm2.4276 2.2069h2.7954c1.4345 0 2.869 0.0736 4.3035 1.2506 2.1334 1.7656 2.8322 5.0392 2.8322 8.3128 0 4.3771-1.4345 6.8783-3.2736 8.1289-1.4345 0.95634-2.869 1.0299-4.3035 1.0299h-2.3541z"/>
   <path d="m277.73 480.91c-3.5679 0-8.7174 2.6115-8.7174 11.807 0 8.8278 4.9288 11.697 8.7174 11.697 2.7219 0 5.2599-1.4345 6.6944-3.7886l-1.8759-1.2138c-1.0667 1.7288-2.9058 2.7587-4.6714 2.7587-3.384 0-6.3633-3.4943-6.3633-9.7105 0-6.0691 2.9058-9.4898 6.1426-9.4898 1.7656 0 3.4575 1.0667 4.3771 2.6851 0.0736 0.11034 0.14713 0.22069 0.14713 0.36782 0 0.11035-0.0368 0.18391-0.0368 0.29426 0 0.0368 0 0.22069 0.18392 0.33104l2.4276-1.177c-1.2138-2.7587-3.9725-4.561-7.0254-4.561z"/>
   <path d="m287.08 481.1v2.3173h6.4737v20.635h2.6115v-20.635h6.7679v-2.3173z"/>
  </g>
  <rect x="11.177" y="599.4" width="380.03" height="79.882" fill="#3b390d" fill-opacity=".38431" stroke="#e9e56f" stroke-width="2.3541"/>
  <g fill="#c96fe9" stroke-width="5.8852px" aria-label="Dequantization">
   <path d="m86.319 628.23v22.952h4.9288c1.8023 0 3.3472-0.0736 4.9656-0.91956 3.2736-1.692 5.076-5.5909 5.076-10.593 0-4.4139-1.3242-8.276-4.2667-10.189-1.6552-1.1035-3.3104-1.2506-5.3334-1.2506zm2.4276 2.2069h2.7955c1.4345 0 2.869 0.0736 4.3035 1.2506 2.1334 1.7656 2.8322 5.0392 2.8322 8.3128 0 4.3771-1.4345 6.8783-3.2736 8.1289-1.4345 0.95634-2.869 1.0299-4.3035 1.0299h-2.3541z"/>
   <path d="m112.25 633.96c-4.0093 0-7.7243 2.869-7.7243 8.9749 0 5.6277 3.4943 8.607 8.0553 8.607 2.4276 0 4.5978-0.88277 6.0323-2.6115l-1.4713-1.4345c-1.0667 1.2506-2.6851 1.9127-4.3403 1.9127-2.2437 0-5.5173-1.2506-5.7012-6.2898h11.917c0.11035-1.1403 0.0736-2.2437-0.11034-3.2001-0.77243-4.5242-3.8989-5.9587-6.6576-5.9587zm-5.076 7.1358c0.55174-3.9725 3.0897-5.1127 4.892-5.1127 2.7219 0 4.6714 2.3908 4.3403 5.1127z"/>
   <path d="m134.87 636.8c0 0.0368-1.177-2.869-4.892-2.869-3.6782 0-7.2829 2.9794-7.2829 8.6806 0 5.4438 3.2001 8.9381 6.9151 8.9381 2.1334 0 4.0828-1.2138 5.1495-3.0897v8.8278h2.6115v-22.915h-2.5012zm-4.7817-0.69887c1.5081 0 3.4208 0.77243 4.1564 2.8322 0.33104 0.95634 0.40461 1.9862 0.40461 4.046 0 1.2506-0.0736 2.1702-0.33105 3.0529-0.66208 1.9862-2.3908 3.1633-4.1196 3.1633-2.4276 0-4.8553-2.2069-4.8553-6.9518 0-4.4139 2.5012-6.1426 4.7449-6.1426z"/>
   <path d="m141.82 634.37v9.3795c0 1.4345 0 2.9058 0.66208 4.4139 0.95634 2.2069 3.0161 3.4208 5.2231 3.4208 2.0966 0 4.0828-1.1402 5.1863-2.9794l-0.0368 1.2506c0 0.44139 0 0.88277 0.0736 1.2874h2.7954c-0.18391-0.47817-0.22069-1.0299-0.22069-1.5081v-15.265h-2.6483v9.2323c0 1.2874-0.11035 2.2805-0.66208 3.3104-0.77243 1.4345-2.2805 2.5012-3.8989 2.5012-1.2874 0-2.538-0.73564-3.2001-2.0598-0.58852-1.177-0.58852-2.5012-0.58852-3.6047v-9.3795z"/>
   <path d="m161.24 636.32 1.2874 1.692c1.3977-1.4345 3.2736-1.8759 4.8553-1.8759 1.9862 0 2.9794 0.846 3.4575 1.6184 0.55174 0.91956 0.51496 2.023 0.51496 2.9058v0.58852h-0.51496c-2.5012 0-5.1495 0-7.2829 0.77243-2.6483 0.95634-3.8254 2.9426-3.8254 4.7817 0 2.4644 2.1334 4.7817 5.6277 4.7817 2.0598 0 4.1932-0.77243 6.0323-2.2805v1.8391h2.5012v-10.409c0-1.361-0.0368-2.6483-0.80921-3.9725-1.1035-1.8023-3.2368-2.7587-5.8484-2.7587-2.2437 0-4.4139 0.69887-5.9955 2.3173zm10.225 6.9518v1.1402c0 0.846 0 1.9495-1.1402 3.1633-0.6253 0.6253-2.2069 1.9862-4.4139 1.9862-2.2437 0-3.5311-1.4345-3.5311-2.9058 0-1.2506 0.84599-2.6115 2.9426-3.1265 1.5449-0.36782 3.7886-0.25748 5.5541-0.25748z"/>
   <path d="m178.83 651.14h2.6851v-9.6737c0-1.1035 0.14713-1.9495 0.84599-2.869 0.6253-0.846 2.2437-2.3541 4.0093-2.3541 0.84599 0 1.692 0.36782 2.2805 1.0667 0.91955 1.1035 0.91955 2.538 0.91955 3.715v10.115h2.6115v-10.189c0-1.2874 0-2.6851-0.58851-4.046-0.84599-1.8759-2.5748-2.9426-4.4874-2.9426-2.2805 0-4.3403 1.4713-5.5909 3.3472v-2.9426h-2.6851z"/>
   <path d="m201.63 629.85-0.33104 4.5242h-4.0093l-0.0368 2.1702h3.9357c-0.22069 2.869-0.33104 5.738-0.33104 8.5703 0 1.5081 0 3.2 0.99312 4.5978 0.80921 1.1035 2.0966 1.7656 3.8254 1.7656 1.9862 0 3.9357-0.84599 5.3702-1.8759l-0.80921-2.0966c-1.4345 1.0667-2.7587 1.5449-3.7886 1.5449-1.2506 0-2.538-0.69886-2.8322-2.7219 0-0.14713-0.11035-0.77243-0.11035-3.2368 0-2.1702 0.11035-4.3771 0.33105-6.5472h5.5173v-2.2069h-5.4806s0.25747-3.0161 0.44138-3.9725c0.0368-0.36782 0.33105-0.58852 0.18392-0.99312z"/>
   <path d="m217.01 634.33v2.1702h4.046v12.543h-4.2667v2.0966h10.888v-2.0966h-3.9357v-14.713zm5.4438-7.2829c-1.0667 0-1.9127 0.84599-1.9127 1.8759s0.84599 1.8759 1.9127 1.8759c1.0667 0 1.9127-0.846 1.9127-1.8759s-0.84599-1.8759-1.9127-1.8759z"/>
   <path d="m234.07 634.33v2.3173h9.6737l-10.409 12.727v1.8023h14.676v-2.5012c-0.44139-0.0736-0.58852 0.22069-1.1035 0.22069h-10.005l10.262-12.763v-1.8023z"/>
   <path d="m253.2 636.32 1.2874 1.692c1.3977-1.4345 3.2736-1.8759 4.8553-1.8759 1.9862 0 2.9794 0.846 3.4575 1.6184 0.55174 0.91956 0.51495 2.023 0.51495 2.9058v0.58852h-0.51495c-2.5012 0-5.1495 0-7.2829 0.77243-2.6483 0.95634-3.8254 2.9426-3.8254 4.7817 0 2.4644 2.1334 4.7817 5.6277 4.7817 2.0598 0 4.1932-0.77243 6.0323-2.2805v1.8391h2.5012v-10.409c0-1.361-0.0368-2.6483-0.80921-3.9725-1.1035-1.8023-3.2368-2.7587-5.8484-2.7587-2.2437 0-4.4139 0.69887-5.9955 2.3173zm10.225 6.9518v1.1402c0 0.846 0 1.9495-1.1402 3.1633-0.6253 0.6253-2.2069 1.9862-4.4139 1.9862-2.2437 0-3.5311-1.4345-3.5311-2.9058 0-1.2506 0.84599-2.6115 2.9426-3.1265 1.5449-0.36782 3.7886-0.25748 5.5541-0.25748z"/>
   <path d="m275.2 629.85-0.33104 4.5242h-4.0093l-0.0368 2.1702h3.9357c-0.22069 2.869-0.33104 5.738-0.33104 8.5703 0 1.5081 0 3.2 0.99312 4.5978 0.80921 1.1035 2.0966 1.7656 3.8254 1.7656 1.9862 0 3.9357-0.84599 5.3702-1.8759l-0.80921-2.0966c-1.4345 1.0667-2.7587 1.5449-3.7886 1.5449-1.2506 0-2.538-0.69886-2.8322-2.7219 0-0.14713-0.11034-0.77243-0.11034-3.2368 0-2.1702 0.11034-4.3771 0.33104-6.5472h5.5173v-2.2069h-5.4806s0.25748-3.0161 0.44139-3.9725c0.0368-0.36782 0.33104-0.58852 0.18391-0.99312z"/>
   <path d="m290.57 634.33v2.1702h4.046v12.543h-4.2667v2.0966h10.888v-2.0966h-3.9357v-14.713zm5.4438-7.2829c-1.0667 0-1.9127 0.84599-1.9127 1.8759s0.84599 1.8759 1.9127 1.8759c1.0667 0 1.9127-0.846 1.9127-1.8759s-0.84599-1.8759-1.9127-1.8759z"/>
   <path d="m321.98 642.83c0-5.8116-3.6782-8.8278-7.5036-8.8278-4.2668 0-7.945 3.6782-7.945 8.9013 0 5.1127 3.6414 8.7174 7.8714 8.7174 3.9725 0 7.5772-3.2001 7.5772-8.791zm-7.6875-6.584c2.4276 0 5.0024 2.0966 5.0024 6.6944 0 4.23-2.4276 6.3633-4.8552 6.3633-2.6851 0-5.1127-2.5012-5.1127-6.6576 0-4.1196 2.3908-6.4001 4.9656-6.4001z"/>
   <path d="m325.96 651.14h2.6851v-9.6737c0-1.1035 0.14712-1.9495 0.84599-2.869 0.6253-0.846 2.2437-2.3541 4.0093-2.3541 0.846 0 1.692 0.36782 2.2805 1.0667 0.91956 1.1035 0.91956 2.538 0.91956 3.715v10.115h2.6115v-10.189c0-1.2874 0-2.6851-0.58851-4.046-0.846-1.8759-2.5748-2.9426-4.4874-2.9426-2.2805 0-4.3403 1.4713-5.5909 3.3472v-2.9426h-2.6851z"/>
  </g>
  <rect x="11.177" y="746.53" width="380.03" height="79.882" fill="#3b390d" fill-opacity=".38431" stroke="#e9e56f" stroke-width="1.7655"/>
  <g fill="#8ce96f" stroke-width="5.8852px" aria-label="Decoding">
   <path d="m127.52 775.36v22.952h4.9288c1.8023 0 3.3472-0.0736 4.9656-0.91956 3.2736-1.692 5.076-5.5909 5.076-10.593 0-4.4139-1.3242-8.276-4.2667-10.189-1.6552-1.1035-3.3104-1.2506-5.3334-1.2506zm2.4276 2.2069h2.7954c1.4345 0 2.869 0.0736 4.3035 1.2506 2.1334 1.7656 2.8322 5.0392 2.8322 8.3128 0 4.3771-1.4345 6.8783-3.2736 8.1289-1.4345 0.95634-2.869 1.0299-4.3035 1.0299h-2.3541z"/>
   <path d="m153.45 781.09c-4.0093 0-7.7243 2.869-7.7243 8.9749 0 5.6277 3.4943 8.607 8.0553 8.607 2.4276 0 4.5978-0.88277 6.0323-2.6115l-1.4713-1.4345c-1.0667 1.2506-2.6851 1.9127-4.3403 1.9127-2.2437 0-5.5173-1.2506-5.7012-6.2898h11.917c0.11035-1.1402 0.0736-2.2437-0.11035-3.2001-0.77242-4.5242-3.8989-5.9587-6.6576-5.9587zm-5.076 7.1358c0.55174-3.9725 3.0897-5.1127 4.892-5.1127 2.7219 0 4.6714 2.3908 4.3403 5.1127z"/>
   <path d="m179.12 784.26c-1.3242-1.9495-3.5679-3.1265-6.2898-3.1265-4.9288 0-8.4231 3.715-8.4231 8.7542 0 5.076 3.4943 8.8278 8.276 8.8278 2.3173 0 4.5978-0.95634 6.1794-2.6851l-1.5081-1.7656c-1.1402 1.2874-2.7955 2.023-4.4507 2.023-3.2736 0-5.7748-2.7219-5.7748-6.6576 0-3.8254 2.4644-6.2162 5.5541-6.2162 2.869 0 4.23 1.9862 4.3403 2.2069 0.14712 0.25748-0.0736 0.6253 0.22069 0.84599z"/>
   <path d="m197.66 789.96c0-5.8116-3.6782-8.8278-7.5036-8.8278-4.2667 0-7.945 3.6782-7.945 8.9013 0 5.1127 3.6414 8.7174 7.8714 8.7174 3.9725 0 7.5772-3.2001 7.5772-8.791zm-7.6875-6.584c2.4276 0 5.0024 2.0966 5.0024 6.6944 0 4.23-2.4276 6.3633-4.8553 6.3633-2.6851 0-5.1127-2.5012-5.1127-6.6576 0-4.1196 2.3908-6.4001 4.9656-6.4001z"/>
   <path d="m212.78 783.93c-0.80921-1.7288-2.6115-2.869-4.9288-2.869-3.2 0-7.099 2.2805-7.099 8.6806 0 6.2162 3.4575 8.9381 6.6944 8.9381 2.1334 0 4.1196-1.2138 5.1863-3.0897v1.4713c0 0.40461 0.0368 0.80921 0.14713 1.2138h2.6483c-0.14713-0.47817-0.14713-1.0299-0.14713-1.5449l-0.0368-21.849c0-0.22069 0-0.29426 0.14713-0.51495 0.0736-0.11035 0.22069-0.29426 0.18391-0.55174h-2.7954zm-4.8185-0.69887c1.4713 0 3.6414 0.77243 4.3035 3.2736 0.2207 0.77243 0.29426 1.692 0.29426 3.5679 0 1.2874-0.0736 2.2069-0.36782 3.0897-0.6253 1.9862-2.3908 3.1633-4.1196 3.1633-1.9127 0-4.7449-1.4713-4.7449-6.9886 0-4.8185 2.6851-6.1059 4.6346-6.1059z"/>
   <path d="m221.42 781.46v2.1702h4.046v12.543h-4.2667v2.0966h10.888v-2.0966h-3.9357v-14.713zm5.4438-7.2829c-1.0667 0-1.9127 0.84599-1.9127 1.8759s0.84599 1.8759 1.9127 1.8759 1.9127-0.846 1.9127-1.8759-0.84599-1.8759-1.9127-1.8759z"/>
   <path d="m238.41 798.27h2.6851v-9.6737c0-1.1035 0.14713-1.9495 0.84599-2.869 0.6253-0.846 2.2437-2.3541 4.0093-2.3541 0.84599 0 1.692 0.36782 2.2805 1.0667 0.91956 1.1035 0.91956 2.538 0.91956 3.715v10.115h2.6115v-10.189c0-1.2874 0-2.6851-0.58852-4.046-0.84599-1.8759-2.5748-2.9426-4.4874-2.9426-2.2805 0-4.3403 1.4713-5.5909 3.3472v-2.9426h-2.6851z"/>
   <path d="m258.9 786.72c0-2.023 1.692-3.6782 3.715-3.6782 2.0598 0 3.715 1.6552 3.715 3.6782 0 2.023-1.6552 3.6782-3.715 3.6782s-3.715-1.6552-3.715-3.6782zm3.8621-5.7748c-3.3472 0-6.253 2.6483-6.253 5.922 0 1.8391 0.91956 3.5679 2.4644 4.561-1.2138 1.0299-1.9127 2.1702-1.9127 3.2368 0 0.69886 0.29426 1.692 1.3609 2.2437-1.8023 1.1402-2.7219 2.3908-2.7219 3.715 0 1.8391 1.692 4.0093 7.5772 4.0093 5.7012 0 7.7611-2.9058 7.7611-5.1495 0-1.4713-0.84599-2.9426-2.6115-3.6414-1.7656-0.73565-3.7886-0.47817-5.7012-0.47817-1.2506 0-2.0598-0.11035-2.3908-0.22069-0.66208-0.18391-1.0299-0.58852-1.0299-1.1035 0-0.88278 1.0299-1.7288 1.2138-1.8759 0.66208 0.25748 1.3977 0.36783 2.1334 0.36783 3.3104 0 6.0323-2.6483 6.0323-5.738 0-1.0299-0.29426-2.023-0.84599-2.869 0.88277-0.51496 1.9127-0.80921 2.9426-0.80921 0.33104 0 0.6253 0.0368 0.95634 0.11034l-0.29426-2.1702c-1.692-0.14713-3.384 0.4046-4.6714 1.4713-1.0667-1.0299-2.4644-1.5816-4.0093-1.5816zm-2.538 16.442c0.6253 0.0736 1.5081 0.14713 2.7954 0.2207 1.2506 0.0368 2.6115-0.0736 3.5679 0.0736 1.5449 0.25748 2.023 1.2138 2.023 1.9495 0 0.73565-0.44139 1.6184-1.5816 2.2437-1.2506 0.66208-2.6483 0.73565-3.7886 0.73565-0.77243 0-2.2069-0.0368-3.4575-0.55174-1.3609-0.55173-1.6552-1.4713-1.6552-2.0598 0-1.2138 1.1402-2.0966 2.0966-2.6116z"/>
  </g>
  <rect x="658.55" y="158.01" width="380.03" height="79.882" fill="#3b390d" fill-opacity=".38431" stroke="#e9e56f" stroke-width="1.7655"/>
  <g fill="#e9e56f" stroke-width="5.8852px" aria-label="Color transform">
   <path d="m724.27 186.66c-3.5679 0-8.7174 2.6115-8.7174 11.807 0 8.8277 4.9288 11.697 8.7174 11.697 2.7219 0 5.2599-1.4345 6.6944-3.7886l-1.8759-1.2138c-1.0667 1.7288-2.9058 2.7587-4.6714 2.7587-3.384 0-6.3633-3.4943-6.3633-9.7105 0-6.0691 2.9058-9.4898 6.1426-9.4898 1.7656 0 3.4575 1.0667 4.3771 2.6851 0.0736 0.11035 0.14713 0.2207 0.14713 0.36782 0 0.11035-0.0368 0.18392-0.0368 0.29426 0 0.0368 0 0.2207 0.18391 0.33104l2.4276-1.177c-1.2138-2.7587-3.9725-4.561-7.0254-4.561z"/>
   <path d="m749.39 201.44c0-5.8116-3.6782-8.8277-7.5036-8.8277-4.2667 0-7.945 3.6782-7.945 8.9013 0 5.1127 3.6414 8.7174 7.8714 8.7174 3.9725 0 7.5772-3.2001 7.5772-8.791zm-7.6875-6.584c2.4276 0 5.0024 2.0966 5.0024 6.6944 0 4.23-2.4276 6.3633-4.8553 6.3633-2.6851 0-5.1127-2.5012-5.1127-6.6576 0-4.1196 2.3908-6.4001 4.9656-6.4001z"/>
   <path d="m753.95 185.33v2.1334h4.7817v20.193h-5.0024v2.0966h12.616v-2.0966h-4.9656v-22.327z"/>
   <path d="m786.18 201.44c0-5.8116-3.6782-8.8277-7.5036-8.8277-4.2667 0-7.945 3.6782-7.945 8.9013 0 5.1127 3.6414 8.7174 7.8714 8.7174 3.9725 0 7.5772-3.2001 7.5772-8.791zm-7.6875-6.584c2.4276 0 5.0024 2.0966 5.0024 6.6944 0 4.23-2.4276 6.3633-4.8553 6.3633-2.6851 0-5.1127-2.5012-5.1127-6.6576 0-4.1196 2.3908-6.4001 4.9656-6.4001z"/>
   <path d="m791.29 192.98v16.809h2.6483v-8.1657c0-1.0299 0.0368-2.1334 1.177-3.9357 1.5448-2.4276 3.5311-2.8322 4.7449-2.8322 1.3977 0 2.2805 0.66208 2.7587 1.2506 0.22069 0.29426 0.33104 0.58852 0.6253 0.84599l1.2506-2.538c-1.0667-1.1035-2.6115-1.8391-4.4874-1.8391-2.4644 0-4.9656 1.2506-6.0691 3.6414l0.11035-3.2368z"/>
   <path d="m831.34 188.46-0.33104 4.5242h-4.0093l-0.0368 2.1702h3.9357c-0.22069 2.869-0.33104 5.738-0.33104 8.5703 0 1.5081 0 3.2001 0.99312 4.5978 0.80921 1.1035 2.0966 1.7656 3.8254 1.7656 1.9862 0 3.9357-0.84599 5.3702-1.8759l-0.80921-2.0966c-1.4345 1.0667-2.7587 1.5448-3.7886 1.5448-1.2506 0-2.538-0.69886-2.8322-2.7219 0-0.14713-0.11035-0.77243-0.11035-3.2368 0-2.1702 0.11035-4.3771 0.33104-6.5472h5.5173v-2.2069h-5.4806s0.25747-3.0162 0.44138-3.9725c0.0368-0.36782 0.33104-0.58851 0.18391-0.99312z"/>
   <path d="m846.46 192.98v16.809h2.6483v-8.1657c0-1.0299 0.0368-2.1334 1.177-3.9357 1.5448-2.4276 3.5311-2.8322 4.7449-2.8322 1.3977 0 2.2805 0.66208 2.7587 1.2506 0.22069 0.29426 0.33104 0.58852 0.6253 0.84599l1.2506-2.538c-1.0667-1.1035-2.6115-1.8391-4.4874-1.8391-2.4644 0-4.9656 1.2506-6.0691 3.6414l0.11035-3.2368z"/>
   <path d="m864.52 194.93 1.2874 1.692c1.3977-1.4345 3.2736-1.8759 4.8553-1.8759 1.9862 0 2.9794 0.84599 3.4575 1.6184 0.55173 0.91955 0.51495 2.023 0.51495 2.9058v0.58851h-0.51495c-2.5012 0-5.1495 0-7.2829 0.77243-2.6483 0.95634-3.8254 2.9426-3.8254 4.7817 0 2.4644 2.1334 4.7817 5.6277 4.7817 2.0598 0 4.1932-0.77243 6.0323-2.2805v1.8391h2.5012v-10.409c0-1.3609-0.0368-2.6483-0.80921-3.9725-1.1035-1.8023-3.2368-2.7587-5.8484-2.7587-2.2437 0-4.4139 0.69886-5.9955 2.3173zm10.225 6.9518v1.1402c0 0.84599 0 1.9495-1.1402 3.1633-0.6253 0.6253-2.2069 1.9862-4.4139 1.9862-2.2437 0-3.5311-1.4345-3.5311-2.9058 0-1.2506 0.84599-2.6115 2.9426-3.1265 1.5449-0.36782 3.7886-0.25747 5.5541-0.25747z"/>
   <path d="m882.1 209.75h2.6851v-9.6737c0-1.1035 0.14713-1.9495 0.846-2.869 0.62529-0.84599 2.2437-2.3541 4.0093-2.3541 0.84599 0 1.692 0.36782 2.2805 1.0667 0.91956 1.1035 0.91956 2.538 0.91956 3.715v10.115h2.6115v-10.189c0-1.2874 0-2.6851-0.58852-4.046-0.84599-1.8759-2.5748-2.9426-4.4874-2.9426-2.2805 0-4.3403 1.4713-5.5909 3.3472v-2.9426h-2.6851z"/>
   <path d="m913.88 195.19c-1.5448-1.692-3.7886-2.6116-6.2898-2.6116-3.8989 0-6.4369 2.1702-6.4369 4.6714 0 2.9426 3.1633 4.0093 4.0828 4.3403 1.4345 0.51495 3.2736 0.95634 4.5242 1.5448 1.3977 0.66209 1.6552 1.5449 1.6552 2.1334 0 1.5816-1.9127 2.6483-4.3035 2.6483-2.869 0-4.7081-1.7288-5.2599-2.3173-0.11035-0.14713-0.11035-0.25748-0.11035-0.40461 0-0.0368 0.0368-0.25747-0.14713-0.33104l-1.5448 2.6115c1.9862 1.8391 4.561 2.6851 7.099 2.6851 4.5978 0 6.9886-2.7219 6.9886-5.2599 0-1.1402-0.47817-2.6851-2.4644-3.7886-1.8759-1.0667-4.5978-1.4345-6.1794-2.2069-1.361-0.66208-1.6552-1.4713-1.6552-2.0598 0-1.3242 1.6552-2.2805 3.5311-2.2805 2.4276 0 4.046 1.4713 4.6714 2.3173 0.11034 0.11035 0.0736 0.22069 0.0736 0.33104 0 0.22069 0.14713 0.29426 0.2207 0.29426z"/>
   <path d="m929 185.11c-2.3541 0-4.561 0.99313-5.738 2.9058-0.88277 1.3977-0.91956 2.7955-0.91956 4.3035v1.6552h-3.6782v2.0966h3.6782v13.683h2.538v-13.683h5.4806v-2.0966h-5.4806v-1.3242c0-1.2138-0.0368-2.5012 0.58852-3.6047 0.69886-1.2506 2.023-1.8759 3.384-1.8759 1.6184 0 2.9794 0.84599 3.6782 1.9127 0.11035 0.18391 0.11035 0.29426 0.11035 0.44139 0 0.25747 0.18391 0.33104 0.29426 0.33104l1.2138-2.4644c-1.2138-1.4345-3.0529-2.2805-5.1495-2.2805z"/>
   <path d="m951.7 201.44c0-5.8116-3.6782-8.8277-7.5036-8.8277-4.2668 0-7.945 3.6782-7.945 8.9013 0 5.1127 3.6414 8.7174 7.8714 8.7174 3.9725 0 7.5772-3.2001 7.5772-8.791zm-7.6875-6.584c2.4276 0 5.0024 2.0966 5.0024 6.6944 0 4.23-2.4276 6.3633-4.8553 6.3633-2.6851 0-5.1127-2.5012-5.1127-6.6576 0-4.1196 2.3908-6.4001 4.9656-6.4001z"/>
   <path d="m956.81 192.98v16.809h2.6483v-8.1657c0-1.0299 0.0368-2.1334 1.177-3.9357 1.5449-2.4276 3.5311-2.8322 4.7449-2.8322 1.3977 0 2.2805 0.66208 2.7587 1.2506 0.22069 0.29426 0.33104 0.58852 0.62529 0.84599l1.2506-2.538c-1.0667-1.1035-2.6115-1.8391-4.4874-1.8391-2.4644 0-4.9656 1.2506-6.0691 3.6414l0.11035-3.2368z"/>
   <path d="m972.92 209.75h2.4276v-11.182c0-0.80921 0.0736-1.5448 0.55173-2.4276 0.58852-1.1035 1.3242-1.5448 2.023-1.5448 0.58852 0 1.2506 0.36782 1.5448 1.2874 0.2207 0.69886 0.18392 1.5081 0.18392 2.2069v11.66h2.4644v-11.108c0-0.88278 0.0736-1.5816 0.69886-2.6483 0.29426-0.44139 0.91956-1.5081 1.9495-1.5081 0.55173 0 1.0667 0.33104 1.3242 0.95634 0.33104 0.69886 0.25748 1.6552 0.25748 2.4276v11.917h2.5012v-11.954c0-1.3977 0.0368-2.7954-0.69886-3.9357-0.6253-0.95634-1.692-1.3242-2.6115-1.3242-1.6184 0-3.1265 0.95634-3.7886 2.4276-0.25748-1.3977-1.4345-2.4276-2.9426-2.4276-1.3977 0-2.6851 0.88278-3.4575 2.0598l0.0368-1.6552h-2.4644z"/>
  </g>
  <rect x="658.55" y="305.14" width="380.03" height="79.882" fill="#3b390d" fill-opacity=".38431" stroke="#e9e56f" stroke-width="1.7655"/>
  <g fill="#6f82e9" stroke-width="5.8852px" aria-label="Down-sampling">
   <path d="m739.57 333.97v22.952h4.9288c1.8023 0 3.3472-0.0736 4.9656-0.91955 3.2736-1.692 5.076-5.5909 5.076-10.593 0-4.4139-1.3242-8.276-4.2667-10.189-1.6552-1.1035-3.3104-1.2506-5.3334-1.2506zm2.4276 2.2069h2.7954c1.4345 0 2.869 0.0736 4.3035 1.2506 2.1334 1.7656 2.8322 5.0392 2.8322 8.3128 0 4.3771-1.4345 6.8783-3.2736 8.1289-1.4345 0.95634-2.869 1.0299-4.3035 1.0299h-2.3541z"/>
   <path d="m772.93 348.57c0-5.8116-3.6782-8.8277-7.5036-8.8277-4.2667 0-7.945 3.6782-7.945 8.9013 0 5.1127 3.6414 8.7174 7.8714 8.7174 3.9725 0 7.5772-3.2 7.5772-8.791zm-7.6875-6.584c2.4276 0 5.0024 2.0966 5.0024 6.6944 0 4.23-2.4276 6.3633-4.8553 6.3633-2.6851 0-5.1127-2.5012-5.1127-6.6576 0-4.1196 2.3908-6.4001 4.9656-6.4001z"/>
   <path d="m774.96 340.07 3.384 16.846h2.3908l2.9426-10.888 3.1265 10.888h2.4644c1.1402-5.5541 2.0966-11.182 2.7954-16.809h-2.4276c0.0736 2.023-0.11035 3.8989-1.5816 13.462l-3.5311-11.917h-1.6184l-2.9058 11.954-2.4276-12.138c-0.0736-0.25747-0.0736-0.36782 0.0368-0.66208 0.0368-0.18391 0.14713-0.44138 0.0368-0.73564z"/>
   <path d="m795.3 356.88h2.6851v-9.6737c0-1.1035 0.14713-1.9495 0.84599-2.869 0.6253-0.84599 2.2437-2.3541 4.0093-2.3541 0.84599 0 1.692 0.36782 2.2805 1.0667 0.91956 1.1035 0.91956 2.538 0.91956 3.715v10.115h2.6115v-10.189c0-1.2874 0-2.6851-0.58852-4.046-0.84599-1.8759-2.5748-2.9426-4.4874-2.9426-2.2805 0-4.3403 1.4713-5.5909 3.3472v-2.9426h-2.6851z"/>
   <path d="m813.76 344.12v2.4276h13.242v-2.4276z"/>
   <path d="m845.47 342.32c-1.5448-1.692-3.7886-2.6115-6.2898-2.6115-3.8989 0-6.4369 2.1702-6.4369 4.6713 0 2.9426 3.1633 4.0093 4.0828 4.3403 1.4345 0.51495 3.2736 0.95634 4.5242 1.5449 1.3977 0.66208 1.6552 1.5448 1.6552 2.1334 0 1.5816-1.9127 2.6483-4.3035 2.6483-2.869 0-4.7081-1.7288-5.2599-2.3173-0.11034-0.14713-0.11034-0.25748-0.11034-0.40461 0-0.0368 0.0368-0.25747-0.14713-0.33104l-1.5449 2.6115c1.9862 1.8391 4.561 2.6851 7.099 2.6851 4.5978 0 6.9886-2.7219 6.9886-5.2599 0-1.1402-0.47817-2.6851-2.4644-3.7886-1.8759-1.0667-4.5978-1.4345-6.1794-2.2069-1.361-0.66208-1.6552-1.4713-1.6552-2.0598 0-1.3242 1.6552-2.2805 3.5311-2.2805 2.4276 0 4.046 1.4713 4.6714 2.3173 0.11035 0.11035 0.0736 0.22069 0.0736 0.33104 0 0.22069 0.14713 0.29426 0.2207 0.29426z"/>
   <path d="m851.28 342.06 1.2874 1.692c1.3977-1.4345 3.2736-1.8759 4.8553-1.8759 1.9862 0 2.9794 0.84599 3.4575 1.6184 0.55173 0.91955 0.51495 2.023 0.51495 2.9058v0.58851h-0.51495c-2.5012 0-5.1495 0-7.2829 0.77243-2.6483 0.95634-3.8254 2.9426-3.8254 4.7817 0 2.4644 2.1334 4.7817 5.6277 4.7817 2.0598 0 4.1932-0.77243 6.0323-2.2805v1.8391h2.5012v-10.409c0-1.3609-0.0368-2.6483-0.80921-3.9725-1.1035-1.8023-3.2368-2.7587-5.8484-2.7587-2.2437 0-4.4139 0.69886-5.9955 2.3173zm10.225 6.9518v1.1402c0 0.84599 0 1.9495-1.1402 3.1633-0.62529 0.6253-2.2069 1.9862-4.4139 1.9862-2.2437 0-3.5311-1.4345-3.5311-2.9058 0-1.2506 0.846-2.6115 2.9426-3.1265 1.5448-0.36782 3.7886-0.25747 5.5541-0.25747z"/>
   <path d="m867.72 356.88h2.4276v-11.182c0-0.80921 0.0736-1.5448 0.55173-2.4276 0.58852-1.1035 1.3242-1.5448 2.023-1.5448 0.58851 0 1.2506 0.36782 1.5448 1.2874 0.2207 0.69886 0.18392 1.5081 0.18392 2.2069v11.66h2.4644v-11.108c0-0.88278 0.0736-1.5816 0.69886-2.6483 0.29426-0.44139 0.91956-1.5081 1.9495-1.5081 0.55173 0 1.0667 0.33104 1.3242 0.95634 0.33104 0.69886 0.25748 1.6552 0.25748 2.4276v11.917h2.5012v-11.954c0-1.3977 0.0368-2.7954-0.69886-3.9357-0.6253-0.95634-1.692-1.3242-2.6115-1.3242-1.6184 0-3.1265 0.95633-3.7886 2.4276-0.25747-1.3977-1.4345-2.4276-2.9426-2.4276-1.3977 0-2.6851 0.88277-3.4575 2.0598l0.0368-1.6552h-2.4644z"/>
   <path d="m886.92 340.11 0.0368 22.915h2.6851v-8.3496c1.1402 1.6552 3.0161 2.6851 5.0392 2.6851 3.4575 0 7.0622-2.9058 7.0622-9.0484 0-5.922-3.4943-8.5703-6.8047-8.5703-2.1702 0-4.1932 1.1035-5.3334 2.9426v-2.5748zm7.0254 1.8759c1.4713 0 5.0392 0.77242 5.0392 6.8783 0 5.2966-3.4575 6.1426-5.0392 6.1426s-3.2001-0.80921-3.8621-2.3173c-0.47817-1.1402-0.47817-2.538-0.47817-4.9656 0-1.3977 0.0736-2.4276 0.44139-3.3104 0.66208-1.5081 2.2069-2.4276 3.8989-2.4276z"/>
   <path d="m906.23 332.46v2.1334h4.7817v20.193h-5.0024v2.0966h12.616v-2.0966h-4.9656v-22.327z"/>
   <path d="m925.43 340.07v2.1702h4.046v12.543h-4.2667v2.0966h10.888v-2.0966h-3.9357v-14.713zm5.4438-7.2829c-1.0667 0-1.9127 0.84599-1.9127 1.8759 0 1.0299 0.84599 1.8759 1.9127 1.8759 1.0667 0 1.9127-0.84599 1.9127-1.8759 0-1.0299-0.846-1.8759-1.9127-1.8759z"/>
   <path d="m942.43 356.88h2.6851v-9.6737c0-1.1035 0.14712-1.9495 0.84599-2.869 0.6253-0.84599 2.2437-2.3541 4.0093-2.3541 0.846 0 1.692 0.36782 2.2805 1.0667 0.91956 1.1035 0.91956 2.538 0.91956 3.715v10.115h2.6115v-10.189c0-1.2874 0-2.6851-0.58851-4.046-0.846-1.8759-2.5748-2.9426-4.4874-2.9426-2.2805 0-4.3403 1.4713-5.5909 3.3472v-2.9426h-2.6851z"/>
   <path d="m962.91 345.33c0-2.023 1.692-3.6782 3.715-3.6782 2.0598 0 3.715 1.6552 3.715 3.6782 0 2.023-1.6552 3.6782-3.715 3.6782-2.0598 0-3.715-1.6552-3.715-3.6782zm3.8621-5.7748c-3.3472 0-6.253 2.6483-6.253 5.9219 0 1.8391 0.91956 3.5679 2.4644 4.561-1.2138 1.0299-1.9127 2.1702-1.9127 3.2368 0 0.69886 0.29426 1.692 1.361 2.2437-1.8023 1.1402-2.7219 2.3908-2.7219 3.715 0 1.8391 1.692 4.0093 7.5772 4.0093 5.7012 0 7.7611-2.9058 7.7611-5.1495 0-1.4713-0.846-2.9426-2.6116-3.6414-1.7655-0.73564-3.7886-0.47817-5.7012-0.47817-1.2506 0-2.0598-0.11034-2.3908-0.22069-0.66208-0.18391-1.0299-0.58852-1.0299-1.1035 0-0.88277 1.0299-1.7288 1.2138-1.8759 0.66208 0.25747 1.3977 0.36782 2.1334 0.36782 3.3104 0 6.0323-2.6483 6.0323-5.738 0-1.0299-0.29426-2.023-0.84599-2.869 0.88277-0.51495 1.9127-0.80921 2.9426-0.80921 0.33104 0 0.6253 0.0368 0.95634 0.11035l-0.29426-2.1702c-1.692-0.14713-3.384 0.40461-4.6714 1.4713-1.0667-1.0299-2.4644-1.5816-4.0093-1.5816zm-2.538 16.442c0.6253 0.0736 1.5081 0.14713 2.7954 0.22069 1.2506 0.0368 2.6115-0.0736 3.5679 0.0736 1.5449 0.25747 2.023 1.2138 2.023 1.9495 0 0.73564-0.44139 1.6184-1.5816 2.2437-1.2506 0.66209-2.6483 0.73565-3.7886 0.73565-0.77243 0-2.2069-0.0368-3.4575-0.55173-1.3609-0.55174-1.6552-1.4713-1.6552-2.0598 0-1.2138 1.1402-2.0966 2.0966-2.6115z"/>
  </g>
  <rect x="658.55" y="452.27" width="380.03" height="79.882" fill="#3b390d" fill-opacity=".38431" stroke="#e9e56f" stroke-width="1.7655"/>
  <g fill="#e96f6f" stroke-width="5.8852px" aria-label="Forward DCT">
   <path d="m758.11 481.1v22.915h2.6115v-11.255h8.5703v-2.2069h-8.5703v-7.2093h10.593v-2.2437z"/>
   <path d="m790.59 495.7c0-5.8116-3.6782-8.8278-7.5036-8.8278-4.2668 0-7.945 3.6782-7.945 8.9013 0 5.1127 3.6414 8.7174 7.8714 8.7174 3.9725 0 7.5772-3.2001 7.5772-8.791zm-7.6875-6.584c2.4276 0 5.0024 2.0966 5.0024 6.6944 0 4.23-2.4276 6.3633-4.8553 6.3633-2.6851 0-5.1127-2.5012-5.1127-6.6576 0-4.1196 2.3908-6.4001 4.9656-6.4001z"/>
   <path d="m795.7 487.24v16.81h2.6483v-8.1657c0-1.0299 0.0368-2.1334 1.177-3.9357 1.5448-2.4276 3.5311-2.8322 4.7449-2.8322 1.3977 0 2.2805 0.66208 2.7587 1.2506 0.22069 0.29426 0.33104 0.58851 0.6253 0.84599l1.2506-2.538c-1.0667-1.1035-2.6115-1.8391-4.4874-1.8391-2.4644 0-4.9656 1.2506-6.0691 3.6414l0.11034-3.2368z"/>
   <path d="m811 487.2 3.384 16.846h2.3908l2.9426-10.888 3.1265 10.888h2.4644c1.1402-5.5541 2.0966-11.182 2.7954-16.81h-2.4276c0.0736 2.023-0.11035 3.8989-1.5816 13.462l-3.5311-11.917h-1.6184l-2.9058 11.954-2.4276-12.138c-0.0736-0.25748-0.0736-0.36782 0.0368-0.66208 0.0368-0.18391 0.14713-0.44139 0.0368-0.73565z"/>
   <path d="m832.15 489.19 1.2874 1.692c1.3977-1.4345 3.2736-1.8759 4.8553-1.8759 1.9862 0 2.9794 0.846 3.4575 1.6184 0.55173 0.91956 0.51495 2.023 0.51495 2.9058v0.58852h-0.51495c-2.5012 0-5.1495 0-7.2829 0.77243-2.6483 0.95633-3.8254 2.9426-3.8254 4.7817 0 2.4644 2.1334 4.7817 5.6277 4.7817 2.0598 0 4.1932-0.77242 6.0323-2.2805v1.8391h2.5012v-10.409c0-1.361-0.0368-2.6483-0.80921-3.9725-1.1035-1.8023-3.2368-2.7587-5.8484-2.7587-2.2437 0-4.4139 0.69887-5.9955 2.3173zm10.225 6.9518v1.1402c0 0.846 0 1.9495-1.1402 3.1633-0.6253 0.6253-2.2069 1.9862-4.4139 1.9862-2.2437 0-3.5311-1.4345-3.5311-2.9058 0-1.2506 0.84599-2.6115 2.9426-3.1265 1.5448-0.36782 3.7886-0.25748 5.5541-0.25748z"/>
   <path d="m850.88 487.24v16.81h2.6483v-8.1657c0-1.0299 0.0368-2.1334 1.177-3.9357 1.5449-2.4276 3.5311-2.8322 4.7449-2.8322 1.3977 0 2.2805 0.66208 2.7587 1.2506 0.2207 0.29426 0.33104 0.58851 0.6253 0.84599l1.2506-2.538c-1.0667-1.1035-2.6115-1.8391-4.4874-1.8391-2.4644 0-4.9656 1.2506-6.0691 3.6414l0.11035-3.2368z"/>
   <path d="m879.27 489.67c-0.80921-1.7288-2.6115-2.869-4.9288-2.869-3.2 0-7.099 2.2805-7.099 8.6806 0 6.2162 3.4575 8.9381 6.6944 8.9381 2.1334 0 4.1196-1.2138 5.1863-3.0897v1.4713c0 0.40461 0.0368 0.80921 0.14713 1.2138h2.6483c-0.14713-0.47817-0.14713-1.0299-0.14713-1.5449l-0.0368-21.849c0-0.2207 0-0.29426 0.14713-0.51495 0.0736-0.11035 0.22069-0.29426 0.18391-0.55174h-2.7954zm-4.8185-0.69886c1.4713 0 3.6414 0.77243 4.3035 3.2736 0.22069 0.77243 0.29425 1.692 0.29425 3.5679 0 1.2874-0.0736 2.2069-0.36782 3.0897-0.6253 1.9862-2.3908 3.1633-4.1196 3.1633-1.9127 0-4.7449-1.4713-4.7449-6.9886 0-4.8185 2.6851-6.1059 4.6346-6.1059z"/>
   <path d="m904.36 481.1v22.952h4.9288c1.8023 0 3.3472-0.0736 4.9656-0.91956 3.2736-1.692 5.076-5.5909 5.076-10.593 0-4.4139-1.3242-8.276-4.2667-10.189-1.6552-1.1035-3.3104-1.2506-5.3334-1.2506zm2.4276 2.2069h2.7954c1.4345 0 2.869 0.0736 4.3035 1.2506 2.1334 1.7656 2.8322 5.0392 2.8322 8.3128 0 4.3771-1.4345 6.8783-3.2736 8.1289-1.4345 0.95634-2.869 1.0299-4.3035 1.0299h-2.3541z"/>
   <path d="m930.99 480.91c-3.5679 0-8.7174 2.6115-8.7174 11.807 0 8.8278 4.9288 11.697 8.7174 11.697 2.7219 0 5.2599-1.4345 6.6944-3.7886l-1.8759-1.2138c-1.0667 1.7288-2.9058 2.7587-4.6714 2.7587-3.384 0-6.3633-3.4943-6.3633-9.7105 0-6.0691 2.9058-9.4898 6.1426-9.4898 1.7656 0 3.4575 1.0667 4.3771 2.6851 0.0736 0.11034 0.14713 0.22069 0.14713 0.36782 0 0.11035-0.0368 0.18391-0.0368 0.29426 0 0.0368 0 0.22069 0.18391 0.33104l2.4276-1.177c-1.2138-2.7587-3.9725-4.561-7.0254-4.561z"/>
   <path d="m940.33 481.1v2.3173h6.4737v20.635h2.6115v-20.635h6.7679v-2.3173z"/>
  </g>
  <rect x="658.55" y="599.4" width="380.03" height="79.882" fill="#3b390d" fill-opacity=".38431" stroke="#e9e56f" stroke-width="1.7655"/>
  <g fill="#c96fe9" stroke-width="5.8852px" aria-label="Quantization">
   <path d="m752.7 630.32c1.6184 0 3.6047 0.95634 4.7081 3.6782 0.80921 1.9495 0.91956 4.1932 0.91956 6.1059 0 7.6139-3.5311 9.0116-5.4806 9.0116-2.6851 0-5.7748-2.5748-5.7748-9.8209 0-6.7312 3.1265-8.9749 5.6277-8.9749zm8.1289 9.4898c0-2.1702-0.14713-5.0024-1.3977-7.4668-1.4713-2.9794-4.1196-4.3403-6.6208-4.3403-3.4208 0-8.2392 2.6483-8.2392 11.66 0 8.1657 3.8989 11.255 7.2093 11.77 0 2.0966 0.55174 3.6782 2.2069 4.4874 1.4345 0.69887 3.0529 0.55174 5.7012 0.55174l0.0368-2.5012c-1.1402 0.0736-2.1334 0.2207-2.9794 0.2207-2.2805 0-2.6483-1.5081-2.6851-2.7955 2.0966-0.36782 4.1196-1.7655 5.407-4.3035 1.2138-2.4276 1.3609-5.2966 1.3609-7.2829z"/>
   <path d="m764.18 634.37v9.3795c0 1.4345 0 2.9058 0.66208 4.4139 0.95633 2.2069 3.0161 3.4208 5.2231 3.4208 2.0966 0 4.0828-1.1402 5.1863-2.9794l-0.0368 1.2506c0 0.44139 0 0.88277 0.0736 1.2874h2.7954c-0.18391-0.47817-0.22069-1.0299-0.22069-1.5081v-15.265h-2.6483v9.2323c0 1.2874-0.11034 2.2805-0.66208 3.3104-0.77242 1.4345-2.2805 2.5012-3.8989 2.5012-1.2874 0-2.538-0.73564-3.2-2.0598-0.58852-1.177-0.58852-2.5012-0.58852-3.6047v-9.3795z"/>
   <path d="m783.6 636.32 1.2874 1.692c1.3977-1.4345 3.2736-1.8759 4.8553-1.8759 1.9862 0 2.9794 0.846 3.4575 1.6184 0.55174 0.91956 0.51495 2.023 0.51495 2.9058v0.58852h-0.51495c-2.5012 0-5.1495 0-7.2829 0.77243-2.6483 0.95634-3.8254 2.9426-3.8254 4.7817 0 2.4644 2.1334 4.7817 5.6277 4.7817 2.0598 0 4.1932-0.77243 6.0323-2.2805v1.8391h2.5012v-10.409c0-1.361-0.0368-2.6483-0.80921-3.9725-1.1035-1.8023-3.2368-2.7587-5.8484-2.7587-2.2437 0-4.4139 0.69887-5.9955 2.3173zm10.225 6.9518v1.1402c0 0.846 0 1.9495-1.1402 3.1633-0.6253 0.6253-2.2069 1.9862-4.4139 1.9862-2.2437 0-3.5311-1.4345-3.5311-2.9058 0-1.2506 0.84599-2.6115 2.9426-3.1265 1.5449-0.36782 3.7886-0.25748 5.5541-0.25748z"/>
   <path d="m801.18 651.14h2.6851v-9.6737c0-1.1035 0.14713-1.9495 0.84599-2.869 0.6253-0.846 2.2437-2.3541 4.0093-2.3541 0.84599 0 1.692 0.36782 2.2805 1.0667 0.91955 1.1035 0.91955 2.538 0.91955 3.715v10.115h2.6116v-10.189c0-1.2874 0-2.6851-0.58852-4.046-0.84599-1.8759-2.5748-2.9426-4.4874-2.9426-2.2805 0-4.3403 1.4713-5.5909 3.3472v-2.9426h-2.6851z"/>
   <path d="m823.99 629.85-0.33104 4.5242h-4.0093l-0.0368 2.1702h3.9357c-0.22069 2.869-0.33104 5.738-0.33104 8.5703 0 1.5081 0 3.2 0.99312 4.5978 0.80921 1.1035 2.0966 1.7656 3.8254 1.7656 1.9862 0 3.9357-0.84599 5.3702-1.8759l-0.80921-2.0966c-1.4345 1.0667-2.7587 1.5449-3.7886 1.5449-1.2506 0-2.538-0.69886-2.8322-2.7219 0-0.14713-0.11035-0.77243-0.11035-3.2368 0-2.1702 0.11035-4.3771 0.33104-6.5472h5.5173v-2.2069h-5.4806s0.25747-3.0161 0.44138-3.9725c0.0368-0.36782 0.33104-0.58852 0.18391-0.99312z"/>
   <path d="m839.36 634.33v2.1702h4.046v12.543h-4.2667v2.0966h10.888v-2.0966h-3.9357v-14.713zm5.4438-7.2829c-1.0667 0-1.9127 0.84599-1.9127 1.8759s0.84599 1.8759 1.9127 1.8759c1.0667 0 1.9127-0.846 1.9127-1.8759s-0.84599-1.8759-1.9127-1.8759z"/>
   <path d="m856.43 634.33v2.3173h9.6737l-10.409 12.727v1.8023h14.676v-2.5012c-0.44138-0.0736-0.58851 0.22069-1.1035 0.22069h-10.005l10.262-12.763v-1.8023z"/>
   <path d="m875.56 636.32 1.2874 1.692c1.3977-1.4345 3.2736-1.8759 4.8552-1.8759 1.9862 0 2.9794 0.846 3.4575 1.6184 0.55173 0.91956 0.51495 2.023 0.51495 2.9058v0.58852h-0.51495c-2.5012 0-5.1495 0-7.2829 0.77243-2.6483 0.95634-3.8254 2.9426-3.8254 4.7817 0 2.4644 2.1334 4.7817 5.6277 4.7817 2.0598 0 4.1932-0.77243 6.0323-2.2805v1.8391h2.5012v-10.409c0-1.361-0.0368-2.6483-0.80921-3.9725-1.1035-1.8023-3.2368-2.7587-5.8484-2.7587-2.2437 0-4.4139 0.69887-5.9955 2.3173zm10.225 6.9518v1.1402c0 0.846 0 1.9495-1.1402 3.1633-0.6253 0.6253-2.2069 1.9862-4.4139 1.9862-2.2437 0-3.5311-1.4345-3.5311-2.9058 0-1.2506 0.84599-2.6115 2.9426-3.1265 1.5448-0.36782 3.7886-0.25748 5.5541-0.25748z"/>
   <path d="m897.55 629.85-0.33104 4.5242h-4.0093l-0.0368 2.1702h3.9357c-0.22069 2.869-0.33104 5.738-0.33104 8.5703 0 1.5081 0 3.2 0.99312 4.5978 0.80921 1.1035 2.0966 1.7656 3.8254 1.7656 1.9862 0 3.9357-0.84599 5.3702-1.8759l-0.80921-2.0966c-1.4345 1.0667-2.7587 1.5449-3.7886 1.5449-1.2506 0-2.538-0.69886-2.8322-2.7219 0-0.14713-0.11035-0.77243-0.11035-3.2368 0-2.1702 0.11035-4.3771 0.33104-6.5472h5.5173v-2.2069h-5.4806s0.25747-3.0161 0.44138-3.9725c0.0368-0.36782 0.33104-0.58852 0.18391-0.99312z"/>
   <path d="m912.93 634.33v2.1702h4.046v12.543h-4.2667v2.0966h10.888v-2.0966h-3.9357v-14.713zm5.4438-7.2829c-1.0667 0-1.9127 0.84599-1.9127 1.8759s0.84599 1.8759 1.9127 1.8759c1.0667 0 1.9127-0.846 1.9127-1.8759s-0.84599-1.8759-1.9127-1.8759z"/>
   <path d="m944.34 642.83c0-5.8116-3.6782-8.8278-7.5036-8.8278-4.2667 0-7.945 3.6782-7.945 8.9013 0 5.1127 3.6414 8.7174 7.8714 8.7174 3.9725 0 7.5772-3.2001 7.5772-8.791zm-7.6875-6.584c2.4276 0 5.0024 2.0966 5.0024 6.6944 0 4.23-2.4276 6.3633-4.8552 6.3633-2.6851 0-5.1127-2.5012-5.1127-6.6576 0-4.1196 2.3908-6.4001 4.9656-6.4001z"/>
   <path d="m948.31 651.14h2.6851v-9.6737c0-1.1035 0.14713-1.9495 0.84599-2.869 0.6253-0.846 2.2437-2.3541 4.0093-2.3541 0.84599 0 1.692 0.36782 2.2805 1.0667 0.91956 1.1035 0.91956 2.538 0.91956 3.715v10.115h2.6115v-10.189c0-1.2874 0-2.6851-0.58852-4.046-0.84599-1.8759-2.5748-2.9426-4.4874-2.9426-2.2805 0-4.3403 1.4713-5.5909 3.3472v-2.9426h-2.6851z"/>
  </g>
  <rect x="658.55" y="746.53" width="380.03" height="79.882" fill="#3b390d" fill-opacity=".38431" stroke="#e9e56f" stroke-width="1.7655"/>
  <g fill="#8ce96f" stroke-width="5.8852px" aria-label="Encoding">
   <path d="m775.07 775.36v22.915h13.977v-2.2805h-11.513v-8.4967h9.5634v-2.3541h-9.5634v-7.5036h11.586v-2.2805z"/>
   <path d="m793.83 798.27h2.6851v-9.6737c0-1.1035 0.14712-1.9495 0.84599-2.869 0.6253-0.846 2.2437-2.3541 4.0093-2.3541 0.846 0 1.692 0.36782 2.2805 1.0667 0.91956 1.1035 0.91956 2.538 0.91956 3.715v10.115h2.6115v-10.189c0-1.2874 0-2.6851-0.58851-4.046-0.846-1.8759-2.5748-2.9426-4.4874-2.9426-2.2805 0-4.3403 1.4713-5.5909 3.3472v-2.9426h-2.6851z"/>
   <path d="m826.49 784.26c-1.3242-1.9495-3.5679-3.1265-6.2898-3.1265-4.9288 0-8.4231 3.715-8.4231 8.7542 0 5.076 3.4943 8.8278 8.276 8.8278 2.3173 0 4.5978-0.95634 6.1794-2.6851l-1.5081-1.7656c-1.1402 1.2874-2.7954 2.023-4.4506 2.023-3.2736 0-5.7748-2.7219-5.7748-6.6576 0-3.8254 2.4644-6.2162 5.5541-6.2162 2.869 0 4.23 1.9862 4.3403 2.2069 0.14713 0.25748-0.0736 0.6253 0.2207 0.84599z"/>
   <path d="m845.03 789.96c0-5.8116-3.6782-8.8278-7.5036-8.8278-4.2667 0-7.945 3.6782-7.945 8.9013 0 5.1127 3.6414 8.7174 7.8714 8.7174 3.9725 0 7.5771-3.2001 7.5771-8.791zm-7.6875-6.584c2.4276 0 5.0024 2.0966 5.0024 6.6944 0 4.23-2.4276 6.3633-4.8553 6.3633-2.6851 0-5.1127-2.5012-5.1127-6.6576 0-4.1196 2.3908-6.4001 4.9656-6.4001z"/>
   <path d="m860.14 783.93c-0.80921-1.7288-2.6115-2.869-4.9288-2.869-3.2001 0-7.099 2.2805-7.099 8.6806 0 6.2162 3.4575 8.9381 6.6944 8.9381 2.1334 0 4.1196-1.2138 5.1863-3.0897v1.4713c0 0.40461 0.0368 0.80921 0.14713 1.2138h2.6483c-0.14713-0.47817-0.14713-1.0299-0.14713-1.5449l-0.0368-21.849c0-0.22069 0-0.29426 0.14712-0.51495 0.0736-0.11035 0.2207-0.29426 0.18392-0.55174h-2.7955zm-4.8185-0.69887c1.4713 0 3.6414 0.77243 4.3035 3.2736 0.2207 0.77243 0.29426 1.692 0.29426 3.5679 0 1.2874-0.0736 2.2069-0.36782 3.0897-0.6253 1.9862-2.3908 3.1633-4.1196 3.1633-1.9127 0-4.7449-1.4713-4.7449-6.9886 0-4.8185 2.6851-6.1059 4.6346-6.1059z"/>
   <path d="m868.79 781.46v2.1702h4.046v12.543h-4.2667v2.0966h10.888v-2.0966h-3.9357v-14.713zm5.4438-7.2829c-1.0667 0-1.9127 0.84599-1.9127 1.8759s0.84599 1.8759 1.9127 1.8759c1.0667 0 1.9127-0.846 1.9127-1.8759s-0.84599-1.8759-1.9127-1.8759z"/>
   <path d="m885.78 798.27h2.6851v-9.6737c0-1.1035 0.14713-1.9495 0.84599-2.869 0.6253-0.846 2.2437-2.3541 4.0093-2.3541 0.84599 0 1.692 0.36782 2.2805 1.0667 0.91955 1.1035 0.91955 2.538 0.91955 3.715v10.115h2.6115v-10.189c0-1.2874 0-2.6851-0.58851-4.046-0.84599-1.8759-2.5748-2.9426-4.4874-2.9426-2.2805 0-4.3403 1.4713-5.5909 3.3472v-2.9426h-2.6851z"/>
   <path d="m906.27 786.72c0-2.023 1.692-3.6782 3.715-3.6782 2.0598 0 3.715 1.6552 3.715 3.6782 0 2.023-1.6552 3.6782-3.715 3.6782-2.0598 0-3.715-1.6552-3.715-3.6782zm3.8621-5.7748c-3.3472 0-6.253 2.6483-6.253 5.922 0 1.8391 0.91956 3.5679 2.4644 4.561-1.2138 1.0299-1.9127 2.1702-1.9127 3.2368 0 0.69886 0.29426 1.692 1.361 2.2437-1.8023 1.1402-2.7219 2.3908-2.7219 3.715 0 1.8391 1.692 4.0093 7.5772 4.0093 5.7012 0 7.761-2.9058 7.761-5.1495 0-1.4713-0.84599-2.9426-2.6115-3.6414-1.7656-0.73565-3.7886-0.47817-5.7012-0.47817-1.2506 0-2.0598-0.11035-2.3908-0.22069-0.66209-0.18391-1.0299-0.58852-1.0299-1.1035 0-0.88278 1.0299-1.7288 1.2138-1.8759 0.66208 0.25748 1.3977 0.36783 2.1334 0.36783 3.3104 0 6.0323-2.6483 6.0323-5.738 0-1.0299-0.29426-2.023-0.84599-2.869 0.88277-0.51496 1.9127-0.80921 2.9426-0.80921 0.33104 0 0.6253 0.0368 0.95634 0.11034l-0.29426-2.1702c-1.692-0.14713-3.384 0.4046-4.6714 1.4713-1.0667-1.0299-2.4644-1.5816-4.0093-1.5816zm-2.538 16.442c0.6253 0.0736 1.5081 0.14713 2.7954 0.2207 1.2506 0.0368 2.6115-0.0736 3.5679 0.0736 1.5449 0.25748 2.023 1.2138 2.023 1.9495 0 0.73565-0.44139 1.6184-1.5816 2.2437-1.2506 0.66208-2.6483 0.73565-3.7886 0.73565-0.77242 0-2.2069-0.0368-3.4575-0.55174-1.3609-0.55173-1.6552-1.4713-1.6552-2.0598 0-1.2138 1.1402-2.0966 2.0966-2.6116z"/>
  </g>
  <path d="m731.44 940.07h117.7v-111.82" fill="none" stroke="#b62a2a" stroke-width="5.8852px"/>
  <rect x="334.86" y="895.13" width="380.03" height="79.882" fill="#3b390d" fill-opacity=".38431" stroke="#e9e56f" stroke-width="1.7655"/>
  <g fill="#e9e56f" stroke-width="5.8852px" aria-label="JPEG data">
   <path d="m449.65 923.96v2.1702h4.4139v13.131c0 1.3977 0.0368 3.0529-0.80921 4.3035-0.6253 0.91955-1.6184 1.4713-2.7219 1.4713-1.9127 0-3.3472-1.5816-3.4575-1.692-0.14713-0.22069 0-0.47817-0.22069-0.66208l-1.692 2.0966c1.361 1.6184 3.3104 2.538 5.3334 2.538 2.1702 0 4.1564-1.0667 5.2231-3.0529 0.88278-1.6552 0.88278-3.384 0.88278-5.0392v-13.094h3.5311v-2.1702z"/>
   <path d="m463.89 923.96v22.915h2.6851v-10.115h4.4874c1.4345 0 2.7954-0.0368 4.1932-0.73565 2.1334-1.0667 3.2368-3.2736 3.2368-5.5909 0-2.3173-1.1035-4.561-3.2736-5.6645-1.4345-0.77243-2.869-0.80921-4.3403-0.80921zm2.6851 2.4276h4.3035c0.95634 0 1.8759 0.0368 2.8322 0.47817 1.3977 0.73564 2.1702 2.2069 2.1702 3.6782 0 1.4713-0.73564 2.8322-2.0598 3.4943-0.88278 0.44139-1.7656 0.47817-2.6483 0.47817h-4.6346z"/>
   <path d="m482.28 923.96v22.915h13.977v-2.2805h-11.513v-8.4967h9.5634v-2.3541h-9.5634v-7.5036h11.586v-2.2805z"/>
   <path d="m508.73 923.74c-3.0529 0-8.8645 1.9127-8.8645 11.954 0 8.6806 4.8553 11.55 8.8277 11.55 2.1334 0 4.5978-0.77242 6.7312-2.3908v-8.9381h-6.5105v2.2069h4.1564v5.4806c-1.2874 0.91956-2.7587 1.3977-4.1196 1.3977-1.5081 0-3.1265-0.58851-4.3771-2.023-1.9127-2.1702-2.1702-5.407-2.1702-7.7978 0-2.1334 0.25747-4.1932 1.1402-5.8852 1.177-2.2437 3.2368-3.2736 5.1495-3.2736 2.0598 0 3.6782 1.1402 4.3771 2.6851 0.11035 0.25748 0.2207 0.55174 0.51495 0.73565l1.8023-1.8391c-1.3242-2.3908-3.8254-3.8621-6.6576-3.8621z"/>
   <path d="m548.97 932.53c-0.80921-1.7288-2.6115-2.869-4.9288-2.869-3.2001 0-7.099 2.2805-7.099 8.6806 0 6.2162 3.4575 8.9381 6.6944 8.9381 2.1334 0 4.1196-1.2138 5.1863-3.0897v1.4713c0 0.4046 0.0368 0.80921 0.14713 1.2138h2.6483c-0.14713-0.47817-0.14713-1.0299-0.14713-1.5449l-0.0368-21.849c0-0.22069 0-0.29426 0.14713-0.51495 0.0736-0.11035 0.22069-0.29426 0.18391-0.55174h-2.7954zm-4.8185-0.69887c1.4713 0 3.6414 0.77243 4.3035 3.2736 0.22069 0.77242 0.29426 1.692 0.29426 3.5679 0 1.2874-0.0736 2.2069-0.36783 3.0897-0.6253 1.9862-2.3908 3.1633-4.1196 3.1633-1.9127 0-4.7449-1.4713-4.7449-6.9886 0-4.8185 2.6851-6.1059 4.6346-6.1059z"/>
   <path d="m557.02 932.05 1.2874 1.692c1.3977-1.4345 3.2736-1.8759 4.8553-1.8759 1.9862 0 2.9794 0.84599 3.4575 1.6184 0.55173 0.91955 0.51495 2.023 0.51495 2.9058v0.58852h-0.51495c-2.5012 0-5.1495 0-7.2829 0.77243-2.6483 0.95634-3.8254 2.9426-3.8254 4.7817 0 2.4644 2.1334 4.7817 5.6277 4.7817 2.0598 0 4.1932-0.77243 6.0323-2.2805v1.8391h2.5012v-10.409c0-1.3609-0.0368-2.6483-0.80921-3.9725-1.1035-1.8023-3.2368-2.7587-5.8484-2.7587-2.2437 0-4.4139 0.69887-5.9955 2.3173zm10.225 6.9518v1.1402c0 0.84599 0 1.9495-1.1402 3.1633-0.6253 0.6253-2.2069 1.9862-4.4139 1.9862-2.2437 0-3.5311-1.4345-3.5311-2.9058 0-1.2506 0.84599-2.6115 2.9426-3.1265 1.5449-0.36782 3.7886-0.25747 5.5541-0.25747z"/>
   <path d="m579.02 925.58-0.33104 4.5242h-4.0093l-0.0368 2.1702h3.9357c-0.22069 2.869-0.33104 5.738-0.33104 8.5703 0 1.5081 0 3.2001 0.99312 4.5978 0.80921 1.1035 2.0966 1.7656 3.8254 1.7656 1.9862 0 3.9357-0.84599 5.3702-1.8759l-0.80921-2.0966c-1.4345 1.0667-2.7587 1.5448-3.7886 1.5448-1.2506 0-2.538-0.69886-2.8322-2.7219 0-0.14713-0.11035-0.77242-0.11035-3.2368 0-2.1702 0.11035-4.3771 0.33104-6.5472h5.5173v-2.2069h-5.4806s0.25747-3.0162 0.44138-3.9725c0.0368-0.36782 0.33104-0.58852 0.18391-0.99312z"/>
   <path d="m593.8 932.05 1.2874 1.692c1.3977-1.4345 3.2736-1.8759 4.8553-1.8759 1.9862 0 2.9794 0.84599 3.4575 1.6184 0.55174 0.91955 0.51496 2.023 0.51496 2.9058v0.58852h-0.51496c-2.5012 0-5.1495 0-7.2829 0.77243-2.6483 0.95634-3.8254 2.9426-3.8254 4.7817 0 2.4644 2.1334 4.7817 5.6277 4.7817 2.0598 0 4.1932-0.77243 6.0323-2.2805v1.8391h2.5012v-10.409c0-1.3609-0.0368-2.6483-0.80921-3.9725-1.1035-1.8023-3.2368-2.7587-5.8484-2.7587-2.2437 0-4.4139 0.69887-5.9955 2.3173zm10.225 6.9518v1.1402c0 0.84599 0 1.9495-1.1402 3.1633-0.6253 0.6253-2.2069 1.9862-4.4139 1.9862-2.2437 0-3.5311-1.4345-3.5311-2.9058 0-1.2506 0.846-2.6115 2.9426-3.1265 1.5449-0.36782 3.7886-0.25747 5.5541-0.25747z"/>
  </g>
  <path d="m334.19 940.07h-130.34v-100.05" fill="none" stroke="#b62a2a" stroke-width="5.8852px"/>
 </g>
 <g transform="matrix(5.8852 0 0 5.8852 -2092.9 -888.47)">
  <path d="m501.47 274.25-1.2053 3.2778-1.2053-3.2778c0.71162 0.52365 1.6852 0.52064 2.4106 0z" fill="#fff" fill-rule="evenodd" stroke="#b62a2a" stroke-linejoin="round" stroke-width=".1875"/>
 </g>
 <g transform="matrix(5.8852 0 0 5.8852 -2092.9 -1035.5)">
  <path d="m501.47 274.25-1.2053 3.2778-1.2053-3.2778c0.71162 0.52365 1.6852 0.52064 2.4106 0z" fill="#fff" fill-rule="evenodd" stroke="#b62a2a" stroke-linejoin="round" stroke-width=".1875"/>
 </g>
 <g transform="matrix(5.8852 0 0 5.8852 -2092.9 -1182.8)">
  <path d="m501.47 274.25-1.2053 3.2778-1.2053-3.2778c0.71162 0.52365 1.6852 0.52064 2.4106 0z" fill="#fff" fill-rule="evenodd" stroke="#b62a2a" stroke-linejoin="round" stroke-width=".1875"/>
 </g>
 <g transform="matrix(5.8852 0 0 5.8852 -2092.9 -1329.7)">
  <path d="m501.47 274.25-1.2053 3.2778-1.2053-3.2778c0.71162 0.52365 1.6852 0.52064 2.4106 0z" fill="#fff" fill-rule="evenodd" stroke="#b62a2a" stroke-linejoin="round" stroke-width=".1875"/>
 </g>
 <g transform="matrix(5.8852 0 0 5.8852 -2092.9 -1476.4)">
  <path d="m501.47 274.25-1.2053 3.2778-1.2053-3.2778c0.71162 0.52365 1.6852 0.52064 2.4106 0z" fill="#fff" fill-rule="evenodd" stroke="#b62a2a" stroke-linejoin="round" stroke-width=".1875"/>
 </g>
 <g transform="matrix(0 5.8852 -5.8852 0 2349.6 -2004)">
  <path d="m501.47 274.25-1.2053 3.2778-1.2053-3.2778c0.71162 0.52365 1.6852 0.52064 2.4106 0z" fill="#fff" fill-rule="evenodd" stroke="#b62a2a" stroke-linejoin="round" stroke-width=".1875"/>
 </g>
 <g transform="matrix(-5.8852 0 0 -5.8852 3148.2 2314.1)">
  <path d="m501.47 274.25-1.2053 3.2778-1.2053-3.2778c0.71162 0.52365 1.6852 0.52064 2.4106 0z" fill="#fff" fill-rule="evenodd" stroke="#b62a2a" stroke-linejoin="round" stroke-width=".1875"/>
 </g>
 <g transform="matrix(-5.8852 0 0 -5.8852 3148.2 2461)">
  <path d="m501.47 274.25-1.2053 3.2778-1.2053-3.2778c0.71162 0.52365 1.6852 0.52064 2.4106 0z" fill="#fff" fill-rule="evenodd" stroke="#b62a2a" stroke-linejoin="round" stroke-width=".1875"/>
 </g>
 <g transform="matrix(-5.8852 0 0 -5.8852 3148.2 2166.9)">
  <path d="m501.47 274.25-1.2053 3.2778-1.2053-3.2778c0.71162 0.52365 1.6852 0.52064 2.4106 0z" fill="#fff" fill-rule="evenodd" stroke="#b62a2a" stroke-linejoin="round" stroke-width=".1875"/>
 </g>
 <g transform="matrix(-5.8852 0 0 -5.8852 3148.2 2019.7)">
  <path d="m501.47 274.25-1.2053 3.2778-1.2053-3.2778c0.71162 0.52365 1.6852 0.52064 2.4106 0z" fill="#fff" fill-rule="evenodd" stroke="#b62a2a" stroke-linejoin="round" stroke-width=".1875"/>
 </g>
 <g transform="matrix(-5.8852 0 0 -5.8852 3148.2 1872.3)">
  <path d="m501.47 274.25-1.2053 3.2778-1.2053-3.2778c0.71162 0.52365 1.6852 0.52064 2.4106 0z" fill="#fff" fill-rule="evenodd" stroke="#b62a2a" stroke-linejoin="round" stroke-width=".1875"/>
 </g>
 <g transform="matrix(0 -5.8852 5.8852 0 -1299.9 2990.9)">
  <path d="m501.47 274.25-1.2053 3.2778-1.2053-3.2778c0.71162 0.52365 1.6852 0.52064 2.4106 0z" fill="#fff" fill-rule="evenodd" stroke="#b62a2a" stroke-linejoin="round" stroke-width=".1875"/>
 </g>
</svg>
