<svg width="750" height="400" version="1.1" viewBox="0 0 198.44 105.83" xmlns="http://www.w3.org/2000/svg">
  <path
    d="m153.82 53.017a51.337 51.337 0 0 1-51.337 51.337 51.337 51.337 0 0 1-51.337-51.337 51.337 51.337 0 0 1 51.337-51.337 51.337 51.337 0 0 1 51.337 51.337z"
    fill="none" stroke="#aaa" stroke-linecap="round" stroke-linejoin="bevel" stroke-width="1.6132" />
  <path
    d="m152.31 53.017a49.823 49.823 0 0 1-49.823 49.823 49.823 49.823 0 0 1-49.823-49.823 49.823 49.823 0 0 1 49.823-49.823 49.823 49.823 0 0 1 49.823 49.823z"
    fill="none" stroke="#aaa" stroke-linecap="round" stroke-linejoin="bevel" stroke-width="1.6132" />
  <path
    d="m150.86 53.017a48.377 48.377 0 0 1-48.377 48.377 48.377 48.377 0 0 1-48.377-48.377 48.377 48.377 0 0 1 48.377-48.377 48.377 48.377 0 0 1 48.377 48.377z"
    fill="none" stroke="#aaa" stroke-linecap="round" stroke-linejoin="bevel" stroke-width="1.6132" />
  <path
    d="m91.867 44.295s-5.5088-6.9075-9.0032-9.5328c-4.3944-3.3015-7.8157-3.2897-14.666-7.5366-2.3275-1.443 5.3775-9.5736 5.3775-9.5736s2.2406 4.6849 8.8403 8.6773c6.5997 3.9924 10.388 16.988 10.388 16.988z"
     />
  <path
    d="m94.486 41.842s-3.5333-8.0979-6.2292-11.538c-3.3901-4.3263-6.698-5.2004-12.216-11.076-1.8747-1.9962 7.6721-7.8556 7.6721-7.8556s0.95173 5.1052 6.2932 10.67c5.3415 5.5645 5.6376 19.098 5.6376 19.098z"
     />
  <path
    d="m97.652 40.15s-1.317-8.7364-3.0306-12.757c-2.1549-5.0563-5.1238-6.7568-8.9327-13.86-1.2941-2.4134 9.4438-5.6022 9.4438-5.6022s-0.40203 5.1776 3.3172 11.935c3.7193 6.7573 0.50257 19.906 0.50257 19.906z"
     />
  <path
    d="m101.15 39.335s0.98902-8.7796 0.37448-13.107c-0.7728-5.4418-3.2004-7.8527-5.0411-15.7-0.62541-2.6661 10.572-2.9671 10.572-2.9671s-1.7284 4.8971 0.11523 12.387c1.8436 7.4897-4.6667 19.358-4.6667 19.358z"
     />
  <path
    d="m104.73 39.453s3.2277-8.2245 3.7541-12.563c0.66197-5.4563-1.0589-8.4135-0.80602-16.469 0.086-2.7371 10.98-0.12974 10.98-0.12974s-2.937 4.2829-3.0947 11.995c-0.15768 7.7117-9.5179 17.491-9.5179 17.491z"
     />
  <path
    d="m108.17 40.495s5.2463-7.1089 6.8778-11.164c2.0516-5.0991 1.1547-8.4009 3.484-16.117 0.79143-2.6216 10.639 2.7164 10.639 2.7164s-3.9454 3.3768-6.0936 10.785c-2.1482 7.4081-13.72 14.431-13.72 14.431z"
     />
  <path
    d="m111.22 42.39s6.9075-5.5088 9.5328-9.0032c3.3015-4.3944 3.2897-7.8157 7.5366-14.666 1.443-2.3275 9.5736 5.3775 9.5736 5.3775s-4.6849 2.2406-8.6773 8.8403c-3.9924 6.5997-16.988 10.388-16.988 10.388z"
     />
  <path
    d="m113.67 45.01s8.0979-3.5333 11.538-6.2292c4.3263-3.3901 5.2004-6.698 11.076-12.216 1.9962-1.8747 7.8556 7.6721 7.8556 7.6721s-5.1052 0.95173-10.67 6.2932c-5.5645 5.3415-19.098 5.6376-19.098 5.6376z"
     />
  <path
    d="m115.36 48.175s8.7364-1.317 12.757-3.0306c5.0563-2.1549 6.7568-5.1238 13.86-8.9327 2.4134-1.2942 5.6022 9.4438 5.6022 9.4438s-5.1776-0.40204-11.935 3.3172c-6.7573 3.7193-19.906 0.50258-19.906 0.50258z"
     />
  <path
    d="m116.18 51.671s8.7796 0.98902 13.107 0.37449c5.4418-0.7728 7.8527-3.2004 15.7-5.0412 2.6661-0.62542 2.9671 10.572 2.9671 10.572s-4.8971-1.7284-12.387 0.11523c-7.4897 1.8436-19.358-4.6667-19.358-4.6667z"
     />
  <path
    d="m116.06 55.258s8.2245 3.2277 12.563 3.7541c5.4563 0.66198 8.4135-1.0589 16.469-0.80602 2.7371 0.08597 0.12973 10.98 0.12973 10.98s-4.2829-2.937-11.995-3.0946c-7.7117-0.15768-17.491-9.5179-17.491-9.5179z"
     />
  <path
    d="m115.02 58.692s7.1089 5.2463 11.164 6.8778c5.0991 2.0516 8.4008 1.1547 16.117 3.484 2.6216 0.79143-2.7164 10.639-2.7164 10.639s-3.3768-3.9454-10.785-6.0936c-7.4081-2.1482-14.431-13.72-14.431-13.72z"
     />
  <path
    d="m113.12 61.74s5.5088 6.9075 9.0032 9.5328c4.3944 3.3015 7.8157 3.2897 14.666 7.5366 2.3275 1.443-5.3775 9.5736-5.3775 9.5736s-2.2406-4.6849-8.8403-8.6773c-6.5996-3.9924-10.388-16.988-10.388-16.988z"
     />
  <path
    d="m110.5 64.193s3.5333 8.0979 6.2292 11.538c3.3901 4.3263 6.698 5.2004 12.216 11.076 1.8747 1.9962-7.6721 7.8556-7.6721 7.8556s-0.95172-5.1052-6.2932-10.67c-5.3415-5.5645-5.6376-19.098-5.6376-19.098z"
     />
  <path
    d="m107.34 65.885s1.317 8.7365 3.0306 12.757c2.1549 5.0563 5.1238 6.7568 8.9327 13.86 1.2942 2.4134-9.4438 5.6022-9.4438 5.6022s0.40203-5.1776-3.3172-11.935c-3.7193-6.7573-0.50256-19.906-0.50256-19.906z"
     />
  <path
    d="m103.84 66.7s-0.98902 8.7796-0.37449 13.107c0.77279 5.4417 3.2004 7.8527 5.0412 15.7 0.62539 2.6661-10.572 2.9671-10.572 2.9671s1.7284-4.8971-0.11523-12.387c-1.8436-7.4897 4.6667-19.358 4.6667-19.358z"
     />
  <path
    d="m100.25 66.582s-3.2276 8.2245-3.7541 12.563c-0.66197 5.4563 1.0589 8.4135 0.80604 16.469-0.08597 2.7371-10.98 0.12973-10.98 0.12973s2.937-4.2829 3.0946-11.995c0.15769-7.7117 9.5179-17.491 9.5179-17.491z"
     />
  <path
    d="m96.819 65.54s-5.2463 7.1089-6.8778 11.164c-2.0516 5.0991-1.1547 8.4008-3.484 16.117-0.79142 2.6216-10.639-2.7164-10.639-2.7164s3.9454-3.3768 6.0936-10.785c2.1482-7.4081 13.72-14.431 13.72-14.431z"
     />
  <path
    d="m93.772 63.645s-6.9075 5.5088-9.5328 9.0032c-3.3015 4.3943-3.2897 7.8157-7.5366 14.666-1.443 2.3275-9.5736-5.3775-9.5736-5.3775s4.6849-2.2406 8.6773-8.8403c3.9924-6.5997 16.988-10.388 16.988-10.388z"
     />
  <path
    d="m91.318 61.025s-8.0979 3.5333-11.538 6.2292c-4.3263 3.3901-5.2004 6.698-11.076 12.216-1.9962 1.8747-7.8556-7.6721-7.8556-7.6721s5.1052-0.95172 10.67-6.2932c5.5645-5.3415 19.098-5.6376 19.098-5.6376z"
     />
  <path
    d="m89.626 57.86s-8.7364 1.317-12.757 3.0306c-5.0563 2.1549-6.7568 5.1238-13.86 8.9327-2.4134 1.2942-5.6022-9.4438-5.6022-9.4438s5.1776 0.40204 11.935-3.3172c6.7573-3.7193 19.906-0.50257 19.906-0.50257z"
     />
  <path
    d="m88.812 54.365s-8.7796-0.98902-13.107-0.37448c-5.4418 0.7728-7.8527 3.2004-15.7 5.0411-2.6661 0.62543-2.9671-10.572-2.9671-10.572s4.8971 1.7284 12.387-0.11523c7.4897-1.8436 19.358 4.6667 19.358 4.6667z"
     />
  <path
    d="m88.929 50.777s-8.2245-3.2277-12.563-3.7541c-5.4564-0.66196-8.4135 1.0589-16.469 0.80603-2.7371-0.08597-0.12974-10.98-0.12974-10.98s4.2829 2.937 11.995 3.0946c7.7117 0.15768 17.491 9.5179 17.491 9.5179z"
     />
  <path
    d="m89.971 47.343s-7.1089-5.2463-11.164-6.8778c-5.0991-2.0516-8.4009-1.1547-16.117-3.484-2.6216-0.79143 2.7164-10.639 2.7164-10.639s3.3768 3.9454 10.785 6.0936c7.4081 2.1482 14.431 13.72 14.431 13.72z"
     />

</svg>