<svg version="1.1" viewBox="0 0 1005.4 583.05" xmlns="http://www.w3.org/2000/svg">
 <g>
  <rect x="10.95" y="10.95" width="409.1" height="85.994" fill="#3b390d" fill-opacity=".38431" stroke="#e9e56f" stroke-width="1.9006"/>
  <g transform="translate(-428.55 -226.04)" fill="#e9e56f" stroke-width="6.3354px" aria-label="Initialization">
   <path d="m515.44 268.02v2.3362h4.5536v20.075h-4.8308v2.2966h12.75v-2.257h-5.1475v-20.115h4.8704v-2.3362z"/>
   <path d="m534.45 292.69h2.8905v-10.414c0-1.1879 0.15838-2.0986 0.91071-3.0885 0.67314-0.91072 2.4154-2.5342 4.316-2.5342 0.91072 0 1.8214 0.39596 2.455 1.1483 0.98991 1.1879 0.98991 2.7322 0.98991 3.9992v10.889h2.8114v-10.968c0-1.3859 0-2.8905-0.63355-4.3556-0.91071-2.0194-2.7718-3.1677-4.8308-3.1677-2.455 0-4.6724 1.5839-6.0186 3.6033v-3.1677h-2.8905z"/>
   <path d="m555.75 274.6v2.3362h4.3556v13.502h-4.5932v2.257h11.721v-2.257h-4.2368v-15.839zm5.8603-7.8401c-1.1483 0-2.059 0.91071-2.059 2.0194s0.91071 2.0194 2.059 2.0194 2.059-0.91072 2.059-2.0194-0.91071-2.0194-2.059-2.0194z"/>
   <path d="m578.79 269.77-0.35637 4.8704h-4.316l-0.0396 2.3362h4.2368c-0.23758 3.0885-0.35637 6.177-0.35637 9.226 0 1.6234 0 3.4449 1.0691 4.9496 0.87112 1.1879 2.257 1.9006 4.118 1.9006 2.1382 0 4.2368-0.91072 5.7811-2.0194l-0.87112-2.257c-1.5443 1.1483-2.9697 1.663-4.0784 1.663-1.3463 0-2.7322-0.75233-3.0489-2.9301 0-0.15839-0.11879-0.83153-0.11879-3.4845 0-2.3362 0.11879-4.712 0.35637-7.0482h5.9395v-2.3758h-5.8999s0.27717-3.2469 0.47516-4.2764c0.0396-0.39596 0.35636-0.63354 0.19798-1.0691z"/>
   <path d="m595.34 274.6v2.3362h4.3556v13.502h-4.5932v2.257h11.721v-2.257h-4.2368v-15.839zm5.8603-7.8401c-1.1483 0-2.059 0.91071-2.059 2.0194s0.91071 2.0194 2.059 2.0194 2.059-0.91072 2.059-2.0194-0.91072-2.0194-2.059-2.0194z"/>
   <path d="m614.51 276.73 1.3859 1.8214c1.5047-1.5443 3.5241-2.0194 5.2267-2.0194 2.1382 0 3.2073 0.91072 3.7221 1.7422 0.59395 0.98991 0.55435 2.1778 0.55435 3.1281v0.63354h-0.55435c-2.6926 0-5.5435 0-7.8401 0.83153-2.8509 1.0295-4.118 3.1677-4.118 5.1475 0 2.653 2.2966 5.1475 6.0582 5.1475 2.2174 0 4.514-0.83153 6.4938-2.455v1.9798h2.6926v-11.206c0-1.4651-0.0396-2.8509-0.87112-4.2764-1.1879-1.9402-3.4845-2.9697-6.2958-2.9697-2.4154 0-4.7516 0.75233-6.4542 2.4946zm11.008 7.4837v1.2275c0 0.91071 0 2.0986-1.2275 3.4053-0.67313 0.67314-2.3758 2.1382-4.7516 2.1382-2.4154 0-3.8012-1.5443-3.8012-3.1281 0-1.3463 0.91072-2.8114 3.1677-3.3657 1.663-0.39596 4.0784-0.27717 5.9791-0.27717z"/>
   <path d="m634.07 266.4v2.2966h5.1475v21.738h-5.3851v2.257h13.582v-2.257h-5.3455v-24.035z"/>
   <path d="m654.74 274.6v2.3362h4.3556v13.502h-4.5932v2.257h11.721v-2.257h-4.2368v-15.839zm5.8603-7.8401c-1.1483 0-2.059 0.91071-2.059 2.0194s0.91072 2.0194 2.059 2.0194c1.1483 0 2.059-0.91072 2.059-2.0194s-0.91072-2.0194-2.059-2.0194z"/>
   <path d="m673.11 274.6v2.4946h10.414l-11.206 13.7v1.9402h15.799v-2.6926c-0.47515-0.0792-0.63354 0.23758-1.1879 0.23758h-10.77l11.047-13.74v-1.9402z"/>
   <path d="m693.7 276.73 1.3859 1.8214c1.5047-1.5443 3.5241-2.0194 5.2267-2.0194 2.1382 0 3.2073 0.91072 3.7221 1.7422 0.59395 0.98991 0.55435 2.1778 0.55435 3.1281v0.63354h-0.55435c-2.6926 0-5.5435 0-7.8401 0.83153-2.8509 1.0295-4.118 3.1677-4.118 5.1475 0 2.653 2.2966 5.1475 6.0583 5.1475 2.2174 0 4.514-0.83153 6.4938-2.455v1.9798h2.6926v-11.206c0-1.4651-0.0396-2.8509-0.87113-4.2764-1.1879-1.9402-3.4845-2.9697-6.2958-2.9697-2.4154 0-4.7516 0.75233-6.4542 2.4946zm11.008 7.4837v1.2275c0 0.91071 0 2.0986-1.2275 3.4053-0.67314 0.67314-2.3758 2.1382-4.7516 2.1382-2.4154 0-3.8012-1.5443-3.8012-3.1281 0-1.3463 0.91071-2.8114 3.1677-3.3657 1.663-0.39596 4.0784-0.27717 5.9791-0.27717z"/>
   <path d="m717.38 269.77-0.35637 4.8704h-4.316l-0.0396 2.3362h4.2368c-0.23758 3.0885-0.35637 6.177-0.35637 9.226 0 1.6234 0 3.4449 1.0691 4.9496 0.87112 1.1879 2.257 1.9006 4.118 1.9006 2.1382 0 4.2368-0.91072 5.7811-2.0194l-0.87112-2.257c-1.5443 1.1483-2.9697 1.663-4.0784 1.663-1.3463 0-2.7322-0.75233-3.0489-2.9301 0-0.15839-0.11878-0.83153-0.11878-3.4845 0-2.3362 0.11878-4.712 0.35636-7.0482h5.9395v-2.3758h-5.8999s0.27717-3.2469 0.47516-4.2764c0.0396-0.39596 0.35636-0.63354 0.19798-1.0691z"/>
   <path d="m733.93 274.6v2.3362h4.3556v13.502h-4.5932v2.257h11.721v-2.257h-4.2368v-15.839zm5.8603-7.8401c-1.1483 0-2.059 0.91071-2.059 2.0194s0.91072 2.0194 2.059 2.0194c1.1483 0 2.059-0.91072 2.059-2.0194s-0.91072-2.0194-2.059-2.0194z"/>
   <path d="m767.75 283.74c0-6.2562-3.9596-9.5031-8.0777-9.5031-4.5932 0-8.5528 3.9596-8.5528 9.5823 0 5.5039 3.92 9.3844 8.4736 9.3844 4.2764 0 8.1569-3.4449 8.1569-9.4635zm-8.2756-7.0878c2.6134 0 5.3851 2.257 5.3851 7.2066 0 4.5536-2.6134 6.8502-5.2267 6.8502-2.8905 0-5.5039-2.6926-5.5039-7.167 0-4.4348 2.5738-6.8898 5.3455-6.8898z"/>
   <path d="m772.02 292.69h2.8905v-10.414c0-1.1879 0.15839-2.0986 0.91072-3.0885 0.67314-0.91072 2.4154-2.5342 4.316-2.5342 0.91072 0 1.8214 0.39596 2.455 1.1483 0.98991 1.1879 0.98991 2.7322 0.98991 3.9992v10.889h2.8114v-10.968c0-1.3859 0-2.8905-0.63355-4.3556-0.91071-2.0194-2.7718-3.1677-4.8308-3.1677-2.455 0-4.6724 1.5839-6.0187 3.6033v-3.1677h-2.8905z"/>
  </g>
  <rect x="10.95" y="169.34" width="409.1" height="85.994" fill="#3b390d" fill-opacity=".38431" stroke="#e9e56f" stroke-width="1.9006"/>
  <g transform="translate(-428.55 -226.04)" fill="#e9e56f" stroke-width="6.3354px" aria-label="Process Player Input">
   <path d="m444.56 426.41v24.669h2.8905v-10.889h4.8308c1.5443 0 3.0093-0.0396 4.514-0.79192 2.2966-1.1483 3.4845-3.5241 3.4845-6.0187 0-2.4946-1.1879-4.91-3.5241-6.0978-1.5443-0.83152-3.0885-0.87112-4.6724-0.87112zm2.8905 2.6134h4.6328c1.0295 0 2.0194 0.0396 3.0489 0.51476 1.5047 0.79193 2.3362 2.3758 2.3362 3.9596s-0.79193 3.0489-2.2174 3.7617c-0.95031 0.47516-1.9006 0.51475-2.8509 0.51475h-4.9892z"/>
   <path d="m465.98 433.02v18.096h2.8509v-8.7904c0-1.1087 0.0396-2.2966 1.2671-4.2368 1.663-2.6134 3.8013-3.0489 5.1079-3.0489 1.5047 0 2.455 0.71274 2.9697 1.3463 0.23758 0.31677 0.35637 0.63354 0.67314 0.91072l1.3463-2.7322c-1.1483-1.1879-2.8114-1.9798-4.8308-1.9798-2.653 0-5.3455 1.3463-6.5334 3.92l0.11879-3.4845z"/>
   <path d="m500.08 442.13c0-6.2562-3.9596-9.5031-8.0777-9.5031-4.5932 0-8.5528 3.9596-8.5528 9.5823 0 5.5039 3.92 9.3844 8.4736 9.3844 4.2764 0 8.1569-3.4449 8.1569-9.4635zm-8.2756-7.0878c2.6134 0 5.3851 2.257 5.3851 7.2066 0 4.5536-2.6134 6.8502-5.2267 6.8502-2.8905 0-5.5039-2.6926-5.5039-7.167 0-4.4348 2.5738-6.8898 5.3455-6.8898z"/>
   <path d="m519.72 435.99c-1.4255-2.0986-3.8408-3.3657-6.771-3.3657-5.3059 0-9.0676 3.9992-9.0676 9.424 0 5.4643 3.7617 9.5031 8.9092 9.5031 2.4946 0 4.9496-1.0295 6.6522-2.8905l-1.6234-1.9006c-1.2275 1.3859-3.0093 2.1778-4.7912 2.1778-3.5241 0-6.2166-2.9301-6.2166-7.167 0-4.118 2.653-6.6918 5.9791-6.6918 3.0885 0 4.5536 2.1382 4.6724 2.3758 0.15838 0.27718-0.0792 0.67314 0.23758 0.91072z"/>
   <path d="m531.67 432.59c-4.316 0-8.3152 3.0885-8.3152 9.6615 0 6.0582 3.7617 9.2656 8.6716 9.2656 2.6134 0 4.9496-0.95031 6.4938-2.8113l-1.5838-1.5443c-1.1483 1.3463-2.8905 2.059-4.6724 2.059-2.4154 0-5.9395-1.3463-6.1374-6.771h12.829c0.11879-1.2275 0.0792-2.4154-0.11879-3.4449-0.83152-4.8704-4.1972-6.4146-7.167-6.4146zm-5.4643 7.6817c0.59394-4.2764 3.3261-5.5039 5.2663-5.5039 2.9301 0 5.0288 2.5738 4.6724 5.5039z"/>
   <path d="m558.36 435.4c-1.663-1.8214-4.0784-2.8114-6.771-2.8114-4.1972 0-6.9294 2.3362-6.9294 5.0288 0 3.1677 3.4053 4.316 4.3952 4.6724 1.5443 0.55435 3.5241 1.0295 4.8704 1.663 1.5047 0.71274 1.7818 1.663 1.7818 2.2966 0 1.7026-2.059 2.8509-4.6328 2.8509-3.0885 0-5.0683-1.861-5.6623-2.4946-0.11879-0.15839-0.11879-0.27718-0.11879-0.43557 0-0.0396 0.0396-0.27717-0.15838-0.35636l-1.663 2.8113c2.1382 1.9798 4.91 2.8905 7.6421 2.8905 4.9496 0 7.5233-2.9301 7.5233-5.6623 0-1.2275-0.51476-2.8905-2.653-4.0784-2.0194-1.1483-4.9496-1.5443-6.6522-2.3758-1.4651-0.71274-1.7818-1.5839-1.7818-2.2174 0-1.4255 1.7818-2.455 3.8012-2.455 2.6134 0 4.3556 1.5839 5.0288 2.4946 0.11879 0.11879 0.0792 0.23758 0.0792 0.35637 0 0.23758 0.15839 0.31677 0.23758 0.31677z"/>
   <path d="m578.16 435.4c-1.663-1.8214-4.0784-2.8114-6.771-2.8114-4.1972 0-6.9294 2.3362-6.9294 5.0288 0 3.1677 3.4053 4.316 4.3952 4.6724 1.5443 0.55435 3.5241 1.0295 4.8704 1.663 1.5047 0.71274 1.7818 1.663 1.7818 2.2966 0 1.7026-2.059 2.8509-4.6328 2.8509-3.0885 0-5.0683-1.861-5.6623-2.4946-0.11879-0.15839-0.11879-0.27718-0.11879-0.43557 0-0.0396 0.0396-0.27717-0.15838-0.35636l-1.663 2.8113c2.1382 1.9798 4.91 2.8905 7.6421 2.8905 4.9496 0 7.5233-2.9301 7.5233-5.6623 0-1.2275-0.51476-2.8905-2.653-4.0784-2.0194-1.1483-4.9496-1.5443-6.6522-2.3758-1.4651-0.71274-1.7818-1.5839-1.7818-2.2174 0-1.4255 1.7818-2.455 3.8012-2.455 2.6134 0 4.3556 1.5839 5.0288 2.4946 0.11879 0.11879 0.0792 0.23758 0.0792 0.35637 0 0.23758 0.15839 0.31677 0.23758 0.31677z"/>
   <path d="m602.95 426.41v24.669h2.8905v-10.889h4.8308c1.5443 0 3.0093-0.0396 4.514-0.79192 2.2966-1.1483 3.4845-3.5241 3.4845-6.0187 0-2.4946-1.1879-4.91-3.5241-6.0978-1.5443-0.83152-3.0885-0.87112-4.6724-0.87112zm2.8905 2.6134h4.6328c1.0295 0 2.0194 0.0396 3.0489 0.51476 1.5047 0.79193 2.3362 2.3758 2.3362 3.9596s-0.79193 3.0489-2.2174 3.7617c-0.95031 0.47516-1.9006 0.51475-2.8509 0.51475h-4.9892z"/>
   <path d="m623.77 424.79v2.2966h5.1475v21.738h-5.3851v2.257h13.582v-2.257h-5.3455v-24.035z"/>
   <path d="m643.81 435.12 1.3859 1.8214c1.5047-1.5443 3.5241-2.0194 5.2267-2.0194 2.1382 0 3.2073 0.91072 3.7221 1.7422 0.59395 0.98991 0.55435 2.1778 0.55435 3.1281v0.63354h-0.55435c-2.6926 0-5.5435 0-7.8401 0.83153-2.8509 1.0295-4.118 3.1677-4.118 5.1475 0 2.653 2.2966 5.1475 6.0582 5.1475 2.2174 0 4.514-0.83153 6.4938-2.455v1.9798h2.6926v-11.206c0-1.4651-0.0396-2.8509-0.87112-4.2764-1.1879-1.9402-3.4845-2.9697-6.2958-2.9697-2.4154 0-4.7516 0.75233-6.4542 2.4946zm11.008 7.4837v1.2275c0 0.91071 0 2.0986-1.2275 3.4053-0.67314 0.67314-2.3758 2.1382-4.7516 2.1382-2.4154 0-3.8013-1.5443-3.8013-3.1281 0-1.3463 0.91072-2.8114 3.1677-3.3657 1.663-0.39596 4.0784-0.27717 5.9791-0.27717z"/>
   <path d="m661.83 433.02 7.3649 18.016-0.59394 1.3067c-0.31677 0.75233-0.67314 1.5047-1.2275 2.0986-0.75233 0.83152-1.7026 1.1879-2.5342 1.1879-1.3463 0-2.0194-0.91072-2.1382-1.0691-0.11879-0.19799-0.0792-0.47516-0.31677-0.67314l-1.4651 2.5738c1.0295 0.98991 2.4154 1.5047 3.92 1.5047 1.6234 0 3.3261-0.59395 4.514-1.9402 0.79193-0.91071 1.1879-1.861 1.5839-2.8905l5.6227-14.928c0.67314-1.7026 1.2671-3.4449 1.8214-5.2267h-2.9697c-0.31677 1.663-0.83152 3.2469-1.3859 4.8308l-3.4449 9.7011-5.3059-13.344c-0.0396-0.11879-0.0396-0.19798-0.0396-0.31677 0-0.27718 0.19798-0.47516 0.15839-0.83153z"/>
   <path d="m690.06 432.59c-4.316 0-8.3152 3.0885-8.3152 9.6615 0 6.0582 3.7617 9.2656 8.6716 9.2656 2.6134 0 4.9496-0.95031 6.4938-2.8113l-1.5838-1.5443c-1.1483 1.3463-2.8905 2.059-4.6724 2.059-2.4154 0-5.9395-1.3463-6.1374-6.771h12.829c0.11878-1.2275 0.0792-2.4154-0.11879-3.4449-0.83153-4.8704-4.1972-6.4146-7.167-6.4146zm-5.4643 7.6817c0.59394-4.2764 3.3261-5.5039 5.2663-5.5039 2.9301 0 5.0288 2.5738 4.6724 5.5039z"/>
   <path d="m703.56 433.02v18.096h2.8509v-8.7904c0-1.1087 0.0396-2.2966 1.2671-4.2368 1.663-2.6134 3.8013-3.0489 5.1079-3.0489 1.5047 0 2.455 0.71274 2.9697 1.3463 0.23758 0.31677 0.35637 0.63354 0.67314 0.91072l1.3463-2.7322c-1.1483-1.1879-2.8114-1.9798-4.8308-1.9798-2.653 0-5.3455 1.3463-6.5334 3.92l0.11879-3.4845z"/>
   <path d="m742.72 426.41v2.3362h4.5536v20.075h-4.8308v2.2966h12.75v-2.257h-5.1475v-20.115h4.8704v-2.3362z"/>
   <path d="m761.73 451.08h2.8905v-10.414c0-1.1879 0.15839-2.0986 0.91072-3.0885 0.67314-0.91072 2.4154-2.5342 4.316-2.5342 0.91072 0 1.8214 0.39596 2.455 1.1483 0.98991 1.1879 0.98991 2.7322 0.98991 3.9992v10.889h2.8114v-10.968c0-1.3859 0-2.8905-0.63355-4.3556-0.91072-2.0194-2.7718-3.1677-4.8308-3.1677-2.455 0-4.6724 1.5839-6.0187 3.6033v-3.1677h-2.8905z"/>
   <path d="m781.17 433.02 0.0396 24.669h2.8905v-8.9884c1.2275 1.7818 3.2469 2.8905 5.4247 2.8905 3.7221 0 7.6025-3.1281 7.6025-9.7407 0-6.375-3.7617-9.226-7.3253-9.226-2.3362 0-4.514 1.1879-5.7415 3.1677v-2.7718zm7.5629 2.0194c1.5839 0 5.4247 0.83153 5.4247 7.4045 0 5.7019-3.7221 6.6126-5.4247 6.6126s-3.4449-0.87112-4.1576-2.4946c-0.51476-1.2275-0.51476-2.7322-0.51476-5.3455 0-1.5047 0.0792-2.6134 0.47516-3.5637 0.71274-1.6234 2.3758-2.6134 4.1972-2.6134z"/>
   <path d="m801.09 433.02v10.097c0 1.5443 0 3.1281 0.71274 4.7516 1.0295 2.3758 3.2469 3.6825 5.6227 3.6825 2.257 0 4.3952-1.2275 5.5831-3.2073l-0.0396 1.3463c0 0.47515 0 0.95031 0.0792 1.3859h3.0093c-0.19798-0.51475-0.23758-1.1087-0.23758-1.6234v-16.433h-2.8509v9.9387c0 1.3859-0.11879 2.455-0.71274 3.5637-0.83152 1.5443-2.455 2.6926-4.1972 2.6926-1.3859 0-2.7322-0.79193-3.4449-2.2174-0.63354-1.2671-0.63354-2.6926-0.63354-3.8804v-10.097z"/>
   <path d="m825.87 428.15-0.35637 4.8704h-4.316l-0.0396 2.3362h4.2368c-0.23758 3.0885-0.35637 6.177-0.35637 9.226 0 1.6234 0 3.4449 1.0691 4.9496 0.87112 1.1879 2.257 1.9006 4.118 1.9006 2.1382 0 4.2368-0.91072 5.7811-2.0194l-0.87112-2.257c-1.5443 1.1483-2.9697 1.663-4.0784 1.663-1.3463 0-2.7322-0.75233-3.0489-2.9301 0-0.15839-0.11878-0.83153-0.11878-3.4845 0-2.3362 0.11878-4.712 0.35636-7.0482h5.9395v-2.3758h-5.8999s0.27717-3.2469 0.47516-4.2764c0.0396-0.39596 0.35636-0.63354 0.19798-1.0691z"/>
  </g>
  <rect x="10.95" y="327.72" width="409.1" height="85.994" fill="#3b390d" fill-opacity=".38431" stroke="#e9e56f" stroke-width="1.9006"/>
  <g transform="translate(-428.55 -226.04)" fill="#e9e56f" stroke-width="6.3354px" aria-label="Perform Game Logic">
   <path d="m463.57 584.79v24.669h2.8905v-10.889h4.8308c1.5443 0 3.0093-0.0396 4.514-0.79193 2.2966-1.1483 3.4845-3.5241 3.4845-6.0187 0-2.4946-1.1879-4.91-3.5241-6.0978-1.5443-0.83153-3.0885-0.87113-4.6724-0.87113zm2.8905 2.6134h4.6328c1.0295 0 2.0194 0.0396 3.0489 0.51475 1.5047 0.79193 2.3362 2.3758 2.3362 3.9596 0 1.5839-0.79193 3.0489-2.2174 3.7617-0.95032 0.47516-1.9006 0.51476-2.851 0.51476h-4.9892z"/>
   <path d="m491.29 590.97c-4.316 0-8.3152 3.0885-8.3152 9.6615 0 6.0582 3.7617 9.2656 8.6716 9.2656 2.6134 0 4.9496-0.95031 6.4938-2.8113l-1.5839-1.5443c-1.1483 1.3463-2.8905 2.059-4.6724 2.059-2.4154 0-5.9395-1.3463-6.1374-6.771h12.829c0.11879-1.2275 0.0792-2.4154-0.11879-3.4449-0.83153-4.8704-4.1972-6.4146-7.167-6.4146zm-5.4643 7.6817c0.59395-4.2764 3.3261-5.5039 5.2663-5.5039 2.9301 0 5.0288 2.5738 4.6724 5.5039z"/>
   <path d="m504.79 591.41v18.096h2.8509v-8.7904c0-1.1087 0.0396-2.2966 1.2671-4.2368 1.663-2.6134 3.8013-3.0489 5.1079-3.0489 1.5047 0 2.455 0.71274 2.9697 1.3463 0.23758 0.31677 0.35637 0.63354 0.67314 0.91072l1.3463-2.7322c-1.1483-1.1879-2.8114-1.9798-4.8308-1.9798-2.653 0-5.3455 1.3463-6.5334 3.92l0.11879-3.4845z"/>
   <path d="m534.25 582.93c-2.5342 0-4.91 1.0691-6.177 3.1281-0.95031 1.5047-0.98991 3.0093-0.98991 4.6328v1.7818h-3.9596v2.257h3.9596v14.73h2.7322v-14.73h5.8999v-2.257h-5.8999v-1.4255c0-1.3067-0.0396-2.6926 0.63355-3.8804 0.75233-1.3463 2.1778-2.0194 3.6429-2.0194 1.7422 0 3.2073 0.91072 3.9596 2.059 0.11879 0.19798 0.11879 0.31677 0.11879 0.47515 0 0.27718 0.19798 0.35637 0.31677 0.35637l1.3067-2.653c-1.3067-1.5443-3.2865-2.455-5.5435-2.455z"/>
   <path d="m558.68 600.51c0-6.2562-3.9596-9.5031-8.0777-9.5031-4.5932 0-8.5528 3.9596-8.5528 9.5823 0 5.5039 3.92 9.3844 8.4736 9.3844 4.2764 0 8.1569-3.4449 8.1569-9.4636zm-8.2756-7.0878c2.6134 0 5.3851 2.257 5.3851 7.2066 0 4.5536-2.6134 6.8502-5.2267 6.8502-2.8905 0-5.5039-2.6926-5.5039-7.167 0-4.4348 2.5738-6.8898 5.3455-6.8898z"/>
   <path d="m564.18 591.41v18.096h2.8509v-8.7904c0-1.1087 0.0396-2.2966 1.2671-4.2368 1.663-2.6134 3.8013-3.0489 5.1079-3.0489 1.5047 0 2.455 0.71274 2.9697 1.3463 0.23758 0.31677 0.35637 0.63354 0.67314 0.91072l1.3463-2.7322c-1.1483-1.1879-2.8113-1.9798-4.8308-1.9798-2.653 0-5.3455 1.3463-6.5334 3.92l0.11879-3.4845z"/>
   <path d="m581.53 609.46h2.6134v-12.037c0-0.87112 0.0792-1.663 0.59395-2.6134 0.63354-1.1879 1.4255-1.663 2.1778-1.663 0.63354 0 1.3463 0.39596 1.663 1.3859 0.23758 0.75234 0.19798 1.6235 0.19798 2.3758v12.552h2.653v-11.958c0-0.95031 0.0792-1.7026 0.75234-2.8509 0.31677-0.47515 0.98991-1.6234 2.0986-1.6234 0.59394 0 1.1483 0.35637 1.4255 1.0295 0.35636 0.75233 0.27717 1.7818 0.27717 2.6134v12.829h2.6926v-12.869c0-1.5047 0.0396-3.0093-0.75233-4.2368-0.67314-1.0295-1.8214-1.4255-2.8114-1.4255-1.7422 0-3.3657 1.0295-4.0784 2.6134-0.27718-1.5047-1.5443-2.6134-3.1677-2.6134-1.5047 0-2.8905 0.95031-3.7221 2.2174l0.0396-1.7818h-2.653z"/>
   <path d="m630.63 584.56c-3.2865 0-9.5427 2.059-9.5427 12.869 0 9.3448 5.2267 12.433 9.5031 12.433 2.2966 0 4.9496-0.83153 7.2462-2.5738v-9.6219h-7.0086v2.3758h4.4744v5.8999c-1.3859 0.98991-2.9697 1.5047-4.4348 1.5047-1.6235 0-3.3657-0.63355-4.712-2.1778-2.059-2.3362-2.3362-5.8207-2.3362-8.3944 0-2.2966 0.27718-4.514 1.2275-6.3354 1.2671-2.4154 3.4845-3.5241 5.5435-3.5241 2.2174 0 3.9596 1.2275 4.712 2.8905 0.11879 0.27718 0.23758 0.59395 0.55435 0.79193l1.9402-1.9798c-1.4255-2.5738-4.118-4.1576-7.167-4.1576z"/>
   <path d="m643.02 593.51 1.3859 1.8214c1.5047-1.5443 3.5241-2.0194 5.2267-2.0194 2.1382 0 3.2073 0.91072 3.7221 1.7422 0.59395 0.98991 0.55435 2.1778 0.55435 3.1281v0.63355h-0.55435c-2.6926 0-5.5435 0-7.8401 0.83152-2.8509 1.0295-4.118 3.1677-4.118 5.1475 0 2.653 2.2966 5.1475 6.0583 5.1475 2.2174 0 4.514-0.83152 6.4938-2.455v1.9798h2.6926v-11.206c0-1.4651-0.0396-2.851-0.87113-4.2764-1.1879-1.9402-3.4845-2.9697-6.2958-2.9697-2.4154 0-4.7516 0.75233-6.4542 2.4946zm11.008 7.4837v1.2275c0 0.91072 0 2.0986-1.2275 3.4053-0.67314 0.67314-2.3758 2.1382-4.7516 2.1382-2.4154 0-3.8012-1.5443-3.8012-3.1281 0-1.3463 0.91071-2.8114 3.1677-3.3657 1.663-0.39596 4.0784-0.27717 5.9791-0.27717z"/>
   <path d="m660.72 609.46h2.6134v-12.037c0-0.87112 0.0792-1.663 0.59395-2.6134 0.63354-1.1879 1.4255-1.663 2.1778-1.663 0.63354 0 1.3463 0.39596 1.663 1.3859 0.23758 0.75234 0.19798 1.6235 0.19798 2.3758v12.552h2.653v-11.958c0-0.95031 0.0792-1.7026 0.75234-2.8509 0.31677-0.47515 0.98991-1.6234 2.0986-1.6234 0.59394 0 1.1483 0.35637 1.4255 1.0295 0.35636 0.75233 0.27717 1.7818 0.27717 2.6134v12.829h2.6926v-12.869c0-1.5047 0.0396-3.0093-0.75233-4.2368-0.67314-1.0295-1.8214-1.4255-2.8114-1.4255-1.7422 0-3.3657 1.0295-4.0784 2.6134-0.27718-1.5047-1.5443-2.6134-3.1677-2.6134-1.5047 0-2.8905 0.95031-3.7221 2.2174l0.0396-1.7818h-2.653z"/>
   <path d="m689.27 590.97c-4.316 0-8.3152 3.0885-8.3152 9.6615 0 6.0582 3.7617 9.2656 8.6716 9.2656 2.6134 0 4.9496-0.95031 6.4938-2.8113l-1.5839-1.5443c-1.1483 1.3463-2.8905 2.059-4.6724 2.059-2.4154 0-5.9395-1.3463-6.1374-6.771h12.829c0.11879-1.2275 0.0792-2.4154-0.11879-3.4449-0.83152-4.8704-4.1972-6.4146-7.167-6.4146zm-5.4643 7.6817c0.59395-4.2764 3.3261-5.5039 5.2663-5.5039 2.9301 0 5.0287 2.5738 4.6724 5.5039z"/>
   <path d="m721.26 584.79v24.708h14.769v-2.3758h-11.919v-20.986c0-0.35637 0.11878-0.47515 0.23757-0.71273 0.0396-0.11879 0.15839-0.31677 0.11879-0.63355z"/>
   <path d="m756.66 600.51c0-6.2562-3.9596-9.5031-8.0777-9.5031-4.5932 0-8.5528 3.9596-8.5528 9.5823 0 5.5039 3.92 9.3844 8.4736 9.3844 4.2764 0 8.1569-3.4449 8.1569-9.4636zm-8.2756-7.0878c2.6134 0 5.3851 2.257 5.3851 7.2066 0 4.5536-2.6134 6.8502-5.2267 6.8502-2.8905 0-5.5039-2.6926-5.5039-7.167 0-4.4348 2.5738-6.8898 5.3455-6.8898z"/>
   <path d="m763.19 597.03c0-2.1778 1.8214-3.9596 3.9992-3.9596 2.2174 0 3.9992 1.7818 3.9992 3.9596 0 2.1778-1.7818 3.9596-3.9992 3.9596-2.2174 0-3.9992-1.7818-3.9992-3.9596zm4.1576-6.2166c-3.6033 0-6.7314 2.8509-6.7314 6.375 0 1.9798 0.98991 3.8409 2.653 4.91-1.3067 1.1087-2.059 2.3362-2.059 3.4845 0 0.75234 0.31677 1.8214 1.4651 2.4154-1.9402 1.2275-2.9301 2.5738-2.9301 3.9992 0 1.9798 1.8214 4.316 8.1569 4.316 6.1374 0 8.3548-3.1281 8.3548-5.5435 0-1.5839-0.91072-3.1677-2.8114-3.92-1.9006-0.79193-4.0784-0.51475-6.1374-0.51475-1.3463 0-2.2174-0.11879-2.5738-0.23758-0.71274-0.19798-1.1087-0.63354-1.1087-1.1879 0-0.95032 1.1087-1.861 1.3067-2.0194 0.71273 0.27717 1.5047 0.39596 2.2966 0.39596 3.5637 0 6.4938-2.8509 6.4938-6.177 0-1.1087-0.31677-2.1778-0.91071-3.0885 0.95031-0.55435 2.059-0.87112 3.1677-0.87112 0.35637 0 0.67314 0.0396 1.0295 0.11879l-0.31677-2.3362c-1.8214-0.15839-3.6429 0.43556-5.0288 1.5839-1.1483-1.1087-2.653-1.7026-4.316-1.7026zm-2.7322 17.7c0.67314 0.0792 1.6234 0.15839 3.0093 0.23758 1.3463 0.0396 2.8113-0.0792 3.8408 0.0792 1.663 0.27718 2.1778 1.3067 2.1778 2.0986s-0.47516 1.7422-1.7026 2.4154c-1.3463 0.71274-2.851 0.79193-4.0784 0.79193-0.83152 0-2.3758-0.0396-3.7221-0.59394-1.4651-0.59395-1.7818-1.5839-1.7818-2.2174 0-1.3067 1.2275-2.257 2.257-2.8114z"/>
   <path d="m782.24 591.37v2.3362h4.3556v13.502h-4.5932v2.257h11.721v-2.257h-4.2368v-15.839zm5.8603-7.8401c-1.1483 0-2.059 0.91072-2.059 2.0194s0.91072 2.0194 2.059 2.0194c1.1483 0 2.059-0.91071 2.059-2.0194s-0.91072-2.0194-2.059-2.0194z"/>
   <path d="m815.9 594.38c-1.4255-2.0986-3.8409-3.3657-6.771-3.3657-5.3059 0-9.0676 3.9992-9.0676 9.424 0 5.4643 3.7617 9.5031 8.9092 9.5031 2.4946 0 4.9496-1.0295 6.6522-2.8905l-1.6234-1.9006c-1.2275 1.3859-3.0093 2.1778-4.7912 2.1778-3.5241 0-6.2166-2.9301-6.2166-7.167 0-4.118 2.653-6.6918 5.9791-6.6918 3.0885 0 4.5536 2.1382 4.6724 2.3758 0.15839 0.27717-0.0792 0.67313 0.23758 0.91071z"/>
  </g>
  <rect x="549.46" y="168.7" width="409.1" height="85.994" fill="#3b390d" fill-opacity=".38431" stroke="#e9e56f" stroke-width="1.9006"/>
  <g transform="translate(-428.55 -226.04)" fill="#e9e56f" stroke-width="6.3354px" aria-label="Render scene">
   <path d="m1065.4 425.78v24.669h2.7718v-10.889h4.7911l5.4644 10.889h3.1281l-5.7019-10.968c2.9697-0.83152 5.0287-3.6429 5.0287-6.9294 0-2.455-1.2275-4.7912-3.5241-5.9395-1.5442-0.79193-3.0885-0.83153-4.7119-0.83153zm2.7718 2.6134h4.4744c1.0295 0 2.0194 0.0396 3.0489 0.51476 1.5443 0.79193 2.3362 2.3758 2.3362 3.9596s-0.7523 3.0489-2.1778 3.7617c-0.9503 0.47516-1.9006 0.51475-2.8906 0.51475h-4.7911z"/>
   <path d="m1093.2 431.95c-4.316 0-8.3152 3.0885-8.3152 9.6615 0 6.0582 3.7616 9.2656 8.6716 9.2656 2.6133 0 4.9495-0.95031 6.4938-2.8113l-1.5839-1.5443c-1.1483 1.3463-2.8905 2.059-4.6723 2.059-2.4154 0-5.9395-1.3463-6.1375-6.771h12.829c0.1187-1.2275 0.079-2.4154-0.1188-3.4449-0.8316-4.8704-4.1973-6.4146-7.167-6.4146zm-5.4643 7.6817c0.594-4.2764 3.3261-5.5039 5.2663-5.5039 2.9302 0 5.0288 2.5738 4.6724 5.5039z"/>
   <path d="m1105.4 450.45h2.8905v-10.414c0-1.1879 0.1584-2.0986 0.9108-3.0885 0.6731-0.91072 2.4153-2.5342 4.316-2.5342 0.9107 0 1.8214 0.39596 2.455 1.1483 0.9899 1.1879 0.9899 2.7322 0.9899 3.9992v10.889h2.8113v-10.968c0-1.3859 0-2.8905-0.6335-4.3556-0.9108-2.0194-2.7718-3.1677-4.8308-3.1677-2.455 0-4.6724 1.5839-6.0187 3.6033v-3.1677h-2.8905z"/>
   <path d="m1137.2 435c-0.8711-1.861-2.8113-3.0885-5.3059-3.0885-3.4449 0-7.6421 2.455-7.6421 9.3448 0 6.6918 3.7221 9.6219 7.2066 9.6219 2.2965 0 4.4348-1.3067 5.583-3.3261v1.5839c0 0.43556 0.04 0.87112 0.1584 1.3067h2.851c-0.1584-0.51475-0.1584-1.1087-0.1584-1.663l-0.04-23.52c0-0.23758 0-0.31677 0.1584-0.55435 0.079-0.11879 0.2376-0.31677 0.198-0.59395h-3.0094zm-5.1871-0.75233c1.5839 0 3.92 0.83152 4.6328 3.5241 0.2376 0.83152 0.3168 1.8214 0.3168 3.8408 0 1.3859-0.079 2.3758-0.396 3.3261-0.6731 2.1382-2.5738 3.4053-4.4348 3.4053-2.059 0-5.1079-1.5839-5.1079-7.5233 0-5.1871 2.8905-6.573 4.9891-6.573z"/>
   <path d="m1152.5 431.95c-4.316 0-8.3152 3.0885-8.3152 9.6615 0 6.0582 3.7617 9.2656 8.6716 9.2656 2.6134 0 4.9496-0.95031 6.4938-2.8113l-1.5838-1.5443c-1.1483 1.3463-2.8906 2.059-4.6724 2.059-2.4154 0-5.9395-1.3463-6.1375-6.771h12.829c0.1188-1.2275 0.079-2.4154-0.1188-3.4449-0.8315-4.8704-4.1972-6.4146-7.167-6.4146zm-5.4643 7.6817c0.594-4.2764 3.3261-5.5039 5.2664-5.5039 2.9301 0 5.0287 2.5738 4.6723 5.5039z"/>
   <path d="m1166 432.39v18.096h2.851v-8.7904c0-1.1087 0.04-2.2966 1.2671-4.2368 1.663-2.6134 3.8012-3.0489 5.1079-3.0489 1.5047 0 2.455 0.71274 2.9697 1.3463 0.2376 0.31677 0.3564 0.63354 0.6732 0.91072l1.3462-2.7322c-1.1483-1.1879-2.8113-1.9798-4.8307-1.9798-2.653 0-5.3455 1.3463-6.5334 3.92l0.1188-3.4845z"/>
   <path d="m1218.8 434.77c-1.663-1.8214-4.0784-2.8114-6.7709-2.8114-4.1973 0-6.9294 2.3362-6.9294 5.0288 0 3.1677 3.4053 4.316 4.3952 4.6724 1.5442 0.55435 3.5241 1.0295 4.8703 1.663 1.5047 0.71273 1.7819 1.663 1.7819 2.2966 0 1.7026-2.059 2.8509-4.6328 2.8509-3.0885 0-5.0683-1.861-5.6623-2.4946-0.1188-0.15839-0.1188-0.27718-0.1188-0.43557 0-0.0396 0.04-0.27717-0.1584-0.35636l-1.663 2.8113c2.1382 1.9798 4.9099 2.8905 7.6421 2.8905 4.9496 0 7.5233-2.9301 7.5233-5.6623 0-1.2275-0.5147-2.8905-2.6529-4.0784-2.0195-1.1483-4.9496-1.5443-6.6522-2.3758-1.4651-0.71274-1.7819-1.5839-1.7819-2.2174 0-1.4255 1.7819-2.455 3.8013-2.455 2.6133 0 4.3556 1.5839 5.0287 2.4946 0.1188 0.11879 0.079 0.23758 0.079 0.35637 0 0.23758 0.1584 0.31677 0.2376 0.31677z"/>
   <path d="m1239.6 435.36c-1.4255-2.0986-3.8409-3.3657-6.771-3.3657-5.3059 0-9.0676 3.9992-9.0676 9.424 0 5.4643 3.7617 9.5031 8.9092 9.5031 2.4946 0 4.9496-1.0295 6.6522-2.8905l-1.6234-1.9006c-1.2275 1.3859-3.0094 2.1778-4.7912 2.1778-3.5241 0-6.2167-2.9301-6.2167-7.167 0-4.118 2.653-6.6918 5.9791-6.6918 3.0885 0 4.5536 2.1382 4.6724 2.3758 0.1584 0.27718-0.079 0.67314 0.2376 0.91072z"/>
   <path d="m1251.5 431.95c-4.316 0-8.3152 3.0885-8.3152 9.6615 0 6.0582 3.7616 9.2656 8.6716 9.2656 2.6133 0 4.9495-0.95031 6.4938-2.8113l-1.5839-1.5443c-1.1483 1.3463-2.8905 2.059-4.6723 2.059-2.4154 0-5.9395-1.3463-6.1375-6.771h12.829c0.1188-1.2275 0.079-2.4154-0.1187-3.4449-0.8316-4.8704-4.1973-6.4146-7.167-6.4146zm-5.4643 7.6817c0.5939-4.2764 3.3261-5.5039 5.2663-5.5039 2.9302 0 5.0288 2.5738 4.6724 5.5039z"/>
   <path d="m1263.8 450.45h2.8905v-10.414c0-1.1879 0.1584-2.0986 0.9107-3.0885 0.6732-0.91072 2.4154-2.5342 4.3161-2.5342 0.9107 0 1.8214 0.39596 2.4549 1.1483 0.9899 1.1879 0.9899 2.7322 0.9899 3.9992v10.889h2.8114v-10.968c0-1.3859 0-2.8905-0.6336-4.3556-0.9107-2.0194-2.7717-3.1677-4.8307-3.1677-2.455 0-4.6724 1.5839-6.0187 3.6033v-3.1677h-2.8905z"/>
   <path d="m1291.1 431.95c-4.316 0-8.3152 3.0885-8.3152 9.6615 0 6.0582 3.7616 9.2656 8.6716 9.2656 2.6133 0 4.9495-0.95031 6.4938-2.8113l-1.5839-1.5443c-1.1483 1.3463-2.8905 2.059-4.6723 2.059-2.4154 0-5.9395-1.3463-6.1375-6.771h12.829c0.1187-1.2275 0.079-2.4154-0.1188-3.4449-0.8316-4.8704-4.1973-6.4146-7.167-6.4146zm-5.4643 7.6817c0.594-4.2764 3.3261-5.5039 5.2663-5.5039 2.9302 0 5.0288 2.5738 4.6724 5.5039z"/>
  </g>
  <rect x="10.95" y="486.11" width="409.1" height="85.994" fill="#3b390d" fill-opacity=".38431" stroke="#e9e56f" stroke-width="1.9006"/>
  <g transform="translate(-428.55 -226.04)" fill="#e9e56f" stroke-width="6.3354px" aria-label="Shutdown">
   <path d="m579.82 746.15c-1.663-2.0194-4.118-3.0885-6.8106-3.0885-4.4744 0-7.5233 2.9301-7.5233 6.3354 0 1.4255 0.55435 3.2865 2.6134 4.7912 2.2966 1.7026 5.8603 2.5342 7.7213 3.7221 1.6234 0.98991 2.059 2.2966 2.059 3.4053 0 2.1382-1.8214 4.4744-5.3851 4.4744-2.6926 0-4.7912-1.3463-5.8999-2.7322-0.11879-0.15838-0.11879-0.23757-0.11879-0.39596 0-0.0792 0-0.31677-0.15838-0.39596l-1.663 2.8509c1.9402 2.0986 4.712 3.1677 7.7609 3.1677 6.0186 0 8.236-4.0388 8.236-7.1274 0-1.3067-0.39596-3.0093-1.9402-4.4744-2.1382-2.0194-5.6227-2.7322-7.8797-4.0388-2.059-1.2275-2.4946-2.6926-2.4946-3.6825 0-1.9006 1.6235-3.6033 4.4348-3.6033 2.2966 0 4.0784 1.0295 5.0288 2.4154 0.11879 0.15838 0.0792 0.23757 0.0792 0.39596 0 0.23758 0.11879 0.31677 0.19798 0.31677z"/>
   <path d="m585.17 767.85h2.9301v-10.414c0-1.1879 0.11879-2.0986 0.87112-3.0885 0.71273-0.91072 2.455-2.5342 4.3556-2.5342 0.91071 0 1.8214 0.39596 2.455 1.1483 0.98991 1.1879 0.98991 2.7322 0.98991 3.9992v10.889h2.8114v-10.968c0-1.3859-0.0396-2.8905-0.67314-4.3556-0.91072-2.0194-2.7322-3.1677-4.7912-3.1677-2.455 0-4.712 1.5839-6.0186 3.6033v-10.493c0-0.11879 0-0.23758 0.11879-0.35637s0.27717-0.23758 0.27717-0.43556c0-0.0396 0-0.0792-0.0396-0.11879h-3.2865z"/>
   <path d="m604.69 749.79v10.097c0 1.5443 0 3.1281 0.71273 4.7516 1.0295 2.3758 3.2469 3.6825 5.6227 3.6825 2.257 0 4.3952-1.2275 5.5831-3.2073l-0.0396 1.3463c0 0.47515 0 0.95031 0.0792 1.3859h3.0093c-0.19798-0.51475-0.23757-1.1087-0.23757-1.6234v-16.433h-2.851v9.9387c0 1.3859-0.11879 2.455-0.71273 3.5637-0.83153 1.5443-2.455 2.6926-4.1972 2.6926-1.3859 0-2.7322-0.79193-3.4449-2.2174-0.63354-1.2671-0.63354-2.6926-0.63354-3.8804v-10.097z"/>
   <path d="m629.48 744.92-0.35637 4.8704h-4.316l-0.0396 2.3362h4.2368c-0.23758 3.0885-0.35637 6.177-0.35637 9.226 0 1.6234 0 3.4449 1.0691 4.9496 0.87112 1.1879 2.257 1.9006 4.118 1.9006 2.1382 0 4.2368-0.91072 5.7811-2.0194l-0.87112-2.257c-1.5443 1.1483-2.9697 1.663-4.0784 1.663-1.3463 0-2.7322-0.75233-3.0489-2.9301 0-0.15839-0.11879-0.83153-0.11879-3.4845 0-2.3362 0.11879-4.712 0.35637-7.0482h5.9395v-2.3758h-5.8999s0.27717-3.2469 0.47516-4.2764c0.0396-0.39596 0.35636-0.63354 0.19798-1.0691z"/>
   <path d="m656.52 752.41c-0.87112-1.861-2.8113-3.0885-5.3059-3.0885-3.4449 0-7.6421 2.455-7.6421 9.3448 0 6.6918 3.7221 9.6219 7.2066 9.6219 2.2966 0 4.4348-1.3067 5.5831-3.3261v1.5839c0 0.43556 0.0396 0.87112 0.15838 1.3067h2.8509c-0.15838-0.51475-0.15838-1.1087-0.15838-1.663l-0.0396-23.52c0-0.23758 0-0.31677 0.15839-0.55435 0.0792-0.11879 0.23758-0.31677 0.19798-0.59395h-3.0093zm-5.1871-0.75234c1.5839 0 3.92 0.83153 4.6328 3.5241 0.23758 0.83152 0.31677 1.8214 0.31677 3.8408 0 1.3859-0.0792 2.3758-0.39596 3.3261-0.67314 2.1382-2.5738 3.4053-4.4348 3.4053-2.059 0-5.1079-1.5839-5.1079-7.5233 0-5.1871 2.8905-6.573 4.9892-6.573z"/>
   <path d="m679.84 758.9c0-6.2562-3.9596-9.5031-8.0777-9.5031-4.5932 0-8.5528 3.9596-8.5528 9.5823 0 5.5039 3.92 9.3844 8.4736 9.3844 4.2764 0 8.1569-3.4449 8.1569-9.4635zm-8.2756-7.0878c2.6134 0 5.3851 2.257 5.3851 7.2066 0 4.5536-2.6134 6.8502-5.2267 6.8502-2.8905 0-5.5039-2.6926-5.5039-7.167 0-4.4348 2.5738-6.8898 5.3455-6.8898z"/>
   <path d="m682.02 749.75 3.6429 18.135h2.5738l3.1677-11.721 3.3657 11.721h2.653c1.2275-5.9791 2.257-12.037 3.0093-18.096h-2.6134c0.0792 2.1778-0.11879 4.1972-1.7026 14.492l-3.8012-12.829h-1.7422l-3.1281 12.869-2.6134-13.067c-0.0792-0.27717-0.0792-0.39596 0.0396-0.71273 0.0396-0.19799 0.15838-0.47516 0.0396-0.79193z"/>
   <path d="m703.92 767.85h2.8905v-10.414c0-1.1879 0.15838-2.0986 0.91072-3.0885 0.67313-0.91072 2.4154-2.5342 4.316-2.5342 0.91071 0 1.8214 0.39596 2.455 1.1483 0.98991 1.1879 0.98991 2.7322 0.98991 3.9992v10.889h2.8114v-10.968c0-1.3859 0-2.8905-0.63354-4.3556-0.91072-2.0194-2.7718-3.1677-4.8308-3.1677-2.455 0-4.6724 1.5839-6.0186 3.6033v-3.1677h-2.8905z"/>
  </g>
 </g>
 <g fill="none" stroke="#b62a2a">
  <g stroke-width="6.3354">
   <path d="m833.84 256.68v38.013h158.39v-76.025h-20.056"/>
   <path d="m220.09 97.701v58.652"/>
   <path d="m220.09 256.21v58.652"/>
   <path d="m220.09 414.35v58.652"/>
   <path d="m420.98 371.52h59.395v-160.37h-47.516"/>
   <path d="m766.52 166.01v-35.637h-546.43"/>
  </g>
  <path d="m766.52 255.1v274.7h-333.59" stroke-width="5.9395px"/>
 </g>
 <g transform="matrix(6.3354 0 0 6.3354 -2949.3 -1590.6)">
  <path d="m501.47 274.25-1.2053 3.2778-1.2053-3.2778c0.71162 0.52365 1.6852 0.52064 2.4106 0z" fill="#fff" fill-rule="evenodd" stroke="#b62a2a" stroke-linejoin="round" stroke-width=".1875"/>
 </g>
 <g transform="matrix(6.3354 0 0 6.3354 -2949.3 -1432.1)">
  <path d="m501.47 274.25-1.2053 3.2778-1.2053-3.2778c0.71162 0.52365 1.6852 0.52064 2.4106 0z" fill="#fff" fill-rule="evenodd" stroke="#b62a2a" stroke-linejoin="round" stroke-width=".1875"/>
 </g>
 <g transform="matrix(6.3354 0 0 6.3354 -2949.3 -1273.8)">
  <path d="m501.47 274.25-1.2053 3.2778-1.2053-3.2778c0.71162 0.52365 1.6852 0.52064 2.4106 0z" fill="#fff" fill-rule="evenodd" stroke="#b62a2a" stroke-linejoin="round" stroke-width=".1875"/>
 </g>
 <g transform="matrix(0 6.3354 -6.3354 0 2179.9 -2958.1)">
  <path d="m501.47 274.25-1.2053 3.2778-1.2053-3.2778c0.71162 0.52365 1.6852 0.52064 2.4106 0z" fill="#fff" fill-rule="evenodd" stroke="#b62a2a" stroke-linejoin="round" stroke-width=".1875"/>
 </g>
 <g transform="matrix(0 6.3354 -6.3354 0 2179.9 -2639.5)">
  <path d="m501.47 274.25-1.2053 3.2778-1.2053-3.2778c0.71162 0.52365 1.6852 0.52064 2.4106 0z" fill="#fff" fill-rule="evenodd" stroke="#b62a2a" stroke-linejoin="round" stroke-width=".1875"/>
 </g>
 <g transform="matrix(0 6.3354 -6.3354 0 2718.4 -2950.7)">
  <path d="m501.47 274.25-1.2053 3.2778-1.2053-3.2778c0.71162 0.52365 1.6852 0.52064 2.4106 0z" fill="#fff" fill-rule="evenodd" stroke="#b62a2a" stroke-linejoin="round" stroke-width=".1875"/>
 </g>
</svg>
