<svg version="1.1" viewBox="0 0 902.16 300.4" xmlns="http://www.w3.org/2000/svg">
 <g>
  <rect x="80.911" y="90.423" width="193.89" height="109.34" fill="#3b390d" fill-opacity=".38318" stroke="#e9e56f" stroke-width="1.6909"/>
  <g transform="translate(-269.2 -156.1)" fill="#e9e56f" stroke-width="5.6363px" aria-label="PROCESS  INPUT">
   <path d="m382.55 271.92v21.946h2.5716v-9.6873h4.2977c1.3738 0 2.6772-0.0352 4.0158-0.70453 2.0432-1.0216 3.1-3.1352 3.1-5.3545 0-2.2193-1.0568-4.3681-3.1352-5.4249-1.3738-0.73976-2.7477-0.77498-4.1568-0.77498zm2.5716 2.325h4.1215c0.9159 0 1.7966 0.0352 2.7125 0.45795 1.3386 0.70453 2.0784 2.1136 2.0784 3.5227 0 1.4091-0.70453 2.7125-1.9727 3.3465-0.84544 0.42272-1.6909 0.45795-2.5363 0.45795h-4.4386z"/>
   <path d="m400.09 271.92v21.946h2.4659v-9.6873h4.2624l4.8613 9.6873h2.7829l-5.0726-9.7578c2.642-0.73976 4.4738-3.2408 4.4738-6.1647 0-2.184-1.092-4.2624-3.1352-5.284-1.3738-0.70454-2.7477-0.73976-4.192-0.73976zm2.4659 2.325h3.9806c0.91589 0 1.7966 0.0352 2.7124 0.45795 1.3738 0.70453 2.0784 2.1136 2.0784 3.5227 0 1.4091-0.66931 2.7125-1.9375 3.3465-0.84544 0.42272-1.6909 0.45795-2.5716 0.45795h-4.2624z"/>
   <path d="m432.33 282.95c0-2.0432-0.1409-4.7556-1.3386-7.1158-1.4443-2.8181-3.9454-4.1215-6.3408-4.1215-3.2761 0-7.8908 2.5363-7.8908 11.167s4.5442 11.343 7.926 11.343c2.3602 0 4.8965-1.3386 6.3408-4.2624 1.1625-2.3602 1.3034-5.0726 1.3034-7.0101zm-7.7851-8.9476c1.55 0 3.4522 0.9159 4.4738 3.4874 0.73976 1.8318 0.84544 3.9454 0.84544 5.7772 0 1.4443-0.0705 3.6988-0.98634 5.5658-1.0216 2.1488-2.7125 2.9943-4.192 2.9943-2.4659 0-5.4954-2.2897-5.4954-9.2646 0-6.5522 3.0647-8.5601 5.3544-8.5601z"/>
   <path d="m443.11 271.75c-3.417 0-8.3487 2.5011-8.3487 11.308 0 8.4544 4.7204 11.202 8.3487 11.202 2.6068 0 5.0374-1.3738 6.4113-3.6284l-1.7966-1.1625c-1.0216 1.6556-2.7829 2.642-4.4738 2.642-3.2409 0-6.0942-3.3465-6.0942-9.2998 0-5.8124 2.7829-9.0885 5.8829-9.0885 1.6909 0 3.3113 1.0216 4.192 2.5716 0.0705 0.10568 0.14091 0.21136 0.14091 0.35226 0 0.10568-0.0352 0.17614-0.0352 0.28182 0 0.0352 0 0.21136 0.17614 0.31704l2.325-1.1273c-1.1625-2.642-3.8045-4.3681-6.7283-4.3681z"/>
   <path d="m453 271.92v21.946h13.386v-2.184h-11.026v-8.1374h9.1589v-2.2545h-9.1589v-7.1862h11.096v-2.184z"/>
   <path d="m483.86 274.57c-1.4795-1.7966-3.6636-2.7477-6.059-2.7477-3.9806 0-6.6931 2.6068-6.6931 5.6363 0 1.2682 0.49318 2.9238 2.325 4.2624 2.0431 1.5147 5.2136 2.2545 6.8692 3.3113 1.4443 0.88066 1.8318 2.0431 1.8318 3.0295 0 1.9022-1.6204 3.9806-4.7908 3.9806-2.3954 0-4.2624-1.1977-5.2488-2.4306-0.10568-0.1409-0.10568-0.21136-0.10568-0.35226 0-0.0705 0-0.28182-0.1409-0.35227l-1.4795 2.5363c1.7261 1.867 4.192 2.8181 6.9044 2.8181 5.3544 0 7.3272-3.5931 7.3272-6.3408 0-1.1625-0.35227-2.6772-1.7261-3.9806-1.9022-1.7966-5.0022-2.4306-7.0101-3.5931-1.8318-1.092-2.2193-2.3954-2.2193-3.2761 0-1.6909 1.4443-3.2056 3.9454-3.2056 2.0431 0 3.6283 0.91589 4.4738 2.1488 0.10568 0.14091 0.0705 0.21136 0.0705 0.35227 0 0.21136 0.10568 0.28181 0.17613 0.28181z"/>
   <path d="m501.48 274.57c-1.4795-1.7966-3.6636-2.7477-6.059-2.7477-3.9806 0-6.6931 2.6068-6.6931 5.6363 0 1.2682 0.49318 2.9238 2.325 4.2624 2.0431 1.5147 5.2136 2.2545 6.8692 3.3113 1.4443 0.88066 1.8318 2.0431 1.8318 3.0295 0 1.9022-1.6204 3.9806-4.7908 3.9806-2.3954 0-4.2624-1.1977-5.2488-2.4306-0.10568-0.1409-0.10568-0.21136-0.10568-0.35226 0-0.0705 0-0.28182-0.1409-0.35227l-1.4795 2.5363c1.7261 1.867 4.192 2.8181 6.9044 2.8181 5.3544 0 7.3272-3.5931 7.3272-6.3408 0-1.1625-0.35227-2.6772-1.7261-3.9806-1.9022-1.7966-5.0022-2.4306-7.0101-3.5931-1.8318-1.092-2.2193-2.3954-2.2193-3.2761 0-1.6909 1.4443-3.2056 3.9454-3.2056 2.0431 0 3.6283 0.91589 4.4738 2.1488 0.10568 0.14091 0.0705 0.21136 0.0705 0.35227 0 0.21136 0.10568 0.28181 0.17613 0.28181z"/>
   <path d="m401.22 315.96v2.0784h4.0511v17.86h-4.2977v2.0432h11.343v-2.0079h-4.5795v-17.895h4.3329v-2.0784z"/>
   <path d="m417.5 337.9h2.3602v-17.261l9.6521 17.296h1.9727v-21.066c0-0.24659 0.0352-0.31704 0.14091-0.49317 0.0352-0.0705 0.10568-0.24659 0.0704-0.42272h-2.6068v16.275l-9.1942-16.275h-2.3954z"/>
   <path d="m435.39 315.96v21.946h2.5715v-9.6873h4.2977c1.3738 0 2.6772-0.0352 4.0158-0.70454 2.0432-1.0216 3.1-3.1352 3.1-5.3544 0-2.2193-1.0568-4.3681-3.1352-5.4249-1.3738-0.73977-2.7477-0.77499-4.1568-0.77499zm2.5715 2.325h4.1215c0.91589 0 1.7966 0.0352 2.7124 0.45795 1.3386 0.70453 2.0784 2.1136 2.0784 3.5227 0 1.4091-0.70454 2.7124-1.9727 3.3465-0.84544 0.42272-1.6909 0.45795-2.5363 0.45795h-4.4386z"/>
   <path d="m452.72 315.96v14.408c0 1.55 0.0352 3.0295 0.84544 4.5442 1.1977 2.2545 3.6636 3.417 6.2351 3.417 2.5363 0 5.0022-1.1273 6.2351-3.4522 0.84544-1.5148 0.88067-3.0295 0.88067-4.6499v-14.267h-2.325v14.337c0 1.1272-0.0352 2.2193-0.56363 3.3465-0.81021 1.6909-2.4659 2.5715-4.192 2.5715-1.7261 0-3.3818-0.91589-4.1568-2.6068-0.5284-1.0568-0.5284-2.1488-0.5284-3.2409v-13.28c0-0.1409 0-0.28181 0.1409-0.45795 0.0705-0.10568 0.21136-0.28181 0.21136-0.49317 0-0.0352 0-0.10568-0.0352-0.17613z"/>
   <path d="m469.67 315.96v2.2193h6.1999v19.762h2.5011v-19.762h6.4817v-2.2193z"/>
  </g>
  <path d="m276.49 145.09h72.405" fill="none" stroke="#b62a2a" stroke-width="5.6363"/>
  <rect x="358.81" y="90.423" width="193.89" height="109.34" fill="#3b390d" fill-opacity=".38318" stroke="#e9e56f" stroke-width="1.6909"/>
  <g transform="translate(-269.2 -156.1)" fill="#e9e56f" stroke-width="5.6363px" aria-label="UPDATE  GAME">
   <path d="m671.44 271.92v14.408c0 1.55 0.0352 3.0295 0.84544 4.5442 1.1977 2.2545 3.6636 3.417 6.2351 3.417 2.5363 0 5.0022-1.1272 6.2351-3.4522 0.84544-1.5148 0.88066-3.0295 0.88066-4.6499v-14.267h-2.325v14.337c0 1.1272-0.0352 2.2193-0.56363 3.3465-0.81021 1.6909-2.4659 2.5716-4.192 2.5716s-3.3818-0.91589-4.1568-2.6068c-0.5284-1.0568-0.5284-2.1488-0.5284-3.2409v-13.28c0-0.14091 0-0.28181 0.14091-0.45795 0.0704-0.10568 0.21136-0.28181 0.21136-0.49317 0-0.0352 0-0.10568-0.0352-0.17613z"/>
   <path d="m689.34 271.92v21.946h2.5716v-9.6873h4.2977c1.3738 0 2.6772-0.0352 4.0158-0.70453 2.0432-1.0216 3.1-3.1352 3.1-5.3545 0-2.2193-1.0568-4.3681-3.1352-5.4249-1.3738-0.73976-2.7477-0.77498-4.1567-0.77498zm2.5716 2.325h4.1215c0.91589 0 1.7966 0.0352 2.7124 0.45795 1.3386 0.70453 2.0784 2.1136 2.0784 3.5227 0 1.4091-0.70454 2.7125-1.9727 3.3465-0.84544 0.42272-1.6909 0.45795-2.5363 0.45795h-4.4386z"/>
   <path d="m706.78 271.92v21.981h4.7204c1.7261 0 3.2056-0.0704 4.7556-0.88067 3.1352-1.6204 4.8613-5.3544 4.8613-10.145 0-4.2272-1.2682-7.926-4.0863-9.7578-1.5852-1.0568-3.1704-1.1977-5.1079-1.1977zm2.325 2.1136h2.6772c1.3738 0 2.7477 0.0704 4.1215 1.1977 2.0432 1.6909 2.7124 4.826 2.7124 7.9612 0 4.192-1.3738 6.5874-3.1352 7.7851-1.3738 0.91589-2.7477 0.98634-4.1215 0.98634h-2.2545z"/>
   <path d="m723.02 293.91h2.4306l2.1488-6.4465h6.9397l2.4306 6.4112h2.5716l-8.4896-22.334h-0.28182zm10.991-8.3487h-5.9533l2.8534-8.3487z"/>
   <path d="m741.23 271.92v2.2193h6.1999v19.762h2.5011v-19.762h6.4817v-2.2193z"/>
   <path d="m759.79 271.92v21.946h13.386v-2.184h-11.026v-8.1374h9.1589v-2.2545h-9.1589v-7.1862h11.096v-2.184z"/>
   <path d="m697.05 315.75c-2.9238 0-8.4896 1.8318-8.4896 11.449 0 8.3135 4.6499 11.061 8.4544 11.061 2.0432 0 4.4033-0.73976 6.4465-2.2897v-8.5601h-6.2351v2.1136h3.9806v5.2488c-1.2329 0.88067-2.642 1.3386-3.9454 1.3386-1.4443 0-2.9943-0.56362-4.192-1.9375-1.8318-2.0784-2.0784-5.1783-2.0784-7.4681 0-2.0432 0.24659-4.0158 1.092-5.6363 1.1272-2.1488 3.1-3.1352 4.9317-3.1352 1.9727 0 3.5227 1.092 4.192 2.5716 0.10568 0.24659 0.21136 0.5284 0.49317 0.70453l1.7261-1.7613c-1.2682-2.2897-3.6636-3.6988-6.376-3.6988z"/>
   <path d="m705.4 337.94h2.4306l2.1488-6.4465h6.9397l2.4306 6.4112h2.5716l-8.4896-22.334h-0.28181zm10.991-8.3487h-5.9533l2.8534-8.3487z"/>
   <path d="m723.93 315.96v21.981h2.325v-16.451l4.4386 8.701h0.91589l4.7556-8.8419v16.592h2.325v-21.981h-1.8318l-5.5306 10.744-5.4601-10.744z"/>
   <path d="m742.18 315.96v21.946h13.386v-2.184h-11.026v-8.1374h9.1589v-2.2545h-9.1589v-7.1862h11.096v-2.184z"/>
  </g>
  <path d="m838.43 143.4s258.61 144.18-389.56 144.18c-648.17 0-381.91-139.89-381.91-139.89" fill="none" stroke="#b62a2a" stroke-width="5.6363"/>
  <rect x="644.54" y="90.423" width="193.89" height="109.34" fill="#3b390d" fill-opacity=".38318" stroke="#e9e56f" stroke-width="1.6909"/>
 </g>
 <g>
  <g transform="translate(-269.2 -156.1)" fill="#e9e56f" stroke-width="5.6363px" aria-label="RENDER">
   <path d="m957.38 288.83v21.946h2.4659v-9.6873h4.2624l4.8613 9.6873h2.7829l-5.0726-9.7578c2.642-0.73976 4.4738-3.2408 4.4738-6.1647 0-2.184-1.092-4.2624-3.1352-5.284-1.3738-0.70453-2.7477-0.73976-4.192-0.73976zm2.4659 2.325h3.9806c0.9159 0 1.7966 0.0352 2.7125 0.45795 1.3738 0.70453 2.0784 2.1136 2.0784 3.5227s-0.66931 2.7124-1.9375 3.3465c-0.84544 0.42272-1.6909 0.45795-2.5715 0.45795h-4.2624z"/>
   <path d="m975.06 288.83v21.946h13.386v-2.1841h-11.026v-8.1374h9.1589v-2.2545h-9.1589v-7.1862h11.096v-2.1841z"/>
   <path d="m992.4 310.78h2.3602v-17.261l9.6522 17.296h1.9727v-21.066c0-0.24658 0.035-0.31704 0.1409-0.49317 0.035-0.0704 0.1056-0.24659 0.07-0.42272h-2.6068v16.275l-9.1941-16.275h-2.3954z"/>
   <path d="m1010.1 288.83v21.981h4.7204c1.7261 0 3.2056-0.0704 4.7556-0.88066 3.1351-1.6204 4.8613-5.3545 4.8613-10.145 0-4.2272-1.2682-7.926-4.0863-9.7578-1.5852-1.0568-3.1704-1.1977-5.1079-1.1977zm2.325 2.1136h2.6772c1.3738 0 2.7477 0.0705 4.1215 1.1977 2.0432 1.6909 2.7125 4.8261 2.7125 7.9612 0 4.192-1.3739 6.5874-3.1352 7.7851-1.3739 0.91589-2.7477 0.98635-4.1215 0.98635h-2.2545z"/>
   <path d="m1027.9 288.83v21.946h13.386v-2.1841h-11.026v-8.1374h9.1589v-2.2545h-9.1589v-7.1862h11.096v-2.1841z"/>
   <path d="m1045.4 288.83v21.946h2.4658v-9.6873h4.2625l4.8612 9.6873h2.7829l-5.0726-9.7578c2.642-0.73976 4.4738-3.2408 4.4738-6.1647 0-2.184-1.092-4.2624-3.1352-5.284-1.3738-0.70453-2.7477-0.73976-4.192-0.73976zm2.4658 2.325h3.9806c0.9159 0 1.7966 0.0352 2.7125 0.45795 1.3738 0.70453 2.0784 2.1136 2.0784 3.5227s-0.6693 2.7124-1.9375 3.3465c-0.8454 0.42272-1.6909 0.45795-2.5715 0.45795h-4.2625z"/>
  </g>
  <path d="m552.67 145.09h79.26" fill="none" stroke="#b62a2a" stroke-width="5.6363"/>
  <g transform="translate(-269.2 -156.1)" fill="#e9e56f" stroke-width="5.6363px" aria-label="Rendering loop">
   <path d="m602.15 167.58v21.946h2.4659v-9.6873h4.2624l4.8613 9.6873h2.7829l-5.0726-9.7578c2.642-0.73976 4.4738-3.2409 4.4738-6.1647 0-2.1841-1.092-4.2624-3.1352-5.284-1.3738-0.70453-2.7477-0.73976-4.192-0.73976zm2.4659 2.325h3.9806c0.9159 0 1.7966 0.0352 2.7125 0.45794 1.3738 0.70454 2.0784 2.1136 2.0784 3.5227s-0.6693 2.7125-1.9375 3.3465c-0.84544 0.42272-1.6909 0.45794-2.5716 0.45794h-4.2624z"/>
   <path d="m626.88 173.08c-3.8397 0-7.3976 2.7477-7.3976 8.5953 0 5.3897 3.3465 8.243 7.7146 8.243 2.325 0 4.4033-0.84544 5.7772-2.5011l-1.4091-1.3738c-1.0216 1.1977-2.5715 1.8318-4.1567 1.8318-2.1488 0-5.284-1.1977-5.4601-6.0238h11.413c0.10568-1.092 0.0705-2.1488-0.10568-3.0647-0.73976-4.3329-3.734-5.7067-6.376-5.7067zm-4.8613 6.834c0.5284-3.8045 2.959-4.8965 4.6852-4.8965 2.6068 0 4.4738 2.2897 4.1568 4.8965z"/>
   <path d="m637.8 189.53h2.5716v-9.2646c0-1.0568 0.1409-1.867 0.81021-2.7477 0.59885-0.81021 2.1488-2.2545 3.8397-2.2545 0.81021 0 1.6204 0.35227 2.184 1.0216 0.88067 1.0568 0.88067 2.4306 0.88067 3.5579v9.6873h2.5011v-9.7578c0-1.2329 0-2.5716-0.56363-3.8749-0.81021-1.7966-2.4659-2.8181-4.2977-2.8181-2.184 0-4.1568 1.4091-5.3544 3.2056v-2.8181h-2.5716z"/>
   <path d="m666.09 175.79c-0.77499-1.6556-2.5011-2.7477-4.7204-2.7477-3.0647 0-6.7988 2.1841-6.7988 8.3135 0 5.9533 3.3113 8.5601 6.4113 8.5601 2.0432 0 3.9454-1.1625 4.967-2.959v1.4091c0 0.38749 0.0352 0.77499 0.14091 1.1625h2.5363c-0.1409-0.45795-0.1409-0.98635-0.1409-1.4795l-0.0352-20.925c0-0.21136 0-0.28182 0.14091-0.49318 0.0704-0.10568 0.21136-0.28181 0.17613-0.5284h-2.6772zm-4.6147-0.6693c1.4091 0 3.4874 0.73976 4.1215 3.1352 0.21136 0.73976 0.28181 1.6204 0.28181 3.417 0 1.2329-0.0704 2.1136-0.35227 2.959-0.59885 1.9022-2.2897 3.0295-3.9454 3.0295-1.8318 0-4.5442-1.4091-4.5442-6.6931 0-4.6147 2.5716-5.8476 4.4386-5.8476z"/>
   <path d="m679.72 173.08c-3.8397 0-7.3976 2.7477-7.3976 8.5953 0 5.3897 3.3465 8.243 7.7146 8.243 2.325 0 4.4033-0.84544 5.7772-2.5011l-1.4091-1.3738c-1.0216 1.1977-2.5716 1.8318-4.1568 1.8318-2.1488 0-5.284-1.1977-5.4601-6.0238h11.413c0.10568-1.092 0.0704-2.1488-0.10568-3.0647-0.73976-4.3329-3.734-5.7067-6.376-5.7067zm-4.8613 6.834c0.52841-3.8045 2.959-4.8965 4.6852-4.8965 2.6068 0 4.4738 2.2897 4.1568 4.8965z"/>
   <path d="m691.74 173.47v16.099h2.5363v-7.8203c0-0.98634 0.0352-2.0431 1.1272-3.7692 1.4795-2.325 3.3818-2.7125 4.5442-2.7125 1.3386 0 2.184 0.63408 2.642 1.1977 0.21136 0.28181 0.31704 0.56363 0.59885 0.81021l1.1977-2.4306c-1.0216-1.0568-2.5011-1.7613-4.2977-1.7613-2.3602 0-4.7556 1.1977-5.8124 3.4874l0.10568-3.1z"/>
   <path d="m709.6 173.43v2.0784h3.8749v12.012h-4.0863v2.0079h10.427v-2.0079h-3.7692v-14.091zm5.2136-6.9749c-1.0216 0-1.8318 0.81021-1.8318 1.7966s0.81021 1.7966 1.8318 1.7966c1.0216 0 1.8318-0.81021 1.8318-1.7966s-0.81021-1.7966-1.8318-1.7966z"/>
   <path d="m725.87 189.53h2.5716v-9.2646c0-1.0568 0.14091-1.867 0.81021-2.7477 0.59886-0.81021 2.1488-2.2545 3.8397-2.2545 0.81022 0 1.6204 0.35227 2.1841 1.0216 0.88066 1.0568 0.88066 2.4306 0.88066 3.5579v9.6873h2.5011v-9.7578c0-1.2329 0-2.5716-0.56363-3.8749-0.81021-1.7966-2.4659-2.8181-4.2976-2.8181-2.1841 0-4.1568 1.4091-5.3545 3.2056v-2.8181h-2.5716z"/>
   <path d="m745.49 178.47c0-1.9375 1.6204-3.5227 3.5579-3.5227 1.9727 0 3.5579 1.5852 3.5579 3.5227s-1.5852 3.5227-3.5579 3.5227c-1.9727 0-3.5579-1.5852-3.5579-3.5227zm3.6988-5.5306c-3.2056 0-5.9885 2.5363-5.9885 5.6715 0 1.7613 0.88067 3.417 2.3602 4.3681-1.1625 0.98634-1.8318 2.0784-1.8318 3.1 0 0.6693 0.28181 1.6204 1.3034 2.1488-1.7261 1.092-2.6068 2.2897-2.6068 3.5579 0 1.7613 1.6204 3.8397 7.2567 3.8397 5.4601 0 7.4328-2.7829 7.4328-4.9317 0-1.4091-0.81021-2.8181-2.5011-3.4874-1.6909-0.70453-3.6284-0.45795-5.4601-0.45795-1.1977 0-1.9727-0.10568-2.2897-0.21136-0.63408-0.17613-0.98635-0.56362-0.98635-1.0568 0-0.84544 0.98635-1.6556 1.1625-1.7966 0.63408 0.24659 1.3386 0.35227 2.0432 0.35227 3.1704 0 5.7772-2.5363 5.7772-5.4954 0-0.98634-0.28181-1.9375-0.81021-2.7477 0.84544-0.49317 1.8318-0.77498 2.8181-0.77498 0.31704 0 0.59885 0.0352 0.91589 0.10568l-0.28181-2.0784c-1.6204-0.14091-3.2409 0.38749-4.4738 1.4091-1.0216-0.98635-2.3602-1.5148-3.8397-1.5148zm-2.4306 15.746c0.59885 0.0704 1.4443 0.14091 2.6772 0.21136 1.1977 0.0352 2.5011-0.0704 3.417 0.0704 1.4795 0.24659 1.9375 1.1625 1.9375 1.867 0 0.70453-0.42272 1.55-1.5148 2.1488-1.1977 0.63408-2.5363 0.70453-3.6284 0.70453-0.73976 0-2.1136-0.0352-3.3113-0.5284-1.3034-0.5284-1.5852-1.4091-1.5852-1.9727 0-1.1625 1.092-2.0079 2.0079-2.5011z"/>
   <path d="m779.27 166.14v2.0432h4.5795v19.339h-4.7908v2.0079h12.083v-2.0079h-4.7556v-21.383z"/>
   <path d="m810.13 181.57c0-5.5658-3.5227-8.4544-7.1862-8.4544-4.0863 0-7.609 3.5227-7.609 8.5249 0 4.8965 3.4874 8.3487 7.5385 8.3487 3.8045 0 7.2567-3.0647 7.2567-8.4192zm-7.3624-6.3056c2.325 0 4.7908 2.0079 4.7908 6.4113 0 4.0511-2.325 6.0942-4.6499 6.0942-2.5716 0-4.8965-2.3954-4.8965-6.376 0-3.9454 2.2897-6.1294 4.7556-6.1294z"/>
   <path d="m827.75 181.57c0-5.5658-3.5227-8.4544-7.1862-8.4544-4.0863 0-7.609 3.5227-7.609 8.5249 0 4.8965 3.4874 8.3487 7.5385 8.3487 3.8045 0 7.2567-3.0647 7.2567-8.4192zm-7.3624-6.3056c2.325 0 4.7908 2.0079 4.7908 6.4113 0 4.0511-2.325 6.0942-4.6499 6.0942-2.5716 0-4.8965-2.3954-4.8965-6.376 0-3.9454 2.2897-6.1294 4.7556-6.1294z"/>
   <path d="m831.23 173.47 0.0352 21.946h2.5716v-7.9965c1.092 1.5852 2.8886 2.5716 4.826 2.5716 3.3113 0 6.7635-2.7829 6.7635-8.6658 0-5.6715-3.3465-8.2078-6.5169-8.2078-2.0784 0-4.0158 1.0568-5.1079 2.8181v-2.4659zm6.7283 1.7966c1.4091 0 4.826 0.73976 4.826 6.5874 0 5.0726-3.3113 5.8829-4.826 5.8829s-3.0647-0.77499-3.6988-2.2193c-0.45795-1.092-0.45795-2.4306-0.45795-4.7556 0-1.3386 0.0704-2.325 0.42272-3.1704 0.63408-1.4443 2.1136-2.325 3.734-2.325z"/>
  </g>
 </g>
 <g transform="matrix(0 -5.6363 5.6363 0 -1207 2964.6)">
  <path d="m501.47 274.25-1.2053 3.2778-1.2053-3.2778c0.71162 0.52365 1.6852 0.52064 2.4106 0z" fill="#fff" fill-rule="evenodd" stroke="#b62a2a" stroke-linejoin="round" stroke-width=".1875"/>
 </g>
 <g transform="matrix(0 -5.6363 5.6363 0 -921.64 2964.6)">
  <path d="m501.47 274.25-1.2053 3.2778-1.2053-3.2778c0.71162 0.52365 1.6852 0.52064 2.4106 0z" fill="#fff" fill-rule="evenodd" stroke="#b62a2a" stroke-linejoin="round" stroke-width=".1875"/>
 </g>
 <g transform="matrix(-2.3031 -5.1442 5.1442 -2.3031 -195.97 3355.2)">
  <path d="m501.47 274.25-1.2053 3.2778-1.2053-3.2778c0.71162 0.52365 1.6852 0.52064 2.4106 0z" fill="#fff" fill-rule="evenodd" stroke="#b62a2a" stroke-linejoin="round" stroke-width=".1875"/>
 </g>
</svg>
