<svg version="1.1" viewBox="0 0 1206.3 338.9" xmlns="http://www.w3.org/2000/svg">
 <g fill="#e9e56f" stroke-width="5.9195px">
  <g aria-label="Free Memory">
   <path d="m89.802 41.414v23.049h2.6268v-11.321h8.6203v-2.2198h-8.6203v-7.2514h10.655v-2.2568z"/>
   <path d="m109.11 47.592v16.908h2.6638v-8.2133c0-1.0359 0.037-2.1458 1.1839-3.9587 1.5539-2.4418 3.5517-2.8488 4.7726-2.8488 1.4059 0 2.2938 0.66594 2.7748 1.2579 0.22198 0.29598 0.33297 0.59195 0.62895 0.85093l1.2579-2.5528c-1.0729-1.1099-2.6268-1.8498-4.5136-1.8498-2.4788 0-4.9946 1.2579-6.1045 3.6627l0.11099-3.2557z"/>
   <path d="m133.5 47.185c-4.0327 0-7.7694 2.8858-7.7694 9.0272 0 5.6605 3.5147 8.6573 8.1023 8.6573 2.4418 0 4.6246-0.88792 6.0675-2.6268l-1.4799-1.4429c-1.0729 1.2579-2.7008 1.9238-4.3656 1.9238-2.2568 0-5.5495-1.2579-5.7345-6.3265h11.987c0.11099-1.1469 0.074-2.2568-0.111-3.2187-0.77693-4.5506-3.9217-5.9935-6.6964-5.9935zm-5.1056 7.1774c0.55496-3.9957 3.1077-5.1426 4.9206-5.1426 2.7378 0 4.6986 2.4048 4.3656 5.1426z"/>
   <path d="m151.99 47.185c-4.0327 0-7.7694 2.8858-7.7694 9.0272 0 5.6605 3.5147 8.6573 8.1023 8.6573 2.4418 0 4.6246-0.88792 6.0675-2.6268l-1.4799-1.4429c-1.0729 1.2579-2.7008 1.9238-4.3656 1.9238-2.2568 0-5.5495-1.2579-5.7345-6.3265h11.987c0.11099-1.1469 0.074-2.2568-0.11099-3.2187-0.77694-4.5506-3.9217-5.9935-6.6964-5.9935zm-5.1056 7.1774c0.55496-3.9957 3.1077-5.1426 4.9206-5.1426 2.7378 0 4.6986 2.4048 4.3656 5.1426z"/>
   <path d="m180.93 41.414v23.086h2.4418v-17.278l4.6616 9.1382h0.96192l4.9946-9.2862v17.426h2.4418v-23.086h-1.9238l-5.8085 11.284-5.7345-11.284z"/>
   <path d="m207.49 47.185c-4.0327 0-7.7694 2.8858-7.7694 9.0272 0 5.6605 3.5147 8.6573 8.1023 8.6573 2.4418 0 4.6246-0.88792 6.0675-2.6268l-1.4799-1.4429c-1.0729 1.2579-2.7008 1.9238-4.3656 1.9238-2.2568 0-5.5495-1.2579-5.7345-6.3265h11.987c0.11099-1.1469 0.074-2.2568-0.11099-3.2187-0.77694-4.5506-3.9217-5.9935-6.6964-5.9935zm-5.1056 7.1774c0.55495-3.9957 3.1077-5.1426 4.9206-5.1426 2.7378 0 4.6986 2.4048 4.3656 5.1426z"/>
   <path d="m217.81 64.463h2.4418v-11.247c0-0.81393 0.074-1.5539 0.55495-2.4418 0.59195-1.1099 1.3319-1.5539 2.0348-1.5539 0.59195 0 1.2579 0.36997 1.5539 1.2949 0.22198 0.70294 0.18499 1.5169 0.18499 2.2198v11.728h2.4788v-11.173c0-0.88793 0.074-1.5909 0.70294-2.6638 0.29598-0.44396 0.92492-1.5169 1.9608-1.5169 0.55495 0 1.0729 0.33297 1.3319 0.96192 0.33298 0.70294 0.25898 1.6649 0.25898 2.4418v11.987h2.5158v-12.024c0-1.4059 0.037-2.8118-0.70294-3.9587-0.62895-0.96192-1.7019-1.3319-2.6268-1.3319-1.6279 0-3.1447 0.96192-3.8107 2.4418-0.25898-1.4059-1.4429-2.4418-2.9598-2.4418-1.4059 0-2.7008 0.88793-3.4777 2.0718l0.037-1.6649h-2.4788z"/>
   <path d="m251.96 56.101c0-5.8455-3.6997-8.8793-7.5474-8.8793-4.2916 0-7.9913 3.6997-7.9913 8.9532 0 5.1426 3.6627 8.7683 7.9173 8.7683 3.9957 0 7.6214-3.2187 7.6214-8.8423zm-7.7324-6.6224c2.4418 0 5.0316 2.1088 5.0316 6.7334 0 4.2546-2.4418 6.4005-4.8836 6.4005-2.7008 0-5.1426-2.5158-5.1426-6.6964 0-4.1437 2.4048-6.4375 4.9946-6.4375z"/>
   <path d="m257.1 47.592v16.908h2.6638v-8.2133c0-1.0359 0.037-2.1458 1.1839-3.9587 1.5539-2.4418 3.5517-2.8488 4.7726-2.8488 1.4059 0 2.2938 0.66594 2.7748 1.2579 0.22198 0.29598 0.33297 0.59195 0.62894 0.85093l1.2579-2.5528c-1.0729-1.1099-2.6268-1.8498-4.5136-1.8498-2.4788 0-4.9946 1.2579-6.1045 3.6627l0.11099-3.2557z"/>
   <path d="m273.6 47.592 6.8814 16.834-0.55495 1.2209c-0.29598 0.70294-0.62895 1.4059-1.1469 1.9608-0.70294 0.77694-1.5909 1.1099-2.3678 1.1099-1.2579 0-1.8868-0.85093-1.9978-0.99892-0.11099-0.18498-0.074-0.44396-0.29598-0.62895l-1.3689 2.4048c0.96192 0.92492 2.2568 1.4059 3.6627 1.4059 1.5169 0 3.1077-0.55495 4.2176-1.8128 0.73993-0.85093 1.1099-1.7389 1.4799-2.7008l5.2536-13.948c0.62895-1.5909 1.1839-3.2187 1.7019-4.8836h-2.7748c-0.29597 1.5539-0.77693 3.0337-1.2949 4.5136l-3.2187 9.0642-4.9576-12.468c-0.037-0.11099-0.037-0.18498-0.037-0.29598 0-0.25898 0.18498-0.44396 0.14799-0.77694z"/>
  </g>
  <g aria-label="5 allocations">
   <path d="m55.358 158.65-0.81393 11.728 1.6649 0.66594c1.1099-1.4059 2.7378-2.1828 4.3286-2.1828 2.4048 0 4.6986 1.8498 4.6986 5.5125 0 3.5517-2.1828 5.4756-4.6616 5.4756-2.4788 0-4.1067-1.8868-4.2176-2.1088-0.14799-0.29597 0.037-0.66594-0.29598-0.88792l-2.2938 1.7388c1.5539 2.2568 4.1067 3.5517 6.8444 3.5517 3.9957 0 7.2884-2.7008 7.2884-7.6954 0-4.9576-3.1077-7.6954-6.9924-7.6954-1.2579 0-2.5528 0.29598-3.7367 0.88793l0.33297-6.6594h9.5452v-2.3308z"/>
   <path d="m91.763 166.78 1.2949 1.7019c1.4059-1.4429 3.2927-1.8868 4.8836-1.8868 1.9978 0 2.9967 0.85093 3.4777 1.6279 0.55495 0.92492 0.51796 2.0348 0.51796 2.9228v0.59195h-0.51796c-2.5158 0-5.1796 0-7.3254 0.77694-2.6638 0.96192-3.8477 2.9598-3.8477 4.8096 0 2.4788 2.1458 4.8096 5.6605 4.8096 2.0718 0 4.2176-0.77693 6.0675-2.2938v1.8498h2.5158v-10.47c0-1.3689-0.037-2.6638-0.81393-3.9957-1.1099-1.8128-3.2557-2.7748-5.8825-2.7748-2.2568 0-4.4396 0.70295-6.0305 2.3308zm10.285 6.9924v1.1469c0 0.85093 0 1.9608-1.1469 3.1817-0.62894 0.62895-2.2198 1.9978-4.4396 1.9978-2.2568 0-3.5517-1.4429-3.5517-2.9228 0-1.2579 0.85093-2.6268 2.9598-3.1447 1.5539-0.36997 3.8107-0.25898 5.5865-0.25898z"/>
   <path d="m110.04 157.13v2.1458h4.8096v20.311h-5.0316v2.1088h12.69v-2.1088h-4.9946v-22.457z"/>
   <path d="m128.54 157.13v2.1458h4.8096v20.311h-5.0316v2.1088h12.69v-2.1088h-4.9946v-22.457z"/>
   <path d="m160.95 173.33c0-5.8455-3.6997-8.8793-7.5474-8.8793-4.2916 0-7.9913 3.6997-7.9913 8.9532 0 5.1426 3.6627 8.7683 7.9173 8.7683 3.9957 0 7.6214-3.2187 7.6214-8.8423zm-7.7324-6.6224c2.4418 0 5.0316 2.1088 5.0316 6.7334 0 4.2546-2.4418 6.4005-4.8836 6.4005-2.7008 0-5.1426-2.5158-5.1426-6.6964 0-4.1437 2.4048-6.4375 4.9946-6.4375z"/>
   <path d="m179.3 167.6c-1.3319-1.9608-3.5887-3.1447-6.3265-3.1447-4.9576 0-8.4723 3.7367-8.4723 8.8053 0 5.1056 3.5147 8.8792 8.3243 8.8792 2.3308 0 4.6246-0.96192 6.2155-2.7008l-1.5169-1.7758c-1.1469 1.2949-2.8118 2.0348-4.4766 2.0348-3.2927 0-5.8085-2.7378-5.8085-6.6964 0-3.8477 2.4788-6.2525 5.5865-6.2525 2.8858 0 4.2546 1.9978 4.3656 2.2198 0.14798 0.25897-0.074 0.62894 0.22198 0.85092z"/>
   <path d="m184.26 166.78 1.2949 1.7019c1.4059-1.4429 3.2927-1.8868 4.8836-1.8868 1.9978 0 2.9968 0.85093 3.4777 1.6279 0.55496 0.92492 0.51796 2.0348 0.51796 2.9228v0.59195h-0.51796c-2.5158 0-5.1796 0-7.3254 0.77694-2.6638 0.96192-3.8477 2.9598-3.8477 4.8096 0 2.4788 2.1458 4.8096 5.6605 4.8096 2.0718 0 4.2176-0.77693 6.0675-2.2938v1.8498h2.5158v-10.47c0-1.3689-0.037-2.6638-0.81394-3.9957-1.1099-1.8128-3.2557-2.7748-5.8825-2.7748-2.2568 0-4.4396 0.70295-6.0305 2.3308zm10.285 6.9924v1.1469c0 0.85093 0 1.9608-1.1469 3.1817-0.62895 0.62895-2.2198 1.9978-4.4396 1.9978-2.2568 0-3.5517-1.4429-3.5517-2.9228 0-1.2579 0.85092-2.6268 2.9598-3.1447 1.5539-0.36997 3.8107-0.25898 5.5865-0.25898z"/>
   <path d="m206.38 160.27-0.33297 4.5506h-4.0327l-0.037 2.1828h3.9587c-0.22198 2.8858-0.33297 5.7715-0.33297 8.6203 0 1.5169 0 3.2187 0.99891 4.6246 0.81394 1.1099 2.1088 1.7758 3.8477 1.7758 1.9978 0 3.9587-0.85093 5.4016-1.8868l-0.81393-2.1088c-1.4429 1.0729-2.7748 1.5539-3.8107 1.5539-1.2579 0-2.5528-0.70294-2.8488-2.7378 0-0.14799-0.11099-0.77694-0.11099-3.2557 0-2.1828 0.11099-4.4026 0.33298-6.5854h5.5495v-2.2198h-5.5125s0.25898-3.0338 0.44397-3.9957c0.037-0.36997 0.33297-0.59195 0.18498-0.99892z"/>
   <path d="m221.84 164.79v2.1828h4.0697v12.616h-4.2916v2.1088h10.951v-2.1088h-3.9587v-14.799zm5.4755-7.3254c-1.0729 0-1.9238 0.85093-1.9238 1.8868s0.85093 1.8868 1.9238 1.8868 1.9238-0.85093 1.9238-1.8868-0.85093-1.8868-1.9238-1.8868z"/>
   <path d="m253.44 173.33c0-5.8455-3.6997-8.8793-7.5474-8.8793-4.2916 0-7.9913 3.6997-7.9913 8.9532 0 5.1426 3.6627 8.7683 7.9173 8.7683 3.9957 0 7.6214-3.2187 7.6214-8.8423zm-7.7324-6.6224c2.4418 0 5.0316 2.1088 5.0316 6.7334 0 4.2546-2.4418 6.4005-4.8836 6.4005-2.7008 0-5.1426-2.5158-5.1426-6.6964 0-4.1437 2.4048-6.4375 4.9946-6.4375z"/>
   <path d="m257.44 181.69h2.7008v-9.7302c0-1.1099 0.14799-1.9608 0.85093-2.8858 0.62895-0.85093 2.2568-2.3678 4.0327-2.3678 0.85093 0 1.7019 0.36996 2.2938 1.0729 0.92492 1.1099 0.92492 2.5528 0.92492 3.7367v10.174h2.6268v-10.248c0-1.2949 0-2.7008-0.59195-4.0697-0.85093-1.8868-2.5898-2.9598-4.5136-2.9598-2.2938 0-4.3656 1.4799-5.6235 3.3667v-2.9598h-2.7008z"/>
   <path d="m289.4 167.04c-1.5539-1.7019-3.8107-2.6268-6.3265-2.6268-3.9217 0-6.4745 2.1828-6.4745 4.6986 0 2.9598 3.1817 4.0327 4.1067 4.3656 1.4429 0.51795 3.2927 0.96192 4.5506 1.5539 1.4059 0.66594 1.6649 1.5539 1.6649 2.1458 0 1.5909-1.9238 2.6638-4.3286 2.6638-2.8858 0-4.7356-1.7389-5.2906-2.3308-0.11099-0.14799-0.11099-0.25898-0.11099-0.40697 0-0.037 0.037-0.25897-0.14798-0.33297l-1.5539 2.6268c1.9978 1.8498 4.5876 2.7008 7.1404 2.7008 4.6246 0 7.0294-2.7378 7.0294-5.2906 0-1.1469-0.48096-2.7008-2.4788-3.8107-1.8868-1.0729-4.6246-1.4429-6.2155-2.2198-1.3689-0.66594-1.6649-1.4799-1.6649-2.0718 0-1.3319 1.6649-2.2938 3.5517-2.2938 2.4418 0 4.0697 1.4799 4.6986 2.3308 0.11099 0.111 0.074 0.22199 0.074 0.33298 0 0.22198 0.14799 0.29597 0.22198 0.29597z"/>
  </g>
  <g aria-label="  5 allocations 2 deallocations">
   <path d="m50.919 253.36-0.81393 11.728 1.6649 0.66595c1.1099-1.4059 2.7378-2.1828 4.3286-2.1828 2.4048 0 4.6986 1.8498 4.6986 5.5125 0 3.5517-2.1828 5.4755-4.6616 5.4755-2.4788 0-4.1067-1.8868-4.2176-2.1088-0.14799-0.29598 0.037-0.66595-0.29598-0.88793l-2.2938 1.7388c1.5539 2.2568 4.1067 3.5517 6.8444 3.5517 3.9957 0 7.2884-2.7008 7.2884-7.6954 0-4.9576-3.1077-7.6954-6.9924-7.6954-1.2579 0-2.5528 0.29597-3.7367 0.88792l0.33297-6.6594h9.5452v-2.3308z"/>
   <path d="m87.324 261.5 1.2949 1.7019c1.4059-1.4429 3.2927-1.8868 4.8836-1.8868 1.9978 0 2.9967 0.85093 3.4777 1.6279 0.55495 0.92492 0.51796 2.0348 0.51796 2.9228v0.59195h-0.51796c-2.5158 0-5.1796 0-7.3254 0.77693-2.6638 0.96192-3.8477 2.9598-3.8477 4.8096 0 2.4788 2.1458 4.8096 5.6605 4.8096 2.0718 0 4.2176-0.77694 6.0675-2.2938v1.8498h2.5158v-10.47c0-1.3689-0.037-2.6638-0.81393-3.9957-1.1099-1.8128-3.2557-2.7748-5.8825-2.7748-2.2568 0-4.4396 0.70294-6.0305 2.3308zm10.285 6.9924v1.1469c0 0.85093 0 1.9608-1.1469 3.1817-0.62895 0.62895-2.2198 1.9978-4.4396 1.9978-2.2568 0-3.5517-1.4429-3.5517-2.9228 0-1.2579 0.85093-2.6268 2.9598-3.1447 1.5539-0.36996 3.8107-0.25897 5.5865-0.25897z"/>
   <path d="m105.6 251.84v2.1458h4.8096v20.311h-5.0316v2.1088h12.69v-2.1088h-4.9946v-22.457z"/>
   <path d="m124.1 251.84v2.1458h4.8096v20.311h-5.0316v2.1088h12.69v-2.1088h-4.9946v-22.457z"/>
   <path d="m156.51 268.05c0-5.8455-3.6997-8.8792-7.5474-8.8792-4.2916 0-7.9913 3.6997-7.9913 8.9532 0 5.1426 3.6627 8.7683 7.9173 8.7683 3.9957 0 7.6214-3.2187 7.6214-8.8423zm-7.7324-6.6224c2.4418 0 5.0316 2.1088 5.0316 6.7334 0 4.2546-2.4418 6.4005-4.8836 6.4005-2.7008 0-5.1426-2.5158-5.1426-6.6964 0-4.1436 2.4048-6.4375 4.9946-6.4375z"/>
   <path d="m174.86 262.31c-1.3319-1.9608-3.5887-3.1447-6.3265-3.1447-4.9576 0-8.4723 3.7367-8.4723 8.8053 0 5.1056 3.5147 8.8793 8.3243 8.8793 2.3308 0 4.6246-0.96192 6.2155-2.7008l-1.5169-1.7758c-1.1469 1.2949-2.8118 2.0348-4.4766 2.0348-3.2927 0-5.8085-2.7378-5.8085-6.6964 0-3.8477 2.4788-6.2525 5.5865-6.2525 2.8858 0 4.2546 1.9978 4.3656 2.2198 0.14799 0.25898-0.074 0.62895 0.22199 0.85093z"/>
   <path d="m179.82 261.5 1.2949 1.7019c1.4059-1.4429 3.2927-1.8868 4.8836-1.8868 1.9978 0 2.9968 0.85093 3.4777 1.6279 0.55495 0.92492 0.51795 2.0348 0.51795 2.9228v0.59195h-0.51795c-2.5158 0-5.1796 0-7.3254 0.77693-2.6638 0.96192-3.8477 2.9598-3.8477 4.8096 0 2.4788 2.1458 4.8096 5.6605 4.8096 2.0718 0 4.2176-0.77694 6.0675-2.2938v1.8498h2.5158v-10.47c0-1.3689-0.037-2.6638-0.81393-3.9957-1.1099-1.8128-3.2557-2.7748-5.8825-2.7748-2.2568 0-4.4396 0.70294-6.0305 2.3308zm10.285 6.9924v1.1469c0 0.85093 0 1.9608-1.1469 3.1817-0.62895 0.62895-2.2198 1.9978-4.4396 1.9978-2.2568 0-3.5517-1.4429-3.5517-2.9228 0-1.2579 0.85093-2.6268 2.9598-3.1447 1.5539-0.36996 3.8107-0.25897 5.5865-0.25897z"/>
   <path d="m201.94 254.99-0.33297 4.5506h-4.0327l-0.037 2.1828h3.9587c-0.22198 2.8858-0.33297 5.7715-0.33297 8.6203 0 1.5169 0 3.2187 0.99891 4.6246 0.81393 1.1099 2.1088 1.7759 3.8477 1.7759 1.9978 0 3.9587-0.85093 5.4016-1.8868l-0.81393-2.1088c-1.4429 1.0729-2.7748 1.5539-3.8107 1.5539-1.2579 0-2.5528-0.70294-2.8488-2.7378 0-0.14799-0.11099-0.77694-0.11099-3.2557 0-2.1828 0.11099-4.4026 0.33297-6.5854h5.5495v-2.2198h-5.5125s0.25898-3.0338 0.44396-3.9957c0.037-0.36997 0.33298-0.59195 0.18499-0.99891z"/>
   <path d="m217.4 259.5v2.1828h4.0697v12.616h-4.2916v2.1088h10.951v-2.1088h-3.9587v-14.799zm5.4755-7.3254c-1.0729 0-1.9238 0.85093-1.9238 1.8868 0 1.0359 0.85092 1.8868 1.9238 1.8868s1.9238-0.85093 1.9238-1.8868c0-1.0359-0.85093-1.8868-1.9238-1.8868z"/>
   <path d="m249 268.05c0-5.8455-3.6997-8.8792-7.5474-8.8792-4.2916 0-7.9913 3.6997-7.9913 8.9532 0 5.1426 3.6627 8.7683 7.9173 8.7683 3.9957 0 7.6214-3.2187 7.6214-8.8423zm-7.7324-6.6224c2.4418 0 5.0316 2.1088 5.0316 6.7334 0 4.2546-2.4418 6.4005-4.8836 6.4005-2.7008 0-5.1426-2.5158-5.1426-6.6964 0-4.1436 2.4048-6.4375 4.9946-6.4375z"/>
   <path d="m253 276.41h2.7008v-9.7302c0-1.1099 0.14799-1.9608 0.85093-2.8858 0.62895-0.85093 2.2568-2.3678 4.0327-2.3678 0.85093 0 1.7019 0.36997 2.2938 1.0729 0.92492 1.1099 0.92492 2.5528 0.92492 3.7367v10.174h2.6268v-10.248c0-1.2949 0-2.7008-0.59195-4.0697-0.85093-1.8868-2.5898-2.9598-4.5136-2.9598-2.2938 0-4.3656 1.4799-5.6235 3.3667v-2.9598h-2.7008z"/>
   <path d="m284.96 261.76c-1.5539-1.7019-3.8107-2.6268-6.3265-2.6268-3.9217 0-6.4744 2.1828-6.4744 4.6986 0 2.9598 3.1817 4.0327 4.1066 4.3656 1.4429 0.51796 3.2927 0.96192 4.5506 1.5539 1.4059 0.66595 1.6649 1.5539 1.6649 2.1458 0 1.5909-1.9238 2.6638-4.3286 2.6638-2.8858 0-4.7356-1.7389-5.2906-2.3308-0.11099-0.14798-0.11099-0.25897-0.11099-0.40696 0-0.037 0.037-0.25898-0.14799-0.33297l-1.5539 2.6268c1.9978 1.8498 4.5876 2.7008 7.1404 2.7008 4.6246 0 7.0294-2.7378 7.0294-5.2906 0-1.1469-0.48096-2.7008-2.4788-3.8107-1.8868-1.0729-4.6246-1.4429-6.2155-2.2198-1.3689-0.66595-1.6649-1.4799-1.6649-2.0718 0-1.3319 1.6649-2.2938 3.5517-2.2938 2.4418 0 4.0697 1.4799 4.6986 2.3308 0.11099 0.11099 0.074 0.22198 0.074 0.33297 0 0.22198 0.14799 0.29598 0.22198 0.29598z"/>
   <path d="m12.849 303.19 1.8868 1.5169c0.22198-0.33297 0.11099-0.55495 0.33297-0.85092 0.55495-0.85093 1.9238-2.1088 3.9217-2.1088 2.4788 0 4.4396 1.8868 4.4396 4.3656 0 2.8118-2.3678 4.8466-4.0327 6.3635-2.6268 2.3678-4.7726 4.7356-6.6964 8.5463v1.6279h13.541v-2.5528c-0.25898-0.111-0.44396 0.074-0.51796 0.14798-0.14799 0.14799-0.22198 0.14799-0.36997 0.14799h-9.6932c1.9238-3.3297 4.6246-5.6235 6.2895-7.1774 1.6649-1.5909 4.0327-3.9587 4.0327-7.2884 0-3.5887-2.9228-6.4745-6.6594-6.4745-2.6268 0-5.1056 1.4059-6.4745 3.7367z"/>
   <path d="m60.723 308.22c-0.81393-1.7388-2.6268-2.8858-4.9576-2.8858-3.2187 0-7.1404 2.2938-7.1404 8.7313 0 6.2525 3.4777 8.9902 6.7334 8.9902 2.1458 0 4.1437-1.2209 5.2166-3.1077v1.4799c0 0.40697 0.037 0.81394 0.14799 1.2209h2.6638c-0.14799-0.48096-0.14799-1.0359-0.14799-1.5539l-0.037-21.976c0-0.22198 0-0.29597 0.14799-0.51795 0.07399-0.111 0.22198-0.29598 0.18498-0.55496h-2.8118zm-4.8466-0.70294c1.4799 0 3.6627 0.77693 4.3286 3.2927 0.22198 0.77694 0.29598 1.7019 0.29598 3.5887 0 1.2949-0.07399 2.2198-0.36997 3.1077-0.62895 1.9978-2.4048 3.1817-4.1437 3.1817-1.9238 0-4.7726-1.4799-4.7726-7.0294 0-4.8466 2.7008-6.1415 4.6616-6.1415z"/>
   <path d="m75.041 305.38c-4.0327 0-7.7694 2.8858-7.7694 9.0272 0 5.6605 3.5147 8.6573 8.1023 8.6573 2.4418 0 4.6246-0.88793 6.0675-2.6268l-1.4799-1.4429c-1.0729 1.2579-2.7008 1.9238-4.3656 1.9238-2.2568 0-5.5495-1.2579-5.7345-6.3265h11.987c0.11099-1.1469 0.07399-2.2568-0.11099-3.2187-0.77694-4.5506-3.9217-5.9935-6.6964-5.9935zm-5.1056 7.1774c0.55495-3.9957 3.1077-5.1426 4.9206-5.1426 2.7378 0 4.6986 2.4048 4.3656 5.1426z"/>
   <path d="m87.324 307.74 1.2949 1.7019c1.4059-1.4429 3.2927-1.8868 4.8836-1.8868 1.9978 0 2.9967 0.85092 3.4777 1.6279 0.55495 0.92492 0.51796 2.0348 0.51796 2.9228v0.59195h-0.51796c-2.5158 0-5.1796 0-7.3254 0.77694-2.6638 0.96192-3.8477 2.9598-3.8477 4.8096 0 2.4788 2.1458 4.8096 5.6605 4.8096 2.0718 0 4.2176-0.77693 6.0675-2.2938v1.8498h2.5158v-10.47c0-1.3689-0.037-2.6638-0.81393-3.9957-1.1099-1.8128-3.2557-2.7748-5.8825-2.7748-2.2568 0-4.4396 0.70294-6.0305 2.3308zm10.285 6.9924v1.1469c0 0.85093 0 1.9608-1.1469 3.1817-0.62895 0.62895-2.2198 1.9978-4.4396 1.9978-2.2568 0-3.5517-1.4429-3.5517-2.9228 0-1.2579 0.85093-2.6268 2.9598-3.1447 1.5539-0.36997 3.8107-0.25898 5.5865-0.25898z"/>
   <path d="m105.6 298.09v2.1458h4.8096v20.311h-5.0316v2.1088h12.69v-2.1088h-4.9946v-22.457z"/>
   <path d="m124.1 298.09v2.1458h4.8096v20.311h-5.0316v2.1088h12.69v-2.1088h-4.9946v-22.457z"/>
   <path d="m156.51 314.29c0-5.8455-3.6997-8.8792-7.5474-8.8792-4.2916 0-7.9913 3.6997-7.9913 8.9532 0 5.1426 3.6627 8.7683 7.9173 8.7683 3.9957 0 7.6214-3.2187 7.6214-8.8423zm-7.7324-6.6224c2.4418 0 5.0316 2.1088 5.0316 6.7334 0 4.2546-2.4418 6.4005-4.8836 6.4005-2.7008 0-5.1426-2.5158-5.1426-6.6964 0-4.1437 2.4048-6.4375 4.9946-6.4375z"/>
   <path d="m174.86 308.56c-1.3319-1.9608-3.5887-3.1447-6.3265-3.1447-4.9576 0-8.4723 3.7367-8.4723 8.8053 0 5.1056 3.5147 8.8792 8.3243 8.8792 2.3308 0 4.6246-0.96191 6.2155-2.7008l-1.5169-1.7758c-1.1469 1.2949-2.8118 2.0348-4.4766 2.0348-3.2927 0-5.8085-2.7378-5.8085-6.6964 0-3.8477 2.4788-6.2525 5.5865-6.2525 2.8858 0 4.2546 1.9978 4.3656 2.2198 0.14799 0.25898-0.074 0.62894 0.22199 0.85093z"/>
   <path d="m179.82 307.74 1.2949 1.7019c1.4059-1.4429 3.2927-1.8868 4.8836-1.8868 1.9978 0 2.9968 0.85092 3.4777 1.6279 0.55495 0.92492 0.51795 2.0348 0.51795 2.9228v0.59195h-0.51795c-2.5158 0-5.1796 0-7.3254 0.77694-2.6638 0.96192-3.8477 2.9598-3.8477 4.8096 0 2.4788 2.1458 4.8096 5.6605 4.8096 2.0718 0 4.2176-0.77693 6.0675-2.2938v1.8498h2.5158v-10.47c0-1.3689-0.037-2.6638-0.81393-3.9957-1.1099-1.8128-3.2557-2.7748-5.8825-2.7748-2.2568 0-4.4396 0.70294-6.0305 2.3308zm10.285 6.9924v1.1469c0 0.85093 0 1.9608-1.1469 3.1817-0.62895 0.62895-2.2198 1.9978-4.4396 1.9978-2.2568 0-3.5517-1.4429-3.5517-2.9228 0-1.2579 0.85093-2.6268 2.9598-3.1447 1.5539-0.36997 3.8107-0.25898 5.5865-0.25898z"/>
   <path d="m201.94 301.23-0.33297 4.5506h-4.0327l-0.037 2.1828h3.9587c-0.22198 2.8858-0.33297 5.7715-0.33297 8.6203 0 1.5169 0 3.2187 0.99891 4.6246 0.81393 1.1099 2.1088 1.7758 3.8477 1.7758 1.9978 0 3.9587-0.85092 5.4016-1.8868l-0.81393-2.1088c-1.4429 1.0729-2.7748 1.5539-3.8107 1.5539-1.2579 0-2.5528-0.70294-2.8488-2.7378 0-0.14799-0.11099-0.77694-0.11099-3.2557 0-2.1828 0.11099-4.4026 0.33297-6.5854h5.5495v-2.2198h-5.5125s0.25898-3.0338 0.44396-3.9957c0.037-0.36997 0.33298-0.59195 0.18499-0.99891z"/>
   <path d="m217.4 305.75v2.1828h4.0697v12.616h-4.2916v2.1088h10.951v-2.1088h-3.9587v-14.799zm5.4755-7.3254c-1.0729 0-1.9238 0.85093-1.9238 1.8868 0 1.0359 0.85092 1.8868 1.9238 1.8868s1.9238-0.85092 1.9238-1.8868c0-1.0359-0.85093-1.8868-1.9238-1.8868z"/>
   <path d="m249 314.29c0-5.8455-3.6997-8.8792-7.5474-8.8792-4.2916 0-7.9913 3.6997-7.9913 8.9532 0 5.1426 3.6627 8.7683 7.9173 8.7683 3.9957 0 7.6214-3.2187 7.6214-8.8423zm-7.7324-6.6224c2.4418 0 5.0316 2.1088 5.0316 6.7334 0 4.2546-2.4418 6.4005-4.8836 6.4005-2.7008 0-5.1426-2.5158-5.1426-6.6964 0-4.1437 2.4048-6.4375 4.9946-6.4375z"/>
   <path d="m253 322.65h2.7008v-9.7302c0-1.1099 0.14799-1.9608 0.85093-2.8858 0.62895-0.85093 2.2568-2.3678 4.0327-2.3678 0.85093 0 1.7019 0.36997 2.2938 1.0729 0.92492 1.1099 0.92492 2.5528 0.92492 3.7367v10.174h2.6268v-10.248c0-1.2949 0-2.7008-0.59195-4.0697-0.85093-1.8868-2.5898-2.9598-4.5136-2.9598-2.2938 0-4.3656 1.4799-5.6235 3.3667v-2.9598h-2.7008z"/>
   <path d="m284.96 308c-1.5539-1.7019-3.8107-2.6268-6.3265-2.6268-3.9217 0-6.4744 2.1828-6.4744 4.6986 0 2.9598 3.1817 4.0327 4.1066 4.3656 1.4429 0.51796 3.2927 0.96192 4.5506 1.5539 1.4059 0.66594 1.6649 1.5539 1.6649 2.1458 0 1.5909-1.9238 2.6638-4.3286 2.6638-2.8858 0-4.7356-1.7389-5.2906-2.3308-0.11099-0.14799-0.11099-0.25898-0.11099-0.40696 0-0.037 0.037-0.25898-0.14799-0.33298l-1.5539 2.6268c1.9978 1.8498 4.5876 2.7008 7.1404 2.7008 4.6246 0 7.0294-2.7378 7.0294-5.2906 0-1.1469-0.48096-2.7008-2.4788-3.8107-1.8868-1.0729-4.6246-1.4429-6.2155-2.2198-1.3689-0.66595-1.6649-1.4799-1.6649-2.0718 0-1.3319 1.6649-2.2938 3.5517-2.2938 2.4418 0 4.0697 1.4799 4.6986 2.3308 0.11099 0.11099 0.074 0.22198 0.074 0.33297 0 0.22198 0.14799 0.29597 0.22198 0.29597z"/>
  </g>
 </g>
 <g fill="#3b390d" fill-opacity=".38431" stroke="#e9e56f" stroke-width="1.7759">
  <rect x="326.58" y="10.888" width="122.97" height="80.348"/>
  <rect x="450.89" y="10.888" width="122.97" height="80.348"/>
  <rect x="575.2" y="10.888" width="122.97" height="80.348"/>
  <rect x="699.51" y="10.888" width="122.97" height="80.348"/>
  <rect x="823.82" y="10.888" width="122.97" height="80.348"/>
  <rect x="948.13" y="10.888" width="122.97" height="80.348"/>
  <rect x="1072.4" y="10.888" width="122.97" height="80.348"/>
 </g>
 <g stroke="#e9e56f" stroke-width="1.7759">
  <rect x="326.58" y="129.28" width="122.97" height="80.348" fill="#283cea"/>
  <rect x="450.89" y="129.28" width="122.97" height="80.348" fill="#eabb28"/>
  <rect x="575.2" y="129.28" width="122.97" height="80.348" fill="#a7ea28"/>
  <rect x="699.51" y="129.28" width="122.97" height="80.348" fill="#ac28ea"/>
  <rect x="823.82" y="129.28" width="122.97" height="80.348" fill="#ea2828"/>
 </g>
 <rect x="948.13" y="129.28" width="122.97" height="80.348" fill="#3b390d" fill-opacity=".38431" stroke="#e9e56f" stroke-width="1.3437"/>
 <rect x="1072.4" y="129.28" width="122.97" height="80.348" fill="#3b390d" fill-opacity=".38431" stroke="#e9e56f" stroke-width="1.7759"/>
 <g stroke="#e9e56f" stroke-width="1.7759">
  <rect x="326.58" y="247.67" width="122.97" height="80.348" fill="#283cea"/>
  <rect x="575.2" y="247.67" width="122.97" height="80.348" fill="#a7ea28"/>
  <rect x="699.51" y="247.67" width="122.97" height="80.348" fill="#ac28ea"/>
 </g>
 <g fill="#3b390d" fill-opacity=".38431" stroke="#e9e56f" stroke-width="1.7759">
  <rect x="948.13" y="247.67" width="122.97" height="80.348"/>
  <rect x="1072.4" y="247.67" width="122.97" height="80.348"/>
  <rect x="823.95" y="247.67" width="122.97" height="80.348"/>
  <rect x="450.4" y="247.67" width="122.97" height="80.348"/>
 </g>
</svg>
