<svg version="1.1" viewBox="0 0 1210.5 597.89" xmlns="http://www.w3.org/2000/svg">
 <rect x="249.03" y="101.67" width="950.59" height="80.757" fill="none" stroke="#e9e56f" stroke-width="1.7849"/>
 <rect x="249.03" y="202.81" width="87.894" height="80.757" fill="#283cea"/>
 <rect x="249.03" y="202.81" width="950.59" height="80.757" fill="none" stroke="#e9e56f" stroke-width="1.7849"/>
 <g>
  <g fill="#e9e56f" stroke-width="5.9496px" aria-label="Free Memory">
   <path d="m10.372 130.81v23.166h2.6402v-11.379h8.6642v-2.2311h-8.6642v-7.2883h10.709v-2.2683z"/>
   <path d="m29.783 137.02v16.994h2.6773v-8.2551c0-1.0412 0.03719-2.1568 1.1899-3.9788 1.5618-2.4542 3.5698-2.8633 4.7969-2.8633 1.413 0 2.3055 0.66934 2.7889 1.2643 0.22311 0.29748 0.33467 0.59497 0.63215 0.85526l1.2643-2.5658c-1.0784-1.1156-2.6402-1.8593-4.5366-1.8593-2.4914 0-5.02 1.2643-6.1356 3.6813l0.11156-3.2723z"/>
   <path d="m54.288 136.61c-4.0532 0-7.8089 2.9004-7.8089 9.0732 0 5.6893 3.5326 8.7013 8.1436 8.7013 2.4542 0 4.6482-0.89245 6.0984-2.6402l-1.4874-1.4502c-1.0784 1.2643-2.7145 1.9336-4.3879 1.9336-2.2683 0-5.5778-1.2643-5.7637-6.3587h12.048c0.11156-1.1527 0.07437-2.2683-0.11156-3.2351-0.78089-4.5738-3.9416-6.024-6.7305-6.024zm-5.1316 7.2139c0.55778-4.016 3.1236-5.1687 4.9456-5.1687 2.7517 0 4.7225 2.417 4.3879 5.1687z"/>
   <path d="m72.88 136.61c-4.0532 0-7.8089 2.9004-7.8089 9.0732 0 5.6893 3.5326 8.7013 8.1436 8.7013 2.4542 0 4.6482-0.89245 6.0984-2.6402l-1.4874-1.4502c-1.0784 1.2643-2.7145 1.9336-4.3879 1.9336-2.2683 0-5.5778-1.2643-5.7637-6.3587h12.048c0.11156-1.1527 0.07437-2.2683-0.11156-3.2351-0.78089-4.5738-3.9416-6.024-6.7305-6.024zm-5.1316 7.2139c0.55778-4.016 3.1236-5.1687 4.9456-5.1687 2.7517 0 4.7225 2.417 4.3879 5.1687z"/>
   <path d="m101.96 130.81v23.204h2.4542v-17.366l4.6853 9.1848h0.96681l5.02-9.3335v17.514h2.4542v-23.204h-1.9336l-5.8381 11.341-5.7637-11.341z"/>
   <path d="m128.66 136.61c-4.0532 0-7.8089 2.9004-7.8089 9.0732 0 5.6893 3.5326 8.7013 8.1436 8.7013 2.4542 0 4.6482-0.89245 6.0984-2.6402l-1.4874-1.4502c-1.0784 1.2643-2.7145 1.9336-4.3878 1.9336-2.2683 0-5.5778-1.2643-5.7637-6.3587h12.048c0.11155-1.1527 0.0744-2.2683-0.11156-3.2351-0.78089-4.5738-3.9416-6.024-6.7305-6.024zm-5.1316 7.2139c0.55777-4.016 3.1236-5.1687 4.9456-5.1687 2.7517 0 4.7225 2.417 4.3879 5.1687z"/>
   <path d="m139.03 153.98h2.4542v-11.304c0-0.81807 0.0744-1.5618 0.55778-2.4542 0.59496-1.1156 1.3387-1.5618 2.0452-1.5618 0.59496 0 1.2643 0.37185 1.5618 1.3015 0.22311 0.70652 0.18592 1.5246 0.18592 2.2311v11.788h2.4914v-11.23c0-0.89244 0.0744-1.599 0.70652-2.6773 0.29749-0.44623 0.92963-1.5246 1.9708-1.5246 0.55778 0 1.0784 0.33467 1.3387 0.96682 0.33467 0.70652 0.2603 1.6733 0.2603 2.4542v12.048h2.5286v-12.085c0-1.413 0.0372-2.8261-0.70652-3.9788-0.63215-0.96682-1.7105-1.3387-2.6402-1.3387-1.6362 0-3.1607 0.96682-3.8301 2.4542-0.26029-1.413-1.4502-2.4542-2.9748-2.4542-1.413 0-2.7145 0.89245-3.4954 2.0824l0.0372-1.6733h-2.4914z"/>
   <path d="m173.35 145.57c0-5.8753-3.7185-8.9244-7.5858-8.9244-4.3135 0-8.032 3.7185-8.032 8.9988 0 5.1688 3.6813 8.8129 7.9576 8.8129 4.016 0 7.6602-3.2351 7.6602-8.8873zm-7.7717-6.6562c2.4542 0 5.0572 2.1196 5.0572 6.7677 0 4.2763-2.4542 6.433-4.9084 6.433-2.7145 0-5.1688-2.5286-5.1688-6.7305 0-4.1647 2.417-6.4702 5.02-6.4702z"/>
   <path d="m178.52 137.02v16.994h2.6773v-8.2551c0-1.0412 0.0372-2.1568 1.1899-3.9788 1.5618-2.4542 3.5698-2.8633 4.7969-2.8633 1.413 0 2.3055 0.66934 2.7889 1.2643 0.22311 0.29748 0.33467 0.59497 0.63215 0.85526l1.2643-2.5658c-1.0784-1.1156-2.6402-1.8593-4.5366-1.8593-2.4914 0-5.02 1.2643-6.1356 3.6813l0.11156-3.2723z"/>
   <path d="m195.11 137.02 6.9164 16.919-0.55778 1.2271c-0.29748 0.70652-0.63215 1.413-1.1527 1.9708-0.70652 0.78089-1.599 1.1156-2.3799 1.1156-1.2643 0-1.8964-0.85526-2.008-1.004-0.11155-0.18593-0.0744-0.44622-0.29748-0.63215l-1.3758 2.417c0.96681 0.92963 2.2683 1.413 3.6813 1.413 1.5246 0 3.1236-0.55778 4.2391-1.8221 0.7437-0.85526 1.1156-1.7477 1.4874-2.7145l5.2803-14.019c0.63215-1.599 1.1899-3.2351 1.7105-4.9084h-2.7889c-0.29748 1.5618-0.78089 3.0492-1.3015 4.5366l-3.2351 9.1104-4.9828-12.531c-0.0372-0.11156-0.0372-0.18593-0.0372-0.29748 0-0.2603 0.18592-0.44623 0.14874-0.78089z"/>
  </g>
  <g fill="#e9e56f" stroke-width="5.9496px" aria-label="1x malloc()">
   <path d="m18.553 226.01h-1.7105l-5.9496 3.0864 0.59496 1.4502 4.611-1.3015v17.923h-4.3135v2.0452h10.932v-2.0452h-4.1647z"/>
   <path d="m39.562 232.18-4.2391 6.2843-4.4622-6.2843h-2.9004l5.8381 8.3667-5.9496 8.627h3.012l4.425-6.5818 4.6853 6.5818h3.0492l-6.2471-8.7014 5.5034-8.2923z"/>
   <path d="m64.662 249.17h2.4542v-11.304c0-0.81808 0.07437-1.5618 0.55778-2.4542 0.59496-1.1156 1.3387-1.5618 2.0452-1.5618 0.59496 0 1.2643 0.37185 1.5618 1.3015 0.22311 0.70651 0.18593 1.5246 0.18593 2.2311v11.788h2.4914v-11.23c0-0.89245 0.07437-1.599 0.70652-2.6773 0.29748-0.44622 0.92963-1.5246 1.9708-1.5246 0.55778 0 1.0784 0.33466 1.3387 0.96681 0.33467 0.70652 0.2603 1.6733 0.2603 2.4542v12.048h2.5286v-12.085c0-1.413 0.03718-2.8261-0.70652-3.9788-0.63215-0.96681-1.7105-1.3387-2.6402-1.3387-1.6362 0-3.1607 0.96682-3.8301 2.4542-0.2603-1.413-1.4502-2.4542-2.9748-2.4542-1.413 0-2.7145 0.89245-3.4954 2.0824l0.03719-1.6733h-2.4914z"/>
   <path d="m85.226 234.19 1.3015 1.7105c1.413-1.4502 3.3095-1.8964 4.9084-1.8964 2.008 0 3.012 0.85526 3.4954 1.6362 0.55778 0.92963 0.52059 2.0452 0.52059 2.9376v0.59496h-0.52059c-2.5286 0-5.2059 0-7.3627 0.78089-2.6773 0.96682-3.8673 2.9748-3.8673 4.8341 0 2.4914 2.1567 4.8341 5.6893 4.8341 2.0824 0 4.2391-0.78089 6.0984-2.3055v1.8593h2.5286v-10.523c0-1.3759-0.03719-2.6773-0.81808-4.016-1.1156-1.8221-3.2723-2.7889-5.9125-2.7889-2.2683 0-4.4622 0.70652-6.0612 2.3427zm10.337 7.028v1.1527c0 0.85526 0 1.9708-1.1527 3.1979-0.63215 0.63215-2.2311 2.008-4.4622 2.008-2.2683 0-3.5698-1.4502-3.5698-2.9376 0-1.2643 0.85526-2.6402 2.9748-3.1608 1.5618-0.37185 3.8301-0.26029 5.615-0.26029z"/>
   <path d="m103.6 224.48v2.1567h4.8341v20.415h-5.0572v2.1196h12.755v-2.1196h-5.02v-22.571z"/>
   <path d="m122.19 224.48v2.1567h4.8341v20.415h-5.0572v2.1196h12.755v-2.1196h-5.02v-22.571z"/>
   <path d="m154.76 240.77c0-5.8753-3.7185-8.9244-7.5858-8.9244-4.3135 0-8.032 3.7185-8.032 8.9988 0 5.1688 3.6813 8.8129 7.9576 8.8129 4.016 0 7.6602-3.2351 7.6602-8.8873zm-7.7717-6.6562c2.4542 0 5.0572 2.1196 5.0572 6.7677 0 4.2763-2.4542 6.433-4.9084 6.433-2.7145 0-5.1688-2.5286-5.1688-6.7305 0-4.1648 2.417-6.4702 5.02-6.4702z"/>
   <path d="m173.21 235c-1.3387-1.9708-3.607-3.1607-6.3587-3.1607-4.9828 0-8.5154 3.7557-8.5154 8.8501 0 5.1316 3.5326 8.9245 8.3667 8.9245 2.3427 0 4.6482-0.96682 6.2471-2.7145l-1.5246-1.7849c-1.1527 1.3015-2.8261 2.0452-4.4994 2.0452-3.3095 0-5.8381-2.7517-5.8381-6.7305 0-3.8673 2.4914-6.2843 5.615-6.2843 2.9004 0 4.2763 2.008 4.3879 2.2311 0.14874 0.26029-0.0744 0.63215 0.22311 0.85526z"/>
   <path d="m189.38 224.41c-5.7265 2.5286-9.4079 8.3667-9.4079 15.172 0 6.7677 3.5698 12.94 9.445 16.027l1.2271-1.9708c-5.0944-2.9376-8.0692-8.4039-8.0692-14.168 0-5.3175 2.5658-10.077 6.9165-12.606 0.0744-0.0744 0.18592-0.14874 0.33466-0.14874 0.11156 0 0.22311 0.0744 0.37185 0.0744 0.0744 0 0.18593-0.0372 0.33467-0.0744z"/>
   <path d="m196.3 226.75c4.9084 2.6402 8.032 7.6974 8.032 13.238 0 5.5778-3.1979 10.784-8.2179 13.424l0.70652 2.2683c6.1728-2.9376 10.152-9.1104 10.152-15.804 0-6.619-3.9044-12.643-9.9656-15.432z"/>
  </g>
  <rect x="249.03" y="303.28" width="88.569" height="80.757" fill="#283cea"/>
  <g fill="#e9e56f" stroke-width="5.9496px" aria-label="6x malloc()">
   <path d="m18.181 326.21c-2.7889 0-5.7637 1.7105-7.2139 5.7637-0.78089 2.1939-0.96682 4.9084-0.96682 7.1396 0 2.7145 0.2603 5.615 1.7477 7.8461 1.3387 2.0452 3.421 3.0864 5.4662 3.0864 3.5326 0 6.619-2.9748 6.619-7.7717 0-4.7969-3.0864-7.5858-6.3587-7.5858-2.008 0-3.9044 1.0784-4.9084 2.7889 0.14874-7.9204 3.9416-8.9616 5.615-8.9616 1.5246 0 2.5658 0.81808 2.7145 0.96682 0.22311 0.2603 0.22311 0.59496 0.55778 0.85526l1.7849-2.008c-1.3387-1.3387-3.1979-2.1196-5.0572-2.1196zm-0.96682 10.784c1.8593 0 4.0904 1.4502 4.0904 5.429 0 3.607-2.008 5.3175-3.9788 5.3175-2.8261 0-4.9456-3.3095-4.6482-7.6602 1.0412-1.8964 2.8261-3.0864 4.5366-3.0864z"/>
   <path d="m39.562 332.65-4.2391 6.2843-4.4622-6.2843h-2.9004l5.8381 8.3667-5.9496 8.627h3.012l4.425-6.5818 4.6853 6.5818h3.0492l-6.2471-8.7013 5.5034-8.2923z"/>
   <path d="m64.662 349.64h2.4542v-11.304c0-0.81807 0.07437-1.5618 0.55778-2.4542 0.59496-1.1156 1.3387-1.5618 2.0452-1.5618 0.59496 0 1.2643 0.37185 1.5618 1.3015 0.22311 0.70652 0.18593 1.5246 0.18593 2.2311v11.788h2.4914v-11.23c0-0.89244 0.07437-1.599 0.70652-2.6773 0.29748-0.44622 0.92963-1.5246 1.9708-1.5246 0.55778 0 1.0784 0.33467 1.3387 0.96682 0.33467 0.70652 0.2603 1.6733 0.2603 2.4542v12.048h2.5286v-12.085c0-1.413 0.03718-2.8261-0.70652-3.9788-0.63215-0.96682-1.7105-1.3387-2.6402-1.3387-1.6362 0-3.1607 0.96682-3.8301 2.4542-0.2603-1.413-1.4502-2.4542-2.9748-2.4542-1.413 0-2.7145 0.89245-3.4954 2.0824l0.03719-1.6733h-2.4914z"/>
   <path d="m85.226 334.65 1.3015 1.7105c1.413-1.4502 3.3095-1.8964 4.9084-1.8964 2.008 0 3.012 0.85526 3.4954 1.6362 0.55778 0.92963 0.52059 2.0452 0.52059 2.9376v0.59497h-0.52059c-2.5286 0-5.2059 0-7.3627 0.78089-2.6773 0.96681-3.8673 2.9748-3.8673 4.8341 0 2.4914 2.1567 4.8341 5.6893 4.8341 2.0824 0 4.2391-0.78089 6.0984-2.3055v1.8593h2.5286v-10.523c0-1.3758-0.03719-2.6773-0.81808-4.016-1.1156-1.8221-3.2723-2.7889-5.9125-2.7889-2.2683 0-4.4622 0.70652-6.0612 2.3427zm10.337 7.028v1.1528c0 0.85526 0 1.9708-1.1527 3.1979-0.63215 0.63214-2.2311 2.008-4.4622 2.008-2.2683 0-3.5698-1.4502-3.5698-2.9376 0-1.2643 0.85526-2.6402 2.9748-3.1607 1.5618-0.37185 3.8301-0.2603 5.615-0.2603z"/>
   <path d="m103.6 324.95v2.1568h4.8341v20.415h-5.0572v2.1196h12.755v-2.1196h-5.02v-22.571z"/>
   <path d="m122.19 324.95v2.1568h4.8341v20.415h-5.0572v2.1196h12.755v-2.1196h-5.02v-22.571z"/>
   <path d="m154.76 341.24c0-5.8753-3.7185-8.9244-7.5858-8.9244-4.3135 0-8.032 3.7185-8.032 8.9988 0 5.1688 3.6813 8.8129 7.9576 8.8129 4.016 0 7.6602-3.2351 7.6602-8.8873zm-7.7717-6.6562c2.4542 0 5.0572 2.1196 5.0572 6.7677 0 4.2763-2.4542 6.433-4.9084 6.433-2.7145 0-5.1688-2.5286-5.1688-6.7305 0-4.1648 2.417-6.4702 5.02-6.4702z"/>
   <path d="m173.21 335.47c-1.3387-1.9708-3.607-3.1607-6.3587-3.1607-4.9828 0-8.5154 3.7557-8.5154 8.8501 0 5.1316 3.5326 8.9245 8.3667 8.9245 2.3427 0 4.6482-0.96682 6.2471-2.7145l-1.5246-1.7849c-1.1527 1.3015-2.8261 2.0452-4.4994 2.0452-3.3095 0-5.8381-2.7517-5.8381-6.7305 0-3.8673 2.4914-6.2843 5.615-6.2843 2.9004 0 4.2763 2.008 4.3879 2.2311 0.14874 0.2603-0.0744 0.63215 0.22311 0.85526z"/>
   <path d="m189.38 324.88c-5.7265 2.5286-9.4079 8.3667-9.4079 15.172 0 6.7677 3.5698 12.94 9.445 16.027l1.2271-1.9708c-5.0944-2.9376-8.0692-8.4039-8.0692-14.168 0-5.3175 2.5658-10.077 6.9165-12.606 0.0744-0.0744 0.18592-0.14874 0.33466-0.14874 0.11156 0 0.22311 0.0744 0.37185 0.0744 0.0744 0 0.18593-0.0372 0.33467-0.0744z"/>
   <path d="m196.3 327.22c4.9084 2.6402 8.032 7.6973 8.032 13.238 0 5.5778-3.1979 10.784-8.2179 13.424l0.70652 2.2683c6.1728-2.9376 10.152-9.1104 10.152-15.804 0-6.619-3.9044-12.643-9.9656-15.432z"/>
  </g>
  <rect x="337.6" y="303.28" width="65.446" height="80.757" fill="#ea2828"/>
  <rect x="403.05" y="303.28" width="237.99" height="80.757" fill="#28ea2c"/>
  <rect x="641.03" y="303.28" width="148.74" height="80.757" fill="#ea2828"/>
  <rect x="789.77" y="303.28" width="83.295" height="80.757" fill="#ea28e1"/>
  <rect x="873.07" y="303.28" width="148.74" height="80.757" fill="#28ea2c"/>
 </g>
 <rect x="249.03" y="303.28" width="950.59" height="80.757" fill="none" stroke="#e9e56f" stroke-width="1.7849"/>
 <g>
  <g fill="#e9e56f" stroke-width="5.9496px" aria-label="6x malloc() 3x   free()">
   <path d="m18.181 409.51c-2.7889 0-5.7637 1.7105-7.2139 5.7637-0.78089 2.1939-0.96682 4.9084-0.96682 7.1396 0 2.7145 0.2603 5.615 1.7477 7.8461 1.3387 2.0452 3.421 3.0864 5.4662 3.0864 3.5326 0 6.619-2.9748 6.619-7.7717 0-4.7969-3.0864-7.5858-6.3587-7.5858-2.008 0-3.9044 1.0784-4.9084 2.7889 0.14874-7.9204 3.9416-8.9616 5.615-8.9616 1.5246 0 2.5658 0.81808 2.7145 0.96682 0.22311 0.2603 0.22311 0.59496 0.55778 0.85526l1.7849-2.008c-1.3387-1.3387-3.1979-2.1196-5.0572-2.1196zm-0.96682 10.784c1.8593 0 4.0904 1.4502 4.0904 5.429 0 3.607-2.008 5.3175-3.9788 5.3175-2.8261 0-4.9456-3.3095-4.6482-7.6602 1.0412-1.8964 2.8261-3.0864 4.5366-3.0864z"/>
   <path d="m39.562 415.94-4.2391 6.2843-4.4622-6.2843h-2.9004l5.8381 8.3667-5.9496 8.627h3.012l4.425-6.5818 4.6853 6.5818h3.0492l-6.2471-8.7013 5.5034-8.2923z"/>
   <path d="m64.662 432.94h2.4542v-11.304c0-0.81807 0.07437-1.5618 0.55778-2.4542 0.59496-1.1156 1.3387-1.5618 2.0452-1.5618 0.59496 0 1.2643 0.37185 1.5618 1.3015 0.22311 0.70652 0.18593 1.5246 0.18593 2.2311v11.788h2.4914v-11.23c0-0.89244 0.07437-1.599 0.70652-2.6773 0.29748-0.44623 0.92963-1.5246 1.9708-1.5246 0.55778 0 1.0784 0.33467 1.3387 0.96682 0.33467 0.70652 0.2603 1.6733 0.2603 2.4542v12.048h2.5286v-12.085c0-1.413 0.03718-2.8261-0.70652-3.9788-0.63215-0.96682-1.7105-1.3387-2.6402-1.3387-1.6362 0-3.1607 0.96682-3.8301 2.4542-0.2603-1.413-1.4502-2.4542-2.9748-2.4542-1.413 0-2.7145 0.89245-3.4954 2.0824l0.03719-1.6733h-2.4914z"/>
   <path d="m85.226 417.95 1.3015 1.7105c1.413-1.4502 3.3095-1.8964 4.9084-1.8964 2.008 0 3.012 0.85526 3.4954 1.6362 0.55778 0.92963 0.52059 2.0452 0.52059 2.9376v0.59497h-0.52059c-2.5286 0-5.2059 0-7.3627 0.78089-2.6773 0.96681-3.8673 2.9748-3.8673 4.8341 0 2.4914 2.1567 4.8341 5.6893 4.8341 2.0824 0 4.2391-0.78088 6.0984-2.3055v1.8593h2.5286v-10.523c0-1.3758-0.03719-2.6773-0.81808-4.016-1.1156-1.8221-3.2723-2.7889-5.9125-2.7889-2.2683 0-4.4622 0.70652-6.0612 2.3427zm10.337 7.028v1.1528c0 0.85526 0 1.9708-1.1527 3.1979-0.63215 0.63214-2.2311 2.008-4.4622 2.008-2.2683 0-3.5698-1.4502-3.5698-2.9376 0-1.2643 0.85526-2.6402 2.9748-3.1607 1.5618-0.37185 3.8301-0.2603 5.615-0.2603z"/>
   <path d="m103.6 408.24v2.1567h4.8341v20.415h-5.0572v2.1196h12.755v-2.1196h-5.02v-22.571z"/>
   <path d="m122.19 408.24v2.1567h4.8341v20.415h-5.0572v2.1196h12.755v-2.1196h-5.02v-22.571z"/>
   <path d="m154.76 424.53c0-5.8753-3.7185-8.9244-7.5858-8.9244-4.3135 0-8.032 3.7185-8.032 8.9988 0 5.1688 3.6813 8.8129 7.9576 8.8129 4.016 0 7.6602-3.2351 7.6602-8.8873zm-7.7717-6.6562c2.4542 0 5.0572 2.1196 5.0572 6.7677 0 4.2763-2.4542 6.433-4.9084 6.433-2.7145 0-5.1688-2.5286-5.1688-6.7305 0-4.1647 2.417-6.4702 5.02-6.4702z"/>
   <path d="m173.21 418.77c-1.3387-1.9708-3.607-3.1607-6.3587-3.1607-4.9828 0-8.5154 3.7557-8.5154 8.8501 0 5.1316 3.5326 8.9244 8.3667 8.9244 2.3427 0 4.6482-0.96681 6.2471-2.7145l-1.5246-1.7849c-1.1527 1.3015-2.8261 2.0452-4.4994 2.0452-3.3095 0-5.8381-2.7517-5.8381-6.7305 0-3.8673 2.4914-6.2843 5.615-6.2843 2.9004 0 4.2763 2.008 4.3879 2.2311 0.14874 0.2603-0.0744 0.63215 0.22311 0.85526z"/>
   <path d="m189.38 408.17c-5.7265 2.5286-9.4079 8.3667-9.4079 15.172 0 6.7677 3.5698 12.94 9.445 16.027l1.2271-1.9708c-5.0944-2.9376-8.0692-8.4039-8.0692-14.168 0-5.3175 2.5658-10.077 6.9165-12.606 0.0744-0.0744 0.18592-0.14874 0.33466-0.14874 0.11156 0 0.22311 0.0744 0.37185 0.0744 0.0744 0 0.18593-0.0372 0.33467-0.0744z"/>
   <path d="m196.3 410.51c4.9084 2.6402 8.032 7.6973 8.032 13.238 0 5.5778-3.1979 10.784-8.2179 13.424l0.70652 2.2683c6.1728-2.9376 10.152-9.1104 10.152-15.804 0-6.619-3.9044-12.643-9.9656-15.432z"/>
   <path d="m22.755 462.05c0-3.1607-2.6773-5.8753-6.3587-5.8753-2.0824 0-4.1276 0.89244-5.5778 2.4914l1.4502 1.599c1.0784-1.1527 2.5658-1.7849 4.016-1.7849 2.3799 0 4.016 1.6733 4.016 3.6442 0 1.3759-0.85526 2.9376-2.4914 3.6442-0.40904 0.14874-1.4502 0.55778-3.6442 0.55778v2.0824c0.37185-0.0372 0.78089-0.0744 1.1899-0.0744 3.1236 0 5.429 1.6362 5.429 4.425 0 2.5286-1.9336 4.7225-4.6482 4.7225-2.1567 0-3.4582-1.413-3.6442-1.599-0.29748-0.33467-0.14874-0.70652-0.48341-1.0412l-1.9336 2.3427c1.5246 1.7477 3.7557 2.6402 6.0612 2.6402 4.4622 0 7.1396-3.1607 7.1396-6.7677 0-2.7517-1.5618-5.0944-3.9788-5.9868 2.0824-0.78089 3.4582-2.7517 3.4582-5.02z"/>
   <path d="m39.562 462.42-4.2391 6.2843-4.4622-6.2843h-2.9004l5.8381 8.3667-5.9496 8.627h3.012l4.425-6.5818 4.6853 6.5818h3.0492l-6.2471-8.7014 5.5034-8.2923z"/>
   <path d="m113.23 454.5c-2.3799 0-4.611 1.004-5.8009 2.9376-0.89244 1.413-0.92963 2.8261-0.92963 4.3507v1.6733h-3.7185v2.1196h3.7185v13.833h2.5658v-13.833h5.5406v-2.1196h-5.5406v-1.3387c0-1.2271-0.0372-2.5286 0.59497-3.6442 0.70652-1.2643 2.0452-1.8964 3.421-1.8964 1.6362 0 3.012 0.85526 3.7185 1.9336 0.11156 0.18592 0.11156 0.29748 0.11156 0.44622 0 0.2603 0.18592 0.33467 0.29748 0.33467l1.2271-2.4914c-1.2271-1.4502-3.0864-2.3055-5.2059-2.3055z"/>
   <path d="m122.75 462.46v16.994h2.6773v-8.2551c0-1.0412 0.0372-2.1567 1.1899-3.9788 1.5618-2.4542 3.5698-2.8633 4.7969-2.8633 1.413 0 2.3055 0.66933 2.7889 1.2643 0.22311 0.29748 0.33466 0.59496 0.63215 0.85526l1.2643-2.5658c-1.0784-1.1156-2.6402-1.8593-4.5366-1.8593-2.4914 0-5.02 1.2643-6.1356 3.6813l0.11156-3.2723z"/>
   <path d="m147.25 462.05c-4.0532 0-7.8089 2.9004-7.8089 9.0732 0 5.6893 3.5326 8.7013 8.1436 8.7013 2.4542 0 4.6482-0.89244 6.0984-2.6402l-1.4874-1.4502c-1.0784 1.2643-2.7145 1.9336-4.3879 1.9336-2.2683 0-5.5778-1.2643-5.7637-6.3587h12.048c0.11156-1.1528 0.0744-2.2683-0.11155-3.2351-0.78089-4.5738-3.9416-6.024-6.7305-6.024zm-5.1316 7.2139c0.55778-4.016 3.1236-5.1688 4.9456-5.1688 2.7517 0 4.7225 2.417 4.3878 5.1688z"/>
   <path d="m165.84 462.05c-4.0532 0-7.8089 2.9004-7.8089 9.0732 0 5.6893 3.5326 8.7013 8.1436 8.7013 2.4542 0 4.6482-0.89244 6.0984-2.6402l-1.4874-1.4502c-1.0784 1.2643-2.7145 1.9336-4.3879 1.9336-2.2683 0-5.5778-1.2643-5.7637-6.3587h12.048c0.11155-1.1528 0.0744-2.2683-0.11156-3.2351-0.78089-4.5738-3.9416-6.024-6.7305-6.024zm-5.1316 7.2139c0.55778-4.016 3.1236-5.1688 4.9456-5.1688 2.7517 0 4.7225 2.417 4.3878 5.1688z"/>
   <path d="m189.38 454.65c-5.7265 2.5286-9.4079 8.3667-9.4079 15.172 0 6.7677 3.5698 12.94 9.445 16.027l1.2271-1.9708c-5.0944-2.9376-8.0692-8.4039-8.0692-14.168 0-5.3175 2.5658-10.077 6.9165-12.606 0.0744-0.0744 0.18592-0.14874 0.33466-0.14874 0.11156 0 0.22311 0.0744 0.37185 0.0744 0.0744 0 0.18593-0.0372 0.33467-0.0744z"/>
   <path d="m196.3 456.99c4.9084 2.6402 8.032 7.6974 8.032 13.238 0 5.5778-3.1979 10.784-8.2179 13.424l0.70652 2.2683c6.1728-2.9376 10.152-9.1104 10.152-15.804 0-6.619-3.9044-12.643-9.9656-15.432z"/>
  </g>
  <rect x="337.6" y="404.42" width="65.446" height="80.757" fill="#ea2828"/>
  <rect x="641.03" y="404.42" width="148.74" height="80.757" fill="#ea2828"/>
  <rect x="873.07" y="404.42" width="148.74" height="80.757" fill="#28ea2c"/>
 </g>
 <rect x="249.03" y="404.42" width="950.59" height="80.757" fill="none" stroke="#e9e56f" stroke-width="1.7849"/>
 <g fill="#28bbea">
  <rect x="260.26" y="506.24" width="17.849" height="80.757"/>
  <rect x="284.06" y="506.24" width="47.597" height="80.757"/>
  <rect x="367.35" y="506.24" width="23.799" height="80.757"/>
  <rect x="420.9" y="506.24" width="59.496" height="80.757"/>
  <rect x="492.29" y="506.24" width="17.849" height="80.757"/>
  <rect x="522.04" y="506.24" width="11.899" height="80.757"/>
  <rect x="557.74" y="506.24" width="59.496" height="80.757"/>
  <rect x="623.18" y="506.24" width="29.748" height="80.757"/>
  <rect x="658.88" y="506.24" width="59.496" height="80.757"/>
  <rect x="724.33" y="506.24" width="35.698" height="80.757"/>
  <rect x="813.57" y="506.24" width="29.748" height="80.757"/>
  <rect x="867.12" y="506.24" width="47.597" height="80.757"/>
  <rect x="926.62" y="506.24" width="35.698" height="80.757"/>
  <rect x="968.26" y="506.24" width="23.799" height="80.757"/>
  <rect x="998.01" y="506.24" width="17.849" height="80.757"/>
  <rect x="1021.8" y="506.24" width="35.698" height="80.757"/>
  <rect x="1063.5" y="506.24" width="17.849" height="80.757"/>
  <rect x="1105.1" y="506.24" width="17.849" height="80.757"/>
 </g>
 <g>
  <rect x="249.03" y="506.24" width="950.59" height="80.757" fill="none" stroke="#e9e56f" stroke-width="1.7849"/>
  <g fill="#e9e56f" stroke-width="5.9496px" aria-label="nx malloc() nx   free()">
   <path d="m10.037 534.75h2.7145v-9.7797c0-1.1156 0.14874-1.9708 0.85526-2.9004 0.63215-0.85526 2.2683-2.3798 4.0532-2.3798 0.85526 0 1.7105 0.37185 2.3055 1.0784 0.92963 1.1156 0.92963 2.5658 0.92963 3.7557v10.226h2.6402v-10.3c0-1.3015 0-2.7145-0.59496-4.0904-0.85526-1.8964-2.603-2.9748-4.5366-2.9748-2.3055 0-4.3879 1.4874-5.6522 3.3839v-2.9748h-2.7145z"/>
   <path d="m39.562 517.76-4.2391 6.2843-4.4622-6.2843h-2.9004l5.8381 8.3667-5.9496 8.627h3.012l4.425-6.5818 4.6853 6.5818h3.0492l-6.2471-8.7013 5.5034-8.2923z"/>
   <path d="m64.662 534.75h2.4542v-11.304c0-0.81807 0.07437-1.5618 0.55778-2.4542 0.59496-1.1156 1.3387-1.5618 2.0452-1.5618 0.59496 0 1.2643 0.37185 1.5618 1.3015 0.22311 0.70652 0.18593 1.5246 0.18593 2.2311v11.788h2.4914v-11.23c0-0.89245 0.07437-1.599 0.70652-2.6773 0.29748-0.44622 0.92963-1.5246 1.9708-1.5246 0.55778 0 1.0784 0.33467 1.3387 0.96682 0.33467 0.70652 0.2603 1.6733 0.2603 2.4542v12.048h2.5286v-12.085c0-1.413 0.03718-2.8261-0.70652-3.9788-0.63215-0.96681-1.7105-1.3387-2.6402-1.3387-1.6362 0-3.1607 0.96682-3.8301 2.4542-0.2603-1.413-1.4502-2.4542-2.9748-2.4542-1.413 0-2.7145 0.89245-3.4954 2.0824l0.03719-1.6733h-2.4914z"/>
   <path d="m85.226 519.77 1.3015 1.7105c1.413-1.4502 3.3095-1.8964 4.9084-1.8964 2.008 0 3.012 0.85526 3.4954 1.6362 0.55778 0.92963 0.52059 2.0452 0.52059 2.9376v0.59497h-0.52059c-2.5286 0-5.2059 0-7.3627 0.78089-2.6773 0.96681-3.8673 2.9748-3.8673 4.8341 0 2.4914 2.1567 4.8341 5.6893 4.8341 2.0824 0 4.2391-0.78089 6.0984-2.3055v1.8593h2.5286v-10.523c0-1.3758-0.03719-2.6773-0.81808-4.016-1.1156-1.8221-3.2723-2.7889-5.9125-2.7889-2.2683 0-4.4622 0.70652-6.0612 2.3427zm10.337 7.028v1.1527c0 0.85526 0 1.9708-1.1527 3.1979-0.63215 0.63215-2.2311 2.008-4.4622 2.008-2.2683 0-3.5698-1.4502-3.5698-2.9376 0-1.2643 0.85526-2.6402 2.9748-3.1608 1.5618-0.37185 3.8301-0.26029 5.615-0.26029z"/>
   <path d="m103.6 510.06v2.1568h4.8341v20.415h-5.0572v2.1196h12.755v-2.1196h-5.02v-22.571z"/>
   <path d="m122.19 510.06v2.1568h4.8341v20.415h-5.0572v2.1196h12.755v-2.1196h-5.02v-22.571z"/>
   <path d="m154.76 526.35c0-5.8753-3.7185-8.9244-7.5858-8.9244-4.3135 0-8.032 3.7185-8.032 8.9988 0 5.1688 3.6813 8.8129 7.9576 8.8129 4.016 0 7.6602-3.2351 7.6602-8.8873zm-7.7717-6.6562c2.4542 0 5.0572 2.1196 5.0572 6.7677 0 4.2763-2.4542 6.433-4.9084 6.433-2.7145 0-5.1688-2.5286-5.1688-6.7305 0-4.1648 2.417-6.4702 5.02-6.4702z"/>
   <path d="m173.21 520.59c-1.3387-1.9708-3.607-3.1607-6.3587-3.1607-4.9828 0-8.5154 3.7557-8.5154 8.8501 0 5.1316 3.5326 8.9245 8.3667 8.9245 2.3427 0 4.6482-0.96682 6.2471-2.7145l-1.5246-1.7849c-1.1527 1.3015-2.8261 2.0452-4.4994 2.0452-3.3095 0-5.8381-2.7517-5.8381-6.7305 0-3.8673 2.4914-6.2843 5.615-6.2843 2.9004 0 4.2763 2.008 4.3879 2.2311 0.14874 0.26029-0.0744 0.63214 0.22311 0.85526z"/>
   <path d="m189.38 509.99c-5.7265 2.5286-9.4079 8.3667-9.4079 15.172 0 6.7677 3.5698 12.94 9.445 16.027l1.2271-1.9708c-5.0944-2.9376-8.0692-8.4039-8.0692-14.168 0-5.3175 2.5658-10.077 6.9165-12.606 0.0744-0.0744 0.18592-0.14874 0.33466-0.14874 0.11156 0 0.22311 0.0744 0.37185 0.0744 0.0744 0 0.18593-0.0372 0.33467-0.0744z"/>
   <path d="m196.3 512.33c4.9084 2.6402 8.032 7.6973 8.032 13.238 0 5.5778-3.1979 10.784-8.2179 13.424l0.70652 2.2683c6.1728-2.9376 10.152-9.1104 10.152-15.804 0-6.619-3.9044-12.643-9.9656-15.432z"/>
   <path d="m10.037 581.24h2.7145v-9.7797c0-1.1156 0.14874-1.9708 0.85526-2.9004 0.63215-0.85526 2.2683-2.3798 4.0532-2.3798 0.85526 0 1.7105 0.37185 2.3055 1.0784 0.92963 1.1156 0.92963 2.5658 0.92963 3.7557v10.226h2.6402v-10.3c0-1.3015 0-2.7145-0.59496-4.0904-0.85526-1.8964-2.603-2.9748-4.5366-2.9748-2.3055 0-4.3879 1.4874-5.6522 3.3838v-2.9748h-2.7145z"/>
   <path d="m39.562 564.24-4.2391 6.2843-4.4622-6.2843h-2.9004l5.8381 8.3667-5.9496 8.627h3.012l4.425-6.5818 4.6853 6.5818h3.0492l-6.2471-8.7014 5.5034-8.2923z"/>
   <path d="m113.23 556.32c-2.3799 0-4.611 1.004-5.8009 2.9376-0.89244 1.413-0.92963 2.8261-0.92963 4.3507v1.6733h-3.7185v2.1196h3.7185v13.833h2.5658v-13.833h5.5406v-2.1196h-5.5406v-1.3387c0-1.2271-0.0372-2.5286 0.59497-3.6442 0.70652-1.2643 2.0452-1.8964 3.421-1.8964 1.6362 0 3.012 0.85526 3.7185 1.9336 0.11156 0.18593 0.11156 0.29748 0.11156 0.44622 0 0.2603 0.18592 0.33467 0.29748 0.33467l1.2271-2.4914c-1.2271-1.4502-3.0864-2.3055-5.2059-2.3055z"/>
   <path d="m122.75 564.28v16.994h2.6773v-8.2551c0-1.0412 0.0372-2.1567 1.1899-3.9788 1.5618-2.4542 3.5698-2.8633 4.7969-2.8633 1.413 0 2.3055 0.66933 2.7889 1.2643 0.22311 0.29748 0.33466 0.59496 0.63215 0.85526l1.2643-2.5658c-1.0784-1.1156-2.6402-1.8593-4.5366-1.8593-2.4914 0-5.02 1.2643-6.1356 3.6813l0.11156-3.2723z"/>
   <path d="m147.25 563.87c-4.0532 0-7.8089 2.9004-7.8089 9.0732 0 5.6893 3.5326 8.7013 8.1436 8.7013 2.4542 0 4.6482-0.89244 6.0984-2.6402l-1.4874-1.4502c-1.0784 1.2643-2.7145 1.9336-4.3879 1.9336-2.2683 0-5.5778-1.2643-5.7637-6.3587h12.048c0.11156-1.1527 0.0744-2.2683-0.11155-3.2351-0.78089-4.5738-3.9416-6.024-6.7305-6.024zm-5.1316 7.2139c0.55778-4.016 3.1236-5.1688 4.9456-5.1688 2.7517 0 4.7225 2.417 4.3878 5.1688z"/>
   <path d="m165.84 563.87c-4.0532 0-7.8089 2.9004-7.8089 9.0732 0 5.6893 3.5326 8.7013 8.1436 8.7013 2.4542 0 4.6482-0.89244 6.0984-2.6402l-1.4874-1.4502c-1.0784 1.2643-2.7145 1.9336-4.3879 1.9336-2.2683 0-5.5778-1.2643-5.7637-6.3587h12.048c0.11155-1.1527 0.0744-2.2683-0.11156-3.2351-0.78089-4.5738-3.9416-6.024-6.7305-6.024zm-5.1316 7.2139c0.55778-4.016 3.1236-5.1688 4.9456-5.1688 2.7517 0 4.7225 2.417 4.3878 5.1688z"/>
   <path d="m189.38 556.47c-5.7265 2.5286-9.4079 8.3667-9.4079 15.172 0 6.7677 3.5698 12.94 9.445 16.027l1.2271-1.9708c-5.0944-2.9376-8.0692-8.4039-8.0692-14.168 0-5.3175 2.5658-10.077 6.9165-12.606 0.0744-0.0744 0.18592-0.14874 0.33466-0.14874 0.11156 0 0.22311 0.0744 0.37185 0.0744 0.0744 0 0.18593-0.0372 0.33467-0.0744z"/>
   <path d="m196.3 558.81c4.9084 2.6402 8.032 7.6973 8.032 13.238 0 5.5778-3.1979 10.784-8.2179 13.424l0.70652 2.2683c6.1728-2.9376 10.152-9.1104 10.152-15.804 0-6.619-3.9044-12.643-9.9656-15.432z"/>
  </g>
  <g fill="#e9e56f" stroke-width="5.9496px" aria-label="Memory fragmentation">
   <path d="m545.69 11.748v23.204h2.4542v-17.366l4.6853 9.1848h0.96681l5.02-9.3335v17.514h2.4542v-23.204h-1.9336l-5.8381 11.341-5.7637-11.341z"/>
   <path d="m572.39 17.549c-4.0532 0-7.8089 2.9004-7.8089 9.0732 0 5.6893 3.5326 8.7013 8.1436 8.7013 2.4542 0 4.6482-0.89244 6.0984-2.6402l-1.4874-1.4502c-1.0784 1.2643-2.7145 1.9336-4.3878 1.9336-2.2683 0-5.5778-1.2643-5.7637-6.3587h12.048c0.11155-1.1527 0.0744-2.2683-0.11156-3.2351-0.78089-4.5738-3.9416-6.024-6.7305-6.024zm-5.1316 7.2139c0.55777-4.016 3.1236-5.1687 4.9456-5.1687 2.7517 0 4.7225 2.417 4.3879 5.1687z"/>
   <path d="m582.76 34.914h2.4542v-11.304c0-0.81808 0.0744-1.5618 0.55778-2.4542 0.59496-1.1156 1.3387-1.5618 2.0452-1.5618 0.59496 0 1.2643 0.37185 1.5618 1.3015 0.22311 0.70652 0.18592 1.5246 0.18592 2.2311v11.788h2.4914v-11.23c0-0.89244 0.0744-1.599 0.70652-2.6773 0.29748-0.44622 0.92963-1.5246 1.9708-1.5246 0.55778 0 1.0784 0.33467 1.3387 0.96682 0.33466 0.70652 0.26029 1.6733 0.26029 2.4542v12.048h2.5286v-12.085c0-1.413 0.0372-2.8261-0.70652-3.9788-0.63215-0.96682-1.7105-1.3387-2.6402-1.3387-1.6362 0-3.1608 0.96682-3.8301 2.4542-0.2603-1.413-1.4502-2.4542-2.9748-2.4542-1.413 0-2.7145 0.89244-3.4954 2.0824l0.0372-1.6733h-2.4914z"/>
   <path d="m617.09 26.51c0-5.8753-3.7185-8.9245-7.5858-8.9245-4.3135 0-8.032 3.7185-8.032 8.9988 0 5.1687 3.6813 8.8129 7.9576 8.8129 4.016 0 7.6602-3.2351 7.6602-8.8873zm-7.7717-6.6562c2.4542 0 5.0572 2.1196 5.0572 6.7677 0 4.2763-2.4542 6.433-4.9084 6.433-2.7145 0-5.1688-2.5286-5.1688-6.7305 0-4.1647 2.417-6.4702 5.02-6.4702z"/>
   <path d="m622.25 17.958v16.994h2.6773v-8.2551c0-1.0412 0.0372-2.1567 1.1899-3.9788 1.5618-2.4542 3.5698-2.8633 4.7969-2.8633 1.413 0 2.3055 0.66933 2.7889 1.2643 0.22311 0.29748 0.33466 0.59496 0.63214 0.85526l1.2643-2.5658c-1.0784-1.1156-2.6402-1.8593-4.5366-1.8593-2.4914 0-5.02 1.2643-6.1356 3.6813l0.11156-3.2723z"/>
   <path d="m638.84 17.958 6.9164 16.919-0.55778 1.2271c-0.29748 0.70652-0.63215 1.413-1.1527 1.9708-0.70652 0.78089-1.599 1.1156-2.3799 1.1156-1.2643 0-1.8964-0.85526-2.008-1.004-0.11155-0.18593-0.0744-0.44622-0.29748-0.63215l-1.3758 2.417c0.96681 0.92963 2.2683 1.413 3.6813 1.413 1.5246 0 3.1236-0.55778 4.2391-1.8221 0.7437-0.85526 1.1156-1.7477 1.4874-2.7145l5.2803-14.019c0.63215-1.599 1.1899-3.2351 1.7105-4.9084h-2.7889c-0.29748 1.5618-0.78089 3.0492-1.3015 4.5366l-3.2351 9.1104-4.9828-12.531c-0.0372-0.11156-0.0372-0.18593-0.0372-0.29748 0-0.2603 0.18592-0.44622 0.14874-0.78089z"/>
   <path d="m687.11 10c-2.3798 0-4.611 1.004-5.8009 2.9376-0.89245 1.413-0.92963 2.8261-0.92963 4.3507v1.6733h-3.7185v2.1196h3.7185v13.833h2.5658v-13.833h5.5406v-2.1196h-5.5406v-1.3387c0-1.2271-0.0372-2.5286 0.59496-3.6442 0.70652-1.2643 2.0452-1.8964 3.421-1.8964 1.6362 0 3.012 0.85526 3.7185 1.9336 0.11156 0.18593 0.11156 0.29748 0.11156 0.44622 0 0.2603 0.18593 0.33467 0.29748 0.33467l1.2271-2.4914c-1.2271-1.4502-3.0864-2.3055-5.2059-2.3055z"/>
   <path d="m696.63 17.958v16.994h2.6773v-8.2551c0-1.0412 0.0372-2.1567 1.1899-3.9788 1.5618-2.4542 3.5698-2.8633 4.7969-2.8633 1.413 0 2.3055 0.66933 2.7889 1.2643 0.22311 0.29748 0.33466 0.59496 0.63215 0.85526l1.2643-2.5658c-1.0784-1.1156-2.6402-1.8593-4.5366-1.8593-2.4914 0-5.02 1.2643-6.1356 3.6813l0.11156-3.2723z"/>
   <path d="m714.88 19.928 1.3015 1.7105c1.413-1.4502 3.3095-1.8964 4.9084-1.8964 2.008 0 3.012 0.85526 3.4954 1.6362 0.55777 0.92963 0.52059 2.0452 0.52059 2.9376v0.59496h-0.52059c-2.5286 0-5.2059 0-7.3627 0.78089-2.6773 0.96682-3.8673 2.9748-3.8673 4.8341 0 2.4914 2.1567 4.8341 5.6893 4.8341 2.0824 0 4.2391-0.78089 6.0984-2.3055v1.8593h2.5286v-10.523c0-1.3759-0.0372-2.6773-0.81808-4.016-1.1156-1.8221-3.2723-2.7889-5.9124-2.7889-2.2683 0-4.4622 0.70652-6.0612 2.3427zm10.337 7.028v1.1527c0 0.85526 0 1.9708-1.1527 3.1979-0.63215 0.63215-2.2311 2.008-4.4622 2.008-2.2683 0-3.5698-1.4502-3.5698-2.9376 0-1.2643 0.85526-2.6402 2.9748-3.1607 1.5618-0.37185 3.8301-0.2603 5.615-0.2603z"/>
   <path d="m734.78 23.238c0-2.0452 1.7105-3.7185 3.7557-3.7185 2.0824 0 3.7557 1.6733 3.7557 3.7185 0 2.0452-1.6733 3.7185-3.7557 3.7185s-3.7557-1.6733-3.7557-3.7185zm3.9044-5.8381c-3.3839 0-6.3215 2.6773-6.3215 5.9868 0 1.8593 0.92963 3.607 2.4914 4.611-1.2271 1.0412-1.9336 2.1939-1.9336 3.2723 0 0.70652 0.29748 1.7105 1.3758 2.2683-1.8221 1.1527-2.7517 2.417-2.7517 3.7557 0 1.8593 1.7105 4.0532 7.6602 4.0532 5.7637 0 7.8461-2.9376 7.8461-5.2059 0-1.4874-0.85526-2.9748-2.6402-3.6813-1.7849-0.7437-3.8301-0.48341-5.7637-0.48341-1.2643 0-2.0824-0.11156-2.417-0.22311-0.66933-0.18593-1.0412-0.59496-1.0412-1.1156 0-0.89245 1.0412-1.7477 1.2271-1.8964 0.66933 0.2603 1.413 0.37185 2.1567 0.37185 3.3467 0 6.0984-2.6773 6.0984-5.8009 0-1.0412-0.29748-2.0452-0.85526-2.9004 0.89245-0.52059 1.9336-0.81808 2.9748-0.81808 0.33467 0 0.63215 0.03719 0.96681 0.11156l-0.29748-2.1939c-1.7105-0.14874-3.421 0.40904-4.7225 1.4874-1.0784-1.0412-2.4914-1.599-4.0532-1.599zm-2.5658 16.622c0.63215 0.07437 1.5246 0.14874 2.8261 0.22311 1.2643 0.03718 2.6402-0.07437 3.607 0.07437 1.5618 0.2603 2.0452 1.2271 2.0452 1.9708s-0.44622 1.6362-1.599 2.2683c-1.2643 0.66933-2.6773 0.7437-3.8301 0.7437-0.78089 0-2.2311-0.03719-3.4954-0.55778-1.3759-0.55778-1.6733-1.4874-1.6733-2.0824 0-1.2271 1.1527-2.1196 2.1196-2.6402z"/>
   <path d="m750.1 34.914h2.4542v-11.304c0-0.81808 0.0744-1.5618 0.55778-2.4542 0.59496-1.1156 1.3387-1.5618 2.0452-1.5618 0.59496 0 1.2643 0.37185 1.5618 1.3015 0.22311 0.70652 0.18592 1.5246 0.18592 2.2311v11.788h2.4914v-11.23c0-0.89244 0.0744-1.599 0.70652-2.6773 0.29748-0.44622 0.92963-1.5246 1.9708-1.5246 0.55778 0 1.0784 0.33467 1.3387 0.96682 0.33466 0.70652 0.26029 1.6733 0.26029 2.4542v12.048h2.5286v-12.085c0-1.413 0.0372-2.8261-0.70652-3.9788-0.63215-0.96682-1.7105-1.3387-2.6402-1.3387-1.6362 0-3.1608 0.96682-3.8301 2.4542-0.2603-1.413-1.4502-2.4542-2.9748-2.4542-1.413 0-2.7145 0.89244-3.4954 2.0824l0.0372-1.6733h-2.4914z"/>
   <path d="m776.91 17.549c-4.0532 0-7.8089 2.9004-7.8089 9.0732 0 5.6893 3.5326 8.7013 8.1436 8.7013 2.4542 0 4.6482-0.89244 6.0984-2.6402l-1.4874-1.4502c-1.0784 1.2643-2.7145 1.9336-4.3879 1.9336-2.2683 0-5.5778-1.2643-5.7637-6.3587h12.048c0.11156-1.1527 0.0744-2.2683-0.11155-3.2351-0.78089-4.5738-3.9416-6.024-6.7305-6.024zm-5.1316 7.2139c0.55778-4.016 3.1236-5.1687 4.9456-5.1687 2.7517 0 4.7225 2.417 4.3878 5.1687z"/>
   <path d="m788.44 34.914h2.7145v-9.7797c0-1.1156 0.14874-1.9708 0.85526-2.9004 0.63215-0.85526 2.2683-2.3799 4.0532-2.3799 0.85526 0 1.7105 0.37185 2.3055 1.0784 0.92963 1.1156 0.92963 2.5658 0.92963 3.7557v10.226h2.6402v-10.3c0-1.3015 0-2.7145-0.59497-4.0904-0.85526-1.8964-2.603-2.9748-4.5366-2.9748-2.3055 0-4.3879 1.4874-5.6522 3.3839v-2.9748h-2.7145z"/>
   <path d="m811.49 13.384-0.33467 4.5738h-4.0532l-0.0372 2.1939h3.9788c-0.22311 2.9004-0.33466 5.8009-0.33466 8.6642 0 1.5246 0 3.2351 1.004 4.6482 0.81807 1.1156 2.1196 1.7849 3.8673 1.7849 2.008 0 3.9788-0.85526 5.429-1.8964l-0.81808-2.1196c-1.4502 1.0784-2.7889 1.5618-3.8301 1.5618-1.2643 0-2.5658-0.70652-2.8633-2.7517 0-0.14874-0.11156-0.78089-0.11156-3.2723 0-2.1939 0.11156-4.425 0.33467-6.619h5.5778v-2.2311h-5.5406s0.26029-3.0492 0.44622-4.016c0.0372-0.37185 0.33467-0.59496 0.18593-1.004z"/>
   <path d="m826.44 19.928 1.3015 1.7105c1.413-1.4502 3.3095-1.8964 4.9084-1.8964 2.008 0 3.012 0.85526 3.4954 1.6362 0.55778 0.92963 0.52059 2.0452 0.52059 2.9376v0.59496h-0.52059c-2.5286 0-5.2059 0-7.3627 0.78089-2.6773 0.96682-3.8673 2.9748-3.8673 4.8341 0 2.4914 2.1567 4.8341 5.6893 4.8341 2.0824 0 4.2391-0.78089 6.0984-2.3055v1.8593h2.5286v-10.523c0-1.3759-0.0372-2.6773-0.81807-4.016-1.1156-1.8221-3.2723-2.7889-5.9124-2.7889-2.2683 0-4.4622 0.70652-6.0612 2.3427zm10.337 7.028v1.1527c0 0.85526 0 1.9708-1.1527 3.1979-0.63215 0.63215-2.2311 2.008-4.4622 2.008-2.2683 0-3.5698-1.4502-3.5698-2.9376 0-1.2643 0.85526-2.6402 2.9748-3.1607 1.5618-0.37185 3.8301-0.2603 5.615-0.2603z"/>
   <path d="m848.68 13.384-0.33467 4.5738h-4.0532l-0.0372 2.1939h3.9788c-0.22311 2.9004-0.33467 5.8009-0.33467 8.6642 0 1.5246 0 3.2351 1.004 4.6482 0.81808 1.1156 2.1196 1.7849 3.8673 1.7849 2.008 0 3.9788-0.85526 5.429-1.8964l-0.81808-2.1196c-1.4502 1.0784-2.7889 1.5618-3.8301 1.5618-1.2643 0-2.5658-0.70652-2.8633-2.7517 0-0.14874-0.11155-0.78089-0.11155-3.2723 0-2.1939 0.11155-4.425 0.33466-6.619h5.5778v-2.2311h-5.5406s0.26029-3.0492 0.44622-4.016c0.0372-0.37185 0.33467-0.59496 0.18593-1.004z"/>
   <path d="m864.22 17.92v2.1939h4.0904v12.68h-4.3135v2.1196h11.007v-2.1196h-3.9788v-14.874zm5.5034-7.3627c-1.0784 0-1.9336 0.85526-1.9336 1.8964s0.85526 1.8964 1.9336 1.8964c1.0784 0 1.9336-0.85526 1.9336-1.8964s-0.85526-1.8964-1.9336-1.8964z"/>
   <path d="m895.98 26.51c0-5.8753-3.7185-8.9245-7.5858-8.9245-4.3135 0-8.032 3.7185-8.032 8.9988 0 5.1687 3.6813 8.8129 7.9576 8.8129 4.016 0 7.6602-3.2351 7.6602-8.8873zm-7.7717-6.6562c2.4542 0 5.0572 2.1196 5.0572 6.7677 0 4.2763-2.4542 6.433-4.9084 6.433-2.7145 0-5.1688-2.5286-5.1688-6.7305 0-4.1647 2.417-6.4702 5.02-6.4702z"/>
   <path d="m899.99 34.914h2.7145v-9.7797c0-1.1156 0.14874-1.9708 0.85526-2.9004 0.63214-0.85526 2.2683-2.3799 4.0532-2.3799 0.85526 0 1.7105 0.37185 2.3055 1.0784 0.92963 1.1156 0.92963 2.5658 0.92963 3.7557v10.226h2.6402v-10.3c0-1.3015 0-2.7145-0.59496-4.0904-0.85526-1.8964-2.603-2.9748-4.5366-2.9748-2.3055 0-4.3879 1.4874-5.6522 3.3839v-2.9748h-2.7145z"/>
  </g>
 </g>
</svg>
