<svg version="1.1" viewBox="0 0 1511.4 545.05" xmlns="http://www.w3.org/2000/svg">
 <rect x="677.28" y="10.952" width="157.17" height="62.005" fill="#3b390d" fill-opacity=".38431" stroke="#e9e56f" stroke-width="1.9034"/>
 <g transform="translate(7.8651 -138.47)" fill="#e9e56f" stroke-width="6.3446px" aria-label="World">
  <path d="m713.41 170.97 3.0663 19.256h0.85856l3.3422-12.633 3.2809 12.633h0.85856l3.005-19.256h-1.8091l-1.7478 12.97-3.0969-11.56h-0.64392l-3.0663 11.529-2.0851-12.94z"/>
  <path d="m742.32 183.14c0-4.8447-3.0663-7.3591-6.2552-7.3591-3.5569 0-6.6232 3.0663-6.6232 7.4204 0 4.2621 3.0356 7.2671 6.5618 7.2671 3.3116 0 6.3165-2.6677 6.3165-7.3284zm-6.4085-5.4886c2.0238 0 4.1701 1.7478 4.1701 5.5806 0 3.5262-2.0237 5.3047-4.0475 5.3047-2.2384 0-4.2621-2.0851-4.2621-5.55 0-3.4342 1.9931-5.3353 4.1395-5.3353z"/>
  <path d="m746.59 176.09v14.013h2.2077v-6.8071c0-0.85856 0.0307-1.7784 0.98121-3.2809 1.2878-2.0237 2.9436-2.361 3.9555-2.361 1.1652 0 1.9011 0.55193 2.2997 1.0425 0.18398 0.24531 0.27597 0.49061 0.52127 0.70525l1.0425-2.1157c-0.88922-0.91989-2.177-1.5331-3.7409-1.5331-2.0544 0-4.1395 1.0425-5.0594 3.0356l0.092-2.6983z"/>
  <path d="m761.46 169.71v1.7784h3.9862v16.834h-4.1701v1.7478h10.517v-1.7478h-4.1395v-18.612z"/>
  <path d="m785.59 178.11c-0.67458-1.4412-2.177-2.3917-4.1088-2.3917-2.6677 0-5.9179 1.9011-5.9179 7.2364 0 5.182 2.8823 7.451 5.5806 7.451 1.7784 0 3.4342-1.0119 4.3234-2.5757v1.2265c0 0.33729 0.0307 0.67458 0.12265 1.0119h2.2077c-0.12265-0.39861-0.12265-0.85856-0.12265-1.2878l-0.0307-18.214c0-0.18398 0-0.2453 0.12265-0.42928 0.0613-0.092 0.18398-0.2453 0.15332-0.45994h-2.3304zm-4.0168-0.58259c1.2265 0 3.0356 0.64392 3.5876 2.729 0.18397 0.64392 0.2453 1.4105 0.2453 2.9743 0 1.0732-0.0613 1.8398-0.30663 2.5757-0.52127 1.6558-1.9931 2.637-3.4342 2.637-1.5945 0-3.9555-1.2265-3.9555-5.8259 0-4.0168 2.2384-5.09 3.8635-5.09z"/>
 </g>
 <g fill="#3b390d" fill-opacity=".38431" stroke="#e9e56f" stroke-width="1.9034">
  <rect x="106.27" y="231.14" width="157.17" height="87.317"/>
  <rect x="867.62" y="231.14" width="157.17" height="87.317"/>
  <rect x="1248.3" y="231.14" width="157.17" height="87.317"/>
  <rect x="486.95" y="231.14" width="157.17" height="87.317"/>
 </g>
 <g fill="#e9e56f">
  <g transform="translate(7.8651 -138.47)" stroke-width="6.3446px" aria-label="Creature">
   <path d="m1265.2 399.21c-2.9742 0-7.267 2.1771-7.267 9.8428 0 7.3591 4.1088 9.7508 7.267 9.7508 2.2691 0 4.3848-1.1958 5.5807-3.1583l-1.5638-1.0119c-0.8893 1.4412-2.4224 2.2997-3.8942 2.2997-2.821 0-5.3047-2.913-5.3047-8.095 0-5.0594 2.4224-7.911 5.1207-7.911 1.4718 0 2.8823 0.88922 3.6489 2.2384 0.061 0.092 0.1226 0.18398 0.1226 0.30663 0 0.092-0.031 0.15331-0.031 0.2453 0 0.0307 0 0.18398 0.1533 0.27597l2.0237-0.98121c-1.0118-2.2997-3.3116-3.8022-5.8566-3.8022z"/>
   <path d="m1275.1 404.48v14.013h2.2077v-6.8071c0-0.85856 0.031-1.7784 0.9812-3.2809 1.2878-2.0237 2.9436-2.361 3.9555-2.361 1.1652 0 1.9011 0.55193 2.2997 1.0425 0.184 0.2453 0.276 0.4906 0.5213 0.70524l1.0425-2.1157c-0.8892-0.91989-2.1771-1.5331-3.7409-1.5331-2.0544 0-4.1394 1.0425-5.0593 3.0356l0.092-2.6983z"/>
   <path d="m1295.3 404.15c-3.3422 0-6.4392 2.3917-6.4392 7.4817 0 4.6914 2.913 7.1751 6.7152 7.1751 2.0237 0 3.8328-0.7359 5.0287-2.177l-1.2265-1.1958c-0.8893 1.0425-2.2384 1.5945-3.6182 1.5945-1.8705 0-4.5995-1.0425-4.7528-5.2433h9.9348c0.092-0.95055 0.061-1.8704-0.092-2.6677-0.6439-3.7715-3.2503-4.9674-5.55-4.9674zm-4.2314 5.9486c0.4599-3.3116 2.5756-4.2621 4.0781-4.2621 2.2691 0 3.8942 1.9931 3.6182 4.2621z"/>
   <path d="m1305.5 406.11 1.0732 1.4105c1.1651-1.1958 2.7289-1.5638 4.0474-1.5638 1.6558 0 2.4837 0.70525 2.8823 1.3492 0.46 0.76657 0.4293 1.6865 0.4293 2.4224v0.49061h-0.4293c-2.085 0-4.2927 0-6.0712 0.64392-2.2077 0.79723-3.1889 2.453-3.1889 3.9862 0 2.0544 1.7784 3.9862 4.6914 3.9862 1.7171 0 3.4955-0.64392 5.0287-1.9011v1.5331h2.0851v-8.6776c0-1.1345-0.031-2.2077-0.6746-3.3116-0.9199-1.5025-2.6984-2.2997-4.8754-2.2997-1.8704 0-3.6795 0.58259-4.998 1.9318zm8.5242 5.7953v0.95055c0 0.70524 0 1.6251-0.9505 2.637-0.5213 0.52126-1.8398 1.6558-3.6796 1.6558-1.8704 0-2.9436-1.1958-2.9436-2.4224 0-1.0425 0.7053-2.1771 2.453-2.6063 1.2879-0.30663 3.1583-0.21464 4.6301-0.21464z"/>
   <path d="m1323.8 400.71-0.276 3.7715h-3.3422l-0.031 1.8091h3.2809c-0.1839 2.3917-0.2759 4.7834-0.2759 7.1444 0 1.2572 0 2.6677 0.8279 3.8328 0.6746 0.91988 1.7478 1.4718 3.1889 1.4718 1.6558 0 3.2809-0.70524 4.4768-1.5638l-0.6746-1.7478c-1.1959 0.88922-2.2997 1.2878-3.1583 1.2878-1.0425 0-2.1157-0.5826-2.361-2.269 0-0.12265-0.092-0.64392-0.092-2.6983 0-1.8091 0.092-3.6489 0.276-5.458h4.5994v-1.8398h-4.5688s0.2147-2.5144 0.368-3.3116c0.031-0.30663 0.2759-0.49061 0.1533-0.8279z"/>
   <path d="m1335.3 404.48v7.819c0 1.1958 0 2.4224 0.5519 3.6795 0.7972 1.8398 2.5144 2.8516 4.3541 2.8516 1.7478 0 3.4036-0.95055 4.3235-2.4837l-0.031 1.0425c0 0.36795 0 0.7359 0.061 1.0732h2.3304c-0.1533-0.39861-0.184-0.85855-0.184-1.2572v-12.725h-2.2077v7.6964c0 1.0732-0.092 1.9011-0.5519 2.7596-0.6439 1.1958-1.9011 2.0851-3.2503 2.0851-1.0732 0-2.1157-0.61325-2.6676-1.7171-0.4906-0.98121-0.4906-2.0851-0.4906-3.005v-7.819z"/>
   <path d="m1351.8 404.48v14.013h2.2077v-6.8071c0-0.85856 0.031-1.7784 0.9812-3.2809 1.2879-2.0237 2.9436-2.361 3.9555-2.361 1.1652 0 1.9011 0.55193 2.2997 1.0425 0.184 0.2453 0.276 0.4906 0.5213 0.70524l1.0425-2.1157c-0.8892-0.91989-2.177-1.5331-3.7408-1.5331-2.0544 0-4.1395 1.0425-5.0594 3.0356l0.092-2.6983z"/>
   <path d="m1372 404.15c-3.3422 0-6.4391 2.3917-6.4391 7.4817 0 4.6914 2.9129 7.1751 6.7151 7.1751 2.0238 0 3.8329-0.7359 5.0287-2.177l-1.2265-1.1958c-0.8892 1.0425-2.2384 1.5945-3.6182 1.5945-1.8704 0-4.5994-1.0425-4.7527-5.2433h9.9347c0.092-0.95055 0.061-1.8704-0.092-2.6677-0.6439-3.7715-3.2502-4.9674-5.55-4.9674zm-4.2314 5.9486c0.4599-3.3116 2.5757-4.2621 4.0781-4.2621 2.2691 0 3.8942 1.9931 3.6182 4.2621z"/>
  </g>
  <g transform="translate(7.8651 -138.47)" stroke-width="6.3446px" aria-label="Platform">
   <path d="m116.49 399.36v19.103h2.2384v-8.4323h3.7409c1.1958 0 2.3304-0.0307 3.4956-0.61325 1.7784-0.88922 2.6983-2.729 2.6983-4.6608 0-1.9318-0.91988-3.8022-2.729-4.7221-1.1958-0.64392-2.3917-0.67458-3.6182-0.67458zm2.2384 2.0237h3.5876c0.79723 0 1.5638 0.0307 2.361 0.39862 1.1652 0.61325 1.8091 1.8398 1.8091 3.0663s-0.61325 2.361-1.7171 2.913c-0.73591 0.36795-1.4718 0.39861-2.2077 0.39861h-3.8635z"/>
   <path d="m132.62 398.11v1.7784h3.9862v16.834h-4.1701v1.7478h10.517v-1.7478h-4.1395v-18.612z"/>
   <path d="m148.14 406.11 1.0732 1.4105c1.1652-1.1958 2.729-1.5638 4.0475-1.5638 1.6558 0 2.4837 0.70525 2.8823 1.3492 0.45994 0.76657 0.42927 1.6865 0.42927 2.4224v0.49061h-0.42927c-2.0851 0-4.2928 0-6.0712 0.64392-2.2077 0.79723-3.1889 2.453-3.1889 3.9862 0 2.0544 1.7784 3.9862 4.6914 3.9862 1.7171 0 3.4956-0.64392 5.0287-1.9011v1.5331h2.0851v-8.6776c0-1.1345-0.0307-2.2077-0.67458-3.3116-0.91989-1.5025-2.6983-2.2997-4.8754-2.2997-1.8704 0-3.6795 0.58259-4.998 1.9318zm8.5242 5.7953v0.95055c0 0.70524 0 1.6251-0.95054 2.637-0.52127 0.52126-1.8398 1.6558-3.6795 1.6558-1.8704 0-2.9436-1.1958-2.9436-2.4224 0-1.0425 0.70524-2.1771 2.453-2.6063 1.2878-0.30663 3.1583-0.21464 4.6301-0.21464z"/>
   <path d="m166.47 400.71-0.27596 3.7715h-3.3422l-0.0307 1.8091h3.2809c-0.18398 2.3917-0.27597 4.7834-0.27597 7.1444 0 1.2572 0 2.6677 0.8279 3.8328 0.67458 0.91988 1.7478 1.4718 3.1889 1.4718 1.6558 0 3.2809-0.70524 4.4768-1.5638l-0.67458-1.7478c-1.1958 0.88922-2.2997 1.2878-3.1583 1.2878-1.0425 0-2.1157-0.5826-2.361-2.269 0-0.12265-0.092-0.64392-0.092-2.6983 0-1.8091 0.092-3.6489 0.27597-5.458h4.5994v-1.8398h-4.5688s0.21464-2.5144 0.36795-3.3116c0.0307-0.30663 0.27597-0.49061 0.15332-0.8279z"/>
   <path d="m186.56 397.92c-1.9624 0-3.8022 0.82789-4.7834 2.4224-0.7359 1.1652-0.76656 2.3304-0.76656 3.5875v1.3798h-3.0663v1.7478h3.0663v11.407h2.1157v-11.407h4.5688v-1.7478h-4.5688v-1.1039c0-1.0119-0.0307-2.0851 0.4906-3.005 0.58259-1.0425 1.6864-1.5638 2.821-1.5638 1.3492 0 2.4837 0.70525 3.0663 1.5945 0.092 0.15331 0.092 0.2453 0.092 0.36795 0 0.21464 0.15332 0.27596 0.2453 0.27596l1.0119-2.0544c-1.0119-1.1958-2.545-1.9011-4.2928-1.9011z"/>
   <path d="m205.48 411.54c0-4.8447-3.0663-7.3591-6.2552-7.3591-3.5569 0-6.6232 3.0663-6.6232 7.4204 0 4.2621 3.0356 7.2671 6.5618 7.2671 3.3116 0 6.3165-2.6677 6.3165-7.3284zm-6.4085-5.4886c2.0238 0 4.1701 1.7478 4.1701 5.5806 0 3.5262-2.0237 5.3047-4.0475 5.3047-2.2384 0-4.2621-2.0851-4.2621-5.55 0-3.4342 1.9931-5.3353 4.1395-5.3353z"/>
   <path d="m209.74 404.48v14.013h2.2077v-6.8071c0-0.85856 0.0307-1.7784 0.98121-3.2809 1.2878-2.0237 2.9436-2.361 3.9555-2.361 1.1652 0 1.9011 0.55193 2.2997 1.0425 0.18397 0.2453 0.27596 0.4906 0.52126 0.70524l1.0425-2.1157c-0.88922-0.91989-2.1771-1.5331-3.7409-1.5331-2.0544 0-4.1395 1.0425-5.0594 3.0356l0.092-2.6983z"/>
   <path d="m223.17 418.47h2.0238v-9.3215c0-0.67458 0.0613-1.2878 0.45994-2.0237 0.4906-0.91989 1.1039-1.2878 1.6864-1.2878 0.49061 0 1.0425 0.30663 1.2878 1.0732 0.18397 0.58259 0.15331 1.2572 0.15331 1.8398v9.7201h2.0544v-9.2602c0-0.73591 0.0613-1.3185 0.58259-2.2077 0.2453-0.36796 0.76657-1.2572 1.6251-1.2572 0.45994 0 0.88922 0.27597 1.1039 0.79724 0.27596 0.58259 0.21464 1.3798 0.21464 2.0237v9.9347h2.0851v-9.9654c0-1.1652 0.0307-2.3304-0.5826-3.2809-0.52126-0.79723-1.4105-1.1039-2.177-1.1039-1.3492 0-2.6063 0.79723-3.1583 2.0237-0.21464-1.1652-1.1958-2.0237-2.453-2.0237-1.1652 0-2.2384 0.73591-2.8823 1.7171l0.0307-1.3798h-2.0544z"/>
  </g>
  <g transform="translate(7.8651 -138.47)" aria-label="T">
   <path d="m268.29 389.24v1.9318h5.3966v17.202h2.177v-17.202h5.642v-1.9318z" fill="#e9e56f" stroke-width="6.3446px"/>
  </g>
  <g transform="translate(7.8651 -138.47)" aria-label="T">
   <path d="m648.96 389.24v1.9318h5.3966v17.202h2.1771v-17.202h5.642v-1.9318z" fill="#e9e56f" stroke-width="6.3446px"/>
  </g>
  <g transform="translate(7.8651 -138.47)" aria-label="T">
   <path d="m1029.6 389.24v1.9318h5.3966v17.202h2.1771v-17.202h5.6419v-1.9318z" fill="#e9e56f" stroke-width="6.3446px"/>
  </g>
  <g transform="translate(7.8651 -138.47)" aria-label="T">
   <path d="m1410.3 389.24v1.9318h5.3967v17.202h2.1771v-17.202h5.6419v-1.9318z" fill="#e9e56f" stroke-width="6.3446px"/>
  </g>
  <g transform="translate(7.8651 -138.47)" stroke-width="6.3446px" aria-label="TR">
   <path d="m1207.3 648.44v1.9318h5.3966v17.202h2.1771v-17.202h5.6419v-1.9318z"/>
   <path d="m1223.4 648.44v19.103h2.1464v-8.4323h3.7102l4.2315 8.4323h2.4224l-4.4155-8.4936c2.2997-0.64391 3.8942-2.821 3.8942-5.366 0-1.9011-0.9506-3.7102-2.729-4.5994-1.1958-0.61325-2.3917-0.64392-3.6489-0.64392zm2.1464 2.0238h3.4649c0.7973 0 1.5638 0.0307 2.3611 0.39861 1.1958 0.61326 1.8091 1.8398 1.8091 3.0663s-0.5826 2.361-1.6865 2.913c-0.7359 0.36796-1.4718 0.39862-2.2384 0.39862h-3.7102z"/>
  </g>
  <g transform="translate(7.8651 -138.47)" aria-label="T">
   <path d="m71.208 654.38v1.9318h5.3966v17.202h2.1771v-17.202h5.642v-1.9318z" fill="#e9e56f" stroke-width="6.3446px"/>
  </g>
  <g transform="translate(7.8651 -138.47)" aria-label="I">
   <path d="m264.09 654.38v1.8091h3.5262v15.546h-3.7409v1.7784h9.8734v-1.7478h-3.9862v-15.577h3.7715v-1.8091z" fill="#e9e56f" stroke-width="6.3446px"/>
  </g>
  <g transform="translate(7.8651 -138.47)" aria-label="I">
   <path d="m1412.1 648.44v1.8091h3.5262v15.546h-3.7408v1.7784h9.8734v-1.7478h-3.9862v-15.577h3.7716v-1.8091z" fill="#e9e56f" stroke-width="6.3446px"/>
  </g>
 </g>
 <g fill="none" stroke="#b62a2a" stroke-width="6.3446">
  <path d="m755.9 73.82v105.88"/>
  <path d="m184.89 230.45v-50.756h1142v50.756"/>
  <path d="m565.56 230.45v-50.756"/>
  <path d="m946.23 230.45v-50.756"/>
  <path d="m89.718 414.7v-50.756h190.34v50.756"/>
  <path d="m184.89 319.53v44.412"/>
  <path d="m1231.7 414.7v-50.756h190.34v50.756"/>
 </g>
 <g fill="#3b390d" fill-opacity=".38431" stroke="#e9e56f" stroke-width="1.9034">
  <rect x="195.34" y="413.9" width="157.17" height="87.317"/>
  <rect x="1153" y="413.9" width="157.17" height="87.317"/>
  <rect x="1343.3" y="413.9" width="157.17" height="87.317"/>
 </g>
 <g>
  <g transform="translate(7.8651 -138.47)" fill="#e9e56f" stroke-width="6.3446px" aria-label="Sword">
   <path d="m1195.7 584.08c-1.2879-1.5638-3.189-2.3917-5.274-2.3917-3.4649 0-5.8259 2.269-5.8259 4.906 0 1.1039 0.4292 2.545 2.0237 3.7102 1.7784 1.3185 4.5381 1.9624 5.9792 2.8823 1.2572 0.76657 1.5945 1.7784 1.5945 2.637 0 1.6558-1.4105 3.4649-4.1701 3.4649-2.0851 0-3.7102-1.0425-4.5688-2.1157-0.092-0.12265-0.092-0.18398-0.092-0.30663 0-0.0613 0-0.2453-0.1226-0.30663l-1.2879 2.2077c1.5025 1.6251 3.6489 2.453 6.0099 2.453 4.6608 0 6.3779-3.1276 6.3779-5.5193 0-1.0119-0.3066-2.3304-1.5025-3.4649-1.6558-1.5638-4.3541-2.1157-6.1019-3.1276-1.5944-0.95055-1.9317-2.0851-1.9317-2.8516 0-1.4718 1.2571-2.7903 3.4342-2.7903 1.7784 0 3.1583 0.79723 3.8942 1.8704 0.092 0.12265 0.061 0.18398 0.061 0.30663 0 0.18397 0.092 0.2453 0.1533 0.2453z"/>
   <path d="m1198.2 586.87 2.8209 14.044h1.9931l2.453-9.0762 2.6064 9.0762h2.0544c0.9505-4.6301 1.7478-9.3215 2.3303-14.013h-2.0237c0.061 1.6864-0.092 3.2502-1.3185 11.223l-2.9436-9.9347h-1.3492l-2.4223 9.9654-2.0238-10.119c-0.061-0.21464-0.061-0.30662 0.031-0.55193 0.031-0.15331 0.1226-0.36795 0.031-0.61325z"/>
   <path d="m1227.2 593.95c0-4.8447-3.0663-7.3591-6.2552-7.3591-3.5569 0-6.6232 3.0663-6.6232 7.4204 0 4.2621 3.0356 7.2671 6.5618 7.2671 3.3116 0 6.3166-2.6677 6.3166-7.3284zm-6.4085-5.4886c2.0237 0 4.1701 1.7478 4.1701 5.5806 0 3.5262-2.0237 5.3047-4.0475 5.3047-2.2384 0-4.2621-2.0851-4.2621-5.55 0-3.4342 1.9931-5.3353 4.1395-5.3353z"/>
   <path d="m1231.4 586.9v14.013h2.2077v-6.8071c0-0.85856 0.031-1.7784 0.9812-3.2809 1.2879-2.0238 2.9437-2.361 3.9555-2.361 1.1652 0 1.9011 0.55193 2.2997 1.0425 0.184 0.2453 0.276 0.4906 0.5213 0.70524l1.0425-2.1157c-0.8892-0.91988-2.177-1.5331-3.7408-1.5331-2.0544 0-4.1395 1.0425-5.0594 3.0356l0.092-2.6983z"/>
   <path d="m1255.1 588.92c-0.6746-1.4412-2.1771-2.3917-4.1088-2.3917-2.6677 0-5.918 1.9011-5.918 7.2364 0 5.182 2.8823 7.4511 5.5807 7.4511 1.7784 0 3.4342-1.0119 4.3234-2.5757v1.2265c0 0.33729 0.031 0.67458 0.1227 1.0119h2.2077c-0.1227-0.39862-0.1227-0.85856-0.1227-1.2878l-0.031-18.214c0-0.18398 0-0.2453 0.1226-0.42928 0.061-0.092 0.184-0.2453 0.1533-0.45994h-2.3303zm-4.0169-0.58259c1.2266 0 3.0357 0.64392 3.5876 2.729 0.184 0.64392 0.2453 1.4105 0.2453 2.9743 0 1.0732-0.061 1.8398-0.3066 2.5757-0.5213 1.6558-1.9931 2.637-3.4343 2.637-1.5944 0-3.9555-1.2265-3.9555-5.8259 0-4.0168 2.2384-5.09 3.8635-5.09z"/>
  </g>
  <g transform="translate(7.8651 -138.47)" fill="#e9e56f" stroke-width="6.3446px" aria-label="Body">
   <path d="m1380.1 581.78v19.103h5.3966c1.2879 0 2.6064 0 3.9249-0.55193 2.0544-0.88923 3.1889-2.7596 3.1889-4.7221 0-2.2384-1.4411-4.2315-3.5569-4.9367 1.6865-0.70524 2.821-2.3917 2.821-4.2008 0-1.7171-0.9812-3.3729-2.7903-4.1395-1.1959-0.52127-2.3917-0.55193-3.5569-0.55193zm2.1157 1.8398h3.005c0.8279 0 1.6864 0 2.545 0.33729 1.2572 0.52127 1.9317 1.5945 1.9317 2.6983s-0.6439 2.1464-1.8397 2.6677c-0.8892 0.36795-1.8091 0.36795-2.6677 0.36795h-2.9743zm0 7.8803h3.1276c0.9506 0 1.9011 0.0307 2.8517 0.4906 1.4105 0.64392 2.177 2.0237 2.177 3.4036 0 1.3798-0.7359 2.637-2.0544 3.2502-0.8279 0.36796-1.6251 0.36796-2.453 0.36796h-3.6489z"/>
   <path d="m1408.1 593.95c0-4.8447-3.0662-7.3591-6.2552-7.3591-3.5568 0-6.6231 3.0663-6.6231 7.4204 0 4.2621 3.0356 7.2671 6.5618 7.2671 3.3116 0 6.3165-2.6677 6.3165-7.3284zm-6.4085-5.4886c2.0238 0 4.1702 1.7478 4.1702 5.5806 0 3.5262-2.0238 5.3047-4.0475 5.3047-2.2384 0-4.2622-2.0851-4.2622-5.55 0-3.4342 1.9931-5.3353 4.1395-5.3353z"/>
   <path d="m1420.7 588.92c-0.6745-1.4412-2.177-2.3917-4.1088-2.3917-2.6676 0-5.9179 1.9011-5.9179 7.2364 0 5.182 2.8823 7.4511 5.5806 7.4511 1.7785 0 3.4343-1.0119 4.3235-2.5757v1.2265c0 0.33729 0.031 0.67458 0.1226 1.0119h2.2078c-0.1227-0.39862-0.1227-0.85856-0.1227-1.2878l-0.031-18.214c0-0.18398 0-0.2453 0.1227-0.42928 0.061-0.092 0.184-0.2453 0.1533-0.45994h-2.3304zm-4.0168-0.58259c1.2265 0 3.0356 0.64392 3.5876 2.729 0.1839 0.64392 0.2453 1.4105 0.2453 2.9743 0 1.0732-0.061 1.8398-0.3067 2.5757-0.5212 1.6558-1.993 2.637-3.4342 2.637-1.5945 0-3.9555-1.2265-3.9555-5.8259 0-4.0168 2.2384-5.09 3.8635-5.09z"/>
   <path d="m1426 586.9 5.7032 13.952-0.4599 1.0119c-0.2453 0.5826-0.5213 1.1652-0.9505 1.6251-0.5826 0.64392-1.3185 0.91988-1.9625 0.91988-1.0425 0-1.5638-0.70524-1.6558-0.82789-0.092-0.15331-0.061-0.36795-0.2453-0.52127l-1.1345 1.9931c0.7973 0.76657 1.8704 1.1652 3.0356 1.1652 1.2572 0 2.5757-0.45994 3.4956-1.5025 0.6132-0.70524 0.9199-1.4412 1.2265-2.2384l4.3541-11.56c0.5213-1.3185 0.9812-2.6677 1.4105-4.0475h-2.2997c-0.2453 1.2878-0.6439 2.5144-1.0732 3.7409l-2.6677 7.5124-4.1088-10.333c-0.031-0.092-0.031-0.15331-0.031-0.2453 0-0.21464 0.1533-0.36795 0.1226-0.64392z"/>
  </g>
  <rect x="10.952" y="413.9" width="157.17" height="87.317" fill="#3b390d" fill-opacity=".38431" stroke="#e9e56f" stroke-width="1.9034"/>
 </g>
 <g>
  <g transform="translate(7.8651 -138.47)" fill="#e9e56f" stroke-width="6.3446px" aria-label="Bottom Part">
   <path d="m35.737 569.88v19.103h5.3966c1.2878 0 2.6063 0 3.9248-0.55193 2.0544-0.88922 3.1889-2.7596 3.1889-4.7221 0-2.2384-1.4412-4.2315-3.5569-4.9367 1.6865-0.70524 2.821-2.3917 2.821-4.2008 0-1.7171-0.98121-3.3729-2.7903-4.1395-1.1958-0.52127-2.3917-0.55193-3.5569-0.55193zm2.1157 1.8398h3.005c0.8279 0 1.6865 0 2.545 0.33729 1.2572 0.52126 1.9318 1.5945 1.9318 2.6983s-0.64392 2.1464-1.8398 2.6677c-0.88922 0.36796-1.8091 0.36796-2.6677 0.36796h-2.9743zm0 7.8803h3.1276c0.95055 0 1.9011 0.0307 2.8516 0.4906 1.4105 0.64392 2.1771 2.0238 2.1771 3.4036 0 1.3798-0.73591 2.637-2.0544 3.2503-0.82789 0.36795-1.6251 0.36795-2.453 0.36795h-3.6489z"/>
   <path d="m63.701 582.06c0-4.8447-3.0663-7.3591-6.2552-7.3591-3.5569 0-6.6232 3.0663-6.6232 7.4204 0 4.2621 3.0356 7.2671 6.5618 7.2671 3.3116 0 6.3165-2.6677 6.3165-7.3284zm-6.4085-5.4886c2.0237 0 4.1701 1.7478 4.1701 5.5806 0 3.5262-2.0237 5.3047-4.0475 5.3047-2.2384 0-4.2621-2.0851-4.2621-5.55 0-3.4342 1.9931-5.3353 4.1395-5.3353z"/>
   <path d="m70.692 571.23-0.27596 3.7715h-3.3422l-0.03066 1.8091h3.2809c-0.18398 2.3917-0.27596 4.7834-0.27596 7.1444 0 1.2572 0 2.6677 0.8279 3.8328 0.67458 0.91988 1.7478 1.4718 3.1889 1.4718 1.6558 0 3.2809-0.70524 4.4768-1.5638l-0.67458-1.7478c-1.1958 0.88922-2.2997 1.2878-3.1583 1.2878-1.0425 0-2.1157-0.58259-2.361-2.269 0-0.12265-0.09199-0.64391-0.09199-2.6983 0-1.8091 0.09199-3.6489 0.27596-5.458h4.5994v-1.8398h-4.5688s0.21464-2.5144 0.36795-3.3116c0.03066-0.30663 0.27596-0.4906 0.15331-0.82789z"/>
   <path d="m86.024 571.23-0.27596 3.7715h-3.3422l-0.03066 1.8091h3.2809c-0.18398 2.3917-0.27596 4.7834-0.27596 7.1444 0 1.2572 0 2.6677 0.8279 3.8328 0.67458 0.91988 1.7478 1.4718 3.1889 1.4718 1.6558 0 3.2809-0.70524 4.4768-1.5638l-0.67458-1.7478c-1.1958 0.88922-2.2997 1.2878-3.1583 1.2878-1.0425 0-2.1157-0.58259-2.361-2.269 0-0.12265-0.09199-0.64391-0.09199-2.6983 0-1.8091 0.09199-3.6489 0.27596-5.458h4.5994v-1.8398h-4.5688s0.21464-2.5144 0.36795-3.3116c0.03066-0.30663 0.27596-0.4906 0.15331-0.82789z"/>
   <path d="m109.7 582.06c0-4.8447-3.0663-7.3591-6.2552-7.3591-3.5569 0-6.6232 3.0663-6.6232 7.4204 0 4.2621 3.0356 7.2671 6.5618 7.2671 3.3116 0 6.3165-2.6677 6.3165-7.3284zm-6.4085-5.4886c2.0237 0 4.1701 1.7478 4.1701 5.5806 0 3.5262-2.0238 5.3047-4.0475 5.3047-2.2384 0-4.2621-2.0851-4.2621-5.55 0-3.4342 1.9931-5.3353 4.1395-5.3353z"/>
   <path d="m112.06 588.99h2.0237v-9.3215c0-0.67459 0.0613-1.2878 0.45994-2.0238 0.4906-0.91988 1.1039-1.2878 1.6864-1.2878 0.49061 0 1.0425 0.30662 1.2878 1.0732 0.18398 0.5826 0.15331 1.2572 0.15331 1.8398v9.7201h2.0544v-9.2602c0-0.73591 0.0613-1.3185 0.58259-2.2077 0.2453-0.36795 0.76657-1.2572 1.6251-1.2572 0.45994 0 0.88922 0.27596 1.1039 0.79723 0.27596 0.58259 0.21464 1.3798 0.21464 2.0237v9.9347h2.0851v-9.9654c0-1.1652 0.0307-2.3304-0.5826-3.2809-0.52126-0.79723-1.4105-1.1039-2.177-1.1039-1.3492 0-2.6063 0.79724-3.1583 2.0238-0.21464-1.1652-1.1958-2.0238-2.453-2.0238-1.1652 0-2.2384 0.73591-2.8823 1.7171l0.0307-1.3798h-2.0544z"/>
   <path d="m36.043 608.21v19.103h2.2384v-8.4323h3.7409c1.1958 0 2.3304-0.0307 3.4956-0.61325 1.7784-0.88922 2.6983-2.729 2.6983-4.6608 0-1.9318-0.91988-3.8022-2.729-4.7221-1.1958-0.64392-2.3917-0.67458-3.6182-0.67458zm2.2384 2.0237h3.5875c0.79723 0 1.5638 0.0307 2.361 0.39862 1.1652 0.61325 1.8091 1.8398 1.8091 3.0663s-0.61326 2.361-1.7171 2.913c-0.73591 0.36795-1.4718 0.39861-2.2077 0.39861h-3.8635z"/>
   <path d="m52.356 614.96 1.0732 1.4105c1.1652-1.1958 2.729-1.5638 4.0475-1.5638 1.6558 0 2.4837 0.70525 2.8823 1.3492 0.45994 0.76656 0.42928 1.6864 0.42928 2.4224v0.49061h-0.42928c-2.0851 0-4.2928 0-6.0712 0.64392-2.2077 0.79723-3.1889 2.453-3.1889 3.9862 0 2.0544 1.7784 3.9862 4.6914 3.9862 1.7171 0 3.4956-0.64392 5.0287-1.9011v1.5331h2.0851v-8.6776c0-1.1345-0.03066-2.2077-0.67458-3.3116-0.91988-1.5025-2.6983-2.2997-4.8754-2.2997-1.8704 0-3.6795 0.58259-4.998 1.9318zm8.5243 5.7953v0.95055c0 0.70524 0 1.6251-0.95055 2.637-0.52127 0.52126-1.8398 1.6558-3.6795 1.6558-1.8704 0-2.9436-1.1958-2.9436-2.4224 0-1.0425 0.70524-2.1771 2.453-2.6063 1.2878-0.30663 3.1583-0.21464 4.6301-0.21464z"/>
   <path d="m67.963 613.33v14.013h2.2077v-6.8071c0-0.85856 0.03066-1.7784 0.98121-3.2809 1.2878-2.0237 2.9436-2.361 3.9555-2.361 1.1652 0 1.9011 0.55193 2.2997 1.0425 0.18398 0.2453 0.27596 0.4906 0.52127 0.70524l1.0425-2.1157c-0.88922-0.91989-2.1771-1.5331-3.7409-1.5331-2.0544 0-4.1395 1.0425-5.0594 3.0356l0.09199-2.6983z"/>
   <path d="m86.024 609.56-0.27596 3.7715h-3.3422l-0.03066 1.8091h3.2809c-0.18398 2.3917-0.27596 4.7834-0.27596 7.1444 0 1.2572 0 2.6677 0.8279 3.8328 0.67458 0.91988 1.7478 1.4718 3.1889 1.4718 1.6558 0 3.2809-0.70524 4.4768-1.5638l-0.67458-1.7478c-1.1958 0.88922-2.2997 1.2878-3.1583 1.2878-1.0425 0-2.1157-0.5826-2.361-2.269 0-0.12265-0.09199-0.64392-0.09199-2.6983 0-1.8091 0.09199-3.6489 0.27596-5.458h4.5994v-1.8398h-4.5688s0.21464-2.5144 0.36795-3.3116c0.03066-0.30663 0.27596-0.49061 0.15331-0.8279z"/>
  </g>
  <g transform="translate(7.8651 -138.47)" fill="#e9e56f" stroke-width="6.3446px" aria-label="Grass Surface">
   <path d="m221.2 569.7c-2.545 0-7.3897 1.5945-7.3897 9.9654 0 7.2364 4.0475 9.6281 7.3591 9.6281 1.7784 0 3.8328-0.64392 5.6113-1.9931v-7.4511h-5.4273v1.8398h3.4649v4.5688c-1.0732 0.76657-2.2997 1.1652-3.4342 1.1652-1.2572 0-2.6063-0.49061-3.6489-1.6865-1.5945-1.8091-1.8091-4.5074-1.8091-6.5005 0-1.7784 0.21464-3.4956 0.95055-4.906 0.98121-1.8704 2.6983-2.729 4.2928-2.729 1.7171 0 3.0663 0.95054 3.6489 2.2384 0.092 0.21464 0.18398 0.45994 0.42928 0.61325l1.5025-1.5331c-1.1039-1.9931-3.1889-3.2196-5.55-3.2196z"/>
   <path d="m231.07 575v14.013h2.2077v-6.8071c0-0.85856 0.0307-1.7784 0.98121-3.2809 1.2878-2.0237 2.9436-2.361 3.9555-2.361 1.1652 0 1.9011 0.55192 2.2997 1.0425 0.18398 0.2453 0.27597 0.4906 0.52127 0.70524l1.0425-2.1157c-0.88922-0.91988-2.1771-1.5331-3.7409-1.5331-2.0544 0-4.1395 1.0425-5.0594 3.0356l0.092-2.6983z"/>
   <path d="m246.13 576.63 1.0732 1.4105c1.1652-1.1958 2.729-1.5638 4.0475-1.5638 1.6558 0 2.4837 0.70524 2.8823 1.3492 0.45994 0.76657 0.42927 1.6864 0.42927 2.4224v0.4906h-0.42927c-2.0851 0-4.2928 0-6.0712 0.64392-2.2077 0.79723-3.1889 2.453-3.1889 3.9862 0 2.0544 1.7784 3.9862 4.6914 3.9862 1.7171 0 3.4956-0.64392 5.0287-1.9011v1.5331h2.0851v-8.6776c0-1.1345-0.0307-2.2077-0.67459-3.3116-0.91988-1.5025-2.6983-2.2997-4.8754-2.2997-1.8704 0-3.6795 0.58259-4.998 1.9318zm8.5242 5.7953v0.95055c0 0.70524 0 1.6251-0.95054 2.637-0.52127 0.52127-1.8398 1.6558-3.6795 1.6558-1.8704 0-2.9436-1.1958-2.9436-2.4224 0-1.0425 0.70524-2.1771 2.453-2.6063 1.2878-0.30662 3.1583-0.21464 4.6301-0.21464z"/>
   <path d="m271.95 576.84c-1.2878-1.4105-3.1583-2.1771-5.2433-2.1771-3.2502 0-5.366 1.8091-5.366 3.8942 0 2.453 2.637 3.3422 3.4036 3.6182 1.1958 0.42928 2.729 0.79723 3.7715 1.2878 1.1652 0.55193 1.3798 1.2878 1.3798 1.7784 0 1.3185-1.5945 2.2077-3.5875 2.2077-2.3917 0-3.9248-1.4412-4.3848-1.9318-0.092-0.12265-0.092-0.21463-0.092-0.33729 0-0.0307 0.0307-0.21464-0.12265-0.27596l-1.2878 2.1771c1.6558 1.5331 3.8022 2.2384 5.9179 2.2384 3.8328 0 5.8259-2.269 5.8259-4.3848 0-0.95054-0.39862-2.2384-2.0544-3.1583-1.5638-0.88922-3.8328-1.1958-5.1514-1.8398-1.1345-0.55193-1.3798-1.2265-1.3798-1.7171 0-1.1039 1.3798-1.9011 2.9436-1.9011 2.0237 0 3.3729 1.2265 3.8942 1.9318 0.092 0.092 0.0613 0.18397 0.0613 0.27596 0 0.18398 0.12265 0.2453 0.18398 0.2453z"/>
   <path d="m287.28 576.84c-1.2878-1.4105-3.1583-2.1771-5.2433-2.1771-3.2502 0-5.366 1.8091-5.366 3.8942 0 2.453 2.637 3.3422 3.4036 3.6182 1.1958 0.42928 2.729 0.79723 3.7715 1.2878 1.1652 0.55193 1.3798 1.2878 1.3798 1.7784 0 1.3185-1.5945 2.2077-3.5876 2.2077-2.3917 0-3.9248-1.4412-4.3848-1.9318-0.092-0.12265-0.092-0.21463-0.092-0.33729 0-0.0307 0.0307-0.21464-0.12265-0.27596l-1.2878 2.1771c1.6558 1.5331 3.8022 2.2384 5.9179 2.2384 3.8328 0 5.8259-2.269 5.8259-4.3848 0-0.95054-0.39861-2.2384-2.0544-3.1583-1.5638-0.88922-3.8328-1.1958-5.1514-1.8398-1.1345-0.55193-1.3798-1.2265-1.3798-1.7171 0-1.1039 1.3798-1.9011 2.9436-1.9011 2.0238 0 3.3729 1.2265 3.8942 1.9318 0.092 0.092 0.0613 0.18397 0.0613 0.27596 0 0.18398 0.12265 0.2453 0.18398 0.2453z"/>
   <path d="m226.01 610.51c-1.2878-1.5638-3.1889-2.3917-5.274-2.3917-3.4649 0-5.8259 2.269-5.8259 4.906 0 1.1039 0.42928 2.545 2.0237 3.7102 1.7784 1.3185 4.5381 1.9624 5.9792 2.8823 1.2572 0.76657 1.5945 1.7784 1.5945 2.637 0 1.6558-1.4105 3.4649-4.1701 3.4649-2.0851 0-3.7102-1.0425-4.5688-2.1157-0.092-0.12265-0.092-0.18398-0.092-0.30663 0-0.0613 0-0.2453-0.12265-0.30663l-1.2878 2.2077c1.5025 1.6251 3.6489 2.453 6.0099 2.453 4.6608 0 6.3779-3.1276 6.3779-5.5193 0-1.0119-0.30663-2.3304-1.5025-3.4649-1.6558-1.5638-4.3541-2.1157-6.1019-3.1276-1.5945-0.95055-1.9318-2.0851-1.9318-2.8516 0-1.4718 1.2572-2.7903 3.4342-2.7903 1.7784 0 3.1583 0.79723 3.8942 1.8704 0.092 0.12265 0.0613 0.18398 0.0613 0.30663 0 0.18397 0.092 0.2453 0.15331 0.2453z"/>
   <path d="m229.94 613.33v7.819c0 1.1958 0 2.4224 0.55193 3.6795 0.79723 1.8398 2.5143 2.8516 4.3541 2.8516 1.7478 0 3.4036-0.95055 4.3234-2.4837l-0.0307 1.0425c0 0.36795 0 0.7359 0.0613 1.0732h2.3304c-0.15332-0.39861-0.18398-0.85855-0.18398-1.2572v-12.725h-2.2077v7.6964c0 1.0732-0.092 1.9011-0.55193 2.7596-0.64392 1.1958-1.9011 2.0851-3.2502 2.0851-1.0732 0-2.1157-0.61325-2.6677-1.7171-0.4906-0.98121-0.4906-2.0851-0.4906-3.005v-7.819z"/>
   <path d="m246.4 613.33v14.013h2.2077v-6.8071c0-0.85856 0.0307-1.7784 0.98121-3.2809 1.2878-2.0237 2.9436-2.361 3.9555-2.361 1.1652 0 1.9011 0.55193 2.2997 1.0425 0.18398 0.2453 0.27597 0.4906 0.52127 0.70524l1.0425-2.1157c-0.88922-0.91989-2.177-1.5331-3.7409-1.5331-2.0544 0-4.1395 1.0425-5.0594 3.0356l0.092-2.6983z"/>
   <path d="m269.22 606.77c-1.9624 0-3.8022 0.82789-4.7834 2.4224-0.73591 1.1652-0.76657 2.3304-0.76657 3.5875v1.3798h-3.0663v1.7478h3.0663v11.407h2.1157v-11.407h4.5688v-1.7478h-4.5688v-1.1038c0-1.0119-0.0307-2.0851 0.4906-3.005 0.5826-1.0425 1.6865-1.5638 2.821-1.5638 1.3492 0 2.4837 0.70525 3.0663 1.5945 0.092 0.15331 0.092 0.2453 0.092 0.36795 0 0.21464 0.15332 0.27596 0.24531 0.27596l1.0119-2.0544c-1.0119-1.1958-2.545-1.9011-4.2928-1.9011z"/>
   <path d="m276.79 614.96 1.0732 1.4105c1.1652-1.1958 2.729-1.5638 4.0475-1.5638 1.6558 0 2.4837 0.70525 2.8823 1.3492 0.45994 0.76656 0.42928 1.6864 0.42928 2.4224v0.49061h-0.42928c-2.0851 0-4.2928 0-6.0712 0.64392-2.2077 0.79723-3.1889 2.453-3.1889 3.9862 0 2.0544 1.7784 3.9862 4.6914 3.9862 1.7171 0 3.4956-0.64392 5.0287-1.9011v1.5331h2.0851v-8.6776c0-1.1345-0.0307-2.2077-0.67458-3.3116-0.91989-1.5025-2.6983-2.2997-4.8754-2.2997-1.8704 0-3.6795 0.58259-4.998 1.9318zm8.5242 5.7953v0.95055c0 0.70524 0 1.6251-0.95055 2.637-0.52127 0.52126-1.8398 1.6558-3.6795 1.6558-1.8704 0-2.9436-1.1958-2.9436-2.4224 0-1.0425 0.70524-2.1771 2.453-2.6063 1.2878-0.30663 3.1583-0.21464 4.6301-0.21464z"/>
   <path d="m303.34 615.63c-1.1039-1.6251-2.9743-2.6063-5.2433-2.6063-4.1088 0-7.0218 3.0969-7.0218 7.2977 0 4.2315 2.913 7.3591 6.8991 7.3591 1.9318 0 3.8328-0.79723 5.1513-2.2384l-1.2572-1.4718c-0.95055 1.0732-2.3304 1.6864-3.7102 1.6864-2.729 0-4.814-2.269-4.814-5.55 0-3.1889 2.0544-5.182 4.6301-5.182 2.3917 0 3.5262 1.6558 3.6182 1.8398 0.12265 0.21464-0.0613 0.52127 0.18398 0.70524z"/>
   <path d="m312.6 613c-3.3422 0-6.4392 2.3917-6.4392 7.4817 0 4.6914 2.913 7.1751 6.7152 7.1751 2.0237 0 3.8328-0.73591 5.0287-2.1771l-1.2265-1.1958c-0.88922 1.0425-2.2384 1.5945-3.6182 1.5945-1.8704 0-4.5994-1.0425-4.7527-5.2433h9.9347c0.092-0.95055 0.0613-1.8704-0.092-2.6677-0.64392-3.7715-3.2503-4.9674-5.55-4.9674zm-4.2315 5.9486c0.45994-3.3116 2.5757-4.2621 4.0782-4.2621 2.269 0 3.8942 1.9931 3.6182 4.2621z"/>
  </g>
  <path d="m1326.9 319.53v44.412" fill="none" stroke="#b62a2a" stroke-width="6.3446"/>
  <g transform="translate(7.8651 -138.47)" fill="#e9e56f" stroke-width="6.3446px" aria-label="Particle Emitter">
   <path d="m496.99 385.24v19.103h2.2384v-8.4323h3.7408c1.1958 0 2.3304-0.0307 3.4956-0.61326 1.7784-0.88922 2.6983-2.729 2.6983-4.6607 0-1.9318-0.91988-3.8022-2.729-4.7221-1.1958-0.64392-2.3917-0.67458-3.6182-0.67458zm2.2384 2.0237h3.5875c0.79723 0 1.5638 0.0307 2.361 0.39862 1.1652 0.61326 1.8091 1.8398 1.8091 3.0663s-0.61326 2.361-1.7171 2.913c-0.73591 0.36795-1.4718 0.39862-2.2077 0.39862h-3.8635z"/>
   <path d="m513.3 391.98 1.0732 1.4105c1.1652-1.1958 2.729-1.5638 4.0475-1.5638 1.6558 0 2.4837 0.70524 2.8823 1.3492 0.45994 0.76657 0.42928 1.6864 0.42928 2.4224v0.4906h-0.42928c-2.0851 0-4.2928 0-6.0712 0.64392-2.2077 0.79723-3.1889 2.453-3.1889 3.9862 0 2.0544 1.7784 3.9862 4.6914 3.9862 1.7171 0 3.4956-0.64392 5.0287-1.9011v1.5331h2.0851v-8.6776c0-1.1345-0.0307-2.2077-0.67458-3.3116-0.91988-1.5025-2.6983-2.2997-4.8754-2.2997-1.8704 0-3.6795 0.58259-4.998 1.9318zm8.5242 5.7953v0.95054c0 0.70525 0 1.6251-0.95055 2.637-0.52126 0.52127-1.8398 1.6558-3.6795 1.6558-1.8704 0-2.9436-1.1958-2.9436-2.4224 0-1.0425 0.70525-2.1771 2.453-2.6063 1.2878-0.30663 3.1583-0.21464 4.6301-0.21464z"/>
   <path d="m528.91 390.36v14.013h2.2077v-6.8071c0-0.85856 0.0307-1.7784 0.98121-3.2809 1.2878-2.0237 2.9436-2.361 3.9555-2.361 1.1652 0 1.9011 0.55193 2.2997 1.0425 0.18398 0.2453 0.27597 0.4906 0.52127 0.70524l1.0425-2.1157c-0.88923-0.91988-2.1771-1.5331-3.7409-1.5331-2.0544 0-4.1395 1.0425-5.0594 3.0356l0.092-2.6983z"/>
   <path d="m546.97 386.59-0.27596 3.7715h-3.3422l-0.0307 1.8091h3.2809c-0.18398 2.3917-0.27597 4.7834-0.27597 7.1444 0 1.2572 0 2.6677 0.8279 3.8328 0.67458 0.91988 1.7478 1.4718 3.1889 1.4718 1.6558 0 3.2809-0.70524 4.4768-1.5638l-0.67458-1.7478c-1.1958 0.88923-2.2997 1.2878-3.1583 1.2878-1.0425 0-2.1157-0.58259-2.361-2.269 0-0.12266-0.092-0.64392-0.092-2.6983 0-1.8091 0.092-3.6489 0.27597-5.458h4.5994v-1.8398h-4.5688s0.21464-2.5144 0.36796-3.3116c0.0307-0.30663 0.27596-0.4906 0.15331-0.82789z"/>
   <path d="m559.78 390.33v1.8091h3.3729v10.456h-3.5569v1.7478h9.0762v-1.7478h-3.2809v-12.265zm4.5381-6.0712c-0.88922 0-1.5945 0.70525-1.5945 1.5638 0 0.85856 0.70524 1.5638 1.5945 1.5638s1.5945-0.70525 1.5945-1.5638c0-0.85855-0.70525-1.5638-1.5945-1.5638z"/>
   <path d="m585.85 392.66c-1.1039-1.6251-2.9743-2.6063-5.2433-2.6063-4.1088 0-7.0218 3.0969-7.0218 7.2977 0 4.2315 2.913 7.3591 6.8991 7.3591 1.9318 0 3.8328-0.79723 5.1513-2.2384l-1.2572-1.4718c-0.95055 1.0732-2.3304 1.6864-3.7102 1.6864-2.729 0-4.814-2.269-4.814-5.55 0-3.1889 2.0544-5.182 4.6301-5.182 2.3917 0 3.5262 1.6558 3.6182 1.8398 0.12265 0.21463-0.0613 0.52126 0.18397 0.70524z"/>
   <path d="m589.77 383.98v1.7784h3.9862v16.834h-4.1701v1.7478h10.517v-1.7478h-4.1395v-18.612z"/>
   <path d="m610.44 390.02c-3.3422 0-6.4392 2.3917-6.4392 7.4817 0 4.6914 2.913 7.1751 6.7151 7.1751 2.0238 0 3.8328-0.73591 5.0287-2.1771l-1.2265-1.1958c-0.88922 1.0425-2.2384 1.5945-3.6182 1.5945-1.8704 0-4.5994-1.0425-4.7527-5.2433h9.9347c0.092-0.95054 0.0613-1.8704-0.092-2.6677-0.64392-3.7715-3.2502-4.9674-5.55-4.9674zm-4.2315 5.9486c0.45994-3.3116 2.5757-4.2621 4.0782-4.2621 2.269 0 3.8942 1.9931 3.6182 4.2621z"/>
   <path d="m496.99 423.57v19.103h11.652v-1.9011h-9.5974v-7.0831h7.9723v-1.9624h-7.9723v-6.2552h9.6588v-1.9011z"/>
   <path d="m511.67 442.67h2.0237v-9.3215c0-0.67458 0.0613-1.2878 0.45995-2.0237 0.4906-0.91988 1.1039-1.2878 1.6864-1.2878 0.4906 0 1.0425 0.30663 1.2878 1.0732 0.18398 0.58259 0.15332 1.2572 0.15332 1.8398v9.7201h2.0544v-9.2602c0-0.73591 0.0613-1.3185 0.5826-2.2077 0.2453-0.36795 0.76657-1.2572 1.6251-1.2572 0.45995 0 0.88922 0.27597 1.1039 0.79724 0.27597 0.58259 0.21464 1.3798 0.21464 2.0237v9.9347h2.0851v-9.9654c0-1.1652 0.0307-2.3304-0.58259-3.2809-0.52127-0.79723-1.4105-1.1039-2.1771-1.1039-1.3492 0-2.6063 0.79723-3.1583 2.0237-0.21464-1.1652-1.1958-2.0237-2.453-2.0237-1.1652 0-2.2384 0.73591-2.8823 1.7171l0.0307-1.3798h-2.0544z"/>
   <path d="m529.12 428.66v1.8091h3.3729v10.456h-3.5569v1.7478h9.0762v-1.7478h-3.2809v-12.265zm4.5381-6.0712c-0.88922 0-1.5945 0.70524-1.5945 1.5638s0.70524 1.5638 1.5945 1.5638 1.5945-0.70524 1.5945-1.5638-0.70524-1.5638-1.5945-1.5638z"/>
   <path d="m546.97 424.92-0.27596 3.7715h-3.3422l-0.0307 1.8091h3.2809c-0.18398 2.3917-0.27597 4.7834-0.27597 7.1444 0 1.2572 0 2.6677 0.8279 3.8328 0.67458 0.91988 1.7478 1.4718 3.1889 1.4718 1.6558 0 3.2809-0.70524 4.4768-1.5638l-0.67458-1.7478c-1.1958 0.88922-2.2997 1.2878-3.1583 1.2878-1.0425 0-2.1157-0.5826-2.361-2.269 0-0.12265-0.092-0.64392-0.092-2.6983 0-1.8091 0.092-3.6489 0.27597-5.458h4.5994v-1.8398h-4.5688s0.21464-2.5144 0.36796-3.3116c0.0307-0.30663 0.27596-0.49061 0.15331-0.8279z"/>
   <path d="m562.3 424.92-0.27597 3.7715h-3.3422l-0.0307 1.8091h3.2809c-0.18398 2.3917-0.27597 4.7834-0.27597 7.1444 0 1.2572 0 2.6677 0.8279 3.8328 0.67458 0.91988 1.7478 1.4718 3.1889 1.4718 1.6558 0 3.2809-0.70524 4.4768-1.5638l-0.67458-1.7478c-1.1958 0.88922-2.2997 1.2878-3.1583 1.2878-1.0425 0-2.1157-0.5826-2.361-2.269 0-0.12265-0.092-0.64392-0.092-2.6983 0-1.8091 0.092-3.6489 0.27597-5.458h4.5994v-1.8398h-4.5688s0.21464-2.5144 0.36795-3.3116c0.0307-0.30663 0.27597-0.49061 0.15332-0.8279z"/>
   <path d="m579.78 428.35c-3.3422 0-6.4392 2.3917-6.4392 7.4817 0 4.6914 2.913 7.1751 6.7152 7.1751 2.0237 0 3.8328-0.73591 5.0287-2.1771l-1.2265-1.1958c-0.88922 1.0425-2.2384 1.5945-3.6182 1.5945-1.8704 0-4.5994-1.0425-4.7527-5.2433h9.9347c0.092-0.95054 0.0613-1.8704-0.092-2.6677-0.64392-3.7715-3.2503-4.9674-5.55-4.9674zm-4.2315 5.9486c0.45994-3.3116 2.5757-4.2621 4.0782-4.2621 2.269 0 3.8942 1.9931 3.6182 4.2621z"/>
   <path d="m590.23 428.69v14.013h2.2077v-6.8071c0-0.85855 0.0307-1.7784 0.9812-3.2809 1.2878-2.0238 2.9436-2.361 3.9555-2.361 1.1652 0 1.9011 0.55193 2.2997 1.0425 0.18398 0.2453 0.27596 0.4906 0.52127 0.70524l1.0425-2.1157c-0.88922-0.91988-2.1771-1.5331-3.7409-1.5331-2.0544 0-4.1395 1.0425-5.0594 3.0356l0.092-2.6983z"/>
  </g>
  <g transform="translate(7.8651 -138.47)" fill="#e9e56f" stroke-width="6.3446px" aria-label="Smoke">
   <path d="m910.01 401.66c-1.2878-1.5638-3.1889-2.3917-5.274-2.3917-3.4649 0-5.8259 2.269-5.8259 4.906 0 1.1039 0.42928 2.545 2.0237 3.7102 1.7784 1.3185 4.5381 1.9624 5.9792 2.8823 1.2572 0.76657 1.5945 1.7784 1.5945 2.637 0 1.6558-1.4105 3.4649-4.1701 3.4649-2.0851 0-3.7102-1.0425-4.5688-2.1157-0.092-0.12265-0.092-0.18398-0.092-0.30663 0-0.0613 0-0.2453-0.12265-0.30663l-1.2878 2.2077c1.5025 1.6251 3.6489 2.453 6.0099 2.453 4.6608 0 6.3779-3.1276 6.3779-5.5193 0-1.0119-0.30663-2.3304-1.5025-3.4649-1.6558-1.5638-4.3541-2.1157-6.1019-3.1276-1.5945-0.95055-1.9318-2.0851-1.9318-2.8516 0-1.4718 1.2572-2.7903 3.4342-2.7903 1.7784 0 3.1583 0.79723 3.8942 1.8704 0.092 0.12265 0.0613 0.18397 0.0613 0.30663 0 0.18397 0.092 0.2453 0.15331 0.2453z"/>
   <path d="m913.17 418.47h2.0237v-9.3215c0-0.67458 0.0613-1.2878 0.45994-2.0237 0.49061-0.91989 1.1039-1.2878 1.6865-1.2878 0.4906 0 1.0425 0.30663 1.2878 1.0732 0.18398 0.58259 0.15332 1.2572 0.15332 1.8398v9.7201h2.0544v-9.2602c0-0.73591 0.0613-1.3185 0.58259-2.2077 0.24531-0.36796 0.76657-1.2572 1.6251-1.2572 0.45994 0 0.88922 0.27597 1.1039 0.79724 0.27597 0.58259 0.21464 1.3798 0.21464 2.0237v9.9347h2.0851v-9.9654c0-1.1652 0.0307-2.3304-0.58259-3.2809-0.52127-0.79723-1.4105-1.1039-2.1771-1.1039-1.3492 0-2.6063 0.79723-3.1583 2.0237-0.21463-1.1652-1.1958-2.0237-2.453-2.0237-1.1652 0-2.2384 0.73591-2.8823 1.7171l0.0307-1.3798h-2.0544z"/>
   <path d="m941.47 411.54c0-4.8447-3.0663-7.3591-6.2552-7.3591-3.5569 0-6.6232 3.0663-6.6232 7.4204 0 4.2621 3.0356 7.2671 6.5618 7.2671 3.3116 0 6.3165-2.6677 6.3165-7.3284zm-6.4085-5.4886c2.0237 0 4.1701 1.7478 4.1701 5.5806 0 3.5262-2.0238 5.3047-4.0475 5.3047-2.2384 0-4.2621-2.0851-4.2621-5.55 0-3.4342 1.9931-5.3353 4.1395-5.3353z"/>
   <path d="m944.72 398.11v20.391h2.2077v-5.3047l1.8704-1.7171 5.7033 7.1444s1.1958-0.12265 2.637-0.12265h0.21464l-6.8685-8.3709 5.9179-5.55h-0.79723c-0.55193 0-1.1039-0.0307-1.6558-0.18398l-7.0218 6.5312v-12.02c0-0.12265 0.0307-0.21463 0.12265-0.36795 0.092-0.092 0.21464-0.21464 0.18398-0.42928z"/>
   <path d="m965.94 404.15c-3.3422 0-6.4392 2.3917-6.4392 7.4817 0 4.6914 2.913 7.1751 6.7152 7.1751 2.0237 0 3.8328-0.7359 5.0287-2.177l-1.2265-1.1958c-0.88922 1.0425-2.2384 1.5945-3.6182 1.5945-1.8704 0-4.5994-1.0425-4.7527-5.2433h9.9347c0.092-0.95055 0.0613-1.8704-0.092-2.6677-0.64391-3.7715-3.2502-4.9674-5.55-4.9674zm-4.2315 5.9486c0.45994-3.3116 2.5757-4.2621 4.0782-4.2621 2.269 0 3.8942 1.9931 3.6182 4.2621z"/>
  </g>
 </g>
</svg>
