<svg width="146.84mm" height="75.251mm" version="1.1" viewBox="0 0 146.84 75.251" xmlns="http://www.w3.org/2000/svg">
 <g transform="translate(-110.37 -155.13)">
  <circle cx="134.36" cy="179.12" r="23.994" fill="#2f3744" fill-opacity=".6215"/>
  <circle cx="223.02" cy="196.19" r="34.193" fill="#2f3744" fill-opacity=".6215"/>
  <g fill="#e8eaec" stroke-linecap="round" stroke-width=".26458">
   <g aria-label="player">
    <path d="m116.21 179.62c0.14817 0.1397 0.3175 0.22013 0.49953 0.22013 0.45297 0 0.88477-0.41487 0.88477-1.1345 0-0.6477-0.31327-1.0668-0.82127-1.0668-0.22013 0-0.4318 0.11006-0.5969 0.25823h-0.0169l-0.0423-0.20743h-0.508v2.8787h0.6223v-0.61383zm0.0212-0.42334v-0.85936c0.12276-0.13124 0.23283-0.1905 0.35983-0.1905 0.24977 0 0.36407 0.1905 0.36407 0.56726 0 0.4318-0.17357 0.61807-0.38947 0.61807-0.10583 0-0.22437-0.0339-0.33443-0.13547z"/>
    <path d="m118.03 179.14c0 0.42333 0.14393 0.70273 0.5715 0.70273 0.1397 0 0.24553-0.0212 0.31327-0.0508l-0.0762-0.46143c-0.0339 8e-3 -0.0508 8e-3 -0.0762 8e-3 -0.0508 0-0.11007-0.0423-0.11007-0.17356v-2.341h-0.6223z"/>
    <path d="m119.16 179.21c0 0.3556 0.2413 0.635 0.6223 0.635 0.23707 0 0.43603-0.11007 0.61383-0.2667h0.0127l0.0466 0.2159h0.508v-1.2023c0-0.64346-0.29633-0.94826-0.83397-0.94826-0.3302 0-0.63076 0.1143-0.89746 0.27516l0.22013 0.41064c0.2032-0.11854 0.381-0.1905 0.5588-0.1905 0.22437 0 0.3175 0.11853 0.3302 0.3048-0.82973 0.0847-1.1811 0.32596-1.1811 0.76623zm0.59267-0.0466c0-0.16086 0.14393-0.28786 0.58843-0.34713v0.3683c-0.11007 0.11007-0.2032 0.1778-0.34713 0.1778-0.14817 0-0.2413-0.0635-0.2413-0.19897z"/>
    <path d="m121.54 180.1-0.11006 0.47413c0.0847 0.0254 0.16933 0.0423 0.29633 0.0423 0.4953 0 0.71967-0.27094 0.91863-0.8001l0.72814-2.1209h-0.5969l-0.254 0.9017c-0.0508 0.19896-0.0974 0.39793-0.14394 0.5969h-0.0169c-0.055-0.20744-0.10583-0.4064-0.1651-0.5969l-0.30057-0.9017h-0.62653l0.80857 2.0447-0.0296 0.11006c-0.055 0.1651-0.16086 0.27517-0.3683 0.27517-0.0466 0-0.1016-0.0169-0.1397-0.0254z"/>
    <path d="m123.55 178.74c0 0.69427 0.46144 1.1007 1.0626 1.1007 0.24977 0 0.52917-0.0889 0.74507-0.23707l-0.20744-0.37676c-0.1524 0.0931-0.29633 0.1397-0.45296 0.1397-0.2794 0-0.49107-0.1397-0.5461-0.4572h1.2573c0.0127-0.0508 0.0254-0.1524 0.0254-0.26247 0-0.5715-0.29634-1.0075-0.89324-1.0075-0.50376 0-0.9906 0.4191-0.9906 1.1007zm0.5969-0.2159c0.0423-0.2794 0.21167-0.41063 0.4064-0.41063 0.24977 0 0.35137 0.16933 0.35137 0.41063z"/>
    <path d="m125.86 179.79h0.6223v-1.2192c0.11007-0.28363 0.3048-0.38523 0.46143-0.38523 0.0889 0 0.1524 0.0127 0.2286 0.0339l0.1016-0.53763c-0.0593-0.0254-0.13123-0.0423-0.24976-0.0423-0.2159 0-0.4445 0.13546-0.5969 0.4191h-0.0169l-0.0423-0.3683h-0.508z"/>
   </g>
   <g transform="scale(.99364 1.0064)" aria-label="full simulation">
    <path d="m120.08 162.47c-0.11322-0.0412-0.2985-0.0926-0.5095-0.0926-0.68963 0-0.94181 0.4426-0.94181 0.98298v0.13895l-0.33966 0.0257v0.56096h0.33966v1.9608h0.75653v-1.9608h0.45804v-0.59184h-0.45804v-0.1544c0-0.26247 0.10808-0.3654 0.29335-0.3654 0.0824 0 0.17498 0.0206 0.26247 0.0515z"/>
    <path d="m120.22 165.08c0 0.63816 0.23674 1.0293 0.79256 1.0293 0.34996 0 0.5867-0.15954 0.80285-0.41686h0.0154l0.0566 0.3551h0.61758v-2.5526h-0.75654v1.688c-0.14924 0.20071-0.26247 0.28305-0.45289 0.28305-0.22129 0-0.31908-0.11836-0.31908-0.48376v-1.4873h-0.75653z"/>
    <path d="m123.17 165.25c0 0.51465 0.17498 0.85431 0.69477 0.85431 0.16984 0 0.2985-0.0257 0.38084-0.0618l-0.0926-0.56096c-0.0412 0.0103-0.0618 0.0103-0.0926 0.0103-0.0618 0-0.13381-0.0515-0.13381-0.211v-2.846h-0.75653z"/>
    <path d="m124.64 165.25c0 0.51465 0.17498 0.85431 0.69477 0.85431 0.16983 0 0.2985-0.0257 0.38084-0.0618l-0.0926-0.56096c-0.0412 0.0103-0.0618 0.0103-0.0926 0.0103-0.0618 0-0.13381-0.0515-0.13381-0.211v-2.846h-0.75653z"/>
    <path d="m126.95 165.75c0.25733 0.211 0.64331 0.3551 0.97783 0.3551 0.68448 0 1.0499-0.36025 1.0499-0.82343 0-0.46833-0.3654-0.64846-0.68963-0.76683-0.26247-0.0978-0.4992-0.15954-0.4992-0.32422 0-0.12867 0.0926-0.20072 0.2882-0.20072 0.18013 0 0.3551 0.0824 0.54038 0.21616l0.33966-0.45289c-0.22129-0.16469-0.5095-0.32423-0.90063-0.32423-0.59184 0-0.97783 0.32423-0.97783 0.7977 0 0.42201 0.3654 0.63302 0.67419 0.75139 0.26247 0.10293 0.51979 0.18012 0.51979 0.34996 0 0.1338-0.0978 0.21615-0.32422 0.21615-0.21615 0-0.42716-0.0926-0.65875-0.26762z"/>
    <path d="m129.84 163.12c0.25733 0 0.43745-0.16468 0.43745-0.39627 0-0.2316-0.18012-0.39114-0.43745-0.39114-0.25217 0-0.43745 0.15954-0.43745 0.39114 0 0.23159 0.18528 0.39627 0.43745 0.39627zm-0.37569 2.9283h0.75653v-2.5526h-0.75653z"/>
    <path d="m130.88 166.05h0.75653v-1.7241c0.15954-0.16469 0.30879-0.24703 0.43231-0.24703 0.21615 0 0.31393 0.11322 0.31393 0.48377v1.4873h0.75653v-1.7241c0.16469-0.16469 0.30879-0.24703 0.43745-0.24703 0.21615 0 0.31394 0.11322 0.31394 0.48377v1.4873h0.75653v-1.5851c0-0.63816-0.24703-1.0293-0.79771-1.0293-0.33966 0-0.5764 0.19556-0.80284 0.42716-0.12867-0.27277-0.34482-0.42716-0.70507-0.42716-0.33452 0-0.56097 0.18013-0.77197 0.39113h-0.0206l-0.0515-0.32937h-0.61758z"/>
    <path d="m135.26 165.08c0 0.63816 0.23674 1.0293 0.79256 1.0293 0.34996 0 0.5867-0.15954 0.80285-0.41686h0.0154l0.0566 0.3551h0.61758v-2.5526h-0.75653v1.688c-0.14925 0.20071-0.26247 0.28305-0.45289 0.28305-0.2213 0-0.31908-0.11836-0.31908-0.48376v-1.4873h-0.75654z"/>
    <path d="m138.21 165.25c0 0.51465 0.17498 0.85431 0.69477 0.85431 0.16984 0 0.2985-0.0257 0.38084-0.0618l-0.0926-0.56096c-0.0412 0.0103-0.0618 0.0103-0.0926 0.0103-0.0618 0-0.13381-0.0515-0.13381-0.211v-2.846h-0.75653z"/>
    <path d="m139.59 165.34c0 0.43231 0.29335 0.77197 0.75653 0.77197 0.2882 0 0.53009-0.13381 0.74624-0.32422h0.0154l0.0566 0.26246h0.61758v-1.4616c0-0.78227-0.36026-1.1528-1.0139-1.1528-0.40142 0-0.76682 0.13895-1.091 0.33452l0.26762 0.49921c0.24703-0.1441 0.46318-0.23159 0.67933-0.23159 0.27276 0 0.38599 0.1441 0.40143 0.37054-1.0087 0.10293-1.4359 0.39628-1.4359 0.93151zm0.72051-0.0566c0-0.19556 0.17498-0.34996 0.71536-0.42201v0.44774c-0.13381 0.13381-0.24703 0.21616-0.42201 0.21616-0.18013 0-0.29335-0.0772-0.29335-0.24189z"/>
    <path d="m142.53 165.12c0 0.59184 0.24703 0.98812 0.88005 0.98812 0.24703 0 0.4323-0.0515 0.56611-0.0926l-0.11837-0.55068c-0.0669 0.0257-0.15954 0.0515-0.24188 0.0515-0.20072 0-0.32938-0.11837-0.32938-0.40657v-1.0242h0.61243v-0.59184h-0.61243v-0.67934h-0.62787l-0.0875 0.67934-0.39113 0.0309v0.56096h0.34996z"/>
    <path d="m144.77 163.12c0.25732 0 0.43745-0.16468 0.43745-0.39627 0-0.2316-0.18013-0.39114-0.43745-0.39114-0.25218 0-0.43745 0.15954-0.43745 0.39114 0 0.23159 0.18527 0.39627 0.43745 0.39627zm-0.3757 2.9283h0.75654v-2.5526h-0.75654z"/>
    <path d="m145.66 164.77c0 0.84917 0.59699 1.3381 1.2454 1.3381 0.64331 0 1.2403-0.48891 1.2403-1.3381s-0.59699-1.3381-1.2403-1.3381c-0.64845 0-1.2454 0.48891-1.2454 1.3381zm0.77711 0c0-0.4426 0.1544-0.72565 0.46833-0.72565 0.30879 0 0.46833 0.28305 0.46833 0.72565s-0.15954 0.72565-0.46833 0.72565c-0.31393 0-0.46833-0.28305-0.46833-0.72565z"/>
    <path d="m148.67 166.05h0.75653v-1.7241c0.16468-0.15954 0.28305-0.24703 0.47347-0.24703 0.21615 0 0.31394 0.11322 0.31394 0.48377v1.4873h0.75653v-1.5851c0-0.63816-0.23674-1.0293-0.79256-1.0293-0.34481 0-0.60214 0.18013-0.81829 0.38598h-0.0206l-0.0515-0.32422h-0.61757z"/>
   </g>
   <g transform="scale(.98975 1.0104)" aria-label="simplified simulation">
    <path d="m195.26 195.24c0.32244 0.26441 0.80611 0.44497 1.2253 0.44497 0.8577 0 1.3156-0.45142 1.3156-1.0318 0-0.58685-0.45787-0.81256-0.86415-0.96088-0.32889-0.12253-0.62554-0.19992-0.62554-0.40628 0-0.16122 0.11608-0.25151 0.36114-0.25151 0.22571 0 0.44497 0.10319 0.67713 0.27086l0.42563-0.5675c-0.27731-0.20637-0.63844-0.40628-1.1286-0.40628-0.74162 0-1.2253 0.40628-1.2253 0.99957 0 0.52881 0.45787 0.79321 0.8448 0.94153 0.32889 0.12898 0.65134 0.22571 0.65134 0.43853 0 0.16767-0.12253 0.27085-0.40628 0.27085-0.27085 0-0.53526-0.11608-0.82545-0.33534z"/>
    <path d="m198.87 191.94c0.32244 0 0.54815-0.20636 0.54815-0.49656s-0.22571-0.49012-0.54815-0.49012c-0.316 0-0.54815 0.19992-0.54815 0.49012s0.23215 0.49656 0.54815 0.49656zm-0.47077 3.6694h0.94798v-3.1986h-0.94798z"/>
    <path d="m200.18 195.61h0.94798v-2.1604c0.19991-0.20636 0.38693-0.30954 0.5417-0.30954 0.27085 0 0.39338 0.14187 0.39338 0.60619v1.8637h0.94798v-2.1604c0.20637-0.20636 0.38694-0.30954 0.54816-0.30954 0.27085 0 0.39338 0.14187 0.39338 0.60619v1.8637h0.94798v-1.9862c0-0.79966-0.30955-1.2898-0.99957-1.2898-0.42563 0-0.72228 0.24506-1.006 0.53525-0.16123-0.34179-0.43208-0.53525-0.8835-0.53525-0.41917 0-0.70292 0.22571-0.96733 0.49011h-0.0258l-0.0645-0.41272h-0.77386z"/>
    <path d="m206.62 195.35c0.22571 0.21282 0.48367 0.33534 0.76097 0.33534 0.69003 0 1.3478-0.63198 1.3478-1.7283 0-0.98667-0.47721-1.6251-1.2511-1.6251-0.33534 0-0.65778 0.16767-0.90929 0.39338h-0.0258l-0.0645-0.31599h-0.77386v4.3852h0.94798v-0.93509zm0.0323-0.64488v-1.3091c0.18702-0.19991 0.35469-0.2902 0.54815-0.2902 0.38048 0 0.5546 0.2902 0.5546 0.86415 0 0.65778-0.2644 0.94153-0.59329 0.94153-0.16122 0-0.34179-0.0516-0.50946-0.20636z"/>
    <path d="m209.4 194.61c0 0.64489 0.21926 1.0705 0.87059 1.0705 0.21281 0 0.37403-0.0322 0.47722-0.0774l-0.11608-0.70293c-0.0516 0.0129-0.0774 0.0129-0.11608 0.0129-0.0774 0-0.16767-0.0645-0.16767-0.2644v-3.5662h-0.94798z"/>
    <path d="m211.71 191.94c0.32245 0 0.54816-0.20636 0.54816-0.49656s-0.22571-0.49012-0.54816-0.49012c-0.31599 0-0.54815 0.19992-0.54815 0.49012s0.23216 0.49656 0.54815 0.49656zm-0.47076 3.6694h0.94798v-3.1986h-0.94798z"/>
    <path d="m214.99 191.12c-0.14187-0.0516-0.37403-0.11608-0.63844-0.11608-0.86414 0-1.1801 0.55461-1.1801 1.2317v0.17412l-0.42562 0.0323v0.70292h0.42562v2.457h0.94798v-2.457h0.57395v-0.74161h-0.57395v-0.19347c0-0.32889 0.13543-0.45787 0.36759-0.45787 0.10318 0 0.21926 0.0258 0.32889 0.0645z"/>
    <path d="m215.69 191.94c0.32244 0 0.54815-0.20636 0.54815-0.49656s-0.22571-0.49012-0.54815-0.49012c-0.316 0-0.54816 0.19992-0.54816 0.49012s0.23216 0.49656 0.54816 0.49656zm-0.47077 3.6694h0.94798v-3.1986h-0.94798z"/>
    <path d="m216.81 194.01c0 1.0576 0.70292 1.6767 1.6187 1.6767 0.38048 0 0.80611-0.13542 1.135-0.36113l-0.31599-0.57395c-0.23216 0.14187-0.45142 0.21281-0.69003 0.21281-0.42563 0-0.74807-0.21281-0.8319-0.69647h1.9153c0.0193-0.0774 0.0387-0.23216 0.0387-0.39983 0-0.8706-0.45142-1.5348-1.3607-1.5348-0.76741 0-1.509 0.63844-1.509 1.6767zm0.90929-0.32889c0.0645-0.42562 0.32244-0.62554 0.61909-0.62554 0.38048 0 0.53525 0.25796 0.53525 0.62554z"/>
    <path d="m220.16 194.01c0 1.0447 0.51591 1.6767 1.3091 1.6767 0.30955 0 0.62554-0.16767 0.85125-0.39338h0.0258l0.0645 0.316h0.77387v-4.5206h-0.94799v1.0899l0.0387 0.49011c-0.21926-0.20636-0.43208-0.33534-0.78676-0.33534-0.67713 0-1.3285 0.63199-1.3285 1.6767zm0.97378-0.0129c0-0.60619 0.27085-0.88994 0.57395-0.88994 0.17412 0 0.36113 0.0516 0.5288 0.20637v1.3091c-0.15477 0.21282-0.31599 0.2902-0.52235 0.2902-0.36759 0-0.5804-0.28375-0.5804-0.91574z"/>
    <path d="m225.09 195.24c0.32244 0.26441 0.80611 0.44497 1.2253 0.44497 0.8577 0 1.3156-0.45142 1.3156-1.0318 0-0.58685-0.45787-0.81256-0.86415-0.96088-0.32889-0.12253-0.62553-0.19992-0.62553-0.40628 0-0.16122 0.11607-0.25151 0.36113-0.25151 0.22571 0 0.44497 0.10319 0.67713 0.27086l0.42563-0.5675c-0.27731-0.20637-0.63844-0.40628-1.1286-0.40628-0.74162 0-1.2253 0.40628-1.2253 0.99957 0 0.52881 0.45787 0.79321 0.8448 0.94153 0.32889 0.12898 0.65134 0.22571 0.65134 0.43853 0 0.16767-0.12253 0.27085-0.40628 0.27085-0.27085 0-0.53526-0.11608-0.82545-0.33534z"/>
    <path d="m228.7 191.94c0.32244 0 0.54815-0.20636 0.54815-0.49656s-0.22571-0.49012-0.54815-0.49012c-0.316 0-0.54816 0.19992-0.54816 0.49012s0.23216 0.49656 0.54816 0.49656zm-0.47077 3.6694h0.94798v-3.1986h-0.94798z"/>
    <path d="m230.01 195.61h0.94798v-2.1604c0.19991-0.20636 0.38693-0.30954 0.5417-0.30954 0.27085 0 0.39338 0.14187 0.39338 0.60619v1.8637h0.94798v-2.1604c0.20637-0.20636 0.38694-0.30954 0.54816-0.30954 0.27085 0 0.39338 0.14187 0.39338 0.60619v1.8637h0.94798v-1.9862c0-0.79966-0.30955-1.2898-0.99957-1.2898-0.42563 0-0.72228 0.24506-1.006 0.53525-0.16122-0.34179-0.43207-0.53525-0.88349-0.53525-0.41917 0-0.70292 0.22571-0.96733 0.49011h-0.0258l-0.0645-0.41272h-0.77386z"/>
    <path d="m235.5 194.39c0 0.79966 0.29665 1.2898 0.99313 1.2898 0.43852 0 0.73517-0.19991 1.006-0.52235h0.0194l0.0709 0.44497h0.77387v-3.1986h-0.94799v2.1152c-0.18701 0.25151-0.32889 0.35469-0.5675 0.35469-0.2773 0-0.39982-0.14833-0.39982-0.6062v-1.8637h-0.94799z"/>
    <path d="m239.2 194.61c0 0.64489 0.21926 1.0705 0.87059 1.0705 0.21281 0 0.37404-0.0322 0.47722-0.0774l-0.11608-0.70293c-0.0516 0.0129-0.0774 0.0129-0.11608 0.0129-0.0774 0-0.16767-0.0645-0.16767-0.2644v-3.5662h-0.94798z"/>
    <path d="m240.92 194.72c0 0.5417 0.36758 0.96732 0.94798 0.96732 0.36114 0 0.66423-0.16767 0.93508-0.40627h0.0194l0.0709 0.32889h0.77386v-1.8315c0-0.98022-0.45142-1.4445-1.2704-1.4445-0.50301 0-0.96088 0.17412-1.3672 0.41917l0.33534 0.62554c0.30954-0.18056 0.5804-0.29019 0.85125-0.29019 0.34179 0 0.48366 0.18056 0.50301 0.46431-1.264 0.12898-1.7992 0.49656-1.7992 1.1672zm0.90284-0.0709c0-0.24506 0.21926-0.43852 0.89639-0.52881v0.56105c-0.16767 0.16767-0.30955 0.27085-0.52881 0.27085-0.22571 0-0.36758-0.0967-0.36758-0.30309z"/>
    <path d="m244.61 194.45c0 0.74162 0.30955 1.2382 1.1028 1.2382 0.30954 0 0.5417-0.0645 0.70937-0.11608l-0.14832-0.69002c-0.0838 0.0322-0.19992 0.0645-0.3031 0.0645-0.2515 0-0.41272-0.14833-0.41272-0.50946v-1.2833h0.76741v-0.74161h-0.76741v-0.85125h-0.78676l-0.10963 0.85125-0.49012 0.0387v0.70292h0.43852z"/>
    <path d="m247.42 191.94c0.32244 0 0.54815-0.20636 0.54815-0.49656s-0.22571-0.49012-0.54815-0.49012c-0.316 0-0.54815 0.19992-0.54815 0.49012s0.23215 0.49656 0.54815 0.49656zm-0.47077 3.6694h0.94798v-3.1986h-0.94798z"/>
    <path d="m248.54 194.01c0 1.0641 0.74806 1.6767 1.5606 1.6767 0.80611 0 1.5542-0.61264 1.5542-1.6767s-0.74806-1.6767-1.5542-1.6767c-0.81256 0-1.5606 0.61264-1.5606 1.6767zm0.97377 0c0-0.5546 0.19347-0.90929 0.58685-0.90929 0.38693 0 0.58684 0.35469 0.58684 0.90929s-0.19991 0.90929-0.58684 0.90929c-0.39338 0-0.58685-0.35469-0.58685-0.90929z"/>
    <path d="m252.3 195.61h0.94798v-2.1604c0.20636-0.19991 0.35468-0.30954 0.59329-0.30954 0.27085 0 0.39338 0.14187 0.39338 0.60619v1.8637h0.94798v-1.9862c0-0.79966-0.29664-1.2898-0.99312-1.2898-0.43207 0-0.75452 0.22571-1.0254 0.48366h-0.0258l-0.0645-0.40627h-0.77386z"/>
   </g>
  </g>
 </g>
</svg>
