<svg width="33.029mm" height="13.345mm" version="1.1" viewBox="0 0 33.029 13.345" xmlns="http://www.w3.org/2000/svg">
 <g transform="translate(-133.46 -94.162)">
  <rect x="141.11" y="95.222" width="18.224" height="11.225" ry="1.1108" fill="#3b390d" fill-opacity=".38431" stroke="#e9e56f" stroke-width=".12051"/>
  <g fill="#e9e56f" stroke-width=".28222px" aria-label="Component">
   <path d="m146.77 98.226q-0.13522 0.05598-0.28336 0.05598-0.23857 0-0.3669-0.14211-0.12747-0.14297-0.12747-0.42202 0-0.13522 0.0353-0.2446 0.0353-0.10938 0.10077-0.18517 0.0655-0.07665 0.15847-0.118 0.093-0.04134 0.20843-0.04134 0.0784 0 0.14556 0.01378 0.0672 0.01292 0.12919 0.04048v0.15072q-0.0611-0.03359-0.12661-0.05082-0.0655-0.01809-0.14297-0.01809-0.0792 0-0.14383 0.03015-0.0637 0.02928-0.10852 0.08613-0.0448 0.05598-0.0689 0.1378-0.0241 0.08096-0.0241 0.18517 0 0.21876 0.0887 0.32987t0.2601 0.1111q0.0724 0 0.13867-0.01636 0.0663-0.01723 0.12747-0.04737z"/>
   <path d="m147.78 97.829q0 0.10077-0.0284 0.18517-0.0284 0.08354-0.0818 0.14383-0.0534 0.05943-0.13005 0.09302-0.0767 0.03273-0.17398 0.03273-0.093 0-0.16708-0.02842-0.0732-0.02928-0.12489-0.08527-0.0508-0.05598-0.0784-0.13866-0.0267-0.08268-0.0267-0.19034 0-0.10077 0.0284-0.18345 0.0284-0.08354 0.0818-0.14297 0.0534-0.06029 0.13005-0.09302 0.0767-0.03359 0.17398-0.03359 0.093 0 0.16622 0.02928 0.0741 0.02842 0.12489 0.08441 0.0517 0.05512 0.0784 0.1378 0.0276 0.08268 0.0276 0.18948zm-0.15331 0.0069q0-0.0801-0.0181-0.13953-0.0172-0.06029-0.0499-0.09991-0.0327-0.04048-0.0801-0.06029-0.0465-0.02067-0.10421-0.02067-0.0672 0-0.11542 0.0267-0.0474 0.02584-0.0784 0.06976-0.0301 0.04393-0.0448 0.10249-0.0138 0.05771-0.0138 0.12144 0 0.0801 0.0172 0.14039 0.0181 0.06029 0.0508 0.10077 0.0327 0.03962 0.0792 0.06029 0.0465 0.01981 0.10508 0.01981 0.0672 0 0.11454-0.02584 0.0482-0.0267 0.0784-0.07062 0.031-0.04392 0.0448-0.10163 0.0146-0.05857 0.0146-0.12316z"/>
   <path d="m148.62 98.268v-0.62098q0-0.04048-3e-3 -0.06632t-9e-3 -0.04048q-6e-3 -0.0155-0.0164-0.02153-9e-3 -6e-3 -0.0241-6e-3 -0.0172 0-0.0319 0.01034-0.0146 0.01033-0.0319 0.03359-0.0164 0.02326-0.037 0.06201-0.0198 0.0379-0.0474 0.09388v0.55552h-0.13694v-0.60465q0-0.04737-3e-3 -0.07665t-9e-3 -0.04565q-6e-3 -0.01636-0.0164-0.02239-0.0103-6e-3 -0.025-6e-3 -0.0155 0-0.0293 0.0086t-0.031 0.03101q-0.0164 0.02239-0.037 0.06115-0.0207 0.03876-0.0491 0.09905v0.55552h-0.1378v-0.86472h0.11455l7e-3 0.1645q0.0224-0.04909 0.0431-0.08354 0.0215-0.03445 0.0439-0.05512 0.0224-0.02153 0.0474-0.03101 0.0258-0.01033 0.0568-0.01033 0.0698 0 0.10594 0.04565 0.0362 0.04565 0.0362 0.14125 0.0207-0.04479 0.0405-0.07924 0.0198-0.03531 0.0422-0.05857 0.0233-0.02412 0.0508-0.03617 0.0276-0.01292 0.0637-0.01292 0.16278 0 0.16278 0.25063v0.62959z"/>
   <path d="m149.71 97.82q0 0.11541-0.0327 0.20154-0.0319 0.08613-0.0887 0.14297-0.0568 0.05684-0.13436 0.08527-0.0775 0.02842-0.16795 0.02842-0.0413 0-0.0827-0.0043-0.0405-0.0043-0.0827-0.01464v0.36174h-0.14986v-1.2178h0.13349l9e-3 0.14469q0.0646-0.08871 0.1378-0.12402 0.0732-0.03617 0.15848-0.03617 0.0741 0 0.13005 0.031 0.056 0.03101 0.0939 0.08785 0.0379 0.05598 0.0568 0.13608 0.0189 0.07924 0.0189 0.17742zm-0.15331 0.0069q0-0.06804-0.0103-0.12488-9e-3 -0.05684-0.031-0.09732-0.0215-0.04048-0.0551-0.06287-0.0336-0.02326-0.0801-0.02326-0.0284 0-0.0577 0.0095-0.0293 0.0086-0.0611 0.03014-0.031 0.02067-0.0663 0.05598-0.0344 0.03445-0.0741 0.08613v0.41944q0.0413 0.01723 0.087 0.02756 0.0456 0.0095 0.0896 0.0095 0.12144 0 0.19034-0.08182 0.0689-0.08268 0.0689-0.24805z"/>
   <path d="m150.69 97.829q0 0.10077-0.0284 0.18517-0.0284 0.08354-0.0818 0.14383-0.0534 0.05943-0.13005 0.09302-0.0767 0.03273-0.17398 0.03273-0.093 0-0.16708-0.02842-0.0732-0.02928-0.12489-0.08527-0.0508-0.05598-0.0784-0.13866-0.0267-0.08268-0.0267-0.19034 0-0.10077 0.0284-0.18345 0.0284-0.08354 0.0818-0.14297 0.0534-0.06029 0.13005-0.09302 0.0767-0.03359 0.17398-0.03359 0.093 0 0.16623 0.02928 0.0741 0.02842 0.12488 0.08441 0.0517 0.05512 0.0784 0.1378 0.0276 0.08268 0.0276 0.18948zm-0.15331 0.0069q0-0.0801-0.0181-0.13953-0.0172-0.06029-0.0499-0.09991-0.0327-0.04048-0.0801-0.06029-0.0465-0.02067-0.10421-0.02067-0.0672 0-0.11541 0.0267-0.0474 0.02584-0.0784 0.06976-0.0301 0.04393-0.0448 0.10249-0.0138 0.05771-0.0138 0.12144 0 0.0801 0.0172 0.14039 0.0181 0.06029 0.0508 0.10077 0.0327 0.03962 0.0792 0.06029 0.0465 0.01981 0.10508 0.01981 0.0672 0 0.11455-0.02584 0.0482-0.0267 0.0784-0.07062 0.031-0.04392 0.0448-0.10163 0.0146-0.05857 0.0146-0.12316z"/>
   <path d="m150.91 97.403h0.1335l6e-3 0.13953q0.0379-0.04479 0.0732-0.07407 0.0353-0.03014 0.0689-0.04823 0.0344-0.01809 0.0698-0.02498 0.0353-0.0078 0.0732-0.0078 0.1335 0 0.20154 0.07924 0.0689 0.07838 0.0689 0.23685v0.56414h-0.14986v-0.55208q0-0.10163-0.0379-0.14986-0.0379-0.04909-0.11283-0.04909-0.0276 0-0.0543 0.0086-0.0258 0.0078-0.0543 0.02842-0.0284 0.01981-0.062 0.05426-0.0327 0.03445-0.0741 0.08613v0.57361h-0.14986z"/>
   <path d="m152.62 97.79q0 0.03187-8.6e-4 0.0534t-3e-3 0.04048h-0.6072q0 0.13264 0.0741 0.20412 0.0741 0.07062 0.2136 0.07062 0.0379 0 0.0758-0.0026 0.0379-0.0034 0.0732-0.0086t0.0672-0.0112q0.0327-0.0069 0.0603-0.01464v0.12316q-0.0611 0.01723-0.13867 0.02756-0.0767 0.0112-0.15933 0.0112-0.11111 0-0.1912-0.03014-0.0801-0.03014-0.13178-0.08699-0.0508-0.0577-0.0758-0.14039-0.0241-0.08354-0.0241-0.18862 0-0.0913 0.0258-0.17226 0.0267-0.08182 0.0767-0.14297 0.0508-0.06201 0.12403-0.09819 0.0732-0.03617 0.16622-0.03617 0.0904 0 0.1602 0.02842t0.11713 0.08096q0.0482 0.05168 0.0724 0.12661 0.025 0.07407 0.025 0.16622zm-0.15589-0.02153q3e-3 -0.05771-0.0112-0.10508-0.0138-0.04823-0.0431-0.08268-0.0284-0.03445-0.0715-0.0534-0.0431-0.01981-0.0999-0.01981-0.0491 0-0.0896 0.01895t-0.0698 0.0534-0.0474 0.08268-0.0224 0.10594z"/>
   <path d="m152.86 97.403h0.1335l6e-3 0.13953q0.0379-0.04479 0.0732-0.07407 0.0353-0.03014 0.0689-0.04823 0.0345-0.01809 0.0698-0.02498 0.0353-0.0078 0.0732-0.0078 0.1335 0 0.20154 0.07924 0.0689 0.07838 0.0689 0.23685v0.56414h-0.14986v-0.55208q0-0.10163-0.0379-0.14986-0.0379-0.04909-0.11282-0.04909-0.0276 0-0.0543 0.0086-0.0258 0.0078-0.0543 0.02842-0.0284 0.01981-0.062 0.05426-0.0327 0.03445-0.0741 0.08613v0.57361h-0.14987z"/>
   <path d="m154.52 98.256q-0.0508 0.01292-0.10507 0.01809-0.0543 6e-3 -0.11025 6e-3 -0.16278 0-0.24288-0.07321-0.0801-0.07407-0.0801-0.22652v-0.45131h-0.24202v-0.12575h0.24202v-0.23771l0.14986-0.03876v0.27647h0.38843v0.12575h-0.38843v0.43925q0 0.09302 0.0491 0.13953 0.0499 0.04565 0.14642 0.04565 0.0413 0 0.0904-6e-3 0.0491-0.0069 0.10249-0.02067z"/>
  </g>
  <g stroke="#d54747" stroke-width=".26458">
   <path d="m141.08 100.83h-4.7978" fill="#fd5" fill-rule="evenodd"/>
   <path d="m164.22 100.83h-4.7978" fill="#fd5" fill-rule="evenodd"/>
   <circle cx="135.43" cy="100.83" r=".84667" fill="#d54747" stroke-linecap="round"/>
   <path d="m165.35 100.02c-0.0691-0.01826-0.14021-0.02771-0.21167-0.02811-0.4676 0-0.84667 0.37907-0.84667 0.84666 0 0.46761 0.37907 0.84668 0.84667 0.84668 0.0714 0 0.14256-0.01 0.21167-0.0276" fill="none" stroke-linecap="round"/>
  </g>
  <g stroke-width=".01053">
   <path d="m150.45 103.81c0-0.18986 0.0155-0.20863 0.21266-0.25816 0.1698-0.0426 0.34448-0.11616 0.48125-0.20249 0.13427-0.0848 0.17829-0.0773 0.31002 0.0529l0.11414 0.11272 0.17441-0.17545 0.17441-0.17544-0.11298-0.11128c-0.13093-0.12896-0.13874-0.17461-0.0531-0.31028 0.0863-0.13677 0.15983-0.31144 0.20248-0.48125 0.0495-0.19719 0.0683-0.21266 0.25817-0.21266h0.15632v-0.49636h-0.15632c-0.18986 0-0.20863-0.0155-0.25817-0.21266-0.0426-0.1698-0.11614-0.34448-0.20248-0.48125-0.0848-0.13426-0.0773-0.17829 0.0529-0.31001l0.11271-0.11414-0.17543-0.17442-0.17545-0.17441-0.11128 0.11298c-0.12896 0.13093-0.17462 0.13874-0.31028 0.0531-0.13677-0.0863-0.31145-0.15983-0.48125-0.20248-0.19719-0.0495-0.21266-0.06831-0.21266-0.25817v-0.15632h-0.49636v0.15632c0 0.18986-0.0155 0.20864-0.21266 0.25817-0.1698 0.0426-0.34448 0.11615-0.48125 0.20248-0.13427 0.0848-0.17829 0.0773-0.31001-0.0528l-0.11415-0.11272-0.17441 0.17545-0.17441 0.17544 0.11298 0.11128c0.13093 0.12895 0.13874 0.17462 0.0531 0.31028-0.0863 0.13677-0.15983 0.31145-0.20248 0.48125-0.0495 0.19719-0.0683 0.21266-0.25816 0.21266h-0.15632v0.49636h0.15632c0.18985 0 0.20862 0.0155 0.25816 0.21267 0.0426 0.1698 0.11615 0.34447 0.20248 0.48124 0.0856 0.13567 0.0778 0.18133-0.0531 0.31028l-0.11298 0.11128 0.17441 0.17544 0.17441 0.17545 0.11415-0.11272c0.13172-0.13009 0.17574-0.13759 0.31001-0.0528 0.13677 0.0863 0.31145 0.15983 0.48125 0.20249 0.19719 0.0495 0.21266 0.0683 0.21266 0.25816v0.15632h0.49636z" fill="#e9e56f"/>
   <path d="m150.02 103.22c-0.33895-0.0474-0.57353-0.1661-0.82457-0.41713-0.29163-0.29164-0.42038-0.59426-0.42279-0.9938-2e-3 -0.2522 0.0319-0.40051 0.14251-0.63174 0.14646-0.30623 0.35689-0.51654 0.6649-0.6645 0.22672-0.10892 0.3773-0.14382 0.62045-0.14382 0.24399 0 0.39297 0.0348 0.62735 0.1463 0.47973 0.22834 0.79517 0.72509 0.80004 1.2599 2e-3 0.26463-0.0297 0.40774-0.14679 0.6543-0.12871 0.27104-0.37782 0.52014-0.64886 0.64885-0.27544 0.13081-0.54885 0.17848-0.81224 0.14162z" fill="#1e1e1e"/>
   <path d="m150.57 102.96c0.21278-0.0732 0.31865-0.13992 0.48345-0.30466 0.25206-0.25198 0.35643-0.50041 0.35643-0.84848 0-0.35014-0.11623-0.6219-0.37129-0.86814-0.48746-0.4706-1.2273-0.45701-1.6987 0.0312-0.2373 0.24579-0.33997 0.49856-0.33997 0.83693 0 0.33515 0.10215 0.58954 0.33358 0.83076 0.19062 0.19869 0.40765 0.31759 0.66832 0.36615 0.14488 0.027 0.42528 5e-3 0.56815-0.0438z" fill="#303030"/>
   <path d="m150.07 102.5c-0.33715-0.0679-0.57448-0.35631-0.57448-0.69815 0-0.20124 0.0636-0.35307 0.20871-0.49817 0.1451-0.14509 0.29693-0.20871 0.49817-0.20871s0.35308 0.0636 0.49818 0.20871c0.14509 0.1451 0.2087 0.29693 0.2087 0.49817 0 0.44248-0.41104 0.7844-0.83928 0.69815z" fill="#e9e56f"/>
   <path d="m150.33 102.27c0.15159-0.0382 0.30476-0.19595 0.34235-0.35268 0.0429-0.17903 1e-3 -0.32228-0.13324-0.45669-0.2029-0.2029-0.47611-0.2029-0.67901 0-0.20292 0.20292-0.20291 0.47611 2e-5 0.67905 0.1424 0.14239 0.27541 0.17929 0.46987 0.13032z"/>
   <path d="m147.08 103.54c0-0.11295 9e-3 -0.12412 0.12652-0.15359 0.10101-0.0254 0.20494-0.0691 0.2863-0.12046 0.0799-0.0504 0.10607-0.046 0.18444 0.0314l0.0679 0.0671 0.10376-0.10438 0.10376-0.10437-0.0672-0.0662c-0.0779-0.0767-0.0825-0.10388-0.0316-0.18459 0.0514-0.0814 0.0951-0.18529 0.12046-0.28631 0.0295-0.11732 0.0406-0.12652 0.15359-0.12652h0.093v-0.29529h-0.093c-0.11295 0-0.12412-9e-3 -0.15359-0.12652-0.0254-0.10102-0.0691-0.20494-0.12046-0.28631-0.0504-0.0799-0.046-0.10606 0.0314-0.18443l0.0671-0.0679-0.10437-0.10377-0.10438-0.10376-0.0662 0.0672c-0.0767 0.0779-0.10388 0.0825-0.18459 0.0316-0.0814-0.0514-0.18529-0.0951-0.2863-0.12046-0.11732-0.0295-0.12652-0.0406-0.12652-0.15359v-0.093h-0.2953v0.093c0 0.11295-9e-3 0.12412-0.12651 0.15359-0.10102 0.0254-0.20494 0.0691-0.28631 0.12046-0.0799 0.0504-0.10607 0.046-0.18444-0.0314l-0.0679-0.0671-0.10375 0.10438-0.10377 0.10438 0.0672 0.0662c0.0779 0.0767 0.0825 0.10388 0.0316 0.18459-0.0514 0.0814-0.0951 0.18529-0.12046 0.28631-0.0295 0.11731-0.0406 0.12651-0.15359 0.12651h-0.093v0.2953h0.093c0.11295 0 0.12412 9e-3 0.15359 0.12652 0.0254 0.10102 0.0691 0.20493 0.12046 0.2863 0.051 0.0807 0.0463 0.10788-0.0316 0.18459l-0.0672 0.0662 0.10377 0.10438 0.10375 0.10438 0.0679-0.0671c0.0784-0.0774 0.10456-0.0819 0.18444-0.0314 0.0814 0.0514 0.18529 0.0951 0.28631 0.12046 0.11731 0.0295 0.12651 0.0406 0.12651 0.15359v0.093h0.2953z" fill="#e96f6f"/>
   <path d="m146.82 103.19c-0.20165-0.0282-0.34121-0.0988-0.49056-0.24816-0.1735-0.1735-0.2501-0.35353-0.25153-0.59123-1e-3 -0.15004 0.019-0.23827 0.0848-0.37584 0.0871-0.18218 0.21232-0.3073 0.39556-0.39533 0.13489-0.0648 0.22447-0.0856 0.36913-0.0856 0.14515 0 0.23378 0.0207 0.37322 0.087 0.2854 0.13585 0.47307 0.43138 0.47596 0.74956 1e-3 0.15744-0.0177 0.24258-0.0873 0.38926-0.0766 0.16125-0.22478 0.30945-0.38602 0.38602-0.16387 0.0778-0.32653 0.10618-0.48322 0.0842z" fill="#1e1e1e"/>
   <path d="m147.15 103.03c0.12659-0.0435 0.18957-0.0832 0.28762-0.18125 0.14996-0.14991 0.21204-0.29771 0.21204-0.50478 0-0.20831-0.0692-0.36999-0.22089-0.51648-0.29-0.27997-0.73017-0.27188-1.0106 0.0186-0.14118 0.14622-0.20226 0.2966-0.20226 0.49791 0 0.19939 0.0608 0.35073 0.19846 0.49424 0.1134 0.1182 0.24252 0.18894 0.3976 0.21783 0.0862 0.0161 0.253 3e-3 0.338-0.026z" fill="#303030"/>
   <path d="m146.85 102.76c-0.20058-0.0404-0.34177-0.21198-0.34177-0.41535 0-0.11972 0.0378-0.21006 0.12417-0.29638 0.0863-0.0863 0.17665-0.12416 0.29637-0.12416s0.21006 0.0379 0.29638 0.12416c0.0863 0.0863 0.12416 0.17666 0.12416 0.29638 0 0.26324-0.24454 0.46665-0.49931 0.41535z" fill="#e96f6f"/>
   <path d="m147.01 102.62c0.0902-0.0227 0.18131-0.11658 0.20367-0.20982 0.0255-0.10651 5.6e-4 -0.19173-0.0793-0.27169-0.12071-0.12071-0.28325-0.12071-0.40396 0-0.12072 0.12072-0.12071 0.28325 2e-5 0.40397 0.0847 0.0847 0.16385 0.10667 0.27953 0.0775z"/>
   <path d="m153.59 103.64c0-0.11295 9e-3 -0.12412 0.12652-0.15359 0.10102-0.0254 0.20494-0.0691 0.28631-0.12046 0.0799-0.0504 0.10607-0.046 0.18443 0.0314l0.0679 0.0671 0.10376-0.10438 0.10376-0.10437-0.0672-0.0662c-0.0779-0.0767-0.0825-0.10388-0.0316-0.18459 0.0514-0.0814 0.0951-0.18529 0.12047-0.28631 0.0295-0.11731 0.0406-0.12651 0.15358-0.12651h0.093v-0.2953h-0.093c-0.11295 0-0.12412-9e-3 -0.15358-0.12652-0.0254-0.10101-0.0691-0.20494-0.12047-0.2863-0.0504-0.0799-0.046-0.10607 0.0314-0.18444l0.0671-0.0679-0.10437-0.10376-0.10437-0.10377-0.0662 0.0672c-0.0767 0.0779-0.10389 0.0825-0.1846 0.0316-0.0814-0.0514-0.18529-0.0951-0.2863-0.12046-0.11732-0.0295-0.12652-0.0406-0.12652-0.15359v-0.093h-0.2953v0.093c0 0.11295-9e-3 0.12412-0.12651 0.15359-0.10102 0.0254-0.20494 0.0691-0.28631 0.12046-0.0799 0.0504-0.10607 0.046-0.18443-0.0314l-0.0679-0.0671-0.20752 0.20876 0.0672 0.0662c0.0779 0.0767 0.0825 0.10388 0.0316 0.18459-0.0514 0.0814-0.0951 0.18529-0.12047 0.28631-0.0295 0.11731-0.0406 0.12651-0.15359 0.12651h-0.093v0.2953h0.093c0.11295 0 0.12412 9e-3 0.15359 0.12652 0.0254 0.10102 0.0691 0.20494 0.12047 0.28631 0.051 0.0807 0.0463 0.10787-0.0316 0.18459l-0.0672 0.0662 0.10376 0.10437 0.10376 0.10438 0.0679-0.0671c0.0784-0.0774 0.10455-0.0819 0.18443-0.0314 0.0814 0.0514 0.18529 0.0951 0.28631 0.12046 0.11731 0.0295 0.12651 0.0406 0.12651 0.15359v0.093h0.2953z" fill="#e96f6f"/>
   <path d="m153.33 103.29c-0.20165-0.0282-0.34121-0.0988-0.49056-0.24817-0.1735-0.1735-0.25009-0.35353-0.25153-0.59123-1e-3 -0.15004 0.019-0.23827 0.0848-0.37584 0.0871-0.18218 0.21232-0.3073 0.39557-0.39532 0.13488-0.0648 0.22446-0.0856 0.36912-0.0856 0.14515 0 0.23378 0.0207 0.37322 0.087 0.2854 0.13584 0.47307 0.43137 0.47596 0.74955 1e-3 0.15744-0.0177 0.24258-0.0873 0.38926-0.0766 0.16125-0.22478 0.30945-0.38602 0.38602-0.16387 0.0778-0.32653 0.10618-0.48322 0.0842z" fill="#1e1e1e"/>
   <path d="m153.66 103.13c0.12659-0.0436 0.18957-0.0832 0.28762-0.18125 0.14996-0.14991 0.21204-0.2977 0.21204-0.50478 0-0.2083-0.0691-0.36998-0.22088-0.51648-0.29-0.27997-0.73018-0.27188-1.0106 0.0186-0.14118 0.14623-0.20226 0.29661-0.20226 0.49791 0 0.19939 0.0608 0.35073 0.19846 0.49424 0.1134 0.11821 0.24252 0.18894 0.3976 0.21783 0.0862 0.0161 0.25301 3e-3 0.338-0.026z" fill="#303030"/>
   <path d="m153.36 102.86c-0.20057-0.0404-0.34176-0.21198-0.34176-0.41535 0-0.11972 0.0378-0.21005 0.12416-0.29637 0.0863-0.0863 0.17665-0.12417 0.29637-0.12417 0.11973 0 0.21006 0.0379 0.29638 0.12417 0.0863 0.0863 0.12416 0.17665 0.12416 0.29637 0 0.26324-0.24454 0.46666-0.49931 0.41535z" fill="#e96f6f"/>
   <path d="m153.52 102.73c0.0902-0.0227 0.18131-0.11658 0.20367-0.20981 0.0255-0.10651 5.6e-4 -0.19174-0.0793-0.2717-0.12071-0.12071-0.28325-0.12071-0.40396 0-0.12072 0.12072-0.12071 0.28325 2e-5 0.40398 0.0847 0.0847 0.16385 0.10666 0.27954 0.0775z"/>
  </g>
 </g>
</svg>
