<svg version="1.1" viewBox="0 0 405.48 264.98" xmlns="http://www.w3.org/2000/svg">
 <g transform="translate(-113.97 -130.18)">
  <g transform="translate(9.5261 -9.4221)">
   <g transform="translate(-1.7345 -43.168)">
    <g transform="translate(4.8868 -5.5703)">
     <g transform="translate(6.7884 10.137)">
      <path d="m329.72 216.95c0.951 0 1.654 0.744 1.654 1.654v94.583c0 0.951-0.703 1.653-1.654 1.653h-128.24c-0.909 0-1.652-0.702-1.652-1.653v-94.583c0-0.91 0.744-1.654 1.652-1.654z" clip-rule="evenodd" fill="#3c3c18" fill-opacity=".38431" fill-rule="evenodd"/>
      <path d="m329.72 216.95c0.951 0 1.654 0.744 1.654 1.654v94.583c0 0.951-0.703 1.653-1.654 1.653v0h-128.24v0c-0.909 0-1.652-0.702-1.652-1.653v-94.583c0-0.91 0.744-1.654 1.652-1.654v0z" fill="none" stroke="#e9e66f" stroke-linecap="round" stroke-linejoin="round" stroke-miterlimit="10" stroke-width=".6614"/>
      <g transform="matrix(.9994 0 0 1 236.17 232.82)" fill="#e9e66f" aria-label="GameObject">
       <path d="m3.2978-7.4886c-0.98816 0-2.8692 0.61909-2.8692 3.8693 0 2.8097 1.5715 3.7383 2.8573 3.7383 0.69052 0 1.4882-0.25002 2.1787-0.77386v-2.893h-2.1073v0.71433h1.3453v1.7739c-0.41669 0.29764-0.89291 0.45241-1.3334 0.45241-0.48813 0-1.012-0.19049-1.4168-0.6548-0.61909-0.70242-0.70242-1.7501-0.70242-2.524 0-0.69052 0.083338-1.3572 0.36907-1.9049 0.38098-0.72624 1.0477-1.0596 1.6668-1.0596 0.66671 0 1.1906 0.36907 1.4168 0.8691 0.035717 0.083338 0.071433 0.17858 0.16668 0.23811l0.58337-0.59528c-0.4286-0.77386-1.2382-1.2501-2.1549-1.2501z"/>
       <path d="m7.0242-4.7979 0.41669 0.54765c0.45241-0.46431 1.0596-0.60718 1.5715-0.60718 0.6429 0 0.96435 0.27383 1.1191 0.52384 0.17858 0.29764 0.16668 0.6548 0.16668 0.94053v0.19049h-0.16668c-0.80957 0-1.6668 0-2.3573 0.25002-0.8572 0.30954-1.2382 0.95244-1.2382 1.5477 0 0.79767 0.69052 1.5477 1.8215 1.5477 0.66671 0 1.3572-0.25002 1.9525-0.73814v0.59528h0.80957v-3.3693c0-0.4405-0.01191-0.8572-0.26192-1.2858-0.35716-0.58337-1.0477-0.89291-1.893-0.89291-0.72624 0-1.4287 0.2262-1.9406 0.75005zm3.3097 2.2501v0.36907c0 0.27383 0 0.63099-0.36907 1.0239-0.20239 0.20239-0.71433 0.6429-1.4287 0.6429-0.72624 0-1.1429-0.46431-1.1429-0.94053 0-0.40479 0.27383-0.84529 0.95244-1.012 0.50003-0.11906 1.2263-0.083338 1.7977-0.083338z"/>
       <path d="m12.346 0h0.78576v-3.6193c0-0.26192 0.02381-0.50003 0.17858-0.78576 0.19049-0.35716 0.4286-0.50003 0.6548-0.50003 0.19049 0 0.40479 0.11906 0.50003 0.41669 0.07143 0.2262 0.05953 0.48813 0.05953 0.71433v3.774h0.79767v-3.5955c0-0.28573 0.02381-0.51194 0.2262-0.8572 0.09524-0.14287 0.29764-0.48813 0.63099-0.48813 0.17858 0 0.34526 0.10715 0.4286 0.30954 0.10715 0.2262 0.08334 0.53575 0.08334 0.78576v3.8574h0.80957v-3.8693c0-0.45241 0.0119-0.90482-0.2262-1.2739-0.20239-0.30954-0.54765-0.4286-0.84529-0.4286-0.52384 0-1.012 0.30954-1.2263 0.78576-0.08334-0.45241-0.46431-0.78576-0.95244-0.78576-0.45241 0-0.8691 0.28573-1.1191 0.66671l0.01191-0.53575h-0.79767z"/>
       <path d="m20.93-5.5599c-1.2977 0-2.5002 0.92863-2.5002 2.9049 0 1.8215 1.131 2.7859 2.6073 2.7859 0.78576 0 1.4882-0.28573 1.9525-0.84529l-0.47622-0.46431c-0.34526 0.40479-0.8691 0.61909-1.4048 0.61909-0.72624 0-1.7858-0.40479-1.8454-2.0358h3.8574c0.03572-0.36907 0.02381-0.72624-0.03572-1.0358-0.25002-1.4644-1.262-1.9287-2.1549-1.9287zm-1.643 2.3097c0.17858-1.2858 1.0001-1.6549 1.5834-1.6549 0.88101 0 1.512 0.77386 1.4048 1.6549z"/>
       <path d="m29.418-3.6907c0-0.69052-0.04762-1.6072-0.45241-2.4049-0.48813-0.95244-1.3334-1.3929-2.143-1.3929-1.1072 0-2.6668 0.8572-2.6668 3.774 0 2.9168 1.5358 3.8336 2.6787 3.8336 0.79767 0 1.6549-0.45241 2.143-1.4406 0.39288-0.79767 0.4405-1.7144 0.4405-2.3692zm-2.6311-3.024c0.52384 0 1.1667 0.30954 1.512 1.1786 0.25002 0.61909 0.28573 1.3334 0.28573 1.9525 0 0.48813-0.02381 1.2501-0.33335 1.8811-0.34526 0.72624-0.91672 1.012-1.4168 1.012-0.83338 0-1.8573-0.77386-1.8573-3.1311 0-2.2144 1.0358-2.893 1.8096-2.893z"/>
       <path d="m30.466-7.9172v7.9172h0.55956l0.29764-0.71433c0.35716 0.53575 0.95244 0.8572 1.6072 0.8572 1.1191 0 2.274-0.95244 2.274-2.9288 0-1.893-1.1191-2.774-2.1906-2.774-0.69052 0-1.3334 0.36907-1.6787 0.96435v-3.0478c0-0.071433 0.01191-0.095244 0.07143-0.14287 0.02381-0.011905 0.08334-0.059527 0.07143-0.13096zm2.2501 3.0954c0.51194 0 1.5953 0.29764 1.5953 2.2263 0 1.6549-1.0715 1.9644-1.6072 1.9644-0.36907 0-1.1906-0.14287-1.3334-1.1906-0.03572-0.27383-0.03572-0.59528-0.03572-1.0715 0-0.48813 0.02381-0.84529 0.14287-1.1429 0.20239-0.48813 0.70242-0.78576 1.2382-0.78576z"/>
       <path d="m37.205-5.4408v0.71433h2.0358v4.5122c0 0.29764-0.0119 0.58337-0.14287 0.8691-0.20239 0.4405-0.63099 0.69052-1.0953 0.69052-0.6548 0-1.012-0.47622-1.0596-0.54765-0.04762-0.083338-0.02381-0.15477-0.10715-0.2143l-0.54765 0.73814c0.39288 0.48813 0.98816 0.76195 1.6549 0.76195 0.78576 0 1.5358-0.36907 1.9049-1.0834 0.23811-0.46431 0.25002-0.90482 0.25002-1.3691v-5.0717zm2.4763-2.3573c-0.34526 0-0.61909 0.27383-0.61909 0.60718 0 0.33335 0.27383 0.60718 0.61909 0.60718 0.33335 0 0.60718-0.27383 0.60718-0.60718 0-0.33335-0.27383-0.60718-0.60718-0.60718z"/>
       <path d="m44.741-5.5599c-1.2977 0-2.5002 0.92863-2.5002 2.9049 0 1.8215 1.131 2.7859 2.6073 2.7859 0.78576 0 1.4882-0.28573 1.9525-0.84529l-0.47622-0.46431c-0.34526 0.40479-0.8691 0.61909-1.4048 0.61909-0.72624 0-1.7858-0.40479-1.8454-2.0358h3.8574c0.03572-0.36907 0.02381-0.72624-0.03572-1.0358-0.25002-1.4644-1.262-1.9287-2.1549-1.9287zm-1.643 2.3097c0.17858-1.2858 1.0001-1.6549 1.5834-1.6549 0.88101 0 1.512 0.77386 1.4048 1.6549z"/>
       <path d="m53.051-4.536c-0.4286-0.63099-1.1548-1.012-2.0358-1.012-1.5953 0-2.7264 1.2025-2.7264 2.8335 0 1.643 1.131 2.8573 2.6787 2.8573 0.75005 0 1.4882-0.30954 2.0001-0.8691l-0.48812-0.57146c-0.36907 0.41669-0.90482 0.6548-1.4406 0.6548-1.0596 0-1.8692-0.88101-1.8692-2.1549 0-1.2382 0.79767-2.012 1.7977-2.012 0.92863 0 1.3691 0.6429 1.4048 0.71433 0.04762 0.083338-0.02381 0.20239 0.07143 0.27383z"/>
       <path d="m55.813-6.8933-0.10715 1.4644h-1.2977l-0.01191 0.70242h1.2739c-0.07143 0.92863-0.10715 1.8573-0.10715 2.774 0 0.48813 0 1.0358 0.32145 1.4882 0.26192 0.35717 0.67861 0.57146 1.2382 0.57146 0.6429 0 1.2739-0.27383 1.7382-0.60718l-0.26192-0.67861c-0.46432 0.34526-0.89291 0.50003-1.2263 0.50003-0.40479 0-0.82148-0.2262-0.91672-0.88101 0-0.047622-0.03572-0.25002-0.03572-1.0477 0-0.70242 0.03572-1.4168 0.10715-2.1192h1.7858v-0.71433h-1.7739s0.08334-0.97625 0.14287-1.2858c0.01191-0.11906 0.10715-0.19049 0.05953-0.32145z"/>
      </g>
      <line x1="199.82" x2="331.37" y1="238.12" y2="238.12" fill="none" stroke="#e9e66f" stroke-linecap="round" stroke-linejoin="round" stroke-miterlimit="10" stroke-width=".6614"/>
      <g fill="#8ab9e3">
       <g transform="matrix(.9994 0 0 1 203.12 250.68)" aria-label="-">
        <path d="m0.83339-4.1312v0.78576h4.286v-0.78576z" fill="#8ab9e3"/>
       </g>
       <g transform="matrix(.9994 0 0 1 226.92 250.68)" aria-label="attack: int">
        <path d="m1.0715-4.7979 0.41669 0.54765c0.45241-0.46431 1.0596-0.60718 1.5715-0.60718 0.6429 0 0.96435 0.27383 1.1191 0.52384 0.17858 0.29764 0.16668 0.6548 0.16668 0.94053v0.19049h-0.16668c-0.80957 0-1.6668 0-2.3573 0.25002-0.8572 0.30954-1.2382 0.95244-1.2382 1.5477 0 0.79767 0.69052 1.5477 1.8215 1.5477 0.66671 0 1.3572-0.25002 1.9525-0.73814v0.59528h0.80957v-3.3693c0-0.4405-0.011906-0.8572-0.26192-1.2858-0.35716-0.58337-1.0477-0.89291-1.893-0.89291-0.72624 0-1.4287 0.2262-1.9406 0.75005zm3.3097 2.2501v0.36907c0 0.27383 0 0.63099-0.36907 1.0239-0.20239 0.20239-0.71433 0.6429-1.4287 0.6429-0.72624 0-1.1429-0.46431-1.1429-0.94053 0-0.40479 0.27383-0.84529 0.95244-1.012 0.50003-0.11906 1.2263-0.083338 1.7977-0.083338z"/>
        <path d="m8.191-6.8933-0.10715 1.4644h-1.2977l-0.011906 0.70242h1.2739c-0.071433 0.92863-0.10715 1.8573-0.10715 2.774 0 0.48813 0 1.0358 0.32145 1.4882 0.26192 0.35717 0.67861 0.57146 1.2382 0.57146 0.6429 0 1.2739-0.27383 1.7382-0.60718l-0.26192-0.67861c-0.46431 0.34526-0.89291 0.50003-1.2263 0.50003-0.40479 0-0.82148-0.2262-0.91672-0.88101 0-0.047622-0.035716-0.25002-0.035716-1.0477 0-0.70242 0.035716-1.4168 0.10715-2.1192h1.7858v-0.71433h-1.7739s0.083338-0.97625 0.14287-1.2858c0.011906-0.11906 0.10715-0.19049 0.059527-0.32145z"/>
        <path d="m14.144-6.8933-0.10715 1.4644h-1.2977l-0.01191 0.70242h1.2739c-0.07143 0.92863-0.10715 1.8573-0.10715 2.774 0 0.48813 0 1.0358 0.32145 1.4882 0.26192 0.35717 0.67861 0.57146 1.2382 0.57146 0.6429 0 1.2739-0.27383 1.7382-0.60718l-0.26192-0.67861c-0.46432 0.34526-0.89291 0.50003-1.2263 0.50003-0.40479 0-0.82148-0.2262-0.91672-0.88101 0-0.047622-0.03572-0.25002-0.03572-1.0477 0-0.70242 0.03572-1.4168 0.10715-2.1192h1.7858v-0.71433h-1.7739s0.08334-0.97625 0.14287-1.2858c0.01191-0.11906 0.10715-0.19049 0.05953-0.32145z"/>
        <path d="m18.93-4.7979 0.41669 0.54765c0.45241-0.46431 1.0596-0.60718 1.5715-0.60718 0.6429 0 0.96435 0.27383 1.1191 0.52384 0.17858 0.29764 0.16668 0.6548 0.16668 0.94053v0.19049h-0.16668c-0.80957 0-1.6668 0-2.3573 0.25002-0.8572 0.30954-1.2382 0.95244-1.2382 1.5477 0 0.79767 0.69052 1.5477 1.8215 1.5477 0.66671 0 1.3572-0.25002 1.9525-0.73814v0.59528h0.80957v-3.3693c0-0.4405-0.01191-0.8572-0.26192-1.2858-0.35716-0.58337-1.0477-0.89291-1.893-0.89291-0.72624 0-1.4287 0.2262-1.9406 0.75005zm3.3097 2.2501v0.36907c0 0.27383 0 0.63099-0.36907 1.0239-0.20239 0.20239-0.71433 0.6429-1.4287 0.6429-0.72624 0-1.1429-0.46431-1.1429-0.94053 0-0.40479 0.27383-0.84529 0.95244-1.012 0.50003-0.11906 1.2263-0.083338 1.7977-0.083338z"/>
        <path d="m29.24-4.536c-0.4286-0.63099-1.1548-1.012-2.0358-1.012-1.5953 0-2.7264 1.2025-2.7264 2.8335 0 1.643 1.131 2.8573 2.6787 2.8573 0.75005 0 1.4882-0.30954 2.0001-0.8691l-0.48813-0.57146c-0.36907 0.41669-0.90482 0.6548-1.4406 0.6548-1.0596 0-1.8692-0.88101-1.8692-2.1549 0-1.2382 0.79767-2.012 1.7977-2.012 0.92863 0 1.3691 0.6429 1.4048 0.71433 0.04762 0.083338-0.02381 0.20239 0.07143 0.27383z"/>
        <path d="m30.55-7.9053v7.9172h0.8572v-2.0597l0.72624-0.66671 2.2144 2.774s0.46431-0.047622 1.0239-0.047622h0.08334l-2.6668-3.2502 2.2978-2.1549h-0.30954c-0.2143 0-0.4286-0.011906-0.6429-0.071433l-2.7264 2.5359v-4.667c0-0.047622 0.01191-0.083338 0.04762-0.14287 0.03572-0.035717 0.08334-0.083338 0.07143-0.16668z"/>
        <path d="m39.252-4.3455c0-0.36907-0.30954-0.67861-0.70242-0.67861-0.39288 0-0.70242 0.30954-0.70242 0.67861 0 0.38098 0.30954 0.67861 0.70242 0.67861 0.39288 0 0.70242-0.29764 0.70242-0.67861zm0 3.7979c0-0.36907-0.30954-0.67861-0.70242-0.67861-0.39288 0-0.70242 0.30954-0.70242 0.67861 0 0.38098 0.30954 0.69052 0.70242 0.69052 0.39288 0 0.70242-0.30954 0.70242-0.69052z"/>
        <path d="m48.884-5.4408v0.70242h1.3096v4.0598h-1.381v0.67861h3.524v-0.67861h-1.2739v-4.7622zm1.762-2.3573c-0.34526 0-0.61909 0.27383-0.61909 0.60718 0 0.33335 0.27383 0.60718 0.61909 0.60718 0.34526 0 0.61909-0.27383 0.61909-0.60718 0-0.33335-0.27383-0.60718-0.61909-0.60718z"/>
        <path d="m54.384 0h0.8691v-3.1311c0-0.35716 0.04762-0.63099 0.27383-0.92863 0.20239-0.27383 0.72624-0.76195 1.2977-0.76195 0.27383 0 0.54765 0.11906 0.73814 0.34526 0.29764 0.35717 0.29764 0.82148 0.29764 1.2025v3.274h0.84529v-3.2978c0-0.41669 0-0.8691-0.19049-1.3096-0.27383-0.60718-0.83338-0.95244-1.4525-0.95244-0.73814 0-1.4048 0.47622-1.8096 1.0834v-0.95244h-0.8691z"/>
        <path d="m61.766-6.8933-0.10715 1.4644h-1.2977l-0.01191 0.70242h1.2739c-0.07143 0.92863-0.10715 1.8573-0.10715 2.774 0 0.48813 0 1.0358 0.32145 1.4882 0.26192 0.35717 0.67861 0.57146 1.2382 0.57146 0.6429 0 1.2739-0.27383 1.7382-0.60718l-0.26192-0.67861c-0.46431 0.34526-0.89291 0.50003-1.2263 0.50003-0.40479 0-0.82148-0.2262-0.91672-0.88101 0-0.047622-0.03572-0.25002-0.03572-1.0477 0-0.70242 0.03572-1.4168 0.10715-2.1192h1.7858v-0.71433h-1.7739s0.08334-0.97625 0.14287-1.2858c0.01191-0.11906 0.10715-0.19049 0.05953-0.32145z"/>
       </g>
       <g transform="matrix(.9994 0 0 1 203.12 262.58)" aria-label="-">
        <path d="m0.83339-4.1312v0.78576h4.286v-0.78576z" fill="#8ab9e3"/>
       </g>
       <g transform="matrix(.9994 0 0 1 226.92 262.58)" aria-label="defense: int">
        <path d="m4.4169-4.6431c-0.26192-0.55956-0.84529-0.92863-1.5953-0.92863-1.0358 0-2.2978 0.73814-2.2978 2.8097 0 2.012 1.1191 2.893 2.1668 2.893 0.69052 0 1.3334-0.39288 1.6787-1.0001v0.47622c0 0.13096 0.011906 0.26192 0.047622 0.39288h0.8572c-0.047622-0.15477-0.047622-0.33335-0.047622-0.50003l-0.011906-7.0719c0-0.071433 0-0.095244 0.047622-0.16668 0.023811-0.035717 0.071433-0.095244 0.059527-0.17858h-0.90482zm-1.5596-0.2262c0.47622 0 1.1786 0.25002 1.3929 1.0596 0.071433 0.25002 0.095244 0.54765 0.095244 1.1548 0 0.41669-0.023811 0.71433-0.11906 1.0001-0.20239 0.6429-0.77386 1.0239-1.3334 1.0239-0.61909 0-1.5358-0.47622-1.5358-2.262 0-1.5596 0.8691-1.9763 1.5001-1.9763z"/>
        <path d="m9.0244-5.5599c-1.2977 0-2.5002 0.92863-2.5002 2.9049 0 1.8215 1.131 2.7859 2.6073 2.7859 0.78576 0 1.4882-0.28573 1.9525-0.84529l-0.47622-0.46431c-0.34526 0.40479-0.8691 0.61909-1.4048 0.61909-0.72624 0-1.7858-0.40479-1.8454-2.0358h3.8574c0.03572-0.36907 0.02381-0.72624-0.03572-1.0358-0.25002-1.4644-1.262-1.9287-2.1549-1.9287zm-1.643 2.3097c0.17858-1.2858 1.0001-1.6549 1.5834-1.6549 0.88101 0 1.512 0.77386 1.4048 1.6549z"/>
        <path d="m15.989-7.9767c-0.76195 0-1.4763 0.32145-1.8573 0.94053-0.28573 0.45241-0.29764 0.90482-0.29764 1.3929v0.53575h-1.1906v0.67861h1.1906v4.4288h0.82148v-4.4288h1.7739v-0.67861h-1.7739v-0.4286c0-0.39288-0.01191-0.80957 0.19049-1.1667 0.2262-0.40479 0.6548-0.60718 1.0953-0.60718 0.52384 0 0.96435 0.27383 1.1906 0.61909 0.03572 0.059528 0.03572 0.095244 0.03572 0.14287 0 0.083338 0.05953 0.10715 0.09524 0.10715l0.39288-0.79767c-0.39288-0.46431-0.98816-0.73814-1.6668-0.73814z"/>
        <path d="m20.93-5.5599c-1.2977 0-2.5002 0.92863-2.5002 2.9049 0 1.8215 1.131 2.7859 2.6073 2.7859 0.78576 0 1.4882-0.28573 1.9525-0.84529l-0.47622-0.46431c-0.34526 0.40479-0.8691 0.61909-1.4048 0.61909-0.72624 0-1.7858-0.40479-1.8454-2.0358h3.8574c0.03572-0.36907 0.02381-0.72624-0.03572-1.0358-0.25002-1.4644-1.262-1.9287-2.1549-1.9287zm-1.643 2.3097c0.17858-1.2858 1.0001-1.6549 1.5834-1.6549 0.88101 0 1.512 0.77386 1.4048 1.6549z"/>
        <path d="m24.621 0h0.8691v-3.1311c0-0.35716 0.04762-0.63099 0.27383-0.92863 0.20239-0.27383 0.72624-0.76195 1.2977-0.76195 0.27383 0 0.54765 0.11906 0.73814 0.34526 0.29764 0.35717 0.29764 0.82148 0.29764 1.2025v3.274h0.84529v-3.2978c0-0.41669 0-0.8691-0.19049-1.3096-0.27383-0.60718-0.83338-0.95244-1.4525-0.95244-0.73814 0-1.4048 0.47622-1.8096 1.0834v-0.95244h-0.8691z"/>
        <path d="m34.907-4.7146c-0.50003-0.54765-1.2263-0.84529-2.0358-0.84529-1.262 0-2.0835 0.70242-2.0835 1.512 0 0.95244 1.0239 1.2977 1.3215 1.4048 0.46431 0.16668 1.0596 0.30954 1.4644 0.50003 0.45241 0.2143 0.53575 0.50003 0.53575 0.69052 0 0.51194-0.61909 0.8572-1.3929 0.8572-0.92863 0-1.5239-0.55956-1.7025-0.75005-0.03572-0.047622-0.03572-0.083338-0.03572-0.13096 0-0.011906 0.01191-0.083338-0.04762-0.10715l-0.50003 0.84529c0.6429 0.59528 1.4763 0.8691 2.2978 0.8691 1.4882 0 2.262-0.88101 2.262-1.7025 0-0.36907-0.15477-0.8691-0.79767-1.2263-0.60718-0.34526-1.4882-0.46431-2.0001-0.71433-0.4405-0.2143-0.53575-0.47622-0.53575-0.66671 0-0.4286 0.53575-0.73814 1.1429-0.73814 0.78576 0 1.3096 0.47622 1.512 0.75005 0.03572 0.035717 0.02381 0.071433 0.02381 0.10715 0 0.071433 0.04762 0.095244 0.07143 0.095244z"/>
        <path d="m38.788-5.5599c-1.2977 0-2.5002 0.92863-2.5002 2.9049 0 1.8215 1.131 2.7859 2.6073 2.7859 0.78576 0 1.4882-0.28573 1.9525-0.84529l-0.47622-0.46431c-0.34526 0.40479-0.8691 0.61909-1.4048 0.61909-0.72624 0-1.7858-0.40479-1.8454-2.0358h3.8574c0.03572-0.36907 0.02381-0.72624-0.03572-1.0358-0.25002-1.4644-1.262-1.9287-2.1549-1.9287zm-1.643 2.3097c0.17858-1.2858 1.0001-1.6549 1.5834-1.6549 0.88101 0 1.512 0.77386 1.4048 1.6549z"/>
        <path d="m45.205-4.3455c0-0.36907-0.30954-0.67861-0.70242-0.67861-0.39288 0-0.70242 0.30954-0.70242 0.67861 0 0.38098 0.30954 0.67861 0.70242 0.67861 0.39288 0 0.70242-0.29764 0.70242-0.67861zm0 3.7979c0-0.36907-0.30954-0.67861-0.70242-0.67861-0.39288 0-0.70242 0.30954-0.70242 0.67861 0 0.38098 0.30954 0.69052 0.70242 0.69052 0.39288 0 0.70242-0.30954 0.70242-0.69052z"/>
        <path d="m54.837-5.4408v0.70242h1.3096v4.0598h-1.381v0.67861h3.524v-0.67861h-1.2739v-4.7622zm1.762-2.3573c-0.34526 0-0.61909 0.27383-0.61909 0.60718 0 0.33335 0.27383 0.60718 0.61909 0.60718 0.34526 0 0.61909-0.27383 0.61909-0.60718 0-0.33335-0.27383-0.60718-0.61909-0.60718z"/>
        <path d="m60.337 0h0.8691v-3.1311c0-0.35716 0.04762-0.63099 0.27383-0.92863 0.20239-0.27383 0.72624-0.76195 1.2977-0.76195 0.27383 0 0.54765 0.11906 0.73814 0.34526 0.29764 0.35717 0.29764 0.82148 0.29764 1.2025v3.274h0.84529v-3.2978c0-0.41669 0-0.8691-0.19049-1.3096-0.27383-0.60718-0.83338-0.95244-1.4525-0.95244-0.73814 0-1.4048 0.47622-1.8096 1.0834v-0.95244h-0.8691z"/>
        <path d="m67.718-6.8933-0.10715 1.4644h-1.2977l-0.01191 0.70242h1.2739c-0.07143 0.92863-0.10715 1.8573-0.10715 2.774 0 0.48813 0 1.0358 0.32145 1.4882 0.26192 0.35717 0.67861 0.57146 1.2382 0.57146 0.6429 0 1.2739-0.27383 1.7382-0.60718l-0.26192-0.67861c-0.46431 0.34526-0.89291 0.50003-1.2263 0.50003-0.40479 0-0.82148-0.2262-0.91672-0.88101 0-0.047622-0.03572-0.25002-0.03572-1.0477 0-0.70242 0.03572-1.4168 0.10715-2.1192h1.7858v-0.71433h-1.7739s0.08334-0.97625 0.14287-1.2858c0.0119-0.11906 0.10715-0.19049 0.05953-0.32145z"/>
       </g>
       <g transform="matrix(.9994 0 0 1 203.12 274.48)" aria-label="-">
        <path d="m0.83339-4.1312v0.78576h4.286v-0.78576z" fill="#8ab9e3"/>
       </g>
       <g transform="matrix(.9994 0 0 1 226.92 274.48)" aria-label="health: int">
        <path d="m0.82148 0h0.88101v-3.1311c0-0.35716 0.035716-0.63099 0.26192-0.92863 0.2143-0.27383 0.73814-0.76195 1.3096-0.76195 0.27383 0 0.54765 0.11906 0.73814 0.34526 0.29764 0.35717 0.29764 0.82148 0.29764 1.2025v3.274h0.84529v-3.2978c0-0.41669-0.011906-0.8691-0.20239-1.3096-0.27383-0.60718-0.82148-0.95244-1.4406-0.95244-0.73814 0-1.4168 0.47622-1.8096 1.0834v-3.155c0-0.035717 0-0.071433 0.035716-0.10715 0.035716-0.035717 0.083338-0.071433 0.083338-0.13096 0-0.011905 0-0.023811-0.011905-0.035716h-0.98816z"/>
        <path d="m9.0244-5.5599c-1.2977 0-2.5002 0.92863-2.5002 2.9049 0 1.8215 1.131 2.7859 2.6073 2.7859 0.78576 0 1.4882-0.28573 1.9525-0.84529l-0.47622-0.46431c-0.34526 0.40479-0.8691 0.61909-1.4048 0.61909-0.72624 0-1.7858-0.40479-1.8454-2.0358h3.8574c0.03572-0.36907 0.02381-0.72624-0.03572-1.0358-0.25002-1.4644-1.262-1.9287-2.1549-1.9287zm-1.643 2.3097c0.17858-1.2858 1.0001-1.6549 1.5834-1.6549 0.88101 0 1.512 0.77386 1.4048 1.6549z"/>
        <path d="m12.977-4.7979 0.41669 0.54765c0.45241-0.46431 1.0596-0.60718 1.5715-0.60718 0.6429 0 0.96435 0.27383 1.1191 0.52384 0.17858 0.29764 0.16668 0.6548 0.16668 0.94053v0.19049h-0.16668c-0.80957 0-1.6668 0-2.3573 0.25002-0.8572 0.30954-1.2382 0.95244-1.2382 1.5477 0 0.79767 0.69052 1.5477 1.8215 1.5477 0.66671 0 1.3572-0.25002 1.9525-0.73814v0.59528h0.80957v-3.3693c0-0.4405-0.01191-0.8572-0.26192-1.2858-0.35716-0.58337-1.0477-0.89291-1.893-0.89291-0.72624 0-1.4287 0.2262-1.9406 0.75005zm3.3097 2.2501v0.36907c0 0.27383 0 0.63099-0.36907 1.0239-0.20239 0.20239-0.71433 0.6429-1.4287 0.6429-0.72624 0-1.1429-0.46431-1.1429-0.94053 0-0.40479 0.27383-0.84529 0.95244-1.012 0.50003-0.11906 1.2263-0.083338 1.7977-0.083338z"/>
        <path d="m18.858-7.9053v0.69052h1.5477v6.5361h-1.6191v0.67861h4.0836v-0.67861h-1.6072v-7.2266z"/>
        <path d="m26.049-6.8933-0.10715 1.4644h-1.2977l-0.01191 0.70242h1.2739c-0.07143 0.92863-0.10715 1.8573-0.10715 2.774 0 0.48813 0 1.0358 0.32145 1.4882 0.26192 0.35717 0.67861 0.57146 1.2382 0.57146 0.6429 0 1.2739-0.27383 1.7382-0.60718l-0.26192-0.67861c-0.46432 0.34526-0.89291 0.50003-1.2263 0.50003-0.40479 0-0.82148-0.2262-0.91672-0.88101 0-0.047622-0.03572-0.25002-0.03572-1.0477 0-0.70242 0.03572-1.4168 0.10715-2.1192h1.7858v-0.71433h-1.7739s0.08334-0.97625 0.14287-1.2858c0.01191-0.11906 0.10715-0.19049 0.05953-0.32145z"/>
        <path d="m30.585 0h0.88101v-3.1311c0-0.35716 0.03572-0.63099 0.26192-0.92863 0.2143-0.27383 0.73814-0.76195 1.3096-0.76195 0.27383 0 0.54765 0.11906 0.73814 0.34526 0.29764 0.35717 0.29764 0.82148 0.29764 1.2025v3.274h0.84529v-3.2978c0-0.41669-0.01191-0.8691-0.20239-1.3096-0.27383-0.60718-0.82148-0.95244-1.4406-0.95244-0.73814 0-1.4168 0.47622-1.8096 1.0834v-3.155c0-0.035717 0-0.071433 0.03572-0.10715 0.03572-0.035717 0.08334-0.071433 0.08334-0.13096 0-0.011905 0-0.023811-0.01191-0.035716h-0.98816z"/>
        <path d="m39.252-4.3455c0-0.36907-0.30954-0.67861-0.70242-0.67861-0.39288 0-0.70242 0.30954-0.70242 0.67861 0 0.38098 0.30954 0.67861 0.70242 0.67861 0.39288 0 0.70242-0.29764 0.70242-0.67861zm0 3.7979c0-0.36907-0.30954-0.67861-0.70242-0.67861-0.39288 0-0.70242 0.30954-0.70242 0.67861 0 0.38098 0.30954 0.69052 0.70242 0.69052 0.39288 0 0.70242-0.30954 0.70242-0.69052z"/>
        <path d="m48.884-5.4408v0.70242h1.3096v4.0598h-1.381v0.67861h3.524v-0.67861h-1.2739v-4.7622zm1.762-2.3573c-0.34526 0-0.61909 0.27383-0.61909 0.60718 0 0.33335 0.27383 0.60718 0.61909 0.60718 0.34526 0 0.61909-0.27383 0.61909-0.60718 0-0.33335-0.27383-0.60718-0.61909-0.60718z"/>
        <path d="m54.384 0h0.8691v-3.1311c0-0.35716 0.04762-0.63099 0.27383-0.92863 0.20239-0.27383 0.72624-0.76195 1.2977-0.76195 0.27383 0 0.54765 0.11906 0.73814 0.34526 0.29764 0.35717 0.29764 0.82148 0.29764 1.2025v3.274h0.84529v-3.2978c0-0.41669 0-0.8691-0.19049-1.3096-0.27383-0.60718-0.83338-0.95244-1.4525-0.95244-0.73814 0-1.4048 0.47622-1.8096 1.0834v-0.95244h-0.8691z"/>
        <path d="m61.766-6.8933-0.10715 1.4644h-1.2977l-0.01191 0.70242h1.2739c-0.07143 0.92863-0.10715 1.8573-0.10715 2.774 0 0.48813 0 1.0358 0.32145 1.4882 0.26192 0.35717 0.67861 0.57146 1.2382 0.57146 0.6429 0 1.2739-0.27383 1.7382-0.60718l-0.26192-0.67861c-0.46431 0.34526-0.89291 0.50003-1.2263 0.50003-0.40479 0-0.82148-0.2262-0.91672-0.88101 0-0.047622-0.03572-0.25002-0.03572-1.0477 0-0.70242 0.03572-1.4168 0.10715-2.1192h1.7858v-0.71433h-1.7739s0.08334-0.97625 0.14287-1.2858c0.01191-0.11906 0.10715-0.19049 0.05953-0.32145z"/>
       </g>
       <g transform="matrix(.9994 0 0 1 203.12 286.39)" aria-label="-">
        <path d="m0.83339-4.1312v0.78576h4.286v-0.78576z" fill="#8ab9e3"/>
       </g>
       <g transform="matrix(.9994 0 0 1 226.92 286.39)" aria-label="sprite: Sprite">
        <path d="m5.1432-4.7146c-0.50003-0.54765-1.2263-0.84529-2.0358-0.84529-1.262 0-2.0835 0.70242-2.0835 1.512 0 0.95244 1.0239 1.2977 1.3215 1.4048 0.46431 0.16668 1.0596 0.30954 1.4644 0.50003 0.45241 0.2143 0.53575 0.50003 0.53575 0.69052 0 0.51194-0.61909 0.8572-1.3929 0.8572-0.92863 0-1.5239-0.55956-1.7025-0.75005-0.035716-0.047622-0.035716-0.083338-0.035716-0.13096 0-0.011906 0.011905-0.083338-0.047622-0.10715l-0.50003 0.84529c0.6429 0.59528 1.4763 0.8691 2.2978 0.8691 1.4882 0 2.262-0.88101 2.262-1.7025 0-0.36907-0.15477-0.8691-0.79767-1.2263-0.60718-0.34526-1.4882-0.46431-2.0001-0.71433-0.4405-0.2143-0.53575-0.47622-0.53575-0.66671 0-0.4286 0.53575-0.73814 1.1429-0.73814 0.78576 0 1.3096 0.47622 1.512 0.75005 0.035716 0.035717 0.023811 0.071433 0.023811 0.10715 0 0.071433 0.047622 0.095244 0.071433 0.095244z"/>
        <path d="m6.6552-5.4289 0.011906 7.4171h0.8691v-2.7025c0.36907 0.53575 0.97625 0.8691 1.6311 0.8691 1.1191 0 2.2859-0.94053 2.2859-2.9288 0-1.9168-1.131-2.774-2.2025-2.774-0.70242 0-1.3572 0.35716-1.7263 0.95244v-0.83338zm2.274 0.60718c0.47622 0 1.6311 0.25002 1.6311 2.2263 0 1.7144-1.1191 1.9882-1.6311 1.9882s-1.0358-0.26192-1.2501-0.75005c-0.15477-0.36907-0.15477-0.82148-0.15477-1.6072 0-0.45241 0.023811-0.78576 0.14287-1.0715 0.2143-0.48813 0.71433-0.78576 1.262-0.78576z"/>
        <path d="m13.084-5.4289v5.4408h0.8572v-2.643c0-0.33335 0.01191-0.69052 0.38098-1.2739 0.50003-0.78576 1.1429-0.91672 1.5358-0.91672 0.45241 0 0.73814 0.2143 0.89291 0.40479 0.07143 0.095244 0.10715 0.19049 0.20239 0.27383l0.40479-0.82148c-0.34526-0.35716-0.84529-0.59528-1.4525-0.59528-0.79767 0-1.6072 0.40479-1.9644 1.1786l0.03572-1.0477z"/>
        <path d="m19.12-5.4408v0.70242h1.3096v4.0598h-1.381v0.67861h3.524v-0.67861h-1.2739v-4.7622zm1.762-2.3573c-0.34526 0-0.61909 0.27383-0.61909 0.60718 0 0.33335 0.27383 0.60718 0.61909 0.60718 0.34526 0 0.61909-0.27383 0.61909-0.60718 0-0.33335-0.27383-0.60718-0.61909-0.60718z"/>
        <path d="m26.049-6.8933-0.10715 1.4644h-1.2977l-0.01191 0.70242h1.2739c-0.07143 0.92863-0.10715 1.8573-0.10715 2.774 0 0.48813 0 1.0358 0.32145 1.4882 0.26192 0.35717 0.67861 0.57146 1.2382 0.57146 0.6429 0 1.2739-0.27383 1.7382-0.60718l-0.26192-0.67861c-0.46432 0.34526-0.89291 0.50003-1.2263 0.50003-0.40479 0-0.82148-0.2262-0.91672-0.88101 0-0.047622-0.03572-0.25002-0.03572-1.0477 0-0.70242 0.03572-1.4168 0.10715-2.1192h1.7858v-0.71433h-1.7739s0.08334-0.97625 0.14287-1.2858c0.01191-0.11906 0.10715-0.19049 0.05953-0.32145z"/>
        <path d="m32.835-5.5599c-1.2977 0-2.5002 0.92863-2.5002 2.9049 0 1.8215 1.131 2.7859 2.6073 2.7859 0.78576 0 1.4882-0.28573 1.9525-0.84529l-0.47622-0.46431c-0.34526 0.40479-0.8691 0.61909-1.4048 0.61909-0.72624 0-1.7858-0.40479-1.8454-2.0358h3.8574c0.03572-0.36907 0.02381-0.72624-0.03572-1.0358-0.25002-1.4644-1.262-1.9287-2.1549-1.9287zm-1.643 2.3097c0.17858-1.2858 1.0001-1.6549 1.5834-1.6549 0.88101 0 1.512 0.77386 1.4048 1.6549z"/>
        <path d="m39.252-4.3455c0-0.36907-0.30954-0.67861-0.70242-0.67861-0.39288 0-0.70242 0.30954-0.70242 0.67861 0 0.38098 0.30954 0.67861 0.70242 0.67861 0.39288 0 0.70242-0.29764 0.70242-0.67861zm0 3.7979c0-0.36907-0.30954-0.67861-0.70242-0.67861-0.39288 0-0.70242 0.30954-0.70242 0.67861 0 0.38098 0.30954 0.69052 0.70242 0.69052 0.39288 0 0.70242-0.30954 0.70242-0.69052z"/>
        <path d="m52.789-6.5242c-0.50003-0.60718-1.2382-0.92863-2.0477-0.92863-1.3453 0-2.262 0.88101-2.262 1.9049 0 0.4286 0.16668 0.98816 0.78576 1.4406 0.69052 0.51194 1.762 0.76195 2.3216 1.1191 0.48813 0.29764 0.61909 0.69052 0.61909 1.0239 0 0.6429-0.54765 1.3453-1.6191 1.3453-0.80957 0-1.4406-0.40479-1.7739-0.82148-0.03572-0.047622-0.03572-0.071433-0.03572-0.11906 0-0.023811 0-0.095244-0.04762-0.11906l-0.50003 0.8572c0.58337 0.63099 1.4168 0.95244 2.3335 0.95244 1.8096 0 2.4763-1.2144 2.4763-2.143 0-0.39288-0.11906-0.90482-0.58337-1.3453-0.6429-0.60718-1.6906-0.82148-2.3692-1.2144-0.61909-0.36907-0.75005-0.80957-0.75005-1.1072 0-0.57146 0.48812-1.0834 1.3334-1.0834 0.69052 0 1.2263 0.30954 1.512 0.72624 0.03572 0.047622 0.02381 0.071433 0.02381 0.11906 0 0.071433 0.03572 0.095244 0.05953 0.095244z"/>
        <path d="m54.277-5.4289 0.01191 7.4171h0.8691v-2.7025c0.36907 0.53575 0.97625 0.8691 1.6311 0.8691 1.1191 0 2.2859-0.94053 2.2859-2.9288 0-1.9168-1.131-2.774-2.2025-2.774-0.70242 0-1.3572 0.35716-1.7263 0.95244v-0.83338zm2.274 0.60718c0.47622 0 1.6311 0.25002 1.6311 2.2263 0 1.7144-1.1191 1.9882-1.6311 1.9882-0.51194 0-1.0358-0.26192-1.2501-0.75005-0.15477-0.36907-0.15477-0.82148-0.15477-1.6072 0-0.45241 0.02381-0.78576 0.14287-1.0715 0.2143-0.48813 0.71433-0.78576 1.262-0.78576z"/>
        <path d="m60.706-5.4289v5.4408h0.8572v-2.643c0-0.33335 0.0119-0.69052 0.38098-1.2739 0.50003-0.78576 1.1429-0.91672 1.5358-0.91672 0.45241 0 0.73814 0.2143 0.89291 0.40479 0.07143 0.095244 0.10715 0.19049 0.20239 0.27383l0.40479-0.82148c-0.34526-0.35716-0.84529-0.59528-1.4525-0.59528-0.79767 0-1.6072 0.40479-1.9644 1.1786l0.03572-1.0477z"/>
        <path d="m66.742-5.4408v0.70242h1.3096v4.0598h-1.381v0.67861h3.524v-0.67861h-1.2739v-4.7622zm1.762-2.3573c-0.34526 0-0.61909 0.27383-0.61909 0.60718 0 0.33335 0.27383 0.60718 0.61909 0.60718 0.34526 0 0.61909-0.27383 0.61909-0.60718 0-0.33335-0.27383-0.60718-0.61909-0.60718z"/>
        <path d="m73.671-6.8933-0.10715 1.4644h-1.2977l-0.01191 0.70242h1.2739c-0.07143 0.92863-0.10715 1.8573-0.10715 2.774 0 0.48813 0 1.0358 0.32145 1.4882 0.26192 0.35717 0.67861 0.57146 1.2382 0.57146 0.6429 0 1.2739-0.27383 1.7382-0.60718l-0.26192-0.67861c-0.46432 0.34526-0.89291 0.50003-1.2263 0.50003-0.40479 0-0.82148-0.2262-0.91672-0.88101 0-0.047622-0.03572-0.25002-0.03572-1.0477 0-0.70242 0.03572-1.4168 0.10715-2.1192h1.7858v-0.71433h-1.7739s0.08334-0.97625 0.14287-1.2858c0.01191-0.11906 0.10715-0.19049 0.05953-0.32145z"/>
        <path d="m80.457-5.5599c-1.2977 0-2.5002 0.92863-2.5002 2.9049 0 1.8215 1.131 2.7859 2.6073 2.7859 0.78576 0 1.4882-0.28573 1.9525-0.84529l-0.47622-0.46431c-0.34526 0.40479-0.8691 0.61909-1.4048 0.61909-0.72624 0-1.7858-0.40479-1.8454-2.0358h3.8574c0.03572-0.36907 0.02381-0.72624-0.03572-1.0358-0.25002-1.4644-1.262-1.9287-2.1549-1.9287zm-1.643 2.3097c0.17858-1.2858 1.0001-1.6549 1.5834-1.6549 0.88101 0 1.512 0.77386 1.4048 1.6549z"/>
       </g>
       <g transform="matrix(.9994 0 0 1 203.12 298.3)" aria-label="-">
        <path d="m0.83339-4.1312v0.78576h4.286v-0.78576z" fill="#8ab9e3"/>
       </g>
       <g transform="matrix(.9994 0 0 1 226.92 298.3)" aria-label="state: int">
        <path d="m5.1432-4.7146c-0.50003-0.54765-1.2263-0.84529-2.0358-0.84529-1.262 0-2.0835 0.70242-2.0835 1.512 0 0.95244 1.0239 1.2977 1.3215 1.4048 0.46431 0.16668 1.0596 0.30954 1.4644 0.50003 0.45241 0.2143 0.53575 0.50003 0.53575 0.69052 0 0.51194-0.61909 0.8572-1.3929 0.8572-0.92863 0-1.5239-0.55956-1.7025-0.75005-0.035716-0.047622-0.035716-0.083338-0.035716-0.13096 0-0.011906 0.011905-0.083338-0.047622-0.10715l-0.50003 0.84529c0.6429 0.59528 1.4763 0.8691 2.2978 0.8691 1.4882 0 2.262-0.88101 2.262-1.7025 0-0.36907-0.15477-0.8691-0.79767-1.2263-0.60718-0.34526-1.4882-0.46431-2.0001-0.71433-0.4405-0.2143-0.53575-0.47622-0.53575-0.66671 0-0.4286 0.53575-0.73814 1.1429-0.73814 0.78576 0 1.3096 0.47622 1.512 0.75005 0.035716 0.035717 0.023811 0.071433 0.023811 0.10715 0 0.071433 0.047622 0.095244 0.071433 0.095244z"/>
        <path d="m8.191-6.8933-0.10715 1.4644h-1.2977l-0.011906 0.70242h1.2739c-0.071433 0.92863-0.10715 1.8573-0.10715 2.774 0 0.48813 0 1.0358 0.32145 1.4882 0.26192 0.35717 0.67861 0.57146 1.2382 0.57146 0.6429 0 1.2739-0.27383 1.7382-0.60718l-0.26192-0.67861c-0.46431 0.34526-0.89291 0.50003-1.2263 0.50003-0.40479 0-0.82148-0.2262-0.91672-0.88101 0-0.047622-0.035716-0.25002-0.035716-1.0477 0-0.70242 0.035716-1.4168 0.10715-2.1192h1.7858v-0.71433h-1.7739s0.083338-0.97625 0.14287-1.2858c0.011906-0.11906 0.10715-0.19049 0.059527-0.32145z"/>
        <path d="m12.977-4.7979 0.41669 0.54765c0.45241-0.46431 1.0596-0.60718 1.5715-0.60718 0.6429 0 0.96435 0.27383 1.1191 0.52384 0.17858 0.29764 0.16668 0.6548 0.16668 0.94053v0.19049h-0.16668c-0.80957 0-1.6668 0-2.3573 0.25002-0.8572 0.30954-1.2382 0.95244-1.2382 1.5477 0 0.79767 0.69052 1.5477 1.8215 1.5477 0.66671 0 1.3572-0.25002 1.9525-0.73814v0.59528h0.80957v-3.3693c0-0.4405-0.01191-0.8572-0.26192-1.2858-0.35716-0.58337-1.0477-0.89291-1.893-0.89291-0.72624 0-1.4287 0.2262-1.9406 0.75005zm3.3097 2.2501v0.36907c0 0.27383 0 0.63099-0.36907 1.0239-0.20239 0.20239-0.71433 0.6429-1.4287 0.6429-0.72624 0-1.1429-0.46431-1.1429-0.94053 0-0.40479 0.27383-0.84529 0.95244-1.012 0.50003-0.11906 1.2263-0.083338 1.7977-0.083338z"/>
        <path d="m20.096-6.8933-0.10715 1.4644h-1.2977l-0.01191 0.70242h1.2739c-0.07143 0.92863-0.10715 1.8573-0.10715 2.774 0 0.48813 0 1.0358 0.32145 1.4882 0.26192 0.35717 0.67861 0.57146 1.2382 0.57146 0.6429 0 1.2739-0.27383 1.7382-0.60718l-0.26192-0.67861c-0.46432 0.34526-0.89291 0.50003-1.2263 0.50003-0.40479 0-0.82148-0.2262-0.91672-0.88101 0-0.047622-0.03572-0.25002-0.03572-1.0477 0-0.70242 0.03572-1.4168 0.10715-2.1192h1.7858v-0.71433h-1.7739s0.08334-0.97625 0.14287-1.2858c0.01191-0.11906 0.10715-0.19049 0.05953-0.32145z"/>
        <path d="m26.883-5.5599c-1.2977 0-2.5002 0.92863-2.5002 2.9049 0 1.8215 1.131 2.7859 2.6073 2.7859 0.78576 0 1.4882-0.28573 1.9525-0.84529l-0.47622-0.46431c-0.34526 0.40479-0.8691 0.61909-1.4048 0.61909-0.72624 0-1.7858-0.40479-1.8454-2.0358h3.8574c0.03572-0.36907 0.02381-0.72624-0.03572-1.0358-0.25001-1.4644-1.262-1.9287-2.1549-1.9287zm-1.643 2.3097c0.17858-1.2858 1.0001-1.6549 1.5834-1.6549 0.88101 0 1.512 0.77386 1.4048 1.6549z"/>
        <path d="m33.3-4.3455c0-0.36907-0.30954-0.67861-0.70242-0.67861-0.39288 0-0.70242 0.30954-0.70242 0.67861 0 0.38098 0.30954 0.67861 0.70242 0.67861 0.39288 0 0.70242-0.29764 0.70242-0.67861zm0 3.7979c0-0.36907-0.30954-0.67861-0.70242-0.67861-0.39288 0-0.70242 0.30954-0.70242 0.67861 0 0.38098 0.30954 0.69052 0.70242 0.69052 0.39288 0 0.70242-0.30954 0.70242-0.69052z"/>
        <path d="m42.931-5.4408v0.70242h1.3096v4.0598h-1.381v0.67861h3.524v-0.67861h-1.2739v-4.7622zm1.762-2.3573c-0.34526 0-0.61909 0.27383-0.61909 0.60718 0 0.33335 0.27383 0.60718 0.61909 0.60718 0.34526 0 0.61909-0.27383 0.61909-0.60718 0-0.33335-0.27383-0.60718-0.61909-0.60718z"/>
        <path d="m48.432 0h0.8691v-3.1311c0-0.35716 0.04762-0.63099 0.27383-0.92863 0.20239-0.27383 0.72624-0.76195 1.2977-0.76195 0.27383 0 0.54765 0.11906 0.73814 0.34526 0.29764 0.35717 0.29764 0.82148 0.29764 1.2025v3.274h0.84529v-3.2978c0-0.41669 0-0.8691-0.19049-1.3096-0.27383-0.60718-0.83338-0.95244-1.4525-0.95244-0.73814 0-1.4048 0.47622-1.8096 1.0834v-0.95244h-0.8691z"/>
        <path d="m55.813-6.8933-0.10715 1.4644h-1.2977l-0.01191 0.70242h1.2739c-0.07143 0.92863-0.10715 1.8573-0.10715 2.774 0 0.48813 0 1.0358 0.32145 1.4882 0.26192 0.35717 0.67861 0.57146 1.2382 0.57146 0.6429 0 1.2739-0.27383 1.7382-0.60718l-0.26192-0.67861c-0.46432 0.34526-0.89291 0.50003-1.2263 0.50003-0.40479 0-0.82148-0.2262-0.91672-0.88101 0-0.047622-0.03572-0.25002-0.03572-1.0477 0-0.70242 0.03572-1.4168 0.10715-2.1192h1.7858v-0.71433h-1.7739s0.08334-0.97625 0.14287-1.2858c0.01191-0.11906 0.10715-0.19049 0.05953-0.32145z"/>
       </g>
       <g transform="matrix(.9994 0 0 1 203.12 310.21)" aria-label="-">
        <path d="m0.83339-4.1312v0.78576h4.286v-0.78576z" fill="#8ab9e3"/>
       </g>
       <g transform="matrix(.9994 0 0 1 226.92 310.21)" aria-label="type: String">
        <path d="m2.2382-6.8933-0.10715 1.4644h-1.2977l-0.011906 0.70242h1.2739c-0.071433 0.92863-0.10715 1.8573-0.10715 2.774 0 0.48813 0 1.0358 0.32145 1.4882 0.26192 0.35717 0.67861 0.57146 1.2382 0.57146 0.6429 0 1.2739-0.27383 1.7382-0.60718l-0.26192-0.67861c-0.46431 0.34526-0.89291 0.50003-1.2263 0.50003-0.40479 0-0.82148-0.2262-0.91672-0.88101 0-0.047622-0.035717-0.25002-0.035717-1.0477 0-0.70242 0.035717-1.4168 0.10715-2.1192h1.7858v-0.71433h-1.7739s0.083338-0.97625 0.14287-1.2858c0.011906-0.11906 0.10715-0.19049 0.059528-0.32145z"/>
        <path d="m6.4885-5.4289 2.2144 5.417-0.17858 0.39288c-0.095244 0.2262-0.20239 0.45241-0.36907 0.63099-0.2262 0.25002-0.51194 0.35716-0.76195 0.35716-0.40479 0-0.60718-0.27383-0.6429-0.32145-0.035716-0.059527-0.023811-0.14287-0.095244-0.20239l-0.4405 0.77386c0.30954 0.29764 0.72624 0.45241 1.1786 0.45241 0.48813 0 1.0001-0.17858 1.3572-0.58337 0.23811-0.27383 0.35716-0.55956 0.47622-0.8691l1.6906-4.4884c0.20239-0.51194 0.38098-1.0358 0.54765-1.5715h-0.89291c-0.09524 0.50003-0.25002 0.97625-0.41669 1.4525l-1.0358 2.9168-1.5953-4.0122c-0.011906-0.035716-0.011906-0.059527-0.011906-0.095244 0-0.083339 0.059527-0.14287 0.047622-0.25002z"/>
        <path d="m12.608-5.4289 0.01191 7.4171h0.8691v-2.7025c0.36907 0.53575 0.97625 0.8691 1.6311 0.8691 1.1191 0 2.2859-0.94053 2.2859-2.9288 0-1.9168-1.131-2.774-2.2025-2.774-0.70242 0-1.3572 0.35716-1.7263 0.95244v-0.83338zm2.274 0.60718c0.47622 0 1.6311 0.25002 1.6311 2.2263 0 1.7144-1.1191 1.9882-1.6311 1.9882-0.51194 0-1.0358-0.26192-1.2501-0.75005-0.15477-0.36907-0.15477-0.82148-0.15477-1.6072 0-0.45241 0.02381-0.78576 0.14287-1.0715 0.2143-0.48813 0.71433-0.78576 1.262-0.78576z"/>
        <path d="m20.93-5.5599c-1.2977 0-2.5002 0.92863-2.5002 2.9049 0 1.8215 1.131 2.7859 2.6073 2.7859 0.78576 0 1.4882-0.28573 1.9525-0.84529l-0.47622-0.46431c-0.34526 0.40479-0.8691 0.61909-1.4048 0.61909-0.72624 0-1.7858-0.40479-1.8454-2.0358h3.8574c0.03572-0.36907 0.02381-0.72624-0.03572-1.0358-0.25002-1.4644-1.262-1.9287-2.1549-1.9287zm-1.643 2.3097c0.17858-1.2858 1.0001-1.6549 1.5834-1.6549 0.88101 0 1.512 0.77386 1.4048 1.6549z"/>
        <path d="m27.347-4.3455c0-0.36907-0.30954-0.67861-0.70242-0.67861-0.39288 0-0.70242 0.30954-0.70242 0.67861 0 0.38098 0.30954 0.67861 0.70242 0.67861 0.39288 0 0.70242-0.29764 0.70242-0.67861zm0 3.7979c0-0.36907-0.30954-0.67861-0.70242-0.67861-0.39288 0-0.70242 0.30954-0.70242 0.67861 0 0.38098 0.30954 0.69052 0.70242 0.69052 0.39288 0 0.70242-0.30954 0.70242-0.69052z"/>
        <path d="m40.883-6.5242c-0.50003-0.60718-1.2382-0.92863-2.0477-0.92863-1.3453 0-2.262 0.88101-2.262 1.9049 0 0.4286 0.16668 0.98816 0.78576 1.4406 0.69052 0.51194 1.762 0.76195 2.3216 1.1191 0.48812 0.29764 0.61909 0.69052 0.61909 1.0239 0 0.6429-0.54765 1.3453-1.6191 1.3453-0.80957 0-1.4406-0.40479-1.7739-0.82148-0.03572-0.047622-0.03572-0.071433-0.03572-0.11906 0-0.023811 0-0.095244-0.04762-0.11906l-0.50003 0.8572c0.58337 0.63099 1.4168 0.95244 2.3335 0.95244 1.8096 0 2.4763-1.2144 2.4763-2.143 0-0.39288-0.11906-0.90482-0.58337-1.3453-0.6429-0.60718-1.6906-0.82148-2.3692-1.2144-0.61909-0.36907-0.75005-0.80957-0.75005-1.1072 0-0.57146 0.48813-1.0834 1.3334-1.0834 0.69052 0 1.2263 0.30954 1.512 0.72624 0.03572 0.047622 0.02381 0.071433 0.02381 0.11906 0 0.071433 0.03572 0.095244 0.05953 0.095244z"/>
        <path d="m43.907-6.8933-0.10715 1.4644h-1.2977l-0.01191 0.70242h1.2739c-0.07143 0.92863-0.10715 1.8573-0.10715 2.774 0 0.48813 0 1.0358 0.32145 1.4882 0.26192 0.35717 0.67861 0.57146 1.2382 0.57146 0.6429 0 1.2739-0.27383 1.7382-0.60718l-0.26192-0.67861c-0.46432 0.34526-0.89291 0.50003-1.2263 0.50003-0.40479 0-0.82148-0.2262-0.91672-0.88101 0-0.047622-0.03572-0.25002-0.03572-1.0477 0-0.70242 0.03572-1.4168 0.10715-2.1192h1.7858v-0.71433h-1.7739s0.08334-0.97625 0.14287-1.2858c0.01191-0.11906 0.10715-0.19049 0.05953-0.32145z"/>
        <path d="m48.801-5.4289v5.4408h0.8572v-2.643c0-0.33335 0.01191-0.69052 0.38098-1.2739 0.50003-0.78576 1.1429-0.91672 1.5358-0.91672 0.45241 0 0.73814 0.2143 0.89291 0.40479 0.07143 0.095244 0.10715 0.19049 0.20239 0.27383l0.40479-0.82148c-0.34526-0.35716-0.84529-0.59528-1.4525-0.59528-0.79767 0-1.6072 0.40479-1.9644 1.1786l0.03572-1.0477z"/>
        <path d="m54.837-5.4408v0.70242h1.3096v4.0598h-1.381v0.67861h3.524v-0.67861h-1.2739v-4.7622zm1.762-2.3573c-0.34526 0-0.61909 0.27383-0.61909 0.60718 0 0.33335 0.27383 0.60718 0.61909 0.60718 0.34526 0 0.61909-0.27383 0.61909-0.60718 0-0.33335-0.27383-0.60718-0.61909-0.60718z"/>
        <path d="m60.337 0h0.8691v-3.1311c0-0.35716 0.04762-0.63099 0.27383-0.92863 0.20239-0.27383 0.72624-0.76195 1.2977-0.76195 0.27383 0 0.54765 0.11906 0.73814 0.34526 0.29764 0.35717 0.29764 0.82148 0.29764 1.2025v3.274h0.84529v-3.2978c0-0.41669 0-0.8691-0.19049-1.3096-0.27383-0.60718-0.83338-0.95244-1.4525-0.95244-0.73814 0-1.4048 0.47622-1.8096 1.0834v-0.95244h-0.8691z"/>
        <path d="m66.968-3.7383c0-0.6548 0.54765-1.1906 1.2025-1.1906 0.66671 0 1.2025 0.53575 1.2025 1.1906 0 0.6548-0.53575 1.1906-1.2025 1.1906s-1.2025-0.53575-1.2025-1.1906zm1.2501-1.8692c-1.0834 0-2.0239 0.8572-2.0239 1.9168 0 0.59528 0.29764 1.1548 0.79767 1.4763-0.39288 0.33335-0.61909 0.70242-0.61909 1.0477 0 0.2262 0.09524 0.54765 0.4405 0.72624-0.58337 0.36907-0.88101 0.77386-0.88101 1.2025 0 0.59527 0.54765 1.2977 2.4525 1.2977 1.8454 0 2.5121-0.94053 2.5121-1.6668 0-0.47622-0.27383-0.95244-0.84529-1.1786-0.57146-0.23811-1.2263-0.15477-1.8454-0.15477-0.40479 0-0.66671-0.035716-0.77386-0.071433-0.2143-0.059528-0.33335-0.19049-0.33335-0.35716 0-0.28573 0.33335-0.55956 0.39288-0.60718 0.2143 0.083338 0.45241 0.11906 0.69052 0.11906 1.0715 0 1.9525-0.8572 1.9525-1.8573 0-0.33335-0.09524-0.6548-0.27383-0.92863 0.28573-0.16668 0.61909-0.26192 0.95244-0.26192 0.10715 0 0.20239 0.011906 0.30954 0.035717l-0.09524-0.70242c-0.54765-0.047622-1.0953 0.13096-1.512 0.47622-0.34526-0.33335-0.79767-0.51194-1.2977-0.51194zm-0.82148 5.3218c0.20239 0.023811 0.48812 0.047622 0.90482 0.071433 0.40479 0.011906 0.84529-0.023811 1.1548 0.023811 0.50003 0.083338 0.6548 0.39288 0.6548 0.63099 0 0.23811-0.14287 0.52384-0.51194 0.72624-0.40479 0.2143-0.8572 0.23811-1.2263 0.23811-0.25002 0-0.71433-0.011906-1.1191-0.17858-0.4405-0.17858-0.53575-0.47622-0.53575-0.66671 0-0.39288 0.36907-0.67861 0.67861-0.84529z"/>
       </g>
      </g>
      <path d="m493 230.18c0.951 0 1.652 0.744 1.652 1.653v48.945c0 0.951-0.701 1.654-1.652 1.654h-79.986c-0.908 0-1.652-0.703-1.652-1.654v-48.945c0-0.909 0.744-1.653 1.652-1.653z" clip-rule="evenodd" fill="#3c3c18" fill-opacity=".38431" fill-rule="evenodd"/>
      <path d="m493 230.18c0.951 0 1.652 0.744 1.652 1.653v48.945c0 0.951-0.701 1.654-1.652 1.654v0h-79.986v0c-0.908 0-1.652-0.703-1.652-1.654v-48.945c0-0.909 0.744-1.653 1.652-1.653v0z" fill="none" stroke="#e9e66f" stroke-linecap="round" stroke-linejoin="round" stroke-miterlimit="10" stroke-width=".6614"/>
      <g transform="matrix(.9994 0 0 1 432.51 246.04)" fill="#e9e66f" aria-label="Ability">
       <path d="m0.16668 0.011906h0.82148l0.72624-2.1787h2.3454l0.82148 2.1668h0.8691l-2.8692-7.5481h-0.095244zm3.7145-2.8216h-2.012l0.96435-2.8216z"/>
       <path d="m6.6552-7.9172v7.9172h0.55956l0.29764-0.71433c0.35716 0.53575 0.95244 0.8572 1.6072 0.8572 1.1191 0 2.274-0.95244 2.274-2.9288 0-1.893-1.1191-2.774-2.1906-2.774-0.69052 0-1.3334 0.36907-1.6787 0.96435v-3.0478c0-0.071433 0.011905-0.095244 0.071433-0.14287 0.023811-0.011905 0.083338-0.059527 0.071433-0.13096zm2.2501 3.0954c0.51194 0 1.5953 0.29764 1.5953 2.2263 0 1.6549-1.0715 1.9644-1.6072 1.9644-0.36907 0-1.1906-0.14287-1.3334-1.1906-0.035716-0.27383-0.035716-0.59528-0.035716-1.0715 0-0.48813 0.023811-0.84529 0.14287-1.1429 0.20239-0.48813 0.70242-0.78576 1.2382-0.78576z"/>
       <path d="m13.167-5.4408v0.70242h1.3096v4.0598h-1.381v0.67861h3.524v-0.67861h-1.2739v-4.7622zm1.762-2.3573c-0.34526 0-0.61909 0.27383-0.61909 0.60718 0 0.33335 0.27383 0.60718 0.61909 0.60718 0.34526 0 0.61909-0.27383 0.61909-0.60718 0-0.33335-0.27383-0.60718-0.61909-0.60718z"/>
       <path d="m18.858-7.9053v0.69052h1.5477v6.5361h-1.6191v0.67861h4.0836v-0.67861h-1.6072v-7.2266z"/>
       <path d="m25.073-5.4408v0.70242h1.3096v4.0598h-1.381v0.67861h3.524v-0.67861h-1.2739v-4.7622zm1.762-2.3573c-0.34526 0-0.61909 0.27383-0.61909 0.60718 0 0.33335 0.27383 0.60718 0.61909 0.60718 0.34526 0 0.61909-0.27383 0.61909-0.60718 0-0.33335-0.27383-0.60718-0.61909-0.60718z"/>
       <path d="m32.002-6.8933-0.10715 1.4644h-1.2977l-0.0119 0.70242h1.2739c-0.07143 0.92863-0.10715 1.8573-0.10715 2.774 0 0.48813 0 1.0358 0.32145 1.4882 0.26192 0.35717 0.67861 0.57146 1.2382 0.57146 0.6429 0 1.2739-0.27383 1.7382-0.60718l-0.26193-0.67861c-0.46431 0.34526-0.89291 0.50003-1.2263 0.50003-0.40479 0-0.82148-0.2262-0.91672-0.88101 0-0.047622-0.03572-0.25002-0.03572-1.0477 0-0.70242 0.03572-1.4168 0.10715-2.1192h1.7858v-0.71433h-1.7739s0.08334-0.97625 0.14287-1.2858c0.0119-0.11906 0.10715-0.19049 0.05953-0.32145z"/>
       <path d="m36.252-5.4289 2.2144 5.417-0.17858 0.39288c-0.09524 0.2262-0.20239 0.45241-0.36907 0.63099-0.2262 0.25002-0.51194 0.35716-0.76195 0.35716-0.40479 0-0.60718-0.27383-0.6429-0.32145-0.03572-0.059528-0.02381-0.14287-0.09524-0.20239l-0.44051 0.77386c0.30954 0.29764 0.72624 0.45241 1.1786 0.45241 0.48812 0 1.0001-0.17858 1.3572-0.58337 0.23811-0.27383 0.35716-0.55956 0.47622-0.8691l1.6906-4.4884c0.20239-0.51194 0.38098-1.0358 0.54765-1.5715h-0.89291c-0.09524 0.50003-0.25002 0.97625-0.41669 1.4525l-1.0358 2.9168-1.5953-4.0122c-0.0119-0.035716-0.0119-0.059527-0.0119-0.095244 0-0.083339 0.05953-0.14287 0.04762-0.25002z"/>
      </g>
      <line x1="411.36" x2="494.65" y1="251.34" y2="251.34" fill="none" stroke="#e9e66f" stroke-linecap="round" stroke-linejoin="round" stroke-miterlimit="10" stroke-width=".6614"/>
      <g transform="matrix(.9994 0 0 1 414.65 263.91)" fill="#8ab9e3" aria-label="-">
       <path d="m0.83339-4.1312v0.78576h4.286v-0.78576z" fill="#8ab9e3"/>
      </g>
      <g transform="matrix(.9994 0 0 1 438.46 263.91)" fill="#8ab9e3" aria-label="type: int">
       <path d="m2.2382-6.8933-0.10715 1.4644h-1.2977l-0.011906 0.70242h1.2739c-0.071433 0.92863-0.10715 1.8573-0.10715 2.774 0 0.48813 0 1.0358 0.32145 1.4882 0.26192 0.35717 0.67861 0.57146 1.2382 0.57146 0.6429 0 1.2739-0.27383 1.7382-0.60718l-0.26192-0.67861c-0.46431 0.34526-0.89291 0.50003-1.2263 0.50003-0.40479 0-0.82148-0.2262-0.91672-0.88101 0-0.047622-0.035717-0.25002-0.035717-1.0477 0-0.70242 0.035717-1.4168 0.10715-2.1192h1.7858v-0.71433h-1.7739s0.083338-0.97625 0.14287-1.2858c0.011906-0.11906 0.10715-0.19049 0.059528-0.32145z"/>
       <path d="m6.4885-5.4289 2.2144 5.417-0.17858 0.39288c-0.095244 0.2262-0.20239 0.45241-0.36907 0.63099-0.2262 0.25002-0.51194 0.35716-0.76195 0.35716-0.40479 0-0.60718-0.27383-0.6429-0.32145-0.035716-0.059527-0.023811-0.14287-0.095244-0.20239l-0.4405 0.77386c0.30954 0.29764 0.72624 0.45241 1.1786 0.45241 0.48813 0 1.0001-0.17858 1.3572-0.58337 0.23811-0.27383 0.35716-0.55956 0.47622-0.8691l1.6906-4.4884c0.20239-0.51194 0.38098-1.0358 0.54765-1.5715h-0.89291c-0.09524 0.50003-0.25002 0.97625-0.41669 1.4525l-1.0358 2.9168-1.5953-4.0122c-0.011906-0.035716-0.011906-0.059527-0.011906-0.095244 0-0.083339 0.059527-0.14287 0.047622-0.25002z"/>
       <path d="m12.608-5.4289 0.01191 7.4171h0.8691v-2.7025c0.36907 0.53575 0.97625 0.8691 1.6311 0.8691 1.1191 0 2.2859-0.94053 2.2859-2.9288 0-1.9168-1.131-2.774-2.2025-2.774-0.70242 0-1.3572 0.35716-1.7263 0.95244v-0.83338zm2.274 0.60718c0.47622 0 1.6311 0.25002 1.6311 2.2263 0 1.7144-1.1191 1.9882-1.6311 1.9882-0.51194 0-1.0358-0.26192-1.2501-0.75005-0.15477-0.36907-0.15477-0.82148-0.15477-1.6072 0-0.45241 0.02381-0.78576 0.14287-1.0715 0.2143-0.48813 0.71433-0.78576 1.262-0.78576z"/>
       <path d="m20.93-5.5599c-1.2977 0-2.5002 0.92863-2.5002 2.9049 0 1.8215 1.131 2.7859 2.6073 2.7859 0.78576 0 1.4882-0.28573 1.9525-0.84529l-0.47622-0.46431c-0.34526 0.40479-0.8691 0.61909-1.4048 0.61909-0.72624 0-1.7858-0.40479-1.8454-2.0358h3.8574c0.03572-0.36907 0.02381-0.72624-0.03572-1.0358-0.25002-1.4644-1.262-1.9287-2.1549-1.9287zm-1.643 2.3097c0.17858-1.2858 1.0001-1.6549 1.5834-1.6549 0.88101 0 1.512 0.77386 1.4048 1.6549z"/>
       <path d="m27.347-4.3455c0-0.36907-0.30954-0.67861-0.70242-0.67861-0.39288 0-0.70242 0.30954-0.70242 0.67861 0 0.38098 0.30954 0.67861 0.70242 0.67861 0.39288 0 0.70242-0.29764 0.70242-0.67861zm0 3.7979c0-0.36907-0.30954-0.67861-0.70242-0.67861-0.39288 0-0.70242 0.30954-0.70242 0.67861 0 0.38098 0.30954 0.69052 0.70242 0.69052 0.39288 0 0.70242-0.30954 0.70242-0.69052z"/>
       <path d="m36.978-5.4408v0.70242h1.3096v4.0598h-1.381v0.67861h3.524v-0.67861h-1.2739v-4.7622zm1.762-2.3573c-0.34526 0-0.61909 0.27383-0.61909 0.60718 0 0.33335 0.27383 0.60718 0.61909 0.60718 0.34526 0 0.61909-0.27383 0.61909-0.60718 0-0.33335-0.27383-0.60718-0.61909-0.60718z"/>
       <path d="m42.479 0h0.8691v-3.1311c0-0.35716 0.04762-0.63099 0.27383-0.92863 0.20239-0.27383 0.72624-0.76195 1.2977-0.76195 0.27383 0 0.54765 0.11906 0.73814 0.34526 0.29764 0.35717 0.29764 0.82148 0.29764 1.2025v3.274h0.84529v-3.2978c0-0.41669 0-0.8691-0.19049-1.3096-0.27383-0.60718-0.83338-0.95244-1.4525-0.95244-0.73814 0-1.4048 0.47622-1.8096 1.0834v-0.95244h-0.8691z"/>
       <path d="m49.86-6.8933-0.10715 1.4644h-1.2977l-0.01191 0.70242h1.2739c-0.07143 0.92863-0.10715 1.8573-0.10715 2.774 0 0.48813 0 1.0358 0.32145 1.4882 0.26192 0.35717 0.67861 0.57146 1.2382 0.57146 0.6429 0 1.2739-0.27383 1.7382-0.60718l-0.26192-0.67861c-0.46432 0.34526-0.89291 0.50003-1.2263 0.50003-0.40479 0-0.82148-0.2262-0.91672-0.88101 0-0.047622-0.03572-0.25002-0.03572-1.0477 0-0.70242 0.03572-1.4168 0.10715-2.1192h1.7858v-0.71433h-1.7739s0.08334-0.97625 0.14287-1.2858c0.01191-0.11906 0.10715-0.19049 0.05953-0.32145z"/>
      </g>
      <path d="m331.04 375.69c0.951 0 1.654 0.744 1.654 1.653v58.866c0 0.951-0.703 1.653-1.654 1.653h-129.56c-0.909 0-1.652-0.702-1.652-1.653v-58.866c0-0.909 0.744-1.653 1.652-1.653z" clip-rule="evenodd" fill="#3c3c18" fill-opacity=".38431" fill-rule="evenodd"/>
      <path d="m331.04 375.69c0.951 0 1.654 0.744 1.654 1.653v58.866c0 0.951-0.703 1.653-1.654 1.653v0h-129.56v0c-0.909 0-1.652-0.702-1.652-1.653v-58.866c0-0.909 0.744-1.653 1.652-1.653v0z" fill="none" stroke="#e9e66f" stroke-linecap="round" stroke-linejoin="round" stroke-miterlimit="10" stroke-width=".6614"/>
      <g transform="matrix(.9994 0 0 1 248.74 391.55)" fill="#e9e66f" aria-label="Player">
       <path d="m0.69052-7.4171v7.4171h0.8691v-3.274h1.4525c0.46431 0 0.90482-0.011906 1.3572-0.23811 0.69052-0.34526 1.0477-1.0596 1.0477-1.8096s-0.35716-1.4763-1.0596-1.8334c-0.46431-0.25002-0.92863-0.26192-1.4048-0.26192zm0.8691 0.78576h1.3929c0.30954 0 0.60718 0.011905 0.91672 0.15477 0.45241 0.23811 0.70242 0.71433 0.70242 1.1906s-0.23811 0.91672-0.66671 1.131c-0.28573 0.14287-0.57146 0.15477-0.8572 0.15477h-1.5001z"/>
       <path d="m6.9528-7.9053v0.69052h1.5477v6.5361h-1.6191v0.67861h4.0836v-0.67861h-1.6072v-7.2266z"/>
       <path d="m12.977-4.7979 0.41669 0.54765c0.45241-0.46431 1.0596-0.60718 1.5715-0.60718 0.6429 0 0.96435 0.27383 1.1191 0.52384 0.17858 0.29764 0.16668 0.6548 0.16668 0.94053v0.19049h-0.16668c-0.80957 0-1.6668 0-2.3573 0.25002-0.8572 0.30954-1.2382 0.95244-1.2382 1.5477 0 0.79767 0.69052 1.5477 1.8215 1.5477 0.66671 0 1.3572-0.25002 1.9525-0.73814v0.59528h0.80957v-3.3693c0-0.4405-0.01191-0.8572-0.26192-1.2858-0.35716-0.58337-1.0477-0.89291-1.893-0.89291-0.72624 0-1.4287 0.2262-1.9406 0.75005zm3.3097 2.2501v0.36907c0 0.27383 0 0.63099-0.36907 1.0239-0.20239 0.20239-0.71433 0.6429-1.4287 0.6429-0.72624 0-1.1429-0.46431-1.1429-0.94053 0-0.40479 0.27383-0.84529 0.95244-1.012 0.50003-0.11906 1.2263-0.083338 1.7977-0.083338z"/>
       <path d="m18.394-5.4289 2.2144 5.417-0.17858 0.39288c-0.09524 0.2262-0.20239 0.45241-0.36907 0.63099-0.2262 0.25002-0.51194 0.35716-0.76195 0.35716-0.40479 0-0.60718-0.27383-0.6429-0.32145-0.03572-0.059528-0.02381-0.14287-0.09524-0.20239l-0.44051 0.77386c0.30954 0.29764 0.72624 0.45241 1.1786 0.45241 0.48813 0 1.0001-0.17858 1.3572-0.58337 0.23811-0.27383 0.35716-0.55956 0.47622-0.8691l1.6906-4.4884c0.20239-0.51194 0.38098-1.0358 0.54765-1.5715h-0.89291c-0.09524 0.50003-0.25002 0.97625-0.41669 1.4525l-1.0358 2.9168-1.5953-4.0122c-0.01191-0.035716-0.01191-0.059527-0.01191-0.095244 0-0.083339 0.05953-0.14287 0.04762-0.25002z"/>
       <path d="m26.883-5.5599c-1.2977 0-2.5002 0.92863-2.5002 2.9049 0 1.8215 1.131 2.7859 2.6073 2.7859 0.78576 0 1.4882-0.28573 1.9525-0.84529l-0.47622-0.46431c-0.34526 0.40479-0.8691 0.61909-1.4048 0.61909-0.72624 0-1.7858-0.40479-1.8454-2.0358h3.8574c0.03572-0.36907 0.02381-0.72624-0.03572-1.0358-0.25001-1.4644-1.262-1.9287-2.1549-1.9287zm-1.643 2.3097c0.17858-1.2858 1.0001-1.6549 1.5834-1.6549 0.88101 0 1.512 0.77386 1.4048 1.6549z"/>
       <path d="m30.942-5.4289v5.4408h0.8572v-2.643c0-0.33335 0.0119-0.69052 0.38098-1.2739 0.50003-0.78576 1.1429-0.91672 1.5358-0.91672 0.45241 0 0.73814 0.2143 0.89291 0.40479 0.07143 0.095244 0.10715 0.19049 0.20239 0.27383l0.40479-0.82148c-0.34526-0.35716-0.84529-0.59528-1.4525-0.59528-0.79767 0-1.6072 0.40479-1.9644 1.1786l0.03572-1.0477z"/>
      </g>
      <line x1="199.82" x2="332.69" y1="396.85" y2="396.85" fill="none" stroke="#e9e66f" stroke-linecap="round" stroke-linejoin="round" stroke-miterlimit="10" stroke-width=".6614"/>
      <g fill="#8ab9e3">
       <g transform="matrix(.9994 0 0 1 203.12 409.42)" aria-label="-">
        <path d="m0.83339-4.1312v0.78576h4.286v-0.78576z" fill="#8ab9e3"/>
       </g>
       <g transform="matrix(.9994 0 0 1 226.92 409.42)" aria-label="coins: int">
        <path d="m5.4289-4.536c-0.4286-0.63099-1.1548-1.012-2.0358-1.012-1.5953 0-2.7264 1.2025-2.7264 2.8335 0 1.643 1.131 2.8573 2.6787 2.8573 0.75005 0 1.4882-0.30954 2.0001-0.8691l-0.48813-0.57146c-0.36907 0.41669-0.90482 0.6548-1.4406 0.6548-1.0596 0-1.8692-0.88101-1.8692-2.1549 0-1.2382 0.79767-2.012 1.7977-2.012 0.92863 0 1.3691 0.6429 1.4048 0.71433 0.047622 0.083338-0.023811 0.20239 0.071433 0.27383z"/>
        <path d="m11.429-2.6906c0-1.8811-1.1906-2.8573-2.4287-2.8573-1.381 0-2.5716 1.1906-2.5716 2.8811 0 1.6549 1.1786 2.8216 2.5478 2.8216 1.2858 0 2.4525-1.0358 2.4525-2.8454zm-2.4882-2.1311c0.78576 0 1.6191 0.67861 1.6191 2.1668 0 1.3691-0.78576 2.0597-1.5715 2.0597-0.8691 0-1.6549-0.80957-1.6549-2.1549 0-1.3334 0.77386-2.0716 1.6072-2.0716z"/>
        <path d="m13.167-5.4408v0.70242h1.3096v4.0598h-1.381v0.67861h3.524v-0.67861h-1.2739v-4.7622zm1.762-2.3573c-0.34526 0-0.61909 0.27383-0.61909 0.60718 0 0.33335 0.27383 0.60718 0.61909 0.60718 0.34526 0 0.61909-0.27383 0.61909-0.60718 0-0.33335-0.27383-0.60718-0.61909-0.60718z"/>
        <path d="m18.668 0h0.8691v-3.1311c0-0.35716 0.04762-0.63099 0.27383-0.92863 0.20239-0.27383 0.72624-0.76195 1.2977-0.76195 0.27383 0 0.54765 0.11906 0.73814 0.34526 0.29764 0.35717 0.29764 0.82148 0.29764 1.2025v3.274h0.84529v-3.2978c0-0.41669 0-0.8691-0.19049-1.3096-0.27383-0.60718-0.83338-0.95244-1.4525-0.95244-0.73814 0-1.4048 0.47622-1.8096 1.0834v-0.95244h-0.8691z"/>
        <path d="m28.954-4.7146c-0.50003-0.54765-1.2263-0.84529-2.0358-0.84529-1.262 0-2.0835 0.70242-2.0835 1.512 0 0.95244 1.0239 1.2977 1.3215 1.4048 0.46432 0.16668 1.0596 0.30954 1.4644 0.50003 0.45241 0.2143 0.53575 0.50003 0.53575 0.69052 0 0.51194-0.61909 0.8572-1.3929 0.8572-0.92863 0-1.5239-0.55956-1.7025-0.75005-0.03572-0.047622-0.03572-0.083338-0.03572-0.13096 0-0.011906 0.0119-0.083338-0.04762-0.10715l-0.50003 0.84529c0.6429 0.59528 1.4763 0.8691 2.2978 0.8691 1.4882 0 2.262-0.88101 2.262-1.7025 0-0.36907-0.15477-0.8691-0.79767-1.2263-0.60718-0.34526-1.4882-0.46431-2.0001-0.71433-0.4405-0.2143-0.53575-0.47622-0.53575-0.66671 0-0.4286 0.53575-0.73814 1.1429-0.73814 0.78576 0 1.3096 0.47622 1.512 0.75005 0.03572 0.035717 0.02381 0.071433 0.02381 0.10715 0 0.071433 0.04762 0.095244 0.07143 0.095244z"/>
        <path d="m33.3-4.3455c0-0.36907-0.30954-0.67861-0.70242-0.67861-0.39288 0-0.70242 0.30954-0.70242 0.67861 0 0.38098 0.30954 0.67861 0.70242 0.67861 0.39288 0 0.70242-0.29764 0.70242-0.67861zm0 3.7979c0-0.36907-0.30954-0.67861-0.70242-0.67861-0.39288 0-0.70242 0.30954-0.70242 0.67861 0 0.38098 0.30954 0.69052 0.70242 0.69052 0.39288 0 0.70242-0.30954 0.70242-0.69052z"/>
        <path d="m42.931-5.4408v0.70242h1.3096v4.0598h-1.381v0.67861h3.524v-0.67861h-1.2739v-4.7622zm1.762-2.3573c-0.34526 0-0.61909 0.27383-0.61909 0.60718 0 0.33335 0.27383 0.60718 0.61909 0.60718 0.34526 0 0.61909-0.27383 0.61909-0.60718 0-0.33335-0.27383-0.60718-0.61909-0.60718z"/>
        <path d="m48.432 0h0.8691v-3.1311c0-0.35716 0.04762-0.63099 0.27383-0.92863 0.20239-0.27383 0.72624-0.76195 1.2977-0.76195 0.27383 0 0.54765 0.11906 0.73814 0.34526 0.29764 0.35717 0.29764 0.82148 0.29764 1.2025v3.274h0.84529v-3.2978c0-0.41669 0-0.8691-0.19049-1.3096-0.27383-0.60718-0.83338-0.95244-1.4525-0.95244-0.73814 0-1.4048 0.47622-1.8096 1.0834v-0.95244h-0.8691z"/>
        <path d="m55.813-6.8933-0.10715 1.4644h-1.2977l-0.01191 0.70242h1.2739c-0.07143 0.92863-0.10715 1.8573-0.10715 2.774 0 0.48813 0 1.0358 0.32145 1.4882 0.26192 0.35717 0.67861 0.57146 1.2382 0.57146 0.6429 0 1.2739-0.27383 1.7382-0.60718l-0.26192-0.67861c-0.46432 0.34526-0.89291 0.50003-1.2263 0.50003-0.40479 0-0.82148-0.2262-0.91672-0.88101 0-0.047622-0.03572-0.25002-0.03572-1.0477 0-0.70242 0.03572-1.4168 0.10715-2.1192h1.7858v-0.71433h-1.7739s0.08334-0.97625 0.14287-1.2858c0.01191-0.11906 0.10715-0.19049 0.05953-0.32145z"/>
       </g>
       <g transform="matrix(.9994 0 0 1 203.12 421.32)" aria-label="-">
        <path d="m0.83339-4.1312v0.78576h4.286v-0.78576z" fill="#8ab9e3"/>
       </g>
       <g transform="matrix(.9994 0 0 1 226.92 421.32)" aria-label="name: string">
        <path d="m0.80957 0h0.8691v-3.1311c0-0.35716 0.047622-0.63099 0.27383-0.92863 0.20239-0.27383 0.72624-0.76195 1.2977-0.76195 0.27383 0 0.54765 0.11906 0.73814 0.34526 0.29764 0.35717 0.29764 0.82148 0.29764 1.2025v3.274h0.84529v-3.2978c0-0.41669 0-0.8691-0.19049-1.3096-0.27383-0.60718-0.83339-0.95244-1.4525-0.95244-0.73814 0-1.4048 0.47622-1.8096 1.0834v-0.95244h-0.8691z"/>
        <path d="m7.0242-4.7979 0.41669 0.54765c0.45241-0.46431 1.0596-0.60718 1.5715-0.60718 0.6429 0 0.96435 0.27383 1.1191 0.52384 0.17858 0.29764 0.16668 0.6548 0.16668 0.94053v0.19049h-0.16668c-0.80957 0-1.6668 0-2.3573 0.25002-0.8572 0.30954-1.2382 0.95244-1.2382 1.5477 0 0.79767 0.69052 1.5477 1.8215 1.5477 0.66671 0 1.3572-0.25002 1.9525-0.73814v0.59528h0.80957v-3.3693c0-0.4405-0.01191-0.8572-0.26192-1.2858-0.35716-0.58337-1.0477-0.89291-1.893-0.89291-0.72624 0-1.4287 0.2262-1.9406 0.75005zm3.3097 2.2501v0.36907c0 0.27383 0 0.63099-0.36907 1.0239-0.20239 0.20239-0.71433 0.6429-1.4287 0.6429-0.72624 0-1.1429-0.46431-1.1429-0.94053 0-0.40479 0.27383-0.84529 0.95244-1.012 0.50003-0.11906 1.2263-0.083338 1.7977-0.083338z"/>
        <path d="m12.346 0h0.78576v-3.6193c0-0.26192 0.02381-0.50003 0.17858-0.78576 0.19049-0.35716 0.4286-0.50003 0.6548-0.50003 0.19049 0 0.40479 0.11906 0.50003 0.41669 0.07143 0.2262 0.05953 0.48813 0.05953 0.71433v3.774h0.79767v-3.5955c0-0.28573 0.02381-0.51194 0.2262-0.8572 0.09524-0.14287 0.29764-0.48813 0.63099-0.48813 0.17858 0 0.34526 0.10715 0.4286 0.30954 0.10715 0.2262 0.08334 0.53575 0.08334 0.78576v3.8574h0.80957v-3.8693c0-0.45241 0.0119-0.90482-0.2262-1.2739-0.20239-0.30954-0.54765-0.4286-0.84529-0.4286-0.52384 0-1.012 0.30954-1.2263 0.78576-0.08334-0.45241-0.46431-0.78576-0.95244-0.78576-0.45241 0-0.8691 0.28573-1.1191 0.66671l0.01191-0.53575h-0.79767z"/>
        <path d="m20.93-5.5599c-1.2977 0-2.5002 0.92863-2.5002 2.9049 0 1.8215 1.131 2.7859 2.6073 2.7859 0.78576 0 1.4882-0.28573 1.9525-0.84529l-0.47622-0.46431c-0.34526 0.40479-0.8691 0.61909-1.4048 0.61909-0.72624 0-1.7858-0.40479-1.8454-2.0358h3.8574c0.03572-0.36907 0.02381-0.72624-0.03572-1.0358-0.25002-1.4644-1.262-1.9287-2.1549-1.9287zm-1.643 2.3097c0.17858-1.2858 1.0001-1.6549 1.5834-1.6549 0.88101 0 1.512 0.77386 1.4048 1.6549z"/>
        <path d="m27.347-4.3455c0-0.36907-0.30954-0.67861-0.70242-0.67861-0.39288 0-0.70242 0.30954-0.70242 0.67861 0 0.38098 0.30954 0.67861 0.70242 0.67861 0.39288 0 0.70242-0.29764 0.70242-0.67861zm0 3.7979c0-0.36907-0.30954-0.67861-0.70242-0.67861-0.39288 0-0.70242 0.30954-0.70242 0.67861 0 0.38098 0.30954 0.69052 0.70242 0.69052 0.39288 0 0.70242-0.30954 0.70242-0.69052z"/>
        <path d="m40.86-4.7146c-0.50003-0.54765-1.2263-0.84529-2.0358-0.84529-1.262 0-2.0835 0.70242-2.0835 1.512 0 0.95244 1.0239 1.2977 1.3215 1.4048 0.46431 0.16668 1.0596 0.30954 1.4644 0.50003 0.45241 0.2143 0.53575 0.50003 0.53575 0.69052 0 0.51194-0.61909 0.8572-1.3929 0.8572-0.92863 0-1.5239-0.55956-1.7025-0.75005-0.03572-0.047622-0.03572-0.083338-0.03572-0.13096 0-0.011906 0.01191-0.083338-0.04762-0.10715l-0.50003 0.84529c0.6429 0.59528 1.4763 0.8691 2.2978 0.8691 1.4882 0 2.262-0.88101 2.262-1.7025 0-0.36907-0.15477-0.8691-0.79767-1.2263-0.60718-0.34526-1.4882-0.46431-2.0001-0.71433-0.4405-0.2143-0.53575-0.47622-0.53575-0.66671 0-0.4286 0.53575-0.73814 1.1429-0.73814 0.78576 0 1.3096 0.47622 1.512 0.75005 0.03572 0.035717 0.02381 0.071433 0.02381 0.10715 0 0.071433 0.04762 0.095244 0.07143 0.095244z"/>
        <path d="m43.907-6.8933-0.10715 1.4644h-1.2977l-0.01191 0.70242h1.2739c-0.07143 0.92863-0.10715 1.8573-0.10715 2.774 0 0.48813 0 1.0358 0.32145 1.4882 0.26192 0.35717 0.67861 0.57146 1.2382 0.57146 0.6429 0 1.2739-0.27383 1.7382-0.60718l-0.26192-0.67861c-0.46432 0.34526-0.89291 0.50003-1.2263 0.50003-0.40479 0-0.82148-0.2262-0.91672-0.88101 0-0.047622-0.03572-0.25002-0.03572-1.0477 0-0.70242 0.03572-1.4168 0.10715-2.1192h1.7858v-0.71433h-1.7739s0.08334-0.97625 0.14287-1.2858c0.01191-0.11906 0.10715-0.19049 0.05953-0.32145z"/>
        <path d="m48.801-5.4289v5.4408h0.8572v-2.643c0-0.33335 0.01191-0.69052 0.38098-1.2739 0.50003-0.78576 1.1429-0.91672 1.5358-0.91672 0.45241 0 0.73814 0.2143 0.89291 0.40479 0.07143 0.095244 0.10715 0.19049 0.20239 0.27383l0.40479-0.82148c-0.34526-0.35716-0.84529-0.59528-1.4525-0.59528-0.79767 0-1.6072 0.40479-1.9644 1.1786l0.03572-1.0477z"/>
        <path d="m54.837-5.4408v0.70242h1.3096v4.0598h-1.381v0.67861h3.524v-0.67861h-1.2739v-4.7622zm1.762-2.3573c-0.34526 0-0.61909 0.27383-0.61909 0.60718 0 0.33335 0.27383 0.60718 0.61909 0.60718 0.34526 0 0.61909-0.27383 0.61909-0.60718 0-0.33335-0.27383-0.60718-0.61909-0.60718z"/>
        <path d="m60.337 0h0.8691v-3.1311c0-0.35716 0.04762-0.63099 0.27383-0.92863 0.20239-0.27383 0.72624-0.76195 1.2977-0.76195 0.27383 0 0.54765 0.11906 0.73814 0.34526 0.29764 0.35717 0.29764 0.82148 0.29764 1.2025v3.274h0.84529v-3.2978c0-0.41669 0-0.8691-0.19049-1.3096-0.27383-0.60718-0.83338-0.95244-1.4525-0.95244-0.73814 0-1.4048 0.47622-1.8096 1.0834v-0.95244h-0.8691z"/>
        <path d="m66.968-3.7383c0-0.6548 0.54765-1.1906 1.2025-1.1906 0.66671 0 1.2025 0.53575 1.2025 1.1906 0 0.6548-0.53575 1.1906-1.2025 1.1906s-1.2025-0.53575-1.2025-1.1906zm1.2501-1.8692c-1.0834 0-2.0239 0.8572-2.0239 1.9168 0 0.59528 0.29764 1.1548 0.79767 1.4763-0.39288 0.33335-0.61909 0.70242-0.61909 1.0477 0 0.2262 0.09524 0.54765 0.4405 0.72624-0.58337 0.36907-0.88101 0.77386-0.88101 1.2025 0 0.59527 0.54765 1.2977 2.4525 1.2977 1.8454 0 2.5121-0.94053 2.5121-1.6668 0-0.47622-0.27383-0.95244-0.84529-1.1786-0.57146-0.23811-1.2263-0.15477-1.8454-0.15477-0.40479 0-0.66671-0.035716-0.77386-0.071433-0.2143-0.059528-0.33335-0.19049-0.33335-0.35716 0-0.28573 0.33335-0.55956 0.39288-0.60718 0.2143 0.083338 0.45241 0.11906 0.69052 0.11906 1.0715 0 1.9525-0.8572 1.9525-1.8573 0-0.33335-0.09524-0.6548-0.27383-0.92863 0.28573-0.16668 0.61909-0.26192 0.95244-0.26192 0.10715 0 0.20239 0.011906 0.30954 0.035717l-0.09524-0.70242c-0.54765-0.047622-1.0953 0.13096-1.512 0.47622-0.34526-0.33335-0.79767-0.51194-1.2977-0.51194zm-0.82148 5.3218c0.20239 0.023811 0.48812 0.047622 0.90482 0.071433 0.40479 0.011906 0.84529-0.023811 1.1548 0.023811 0.50003 0.083338 0.6548 0.39288 0.6548 0.63099 0 0.23811-0.14287 0.52384-0.51194 0.72624-0.40479 0.2143-0.8572 0.23811-1.2263 0.23811-0.25002 0-0.71433-0.011906-1.1191-0.17858-0.4405-0.17858-0.53575-0.47622-0.53575-0.66671 0-0.39288 0.36907-0.67861 0.67861-0.84529z"/>
       </g>
      </g>
      <line x1="411.36" x2="332.03" y1="252" y2="252" fill="none" stroke="#d54a48" stroke-linecap="round" stroke-linejoin="bevel" stroke-miterlimit="10" stroke-width="1.3228"/>
      <polygon points="332.03 252 338.64 255.31 345.25 252 338.64 248.7" clip-rule="evenodd" fill="#efefd8" fill-rule="evenodd"/>
      <polygon points="332.03 252 338.64 255.31 345.25 252 338.64 248.7" fill="#efefd8" stroke="#d54a48" stroke-linecap="round" stroke-linejoin="bevel" stroke-miterlimit="10" stroke-width="1.3228"/>
      <g fill="none" stroke="#d54a48" stroke-linecap="round" stroke-linejoin="bevel" stroke-miterlimit="10" stroke-width="1.3228">
       <line x1="199.82" x2="125.12" y1="232.16" y2="232.16"/>
       <line x1="125.12" x2="125.12" y1="232.16" y2="304.26"/>
       <line x1="125.12" x2="199.82" y1="304.26" y2="304.26"/>
      </g>
      <polygon points="199.82 304.26 193.21 300.95 186.6 304.26 193.21 307.56" clip-rule="evenodd" fill="#efefd8" fill-rule="evenodd"/>
      <polygon points="199.82 304.26 193.21 300.95 186.6 304.26 193.21 307.56" fill="#efefd8" stroke="#d54a48" stroke-linecap="round" stroke-linejoin="bevel" stroke-miterlimit="10" stroke-width="1.3228"/>
      <g fill="none" stroke="#d54a48" stroke-linecap="round" stroke-linejoin="bevel" stroke-miterlimit="10" stroke-width="1.3228">
       <line x1="300.3" x2="300.3" y1="216.95" y2="183.88"/>
       <line x1="300.3" x2="241.47" y1="183.88" y2="183.88"/>
       <line x1="241.47" x2="241.47" y1="183.88" y2="216.95"/>
      </g>
      <polygon points="241.47 216.95 244.77 210.34 241.47 203.72 238.16 210.34" clip-rule="evenodd" fill="#efefd8" fill-rule="evenodd"/>
      <polygon points="241.47 216.95 244.77 210.34 241.47 203.72 238.16 210.34" fill="#efefd8" stroke="#d54a48" stroke-linecap="round" stroke-linejoin="bevel" stroke-miterlimit="10" stroke-width="1.3228"/>
      <line x1="265.93" x2="265.93" y1="315.5" y2="375.69" fill="none" stroke="#d54a48" stroke-linecap="round" stroke-linejoin="bevel" stroke-miterlimit="10" stroke-width="1.3228"/>
      <polygon points="265.93 375.69 269.23 369.08 265.93 362.46 262.62 369.08" clip-rule="evenodd" fill="#efefd8" fill-rule="evenodd"/>
      <polygon points="265.93 375.69 269.23 369.08 265.93 362.46 262.62 369.08" fill="#efefd8" stroke="#d54a48" stroke-linecap="round" stroke-linejoin="bevel" stroke-miterlimit="10" stroke-width="1.3228"/>
      <g transform="matrix(.9994 0 0 1 98.678 265.22)" fill="#e9e66f" aria-label="transform">
       <path d="m2.2382-6.8933-0.10715 1.4644h-1.2977l-0.011906 0.70242h1.2739c-0.071433 0.92863-0.10715 1.8573-0.10715 2.774 0 0.48813 0 1.0358 0.32145 1.4882 0.26192 0.35717 0.67861 0.57146 1.2382 0.57146 0.6429 0 1.2739-0.27383 1.7382-0.60718l-0.26192-0.67861c-0.46431 0.34526-0.89291 0.50003-1.2263 0.50003-0.40479 0-0.82148-0.2262-0.91672-0.88101 0-0.047622-0.035717-0.25002-0.035717-1.0477 0-0.70242 0.035717-1.4168 0.10715-2.1192h1.7858v-0.71433h-1.7739s0.083338-0.97625 0.14287-1.2858c0.011906-0.11906 0.10715-0.19049 0.059528-0.32145z"/>
       <path d="m7.1314-5.4289v5.4408h0.8572v-2.643c0-0.33335 0.011906-0.69052 0.38098-1.2739 0.50003-0.78576 1.1429-0.91672 1.5358-0.91672 0.45241 0 0.73814 0.2143 0.89291 0.40479 0.07143 0.095244 0.10715 0.19049 0.20239 0.27383l0.40479-0.82148c-0.34526-0.35716-0.84529-0.59528-1.4525-0.59528-0.79767 0-1.6072 0.40479-1.9644 1.1786l0.035717-1.0477z"/>
       <path d="m12.977-4.7979 0.41669 0.54765c0.45241-0.46431 1.0596-0.60718 1.5715-0.60718 0.6429 0 0.96435 0.27383 1.1191 0.52384 0.17858 0.29764 0.16668 0.6548 0.16668 0.94053v0.19049h-0.16668c-0.80957 0-1.6668 0-2.3573 0.25002-0.8572 0.30954-1.2382 0.95244-1.2382 1.5477 0 0.79767 0.69052 1.5477 1.8215 1.5477 0.66671 0 1.3572-0.25002 1.9525-0.73814v0.59528h0.80957v-3.3693c0-0.4405-0.01191-0.8572-0.26192-1.2858-0.35716-0.58337-1.0477-0.89291-1.893-0.89291-0.72624 0-1.4287 0.2262-1.9406 0.75005zm3.3097 2.2501v0.36907c0 0.27383 0 0.63099-0.36907 1.0239-0.20239 0.20239-0.71433 0.6429-1.4287 0.6429-0.72624 0-1.1429-0.46431-1.1429-0.94053 0-0.40479 0.27383-0.84529 0.95244-1.012 0.50003-0.11906 1.2263-0.083338 1.7977-0.083338z"/>
       <path d="m18.668 0h0.8691v-3.1311c0-0.35716 0.04762-0.63099 0.27383-0.92863 0.20239-0.27383 0.72624-0.76195 1.2977-0.76195 0.27383 0 0.54765 0.11906 0.73814 0.34526 0.29764 0.35717 0.29764 0.82148 0.29764 1.2025v3.274h0.84529v-3.2978c0-0.41669 0-0.8691-0.19049-1.3096-0.27383-0.60718-0.83338-0.95244-1.4525-0.95244-0.73814 0-1.4048 0.47622-1.8096 1.0834v-0.95244h-0.8691z"/>
       <path d="m28.954-4.7146c-0.50003-0.54765-1.2263-0.84529-2.0358-0.84529-1.262 0-2.0835 0.70242-2.0835 1.512 0 0.95244 1.0239 1.2977 1.3215 1.4048 0.46432 0.16668 1.0596 0.30954 1.4644 0.50003 0.45241 0.2143 0.53575 0.50003 0.53575 0.69052 0 0.51194-0.61909 0.8572-1.3929 0.8572-0.92863 0-1.5239-0.55956-1.7025-0.75005-0.03572-0.047622-0.03572-0.083338-0.03572-0.13096 0-0.011906 0.0119-0.083338-0.04762-0.10715l-0.50003 0.84529c0.6429 0.59528 1.4763 0.8691 2.2978 0.8691 1.4882 0 2.262-0.88101 2.262-1.7025 0-0.36907-0.15477-0.8691-0.79767-1.2263-0.60718-0.34526-1.4882-0.46431-2.0001-0.71433-0.4405-0.2143-0.53575-0.47622-0.53575-0.66671 0-0.4286 0.53575-0.73814 1.1429-0.73814 0.78576 0 1.3096 0.47622 1.512 0.75005 0.03572 0.035717 0.02381 0.071433 0.02381 0.10715 0 0.071433 0.04762 0.095244 0.07143 0.095244z"/>
       <path d="m33.847-7.9767c-0.76195 0-1.4763 0.32145-1.8573 0.94053-0.28573 0.45241-0.29764 0.90482-0.29764 1.3929v0.53575h-1.1906v0.67861h1.1906v4.4288h0.82148v-4.4288h1.7739v-0.67861h-1.7739v-0.4286c0-0.39288-0.01191-0.80957 0.19049-1.1667 0.2262-0.40479 0.6548-0.60718 1.0953-0.60718 0.52384 0 0.96434 0.27383 1.1906 0.61909 0.03572 0.059528 0.03572 0.095244 0.03572 0.14287 0 0.083338 0.05953 0.10715 0.09524 0.10715l0.39288-0.79767c-0.39288-0.46431-0.98816-0.73814-1.6668-0.73814z"/>
       <path d="m41.193-2.6906c0-1.8811-1.1906-2.8573-2.4287-2.8573-1.381 0-2.5716 1.1906-2.5716 2.8811 0 1.6549 1.1786 2.8216 2.5478 2.8216 1.2858 0 2.4525-1.0358 2.4525-2.8454zm-2.4882-2.1311c0.78576 0 1.6191 0.67861 1.6191 2.1668 0 1.3691-0.78576 2.0597-1.5715 2.0597-0.8691 0-1.6549-0.80957-1.6549-2.1549 0-1.3334 0.77386-2.0716 1.6072-2.0716z"/>
       <path d="m42.848-5.4289v5.4408h0.8572v-2.643c0-0.33335 0.01191-0.69052 0.38098-1.2739 0.50003-0.78576 1.1429-0.91672 1.5358-0.91672 0.45241 0 0.73814 0.2143 0.89291 0.40479 0.07143 0.095244 0.10715 0.19049 0.20239 0.27383l0.40479-0.82148c-0.34526-0.35716-0.84529-0.59528-1.4525-0.59528-0.79767 0-1.6072 0.40479-1.9644 1.1786l0.03572-1.0477z"/>
       <path d="m48.063 0h0.78576v-3.6193c0-0.26192 0.02381-0.50003 0.17858-0.78576 0.19049-0.35716 0.4286-0.50003 0.6548-0.50003 0.19049 0 0.40479 0.11906 0.50003 0.41669 0.07143 0.2262 0.05953 0.48813 0.05953 0.71433v3.774h0.79767v-3.5955c0-0.28573 0.02381-0.51194 0.2262-0.8572 0.09524-0.14287 0.29764-0.48813 0.63099-0.48813 0.17858 0 0.34526 0.10715 0.4286 0.30954 0.10715 0.2262 0.08334 0.53575 0.08334 0.78576v3.8574h0.80957v-3.8693c0-0.45241 0.0119-0.90482-0.2262-1.2739-0.20239-0.30954-0.54765-0.4286-0.84529-0.4286-0.52384 0-1.012 0.30954-1.2263 0.78576-0.08334-0.45241-0.46431-0.78576-0.95244-0.78576-0.45241 0-0.8691 0.28573-1.1191 0.66671l0.01191-0.53575h-0.79767z"/>
      </g>
     </g>
    </g>
   </g>
  </g>
 </g>
</svg>
