<svg width="66.25mm" height="13.281mm" version="1.1" viewBox="0 0 66.25 13.281" xmlns="http://www.w3.org/2000/svg">
 <g transform="translate(-50.03 -71.889)">
  <g>
   <g fill="#e9e56f" stroke-width=".28222px" aria-label="command">
    <path d="m68.748 82.816q-0.05857 0.02239-0.12058 0.03273-0.06115 0.0112-0.12661 0.0112-0.20498 0-0.31609-0.1111-0.11024-0.1111-0.11024-0.3247 0-0.10249 0.03187-0.18604 0.03187-0.08354 0.08957-0.14297 0.0577-0.05943 0.1378-0.0913 0.0801-0.03273 0.17656-0.03273 0.06718 0 0.12575 0.0095 0.05857 0.0095 0.11196 0.03101v0.14297q-0.05598-0.02928-0.11455-0.0422-0.05771-0.01378-0.11972-0.01378-0.05771 0-0.10938 0.02239-0.05082 0.02153-0.08957 0.06287-0.03876 0.04134-0.06115 0.10077-0.02239 0.05943-0.02239 0.13436 0 0.15675 0.07579 0.23513 0.07665 0.07752 0.21187 0.07752 0.06115 0 0.118-0.01378 0.0577-0.01378 0.1111-0.04134z"/>
    <path d="m69.8 82.408q0 0.10077-0.02842 0.18517-0.02842 0.08354-0.08182 0.14383-0.0534 0.05943-0.13005 0.09302-0.07665 0.03273-0.17398 0.03273-0.09302 0-0.16709-0.02842-0.07321-0.02928-0.12488-0.08527-0.05082-0.05598-0.07838-0.13866-0.0267-0.08268-0.0267-0.19034 0-0.10077 0.02842-0.18345 0.02842-0.08354 0.08182-0.14297 0.0534-0.06029 0.13005-0.09302 0.07665-0.03359 0.17398-0.03359 0.09302 0 0.16623 0.02928 0.07407 0.02842 0.12488 0.0844 0.05168 0.05512 0.07838 0.1378 0.02756 0.08268 0.02756 0.18948zm-0.15331 0.0069q0-0.0801-0.01809-0.13953-0.01723-0.06029-0.04995-0.09991-0.03273-0.04048-0.0801-0.06029-0.04651-0.02067-0.10421-0.02067-0.06718 0-0.11541 0.0267-0.04737 0.02584-0.07838 0.06976-0.03014 0.04392-0.04479 0.10249-0.01378 0.05771-0.01378 0.12144 0 0.0801 0.01722 0.14039 0.01809 0.06029 0.05082 0.10077 0.03273 0.03962 0.07924 0.06029 0.04651 0.01981 0.10508 0.01981 0.06718 0 0.11455-0.02584 0.04823-0.0267 0.07838-0.07062 0.03101-0.04393 0.04479-0.10163 0.01464-0.05857 0.01464-0.12316z"/>
    <path d="m70.636 82.848v-0.62098q0-0.04048-0.0034-0.06632-0.0026-0.02584-0.0095-0.04048-6e-3 -0.0155-0.01637-0.02153-0.0095-6e-3 -0.02411-6e-3 -0.01723 0-0.03187 0.01034-0.01464 0.01033-0.03187 0.03359-0.01636 0.02326-0.03703 0.06201-0.01981 0.0379-0.04737 0.09388v0.55552h-0.13694v-0.60462q0-0.04737-0.0034-0.07665-0.0026-0.02928-0.0095-0.04565-6e-3 -0.01636-0.01636-0.02239-0.01034-6e-3 -0.02498-6e-3 -0.0155 0-0.02928 0.0086t-0.031 0.03101q-0.01637 0.02239-0.03704 0.06115t-0.04909 0.09905v0.55552h-0.1378v-0.86472h0.11455l0.0069 0.1645q0.02239-0.04909 0.04306-0.08354 0.02153-0.03445 0.04393-0.05512 0.02239-0.02153 0.04737-0.03101 0.02584-0.01033 0.05684-0.01033 0.06976 0 0.10594 0.04565 0.03617 0.04565 0.03617 0.14125 0.02067-0.04479 0.04048-0.07924 0.01981-0.03531 0.0422-0.05857 0.02326-0.02411 0.05082-0.03617 0.02756-0.01292 0.06374-0.01292 0.16278 0 0.16278 0.25063v0.62959z"/>
    <path d="m71.607 82.848v-0.62098q0-0.04048-0.0034-0.06632-0.0026-0.02584-0.0095-0.04048-6e-3 -0.0155-0.01636-0.02153-0.0095-6e-3 -0.02411-6e-3 -0.01723 0-0.03187 0.01034-0.01464 0.01033-0.03187 0.03359-0.01636 0.02326-0.03703 0.06201-0.01981 0.0379-0.04737 0.09388v0.55552h-0.13694v-0.60462q0-0.04737-0.0034-0.07665-0.0026-0.02928-0.0095-0.04565-6e-3 -0.01636-0.01636-0.02239-0.01034-6e-3 -0.02498-6e-3 -0.0155 0-0.02928 0.0086t-0.031 0.03101q-0.01637 0.02239-0.03704 0.06115t-0.04909 0.09905v0.55552h-0.1378v-0.86472h0.11455l0.0069 0.1645q0.02239-0.04909 0.04306-0.08354 0.02153-0.03445 0.04393-0.05512 0.02239-0.02153 0.04737-0.03101 0.02584-0.01033 0.05684-0.01033 0.06976 0 0.10594 0.04565 0.03617 0.04565 0.03617 0.14125 0.02067-0.04479 0.04048-0.07924 0.01981-0.03531 0.0422-0.05857 0.02325-0.02411 0.05082-0.03617 0.02756-0.01292 0.06373-0.01292 0.16278 0 0.16278 0.25063v0.62959z"/>
    <path d="m72.518 82.848-0.0034-0.11627q-0.07062 0.06976-0.14383 0.10077-0.07235 0.03101-0.15244 0.03101-0.07407 0-0.12661-0.01895-0.05254-0.01895-0.08699-0.05168-0.03359-0.03359-0.04995-0.07838-0.0155-0.04479-0.0155-0.09732 0-0.13005 0.09646-0.20326 0.09732-0.07407 0.2868-0.07407h0.17914v-0.07579q0-0.07665-0.04909-0.1223-0.04909-0.04651-0.14986-0.04651-0.07321 0-0.14469 0.01636-0.07063 0.01636-0.14642 0.04651v-0.13522q0.02842-0.01033 0.06287-0.01981 0.03531-0.01033 0.07407-0.01809 0.03876-0.0078 0.08096-0.01206 0.0422-0.0052 0.08527-0.0052 0.07838 0 0.14125 0.01722 0.06287 0.01723 0.10594 0.05254 0.04393 0.03531 0.06718 0.08871t0.02325 0.12575v0.596zm-0.01636-0.3936h-0.19034q-0.05598 0-0.09646 0.0112t-0.06632 0.03187-0.03876 0.04995q-0.01206 0.02842-0.01206 0.0646 0 0.02498 0.0078 0.04823 0.0078 0.02239 0.02498 0.04048 0.01722 0.01722 0.04479 0.02756 0.02756 0.01034 0.06718 0.01034 0.05168 0 0.11799-0.03101 0.06718-0.03187 0.14125-0.09991z"/>
    <path d="m72.934 81.983h0.1335l6e-3 0.13953q0.0379-0.04479 0.07321-0.07407 0.03531-0.03014 0.0689-0.04823 0.03445-0.01809 0.06976-0.02498 0.03531-0.0078 0.07321-0.0078 0.1335 0 0.20154 0.07924 0.0689 0.07838 0.0689 0.23685v0.56414h-0.14986v-0.55208q0-0.10163-0.0379-0.14986-0.0379-0.04909-0.11283-0.04909-0.02756 0-0.05426 0.0086-0.02584 0.0078-0.05426 0.02842-0.02842 0.01981-0.06201 0.05426-0.03273 0.03445-0.07407 0.08613v0.57361h-0.14986z"/>
    <path d="m73.861 82.433q0-0.11024 0.03014-0.19551 0.03014-0.08613 0.08527-0.14469 0.05598-0.05943 0.1335-0.08957 0.07838-0.03101 0.17398-0.03101 0.04134 0 0.08096 0.0052 0.04048 0.0052 0.07924 0.01636v-0.36346h0.15072v1.217h-0.13436l-0.0052-0.16364q-0.06287 0.09129-0.13608 0.13522-0.07321 0.04393-0.15847 0.04393-0.07407 0-0.13091-0.03101-0.05598-0.03101-0.09388-0.08699-0.03703-0.05684-0.05598-0.13608-0.01895-0.07924-0.01895-0.1757zm0.15331-0.0095q0 0.15675 0.04565 0.23427 0.04651 0.07665 0.13091 0.07665 0.05684 0 0.11972-0.05082 0.06373-0.05082 0.1335-0.15072v-0.40135q-0.03704-0.01723-0.08182-0.02584-0.04479-0.0095-0.08871-0.0095-0.1223 0-0.1912 0.07924-0.06804 0.07924-0.06804 0.24805z"/>
   </g>
   <g stroke-width=".01053">
    <path d="m79.744 79.832c-0.01005-0.01555-0.02334-0.10723-0.02951-0.20381l-0.01132-0.17561-0.18301-0.06326c-0.10066-0.03477-0.232-0.09064-0.29188-0.1241l-0.10886-0.06085-0.12915 0.1278c-0.10435 0.10327-0.13934 0.12525-0.18216 0.1145-0.07107-0.01784-0.6053-0.5601-0.6053-0.61441 0-0.02334 0.05617-0.09923 0.12485-0.16863l0.12486-0.12617-0.06085-0.10887c-0.03344-0.05986-0.08931-0.19122-0.1241-0.29188l-0.06326-0.18302-0.17561-0.01132c-0.09658-0.0062-0.1883-0.01947-0.20381-0.02951-0.04045-0.02619-0.04045-0.86236 0-0.88854 0.01548-0.01005 0.10723-0.02334 0.20381-0.02951l0.17561-0.01132 0.06326-0.18302c0.03477-0.10066 0.09064-0.232 0.1241-0.29188l0.06085-0.10886-0.12486-0.12618c-0.06867-0.06939-0.12485-0.14528-0.12485-0.16863 0-0.0543 0.53423-0.59657 0.6053-0.61441 0.04281-0.01075 0.07781 0.01126 0.18216 0.1145l0.12915 0.1278 0.10886-0.06084c0.05986-0.03344 0.19122-0.08931 0.29188-0.12411l0.18301-0.06326 0.01132-0.1756c0.0062-0.09659 0.01947-0.1883 0.02951-0.20381 0.02619-0.04045 0.86237-0.04045 0.88854 0 0.01005 0.01547 0.02334 0.10723 0.02951 0.20381l0.01132 0.1756 0.18302 0.06326c0.10066 0.03477 0.232 0.09065 0.29188 0.12411l0.10887 0.06084 0.12915-0.1278c0.10435-0.10326 0.13934-0.12525 0.18216-0.1145 0.07107 0.01784 0.6053 0.56011 0.6053 0.61441 0 0.02334-0.05617 0.09924-0.12486 0.16863l-0.12486 0.12618 0.06085 0.10886c0.03344 0.05986 0.08931 0.19122 0.12411 0.29188l0.06326 0.18302 0.1756 0.01132c0.09658 0.0062 0.1883 0.01947 0.20381 0.02951 0.04045 0.02619 0.04045 0.86237 0 0.88854-0.01548 0.01005-0.10722 0.02334-0.20381 0.02951l-0.1756 0.01132-0.06326 0.18302c-0.03477 0.10066-0.09065 0.232-0.12411 0.29188l-0.06085 0.10887 0.12781 0.12915c0.10327 0.10435 0.12525 0.13934 0.1145 0.18217-0.01783 0.07107-0.56011 0.6053-0.6144 0.6053-0.02334 0-0.09924-0.05617-0.16864-0.12485l-0.12617-0.12486-0.10887 0.06085c-0.05986 0.03344-0.19122 0.08931-0.29188 0.1241l-0.18302 0.06326-0.01132 0.17561c-0.0062 0.09658-0.01947 0.1883-0.02951 0.20381-0.01355 0.02091-0.12824 0.02817-0.44428 0.02817-0.31603 0-0.43073-0.0072-0.44427-0.02817z" fill="#fff"/>
    <path d="m80.436 79.479c0-0.18986 0.01545-0.20862 0.21266-0.25816 0.1698-0.04263 0.34448-0.11616 0.48125-0.20249 0.13427-0.08476 0.17829-0.07726 0.31001 0.05285l0.11415 0.11272 0.1744-0.17545 0.17441-0.17544-0.11298-0.11129c-0.13092-0.12895-0.13874-0.17461-0.05309-0.31028 0.08634-0.13677 0.15984-0.31144 0.20249-0.48124 0.04952-0.1972 0.0683-0.21266 0.25816-0.21266h0.15632v-0.49636h-0.15632c-0.18986 0-0.20863-0.01546-0.25816-0.21266-0.04263-0.1698-0.11615-0.34448-0.20249-0.48125-0.08476-0.13426-0.07726-0.17829 0.05285-0.31001l0.11272-0.11414-0.17544-0.17441-0.17544-0.17441-0.11129 0.11298c-0.12895 0.13093-0.17461 0.13874-0.31028 0.05309-0.13677-0.08634-0.31145-0.15984-0.48125-0.20249-0.19719-0.04953-0.21266-0.06831-0.21266-0.25816v-0.15632h-0.49636v0.15632c0 0.18986-0.0155 0.20863-0.21266 0.25816-0.1698 0.04263-0.34448 0.11615-0.48125 0.20249-0.13427 0.08476-0.17829 0.07726-0.31001-0.05285l-0.11414-0.11272-0.17441 0.17545-0.17441 0.17544 0.11298 0.11128c0.13092 0.12895 0.13874 0.17462 0.05309 0.31028-0.08633 0.13677-0.15983 0.31145-0.20249 0.48125-0.04952 0.19719-0.06831 0.21266-0.25816 0.21266h-0.15632v0.49636h0.15632c0.18985 0 0.20863 0.01546 0.25816 0.21266 0.04263 0.1698 0.11615 0.34447 0.20249 0.48125 0.08564 0.13566 0.07783 0.18132-0.05309 0.31028l-0.11298 0.11128 0.17441 0.17544 0.17441 0.17545 0.11414-0.11272c0.13172-0.13009 0.17574-0.13759 0.31001-0.05285 0.13677 0.08634 0.31145 0.15984 0.48125 0.20249 0.19719 0.04952 0.21266 0.0683 0.21266 0.25816v0.15632h0.49636z" fill="#2b2b2b"/>
    <path d="m80.007 78.891c-0.33895-0.04741-0.57354-0.1661-0.82457-0.41714-0.29163-0.29164-0.42038-0.59425-0.42279-0.9938-0.0016-0.2522 0.03192-0.40051 0.14251-0.63174 0.14646-0.30623 0.35689-0.51655 0.6649-0.6645 0.22672-0.10892 0.3773-0.14382 0.62045-0.14382 0.24399 0 0.39297 0.03477 0.62734 0.1463 0.47973 0.22834 0.79518 0.72509 0.80004 1.2599 0.0026 0.26464-0.02969 0.40774-0.14679 0.6543-0.1287 0.27104-0.37782 0.52014-0.64885 0.64885-0.27544 0.1308-0.54886 0.17847-0.81224 0.14162z" fill="#fff"/>
    <path d="m80.553 78.622c0.21279-0.07321 0.31865-0.13992 0.48345-0.30466 0.25206-0.25197 0.35643-0.5004 0.35643-0.84848 0-0.35013-0.11623-0.6219-0.37129-0.86814-0.48746-0.4706-1.2273-0.45701-1.6987 0.0312-0.23729 0.24579-0.33997 0.49855-0.33997 0.83693 0 0.33515 0.10215 0.58954 0.33358 0.83077 0.19062 0.19868 0.40765 0.31758 0.66832 0.36614 0.14488 0.02698 0.42528 0.0054 0.56814-0.04378z" fill="#303030"/>
    <path d="m80.055 78.167c-0.33715-0.0679-0.57447-0.35631-0.57447-0.69816 0-0.20124 0.06361-0.35307 0.20871-0.49817 0.1451-0.14509 0.29693-0.2087 0.49817-0.2087 0.20124 0 0.35308 0.06361 0.49818 0.2087 0.14509 0.1451 0.2087 0.29693 0.2087 0.49817 0 0.44248-0.41104 0.7844-0.83928 0.69816z" fill="#fff"/>
    <path d="m80.318 77.939c0.15159-0.03815 0.30476-0.19596 0.34236-0.35268 0.04293-0.17903 0.0011-0.32229-0.13324-0.45669-0.2029-0.2029-0.47611-0.2029-0.67901 0-0.20292 0.20292-0.20291 0.47611 2.4e-5 0.67904 0.14239 0.1424 0.27541 0.17929 0.46987 0.13032z"/>
   </g>
  </g>
  <g transform="matrix(.28222 0 0 .28222 -152.02 -142.21)" stroke="#474747" stroke-width=".040539">
   <path d="m882.24 778.27 3.0404-2.4324-4.8647-2.4324z" fill="#d1d1d1"/>
   <path d="m882.24 778.27 3.6485 4.2566-0.60809-6.689z" fill="#9e9e9e"/>
   <path d="m885.28 775.84 0.2027-3.4458-5.0674 1.0135z" fill="#f7f7f7"/>
   <path d="m880.41 773.4 5.8782-3.2432-0.81078 2.2297z" fill="#e2e2e2"/>
   <path d="m886.29 770.16 4.662 2.8378-5.4728-0.60809z" fill="#dadada"/>
   <path d="m886.29 770.16 3.8512 1.2162 0.81079 1.6216-4.662-2.8378" fill="#a0a0a0"/>
   <path d="m890.14 771.38 2.6351 2.6351-1.8243-1.0135z" fill="#b8b8b8"/>
   <path d="m885.28 775.84 5.6755-2.8378-5.4728-0.60809z" fill="#b8b8b8"/>
   <path d="m885.28 775.84 3.4458 2.027 2.2297-4.8647z" fill="#8e8e8e"/>
   <path d="m885.88 782.53 2.8378-4.662-3.4458-2.027z" fill="#8e8e8e"/>
   <path d="m890.95 773 1.0135 6.8917-3.2432-2.027z" fill="#6e6e6e"/>
   <path d="m880.41 773.4 0.20269 6.8917 1.6216-2.027-1.8243-4.8647" fill="#e2e2e2"/>
   <path d="m880.21 777.46 0.2027-4.0539 0.20269 6.8917-0.40539-2.8378" fill="#7d7d7d"/>
   <path d="m890.95 773 1.8243 1.0135 0.60809 3.0404z" fill="#969696"/>
   <path d="m880.61 780.3 1.6216-2.027 3.6485 4.2566z" fill="#7d7d7d"/>
   <path d="m883.45 783.13-2.8378-2.8378 5.2701 2.2297z" fill="#5d5d5d"/>
   <path d="m885.88 782.53 6.0809-2.6351-3.2432-2.027z" fill="#5d5d5d"/>
   <path d="m890.95 773 1.0135 6.8917 1.4189-2.8378z" fill="#828282"/>
   <path d="m883.45 783.13 3.6485 1.0135-1.2162-1.6216z" fill="#191919"/>
   <path d="m885.88 782.53 6.0809-2.6351-2.027 2.8378z" fill="#474747"/>
   <path d="m887.1 784.15-1.2162-1.6216 4.0539 0.20269z" fill="#232323"/>
   <path d="m891.97 779.89-2.027 2.8378 3.0404-1.8243z" fill="#232323"/>
   <path d="m893.38 777.05-1.4189 2.8378 1.0135 1.0135z" fill="#3f3f3f"/>
  </g>
  <rect x="75.091" y="77.573" width="10.493" height="6.5244" fill="#3b390d" fill-opacity=".38431" stroke="#e9e56f" stroke-width=".14667"/>
  <g>
   <rect transform="rotate(90)" x="77.821" y="-77.191" width=".26458" height=".26458" fill="#fff" style="paint-order:fill markers stroke"/>
   <rect transform="rotate(90)" x="78.085" y="-77.191" width=".26458" height=".26458" fill="#1b1b1b" style="paint-order:fill markers stroke"/>
   <rect transform="rotate(90)" x="78.35" y="-77.191" width=".26458" height=".26458" fill="#fff" style="paint-order:fill markers stroke"/>
   <rect transform="rotate(90)" x="78.614" y="-77.191" width=".26458" height=".26458" fill="#1b1b1b" style="paint-order:fill markers stroke"/>
   <rect transform="rotate(90)" x="78.879" y="-77.191" width=".26458" height=".26458" fill="#fff" style="paint-order:fill markers stroke"/>
   <rect transform="rotate(90)" x="79.143" y="-77.191" width=".26458" height=".26458" fill="#1b1b1b" style="paint-order:fill markers stroke"/>
   <rect transform="rotate(90)" x="79.408" y="-77.191" width=".26458" height=".26458" fill="#fff" style="paint-order:fill markers stroke"/>
   <rect transform="rotate(90)" x="79.673" y="-77.191" width=".26458" height=".26458" fill="#1b1b1b" style="paint-order:fill markers stroke"/>
   <rect transform="rotate(90)" x="77.821" y="-76.661" width=".26458" height=".26458" fill="#fff" style="paint-order:fill markers stroke"/>
   <rect transform="rotate(90)" x="78.085" y="-76.661" width=".26458" height=".26458" fill="#1b1b1b" style="paint-order:fill markers stroke"/>
   <rect transform="rotate(90)" x="78.35" y="-76.661" width=".26458" height=".26458" fill="#fff" style="paint-order:fill markers stroke"/>
   <rect transform="rotate(90)" x="78.614" y="-76.661" width=".26458" height=".26458" fill="#1b1b1b" style="paint-order:fill markers stroke"/>
   <rect transform="rotate(90)" x="78.879" y="-76.661" width=".26458" height=".26458" fill="#fff" style="paint-order:fill markers stroke"/>
   <rect transform="rotate(90)" x="79.143" y="-76.661" width=".26458" height=".26458" fill="#1b1b1b" style="paint-order:fill markers stroke"/>
   <rect transform="rotate(90)" x="79.408" y="-76.661" width=".26458" height=".26458" fill="#fff" style="paint-order:fill markers stroke"/>
   <rect transform="rotate(90)" x="79.673" y="-76.661" width=".26458" height=".26458" fill="#1b1b1b" style="paint-order:fill markers stroke"/>
   <rect transform="rotate(90)" x="77.821" y="-76.132" width=".26458" height=".26458" fill="#fff" style="paint-order:fill markers stroke"/>
   <rect transform="rotate(90)" x="78.085" y="-76.132" width=".26458" height=".26458" fill="#1b1b1b" style="paint-order:fill markers stroke"/>
   <rect transform="rotate(90)" x="78.35" y="-76.132" width=".26458" height=".26458" fill="#fff" style="paint-order:fill markers stroke"/>
   <rect transform="rotate(90)" x="78.614" y="-76.132" width=".26458" height=".26458" fill="#1b1b1b" style="paint-order:fill markers stroke"/>
   <rect transform="rotate(90)" x="78.879" y="-76.132" width=".26458" height=".26458" fill="#fff" style="paint-order:fill markers stroke"/>
   <rect transform="rotate(90)" x="79.143" y="-76.132" width=".26458" height=".26458" fill="#1b1b1b" style="paint-order:fill markers stroke"/>
   <rect transform="rotate(90)" x="79.408" y="-76.132" width=".26458" height=".26458" fill="#fff" style="paint-order:fill markers stroke"/>
   <rect transform="rotate(90)" x="79.673" y="-76.132" width=".26458" height=".26458" fill="#1b1b1b" style="paint-order:fill markers stroke"/>
   <rect transform="rotate(90)" x="77.821" y="-75.603" width=".26458" height=".26458" fill="#fff" style="paint-order:fill markers stroke"/>
   <rect transform="rotate(90)" x="78.085" y="-75.603" width=".26458" height=".26458" fill="#1b1b1b" style="paint-order:fill markers stroke"/>
   <rect transform="rotate(90)" x="78.35" y="-75.603" width=".26458" height=".26458" fill="#fff" style="paint-order:fill markers stroke"/>
   <rect transform="rotate(90)" x="78.614" y="-75.603" width=".26458" height=".26458" fill="#1b1b1b" style="paint-order:fill markers stroke"/>
   <rect transform="rotate(90)" x="78.879" y="-75.603" width=".26458" height=".26458" fill="#fff" style="paint-order:fill markers stroke"/>
   <rect transform="rotate(90)" x="79.143" y="-75.603" width=".26458" height=".26458" fill="#1b1b1b" style="paint-order:fill markers stroke"/>
   <rect transform="rotate(90)" x="79.408" y="-75.603" width=".26458" height=".26458" fill="#fff" style="paint-order:fill markers stroke"/>
   <rect transform="rotate(90)" x="79.673" y="-75.603" width=".26458" height=".26458" fill="#1b1b1b" style="paint-order:fill markers stroke"/>
  </g>
  <g fill="#fff">
   <rect transform="rotate(90)" x="78.085" y="-75.868" width=".26458" height=".26458" style="paint-order:fill markers stroke"/>
   <rect transform="rotate(90)" x="78.614" y="-75.868" width=".26458" height=".26458" style="paint-order:fill markers stroke"/>
   <rect transform="rotate(90)" x="79.143" y="-75.868" width=".26458" height=".26458" style="paint-order:fill markers stroke"/>
   <rect transform="rotate(90)" x="79.143" y="-76.397" width=".26458" height=".26458" style="paint-order:fill markers stroke"/>
   <rect transform="rotate(90)" x="78.614" y="-76.397" width=".26458" height=".26458" style="paint-order:fill markers stroke"/>
   <rect transform="rotate(90)" x="78.085" y="-76.397" width=".26458" height=".26458" style="paint-order:fill markers stroke"/>
   <rect transform="rotate(90)" x="78.085" y="-76.926" width=".26458" height=".26458" style="paint-order:fill markers stroke"/>
   <rect transform="rotate(90)" x="78.614" y="-76.926" width=".26458" height=".26458" style="paint-order:fill markers stroke"/>
   <rect transform="rotate(90)" x="79.143" y="-76.926" width=".26458" height=".26458" style="paint-order:fill markers stroke"/>
  </g>
  <g fill="#1b1b1b">
   <rect transform="rotate(90)" x="77.821" y="-76.926" width=".26458" height=".26458" style="paint-order:fill markers stroke"/>
   <rect transform="rotate(90)" x="78.35" y="-76.926" width=".26458" height=".26458" style="paint-order:fill markers stroke"/>
   <rect transform="rotate(90)" x="78.879" y="-76.926" width=".26458" height=".26458" style="paint-order:fill markers stroke"/>
   <rect transform="rotate(90)" x="79.408" y="-76.926" width=".26458" height=".26458" style="paint-order:fill markers stroke"/>
   <rect transform="rotate(90)" x="79.408" y="-76.397" width=".26458" height=".26458" style="paint-order:fill markers stroke"/>
   <rect transform="rotate(90)" x="78.879" y="-76.397" width=".26458" height=".26458" style="paint-order:fill markers stroke"/>
   <rect transform="rotate(90)" x="78.35" y="-76.397" width=".26458" height=".26458" style="paint-order:fill markers stroke"/>
   <rect transform="rotate(90)" x="77.821" y="-76.397" width=".26458" height=".26458" style="paint-order:fill markers stroke"/>
   <rect transform="rotate(90)" x="77.821" y="-75.868" width=".26458" height=".26458" style="paint-order:fill markers stroke"/>
   <rect transform="rotate(90)" x="78.35" y="-75.868" width=".26458" height=".26458" style="paint-order:fill markers stroke"/>
   <rect transform="rotate(90)" x="78.879" y="-75.868" width=".26458" height=".26458" style="paint-order:fill markers stroke"/>
   <rect transform="rotate(90)" x="79.408" y="-75.868" width=".26458" height=".26458" style="paint-order:fill markers stroke"/>
  </g>
  <g fill="#fff">
   <rect transform="rotate(90)" x="79.673" y="-76.397" width=".26458" height=".26458" style="paint-order:fill markers stroke"/>
   <rect transform="rotate(90)" x="79.673" y="-76.926" width=".26458" height=".26458" style="paint-order:fill markers stroke"/>
   <rect transform="rotate(90)" x="79.673" y="-75.868" width=".26458" height=".26458" style="paint-order:fill markers stroke"/>
   <rect transform="rotate(90)" x="78.085" y="-77.455" width=".26458" height=".26458" style="paint-order:fill markers stroke"/>
   <rect transform="rotate(90)" x="78.614" y="-77.455" width=".26458" height=".26458" style="paint-order:fill markers stroke"/>
   <rect transform="rotate(90)" x="79.143" y="-77.455" width=".26458" height=".26458" style="paint-order:fill markers stroke"/>
  </g>
  <g fill="#1b1b1b">
   <rect transform="rotate(90)" x="77.821" y="-77.455" width=".26458" height=".26458" style="paint-order:fill markers stroke"/>
   <rect transform="rotate(90)" x="78.35" y="-77.455" width=".26458" height=".26458" style="paint-order:fill markers stroke"/>
   <rect transform="rotate(90)" x="78.879" y="-77.455" width=".26458" height=".26458" style="paint-order:fill markers stroke"/>
   <rect transform="rotate(90)" x="79.408" y="-77.455" width=".26458" height=".26458" style="paint-order:fill markers stroke"/>
  </g>
  <rect transform="rotate(90)" x="79.673" y="-77.455" width=".26458" height=".26458" fill="#fff" style="paint-order:fill markers stroke"/>
  <path d="m69.022 80.71h4.4273" fill="none" stroke="#d54747" stroke-width=".28231"/>
  <g transform="matrix(0 -.43574 .43574 0 -47.043 298.7)">
   <path d="m501.47 274.25-1.2053 3.2778-1.2053-3.2778c0.71162 0.52365 1.6852 0.52064 2.4106 0z" fill="#fff" fill-rule="evenodd" stroke="#d54747" stroke-linejoin="round" stroke-width=".1875"/>
  </g>
  <g>
   <g fill="#e9e56f" stroke-width=".28222px" aria-label="model">
    <path d="m78.747 81.26v-0.62098q0-0.04048-0.0034-0.06632-0.0026-0.02584-0.0095-0.04048-6e-3 -0.0155-0.01636-0.02153-0.0095-6e-3 -0.02412-6e-3 -0.01723 0-0.03187 0.01033t-0.03187 0.03359q-0.01636 0.02325-0.03704 0.06201-0.01981 0.0379-0.04737 0.09388v0.55552h-0.13694v-0.60461q0-0.04737-0.0034-0.07665-0.0026-0.02928-0.0095-0.04565-6e-3 -0.01636-0.01637-0.02239-0.01033-6e-3 -0.02498-6e-3 -0.0155 0-0.02928 0.0086t-0.03101 0.031q-0.01636 0.02239-0.03703 0.06115t-0.04909 0.09905v0.55552h-0.1378v-0.86472h0.11455l0.0069 0.1645q0.02239-0.04909 0.04306-0.08354 0.02153-0.03445 0.04393-0.05512 0.02239-0.02153 0.04737-0.03101 0.02584-0.01033 0.05684-0.01033 0.06976 0 0.10594 0.04565 0.03617 0.04565 0.03617 0.14125 0.02067-0.04479 0.04048-0.07924 0.01981-0.03531 0.0422-0.05857 0.02325-0.02412 0.05082-0.03617 0.02756-0.01292 0.06373-0.01292 0.16278 0 0.16278 0.25063v0.62959z"/>
    <path d="m79.855 80.821q0 0.10077-0.02842 0.18517-0.02842 0.08354-0.08182 0.14383-0.0534 0.05943-0.13005 0.09302-0.07665 0.03273-0.17398 0.03273-0.09302 0-0.16709-0.02842-0.07321-0.02928-0.12488-0.08527-0.05082-0.05598-0.07838-0.13866-0.0267-0.08268-0.0267-0.19034 0-0.10077 0.02842-0.18345 0.02842-0.08354 0.08182-0.14297 0.0534-0.06029 0.13005-0.09302 0.07665-0.03359 0.17398-0.03359 0.09302 0 0.16623 0.02928 0.07407 0.02842 0.12488 0.0844 0.05168 0.05512 0.07838 0.1378 0.02756 0.08268 0.02756 0.18948zm-0.15331 0.0069q0-0.0801-0.01809-0.13953-0.01723-0.06029-0.04995-0.09991-0.03273-0.04048-0.0801-0.06029-0.04651-0.02067-0.10421-0.02067-0.06718 0-0.11541 0.0267-0.04737 0.02584-0.07838 0.06976-0.03015 0.04393-0.04479 0.10249-0.01378 0.0577-0.01378 0.12144 0 0.0801 0.01723 0.14039 0.01809 0.06029 0.05082 0.10077 0.03273 0.03962 0.07924 0.06029 0.04651 0.01981 0.10508 0.01981 0.06718 0 0.11455-0.02584 0.04823-0.0267 0.07838-0.07062 0.03101-0.04393 0.04479-0.10163 0.01464-0.05857 0.01464-0.12316z"/>
    <path d="m80.029 80.846q0-0.11024 0.03015-0.19551 0.03014-0.08613 0.08527-0.14469 0.05598-0.05943 0.1335-0.08957 0.07838-0.03101 0.17398-0.03101 0.04134 0 0.08096 0.0052 0.04048 0.0052 0.07924 0.01637v-0.36346h0.15072v1.217h-0.13436l-0.0052-0.16364q-0.06287 0.09129-0.13608 0.13522-0.07321 0.04393-0.15847 0.04393-0.07407 0-0.13091-0.03101-0.05598-0.03101-0.09388-0.08699-0.03704-0.05684-0.05598-0.13608-0.01895-0.07924-0.01895-0.1757zm0.15331-0.0095q0 0.15675 0.04565 0.23427 0.04651 0.07665 0.13091 0.07665 0.05684 0 0.11972-0.05082 0.06373-0.05082 0.1335-0.15072v-0.40135q-0.03703-0.01722-0.08182-0.02584-0.04479-0.0095-0.08871-0.0095-0.1223 0-0.1912 0.07924-0.06804 0.07924-0.06804 0.24805z"/>
    <path d="m81.775 80.782q0 0.03187-8.62e-4 0.0534-8.61e-4 0.02153-0.0026 0.04048h-0.6072q0 0.13264 0.07407 0.20412 0.07407 0.07062 0.2136 0.07062 0.0379 0 0.07579-0.0026 0.0379-0.0034 0.07321-0.0086t0.06718-0.0112q0.03273-0.0069 0.06029-0.01464v0.12316q-0.06115 0.01722-0.13866 0.02756-0.07665 0.0112-0.15934 0.0112-0.1111 0-0.1912-0.03014-0.0801-0.03014-0.13178-0.08699-0.05082-0.05771-0.07579-0.14039-0.02412-0.08354-0.02412-0.18862 0-0.0913 0.02584-0.17226 0.0267-0.08182 0.07665-0.14297 0.05082-0.06201 0.12402-0.09819 0.07321-0.03617 0.16623-0.03617 0.09043 0 0.1602 0.02842 0.06976 0.02842 0.11713 0.08096 0.04823 0.05168 0.07235 0.12661 0.02498 0.07407 0.02498 0.16623zm-0.15589-0.02153q0.0026-0.0577-0.0112-0.10508-0.01378-0.04823-0.04306-0.08268-0.02842-0.03445-0.07149-0.0534-0.04306-0.01981-0.09991-0.01981-0.04909 0-0.08957 0.01895t-0.06976 0.0534-0.04737 0.08268-0.02239 0.10594z"/>
    <path d="m82.311 80.166h-0.2558v-0.12316h0.40738v1.0921h0.25752v0.12488h-0.69332v-0.12488h0.28422z"/>
   </g>
   <rect x="93.082" y="77.573" width="10.493" height="6.5244" fill="#3b390d" fill-opacity=".38431" stroke="#e9e56f" stroke-width=".14667"/>
   <g fill="#e9e56f" stroke-width=".28222px" aria-label="view">
    <path d="m96.57 80.395h0.17053l0.21187 0.57189 0.04565 0.13953 0.04737-0.14297 0.21015-0.56844h0.1645l-0.33934 0.86472h-0.17226z"/>
    <path d="m97.917 80.519h-0.2558v-0.12402h0.40738v0.73983h0.25752v0.12488h-0.69332v-0.12488h0.28422zm0.05254-0.48662q0.02498 0 0.04651 0.0095 0.02153 0.0086 0.03703 0.02498 0.01636 0.01636 0.02498 0.0379 0.0095 0.02067 0.0095 0.04565 0 0.02412-0.0095 0.04565-0.0086 0.02153-0.02498 0.0379-0.0155 0.01636-0.03703 0.02584-0.02153 0.0086-0.04651 0.0086t-0.04651-0.0086q-0.02153-0.0095-0.0379-0.02584-0.0155-0.01636-0.02498-0.0379-0.0086-0.02153-0.0086-0.04565 0-0.02498 0.0086-0.04565 0.0095-0.02153 0.02498-0.0379 0.01636-0.01637 0.0379-0.02498 0.02153-0.0095 0.04651-0.0095z"/>
    <path d="m99.325 80.782q0 0.03187-8.61e-4 0.0534-8.62e-4 0.02153-0.0026 0.04048h-0.6072q0 0.13264 0.07407 0.20412 0.07407 0.07062 0.2136 0.07062 0.0379 0 0.07579-0.0026 0.0379-0.0034 0.07321-0.0086t0.06718-0.0112q0.03273-0.0069 0.06029-0.01464v0.12316q-0.06115 0.01722-0.13866 0.02756-0.07665 0.0112-0.15934 0.0112-0.1111 0-0.1912-0.03014-0.0801-0.03014-0.13178-0.08699-0.05082-0.05771-0.07579-0.14039-0.02412-0.08354-0.02412-0.18862 0-0.0913 0.02584-0.17226 0.0267-0.08182 0.07665-0.14297 0.05082-0.06201 0.12402-0.09819 0.07321-0.03617 0.16623-0.03617 0.09043 0 0.1602 0.02842 0.06976 0.02842 0.11713 0.08096 0.04823 0.05168 0.07235 0.12661 0.02498 0.07407 0.02498 0.16623zm-0.15589-0.02153q0.0026-0.0577-0.0112-0.10508-0.01378-0.04823-0.04306-0.08268-0.02842-0.03445-0.07149-0.0534-0.04306-0.01981-0.09991-0.01981-0.04909 0-0.08957 0.01895t-0.06976 0.0534-0.04737 0.08268-0.02239 0.10594z"/>
    <path d="m100.37 80.395-0.12575 0.86472h-0.18173l-0.12488-0.36174-0.02498-0.08785-0.02842 0.09302-0.11972 0.35657h-0.17656l-0.12488-0.86472h0.14642l0.07235 0.58739 0.0155 0.13091 0.03704-0.11455 0.12575-0.38844h0.10766l0.13521 0.38327 0.0388 0.11455 0.0129-0.12144 0.0672-0.5917z"/>
   </g>
   <rect x="57.099" y="77.573" width="10.493" height="6.5244" fill="#3b390d" fill-opacity=".38431" stroke="#e9e56f" stroke-width=".14667"/>
   <g fill="#e9e56f" stroke-width=".28222px" aria-label="input">
    <path d="m60.433 80.519h-0.2558v-0.12402h0.40738v0.73983h0.25752v0.12488h-0.69332v-0.12488h0.28422zm0.05254-0.48662q0.02498 0 0.04651 0.0095 0.02153 0.0086 0.03703 0.02498 0.01637 0.01636 0.02498 0.0379 0.0095 0.02067 0.0095 0.04565 0 0.02412-0.0095 0.04565-0.0086 0.02153-0.02498 0.0379-0.0155 0.01636-0.03703 0.02584-0.02153 0.0086-0.04651 0.0086t-0.04651-0.0086q-0.02153-0.0095-0.0379-0.02584-0.0155-0.01636-0.02498-0.0379-0.0086-0.02153-0.0086-0.04565 0-0.02498 0.0086-0.04565 0.0095-0.02153 0.02498-0.0379 0.01636-0.01637 0.0379-0.02498 0.02153-0.0095 0.04651-0.0095z"/>
    <path d="m61.11 80.395h0.1335l6e-3 0.13953q0.0379-0.04479 0.07321-0.07407 0.03531-0.03015 0.0689-0.04823 0.03445-0.01809 0.06976-0.02498 0.03531-0.0078 0.07321-0.0078 0.1335 0 0.20154 0.07924 0.0689 0.07838 0.0689 0.23685v0.56413h-0.14983v-0.55208q0-0.10163-0.0379-0.14986-0.0379-0.04909-0.11283-0.04909-0.02756 0-0.05426 0.0086-0.02584 0.0078-0.05426 0.02842-0.02842 0.01981-0.06201 0.05426-0.03273 0.03445-0.07407 0.08613v0.57361h-0.14986z"/>
    <path d="m62.821 80.812q0 0.11541-0.03273 0.20154-0.03187 0.08613-0.08871 0.14297-0.05684 0.05684-0.13436 0.08527-0.07751 0.02842-0.16795 0.02842-0.04134 0-0.08268-0.0043-0.04048-0.0043-0.08268-0.01464v0.36174h-0.14986v-1.2178h0.1335l0.0095 0.14469q0.0646-0.08871 0.1378-0.12402 0.07321-0.03617 0.15847-0.03617 0.07407 0 0.13005 0.03101 0.05598 0.03101 0.09388 0.08785 0.0379 0.05598 0.05684 0.13608 0.01895 0.07924 0.01895 0.17742zm-0.15331 0.0069q0-0.06804-0.01033-0.12488-0.0095-0.05684-0.03101-0.09732-0.02153-0.04048-0.05512-0.06287-0.03359-0.02325-0.0801-0.02325-0.02842 0-0.05771 0.0095-0.02928 0.0086-0.06115 0.03014-0.03101 0.02067-0.06632 0.05598-0.03445 0.03445-0.07407 0.08613v0.41944q0.04134 0.01722 0.08699 0.02756 0.04565 0.0095 0.08957 0.0095 0.12144 0 0.19034-0.08182 0.0689-0.08268 0.0689-0.24805z"/>
    <path d="m63.748 81.26h-0.13436l-0.0052-0.13953q-0.03876 0.04479-0.07407 0.07493-0.03445 0.02928-0.0689 0.04737t-0.06976 0.02498q-0.03445 0.0078-0.07321 0.0078-0.1335 0-0.20154-0.07838-0.06804-0.07838-0.06804-0.23685v-0.565h0.14986v0.55294q0 0.19895 0.14986 0.19895 0.02756 0 0.0534-0.0078 0.0267-0.0086 0.05512-0.02842 0.02928-0.02067 0.06201-0.05512 0.03359-0.03445 0.07493-0.08699v-0.57361h0.14986z"/>
    <path d="m64.722 81.248q-0.05082 0.01292-0.10508 0.01809-0.05426 6e-3 -0.11024 6e-3 -0.16278 0-0.24288-0.07321-0.0801-0.07407-0.0801-0.22652v-0.45131h-0.24202v-0.12575h0.24202v-0.23771l0.14986-0.03876v0.27647h0.38843v0.12575h-0.38843v0.43925q0 0.09302 0.04909 0.13953 0.04995 0.04565 0.14642 0.04565 0.04134 0 0.09043-6e-3 0.04909-0.0069 0.10249-0.02067z"/>
   </g>
   <path d="m51.03 80.71h4.4273" fill="none" stroke="#d54747" stroke-width=".28231"/>
  </g>
  <g transform="matrix(0 -.43574 .43574 0 -65.034 298.7)">
   <path d="m501.47 274.25-1.2053 3.2778-1.2053-3.2778c0.71162 0.52365 1.6852 0.52064 2.4106 0z" fill="#fff" fill-rule="evenodd" stroke="#d54747" stroke-linejoin="round" stroke-width=".1875"/>
  </g>
  <g fill="#e9e56f" stroke-width=".28222px">
   <g aria-label="logic">
    <path d="m78.16 73.023h-0.2558v-0.12316h0.40738v1.0921h0.25752v0.12488h-0.69333v-0.12488h0.28422z"/>
    <path d="m79.59 73.677q0 0.10077-0.02842 0.18517-0.02842 0.08354-0.08182 0.14383-0.0534 0.05943-0.13005 0.09302-0.07665 0.03273-0.17398 0.03273-0.09302 0-0.16709-0.02842-0.07321-0.02928-0.12488-0.08527-0.05082-0.05598-0.07838-0.13866-0.0267-0.08268-0.0267-0.19034 0-0.10077 0.02842-0.18345 0.02842-0.08354 0.08182-0.14297 0.0534-0.06029 0.13005-0.09302 0.07665-0.03359 0.17398-0.03359 0.09302 0 0.16623 0.02928 0.07407 0.02842 0.12488 0.08441 0.05168 0.05512 0.07838 0.1378 0.02756 0.08268 0.02756 0.18948zm-0.15331 0.0069q0-0.0801-0.01809-0.13953-0.01723-0.06029-0.04995-0.09991-0.03273-0.04048-0.0801-0.06029-0.04651-0.02067-0.10421-0.02067-0.06718 0-0.11541 0.0267-0.04737 0.02584-0.07838 0.06976-0.03014 0.04393-0.04479 0.10249-0.01378 0.0577-0.01378 0.12144 0 0.0801 0.01722 0.14039 0.01809 0.06029 0.05082 0.10077 0.03273 0.03962 0.07924 0.06029 0.04651 0.01981 0.10508 0.01981 0.06718 0 0.11455-0.02584 0.04823-0.0267 0.07838-0.07062 0.03101-0.04393 0.04479-0.10163 0.01464-0.05857 0.01464-0.12316z"/>
    <path d="m80.432 73.374q0.02412 0.03014 0.03704 0.07062 0.01378 0.03962 0.01378 0.08613 0 0.06718-0.02498 0.12316-0.02412 0.05512-0.0689 0.09474-0.04479 0.03962-0.10766 0.06201-0.06201 0.02153-0.13694 0.02153-0.05426 0-0.10163-0.0112-0.04737-0.01206-0.07493-0.02928-0.01636 0.02411-0.02756 0.04565-0.0112 0.02153-0.0112 0.04823 0 0.03273 0.03101 0.05426 0.03187 0.02153 0.08354 0.02325l0.22738 0.0086q0.06459 0.0017 0.11886 0.01636 0.05512 0.01464 0.09388 0.0422 0.03962 0.02756 0.06115 0.06804 0.02239 0.04048 0.02239 0.09388 0 0.0577-0.02498 0.10938-0.02498 0.05168-0.07752 0.09043-0.05168 0.03962-0.13178 0.06287-0.0801 0.02325-0.19034 0.02325-0.10508 0-0.17914-0.01722-0.07321-0.01636-0.12058-0.04651-0.04737-0.02928-0.0689-0.07062-0.02153-0.04048-0.02153-0.08957 0-0.06287 0.02928-0.11024 0.02928-0.04737 0.09043-0.0913-0.02239-0.01034-0.03876-0.02584-0.01636-0.0155-0.0267-0.03359-0.01033-0.01895-0.0155-0.03962-0.0052-0.02067-0.0052-0.04048 0-0.05598 0.02584-0.10249 0.0267-0.04651 0.06287-0.08785-0.01636-0.01981-0.02928-0.03876-0.01206-0.01895-0.02153-0.04048-0.0086-0.02239-0.01378-0.04737-0.0043-0.02584-0.0043-0.05857 0-0.06718 0.02411-0.1223 0.02498-0.05598 0.0689-0.0956 0.04479-0.03962 0.1068-0.06115 0.06287-0.02239 0.13866-0.02239 0.03187 0 0.06115 0.0043t0.05168 0.0112h0.3135v0.1223zm-0.52021 0.8673q0 0.06115 0.06373 0.08871 0.06373 0.02842 0.17742 0.02842 0.07149 0 0.11972-0.01292 0.04909-0.01292 0.07838-0.03445 0.03014-0.02067 0.04306-0.04823 0.01292-0.0267 0.01292-0.05512 0-0.05254-0.04306-0.07752t-0.13178-0.02928l-0.22565-0.0078q-0.02842 0.01895-0.04737 0.03703-0.01809 0.01809-0.02842 0.03617-0.01033 0.01895-0.01464 0.03704-0.0043 0.01895-0.0043 0.0379zm0.04565-0.70711q0 0.04134 0.01378 0.07579t0.03876 0.05857 0.05857 0.0379q0.03445 0.01292 0.07579 0.01292 0.04479 0 0.07924-0.01464 0.03531-0.0155 0.05857-0.04134 0.02412-0.02584 0.03617-0.05943 0.01292-0.03359 0.01292-0.06976 0-0.04134-0.01378-0.07579t-0.03876-0.05857-0.05943-0.03704q-0.03359-0.01378-0.07493-0.01378-0.04479 0-0.0801 0.0155-0.03445 0.0155-0.05857 0.04134-0.02325 0.02498-0.03617 0.05857-0.01206 0.03359-0.01206 0.06976z"/>
    <path d="m81.075 73.376h-0.2558v-0.12402h0.40738v0.73983h0.25752v0.12488h-0.69333v-0.12488h0.28422zm0.05254-0.48662q0.02498 0 0.04651 0.0095 0.02153 0.0086 0.03704 0.02498 0.01636 0.01636 0.02498 0.0379 0.0095 0.02067 0.0095 0.04565 0 0.02412-0.0095 0.04565-0.0086 0.02153-0.02498 0.0379-0.0155 0.01636-0.03704 0.02584-0.02153 0.0086-0.04651 0.0086t-0.04651-0.0086q-0.02153-0.0095-0.0379-0.02584-0.0155-0.01636-0.02498-0.0379-0.0086-0.02153-0.0086-0.04565 0-0.02498 0.0086-0.04565 0.0095-0.02153 0.02498-0.0379 0.01636-0.01636 0.0379-0.02498 0.02153-0.0095 0.04651-0.0095z"/>
    <path d="m82.424 74.084q-0.05857 0.02239-0.12058 0.03273-0.06115 0.0112-0.12661 0.0112-0.20498 0-0.31609-0.1111-0.11024-0.1111-0.11024-0.3247 0-0.10249 0.03187-0.18604 0.03187-0.08354 0.08957-0.14297 0.0577-0.05943 0.1378-0.0913 0.0801-0.03273 0.17656-0.03273 0.06718 0 0.12575 0.0095 0.05857 0.0095 0.11197 0.03101v0.14297q-0.05598-0.02928-0.11455-0.0422-0.0577-0.01378-0.11972-0.01378-0.0577 0-0.10938 0.02239-0.05082 0.02153-0.08957 0.06287-0.03876 0.04134-0.06115 0.10077-0.02239 0.05943-0.02239 0.13436 0 0.15675 0.07579 0.23513 0.07665 0.07752 0.21187 0.07752 0.06115 0 0.11799-0.01378 0.05771-0.01378 0.1111-0.04134z"/>
   </g>
   <g aria-label="effects">
    <path d="m95.529 73.638q0 0.03187-8.61e-4 0.0534t-0.0026 0.04048h-0.6072q0 0.13264 0.07407 0.20412 0.07407 0.07062 0.2136 0.07062 0.0379 0 0.07579-0.0026 0.0379-0.0034 0.07321-0.0086t0.06718-0.0112q0.03273-0.0069 0.06029-0.01464v0.12316q-0.06115 0.01722-0.13866 0.02756-0.07665 0.0112-0.15934 0.0112-0.1111 0-0.1912-0.03015-0.0801-0.03014-0.13178-0.08699-0.05082-0.05771-0.07579-0.14039-0.02412-0.08354-0.02412-0.18862 0-0.09129 0.02584-0.17226 0.0267-0.08182 0.07665-0.14297 0.05082-0.06201 0.12402-0.09819 0.07321-0.03617 0.16623-0.03617 0.09043 0 0.1602 0.02842 0.06976 0.02842 0.11713 0.08096 0.04823 0.05168 0.07235 0.12661 0.02498 0.07407 0.02498 0.16623zm-0.15589-0.02153q0.0026-0.0577-0.0112-0.10508-0.01378-0.04823-0.04306-0.08268-0.02842-0.03445-0.07149-0.0534-0.04306-0.01981-0.09991-0.01981-0.04909 0-0.08957 0.01895t-0.06976 0.0534-0.04737 0.08268-0.02239 0.10594z"/>
    <path d="m96.538 73.039q-0.11799-0.02498-0.20326-0.02498-0.2024 0-0.2024 0.21187v0.15158h0.37896v0.12488h-0.37896v0.61409h-0.15244v-0.61408h-0.27819v-0.12488h0.27819v-0.14297q0-0.34537 0.36001-0.34537 0.08957 0 0.19809 0.02067zm-0.9052 0.21274z"/>
    <path d="m97.51 73.039q-0.11799-0.02498-0.20326-0.02498-0.2024 0-0.2024 0.21187v0.15158h0.37896v0.12488h-0.37896v0.61409h-0.15244v-0.61408h-0.27819v-0.12488h0.27819v-0.14297q0-0.34537 0.36001-0.34537 0.08957 0 0.19809 0.02067zm-0.9052 0.21274z"/>
    <path d="m98.444 73.638q0 0.03187-8.61e-4 0.0534t-0.0026 0.04048h-0.60718q0 0.13264 0.07407 0.20412 0.07407 0.07062 0.2136 0.07062 0.0379 0 0.07579-0.0026 0.0379-0.0034 0.07321-0.0086t0.06718-0.0112q0.03273-0.0069 0.06029-0.01464v0.12316q-0.06115 0.01722-0.13866 0.02756-0.07665 0.0112-0.15934 0.0112-0.1111 0-0.1912-0.03015-0.0801-0.03014-0.13178-0.08699-0.05082-0.05771-0.07579-0.14039-0.02412-0.08354-0.02412-0.18862 0-0.09129 0.02584-0.17226 0.0267-0.08182 0.07665-0.14297 0.05082-0.06201 0.12402-0.09819 0.07321-0.03617 0.16623-0.03617 0.09043 0 0.1602 0.02842 0.06976 0.02842 0.11713 0.08096 0.04823 0.05168 0.07235 0.12661 0.02498 0.07407 0.02498 0.16623zm-0.15589-0.02153q0.0026-0.0577-0.0112-0.10508-0.01378-0.04823-0.04306-0.08268-0.02842-0.03445-0.07149-0.0534-0.04306-0.01981-0.09991-0.01981-0.04909 0-0.08957 0.01895t-0.06976 0.0534-0.04737 0.08268-0.02239 0.10594z"/>
    <path d="m99.357 74.084q-0.05857 0.02239-0.12058 0.03273-0.06115 0.0112-0.12661 0.0112-0.20498 0-0.31609-0.1111-0.11024-0.1111-0.11024-0.3247 0-0.10249 0.03187-0.18604 0.03187-0.08354 0.08957-0.14297 0.05771-0.05943 0.1378-0.0913 0.0801-0.03273 0.17656-0.03273 0.06718 0 0.12575 0.0095 0.05857 0.0095 0.11197 0.03101v0.14297q-0.05598-0.02928-0.11455-0.0422-0.0577-0.01378-0.11972-0.01378-0.0577 0-0.10938 0.02239-0.05082 0.02153-0.08957 0.06287-0.03876 0.04134-0.06115 0.10077-0.02239 0.05943-0.02239 0.13436 0 0.15675 0.07579 0.23513 0.07665 0.07752 0.21187 0.07752 0.06115 0 0.118-0.01378 0.0577-0.01378 0.1111-0.04134z"/>
    <path d="m100.35 74.104q-0.0508 0.01292-0.10508 0.01809-0.0543 6e-3 -0.11024 6e-3 -0.16278 0-0.24288-0.07321-0.0801-0.07407-0.0801-0.22652v-0.45128h-0.24202v-0.12575h0.24202v-0.23771l0.14986-0.03876v0.27647h0.38844v0.12575h-0.38844v0.43925q0 0.09302 0.0491 0.13953 0.05 0.04565 0.14641 0.04565 0.0413 0 0.0904-6e-3 0.0491-0.0069 0.10249-0.02067z"/>
    <path d="m101.31 73.88q0 0.04565-0.0155 0.08182t-0.0422 0.0646q-0.0267 0.02756-0.062 0.04737t-0.0758 0.03273q-0.0396 0.01292-0.0818 0.01895-0.0422 6e-3 -0.0827 6e-3 -0.0879 0-0.16192-0.0078-0.0732-0.0078-0.14383-0.02498v-0.1378q0.0758 0.02153 0.15073 0.03273 0.0749 0.0112 0.149 0.0112 0.10765 0 0.15933-0.02928 0.0517-0.02928 0.0517-0.08354 0-0.02326-9e-3 -0.04134-8e-3 -0.01895-0.0293-0.03531-0.0215-0.01722-0.0672-0.03531-0.0448-0.01809-0.12316-0.04134-0.0586-0.01723-0.10852-0.03876-0.0491-0.02239-0.0853-0.05254t-0.0568-0.07062q-0.0207-0.04048-0.0207-0.0956 0-0.03617 0.0164-0.07924 0.0172-0.04306 0.0577-0.0801 0.0405-0.03703 0.10938-0.06115 0.0689-0.02498 0.17225-0.02498 0.0508 0 0.11283 6e-3 0.062 0.0052 0.12919 0.01895v0.1335q-0.0706-0.01723-0.13436-0.02498-0.0629-0.0086-0.10938-0.0086-0.056 0-0.0947 0.0086-0.0379 0.0086-0.062 0.02412-0.0233 0.01464-0.0336 0.03531-0.0103 0.01981-0.0103 0.04306t9e-3 0.0422 0.0336 0.03703q0.025 0.01723 0.0689 0.03531 0.0439 0.01722 0.11455 0.0379 0.0767 0.02239 0.12919 0.04737 0.0525 0.02412 0.0853 0.05426 0.0327 0.03014 0.0465 0.06804 0.0146 0.0379 0.0146 0.08613z"/>
   </g>
   <g aria-label="update">
    <path d="m87.292 82.848h-0.13436l-0.0052-0.13953q-0.03876 0.04479-0.07407 0.07493-0.03445 0.02928-0.0689 0.04737t-0.06976 0.02498q-0.03445 0.0078-0.07321 0.0078-0.1335 0-0.20154-0.07838-0.06804-0.07838-0.06804-0.23685v-0.565h0.14986v0.55294q0 0.19896 0.14986 0.19896 0.02756 0 0.0534-0.0078 0.0267-0.0086 0.05512-0.02842 0.02928-0.02067 0.06201-0.05512 0.03359-0.03445 0.07493-0.08699v-0.57361h0.14986z"/>
    <path d="m88.308 82.4q0 0.11541-0.03273 0.20154-0.03187 0.08613-0.08871 0.14297-0.05684 0.05684-0.13436 0.08527-0.07751 0.02842-0.16795 0.02842-0.04134 0-0.08268-0.0043-0.04048-0.0043-0.08268-0.01464v0.36174h-0.14986v-1.2178h0.1335l0.0095 0.14469q0.0646-0.08871 0.1378-0.12402 0.07321-0.03617 0.15847-0.03617 0.07407 0 0.13005 0.03101 0.05598 0.03101 0.09388 0.08785 0.0379 0.05598 0.05684 0.13608 0.01895 0.07924 0.01895 0.17742zm-0.15331 0.0069q0-0.06804-0.01033-0.12488-0.0095-0.05684-0.03101-0.09732-0.02153-0.04048-0.05512-0.06287-0.03359-0.02325-0.0801-0.02325-0.02842 0-0.0577 0.0095-0.02928 0.0086-0.06115 0.03015-0.03101 0.02067-0.06632 0.05598-0.03445 0.03445-0.07407 0.08613v0.41944q0.04134 0.01723 0.08699 0.02756 0.04565 0.0095 0.08957 0.0095 0.12144 0 0.19034-0.08182 0.0689-0.08268 0.0689-0.24805z"/>
    <path d="m88.496 82.433q0-0.11024 0.03014-0.19551 0.03014-0.08613 0.08527-0.14469 0.05598-0.05943 0.1335-0.08957 0.07838-0.03101 0.17398-0.03101 0.04134 0 0.08096 0.0052 0.04048 0.0052 0.07924 0.01636v-0.36346h0.15072v1.217h-0.13436l-0.0052-0.16364q-0.06287 0.09129-0.13608 0.13522-0.07321 0.04393-0.15848 0.04393-0.07407 0-0.13091-0.03101-0.05598-0.03101-0.09388-0.08699-0.03704-0.05684-0.05598-0.13608-0.01895-0.07924-0.01895-0.1757zm0.15331-0.0095q0 0.15675 0.04565 0.23427 0.04651 0.07665 0.13091 0.07665 0.05684 0 0.11972-0.05082 0.06373-0.05082 0.1335-0.15072v-0.40135q-0.03704-0.01723-0.08182-0.02584-0.04479-0.0095-0.08871-0.0095-0.1223 0-0.1912 0.07924-0.06804 0.07924-0.06804 0.24805z"/>
    <path d="m90.067 82.848-0.0034-0.11627q-0.07062 0.06976-0.14383 0.10077-0.07235 0.03101-0.15245 0.03101-0.07407 0-0.12661-0.01895-0.05254-0.01895-0.08699-0.05168-0.03359-0.03359-0.04995-0.07838-0.0155-0.04479-0.0155-0.09732 0-0.13005 0.09646-0.20326 0.09732-0.07407 0.2868-0.07407h0.17914v-0.07579q0-0.07665-0.04909-0.1223-0.04909-0.04651-0.14986-0.04651-0.07321 0-0.14469 0.01636-0.07063 0.01636-0.14642 0.04651v-0.13522q0.02842-0.01033 0.06287-0.01981 0.03531-0.01033 0.07407-0.01809 0.03876-0.0078 0.08096-0.01206 0.0422-0.0052 0.08527-0.0052 0.07838 0 0.14125 0.01722 0.06287 0.01723 0.10594 0.05254 0.04393 0.03531 0.06718 0.08871t0.02325 0.12575v0.596zm-0.01636-0.3936h-0.19034q-0.05598 0-0.09646 0.0112t-0.06632 0.03187-0.03876 0.04995q-0.01206 0.02842-0.01206 0.0646 0 0.02498 0.0078 0.04823 0.0078 0.02239 0.02498 0.04048 0.01723 0.01722 0.04479 0.02756t0.06718 0.01034q0.05168 0 0.11799-0.03101 0.06718-0.03187 0.14125-0.09991z"/>
    <path d="m91.18 82.836q-0.05082 0.01292-0.10508 0.01809-0.05426 6e-3 -0.11024 6e-3 -0.16278 0-0.24288-0.07321-0.0801-0.07407-0.0801-0.22652v-0.45131h-0.24202v-0.12575h0.24202v-0.23771l0.14986-0.03876v0.27647h0.38843v0.12575h-0.38843v0.43925q0 0.09302 0.04909 0.13953 0.04995 0.04565 0.14642 0.04565 0.04134 0 0.09043-6e-3 0.04909-0.0069 0.10249-0.02067z"/>
    <path d="m92.185 82.37q0 0.03187-8.61e-4 0.0534-8.62e-4 0.02153-0.0026 0.04048h-0.6072q0 0.13264 0.07407 0.20412 0.07407 0.07063 0.2136 0.07063 0.0379 0 0.07579-0.0026 0.0379-0.0034 0.07321-0.0086t0.06718-0.0112q0.03273-0.0069 0.06029-0.01464v0.12316q-0.06115 0.01723-0.13866 0.02756-0.07665 0.0112-0.15934 0.0112-0.1111 0-0.1912-0.03014-0.0801-0.03015-0.13178-0.08699-0.05082-0.0577-0.07579-0.14039-0.02412-0.08354-0.02412-0.18862 0-0.0913 0.02584-0.17226 0.0267-0.08182 0.07665-0.14297 0.05082-0.06201 0.12402-0.09819 0.07321-0.03617 0.16623-0.03617 0.09043 0 0.1602 0.02842 0.06976 0.02842 0.11713 0.08096 0.04823 0.05168 0.07235 0.12661 0.02498 0.07407 0.02498 0.16623zm-0.15589-0.02153q0.0026-0.05771-0.0112-0.10508-0.01378-0.04823-0.04306-0.08268-0.02842-0.03445-0.07149-0.0534-0.04306-0.01981-0.09991-0.01981-0.04909 0-0.08957 0.01895t-0.06976 0.0534-0.04737 0.08268-0.02239 0.10594z"/>
   </g>
  </g>
  <path d="m87.013 80.71h4.4273" fill="none" stroke="#d54747" stroke-width=".28231"/>
  <g transform="matrix(0 -.43574 .43574 0 -29.051 298.7)">
   <path d="m501.47 274.25-1.2053 3.2778-1.2053-3.2778c0.71162 0.52365 1.6852 0.52064 2.4106 0z" fill="#fff" fill-rule="evenodd" stroke="#d54747" stroke-linejoin="round" stroke-width=".1875"/>
  </g>
  <path d="m104.48 80.71h4.4273" fill="none" stroke="#d54747" stroke-width=".28231"/>
  <g transform="matrix(0 -.43574 .43574 0 -11.588 298.7)">
   <path d="m501.47 274.25-1.2053 3.2778-1.2053-3.2778c0.71162 0.52365 1.6852 0.52064 2.4106 0z" fill="#fff" fill-rule="evenodd" stroke="#d54747" stroke-linejoin="round" stroke-width=".1875"/>
  </g>
  <path d="m111.65 82.768c-0.0521-0.02117-0.0667-0.10051-0.0256-0.13917l0.0238-0.02235 0.7548-5e-3v-0.5156l-1.7447-5e-3 -0.0217-0.0252c-0.0119-0.01386-0.0242-0.0429-0.0273-0.06456-3e-3 -0.02165-4e-3 -0.69856-3e-3 -1.5042l3e-3 -1.4649 0.0301-0.02692 0.0301-0.0269h4.5462l0.0602 0.05384v3.0077l-0.0512 0.05114-1.7427 5e-3v0.5156l0.7548 5e-3 0.0238 0.02235c0.0319 0.02998 0.0326 0.08168 1e-3 0.11777l-0.0223 0.02588-1.2851 0.0017c-0.71249 0.0011-1.2939-0.0017-1.3048-0.0062zm3.446-2.2413v-1.3834h-4.307v2.7668h4.307z" fill="#e9e56f" stroke-width=".28222"/>
 </g>
</svg>
