<svg width="325.15" height="124.66" version="1.1" viewBox="0 0 86.029 32.981" xmlns="http://www.w3.org/2000/svg">
 <path d="m13.515 14.792h2.1033l-2.1033 2.1048z" fill="#acacac"/>
 <path d="m15.618 16.896h-2.1033l2.1033-2.1048z" fill="#727272"/>
 <g transform="matrix(.44871 0 0 .44903 -369.29 -188.33)" stroke-width=".62875">
  <path d="m853.12 447.67h4.6875l-4.6875 4.6875z" fill="#acacac"/>
  <path d="m857.81 452.36h-4.6875l4.6875-4.6875z" fill="#727272"/>
 </g>
 <g>
  <path d="m15.618 14.792h2.1033l-2.1033 2.1048z" fill="#acacac"/>
  <path d="m17.722 16.896h-2.1033l2.1033-2.1048z" fill="#727272"/>
  <path d="m15.618 12.687h2.1033l-2.1033 2.1048z" fill="#acacac"/>
  <path d="m17.722 14.792h-2.1033l2.1033-2.1048z" fill="#727272"/>
  <path d="m17.722 14.792h2.1033l-2.1033 2.1048z" fill="#acacac"/>
  <path d="m19.825 16.896h-2.1033l2.1033-2.1048z" fill="#727272"/>
  <path d="m17.722 12.687h2.1033l-2.1033 2.1048z" fill="#acacac"/>
  <path d="m19.825 14.792h-2.1033l2.1033-2.1048z" fill="#727272"/>
  <path d="m19.825 14.792h2.1033l-2.1033 2.1048z" fill="#acacac"/>
  <path d="m21.928 16.896h-2.1033l2.1033-2.1048z" fill="#727272"/>
  <path d="m19.825 12.687h2.1033l-2.1033 2.1048z" fill="#acacac"/>
  <path d="m21.928 14.792h-2.1033l2.1033-2.1048z" fill="#727272"/>
  <path d="m21.928 14.792h2.1033l-2.1033 2.1048z" fill="#acacac"/>
  <path d="m24.032 16.896h-2.1033l2.1033-2.1048z" fill="#727272"/>
  <path d="m21.928 12.687h2.1033l-2.1033 2.1048z" fill="#acacac"/>
  <path d="m24.032 14.792h-2.1033l2.1033-2.1048z" fill="#727272"/>
  <path d="m24.032 14.792h2.1033l-2.1033 2.1048z" fill="#acacac"/>
  <path d="m26.135 16.896h-2.1033l2.1033-2.1048z" fill="#727272"/>
  <path d="m24.032 12.687h2.1033l-2.1033 2.1048z" fill="#acacac"/>
  <path d="m26.135 14.792h-2.1033l2.1033-2.1048z" fill="#727272"/>
  <path d="m26.135 14.792h2.1033l-2.1033 2.1048z" fill="#acacac"/>
  <path d="m28.238 16.896h-2.1033l2.1033-2.1048z" fill="#727272"/>
  <path d="m26.135 12.687h2.1033l-2.1033 2.1048z" fill="#acacac"/>
  <path d="m28.238 14.792h-2.1033l2.1033-2.1048z" fill="#727272"/>
  <path d="m28.238 14.792h2.1033l-2.1033 2.1048z" fill="#acacac"/>
  <path d="m30.342 16.896h-2.1033l2.1033-2.1048z" fill="#727272"/>
  <path d="m28.238 12.687h2.1033l-2.1033 2.1048z" fill="#acacac"/>
  <path d="m30.342 14.792h-2.1033l2.1033-2.1048z" fill="#727272"/>
  <path d="m30.342 14.792h2.1033l-2.1033 2.1048z" fill="#acacac"/>
  <path d="m32.445 16.896h-2.1033l2.1033-2.1048z" fill="#727272"/>
  <path d="m30.342 12.687h2.1033l-2.1033 2.1048z" fill="#acacac"/>
  <path d="m32.445 14.792h-2.1033l2.1033-2.1048z" fill="#727272"/>
  <path d="m32.445 14.792h2.1033l-2.1033 2.1048z" fill="#acacac"/>
  <path d="m34.548 16.896h-2.1033l2.1033-2.1048z" fill="#727272"/>
  <path d="m32.445 12.687h2.1033l-2.1033 2.1048z" fill="#acacac"/>
  <path d="m34.548 14.792h-2.1033l2.1033-2.1048z" fill="#727272"/>
  <path d="m34.548 14.792h2.1033l-2.1033 2.1048z" fill="#acacac"/>
  <path d="m36.652 16.896h-2.1033l2.1033-2.1048z" fill="#727272"/>
  <path d="m34.548 12.687h2.1033l-2.1033 2.1048z" fill="#acacac"/>
  <path d="m36.652 14.792h-2.1033l2.1033-2.1048z" fill="#727272"/>
  <path d="m36.652 14.792h2.1033l-2.1033 2.1048z" fill="#acacac"/>
  <path d="m38.755 16.896h-2.1033l2.1033-2.1048z" fill="#727272"/>
  <path d="m36.652 12.687h2.1033l-2.1033 2.1048z" fill="#acacac"/>
  <path d="m38.755 14.792h-2.1033l2.1033-2.1048z" fill="#727272"/>
  <path d="m38.755 14.792h2.1033l-2.1033 2.1048z" fill="#acacac"/>
  <path d="m40.858 16.896h-2.1033l2.1033-2.1048z" fill="#727272"/>
  <path d="m38.755 12.687h2.1033l-2.1033 2.1048z" fill="#acacac"/>
  <path d="m40.858 14.792h-2.1033l2.1033-2.1048z" fill="#727272"/>
  <path d="m40.858 14.792h2.1033l-2.1033 2.1048z" fill="#acacac"/>
  <path d="m42.962 16.896h-2.1033l2.1033-2.1048z" fill="#727272"/>
  <path d="m40.858 12.687h2.1033l-2.1033 2.1048z" fill="#acacac"/>
  <path d="m42.962 14.792h-2.1033l2.1033-2.1048z" fill="#727272"/>
  <path d="m42.962 14.792h2.1033l-2.1033 2.1048z" fill="#acacac"/>
  <path d="m45.065 16.896h-2.1033l2.1033-2.1048z" fill="#727272"/>
  <path d="m42.962 12.687h2.1033l-2.1033 2.1048z" fill="#acacac"/>
  <path d="m45.065 14.792h-2.1033l2.1033-2.1048z" fill="#727272"/>
  <path d="m45.065 14.792h2.1033l-2.1033 2.1048z" fill="#acacac"/>
  <path d="m47.168 16.896h-2.1033l2.1033-2.1048z" fill="#727272"/>
  <path d="m45.065 12.687h2.1033l-2.1033 2.1048z" fill="#acacac"/>
  <path d="m47.168 14.792h-2.1033l2.1033-2.1048z" fill="#727272"/>
  <path d="m47.168 14.792h2.1033l-2.1033 2.1048z" fill="#acacac"/>
  <path d="m49.271 16.896h-2.1033l2.1033-2.1048z" fill="#727272"/>
  <path d="m47.168 12.687h2.1033l-2.1033 2.1048z" fill="#acacac"/>
  <path d="m49.271 14.792h-2.1033l2.1033-2.1048z" fill="#727272"/>
  <path d="m49.271 14.792h2.1033l-2.1033 2.1048z" fill="#acacac"/>
  <path d="m51.375 16.896h-2.1033l2.1033-2.1048z" fill="#727272"/>
  <path d="m49.271 12.687h2.1033l-2.1033 2.1048z" fill="#acacac"/>
  <path d="m51.375 14.792h-2.1033l2.1033-2.1048z" fill="#727272"/>
  <path d="m51.375 14.792h2.1033l-2.1033 2.1048z" fill="#acacac"/>
  <path d="m53.478 16.896h-2.1033l2.1033-2.1048z" fill="#727272"/>
  <path d="m51.375 12.687h2.1033l-2.1033 2.1048z" fill="#acacac"/>
  <path d="m53.478 14.792h-2.1033l2.1033-2.1048z" fill="#727272"/>
  <path d="m53.478 14.792h2.1033l-2.1033 2.1048z" fill="#acacac"/>
  <path d="m55.581 16.896h-2.1033l2.1033-2.1048z" fill="#727272"/>
  <path d="m53.478 12.687h2.1033l-2.1033 2.1048z" fill="#acacac"/>
  <path d="m55.581 14.792h-2.1033l2.1033-2.1048z" fill="#727272"/>
 </g>
 <g transform="matrix(.44871 0 0 .44903 -363.4 -190.44)" stroke-width=".62875">
  <path d="m853.12 447.67h4.6875l-4.6875 4.6875z" fill="#acacac"/>
  <path d="m857.81 452.36h-4.6875l4.6875-4.6875z" fill="#727272"/>
 </g>
 <g transform="matrix(.44871 0 0 .44903 -351.62 -190.44)" stroke-width=".62875">
  <path d="m853.12 447.67h4.6875l-4.6875 4.6875z" fill="#acacac"/>
  <path d="m857.81 452.36h-4.6875l4.6875-4.6875z" fill="#727272"/>
 </g>
 <g transform="matrix(.62819 0 0 .62865 -500.11 -271.69)" stroke-width=".44911">
  <path d="m853.12 447.67h4.6875l-4.6875 4.6875z" fill="#acacac"/>
  <path d="m857.81 452.36h-4.6875l4.6875-4.6875z" fill="#727272"/>
 </g>
 <g transform="matrix(.80767 0 0 .80826 -645.66 -352.94)" stroke-width=".3493">
  <path d="m853.12 447.67h4.6875l-4.6875 4.6875z" fill="#acacac"/>
  <path d="m857.81 452.36h-4.6875l4.6875-4.6875z" fill="#727272"/>
 </g>
 <g>
  <path d="m32.445 3.0045h2.1033l-2.1033 2.1048z" fill="#acacac"/>
  <path d="m34.548 5.1093h-2.1033l2.1033-2.1048z" fill="#727272"/>
  <path d="m28.238 3.0045h2.1033l-2.1033 2.1048z" fill="#acacac"/>
  <path d="m30.342 5.1093h-2.1033l2.1033-2.1048z" fill="#727272"/>
  <path d="m30.342 3.0045h2.1033l-2.1033 2.1048z" fill="#acacac"/>
  <path d="m32.445 5.1093h-2.1033l2.1033-2.1048z" fill="#727272"/>
  <path d="m26.135 3.0045h2.1033l-2.1033 2.1048z" fill="#acacac"/>
  <path d="m28.238 5.1093h-2.1033l2.1033-2.1048z" fill="#727272"/>
  <path d="m17.301 1.3206h6.7306l-6.7306 2.5258z" fill="#acacac"/>
  <path d="m24.032 3.8464h-6.7306l6.7306-2.5258z" fill="#727272"/>
  <path d="m38.334 2.1625h6.7306l-6.7306 2.5258z" fill="#acacac"/>
  <path d="m45.065 4.6883h-6.7306l6.7306-2.5258z" fill="#727272"/>
 </g>
 <g fill="none">
  <g stroke="#fff" stroke-linejoin="round">
   <rect x="13.515" y="27.421" width="42.066" height="4.2097" stroke-width=".052917" style="paint-order:fill markers stroke"/>
   <rect transform="scale(-1,1)" x="-21.392" y="25.358" width="1.9456" height="2.0627" stroke-width=".052917" style="paint-order:fill markers stroke"/>
   <rect transform="scale(-1,1)" x="-33.244" y="25.358" width="2.0192" height="2.0627" stroke-width=".052917" style="paint-order:fill markers stroke"/>
   <rect transform="scale(-1,1)" x="-38.713" y="24.516" width="2.8605" height="2.9047" stroke-width=".052917" style="paint-order:fill markers stroke"/>
   <rect transform="scale(-1,1)" x="-47.126" y="23.674" width="3.7019" height="3.7466" stroke-width=".052917" style="paint-order:fill markers stroke"/>
   <g stroke-width=".052917">
    <rect transform="scale(-1,1)" x="-28.196" y="19.885" width="2.0192" height="2.0627" style="paint-order:fill markers stroke"/>
    <rect transform="scale(-1,1)" x="-30.3" y="19.885" width="2.0192" height="2.0627" style="paint-order:fill markers stroke"/>
    <rect transform="scale(-1,1)" x="-32.403" y="19.885" width="2.0192" height="2.0627" style="paint-order:fill markers stroke"/>
    <rect transform="scale(-1,1)" x="-34.506" y="19.885" width="2.0192" height="2.0627" style="paint-order:fill markers stroke"/>
   </g>
  </g>
  <g stroke-dasharray="0.19844001, 0.39688001" stroke-width=".19844">
   <path d="m45.486 3.4254h23.557v6.3145" stroke="#e9e56f"/>
   <path d="m34.969 4.2674h42.066v5.4726" stroke="#6fe971"/>
   <path d="m56.002 14.792h28.605v-7.9984" stroke="#fff"/>
   <path d="m24.873 1.7416h44.17v1.9485" stroke="#e9e56f"/>
   <path d="m47.589 11.845h26.502" stroke="#d76fe9"/>
   <path d="m66.098 5.1093h-29.026v3.3677" stroke="#b16fe9"/>
   <path d="m61.471 6.3722h-29.026v3.3677" stroke="#6fe9db"/>
   <path d="m74.932 8.898h-54.265v1.2629" stroke="#e96f9b"/>
  </g>
 </g>
 <g fill="#e9e56f" stroke-width=".28223px" aria-label="view model">
  <path d="m1.3229 6.8915 0.53583 1.3648h0.16874l0.32861-0.77267c0.079931-0.18947 0.1569-0.38485 0.20131-0.59208h-0.19243c-0.035525 0.19835-0.10657 0.38485-0.18355 0.56248l-0.21611 0.50327-0.39077-0.98878c-0.00296-0.00592-0.00592-0.011842-0.00592-0.017762 0-0.017762 0.014802-0.035525 0.00888-0.059208z"/>
  <path d="m3.0015 6.8915v0.17466h0.32565v1.0095h-0.34341v0.16874h0.87628v-0.16874h-0.31676v-1.1842zm0.43814-0.58616c-0.085852 0-0.15394 0.068089-0.15394 0.15098s0.06809 0.15098 0.15394 0.15098c0.085852 0 0.15394-0.06809 0.15394-0.15098 0-0.082892-0.06809-0.15098-0.15394-0.15098z"/>
  <path d="m4.9317 6.8619c-0.32268 0-0.62169 0.23091-0.62169 0.72234 0 0.45294 0.28124 0.69274 0.64833 0.69274 0.19539 0 0.37005-0.07105 0.48551-0.21019l-0.11842-0.11546c-0.085852 0.10065-0.21611 0.15394-0.34933 0.15394-0.18059 0-0.44406-0.10065-0.45886-0.50623h0.95917c0.00888-0.091773 0.00592-0.18059-0.00888-0.25756-0.06217-0.36413-0.3138-0.47959-0.53584-0.47959zm-0.40854 0.57432c0.044406-0.31972 0.24867-0.4115 0.39373-0.4115 0.21907 0 0.37597 0.19243 0.34933 0.4115z"/>
  <path d="m5.6925 6.8915 0.27236 1.3559h0.19243l0.23683-0.87628 0.25164 0.87628h0.19835c0.091773-0.44702 0.16874-0.89997 0.22499-1.3529h-0.19539c0.00592 0.16282-0.00888 0.3138-0.1273 1.0835l-0.2842-0.95917h-0.13026l-0.23387 0.96213-0.19539-0.97694c-0.00592-0.020723-0.00592-0.029604 0.00296-0.053287 0.00296-0.014802 0.011842-0.035525 0.00296-0.059208z"/>
  <path d="m8.718 8.2444h0.19539v-0.89997c0-0.065129 0.00592-0.12434 0.044406-0.19539 0.047367-0.088812 0.10657-0.12434 0.16282-0.12434 0.047367 0 0.10065 0.029604 0.12434 0.10361 0.017762 0.056248 0.014802 0.12138 0.014802 0.17762v0.93845h0.19835v-0.89404c0-0.07105 0.00592-0.1273 0.056248-0.21315 0.023683-0.035525 0.07401-0.12138 0.1569-0.12138 0.044406 0 0.085852 0.026644 0.10657 0.076971 0.026644 0.056248 0.020723 0.13322 0.020723 0.19539v0.95917h0.20131v-0.96213c0-0.1125 0.00296-0.22499-0.056248-0.31676-0.050327-0.076971-0.13618-0.10657-0.21019-0.10657-0.13026 0-0.25164 0.076971-0.30492 0.19539-0.020723-0.1125-0.11546-0.19539-0.23683-0.19539-0.1125 0-0.21611 0.07105-0.27828 0.16578l0.00296-0.13322h-0.19835z"/>
  <path d="m11.451 7.5754c0-0.46775-0.29604-0.7105-0.60392-0.7105-0.34341 0-0.63945 0.29604-0.63945 0.71642 0 0.4115 0.29308 0.70162 0.63353 0.70162 0.31972 0 0.60984-0.25756 0.60984-0.70754zm-0.61873-0.52991c0.19539 0 0.40262 0.16874 0.40262 0.5388 0 0.34045-0.19539 0.51215-0.39078 0.51215-0.21611 0-0.4115-0.20131-0.4115-0.53583 0-0.33157 0.19243-0.51511 0.39966-0.51511z"/>
  <path d="m12.667 7.0899c-0.06513-0.13914-0.21019-0.23091-0.3967-0.23091-0.25756 0-0.57136 0.18355-0.57136 0.69866 0 0.50031 0.27828 0.71938 0.5388 0.71938 0.1717 0 0.33157-0.097694 0.41742-0.24867v0.11842c0 0.032565 3e-3 0.065129 0.01184 0.097694h0.21315c-0.01184-0.038485-0.01184-0.082892-0.01184-0.12434l-3e-3 -1.7585c0-0.017762 0-0.023683 0.01184-0.041446 0.0059-0.00888 0.01776-0.023683 0.0148-0.044406h-0.22499zm-0.38781-0.056248c0.11842 0 0.29308 0.062169 0.34637 0.26348 0.01776 0.062169 0.02368 0.13618 0.02368 0.28716 0 0.10361-0.0059 0.17762-0.0296 0.24867-0.05033 0.15986-0.19243 0.2546-0.33157 0.2546-0.15394 0-0.38189-0.11842-0.38189-0.56248 0-0.38781 0.21611-0.49143 0.37301-0.49143z"/>
  <path d="m13.813 6.8619c-0.32268 0-0.62169 0.23091-0.62169 0.72234 0 0.45294 0.28124 0.69274 0.64833 0.69274 0.19539 0 0.37005-0.07105 0.48551-0.21019l-0.11842-0.11546c-0.08585 0.10065-0.21611 0.15394-0.34933 0.15394-0.18058 0-0.44406-0.10065-0.45886-0.50623h0.95917c0.0089-0.091773 0.0059-0.18059-0.0089-0.25756-0.06217-0.36413-0.3138-0.47959-0.53583-0.47959zm-0.40854 0.57432c0.04441-0.31972 0.24867-0.4115 0.39374-0.4115 0.21907 0 0.37597 0.19243 0.34933 0.4115z"/>
  <path d="m14.778 6.2787v0.1717h0.38485v1.6253h-0.40262v0.16874h1.0154v-0.16874h-0.39966v-1.797z"/>
 </g>
 <g fill="#e9e56f" stroke-width=".28223px" aria-label="physics model">
  <path d="m1.3821 21.976 0.00296 1.8443h0.21611v-0.67201c0.091773 0.13322 0.24275 0.21611 0.40558 0.21611 0.27828 0 0.5684-0.23387 0.5684-0.72826 0-0.47663-0.28124-0.68978-0.54768-0.68978-0.17466 0-0.33749 0.08881-0.42926 0.23683v-0.20723zm0.56544 0.15098c0.11842 0 0.40558 0.06217 0.40558 0.5536 0 0.4263-0.27828 0.49439-0.40558 0.49439s-0.25756-0.06513-0.31084-0.18651c-0.038485-0.09177-0.038485-0.20427-0.038485-0.39966 0-0.1125 0.00592-0.19539 0.035525-0.26644 0.053287-0.12138 0.17762-0.19539 0.3138-0.19539z"/>
  <path d="m2.892 23.326h0.21907v-0.77859c0-0.08881 0.00888-0.1569 0.065129-0.23091 0.053287-0.06809 0.18355-0.18947 0.32565-0.18947 0.06809 0 0.13618 0.0296 0.18355 0.08585 0.07401 0.08881 0.07401 0.20427 0.07401 0.299v0.81411h0.21019v-0.82003c0-0.10361-0.00296-0.21611-0.050327-0.32564-0.068089-0.15098-0.20427-0.23683-0.35821-0.23683-0.18355 0-0.35229 0.11842-0.44998 0.2694v-0.78451c0-0.0089 0-0.01776 0.00888-0.02664 0.00888-0.0089 0.020723-0.01776 0.020723-0.03256 0-3e-3 0-0.0059-0.00296-0.0089h-0.24571z"/>
  <path d="m4.3011 21.976 0.55064 1.347-0.044406 0.09769c-0.023683 0.05625-0.050327 0.1125-0.091773 0.1569-0.056248 0.06217-0.1273 0.08881-0.18947 0.08881-0.10065 0-0.15098-0.06809-0.15986-0.07993-0.00888-0.0148-0.00592-0.03552-0.023683-0.05033l-0.10954 0.19243c0.076971 0.07401 0.18059 0.1125 0.29308 0.1125 0.12138 0 0.24867-0.04441 0.33749-0.14506 0.059208-0.06809 0.088812-0.13914 0.11842-0.21611l0.42038-1.1161c0.050327-0.1273 0.094733-0.25756 0.13618-0.39077h-0.22203c-0.023683 0.12434-0.062169 0.24275-0.10361 0.36117l-0.25756 0.72531-0.3967-0.99766c-0.00296-0.0089-0.00296-0.0148-0.00296-0.02368 0-0.02072 0.014802-0.03552 0.011842-0.06217z"/>
  <path d="m6.927 22.154c-0.12434-0.13618-0.30492-0.21019-0.50623-0.21019-0.3138 0-0.51807 0.17466-0.51807 0.37597 0 0.23683 0.2546 0.32268 0.32861 0.34933 0.11546 0.04144 0.26348 0.07697 0.36413 0.12434 0.1125 0.05329 0.13322 0.12434 0.13322 0.1717 0 0.1273-0.15394 0.21315-0.34637 0.21315-0.23091 0-0.37893-0.13914-0.42334-0.18651-0.00888-0.01184-0.00888-0.02072-0.00888-0.03256 0-3e-3 0.00296-0.02072-0.011842-0.02664l-0.12434 0.21019c0.15986 0.14802 0.36709 0.21611 0.57136 0.21611 0.37005 0 0.56248-0.21907 0.56248-0.42334 0-0.09177-0.038485-0.21611-0.19835-0.30492-0.15098-0.08585-0.37005-0.11546-0.49735-0.17762-0.10954-0.05329-0.13322-0.11842-0.13322-0.16578 0-0.10657 0.13322-0.18354 0.2842-0.18354 0.19539 0 0.32565 0.11842 0.37597 0.18651 0.00888 0.0089 0.00592 0.01776 0.00592 0.02664 0 0.01776 0.011842 0.02368 0.017762 0.02368z"/>
  <path d="m7.4421 21.973v0.17466h0.32565v1.0095h-0.34341v0.16874h0.87628v-0.16874h-0.31676v-1.1842zm0.43814-0.58616c-0.085852 0-0.15394 0.06809-0.15394 0.15098 0 0.08289 0.06809 0.15098 0.15394 0.15098 0.085852 0 0.15394-0.06809 0.15394-0.15098 0-0.08289-0.068089-0.15098-0.15394-0.15098z"/>
  <path d="m9.9585 22.198c-0.10657-0.1569-0.28716-0.25164-0.50623-0.25164-0.3967 0-0.67793 0.299-0.67793 0.70458 0 0.40854 0.28124 0.7105 0.66609 0.7105 0.18651 0 0.37005-0.07697 0.49735-0.21611l-0.12138-0.1421c-0.091773 0.10362-0.22499 0.16282-0.35821 0.16282-0.26348 0-0.46478-0.21907-0.46478-0.53584 0-0.30788 0.19835-0.50031 0.44702-0.50031 0.23091 0 0.34045 0.15986 0.34933 0.17762 0.011842 0.02072-0.00592 0.05033 0.017762 0.06809z"/>
  <path d="m11.368 22.154c-0.12434-0.13618-0.30492-0.21019-0.50623-0.21019-0.3138 0-0.51807 0.17466-0.51807 0.37597 0 0.23683 0.2546 0.32268 0.3286 0.34933 0.11546 0.04144 0.26348 0.07697 0.36413 0.12434 0.1125 0.05329 0.13322 0.12434 0.13322 0.1717 0 0.1273-0.15394 0.21315-0.34637 0.21315-0.23091 0-0.37893-0.13914-0.42334-0.18651-0.0089-0.01184-0.0089-0.02072-0.0089-0.03256 0-3e-3 3e-3 -0.02072-0.01184-0.02664l-0.12434 0.21019c0.15986 0.14802 0.36709 0.21611 0.57136 0.21611 0.37005 0 0.56248-0.21907 0.56248-0.42334 0-0.09177-0.03848-0.21611-0.19835-0.30492-0.15098-0.08585-0.37005-0.11546-0.49735-0.17762-0.10954-0.05329-0.13322-0.11842-0.13322-0.16578 0-0.10657 0.13322-0.18354 0.2842-0.18354 0.19539 0 0.32565 0.11842 0.37597 0.18651 0.0089 0.0089 0.0059 0.01776 0.0059 0.02664 0 0.01776 0.01184 0.02368 0.01776 0.02368z"/>
  <path d="m13.159 23.326h0.19539v-0.89996c0-0.06513 0.0059-0.12434 0.04441-0.19539 0.04737-0.08881 0.10658-0.12434 0.16282-0.12434 0.04737 0 0.10065 0.0296 0.12434 0.10362 0.01776 0.05625 0.0148 0.12138 0.0148 0.17762v0.93845h0.19835v-0.89404c0-0.07105 0.0059-0.1273 0.05625-0.21315 0.02368-0.03552 0.07401-0.12138 0.1569-0.12138 0.04441 0 0.08585 0.02664 0.10658 0.07697 0.02664 0.05625 0.02072 0.13322 0.02072 0.19539v0.95917h0.20131v-0.96213c0-0.1125 3e-3 -0.22499-0.05625-0.31676-0.05033-0.07697-0.13618-0.10657-0.21019-0.10657-0.13026 0-0.25164 0.07697-0.30492 0.19539-0.02072-0.1125-0.11546-0.19539-0.23683-0.19539-0.1125 0-0.21611 0.07105-0.27828 0.16578l3e-3 -0.13322h-0.19835z"/>
  <path d="m15.891 22.657c0-0.46774-0.29604-0.7105-0.60392-0.7105-0.34341 0-0.63945 0.29604-0.63945 0.71642 0 0.4115 0.29308 0.70162 0.63353 0.70162 0.31972 0 0.60984-0.25756 0.60984-0.70754zm-0.61873-0.52991c0.19539 0 0.40262 0.16874 0.40262 0.5388 0 0.34045-0.19539 0.51215-0.39077 0.51215-0.21611 0-0.4115-0.20131-0.4115-0.53584 0-0.33157 0.19243-0.51511 0.39966-0.51511z"/>
  <path d="m17.108 22.171c-0.06513-0.13914-0.21019-0.23091-0.3967-0.23091-0.25756 0-0.57136 0.18355-0.57136 0.69866 0 0.50031 0.27828 0.71938 0.5388 0.71938 0.1717 0 0.33157-0.09769 0.41742-0.24868v0.11842c0 0.03256 3e-3 0.06513 0.01184 0.09769h0.21315c-0.01184-0.03848-0.01184-0.08289-0.01184-0.12434l-3e-3 -1.7585c0-0.01776 0-0.02368 0.01184-0.04145 0.0059-0.0089 0.01776-0.02368 0.0148-0.04441h-0.22499zm-0.38781-0.05625c0.11842 0 0.29308 0.06217 0.34637 0.26348 0.01776 0.06217 0.02368 0.13618 0.02368 0.28716 0 0.10362-0.0059 0.17762-0.0296 0.24868-0.05033 0.15986-0.19243 0.2546-0.33157 0.2546-0.15394 0-0.38189-0.11842-0.38189-0.56248 0-0.38781 0.21611-0.49143 0.37301-0.49143z"/>
  <path d="m18.254 21.943c-0.32268 0-0.62169 0.23091-0.62169 0.72234 0 0.45294 0.28124 0.69274 0.64833 0.69274 0.19539 0 0.37005-0.07105 0.48551-0.21019l-0.11842-0.11546c-0.08585 0.10065-0.21611 0.15394-0.34933 0.15394-0.18058 0-0.44406-0.10065-0.45886-0.50623h0.95917c0.0089-0.09177 0.0059-0.18058-0.0089-0.25756-0.06217-0.36413-0.3138-0.47959-0.53584-0.47959zm-0.40854 0.57432c0.04441-0.31972 0.24868-0.4115 0.39374-0.4115 0.21907 0 0.37597 0.19243 0.34933 0.4115z"/>
  <path d="m19.219 21.36v0.1717h0.38485v1.6253h-0.40262v0.16874h1.0154v-0.16874h-0.39966v-1.797z"/>
 </g>
</svg>
