<svg width="57.535mm" height="27.18mm" version="1.1" viewBox="0 0 57.535 27.18" xmlns="http://www.w3.org/2000/svg">
 <g transform="translate(.81585 -117.97)">
  <g fill="none" stroke="#e9e56f">
   <path d="m39.759 125.02v-3.9572" opacity=".91" stroke-width=".056444"/>
   <rect x="8.1282" y="132.97" width="47.432" height="3.9044" opacity=".91" stroke-width=".14111"/>
   <g stroke-width=".14111">
    <path d="m13.378 136.9v-3.9572" opacity=".91"/>
    <path d="m18.654 136.9v-3.9572" opacity=".91"/>
    <path d="m23.931 136.9v-3.9572" opacity=".91"/>
    <path d="m29.207 136.9v-3.9572" opacity=".91"/>
    <path d="m34.483 136.9v-3.9572" opacity=".91"/>
    <path d="m39.759 136.9v-3.9572" opacity=".91"/>
   </g>
  </g>
  <g fill="#e9e56f" stroke-width=".28222px">
   <g opacity=".91" aria-label="Client A">
    <path d="m0.57492 122.57c-0.15994 0-0.39077 0.11707-0.39077 0.52928 0 0.39572 0.22094 0.52433 0.39077 0.52433 0.12201 0 0.23578-0.0643 0.30009-0.16983l-0.08409-0.0544c-0.047816 0.0775-0.13026 0.12367-0.2094 0.12367-0.15169 0-0.28525-0.15664-0.28525-0.43529 0-0.27206 0.13026-0.4254 0.27535-0.4254 0.079144 0 0.15499 0.0478 0.19621 0.12036 0.003298 5e-3 0.006595 0.01 0.006595 0.0165 0 5e-3 -0.001649 8e-3 -0.001649 0.0132 0 2e-3 0 0.01 0.008244 0.0148l0.10882-0.0528c-0.054411-0.12366-0.17807-0.20446-0.31493-0.20446z"/>
    <path d="m1.0811 122.52v0.0956h0.21435v0.9052h-0.22424v0.094h0.56555v-0.094h-0.22259v-1.0008z"/>
    <path d="m1.9418 122.86v0.0973h0.18137v0.56225h-0.19126v0.094h0.48805v-0.094h-0.17642v-0.65953zm0.24403-0.32646c-0.047816 0-0.085739 0.0379-0.085739 0.0841s0.037923 0.0841 0.085739 0.0841 0.085739-0.0379 0.085739-0.0841-0.037923-0.0841-0.085739-0.0841z"/>
    <path d="m3.0168 122.84c-0.17972 0-0.34625 0.1286-0.34625 0.40231 0 0.25227 0.15664 0.38583 0.36109 0.38583 0.10882 0 0.2061-0.0396 0.27041-0.11707l-0.065953-0.0643c-0.047816 0.0561-0.12036 0.0857-0.19456 0.0857-0.10058 0-0.24732-0.0561-0.25557-0.28195h0.53422c0.00495-0.0511 0.0033-0.10057-0.00495-0.14344-0.034625-0.20281-0.17478-0.26711-0.29844-0.26711zm-0.22754 0.31987c0.024732-0.17808 0.1385-0.22919 0.21929-0.22919 0.12201 0 0.2094 0.10717 0.19456 0.22919z"/>
    <path d="m3.528 123.61h0.12036v-0.43364c0-0.0495 0.0066-0.0874 0.037923-0.12861 0.02803-0.0379 0.10058-0.10553 0.17972-0.10553 0.037923 0 0.075846 0.0165 0.10223 0.0478 0.041221 0.0495 0.041221 0.11377 0.041221 0.16653v0.45343h0.11707v-0.45673c0-0.0577 0-0.12036-0.026381-0.18137-0.037923-0.0841-0.11542-0.1319-0.20116-0.1319-0.10223 0-0.19456 0.066-0.25062 0.15004v-0.13191h-0.12036z"/>
    <path d="m4.5502 122.66-0.014839 0.2028h-0.17972l-0.00165 0.0973h0.17643c-0.00989 0.12861-0.014839 0.25722-0.014839 0.38418 0 0.0676 0 0.14345 0.044518 0.2061 0.036274 0.0495 0.093983 0.0791 0.17148 0.0791 0.089037 0 0.17642-0.0379 0.24073-0.0841l-0.036274-0.094c-0.064304 0.0478-0.12366 0.0692-0.16983 0.0692-0.05606 0-0.11377-0.0313-0.12696-0.12201 0-7e-3 -0.00495-0.0346-0.00495-0.1451 0-0.0973 0.00495-0.19621 0.014839-0.29349h0.24732v-0.0989h-0.24567s0.011542-0.1352 0.019786-0.17807c0.00165-0.0165 0.014839-0.0264 0.00824-0.0445z"/>
    <path d="m5.9122 123.61h0.11377l0.10058-0.30174h0.32482l0.11377 0.30009h0.12036l-0.39737-1.0454h-0.013191zm0.51443-0.39078h-0.27865l0.13356-0.39077z"/>
   </g>
   <g opacity=".91" aria-label="Server">
    <path d="m2.6338 134.59c-0.069251-0.0841-0.17148-0.12861-0.2836-0.12861-0.18632 0-0.31328 0.12202-0.31328 0.26382 0 0.0594 0.023084 0.13685 0.10882 0.1995 0.095632 0.0709 0.24403 0.10553 0.32152 0.15499 0.067602 0.0412 0.085739 0.0956 0.085739 0.1418 0 0.089-0.075846 0.18632-0.22424 0.18632-0.11212 0-0.19951-0.0561-0.24568-0.11377-0.00495-7e-3 -0.00495-0.01-0.00495-0.0165 0-3e-3 0-0.0132-0.0066-0.0165l-0.069251 0.11871c0.080793 0.0874 0.19621 0.13191 0.32317 0.13191 0.25062 0 0.34296-0.16818 0.34296-0.29679 0-0.0544-0.016488-0.12531-0.080793-0.18632-0.089037-0.0841-0.23413-0.11377-0.32812-0.16818-0.085739-0.0511-0.10388-0.11212-0.10388-0.15334 0-0.0791 0.067602-0.15004 0.18467-0.15004 0.095632 0 0.16983 0.0429 0.2094 0.10057 0.00495 7e-3 0.0033 0.01 0.0033 0.0165 0 0.01 0.00495 0.0132 0.00824 0.0132z"/>
    <path d="m3.168 134.72c-0.17972 0-0.34625 0.12861-0.34625 0.40231 0 0.25227 0.15664 0.38583 0.36109 0.38583 0.10882 0 0.2061-0.0396 0.27041-0.11707l-0.065953-0.0643c-0.047816 0.0561-0.12036 0.0857-0.19456 0.0857-0.10058 0-0.24732-0.0561-0.25557-0.28195h0.53422c0.00495-0.0511 0.0033-0.10058-0.00495-0.14345-0.034625-0.20281-0.17478-0.26711-0.29844-0.26711zm-0.22754 0.31987c0.024732-0.17807 0.1385-0.22919 0.21929-0.22919 0.12201 0 0.2094 0.10718 0.19456 0.22919z"/>
    <path d="m3.7303 134.74v0.75351h0.11872v-0.36604c0-0.0462 0.00165-0.0956 0.052763-0.17642 0.069251-0.10883 0.15829-0.12696 0.2127-0.12696 0.062655 0 0.10223 0.0297 0.12366 0.0561 0.00989 0.0132 0.014839 0.0264 0.02803 0.0379l0.05606-0.11377c-0.047816-0.0495-0.11707-0.0824-0.20116-0.0824-0.11047 0-0.22259 0.0561-0.27206 0.16323l0.00495-0.14509z"/>
    <path d="m4.4558 134.74 0.29844 0.76011h0.093983l0.18302-0.43035c0.044518-0.10552 0.087388-0.21435 0.11212-0.32976h-0.10717c-0.019786 0.11047-0.059358 0.21434-0.10223 0.31327l-0.12036 0.2803-0.21765-0.5507c-0.00165-3e-3 -0.0033-7e-3 -0.0033-0.01 0-0.01 0.00824-0.0198 0.00495-0.033z"/>
    <path d="m5.6413 134.72c-0.17972 0-0.34625 0.12861-0.34625 0.40231 0 0.25227 0.15664 0.38583 0.36109 0.38583 0.10882 0 0.2061-0.0396 0.27041-0.11707l-0.065953-0.0643c-0.047816 0.0561-0.12036 0.0857-0.19456 0.0857-0.10058 0-0.24732-0.0561-0.25557-0.28195h0.53422c0.00495-0.0511 0.0033-0.10058-0.00495-0.14345-0.034625-0.20281-0.17478-0.26711-0.29844-0.26711zm-0.22754 0.31987c0.024732-0.17807 0.1385-0.22919 0.21929-0.22919 0.12201 0 0.2094 0.10718 0.19456 0.22919z"/>
    <path d="m6.2035 134.74v0.75351h0.11872v-0.36604c0-0.0462 0.00165-0.0956 0.052763-0.17642 0.069251-0.10883 0.15829-0.12696 0.2127-0.12696 0.062655 0 0.10223 0.0297 0.12366 0.0561 0.00989 0.0132 0.014839 0.0264 0.02803 0.0379l0.05606-0.11377c-0.047816-0.0495-0.11707-0.0824-0.20116-0.0824-0.11047 0-0.22259 0.0561-0.27206 0.16323l0.00495-0.14509z"/>
   </g>
   <g opacity=".91" aria-label="Time">
    <path d="m3.6274 142.87v0.10388h0.29019v0.92499h0.11707v-0.92499h0.30338v-0.10388z"/>
    <path d="m4.5755 143.15v0.0973h0.18137v0.56225h-0.19126v0.094h0.48805v-0.094h-0.17642v-0.65954zm0.24403-0.32646c-0.047816 0-0.085739 0.0379-0.085739 0.0841s0.037923 0.0841 0.085739 0.0841 0.085739-0.0379 0.085739-0.0841-0.037923-0.0841-0.085739-0.0841z"/>
    <path d="m5.2861 143.9h0.10882v-0.50125c0-0.0363 0.0033-0.0693 0.024732-0.10882 0.026381-0.0495 0.059358-0.0693 0.090686-0.0693 0.026381 0 0.05606 0.0165 0.069251 0.0577 0.00989 0.0313 0.00824 0.0676 0.00824 0.0989v0.52268h0.11047v-0.49795c0-0.0396 0.0033-0.0709 0.031328-0.11871 0.013191-0.0198 0.041221-0.0676 0.087388-0.0676 0.024732 0 0.047816 0.0148 0.059358 0.0429 0.014839 0.0313 0.011542 0.0742 0.011542 0.10883v0.53422h0.11212v-0.53587c0-0.0627 0.00165-0.12531-0.031328-0.17643-0.02803-0.0429-0.075846-0.0593-0.11707-0.0593-0.072548 0-0.14015 0.0429-0.16983 0.10882-0.011542-0.0627-0.064304-0.10882-0.13191-0.10882-0.062655 0-0.12036 0.0396-0.15499 0.0923l0.00165-0.0742h-0.11047z"/>
    <path d="m6.4749 143.13c-0.17972 0-0.34625 0.1286-0.34625 0.40231 0 0.25227 0.15664 0.38583 0.36109 0.38583 0.10882 0 0.2061-0.0396 0.27041-0.11707l-0.065953-0.0643c-0.047816 0.0561-0.12036 0.0857-0.19456 0.0857-0.10058 0-0.24732-0.0561-0.25557-0.28195h0.53422c0.00495-0.0511 0.0033-0.10057-0.00495-0.14344-0.034625-0.20281-0.17478-0.26711-0.29844-0.26711zm-0.22754 0.31987c0.024732-0.17807 0.1385-0.22919 0.21929-0.22919 0.12201 0 0.2094 0.10718 0.19456 0.22919z"/>
   </g>
  </g>
  <g fill="none">
   <g stroke="#d54747" stroke-width=".26458">
    <path d="m8.1001 143.46h47.553" opacity=".91"/>
    <path d="m8.1001 144.16v-1.3858" opacity=".91"/>
    <path d="m13.376 144.16v-1.3858" opacity=".91"/>
    <path d="m18.653 144.16v-1.3858" opacity=".91"/>
    <path d="m23.929 144.16v-1.3858" opacity=".91"/>
    <path d="m29.205 144.16v-1.3858" opacity=".91"/>
    <path d="m34.481 144.16v-1.3858" opacity=".91"/>
    <path d="m39.758 144.16v-1.3858" opacity=".91"/>
    <path d="m45.034 144.16v-1.3858" opacity=".91"/>
   </g>
   <g stroke="#e9e56f" stroke-width=".14111">
    <rect x="8.1282" y="121.09" width="47.432" height="3.9044" opacity=".91"/>
    <g>
     <path d="m13.378 125.02v-3.9572" opacity=".91"/>
     <path d="m18.654 125.02v-3.9572" opacity=".91"/>
     <path d="m23.931 125.02v-3.9572" opacity=".91"/>
     <path d="m29.207 125.02v-3.9572" opacity=".91"/>
     <path d="m34.483 125.02v-3.9572" opacity=".91"/>
     <path d="m39.759 125.02v-3.9572" opacity=".91"/>
     <path d="m45.036 125.02v-3.9572" opacity=".91"/>
     <path d="m50.229 125.02v-3.9572" opacity=".91"/>
     <path d="m45.036 136.89v-3.9572" opacity=".91"/>
     <path d="m50.229 136.89v-3.9572" opacity=".91"/>
    </g>
   </g>
   <path d="m50.145 144.16v-1.3858" opacity=".91" stroke="#d54747" stroke-width=".26458"/>
   <path d="m55.586 144.16v-1.3858" opacity=".91" stroke="#d54747" stroke-width=".26458"/>
  </g>
  <g stroke="#47d562">
   <g transform="matrix(.26381 0 0 .26381 -.11503 112.25)" opacity=".91" stroke-width="1.0029">
    <path d="m41.722 77.639 19.213-26.145" fill="none" stroke="#47d562" stroke-width="1.0029"/>
   </g>
   <g transform="matrix(-.42803 -.25893 .25893 -.42803 158.5 373.57)" stroke-width="1.0698">
    <path d="m501.47 274.25-1.2053 3.2778-1.2053-3.2778c0.71162 0.52365 1.6852 0.52064 2.4106 0z" fill="#fff" fill-rule="evenodd" stroke="#47d562" stroke-linejoin="round" stroke-width=".20058"/>
   </g>
   <g transform="matrix(.26381 0 0 .26381 5.1766 112.25)" opacity=".91" stroke-width="1.0029">
    <path d="m41.722 77.639 19.213-26.145" fill="none" stroke="#47d562" stroke-width="1.0029"/>
   </g>
   <g transform="matrix(-.42803 -.25893 .25893 -.42803 163.79 373.57)" stroke-width="1.0698">
    <path d="m501.47 274.25-1.2053 3.2778-1.2053-3.2778c0.71162 0.52365 1.6852 0.52064 2.4106 0z" fill="#fff" fill-rule="evenodd" stroke="#47d562" stroke-linejoin="round" stroke-width=".20058"/>
   </g>
   <g transform="matrix(.26381 0 0 .26381 10.468 112.25)" opacity=".91" stroke-width="1.0029">
    <path d="m41.722 77.639 19.213-26.145" fill="none" stroke="#47d562" stroke-width="1.0029"/>
   </g>
   <g transform="matrix(-.42803 -.25893 .25893 -.42803 169.08 373.57)" stroke-width="1.0698">
    <path d="m501.47 274.25-1.2053 3.2778-1.2053-3.2778c0.71162 0.52365 1.6852 0.52064 2.4106 0z" fill="#fff" fill-rule="evenodd" stroke="#47d562" stroke-linejoin="round" stroke-width=".20058"/>
   </g>
   <g transform="matrix(.26381 0 0 .26381 31.635 112.25)" opacity=".91" stroke-width="1.0029">
    <path d="m41.722 77.639 19.213-26.145" fill="none" stroke="#47d562" stroke-width="1.0029"/>
   </g>
   <g transform="matrix(-.42803 -.25893 .25893 -.42803 190.25 373.57)" stroke-width="1.0698">
    <path d="m501.47 274.25-1.2053 3.2778-1.2053-3.2778c0.71162 0.52365 1.6852 0.52064 2.4106 0z" fill="#fff" fill-rule="evenodd" stroke="#47d562" stroke-linejoin="round" stroke-width=".20058"/>
   </g>
   <g transform="matrix(.26381 0 0 .26381 36.927 112.25)" opacity=".91" stroke-width="1.0029">
    <path d="m41.722 77.639 19.213-26.145" fill="none" stroke="#47d562" stroke-width="1.0029"/>
   </g>
   <g transform="matrix(-.42803 -.25893 .25893 -.42803 195.54 373.57)" stroke-width="1.0698">
    <path d="m501.47 274.25-1.2053 3.2778-1.2053-3.2778c0.71162 0.52365 1.6852 0.52064 2.4106 0z" fill="#fff" fill-rule="evenodd" stroke="#47d562" stroke-linejoin="round" stroke-width=".20058"/>
   </g>
   <g transform="matrix(.26381 0 0 .26381 15.76 112.11)" opacity=".91" stroke-width="1.0029">
    <path d="m41.722 77.639 11.013-14.975" fill="none" stroke="#47d562" stroke-width="1.0029"/>
   </g>
   <g transform="matrix(-.42803 -.25893 .25893 -.42803 172.05 376.71)" stroke-width="1.0698">
    <path d="m501.47 274.25-1.2053 3.2778-1.2053-3.2778c0.71162 0.52365 1.6852 0.52064 2.4106 0z" fill="#fff" fill-rule="evenodd" stroke="#47d562" stroke-linejoin="round" stroke-width=".20058"/>
   </g>
  </g>
  <g transform="matrix(.17651 0 0 .17651 -162.14 113.92)" fill="none" stroke="#ff0e0e" stroke-width="1.4989px">
   <path d="m1093.8 75.892-11.725 11.725"/>
   <path d="m1082.1 75.892 11.725 11.725"/>
  </g>
  <g transform="matrix(.26381 0 0 .26381 21.052 112.11)" opacity=".91" stroke="#47d562" stroke-width="1.0029">
   <path d="m41.722 77.639 11.013-14.975" fill="none" stroke="#47d562" stroke-width="1.0029"/>
  </g>
  <g transform="matrix(-.42803 -.25893 .25893 -.42803 177.34 376.71)" stroke="#47d562" stroke-width="1.0698">
   <path d="m501.47 274.25-1.2053 3.2778-1.2053-3.2778c0.71162 0.52365 1.6852 0.52064 2.4106 0z" fill="#fff" fill-rule="evenodd" stroke="#47d562" stroke-linejoin="round" stroke-width=".20058"/>
  </g>
  <g transform="matrix(.17651 0 0 .17651 -156.84 113.92)" fill="none" stroke="#ff0e0e" stroke-width="1.4989px">
   <path d="m1093.8 75.892-11.725 11.725"/>
   <path d="m1082.1 75.892 11.725 11.725"/>
  </g>
  <g transform="matrix(.26381 0 0 .26381 26.343 112.11)" opacity=".91" stroke="#47d562" stroke-width="1.0029">
   <path d="m41.722 77.639 11.013-14.975" fill="none" stroke="#47d562" stroke-width="1.0029"/>
  </g>
  <g transform="matrix(-.42803 -.25893 .25893 -.42803 182.63 376.71)" stroke="#47d562" stroke-width="1.0698">
   <path d="m501.47 274.25-1.2053 3.2778-1.2053-3.2778c0.71162 0.52365 1.6852 0.52064 2.4106 0z" fill="#fff" fill-rule="evenodd" stroke="#47d562" stroke-linejoin="round" stroke-width=".20058"/>
  </g>
  <g transform="matrix(.17651 0 0 .17651 -151.55 113.92)" fill="none" stroke="#ff0e0e" stroke-width="1.4989px">
   <path d="m1093.8 75.892-11.725 11.725"/>
   <path d="m1082.1 75.892 11.725 11.725"/>
  </g>
  <g fill="#fff" stroke="#f50000" stroke-linecap="round" stroke-width=".26458">
   <circle cx="8.8452" cy="134.83" r=".49196" style="paint-order:normal"/>
   <circle cx="14.137" cy="134.83" r=".49196" style="paint-order:normal"/>
   <circle cx="19.693" cy="134.83" r=".49196" style="paint-order:normal"/>
   <circle cx="25.779" cy="134.83" r=".49196" style="paint-order:normal"/>
   <circle cx="8.8452" cy="122.92" r=".49196" style="paint-order:normal"/>
   <circle cx="14.137" cy="122.92" r=".49196" style="paint-order:normal"/>
   <circle cx="19.693" cy="122.92" r=".49196" style="paint-order:normal"/>
   <circle cx="24.985" cy="122.92" r=".49196" style="paint-order:normal"/>
   <circle cx="30.276" cy="122.92" r=".49196" style="paint-order:normal"/>
   <circle cx="35.833" cy="122.92" r=".49196" style="paint-order:normal"/>
   <circle cx="41.389" cy="122.92" r=".49196" style="paint-order:normal"/>
   <circle cx="47.739" cy="122.92" r=".49196" style="paint-order:normal"/>
   <circle cx="54.883" cy="122.92" r=".49196" style="paint-order:normal"/>
  </g>
  <g fill="#e9e56f" opacity=".91" stroke-width=".28222px" aria-label="speed-up">
   <path d="m44.487 119.42c-0.06925-0.0758-0.16983-0.11707-0.28195-0.11707-0.17478 0-0.28854 0.0973-0.28854 0.20941 0 0.1319 0.1418 0.17972 0.18302 0.19456 0.0643 0.0231 0.14674 0.0429 0.2028 0.0692 0.06266 0.0297 0.0742 0.0693 0.0742 0.0956 0 0.0709-0.08574 0.11872-0.19291 0.11872-0.12861 0-0.21105-0.0775-0.23578-0.10388-0.0049-7e-3 -0.0049-0.0115-0.0049-0.0181 0-2e-3 0.0016-0.0115-0.0066-0.0148l-0.06925 0.11707c0.08904 0.0824 0.20446 0.12036 0.31822 0.12036 0.2061 0 0.31328-0.12201 0.31328-0.23578 0-0.0511-0.02144-0.12036-0.11047-0.16983-0.08409-0.0478-0.2061-0.0643-0.277-0.0989-0.06101-0.0297-0.0742-0.066-0.0742-0.0923 0-0.0594 0.0742-0.10223 0.15829-0.10223 0.10882 0 0.18137 0.066 0.2094 0.10388 0.0049 5e-3 0.0033 0.01 0.0033 0.0148 0 0.01 0.0066 0.0132 0.0099 0.0132z"/>
   <path d="m44.696 119.32 0.0016 1.0272h0.12036v-0.37428c0.05111 0.0742 0.1352 0.12036 0.22589 0.12036 0.15499 0 0.31658-0.13026 0.31658-0.40561 0-0.26546-0.15664-0.38418-0.30503-0.38418-0.09728 0-0.18797 0.0495-0.23908 0.13191v-0.11542zm0.31493 0.0841c0.06595 0 0.22589 0.0346 0.22589 0.30833 0 0.23743-0.15499 0.27536-0.22589 0.27536s-0.14345-0.0363-0.17313-0.10388c-0.02143-0.0511-0.02143-0.11377-0.02143-0.22259 0-0.0627 0.0033-0.10882 0.01979-0.1484 0.02968-0.0676 0.09893-0.10882 0.17478-0.10882z"/>
   <path d="m45.849 119.3c-0.17972 0-0.34625 0.12861-0.34625 0.40232 0 0.25227 0.15664 0.38582 0.36109 0.38582 0.10882 0 0.2061-0.0396 0.27041-0.11706l-0.06595-0.0643c-0.04782 0.0561-0.12036 0.0857-0.19456 0.0857-0.10058 0-0.24732-0.0561-0.25557-0.28195h0.53422c0.0049-0.0511 0.0033-0.10058-0.0049-0.14345-0.03462-0.2028-0.17478-0.26711-0.29844-0.26711zm-0.22754 0.31988c0.02473-0.17808 0.1385-0.22919 0.2193-0.22919 0.12201 0 0.2094 0.10717 0.19456 0.22919z"/>
   <path d="m46.673 119.3c-0.17972 0-0.34625 0.12861-0.34625 0.40232 0 0.25227 0.15664 0.38582 0.36109 0.38582 0.10882 0 0.2061-0.0396 0.27041-0.11706l-0.06595-0.0643c-0.04782 0.0561-0.12036 0.0857-0.19456 0.0857-0.10058 0-0.24732-0.0561-0.25557-0.28195h0.53422c0.0049-0.0511 0.0033-0.10058-0.0049-0.14345-0.03463-0.2028-0.17478-0.26711-0.29844-0.26711zm-0.22754 0.31988c0.02473-0.17808 0.1385-0.22919 0.21929-0.22919 0.12201 0 0.2094 0.10717 0.19456 0.22919z"/>
   <path d="m47.684 119.43c-0.03627-0.0775-0.11707-0.1286-0.22094-0.1286-0.14345 0-0.31822 0.10222-0.31822 0.38912 0 0.27865 0.15499 0.40066 0.30009 0.40066 0.09563 0 0.18467-0.0544 0.23248-0.1385v0.066c0 0.0181 0.0016 0.0363 0.0066 0.0544h0.11872c-0.0066-0.0214-0.0066-0.0462-0.0066-0.0692l-0.0016-0.97941c0-0.01 0-0.0132 0.0066-0.0231 0.0033-5e-3 0.0099-0.0132 0.0082-0.0247h-0.12531zm-0.216-0.0313c0.06595 0 0.16323 0.0346 0.19291 0.14674 0.0099 0.0346 0.01319 0.0759 0.01319 0.15994 0 0.0577-0.0033 0.0989-0.01649 0.1385-0.02803 0.089-0.10717 0.1418-0.18467 0.1418-0.08574 0-0.2127-0.066-0.2127-0.31328 0-0.21599 0.12036-0.2737 0.20775-0.2737z"/>
   <path d="m48.012 119.5v0.10883h0.59358v-0.10883z"/>
   <path d="m48.823 119.32v0.42045c0 0.0643 0 0.13026 0.02968 0.19786 0.04287 0.0989 0.1352 0.15334 0.23413 0.15334 0.09398 0 0.18302-0.0511 0.23248-0.13355l-0.0016 0.0561c0 0.0198 0 0.0396 0.0033 0.0577h0.12531c-0.0082-0.0214-0.0099-0.0462-0.0099-0.0676v-0.68427h-0.11872v0.41386c0 0.0577-0.0049 0.10222-0.02968 0.14839-0.03463 0.0643-0.10223 0.11212-0.17478 0.11212-0.05771 0-0.11377-0.033-0.14345-0.0923-0.02638-0.0528-0.02638-0.11212-0.02638-0.16159v-0.42045z"/>
   <path d="m49.643 119.32 0.0016 1.0272h0.12036v-0.37428c0.05111 0.0742 0.1352 0.12036 0.22589 0.12036 0.15499 0 0.31658-0.13026 0.31658-0.40561 0-0.26546-0.15664-0.38418-0.30503-0.38418-0.09728 0-0.18797 0.0495-0.23908 0.13191v-0.11542zm0.31493 0.0841c0.06595 0 0.22589 0.0346 0.22589 0.30833 0 0.23743-0.15499 0.27536-0.22589 0.27536-0.0709 0-0.14345-0.0363-0.17313-0.10388-0.02144-0.0511-0.02144-0.11377-0.02144-0.22259 0-0.0627 0.0033-0.10882 0.01979-0.1484 0.02968-0.0676 0.09893-0.10882 0.17478-0.10882z"/>
  </g>
  <g fill="#fff" stroke="#f50000" stroke-linecap="round" stroke-width=".26458">
   <circle cx="31.599" cy="134.83" r=".49196" style="paint-order:normal"/>
   <circle cx="37.949" cy="134.83" r=".49196" style="paint-order:normal"/>
   <circle cx="44.035" cy="134.83" r=".49196" style="paint-order:normal"/>
   <circle cx="49.591" cy="134.83" r=".49196" style="paint-order:normal"/>
   <circle cx="54.883" cy="134.83" r=".49196" style="paint-order:normal"/>
  </g>
 </g>
</svg>
