<svg width="57.535mm" height="28.09mm" version="1.1" viewBox="0 0 57.535 28.09" xmlns="http://www.w3.org/2000/svg">
 <g transform="translate(-14.356 -123.05)">
  <g fill="none" stroke="#e9e56f">
   <path d="m54.932 131v-3.9572" opacity=".91" stroke-width=".056444"/>
   <rect x="23.301" y="138.95" width="47.432" height="3.9044" opacity=".91" stroke-width=".14111"/>
   <g stroke-width=".14111">
    <path d="m28.55 142.88v-3.9572" opacity=".91"/>
    <path d="m33.827 142.88v-3.9572" opacity=".91"/>
    <path d="m39.103 142.88v-3.9572" opacity=".91"/>
    <path d="m44.379 142.88v-3.9572" opacity=".91"/>
    <path d="m49.655 142.88v-3.9572" opacity=".91"/>
    <path d="m54.932 142.88v-3.9572" opacity=".91"/>
   </g>
  </g>
  <g fill="#e9e56f" stroke-width=".28222px">
   <g opacity=".91" aria-label="Client A">
    <path d="m15.747 128.56c-0.15994 0-0.39077 0.11707-0.39077 0.52927 0 0.39572 0.22094 0.52433 0.39077 0.52433 0.12201 0 0.23578-0.0643 0.30009-0.16983l-0.08409-0.0544c-0.04782 0.0775-0.13026 0.12366-0.2094 0.12366-0.15169 0-0.28525-0.15664-0.28525-0.43529 0-0.27206 0.13026-0.4254 0.27535-0.4254 0.07914 0 0.15499 0.0478 0.19621 0.12037 0.0033 5e-3 0.0066 0.01 0.0066 0.0165 0 5e-3 -0.0016 8e-3 -0.0016 0.0132 0 2e-3 0 0.01 0.0082 0.0148l0.10882-0.0528c-0.05441-0.12366-0.17807-0.20445-0.31493-0.20445z"/>
    <path d="m16.253 128.5v0.0956h0.21435v0.90521h-0.22424v0.094h0.56555v-0.094h-0.22259v-1.0008z"/>
    <path d="m17.114 128.84v0.0973h0.18137v0.56225h-0.19126v0.094h0.48805v-0.094h-0.17642v-0.65953zm0.24403-0.32647c-0.04782 0-0.08574 0.0379-0.08574 0.0841s0.03792 0.0841 0.08574 0.0841 0.08574-0.0379 0.08574-0.0841-0.03792-0.0841-0.08574-0.0841z"/>
    <path d="m18.189 128.82c-0.17972 0-0.34625 0.12861-0.34625 0.40231 0 0.25228 0.15664 0.38583 0.36109 0.38583 0.10882 0 0.2061-0.0396 0.27041-0.11707l-0.06595-0.0643c-0.04782 0.0561-0.12036 0.0857-0.19456 0.0857-0.10058 0-0.24732-0.0561-0.25557-0.28195h0.53422c0.0049-0.0511 0.0033-0.10058-0.0049-0.14345-0.03463-0.20281-0.17478-0.26711-0.29844-0.26711zm-0.22754 0.31987c0.02473-0.17807 0.1385-0.22918 0.21929-0.22918 0.12201 0 0.2094 0.10717 0.19456 0.22918z"/>
    <path d="m18.7 129.59h0.12036v-0.43364c0-0.0495 0.0066-0.0874 0.03792-0.12861 0.02803-0.0379 0.10058-0.10552 0.17972-0.10552 0.03792 0 0.07585 0.0165 0.10223 0.0478 0.04122 0.0495 0.04122 0.11377 0.04122 0.16654v0.45342h0.11707v-0.45672c0-0.0577 0-0.12037-0.02638-0.18137-0.03792-0.0841-0.11542-0.13191-0.20116-0.13191-0.10223 0-0.19456 0.0659-0.25062 0.15004v-0.1319h-0.12036z"/>
    <path d="m19.723 128.64-0.01484 0.20281h-0.17972l-0.0016 0.0973h0.17642c-0.0099 0.12861-0.01484 0.25722-0.01484 0.38418 0 0.0676 0 0.14344 0.04452 0.2061 0.03627 0.0495 0.09398 0.0791 0.17148 0.0791 0.08904 0 0.17642-0.0379 0.24073-0.0841l-0.03627-0.094c-0.0643 0.0478-0.12366 0.0693-0.16983 0.0693-0.05606 0-0.11377-0.0313-0.12696-0.12201 0-7e-3 -0.0049-0.0346-0.0049-0.1451 0-0.0973 0.0049-0.19621 0.01484-0.29349h0.24732v-0.0989h-0.24568s0.01154-0.13521 0.01979-0.17807c0.0016-0.0165 0.01484-0.0264 0.0082-0.0445z"/>
    <path d="m21.084 129.59h0.11377l0.10058-0.30173h0.32482l0.11377 0.30008h0.12036l-0.39737-1.0454h-0.01319zm0.51443-0.39077h-0.27865l0.13356-0.39077z"/>
   </g>
   <g opacity=".91" aria-label="Server">
    <path d="m17.806 140.57c-0.06925-0.0841-0.17148-0.12861-0.2836-0.12861-0.18632 0-0.31328 0.12201-0.31328 0.26381 0 0.0594 0.02308 0.13685 0.10882 0.19951 0.09563 0.0709 0.24403 0.10552 0.32152 0.15499 0.0676 0.0412 0.08574 0.0956 0.08574 0.1418 0 0.089-0.07585 0.18632-0.22424 0.18632-0.11212 0-0.19951-0.0561-0.24568-0.11377-0.0049-7e-3 -0.0049-0.01-0.0049-0.0165 0-3e-3 0-0.0132-0.0066-0.0165l-0.06925 0.11872c0.08079 0.0874 0.19621 0.1319 0.32317 0.1319 0.25062 0 0.34296-0.16818 0.34296-0.29679 0-0.0544-0.01649-0.12531-0.08079-0.18631-0.08904-0.0841-0.23413-0.11377-0.32812-0.16818-0.08574-0.0511-0.10388-0.11212-0.10388-0.15335 0-0.0791 0.0676-0.15004 0.18467-0.15004 0.09563 0 0.16983 0.0429 0.2094 0.10058 0.0049 7e-3 0.0033 0.01 0.0033 0.0165 0 0.01 0.0049 0.0132 0.0082 0.0132z"/>
    <path d="m18.34 140.7c-0.17972 0-0.34625 0.12861-0.34625 0.40232 0 0.25227 0.15664 0.38582 0.36109 0.38582 0.10882 0 0.2061-0.0396 0.27041-0.11706l-0.06595-0.0643c-0.04782 0.0561-0.12036 0.0857-0.19456 0.0857-0.10058 0-0.24732-0.0561-0.25557-0.28195h0.53422c0.0049-0.0511 0.0033-0.10058-0.0049-0.14345-0.03462-0.2028-0.17478-0.26711-0.29844-0.26711zm-0.22754 0.31988c0.02473-0.17808 0.1385-0.22919 0.21929-0.22919 0.12201 0 0.2094 0.10717 0.19456 0.22919z"/>
    <path d="m18.903 140.72v0.75351h0.11872v-0.36604c0-0.0462 0.0016-0.0956 0.05276-0.17642 0.06925-0.10882 0.15829-0.12696 0.2127-0.12696 0.06266 0 0.10223 0.0297 0.12366 0.0561 0.0099 0.0132 0.01484 0.0264 0.02803 0.0379l0.05606-0.11377c-0.04782-0.0495-0.11707-0.0824-0.20116-0.0824-0.11047 0-0.22259 0.0561-0.27206 0.16324l0.0049-0.1451z"/>
    <path d="m19.628 140.72 0.29844 0.76011h0.09398l0.18302-0.43034c0.04452-0.10553 0.08739-0.21435 0.11212-0.32977h-0.10717c-0.01979 0.11047-0.05936 0.21435-0.10223 0.31328l-0.12036 0.2803-0.21764-0.55071c-0.0016-3e-3 -0.0033-7e-3 -0.0033-0.01 0-0.01 0.0082-0.0198 0.0049-0.033z"/>
    <path d="m20.814 140.7c-0.17972 0-0.34625 0.12861-0.34625 0.40232 0 0.25227 0.15664 0.38582 0.36109 0.38582 0.10882 0 0.2061-0.0396 0.27041-0.11706l-0.06595-0.0643c-0.04782 0.0561-0.12036 0.0857-0.19456 0.0857-0.10058 0-0.24732-0.0561-0.25557-0.28195h0.53422c0.0049-0.0511 0.0033-0.10058-0.0049-0.14345-0.03463-0.2028-0.17478-0.26711-0.29844-0.26711zm-0.22754 0.31988c0.02473-0.17808 0.1385-0.22919 0.21929-0.22919 0.12201 0 0.2094 0.10717 0.19456 0.22919z"/>
    <path d="m21.376 140.72v0.75351h0.11872v-0.36604c0-0.0462 0.0016-0.0956 0.05276-0.17642 0.06925-0.10882 0.15829-0.12696 0.2127-0.12696 0.06265 0 0.10223 0.0297 0.12366 0.0561 0.0099 0.0132 0.01484 0.0264 0.02803 0.0379l0.05606-0.11377c-0.04782-0.0495-0.11707-0.0824-0.20116-0.0824-0.11047 0-0.22259 0.0561-0.27206 0.16324l0.0049-0.1451z"/>
   </g>
   <g opacity=".91" aria-label="Time">
    <path d="m18.8 148.85v0.10388h0.29019v0.92499h0.11707v-0.92499h0.30338v-0.10388z"/>
    <path d="m19.748 149.13v0.0973h0.18137v0.56225h-0.19126v0.094h0.48805v-0.094h-0.17642v-0.65954zm0.24403-0.32646c-0.04782 0-0.08574 0.0379-0.08574 0.0841s0.03792 0.0841 0.08574 0.0841 0.08574-0.0379 0.08574-0.0841-0.03792-0.0841-0.08574-0.0841z"/>
    <path d="m20.458 149.88h0.10882v-0.50124c0-0.0363 0.0033-0.0693 0.02473-0.10883 0.02638-0.0495 0.05936-0.0693 0.09069-0.0693 0.02638 0 0.05606 0.0165 0.06925 0.0577 0.0099 0.0313 0.0082 0.0676 0.0082 0.0989v0.52268h0.11047v-0.49795c0-0.0396 0.0033-0.0709 0.03133-0.11871 0.01319-0.0198 0.04122-0.0676 0.08739-0.0676 0.02473 0 0.04782 0.0148 0.05936 0.0429 0.01484 0.0313 0.01154 0.0742 0.01154 0.10883v0.53422h0.11212v-0.53587c0-0.0627 0.0016-0.12531-0.03133-0.17643-0.02803-0.0429-0.07585-0.0593-0.11707-0.0593-0.07255 0-0.14015 0.0429-0.16983 0.10882-0.01154-0.0627-0.0643-0.10882-0.13191-0.10882-0.06266 0-0.12036 0.0396-0.15499 0.0923l0.0016-0.0742h-0.11047z"/>
    <path d="m21.647 149.11c-0.17972 0-0.34625 0.1286-0.34625 0.40231 0 0.25227 0.15664 0.38583 0.36109 0.38583 0.10882 0 0.2061-0.0396 0.27041-0.11707l-0.06595-0.0643c-0.04782 0.0561-0.12036 0.0857-0.19456 0.0857-0.10058 0-0.24732-0.0561-0.25557-0.28195h0.53422c0.0049-0.0511 0.0033-0.10057-0.0049-0.14344-0.03463-0.20281-0.17478-0.26711-0.29844-0.26711zm-0.22754 0.31987c0.02473-0.17807 0.1385-0.22919 0.21929-0.22919 0.12201 0 0.2094 0.10718 0.19456 0.22919z"/>
   </g>
  </g>
  <g fill="none">
   <g stroke="#d54747" stroke-width=".26458">
    <path d="m23.272 149.44h47.553" opacity=".91"/>
    <path d="m23.272 150.14v-1.3858" opacity=".91"/>
    <path d="m28.549 150.14v-1.3858" opacity=".91"/>
    <path d="m33.825 150.14v-1.3858" opacity=".91"/>
    <path d="m39.101 150.14v-1.3858" opacity=".91"/>
    <path d="m44.377 150.14v-1.3858" opacity=".91"/>
    <path d="m49.654 150.14v-1.3858" opacity=".91"/>
    <path d="m54.93 150.14v-1.3858" opacity=".91"/>
    <path d="m60.206 150.14v-1.3858" opacity=".91"/>
   </g>
   <g stroke="#e9e56f" stroke-width=".14111">
    <rect x="23.301" y="127.07" width="47.432" height="3.9044" opacity=".91"/>
    <g>
     <path d="m28.55 131v-3.9572" opacity=".91"/>
     <path d="m33.827 131v-3.9572" opacity=".91"/>
     <path d="m39.103 131v-3.9572" opacity=".91"/>
     <path d="m44.379 131v-3.9572" opacity=".91"/>
     <path d="m49.655 131v-3.9572" opacity=".91"/>
     <path d="m54.932 131v-3.9572" opacity=".91"/>
     <path d="m60.208 131v-3.9572" opacity=".91"/>
     <path d="m65.402 131v-3.9572" opacity=".91"/>
     <path d="m60.208 142.88v-3.9572" opacity=".91"/>
     <path d="m65.402 142.88v-3.9572" opacity=".91"/>
    </g>
   </g>
   <path d="m65.318 150.14v-1.3858" opacity=".91" stroke="#d54747" stroke-width=".26458"/>
   <path d="m70.759 150.14v-1.3858" opacity=".91" stroke="#d54747" stroke-width=".26458"/>
  </g>
  <rect x="24.798" y="139.64" width="2.438" height="2.438" fill="#f9f4f4" stroke="#f50030" stroke-linecap="round" stroke-width=".26458" style="paint-order:normal"/>
  <g transform="matrix(.26381 0 0 .26381 15.057 118.23)" opacity=".91" stroke="#47d562" stroke-width="1.0029">
   <path d="m41.722 77.639 11.013-14.975" fill="none" stroke="#47d562" stroke-width="1.0029"/>
  </g>
  <g transform="matrix(-.42803 -.25893 .25893 -.42803 171.35 382.82)" stroke="#47d562" stroke-width="1.0698">
   <path d="m501.47 274.25-1.2053 3.2778-1.2053-3.2778c0.71162 0.52365 1.6852 0.52064 2.4106 0z" fill="#fff" fill-rule="evenodd" stroke="#47d562" stroke-linejoin="round" stroke-width=".20058"/>
  </g>
  <rect x="30.089" y="139.64" width="2.438" height="2.438" fill="#f9f4f4" stroke="#f5e300" stroke-linecap="round" stroke-width=".26458" style="paint-order:normal"/>
  <g transform="matrix(.26381 0 0 .26381 20.349 118.23)" opacity=".91" stroke="#47d562" stroke-width="1.0029">
   <path d="m41.722 77.639 19.213-26.145" fill="none" stroke="#47d562" stroke-width="1.0029"/>
  </g>
  <g transform="matrix(-.42803 -.25893 .25893 -.42803 178.96 379.55)" stroke="#47d562" stroke-width="1.0698">
   <path d="m501.47 274.25-1.2053 3.2778-1.2053-3.2778c0.71162 0.52365 1.6852 0.52064 2.4106 0z" fill="#fff" fill-rule="evenodd" stroke="#47d562" stroke-linejoin="round" stroke-width=".20058"/>
  </g>
  <g transform="matrix(.17651 0 0 .17651 -162.84 120.03)" fill="none" stroke="#ff0e0e" stroke-width="1.4989px">
   <path d="m1093.8 75.892-11.725 11.725"/>
   <path d="m1082.1 75.892 11.725 11.725"/>
  </g>
  <g>
   <rect x="35.381" y="139.64" width="2.438" height="2.438" fill="#f9f4f4" stroke="#0027f5" stroke-linecap="round" stroke-width=".26458" style="paint-order:normal"/>
   <rect x="37.415" y="124.28" width="1.3962" height="1.3962" fill="#f9f4f4" stroke="#f5e300" stroke-linecap="round" stroke-width=".26458" style="paint-order:normal"/>
   <g fill="#e9e56f" opacity=".91" stroke-width=".28222px" aria-label="in queue">
    <path d="m29.521 124.37v0.0973h0.18137v0.56225h-0.19126v0.094h0.48805v-0.094h-0.17642v-0.65953zm0.24403-0.32647c-0.04782 0-0.08574 0.0379-0.08574 0.0841s0.03792 0.0841 0.08574 0.0841 0.08574-0.0379 0.08574-0.0841-0.03792-0.0841-0.08574-0.0841z"/>
    <path d="m30.283 125.13h0.12036v-0.43364c0-0.0495 0.0066-0.0874 0.03792-0.12861 0.02803-0.0379 0.10058-0.10552 0.17972-0.10552 0.03792 0 0.07585 0.0165 0.10223 0.0478 0.04122 0.0495 0.04122 0.11377 0.04122 0.16653v0.45343h0.11707v-0.45672c0-0.0577 0-0.12037-0.02638-0.18137-0.03792-0.0841-0.11542-0.13191-0.20116-0.13191-0.10223 0-0.19456 0.066-0.25062 0.15004v-0.1319h-0.12036z"/>
    <path d="m32.435 124.48c0 2e-3 -0.05276-0.12861-0.21929-0.12861-0.16488 0-0.32647 0.13356-0.32647 0.38912 0 0.24403 0.14345 0.40067 0.30998 0.40067 0.09563 0 0.18302-0.0544 0.23084-0.1385v0.39572h0.11707v-1.0272h-0.11212zm-0.21435-0.0313c0.0676 0 0.15334 0.0346 0.18632 0.12696 0.01484 0.0429 0.01814 0.089 0.01814 0.18137 0 0.0561-0.0033 0.0973-0.01484 0.13685-0.02968 0.089-0.10717 0.1418-0.18467 0.1418-0.10882 0-0.21764-0.0989-0.21764-0.31162 0-0.19786 0.11212-0.27536 0.2127-0.27536z"/>
    <path d="m32.746 124.37v0.42045c0 0.0643 0 0.13025 0.02968 0.19786 0.04287 0.0989 0.1352 0.15334 0.23413 0.15334 0.09398 0 0.18302-0.0511 0.23248-0.13356l-0.0016 0.0561c0 0.0198 0 0.0396 0.0033 0.0577h0.12531c-0.0082-0.0214-0.0099-0.0462-0.0099-0.0676v-0.68426h-0.11876v0.41385c0 0.0577-0.0049 0.10223-0.02968 0.1484-0.03462 0.0643-0.10223 0.11212-0.17478 0.11212-0.05771 0-0.11377-0.033-0.14345-0.0923-0.02638-0.0528-0.02638-0.11212-0.02638-0.16158v-0.42045z"/>
    <path d="m33.894 124.36c-0.17972 0-0.34625 0.12861-0.34625 0.40231 0 0.25227 0.15664 0.38583 0.36109 0.38583 0.10882 0 0.2061-0.0396 0.27041-0.11707l-0.06595-0.0643c-0.04782 0.0561-0.12036 0.0857-0.19456 0.0857-0.10058 0-0.24732-0.0561-0.25557-0.28195h0.53422c0.0049-0.0511 0.0033-0.10058-0.0049-0.14345-0.03463-0.20281-0.17478-0.26711-0.29844-0.26711zm-0.22754 0.31987c0.02473-0.17807 0.1385-0.22919 0.21929-0.22919 0.12201 0 0.2094 0.10718 0.19456 0.22919z"/>
    <path d="m34.395 124.37v0.42045c0 0.0643 0 0.13025 0.02968 0.19786 0.04287 0.0989 0.1352 0.15334 0.23413 0.15334 0.09398 0 0.18302-0.0511 0.23248-0.13356l-0.0016 0.0561c0 0.0198 0 0.0396 0.0033 0.0577h0.12531c-0.0082-0.0214-0.0099-0.0462-0.0099-0.0676v-0.68426h-0.11872v0.41385c0 0.0577-0.0049 0.10223-0.02968 0.1484-0.03463 0.0643-0.10223 0.11212-0.17478 0.11212-0.05771 0-0.11377-0.033-0.14345-0.0923-0.02638-0.0528-0.02638-0.11212-0.02638-0.16158v-0.42045z"/>
    <path d="m35.543 124.36c-0.17972 0-0.34625 0.12861-0.34625 0.40231 0 0.25227 0.15664 0.38583 0.36109 0.38583 0.10882 0 0.2061-0.0396 0.27041-0.11707l-0.06595-0.0643c-0.04782 0.0561-0.12036 0.0857-0.19456 0.0857-0.10058 0-0.24732-0.0561-0.25557-0.28195h0.53422c0.0049-0.0511 0.0033-0.10058-0.0049-0.14345-0.03462-0.20281-0.17478-0.26711-0.29844-0.26711zm-0.22754 0.31987c0.02473-0.17807 0.1385-0.22919 0.21929-0.22919 0.12201 0 0.2094 0.10718 0.19456 0.22919z"/>
   </g>
  </g>
  <g transform="matrix(.26381 0 0 .26381 25.641 118.23)" opacity=".91" stroke="#47d562" stroke-width="1.0029">
   <path d="m41.722 77.639 11.013-14.975" fill="none" stroke="#47d562" stroke-width="1.0029"/>
  </g>
  <g transform="matrix(-.42803 -.25893 .25893 -.42803 181.93 382.82)" stroke="#47d562" stroke-width="1.0698">
   <path d="m501.47 274.25-1.2053 3.2778-1.2053-3.2778c0.71162 0.52365 1.6852 0.52064 2.4106 0z" fill="#fff" fill-rule="evenodd" stroke="#47d562" stroke-linejoin="round" stroke-width=".20058"/>
  </g>
  <g transform="matrix(.17651 0 0 .17651 -152.26 120.03)" fill="none" stroke="#ff0e0e" stroke-width="1.4989px">
   <path d="m1093.8 75.892-11.725 11.725"/>
   <path d="m1082.1 75.892 11.725 11.725"/>
  </g>
  <g fill="#f9f4f4" stroke-linecap="round">
   <g stroke="#0027f5" stroke-width=".26458">
    <rect x="40.673" y="139.64" width="2.438" height="2.438" style="paint-order:normal"/>
    <rect x="45.964" y="139.64" width="2.438" height="2.438" style="paint-order:normal"/>
    <rect x="51.256" y="139.64" width="2.438" height="2.438" style="paint-order:normal"/>
    <rect x="56.548" y="139.64" width="2.438" height="2.438" style="paint-order:normal"/>
    <rect x="61.839" y="139.64" width="2.438" height="2.438" style="paint-order:normal"/>
    <rect x="67.131" y="139.64" width="2.438" height="2.438" style="paint-order:normal"/>
   </g>
   <rect x="42.707" y="124.28" width="1.3962" height="1.3962" stroke="#f5e300" stroke-width=".26458" style="paint-order:normal"/>
   <rect x="37.853" y="137.26" width="1.1284" height="1.1284" stroke="#f50030" stroke-width=".26458" style="paint-order:normal"/>
  </g>
  <g transform="matrix(.26381 0 0 .26381 30.403 118.23)" opacity=".91" stroke="#47d562" stroke-width="1.0029">
   <path d="m43.727 74.63 17.207-23.136" fill="none" stroke="#47d562" stroke-width="1.0029"/>
  </g>
  <rect x="41.293" y="137.26" width="1.1284" height="1.1284" fill="#f9f4f4" stroke="#f50030" stroke-linecap="round" stroke-width=".26458" style="paint-order:normal"/>
  <g transform="matrix(-.42803 -.25893 .25893 -.42803 189.02 379.55)" stroke="#47d562" stroke-width="1.0698">
   <path d="m501.47 274.25-1.2053 3.2778-1.2053-3.2778c0.71162 0.52365 1.6852 0.52064 2.4106 0z" fill="#fff" fill-rule="evenodd" stroke="#47d562" stroke-linejoin="round" stroke-width=".20058"/>
  </g>
  <g fill="#f9f4f4" stroke-linecap="round">
   <rect x="45.526" y="128.53" width="1.1284" height="1.1284" stroke="#f50030" stroke-width=".26458" style="paint-order:normal"/>
   <rect x="47.114" y="128.53" width="1.1284" height="1.1284" stroke="#f5c700" stroke-width=".26458" style="paint-order:normal"/>
   <rect x="51.256" y="127.73" width="2.438" height="2.438" stroke="#f5e300" stroke-width=".26458" style="paint-order:normal"/>
   <rect x="46.585" y="137.26" width="1.1284" height="1.1284" stroke="#0027f5" stroke-width=".26458" style="paint-order:normal"/>
  </g>
  <g transform="matrix(.26381 0 0 .26381 40.986 118.23)" opacity=".91" stroke="#47d562" stroke-width="1.0029">
   <path d="m43.727 74.63 17.207-23.136" fill="none" stroke="#47d562" stroke-width="1.0029"/>
  </g>
  <rect x="51.876" y="137.26" width="1.1284" height="1.1284" fill="#f9f4f4" stroke="#0027f5" stroke-linecap="round" stroke-width=".26458" style="paint-order:normal"/>
  <g transform="matrix(-.42803 -.25893 .25893 -.42803 199.6 379.55)" stroke="#47d562" stroke-width="1.0698">
   <path d="m501.47 274.25-1.2053 3.2778-1.2053-3.2778c0.71162 0.52365 1.6852 0.52064 2.4106 0z" fill="#fff" fill-rule="evenodd" stroke="#47d562" stroke-linejoin="round" stroke-width=".20058"/>
  </g>
  <g fill="#f9f4f4" stroke="#0027f5" stroke-linecap="round" stroke-width=".26458">
   <rect x="56.548" y="127.73" width="2.438" height="2.438" style="paint-order:normal"/>
   <rect x="61.839" y="127.73" width="2.438" height="2.438" style="paint-order:normal"/>
   <rect x="67.131" y="127.73" width="2.438" height="2.438" style="paint-order:normal"/>
  </g>
 </g>
</svg>
