<svg id="lab06Logo" width="750" height="400" enable-background="new 0 0 198.44 105.83" version="1.1" viewBox="0 0 194.26 55.827" xml:space="preserve" xmlns="http://www.w3.org/2000/svg">
<path transform="matrix(.25901 0 0 .25901 0 -23.889)" d="m384.23 4.8535c-10.466-0.068479-20.62 4.0666-28.766 12.201-10.311 10.298-13.213 20.992-10.781 39.719 0.1905 1.467-3.5517 3.8545-30.166 19.248-16.711 9.6657-31.334 18.071-32.496 18.678-2.0087 1.0482-2.2707 0.97293-5.3184-1.5-12.421-10.079-30.479-11.766-44.715-4.1777-9.1762 4.8909-16.513 13.872-19.666 24.076-2.0352 6.5913-2.0261 17.199 0.01953 23.822 3.7809 12.241 14.833 23.247 26.936 26.82l3.0801 0.90821 0.19726 35.396 0.19727 35.396-3.2363 0.86132c-12.316 3.2752-23.577 14.758-27.471 28.014-1.5965 5.433-1.5901 16.734 0.01171 22.133 5.4992 18.535 22.705 30.632 41.693 29.312 9.404-0.65336 16.32-3.3797 23.582-9.2949l4.2402-3.4551 23.084 13.33c12.696 7.3312 23.489 13.42 23.986 13.531 0.49703 0.11108 2.7112-2.8747 4.9199-6.6348 3.6596-6.2298 3.9024-6.9232 2.7402-7.8203-0.70139-0.54148-11.453-6.8567-23.891-14.033-16.672-9.6196-22.5-13.342-22.184-14.166 1.5783-4.1129 2.1002-12.549 1.1426-18.445-0.57569-3.5457-0.71612-6.3265-0.32617-6.459 0.37658-0.12789 4.5706-2.4528 9.3203-5.166 4.7497-2.7132 8.8976-4.9336 9.2168-4.9336 0.3192 0 2.5263 2.3089 4.9043 5.1289 22.475 26.653 58.563 38.352 91.959 29.811 18.151-4.6423 35.675-15.628 47.117-29.537l4.4082-5.3594 5.7539 3.1719c12.287 6.7763 14.105 7.9589 13.854 9.0117-1.3148 5.5012-1.2087 16.771 0.20898 22.033 0.51812 1.9234-0.3128 2.4622-31.477 20.422l-32.01 18.447-2.7949-2.6875c-1.538-1.4786-4.5067-3.7596-6.5957-5.0684-12.32-7.7185-30.254-7.4125-42.947 0.73242-7.9232 5.0843-15.155 15.324-17.391 24.619-1.1235 4.6726-1.1453 14.15-0.04297 19.068 3.2376 14.447 16.054 26.941 31.137 30.352 9.4043 2.1266 20.768 0.13769 29.941-5.2383 8.491-4.976 16.159-15.896 18.318-26.088 1.3419-6.3325 1.3687-10.597 0.10743-16.613l-0.97266-4.6465 63.525-36.691 4.9258 3.7754c2.709 2.0763 6.5495 4.4965 8.5352 5.3789 20.116 8.939 43.542 0.79094 53.316-18.545 2.4892-4.9239 4.5801-13.283 4.5801-18.309 0-5.009-2.0891-13.357-4.6562-18.609-4.4322-9.0678-14.597-17.504-24.752-20.543l-3.2285-0.9668v-28.365-28.365h-8.3555-8.3555v28.365 28.365l-3.2285 0.95313c-4.9005 1.4468-11.239 5.0396-15.561 8.8203l-3.8848 3.3984-9.1699-5.0156c-5.0436-2.7579-9.3435-5.2929-9.5547-5.6348-0.21134-0.34187 0.62463-3.302 1.8574-6.5781 7.6803-20.41 7.9604-41.813 0.80859-62.023-1.1986-3.3872-2.0394-6.3855-1.8672-6.6641 0.17219-0.27859 4.394-2.7818 9.3828-5.5625l9.0723-5.0566 3.2852 3.0547c7.6171 7.0783 19.256 11.134 29.895 10.416 21.505-1.4509 38.244-19.288 38.326-40.838 0.01796-4.7484-2.5418-14.391-5.0879-19.168-2.9905-5.6108-11.063-13.504-16.742-16.371-14.846-7.4942-30.763-6.1092-44.082 3.8359l-4.0156 3-32.484-18.756-32.486-18.758 0.97461-4.6465c1.2617-6.0184 1.2346-10.284-0.10743-16.617-2.1598-10.192-9.8274-21.112-18.318-26.088-6.9099-4.0495-14.216-6.0645-21.377-6.1113zm0.54492 16.973c8.3987 0.2405 16.69 4.858 21.037 13.744 1.771 3.6195 2.1069 5.2605 2.0586 10.029-0.09803 9.7231-4.8933 17.267-13.596 21.391-3.7624 1.7828-5.5626 2.1597-10.322 2.1602-4.9068 5.1e-4 -6.4548-0.34284-10.396-2.3125-4.9877-2.4924-8.2719-5.7246-10.986-10.811-1.4302-2.6795-1.7133-4.395-1.7148-10.424-0.00191-6.5704 0.19856-7.5772 2.2363-11.256 4.7778-8.6248 13.285-12.762 21.684-12.521zm-31.125 51.006 3.4863 3.0684c8.0059 7.047 16.202 10.127 26.885 10.1 11.13-0.028116 20.101-3.472 27.451-10.537 2.5015-2.4045 2.9337-2.5661 4.5566-1.7031 5.5684 2.961 61.196 35.224 61.973 35.943 0.732 0.67759 0.68659 1.6693-0.2168 4.6524-1.3108 4.3291-1.5241 16.116-0.36328 20.072 0.42075 1.4346 0.68518 2.6844 0.58789 2.7793-0.75124 0.73264-18.018 10.17-18.521 10.123-0.35558-0.03288-2.721-2.6818-5.2578-5.8867-11.424-14.433-29.134-25.74-47.785-30.51-30.416-7.7792-63.768 1.337-86.059 23.523-3.2274 3.2123-7.3977 7.9481-9.2676 10.525-1.8699 2.5772-3.5798 4.6796-3.7988 4.6699-0.21898-0.00964-4.379-2.2396-9.2442-4.9551l-8.8457-4.9375 1.1738-3.5918c1.6182-4.9565 1.6012-18.451-0.0293-22.742l-1.2168-3.1992 4.3242-2.5898c2.3782-1.4244 16.889-9.8382 32.246-18.697l27.922-16.107zm-101.83 28.326c9.1933 0.1243 16.47 4.8012 20.68 13.352 2.0982 4.2619 2.4776 5.8649 2.4688 10.414-0.02074 9.4158-5.2483 17.515-13.893 21.525-12.258 5.6862-25.89 0.42965-31.666-12.211-1.7499-3.8288-1.9811-5.1935-1.7383-10.254 0.6219-12.967 9.5865-22.138 22.283-22.791 0.62956-0.0324 1.2524-0.04344 1.8652-0.03516zm265.86 0c9.1933 0.1243 16.472 4.8012 20.682 13.352 2.0982 4.2619 2.4765 5.8649 2.4687 10.414-0.0208 9.4158-5.2484 17.515-13.893 21.525-12.258 5.6862-25.892 0.42965-31.668-12.211-1.7538-3.8288-1.9811-5.1935-1.7383-10.254 0.62193-12.967 9.5885-22.138 22.285-22.791 0.62956-0.0324 1.2504-0.04344 1.8633-0.03516zm-133.75 16.053a80.511 80.511 0 0 1 80.512 80.51 80.511 80.511 0 0 1-80.512 80.512 80.511 80.511 0 0 1-80.51-80.512 80.511 80.511 0 0 1 80.51-80.51zm-104.1 37.463c1.1834 0.1 4.7666 1.7398 9.8418 4.5215 5.1249 2.809 9.4476 5.3195 9.6074 5.5781 0.15983 0.25864-0.52597 2.9736-1.5234 6.0332-6.0777 18.643-5.89 39.324 0.52344 57.754 1.2564 3.6104 2.4463 7.0764 2.6445 7.7031 0.24831 0.78543-1.2407 2.0184-4.793 3.9707-2.8343 1.5577-7.2042 4.004-9.7109 5.4355l-4.5566 2.6035-3.748-3.4062c-3.9746-3.612-10.105-7.0427-15.432-8.6367l-3.2285-0.9668v-35.139-35.141l4.7559-1.582c3.8996-1.2977 9.4163-4.4342 15.262-8.6758 0.06849-0.0497 0.18837-0.06702 0.35742-0.05273zm-29.258 96.826c12.4-0.26377 24.432 9.3081 24.4 23.824-0.0205 9.3061-4.8768 17.091-13.338 21.379-4.7224 2.393-12.446 3.0973-17.125 1.5625-6.9754-2.2883-11.978-6.804-15.096-13.627-1.7499-3.8288-1.9811-5.1935-1.7383-10.254 0.33386-6.9608 2.238-11.395 6.8574-15.969 4.6898-4.6434 10.403-6.7961 16.039-6.916zm267.37 0.07031c2.3596 0.04362 4.6423 0.36869 6.5312 0.9961 13.259 4.4039 20.179 19.93 14.402 32.312-2.4099 5.1654-6.3892 9.2966-11.4 11.836-11.514 5.8344-25.675 0.91789-31.904-11.076-2.5388-4.8878-2.5631-15.494-0.04688-20.602 2.1737-4.4116 7.0814-9.3168 11.426-11.42 2.911-1.4092 7.0594-2.1196 10.992-2.0469zm-133.98 77.365c4.7596 4.9e-4 6.5599 0.37738 10.322 2.1602 8.7024 4.1235 13.498 11.669 13.596 21.393 0.04803 4.7688-0.28772 6.4078-2.0586 10.027-2.6024 5.3191-8.4074 10.707-13.268 12.314-7.9077 2.6156-13.879 2.0284-20.84-2.0508-3.8983-2.2845-6.7052-5.3292-9.1758-9.9531-2.447-4.5796-2.424-16.147 0.04102-20.766 2.7144-5.086 5.9986-8.3182 10.986-10.811 3.9416-1.9696 5.4897-2.315 10.396-2.3144z" /><g transform="matrix(.46773 0 0 .46773 55.408 15.037)" fill="none" stroke="#fff" stroke-linejoin="round" stroke-width="1.1075"><path d="m79.772 18.635-8.9576 14.929h18.911z"/><path d="m79.772 18.635 18.911 0.99529-8.9576 13.934z"/><path d="m79.772 18.635 10.948-15.925h-15.925z"/><path d="m74.795 2.7101 10.948-12.939-16.92 2.9859z"/><path d="m68.823-7.2428-1.9906-2.9859 13.934-5.9717z"/><path d="m68.823-7.2428 11.943-8.9576 4.9765 5.9717z"/><path d="m80.767-16.2 13.934-2.9859 4.9765 2.9859z"/><path d="m80.767-16.2 4.9765 5.9717 13.934-5.9717z"/><path d="m94.701-19.186 15.925 2.9859h-10.948z"/><path d="m99.677-16.2 16.92 5.9717-5.9718-5.9717z"/><path d="m110.63-16.2 14.929 8.9576-8.9576-2.9859z"/><path d="m125.56-7.2428 4.9764 9.9529 4.9765 2.9859z"/><path d="m116.6-10.229 13.934 12.939-4.9764-9.9529z"/><path d="m130.53 2.7101 4.9765 2.9859 2.9859 12.939z"/><path d="m130.53 2.7101v15.925h7.9623z"/><path d="m138.49 18.635 0.99527 15.925-3.9812-0.99529z"/><path d="m130.53 18.635 4.9765 14.929 2.9859-14.929z"/><path d="m135.51 33.564-2.9859 16.92 6.967-15.925z"/><path d="m135.51 33.564-7.9623 12.939 4.9765 3.9812z"/><path d="m124.56 33.564h10.948l-7.9623 12.939z"/><path d="m124.56 33.564 5.9718-14.929h-12.939z"/><path d="m117.59 18.635h12.939l-9.9529-15.925z"/><path d="m120.58 2.7101h9.9529v15.925z"/><path d="m116.6-10.229 3.9811 12.939h9.9529z"/><path d="m85.743-10.229 13.934-5.9717 3.9811 8.9576z"/><path d="m103.66-7.2428 12.939-2.9859-16.92-5.9717z"/><path d="m103.66-7.2428 16.92 9.9529-3.9811-12.939z"/><path d="m103.66-7.2428 2.9859 12.939 13.934-2.9859z"/><path d="m103.66-7.2428-12.939 9.9529 15.925 2.9859z"/><path d="m103.66-7.2428-12.939 9.9529-4.9765-12.939z"/><path d="m85.743-10.229 4.9765 12.939h-15.925z"/><path d="m55.885 2.7101 10.948-12.939 1.9906 2.9859z"/><path d="m55.885 2.7101 4.9765 2.9859 7.9623-12.939z"/><path d="m60.861 5.696 13.934-2.9859-5.9717-9.9529z"/><path d="m79.772 18.635 10.948-15.925 7.9623 16.92z"/><path d="m98.682 19.63 7.9623-13.934-15.925-2.9859z"/><path d="m98.682 19.63 7.9623-13.934 10.948 12.939z"/><path d="m117.59 18.635-10.948-12.939 13.934-2.9859z"/><path d="m89.725 33.564 8.9576-13.934 9.9529 14.929z"/><path d="m108.64 34.559 8.9576-15.925-18.911 0.99529z"/><path d="m108.64 34.559 8.9576-15.925 6.967 14.929z"/><path d="m124.56 33.564-10.948 16.92 13.934-3.9812z"/><path d="m108.64 34.559 4.9765 15.925 10.948-16.92z"/><path d="m132.52 50.484-12.939 9.9529 1.9906 2.9859z"/><path d="m132.52 50.484-12.939 9.9529 7.9623-13.934z"/><path d="m127.55 46.503-13.934 3.9812 5.9718 9.9529z"/><path d="m74.795 2.7101-10.948 16.92 15.925-0.99529z"/><path d="m60.861 5.696 2.9859 13.934 10.948-16.92z"/><path d="m55.885 2.7101-6.967 15.925h3.9812z"/><path d="m55.885 2.7101-2.9859 15.925 7.9623-12.939z"/><path d="m60.861 5.696-7.9623 12.939 10.948 0.99529z"/><path d="m48.918 18.635 0.99529 14.929 2.9859-14.929z"/><path d="m52.899 18.635-2.9859 14.929 7.9623 0.99529z"/><path d="m52.899 18.635 10.948 0.99529-5.9717 14.929z"/><path d="m57.875 34.559 12.939-0.99529-6.967-13.934z"/><path d="m70.814 33.564-6.967-13.934 15.925-0.99529z"/><path d="m49.913 33.564 2.9859 13.934 4.9765 1.9906z"/><path d="m49.913 33.564 7.9623 0.99529v14.929z"/><path d="m57.875 34.559v14.929l9.9529 0.99529z"/><path d="m57.875 34.559 12.939-0.99529-2.9859 16.92z"/><path d="m67.828 50.484 2.9859-16.92 10.948 12.939z"/><path d="m81.762 46.503-10.948-12.939h18.911z"/><path d="m81.762 46.503 15.925 3.9812-7.9623-16.92z"/><path d="m89.725 33.564 18.911 0.99529-10.948 15.925z"/><path d="m108.64 34.559-10.948 15.925h15.925z"/><path d="m52.899 47.498 9.9529 12.939-4.9765-10.948z"/><path d="m57.875 49.489 4.9765 10.948 8.9576 2.9859z"/><path d="m57.875 49.489 9.9529 0.99529 3.9812 12.939z"/><path d="m67.828 50.484 13.934-3.9812 2.9859 13.934z"/><path d="m67.828 50.484 3.9812 12.939 12.939-2.9859z"/><path d="m62.852 60.437 8.9576 2.9859 5.9717 5.9717z"/><path d="m71.809 63.423 12.939-2.9859 3.9812 8.9576z"/><path d="m71.809 63.423 5.9717 5.9717h10.948z"/><path d="m77.781 69.395h10.948l4.9765 2.9859z"/><path d="m84.748 60.437-2.9859-13.934 15.925 3.9812z"/><path d="m84.748 60.437 12.939-9.9529 4.9765 12.939z"/><path d="m97.687 50.484h15.925l-10.948 12.939z"/><path d="m84.748 60.437 3.9812 8.9576 13.934-5.9717z"/><path d="m102.66 63.423 10.948-12.939 5.9718 9.9529z"/><path d="m102.66 63.423 4.9765 5.9717 11.943-8.9576z"/><path d="m107.64 69.395 11.943-8.9576 1.9906 2.9859z"/><path d="m88.729 69.395 13.934-5.9717 4.9765 5.9717z"/><path d="m88.729 69.395 4.9765 2.9859 13.934-2.9859z"/><path d="m130.53 18.635-5.9718 14.929h10.948z"/></g></svg>
