<svg width="84.799mm" height="21.213mm" version="1.1" viewBox="0 0 84.799 21.213" xmlns="http://www.w3.org/2000/svg">
 <g transform="translate(15.185 -107.23)">
  <g>
   <rect x="31.948" y="108.3" width="36.616" height="19.093" fill="#3b390d" fill-opacity=".38431" stroke="#e9e56f" stroke-linecap="round" stroke-width=".09929"/>
   <rect x="-14.136" y="108.28" width="31.685" height="19.093" fill="#350d3b" fill-opacity=".38431" stroke="#da6fe9" stroke-linecap="round" stroke-width=".09929"/>
   <g fill="#e9e56f" stroke-width=".28222px" aria-label="Client">
    <path d="m47.847 109.65c-0.1711 0-0.41804 0.12523-0.41804 0.56621 0 0.42333 0.23636 0.56091 0.41804 0.56091 0.13053 0 0.25224-0.0688 0.32103-0.18168l-0.08996-0.0582c-0.05115 0.0829-0.13935 0.1323-0.22401 0.1323-0.16228 0-0.30515-0.16757-0.30515-0.46567 0-0.29104 0.13935-0.45508 0.29457-0.45508 0.08467 0 0.16581 0.0512 0.2099 0.12876 0.0035 5e-3 0.0071 0.0106 0.0071 0.0176 0 5e-3 -0.0018 9e-3 -0.0018 0.0141 0 2e-3 0 0.0106 0.0088 0.0159l0.11642-0.0564c-0.05821-0.13229-0.1905-0.21872-0.3369-0.21872z"/>
    <path d="m48.389 109.59v0.1023h0.2293v0.96838h-0.23989v0.10054h0.60501v-0.10054h-0.23812v-1.0707z"/>
    <path d="m49.31 109.95v0.10407h0.19403v0.60149h-0.20461v0.10054h0.52211v-0.10054h-0.18874v-0.70556zm0.26106-0.34925c-0.05115 0-0.09172 0.0406-0.09172 0.09s0.04057 0.09 0.09172 0.09 0.09172-0.0406 0.09172-0.09-0.04057-0.09-0.09172-0.09z"/>
    <path d="m50.46 109.93c-0.19226 0-0.37042 0.13759-0.37042 0.43039 0 0.26988 0.16757 0.41275 0.38629 0.41275 0.11642 0 0.22049-0.0423 0.28928-0.12523l-0.07055-0.0688c-0.05115 0.06-0.12876 0.0917-0.20814 0.0917-0.1076 0-0.26458-0.06-0.2734-0.30163h0.5715c0.0053-0.0547 0.0035-0.10759-0.0053-0.15346-0.03704-0.21695-0.18697-0.28575-0.31926-0.28575zm-0.24342 0.3422c0.02646-0.1905 0.14817-0.24518 0.2346-0.24518 0.13053 0 0.22401 0.11465 0.20814 0.24518z"/>
    <path d="m51.007 110.76h0.12876v-0.4639c0-0.0529 0.0071-0.0935 0.04057-0.13759 0.02999-0.0406 0.1076-0.11288 0.19226-0.11288 0.04057 0 0.08114 0.0176 0.10936 0.0511 0.0441 0.0529 0.0441 0.12171 0.0441 0.17815v0.48507h0.12524v-0.4886c0-0.0617 0-0.12876-0.02822-0.19402-0.04057-0.09-0.12347-0.14112-0.21519-0.14112-0.10936 0-0.20814 0.0706-0.26811 0.16052v-0.14111h-0.12876z"/>
    <path d="m52.1 109.74-0.01587 0.21696h-0.19226l-0.0018 0.10407h0.18874c-0.01058 0.13758-0.01588 0.27516-0.01588 0.41098 0 0.0723 0 0.15346 0.04763 0.22049 0.03881 0.0529 0.10054 0.0847 0.18344 0.0847 0.09525 0 0.18874-0.0406 0.25753-0.09l-0.03881-0.10054c-0.06879 0.0511-0.13229 0.0741-0.18168 0.0741-0.05997 0-0.12171-0.0335-0.13582-0.13053 0-7e-3 -0.0053-0.037-0.0053-0.15522 0-0.10407 0.0053-0.2099 0.01588-0.31397h0.26458v-0.10584h-0.26282s0.01235-0.14464 0.02117-0.1905c0.0018-0.0176 0.01588-0.0282 0.0088-0.0476z"/>
   </g>
  </g>
  <rect x="33.087" y="114.38" width="9.7084" height="4.1487" fill="#3b0d0d" fill-opacity=".38431" stroke="#e96f6f" stroke-width=".084667"/>
  <g fill="#e9e56f" stroke-width=".28222px" aria-label="Network  manager">
   <path d="m34.968 115.91h0.11818v-0.8643l0.4833 0.86607h0.09878v-1.0548c0-0.0123 0.0018-0.0159 0.0071-0.0247 0.0018-4e-3 0.0053-0.0123 0.0035-0.0212h-0.13053v0.81492l-0.46038-0.81492h-0.11994z"/>
   <path d="m36.217 115.08c-0.19226 0-0.37042 0.13758-0.37042 0.43039 0 0.26987 0.16757 0.41275 0.38629 0.41275 0.11642 0 0.22049-0.0423 0.28928-0.12524l-0.07055-0.0688c-0.05115 0.06-0.12876 0.0917-0.20814 0.0917-0.1076 0-0.26458-0.06-0.2734-0.30162h0.5715c0.0053-0.0547 0.0035-0.1076-0.0053-0.15346-0.03704-0.21696-0.18697-0.28575-0.31926-0.28575zm-0.24342 0.34219c0.02646-0.1905 0.14817-0.24518 0.2346-0.24518 0.13053 0 0.22401 0.11465 0.20814 0.24518z"/>
   <path d="m36.975 114.89-0.01588 0.21696h-0.19226l-0.0018 0.10407h0.18874c-0.01058 0.13758-0.01588 0.27517-0.01588 0.41099 0 0.0723 0 0.15345 0.04763 0.22048 0.0388 0.0529 0.10054 0.0847 0.18344 0.0847 0.09525 0 0.18874-0.0406 0.25753-0.09l-0.0388-0.10054c-0.06879 0.0511-0.13229 0.0741-0.18168 0.0741-0.05997 0-0.12171-0.0335-0.13582-0.13053 0-7e-3 -0.0053-0.037-0.0053-0.15522 0-0.10407 0.0053-0.2099 0.01588-0.31397h0.26458v-0.10583h-0.26282s0.01235-0.14464 0.02117-0.1905c0.0018-0.0176 0.01587-0.0282 0.0088-0.0476z"/>
   <path d="m37.552 115.1 0.16228 0.80786h0.11465l0.14111-0.52211 0.14993 0.52211h0.11818c0.05468-0.26635 0.10054-0.53623 0.13406-0.8061h-0.11642c0.0035 0.097-0.0053 0.18697-0.07585 0.64558l-0.16933-0.5715h-0.07761l-0.13935 0.57327-0.11642-0.58209c-0.0035-0.0123-0.0035-0.0176 0.0018-0.0317 0.0018-9e-3 0.0071-0.0212 0.0018-0.0353z"/>
   <path d="m39.219 115.51c0-0.27869-0.17639-0.42333-0.35983-0.42333-0.20461 0-0.381 0.17639-0.381 0.42686 0 0.24518 0.17462 0.41804 0.37747 0.41804 0.1905 0 0.36336-0.15345 0.36336-0.42157zm-0.36865-0.31573c0.11642 0 0.23989 0.10054 0.23989 0.32103 0 0.20284-0.11642 0.30515-0.23283 0.30515-0.12876 0-0.24518-0.11995-0.24518-0.31927 0-0.19755 0.11465-0.30691 0.23812-0.30691z"/>
   <path d="m39.464 115.1v0.8061h0.127v-0.39159c0-0.0494 0.0018-0.1023 0.05644-0.18873 0.07408-0.11642 0.16933-0.13582 0.22754-0.13582 0.06703 0 0.10936 0.0317 0.13229 0.06 0.01058 0.0141 0.01588 0.0282 0.02999 0.0406l0.05997-0.12171c-0.05115-0.0529-0.12524-0.0882-0.21519-0.0882-0.11818 0-0.23812 0.06-0.29104 0.17462l0.0053-0.15522z"/>
   <path d="m40.288 114.74v1.173h0.127v-0.30516l0.1076-0.0988 0.32808 0.41098s0.06879-7e-3 0.15169-7e-3h0.01235l-0.39511-0.48154 0.34043-0.31927h-0.04586c-0.03175 0-0.0635-2e-3 -0.09525-0.0106l-0.40393 0.37571v-0.69145c0-7e-3 0.0018-0.0124 0.0071-0.0212 0.0053-5e-3 0.01235-0.0123 0.01058-0.0247z"/>
   <path d="m34.945 118.11h0.11642v-0.53622c0-0.0388 0.0035-0.0741 0.02646-0.11641 0.02822-0.0529 0.0635-0.0741 0.09701-0.0741 0.02822 0 0.05997 0.0176 0.07408 0.0617 0.01058 0.0335 0.0088 0.0723 0.0088 0.10583v0.55915h0.11818v-0.53269c0-0.0423 0.0035-0.0759 0.03351-0.127 0.01411-0.0212 0.0441-0.0723 0.09349-0.0723 0.02646 0 0.05115 0.0159 0.0635 0.0459 0.01588 0.0335 0.01235 0.0794 0.01235 0.11642v0.5715h0.11994v-0.57327c0-0.067 0.0018-0.13405-0.03351-0.18873-0.02999-0.0459-0.08114-0.0635-0.12524-0.0635-0.07761 0-0.14993 0.0459-0.18168 0.11641-0.01235-0.067-0.06879-0.11641-0.14111-0.11641-0.06703 0-0.12876 0.0423-0.16581 0.0988l0.0018-0.0794h-0.11818z"/>
   <path d="m35.92 117.4 0.06174 0.0811c0.06703-0.0688 0.15699-0.09 0.23283-0.09 0.09525 0 0.14288 0.0406 0.16581 0.0776 0.02646 0.0441 0.02469 0.097 0.02469 0.13935v0.0282h-0.02469c-0.11994 0-0.24694 0-0.34925 0.037-0.127 0.0459-0.18344 0.14111-0.18344 0.22931 0 0.11818 0.1023 0.2293 0.26988 0.2293 0.09878 0 0.20108-0.037 0.28928-0.10936v0.0882h0.11994v-0.49918c0-0.0653-0.0018-0.127-0.03881-0.1905-0.05292-0.0864-0.15522-0.13229-0.28046-0.13229-0.1076 0-0.21167 0.0335-0.28751 0.11113zm0.49036 0.33337v0.0547c0 0.0406 0 0.0935-0.05468 0.1517-0.02999 0.03-0.10583 0.0953-0.21167 0.0953-0.1076 0-0.16933-0.0688-0.16933-0.13935 0-0.06 0.04057-0.12524 0.14111-0.14993 0.07408-0.0176 0.18168-0.0123 0.26635-0.0123z"/>
   <path d="m36.763 118.11h0.12876v-0.4639c0-0.0529 0.0071-0.0935 0.04057-0.13758 0.02999-0.0406 0.1076-0.11289 0.19226-0.11289 0.04057 0 0.08114 0.0176 0.10936 0.0511 0.0441 0.0529 0.0441 0.12171 0.0441 0.17815v0.48507h0.12524v-0.48859c0-0.0617 0-0.12877-0.02822-0.19403-0.04057-0.09-0.12347-0.14111-0.21519-0.14111-0.10936 0-0.20814 0.0705-0.26811 0.16051v-0.14111h-0.12876z"/>
   <path d="m37.684 117.4 0.06174 0.0811c0.06703-0.0688 0.15699-0.09 0.23283-0.09 0.09525 0 0.14288 0.0406 0.16581 0.0776 0.02646 0.0441 0.02469 0.097 0.02469 0.13935v0.0282h-0.02469c-0.11994 0-0.24694 0-0.34925 0.037-0.127 0.0459-0.18344 0.14111-0.18344 0.22931 0 0.11818 0.1023 0.2293 0.26988 0.2293 0.09878 0 0.20108-0.037 0.28928-0.10936v0.0882h0.11994v-0.49918c0-0.0653-0.0018-0.127-0.03881-0.1905-0.05292-0.0864-0.15522-0.13229-0.28046-0.13229-0.1076 0-0.21167 0.0335-0.28751 0.11113zm0.49036 0.33337v0.0547c0 0.0406 0 0.0935-0.05468 0.1517-0.02999 0.03-0.10583 0.0953-0.21167 0.0953-0.1076 0-0.16933-0.0688-0.16933-0.13935 0-0.06 0.04057-0.12524 0.14111-0.14993 0.07408-0.0176 0.18168-0.0123 0.26635-0.0123z"/>
   <path d="m38.628 117.56c0-0.097 0.08114-0.17639 0.17815-0.17639 0.09878 0 0.17815 0.0794 0.17815 0.17639 0 0.097-0.07938 0.17639-0.17815 0.17639-0.09878 0-0.17815-0.0794-0.17815-0.17639zm0.18521-0.27693c-0.16051 0-0.29986 0.127-0.29986 0.28399 0 0.0882 0.0441 0.1711 0.11818 0.21872-0.05821 0.0494-0.09172 0.10407-0.09172 0.15522 0 0.0335 0.01411 0.0811 0.06526 0.1076-0.08643 0.0547-0.13053 0.11465-0.13053 0.17815 0 0.0882 0.08114 0.19227 0.36336 0.19227 0.2734 0 0.37218-0.13935 0.37218-0.24695 0-0.0706-0.04057-0.14111-0.12524-0.17462-0.08467-0.0353-0.18168-0.0229-0.2734-0.0229-0.05997 0-0.09878-5e-3 -0.11465-0.0106-0.03175-9e-3 -0.04939-0.0282-0.04939-0.0529 0-0.0423 0.04939-0.0829 0.05821-0.09 0.03175 0.0123 0.06703 0.0176 0.1023 0.0176 0.15875 0 0.28928-0.127 0.28928-0.27517 0-0.0494-0.01411-0.097-0.04057-0.13758 0.04233-0.0247 0.09172-0.0388 0.14111-0.0388 0.01587 0 0.02999 2e-3 0.04586 5e-3l-0.01411-0.10407c-0.08114-7e-3 -0.16228 0.0194-0.22401 0.0706-0.05115-0.0494-0.11818-0.0759-0.19226-0.0759zm-0.12171 0.78846c0.02999 4e-3 0.07232 7e-3 0.13406 0.0106 0.05997 2e-3 0.12524-4e-3 0.1711 4e-3 0.07408 0.0123 0.09701 0.0582 0.09701 0.0935s-0.02117 0.0776-0.07585 0.1076c-0.05997 0.0317-0.127 0.0353-0.18168 0.0353-0.03704 0-0.10583-2e-3 -0.1658-0.0265-0.06526-0.0264-0.07938-0.0705-0.07938-0.0988 0-0.0582 0.05468-0.10054 0.10054-0.12524z"/>
   <path d="m39.744 117.29c-0.19226 0-0.37042 0.13758-0.37042 0.43039 0 0.26987 0.16757 0.41275 0.38629 0.41275 0.11642 0 0.22049-0.0423 0.28928-0.12524l-0.07056-0.0688c-0.05115 0.06-0.12876 0.0917-0.20814 0.0917-0.1076 0-0.26458-0.06-0.2734-0.30162h0.5715c0.0053-0.0547 0.0035-0.1076-0.0053-0.15346-0.03704-0.21696-0.18697-0.28575-0.31926-0.28575zm-0.24342 0.34219c0.02646-0.1905 0.14817-0.24518 0.2346-0.24518 0.13053 0 0.22401 0.11465 0.20814 0.24518z"/>
   <path d="m40.346 117.31v0.8061h0.127v-0.39159c0-0.0494 0.0018-0.1023 0.05644-0.18873 0.07408-0.11642 0.16933-0.13582 0.22754-0.13582 0.06703 0 0.10936 0.0318 0.13229 0.06 0.01058 0.0141 0.01588 0.0282 0.02999 0.0406l0.05997-0.12171c-0.05115-0.0529-0.12524-0.0882-0.2152-0.0882-0.11818 0-0.23812 0.06-0.29104 0.17462l0.0053-0.15522z"/>
  </g>
  <path d="m52.849 118.51v2.3327" fill="none" stroke="#e9e56f" stroke-width=".28222px"/>
  <rect x="61.692" y="114.39" width="5.6181" height="9.2543" fill="#0d373b" fill-opacity=".38431" stroke="#6fdfe9" stroke-width=".091691"/>
  <g transform="rotate(-90)" fill="#e9e56f" stroke-width=".28222px" aria-label="Interpolator">
   <path d="m-122.93 64.006v0.08082h0.15754v0.69454h-0.16713v0.07945h0.44111v-0.07808h-0.17809v-0.69591h0.1685v-0.08082z"/>
   <path d="m-122.27 64.86h0.1v-0.36028c0-0.0411 5e-3 -0.07261 0.0315-0.10685 0.0233-0.03151 0.0836-0.08767 0.14932-0.08767 0.0315 0 0.063 0.0137 0.0849 0.03973 0.0343 0.0411 0.0343 0.09452 0.0343 0.13836v0.37672h0.0973v-0.37946c0-0.04795 0-0.1-0.0219-0.15069-0.0315-0.06986-0.0959-0.10959-0.16713-0.10959-0.0849 0-0.16165 0.0548-0.20823 0.12466v-0.10959h-0.1z"/>
   <path d="m-121.42 64.066-0.0123 0.1685h-0.14932l-1e-3 0.08082h0.14658c-8e-3 0.10685-0.0123 0.2137-0.0123 0.31919 0 0.05617 0 0.11918 0.037 0.17124 0.0301 0.0411 0.0781 0.06576 0.14247 0.06576 0.074 0 0.14658-0.03151 0.2-0.06987l-0.0301-0.07808c-0.0534 0.03973-0.10275 0.05754-0.1411 0.05754-0.0466 0-0.0945-0.02603-0.10549-0.10137 0-0.0055-4e-3 -0.02877-4e-3 -0.12055 0-0.08083 4e-3 -0.16302 0.0123-0.24384h0.20549v-0.08219h-0.20412s0.01-0.11233 0.0164-0.14795c1e-3 -0.0137 0.0123-0.02192 7e-3 -0.03699z"/>
   <path d="m-120.64 64.22c-0.14932 0-0.28768 0.10685-0.28768 0.33426 0 0.2096 0.13014 0.32056 0.30001 0.32056 0.0904 0 0.17124-0.03288 0.22466-0.09726l-0.0548-0.05343c-0.0397 0.04658-0.1 0.07123-0.16165 0.07123-0.0836 0-0.20548-0.04658-0.21233-0.23425h0.44384c4e-3 -0.04247 3e-3 -0.08356-4e-3 -0.11918-0.0288-0.1685-0.14521-0.22192-0.24795-0.22192zm-0.18904 0.26576c0.0205-0.14795 0.11507-0.19042 0.18219-0.19042 0.10138 0 0.17398 0.08904 0.16165 0.19042z"/>
   <path d="m-120.17 64.235v0.62604h0.0986v-0.30412c0-0.03836 1e-3 -0.07945 0.0438-0.14658 0.0575-0.09041 0.13151-0.10548 0.17671-0.10548 0.0521 0 0.0849 0.02466 0.10275 0.04658 8e-3 0.01096 0.0123 0.02192 0.0233 0.03151l0.0466-0.09452c-0.0397-0.0411-0.0973-0.06849-0.16713-0.06849-0.0918 0-0.18493 0.04658-0.22603 0.13562l4e-3 -0.12055z"/>
   <path d="m-119.54 64.235 1e-3 0.85345h0.1v-0.31097c0.0425 0.06164 0.11234 0.1 0.18768 0.1 0.12877 0 0.26302-0.10822 0.26302-0.337 0-0.22055-0.13014-0.31919-0.25343-0.31919-0.0808 0-0.15617 0.0411-0.19864 0.10959v-0.09589zm0.26165 0.06986c0.0548 0 0.18768 0.02877 0.18768 0.25617 0 0.19727-0.12877 0.22877-0.18768 0.22877-0.0589 0-0.11918-0.03014-0.14384-0.0863-0.0178-0.04247-0.0178-0.09452-0.0178-0.18494 0-0.05206 3e-3 -0.09041 0.0164-0.12329 0.0247-0.05617 0.0822-0.09041 0.14521-0.09041z"/>
   <path d="m-118.31 64.55c0-0.21644-0.13699-0.32878-0.27946-0.32878-0.15891 0-0.2959 0.13699-0.2959 0.33152 0 0.19042 0.13562 0.32467 0.29316 0.32467 0.14795 0 0.2822-0.11918 0.2822-0.32741zm-0.28631-0.24521c0.0904 0 0.18631 0.07809 0.18631 0.24932 0 0.15754-0.0904 0.23699-0.18083 0.23699-0.1 0-0.19041-0.09315-0.19041-0.24795 0-0.15343 0.089-0.23836 0.18493-0.23836z"/>
   <path d="m-118.14 63.95v0.07945h0.17809v0.75208h-0.18631v0.07809h0.46988v-0.07809h-0.18494v-0.83153z"/>
   <path d="m-117.44 64.307 0.0479 0.06302c0.0521-0.05343 0.12193-0.06986 0.18083-0.06986 0.074 0 0.11096 0.03151 0.12877 0.06028 0.0205 0.03425 0.0192 0.07534 0.0192 0.10822v0.02192h-0.0192c-0.0932 0-0.19178 0-0.27124 0.02877-0.0986 0.03562-0.14247 0.10959-0.14247 0.17809 0 0.09178 0.0795 0.17809 0.2096 0.17809 0.0767 0 0.15617-0.02877 0.22466-0.08493v0.06849h0.0932v-0.38768c0-0.05069-1e-3 -0.09863-0.0301-0.14795-0.0411-0.06713-0.12056-0.10274-0.21782-0.10274-0.0836 0-0.16439 0.02603-0.22329 0.0863zm0.38083 0.25891v0.04247c0 0.03151 0 0.07261-0.0425 0.11781-0.0233 0.02329-0.0822 0.07398-0.16438 0.07398-0.0836 0-0.13151-0.05343-0.13151-0.10822 0-0.04658 0.0315-0.09726 0.10959-0.11644 0.0575-0.0137 0.1411-0.0096 0.20685-0.0096z"/>
   <path d="m-116.62 64.066-0.0123 0.1685h-0.14932l-1e-3 0.08082h0.14658c-8e-3 0.10685-0.0123 0.2137-0.0123 0.31919 0 0.05617 0 0.11918 0.037 0.17124 0.0301 0.0411 0.0781 0.06576 0.14247 0.06576 0.074 0 0.14658-0.03151 0.2-0.06987l-0.0301-0.07808c-0.0534 0.03973-0.10274 0.05754-0.14109 0.05754-0.0466 0-0.0945-0.02603-0.10549-0.10137 0-0.0055-4e-3 -0.02877-4e-3 -0.12055 0-0.08083 4e-3 -0.16302 0.0123-0.24384h0.20549v-0.08219h-0.20412s0.01-0.11233 0.0164-0.14795c1e-3 -0.0137 0.0123-0.02192 7e-3 -0.03699z"/>
   <path d="m-115.57 64.55c0-0.21644-0.13699-0.32878-0.27946-0.32878-0.15891 0-0.2959 0.13699-0.2959 0.33152 0 0.19042 0.13562 0.32467 0.29316 0.32467 0.14795 0 0.2822-0.11918 0.2822-0.32741zm-0.28631-0.24521c0.0904 0 0.18631 0.07809 0.18631 0.24932 0 0.15754-0.0904 0.23699-0.18083 0.23699-0.1 0-0.19041-0.09315-0.19041-0.24795 0-0.15343 0.089-0.23836 0.18493-0.23836z"/>
   <path d="m-115.38 64.235v0.62604h0.0986v-0.30412c0-0.03836 1e-3 -0.07945 0.0438-0.14658 0.0575-0.09041 0.13151-0.10548 0.17671-0.10548 0.0521 0 0.0849 0.02466 0.10275 0.04658 8e-3 0.01096 0.0123 0.02192 0.0233 0.03151l0.0466-0.09452c-0.0397-0.0411-0.0973-0.06849-0.16713-0.06849-0.0918 0-0.18493 0.04658-0.22603 0.13562l4e-3 -0.12055z"/>
  </g>
  <rect x="45.784" y="120.87" width="14.033" height="2.7529" fill="#0d3b1b" fill-opacity=".38431" stroke="#6fe994" stroke-width=".077628"/>
  <g fill="#e9e56f" stroke-width=".28222px" aria-label="Sync Component">
   <path d="m47.532 121.82c-0.07408-0.09-0.18344-0.13759-0.30339-0.13759-0.19932 0-0.33514 0.13053-0.33514 0.28223 0 0.0635 0.02469 0.1464 0.11642 0.21343 0.10231 0.0758 0.26106 0.11289 0.34396 0.1658 0.07232 0.0441 0.09172 0.10231 0.09172 0.1517 0 0.0952-0.08114 0.19932-0.23989 0.19932-0.11994 0-0.21343-0.06-0.26282-0.12171-0.0053-7e-3 -0.0053-0.0106-0.0053-0.0176 0-4e-3 0-0.0141-0.0071-0.0176l-0.07408 0.127c0.08643 0.0935 0.2099 0.14111 0.34572 0.14111 0.26811 0 0.36689-0.17992 0.36689-0.3175 0-0.0582-0.01764-0.13405-0.08643-0.19932-0.09525-0.09-0.25047-0.12171-0.35101-0.17992-0.09172-0.0547-0.11112-0.11994-0.11112-0.16404 0-0.0847 0.07232-0.16051 0.19756-0.16051 0.10231 0 0.18168 0.0459 0.22401 0.1076 0.0053 7e-3 0.0035 0.0106 0.0035 0.0176 0 0.0106 0.0053 0.0141 0.0088 0.0141z"/>
   <path d="m47.728 121.98 0.32808 0.80257-0.02646 0.0582c-0.01411 0.0335-0.02999 0.067-0.05468 0.0935-0.03351 0.037-0.07585 0.0529-0.11289 0.0529-0.05997 0-0.08996-0.0406-0.09525-0.0476-0.0053-9e-3 -0.0035-0.0212-0.01411-0.03l-0.06526 0.11466c0.04586 0.0441 0.1076 0.067 0.17462 0.067 0.07232 0 0.14817-0.0264 0.20108-0.0864 0.03528-0.0406 0.05292-0.0829 0.07055-0.12876l0.25047-0.66499c0.02999-0.0758 0.05644-0.15345 0.08114-0.23283h-0.13229c-0.01411 0.0741-0.03704 0.14464-0.06174 0.2152l-0.15346 0.43215-0.23636-0.59443c-0.0018-5e-3 -0.0018-9e-3 -0.0018-0.0141 0-0.0123 0.0088-0.0212 0.0071-0.037z"/>
   <path d="m48.65 122.78h0.12876v-0.4639c0-0.0529 0.0071-0.0935 0.04057-0.13759 0.02999-0.0406 0.1076-0.11289 0.19226-0.11289 0.04057 0 0.08114 0.0176 0.10936 0.0512 0.0441 0.0529 0.0441 0.1217 0.0441 0.17815v0.48507h0.12524v-0.4886c0-0.0617 0-0.12876-0.02822-0.19403-0.04057-0.09-0.12347-0.14111-0.21519-0.14111-0.10936 0-0.20814 0.0706-0.26811 0.16052v-0.14112h-0.12876z"/>
   <path d="m50.217 122.11c-0.0635-0.0935-0.1711-0.14993-0.30162-0.14993-0.23636 0-0.40393 0.17815-0.40393 0.4198 0 0.24342 0.16757 0.42333 0.39688 0.42333 0.11112 0 0.22049-0.0459 0.29633-0.12876l-0.07232-0.0847c-0.05468 0.0617-0.13406 0.097-0.21343 0.097-0.15699 0-0.27693-0.13053-0.27693-0.31927 0-0.18344 0.11818-0.29809 0.26635-0.29809 0.13758 0 0.20285 0.0952 0.20814 0.10583 0.0071 0.0123-0.0035 0.03 0.01058 0.0406z"/>
   <path d="m51.665 121.68c-0.1711 0-0.41804 0.12523-0.41804 0.5662 0 0.42334 0.23636 0.56092 0.41804 0.56092 0.13053 0 0.25224-0.0688 0.32103-0.18168l-0.08996-0.0582c-0.05115 0.0829-0.13935 0.13229-0.22401 0.13229-0.16228 0-0.30515-0.16757-0.30515-0.46566 0-0.29104 0.13935-0.45509 0.29457-0.45509 0.08467 0 0.16581 0.0512 0.2099 0.12877 0.0035 5e-3 0.0071 0.0106 0.0071 0.0176 0 5e-3 -0.0018 9e-3 -0.0018 0.0141 0 2e-3 0 0.0106 0.0088 0.0159l0.11642-0.0564c-0.05821-0.13229-0.1905-0.21872-0.3369-0.21872z"/>
   <path d="m52.869 122.38c0-0.2787-0.17639-0.42333-0.35983-0.42333-0.20461 0-0.381 0.17638-0.381 0.42686 0 0.24518 0.17462 0.41804 0.37747 0.41804 0.1905 0 0.36336-0.15346 0.36336-0.42157zm-0.36865-0.31574c0.11642 0 0.23989 0.10054 0.23989 0.32103 0 0.20285-0.11642 0.30515-0.23283 0.30515-0.12876 0-0.24518-0.11994-0.24518-0.31926 0-0.19756 0.11465-0.30692 0.23812-0.30692z"/>
   <path d="m53.005 122.78h0.11642v-0.53622c0-0.0388 0.0035-0.0741 0.02646-0.11642 0.02822-0.0529 0.0635-0.0741 0.09701-0.0741 0.02822 0 0.05997 0.0176 0.07408 0.0617 0.01058 0.0335 0.0088 0.0723 0.0088 0.10584v0.55915h0.11818v-0.5327c0-0.0423 0.0035-0.0758 0.03351-0.127 0.01411-0.0212 0.0441-0.0723 0.09349-0.0723 0.02646 0 0.05115 0.0159 0.0635 0.0459 0.01588 0.0335 0.01235 0.0794 0.01235 0.11641v0.5715h0.11994v-0.57326c0-0.067 0.0018-0.13406-0.03351-0.18874-0.02999-0.0459-0.08114-0.0635-0.12524-0.0635-0.07761 0-0.14993 0.0459-0.18168 0.11642-0.01235-0.067-0.06879-0.11642-0.14111-0.11642-0.06703 0-0.12876 0.0423-0.16581 0.0988l0.0018-0.0794h-0.11818z"/>
   <path d="m53.926 121.98 0.0018 1.0989h0.12876v-0.40041c0.05468 0.0794 0.14464 0.12877 0.24165 0.12877 0.16581 0 0.33867-0.13935 0.33867-0.43392 0-0.28398-0.16757-0.41098-0.32632-0.41098-0.10407 0-0.20108 0.0529-0.25576 0.14111v-0.12348zm0.3369 0.09c0.07055 0 0.24165 0.037 0.24165 0.32985 0 0.254-0.1658 0.29457-0.24165 0.29457-0.07585 0-0.15346-0.0388-0.18521-0.11113-0.02293-0.0547-0.02293-0.1217-0.02293-0.23812 0-0.067 0.0035-0.11642 0.02117-0.15875 0.03175-0.0723 0.10583-0.11642 0.18697-0.11642z"/>
   <path d="m55.515 122.38c0-0.2787-0.17639-0.42333-0.35983-0.42333-0.20461 0-0.381 0.17638-0.381 0.42686 0 0.24518 0.17462 0.41804 0.37747 0.41804 0.1905 0 0.36336-0.15346 0.36336-0.42157zm-0.36865-0.31574c0.11642 0 0.23989 0.10054 0.23989 0.32103 0 0.20285-0.11642 0.30515-0.23283 0.30515-0.12876 0-0.24518-0.11994-0.24518-0.31926 0-0.19756 0.11465-0.30692 0.23812-0.30692z"/>
   <path d="m55.706 122.78h0.12876v-0.4639c0-0.0529 0.0071-0.0935 0.04057-0.13759 0.02999-0.0406 0.1076-0.11289 0.19226-0.11289 0.04057 0 0.08114 0.0176 0.10936 0.0512 0.0441 0.0529 0.0441 0.1217 0.0441 0.17815v0.48507h0.12524v-0.4886c0-0.0617 0-0.12876-0.02822-0.19403-0.04057-0.09-0.12347-0.14111-0.21519-0.14111-0.10936 0-0.20814 0.0706-0.26811 0.16052v-0.14112h-0.12876z"/>
   <path d="m56.923 121.96c-0.19226 0-0.37042 0.13759-0.37042 0.43039 0 0.26988 0.16757 0.41275 0.38629 0.41275 0.11642 0 0.22049-0.0423 0.28928-0.12524l-0.07056-0.0688c-0.05115 0.06-0.12876 0.0917-0.20814 0.0917-0.1076 0-0.26458-0.06-0.2734-0.30163h0.5715c0.0053-0.0547 0.0035-0.1076-0.0053-0.15346-0.03704-0.21696-0.18697-0.28575-0.31926-0.28575zm-0.24342 0.3422c0.02646-0.1905 0.14817-0.24518 0.2346-0.24518 0.13053 0 0.22401 0.11465 0.20814 0.24518z"/>
   <path d="m57.47 122.78h0.12876v-0.4639c0-0.0529 0.0071-0.0935 0.04057-0.13759 0.02999-0.0406 0.1076-0.11289 0.19226-0.11289 0.04057 0 0.08114 0.0176 0.10936 0.0512 0.0441 0.0529 0.0441 0.1217 0.0441 0.17815v0.48507h0.12524v-0.4886c0-0.0617 0-0.12876-0.02822-0.19403-0.04057-0.09-0.12347-0.14111-0.21519-0.14111-0.10936 0-0.20814 0.0706-0.26811 0.16052v-0.14112h-0.12876z"/>
   <path d="m58.563 121.76-0.01588 0.21695h-0.19226l-0.0018 0.10407h0.18874c-0.01058 0.13759-0.01587 0.27517-0.01587 0.41099 0 0.0723 0 0.15346 0.04762 0.22049 0.03881 0.0529 0.10054 0.0847 0.18344 0.0847 0.09525 0 0.18874-0.0406 0.25753-0.09l-0.03881-0.10054c-0.06879 0.0512-0.13229 0.0741-0.18168 0.0741-0.05997 0-0.12171-0.0335-0.13582-0.13053 0-7e-3 -0.0053-0.037-0.0053-0.15522 0-0.10407 0.0053-0.20991 0.01588-0.31398h0.26458v-0.10583h-0.26282s0.01235-0.14464 0.02117-0.1905c0.0018-0.0176 0.01588-0.0282 0.0088-0.0476z"/>
  </g>
  <rect x="45.817" y="114.39" width="13.993" height="4.1405" fill="none" stroke="#e9e56f" stroke-width=".091691"/>
  <g stroke-width=".28222px">
   <g fill="#e9e56f" aria-label="NetworkClient">
    <path d="m47.165 116.93h0.11818v-0.86431l0.4833 0.86607h0.09878v-1.0548c0-0.0123 0.0018-0.0159 0.0071-0.0247 0.0018-4e-3 0.0053-0.0123 0.0035-0.0212h-0.13053v0.81491l-0.46038-0.81491h-0.11994z"/>
    <path d="m48.414 116.11c-0.19226 0-0.37042 0.13759-0.37042 0.43039 0 0.26988 0.16757 0.41275 0.38629 0.41275 0.11642 0 0.22049-0.0423 0.28928-0.12523l-0.07055-0.0688c-0.05115 0.06-0.12876 0.0917-0.20814 0.0917-0.1076 0-0.26458-0.06-0.2734-0.30163h0.5715c0.0053-0.0547 0.0035-0.10759-0.0053-0.15346-0.03704-0.21695-0.18697-0.28575-0.31926-0.28575zm-0.24342 0.3422c0.02646-0.1905 0.14817-0.24518 0.2346-0.24518 0.13053 0 0.22401 0.11465 0.20814 0.24518z"/>
    <path d="m49.172 115.91-0.01588 0.21696h-0.19226l-0.0018 0.10407h0.18874c-0.01058 0.13758-0.01588 0.27516-0.01588 0.41098 0 0.0723 0 0.15346 0.04763 0.22049 0.03881 0.0529 0.10054 0.0847 0.18344 0.0847 0.09525 0 0.18874-0.0406 0.25753-0.09l-0.0388-0.10054c-0.06879 0.0511-0.13229 0.0741-0.18168 0.0741-0.05997 0-0.12171-0.0335-0.13582-0.13053 0-7e-3 -0.0053-0.037-0.0053-0.15522 0-0.10407 0.0053-0.2099 0.01588-0.31397h0.26458v-0.10584h-0.26282s0.01235-0.14464 0.02117-0.1905c0.0018-0.0176 0.01587-0.0282 0.0088-0.0476z"/>
    <path d="m49.749 116.13 0.16228 0.80786h0.11465l0.14111-0.52211 0.14993 0.52211h0.11818c0.05468-0.26634 0.10054-0.53622 0.13406-0.80609h-0.11642c0.0035 0.097-0.0053 0.18697-0.07585 0.64558l-0.16933-0.5715h-0.07761l-0.13935 0.57326-0.11642-0.58208c-0.0035-0.0123-0.0035-0.0176 0.0018-0.0317 0.0018-9e-3 0.0071-0.0212 0.0018-0.0353z"/>
    <path d="m51.416 116.54c0-0.27869-0.17639-0.42333-0.35983-0.42333-0.20461 0-0.381 0.17639-0.381 0.42686 0 0.24518 0.17462 0.41804 0.37747 0.41804 0.1905 0 0.36336-0.15346 0.36336-0.42157zm-0.36865-0.31573c0.11642 0 0.23989 0.10054 0.23989 0.32102 0 0.20285-0.11642 0.30516-0.23283 0.30516-0.12876 0-0.24518-0.11995-0.24518-0.31927 0-0.19755 0.11465-0.30691 0.23812-0.30691z"/>
    <path d="m51.661 116.13v0.80609h0.127v-0.39158c0-0.0494 0.0018-0.1023 0.05644-0.18874 0.07408-0.11641 0.16933-0.13581 0.22754-0.13581 0.06703 0 0.10936 0.0318 0.13229 0.06 0.01058 0.0141 0.01588 0.0282 0.02999 0.0406l0.05997-0.12171c-0.05115-0.0529-0.12524-0.0882-0.21519-0.0882-0.11818 0-0.23812 0.06-0.29104 0.17463l0.0053-0.15522z"/>
    <path d="m52.485 115.76v1.173h0.127v-0.30515l0.1076-0.0988 0.32808 0.41099s0.06879-7e-3 0.15169-7e-3h0.01235l-0.39511-0.48154 0.34043-0.31926h-0.04586c-0.03175 0-0.0635-2e-3 -0.09525-0.0106l-0.40393 0.3757v-0.69144c0-7e-3 0.0018-0.0124 0.0071-0.0212 0.0053-5e-3 0.01235-0.0123 0.01058-0.0247z"/>
    <path d="m53.739 115.83c-0.1711 0-0.41804 0.12523-0.41804 0.56621 0 0.42333 0.23636 0.56091 0.41804 0.56091 0.13053 0 0.25224-0.0688 0.32103-0.18168l-0.08996-0.0582c-0.05115 0.0829-0.13935 0.1323-0.22401 0.1323-0.16228 0-0.30515-0.16757-0.30515-0.46567 0-0.29104 0.13935-0.45508 0.29457-0.45508 0.08467 0 0.16581 0.0512 0.2099 0.12876 0.0035 5e-3 0.0071 0.0106 0.0071 0.0176 0 5e-3 -0.0018 9e-3 -0.0018 0.0141 0 2e-3 0 0.0106 0.0088 0.0159l0.11642-0.0564c-0.05821-0.13229-0.1905-0.21872-0.3369-0.21872z"/>
    <path d="m54.28 115.76v0.1023h0.22931v0.96838h-0.23989v0.10054h0.60501v-0.10054h-0.23812v-1.0707z"/>
    <path d="m55.201 116.13v0.10407h0.19403v0.60149h-0.20461v0.10054h0.52211v-0.10054h-0.18874v-0.70556zm0.26106-0.34925c-0.05115 0-0.09172 0.0406-0.09172 0.09s0.04057 0.09 0.09172 0.09 0.09172-0.0406 0.09172-0.09-0.04057-0.09-0.09172-0.09z"/>
    <path d="m56.351 116.11c-0.19226 0-0.37042 0.13759-0.37042 0.43039 0 0.26988 0.16757 0.41275 0.38629 0.41275 0.11642 0 0.22049-0.0423 0.28928-0.12523l-0.07056-0.0688c-0.05115 0.06-0.12876 0.0917-0.20814 0.0917-0.1076 0-0.26458-0.06-0.2734-0.30163h0.5715c0.0053-0.0547 0.0035-0.10759-0.0053-0.15346-0.03704-0.21695-0.18697-0.28575-0.31926-0.28575zm-0.24342 0.3422c0.02646-0.1905 0.14817-0.24518 0.2346-0.24518 0.13053 0 0.22401 0.11465 0.20814 0.24518z"/>
    <path d="m56.898 116.93h0.12876v-0.4639c0-0.0529 0.0071-0.0935 0.04057-0.13759 0.02999-0.0406 0.1076-0.11288 0.19226-0.11288 0.04057 0 0.08114 0.0176 0.10936 0.0511 0.0441 0.0529 0.0441 0.12171 0.0441 0.17815v0.48507h0.12524v-0.4886c0-0.0617 0-0.12876-0.02822-0.19402-0.04057-0.09-0.12347-0.14112-0.21519-0.14112-0.10936 0-0.20814 0.0706-0.26811 0.16052v-0.14111h-0.12876z"/>
    <path d="m57.992 115.91-0.01588 0.21696h-0.19226l-0.0018 0.10407h0.18874c-0.01058 0.13758-0.01588 0.27516-0.01588 0.41098 0 0.0723 0 0.15346 0.04762 0.22049 0.03881 0.0529 0.10054 0.0847 0.18344 0.0847 0.09525 0 0.18874-0.0406 0.25753-0.09l-0.03881-0.10054c-0.06879 0.0511-0.13229 0.0741-0.18168 0.0741-0.05997 0-0.12171-0.0335-0.13582-0.13053 0-7e-3 -0.0053-0.037-0.0053-0.15522 0-0.10407 0.0053-0.2099 0.01588-0.31397h0.26458v-0.10584h-0.26282s0.01235-0.14464 0.02117-0.1905c0.0018-0.0176 0.01588-0.0282 0.0088-0.0476z"/>
   </g>
   <g fill="#e9e56f" aria-label="Server">
    <path d="m0.21719 109.79c-0.074083-0.09-0.18344-0.13758-0.30339-0.13758-0.19932 0-0.33514 0.13052-0.33514 0.28222 0 0.0635 0.024694 0.1464 0.11642 0.21343 0.10231 0.0759 0.26106 0.11289 0.34396 0.1658 0.072319 0.0441 0.091722 0.10231 0.091722 0.1517 0 0.0953-0.081139 0.19932-0.23989 0.19932-0.11994 0-0.21343-0.06-0.26282-0.12171-0.005292-7e-3 -0.005292-0.0106-0.005292-0.0176 0-4e-3 0-0.0141-0.007056-0.0176l-0.074083 0.127c0.086431 0.0935 0.2099 0.14111 0.34572 0.14111 0.26811 0 0.36689-0.17991 0.36689-0.3175 0-0.0582-0.017639-0.13405-0.086431-0.19932-0.09525-0.09-0.25047-0.1217-0.35101-0.17991-0.091722-0.0547-0.11112-0.11995-0.11112-0.16404 0-0.0847 0.072319-0.16052 0.19756-0.16052 0.10231 0 0.18168 0.0459 0.22401 0.1076 0.005292 7e-3 0.003528 0.0106 0.003528 0.0176 0 0.0106 0.005292 0.0141 0.008819 0.0141z"/>
    <path d="m0.78869 109.93c-0.19226 0-0.37042 0.13759-0.37042 0.43039 0 0.26988 0.16757 0.41275 0.38629 0.41275 0.11642 0 0.22049-0.0423 0.28928-0.12523l-0.070556-0.0688c-0.051153 0.06-0.12876 0.0917-0.20814 0.0917-0.1076 0-0.26458-0.06-0.2734-0.30163h0.5715c0.00529-0.0547 0.00353-0.10759-0.00529-0.15346-0.037042-0.21695-0.18697-0.28575-0.31926-0.28575zm-0.24342 0.3422c0.026458-0.1905 0.14817-0.24518 0.2346-0.24518 0.13053 0 0.22401 0.11465 0.20814 0.24518z"/>
    <path d="m1.3902 109.95v0.80609h0.127v-0.39158c0-0.0494 0.00176-0.1023 0.056445-0.18873 0.074083-0.11642 0.16933-0.13582 0.22754-0.13582 0.067028 0 0.10936 0.0318 0.13229 0.06 0.010583 0.0141 0.015875 0.0282 0.029986 0.0406l0.059972-0.12171c-0.051153-0.0529-0.12524-0.0882-0.21519-0.0882-0.11818 0-0.23812 0.06-0.29104 0.17463l0.00529-0.15522z"/>
    <path d="m2.1663 109.95 0.31926 0.81316h0.10054l0.19579-0.46038c0.047625-0.11289 0.093486-0.2293 0.11994-0.35278h-0.11465c-0.021167 0.11818-0.0635 0.22931-0.10936 0.33514l-0.12876 0.29986-0.23283-0.58914c-0.00176-4e-3 -0.00353-7e-3 -0.00353-0.0106 0-0.0106 0.00882-0.0212 0.00529-0.0353z"/>
    <path d="m3.4345 109.93c-0.19226 0-0.37042 0.13759-0.37042 0.43039 0 0.26988 0.16757 0.41275 0.38629 0.41275 0.11642 0 0.22049-0.0423 0.28928-0.12523l-0.070556-0.0688c-0.051153 0.06-0.12876 0.0917-0.20814 0.0917-0.1076 0-0.26458-0.06-0.2734-0.30163h0.5715c0.00529-0.0547 0.00353-0.10759-0.00529-0.15346-0.037042-0.21695-0.18697-0.28575-0.31926-0.28575zm-0.24342 0.3422c0.026458-0.1905 0.14817-0.24518 0.2346-0.24518 0.13053 0 0.22401 0.11465 0.20814 0.24518z"/>
    <path d="m4.036 109.95v0.80609h0.127v-0.39158c0-0.0494 0.00176-0.1023 0.056444-0.18873 0.074083-0.11642 0.16933-0.13582 0.22754-0.13582 0.067028 0 0.10936 0.0318 0.13229 0.06 0.010583 0.0141 0.015875 0.0282 0.029986 0.0406l0.059972-0.12171c-0.051153-0.0529-0.12524-0.0882-0.21519-0.0882-0.11818 0-0.23812 0.06-0.29104 0.17463l0.00529-0.15522z"/>
   </g>
   <path d="m6.6395 116.49h-2.8928" fill="none" stroke="#e9e56f"/>
  </g>
  <rect x="6.629" y="114.38" width="9.7084" height="4.1487" fill="#3b0d0d" fill-opacity=".38431" stroke="#e96f6f" stroke-width=".084667"/>
  <g fill="#e9e56f" stroke-width=".28222px" aria-label="Network  manager">
   <path d="m8.5094 115.91h0.11818v-0.8643l0.48331 0.86607h0.098778v-1.0548c0-0.0123 0.00176-0.0159 0.00706-0.0247 0.00176-4e-3 0.00529-0.0123 0.00353-0.0212h-0.13053v0.81492l-0.46038-0.81492h-0.11994z"/>
   <path d="m9.7582 115.08c-0.19226 0-0.37042 0.13758-0.37042 0.43039 0 0.26987 0.16757 0.41275 0.38629 0.41275 0.11642 0 0.22049-0.0423 0.28928-0.12524l-0.070555-0.0688c-0.051153 0.06-0.12876 0.0917-0.20814 0.0917-0.1076 0-0.26458-0.06-0.2734-0.30162h0.5715c0.0053-0.0547 0.0035-0.1076-0.0053-0.15346-0.03704-0.21696-0.18697-0.28575-0.31926-0.28575zm-0.24342 0.34219c0.026458-0.1905 0.14817-0.24518 0.2346-0.24518 0.13053 0 0.22401 0.11465 0.20814 0.24518z"/>
   <path d="m10.517 114.89-0.01587 0.21696h-0.19226l-0.0018 0.10407h0.18874c-0.01058 0.13758-0.01587 0.27517-0.01587 0.41099 0 0.0723 0 0.15345 0.04763 0.22048 0.03881 0.0529 0.10054 0.0847 0.18344 0.0847 0.09525 0 0.18874-0.0406 0.25753-0.09l-0.0388-0.10054c-0.06879 0.0511-0.13229 0.0741-0.18168 0.0741-0.05997 0-0.12171-0.0335-0.13582-0.13053 0-7e-3 -0.0053-0.037-0.0053-0.15522 0-0.10407 0.0053-0.2099 0.01587-0.31397h0.26458v-0.10583h-0.26279s0.01235-0.14464 0.02117-0.1905c0.0018-0.0176 0.01587-0.0282 0.0088-0.0476z"/>
   <path d="m11.093 115.1 0.16228 0.80786h0.11465l0.14111-0.52211 0.14993 0.52211h0.11818c0.05468-0.26635 0.10054-0.53623 0.13406-0.8061h-0.11642c0.0035 0.097-0.0053 0.18697-0.07585 0.64558l-0.16933-0.5715h-0.07761l-0.13935 0.57327-0.11642-0.58209c-0.0035-0.0123-0.0035-0.0176 0.0018-0.0317 0.0018-9e-3 0.0071-0.0212 0.0018-0.0353z"/>
   <path d="m12.76 115.51c0-0.27869-0.17639-0.42333-0.35983-0.42333-0.20461 0-0.381 0.17639-0.381 0.42686 0 0.24518 0.17462 0.41804 0.37747 0.41804 0.1905 0 0.36336-0.15345 0.36336-0.42157zm-0.36865-0.31573c0.11642 0 0.23989 0.10054 0.23989 0.32103 0 0.20284-0.11642 0.30515-0.23283 0.30515-0.12876 0-0.24518-0.11995-0.24518-0.31927 0-0.19755 0.11465-0.30691 0.23812-0.30691z"/>
   <path d="m13.006 115.1v0.8061h0.127v-0.39159c0-0.0494 0.0018-0.1023 0.05644-0.18873 0.07408-0.11642 0.16933-0.13582 0.22754-0.13582 0.06703 0 0.10936 0.0317 0.13229 0.06 0.01058 0.0141 0.01587 0.0282 0.02999 0.0406l0.05997-0.12171c-0.05115-0.0529-0.12524-0.0882-0.21519-0.0882-0.11818 0-0.23812 0.06-0.29104 0.17462l0.0053-0.15522z"/>
   <path d="m13.829 114.74v1.173h0.127v-0.30516l0.1076-0.0988 0.32808 0.41098s0.06879-7e-3 0.15169-7e-3h0.01235l-0.39511-0.48154 0.34043-0.31927h-0.04586c-0.03175 0-0.0635-2e-3 -0.09525-0.0106l-0.40393 0.37571v-0.69145c0-7e-3 0.0018-0.0124 0.0071-0.0212 0.0053-5e-3 0.01235-0.0123 0.01058-0.0247z"/>
   <path d="m8.4864 118.11h0.11642v-0.53622c0-0.0388 0.00353-0.0741 0.026458-0.11641 0.028222-0.0529 0.0635-0.0741 0.097014-0.0741 0.028222 0 0.059972 0.0176 0.074083 0.0617 0.010583 0.0335 0.00882 0.0723 0.00882 0.10583v0.55915h0.11818v-0.53269c0-0.0423 0.00353-0.0759 0.033514-0.127 0.014111-0.0212 0.044097-0.0723 0.093486-0.0723 0.026458 0 0.051153 0.0159 0.0635 0.0459 0.015875 0.0335 0.012347 0.0794 0.012347 0.11642v0.5715h0.11994v-0.57327c0-0.067 0.00176-0.13405-0.033514-0.18873-0.029986-0.0459-0.081139-0.0635-0.12524-0.0635-0.077611 0-0.14993 0.0459-0.18168 0.11641-0.012347-0.067-0.068792-0.11641-0.14111-0.11641-0.067028 0-0.12876 0.0423-0.16581 0.0988l0.00176-0.0794h-0.11818z"/>
   <path d="m9.4619 117.4 0.061736 0.0811c0.067028-0.0688 0.15699-0.09 0.23283-0.09 0.09525 0 0.14288 0.0406 0.16581 0.0776 0.026458 0.0441 0.024694 0.097 0.024694 0.13935v0.0282h-0.024694c-0.11994 0-0.24694 0-0.34925 0.037-0.127 0.0459-0.18344 0.14111-0.18344 0.22931 0 0.11818 0.10231 0.2293 0.26988 0.2293 0.098778 0 0.20108-0.037 0.28928-0.10936v0.0882h0.11994v-0.49918c0-0.0653-0.0018-0.127-0.03881-0.1905-0.052916-0.0864-0.15522-0.13229-0.28046-0.13229-0.1076 0-0.21167 0.0335-0.28751 0.11113zm0.49036 0.33337v0.0547c0 0.0406 0 0.0935-0.05468 0.1517-0.029986 0.03-0.10583 0.0953-0.21167 0.0953-0.1076 0-0.16933-0.0688-0.16933-0.13935 0-0.06 0.04057-0.12524 0.14111-0.14993 0.074083-0.0176 0.18168-0.0123 0.26635-0.0123z"/>
   <path d="m10.305 118.11h0.12876v-0.4639c0-0.0529 0.0071-0.0935 0.04057-0.13758 0.02999-0.0406 0.1076-0.11289 0.19226-0.11289 0.04057 0 0.08114 0.0176 0.10936 0.0511 0.0441 0.0529 0.0441 0.12171 0.0441 0.17815v0.48507h0.12524v-0.48859c0-0.0617 0-0.12877-0.02822-0.19403-0.04057-0.09-0.12347-0.14111-0.21519-0.14111-0.10936 0-0.20814 0.0705-0.26811 0.16051v-0.14111h-0.12876z"/>
   <path d="m11.226 117.4 0.06174 0.0811c0.06703-0.0688 0.15699-0.09 0.23283-0.09 0.09525 0 0.14288 0.0406 0.1658 0.0776 0.02646 0.0441 0.02469 0.097 0.02469 0.13935v0.0282h-0.02469c-0.11994 0-0.24694 0-0.34925 0.037-0.127 0.0459-0.18344 0.14111-0.18344 0.22931 0 0.11818 0.1023 0.2293 0.26988 0.2293 0.09878 0 0.20108-0.037 0.28928-0.10936v0.0882h0.11994v-0.49918c0-0.0653-0.0018-0.127-0.03881-0.1905-0.05292-0.0864-0.15522-0.13229-0.28046-0.13229-0.1076 0-0.21167 0.0335-0.28751 0.11113zm0.49036 0.33337v0.0547c0 0.0406 0 0.0935-0.05468 0.1517-0.02999 0.03-0.10583 0.0953-0.21167 0.0953-0.1076 0-0.16933-0.0688-0.16933-0.13935 0-0.06 0.04057-0.12524 0.14111-0.14993 0.07408-0.0176 0.18168-0.0123 0.26635-0.0123z"/>
   <path d="m12.169 117.56c0-0.097 0.08114-0.17639 0.17815-0.17639 0.09878 0 0.17815 0.0794 0.17815 0.17639 0 0.097-0.07937 0.17639-0.17815 0.17639-0.09878 0-0.17815-0.0794-0.17815-0.17639zm0.18521-0.27693c-0.16051 0-0.29986 0.127-0.29986 0.28399 0 0.0882 0.0441 0.1711 0.11818 0.21872-0.05821 0.0494-0.09172 0.10407-0.09172 0.15522 0 0.0335 0.01411 0.0811 0.06526 0.1076-0.08643 0.0547-0.13053 0.11465-0.13053 0.17815 0 0.0882 0.08114 0.19227 0.36336 0.19227 0.2734 0 0.37218-0.13935 0.37218-0.24695 0-0.0706-0.04057-0.14111-0.12524-0.17462-0.08467-0.0353-0.18168-0.0229-0.2734-0.0229-0.05997 0-0.09878-5e-3 -0.11465-0.0106-0.03175-9e-3 -0.04939-0.0282-0.04939-0.0529 0-0.0423 0.04939-0.0829 0.05821-0.09 0.03175 0.0123 0.06703 0.0176 0.1023 0.0176 0.15875 0 0.28928-0.127 0.28928-0.27517 0-0.0494-0.01411-0.097-0.04057-0.13758 0.04233-0.0247 0.09172-0.0388 0.14111-0.0388 0.01588 0 0.02999 2e-3 0.04586 5e-3l-0.01411-0.10407c-0.08114-7e-3 -0.16228 0.0194-0.22401 0.0706-0.05115-0.0494-0.11818-0.0759-0.19226-0.0759zm-0.12171 0.78846c0.02999 4e-3 0.07232 7e-3 0.13406 0.0106 0.05997 2e-3 0.12524-4e-3 0.1711 4e-3 0.07408 0.0123 0.09701 0.0582 0.09701 0.0935s-0.02117 0.0776-0.07585 0.1076c-0.05997 0.0317-0.127 0.0353-0.18168 0.0353-0.03704 0-0.10583-2e-3 -0.16581-0.0265-0.06526-0.0264-0.07938-0.0705-0.07938-0.0988 0-0.0582 0.05468-0.10054 0.10054-0.12524z"/>
   <path d="m13.286 117.29c-0.19226 0-0.37042 0.13758-0.37042 0.43039 0 0.26987 0.16757 0.41275 0.38629 0.41275 0.11642 0 0.22049-0.0423 0.28928-0.12524l-0.07055-0.0688c-0.05115 0.06-0.12876 0.0917-0.20814 0.0917-0.1076 0-0.26458-0.06-0.2734-0.30162h0.5715c0.0053-0.0547 0.0035-0.1076-0.0053-0.15346-0.03704-0.21696-0.18697-0.28575-0.31926-0.28575zm-0.24342 0.34219c0.02646-0.1905 0.14817-0.24518 0.2346-0.24518 0.13053 0 0.22401 0.11465 0.20814 0.24518z"/>
   <path d="m13.887 117.31v0.8061h0.127v-0.39159c0-0.0494 0.0018-0.1023 0.05644-0.18873 0.07408-0.11642 0.16933-0.13582 0.22754-0.13582 0.06703 0 0.10936 0.0318 0.13229 0.06 0.01058 0.0141 0.01587 0.0282 0.02999 0.0406l0.05997-0.12171c-0.05115-0.0529-0.12524-0.0882-0.2152-0.0882-0.11818 0-0.23812 0.06-0.29104 0.17462l0.0053-0.15522z"/>
  </g>
  <path d="m-3.2427 118.51v2.615" fill="none" stroke="#e9e56f" stroke-width=".28222px"/>
  <rect x="-10.274" y="114.39" width="13.993" height="4.1405" fill="none" stroke="#e9e56f" stroke-width=".091691"/>
  <g fill="#e9e56f" stroke-width=".28222px" aria-label="NetworkHost">
   <path d="m-7.7397 116.99h0.11818v-0.86431l0.48331 0.86607h0.098778v-1.0548c0-0.0123 0.00176-0.0159 0.00706-0.0247 0.00176-4e-3 0.00529-0.0123 0.00353-0.0212h-0.13053v0.81492l-0.46038-0.81492h-0.11994z"/>
   <path d="m-6.4908 116.16c-0.19226 0-0.37042 0.13758-0.37042 0.43039 0 0.26987 0.16757 0.41275 0.38629 0.41275 0.11642 0 0.22049-0.0423 0.28928-0.12524l-0.070556-0.0688c-0.051153 0.06-0.12876 0.0917-0.20814 0.0917-0.1076 0-0.26458-0.06-0.2734-0.30162h0.5715c0.00529-0.0547 0.00353-0.1076-0.00529-0.15346-0.037042-0.21696-0.18697-0.28575-0.31926-0.28575zm-0.24342 0.34219c0.026458-0.1905 0.14817-0.24518 0.2346-0.24518 0.13053 0 0.22401 0.11466 0.20814 0.24518z"/>
   <path d="m-5.7324 115.97-0.015875 0.21696h-0.19226l-0.00176 0.10407h0.18874c-0.010583 0.13759-0.015875 0.27517-0.015875 0.41099 0 0.0723 0 0.15346 0.047625 0.22048 0.038806 0.0529 0.10054 0.0847 0.18344 0.0847 0.09525 0 0.18874-0.0406 0.25753-0.09l-0.038806-0.10054c-0.068792 0.0511-0.13229 0.0741-0.18168 0.0741-0.059972 0-0.12171-0.0335-0.13582-0.13052 0-7e-3 -0.00529-0.037-0.00529-0.15523 0-0.10406 0.00529-0.2099 0.015875-0.31397h0.26458v-0.10583h-0.26282s0.012347-0.14464 0.021167-0.1905c0.00176-0.0176 0.015875-0.0282 0.00882-0.0476z"/>
   <path d="m-5.1556 116.18 0.16228 0.80786h0.11465l0.14111-0.52211 0.14993 0.52211h0.11818c0.05468-0.26635 0.10054-0.53622 0.13406-0.8061h-0.11642c0.00353 0.097-0.00529 0.18698-0.075847 0.64559l-0.16933-0.5715h-0.077611l-0.13935 0.57326-0.11642-0.58208c-0.00353-0.0123-0.00353-0.0176 0.00176-0.0318 0.00176-9e-3 0.00706-0.0212 0.00176-0.0353z"/>
   <path d="m-3.4887 116.59c0-0.2787-0.17639-0.42334-0.35983-0.42334-0.20461 0-0.381 0.17639-0.381 0.42687 0 0.24518 0.17462 0.41804 0.37747 0.41804 0.1905 0 0.36336-0.15346 0.36336-0.42157zm-0.36865-0.31574c0.11642 0 0.23989 0.10054 0.23989 0.32103 0 0.20285-0.11642 0.30515-0.23283 0.30515-0.12876 0-0.24518-0.11994-0.24518-0.31926 0-0.19756 0.11465-0.30692 0.23812-0.30692z"/>
   <path d="m-3.2435 116.18v0.8061h0.127v-0.39158c0-0.0494 0.00176-0.10231 0.056444-0.18874 0.074083-0.11642 0.16933-0.13582 0.22754-0.13582 0.067028 0 0.10936 0.0318 0.13229 0.06 0.010583 0.0141 0.015875 0.0282 0.029986 0.0406l0.059972-0.12171c-0.051153-0.0529-0.12524-0.0882-0.21519-0.0882-0.11818 0-0.23813 0.06-0.29104 0.17463l0.00529-0.15523z"/>
   <path d="m-2.4198 115.82v1.173h0.127v-0.30515l0.1076-0.0988 0.32808 0.41099s0.068792-7e-3 0.15169-7e-3h0.012347l-0.39511-0.48154 0.34043-0.31927h-0.045861c-0.03175 0-0.0635-2e-3 -0.09525-0.0106l-0.40393 0.37571v-0.69144c0-7e-3 0.00176-0.0123 0.00706-0.0212 0.00529-5e-3 0.012347-0.0123 0.010583-0.0247z"/>
   <path d="m-1.559 115.89v1.0989h0.127v-0.52211h0.43039v0.52387h0.12347v-1.0601c0-0.0194 0.014111-0.0194 0.014111-0.0318 0-4e-3 -0.001764-5e-3 -0.001764-9e-3h-0.13406v0.47096h-0.43215v-0.42686c0-0.0194 0.012347-0.0212 0.012347-0.0353 0-4e-3 -0.00176-5e-3 -0.00176-9e-3z"/>
   <path d="m0.039089 116.59c0-0.2787-0.17639-0.42334-0.35983-0.42334-0.20461 0-0.381 0.17639-0.381 0.42687 0 0.24518 0.17463 0.41804 0.37747 0.41804 0.1905 0 0.36336-0.15346 0.36336-0.42157zm-0.36865-0.31574c0.11642 0 0.23989 0.10054 0.23989 0.32103 0 0.20285-0.11642 0.30515-0.23283 0.30515-0.12876 0-0.24518-0.11994-0.24518-0.31926 0-0.19756 0.11465-0.30692 0.23812-0.30692z"/>
   <path d="m0.87164 116.29c-0.074083-0.0811-0.18168-0.12524-0.30163-0.12524-0.18697 0-0.30868 0.10407-0.30868 0.22401 0 0.14112 0.15169 0.19227 0.19579 0.20814 0.068792 0.0247 0.15699 0.0459 0.21696 0.0741 0.067028 0.0318 0.079375 0.0741 0.079375 0.1023 0 0.0759-0.091722 0.127-0.20638 0.127-0.13758 0-0.22578-0.0829-0.25224-0.11112-0.005292-7e-3 -0.005292-0.0123-0.005292-0.0194 0-2e-3 0.001764-0.0123-0.007056-0.0159l-0.074083 0.12524c0.09525 0.0882 0.21872 0.12876 0.34043 0.12876 0.22049 0 0.33514-0.13053 0.33514-0.25224 0-0.0547-0.02293-0.12876-0.11818-0.18168-0.089958-0.0511-0.22049-0.0688-0.29633-0.10583-0.065264-0.0318-0.079375-0.0706-0.079375-0.0988 0-0.0635 0.079375-0.10936 0.16933-0.10936 0.11642 0 0.19403 0.0706 0.22401 0.11113 0.005292 5e-3 0.003528 0.0106 0.003528 0.0159 0 0.0106 0.007056 0.0141 0.010583 0.0141z"/>
   <path d="m1.3232 115.97-0.015875 0.21696h-0.19226l-0.00176 0.10407h0.18873c-0.010583 0.13759-0.015875 0.27517-0.015875 0.41099 0 0.0723 0 0.15346 0.047625 0.22048 0.038806 0.0529 0.10054 0.0847 0.18344 0.0847 0.09525 0 0.18874-0.0406 0.25753-0.09l-0.038806-0.10054c-0.068792 0.0511-0.13229 0.0741-0.18168 0.0741-0.059972 0-0.12171-0.0335-0.13582-0.13052 0-7e-3 -0.00529-0.037-0.00529-0.15523 0-0.10406 0.00529-0.2099 0.015875-0.31397h0.26458v-0.10584h-0.26282s0.012347-0.14464 0.021167-0.1905c0.00176-0.0176 0.015875-0.0282 0.00882-0.0476z"/>
  </g>
  <rect x="-10.274" y="121.16" width="14.019" height="2.6948" fill="#0d3b1b" fill-opacity=".38431" stroke="#6fe994" stroke-width=".091691"/>
  <g fill="#e9e56f" stroke-width=".28222px" aria-label="Sync Component">
   <path d="m-8.567 121.96c-0.074083-0.09-0.18344-0.13758-0.30339-0.13758-0.19932 0-0.33514 0.13053-0.33514 0.28222 0 0.0635 0.024694 0.1464 0.11642 0.21343 0.10231 0.0759 0.26106 0.11289 0.34396 0.16581 0.07232 0.0441 0.091722 0.1023 0.091722 0.15169 0 0.0953-0.081139 0.19932-0.23989 0.19932-0.11994 0-0.21343-0.06-0.26282-0.12171-0.00529-7e-3 -0.00529-0.0106-0.00529-0.0176 0-4e-3 0-0.0141-0.00706-0.0176l-0.074083 0.127c0.086431 0.0935 0.2099 0.14112 0.34572 0.14112 0.26811 0 0.36689-0.17992 0.36689-0.3175 0-0.0582-0.017639-0.13406-0.086431-0.19932-0.09525-0.09-0.25047-0.12171-0.35101-0.17992-0.091722-0.0547-0.11112-0.11994-0.11112-0.16404 0-0.0847 0.072319-0.16052 0.19756-0.16052 0.10231 0 0.18168 0.0459 0.22401 0.1076 0.00529 7e-3 0.00353 0.0106 0.00353 0.0176 0 0.0106 0.00529 0.0141 0.00882 0.0141z"/>
   <path d="m-8.3712 122.13 0.32808 0.80257-0.026458 0.0582c-0.014111 0.0335-0.029986 0.067-0.054681 0.0935-0.033514 0.037-0.075847 0.0529-0.11289 0.0529-0.059972 0-0.089958-0.0406-0.09525-0.0476-0.00529-9e-3 -0.00353-0.0212-0.014111-0.03l-0.065264 0.11465c0.045861 0.0441 0.1076 0.067 0.17462 0.067 0.072319 0 0.14817-0.0265 0.20108-0.0864 0.035278-0.0406 0.052917-0.0829 0.070555-0.12876l0.25047-0.66499c0.029986-0.0759 0.056444-0.15346 0.081139-0.23283h-0.13229c-0.014111 0.0741-0.037042 0.14463-0.061736 0.21519l-0.15346 0.43215-0.23636-0.59443c-0.00176-5e-3 -0.00176-9e-3 -0.00176-0.0141 0-0.0123 0.00882-0.0212 0.00706-0.037z"/>
   <path d="m-7.4487 122.93h0.12876v-0.4639c0-0.0529 0.00706-0.0935 0.040569-0.13758 0.029986-0.0406 0.1076-0.11289 0.19226-0.11289 0.04057 0 0.081139 0.0176 0.10936 0.0511 0.044097 0.0529 0.044097 0.12171 0.044097 0.17815v0.48507h0.12524v-0.48859c0-0.0617 0-0.12877-0.028222-0.19403-0.04057-0.09-0.12347-0.14111-0.21519-0.14111-0.10936 0-0.20814 0.0706-0.26811 0.16051v-0.14111h-0.12876z"/>
   <path d="m-5.8823 122.26c-0.0635-0.0935-0.1711-0.14993-0.30162-0.14993-0.23636 0-0.40393 0.17815-0.40393 0.41981 0 0.24341 0.16757 0.42333 0.39688 0.42333 0.11112 0 0.22049-0.0459 0.29633-0.12876l-0.072319-0.0847c-0.054681 0.0617-0.13406 0.097-0.21343 0.097-0.15699 0-0.27693-0.13052-0.27693-0.31926 0-0.18345 0.11818-0.2981 0.26635-0.2981 0.13758 0 0.20285 0.0953 0.20814 0.10584 0.00706 0.0123-0.00353 0.03 0.010583 0.0406z"/>
   <path d="m-4.4342 121.82c-0.1711 0-0.41804 0.12524-0.41804 0.56621 0 0.42333 0.23636 0.56092 0.41804 0.56092 0.13053 0 0.25224-0.0688 0.32103-0.18168l-0.089958-0.0582c-0.051153 0.0829-0.13935 0.13229-0.22401 0.13229-0.16228 0-0.30515-0.16757-0.30515-0.46567 0-0.29104 0.13935-0.45508 0.29457-0.45508 0.084667 0 0.16581 0.0512 0.2099 0.12876 0.00353 5e-3 0.00706 0.0106 0.00706 0.0176 0 5e-3 -0.00176 9e-3 -0.00176 0.0141 0 2e-3 0 0.0106 0.00882 0.0159l0.11642-0.0564c-0.058208-0.13229-0.1905-0.21872-0.3369-0.21872z"/>
   <path d="m-3.2294 122.53c0-0.27869-0.17639-0.42333-0.35983-0.42333-0.20461 0-0.381 0.17639-0.381 0.42686 0 0.24518 0.17462 0.41804 0.37747 0.41804 0.1905 0 0.36336-0.15345 0.36336-0.42157zm-0.36865-0.31573c0.11642 0 0.23989 0.10054 0.23989 0.32103 0 0.20284-0.11642 0.30515-0.23283 0.30515-0.12876 0-0.24518-0.11995-0.24518-0.31927 0-0.19755 0.11465-0.30691 0.23812-0.30691z"/>
   <path d="m-3.0936 122.93h0.11642v-0.53622c0-0.0388 0.00353-0.0741 0.026458-0.11642 0.028222-0.0529 0.0635-0.0741 0.097014-0.0741 0.028222 0 0.059972 0.0176 0.074083 0.0617 0.010583 0.0335 0.00882 0.0723 0.00882 0.10583v0.55915h0.11818v-0.53269c0-0.0423 0.00353-0.0759 0.033514-0.127 0.014111-0.0212 0.044097-0.0723 0.093486-0.0723 0.026458 0 0.051153 0.0159 0.0635 0.0459 0.015875 0.0335 0.012347 0.0794 0.012347 0.11642v0.5715h0.11994v-0.57327c0-0.067 0.00176-0.13405-0.033514-0.18873-0.029986-0.0459-0.081139-0.0635-0.12524-0.0635-0.077611 0-0.14993 0.0459-0.18168 0.11641-0.012347-0.067-0.068792-0.11641-0.14111-0.11641-0.067028 0-0.12876 0.0423-0.16581 0.0988l0.00176-0.0794h-0.11818z"/>
   <path d="m-2.1729 122.13 0.00176 1.0989h0.12876v-0.4004c0.054681 0.0794 0.14464 0.12876 0.24165 0.12876 0.16581 0 0.33867-0.13934 0.33867-0.43391 0-0.28399-0.16757-0.41099-0.32632-0.41099-0.10407 0-0.20108 0.0529-0.25576 0.14111v-0.12347zm0.3369 0.09c0.070556 0 0.24165 0.037 0.24165 0.32985 0 0.254-0.16581 0.29456-0.24165 0.29456-0.075847 0-0.15346-0.0388-0.18521-0.11112-0.02293-0.0547-0.02293-0.12171-0.02293-0.23813 0-0.067 0.00353-0.11641 0.021167-0.15875 0.03175-0.0723 0.10583-0.11641 0.18697-0.11641z"/>
   <path d="m-0.58361 122.53c0-0.27869-0.17639-0.42333-0.35983-0.42333-0.20461 0-0.381 0.17639-0.381 0.42686 0 0.24518 0.17462 0.41804 0.37747 0.41804 0.1905 0 0.36336-0.15345 0.36336-0.42157zm-0.36865-0.31573c0.11642 0 0.23989 0.10054 0.23989 0.32103 0 0.20284-0.11642 0.30515-0.23283 0.30515-0.12876 0-0.24518-0.11995-0.24518-0.31927 0-0.19755 0.11465-0.30691 0.23812-0.30691z"/>
   <path d="m-0.39311 122.93h0.12876v-0.4639c0-0.0529 0.007056-0.0935 0.040569-0.13758 0.029986-0.0406 0.1076-0.11289 0.19226-0.11289 0.040569 0 0.081139 0.0176 0.10936 0.0511 0.044097 0.0529 0.044097 0.12171 0.044097 0.17815v0.48507h0.12524v-0.48859c0-0.0617 0-0.12877-0.028222-0.19403-0.040569-0.09-0.12347-0.14111-0.21519-0.14111-0.10936 0-0.20814 0.0706-0.26811 0.16051v-0.14111h-0.12876z"/>
   <path d="m0.82397 122.11c-0.19226 0-0.37042 0.13758-0.37042 0.43039 0 0.26987 0.16757 0.41275 0.38629 0.41275 0.11642 0 0.22049-0.0423 0.28928-0.12524l-0.070556-0.0688c-0.051153 0.06-0.12876 0.0917-0.20814 0.0917-0.1076 0-0.26458-0.06-0.2734-0.30162h0.5715c0.00529-0.0547 0.00353-0.1076-0.00529-0.15346-0.037042-0.21696-0.18697-0.28575-0.31926-0.28575zm-0.24342 0.34219c0.026458-0.1905 0.14817-0.24518 0.2346-0.24518 0.13053 0 0.22401 0.11465 0.20814 0.24518z"/>
   <path d="m1.3708 122.93h0.12876v-0.4639c0-0.0529 0.00706-0.0935 0.040569-0.13758 0.029986-0.0406 0.1076-0.11289 0.19226-0.11289 0.040569 0 0.081139 0.0176 0.10936 0.0511 0.044097 0.0529 0.044097 0.12171 0.044097 0.17815v0.48507h0.12524v-0.48859c0-0.0617 0-0.12877-0.028222-0.19403-0.040569-0.09-0.12347-0.14111-0.21519-0.14111-0.10936 0-0.20814 0.0706-0.26811 0.16051v-0.14111h-0.12876z"/>
   <path d="m2.4644 121.91-0.015875 0.21696h-0.19226l-0.00176 0.10407h0.18874c-0.010583 0.13758-0.015875 0.27517-0.015875 0.41099 0 0.0723 0 0.15345 0.047625 0.22048 0.038805 0.0529 0.10054 0.0847 0.18344 0.0847 0.09525 0 0.18874-0.0406 0.25753-0.09l-0.038805-0.10054c-0.068792 0.0511-0.13229 0.0741-0.18168 0.0741-0.059972 0-0.12171-0.0335-0.13582-0.13053 0-7e-3 -0.00529-0.037-0.00529-0.15522 0-0.10407 0.00529-0.2099 0.015875-0.31397h0.26458v-0.10584h-0.26282s0.012347-0.14464 0.021167-0.1905c0.00176-0.0176 0.015875-0.0282 0.00882-0.0476z"/>
  </g>
  <path d="m45.767 116.49h-2.9302" fill="none" stroke="#e9e56f" stroke-width=".28222px"/>
  <rect x="19.839" y="114.89" width="9.7989" height="2.7011" fill="#0d0f3b" fill-opacity=".38431" stroke="#6f75e9" stroke-width=".079022"/>
  <g fill="#e9e56f" stroke-width=".28222px" aria-label="UDP Mock">
   <path d="m21.326 115.67v0.72143c0 0.0776 0.0018 0.15169 0.04233 0.22754 0.05997 0.11289 0.18344 0.1711 0.31221 0.1711 0.127 0 0.25047-0.0564 0.31221-0.17286 0.04233-0.0758 0.0441-0.1517 0.0441-0.23284v-0.71437h-0.11642v0.7179c0 0.0564-0.0018 0.11113-0.02822 0.16757-0.04057 0.0847-0.12347 0.12877-0.2099 0.12877-0.08643 0-0.16933-0.0459-0.20814-0.13053-0.02646-0.0529-0.02646-0.1076-0.02646-0.16228v-0.66499c0-7e-3 0-0.0141 0.0071-0.0229 0.0035-5e-3 0.01058-0.0141 0.01058-0.0247 0-2e-3 0-5e-3 -0.0018-9e-3z"/>
   <path d="m22.214 115.67v1.1007h0.23636c0.08643 0 0.16051-4e-3 0.23812-0.0441 0.15699-0.0811 0.24342-0.26811 0.24342-0.508 0-0.21167-0.0635-0.39688-0.20461-0.4886-0.07937-0.0529-0.15875-0.06-0.25576-0.06zm0.11642 0.10583h0.13406c0.06879 0 0.13758 4e-3 0.20638 0.06 0.1023 0.0847 0.13582 0.24165 0.13582 0.39863 0 0.20991-0.06879 0.32985-0.15699 0.38982-0.06879 0.0459-0.13758 0.0494-0.20638 0.0494h-0.11289z"/>
   <path d="m23.104 115.67v1.0989h0.12876v-0.48507h0.2152c0.06879 0 0.13406-2e-3 0.20108-0.0353 0.10231-0.0512 0.15522-0.15699 0.15522-0.26812 0-0.11112-0.05292-0.21872-0.15699-0.27163-0.06879-0.037-0.13758-0.0388-0.20814-0.0388zm0.12876 0.11642h0.20638c0.04586 0 0.08996 2e-3 0.13582 0.0229 0.06703 0.0353 0.10407 0.10583 0.10407 0.17639 0 0.0705-0.03528 0.13582-0.09878 0.16757-0.04233 0.0212-0.08467 0.0229-0.127 0.0229h-0.22225z"/>
   <path d="m24.837 115.67v1.1007h0.11642v-0.82374l0.22225 0.43568h0.04586l0.23812-0.44274v0.8308h0.11642v-1.1007h-0.09172l-0.27693 0.53799-0.2734-0.53799z"/>
   <path d="m26.459 116.37c0-0.27869-0.17639-0.42333-0.35983-0.42333-0.20461 0-0.381 0.17639-0.381 0.42686 0 0.24518 0.17462 0.41804 0.37747 0.41804 0.1905 0 0.36336-0.15346 0.36336-0.42157zm-0.36865-0.31573c0.11642 0 0.23989 0.10054 0.23989 0.32103 0 0.20284-0.11642 0.30515-0.23283 0.30515-0.12876 0-0.24518-0.11995-0.24518-0.31927 0-0.19755 0.11465-0.30691 0.23812-0.30691z"/>
   <path d="m27.334 116.1c-0.0635-0.0935-0.1711-0.14993-0.30162-0.14993-0.23636 0-0.40393 0.17815-0.40393 0.41981 0 0.24341 0.16757 0.42333 0.39688 0.42333 0.11112 0 0.22049-0.0459 0.29633-0.12876l-0.07232-0.0847c-0.05468 0.0617-0.13406 0.097-0.21343 0.097-0.15699 0-0.27693-0.13053-0.27693-0.31926 0-0.18345 0.11818-0.2981 0.26635-0.2981 0.13758 0 0.20285 0.0953 0.20814 0.10583 0.0071 0.0123-0.0035 0.03 0.01058 0.0406z"/>
   <path d="m27.528 115.6v1.173h0.127v-0.30516l0.1076-0.0988 0.32808 0.41098s0.06879-7e-3 0.1517-7e-3h0.01235l-0.39511-0.48155 0.34043-0.31926h-0.04586c-0.03175 0-0.0635-2e-3 -0.09525-0.0106l-0.40393 0.37571v-0.69145c0-7e-3 0.0018-0.0123 0.0071-0.0212 0.0053-5e-3 0.01235-0.0123 0.01058-0.0247z"/>
  </g>
  <g fill="none" stroke="#e9e56f">
   <path d="m61.658 122.31h-1.8884" stroke-width=".28222px"/>
   <path d="m19.803 116.49h-3.4261" stroke-width=".28222px"/>
   <path d="m33.046 116.49h-3.3647" stroke-width=".28222px"/>
   <path d="m6.6395 122.58h-2.8928" stroke-width=".28222px"/>
  </g>
  <rect x="6.629" y="120.47" width="9.7084" height="4.1487" fill="#3b0d0d" fill-opacity=".38431" stroke="#e96f6f" stroke-width=".084667"/>
  <g fill="#e9e56f" stroke-width=".28222px" aria-label="Model">
   <path d="m9.2855 121.95v1.1007h0.11642v-0.82374l0.22225 0.43568h0.045861l0.23812-0.44273v0.83079h0.11642v-1.1007h-0.091722l-0.27693 0.53799-0.2734-0.53799z"/>
   <path d="m10.908 122.65c0-0.27869-0.17639-0.42333-0.35983-0.42333-0.20461 0-0.381 0.17639-0.381 0.42686 0 0.24518 0.17463 0.41804 0.37747 0.41804 0.1905 0 0.36336-0.15345 0.36336-0.42157zm-0.36865-0.31573c0.11642 0 0.23989 0.10054 0.23989 0.32103 0 0.20284-0.11642 0.30515-0.23283 0.30515-0.12876 0-0.24518-0.11995-0.24518-0.31926 0-0.19756 0.11465-0.30692 0.23812-0.30692z"/>
   <path d="m11.633 122.36c-0.0388-0.0829-0.12524-0.13759-0.23636-0.13759-0.15346 0-0.34043 0.10936-0.34043 0.41628 0 0.2981 0.1658 0.42863 0.32103 0.42863 0.10231 0 0.19756-0.0582 0.24871-0.14817v0.0706c0 0.0194 0.0018 0.0388 0.0071 0.0582h0.127c-0.0071-0.0229-0.0071-0.0494-0.0071-0.0741l-0.0018-1.0478c0-0.0106 0-0.0141 0.0071-0.0247 0.0035-5e-3 0.01058-0.0141 0.0088-0.0265h-0.13406zm-0.23107-0.0335c0.07056 0 0.17462 0.037 0.20638 0.15699 0.01058 0.037 0.01411 0.0811 0.01411 0.1711 0 0.0617-0.0035 0.10583-0.01764 0.14816-0.02999 0.0952-0.11465 0.1517-0.19756 0.1517-0.09172 0-0.22754-0.0706-0.22754-0.33514 0-0.23107 0.12876-0.29281 0.22225-0.29281z"/>
   <path d="m12.316 122.23c-0.19226 0-0.37042 0.13758-0.37042 0.43039 0 0.26987 0.16757 0.41275 0.38629 0.41275 0.11642 0 0.22049-0.0423 0.28928-0.12524l-0.07056-0.0688c-0.05115 0.06-0.12876 0.0917-0.20814 0.0917-0.1076 0-0.26458-0.06-0.2734-0.30162h0.5715c0.0053-0.0547 0.0035-0.1076-0.0053-0.15346-0.03704-0.21696-0.18697-0.28575-0.31926-0.28575zm-0.24342 0.34219c0.02646-0.1905 0.14817-0.24518 0.2346-0.24518 0.13053 0 0.22401 0.11465 0.20814 0.24518z"/>
   <path d="m12.891 121.88v0.10231h0.22931v0.96837h-0.23989v0.10054h0.60501v-0.10054h-0.23812v-1.0707z"/>
  </g>
  <rect x="33.087" y="120.2" width="9.7084" height="4.1487" fill="#3b0d0d" fill-opacity=".38431" stroke="#e96f6f" stroke-width=".084667"/>
  <g fill="#e9e56f" stroke-width=".28222px" aria-label="Model">
   <path d="m35.744 121.69v1.1007h0.11642v-0.82374l0.22225 0.43568h0.04586l0.23812-0.44273v0.83079h0.11642v-1.1007h-0.09172l-0.27693 0.53799-0.2734-0.53799z"/>
   <path d="m37.367 122.39c0-0.2787-0.17639-0.42334-0.35983-0.42334-0.20461 0-0.381 0.17639-0.381 0.42687 0 0.24518 0.17462 0.41804 0.37747 0.41804 0.1905 0 0.36336-0.15346 0.36336-0.42157zm-0.36865-0.31574c0.11642 0 0.23989 0.10054 0.23989 0.32103 0 0.20285-0.11642 0.30515-0.23283 0.30515-0.12876 0-0.24518-0.11994-0.24518-0.31926 0-0.19756 0.11465-0.30692 0.23812-0.30692z"/>
   <path d="m38.092 122.1c-0.0388-0.0829-0.12524-0.13758-0.23636-0.13758-0.15346 0-0.34043 0.10936-0.34043 0.41627 0 0.2981 0.1658 0.42863 0.32103 0.42863 0.10231 0 0.19756-0.0582 0.24871-0.14817v0.0706c0 0.0194 0.0018 0.0388 0.0071 0.0582h0.127c-0.0071-0.0229-0.0071-0.0494-0.0071-0.0741l-0.0018-1.0478c0-0.0106 0-0.0141 0.0071-0.0247 0.0035-5e-3 0.01058-0.0141 0.0088-0.0265h-0.13406zm-0.23107-0.0335c0.07055 0 0.17462 0.037 0.20638 0.15698 0.01058 0.037 0.01411 0.0811 0.01411 0.1711 0 0.0617-0.0035 0.10583-0.01764 0.14817-0.02999 0.0953-0.11465 0.15169-0.19756 0.15169-0.09172 0-0.22754-0.0706-0.22754-0.33514 0-0.23107 0.12876-0.2928 0.22225-0.2928z"/>
   <path d="m38.774 121.96c-0.19226 0-0.37042 0.13758-0.37042 0.43039 0 0.26987 0.16757 0.41275 0.38629 0.41275 0.11642 0 0.22049-0.0423 0.28928-0.12524l-0.07055-0.0688c-0.05115 0.06-0.12876 0.0917-0.20814 0.0917-0.1076 0-0.26458-0.06-0.2734-0.30162h0.5715c0.0053-0.0547 0.0035-0.1076-0.0053-0.15346-0.03704-0.21696-0.18697-0.28575-0.31926-0.28575zm-0.24342 0.34219c0.02646-0.1905 0.14817-0.24518 0.2346-0.24518 0.13053 0 0.22401 0.11466 0.20814 0.24518z"/>
   <path d="m39.349 121.62v0.10231h0.22931v0.96837h-0.23989v0.10055h0.60501v-0.10055h-0.23812v-1.0707z"/>
  </g>
  <path d="m45.767 122.31h-2.9302" fill="none" stroke="#e9e56f" stroke-width=".28222px"/>
 </g>
</svg>
