<svg width="66.394mm" height="41.456mm" version="1.1" viewBox="0 0 66.394 41.456" xmlns="http://www.w3.org/2000/svg">
 <g transform="translate(-15.361 -106.78)">
  <g fill-opacity=".38431">
   <rect x="23.505" y="115.91" width="56.312" height="31.196" fill="#3b390d"/>
   <rect x="16.45" y="115.91" width="6.9667" height="31.132" fill="#0d0f3b"/>
   <rect x="16.477" y="110.91" width="63.384" height="5.0464" fill="#0d0f3b"/>
  </g>
  <g fill="none" stroke="#e9e56f">
   <g stroke-width=".09525">
    <path d="m16.438 110.91h63.366"/>
    <path d="m16.438 115.99h63.424"/>
    <path d="m16.438 120.35h63.366"/>
    <path d="m16.438 124.79h63.366"/>
    <path d="m16.438 129.23h63.366"/>
   </g>
   <path d="m16.41 147.24v-36.287" stroke-width=".09813"/>
   <path d="m23.447 147.2v-36.287" stroke-width=".09813"/>
   <path d="m16.438 133.66h63.366" stroke-width=".09525"/>
  </g>
  <g transform="scale(1.0015 .99852)" fill="#fff" stroke-width=".28222px" aria-label="Bit">
   <path d="m18.302 113.04v1.508h0.42601c0.10166 0 0.20574 0 0.30982-0.0436 0.16217-0.0702 0.25173-0.21784 0.25173-0.37276 0-0.17669-0.11376-0.33402-0.28078-0.38969 0.13313-0.0557 0.22268-0.1888 0.22268-0.33161 0-0.13555-0.07746-0.26625-0.22026-0.32677-0.0944-0.0411-0.1888-0.0436-0.28078-0.0436zm0.16701 0.14522h0.23721c0.06535 0 0.13313 0 0.2009 0.0266 0.09924 0.0412 0.15249 0.12587 0.15249 0.213 0 0.0871-0.05083 0.16944-0.14523 0.21058-0.07019 0.029-0.14281 0.029-0.21058 0.029h-0.23479zm0 0.62207h0.24689c0.07503 0 0.15007 2e-3 0.22511 0.0387 0.11134 0.0508 0.17185 0.15975 0.17185 0.26867s-0.05809 0.20816-0.16217 0.25657c-0.06535 0.029-0.12829 0.029-0.19364 0.029h-0.28804z"/>
   <path d="m19.653 113.44v0.1428h0.26625v0.82539h-0.28078v0.13797h0.71646v-0.13797h-0.25899v-0.96819zm0.35823-0.47926c-0.07019 0-0.12586 0.0557-0.12586 0.12344 0 0.0678 0.05567 0.12345 0.12586 0.12345 0.07019 0 0.12587-0.0557 0.12587-0.12345 0-0.0678-0.05567-0.12344-0.12587-0.12344z"/>
   <path d="m21.061 113.15-0.02178 0.29772h-0.26383l-0.0024 0.14281h0.25899c-0.01452 0.18879-0.02178 0.37759-0.02178 0.56397 0 0.0992 0 0.21058 0.06535 0.30256 0.05325 0.0726 0.13797 0.11618 0.25173 0.11618 0.13071 0 0.25899-0.0557 0.35339-0.12344l-0.05325-0.13797c-0.0944 0.0702-0.18154 0.10166-0.24931 0.10166-0.0823 0-0.16701-0.046-0.18638-0.17912 0-0.01-0.0073-0.0508-0.0073-0.213 0-0.14281 0.0073-0.28804 0.02178-0.43084h0.36307v-0.14523h-0.36065s0.01694-0.19848 0.02905-0.26142c0.0024-0.0242 0.02178-0.0387 0.0121-0.0654z"/>
  </g>
  <g transform="scale(1.0015 .99852)" fill="#e9e56f" stroke-width=".28222px" aria-label="Sync ID">
   <path d="m32.783 117.76c-0.10166-0.12344-0.25173-0.18879-0.41632-0.18879-0.27352 0-0.45989 0.17911-0.45989 0.38727 0 0.0871 0.03389 0.2009 0.15975 0.29288 0.14039 0.10408 0.35823 0.15491 0.472 0.22753 0.09924 0.0605 0.12586 0.14039 0.12586 0.20816 0 0.13071-0.11134 0.27351-0.32919 0.27351-0.16459 0-0.29288-0.0823-0.36065-0.16701-0.0073-0.01-0.0073-0.0145-0.0073-0.0242 0-5e-3 0-0.0194-0.0097-0.0242l-0.10166 0.17428c0.1186 0.12828 0.28804 0.19363 0.47442 0.19363 0.36791 0 0.50346-0.24688 0.50346-0.43568 0-0.0799-0.02421-0.18396-0.1186-0.27352-0.13071-0.12344-0.34371-0.16701-0.48168-0.24689-0.12587-0.075-0.15249-0.16459-0.15249-0.2251 0-0.11619 0.09924-0.22027 0.27109-0.22027 0.14039 0 0.24931 0.0629 0.3074 0.14765 0.0073 0.01 0.0048 0.0145 0.0048 0.0242 0 0.0145 0.0073 0.0194 0.0121 0.0194z"/>
   <path d="m33.051 117.98 0.45021 1.1013-0.03631 0.0799c-0.01936 0.046-0.04115 0.092-0.07503 0.12828-0.04599 0.0508-0.10408 0.0726-0.15491 0.0726-0.0823 0-0.12344-0.0557-0.13071-0.0654-0.0073-0.0121-0.0048-0.029-0.01936-0.0412l-0.08956 0.15734c0.06293 0.0605 0.14765 0.092 0.23963 0.092 0.09924 0 0.20332-0.0363 0.27594-0.1186 0.04841-0.0557 0.07261-0.11376 0.09682-0.1767l0.34371-0.91252c0.04115-0.10408 0.07746-0.21058 0.11134-0.3195h-0.18154c-0.01936 0.10166-0.05083 0.19848-0.08472 0.2953l-0.21058 0.59302-0.32434-0.81571c-0.0024-7e-3 -0.0024-0.0121-0.0024-0.0194 0-0.0169 0.0121-0.029 0.0097-0.0508z"/>
   <path d="m34.317 119.08h0.1767v-0.63659c0-0.0726 0.0097-0.12828 0.05567-0.1888 0.04115-0.0557 0.14765-0.15491 0.26383-0.15491 0.05567 0 0.11134 0.0242 0.15007 0.0702 0.06051 0.0726 0.06051 0.16701 0.06051 0.24447v0.66563h0.17185v-0.67047c0-0.0847 0-0.1767-0.03873-0.26626-0.05567-0.12344-0.16943-0.19364-0.2953-0.19364-0.15007 0-0.28562 0.0968-0.36791 0.22027v-0.19364h-0.1767z"/>
   <path d="m36.467 118.16c-0.08714-0.12828-0.23479-0.20574-0.4139-0.20574-0.32434 0-0.55429 0.24447-0.55429 0.57608 0 0.33403 0.22995 0.58092 0.54461 0.58092 0.15249 0 0.30256-0.0629 0.40664-0.1767l-0.09924-0.11618c-0.07503 0.0847-0.18396 0.13312-0.29288 0.13312-0.21542 0-0.38002-0.17911-0.38002-0.4381 0-0.25174 0.16217-0.40907 0.36549-0.40907 0.1888 0 0.27836 0.13071 0.28562 0.14523 0.0097 0.017-0.0048 0.0412 0.01452 0.0557z"/>
   <path d="m37.997 117.58v0.14281h0.27836v1.2272h-0.2953v0.14039h0.7794v-0.13797h-0.31466v-1.2296h0.29772v-0.14281z"/>
   <path d="m39.122 117.58v1.5104h0.32434c0.1186 0 0.22026-5e-3 0.32677-0.0605 0.21542-0.11134 0.33403-0.36792 0.33403-0.6971 0-0.29046-0.08714-0.54461-0.28078-0.67048-0.10892-0.0726-0.21784-0.0823-0.35097-0.0823zm0.15975 0.14523h0.18396c0.0944 0 0.1888 5e-3 0.2832 0.0823 0.14039 0.11619 0.18638 0.33161 0.18638 0.54703 0 0.28804-0.0944 0.45263-0.21542 0.53493-0.0944 0.0629-0.1888 0.0678-0.2832 0.0678h-0.15491z"/>
  </g>
  <g fill="#fff">
   <g transform="scale(1.0015 .99852)" stroke-width=".28222px" aria-label="Bits 0-15">
    <path d="m32.124 113.05v1.508h0.426c0.10166 0 0.20574 0 0.30982-0.0436 0.16217-0.0702 0.25173-0.21785 0.25173-0.37276 0-0.17669-0.11376-0.33402-0.28078-0.3897 0.13313-0.0557 0.22268-0.18879 0.22268-0.3316 0-0.13555-0.07746-0.26625-0.22026-0.32677-0.0944-0.0412-0.1888-0.0436-0.28078-0.0436zm0.16701 0.14523h0.23721c0.06535 0 0.13313 0 0.2009 0.0266 0.09924 0.0412 0.15249 0.12586 0.15249 0.213 0 0.0871-0.05083 0.16944-0.14523 0.21058-0.0702 0.029-0.14281 0.029-0.21058 0.029h-0.23479zm0 0.62207h0.24689c0.07503 0 0.15007 2e-3 0.2251 0.0387 0.11134 0.0508 0.17185 0.15975 0.17185 0.26867s-0.05809 0.20816-0.16217 0.25657c-0.06535 0.0291-0.12829 0.0291-0.19364 0.0291h-0.28804z"/>
    <path d="m33.475 113.45v0.14281h0.26625v0.82539h-0.28078v0.13797h0.71646v-0.13797h-0.25899v-0.9682zm0.35823-0.47925c-0.0702 0-0.12587 0.0557-0.12587 0.12344 0 0.0678 0.05567 0.12345 0.12587 0.12345 0.07019 0 0.12586-0.0557 0.12586-0.12345 0-0.0678-0.05567-0.12344-0.12586-0.12344z"/>
    <path d="m34.884 113.15-0.02178 0.29772h-0.26383l-0.0024 0.1428h0.25899c-0.01452 0.1888-0.02179 0.3776-0.02179 0.56398 0 0.0992 0 0.21058 0.06535 0.30256 0.05325 0.0726 0.13797 0.11618 0.25173 0.11618 0.13071 0 0.25899-0.0557 0.35339-0.12344l-0.05325-0.13797c-0.0944 0.0702-0.18154 0.10166-0.24931 0.10166-0.0823 0-0.16701-0.046-0.18638-0.17912 0-0.01-0.0073-0.0508-0.0073-0.213 0-0.14281 0.0073-0.28804 0.02179-0.43085h0.36307v-0.14523h-0.36065s0.01694-0.19848 0.02905-0.26141c0.0024-0.0242 0.02178-0.0387 0.0121-0.0653z"/>
    <path d="m36.684 113.6c-0.10166-0.11134-0.24931-0.17185-0.4139-0.17185-0.25657 0-0.42358 0.14281-0.42358 0.3074 0 0.19364 0.20816 0.26383 0.26867 0.28562 0.0944 0.0339 0.21542 0.0629 0.29772 0.10166 0.09198 0.0436 0.10892 0.10166 0.10892 0.14039 0 0.10408-0.12586 0.17427-0.2832 0.17427-0.1888 0-0.30982-0.11376-0.34613-0.15249-0.0073-0.01-0.0073-0.0169-0.0073-0.0266 0-2e-3 0.0024-0.017-0.0097-0.0218l-0.10166 0.17186c0.13071 0.12102 0.30014 0.17669 0.46715 0.17669 0.30256 0 0.45989-0.17911 0.45989-0.34613 0-0.075-0.03147-0.17669-0.16217-0.24931-0.12344-0.0702-0.30256-0.0944-0.40664-0.14523-0.08956-0.0436-0.10892-0.0968-0.10892-0.13554 0-0.0871 0.10892-0.15007 0.23237-0.15007 0.15975 0 0.26625 0.0968 0.3074 0.15249 0.0073 7e-3 0.0048 0.0145 0.0048 0.0218 0 0.0145 0.0097 0.0194 0.01452 0.0194z"/>
    <path d="m38.667 113.04c-0.23963 0-0.48652 0.2953-0.48652 0.77698 0 0.48894 0.24931 0.76971 0.48894 0.76971 0.21784 0 0.47684-0.23721 0.47684-0.75761 0-0.51314-0.24689-0.78908-0.47926-0.78908zm0.23479 0.34613-0.53009 0.68742c-0.02178-0.0847-0.03389-0.17912-0.03389-0.28562 0-0.38728 0.1767-0.60028 0.32677-0.60028 0.0823 0 0.17185 0.0653 0.23721 0.19848zm0.05567 0.15975c0.02178 0.0847 0.03147 0.18638 0.03147 0.30498 0 0.42117-0.18154 0.58092-0.31466 0.58092-0.08956 0-0.18154-0.0726-0.24689-0.20574z"/>
    <path d="m39.439 113.72v0.15975h0.87138v-0.15975z"/>
    <path d="m41.199 113.05h-0.11134l-0.38728 0.2009 0.03873 0.0944 0.30014-0.0847v1.1667h-0.28078v0.13313h0.71162v-0.13313h-0.2711z"/>
    <path d="m41.947 113.05-0.05325 0.7673 0.10892 0.0436c0.07261-0.092 0.17912-0.14281 0.2832-0.14281 0.15733 0 0.3074 0.12102 0.3074 0.36065 0 0.23237-0.14281 0.35823-0.30498 0.35823-0.16217 0-0.26867-0.12344-0.27594-0.13797-0.0097-0.0194 0.0024-0.0436-0.01936-0.0581l-0.15007 0.11377c0.10166 0.14765 0.26867 0.23236 0.44779 0.23236 0.26141 0 0.47684-0.17669 0.47684-0.50346 0-0.32434-0.20332-0.50346-0.45747-0.50346-0.0823 0-0.16701 0.0194-0.24447 0.0581l0.02178-0.43569h0.62448v-0.15249z"/>
   </g>
   <g transform="scale(1.0015 .99852)" aria-label="0">
    <path d="m19.921 117.55c-0.23963 0-0.48652 0.29529-0.48652 0.77697 0 0.48894 0.24931 0.76972 0.48894 0.76972 0.21784 0 0.47684-0.23721 0.47684-0.75762 0-0.51314-0.24689-0.78907-0.47926-0.78907zm0.23479 0.34612-0.53009 0.68742c-0.02178-0.0847-0.03389-0.17911-0.03389-0.28561 0-0.38728 0.1767-0.60029 0.32677-0.60029 0.0823 0 0.17185 0.0654 0.23721 0.19848zm0.05567 0.15976c0.02178 0.0847 0.03147 0.18637 0.03147 0.30498 0 0.42116-0.18154 0.58091-0.31466 0.58091-0.08956 0-0.18154-0.0726-0.24689-0.20574z" fill="#fff" stroke-width=".28222px"/>
   </g>
   <g transform="scale(1.0015 .99852)" stroke-width=".28222px" aria-label="32">
    <path d="m19.742 122.46c0-0.20574-0.17428-0.38243-0.4139-0.38243-0.13555 0-0.26867 0.0581-0.36307 0.16217l0.0944 0.10408c0.07019-0.075 0.16701-0.11618 0.26141-0.11618 0.15491 0 0.26141 0.10892 0.26141 0.2372 0 0.0896-0.05567 0.19122-0.16217 0.23721-0.02663 0.01-0.0944 0.0363-0.23721 0.0363v0.13555c0.0242-2e-3 0.05083-5e-3 0.07746-5e-3 0.20332 0 0.35339 0.10651 0.35339 0.28804 0 0.1646-0.12586 0.3074-0.30256 0.3074-0.14039 0-0.2251-0.092-0.23721-0.10408-0.01936-0.0218-0.0097-0.046-0.03147-0.0678l-0.12586 0.15249c0.09924 0.11376 0.24447 0.17185 0.39454 0.17185 0.29046 0 0.46473-0.20574 0.46473-0.44052 0-0.17912-0.10166-0.33161-0.25899-0.3897 0.13555-0.0508 0.2251-0.17912 0.2251-0.32677z"/>
    <path d="m20.146 122.32 0.12344 0.0992c0.01452-0.0218 0.0073-0.0363 0.02178-0.0557 0.03631-0.0557 0.12586-0.13797 0.25657-0.13797 0.16217 0 0.29046 0.12345 0.29046 0.28562 0 0.18396-0.15491 0.31709-0.26383 0.41633-0.17186 0.15491-0.31224 0.30982-0.43811 0.55913v0.1065h0.8859v-0.16701c-0.01694-7e-3 -0.02905 5e-3 -0.03389 0.01-0.0097 0.01-0.01452 0.01-0.02421 0.01h-0.63416c0.12586-0.21784 0.30256-0.36791 0.41148-0.46957 0.10892-0.10409 0.26383-0.259 0.26383-0.47684 0-0.23479-0.19122-0.42359-0.43569-0.42359-0.17186 0-0.33403 0.092-0.42358 0.24447z"/>
   </g>
   <g transform="scale(1.0015 .99852)" stroke-width=".28222px" aria-label="64">
    <path d="m19.444 126.59c-0.18154 0-0.37518 0.11135-0.46957 0.37518-0.05083 0.14281-0.06293 0.3195-0.06293 0.46473 0 0.1767 0.01694 0.36549 0.11376 0.51072 0.08714 0.13313 0.22268 0.2009 0.35581 0.2009 0.22995 0 0.43085-0.19363 0.43085-0.50588 0-0.31224-0.2009-0.49378-0.4139-0.49378-0.13071 0-0.25415 0.0702-0.3195 0.18154 0.0097-0.51556 0.25657-0.58334 0.36549-0.58334 0.09924 0 0.16701 0.0532 0.1767 0.0629 0.01452 0.0169 0.01452 0.0387 0.03631 0.0557l0.11618-0.13071c-0.08714-0.0871-0.20816-0.13797-0.32919-0.13797zm-0.06293 0.70194c0.12102 0 0.26625 0.0944 0.26625 0.35339 0 0.23479-0.13071 0.34613-0.25899 0.34613-0.18396 0-0.32192-0.21542-0.30256-0.49862 0.06777-0.12344 0.18396-0.2009 0.2953-0.2009z"/>
    <path d="m20.717 126.61-0.64143 0.96577v0.12587h0.60754v0.41632h0.17428v-0.4139h0.19606v-0.15007h-0.19606v-0.94399zm-0.03147 0.26867v0.67532h-0.44295z"/>
   </g>
   <g transform="scale(1.0015 .99852)" stroke-width=".28222px" aria-label="96">
    <path d="m19.275 132.38c0.18396 0 0.37518-0.11134 0.46715-0.35097 0.02662-0.0702 0.06535-0.2009 0.06535-0.44779 0-0.1888-0.01694-0.3195-0.05325-0.42116-0.07746-0.23237-0.25173-0.32919-0.40906-0.32919-0.23479 0-0.43085 0.20816-0.43085 0.50104 0 0.28804 0.19364 0.47442 0.4139 0.47442 0.12344 0 0.23963-0.0605 0.30982-0.16217-0.0073 0.23478-0.04599 0.33644-0.06051 0.37275-0.06535 0.15249-0.19122 0.20816-0.29772 0.20816-0.10892 0-0.18154-0.0532-0.18154-0.0557-0.02178-0.0145-0.01452-0.0411-0.04115-0.0581l-0.11618 0.13071c0.08956 0.0871 0.20816 0.13796 0.33403 0.13796zm0.06777-0.7213c-0.13313 0-0.26383-0.10892-0.26383-0.33403 0-0.22026 0.12586-0.34371 0.26383-0.34371 0.16943 0 0.31466 0.1888 0.28804 0.49378-0.06777 0.11376-0.17912 0.18396-0.28804 0.18396z"/>
    <path d="m20.654 130.83c-0.18154 0-0.37518 0.11134-0.46957 0.37518-0.05083 0.14281-0.06293 0.3195-0.06293 0.46473 0 0.1767 0.01694 0.36549 0.11376 0.51072 0.08714 0.13313 0.22268 0.2009 0.35581 0.2009 0.22995 0 0.43085-0.19364 0.43085-0.50588s-0.2009-0.49378-0.4139-0.49378c-0.13071 0-0.25415 0.0702-0.3195 0.18154 0.0097-0.51556 0.25657-0.58334 0.36549-0.58334 0.09924 0 0.16701 0.0532 0.1767 0.0629 0.01452 0.017 0.01452 0.0387 0.03631 0.0557l0.11618-0.13071c-0.08714-0.0871-0.20816-0.13797-0.32919-0.13797zm-0.06293 0.70194c0.12102 0 0.26625 0.0944 0.26625 0.35339 0 0.23479-0.13071 0.34613-0.25899 0.34613-0.18396 0-0.32192-0.21542-0.30256-0.49862 0.06777-0.12344 0.18396-0.2009 0.2953-0.2009z"/>
   </g>
  </g>
  <g>
   <path d="m79.866 147.23v-36.313" fill="none" stroke="#e9e56f" stroke-width=".09813"/>
   <g transform="scale(1.0015 .99852)" fill="#fff" stroke-width=".28222px" aria-label="Bits 16-31">
    <path d="m59.741 113.05v1.508h0.42601c0.10166 0 0.20574 0 0.30982-0.0436 0.16217-0.0702 0.25173-0.21785 0.25173-0.37276 0-0.17669-0.11376-0.33402-0.28078-0.3897 0.13313-0.0557 0.22268-0.18879 0.22268-0.3316 0-0.13555-0.07746-0.26625-0.22026-0.32677-0.0944-0.0412-0.1888-0.0436-0.28078-0.0436zm0.16701 0.14523h0.23721c0.06535 0 0.13313 0 0.2009 0.0266 0.09924 0.0412 0.15249 0.12586 0.15249 0.213 0 0.0871-0.05083 0.16944-0.14523 0.21058-0.07019 0.029-0.14281 0.029-0.21058 0.029h-0.23479zm0 0.62207h0.24689c0.07503 0 0.15007 2e-3 0.2251 0.0387 0.11134 0.0508 0.17186 0.15975 0.17186 0.26867s-0.05809 0.20816-0.16217 0.25657c-0.06535 0.0291-0.12828 0.0291-0.19364 0.0291h-0.28804z"/>
    <path d="m61.092 113.45v0.14281h0.26625v0.82539h-0.28078v0.13797h0.71646v-0.13797h-0.25899v-0.9682zm0.35823-0.47925c-0.07019 0-0.12586 0.0557-0.12586 0.12344 0 0.0678 0.05567 0.12345 0.12586 0.12345 0.07019 0 0.12586-0.0557 0.12586-0.12345 0-0.0678-0.05567-0.12344-0.12586-0.12344z"/>
    <path d="m62.5 113.15-0.02179 0.29772h-0.26383l-0.0024 0.1428h0.25899c-0.01452 0.1888-0.02178 0.3776-0.02178 0.56398 0 0.0992 0 0.21058 0.06535 0.30256 0.05325 0.0726 0.13797 0.11618 0.25173 0.11618 0.13071 0 0.25899-0.0557 0.35339-0.12344l-0.05325-0.13797c-0.0944 0.0702-0.18154 0.10166-0.24931 0.10166-0.0823 0-0.16701-0.046-0.18638-0.17912 0-0.01-0.0073-0.0508-0.0073-0.213 0-0.14281 0.0073-0.28804 0.02178-0.43085h0.36307v-0.14523h-0.36065s0.01694-0.19848 0.02905-0.26141c0.0024-0.0242 0.02179-0.0387 0.0121-0.0653z"/>
    <path d="m64.301 113.6c-0.10166-0.11134-0.24931-0.17185-0.4139-0.17185-0.25657 0-0.42358 0.14281-0.42358 0.3074 0 0.19364 0.20816 0.26383 0.26867 0.28562 0.0944 0.0339 0.21542 0.0629 0.29772 0.10166 0.09198 0.0436 0.10892 0.10166 0.10892 0.14039 0 0.10408-0.12586 0.17427-0.2832 0.17427-0.1888 0-0.30982-0.11376-0.34613-0.15249-0.0073-0.01-0.0073-0.0169-0.0073-0.0266 0-2e-3 0.0024-0.017-0.0097-0.0218l-0.10166 0.17186c0.13071 0.12102 0.30014 0.17669 0.46715 0.17669 0.30256 0 0.45989-0.17911 0.45989-0.34613 0-0.075-0.03147-0.17669-0.16217-0.24931-0.12344-0.0702-0.30256-0.0944-0.40664-0.14523-0.08956-0.0436-0.10892-0.0968-0.10892-0.13554 0-0.0871 0.10892-0.15007 0.23237-0.15007 0.15975 0 0.26625 0.0968 0.3074 0.15249 0.0073 7e-3 0.0048 0.0145 0.0048 0.0218 0 0.0145 0.0097 0.0194 0.01452 0.0194z"/>
    <path d="m66.395 113.05h-0.11134l-0.38728 0.2009 0.03873 0.0944 0.30014-0.0847v1.1667h-0.28078v0.13313h0.71162v-0.13313h-0.2711z"/>
    <path d="m67.581 113.03c-0.18154 0-0.37518 0.11134-0.46958 0.37518-0.05083 0.1428-0.06293 0.3195-0.06293 0.46473 0 0.17669 0.01694 0.36549 0.11376 0.51072 0.08714 0.13313 0.22268 0.2009 0.35581 0.2009 0.22995 0 0.43085-0.19364 0.43085-0.50588s-0.2009-0.49378-0.4139-0.49378c-0.13071 0-0.25415 0.0702-0.3195 0.18154 0.0097-0.51557 0.25657-0.58334 0.36549-0.58334 0.09924 0 0.16701 0.0533 0.1767 0.0629 0.01452 0.0169 0.01452 0.0387 0.03631 0.0557l0.11618-0.1307c-0.08714-0.0871-0.20816-0.13797-0.32919-0.13797zm-0.06293 0.70194c0.12102 0 0.26625 0.0944 0.26625 0.35339 0 0.23479-0.13071 0.34613-0.25899 0.34613-0.18396 0-0.32192-0.21542-0.30256-0.49862 0.06777-0.12344 0.18396-0.2009 0.2953-0.2009z"/>
    <path d="m68.266 113.72v0.15975h0.87138v-0.15975z"/>
    <path d="m70.299 113.43c0-0.20574-0.17428-0.38244-0.4139-0.38244-0.13555 0-0.26867 0.0581-0.36307 0.16218l0.0944 0.10408c0.07019-0.075 0.16701-0.11619 0.26141-0.11619 0.15491 0 0.26141 0.10893 0.26141 0.23721 0 0.0896-0.05567 0.19122-0.16217 0.23721-0.02663 0.01-0.0944 0.0363-0.23721 0.0363v0.13554c0.0242-2e-3 0.05083-5e-3 0.07746-5e-3 0.20332 0 0.35339 0.1065 0.35339 0.28804 0 0.16459-0.12586 0.3074-0.30256 0.3074-0.14039 0-0.2251-0.092-0.23721-0.10408-0.01936-0.0218-0.0097-0.046-0.03147-0.0678l-0.12586 0.15249c0.09924 0.11376 0.24447 0.17185 0.39454 0.17185 0.29046 0 0.46473-0.20574 0.46473-0.44053 0-0.17911-0.10166-0.3316-0.25899-0.38969 0.13555-0.0508 0.2251-0.17912 0.2251-0.32677z"/>
    <path d="m71.236 113.05h-0.11134l-0.38728 0.2009 0.03873 0.0944 0.30014-0.0847v1.1667h-0.28078v0.13313h0.71162v-0.13313h-0.2711z"/>
   </g>
   <g transform="scale(1.0015 .99852)" fill="#fff" stroke-width=".28222px" aria-label="128">
    <path d="m18.623 135.37h-0.11134l-0.38728 0.2009 0.03873 0.0944 0.30014-0.0847v1.1667h-0.28078v0.13313h0.71162v-0.13313h-0.27109z"/>
    <path d="m19.301 135.6 0.12344 0.0992c0.01452-0.0218 0.0073-0.0363 0.02179-0.0557 0.03631-0.0557 0.12586-0.13797 0.25657-0.13797 0.16217 0 0.29046 0.12345 0.29046 0.28562 0 0.18395-0.15491 0.31708-0.26383 0.41632-0.17186 0.15491-0.31224 0.30982-0.43811 0.55913v0.1065h0.8859v-0.16701c-0.01694-7e-3 -0.02904 5e-3 -0.03389 0.01-0.0097 0.01-0.01452 0.01-0.02421 0.01h-0.63417c0.12586-0.21785 0.30256-0.36792 0.41148-0.46958 0.10892-0.10408 0.26383-0.25899 0.26383-0.47683 0-0.23479-0.19122-0.42359-0.43569-0.42359-0.17186 0-0.33403 0.092-0.42358 0.24447z"/>
    <path d="m20.949 135.35c-0.23237 0-0.40906 0.16701-0.40906 0.37033 0 0.14765 0.0944 0.2832 0.22995 0.35339-0.17912 0.0847-0.30014 0.24931-0.30014 0.42359 0 0.2251 0.19848 0.40422 0.45747 0.40422 0.26383 0 0.46473-0.18396 0.46473-0.4139 0-0.17912-0.12102-0.33887-0.29046-0.41875 0.14523-0.075 0.23963-0.21784 0.23963-0.36307 0-0.19848-0.17185-0.35581-0.39212-0.35581zm-0.05083 0.79392c0.19364 0.0605 0.32192 0.19364 0.32192 0.34129 0 0.14523-0.12344 0.26383-0.28562 0.26383-0.16459 0-0.29046-0.12345-0.29046-0.27352 0-0.1428 0.11134-0.27351 0.25415-0.3316zm0.03631-0.65353c0.13555 0 0.24205 0.10166 0.24205 0.22752 0 0.11619-0.08956 0.22753-0.20816 0.29046 0 0-0.26625-0.10166-0.26625-0.30256 0-0.1186 0.10166-0.21542 0.23237-0.21542z"/>
   </g>
   <path d="m16.438 138.18h63.366" fill="none" stroke="#e9e56f" stroke-width=".09525"/>
   <path d="m51.644 115.97v-5.0526" fill="none" stroke="#e9e56f" stroke-width=".09813"/>
  </g>
  <g fill="#e9e56f">
   <g opacity=".91" aria-label="0">
    <path d="m23.265 107.79c-0.24448 0-0.49636 0.30128-0.49636 0.7927 0 0.49882 0.25435 0.78528 0.49883 0.78528 0.22225 0 0.48648-0.24201 0.48648-0.77294 0-0.52352-0.25188-0.80504-0.48895-0.80504zm0.23954 0.35314-0.54081 0.70132c-0.02222-0.0864-0.03457-0.18274-0.03457-0.2914 0-0.39511 0.18027-0.61242 0.33338-0.61242 0.08396 0 0.17533 0.0667 0.242 0.2025zm0.0568 0.16298c0.02223 0.0864 0.0321 0.19015 0.0321 0.31115 0 0.42968-0.18521 0.59267-0.32103 0.59267-0.09137 0-0.18521-0.0741-0.25188-0.20991z" fill="#e9e56f" stroke-width=".28222px"/>
   </g>
   <g opacity=".91" aria-label="8">
    <path d="m37.393 107.78c-0.23707 0-0.41734 0.17039-0.41734 0.37782 0 0.15064 0.09631 0.28893 0.2346 0.36054-0.18274 0.0864-0.30621 0.25435-0.30621 0.43215 0 0.22966 0.20249 0.4124 0.46672 0.4124 0.26917 0 0.47413-0.18768 0.47413-0.42227 0-0.18274-0.12347-0.34573-0.29633-0.42722 0.14817-0.0765 0.24448-0.22225 0.24448-0.37042 0-0.20249-0.17533-0.363-0.40005-0.363zm-0.05186 0.80997c0.19756 0.0617 0.32844 0.19756 0.32844 0.3482 0 0.14816-0.12594 0.26917-0.2914 0.26917-0.16792 0-0.29633-0.12595-0.29633-0.27905 0-0.1457 0.11359-0.27905 0.25929-0.33832zm0.03704-0.66675c0.13829 0 0.24694 0.10372 0.24694 0.23213 0 0.11854-0.09137 0.23213-0.21237 0.29634 0 0-0.27164-0.10372-0.27164-0.30869 0-0.121 0.10372-0.21978 0.23707-0.21978z" fill="#e9e56f" stroke-width=".28222px"/>
   </g>
   <g opacity=".91" stroke-width=".28222px" aria-label="16">
    <path d="m50.754 107.8h-0.11359l-0.39511 0.20497 0.03951 0.0963 0.30621-0.0864v1.1903h-0.28646v0.13582h0.72602v-0.13582h-0.27658z"/>
    <path d="m51.964 107.78c-0.18521 0-0.38276 0.11359-0.47907 0.38276-0.05186 0.1457-0.06421 0.32597-0.06421 0.47413 0 0.18027 0.01729 0.37289 0.11606 0.52106 0.0889 0.13582 0.22719 0.20496 0.36301 0.20496 0.2346 0 0.43956-0.19756 0.43956-0.51611 0-0.31856-0.20496-0.50377-0.42228-0.50377-0.13335 0-0.25929 0.0716-0.32597 0.18521 0.0099-0.52599 0.26176-0.59514 0.37289-0.59514 0.10125 0 0.17039 0.0543 0.18027 0.0642 0.01482 0.0173 0.01482 0.0395 0.03704 0.0568l0.11853-0.13335c-0.0889-0.0889-0.21237-0.14075-0.33584-0.14075zm-0.06421 0.71614c0.12347 0 0.27164 0.0963 0.27164 0.36053 0 0.23954-0.13335 0.35313-0.26423 0.35313-0.18768 0-0.32844-0.21978-0.30868-0.5087 0.06914-0.12594 0.18768-0.20496 0.30127-0.20496z"/>
   </g>
   <g opacity=".91" stroke-width=".28222px" aria-label="24">
    <path d="m64.604 108.04 0.12594 0.10125c0.01482-0.0222 0.0074-0.0371 0.02223-0.0568 0.03704-0.0568 0.12841-0.14076 0.26176-0.14076 0.16545 0 0.29633 0.12594 0.29633 0.29139 0 0.18768-0.15804 0.3235-0.26917 0.42475-0.17533 0.15804-0.31856 0.31609-0.44697 0.57044v0.10866h0.90382v-0.1704c-0.01729-7e-3 -0.02963 5e-3 -0.03457 0.01-0.0099 0.01-0.01482 0.01-0.02469 0.01h-0.64699c0.12841-0.22225 0.30868-0.37536 0.4198-0.47907 0.11112-0.10619 0.26917-0.26423 0.26917-0.48648 0-0.23954-0.19509-0.43216-0.4445-0.43216-0.17533 0-0.34078 0.0938-0.43215 0.24942z"/>
    <path d="m66.422 107.8-0.6544 0.98531v0.12841h0.61983v0.42475h0.1778v-0.42228h0.20002v-0.1531h-0.20002v-0.96309zm-0.0321 0.27411v0.68898h-0.45191z"/>
   </g>
   <g transform="scale(1.0015 .99852)" stroke-width=".28222px" aria-label="Confirm ID">
    <path d="m60.301 117.56c-0.23479 0-0.57366 0.17186-0.57366 0.77698 0 0.58092 0.32434 0.76971 0.57366 0.76971 0.17912 0 0.34613-0.0944 0.44053-0.24931l-0.12344-0.0799c-0.07019 0.11376-0.19122 0.18154-0.3074 0.18154-0.22268 0-0.41874-0.22995-0.41874-0.63901 0-0.39938 0.19122-0.62449 0.40422-0.62449 0.11618 0 0.22753 0.0702 0.28804 0.1767 0.0048 7e-3 0.0097 0.0145 0.0097 0.0242 0 7e-3 -0.0024 0.0121-0.0024 0.0194 0 2e-3 0 0.0145 0.0121 0.0218l0.15975-0.0775c-0.07988-0.18153-0.26141-0.30014-0.46231-0.30014z"/>
    <path d="m61.955 118.54c0-0.38244-0.24205-0.58092-0.49378-0.58092-0.28078 0-0.52282 0.24205-0.52282 0.58576 0 0.33645 0.23963 0.57366 0.51798 0.57366 0.26141 0 0.49862-0.21059 0.49862-0.5785zm-0.50588-0.43327c0.15975 0 0.32919 0.13797 0.32919 0.44053 0 0.27836-0.15975 0.41875-0.3195 0.41875-0.1767 0-0.33645-0.1646-0.33645-0.43811 0-0.2711 0.15733-0.42117 0.32676-0.42117z"/>
    <path d="m62.216 119.08h0.1767v-0.63659c0-0.0726 0.0097-0.12828 0.05567-0.1888 0.04115-0.0557 0.14765-0.15491 0.26383-0.15491 0.05567 0 0.11134 0.0242 0.15007 0.0702 0.06051 0.0726 0.06051 0.16701 0.06051 0.24447v0.66563h0.17185v-0.67047c0-0.0847 0-0.1767-0.03873-0.26626-0.05567-0.12344-0.16943-0.19364-0.2953-0.19364-0.15007 0-0.28562 0.0968-0.36791 0.22027v-0.19364h-0.1767z"/>
    <path d="m64.092 117.46c-0.15491 0-0.30014 0.0654-0.3776 0.19122-0.05809 0.092-0.06051 0.18396-0.06051 0.2832v0.10892h-0.24205v0.13797h0.24205v0.90042h0.16701v-0.90042h0.36065v-0.13797h-0.36065v-0.0871c0-0.0799-0.0024-0.16459 0.03873-0.2372 0.04599-0.0823 0.13313-0.12345 0.22268-0.12345 0.1065 0 0.19606 0.0557 0.24205 0.12587 0.0073 0.0121 0.0073 0.0194 0.0073 0.029 0 0.0169 0.0121 0.0218 0.01936 0.0218l0.07988-0.16218c-0.07988-0.0944-0.2009-0.15007-0.33887-0.15007z"/>
    <path d="m64.729 117.98v0.14281h0.26625v0.82538h-0.28078v0.13797h0.71646v-0.13797h-0.25899v-0.96819zm0.35823-0.47926c-0.07019 0-0.12586 0.0557-0.12586 0.12345 0 0.0678 0.05567 0.12344 0.12586 0.12344 0.07019 0 0.12586-0.0557 0.12586-0.12344 0-0.0678-0.05567-0.12345-0.12586-0.12345z"/>
    <path d="m65.922 117.98v1.1062h0.17428v-0.53735c0-0.0678 0.0024-0.14039 0.07746-0.25899 0.10166-0.15975 0.23237-0.18638 0.31224-0.18638 0.09198 0 0.15007 0.0436 0.18154 0.0823 0.01452 0.0194 0.02179 0.0387 0.04115 0.0557l0.0823-0.16701c-0.07019-0.0726-0.17185-0.12103-0.2953-0.12103-0.16217 0-0.32677 0.0823-0.39938 0.23963l0.0073-0.213z"/>
    <path d="m66.982 119.08h0.15975v-0.73583c0-0.0533 0.0048-0.10166 0.03631-0.15975 0.03873-0.0726 0.08714-0.10166 0.13313-0.10166 0.03873 0 0.0823 0.0242 0.10166 0.0847 0.01452 0.046 0.0121 0.0992 0.0121 0.14523v0.76729h0.16217v-0.73099c0-0.0581 0.0048-0.10408 0.04599-0.17427 0.01936-0.029 0.06051-0.0992 0.12829-0.0992 0.03631 0 0.07019 0.0218 0.08714 0.0629 0.02178 0.046 0.01694 0.10892 0.01694 0.15975v0.78424h0.16459v-0.78666c0-0.092 0.0024-0.18395-0.04599-0.25899-0.04115-0.0629-0.11134-0.0871-0.17186-0.0871-0.1065 0-0.20574 0.0629-0.24931 0.15975-0.01694-0.092-0.0944-0.15975-0.19364-0.15975-0.09198 0-0.1767 0.0581-0.22752 0.13555l0.0024-0.10892h-0.16215z"/>
    <path d="m69.526 117.58v0.14281h0.27836v1.2272h-0.2953v0.14039h0.7794v-0.13797h-0.31466v-1.2296h0.29772v-0.14281z"/>
    <path d="m70.651 117.58v1.5104h0.32434c0.1186 0 0.22026-5e-3 0.32677-0.0605 0.21542-0.11134 0.33403-0.36792 0.33403-0.6971 0-0.29046-0.08714-0.54461-0.28078-0.67048-0.10892-0.0726-0.21784-0.0823-0.35097-0.0823zm0.15975 0.14523h0.18396c0.0944 0 0.1888 5e-3 0.2832 0.0823 0.14039 0.11619 0.18638 0.33161 0.18638 0.54703 0 0.28804-0.0944 0.45263-0.21542 0.53493-0.0944 0.0629-0.1888 0.0678-0.2832 0.0678h-0.15491z"/>
   </g>
  </g>
  <path d="m51.644 120.31v-4.312" fill="none" stroke="#e9e56f" stroke-width=".09813"/>
  <g stroke-width=".28222px">
   <g transform="scale(1.0015 .99852)" fill="#e9e56f" aria-label="Action">
    <path d="m46.209 127.85h0.16701l0.14765-0.44295h0.47684l0.16701 0.44053h0.1767l-0.58334-1.5346h-0.01936zm0.75519-0.57365h-0.40906l0.19606-0.57366z"/>
    <path d="m48.489 126.92c-0.08714-0.12829-0.23479-0.20574-0.4139-0.20574-0.32434 0-0.55429 0.24447-0.55429 0.57607 0 0.33403 0.22995 0.58092 0.54461 0.58092 0.15249 0 0.30256-0.0629 0.40664-0.1767l-0.09924-0.11618c-0.07503 0.0847-0.18396 0.13313-0.29288 0.13313-0.21542 0-0.38002-0.17912-0.38002-0.43811 0-0.25173 0.16217-0.40906 0.36549-0.40906 0.1888 0 0.27836 0.1307 0.28562 0.14523 0.0097 0.0169-0.0048 0.0411 0.01452 0.0557z"/>
    <path d="m49.05 126.44-0.02178 0.29772h-0.26383l-0.0024 0.14281h0.25899c-0.01452 0.1888-0.02178 0.3776-0.02178 0.56397 0 0.0992 0 0.21059 0.06535 0.30256 0.05325 0.0726 0.13797 0.11619 0.25173 0.11619 0.13071 0 0.25899-0.0557 0.35339-0.12345l-0.05325-0.13797c-0.0944 0.0702-0.18154 0.10167-0.24931 0.10167-0.0823 0-0.16701-0.046-0.18638-0.17912 0-0.01-0.0073-0.0508-0.0073-0.213 0-0.14281 0.0073-0.28804 0.02178-0.43085h0.36307v-0.14523h-0.36065s0.01694-0.19848 0.02905-0.26141c0.0024-0.0242 0.02178-0.0387 0.0121-0.0653z"/>
    <path d="m50.062 126.74v0.14281h0.26625v0.82539h-0.28078v0.13796h0.71646v-0.13796h-0.25899v-0.9682zm0.35823-0.47926c-0.07019 0-0.12586 0.0557-0.12586 0.12345 0 0.0678 0.05567 0.12344 0.12586 0.12344 0.07019 0 0.12586-0.0557 0.12586-0.12344 0-0.0678-0.05567-0.12345-0.12586-0.12345z"/>
    <path d="m52.129 127.3c0-0.38243-0.24205-0.58091-0.49378-0.58091-0.28078 0-0.52282 0.24204-0.52282 0.58575 0 0.33645 0.23963 0.57366 0.51798 0.57366 0.26141 0 0.49862-0.21058 0.49862-0.5785zm-0.50588-0.43326c0.15975 0 0.32919 0.13796 0.32919 0.44052 0 0.27836-0.15975 0.41875-0.3195 0.41875-0.1767 0-0.33645-0.16459-0.33645-0.43811 0-0.27109 0.15733-0.42116 0.32676-0.42116z"/>
    <path d="m52.391 127.85h0.1767v-0.63658c0-0.0726 0.0097-0.12829 0.05567-0.1888 0.04115-0.0557 0.14765-0.15491 0.26383-0.15491 0.05567 0 0.11134 0.0242 0.15007 0.0702 0.06051 0.0726 0.06051 0.16701 0.06051 0.24447v0.66563h0.17186v-0.67047c0-0.0847 0-0.1767-0.03873-0.26626-0.05567-0.12344-0.16943-0.19363-0.2953-0.19363-0.15007 0-0.28562 0.0968-0.36791 0.22026v-0.19364h-0.1767z"/>
   </g>
   <g transform="scale(1.0015 .99852)" fill="#e9e56f" aria-label="Time">
    <path d="m70.203 130.86v0.15249h0.426v1.3579h0.17186v-1.3579h0.44537v-0.15249z"/>
    <path d="m71.595 131.26v0.14281h0.26625v0.82538h-0.28078v0.13797h0.71646v-0.13797h-0.25899v-0.96819zm0.35823-0.47926c-0.07019 0-0.12586 0.0557-0.12586 0.12345 0 0.0678 0.05567 0.12344 0.12586 0.12344 0.07019 0 0.12586-0.0557 0.12586-0.12344 0-0.0678-0.05567-0.12345-0.12586-0.12345z"/>
    <path d="m72.638 132.37h0.15975v-0.73583c0-0.0533 0.0048-0.10166 0.03631-0.15975 0.03873-0.0726 0.08714-0.10166 0.13313-0.10166 0.03873 0 0.0823 0.0242 0.10166 0.0847 0.01452 0.046 0.0121 0.0992 0.0121 0.14523v0.76729h0.16217v-0.73099c0-0.0581 0.0048-0.10408 0.04599-0.17427 0.01936-0.0291 0.06051-0.0992 0.12829-0.0992 0.03631 0 0.07019 0.0218 0.08714 0.0629 0.02179 0.046 0.01694 0.10892 0.01694 0.15975v0.78424h0.16459v-0.78666c0-0.092 0.0024-0.18395-0.04599-0.25899-0.04115-0.0629-0.11134-0.0871-0.17185-0.0871-0.1065 0-0.20574 0.0629-0.24931 0.15976-0.01694-0.092-0.0944-0.15976-0.19364-0.15976-0.09198 0-0.1767 0.0581-0.22753 0.13555l0.0024-0.10892h-0.16217z"/>
    <path d="m74.383 131.24c-0.26383 0-0.5083 0.1888-0.5083 0.5906 0 0.37034 0.22995 0.5664 0.53009 0.5664 0.15975 0 0.30256-0.0581 0.39696-0.17186l-0.09682-0.0944c-0.07019 0.0823-0.1767 0.12587-0.28562 0.12587-0.14765 0-0.36307-0.0823-0.37518-0.4139h0.78424c0.0073-0.075 0.0048-0.14765-0.0073-0.21059-0.05083-0.29772-0.25657-0.39212-0.43811-0.39212zm-0.33403 0.46958c0.03631-0.26141 0.20332-0.33645 0.32192-0.33645 0.17912 0 0.3074 0.15733 0.28562 0.33645z"/>
   </g>
   <g transform="scale(1.0015 .99852)" fill="#ff007d" aria-label="DATA">
    <path d="m54.845 144.39v1.5104h0.32434c0.1186 0 0.22026-5e-3 0.32676-0.0605 0.21542-0.11134 0.33403-0.36791 0.33403-0.6971 0-0.29046-0.08714-0.54461-0.28078-0.67047-0.10892-0.0726-0.21784-0.0823-0.35097-0.0823zm0.15975 0.14523h0.18396c0.0944 0 0.1888 5e-3 0.2832 0.0823 0.14039 0.11618 0.18638 0.3316 0.18638 0.54703 0 0.28803-0.0944 0.45263-0.21542 0.53492-0.0944 0.0629-0.1888 0.0678-0.2832 0.0678h-0.15491z"/>
    <path d="m55.961 145.9h0.16701l0.14765-0.44294h0.47684l0.16701 0.44052h0.1767l-0.58334-1.5346h-0.01936zm0.75519-0.57365h-0.40906l0.19606-0.57366z"/>
    <path d="m57.213 144.39v0.15249h0.426v1.3579h0.17186v-1.3579h0.44537v-0.15249z"/>
    <path d="m58.382 145.9h0.16701l0.14765-0.44294h0.47684l0.16701 0.44052h0.1767l-0.58334-1.5346h-0.01936zm0.75519-0.57365h-0.40906l0.19606-0.57366z"/>
   </g>
  </g>
  <g>
   <path d="m51.644 124.73v-4.312" fill="none" stroke="#e9e56f" stroke-width=".09813"/>
   <g transform="scale(1.0015 .99852)" fill="#e9e56f" stroke-width=".28222px" aria-label="PeerID">
    <path d="m32.929 122.08v1.508h0.1767v-0.66564h0.2953c0.0944 0 0.18396-2e-3 0.27594-0.0484 0.14039-0.0702 0.213-0.21542 0.213-0.36791s-0.07261-0.30014-0.21542-0.37275c-0.0944-0.0508-0.1888-0.0533-0.28562-0.0533zm0.1767 0.15976h0.2832c0.06293 0 0.12344 2e-3 0.18638 0.0315 0.09198 0.0484 0.14281 0.14523 0.14281 0.24205 0 0.0968-0.04841 0.18638-0.13555 0.22995-0.05809 0.029-0.11618 0.0315-0.17428 0.0315h-0.30498z"/>
    <path d="m34.624 122.46c-0.26383 0-0.5083 0.1888-0.5083 0.5906 0 0.37033 0.22995 0.56639 0.53009 0.56639 0.15975 0 0.30256-0.0581 0.39696-0.17185l-0.09682-0.0944c-0.07019 0.0823-0.1767 0.12586-0.28562 0.12586-0.14765 0-0.36307-0.0823-0.37518-0.4139h0.78424c0.0073-0.075 0.0048-0.14765-0.0073-0.21058-0.05083-0.29772-0.25657-0.39212-0.43811-0.39212zm-0.33403 0.46957c0.03631-0.26141 0.20332-0.33644 0.32192-0.33644 0.17912 0 0.3074 0.15733 0.28562 0.33644z"/>
    <path d="m35.834 122.46c-0.26383 0-0.5083 0.1888-0.5083 0.5906 0 0.37033 0.22995 0.56639 0.53009 0.56639 0.15975 0 0.30256-0.0581 0.39696-0.17185l-0.09682-0.0944c-0.07019 0.0823-0.1767 0.12586-0.28562 0.12586-0.14765 0-0.36307-0.0823-0.37518-0.4139h0.78424c0.0073-0.075 0.0048-0.14765-0.0073-0.21058-0.05083-0.29772-0.25657-0.39212-0.43811-0.39212zm-0.33403 0.46957c0.03631-0.26141 0.20332-0.33644 0.32192-0.33644 0.17912 0 0.3074 0.15733 0.28562 0.33644z"/>
    <path d="m36.659 122.48v1.1062h0.17428v-0.53735c0-0.0678 0.0024-0.14039 0.07746-0.25899 0.10166-0.15975 0.23237-0.18638 0.31224-0.18638 0.09198 0 0.15007 0.0436 0.18154 0.0823 0.01452 0.0194 0.02178 0.0387 0.04115 0.0557l0.0823-0.16702c-0.07019-0.0726-0.17186-0.12102-0.2953-0.12102-0.16217 0-0.32676 0.0823-0.39938 0.23963l0.0073-0.213z"/>
    <path d="m37.843 122.08v0.14281h0.27836v1.2272h-0.2953v0.14039h0.7794v-0.13797h-0.31466v-1.2296h0.29772v-0.14281z"/>
    <path d="m38.969 122.08v1.5104h0.32434c0.1186 0 0.22026-5e-3 0.32677-0.0605 0.21542-0.11135 0.33403-0.36792 0.33403-0.6971 0-0.29046-0.08714-0.54461-0.28078-0.67048-0.10892-0.0726-0.21784-0.0823-0.35097-0.0823zm0.15975 0.14523h0.18396c0.0944 0 0.1888 5e-3 0.2832 0.0823 0.14039 0.11618 0.18638 0.33161 0.18638 0.54703 0 0.28804-0.0944 0.45263-0.21542 0.53493-0.0944 0.0629-0.1888 0.0678-0.2832 0.0678h-0.15491z"/>
   </g>
   <path d="m65.667 124.73v-4.312" fill="none" stroke="#e9e56f" stroke-width=".09813"/>
   <g transform="scale(1.0015 .99852)" fill="#e9e56f" stroke-width=".28222px" aria-label="MsgType">
    <path d="m54.021 122.08v1.5104h0.15975v-1.1304l0.30498 0.59786h0.06293l0.32677-0.60754v1.14h0.15975v-1.5104h-0.12586l-0.38002 0.73825-0.37518-0.73825z"/>
    <path d="m56.18 122.63c-0.10166-0.11134-0.24931-0.17185-0.4139-0.17185-0.25657 0-0.42358 0.14281-0.42358 0.3074 0 0.19364 0.20816 0.26384 0.26867 0.28562 0.0944 0.0339 0.21542 0.0629 0.29772 0.10166 0.09198 0.0436 0.10892 0.10166 0.10892 0.14039 0 0.10408-0.12586 0.17427-0.2832 0.17427-0.1888 0-0.30982-0.11376-0.34613-0.15249-0.0073-0.01-0.0073-0.0169-0.0073-0.0266 0-2e-3 0.0024-0.0169-0.0097-0.0218l-0.10166 0.17186c0.13071 0.12102 0.30014 0.17669 0.46715 0.17669 0.30256 0 0.45989-0.17911 0.45989-0.34613 0-0.075-0.03147-0.17669-0.16217-0.24931-0.12344-0.0702-0.30256-0.0944-0.40664-0.14523-0.08956-0.0436-0.10892-0.0968-0.10892-0.13554 0-0.0871 0.10892-0.15007 0.23237-0.15007 0.15975 0 0.26625 0.0968 0.3074 0.15249 0.0073 7e-3 0.0048 0.0145 0.0048 0.0218 0 0.0145 0.0097 0.0194 0.01452 0.0194z"/>
    <path d="m56.647 122.83c0-0.13312 0.11134-0.24204 0.24447-0.24204 0.13555 0 0.24447 0.10892 0.24447 0.24204 0 0.13313-0.10892 0.24205-0.24447 0.24205-0.13555 0-0.24447-0.10892-0.24447-0.24205zm0.25415-0.38001c-0.22026 0-0.41148 0.17427-0.41148 0.3897 0 0.12102 0.06051 0.23478 0.16217 0.30014-0.07988 0.0678-0.12586 0.14281-0.12586 0.213 0 0.046 0.01936 0.11134 0.08956 0.14765-0.1186 0.075-0.17912 0.15733-0.17912 0.24447 0 0.12102 0.11134 0.26383 0.49862 0.26383 0.37518 0 0.51072-0.19122 0.51072-0.33887 0-0.0968-0.05567-0.19364-0.17186-0.23962-0.11618-0.0484-0.24931-0.0315-0.37518-0.0315-0.0823 0-0.13555-7e-3 -0.15733-0.0145-0.04357-0.0121-0.06777-0.0387-0.06777-0.0726 0-0.0581 0.06777-0.11376 0.07988-0.12344 0.04357 0.0169 0.09198 0.0242 0.14039 0.0242 0.21784 0 0.39696-0.17427 0.39696-0.37759 0-0.0678-0.01936-0.13313-0.05567-0.1888 0.05809-0.0339 0.12586-0.0533 0.19364-0.0533 0.02179 0 0.04115 2e-3 0.06293 7e-3l-0.01936-0.14281c-0.11134-0.01-0.22268 0.0266-0.3074 0.0968-0.07019-0.0678-0.16217-0.10408-0.26383-0.10408zm-0.16701 1.082c0.04115 5e-3 0.09924 0.01 0.18396 0.0145 0.0823 2e-3 0.17185-5e-3 0.23479 5e-3 0.10166 0.0169 0.13313 0.0799 0.13313 0.12829 0 0.0484-0.02905 0.1065-0.10408 0.14764-0.0823 0.0436-0.17428 0.0484-0.24931 0.0484-0.05083 0-0.14523-2e-3 -0.22753-0.0363-0.08956-0.0363-0.10892-0.0968-0.10892-0.13555 0-0.0799 0.07503-0.13797 0.13797-0.17185z"/>
    <path d="m57.63 122.08v0.1525h0.426v1.3579h0.17186v-1.3579h0.44537v-0.1525z"/>
    <path d="m58.874 122.48 0.45021 1.1013-0.03631 0.0799c-0.01936 0.046-0.04115 0.092-0.07503 0.12829-0.04599 0.0508-0.10408 0.0726-0.15491 0.0726-0.0823 0-0.12344-0.0557-0.13071-0.0654-0.0073-0.0121-0.0048-0.029-0.01936-0.0411l-0.08956 0.15733c0.06293 0.0605 0.14765 0.092 0.23963 0.092 0.09924 0 0.20332-0.0363 0.27594-0.1186 0.04841-0.0557 0.07261-0.11376 0.09682-0.1767l0.34371-0.91252c0.04115-0.10408 0.07746-0.21058 0.11134-0.3195h-0.18154c-0.01936 0.10166-0.05083 0.19848-0.08472 0.29529l-0.21058 0.59302-0.32434-0.8157c-0.0024-7e-3 -0.0024-0.0121-0.0024-0.0194 0-0.017 0.0121-0.029 0.0097-0.0508z"/>
    <path d="m60.118 122.48 0.0024 1.508h0.1767v-0.54945c0.07503 0.10892 0.19848 0.17669 0.33161 0.17669 0.22753 0 0.46473-0.19121 0.46473-0.59544 0-0.38969-0.22995-0.56397-0.44779-0.56397-0.14281 0-0.27594 0.0726-0.35097 0.19364v-0.16943zm0.46231 0.12344c0.09682 0 0.33161 0.0508 0.33161 0.45263 0 0.34855-0.22752 0.40422-0.33161 0.40422s-0.21058-0.0532-0.25415-0.15249c-0.03147-0.075-0.03147-0.16701-0.03147-0.32676 0-0.092 0.0048-0.15976 0.02905-0.21785 0.04357-0.0992 0.14523-0.15975 0.25657-0.15975z"/>
    <path d="m61.81 122.46c-0.26383 0-0.5083 0.1888-0.5083 0.5906 0 0.37033 0.22995 0.56639 0.53009 0.56639 0.15975 0 0.30256-0.0581 0.39696-0.17185l-0.09682-0.0944c-0.07019 0.0823-0.1767 0.12586-0.28562 0.12586-0.14765 0-0.36307-0.0823-0.37518-0.4139h0.78424c0.0073-0.075 0.0048-0.14765-0.0073-0.21058-0.05083-0.29772-0.25657-0.39212-0.43811-0.39212zm-0.33403 0.46957c0.03631-0.26141 0.20332-0.33644 0.32192-0.33644 0.17912 0 0.3074 0.15733 0.28562 0.33644z"/>
   </g>
   <path d="m65.667 133.56v-4.312" fill="none" stroke="#e9e56f" stroke-width=".09813"/>
   <path d="m16.438 142.66h63.366" fill="none" stroke="#e9e56f" stroke-width=".09525"/>
   <g transform="scale(1.0015 .99852)" fill="#fff" stroke-width=".28222px" aria-label="160">
    <path d="m18.623 139.87h-0.11134l-0.38728 0.2009 0.03873 0.0944 0.30014-0.0847v1.1667h-0.28078v0.13312h0.71162v-0.13312h-0.27109z"/>
    <path d="m19.809 139.86c-0.18154 0-0.37518 0.11134-0.46958 0.37517-0.05083 0.14281-0.06293 0.31951-0.06293 0.46473 0 0.1767 0.01694 0.3655 0.11376 0.51073 0.08714 0.13312 0.22268 0.2009 0.35581 0.2009 0.22995 0 0.43085-0.19364 0.43085-0.50588 0-0.31225-0.2009-0.49378-0.4139-0.49378-0.13071 0-0.25415 0.0702-0.3195 0.18153 0.0097-0.51556 0.25657-0.58333 0.36549-0.58333 0.09924 0 0.16701 0.0532 0.1767 0.0629 0.01452 0.0169 0.01452 0.0387 0.03631 0.0557l0.11618-0.13071c-0.08714-0.0871-0.20816-0.13796-0.32919-0.13796zm-0.06293 0.70194c0.12102 0 0.26625 0.0944 0.26625 0.35339 0 0.23479-0.13071 0.34613-0.25899 0.34613-0.18396 0-0.32192-0.21543-0.30256-0.49862 0.06777-0.12345 0.18396-0.2009 0.2953-0.2009z"/>
    <path d="m20.932 139.86c-0.23963 0-0.48652 0.2953-0.48652 0.77697 0 0.48894 0.24931 0.76972 0.48894 0.76972 0.21784 0 0.47684-0.23721 0.47684-0.75761 0-0.51315-0.24689-0.78908-0.47926-0.78908zm0.23479 0.34613-0.53009 0.68742c-0.02179-0.0847-0.03389-0.17912-0.03389-0.28562 0-0.38728 0.1767-0.60028 0.32677-0.60028 0.0823 0 0.17185 0.0653 0.23721 0.19848zm0.05567 0.15975c0.02178 0.0847 0.03147 0.18638 0.03147 0.30498 0 0.42116-0.18154 0.58092-0.31466 0.58092-0.08956 0-0.18154-0.0726-0.24689-0.20574z"/>
   </g>
   <path d="m65.667 142.55v-4.312" fill="none" stroke="#e9e56f" stroke-width=".09813"/>
   <g transform="scale(1.0015 .99852)" fill="#e9e56f" stroke-width=".28222px" aria-label="Flags">
    <path d="m69.522 139.87v1.508h0.17185v-0.74067h0.56397v-0.14523h-0.56397v-0.47442h0.6971v-0.14765z"/>
    <path d="m70.749 139.77v0.14039h0.31466v1.3288h-0.32919v0.13797h0.83023v-0.13797h-0.32677v-1.4692z"/>
    <path d="m71.974 140.4 0.08472 0.11134c0.09198-0.0944 0.21542-0.12344 0.3195-0.12344 0.13071 0 0.19606 0.0557 0.22752 0.1065 0.03631 0.0605 0.03389 0.13313 0.03389 0.19122v0.0387h-0.03389c-0.16459 0-0.33887 0-0.47926 0.0508-0.17428 0.0629-0.25173 0.19363-0.25173 0.31466 0 0.16217 0.14039 0.31466 0.37033 0.31466 0.13555 0 0.27594-0.0508 0.39696-0.15007v0.12103h0.16459v-0.685c0-0.0896-0.0024-0.17428-0.05325-0.26141-0.07261-0.11861-0.213-0.18154-0.38486-0.18154-0.14765 0-0.29046 0.046-0.39454 0.15249zm0.6729 0.45747v0.075c0 0.0557 0 0.12828-0.07503 0.20816-0.04115 0.0411-0.14523 0.13071-0.29046 0.13071-0.14765 0-0.23237-0.0944-0.23237-0.19122 0-0.0823 0.05567-0.17186 0.19364-0.20574 0.10166-0.0242 0.24931-0.017 0.36549-0.017z"/>
    <path d="m73.269 140.62c0-0.13312 0.11134-0.24204 0.24447-0.24204 0.13555 0 0.24447 0.10892 0.24447 0.24204 0 0.13313-0.10892 0.24205-0.24447 0.24205-0.13555 0-0.24447-0.10892-0.24447-0.24205zm0.25415-0.38001c-0.22026 0-0.41148 0.17427-0.41148 0.3897 0 0.12102 0.06051 0.23478 0.16217 0.30014-0.07988 0.0678-0.12587 0.1428-0.12587 0.213 0 0.046 0.01936 0.11134 0.08956 0.14765-0.1186 0.075-0.17912 0.15733-0.17912 0.24447 0 0.12102 0.11134 0.26383 0.49862 0.26383 0.37518 0 0.51072-0.19122 0.51072-0.33887 0-0.0968-0.05567-0.19364-0.17186-0.23963-0.11618-0.0484-0.24931-0.0315-0.37518-0.0315-0.0823 0-0.13555-7e-3 -0.15733-0.0145-0.04357-0.0121-0.06777-0.0387-0.06777-0.0726 0-0.0581 0.06777-0.11376 0.07988-0.12344 0.04357 0.0169 0.09198 0.0242 0.14039 0.0242 0.21784 0 0.39696-0.17427 0.39696-0.3776 0-0.0678-0.01936-0.13312-0.05567-0.18879 0.05809-0.0339 0.12586-0.0532 0.19364-0.0532 0.02178 0 0.04115 2e-3 0.06293 7e-3l-0.01936-0.14281c-0.11134-0.01-0.22268 0.0266-0.3074 0.0968-0.07019-0.0678-0.16217-0.10408-0.26383-0.10408zm-0.16701 1.082c0.04115 5e-3 0.09924 0.01 0.18396 0.0145 0.0823 2e-3 0.17186-5e-3 0.23479 5e-3 0.10166 0.0169 0.13313 0.0799 0.13313 0.12828 0 0.0484-0.02905 0.10651-0.10408 0.14765-0.0823 0.0436-0.17428 0.0484-0.24931 0.0484-0.05083 0-0.14523-2e-3 -0.22753-0.0363-0.08956-0.0363-0.10892-0.0968-0.10892-0.13555 0-0.0799 0.07503-0.13797 0.13797-0.17186z"/>
    <path d="m75.222 140.42c-0.10166-0.11134-0.24931-0.17185-0.4139-0.17185-0.25657 0-0.42358 0.14281-0.42358 0.3074 0 0.19364 0.20816 0.26383 0.26867 0.28562 0.0944 0.0339 0.21542 0.0629 0.29772 0.10166 0.09198 0.0436 0.10892 0.10166 0.10892 0.14039 0 0.10408-0.12586 0.17427-0.2832 0.17427-0.1888 0-0.30982-0.11376-0.34613-0.15249-0.0073-0.01-0.0073-0.0169-0.0073-0.0266 0-2e-3 0.0024-0.017-0.0097-0.0218l-0.10166 0.17186c0.13071 0.12102 0.30014 0.17669 0.46715 0.17669 0.30256 0 0.45989-0.17911 0.45989-0.34613 0-0.075-0.03147-0.17669-0.16217-0.24931-0.12344-0.0702-0.30256-0.0944-0.40664-0.14523-0.08956-0.0436-0.10892-0.0968-0.10892-0.13554 0-0.0871 0.10892-0.15007 0.23237-0.15007 0.15975 0 0.26625 0.0968 0.3074 0.15249 0.0073 7e-3 0.0048 0.0145 0.0048 0.0218 0 0.0145 0.0097 0.0194 0.01452 0.0194z"/>
   </g>
   <path d="m16.438 147.16h63.366" fill="none" stroke="#e9e56f" stroke-width=".09525"/>
   <g transform="scale(1.0015 .99852)" fill="#fff" stroke-width=".28222px" aria-label="192">
    <path d="m18.623 144.38h-0.11134l-0.38728 0.2009 0.03873 0.0944 0.30014-0.0847v1.1667h-0.28078v0.13313h0.71162v-0.13313h-0.27109z"/>
    <path d="m19.64 145.91c0.18396 0 0.37518-0.11135 0.46715-0.35098 0.02663-0.0702 0.06535-0.2009 0.06535-0.44778 0-0.1888-0.01694-0.31951-0.05325-0.42117-0.07746-0.23237-0.25173-0.32919-0.40906-0.32919-0.23479 0-0.43085 0.20817-0.43085 0.50104 0 0.28804 0.19364 0.47442 0.4139 0.47442 0.12344 0 0.23963-0.0605 0.30982-0.16217-0.0073 0.23478-0.04599 0.33645-0.06051 0.37275-0.06535 0.15249-0.19122 0.20816-0.29772 0.20816-0.10892 0-0.18154-0.0533-0.18154-0.0557-0.02178-0.0145-0.01452-0.0411-0.04115-0.0581l-0.11618 0.13071c0.08956 0.0871 0.20816 0.13797 0.33403 0.13797zm0.06777-0.72131c-0.13313 0-0.26383-0.10892-0.26383-0.33403 0-0.22026 0.12587-0.34371 0.26383-0.34371 0.16943 0 0.31466 0.1888 0.28804 0.49378-0.06777 0.11377-0.17912 0.18396-0.28804 0.18396z"/>
    <path d="m20.511 144.61 0.12344 0.0992c0.01452-0.0218 0.0073-0.0363 0.02179-0.0557 0.03631-0.0557 0.12586-0.13796 0.25657-0.13796 0.16217 0 0.29046 0.12344 0.29046 0.28561 0 0.18396-0.15491 0.31709-0.26383 0.41633-0.17185 0.15491-0.31224 0.30982-0.43811 0.55913v0.1065h0.8859v-0.16701c-0.01694-7e-3 -0.02904 5e-3 -0.03389 0.01-0.0097 0.01-0.01452 0.01-0.0242 0.01h-0.63417c0.12587-0.21784 0.30256-0.36791 0.41148-0.46957 0.10892-0.10408 0.26383-0.259 0.26383-0.47684 0-0.23479-0.19122-0.42358-0.43569-0.42358-0.17186 0-0.33403 0.092-0.42358 0.24446z"/>
   </g>
   <path d="m36.563 147.05v-4.312" fill="none" stroke="#e9e56f" stroke-width=".09813"/>
   <g fill="#e9e56f" opacity=".91" stroke-width=".28222px" aria-label="32">
    <path d="m79.45 108.18c0-0.20991-0.1778-0.39018-0.42228-0.39018-0.13829 0-0.27411 0.0593-0.37042 0.16546l0.09631 0.10618c0.07161-0.0766 0.17039-0.11853 0.2667-0.11853 0.15804 0 0.2667 0.11112 0.2667 0.242 0 0.0914-0.0568 0.19509-0.16545 0.24201-0.02716 0.01-0.09631 0.037-0.24201 0.037v0.13829c0.0247-2e-3 0.05186-5e-3 0.07902-5e-3 0.20743 0 0.36054 0.10866 0.36054 0.29387 0 0.16792-0.12841 0.31362-0.30868 0.31362-0.14323 0-0.22966-0.0938-0.24201-0.10619-0.01975-0.0222-0.0099-0.0469-0.0321-0.0691l-0.12841 0.15558c0.10125 0.11606 0.24941 0.17533 0.40252 0.17533 0.29633 0 0.47413-0.2099 0.47413-0.44944 0-0.18274-0.10372-0.33831-0.26423-0.39758 0.13829-0.0519 0.22966-0.18274 0.22966-0.33337z"/>
    <path d="m79.862 108.04 0.12594 0.10125c0.01482-0.0222 0.0074-0.0371 0.02222-0.0568 0.03704-0.0568 0.12841-0.14076 0.26176-0.14076 0.16545 0 0.29633 0.12594 0.29633 0.29139 0 0.18768-0.15804 0.3235-0.26917 0.42475-0.17533 0.15804-0.31856 0.31609-0.44697 0.57044v0.10866h0.90382v-0.1704c-0.01729-7e-3 -0.02963 5e-3 -0.03457 0.01-0.0099 0.01-0.01482 0.01-0.0247 0.01h-0.64699c0.12841-0.22225 0.30868-0.37536 0.4198-0.47907 0.11112-0.10619 0.26917-0.26423 0.26917-0.48648 0-0.23954-0.19509-0.43216-0.4445-0.43216-0.17533 0-0.34078 0.0938-0.43215 0.24942z"/>
   </g>
  </g>
 </g>
</svg>
