<?xml version="1.0" encoding="UTF-8" standalone="no"?>
<svg
   xmlns:dc="http://purl.org/dc/elements/1.1/"
   xmlns:cc="http://creativecommons.org/ns#"
   xmlns:rdf="http://www.w3.org/1999/02/22-rdf-syntax-ns#"
   xmlns:svg="http://www.w3.org/2000/svg"
   xmlns="http://www.w3.org/2000/svg"
   xmlns:sodipodi="http://sodipodi.sourceforge.net/DTD/sodipodi-0.dtd"
   xmlns:inkscape="http://www.inkscape.org/namespaces/inkscape"
   width="100.1"
   height="50.1"
   version="1.1"
   viewBox="0 0 26.485 13.256"
   id="svg282"
   sodipodi:docname="chapter_drm.svg"
   inkscape:version="0.92.3 (2405546, 2018-03-11)">
  <defs
     id="defs286" />
  <sodipodi:namedview
     pagecolor="#ffffff"
     bordercolor="#666666"
     borderopacity="1"
     objecttolerance="10"
     gridtolerance="10"
     guidetolerance="10"
     inkscape:pageopacity="0"
     inkscape:pageshadow="2"
     inkscape:window-width="2560"
     inkscape:window-height="1377"
     id="namedview284"
     showgrid="false"
     inkscape:zoom="8.0000004"
     inkscape:cx="72.566592"
     inkscape:cy="16.741326"
     inkscape:window-x="-8"
     inkscape:window-y="-8"
     inkscape:window-maximized="1"
     inkscape:current-layer="svg282" />
  <metadata
     id="metadata2">
    <rdf:RDF>
      <cc:Work
         rdf:about="">
        <dc:format>image/svg+xml</dc:format>
        <dc:type
           rdf:resource="http://purl.org/dc/dcmitype/StillImage" />
        <dc:title />
      </cc:Work>
    </rdf:RDF>
  </metadata>
  <g
     transform="translate(-119.81 -81.063)"
     id="g280">
    <rect
       x="121.13"
       y="82.386"
       width="23.812"
       height="10.583"
       fill="#1d232d"
       style="paint-order:normal"
       id="rect4" />
    <g
       fill="#7b8694"
       id="g50">
      <rect
         x="121.66"
         y="82.121"
         width="1.5875"
         height=".26458"
         id="rect6" />
      <rect
         x="123.77"
         y="82.121"
         width="1.5875"
         height=".26458"
         id="rect8" />
      <rect
         x="125.89"
         y="82.121"
         width="1.5875"
         height=".26458"
         id="rect10" />
      <rect
         x="128.01"
         y="82.121"
         width="1.5875"
         height=".26458"
         id="rect12" />
      <rect
         x="130.12"
         y="82.121"
         width="1.5875"
         height=".26458"
         id="rect14" />
      <rect
         x="132.24"
         y="82.121"
         width="1.5875"
         height=".26458"
         id="rect16" />
      <rect
         x="134.36"
         y="82.121"
         width="1.5875"
         height=".26458"
         id="rect18" />
      <rect
         x="136.47"
         y="82.121"
         width="1.5875"
         height=".26458"
         id="rect20" />
      <rect
         x="138.59"
         y="82.121"
         width="1.5875"
         height=".26458"
         id="rect22" />
      <rect
         x="140.71"
         y="82.121"
         width="1.5875"
         height=".26458"
         id="rect24" />
      <rect
         x="142.82"
         y="82.121"
         width="1.5875"
         height=".26458"
         id="rect26" />
      <rect
         x="121.66"
         y="92.969"
         width="1.5875"
         height=".26458"
         id="rect28" />
      <rect
         x="123.77"
         y="92.969"
         width="1.5875"
         height=".26458"
         id="rect30" />
      <rect
         x="125.89"
         y="92.969"
         width="1.5875"
         height=".26458"
         id="rect32" />
      <rect
         x="128.01"
         y="92.969"
         width="1.5875"
         height=".26458"
         id="rect34" />
      <rect
         x="130.12"
         y="92.969"
         width="1.5875"
         height=".26458"
         id="rect36" />
      <rect
         x="132.24"
         y="92.969"
         width="1.5875"
         height=".26458"
         id="rect38" />
      <rect
         x="134.36"
         y="92.969"
         width="1.5875"
         height=".26458"
         id="rect40" />
      <rect
         x="136.47"
         y="92.969"
         width="1.5875"
         height=".26458"
         id="rect42" />
      <rect
         x="138.59"
         y="92.969"
         width="1.5875"
         height=".26458"
         id="rect44" />
      <rect
         x="140.71"
         y="92.969"
         width="1.5875"
         height=".26458"
         id="rect46" />
      <rect
         x="142.82"
         y="92.969"
         width="1.5875"
         height=".26458"
         id="rect48" />
    </g>
  </g>
  <path
     style="fill:#6f8ce9;fill-opacity:1;stroke-width:0.99999994"
     d="m 13.087929,9.9356566 c -0.06327,-0.01215 -0.179998,-0.0458 -0.271777,-0.07834 -0.559234,-0.198292 -1.068062,-0.581013 -1.441044,-1.083902 -0.457533,-0.616887 -0.731616,-1.422171 -0.810482,-2.381283 -0.01947,-0.236778 -0.02299,-0.393416 -0.02299,-1.02403 0,-0.712275 -0.0021,-0.676805 0.04423,-0.765131 0.04788,-0.09138 0.133314,-0.161575 0.237253,-0.194927 0.05162,-0.01657 0.05252,-0.01661 0.313838,-0.01838 0.277303,-0.0019 0.385899,-0.009 0.58885,-0.03855 0.214435,-0.03126 0.34526,-0.06849 0.490395,-0.139561 0.214821,-0.1052 0.443778,-0.27069 0.667574,-0.482522 0.07411,-0.07014 0.126318,-0.09953 0.207615,-0.11685 0.09092,-0.01937 0.208222,-7.3e-5 0.290251,0.04772 0.0164,0.0096 0.101504,0.0748 0.189105,0.144969 0.328428,0.263082 0.512776,0.38296 0.707822,0.460278 0.204316,0.081 0.63171,0.134193 1.010607,0.125788 0.18932,-0.0042 0.231987,0.0013 0.312681,0.04126 0.07243,0.03575 0.142975,0.104384 0.177187,0.17239 0.04591,0.09126 0.04404,0.05249 0.04094,0.848963 -0.0028,0.726264 -0.0041,0.767629 -0.03077,1.042108 -0.088,0.903657 -0.362431,1.681457 -0.800509,2.268815 -0.395597,0.530404 -0.934002,0.924289 -1.523969,1.1149021 -0.178918,0.05781 -0.285749,0.07376 -0.376808,0.05627 z"
     id="path851"
     inkscape:connector-curvature="0"
     sodipodi:nodetypes="sssssccsssccccssscssscs" />
</svg>
