<?xml version="1.0" encoding="UTF-8"?>
<svg width="313.16" height="55.292" version="1.1" viewBox="0 0 82.857 14.63" xmlns="http://www.w3.org/2000/svg" xmlns:cc="http://creativecommons.org/ns#" xmlns:dc="http://purl.org/dc/elements/1.1/" xmlns:rdf="http://www.w3.org/1999/02/22-rdf-syntax-ns#">
 <metadata>
  <rdf:RDF>
   <cc:Work rdf:about="">
    <dc:format>image/svg+xml</dc:format>
    <dc:type rdf:resource="http://purl.org/dc/dcmitype/StillImage"/>
    <dc:title/>
   </cc:Work>
  </rdf:RDF>
 </metadata>
 <g fill="#1d232d" stroke="#7b8694" stroke-linecap="round">
  <rect transform="rotate(-24)" x="-3.3773" y="7.9873" width="13.523" height="3.4379" stroke-width=".24855"/>
  <g stroke-width=".26459">
   <rect transform="rotate(-42)" x="-3.3302" y="11.452" width="13.523" height="3.4379"/>
   <rect transform="rotate(-51)" x="-3.4512" y="14.269" width="13.523" height="3.4379"/>
   <rect transform="rotate(-60)" x="-4.4194" y="17.317" width="13.523" height="3.4379"/>
   <rect transform="rotate(-75)" x="-8.5173" y="20.673" width="13.523" height="3.4379"/>
   <rect transform="rotate(-87)" x="-12.988" y="22.595" width="13.523" height="3.4379"/>
   <rect transform="rotate(264)" x="-16.915" y="23.218" width="13.523" height="3.4379"/>
   <rect transform="rotate(249)" x="-24.124" y="22.609" width="13.523" height="3.4379"/>
   <path d="m62.242 2.756-12.354 5.5002 1.3989 3.1409 28.191 2.6077 3.2097-1.2315-4.8456-12.625z"/>
  </g>
 </g>
 <path d="m33.196 6.211h13.365" fill="none" stroke="#a6aeb8" stroke-width=".26459"/>
 <g transform="matrix(-.0017936 -.0031066 .0031598 -.0018243 46.304 7.3647)" fill="#e8eaec" stroke-width="201.8">
  <g fill="#e8eaec" stroke-width="201.8">
   <path d="m486.41 221.41-364.07-208.5c-52.938-30.318-95.852-5.44-95.852 55.563v415.65c0 61.004 42.914 85.882 95.852 55.563l364.07-208.49c52.938-30.317 52.938-79.473 0-109.79z" fill="#e8eaec" stroke-width="201.8"/>
  </g>
 </g>
</svg>
