<?xml version="1.0" encoding="UTF-8"?>
<svg width="147.95" height="67.222" version="1.1" viewBox="0 0 39.146 17.786" xmlns="http://www.w3.org/2000/svg" xmlns:cc="http://creativecommons.org/ns#" xmlns:dc="http://purl.org/dc/elements/1.1/" xmlns:rdf="http://www.w3.org/1999/02/22-rdf-syntax-ns#">
 <metadata>
  <rdf:RDF>
   <cc:Work rdf:about="">
    <dc:format>image/svg+xml</dc:format>
    <dc:type rdf:resource="http://purl.org/dc/dcmitype/StillImage"/>
    <dc:title/>
   </cc:Work>
  </rdf:RDF>
 </metadata>
 <g fill="#1d232d" stroke-linecap="square" stroke-linejoin="round" stroke-width=".26459">
  <g stroke="#7b8694">
   <rect x="11.782" y="11.783" width="5.871" height="5.871" style="paint-order:normal"/>
   <rect x="11.782" y="5.9577" width="5.871" height="5.871" style="paint-order:normal"/>
   <path d="m5.9569 11.783 5.871 5.871h-5.871z" style="paint-order:normal"/>
   <rect x=".13145" y="11.783" width="5.871" height="5.871" style="paint-order:normal"/>
   <path d="m0.13147 5.9577 5.8709 5.871h-5.8709z" style="paint-order:normal"/>
   <rect x="27.317" y=".1323" width="5.871" height="5.871" style="paint-order:normal"/>
   <rect x="33.142" y=".1323" width="5.871" height="5.871" style="paint-order:normal"/>
   <path d="m39.013 5.9577v5.871h-5.8709z" style="paint-order:normal"/>
   <rect x="33.142" y="11.783" width="5.871" height="5.871" style="paint-order:normal"/>
   <path d="m33.188 11.783v5.871h-5.871z" style="paint-order:normal"/>
  </g>
  <rect x="24.524" y="7.3913" width="5.871" height="5.871" stroke="#e8eaec" style="paint-order:normal"/>
  <rect x="2.7757" y="1.223" width="5.871" height="5.871" stroke="#e8eaec" style="paint-order:normal"/>
 </g>
 <path d="m5.6766 4.1598 3.679 7.0006" fill="none" stroke="#a6aeb8" stroke-width=".24855"/>
 <path d="m27.435 10.325 7.9629-2.8883" fill="none" stroke="#a6aeb8" stroke-width=".24855"/>
 <g fill="#e8eaec">
  <circle transform="rotate(-27)" cx="3.1757" cy="6.3054" r=".38662" stroke="#e8eaec" stroke-linecap="round" stroke-width=".23197"/>
  <circle transform="rotate(-27)" cx="19.744" cy="21.69" r=".38662" stroke="#e8eaec" stroke-linecap="round" stroke-width=".23197"/>
  <g transform="matrix(-.0021345 -.0017032 .0017324 -.0021711 34.928 8.5399)" stroke-width="265.08">
   <g fill="#e8eaec" stroke-width="265.08">
    <path d="m486.41 221.41-364.07-208.5c-52.938-30.318-95.852-5.44-95.852 55.563v415.65c0 61.004 42.914 85.882 95.852 55.563l364.07-208.49c52.938-30.317 52.938-79.473 0-109.79z" fill="#e8eaec" stroke-width="265.08"/>
   </g>
  </g>
  <g transform="matrix(-.0026959 -.00043503 .00044248 -.0027421 9.7071 11.919)" stroke-width="265.08">
   <g fill="#e8eaec" stroke-width="265.08">
    <path d="m486.41 221.41-364.07-208.5c-52.938-30.318-95.852-5.44-95.852 55.563v415.65c0 61.004 42.914 85.882 95.852 55.563l364.07-208.49c52.938-30.317 52.938-79.473 0-109.79z" fill="#e8eaec" stroke-width="265.08"/>
   </g>
  </g>
 </g>
</svg>
