<?xml version="1.0" encoding="UTF-8"?>
<svg width="203.26" height="129.97" version="1.1" viewBox="0 0 53.782 34.387" xmlns="http://www.w3.org/2000/svg" xmlns:cc="http://creativecommons.org/ns#" xmlns:dc="http://purl.org/dc/elements/1.1/" xmlns:rdf="http://www.w3.org/1999/02/22-rdf-syntax-ns#">
 <metadata>
  <rdf:RDF>
   <cc:Work rdf:about="">
    <dc:format>image/svg+xml</dc:format>
    <dc:type rdf:resource="http://purl.org/dc/dcmitype/StillImage"/>
    <dc:title/>
   </cc:Work>
  </rdf:RDF>
 </metadata>
 <g stroke-width=".26459px">
  <path d="m27.023 12.621 23.152 1.323-21.167 6.6148z" fill="#121824" stroke="#e9e56f"/>
  <path d="m23.716 2.0371-5.2918 27.782 25.136-6.6148z" fill="#1d232d" stroke="#6f8ce9"/>
  <path d="m29.008 20.559-21.167 6.6148-3.9689-15.876 23.152 1.323" fill="#121824" stroke="#e9e56f"/>
 </g>
 <g fill="#e8eaec">
  <circle transform="rotate(-27)" cx="-1.7573" cy="11.78" r=".57847"/>
  <circle transform="rotate(-27)" cx="-5.311" cy="27.873" r=".57847"/>
  <circle transform="rotate(-27)" cx="38.083" cy="35.101" r=".57847"/>
  <circle transform="rotate(-27)" cx="2.8408" cy="35.12" r=".57847"/>
  <circle transform="rotate(-27)" cx="20.169" cy="12.768" r=".57847"/>
  <circle transform="rotate(-27)" cx="28.373" cy="40.547" r=".57847"/>
  <circle transform="rotate(-27)" cx="16.435" cy="31.443" r=".57847"/>
  <g>
   <g aria-label="B">
    <path d="m5.965 28.575v2.6375h0.74509c0.17781 0 0.35984 0 0.54188-0.0762 0.28364-0.12277 0.44028-0.38101 0.44028-0.65196 0-0.30904-0.19897-0.58422-0.49108-0.68159 0.23284-0.09737 0.38948-0.33021 0.38948-0.57998 0-0.23707-0.13547-0.46568-0.38525-0.57152-0.16511-0.07197-0.33021-0.0762-0.49108-0.0762zm0.29211 0.25401h0.41488c0.1143 0 0.23284 0 0.35138 0.04657 0.17357 0.07197 0.26671 0.22014 0.26671 0.37254s-0.088903 0.29634-0.25401 0.36831c-0.12277 0.0508-0.24977 0.0508-0.36831 0.0508h-0.41065zm0 1.088h0.43181c0.13124 0 0.26248 0.0042 0.39371 0.06774 0.19474 0.0889 0.30058 0.27941 0.30058 0.46992s-0.1016 0.36408-0.28364 0.44875c-0.1143 0.0508-0.22437 0.0508-0.33868 0.0508h-0.50378z" fill="#e8eaec" stroke-width=".65147px"/>
   </g>
   <g aria-label="A">
    <path d="m0 11.108h0.29211l0.25824-0.77472h0.83399l0.29211 0.77049h0.30904l-1.0203-2.684h-0.033868zm1.3208-1.0033h-0.71546l0.34291-1.0033z" fill="#e8eaec" stroke-width=".65147px"/>
   </g>
   <g aria-label="C">
    <path d="m52.973 11.885c-0.41065 0-1.0033 0.30058-1.0033 1.3589 0 1.016 0.56728 1.3462 1.0033 1.3462 0.31328 0 0.60539-0.1651 0.77049-0.43605l-0.21591-0.1397c-0.12277 0.19897-0.33444 0.31751-0.53765 0.31751-0.38948 0-0.73239-0.40218-0.73239-1.1176 0-0.69852 0.33444-1.0922 0.70699-1.0922 0.20321 0 0.39795 0.12277 0.50378 0.30904 0.0085 0.0127 0.01693 0.0254 0.01693 0.04233 0 0.0127-0.0042 0.02117-0.0042 0.03387 0 0.0042 0 0.0254 0.02117 0.0381l0.27941-0.13547c-0.1397-0.31751-0.45722-0.52495-0.80859-0.52495z" fill="#e8eaec" stroke-width=".65147px"/>
   </g>
   <g aria-label="X">
    <path d="m20.327 31.751-0.54188 0.9991-0.55458-0.9991h-0.31751l0.70276 1.2954-0.71969 1.342h0.32598l0.56305-1.0414 0.58845 1.0414h0.33021l-0.74509-1.3505 0.66466-1.287z" fill="#e8eaec" stroke-width=".65147px"/>
   </g>
   <g aria-label="Y">
    <path d="m43.982 25.136 0.81283 1.6003v1.0372h0.32174v-1.0372l0.74509-1.6003h-0.31328l-0.58422 1.2785-0.64772-1.2785z" fill="#e8eaec" stroke-width=".65147px"/>
   </g>
   <g aria-label="Z">
    <path d="m26.48-5.2132e-4v0.26671h1.2785l-1.3293 2.1675v0.20744h1.7442v-0.28788c-0.0508-0.00847-0.06773 0.025401-0.127 0.025401h-1.2446l1.3039-2.1675 0.0042-0.21167z" fill="#e8eaec" stroke-width=".65147px"/>
   </g>
   <g aria-label="R">
    <path d="m29.548 21.167v2.6375h0.29634v-1.1642h0.51225l0.58422 1.1642h0.33444l-0.60962-1.1727c0.31751-0.0889 0.53765-0.38948 0.53765-0.74086 0-0.26248-0.13124-0.51225-0.37678-0.63502-0.1651-0.08467-0.33021-0.0889-0.50378-0.0889zm0.29634 0.27941h0.47838c0.11007 0 0.21591 0.0042 0.32598 0.05504 0.16511 0.08467 0.24978 0.25401 0.24978 0.42335 0 0.16934-0.08044 0.32598-0.23284 0.40218-0.1016 0.0508-0.20321 0.05504-0.30904 0.05504h-0.51225z" fill="#e8eaec" stroke-width=".65147px"/>
   </g>
   <g aria-label="Q">
    <path d="m28.781 9.7661c0.18627 0 0.41488 0.11007 0.54188 0.42335 0.09314 0.22437 0.10584 0.48262 0.10584 0.70276 0 0.87633-0.40641 1.0372-0.63079 1.0372-0.30904 0-0.66465-0.29634-0.66465-1.1303 0-0.77472 0.35984-1.033 0.64772-1.033zm0.9356 1.0922c0-0.24978-0.01693-0.57575-0.16087-0.85939-0.16934-0.34291-0.47415-0.49955-0.76202-0.49955-0.39371 0-0.9483 0.30481-0.9483 1.342 0 0.93983 0.44875 1.2954 0.82976 1.3547 0 0.24131 0.0635 0.42335 0.25401 0.51648 0.1651 0.08044 0.35138 0.0635 0.65619 0.0635l0.0042-0.28788c-0.13124 0.0085-0.24554 0.0254-0.34291 0.0254-0.26248 0-0.30481-0.17357-0.30904-0.32174 0.24131-0.04234 0.47415-0.20321 0.62232-0.49532 0.1397-0.27941 0.15664-0.60962 0.15664-0.83823z" fill="#e8eaec" stroke-width=".65147px"/>
   </g>
  </g>
 </g>
 <path d="m27.023 12.621 1.9844 7.9378" fill="#1d232d" stroke="#e9e56f" stroke-dasharray="0.793776, 0.793776" stroke-width=".26459"/>
 <circle transform="rotate(-27)" cx="18.388" cy="23.529" r=".57847" fill="#e8eaec"/>
</svg>
