<?xml version="1.0" encoding="UTF-8"?>
<svg width="13.229mm" height="13.229mm" version="1.1" viewBox="0 0 13.229 13.229" xmlns="http://www.w3.org/2000/svg" xmlns:cc="http://creativecommons.org/ns#" xmlns:dc="http://purl.org/dc/elements/1.1/" xmlns:rdf="http://www.w3.org/1999/02/22-rdf-syntax-ns#">
 <metadata>
  <rdf:RDF>
   <cc:Work rdf:about="">
    <dc:format>image/svg+xml</dc:format>
    <dc:type rdf:resource="http://purl.org/dc/dcmitype/StillImage"/>
    <dc:title/>
   </cc:Work>
  </rdf:RDF>
 </metadata>
 <g transform="translate(-194.24 -111.42)">
  <circle cx="200.86" cy="118.04" r="6.6146" fill="#a6aeb8"/>
  <circle cx="200.86" cy="118.04" r="4.053" fill="#7b8694"/>
  <circle cx="200.86" cy="118.04" r="1.7049" fill="#535e70"/>
  <g fill="#1d232d">
   <g transform="matrix(.26458 0 0 .26458 -55.128 -166.26)">
    <circle cx="983.09" cy="1069" r=".831" style="paint-order:fill markers stroke"/>
    <path d="m982.19 1068.1 0.8151 0.2764 0.6898-0.5148-0.011 0.8606 0.70272 0.497-0.8219 0.2555-0.25549 0.8219-0.49696-0.7027-0.86063 0.011 0.51477-0.6898z"/>
   </g>
   <g transform="matrix(.26458 0 0 .26458 -57.774 -168.91)">
    <circle cx="983.09" cy="1069" r=".831" style="paint-order:fill markers stroke"/>
    <path d="m982.19 1068.1 0.8151 0.2764 0.6898-0.5148-0.011 0.8606 0.70272 0.497-0.8219 0.2555-0.25549 0.8219-0.49696-0.7027-0.86063 0.011 0.51477-0.6898z"/>
   </g>
   <g transform="matrix(.26458 0 0 .26458 -60.419 -166.26)">
    <circle cx="983.09" cy="1069" r=".831" style="paint-order:fill markers stroke"/>
    <path d="m982.19 1068.1 0.8151 0.2764 0.6898-0.5148-0.011 0.8606 0.70272 0.497-0.8219 0.2555-0.25549 0.8219-0.49696-0.7027-0.86063 0.011 0.51477-0.6898z"/>
   </g>
   <g transform="matrix(.26458 0 0 .26458 -57.774 -163.61)">
    <circle cx="983.09" cy="1069" r=".831" style="paint-order:fill markers stroke"/>
    <path d="m982.19 1068.1 0.8151 0.2764 0.6898-0.5148-0.011 0.8606 0.70272 0.497-0.8219 0.2555-0.25549 0.8219-0.49696-0.7027-0.86063 0.011 0.51477-0.6898z"/>
   </g>
   <g transform="matrix(.26458 0 0 .26458 -60.419 -160.97)">
    <circle cx="983.09" cy="1069" r=".831" style="paint-order:fill markers stroke"/>
    <path d="m982.19 1068.1 0.8151 0.2764 0.6898-0.5148-0.011 0.8606 0.70272 0.497-0.8219 0.2555-0.25549 0.8219-0.49696-0.7027-0.86063 0.011 0.51477-0.6898z"/>
   </g>
   <g transform="matrix(.26458 0 0 .26458 -63.065 -163.61)">
    <circle cx="983.09" cy="1069" r=".831" style="paint-order:fill markers stroke"/>
    <path d="m982.19 1068.1 0.8151 0.2764 0.6898-0.5148-0.011 0.8606 0.70272 0.497-0.8219 0.2555-0.25549 0.8219-0.49696-0.7027-0.86063 0.011 0.51477-0.6898z"/>
   </g>
   <g transform="matrix(.26458 0 0 .26458 -63.065 -166.26)">
    <circle cx="983.09" cy="1069" r=".831" style="paint-order:fill markers stroke"/>
    <path d="m982.19 1068.1 0.8151 0.2764 0.6898-0.5148-0.011 0.8606 0.70272 0.497-0.8219 0.2555-0.25549 0.8219-0.49696-0.7027-0.86063 0.011 0.51477-0.6898z"/>
   </g>
   <g transform="matrix(.26458 0 0 .26458 -60.419 -168.91)">
    <circle cx="983.09" cy="1069" r=".831" style="paint-order:fill markers stroke"/>
    <path d="m982.19 1068.1 0.8151 0.2764 0.6898-0.5148-0.011 0.8606 0.70272 0.497-0.8219 0.2555-0.25549 0.8219-0.49696-0.7027-0.86063 0.011 0.51477-0.6898z"/>
   </g>
   <g transform="matrix(.26458 0 0 .26458 -56.715 -167.32)">
    <circle cx="983.09" cy="1069" r=".831" style="paint-order:fill markers stroke"/>
    <path d="m982.19 1068.1 0.8151 0.2764 0.6898-0.5148-0.011 0.8606 0.70272 0.497-0.8219 0.2555-0.25549 0.8219-0.49696-0.7027-0.86063 0.011 0.51477-0.6898z"/>
   </g>
   <g transform="matrix(.26458 0 0 .26458 -59.361 -169.96)">
    <circle cx="983.09" cy="1069" r=".831" style="paint-order:fill markers stroke"/>
    <path d="m982.19 1068.1 0.8151 0.2764 0.6898-0.5148-0.011 0.8606 0.70272 0.497-0.8219 0.2555-0.25549 0.8219-0.49696-0.7027-0.86063 0.011 0.51477-0.6898z"/>
   </g>
   <g transform="matrix(.26458 0 0 .26458 -62.007 -167.32)">
    <circle cx="983.09" cy="1069" r=".831" style="paint-order:fill markers stroke"/>
    <path d="m982.19 1068.1 0.8151 0.2764 0.6898-0.5148-0.011 0.8606 0.70272 0.497-0.8219 0.2555-0.25549 0.8219-0.49696-0.7027-0.86063 0.011 0.51477-0.6898z"/>
   </g>
   <g transform="matrix(.26458 0 0 .26458 -64.653 -164.67)">
    <circle cx="983.09" cy="1069" r=".831" style="paint-order:fill markers stroke"/>
    <path d="m982.19 1068.1 0.8151 0.2764 0.6898-0.5148-0.011 0.8606 0.70272 0.497-0.8219 0.2555-0.25549 0.8219-0.49696-0.7027-0.86063 0.011 0.51477-0.6898z"/>
   </g>
   <g transform="matrix(.26458 0 0 .26458 -62.007 -162.03)">
    <circle cx="983.09" cy="1069" r=".831" style="paint-order:fill markers stroke"/>
    <path d="m982.19 1068.1 0.8151 0.2764 0.6898-0.5148-0.011 0.8606 0.70272 0.497-0.8219 0.2555-0.25549 0.8219-0.49696-0.7027-0.86063 0.011 0.51477-0.6898z"/>
   </g>
   <g transform="matrix(.26458 0 0 .26458 -62.007 -159.38)">
    <circle cx="983.09" cy="1069" r=".831" style="paint-order:fill markers stroke"/>
    <path d="m982.19 1068.1 0.8151 0.2764 0.6898-0.5148-0.011 0.8606 0.70272 0.497-0.8219 0.2555-0.25549 0.8219-0.49696-0.7027-0.86063 0.011 0.51477-0.6898z"/>
   </g>
   <g transform="matrix(.26458 0 0 .26458 -59.361 -162.03)">
    <circle cx="983.09" cy="1069" r=".831" style="paint-order:fill markers stroke"/>
    <path d="m982.19 1068.1 0.8151 0.2764 0.6898-0.5148-0.011 0.8606 0.70272 0.497-0.8219 0.2555-0.25549 0.8219-0.49696-0.7027-0.86063 0.011 0.51477-0.6898z"/>
   </g>
   <g transform="matrix(.26458 0 0 .26458 -56.715 -159.38)">
    <circle cx="983.09" cy="1069" r=".831" style="paint-order:fill markers stroke"/>
    <path d="m982.19 1068.1 0.8151 0.2764 0.6898-0.5148-0.011 0.8606 0.70272 0.497-0.8219 0.2555-0.25549 0.8219-0.49696-0.7027-0.86063 0.011 0.51477-0.6898z"/>
   </g>
   <g transform="matrix(.26458 0 0 .26458 -54.069 -162.03)">
    <circle cx="983.09" cy="1069" r=".831" style="paint-order:fill markers stroke"/>
    <path d="m982.19 1068.1 0.8151 0.2764 0.6898-0.5148-0.011 0.8606 0.70272 0.497-0.8219 0.2555-0.25549 0.8219-0.49696-0.7027-0.86063 0.011 0.51477-0.6898z"/>
   </g>
   <g transform="matrix(.26458 0 0 .26458 -55.922 -163.88)">
    <circle cx="983.09" cy="1069" r=".831" style="paint-order:fill markers stroke"/>
    <path d="m982.19 1068.1 0.8151 0.2764 0.6898-0.5148-0.011 0.8606 0.70272 0.497-0.8219 0.2555-0.25549 0.8219-0.49696-0.7027-0.86063 0.011 0.51477-0.6898z"/>
   </g>
   <g transform="matrix(.26458 0 0 .26458 -58.038 -160.97)">
    <circle cx="983.09" cy="1069" r=".831" style="paint-order:fill markers stroke"/>
    <path d="m982.19 1068.1 0.8151 0.2764 0.6898-0.5148-0.011 0.8606 0.70272 0.497-0.8219 0.2555-0.25549 0.8219-0.49696-0.7027-0.86063 0.011 0.51477-0.6898z"/>
   </g>
   <g transform="matrix(.26458 0 0 .26458 -61.213 -163.88)">
    <circle cx="983.09" cy="1069" r=".831" style="paint-order:fill markers stroke"/>
    <path d="m982.19 1068.1 0.8151 0.2764 0.6898-0.5148-0.011 0.8606 0.70272 0.497-0.8219 0.2555-0.25549 0.8219-0.49696-0.7027-0.86063 0.011 0.51477-0.6898z"/>
   </g>
   <g transform="matrix(.26458 0 0 .26458 -58.303 -165.2)">
    <circle cx="983.09" cy="1069" r=".831" style="paint-order:fill markers stroke"/>
    <path d="m982.19 1068.1 0.8151 0.2764 0.6898-0.5148-0.011 0.8606 0.70272 0.497-0.8219 0.2555-0.25549 0.8219-0.49696-0.7027-0.86063 0.011 0.51477-0.6898z"/>
   </g>
   <g transform="matrix(.26458 0 0 .26458 -55.657 -169.17)">
    <circle cx="983.09" cy="1069" r=".831" style="paint-order:fill markers stroke"/>
    <path d="m982.19 1068.1 0.8151 0.2764 0.6898-0.5148-0.011 0.8606 0.70272 0.497-0.8219 0.2555-0.25549 0.8219-0.49696-0.7027-0.86063 0.011 0.51477-0.6898z"/>
   </g>
   <g transform="matrix(.26458 0 0 .26458 -53.805 -164.67)">
    <circle cx="983.09" cy="1069" r=".831" style="paint-order:fill markers stroke"/>
    <path d="m982.19 1068.1 0.8151 0.2764 0.6898-0.5148-0.011 0.8606 0.70272 0.497-0.8219 0.2555-0.25549 0.8219-0.49696-0.7027-0.86063 0.011 0.51477-0.6898z"/>
   </g>
   <g transform="matrix(.26458 0 0 .26458 -56.186 -161.23)">
    <circle cx="983.09" cy="1069" r=".831" style="paint-order:fill markers stroke"/>
    <path d="m982.19 1068.1 0.8151 0.2764 0.6898-0.5148-0.011 0.8606 0.70272 0.497-0.8219 0.2555-0.25549 0.8219-0.49696-0.7027-0.86063 0.011 0.51477-0.6898z"/>
   </g>
   <g transform="matrix(.26458 0 0 .26458 -62.536 -169.17)">
    <circle cx="983.09" cy="1069" r=".831" style="paint-order:fill markers stroke"/>
    <path d="m982.19 1068.1 0.8151 0.2764 0.6898-0.5148-0.011 0.8606 0.70272 0.497-0.8219 0.2555-0.25549 0.8219-0.49696-0.7027-0.86063 0.011 0.51477-0.6898z"/>
   </g>
   <g transform="matrix(.26458 0 0 .26458 -64.124 -161.5)">
    <circle cx="983.09" cy="1069" r=".831" style="paint-order:fill markers stroke"/>
    <path d="m982.19 1068.1 0.8151 0.2764 0.6898-0.5148-0.011 0.8606 0.70272 0.497-0.8219 0.2555-0.25549 0.8219-0.49696-0.7027-0.86063 0.011 0.51477-0.6898z"/>
   </g>
  </g>
 </g>
</svg>
