<svg width="52.937mm" height="52.331mm" version="1.1" viewBox="0 0 52.937 52.331" xmlns="http://www.w3.org/2000/svg">
 <g transform="translate(-65.068 -13.366)">
  <g fill="#2f3744" stroke="#535e70" stroke-dashoffset="1.2" stroke-linecap="round" stroke-miterlimit="40">
   <g stroke-width=".13229">
    <path d="m79.445 15.028v44.715"/>
    <path d="m84.737 15.028v44.715"/>
    <path d="m90.029 15.028v44.715"/>
    <path d="m95.32 15.028v44.715"/>
   </g>
   <path d="m100.61 15.028v44.715" stroke-width=".26458"/>
   <g stroke-width=".13229">
    <path d="m105.9 15.028v44.715"/>
    <path d="m111.2 15.028v44.715"/>
    <path d="m116.49 15.028v44.715"/>
    <path d="m71.111 51.937h45.244"/>
    <path d="m71.111 46.645h45.244"/>
    <path d="m71.111 41.354h45.244"/>
    <path d="m71.111 36.062h45.244"/>
   </g>
   <path d="m71.111 30.77h45.244" stroke-width=".26458"/>
   <g stroke-width=".13229">
    <path d="m71.111 25.479h45.244"/>
    <path d="m71.111 20.187h45.244"/>
    <path d="m71.111 14.895h45.244"/>
   </g>
   <g stroke-width=".066146">
    <path d="m76.799 15.028v42.069"/>
    <path d="m82.091 15.028v42.069"/>
    <path d="m87.383 15.028v42.069"/>
    <path d="m92.674 15.028v42.069"/>
    <path d="m97.966 15.028v42.069"/>
    <path d="m103.26 15.028v42.069"/>
    <path d="m108.55 15.028v42.069"/>
    <path d="m113.84 15.028v42.069"/>
    <path d="m74.021 17.541h42.333"/>
    <path d="m74.021 22.833h42.333"/>
    <path d="m74.021 28.125h42.333"/>
    <path d="m74.021 33.416h42.333"/>
    <path d="m74.021 38.708h42.333"/>
    <path d="m74.021 44h42.333"/>
    <path d="m74.021 49.291h42.333"/>
    <path d="m74.021 54.583h42.333"/>
   </g>
  </g>
  <g fill="#d2d6dc">
   <path d="m74.154 15.028v44.715" stroke="#d2d6dc" stroke-dashoffset="1.2" stroke-linecap="round" stroke-miterlimit="40" stroke-width=".52917"/>
   <path d="m71.376 57.229h44.979" stroke="#d2d6dc" stroke-dashoffset="1.2" stroke-linecap="round" stroke-miterlimit="40" stroke-width=".52917"/>
   <g transform="matrix(0 -.0031774 -.0032318 0 75.047 15.038)" stroke-width="82.566">
    <g fill="#d2d6dc" stroke-width="82.566">
     <path d="m486.41 221.41-364.07-208.5c-52.938-30.318-95.852-5.44-95.852 55.563v415.65c0 61.004 42.914 85.882 95.852 55.563l364.07-208.49c52.938-30.317 52.938-79.473 0-109.79z" fill="#d2d6dc" stroke-width="82.566"/>
    </g>
   </g>
   <g transform="matrix(.0031774 0 0 -.0032318 116.33 58.099)" stroke-width="82.566">
    <g fill="#d2d6dc" stroke-width="82.566">
     <path d="m486.41 221.41-364.07-208.5c-52.938-30.318-95.852-5.44-95.852 55.563v415.65c0 61.004 42.914 85.882 95.852 55.563l364.07-208.49c52.938-30.317 52.938-79.473 0-109.79z" fill="#d2d6dc" stroke-width="82.566"/>
    </g>
   </g>
   <g stroke="#47d58a" stroke-dashoffset="1.2" stroke-linecap="round" stroke-width=".26458">
    <path d="m74.154 51.939 37.042-37.042"/>
    <path d="m79.445 57.231 37.042-37.042"/>
    <path d="m116.49 57.231-18.521-18.521"/>
    <path d="m74.154 14.898 18.521 18.521"/>
   </g>
  </g>
  <g fill="#e8eaec" stroke-linecap="round" stroke-width=".26458">
   <g aria-label="Skill">
    <path d="m91.631 65.338c0.21114 0.21855 0.50747 0.3593 0.84825 0.3593 0.51118 0 0.82973-0.30745 0.82973-0.69268 0-0.3593-0.21855-0.52599-0.50006-0.64823l-0.34819-0.14817c-0.18891-0.08149-0.40375-0.17039-0.40375-0.40376 0-0.21854 0.1815-0.3556 0.45561-0.3556 0.22225 0 0.40375 0.0889 0.55192 0.22966l0.16298-0.20002c-0.17039-0.1778-0.42598-0.30004-0.7149-0.30004-0.4408 0-0.76676 0.27411-0.76676 0.64452 0 0.3556 0.2667 0.5297 0.49265 0.626l0.34819 0.15187c0.22966 0.10372 0.40746 0.1815 0.40746 0.42968 0 0.23707-0.18891 0.39634-0.50747 0.39634-0.25559 0-0.49636-0.12224-0.67046-0.30374z"/>
    <path d="m93.747 65.653h0.30004v-0.47413l0.33708-0.39264 0.52599 0.86678h0.33338l-0.68527-1.0779 0.60378-0.72231h-0.33708l-0.76676 0.94827h-0.01111v-1.7854h-0.30004z"/>
    <path d="m95.733 63.483c0.11853 0 0.21114-0.08149 0.21114-0.19632 0-0.11853-0.0926-0.19632-0.21114-0.19632-0.11853 0-0.21114 0.07779-0.21114 0.19632 0 0.11483 0.0926 0.19632 0.21114 0.19632zm-0.15558 2.1706h0.30374v-1.8002h-0.30374z"/>
    <path d="m96.489 65.29c0 0.263 0.0926 0.40746 0.32226 0.40746 0.08149 0 0.13335-0.01111 0.1741-0.02963l-0.04075-0.22966c-0.03334 0.0074-0.04815 0.0074-0.06667 0.0074-0.04445 0-0.0852-0.03704-0.0852-0.13335v-2.2966h-0.30374z"/>
    <path d="m97.437 65.29c0 0.263 0.0926 0.40746 0.32226 0.40746 0.08149 0 0.13335-0.01111 0.1741-0.02963l-0.04075-0.22966c-0.03334 0.0074-0.04816 0.0074-0.06668 0.0074-0.04445 0-0.0852-0.03704-0.0852-0.13335v-2.2966h-0.30374z"/>
   </g>
   <g transform="rotate(-90)" aria-label="Difficulty">
    <path d="m-43.13 67.75h0.6223c0.73342 0 1.1335-0.45191 1.1335-1.2261 0-0.77047-0.40005-1.2039-1.1483-1.2039h-0.60748zm0.31115-0.25188v-1.9262h0.27411c0.57044 0 0.85196 0.34078 0.85196 0.95197 0 0.61489-0.28152 0.9742-0.85196 0.9742z"/>
    <path d="m-40.728 65.579c0.11853 0 0.21114-0.08149 0.21114-0.19632 0-0.11853-0.0926-0.19632-0.21114-0.19632-0.11853 0-0.21114 0.07779-0.21114 0.19632 0 0.11483 0.0926 0.19632 0.21114 0.19632zm-0.15558 2.1706h0.30374v-1.8002h-0.30374z"/>
    <path d="m-38.042 65.127c-0.08149-0.03334-0.18891-0.05927-0.30004-0.05927-0.3593 0-0.52599 0.22966-0.52599 0.59637v0.28522h-0.74824v-0.22966c0-0.23707 0.10372-0.36671 0.28152-0.36671 0.0889 0 0.16298 0.01482 0.24077 0.04815l0.06297-0.22966c-0.0889-0.04075-0.21114-0.06668-0.32967-0.06668-0.37412 0-0.55933 0.23336-0.55933 0.60748v0.23707l-0.24448 0.01852v0.22966h0.24448v1.552h0.30374v-1.552h0.74824v1.552h0.30374v-1.552h0.38153v-0.24818h-0.38153v-0.28522c0-0.22966 0.0852-0.34819 0.25559-0.34819 0.06297 0 0.13335 0.01482 0.20373 0.04445z"/>
    <path d="m-37.689 65.579c0.11853 0 0.21114-0.08149 0.21114-0.19632 0-0.11853-0.0926-0.19632-0.21114-0.19632-0.11853 0-0.21114 0.07779-0.21114 0.19632 0 0.11483 0.0926 0.19632 0.21114 0.19632zm-0.15558 2.1706h0.30374v-1.8002h-0.30374z"/>
    <path d="m-37.067 66.853c0 0.59637 0.36671 0.94086 0.84455 0.94086 0.21484 0 0.42228-0.0889 0.58526-0.23336l-0.13705-0.20002c-0.10742 0.09631-0.25188 0.1815-0.42228 0.1815-0.32967 0-0.55562-0.27781-0.55562-0.68898 0-0.41487 0.23707-0.69638 0.56303-0.69638 0.14446 0 0.25559 0.06667 0.36301 0.15928l0.15187-0.19632c-0.12224-0.11483-0.28892-0.21484-0.52599-0.21484-0.46302 0-0.86678 0.34449-0.86678 0.94827z"/>
    <path d="m-35.274 67.09c0 0.45932 0.17039 0.70379 0.55192 0.70379 0.24818 0 0.42598-0.12965 0.59267-0.32597h0.01111l0.02593 0.28152h0.25188v-1.8002h-0.30374v1.2779c-0.17039 0.21114-0.30004 0.30374-0.48525 0.30374-0.23707 0-0.33708-0.14446-0.33708-0.48154v-1.1001h-0.30745z"/>
    <path d="m-33.229 67.387c0 0.263 0.0926 0.40746 0.32226 0.40746 0.08149 0 0.13335-0.01111 0.1741-0.02963l-0.04075-0.22966c-0.03334 0.0074-0.04816 0.0074-0.06668 0.0074-0.04445 0-0.0852-0.03704-0.0852-0.13335v-2.2966h-0.30374z"/>
    <path d="m-32.23 67.194c0 0.3556 0.12964 0.60008 0.51488 0.60008 0.11112 0 0.23336-0.03334 0.33338-0.06667l-0.05927-0.22966c-0.05927 0.02222-0.14076 0.04815-0.20373 0.04815-0.20743 0-0.27781-0.12594-0.27781-0.34819v-1.0001h0.48525v-0.24818h-0.48525v-0.50377h-0.25559l-0.03704 0.50377-0.28152 0.01852v0.22966h0.2667z"/>
    <path d="m-31.152 68.246-0.05927 0.24077c0.05927 0.02222 0.12965 0.03704 0.21114 0.03704 0.36301 0 0.54822-0.2704 0.67416-0.626l0.67786-1.9484h-0.29633l-0.32226 0.99642c-0.04815 0.15928-0.10001 0.34449-0.15187 0.50747h-0.01482c-0.05556-0.16669-0.11853-0.3519-0.1741-0.50747l-0.36671-0.99642h-0.31485l0.72231 1.8039-0.04075 0.13335c-0.07408 0.22225-0.20373 0.38523-0.40746 0.38523-0.04445 0-0.10001-0.01482-0.13705-0.02593z"/>
   </g>
   <g aria-label="Relaxation">
    <path d="m102.08 38.119h0.34925c0.32385 0 0.50165 0.09842 0.50165 0.37148 0 0.26988-0.1778 0.40322-0.50165 0.40322h-0.34925zm1.1779 1.8701-0.53023-0.90805c0.28258-0.07303 0.46673-0.2667 0.46673-0.59055 0-0.4318-0.3048-0.5842-0.72708-0.5842h-0.65405v2.0828h0.2667v-0.87948h0.37465l0.50165 0.87948z"/>
    <path d="m103.48 39.22c0 0.50482 0.32702 0.80645 0.73977 0.80645 0.20955 0 0.37465-0.07303 0.508-0.15875l-0.0921-0.17145c-0.1143 0.07303-0.23813 0.12065-0.38418 0.12065-0.29527 0-0.4953-0.20955-0.51435-0.54292h1.0414c6e-3 -0.0381 0.01-0.0889 0.01-0.14288 0-0.44132-0.22225-0.7239-0.61595-0.7239-0.35243 0-0.69215 0.30798-0.69215 0.8128zm0.254-0.11748c0.0318-0.31115 0.2286-0.48895 0.4445-0.48895 0.2413 0 0.381 0.17462 0.381 0.48895z"/>
    <path d="m105.17 39.677c0 0.22542 0.0794 0.34925 0.27622 0.34925 0.0699 0 0.1143-0.0095 0.14923-0.0254l-0.0349-0.19685c-0.0286 0.0063-0.0413 0.0063-0.0572 0.0063-0.0381 0-0.073-0.03175-0.073-0.1143v-1.9685h-0.26035z"/>
    <path d="m105.91 39.589c0 0.27622 0.19368 0.43815 0.45403 0.43815 0.1905 0 0.36195-0.1016 0.51117-0.22225h6e-3l0.0222 0.18415h0.2159v-0.94615c0-0.38418-0.15875-0.635-0.53658-0.635-0.24765 0-0.46355 0.10795-0.60642 0.20002l0.10477 0.18098c0.12065-0.08255 0.2794-0.1651 0.46038-0.1651 0.25082 0 0.3175 0.1905 0.3175 0.38735-0.65723 0.07303-0.94933 0.2413-0.94933 0.57785zm0.25718-0.01905c0-0.19685 0.17462-0.32385 0.69215-0.38735v0.42862c-0.14923 0.13335-0.27305 0.20638-0.42228 0.20638-0.1524 0-0.26987-0.07303-0.26987-0.24765z"/>
    <path d="m107.39 39.989h0.27305l0.20955-0.35878c0.0508-0.09525 0.1016-0.18732 0.15557-0.27622h0.0127c0.0571 0.0889 0.1143 0.18415 0.16828 0.27622l0.22542 0.35878h0.28258l-0.50165-0.77788 0.46672-0.76518h-0.27305l-0.18732 0.33972c-0.0476 0.08255-0.0952 0.17145-0.1397 0.25718h-0.0127c-0.054-0.08572-0.10478-0.17462-0.1524-0.25718l-0.20638-0.33972h-0.28257l0.46672 0.7366z"/>
    <path d="m108.91 39.589c0 0.27622 0.19367 0.43815 0.45402 0.43815 0.1905 0 0.36195-0.1016 0.51118-0.22225h6e-3l0.0222 0.18415h0.2159v-0.94615c0-0.38418-0.15875-0.635-0.53657-0.635-0.24765 0-0.46355 0.10795-0.60643 0.20002l0.10478 0.18098c0.12065-0.08255 0.2794-0.1651 0.46037-0.1651 0.25083 0 0.3175 0.1905 0.3175 0.38735-0.65722 0.07303-0.94932 0.2413-0.94932 0.57785zm0.25717-0.01905c0-0.19685 0.17463-0.32385 0.69215-0.38735v0.42862c-0.14922 0.13335-0.27305 0.20638-0.42227 0.20638-0.1524 0-0.26988-0.07303-0.26988-0.24765z"/>
    <path d="m110.66 39.512c0 0.3048 0.11112 0.51435 0.44132 0.51435 0.0952 0 0.20003-0.02858 0.28575-0.05715l-0.0508-0.19685c-0.0508 0.01905-0.12065 0.04128-0.17462 0.04128-0.1778 0-0.23813-0.10795-0.23813-0.29845v-0.85725h0.41593v-0.21272h-0.41593v-0.4318h-0.21907l-0.0317 0.4318-0.2413 0.01588v0.19685h0.2286z"/>
    <path d="m111.82 38.128c0.1016 0 0.18097-0.06985 0.18097-0.16828 0-0.1016-0.0794-0.16828-0.18097-0.16828-0.1016 0-0.18098 0.06667-0.18098 0.16828 0 0.09843 0.0794 0.16828 0.18098 0.16828zm-0.13335 1.8606h0.26035v-1.543h-0.26035z"/>
    <path d="m112.36 39.22c0 0.51118 0.33655 0.80645 0.71437 0.80645 0.37783 0 0.71438-0.29528 0.71438-0.80645 0-0.51752-0.33655-0.8128-0.71438-0.8128-0.37782 0-0.71437 0.29528-0.71437 0.8128zm0.26987 0c0-0.3556 0.18098-0.5969 0.4445-0.5969 0.2667 0 0.4445 0.2413 0.4445 0.5969 0 0.35242-0.1778 0.59055-0.4445 0.59055-0.26352 0-0.4445-0.23812-0.4445-0.59055z"/>
    <path d="m114.19 39.989h0.26035v-1.1176c0.15558-0.15558 0.26353-0.23812 0.42228-0.23812 0.2032 0 0.2921 0.12382 0.2921 0.41275v0.94298h0.26035v-0.9779c0-0.3937-0.14605-0.60325-0.4699-0.60325-0.21273 0-0.37148 0.1143-0.51753 0.26035h-0.01l-0.0222-0.22225h-0.2159z"/>
   </g>
   <g aria-label="Boredom">
    <path d="m91.494 50.572h0.66675c0.46355 0 0.7874-0.20002 0.7874-0.6096 0-0.28575-0.1778-0.45085-0.4826-0.49848v-0.0127c0.24765-0.0635 0.36512-0.24765 0.36512-0.45402 0-0.36512-0.29528-0.508-0.71755-0.508h-0.61912zm0.2667-1.1938v-0.67945h0.32068c0.32068 0 0.48895 0.09525 0.48895 0.32068 0 0.23178-0.14922 0.35878-0.50165 0.35878zm0 0.98425v-0.7874h0.36195c0.36512 0 0.56515 0.11748 0.56515 0.37465 0 0.28258-0.20955 0.41275-0.56515 0.41275z"/>
    <path d="m93.218 49.804c0 0.51118 0.33655 0.80645 0.71438 0.80645s0.71438-0.29528 0.71438-0.80645c0-0.51752-0.33655-0.8128-0.71438-0.8128s-0.71438 0.29528-0.71438 0.8128zm0.26988 0c0-0.3556 0.18098-0.5969 0.4445-0.5969 0.2667 0 0.4445 0.2413 0.4445 0.5969 0 0.35242-0.1778 0.59055-0.4445 0.59055-0.26352 0-0.4445-0.23812-0.4445-0.59055z"/>
    <path d="m95.057 50.572h0.26035v-0.9906c0.10478-0.26035 0.26035-0.3556 0.39052-0.3556 0.0635 0 0.09842 0.0095 0.14922 0.0254l0.0508-0.2286c-0.0508-0.02222-0.09843-0.03175-0.1651-0.03175-0.17462 0-0.33338 0.12382-0.43815 0.3175h-0.0095l-0.02223-0.2794h-0.2159z"/>
    <path d="m96.015 49.804c0 0.50482 0.32702 0.80645 0.73978 0.80645 0.20955 0 0.37465-0.07303 0.508-0.15875l-0.09208-0.17145c-0.1143 0.07303-0.23812 0.12065-0.38418 0.12065-0.29528 0-0.4953-0.20955-0.51435-0.54292h1.0414c0.0063-0.0381 0.0095-0.0889 0.0095-0.14288 0-0.44132-0.22225-0.7239-0.61595-0.7239-0.35242 0-0.69215 0.30798-0.69215 0.8128zm0.254-0.11748c0.03175-0.31115 0.2286-0.48895 0.4445-0.48895 0.2413 0 0.381 0.17462 0.381 0.48895z"/>
    <path d="m97.593 49.804c0 0.51435 0.25082 0.80645 0.63818 0.80645 0.18098 0 0.34608-0.1016 0.46672-0.21908h0.0095l0.02223 0.18098h0.2159v-2.2606h-0.26352v0.59372l0.0127 0.26352c-0.13652-0.11112-0.254-0.1778-0.4318-0.1778-0.35242 0-0.66992 0.31115-0.66992 0.8128zm0.26988-0.0032c0-0.35242 0.19685-0.59055 0.4445-0.59055 0.127 0 0.24448 0.04445 0.37465 0.16192v0.80645c-0.127 0.14288-0.25082 0.21272-0.3937 0.21272-0.26988 0-0.42545-0.22225-0.42545-0.59055z"/>
    <path d="m99.351 49.804c0 0.51118 0.33655 0.80645 0.71437 0.80645 0.37783 0 0.71438-0.29528 0.71438-0.80645 0-0.51752-0.33655-0.8128-0.71438-0.8128-0.37782 0-0.71437 0.29528-0.71437 0.8128zm0.26988 0c0-0.3556 0.18098-0.5969 0.4445-0.5969 0.2667 0 0.4445 0.2413 0.4445 0.5969 0 0.35242-0.1778 0.59055-0.4445 0.59055-0.26352 0-0.4445-0.23812-0.4445-0.59055z"/>
    <path d="m101.19 50.572h0.26035v-1.1176c0.14287-0.15875 0.27305-0.23812 0.38735-0.23812 0.19685 0 0.28892 0.12382 0.28892 0.41275v0.94298h0.26035v-1.1176c0.14288-0.15875 0.2667-0.23812 0.38735-0.23812 0.19368 0 0.28575 0.12382 0.28575 0.41275v0.94298h0.26035v-0.9779c0-0.3937-0.1524-0.60325-0.4699-0.60325-0.18732 0-0.34607 0.12065-0.508 0.29528-0.0635-0.18415-0.1905-0.29528-0.42545-0.29528-0.18415 0-0.34607 0.1143-0.47942 0.26035h-0.01l-0.0222-0.22225h-0.2159z"/>
   </g>
   <g aria-label="Anxiety">
    <path d="m76.938 33.055 0.1016-0.3175c0.07303-0.23178 0.1397-0.46038 0.20638-0.70168h0.0127c0.06668 0.2413 0.13335 0.4699 0.20638 0.70168l0.09843 0.3175zm0.89218 0.84772h0.2794l-0.70485-2.0828h-0.29845l-0.70485 2.0828h0.26988l0.20002-0.635h0.75882z"/>
    <path d="m78.367 33.903h0.26035v-1.1176c0.15558-0.15558 0.26352-0.23812 0.42228-0.23812 0.2032 0 0.2921 0.12382 0.2921 0.41275v0.94298h0.26035v-0.9779c0-0.3937-0.14605-0.60325-0.4699-0.60325-0.21272 0-0.37148 0.1143-0.51752 0.26035h-0.0095l-0.02223-0.22225h-0.2159z"/>
    <path d="m79.888 33.903h0.27305l0.20955-0.35878c0.0508-0.09525 0.1016-0.18732 0.15558-0.27622h0.0127c0.05715 0.0889 0.1143 0.18415 0.16828 0.27622l0.22542 0.35878h0.28258l-0.50165-0.77788 0.46672-0.76518h-0.27305l-0.18732 0.33972c-0.04763 0.08255-0.09525 0.17145-0.1397 0.25718h-0.0127c-0.05398-0.08572-0.10478-0.17462-0.1524-0.25718l-0.20638-0.33972h-0.28258l0.46672 0.7366z"/>
    <path d="m81.651 32.043c0.1016 0 0.18098-0.06985 0.18098-0.16828 0-0.1016-0.07937-0.16828-0.18098-0.16828-0.1016 0-0.18098 0.06668-0.18098 0.16828 0 0.09843 0.07938 0.16828 0.18098 0.16828zm-0.13335 1.8606h0.26035v-1.543h-0.26035z"/>
    <path d="m82.184 33.135c0 0.50482 0.32702 0.80645 0.73978 0.80645 0.20955 0 0.37465-0.07303 0.508-0.15875l-0.09208-0.17145c-0.1143 0.07302-0.23812 0.12065-0.38418 0.12065-0.29528 0-0.4953-0.20955-0.51435-0.54292h1.0414c0.0063-0.0381 0.0095-0.0889 0.0095-0.14288 0-0.44132-0.22225-0.7239-0.61595-0.7239-0.35242 0-0.69215 0.30798-0.69215 0.8128zm0.254-0.11748c0.03175-0.31115 0.2286-0.48895 0.4445-0.48895 0.2413 0 0.381 0.17462 0.381 0.48895z"/>
    <path d="m83.875 33.427c0 0.3048 0.11112 0.51435 0.44132 0.51435 0.09525 0 0.20002-0.02858 0.28575-0.05715l-0.0508-0.19685c-0.0508 0.01905-0.12065 0.04127-0.17462 0.04127-0.1778 0-0.23812-0.10795-0.23812-0.29845v-0.85725h0.41592v-0.21272h-0.41592v-0.4318h-0.21908l-0.03175 0.4318-0.2413 0.01588v0.19685h0.2286z"/>
    <path d="m84.798 34.329-0.0508 0.20638c0.0508 0.01905 0.11112 0.03175 0.18098 0.03175 0.31115 0 0.4699-0.23178 0.57785-0.53658l0.58102-1.67h-0.254l-0.27622 0.85408c-0.04127 0.13652-0.08573 0.29528-0.13018 0.43498h-0.0127c-0.04762-0.14288-0.1016-0.30162-0.14922-0.43498l-0.31432-0.85408h-0.26988l0.61912 1.5462-0.03493 0.1143c-0.0635 0.1905-0.17462 0.3302-0.34925 0.3302-0.0381 0-0.08572-0.0127-0.11748-0.02222z"/>
   </g>
   <g aria-label="Arousal">
    <path d="m88.051 19.826 0.1016-0.3175c0.07303-0.23178 0.1397-0.46038 0.20638-0.70168h0.0127c0.06668 0.2413 0.13335 0.4699 0.20638 0.70168l0.09843 0.3175zm0.89218 0.84772h0.2794l-0.70485-2.0828h-0.29845l-0.70485 2.0828h0.26988l0.20002-0.635h0.75882z"/>
    <path d="m89.48 20.674h0.26035v-0.9906c0.10478-0.26035 0.26035-0.3556 0.39052-0.3556 0.0635 0 0.09843 0.0095 0.14922 0.0254l0.0508-0.2286c-0.0508-0.02222-0.09842-0.03175-0.1651-0.03175-0.17462 0-0.33338 0.12382-0.43815 0.3175h-0.0095l-0.02222-0.2794h-0.2159z"/>
    <path d="m90.438 19.906c0 0.51118 0.33655 0.80645 0.71438 0.80645s0.71438-0.29528 0.71438-0.80645c0-0.51752-0.33655-0.8128-0.71438-0.8128s-0.71438 0.29528-0.71438 0.8128zm0.26988 0c0-0.3556 0.18098-0.5969 0.4445-0.5969 0.2667 0 0.4445 0.2413 0.4445 0.5969 0 0.35242-0.1778 0.59055-0.4445 0.59055-0.26352 0-0.4445-0.23812-0.4445-0.59055z"/>
    <path d="m92.254 20.109c0 0.3937 0.14605 0.60325 0.47308 0.60325 0.21272 0 0.36512-0.11112 0.508-0.2794h0.0095l0.02223 0.2413h0.2159v-1.543h-0.26035v1.0954c-0.14605 0.18098-0.25718 0.26035-0.41592 0.26035-0.2032 0-0.28892-0.12382-0.28892-0.41275v-0.94298h-0.26352z"/>
    <path d="m93.835 20.499c0.14605 0.12065 0.3556 0.21272 0.57468 0.21272 0.36512 0 0.56515-0.20955 0.56515-0.46038 0-0.2921-0.24765-0.38418-0.4699-0.46672-0.17462-0.06668-0.3429-0.12382-0.3429-0.2667 0-0.11748 0.0889-0.22225 0.28258-0.22225 0.13652 0 0.24765 0.05715 0.35242 0.13652l0.12382-0.1651c-0.11748-0.09525-0.28575-0.17462-0.47942-0.17462-0.33338 0-0.53022 0.1905-0.53022 0.43815 0 0.26035 0.2413 0.36512 0.46038 0.4445 0.16828 0.0635 0.35242 0.13335 0.35242 0.2921 0 0.13335-0.1016 0.2413-0.3048 0.2413-0.18415 0-0.32068-0.0762-0.45402-0.18415z"/>
    <path d="m95.264 20.274c0 0.27622 0.19368 0.43815 0.45402 0.43815 0.1905 0 0.36195-0.1016 0.51118-0.22225h0.0063l0.02223 0.18415h0.2159v-0.94615c0-0.38418-0.15875-0.635-0.53658-0.635-0.24765 0-0.46355 0.10795-0.60642 0.20002l0.10478 0.18098c0.12065-0.08255 0.2794-0.1651 0.46038-0.1651 0.25082 0 0.3175 0.1905 0.3175 0.38735-0.65722 0.07303-0.94932 0.2413-0.94932 0.57785zm0.25718-0.01905c0-0.19685 0.17462-0.32385 0.69215-0.38735v0.42862c-0.14922 0.13335-0.27305 0.20638-0.42228 0.20638-0.1524 0-0.26988-0.07303-0.26988-0.24765z"/>
    <path d="m96.965 20.363c0 0.22542 0.07937 0.34925 0.27622 0.34925 0.06985 0 0.1143-0.0095 0.14922-0.0254l-0.03493-0.19685c-0.02858 0.0064-0.04127 0.0064-0.05715 0.0064-0.0381 0-0.07303-0.03175-0.07303-0.1143v-1.9685h-0.26035z"/>
   </g>
  </g>
  <path d="m92.387 41.128v-3.7418l-1.8709 1.8709v3.7418z" fill="#e9e56f"/>
  <path d="m89.581 43.935v-3.7418l-1.8709 1.8709v3.7418z" fill="#e9e56f"/>
  <g fill="#6f8ce9">
   <path d="m86.774 46.741v-3.7418l-1.8709 1.8709v3.7418z"/>
   <path d="m83.968 49.547v-3.7418l-1.8709 1.8709v3.7418z"/>
   <path d="m81.162 52.354v-3.7418l-1.8709 1.8709v3.7418z"/>
   <path d="m78.355 55.16v-3.7418l-1.8709 1.8709v3.7418z"/>
  </g>
  <path d="m109.22 24.29v-3.7418l-1.8709 1.8709v3.7418z" fill="#cf2f25"/>
  <path d="m106.42 27.097v-3.7418l-1.8709 1.8709v3.7418z" fill="#cf2f25"/>
  <path d="m103.61 29.903v-3.7418l-1.8709 1.8709v3.7418z" fill="#e9e56f"/>
  <path d="m100.81 32.709v-3.7418l-1.8709 1.8709v3.7418z" fill="#e9e56f"/>
  <g fill="#e8eaec" stroke-linecap="round" stroke-width=".26458" aria-label="Flow">
   <path d="m92.553 36.814h0.2667v-0.93345h0.79375v-0.22225h-0.79375v-0.70485h0.93662v-0.22225h-1.2033z"/>
   <path d="m94.087 36.502c0 0.22542 0.07937 0.34925 0.27622 0.34925 0.06985 0 0.1143-0.0095 0.14922-0.0254l-0.03493-0.19685c-0.02858 0.0063-0.04127 0.0063-0.05715 0.0063-0.0381 0-0.07303-0.03175-0.07303-0.1143v-1.9685h-0.26035z"/>
   <path d="m94.785 36.045c0 0.51118 0.33655 0.80645 0.71438 0.80645s0.71438-0.29528 0.71438-0.80645c0-0.51752-0.33655-0.8128-0.71438-0.8128s-0.71438 0.29528-0.71438 0.8128zm0.26988 0c0-0.3556 0.18098-0.5969 0.4445-0.5969 0.2667 0 0.4445 0.2413 0.4445 0.5969 0 0.35242-0.1778 0.59055-0.4445 0.59055-0.26352 0-0.4445-0.23812-0.4445-0.59055z"/>
   <path d="m96.856 36.814h0.3048l0.2159-0.8255c0.04127-0.14605 0.07302-0.2921 0.10795-0.44768h0.0127c0.0381 0.15558 0.06667 0.29845 0.10478 0.4445l0.22225 0.82868h0.3175l0.41275-1.543h-0.24765l-0.22542 0.89218c-0.03175 0.14605-0.06033 0.28575-0.09525 0.42862h-0.0127c-0.03493-0.14288-0.06985-0.28258-0.10795-0.42862l-0.2413-0.89218h-0.254l-0.23812 0.89218c-0.0381 0.14288-0.06985 0.28575-0.10478 0.42862h-0.0127c-0.02858-0.14288-0.05715-0.28258-0.09207-0.42862l-0.2286-0.89218h-0.2667z"/>
  </g>
  <path d="m114.84 18.678v-3.7418l-1.8709 1.8709v3.7418z" fill="#cf2f25"/>
  <path d="m112.03 21.484v-3.7418l-1.8709 1.8709v3.7418z" fill="#cf2f25"/>
 </g>
</svg>
