<svg width="100.1" height="50.1" version="1.1" viewBox="0 0 26.485 13.256" xmlns="http://www.w3.org/2000/svg">
 <g transform="translate(-119.81 -81.063)">
  <rect x="121.13" y="82.386" width="23.812" height="10.583" fill="#1d232d" style="paint-order:normal"/>
  <g fill="#7b8694">
   <rect x="121.66" y="82.121" width="1.5875" height=".26458"/>
   <rect x="123.77" y="82.121" width="1.5875" height=".26458"/>
   <rect x="125.89" y="82.121" width="1.5875" height=".26458"/>
   <rect x="128.01" y="82.121" width="1.5875" height=".26458"/>
   <rect x="130.12" y="82.121" width="1.5875" height=".26458"/>
   <rect x="132.24" y="82.121" width="1.5875" height=".26458"/>
   <rect x="134.36" y="82.121" width="1.5875" height=".26458"/>
   <rect x="136.47" y="82.121" width="1.5875" height=".26458"/>
   <rect x="138.59" y="82.121" width="1.5875" height=".26458"/>
   <rect x="140.71" y="82.121" width="1.5875" height=".26458"/>
   <rect x="142.82" y="82.121" width="1.5875" height=".26458"/>
   <rect x="121.66" y="92.969" width="1.5875" height=".26458"/>
   <rect x="123.77" y="92.969" width="1.5875" height=".26458"/>
   <rect x="125.89" y="92.969" width="1.5875" height=".26458"/>
   <rect x="128.01" y="92.969" width="1.5875" height=".26458"/>
   <rect x="130.12" y="92.969" width="1.5875" height=".26458"/>
   <rect x="132.24" y="92.969" width="1.5875" height=".26458"/>
   <rect x="134.36" y="92.969" width="1.5875" height=".26458"/>
   <rect x="136.47" y="92.969" width="1.5875" height=".26458"/>
   <rect x="138.59" y="92.969" width="1.5875" height=".26458"/>
   <rect x="140.71" y="92.969" width="1.5875" height=".26458"/>
   <rect x="142.82" y="92.969" width="1.5875" height=".26458"/>
  </g>
  <g fill="#47d58a" stroke-dashoffset="1.2" stroke-linecap="square" stroke-miterlimit="40" stroke-width="2" aria-label="{ }">
   <path d="m127.12 87.398v0.47414h0.1778c0.14393 0 0.36406-0.0085 0.5334 0.16933 0.16933 0.16087 0.22013 0.4064 0.22013 0.77047 0 0.26247-0.0254 0.51647-0.0254 0.84667 0 0.3048 0.0254 0.889 0.46567 1.2277 0.37254 0.2794 0.80434 0.254 1.3293 0.254h0.3048v-0.47414h-0.31326c-0.34714 0-0.61807 0.01693-0.84667-0.14393-0.30481-0.2032-0.34714-0.57574-0.34714-0.8636 0-0.2286 0.0254-0.44874 0.0254-0.7112 0-0.889-0.38947-1.2107-0.7112-1.3208 0.26247-0.11007 0.47413-0.31327 0.60113-0.56727 0.11007-0.2286 0.13547-0.4826 0.13547-0.67734 0-0.21167-0.0254-0.39794-0.0254-0.60114 0-0.16933 0.0169-0.5842 0.33867-0.7874 0.2286-0.14393 0.4826-0.1016 0.85514-0.1016h0.29633v-0.4826h-0.26247c-0.44873 0-0.9906-0.03387-1.397 0.33867-0.37254 0.33867-0.42334 0.8128-0.42334 1.1345 0 0.2032 0.0254 0.39794 0.0254 0.60114 0 0.21167-0.0254 0.508-0.22013 0.71967-0.18627 0.19473-0.41487 0.19473-0.56727 0.19473z"/>
   <path d="m138.94 87.398h-0.16087c-0.1524 0-0.38946 0-0.56726-0.19473-0.20321-0.21167-0.22014-0.508-0.22014-0.71967 0-0.2032 0.0169-0.39794 0.0169-0.60114 0-0.32174-0.0423-0.79587-0.41486-1.1345-0.40641-0.37254-0.94827-0.33867-1.4055-0.33867h-0.254v0.4826h0.28787c0.37254 0 0.635-0.04233 0.85514 0.1016 0.3302 0.2032 0.34713 0.61807 0.34713 0.7874 0 0.2032-0.0254 0.38947-0.0254 0.60114 0 0.19473 0.0169 0.44874 0.127 0.67734 0.127 0.254 0.34714 0.4572 0.60961 0.56727-0.32174 0.11007-0.71967 0.4318-0.71967 1.3208 0 0.26247 0.0254 0.4826 0.0254 0.7112 0 0.28787-0.0423 0.6604-0.34714 0.8636-0.2286 0.16087-0.49107 0.14393-0.8382 0.14393h-0.31327v0.47414h0.3048c0.52494 0 0.95674 0.0254 1.3208-0.254 0.44873-0.33867 0.47413-0.92287 0.47413-1.2277 0-0.3302-0.0339-0.5842-0.0339-0.84667 0-0.36407 0.0593-0.6096 0.22014-0.77047 0.1778-0.1778 0.39793-0.16933 0.54187-0.16933h0.16933z"/>
  </g>
  <path d="m132.36 87.031v-1.3229h1.3229v1.3229h1.3229v1.3229h-1.3229v1.3229h-1.3229v-1.3229h-1.3229v-1.3229z" fill="#7b8694" stroke-dashoffset="1.2" stroke-linecap="square" stroke-miterlimit="40" stroke-width="2"/>
 </g>
</svg>
