<svg id="lecture12Logo" class="animated inactive" width="750" height="400" enable-background="new 0 0 198.44 105.83" version="1.1" viewBox="0 0 194.26 55.827" xml:space="preserve" xmlns="http://www.w3.org/2000/svg">
  <filter id="blur-filter" x="-2" y="-2" width="200" height="200">
    <feGaussianBlur in="SourceGraphic" stdDeviation="2"/>
  </filter><g stroke="#fff" stroke-linecap="round" stroke-width=".25901">
<rect x="82.885" y="-21.299" width="5.1802" height="5.1803" style="paint-order:normal"/><rect x="88.065" y="-21.299" width="5.1802" height="5.1803" style="paint-order:normal"/><rect x="93.245" y="-21.299" width="5.1802" height="5.1803" style="paint-order:normal"/><rect x="93.245" y="-16.119" width="5.1802" height="5.1803" style="paint-order:normal"/><rect x="82.885" y="-16.119" width="5.1802" height="5.1803" style="paint-order:normal"/><rect x="77.705" y="-16.119" width="5.1802" height="5.1803" style="paint-order:normal"/><rect x="88.065" y="-16.119" width="5.1802" height="5.1803" style="paint-order:normal"/><rect x="88.065" y="-10.939" width="5.1802" height="5.1803" style="paint-order:normal"/><rect x="82.885" y="-10.939" width="5.1802" height="5.1803" style="paint-order:normal"/><rect x="93.245" y="-10.939" width="5.1802" height="5.1803" style="paint-order:normal"/><rect x="93.245" y="-5.7582" width="5.1802" height="5.1803" style="paint-order:normal"/><rect x="88.065" y="-5.7582" width="5.1802" height="5.1803" style="paint-order:normal"/><rect x="82.885" y="-5.7582" width="5.1802" height="5.1803" style="paint-order:normal"/><rect x="77.704" y="-5.7582" width="5.1802" height="5.1803" style="paint-order:normal"/><rect x="72.524" y="-5.7582" width="5.1802" height="5.1803" style="paint-order:normal"/><rect x="98.425" y="-5.7582" width="5.1802" height="5.1803" style="paint-order:normal"/><rect x="103.61" y="-5.7582" width="5.1802" height="5.1803" style="paint-order:normal"/><rect x="108.79" y="-5.7582" width="5.1802" height="5.1803" style="paint-order:normal"/><rect x="113.97" y="-5.7582" width="5.1802" height="5.1803" style="paint-order:normal"/><rect x="119.15" y="-5.7582" width="5.1802" height="5.1803" style="paint-order:normal"/><rect x="124.33" y="-5.7582" width="5.1802" height="5.1803" style="paint-order:normal"/><rect x="129.51" y="4.6024" width="5.1802" height="5.1803" style="paint-order:normal"/><rect x="129.51" y="-.57793" width="5.1802" height="5.1803" style="paint-order:normal"/><rect x="129.51" y="9.7827" width="5.1802" height="5.1803" style="paint-order:normal"/><rect x="129.51" y="14.963" width="5.1802" height="5.1803" style="paint-order:normal"/><rect x="129.51" y="20.143" width="5.1802" height="5.1803" style="paint-order:normal"/><rect x="124.33" y="25.324" width="5.1802" height="5.1803" style="paint-order:normal"/><rect x="119.15" y="25.324" width="5.1802" height="5.1803" style="paint-order:normal"/><rect x="113.97" y="25.324" width="5.1802" height="5.1803" style="paint-order:normal"/><rect x="108.79" y="25.324" width="5.1802" height="5.1803" style="paint-order:normal"/><rect x="103.61" y="25.324" width="5.1802" height="5.1803" style="paint-order:normal"/><rect x="103.61" y="30.504" width="5.1802" height="5.1803" style="paint-order:normal"/><rect x="103.61" y="35.684" width="5.1802" height="5.1803" style="paint-order:normal"/><rect x="108.79" y="35.684" width="5.1802" height="5.1803" style="paint-order:normal"/><rect x="108.79" y="40.864" width="5.1802" height="5.1803" style="paint-order:normal"/><rect x="108.79" y="46.045" width="5.1802" height="5.1803" style="paint-order:normal"/><rect x="113.97" y="46.045" width="5.1802" height="5.1803" style="paint-order:normal"/><rect x="108.79" y="51.225" width="5.1802" height="5.1803" style="paint-order:normal"/><rect x="108.79" y="56.405" width="5.1802" height="5.1803" style="paint-order:normal"/><rect x="108.79" y="61.585" width="5.1802" height="5.1803" style="paint-order:normal"/><rect x="108.79" y="66.765" width="5.1802" height="5.1803" style="paint-order:normal"/><rect x="108.79" y="71.946" width="5.1802" height="5.1803" style="paint-order:normal"/><rect x="103.61" y="66.765" width="5.1802" height="5.1803" style="paint-order:normal"/><rect x="98.425" y="61.585" width="5.1802" height="5.1803" style="paint-order:normal"/><rect x="93.245" y="61.585" width="5.1802" height="5.1803" style="paint-order:normal"/><rect x="88.064" y="66.765" width="5.1802" height="5.1803" style="paint-order:normal"/><rect x="82.884" y="71.946" width="5.1802" height="5.1803" style="paint-order:normal"/><rect x="82.884" y="66.765" width="5.1802" height="5.1803" style="paint-order:normal"/><rect x="82.884" y="61.585" width="5.1802" height="5.1803" style="paint-order:normal"/><rect x="82.884" y="56.405" width="5.1802" height="5.1803" style="paint-order:normal"/><rect x="82.884" y="51.225" width="5.1802" height="5.1803" style="paint-order:normal"/><rect x="82.884" y="46.045" width="5.1802" height="5.1803" style="paint-order:normal"/><rect x="77.704" y="46.045" width="5.1802" height="5.1803" style="paint-order:normal"/><rect x="72.524" y="46.045" width="5.1802" height="5.1803" style="paint-order:normal"/><rect x="77.704" y="40.864" width="5.1802" height="5.1803" style="paint-order:normal"/><rect x="82.884" y="35.684" width="5.1802" height="5.1803" style="paint-order:normal"/><rect x="88.064" y="30.504" width="5.1802" height="5.1803" style="paint-order:normal"/><rect x="82.884" y="25.324" width="5.1802" height="5.1803" style="paint-order:normal"/><rect x="77.704" y="25.324" width="5.1802" height="5.1803" style="paint-order:normal"/><rect x="72.524" y="25.324" width="5.1802" height="5.1803" style="paint-order:normal"/><rect x="67.343" y="20.143" width="5.1802" height="5.1803" style="paint-order:normal"/><rect x="67.343" y="14.963" width="5.1802" height="5.1803" style="paint-order:normal"/><rect x="67.343" y="9.7827" width="5.1802" height="5.1803" style="paint-order:normal"/><rect x="67.343" y="4.6024" width="5.1802" height="5.1803" style="paint-order:normal"/><rect x="67.343" y="-.57793" width="5.1802" height="5.1803" style="paint-order:normal"/><rect x="88.064" y="9.7827" width="5.1802" height="5.1803" style="paint-order:normal"/><rect x="119.15" y="9.7827" width="5.1802" height="5.1803" style="paint-order:normal"/></g></svg>
