<svg width="138.06mm" height="79.438mm" version="1.1" viewBox="0 0 138.06 79.438" xmlns="http://www.w3.org/2000/svg">
 <g transform="translate(-4.8209 -55.372)">
  <rect x="40.31" y="113.97" width="15.61" height="14.552" fill="#ff4646"/>
  <rect x="40.31" y="106.82" width="15.61" height="5.8208" fill="#aea0ff"/>
  <rect x="40.31" y="85.394" width="15.61" height="20.108" fill="#fffa74"/>
  <rect x="40.31" y="65.021" width="15.61" height="18.785" fill="#97ff6a"/>
  <g stroke-width=".69782px" aria-label="33%">
   <path d="m45.452 123.11v-0.43651q0.22857 0.16667 0.53333 0.16667 0.19206 0 0.29841-0.0825 0.10794-0.0825 0.10794-0.23016 0-0.15238-0.13333-0.23492-0.13174-0.0825-0.36349-0.0825h-0.21111v-0.38412h0.19524q0.44444 0 0.44444-0.29524 0-0.27778-0.34127-0.27778-0.22857 0-0.44444 0.14762v-0.40952q0.23968-0.12063 0.55873-0.12063 0.3492 0 0.54286 0.15714 0.19524 0.15714 0.19524 0.40793 0 0.44603-0.45238 0.55873v8e-3q0.24127 0.0302 0.38095 0.17618 0.13968 0.14445 0.13968 0.35556 0 0.31904-0.23333 0.50476-0.23333 0.18571-0.64444 0.18571-0.35238 0-0.57301-0.11428z"/>
   <path d="m47.325 123.11v-0.43651q0.22857 0.16667 0.53333 0.16667 0.19206 0 0.29841-0.0825 0.10794-0.0825 0.10794-0.23016 0-0.15238-0.13333-0.23492-0.13175-0.0825-0.36349-0.0825h-0.21111v-0.38412h0.19524q0.44444 0 0.44444-0.29524 0-0.27778-0.34127-0.27778-0.22857 0-0.44444 0.14762v-0.40952q0.23968-0.12063 0.55873-0.12063 0.3492 0 0.54285 0.15714 0.19524 0.15714 0.19524 0.40793 0 0.44603-0.45238 0.55873v8e-3q0.24127 0.0302 0.38095 0.17618 0.13968 0.14445 0.13968 0.35556 0 0.31904-0.23333 0.50476-0.23333 0.18571-0.64444 0.18571-0.35238 0-0.57301-0.11428z"/>
   <path d="m49.695 122.07q-0.24286 0-0.39206-0.15396-0.14762-0.15397-0.14762-0.41429 0-0.28412 0.15714-0.45079 0.15873-0.16667 0.42222-0.16667 0.25238 0 0.39365 0.1508 0.14286 0.15079 0.14286 0.4238 0 0.28096-0.15714 0.44603-0.15714 0.16508-0.41904 0.16508zm0.03016-0.90634q-0.23174 0-0.23174 0.32222 0 0.30476 0.22063 0.30476 0.2254 0 0.2254-0.31746 0-0.30952-0.21428-0.30952zm1.6317-0.24762-1.4825 2.2762h-0.3873l1.4794-2.2762zm-0.24444 2.3079q-0.24286 0-0.39206-0.15396-0.14762-0.15397-0.14762-0.41429 0-0.28412 0.15714-0.45079 0.15873-0.16666 0.42222-0.16666 0.25397 0 0.39524 0.1492 0.14127 0.14921 0.14127 0.42222 0 0.28095-0.15714 0.44762-0.15714 0.16666-0.41904 0.16666zm0.0254-0.90634q-0.23016 0-0.23016 0.32222 0 0.30476 0.22381 0.30476 0.2254 0 0.2254-0.31746 0-0.14762-0.06032-0.22857-0.06032-0.081-0.15873-0.081z"/>
  </g>
  <rect x="61.477" y="112.12" width="15.61" height="16.404" fill="#ff4646"/>
  <g stroke-width=".69782px" aria-label="34%">
   <path d="m66.619 121.8v-0.4365q0.22857 0.16666 0.53333 0.16666 0.19206 0 0.29841-0.0825 0.10794-0.0825 0.10794-0.23015 0-0.15238-0.13333-0.23492-0.13174-0.0825-0.36349-0.0825h-0.21111v-0.38413h0.19524q0.44444 0 0.44444-0.29523 0-0.27778-0.34127-0.27778-0.22857 0-0.44444 0.14762v-0.40952q0.23968-0.12064 0.55873-0.12064 0.3492 0 0.54285 0.15715 0.19524 0.15714 0.19524 0.40793 0 0.44603-0.45238 0.55873v8e-3q0.24127 0.0302 0.38095 0.17619 0.13968 0.14445 0.13968 0.35556 0 0.31904-0.23333 0.50476-0.23333 0.18571-0.64444 0.18571-0.35238 0-0.57301-0.11429z"/>
   <path d="m69.817 119.6v1.4349h0.27302v0.3746h-0.27302v0.46667h-0.45714v-0.46667h-0.99206v-0.39206q0.13174-0.14762 0.27301-0.32222 0.14127-0.17619 0.27302-0.3619 0.13174-0.18572 0.24444-0.37302 0.11428-0.18888 0.19365-0.36031zm-0.99999 1.4349h0.54285v-0.79523q-0.05555 0.10317-0.12063 0.20952-0.06508 0.10476-0.13651 0.20794-0.07143 0.10158-0.14444 0.19841-0.07301 0.0952-0.14127 0.17936z"/>
   <path d="m70.862 120.75q-0.24286 0-0.39206-0.15397-0.14762-0.15396-0.14762-0.41428 0-0.28413 0.15714-0.45079 0.15873-0.16667 0.42222-0.16667 0.25238 0 0.39365 0.1508 0.14286 0.15079 0.14286 0.4238 0 0.28095-0.15714 0.44603t-0.41904 0.16508zm0.03016-0.90634q-0.23174 0-0.23174 0.32222 0 0.30476 0.22063 0.30476 0.2254 0 0.2254-0.31746 0-0.30952-0.21428-0.30952zm1.6317-0.24762-1.4825 2.2762h-0.3873l1.4794-2.2762zm-0.24444 2.3079q-0.24286 0-0.39206-0.15397-0.14762-0.15396-0.14762-0.41428 0-0.28412 0.15714-0.45079 0.15873-0.16667 0.42222-0.16667 0.25397 0 0.39524 0.14921t0.14127 0.42222q0 0.28095-0.15714 0.44762-0.15714 0.16666-0.41904 0.16666zm0.0254-0.90634q-0.23016 0-0.23016 0.32222 0 0.30476 0.22381 0.30476 0.2254 0 0.2254-0.31746 0-0.14762-0.06032-0.22857-0.06032-0.081-0.15873-0.081z"/>
  </g>
  <rect x="82.643" y="110" width="15.61" height="18.521" fill="#ff4646"/>
  <g stroke-width=".69782px" aria-label="36%">
   <path d="m87.785 120.47v-0.43651q0.22857 0.16667 0.53333 0.16667 0.19206 0 0.29841-0.0825 0.10794-0.0825 0.10794-0.23016 0-0.15238-0.13333-0.23492-0.13174-0.0825-0.36349-0.0825h-0.21111v-0.38412h0.19524q0.44444 0 0.44444-0.29524 0-0.27778-0.34127-0.27778-0.22857 0-0.44444 0.14762v-0.4096q0.23968-0.12063 0.55873-0.12063 0.3492 0 0.54286 0.15714 0.19524 0.15714 0.19524 0.40793 0 0.44603-0.45238 0.55873v8e-3q0.24127 0.0302 0.38095 0.17619 0.13968 0.14444 0.13968 0.35555 0 0.31905-0.23333 0.50476t-0.64444 0.18571q-0.35238 0-0.57301-0.11428z"/>
   <path d="m91.235 119.79q0 0.16825-0.05873 0.31429-0.05873 0.14603-0.16349 0.25396-0.10476 0.10635-0.2492 0.16826-0.14444 0.0603-0.31587 0.0603-0.19206 0-0.34444-0.0714-0.15079-0.0714-0.25555-0.20634-0.10476-0.13651-0.16032-0.33334-0.05555-0.19682-0.05555-0.44602 0-0.29365 0.07143-0.53175 0.07302-0.23968 0.20635-0.40952 0.13492-0.16984 0.3254-0.2619 0.19048-0.0936 0.42857-0.0936 0.26349 0 0.40952 0.0619v0.41905q-0.17302-0.0984-0.37778-0.0984-0.12698 0-0.23016 0.0492t-0.17778 0.13968q-0.07301 0.0905-0.11587 0.21905-0.04127 0.12698-0.04445 0.28412h0.0095q0.1619-0.2238 0.47778-0.2238 0.14127 0 0.25555 0.0508 0.11429 0.0508 0.19524 0.14444 0.08095 0.0921 0.1254 0.22222 0.04444 0.13016 0.04444 0.28889zm-0.49047 0.0318q0-0.36667-0.3-0.36667-0.06825 0-0.12381 0.0254-0.05555 0.0254-0.09524 0.0714-0.03968 0.046-0.06191 0.10952-0.02063 0.0619-0.02063 0.1381 0 0.0841 0.02222 0.15714 0.02222 0.073 0.06191 0.12857 0.04127 0.054 0.09682 0.0857 0.05555 0.0318 0.12381 0.0318 0.06825 0 0.12222-0.027 0.05555-0.0286 0.09365-0.0778 0.03968-0.0508 0.06032-0.12064 0.02063-0.0714 0.02063-0.15555z"/>
   <path d="m92.028 119.42q-0.24286 0-0.39206-0.15396-0.14762-0.15397-0.14762-0.41429 0-0.28412 0.15714-0.45079 0.15873-0.16666 0.42222-0.16666 0.25238 0 0.39365 0.15079 0.14286 0.15079 0.14286 0.42381 0 0.28095-0.15714 0.44603-0.15714 0.16507-0.41905 0.16507zm0.03016-0.90634q-0.23174 0-0.23174 0.32222 0 0.30476 0.22063 0.30476 0.2254 0 0.2254-0.31746 0-0.30952-0.21428-0.30952zm1.6317-0.24762-1.4825 2.2762h-0.3873l1.4794-2.2762zm-0.24444 2.3079q-0.24286 0-0.39206-0.15397-0.14762-0.15397-0.14762-0.41428 0-0.28413 0.15714-0.4508 0.15873-0.16666 0.42222-0.16666 0.25397 0 0.39524 0.1492 0.14127 0.14921 0.14127 0.42222 0 0.28095-0.15714 0.44762t-0.41904 0.16667zm0.0254-0.90635q-0.23016 0-0.23016 0.32222 0 0.30476 0.22381 0.30476 0.2254 0 0.2254-0.31746 0-0.14761-0.06032-0.22857-0.06032-0.081-0.15873-0.081z"/>
  </g>
  <rect x="103.81" y="107.62" width="15.61" height="20.902" fill="#ff4646"/>
  <g stroke-width=".69782px" aria-label="37%">
   <path d="m108.95 118.85v-0.43651q0.22857 0.16667 0.53333 0.16667 0.19206 0 0.29841-0.0825 0.10794-0.0825 0.10794-0.23016 0-0.15238-0.13333-0.23492-0.13175-0.0825-0.36349-0.0825h-0.21111v-0.38412h0.19523q0.44445 0 0.44445-0.29524 0-0.27778-0.34127-0.27778-0.22857 0-0.44444 0.14762v-0.40952q0.23968-0.12063 0.55872-0.12063 0.34921 0 0.54286 0.15714 0.19523 0.15714 0.19523 0.40793 0 0.44603-0.45237 0.55873v8e-3q0.24126 0.0302 0.38095 0.17618 0.13968 0.14445 0.13968 0.35556 0 0.31904-0.23333 0.50476-0.23334 0.18571-0.64445 0.18571-0.35237 0-0.57301-0.11428z"/>
   <path d="m112.38 116.94q-0.15238 0.2746-0.27301 0.51587-0.12064 0.23968-0.2127 0.4746-0.0921 0.23333-0.15714 0.47619-0.0651 0.24126-0.10635 0.52063h-0.52381q0.0445-0.26508 0.11746-0.51111 0.073-0.24603 0.16826-0.47619 0.0968-0.23174 0.21269-0.45079 0.11746-0.21905 0.24762-0.42857h-1.0571v-0.40952h1.5841z"/>
   <path d="m113.19 117.81q-0.24286 0-0.39207-0.15397-0.14761-0.15396-0.14761-0.41428 0-0.28412 0.15714-0.45079 0.15873-0.16667 0.42222-0.16667 0.25238 0 0.39365 0.1508 0.14285 0.15079 0.14285 0.4238 0 0.28096-0.15714 0.44603-0.15714 0.16508-0.41904 0.16508zm0.0302-0.90634q-0.23174 0-0.23174 0.32222 0 0.30476 0.22063 0.30476 0.2254 0 0.2254-0.31746 0-0.30952-0.21429-0.30952zm1.6317-0.24762-1.4825 2.2762h-0.3873l1.4794-2.2762zm-0.24444 2.3079q-0.24286 0-0.39206-0.15396-0.14762-0.15397-0.14762-0.41429 0-0.28412 0.15714-0.45079 0.15873-0.16666 0.42222-0.16666 0.25397 0 0.39524 0.1492 0.14127 0.14921 0.14127 0.42222 0 0.28095-0.15715 0.44762-0.15714 0.16666-0.41904 0.16666zm0.0254-0.90634q-0.23015 0-0.23015 0.32222 0 0.30476 0.22381 0.30476 0.22539 0 0.22539-0.31746 0-0.14762-0.0603-0.22857-0.0603-0.081-0.15873-0.081z"/>
  </g>
  <g fill="#aea0ff">
   <rect x="61.477" y="104.18" width="15.61" height="6.35"/>
   <rect x="82.643" y="102.33" width="15.61" height="6.35"/>
   <rect x="103.81" y="99.946" width="15.61" height="6.35"/>
  </g>
  <g fill="#fffa74">
   <rect x="61.477" y="83.542" width="15.61" height="19.315"/>
   <rect x="82.643" y="82.219" width="15.61" height="18.785"/>
   <rect x="103.81" y="81.16" width="15.61" height="17.462"/>
  </g>
  <g fill="#97ff6a">
   <rect x="61.477" y="63.962" width="15.61" height="18.256"/>
   <rect x="82.643" y="63.152" width="15.61" height="17.744"/>
   <rect x="103.81" y="62.094" width="15.61" height="17.744"/>
  </g>
  <g stroke-width=".69782px">
   <g aria-label="9%">
    <path d="m48.599 109.74q0 0.30317-0.06667 0.54285-0.06667 0.23809-0.19524 0.40317-0.12698 0.16508-0.31111 0.25397-0.18413 0.0873-0.41746 0.0873-0.27936 0-0.48095-0.0889v-0.41269q0.17936 0.11746 0.43174 0.11746 0.25873 0 0.40476-0.17619t0.14762-0.50952l-0.0095-3e-3q-0.15079 0.22381-0.45873 0.22381-0.13968 0-0.25873-0.0524-0.11746-0.0524-0.20476-0.14445-0.08571-0.0936-0.13492-0.22222-0.04762-0.12857-0.04762-0.28253 0-0.17937 0.05873-0.32699 0.05873-0.14761 0.16349-0.25396 0.10635-0.10635 0.25397-0.16349 0.14762-0.0587 0.32698-0.0587 0.18571 0 0.33333 0.073 0.14762 0.0714 0.25079 0.20794 0.10476 0.1365 0.15873 0.33492 0.05555 0.19841 0.05555 0.45079zm-0.50635-0.26667q0-0.0873-0.02222-0.16349-0.02222-0.0778-0.06191-0.13333-0.03968-0.0556-0.09682-0.0873-0.05714-0.0333-0.1254-0.0333-0.06508 0-0.12063 0.0286-0.05397 0.0286-0.09365 0.0794-0.03968 0.0492-0.06191 0.11905-0.02222 0.0698-0.02222 0.15079 0 0.0889 0.02222 0.15873 0.02222 0.0683 0.06191 0.11587 0.04127 0.0476 0.09841 0.073 0.05714 0.0238 0.12698 0.0238 0.06667 0 0.12063-0.0254 0.05397-0.027 0.09206-0.0714 0.03968-0.0444 0.06032-0.10476 0.02222-0.0603 0.02222-0.13016z"/>
    <path d="m49.429 109.87q-0.24286 0-0.39206-0.15397-0.14762-0.15396-0.14762-0.41428 0-0.28412 0.15714-0.45079 0.15873-0.16667 0.42222-0.16667 0.25238 0 0.39365 0.1508 0.14286 0.15079 0.14286 0.4238 0 0.28096-0.15714 0.44603-0.15714 0.16508-0.41904 0.16508zm0.03016-0.90634q-0.23174 0-0.23174 0.32222 0 0.30476 0.22063 0.30476 0.2254 0 0.2254-0.31746 0-0.30952-0.21428-0.30952zm1.6317-0.24762-1.4825 2.2762h-0.3873l1.4794-2.2762zm-0.24444 2.3079q-0.24286 0-0.39206-0.15396-0.14762-0.15397-0.14762-0.41429 0-0.28412 0.15714-0.45079 0.15873-0.16666 0.42222-0.16666 0.25397 0 0.39524 0.1492 0.14127 0.14921 0.14127 0.42222 0 0.28095-0.15714 0.44762-0.15714 0.16666-0.41904 0.16666zm0.0254-0.90634q-0.23016 0-0.23016 0.32222 0 0.30476 0.22381 0.30476 0.2254 0 0.2254-0.31746 0-0.14762-0.06032-0.22857-0.06032-0.081-0.15873-0.081z"/>
   </g>
   <g aria-label="10%">
    <path d="m67.957 106.32v2.327h-0.5v-1.7619q-0.04127 0.0365-0.09841 0.0698-0.05556 0.0317-0.11905 0.0587-0.06349 0.0254-0.13175 0.0444-0.06825 0.0175-0.13492 0.0254v-0.42222q0.19524-0.0571 0.36825-0.14603 0.17302-0.0889 0.3127-0.19524z"/>
    <path d="m69.432 108.69q-0.81269 0-0.81269-1.1413 0-0.59206 0.21905-0.90158 0.22063-0.31111 0.63809-0.31111 0.79365 0 0.79365 1.1603 0 0.57778-0.21746 0.88571-0.21587 0.30793-0.62063 0.30793zm0.02222-1.9714q-0.3254 0-0.3254 0.81745 0 0.76984 0.31905 0.76984 0.31111 0 0.31111-0.79365 0-0.79364-0.30476-0.79364z"/>
    <path d="m71.065 107.52q-0.24286 0-0.39206-0.15397-0.14762-0.15397-0.14762-0.41428 0-0.28413 0.15714-0.4508 0.15873-0.16666 0.42222-0.16666 0.25238 0 0.39365 0.15079 0.14286 0.15079 0.14286 0.42381 0 0.28095-0.15714 0.44603t-0.41905 0.16508zm0.03016-0.90635q-0.23174 0-0.23174 0.32222 0 0.30476 0.22063 0.30476 0.2254 0 0.2254-0.31746 0-0.30952-0.21428-0.30952zm1.6317-0.24762-1.4825 2.2762h-0.3873l1.4794-2.2762zm-0.24444 2.3079q-0.24286 0-0.39206-0.15397-0.14762-0.15397-0.14762-0.41428 0-0.28413 0.15714-0.45079 0.15873-0.16667 0.42222-0.16667 0.25397 0 0.39524 0.14921 0.14127 0.1492 0.14127 0.42222 0 0.28095-0.15714 0.44761-0.15714 0.16667-0.41904 0.16667zm0.0254-0.90635q-0.23016 0-0.23016 0.32222 0 0.30476 0.22381 0.30476 0.2254 0 0.2254-0.31745 0-0.14762-0.06032-0.22857-0.06032-0.081-0.15873-0.081z"/>
   </g>
   <g aria-label="10%">
    <path d="m88.92 104.46v2.327h-0.5v-1.7619q-0.04127 0.0365-0.09841 0.0698-0.05556 0.0317-0.11905 0.0587-0.06349 0.0254-0.13175 0.0444-0.06825 0.0175-0.13492 0.0254v-0.42222q0.19524-0.0571 0.36825-0.14603 0.17302-0.0889 0.3127-0.19524z"/>
    <path d="m90.395 106.82q-0.81269 0-0.81269-1.1413 0-0.59206 0.21905-0.90158 0.22063-0.31111 0.63809-0.31111 0.79365 0 0.79365 1.1603 0 0.57777-0.21746 0.88571-0.21587 0.30793-0.62063 0.30793zm0.02222-1.9714q-0.3254 0-0.3254 0.81745 0 0.76984 0.31905 0.76984 0.31111 0 0.31111-0.79365 0-0.79364-0.30476-0.79364z"/>
    <path d="m92.028 105.66q-0.24286 0-0.39206-0.15397-0.14762-0.15397-0.14762-0.41429 0-0.28412 0.15714-0.45079 0.15873-0.16666 0.42222-0.16666 0.25238 0 0.39365 0.15079 0.14286 0.15079 0.14286 0.42381 0 0.28095-0.15714 0.44603t-0.41905 0.16508zm0.03016-0.90635q-0.23174 0-0.23174 0.32222 0 0.30476 0.22063 0.30476 0.2254 0 0.2254-0.31746 0-0.30952-0.21428-0.30952zm1.6317-0.24762-1.4825 2.2762h-0.3873l1.4794-2.2762zm-0.24444 2.3079q-0.24286 0-0.39206-0.15397-0.14762-0.15397-0.14762-0.41428 0-0.28413 0.15714-0.45079 0.15873-0.16667 0.42222-0.16667 0.25397 0 0.39524 0.1492 0.14127 0.14921 0.14127 0.42222 0 0.28096-0.15714 0.44762-0.15714 0.16667-0.41904 0.16667zm0.0254-0.90635q-0.23016 0-0.23016 0.32222 0 0.30476 0.22381 0.30476 0.2254 0 0.2254-0.31746 0-0.14761-0.06032-0.22857-0.06032-0.081-0.15873-0.081z"/>
   </g>
   <g aria-label="11%">
    <path d="m110.09 102.31v2.327h-0.5v-1.7619q-0.0413 0.0365-0.0984 0.0698-0.0556 0.0317-0.11905 0.0587-0.0635 0.0254-0.13175 0.0444-0.0683 0.0175-0.13492 0.0254v-0.42222q0.19524-0.0571 0.36826-0.14603 0.17301-0.0889 0.31269-0.19524z"/>
    <path d="m111.96 102.31v2.327h-0.5v-1.7619q-0.0413 0.0365-0.0984 0.0698-0.0555 0.0317-0.11904 0.0587-0.0635 0.0254-0.13175 0.0444-0.0683 0.0175-0.13492 0.0254v-0.42222q0.19524-0.0571 0.36825-0.14603 0.17302-0.0889 0.3127-0.19524z"/>
    <path d="m113.19 103.52q-0.24286 0-0.39207-0.15397-0.14761-0.15397-0.14761-0.41428 0-0.28413 0.15714-0.4508 0.15873-0.16666 0.42222-0.16666 0.25238 0 0.39365 0.15079 0.14285 0.15079 0.14285 0.42381 0 0.28095-0.15714 0.44603t-0.41904 0.16508zm0.0302-0.90635q-0.23174 0-0.23174 0.32222 0 0.30476 0.22063 0.30476 0.2254 0 0.2254-0.31746 0-0.30952-0.21429-0.30952zm1.6317-0.24762-1.4825 2.2762h-0.3873l1.4794-2.2762zm-0.24444 2.3079q-0.24286 0-0.39206-0.15397-0.14762-0.15397-0.14762-0.41428 0-0.28413 0.15714-0.45079 0.15873-0.16667 0.42222-0.16667 0.25397 0 0.39524 0.14921 0.14127 0.1492 0.14127 0.42222 0 0.28095-0.15715 0.44761-0.15714 0.16667-0.41904 0.16667zm0.0254-0.90635q-0.23015 0-0.23015 0.32222 0 0.30476 0.22381 0.30476 0.22539 0 0.22539-0.31745 0-0.14762-0.0603-0.22857-0.0603-0.081-0.15873-0.081z"/>
   </g>
   <g aria-label="30%">
    <path d="m45.452 96.657v-0.43651q0.22857 0.16667 0.53333 0.16667 0.19206 0 0.29841-0.08254 0.10794-0.08254 0.10794-0.23016 0-0.15238-0.13333-0.23492-0.13174-0.08254-0.36349-0.08254h-0.21111v-0.38412h0.19524q0.44444 0 0.44444-0.29524 0-0.27778-0.34127-0.27778-0.22857 0-0.44444 0.14762v-0.40952q0.23968-0.12063 0.55873-0.12063 0.3492 0 0.54286 0.15714 0.19524 0.15714 0.19524 0.40793 0 0.44603-0.45238 0.55873v0.0079q0.24127 0.03016 0.38095 0.17619 0.13968 0.14444 0.13968 0.35555 0 0.31905-0.23333 0.50476t-0.64444 0.18571q-0.35238 0-0.57301-0.11428z"/>
    <path d="m48.062 96.771q-0.81269 0-0.81269-1.1413 0-0.59206 0.21905-0.90158 0.22063-0.31111 0.63809-0.31111 0.79365 0 0.79365 1.1603 0 0.57777-0.21746 0.88571-0.21587 0.30794-0.62063 0.30794zm0.02222-1.9714q-0.3254 0-0.3254 0.81746 0 0.76984 0.31905 0.76984 0.31111 0 0.31111-0.79365t-0.30476-0.79365z"/>
    <path d="m49.695 95.609q-0.24286 0-0.39206-0.15397-0.14762-0.15397-0.14762-0.41428 0-0.28413 0.15714-0.45079 0.15873-0.16667 0.42222-0.16667 0.25238 0 0.39365 0.15079 0.14286 0.15079 0.14286 0.42381 0 0.28095-0.15714 0.44603t-0.41904 0.16508zm0.03016-0.90634q-0.23174 0-0.23174 0.32222 0 0.30476 0.22063 0.30476 0.2254 0 0.2254-0.31746 0-0.30952-0.21428-0.30952zm1.6317-0.24762-1.4825 2.2762h-0.3873l1.4794-2.2762zm-0.24444 2.3079q-0.24286 0-0.39206-0.15397-0.14762-0.15397-0.14762-0.41428 0-0.28413 0.15714-0.45079 0.15873-0.16666 0.42222-0.16666 0.25397 0 0.39524 0.1492 0.14127 0.14921 0.14127 0.42222 0 0.28095-0.15714 0.44762-0.15714 0.16666-0.41904 0.16666zm0.0254-0.90634q-0.23016 0-0.23016 0.32222 0 0.30476 0.22381 0.30476 0.2254 0 0.2254-0.31746 0-0.14762-0.06032-0.22857t-0.15873-0.08095z"/>
   </g>
   <g aria-label="29%">
    <path d="m67.114 93.942h0.96507v0.41587h-1.5143v-0.17143q0-0.1746 0.05873-0.3127 0.05873-0.13968 0.14762-0.2492 0.08889-0.11111 0.19365-0.19524 0.10635-0.08571 0.20159-0.15397 0.1-0.07143 0.1746-0.13651 0.07619-0.06508 0.12698-0.12857 0.05238-0.06508 0.07778-0.13016 0.0254-0.06667 0.0254-0.14127 0-0.14603-0.08254-0.22063t-0.25238-0.0746q-0.29365 0-0.5619 0.23333v-0.44127q0.29682-0.19206 0.66984-0.19206 0.17302 0 0.30952 0.04603 0.1381 0.04444 0.23333 0.12857 0.09524 0.08413 0.14444 0.20476 0.05079 0.11905 0.05079 0.26667 0 0.15714-0.04921 0.27936-0.04762 0.12222-0.12857 0.22222-0.07936 0.1-0.18413 0.18413-0.10476 0.08254-0.21746 0.16032-0.07619 0.05397-0.14762 0.10794-0.06984 0.05238-0.12381 0.10476-0.05397 0.05079-0.08571 0.1-0.03175 0.04921-0.03175 0.09365z"/>
    <path d="m70.031 93.11q0 0.30317-0.06667 0.54285-0.06667 0.23809-0.19524 0.40317-0.12698 0.16508-0.31111 0.25397-0.18413 0.0873-0.41746 0.0873-0.27936 0-0.48095-0.08889v-0.4127q0.17936 0.11746 0.43174 0.11746 0.25873 0 0.40476-0.17619t0.14762-0.50952l-0.0095-0.0032q-0.15079 0.22381-0.45873 0.22381-0.13968 0-0.25873-0.05238-0.11746-0.05238-0.20476-0.14444-0.08571-0.09365-0.13492-0.22222-0.04762-0.12857-0.04762-0.28254 0-0.17936 0.05873-0.32698t0.16349-0.25397q0.10635-0.10635 0.25397-0.16349 0.14762-0.05873 0.32698-0.05873 0.18571 0 0.33333 0.07302 0.14762 0.07143 0.25079 0.20794 0.10476 0.13651 0.15873 0.33492 0.05555 0.19841 0.05555 0.45079zm-0.50635-0.26666q0-0.0873-0.02222-0.16349-0.02222-0.07778-0.0619-0.13333t-0.09683-0.0873q-0.05714-0.03333-0.1254-0.03333-0.06508 0-0.12063 0.02857-0.05397 0.02857-0.09365 0.07936-0.03968 0.04921-0.0619 0.11905t-0.02222 0.15079q0 0.08889 0.02222 0.15873 0.02222 0.06825 0.0619 0.11587 0.04127 0.04762 0.09841 0.07302 0.05714 0.02381 0.12698 0.02381 0.06667 0 0.12063-0.0254 0.05397-0.02698 0.09206-0.07143 0.03968-0.04444 0.06032-0.10476 0.02222-0.06032 0.02222-0.13016z"/>
    <path d="m70.862 93.236q-0.24286 0-0.39206-0.15397-0.14762-0.15397-0.14762-0.41428 0-0.28412 0.15714-0.45079 0.15873-0.16666 0.42222-0.16666 0.25238 0 0.39365 0.15079 0.14286 0.15079 0.14286 0.42381 0 0.28095-0.15714 0.44603t-0.41904 0.16508zm0.03016-0.90634q-0.23174 0-0.23174 0.32222 0 0.30476 0.22063 0.30476 0.2254 0 0.2254-0.31746 0-0.30952-0.21428-0.30952zm1.6317-0.24762-1.4825 2.2762h-0.3873l1.4794-2.2762zm-0.24444 2.3079q-0.24286 0-0.39206-0.15397-0.14762-0.15397-0.14762-0.41428 0-0.28412 0.15714-0.45079 0.15873-0.16667 0.42222-0.16667 0.25397 0 0.39524 0.14921 0.14127 0.1492 0.14127 0.42222 0 0.28095-0.15714 0.44762t-0.41904 0.16667zm0.0254-0.90634q-0.23016 0-0.23016 0.32222 0 0.30476 0.22381 0.30476 0.2254 0 0.2254-0.31746 0-0.14762-0.06032-0.22857t-0.15873-0.08095z"/>
   </g>
   <g aria-label="28%">
    <path d="m88.281 92.082h0.96507v0.41587h-1.5143v-0.17143q0-0.1746 0.05873-0.3127 0.05873-0.13968 0.14762-0.2492 0.08889-0.11111 0.19365-0.19524 0.10635-0.08571 0.20159-0.15397 0.1-0.07143 0.1746-0.13651 0.07619-0.06508 0.12698-0.12857 0.05238-0.06508 0.07778-0.13016 0.0254-0.06667 0.0254-0.14127 0-0.14603-0.08254-0.22063t-0.25238-0.0746q-0.29365 0-0.5619 0.23333v-0.44127q0.29682-0.19206 0.66984-0.19206 0.17302 0 0.30952 0.04603 0.1381 0.04444 0.23333 0.12857 0.09524 0.08413 0.14444 0.20476 0.05079 0.11905 0.05079 0.26666 0 0.15714-0.04921 0.27936-0.04762 0.12222-0.12857 0.22222-0.07936 0.1-0.18413 0.18413-0.10476 0.08254-0.21746 0.16032-0.07619 0.05397-0.14762 0.10794-0.06984 0.05238-0.12381 0.10476-0.05397 0.05079-0.08571 0.1-0.03175 0.04921-0.03175 0.09365z"/>
    <path d="m89.6 91.885q0-0.09524 0.02698-0.18254 0.02857-0.08889 0.08413-0.16349 0.05555-0.07619 0.13809-0.13492 0.08413-0.06032 0.19682-0.09841-0.17302-0.08571-0.26825-0.21905-0.09524-0.13492-0.09524-0.29841 0-0.13016 0.05397-0.24127 0.05556-0.11111 0.15238-0.19206t0.23016-0.1254q0.13492-0.04603 0.29365-0.04603 0.1619 0 0.29682 0.04603 0.13492 0.04444 0.23174 0.1254 0.09841 0.07936 0.15238 0.18889 0.05397 0.10952 0.05397 0.23809 0 0.1619-0.10159 0.29524-0.10159 0.13174-0.28095 0.21746 0.11111 0.03809 0.19524 0.09841 0.08413 0.05873 0.14127 0.13492t0.08571 0.16667q0.02857 0.08889 0.02857 0.18571 0 0.14603-0.05873 0.26666-0.05873 0.11905-0.16666 0.20635-0.10635 0.08571-0.25555 0.13333-0.14762 0.04762-0.32698 0.04762-0.17619 0-0.3254-0.04603-0.14762-0.04762-0.25555-0.13333-0.10635-0.08571-0.16667-0.20476-0.06032-0.12064-0.06032-0.26508zm0.4746-0.04286q0 0.07778 0.02381 0.13968t0.06825 0.10476 0.10476 0.06667q0.0619 0.02222 0.1381 0.02222 0.07301 0 0.13333-0.02381 0.0619-0.02381 0.10635-0.06667 0.04444-0.04286 0.06984-0.10476t0.0254-0.13809q0-0.06825-0.02381-0.13016-0.02381-0.0619-0.06825-0.10635-0.04444-0.04603-0.10635-0.07301-0.06032-0.02698-0.13651-0.02698-0.07143 0-0.13333 0.0254-0.0619 0.02381-0.10635 0.06984-0.04444 0.04444-0.06984 0.10635-0.0254 0.0619-0.0254 0.13492zm0.06984-1.0079q0 0.06032 0.02063 0.11428 0.02222 0.05238 0.05873 0.09206 0.03651 0.03809 0.08571 0.06032 0.05079 0.02222 0.10635 0.02222 0.05714 0 0.10635-0.02222t0.08571-0.0619q0.03809-0.03968 0.05873-0.09206 0.02222-0.05238 0.02222-0.1127 0-0.0619-0.02063-0.11428-0.02063-0.05397-0.05873-0.09206-0.03651-0.03968-0.0873-0.0619-0.04921-0.02222-0.10635-0.02222-0.06032 0-0.11111 0.02381-0.04921 0.02222-0.08571 0.0619-0.03492 0.03809-0.05556 0.09206-0.01905 0.05238-0.01905 0.1127z"/>
    <path d="m92.028 91.376q-0.24286 0-0.39206-0.15397-0.14762-0.15397-0.14762-0.41428 0-0.28412 0.15714-0.45079 0.15873-0.16667 0.42222-0.16667 0.25238 0 0.39365 0.15079 0.14286 0.15079 0.14286 0.42381 0 0.28095-0.15714 0.44603t-0.41905 0.16508zm0.03016-0.90634q-0.23174 0-0.23174 0.32222 0 0.30476 0.22063 0.30476 0.2254 0 0.2254-0.31746 0-0.30952-0.21428-0.30952zm1.6317-0.24762-1.4825 2.2762h-0.3873l1.4794-2.2762zm-0.24444 2.3079q-0.24286 0-0.39206-0.15397-0.14762-0.15397-0.14762-0.41428 0-0.28413 0.15714-0.45079 0.15873-0.16667 0.42222-0.16667 0.25397 0 0.39524 0.1492 0.14127 0.14921 0.14127 0.42222 0 0.28095-0.15714 0.44762t-0.41904 0.16667zm0.0254-0.90634q-0.23016 0-0.23016 0.32222 0 0.30476 0.22381 0.30476 0.2254 0 0.2254-0.31746 0-0.14762-0.06032-0.22857t-0.15873-0.08095z"/>
   </g>
   <g aria-label="27%">
    <path d="m109.45 90.996h0.96507v0.41587h-1.5143v-0.17143q0-0.1746 0.0587-0.3127 0.0587-0.13968 0.14762-0.2492 0.0889-0.11111 0.19365-0.19524 0.10635-0.08571 0.20159-0.15397 0.1-0.07143 0.1746-0.13651 0.0762-0.06508 0.12698-0.12857 0.0524-0.06508 0.0778-0.13016 0.0254-0.06667 0.0254-0.14127 0-0.14603-0.0825-0.22063t-0.25238-0.0746q-0.29365 0-0.5619 0.23333v-0.44127q0.29682-0.19206 0.66983-0.19206 0.17302 0 0.30953 0.04603 0.13809 0.04444 0.23333 0.12857 0.0952 0.08413 0.14444 0.20476 0.0508 0.11905 0.0508 0.26666 0 0.15714-0.0492 0.27936-0.0476 0.12222-0.12857 0.22222-0.0794 0.1-0.18413 0.18413-0.10476 0.08254-0.21746 0.16032-0.0762 0.05397-0.14761 0.10794-0.0699 0.05238-0.12381 0.10476-0.054 0.05079-0.0857 0.1t-0.0317 0.09365z"/>
    <path d="m112.38 89.425q-0.15238 0.2746-0.27301 0.51587-0.12064 0.23968-0.2127 0.4746-0.0921 0.23333-0.15714 0.47619-0.0651 0.24127-0.10635 0.52063h-0.52381q0.0445-0.26508 0.11746-0.51111 0.073-0.24603 0.16826-0.47619 0.0968-0.23174 0.21269-0.45079 0.11746-0.21905 0.24762-0.42857h-1.0571v-0.40952h1.5841z"/>
    <path d="m113.19 90.29q-0.24286 0-0.39207-0.15397-0.14761-0.15397-0.14761-0.41428 0-0.28413 0.15714-0.45079 0.15873-0.16666 0.42222-0.16666 0.25238 0 0.39365 0.15079 0.14285 0.15079 0.14285 0.42381 0 0.28095-0.15714 0.44603t-0.41904 0.16508zm0.0302-0.90634q-0.23174 0-0.23174 0.32222 0 0.30476 0.22063 0.30476 0.2254 0 0.2254-0.31746 0-0.30952-0.21429-0.30952zm1.6317-0.24762-1.4825 2.2762h-0.3873l1.4794-2.2762zm-0.24444 2.3079q-0.24286 0-0.39206-0.15397-0.14762-0.15397-0.14762-0.41428 0-0.28412 0.15714-0.45079 0.15873-0.16666 0.42222-0.16666 0.25397 0 0.39524 0.1492 0.14127 0.14921 0.14127 0.42222 0 0.28095-0.15715 0.44762-0.15714 0.16666-0.41904 0.16666zm0.0254-0.90634q-0.23015 0-0.23015 0.32222 0 0.30476 0.22381 0.30476 0.22539 0 0.22539-0.31746 0-0.14762-0.0603-0.22857t-0.15873-0.08095z"/>
   </g>
   <g aria-label="28%">
    <path d="m45.947 75.678h0.96507v0.41587h-1.5143v-0.17143q0-0.1746 0.05873-0.3127 0.05873-0.13968 0.14762-0.2492 0.08889-0.11111 0.19365-0.19524 0.10635-0.08571 0.20159-0.15397 0.1-0.07143 0.1746-0.13651 0.07619-0.06508 0.12698-0.12857 0.05238-0.06508 0.07778-0.13016 0.0254-0.06667 0.0254-0.14127 0-0.14603-0.08254-0.22063t-0.25238-0.0746q-0.29365 0-0.5619 0.23333v-0.44127q0.29682-0.19206 0.66984-0.19206 0.17302 0 0.30952 0.04603 0.1381 0.04444 0.23333 0.12857 0.09524 0.08413 0.14444 0.20476 0.05079 0.11905 0.05079 0.26666 0 0.15714-0.04921 0.27936-0.04762 0.12222-0.12857 0.22222-0.07936 0.1-0.18413 0.18413-0.10476 0.08254-0.21746 0.16032-0.07619 0.05397-0.14762 0.10794-0.06984 0.05238-0.12381 0.10476-0.05397 0.05079-0.08571 0.1-0.03175 0.04921-0.03175 0.09365z"/>
    <path d="m47.266 75.481q0-0.09524 0.02698-0.18254 0.02857-0.08889 0.08413-0.16349 0.05555-0.07619 0.13809-0.13492 0.08413-0.06032 0.19682-0.09841-0.17301-0.08571-0.26825-0.21905-0.09524-0.13492-0.09524-0.29841 0-0.13016 0.05397-0.24127 0.05556-0.11111 0.15238-0.19206 0.09683-0.08095 0.23016-0.1254 0.13492-0.04603 0.29365-0.04603 0.1619 0 0.29682 0.04603 0.13492 0.04444 0.23174 0.1254 0.09841 0.07936 0.15238 0.18889 0.05397 0.10952 0.05397 0.23809 0 0.1619-0.10159 0.29524-0.10159 0.13174-0.28095 0.21746 0.11111 0.03809 0.19524 0.09841 0.08413 0.05873 0.14127 0.13492t0.08571 0.16666q0.02857 0.08889 0.02857 0.18571 0 0.14603-0.05873 0.26666-0.05873 0.11905-0.16666 0.20635-0.10635 0.08571-0.25555 0.13333-0.14762 0.04762-0.32698 0.04762-0.17619 0-0.3254-0.04603-0.14762-0.04762-0.25555-0.13333-0.10635-0.08571-0.16667-0.20476-0.06032-0.12063-0.06032-0.26508zm0.4746-0.04286q0 0.07778 0.02381 0.13968t0.06825 0.10476 0.10476 0.06667q0.0619 0.02222 0.1381 0.02222 0.07302 0 0.13333-0.02381 0.06191-0.02381 0.10635-0.06667t0.06984-0.10476 0.0254-0.13809q0-0.06825-0.02381-0.13016-0.02381-0.0619-0.06825-0.10635-0.04444-0.04603-0.10635-0.07301-0.06032-0.02698-0.13651-0.02698-0.07143 0-0.13333 0.0254-0.0619 0.02381-0.10635 0.06984-0.04444 0.04444-0.06984 0.10635-0.0254 0.0619-0.0254 0.13492zm0.06984-1.0079q0 0.06032 0.02063 0.11428 0.02222 0.05238 0.05873 0.09206 0.03651 0.03809 0.08571 0.06032 0.05079 0.02222 0.10635 0.02222 0.05714 0 0.10635-0.02222t0.08571-0.0619q0.0381-0.03968 0.05873-0.09206 0.02222-0.05238 0.02222-0.1127 0-0.06191-0.02063-0.11428-0.02063-0.05397-0.05873-0.09206-0.03651-0.03968-0.0873-0.0619-0.04921-0.02222-0.10635-0.02222-0.06032 0-0.11111 0.02381-0.04921 0.02222-0.08571 0.0619-0.03492 0.03809-0.05555 0.09206-0.01905 0.05238-0.01905 0.1127z"/>
    <path d="m49.695 74.971q-0.24286 0-0.39206-0.15397-0.14762-0.15397-0.14762-0.41428 0-0.28413 0.15714-0.45079 0.15873-0.16667 0.42222-0.16667 0.25238 0 0.39365 0.15079 0.14286 0.15079 0.14286 0.42381 0 0.28095-0.15714 0.44603t-0.41904 0.16508zm0.03016-0.90634q-0.23174 0-0.23174 0.32222 0 0.30476 0.22063 0.30476 0.2254 0 0.2254-0.31746 0-0.30952-0.21428-0.30952zm1.6317-0.24762-1.4825 2.2762h-0.3873l1.4794-2.2762zm-0.24444 2.3079q-0.24286 0-0.39206-0.15397-0.14762-0.15397-0.14762-0.41428 0-0.28413 0.15714-0.45079 0.15873-0.16666 0.42222-0.16666 0.25397 0 0.39524 0.1492 0.14127 0.14921 0.14127 0.42222 0 0.28095-0.15714 0.44762-0.15714 0.16666-0.41904 0.16666zm0.0254-0.90634q-0.23016 0-0.23016 0.32222 0 0.30476 0.22381 0.30476 0.2254 0 0.2254-0.31746 0-0.14762-0.06032-0.22857t-0.15873-0.08095z"/>
   </g>
   <g aria-label="27%">
    <path d="m67.114 74.363h0.96507v0.41587h-1.5143v-0.17143q0-0.1746 0.05873-0.3127 0.05873-0.13968 0.14762-0.2492 0.08889-0.11111 0.19365-0.19524 0.10635-0.08571 0.20159-0.15397 0.1-0.07143 0.1746-0.13651 0.07619-0.06508 0.12698-0.12857 0.05238-0.06508 0.07778-0.13016 0.0254-0.06667 0.0254-0.14127 0-0.14603-0.08254-0.22063t-0.25238-0.0746q-0.29365 0-0.5619 0.23333v-0.44127q0.29682-0.19206 0.66984-0.19206 0.17302 0 0.30952 0.04603 0.1381 0.04444 0.23333 0.12857 0.09524 0.08413 0.14444 0.20476 0.05079 0.11905 0.05079 0.26666 0 0.15714-0.04921 0.27936-0.04762 0.12222-0.12857 0.22222-0.07936 0.1-0.18413 0.18413-0.10476 0.08254-0.21746 0.16032-0.07619 0.05397-0.14762 0.10794-0.06984 0.05238-0.12381 0.10476-0.05397 0.05079-0.08571 0.1-0.03175 0.04921-0.03175 0.09365z"/>
    <path d="m70.043 72.791q-0.15238 0.2746-0.27301 0.51587-0.12064 0.23968-0.2127 0.4746-0.09206 0.23333-0.15714 0.47619-0.06508 0.24127-0.10635 0.52063h-0.52381q0.04444-0.26508 0.11746-0.51111 0.07301-0.24603 0.16825-0.47619 0.09683-0.23174 0.2127-0.45079 0.11746-0.21905 0.24762-0.42857h-1.0571v-0.40952h1.5841z"/>
    <path d="m70.862 73.656q-0.24286 0-0.39206-0.15397-0.14762-0.15397-0.14762-0.41428 0-0.28412 0.15714-0.45079 0.15873-0.16667 0.42222-0.16667 0.25238 0 0.39365 0.15079 0.14286 0.15079 0.14286 0.42381 0 0.28095-0.15714 0.44603t-0.41904 0.16508zm0.03016-0.90634q-0.23174 0-0.23174 0.32222 0 0.30476 0.22063 0.30476 0.2254 0 0.2254-0.31746 0-0.30952-0.21428-0.30952zm1.6317-0.24762-1.4825 2.2762h-0.3873l1.4794-2.2762zm-0.24444 2.3079q-0.24286 0-0.39206-0.15397-0.14762-0.15397-0.14762-0.41428 0-0.28412 0.15714-0.45079 0.15873-0.16667 0.42222-0.16667 0.25397 0 0.39524 0.14921 0.14127 0.1492 0.14127 0.42222 0 0.28095-0.15714 0.44762t-0.41904 0.16667zm0.0254-0.90634q-0.23016 0-0.23016 0.32222 0 0.30476 0.22381 0.30476 0.2254 0 0.2254-0.31746 0-0.14762-0.06032-0.22857t-0.15873-0.08095z"/>
   </g>
   <g aria-label="26%">
    <path d="m88.281 73.561h0.96507v0.41587h-1.5143v-0.17143q0-0.1746 0.05873-0.3127 0.05873-0.13968 0.14762-0.2492 0.08889-0.11111 0.19365-0.19524 0.10635-0.08571 0.20159-0.15397 0.1-0.07143 0.1746-0.13651 0.07619-0.06508 0.12698-0.12857 0.05238-0.06508 0.07778-0.13016 0.0254-0.06667 0.0254-0.14127 0-0.14603-0.08254-0.22063t-0.25238-0.0746q-0.29365 0-0.5619 0.23333v-0.44127q0.29682-0.19206 0.66984-0.19206 0.17302 0 0.30952 0.04603 0.1381 0.04444 0.23333 0.12857 0.09524 0.08413 0.14444 0.20476 0.05079 0.11905 0.05079 0.26666 0 0.15714-0.04921 0.27936-0.04762 0.12222-0.12857 0.22222-0.07936 0.1-0.18413 0.18413-0.10476 0.08254-0.21746 0.16032-0.07619 0.05397-0.14762 0.10794-0.06984 0.05238-0.12381 0.10476-0.05397 0.05079-0.08571 0.1-0.03175 0.04921-0.03175 0.09365z"/>
    <path d="m91.235 73.22q0 0.16825-0.05873 0.31428t-0.16349 0.25397q-0.10476 0.10635-0.2492 0.16825-0.14444 0.06032-0.31587 0.06032-0.19206 0-0.34444-0.07143-0.15079-0.07143-0.25555-0.20635-0.10476-0.13651-0.16032-0.33333-0.05555-0.19682-0.05555-0.44603 0-0.29365 0.07143-0.53174 0.07302-0.23968 0.20635-0.40952 0.13492-0.16984 0.3254-0.2619 0.19048-0.09365 0.42857-0.09365 0.26349 0 0.40952 0.0619v0.41905q-0.17302-0.09841-0.37778-0.09841-0.12698 0-0.23016 0.04921t-0.17778 0.13968q-0.07301 0.09048-0.11587 0.21905-0.04127 0.12698-0.04445 0.28412h0.0095q0.1619-0.22381 0.47778-0.22381 0.14127 0 0.25555 0.05079 0.11429 0.05079 0.19524 0.14444 0.08095 0.09206 0.1254 0.22222 0.04444 0.13016 0.04444 0.28889zm-0.49047 0.03175q0-0.36666-0.3-0.36666-0.06825 0-0.12381 0.0254-0.05555 0.0254-0.09524 0.07143-0.03968 0.04603-0.06191 0.10952-0.02063 0.0619-0.02063 0.1381 0 0.08413 0.02222 0.15714t0.06191 0.12857q0.04127 0.05397 0.09682 0.08571 0.05555 0.03175 0.12381 0.03175 0.06825 0 0.12222-0.02698 0.05555-0.02857 0.09365-0.07778 0.03968-0.05079 0.06032-0.12063 0.02063-0.07143 0.02063-0.15556z"/>
    <path d="m92.028 72.855q-0.24286 0-0.39206-0.15397-0.14762-0.15397-0.14762-0.41428 0-0.28412 0.15714-0.45079 0.15873-0.16667 0.42222-0.16667 0.25238 0 0.39365 0.15079 0.14286 0.15079 0.14286 0.42381 0 0.28095-0.15714 0.44603t-0.41905 0.16508zm0.03016-0.90634q-0.23174 0-0.23174 0.32222 0 0.30476 0.22063 0.30476 0.2254 0 0.2254-0.31746 0-0.30952-0.21428-0.30952zm1.6317-0.24762-1.4825 2.2762h-0.3873l1.4794-2.2762zm-0.24444 2.3079q-0.24286 0-0.39206-0.15397-0.14762-0.15397-0.14762-0.41428 0-0.28412 0.15714-0.45079 0.15873-0.16667 0.42222-0.16667 0.25397 0 0.39524 0.14921 0.14127 0.1492 0.14127 0.42222 0 0.28095-0.15714 0.44762t-0.41904 0.16667zm0.0254-0.90634q-0.23016 0-0.23016 0.32222 0 0.30476 0.22381 0.30476 0.2254 0 0.2254-0.31746 0-0.14762-0.06032-0.22857t-0.15873-0.08095z"/>
   </g>
   <g aria-label="25%">
    <path d="m109.45 71.946h0.96507v0.41587h-1.5143v-0.17143q0-0.1746 0.0587-0.3127 0.0587-0.13968 0.14762-0.2492 0.0889-0.11111 0.19365-0.19524 0.10635-0.08571 0.20159-0.15397 0.1-0.07143 0.1746-0.13651 0.0762-0.06508 0.12698-0.12857 0.0524-0.06508 0.0778-0.13016 0.0254-0.06667 0.0254-0.14127 0-0.14603-0.0825-0.22063t-0.25238-0.0746q-0.29365 0-0.5619 0.23333v-0.44127q0.29682-0.19206 0.66983-0.19206 0.17302 0 0.30953 0.04603 0.13809 0.04444 0.23333 0.12857 0.0952 0.08413 0.14444 0.20476 0.0508 0.11905 0.0508 0.26666 0 0.15714-0.0492 0.27936-0.0476 0.12222-0.12857 0.22222-0.0794 0.1-0.18413 0.18413-0.10476 0.08254-0.21746 0.16032-0.0762 0.05397-0.14761 0.10794-0.0699 0.05238-0.12381 0.10476-0.054 0.05079-0.0857 0.1t-0.0317 0.09365z"/>
    <path d="m110.86 72.303v-0.42857q0.23333 0.14286 0.49682 0.14286 0.19841 0 0.30952-0.09365 0.1127-0.09524 0.1127-0.25714 0-0.33809-0.47777-0.33809-0.17619 0-0.40635 0.02698l0.0857-1.2698h1.2048v0.40952h-0.82222l-0.0317 0.45555q0.12222-0.0095 0.21111-0.0095 0.35079 0 0.5492 0.18413t0.19841 0.49524q0 0.34444-0.23651 0.56349-0.2365 0.21746-0.64126 0.21746-0.32857 0-0.55238-0.09841z"/>
    <path d="m113.19 71.24q-0.24286 0-0.39207-0.15397-0.14761-0.15397-0.14761-0.41428 0-0.28412 0.15714-0.45079 0.15873-0.16667 0.42222-0.16667 0.25238 0 0.39365 0.15079 0.14285 0.15079 0.14285 0.42381 0 0.28095-0.15714 0.44603t-0.41904 0.16508zm0.0302-0.90634q-0.23174 0-0.23174 0.32222 0 0.30476 0.22063 0.30476 0.2254 0 0.2254-0.31746 0-0.30952-0.21429-0.30952zm1.6317-0.24762-1.4825 2.2762h-0.3873l1.4794-2.2762zm-0.24444 2.3079q-0.24286 0-0.39206-0.15397-0.14762-0.15397-0.14762-0.41428 0-0.28412 0.15714-0.45079 0.15873-0.16667 0.42222-0.16667 0.25397 0 0.39524 0.14921 0.14127 0.1492 0.14127 0.42222 0 0.28095-0.15715 0.44762-0.15714 0.16667-0.41904 0.16667zm0.0254-0.90634q-0.23015 0-0.23015 0.32222 0 0.30476 0.22381 0.30476 0.22539 0 0.22539-0.31746 0-0.14762-0.0603-0.22857t-0.15873-0.08095z"/>
   </g>
  </g>
  <g fill="#e9e56f" stroke-width=".91799px">
   <g aria-label="Smartphones">
    <path d="m5.8334 123.06v-0.66819q0.18166 0.15243 0.39465 0.22969 0.21298 0.0752 0.43015 0.0752 0.12737 0 0.22134-0.023 0.096052-0.023 0.15869-0.0626 0.064731-0.0418 0.096052-0.0961 0.031321-0.0564 0.031321-0.12111 0-0.0877-0.050114-0.15661-0.050114-0.0689-0.13781-0.12737-0.085611-0.0585-0.20463-0.11276-0.11902-0.0543-0.25683-0.11066-0.3508-0.14617-0.52411-0.35707-0.17122-0.21089-0.17122-0.50949 0-0.23386 0.093964-0.40091 0.093964-0.16914 0.25475-0.27772 0.16287-0.10858 0.37586-0.15869 0.21298-0.0522 0.45103-0.0522 0.23387 0 0.41344 0.0292 0.18166 0.0271 0.33409 0.0856v0.62434q-0.075171-0.0522-0.16496-0.0919-0.0877-0.0397-0.18166-0.0647-0.093964-0.0271-0.18793-0.0397-0.091876-0.0125-0.1754-0.0125-0.11484 0-0.20881 0.023-0.093964 0.0209-0.15869 0.0606-0.064731 0.0397-0.10023 0.0961-0.035497 0.0543-0.035497 0.12319 0 0.0752 0.039674 0.13573 0.039674 0.0585 0.11276 0.11276 0.073083 0.0522 0.17749 0.1044 0.1044 0.0501 0.23595 0.1044 0.17958 0.0752 0.32156 0.16079 0.14408 0.0835 0.24639 0.19001 0.10232 0.10649 0.15661 0.24431 0.05429 0.13572 0.05429 0.31739 0 0.25057-0.096052 0.42179-0.093964 0.16913-0.25683 0.27563-0.16287 0.1044-0.38003 0.15034-0.21507 0.0459-0.4552 0.0459-0.24639 0-0.46982-0.0418-0.22134-0.0418-0.38421-0.12528z"/>
    <path d="m11.699 123.18h-0.65775v-1.2194q0-0.46564-0.34244-0.46564-0.16287 0-0.26519 0.1399t-0.10232 0.34871v1.1965h-0.65983v-1.232q0-0.45311-0.33618-0.45311-0.16913 0-0.27145 0.13364-0.10023 0.13364-0.10023 0.36332v1.1881h-0.65983v-2.1382h0.65983v0.33409h0.00835q0.10232-0.17122 0.28607-0.27772 0.18584-0.10858 0.40509-0.10858 0.45311 0 0.62016 0.39883 0.24431-0.39883 0.7183-0.39883 0.69742 0 0.69742 0.86029z"/>
    <path d="m14 123.18h-0.62434v-0.30694h-0.0084q-0.21507 0.35915-0.63686 0.35915-0.31112 0-0.4907-0.1754-0.17749-0.17749-0.17749-0.47191 0-0.62225 0.73709-0.7183l0.58049-0.0773q0-0.3508-0.38003-0.3508-0.38212 0-0.72665 0.2276v-0.49696q0.13781-0.071 0.37586-0.12529 0.24013-0.0543 0.43641-0.0543 0.91458 0 0.91458 0.9125zm-0.62016-0.86864v-0.14408l-0.38838 0.0501q-0.32156 0.0418-0.32156 0.29024 0 0.11276 0.07726 0.18584 0.07935 0.071 0.21298 0.071 0.18584 0 0.30277-0.12738 0.11693-0.12946 0.11693-0.32574z"/>
    <path d="m15.921 121.63q-0.11902-0.0647-0.27772-0.0647-0.21507 0-0.33618 0.15869-0.12111 0.15661-0.12111 0.42806v1.0211h-0.65983v-2.1382h0.65983v0.39673h0.0084q0.15661-0.43432 0.56378-0.43432 0.1044 0 0.16287 0.0251z"/>
    <path d="m17.648 123.15q-0.14616 0.0773-0.44058 0.0773-0.69742 0-0.69742-0.72457v-0.97931h-0.34662v-0.48652h0.34662v-0.46147l0.65775-0.18793v0.6494h0.48026v0.48652h-0.48026v0.86447q0 0.33409 0.26519 0.33409 0.1044 0 0.21507-0.0605z"/>
    <path d="m18.686 122.93h-0.0084v1.232h-0.65983v-3.1217h0.65983v0.32156h0.0084q0.2443-0.37377 0.68698-0.37377 0.41553 0 0.64104 0.28607 0.2276 0.28398 0.2276 0.77468 0 0.53455-0.26519 0.8582-0.2631 0.32366-0.7016 0.32366-0.3863 0-0.58884-0.30069zm-0.01879-0.87699v0.17122q0 0.22134 0.11693 0.36124t0.30695 0.1399q0.22551 0 0.34871-0.17331 0.12528-0.1754 0.12528-0.49488 0-0.56378-0.4385-0.56378-0.20254 0-0.332 0.15452-0.12737 0.15243-0.12737 0.40509z"/>
    <path d="m22.726 123.18h-0.65775v-1.2153q0-0.46982-0.34245-0.46982-0.1754 0-0.28398 0.13155t-0.10858 0.33409v1.2194h-0.65983v-3.1655h0.65983v1.3447h0.0084q0.24222-0.3696 0.65775-0.3696 0.72665 0 0.72665 0.877z"/>
    <path d="m24.265 123.23q-0.53455 0-0.8415-0.2986-0.30486-0.30068-0.30486-0.81435 0-0.53038 0.31739-0.82897 0.31739-0.30069 0.8582-0.30069 0.53246 0 0.83523 0.30069 0.30277 0.29859 0.30277 0.79138 0 0.53246-0.31321 0.8415-0.31112 0.30904-0.85403 0.30904zm0.0167-1.7373q-0.23387 0-0.36333 0.16078-0.12946 0.16079-0.12946 0.45521 0 0.61598 0.49696 0.61598 0.474 0 0.474-0.63269 0-0.59928-0.47817-0.59928z"/>
    <path d="m27.925 123.18h-0.65775v-1.1881q0-0.49696-0.35497-0.49696-0.17122 0-0.28189 0.13155t-0.11067 0.33409v1.2194h-0.65983v-2.1382h0.65983v0.33827h0.0084q0.23595-0.39048 0.68698-0.39048 0.70995 0 0.70995 0.88118z"/>
    <path d="m30.371 122.3h-1.3948q0.03341 0.46565 0.58675 0.46565 0.35289 0 0.62016-0.16705v0.47608q-0.29651 0.1587-0.7705 0.1587-0.51784 0-0.80391-0.28607-0.28607-0.28816-0.28607-0.80183 0-0.53246 0.30904-0.84358 0.30904-0.31113 0.76006-0.31113 0.46773 0 0.72248 0.27772 0.25684 0.27771 0.25684 0.7538zm-0.61181-0.40509q0-0.45937-0.37168-0.45937-0.15869 0-0.27563 0.13155-0.11484 0.13154-0.1399 0.32782z"/>
    <path d="m30.623 123.12v-0.53455q0.16287 0.0981 0.32365 0.14616 0.16287 0.048 0.30695 0.048 0.1754 0 0.27563-0.048 0.10232-0.048 0.10232-0.14616 0-0.0626-0.04594-0.10441-0.04594-0.0418-0.11902-0.0731-0.071-0.0313-0.15661-0.0564t-0.16496-0.0564q-0.12737-0.048-0.22551-0.10231-0.09605-0.0564-0.16287-0.12946-0.06473-0.0731-0.10023-0.16914-0.03341-0.0961-0.03341-0.2276 0-0.17958 0.07726-0.30904 0.07935-0.12946 0.20881-0.21089 0.13155-0.0835 0.2986-0.12111 0.16914-0.0397 0.3508-0.0397 0.14199 0 0.28816 0.023 0.14617 0.0209 0.28816 0.0627v0.50949q-0.12528-0.0731-0.26936-0.10858-0.14199-0.0376-0.2798-0.0376-0.06473 0-0.1232 0.0125-0.05638 0.0104-0.10023 0.0334-0.04385 0.0209-0.06891 0.0564-0.02506 0.0334-0.02506 0.0773 0 0.0585 0.03758 0.10023 0.03759 0.0418 0.09814 0.0731 0.06056 0.0292 0.13364 0.0543 0.07517 0.023 0.14825 0.048 0.13155 0.0459 0.23804 0.10023 0.10649 0.0543 0.18166 0.12738 0.07726 0.0731 0.11693 0.17122 0.04176 0.0981 0.04176 0.23386 0 0.19002-0.08352 0.32574-0.08144 0.13364-0.21925 0.21925-0.13573 0.0835-0.3153 0.12111-0.17749 0.0397-0.36959 0.0397-0.35289 0-0.65357-0.10858z"/>
   </g>
   <g aria-label="Tablets">
    <path d="m20.774 109.09h-0.85403v2.4451h-0.67654v-2.4451h-0.84985v-0.54917h2.3804z"/>
    <path d="m22.532 111.54h-0.62434v-0.30694h-0.0084q-0.21507 0.35915-0.63686 0.35915-0.31112 0-0.4907-0.1754-0.17749-0.17749-0.17749-0.47191 0-0.62225 0.73709-0.7183l0.58049-0.0773q0-0.3508-0.38003-0.3508-0.38212 0-0.72665 0.2276v-0.49696q0.13781-0.071 0.37586-0.12529 0.24013-0.0543 0.43641-0.0543 0.91458 0 0.91458 0.9125zm-0.62016-0.86864v-0.14408l-0.38838 0.0501q-0.32156 0.0418-0.32156 0.29024 0 0.11276 0.07726 0.18584 0.07935 0.071 0.21298 0.071 0.18584 0 0.30277-0.12737 0.11693-0.12946 0.11693-0.32574z"/>
    <path d="m23.727 111.29h-0.0084v0.24848h-0.65983v-3.1655h0.65983v1.3489h0.0084q0.24431-0.37377 0.69533-0.37377 0.41344 0 0.63686 0.28398t0.22342 0.77677q0 0.53455-0.26101 0.8582-0.26101 0.32366-0.69742 0.32366-0.39465 0-0.59719-0.30069zm-0.01879-0.90205v0.21925q0 0.20672 0.11902 0.34244 0.11902 0.13573 0.30486 0.13573 0.22551 0 0.34871-0.17331 0.12528-0.1754 0.12528-0.49488 0-0.26518-0.11484-0.41344-0.11276-0.15034-0.32365-0.15034-0.19837 0-0.32992 0.14825-0.12946 0.14826-0.12946 0.3863z"/>
    <path d="m26.374 111.54h-0.65984v-3.1655h0.65984z"/>
    <path d="m28.855 110.65h-1.3948q0.03341 0.46564 0.58675 0.46564 0.35289 0 0.62016-0.16704v0.47608q-0.29651 0.1587-0.7705 0.1587-0.51784 0-0.80391-0.28607-0.28607-0.28816-0.28607-0.80183 0-0.53246 0.30904-0.84358 0.30904-0.31113 0.76006-0.31113 0.46773 0 0.72248 0.27772 0.25683 0.27771 0.25683 0.7538zm-0.61181-0.40509q0-0.45937-0.37168-0.45937-0.15869 0-0.27563 0.13155-0.11484 0.13154-0.1399 0.32782z"/>
    <path d="m30.54 111.51q-0.14617 0.0773-0.44059 0.0773-0.69742 0-0.69742-0.72457v-0.97931h-0.34662v-0.48652h0.34662v-0.46147l0.65775-0.18793v0.6494h0.48026v0.48652h-0.48026v0.86447q0 0.33409 0.26519 0.33409 0.1044 0 0.21507-0.0605z"/>
    <path d="m30.77 111.48v-0.53455q0.16287 0.0981 0.32365 0.14616 0.16287 0.048 0.30695 0.048 0.1754 0 0.27563-0.048 0.10232-0.048 0.10232-0.14616 0-0.0627-0.04594-0.10441-0.04594-0.0418-0.11902-0.0731-0.07099-0.0313-0.15661-0.0564-0.08561-0.0251-0.16496-0.0564-0.12737-0.048-0.22551-0.10231-0.09605-0.0564-0.16287-0.12946-0.06473-0.0731-0.10023-0.16914-0.03341-0.096-0.03341-0.2276 0-0.17958 0.07726-0.30904 0.07935-0.12946 0.20881-0.21089 0.13155-0.0835 0.2986-0.12111 0.16914-0.0397 0.3508-0.0397 0.14199 0 0.28816 0.023 0.14617 0.0209 0.28816 0.0627v0.50949q-0.12528-0.0731-0.26936-0.10858-0.14199-0.0376-0.2798-0.0376-0.06473 0-0.1232 0.0125-0.05638 0.0104-0.10023 0.0334-0.04385 0.0209-0.06891 0.0564-0.02506 0.0334-0.02506 0.0773 0 0.0585 0.03758 0.10023 0.03759 0.0418 0.09814 0.0731 0.06056 0.0292 0.13364 0.0543 0.07517 0.023 0.14825 0.048 0.13155 0.0459 0.23804 0.10023 0.10649 0.0543 0.18166 0.12738 0.07726 0.0731 0.11693 0.17122 0.04176 0.0981 0.04176 0.23386 0 0.19002-0.08352 0.32574-0.08143 0.13364-0.21925 0.21925-0.13572 0.0835-0.3153 0.12111-0.17749 0.0397-0.36959 0.0397-0.35289 0-0.65357-0.10858z"/>
   </g>
   <g aria-label="Console">
    <path d="m19.303 96.083q-0.32783 0.1587-0.85611 0.1587-0.68907 0-1.0837-0.40509-0.39465-0.40509-0.39465-1.0795 0-0.7183 0.44267-1.1652 0.44476-0.44685 1.1526-0.44685 0.4385 0 0.73918 0.11067v0.64939q-0.30068-0.17958-0.68489-0.17958-0.42179 0-0.68072 0.26519-0.25892 0.26519-0.25892 0.7183 0 0.43432 0.24431 0.69324 0.24431 0.25683 0.65775 0.25683 0.39465 0 0.72248-0.1921z"/>
    <path d="m20.783 96.242q-0.53455 0-0.8415-0.2986-0.30486-0.30068-0.30486-0.81435 0-0.53037 0.31739-0.82897 0.31739-0.30068 0.8582-0.30068 0.53246 0 0.83523 0.30068 0.30277 0.2986 0.30277 0.79138 0 0.53246-0.31321 0.8415-0.31112 0.30904-0.85403 0.30904zm0.0167-1.7373q-0.23386 0-0.36333 0.16078-0.12946 0.16078-0.12946 0.4552 0 0.61598 0.49696 0.61598 0.474 0 0.474-0.63269 0-0.59928-0.47817-0.59928z"/>
    <path d="m24.444 96.189h-0.65775v-1.1881q0-0.49696-0.35498-0.49696-0.17122 0-0.28189 0.13155t-0.11067 0.33409v1.2194h-0.65984v-2.1382h0.65984v0.33827h0.0084q0.23595-0.39047 0.68698-0.39047 0.70995 0 0.70995 0.88117z"/>
    <path d="m24.828 96.133v-0.53455q0.16287 0.09814 0.32365 0.14617 0.16287 0.04803 0.30695 0.04803 0.1754 0 0.27563-0.04803 0.10232-0.04803 0.10232-0.14617 0-0.06264-0.04594-0.1044t-0.11902-0.07308q-0.07099-0.03132-0.15661-0.05638-0.08561-0.02506-0.16496-0.05638-0.12737-0.04803-0.22551-0.10232-0.09605-0.05638-0.16287-0.12946-0.06473-0.07308-0.10023-0.16914-0.03341-0.09605-0.03341-0.2276 0-0.17958 0.07726-0.30904 0.07935-0.12946 0.20881-0.2109 0.13155-0.08352 0.2986-0.12111 0.16914-0.03967 0.3508-0.03967 0.14199 0 0.28816 0.02297 0.14616 0.02088 0.28816 0.06264v0.50949q-0.12528-0.07308-0.26936-0.10858-0.14199-0.03758-0.2798-0.03758-0.06473 0-0.1232 0.01253-0.05638 0.01044-0.10023 0.03341-0.04385 0.02088-0.06891 0.05638-0.02506 0.03341-0.02506 0.07726 0 0.05847 0.03759 0.10023 0.03758 0.04176 0.09814 0.07308 0.06055 0.02923 0.13364 0.05429 0.07517 0.02297 0.14825 0.04803 0.13155 0.04594 0.23804 0.10023t0.18166 0.12737q0.07726 0.07308 0.11693 0.17122 0.04176 0.09814 0.04176 0.23386 0 0.19002-0.08352 0.32574-0.08143 0.13364-0.21925 0.21925-0.13572 0.08352-0.3153 0.12111-0.17749 0.03967-0.36959 0.03967-0.35289 0-0.65357-0.10858z"/>
    <path d="m27.866 96.242q-0.53455 0-0.8415-0.2986-0.30486-0.30068-0.30486-0.81435 0-0.53037 0.31739-0.82897 0.31739-0.30068 0.8582-0.30068 0.53246 0 0.83523 0.30068 0.30277 0.2986 0.30277 0.79138 0 0.53246-0.31321 0.8415-0.31112 0.30904-0.85403 0.30904zm0.01671-1.7373q-0.23386 0-0.36333 0.16078-0.12946 0.16078-0.12946 0.4552 0 0.61598 0.49696 0.61598 0.474 0 0.474-0.63269 0-0.59928-0.47817-0.59928z"/>
    <path d="m30.121 96.189h-0.65984v-3.1655h0.65984z"/>
    <path d="m32.602 95.308h-1.3948q0.03341 0.46564 0.58675 0.46564 0.35289 0 0.62016-0.16705v0.47608q-0.29651 0.1587-0.7705 0.1587-0.51784 0-0.80391-0.28607-0.28607-0.28816-0.28607-0.80182 0-0.53246 0.30904-0.84359 0.30904-0.31112 0.76006-0.31112 0.46773 0 0.72248 0.27772 0.25684 0.27772 0.25684 0.7538zm-0.61181-0.40509q0-0.45938-0.37168-0.45938-0.15869 0-0.27563 0.13155-0.11484 0.13155-0.1399 0.32783z"/>
   </g>
   <g aria-label="PC">
    <path d="m28.559 75.921v1.0315h-0.67445v-2.9943h1.0566q1.1317 0 1.1317 0.95426 0 0.45103-0.32574 0.73083-0.32365 0.27772-0.86656 0.27772zm0-1.445v0.93337h0.26519q0.53872 0 0.53872-0.47191 0-0.46147-0.53872-0.46147z"/>
    <path d="m32.662 76.846q-0.32783 0.15869-0.85611 0.15869-0.68907 0-1.0837-0.40509-0.39465-0.40509-0.39465-1.0795 0-0.7183 0.44267-1.1652 0.44476-0.44685 1.1526-0.44685 0.4385 0 0.73918 0.11067v0.64939q-0.30068-0.17958-0.68489-0.17958-0.42179 0-0.68072 0.26519-0.25892 0.26519-0.25892 0.7183 0 0.43432 0.24431 0.69324 0.24431 0.25683 0.65775 0.25683 0.39465 0 0.72248-0.1921z"/>
   </g>
   <g aria-label="$91.8Bn">
    <path d="m41.12 62.648v0.45311h-0.30486v-0.44059q-0.42388-0.0021-0.7893-0.1921v-0.5784q0.12111 0.09814 0.36124 0.18166t0.42806 0.09605v-0.76006q-0.48861-0.18166-0.66819-0.39256-0.17749-0.21298-0.17749-0.51784 0-0.32783 0.23178-0.55752 0.23178-0.23178 0.6139-0.26936v-0.38838h0.30486v0.38003q0.44059 0.02088 0.65775 0.14199v0.56378q-0.29233-0.17749-0.65775-0.21716v0.79138q0.45729 0.16496 0.65566 0.37794 0.19837 0.2109 0.19837 0.51158 0 0.34662-0.22134 0.55961-0.22134 0.2109-0.63269 0.25683zm-0.30486-1.8271v-0.66192q-0.29024 0.0522-0.29024 0.30277 0 0.21507 0.29024 0.35915zm0.30486 0.70577v0.63269q0.2986-0.04594 0.2986-0.2986 0-0.20463-0.2986-0.33409z"/>
    <path d="m44.447 61.024q0 0.39882-0.0877 0.71412-0.0877 0.31321-0.25684 0.53037-0.16705 0.21716-0.40926 0.33409-0.24222 0.11484-0.54917 0.11484-0.3675 0-0.63269-0.11693v-0.5429q0.23595 0.15452 0.56796 0.15452 0.34036 0 0.53246-0.23178t0.19419-0.67028l-0.01253-0.0042q-0.19837 0.29442-0.60346 0.29442-0.18375 0-0.34036-0.06891-0.15452-0.06891-0.26936-0.19002-0.11276-0.1232-0.17749-0.29233-0.06264-0.16914-0.06264-0.37168 0-0.23595 0.07726-0.43014t0.21507-0.33409q0.1399-0.1399 0.33409-0.21507 0.19419-0.07726 0.43014-0.07726 0.24431 0 0.4385 0.09605 0.19419 0.09396 0.32992 0.27354 0.13781 0.17958 0.20881 0.44058 0.07308 0.26101 0.07308 0.59302zm-0.6661-0.3508q0-0.11484-0.02923-0.21507-0.02923-0.10232-0.08143-0.1754t-0.12737-0.11484q-0.07517-0.04385-0.16496-0.04385-0.08561 0-0.15869 0.03759-0.07099 0.03758-0.1232 0.1044-0.0522 0.06473-0.08143 0.15661t-0.02923 0.19837q0 0.11693 0.02923 0.20881 0.02923 0.08979 0.08143 0.15243 0.05429 0.06264 0.12946 0.09605 0.07517 0.03132 0.16705 0.03132 0.0877 0 0.15869-0.03341 0.07099-0.0355 0.12111-0.09396 0.0522-0.05847 0.07935-0.13781 0.02923-0.07935 0.02923-0.17122z"/>
    <path d="m46.378 59.604v3.0611h-0.65775v-2.3178q-0.05429 0.04803-0.12946 0.09188-0.07308 0.04176-0.15661 0.07726-0.08352 0.03341-0.17331 0.05847-0.08979 0.02297-0.17749 0.03341v-0.55543q0.25683-0.07517 0.48444-0.1921t0.41135-0.25684z"/>
    <path d="m47.677 62.717q-0.16287 0-0.27145-0.10023t-0.10858-0.24639q0-0.15034 0.11067-0.24639 0.11276-0.09605 0.2798-0.09605 0.16914 0 0.27563 0.09814 0.10858 0.09605 0.10858 0.24431 0 0.15243-0.11067 0.25057-0.10858 0.09605-0.28398 0.09605z"/>
    <path d="m48.433 61.859q0-0.12528 0.0355-0.24013 0.03758-0.11693 0.11067-0.21507 0.07308-0.10023 0.18166-0.17749 0.11067-0.07935 0.25892-0.12946-0.2276-0.11276-0.35289-0.28816-0.12528-0.17749-0.12528-0.39256 0-0.17122 0.07099-0.31739 0.07308-0.14617 0.20046-0.25266 0.12737-0.10649 0.30277-0.16496 0.17749-0.06055 0.3863-0.06055 0.21298 0 0.39047 0.06055 0.17749 0.05847 0.30486 0.16496 0.12946 0.1044 0.20046 0.24848 0.07099 0.14408 0.07099 0.31321 0 0.21298-0.13364 0.38838-0.13364 0.17331-0.36959 0.28607 0.14616 0.05011 0.25683 0.12946 0.11067 0.07726 0.18584 0.17749t0.11276 0.21925q0.03758 0.11693 0.03758 0.24431 0 0.1921-0.07726 0.3508-0.07726 0.15661-0.21925 0.27145-0.1399 0.11276-0.33618 0.1754-0.19419 0.06264-0.43014 0.06264-0.23178 0-0.42806-0.06056-0.19419-0.06264-0.33618-0.1754-0.1399-0.11276-0.21925-0.26936-0.07935-0.15869-0.07935-0.34871zm0.62434-0.05638q0 0.10232 0.03132 0.18375 0.03132 0.08144 0.08979 0.13781 0.05847 0.05638 0.13781 0.0877 0.08144 0.02923 0.18166 0.02923 0.09605 0 0.1754-0.03132 0.08143-0.03132 0.1399-0.0877t0.09188-0.13781 0.03341-0.18166q0-0.08979-0.03132-0.17122t-0.08979-0.1399q-0.05847-0.06056-0.1399-0.09605-0.07935-0.0355-0.17958-0.0355-0.09396 0-0.1754 0.03341-0.08143 0.03132-0.1399 0.09188-0.05847 0.05847-0.09188 0.1399t-0.03341 0.17749zm0.09188-1.3259q0 0.07935 0.02714 0.15034 0.02923 0.06891 0.07726 0.12111 0.04803 0.05011 0.11276 0.07935 0.06682 0.02923 0.1399 0.02923 0.07517 0 0.1399-0.02923t0.11276-0.08144q0.05011-0.0522 0.07726-0.12111 0.02923-0.06891 0.02923-0.14825 0-0.08143-0.02715-0.15034-0.02715-0.071-0.07726-0.12111-0.04803-0.0522-0.11484-0.08143-0.06473-0.02923-0.1399-0.02923-0.07935 0-0.14617 0.03132-0.06473 0.02923-0.11276 0.08143-0.04594 0.05011-0.07308 0.12111-0.02506 0.06891-0.02506 0.14825z"/>
    <path d="m51.072 62.665v-2.9943h1.09q0.50114 0 0.7705 0.18375t0.26936 0.51784q0 0.24222-0.16496 0.42388-0.16287 0.18166-0.41762 0.25266v0.0084q0.31948 0.03967 0.50949 0.23595 0.1921 0.19628 0.1921 0.47817 0 0.41135-0.29442 0.65357-0.29442 0.24013-0.80391 0.24013zm0.67445-2.4973v0.70995h0.29651q0.20881 0 0.32783-0.10023 0.12111-0.10232 0.12111-0.2798 0-0.32992-0.49279-0.32992zm0 1.2111v0.7893h0.36542q0.23386 0 0.36541-0.10858 0.13364-0.10858 0.13364-0.29651 0-0.17958-0.13155-0.28189-0.12946-0.10232-0.36333-0.10232z"/>
    <path d="m55.812 62.665h-0.65775v-1.1881q0-0.49696-0.35498-0.49696-0.17122 0-0.28189 0.13155t-0.11067 0.33409v1.2194h-0.65984v-2.1382h0.65984v0.33827h0.0084q0.23595-0.39047 0.68698-0.39047 0.70995 0 0.70995 0.88117z"/>
   </g>
   <g aria-label="$99.6Bn">
    <path d="m62.287 61.59v0.45311h-0.30486v-0.44059q-0.42388-0.0021-0.7893-0.1921v-0.5784q0.12111 0.09814 0.36124 0.18166t0.42806 0.09605v-0.76006q-0.48861-0.18166-0.66819-0.39256-0.17749-0.21298-0.17749-0.51784 0-0.32783 0.23178-0.55752 0.23178-0.23178 0.6139-0.26936v-0.38838h0.30486v0.38003q0.44059 0.02088 0.65775 0.14199v0.56378q-0.29233-0.17749-0.65775-0.21716v0.79138q0.45729 0.16496 0.65566 0.37794 0.19837 0.2109 0.19837 0.51158 0 0.34662-0.22134 0.55961-0.22134 0.2109-0.63269 0.25684zm-0.30486-1.8271v-0.66192q-0.29024 0.0522-0.29024 0.30277 0 0.21507 0.29024 0.35915zm0.30486 0.70577v0.63269q0.2986-0.04594 0.2986-0.2986 0-0.20463-0.2986-0.33409z"/>
    <path d="m65.613 59.965q0 0.39882-0.0877 0.71412-0.0877 0.31321-0.25683 0.53037-0.16705 0.21716-0.40926 0.33409-0.24222 0.11484-0.54917 0.11484-0.3675 0-0.63269-0.11693v-0.5429q0.23595 0.15452 0.56796 0.15452 0.34036 0 0.53246-0.23178t0.19419-0.67028l-0.01253-0.0042q-0.19837 0.29442-0.60346 0.29442-0.18375 0-0.34036-0.06891-0.15452-0.06891-0.26936-0.19002-0.11276-0.1232-0.17749-0.29233-0.06264-0.16914-0.06264-0.37168 0-0.23595 0.07726-0.43014t0.21507-0.33409q0.1399-0.1399 0.33409-0.21507 0.19419-0.07726 0.43014-0.07726 0.24431 0 0.4385 0.09605 0.19419 0.09396 0.32992 0.27354 0.13781 0.17958 0.20881 0.44059 0.07308 0.26101 0.07308 0.59302zm-0.6661-0.3508q0-0.11484-0.02923-0.21507-0.02923-0.10232-0.08143-0.1754t-0.12737-0.11484q-0.07517-0.04385-0.16496-0.04385-0.08561 0-0.15869 0.03758-0.071 0.03759-0.1232 0.1044-0.0522 0.06473-0.08143 0.15661t-0.02923 0.19837q0 0.11693 0.02923 0.20881 0.02923 0.08979 0.08143 0.15243 0.05429 0.06264 0.12946 0.09605 0.07517 0.03132 0.16705 0.03132 0.0877 0 0.15869-0.03341 0.07099-0.0355 0.12111-0.09396 0.0522-0.05847 0.07935-0.13781 0.02923-0.07935 0.02923-0.17122z"/>
    <path d="m68.077 59.965q0 0.39882-0.0877 0.71412-0.0877 0.31321-0.25683 0.53037-0.16705 0.21716-0.40926 0.33409-0.24222 0.11484-0.54917 0.11484-0.3675 0-0.63269-0.11693v-0.5429q0.23595 0.15452 0.56796 0.15452 0.34036 0 0.53246-0.23178t0.19419-0.67028l-0.01253-0.0042q-0.19837 0.29442-0.60346 0.29442-0.18375 0-0.34036-0.06891-0.15452-0.06891-0.26936-0.19002-0.11276-0.1232-0.17749-0.29233-0.06264-0.16914-0.06264-0.37168 0-0.23595 0.07726-0.43014t0.21507-0.33409q0.1399-0.1399 0.33409-0.21507 0.19419-0.07726 0.43014-0.07726 0.24431 0 0.4385 0.09605 0.19419 0.09396 0.32992 0.27354 0.13781 0.17958 0.20881 0.44059 0.07308 0.26101 0.07308 0.59302zm-0.6661-0.3508q0-0.11484-0.02923-0.21507-0.02923-0.10232-0.08144-0.1754-0.0522-0.07308-0.12737-0.11484-0.07517-0.04385-0.16496-0.04385-0.08561 0-0.1587 0.03758-0.07099 0.03759-0.1232 0.1044-0.0522 0.06473-0.08143 0.15661t-0.02923 0.19837q0 0.11693 0.02923 0.20881 0.02923 0.08979 0.08143 0.15243 0.05429 0.06264 0.12946 0.09605 0.07517 0.03132 0.16705 0.03132 0.0877 0 0.1587-0.03341 0.07099-0.0355 0.12111-0.09396 0.0522-0.05847 0.07935-0.13781 0.02923-0.07935 0.02923-0.17122z"/>
    <path d="m68.843 61.659q-0.16287 0-0.27145-0.10023t-0.10858-0.24639q0-0.15034 0.11067-0.24639 0.11276-0.09605 0.2798-0.09605 0.16914 0 0.27563 0.09814 0.10858 0.09605 0.10858 0.2443 0 0.15243-0.11067 0.25057-0.10858 0.09605-0.28398 0.09605z"/>
    <path d="m71.75 60.611q0 0.22134-0.07726 0.41344t-0.21507 0.33409q-0.13781 0.1399-0.32783 0.22134-0.19002 0.07935-0.41553 0.07935-0.25266 0-0.45312-0.09396-0.19837-0.09396-0.33618-0.27145-0.13781-0.17958-0.2109-0.4385-0.07308-0.25892-0.07308-0.58675 0-0.3863 0.09396-0.69951 0.09605-0.3153 0.27145-0.53873 0.17749-0.22342 0.42806-0.34453 0.25057-0.1232 0.56378-0.1232 0.34662 0 0.53872 0.08143v0.55125q-0.2276-0.12946-0.49696-0.12946-0.16705 0-0.30277 0.06473-0.13573 0.06473-0.23387 0.18375-0.09605 0.11902-0.15243 0.28816-0.05429 0.16705-0.05847 0.37377h0.01253q0.21298-0.29442 0.62851-0.29442 0.18584 0 0.33618 0.06682t0.25683 0.19002q0.10649 0.12111 0.16496 0.29233t0.05847 0.38003zm-0.64522 0.04176q0-0.48235-0.39465-0.48235-0.08979 0-0.16287 0.03341t-0.12528 0.09396-0.08143 0.14408q-0.02715 0.08143-0.02715 0.18166 0 0.11067 0.02923 0.20672t0.08143 0.16914q0.05429 0.071 0.12737 0.11276t0.16287 0.04176 0.16078-0.0355q0.07308-0.03759 0.1232-0.10232 0.0522-0.06682 0.07935-0.1587 0.02714-0.09396 0.02714-0.20463z"/>
    <path d="m72.239 61.607v-2.9943h1.09q0.50114 0 0.7705 0.18375t0.26936 0.51784q0 0.24222-0.16496 0.42388-0.16287 0.18166-0.41762 0.25266v0.0084q0.31948 0.03967 0.50949 0.23595 0.1921 0.19628 0.1921 0.47817 0 0.41135-0.29442 0.65357-0.29442 0.24013-0.80391 0.24013zm0.67445-2.4973v0.70995h0.29651q0.20881 0 0.32783-0.10023 0.12111-0.10232 0.12111-0.2798 0-0.32992-0.49279-0.32992zm0 1.2111v0.7893h0.36541q0.23387 0 0.36542-0.10858 0.13364-0.10858 0.13364-0.29651 0-0.17958-0.13155-0.28189-0.12946-0.10232-0.36333-0.10232z"/>
    <path d="m76.979 61.607h-0.65775v-1.1881q0-0.49696-0.35497-0.49696-0.17122 0-0.28189 0.13155t-0.11067 0.33409v1.2194h-0.65983v-2.1382h0.65983v0.33827h0.0084q0.23595-0.39047 0.68698-0.39047 0.70995 0 0.70995 0.88117z"/>
   </g>
   <g aria-label="$106.5Bn">
    <path d="m82.924 61.061v0.45311h-0.30486v-0.44058q-0.42388-0.0021-0.7893-0.1921v-0.5784q0.12111 0.09814 0.36124 0.18166t0.42806 0.09605v-0.76006q-0.48861-0.18166-0.66819-0.39256-0.17749-0.21298-0.17749-0.51784 0-0.32783 0.23178-0.55752 0.23178-0.23178 0.6139-0.26936v-0.38838h0.30486v0.38003q0.44058 0.02088 0.65775 0.14199v0.56378q-0.29233-0.17749-0.65775-0.21716v0.79138q0.45729 0.16496 0.65566 0.37794 0.19837 0.2109 0.19837 0.51158 0 0.34662-0.22134 0.55961-0.22134 0.2109-0.63269 0.25683zm-0.30486-1.8271v-0.66192q-0.29024 0.0522-0.29024 0.30277 0 0.21507 0.29024 0.35915zm0.30486 0.70577v0.63269q0.2986-0.04594 0.2986-0.2986 0-0.20463-0.2986-0.33409z"/>
    <path d="m85.718 58.016v3.0611h-0.65775v-2.3178q-0.05429 0.04803-0.12946 0.09188-0.07308 0.04176-0.15661 0.07726-0.08352 0.03341-0.17331 0.05847-0.08979 0.02297-0.17749 0.03341v-0.55543q0.25683-0.07517 0.48444-0.1921 0.2276-0.11693 0.41135-0.25683z"/>
    <path d="m87.658 61.13q-1.0691 0-1.0691-1.5013 0-0.77886 0.28816-1.186 0.29024-0.40926 0.83941-0.40926 1.044 0 1.044 1.5264 0 0.76006-0.28607 1.1652-0.28398 0.40509-0.81644 0.40509zm0.02923-2.5934q-0.42806 0-0.42806 1.0754 0 1.0127 0.4197 1.0127 0.40926 0 0.40926-1.044t-0.40091-1.044z"/>
    <path d="m91.227 60.081q0 0.22134-0.07726 0.41344t-0.21507 0.33409q-0.13781 0.1399-0.32783 0.22134-0.19002 0.07935-0.41553 0.07935-0.25266 0-0.45311-0.09396-0.19837-0.09396-0.33618-0.27145-0.13781-0.17958-0.2109-0.4385-0.07308-0.25892-0.07308-0.58675 0-0.3863 0.09396-0.69951 0.09605-0.3153 0.27145-0.53873 0.17749-0.22342 0.42806-0.34453 0.25057-0.1232 0.56378-0.1232 0.34662 0 0.53873 0.08144v0.55125q-0.2276-0.12946-0.49696-0.12946-0.16705 0-0.30277 0.06473-0.13573 0.06473-0.23387 0.18375-0.09605 0.11902-0.15243 0.28816-0.05429 0.16705-0.05847 0.37377h0.01253q0.21298-0.29442 0.62851-0.29442 0.18584 0 0.33618 0.06682t0.25683 0.19002q0.10649 0.12111 0.16496 0.29233t0.05847 0.38003zm-0.64522 0.04176q0-0.48235-0.39465-0.48235-0.08979 0-0.16287 0.03341t-0.12528 0.09396-0.08143 0.14408q-0.02714 0.08144-0.02714 0.18166 0 0.11067 0.02923 0.20672t0.08143 0.16914q0.05429 0.071 0.12737 0.11276t0.16287 0.04176 0.16078-0.0355q0.07308-0.03759 0.1232-0.10232 0.0522-0.06682 0.07935-0.15869 0.02715-0.09396 0.02715-0.20463z"/>
    <path d="m91.945 61.13q-0.16287 0-0.27145-0.10023t-0.10858-0.24639q0-0.15034 0.11067-0.24639 0.11276-0.09605 0.2798-0.09605 0.16913 0 0.27563 0.09814 0.10858 0.09605 0.10858 0.2443 0 0.15243-0.11067 0.25057-0.10858 0.09605-0.28398 0.09605z"/>
    <path d="m92.83 61v-0.56378q0.30695 0.18793 0.65357 0.18793 0.26101 0 0.40718-0.1232 0.14825-0.12528 0.14825-0.33827 0-0.44476-0.62851-0.44476-0.23178 0-0.53455 0.0355l0.11276-1.6705h1.5849v0.53873h-1.0816l-0.04176 0.59928q0.16078-0.01253 0.27772-0.01253 0.46147 0 0.72248 0.24222t0.26101 0.65148q0 0.45311-0.31112 0.74127-0.31112 0.28607-0.84358 0.28607-0.43223 0-0.72665-0.12946z"/>
    <path d="m95.34 61.077v-2.9943h1.09q0.50114 0 0.7705 0.18375t0.26936 0.51784q0 0.24222-0.16496 0.42388-0.16287 0.18166-0.41762 0.25266v0.0084q0.31948 0.03967 0.50949 0.23595 0.1921 0.19628 0.1921 0.47817 0 0.41135-0.29442 0.65357-0.29442 0.24013-0.80391 0.24013zm0.67445-2.4973v0.70995h0.29651q0.20881 0 0.32783-0.10023 0.12111-0.10232 0.12111-0.2798 0-0.32992-0.49279-0.32992zm0 1.2111v0.7893h0.36542q0.23386 0 0.36541-0.10858 0.13364-0.10858 0.13364-0.29651 0-0.17958-0.13155-0.28189-0.12946-0.10232-0.36333-0.10232z"/>
    <path d="m100.08 61.077h-0.65775v-1.1881q0-0.49696-0.35497-0.49696-0.17122 0-0.28189 0.13155t-0.11067 0.33409v1.2194h-0.65983v-2.1382h0.65983v0.33827h0.0084q0.23595-0.39047 0.68698-0.39047 0.70995 0 0.70995 0.88117z"/>
   </g>
   <g aria-label="$112.5Bn">
    <path d="m103.56 60.531v0.45311h-0.30486v-0.44059q-0.42388-0.0021-0.78929-0.1921v-0.5784q0.1211 0.09814 0.36123 0.18166t0.42806 0.09605v-0.76006q-0.48861-0.18166-0.66819-0.39256-0.17748-0.21298-0.17748-0.51784 0-0.32783 0.23177-0.55752 0.23178-0.23178 0.6139-0.26936v-0.38838h0.30486v0.38003q0.44059 0.02088 0.65775 0.14199v0.56378q-0.29233-0.17749-0.65775-0.21716v0.79138q0.45729 0.16496 0.65566 0.37794 0.19837 0.2109 0.19837 0.51158 0 0.34662-0.22134 0.55961-0.22134 0.2109-0.63269 0.25683zm-0.30486-1.8271v-0.66192q-0.29024 0.0522-0.29024 0.30277 0 0.21507 0.29024 0.35915zm0.30486 0.70577v0.63269q0.2986-0.04594 0.2986-0.2986 0-0.20463-0.2986-0.33409z"/>
    <path d="m106.36 57.487v3.0611h-0.65775v-2.3178q-0.0543 0.04803-0.12946 0.09188-0.0731 0.04176-0.15661 0.07726-0.0835 0.03341-0.17331 0.05847-0.0898 0.02297-0.17748 0.03341v-0.55543q0.25683-0.07517 0.48443-0.1921t0.41135-0.25683z"/>
    <path d="m108.82 57.487v3.0611h-0.65775v-2.3178q-0.0543 0.04803-0.12946 0.09188-0.0731 0.04176-0.15661 0.07726-0.0835 0.03341-0.17331 0.05847-0.0898 0.02297-0.17749 0.03341v-0.55543q0.25684-0.07517 0.48444-0.1921t0.41135-0.25683z"/>
    <path d="m110.44 60.001h1.2696v0.54708h-1.992v-0.22551q0-0.22969 0.0773-0.41135 0.0773-0.18375 0.19419-0.32783 0.11693-0.14617 0.25475-0.25683 0.1399-0.11276 0.26518-0.20254 0.13155-0.09396 0.22969-0.17958 0.10023-0.08561 0.16705-0.16913 0.0689-0.08561 0.10232-0.17122 0.0334-0.0877 0.0334-0.18584 0-0.1921-0.10858-0.29024t-0.332-0.09814q-0.3863 0-0.73918 0.30695v-0.58049q0.39047-0.25266 0.88117-0.25266 0.2276 0 0.40717 0.06055 0.18167 0.05847 0.30695 0.16914 0.12529 0.11067 0.19002 0.26936 0.0668 0.15661 0.0668 0.3508 0 0.20672-0.0647 0.3675-0.0627 0.16078-0.16914 0.29233-0.1044 0.13155-0.24222 0.24222-0.13781 0.10858-0.28606 0.2109-0.10023 0.071-0.19419 0.14199-0.0919 0.06891-0.16288 0.13781-0.071 0.06682-0.11275 0.13155-0.0418 0.06473-0.0418 0.1232z"/>
    <path d="m112.58 60.6q-0.16287 0-0.27145-0.10023t-0.10858-0.24639q0-0.15034 0.11067-0.24639 0.11276-0.09605 0.2798-0.09605 0.16914 0 0.27563 0.09814 0.10858 0.09605 0.10858 0.24431 0 0.15243-0.11067 0.25057-0.10858 0.09605-0.28398 0.09605z"/>
    <path d="m113.47 60.471v-0.56378q0.30695 0.18793 0.65357 0.18793 0.26101 0 0.40718-0.1232 0.14825-0.12528 0.14825-0.33827 0-0.44476-0.62851-0.44476-0.23178 0-0.53455 0.0355l0.11275-1.6705h1.5849v0.53872h-1.0816l-0.0418 0.59928q0.16078-0.01253 0.27772-0.01253 0.46146 0 0.72247 0.24222t0.26101 0.65148q0 0.45311-0.31112 0.74127-0.31113 0.28607-0.84359 0.28607-0.43223 0-0.72665-0.12946z"/>
    <path d="m115.98 60.548v-2.9943h1.09q0.50114 0 0.7705 0.18375t0.26936 0.51784q0 0.24222-0.16496 0.42388-0.16287 0.18166-0.41761 0.25266v0.0084q0.31947 0.03967 0.50949 0.23595 0.1921 0.19628 0.1921 0.47817 0 0.41135-0.29442 0.65357-0.29442 0.24013-0.80391 0.24013zm0.67445-2.4973v0.70995h0.2965q0.20881 0 0.32783-0.10023 0.12111-0.10232 0.12111-0.2798 0-0.32992-0.49278-0.32992zm0 1.2111v0.7893h0.36541q0.23387 0 0.36542-0.10858 0.13363-0.10858 0.13363-0.29651 0-0.17958-0.13155-0.28189-0.12946-0.10232-0.36332-0.10232z"/>
    <path d="m120.72 60.548h-0.65774v-1.1881q0-0.49696-0.35498-0.49696-0.17122 0-0.28189 0.13155t-0.11067 0.33409v1.2194h-0.65983v-2.1382h0.65983v0.33827h8e-3q0.23595-0.39047 0.68698-0.39047 0.70994 0 0.70994 0.88117z"/>
   </g>
   <g aria-label="2014">
    <path d="m44.095 133.21h1.2696v0.54707h-1.992v-0.22551q0-0.22969 0.07726-0.41135 0.07726-0.18375 0.19419-0.32783 0.11693-0.14617 0.25475-0.25683 0.1399-0.11276 0.26519-0.20255 0.13155-0.094 0.22969-0.17957 0.10023-0.0856 0.16705-0.16914 0.06891-0.0856 0.10232-0.17122 0.03341-0.0877 0.03341-0.18584 0-0.1921-0.10858-0.29024-0.10858-0.0981-0.332-0.0981-0.3863 0-0.73918 0.30694v-0.58048q0.39047-0.25266 0.88117-0.25266 0.2276 0 0.40718 0.0606 0.18166 0.0585 0.30695 0.16914 0.12528 0.11067 0.19002 0.26936 0.06682 0.15661 0.06682 0.3508 0 0.20672-0.06473 0.3675-0.06264 0.16078-0.16914 0.29233-0.1044 0.13155-0.24222 0.24222-0.13781 0.10858-0.28607 0.2109-0.10023 0.071-0.19419 0.14199-0.09188 0.0689-0.16287 0.13781-0.071 0.0668-0.11276 0.13155-0.04176 0.0647-0.04176 0.1232z"/>
    <path d="m46.877 133.81q-1.0691 0-1.0691-1.5013 0-0.77885 0.28816-1.186 0.29024-0.40926 0.83941-0.40926 1.044 0 1.044 1.5264 0 0.76006-0.28607 1.1652-0.28398 0.40509-0.81644 0.40509zm0.02923-2.5934q-0.42806 0-0.42806 1.0754 0 1.0127 0.4197 1.0127 0.40926 0 0.40926-1.044t-0.40091-1.044z"/>
    <path d="m49.865 130.7v3.0611h-0.65775v-2.3178q-0.05429 0.048-0.12946 0.0919-0.07308 0.0418-0.15661 0.0773-0.08352 0.0334-0.17331 0.0585-0.08979 0.023-0.17749 0.0334v-0.55543q0.25684-0.0752 0.48444-0.1921 0.2276-0.11693 0.41135-0.25684z"/>
    <path d="m52.579 130.77v1.8876h0.35915v0.49279h-0.35915v0.61389h-0.60137v-0.61389h-1.3051v-0.51576q0.17331-0.19419 0.35915-0.42388 0.18584-0.23178 0.35915-0.47608 0.17331-0.24431 0.32156-0.4907 0.15034-0.24848 0.25475-0.474zm-1.3155 1.8876h0.71412v-1.0461q-0.07308 0.13573-0.15869 0.27563-0.08561 0.13781-0.17958 0.27354-0.09396 0.13363-0.19002 0.26101-0.09605 0.12528-0.18584 0.23595z"/>
   </g>
   <g aria-label="2015">
    <path d="m65.262 133.21h1.2696v0.54707h-1.992v-0.22551q0-0.22969 0.07726-0.41135 0.07726-0.18375 0.19419-0.32783 0.11693-0.14617 0.25475-0.25683 0.1399-0.11276 0.26519-0.20255 0.13155-0.094 0.22969-0.17957 0.10023-0.0856 0.16705-0.16914 0.06891-0.0856 0.10232-0.17122 0.03341-0.0877 0.03341-0.18584 0-0.1921-0.10858-0.29024-0.10858-0.0981-0.332-0.0981-0.3863 0-0.73918 0.30694v-0.58048q0.39047-0.25266 0.88117-0.25266 0.2276 0 0.40718 0.0606 0.18166 0.0585 0.30695 0.16914 0.12528 0.11067 0.19002 0.26936 0.06682 0.15661 0.06682 0.3508 0 0.20672-0.06473 0.3675-0.06264 0.16078-0.16914 0.29233-0.1044 0.13155-0.24222 0.24222-0.13781 0.10858-0.28607 0.2109-0.10023 0.071-0.19419 0.14199-0.09188 0.0689-0.16287 0.13781-0.07099 0.0668-0.11276 0.13155-0.04176 0.0647-0.04176 0.1232z"/>
    <path d="m68.043 133.81q-1.0691 0-1.0691-1.5013 0-0.77885 0.28816-1.186 0.29024-0.40926 0.83941-0.40926 1.044 0 1.044 1.5264 0 0.76006-0.28607 1.1652-0.28398 0.40509-0.81644 0.40509zm0.02923-2.5934q-0.42806 0-0.42806 1.0754 0 1.0127 0.4197 1.0127 0.40926 0 0.40926-1.044t-0.40091-1.044z"/>
    <path d="m71.031 130.7v3.0611h-0.65775v-2.3178q-0.05429 0.048-0.12946 0.0919-0.07308 0.0418-0.15661 0.0773-0.08352 0.0334-0.17331 0.0585-0.08979 0.023-0.17749 0.0334v-0.55543q0.25684-0.0752 0.48444-0.1921 0.2276-0.11693 0.41135-0.25684z"/>
    <path d="m72.055 133.68v-0.56379q0.30695 0.18793 0.65357 0.18793 0.26101 0 0.40718-0.1232 0.14825-0.12528 0.14825-0.33827 0-0.44476-0.62851-0.44476-0.23178 0-0.53455 0.0355l0.11276-1.6705h1.5849v0.53873h-1.0816l-0.04176 0.59928q0.16078-0.0125 0.27772-0.0125 0.46147 0 0.72248 0.24222t0.26101 0.65148q0 0.45311-0.31112 0.74127-0.31112 0.28607-0.84359 0.28607-0.43223 0-0.72665-0.12946z"/>
   </g>
   <g aria-label="2016">
    <path d="m86.429 133.21h1.2696v0.54707h-1.992v-0.22551q0-0.22969 0.07726-0.41135 0.07726-0.18375 0.19419-0.32783 0.11693-0.14617 0.25475-0.25683 0.1399-0.11276 0.26519-0.20255 0.13155-0.094 0.22969-0.17957 0.10023-0.0856 0.16705-0.16914 0.06891-0.0856 0.10232-0.17122 0.03341-0.0877 0.03341-0.18584 0-0.1921-0.10858-0.29024-0.10858-0.0981-0.332-0.0981-0.3863 0-0.73918 0.30694v-0.58048q0.39047-0.25266 0.88117-0.25266 0.2276 0 0.40718 0.0606 0.18166 0.0585 0.30695 0.16914 0.12528 0.11067 0.19002 0.26936 0.06682 0.15661 0.06682 0.3508 0 0.20672-0.06473 0.3675-0.06264 0.16078-0.16914 0.29233-0.1044 0.13155-0.24222 0.24222-0.13781 0.10858-0.28607 0.2109-0.10023 0.071-0.19419 0.14199-0.09188 0.0689-0.16287 0.13781-0.07099 0.0668-0.11276 0.13155-0.04176 0.0647-0.04176 0.1232z"/>
    <path d="m89.21 133.81q-1.0691 0-1.0691-1.5013 0-0.77885 0.28816-1.186 0.29024-0.40926 0.83941-0.40926 1.044 0 1.044 1.5264 0 0.76006-0.28607 1.1652-0.28398 0.40509-0.81644 0.40509zm0.02923-2.5934q-0.42806 0-0.42806 1.0754 0 1.0127 0.4197 1.0127 0.40926 0 0.40926-1.044t-0.40091-1.044z"/>
    <path d="m92.198 130.7v3.0611h-0.65775v-2.3178q-0.05429 0.048-0.12946 0.0919-0.07308 0.0418-0.15661 0.0773-0.08352 0.0334-0.17331 0.0585-0.08979 0.023-0.17749 0.0334v-0.55543q0.25683-0.0752 0.48444-0.1921 0.2276-0.11693 0.41135-0.25684z"/>
    <path d="m95.243 132.76q0 0.22134-0.07726 0.41344t-0.21507 0.33409q-0.13781 0.1399-0.32783 0.22134-0.19002 0.0794-0.41553 0.0794-0.25266 0-0.45311-0.094-0.19837-0.094-0.33618-0.27145-0.13781-0.17957-0.2109-0.4385-0.07308-0.25892-0.07308-0.58675 0-0.38629 0.09396-0.6995 0.09605-0.31531 0.27145-0.53873 0.17749-0.22343 0.42806-0.34453 0.25057-0.1232 0.56378-0.1232 0.34662 0 0.53873 0.0814v0.55126q-0.2276-0.12946-0.49696-0.12946-0.16705 0-0.30277 0.0647-0.13573 0.0647-0.23387 0.18375-0.09605 0.11902-0.15243 0.28815-0.05429 0.16705-0.05847 0.37377h0.01253q0.21298-0.29442 0.62851-0.29442 0.18584 0 0.33618 0.0668t0.25683 0.19002q0.10649 0.1211 0.16496 0.29233 0.05847 0.17122 0.05847 0.38003zm-0.64522 0.0418q0-0.48235-0.39465-0.48235-0.08979 0-0.16287 0.0334t-0.12528 0.094q-0.0522 0.0605-0.08143 0.14407-0.02715 0.0814-0.02715 0.18167 0 0.11067 0.02923 0.20672 0.02923 0.096 0.08143 0.16913 0.05429 0.071 0.12737 0.11276 0.07308 0.0418 0.16287 0.0418t0.16078-0.0355q0.07308-0.0376 0.1232-0.10231 0.0522-0.0668 0.07935-0.1587 0.02715-0.094 0.02715-0.20463z"/>
   </g>
   <g aria-label="2017">
    <path d="m107.6 133.21h1.2696v0.54707h-1.992v-0.22551q0-0.22969 0.0773-0.41135 0.0773-0.18375 0.1942-0.32783 0.11693-0.14617 0.25474-0.25683 0.1399-0.11276 0.26519-0.20255 0.13155-0.094 0.22969-0.17957 0.10023-0.0856 0.16704-0.16914 0.0689-0.0856 0.10232-0.17122 0.0334-0.0877 0.0334-0.18584 0-0.1921-0.10858-0.29024-0.10858-0.0981-0.33201-0.0981-0.38629 0-0.73918 0.30694v-0.58048q0.39047-0.25266 0.88117-0.25266 0.2276 0 0.40718 0.0606 0.18166 0.0585 0.30695 0.16914 0.12528 0.11067 0.19001 0.26936 0.0668 0.15661 0.0668 0.3508 0 0.20672-0.0647 0.3675-0.0626 0.16078-0.16913 0.29233-0.10441 0.13155-0.24222 0.24222-0.13781 0.10858-0.28607 0.2109-0.10023 0.071-0.19419 0.14199-0.0919 0.0689-0.16287 0.13781-0.071 0.0668-0.11276 0.13155-0.0418 0.0647-0.0418 0.1232z"/>
    <path d="m110.38 133.81q-1.0691 0-1.0691-1.5013 0-0.77885 0.28816-1.186 0.29024-0.40926 0.8394-0.40926 1.044 0 1.044 1.5264 0 0.76006-0.28607 1.1652-0.28398 0.40509-0.81644 0.40509zm0.0292-2.5934q-0.42806 0-0.42806 1.0754 0 1.0127 0.41971 1.0127 0.40926 0 0.40926-1.044t-0.40091-1.044z"/>
    <path d="m113.36 130.7v3.0611h-0.65775v-2.3178q-0.0543 0.048-0.12946 0.0919-0.0731 0.0418-0.15661 0.0773-0.0835 0.0334-0.17331 0.0585-0.0898 0.023-0.17749 0.0334v-0.55543q0.25684-0.0752 0.48444-0.1921 0.2276-0.11693 0.41135-0.25684z"/>
    <path d="m116.38 131.15q-0.20045 0.36124-0.35915 0.67863-0.15869 0.3153-0.2798 0.62434-0.12111 0.30695-0.20672 0.62642-0.0856 0.31739-0.1399 0.68489h-0.68907q0.0585-0.34871 0.15452-0.67236 0.096-0.32365 0.22133-0.62642 0.12738-0.30486 0.27981-0.59302 0.15452-0.28815 0.32574-0.56378h-1.3907v-0.53873h2.0839z"/>
   </g>
  </g>
  <rect x="124.98" y="105.56" width="15.61" height="22.96" fill="#ff4646"/>
  <g stroke-width=".69782px" aria-label="39%">
   <path d="m130.12 118.59v-0.43651q0.22857 0.16667 0.53333 0.16667 0.19207 0 0.29841-0.0825 0.10794-0.0825 0.10794-0.23016 0-0.15238-0.13333-0.23492-0.13175-0.0825-0.36349-0.0825h-0.21111v-0.38412h0.19524q0.44444 0 0.44444-0.29524 0-0.27777-0.34127-0.27777-0.22857 0-0.44444 0.14761v-0.40952q0.23968-0.12063 0.55872-0.12063 0.34921 0 0.54286 0.15714 0.19524 0.15714 0.19524 0.40793 0 0.44603-0.45238 0.55873v8e-3q0.24127 0.0302 0.38095 0.17619 0.13968 0.14444 0.13968 0.35555 0 0.31905-0.23333 0.50476-0.23334 0.18571-0.64444 0.18571-0.35238 0-0.57302-0.11428z"/>
   <path d="m133.53 117.42q0 0.30317-0.0667 0.54285-0.0667 0.2381-0.19524 0.40318-0.12698 0.16507-0.31111 0.25396-0.18413 0.0873-0.41746 0.0873-0.27936 0-0.48095-0.0889v-0.41269q0.17937 0.11746 0.43175 0.11746 0.25872 0 0.40476-0.17619 0.14603-0.17619 0.14761-0.50952l-0.01-3e-3q-0.15079 0.22381-0.45873 0.22381-0.13968 0-0.25873-0.0524-0.11746-0.0524-0.20476-0.14444-0.0857-0.0937-0.13492-0.22222-0.0476-0.12857-0.0476-0.28254 0-0.17937 0.0587-0.32698 0.0587-0.14762 0.1635-0.25397 0.10634-0.10635 0.25396-0.16349 0.14762-0.0587 0.32698-0.0587 0.18572 0 0.33334 0.073 0.14761 0.0714 0.25079 0.20794 0.10476 0.13651 0.15873 0.33492 0.0555 0.19841 0.0555 0.45079zm-0.50634-0.26667q0-0.0873-0.0222-0.16349-0.0222-0.0778-0.0619-0.13333-0.0397-0.0556-0.0968-0.0873-0.0572-0.0333-0.1254-0.0333-0.0651 0-0.12064 0.0286-0.054 0.0286-0.0936 0.0794-0.0397 0.0492-0.0619 0.11905-0.0222 0.0698-0.0222 0.15079 0 0.0889 0.0222 0.15873 0.0222 0.0683 0.0619 0.11587 0.0413 0.0476 0.0984 0.073 0.0571 0.0238 0.12698 0.0238 0.0667 0 0.12063-0.0254 0.054-0.027 0.0921-0.0714 0.0397-0.0444 0.0603-0.10476 0.0222-0.0603 0.0222-0.13016z"/>
   <path d="m134.36 117.54q-0.24286 0-0.39206-0.15396-0.14762-0.15397-0.14762-0.41429 0-0.28412 0.15714-0.45079 0.15873-0.16666 0.42222-0.16666 0.25238 0 0.39365 0.15079 0.14285 0.15079 0.14285 0.42381 0 0.28095-0.15714 0.44603-0.15714 0.16507-0.41904 0.16507zm0.0302-0.90634q-0.23175 0-0.23175 0.32222 0 0.30476 0.22063 0.30476 0.2254 0 0.2254-0.31746 0-0.30952-0.21428-0.30952zm1.6317-0.24762-1.4825 2.2762h-0.3873l1.4794-2.2762zm-0.24444 2.3079q-0.24286 0-0.39206-0.15397-0.14762-0.15397-0.14762-0.41428 0-0.28413 0.15714-0.4508 0.15873-0.16666 0.42222-0.16666 0.25397 0 0.39524 0.1492 0.14127 0.14921 0.14127 0.42222 0 0.28096-0.15715 0.44762-0.15714 0.16667-0.41904 0.16667zm0.0254-0.90635q-0.23016 0-0.23016 0.32222 0 0.30476 0.22381 0.30476 0.22539 0 0.22539-0.31746 0-0.14761-0.0603-0.22857-0.0603-0.081-0.15873-0.081z"/>
  </g>
  <rect x="124.98" y="97.829" width="15.61" height="6.35" fill="#aea0ff"/>
  <rect x="124.98" y="79.628" width="15.61" height="16.878" fill="#fffa74"/>
  <rect x="124.98" y="60.997" width="15.61" height="17.253" fill="#97ff6a"/>
  <g stroke-width=".69782px">
   <g aria-label="11%">
    <path d="m131.25 100.2v2.327h-0.5v-1.7619q-0.0413 0.0365-0.0984 0.0698-0.0556 0.0317-0.11905 0.0587-0.0635 0.0254-0.13174 0.0444-0.0683 0.0175-0.13492 0.0254v-0.42222q0.19523-0.0571 0.36825-0.14603 0.17301-0.0889 0.31269-0.19524z"/>
    <path d="m133.13 100.2v2.327h-0.49999v-1.7619q-0.0413 0.0365-0.0984 0.0698-0.0556 0.0317-0.11904 0.0587-0.0635 0.0254-0.13175 0.0444-0.0683 0.0175-0.13492 0.0254v-0.42222q0.19524-0.0571 0.36825-0.14603 0.17302-0.0889 0.3127-0.19524z"/>
    <path d="m134.36 101.4q-0.24286 0-0.39206-0.15397-0.14762-0.15397-0.14762-0.41428 0-0.28413 0.15714-0.45079 0.15873-0.16667 0.42222-0.16667 0.25238 0 0.39365 0.15079 0.14285 0.1508 0.14285 0.42381 0 0.28095-0.15714 0.44603t-0.41904 0.16508zm0.0302-0.90635q-0.23175 0-0.23175 0.32222 0 0.30476 0.22063 0.30476 0.2254 0 0.2254-0.31745 0-0.30953-0.21428-0.30953zm1.6317-0.24761-1.4825 2.2762h-0.3873l1.4794-2.2762zm-0.24444 2.3079q-0.24286 0-0.39206-0.15397-0.14762-0.15397-0.14762-0.41428 0-0.28413 0.15714-0.45079 0.15873-0.16667 0.42222-0.16667 0.25397 0 0.39524 0.14921 0.14127 0.1492 0.14127 0.42222 0 0.28095-0.15715 0.44761-0.15714 0.16667-0.41904 0.16667zm0.0254-0.90634q-0.23016 0-0.23016 0.32222 0 0.30476 0.22381 0.30476 0.22539 0 0.22539-0.31746 0-0.14762-0.0603-0.22857-0.0603-0.081-0.15873-0.081z"/>
   </g>
   <g aria-label="26%">
    <path d="m130.61 88.88h0.96507v0.41587h-1.5143v-0.17143q0-0.1746 0.0587-0.3127 0.0587-0.13968 0.14761-0.2492 0.0889-0.11111 0.19365-0.19524 0.10635-0.08571 0.20159-0.15397 0.1-0.07143 0.1746-0.13651 0.0762-0.06508 0.12699-0.12857 0.0524-0.06508 0.0778-0.13016 0.0254-0.06667 0.0254-0.14127 0-0.14603-0.0825-0.22063t-0.25238-0.0746q-0.29365 0-0.5619 0.23333v-0.44127q0.29682-0.19206 0.66984-0.19206 0.17301 0 0.30952 0.04603 0.13809 0.04444 0.23333 0.12857 0.0952 0.08413 0.14444 0.20476 0.0508 0.11905 0.0508 0.26667 0 0.15714-0.0492 0.27936-0.0476 0.12222-0.12857 0.22222-0.0794 0.1-0.18413 0.18413-0.10476 0.08254-0.21745 0.16032-0.0762 0.05397-0.14762 0.10794-0.0698 0.05238-0.12381 0.10476-0.054 0.05079-0.0857 0.1t-0.0317 0.09365z"/>
    <path d="m133.57 88.538q0 0.16825-0.0587 0.31428t-0.16349 0.25397q-0.10476 0.10635-0.24921 0.16825-0.14444 0.06032-0.31587 0.06032-0.19206 0-0.34444-0.07143-0.15079-0.07143-0.25555-0.20635-0.10476-0.13651-0.16032-0.33333-0.0556-0.19682-0.0556-0.44603 0-0.29365 0.0714-0.53174 0.073-0.23968 0.20635-0.40952 0.13492-0.16984 0.3254-0.2619 0.19047-0.09365 0.42857-0.09365 0.26349 0 0.40952 0.06191v0.41904q-0.17302-0.09841-0.37778-0.09841-0.12698 0-0.23016 0.04921-0.10317 0.04921-0.17777 0.13968-0.073 0.09048-0.11588 0.21905-0.0413 0.12698-0.0444 0.28413h0.01q0.16191-0.22381 0.47778-0.22381 0.14127 0 0.25555 0.05079 0.11429 0.05079 0.19524 0.14444 0.081 0.09206 0.1254 0.22222t0.0444 0.28889zm-0.49047 0.03175q0-0.36666-0.3-0.36666-0.0683 0-0.12381 0.0254-0.0556 0.0254-0.0952 0.07143-0.0397 0.04603-0.0619 0.10952-0.0206 0.0619-0.0206 0.13809 0 0.08413 0.0222 0.15714 0.0222 0.07302 0.0619 0.12857 0.0413 0.05397 0.0968 0.08571 0.0556 0.03175 0.12381 0.03175 0.0683 0 0.12223-0.02698 0.0556-0.02857 0.0936-0.07778 0.0397-0.05079 0.0603-0.12063 0.0206-0.07143 0.0206-0.15555z"/>
    <path d="m134.36 88.173q-0.24286 0-0.39206-0.15397-0.14762-0.15397-0.14762-0.41428 0-0.28413 0.15714-0.45079 0.15873-0.16666 0.42222-0.16666 0.25238 0 0.39365 0.15079 0.14285 0.15079 0.14285 0.42381 0 0.28095-0.15714 0.44603t-0.41904 0.16508zm0.0302-0.90634q-0.23175 0-0.23175 0.32222 0 0.30476 0.22063 0.30476 0.2254 0 0.2254-0.31746 0-0.30952-0.21428-0.30952zm1.6317-0.24762-1.4825 2.2762h-0.3873l1.4794-2.2762zm-0.24444 2.3079q-0.24286 0-0.39206-0.15397-0.14762-0.15397-0.14762-0.41428 0-0.28412 0.15714-0.45079 0.15873-0.16666 0.42222-0.16666 0.25397 0 0.39524 0.1492 0.14127 0.14921 0.14127 0.42222 0 0.28095-0.15715 0.44762-0.15714 0.16667-0.41904 0.16667zm0.0254-0.90634q-0.23016 0-0.23016 0.32222 0 0.30476 0.22381 0.30476 0.22539 0 0.22539-0.31746 0-0.14762-0.0603-0.22857t-0.15873-0.08095z"/>
   </g>
   <g aria-label="24%">
    <path d="m130.61 70.359h0.96507v0.41587h-1.5143v-0.17143q0-0.1746 0.0587-0.3127 0.0587-0.13968 0.14761-0.2492 0.0889-0.11111 0.19365-0.19524 0.10635-0.08571 0.20159-0.15397 0.1-0.07143 0.1746-0.13651 0.0762-0.06508 0.12699-0.12857 0.0524-0.06508 0.0778-0.13016 0.0254-0.06667 0.0254-0.14127 0-0.14603-0.0825-0.22063t-0.25238-0.0746q-0.29365 0-0.5619 0.23333v-0.44127q0.29682-0.19206 0.66984-0.19206 0.17301 0 0.30952 0.04603 0.13809 0.04444 0.23333 0.12857 0.0952 0.08413 0.14444 0.20476 0.0508 0.11905 0.0508 0.26666 0 0.15714-0.0492 0.27936-0.0476 0.12222-0.12857 0.22222-0.0794 0.1-0.18413 0.18413-0.10476 0.08254-0.21745 0.16032-0.0762 0.05397-0.14762 0.10794-0.0698 0.05238-0.12381 0.10476-0.054 0.05079-0.0857 0.1t-0.0317 0.09365z"/>
    <path d="m133.32 68.498v1.4349h0.27301v0.3746h-0.27301v0.46666h-0.45714v-0.46666h-0.99206v-0.39206q0.13175-0.14762 0.27301-0.32222 0.14127-0.17619 0.27302-0.3619 0.13174-0.18571 0.24444-0.37301 0.11429-0.18889 0.19365-0.36032zm-1 1.4349h0.54286v-0.79523q-0.0556 0.10317-0.12064 0.20952-0.0651 0.10476-0.1365 0.20794-0.0714 0.10159-0.14445 0.19841-0.073 0.09524-0.14127 0.17936z"/>
    <path d="m134.36 69.652q-0.24286 0-0.39206-0.15397-0.14762-0.15397-0.14762-0.41428 0-0.28413 0.15714-0.45079 0.15873-0.16667 0.42222-0.16667 0.25238 0 0.39365 0.15079 0.14285 0.15079 0.14285 0.42381 0 0.28095-0.15714 0.44603t-0.41904 0.16508zm0.0302-0.90634q-0.23175 0-0.23175 0.32222 0 0.30476 0.22063 0.30476 0.2254 0 0.2254-0.31746 0-0.30952-0.21428-0.30952zm1.6317-0.24762-1.4825 2.2762h-0.3873l1.4794-2.2762zm-0.24444 2.3079q-0.24286 0-0.39206-0.15397-0.14762-0.15397-0.14762-0.41428 0-0.28413 0.15714-0.45079 0.15873-0.16666 0.42222-0.16666 0.25397 0 0.39524 0.1492 0.14127 0.14921 0.14127 0.42222 0 0.28095-0.15715 0.44762-0.15714 0.16666-0.41904 0.16666zm0.0254-0.90634q-0.23016 0-0.23016 0.32222 0 0.30476 0.22381 0.30476 0.22539 0 0.22539-0.31746 0-0.14762-0.0603-0.22857t-0.15873-0.08095z"/>
   </g>
  </g>
  <g fill="#e9e56f" stroke-width=".91799px" aria-label="$121.7Bn">
   <path d="m124.73 59.738v0.45311h-0.30486v-0.44058q-0.42388-0.0021-0.78929-0.1921v-0.5784q0.1211 0.09814 0.36123 0.18166t0.42806 0.09605v-0.76006q-0.48861-0.18166-0.66819-0.39256-0.17748-0.21298-0.17748-0.51784 0-0.32783 0.23177-0.55752 0.23178-0.23178 0.6139-0.26936v-0.38838h0.30486v0.38003q0.44059 0.02088 0.65775 0.14199v0.56378q-0.29233-0.17749-0.65775-0.21716v0.79138q0.45729 0.16496 0.65566 0.37794 0.19837 0.2109 0.19837 0.51158 0 0.34662-0.22134 0.55961-0.22134 0.2109-0.63269 0.25683zm-0.30486-1.8271v-0.66192q-0.29024 0.0522-0.29024 0.30277 0 0.21507 0.29024 0.35915zm0.30486 0.70577v0.63269q0.2986-0.04594 0.2986-0.2986 0-0.20463-0.2986-0.33409z"/>
   <path d="m127.52 56.693v3.0611h-0.65775v-2.3178q-0.0543 0.04803-0.12946 0.09188-0.0731 0.04176-0.15661 0.07726-0.0835 0.03341-0.17331 0.05847-0.0898 0.02297-0.17749 0.03341v-0.55543q0.25684-0.07517 0.48444-0.1921t0.41135-0.25683z"/>
   <path d="m129.14 59.207h1.2696v0.54708h-1.992v-0.22551q0-0.22969 0.0773-0.41135 0.0773-0.18375 0.19419-0.32783 0.11693-0.14616 0.25475-0.25683 0.1399-0.11276 0.26518-0.20254 0.13155-0.09396 0.22969-0.17958 0.10023-0.08561 0.16705-0.16914 0.0689-0.08561 0.10232-0.17122 0.0334-0.0877 0.0334-0.18584 0-0.1921-0.10858-0.29024-0.10859-0.09814-0.33201-0.09814-0.3863 0-0.73918 0.30695v-0.58049q0.39047-0.25266 0.88117-0.25266 0.2276 0 0.40718 0.06056 0.18166 0.05847 0.30694 0.16913 0.12529 0.11067 0.19002 0.26936 0.0668 0.15661 0.0668 0.3508 0 0.20672-0.0647 0.3675-0.0626 0.16078-0.16914 0.29233-0.1044 0.13155-0.24221 0.24222-0.13782 0.10858-0.28607 0.2109-0.10023 0.071-0.19419 0.14199-0.0919 0.06891-0.16287 0.13781-0.071 0.06682-0.11276 0.13155-0.0418 0.06473-0.0418 0.1232z"/>
   <path d="m132.45 56.693v3.0611h-0.65774v-2.3178q-0.0543 0.04803-0.12946 0.09188-0.0731 0.04176-0.15661 0.07726-0.0835 0.03341-0.17331 0.05847-0.0898 0.02297-0.17749 0.03341v-0.55543q0.25684-0.07517 0.48444-0.1921t0.41135-0.25683z"/>
   <path d="m133.75 59.807q-0.16287 0-0.27145-0.10023t-0.10858-0.24639q0-0.15034 0.11067-0.24639 0.11276-0.09605 0.2798-0.09605 0.16914 0 0.27563 0.09814 0.10858 0.09605 0.10858 0.24431 0 0.15243-0.11067 0.25057-0.10858 0.09605-0.28398 0.09605z"/>
   <path d="m136.62 57.14q-0.20045 0.36124-0.35915 0.67863-0.15869 0.3153-0.2798 0.62434-0.12111 0.30695-0.20672 0.62642-0.0856 0.31739-0.1399 0.68489h-0.68907q0.0585-0.34871 0.15452-0.67236 0.096-0.32365 0.22134-0.62642 0.12737-0.30486 0.2798-0.59302 0.15452-0.28816 0.32574-0.56378h-1.3907v-0.53873h2.0839z"/>
   <path d="m137.14 59.754v-2.9943h1.09q0.50114 0 0.7705 0.18375t0.26936 0.51784q0 0.24222-0.16496 0.42388-0.16287 0.18166-0.41761 0.25266v0.0084q0.31947 0.03967 0.50949 0.23595 0.1921 0.19628 0.1921 0.47817 0 0.41135-0.29442 0.65357-0.29442 0.24013-0.80391 0.24013zm0.67445-2.4973v0.70995h0.2965q0.20881 0 0.32783-0.10023 0.12111-0.10232 0.12111-0.2798 0-0.32992-0.49279-0.32992zm0 1.2111v0.7893h0.36541q0.23387 0 0.36542-0.10858 0.13363-0.10858 0.13363-0.29651 0-0.17958-0.13155-0.28189-0.12946-0.10232-0.36332-0.10232z"/>
   <path d="m141.88 59.754h-0.65774v-1.1881q0-0.49696-0.35498-0.49696-0.17122 0-0.28189 0.13155t-0.11067 0.33409v1.2194h-0.65983v-2.1382h0.65983v0.33827h8e-3q0.23595-0.39047 0.68698-0.39047 0.70994 0 0.70994 0.88117z"/>
  </g>
  <g fill="#e9e56f" stroke-width=".91799px" aria-label="2018">
   <path d="m128.76 133.21h1.2696v0.54707h-1.992v-0.22551q0-0.22969 0.0773-0.41135 0.0773-0.18375 0.19419-0.32783 0.11693-0.14617 0.25475-0.25683 0.1399-0.11276 0.26518-0.20255 0.13155-0.094 0.22969-0.17957 0.10023-0.0856 0.16705-0.16914 0.0689-0.0856 0.10231-0.17122 0.0334-0.0877 0.0334-0.18584 0-0.1921-0.10858-0.29024-0.10858-0.0981-0.332-0.0981-0.3863 0-0.73918 0.30694v-0.58048q0.39047-0.25266 0.88117-0.25266 0.2276 0 0.40717 0.0606 0.18167 0.0585 0.30695 0.16914 0.12529 0.11067 0.19002 0.26936 0.0668 0.15661 0.0668 0.3508 0 0.20672-0.0647 0.3675-0.0627 0.16078-0.16914 0.29233-0.1044 0.13155-0.24222 0.24222-0.13781 0.10858-0.28606 0.2109-0.10023 0.071-0.1942 0.14199-0.0919 0.0689-0.16287 0.13781-0.071 0.0668-0.11275 0.13155-0.0418 0.0647-0.0418 0.1232z"/>
   <path d="m131.54 133.81q-1.0691 0-1.0691-1.5013 0-0.77885 0.28816-1.186 0.29024-0.40926 0.83941-0.40926 1.044 0 1.044 1.5264 0 0.76006-0.28607 1.1652-0.28398 0.40509-0.81644 0.40509zm0.0292-2.5934q-0.42806 0-0.42806 1.0754 0 1.0127 0.4197 1.0127 0.40927 0 0.40927-1.044t-0.40091-1.044z"/>
   <path d="m134.53 130.7v3.0611h-0.65775v-2.3178q-0.0543 0.048-0.12946 0.0919-0.0731 0.0418-0.1566 0.0773-0.0835 0.0334-0.17331 0.0585-0.0898 0.023-0.17749 0.0334v-0.55543q0.25683-0.0752 0.48443-0.1921 0.2276-0.11693 0.41136-0.25684z"/>
   <path d="m135.43 132.95q0-0.12528 0.0355-0.24013 0.0376-0.11693 0.11067-0.21507 0.0731-0.10023 0.18166-0.17749 0.11067-0.0793 0.25892-0.12946-0.2276-0.11275-0.35289-0.28815-0.12528-0.17749-0.12528-0.39256 0-0.17122 0.071-0.31739 0.0731-0.14617 0.20046-0.25266 0.12737-0.10649 0.30277-0.16496 0.17749-0.0606 0.3863-0.0606 0.21298 0 0.39047 0.0606 0.17749 0.0585 0.30486 0.16496 0.12946 0.10441 0.20046 0.24848 0.071 0.14408 0.071 0.31322 0 0.21298-0.13364 0.38838-0.13363 0.17331-0.36959 0.28607 0.14617 0.0501 0.25684 0.12946 0.11067 0.0773 0.18584 0.17749 0.0752 0.10022 0.11275 0.21924 0.0376 0.11694 0.0376 0.24431 0 0.1921-0.0773 0.3508-0.0773 0.1566-0.21925 0.27145-0.1399 0.11276-0.33618 0.1754-0.19419 0.0626-0.43015 0.0626-0.23177 0-0.42805-0.0606-0.19419-0.0626-0.33618-0.1754-0.13991-0.11276-0.21925-0.26937-0.0793-0.15869-0.0793-0.34871zm0.62434-0.0564q0 0.10231 0.0313 0.18375 0.0313 0.0814 0.0898 0.13781 0.0585 0.0564 0.13781 0.0877 0.0814 0.0292 0.18166 0.0292 0.096 0 0.1754-0.0313 0.0814-0.0313 0.1399-0.0877t0.0919-0.13781q0.0334-0.0814 0.0334-0.18166 0-0.0898-0.0313-0.17123-0.0313-0.0814-0.0898-0.1399-0.0585-0.0606-0.1399-0.096-0.0794-0.0355-0.17958-0.0355-0.094 0-0.1754 0.0334-0.0814 0.0313-0.1399 0.0919-0.0585 0.0585-0.0919 0.1399t-0.0334 0.17749zm0.0919-1.3259q0 0.0794 0.0272 0.15035 0.0292 0.0689 0.0773 0.1211 0.048 0.0501 0.11275 0.0794 0.0668 0.0292 0.1399 0.0292 0.0752 0 0.13991-0.0292 0.0647-0.0292 0.11275-0.0814 0.0501-0.0522 0.0773-0.12111 0.0292-0.0689 0.0292-0.14826 0-0.0814-0.0271-0.15034-0.0271-0.071-0.0773-0.12111-0.048-0.0522-0.11484-0.0814-0.0647-0.0292-0.13991-0.0292-0.0793 0-0.14616 0.0313-0.0647 0.0292-0.11276 0.0814-0.0459 0.0501-0.0731 0.12111-0.0251 0.0689-0.0251 0.14825z"/>
  </g>
 </g>
</svg>
