<svg width="135.96mm" height="84.234mm" version="1.1" viewBox="0 0 135.96 84.234" xmlns="http://www.w3.org/2000/svg">
 <g transform="translate(55.131 -76.478)">
  <g stroke-linecap="round" stroke-width=".26458">
   <path d="m64.429 147.48v-38.795" fill="none" stroke="#47d58a"/>
   <path d="m47.362 100.12h-65.782" fill="none" stroke="#47d58a"/>
   <path d="m-50.102 94.963-2.8112 2.3812v7.9375l2.8112 2.3812h27.451l2.8112-2.3812v-7.9375l-2.8112-2.3812z" fill="#1d232d" stroke="#009244"/>
   <g fill="#e8eaec" aria-label="Idle">
    <path d="m-39.085 102.64h0.31115v-2.4299h-0.31115z"/>
    <path d="m-38.278 101.74c0 0.60007 0.29263 0.94085 0.74454 0.94085 0.21114 0 0.40375-0.11853 0.54451-0.25558h0.01111l0.02593 0.21113h0.25188v-2.6374h-0.30745v0.69268l0.01482 0.30744c-0.15928-0.12964-0.29633-0.20743-0.50377-0.20743-0.41116 0-0.78158 0.36301-0.78158 0.94827zm0.31485-4e-3c0-0.41116 0.22966-0.68897 0.51858-0.68897 0.14817 0 0.28522 0.0519 0.43709 0.18891v0.94086c-0.14817 0.16668-0.29263 0.24818-0.45932 0.24818-0.31485 0-0.49636-0.2593-0.49636-0.68898z"/>
    <path d="m-36.093 102.27c0 0.26299 0.0926 0.40745 0.32226 0.40745 0.08149 0 0.13335-0.0111 0.1741-0.0296l-0.04074-0.22966c-0.03334 7e-3 -0.04816 7e-3 -0.06668 7e-3 -0.04445 0-0.0852-0.037-0.0852-0.13335v-2.2966h-0.30374z"/>
    <path d="m-35.279 101.74c0 0.58896 0.38153 0.94085 0.86307 0.94085 0.24448 0 0.43709-0.0852 0.59267-0.1852l-0.10742-0.20003c-0.13335 0.0852-0.27781 0.14076-0.4482 0.14076-0.34449 0-0.57785-0.24448-0.60008-0.63341h1.215c0.0074-0.0444 0.01111-0.10372 0.01111-0.16669 0-0.51488-0.25929-0.84455-0.71861-0.84455-0.41116 0-0.80751 0.3593-0.80751 0.94827zm0.29633-0.13706c0.03704-0.36301 0.2667-0.57044 0.51858-0.57044 0.28152 0 0.4445 0.20373 0.4445 0.57044z"/>
   </g>
   <path d="m-36.295 77.849v15.511" fill="none" stroke="#47d58a"/>
  </g>
  <g>
   <g stroke-linecap="round" stroke-width=".26458">
    <g fill="#e8eaec" aria-label="Init">
     <path d="m-33.282 88.084h0.31115v-2.4299h-0.31115z"/>
     <path d="m-32.346 88.084h0.30374v-1.3039c0.1815-0.1815 0.30745-0.27781 0.49265-0.27781 0.23707 0 0.34078 0.14446 0.34078 0.48154v1.1001h0.30374v-1.1409c0-0.45932-0.17039-0.70379-0.54822-0.70379-0.24818 0-0.43339 0.13335-0.60378 0.30374h-0.01111l-0.02593-0.25929h-0.25188z"/>
     <path d="m-30.165 85.914c0.11853 0 0.21114-0.08149 0.21114-0.19632 0-0.11853-0.0926-0.19632-0.21114-0.19632-0.11853 0-0.21114 0.07779-0.21114 0.19632 0 0.11483 0.0926 0.19632 0.21114 0.19632zm-0.15558 2.1706h0.30374v-1.8002h-0.30374z"/>
     <path d="m-29.357 87.529c0 0.3556 0.12965 0.60008 0.51488 0.60008 0.11112 0 0.23336-0.03334 0.33338-0.06668l-0.05927-0.22966c-0.05927 0.02222-0.14076 0.04815-0.20373 0.04815-0.20743 0-0.27781-0.12594-0.27781-0.34819v-1.0001h0.48525v-0.24818h-0.48525v-0.50377h-0.25559l-0.03704 0.50377-0.28152 0.01852v0.22966h0.2667z"/>
    </g>
    <path d="m50.439 94.963-2.8112 2.3812v7.9375l2.8112 2.3812h27.451l2.8112-2.3812v-7.9375l-2.8112-2.3812z" fill="#1d232d" stroke="#009244"/>
    <g fill="#e8eaec" aria-label="Loading">
     <path d="m58.129 102.64h1.3705v-0.26299h-1.0594v-2.1669h-0.31115z"/>
     <path d="m59.714 101.74c0 0.59637 0.39264 0.94085 0.83344 0.94085s0.83344-0.34448 0.83344-0.94085c0-0.60378-0.39264-0.94827-0.83344-0.94827s-0.83344 0.34449-0.83344 0.94827zm0.31485 0c0-0.41487 0.21114-0.69639 0.51858-0.69639 0.31115 0 0.51858 0.28152 0.51858 0.69639 0 0.41116-0.20743 0.68897-0.51858 0.68897-0.30745 0-0.51858-0.27781-0.51858-0.68897z"/>
     <path d="m61.719 102.17c0 0.32226 0.22595 0.51117 0.5297 0.51117 0.22225 0 0.42228-0.11853 0.59637-0.25929h0.0074l0.02593 0.21484h0.25188v-1.1038c0-0.4482-0.18521-0.74083-0.626-0.74083-0.28892 0-0.54081 0.12594-0.7075 0.23336l0.12224 0.21114c0.14076-0.0963 0.32597-0.19262 0.5371-0.19262 0.29263 0 0.37042 0.22225 0.37042 0.45191-0.76676 0.0852-1.1075 0.28152-1.1075 0.67416zm0.30004-0.0222c0-0.22965 0.20373-0.37782 0.80751-0.4519v0.50006c-0.1741 0.15557-0.31856 0.24077-0.49265 0.24077-0.1778 0-0.31486-0.0852-0.31486-0.28893z"/>
     <path d="m63.573 101.74c0 0.60007 0.29263 0.94085 0.74454 0.94085 0.21114 0 0.40375-0.11853 0.54451-0.25558h0.01111l0.02593 0.21113h0.25188v-2.6374h-0.30745v0.69268l0.01482 0.30744c-0.15928-0.12964-0.29633-0.20743-0.50377-0.20743-0.41116 0-0.78158 0.36301-0.78158 0.94827zm0.31485-4e-3c0-0.41116 0.22966-0.68897 0.51858-0.68897 0.14817 0 0.28522 0.0519 0.43709 0.18891v0.94086c-0.14817 0.16668-0.29263 0.24818-0.45932 0.24818-0.31485 0-0.49636-0.2593-0.49636-0.68898z"/>
     <path d="m65.913 100.47c0.11853 0 0.21114-0.0815 0.21114-0.19632 0-0.11853-0.0926-0.19632-0.21114-0.19632-0.11853 0-0.21114 0.0778-0.21114 0.19632 0 0.11483 0.0926 0.19632 0.21114 0.19632zm-0.15558 2.1706h0.30374v-1.8002h-0.30374z"/>
     <path d="m66.669 102.64h0.30374v-1.3039c0.1815-0.18151 0.30745-0.27782 0.49265-0.27782 0.23707 0 0.34078 0.14447 0.34078 0.48155v1.1001h0.30374v-1.1409c0-0.45932-0.17039-0.70379-0.54822-0.70379-0.24818 0-0.43339 0.13335-0.60378 0.30374h-0.01111l-0.02593-0.25929h-0.25188z"/>
     <path d="m68.825 102.94c0-0.10372 0.05556-0.21114 0.18521-0.30375 0.07779 0.0222 0.16298 0.0296 0.23336 0.0296h0.31115c0.23336 0 0.36301 0.0556 0.36301 0.22225 0 0.18891-0.22595 0.36671-0.57044 0.36671-0.32597 0-0.52229-0.12224-0.52229-0.31485zm-0.2667 0.0407c0 0.31115 0.30374 0.48525 0.74454 0.48525 0.55933 0 0.91122-0.28893 0.91122-0.6223 0-0.30004-0.21114-0.42969-0.62971-0.42969h-0.34819c-0.24448 0-0.31856-0.0815-0.31856-0.19632 0-0.10001 0.05186-0.15928 0.11483-0.21484 0.08149 0.0407 0.1815 0.063 0.2704 0.063 0.36671 0 0.65934-0.24077 0.65934-0.626 0-0.15187-0.06297-0.28893-0.14817-0.37042h0.37042v-0.23336h-0.626c-0.06668-0.0259-0.15558-0.0444-0.25559-0.0444-0.36671 0-0.67786 0.24818-0.67786 0.64082 0 0.21484 0.11483 0.38894 0.23336 0.48525v0.0148c-0.0926 0.063-0.19632 0.18151-0.19632 0.33338 0 0.14076 0.07038 0.23706 0.15928 0.29263v0.0148c-0.16298 0.11113-0.263 0.25559-0.263 0.40746zm0.74454-1.1187c-0.20743 0-0.38153-0.16668-0.38153-0.42968s0.17039-0.41857 0.38153-0.41857c0.21114 0 0.38153 0.15557 0.38153 0.41857s-0.1741 0.42968-0.38153 0.42968z"/>
    </g>
    <path d="m-50.102 147.88-2.8112 2.3812v7.9375l2.8112 2.3812h27.451l2.8112-2.3812v-7.9375l-2.8112-2.3812z" fill="#1d232d" stroke="#009244"/>
    <g fill="#e8eaec" aria-label="Unloading">
     <path d="m-44.229 154.55c0 0.78158 0.37782 1.0483 0.87418 1.0483 0.49636 0 0.87418-0.2667 0.87418-1.0483v-1.4261h-0.29633v1.4335c0 0.58525-0.25559 0.77046-0.57785 0.77046-0.31485 0-0.56303-0.18521-0.56303-0.77046v-1.4335h-0.31115z"/>
     <path d="m-41.863 155.55h0.30374v-1.3039c0.1815-0.1815 0.30745-0.27781 0.49265-0.27781 0.23707 0 0.34078 0.14446 0.34078 0.48154v1.1001h0.30374v-1.1409c0-0.45931-0.17039-0.70379-0.54822-0.70379-0.24818 0-0.43339 0.13335-0.60378 0.30374h-0.01111l-0.02593-0.25929h-0.25188z"/>
     <path d="m-39.837 155.19c0 0.26299 0.09261 0.40746 0.32226 0.40746 0.08149 0 0.13335-0.0111 0.1741-0.0296l-0.04075-0.22965c-0.03334 7e-3 -0.04815 7e-3 -0.06668 7e-3 -0.04445 0-0.0852-0.037-0.0852-0.13335v-2.2966h-0.30374z"/>
     <path d="m-39.023 154.66c0 0.59637 0.39264 0.94086 0.83344 0.94086s0.83344-0.34449 0.83344-0.94086c0-0.60378-0.39264-0.94827-0.83344-0.94827s-0.83344 0.34449-0.83344 0.94827zm0.31485 0c0-0.41487 0.21114-0.69638 0.51858-0.69638 0.31115 0 0.51858 0.28151 0.51858 0.69638 0 0.41116-0.20743 0.68897-0.51858 0.68897-0.30745 0-0.51858-0.27781-0.51858-0.68897z"/>
     <path d="m-37.018 155.09c0 0.32226 0.22595 0.51118 0.5297 0.51118 0.22225 0 0.42228-0.11854 0.59637-0.25929h0.0074l0.02593 0.21484h0.25188v-1.1038c0-0.44821-0.18521-0.74084-0.626-0.74084-0.28892 0-0.54081 0.12594-0.7075 0.23336l0.12224 0.21114c0.14076-0.0963 0.32597-0.19261 0.5371-0.19261 0.29263 0 0.37042 0.22225 0.37042 0.4519-0.76676 0.0852-1.1075 0.28152-1.1075 0.67416zm0.30004-0.0222c0-0.22966 0.20373-0.37783 0.80751-0.45191v0.50006c-0.1741 0.15558-0.31856 0.24077-0.49265 0.24077-0.1778 0-0.31486-0.0852-0.31486-0.28892z"/>
     <path d="m-35.163 154.66c0 0.60007 0.29263 0.94086 0.74454 0.94086 0.21114 0 0.40375-0.11854 0.54451-0.25559h0.01111l0.02593 0.21114h0.25188v-2.6374h-0.30745v0.69268l0.01482 0.30745c-0.15928-0.12965-0.29633-0.20744-0.50377-0.20744-0.41116 0-0.78158 0.36301-0.78158 0.94827zm0.31485-4e-3c0-0.41116 0.22966-0.68897 0.51858-0.68897 0.14817 0 0.28522 0.0519 0.43709 0.18891v0.94086c-0.14817 0.16669-0.29263 0.24818-0.45932 0.24818-0.31485 0-0.49636-0.25929-0.49636-0.68898z"/>
     <path d="m-32.823 153.38c0.11853 0 0.21114-0.0815 0.21114-0.19633 0-0.11853-0.0926-0.19632-0.21114-0.19632-0.11853 0-0.21114 0.0778-0.21114 0.19632 0 0.11483 0.0926 0.19633 0.21114 0.19633zm-0.15558 2.1706h0.30374v-1.8002h-0.30374z"/>
     <path d="m-32.067 155.55h0.30374v-1.3039c0.1815-0.1815 0.30745-0.27781 0.49265-0.27781 0.23707 0 0.34078 0.14446 0.34078 0.48154v1.1001h0.30374v-1.1409c0-0.45931-0.17039-0.70379-0.54822-0.70379-0.24818 0-0.43339 0.13335-0.60378 0.30374h-0.01111l-0.02593-0.25929h-0.25188z"/>
     <path d="m-29.912 155.86c0-0.10372 0.05556-0.21114 0.18521-0.30374 0.07779 0.0222 0.16298 0.0296 0.23336 0.0296h0.31115c0.23336 0 0.36301 0.0556 0.36301 0.22225 0 0.18891-0.22595 0.36671-0.57044 0.36671-0.32597 0-0.52229-0.12223-0.52229-0.31485zm-0.2667 0.0407c0 0.31115 0.30374 0.48525 0.74454 0.48525 0.55933 0 0.91122-0.28892 0.91122-0.6223 0-0.30004-0.21114-0.42968-0.62971-0.42968h-0.34819c-0.24448 0-0.31856-0.0815-0.31856-0.19632 0-0.10002 0.05186-0.15928 0.11483-0.21485 0.08149 0.0408 0.1815 0.063 0.2704 0.063 0.36671 0 0.65934-0.24078 0.65934-0.62601 0-0.15187-0.06297-0.28892-0.14817-0.37042h0.37042v-0.23336h-0.626c-0.06668-0.0259-0.15558-0.0445-0.25559-0.0445-0.36671 0-0.67786 0.24818-0.67786 0.64082 0 0.21484 0.11483 0.38894 0.23336 0.48525v0.0148c-0.0926 0.063-0.19632 0.1815-0.19632 0.33337 0 0.14076 0.07038 0.23707 0.15928 0.29263v0.0148c-0.16298 0.11112-0.263 0.25558-0.263 0.40745zm0.74454-1.1186c-0.20743 0-0.38153-0.16669-0.38153-0.42969 0-0.26299 0.17039-0.41857 0.38153-0.41857 0.21114 0 0.38153 0.15558 0.38153 0.41857 0 0.263-0.1741 0.42969-0.38153 0.42969z"/>
    </g>
    <path d="m50.439 147.88-2.8112 2.3812v7.9375l2.8112 2.3812h27.451l2.8112-2.3812v-7.9375l-2.8112-2.3812z" fill="#1d232d" stroke="#009244"/>
    <g fill="#e8eaec" aria-label="Going to Load">
     <path d="m53.492 154.34c0 0.79269 0.45561 1.2594 1.0927 1.2594 0.32597 0 0.59637-0.12594 0.75565-0.28152v-1.0224h-0.7964v0.25559h0.51488v0.63341c-0.09631 0.0889-0.2667 0.14446-0.4408 0.14446-0.51858 0-0.80751-0.38523-0.80751-0.99642 0-0.60378 0.31485-0.9816 0.80751-0.9816 0.24077 0 0.39264 0.0963 0.51488 0.22595l0.1778-0.19632c-0.14446-0.14817-0.36671-0.30004-0.69638-0.30004-0.65193 0-1.1224 0.47784-1.1224 1.2594z"/>
     <path d="m55.745 154.66c0 0.59637 0.39264 0.94086 0.83344 0.94086 0.4408 0 0.83344-0.34449 0.83344-0.94086 0-0.60378-0.39264-0.94827-0.83344-0.94827-0.4408 0-0.83344 0.34449-0.83344 0.94827zm0.31485 0c0-0.41487 0.21114-0.69638 0.51858-0.69638 0.31115 0 0.51858 0.28151 0.51858 0.69638 0 0.41116-0.20743 0.68897-0.51858 0.68897-0.30745 0-0.51858-0.27781-0.51858-0.68897z"/>
     <path d="m58.046 153.38c0.11853 0 0.21114-0.0815 0.21114-0.19633 0-0.11853-0.0926-0.19632-0.21114-0.19632-0.11853 0-0.21114 0.0778-0.21114 0.19632 0 0.11483 0.0926 0.19633 0.21114 0.19633zm-0.15558 2.1706h0.30374v-1.8002h-0.30374z"/>
     <path d="m58.802 155.55h0.30374v-1.3039c0.1815-0.1815 0.30744-0.27781 0.49265-0.27781 0.23707 0 0.34078 0.14446 0.34078 0.48154v1.1001h0.30374v-1.1409c0-0.45931-0.17039-0.70379-0.54822-0.70379-0.24818 0-0.43339 0.13335-0.60378 0.30374h-0.01111l-0.02593-0.25929h-0.25188z"/>
     <path d="m60.957 155.86c0-0.10372 0.05556-0.21114 0.18521-0.30374 0.07779 0.0222 0.16298 0.0296 0.23336 0.0296h0.31115c0.23336 0 0.36301 0.0556 0.36301 0.22225 0 0.18891-0.22595 0.36671-0.57044 0.36671-0.32597 0-0.52229-0.12223-0.52229-0.31485zm-0.2667 0.0407c0 0.31115 0.30374 0.48525 0.74454 0.48525 0.55933 0 0.91122-0.28892 0.91122-0.6223 0-0.30004-0.21114-0.42968-0.62971-0.42968h-0.34819c-0.24448 0-0.31856-0.0815-0.31856-0.19632 0-0.10002 0.05186-0.15928 0.11483-0.21485 0.08149 0.0408 0.1815 0.063 0.2704 0.063 0.36671 0 0.65934-0.24078 0.65934-0.62601 0-0.15187-0.06297-0.28892-0.14817-0.37042h0.37042v-0.23336h-0.626c-0.06668-0.0259-0.15558-0.0445-0.25559-0.0445-0.36671 0-0.67786 0.24818-0.67786 0.64082 0 0.21484 0.11483 0.38894 0.23336 0.48525v0.0148c-0.0926 0.063-0.19632 0.1815-0.19632 0.33337 0 0.14076 0.07038 0.23707 0.15928 0.29263v0.0148c-0.16298 0.11112-0.263 0.25558-0.263 0.40745zm0.74454-1.1186c-0.20743 0-0.38153-0.16669-0.38153-0.42969 0-0.26299 0.17039-0.41857 0.38153-0.41857 0.21114 0 0.38153 0.15558 0.38153 0.41857 0 0.263-0.1741 0.42969-0.38153 0.42969z"/>
     <path d="m63.491 155c0 0.3556 0.12965 0.60008 0.51488 0.60008 0.11112 0 0.23336-0.0333 0.33338-0.0667l-0.05927-0.22966c-0.05927 0.0222-0.14076 0.0482-0.20373 0.0482-0.20743 0-0.27781-0.12594-0.27781-0.34819v-1.0001h0.48525v-0.24818h-0.48525v-0.50376h-0.25559l-0.03704 0.50376-0.28152 0.0185v0.22966h0.2667z"/>
     <path d="m64.521 154.66c0 0.59637 0.39264 0.94086 0.83344 0.94086s0.83344-0.34449 0.83344-0.94086c0-0.60378-0.39264-0.94827-0.83344-0.94827s-0.83344 0.34449-0.83344 0.94827zm0.31486 0c0-0.41487 0.21114-0.69638 0.51858-0.69638 0.31115 0 0.51858 0.28151 0.51858 0.69638 0 0.41116-0.20743 0.68897-0.51858 0.68897-0.30745 0-0.51858-0.27781-0.51858-0.68897z"/>
     <path d="m67.429 155.55h1.3705v-0.263h-1.0594v-2.1669h-0.31115z"/>
     <path d="m69.014 154.66c0 0.59637 0.39264 0.94086 0.83344 0.94086s0.83344-0.34449 0.83344-0.94086c0-0.60378-0.39264-0.94827-0.83344-0.94827s-0.83344 0.34449-0.83344 0.94827zm0.31485 0c0-0.41487 0.21114-0.69638 0.51858-0.69638 0.31115 0 0.51858 0.28151 0.51858 0.69638 0 0.41116-0.20743 0.68897-0.51858 0.68897-0.30745 0-0.51858-0.27781-0.51858-0.68897z"/>
     <path d="m71.019 155.09c0 0.32226 0.22595 0.51118 0.5297 0.51118 0.22225 0 0.42228-0.11854 0.59637-0.25929h0.0074l0.02593 0.21484h0.25188v-1.1038c0-0.44821-0.18521-0.74084-0.626-0.74084-0.28892 0-0.54081 0.12594-0.7075 0.23336l0.12224 0.21114c0.14076-0.0963 0.32597-0.19261 0.5371-0.19261 0.29263 0 0.37042 0.22225 0.37042 0.4519-0.76676 0.0852-1.1075 0.28152-1.1075 0.67416zm0.30004-0.0222c0-0.22966 0.20373-0.37783 0.80751-0.45191v0.50006c-0.1741 0.15558-0.31856 0.24077-0.49265 0.24077-0.1778 0-0.31485-0.0852-0.31485-0.28892z"/>
     <path d="m72.874 154.66c0 0.60007 0.29263 0.94086 0.74454 0.94086 0.21114 0 0.40376-0.11854 0.54451-0.25559h0.01111l0.02593 0.21114h0.25188v-2.6374h-0.30745v0.69268l0.01482 0.30745c-0.15928-0.12965-0.29633-0.20744-0.50377-0.20744-0.41116 0-0.78158 0.36301-0.78158 0.94827zm0.31485-4e-3c0-0.41116 0.22966-0.68897 0.51858-0.68897 0.14817 0 0.28522 0.0519 0.43709 0.18891v0.94086c-0.14817 0.16669-0.29263 0.24818-0.45932 0.24818-0.31485 0-0.49636-0.25929-0.49636-0.68898z"/>
    </g>
    <rect transform="matrix(.70711 .70711 .70711 -.70711 0 0)" x="28.556" y="-81.982" width="2.1167" height="2.1167" fill="#1d232d" stroke="#47d58a"/>
   </g>
   <circle transform="scale(1,-1)" cx="-36.274" cy="-78.163" r=".52917" fill="#47d58a"/>
   <g fill="#e8eaec" stroke-linecap="round" stroke-width=".26458" aria-label="[arrived]">
    <path d="m67.025 127.01h0.66305v-0.1741h-0.43339v-2.8337h0.43339v-0.1778h-0.66305z"/>
    <path d="m68.013 125.98c0 0.32226 0.22595 0.51117 0.5297 0.51117 0.22225 0 0.42228-0.11853 0.59637-0.25929h0.0074l0.02593 0.21484h0.25188v-1.1038c0-0.4482-0.18521-0.74083-0.626-0.74083-0.28892 0-0.54081 0.12594-0.7075 0.23336l0.12224 0.21114c0.14076-0.0963 0.32597-0.19262 0.5371-0.19262 0.29263 0 0.37042 0.22225 0.37042 0.45191-0.76676 0.0852-1.1075 0.28152-1.1075 0.67416zm0.30004-0.0222c0-0.22965 0.20373-0.37782 0.80751-0.4519v0.50006c-0.1741 0.15557-0.31856 0.24077-0.49265 0.24077-0.1778 0-0.31486-0.0852-0.31486-0.28893z"/>
    <path d="m69.997 126.45h0.30374v-1.1557c0.12224-0.30374 0.30374-0.41486 0.45561-0.41486 0.07408 0 0.11483 0.0111 0.1741 0.0296l0.05927-0.2667c-0.05927-0.0259-0.11483-0.037-0.19262-0.037-0.20373 0-0.38894 0.14446-0.51118 0.37042h-0.01111l-0.02593-0.32597h-0.25188z"/>
    <path d="m71.285 126.45h0.30374v-1.1557c0.12224-0.30374 0.30374-0.41486 0.45561-0.41486 0.07408 0 0.11483 0.0111 0.1741 0.0296l0.05927-0.2667c-0.05927-0.0259-0.11483-0.037-0.19262-0.037-0.20373 0-0.38894 0.14446-0.51118 0.37042h-0.01111l-0.02593-0.32597h-0.25188z"/>
    <path d="m72.728 124.28c0.11853 0 0.21114-0.0815 0.21114-0.19632 0-0.11853-0.0926-0.19632-0.21114-0.19632-0.11853 0-0.21114 0.0778-0.21114 0.19632 0 0.11483 0.0926 0.19632 0.21114 0.19632zm-0.15558 2.1706h0.30374v-1.8002h-0.30374z"/>
    <path d="m73.873 126.45h0.3556l0.63712-1.8002h-0.30004l-0.34078 1.0224c-0.05186 0.1778-0.11112 0.3593-0.16298 0.52969h-0.01482c-0.05556-0.17039-0.11483-0.35189-0.16669-0.52969l-0.34078-1.0224h-0.31485z"/>
    <path d="m75.066 125.55c0 0.58896 0.38153 0.94085 0.86307 0.94085 0.24448 0 0.43709-0.0852 0.59267-0.1852l-0.10742-0.20003c-0.13335 0.0852-0.27781 0.14076-0.4482 0.14076-0.34449 0-0.57785-0.24448-0.60008-0.63341h1.215c0.0074-0.0444 0.01111-0.10372 0.01111-0.16669 0-0.51488-0.25929-0.84455-0.71861-0.84455-0.41116 0-0.80751 0.3593-0.80751 0.94827zm0.29633-0.13706c0.03704-0.36301 0.2667-0.57044 0.51858-0.57044 0.28152 0 0.4445 0.20373 0.4445 0.57044z"/>
    <path d="m76.907 125.55c0 0.60007 0.29263 0.94085 0.74454 0.94085 0.21114 0 0.40375-0.11853 0.54451-0.25558h0.01111l0.02593 0.21113h0.25188v-2.6374h-0.30745v0.69268l0.01482 0.30744c-0.15928-0.12964-0.29633-0.20743-0.50377-0.20743-0.41116 0-0.78158 0.36301-0.78158 0.94827zm0.31485-4e-3c0-0.41116 0.22966-0.68897 0.51858-0.68897 0.14817 0 0.28522 0.0519 0.43709 0.18891v0.94086c-0.14817 0.16668-0.29263 0.24818-0.45932 0.24818-0.31486 0-0.49636-0.2593-0.49636-0.68898z"/>
    <path d="m78.902 126.84v0.1741h0.65934v-3.1856h-0.65934v0.1778h0.42968v2.8337z"/>
   </g>
   <g fill="#e8eaec" stroke-linecap="round" stroke-width=".26458" aria-label="[loaded]">
    <path d="m7.8775 99.495h0.66305v-0.1741h-0.43339v-2.8337h0.43339v-0.1778h-0.66305z"/>
    <path d="m8.9545 98.569c0 0.263 0.092604 0.40746 0.32226 0.40746 0.081492 0 0.13335-0.01111 0.1741-0.02963l-0.040746-0.22966c-0.033338 0.0074-0.048154 0.0074-0.066675 0.0074-0.04445 0-0.085196-0.03704-0.085196-0.13335v-2.2966h-0.30374z"/>
    <path d="m9.7689 98.036c0 0.59637 0.39264 0.94086 0.83344 0.94086 0.4408 0 0.83344-0.34449 0.83344-0.94086 0-0.60378-0.39264-0.94827-0.83344-0.94827-0.4408 0-0.83344 0.34449-0.83344 0.94827zm0.31485 0c0-0.41487 0.21114-0.69638 0.51858-0.69638 0.31115 0 0.51858 0.28152 0.51858 0.69638 0 0.41116-0.20743 0.68898-0.51858 0.68898-0.30744 0-0.51858-0.27781-0.51858-0.68898z"/>
    <path d="m11.774 98.465c0 0.32226 0.22595 0.51118 0.5297 0.51118 0.22225 0 0.42228-0.11853 0.59637-0.25929h0.0074l0.02593 0.21484h0.25188v-1.1038c0-0.4482-0.18521-0.74083-0.626-0.74083-0.28892 0-0.54081 0.12594-0.7075 0.23336l0.12224 0.21114c0.14076-0.09631 0.32597-0.19262 0.5371-0.19262 0.29263 0 0.37042 0.22225 0.37042 0.45191-0.76676 0.0852-1.1075 0.28152-1.1075 0.67416zm0.30004-0.02222c0-0.22966 0.20373-0.37782 0.80751-0.45191v0.50006c-0.1741 0.15558-0.31856 0.24077-0.49265 0.24077-0.1778 0-0.31485-0.0852-0.31485-0.28892z"/>
    <path d="m13.629 98.036c0 0.60008 0.29263 0.94086 0.74454 0.94086 0.21114 0 0.40375-0.11853 0.54451-0.25559h0.01111l0.02593 0.21114h0.25188v-2.6374h-0.30744v0.69268l0.01482 0.30744c-0.15928-0.12964-0.29633-0.20743-0.50377-0.20743-0.41116 0-0.78158 0.36301-0.78158 0.94827zm0.31486-0.0037c0-0.41116 0.22966-0.68898 0.51858-0.68898 0.14817 0 0.28522 0.05186 0.43709 0.18891v0.94086c-0.14817 0.16669-0.29263 0.24818-0.45932 0.24818-0.31485 0-0.49636-0.25929-0.49636-0.68898z"/>
    <path d="m15.68 98.036c0 0.58896 0.38153 0.94086 0.86307 0.94086 0.24448 0 0.43709-0.0852 0.59267-0.18521l-0.10742-0.20002c-0.13335 0.0852-0.27781 0.14076-0.4482 0.14076-0.34449 0-0.57785-0.24448-0.60008-0.63341h1.215c0.0074-0.04445 0.01111-0.10372 0.01111-0.16669 0-0.51488-0.25929-0.84455-0.71861-0.84455-0.41116 0-0.80751 0.3593-0.80751 0.94827zm0.29633-0.13705c0.03704-0.36301 0.2667-0.57044 0.51858-0.57044 0.28152 0 0.4445 0.20373 0.4445 0.57044z"/>
    <path d="m17.521 98.036c0 0.60008 0.29263 0.94086 0.74454 0.94086 0.21114 0 0.40375-0.11853 0.54451-0.25559h0.01111l0.02593 0.21114h0.25188v-2.6374h-0.30745v0.69268l0.01482 0.30744c-0.15928-0.12964-0.29633-0.20743-0.50377-0.20743-0.41116 0-0.78158 0.36301-0.78158 0.94827zm0.31485-0.0037c0-0.41116 0.22966-0.68898 0.51858-0.68898 0.14817 0 0.28522 0.05186 0.43709 0.18891v0.94086c-0.14817 0.16669-0.29263 0.24818-0.45932 0.24818-0.31485 0-0.49636-0.25929-0.49636-0.68898z"/>
    <path d="m19.516 99.321v0.1741h0.65934v-3.1856h-0.65934v0.1778h0.42968v2.8337z"/>
   </g>
  </g>
  <g fill="#47d58a" stroke-width="123.85">
   <g transform="matrix(0 .0042365 .0043091 0 -37.568 92.47)">
    <g fill="#47d58a" stroke-width="123.85">
     <path d="m486.41 221.41-364.07-208.5c-52.938-30.318-95.852-5.44-95.852 55.563v415.65c0 61.004 42.914 85.882 95.852 55.563l364.07-208.49c52.938-30.317 52.938-79.473 0-109.79z" fill="#47d58a" stroke-width="123.85"/>
    </g>
   </g>
   <g transform="matrix(0 -.0042365 .0043091 0 63.239 109.58)">
    <g fill="#47d58a" stroke-width="123.85">
     <path d="m486.41 221.41-364.07-208.5c-52.938-30.318-95.852-5.44-95.852 55.563v415.65c0 61.004 42.914 85.882 95.852 55.563l364.07-208.49c52.938-30.317 52.938-79.473 0-109.79z" fill="#47d58a" stroke-width="123.85"/>
    </g>
   </g>
   <g transform="matrix(-.0042365 0 0 -.0043091 -17.778 101.31)">
    <g fill="#47d58a" stroke-width="123.85">
     <path d="m486.41 221.41-364.07-208.5c-52.938-30.318-95.852-5.44-95.852 55.563v415.65c0 61.004 42.914 85.882 95.852 55.563l364.07-208.49c52.938-30.317 52.938-79.473 0-109.79z" fill="#47d58a" stroke-width="123.85"/>
    </g>
   </g>
  </g>
  <path d="m-36.112 147.48v-38.795" fill="none" stroke="#47d58a" stroke-linecap="round" stroke-width=".26458"/>
  <g>
   <g transform="matrix(0 -.0042365 .0043091 0 -37.303 109.58)" fill="#47d58a" stroke-width="123.85">
    <g fill="#47d58a" stroke-width="123.85">
     <path d="m486.41 221.41-364.07-208.5c-52.938-30.318-95.852-5.44-95.852 55.563v415.65c0 61.004 42.914 85.882 95.852 55.563l364.07-208.49c52.938-30.317 52.938-79.473 0-109.79z" fill="#47d58a" stroke-width="123.85"/>
    </g>
   </g>
   <g stroke-width=".26458">
    <g fill="#e8eaec" stroke-linecap="round" aria-label="[unloaded]">
     <path d="m-54.999 129.13h0.66305v-0.1741h-0.43339v-2.8337h0.43339v-0.1778h-0.66305z"/>
     <path d="m-53.948 127.91c0 0.45932 0.17039 0.70379 0.55192 0.70379 0.24818 0 0.42598-0.12964 0.59267-0.32596h0.01111l0.02593 0.28151h0.25188v-1.8002h-0.30374v1.2779c-0.17039 0.21113-0.30004 0.30374-0.48525 0.30374-0.23707 0-0.33708-0.14446-0.33708-0.48154v-1.1001h-0.30745z"/>
     <path d="m-51.903 128.57h0.30374v-1.3039c0.1815-0.18151 0.30745-0.27781 0.49265-0.27781 0.23707 0 0.34078 0.14446 0.34078 0.48154v1.1001h0.30374v-1.1409c0-0.45932-0.17039-0.70379-0.54822-0.70379-0.24818 0-0.43339 0.13335-0.60378 0.30374h-0.01111l-0.02593-0.25929h-0.25188z"/>
     <path d="m-49.878 128.2c0 0.26299 0.0926 0.40745 0.32226 0.40745 0.08149 0 0.13335-0.0111 0.1741-0.0296l-0.04075-0.22966c-0.03334 7e-3 -0.04815 7e-3 -0.06668 7e-3 -0.04445 0-0.08519-0.037-0.08519-0.13335v-2.2966h-0.30374z"/>
     <path d="m-49.063 127.67c0 0.59637 0.39264 0.94085 0.83344 0.94085s0.83344-0.34448 0.83344-0.94085c0-0.60378-0.39264-0.94827-0.83344-0.94827s-0.83344 0.34449-0.83344 0.94827zm0.31485 0c0-0.41487 0.21114-0.69639 0.51858-0.69639 0.31115 0 0.51858 0.28152 0.51858 0.69639 0 0.41116-0.20743 0.68897-0.51858 0.68897-0.30745 0-0.51858-0.27781-0.51858-0.68897z"/>
     <path d="m-47.058 128.1c0 0.32226 0.22595 0.51117 0.5297 0.51117 0.22225 0 0.42228-0.11853 0.59637-0.25929h0.0074l0.02593 0.21484h0.25188v-1.1038c0-0.4482-0.18521-0.74083-0.626-0.74083-0.28892 0-0.54081 0.12594-0.7075 0.23336l0.12224 0.21114c0.14076-0.0963 0.32597-0.19262 0.5371-0.19262 0.29263 0 0.37042 0.22225 0.37042 0.45191-0.76676 0.0852-1.1075 0.28152-1.1075 0.67416zm0.30004-0.0222c0-0.22965 0.20373-0.37782 0.80751-0.4519v0.50006c-0.1741 0.15557-0.31856 0.24077-0.49265 0.24077-0.1778 0-0.31486-0.0852-0.31486-0.28893z"/>
     <path d="m-45.203 127.67c0 0.60007 0.29263 0.94085 0.74454 0.94085 0.21114 0 0.40375-0.11853 0.54451-0.25558h0.01111l0.02593 0.21113h0.25188v-2.6374h-0.30745v0.69268l0.01482 0.30744c-0.15928-0.12964-0.29633-0.20743-0.50377-0.20743-0.41116 0-0.78158 0.36301-0.78158 0.94827zm0.31485-4e-3c0-0.41116 0.22966-0.68897 0.51858-0.68897 0.14817 0 0.28522 0.0519 0.43709 0.18891v0.94086c-0.14817 0.16669-0.29263 0.24818-0.45932 0.24818-0.31485 0-0.49636-0.25929-0.49636-0.68898z"/>
     <path d="m-43.152 127.67c0 0.58896 0.38153 0.94085 0.86307 0.94085 0.24448 0 0.43709-0.0852 0.59267-0.1852l-0.10742-0.20003c-0.13335 0.0852-0.27781 0.14076-0.4482 0.14076-0.34449 0-0.57785-0.24448-0.60008-0.63341h1.215c0.0074-0.0444 0.01111-0.10372 0.01111-0.16669 0-0.51488-0.25929-0.84455-0.71861-0.84455-0.41116 0-0.80751 0.3593-0.80751 0.94827zm0.29633-0.13706c0.03704-0.36301 0.2667-0.57044 0.51858-0.57044 0.28152 0 0.4445 0.20373 0.4445 0.57044z"/>
     <path d="m-41.311 127.67c0 0.60007 0.29263 0.94085 0.74454 0.94085 0.21114 0 0.40375-0.11853 0.54451-0.25558h0.01111l0.02593 0.21113h0.25188v-2.6374h-0.30745v0.69268l0.01482 0.30744c-0.15928-0.12964-0.29633-0.20743-0.50377-0.20743-0.41116 0-0.78158 0.36301-0.78158 0.94827zm0.31485-4e-3c0-0.41116 0.22966-0.68897 0.51858-0.68897 0.14817 0 0.28522 0.0519 0.43709 0.18891v0.94086c-0.14817 0.16669-0.29263 0.24818-0.45932 0.24818-0.31485 0-0.49636-0.25929-0.49636-0.68898z"/>
     <path d="m-39.316 128.95v0.1741h0.65934v-3.1856h-0.65934v0.1778h0.42968v2.8337z"/>
    </g>
    <path d="m-22.683 107.89 29.236 39.596" fill="#7893ea" stroke="#47d58a" stroke-linecap="square"/>
    <path d="m-19.708 105.41 69.321 41.804" fill="#7893ea" stroke="#47d58a" stroke-linecap="square"/>
   </g>
   <g transform="matrix(.0034212 .0024988 .0025416 -.0034797 47.824 147.46)" fill="#47d58a" stroke-width="123.85">
    <g fill="#47d58a" stroke-width="123.85">
     <path d="m486.41 221.41-364.07-208.5c-52.938-30.318-95.852-5.44-95.852 55.563v415.65c0 61.004 42.914 85.882 95.852 55.563l364.07-208.49c52.938-30.317 52.938-79.473 0-109.79z" fill="#47d58a" stroke-width="123.85"/>
    </g>
   </g>
   <g transform="matrix(.0019861 -.0037422 -.0038062 -.0020201 6.6793 148.15)" fill="#47d58a" stroke-width="123.85">
    <g fill="#47d58a" stroke-width="123.85">
     <path d="m486.41 221.41-364.07-208.5c-52.938-30.318-95.852-5.44-95.852 55.563v415.65c0 61.004 42.914 85.882 95.852 55.563l364.07-208.49c52.938-30.317 52.938-79.473 0-109.79z" fill="#47d58a" stroke-width="123.85"/>
    </g>
   </g>
   <g stroke-linecap="round" stroke-width=".26458">
    <g fill="#e8eaec" aria-label="[go load]">
     <path d="m15.21 125.69h0.66305v-0.17409h-0.43339v-2.8337h0.43339v-0.1778h-0.66305z"/>
     <path d="m16.417 125.43c0-0.10372 0.05556-0.21114 0.18521-0.30374 0.07779 0.0222 0.16298 0.0296 0.23336 0.0296h0.31115c0.23336 0 0.36301 0.0556 0.36301 0.22225 0 0.18892-0.22595 0.36672-0.57044 0.36672-0.32597 0-0.52229-0.12224-0.52229-0.31486zm-0.2667 0.0408c0 0.31115 0.30374 0.48524 0.74454 0.48524 0.55933 0 0.91122-0.28892 0.91122-0.6223 0-0.30003-0.21114-0.42968-0.62971-0.42968h-0.34819c-0.24448 0-0.31856-0.0815-0.31856-0.19632 0-0.10001 0.05186-0.15928 0.11483-0.21484 0.08149 0.0407 0.1815 0.063 0.2704 0.063 0.36671 0 0.65934-0.24077 0.65934-0.62601 0-0.15187-0.06297-0.28892-0.14817-0.37041h0.37042v-0.23337h-0.626c-0.06668-0.0259-0.15558-0.0444-0.25559-0.0444-0.36671 0-0.67786 0.24818-0.67786 0.64083 0 0.21484 0.11483 0.38893 0.23336 0.48524v0.0148c-0.0926 0.063-0.19632 0.1815-0.19632 0.33337 0 0.14076 0.07038 0.23707 0.15928 0.29263v0.0148c-0.16298 0.11112-0.263 0.25559-0.263 0.40746zm0.74454-1.1187c-0.20743 0-0.38153-0.16669-0.38153-0.42968 0-0.263 0.17039-0.41858 0.38153-0.41858 0.21114 0 0.38153 0.15558 0.38153 0.41858 0 0.26299-0.1741 0.42968-0.38153 0.42968z"/>
     <path d="m17.97 124.23c0 0.59637 0.39264 0.94086 0.83344 0.94086s0.83344-0.34449 0.83344-0.94086c0-0.60378-0.39264-0.94827-0.83344-0.94827s-0.83344 0.34449-0.83344 0.94827zm0.31485 0c0-0.41487 0.21114-0.69638 0.51858-0.69638 0.31115 0 0.51858 0.28151 0.51858 0.69638 0 0.41116-0.20743 0.68898-0.51858 0.68898-0.30745 0-0.51858-0.27782-0.51858-0.68898z"/>
     <path d="m20.86 124.76c0 0.263 0.0926 0.40746 0.32226 0.40746 0.08149 0 0.13335-0.0111 0.1741-0.0296l-0.04075-0.22966c-0.03334 7e-3 -0.04815 7e-3 -0.06668 7e-3 -0.04445 0-0.0852-0.037-0.0852-0.13335v-2.2966h-0.30374z"/>
     <path d="m21.674 124.23c0 0.59637 0.39264 0.94086 0.83344 0.94086s0.83344-0.34449 0.83344-0.94086c0-0.60378-0.39264-0.94827-0.83344-0.94827s-0.83344 0.34449-0.83344 0.94827zm0.31485 0c0-0.41487 0.21114-0.69638 0.51858-0.69638 0.31115 0 0.51858 0.28151 0.51858 0.69638 0 0.41116-0.20743 0.68898-0.51858 0.68898-0.30745 0-0.51858-0.27782-0.51858-0.68898z"/>
     <path d="m23.679 124.66c0 0.32227 0.22595 0.51118 0.5297 0.51118 0.22225 0 0.42228-0.11853 0.59637-0.25929h0.0074l0.02593 0.21484h0.25189v-1.1038c0-0.44821-0.18521-0.74084-0.626-0.74084-0.28892 0-0.54081 0.12595-0.7075 0.23337l0.12224 0.21113c0.14076-0.0963 0.32597-0.19261 0.5371-0.19261 0.29263 0 0.37042 0.22225 0.37042 0.45191-0.76676 0.0852-1.1075 0.28151-1.1075 0.67415zm0.30004-0.0222c0-0.22966 0.20373-0.37783 0.80751-0.45191v0.50006c-0.1741 0.15558-0.31856 0.24077-0.49266 0.24077-0.1778 0-0.31485-0.0852-0.31485-0.28892z"/>
     <path d="m25.534 124.23c0 0.60008 0.29263 0.94086 0.74454 0.94086 0.21114 0 0.40375-0.11853 0.54451-0.25559h0.01111l0.02593 0.21114h0.25188v-2.6374h-0.30745v0.69268l0.01482 0.30745c-0.15928-0.12965-0.29633-0.20744-0.50377-0.20744-0.41116 0-0.78158 0.36301-0.78158 0.94827zm0.31485-4e-3c0-0.41117 0.22966-0.68898 0.51858-0.68898 0.14817 0 0.28522 0.0519 0.43709 0.18891v0.94086c-0.14817 0.16669-0.29263 0.24818-0.45932 0.24818-0.31485 0-0.49636-0.25929-0.49636-0.68897z"/>
     <path d="m27.529 125.51v0.17409h0.65934v-3.1856h-0.65934v0.1778h0.42968v2.8337z"/>
    </g>
    <g fill="#e8eaec" aria-label="[go unload]">
     <path d="m-10.889 132.57h0.66305v-0.1741h-0.43339v-2.8337h0.43339v-0.1778h-0.66305z"/>
     <path d="m-9.6822 132.31c0-0.10372 0.055562-0.21114 0.18521-0.30375 0.077787 0.0222 0.16298 0.0296 0.23336 0.0296h0.31115c0.23336 0 0.36301 0.0556 0.36301 0.22225 0 0.18891-0.22595 0.36671-0.57044 0.36671-0.32597 0-0.52229-0.12224-0.52229-0.31485zm-0.2667 0.0407c0 0.31115 0.30374 0.48525 0.74454 0.48525 0.55933 0 0.91122-0.28893 0.91122-0.6223 0-0.30004-0.21114-0.42969-0.62971-0.42969h-0.34819c-0.24448 0-0.31856-0.0815-0.31856-0.19632 0-0.10001 0.051858-0.15928 0.11483-0.21484 0.081492 0.0408 0.1815 0.063 0.2704 0.063 0.36671 0 0.65934-0.24077 0.65934-0.626 0-0.15187-0.062971-0.28893-0.14817-0.37042h0.37042v-0.23336h-0.626c-0.066675-0.0259-0.15558-0.0445-0.25559-0.0445-0.36671 0-0.67786 0.24818-0.67786 0.64082 0 0.21484 0.11483 0.38894 0.23336 0.48525v0.0148c-0.092604 0.063-0.19632 0.18151-0.19632 0.33338 0 0.14076 0.070379 0.23706 0.15928 0.29263v0.0148c-0.16298 0.11113-0.263 0.25559-0.263 0.40746zm0.74454-1.1187c-0.20743 0-0.38153-0.16668-0.38153-0.42968s0.17039-0.41857 0.38153-0.41857 0.38153 0.15557 0.38153 0.41857-0.1741 0.42968-0.38153 0.42968z"/>
     <path d="m-8.1293 131.11c0 0.59637 0.39264 0.94085 0.83344 0.94085s0.83344-0.34448 0.83344-0.94085c0-0.60378-0.39264-0.94827-0.83344-0.94827s-0.83344 0.34449-0.83344 0.94827zm0.31485 0c0-0.41487 0.21114-0.69639 0.51858-0.69639 0.31115 0 0.51858 0.28152 0.51858 0.69639 0 0.41116-0.20743 0.68897-0.51858 0.68897-0.30745 0-0.51858-0.27781-0.51858-0.68897z"/>
     <path d="m-5.2654 131.35c0 0.45932 0.17039 0.70379 0.55192 0.70379 0.24818 0 0.42598-0.12964 0.59267-0.32596h0.011113l0.025929 0.28151h0.25188v-1.8002h-0.30374v1.2779c-0.17039 0.21113-0.30004 0.30374-0.48525 0.30374-0.23707 0-0.33708-0.14446-0.33708-0.48154v-1.1001h-0.30745z"/>
     <path d="m-3.221 132h0.30374v-1.3039c0.1815-0.18151 0.30745-0.27781 0.49265-0.27781 0.23707 0 0.34078 0.14446 0.34078 0.48154v1.1001h0.30374v-1.1409c0-0.45932-0.17039-0.70379-0.54822-0.70379-0.24818 0-0.43339 0.13335-0.60378 0.30374h-0.011113l-0.025929-0.25929h-0.25188z"/>
     <path d="m-1.1953 131.64c0 0.26299 0.092604 0.40745 0.32226 0.40745 0.081492 0 0.13335-0.0111 0.1741-0.0296l-0.040746-0.22966c-0.033338 7e-3 -0.048154 7e-3 -0.066675 7e-3 -0.04445 0-0.085196-0.037-0.085196-0.13335v-2.2966h-0.30374z"/>
     <path d="m-0.38092 131.11c0 0.59637 0.39264 0.94085 0.83344 0.94085s0.83344-0.34448 0.83344-0.94085c0-0.60378-0.39264-0.94827-0.83344-0.94827s-0.83344 0.34449-0.83344 0.94827zm0.31485 0c0-0.41487 0.21114-0.69639 0.51858-0.69639 0.31115 0 0.51858 0.28152 0.51858 0.69639 0 0.41116-0.20743 0.68897-0.51858 0.68897-0.30745 0-0.51858-0.27781-0.51858-0.68897z"/>
     <path d="m1.6241 131.54c0 0.32226 0.22595 0.51117 0.5297 0.51117 0.22225 0 0.42228-0.11853 0.59637-0.25929h0.00741l0.025929 0.21484h0.25188v-1.1038c0-0.4482-0.18521-0.74083-0.626-0.74083-0.28892 0-0.54081 0.12594-0.7075 0.23336l0.12224 0.21114c0.14076-0.0963 0.32597-0.19262 0.5371-0.19262 0.29263 0 0.37042 0.22225 0.37042 0.45191-0.76676 0.0852-1.1075 0.28152-1.1075 0.67416zm0.30004-0.0222c0-0.22965 0.20373-0.37782 0.80751-0.4519v0.50006c-0.1741 0.15557-0.31856 0.24077-0.49265 0.24077-0.1778 0-0.31485-0.0852-0.31485-0.28893z"/>
     <path d="m3.4789 131.11c0 0.60007 0.29263 0.94085 0.74454 0.94085 0.21114 0 0.40375-0.11853 0.54451-0.25558h0.011113l0.025929 0.21113h0.25188v-2.6374h-0.30745v0.69268l0.014817 0.30744c-0.15928-0.12964-0.29633-0.20743-0.50377-0.20743-0.41116 0-0.78158 0.36301-0.78158 0.94827zm0.31485-4e-3c0-0.41116 0.22966-0.68897 0.51858-0.68897 0.14817 0 0.28522 0.0519 0.43709 0.18891v0.94086c-0.14817 0.16669-0.29263 0.24818-0.45932 0.24818-0.31485 0-0.49636-0.25929-0.49636-0.68898z"/>
     <path d="m5.4743 132.39v0.1741h0.65934v-3.1856h-0.65934v0.1778h0.42968v2.8337z"/>
    </g>
    <path d="m2.8144 147.88-2.8112 2.3812v7.9375l2.8112 2.3812h27.451l2.8112-2.3812v-7.9375l-2.8112-2.3812z" fill="#1d232d" stroke="#009244"/>
    <g fill="#e8eaec" aria-label="Going to unload">
     <path d="m4.2392 154.34c0 0.79269 0.45561 1.2594 1.0927 1.2594 0.32597 0 0.59637-0.12594 0.75565-0.28152v-1.0224h-0.7964v0.25559h0.51488v0.63341c-0.096308 0.0889-0.2667 0.14446-0.4408 0.14446-0.51858 0-0.80751-0.38523-0.80751-0.99642 0-0.60378 0.31485-0.9816 0.80751-0.9816 0.24077 0 0.39264 0.0963 0.51488 0.22595l0.1778-0.19632c-0.14446-0.14817-0.36671-0.30004-0.69638-0.30004-0.65193 0-1.1224 0.47784-1.1224 1.2594z"/>
     <path d="m6.4926 154.66c0 0.59637 0.39264 0.94086 0.83344 0.94086 0.4408 0 0.83344-0.34449 0.83344-0.94086 0-0.60378-0.39264-0.94827-0.83344-0.94827-0.4408 0-0.83344 0.34449-0.83344 0.94827zm0.31485 0c0-0.41487 0.21114-0.69638 0.51858-0.69638 0.31115 0 0.51858 0.28151 0.51858 0.69638 0 0.41116-0.20743 0.68897-0.51858 0.68897-0.30745 0-0.51858-0.27781-0.51858-0.68897z"/>
     <path d="m8.7927 153.38c0.11853 0 0.21114-0.0815 0.21114-0.19633 0-0.11853-0.092604-0.19632-0.21114-0.19632-0.11853 0-0.21114 0.0778-0.21114 0.19632 0 0.11483 0.092604 0.19633 0.21114 0.19633zm-0.15558 2.1706h0.30374v-1.8002h-0.30374z"/>
     <path d="m9.5487 155.55h0.30374v-1.3039c0.1815-0.1815 0.30745-0.27781 0.49265-0.27781 0.23707 0 0.34078 0.14446 0.34078 0.48154v1.1001h0.30374v-1.1409c0-0.45931-0.17039-0.70379-0.54822-0.70379-0.24818 0-0.43339 0.13335-0.60378 0.30374h-0.011112l-0.025929-0.25929h-0.25188z"/>
     <path d="m11.704 155.86c0-0.10372 0.05556-0.21114 0.18521-0.30374 0.07779 0.0222 0.16298 0.0296 0.23336 0.0296h0.31115c0.23336 0 0.36301 0.0556 0.36301 0.22225 0 0.18891-0.22595 0.36671-0.57044 0.36671-0.32597 0-0.52229-0.12223-0.52229-0.31485zm-0.2667 0.0407c0 0.31115 0.30374 0.48525 0.74454 0.48525 0.55933 0 0.91122-0.28892 0.91122-0.6223 0-0.30004-0.21114-0.42968-0.62971-0.42968h-0.34819c-0.24448 0-0.31856-0.0815-0.31856-0.19632 0-0.10002 0.05186-0.15928 0.11483-0.21485 0.08149 0.0408 0.1815 0.063 0.2704 0.063 0.36671 0 0.65934-0.24078 0.65934-0.62601 0-0.15187-0.06297-0.28892-0.14817-0.37042h0.37042v-0.23336h-0.626c-0.06668-0.0259-0.15558-0.0445-0.25559-0.0445-0.36671 0-0.67786 0.24818-0.67786 0.64082 0 0.21484 0.11483 0.38894 0.23336 0.48525v0.0148c-0.0926 0.063-0.19632 0.1815-0.19632 0.33337 0 0.14076 0.07038 0.23707 0.15928 0.29263v0.0148c-0.16298 0.11112-0.263 0.25558-0.263 0.40745zm0.74454-1.1186c-0.20743 0-0.38153-0.16669-0.38153-0.42969 0-0.26299 0.17039-0.41857 0.38153-0.41857 0.21114 0 0.38153 0.15558 0.38153 0.41857 0 0.263-0.1741 0.42969-0.38153 0.42969z"/>
     <path d="m14.238 155c0 0.3556 0.12965 0.60008 0.51488 0.60008 0.11112 0 0.23336-0.0333 0.33338-0.0667l-0.05927-0.22966c-0.05927 0.0222-0.14076 0.0482-0.20373 0.0482-0.20743 0-0.27781-0.12594-0.27781-0.34819v-1.0001h0.48525v-0.24818h-0.48525v-0.50376h-0.25559l-0.03704 0.50376-0.28152 0.0185v0.22966h0.2667z"/>
     <path d="m15.268 154.66c0 0.59637 0.39264 0.94086 0.83344 0.94086 0.4408 0 0.83344-0.34449 0.83344-0.94086 0-0.60378-0.39264-0.94827-0.83344-0.94827-0.4408 0-0.83344 0.34449-0.83344 0.94827zm0.31485 0c0-0.41487 0.21114-0.69638 0.51858-0.69638 0.31115 0 0.51858 0.28151 0.51858 0.69638 0 0.41116-0.20743 0.68897-0.51858 0.68897-0.30745 0-0.51858-0.27781-0.51858-0.68897z"/>
     <path d="m18.132 154.89c0 0.45931 0.17039 0.70379 0.55192 0.70379 0.24818 0 0.42598-0.12965 0.59267-0.32597h0.01111l0.02593 0.28152h0.25188v-1.8002h-0.30374v1.2779c-0.17039 0.21114-0.30004 0.30374-0.48525 0.30374-0.23707 0-0.33708-0.14446-0.33708-0.48154v-1.1001h-0.30745z"/>
     <path d="m20.177 155.55h0.30374v-1.3039c0.1815-0.1815 0.30745-0.27781 0.49265-0.27781 0.23707 0 0.34078 0.14446 0.34078 0.48154v1.1001h0.30374v-1.1409c0-0.45931-0.17039-0.70379-0.54822-0.70379-0.24818 0-0.43339 0.13335-0.60378 0.30374h-0.01111l-0.02593-0.25929h-0.25188z"/>
     <path d="m22.202 155.19c0 0.26299 0.0926 0.40746 0.32226 0.40746 0.08149 0 0.13335-0.0111 0.1741-0.0296l-0.04075-0.22965c-0.03334 7e-3 -0.04815 7e-3 -0.06668 7e-3 -0.04445 0-0.0852-0.037-0.0852-0.13335v-2.2966h-0.30374z"/>
     <path d="m23.017 154.66c0 0.59637 0.39264 0.94086 0.83344 0.94086s0.83344-0.34449 0.83344-0.94086c0-0.60378-0.39264-0.94827-0.83344-0.94827s-0.83344 0.34449-0.83344 0.94827zm0.31486 0c0-0.41487 0.21114-0.69638 0.51858-0.69638 0.31115 0 0.51858 0.28151 0.51858 0.69638 0 0.41116-0.20743 0.68897-0.51858 0.68897-0.30745 0-0.51858-0.27781-0.51858-0.68897z"/>
     <path d="m25.022 155.09c0 0.32226 0.22595 0.51118 0.5297 0.51118 0.22225 0 0.42228-0.11854 0.59637-0.25929h0.0074l0.02593 0.21484h0.25188v-1.1038c0-0.44821-0.18521-0.74084-0.626-0.74084-0.28892 0-0.54081 0.12594-0.7075 0.23336l0.12224 0.21114c0.14076-0.0963 0.32597-0.19261 0.5371-0.19261 0.29263 0 0.37042 0.22225 0.37042 0.4519-0.76676 0.0852-1.1075 0.28152-1.1075 0.67416zm0.30004-0.0222c0-0.22966 0.20373-0.37783 0.80751-0.45191v0.50006c-0.1741 0.15558-0.31856 0.24077-0.49265 0.24077-0.1778 0-0.31485-0.0852-0.31485-0.28892z"/>
     <path d="m26.876 154.66c0 0.60007 0.29263 0.94086 0.74454 0.94086 0.21114 0 0.40376-0.11854 0.54451-0.25559h0.01111l0.02593 0.21114h0.25188v-2.6374h-0.30745v0.69268l0.01482 0.30745c-0.15928-0.12965-0.29633-0.20744-0.50377-0.20744-0.41116 0-0.78158 0.36301-0.78158 0.94827zm0.31485-4e-3c0-0.41116 0.22966-0.68897 0.51858-0.68897 0.14817 0 0.28522 0.0519 0.43709 0.18891v0.94086c-0.14817 0.16669-0.29263 0.24818-0.45932 0.24818-0.31485 0-0.49636-0.25929-0.49636-0.68898z"/>
    </g>
   </g>
  </g>
  <path d="m-0.26329 154.1h-18.157" fill="none" stroke="#47d58a" stroke-linecap="round" stroke-width=".26458"/>
  <g fill="#e8eaec" stroke-linecap="round" stroke-width=".26458" aria-label="[unloaded]">
   <path d="m-17.163 153.47h0.66305v-0.17409h-0.43339v-2.8337h0.43339v-0.1778h-0.66305z"/>
   <path d="m-16.112 152.25c0 0.45931 0.17039 0.70379 0.55192 0.70379 0.24818 0 0.42598-0.12965 0.59267-0.32597h0.01111l0.02593 0.28152h0.25188v-1.8002h-0.30374v1.2779c-0.17039 0.21114-0.30004 0.30374-0.48525 0.30374-0.23707 0-0.33708-0.14446-0.33708-0.48154v-1.1001h-0.30745z"/>
   <path d="m-14.068 152.91h0.30374v-1.3039c0.1815-0.1815 0.30745-0.27781 0.49265-0.27781 0.23707 0 0.34078 0.14446 0.34078 0.48154v1.1001h0.30374v-1.1409c0-0.45932-0.17039-0.7038-0.54822-0.7038-0.24818 0-0.43339 0.13335-0.60378 0.30375h-0.01111l-0.02593-0.2593h-0.25188z"/>
   <path d="m-12.042 152.54c0 0.263 0.0926 0.40746 0.32226 0.40746 0.08149 0 0.13335-0.0111 0.1741-0.0296l-0.04075-0.22966c-0.03334 7e-3 -0.04815 7e-3 -0.06668 7e-3 -0.04445 0-0.0852-0.037-0.0852-0.13335v-2.2966h-0.30374z"/>
   <path d="m-11.228 152.01c0 0.59637 0.39264 0.94086 0.83344 0.94086s0.83344-0.34449 0.83344-0.94086c0-0.60378-0.39264-0.94827-0.83344-0.94827s-0.83344 0.34449-0.83344 0.94827zm0.31485 0c0-0.41487 0.21114-0.69638 0.51858-0.69638 0.31115 0 0.51858 0.28151 0.51858 0.69638 0 0.41116-0.20743 0.68898-0.51858 0.68898-0.30745 0-0.51858-0.27782-0.51858-0.68898z"/>
   <path d="m-9.2227 152.44c0 0.32227 0.22595 0.51118 0.5297 0.51118 0.22225 0 0.42228-0.11853 0.59637-0.25929h0.00741l0.025929 0.21484h0.25188v-1.1038c0-0.44821-0.18521-0.74084-0.626-0.74084-0.28892 0-0.54081 0.12595-0.7075 0.23337l0.12224 0.21113c0.14076-0.0963 0.32597-0.19261 0.5371-0.19261 0.29263 0 0.37042 0.22225 0.37042 0.45191-0.76676 0.0852-1.1075 0.28151-1.1075 0.67415zm0.30004-0.0222c0-0.22966 0.20373-0.37783 0.80751-0.45191v0.50006c-0.1741 0.15558-0.31856 0.24077-0.49265 0.24077-0.1778 0-0.31485-0.0852-0.31485-0.28892z"/>
   <path d="m-7.368 152.01c0 0.60008 0.29263 0.94086 0.74454 0.94086 0.21114 0 0.40375-0.11853 0.54451-0.25559h0.011112l0.025929 0.21114h0.25188v-2.6374h-0.30745v0.69268l0.014817 0.30745c-0.15928-0.12965-0.29633-0.20744-0.50377-0.20744-0.41116 0-0.78158 0.36301-0.78158 0.94827zm0.31485-4e-3c0-0.41117 0.22966-0.68898 0.51858-0.68898 0.14817 0 0.28522 0.0519 0.43709 0.18891v0.94086c-0.14817 0.16669-0.29263 0.24818-0.45932 0.24818-0.31485 0-0.49636-0.25929-0.49636-0.68897z"/>
   <path d="m-5.317 152.01c0 0.58896 0.38153 0.94086 0.86307 0.94086 0.24448 0 0.43709-0.0852 0.59267-0.18521l-0.10742-0.20002c-0.13335 0.0852-0.27781 0.14075-0.4482 0.14075-0.34449 0-0.57785-0.24447-0.60008-0.63341h1.215c0.00741-0.0444 0.011112-0.10371 0.011112-0.16669 0-0.51487-0.25929-0.84455-0.71861-0.84455-0.41116 0-0.80751 0.35931-0.80751 0.94827zm0.29633-0.13705c0.037042-0.36301 0.2667-0.57044 0.51858-0.57044 0.28152 0 0.4445 0.20372 0.4445 0.57044z"/>
   <path d="m-3.4757 152.01c0 0.60008 0.29263 0.94086 0.74454 0.94086 0.21114 0 0.40375-0.11853 0.54451-0.25559h0.011112l0.025929 0.21114h0.25188v-2.6374h-0.30745v0.69268l0.014817 0.30745c-0.15928-0.12965-0.29633-0.20744-0.50377-0.20744-0.41116 0-0.78158 0.36301-0.78158 0.94827zm0.31485-4e-3c0-0.41117 0.22966-0.68898 0.51858-0.68898 0.14817 0 0.28522 0.0519 0.43709 0.18891v0.94086c-0.14817 0.16669-0.29263 0.24818-0.45932 0.24818-0.31485 0-0.49636-0.25929-0.49636-0.68897z"/>
   <path d="m-1.4803 153.3v0.17409h0.65934v-3.1856h-0.65934v0.1778h0.42968v2.8337z"/>
  </g>
  <g transform="matrix(-.0042365 0 0 -.0043091 -17.778 155.29)" fill="#47d58a" stroke-width="123.85">
   <g fill="#47d58a" stroke-width="123.85">
    <path d="m486.41 221.41-364.07-208.5c-52.938-30.318-95.852-5.44-95.852 55.563v415.65c0 61.004 42.914 85.882 95.852 55.563l364.07-208.49c52.938-30.317 52.938-79.473 0-109.79z" fill="#47d58a" stroke-width="123.85"/>
   </g>
  </g>
 </g>
</svg>
