<?xml version="1.0" encoding="UTF-8" standalone="no"?>
<svg
   xmlns:dc="http://purl.org/dc/elements/1.1/"
   xmlns:cc="http://creativecommons.org/ns#"
   xmlns:rdf="http://www.w3.org/1999/02/22-rdf-syntax-ns#"
   xmlns:svg="http://www.w3.org/2000/svg"
   xmlns="http://www.w3.org/2000/svg"
   xmlns:sodipodi="http://sodipodi.sourceforge.net/DTD/sodipodi-0.dtd"
   xmlns:inkscape="http://www.inkscape.org/namespaces/inkscape"
   width="129.16mm"
   height="66.377mm"
   version="1.1"
   viewBox="0 0 129.16 66.377"
   id="svg498"
   sodipodi:docname="games_evolution.svg"
   inkscape:version="0.92.3 (2405546, 2018-03-11)">
  <metadata
     id="metadata504">
    <rdf:RDF>
      <cc:Work
         rdf:about="">
        <dc:format>image/svg+xml</dc:format>
        <dc:type
           rdf:resource="http://purl.org/dc/dcmitype/StillImage" />
      </cc:Work>
    </rdf:RDF>
  </metadata>
  <defs
     id="defs502" />
  <sodipodi:namedview
     pagecolor="#ffffff"
     bordercolor="#666666"
     borderopacity="1"
     objecttolerance="10"
     gridtolerance="10"
     guidetolerance="10"
     inkscape:pageopacity="0"
     inkscape:pageshadow="2"
     inkscape:window-width="3840"
     inkscape:window-height="2097"
     id="namedview500"
     showgrid="false"
     inkscape:zoom="7.6712725"
     inkscape:cx="288.20337"
     inkscape:cy="69.618188"
     inkscape:window-x="-8"
     inkscape:window-y="-8"
     inkscape:window-maximized="1"
     inkscape:current-layer="g494" />
  <g
     transform="translate(116.91 -184.02)"
     id="g496">
    <g
       fill="#e8eaec"
       font-size="3.7042px"
       stroke="#cf2f25"
       stroke-linecap="round"
       stroke-width=".26458"
       text-align="center"
       aria-label="More Visible"
       id="g494">
      <rect
         x="-99.876"
         y="213.25"
         width="12.182"
         height="12.055"
         fill="#2e2e2e"
         stroke="none"
         id="rect2" />
      <path
         d="m-93.72 249.21c1.3e-5 -22.859 18.531-41.389 41.389-41.389 22.859-1e-5 41.389 18.531 41.389 41.389"
         fill="none"
         stroke="#e9e56f"
         stroke-linecap="round"
         stroke-width=".26458"
         id="path4" />
      <g
         fill-rule="evenodd"
         stroke-linecap="butt"
         id="g134">
        <path
           style="fill:#d54747;stroke:#6f8ce9;stroke-width:0.26458001;stroke-opacity:1"
           inkscape:connector-curvature="0"
           id="path6"
           d="m -12.97,238.68 -4.0308,1.08" />
        <path
           style="fill:#d54747;stroke:#6f8ce9;stroke-width:0.26458001;stroke-opacity:1"
           inkscape:connector-curvature="0"
           id="path8"
           d="m -17.037,228.85 -3.6139,2.0865" />
        <path
           style="fill:#d54747;stroke:#6f8ce9;stroke-width:0.26458001;stroke-opacity:1"
           inkscape:connector-curvature="0"
           id="path10"
           d="m -23.509,220.42 -2.9508,2.9508" />
        <path
           style="fill:#d54747;stroke:#6f8ce9;stroke-width:0.26458001;stroke-opacity:1"
           inkscape:connector-curvature="0"
           id="path12"
           d="m -31.944,213.94 -2.0865,3.6139" />
        <g
           fill="#f6c9a0"
           stroke="#e9e56f"
           stroke-width=".26458"
           id="g32">
          <path
             d="m-41.767 209.87-1.0801 4.0308"
             id="path16" />
          <path
             d="m-52.31 208.48v4.173"
             id="path18" />
          <path
             d="m-62.854 209.86 1.0801 4.0308"
             id="path20" />
          <path
             d="m-72.68 213.93 2.0866 3.6139"
             id="path22" />
          <path
             d="m-81.118 220.4 2.9508 2.9508"
             id="path24" />
          <path
             d="m-87.594 228.84 3.614 2.0865"
             id="path26" />
          <path
             d="m-91.666 238.66 4.0308 1.08"
             id="path28" />
          <path
             d="m-93.057 249.2 4.1731-4e-5"
             id="path30" />
        </g>
        <g
           stroke-width=".13229"
           id="g132">
          <g
             fill="#d54747"
             id="g68"
             style="fill:#6f8ce9;fill-opacity:1;stroke:#6f8ce9;stroke-opacity:1">
            <g
               stroke="#cf2f25"
               id="g62"
               style="fill:#6f8ce9;fill-opacity:1;stroke:#6f8ce9;stroke-opacity:1">
              <path
                 d="m-12.084 242.82-3.1395 0.49733"
                 id="path34"
                 style="fill:#6f8ce9;fill-opacity:1;stroke:#6f8ce9;stroke-opacity:1" />
              <path
                 d="m-12.473 240.72-3.1091 0.66112"
                 id="path36"
                 style="fill:#6f8ce9;fill-opacity:1;stroke:#6f8ce9;stroke-opacity:1" />
              <path
                 d="m-13.578 236.6-3.023 0.98236"
                 id="path38"
                 style="fill:#6f8ce9;fill-opacity:1;stroke:#6f8ce9;stroke-opacity:1" />
              <path
                 d="m-14.29 234.59-2.9673 1.1394"
                 id="path40"
                 style="fill:#6f8ce9;fill-opacity:1;stroke:#6f8ce9;stroke-opacity:1" />
              <path
                 d="m-15.107 232.62-2.9038 1.293"
                 id="path42"
                 style="fill:#6f8ce9;fill-opacity:1;stroke:#6f8ce9;stroke-opacity:1" />
              <path
                 d="m-16.025 230.69-2.832 1.4433"
                 id="path44"
                 style="fill:#6f8ce9;fill-opacity:1;stroke:#6f8ce9;stroke-opacity:1" />
              <path
                 d="m-18.158 227-2.6657 1.7313"
                 id="path46"
                 style="fill:#6f8ce9;fill-opacity:1;stroke:#6f8ce9;stroke-opacity:1" />
              <path
                 d="m-19.367 225.24-2.5713 1.8686"
                 id="path48"
                 style="fill:#6f8ce9;fill-opacity:1;stroke:#6f8ce9;stroke-opacity:1" />
              <path
                 d="m-20.666 223.55-2.4703 2.0005"
                 id="path50"
                 style="fill:#6f8ce9;fill-opacity:1;stroke:#6f8ce9;stroke-opacity:1" />
              <path
                 d="m-22.052 221.93-2.362 2.1271"
                 id="path52"
                 style="fill:#6f8ce9;fill-opacity:1;stroke:#6f8ce9;stroke-opacity:1" />
              <path
                 d="m-25.068 218.91-2.1268 2.3622"
                 id="path54"
                 style="fill:#6f8ce9;fill-opacity:1;stroke:#6f8ce9;stroke-opacity:1" />
              <path
                 d="m-26.69 217.52-2.0001 2.4704"
                 id="path56"
                 style="fill:#6f8ce9;fill-opacity:1;stroke:#6f8ce9;stroke-opacity:1" />
              <path
                 d="m-28.383 216.23-1.8683 2.5717"
                 id="path58"
                 style="fill:#6f8ce9;fill-opacity:1;stroke:#6f8ce9;stroke-opacity:1" />
              <path
                 d="m-30.142 215.02-1.731 2.6659"
                 id="path60"
                 style="fill:#6f8ce9;fill-opacity:1;stroke:#6f8ce9;stroke-opacity:1" />
            </g>
            <path
               d="m-33.836 212.89-1.4429 2.8322"
               stroke="#d54747"
               id="path64"
               style="fill:#6f8ce9;fill-opacity:1;stroke:#6f8ce9;stroke-opacity:1" />
            <path
               d="m-35.762 211.97-1.2925 2.9039"
               stroke="#cf2f25"
               id="path66"
               style="fill:#6f8ce9;fill-opacity:1;stroke:#6f8ce9;stroke-opacity:1" />
          </g>
          <path
             d="m-37.733 211.15-1.139 2.9676"
             fill="#a72626"
             stroke="#cf2f25"
             id="path70"
             style="stroke:#6f8ce9;stroke-opacity:1" />
          <path
             d="m-39.744 210.44-0.98198 3.0231"
             fill="#d54747"
             stroke="#cf2f25"
             id="path72"
             style="stroke:#6f8ce9;stroke-opacity:1" />
          <g
             fill="#f6c9a0"
             stroke="#e9e56f"
             id="g130">
            <path
               d="m-43.864 209.33-0.66071 3.1091"
               id="path74" />
            <path
               d="m-45.962 208.95-0.49692 3.1395"
               id="path76" />
            <path
               d="m-48.078 208.67-0.33217 3.1613"
               id="path78" />
            <path
               d="m-50.205 208.5-0.16608 3.1743"
               id="path80" />
            <path
               d="m-54.47 208.5 0.1665 3.1742"
               id="path82" />
            <path
               d="m-56.597 208.67 0.33258 3.1611"
               id="path84" />
            <path
               d="m-58.712 208.95 0.49734 3.1395"
               id="path86" />
            <path
               d="m-60.81 209.34 0.66113 3.1091"
               id="path88" />
            <path
               d="m-64.93 210.44 0.98236 3.0229"
               id="path90" />
            <path
               d="m-66.941 211.15 1.1394 2.9673"
               id="path92" />
            <path
               d="m-68.912 211.97 1.293 2.9038"
               id="path94" />
            <path
               d="m-70.838 212.89 1.4433 2.832"
               id="path96" />
            <path
               d="m-74.532 215.02 1.7313 2.6657"
               id="path98" />
            <path
               d="m-76.29 216.23 1.8686 2.5713"
               id="path100" />
            <path
               d="m-77.983 217.53 2.0005 2.4703"
               id="path102" />
            <path
               d="m-79.605 218.91 2.1271 2.362"
               id="path104" />
            <path
               d="m-82.621 221.93 2.3622 2.1268"
               id="path106" />
            <path
               d="m-84.006 223.55 2.4704 2"
               id="path108" />
            <path
               d="m-85.305 225.25 2.5717 1.8683"
               id="path110" />
            <path
               d="m-86.513 227 2.6659 1.731"
               id="path112" />
            <path
               d="m-88.646 230.7 2.8321 1.4429"
               id="path114" />
            <path
               d="m-89.564 232.62 2.9039 1.2925"
               id="path116" />
            <path
               d="m-90.381 234.6 2.9676 1.139"
               id="path118" />
            <path
               d="m-91.093 236.61 3.0231 0.98198"
               id="path120" />
            <path
               d="m-92.196 240.73 3.1091 0.66074"
               id="path122" />
            <path
               d="m-92.585 242.83 3.1395 0.49687"
               id="path124" />
            <path
               d="m-92.863 244.94 3.1612 0.33217"
               id="path126" />
            <path
               d="m-93.031 247.07 3.1742 0.16608"
               id="path128" />
          </g>
        </g>
      </g>
      <g
         stroke="none"
         id="g214">
        <g
           transform="translate(3.7042)"
           fill="#e9e56f"
           font-size="9.1046px"
           font-weight="500"
           letter-spacing="0px"
           stroke-linecap="butt"
           stroke-width=".28222px"
           word-spacing="0px"
           id="g176">
          <g
             aria-label="1960"
             id="g144">
            <path
               d="m-91.183 249.67h1.4513v-0.27414h-0.53214v-2.2979h-0.25398c-0.1411 0.0847-0.31042 0.14916-0.54424 0.18948v0.21366h0.46764v1.8948h-0.58858z"
               id="path136" />
            <path
               d="m-88.554 248.42c-0.31848 0-0.47571-0.20963-0.47571-0.54424 0-0.33863 0.19754-0.56439 0.44749-0.56439 0.32654 0 0.52408 0.26607 0.56843 0.76596-0.17335 0.24592-0.37492 0.34267-0.54021 0.34267zm-0.74178 1.028c0.1411 0.15319 0.3467 0.2701 0.62084 0.2701 0.51199 0 0.97963-0.39911 0.97963-1.4311 0-0.82644-0.37895-1.2376-0.88691-1.2376-0.4112 0-0.7579 0.3346-0.7579 0.82643 0 0.52812 0.28623 0.79419 0.72968 0.79419 0.21366 0 0.44345-0.12497 0.60471-0.33058-0.01209 0.82241-0.31848 1.1046-0.68131 1.1046-0.16126 0-0.31848-0.0806-0.4233-0.2056z"
               id="path138" />
            <path
               d="m-86.421 249.46c-0.32654 0-0.52408-0.2701-0.5644-0.77 0.17335-0.24188 0.37492-0.33863 0.53618-0.33863 0.31848 0 0.47571 0.20963 0.47571 0.54424 0 0.33863-0.19351 0.56439-0.44749 0.56439zm0.71356-2.1326c-0.14513-0.15722-0.34267-0.27413-0.62084-0.27413-0.51199 0-0.97963 0.3991-0.97963 1.4311 0 0.82644 0.38298 1.2376 0.88691 1.2376 0.41524 0 0.76194-0.3346 0.76194-0.82643 0-0.52812-0.29026-0.79419-0.73372-0.79419-0.20963 0-0.43942 0.12497-0.60068 0.32251 0.01613-0.81434 0.31848-1.0925 0.67728-1.0925 0.16126 0 0.31848 0.0766 0.4233 0.20157z"
               id="path140" />
            <path
               d="m-84.498 249.72c0.51199 0 0.82241-0.47973 0.82241-1.3424s-0.31042-1.3263-0.82241-1.3263c-0.51602 0-0.82644 0.46361-0.82644 1.3263s0.31042 1.3424 0.82644 1.3424zm0-0.26607c-0.30236 0-0.50392-0.32251-0.50392-1.0764s0.20157-1.0603 0.50392-1.0603c0.29832 0 0.49989 0.30639 0.49989 1.0603s-0.20157 1.0764-0.49989 1.0764z"
               id="path142" />
          </g>
          <g
             aria-label="1970"
             id="g154">
            <path
               d="m-86.728 232.47h1.4513v-0.27413h-0.53214v-2.2979h-0.25398c-0.1411 0.0847-0.31042 0.14916-0.54424 0.18947v0.21367h0.46764v1.8948h-0.58858z"
               id="path146" />
            <path
               d="m-84.099 231.22c-0.31848 0-0.4757-0.20964-0.4757-0.54424 0-0.33864 0.19754-0.5644 0.44749-0.5644 0.32654 0 0.52408 0.26607 0.56843 0.76597-0.17335 0.24591-0.37492 0.34267-0.54021 0.34267zm-0.74178 1.028c0.1411 0.1532 0.3467 0.27011 0.62084 0.27011 0.51199 0 0.97963-0.39911 0.97963-1.4312 0-0.82644-0.37895-1.2376-0.88691-1.2376-0.4112 0-0.7579 0.33461-0.7579 0.82644 0 0.52811 0.28623 0.79418 0.72968 0.79418 0.21366 0 0.44345-0.12497 0.60471-0.33057-0.01209 0.8224-0.31848 1.1046-0.68131 1.1046-0.16126 0-0.31848-0.0806-0.4233-0.2056z"
               id="path148" />
            <path
               d="m-82.333 232.47h0.34267c0.04434-1.0038 0.16932-1.5884 0.77806-2.3664v-0.2056h-1.6569v0.28623h1.282c-0.50796 0.70549-0.70146 1.3183-0.74581 2.2858z"
               id="path150" />
            <path
               d="m-80.043 232.52c0.51199 0 0.82241-0.47974 0.82241-1.3425s-0.31042-1.3263-0.82241-1.3263c-0.51602 0-0.82644 0.46361-0.82644 1.3263s0.31042 1.3425 0.82644 1.3425zm0-0.26608c-0.30236 0-0.50392-0.32251-0.50392-1.0764s0.20157-1.0603 0.50392-1.0603c0.29832 0 0.49989 0.30639 0.49989 1.0603s-0.20157 1.0764-0.49989 1.0764z"
               id="path152" />
          </g>
          <g
             aria-label="1980"
             id="g164">
            <path
               d="m-74.492 220.64h1.4513v-0.27414h-0.53214v-2.2979h-0.25398c-0.1411 0.0847-0.31042 0.14916-0.54424 0.18947v0.21367h0.46764v1.8948h-0.58858z"
               id="path156" />
            <path
               d="m-71.863 219.39c-0.31848 0-0.4757-0.20964-0.4757-0.54424 0-0.33864 0.19754-0.5644 0.44748-0.5644 0.32654 0 0.52408 0.26607 0.56843 0.76597-0.17335 0.24591-0.37492 0.34267-0.54021 0.34267zm-0.74178 1.028c0.1411 0.1532 0.3467 0.27011 0.62084 0.27011 0.51199 0 0.97963-0.39911 0.97963-1.4312 0-0.82644-0.37895-1.2376-0.88691-1.2376-0.4112 0-0.7579 0.33461-0.7579 0.82644 0 0.52811 0.28623 0.79418 0.72968 0.79418 0.21366 0 0.44345-0.12497 0.60471-0.33057-0.0121 0.8224-0.31848 1.1046-0.68131 1.1046-0.16126 0-0.31848-0.0806-0.4233-0.2056z"
               id="path158" />
            <path
               d="m-70.346 219.95c0-0.23382 0.15319-0.4233 0.35879-0.56036 0.37089 0.14916 0.69743 0.2701 0.69743 0.60067 0 0.26608-0.2056 0.45152-0.50392 0.45152-0.31445 0-0.5523-0.2056-0.5523-0.49183zm0.72565-0.71356c-0.31042-0.12094-0.59262-0.24994-0.59262-0.55633 0-0.24995 0.17738-0.41524 0.41523-0.41524 0.2822 0 0.44748 0.20157 0.44748 0.45555 0 0.18948-0.09675 0.36283-0.2701 0.51602zm-1.024 0.74581c0 0.40717 0.3588 0.7055 0.84256 0.7055 0.49989 0 0.83047-0.30236 0.83047-0.68534 0-0.3467-0.2177-0.52812-0.44748-0.66115v-0.0161c0.15722-0.12094 0.35476-0.35073 0.35476-0.62083 0-0.39911-0.27817-0.68534-0.72565-0.68534-0.41523 0-0.72968 0.26607-0.72968 0.66115 0 0.2701 0.16932 0.45958 0.3588 0.59261v0.0161c-0.24188 0.129-0.48377 0.35879-0.48377 0.6934z"
               id="path160" />
            <path
               d="m-67.806 220.69c0.51199 0 0.8224-0.47974 0.8224-1.3425s-0.31042-1.3263-0.8224-1.3263c-0.51602 0-0.82644 0.46361-0.82644 1.3263s0.31042 1.3425 0.82644 1.3425zm0-0.26608c-0.30236 0-0.50392-0.32251-0.50392-1.0764s0.20157-1.0603 0.50392-1.0603c0.29832 0 0.49989 0.30639 0.49989 1.0603s-0.20157 1.0764-0.49989 1.0764z"
               id="path162" />
          </g>
          <g
             aria-label="1990"
             id="g174">
            <path
               d="m-60.076 216.85h1.4513v-0.27414h-0.53214v-2.2979h-0.25398c-0.1411 0.0847-0.31042 0.14916-0.54424 0.18948v0.21366h0.46764v1.8948h-0.58858z"
               id="path166" />
            <path
               d="m-57.447 215.6c-0.31848 0-0.4757-0.20963-0.4757-0.54424 0-0.33864 0.19754-0.56439 0.44748-0.56439 0.32654 0 0.52408 0.26607 0.56843 0.76596-0.17335 0.24592-0.37492 0.34267-0.54021 0.34267zm-0.74178 1.028c0.1411 0.15319 0.3467 0.2701 0.62084 0.2701 0.51199 0 0.97963-0.39911 0.97963-1.4311 0-0.82644-0.37895-1.2376-0.88691-1.2376-0.4112 0-0.7579 0.3346-0.7579 0.82643 0 0.52812 0.28623 0.79419 0.72968 0.79419 0.21366 0 0.44345-0.12498 0.60471-0.33058-0.0121 0.82241-0.31848 1.1046-0.68131 1.1046-0.16126 0-0.31848-0.0806-0.4233-0.2056z"
               id="path168" />
            <path
               d="m-55.447 215.6c-0.31848 0-0.47571-0.20963-0.47571-0.54424 0-0.33864 0.19754-0.56439 0.44749-0.56439 0.32654 0 0.52408 0.26607 0.56843 0.76596-0.17335 0.24592-0.37492 0.34267-0.54021 0.34267zm-0.74178 1.028c0.1411 0.15319 0.3467 0.2701 0.62084 0.2701 0.51199 0 0.97963-0.39911 0.97963-1.4311 0-0.82644-0.37895-1.2376-0.88691-1.2376-0.4112 0-0.7579 0.3346-0.7579 0.82643 0 0.52812 0.28623 0.79419 0.72968 0.79419 0.21366 0 0.44345-0.12498 0.60471-0.33058-0.01209 0.82241-0.31848 1.1046-0.68131 1.1046-0.16126 0-0.31848-0.0806-0.4233-0.2056z"
               id="path170" />
            <path
               d="m-53.391 216.9c0.51199 0 0.8224-0.47973 0.8224-1.3424s-0.31042-1.3263-0.8224-1.3263c-0.51602 0-0.82644 0.46361-0.82644 1.3263s0.31042 1.3424 0.82644 1.3424zm0-0.26607c-0.30236 0-0.50392-0.32251-0.50392-1.0764 0-0.75388 0.20157-1.0603 0.50392-1.0603 0.29832 0 0.49989 0.30638 0.49989 1.0603 0 0.75387-0.20157 1.0764-0.49989 1.0764z"
               id="path172" />
          </g>
        </g>
        <g
           fill="#cf2f25"
           font-size="9.1046px"
           font-weight="500"
           letter-spacing="0px"
           stroke-linecap="butt"
           stroke-width=".28222px"
           word-spacing="0px"
           id="g208"
           style="fill:#6f8ce9;fill-opacity:1">
          <g
             transform="translate(4.7625)"
             aria-label="2020"
             id="g186"
             style="fill:#6f8ce9;fill-opacity:1">
            <path
               d="m-28.342 249.67h1.6609v-0.28623h-0.74581c-0.13304 0-0.29026 0.0121-0.43136 0.0242 0.60874-0.63696 1.0482-1.1167 1.0482-1.6005 0-0.45555-0.29429-0.75791-0.77-0.75791-0.33461 0-0.5644 0.15723-0.77806 0.39105l0.18948 0.18947c0.14916-0.17335 0.33461-0.31041 0.54827-0.31041 0.32654 0 0.4878 0.20963 0.4878 0.50392 0 0.41524-0.43539 0.87885-1.2094 1.6488z"
               id="path178"
               style="fill:#6f8ce9;fill-opacity:1" />
            <path
               d="m-25.5 249.72c0.51199 0 0.8224-0.47974 0.8224-1.3425s-0.31042-1.3263-0.8224-1.3263c-0.51602 0-0.82644 0.46361-0.82644 1.3263s0.31042 1.3425 0.82644 1.3425zm0-0.26607c-0.30236 0-0.50392-0.32251-0.50392-1.0764 0-0.75387 0.20157-1.0602 0.50392-1.0602 0.29832 0 0.49989 0.30638 0.49989 1.0602 0 0.75388-0.20157 1.0764-0.49989 1.0764z"
               id="path180"
               style="fill:#6f8ce9;fill-opacity:1" />
            <path
               d="m-24.342 249.67h1.6609v-0.28623h-0.74581c-0.13304 0-0.29026 0.0121-0.43136 0.0242 0.60874-0.63696 1.0482-1.1167 1.0482-1.6005 0-0.45555-0.29429-0.75791-0.77-0.75791-0.33461 0-0.5644 0.15723-0.77806 0.39105l0.18948 0.18947c0.14916-0.17335 0.33461-0.31041 0.54827-0.31041 0.32654 0 0.4878 0.20963 0.4878 0.50392 0 0.41524-0.43539 0.87885-1.2094 1.6488z"
               id="path182"
               style="fill:#6f8ce9;fill-opacity:1" />
            <path
               d="m-21.5 249.72c0.51199 0 0.8224-0.47974 0.8224-1.3425s-0.31042-1.3263-0.8224-1.3263c-0.51602 0-0.82644 0.46361-0.82644 1.3263s0.31042 1.3425 0.82644 1.3425zm0-0.26607c-0.30236 0-0.50392-0.32251-0.50392-1.0764 0-0.75387 0.20157-1.0602 0.50392-1.0602 0.29832 0 0.49989 0.30638 0.49989 1.0602 0 0.75388-0.20157 1.0764-0.49989 1.0764z"
               id="path184"
               style="fill:#6f8ce9;fill-opacity:1" />
          </g>
          <g
             transform="translate(4.7625)"
             aria-label="2010"
             id="g196"
             style="fill:#6f8ce9;fill-opacity:1">
            <path
               d="m-34.437 232.47h1.6609v-0.28623h-0.74581c-0.13304 0-0.29026 0.0121-0.43136 0.0242 0.60874-0.63696 1.0482-1.1167 1.0482-1.6005 0-0.45554-0.29429-0.7579-0.77-0.7579-0.33461 0-0.5644 0.15723-0.77806 0.39105l0.18948 0.18947c0.14916-0.17335 0.33461-0.31042 0.54827-0.31042 0.32654 0 0.4878 0.20964 0.4878 0.50393 0 0.41523-0.43539 0.87884-1.2094 1.6488z"
               id="path188"
               style="fill:#6f8ce9;fill-opacity:1" />
            <path
               d="m-31.594 232.52c0.51199 0 0.82241-0.47974 0.82241-1.3425s-0.31042-1.3263-0.82241-1.3263c-0.51602 0-0.82644 0.46361-0.82644 1.3263s0.31042 1.3425 0.82644 1.3425zm0-0.26608c-0.30236 0-0.50392-0.32251-0.50392-1.0764s0.20157-1.0603 0.50392-1.0603c0.29832 0 0.49989 0.30639 0.49989 1.0603s-0.20157 1.0764-0.49989 1.0764z"
               id="path190"
               style="fill:#6f8ce9;fill-opacity:1" />
            <path
               d="m-30.28 232.47h1.4513v-0.27413h-0.53214v-2.2979h-0.25398c-0.1411 0.0847-0.31042 0.14916-0.54424 0.18947v0.21367h0.46764v1.8948h-0.58858z"
               id="path192"
               style="fill:#6f8ce9;fill-opacity:1" />
            <path
               d="m-27.594 232.52c0.51199 0 0.82241-0.47974 0.82241-1.3425s-0.31042-1.3263-0.82241-1.3263c-0.51602 0-0.82644 0.46361-0.82644 1.3263s0.31042 1.3425 0.82644 1.3425zm0-0.26608c-0.30236 0-0.50392-0.32251-0.50392-1.0764s0.20157-1.0603 0.50392-1.0603c0.29832 0 0.49989 0.30639 0.49989 1.0603s-0.20157 1.0764-0.49989 1.0764z"
               id="path194"
               style="fill:#6f8ce9;fill-opacity:1" />
          </g>
          <g
             transform="translate(4.7625)"
             aria-label="2000"
             id="g206"
             style="fill:#6f8ce9;fill-opacity:1">
            <path
               d="m-46.673 220.64h1.6609v-0.28623h-0.74581c-0.13304 0-0.29026 0.0121-0.43136 0.0242 0.60874-0.63696 1.0482-1.1167 1.0482-1.6005 0-0.45555-0.29429-0.7579-0.77-0.7579-0.33461 0-0.5644 0.15722-0.77806 0.39104l0.18948 0.18948c0.14916-0.17335 0.33461-0.31042 0.54827-0.31042 0.32654 0 0.4878 0.20964 0.4878 0.50393 0 0.41523-0.43539 0.87884-1.2094 1.6488z"
               id="path198"
               style="fill:#6f8ce9;fill-opacity:1" />
            <path
               d="m-43.83 220.69c0.51199 0 0.8224-0.47974 0.8224-1.3425s-0.31042-1.3263-0.8224-1.3263c-0.51602 0-0.82644 0.46361-0.82644 1.3263s0.31042 1.3425 0.82644 1.3425zm0-0.26608c-0.30236 0-0.50392-0.32251-0.50392-1.0764s0.20157-1.0603 0.50392-1.0603c0.29832 0 0.49989 0.30639 0.49989 1.0603s-0.20157 1.0764-0.49989 1.0764z"
               id="path200"
               style="fill:#6f8ce9;fill-opacity:1" />
            <path
               d="m-41.831 220.69c0.51199 0 0.82241-0.47974 0.82241-1.3425s-0.31042-1.3263-0.82241-1.3263c-0.51602 0-0.82644 0.46361-0.82644 1.3263s0.31042 1.3425 0.82644 1.3425zm0-0.26608c-0.30236 0-0.50392-0.32251-0.50392-1.0764s0.20157-1.0603 0.50392-1.0603c0.29832 0 0.49989 0.30639 0.49989 1.0603s-0.20157 1.0764-0.49989 1.0764z"
               id="path202"
               style="fill:#6f8ce9;fill-opacity:1" />
            <path
               d="m-39.831 220.69c0.51199 0 0.8224-0.47974 0.8224-1.3425s-0.31042-1.3263-0.8224-1.3263c-0.51602 0-0.82644 0.46361-0.82644 1.3263s0.31042 1.3425 0.82644 1.3425zm0-0.26608c-0.30236 0-0.50392-0.32251-0.50392-1.0764s0.20157-1.0603 0.50392-1.0603c0.29832 0 0.49989 0.30639 0.49989 1.0603s-0.20157 1.0764-0.49989 1.0764z"
               id="path204"
               style="fill:#6f8ce9;fill-opacity:1" />
          </g>
        </g>
        <rect
           x="-106.74"
           y="224.63"
           width="12.338"
           height="12.055"
           fill="#2e2e2e"
           id="rect210" />
        <rect
           x="-107.45"
           y="237.43"
           width="12.338"
           height="12.055"
           fill="#2e2e2e"
           id="rect212" />
      </g>
      <path
         d="m-46.527 229.23c11.112 4.7625 13.758 12.7 14.552 20.373"
         fill="none"
         stroke="#cf2f25"
         stroke-linecap="round"
         stroke-width=".26458"
         id="path216"
         style="stroke:#6f8ce9;stroke-opacity:1" />
      <path
         d="m-112.53 248.76c2e-5 -33.249 26.954-60.202 60.202-60.202 33.249-1e-5 60.202 26.954 60.202 60.202"
         fill="none"
         stroke="#e9e56f"
         stroke-linecap="round"
         stroke-width=".26458"
         id="path218" />
      <g
         transform="matrix(.77468 0 0 .77468 -149.23 57.571)"
         fill="#e9e56f"
         stroke="none"
         stroke-linecap="butt"
         stroke-width=".37344px"
         aria-label="SpaceWar!          Pong          Space Invaders         Pac-Man       Super Mario Bros.  Prince of Persia   Doom       Half-Life      World of Warcraft    Dragon Age         GTA 5         Doom Eternal"
         id="g446">
        <path
           d="m45.358 246.62c0.20376-0.19249 0.33665-0.46438 0.34016-0.77871 0.0053-0.4715-0.27503-0.7685-0.63037-0.77248-0.33142-4e-3 -0.48742 0.19617-0.60307 0.45458l-0.14026 0.31964c-0.07711 0.17341-0.16133 0.37066-0.37658 0.36825-0.20158-2e-3 -0.32613-0.17108-0.32331-0.42391 0.0023-0.205 0.08616-0.3715 0.21752-0.50672l-0.18282-0.1524c-0.16576 0.15534-0.28114 0.38983-0.28412 0.65633-0.0045 0.40658 0.24493 0.71008 0.5866 0.71389 0.328 4e-3 0.49133-0.24054 0.5825-0.44796l0.14367-0.3196c0.09803-0.21077 0.17162-0.37397 0.40053-0.37141 0.21867 2e-3 0.36364 0.17833 0.36035 0.47217-0.0026 0.23575-0.11786 0.45657-0.28708 0.61529z"
           id="path220" />
        <path
           d="m45.536 244.39c0.12472-0.14963 0.20164-0.30088 0.20684-0.45455 0.01283-0.37905-0.30698-0.72834-0.87044-0.74742-0.51565-0.0174-0.85465 0.20014-0.8691 0.627-0.0066 0.19466 0.09303 0.38265 0.2143 0.53718l-3.47e-4 0.0102-0.19204 0.0174-0.0079 0.23221 2.3597 0.0799 0.0095-0.28002-0.56005-0.019zm-0.21832-0.0142-0.87081-0.0295c-0.14129-0.16888-0.2151-0.31155-0.21036-0.45157 0.01063-0.31417 0.26067-0.42879 0.62607-0.41642 0.40979 0.0139 0.65226 0.22379 0.64302 0.49699-0.0037 0.10927-0.05648 0.2545-0.18792 0.40048z"
           id="path222" />
        <path
           d="m45.311 242.88c0.2968 0.0167 0.4825-0.1816 0.49824-0.46135 0.01152-0.20468-0.08728-0.39505-0.20789-0.56268l3.84e-4 -7e-3 0.19921-0.0127 0.01306-0.23198-1.0166-0.0572c-0.41279-0.0232-0.6919 0.13218-0.71474 0.53814-0.01498 0.2661 0.08796 0.50461 0.17825 0.6637l0.20079-0.10164c-0.0814-0.13463-0.1605-0.3102-0.14956-0.50465 0.01517-0.26951 0.22389-0.32963 0.4354-0.31773 0.03872 0.7106 0.20187 1.0346 0.56348 1.055zm-0.0049-0.27748c-0.21151-0.0119-0.33741-0.20722-0.37435-0.76713l0.46055 0.0259c0.13426 0.1684 0.20524 0.30587 0.19621 0.46621-0.0092 0.16375-0.09478 0.28556-0.28242 0.275z"
           id="path224" />
        <path
           d="m45.017 241.14c0.54852 0.042 0.89118-0.27105 0.92482-0.71054 0.01512-0.1976-0.05204-0.39465-0.17344-0.55472l-0.19362 0.11197c0.08102 0.10558 0.14921 0.24445 0.13721 0.40117-0.02321 0.30322-0.29464 0.49148-0.6728 0.46253-0.38158-0.0292-0.62381-0.26706-0.60086-0.56687 0.01017-0.13287 0.07932-0.23039 0.17205-0.32267l-0.16988-0.1535c-0.11422 0.10434-0.21794 0.25061-0.23463 0.46866-0.0326 0.42586 0.25582 0.82147 0.81115 0.86397z"
           id="path226" />
        <path
           d="m45.134 239.64c0.54078 0.0521 0.89765-0.26705 0.94027-0.7092 0.02163-0.22447-0.03955-0.40887-0.11761-0.56057l-0.19317 0.0809c0.06643 0.12998 0.10466 0.26754 0.08958 0.424-0.03049 0.3163-0.27561 0.50894-0.6347 0.49492l0.10752-1.1156c-0.04016-0.0107-0.09425-0.0194-0.15207-0.025-0.47276-0.0456-0.7984 0.16334-0.83905 0.58508-0.03639 0.37752 0.25845 0.77324 0.79923 0.82536zm-0.09962-0.28422c-0.33003-0.0661-0.50017-0.29536-0.47788-0.52664 0.02491-0.25848 0.2264-0.3901 0.56311-0.35765z"
           id="path228" />
        <path
           d="m46.162 237.69 0.04149-0.33572-1.2984-0.49788c-0.16834-0.0587-0.3231-0.11568-0.49144-0.17435l0.0017-0.0136c0.17672-9e-3 0.34071-0.0267 0.51826-0.0427l1.381-0.17017 0.04233-0.3425-2.1676-0.73613-0.03395 0.27468 1.1817 0.38361c0.23235 0.07 0.46808 0.14048 0.7034 0.21433l-0.0017 0.0136c-0.24747 0.0245-0.49834 0.0486-0.73861 0.0705l-1.2488 0.15896-0.03185 0.25772 1.1725 0.45822c0.23067 0.0836 0.46473 0.16761 0.69963 0.24484l-0.0017 0.0136c-0.24622 0.0143-0.48904 0.0291-0.73526 0.0434l-1.2395 0.0844-0.03604 0.29164z"
           id="path230" />
        <path
           d="m46.026 235.37c0.29391 0.0446 0.49745-0.13538 0.53945-0.4124 0.03073-0.2027-0.04971-0.40151-0.15401-0.57976l1e-3 -7e-3 0.19953 6e-3 0.03483-0.22973-1.0067-0.15264c-0.40877-0.062-0.70127 0.0665-0.76222 0.46848-0.03996 0.2635 0.04007 0.51064 0.11499 0.67752l0.20947-0.0823c-0.06837-0.14169-0.13059-0.32392-0.1014-0.51648 0.04047-0.26689 0.25392-0.3071 0.46337-0.27534-0.02833 0.71109 0.10359 1.049 0.46169 1.1033zm0.02122-0.27671c-0.20945-0.0318-0.31641-0.23805-0.30048-0.79896l0.45607 0.0692c0.11781 0.18029 0.17554 0.32382 0.15146 0.4826-0.02459 0.16216-0.12124 0.27537-0.30704 0.2472z"
           id="path232" />
        <path
           d="m46.734 233.62 0.04714-0.27619-1.0509-0.17934c-0.25722-0.15829-0.3301-0.34057-0.30654-0.47867 0.0115-0.0674 0.02792-0.10269 0.05396-0.15371l-0.23331-0.0953c-0.03278 0.0499-0.0515 0.0987-0.06357 0.16939-0.03161 0.18525 0.071 0.37608 0.2575 0.5223l-0.0017 0.0101-0.30042-0.027-0.03909 0.22904z"
           id="path234" />
        <path
           d="m46.294 232.22 0.0354-0.19151-1.2632-0.27174-0.31459-0.0651-0.05155 0.27887 0.31708 0.0517zm0.47802 0.19609c0.12096 0.0224 0.22509-0.0522 0.24558-0.16309 0.01988-0.10752-0.05071-0.21439-0.17167-0.23675-0.12768-0.0236-0.23181 0.051-0.25168 0.15849-0.0205 0.11088 0.05009 0.21774 0.17777 0.24135z"
           id="path236" />
        <path
           d="m48.731 224.79 0.08156-0.27519-0.85177-0.25243 0.11457-0.38657c0.13884-0.46848 0.02202-0.85591-0.43008-0.9899-0.47175-0.13981-0.72645 0.13039-0.86723 0.60542l-0.19612 0.66176zm-0.99299-0.59364-0.85505-0.25341 0.10389-0.35053c0.10971-0.3702 0.26661-0.52683 0.57784-0.4346 0.30467 0.0903 0.38887 0.31126 0.27721 0.688z"
           id="path238" />
        <path
           d="m48.439 222.88c0.5236 0.16875 0.93715-0.0785 1.0619-0.46551 0.12473-0.38701-0.06663-0.82922-0.59022-0.99796-0.5301-0.17084-0.94365 0.0764-1.0684 0.46342-0.12473 0.38701 0.06663 0.82921 0.59673 1zm0.08909-0.27643c-0.36424-0.11739-0.55166-0.38242-0.46467-0.65235 0.08804-0.27318 0.3939-0.37565 0.75814-0.25826 0.36099 0.11634 0.54621 0.37707 0.45817 0.65025-0.08699 0.26993-0.39065 0.3767-0.75164 0.26036z"
           id="path240" />
        <path
           d="m49.839 221.25 0.09223-0.26457-1.1357-0.39591c-0.10299-0.2132-0.14863-0.35215-0.0924-0.51347 0.07198-0.20649 0.22931-0.25297 0.52292-0.15062l0.95826 0.33404 0.09223-0.26457-0.99375-0.34641c-0.40008-0.13947-0.66477-0.0653-0.77949 0.26382-0.07536 0.21617-0.01544 0.41798 0.08124 0.61814l-0.0034 0.01-0.23373-0.0562-0.07648 0.2194z"
           id="path242" />
        <path
           d="m50.765 219.47c-0.0896-0.0335-0.16443-0.11628-0.2025-0.25823 0.04436-0.06 0.07831-0.13122 0.10107-0.19202l0.10063-0.2688c0.07547-0.2016 0.1654-0.29563 0.3094-0.24172 0.1632 0.0611 0.24372 0.3138 0.13231 0.6114-0.10542 0.2816-0.27452 0.41167-0.44091 0.34937zm-0.05105 0.24358c0.2688 0.10063 0.51743-0.10546 0.65999-0.48626 0.1809-0.4832 0.0451-0.88065-0.2429-0.98846-0.2592-0.097-0.43948 0.0434-0.57486 0.40503l-0.11261 0.3008c-0.07907 0.2112-0.17343 0.24884-0.27263 0.21171-0.0864-0.0324-0.12083-0.0963-0.14846-0.16869 0.06155-0.0572 0.1131-0.13643 0.14185-0.21323 0.1186-0.3168 0.0052-0.64747-0.32756-0.77206-0.1312-0.0491-0.26997-0.039-0.36792 8e-3l0.1198-0.32-0.2016-0.0755-0.20246 0.5408c-0.04396 0.0492-0.08872 0.12002-0.12106 0.20642-0.1186 0.3168-0.0048 0.66587 0.33437 0.79285 0.1856 0.0695 0.37314 0.0266 0.49467-0.0447l0.0128 5e-3c0.02445 0.10037 0.09331 0.2283 0.22451 0.27742 0.1216 0.0455 0.22756 0.0159 0.30431-0.043l0.0128 5e-3c0.04329 0.17674 0.13574 0.30986 0.26694 0.35898zm-0.7256-1.005c-0.06709 0.1792-0.26739 0.27569-0.49459 0.19063-0.2272-0.085-0.30649-0.28257-0.23821-0.46497 0.06829-0.1824 0.25779-0.27928 0.48499-0.19422 0.2272 0.085 0.31489 0.28936 0.24781 0.46856z"
           id="path244" />
        <path
           d="m53.525 211.59c0.26775-0.083 0.50689-0.26841 0.64861-0.549 0.21259-0.42089 0.09192-0.81105-0.22527-0.97126-0.29584-0.14942-0.52398-0.0388-0.7417 0.14216l-0.2668 0.22507c-0.14566 0.12166-0.30821 0.26158-0.50035 0.16453-0.17995-0.0909-0.21731-0.29733-0.10331-0.52302 0.09243-0.183 0.24111-0.29547 0.41863-0.35893l-0.09692-0.21739c-0.21726 0.0664-0.4242 0.22597-0.54436 0.46386-0.18332 0.36294-0.09319 0.74533 0.21181 0.89938 0.29279 0.14789 0.54705 6.9e-4 0.72032-0.1453l0.26985-0.22353c0.18091-0.14596 0.3189-0.26001 0.52324-0.1568 0.1952 0.0986 0.24778 0.32038 0.1153 0.58267-0.10629 0.21045-0.30707 0.35786-0.52892 0.42572z"
           id="path246" />
        <path
           d="m54.666 209.67c0.17795-0.0792 0.31371-0.18103 0.38618-0.31663 0.17877-0.3345 0.04591-0.78906-0.45132-1.0548-0.45504-0.24319-0.85526-0.19751-1.0566 0.17917-0.0918 0.17177-0.08535 0.38443-0.04472 0.57662l-0.0048 9e-3 -0.18003-0.0691-0.10952 0.20492 2.0823 1.1129 0.13207-0.24711-0.49422-0.26413zm-0.18964-0.10911-0.76844-0.41069c-0.05227-0.2139-0.05555-0.3745 0.01048-0.49805 0.14817-0.27725 0.42312-0.26977 0.74557-0.0974 0.36162 0.19327 0.48658 0.48864 0.35774 0.72972-0.05154 0.0964-0.16298 0.20346-0.34535 0.27646z"
           id="path248" />
        <path
           d="m55.132 208.21c0.25892 0.14604 0.5131 0.0501 0.65075-0.19395 0.10072-0.17856 0.09612-0.39299 0.06192-0.59666l0.0034-6e-3 0.18437 0.0765 0.11414-0.20238-0.88689-0.50022c-0.36011-0.20311-0.67916-0.18691-0.87891 0.16725-0.13093 0.23214-0.14388 0.49159-0.13311 0.67419l0.22503-3e-3c-0.01359-0.15674-7e-3 -0.34919 0.08863-0.51883 0.13261-0.23511 0.34643-0.1969 0.53095-0.0928-0.27902 0.65467-0.27571 1.0174 0.03976 1.1954zm0.11811-0.25114c-0.18452-0.10407-0.21124-0.33491 0.0028-0.85359l0.40178 0.22661c0.0461 0.21038 0.04909 0.36506-0.0298 0.50494-0.08057 0.14285-0.21113 0.21436-0.37482 0.12204z"
           id="path250" />
        <path
           d="m55.638 206.52c0.47356 0.27996 0.91925 0.15049 1.1436-0.22894 0.10086-0.1706 0.12764-0.37705 0.08944-0.57428l-0.22317 0.0149c0.02605 0.13051 0.02588 0.28521-0.05411 0.42051-0.15476 0.26178-0.48143 0.31079-0.80792 0.11777-0.32943-0.19475-0.44168-0.51515-0.28866-0.77399 0.06782-0.11471 0.17293-0.17165 0.29689-0.21348l-0.0846-0.21275c-0.14856 0.0432-0.30623 0.12857-0.41752 0.31681-0.21736 0.36767-0.13335 0.84999 0.34608 1.1334z"
           id="path252" />
        <path
           d="m56.402 205.23c0.46204 0.28579 0.92324 0.15723 1.1569-0.22054 0.11863-0.19179 0.14526-0.38424 0.14229-0.55482l-0.20904-0.0128c0.0021 0.14595-0.02438 0.28625-0.10706 0.41992-0.16716 0.27025-0.47219 0.3347-0.7881 0.1634l0.58955-0.95314c-0.03128-0.0274-0.07597-0.059-0.12538-0.0896-0.40392-0.24984-0.78837-0.2064-1.0112 0.15394-0.19951 0.32255-0.10996 0.80784 0.35208 1.0936zm0.03627-0.29898c-0.26681-0.20521-0.3181-0.48603-0.19588-0.68363 0.1366-0.22085 0.37552-0.24986 0.6632-0.0719z"
           id="path254" />
        <path
           d="m58.45 203.53 0.15701-0.24026-1.8764-1.2262-0.15701 0.24027z"
           id="path256" />
        <path
           d="m58.923 202.81 0.1573-0.23186-0.9953-0.67525c-0.04455-0.23255-0.05285-0.37856 0.04307-0.51994 0.12277-0.18096 0.28676-0.18532 0.54407-0.0108l0.83979 0.56974 0.1573-0.23186-0.87089-0.59084c-0.35062-0.23788-0.62548-0.23442-0.82115 0.054-0.12853 0.18945-0.12265 0.39989-0.08083 0.6182l-0.0058 8e-3 -0.21136-0.11449-0.13045 0.19228z"
           id="path258" />
        <path
           d="m60.187 200.97 0.18991-0.26745-1.0137-1.4406-0.16024 0.22567 0.58693 0.8023c0.10603 0.13396 0.21089 0.27547 0.31135 0.40548l-0.0079 0.0111c-0.15783-0.0492-0.32599-0.10157-0.48742-0.15752l-0.95093-0.28969-0.16815 0.23681z"
           id="path260" />
        <path
           d="m60.473 199.83c0.23879 0.17706 0.50291 0.11343 0.66979-0.11164 0.12211-0.16468 0.14418-0.37801 0.13554-0.58435l0.0041-5e-3 0.17344 0.0988 0.13839-0.18664-0.81791-0.60648c-0.3321-0.24626-0.65069-0.2698-0.89288 0.0568-0.15874 0.21409-0.20382 0.46992-0.2158 0.65245l0.22361 0.0254c6e-3 -0.15721 0.03637-0.34736 0.15238-0.5038 0.16078-0.21683 0.3682-0.15236 0.53837-0.0262-0.35815 0.61496-0.39992 0.97533-0.10899 1.1911zm0.14838-0.23453c-0.17017-0.12618-0.16802-0.35855 0.10882-0.84663l0.37053 0.27475c0.01962 0.21447 0.0034 0.36833-0.09228 0.49733-0.09769 0.13174-0.23612 0.18648-0.38707 0.0745z"
           id="path262" />
        <path
           d="m61.187 198.21c0.43698 0.33978 0.85084 0.31965 1.1067-9e-3 0.11955-0.15376 0.1423-0.36114 0.1222-0.54124l0.0063-8e-3 0.16843 0.10067 0.14262-0.18342-1.9206-1.4934-0.17408 0.22388 0.50442 0.39222 0.23228 0.16329c-0.1846 0.0426-0.31885 0.0983-0.4363 0.2494-0.23281 0.29941-0.17821 0.77469 0.24798 1.1061zm0.17558-0.23137c-0.29941-0.23281-0.37168-0.55736-0.20808-0.76776 0.0839-0.10789 0.19926-0.17833 0.38506-0.21132l0.68514 0.53274c0.03749 0.20228 0.01503 0.35362-0.07935 0.475-0.17828 0.22928-0.46987 0.21464-0.78277-0.0287z"
           id="path264" />
        <path
           d="m62.364 196.7c0.42127 0.34306 0.89521 0.27514 1.1757-0.0693 0.1424-0.17487 0.19366-0.36226 0.21274-0.5318l-0.20564-0.0397c-0.01674 0.145-0.06114 0.2807-0.16039 0.40257-0.20066 0.24641-0.51145 0.27092-0.8026 0.0603l0.7077-0.86903c-0.02748-0.0312-0.06771-0.0684-0.11275-0.10504-0.36828-0.29991-0.75512-0.30648-1.0227 0.0221-0.2395 0.2941-0.21336 0.78688 0.20791 1.1299zm0.07458-0.29179c-0.23808-0.23794-0.25267-0.52304-0.10596-0.7032 0.16398-0.20136 0.40464-0.19927 0.66694 0.0143z"
           id="path266" />
        <path
           d="m64.159 195.82 0.18078-0.21406-0.81448-0.68783c-0.14131-0.26693-0.1116-0.46098-0.02122-0.56801 0.04409-0.0522 0.07617-0.0743 0.1245-0.10506l-0.15268-0.2005c-0.05355 0.0263-0.09445 0.0589-0.14074 0.1137-0.12125 0.14358-0.12967 0.36009-0.04318 0.58071l-0.0066 8e-3 -0.24516-0.17574-0.14991 0.17752z"
           id="path268" />
        <path
           d="m64.643 194.96c0.20117-0.0331 0.42411-0.13781 0.57913-0.31545 0.25837-0.29606 0.23-0.60652 0.02662-0.78401-0.23685-0.20669-0.48674-0.071-0.71094 0.0507-0.17763 0.0944-0.34304 0.19042-0.45889 0.0893-0.09525-0.0831-0.1173-0.22935 0.01974-0.38639 0.09661-0.1107 0.22158-0.16036 0.36008-0.18915l-0.04625-0.21723c-0.16036 0.0279-0.34379 0.10813-0.48084 0.26517-0.2359 0.27031-0.22073 0.56473-0.01992 0.73997 0.2111 0.18422 0.4668 0.0627 0.68618-0.0588 0.17056-0.0915 0.3575-0.1914 0.48623-0.0791 0.10812 0.0944 0.12376 0.25313-0.02002 0.41789-0.13031 0.14932-0.2887 0.2061-0.47059 0.23784z"
           id="path270" />
        <path
           d="m70.165 189.4 0.20893-0.1968-0.60914-0.64667 0.29349-0.27646c0.35567-0.33502 0.44962-0.72863 0.12631-1.0719-0.33737-0.35816-0.69343-0.25278-1.0541 0.0869l-0.50242 0.47326zm-0.55952-1.0126-0.61148-0.64917 0.26613-0.25068c0.28106-0.26474 0.49546-0.32118 0.71802-0.0849 0.21788 0.23131 0.17948 0.46463-0.10654 0.73405z"
           id="path272" />
        <path
           d="m71.12 187.92c0.19896 0.22086 0.47046 0.21083 0.67863 0.0233 0.15232-0.13721 0.21623-0.34195 0.24864-0.5459l0.0051-5e-3 0.15041 0.13124 0.17263-0.15551-0.68151-0.75654c-0.27672-0.30718-0.58432-0.39339-0.88643-0.12124-0.19802 0.17838-0.29289 0.42021-0.34081 0.59674l0.21413 0.0692c0.03701-0.15291 0.10448-0.33326 0.24919-0.46362 0.20056-0.18067 0.39109-0.0764 0.53288 0.081-0.47291 0.53179-0.58526 0.87674-0.34285 1.1458zm0.19191-0.20048c-0.14179-0.1574-0.09364-0.38473 0.27443-0.80827l0.30874 0.34272c-0.02327 0.21411-0.06968 0.36169-0.189 0.46918-0.12186 0.10977-0.26839 0.136-0.39417-4e-3z"
           id="path274" />
        <path
           d="m72.139 186.47c0.35984 0.41611 0.82356 0.43521 1.157 0.14689 0.1499-0.12963 0.241-0.31682 0.26755-0.51595l-0.21632-0.0569c-0.01684 0.13201-0.06623 0.27862-0.18512 0.38143-0.23002 0.19891-0.55531 0.14141-0.80339-0.14548-0.25032-0.28947-0.25477-0.62893-0.02733-0.82561 0.1008-0.0872 0.21856-0.10769 0.34939-0.1079l-0.01249-0.22861c-0.15458-6e-3 -0.33122 0.0244-0.49664 0.16746-0.32307 0.27938-0.39693 0.76336-0.03262 1.1846z"
           id="path276" />
        <path
           d="m73.315 185.57 0.60258-0.50449-0.13819-0.16506-0.60258 0.50449z"
           id="path278" />
        <path
           d="m74.728 185.36 0.20542-0.16439-0.7707-0.96309c-0.12382-0.15473-0.30635-0.35002-0.44085-0.49621l0.01067-9e-3 0.45042 0.27849 1.0684 0.64607 0.12806-0.10248-0.39612-1.1841-0.17297-0.50052 0.01067-9e-3c0.11315 0.16328 0.261 0.38631 0.38482 0.54105l0.7707 0.96308 0.21076-0.16865-1.4005-1.7501-0.26145 0.20922 0.41534 1.2081 0.16336 0.4557-0.01067 9e-3 -0.41146-0.25715-1.0903-0.66795-0.26412 0.21136z"
           id="path280" />
        <path
           d="m76.325 183.54c0.17953 0.23694 0.4509 0.24995 0.67422 0.0807 0.1634-0.12381 0.24443-0.32239 0.29402-0.52287l0.0054-4e-3 0.13875 0.14352 0.18519-0.14033-0.61494-0.81157c-0.24969-0.32953-0.54888-0.44149-0.87296-0.19593-0.21242 0.16096-0.32745 0.39388-0.39016 0.56571l0.20749 0.0871c0.04984-0.14922 0.13235-0.32321 0.28759-0.44083 0.21515-0.16303 0.39615-0.043 0.52409 0.12589-0.51628 0.4898-0.65746 0.82399-0.43872 1.1127zm0.20821-0.18348c-0.12794-0.16885-0.0607-0.39129 0.34194-0.78211l0.27858 0.36765c-0.04133 0.21137-0.10008 0.35449-0.22808 0.45148-0.13072 0.0991-0.27895 0.11276-0.39244-0.037z"
           id="path282" />
        <path
           d="m78.048 182.78 0.2271-0.1641-0.70442-0.97488c0.03765-0.23377 0.07978-0.37382 0.21826-0.47387 0.17725-0.12808 0.33284-0.0761 0.51495 0.17593l0.59435 0.82255 0.2271-0.1641-0.61636-0.85301c-0.24815-0.34343-0.50762-0.43416-0.79012-0.23004-0.18556 0.13408-0.25199 0.33384-0.28734 0.55329l-0.0083 6e-3 -0.15947-0.17986-0.18833 0.13608z"
           id="path284" />
        <path
           d="m83.317 178.88c0.27084 0.0722 0.572 0.0424 0.84129-0.11972 0.40394-0.24325 0.50937-0.6378 0.32605-0.94222-0.17098-0.28393-0.423-0.31165-0.70363-0.27428l-0.34566 0.0486c-0.18806 0.0255-0.40014 0.0575-0.51119-0.12693-0.104-0.1727-0.02579-0.36737 0.19082-0.49781 0.17563-0.10576 0.36136-0.12188 0.54543-0.0812l0.03361-0.23562c-0.21926-0.0594-0.4794-0.0344-0.70771 0.1031-0.34833 0.20976-0.47548 0.58148-0.29921 0.87419 0.16922 0.28101 0.46282 0.29167 0.6872 0.26025l0.34742-0.0457c0.23084-0.0273 0.40836-0.0505 0.52646 0.14565 0.11281 0.18734 0.03933 0.4031-0.21241 0.55469-0.20197 0.12163-0.4504 0.13961-0.67435 0.079z"
           id="path286" />
        <path
           d="m84.82 177.61c0.21011 0.36792 0.45844 0.48581 0.76405 0.31128 0.1988-0.11353 0.28191-0.29872 0.32563-0.53223l0.0089-5e-3 0.14955 0.21364 0.20176-0.11522-0.82351-1.442-0.2433 0.13894 0.58459 1.0237c-0.0399 0.24707-0.10139 0.38055-0.24975 0.46528-0.1899 0.10844-0.33609 0.0385-0.49029-0.23153l-0.50326-0.88124-0.24627 0.14064z"
           id="path288" />
        <path
           d="m86.932 176.95c0.19212 0.0322 0.36151 0.0222 0.4968-0.0508 0.33372-0.18023 0.47387-0.63259 0.20598-1.1287-0.24517-0.45398-0.60409-0.63683-0.9799-0.43388-0.17137 0.0926-0.28339 0.27342-0.3556 0.4561l-9e-3 5e-3 -0.11197-0.157-0.20444 0.11041 1.1219 2.0775 0.24653-0.13314-0.26627-0.49306zm-0.0979-0.19566-0.41402-0.76666c0.0745-0.20721 0.16042-0.34293 0.28368-0.4095 0.2766-0.14937 0.50173 9e-3 0.67546 0.33034 0.19483 0.36078 0.13598 0.67605-0.10454 0.80594-0.09621 0.052-0.24822 0.0797-0.44058 0.0399z"
           id="path290" />
        <path
           d="m87.948 175.64c0.24724 0.48376 0.70835 0.61264 1.1039 0.41049 0.20081-0.10263 0.32326-0.25346 0.40906-0.40092l-0.1722-0.11921c-0.07377 0.12596-0.1691 0.23224-0.30906 0.30377-0.28296 0.14462-0.57727 0.0418-0.7588-0.26836l0.99796-0.51004c-0.01257-0.0396-0.03441-0.0899-0.06085-0.14158-0.21614-0.42292-0.56752-0.58485-0.94479-0.39203-0.33772 0.1726-0.51244 0.63411-0.2652 1.1179zm0.18587-0.23698c-0.12196-0.31372-0.0204-0.58051 0.18649-0.68625 0.23124-0.11818 0.45063-0.0193 0.60458 0.28196z"
           id="path292" />
        <path
           d="m89.947 175.55 0.25177-0.12294-0.46777-0.95797c-0.02162-0.30124 0.08386-0.46682 0.20974-0.52829 0.06141-0.03 0.09968-0.0373 0.1563-0.0459l-0.05882-0.24506c-0.05962 2e-3 -0.11018 0.0158-0.17465 0.0473-0.16887 0.0825-0.26392 0.27717-0.27379 0.51394l-0.0092 4e-3 -0.15343-0.2597-0.20879 0.10195z"
           id="path294" />
        <path
           d="m91.652 174.73 0.23998-0.10786-0.50565-1.1251c-0.08124-0.18076-0.20919-0.41545-0.3029-0.59061l0.01247-6e-3 0.36656 0.38219 0.87313 0.89251 0.1496-0.0672-0.08774-1.2455-0.04244-0.52786 0.01247-6e-3c0.06877 0.18637 0.15621 0.43927 0.23745 0.62003l0.50565 1.1251 0.24621-0.11066-0.91885-2.0445-0.30543 0.13727 0.10035 1.2735 0.04433 0.48205-0.01247 6e-3 -0.33417-0.3518-0.88885-0.91915-0.30854 0.13866z"
           id="path296" />
        <path
           d="m93.652 173.37c0.11457 0.2743 0.37406 0.35477 0.6326 0.24679 0.18918-0.079 0.31729-0.25102 0.41544-0.43272l0.0063-3e-3 0.09845 0.17365 0.2144-0.0896-0.39243-0.93957c-0.15934-0.38151-0.42102-0.56475-0.79622-0.40804-0.24593 0.10272-0.41555 0.29947-0.51925 0.45016l0.17911 0.13626c0.08557-0.13202 0.20898-0.27984 0.3887-0.3549 0.24908-0.10403 0.3943 0.0575 0.47595 0.25297-0.62237 0.34511-0.84264 0.63337-0.70306 0.96758zm0.24749-0.12558c-0.08165-0.19549 0.03909-0.39403 0.52668-0.67174l0.17778 0.42564c-0.09288 0.19432-0.18556 0.3182-0.33374 0.38009-0.15134 0.0632-0.29829 0.0394-0.37072-0.13399z"
           id="path298" />
        <path
           d="m95.51 173.07 0.26051-0.10315-0.39247-0.99119c0.0017-0.30202 0.11962-0.45896 0.24987-0.51054 0.06354-0.0252 0.10226-0.0295 0.15938-0.0337l-0.03974-0.24886c-0.05964-2e-3 -0.11106 7e-3 -0.17778 0.0336-0.17473 0.0692-0.28452 0.25598-0.31262 0.49129l-0.0095 4e-3 -0.13294-0.27076-0.21603 0.0855z"
           id="path300" />
        <path
           d="m96.037 170.72c0.10217-0.0389 0.15522-0.13961 0.1175-0.23859-0.03894-0.10217-0.14432-0.1388-0.24649-0.0998-0.10217 0.0389-0.15644 0.13641-0.1175 0.23858 0.03773 0.099 0.14432 0.1388 0.24649 0.0999zm0.57902 1.9221 0.26181-0.0998-0.59142-1.5517-0.26181 0.0998z"
           id="path302" />
        <path
           d="m97.005 171.6c0.1871 0.51733 0.63577 0.69297 1.0181 0.55468s0.6149-0.5603 0.4278-1.0776c-0.18942-0.52375-0.6381-0.6994-1.0205-0.56111s-0.6149 0.5603-0.42547 1.084zm0.27312-0.0988c-0.13015-0.35988-0.03532-0.67032 0.23137-0.76677 0.26991-0.0976 0.53817 0.0815 0.66832 0.44139 0.12899 0.35666 0.03621 0.66273-0.2337 0.76034-0.2667 0.0965-0.537-0.0783-0.666-0.43496z"
           id="path304" />
        <path
           d="m99.816 171.49 0.6825-0.22152c0.4745-0.154 0.73954-0.46635 0.60347-0.88559-0.0949-0.2925-0.33179-0.40243-0.65961-0.34992l-4e-3 -0.013c0.2324-0.14727 0.29147-0.3748 0.2229-0.58605-0.1213-0.37375-0.47102-0.4219-0.90327-0.28161l-0.63375 0.2057zm-0.12362-1.3106-0.22574-0.6955 0.32825-0.10654c0.32825-0.10654 0.53215-0.0649 0.60704 0.1658 0.077 0.23725-0.0336 0.41683-0.3943 0.53392zm0.327 1.0075-0.2616-0.80599 0.3705-0.12025c0.37375-0.12131 0.61753-0.0675 0.70297 0.19573 0.0939 0.28925-0.0774 0.49212-0.44137 0.61026z"
           id="path306" />
        <path
           d="m101.7 170.89 0.26817-0.0811-0.30876-1.0204c0.0268-0.30083 0.15734-0.44744 0.29143-0.48801 0.0654-0.0198 0.10435-0.0209 0.16163-0.0204l-0.0189-0.25131c-0.0593-7e-3 -0.11128-2e-3 -0.17996 0.0188-0.17987 0.0544-0.3048 0.23145-0.35235 0.46361l-0.01 3e-3 -0.10998-0.28087-0.22239 0.0673z"
           id="path308" />
        <path
           d="m102.46 169.79c0.14924 0.52949 0.58405 0.7371 0.97541 0.62679 0.39137-0.1103 0.65377-0.51441 0.50454-1.0439-0.15109-0.53607-0.5859-0.74367-0.97727-0.63337-0.39136 0.11031-0.65376 0.51442-0.50268 1.0505zm0.27955-0.0788c-0.10382-0.36835 0.0132-0.67113 0.28616-0.74806 0.27626-0.0779 0.53088 0.12018 0.63469 0.48852 0.10289 0.36505-0.0118 0.66361-0.28802 0.74148-0.27296 0.0769-0.52994-0.11689-0.63283-0.48194z"
           id="path310" />
        <path
           d="m104.37 169.92c0.18475 0.0862 0.42792 0.12549 0.65613 0.0663 0.38035-0.0987 0.53209-0.37102 0.46431-0.6323-0.0789-0.30428-0.3618-0.33327-0.61563-0.3592-0.19992-0.0223-0.39066-0.0363-0.42927-0.18516-0.0318-0.12237 0.0325-0.25554 0.2343-0.30788 0.14221-0.0369 0.27342-7e-3 0.40401 0.047l0.0844-0.20545c-0.14811-0.0675-0.34485-0.10469-0.5466-0.0523-0.34728 0.0901-0.50086 0.34174-0.43393 0.59971 0.0704 0.27121 0.35003 0.31515 0.59969 0.33863 0.19245 0.0207 0.40316 0.0437 0.44606 0.20904 0.036 0.13891-0.0406 0.27882-0.2523 0.33373-0.19183 0.0498-0.35464 7e-3 -0.52272-0.0691z"
           id="path312" />
        <path
           d="m105.89 169.55c0.0292 0.11951 0.13984 0.18394 0.24939 0.15721 0.10622-0.0259 0.17479-0.1341 0.14562-0.2536-0.0308-0.12614-0.14146-0.19057-0.24769-0.16465-0.10954 0.0267-0.1781 0.1349-0.14732 0.26104z"
           id="path314" />
        <path
           d="m108.17 169.2 0.28106-0.0582-0.18013-0.86994 0.39482-0.0817c0.47846-0.0991 0.76468-0.38514 0.66907-0.84687-0.0998-0.48182-0.45826-0.57857-0.94342-0.47811l-0.67588 0.13995zm0.0538-1.1557-0.18082-0.87328 0.35801-0.0741c0.37809-0.0783 0.59028-0.014 0.6561 0.30381 0.0644 0.31117-0.0905 0.4898-0.47528 0.56947z"
           id="path316" />
        <path
           d="m110.06 168.81 0.27543-0.0513-0.19537-1.048c0.0595-0.2961 0.20531-0.42756 0.34303-0.45323 0.0672-0.0125 0.106-9e-3 0.16288-3e-3l9e-3 -0.25187c-0.0581-0.0135-0.11039-0.0142-0.18093-1e-3 -0.18475 0.0345-0.32828 0.19676-0.40093 0.42232l-0.0101 2e-3 -0.0786-0.29121-0.22842 0.0426z"
           id="path318" />
        <path
           d="m111.03 166.6c0.10774-0.0187 0.17908-0.1073 0.16101-0.21167-0.0187-0.10774-0.11507-0.16387-0.22281-0.14521-0.10774 0.0187-0.17966 0.10394-0.161 0.21167 0.0181 0.10437 0.11507 0.16387 0.2228 0.14521zm0.20026 1.9974 0.27607-0.0478-0.28335-1.6362-0.27608 0.0478z"
           id="path320" />
        <path
           d="m112.06 168.46 0.27685-0.0431-0.18491-1.1884c0.13969-0.19117 0.24083-0.29682 0.40964-0.32308 0.21608-0.0336 0.33111 0.0833 0.37891 0.39058l0.15602 1.0028 0.27685-0.0431-0.1618-1.0399c-0.0651-0.41866-0.25511-0.61733-0.59949-0.56375-0.22621 0.0352-0.37611 0.18301-0.50726 0.36248l-0.0101 2e-3 -0.0604-0.23266-0.22959 0.0357z"
           id="path322" />
        <path
           d="m113.67 167.38c0.0731 0.54524 0.45055 0.81526 0.88743 0.75672 0.19642-0.0263 0.37518-0.13302 0.50649-0.28507l-0.14981-0.16608c-0.0864 0.10121-0.20805 0.1968-0.36384 0.21768-0.30141 0.0404-0.54203-0.18592-0.59241-0.56183-0.0508-0.3793 0.13142-0.66573 0.42944-0.70567 0.13208-0.0177 0.24185 0.0296 0.35141 0.10115l0.11479-0.1981c-0.12582-0.09-0.29047-0.16102-0.50722-0.13198-0.42332 0.0567-0.75026 0.42116-0.67628 0.97318z"
           id="path324" />
        <path
           d="m115.16 167.18c0.0614 0.5398 0.44774 0.82257 0.88909 0.77238 0.22407-0.0255 0.39174-0.12364 0.5239-0.23152l-0.1193-0.17213c-0.11334 0.092-0.23995 0.15796-0.39613 0.17572-0.31573 0.0359-0.5551-0.16385-0.616-0.51801l1.1136-0.12662c2e-3 -0.0415-6.2e-4 -0.0962-7e-3 -0.15393-0.0537-0.47191-0.32567-0.74704-0.74665-0.69917-0.37685 0.0429-0.70267 0.41347-0.64129 0.95328zm0.25732-0.1565c-4e-3 -0.33657 0.18499-0.55063 0.41585-0.57688 0.25802-0.0293 0.42863 0.1404 0.46685 0.47651z"
           id="path326" />
        <path
           d="m117.55 166.92c0.0452 0.54826 0.43233 0.83517 0.83756 0.80173 0.40524-0.0334 0.74007-0.37991 0.69484-0.92816-0.0458-0.55507-0.4329-0.84198-0.83813-0.80855-0.40523 0.0334-0.74006 0.37991-0.69427 0.93498zm0.28945-0.0239c-0.0315-0.3814 0.14129-0.65622 0.42393-0.67954 0.28604-0.0236 0.4981 0.21947 0.52956 0.60087 0.0312 0.37799-0.13844 0.64912-0.42448 0.67272-0.28264 0.0233-0.49782-0.21606-0.52901-0.59405z"
           id="path328" />
        <path
           d="m120.24 165.13c-0.077-0.0258-0.17742-0.0433-0.27972-0.0367-0.33075 0.0214-0.47054 0.24266-0.44875 0.58023l0.0169 0.26256-0.22394 0.0316 0.0136 0.21141 0.22505-0.0145 0.0922 1.4287 0.2796-0.018-0.0922-1.4287 0.35121-0.0227-0.0147-0.22845-0.35121 0.0227-0.0169-0.26256c-0.0136-0.2114 0.0543-0.32536 0.21118-0.33548 0.0614-4e-3 0.12704 5e-3 0.19018 0.0288z"
           id="path330" />
        <path
           d="m121.29 167.49 0.28681-0.0109-0.0338-0.88774 0.40291-0.0153c0.48826-0.0186 0.81784-0.25336 0.79992-0.72455-0.0187-0.49168-0.35626-0.64639-0.85135-0.62756l-0.68971 0.0262zm0.24421-1.1308-0.0339-0.89116 0.36534-0.0139c0.38583-0.0147 0.58448 0.0838 0.59682 0.40814 0.0121 0.31754-0.17027 0.46809-0.56292 0.48302z"
           id="path332" />
        <path
           d="m123.01 166.61c9e-3 0.54322 0.3657 0.86218 0.80984 0.85511 0.22549-4e-3 0.40189-0.085 0.54392-0.17952l-0.10202-0.18292c-0.12174 0.0805-0.25416 0.13391-0.41132 0.13641-0.31773 5e-3 -0.53656-0.217-0.56276-0.57541l1.1206-0.0178c6e-3 -0.0411 9e-3 -0.0958 8e-3 -0.1539-8e-3 -0.47489-0.25155-0.77515-0.6752-0.76841-0.37922 6e-3 -0.73951 0.34325-0.73086 0.88647zm0.2713-0.13076c0.0288-0.33536 0.23761-0.53005 0.46993-0.53375 0.25965-4e-3 0.41297 0.18138 0.41835 0.51961z"
           id="path334" />
        <path
           d="m124.84 167.41 0.28018 4.7e-4 2e-3 -1.0661c0.11323-0.27999 0.28083-0.38221 0.42092-0.38198 0.0683 1.2e-4 0.10591 0.0104 0.16055 0.0276l0.0551-0.24592c-0.0546-0.024-0.10587-0.0344-0.17762-0.0345-0.18793-3.2e-4 -0.359 0.13265-0.47211 0.34089l-0.0102-2e-5 -0.0234-0.30073-0.23235-3.9e-4z"
           id="path336" />
        <path
           d="m125.81 167.22c0.15486 0.1326 0.37858 0.23567 0.61431 0.23984 0.39288 7e-3 0.6121-0.21472 0.61688-0.48461 6e-3 -0.3143-0.25916-0.41809-0.49673-0.51115-0.18663-0.0751-0.36661-0.13977-0.36389-0.29351 2e-3 -0.1264 0.0999-0.23745 0.30829-0.23376 0.1469 3e-3 0.26539 0.0662 0.37662 0.15362l0.13638-0.17529c-0.12459-0.10473-0.30415-0.19335-0.51254-0.19704-0.35872-6e-3 -0.57416 0.19489-0.57888 0.46136-5e-3 0.28014 0.25269 0.39748 0.4869 0.48706 0.17986 0.0715 0.37668 0.1502 0.37366 0.32102-3e-3 0.14348-0.11392 0.2577-0.33257 0.25383-0.19815-4e-3 -0.3436-0.0881-0.48503-0.20679z"
           id="path338" />
        <path
           d="m127.64 165.45c0.10928 3e-3 0.19705-0.0689 0.20042-0.17481 3e-3 -0.10928-0.0796-0.18372-0.18891-0.18719-0.10928-3e-3 -0.19694 0.0655-0.20042 0.17481-3e-3 0.10587 0.0796 0.18372 0.18891 0.18719zm-0.20711 1.9967 0.28004 9e-3 0.0528-1.6598-0.28005-9e-3z"
           id="path340" />
        <path
           d="m128.21 167.04c-0.0142 0.29693 0.18561 0.48097 0.46548 0.49439 0.20477 0.01 0.39431-0.0906 0.56094-0.21257l7e-3 3.3e-4 0.0144 0.1991 0.23208 0.0111 0.0488-1.0171c0.0198-0.41297-0.13793-0.69077-0.54407-0.71025-0.26621-0.0128-0.50386 0.0922-0.66219 0.18377l0.10331 0.19994c0.13394-0.0825 0.30884-0.16308 0.50338-0.15375 0.26963 0.0129 0.33148 0.22114 0.32134 0.43274-0.71025 0.0446-1.0329 0.21046-1.0503 0.57224zm0.27743-7e-3c0.0102-0.2116 0.20441-0.33912 0.76399-0.38071l-0.0221 0.46075c-0.16728 0.13566-0.30415 0.20778-0.46456 0.20008-0.16382-8e-3 -0.28634-0.0924-0.27734-0.28012z"
           id="path342" />
        <path
           d="m132.09 167.72 0.5713 0.056c0.67332 0.066 1.0812-0.3129 1.1509-1.0236 0.0693-0.70733-0.25896-1.1412-0.94588-1.2085l-0.5577-0.0547zm0.30831-0.20325 0.17329-1.7683 0.25164 0.0247c0.52369 0.0513 0.75148 0.3895 0.6965 0.9506-0.0553 0.5645-0.34609 0.86903-0.86978 0.81771z"
           id="path344" />
        <path
           d="m134.13 167.09c-0.0672 0.546 0.25346 0.90564 0.65702 0.95531 0.40356 0.0497 0.80186-0.22147 0.86907-0.76747 0.068-0.55278-0.25262-0.91242-0.65618-0.96209-0.40357-0.0497-0.80187 0.22147-0.86991 0.77425zm0.28826 0.0355c0.0468-0.37982 0.27178-0.61377 0.55326-0.57912 0.28487 0.0351 0.44306 0.31617 0.39631 0.696-0.0463 0.37643-0.26756 0.6074-0.55243 0.57234-0.28147-0.0346-0.44347-0.31279-0.39714-0.68922z"
           id="path346" />
        <path
           d="m135.99 167.33c-0.0799 0.54428 0.23221 0.91132 0.6345 0.97041 0.40229 0.0591 0.80682-0.20266 0.88677-0.74693 0.081-0.55104-0.23121-0.91808-0.6335-0.97718s-0.80682 0.20266-0.88777 0.7537zm0.28735 0.0422c0.0556-0.37862 0.28606-0.60724 0.56665-0.56602 0.28397 0.0417 0.43554 0.32645 0.37992 0.70507-0.0551 0.37525-0.28168 0.60099-0.56565 0.55927-0.28059-0.0412-0.43604-0.32307-0.38092-0.69832z"
           id="path348" />
        <path
           d="m137.83 168.43 0.27589 0.0489 0.20994-1.1843c0.18122-0.14138 0.33408-0.20104 0.4552-0.17957 0.20859 0.037 0.2829 0.18549 0.22862 0.49165l-0.17714 0.99924 0.27588 0.0489 0.20995-1.1843c0.18122-0.14138 0.32734-0.20223 0.45519-0.17957 0.20523 0.0364 0.27954 0.18489 0.22526 0.49106l-0.17714 0.99923 0.27589 0.0489 0.1837-1.0362c0.074-0.41719-0.0482-0.66787-0.38461-0.72752-0.19851-0.0352-0.38939 0.0628-0.59378 0.21746-0.0327-0.20706-0.1464-0.34867-0.39537-0.39281-0.19513-0.0346-0.38819 0.0561-0.55693 0.18582l-0.0101-2e-3 0.0182-0.23968-0.22878-0.0406z"
           id="path350" />
        <path
           d="m145.31 170.03 0.27674 0.0761 0.28001-1.018 1.0048 0.27638-0.28 1.018 0.27345 0.0752 0.59444-2.1612-0.27344-0.0752-0.2492 0.906-1.0048-0.27638 0.2492-0.906-0.27674-0.0761z"
           id="path352" />
        <path
           d="m147.47 170.19c-0.086 0.28455 0.0631 0.51167 0.33128 0.59274 0.19624 0.0593 0.4045 8e-3 0.59579-0.0698l7e-3 2e-3 -0.0344 0.19663 0.22241 0.0672 0.29462-0.97468c0.11963-0.39576 0.0342-0.70358-0.35501-0.82123-0.25512-0.0771-0.51114-0.0331-0.687 0.0172l0.0516 0.21905c0.14999-0.0475 0.33924-0.0831 0.52567-0.0267 0.25838 0.0781 0.26775 0.29511 0.20645 0.49789-0.69978-0.12943-1.0531-0.047-1.1579 0.29966zm0.27087 0.0605c0.0613-0.20279 0.28073-0.27924 0.83363-0.1835l-0.13347 0.44155c-0.19525 0.0909-0.34555 0.12757-0.49927 0.0811-0.15699-0.0475-0.25527-0.15926-0.20089-0.33915z"
           id="path354" />
        <path
           d="m149.2 170.82c-0.074 0.23102-0.0334 0.38399 0.16835 0.44866 0.0716 0.0229 0.12027 0.0278 0.16128 0.023l0.0289-0.21321c-0.0314-3e-3 -0.0444-7e-3 -0.0606-0.0123-0.0391-0.0125-0.0644-0.0565-0.0373-0.14112l0.64667-2.0174-0.26681-0.0855z"
           id="path356" />
        <path
           d="m151.46 169.37c-0.0616-0.053-0.14803-0.10699-0.24527-0.13941-0.31442-0.10483-0.52729 0.0475-0.63429 0.36841l-0.0832 0.2496-0.21934-0.0551-0.067 0.20098 0.21393 0.0713-0.45283 1.3582 0.2658 0.0886 0.45284-1.3582 0.33387 0.11132 0.0724-0.21718-0.33387-0.11131 0.0832-0.2496c0.067-0.20097 0.1729-0.28092 0.32201-0.2312 0.0584 0.0195 0.11561 0.053 0.16531 0.0983z"
           id="path358" />
        <path
           d="m150.95 170.96 0.74229 0.25809 0.0707-0.20332-0.7423-0.25809z"
           id="path360" />
        <path
           d="m151.85 172.07 1.1868 0.43563 0.0836-0.22775-0.91738-0.33672 0.68876-1.8765-0.26945-0.0989z"
           id="path362" />
        <path
           d="m154.23 170.82c0.10204 0.0393 0.20877-1.7e-4 0.24683-0.099 0.0393-0.10204-0.0146-0.1997-0.11669-0.23899-0.10203-0.0393-0.20753-3e-3 -0.24682 0.099-0.0381 0.0988 0.0146 0.1997 0.11668 0.23898zm-0.85339 1.817 0.26147 0.10067 0.59669-1.5497-0.26147-0.10067z"
           id="path364" />
        <path
           d="m155.8 170.99c-0.0585-0.0564-0.14167-0.11527-0.2369-0.15319-0.30791-0.12264-0.52915 0.0173-0.65431 0.33155l-0.0974 0.24442-0.21583-0.0676-0.0784 0.19682 0.2095 0.0834-0.52973 1.3301 0.2603 0.10367 0.52973-1.3301 0.32697 0.13022 0.0847-0.21269-0.32696-0.13022 0.0974-0.24442c0.0784-0.19682 0.18868-0.27058 0.3347-0.21243 0.0571 0.0228 0.1124 0.0595 0.15942 0.10763z"
           id="path366" />
        <path
           d="m155.26 172.49c-0.20951 0.50126-0.01 0.93648 0.39986 1.1078 0.20807 0.087 0.40231 0.083 0.5703 0.0532l-0.0203-0.20845c-0.1438 0.0251-0.28652 0.021-0.43154-0.0396-0.29319-0.12255-0.40483-0.41363-0.28539-0.75256l1.034 0.43221c0.0221-0.0352 0.0464-0.0843 0.0688-0.13792 0.18316-0.43821 0.0798-0.81103-0.31116-0.97442-0.34994-0.14627-0.81508 0.0185-1.0246 0.5198zm0.30097-0.0112c0.16066-0.29578 0.42991-0.39062 0.64428-0.30102 0.2396 0.10015 0.30584 0.33152 0.17539 0.64362z"
           id="path368" />
        <path
           d="m160.59 175.82 0.3007 0.15494 0.91585-1.0464c0.11323-0.13769 0.22019-0.26323 0.33342-0.40092l0.0121 6e-3c-0.0525 0.16899-0.0926 0.32896-0.13903 0.50108l-0.31748 1.3547 0.30678 0.15806 1.4397-1.7797-0.24603-0.12677-0.76829 0.97637c-0.146 0.19384-0.29357 0.39071-0.44417 0.58602l-0.0121-6e-3c0.0625-0.24069 0.1266-0.48443 0.18903-0.71748l0.2823-1.2268-0.23084-0.11894-0.83512 0.94193c-0.15815 0.18758-0.31786 0.3782-0.4715 0.57194l-0.0122-6e-3c0.0716-0.236 0.1417-0.46896 0.21333-0.70496l0.34913-1.1924-0.26122-0.13459z"
           id="path370" />
        <path
           d="m163.01 176.15c-0.26584 0.48163-0.10231 0.93486 0.25367 1.1314s0.82663 0.0933 1.0925-0.3883c0.26914-0.48761 0.10561-0.94084-0.25037-1.1373s-0.82663-0.0933-1.0958 0.39428zm0.25427 0.14036c0.18494-0.33504 0.48094-0.46827 0.72923-0.33122 0.25128 0.1387 0.29331 0.45851 0.10837 0.79355-0.18328 0.33205-0.47464 0.46394-0.72592 0.32524-0.24829-0.13705-0.29496-0.45552-0.11168-0.78757z"
           id="path372" />
        <path
           d="m164.34 177.83 0.24265 0.14009 0.533-0.92326c0.23774-0.18628 0.43399-0.19135 0.55532-0.1213 0.0592 0.0342 0.0866 0.0618 0.12541 0.10396l0.17035-0.18572c-0.0354-0.048-0.0746-0.0825-0.1368-0.11843-0.16275-0.094-0.37733-0.064-0.5792 0.0602l-9e-3 -5e-3 0.12962-0.27236-0.20123-0.11617z"
           id="path374" />
        <path
           d="m165.54 178.15c-0.12401 0.2085-0.11872 0.3667 0.0634 0.475 0.0646 0.0384 0.11096 0.0541 0.152 0.0586l0.076-0.20129c-0.0299-0.01-0.0417-0.0168-0.0564-0.0256-0.0352-0.021-0.0501-0.0695-5e-3 -0.14589l1.0829-1.8208-0.24081-0.14323z"
           id="path376" />
        <path
           d="m166.45 178.11c-0.29122 0.47073-0.22705 0.88008 0.12745 1.0994 0.16563 0.10247 0.37426 0.10297 0.55119 0.0638l9e-3 5e-3 -0.0821 0.17821 0.19759 0.12224 1.2799-2.0689-0.24117-0.14921-0.33617 0.54338-0.13758 0.24837c-0.062-0.179-0.13179-0.30653-0.29452-0.4072-0.32254-0.19954-0.78929-0.0945-1.0733 0.36457zm0.24879 0.14989c0.19954-0.32254 0.51452-0.42902 0.74117-0.2888 0.11624 0.0719 0.19858 0.1791 0.2512 0.36032l-0.4566 0.73807c-0.19713 0.0589-0.35 0.0527-0.48076-0.0282-0.24699-0.1528-0.26354-0.44429-0.055-0.78136z"
           id="path378" />
        <path
           d="m168.66 179.5c-0.30437 0.45825-0.17848 0.92334 0.16023 1.1483 0.3387 0.22496 0.81622 0.16065 1.1206-0.2976 0.30814-0.46394 0.18225-0.92903-0.15645-1.154-0.33871-0.22497-0.81623-0.16065-1.1244 0.30329zm0.24193 0.16069c0.21173-0.31878 0.51764-0.42734 0.75388-0.27043 0.23909 0.1588 0.25481 0.48098 0.0431 0.79976-0.20984 0.31594-0.51102 0.42354-0.7501 0.26474-0.23624-0.15691-0.25669-0.47814-0.0469-0.79407z"
           id="path380" />
        <path
           d="m171.89 179.76c-0.0444-0.068-0.11235-0.144-0.1967-0.20224-0.27275-0.1883-0.51964-0.10133-0.71183 0.17705l-0.14948 0.21651-0.19529-0.11407-0.12036 0.17434 0.18558 0.12812-0.8134 1.1782 0.23057 0.15919 0.8134-1.1782 0.28962 0.19995 0.13007-0.18839-0.28962-0.19995 0.14948-0.21652c0.12036-0.17433 0.24434-0.2216 0.37369-0.1323 0.0506 0.0349 0.0963 0.0831 0.13135 0.14051z"
           id="path382" />
        <path
           d="m171.44 182.41 0.27221 0.20082 1.0707-0.8873c0.1337-0.11791 0.25928-0.22483 0.39298-0.34275l0.011 8e-3c-0.0787 0.15848-0.1438 0.31003-0.21701 0.47257l-0.52905 1.2869 0.27771 0.20488 1.7046-1.5279-0.22271-0.1643-0.9139 0.84163c-0.17499 0.16813-0.35201 0.33901-0.53178 0.50786l-0.011-8e-3c0.10003-0.22768 0.20209-0.4581 0.30081-0.67825l0.47397-1.1662-0.20897-0.15417-0.97439 0.79701c-0.18599 0.16002-0.37401 0.32278-0.55653 0.48961l-0.011-8e-3c0.10828-0.22159 0.21453-0.44043 0.32281-0.66203l0.53446-1.1216-0.23647-0.17445z"
           id="path384" />
        <path
           d="m173.53 183.43c-0.18297 0.23429-0.12595 0.49992 0.0949 0.67237 0.16158 0.12619 0.3743 0.15358 0.58078 0.15009l5e-3 4e-3 -0.10313 0.17092 0.18313 0.14301 0.62671-0.80252c0.25447-0.32585 0.28596-0.64375-0.0345-0.89402-0.21005-0.16403-0.46468-0.21548-0.64685-0.23202l-0.031 0.2229c0.15701 0.01 0.34634 0.045 0.49985 0.16491 0.21274 0.16614 0.14311 0.37188 0.0127 0.53885-0.60582-0.37339-0.96504-0.42415-1.188-0.13869zm0.23075 0.15419c0.13039-0.16696 0.36263-0.15902 0.84365 0.12992l-0.28392 0.36356c-0.21489 0.0143-0.36829-6e-3 -0.49486-0.10466-0.12927-0.10095-0.18054-0.2407-0.0649-0.38882z"
           id="path386" />
        <path
           d="m174.7 184.9 0.21765 0.17644 0.67134-0.82813c0.26403-0.14664 0.45865-0.12083 0.56747-0.0326 0.0531 0.043 0.0758 0.0747 0.10754 0.12236l0.19739-0.15667c-0.0274-0.053-0.0608-0.0933-0.1165-0.13844-0.14599-0.11834-0.36262-0.12241-0.58147-0.0315l-8e-3 -6e-3 0.17077-0.24863-0.18049-0.14632z"
           id="path388" />
        <path
           d="m176.03 184.92c-0.35364 0.42139-0.2988 0.88225 0.0388 1.1656 0.1518 0.1274 0.35109 0.18759 0.55192 0.18216l0.0218-0.22261c-0.13301 4e-3 -0.28561-0.0211-0.40601-0.12215-0.23294-0.19549-0.22786-0.52578 0.016-0.8163 0.24601-0.29314 0.58046-0.35148 0.81078-0.15819 0.10208 0.0857 0.14106 0.19867 0.16205 0.3278l0.22373-0.0487c-0.0183-0.15362-0.0768-0.32313-0.24426-0.46371-0.32717-0.27456-0.81674-0.27057-1.1748 0.15606z"
           id="path390" />
        <path
           d="m176.78 186.64 0.21159 0.18366 0.69882-0.80509c0.26881-0.13768 0.46244-0.10534 0.56824-0.0135 0.0516 0.0448 0.0733 0.0772 0.10336 0.12591l0.20255-0.14995c-0.0256-0.0539-0.0576-0.0952-0.11178-0.14227-0.14192-0.12319-0.3583-0.13454-0.58008-0.0511l-8e-3 -7e-3 0.17904-0.24275-0.17547-0.15231z"
           id="path392" />
        <path
           d="m177.84 186.98c-0.19884 0.22098-0.16046 0.48993 0.0478 0.67734 0.1524 0.13713 0.36269 0.17927 0.56892 0.19016l5e-3 5e-3 -0.11478 0.16331 0.17273 0.15542 0.68107-0.75693c0.27654-0.30734 0.3301-0.62227 0.0278-0.89425-0.19813-0.17826-0.44855-0.24732-0.62913-0.2765l-0.0465 0.2202c0.15595 0.0208 0.34237 0.069 0.48715 0.19931 0.20066 0.18056 0.11687 0.38095-0.0248 0.53843-0.57834-0.41467-0.93316-0.49032-1.1754-0.22107zm0.21946 0.16988c0.1417-0.15748 0.37282-0.13338 0.83255 0.18835l-0.30854 0.34291c-0.21537-7.4e-4 -0.367-0.0315-0.48638-0.13887-0.12192-0.10971-0.16334-0.25269-0.0376-0.39239z"
           id="path394" />
        <path
           d="m180.27 189.5c-0.0538-0.0226-0.12493-0.0568-0.16717-0.0967-0.13918-0.13132-0.10915-0.26271 0.0315-0.41183l0.63313-0.67101 0.32806 0.30953 0.15711-0.16651-0.32806-0.30953 0.31892-0.338-0.169-0.15945-0.34376 0.31454-0.44238-0.4174 0.18056-0.19136c0.14539-0.15408 0.2751-0.18202 0.38942-0.0742 0.0447 0.0422 0.0826 0.0967 0.10855 0.1588l0.19247-0.11436c-0.0336-0.074-0.0892-0.15936-0.16379-0.22971-0.24106-0.22746-0.49829-0.17889-0.73044 0.0671l-0.18056 0.19136-0.17575-0.14234-0.14538 0.15408 0.16402 0.15477-0.98252 1.0413 0.20379 0.19229 0.98252-1.0413 0.43243 0.40802-0.63078 0.66853c-0.22512 0.23858-0.2929 0.48468-0.0344 0.72856 0.0746 0.0703 0.17767 0.12536 0.26588 0.16631z"
           id="path396" />
        <path
           d="m182.33 191.89 0.39305 0.41836c0.46324 0.49307 1.0197 0.47659 1.5402-0.0124 0.51797-0.48663 0.55666-1.0293 0.0841-1.5324l-0.3837-0.4084zm0.36587 0.0501 1.2949-1.2166 0.17313 0.18427c0.3603 0.38351 0.30901 0.78801-0.10189 1.174-0.41338 0.38837-0.83275 0.42606-1.193 0.0426z"
           id="path398" />
        <path
           d="m183.74 193.41 0.18773 0.208 0.79139-0.71429c0.28354-0.10402 0.47182-0.0484 0.56568 0.0556 0.0458 0.0507 0.0634 0.0855 0.0873 0.13753l0.21926-0.12425c-0.0189-0.0566-0.0456-0.10152-0.0937-0.15479-0.12592-0.13951-0.33931-0.17705-0.56959-0.1211l-7e-3 -8e-3 0.20718-0.21922-0.15568-0.17248z"
           id="path400" />
        <path
           d="m184.75 193.89c-0.2242 0.1952-0.21876 0.46683-0.0348 0.67814 0.13462 0.15462 0.33825 0.22197 0.54163 0.25783l4e-3 5e-3 -0.13376 0.14818 0.15257 0.17523 0.76794-0.66863c0.31181-0.27149 0.40321-0.57759 0.1362-0.88425-0.17501-0.20101-0.4152-0.29995-0.5909-0.35085l-0.0728 0.21293c0.15226 0.0396 0.33145 0.1101 0.45934 0.25699 0.17726 0.20358 0.0698 0.39232-0.09 0.53143-0.52372-0.48182-0.86672-0.59999-1.1399-0.36215zm0.1972 0.19527c0.15977-0.13911 0.38626-0.0871 0.80353 0.28804l-0.34789 0.30291c-0.21369-0.0269-0.36047-0.0758-0.46592-0.1969-0.1077-0.12369-0.13145-0.27065 0.0103-0.39405z"
           id="path402" />
        <path
           d="m185.48 195.82c0.0735-0.0613 0.18242-0.0853 0.32461-0.0482 0.0302 0.0682 0.0753 0.13298 0.11684 0.18284l0.18378 0.22046c0.13784 0.16535 0.17505 0.29003 0.057 0.38848-0.13385 0.11159-0.39329 0.0565-0.59677-0.18757-0.19254-0.23096-0.22189-0.44226-0.0854-0.55603zm-0.1864-0.1649c-0.22046 0.18379-0.1644 0.50183 0.096 0.81415 0.33038 0.3963 0.74294 0.47497 0.97915 0.27806 0.21258-0.17722 0.17973-0.4034-0.0675-0.69997l-0.20567-0.2467c-0.1444-0.17322-0.13042-0.27385-0.0491-0.34167 0.0709-0.0591 0.14348-0.0573 0.22005-0.0455 0.0193 0.0818 0.0626 0.16579 0.1151 0.22878 0.2166 0.25983 0.56004 0.32495 0.83299 0.0974 0.10761-0.0897 0.16752-0.21528 0.17494-0.32378l0.21879 0.26246 0.16534-0.13784-0.36976-0.44355c-0.021-0.0626-0.0604-0.13648-0.11947-0.20734-0.2166-0.25983-0.57623-0.3337-0.85443-0.10178-0.15222 0.1269-0.20775 0.31109-0.20597 0.45196l-0.0105 9e-3c-0.0993-0.0284-0.24456-0.0319-0.35217 0.0578-0.0997 0.0831-0.1264 0.18989-0.11325 0.2857l-0.0105 9e-3c-0.17501-0.0498-0.33644-0.0354-0.44404 0.0543zm1.2324-0.13322c-0.12253-0.14698-0.10726-0.36879 0.0791-0.52413 0.18634-0.15534 0.39722-0.12651 0.52193 0.0231 0.12471 0.1496 0.11513 0.36222-0.0712 0.51756-0.18634 0.15535-0.40728 0.13045-0.5298-0.0165z"
           id="path404" />
        <path
           d="m187.26 196.23c-0.43024 0.34282-0.45306 0.82411-0.19967 1.1421s0.72762 0.40324 1.1579 0.0604c0.43558-0.34708 0.4584-0.82837 0.20501-1.1464-0.25338-0.31801-0.72761-0.40325-1.1632-0.0562zm0.18099 0.22714c0.2993-0.23848 0.62377-0.24798 0.8005-0.0262 0.17886 0.22447 0.095 0.53595-0.20429 0.77443-0.29663 0.23635-0.61629 0.2464-0.79515 0.0219-0.17674-0.2218-0.0977-0.53382 0.19894-0.77018z"
           id="path406" />
        <path
           d="m187.84 198.3 0.16943 0.22314 0.95791-0.72733c0.23459 0.0321 0.3756 0.0709 0.47891 0.20696 0.13225 0.17417 0.084 0.33095-0.16367 0.51898l-0.80823 0.61369 0.16943 0.22315 0.83817-0.63642c0.33744-0.25622 0.422-0.51777 0.21124-0.79535-0.13844-0.18233-0.33972-0.24401-0.55995-0.27414l-6e-3 -8e-3 0.17603-0.16369-0.14051-0.18505z"
           id="path408" />
        <path
           d="m190.28 200.06 0.34189-0.1087c0.24887-0.0803 0.491-0.1643 0.74427-0.25616l8e-3 0.0111c-0.17018 0.20887-0.32921 0.40982-0.48707 0.61832l-0.21725 0.28421zm-0.18787 1.3111 0.1741 0.24515 1.3883-1.9163-0.18597-0.26187-2.2667 0.67942 0.16817 0.23679 0.68181-0.22018 0.47285 0.66581z"
           id="path410" />
        <path
           d="m190.26 202.1c0.0792-0.0537 0.18999-0.0668 0.32779-0.0157 0.0233 0.0709 0.0617 0.1398 0.0981 0.19355l0.16098 0.23762c0.12074 0.17821 0.14539 0.30597 0.0181 0.39221-0.14426 0.0977-0.39695 0.0172-0.57519-0.2459-0.16865-0.24893-0.17688-0.4621-0.0298-0.56176zm-0.16911-0.18259c-0.23762 0.16098-0.21342 0.48302 0.0146 0.81965 0.28939 0.42715 0.69211 0.54639 0.9467 0.37391 0.22913-0.15524 0.2189-0.38356 2e-3 -0.70321l-0.18015-0.26591c-0.12649-0.1867-0.10259-0.28544-0.0149-0.34485 0.0764-0.0517 0.14847-0.0428 0.22348-0.0235 0.011 0.0833 0.0458 0.17119 0.0918 0.23909 0.18974 0.28005 0.52502 0.37895 0.81921 0.17963 0.11598-0.0786 0.18807-0.19758 0.20622-0.3048l0.19165 0.28288 0.17822-0.12074-0.3239-0.47807c-0.0147-0.0643-0.0465-0.14181-0.0983-0.21819-0.18973-0.28005-0.54025-0.38926-0.8401-0.18611-0.16407 0.11116-0.23762 0.28893-0.24984 0.42928l-0.0113 8e-3c-0.096-0.0381-0.24019-0.056-0.35617 0.0226-0.10749 0.0728-0.14463 0.1764-0.14106 0.27304l-0.0113 8e-3c-0.16919-0.067-0.33126-0.0686-0.44724 0.01zm1.2395-0.0102c-0.10733-0.15842-0.0701-0.37761 0.13074-0.51368 0.20084-0.13608 0.40781-0.0864 0.51705 0.0748 0.10924 0.16125 0.0786 0.37186-0.12225 0.50794-0.20084 0.13607-0.41822 0.0894-0.52554-0.069z"
           id="path412" />
        <path
           d="m191.99 202.68c-0.45614 0.29513-0.5375 0.76694-0.2962 1.1399 0.1225 0.18934 0.285 0.29582 0.44042 0.3662l0.10108-0.18343c-0.1328-0.0606-0.24822-0.14463-0.3336-0.27659-0.17262-0.2668-0.10021-0.57003 0.18987-0.78214l0.60881 0.94096c0.0381-0.0165 0.0859-0.0434 0.13466-0.0749 0.39876-0.258 0.52416-0.62401 0.294-0.97974-0.20603-0.31844-0.6829-0.44536-1.139-0.15024zm0.25463 0.16083c0.2997-0.15321 0.57544-0.0793 0.70165 0.11579 0.14107 0.21803 0.065 0.44634-0.21906 0.6301z"
           id="path414" />
        <path
           d="m196.3 209.42c-0.65101 0.33296-0.84294 0.90318-0.57533 1.4264 0.13691 0.2677 0.35392 0.43688 0.54859 0.50234l0.83962-0.42942-0.33451-0.65405-0.2099 0.10735 0.21626 0.42285-0.5202 0.26606c-0.11346-0.0418-0.23066-0.15835-0.30379-0.30133-0.21782-0.4259-0.0228-0.82499 0.47915-1.0817 0.49586-0.25361 0.9384-0.15373 1.1453 0.25087 0.10113 0.19774 0.0858 0.36292 0.0307 0.51776l0.23592 0.0636c0.061-0.18087 0.0924-0.42719-0.0461-0.69794-0.27383-0.53541-0.86386-0.72105-1.5057-0.39276z"
           id="path416" />
        <path
           d="m196.48 212.27 0.12319 0.25545 1.8035-0.86973 0.29535 0.61247 0.21544-0.10389-0.71389-1.4804-0.21544 0.10389 0.29535 0.61246z"
           id="path418" />
        <path
           d="m197.95 213.24 0.35629-0.042c0.25958-0.0318 0.51323-0.0684 0.77931-0.11063l6e-3 0.0124c-0.20664 0.17288-0.40084 0.34009-0.59532 0.51493l-0.26713 0.23794zm-0.43267 1.2518 0.12454 0.27368 1.726-1.6188-0.13304-0.29234-2.3544 0.238 0.1203 0.26435 0.71116-0.0871 0.33825 0.74329z"
           id="path420" />
        <path
           d="m198.18 215.37c-0.0807 0.1967-0.13325 0.45198 1e-3 0.77353 0.14629 0.34993 0.52925 0.57499 0.96429 0.39311 0.43505-0.18187 0.5132-0.54415 0.36955-0.88777-0.0514-0.12295-0.12114-0.20119-0.21112-0.27468l0.61822-0.1955 0.32553 0.77867 0.22383-0.0936-0.42042-1.0056-0.99549 0.3384-0.0303 0.17561c0.12889 0.0868 0.20861 0.15352 0.2666 0.29222 0.10807 0.25851 0.0153 0.49728-0.26211 0.61325-0.28057 0.1173-0.54198-3e-3 -0.64477-0.24893-0.0988-0.23644-0.0518-0.43388 0.0179-0.60376z"
           id="path422" />
        <path
           d="m200.75 223.06 0.16602 0.54951c0.19567 0.64763 0.70144 0.88032 1.385 0.67378 0.68034-0.20555 0.9563-0.67442 0.75668-1.3351l-0.16206-0.53642zm0.30543 0.20756 1.7008-0.51388 0.0731 0.24205c0.15218 0.50371-0.0736 0.84321-0.61333 1.0063-0.54296 0.16404-0.93534 0.0113-1.0875-0.4924z"
           id="path424" />
        <path
           d="m202.11 224.71c-0.53043 0.14586-0.74079 0.57934-0.63298 0.9714 0.10782 0.39206 0.51025 0.65703 1.0407 0.51116 0.53701-0.14767 0.74738-0.58116 0.63956-0.97321-0.10781-0.39206-0.51024-0.65703-1.0473-0.50935zm0.077 0.28004c0.369-0.10147 0.67103 0.0175 0.74622 0.29091 0.0761 0.27675-0.12355 0.5301-0.49254 0.63157-0.3657 0.10057-0.66353-0.016-0.73963-0.29273-0.0752-0.27345 0.12025-0.52919 0.48595-0.62975z"
           id="path426" />
        <path
           d="m202.6 226.52c-0.53371 0.13333-0.75423 0.56174-0.65568 0.95623 0.0985 0.39448 0.49462 0.66886 1.0283 0.53553 0.54035-0.13499 0.76086-0.56339 0.66232-0.95788-0.0985-0.39449-0.49463-0.66886-1.035-0.53388zm0.0704 0.28178c0.37129-0.0927 0.67043 0.0333 0.73917 0.30841 0.0696 0.27846-0.13601 0.52704-0.50729 0.61979-0.36797 0.0919-0.66297-0.0316-0.73253-0.31007-0.0687-0.27514 0.13269-0.52621 0.50065-0.61813z"
           id="path428" />
        <path
           d="m202.28 228.64 0.0598 0.27373 1.175-0.2567c0.19973 0.11375 0.31308 0.23238 0.33934 0.35256 0.0452 0.20696-0.0638 0.33221-0.3676 0.39857l-0.99144 0.21659 0.0598 0.27373 1.175-0.2567c0.19972 0.11376 0.31162 0.22571 0.33933 0.35256 0.0445 0.20363-0.0646 0.32888-0.36833 0.39524l-0.99143 0.21659 0.0598 0.27373 1.0282-0.22461c0.41393-0.0904 0.59925-0.29879 0.52632-0.63261-0.043-0.19695-0.20634-0.33615-0.42713-0.46628 0.17903-0.10906 0.26669-0.26811 0.21273-0.51514-0.0423-0.19361-0.19967-0.3376-0.38385-0.44426l-2e-3 -0.01 0.22857-0.0744-0.0496-0.22699z"
           id="path430" />
        <path
           d="m203 232.1 0.23365 1.305 0.2388-0.0428-0.18307-1.0225 0.80049-0.14332 0.14935 0.83412 0.2388-0.0427-0.14934-0.83413 0.69286-0.12405 0.17704 0.98884 0.23544-0.0422-0.22763-1.2714z"
           id="path432" />
        <path
           d="m203.81 233.8c-0.32389 0.0519-0.52766 0.20562-0.47146 0.55651 0.0162 0.10121 0.0644 0.20769 0.10937 0.29392l0.20053-0.0875c-0.0289-0.0507-0.0644-0.12118-0.0736-0.17854-0.0303-0.18893 0.0742-0.27141 0.27662-0.30383l0.91095-0.1459 0.0708 0.44198 0.22605-0.0362-0.0708-0.44198 0.45885-0.0735-0.0373-0.2328-0.46425 0.0398-0.0579-0.25372-0.20918 0.0335 0.0389 0.24292z"
           id="path434" />
        <path
           d="m204.28 234.71c-0.53789 0.0764-0.8098 0.47045-0.74736 0.91023 0.0317 0.22328 0.13449 0.38815 0.246 0.51726l0.16875-0.12404c-0.0951-0.11074-0.16458-0.23547-0.18667-0.39109-0.0447-0.31461 0.14835-0.55944 0.50067-0.63017l0.15755 1.1096c0.0416 1e-3 0.0962-3e-3 0.15367-0.0115 0.47023-0.0668 0.7377-0.34632 0.67814-0.7658-0.0533-0.37551-0.43286-0.6909-0.97075-0.61453zm0.16359 0.25287c0.33634-0.0132 0.55556 0.1696 0.58822 0.39964 0.0365 0.25711-0.12842 0.43238-0.46333 0.47993z"
           id="path436" />
        <path
           d="m203.71 236.62 0.0343 0.27808 1.058-0.13067c0.2919 0.0776 0.41415 0.23117 0.43132 0.37021 8e-3 0.0678 3e-3 0.10638-7e-3 0.16273l0.25087 0.0241c0.017-0.0572 0.0209-0.10932 0.0121-0.18053-0.023-0.18651-0.17623-0.33974-0.39691-0.4261l-1e-3 -0.0102 0.29549-0.0606-0.0285-0.2306z"
           id="path438" />
        <path
           d="m203.85 237.8 0.029 0.27868 1.1963-0.12445c0.18385 0.14921 0.28424 0.25557 0.30191 0.42549 0.0226 0.21751-0.10001 0.32646-0.40928 0.35863l-1.0094 0.10501 0.029 0.27868 1.0468-0.1089c0.42142-0.0438 0.62946-0.22351 0.59339-0.57016-0.0237-0.2277-0.16371-0.3849-0.33631-0.52497l-1e-3 -0.0102 0.23543-0.0485-0.024-0.2311z"
           id="path440" />
        <path
           d="m204.46 239.54c-0.29629 0.0241-0.45312 0.24589-0.43046 0.52516 0.0166 0.20434 0.14049 0.3794 0.2829 0.52897l5.5e-4 7e-3 -0.19559 0.0399 0.0188 0.23159 1.0149-0.0824c0.41209-0.0334 0.66732-0.22556 0.63443-0.63084-0.0216-0.26564-0.15615-0.48783-0.26735-0.63307l-0.18501 0.12814c0.0991 0.12223 0.20142 0.28533 0.21718 0.47945 0.0218 0.26905-0.17671 0.35716-0.38786 0.37429-0.13554-0.69862-0.34147-0.99729-0.70248-0.968zm0.0428 0.27421c0.21115-0.0171 0.36258 0.15912 0.47574 0.70872l-0.45976 0.0373c-0.15603-0.14846-0.24514-0.27492-0.25813-0.43499-0.0133-0.16347 0.0548-0.29584 0.24215-0.31104z"
           id="path442" />
        <path
           d="m204.5 241.38c-0.2421 0.0156-0.36956 0.1095-0.35589 0.3209 5e-3 0.075 0.0182 0.12209 0.0376 0.1585l0.20898-0.0512c-9e-3 -0.0302-0.01-0.0439-0.0108-0.0609-3e-3 -0.0409 0.029-0.0806 0.11768-0.0864l2.1141-0.13671-0.0181-0.2796z"
           id="path444" />
      </g>
      <path
         d="m-116.78 248.6c2e-5 -35.594 28.855-64.449 64.449-64.449 35.594-1e-5 64.449 28.855 64.449 64.449"
         fill="none"
         stroke="#e9e56f"
         stroke-linecap="round"
         stroke-width=".26458"
         id="path448" />
      <path
         d="m-11.638 247.06-3.1742 0.16648"
         fill="#d54747"
         fill-rule="evenodd"
         stroke="#cf2f25"
         stroke-linecap="butt"
         stroke-width=".13229"
         id="path450"
         style="stroke:#6f8ce9;stroke-opacity:1" />
      <path
         d="m-11.806 244.93-3.1611 0.33259"
         fill="#d54747"
         fill-rule="evenodd"
         stroke="#cf2f25"
         stroke-linecap="butt"
         stroke-width=".13229"
         id="path452"
         style="stroke:#6f8ce9;stroke-opacity:1" />
      <g
         transform="matrix(0 .0021183 .0021546 0 -32.571 249.15)"
         fill="#cf2f25"
         stroke-width="123.85"
         id="g458"
         style="fill:#6f8ce9;fill-opacity:1;stroke:#6f8ce9;stroke-opacity:1">
        <g
           fill="#cf2f25"
           stroke-width="123.85"
           id="g456"
           style="fill:#6f8ce9;fill-opacity:1;stroke:#6f8ce9;stroke-opacity:1">
          <path
             d="m486.41 221.41-364.07-208.5c-52.938-30.318-95.852-5.44-95.852 55.563v415.65c0 61.004 42.914 85.882 95.852 55.563l364.07-208.49c52.938-30.317 52.938-79.473 0-109.79z"
             fill="#cf2f25"
             stroke-width="123.85"
             id="path454"
             style="fill:#6f8ce9;fill-opacity:1;stroke:#6f8ce9;stroke-opacity:1" />
        </g>
      </g>
      <g
         transform="matrix(.26282 .030497 -.030497 .26282 159.32 62.009)"
         fill="#cf2f25"
         stroke="none"
         stroke-dashoffset="1.2"
         stroke-linecap="square"
         aria-label="Era of game engines"
         id="g492"
         style="fill:#6f8ce9;fill-opacity:1">
        <path
           d="m-686.24 714.84 3.3635 1.5188 0.27792-0.61549-2.6354-1.19 0.93165-2.0632 2.1499 0.97079 0.27793-0.6155-2.1499-0.97079 0.80638-1.7858 2.5487 1.1508 0.27401-0.60682-3.2768-1.4797z"
           id="path460"
           style="fill:#6f8ce9;fill-opacity:1" />
        <path
           d="m-681.77 716.9 0.70002 0.34398 1.3088-2.6635c0.62569-0.56159 1.1698-0.61214 1.5198-0.44015 0.17073 0.0839 0.25205 0.15565 0.36766 0.26545l0.43862-0.54753c-0.10722-0.12687-0.22269-0.2154-0.40196-0.3035-0.46952-0.23071-1.06-0.10752-1.5976 0.27479l-0.0256-0.0126 0.30939-0.7806-0.5805-0.28525z"
           id="path462"
           style="fill:#6f8ce9;fill-opacity:1" />
        <path
           d="m-678.66 717.09c-0.39043 0.72962-0.10772 1.4311 0.57997 1.7991 0.50319 0.26926 1.0997 0.24322 1.6644 0.13546l0.0168 9e-3 -0.20158 0.51784 0.57029 0.30516 1.3373-2.4992c0.54301-1.0148 0.47821-1.9017-0.51979-2.4357-0.65414-0.35004-1.377-0.37006-1.8846-0.3288l0.021 0.62613c0.43537-0.0475 0.97138-0.0412 1.4494 0.21461 0.66253 0.35453 0.56939 0.95196 0.29115 1.4719-1.8392-0.73606-2.8486-0.70444-3.3243 0.18453zm0.70624 0.31318c0.27823-0.51996 0.919-0.6086 2.3758-0.0448l-0.60584 1.1322c-0.58265 0.14131-1.0129 0.15918-1.4071-0.0517-0.40255-0.21541-0.60964-0.57434-0.36281-1.0356z"
           id="path464"
           style="fill:#6f8ce9;fill-opacity:1" />
        <path
           d="m-672.17 719.41c-0.80988 1.2997-0.42198 2.5837 0.53867 3.1823 0.96066 0.5986 2.2842 0.38105 3.0941-0.91867 0.81994-1.3158 0.43204-2.5998-0.52861-3.1984-0.96066-0.5986-2.2842-0.38105-3.1041 0.93481zm0.68619 0.42758c0.56339-0.90415 1.4058-1.231 2.0759-0.81344 0.67811 0.42255 0.74788 1.3178 0.18449 2.2219-0.55837 0.89607-1.3877 1.2198-2.0658 0.79729-0.67004-0.41752-0.75292-1.3097-0.19455-2.2058z"
           id="path466"
           style="fill:#6f8ce9;fill-opacity:1" />
        <path
           d="m-663.09 720.03c-0.1247-0.18859-0.31514-0.39896-0.55093-0.55966-0.76241-0.51962-1.4482-0.27337-1.9786 0.50475l-0.41248 0.60521-0.54553-0.31426-0.33213 0.48731 0.51875 0.35356-2.2445 3.2933 0.6445 0.43926 2.2445-3.2933 0.80956 0.55176 0.35891-0.52661-0.80956-0.55176 0.41248-0.6052c0.33213-0.48731 0.67646-0.62098 1.038-0.37456 0.14148 0.0964 0.26939 0.22964 0.36801 0.38895z"
           id="path468"
           style="fill:#6f8ce9;fill-opacity:1" />
        <path
           d="m-665.12 727.86c0.16342-0.2103 0.44534-0.34055 0.85413-0.32402 0.12269 0.16763 0.28376 0.31689 0.42646 0.42779l0.63087 0.49028c0.47316 0.36771 0.64847 0.68465 0.38582 1.0226-0.29767 0.38303-1.036 0.38749-1.7344-0.15532-0.66092-0.51363-0.86636-1.0708-0.56285-1.4614zm-0.60496-0.33763c-0.49028 0.63087-0.14875 1.4625 0.74499 2.157 1.1341 0.88134 2.3028 0.85001 2.8281 0.17407 0.47277-0.60834 0.24896-1.2039-0.59972-1.8634l-0.70598-0.54865c-0.49569-0.38522-0.51749-0.66719-0.33655-0.90001 0.15759-0.20278 0.35612-0.24123 0.57135-0.25466 0.10103 0.21102 0.26879 0.41367 0.44904 0.55375 0.74353 0.57783 1.7162 0.55075 2.3232-0.23033 0.2393-0.30793 0.32758-0.68504 0.28325-0.98451l0.75104 0.58367 0.36771-0.47316-1.2693-0.9864c-0.0943-0.15763-0.24539-0.33526-0.44817-0.49285-0.74354-0.57783-1.7655-0.56492-2.3842 0.23119-0.33852 0.4356-0.38002 0.96953-0.29145 1.3516l-0.0233 0.03c-0.28699-0.0182-0.68405 0.0587-0.92336 0.3666-0.22179 0.28539-0.23084 0.59156-0.13815 0.8443l-0.0233 0.03c-0.50556-0.0315-0.93597 0.10381-1.1753 0.41174zm3.2723-1.095c-0.42058-0.32686-0.51092-0.93915-0.0965-1.4724 0.4144-0.53324 1.005-0.58019 1.4331-0.2475s0.52844 0.91662 0.11403 1.4499c-0.4144 0.53324-1.03 0.59688-1.4506 0.27003z"
           id="path470"
           style="fill:#6f8ce9;fill-opacity:1" />
        <path
           d="m-660.65 728.86c-0.54372 0.62383-0.42506 1.3708 0.16291 1.8832 0.43023 0.37498 1.0174 0.48301 1.5919 0.50427l0.0143 0.0125-0.31229 0.45963 0.48759 0.42498 1.8624-2.1368c0.75621-0.86762 0.89141-1.7466 0.0381-2.4903-0.55929-0.48747-1.2594-0.66865-1.7633-0.74194l-0.11961 0.61495c0.43497 0.0511 0.95598 0.17711 1.3647 0.53334 0.56646 0.49372 0.34206 1.0552-0.0454 1.4998-1.628-1.1288-2.6189-1.3237-3.2814-0.56363zm0.6183 0.4632c0.38748-0.44456 1.0318-0.38765 2.3256 0.48764l-0.84371 0.968c-0.59949 7e-3 -1.0229-0.0714-1.3599-0.36512-0.34418-0.29999-0.46574-0.69614-0.12201-1.0905z"
           id="path472"
           style="fill:#6f8ce9;fill-opacity:1" />
        <path
           d="m-657.59 733.12 0.54516 0.5578 2.3945-2.3402c0.6393-0.0263 1.0819 0.0864 1.3213 0.3313 0.41219 0.42176 0.33969 0.87831-0.27934 1.4833l-2.0204 1.9745 0.54516 0.55781 2.3945-2.3402c0.6393-0.0263 1.0686 0.0728 1.3213 0.3313 0.40554 0.41495 0.33304 0.8715-0.28599 1.4765l-2.0204 1.9745 0.54515 0.55781 2.0952-2.0476c0.84352-0.82438 0.97337-1.5897 0.30855-2.2699-0.39225-0.40135-0.98315-0.48884-1.6964-0.47012 0.26158-0.52164 0.23374-1.0264-0.25822-1.5298-0.3856-0.39455-0.96955-0.50214-1.5617-0.48203l-0.0199-0.0204 0.42964-0.51299-0.45207-0.46257z"
           id="path474"
           style="fill:#6f8ce9;fill-opacity:1" />
        <path
           d="m-650.62 737.11c-1.165 0.96435-1.2364 2.2952-0.44794 3.2478 0.4003 0.4836 0.88421 0.72512 1.3368 0.8691l0.21979-0.54c-0.38687-0.12429-0.73332-0.31907-1.0123-0.65612-0.56406-0.68143-0.46256-1.5433 0.2704-2.2241l1.9894 2.4033c0.10006-0.0581 0.22336-0.14784 0.34792-0.25095 1.0185-0.84304 1.246-1.8957 0.49397-2.8043-0.67322-0.81332-2.0329-1.009-3.198-0.0447zm0.75631 0.36177c0.77872-0.52111 1.5651-0.40647 1.9775 0.0918 0.46095 0.55687 0.32482 1.2128-0.40057 1.8133z"
           id="path476"
           style="fill:#6f8ce9;fill-opacity:1" />
        <path
           d="m-646.36 742.46c-1.2461 0.85706-1.4354 2.1764-0.73465 3.1952 0.35576 0.51724 0.81631 0.80078 1.2543 0.9844l0.26688-0.51835c-0.3743-0.15815-0.70208-0.38294-0.95003-0.74344-0.5013-0.72884-0.32365-1.5783 0.46689-2.1913l1.768 2.5705c0.10483-0.049 0.23561-0.12742 0.36884-0.21906 1.0893-0.74925 1.4095-1.7776 0.74111-2.7494-0.59832-0.8699-1.9353-1.1856-3.1814-0.32855zm0.72119 0.42752c0.82193-0.44988 1.595-0.26584 1.9615 0.26707 0.40966 0.59561 0.2158 1.2369-0.56006 1.7705z"
           id="path478"
           style="fill:#6f8ce9;fill-opacity:1" />
        <path
           d="m-645.43 747.96 0.39852 0.67046 2.8781-1.7107c0.63879 0.1625 1.0166 0.31414 1.2596 0.72296 0.31104 0.52329 0.12824 0.94177-0.61581 1.384l-2.4284 1.4434 0.39852 0.67047 2.5183-1.4969c1.0139-0.60264 1.33-1.2995 0.83424-2.1335-0.32562-0.54782-0.86297-0.78168-1.4626-0.93424l-0.0146-0.0245 0.53833-0.39743-0.33047-0.55599z"
           id="path480"
           style="fill:#6f8ce9;fill-opacity:1" />
        <path
           d="m-643.37 753.11c0.23731-0.12088 0.54786-0.11896 0.91086 0.0697 0.0398 0.20389 0.12216 0.40746 0.20419 0.5685l0.36265 0.71194c0.272 0.53395 0.29597 0.89535-0.0854 1.0896-0.43225 0.22019-1.1024-0.0896-1.5039-0.8778-0.37993-0.74585-0.32905-1.3375 0.11167-1.562zm-0.40408-0.56274c-0.71194 0.36265-0.75626 1.2606-0.2425 2.2691 0.65192 1.2798 1.7232 1.7482 2.486 1.3596 0.68651-0.3497 0.73706-0.98391 0.2492-1.9416l-0.40583-0.79669c-0.28494-0.55939-0.18483-0.82388 0.0779-0.95771 0.22884-0.11657 0.42489-0.067 0.62542 0.0123 2e-3 0.23395 0.0675 0.48869 0.17108 0.6921 0.42742 0.83908 1.3194 1.228 2.2008 0.77901 0.3475-0.17701 0.5877-0.48084 0.67486-0.77075l0.43173 0.84754 0.53396-0.27199-0.72963-1.4324c-0.0184-0.18278-0.0796-0.40778-0.19619-0.63662-0.42742-0.83907-1.3579-1.2618-2.2563-0.80411-0.49157 0.2504-0.75608 0.71606-0.83829 1.0995l-0.0339 0.0173c-0.25202-0.13849-0.64412-0.23765-0.99161-0.0606-0.32207 0.16406-0.46041 0.43735-0.48392 0.70552l-0.0339 0.0173c-0.44423-0.2434-0.89134-0.30386-1.2388-0.12685zm3.4274 0.39973c-0.24177-0.47463-0.0633-1.0672 0.53847-1.3738 0.60176-0.30654 1.1563-0.098 1.4024 0.38511 0.24609 0.4831 0.0887 1.0543-0.51305 1.3608-0.60176 0.30653-1.1861 0.10247-1.4278-0.37216z"
           id="path482"
           style="fill:#6f8ce9;fill-opacity:1" />
        <path
           d="m-635.46 754.82c0.12581 0.27715 0.41464 0.40719 0.68314 0.28531 0.27716-0.12581 0.36075-0.42491 0.23494-0.70206-0.12581-0.27716-0.40599-0.41113-0.68314-0.28531-0.2685 0.12188-0.36075 0.4249-0.23494 0.70206zm-5.2406 1.9402 0.3224 0.71022 4.2093-1.9108-0.3224-0.71021z"
           id="path484"
           style="fill:#6f8ce9;fill-opacity:1" />
        <path
           d="m-639.74 758.89 0.28977 0.72413 3.1085-1.2439c0.60587 0.25956 0.95562 0.46794 1.1323 0.90948 0.22616 0.56518-0.0193 0.95027-0.82291 1.2718l-2.6228 1.0495 0.28977 0.72413 2.7199-1.0884c1.095-0.43819 1.5153-1.0776 1.1549-1.9784-0.23677-0.59167-0.73137-0.906-1.3002-1.1497l-0.0106-0.0265 0.59343-0.30918-0.2403-0.6005z"
           id="path486"
           style="fill:#6f8ce9;fill-opacity:1" />
        <path
           d="m-635.78 762.68c-1.4336 0.48167-1.9782 1.6982-1.5843 2.8703 0.19994 0.59509 0.56484 0.99427 0.93552 1.2912l0.39904-0.42506c-0.31644-0.25492-0.56983-0.56112-0.70918-0.97587-0.28173-0.83853 0.12251-1.6065 1.0511-1.9787l0.99362 2.9574c0.11426-0.0183 0.26155-0.0578 0.41483-0.10928 1.2533-0.42108 1.8437-1.3218 1.468-2.4399-0.33625-1.0008-1.535-1.6717-2.9686-1.1901zm0.57595 0.60923c0.91391-0.20671 1.6066 0.18267 1.8126 0.79578 0.23023 0.68525-0.13239 1.2486-1.025 1.5485z"
           id="path488"
           style="fill:#6f8ce9;fill-opacity:1" />
        <path
           d="m-636.04 767.59c-0.22739 0.51998-0.32023 1.1994-0.14 1.8304 0.30038 1.0518 1.0686 1.4556 1.7911 1.2493 0.84144-0.24031 0.90294-1.0294 0.9579-1.7376 0.0484-0.55788 0.0746-1.0896 0.48617-1.2072 0.3384-0.0966 0.71336 0.0733 0.87269 0.63116 0.11232 0.39328 0.0391 0.76041-0.10334 1.1275l0.57746 0.22087c0.17774-0.41677 0.26795-0.96681 0.10862-1.5247-0.27426-0.96034-0.98497-1.3707-1.6984-1.1669-0.74997 0.21418-0.85328 0.99548-0.9017 1.6919-0.0445 0.53698-0.0942 1.1249-0.55151 1.2555-0.38413 0.10971-0.77868-0.0942-0.94585-0.67951-0.1515-0.53047-0.0443-0.98644 0.15695-1.4594z"
           id="path490"
           style="fill:#6f8ce9;fill-opacity:1" />
      </g>
    </g>
  </g>
</svg>
