<svg enable-background="new 0 0 595.28 841.89" version="1.1" viewBox="0 0 428.37 125" xml:space="preserve" xmlns="http://www.w3.org/2000/svg">
<g transform="translate(-1433.9 -1139.7)"><g>
<rect x="1700.1" y="1178.5" width="57.052" height="21.052" ry="4.4677" fill="#0d123b" fill-opacity=".38431" stroke="#6f7de9" stroke-width=".32"/><g fill="#e9e56f" stroke-width="1.0667px" aria-label="Running"><path d="m1717.7 1187.2v4.1534h0.4667v-1.8334h0.8066l0.92 1.8334h0.5267l-0.96-1.8467c0.5-0.14 0.8467-0.6133 0.8467-1.1667 0-0.4133-0.2067-0.8066-0.5934-1-0.26-0.1333-0.52-0.14-0.7933-0.14zm0.4667 0.44h0.7533c0.1733 0 0.34 0.01 0.5133 0.087 0.26 0.1333 0.3934 0.4 0.3934 0.6667 0 0.2666-0.1267 0.5133-0.3667 0.6333-0.16 0.08-0.32 0.087-0.4867 0.087h-0.8066z"/><path d="m1721 1188.3v1.7c0 0.26 0 0.5266 0.12 0.8 0.1734 0.4 0.5467 0.62 0.9467 0.62 0.38 0 0.74-0.2067 0.94-0.54l-0.01 0.2266c0 0.08 0 0.16 0.013 0.2334h0.5066c-0.033-0.087-0.04-0.1867-0.04-0.2734v-2.7666h-0.48v1.6733c0 0.2333-0.02 0.4133-0.12 0.6-0.14 0.26-0.4133 0.4533-0.7066 0.4533-0.2334 0-0.46-0.1333-0.58-0.3733-0.1067-0.2133-0.1067-0.4533-0.1067-0.6533v-1.7z"/><path d="m1724.4 1191.4h0.4866v-1.7534c0-0.2 0.027-0.3533 0.1534-0.52 0.1133-0.1533 0.4066-0.4266 0.7266-0.4266 0.1534 0 0.3067 0.067 0.4134 0.1933 0.1666 0.2 0.1666 0.46 0.1666 0.6733v1.8334h0.4734v-1.8467c0-0.2333 0-0.4867-0.1067-0.7333-0.1533-0.34-0.4667-0.5334-0.8133-0.5334-0.4134 0-0.7867 0.2667-1.0134 0.6067v-0.5333h-0.4866z"/><path d="m1727.7 1191.4h0.4867v-1.7534c0-0.2 0.027-0.3533 0.1533-0.52 0.1133-0.1533 0.4067-0.4266 0.7267-0.4266 0.1533 0 0.3066 0.067 0.4133 0.1933 0.1667 0.2 0.1667 0.46 0.1667 0.6733v1.8334h0.4733v-1.8467c0-0.2333 0-0.4867-0.1067-0.7333-0.1533-0.34-0.4666-0.5334-0.8133-0.5334-0.4133 0-0.7867 0.2667-1.0133 0.6067v-0.5333h-0.4867z"/><path d="m1731.3 1188.3v0.3933h0.7333v2.2734h-0.7733v0.38h1.9733v-0.38h-0.7133v-2.6667zm0.9866-1.32c-0.1933 0-0.3466 0.1533-0.3466 0.34s0.1533 0.34 0.3466 0.34c0.1934 0 0.3467-0.1533 0.3467-0.34s-0.1533-0.34-0.3467-0.34z"/><path d="m1734.4 1191.4h0.4866v-1.7534c0-0.2 0.027-0.3533 0.1534-0.52 0.1133-0.1533 0.4066-0.4266 0.7266-0.4266 0.1534 0 0.3067 0.067 0.4134 0.1933 0.1666 0.2 0.1666 0.46 0.1666 0.6733v1.8334h0.4734v-1.8467c0-0.2333 0-0.4867-0.1067-0.7333-0.1533-0.34-0.4667-0.5334-0.8133-0.5334-0.4134 0-0.7867 0.2667-1.0134 0.6067v-0.5333h-0.4866z"/><path d="m1738.1 1189.3c0-0.3666 0.3067-0.6666 0.6733-0.6666 0.3734 0 0.6734 0.3 0.6734 0.6666 0 0.3667-0.3 0.6667-0.6734 0.6667-0.3733 0-0.6733-0.3-0.6733-0.6667zm0.7-1.0466c-0.6067 0-1.1333 0.48-1.1333 1.0733 0 0.3333 0.1666 0.6467 0.4466 0.8267-0.22 0.1866-0.3466 0.3933-0.3466 0.5866 0 0.1267 0.053 0.3067 0.2466 0.4067-0.3266 0.2067-0.4933 0.4333-0.4933 0.6733 0 0.3334 0.3067 0.7267 1.3733 0.7267 1.0334 0 1.4067-0.5267 1.4067-0.9333 0-0.2667-0.1533-0.5334-0.4733-0.66-0.32-0.1334-0.6867-0.087-1.0334-0.087-0.2266 0-0.3733-0.02-0.4333-0.04-0.12-0.033-0.1867-0.1067-0.1867-0.2 0-0.16 0.1867-0.3133 0.22-0.34 0.12 0.047 0.2534 0.067 0.3867 0.067 0.6 0 1.0933-0.48 1.0933-1.04 0-0.1867-0.053-0.3667-0.1533-0.52 0.16-0.093 0.3467-0.1467 0.5333-0.1467 0.06 0 0.1134 0.01 0.1734 0.02l-0.053-0.3933c-0.3066-0.027-0.6133 0.073-0.8466 0.2666-0.1934-0.1866-0.4467-0.2866-0.7267-0.2866zm-0.46 2.98c0.1133 0.013 0.2733 0.027 0.5067 0.04 0.2266 0.01 0.4733-0.013 0.6466 0.013 0.28 0.047 0.3667 0.22 0.3667 0.3533 0 0.1334-0.08 0.2934-0.2867 0.4067-0.2266 0.12-0.48 0.1333-0.6866 0.1333-0.14 0-0.4-0.01-0.6267-0.1-0.2467-0.1-0.3-0.2666-0.3-0.3733 0-0.22 0.2067-0.38 0.38-0.4733z"/></g><rect x="1555.5" y="1159.7" width="89.68" height="54.84" ry="6.757e-5" fill="#3b390d" fill-opacity=".38431" stroke="#e9e56f" stroke-width=".32"/><g fill="#e9e56f" stroke-width="1.0667px" aria-label="GameObject"><path d="m1585.2 1165.3c-0.5534 0-1.6067 0.3467-1.6067 2.1667 0 1.5733 0.88 2.0933 1.6 2.0933 0.3867 0 0.8333-0.14 1.22-0.4333v-1.62h-1.18v0.4h0.7533v0.9933c-0.2333 0.1667-0.5 0.2534-0.7466 0.2534-0.2734 0-0.5667-0.1067-0.7934-0.3667-0.3466-0.3933-0.3933-0.98-0.3933-1.4133 0-0.3867 0.047-0.76 0.2067-1.0667 0.2133-0.4067 0.5866-0.5933 0.9333-0.5933 0.3733 0 0.6667 0.2066 0.7933 0.4866 0.02 0.047 0.04 0.1 0.093 0.1334l0.3266-0.3334c-0.24-0.4333-0.6933-0.7-1.2066-0.7z"/><path d="m1587.3 1166.8 0.2334 0.3067c0.2533-0.26 0.5933-0.34 0.88-0.34 0.36 0 0.54 0.1533 0.6266 0.2933 0.1 0.1667 0.093 0.3667 0.093 0.5267v0.1066h-0.093c-0.4533 0-0.9333 0-1.32 0.14-0.48 0.1734-0.6933 0.5334-0.6933 0.8667 0 0.4467 0.3867 0.8667 1.02 0.8667 0.3733 0 0.76-0.14 1.0933-0.4134v0.3334h0.4534v-1.8867c0-0.2467-0.01-0.48-0.1467-0.72-0.2-0.3267-0.5867-0.5-1.06-0.5-0.4067 0-0.8 0.1267-1.0867 0.42zm1.8534 1.26v0.2067c0 0.1533 0 0.3533-0.2067 0.5733-0.1133 0.1133-0.4 0.36-0.8 0.36-0.4067 0-0.64-0.26-0.64-0.5267 0-0.2266 0.1533-0.4733 0.5333-0.5666 0.28-0.067 0.6867-0.047 1.0067-0.047z"/><path d="m1590.3 1169.5h0.44v-2.0267c0-0.1467 0.013-0.28 0.1-0.44 0.1067-0.2 0.24-0.28 0.3667-0.28 0.1067 0 0.2267 0.067 0.28 0.2333 0.04 0.1267 0.033 0.2734 0.033 0.4v2.1134h0.4467v-2.0134c0-0.16 0.013-0.2866 0.1267-0.48 0.053-0.08 0.1666-0.2733 0.3533-0.2733 0.1 0 0.1933 0.06 0.24 0.1733 0.06 0.1267 0.047 0.3 0.047 0.44v2.16h0.4533v-2.1666c0-0.2534 0.01-0.5067-0.1267-0.7134-0.1133-0.1733-0.3066-0.24-0.4733-0.24-0.2933 0-0.5667 0.1734-0.6867 0.44-0.047-0.2533-0.26-0.44-0.5333-0.44-0.2533 0-0.4867 0.16-0.6267 0.3734l0.01-0.3h-0.4467z"/><path d="m1595.1 1166.4c-0.7267 0-1.4 0.52-1.4 1.6267 0 1.02 0.6333 1.56 1.46 1.56 0.44 0 0.8333-0.16 1.0933-0.4733l-0.2666-0.26c-0.1934 0.2266-0.4867 0.3466-0.7867 0.3466-0.4067 0-1-0.2266-1.0333-1.14h2.16c0.02-0.2066 0.013-0.4066-0.02-0.58-0.14-0.82-0.7067-1.08-1.2067-1.08zm-0.92 1.2934c0.1-0.72 0.56-0.9267 0.8867-0.9267 0.4933 0 0.8466 0.4333 0.7866 0.9267z"/><path d="m1599.9 1167.4c0-0.3867-0.027-0.9-0.2533-1.3467-0.2733-0.5333-0.7467-0.78-1.2-0.78-0.62 0-1.4933 0.48-1.4933 2.1134 0 1.6333 0.86 2.1466 1.5 2.1466 0.4466 0 0.9266-0.2533 1.2-0.8066 0.22-0.4467 0.2466-0.96 0.2466-1.3267zm-1.4733-1.6933c0.2933 0 0.6533 0.1733 0.8467 0.66 0.14 0.3466 0.16 0.7466 0.16 1.0933 0 0.2733-0.013 0.7-0.1867 1.0533-0.1933 0.4067-0.5133 0.5667-0.7933 0.5667-0.4667 0-1.04-0.4333-1.04-1.7533 0-1.24 0.58-1.62 1.0133-1.62z"/><path d="m1600.4 1165v4.4334h0.3133l0.1667-0.4c0.2 0.3 0.5333 0.48 0.9 0.48 0.6267 0 1.2733-0.5334 1.2733-1.64 0-1.06-0.6266-1.5534-1.2266-1.5534-0.3867 0-0.7467 0.2067-0.94 0.54v-1.7066c0-0.04 0.01-0.053 0.04-0.08 0.013-0.01 0.047-0.033 0.04-0.073zm1.26 1.7334c0.2867 0 0.8933 0.1666 0.8933 1.2466 0 0.9267-0.6 1.1-0.9 1.1-0.2066 0-0.6666-0.08-0.7466-0.6666-0.02-0.1534-0.02-0.3334-0.02-0.6 0-0.2734 0.013-0.4734 0.08-0.64 0.1133-0.2734 0.3933-0.44 0.6933-0.44z"/><path d="m1604.2 1166.4v0.4h1.14v2.5267c0 0.1666-0.01 0.3266-0.08 0.4866-0.1133 0.2467-0.3533 0.3867-0.6133 0.3867-0.3667 0-0.5667-0.2667-0.5933-0.3067-0.027-0.047-0.013-0.087-0.06-0.12l-0.3067 0.4134c0.22 0.2733 0.5533 0.4266 0.9267 0.4266 0.44 0 0.86-0.2066 1.0666-0.6066 0.1334-0.26 0.14-0.5067 0.14-0.7667v-2.84zm1.3867-1.32c-0.1933 0-0.3467 0.1533-0.3467 0.34s0.1534 0.34 0.3467 0.34c0.1867 0 0.34-0.1533 0.34-0.34s-0.1533-0.34-0.34-0.34z"/><path d="m1608.4 1166.4c-0.7266 0-1.4 0.52-1.4 1.6267 0 1.02 0.6334 1.56 1.46 1.56 0.44 0 0.8334-0.16 1.0934-0.4733l-0.2667-0.26c-0.1933 0.2266-0.4867 0.3466-0.7867 0.3466-0.4066 0-1-0.2266-1.0333-1.14h2.16c0.02-0.2066 0.013-0.4066-0.02-0.58-0.14-0.82-0.7067-1.08-1.2067-1.08zm-0.92 1.2934c0.1-0.72 0.56-0.9267 0.8867-0.9267 0.4933 0 0.8467 0.4333 0.7867 0.9267z"/><path d="m1613.1 1166.9c-0.24-0.3534-0.6467-0.5667-1.14-0.5667-0.8934 0-1.5267 0.6733-1.5267 1.5867 0 0.92 0.6333 1.6 1.5 1.6 0.42 0 0.8333-0.1734 1.12-0.4867l-0.2733-0.32c-0.2067 0.2333-0.5067 0.3667-0.8067 0.3667-0.5933 0-1.0467-0.4934-1.0467-1.2067 0-0.6933 0.4467-1.1267 1.0067-1.1267 0.52 0 0.7667 0.36 0.7867 0.4 0.027 0.047-0.013 0.1134 0.04 0.1534z"/><path d="m1614.6 1165.6-0.06 0.82h-0.7266l-0.01 0.3933h0.7133c-0.04 0.52-0.06 1.04-0.06 1.5533 0 0.2734 0 0.58 0.18 0.8334 0.1467 0.2 0.38 0.32 0.6934 0.32 0.36 0 0.7133-0.1534 0.9733-0.34l-0.1467-0.38c-0.26 0.1933-0.5 0.28-0.6866 0.28-0.2267 0-0.46-0.1267-0.5134-0.4934 0-0.027-0.02-0.14-0.02-0.5866 0-0.3934 0.02-0.7934 0.06-1.1867h1v-0.4h-0.9933s0.047-0.5467 0.08-0.72c0.01-0.067 0.06-0.1067 0.033-0.18z"/></g><rect x="1560.5" y="1179.9" width="79.68" height="29.68" ry="3.657e-5" fill="#3b390d" fill-opacity=".38431" stroke="#e9e56f" stroke-width=".32"/><g fill="#e9e56f" stroke-width="1.0667px" aria-label="componentsToAdd"><path d="m1576.4 1186.9c-0.24-0.3534-0.6467-0.5667-1.14-0.5667-0.8933 0-1.5267 0.6733-1.5267 1.5867 0 0.92 0.6334 1.6 1.5 1.6 0.42 0 0.8334-0.1734 1.12-0.4867l-0.2733-0.32c-0.2067 0.2333-0.5067 0.3667-0.8067 0.3667-0.5933 0-1.0466-0.4934-1.0466-1.2067 0-0.6933 0.4466-1.1267 1.0066-1.1267 0.52 0 0.7667 0.36 0.7867 0.4 0.027 0.047-0.013 0.1134 0.04 0.1534z"/><path d="m1579.8 1188c0-1.0533-0.6667-1.6-1.36-1.6-0.7733 0-1.44 0.6667-1.44 1.6133 0 0.9267 0.66 1.58 1.4267 1.58 0.72 0 1.3733-0.58 1.3733-1.5933zm-1.3933-1.1933c0.44 0 0.9066 0.38 0.9066 1.2133 0 0.7667-0.44 1.1533-0.88 1.1533-0.4866 0-0.9266-0.4533-0.9266-1.2066 0-0.7467 0.4333-1.16 0.9-1.16z"/><path d="m1580.3 1189.5h0.44v-2.0267c0-0.1467 0.013-0.28 0.1-0.44 0.1067-0.2 0.24-0.28 0.3667-0.28 0.1067 0 0.2267 0.067 0.28 0.2333 0.04 0.1267 0.033 0.2734 0.033 0.4v2.1134h0.4467v-2.0134c0-0.16 0.013-0.2866 0.1267-0.48 0.053-0.08 0.1666-0.2733 0.3533-0.2733 0.1 0 0.1933 0.06 0.24 0.1733 0.06 0.1267 0.047 0.3 0.047 0.44v2.16h0.4533v-2.1666c0-0.2534 0.01-0.5067-0.1267-0.7134-0.1133-0.1733-0.3066-0.24-0.4733-0.24-0.2933 0-0.5667 0.1734-0.6867 0.44-0.047-0.2533-0.26-0.44-0.5333-0.44-0.2533 0-0.4867 0.16-0.6267 0.3734l0.01-0.3h-0.4467z"/><path d="m1583.8 1186.4 0.01 4.1533h0.4867v-1.5133c0.2066 0.3 0.5466 0.4866 0.9133 0.4866 0.6267 0 1.28-0.5266 1.28-1.64 0-1.0733-0.6333-1.5533-1.2333-1.5533-0.3934 0-0.76 0.2-0.9667 0.5333v-0.4666zm1.2734 0.34c0.2666 0 0.9133 0.14 0.9133 1.2466 0 0.96-0.6267 1.1134-0.9133 1.1134-0.2867 0-0.58-0.1467-0.7-0.42-0.087-0.2067-0.087-0.46-0.087-0.9 0-0.2534 0.013-0.44 0.08-0.6 0.12-0.2734 0.4-0.44 0.7067-0.44z"/><path d="m1589.8 1188c0-1.0533-0.6667-1.6-1.36-1.6-0.7733 0-1.44 0.6667-1.44 1.6133 0 0.9267 0.66 1.58 1.4267 1.58 0.72 0 1.3733-0.58 1.3733-1.5933zm-1.3933-1.1933c0.44 0 0.9066 0.38 0.9066 1.2133 0 0.7667-0.44 1.1533-0.88 1.1533-0.4866 0-0.9266-0.4533-0.9266-1.2066 0-0.7467 0.4333-1.16 0.9-1.16z"/><path d="m1590.5 1189.5h0.4867v-1.7534c0-0.2 0.027-0.3533 0.1533-0.52 0.1133-0.1533 0.4067-0.4266 0.7267-0.4266 0.1533 0 0.3066 0.067 0.4133 0.1933 0.1667 0.2 0.1667 0.46 0.1667 0.6733v1.8334h0.4733v-1.8467c0-0.2333 0-0.4867-0.1067-0.7333-0.1533-0.34-0.4666-0.5334-0.8133-0.5334-0.4133 0-0.7867 0.2667-1.0133 0.6067v-0.5333h-0.4867z"/><path d="m1595.1 1186.4c-0.7267 0-1.4 0.52-1.4 1.6267 0 1.02 0.6333 1.56 1.46 1.56 0.44 0 0.8333-0.16 1.0933-0.4733l-0.2666-0.26c-0.1934 0.2266-0.4867 0.3466-0.7867 0.3466-0.4067 0-1-0.2266-1.0333-1.14h2.16c0.02-0.2066 0.013-0.4066-0.02-0.58-0.14-0.82-0.7067-1.08-1.2067-1.08zm-0.92 1.2934c0.1-0.72 0.56-0.9267 0.8867-0.9267 0.4933 0 0.8466 0.4333 0.7866 0.9267z"/><path d="m1597.2 1189.5h0.4866v-1.7534c0-0.2 0.027-0.3533 0.1534-0.52 0.1133-0.1533 0.4066-0.4266 0.7266-0.4266 0.1534 0 0.3067 0.067 0.4134 0.1933 0.1666 0.2 0.1666 0.46 0.1666 0.6733v1.8334h0.4734v-1.8467c0-0.2333 0-0.4867-0.1067-0.7333-0.1533-0.34-0.4667-0.5334-0.8133-0.5334-0.4134 0-0.7867 0.2667-1.0134 0.6067v-0.5333h-0.4866z"/><path d="m1601.3 1185.6-0.06 0.82h-0.7267l-0.01 0.3933h0.7133c-0.04 0.52-0.06 1.04-0.06 1.5533 0 0.2734 0 0.58 0.18 0.8334 0.1467 0.2 0.38 0.32 0.6933 0.32 0.36 0 0.7134-0.1534 0.9734-0.34l-0.1467-0.38c-0.26 0.1933-0.5 0.28-0.6867 0.28-0.2266 0-0.46-0.1267-0.5133-0.4934 0-0.027-0.02-0.14-0.02-0.5866 0-0.3934 0.02-0.7934 0.06-1.1867h1v-0.4h-0.9933s0.047-0.5467 0.08-0.72c0.01-0.067 0.06-0.1067 0.033-0.18z"/><path d="m1606.3 1186.8c-0.28-0.3067-0.6867-0.4734-1.14-0.4734-0.7067 0-1.1667 0.3934-1.1667 0.8467 0 0.5333 0.5734 0.7267 0.74 0.7867 0.26 0.093 0.5934 0.1733 0.82 0.28 0.2534 0.12 0.3 0.28 0.3 0.3866 0 0.2867-0.3466 0.48-0.78 0.48-0.52 0-0.8533-0.3133-0.9533-0.42-0.02-0.027-0.02-0.047-0.02-0.073 0-0.01 0.01-0.047-0.027-0.06l-0.28 0.4733c0.36 0.3334 0.8267 0.4867 1.2867 0.4867 0.8333 0 1.2667-0.4933 1.2667-0.9533 0-0.2067-0.087-0.4867-0.4467-0.6867-0.34-0.1933-0.8333-0.26-1.12-0.4-0.2467-0.12-0.3-0.2667-0.3-0.3733 0-0.24 0.3-0.4134 0.64-0.4134 0.44 0 0.7333 0.2667 0.8467 0.42 0.02 0.02 0.013 0.04 0.013 0.06 0 0.04 0.027 0.053 0.04 0.053z"/><path d="m1606.9 1185.3v0.42h1.1733v3.74h0.4734v-3.74h1.2266v-0.42z"/><path d="m1613.1 1188c0-1.0533-0.6666-1.6-1.36-1.6-0.7733 0-1.44 0.6667-1.44 1.6133 0 0.9267 0.66 1.58 1.4267 1.58 0.72 0 1.3733-0.58 1.3733-1.5933zm-1.3933-1.1933c0.44 0 0.9067 0.38 0.9067 1.2133 0 0.7667-0.44 1.1533-0.88 1.1533-0.4867 0-0.9267-0.4533-0.9267-1.2066 0-0.7467 0.4333-1.16 0.9-1.16z"/><path d="m1613.5 1189.5h0.46l0.4067-1.22h1.3133l0.46 1.2134h0.4867l-1.6067-4.2267h-0.053zm2.08-1.58h-1.1266l0.54-1.58z"/><path d="m1619.2 1186.9c-0.1467-0.3134-0.4734-0.52-0.8934-0.52-0.58 0-1.2866 0.4133-1.2866 1.5733 0 1.1267 0.6266 1.62 1.2133 1.62 0.3867 0 0.7467-0.22 0.94-0.56v0.2667c0 0.073 0.01 0.1466 0.027 0.22h0.48c-0.027-0.087-0.027-0.1867-0.027-0.28l-0.01-3.96c0-0.04 0-0.053 0.027-0.093 0.013-0.02 0.04-0.053 0.033-0.1h-0.5066zm-0.8734-0.1267c0.2667 0 0.66 0.14 0.78 0.5933 0.04 0.14 0.053 0.3067 0.053 0.6467 0 0.2333-0.013 0.4-0.067 0.56-0.1133 0.36-0.4333 0.5733-0.7467 0.5733-0.3466 0-0.86-0.2666-0.86-1.2666 0-0.8734 0.4867-1.1067 0.84-1.1067z"/><path d="m1622.5 1186.9c-0.1467-0.3134-0.4733-0.52-0.8933-0.52-0.58 0-1.2867 0.4133-1.2867 1.5733 0 1.1267 0.6267 1.62 1.2133 1.62 0.3867 0 0.7467-0.22 0.94-0.56v0.2667c0 0.073 0.01 0.1466 0.027 0.22h0.48c-0.027-0.087-0.027-0.1867-0.027-0.28l-0.01-3.96c0-0.04 0-0.053 0.027-0.093 0.013-0.02 0.04-0.053 0.033-0.1h-0.5067zm-0.8733-0.1267c0.2666 0 0.66 0.14 0.78 0.5933 0.04 0.14 0.053 0.3067 0.053 0.6467 0 0.2333-0.013 0.4-0.067 0.56-0.1133 0.36-0.4333 0.5733-0.7466 0.5733-0.3467 0-0.86-0.2666-0.86-1.2666 0-0.8734 0.4866-1.1067 0.84-1.1067z"/></g></g><g fill="#0d123b" fill-opacity=".38431" stroke="#6f7de9" stroke-width=".32"><rect x="1565.5" y="1194.9" width="9.68" height="9.68" ry="1.1927e-5"/><rect x="1580.5" y="1194.9" width="9.68" height="9.68" ry="1.1927e-5"/><rect x="1595.5" y="1194.9" width="9.68" height="9.68" ry="1.1927e-5"/><rect x="1610.5" y="1194.9" width="9.68" height="9.68" ry="1.1927e-5"/><rect x="1625.5" y="1194.9" width="9.68" height="9.68" ry="1.1927e-5"/></g><g><g fill="#e9e56f" stroke-width="1.0667px" aria-label="constructor()"><path d="m1449 1153.6c-0.24-0.3534-0.6467-0.5667-1.14-0.5667-0.8934 0-1.5267 0.6733-1.5267 1.5867 0 0.92 0.6333 1.6 1.5 1.6 0.42 0 0.8333-0.1734 1.12-0.4867l-0.2733-0.32c-0.2067 0.2333-0.5067 0.3667-0.8067 0.3667-0.5933 0-1.0467-0.4934-1.0467-1.2067 0-0.6933 0.4467-1.1267 1.0067-1.1267 0.52 0 0.7667 0.36 0.7867 0.4 0.027 0.047-0.013 0.1134 0.04 0.1534z"/><path d="m1452.3 1154.6c0-1.0533-0.6667-1.6-1.36-1.6-0.7734 0-1.44 0.6667-1.44 1.6133 0 0.9267 0.66 1.58 1.4266 1.58 0.72 0 1.3734-0.58 1.3734-1.5933zm-1.3934-1.1933c0.44 0 0.9067 0.38 0.9067 1.2133 0 0.7667-0.44 1.1533-0.88 1.1533-0.4867 0-0.9267-0.4533-0.9267-1.2066 0-0.7467 0.4334-1.16 0.9-1.16z"/><path d="m1453 1156.1h0.4866v-1.7534c0-0.2 0.027-0.3533 0.1534-0.52 0.1133-0.1533 0.4066-0.4266 0.7266-0.4266 0.1534 0 0.3067 0.067 0.4134 0.1933 0.1666 0.2 0.1666 0.46 0.1666 0.6733v1.8334h0.4734v-1.8467c0-0.2333 0-0.4867-0.1067-0.7333-0.1533-0.34-0.4667-0.5334-0.8133-0.5334-0.4134 0-0.7867 0.2667-1.0134 0.6067v-0.5333h-0.4866z"/><path d="m1458.8 1153.5c-0.28-0.3067-0.6867-0.4734-1.14-0.4734-0.7067 0-1.1667 0.3934-1.1667 0.8467 0 0.5333 0.5733 0.7267 0.74 0.7867 0.26 0.093 0.5933 0.1733 0.82 0.28 0.2533 0.12 0.3 0.28 0.3 0.3866 0 0.2867-0.3467 0.48-0.78 0.48-0.52 0-0.8533-0.3133-0.9533-0.42-0.02-0.027-0.02-0.047-0.02-0.073 0-0.01 0.01-0.047-0.027-0.06l-0.28 0.4733c0.36 0.3334 0.8267 0.4867 1.2867 0.4867 0.8333 0 1.2666-0.4933 1.2666-0.9533 0-0.2067-0.087-0.4867-0.4466-0.6867-0.34-0.1933-0.8334-0.26-1.12-0.4-0.2467-0.12-0.3-0.2667-0.3-0.3733 0-0.24 0.3-0.4134 0.64-0.4134 0.44 0 0.7333 0.2667 0.8466 0.42 0.02 0.02 0.013 0.04 0.013 0.06 0 0.04 0.027 0.053 0.04 0.053z"/><path d="m1460.5 1152.3-0.06 0.82h-0.7266l-0.01 0.3933h0.7133c-0.04 0.52-0.06 1.04-0.06 1.5533 0 0.2734 0 0.58 0.18 0.8334 0.1467 0.2 0.38 0.32 0.6934 0.32 0.36 0 0.7133-0.1534 0.9733-0.34l-0.1467-0.38c-0.26 0.1933-0.5 0.28-0.6866 0.28-0.2267 0-0.46-0.1267-0.5134-0.4934 0-0.027-0.02-0.14-0.02-0.5866 0-0.3934 0.02-0.7934 0.06-1.1867h1v-0.4h-0.9933s0.047-0.5467 0.08-0.72c0.01-0.067 0.06-0.1067 0.033-0.18z"/><path d="m1463.2 1153.1v3.0466h0.48v-1.48c0-0.1866 0.01-0.3866 0.2134-0.7133 0.28-0.44 0.64-0.5133 0.86-0.5133 0.2533 0 0.4133 0.12 0.5 0.2266 0.04 0.053 0.06 0.1067 0.1133 0.1534l0.2267-0.46c-0.1934-0.2-0.4734-0.3334-0.8134-0.3334-0.4466 0-0.9 0.2267-1.1 0.66l0.02-0.5866z"/><path d="m1466.3 1153.1v1.7c0 0.26 0 0.5266 0.12 0.8 0.1733 0.4 0.5467 0.62 0.9467 0.62 0.38 0 0.74-0.2067 0.94-0.54l-0.01 0.2266c0 0.08 0 0.16 0.013 0.2334h0.5067c-0.033-0.087-0.04-0.1867-0.04-0.2734v-2.7666h-0.48v1.6733c0 0.2333-0.02 0.4133-0.12 0.6-0.14 0.26-0.4133 0.4533-0.7067 0.4533-0.2333 0-0.46-0.1333-0.58-0.3733-0.1066-0.2133-0.1066-0.4533-0.1066-0.6533v-1.7z"/><path d="m1472.3 1153.6c-0.24-0.3534-0.6467-0.5667-1.14-0.5667-0.8933 0-1.5267 0.6733-1.5267 1.5867 0 0.92 0.6334 1.6 1.5 1.6 0.42 0 0.8334-0.1734 1.12-0.4867l-0.2733-0.32c-0.2067 0.2333-0.5067 0.3667-0.8067 0.3667-0.5933 0-1.0466-0.4934-1.0466-1.2067 0-0.6933 0.4466-1.1267 1.0066-1.1267 0.52 0 0.7667 0.36 0.7867 0.4 0.027 0.047-0.013 0.1134 0.04 0.1534z"/><path d="m1473.8 1152.3-0.06 0.82h-0.7267l-0.01 0.3933h0.7134c-0.04 0.52-0.06 1.04-0.06 1.5533 0 0.2734 0 0.58 0.18 0.8334 0.1466 0.2 0.38 0.32 0.6933 0.32 0.36 0 0.7133-0.1534 0.9733-0.34l-0.1466-0.38c-0.26 0.1933-0.5 0.28-0.6867 0.28-0.2267 0-0.46-0.1267-0.5133-0.4934 0-0.027-0.02-0.14-0.02-0.5866 0-0.3934 0.02-0.7934 0.06-1.1867h1v-0.4h-0.9934s0.047-0.5467 0.08-0.72c0.01-0.067 0.06-0.1067 0.033-0.18z"/><path d="m1479 1154.6c0-1.0533-0.6666-1.6-1.36-1.6-0.7733 0-1.44 0.6667-1.44 1.6133 0 0.9267 0.66 1.58 1.4267 1.58 0.72 0 1.3733-0.58 1.3733-1.5933zm-1.3933-1.1933c0.44 0 0.9067 0.38 0.9067 1.2133 0 0.7667-0.44 1.1533-0.88 1.1533-0.4867 0-0.9267-0.4533-0.9267-1.2066 0-0.7467 0.4333-1.16 0.9-1.16z"/><path d="m1479.9 1153.1v3.0466h0.48v-1.48c0-0.1866 0.01-0.3866 0.2133-0.7133 0.28-0.44 0.64-0.5133 0.86-0.5133 0.2534 0 0.4134 0.12 0.5 0.2266 0.04 0.053 0.06 0.1067 0.1134 0.1534l0.2266-0.46c-0.1933-0.2-0.4733-0.3334-0.8133-0.3334-0.4467 0-0.9 0.2267-1.1 0.66l0.02-0.5866z"/><path d="m1485.2 1151.7c-1.0267 0.4533-1.6867 1.5-1.6867 2.72 0 1.2133 0.64 2.32 1.6934 2.8733l0.22-0.3533c-0.9134-0.5267-1.4467-1.5067-1.4467-2.54 0-0.9534 0.46-1.8067 1.24-2.26 0.013-0.013 0.033-0.027 0.06-0.027 0.02 0 0.04 0.013 0.067 0.013 0.013 0 0.033-0.01 0.06-0.013z"/><path d="m1486.4 1152.1c0.88 0.4733 1.44 1.38 1.44 2.3733 0 1-0.5733 1.9333-1.4733 2.4067l0.1266 0.4066c1.1067-0.5266 1.82-1.6333 1.82-2.8333 0-1.1867-0.7-2.2667-1.7866-2.7667z"/></g><g fill="#e9e56f" stroke-width="1.0667px" aria-label="addComponent()"><path d="m1503.6 1183.8 0.2333 0.3067c0.2534-0.26 0.5934-0.34 0.88-0.34 0.36 0 0.54 0.1533 0.6267 0.2933 0.1 0.1667 0.093 0.3667 0.093 0.5267v0.1066h-0.093c-0.4533 0-0.9333 0-1.32 0.14-0.48 0.1734-0.6933 0.5334-0.6933 0.8667 0 0.4467 0.3866 0.8667 1.02 0.8667 0.3733 0 0.76-0.14 1.0933-0.4134v0.3334h0.4533v-1.8867c0-0.2467-0.01-0.48-0.1466-0.72-0.2-0.3267-0.5867-0.5-1.06-0.5-0.4067 0-0.8 0.1267-1.0867 0.42zm1.8533 1.26v0.2067c0 0.1533 0 0.3533-0.2066 0.5733-0.1134 0.1133-0.4 0.36-0.8 0.36-0.4067 0-0.64-0.26-0.64-0.5267 0-0.2266 0.1533-0.4733 0.5333-0.5666 0.28-0.067 0.6867-0.047 1.0067-0.047z"/><path d="m1508.8 1183.9c-0.1467-0.3134-0.4734-0.52-0.8934-0.52-0.58 0-1.2866 0.4133-1.2866 1.5733 0 1.1267 0.6266 1.62 1.2133 1.62 0.3867 0 0.7467-0.22 0.94-0.56v0.2667c0 0.073 0.01 0.1466 0.027 0.22h0.48c-0.027-0.087-0.027-0.1867-0.027-0.28l-0.01-3.96c0-0.04 0-0.053 0.027-0.093 0.013-0.02 0.04-0.053 0.033-0.1h-0.5066zm-0.8734-0.1267c0.2667 0 0.66 0.14 0.78 0.5933 0.04 0.14 0.053 0.3067 0.053 0.6467 0 0.2333-0.013 0.4-0.067 0.56-0.1133 0.36-0.4333 0.5733-0.7467 0.5733-0.3466 0-0.86-0.2666-0.86-1.2666 0-0.8734 0.4867-1.1067 0.84-1.1067z"/><path d="m1512.1 1183.9c-0.1467-0.3134-0.4733-0.52-0.8933-0.52-0.58 0-1.2867 0.4133-1.2867 1.5733 0 1.1267 0.6267 1.62 1.2133 1.62 0.3867 0 0.7467-0.22 0.94-0.56v0.2667c0 0.073 0.01 0.1466 0.027 0.22h0.48c-0.027-0.087-0.027-0.1867-0.027-0.28l-0.01-3.96c0-0.04 0-0.053 0.027-0.093 0.013-0.02 0.04-0.053 0.033-0.1h-0.5067zm-0.8733-0.1267c0.2666 0 0.66 0.14 0.78 0.5933 0.04 0.14 0.053 0.3067 0.053 0.6467 0 0.2333-0.013 0.4-0.067 0.56-0.1133 0.36-0.4333 0.5733-0.7466 0.5733-0.3467 0-0.86-0.2666-0.86-1.2666 0-0.8734 0.4866-1.1067 0.84-1.1067z"/><path d="m1514.8 1182.3c-0.6467 0-1.58 0.4733-1.58 2.14 0 1.6 0.8933 2.12 1.58 2.12 0.4933 0 0.9533-0.26 1.2133-0.6867l-0.34-0.22c-0.1933 0.3134-0.5267 0.5-0.8467 0.5-0.6133 0-1.1533-0.6333-1.1533-1.76 0-1.1 0.5267-1.72 1.1133-1.72 0.32 0 0.6267 0.1934 0.7934 0.4867 0.013 0.02 0.027 0.04 0.027 0.067 0 0.02-0.01 0.033-0.01 0.053 0 0.01 0 0.04 0.033 0.06l0.44-0.2133c-0.22-0.5-0.72-0.8267-1.2733-0.8267z"/><path d="m1519.4 1185c0-1.0533-0.6667-1.6-1.36-1.6-0.7733 0-1.44 0.6667-1.44 1.6133 0 0.9267 0.66 1.58 1.4267 1.58 0.72 0 1.3733-0.58 1.3733-1.5933zm-1.3933-1.1933c0.44 0 0.9066 0.38 0.9066 1.2133 0 0.7667-0.44 1.1533-0.88 1.1533-0.4866 0-0.9266-0.4533-0.9266-1.2066 0-0.7467 0.4333-1.16 0.9-1.16z"/><path d="m1519.9 1186.5h0.44v-2.0267c0-0.1467 0.013-0.28 0.1-0.44 0.1067-0.2 0.24-0.28 0.3667-0.28 0.1067 0 0.2267 0.067 0.28 0.2333 0.04 0.1267 0.033 0.2734 0.033 0.4v2.1134h0.4467v-2.0134c0-0.16 0.013-0.2866 0.1267-0.48 0.053-0.08 0.1666-0.2733 0.3533-0.2733 0.1 0 0.1933 0.06 0.24 0.1733 0.06 0.1267 0.047 0.3 0.047 0.44v2.16h0.4533v-2.1666c0-0.2534 0.01-0.5067-0.1267-0.7134-0.1133-0.1733-0.3066-0.24-0.4733-0.24-0.2933 0-0.5667 0.1734-0.6867 0.44-0.047-0.2533-0.26-0.44-0.5333-0.44-0.2533 0-0.4867 0.16-0.6267 0.3734l0.01-0.3h-0.4467z"/><path d="m1523.4 1183.5 0.01 4.1533h0.4867v-1.5133c0.2066 0.3 0.5466 0.4866 0.9133 0.4866 0.6267 0 1.28-0.5266 1.28-1.64 0-1.0733-0.6333-1.5533-1.2333-1.5533-0.3934 0-0.76 0.2-0.9667 0.5333v-0.4666zm1.2734 0.34c0.2666 0 0.9133 0.14 0.9133 1.2466 0 0.96-0.6267 1.1134-0.9133 1.1134-0.2867 0-0.58-0.1467-0.7-0.42-0.087-0.2067-0.087-0.46-0.087-0.9 0-0.2534 0.013-0.44 0.08-0.6 0.12-0.2734 0.4-0.44 0.7067-0.44z"/><path d="m1529.4 1185c0-1.0533-0.6667-1.6-1.36-1.6-0.7733 0-1.44 0.6667-1.44 1.6133 0 0.9267 0.66 1.58 1.4267 1.58 0.72 0 1.3733-0.58 1.3733-1.5933zm-1.3933-1.1933c0.44 0 0.9066 0.38 0.9066 1.2133 0 0.7667-0.44 1.1533-0.88 1.1533-0.4866 0-0.9266-0.4533-0.9266-1.2066 0-0.7467 0.4333-1.16 0.9-1.16z"/><path d="m1530.1 1186.5h0.4867v-1.7534c0-0.2 0.027-0.3533 0.1533-0.52 0.1133-0.1533 0.4067-0.4266 0.7267-0.4266 0.1533 0 0.3066 0.067 0.4133 0.1933 0.1667 0.2 0.1667 0.46 0.1667 0.6733v1.8334h0.4733v-1.8467c0-0.2333 0-0.4867-0.1067-0.7333-0.1533-0.34-0.4666-0.5334-0.8133-0.5334-0.4133 0-0.7867 0.2667-1.0133 0.6067v-0.5333h-0.4867z"/><path d="m1534.7 1183.4c-0.7267 0-1.4 0.52-1.4 1.6267 0 1.02 0.6333 1.56 1.46 1.56 0.44 0 0.8333-0.16 1.0933-0.4733l-0.2666-0.26c-0.1934 0.2266-0.4867 0.3466-0.7867 0.3466-0.4067 0-1-0.2266-1.0333-1.14h2.16c0.02-0.2066 0.013-0.4066-0.02-0.58-0.14-0.82-0.7067-1.08-1.2067-1.08zm-0.92 1.2934c0.1-0.72 0.56-0.9267 0.8867-0.9267 0.4933 0 0.8466 0.4333 0.7866 0.9267z"/><path d="m1536.8 1186.5h0.4866v-1.7534c0-0.2 0.027-0.3533 0.1534-0.52 0.1133-0.1533 0.4066-0.4266 0.7266-0.4266 0.1534 0 0.3067 0.067 0.4134 0.1933 0.1666 0.2 0.1666 0.46 0.1666 0.6733v1.8334h0.4734v-1.8467c0-0.2333 0-0.4867-0.1067-0.7333-0.1533-0.34-0.4667-0.5334-0.8133-0.5334-0.4134 0-0.7867 0.2667-1.0134 0.6067v-0.5333h-0.4866z"/><path d="m1540.9 1182.7-0.06 0.82h-0.7267l-0.01 0.3933h0.7133c-0.04 0.52-0.06 1.04-0.06 1.5533 0 0.2734 0 0.58 0.18 0.8334 0.1467 0.2 0.38 0.32 0.6933 0.32 0.36 0 0.7134-0.1534 0.9734-0.34l-0.1467-0.38c-0.26 0.1933-0.5 0.28-0.6867 0.28-0.2266 0-0.46-0.1267-0.5133-0.4934 0-0.027-0.02-0.14-0.02-0.5866 0-0.3934 0.02-0.7934 0.06-1.1867h1v-0.4h-0.9933s0.047-0.5467 0.08-0.72c0.01-0.067 0.06-0.1067 0.033-0.18z"/><path d="m1545.6 1182.1c-1.0267 0.4533-1.6867 1.5-1.6867 2.72 0 1.2133 0.64 2.32 1.6933 2.8733l0.22-0.3533c-0.9133-0.5267-1.4466-1.5067-1.4466-2.54 0-0.9534 0.46-1.8067 1.24-2.26 0.013-0.013 0.033-0.027 0.06-0.027 0.02 0 0.04 0.013 0.067 0.013 0.013 0 0.033-0.01 0.06-0.013z"/><path d="m1546.8 1182.5c0.88 0.4733 1.44 1.38 1.44 2.3733 0 1-0.5734 1.9333-1.4734 2.4067l0.1267 0.4066c1.1067-0.5266 1.82-1.6333 1.82-2.8333 0-1.1867-0.7-2.2667-1.7867-2.7667z"/></g><path d="m1757.2 1189.7h40" fill="none" stroke="#d54747" stroke-width="1.067"/></g><g transform="matrix(.0044362 -1.0667 1.0667 .0044362 1501.5 1722.1)"><path d="m501.47 274.25-1.2053 3.2778-1.2053-3.2778c0.71162 0.52365 1.6852 0.52064 2.4106 0z" fill="#fff" fill-rule="evenodd" stroke="#d54747" stroke-linejoin="round" stroke-width=".1875"/></g><g><rect x="1800.1" y="1178.5" width="57.052" height="21.052" ry="4.4677" fill="#0d123b" fill-opacity=".38431" stroke="#6f7de9" stroke-width=".32"/><g fill="#e9e56f" stroke-width="1.0667px" aria-label="Finished"><path d="m1815.8 1187.2v4.1534h0.4733v-2.04h1.5534v-0.4h-1.5534v-1.3067h1.92v-0.4067z"/><path d="m1819.3 1188.3v0.3933h0.7333v2.2734h-0.7733v0.38h1.9733v-0.38h-0.7133v-2.6667zm0.9866-1.32c-0.1933 0-0.3466 0.1533-0.3466 0.34s0.1533 0.34 0.3466 0.34c0.1934 0 0.3467-0.1533 0.3467-0.34s-0.1533-0.34-0.3467-0.34z"/><path d="m1822.4 1191.4h0.4866v-1.7534c0-0.2 0.027-0.3533 0.1534-0.52 0.1133-0.1533 0.4066-0.4266 0.7266-0.4266 0.1534 0 0.3067 0.067 0.4134 0.1933 0.1666 0.2 0.1666 0.46 0.1666 0.6733v1.8334h0.4734v-1.8467c0-0.2333 0-0.4867-0.1067-0.7333-0.1533-0.34-0.4667-0.5334-0.8133-0.5334-0.4134 0-0.7867 0.2667-1.0134 0.6067v-0.5333h-0.4866z"/><path d="m1826 1188.3v0.3933h0.7334v2.2734h-0.7734v0.38h1.9734v-0.38h-0.7134v-2.6667zm0.9867-1.32c-0.1933 0-0.3467 0.1533-0.3467 0.34s0.1534 0.34 0.3467 0.34 0.3467-0.1533 0.3467-0.34-0.1534-0.34-0.3467-0.34z"/><path d="m1831.5 1188.7c-0.28-0.3067-0.6867-0.4734-1.14-0.4734-0.7067 0-1.1667 0.3934-1.1667 0.8467 0 0.5333 0.5734 0.7267 0.74 0.7867 0.26 0.093 0.5934 0.1733 0.82 0.28 0.2534 0.12 0.3 0.28 0.3 0.3866 0 0.2867-0.3466 0.48-0.78 0.48-0.52 0-0.8533-0.3133-0.9533-0.42-0.02-0.027-0.02-0.047-0.02-0.073 0-0.01 0.01-0.047-0.027-0.06l-0.28 0.4733c0.36 0.3334 0.8267 0.4867 1.2867 0.4867 0.8333 0 1.2667-0.4933 1.2667-0.9533 0-0.2067-0.087-0.4867-0.4467-0.6867-0.34-0.1933-0.8333-0.26-1.12-0.4-0.2467-0.12-0.3-0.2667-0.3-0.3733 0-0.24 0.3-0.4134 0.64-0.4134 0.44 0 0.7333 0.2667 0.8467 0.42 0.02 0.02 0.013 0.04 0.013 0.06 0 0.04 0.027 0.053 0.04 0.053z"/><path d="m1832.4 1191.4h0.4934v-1.7534c0-0.2 0.02-0.3533 0.1466-0.52 0.12-0.1533 0.4134-0.4266 0.7334-0.4266 0.1533 0 0.3066 0.067 0.4133 0.1933 0.1667 0.2 0.1667 0.46 0.1667 0.6733v1.8334h0.4733v-1.8467c0-0.2333-0.01-0.4867-0.1133-0.7333-0.1534-0.34-0.46-0.5334-0.8067-0.5334-0.4133 0-0.7933 0.2667-1.0133 0.6067v-1.7667c0-0.02 0-0.04 0.02-0.06s0.047-0.04 0.047-0.073c0-0.01 0-0.013-0.01-0.02h-0.5534z"/><path d="m1837 1188.2c-0.7267 0-1.4 0.52-1.4 1.6267 0 1.02 0.6333 1.56 1.46 1.56 0.44 0 0.8333-0.16 1.0933-0.4733l-0.2667-0.26c-0.1933 0.2266-0.4866 0.3466-0.7866 0.3466-0.4067 0-1-0.2266-1.0334-1.14h2.16c0.02-0.2066 0.013-0.4066-0.02-0.58-0.14-0.82-0.7066-1.08-1.2066-1.08zm-0.92 1.2934c0.1-0.72 0.56-0.9267 0.8866-0.9267 0.4934 0 0.8467 0.4333 0.7867 0.9267z"/><path d="m1841.1 1188.8c-0.1466-0.3134-0.4733-0.52-0.8933-0.52-0.58 0-1.2867 0.4133-1.2867 1.5733 0 1.1267 0.6267 1.62 1.2134 1.62 0.3866 0 0.7466-0.22 0.94-0.56v0.2667c0 0.073 0.01 0.1466 0.027 0.22h0.48c-0.027-0.087-0.027-0.1867-0.027-0.28l-0.01-3.96c0-0.04 0-0.053 0.027-0.093 0.013-0.02 0.04-0.053 0.033-0.1h-0.5067zm-0.8733-0.1267c0.2667 0 0.66 0.14 0.78 0.5933 0.04 0.14 0.053 0.3067 0.053 0.6467 0 0.2333-0.013 0.4-0.067 0.56-0.1134 0.36-0.4334 0.5733-0.7467 0.5733-0.3467 0-0.86-0.2666-0.86-1.2666 0-0.8734 0.4867-1.1067 0.84-1.1067z"/></g><rect x="1800.1" y="1238.5" width="57.052" height="21.052" ry="4.4677" fill="#1d1f2b" fill-opacity=".38431" stroke="#9ca0bc" stroke-width=".32"/></g><g fill="#e9e56f" stroke-width="1.0667px"><g aria-label="Removed"><path d="m1817.7 1247.2v4.1534h0.4667v-1.8334h0.8066l0.92 1.8334h0.5267l-0.96-1.8467c0.5-0.14 0.8467-0.6133 0.8467-1.1667 0-0.4133-0.2067-0.8066-0.5934-1-0.26-0.1333-0.52-0.14-0.7933-0.14zm0.4667 0.44h0.7533c0.1733 0 0.34 0.01 0.5133 0.087 0.26 0.1333 0.3934 0.4 0.3934 0.6667 0 0.2666-0.1267 0.5133-0.3667 0.6333-0.16 0.08-0.32 0.087-0.4867 0.087h-0.8066z"/><path d="m1822.3 1248.2c-0.7267 0-1.4 0.52-1.4 1.6267 0 1.02 0.6333 1.56 1.46 1.56 0.44 0 0.8333-0.16 1.0933-0.4733l-0.2666-0.26c-0.1934 0.2266-0.4867 0.3466-0.7867 0.3466-0.4067 0-1-0.2266-1.0333-1.14h2.16c0.02-0.2066 0.013-0.4066-0.02-0.58-0.14-0.82-0.7067-1.08-1.2067-1.08zm-0.92 1.2934c0.1-0.72 0.56-0.9267 0.8867-0.9267 0.4933 0 0.8466 0.4333 0.7866 0.9267z"/><path d="m1824.2 1251.4h0.44v-2.0267c0-0.1467 0.013-0.28 0.1-0.44 0.1067-0.2 0.24-0.28 0.3667-0.28 0.1066 0 0.2266 0.067 0.28 0.2333 0.04 0.1267 0.033 0.2734 0.033 0.4v2.1134h0.4467v-2.0134c0-0.16 0.013-0.2866 0.1266-0.48 0.053-0.08 0.1667-0.2733 0.3534-0.2733 0.1 0 0.1933 0.06 0.24 0.1733 0.06 0.1267 0.047 0.3 0.047 0.44v2.16h0.4534v-2.1666c0-0.2534 0.01-0.5067-0.1267-0.7134-0.1133-0.1733-0.3067-0.24-0.4733-0.24-0.2934 0-0.5667 0.1734-0.6867 0.44-0.047-0.2533-0.26-0.44-0.5333-0.44-0.2534 0-0.4867 0.16-0.6267 0.3734l0.01-0.3h-0.4467z"/><path d="m1830.4 1249.8c0-1.0533-0.6666-1.6-1.36-1.6-0.7733 0-1.44 0.6667-1.44 1.6133 0 0.9267 0.66 1.58 1.4267 1.58 0.72 0 1.3733-0.58 1.3733-1.5933zm-1.3933-1.1933c0.44 0 0.9067 0.38 0.9067 1.2133 0 0.7667-0.44 1.1533-0.88 1.1533-0.4867 0-0.9267-0.4533-0.9267-1.2066 0-0.7467 0.4333-1.16 0.9-1.16z"/><path d="m1830.9 1248.3 1.2067 3.0733h0.38l0.74-1.74c0.18-0.4266 0.3533-0.8666 0.4533-1.3333h-0.4333c-0.08 0.4467-0.24 0.8667-0.4134 1.2667l-0.4866 1.1333-0.88-2.2267c-0.01-0.013-0.013-0.027-0.013-0.04 0-0.04 0.033-0.08 0.02-0.1333z"/><path d="m1835.7 1248.2c-0.7266 0-1.4 0.52-1.4 1.6267 0 1.02 0.6334 1.56 1.46 1.56 0.44 0 0.8334-0.16 1.0934-0.4733l-0.2667-0.26c-0.1933 0.2266-0.4867 0.3466-0.7867 0.3466-0.4066 0-1-0.2266-1.0333-1.14h2.16c0.02-0.2066 0.013-0.4066-0.02-0.58-0.14-0.82-0.7067-1.08-1.2067-1.08zm-0.92 1.2934c0.1-0.72 0.56-0.9267 0.8867-0.9267 0.4933 0 0.8467 0.4333 0.7867 0.9267z"/><path d="m1839.8 1248.8c-0.1467-0.3134-0.4733-0.52-0.8933-0.52-0.58 0-1.2867 0.4133-1.2867 1.5733 0 1.1267 0.6267 1.62 1.2133 1.62 0.3867 0 0.7467-0.22 0.94-0.56v0.2667c0 0.073 0.01 0.1466 0.027 0.22h0.48c-0.027-0.087-0.027-0.1867-0.027-0.28l-0.01-3.96c0-0.04 0-0.053 0.027-0.093 0.013-0.02 0.04-0.053 0.033-0.1h-0.5067zm-0.8733-0.1267c0.2666 0 0.66 0.14 0.78 0.5933 0.04 0.14 0.053 0.3067 0.053 0.6467 0 0.2333-0.013 0.4-0.067 0.56-0.1133 0.36-0.4333 0.5733-0.7466 0.5733-0.3467 0-0.86-0.2666-0.86-1.2666 0-0.8734 0.4866-1.1067 0.84-1.1067z"/></g><g aria-label="onInit()"><path d="m1654 1185.2c0-1.0534-0.6666-1.6-1.36-1.6-0.7733 0-1.44 0.6666-1.44 1.6133 0 0.9267 0.66 1.58 1.4267 1.58 0.72 0 1.3733-0.58 1.3733-1.5933zm-1.3933-1.1934c0.44 0 0.9067 0.38 0.9067 1.2134 0 0.7666-0.44 1.1533-0.88 1.1533-0.4867 0-0.9267-0.4533-0.9267-1.2067 0-0.7466 0.4333-1.16 0.9-1.16z"/><path d="m1654.7 1186.7h0.4867v-1.7533c0-0.2 0.027-0.3533 0.1533-0.52 0.1134-0.1533 0.4067-0.4267 0.7267-0.4267 0.1533 0 0.3067 0.067 0.4133 0.1934 0.1667 0.2 0.1667 0.46 0.1667 0.6733v1.8333h0.4733v-1.8466c0-0.2334 0-0.4867-0.1066-0.7334-0.1534-0.34-0.4667-0.5333-0.8134-0.5333-0.4133 0-0.7866 0.2667-1.0133 0.6067v-0.5334h-0.4867z"/><path d="m1658.2 1182.5v0.3933h0.7667v3.38h-0.8134v0.3867h2.1467v-0.38h-0.8667v-3.3867h0.82v-0.3933z"/><path d="m1661.4 1186.7h0.4867v-1.7533c0-0.2 0.027-0.3533 0.1533-0.52 0.1133-0.1533 0.4067-0.4267 0.7267-0.4267 0.1533 0 0.3066 0.067 0.4133 0.1934 0.1667 0.2 0.1667 0.46 0.1667 0.6733v1.8333h0.4733v-1.8466c0-0.2334 0-0.4867-0.1067-0.7334-0.1533-0.34-0.4666-0.5333-0.8133-0.5333-0.4133 0-0.7867 0.2667-1.0133 0.6067v-0.5334h-0.4867z"/><path d="m1665 1183.6v0.3933h0.7333v2.2733h-0.7733v0.38h1.9733v-0.38h-0.7133v-2.6666zm0.9866-1.32c-0.1933 0-0.3466 0.1533-0.3466 0.34 0 0.1866 0.1533 0.34 0.3466 0.34 0.1934 0 0.3467-0.1534 0.3467-0.34 0-0.1867-0.1533-0.34-0.3467-0.34z"/><path d="m1668.8 1182.8-0.06 0.82h-0.7267l-0.01 0.3934h0.7134c-0.04 0.52-0.06 1.04-0.06 1.5533 0 0.2733 0 0.58 0.18 0.8333 0.1466 0.2 0.38 0.32 0.6933 0.32 0.36 0 0.7133-0.1533 0.9733-0.34l-0.1466-0.38c-0.26 0.1934-0.5 0.28-0.6867 0.28-0.2267 0-0.46-0.1266-0.5133-0.4933 0-0.027-0.02-0.14-0.02-0.5867 0-0.3933 0.02-0.7933 0.06-1.1866h1v-0.4h-0.9934s0.047-0.5467 0.08-0.72c0.01-0.067 0.06-0.1067 0.033-0.18z"/><path d="m1673.5 1182.2c-1.0266 0.4534-1.6866 1.5-1.6866 2.72 0 1.2134 0.64 2.32 1.6933 2.8734l0.22-0.3534c-0.9133-0.5266-1.4467-1.5066-1.4467-2.54 0-0.9533 0.46-1.8066 1.24-2.26 0.013-0.013 0.033-0.027 0.06-0.027 0.02 0 0.04 0.013 0.067 0.013 0.013 0 0.033-0.01 0.06-0.013z"/><path d="m1674.8 1182.6c0.88 0.4734 1.44 1.38 1.44 2.3734 0 1-0.5733 1.9333-1.4733 2.4066l0.1267 0.4067c1.1066-0.5267 1.82-1.6333 1.82-2.8333 0-1.1867-0.7-2.2667-1.7867-2.7667z"/></g><g aria-label="onUpdate()"><path d="m1694.1 1174.1c0-1.0534-0.6667-1.6-1.36-1.6-0.7733 0-1.44 0.6666-1.44 1.6133 0 0.9267 0.66 1.58 1.4267 1.58 0.72 0 1.3733-0.58 1.3733-1.5933zm-1.3933-1.1934c0.44 0 0.9066 0.38 0.9066 1.2134 0 0.7666-0.44 1.1533-0.88 1.1533-0.4866 0-0.9266-0.4533-0.9266-1.2067 0-0.7466 0.4333-1.16 0.9-1.16z"/><path d="m1694.8 1175.6h0.4867v-1.7533c0-0.2 0.027-0.3533 0.1533-0.52 0.1133-0.1533 0.4067-0.4267 0.7267-0.4267 0.1533 0 0.3066 0.067 0.4133 0.1934 0.1667 0.2 0.1667 0.46 0.1667 0.6733v1.8333h0.4733v-1.8466c0-0.2334 0-0.4867-0.1067-0.7334-0.1533-0.34-0.4666-0.5333-0.8133-0.5333-0.4133 0-0.7867 0.2667-1.0133 0.6067v-0.5334h-0.4867z"/><path d="m1698 1171.4v2.7267c0 0.2933 0.01 0.5733 0.16 0.86 0.2267 0.4266 0.6934 0.6466 1.18 0.6466 0.48 0 0.9467-0.2133 1.18-0.6533 0.16-0.2867 0.1667-0.5733 0.1667-0.88v-2.7h-0.44v2.7133c0 0.2134-0.01 0.42-0.1067 0.6334-0.1533 0.32-0.4666 0.4866-0.7933 0.4866s-0.64-0.1733-0.7867-0.4933c-0.1-0.2-0.1-0.4067-0.1-0.6133v-2.5134c0-0.027 0-0.053 0.027-0.087 0.013-0.02 0.04-0.053 0.04-0.093 0-0.01 0-0.02-0.01-0.033z"/><path d="m1701.4 1172.5 0.01 4.1534h0.4867v-1.5134c0.2067 0.3 0.5467 0.4867 0.9133 0.4867 0.6267 0 1.28-0.5267 1.28-1.64 0-1.0733-0.6333-1.5533-1.2333-1.5533-0.3933 0-0.76 0.2-0.9667 0.5333v-0.4667zm1.2733 0.34c0.2667 0 0.9133 0.14 0.9133 1.2467 0 0.96-0.6266 1.1133-0.9133 1.1133s-0.58-0.1466-0.7-0.42c-0.087-0.2066-0.087-0.46-0.087-0.9 0-0.2533 0.013-0.44 0.08-0.6 0.12-0.2733 0.4-0.44 0.7067-0.44z"/><path d="m1706.8 1173c-0.1467-0.3133-0.4733-0.52-0.8933-0.52-0.58 0-1.2867 0.4134-1.2867 1.5734 0 1.1266 0.6267 1.62 1.2133 1.62 0.3867 0 0.7467-0.22 0.94-0.56v0.2666c0 0.073 0.01 0.1467 0.027 0.22h0.48c-0.027-0.087-0.027-0.1866-0.027-0.28l-0.01-3.96c0-0.04 0-0.053 0.027-0.093 0.013-0.02 0.04-0.053 0.033-0.1h-0.5067zm-0.8733-0.1266c0.2666 0 0.66 0.14 0.78 0.5933 0.04 0.14 0.053 0.3067 0.053 0.6467 0 0.2333-0.013 0.4-0.067 0.56-0.1133 0.36-0.4333 0.5733-0.7466 0.5733-0.3467 0-0.86-0.2667-0.86-1.2667 0-0.8733 0.4866-1.1066 0.84-1.1066z"/><path d="m1708.3 1172.9 0.2333 0.3066c0.2534-0.26 0.5934-0.34 0.88-0.34 0.36 0 0.54 0.1534 0.6267 0.2934 0.1 0.1666 0.093 0.3666 0.093 0.5266v0.1067h-0.093c-0.4533 0-0.9333 0-1.32 0.14-0.48 0.1733-0.6933 0.5333-0.6933 0.8667 0 0.4466 0.3866 0.8666 1.02 0.8666 0.3733 0 0.76-0.14 1.0933-0.4133v0.3333h0.4533v-1.8866c0-0.2467-0.01-0.48-0.1466-0.72-0.2-0.3267-0.5867-0.5-1.06-0.5-0.4067 0-0.8 0.1266-1.0867 0.42zm1.8533 1.26v0.2066c0 0.1534 0 0.3534-0.2066 0.5734-0.1134 0.1133-0.4 0.36-0.8 0.36-0.4067 0-0.64-0.26-0.64-0.5267 0-0.2267 0.1533-0.4733 0.5333-0.5667 0.28-0.067 0.6867-0.047 1.0067-0.047z"/><path d="m1712.3 1171.7-0.06 0.82h-0.7267l-0.01 0.3934h0.7134c-0.04 0.52-0.06 1.04-0.06 1.5533 0 0.2733 0 0.58 0.18 0.8333 0.1466 0.2 0.38 0.32 0.6933 0.32 0.36 0 0.7133-0.1533 0.9733-0.34l-0.1466-0.38c-0.26 0.1934-0.5 0.28-0.6867 0.28-0.2267 0-0.46-0.1266-0.5133-0.4933 0-0.027-0.02-0.14-0.02-0.5867 0-0.3933 0.02-0.7933 0.06-1.1866h1v-0.4h-0.9934s0.047-0.5467 0.08-0.72c0.01-0.067 0.06-0.1067 0.033-0.18z"/><path d="m1716.1 1172.5c-0.7267 0-1.4 0.52-1.4 1.6267 0 1.02 0.6333 1.56 1.46 1.56 0.44 0 0.8333-0.16 1.0933-0.4734l-0.2667-0.26c-0.1933 0.2267-0.4866 0.3467-0.7866 0.3467-0.4067 0-1-0.2267-1.0334-1.14h2.16c0.02-0.2067 0.013-0.4067-0.02-0.58-0.14-0.82-0.7066-1.08-1.2066-1.08zm-0.92 1.2933c0.1-0.72 0.56-0.9266 0.8866-0.9266 0.4934 0 0.8467 0.4333 0.7867 0.9266z"/><path d="m1720.3 1171.1c-1.0267 0.4534-1.6867 1.5-1.6867 2.72 0 1.2134 0.64 2.32 1.6933 2.8734l0.22-0.3534c-0.9133-0.5266-1.4466-1.5066-1.4466-2.54 0-0.9533 0.46-1.8066 1.24-2.26 0.013-0.013 0.033-0.027 0.06-0.027 0.02 0 0.04 0.013 0.067 0.013 0.013 0 0.033-0.01 0.06-0.013z"/><path d="m1721.5 1171.6c0.88 0.4734 1.44 1.38 1.44 2.3734 0 1-0.5734 1.9333-1.4734 2.4066l0.1267 0.4067c1.1067-0.5267 1.82-1.6333 1.82-2.8333 0-1.1867-0.7-2.2667-1.7867-2.7667z"/></g><g aria-label="onMessage()"><path d="m1731.7 1174.1c0-1.0533-0.6667-1.6-1.36-1.6-0.7734 0-1.44 0.6667-1.44 1.6133 0 0.9267 0.66 1.58 1.4266 1.58 0.72 0 1.3734-0.58 1.3734-1.5933zm-1.3934-1.1933c0.44 0 0.9067 0.38 0.9067 1.2133 0 0.7667-0.44 1.1533-0.88 1.1533-0.4867 0-0.9267-0.4533-0.9267-1.2066 0-0.7467 0.4334-1.16 0.9-1.16z"/><path d="m1732.5 1175.6h0.4866v-1.7534c0-0.2 0.027-0.3533 0.1534-0.52 0.1133-0.1533 0.4066-0.4266 0.7266-0.4266 0.1534 0 0.3067 0.067 0.4134 0.1933 0.1666 0.2 0.1666 0.46 0.1666 0.6733v1.8334h0.4734v-1.8467c0-0.2333 0-0.4867-0.1067-0.7333-0.1533-0.34-0.4667-0.5334-0.8133-0.5334-0.4134 0-0.7867 0.2667-1.0134 0.6067v-0.5333h-0.4866z"/><path d="m1735.6 1171.4v4.16h0.44v-3.1133l0.84 1.6467h0.1734l0.9-1.6734v3.14h0.44v-4.16h-0.3467l-1.0467 2.0334-1.0333-2.0334z"/><path d="m1740.4 1172.5c-0.7267 0-1.4 0.52-1.4 1.6267 0 1.02 0.6333 1.56 1.46 1.56 0.44 0 0.8333-0.16 1.0933-0.4733l-0.2666-0.26c-0.1934 0.2266-0.4867 0.3466-0.7867 0.3466-0.4067 0-1-0.2266-1.0333-1.14h2.16c0.02-0.2066 0.013-0.4066-0.02-0.58-0.14-0.82-0.7067-1.08-1.2067-1.08zm-0.92 1.2934c0.1-0.72 0.56-0.9267 0.8867-0.9267 0.4933 0 0.8466 0.4333 0.7866 0.9267z"/><path d="m1744.9 1173c-0.28-0.3067-0.6866-0.4734-1.14-0.4734-0.7066 0-1.1666 0.3934-1.1666 0.8467 0 0.5333 0.5733 0.7267 0.74 0.7867 0.26 0.093 0.5933 0.1733 0.82 0.28 0.2533 0.12 0.3 0.28 0.3 0.3866 0 0.2867-0.3467 0.48-0.78 0.48-0.52 0-0.8534-0.3133-0.9534-0.42-0.02-0.027-0.02-0.047-0.02-0.073 0-0.01 0.01-0.047-0.027-0.06l-0.28 0.4733c0.36 0.3334 0.8266 0.4867 1.2866 0.4867 0.8334 0 1.2667-0.4933 1.2667-0.9533 0-0.2067-0.087-0.4867-0.4467-0.6867-0.34-0.1933-0.8333-0.26-1.12-0.4-0.2466-0.12-0.3-0.2667-0.3-0.3733 0-0.24 0.3-0.4134 0.64-0.4134 0.44 0 0.7334 0.2667 0.8467 0.42 0.02 0.02 0.013 0.04 0.013 0.06 0 0.04 0.027 0.053 0.04 0.053z"/><path d="m1748.2 1173c-0.28-0.3067-0.6867-0.4734-1.14-0.4734-0.7067 0-1.1667 0.3934-1.1667 0.8467 0 0.5333 0.5733 0.7267 0.74 0.7867 0.26 0.093 0.5933 0.1733 0.82 0.28 0.2533 0.12 0.3 0.28 0.3 0.3866 0 0.2867-0.3467 0.48-0.78 0.48-0.52 0-0.8533-0.3133-0.9533-0.42-0.02-0.027-0.02-0.047-0.02-0.073 0-0.01 0.01-0.047-0.027-0.06l-0.28 0.4733c0.36 0.3334 0.8267 0.4867 1.2867 0.4867 0.8333 0 1.2666-0.4933 1.2666-0.9533 0-0.2067-0.087-0.4867-0.4466-0.6867-0.34-0.1933-0.8334-0.26-1.12-0.4-0.2467-0.12-0.3-0.2667-0.3-0.3733 0-0.24 0.3-0.4134 0.64-0.4134 0.44 0 0.7333 0.2667 0.8466 0.42 0.02 0.02 0.013 0.04 0.013 0.06 0 0.04 0.027 0.053 0.04 0.053z"/><path d="m1749.3 1172.9 0.2333 0.3067c0.2534-0.26 0.5934-0.34 0.88-0.34 0.36 0 0.54 0.1533 0.6267 0.2933 0.1 0.1667 0.093 0.3667 0.093 0.5267v0.1066h-0.093c-0.4533 0-0.9333 0-1.32 0.14-0.48 0.1734-0.6933 0.5334-0.6933 0.8667 0 0.4467 0.3866 0.8667 1.02 0.8667 0.3733 0 0.76-0.14 1.0933-0.4134v0.3334h0.4533v-1.8867c0-0.2467-0.01-0.48-0.1466-0.72-0.2-0.3267-0.5867-0.5-1.06-0.5-0.4067 0-0.8 0.1267-1.0867 0.42zm1.8533 1.26v0.2067c0 0.1533 0 0.3533-0.2066 0.5733-0.1134 0.1133-0.4 0.36-0.8 0.36-0.4067 0-0.64-0.26-0.64-0.5267 0-0.2266 0.1533-0.4733 0.5333-0.5666 0.28-0.067 0.6867-0.047 1.0067-0.047z"/><path d="m1752.8 1173.5c0-0.3666 0.3066-0.6666 0.6733-0.6666 0.3733 0 0.6733 0.3 0.6733 0.6666 0 0.3667-0.3 0.6667-0.6733 0.6667s-0.6733-0.3-0.6733-0.6667zm0.7-1.0466c-0.6067 0-1.1334 0.48-1.1334 1.0733 0 0.3333 0.1667 0.6467 0.4467 0.8267-0.22 0.1866-0.3467 0.3933-0.3467 0.5866 0 0.1267 0.053 0.3067 0.2467 0.4067-0.3267 0.2067-0.4933 0.4333-0.4933 0.6733 0 0.3334 0.3066 0.7267 1.3733 0.7267 1.0333 0 1.4067-0.5267 1.4067-0.9333 0-0.2667-0.1534-0.5334-0.4734-0.66-0.32-0.1334-0.6866-0.087-1.0333-0.087-0.2267 0-0.3733-0.02-0.4333-0.04-0.12-0.033-0.1867-0.1067-0.1867-0.2 0-0.16 0.1867-0.3133 0.22-0.34 0.12 0.047 0.2533 0.067 0.3867 0.067 0.6 0 1.0933-0.48 1.0933-1.04 0-0.1867-0.053-0.3667-0.1533-0.52 0.16-0.093 0.3466-0.1467 0.5333-0.1467 0.06 0 0.1133 0.01 0.1733 0.02l-0.053-0.3933c-0.3067-0.027-0.6133 0.073-0.8467 0.2666-0.1933-0.1866-0.4466-0.2866-0.7266-0.2866zm-0.46 2.98c0.1133 0.013 0.2733 0.027 0.5066 0.04 0.2267 0.01 0.4734-0.013 0.6467 0.013 0.28 0.047 0.3667 0.22 0.3667 0.3533 0 0.1334-0.08 0.2934-0.2867 0.4067-0.2267 0.12-0.48 0.1333-0.6867 0.1333-0.14 0-0.4-0.01-0.6266-0.1-0.2467-0.1-0.3-0.2666-0.3-0.3733 0-0.22 0.2066-0.38 0.38-0.4733z"/><path d="m1757.1 1172.5c-0.7267 0-1.4 0.52-1.4 1.6267 0 1.02 0.6333 1.56 1.46 1.56 0.44 0 0.8333-0.16 1.0933-0.4733l-0.2667-0.26c-0.1933 0.2266-0.4866 0.3466-0.7866 0.3466-0.4067 0-1-0.2266-1.0334-1.14h2.16c0.02-0.2066 0.013-0.4066-0.02-0.58-0.14-0.82-0.7066-1.08-1.2066-1.08zm-0.92 1.2934c0.1-0.72 0.56-0.9267 0.8866-0.9267 0.4934 0 0.8467 0.4333 0.7867 0.9267z"/><path d="m1761.3 1171.2c-1.0267 0.4533-1.6867 1.5-1.6867 2.72 0 1.2133 0.64 2.32 1.6933 2.8733l0.22-0.3533c-0.9133-0.5267-1.4466-1.5067-1.4466-2.54 0-0.9534 0.46-1.8067 1.24-2.26 0.013-0.013 0.033-0.027 0.06-0.027 0.02 0 0.04 0.013 0.067 0.013 0.013 0 0.033-0.01 0.06-0.013z"/><path d="m1762.5 1171.6c0.88 0.4733 1.44 1.38 1.44 2.3733 0 1-0.5734 1.9333-1.4734 2.4067l0.1267 0.4066c1.1067-0.5266 1.82-1.6333 1.82-2.8333 0-1.1867-0.7-2.2667-1.7867-2.7667z"/></g><g aria-label="onFinish()"><path d="m1764.7 1184.6c0-1.0533-0.6666-1.6-1.36-1.6-0.7733 0-1.44 0.6667-1.44 1.6134 0 0.9266 0.66 1.58 1.4267 1.58 0.72 0 1.3733-0.58 1.3733-1.5934zm-1.3933-1.1933c0.44 0 0.9067 0.38 0.9067 1.2133 0 0.7667-0.44 1.1534-0.88 1.1534-0.4867 0-0.9267-0.4534-0.9267-1.2067 0-0.7467 0.4333-1.16 0.9-1.16z"/><path d="m1765.4 1186.1h0.4867v-1.7533c0-0.2 0.027-0.3534 0.1533-0.52 0.1134-0.1534 0.4067-0.4267 0.7267-0.4267 0.1533 0 0.3067 0.067 0.4133 0.1933 0.1667 0.2 0.1667 0.46 0.1667 0.6734v1.8333h0.4733v-1.8467c0-0.2333 0-0.4866-0.1066-0.7333-0.1534-0.34-0.4667-0.5333-0.8134-0.5333-0.4133 0-0.7866 0.2666-1.0133 0.6066v-0.5333h-0.4867z"/><path d="m1768.8 1181.9v4.1533h0.4733v-2.04h1.5533v-0.4h-1.5533v-1.3067h1.92v-0.4066z"/><path d="m1772.3 1183v0.3934h0.7334v2.2733h-0.7734v0.38h1.9734v-0.38h-0.7134v-2.6667zm0.9867-1.32c-0.1933 0-0.3467 0.1534-0.3467 0.34 0 0.1867 0.1534 0.34 0.3467 0.34s0.3467-0.1533 0.3467-0.34c0-0.1866-0.1534-0.34-0.3467-0.34z"/><path d="m1775.4 1186.1h0.4867v-1.7533c0-0.2 0.027-0.3534 0.1533-0.52 0.1134-0.1534 0.4067-0.4267 0.7267-0.4267 0.1533 0 0.3067 0.067 0.4133 0.1933 0.1667 0.2 0.1667 0.46 0.1667 0.6734v1.8333h0.4733v-1.8467c0-0.2333 0-0.4866-0.1066-0.7333-0.1534-0.34-0.4667-0.5333-0.8134-0.5333-0.4133 0-0.7866 0.2666-1.0133 0.6066v-0.5333h-0.4867z"/><path d="m1779 1183v0.3934h0.7333v2.2733h-0.7733v0.38h1.9733v-0.38h-0.7133v-2.6667zm0.9867-1.32c-0.1934 0-0.3467 0.1534-0.3467 0.34 0 0.1867 0.1533 0.34 0.3467 0.34 0.1933 0 0.3466-0.1533 0.3466-0.34 0-0.1866-0.1533-0.34-0.3466-0.34z"/><path d="m1784.5 1183.4c-0.28-0.3067-0.6867-0.4733-1.14-0.4733-0.7067 0-1.1667 0.3933-1.1667 0.8466 0 0.5334 0.5733 0.7267 0.74 0.7867 0.26 0.093 0.5933 0.1733 0.82 0.28 0.2533 0.12 0.3 0.28 0.3 0.3867 0 0.2866-0.3467 0.48-0.78 0.48-0.52 0-0.8533-0.3134-0.9533-0.42-0.02-0.027-0.02-0.047-0.02-0.073 0-0.01 0.01-0.047-0.027-0.06l-0.28 0.4734c0.36 0.3333 0.8267 0.4866 1.2867 0.4866 0.8333 0 1.2666-0.4933 1.2666-0.9533 0-0.2067-0.087-0.4867-0.4466-0.6867-0.34-0.1933-0.8334-0.26-1.12-0.4-0.2467-0.12-0.3-0.2666-0.3-0.3733 0-0.24 0.3-0.4133 0.64-0.4133 0.44 0 0.7333 0.2666 0.8466 0.42 0.02 0.02 0.013 0.04 0.013 0.06 0 0.04 0.027 0.053 0.04 0.053z"/><path d="m1785.4 1186.1h0.4933v-1.7533c0-0.2 0.02-0.3534 0.1467-0.52 0.12-0.1534 0.4133-0.4267 0.7333-0.4267 0.1534 0 0.3067 0.067 0.4134 0.1933 0.1666 0.2 0.1666 0.46 0.1666 0.6734v1.8333h0.4734v-1.8467c0-0.2333-0.01-0.4866-0.1134-0.7333-0.1533-0.34-0.46-0.5333-0.8066-0.5333-0.4134 0-0.7934 0.2666-1.0134 0.6066v-1.7666c0-0.02 0-0.04 0.02-0.06s0.047-0.04 0.047-0.073c0-0.01 0-0.013-0.01-0.02h-0.5533z"/><path d="m1790.9 1181.6c-1.0267 0.4533-1.6867 1.5-1.6867 2.72 0 1.2133 0.64 2.32 1.6934 2.8733l0.22-0.3533c-0.9134-0.5267-1.4467-1.5067-1.4467-2.54 0-0.9533 0.46-1.8067 1.24-2.26 0.013-0.013 0.033-0.027 0.06-0.027 0.02 0 0.04 0.013 0.067 0.013 0.013 0 0.033-0.01 0.06-0.013z"/><path d="m1792.1 1182.1c0.88 0.4733 1.44 1.38 1.44 2.3733 0 1-0.5733 1.9334-1.4733 2.4067l0.1266 0.4067c1.1067-0.5267 1.82-1.6334 1.82-2.8334 0-1.1866-0.7-2.2666-1.7866-2.7666z"/></g><g aria-label="onRemove()"><path d="m1794.3 1220.1c0-1.0533-0.6667-1.6-1.36-1.6-0.7734 0-1.44 0.6667-1.44 1.6133 0 0.9267 0.66 1.58 1.4266 1.58 0.72 0 1.3734-0.58 1.3734-1.5933zm-1.3934-1.1933c0.44 0 0.9067 0.38 0.9067 1.2133 0 0.7667-0.44 1.1533-0.88 1.1533-0.4867 0-0.9267-0.4533-0.9267-1.2066 0-0.7467 0.4334-1.16 0.9-1.16z"/><path d="m1795 1221.6h0.4866v-1.7534c0-0.2 0.027-0.3533 0.1534-0.52 0.1133-0.1533 0.4066-0.4266 0.7266-0.4266 0.1534 0 0.3067 0.067 0.4134 0.1933 0.1666 0.2 0.1666 0.46 0.1666 0.6733v1.8334h0.4734v-1.8467c0-0.2333 0-0.4867-0.1067-0.7333-0.1533-0.34-0.4667-0.5334-0.8133-0.5334-0.4134 0-0.7867 0.2667-1.0134 0.6067v-0.5333h-0.4866z"/><path d="m1798.3 1217.5v4.1534h0.4667v-1.8334h0.8066l0.92 1.8334h0.5267l-0.96-1.8467c0.5-0.14 0.8467-0.6133 0.8467-1.1667 0-0.4133-0.2067-0.8066-0.5934-1-0.26-0.1333-0.52-0.14-0.7933-0.14zm0.4667 0.44h0.7533c0.1733 0 0.34 0.01 0.5133 0.087 0.26 0.1333 0.3934 0.4 0.3934 0.6667 0 0.2666-0.1267 0.5133-0.3667 0.6333-0.16 0.08-0.32 0.087-0.4867 0.087h-0.8066z"/><path d="m1803 1218.5c-0.7267 0-1.4 0.52-1.4 1.6267 0 1.02 0.6333 1.56 1.46 1.56 0.44 0 0.8333-0.16 1.0933-0.4733l-0.2666-0.26c-0.1934 0.2266-0.4867 0.3466-0.7867 0.3466-0.4067 0-1-0.2266-1.0333-1.14h2.16c0.02-0.2066 0.013-0.4066-0.02-0.58-0.14-0.82-0.7067-1.08-1.2067-1.08zm-0.92 1.2934c0.1-0.72 0.56-0.9267 0.8867-0.9267 0.4933 0 0.8466 0.4333 0.7866 0.9267z"/><path d="m1804.8 1221.6h0.44v-2.0267c0-0.1467 0.013-0.28 0.1-0.44 0.1067-0.2 0.24-0.28 0.3667-0.28 0.1066 0 0.2266 0.067 0.28 0.2333 0.04 0.1267 0.033 0.2734 0.033 0.4v2.1134h0.4467v-2.0134c0-0.16 0.013-0.2866 0.1266-0.48 0.053-0.08 0.1667-0.2733 0.3534-0.2733 0.1 0 0.1933 0.06 0.24 0.1733 0.06 0.1267 0.047 0.3 0.047 0.44v2.16h0.4534v-2.1666c0-0.2534 0.01-0.5067-0.1267-0.7134-0.1133-0.1733-0.3067-0.24-0.4733-0.24-0.2934 0-0.5667 0.1734-0.6867 0.44-0.047-0.2533-0.26-0.44-0.5333-0.44-0.2534 0-0.4867 0.16-0.6267 0.3734l0.01-0.3h-0.4467z"/><path d="m1811 1220.1c0-1.0533-0.6666-1.6-1.36-1.6-0.7733 0-1.44 0.6667-1.44 1.6133 0 0.9267 0.66 1.58 1.4267 1.58 0.72 0 1.3733-0.58 1.3733-1.5933zm-1.3933-1.1933c0.44 0 0.9067 0.38 0.9067 1.2133 0 0.7667-0.44 1.1533-0.88 1.1533-0.4867 0-0.9267-0.4533-0.9267-1.2066 0-0.7467 0.4333-1.16 0.9-1.16z"/><path d="m1811.5 1218.6 1.2067 3.0733h0.38l0.74-1.74c0.18-0.4266 0.3533-0.8666 0.4533-1.3333h-0.4333c-0.08 0.4467-0.24 0.8667-0.4134 1.2667l-0.4866 1.1333-0.88-2.2267c-0.01-0.013-0.013-0.027-0.013-0.04 0-0.04 0.033-0.08 0.02-0.1333z"/><path d="m1816.3 1218.5c-0.7266 0-1.4 0.52-1.4 1.6267 0 1.02 0.6334 1.56 1.46 1.56 0.44 0 0.8334-0.16 1.0934-0.4733l-0.2667-0.26c-0.1933 0.2266-0.4867 0.3466-0.7867 0.3466-0.4066 0-1-0.2266-1.0333-1.14h2.16c0.02-0.2066 0.013-0.4066-0.02-0.58-0.14-0.82-0.7067-1.08-1.2067-1.08zm-0.92 1.2934c0.1-0.72 0.56-0.9267 0.8867-0.9267 0.4933 0 0.8467 0.4333 0.7867 0.9267z"/><path d="m1820.5 1217.2c-1.0266 0.4533-1.6866 1.5-1.6866 2.72 0 1.2133 0.64 2.32 1.6933 2.8733l0.22-0.3533c-0.9133-0.5267-1.4467-1.5067-1.4467-2.54 0-0.9534 0.46-1.8067 1.24-2.26 0.013-0.013 0.033-0.027 0.06-0.027 0.02 0 0.04 0.013 0.067 0.013 0.013 0 0.033-0.01 0.06-0.013z"/><path d="m1821.8 1217.6c0.88 0.4733 1.44 1.38 1.44 2.3733 0 1-0.5733 1.9333-1.4733 2.4067l0.1267 0.4066c1.1066-0.5266 1.82-1.6333 1.82-2.8333 0-1.1867-0.7-2.2667-1.7867-2.7667z"/></g></g><rect x="1439.1" y="1178.5" width="57.052" height="21.052" ry="4.4677" fill="#0d123b" fill-opacity=".38431" stroke="#6f7de9" stroke-width=".32"/><g fill="#e9e56f" stroke-width="1.0667px" aria-label="New"><path d="m1462.6 1191.4h0.4467v-3.2667l1.8266 3.2733h0.3734v-3.9866c0-0.047 0.01-0.06 0.027-0.093 0.01-0.013 0.02-0.047 0.013-0.08h-0.4934v3.08l-1.74-3.08h-0.4533z"/><path d="m1467.3 1188.2c-0.7267 0-1.4 0.52-1.4 1.6267 0 1.02 0.6333 1.56 1.46 1.56 0.44 0 0.8333-0.16 1.0933-0.4733l-0.2666-0.26c-0.1934 0.2266-0.4867 0.3466-0.7867 0.3466-0.4067 0-1-0.2266-1.0333-1.14h2.16c0.02-0.2066 0.013-0.4066-0.02-0.58-0.14-0.82-0.7067-1.08-1.2067-1.08zm-0.92 1.2934c0.1-0.72 0.56-0.9267 0.8867-0.9267 0.4933 0 0.8466 0.4333 0.7866 0.9267z"/><path d="m1469.1 1188.3 0.6134 3.0533h0.4333l0.5333-1.9733 0.5667 1.9733h0.4467c0.2066-1.0066 0.38-2.0266 0.5066-3.0466h-0.44c0.013 0.3666-0.02 0.7066-0.2866 2.44l-0.64-2.16h-0.2934l-0.5266 2.1666-0.44-2.2c-0.013-0.047-0.013-0.067 0.01-0.12 0.01-0.033 0.027-0.08 0.01-0.1333z"/></g><g fill="none"><g stroke="#d54747" stroke-width="1.067"><path d="m1466.3 1159.7v17"/><path d="m1496.3 1189.7h61"/><path d="m1640.3 1189.7h57"/></g><circle cx="1727.2" cy="1190.1" r="45" stroke="#47d58a" stroke-dasharray="3.28000008, 3.28000008" stroke-linecap="round" stroke-miterlimit="1" stroke-width=".82" style="paint-order:normal"/><g stroke-width="1.067"><path d="m1828.3 1199.7v37" stroke="#d54747"/><path d="m1800.3 1249.7h-275v-55h32" stroke="#d54747"/><path d="m1686.7 1170.8c1.1251-2.2031 2.6251-4.3281 4.6251-6.0781 6.9384-6.0711 15 2 15 2" stroke="#47d58a"/><path d="m1744.3 1148.9c2.4018 0.5923 4.8132 1.5676 6.9735 3.1152 7.4948 5.3692 1.4773 15.06 1.4773 15.06" stroke="#47d58a"/></g></g><g transform="matrix(1.0667 0 0 1.0667 932.67 882.16)"><path d="m501.47 274.25-1.2053 3.2778-1.2053-3.2778c0.71162 0.52365 1.6852 0.52064 2.4106 0z" fill="#fff" fill-rule="evenodd" stroke="#d54747" stroke-linejoin="round" stroke-width=".1875"/></g><g transform="matrix(0 -1.0667 1.0667 0 1264.2 1723.3)"><path d="m501.47 274.25-1.2053 3.2778-1.2053-3.2778c0.71162 0.52365 1.6852 0.52064 2.4106 0z" fill="#fff" fill-rule="evenodd" stroke="#d54747" stroke-linejoin="round" stroke-width=".1875"/></g><g transform="matrix(0 -1.0667 1.0667 0 1264.2 1728.3)"><path d="m501.47 274.25-1.2053 3.2778-1.2053-3.2778c0.71162 0.52365 1.6852 0.52064 2.4106 0z" fill="#fff" fill-rule="evenodd" stroke="#d54747" stroke-linejoin="round" stroke-width=".1875"/></g><g transform="matrix(0 -1.0667 1.0667 0 1404.2 1723.3)"><path d="m501.47 274.25-1.2053 3.2778-1.2053-3.2778c0.71162 0.52365 1.6852 0.52064 2.4106 0z" fill="#fff" fill-rule="evenodd" stroke="#d54747" stroke-linejoin="round" stroke-width=".1875"/></g><g transform="matrix(.76236 -.74605 .74605 .76236 1118.8 1329.5)" stroke="#47d58a"><path d="m501.47 274.25-1.2053 3.2778-1.2053-3.2778c0.71162 0.52365 1.6852 0.52064 2.4106 0z" fill="#fff" fill-rule="evenodd" stroke="#47d58a" stroke-linejoin="round" stroke-width=".1875"/></g><g transform="matrix(.83996 .65745 -.65745 .83996 1513.4 606.75)" stroke="#47d58a"><path d="m501.47 274.25-1.2053 3.2778-1.2053-3.2778c0.71162 0.52365 1.6852 0.52064 2.4106 0z" fill="#fff" fill-rule="evenodd" stroke="#47d58a" stroke-linejoin="round" stroke-width=".1875"/></g><g transform="matrix(1.0667 .0044362 -.0044362 1.0667 1295.9 939.96)"><path d="m501.47 274.25-1.2053 3.2778-1.2053-3.2778c0.71162 0.52365 1.6852 0.52064 2.4106 0z" fill="#fff" fill-rule="evenodd" stroke="#d54747" stroke-linejoin="round" stroke-width=".1875"/></g><g fill="#e9e56f" stroke-width="1.0667px" aria-label="addComponent()"><path d="m1594.4 1244.5 0.2333 0.3067c0.2534-0.26 0.5934-0.34 0.88-0.34 0.36 0 0.54 0.1533 0.6267 0.2933 0.1 0.1667 0.093 0.3667 0.093 0.5267v0.1066h-0.093c-0.4533 0-0.9333 0-1.32 0.14-0.48 0.1734-0.6933 0.5334-0.6933 0.8667 0 0.4467 0.3866 0.8667 1.02 0.8667 0.3733 0 0.76-0.14 1.0933-0.4134v0.3334h0.4533v-1.8867c0-0.2467-0.01-0.48-0.1466-0.72-0.2-0.3267-0.5867-0.5-1.06-0.5-0.4067 0-0.8 0.1267-1.0867 0.42zm1.8533 1.26v0.2067c0 0.1533 0 0.3533-0.2066 0.5733-0.1134 0.1133-0.4 0.36-0.8 0.36-0.4067 0-0.64-0.26-0.64-0.5267 0-0.2266 0.1533-0.4733 0.5333-0.5666 0.28-0.067 0.6867-0.047 1.0067-0.047z"/><path d="m1599.6 1244.6c-0.1467-0.3134-0.4734-0.52-0.8934-0.52-0.58 0-1.2866 0.4133-1.2866 1.5733 0 1.1267 0.6266 1.62 1.2133 1.62 0.3867 0 0.7467-0.22 0.94-0.56v0.2667c0 0.073 0.01 0.1466 0.027 0.22h0.48c-0.027-0.087-0.027-0.1867-0.027-0.28l-0.01-3.96c0-0.04 0-0.053 0.027-0.093 0.013-0.02 0.04-0.053 0.033-0.1h-0.5066zm-0.8734-0.1267c0.2667 0 0.66 0.14 0.78 0.5933 0.04 0.14 0.053 0.3067 0.053 0.6467 0 0.2333-0.013 0.4-0.067 0.56-0.1133 0.36-0.4333 0.5733-0.7467 0.5733-0.3466 0-0.86-0.2666-0.86-1.2666 0-0.8734 0.4867-1.1067 0.84-1.1067z"/><path d="m1603 1244.6c-0.1467-0.3134-0.4733-0.52-0.8933-0.52-0.58 0-1.2867 0.4133-1.2867 1.5733 0 1.1267 0.6267 1.62 1.2133 1.62 0.3867 0 0.7467-0.22 0.94-0.56v0.2667c0 0.073 0.01 0.1466 0.027 0.22h0.48c-0.027-0.087-0.027-0.1867-0.027-0.28l-0.01-3.96c0-0.04 0-0.053 0.027-0.093 0.013-0.02 0.04-0.053 0.033-0.1h-0.5067zm-0.8733-0.1267c0.2666 0 0.66 0.14 0.78 0.5933 0.04 0.14 0.053 0.3067 0.053 0.6467 0 0.2333-0.013 0.4-0.067 0.56-0.1133 0.36-0.4333 0.5733-0.7466 0.5733-0.3467 0-0.86-0.2666-0.86-1.2666 0-0.8734 0.4866-1.1067 0.84-1.1067z"/><path d="m1605.7 1243c-0.6467 0-1.58 0.4733-1.58 2.14 0 1.6 0.8933 2.12 1.58 2.12 0.4933 0 0.9533-0.26 1.2133-0.6867l-0.34-0.22c-0.1933 0.3134-0.5267 0.5-0.8467 0.5-0.6133 0-1.1533-0.6333-1.1533-1.76 0-1.1 0.5267-1.72 1.1133-1.72 0.32 0 0.6267 0.1934 0.7934 0.4867 0.013 0.02 0.027 0.04 0.027 0.067 0 0.02-0.01 0.033-0.01 0.053 0 0.01 0 0.04 0.033 0.06l0.44-0.2133c-0.22-0.5-0.72-0.8267-1.2733-0.8267z"/><path d="m1610.2 1245.7c0-1.0533-0.6667-1.6-1.36-1.6-0.7733 0-1.44 0.6667-1.44 1.6133 0 0.9267 0.66 1.58 1.4267 1.58 0.72 0 1.3733-0.58 1.3733-1.5933zm-1.3933-1.1933c0.44 0 0.9066 0.38 0.9066 1.2133 0 0.7667-0.44 1.1533-0.88 1.1533-0.4866 0-0.9266-0.4533-0.9266-1.2066 0-0.7467 0.4333-1.16 0.9-1.16z"/><path d="m1610.7 1247.2h0.44v-2.0267c0-0.1467 0.013-0.28 0.1-0.44 0.1067-0.2 0.24-0.28 0.3667-0.28 0.1067 0 0.2267 0.067 0.28 0.2333 0.04 0.1267 0.033 0.2734 0.033 0.4v2.1134h0.4467v-2.0134c0-0.16 0.013-0.2866 0.1267-0.48 0.053-0.08 0.1666-0.2733 0.3533-0.2733 0.1 0 0.1933 0.06 0.24 0.1733 0.06 0.1267 0.047 0.3 0.047 0.44v2.16h0.4533v-2.1666c0-0.2534 0.01-0.5067-0.1267-0.7134-0.1133-0.1733-0.3066-0.24-0.4733-0.24-0.2933 0-0.5667 0.1734-0.6867 0.44-0.047-0.2533-0.26-0.44-0.5333-0.44-0.2533 0-0.4867 0.16-0.6267 0.3734l0.01-0.3h-0.4467z"/><path d="m1614.2 1244.1 0.01 4.1533h0.4867v-1.5133c0.2066 0.3 0.5466 0.4866 0.9133 0.4866 0.6267 0 1.28-0.5266 1.28-1.64 0-1.0733-0.6333-1.5533-1.2333-1.5533-0.3934 0-0.76 0.2-0.9667 0.5333v-0.4666zm1.2734 0.34c0.2666 0 0.9133 0.14 0.9133 1.2466 0 0.96-0.6267 1.1134-0.9133 1.1134-0.2867 0-0.58-0.1467-0.7-0.42-0.087-0.2067-0.087-0.46-0.087-0.9 0-0.2534 0.013-0.44 0.08-0.6 0.12-0.2734 0.4-0.44 0.7067-0.44z"/><path d="m1620.2 1245.7c0-1.0533-0.6667-1.6-1.36-1.6-0.7733 0-1.44 0.6667-1.44 1.6133 0 0.9267 0.66 1.58 1.4267 1.58 0.72 0 1.3733-0.58 1.3733-1.5933zm-1.3933-1.1933c0.44 0 0.9066 0.38 0.9066 1.2133 0 0.7667-0.44 1.1533-0.88 1.1533-0.4866 0-0.9266-0.4533-0.9266-1.2066 0-0.7467 0.4333-1.16 0.9-1.16z"/><path d="m1620.9 1247.2h0.4867v-1.7534c0-0.2 0.027-0.3533 0.1533-0.52 0.1133-0.1533 0.4067-0.4266 0.7267-0.4266 0.1533 0 0.3066 0.067 0.4133 0.1933 0.1667 0.2 0.1667 0.46 0.1667 0.6733v1.8334h0.4733v-1.8467c0-0.2333 0-0.4867-0.1067-0.7333-0.1533-0.34-0.4666-0.5334-0.8133-0.5334-0.4133 0-0.7867 0.2667-1.0133 0.6067v-0.5333h-0.4867z"/><path d="m1625.5 1244c-0.7267 0-1.4 0.52-1.4 1.6267 0 1.02 0.6333 1.56 1.46 1.56 0.44 0 0.8333-0.16 1.0933-0.4733l-0.2666-0.26c-0.1934 0.2266-0.4867 0.3466-0.7867 0.3466-0.4067 0-1-0.2266-1.0333-1.14h2.16c0.02-0.2066 0.013-0.4066-0.02-0.58-0.14-0.82-0.7067-1.08-1.2067-1.08zm-0.92 1.2934c0.1-0.72 0.56-0.9267 0.8867-0.9267 0.4933 0 0.8466 0.4333 0.7866 0.9267z"/><path d="m1627.6 1247.2h0.4866v-1.7534c0-0.2 0.027-0.3533 0.1534-0.52 0.1133-0.1533 0.4066-0.4266 0.7266-0.4266 0.1534 0 0.3067 0.067 0.4134 0.1933 0.1666 0.2 0.1666 0.46 0.1666 0.6733v1.8334h0.4734v-1.8467c0-0.2333 0-0.4867-0.1067-0.7333-0.1533-0.34-0.4667-0.5334-0.8133-0.5334-0.4134 0-0.7867 0.2667-1.0134 0.6067v-0.5333h-0.4866z"/><path d="m1631.7 1243.3-0.06 0.82h-0.7267l-0.01 0.3933h0.7133c-0.04 0.52-0.06 1.04-0.06 1.5533 0 0.2734 0 0.58 0.18 0.8334 0.1467 0.2 0.38 0.32 0.6933 0.32 0.36 0 0.7134-0.1534 0.9734-0.34l-0.1467-0.38c-0.26 0.1933-0.5 0.28-0.6867 0.28-0.2266 0-0.46-0.1267-0.5133-0.4934 0-0.027-0.02-0.14-0.02-0.5866 0-0.3934 0.02-0.7934 0.06-1.1867h1v-0.4h-0.9933s0.047-0.5467 0.08-0.72c0.01-0.067 0.06-0.1067 0.033-0.18z"/><path d="m1636.4 1242.7c-1.0267 0.4533-1.6867 1.5-1.6867 2.72 0 1.2133 0.64 2.32 1.6933 2.8733l0.22-0.3533c-0.9133-0.5267-1.4466-1.5067-1.4466-2.54 0-0.9534 0.46-1.8067 1.24-2.26 0.013-0.013 0.033-0.027 0.06-0.027 0.02 0 0.04 0.013 0.067 0.013 0.013 0 0.033-0.01 0.06-0.013z"/><path d="m1637.7 1243.1c0.88 0.4733 1.44 1.38 1.44 2.3733 0 1-0.5734 1.9333-1.4734 2.4067l0.1267 0.4066c1.1067-0.5266 1.82-1.6333 1.82-2.8333 0-1.1867-0.7-2.2667-1.7867-2.7667z"/></g></g>
</svg>
