<svg enable-background="new 0 0 595.28 841.89" version="1.1" viewBox="0 0 171.3 96.645" xml:space="preserve" xmlns="http://www.w3.org/2000/svg">
<path d="m164.32 5.3307c0.951 0 1.652 0.744 1.652 1.653v82.678c0 0.95-0.701 1.653-1.652 1.653h-157.33c-0.909 0-1.652-0.703-1.652-1.653v-82.678c0-0.909 0.744-1.653 1.652-1.653z" clip-rule="evenodd" fill="#3c3c18" fill-opacity=".38431" fill-rule="evenodd"/><path d="m164.32 5.3307c0.951 0 1.652 0.744 1.652 1.653v82.678c0 0.95-0.701 1.653-1.652 1.653v0h-157.33v0c-0.909 0-1.652-0.703-1.652-1.653v-82.678c0-0.909 0.744-1.653 1.652-1.653v0z" fill="none" stroke="#e9e66f" stroke-linecap="round" stroke-linejoin="round" stroke-miterlimit="10" stroke-width=".6614"/><g transform="matrix(.9997 0 0 1.0003 -263.57 -353.01)" fill="#e9e66f" stroke-width=".9997" aria-label="Message"><path d="m328.97 366.68v7.4268h0.78553v-5.5582l1.4996 2.9398h0.30945l1.6068-2.9874v5.6058h0.78553v-7.4268h-0.6189l-1.8686 3.6301-1.8448-3.6301z"/><path d="m337.52 368.54c-1.2973 0-2.4994 0.92835-2.4994 2.9041 0 1.821 1.1307 2.785 2.6065 2.785 0.78553 0 1.4878-0.28564 1.9519-0.84504l-0.47608-0.46417c-0.34515 0.40466-0.86884 0.6189-1.4044 0.6189-0.72602 0-1.7853-0.40467-1.8448-2.0352h3.8562c0.0357-0.36896 0.0238-0.72602-0.0357-1.0355-0.24994-1.4639-1.2616-1.9281-2.1542-1.9281zm-1.6425 2.309c0.17853-1.2854 0.99976-1.6544 1.583-1.6544 0.88074 0 1.5115 0.77362 1.4044 1.6544z"/><path d="m345.54 369.38c-0.49988-0.54749-1.2259-0.84504-2.0352-0.84504-1.2616 0-2.0828 0.70221-2.0828 1.5115 0 0.95216 1.0236 1.2973 1.3211 1.4044 0.46418 0.16663 1.0593 0.30945 1.4639 0.49988 0.45227 0.21424 0.53559 0.49988 0.53559 0.69031 0 0.51179-0.6189 0.85694-1.3925 0.85694-0.92835 0-1.5234-0.55939-1.702-0.74982-0.0357-0.0476-0.0357-0.0833-0.0357-0.13092 0-0.0119 0.0119-0.0833-0.0476-0.10712l-0.49988 0.84504c0.64271 0.5951 1.4758 0.86884 2.2971 0.86884 1.4878 0 2.2614-0.88074 2.2614-1.702 0-0.36896-0.15472-0.86885-0.79743-1.2259-0.607-0.34516-1.4877-0.46418-1.9995-0.71412-0.44037-0.21423-0.53559-0.47608-0.53559-0.66651 0-0.42847 0.53559-0.73792 1.1426-0.73792 0.78552 0 1.3092 0.47608 1.5115 0.74983 0.0357 0.0357 0.0238 0.0714 0.0238 0.10711 0 0.0714 0.0476 0.0952 0.0714 0.0952z"/><path d="m351.49 369.38c-0.49988-0.54749-1.2259-0.84504-2.0352-0.84504-1.2616 0-2.0828 0.70221-2.0828 1.5115 0 0.95216 1.0236 1.2973 1.3211 1.4044 0.46417 0.16663 1.0593 0.30945 1.4639 0.49988 0.45227 0.21424 0.53558 0.49988 0.53558 0.69031 0 0.51179-0.6189 0.85694-1.3925 0.85694-0.92835 0-1.5234-0.55939-1.702-0.74982-0.0357-0.0476-0.0357-0.0833-0.0357-0.13092 0-0.0119 0.0119-0.0833-0.0476-0.10712l-0.49988 0.84504c0.6427 0.5951 1.4758 0.86884 2.2971 0.86884 1.4877 0 2.2614-0.88074 2.2614-1.702 0-0.36896-0.15472-0.86885-0.79742-1.2259-0.607-0.34516-1.4878-0.46418-1.9995-0.71412-0.44037-0.21423-0.53559-0.47608-0.53559-0.66651 0-0.42847 0.53559-0.73792 1.1426-0.73792 0.78553 0 1.3092 0.47608 1.5115 0.74983 0.0357 0.0357 0.0238 0.0714 0.0238 0.10711 0 0.0714 0.0476 0.0952 0.0714 0.0952z"/><path d="m353.37 369.3 0.41656 0.54749c0.45228-0.46417 1.0593-0.607 1.5711-0.607 0.6427 0 0.96405 0.27375 1.1188 0.52369 0.17853 0.29755 0.16663 0.6546 0.16663 0.94025v0.19043h-0.16663c-0.80933 0-1.6663 0-2.3566 0.24994-0.85694 0.30945-1.2378 0.95216-1.2378 1.5472 0 0.79743 0.69031 1.5472 1.821 1.5472 0.66651 0 1.3568-0.24994 1.9519-0.73792v0.5951h0.80933v-3.3682c0-0.44037-0.0119-0.85693-0.26184-1.2854-0.35706-0.5832-1.0474-0.89265-1.8924-0.89265-0.72602 0-1.4282 0.22614-1.94 0.74982zm3.3087 2.2495v0.36896c0 0.27374 0 0.6308-0.36896 1.0236-0.20233 0.20234-0.71411 0.64271-1.4282 0.64271-0.72602 0-1.1426-0.46418-1.1426-0.94026 0-0.40466 0.27374-0.84503 0.95215-1.0117 0.49988-0.11902 1.2259-0.0833 1.7972-0.0833z"/><path d="m359.74 370.36c0-0.6546 0.54749-1.1902 1.2021-1.1902 0.66651 0 1.2021 0.53559 1.2021 1.1902 0 0.65461-0.53559 1.1902-1.2021 1.1902s-1.2021-0.53559-1.2021-1.1902zm1.2497-1.8686c-1.0831 0-2.0233 0.85694-2.0233 1.9162 0 0.5951 0.29755 1.1545 0.79743 1.4758-0.39276 0.33326-0.6189 0.70222-0.6189 1.0474 0 0.22614 0.0952 0.54749 0.44037 0.72602-0.58319 0.36896-0.88074 0.77362-0.88074 1.2021 0 0.5951 0.54749 1.2973 2.4518 1.2973 1.8448 0 2.5113-0.94025 2.5113-1.6663 0-0.47607-0.27374-0.95215-0.84503-1.1783-0.5713-0.23804-1.2259-0.15472-1.8448-0.15472-0.40467 0-0.66651-0.0357-0.77363-0.0714-0.21423-0.0595-0.33325-0.19043-0.33325-0.35706 0-0.28565 0.33325-0.55939 0.39276-0.607 0.21424 0.0833 0.45228 0.11902 0.69031 0.11902 1.0712 0 1.9519-0.85694 1.9519-1.8567 0-0.33326-0.0952-0.65461-0.27374-0.92835 0.28564-0.16663 0.6189-0.26184 0.95215-0.26184 0.10712 0 0.20233 0.0119 0.30945 0.0357l-0.0952-0.70221c-0.54748-0.0476-1.095 0.13092-1.5115 0.47608-0.34516-0.33326-0.79743-0.51179-1.2973-0.51179zm-0.82123 5.3202c0.20233 0.0238 0.48798 0.0476 0.90454 0.0714 0.40467 0.0119 0.84504-0.0238 1.1545 0.0238 0.49988 0.0833 0.65461 0.39276 0.65461 0.6308s-0.14283 0.52369-0.51179 0.72602c-0.40466 0.21423-0.85694 0.23804-1.2259 0.23804-0.24994 0-0.71411-0.0119-1.1188-0.17853-0.44037-0.17853-0.53558-0.47608-0.53558-0.66651 0-0.39276 0.36896-0.67841 0.67841-0.84504z"/><path d="m367.27 368.54c-1.2973 0-2.4994 0.92835-2.4994 2.9041 0 1.821 1.1307 2.785 2.6065 2.785 0.78553 0 1.4878-0.28564 1.9519-0.84504l-0.47608-0.46417c-0.34515 0.40466-0.86884 0.6189-1.4044 0.6189-0.72602 0-1.7853-0.40467-1.8448-2.0352h3.8562c0.0357-0.36896 0.0238-0.72602-0.0357-1.0355-0.24994-1.4639-1.2616-1.9281-2.1542-1.9281zm-1.6425 2.309c0.17853-1.2854 0.99976-1.6544 1.583-1.6544 0.88074 0 1.5115 0.77362 1.4044 1.6544z"/></g><line x1="5.3354" x2="165.97" y1="26.496" y2="26.496" fill="none" stroke="#e9e66f" stroke-linecap="round" stroke-linejoin="round" stroke-miterlimit="10" stroke-width=".6614"/><g fill="#a6bee3" stroke-width=".9997"><g transform="matrix(.9997 0 0 1.0003 -263.57 -353.01)" aria-label="+ "><path d="m274.92 385.74v2.0233h-2.1066v0.73792h2.1066v2.2257h0.74983v-2.2257h2.0352v-0.73792h-2.0352v-2.0233z" fill="#a6bee3" stroke-width=".9997"/></g><g transform="matrix(.9997 0 0 1.0003 -263.57 -353.01)" aria-label="action: string"><path d="m297.17 387.15 0.41656 0.54749c0.45228-0.46418 1.0593-0.607 1.5711-0.607 0.6427 0 0.96406 0.27374 1.1188 0.52368 0.17853 0.29755 0.16663 0.65461 0.16663 0.94026v0.19043h-0.16663c-0.80933 0-1.6663 0-2.3566 0.24994-0.85694 0.30945-1.2378 0.95215-1.2378 1.5472 0 0.79743 0.69031 1.5472 1.821 1.5472 0.66651 0 1.3568-0.24994 1.9519-0.73792v0.5951h0.80933v-3.3682c0-0.44037-0.0119-0.85694-0.26184-1.2854-0.35706-0.58319-1.0474-0.89264-1.8924-0.89264-0.72602 0-1.4282 0.22613-1.94 0.74982zm3.3087 2.2495v0.36896c0 0.27375 0 0.6308-0.36896 1.0236-0.20233 0.20233-0.71411 0.6427-1.4282 0.6427-0.72602 0-1.1426-0.46417-1.1426-0.94025 0-0.40467 0.27374-0.84504 0.95215-1.0117 0.49988-0.11902 1.2259-0.0833 1.7972-0.0833z"/><path d="m307.47 387.42c-0.42847-0.6308-1.1545-1.0117-2.0352-1.0117-1.5949 0-2.7255 1.2021-2.7255 2.8327 0 1.6425 1.1307 2.8565 2.6779 2.8565 0.74982 0 1.4877-0.30945 1.9995-0.86884l-0.48798-0.57129c-0.36896 0.41656-0.90454 0.6546-1.4401 0.6546-1.0593 0-1.8686-0.88074-1.8686-2.1542 0-1.2378 0.79743-2.0114 1.7972-2.0114 0.92835 0 1.3687 0.6427 1.4044 0.71411 0.0476 0.0833-0.0238 0.20233 0.0714 0.27375z"/><path d="m310.23 385.06-0.10711 1.4639h-1.2973l-0.0119 0.70221h1.2735c-0.0714 0.92835-0.10712 1.8567-0.10712 2.7732 0 0.48798 0 1.0355 0.32136 1.4877 0.26184 0.35706 0.67841 0.57129 1.2378 0.57129 0.6427 0 1.2735-0.27374 1.7377-0.607l-0.26184-0.67841c-0.46418 0.34516-0.89265 0.49989-1.2259 0.49989-0.40467 0-0.82124-0.22614-0.91645-0.88075 0-0.0476-0.0357-0.24994-0.0357-1.0474 0-0.70221 0.0357-1.4163 0.10712-2.1185h1.7853v-0.71412h-1.7734s0.0833-0.97595 0.14282-1.2854c0.0119-0.11902 0.10712-0.19043 0.0595-0.32136z"/><path d="m315.21 386.51v0.70222h1.3092v4.0586h-1.3806v0.67841h3.523v-0.67841h-1.2735v-4.7608zm1.7615-2.3566c-0.34516 0-0.6189 0.27375-0.6189 0.607s0.27374 0.607 0.6189 0.607c0.34515 0 0.6189-0.27375 0.6189-0.607s-0.27375-0.607-0.6189-0.607z"/><path d="m325.37 389.26c0-1.8805-1.1902-2.8565-2.428-2.8565-1.3806 0-2.5708 1.1902-2.5708 2.8803 0 1.6544 1.1783 2.8208 2.547 2.8208 1.2854 0 2.4518-1.0355 2.4518-2.8446zm-2.4875-2.1304c0.78553 0 1.6187 0.67841 1.6187 2.1662 0 1.3687-0.78553 2.059-1.5711 2.059-0.86884 0-1.6544-0.80933-1.6544-2.1542 0-1.333 0.77363-2.0709 1.6068-2.0709z"/><path d="m326.66 391.95h0.86885v-3.1302c0-0.35706 0.0476-0.6308 0.27374-0.92835 0.20233-0.27375 0.72602-0.76173 1.2973-0.76173 0.27374 0 0.54749 0.11902 0.73792 0.34516 0.29755 0.35706 0.29755 0.82123 0.29755 1.2021v3.273h0.84503v-3.2968c0-0.41657 0-0.86884-0.19043-1.3092-0.27374-0.607-0.83313-0.95216-1.452-0.95216-0.73792 0-1.4044 0.47608-1.8091 1.0831v-0.95215h-0.86885z"/><path d="m335.34 387.61c0-0.36896-0.30945-0.67841-0.70221-0.67841-0.39277 0-0.70222 0.30945-0.70222 0.67841 0 0.38086 0.30945 0.67841 0.70222 0.67841 0.39276 0 0.70221-0.29755 0.70221-0.67841zm0 3.7967c0-0.36896-0.30945-0.67841-0.70221-0.67841-0.39277 0-0.70222 0.30945-0.70222 0.67841 0 0.38086 0.30945 0.69031 0.70222 0.69031 0.39276 0 0.70221-0.30945 0.70221-0.69031z"/><path d="m348.84 387.24c-0.49988-0.54749-1.2259-0.84504-2.0352-0.84504-1.2616 0-2.0828 0.70222-2.0828 1.5116 0 0.95215 1.0236 1.2973 1.3211 1.4044 0.46417 0.16662 1.0593 0.30945 1.4639 0.49988 0.45228 0.21423 0.53559 0.49988 0.53559 0.69031 0 0.51178-0.6189 0.85694-1.3925 0.85694-0.92835 0-1.5234-0.55939-1.702-0.74982-0.0357-0.0476-0.0357-0.0833-0.0357-0.13092 0-0.0119 0.0119-0.0833-0.0476-0.10712l-0.49988 0.84504c0.64271 0.59509 1.4758 0.86884 2.2971 0.86884 1.4877 0 2.2614-0.88075 2.2614-1.702 0-0.36896-0.15472-0.86884-0.79743-1.2259-0.607-0.34515-1.4877-0.46417-1.9995-0.71411-0.44037-0.21424-0.53559-0.47608-0.53559-0.66651 0-0.42847 0.53559-0.73792 1.1426-0.73792 0.78552 0 1.3092 0.47608 1.5115 0.74982 0.0357 0.0357 0.0238 0.0714 0.0238 0.10712 0 0.0714 0.0476 0.0952 0.0714 0.0952z"/><path d="m351.89 385.06-0.10711 1.4639h-1.2973l-0.0119 0.70221h1.2735c-0.0714 0.92835-0.10712 1.8567-0.10712 2.7732 0 0.48798 0 1.0355 0.32136 1.4877 0.26184 0.35706 0.67841 0.57129 1.2378 0.57129 0.6427 0 1.2735-0.27374 1.7377-0.607l-0.26184-0.67841c-0.46418 0.34516-0.89265 0.49989-1.2259 0.49989-0.40467 0-0.82124-0.22614-0.91645-0.88075 0-0.0476-0.0357-0.24994-0.0357-1.0474 0-0.70221 0.0357-1.4163 0.10712-2.1185h1.7853v-0.71412h-1.7734s0.0833-0.97595 0.14282-1.2854c0.0119-0.11902 0.10712-0.19043 0.0595-0.32136z"/><path d="m356.78 386.52v5.4392h0.85694v-2.6422c0-0.33325 0.0119-0.69031 0.38086-1.2735 0.49989-0.78552 1.1426-0.91645 1.5354-0.91645 0.45228 0 0.73792 0.21424 0.89265 0.40467 0.0714 0.0952 0.10712 0.19043 0.20233 0.27374l0.40467-0.82123c-0.34516-0.35706-0.84504-0.5951-1.452-0.5951-0.79743 0-1.6068 0.40467-1.9638 1.1783l0.0357-1.0474z"/><path d="m362.82 386.51v0.70222h1.3092v4.0586h-1.3806v0.67841h3.523v-0.67841h-1.2735v-4.7608zm1.7615-2.3566c-0.34516 0-0.6189 0.27375-0.6189 0.607s0.27374 0.607 0.6189 0.607c0.34515 0 0.6189-0.27375 0.6189-0.607s-0.27375-0.607-0.6189-0.607z"/><path d="m368.32 391.95h0.86884v-3.1302c0-0.35706 0.0476-0.6308 0.27375-0.92835 0.20233-0.27375 0.72602-0.76173 1.2973-0.76173 0.27374 0 0.54749 0.11902 0.73792 0.34516 0.29755 0.35706 0.29755 0.82123 0.29755 1.2021v3.273h0.84503v-3.2968c0-0.41657 0-0.86884-0.19043-1.3092-0.27374-0.607-0.83313-0.95216-1.452-0.95216-0.73792 0-1.4044 0.47608-1.8091 1.0831v-0.95215h-0.86884z"/><path d="m374.95 388.21c0-0.65461 0.54749-1.1902 1.2021-1.1902 0.66651 0 1.2021 0.53558 1.2021 1.1902s-0.53559 1.1902-1.2021 1.1902c-0.6665 0-1.2021-0.53558-1.2021-1.1902zm1.2497-1.8686c-1.0831 0-2.0233 0.85694-2.0233 1.9162 0 0.59509 0.29755 1.1545 0.79743 1.4758-0.39276 0.33325-0.6189 0.70221-0.6189 1.0474 0 0.22613 0.0952 0.54748 0.44037 0.72601-0.58319 0.36896-0.88074 0.77363-0.88074 1.2021 0 0.59509 0.54749 1.2973 2.4518 1.2973 1.8448 0 2.5113-0.94025 2.5113-1.6663 0-0.47608-0.27374-0.95216-0.84503-1.1783-0.57129-0.23804-1.2259-0.15473-1.8448-0.15473-0.40467 0-0.66651-0.0357-0.77363-0.0714-0.21423-0.0595-0.33325-0.19043-0.33325-0.35706 0-0.28564 0.33325-0.55939 0.39276-0.60699 0.21424 0.0833 0.45228 0.11901 0.69032 0.11901 1.0712 0 1.9519-0.85693 1.9519-1.8567 0-0.33325-0.0952-0.6546-0.27374-0.92835 0.28564-0.16662 0.6189-0.26184 0.95215-0.26184 0.10712 0 0.20233 0.0119 0.30945 0.0357l-0.0952-0.70222c-0.54749-0.0476-1.095 0.13092-1.5116 0.47608-0.34515-0.33325-0.79743-0.51178-1.2973-0.51178zm-0.82123 5.3202c0.20233 0.0238 0.48798 0.0476 0.90454 0.0714 0.40467 0.0119 0.84504-0.0238 1.1545 0.0238 0.49988 0.0833 0.65461 0.39277 0.65461 0.63081s-0.14283 0.52368-0.51179 0.72601c-0.40466 0.21424-0.85693 0.23804-1.2259 0.23804-0.24994 0-0.71412-0.0119-1.1188-0.17853-0.44037-0.17853-0.53558-0.47607-0.53558-0.6665 0-0.39277 0.36896-0.67841 0.67841-0.84504z"/></g><g transform="matrix(.9997 0 0 1.0003 -263.57 -353.01)" aria-label="+ "><path d="m274.92 397.64v2.0233h-2.1066v0.73792h2.1066v2.2257h0.74983v-2.2257h2.0352v-0.73792h-2.0352v-2.0233z" fill="#a6bee3" stroke-width=".9997"/></g><g transform="matrix(.9997 0 0 1.0003 -263.57 -353.01)" aria-label="component: Component"><path d="m301.52 399.32c-0.42847-0.6308-1.1545-1.0117-2.0352-1.0117-1.5949 0-2.7255 1.2021-2.7255 2.8326 0 1.6425 1.1307 2.8565 2.6779 2.8565 0.74982 0 1.4877-0.30945 1.9995-0.86884l-0.48798-0.5713c-0.36896 0.41657-0.90455 0.65461-1.4401 0.65461-1.0593 0-1.8686-0.88074-1.8686-2.1542 0-1.2378 0.79743-2.0114 1.7972-2.0114 0.92835 0 1.3687 0.64271 1.4044 0.71412 0.0476 0.0833-0.0238 0.20233 0.0714 0.27374z"/><path d="m307.52 401.16c0-1.8805-1.1902-2.8565-2.428-2.8565-1.3806 0-2.5708 1.1902-2.5708 2.8803 0 1.6544 1.1783 2.8208 2.547 2.8208 1.2854 0 2.4518-1.0355 2.4518-2.8446zm-2.4875-2.1304c0.78553 0 1.6187 0.67841 1.6187 2.1662 0 1.3687-0.78552 2.059-1.571 2.059-0.86884 0-1.6544-0.80933-1.6544-2.1542 0-1.333 0.77363-2.0709 1.6068-2.0709z"/><path d="m308.44 403.85h0.78553v-3.6182c0-0.26184 0.0238-0.49988 0.17853-0.78553 0.19043-0.35706 0.42847-0.49988 0.65461-0.49988 0.19043 0 0.40466 0.11902 0.49988 0.41657 0.0714 0.22613 0.0595 0.48798 0.0595 0.71411v3.7729h0.79743v-3.5944c0-0.28564 0.0238-0.51178 0.22613-0.85694 0.0952-0.14282 0.29755-0.48798 0.6308-0.48798 0.17853 0 0.34516 0.10712 0.42847 0.30945 0.10712 0.22614 0.0833 0.53559 0.0833 0.78553v3.8562h0.80933v-3.8681c0-0.45227 0.0119-0.90455-0.22614-1.2735-0.20233-0.30945-0.54749-0.42847-0.84504-0.42847-0.52368 0-1.0117 0.30945-1.2259 0.78553-0.0833-0.45227-0.46418-0.78553-0.95216-0.78553-0.45227 0-0.86884 0.28565-1.1188 0.66651l0.0119-0.53559h-0.79743z"/><path d="m314.65 398.43 0.0119 7.4149h0.86884v-2.7017c0.36896 0.53558 0.97596 0.86884 1.6306 0.86884 1.1188 0 2.2852-0.94025 2.2852-2.9279 0-1.9162-1.1307-2.7731-2.2019-2.7731-0.70221 0-1.3568 0.35705-1.7258 0.95215v-0.83314zm2.2733 0.607c0.47607 0 1.6306 0.24994 1.6306 2.2257 0 1.7139-1.1188 1.9876-1.6306 1.9876-0.51179 0-1.0355-0.26185-1.2497-0.74983-0.15473-0.36896-0.15473-0.82123-0.15473-1.6068 0-0.45227 0.0238-0.78552 0.14282-1.0712 0.21424-0.48798 0.71412-0.78553 1.2616-0.78553z"/><path d="m325.37 401.16c0-1.8805-1.1902-2.8565-2.428-2.8565-1.3806 0-2.5708 1.1902-2.5708 2.8803 0 1.6544 1.1783 2.8208 2.547 2.8208 1.2854 0 2.4518-1.0355 2.4518-2.8446zm-2.4875-2.1304c0.78553 0 1.6187 0.67841 1.6187 2.1662 0 1.3687-0.78553 2.059-1.5711 2.059-0.86884 0-1.6544-0.80933-1.6544-2.1542 0-1.333 0.77363-2.0709 1.6068-2.0709z"/><path d="m326.66 403.85h0.86885v-3.1302c0-0.35706 0.0476-0.63081 0.27374-0.92835 0.20233-0.27375 0.72602-0.76173 1.2973-0.76173 0.27374 0 0.54749 0.11902 0.73792 0.34516 0.29755 0.35706 0.29755 0.82123 0.29755 1.2021v3.273h0.84503v-3.2968c0-0.41657 0-0.86884-0.19043-1.3092-0.27374-0.607-0.83313-0.95216-1.452-0.95216-0.73792 0-1.4044 0.47608-1.8091 1.0831v-0.95216h-0.86885z"/><path d="m334.87 398.3c-1.2973 0-2.4994 0.92835-2.4994 2.9041 0 1.821 1.1307 2.785 2.6065 2.785 0.78553 0 1.4877-0.28564 1.9519-0.84503l-0.47608-0.46418c-0.34515 0.40467-0.86884 0.6189-1.4044 0.6189-0.72601 0-1.7853-0.40466-1.8448-2.0352h3.8562c0.0357-0.36896 0.0238-0.72601-0.0357-1.0355-0.24994-1.4639-1.2616-1.9281-2.1542-1.9281zm-1.6425 2.309c0.17853-1.2854 0.99976-1.6544 1.583-1.6544 0.88074 0 1.5115 0.77362 1.4044 1.6544z"/><path d="m338.56 403.85h0.86884v-3.1302c0-0.35706 0.0476-0.63081 0.27375-0.92835 0.20233-0.27375 0.72601-0.76173 1.2973-0.76173 0.27374 0 0.54748 0.11902 0.73792 0.34516 0.29754 0.35706 0.29754 0.82123 0.29754 1.2021v3.273h0.84504v-3.2968c0-0.41657 0-0.86884-0.19043-1.3092-0.27374-0.607-0.83314-0.95216-1.452-0.95216-0.73791 0-1.4044 0.47608-1.8091 1.0831v-0.95216h-0.86884z"/><path d="m345.94 396.96-0.10712 1.4639h-1.2973l-0.0119 0.70222h1.2735c-0.0714 0.92835-0.10711 1.8567-0.10711 2.7732 0 0.48798 0 1.0355 0.32135 1.4877 0.26184 0.35706 0.67841 0.57129 1.2378 0.57129 0.6427 0 1.2735-0.27374 1.7377-0.607l-0.26184-0.67841c-0.46418 0.34516-0.89265 0.49988-1.2259 0.49988-0.40466 0-0.82123-0.22613-0.91645-0.88074 0-0.0476-0.0357-0.24994-0.0357-1.0474 0-0.70221 0.0357-1.4163 0.10711-2.1185h1.7853v-0.71412h-1.7734s0.0833-0.97596 0.14282-1.2854c0.0119-0.11902 0.10712-0.19043 0.0595-0.32135z"/><path d="m353.19 399.51c0-0.36896-0.30945-0.67841-0.70221-0.67841s-0.70221 0.30945-0.70221 0.67841c0 0.38086 0.30945 0.67841 0.70221 0.67841s0.70221-0.29755 0.70221-0.67841zm0 3.7967c0-0.36895-0.30945-0.67841-0.70221-0.67841s-0.70221 0.30946-0.70221 0.67841c0 0.38087 0.30945 0.69032 0.70221 0.69032s0.70221-0.30945 0.70221-0.69032z"/><path d="m364.85 396.38c-1.1545 0-2.8208 0.84504-2.8208 3.8205 0 2.8565 1.5949 3.7848 2.8208 3.7848 0.88074 0 1.702-0.46417 2.1662-1.2259l-0.607-0.39277c-0.34515 0.55939-0.94025 0.89265-1.5115 0.89265-1.095 0-2.059-1.1307-2.059-3.1421 0-1.9638 0.94026-3.0707 1.9876-3.0707 0.57129 0 1.1188 0.34516 1.4163 0.86884 0.0238 0.0357 0.0476 0.0714 0.0476 0.11902 0 0.0357-0.0119 0.0595-0.0119 0.0952 0 0.0119 0 0.0714 0.0595 0.10711l0.78553-0.38086c-0.39277-0.89264-1.2854-1.4758-2.2733-1.4758z"/><path d="m372.98 401.16c0-1.8805-1.1902-2.8565-2.428-2.8565-1.3806 0-2.5708 1.1902-2.5708 2.8803 0 1.6544 1.1783 2.8208 2.547 2.8208 1.2854 0 2.4518-1.0355 2.4518-2.8446zm-2.4875-2.1304c0.78552 0 1.6187 0.67841 1.6187 2.1662 0 1.3687-0.78553 2.059-1.5711 2.059-0.86884 0-1.6544-0.80933-1.6544-2.1542 0-1.333 0.77362-2.0709 1.6068-2.0709z"/><path d="m373.9 403.85h0.78553v-3.6182c0-0.26184 0.0238-0.49988 0.17852-0.78553 0.19044-0.35706 0.42847-0.49988 0.65461-0.49988 0.19043 0 0.40467 0.11902 0.49988 0.41657 0.0714 0.22613 0.0595 0.48798 0.0595 0.71411v3.7729h0.79743v-3.5944c0-0.28564 0.0238-0.51178 0.22614-0.85694 0.0952-0.14282 0.29755-0.48798 0.6308-0.48798 0.17853 0 0.34516 0.10712 0.42847 0.30945 0.10712 0.22614 0.0833 0.53559 0.0833 0.78553v3.8562h0.80933v-3.8681c0-0.45227 0.0119-0.90455-0.22613-1.2735-0.20234-0.30945-0.54749-0.42847-0.84504-0.42847-0.52368 0-1.0117 0.30945-1.2259 0.78553-0.0833-0.45227-0.46417-0.78553-0.95215-0.78553-0.45228 0-0.86884 0.28565-1.1188 0.66651l0.0119-0.53559h-0.79743z"/><path d="m380.11 398.43 0.0119 7.4149h0.86884v-2.7017c0.36896 0.53558 0.97596 0.86884 1.6306 0.86884 1.1188 0 2.2852-0.94025 2.2852-2.9279 0-1.9162-1.1307-2.7731-2.2019-2.7731-0.70221 0-1.3568 0.35705-1.7258 0.95215v-0.83314zm2.2733 0.607c0.47607 0 1.6306 0.24994 1.6306 2.2257 0 1.7139-1.1188 1.9876-1.6306 1.9876-0.51179 0-1.0355-0.26185-1.2497-0.74983-0.15473-0.36896-0.15473-0.82123-0.15473-1.6068 0-0.45227 0.0238-0.78552 0.14282-1.0712 0.21424-0.48798 0.71412-0.78553 1.2616-0.78553z"/><path d="m390.83 401.16c0-1.8805-1.1902-2.8565-2.428-2.8565-1.3806 0-2.5708 1.1902-2.5708 2.8803 0 1.6544 1.1783 2.8208 2.547 2.8208 1.2854 0 2.4518-1.0355 2.4518-2.8446zm-2.4875-2.1304c0.78552 0 1.6187 0.67841 1.6187 2.1662 0 1.3687-0.78553 2.059-1.5711 2.059-0.86884 0-1.6544-0.80933-1.6544-2.1542 0-1.333 0.77362-2.0709 1.6068-2.0709z"/><path d="m392.12 403.85h0.86884v-3.1302c0-0.35706 0.0476-0.63081 0.27374-0.92835 0.20234-0.27375 0.72602-0.76173 1.2973-0.76173 0.27375 0 0.54749 0.11902 0.73792 0.34516 0.29755 0.35706 0.29755 0.82123 0.29755 1.2021v3.273h0.84504v-3.2968c0-0.41657 0-0.86884-0.19043-1.3092-0.27375-0.607-0.83314-0.95216-1.452-0.95216-0.73792 0-1.4044 0.47608-1.8091 1.0831v-0.95216h-0.86884z"/><path d="m400.33 398.3c-1.2973 0-2.4994 0.92835-2.4994 2.9041 0 1.821 1.1307 2.785 2.6065 2.785 0.78553 0 1.4877-0.28564 1.9519-0.84503l-0.47607-0.46418c-0.34516 0.40467-0.86884 0.6189-1.4044 0.6189-0.72602 0-1.7853-0.40466-1.8448-2.0352h3.8562c0.0357-0.36896 0.0238-0.72601-0.0357-1.0355-0.24994-1.4639-1.2616-1.9281-2.1542-1.9281zm-1.6425 2.309c0.17853-1.2854 0.99977-1.6544 1.583-1.6544 0.88074 0 1.5116 0.77362 1.4044 1.6544z"/><path d="m404.02 403.85h0.86884v-3.1302c0-0.35706 0.0476-0.63081 0.27375-0.92835 0.20233-0.27375 0.72601-0.76173 1.2973-0.76173 0.27374 0 0.54748 0.11902 0.73792 0.34516 0.29754 0.35706 0.29754 0.82123 0.29754 1.2021v3.273h0.84504v-3.2968c0-0.41657 0-0.86884-0.19043-1.3092-0.27375-0.607-0.83314-0.95216-1.452-0.95216-0.73792 0-1.4044 0.47608-1.8091 1.0831v-0.95216h-0.86884z"/><path d="m411.4 396.96-0.10712 1.4639h-1.2973l-0.0119 0.70222h1.2735c-0.0714 0.92835-0.10712 1.8567-0.10712 2.7732 0 0.48798 0 1.0355 0.32135 1.4877 0.26184 0.35706 0.67841 0.57129 1.2378 0.57129 0.64271 0 1.2735-0.27374 1.7377-0.607l-0.26184-0.67841c-0.46417 0.34516-0.89264 0.49988-1.2259 0.49988-0.40466 0-0.82123-0.22613-0.91645-0.88074 0-0.0476-0.0357-0.24994-0.0357-1.0474 0-0.70221 0.0357-1.4163 0.10712-2.1185h1.7853v-0.71412h-1.7734s0.0833-0.97596 0.14282-1.2854c0.0119-0.11902 0.10712-0.19043 0.0595-0.32135z"/></g><g transform="matrix(.9997 0 0 1.0003 -263.57 -353.01)" aria-label="+ "><path d="m274.92 409.54v2.0233h-2.1066v0.73792h2.1066v2.2257h0.74983v-2.2257h2.0352v-0.73792h-2.0352v-2.0233z" fill="#a6bee3" stroke-width=".9997"/></g><g transform="matrix(.9997 0 0 1.0003 -263.57 -353.01)" aria-label="gameObject: GameObject"><path d="m297.58 412.02c0-0.65461 0.54749-1.1902 1.2021-1.1902 0.66651 0 1.2021 0.53558 1.2021 1.1902 0 0.6546-0.53558 1.1902-1.2021 1.1902s-1.2021-0.53559-1.2021-1.1902zm1.2497-1.8686c-1.0831 0-2.0233 0.85693-2.0233 1.9162 0 0.59509 0.29755 1.1545 0.79743 1.4758-0.39276 0.33326-0.6189 0.70222-0.6189 1.0474 0 0.22614 0.0952 0.54749 0.44037 0.72602-0.58319 0.36896-0.88074 0.77363-0.88074 1.2021 0 0.59509 0.54749 1.2973 2.4518 1.2973 1.8448 0 2.5113-0.94026 2.5113-1.6663 0-0.47608-0.27374-0.95216-0.84504-1.1783-0.57129-0.23804-1.2259-0.15473-1.8448-0.15473-0.40467 0-0.66651-0.0357-0.77363-0.0714-0.21423-0.0595-0.33325-0.19043-0.33325-0.35706 0-0.28564 0.33325-0.55939 0.39276-0.607 0.21423 0.0833 0.45227 0.11902 0.69031 0.11902 1.0712 0 1.9519-0.85694 1.9519-1.8567 0-0.33325-0.0952-0.6546-0.27375-0.92835 0.28565-0.16663 0.6189-0.26184 0.95216-0.26184 0.10711 0 0.20233 0.0119 0.30945 0.0357l-0.0952-0.70221c-0.54749-0.0476-1.095 0.13092-1.5115 0.47608-0.34516-0.33326-0.79743-0.51178-1.2973-0.51178zm-0.82124 5.3202c0.20234 0.0238 0.48798 0.0476 0.90455 0.0714 0.40467 0.0119 0.84504-0.0238 1.1545 0.0238 0.49988 0.0833 0.6546 0.39277 0.6546 0.6308 0 0.23804-0.14282 0.52369-0.51178 0.72602-0.40466 0.21424-0.85694 0.23804-1.2259 0.23804-0.24994 0-0.71411-0.0119-1.1188-0.17853-0.44037-0.17853-0.53559-0.47608-0.53559-0.66651 0-0.39276 0.36896-0.67841 0.67841-0.84503z"/><path d="m303.12 410.96 0.41657 0.54749c0.45227-0.46418 1.0593-0.607 1.571-0.607 0.64271 0 0.96406 0.27374 1.1188 0.52368 0.17853 0.29755 0.16663 0.65461 0.16663 0.94025v0.19043h-0.16663c-0.80933 0-1.6663 0-2.3566 0.24995-0.85694 0.30945-1.2378 0.95215-1.2378 1.5472 0 0.79743 0.69031 1.5472 1.821 1.5472 0.66651 0 1.3568-0.24994 1.9519-0.73792v0.59509h0.80933v-3.3682c0-0.44037-0.0119-0.85694-0.26184-1.2854-0.35706-0.58319-1.0474-0.89264-1.8924-0.89264-0.72602 0-1.4282 0.22613-1.94 0.74982zm3.3087 2.2495v0.36896c0 0.27375 0 0.6308-0.36896 1.0236-0.20234 0.20233-0.71412 0.6427-1.4282 0.6427-0.72602 0-1.1426-0.46417-1.1426-0.94025 0-0.40467 0.27375-0.84504 0.95216-1.0117 0.49988-0.11901 1.2259-0.0833 1.7972-0.0833z"/><path d="m308.44 415.76h0.78553v-3.6182c0-0.26184 0.0238-0.49988 0.17853-0.78553 0.19043-0.35706 0.42847-0.49988 0.65461-0.49988 0.19043 0 0.40466 0.11902 0.49988 0.41657 0.0714 0.22613 0.0595 0.48798 0.0595 0.71411v3.7729h0.79743v-3.5944c0-0.28564 0.0238-0.51178 0.22613-0.85694 0.0952-0.14282 0.29755-0.48798 0.6308-0.48798 0.17853 0 0.34516 0.10712 0.42847 0.30945 0.10712 0.22614 0.0833 0.53559 0.0833 0.78553v3.8562h0.80933v-3.8681c0-0.45227 0.0119-0.90455-0.22614-1.2735-0.20233-0.30945-0.54749-0.42847-0.84504-0.42847-0.52368 0-1.0117 0.30945-1.2259 0.78553-0.0833-0.45227-0.46418-0.78553-0.95216-0.78553-0.45227 0-0.86884 0.28565-1.1188 0.66651l0.0119-0.53559h-0.79743z"/><path d="m317.02 410.2c-1.2973 0-2.4994 0.92835-2.4994 2.9041 0 1.821 1.1307 2.785 2.6065 2.785 0.78553 0 1.4877-0.28564 1.9519-0.84503l-0.47608-0.46418c-0.34516 0.40467-0.86884 0.6189-1.4044 0.6189-0.72602 0-1.7853-0.40466-1.8448-2.0352h3.8562c0.0357-0.36896 0.0238-0.72601-0.0357-1.0355-0.24994-1.4639-1.2616-1.9281-2.1542-1.9281zm-1.6425 2.309c0.17853-1.2854 0.99976-1.6544 1.583-1.6544 0.88075 0 1.5116 0.77362 1.4044 1.6544z"/><path d="m325.5 412.07c0-0.69032-0.0476-1.6068-0.45228-2.4042-0.48797-0.95216-1.333-1.3925-2.1423-1.3925-1.1069 0-2.666 0.85694-2.666 3.7729s1.5353 3.8324 2.6779 3.8324c0.79743 0 1.6544-0.45227 2.1424-1.4401 0.39276-0.79743 0.44037-1.7139 0.44037-2.3685zm-2.6303-3.0231c0.52369 0 1.1664 0.30945 1.5116 1.1783 0.24994 0.6189 0.28564 1.333 0.28564 1.9519 0 0.48798-0.0238 1.2497-0.33325 1.8805-0.34516 0.72602-0.91645 1.0117-1.4163 1.0117-0.83314 0-1.8567-0.77362-1.8567-3.1302 0-2.2138 1.0355-2.8922 1.8091-2.8922z"/><path d="m326.55 407.84v7.9148h0.55939l0.29755-0.71411c0.35705 0.53558 0.95215 0.85694 1.6068 0.85694 1.1188 0 2.2733-0.95216 2.2733-2.9279 0-1.8924-1.1188-2.7732-2.19-2.7732-0.69031 0-1.333 0.36896-1.6782 0.96406v-3.0469c0-0.0714 0.0119-0.0952 0.0714-0.14283 0.0238-0.0119 0.0833-0.0595 0.0714-0.13092zm2.2495 3.0945c0.51178 0 1.5949 0.29755 1.5949 2.2257 0 1.6544-1.0712 1.9638-1.6068 1.9638-0.36896 0-1.1902-0.14282-1.333-1.1902-0.0357-0.27375-0.0357-0.5951-0.0357-1.0712 0-0.48798 0.0238-0.84504 0.14282-1.1426 0.20233-0.48798 0.70222-0.78553 1.2378-0.78553z"/><path d="m333.29 410.32v0.71412h2.0352v4.5108c0 0.29755-0.0119 0.58319-0.14282 0.86884-0.20234 0.44037-0.63081 0.69031-1.095 0.69031-0.65461 0-1.0117-0.47608-1.0593-0.54749-0.0476-0.0833-0.0238-0.15472-0.10712-0.21423l-0.54749 0.73792c0.39276 0.48798 0.98786 0.76172 1.6544 0.76172 0.78553 0 1.5354-0.36896 1.9043-1.0831 0.23804-0.46418 0.24994-0.90455 0.24994-1.3687v-5.0702zm2.4756-2.3566c-0.34516 0-0.6189 0.27375-0.6189 0.607s0.27374 0.607 0.6189 0.607c0.33325 0 0.607-0.27375 0.607-0.607s-0.27375-0.607-0.607-0.607z"/><path d="m340.82 410.2c-1.2973 0-2.4994 0.92835-2.4994 2.9041 0 1.821 1.1307 2.785 2.6065 2.785 0.78553 0 1.4878-0.28564 1.9519-0.84503l-0.47608-0.46418c-0.34515 0.40467-0.86884 0.6189-1.4044 0.6189-0.72602 0-1.7853-0.40466-1.8448-2.0352h3.8562c0.0357-0.36896 0.0238-0.72601-0.0357-1.0355-0.24994-1.4639-1.2616-1.9281-2.1542-1.9281zm-1.6425 2.309c0.17853-1.2854 0.99976-1.6544 1.583-1.6544 0.88074 0 1.5115 0.77362 1.4044 1.6544z"/><path d="m349.13 411.22c-0.42846-0.6308-1.1545-1.0117-2.0352-1.0117-1.5949 0-2.7256 1.2021-2.7256 2.8326 0 1.6425 1.1307 2.8565 2.6779 2.8565 0.74982 0 1.4877-0.30945 1.9995-0.86884l-0.48798-0.5713c-0.36896 0.41657-0.90454 0.65461-1.4401 0.65461-1.0593 0-1.8686-0.88074-1.8686-2.1542 0-1.2378 0.79743-2.0114 1.7972-2.0114 0.92835 0 1.3687 0.64271 1.4044 0.71412 0.0476 0.0833-0.0238 0.20233 0.0714 0.27374z"/><path d="m351.89 408.86-0.10711 1.4639h-1.2973l-0.0119 0.70222h1.2735c-0.0714 0.92835-0.10712 1.8567-0.10712 2.7732 0 0.48798 0 1.0355 0.32136 1.4877 0.26184 0.35706 0.67841 0.57129 1.2378 0.57129 0.6427 0 1.2735-0.27374 1.7377-0.607l-0.26184-0.67841c-0.46418 0.34516-0.89265 0.49988-1.2259 0.49988-0.40467 0-0.82124-0.22613-0.91645-0.88074 0-0.0476-0.0357-0.24994-0.0357-1.0474 0-0.70221 0.0357-1.4163 0.10712-2.1185h1.7853v-0.71412h-1.7734s0.0833-0.97596 0.14282-1.2854c0.0119-0.11902 0.10712-0.19043 0.0595-0.32135z"/><path d="m359.14 411.41c0-0.36896-0.30945-0.67841-0.70222-0.67841-0.39276 0-0.70221 0.30945-0.70221 0.67841 0 0.38086 0.30945 0.67841 0.70221 0.67841 0.39277 0 0.70222-0.29755 0.70222-0.67841zm0 3.7967c0-0.36895-0.30945-0.67841-0.70222-0.67841-0.39276 0-0.70221 0.30946-0.70221 0.67841 0 0.38087 0.30945 0.69032 0.70221 0.69032 0.39277 0 0.70222-0.30945 0.70222-0.69032z"/><path d="m370.8 408.27c-0.98786 0-2.8684 0.6189-2.8684 3.8681 0 2.8088 1.5711 3.7372 2.8565 3.7372 0.69032 0 1.4877-0.24994 2.1781-0.77362v-2.8922h-2.1066v0.71411h1.3449v1.7734c-0.41656 0.29755-0.89264 0.45228-1.333 0.45228-0.48798 0-1.0117-0.19044-1.4163-0.65461-0.6189-0.70221-0.70222-1.7496-0.70222-2.5232 0-0.69031 0.0833-1.3568 0.36896-1.9043 0.38087-0.72602 1.0474-1.0593 1.6663-1.0593 0.66651 0 1.1902 0.36896 1.4163 0.86884 0.0357 0.0833 0.0714 0.17853 0.16663 0.23804l0.58319-0.5951c-0.42846-0.77362-1.2378-1.2497-2.1542-1.2497z"/><path d="m374.53 410.96 0.41657 0.54749c0.45227-0.46418 1.0593-0.607 1.571-0.607 0.64271 0 0.96406 0.27374 1.1188 0.52368 0.17853 0.29755 0.16663 0.65461 0.16663 0.94025v0.19043h-0.16663c-0.80933 0-1.6663 0-2.3566 0.24995-0.85694 0.30945-1.2378 0.95215-1.2378 1.5472 0 0.79743 0.69031 1.5472 1.821 1.5472 0.6665 0 1.3568-0.24994 1.9519-0.73792v0.59509h0.80933v-3.3682c0-0.44037-0.0119-0.85694-0.26184-1.2854-0.35706-0.58319-1.0474-0.89264-1.8924-0.89264-0.72602 0-1.4282 0.22613-1.94 0.74982zm3.3087 2.2495v0.36896c0 0.27375 0 0.6308-0.36896 1.0236-0.20234 0.20233-0.71412 0.6427-1.4282 0.6427-0.72602 0-1.1426-0.46417-1.1426-0.94025 0-0.40467 0.27375-0.84504 0.95215-1.0117 0.49989-0.11901 1.2259-0.0833 1.7972-0.0833z"/><path d="m379.85 415.76h0.78552v-3.6182c0-0.26184 0.0238-0.49988 0.17853-0.78553 0.19043-0.35706 0.42847-0.49988 0.65461-0.49988 0.19043 0 0.40466 0.11902 0.49988 0.41657 0.0714 0.22613 0.0595 0.48798 0.0595 0.71411v3.7729h0.79743v-3.5944c0-0.28564 0.0238-0.51178 0.22614-0.85694 0.0952-0.14282 0.29754-0.48798 0.6308-0.48798 0.17853 0 0.34515 0.10712 0.42847 0.30945 0.10711 0.22614 0.0833 0.53559 0.0833 0.78553v3.8562h0.80933v-3.8681c0-0.45227 0.0119-0.90455-0.22613-1.2735-0.20234-0.30945-0.54749-0.42847-0.84504-0.42847-0.52369 0-1.0117 0.30945-1.2259 0.78553-0.0833-0.45227-0.46418-0.78553-0.95215-0.78553-0.45228 0-0.86885 0.28565-1.1188 0.66651l0.0119-0.53559h-0.79743z"/><path d="m388.43 410.2c-1.2973 0-2.4994 0.92835-2.4994 2.9041 0 1.821 1.1307 2.785 2.6065 2.785 0.78552 0 1.4877-0.28564 1.9519-0.84503l-0.47607-0.46418c-0.34516 0.40467-0.86885 0.6189-1.4044 0.6189-0.72602 0-1.7853-0.40466-1.8448-2.0352h3.8562c0.0357-0.36896 0.0238-0.72601-0.0357-1.0355-0.24994-1.4639-1.2616-1.9281-2.1542-1.9281zm-1.6425 2.309c0.17853-1.2854 0.99976-1.6544 1.583-1.6544 0.88074 0 1.5115 0.77362 1.4044 1.6544z"/><path d="m396.92 412.07c0-0.69032-0.0476-1.6068-0.45228-2.4042-0.48798-0.95216-1.333-1.3925-2.1423-1.3925-1.1069 0-2.666 0.85694-2.666 3.7729s1.5354 3.8324 2.6779 3.8324c0.79743 0 1.6544-0.45227 2.1423-1.4401 0.39277-0.79743 0.44038-1.7139 0.44038-2.3685zm-2.6303-3.0231c0.52368 0 1.1664 0.30945 1.5115 1.1783 0.24994 0.6189 0.28565 1.333 0.28565 1.9519 0 0.48798-0.0238 1.2497-0.33325 1.8805-0.34516 0.72602-0.91645 1.0117-1.4163 1.0117-0.83314 0-1.8567-0.77362-1.8567-3.1302 0-2.2138 1.0355-2.8922 1.8091-2.8922z"/><path d="m397.96 407.84v7.9148h0.55939l0.29755-0.71411c0.35705 0.53558 0.95215 0.85694 1.6068 0.85694 1.1188 0 2.2733-0.95216 2.2733-2.9279 0-1.8924-1.1188-2.7732-2.19-2.7732-0.69031 0-1.333 0.36896-1.6782 0.96406v-3.0469c0-0.0714 0.0119-0.0952 0.0714-0.14283 0.0238-0.0119 0.0833-0.0595 0.0714-0.13092zm2.2495 3.0945c0.51178 0 1.5949 0.29755 1.5949 2.2257 0 1.6544-1.0712 1.9638-1.6068 1.9638-0.36896 0-1.1902-0.14282-1.333-1.1902-0.0357-0.27375-0.0357-0.5951-0.0357-1.0712 0-0.48798 0.0238-0.84504 0.14282-1.1426 0.20233-0.48798 0.70221-0.78553 1.2378-0.78553z"/><path d="m404.7 410.32v0.71412h2.0352v4.5108c0 0.29755-0.0119 0.58319-0.14282 0.86884-0.20234 0.44037-0.63081 0.69031-1.095 0.69031-0.65461 0-1.0117-0.47608-1.0593-0.54749-0.0476-0.0833-0.0238-0.15472-0.10712-0.21423l-0.54749 0.73792c0.39277 0.48798 0.98786 0.76172 1.6544 0.76172 0.78553 0 1.5354-0.36896 1.9043-1.0831 0.23804-0.46418 0.24994-0.90455 0.24994-1.3687v-5.0702zm2.4756-2.3566c-0.34515 0-0.6189 0.27375-0.6189 0.607s0.27375 0.607 0.6189 0.607c0.33326 0 0.607-0.27375 0.607-0.607s-0.27374-0.607-0.607-0.607z"/><path d="m412.23 410.2c-1.2973 0-2.4994 0.92835-2.4994 2.9041 0 1.821 1.1307 2.785 2.6065 2.785 0.78553 0 1.4877-0.28564 1.9519-0.84503l-0.47608-0.46418c-0.34515 0.40467-0.86884 0.6189-1.4044 0.6189-0.72601 0-1.7853-0.40466-1.8448-2.0352h3.8562c0.0357-0.36896 0.0238-0.72601-0.0357-1.0355-0.24994-1.4639-1.2616-1.9281-2.1542-1.9281zm-1.6425 2.309c0.17853-1.2854 0.99976-1.6544 1.583-1.6544 0.88074 0 1.5115 0.77362 1.4044 1.6544z"/><path d="m420.54 411.22c-0.42847-0.6308-1.1545-1.0117-2.0352-1.0117-1.5949 0-2.7255 1.2021-2.7255 2.8326 0 1.6425 1.1307 2.8565 2.6779 2.8565 0.74982 0 1.4877-0.30945 1.9995-0.86884l-0.48798-0.5713c-0.36896 0.41657-0.90455 0.65461-1.4401 0.65461-1.0593 0-1.8686-0.88074-1.8686-2.1542 0-1.2378 0.79743-2.0114 1.7972-2.0114 0.92835 0 1.3687 0.64271 1.4044 0.71412 0.0476 0.0833-0.0238 0.20233 0.0714 0.27374z"/><path d="m423.3 408.86-0.10712 1.4639h-1.2973l-0.0119 0.70222h1.2735c-0.0714 0.92835-0.10712 1.8567-0.10712 2.7732 0 0.48798 0 1.0355 0.32135 1.4877 0.26185 0.35706 0.67841 0.57129 1.2378 0.57129 0.64271 0 1.2735-0.27374 1.7377-0.607l-0.26185-0.67841c-0.46417 0.34516-0.89264 0.49988-1.2259 0.49988-0.40466 0-0.82123-0.22613-0.91644-0.88074 0-0.0476-0.0357-0.24994-0.0357-1.0474 0-0.70221 0.0357-1.4163 0.10712-2.1185h1.7853v-0.71412h-1.7734s0.0833-0.97596 0.14282-1.2854c0.0119-0.11902 0.10712-0.19043 0.0595-0.32135z"/></g><g transform="matrix(.9997 0 0 1.0003 -263.57 -353.01)" aria-label="+ "><path d="m274.92 421.44v2.0233h-2.1066v0.73792h2.1066v2.2257h0.74983v-2.2257h2.0352v-0.73792h-2.0352v-2.0233z" fill="#a6bee3" stroke-width=".9997"/></g><g transform="matrix(.9997 0 0 1.0003 -263.57 -353.01)" aria-label="expired: boolean"><path d="m299.17 422.09c-1.2973 0-2.4994 0.92835-2.4994 2.9041 0 1.821 1.1307 2.785 2.6065 2.785 0.78553 0 1.4877-0.28565 1.9519-0.84504l-0.47607-0.46417c-0.34516 0.40466-0.86884 0.6189-1.4044 0.6189-0.72602 0-1.7853-0.40467-1.8448-2.0352h3.8562c0.0357-0.36896 0.0238-0.72602-0.0357-1.0355-0.24994-1.4639-1.2616-1.9281-2.1542-1.9281zm-1.6425 2.309c0.17852-1.2854 0.99976-1.6544 1.583-1.6544 0.88074 0 1.5116 0.77362 1.4044 1.6544z"/><path d="m306.35 422.21-1.3568 2.0114-1.4282-2.0114h-0.92835l1.8686 2.6779-1.9043 2.7612h0.96405l1.4163-2.1066 1.4996 2.1066h0.97595l-1.9995-2.785 1.7615-2.6541z"/><path d="m308.7 422.22 0.0119 7.4149h0.86884v-2.7017c0.36896 0.53559 0.97596 0.86885 1.6306 0.86885 1.1188 0 2.2852-0.94026 2.2852-2.9279 0-1.9162-1.1307-2.7732-2.2018-2.7732-0.70222 0-1.3568 0.35706-1.7258 0.95216v-0.83314zm2.2733 0.607c0.47608 0 1.6306 0.24994 1.6306 2.2257 0 1.7139-1.1188 1.9876-1.6306 1.9876-0.51178 0-1.0355-0.26184-1.2497-0.74982-0.15472-0.36896-0.15472-0.82123-0.15472-1.6068 0-0.45227 0.0238-0.78553 0.14282-1.0712 0.21423-0.48798 0.71412-0.78553 1.2616-0.78553z"/><path d="m315.21 422.21v0.70221h1.3092v4.0586h-1.3806v0.67841h3.523v-0.67841h-1.2735v-4.7608zm1.7615-2.3566c-0.34516 0-0.6189 0.27374-0.6189 0.607 0 0.33325 0.27374 0.60699 0.6189 0.60699 0.34515 0 0.6189-0.27374 0.6189-0.60699 0-0.33326-0.27375-0.607-0.6189-0.607z"/><path d="m321.08 422.22v5.4392h0.85694v-2.6422c0-0.33325 0.0119-0.69031 0.38086-1.2735 0.49988-0.78553 1.1426-0.91645 1.5354-0.91645 0.45227 0 0.73792 0.21423 0.89264 0.40466 0.0714 0.0952 0.10712 0.19044 0.20234 0.27375l0.40466-0.82123c-0.34515-0.35706-0.84503-0.5951-1.452-0.5951-0.79743 0-1.6068 0.40467-1.9638 1.1783l0.0357-1.0474z"/><path d="m328.92 422.09c-1.2973 0-2.4994 0.92835-2.4994 2.9041 0 1.821 1.1307 2.785 2.6065 2.785 0.78553 0 1.4877-0.28565 1.9519-0.84504l-0.47607-0.46417c-0.34516 0.40466-0.86884 0.6189-1.4044 0.6189-0.72602 0-1.7853-0.40467-1.8448-2.0352h3.8562c0.0357-0.36896 0.0238-0.72602-0.0357-1.0355-0.24994-1.4639-1.2616-1.9281-2.1542-1.9281zm-1.6425 2.309c0.17852-1.2854 0.99976-1.6544 1.583-1.6544 0.88074 0 1.5116 0.77362 1.4044 1.6544z"/><path d="m336.22 423.01c-0.26184-0.55939-0.84503-0.92835-1.5949-0.92835-1.0355 0-2.2971 0.73792-2.2971 2.8088 0 2.0114 1.1188 2.8922 2.1662 2.8922 0.69032 0 1.333-0.39276 1.6782-0.99976v0.47608c0 0.13092 0.0119 0.26184 0.0476 0.39276h0.85694c-0.0476-0.15473-0.0476-0.33325-0.0476-0.49988l-0.0119-7.0698c0-0.0714 0-0.0952 0.0476-0.16662 0.0238-0.0357 0.0714-0.0952 0.0595-0.17853h-0.90455zm-1.5592-0.22614c0.47608 0 1.1783 0.24994 1.3925 1.0593 0.0714 0.24994 0.0952 0.54749 0.0952 1.1545 0 0.41657-0.0238 0.71412-0.11902 0.99976-0.20233 0.64271-0.77362 1.0236-1.333 1.0236-0.6189 0-1.5354-0.47608-1.5354-2.2614 0-1.5592 0.86884-1.9757 1.4996-1.9757z"/><path d="m341.29 423.31c0-0.36896-0.30945-0.67841-0.70221-0.67841-0.39277 0-0.70222 0.30945-0.70222 0.67841 0 0.38086 0.30945 0.67841 0.70222 0.67841 0.39276 0 0.70221-0.29755 0.70221-0.67841zm0 3.7967c0-0.36896-0.30945-0.67841-0.70221-0.67841-0.39277 0-0.70222 0.30945-0.70222 0.67841 0 0.38086 0.30945 0.69031 0.70222 0.69031 0.39276 0 0.70221-0.30945 0.70221-0.69031z"/><path d="m350.36 419.74v7.9148h0.55939l0.29754-0.71412c0.35706 0.53559 0.95216 0.85694 1.6068 0.85694 1.1188 0 2.2733-0.95215 2.2733-2.9279 0-1.8924-1.1188-2.7732-2.19-2.7732-0.69031 0-1.333 0.36896-1.6782 0.96406v-3.0469c0-0.0714 0.0119-0.0952 0.0714-0.14282 0.0238-0.0119 0.0833-0.0595 0.0714-0.13092zm2.2495 3.0945c0.51178 0 1.5949 0.29755 1.5949 2.2257 0 1.6544-1.0712 1.9638-1.6068 1.9638-0.36896 0-1.1902-0.14283-1.333-1.1902-0.0357-0.27374-0.0357-0.59509-0.0357-1.0712 0-0.48798 0.0238-0.84504 0.14282-1.1426 0.20233-0.48798 0.70221-0.78553 1.2378-0.78553z"/><path d="m361.08 424.96c0-1.8805-1.1902-2.8565-2.428-2.8565-1.3806 0-2.5708 1.1902-2.5708 2.8803 0 1.6544 1.1783 2.8208 2.547 2.8208 1.2854 0 2.4518-1.0355 2.4518-2.8446zm-2.4875-2.1304c0.78552 0 1.6187 0.67841 1.6187 2.1662 0 1.3687-0.78553 2.059-1.571 2.059-0.86885 0-1.6544-0.80933-1.6544-2.1542 0-1.333 0.77362-2.0709 1.6068-2.0709z"/><path d="m367.03 424.96c0-1.8805-1.1902-2.8565-2.428-2.8565-1.3806 0-2.5708 1.1902-2.5708 2.8803 0 1.6544 1.1783 2.8208 2.547 2.8208 1.2854 0 2.4518-1.0355 2.4518-2.8446zm-2.4875-2.1304c0.78553 0 1.6187 0.67841 1.6187 2.1662 0 1.3687-0.78553 2.059-1.571 2.059-0.86884 0-1.6544-0.80933-1.6544-2.1542 0-1.333 0.77362-2.0709 1.6068-2.0709z"/><path d="m368.51 419.75v0.69031h1.5472v6.5342h-1.6187v0.67841h4.0824v-0.67841h-1.6068v-7.2245z"/><path d="m376.53 422.09c-1.2973 0-2.4994 0.92835-2.4994 2.9041 0 1.821 1.1307 2.785 2.6065 2.785 0.78553 0 1.4877-0.28565 1.9519-0.84504l-0.47608-0.46417c-0.34515 0.40466-0.86884 0.6189-1.4044 0.6189-0.72601 0-1.7853-0.40467-1.8448-2.0352h3.8562c0.0357-0.36896 0.0238-0.72602-0.0357-1.0355-0.24994-1.4639-1.2616-1.9281-2.1542-1.9281zm-1.6425 2.309c0.17853-1.2854 0.99976-1.6544 1.583-1.6544 0.88074 0 1.5115 0.77362 1.4044 1.6544z"/><path d="m380.48 422.85 0.41657 0.54749c0.45227-0.46417 1.0593-0.607 1.571-0.607 0.64271 0 0.96406 0.27375 1.1188 0.52369 0.17853 0.29755 0.16663 0.6546 0.16663 0.94025v0.19043h-0.16663c-0.80933 0-1.6663 0-2.3566 0.24994-0.85694 0.30945-1.2378 0.95216-1.2378 1.5472 0 0.79743 0.69031 1.5472 1.821 1.5472 0.6665 0 1.3568-0.24994 1.9519-0.73792v0.5951h0.80933v-3.3682c0-0.44037-0.0119-0.85693-0.26184-1.2854-0.35706-0.5832-1.0474-0.89265-1.8924-0.89265-0.72601 0-1.4282 0.22614-1.94 0.74982zm3.3087 2.2495v0.36896c0 0.27374 0 0.6308-0.36896 1.0236-0.20234 0.20234-0.71412 0.64271-1.4282 0.64271-0.72601 0-1.1426-0.46418-1.1426-0.94026 0-0.40466 0.27374-0.84503 0.95215-1.0117 0.49988-0.11902 1.2259-0.0833 1.7972-0.0833z"/><path d="m386.17 427.65h0.86884v-3.1302c0-0.35705 0.0476-0.6308 0.27375-0.92835 0.20233-0.27374 0.72602-0.76172 1.2973-0.76172 0.27374 0 0.54749 0.11902 0.73792 0.34516 0.29755 0.35705 0.29755 0.82123 0.29755 1.2021v3.273h0.84503v-3.2968c0-0.41657 0-0.86884-0.19043-1.3092-0.27374-0.60699-0.83313-0.95215-1.452-0.95215-0.73792 0-1.4044 0.47608-1.8091 1.0831v-0.95216h-0.86884z"/></g><g transform="matrix(.9997 0 0 1.0003 -263.57 -353.01)" aria-label="+ "><path d="m274.92 433.34v2.0233h-2.1066v0.73792h2.1066v2.2257h0.74983v-2.2257h2.0352v-0.73792h-2.0352v-2.0233z" fill="#a6bee3" stroke-width=".9997"/></g><g transform="matrix(.9997 0 0 1.0003 -263.57 -353.01)" aria-label="data: any"><path d="m300.51 434.91c-0.26184-0.55939-0.84504-0.92835-1.5949-0.92835-1.0355 0-2.2971 0.73792-2.2971 2.8088 0 2.0114 1.1188 2.8922 2.1662 2.8922 0.69031 0 1.333-0.39276 1.6782-0.99976v0.47608c0 0.13092 0.0119 0.26184 0.0476 0.39276h0.85694c-0.0476-0.15473-0.0476-0.33326-0.0476-0.49988l-0.0119-7.0698c0-0.0714 0-0.0952 0.0476-0.16662 0.0238-0.0357 0.0714-0.0952 0.0595-0.17853h-0.90455zm-1.5592-0.22614c0.47607 0 1.1783 0.24994 1.3925 1.0593 0.0714 0.24994 0.0952 0.54749 0.0952 1.1545 0 0.41657-0.0238 0.71411-0.11902 0.99976-0.20233 0.6427-0.77363 1.0236-1.333 1.0236-0.6189 0-1.5354-0.47608-1.5354-2.2614 0-1.5592 0.86884-1.9757 1.4996-1.9757z"/><path d="m303.12 434.76 0.41657 0.54749c0.45227-0.46417 1.0593-0.607 1.571-0.607 0.64271 0 0.96406 0.27375 1.1188 0.52369 0.17853 0.29755 0.16663 0.6546 0.16663 0.94025v0.19043h-0.16663c-0.80933 0-1.6663 0-2.3566 0.24994-0.85694 0.30945-1.2378 0.95215-1.2378 1.5472 0 0.79743 0.69031 1.5472 1.821 1.5472 0.66651 0 1.3568-0.24994 1.9519-0.73792v0.5951h0.80933v-3.3682c0-0.44037-0.0119-0.85694-0.26184-1.2854-0.35706-0.5832-1.0474-0.89265-1.8924-0.89265-0.72602 0-1.4282 0.22614-1.94 0.74982zm3.3087 2.2495v0.36896c0 0.27374 0 0.6308-0.36896 1.0236-0.20234 0.20233-0.71412 0.64271-1.4282 0.64271-0.72602 0-1.1426-0.46418-1.1426-0.94026 0-0.40466 0.27375-0.84503 0.95216-1.0117 0.49988-0.11902 1.2259-0.0833 1.7972-0.0833z"/><path d="m310.23 432.66-0.10711 1.4639h-1.2973l-0.0119 0.70221h1.2735c-0.0714 0.92835-0.10712 1.8567-0.10712 2.7732 0 0.48798 0 1.0355 0.32136 1.4877 0.26184 0.35706 0.67841 0.5713 1.2378 0.5713 0.6427 0 1.2735-0.27375 1.7377-0.607l-0.26184-0.67841c-0.46418 0.34515-0.89265 0.49988-1.2259 0.49988-0.40467 0-0.82124-0.22614-0.91645-0.88074 0-0.0476-0.0357-0.24994-0.0357-1.0474 0-0.70222 0.0357-1.4163 0.10712-2.1186h1.7853v-0.71411h-1.7734s0.0833-0.97596 0.14282-1.2854c0.0119-0.11902 0.10712-0.19043 0.0595-0.32135z"/><path d="m315.02 434.76 0.41657 0.54749c0.45227-0.46417 1.0593-0.607 1.571-0.607 0.64271 0 0.96406 0.27375 1.1188 0.52369 0.17853 0.29755 0.16663 0.6546 0.16663 0.94025v0.19043h-0.16663c-0.80933 0-1.6663 0-2.3566 0.24994-0.85694 0.30945-1.2378 0.95215-1.2378 1.5472 0 0.79743 0.69031 1.5472 1.821 1.5472 0.6665 0 1.3568-0.24994 1.9519-0.73792v0.5951h0.80933v-3.3682c0-0.44037-0.0119-0.85694-0.26184-1.2854-0.35706-0.5832-1.0474-0.89265-1.8924-0.89265-0.72601 0-1.4282 0.22614-1.94 0.74982zm3.3087 2.2495v0.36896c0 0.27374 0 0.6308-0.36896 1.0236-0.20234 0.20233-0.71412 0.64271-1.4282 0.64271-0.72601 0-1.1426-0.46418-1.1426-0.94026 0-0.40466 0.27374-0.84503 0.95215-1.0117 0.49988-0.11902 1.2259-0.0833 1.7972-0.0833z"/><path d="m323.43 435.21c0-0.36896-0.30945-0.67841-0.70221-0.67841-0.39277 0-0.70222 0.30945-0.70222 0.67841 0 0.38086 0.30945 0.67841 0.70222 0.67841 0.39276 0 0.70221-0.29755 0.70221-0.67841zm0 3.7967c0-0.36896-0.30945-0.67841-0.70221-0.67841-0.39277 0-0.70222 0.30945-0.70222 0.67841 0 0.38086 0.30945 0.69031 0.70222 0.69031 0.39276 0 0.70221-0.30945 0.70221-0.69031z"/><path d="m332.87 434.76 0.41657 0.54749c0.45227-0.46417 1.0593-0.607 1.571-0.607 0.64271 0 0.96406 0.27375 1.1188 0.52369 0.17853 0.29755 0.16663 0.6546 0.16663 0.94025v0.19043h-0.16663c-0.80933 0-1.6663 0-2.3566 0.24994-0.85694 0.30945-1.2378 0.95215-1.2378 1.5472 0 0.79743 0.69031 1.5472 1.821 1.5472 0.66651 0 1.3568-0.24994 1.9519-0.73792v0.5951h0.80933v-3.3682c0-0.44037-0.0119-0.85694-0.26184-1.2854-0.35706-0.5832-1.0474-0.89265-1.8924-0.89265-0.72602 0-1.4282 0.22614-1.94 0.74982zm3.3087 2.2495v0.36896c0 0.27374 0 0.6308-0.36896 1.0236-0.20234 0.20233-0.71412 0.64271-1.4282 0.64271-0.72602 0-1.1426-0.46418-1.1426-0.94026 0-0.40466 0.27375-0.84503 0.95216-1.0117 0.49988-0.11902 1.2259-0.0833 1.7972-0.0833z"/><path d="m338.56 439.55h0.86884v-3.1302c0-0.35706 0.0476-0.6308 0.27375-0.92835 0.20233-0.27374 0.72601-0.76172 1.2973-0.76172 0.27374 0 0.54748 0.11902 0.73792 0.34515 0.29754 0.35706 0.29754 0.82124 0.29754 1.2021v3.273h0.84504v-3.2968c0-0.41656 0-0.86884-0.19043-1.3092-0.27374-0.607-0.83314-0.95215-1.452-0.95215-0.73791 0-1.4044 0.47608-1.8091 1.0831v-0.95215h-0.86884z"/><path d="m344.24 434.13 2.2138 5.4154-0.17853 0.39276c-0.0952 0.22614-0.20233 0.45227-0.36896 0.6308-0.22613 0.24994-0.51178 0.35706-0.76172 0.35706-0.40467 0-0.607-0.27374-0.64271-0.32135-0.0357-0.0595-0.0238-0.14282-0.0952-0.20233l-0.44037 0.77362c0.30945 0.29755 0.72602 0.45227 1.1783 0.45227 0.48798 0 0.99976-0.17852 1.3568-0.58319 0.23804-0.27374 0.35706-0.55939 0.47608-0.86884l1.6901-4.487c0.20233-0.51178 0.38086-1.0355 0.54749-1.571h-0.89265c-0.0952 0.49988-0.24994 0.97596-0.41656 1.452l-1.0355 2.916-1.5949-4.011c-0.0119-0.0357-0.0119-0.0595-0.0119-0.0952 0-0.0833 0.0595-0.14282 0.0476-0.24994z"/></g>
</g></svg>
