<svg width="705.21" height="280" version="1.1" viewBox="0 0 186.59 74.085" xmlns="http://www.w3.org/2000/svg">
 <g fill="#1d232d" stroke-width=".26459">
  <path d="m55.562 5.5512a2.6459 2.6459 0 0 1-2.6459 2.6459 2.6459 2.6459 0 0 1-2.6459-2.6459 2.6459 2.6459 0 0 1 2.6459-2.6459 2.6459 2.6459 0 0 1 2.6459 2.6459z" stroke="#e9e56f" stroke-linecap="round"/>
  <g stroke="#30d2d5">
   <path d="m55.562 21.427a2.6459 2.6459 0 0 1-2.6459 2.6459 2.6459 2.6459 0 0 1-2.6459-2.6459 2.6459 2.6459 0 0 1 2.6459-2.6459 2.6459 2.6459 0 0 1 2.6459 2.6459z" stroke-linecap="round"/>
   <path d="m55.562 37.302a2.6459 2.6459 0 0 1-2.6459 2.6459 2.6459 2.6459 0 0 1-2.6459-2.6459 2.6459 2.6459 0 0 1 2.6459-2.6459 2.6459 2.6459 0 0 1 2.6459 2.6459z" stroke-linecap="round"/>
   <path d="m23.812 0.39685v17.061c2.1919 0 3.9689 1.7769 3.9689 3.9689 0 2.192-1.7769 3.9689-3.9689 3.9689v17.336h29.105v-1.4604c-2.192 0-3.9689-1.7769-3.9689-3.9689s1.7769-3.9689 3.9689-3.9689v-7.9377c-2.192 0-3.9689-1.7769-3.9689-3.9689 0-2.1919 1.7769-3.9689 3.9689-3.9689v-7.9377c-2.192 0-3.9689-1.7769-3.9689-3.9689 0-2.1919 1.7769-3.9689 3.9689-3.9689v-1.1855z" stroke-dashoffset="1.2" stroke-linecap="square"/>
   <path d="m55.562 5.5512a2.6459 2.6459 0 0 1-2.6459 2.6459 2.6459 2.6459 0 0 1-2.6459-2.6459 2.6459 2.6459 0 0 1 2.6459-2.6459 2.6459 2.6459 0 0 1 2.6459 2.6459z" stroke-linecap="round"/>
   <path d="m26.457 21.427a2.6459 2.6459 0 0 1-2.6459 2.6459 2.6459 2.6459 0 0 1-2.6459-2.6459 2.6459 2.6459 0 0 1 2.6459-2.6459 2.6459 2.6459 0 0 1 2.6459 2.6459z" stroke-linecap="round"/>
  </g>
 </g>
 <g fill="#6f8ce9">
  <path d="m16.932 18.654v1.4501h-2.1167l-2.6459 2.6459h4.7626v1.4604l3.4397-2.6459s0.05466-0.03368 0.05466-0.1323c0-0.09861-0.05466-0.1323-0.05466-0.1323z"/>
  <path d="m10.582 22.75 2.6459-2.6459h-2.6459l-2.6459 2.6459z"/>
  <path d="m6.6131 22.75 2.6459-2.6459h-2.6459l-2.6459 2.6459z"/>
  <path d="m2.6442 22.75 2.6459-2.6459h-2.6459l-2.6459 2.6459z"/>
 </g>
 <g stroke-linecap="round">
  <g fill="#e8eaec" stroke-width=".26459" aria-label="Sync and error checking">
   <path d="m32.028 19.276c0.18098 0.18733 0.43499 0.30798 0.7271 0.30798 0.43816 0 0.71122-0.26353 0.71122-0.59374 0-0.30798-0.18733-0.45086-0.42864-0.55564l-0.29846-0.127c-0.16193-0.06985-0.34608-0.14605-0.34608-0.34608 0-0.18733 0.15558-0.30481 0.39054-0.30481 0.19051 0 0.34608 0.0762 0.47309 0.19686l0.1397-0.17146c-0.14606-0.1524-0.36514-0.25718-0.61279-0.25718-0.37784 0-0.65724 0.23496-0.65724 0.55246 0 0.30481 0.22861 0.45404 0.42229 0.53659l0.29846 0.13018c0.19686 0.0889 0.34926 0.15558 0.34926 0.36831 0 0.2032-0.16193 0.33973-0.43499 0.33973-0.21908 0-0.42546-0.10478-0.57469-0.26036z"/>
   <path d="m33.737 19.971-0.0508 0.20638c0.0508 0.01905 0.11113 0.03175 0.18098 0.03175 0.31116 0 0.46991-0.23178 0.57787-0.53659l0.58104-1.6701h-0.25401l-0.27623 0.8541c-0.04128 0.13653-0.08573 0.29528-0.13018 0.43499h-0.0127c-0.04763-0.14288-0.1016-0.30163-0.14923-0.43499l-0.31433-0.8541h-0.26988l0.61914 1.5463-0.03493 0.1143c-0.0635 0.19051-0.17463 0.33021-0.34926 0.33021-0.0381 0-0.08573-0.0127-0.11748-0.02223z"/>
   <path d="m35.324 19.546h0.26036v-1.1176c0.15558-0.15558 0.26353-0.23813 0.42229-0.23813 0.20321 0 0.29211 0.12383 0.29211 0.41276v0.943h0.26036v-0.97793c0-0.39371-0.14605-0.60327-0.46991-0.60327-0.21273 0-0.37148 0.1143-0.51754 0.26036h-0.0095l-0.02223-0.22226h-0.21591z"/>
   <path d="m36.946 18.777c0 0.51119 0.31433 0.80647 0.72392 0.80647 0.18416 0 0.36196-0.0762 0.50166-0.20003l-0.11748-0.17146c-0.09208 0.08255-0.21591 0.15558-0.36196 0.15558-0.28258 0-0.47626-0.23813-0.47626-0.59057 0-0.35561 0.20321-0.59692 0.48261-0.59692 0.12383 0 0.21908 0.05715 0.31116 0.13653l0.13018-0.16828c-0.10478-0.09843-0.24766-0.18416-0.45086-0.18416-0.39689 0-0.74297 0.29528-0.74297 0.81282z"/>
   <path d="m39.068 19.146c0 0.27623 0.19368 0.43816 0.45404 0.43816 0.1905 0 0.36196-0.1016 0.51119-0.22226h0.0064l0.02223 0.18416h0.21591v-0.94618c0-0.38419-0.15875-0.63502-0.53659-0.63502-0.24766 0-0.46356 0.10795-0.60644 0.20003l0.10478 0.18098c0.12065-0.08255 0.27941-0.1651 0.46039-0.1651 0.25083 0 0.31751 0.1905 0.31751 0.38736-0.65724 0.07303-0.94935 0.24131-0.94935 0.57787zm0.25718-0.01905c0-0.19686 0.17463-0.32386 0.69217-0.38736v0.42864c-0.14923 0.13335-0.27306 0.20638-0.42229 0.20638-0.1524 0-0.26988-0.07303-0.26988-0.24766z"/>
   <path d="m40.769 19.546h0.26036v-1.1176c0.15558-0.15558 0.26353-0.23813 0.42229-0.23813 0.20321 0 0.29211 0.12383 0.29211 0.41276v0.943h0.26036v-0.97793c0-0.39371-0.14605-0.60327-0.46991-0.60327-0.21273 0-0.37149 0.1143-0.51754 0.26036h-0.0095l-0.02223-0.22226h-0.21591z"/>
   <path d="m42.394 18.777c0 0.51436 0.25083 0.80647 0.63819 0.80647 0.18098 0 0.34608-0.1016 0.46674-0.21908h0.0095l0.02223 0.18098h0.21591v-2.2607h-0.26351v0.59374l0.0127 0.26353c-0.13653-0.11113-0.25401-0.1778-0.43181-0.1778-0.35244 0-0.66994 0.31116-0.66994 0.81282zm0.26988-0.0032c0-0.35244 0.19686-0.59057 0.44451-0.59057 0.127 0 0.24448 0.04445 0.37466 0.16193v0.80647c-0.127 0.14288-0.25083 0.21273-0.39371 0.21273-0.26988 0-0.42546-0.22226-0.42546-0.59057z"/>
   <path d="m28.549 23.408c0 0.50484 0.32703 0.80647 0.7398 0.80647 0.20956 0 0.37466-0.07303 0.50801-0.15875l-0.09208-0.17146c-0.1143 0.07303-0.23813 0.12065-0.38419 0.12065-0.29528 0-0.49531-0.20956-0.51436-0.54294h1.0414c0.0063-0.0381 0.0095-0.0889 0.0095-0.14288 0-0.44134-0.22226-0.72392-0.61597-0.72392-0.35244 0-0.69217 0.30798-0.69217 0.81282zm0.25401-0.11748c0.03175-0.31116 0.22861-0.48896 0.44451-0.48896 0.24131 0 0.38101 0.17463 0.38101 0.48896z"/>
   <path d="m30.239 24.176h0.26036v-0.99063c0.10478-0.26036 0.26036-0.35561 0.39054-0.35561 0.0635 0 0.09843 0.0095 0.14923 0.0254l0.0508-0.22861c-0.0508-0.02223-0.09843-0.03175-0.1651-0.03175-0.17463 0-0.33338 0.12383-0.43816 0.31751h-0.0095l-0.02222-0.27941h-0.21591z"/>
   <path d="m31.343 24.176h0.26036v-0.99063c0.10478-0.26036 0.26036-0.35561 0.39054-0.35561 0.0635 0 0.09843 0.0095 0.14923 0.0254l0.0508-0.22861c-0.0508-0.02223-0.09843-0.03175-0.1651-0.03175-0.17463 0-0.33338 0.12383-0.43816 0.31751h-0.0095l-0.02223-0.27941h-0.21591z"/>
   <path d="m32.301 23.408c0 0.51119 0.33656 0.80647 0.7144 0.80647 0.37784 0 0.7144-0.29528 0.7144-0.80647 0-0.51754-0.33656-0.81282-0.7144-0.81282-0.37784 0-0.7144 0.29528-0.7144 0.81282zm0.26988 0c0-0.35561 0.18098-0.59692 0.44451-0.59692 0.26671 0 0.44451 0.24131 0.44451 0.59692 0 0.35244-0.1778 0.59057-0.44451 0.59057-0.26353 0-0.44451-0.23813-0.44451-0.59057z"/>
   <path d="m34.139 24.176h0.26036v-0.99063c0.10478-0.26036 0.26036-0.35561 0.39054-0.35561 0.0635 0 0.09843 0.0095 0.14923 0.0254l0.0508-0.22861c-0.0508-0.02223-0.09843-0.03175-0.1651-0.03175-0.17463 0-0.33338 0.12383-0.43816 0.31751h-0.0095l-0.02225-0.27941h-0.21591z"/>
   <path d="m35.768 23.408c0 0.51119 0.31433 0.80647 0.72392 0.80647 0.18416 0 0.36196-0.0762 0.50166-0.20003l-0.11748-0.17146c-0.09208 0.08255-0.21591 0.15558-0.36196 0.15558-0.28258 0-0.47626-0.23813-0.47626-0.59057 0-0.35561 0.20321-0.59692 0.48261-0.59692 0.12383 0 0.21908 0.05715 0.31116 0.13653l0.13018-0.16828c-0.10478-0.09843-0.24766-0.18416-0.45086-0.18416-0.39689 0-0.74297 0.29528-0.74297 0.81282z"/>
   <path d="m37.327 24.176h0.26036v-1.1176c0.15558-0.15558 0.26353-0.23813 0.42229-0.23813 0.20321 0 0.29211 0.12383 0.29211 0.41276v0.943h0.26036v-0.97793c0-0.39371-0.14605-0.60327-0.46991-0.60327-0.21273 0-0.36831 0.1143-0.51436 0.25401l0.0095-0.31751v-0.61597h-0.26036z"/>
   <path d="m38.943 23.408c0 0.50484 0.32704 0.80647 0.7398 0.80647 0.20956 0 0.37466-0.07303 0.50802-0.15875l-0.09208-0.17146c-0.1143 0.07303-0.23813 0.12065-0.38419 0.12065-0.29528 0-0.49531-0.20956-0.51436-0.54294h1.0414c0.0063-0.0381 0.0095-0.0889 0.0095-0.14288 0-0.44134-0.22226-0.72392-0.61597-0.72392-0.35244 0-0.69217 0.30798-0.69217 0.81282zm0.25401-0.11748c0.03175-0.31116 0.22861-0.48896 0.44451-0.48896 0.24131 0 0.38101 0.17463 0.38101 0.48896z"/>
   <path d="m40.518 23.408c0 0.51119 0.31433 0.80647 0.72392 0.80647 0.18416 0 0.36196-0.0762 0.50166-0.20003l-0.11748-0.17146c-0.09208 0.08255-0.21591 0.15558-0.36196 0.15558-0.28258 0-0.47626-0.23813-0.47626-0.59057 0-0.35561 0.20321-0.59692 0.48261-0.59692 0.12383 0 0.21908 0.05715 0.31116 0.13653l0.13018-0.16828c-0.10478-0.09843-0.24766-0.18416-0.45086-0.18416-0.39689 0-0.74297 0.29528-0.74297 0.81282z"/>
   <path d="m42.077 24.176h0.25718v-0.40641l0.28893-0.33656 0.45086 0.74297h0.28576l-0.58739-0.92395 0.51754-0.61914h-0.28893l-0.65724 0.81282h-0.0095v-1.5304h-0.25718z"/>
   <path d="m43.78 22.315c0.1016 0 0.18098-0.06985 0.18098-0.16828 0-0.1016-0.07938-0.16828-0.18098-0.16828-0.1016 0-0.18098 0.06668-0.18098 0.16828 0 0.09843 0.07938 0.16828 0.18098 0.16828zm-0.13335 1.8606h0.26036v-1.5431h-0.26036z"/>
   <path d="m44.428 24.176h0.26036v-1.1176c0.15558-0.15558 0.26353-0.23813 0.42229-0.23813 0.20321 0 0.29211 0.12383 0.29211 0.41276v0.943h0.26036v-0.97793c0-0.39371-0.14605-0.60327-0.46991-0.60327-0.21273 0-0.37148 0.1143-0.51754 0.26036h-0.0095l-0.02222-0.22226h-0.21591z"/>
   <path d="m46.275 24.436c0-0.0889 0.04763-0.18098 0.15875-0.26036 0.06668 0.01905 0.1397 0.0254 0.20003 0.0254h0.26671c0.20003 0 0.31116 0.04763 0.31116 0.1905 0 0.16193-0.19368 0.31433-0.48896 0.31433-0.27941 0-0.44769-0.10478-0.44769-0.26988zm-0.22861 0.03493c0 0.26671 0.26036 0.41594 0.63819 0.41594 0.47944 0 0.78107-0.24766 0.78107-0.53342 0-0.25718-0.18098-0.36831-0.53976-0.36831h-0.29846c-0.20956 0-0.27306-0.06985-0.27306-0.16828 0-0.08573 0.04445-0.13653 0.09843-0.18416 0.06985 0.03493 0.15558 0.05398 0.23178 0.05398 0.31433 0 0.56517-0.20638 0.56517-0.53659 0-0.13018-0.05398-0.24766-0.127-0.31751h0.31751v-0.20003h-0.53659c-0.05715-0.02222-0.13335-0.0381-0.21908-0.0381-0.31433 0-0.58104 0.21273-0.58104 0.54929 0 0.18416 0.09843 0.33338 0.20003 0.41594v0.0127c-0.07938 0.05398-0.16828 0.15558-0.16828 0.28576 0 0.12065 0.06033 0.20321 0.13653 0.25083v0.0127c-0.1397 0.09525-0.22543 0.21908-0.22543 0.34926zm0.63819-0.95888c-0.1778 0-0.32703-0.14288-0.32703-0.36831s0.14605-0.35878 0.32703-0.35878 0.32703 0.13335 0.32703 0.35878-0.14923 0.36831-0.32703 0.36831z"/>
  </g>
  <g fill="#e8eaec" stroke-width=".26459" aria-label="bitstream">
   <path d="m3.1979 19.016h0.20956l0.022226-0.1524h0.00953c0.13653 0.12065 0.29846 0.1905 0.44134 0.1905 0.35244 0 0.66677-0.30798 0.66677-0.83505 0-0.47626-0.21273-0.78425-0.61279-0.78425-0.17145 0-0.34291 0.09208-0.48261 0.21591l0.00635-0.27941v-0.61597h-0.26036zm0.26036-0.34291v-0.80965c0.14605-0.13653 0.28258-0.20956 0.41276-0.20956 0.29211 0 0.40641 0.22861 0.40641 0.56834 0 0.38101-0.18733 0.61279-0.44134 0.61279-0.1016 0-0.24131-0.04445-0.37784-0.16193z"/>
   <path d="m5.0924 17.156c0.1016 0 0.18098-0.06985 0.18098-0.16828 0-0.1016-0.079377-0.16828-0.18098-0.16828-0.1016 0-0.18098 0.06668-0.18098 0.16828 0 0.09843 0.079377 0.16828 0.18098 0.16828zm-0.13335 1.8606h0.26036v-1.5431h-0.26036z"/>
   <path d="m5.7849 18.54c0 0.30481 0.11113 0.51436 0.44134 0.51436 0.095253 0 0.20003-0.02858 0.28576-0.05715l-0.050802-0.19686c-0.050801 0.01905-0.12065 0.04128-0.17463 0.04128-0.17781 0-0.23813-0.10795-0.23813-0.29846v-0.85728h0.41594v-0.21273h-0.41594v-0.43181h-0.21908l-0.031751 0.43181-0.24131 0.01587v0.19686h0.22861z"/>
   <path d="m6.6418 18.842c0.14605 0.12065 0.35561 0.21273 0.57469 0.21273 0.36514 0 0.56517-0.20956 0.56517-0.46039 0-0.29211-0.24766-0.38418-0.46991-0.46674-0.17463-0.06668-0.34291-0.12383-0.34291-0.26671 0-0.11748 0.088902-0.22226 0.28258-0.22226 0.13653 0 0.24766 0.05715 0.35244 0.13653l0.12383-0.1651c-0.11748-0.09525-0.28576-0.17463-0.47944-0.17463-0.33338 0-0.53024 0.1905-0.53024 0.43816 0 0.26036 0.24131 0.36514 0.46039 0.44451 0.16828 0.0635 0.35244 0.13335 0.35244 0.29211 0 0.13335-0.1016 0.24131-0.30481 0.24131-0.18416 0-0.32068-0.0762-0.45404-0.18416z"/>
   <path d="m8.191 18.54c0 0.30481 0.11113 0.51436 0.44134 0.51436 0.095253 0 0.20003-0.02858 0.28576-0.05715l-0.050801-0.19686c-0.050801 0.01905-0.12065 0.04128-0.17463 0.04128-0.1778 0-0.23813-0.10795-0.23813-0.29846v-0.85728h0.41594v-0.21273h-0.41594v-0.43181h-0.21908l-0.031751 0.43181-0.24131 0.01587v0.19686h0.22861z"/>
   <path d="m9.2194 19.016h0.26036v-0.99063c0.10478-0.26036 0.26036-0.35561 0.39054-0.35561 0.063502 0 0.098428 0.0095 0.14923 0.0254l0.0508-0.22861c-0.0508-0.02222-0.098428-0.03175-0.16511-0.03175-0.17463 0-0.33338 0.12383-0.43816 0.31751h-0.00953l-0.022219-0.27941h-0.21591z"/>
   <path d="m10.178 18.248c0 0.50484 0.32704 0.80647 0.7398 0.80647 0.20956 0 0.37466-0.07303 0.50802-0.15875l-0.09208-0.17146c-0.1143 0.07303-0.23813 0.12065-0.38419 0.12065-0.29528 0-0.49531-0.20956-0.51436-0.54294h1.0414c0.0064-0.0381 0.0095-0.0889 0.0095-0.14288 0-0.44134-0.22226-0.72392-0.61597-0.72392-0.35244 0-0.69217 0.30798-0.69217 0.81282zm0.25401-0.11748c0.03175-0.31116 0.22861-0.48896 0.44451-0.48896 0.24131 0 0.38101 0.17463 0.38101 0.48896z"/>
   <path d="m11.748 18.616c0 0.27623 0.19368 0.43816 0.45404 0.43816 0.19051 0 0.36196-0.1016 0.51119-0.22226h0.0063l0.02223 0.18416h0.21591v-0.94618c0-0.38419-0.15876-0.63502-0.53659-0.63502-0.24766 0-0.46356 0.10795-0.60644 0.20003l0.10478 0.18098c0.12065-0.08255 0.27941-0.1651 0.46039-0.1651 0.25083 0 0.31751 0.1905 0.31751 0.38736-0.65724 0.07303-0.94935 0.24131-0.94935 0.57787zm0.25718-0.01905c0-0.19686 0.17463-0.32386 0.69217-0.38736v0.42864c-0.14923 0.13335-0.27306 0.20638-0.42229 0.20638-0.1524 0-0.26988-0.07303-0.26988-0.24766z"/>
   <path d="m13.449 19.016h0.26036v-1.1176c0.14288-0.15876 0.27306-0.23813 0.38736-0.23813 0.19686 0 0.28893 0.12383 0.28893 0.41276v0.943h0.26036v-1.1176c0.14288-0.15876 0.26671-0.23813 0.38736-0.23813 0.19368 0 0.28576 0.12383 0.28576 0.41276v0.943h0.26036v-0.97793c0-0.39371-0.1524-0.60327-0.46991-0.60327-0.18733 0-0.34608 0.12065-0.50802 0.29528-0.0635-0.18416-0.1905-0.29528-0.42546-0.29528-0.18416 0-0.34608 0.1143-0.47944 0.26036h-0.0095l-0.02223-0.22226h-0.21593z"/>
  </g>
  <rect x="71.438" y=".1323" width="26.194" height="10.319" fill="#1d232d" stroke="#30d2d5" stroke-width=".26459"/>
  <g fill="#e8eaec" stroke-width=".26459" aria-label="Huffman  Decoding">
   <path d="m78.344 3.9347h0.31116v-1.1446h1.1298v1.1446h0.30745v-2.43h-0.30745v1.0187h-1.1298v-1.0187h-0.31116z"/>
   <path d="m80.694 3.2754c0 0.45933 0.1704 0.70381 0.55194 0.70381 0.24819 0 0.42599-0.12965 0.59268-0.32598h0.01111l0.02593 0.28152h0.25189v-1.8003h-0.30375v1.278c-0.1704 0.21114-0.30005 0.30375-0.48526 0.30375-0.23707 0-0.33709-0.14447-0.33709-0.48156v-1.1002h-0.30745z"/>
   <path d="m84.668 1.3121c-0.08149-0.033338-0.18892-0.059268-0.30005-0.059268-0.35932 0-0.52601 0.22966-0.52601 0.59639v0.28523h-0.74826v-0.22966c0-0.23707 0.10372-0.36672 0.28152-0.36672 0.0889 0 0.16299 0.014817 0.24078 0.048156l0.06297-0.22966c-0.0889-0.040747-0.21114-0.066677-0.32968-0.066677-0.37413 0-0.55934 0.23337-0.55934 0.6075v0.23707l-0.24448 0.018521v0.22966h0.24448v1.5521h0.30375v-1.5521h0.74826v1.5521h0.30375v-1.5521h0.38154v-0.24819h-0.38154v-0.28523c0-0.22966 0.0852-0.3482 0.2556-0.3482 0.06297 0 0.13335 0.014817 0.20374 0.044451z"/>
   <path d="m84.865 3.9347h0.30375v-1.3039c0.16669-0.18521 0.31857-0.27782 0.45192-0.27782 0.22966 0 0.33709 0.14447 0.33709 0.48156v1.1002h0.30375v-1.3039c0.16669-0.18521 0.31116-0.27782 0.45192-0.27782 0.22596 0 0.33338 0.14447 0.33338 0.48156v1.1002h0.30375v-1.1409c0-0.45933-0.1778-0.70381-0.54823-0.70381-0.21855 0-0.40377 0.14076-0.59268 0.3445-0.07408-0.21485-0.22226-0.3445-0.49637-0.3445-0.21485 0-0.40377 0.13335-0.55934 0.30375h-0.01111l-0.02593-0.2593h-0.25189z"/>
   <path d="m87.844 3.468c0 0.32227 0.22596 0.51119 0.52971 0.51119 0.22226 0 0.42229-0.11854 0.59639-0.2593h0.0074l0.02593 0.21485h0.25189v-1.1039c0-0.44822-0.18521-0.74085-0.62602-0.74085-0.28893 0-0.54082 0.12595-0.70752 0.23337l0.12224 0.21114c0.14076-0.096311 0.32598-0.19262 0.53712-0.19262 0.29264 0 0.37043 0.22226 0.37043 0.45192-0.76678 0.085198-1.1076 0.28152-1.1076 0.67418zm0.30005-0.022226c0-0.22966 0.20374-0.37784 0.80753-0.45192v0.50008c-0.1741 0.15558-0.31857 0.24078-0.49267 0.24078-0.1778 0-0.31486-0.085198-0.31486-0.28893z"/>
   <path d="m89.829 3.9347h0.30375v-1.3039c0.18151-0.18151 0.30746-0.27782 0.49267-0.27782 0.23707 0 0.34079 0.14447 0.34079 0.48156v1.1002h0.30375v-1.1409c0-0.45933-0.1704-0.70381-0.54823-0.70381-0.24819 0-0.4334 0.13335-0.6038 0.30375h-0.01111l-0.02593-0.2593h-0.25189z"/>
   <path d="m77.819 8.7033h0.62232c0.73345 0 1.1335-0.45192 1.1335-1.2261 0-0.77049-0.40006-1.2039-1.1483-1.2039h-0.6075zm0.31116-0.25189v-1.9262h0.27412c0.57046 0 0.85198 0.34079 0.85198 0.952 0 0.61491-0.28152 0.97422-0.85198 0.97422z"/>
   <path d="m79.932 7.8069c0 0.58898 0.38154 0.94088 0.8631 0.94088 0.24448 0 0.4371-0.085198 0.59268-0.18521l-0.10742-0.20003c-0.13335 0.085198-0.27782 0.14076-0.44822 0.14076-0.3445 0-0.57787-0.24448-0.60009-0.63343h1.215c0.0074-0.044451 0.01111-0.10372 0.01111-0.16669 0-0.51489-0.2593-0.84457-0.71863-0.84457-0.41117 0-0.80753 0.35931-0.80753 0.94829zm0.29634-0.13706c0.03704-0.36302 0.26671-0.57046 0.5186-0.57046 0.28152 0 0.44451 0.20373 0.44451 0.57046z"/>
   <path d="m81.769 7.8069c0 0.59639 0.36672 0.94088 0.84457 0.94088 0.21485 0 0.42229-0.088902 0.58528-0.23337l-0.13706-0.20003c-0.10742 0.096311-0.25189 0.18151-0.42229 0.18151-0.32968 0-0.55564-0.27782-0.55564-0.68899 0-0.41488 0.23707-0.6964 0.56305-0.6964 0.14447 0 0.2556 0.066677 0.36302 0.15928l0.15188-0.19633c-0.12224-0.11483-0.28893-0.21485-0.52601-0.21485-0.46303 0-0.8668 0.3445-0.8668 0.94829z"/>
   <path d="m83.376 7.8069c0 0.59639 0.39265 0.94088 0.83346 0.94088 0.44081 0 0.83346-0.3445 0.83346-0.94088 0-0.6038-0.39265-0.94829-0.83346-0.94829-0.44081 0-0.83346 0.3445-0.83346 0.94829zm0.31486 0c0-0.41488 0.21114-0.6964 0.5186-0.6964 0.31116 0 0.5186 0.28152 0.5186 0.6964 0 0.41117-0.20744 0.68899-0.5186 0.68899-0.30746 0-0.5186-0.27782-0.5186-0.68899z"/>
   <path d="m85.391 7.8069c0 0.60009 0.29264 0.94088 0.74456 0.94088 0.21114 0 0.40377-0.11854 0.54453-0.25559h0.01111l0.02593 0.21114h0.25189v-2.6374h-0.30745v0.6927l0.01482 0.30745c-0.15929-0.12965-0.29634-0.20744-0.50378-0.20744-0.41117 0-0.7816 0.36302-0.7816 0.94829zm0.31486-0.0037c0-0.41117 0.22966-0.68899 0.5186-0.68899 0.14817 0 0.28523 0.05186 0.4371 0.18892v0.94088c-0.14817 0.16669-0.29264 0.24819-0.45933 0.24819-0.31486 0-0.49637-0.2593-0.49637-0.68899z"/>
   <path d="m87.731 6.5326c0.11854 0 0.21114-0.081494 0.21114-0.19633 0-0.11854-0.09261-0.19633-0.21114-0.19633-0.11854 0-0.21114 0.07779-0.21114 0.19633 0 0.11483 0.09261 0.19633 0.21114 0.19633zm-0.15558 2.1707h0.30375v-1.8003h-0.30375z"/>
   <path d="m88.487 8.7033h0.30375v-1.3039c0.18151-0.18151 0.30745-0.27782 0.49267-0.27782 0.23707 0 0.34079 0.14447 0.34079 0.48156v1.1002h0.30375v-1.1409c0-0.45933-0.1704-0.70381-0.54823-0.70381-0.24819 0-0.4334 0.13335-0.6038 0.30375h-0.01111l-0.02593-0.2593h-0.25189z"/>
   <path d="m90.642 9.0071c0-0.10372 0.05556-0.21114 0.18521-0.30375 0.07779 0.022226 0.16299 0.029634 0.23337 0.029634h0.31116c0.23337 0 0.36302 0.055564 0.36302 0.22226 0 0.18892-0.22596 0.36672-0.57046 0.36672-0.32598 0-0.5223-0.12224-0.5223-0.31486zm-0.26671 0.040747c0 0.31116 0.30375 0.48526 0.74456 0.48526 0.55934 0 0.91125-0.28893 0.91125-0.62232 0-0.30005-0.21114-0.4297-0.62973-0.4297h-0.3482c-0.24448 0-0.31857-0.081494-0.31857-0.19633 0-0.10002 0.05186-0.15928 0.11483-0.21485 0.08149 0.040747 0.18151 0.062973 0.27041 0.062973 0.36672 0 0.65936-0.24078 0.65936-0.62602 0-0.15188-0.06297-0.28893-0.14817-0.37043h0.37043v-0.23337h-0.62602c-0.06668-0.02593-0.15558-0.044451-0.2556-0.044451-0.36672 0-0.67788 0.24819-0.67788 0.64084 0 0.21485 0.11483 0.38895 0.23337 0.48526v0.014817c-0.09261 0.062973-0.19633 0.18151-0.19633 0.33338 0 0.14076 0.07038 0.23707 0.15928 0.29264v0.014817c-0.16299 0.11113-0.263 0.25559-0.263 0.40747zm0.74456-1.1187c-0.20744 0-0.38154-0.16669-0.38154-0.4297s0.1704-0.41858 0.38154-0.41858c0.21114 0 0.38154 0.15558 0.38154 0.41858s-0.1741 0.4297-0.38154 0.4297z"/>
  </g>
  <rect x="108.48" y=".1323" width="26.194" height="10.319" fill="#1d232d" stroke="#30d2d5" stroke-width=".26459"/>
  <g fill="#e8eaec" stroke-width=".26459" aria-label="Requantization">
   <path d="m110.1 4.1342h0.40747c0.37783 0 0.58527 0.11483 0.58527 0.4334 0 0.31486-0.20744 0.47044-0.58527 0.47044h-0.40747zm1.3743 2.1818-0.61861-1.0594c0.32968-0.085198 0.54452-0.31116 0.54452-0.68899 0-0.50378-0.35561-0.68159-0.84827-0.68159h-0.76308v2.43h0.31116v-1.0261h0.4371l0.58527 1.0261z"/>
   <path d="m111.74 5.4196c0 0.58898 0.38154 0.94088 0.8631 0.94088 0.24448 0 0.4371-0.085198 0.59268-0.18521l-0.10742-0.20003c-0.13335 0.085198-0.27782 0.14076-0.44822 0.14076-0.3445 0-0.57786-0.24448-0.60009-0.63343h1.215c7e-3 -0.044451 0.0111-0.10372 0.0111-0.16669 0-0.51489-0.25929-0.84457-0.71862-0.84457-0.41118 0-0.80754 0.35931-0.80754 0.94829zm0.29635-0.13706c0.037-0.36302 0.2667-0.57046 0.51859-0.57046 0.28153 0 0.44452 0.20373 0.44452 0.57046z"/>
   <path d="m113.58 5.4196c0 0.60009 0.29264 0.94088 0.74456 0.94088 0.20744 0 0.39636-0.11113 0.54083-0.24448l-0.0148 0.31857v0.64084h0.30745v-2.5597h-0.24448l-0.0296 0.1704h-7e-3c-0.16299-0.14076-0.30745-0.21485-0.51489-0.21485-0.41118 0-0.78161 0.36302-0.78161 0.94829zm0.31487-0.0037c0-0.41117 0.22966-0.68899 0.5186-0.68899 0.14817 0 0.28522 0.05186 0.4371 0.18892v0.94088c-0.14817 0.16669-0.29264 0.24819-0.45933 0.24819-0.31486 0-0.49637-0.2593-0.49637-0.68899z"/>
   <path d="m115.72 5.6567c0 0.45933 0.17039 0.70381 0.55193 0.70381 0.24819 0 0.426-0.12965 0.59269-0.32598h0.0111l0.0259 0.28152h0.25189v-1.8003h-0.30375v1.278c-0.1704 0.21114-0.30005 0.30375-0.48526 0.30375-0.23707 0-0.33709-0.14447-0.33709-0.48156v-1.1002h-0.30745z"/>
   <path d="m117.68 5.8493c0 0.32227 0.22596 0.51119 0.52971 0.51119 0.22226 0 0.42229-0.11854 0.59639-0.2593h7e-3l0.0259 0.21485h0.25189v-1.1039c0-0.44822-0.18521-0.74085-0.62602-0.74085-0.28893 0-0.54082 0.12595-0.70752 0.23337l0.12224 0.21114c0.14077-0.096311 0.32598-0.19262 0.53712-0.19262 0.29264 0 0.37043 0.22226 0.37043 0.45192-0.76678 0.085198-1.1076 0.28152-1.1076 0.67418zm0.30005-0.022226c0-0.22966 0.20373-0.37784 0.80753-0.45192v0.50008c-0.1741 0.15558-0.31857 0.24078-0.49267 0.24078-0.1778 0-0.31486-0.085198-0.31486-0.28893z"/>
   <path d="m119.66 6.316h0.30375v-1.3039c0.18151-0.18151 0.30746-0.27782 0.49267-0.27782 0.23707 0 0.34079 0.14447 0.34079 0.48156v1.1002h0.30375v-1.1409c0-0.45933-0.17039-0.70381-0.54823-0.70381-0.24819 0-0.4334 0.13335-0.6038 0.30375h-0.0111l-0.0259-0.2593h-0.25189z"/>
   <path d="m121.74 5.7604c0 0.35561 0.12965 0.60009 0.5149 0.60009 0.11113 0 0.23337-0.033338 0.33338-0.066677l-0.0593-0.22966c-0.0593 0.022226-0.14076 0.048156-0.20373 0.048156-0.20744 0-0.27782-0.12595-0.27782-0.3482v-1.0002h0.48526v-0.24819h-0.48526v-0.50378h-0.2556l-0.037 0.50378-0.28152 0.018521v0.22966h0.2667z"/>
   <path d="m123.09 4.1453c0.11854 0 0.21115-0.081494 0.21115-0.19633 0-0.11854-0.0926-0.19633-0.21115-0.19633-0.11853 0-0.21114 0.07779-0.21114 0.19633 0 0.11483 0.0926 0.19633 0.21114 0.19633zm-0.15558 2.1707h0.30375v-1.8003h-0.30375z"/>
   <path d="m123.66 6.316h1.3632v-0.24819h-0.97793l0.94829-1.3891v-0.16299h-1.2298v0.24819h0.84458l-0.9483 1.3891z"/>
   <path d="m125.25 5.8493c0 0.32227 0.22596 0.51119 0.52971 0.51119 0.22226 0 0.42229-0.11854 0.59639-0.2593h7e-3l0.0259 0.21485h0.25189v-1.1039c0-0.44822-0.18522-0.74085-0.62602-0.74085-0.28894 0-0.54083 0.12595-0.70752 0.23337l0.12224 0.21114c0.14076-0.096311 0.32598-0.19262 0.53712-0.19262 0.29264 0 0.37043 0.22226 0.37043 0.45192-0.76679 0.085198-1.1076 0.28152-1.1076 0.67418zm0.30005-0.022226c0-0.22966 0.20373-0.37784 0.80753-0.45192v0.50008c-0.1741 0.15558-0.31857 0.24078-0.49267 0.24078-0.17781 0-0.31486-0.085198-0.31486-0.28893z"/>
   <path d="m127.29 5.7604c0 0.35561 0.12965 0.60009 0.51489 0.60009 0.11113 0 0.23337-0.033338 0.33338-0.066677l-0.0593-0.22966c-0.0593 0.022226-0.14077 0.048156-0.20374 0.048156-0.20744 0-0.27782-0.12595-0.27782-0.3482v-1.0002h0.48526v-0.24819h-0.48526v-0.50378h-0.25559l-0.037 0.50378-0.28152 0.018521v0.22966h0.26671z"/>
   <path d="m128.64 4.1453c0.11853 0 0.21114-0.081494 0.21114-0.19633 0-0.11854-0.0926-0.19633-0.21114-0.19633s-0.21115 0.07779-0.21115 0.19633c0 0.11483 0.0926 0.19633 0.21115 0.19633zm-0.15558 2.1707h0.30375v-1.8003h-0.30375z"/>
   <path d="m129.27 5.4196c0 0.59639 0.39265 0.94088 0.83346 0.94088s0.83346-0.3445 0.83346-0.94088c0-0.6038-0.39265-0.94829-0.83346-0.94829s-0.83346 0.3445-0.83346 0.94829zm0.31486 0c0-0.41488 0.21115-0.6964 0.5186-0.6964 0.31116 0 0.5186 0.28152 0.5186 0.6964 0 0.41117-0.20744 0.68899-0.5186 0.68899-0.30745 0-0.5186-0.27782-0.5186-0.68899z"/>
   <path d="m131.41 6.316h0.30375v-1.3039c0.18151-0.18151 0.30745-0.27782 0.49267-0.27782 0.23707 0 0.34079 0.14447 0.34079 0.48156v1.1002h0.30375v-1.1409c0-0.45933-0.1704-0.70381-0.54823-0.70381-0.24819 0-0.4334 0.13335-0.6038 0.30375h-0.0111l-0.0259-0.2593h-0.25189z"/>
  </g>
 </g>
 <g fill="#1d232d" stroke="#30d2d5" stroke-linecap="round" stroke-width=".26459">
  <rect x="145.52" y=".1323" width="26.194" height="10.319"/>
  <rect x="145.52" y="16.008" width="26.194" height="10.319"/>
  <rect x="145.52" y="31.883" width="26.194" height="10.319"/>
  <rect x="145.52" y="47.759" width="26.194" height="10.319"/>
 </g>
 <g fill="#6f8ce9">
  <path d="m183.1 66.28v1.4501h-2.1167l-2.6459 2.6459h4.7626v1.4604l3.4397-2.6459s0.0547-0.03368 0.0547-0.1323c0-0.09861-0.0547-0.1323-0.0547-0.1323z"/>
  <path d="m176.75 70.376 2.6459-2.6459h-2.6459l-2.6459 2.6459z"/>
  <path d="m172.78 70.376 2.6459-2.6459h-2.6459l-2.6459 2.6459z"/>
 </g>
 <g fill="#e8eaec" stroke-linecap="round" stroke-width=".26459" aria-label="PCM">
  <path d="m174.19 66.643h0.26671v-0.82552h0.37466c0.45403 0 0.76837-0.20638 0.76837-0.64454 0-0.45721-0.30799-0.61279-0.76837-0.61279h-0.64137zm0.26671-1.0414v-0.8287h0.33973c0.35879 0 0.53977 0.09843 0.53977 0.40006 0 0.29528-0.17463 0.42864-0.53977 0.42864z"/>
  <path d="m175.88 65.601c0 0.67947 0.39053 1.0795 0.91442 1.0795 0.26354 0 0.46992-0.11113 0.63185-0.30163l-0.14923-0.16193c-0.13336 0.14923-0.27941 0.23178-0.47627 0.23178-0.39688 0-0.64771-0.33021-0.64771-0.8541 0-0.51754 0.26353-0.8414 0.66041-0.8414 0.17146 0 0.30481 0.0762 0.41594 0.19368l0.14923-0.16828c-0.12383-0.13653-0.32068-0.25718-0.56834-0.25718-0.53342 0-0.9303 0.40959-0.9303 1.0795z"/>
  <path d="m177.8 66.643h0.24448v-1.1462c0-0.18416-0.0191-0.43181-0.0318-0.61597h0.0127l0.16511 0.46356 0.40006 1.0891h0.1524l0.40007-1.0891 0.1651-0.46356h0.0127c-0.0127 0.18416-0.0349 0.43181-0.0349 0.61597v1.1462h0.25084v-2.0829h-0.31116l-0.40006 1.1176-0.14606 0.42546h-0.0127l-0.14923-0.42546-0.40323-1.1176h-0.31434z"/>
 </g>
 <rect x="145.52" y="63.634" width="26.194" height="10.319" fill="#1d232d" stroke="#30d2d5" stroke-linecap="round" stroke-width=".26459"/>
 <g fill="#e8eaec" stroke-linecap="round" stroke-width=".26459">
  <g aria-label="Reordering">
   <path d="m149.33 4.6634h0.40747c0.37784 0 0.58527 0.11483 0.58527 0.4334 0 0.31486-0.20743 0.47044-0.58527 0.47044h-0.40747zm1.3743 2.1818-0.61861-1.0594c0.32968-0.085198 0.54453-0.31116 0.54453-0.68899 0-0.50378-0.35561-0.68159-0.84828-0.68159h-0.76308v2.43h0.31116v-1.0261h0.4371l0.58528 1.0261z"/>
   <path d="m150.96 5.9488c0 0.58898 0.38154 0.94088 0.86309 0.94088 0.24449 0 0.43711-0.085198 0.59269-0.18521l-0.10743-0.20003c-0.13335 0.085198-0.27782 0.14076-0.44821 0.14076-0.3445 0-0.57787-0.24448-0.6001-0.63343h1.215c7e-3 -0.044451 0.0111-0.10372 0.0111-0.16669 0-0.51489-0.2593-0.84457-0.71863-0.84457-0.41117 0-0.80753 0.35931-0.80753 0.94829zm0.29634-0.13706c0.037-0.36302 0.26671-0.57046 0.5186-0.57046 0.28152 0 0.44451 0.20373 0.44451 0.57046z"/>
   <path d="m152.8 5.9488c0 0.59639 0.39266 0.94088 0.83347 0.94088 0.4408 0 0.83346-0.3445 0.83346-0.94088 0-0.6038-0.39266-0.94829-0.83346-0.94829-0.44081 0-0.83347 0.3445-0.83347 0.94829zm0.31487 0c0-0.41488 0.21114-0.6964 0.5186-0.6964 0.31115 0 0.51859 0.28152 0.51859 0.6964 0 0.41117-0.20744 0.68899-0.51859 0.68899-0.30746 0-0.5186-0.27782-0.5186-0.68899z"/>
   <path d="m154.94 6.8452h0.30375v-1.1557c0.12224-0.30375 0.30375-0.41488 0.45563-0.41488 0.0741 0 0.11483 0.011113 0.1741 0.029634l0.0593-0.26671c-0.0593-0.02593-0.11484-0.037043-0.19263-0.037043-0.20373 0-0.38894 0.14447-0.51118 0.37043h-0.0111l-0.0259-0.32598h-0.25189z"/>
   <path d="m156.07 5.9488c0 0.60009 0.29264 0.94088 0.74456 0.94088 0.21114 0 0.40377-0.11854 0.54453-0.25559h0.0111l0.0259 0.21114h0.25189v-2.6374h-0.30745v0.6927l0.0148 0.30745c-0.15928-0.12965-0.29634-0.20744-0.50378-0.20744-0.41117 0-0.7816 0.36302-0.7816 0.94829zm0.31486-0.0037c0-0.41117 0.22967-0.68899 0.5186-0.68899 0.14817 0 0.28523 0.05186 0.43711 0.18892v0.94088c-0.14817 0.16669-0.29264 0.24819-0.45933 0.24819-0.31487 0-0.49638-0.2593-0.49638-0.68899z"/>
   <path d="m158.12 5.9488c0 0.58898 0.38154 0.94088 0.8631 0.94088 0.24448 0 0.4371-0.085198 0.59268-0.18521l-0.10743-0.20003c-0.13335 0.085198-0.27782 0.14076-0.44821 0.14076-0.3445 0-0.57787-0.24448-0.60009-0.63343h1.215c7e-3 -0.044451 0.0111-0.10372 0.0111-0.16669 0-0.51489-0.2593-0.84457-0.71863-0.84457-0.41117 0-0.80753 0.35931-0.80753 0.94829zm0.29634-0.13706c0.037-0.36302 0.26671-0.57046 0.5186-0.57046 0.28152 0 0.44451 0.20373 0.44451 0.57046z"/>
   <path d="m160.09 6.8452h0.30375v-1.1557c0.12224-0.30375 0.30375-0.41488 0.45563-0.41488 0.0741 0 0.11483 0.011113 0.1741 0.029634l0.0593-0.26671c-0.0593-0.02593-0.11483-0.037043-0.19262-0.037043-0.20373 0-0.38895 0.14447-0.51119 0.37043h-0.0111l-0.0259-0.32598h-0.25189z"/>
   <path d="m161.53 4.6745c0.11854 0 0.21115-0.081494 0.21115-0.19633 0-0.11854-0.0926-0.19633-0.21115-0.19633-0.11853 0-0.21114 0.07779-0.21114 0.19633 0 0.11483 0.0926 0.19633 0.21114 0.19633zm-0.15558 2.1707h0.30375v-1.8003h-0.30375z"/>
   <path d="m162.29 6.8452h0.30375v-1.3039c0.18151-0.18151 0.30746-0.27782 0.49267-0.27782 0.23707 0 0.34079 0.14447 0.34079 0.48156v1.1002h0.30375v-1.1409c0-0.45933-0.17039-0.70381-0.54823-0.70381-0.24819 0-0.4334 0.13335-0.6038 0.30375h-0.0111l-0.0259-0.2593h-0.25189z"/>
   <path d="m164.44 7.149c0-0.10372 0.0556-0.21114 0.18522-0.30375 0.0778 0.022226 0.16299 0.029634 0.23337 0.029634h0.31116c0.23336 0 0.36301 0.055564 0.36301 0.22226 0 0.18892-0.22596 0.36672-0.57045 0.36672-0.32598 0-0.52231-0.12224-0.52231-0.31486zm-0.2667 0.040747c0 0.31116 0.30375 0.48526 0.74456 0.48526 0.55934 0 0.91125-0.28893 0.91125-0.62232 0-0.30005-0.21115-0.4297-0.62973-0.4297h-0.3482c-0.24448 0-0.31857-0.081494-0.31857-0.19633 0-0.10002 0.0519-0.15928 0.11483-0.21485 0.0815 0.040747 0.18151 0.062973 0.27042 0.062973 0.36672 0 0.65936-0.24078 0.65936-0.62602 0-0.15188-0.063-0.28893-0.14818-0.37043h0.37043v-0.23337h-0.62602c-0.0667-0.02593-0.15558-0.044451-0.25559-0.044451-0.36673 0-0.67789 0.24819-0.67789 0.64084 0 0.21485 0.11484 0.38895 0.23337 0.48526v0.014817c-0.0926 0.062973-0.19632 0.18151-0.19632 0.33338 0 0.14076 0.0704 0.23707 0.15928 0.29264v0.014817c-0.16299 0.11113-0.263 0.25559-0.263 0.40747zm0.74456-1.1187c-0.20744 0-0.38154-0.16669-0.38154-0.4297s0.17039-0.41858 0.38154-0.41858c0.21114 0 0.38154 0.15558 0.38154 0.41858s-0.17411 0.4297-0.38154 0.4297z"/>
  </g>
  <g aria-label="Alias Reduction">
   <path d="m147 21.467 0.11853-0.37043c0.0852-0.27041 0.16299-0.53712 0.24078-0.81864h0.0148c0.0778 0.28152 0.15558 0.54823 0.24077 0.81864l0.11484 0.37043zm1.0409 0.98904h0.32597l-0.82235-2.43h-0.3482l-0.82235 2.43h0.31487l0.23337-0.74085h0.88532z"/>
   <path d="m148.67 22.093c0 0.263 0.0926 0.40747 0.32227 0.40747 0.0815 0 0.13336-0.01111 0.17411-0.02964l-0.0408-0.22966c-0.0333 0.0074-0.0482 0.0074-0.0667 0.0074-0.0444 0-0.0852-0.03704-0.0852-0.13335v-2.2966h-0.30375z"/>
   <path d="m149.77 20.285c0.11853 0 0.21114-0.08149 0.21114-0.19633 0-0.11854-0.0926-0.19633-0.21114-0.19633s-0.21115 0.07779-0.21115 0.19633c0 0.11483 0.0926 0.19633 0.21115 0.19633zm-0.15558 2.1707h0.30375v-1.8003h-0.30375z"/>
   <path d="m150.44 21.989c0 0.32227 0.22596 0.51119 0.52971 0.51119 0.22226 0 0.42229-0.11854 0.59639-0.2593h7e-3l0.0259 0.21485h0.25189v-1.1039c0-0.44822-0.18521-0.74085-0.62602-0.74085-0.28894 0-0.54083 0.12594-0.70752 0.23337l0.12224 0.21114c0.14076-0.09631 0.32598-0.19262 0.53712-0.19262 0.29264 0 0.37043 0.22226 0.37043 0.45192-0.76679 0.0852-1.1076 0.28152-1.1076 0.67418zm0.30005-0.02223c0-0.22966 0.20373-0.37784 0.80753-0.45192v0.50008c-0.1741 0.15558-0.31857 0.24078-0.49267 0.24078-0.1778 0-0.31486-0.0852-0.31486-0.28893z"/>
   <path d="m152.22 22.252c0.17039 0.14076 0.41488 0.24819 0.67047 0.24819 0.42599 0 0.65936-0.24448 0.65936-0.53712 0-0.34079-0.28893-0.44822-0.54823-0.54453-0.20374-0.07779-0.40006-0.14447-0.40006-0.31116 0-0.13706 0.10372-0.2593 0.32968-0.2593 0.15928 0 0.28893 0.06668 0.41117 0.15928l0.14447-0.19262c-0.13706-0.11113-0.33339-0.20374-0.55935-0.20374-0.38894 0-0.61861 0.22226-0.61861 0.51119 0 0.30375 0.28153 0.42599 0.53712 0.5186 0.19633 0.07409 0.41117 0.15558 0.41117 0.34079 0 0.15558-0.11853 0.28152-0.35561 0.28152-0.21484 0-0.37413-0.0889-0.52971-0.21485z"/>
   <path d="m155.05 20.274h0.40747c0.37783 0 0.58527 0.11483 0.58527 0.4334 0 0.31486-0.20744 0.47044-0.58527 0.47044h-0.40747zm1.3743 2.1818-0.61861-1.0594c0.32968-0.0852 0.54453-0.31116 0.54453-0.689 0-0.50378-0.35561-0.68159-0.84828-0.68159h-0.76308v2.43h0.31116v-1.0261h0.4371l0.58528 1.0261z"/>
   <path d="m156.69 21.56c0 0.58898 0.38154 0.94088 0.86309 0.94088 0.24448 0 0.43711-0.0852 0.59269-0.18521l-0.10743-0.20003c-0.13335 0.0852-0.27782 0.14076-0.44821 0.14076-0.3445 0-0.57787-0.24448-0.6001-0.63343h1.215c7e-3 -0.04445 0.0111-0.10372 0.0111-0.16669 0-0.51489-0.2593-0.84457-0.71863-0.84457-0.41118 0-0.80753 0.35931-0.80753 0.94829zm0.29634-0.13706c0.037-0.36302 0.26671-0.57046 0.5186-0.57046 0.28152 0 0.44451 0.20374 0.44451 0.57046z"/>
   <path d="m158.53 21.56c0 0.60009 0.29264 0.94088 0.74456 0.94088 0.21114 0 0.40376-0.11854 0.54452-0.2556h0.0111l0.0259 0.21114h0.25189v-2.6374h-0.30746v0.6927l0.0148 0.30745c-0.15928-0.12965-0.29634-0.20744-0.50378-0.20744-0.41117 0-0.7816 0.36302-0.7816 0.94829zm0.31486-0.0037c0-0.41117 0.22967-0.68899 0.5186-0.68899 0.14817 0 0.28523 0.05186 0.4371 0.18892v0.94088c-0.14817 0.16669-0.29263 0.24819-0.45933 0.24819-0.31486 0-0.49637-0.2593-0.49637-0.689z"/>
   <path d="m160.69 21.797c0 0.45933 0.1704 0.70381 0.55194 0.70381 0.24818 0 0.42599-0.12965 0.59268-0.32598h0.0111l0.0259 0.28152h0.25189v-1.8003h-0.30375v1.278c-0.17039 0.21114-0.30004 0.30375-0.48526 0.30375-0.23707 0-0.33709-0.14447-0.33709-0.48156v-1.1002h-0.30745z"/>
   <path d="m162.6 21.56c0 0.59639 0.36673 0.94088 0.84458 0.94088 0.21485 0 0.42229-0.0889 0.58527-0.23337l-0.13705-0.20003c-0.10743 0.09631-0.25189 0.18151-0.42229 0.18151-0.32968 0-0.55564-0.27782-0.55564-0.68899 0-0.41488 0.23707-0.6964 0.56305-0.6964 0.14446 0 0.25559 0.06668 0.36302 0.15928l0.15187-0.19633c-0.12224-0.11483-0.28893-0.21485-0.52601-0.21485-0.46303 0-0.8668 0.3445-0.8668 0.94829z"/>
   <path d="m164.47 21.9c0 0.35561 0.12965 0.60009 0.5149 0.60009 0.11112 0 0.23336-0.03334 0.33338-0.06668l-0.0593-0.22966c-0.0593 0.02223-0.14076 0.04815-0.20373 0.04815-0.20744 0-0.27782-0.12594-0.27782-0.3482v-1.0002h0.48526v-0.24819h-0.48526v-0.50378h-0.2556l-0.037 0.50378-0.28153 0.01852v0.22966h0.26671z"/>
   <path d="m165.82 20.285c0.11854 0 0.21114-0.08149 0.21114-0.19633 0-0.11854-0.0926-0.19633-0.21114-0.19633s-0.21114 0.07779-0.21114 0.19633c0 0.11483 0.0926 0.19633 0.21114 0.19633zm-0.15558 2.1707h0.30375v-1.8003h-0.30375z"/>
   <path d="m166.45 21.56c0 0.59639 0.39265 0.94088 0.83346 0.94088 0.4408 0 0.83346-0.3445 0.83346-0.94088 0-0.6038-0.39266-0.94829-0.83346-0.94829-0.44081 0-0.83346 0.3445-0.83346 0.94829zm0.31486 0c0-0.41488 0.21114-0.6964 0.5186-0.6964 0.31116 0 0.51859 0.28152 0.51859 0.6964 0 0.41117-0.20743 0.68899-0.51859 0.68899-0.30746 0-0.5186-0.27782-0.5186-0.68899z"/>
   <path d="m168.59 22.456h0.30375v-1.3039c0.18151-0.18151 0.30746-0.27782 0.49267-0.27782 0.23707 0 0.34079 0.14447 0.34079 0.48156v1.1002h0.30375v-1.1409c0-0.45933-0.17039-0.70381-0.54823-0.70381-0.24818 0-0.4334 0.13335-0.60379 0.30375h-0.0111l-0.0259-0.2593h-0.25189z"/>
  </g>
  <g aria-label="IMDCT">
   <path d="m153.72 38.596h0.31116v-2.43h-0.31116z"/>
   <path d="m154.67 38.596h0.28523v-1.3372c0-0.21485-0.0222-0.50378-0.037-0.71863h0.0148l0.19262 0.54082 0.46674 1.2706h0.17781l0.46674-1.2706 0.19262-0.54082h0.0148c-0.0148 0.21485-0.0407 0.50378-0.0407 0.71863v1.3372h0.29264v-2.43h-0.36302l-0.46674 1.3039-0.1704 0.49637h-0.0148l-0.1741-0.49637-0.47044-1.3039h-0.36672z"/>
   <path d="m157.35 38.596h0.62232c0.73345 0 1.1335-0.45192 1.1335-1.2261 0-0.77049-0.40006-1.2039-1.1483-1.2039h-0.6075zm0.31116-0.25189v-1.9262h0.27412c0.57046 0 0.85198 0.34079 0.85198 0.952 0 0.61491-0.28152 0.97422-0.85198 0.97422z"/>
   <path d="m159.47 37.381c0 0.79271 0.45562 1.2595 1.0668 1.2595 0.30745 0 0.54823-0.12965 0.73715-0.35191l-0.1741-0.18892c-0.15558 0.1741-0.32598 0.27041-0.55564 0.27041-0.46304 0-0.75568-0.38524-0.75568-0.99645 0-0.6038 0.30746-0.98163 0.77049-0.98163 0.20003 0 0.35561 0.0889 0.48526 0.22596l0.1741-0.19633c-0.14446-0.15928-0.37413-0.30005-0.66306-0.30005-0.62232 0-1.0854 0.47785-1.0854 1.2595z"/>
   <path d="m162.15 38.596h0.30746v-2.1707h0.73715v-0.2593h-1.7818v0.2593h0.73715z"/>
  </g>
  <g aria-label="Polyphase  Filterbank">
   <path d="m150.89 51.826h0.31116v-0.96311h0.43711c0.52971 0 0.89643-0.24078 0.89643-0.75197 0-0.53342-0.35931-0.71492-0.89643-0.71492h-0.74827zm0.31116-1.215v-0.96681h0.39636c0.41858 0 0.62973 0.11483 0.62973 0.46674 0 0.3445-0.20374 0.50008-0.62973 0.50008z"/>
   <path d="m152.77 50.929c0 0.59639 0.39265 0.94088 0.83346 0.94088s0.83346-0.3445 0.83346-0.94088c0-0.6038-0.39265-0.94829-0.83346-0.94829s-0.83346 0.3445-0.83346 0.94829zm0.31487 0c0-0.41488 0.21114-0.6964 0.51859-0.6964 0.31116 0 0.5186 0.28152 0.5186 0.6964 0 0.41117-0.20744 0.68899-0.5186 0.68899-0.30745 0-0.51859-0.27782-0.51859-0.68899z"/>
   <path d="m154.91 51.463c0 0.263 0.0926 0.40747 0.32227 0.40747 0.0815 0 0.13335-0.01111 0.1741-0.02963l-0.0408-0.22966c-0.0333 0.0074-0.0481 0.0074-0.0667 0.0074-0.0445 0-0.0852-0.03704-0.0852-0.13335v-2.2966h-0.30375z"/>
   <path d="m155.74 52.322-0.0593 0.24078c0.0593 0.02222 0.12965 0.03704 0.21115 0.03704 0.36302 0 0.54823-0.27041 0.67417-0.62602l0.67789-1.9484h-0.29635l-0.32227 0.99645c-0.0481 0.15928-0.10001 0.3445-0.15187 0.50748h-0.0148c-0.0556-0.16669-0.11854-0.35191-0.1741-0.50748l-0.36672-0.99645h-0.31487l0.72234 1.804-0.0408 0.13335c-0.0741 0.22226-0.20374 0.38524-0.40747 0.38524-0.0444 0-0.10002-0.01482-0.13706-0.02593z"/>
   <path d="m157.88 51.663c0.16669 0.12965 0.33338 0.20744 0.50007 0.20744 0.41118 0 0.7779-0.35932 0.7779-0.97052 0-0.55934-0.24819-0.91866-0.71122-0.91866-0.21114 0-0.41117 0.11483-0.57416 0.25189h-0.0111l-0.0259-0.20744h-0.2519v2.5597h0.30375v-0.6075zm7e-3 -0.23707v-0.94459c0.17781-0.15928 0.32968-0.24448 0.48156-0.24448 0.34079 0 0.47415 0.26671 0.47415 0.66306 0 0.44451-0.21856 0.71492-0.5149 0.71492-0.11853 0-0.27782-0.05186-0.44081-0.18892z"/>
   <path d="m159.64 51.826h0.30375v-1.3039c0.18151-0.18151 0.30745-0.27782 0.49267-0.27782 0.23707 0 0.34079 0.14447 0.34079 0.48156v1.1002h0.30375v-1.1409c0-0.45933-0.1704-0.70381-0.54823-0.70381-0.24819 0-0.4297 0.13335-0.60009 0.29634l0.0111-0.37043v-0.71863h-0.30375z"/>
   <path d="m161.57 51.359c0 0.32227 0.22596 0.51119 0.52971 0.51119 0.22226 0 0.42229-0.11854 0.59639-0.2593h7e-3l0.0259 0.21485h0.25189v-1.1039c0-0.44822-0.18521-0.74086-0.62602-0.74086-0.28893 0-0.54082 0.12595-0.70752 0.23337l0.12224 0.21114c0.14077-0.09631 0.32598-0.19262 0.53712-0.19262 0.29264 0 0.37043 0.22226 0.37043 0.45192-0.76678 0.0852-1.1076 0.28152-1.1076 0.67418zm0.30005-0.02222c0-0.22966 0.20373-0.37784 0.80753-0.45192v0.50008c-0.1741 0.15558-0.31857 0.24078-0.49267 0.24078-0.1778 0-0.31486-0.0852-0.31486-0.28893z"/>
   <path d="m163.36 51.622c0.1704 0.14076 0.41488 0.24819 0.67047 0.24819 0.42599 0 0.65936-0.24448 0.65936-0.53712 0-0.34079-0.28893-0.44822-0.54823-0.54453-0.20373-0.07779-0.40006-0.14447-0.40006-0.31116 0-0.13706 0.10372-0.2593 0.32968-0.2593 0.15928 0 0.28893 0.06668 0.41117 0.15928l0.14447-0.19262c-0.13706-0.11113-0.33338-0.20374-0.55934-0.20374-0.38895 0-0.61862 0.22226-0.61862 0.51119 0 0.30375 0.28153 0.42599 0.53712 0.5186 0.19633 0.07408 0.41118 0.15558 0.41118 0.34079 0 0.15558-0.11854 0.28152-0.35561 0.28152-0.21485 0-0.37413-0.0889-0.52971-0.21485z"/>
   <path d="m164.98 50.929c0 0.58898 0.38154 0.94088 0.8631 0.94088 0.24448 0 0.4371-0.0852 0.59268-0.18521l-0.10742-0.20003c-0.13336 0.0852-0.27782 0.14076-0.44822 0.14076-0.3445 0-0.57787-0.24448-0.60009-0.63343h1.215c7e-3 -0.04445 0.0111-0.10372 0.0111-0.16669 0-0.51489-0.2593-0.84457-0.71863-0.84457-0.41117 0-0.80753 0.35932-0.80753 0.94829zm0.29634-0.13706c0.037-0.36302 0.26671-0.57046 0.5186-0.57046 0.28153 0 0.44451 0.20374 0.44451 0.57046z"/>
   <path d="m151.05 56.594h0.31116v-1.0891h0.92607v-0.2593h-0.92607v-0.82235h1.0928v-0.2593h-1.4039z"/>
   <path d="m152.99 54.424c0.11854 0 0.21114-0.08149 0.21114-0.19633 0-0.11854-0.0926-0.19633-0.21114-0.19633s-0.21114 0.07779-0.21114 0.19633c0 0.11483 0.0926 0.19633 0.21114 0.19633zm-0.15558 2.1707h0.30375v-1.8003h-0.30375z"/>
   <path d="m153.75 56.231c0 0.263 0.0926 0.40747 0.32227 0.40747 0.0815 0 0.13335-0.01111 0.1741-0.02963l-0.0408-0.22966c-0.0333 0.0074-0.0481 0.0074-0.0667 0.0074-0.0445 0-0.0852-0.03704-0.0852-0.13335v-2.2966h-0.30375z"/>
   <path d="m154.75 56.039c0 0.35561 0.12965 0.60009 0.51489 0.60009 0.11113 0 0.23337-0.03334 0.33339-0.06668l-0.0593-0.22966c-0.0593 0.02223-0.14076 0.04816-0.20374 0.04816-0.20743 0-0.27782-0.12595-0.27782-0.3482v-1.0002h0.48526v-0.24819h-0.48526v-0.50378h-0.25559l-0.037 0.50378-0.28153 0.01852v0.22966h0.26671z"/>
   <path d="m155.78 55.698c0 0.58898 0.38154 0.94088 0.8631 0.94088 0.24448 0 0.4371-0.0852 0.59268-0.18521l-0.10742-0.20003c-0.13336 0.0852-0.27783 0.14076-0.44822 0.14076-0.3445 0-0.57787-0.24448-0.60009-0.63343h1.215c7e-3 -0.04445 0.0111-0.10372 0.0111-0.16669 0-0.51489-0.2593-0.84457-0.71863-0.84457-0.41117 0-0.80753 0.35932-0.80753 0.94829zm0.29634-0.13706c0.037-0.36302 0.26671-0.57046 0.5186-0.57046 0.28152 0 0.44451 0.20374 0.44451 0.57046z"/>
   <path d="m157.75 56.594h0.30375v-1.1557c0.12224-0.30375 0.30375-0.41488 0.45563-0.41488 0.0741 0 0.11483 0.01111 0.1741 0.02963l0.0593-0.26671c-0.0593-0.02593-0.11483-0.03704-0.19262-0.03704-0.20373 0-0.38895 0.14447-0.51119 0.37043h-0.0111l-0.0259-0.32598h-0.25189z"/>
   <path d="m159.04 56.594h0.24448l0.0259-0.1778h0.0111c0.15928 0.14076 0.3482 0.22226 0.51489 0.22226 0.41118 0 0.7779-0.35931 0.7779-0.97422 0-0.55564-0.24819-0.91496-0.71493-0.91496-0.20003 0-0.40006 0.10742-0.56305 0.25189l7e-3 -0.32598v-0.71863h-0.30375zm0.30375-0.40006v-0.94459c0.1704-0.15928 0.32968-0.24448 0.48156-0.24448 0.34079 0 0.47415 0.26671 0.47415 0.66306 0 0.44451-0.21856 0.71492-0.5149 0.71492-0.11854 0-0.28152-0.05186-0.44081-0.18892z"/>
   <path d="m160.95 56.128c0 0.32227 0.22596 0.51119 0.52971 0.51119 0.22226 0 0.42229-0.11854 0.59639-0.2593h7e-3l0.0259 0.21485h0.25189v-1.1039c0-0.44822-0.18522-0.74086-0.62602-0.74086-0.28894 0-0.54083 0.12595-0.70752 0.23337l0.12224 0.21114c0.14076-0.09631 0.32598-0.19262 0.53712-0.19262 0.29264 0 0.37043 0.22226 0.37043 0.45192-0.76679 0.0852-1.1076 0.28152-1.1076 0.67418zm0.30005-0.02222c0-0.22966 0.20373-0.37784 0.80753-0.45192v0.50008c-0.1741 0.15558-0.31857 0.24078-0.49267 0.24078-0.17781 0-0.31486-0.0852-0.31486-0.28893z"/>
   <path d="m162.94 56.594h0.30375v-1.3039c0.18151-0.18151 0.30745-0.27782 0.49267-0.27782 0.23707 0 0.34079 0.14447 0.34079 0.48156v1.1002h0.30375v-1.1409c0-0.45933-0.1704-0.70381-0.54823-0.70381-0.24819 0-0.4334 0.13335-0.6038 0.30375h-0.0111l-0.0259-0.2593h-0.25189z"/>
   <path d="m164.96 56.594h0.30005v-0.47415l0.33709-0.39265 0.526 0.8668h0.33339l-0.68529-1.0779 0.60379-0.72233h-0.33709l-0.76678 0.94829h-0.0111v-1.7855h-0.30005z"/>
  </g>
  <g aria-label="I2S">
   <path d="m156.55 70.347h0.31116v-2.43h-0.31116z"/>
   <path d="m157.33 70.347h1.5262v-0.263h-0.68529c-0.12224 0-0.2667 0.01111-0.39635 0.02223 0.55934-0.58528 0.96311-1.0261 0.96311-1.4706 0-0.41858-0.27041-0.6964-0.70752-0.6964-0.30745 0-0.5186 0.14447-0.71492 0.35932l0.1741 0.1741c0.13706-0.15928 0.30745-0.28523 0.50378-0.28523 0.30004 0 0.44822 0.19262 0.44822 0.46303 0 0.38154-0.40007 0.80753-1.1113 1.515z"/>
   <path d="m159.17 70.032c0.21114 0.21855 0.50749 0.35931 0.84828 0.35931 0.51119 0 0.82975-0.30745 0.82975-0.6927 0-0.35931-0.21855-0.52601-0.50007-0.64825l-0.3482-0.14817c-0.18892-0.08149-0.40377-0.1704-0.40377-0.40376 0-0.21855 0.18151-0.35561 0.45563-0.35561 0.22225 0 0.40376 0.0889 0.55193 0.22966l0.16299-0.20003c-0.1704-0.1778-0.42599-0.30005-0.71492-0.30005-0.44081 0-0.76679 0.27412-0.76679 0.64454 0 0.35561 0.26671 0.52971 0.49267 0.62602l0.3482 0.15188c0.22967 0.10372 0.40747 0.18151 0.40747 0.4297 0 0.23707-0.18892 0.39636-0.50748 0.39636-0.2556 0-0.49638-0.12224-0.67048-0.30375z"/>
  </g>
 </g>
 <path d="m97.632 37.44h25.401v-25.93" fill="none" stroke="#47d58a" stroke-dashoffset="1.2" stroke-linecap="square" stroke-width=".26459"/>
 <g stroke-linecap="round">
  <rect x="71.438" y="16.008" width="26.194" height="10.319" fill="#1d232d" stroke="#30d2d5" stroke-width=".26459"/>
  <g fill="#e8eaec" stroke-width=".26459" aria-label="Huffman Info Decoding">
   <path d="m74.95 19.81h0.31116v-1.1446h1.1298v1.1446h0.30746v-2.43h-0.30746v1.0187h-1.1298v-1.0187h-0.31116z"/>
   <path d="m77.301 19.151c0 0.45933 0.1704 0.70381 0.55194 0.70381 0.24819 0 0.42599-0.12965 0.59268-0.32598h0.01111l0.02593 0.28152h0.25189v-1.8003h-0.30375v1.278c-0.1704 0.21114-0.30005 0.30375-0.48526 0.30375-0.23707 0-0.33709-0.14447-0.33709-0.48156v-1.1002h-0.30745z"/>
   <path d="m81.275 17.188c-0.08149-0.03334-0.18892-0.05927-0.30005-0.05927-0.35931 0-0.52601 0.22966-0.52601 0.59639v0.28523h-0.74826v-0.22966c0-0.23707 0.10372-0.36672 0.28152-0.36672 0.0889 0 0.16299 0.01482 0.24078 0.04816l0.062973-0.22967c-0.0889-0.04075-0.21114-0.06668-0.32968-0.06668-0.37413 0-0.55934 0.23337-0.55934 0.6075v0.23707l-0.24448 0.01852v0.22966h0.24448v1.5521h0.30375v-1.5521h0.74826v1.5521h0.30375v-1.5521h0.38154v-0.24819h-0.38154v-0.28523c0-0.22966 0.0852-0.3482 0.2556-0.3482 0.06297 0 0.13335 0.01482 0.20373 0.04445z"/>
   <path d="m81.472 19.81h0.30375v-1.3039c0.16669-0.18521 0.31857-0.27782 0.45192-0.27782 0.22966 0 0.33709 0.14447 0.33709 0.48156v1.1002h0.30375v-1.3039c0.16669-0.18521 0.31116-0.27782 0.45192-0.27782 0.22596 0 0.33338 0.14447 0.33338 0.48156v1.1002h0.30375v-1.1409c0-0.45933-0.1778-0.70381-0.54823-0.70381-0.21855 0-0.40377 0.14076-0.59268 0.3445-0.07409-0.21485-0.22226-0.3445-0.49637-0.3445-0.21485 0-0.40376 0.13335-0.55934 0.30375h-0.01111l-0.02593-0.2593h-0.25189z"/>
   <path d="m84.451 19.343c0 0.32227 0.22596 0.51119 0.52971 0.51119 0.22226 0 0.42229-0.11854 0.59639-0.2593h0.0074l0.02593 0.21485h0.25189v-1.1039c0-0.44822-0.18521-0.74085-0.62602-0.74085-0.28893 0-0.54082 0.12594-0.70752 0.23337l0.12224 0.21114c0.14076-0.09631 0.32598-0.19262 0.53712-0.19262 0.29264 0 0.37043 0.22226 0.37043 0.45192-0.76678 0.0852-1.1076 0.28152-1.1076 0.67418zm0.30005-0.02223c0-0.22966 0.20374-0.37784 0.80753-0.45192v0.50008c-0.1741 0.15558-0.31857 0.24078-0.49267 0.24078-0.1778 0-0.31486-0.0852-0.31486-0.28893z"/>
   <path d="m86.435 19.81h0.30375v-1.3039c0.18151-0.18151 0.30746-0.27782 0.49267-0.27782 0.23707 0 0.34079 0.14447 0.34079 0.48156v1.1002h0.30375v-1.1409c0-0.45933-0.1704-0.70381-0.54823-0.70381-0.24819 0-0.4334 0.13335-0.6038 0.30375h-0.01111l-0.02593-0.2593h-0.25189z"/>
   <path d="m89.225 19.81h0.31116v-2.43h-0.31116z"/>
   <path d="m90.161 19.81h0.30375v-1.3039c0.18151-0.18151 0.30746-0.27782 0.49267-0.27782 0.23707 0 0.34079 0.14447 0.34079 0.48156v1.1002h0.30375v-1.1409c0-0.45933-0.1704-0.70381-0.54823-0.70381-0.24819 0-0.4334 0.13335-0.6038 0.30375h-0.01111l-0.02593-0.2593h-0.25189z"/>
   <path d="m93.065 17.188c-0.08149-0.03334-0.18892-0.05927-0.30005-0.05927-0.35932 0-0.52601 0.22966-0.52601 0.59639v0.28523l-0.24448 0.01852v0.22966h0.24448v1.5521h0.30375v-1.5521h0.38154v-0.24819h-0.38154v-0.28523c0-0.22966 0.08149-0.3482 0.25189-0.3482 0.06668 0 0.13706 0.01482 0.20374 0.04445z"/>
   <path d="m93.103 18.914c0 0.59639 0.39265 0.94088 0.83346 0.94088 0.44081 0 0.83346-0.3445 0.83346-0.94088 0-0.6038-0.39265-0.94829-0.83346-0.94829-0.44081 0-0.83346 0.3445-0.83346 0.94829zm0.31486 0c0-0.41488 0.21114-0.6964 0.5186-0.6964 0.31116 0 0.5186 0.28152 0.5186 0.6964 0 0.41117-0.20744 0.689-0.5186 0.689-0.30745 0-0.5186-0.27782-0.5186-0.689z"/>
   <path d="m77.819 24.579h0.62232c0.73345 0 1.1335-0.45192 1.1335-1.2261 0-0.77049-0.40006-1.2039-1.1483-1.2039h-0.6075zm0.31116-0.25189v-1.9262h0.27412c0.57046 0 0.85198 0.34079 0.85198 0.952 0 0.61491-0.28152 0.97422-0.85198 0.97422z"/>
   <path d="m79.932 23.682c0 0.58898 0.38154 0.94088 0.8631 0.94088 0.24448 0 0.4371-0.0852 0.59268-0.18521l-0.10742-0.20003c-0.13335 0.0852-0.27782 0.14076-0.44822 0.14076-0.3445 0-0.57787-0.24448-0.60009-0.63343h1.215c0.0074-0.04445 0.01111-0.10372 0.01111-0.16669 0-0.51489-0.2593-0.84457-0.71863-0.84457-0.41117 0-0.80753 0.35931-0.80753 0.94829zm0.29634-0.13706c0.03704-0.36302 0.26671-0.57046 0.5186-0.57046 0.28152 0 0.44451 0.20373 0.44451 0.57046z"/>
   <path d="m81.769 23.682c0 0.59639 0.36672 0.94088 0.84457 0.94088 0.21485 0 0.42229-0.0889 0.58528-0.23337l-0.13706-0.20003c-0.10742 0.09631-0.25189 0.18151-0.42229 0.18151-0.32968 0-0.55564-0.27782-0.55564-0.689 0-0.41488 0.23707-0.6964 0.56305-0.6964 0.14447 0 0.2556 0.06668 0.36302 0.15928l0.15188-0.19633c-0.12224-0.11483-0.28893-0.21485-0.52601-0.21485-0.46303 0-0.8668 0.3445-0.8668 0.94829z"/>
   <path d="m83.376 23.682c0 0.59639 0.39265 0.94088 0.83346 0.94088 0.44081 0 0.83346-0.3445 0.83346-0.94088 0-0.6038-0.39265-0.94829-0.83346-0.94829-0.44081 0-0.83346 0.3445-0.83346 0.94829zm0.31486 0c0-0.41488 0.21114-0.6964 0.5186-0.6964 0.31116 0 0.5186 0.28152 0.5186 0.6964 0 0.41118-0.20744 0.689-0.5186 0.689-0.30746 0-0.5186-0.27782-0.5186-0.689z"/>
   <path d="m85.391 23.682c0 0.60009 0.29264 0.94088 0.74456 0.94088 0.21114 0 0.40377-0.11854 0.54453-0.25559h0.01111l0.02593 0.21114h0.25189v-2.6374h-0.30745v0.6927l0.01482 0.30745c-0.15928-0.12965-0.29634-0.20744-0.50378-0.20744-0.41117 0-0.7816 0.36302-0.7816 0.94829zm0.31486-0.0037c0-0.41117 0.22966-0.68899 0.5186-0.68899 0.14817 0 0.28523 0.05186 0.4371 0.18892v0.94088c-0.14817 0.16669-0.29264 0.24819-0.45933 0.24819-0.31486 0-0.49637-0.2593-0.49637-0.689z"/>
   <path d="m87.731 22.408c0.11854 0 0.21114-0.08149 0.21114-0.19633 0-0.11854-0.09261-0.19633-0.21114-0.19633-0.11854 0-0.21114 0.07779-0.21114 0.19633 0 0.11483 0.09261 0.19633 0.21114 0.19633zm-0.15558 2.1707h0.30375v-1.8003h-0.30375z"/>
   <path d="m88.487 24.579h0.30375v-1.3039c0.18151-0.18151 0.30745-0.27782 0.49267-0.27782 0.23707 0 0.34079 0.14447 0.34079 0.48156v1.1002h0.30375v-1.1409c0-0.45933-0.1704-0.70381-0.54823-0.70381-0.24819 0-0.4334 0.13335-0.6038 0.30375h-0.01111l-0.02593-0.2593h-0.25189z"/>
   <path d="m90.642 24.883c0-0.10372 0.05556-0.21114 0.18521-0.30375 0.07779 0.02223 0.16299 0.02963 0.23337 0.02963h0.31116c0.23337 0 0.36302 0.05556 0.36302 0.22226 0 0.18892-0.22596 0.36672-0.57046 0.36672-0.32598 0-0.5223-0.12224-0.5223-0.31486zm-0.26671 0.04075c0 0.31116 0.30375 0.48526 0.74456 0.48526 0.55934 0 0.91125-0.28893 0.91125-0.62232 0-0.30005-0.21114-0.4297-0.62973-0.4297h-0.3482c-0.24448 0-0.31857-0.08149-0.31857-0.19633 0-0.10002 0.05186-0.15928 0.11483-0.21485 0.08149 0.04075 0.18151 0.06297 0.27041 0.06297 0.36672 0 0.65936-0.24078 0.65936-0.62602 0-0.15188-0.06297-0.28893-0.14817-0.37043h0.37043v-0.23337h-0.62602c-0.06668-0.02593-0.15558-0.04445-0.2556-0.04445-0.36672 0-0.67788 0.24819-0.67788 0.64084 0 0.21485 0.11483 0.38895 0.23337 0.48526v0.01482c-0.09261 0.06297-0.19633 0.18151-0.19633 0.33338 0 0.14076 0.07038 0.23707 0.15928 0.29264v0.01482c-0.16299 0.11113-0.263 0.2556-0.263 0.40747zm0.74456-1.1187c-0.20744 0-0.38154-0.16669-0.38154-0.4297s0.1704-0.41858 0.38154-0.41858c0.21114 0 0.38154 0.15558 0.38154 0.41858s-0.1741 0.4297-0.38154 0.4297z"/>
  </g>
  <rect x="71.438" y="31.883" width="26.194" height="10.319" fill="#1d232d" stroke="#30d2d5" stroke-width=".26459"/>
  <g fill="#e8eaec" stroke-width=".26459" aria-label="Scalefactor  Decoding">
   <path d="m76.234 35.371c0.21114 0.21855 0.50748 0.35931 0.84828 0.35931 0.51119 0 0.82976-0.30745 0.82976-0.6927 0-0.35932-0.21855-0.52601-0.50008-0.64825l-0.3482-0.14817c-0.18892-0.08149-0.40377-0.1704-0.40377-0.40376 0-0.21855 0.18151-0.35561 0.45563-0.35561 0.22226 0 0.40376 0.0889 0.55194 0.22966l0.16299-0.20003c-0.1704-0.1778-0.42599-0.30005-0.71492-0.30005-0.44081 0-0.76678 0.27412-0.76678 0.64454 0 0.35561 0.26671 0.52971 0.49267 0.62602l0.3482 0.15188c0.22966 0.10372 0.40747 0.18151 0.40747 0.4297 0 0.23707-0.18892 0.39636-0.50748 0.39636-0.2556 0-0.49637-0.12224-0.67047-0.30375z"/>
   <path d="m78.217 34.789c0 0.59639 0.36672 0.94088 0.84457 0.94088 0.21485 0 0.42229-0.0889 0.58528-0.23337l-0.13706-0.20003c-0.10742 0.09631-0.25189 0.18151-0.42229 0.18151-0.32968 0-0.55564-0.27782-0.55564-0.689 0-0.41488 0.23707-0.6964 0.56305-0.6964 0.14447 0 0.25559 0.06668 0.36302 0.15928l0.15188-0.19633c-0.12224-0.11483-0.28893-0.21485-0.52601-0.21485-0.46303 0-0.8668 0.3445-0.8668 0.94829z"/>
   <path d="m79.911 35.219c0 0.32227 0.22596 0.51119 0.52971 0.51119 0.22226 0 0.42229-0.11854 0.59639-0.2593h0.0074l0.02593 0.21485h0.25189v-1.1039c0-0.44822-0.18521-0.74085-0.62602-0.74085-0.28893 0-0.54082 0.12594-0.70752 0.23337l0.12224 0.21114c0.14076-0.09631 0.32598-0.19262 0.53712-0.19262 0.29264 0 0.37043 0.22226 0.37043 0.45192-0.76678 0.0852-1.1076 0.28152-1.1076 0.67418zm0.30005-0.02223c0-0.22966 0.20374-0.37784 0.80753-0.45192v0.50008c-0.1741 0.15558-0.31857 0.24078-0.49267 0.24078-0.1778 0-0.31486-0.0852-0.31486-0.28893z"/>
   <path d="m81.896 35.323c0 0.263 0.09261 0.40747 0.32227 0.40747 0.08149 0 0.13335-0.01111 0.1741-0.02963l-0.04075-0.22966c-0.03334 0.0074-0.04815 0.0074-0.06668 0.0074-0.04445 0-0.0852-0.03704-0.0852-0.13335v-2.2966h-0.30375z"/>
   <path d="m82.71 34.789c0 0.58898 0.38154 0.94088 0.8631 0.94088 0.24448 0 0.4371-0.0852 0.59268-0.18521l-0.10742-0.20003c-0.13335 0.0852-0.27782 0.14076-0.44822 0.14076-0.3445 0-0.57787-0.24448-0.60009-0.63343h1.215c0.0074-0.04445 0.01111-0.10372 0.01111-0.16669 0-0.51489-0.2593-0.84457-0.71863-0.84457-0.41118 0-0.80753 0.35931-0.80753 0.94829zm0.29634-0.13706c0.03704-0.36302 0.26671-0.57046 0.5186-0.57046 0.28152 0 0.44451 0.20374 0.44451 0.57046z"/>
   <path d="m85.559 33.063c-0.08149-0.03334-0.18892-0.05927-0.30005-0.05927-0.35932 0-0.52601 0.22966-0.52601 0.59639v0.28523l-0.24448 0.01852v0.22966h0.24448v1.5521h0.30375v-1.5521h0.38154v-0.24819h-0.38154v-0.28523c0-0.22966 0.08149-0.3482 0.25189-0.3482 0.06668 0 0.13706 0.01482 0.20374 0.04445z"/>
   <path d="m85.605 35.219c0 0.32227 0.22596 0.51119 0.52971 0.51119 0.22226 0 0.42229-0.11854 0.59639-0.2593h0.0074l0.02593 0.21485h0.25189v-1.1039c0-0.44822-0.18521-0.74085-0.62602-0.74085-0.28893 0-0.54082 0.12594-0.70752 0.23337l0.12224 0.21114c0.14076-0.09631 0.32598-0.19262 0.53712-0.19262 0.29264 0 0.37043 0.22226 0.37043 0.45192-0.76678 0.0852-1.1076 0.28152-1.1076 0.67418zm0.30005-0.02223c0-0.22966 0.20374-0.37784 0.80753-0.45192v0.50008c-0.1741 0.15558-0.31857 0.24078-0.49267 0.24078-0.1778 0-0.31486-0.0852-0.31486-0.28893z"/>
   <path d="m87.456 34.789c0 0.59639 0.36672 0.94088 0.84457 0.94088 0.21485 0 0.42229-0.0889 0.58528-0.23337l-0.13706-0.20003c-0.10742 0.09631-0.25189 0.18151-0.42229 0.18151-0.32968 0-0.55564-0.27782-0.55564-0.689 0-0.41488 0.23707-0.6964 0.56305-0.6964 0.14447 0 0.2556 0.06668 0.36302 0.15928l0.15188-0.19633c-0.12224-0.11483-0.28893-0.21485-0.52601-0.21485-0.46303 0-0.8668 0.3445-0.8668 0.94829z"/>
   <path d="m89.327 35.13c0 0.35561 0.12965 0.60009 0.51489 0.60009 0.11113 0 0.23337-0.03334 0.33338-0.06668l-0.05927-0.22966c-0.05927 0.02223-0.14076 0.04816-0.20374 0.04816-0.20744 0-0.27782-0.12594-0.27782-0.3482v-1.0002h0.48526v-0.24819h-0.48526v-0.50378h-0.25559l-0.03704 0.50378-0.28152 0.01852v0.22966h0.26671z"/>
   <path d="m90.357 34.789c0 0.59639 0.39265 0.94088 0.83346 0.94088s0.83346-0.3445 0.83346-0.94088c0-0.6038-0.39265-0.94829-0.83346-0.94829s-0.83346 0.3445-0.83346 0.94829zm0.31486 0c0-0.41488 0.21114-0.6964 0.5186-0.6964 0.31116 0 0.5186 0.28152 0.5186 0.6964 0 0.41118-0.20744 0.689-0.5186 0.689-0.30746 0-0.5186-0.27782-0.5186-0.689z"/>
   <path d="m92.502 35.686h0.30375v-1.1557c0.12224-0.30375 0.30375-0.41488 0.45562-0.41488 0.07409 0 0.11483 0.01111 0.1741 0.02963l0.05927-0.26671c-0.05927-0.02593-0.11483-0.03704-0.19262-0.03704-0.20374 0-0.38895 0.14447-0.51119 0.37043h-0.01111l-0.02593-0.32598h-0.25189z"/>
   <path d="m77.819 40.454h0.62232c0.73345 0 1.1335-0.45192 1.1335-1.2261 0-0.77049-0.40006-1.2039-1.1483-1.2039h-0.6075zm0.31116-0.25189v-1.9262h0.27412c0.57046 0 0.85198 0.34079 0.85198 0.952 0 0.61491-0.28152 0.97422-0.85198 0.97422z"/>
   <path d="m79.932 39.558c0 0.58898 0.38154 0.94088 0.8631 0.94088 0.24448 0 0.4371-0.0852 0.59268-0.18521l-0.10742-0.20003c-0.13335 0.0852-0.27782 0.14076-0.44822 0.14076-0.3445 0-0.57787-0.24448-0.60009-0.63343h1.215c0.0074-0.04445 0.01111-0.10372 0.01111-0.16669 0-0.51489-0.2593-0.84457-0.71863-0.84457-0.41117 0-0.80753 0.35931-0.80753 0.94829zm0.29634-0.13706c0.03704-0.36302 0.26671-0.57046 0.5186-0.57046 0.28152 0 0.44451 0.20374 0.44451 0.57046z"/>
   <path d="m81.769 39.558c0 0.59639 0.36672 0.94088 0.84457 0.94088 0.21485 0 0.42229-0.0889 0.58528-0.23337l-0.13706-0.20003c-0.10742 0.09631-0.25189 0.18151-0.42229 0.18151-0.32968 0-0.55564-0.27782-0.55564-0.68899 0-0.41488 0.23707-0.6964 0.56305-0.6964 0.14447 0 0.2556 0.06668 0.36302 0.15928l0.15188-0.19633c-0.12224-0.11483-0.28893-0.21485-0.52601-0.21485-0.46303 0-0.8668 0.3445-0.8668 0.94829z"/>
   <path d="m83.376 39.558c0 0.59639 0.39265 0.94088 0.83346 0.94088 0.44081 0 0.83346-0.3445 0.83346-0.94088 0-0.6038-0.39265-0.94829-0.83346-0.94829-0.44081 0-0.83346 0.3445-0.83346 0.94829zm0.31486 0c0-0.41488 0.21114-0.6964 0.5186-0.6964 0.31116 0 0.5186 0.28152 0.5186 0.6964 0 0.41117-0.20744 0.68899-0.5186 0.68899-0.30746 0-0.5186-0.27782-0.5186-0.68899z"/>
   <path d="m85.391 39.558c0 0.60009 0.29264 0.94088 0.74456 0.94088 0.21114 0 0.40377-0.11854 0.54453-0.2556h0.01111l0.02593 0.21114h0.25189v-2.6374h-0.30745v0.6927l0.01482 0.30745c-0.15928-0.12965-0.29634-0.20744-0.50378-0.20744-0.41117 0-0.7816 0.36302-0.7816 0.94829zm0.31486-0.0037c0-0.41117 0.22966-0.68899 0.5186-0.68899 0.14817 0 0.28523 0.05186 0.4371 0.18892v0.94088c-0.14817 0.16669-0.29264 0.24819-0.45933 0.24819-0.31486 0-0.49637-0.2593-0.49637-0.689z"/>
   <path d="m87.731 38.284c0.11854 0 0.21114-0.08149 0.21114-0.19633 0-0.11854-0.09261-0.19633-0.21114-0.19633-0.11854 0-0.21114 0.07779-0.21114 0.19633 0 0.11483 0.09261 0.19633 0.21114 0.19633zm-0.15558 2.1707h0.30375v-1.8003h-0.30375z"/>
   <path d="m88.487 40.454h0.30375v-1.3039c0.18151-0.18151 0.30745-0.27782 0.49267-0.27782 0.23707 0 0.34079 0.14447 0.34079 0.48156v1.1002h0.30375v-1.1409c0-0.45933-0.1704-0.70381-0.54823-0.70381-0.24819 0-0.4334 0.13335-0.6038 0.30375h-0.01111l-0.02593-0.2593h-0.25189z"/>
   <path d="m90.642 40.758c0-0.10372 0.05556-0.21114 0.18521-0.30375 0.07779 0.02223 0.16299 0.02963 0.23337 0.02963h0.31116c0.23337 0 0.36302 0.05556 0.36302 0.22226 0 0.18892-0.22596 0.36672-0.57046 0.36672-0.32598 0-0.5223-0.12224-0.5223-0.31486zm-0.26671 0.04075c0 0.31116 0.30375 0.48526 0.74456 0.48526 0.55934 0 0.91125-0.28893 0.91125-0.62232 0-0.30005-0.21114-0.4297-0.62973-0.4297h-0.3482c-0.24448 0-0.31857-0.08149-0.31857-0.19633 0-0.10002 0.05186-0.15928 0.11483-0.21485 0.08149 0.04075 0.18151 0.06297 0.27041 0.06297 0.36672 0 0.65936-0.24078 0.65936-0.62602 0-0.15188-0.06297-0.28893-0.14817-0.37043h0.37043v-0.23337h-0.62602c-0.06668-0.02593-0.15558-0.04445-0.2556-0.04445-0.36672 0-0.67788 0.24819-0.67788 0.64084 0 0.21485 0.11483 0.38895 0.23337 0.48526v0.01482c-0.09261 0.06297-0.19633 0.18151-0.19633 0.33338 0 0.14076 0.07038 0.23707 0.15928 0.29264v0.01482c-0.16299 0.11113-0.263 0.25559-0.263 0.40747zm0.74456-1.1187c-0.20744 0-0.38154-0.16669-0.38154-0.4297s0.1704-0.41858 0.38154-0.41858c0.21114 0 0.38154 0.15558 0.38154 0.41858s-0.1741 0.4297-0.38154 0.4297z"/>
  </g>
 </g>
 <path d="m55.847 5.5564h14.442" fill="none" stroke="#47d58a" stroke-dashoffset="1.2" stroke-linecap="square" stroke-width=".26459"/>
 <g transform="matrix(.0031775 0 0 -.0032319 69.658 6.3743)" fill="#47d58a" stroke-width="82.566">
  <g fill="#47d58a" stroke-width="82.566">
   <path d="m486.41 221.41-364.07-208.5c-52.938-30.318-95.852-5.44-95.852 55.563v415.65c0 61.004 42.914 85.882 95.852 55.563l364.07-208.49c52.938-30.317 52.938-79.473 0-109.79z" fill="#47d58a" stroke-width="82.566"/>
  </g>
 </g>
 <path d="m55.847 21.432h14.442" fill="none" stroke="#47d58a" stroke-dashoffset="1.2" stroke-linecap="square" stroke-width=".26459"/>
 <g transform="matrix(.0031775 0 0 -.0032319 69.658 22.25)" fill="#47d58a" stroke-width="82.566">
  <g fill="#47d58a" stroke-width="82.566">
   <path d="m486.41 221.41-364.07-208.5c-52.938-30.318-95.852-5.44-95.852 55.563v415.65c0 61.004 42.914 85.882 95.852 55.563l364.07-208.49c52.938-30.317 52.938-79.473 0-109.79z" fill="#47d58a" stroke-width="82.566"/>
  </g>
 </g>
 <path d="m55.847 37.307h14.442" fill="none" stroke="#47d58a" stroke-dashoffset="1.2" stroke-linecap="square" stroke-width=".26459"/>
 <g transform="matrix(.0031775 0 0 -.0032319 69.658 38.125)" fill="#47d58a" stroke-width="82.566">
  <g fill="#47d58a" stroke-width="82.566">
   <path d="m486.41 221.41-364.07-208.5c-52.938-30.318-95.852-5.44-95.852 55.563v415.65c0 61.004 42.914 85.882 95.852 55.563l364.07-208.49c52.938-30.317 52.938-79.473 0-109.79z" fill="#47d58a" stroke-width="82.566"/>
  </g>
 </g>
 <path d="m84.403 15.802v-4.1231" fill="none" stroke="#47d58a" stroke-dashoffset="1.2" stroke-linecap="square" stroke-width=".26459"/>
 <g transform="matrix(0 -.0031775 -.0032319 0 85.318 12.311)" fill="#47d58a" stroke-width="82.566">
  <g fill="#47d58a" stroke-width="82.566">
   <path d="m486.41 221.41-364.07-208.5c-52.938-30.318-95.852-5.44-95.852 55.563v415.65c0 61.004 42.914 85.882 95.852 55.563l364.07-208.49c52.938-30.317 52.938-79.473 0-109.79z" fill="#47d58a" stroke-width="82.566"/>
  </g>
 </g>
 <path d="m97.917 5.5564h9.4149" fill="none" stroke="#47d58a" stroke-dashoffset="1.2" stroke-linecap="square" stroke-width=".26459"/>
 <g transform="matrix(.0031775 0 0 -.0032319 106.7 6.3743)" fill="#47d58a" stroke-width="82.566">
  <g fill="#47d58a" stroke-width="82.566">
   <path d="m486.41 221.41-364.07-208.5c-52.938-30.318-95.852-5.44-95.852 55.563v415.65c0 61.004 42.914 85.882 95.852 55.563l364.07-208.49c52.938-30.317 52.938-79.473 0-109.79z" fill="#47d58a" stroke-width="82.566"/>
  </g>
 </g>
 <path d="m134.96 5.5564h9.4149" fill="none" stroke="#47d58a" stroke-dashoffset="1.2" stroke-linecap="square" stroke-width=".26459"/>
 <g transform="matrix(.0031775 0 0 -.0032319 143.74 6.3743)" fill="#47d58a" stroke-width="82.566">
  <g fill="#47d58a" stroke-width="82.566">
   <path d="m486.41 221.41-364.07-208.5c-52.938-30.318-95.852-5.44-95.852 55.563v415.65c0 61.004 42.914 85.882 95.852 55.563l364.07-208.49c52.938-30.317 52.938-79.473 0-109.79z" fill="#47d58a" stroke-width="82.566"/>
  </g>
 </g>
 <g transform="matrix(0 -.0031775 -.0032319 0 123.91 12.239)" fill="#47d58a" stroke-width="82.566">
  <g fill="#47d58a" stroke-width="82.566">
   <path d="m486.41 221.41-364.07-208.5c-52.938-30.318-95.852-5.44-95.852 55.563v415.65c0 61.004 42.914 85.882 95.852 55.563l364.07-208.49c52.938-30.317 52.938-79.473 0-109.79z" fill="#47d58a" stroke-width="82.566"/>
  </g>
 </g>
 <path d="m158.66 10.639v4.3877" fill="none" stroke="#47d58a" stroke-dashoffset="1.2" stroke-linecap="square" stroke-width=".26459"/>
 <g transform="matrix(0 .0031775 .0032319 0 157.75 14.395)" fill="#47d58a" stroke-width="82.566">
  <g fill="#47d58a" stroke-width="82.566">
   <path d="m486.41 221.41-364.07-208.5c-52.938-30.318-95.852-5.44-95.852 55.563v415.65c0 61.004 42.914 85.882 95.852 55.563l364.07-208.49c52.938-30.317 52.938-79.473 0-109.79z" fill="#47d58a" stroke-width="82.566"/>
  </g>
 </g>
 <path d="m158.66 26.514v4.3877" fill="none" stroke="#47d58a" stroke-dashoffset="1.2" stroke-linecap="square" stroke-width=".26459"/>
 <g transform="matrix(0 .0031775 .0032319 0 157.75 30.271)" fill="#47d58a" stroke-width="82.566">
  <g fill="#47d58a" stroke-width="82.566">
   <path d="m486.41 221.41-364.07-208.5c-52.938-30.318-95.852-5.44-95.852 55.563v415.65c0 61.004 42.914 85.882 95.852 55.563l364.07-208.49c52.938-30.317 52.938-79.473 0-109.79z" fill="#47d58a" stroke-width="82.566"/>
  </g>
 </g>
 <path d="m158.66 42.39v4.3877" fill="none" stroke="#47d58a" stroke-dashoffset="1.2" stroke-linecap="square" stroke-width=".26459"/>
 <g transform="matrix(0 .0031775 .0032319 0 157.75 46.146)" fill="#47d58a" stroke-width="82.566">
  <g fill="#47d58a" stroke-width="82.566">
   <path d="m486.41 221.41-364.07-208.5c-52.938-30.318-95.852-5.44-95.852 55.563v415.65c0 61.004 42.914 85.882 95.852 55.563l364.07-208.49c52.938-30.317 52.938-79.473 0-109.79z" fill="#47d58a" stroke-width="82.566"/>
  </g>
 </g>
 <path d="m158.66 58.265v4.3877" fill="none" stroke="#47d58a" stroke-dashoffset="1.2" stroke-linecap="square" stroke-width=".26459"/>
 <g transform="matrix(0 .0031775 .0032319 0 157.75 62.022)" fill="#47d58a" stroke-width="82.566">
  <g fill="#47d58a" stroke-width="82.566">
   <path d="m486.41 221.41-364.07-208.5c-52.938-30.318-95.852-5.44-95.852 55.563v415.65c0 61.004 42.914 85.882 95.852 55.563l364.07-208.49c52.938-30.317 52.938-79.473 0-109.79z" fill="#47d58a" stroke-width="82.566"/>
  </g>
 </g>
</svg>
