<svg width="86.519mm" height="131.89mm" version="1.1" viewBox="0 0 86.519 131.89" xmlns="http://www.w3.org/2000/svg">
 <g transform="translate(-8.623 -51.792)">
  <g>
   <rect x="35.478" y="51.792" width="33.073" height="9.3979" fill="#47d58a"/>
   <g stroke-linecap="round">
    <g fill="#1d232d" aria-label="Reference image">
     <path d="m40.842 56.15h0.23812c0.24448 0 0.37782 0.06985 0.37782 0.27305s-0.13335 0.30798-0.37782 0.30798h-0.23812zm1.1748 1.6986-0.46672-0.82868c0.21908-0.09842 0.3683-0.2921 0.3683-0.5969 0-0.49212-0.36195-0.64452-0.8001-0.64452h-0.74612v2.0701h0.4699v-0.74612h0.254l0.39688 0.74612z"/>
     <path d="m42.168 57.061c0 0.5207 0.34608 0.8255 0.79692 0.8255 0.18732 0 0.39688-0.06668 0.5588-0.1778l-0.15558-0.28258c-0.1143 0.06985-0.22225 0.10478-0.33972 0.10478-0.20955 0-0.3683-0.10478-0.40958-0.3429h0.94298c0.0095-0.0381 0.01905-0.1143 0.01905-0.19685 0-0.42862-0.22225-0.75565-0.66992-0.75565-0.37782 0-0.74295 0.31432-0.74295 0.8255zm0.44768-0.16192c0.03175-0.20955 0.15875-0.30798 0.3048-0.30798 0.18732 0 0.26352 0.127 0.26352 0.30798z"/>
     <path d="m44.859 55.642c-0.06985-0.0254-0.18415-0.05715-0.31432-0.05715-0.42545 0-0.58102 0.27305-0.58102 0.60642v0.08572l-0.20955 0.01588v0.34608h0.20955v1.2097h0.46672v-1.2097h0.28258v-0.36512h-0.28258v-0.09525c0-0.16192 0.06668-0.22542 0.18098-0.22542 0.0508 0 0.10795 0.0127 0.16192 0.03175z"/>
     <path d="m44.846 57.061c0 0.5207 0.34608 0.8255 0.79692 0.8255 0.18732 0 0.39688-0.06668 0.5588-0.1778l-0.15558-0.28258c-0.1143 0.06985-0.22225 0.10478-0.33972 0.10478-0.20955 0-0.3683-0.10478-0.40958-0.3429h0.94298c0.0095-0.0381 0.01905-0.1143 0.01905-0.19685 0-0.42862-0.22225-0.75565-0.66992-0.75565-0.37782 0-0.74295 0.31432-0.74295 0.8255zm0.44768-0.16192c0.03175-0.20955 0.15875-0.30798 0.3048-0.30798 0.18732 0 0.26352 0.127 0.26352 0.30798z"/>
     <path d="m46.582 57.849h0.46672v-0.9144c0.08255-0.21272 0.2286-0.28892 0.34607-0.28892 0.06668 0 0.1143 0.0095 0.17145 0.0254l0.0762-0.40322c-0.04445-0.01905-0.09842-0.03175-0.18732-0.03175-0.16192 0-0.33337 0.1016-0.44767 0.31432h-0.0127l-0.03175-0.27622h-0.381z"/>
     <path d="m47.724 57.061c0 0.5207 0.34608 0.8255 0.79692 0.8255 0.18732 0 0.39688-0.06668 0.5588-0.1778l-0.15558-0.28258c-0.1143 0.06985-0.22225 0.10478-0.33972 0.10478-0.20955 0-0.3683-0.10478-0.40958-0.3429h0.94298c0.0095-0.0381 0.01905-0.1143 0.01905-0.19685 0-0.42862-0.22225-0.75565-0.66992-0.75565-0.37782 0-0.74295 0.31432-0.74295 0.8255zm0.44768-0.16192c0.03175-0.20955 0.15875-0.30798 0.3048-0.30798 0.18732 0 0.26352 0.127 0.26352 0.30798z"/>
     <path d="m49.459 57.849h0.46672v-1.0636c0.1016-0.09842 0.17462-0.1524 0.2921-0.1524 0.13335 0 0.19368 0.06985 0.19368 0.29845v0.91758h0.46672v-0.9779c0-0.3937-0.14605-0.635-0.48895-0.635-0.21272 0-0.37148 0.11112-0.50482 0.23812h-0.0127l-0.03175-0.20002h-0.381z"/>
     <path d="m51.184 57.061c0 0.52388 0.33972 0.8255 0.77788 0.8255 0.17145 0 0.37148-0.0635 0.52388-0.19685l-0.18732-0.29528c-0.0762 0.06032-0.16828 0.1143-0.28258 0.1143-0.2032 0-0.35242-0.17462-0.35242-0.44768s0.14288-0.44768 0.3683-0.44768c0.07303 0 0.14288 0.02857 0.21908 0.09208l0.21272-0.28892c-0.10478-0.10795-0.2667-0.18098-0.46038-0.18098-0.43498 0-0.81915 0.30162-0.81915 0.8255z"/>
     <path d="m52.579 57.061c0 0.5207 0.34608 0.8255 0.79692 0.8255 0.18732 0 0.39688-0.06668 0.5588-0.1778l-0.15558-0.28258c-0.1143 0.06985-0.22225 0.10478-0.33972 0.10478-0.20955 0-0.3683-0.10478-0.40958-0.3429h0.94298c0.0095-0.0381 0.01905-0.1143 0.01905-0.19685 0-0.42862-0.22225-0.75565-0.66992-0.75565-0.37782 0-0.74295 0.31432-0.74295 0.8255zm0.44768-0.16192c0.03175-0.20955 0.15875-0.30798 0.3048-0.30798 0.18732 0 0.26352 0.127 0.26352 0.30798z"/>
     <path d="m55.21 56.042c0.15875 0 0.26988-0.1016 0.26988-0.24448s-0.11112-0.2413-0.26988-0.2413c-0.15558 0-0.26988 0.09842-0.26988 0.2413 0 0.14288 0.1143 0.24448 0.26988 0.24448zm-0.23178 1.8066h0.46672v-1.5748h-0.46672z"/>
     <path d="m55.853 57.849h0.46672v-1.0636c0.09842-0.1016 0.1905-0.1524 0.2667-0.1524 0.13335 0 0.19368 0.06985 0.19368 0.29845v0.91758h0.46672v-1.0636c0.1016-0.1016 0.1905-0.1524 0.26988-0.1524 0.13335 0 0.19368 0.06985 0.19368 0.29845v0.91758h0.46672v-0.9779c0-0.3937-0.1524-0.635-0.49212-0.635-0.20955 0-0.3556 0.12065-0.4953 0.26352-0.07938-0.16828-0.21272-0.26352-0.43498-0.26352-0.20638 0-0.34608 0.11112-0.47625 0.2413h-0.0127l-0.03175-0.2032h-0.381z"/>
     <path d="m58.518 57.411c0 0.2667 0.18098 0.47625 0.46672 0.47625 0.1778 0 0.32702-0.08255 0.46038-0.20002h0.0095l0.03493 0.16192h0.381v-0.9017c0-0.4826-0.22225-0.7112-0.62548-0.7112-0.24765 0-0.47308 0.08573-0.6731 0.20638l0.1651 0.30798c0.1524-0.0889 0.28575-0.14288 0.4191-0.14288 0.16828 0 0.23812 0.0889 0.24765 0.2286-0.6223 0.0635-0.88582 0.24448-0.88582 0.57468zm0.4445-0.03493c0-0.12065 0.10795-0.2159 0.44132-0.26035v0.27622c-0.08255 0.08255-0.1524 0.13335-0.26035 0.13335-0.11112 0-0.18098-0.04763-0.18098-0.14922z"/>
     <path d="m60.554 58.046c0-0.05715 0.02858-0.10478 0.08573-0.15558 0.0508 0.0127 0.1143 0.01905 0.22225 0.01905h0.16192c0.15558 0 0.2413 0.0254 0.2413 0.12382 0 0.10795-0.1524 0.19368-0.36195 0.19368s-0.34925-0.0635-0.34925-0.18098zm-0.38418 0.07303c0 0.2794 0.2921 0.40005 0.6604 0.40005 0.53975 0 0.87948-0.23812 0.87948-0.56515 0-0.28258-0.21272-0.40005-0.60008-0.40005h-0.254c-0.17462 0-0.23812-0.0381-0.23812-0.11748 0-0.05398 0.01588-0.08255 0.05715-0.11748 0.06985 0.02222 0.13335 0.03175 0.1905 0.03175 0.34608 0 0.61912-0.16828 0.61912-0.53022 0-0.08255-0.02222-0.15875-0.0508-0.20638h0.25082v-0.33972h-0.57468c-0.06985-0.0254-0.15558-0.0381-0.24448-0.0381-0.33972 0-0.65088 0.1905-0.65088 0.56832 0 0.18415 0.1016 0.33338 0.21272 0.40958v0.0127c-0.1016 0.06985-0.1778 0.18098-0.1778 0.29528 0 0.13018 0.0635 0.21272 0.14605 0.2667v0.0127c-0.14605 0.08255-0.22542 0.18732-0.22542 0.3175zm0.69532-1.0509c-0.12382 0-0.2159-0.0889-0.2159-0.26352 0-0.16828 0.09208-0.254 0.2159-0.254 0.12382 0 0.2159 0.0889 0.2159 0.254 0 0.17462-0.09208 0.26352-0.2159 0.26352z"/>
     <path d="m61.813 57.061c0 0.5207 0.34608 0.8255 0.79692 0.8255 0.18732 0 0.39688-0.06668 0.5588-0.1778l-0.15558-0.28258c-0.1143 0.06985-0.22225 0.10478-0.33972 0.10478-0.20955 0-0.3683-0.10478-0.40958-0.3429h0.94298c0.0095-0.0381 0.01905-0.1143 0.01905-0.19685 0-0.42862-0.22225-0.75565-0.66992-0.75565-0.37782 0-0.74295 0.31432-0.74295 0.8255zm0.44768-0.16192c0.03175-0.20955 0.15875-0.30798 0.3048-0.30798 0.18732 0 0.26352 0.127 0.26352 0.30798z"/>
    </g>
    <g stroke-width=".26458">
     <rect x="61.937" y="67.667" width="33.073" height="9.3979" fill="#1d232d" stroke="#f6c9a0"/>
     <g fill="#e8eaec" aria-label="Alpha Separation">
      <path d="m67.315 72.876 0.1016-0.3175c0.07303-0.23178 0.1397-0.46038 0.20638-0.70168h0.0127c0.06668 0.2413 0.13335 0.4699 0.20638 0.70168l0.09842 0.3175zm0.89218 0.84772h0.2794l-0.70485-2.0828h-0.29845l-0.70485 2.0828h0.26988l0.20002-0.635h0.75882z"/>
      <path d="m68.744 73.413c0 0.22542 0.07937 0.34925 0.27622 0.34925 0.06985 0 0.1143-0.0095 0.14922-0.0254l-0.03493-0.19685c-0.02858 0.0063-0.04127 0.0063-0.05715 0.0063-0.0381 0-0.07303-0.03175-0.07303-0.1143v-1.9685h-0.26035z"/>
      <path d="m69.81 73.584c0.14288 0.11112 0.28575 0.1778 0.42862 0.1778 0.35242 0 0.66675-0.30798 0.66675-0.83185 0-0.47942-0.21272-0.7874-0.6096-0.7874-0.18098 0-0.35242 0.09843-0.49212 0.2159h-0.0095l-0.02222-0.1778h-0.2159v2.1939h0.26035v-0.5207zm0.0063-0.2032v-0.80962c0.1524-0.13652 0.28258-0.20955 0.41275-0.20955 0.2921 0 0.4064 0.2286 0.4064 0.56832 0 0.381-0.18732 0.61278-0.44132 0.61278-0.1016 0-0.23812-0.04445-0.37782-0.16192z"/>
      <path d="m71.318 73.724h0.26035v-1.1176c0.15558-0.15558 0.26352-0.23812 0.42228-0.23812 0.2032 0 0.2921 0.12382 0.2921 0.41275v0.94298h0.26035v-0.9779c0-0.3937-0.14605-0.60325-0.4699-0.60325-0.21272 0-0.3683 0.1143-0.51435 0.254l0.0095-0.3175v-0.61595h-0.26035z"/>
      <path d="m72.971 73.324c0 0.27622 0.19368 0.43815 0.45402 0.43815 0.1905 0 0.36195-0.1016 0.51118-0.22225h0.0063l0.02223 0.18415h0.2159v-0.94615c0-0.38418-0.15875-0.635-0.53658-0.635-0.24765 0-0.46355 0.10795-0.60642 0.20002l0.10478 0.18098c0.12065-0.08255 0.2794-0.1651 0.46038-0.1651 0.25082 0 0.3175 0.1905 0.3175 0.38735-0.65722 0.07303-0.94932 0.2413-0.94932 0.57785zm0.25718-0.01905c0-0.19685 0.17462-0.32385 0.69215-0.38735v0.42862c-0.14922 0.13335-0.27305 0.20638-0.42228 0.20638-0.1524 0-0.26988-0.07303-0.26988-0.24765z"/>
      <path d="m75.178 73.454c0.18098 0.18732 0.43498 0.30798 0.72708 0.30798 0.43815 0 0.7112-0.26352 0.7112-0.59372 0-0.30798-0.18732-0.45085-0.42862-0.55562l-0.29845-0.127c-0.16192-0.06985-0.34608-0.14605-0.34608-0.34608 0-0.18732 0.15558-0.3048 0.39052-0.3048 0.1905 0 0.34608 0.0762 0.47308 0.19685l0.1397-0.17145c-0.14605-0.1524-0.36512-0.25718-0.61278-0.25718-0.37782 0-0.65722 0.23495-0.65722 0.55245 0 0.3048 0.2286 0.45402 0.42228 0.53658l0.29845 0.13018c0.19685 0.0889 0.34925 0.15558 0.34925 0.3683 0 0.2032-0.16192 0.33972-0.43498 0.33972-0.21908 0-0.42545-0.10478-0.57468-0.26035z"/>
      <path d="m76.877 72.955c0 0.50482 0.32702 0.80645 0.73978 0.80645 0.20955 0 0.37465-0.07303 0.508-0.15875l-0.09208-0.17145c-0.1143 0.07303-0.23812 0.12065-0.38418 0.12065-0.29528 0-0.4953-0.20955-0.51435-0.54292h1.0414c0.0063-0.0381 0.0095-0.0889 0.0095-0.14288 0-0.44132-0.22225-0.7239-0.61595-0.7239-0.35242 0-0.69215 0.30798-0.69215 0.8128zm0.254-0.11748c0.03175-0.31115 0.2286-0.48895 0.4445-0.48895 0.2413 0 0.381 0.17462 0.381 0.48895z"/>
      <path d="m78.821 73.584c0.14288 0.11112 0.28575 0.1778 0.42862 0.1778 0.35242 0 0.66675-0.30798 0.66675-0.83185 0-0.47942-0.21272-0.7874-0.6096-0.7874-0.18098 0-0.35242 0.09843-0.49212 0.2159h-0.0095l-0.02223-0.1778h-0.2159v2.1939h0.26035v-0.5207zm0.0063-0.2032v-0.80962c0.1524-0.13652 0.28258-0.20955 0.41275-0.20955 0.2921 0 0.4064 0.2286 0.4064 0.56832 0 0.381-0.18732 0.61278-0.44132 0.61278-0.1016 0-0.23812-0.04445-0.37782-0.16192z"/>
      <path d="m80.208 73.324c0 0.27622 0.19368 0.43815 0.45402 0.43815 0.1905 0 0.36195-0.1016 0.51118-0.22225h0.0063l0.02223 0.18415h0.2159v-0.94615c0-0.38418-0.15875-0.635-0.53658-0.635-0.24765 0-0.46355 0.10795-0.60642 0.20002l0.10478 0.18098c0.12065-0.08255 0.2794-0.1651 0.46038-0.1651 0.25082 0 0.3175 0.1905 0.3175 0.38735-0.65722 0.07303-0.94932 0.2413-0.94932 0.57785zm0.25718-0.01905c0-0.19685 0.17462-0.32385 0.69215-0.38735v0.42862c-0.14922 0.13335-0.27305 0.20638-0.42228 0.20638-0.1524 0-0.26988-0.07303-0.26988-0.24765z"/>
      <path d="m81.909 73.724h0.26035v-0.9906c0.10478-0.26035 0.26035-0.3556 0.39052-0.3556 0.0635 0 0.09843 0.0095 0.14922 0.0254l0.0508-0.2286c-0.0508-0.02222-0.09842-0.03175-0.1651-0.03175-0.17462 0-0.33338 0.12382-0.43815 0.3175h-0.0095l-0.02222-0.2794h-0.2159z"/>
      <path d="m82.856 73.324c0 0.27622 0.19368 0.43815 0.45402 0.43815 0.1905 0 0.36195-0.1016 0.51118-0.22225h0.0063l0.02223 0.18415h0.2159v-0.94615c0-0.38418-0.15875-0.635-0.53658-0.635-0.24765 0-0.46355 0.10795-0.60642 0.20002l0.10478 0.18098c0.12065-0.08255 0.2794-0.1651 0.46038-0.1651 0.25082 0 0.3175 0.1905 0.3175 0.38735-0.65722 0.07303-0.94932 0.2413-0.94932 0.57785zm0.25718-0.01905c0-0.19685 0.17462-0.32385 0.69215-0.38735v0.42862c-0.14922 0.13335-0.27305 0.20638-0.42228 0.20638-0.1524 0-0.26988-0.07303-0.26988-0.24765z"/>
      <path d="m84.601 73.247c0 0.3048 0.11112 0.51435 0.44132 0.51435 0.09525 0 0.20002-0.02858 0.28575-0.05715l-0.0508-0.19685c-0.0508 0.01905-0.12065 0.04127-0.17462 0.04127-0.1778 0-0.23812-0.10795-0.23812-0.29845v-0.85725h0.41592v-0.21272h-0.41592v-0.4318h-0.21908l-0.03175 0.4318-0.2413 0.01588v0.19685h0.2286z"/>
      <path d="m85.763 71.863c0.1016 0 0.18098-0.06985 0.18098-0.16828 0-0.1016-0.07937-0.16828-0.18098-0.16828-0.1016 0-0.18098 0.06668-0.18098 0.16828 0 0.09842 0.07937 0.16828 0.18098 0.16828zm-0.13335 1.8606h0.26035v-1.543h-0.26035z"/>
      <path d="m86.297 72.955c0 0.51118 0.33655 0.80645 0.71438 0.80645s0.71438-0.29528 0.71438-0.80645c0-0.51752-0.33655-0.8128-0.71438-0.8128s-0.71438 0.29528-0.71438 0.8128zm0.26988 0c0-0.3556 0.18098-0.5969 0.4445-0.5969 0.2667 0 0.4445 0.2413 0.4445 0.5969 0 0.35242-0.1778 0.59055-0.4445 0.59055-0.26352 0-0.4445-0.23812-0.4445-0.59055z"/>
      <path d="m88.135 73.724h0.26035v-1.1176c0.15558-0.15558 0.26352-0.23812 0.42228-0.23812 0.2032 0 0.2921 0.12382 0.2921 0.41275v0.94298h0.26035v-0.9779c0-0.3937-0.14605-0.60325-0.4699-0.60325-0.21272 0-0.37148 0.1143-0.51752 0.26035h-0.0095l-0.02223-0.22225h-0.2159z"/>
     </g>
     <rect x="61.937" y="83.542" width="33.073" height="9.3979" fill="#1d232d" stroke="#f6c9a0"/>
     <g fill="#e8eaec" aria-label="RGB merging">
      <path d="m70.109 87.729h0.34925c0.32385 0 0.50165 0.09842 0.50165 0.37148 0 0.26988-0.1778 0.40322-0.50165 0.40322h-0.34925zm1.1779 1.8701-0.53022-0.90805c0.28258-0.07303 0.46672-0.2667 0.46672-0.59055 0-0.4318-0.3048-0.5842-0.72708-0.5842h-0.65405v2.0828h0.2667v-0.87948h0.37465l0.50165 0.87948z"/>
      <path d="m71.551 88.557c0 0.67945 0.39052 1.0795 0.93662 1.0795 0.2794 0 0.51118-0.10795 0.6477-0.2413v-0.8763h-0.68262v0.21908h0.44132v0.54292c-0.08255 0.0762-0.2286 0.12382-0.37782 0.12382-0.4445 0-0.69215-0.3302-0.69215-0.85408 0-0.51752 0.26988-0.84138 0.69215-0.84138 0.20638 0 0.33655 0.08255 0.44132 0.19368l0.1524-0.16828c-0.12382-0.127-0.31432-0.25718-0.5969-0.25718-0.5588 0-0.96202 0.40958-0.96202 1.0795z"/>
      <path d="m73.612 89.599h0.66675c0.46355 0 0.7874-0.20002 0.7874-0.6096 0-0.28575-0.1778-0.45085-0.4826-0.49848v-0.0127c0.24765-0.0635 0.36512-0.24765 0.36512-0.45402 0-0.36512-0.29528-0.508-0.71755-0.508h-0.61912zm0.2667-1.1938v-0.67945h0.32068c0.32068 0 0.48895 0.09525 0.48895 0.32068 0 0.23178-0.14922 0.35878-0.50165 0.35878zm0 0.98425v-0.7874h0.36195c0.36512 0 0.56515 0.11748 0.56515 0.37465 0 0.28258-0.20955 0.41275-0.56515 0.41275z"/>
      <path d="m76.089 89.599h0.26035v-1.1176c0.14288-0.15875 0.27305-0.23812 0.38735-0.23812 0.19685 0 0.28892 0.12382 0.28892 0.41275v0.94298h0.26035v-1.1176c0.14288-0.15875 0.2667-0.23812 0.38735-0.23812 0.19368 0 0.28575 0.12382 0.28575 0.41275v0.94298h0.26035v-0.9779c0-0.3937-0.1524-0.60325-0.4699-0.60325-0.18732 0-0.34608 0.12065-0.508 0.29528-0.0635-0.18415-0.1905-0.29528-0.42545-0.29528-0.18415 0-0.34608 0.1143-0.47942 0.26035h-0.0095l-0.02222-0.22225h-0.2159z"/>
      <path d="m78.604 88.83c0 0.50482 0.32702 0.80645 0.73978 0.80645 0.20955 0 0.37465-0.07303 0.508-0.15875l-0.09207-0.17145c-0.1143 0.07303-0.23812 0.12065-0.38418 0.12065-0.29528 0-0.4953-0.20955-0.51435-0.54292h1.0414c0.0064-0.0381 0.0095-0.0889 0.0095-0.14288 0-0.44132-0.22225-0.7239-0.61595-0.7239-0.35242 0-0.69215 0.30798-0.69215 0.8128zm0.254-0.11748c0.03175-0.31115 0.2286-0.48895 0.4445-0.48895 0.2413 0 0.381 0.17462 0.381 0.48895z"/>
      <path d="m80.294 89.599h0.26035v-0.9906c0.10478-0.26035 0.26035-0.3556 0.39052-0.3556 0.0635 0 0.09842 0.0095 0.14922 0.0254l0.0508-0.2286c-0.0508-0.02222-0.09843-0.03175-0.1651-0.03175-0.17462 0-0.33338 0.12382-0.43815 0.3175h-0.0095l-0.02223-0.2794h-0.2159z"/>
      <path d="m81.478 89.859c0-0.0889 0.04762-0.18098 0.15875-0.26035 0.06668 0.01905 0.1397 0.0254 0.20002 0.0254h0.2667c0.20002 0 0.31115 0.04762 0.31115 0.1905 0 0.16192-0.19368 0.31432-0.48895 0.31432-0.2794 0-0.44768-0.10478-0.44768-0.26988zm-0.2286 0.03493c0 0.2667 0.26035 0.41592 0.63818 0.41592 0.47942 0 0.78105-0.24765 0.78105-0.5334 0-0.25718-0.18098-0.3683-0.53975-0.3683h-0.29845c-0.20955 0-0.27305-0.06985-0.27305-0.16828 0-0.08572 0.04445-0.13652 0.09843-0.18415 0.06985 0.03493 0.15558 0.05397 0.23178 0.05397 0.31432 0 0.56515-0.20638 0.56515-0.53658 0-0.13018-0.05397-0.24765-0.127-0.3175h0.3175v-0.20002h-0.53658c-0.05715-0.02222-0.13335-0.0381-0.21908-0.0381-0.31432 0-0.58102 0.21272-0.58102 0.54928 0 0.18415 0.09843 0.33338 0.20002 0.41592v0.0127c-0.07937 0.05397-0.16828 0.15558-0.16828 0.28575 0 0.12065 0.06033 0.2032 0.13652 0.25082v0.0127c-0.1397 0.09525-0.22542 0.21908-0.22542 0.34925zm0.63818-0.95885c-0.1778 0-0.32702-0.14288-0.32702-0.3683s0.14605-0.35878 0.32702-0.35878 0.32702 0.13335 0.32702 0.35878-0.14922 0.3683-0.32702 0.3683z"/>
      <path d="m83.1 87.738c0.1016 0 0.18098-0.06985 0.18098-0.16828 0-0.1016-0.07937-0.16828-0.18098-0.16828-0.1016 0-0.18098 0.06668-0.18098 0.16828 0 0.09842 0.07937 0.16828 0.18098 0.16828zm-0.13335 1.8606h0.26035v-1.543h-0.26035z"/>
      <path d="m83.748 89.599h0.26035v-1.1176c0.15558-0.15558 0.26352-0.23812 0.42228-0.23812 0.2032 0 0.2921 0.12382 0.2921 0.41275v0.94298h0.26035v-0.9779c0-0.3937-0.14605-0.60325-0.4699-0.60325-0.21272 0-0.37148 0.1143-0.51752 0.26035h-0.0095l-0.02223-0.22225h-0.2159z"/>
      <path d="m85.595 89.859c0-0.0889 0.04763-0.18098 0.15875-0.26035 0.06667 0.01905 0.1397 0.0254 0.20002 0.0254h0.2667c0.20002 0 0.31115 0.04762 0.31115 0.1905 0 0.16192-0.19368 0.31432-0.48895 0.31432-0.2794 0-0.44768-0.10478-0.44768-0.26988zm-0.2286 0.03493c0 0.2667 0.26035 0.41592 0.63818 0.41592 0.47942 0 0.78105-0.24765 0.78105-0.5334 0-0.25718-0.18098-0.3683-0.53975-0.3683h-0.29845c-0.20955 0-0.27305-0.06985-0.27305-0.16828 0-0.08572 0.04445-0.13652 0.09842-0.18415 0.06985 0.03493 0.15558 0.05397 0.23178 0.05397 0.31432 0 0.56515-0.20638 0.56515-0.53658 0-0.13018-0.05397-0.24765-0.127-0.3175h0.3175v-0.20002h-0.53658c-0.05715-0.02222-0.13335-0.0381-0.21908-0.0381-0.31432 0-0.58102 0.21272-0.58102 0.54928 0 0.18415 0.09843 0.33338 0.20002 0.41592v0.0127c-0.07937 0.05397-0.16828 0.15558-0.16828 0.28575 0 0.12065 0.06032 0.2032 0.13652 0.25082v0.0127c-0.1397 0.09525-0.22542 0.21908-0.22542 0.34925zm0.63818-0.95885c-0.1778 0-0.32702-0.14288-0.32702-0.3683s0.14605-0.35878 0.32702-0.35878 0.32702 0.13335 0.32702 0.35878-0.14922 0.3683-0.32702 0.3683z"/>
     </g>
     <rect x="61.937" y="99.417" width="33.073" height="9.3979" fill="#1d232d" stroke="#f6c9a0"/>
     <g fill="#e8eaec" aria-label="Alpha compaction">
      <path d="m66.679 104.63 0.1016-0.3175c0.07302-0.23178 0.1397-0.46038 0.20638-0.70168h0.0127c0.06668 0.2413 0.13335 0.4699 0.20638 0.70168l0.09842 0.3175zm0.89218 0.84772h0.2794l-0.70485-2.0828h-0.29845l-0.70485 2.0828h0.26988l0.20002-0.635h0.75882z"/>
      <path d="m68.108 105.16c0 0.22543 0.07937 0.34925 0.27622 0.34925 0.06985 0 0.1143-0.01 0.14922-0.0254l-0.03493-0.19685c-0.02858 6e-3 -0.04127 6e-3 -0.05715 6e-3 -0.0381 0-0.07303-0.0318-0.07303-0.1143v-1.9685h-0.26035z"/>
      <path d="m69.175 105.33c0.14288 0.11113 0.28575 0.1778 0.42862 0.1778 0.35242 0 0.66675-0.30797 0.66675-0.83185 0-0.47942-0.21272-0.7874-0.6096-0.7874-0.18098 0-0.35242 0.0984-0.49212 0.2159h-0.0095l-0.02222-0.1778h-0.2159v2.1939h0.26035v-0.5207zm0.0063-0.2032v-0.80962c0.1524-0.13653 0.28258-0.20955 0.41275-0.20955 0.2921 0 0.4064 0.2286 0.4064 0.56832 0 0.381-0.18732 0.61278-0.44132 0.61278-0.1016 0-0.23812-0.0444-0.37782-0.16193z"/>
      <path d="m70.682 105.47h0.26035v-1.1176c0.15558-0.15557 0.26352-0.23812 0.42228-0.23812 0.2032 0 0.2921 0.12382 0.2921 0.41275v0.94297h0.26035v-0.9779c0-0.3937-0.14605-0.60325-0.4699-0.60325-0.21272 0-0.3683 0.1143-0.51435 0.254l0.0095-0.3175v-0.61595h-0.26035z"/>
      <path d="m72.336 105.07c0 0.27623 0.19368 0.43815 0.45402 0.43815 0.1905 0 0.36195-0.1016 0.51118-0.22225h0.0064l0.02222 0.18415h0.2159v-0.94615c0-0.38417-0.15875-0.635-0.53658-0.635-0.24765 0-0.46355 0.10795-0.60642 0.20003l0.10478 0.18097c0.12065-0.0825 0.2794-0.1651 0.46038-0.1651 0.25082 0 0.3175 0.1905 0.3175 0.38735-0.65722 0.073-0.94932 0.2413-0.94932 0.57785zm0.25718-0.0191c0-0.19685 0.17462-0.32385 0.69215-0.38735v0.42863c-0.14922 0.13335-0.27305 0.20637-0.42228 0.20637-0.1524 0-0.26988-0.073-0.26988-0.24765z"/>
      <path d="m74.561 104.71c0 0.51118 0.31432 0.80645 0.7239 0.80645 0.18415 0 0.36195-0.0762 0.50165-0.20002l-0.11748-0.17145c-0.09207 0.0826-0.2159 0.15557-0.36195 0.15557-0.28258 0-0.47625-0.23812-0.47625-0.59055 0-0.3556 0.2032-0.5969 0.4826-0.5969 0.12382 0 0.21908 0.0571 0.31115 0.13653l0.13018-0.16828c-0.10478-0.0984-0.24765-0.18415-0.45085-0.18415-0.39688 0-0.74295 0.29528-0.74295 0.8128z"/>
      <path d="m75.938 104.71c0 0.51118 0.33655 0.80645 0.71438 0.80645s0.71438-0.29527 0.71438-0.80645c0-0.51752-0.33655-0.8128-0.71438-0.8128s-0.71438 0.29528-0.71438 0.8128zm0.26988 0c0-0.3556 0.18098-0.5969 0.4445-0.5969 0.2667 0 0.4445 0.2413 0.4445 0.5969 0 0.35243-0.1778 0.59055-0.4445 0.59055-0.26352 0-0.4445-0.23812-0.4445-0.59055z"/>
      <path d="m77.776 105.47h0.26035v-1.1176c0.14288-0.15875 0.27305-0.23812 0.38735-0.23812 0.19685 0 0.28892 0.12382 0.28892 0.41275v0.94297h0.26035v-1.1176c0.14288-0.15875 0.2667-0.23812 0.38735-0.23812 0.19368 0 0.28575 0.12382 0.28575 0.41275v0.94297h0.26035v-0.9779c0-0.3937-0.1524-0.60325-0.4699-0.60325-0.18732 0-0.34608 0.12065-0.508 0.29528-0.0635-0.18415-0.1905-0.29528-0.42545-0.29528-0.18415 0-0.34608 0.1143-0.47942 0.26035h-0.0095l-0.02223-0.22225h-0.2159z"/>
      <path d="m80.659 105.33c0.14288 0.11113 0.28575 0.1778 0.42862 0.1778 0.35242 0 0.66675-0.30797 0.66675-0.83185 0-0.47942-0.21272-0.7874-0.6096-0.7874-0.18098 0-0.35242 0.0984-0.49212 0.2159h-0.0095l-0.02223-0.1778h-0.2159v2.1939h0.26035v-0.5207zm0.0064-0.2032v-0.80962c0.1524-0.13653 0.28258-0.20955 0.41275-0.20955 0.2921 0 0.4064 0.2286 0.4064 0.56832 0 0.381-0.18732 0.61278-0.44132 0.61278-0.1016 0-0.23812-0.0444-0.37782-0.16193z"/>
      <path d="m82.047 105.07c0 0.27623 0.19368 0.43815 0.45402 0.43815 0.1905 0 0.36195-0.1016 0.51118-0.22225h0.0063l0.02223 0.18415h0.2159v-0.94615c0-0.38417-0.15875-0.635-0.53658-0.635-0.24765 0-0.46355 0.10795-0.60642 0.20003l0.10478 0.18097c0.12065-0.0825 0.2794-0.1651 0.46038-0.1651 0.25082 0 0.3175 0.1905 0.3175 0.38735-0.65722 0.073-0.94932 0.2413-0.94932 0.57785zm0.25718-0.0191c0-0.19685 0.17462-0.32385 0.69215-0.38735v0.42863c-0.14922 0.13335-0.27305 0.20637-0.42228 0.20637-0.1524 0-0.26988-0.073-0.26988-0.24765z"/>
      <path d="m83.633 104.71c0 0.51118 0.31432 0.80645 0.7239 0.80645 0.18415 0 0.36195-0.0762 0.50165-0.20002l-0.11748-0.17145c-0.09207 0.0826-0.2159 0.15557-0.36195 0.15557-0.28258 0-0.47625-0.23812-0.47625-0.59055 0-0.3556 0.2032-0.5969 0.4826-0.5969 0.12382 0 0.21908 0.0571 0.31115 0.13653l0.13018-0.16828c-0.10478-0.0984-0.24765-0.18415-0.45085-0.18415-0.39688 0-0.74295 0.29528-0.74295 0.8128z"/>
      <path d="m85.237 105c0 0.3048 0.11112 0.51435 0.44132 0.51435 0.09525 0 0.20002-0.0286 0.28575-0.0571l-0.0508-0.19685c-0.0508 0.019-0.12065 0.0413-0.17462 0.0413-0.1778 0-0.23812-0.10795-0.23812-0.29845v-0.85725h0.41592v-0.21273h-0.41592v-0.4318h-0.21908l-0.03175 0.4318-0.2413 0.0159v0.19685h0.2286z"/>
      <path d="m86.399 103.61c0.1016 0 0.18098-0.0699 0.18098-0.16827 0-0.1016-0.07937-0.16828-0.18098-0.16828-0.1016 0-0.18098 0.0667-0.18098 0.16828 0 0.0984 0.07937 0.16827 0.18098 0.16827zm-0.13335 1.8606h0.26035v-1.543h-0.26035z"/>
      <path d="m86.933 104.71c0 0.51118 0.33655 0.80645 0.71438 0.80645s0.71438-0.29527 0.71438-0.80645c0-0.51752-0.33655-0.8128-0.71438-0.8128s-0.71438 0.29528-0.71438 0.8128zm0.26988 0c0-0.3556 0.18098-0.5969 0.4445-0.5969 0.2667 0 0.4445 0.2413 0.4445 0.5969 0 0.35243-0.1778 0.59055-0.4445 0.59055-0.26352 0-0.4445-0.23812-0.4445-0.59055z"/>
      <path d="m88.771 105.47h0.26035v-1.1176c0.15558-0.15557 0.26352-0.23812 0.42228-0.23812 0.2032 0 0.2921 0.12382 0.2921 0.41275v0.94297h0.26035v-0.9779c0-0.3937-0.14605-0.60325-0.4699-0.60325-0.21272 0-0.37148 0.1143-0.51752 0.26035h-0.0095l-0.02223-0.22225h-0.2159z"/>
     </g>
     <rect x="35.478" y="115.29" width="33.073" height="9.3979" fill="#1d232d" stroke="#6f8ce9"/>
     <g fill="#e8eaec" aria-label="Sample depth scaling">
      <path d="m37.582 121.08c0.18098 0.18732 0.43498 0.30797 0.72708 0.30797 0.43815 0 0.7112-0.26352 0.7112-0.59372 0-0.30798-0.18732-0.45085-0.42862-0.55563l-0.29845-0.127c-0.16192-0.0699-0.34608-0.14605-0.34608-0.34607 0-0.18733 0.15558-0.3048 0.39052-0.3048 0.1905 0 0.34608 0.0762 0.47308 0.19685l0.1397-0.17145c-0.14605-0.1524-0.36512-0.25718-0.61278-0.25718-0.37782 0-0.65722 0.23495-0.65722 0.55245 0 0.3048 0.2286 0.45403 0.42228 0.53658l0.29845 0.13017c0.19685 0.0889 0.34925 0.15558 0.34925 0.3683 0 0.2032-0.16192 0.33973-0.43498 0.33973-0.21908 0-0.42545-0.10478-0.57468-0.26035z"/>
      <path d="m39.32 120.95c0 0.27623 0.19368 0.43815 0.45402 0.43815 0.1905 0 0.36195-0.1016 0.51118-0.22225h0.0064l0.02222 0.18415h0.2159v-0.94615c0-0.38417-0.15875-0.635-0.53658-0.635-0.24765 0-0.46355 0.10795-0.60642 0.20003l0.10478 0.18097c0.12065-0.0825 0.2794-0.1651 0.46038-0.1651 0.25082 0 0.3175 0.1905 0.3175 0.38735-0.65722 0.073-0.94932 0.2413-0.94932 0.57785zm0.25718-0.0191c0-0.19685 0.17462-0.32385 0.69215-0.38735v0.42863c-0.14922 0.13335-0.27305 0.20637-0.42228 0.20637-0.1524 0-0.26988-0.073-0.26988-0.24765z"/>
      <path d="m41.021 121.35h0.26035v-1.1176c0.14288-0.15875 0.27305-0.23812 0.38735-0.23812 0.19685 0 0.28892 0.12382 0.28892 0.41275v0.94297h0.26035v-1.1176c0.14288-0.15875 0.2667-0.23812 0.38735-0.23812 0.19368 0 0.28575 0.12382 0.28575 0.41275v0.94297h0.26035v-0.9779c0-0.3937-0.1524-0.60325-0.4699-0.60325-0.18732 0-0.34608 0.12065-0.508 0.29528-0.0635-0.18415-0.1905-0.29528-0.42545-0.29528-0.18415 0-0.34608 0.1143-0.47942 0.26035h-0.0095l-0.02222-0.22225h-0.2159z"/>
      <path d="m43.904 121.21c0.14288 0.11113 0.28575 0.1778 0.42862 0.1778 0.35242 0 0.66675-0.30797 0.66675-0.83185 0-0.47942-0.21272-0.7874-0.6096-0.7874-0.18098 0-0.35242 0.0984-0.49212 0.2159h-0.0095l-0.02222-0.1778h-0.2159v2.1939h0.26035v-0.5207zm0.0063-0.2032v-0.80962c0.1524-0.13653 0.28258-0.20955 0.41275-0.20955 0.2921 0 0.4064 0.2286 0.4064 0.56832 0 0.381-0.18732 0.61278-0.44132 0.61278-0.1016 0-0.23812-0.0444-0.37782-0.16193z"/>
      <path d="m45.411 121.04c0 0.22543 0.07937 0.34925 0.27622 0.34925 0.06985 0 0.1143-0.01 0.14922-0.0254l-0.03493-0.19685c-0.02858 6e-3 -0.04127 6e-3 -0.05715 6e-3 -0.0381 0-0.07303-0.0318-0.07303-0.1143v-1.9685h-0.26035z"/>
      <path d="m46.109 120.58c0 0.50483 0.32702 0.80645 0.73978 0.80645 0.20955 0 0.37465-0.073 0.508-0.15875l-0.09208-0.17145c-0.1143 0.073-0.23812 0.12065-0.38418 0.12065-0.29528 0-0.4953-0.20955-0.51435-0.54292h1.0414c0.0063-0.0381 0.0095-0.0889 0.0095-0.14288 0-0.44132-0.22225-0.7239-0.61595-0.7239-0.35242 0-0.69215 0.30798-0.69215 0.8128zm0.254-0.11747c0.03175-0.31115 0.2286-0.48895 0.4445-0.48895 0.2413 0 0.381 0.17462 0.381 0.48895z"/>
      <path d="m48.326 120.58c0 0.51435 0.25082 0.80645 0.63818 0.80645 0.18098 0 0.34608-0.1016 0.46672-0.21907h0.0095l0.02222 0.18097h0.2159v-2.2606h-0.26352v0.59373l0.0127 0.26352c-0.13652-0.11112-0.254-0.1778-0.4318-0.1778-0.35242 0-0.66992 0.31115-0.66992 0.8128zm0.26988-3e-3c0-0.35243 0.19685-0.59055 0.4445-0.59055 0.127 0 0.24448 0.0444 0.37465 0.16192v0.80645c-0.127 0.14288-0.25082 0.21273-0.3937 0.21273-0.26988 0-0.42545-0.22225-0.42545-0.59055z"/>
      <path d="m50.084 120.58c0 0.50483 0.32702 0.80645 0.73978 0.80645 0.20955 0 0.37465-0.073 0.508-0.15875l-0.09208-0.17145c-0.1143 0.073-0.23812 0.12065-0.38418 0.12065-0.29528 0-0.4953-0.20955-0.51435-0.54292h1.0414c0.0063-0.0381 0.0095-0.0889 0.0095-0.14288 0-0.44132-0.22225-0.7239-0.61595-0.7239-0.35242 0-0.69215 0.30798-0.69215 0.8128zm0.254-0.11747c0.03175-0.31115 0.2286-0.48895 0.4445-0.48895 0.2413 0 0.381 0.17462 0.381 0.48895z"/>
      <path d="m52.028 121.21c0.14288 0.11113 0.28575 0.1778 0.42862 0.1778 0.35242 0 0.66675-0.30797 0.66675-0.83185 0-0.47942-0.21272-0.7874-0.6096-0.7874-0.18098 0-0.35242 0.0984-0.49212 0.2159h-0.0095l-0.02222-0.1778h-0.2159v2.1939h0.26035v-0.5207zm0.0064-0.2032v-0.80962c0.1524-0.13653 0.28258-0.20955 0.41275-0.20955 0.2921 0 0.4064 0.2286 0.4064 0.56832 0 0.381-0.18732 0.61278-0.44132 0.61278-0.1016 0-0.23812-0.0444-0.37782-0.16193z"/>
      <path d="m53.579 120.87c0 0.3048 0.11112 0.51435 0.44132 0.51435 0.09525 0 0.20002-0.0286 0.28575-0.0571l-0.0508-0.19685c-0.0508 0.019-0.12065 0.0413-0.17462 0.0413-0.1778 0-0.23812-0.10795-0.23812-0.29845v-0.85725h0.41592v-0.21273h-0.41592v-0.4318h-0.21908l-0.03175 0.4318-0.2413 0.0159v0.19685h0.2286z"/>
      <path d="m54.607 121.35h0.26035v-1.1176c0.15558-0.15557 0.26352-0.23812 0.42228-0.23812 0.2032 0 0.2921 0.12382 0.2921 0.41275v0.94297h0.26035v-0.9779c0-0.3937-0.14605-0.60325-0.4699-0.60325-0.21272 0-0.3683 0.1143-0.51435 0.254l0.0095-0.3175v-0.61595h-0.26035z"/>
      <path d="m56.805 121.17c0.14605 0.12065 0.3556 0.21272 0.57468 0.21272 0.36512 0 0.56515-0.20955 0.56515-0.46037 0-0.2921-0.24765-0.38418-0.4699-0.46673-0.17462-0.0667-0.3429-0.12382-0.3429-0.2667 0-0.11747 0.0889-0.22225 0.28258-0.22225 0.13652 0 0.24765 0.0572 0.35242 0.13653l0.12382-0.1651c-0.11748-0.0952-0.28575-0.17463-0.47942-0.17463-0.33338 0-0.53022 0.1905-0.53022 0.43815 0 0.26035 0.2413 0.36513 0.46038 0.4445 0.16828 0.0635 0.35242 0.13335 0.35242 0.2921 0 0.13335-0.1016 0.2413-0.3048 0.2413-0.18415 0-0.32068-0.0762-0.45402-0.18415z"/>
      <path d="m58.195 120.58c0 0.51118 0.31432 0.80645 0.7239 0.80645 0.18415 0 0.36195-0.0762 0.50165-0.20002l-0.11748-0.17145c-0.09208 0.0826-0.2159 0.15557-0.36195 0.15557-0.28258 0-0.47625-0.23812-0.47625-0.59055 0-0.3556 0.2032-0.5969 0.4826-0.5969 0.12382 0 0.21908 0.0571 0.31115 0.13653l0.13018-0.16828c-0.10478-0.0984-0.24765-0.18415-0.45085-0.18415-0.39688 0-0.74295 0.29528-0.74295 0.8128z"/>
      <path d="m59.647 120.95c0 0.27623 0.19368 0.43815 0.45402 0.43815 0.1905 0 0.36195-0.1016 0.51118-0.22225h0.0063l0.02222 0.18415h0.2159v-0.94615c0-0.38417-0.15875-0.635-0.53658-0.635-0.24765 0-0.46355 0.10795-0.60642 0.20003l0.10478 0.18097c0.12065-0.0825 0.2794-0.1651 0.46038-0.1651 0.25082 0 0.3175 0.1905 0.3175 0.38735-0.65722 0.073-0.94932 0.2413-0.94932 0.57785zm0.25718-0.0191c0-0.19685 0.17462-0.32385 0.69215-0.38735v0.42863c-0.14922 0.13335-0.27305 0.20637-0.42228 0.20637-0.1524 0-0.26988-0.073-0.26988-0.24765z"/>
      <path d="m61.348 121.04c0 0.22543 0.07937 0.34925 0.27622 0.34925 0.06985 0 0.1143-0.01 0.14922-0.0254l-0.03493-0.19685c-0.02857 6e-3 -0.04127 6e-3 -0.05715 6e-3 -0.0381 0-0.07303-0.0318-0.07303-0.1143v-1.9685h-0.26035z"/>
      <path d="m62.294 119.49c0.1016 0 0.18098-0.0699 0.18098-0.16827 0-0.1016-0.07937-0.16828-0.18098-0.16828-0.1016 0-0.18098 0.0667-0.18098 0.16828 0 0.0984 0.07937 0.16827 0.18098 0.16827zm-0.13335 1.8606h0.26035v-1.543h-0.26035z"/>
      <path d="m62.942 121.35h0.26035v-1.1176c0.15558-0.15557 0.26352-0.23812 0.42228-0.23812 0.2032 0 0.2921 0.12382 0.2921 0.41275v0.94297h0.26035v-0.9779c0-0.3937-0.14605-0.60325-0.4699-0.60325-0.21272 0-0.37148 0.1143-0.51752 0.26035h-0.0095l-0.02223-0.22225h-0.2159z"/>
      <path d="m64.789 121.61c0-0.0889 0.04763-0.18097 0.15875-0.26035 0.06667 0.0191 0.1397 0.0254 0.20002 0.0254h0.2667c0.20002 0 0.31115 0.0476 0.31115 0.1905 0 0.16193-0.19368 0.31433-0.48895 0.31433-0.2794 0-0.44768-0.10478-0.44768-0.26988zm-0.2286 0.0349c0 0.2667 0.26035 0.41592 0.63818 0.41592 0.47942 0 0.78105-0.24765 0.78105-0.5334 0-0.25717-0.18098-0.3683-0.53975-0.3683h-0.29845c-0.20955 0-0.27305-0.0698-0.27305-0.16827 0-0.0857 0.04445-0.13653 0.09842-0.18415 0.06985 0.0349 0.15558 0.054 0.23178 0.054 0.31432 0 0.56515-0.20637 0.56515-0.53657 0-0.13018-0.05397-0.24765-0.127-0.3175h0.3175v-0.20003h-0.53658c-0.05715-0.0222-0.13335-0.0381-0.21908-0.0381-0.31432 0-0.58102 0.21273-0.58102 0.54928 0 0.18415 0.09843 0.33337 0.20002 0.41592v0.0127c-0.07937 0.054-0.16828 0.15558-0.16828 0.28575 0 0.12065 0.06032 0.2032 0.13652 0.25083v0.0127c-0.1397 0.0952-0.22542 0.21907-0.22542 0.34925zm0.63818-0.95885c-0.1778 0-0.32702-0.14288-0.32702-0.3683 0-0.22543 0.14605-0.35878 0.32702-0.35878s0.32702 0.13335 0.32702 0.35878c0 0.22542-0.14922 0.3683-0.32702 0.3683z"/>
     </g>
     <rect x="9.0199" y="67.667" width="33.073" height="41.148" fill="#1d232d" stroke="#e9e56f"/>
     <g fill="#e8eaec" aria-label="Indexing">
      <path d="m19.855 89.334h0.2667v-2.0828h-0.2667z"/>
      <path d="m20.658 89.334h0.26035v-1.1176c0.15558-0.15558 0.26352-0.23812 0.42228-0.23812 0.2032 0 0.2921 0.12382 0.2921 0.41275v0.94298h0.26035v-0.9779c0-0.3937-0.14605-0.60325-0.4699-0.60325-0.21272 0-0.37148 0.1143-0.51752 0.26035h-0.0095l-0.02225-0.22225h-0.2159z"/>
      <path d="m22.283 88.566c0 0.51435 0.25082 0.80645 0.63818 0.80645 0.18098 0 0.34608-0.1016 0.46672-0.21908h0.0095l0.02222 0.18098h0.2159v-2.2606h-0.26352v0.59372l0.0127 0.26352c-0.13652-0.11112-0.254-0.1778-0.4318-0.1778-0.35242 0-0.66992 0.31115-0.66992 0.8128zm0.26988-0.0032c0-0.35242 0.19685-0.59055 0.4445-0.59055 0.127 0 0.24448 0.04445 0.37465 0.16192v0.80645c-0.127 0.14288-0.25082 0.21272-0.3937 0.21272-0.26988 0-0.42545-0.22225-0.42545-0.59055z"/>
      <path d="m24.041 88.566c0 0.50482 0.32702 0.80645 0.73978 0.80645 0.20955 0 0.37465-0.07303 0.508-0.15875l-0.09207-0.17145c-0.1143 0.07303-0.23812 0.12065-0.38418 0.12065-0.29528 0-0.4953-0.20955-0.51435-0.54292h1.0414c0.0064-0.0381 0.0095-0.0889 0.0095-0.14288 0-0.44132-0.22225-0.7239-0.61595-0.7239-0.35242 0-0.69215 0.30798-0.69215 0.8128zm0.254-0.11748c0.03175-0.31115 0.2286-0.48895 0.4445-0.48895 0.2413 0 0.381 0.17462 0.381 0.48895z"/>
      <path d="m25.49 89.334h0.27305l0.20955-0.35878c0.0508-0.09525 0.1016-0.18732 0.15558-0.27622h0.0127c0.05715 0.0889 0.1143 0.18415 0.16828 0.27622l0.22542 0.35878h0.28258l-0.50165-0.77788 0.46672-0.76518h-0.27305l-0.18732 0.33972c-0.04763 0.08255-0.09525 0.17145-0.1397 0.25718h-0.0127c-0.05398-0.08572-0.10478-0.17462-0.1524-0.25718l-0.20638-0.33972h-0.28258l0.46672 0.7366z"/>
      <path d="m27.253 87.474c0.1016 0 0.18098-0.06985 0.18098-0.16828 0-0.1016-0.07937-0.16828-0.18098-0.16828-0.1016 0-0.18098 0.06667-0.18098 0.16828 0 0.09843 0.07938 0.16828 0.18098 0.16828zm-0.13335 1.8606h0.26035v-1.543h-0.26035z"/>
      <path d="m27.901 89.334h0.26035v-1.1176c0.15558-0.15558 0.26352-0.23812 0.42228-0.23812 0.2032 0 0.2921 0.12382 0.2921 0.41275v0.94298h0.26035v-0.9779c0-0.3937-0.14605-0.60325-0.4699-0.60325-0.21272 0-0.37148 0.1143-0.51752 0.26035h-0.0095l-0.02222-0.22225h-0.2159z"/>
      <path d="m29.749 89.594c0-0.0889 0.04763-0.18098 0.15875-0.26035 0.06668 0.01905 0.1397 0.0254 0.20002 0.0254h0.2667c0.20002 0 0.31115 0.04762 0.31115 0.1905 0 0.16192-0.19368 0.31432-0.48895 0.31432-0.2794 0-0.44768-0.10478-0.44768-0.26988zm-0.2286 0.03493c0 0.2667 0.26035 0.41592 0.63818 0.41592 0.47942 0 0.78105-0.24765 0.78105-0.5334 0-0.25718-0.18098-0.3683-0.53975-0.3683h-0.29845c-0.20955 0-0.27305-0.06985-0.27305-0.16828 0-0.08572 0.04445-0.13652 0.09842-0.18415 0.06985 0.03493 0.15558 0.05397 0.23178 0.05397 0.31432 0 0.56515-0.20638 0.56515-0.53658 0-0.13018-0.05398-0.24765-0.127-0.3175h0.3175v-0.20002h-0.53658c-0.05715-0.02223-0.13335-0.0381-0.21908-0.0381-0.31432 0-0.58102 0.21272-0.58102 0.54928 0 0.18415 0.09842 0.33338 0.20002 0.41592v0.0127c-0.07938 0.05398-0.16828 0.15558-0.16828 0.28575 0 0.12065 0.06032 0.2032 0.13652 0.25082v0.0127c-0.1397 0.09525-0.22542 0.21908-0.22542 0.34925zm0.63818-0.95885c-0.1778 0-0.32702-0.14288-0.32702-0.3683s0.14605-0.35878 0.32702-0.35878 0.32702 0.13335 0.32702 0.35878-0.14922 0.3683-0.32702 0.3683z"/>
     </g>
    </g>
   </g>
  </g>
  <path d="m68.551 56.428h9.7896v10.054" fill="none" stroke="#47d58a" stroke-dashoffset="1.2" stroke-linecap="square" stroke-width=".26458"/>
  <g transform="matrix(0 .0031774 .0032318 0 77.455 65.85)" fill="#47d58a" stroke-width="82.566">
   <g fill="#47d58a" stroke-width="82.566">
    <path d="m486.41 221.41-364.07-208.5c-52.938-30.318-95.852-5.44-95.852 55.563v415.65c0 61.004 42.914 85.882 95.852 55.563l364.07-208.49c52.938-30.317 52.938-79.473 0-109.79z" fill="#47d58a" stroke-width="82.566"/>
   </g>
  </g>
  <path d="m78.315 77.33v5.0271" fill="none" stroke="#47d58a" stroke-dashoffset="1.2" stroke-linecap="square" stroke-width=".26458"/>
  <g transform="matrix(0 .0031774 -.0032318 0 79.201 81.725)" fill="#47d58a" stroke-width="82.566">
   <g fill="#47d58a" stroke-width="82.566">
    <path d="m486.41 221.41-364.07-208.5c-52.938-30.318-95.852-5.44-95.852 55.563v415.65c0 61.004 42.914 85.882 95.852 55.563l364.07-208.49c52.938-30.317 52.938-79.473 0-109.79z" fill="#47d58a" stroke-width="82.566"/>
   </g>
  </g>
  <path d="m78.315 93.205v5.0271" fill="none" stroke="#47d58a" stroke-dashoffset="1.2" stroke-linecap="square" stroke-width=".26458"/>
  <g transform="matrix(0 .0031774 -.0032318 0 79.201 97.6)" fill="#47d58a" stroke-width="82.566">
   <g fill="#47d58a" stroke-width="82.566">
    <path d="m486.41 221.41-364.07-208.5c-52.938-30.318-95.852-5.44-95.852 55.563v415.65c0 61.004 42.914 85.882 95.852 55.563l364.07-208.49c52.938-30.317 52.938-79.473 0-109.79z" fill="#47d58a" stroke-width="82.566"/>
   </g>
  </g>
  <path d="m51.857 124.95v5.0271" fill="none" stroke="#47d58a" stroke-dashoffset="1.2" stroke-linecap="square" stroke-width=".26458"/>
  <g>
   <g transform="matrix(0 .0031774 -.0032318 0 52.742 129.35)" fill="#47d58a" stroke-width="82.566">
    <g fill="#47d58a" stroke-width="82.566">
     <path d="m486.41 221.41-364.07-208.5c-52.938-30.318-95.852-5.44-95.852 55.563v415.65c0 61.004 42.914 85.882 95.852 55.563l364.07-208.49c52.938-30.317 52.938-79.473 0-109.79z" fill="#47d58a" stroke-width="82.566"/>
    </g>
   </g>
   <path d="m51.882 61.19v53.181" fill="#2f3744" stroke="#47d58a" stroke-dashoffset="1.2" stroke-linecap="round" stroke-miterlimit="40" stroke-width=".26458"/>
   <g transform="matrix(0 .0031774 -.0032318 0 52.742 113.48)" fill="#47d58a" stroke-width="82.566">
    <g fill="#47d58a" stroke-width="82.566">
     <path d="m486.41 221.41-364.07-208.5c-52.938-30.318-95.852-5.44-95.852 55.563v415.65c0 61.004 42.914 85.882 95.852 55.563l364.07-208.49c52.938-30.317 52.938-79.473 0-109.79z" fill="#47d58a" stroke-width="82.566"/>
    </g>
   </g>
   <g stroke-linecap="round" stroke-width=".26458">
    <path d="m12.889 131.17-4.1341 3.7042v44.979l4.1341 3.7042h77.721l4.1341-3.7042v-44.979l-4.1341-3.7042z" fill="#1d232d" stroke="#009244"/>
    <rect x="11.401" y="138.84" width="33.073" height="9.3979" fill="#1d232d" stroke="#a0f1c6"/>
    <g fill="#e8eaec" aria-label="Pass extraction">
     <path d="m17.911 144.9h0.2667v-0.8255h0.37465c0.45402 0 0.76835-0.20637 0.76835-0.64452 0-0.4572-0.30798-0.61278-0.76835-0.61278h-0.64135zm0.2667-1.0414v-0.82867h0.33972c0.35878 0 0.53975 0.0984 0.53975 0.40005 0 0.29527-0.17462 0.42862-0.53975 0.42862z"/>
     <path d="m19.494 144.5c0 0.27623 0.19368 0.43815 0.45402 0.43815 0.1905 0 0.36195-0.1016 0.51118-0.22225h0.0064l0.02222 0.18415h0.2159v-0.94615c0-0.38417-0.15875-0.635-0.53658-0.635-0.24765 0-0.46355 0.10795-0.60642 0.20003l0.10478 0.18097c0.12065-0.0825 0.2794-0.1651 0.46038-0.1651 0.25082 0 0.3175 0.1905 0.3175 0.38735-0.65722 0.073-0.94932 0.2413-0.94932 0.57785zm0.25718-0.0191c0-0.19685 0.17462-0.32385 0.69215-0.38735v0.42863c-0.14922 0.13335-0.27305 0.20637-0.42228 0.20637-0.1524 0-0.26988-0.073-0.26988-0.24765z"/>
     <path d="m21.023 144.72c0.14605 0.12065 0.3556 0.21272 0.57468 0.21272 0.36512 0 0.56515-0.20955 0.56515-0.46037 0-0.2921-0.24765-0.38418-0.4699-0.46673-0.17462-0.0667-0.3429-0.12382-0.3429-0.2667 0-0.11747 0.0889-0.22225 0.28258-0.22225 0.13652 0 0.24765 0.0572 0.35242 0.13653l0.12382-0.1651c-0.11748-0.0952-0.28575-0.17463-0.47942-0.17463-0.33338 0-0.53022 0.1905-0.53022 0.43815 0 0.26035 0.2413 0.36513 0.46038 0.4445 0.16828 0.0635 0.35242 0.13335 0.35242 0.2921 0 0.13335-0.1016 0.2413-0.3048 0.2413-0.18415 0-0.32068-0.0762-0.45402-0.18415z"/>
     <path d="m22.356 144.72c0.14605 0.12065 0.3556 0.21272 0.57468 0.21272 0.36512 0 0.56515-0.20955 0.56515-0.46037 0-0.2921-0.24765-0.38418-0.4699-0.46673-0.17462-0.0667-0.3429-0.12382-0.3429-0.2667 0-0.11747 0.0889-0.22225 0.28258-0.22225 0.13652 0 0.24765 0.0572 0.35242 0.13653l0.12382-0.1651c-0.11748-0.0952-0.28575-0.17463-0.47942-0.17463-0.33338 0-0.53022 0.1905-0.53022 0.43815 0 0.26035 0.2413 0.36513 0.46038 0.4445 0.16828 0.0635 0.35242 0.13335 0.35242 0.2921 0 0.13335-0.1016 0.2413-0.3048 0.2413-0.18415 0-0.32068-0.0762-0.45402-0.18415z"/>
     <path d="m24.385 144.13c0 0.50483 0.32702 0.80645 0.73978 0.80645 0.20955 0 0.37465-0.073 0.508-0.15875l-0.09207-0.17145c-0.1143 0.073-0.23812 0.12065-0.38418 0.12065-0.29528 0-0.4953-0.20955-0.51435-0.54292h1.0414c0.0063-0.0381 0.0095-0.0889 0.0095-0.14288 0-0.44132-0.22225-0.7239-0.61595-0.7239-0.35242 0-0.69215 0.30798-0.69215 0.8128zm0.254-0.11747c0.03175-0.31115 0.2286-0.48895 0.4445-0.48895 0.2413 0 0.381 0.17462 0.381 0.48895z"/>
     <path d="m25.834 144.9h0.27305l0.20955-0.35877c0.0508-0.0953 0.1016-0.18733 0.15558-0.27623h0.0127c0.05715 0.0889 0.1143 0.18415 0.16828 0.27623l0.22542 0.35877h0.28258l-0.50165-0.77787 0.46672-0.76518h-0.27305l-0.18732 0.33973c-0.04763 0.0825-0.09525 0.17145-0.1397 0.25717h-0.0127c-0.05397-0.0857-0.10478-0.17462-0.1524-0.25717l-0.20638-0.33973h-0.28258l0.46672 0.7366z"/>
     <path d="m27.508 144.42c0 0.3048 0.11112 0.51435 0.44132 0.51435 0.09525 0 0.20002-0.0286 0.28575-0.0571l-0.0508-0.19685c-0.0508 0.019-0.12065 0.0413-0.17462 0.0413-0.1778 0-0.23812-0.10795-0.23812-0.29845v-0.85725h0.41592v-0.21273h-0.41592v-0.4318h-0.21908l-0.03175 0.4318-0.2413 0.0159v0.19685h0.2286z"/>
     <path d="m28.537 144.9h0.26035v-0.9906c0.10478-0.26035 0.26035-0.3556 0.39052-0.3556 0.0635 0 0.09842 0.01 0.14922 0.0254l0.0508-0.2286c-0.0508-0.0222-0.09842-0.0318-0.1651-0.0318-0.17462 0-0.33338 0.12383-0.43815 0.3175h-0.0095l-0.02223-0.2794h-0.2159z"/>
     <path d="m29.484 144.5c0 0.27623 0.19368 0.43815 0.45402 0.43815 0.1905 0 0.36195-0.1016 0.51118-0.22225h0.0064l0.02222 0.18415h0.2159v-0.94615c0-0.38417-0.15875-0.635-0.53658-0.635-0.24765 0-0.46355 0.10795-0.60642 0.20003l0.10478 0.18097c0.12065-0.0825 0.2794-0.1651 0.46038-0.1651 0.25082 0 0.3175 0.1905 0.3175 0.38735-0.65722 0.073-0.94932 0.2413-0.94932 0.57785zm0.25718-0.0191c0-0.19685 0.17462-0.32385 0.69215-0.38735v0.42863c-0.14922 0.13335-0.27305 0.20637-0.42228 0.20637-0.1524 0-0.26988-0.073-0.26988-0.24765z"/>
     <path d="m31.07 144.13c0 0.51118 0.31432 0.80645 0.7239 0.80645 0.18415 0 0.36195-0.0762 0.50165-0.20002l-0.11748-0.17145c-0.09207 0.0825-0.2159 0.15557-0.36195 0.15557-0.28258 0-0.47625-0.23812-0.47625-0.59055 0-0.3556 0.2032-0.5969 0.4826-0.5969 0.12382 0 0.21908 0.0572 0.31115 0.13653l0.13018-0.16828c-0.10478-0.0984-0.24765-0.18415-0.45085-0.18415-0.39688 0-0.74295 0.29528-0.74295 0.8128z"/>
     <path d="m32.674 144.42c0 0.3048 0.11112 0.51435 0.44132 0.51435 0.09525 0 0.20002-0.0286 0.28575-0.0571l-0.0508-0.19685c-0.0508 0.019-0.12065 0.0413-0.17462 0.0413-0.1778 0-0.23812-0.10795-0.23812-0.29845v-0.85725h0.41592v-0.21273h-0.41592v-0.4318h-0.21908l-0.03175 0.4318-0.2413 0.0159v0.19685h0.2286z"/>
     <path d="m33.836 143.04c0.1016 0 0.18098-0.0699 0.18098-0.16827 0-0.1016-0.07937-0.16828-0.18098-0.16828-0.1016 0-0.18098 0.0667-0.18098 0.16828 0 0.0984 0.07937 0.16827 0.18098 0.16827zm-0.13335 1.8606h0.26035v-1.543h-0.26035z"/>
     <path d="m34.369 144.13c0 0.51118 0.33655 0.80645 0.71438 0.80645s0.71438-0.29527 0.71438-0.80645c0-0.51752-0.33655-0.8128-0.71438-0.8128s-0.71438 0.29528-0.71438 0.8128zm0.26988 0c0-0.3556 0.18098-0.5969 0.4445-0.5969 0.2667 0 0.4445 0.2413 0.4445 0.5969 0 0.35243-0.1778 0.59055-0.4445 0.59055-0.26352 0-0.4445-0.23812-0.4445-0.59055z"/>
     <path d="m36.208 144.9h0.26035v-1.1176c0.15558-0.15557 0.26352-0.23812 0.42228-0.23812 0.2032 0 0.2921 0.12382 0.2921 0.41275v0.94297h0.26035v-0.9779c0-0.3937-0.14605-0.60325-0.4699-0.60325-0.21272 0-0.37148 0.1143-0.51752 0.26035h-0.0095l-0.02222-0.22225h-0.2159z"/>
    </g>
    <g fill="#47d58a" aria-label="PNG IMAGE">
     <path d="m13.846 135.27h0.54822v-0.81862h0.33338c0.51118 0 0.94456-0.25188 0.94456-0.81862 0-0.58526-0.41857-0.77787-0.94456-0.77787h-0.88159zm0.54822-1.252v-0.72972h0.30004c0.28892 0 0.4445 0.0926 0.4445 0.34448 0 0.25189-0.14446 0.38524-0.4445 0.38524z"/>
     <path d="m16.089 135.27h0.52229v-0.85566c0-0.28522-0.04445-0.60748-0.07038-0.87418h0.01482l0.23707 0.52599 0.62971 1.2038h0.55933v-2.4151h-0.51858v0.85196c0 0.28522 0.04445 0.626 0.07038 0.88159h-0.01482l-0.24077-0.5334-0.62971-1.2002h-0.55933z"/>
     <path d="m18.434 134.08c0 0.81122 0.51858 1.2372 1.1705 1.2372 0.33708 0 0.63712-0.14075 0.81121-0.29262v-1.1112h-0.8853v0.4445h0.40005v0.41486c-0.05927 0.0482-0.15928 0.0741-0.25559 0.0741-0.45561 0-0.68157-0.28893-0.68157-0.78529 0-0.48524 0.2667-0.77787 0.63712-0.77787 0.20743 0 0.32226 0.0704 0.4445 0.1815l0.30004-0.33708c-0.16298-0.16298-0.41116-0.31485-0.75194-0.31485-0.65564 0-1.189 0.46672-1.189 1.2668z"/>
     <path d="m21.681 135.27h0.54822v-2.4151h-0.54822z"/>
     <path d="m22.796 135.27h0.50377v-0.88529c0-0.23707-0.04445-0.58896-0.07038-0.82233h0.01482l0.19262 0.55933 0.37042 0.93716h0.21855l0.37412-0.93716 0.19632-0.55933h0.01482c-0.02593 0.23337-0.07038 0.58526-0.07038 0.82233v0.88529h0.51118v-2.4151h-0.57785l-0.39264 1.0853-0.14446 0.42227h-0.01482l-0.14446-0.42227-0.40375-1.0853h-0.57785z"/>
     <path d="m26.125 134.27 0.05927-0.22225c0.06668-0.24077 0.13335-0.52229 0.18891-0.77788h0.01482c0.06668 0.25189 0.12964 0.53711 0.19632 0.77788l0.05927 0.22225zm0.77788 1.0001h0.57785l-0.75935-2.4151h-0.65193l-0.75935 2.4151h0.55562l0.14817-0.57414h0.74083z"/>
     <path d="m27.579 134.08c0 0.81122 0.51858 1.2372 1.1705 1.2372 0.33708 0 0.63712-0.14075 0.81121-0.29262v-1.1112h-0.8853v0.4445h0.40005v0.41486c-0.05927 0.0482-0.15928 0.0741-0.25559 0.0741-0.45561 0-0.68157-0.28893-0.68157-0.78529 0-0.48524 0.2667-0.77787 0.63712-0.77787 0.20743 0 0.32226 0.0704 0.4445 0.1815l0.30004-0.33708c-0.16298-0.16298-0.41116-0.31485-0.75195-0.31485-0.65564 0-1.189 0.46672-1.189 1.2668z"/>
     <path d="m30.052 135.27h1.552v-0.45931h-1.0038v-0.55563h0.82232v-0.45561h-0.82232v-0.48525h0.96679v-0.45931h-1.515z"/>
    </g>
    <rect x="59.026" y="138.84" width="33.073" height="9.3979" fill="#1d232d" stroke="#a0f1c6"/>
    <g fill="#e8eaec" aria-label="Scanline serialization">
     <path d="m61.297 144.63c0.18098 0.18732 0.43498 0.30797 0.72708 0.30797 0.43815 0 0.7112-0.26352 0.7112-0.59372 0-0.30798-0.18732-0.45085-0.42862-0.55563l-0.29845-0.127c-0.16192-0.0699-0.34608-0.14605-0.34608-0.34607 0-0.18733 0.15558-0.3048 0.39052-0.3048 0.1905 0 0.34608 0.0762 0.47308 0.19685l0.1397-0.17145c-0.14605-0.1524-0.36512-0.25718-0.61278-0.25718-0.37782 0-0.65722 0.23495-0.65722 0.55245 0 0.3048 0.2286 0.45403 0.42228 0.53658l0.29845 0.13017c0.19685 0.0889 0.34925 0.15558 0.34925 0.3683 0 0.2032-0.16192 0.33973-0.43498 0.33973-0.21908 0-0.42545-0.10478-0.57468-0.26035z"/>
     <path d="m62.997 144.13c0 0.51118 0.31432 0.80645 0.7239 0.80645 0.18415 0 0.36195-0.0762 0.50165-0.20002l-0.11748-0.17145c-0.09207 0.0825-0.2159 0.15557-0.36195 0.15557-0.28258 0-0.47625-0.23812-0.47625-0.59055 0-0.3556 0.2032-0.5969 0.4826-0.5969 0.12382 0 0.21908 0.0572 0.31115 0.13653l0.13018-0.16828c-0.10478-0.0984-0.24765-0.18415-0.45085-0.18415-0.39688 0-0.74295 0.29528-0.74295 0.8128z"/>
     <path d="m64.449 144.5c0 0.27623 0.19368 0.43815 0.45402 0.43815 0.1905 0 0.36195-0.1016 0.51118-0.22225h0.0063l0.02223 0.18415h0.2159v-0.94615c0-0.38417-0.15875-0.635-0.53658-0.635-0.24765 0-0.46355 0.10795-0.60642 0.20003l0.10478 0.18097c0.12065-0.0825 0.2794-0.1651 0.46038-0.1651 0.25082 0 0.3175 0.1905 0.3175 0.38735-0.65722 0.073-0.94932 0.2413-0.94932 0.57785zm0.25718-0.0191c0-0.19685 0.17462-0.32385 0.69215-0.38735v0.42863c-0.14922 0.13335-0.27305 0.20637-0.42228 0.20637-0.1524 0-0.26988-0.073-0.26988-0.24765z"/>
     <path d="m66.15 144.9h0.26035v-1.1176c0.15558-0.15557 0.26352-0.23812 0.42228-0.23812 0.2032 0 0.2921 0.12382 0.2921 0.41275v0.94297h0.26035v-0.9779c0-0.3937-0.14605-0.60325-0.4699-0.60325-0.21272 0-0.37148 0.1143-0.51752 0.26035h-0.0095l-0.02223-0.22225h-0.2159z"/>
     <path d="m67.886 144.59c0 0.22543 0.07937 0.34925 0.27622 0.34925 0.06985 0 0.1143-0.01 0.14922-0.0254l-0.03493-0.19685c-0.02858 6e-3 -0.04127 6e-3 -0.05715 6e-3 -0.0381 0-0.07303-0.0318-0.07303-0.1143v-1.9685h-0.26035z"/>
     <path d="m68.832 143.04c0.1016 0 0.18098-0.0699 0.18098-0.16827 0-0.1016-0.07937-0.16828-0.18098-0.16828-0.1016 0-0.18098 0.0667-0.18098 0.16828 0 0.0984 0.07938 0.16827 0.18098 0.16827zm-0.13335 1.8606h0.26035v-1.543h-0.26035z"/>
     <path d="m69.48 144.9h0.26035v-1.1176c0.15558-0.15557 0.26352-0.23812 0.42228-0.23812 0.2032 0 0.2921 0.12382 0.2921 0.41275v0.94297h0.26035v-0.9779c0-0.3937-0.14605-0.60325-0.4699-0.60325-0.21272 0-0.37148 0.1143-0.51752 0.26035h-0.0095l-0.02222-0.22225h-0.2159z"/>
     <path d="m71.102 144.13c0 0.50483 0.32702 0.80645 0.73978 0.80645 0.20955 0 0.37465-0.073 0.508-0.15875l-0.09208-0.17145c-0.1143 0.073-0.23812 0.12065-0.38418 0.12065-0.29528 0-0.4953-0.20955-0.51435-0.54292h1.0414c0.0063-0.0381 0.0095-0.0889 0.0095-0.14288 0-0.44132-0.22225-0.7239-0.61595-0.7239-0.35242 0-0.69215 0.30798-0.69215 0.8128zm0.254-0.11747c0.03175-0.31115 0.2286-0.48895 0.4445-0.48895 0.2413 0 0.381 0.17462 0.381 0.48895z"/>
     <path d="m73.259 144.72c0.14605 0.12065 0.3556 0.21272 0.57468 0.21272 0.36512 0 0.56515-0.20955 0.56515-0.46037 0-0.2921-0.24765-0.38418-0.4699-0.46673-0.17462-0.0667-0.3429-0.12382-0.3429-0.2667 0-0.11747 0.0889-0.22225 0.28258-0.22225 0.13652 0 0.24765 0.0572 0.35242 0.13653l0.12382-0.1651c-0.11748-0.0952-0.28575-0.17463-0.47942-0.17463-0.33338 0-0.53022 0.1905-0.53022 0.43815 0 0.26035 0.2413 0.36513 0.46038 0.4445 0.16828 0.0635 0.35242 0.13335 0.35242 0.2921 0 0.13335-0.1016 0.2413-0.3048 0.2413-0.18415 0-0.32068-0.0762-0.45402-0.18415z"/>
     <path d="m74.649 144.13c0 0.50483 0.32702 0.80645 0.73978 0.80645 0.20955 0 0.37465-0.073 0.508-0.15875l-0.09207-0.17145c-0.1143 0.073-0.23812 0.12065-0.38418 0.12065-0.29528 0-0.4953-0.20955-0.51435-0.54292h1.0414c0.0063-0.0381 0.0095-0.0889 0.0095-0.14288 0-0.44132-0.22225-0.7239-0.61595-0.7239-0.35242 0-0.69215 0.30798-0.69215 0.8128zm0.254-0.11747c0.03175-0.31115 0.2286-0.48895 0.4445-0.48895 0.2413 0 0.381 0.17462 0.381 0.48895z"/>
     <path d="m76.338 144.9h0.26035v-0.9906c0.10478-0.26035 0.26035-0.3556 0.39052-0.3556 0.0635 0 0.09842 0.01 0.14922 0.0254l0.0508-0.2286c-0.0508-0.0222-0.09843-0.0318-0.1651-0.0318-0.17462 0-0.33338 0.12383-0.43815 0.3175h-0.0095l-0.02223-0.2794h-0.2159z"/>
     <path d="m77.576 143.04c0.1016 0 0.18098-0.0699 0.18098-0.16827 0-0.1016-0.07937-0.16828-0.18098-0.16828-0.1016 0-0.18098 0.0667-0.18098 0.16828 0 0.0984 0.07937 0.16827 0.18098 0.16827zm-0.13335 1.8606h0.26035v-1.543h-0.26035z"/>
     <path d="m78.147 144.5c0 0.27623 0.19368 0.43815 0.45402 0.43815 0.1905 0 0.36195-0.1016 0.51118-0.22225h0.0064l0.02222 0.18415h0.2159v-0.94615c0-0.38417-0.15875-0.635-0.53658-0.635-0.24765 0-0.46355 0.10795-0.60642 0.20003l0.10478 0.18097c0.12065-0.0825 0.2794-0.1651 0.46038-0.1651 0.25082 0 0.3175 0.1905 0.3175 0.38735-0.65722 0.073-0.94932 0.2413-0.94932 0.57785zm0.25718-0.0191c0-0.19685 0.17462-0.32385 0.69215-0.38735v0.42863c-0.14922 0.13335-0.27305 0.20637-0.42228 0.20637-0.1524 0-0.26988-0.073-0.26988-0.24765z"/>
     <path d="m79.848 144.59c0 0.22543 0.07937 0.34925 0.27622 0.34925 0.06985 0 0.1143-0.01 0.14922-0.0254l-0.03493-0.19685c-0.02857 6e-3 -0.04127 6e-3 -0.05715 6e-3 -0.0381 0-0.07303-0.0318-0.07303-0.1143v-1.9685h-0.26035z"/>
     <path d="m80.794 143.04c0.1016 0 0.18098-0.0699 0.18098-0.16827 0-0.1016-0.07937-0.16828-0.18098-0.16828-0.1016 0-0.18098 0.0667-0.18098 0.16828 0 0.0984 0.07937 0.16827 0.18098 0.16827zm-0.13335 1.8606h0.26035v-1.543h-0.26035z"/>
     <path d="m81.28 144.9h1.1684v-0.21272h-0.8382l0.8128-1.1906v-0.1397h-1.0541v0.21273h0.7239l-0.8128 1.1906z"/>
     <path d="m82.643 144.5c0 0.27623 0.19368 0.43815 0.45402 0.43815 0.1905 0 0.36195-0.1016 0.51118-0.22225h0.0063l0.02223 0.18415h0.2159v-0.94615c0-0.38417-0.15875-0.635-0.53658-0.635-0.24765 0-0.46355 0.10795-0.60642 0.20003l0.10478 0.18097c0.12065-0.0825 0.2794-0.1651 0.46038-0.1651 0.25082 0 0.3175 0.1905 0.3175 0.38735-0.65722 0.073-0.94932 0.2413-0.94932 0.57785zm0.25718-0.0191c0-0.19685 0.17462-0.32385 0.69215-0.38735v0.42863c-0.14922 0.13335-0.27305 0.20637-0.42228 0.20637-0.1524 0-0.26988-0.073-0.26988-0.24765z"/>
     <path d="m84.389 144.42c0 0.3048 0.11112 0.51435 0.44132 0.51435 0.09525 0 0.20002-0.0286 0.28575-0.0571l-0.0508-0.19685c-0.0508 0.019-0.12065 0.0413-0.17462 0.0413-0.1778 0-0.23812-0.10795-0.23812-0.29845v-0.85725h0.41592v-0.21273h-0.41592v-0.4318h-0.21908l-0.03175 0.4318-0.2413 0.0159v0.19685h0.2286z"/>
     <path d="m85.55 143.04c0.1016 0 0.18098-0.0699 0.18098-0.16827 0-0.1016-0.07937-0.16828-0.18098-0.16828-0.1016 0-0.18098 0.0667-0.18098 0.16828 0 0.0984 0.07937 0.16827 0.18098 0.16827zm-0.13335 1.8606h0.26035v-1.543h-0.26035z"/>
     <path d="m86.084 144.13c0 0.51118 0.33655 0.80645 0.71438 0.80645s0.71437-0.29527 0.71437-0.80645c0-0.51752-0.33655-0.8128-0.71437-0.8128s-0.71438 0.29528-0.71438 0.8128zm0.26988 0c0-0.3556 0.18098-0.5969 0.4445-0.5969 0.2667 0 0.4445 0.2413 0.4445 0.5969 0 0.35243-0.1778 0.59055-0.4445 0.59055-0.26352 0-0.4445-0.23812-0.4445-0.59055z"/>
     <path d="m87.922 144.9h0.26035v-1.1176c0.15558-0.15557 0.26352-0.23812 0.42228-0.23812 0.2032 0 0.2921 0.12382 0.2921 0.41275v0.94297h0.26035v-0.9779c0-0.3937-0.14605-0.60325-0.4699-0.60325-0.21272 0-0.37148 0.1143-0.51752 0.26035h-0.0095l-0.02222-0.22225h-0.2159z"/>
    </g>
    <rect x="11.401" y="154.72" width="33.073" height="9.3979" fill="#1d232d" stroke="#a0f1c6"/>
    <g fill="#e8eaec" aria-label="Compression">
     <path d="m19.081 159.73c0 0.67945 0.39052 1.0795 0.9144 1.0795 0.26352 0 0.4699-0.11112 0.63182-0.30162l-0.14922-0.16193c-0.13335 0.14923-0.2794 0.23178-0.47625 0.23178-0.39688 0-0.6477-0.3302-0.6477-0.85408 0-0.51752 0.26352-0.84137 0.6604-0.84137 0.17145 0 0.3048 0.0762 0.41592 0.19367l0.14922-0.16827c-0.12382-0.13653-0.32068-0.25718-0.56832-0.25718-0.5334 0-0.93028 0.40958-0.93028 1.0795z"/>
     <path d="m20.869 160c0 0.51118 0.33655 0.80645 0.71438 0.80645s0.71438-0.29527 0.71438-0.80645c0-0.51752-0.33655-0.8128-0.71438-0.8128s-0.71438 0.29528-0.71438 0.8128zm0.26988 0c0-0.3556 0.18098-0.5969 0.4445-0.5969 0.2667 0 0.4445 0.2413 0.4445 0.5969 0 0.35243-0.1778 0.59055-0.4445 0.59055-0.26352 0-0.4445-0.23812-0.4445-0.59055z"/>
     <path d="m22.708 160.77h0.26035v-1.1176c0.14288-0.15875 0.27305-0.23812 0.38735-0.23812 0.19685 0 0.28892 0.12382 0.28892 0.41275v0.94297h0.26035v-1.1176c0.14288-0.15875 0.2667-0.23812 0.38735-0.23812 0.19368 0 0.28575 0.12382 0.28575 0.41275v0.94297h0.26035v-0.9779c0-0.3937-0.1524-0.60325-0.4699-0.60325-0.18732 0-0.34608 0.12065-0.508 0.29528-0.0635-0.18415-0.1905-0.29528-0.42545-0.29528-0.18415 0-0.34608 0.1143-0.47942 0.26035h-0.0095l-0.02222-0.22225h-0.2159z"/>
     <path d="m25.591 160.63c0.14288 0.11113 0.28575 0.1778 0.42862 0.1778 0.35242 0 0.66675-0.30797 0.66675-0.83185 0-0.47942-0.21272-0.7874-0.6096-0.7874-0.18098 0-0.35242 0.0984-0.49212 0.2159h-0.0095l-0.02222-0.1778h-0.2159v2.1939h0.26035v-0.5207zm0.0063-0.2032v-0.80962c0.1524-0.13653 0.28258-0.20955 0.41275-0.20955 0.2921 0 0.4064 0.2286 0.4064 0.56832 0 0.381-0.18732 0.61278-0.44132 0.61278-0.1016 0-0.23812-0.0445-0.37782-0.16193z"/>
     <path d="m27.098 160.77h0.26035v-0.9906c0.10478-0.26035 0.26035-0.3556 0.39052-0.3556 0.0635 0 0.09842 0.01 0.14922 0.0254l0.0508-0.2286c-0.0508-0.0222-0.09842-0.0318-0.1651-0.0318-0.17462 0-0.33338 0.12383-0.43815 0.3175h-0.0095l-0.02222-0.2794h-0.2159z"/>
     <path d="m28.057 160c0 0.50483 0.32702 0.80645 0.73978 0.80645 0.20955 0 0.37465-0.073 0.508-0.15875l-0.09208-0.17145c-0.1143 0.073-0.23812 0.12065-0.38418 0.12065-0.29528 0-0.4953-0.20955-0.51435-0.54292h1.0414c0.0064-0.0381 0.0095-0.0889 0.0095-0.14288 0-0.44132-0.22225-0.7239-0.61595-0.7239-0.35242 0-0.69215 0.30798-0.69215 0.8128zm0.254-0.11747c0.03175-0.31115 0.2286-0.48895 0.4445-0.48895 0.2413 0 0.381 0.17462 0.381 0.48895z"/>
     <path d="m29.574 160.6c0.14605 0.12065 0.3556 0.21272 0.57468 0.21272 0.36512 0 0.56515-0.20955 0.56515-0.46037 0-0.2921-0.24765-0.38418-0.4699-0.46673-0.17462-0.0667-0.3429-0.12382-0.3429-0.2667 0-0.11747 0.0889-0.22225 0.28258-0.22225 0.13652 0 0.24765 0.0572 0.35242 0.13653l0.12382-0.1651c-0.11748-0.0952-0.28575-0.17463-0.47942-0.17463-0.33338 0-0.53022 0.1905-0.53022 0.43815 0 0.26035 0.2413 0.36513 0.46038 0.4445 0.16828 0.0635 0.35242 0.13335 0.35242 0.2921 0 0.13335-0.1016 0.2413-0.3048 0.2413-0.18415 0-0.32068-0.0762-0.45402-0.18415z"/>
     <path d="m30.908 160.6c0.14605 0.12065 0.3556 0.21272 0.57468 0.21272 0.36512 0 0.56515-0.20955 0.56515-0.46037 0-0.2921-0.24765-0.38418-0.4699-0.46673-0.17462-0.0667-0.3429-0.12382-0.3429-0.2667 0-0.11747 0.0889-0.22225 0.28258-0.22225 0.13652 0 0.24765 0.0572 0.35242 0.13653l0.12382-0.1651c-0.11748-0.0952-0.28575-0.17463-0.47942-0.17463-0.33338 0-0.53022 0.1905-0.53022 0.43815 0 0.26035 0.2413 0.36513 0.46038 0.4445 0.16828 0.0635 0.35242 0.13335 0.35242 0.2921 0 0.13335-0.1016 0.2413-0.3048 0.2413-0.18415 0-0.32068-0.0762-0.45402-0.18415z"/>
     <path d="m32.546 158.91c0.1016 0 0.18098-0.0699 0.18098-0.16827 0-0.1016-0.07937-0.16828-0.18098-0.16828-0.1016 0-0.18098 0.0667-0.18098 0.16828 0 0.0984 0.07937 0.16827 0.18098 0.16827zm-0.13335 1.8606h0.26035v-1.543h-0.26035z"/>
     <path d="m33.079 160c0 0.51118 0.33655 0.80645 0.71438 0.80645s0.71438-0.29527 0.71438-0.80645c0-0.51752-0.33655-0.8128-0.71438-0.8128s-0.71438 0.29528-0.71438 0.8128zm0.26988 0c0-0.3556 0.18098-0.5969 0.4445-0.5969 0.2667 0 0.4445 0.2413 0.4445 0.5969 0 0.35243-0.1778 0.59055-0.4445 0.59055-0.26352 0-0.4445-0.23812-0.4445-0.59055z"/>
     <path d="m34.918 160.77h0.26035v-1.1176c0.15558-0.15557 0.26352-0.23812 0.42228-0.23812 0.2032 0 0.2921 0.12382 0.2921 0.41275v0.94297h0.26035v-0.9779c0-0.3937-0.14605-0.60325-0.4699-0.60325-0.21272 0-0.37148 0.1143-0.51752 0.26035h-0.0095l-0.02222-0.22225h-0.2159z"/>
    </g>
    <rect x="59.026" y="154.72" width="33.073" height="9.3979" fill="#1d232d" stroke="#a0f1c6"/>
    <g fill="#e8eaec" aria-label="Filtering">
     <path d="m70.069 160.77h0.2667v-0.93345h0.79375v-0.22225h-0.79375v-0.70485h0.93662v-0.22225h-1.2033z"/>
     <path d="m71.737 158.91c0.1016 0 0.18098-0.0699 0.18098-0.16827 0-0.1016-0.07937-0.16828-0.18098-0.16828-0.1016 0-0.18098 0.0667-0.18098 0.16828 0 0.0984 0.07937 0.16827 0.18098 0.16827zm-0.13335 1.8606h0.26035v-1.543h-0.26035z"/>
     <path d="m72.385 160.46c0 0.22543 0.07937 0.34925 0.27622 0.34925 0.06985 0 0.1143-0.01 0.14922-0.0254l-0.03493-0.19685c-0.02857 6e-3 -0.04127 6e-3 -0.05715 6e-3 -0.0381 0-0.07303-0.0318-0.07303-0.1143v-1.9685h-0.26035z"/>
     <path d="m73.242 160.3c0 0.3048 0.11112 0.51435 0.44132 0.51435 0.09525 0 0.20002-0.0286 0.28575-0.0571l-0.0508-0.19685c-0.0508 0.019-0.12065 0.0413-0.17462 0.0413-0.1778 0-0.23812-0.10795-0.23812-0.29845v-0.85725h0.41592v-0.21273h-0.41592v-0.4318h-0.21908l-0.03175 0.4318-0.2413 0.0159v0.19685h0.2286z"/>
     <path d="m74.125 160c0 0.50483 0.32702 0.80645 0.73978 0.80645 0.20955 0 0.37465-0.073 0.508-0.15875l-0.09208-0.17145c-0.1143 0.073-0.23812 0.12065-0.38418 0.12065-0.29528 0-0.4953-0.20955-0.51435-0.54292h1.0414c0.0063-0.0381 0.0095-0.0889 0.0095-0.14288 0-0.44132-0.22225-0.7239-0.61595-0.7239-0.35242 0-0.69215 0.30798-0.69215 0.8128zm0.254-0.11747c0.03175-0.31115 0.2286-0.48895 0.4445-0.48895 0.2413 0 0.381 0.17462 0.381 0.48895z"/>
     <path d="m75.814 160.77h0.26035v-0.9906c0.10478-0.26035 0.26035-0.3556 0.39052-0.3556 0.0635 0 0.09843 0.01 0.14922 0.0254l0.0508-0.2286c-0.0508-0.0222-0.09842-0.0318-0.1651-0.0318-0.17462 0-0.33338 0.12383-0.43815 0.3175h-0.0095l-0.02222-0.2794h-0.2159z"/>
     <path d="m77.052 158.91c0.1016 0 0.18098-0.0699 0.18098-0.16827 0-0.1016-0.07937-0.16828-0.18098-0.16828-0.1016 0-0.18098 0.0667-0.18098 0.16828 0 0.0984 0.07937 0.16827 0.18098 0.16827zm-0.13335 1.8606h0.26035v-1.543h-0.26035z"/>
     <path d="m77.7 160.77h0.26035v-1.1176c0.15558-0.15557 0.26352-0.23812 0.42228-0.23812 0.2032 0 0.2921 0.12382 0.2921 0.41275v0.94297h0.26035v-0.9779c0-0.3937-0.14605-0.60325-0.4699-0.60325-0.21272 0-0.37148 0.1143-0.51752 0.26035h-0.0095l-0.02223-0.22225h-0.2159z"/>
     <path d="m79.547 161.03c0-0.0889 0.04763-0.18097 0.15875-0.26035 0.06667 0.019 0.1397 0.0254 0.20002 0.0254h0.2667c0.20002 0 0.31115 0.0476 0.31115 0.1905 0 0.16193-0.19368 0.31433-0.48895 0.31433-0.2794 0-0.44768-0.10478-0.44768-0.26988zm-0.2286 0.0349c0 0.2667 0.26035 0.41592 0.63818 0.41592 0.47942 0 0.78105-0.24765 0.78105-0.5334 0-0.25717-0.18098-0.3683-0.53975-0.3683h-0.29845c-0.20955 0-0.27305-0.0699-0.27305-0.16827 0-0.0857 0.04445-0.13653 0.09842-0.18415 0.06985 0.0349 0.15558 0.054 0.23178 0.054 0.31432 0 0.56515-0.20637 0.56515-0.53657 0-0.13018-0.05397-0.24765-0.127-0.3175h0.3175v-0.20003h-0.53658c-0.05715-0.0222-0.13335-0.0381-0.21908-0.0381-0.31432 0-0.58102 0.21273-0.58102 0.54928 0 0.18415 0.09843 0.33337 0.20002 0.41592v0.0127c-0.07937 0.054-0.16828 0.15558-0.16828 0.28575 0 0.12065 0.06032 0.2032 0.13652 0.25083v0.0127c-0.1397 0.0952-0.22542 0.21907-0.22542 0.34925zm0.63818-0.95885c-0.1778 0-0.32702-0.14288-0.32702-0.3683 0-0.22543 0.14605-0.35878 0.32702-0.35878s0.32702 0.13335 0.32702 0.35878c0 0.22542-0.14922 0.3683-0.32702 0.3683z"/>
    </g>
    <rect x="11.401" y="170.59" width="33.073" height="9.3979" fill="#1d232d" stroke="#a0f1c6"/>
    <g fill="#e8eaec" aria-label="Chunking">
     <path d="m21.474 175.61c0 0.67945 0.39052 1.0795 0.9144 1.0795 0.26352 0 0.4699-0.11112 0.63182-0.30162l-0.14922-0.16193c-0.13335 0.14923-0.2794 0.23178-0.47625 0.23178-0.39688 0-0.6477-0.3302-0.6477-0.85408 0-0.51752 0.26352-0.84137 0.6604-0.84137 0.17145 0 0.3048 0.0762 0.41592 0.19367l0.14922-0.16827c-0.12382-0.13653-0.32068-0.25718-0.56832-0.25718-0.5334 0-0.93028 0.40958-0.93028 1.0795z"/>
     <path d="m23.377 176.65h0.26035v-1.1176c0.15558-0.15557 0.26352-0.23812 0.42228-0.23812 0.2032 0 0.2921 0.12382 0.2921 0.41275v0.94297h0.26035v-0.9779c0-0.3937-0.14605-0.60325-0.4699-0.60325-0.21272 0-0.3683 0.1143-0.51435 0.254l0.0095-0.3175v-0.61595h-0.26035z"/>
     <path d="m25.085 176.08c0 0.3937 0.14605 0.60325 0.47308 0.60325 0.21272 0 0.36512-0.11112 0.508-0.2794h0.0095l0.02222 0.2413h0.2159v-1.543h-0.26035v1.0954c-0.14605 0.18097-0.25718 0.26035-0.41592 0.26035-0.2032 0-0.28892-0.12383-0.28892-0.41275v-0.94298h-0.26352z"/>
     <path d="m26.838 176.65h0.26035v-1.1176c0.15558-0.15557 0.26352-0.23812 0.42228-0.23812 0.2032 0 0.2921 0.12382 0.2921 0.41275v0.94297h0.26035v-0.9779c0-0.3937-0.14605-0.60325-0.4699-0.60325-0.21272 0-0.37148 0.1143-0.51752 0.26035h-0.0095l-0.02222-0.22225h-0.2159z"/>
     <path d="m28.574 176.65h0.25718v-0.4064l0.28892-0.33655 0.45085 0.74295h0.28575l-0.58738-0.92392 0.51752-0.61913h-0.28892l-0.65722 0.8128h-0.0095v-1.5304h-0.25718z"/>
     <path d="m30.276 174.79c0.1016 0 0.18098-0.0699 0.18098-0.16827 0-0.1016-0.07937-0.16828-0.18098-0.16828-0.1016 0-0.18098 0.0667-0.18098 0.16828 0 0.0984 0.07938 0.16827 0.18098 0.16827zm-0.13335 1.8606h0.26035v-1.543h-0.26035z"/>
     <path d="m30.924 176.65h0.26035v-1.1176c0.15558-0.15557 0.26352-0.23812 0.42228-0.23812 0.2032 0 0.2921 0.12382 0.2921 0.41275v0.94297h0.26035v-0.9779c0-0.3937-0.14605-0.60325-0.4699-0.60325-0.21272 0-0.37148 0.1143-0.51752 0.26035h-0.0095l-0.02222-0.22225h-0.2159z"/>
     <path d="m32.772 176.91c0-0.0889 0.04763-0.18097 0.15875-0.26035 0.06667 0.019 0.1397 0.0254 0.20002 0.0254h0.2667c0.20002 0 0.31115 0.0476 0.31115 0.1905 0 0.16193-0.19368 0.31433-0.48895 0.31433-0.2794 0-0.44768-0.10478-0.44768-0.26988zm-0.2286 0.0349c0 0.2667 0.26035 0.41592 0.63818 0.41592 0.47942 0 0.78105-0.24765 0.78105-0.5334 0-0.25717-0.18098-0.3683-0.53975-0.3683h-0.29845c-0.20955 0-0.27305-0.0699-0.27305-0.16827 0-0.0857 0.04445-0.13653 0.09843-0.18415 0.06985 0.0349 0.15558 0.054 0.23178 0.054 0.31432 0 0.56515-0.20637 0.56515-0.53657 0-0.13018-0.05398-0.24765-0.127-0.3175h0.3175v-0.20003h-0.53658c-0.05715-0.0222-0.13335-0.0381-0.21908-0.0381-0.31432 0-0.58102 0.21273-0.58102 0.54928 0 0.18415 0.09842 0.33337 0.20002 0.41592v0.0127c-0.07937 0.054-0.16828 0.15558-0.16828 0.28575 0 0.12065 0.06032 0.2032 0.13652 0.25083v0.0127c-0.1397 0.0952-0.22542 0.21907-0.22542 0.34925zm0.63818-0.95885c-0.1778 0-0.32702-0.14288-0.32702-0.3683 0-0.22543 0.14605-0.35878 0.32702-0.35878s0.32702 0.13335 0.32702 0.35878c0 0.22542-0.14922 0.3683-0.32702 0.3683z"/>
    </g>
    <rect x="59.026" y="170.59" width="33.073" height="9.3979" fill="#1d232d" stroke="#a0f1c6"/>
    <g fill="#e8eaec" aria-label="Datastream construction">
     <path d="m59.253 176.65h0.5334c0.62865 0 0.97155-0.38735 0.97155-1.0509 0-0.6604-0.3429-1.0319-0.98425-1.0319h-0.5207zm0.2667-0.2159v-1.651h0.23495c0.48895 0 0.73025 0.2921 0.73025 0.81598 0 0.52705-0.2413 0.83502-0.73025 0.83502z"/>
     <path d="m61.101 176.25c0 0.27623 0.19368 0.43815 0.45402 0.43815 0.1905 0 0.36195-0.1016 0.51118-0.22225h0.0064l0.02222 0.18415h0.2159v-0.94615c0-0.38417-0.15875-0.635-0.53658-0.635-0.24765 0-0.46355 0.10795-0.60642 0.20003l0.10478 0.18097c0.12065-0.0825 0.2794-0.1651 0.46038-0.1651 0.25082 0 0.3175 0.1905 0.3175 0.38735-0.65722 0.073-0.94932 0.2413-0.94932 0.57785zm0.25718-0.0191c0-0.19685 0.17462-0.32385 0.69215-0.38735v0.42863c-0.14922 0.13335-0.27305 0.20637-0.42228 0.20637-0.1524 0-0.26988-0.073-0.26988-0.24765z"/>
     <path d="m62.847 176.17c0 0.3048 0.11112 0.51435 0.44132 0.51435 0.09525 0 0.20002-0.0286 0.28575-0.0571l-0.0508-0.19685c-0.0508 0.019-0.12065 0.0413-0.17462 0.0413-0.1778 0-0.23812-0.10795-0.23812-0.29845v-0.85725h0.41592v-0.21273h-0.41592v-0.4318h-0.21908l-0.03175 0.4318-0.2413 0.0159v0.19685h0.2286z"/>
     <path d="m63.743 176.25c0 0.27623 0.19368 0.43815 0.45402 0.43815 0.1905 0 0.36195-0.1016 0.51118-0.22225h0.0063l0.02222 0.18415h0.2159v-0.94615c0-0.38417-0.15875-0.635-0.53658-0.635-0.24765 0-0.46355 0.10795-0.60642 0.20003l0.10478 0.18097c0.12065-0.0825 0.2794-0.1651 0.46038-0.1651 0.25082 0 0.3175 0.1905 0.3175 0.38735-0.65722 0.073-0.94932 0.2413-0.94932 0.57785zm0.25718-0.0191c0-0.19685 0.17462-0.32385 0.69215-0.38735v0.42863c-0.14922 0.13335-0.27305 0.20637-0.42228 0.20637-0.1524 0-0.26988-0.073-0.26988-0.24765z"/>
     <path d="m65.273 176.47c0.14605 0.12065 0.3556 0.21272 0.57468 0.21272 0.36512 0 0.56515-0.20955 0.56515-0.46037 0-0.2921-0.24765-0.38418-0.4699-0.46673-0.17462-0.0667-0.3429-0.12382-0.3429-0.2667 0-0.11747 0.0889-0.22225 0.28258-0.22225 0.13652 0 0.24765 0.0572 0.35242 0.13653l0.12382-0.1651c-0.11748-0.0952-0.28575-0.17463-0.47942-0.17463-0.33338 0-0.53022 0.1905-0.53022 0.43815 0 0.26035 0.2413 0.36513 0.46038 0.4445 0.16828 0.0635 0.35242 0.13335 0.35242 0.2921 0 0.13335-0.1016 0.2413-0.3048 0.2413-0.18415 0-0.32068-0.0762-0.45402-0.18415z"/>
     <path d="m66.822 176.17c0 0.3048 0.11112 0.51435 0.44132 0.51435 0.09525 0 0.20002-0.0286 0.28575-0.0571l-0.0508-0.19685c-0.0508 0.019-0.12065 0.0413-0.17462 0.0413-0.1778 0-0.23812-0.10795-0.23812-0.29845v-0.85725h0.41592v-0.21273h-0.41592v-0.4318h-0.21908l-0.03175 0.4318-0.2413 0.0159v0.19685h0.2286z"/>
     <path d="m67.85 176.65h0.26035v-0.9906c0.10478-0.26035 0.26035-0.3556 0.39052-0.3556 0.0635 0 0.09843 0.01 0.14922 0.0254l0.0508-0.2286c-0.0508-0.0222-0.09843-0.0318-0.1651-0.0318-0.17462 0-0.33338 0.12383-0.43815 0.3175h-0.0095l-0.02223-0.2794h-0.2159z"/>
     <path d="m68.809 175.88c0 0.50483 0.32702 0.80645 0.73978 0.80645 0.20955 0 0.37465-0.073 0.508-0.15875l-0.09208-0.17145c-0.1143 0.073-0.23812 0.12065-0.38418 0.12065-0.29528 0-0.4953-0.20955-0.51435-0.54292h1.0414c0.0063-0.0381 0.0095-0.0889 0.0095-0.14288 0-0.44132-0.22225-0.7239-0.61595-0.7239-0.35242 0-0.69215 0.30798-0.69215 0.8128zm0.254-0.11747c0.03175-0.31115 0.2286-0.48895 0.4445-0.48895 0.2413 0 0.381 0.17462 0.381 0.48895z"/>
     <path d="m70.378 176.25c0 0.27623 0.19368 0.43815 0.45402 0.43815 0.1905 0 0.36195-0.1016 0.51118-0.22225h0.0063l0.02223 0.18415h0.2159v-0.94615c0-0.38417-0.15875-0.635-0.53658-0.635-0.24765 0-0.46355 0.10795-0.60642 0.20003l0.10478 0.18097c0.12065-0.0825 0.2794-0.1651 0.46038-0.1651 0.25082 0 0.3175 0.1905 0.3175 0.38735-0.65722 0.073-0.94932 0.2413-0.94932 0.57785zm0.25718-0.0191c0-0.19685 0.17462-0.32385 0.69215-0.38735v0.42863c-0.14922 0.13335-0.27305 0.20637-0.42228 0.20637-0.1524 0-0.26988-0.073-0.26988-0.24765z"/>
     <path d="m72.079 176.65h0.26035v-1.1176c0.14288-0.15875 0.27305-0.23812 0.38735-0.23812 0.19685 0 0.28892 0.12382 0.28892 0.41275v0.94297h0.26035v-1.1176c0.14288-0.15875 0.2667-0.23812 0.38735-0.23812 0.19368 0 0.28575 0.12382 0.28575 0.41275v0.94297h0.26035v-0.9779c0-0.3937-0.1524-0.60325-0.4699-0.60325-0.18732 0-0.34608 0.12065-0.508 0.29528-0.0635-0.18415-0.1905-0.29528-0.42545-0.29528-0.18415 0-0.34608 0.1143-0.47942 0.26035h-0.0095l-0.02223-0.22225h-0.2159z"/>
     <path d="m75.233 175.88c0 0.51118 0.31432 0.80645 0.7239 0.80645 0.18415 0 0.36195-0.0762 0.50165-0.20002l-0.11748-0.17145c-0.09208 0.0825-0.2159 0.15557-0.36195 0.15557-0.28258 0-0.47625-0.23812-0.47625-0.59055 0-0.3556 0.2032-0.5969 0.4826-0.5969 0.12382 0 0.21908 0.0572 0.31115 0.13653l0.13018-0.16828c-0.10478-0.0984-0.24765-0.18415-0.45085-0.18415-0.39688 0-0.74295 0.29528-0.74295 0.8128z"/>
     <path d="m76.61 175.88c0 0.51118 0.33655 0.80645 0.71438 0.80645s0.71438-0.29527 0.71438-0.80645c0-0.51752-0.33655-0.8128-0.71438-0.8128s-0.71438 0.29528-0.71438 0.8128zm0.26988 0c0-0.3556 0.18098-0.5969 0.4445-0.5969 0.2667 0 0.4445 0.2413 0.4445 0.5969 0 0.35243-0.1778 0.59055-0.4445 0.59055-0.26352 0-0.4445-0.23812-0.4445-0.59055z"/>
     <path d="m78.448 176.65h0.26035v-1.1176c0.15558-0.15557 0.26352-0.23812 0.42228-0.23812 0.2032 0 0.2921 0.12382 0.2921 0.41275v0.94297h0.26035v-0.9779c0-0.3937-0.14605-0.60325-0.4699-0.60325-0.21272 0-0.37148 0.1143-0.51752 0.26035h-0.0095l-0.02222-0.22225h-0.2159z"/>
     <path d="m80.013 176.47c0.14605 0.12065 0.3556 0.21272 0.57468 0.21272 0.36512 0 0.56515-0.20955 0.56515-0.46037 0-0.2921-0.24765-0.38418-0.4699-0.46673-0.17462-0.0667-0.3429-0.12382-0.3429-0.2667 0-0.11747 0.0889-0.22225 0.28258-0.22225 0.13652 0 0.24765 0.0572 0.35242 0.13653l0.12382-0.1651c-0.11748-0.0952-0.28575-0.17463-0.47942-0.17463-0.33338 0-0.53022 0.1905-0.53022 0.43815 0 0.26035 0.2413 0.36513 0.46038 0.4445 0.16828 0.0635 0.35242 0.13335 0.35242 0.2921 0 0.13335-0.1016 0.2413-0.3048 0.2413-0.18415 0-0.32068-0.0762-0.45402-0.18415z"/>
     <path d="m81.562 176.17c0 0.3048 0.11112 0.51435 0.44132 0.51435 0.09525 0 0.20002-0.0286 0.28575-0.0571l-0.0508-0.19685c-0.0508 0.019-0.12065 0.0413-0.17462 0.0413-0.1778 0-0.23812-0.10795-0.23812-0.29845v-0.85725h0.41592v-0.21273h-0.41592v-0.4318h-0.21908l-0.03175 0.4318-0.2413 0.0159v0.19685h0.2286z"/>
     <path d="m82.59 176.65h0.26035v-0.9906c0.10478-0.26035 0.26035-0.3556 0.39052-0.3556 0.0635 0 0.09842 0.01 0.14922 0.0254l0.0508-0.2286c-0.0508-0.0222-0.09843-0.0318-0.1651-0.0318-0.17462 0-0.33338 0.12383-0.43815 0.3175h-0.0095l-0.02223-0.2794h-0.2159z"/>
     <path d="m83.672 176.08c0 0.3937 0.14605 0.60325 0.47308 0.60325 0.21272 0 0.36512-0.11112 0.508-0.2794h0.0095l0.02222 0.2413h0.2159v-1.543h-0.26035v1.0954c-0.14605 0.18097-0.25718 0.26035-0.41592 0.26035-0.2032 0-0.28892-0.12383-0.28892-0.41275v-0.94298h-0.26352z"/>
     <path d="m85.31 175.88c0 0.51118 0.31432 0.80645 0.7239 0.80645 0.18415 0 0.36195-0.0762 0.50165-0.20002l-0.11748-0.17145c-0.09207 0.0825-0.2159 0.15557-0.36195 0.15557-0.28258 0-0.47625-0.23812-0.47625-0.59055 0-0.3556 0.2032-0.5969 0.4826-0.5969 0.12382 0 0.21908 0.0572 0.31115 0.13653l0.13018-0.16828c-0.10478-0.0984-0.24765-0.18415-0.45085-0.18415-0.39688 0-0.74295 0.29528-0.74295 0.8128z"/>
     <path d="m86.914 176.17c0 0.3048 0.11112 0.51435 0.44132 0.51435 0.09525 0 0.20002-0.0286 0.28575-0.0571l-0.0508-0.19685c-0.0508 0.019-0.12065 0.0413-0.17462 0.0413-0.1778 0-0.23812-0.10795-0.23812-0.29845v-0.85725h0.41592v-0.21273h-0.41592v-0.4318h-0.21908l-0.03175 0.4318-0.2413 0.0159v0.19685h0.2286z"/>
     <path d="m88.075 174.79c0.1016 0 0.18098-0.0699 0.18098-0.16827 0-0.1016-0.07937-0.16828-0.18098-0.16828-0.1016 0-0.18098 0.0667-0.18098 0.16828 0 0.0984 0.07937 0.16827 0.18098 0.16827zm-0.13335 1.8606h0.26035v-1.543h-0.26035z"/>
     <path d="m88.609 175.88c0 0.51118 0.33655 0.80645 0.71438 0.80645s0.71438-0.29527 0.71438-0.80645c0-0.51752-0.33655-0.8128-0.71438-0.8128s-0.71438 0.29528-0.71438 0.8128zm0.26988 0c0-0.3556 0.18098-0.5969 0.4445-0.5969 0.2667 0 0.4445 0.2413 0.4445 0.5969 0 0.35243-0.1778 0.59055-0.4445 0.59055-0.26352 0-0.4445-0.23812-0.4445-0.59055z"/>
     <path d="m90.447 176.65h0.26035v-1.1176c0.15558-0.15557 0.26352-0.23812 0.42228-0.23812 0.2032 0 0.2921 0.12382 0.2921 0.41275v0.94297h0.26035v-0.9779c0-0.3937-0.14605-0.60325-0.4699-0.60325-0.21272 0-0.37148 0.1143-0.51752 0.26035h-0.0095l-0.02222-0.22225h-0.2159z"/>
    </g>
   </g>
  </g>
  <g fill="#2f3744" stroke="#47d58a" stroke-dashoffset="1.2" stroke-linecap="round" stroke-miterlimit="40" stroke-width=".26458">
   <path d="m61.937 74.155-10.054 5.8048"/>
   <path d="m51.882 79.976-9.3599 5.4039"/>
   <path d="m51.927 80.154 9.7447 5.6261"/>
   <path d="m61.757 90.398-9.8745 5.7011"/>
   <path d="m51.996 96.333 9.6761 5.5865"/>
   <path d="m61.747 106.28-9.8646 5.6953"/>
   <path d="m42.283 106.43 9.5995 5.5423"/>
  </g>
  <path d="m75.405 148.5v5.0271" fill="none" stroke="#47d58a" stroke-dashoffset="1.2" stroke-linecap="square" stroke-width=".26458"/>
  <g transform="matrix(0 .0031774 -.0032318 0 76.29 152.9)" fill="#47d58a" stroke-width="82.566">
   <g fill="#47d58a" stroke-width="82.566">
    <path d="m486.41 221.41-364.07-208.5c-52.938-30.318-95.852-5.44-95.852 55.563v415.65c0 61.004 42.914 85.882 95.852 55.563l364.07-208.49c52.938-30.317 52.938-79.473 0-109.79z" fill="#47d58a" stroke-width="82.566"/>
   </g>
  </g>
  <path d="m27.78 164.38v5.0271" fill="none" stroke="#47d58a" stroke-dashoffset="1.2" stroke-linecap="square" stroke-width=".26458"/>
  <g transform="matrix(0 .0031774 -.0032318 0 28.665 168.77)" fill="#47d58a" stroke-width="82.566">
   <g fill="#47d58a" stroke-width="82.566">
    <path d="m486.41 221.41-364.07-208.5c-52.938-30.318-95.852-5.44-95.852 55.563v415.65c0 61.004 42.914 85.882 95.852 55.563l364.07-208.49c52.938-30.317 52.938-79.473 0-109.79z" fill="#47d58a" stroke-width="82.566"/>
   </g>
  </g>
  <path d="m44.384 143.79h13.494" fill="none" stroke="#47d58a" stroke-dashoffset="1.2" stroke-linecap="square" stroke-width=".26458"/>
  <g transform="matrix(.0031774 0 0 .0032318 57.246 142.9)" fill="#47d58a" stroke-width="82.566">
   <g fill="#47d58a" stroke-width="82.566">
    <path d="m486.41 221.41-364.07-208.5c-52.938-30.318-95.852-5.44-95.852 55.563v415.65c0 61.004 42.914 85.882 95.852 55.563l364.07-208.49c52.938-30.317 52.938-79.473 0-109.79z" fill="#47d58a" stroke-width="82.566"/>
   </g>
  </g>
  <path d="m58.786 159.66h-13.494" fill="none" stroke="#47d58a" stroke-dashoffset="1.2" stroke-linecap="square" stroke-width=".26458"/>
  <g transform="matrix(-.0031774 0 0 .0032318 45.923 158.78)" fill="#47d58a" stroke-width="82.566">
   <g fill="#47d58a" stroke-width="82.566">
    <path d="m486.41 221.41-364.07-208.5c-52.938-30.318-95.852-5.44-95.852 55.563v415.65c0 61.004 42.914 85.882 95.852 55.563l364.07-208.49c52.938-30.317 52.938-79.473 0-109.79z" fill="#47d58a" stroke-width="82.566"/>
   </g>
  </g>
  <path d="m44.384 175.54h13.494" fill="none" stroke="#47d58a" stroke-dashoffset="1.2" stroke-linecap="square" stroke-width=".26458"/>
  <g fill="#47d58a" stroke-width="82.566">
   <g transform="matrix(.0031774 0 0 .0032318 57.246 174.65)">
    <g fill="#47d58a" stroke-width="82.566">
     <path d="m486.41 221.41-364.07-208.5c-52.938-30.318-95.852-5.44-95.852 55.563v415.65c0 61.004 42.914 85.882 95.852 55.563l364.07-208.49c52.938-30.317 52.938-79.473 0-109.79z" fill="#47d58a" stroke-width="82.566"/>
    </g>
   </g>
   <g transform="matrix(-.0026509 .0017518 -.0017818 -.0026963 53.832 79.764)">
    <g fill="#47d58a" stroke-width="82.566">
     <path d="m486.41 221.41-364.07-208.5c-52.938-30.318-95.852-5.44-95.852 55.563v415.65c0 61.004 42.914 85.882 95.852 55.563l364.07-208.49c52.938-30.317 52.938-79.473 0-109.79z" fill="#47d58a" stroke-width="82.566"/>
    </g>
   </g>
   <g transform="matrix(-.0026509 .0017518 -.0017818 -.0026963 53.832 95.903)">
    <g fill="#47d58a" stroke-width="82.566">
     <path d="m486.41 221.41-364.07-208.5c-52.938-30.318-95.852-5.44-95.852 55.563v415.65c0 61.004 42.914 85.882 95.852 55.563l364.07-208.49c52.938-30.317 52.938-79.473 0-109.79z" fill="#47d58a" stroke-width="82.566"/>
    </g>
   </g>
   <g transform="matrix(-.0026509 .0017518 -.0017818 -.0026963 53.832 111.78)">
    <g fill="#47d58a" stroke-width="82.566">
     <path d="m486.41 221.41-364.07-208.5c-52.938-30.318-95.852-5.44-95.852 55.563v415.65c0 61.004 42.914 85.882 95.852 55.563l364.07-208.49c52.938-30.317 52.938-79.473 0-109.79z" fill="#47d58a" stroke-width="82.566"/>
    </g>
   </g>
   <g transform="matrix(.0026509 .0017518 .0017818 -.0026963 59.98 85.783)">
    <g fill="#47d58a" stroke-width="82.566">
     <path d="m486.41 221.41-364.07-208.5c-52.938-30.318-95.852-5.44-95.852 55.563v415.65c0 61.004 42.914 85.882 95.852 55.563l364.07-208.49c52.938-30.317 52.938-79.473 0-109.79z" fill="#47d58a" stroke-width="82.566"/>
    </g>
   </g>
   <g transform="matrix(.0026509 .0017518 .0017818 -.0026963 59.98 101.92)">
    <g fill="#47d58a" stroke-width="82.566">
     <path d="m486.41 221.41-364.07-208.5c-52.938-30.318-95.852-5.44-95.852 55.563v415.65c0 61.004 42.914 85.882 95.852 55.563l364.07-208.49c52.938-30.317 52.938-79.473 0-109.79z" fill="#47d58a" stroke-width="82.566"/>
    </g>
   </g>
   <g transform="matrix(.0026509 .0017518 .0017818 -.0026963 49.926 111.71)">
    <g fill="#47d58a" stroke-width="82.566">
     <path d="m486.41 221.41-364.07-208.5c-52.938-30.318-95.852-5.44-95.852 55.563v415.65c0 61.004 42.914 85.882 95.852 55.563l364.07-208.49c52.938-30.317 52.938-79.473 0-109.79z" fill="#47d58a" stroke-width="82.566"/>
    </g>
   </g>
   <g transform="matrix(-.0026509 .0017518 -.0017818 -.0026963 44.133 85.453)">
    <g fill="#47d58a" stroke-width="82.566">
     <path d="m486.41 221.41-364.07-208.5c-52.938-30.318-95.852-5.44-95.852 55.563v415.65c0 61.004 42.914 85.882 95.852 55.563l364.07-208.49c52.938-30.317 52.938-79.473 0-109.79z" fill="#47d58a" stroke-width="82.566"/>
    </g>
   </g>
  </g>
 </g>
</svg>
