<svg width="227.81mm" height="94.192mm" version="1.1" viewBox="0 0 227.81 94.192" xmlns="http://www.w3.org/2000/svg">
 <g fill="none" stroke="#6f8ce9" stroke-dashoffset="1.2" stroke-linecap="square" stroke-miterlimit="40" stroke-width=".26458">
  <path d="m90.091 3.0427v-2.9104h2.9104" style="paint-order:normal"/>
  <path d="m120.52 3.0427v-2.9104h-2.9104" style="paint-order:normal"/>
  <path d="m90.091 11.774v2.9104h2.9104" style="paint-order:normal"/>
  <path d="m120.52 11.774v2.9104h-2.9104" style="paint-order:normal"/>
 </g>
 <rect x="90.62" y=".66146" width="29.369" height="13.494" fill="#1d232d"/>
 <g fill="#e8eaec" stroke-linecap="round" stroke-width=".26458" aria-label="World">
  <path d="m101.43 8.8635h0.36672l0.363-1.4631c0.0408-0.18891 0.0815-0.36301 0.12224-0.55192h0.0148c0.0333 0.18891 0.0741 0.36301 0.11483 0.55192l0.36671 1.4631h0.37412l0.50377-2.4299h-0.30004l-0.25559 1.3224c-0.0444 0.25929-0.0889 0.52229-0.13705 0.78528h-0.0148c-0.0593-0.263-0.11853-0.5297-0.17409-0.78528l-0.33708-1.3224h-0.28152l-0.33708 1.3224c-0.0593 0.25929-0.11853 0.52229-0.17039 0.78528h-0.0148c-0.0482-0.263-0.0963-0.52229-0.14446-0.78528l-0.25559-1.3224h-0.31856z"/>
  <path d="m103.9 7.9671c0 0.59637 0.39264 0.94086 0.83344 0.94086s0.83344-0.34449 0.83344-0.94086c0-0.60378-0.39264-0.94827-0.83344-0.94827s-0.83344 0.34449-0.83344 0.94827zm0.31486 0c0-0.41487 0.21113-0.69638 0.51858-0.69638 0.31115 0 0.51858 0.28152 0.51858 0.69638 0 0.41116-0.20743 0.68898-0.51858 0.68898-0.30745 0-0.51858-0.27781-0.51858-0.68898z"/>
  <path d="m106.05 8.8635h0.30374v-1.1557c0.12224-0.30374 0.30374-0.41487 0.45561-0.41487 0.0741 0 0.11483 0.011113 0.1741 0.029633l0.0593-0.2667c-0.0593-0.025929-0.11483-0.037042-0.19262-0.037042-0.20373 0-0.38894 0.14446-0.51118 0.37042h-0.0111l-0.0259-0.32597h-0.25188z"/>
  <path d="m107.34 8.5005c0 0.263 0.0926 0.40746 0.32226 0.40746 0.0815 0 0.13335-0.011113 0.17409-0.029633l-0.0407-0.22966c-0.0333 0.00741-0.0482 0.00741-0.0667 0.00741-0.0444 0-0.0852-0.037042-0.0852-0.13335v-2.2966h-0.30374z"/>
  <path d="m108.15 7.9671c0 0.60008 0.29262 0.94086 0.74453 0.94086 0.21114 0 0.40376-0.11853 0.54452-0.25559h0.0111l0.0259 0.21114h0.25188v-2.6374h-0.30745v0.69268l0.0148 0.30745c-0.15928-0.12965-0.29633-0.20743-0.50377-0.20743-0.41116 0-0.78157 0.36301-0.78157 0.94827zm0.31485-0.0037c0-0.41116 0.22966-0.68898 0.51858-0.68898 0.14817 0 0.28522 0.051858 0.43709 0.18891v0.94086c-0.14816 0.16669-0.29262 0.24818-0.45931 0.24818-0.31486 0-0.49636-0.25929-0.49636-0.68898z"/>
 </g>
 <g fill="none" stroke="#6f8ce9" stroke-dashoffset="1.2" stroke-linecap="square" stroke-miterlimit="40" stroke-width=".26458">
  <path d="m45.111 55.959v-2.9104h2.9104" style="paint-order:normal"/>
  <path d="m75.539 55.959v-2.9104h-2.9104" style="paint-order:normal"/>
  <path d="m45.111 64.691v2.9104h2.9104" style="paint-order:normal"/>
  <path d="m75.539 64.691v2.9104h-2.9104" style="paint-order:normal"/>
 </g>
 <g>
  <rect x="45.641" y="53.578" width="29.369" height="13.494" fill="#1d232d"/>
  <g fill="#e8eaec" stroke-linecap="round" stroke-width=".26458" aria-label="Leaves Emitter">
   <path d="m49.392 61.78h1.3705v-0.263h-1.0594v-2.1669h-0.31115z"/>
   <path d="m50.977 60.884c0 0.58896 0.38153 0.94086 0.86307 0.94086 0.24448 0 0.43709-0.0852 0.59267-0.18521l-0.10742-0.20002c-0.13335 0.0852-0.27781 0.14076-0.4482 0.14076-0.34449 0-0.57785-0.24448-0.60008-0.63341h1.215c0.0074-0.04445 0.01111-0.10372 0.01111-0.16669 0-0.51488-0.25929-0.84455-0.71861-0.84455-0.41116 0-0.80751 0.3593-0.80751 0.94827zm0.29633-0.13705c0.03704-0.36301 0.2667-0.57044 0.51858-0.57044 0.28152 0 0.4445 0.20373 0.4445 0.57044z"/>
   <path d="m52.808 61.313c0 0.32226 0.22595 0.51118 0.5297 0.51118 0.22225 0 0.42228-0.11853 0.59637-0.25929h0.0074l0.02593 0.21484h0.25188v-1.1038c0-0.4482-0.18521-0.74083-0.626-0.74083-0.28892 0-0.54081 0.12594-0.7075 0.23336l0.12224 0.21114c0.14076-0.09631 0.32597-0.19262 0.5371-0.19262 0.29263 0 0.37042 0.22225 0.37042 0.45191-0.76676 0.0852-1.1075 0.28152-1.1075 0.67416zm0.30004-0.02223c0-0.22966 0.20373-0.37782 0.80751-0.45191v0.50006c-0.1741 0.15558-0.31856 0.24077-0.49266 0.24077-0.1778 0-0.31485-0.0852-0.31485-0.28892z"/>
   <path d="m55.181 61.78h0.3556l0.63712-1.8002h-0.30004l-0.34078 1.0224c-0.05186 0.1778-0.11112 0.3593-0.16298 0.5297h-0.01482c-0.05556-0.17039-0.11483-0.3519-0.16669-0.5297l-0.34078-1.0224h-0.31485z"/>
   <path d="m56.374 60.884c0 0.58896 0.38153 0.94086 0.86307 0.94086 0.24448 0 0.43709-0.0852 0.59267-0.18521l-0.10742-0.20002c-0.13335 0.0852-0.27781 0.14076-0.4482 0.14076-0.34449 0-0.57785-0.24448-0.60008-0.63341h1.215c0.0074-0.04445 0.01111-0.10372 0.01111-0.16669 0-0.51488-0.25929-0.84455-0.71861-0.84455-0.41116 0-0.80751 0.3593-0.80751 0.94827zm0.29633-0.13705c0.03704-0.36301 0.2667-0.57044 0.51858-0.57044 0.28152 0 0.4445 0.20373 0.4445 0.57044z"/>
   <path d="m58.145 61.576c0.17039 0.14076 0.41487 0.24818 0.67045 0.24818 0.42598 0 0.65934-0.24448 0.65934-0.5371 0-0.34078-0.28892-0.4482-0.54822-0.54451-0.20373-0.07779-0.40005-0.14446-0.40005-0.31115 0-0.13705 0.10372-0.25929 0.32967-0.25929 0.15928 0 0.28892 0.06667 0.41116 0.15928l0.14446-0.19262c-0.13705-0.11112-0.33338-0.20373-0.55933-0.20373-0.38894 0-0.6186 0.22225-0.6186 0.51118 0 0.30374 0.28152 0.42598 0.5371 0.51858 0.19632 0.07408 0.41116 0.15558 0.41116 0.34078 0 0.15558-0.11853 0.28152-0.3556 0.28152-0.21484 0-0.37412-0.0889-0.5297-0.21484z"/>
   <path d="m60.664 61.78h1.4372v-0.263h-1.1261v-0.88159h0.91863v-0.263h-0.91863v-0.76306h1.089v-0.25929h-1.4002z"/>
   <path d="m62.577 61.78h0.30374v-1.3039c0.16669-0.18521 0.31856-0.27781 0.45191-0.27781 0.22966 0 0.33708 0.14446 0.33708 0.48154v1.1001h0.30374v-1.3039c0.16669-0.18521 0.31115-0.27781 0.45191-0.27781 0.22595 0 0.33338 0.14446 0.33338 0.48154v1.1001h0.30374v-1.1409c0-0.45932-0.1778-0.70379-0.54822-0.70379-0.21855 0-0.40375 0.14076-0.59267 0.34449-0.07408-0.21484-0.22225-0.34449-0.49636-0.34449-0.21484 0-0.40375 0.13335-0.55933 0.30374h-0.01111l-0.02593-0.25929h-0.25188z"/>
   <path d="m65.8 59.61c0.11853 0 0.21114-0.08149 0.21114-0.19632 0-0.11853-0.09261-0.19632-0.21114-0.19632-0.11853 0-0.21114 0.07779-0.21114 0.19632 0 0.11483 0.0926 0.19632 0.21114 0.19632zm-0.15558 2.1706h0.30374v-1.8002h-0.30374z"/>
   <path d="m66.608 61.225c0 0.3556 0.12965 0.60008 0.51488 0.60008 0.11112 0 0.23336-0.03334 0.33338-0.06667l-0.05927-0.22966c-0.05927 0.02222-0.14076 0.04815-0.20373 0.04815-0.20743 0-0.27781-0.12594-0.27781-0.34819v-1.0001h0.48525v-0.24818h-0.48525v-0.50377h-0.25559l-0.03704 0.50377-0.28152 0.01852v0.22966h0.2667z"/>
   <path d="m67.859 61.225c0 0.3556 0.12965 0.60008 0.51488 0.60008 0.11112 0 0.23336-0.03334 0.33338-0.06667l-0.05927-0.22966c-0.05927 0.02222-0.14076 0.04815-0.20373 0.04815-0.20743 0-0.27781-0.12594-0.27781-0.34819v-1.0001h0.48525v-0.24818h-0.48525v-0.50377h-0.25559l-0.03704 0.50377-0.28152 0.01852v0.22966h0.2667z"/>
   <path d="m68.89 60.884c0 0.58896 0.38153 0.94086 0.86307 0.94086 0.24448 0 0.43709-0.0852 0.59267-0.18521l-0.10742-0.20002c-0.13335 0.0852-0.27781 0.14076-0.4482 0.14076-0.34449 0-0.57785-0.24448-0.60008-0.63341h1.215c0.0074-0.04445 0.01111-0.10372 0.01111-0.16669 0-0.51488-0.25929-0.84455-0.71861-0.84455-0.41116 0-0.80751 0.3593-0.80751 0.94827zm0.29633-0.13705c0.03704-0.36301 0.2667-0.57044 0.51858-0.57044 0.28152 0 0.4445 0.20373 0.4445 0.57044z"/>
   <path d="m70.861 61.78h0.30374v-1.1557c0.12224-0.30374 0.30374-0.41487 0.45561-0.41487 0.07408 0 0.11483 0.01111 0.1741 0.02963l0.05927-0.2667c-0.05927-0.02593-0.11483-0.03704-0.19262-0.03704-0.20373 0-0.38894 0.14446-0.51118 0.37042h-0.01111l-0.02593-0.32597h-0.25188z"/>
  </g>
  <g fill="#a6aeb8" stroke="#cf2f25" stroke-linecap="round" stroke-width=".26458" aria-label="T">
   <path d="m73.025 66.014h0.26352v-1.8606h0.63182v-0.22225h-1.5272v0.22225h0.63182z" fill="#a6aeb8" stroke="none"/>
  </g>
 </g>
 <g fill="none" stroke="#6f8ce9" stroke-dashoffset="1.2" stroke-linecap="square" stroke-miterlimit="40" stroke-width=".26458">
  <path d="m180.05 55.959v-2.9104h2.9104" style="paint-order:normal"/>
  <path d="m210.48 55.959v-2.9104h-2.9104" style="paint-order:normal"/>
  <path d="m180.05 64.691v2.9104h2.9104" style="paint-order:normal"/>
  <path d="m210.48 64.691v2.9104h-2.9104" style="paint-order:normal"/>
 </g>
 <g>
  <rect x="180.58" y="53.578" width="29.369" height="13.494" fill="#1d232d"/>
  <g fill="#e8eaec" stroke-linecap="round" stroke-width=".26458" aria-label="Avatar">
   <path d="m191.09 60.791 0.11853-0.37042c0.0852-0.2704 0.16298-0.5371 0.24077-0.81862h0.0148c0.0778 0.28152 0.15557 0.54822 0.24077 0.81862l0.11483 0.37042zm1.0409 0.98901h0.32596l-0.82232-2.4299h-0.34819l-0.82233 2.4299h0.31486l0.23336-0.74083h0.88529z"/>
   <path d="m193.1 61.78h0.3556l0.63712-1.8002h-0.30004l-0.34078 1.0224c-0.0519 0.1778-0.11113 0.3593-0.16299 0.5297h-0.0148c-0.0556-0.17039-0.11483-0.3519-0.16669-0.5297l-0.34078-1.0224h-0.31486z"/>
   <path d="m194.27 61.313c0 0.32226 0.22595 0.51118 0.5297 0.51118 0.22225 0 0.42227-0.11853 0.59637-0.25929h7e-3l0.0259 0.21484h0.25189v-1.1038c0-0.4482-0.18521-0.74083-0.62601-0.74083-0.28892 0-0.5408 0.12594-0.70749 0.23336l0.12224 0.21114c0.14075-0.09631 0.32596-0.19262 0.5371-0.19262 0.29263 0 0.37042 0.22225 0.37042 0.45191-0.76677 0.0852-1.1076 0.28152-1.1076 0.67416zm0.30004-0.02223c0-0.22966 0.20373-0.37782 0.80751-0.45191v0.50006c-0.1741 0.15558-0.31856 0.24077-0.49266 0.24077-0.1778 0-0.31485-0.0852-0.31485-0.28892z"/>
   <path d="m196.31 61.225c0 0.3556 0.12965 0.60008 0.51488 0.60008 0.11112 0 0.23336-0.03334 0.33337-0.06667l-0.0593-0.22966c-0.0593 0.02222-0.14076 0.04815-0.20373 0.04815-0.20744 0-0.27781-0.12594-0.27781-0.34819v-1.0001h0.48524v-0.24818h-0.48524v-0.50377h-0.25559l-0.037 0.50377-0.28152 0.01852v0.22966h0.2667z"/>
   <path d="m197.36 61.313c0 0.32226 0.22596 0.51118 0.5297 0.51118 0.22225 0 0.42227-0.11853 0.59637-0.25929h7e-3l0.0259 0.21484h0.25188v-1.1038c0-0.4482-0.18521-0.74083-0.626-0.74083-0.28893 0-0.54081 0.12594-0.7075 0.23336l0.12224 0.21114c0.14076-0.09631 0.32596-0.19262 0.5371-0.19262 0.29263 0 0.37042 0.22225 0.37042 0.45191-0.76676 0.0852-1.1076 0.28152-1.1076 0.67416zm0.30004-0.02223c0-0.22966 0.20373-0.37782 0.80751-0.45191v0.50006c-0.1741 0.15558-0.31856 0.24077-0.49266 0.24077-0.1778 0-0.31485-0.0852-0.31485-0.28892z"/>
   <path d="m199.34 61.78h0.30375v-1.1557c0.12223-0.30374 0.30374-0.41487 0.45561-0.41487 0.0741 0 0.11483 0.01111 0.17409 0.02963l0.0593-0.2667c-0.0593-0.02593-0.11483-0.03704-0.19262-0.03704-0.20373 0-0.38893 0.14446-0.51117 0.37042h-0.0111l-0.0259-0.32597h-0.25189z"/>
  </g>
  <g fill="#a6aeb8" stroke="#cf2f25" stroke-linecap="round" stroke-width=".26458" aria-label="T">
   <path d="m207.96 66.014h0.26353v-1.8606h0.63182v-0.22225h-1.5272v0.22225h0.63182z" fill="#a6aeb8" stroke="none"/>
  </g>
 </g>
 <g fill="none" stroke="#6f8ce9" stroke-dashoffset="1.2" stroke-linecap="square" stroke-miterlimit="40" stroke-width=".26458">
  <path d="m135.07 55.959v-2.9104h2.9104" style="paint-order:normal"/>
  <path d="m165.5 55.959v-2.9104h-2.9104" style="paint-order:normal"/>
  <path d="m135.07 64.691v2.9104h2.9104" style="paint-order:normal"/>
  <path d="m165.5 64.691v2.9104h-2.9104" style="paint-order:normal"/>
 </g>
 <g>
  <rect x="135.6" y="53.578" width="29.369" height="13.494" fill="#1d232d"/>
  <g fill="#e8eaec" stroke-linecap="round" stroke-width=".26458" aria-label="Background">
   <path d="m141.35 61.78h0.77788c0.5408 0 0.91863-0.23336 0.91863-0.7112 0-0.33338-0.20743-0.52599-0.56303-0.58156v-0.01482c0.28892-0.07408 0.42597-0.28892 0.42597-0.5297 0-0.42598-0.34448-0.59267-0.83714-0.59267h-0.72231zm0.31115-1.3928v-0.79269h0.37412c0.37412 0 0.57044 0.11112 0.57044 0.37412 0 0.2704-0.17409 0.41857-0.58526 0.41857zm0 1.1483v-0.91863h0.42228c0.42597 0 0.65934 0.13705 0.65934 0.43709 0 0.32967-0.24448 0.48154-0.65934 0.48154z"/>
   <path d="m143.41 61.313c0 0.32226 0.22596 0.51118 0.5297 0.51118 0.22225 0 0.42228-0.11853 0.59637-0.25929h7e-3l0.0259 0.21484h0.25188v-1.1038c0-0.4482-0.18521-0.74083-0.626-0.74083-0.28893 0-0.54081 0.12594-0.7075 0.23336l0.12224 0.21114c0.14076-0.09631 0.32597-0.19262 0.5371-0.19262 0.29263 0 0.37042 0.22225 0.37042 0.45191-0.76676 0.0852-1.1076 0.28152-1.1076 0.67416zm0.30004-0.02223c0-0.22966 0.20373-0.37782 0.80751-0.45191v0.50006c-0.1741 0.15558-0.31856 0.24077-0.49265 0.24077-0.1778 0-0.31486-0.0852-0.31486-0.28892z"/>
   <path d="m145.26 60.884c0 0.59637 0.36671 0.94086 0.84455 0.94086 0.21484 0 0.42227-0.0889 0.58525-0.23336l-0.13705-0.20002c-0.10742 0.09631-0.25188 0.1815-0.42227 0.1815-0.32968 0-0.55563-0.27781-0.55563-0.68898 0-0.41487 0.23707-0.69638 0.56303-0.69638 0.14447 0 0.25559 0.06667 0.36301 0.15928l0.15187-0.19632c-0.12223-0.11483-0.28892-0.21484-0.52599-0.21484-0.46302 0-0.86677 0.34449-0.86677 0.94827z"/>
   <path d="m147.08 61.78h0.30004v-0.47413l0.33708-0.39264 0.52599 0.86678h0.33337l-0.68527-1.0779 0.60378-0.72231h-0.33708l-0.76676 0.94827h-0.0111v-1.7854h-0.30004z"/>
   <path d="m149 62.084c0-0.10372 0.0556-0.21114 0.18521-0.30374 0.0778 0.02222 0.16298 0.02963 0.23336 0.02963h0.31115c0.23337 0 0.36301 0.05556 0.36301 0.22225 0 0.18891-0.22595 0.36671-0.57044 0.36671-0.32597 0-0.52229-0.12224-0.52229-0.31485zm-0.2667 0.04075c0 0.31115 0.30374 0.48525 0.74454 0.48525 0.55933 0 0.91123-0.28892 0.91123-0.6223 0-0.30004-0.21114-0.42968-0.62971-0.42968h-0.34819c-0.24448 0-0.31856-0.08149-0.31856-0.19632 0-0.10001 0.0519-0.15928 0.11483-0.21484 0.0815 0.04075 0.1815 0.06297 0.2704 0.06297 0.36671 0 0.65934-0.24077 0.65934-0.626 0-0.15187-0.063-0.28892-0.14816-0.37042h0.37041v-0.23336h-0.626c-0.0667-0.02593-0.15558-0.04445-0.25559-0.04445-0.36671 0-0.67786 0.24818-0.67786 0.64082 0 0.21484 0.11483 0.38894 0.23336 0.48525v0.01482c-0.0926 0.06297-0.19632 0.1815-0.19632 0.33338 0 0.14076 0.0704 0.23707 0.15928 0.29263v0.01482c-0.16298 0.11112-0.263 0.25559-0.263 0.40746zm0.74454-1.1187c-0.20743 0-0.38153-0.16669-0.38153-0.42968 0-0.263 0.17039-0.41857 0.38153-0.41857s0.38153 0.15558 0.38153 0.41857c0 0.263-0.1741 0.42968-0.38153 0.42968z"/>
   <path d="m150.74 61.78h0.30374v-1.1557c0.12224-0.30374 0.30374-0.41487 0.45561-0.41487 0.0741 0 0.11483 0.01111 0.1741 0.02963l0.0593-0.2667c-0.0593-0.02593-0.11483-0.03704-0.19262-0.03704-0.20373 0-0.38894 0.14446-0.51118 0.37042h-0.0111l-0.0259-0.32597h-0.25188z"/>
   <path d="m151.86 60.884c0 0.59637 0.39264 0.94086 0.83344 0.94086s0.83344-0.34449 0.83344-0.94086c0-0.60378-0.39264-0.94827-0.83344-0.94827s-0.83344 0.34449-0.83344 0.94827zm0.31486 0c0-0.41487 0.21113-0.69638 0.51858-0.69638 0.31115 0 0.51858 0.28152 0.51858 0.69638 0 0.41116-0.20743 0.68898-0.51858 0.68898-0.30745 0-0.51858-0.27781-0.51858-0.68898z"/>
   <path d="m153.98 61.121c0 0.45932 0.17039 0.70379 0.55192 0.70379 0.24818 0 0.42598-0.12965 0.59267-0.32597h0.0111l0.0259 0.28152h0.25188v-1.8002h-0.30374v1.2779c-0.17039 0.21114-0.30004 0.30374-0.48524 0.30374-0.23707 0-0.33708-0.14446-0.33708-0.48154v-1.1001h-0.30741z"/>
   <path d="m156.02 61.78h0.30374v-1.3039c0.18151-0.1815 0.30745-0.27781 0.49266-0.27781 0.23706 0 0.34078 0.14446 0.34078 0.48154v1.1001h0.30374v-1.1409c0-0.45932-0.17039-0.70379-0.54822-0.70379-0.24817 0-0.43338 0.13335-0.60377 0.30374h-0.0111l-0.0259-0.25929h-0.25188z"/>
   <path d="m157.92 60.884c0 0.60008 0.29263 0.94086 0.74454 0.94086 0.21114 0 0.40375-0.11853 0.54451-0.25559h0.0111l0.0259 0.21114h0.25189v-2.6374h-0.30745v0.69268l0.0148 0.30745c-0.15928-0.12965-0.29634-0.20743-0.50377-0.20743-0.41116 0-0.78158 0.36301-0.78158 0.94827zm0.31486-0.0037c0-0.41116 0.22965-0.68898 0.51858-0.68898 0.14817 0 0.28522 0.05186 0.43709 0.18891v0.94086c-0.14817 0.16669-0.29263 0.24818-0.45932 0.24818-0.31485 0-0.49635-0.25929-0.49635-0.68898z"/>
  </g>
  <g fill="#a6aeb8" stroke="#cf2f25" stroke-linecap="round" stroke-width=".26458" aria-label="T">
   <path d="m162.98 66.014h0.26353v-1.8606h0.63182v-0.22225h-1.5272v0.22225h0.63182z" fill="#a6aeb8" stroke="none"/>
  </g>
 </g>
 <g fill="none" stroke="#6f8ce9" stroke-dashoffset="1.2" stroke-linecap="square" stroke-miterlimit="40" stroke-width=".26458">
  <path d="m0.13229 55.959v-2.9104h2.9104" style="paint-order:normal"/>
  <path d="m30.559 55.959v-2.9104h-2.9104" style="paint-order:normal"/>
  <path d="m0.13229 64.691v2.9104h2.9104" style="paint-order:normal"/>
  <path d="m30.559 64.691v2.9104h-2.9104" style="paint-order:normal"/>
 </g>
 <g>
  <rect x=".66146" y="53.578" width="29.369" height="13.494" fill="#1d232d"/>
  <g fill="#e8eaec" stroke-linecap="round" stroke-width=".26458" aria-label="Platform">
   <path d="m8.9889 61.78h0.31115v-0.96308h0.43709c0.5297 0 0.89641-0.24077 0.89641-0.75195 0-0.5334-0.3593-0.7149-0.89641-0.7149h-0.74824zm0.31115-1.215v-0.96679h0.39635c0.41857 0 0.62971 0.11483 0.62971 0.46672 0 0.34449-0.20373 0.50006-0.62971 0.50006z"/>
   <path d="m11.083 61.417c0 0.263 0.09261 0.40746 0.32226 0.40746 0.08149 0 0.13335-0.01111 0.1741-0.02963l-0.04075-0.22966c-0.03334 0.0074-0.04815 0.0074-0.06668 0.0074-0.04445 0-0.0852-0.03704-0.0852-0.13335v-2.2966h-0.30374z"/>
   <path d="m11.942 61.313c0 0.32226 0.22595 0.51118 0.5297 0.51118 0.22225 0 0.42228-0.11853 0.59637-0.25929h0.0074l0.02593 0.21484h0.25188v-1.1038c0-0.4482-0.18521-0.74083-0.626-0.74083-0.28892 0-0.54081 0.12594-0.7075 0.23336l0.12224 0.21114c0.14076-0.09631 0.32597-0.19262 0.5371-0.19262 0.29263 0 0.37042 0.22225 0.37042 0.45191-0.76676 0.0852-1.1075 0.28152-1.1075 0.67416zm0.30004-0.02223c0-0.22966 0.20373-0.37782 0.80751-0.45191v0.50006c-0.1741 0.15558-0.31856 0.24077-0.49265 0.24077-0.1778 0-0.31485-0.0852-0.31485-0.28892z"/>
   <path d="m13.978 61.225c0 0.3556 0.12965 0.60008 0.51488 0.60008 0.11112 0 0.23336-0.03334 0.33338-0.06667l-0.05927-0.22966c-0.05927 0.02222-0.14076 0.04815-0.20373 0.04815-0.20743 0-0.27781-0.12594-0.27781-0.34819v-1.0001h0.48525v-0.24818h-0.48525v-0.50377h-0.25559l-0.03704 0.50377-0.28152 0.01852v0.22966h0.2667z"/>
   <path d="m16.056 59.158c-0.08149-0.03334-0.18891-0.05927-0.30004-0.05927-0.3593 0-0.52599 0.22966-0.52599 0.59637v0.28522l-0.24448 0.01852v0.22966h0.24448v1.552h0.30374v-1.552h0.38153v-0.24818h-0.38153v-0.28522c0-0.22966 0.08149-0.34819 0.25188-0.34819 0.06667 0 0.13705 0.01482 0.20373 0.04445z"/>
   <path d="m16.093 60.884c0 0.59637 0.39264 0.94086 0.83344 0.94086 0.4408 0 0.83344-0.34449 0.83344-0.94086 0-0.60378-0.39264-0.94827-0.83344-0.94827-0.4408 0-0.83344 0.34449-0.83344 0.94827zm0.31485 0c0-0.41487 0.21114-0.69638 0.51858-0.69638 0.31115 0 0.51858 0.28152 0.51858 0.69638 0 0.41116-0.20743 0.68898-0.51858 0.68898-0.30745 0-0.51858-0.27781-0.51858-0.68898z"/>
   <path d="m18.238 61.78h0.30374v-1.1557c0.12224-0.30374 0.30374-0.41487 0.45561-0.41487 0.07408 0 0.11483 0.01111 0.1741 0.02963l0.05927-0.2667c-0.05927-0.02593-0.11483-0.03704-0.19262-0.03704-0.20373 0-0.38894 0.14446-0.51118 0.37042h-0.01111l-0.02593-0.32597h-0.25188z"/>
   <path d="m19.526 61.78h0.30374v-1.3039c0.16669-0.18521 0.31856-0.27781 0.45191-0.27781 0.22966 0 0.33708 0.14446 0.33708 0.48154v1.1001h0.30374v-1.3039c0.16669-0.18521 0.31115-0.27781 0.45191-0.27781 0.22596 0 0.33338 0.14446 0.33338 0.48154v1.1001h0.30374v-1.1409c0-0.45932-0.1778-0.70379-0.54822-0.70379-0.21854 0-0.40375 0.14076-0.59267 0.34449-0.07408-0.21484-0.22225-0.34449-0.49636-0.34449-0.21484 0-0.40375 0.13335-0.55933 0.30374h-0.01111l-0.02593-0.25929h-0.25188z"/>
  </g>
  <g fill="#a6aeb8" stroke="#cf2f25" stroke-linecap="round" stroke-width=".26458" aria-label="T">
   <path d="m28.046 66.014h0.26352v-1.8606h0.63182v-0.22225h-1.5272v0.22225h0.63182z" fill="#a6aeb8" stroke="none"/>
  </g>
 </g>
 <g fill="none" stroke="#6f8ce9" stroke-dashoffset="1.2" stroke-linecap="square" stroke-miterlimit="40" stroke-width=".26458">
  <path d="m162.85 82.418v-2.9104h2.9104" style="paint-order:normal"/>
  <path d="m193.28 82.418v-2.9104h-2.9104" style="paint-order:normal"/>
  <path d="m162.85 91.149v2.9104h2.9104" style="paint-order:normal"/>
  <path d="m193.28 91.149v2.9104h-2.9104" style="paint-order:normal"/>
 </g>
 <g>
  <rect x="163.38" y="80.036" width="29.369" height="13.494" fill="#1d232d"/>
  <g fill="#e8eaec" stroke-linecap="round" stroke-width=".26458" aria-label="Sword">
   <path d="m173.38 87.924c0.21113 0.21855 0.50747 0.3593 0.84825 0.3593 0.51118 0 0.82973-0.30745 0.82973-0.69268 0-0.3593-0.21854-0.52599-0.50006-0.64823l-0.34819-0.14817c-0.18891-0.08149-0.40375-0.17039-0.40375-0.40376 0-0.21854 0.1815-0.3556 0.45561-0.3556 0.22225 0 0.40375 0.0889 0.55192 0.22966l0.16298-0.20002c-0.17039-0.1778-0.42598-0.30004-0.7149-0.30004-0.4408 0-0.76676 0.27411-0.76676 0.64452 0 0.3556 0.2667 0.5297 0.49265 0.626l0.34819 0.15187c0.22966 0.10372 0.40746 0.1815 0.40746 0.42968 0 0.23707-0.18891 0.39634-0.50747 0.39634-0.25559 0-0.49636-0.12224-0.67046-0.30374z"/>
   <path d="m175.78 88.239h0.3556l0.25188-0.96308c0.0481-0.17039 0.0852-0.34078 0.12594-0.52229h0.0148c0.0445 0.1815 0.0778 0.34819 0.12224 0.51858l0.25929 0.96679h0.37041l0.48155-1.8002h-0.28893l-0.263 1.0409c-0.037 0.17039-0.0704 0.33338-0.11112 0.50006h-0.0148c-0.0407-0.16669-0.0815-0.32967-0.12594-0.50006l-0.28152-1.0409h-0.29633l-0.27781 1.0409c-0.0444 0.16669-0.0815 0.33338-0.12224 0.50006h-0.0148c-0.0333-0.16669-0.0667-0.32967-0.10742-0.50006l-0.2667-1.0409h-0.31115z"/>
   <path d="m178.01 87.342c0 0.59637 0.39264 0.94086 0.83343 0.94086 0.4408 0 0.83344-0.34449 0.83344-0.94086 0-0.60378-0.39264-0.94827-0.83344-0.94827-0.44079 0-0.83343 0.34449-0.83343 0.94827zm0.31485 0c0-0.41487 0.21114-0.69638 0.51858-0.69638 0.31115 0 0.51859 0.28152 0.51859 0.69638 0 0.41116-0.20744 0.68898-0.51859 0.68898-0.30744 0-0.51858-0.27781-0.51858-0.68898z"/>
   <path d="m180.16 88.239h0.30374v-1.1557c0.12224-0.30374 0.30375-0.41487 0.45562-0.41487 0.0741 0 0.11483 0.01111 0.17409 0.02963l0.0593-0.2667c-0.0593-0.02593-0.11483-0.03704-0.19262-0.03704-0.20373 0-0.38894 0.14446-0.51117 0.37042h-0.0111l-0.0259-0.32597h-0.25189z"/>
   <path d="m181.28 87.342c0 0.60008 0.29263 0.94086 0.74454 0.94086 0.21113 0 0.40375-0.11853 0.54451-0.25559h0.0111l0.0259 0.21114h0.25188v-2.6374h-0.30744v0.69268l0.0148 0.30745c-0.15928-0.12965-0.29634-0.20743-0.50377-0.20743-0.41116 0-0.78158 0.36301-0.78158 0.94827zm0.31485-0.0037c0-0.41116 0.22966-0.68898 0.51859-0.68898 0.14816 0 0.28522 0.05186 0.43709 0.18891v0.94086c-0.14817 0.16669-0.29263 0.24818-0.45932 0.24818-0.31485 0-0.49636-0.25929-0.49636-0.68898z"/>
  </g>
  <g fill="#a6aeb8" stroke-linecap="round" stroke-width=".26458" aria-label="TR">
   <path d="m188.53 92.472h0.26352v-1.8606h0.63183v-0.22225h-1.5272v0.22225h0.63183z"/>
   <path d="m190.05 90.602h0.34925c0.32385 0 0.50165 0.09842 0.50165 0.37148 0 0.26988-0.1778 0.40322-0.50165 0.40322h-0.34925zm1.1779 1.8701-0.53023-0.90805c0.28258-0.07303 0.46673-0.2667 0.46673-0.59055 0-0.4318-0.3048-0.5842-0.72708-0.5842h-0.65405v2.0828h0.2667v-0.87948h0.37465l0.50165 0.87948z"/>
  </g>
 </g>
 <g fill="none" stroke="#6f8ce9" stroke-dashoffset="1.2" stroke-linecap="square" stroke-miterlimit="40" stroke-width=".26458">
  <path d="m197.25 82.418v-2.9104h2.9104" style="paint-order:normal"/>
  <path d="m227.67 82.418v-2.9104h-2.9104" style="paint-order:normal"/>
  <path d="m197.25 91.149v2.9104h2.9104" style="paint-order:normal"/>
  <path d="m227.67 91.149v2.9104h-2.9104" style="paint-order:normal"/>
 </g>
 <g>
  <rect x="197.78" y="80.036" width="29.369" height="13.494" fill="#1d232d"/>
  <g fill="#e8eaec" stroke-linecap="round" stroke-width=".26458" aria-label="Body">
   <path d="m208.94 88.239h0.77787c0.54081 0 0.91864-0.23336 0.91864-0.7112 0-0.33338-0.20744-0.52599-0.56304-0.58156v-0.01482c0.28893-0.07408 0.42598-0.28892 0.42598-0.5297 0-0.42598-0.34448-0.59267-0.83714-0.59267h-0.72231zm0.31115-1.3928v-0.79269h0.37412c0.37412 0 0.57044 0.11112 0.57044 0.37412 0 0.2704-0.17409 0.41857-0.58526 0.41857zm0 1.1483v-0.91863h0.42227c0.42598 0 0.65935 0.13705 0.65935 0.43709 0 0.32967-0.24448 0.48154-0.65935 0.48154z"/>
   <path d="m210.95 87.342c0 0.59637 0.39265 0.94086 0.83344 0.94086 0.4408 0 0.83344-0.34449 0.83344-0.94086 0-0.60378-0.39264-0.94827-0.83344-0.94827-0.44079 0-0.83344 0.34449-0.83344 0.94827zm0.31486 0c0-0.41487 0.21114-0.69638 0.51858-0.69638 0.31115 0 0.51858 0.28152 0.51858 0.69638 0 0.41116-0.20743 0.68898-0.51858 0.68898-0.30744 0-0.51858-0.27781-0.51858-0.68898z"/>
   <path d="m212.96 87.342c0 0.60008 0.29262 0.94086 0.74453 0.94086 0.21114 0 0.40376-0.11853 0.54452-0.25559h0.0111l0.0259 0.21114h0.25188v-2.6374h-0.30745v0.69268l0.0148 0.30745c-0.15928-0.12965-0.29633-0.20743-0.50377-0.20743-0.41116 0-0.78157 0.36301-0.78157 0.94827zm0.31485-0.0037c0-0.41116 0.22966-0.68898 0.51858-0.68898 0.14817 0 0.28522 0.05186 0.43709 0.18891v0.94086c-0.14816 0.16669-0.29262 0.24818-0.45931 0.24818-0.31486 0-0.49636-0.25929-0.49636-0.68898z"/>
   <path d="m215.02 88.735-0.0593 0.24077c0.0593 0.02223 0.12965 0.03704 0.21114 0.03704 0.36301 0 0.54822-0.2704 0.67416-0.626l0.67786-1.9484h-0.29633l-0.32227 0.99642c-0.0482 0.15928-0.10001 0.34449-0.15187 0.50747h-0.0148c-0.0556-0.16669-0.11854-0.3519-0.1741-0.50747l-0.36671-0.99642h-0.31486l0.72232 1.8039-0.0407 0.13335c-0.0741 0.22225-0.20373 0.38523-0.40746 0.38523-0.0445 0-0.10001-0.01482-0.13705-0.02593z"/>
  </g>
  <g fill="#a6aeb8" stroke="#cf2f25" stroke-linecap="round" stroke-width=".26458" aria-label="I">
   <path d="m225.16 92.472h0.2667v-2.0828h-0.2667z" fill="#a6aeb8" stroke="none"/>
  </g>
 </g>
 <g fill="#1d232d" stroke="#47d58a" stroke-dashoffset="1.2" stroke-linecap="square" stroke-miterlimit="40" stroke-width=".26458">
  <rect transform="rotate(90)" x="78.536" y="-180.15" width="1.3229" height="4.2333"/>
  <rect transform="rotate(90)" x="78.536" y="-214.55" width="1.3229" height="4.2333"/>
  <rect transform="rotate(90)" x="67.159" y="-197.35" width="1.3229" height="4.2333"/>
  <rect transform="rotate(90)" x="14.242" y="-107.39" width="1.3229" height="4.2333"/>
  <rect transform="rotate(90)" x="52.077" y="-17.434" width="1.3229" height="4.2333"/>
  <rect transform="rotate(90)" x="52.077" y="-62.413" width="1.3229" height="4.2333"/>
  <rect transform="rotate(90)" x="52.077" y="-152.37" width="1.3229" height="4.2333"/>
  <rect transform="rotate(90)" x="52.077" y="-197.35" width="1.3229" height="4.2333"/>
 </g>
 <g fill="none" stroke="#47d58a" stroke-dashoffset="1.2" stroke-linecap="square" stroke-miterlimit="40" stroke-width=".26458">
  <path d="m15.478 51.991v-8.7312h88.635v-27.517"/>
  <path d="m104.91 15.743v29.104h-44.567v7.1438"/>
  <path d="m178.09 78.449v-6.8792h16.508v-2.9104"/>
  <path d="m195.92 68.659v2.9104h16.547v6.8792"/>
 </g>
 <g stroke="#47d58a" stroke-dashoffset="1.2" stroke-linecap="square" stroke-miterlimit="40">
  <ellipse cx="178.09" cy="71.57" rx=".66146" ry=".66146" fill="#1d232d" stroke-width=".26458"/>
  <ellipse cx="212.49" cy="71.57" rx=".66146" ry=".66146" fill="#1d232d" stroke-width=".26458"/>
  <path d="m195.13 51.991v-8.7312h-88.635v-27.517" fill="none" stroke-width=".26458"/>
  <path d="m105.7 15.743v29.104h44.567v7.1438" fill="none" stroke-width=".26458"/>
 </g>
 <g fill="#1d232d" stroke="#47d58a" stroke-dashoffset="1.2" stroke-linecap="square" stroke-miterlimit="40" stroke-width=".26458">
  <ellipse cx="15.577" cy="43.259" rx=".66146" ry=".66146"/>
  <ellipse cx="60.332" cy="44.847" rx=".66146" ry=".66146"/>
  <ellipse cx="150.29" cy="44.847" rx=".66146" ry=".66146"/>
  <ellipse cx="195.12" cy="43.259" rx=".66146" ry=".66146"/>
 </g>
</svg>
