<?xml version="1.0" encoding="UTF-8"?>
<svg width="271.46mm" height="120.65mm" version="1.1" viewBox="0 0 271.46 120.65" xmlns="http://www.w3.org/2000/svg" xmlns:cc="http://creativecommons.org/ns#" xmlns:dc="http://purl.org/dc/elements/1.1/" xmlns:rdf="http://www.w3.org/1999/02/22-rdf-syntax-ns#">
 <metadata>
  <rdf:RDF>
   <cc:Work rdf:about="">
    <dc:format>image/svg+xml</dc:format>
    <dc:type rdf:resource="http://purl.org/dc/dcmitype/StillImage"/>
    <dc:title/>
   </cc:Work>
  </rdf:RDF>
 </metadata>
 <g transform="translate(163.94 -89.554)">
  <g fill="none" stroke="#009244" stroke-dashoffset="1.2" stroke-linecap="square" stroke-miterlimit="40" stroke-width=".26458">
   <path d="m-43.423 92.596v-2.9104h2.9104" style="paint-order:normal"/>
   <path d="m-12.996 92.596v-2.9104h-2.9104" style="paint-order:normal"/>
   <path d="m-43.423 101.33v2.9104h2.9104" style="paint-order:normal"/>
   <path d="m-12.996 101.33v2.9104h-2.9104" style="paint-order:normal"/>
  </g>
  <rect x="-42.894" y="90.215" width="29.369" height="13.494" fill="#1d232d"/>
  <g fill="#e8eaec" stroke-linecap="round" stroke-width=".26458" aria-label="World">
   <path d="m-32.086 98.417h0.36671l0.36301-1.4631c0.04075-0.18891 0.08149-0.36301 0.12224-0.55192h0.01482c0.03334 0.18891 0.07408 0.36301 0.11483 0.55192l0.36671 1.4631h0.37412l0.50377-2.4299h-0.30004l-0.25559 1.3224c-0.04445 0.25929-0.0889 0.52229-0.13705 0.78528h-0.01482c-0.05927-0.263-0.11853-0.5297-0.1741-0.78528l-0.33708-1.3224h-0.28152l-0.33708 1.3224c-0.05927 0.25929-0.11853 0.52229-0.17039 0.78528h-0.01482c-0.04815-0.263-0.09631-0.52229-0.14446-0.78528l-0.25559-1.3224h-0.31856z"/>
   <path d="m-29.61 97.521c0 0.59637 0.39264 0.94086 0.83344 0.94086 0.4408 0 0.83344-0.34449 0.83344-0.94086 0-0.60378-0.39264-0.94827-0.83344-0.94827-0.4408 0-0.83344 0.34449-0.83344 0.94827zm0.31486 0c0-0.41487 0.21114-0.69638 0.51858-0.69638 0.31115 0 0.51858 0.28152 0.51858 0.69638 0 0.41116-0.20743 0.68898-0.51858 0.68898-0.30745 0-0.51858-0.27781-0.51858-0.68898z"/>
   <path d="m-27.466 98.417h0.30374v-1.1557c0.12224-0.30374 0.30374-0.41487 0.45561-0.41487 0.07408 0 0.11483 0.01111 0.1741 0.02963l0.05927-0.2667c-0.05927-0.02593-0.11483-0.03704-0.19262-0.03704-0.20373 0-0.38894 0.14446-0.51118 0.37042h-0.01111l-0.02593-0.32597h-0.25188z"/>
   <path d="m-26.178 98.054c0 0.263 0.0926 0.40746 0.32226 0.40746 0.08149 0 0.13335-0.01111 0.1741-0.02963l-0.04075-0.22966c-0.03334 0.0074-0.04816 0.0074-0.06668 0.0074-0.04445 0-0.0852-0.03704-0.0852-0.13335v-2.2966h-0.30374z"/>
   <path d="m-25.36 97.521c0 0.60008 0.29263 0.94086 0.74454 0.94086 0.21114 0 0.40375-0.11853 0.54451-0.25559h0.01111l0.02593 0.21114h0.25188v-2.6374h-0.30745v0.69268l0.01482 0.30745c-0.15928-0.12965-0.29633-0.20743-0.50377-0.20743-0.41116 0-0.78158 0.36301-0.78158 0.94827zm0.31485-0.0037c0-0.41116 0.22966-0.68898 0.51858-0.68898 0.14817 0 0.28522 0.05186 0.43709 0.18891v0.94086c-0.14817 0.16669-0.29263 0.24818-0.45932 0.24818-0.31486 0-0.49636-0.25929-0.49636-0.68898z"/>
  </g>
  <g fill="none" stroke="#009244" stroke-dashoffset="1.2" stroke-linecap="square" stroke-miterlimit="40" stroke-width=".26458">
   <path d="m-43.423 119.05v-2.9104h2.9104" style="paint-order:normal"/>
   <path d="m-12.996 119.05v-2.9104h-2.9104" style="paint-order:normal"/>
   <path d="m-43.423 127.79v2.9104h2.9104" style="paint-order:normal"/>
   <path d="m-12.996 127.79v2.9104h-2.9104" style="paint-order:normal"/>
  </g>
  <g>
   <rect x="-42.894" y="116.67" width="29.369" height="13.494" fill="#1d232d"/>
   <g fill="#e8eaec" stroke-linecap="round" stroke-width=".26458" aria-label="Group1">
    <path d="m-33.615 123.66c0 0.79269 0.45561 1.2594 1.0927 1.2594 0.32597 0 0.59637-0.12595 0.75565-0.28152v-1.0224h-0.7964v0.25559h0.51488v0.63341c-0.09631 0.0889-0.2667 0.14446-0.4408 0.14446-0.51858 0-0.80751-0.38523-0.80751-0.99642 0-0.60378 0.31485-0.9816 0.80751-0.9816 0.24077 0 0.39264 0.0963 0.51488 0.22595l0.1778-0.19632c-0.14446-0.14817-0.36671-0.30004-0.69638-0.30004-0.65193 0-1.1224 0.47784-1.1224 1.2594z"/>
    <path d="m-31.228 124.88h0.30374v-1.1557c0.12224-0.30375 0.30374-0.41487 0.45561-0.41487 0.07408 0 0.11483 0.0111 0.1741 0.0296l0.05927-0.2667c-0.05927-0.0259-0.11483-0.037-0.19262-0.037-0.20373 0-0.38894 0.14446-0.51118 0.37042h-0.01111l-0.02593-0.32597h-0.25188z"/>
    <path d="m-30.11 123.98c0 0.59637 0.39264 0.94086 0.83344 0.94086 0.4408 0 0.83344-0.34449 0.83344-0.94086 0-0.60378-0.39264-0.94827-0.83344-0.94827-0.4408 0-0.83344 0.34449-0.83344 0.94827zm0.31486 0c0-0.41487 0.21114-0.69639 0.51858-0.69639 0.31115 0 0.51858 0.28152 0.51858 0.69639 0 0.41116-0.20743 0.68897-0.51858 0.68897-0.30745 0-0.51858-0.27781-0.51858-0.68897z"/>
    <path d="m-27.991 124.22c0 0.45932 0.17039 0.7038 0.55192 0.7038 0.24818 0 0.42598-0.12965 0.59267-0.32597h0.01111l0.02593 0.28152h0.25188v-1.8002h-0.30374v1.2779c-0.17039 0.21114-0.30004 0.30374-0.48525 0.30374-0.23707 0-0.33708-0.14446-0.33708-0.48154v-1.1001h-0.30745z"/>
    <path d="m-25.65 124.71c0.16669 0.12965 0.33338 0.20744 0.50006 0.20744 0.41116 0 0.77788-0.35931 0.77788-0.9705 0-0.55933-0.24818-0.91863-0.7112-0.91863-0.21114 0-0.41116 0.11483-0.57415 0.25188h-0.01111l-0.02593-0.20743h-0.25188v2.5596h0.30374v-0.60748zm0.0074-0.23706v-0.94457c0.1778-0.15928 0.32967-0.24447 0.48154-0.24447 0.34078 0 0.47413 0.2667 0.47413 0.66304 0 0.4445-0.21855 0.71491-0.51488 0.71491-0.11853 0-0.27781-0.0519-0.4408-0.18891z"/>
    <path d="m-23.903 124.88h1.3335v-0.25189h-0.48895v-2.1114h-0.23336c-0.12965 0.0778-0.28522 0.13705-0.50006 0.17409v0.19632h0.42968v1.741h-0.54081z"/>
   </g>
   <g fill="#a6aeb8" stroke-linecap="round" stroke-width=".26458" aria-label="TR">
    <path d="m-17.747 129.11h0.26352v-1.8606h0.63182v-0.22225h-1.5272v0.22225h0.63182z"/>
    <path d="m-16.228 127.24h0.34925c0.32385 0 0.50165 0.0984 0.50165 0.37148 0 0.26987-0.1778 0.40322-0.50165 0.40322h-0.34925zm1.1779 1.8701-0.53022-0.90805c0.28258-0.073 0.46672-0.2667 0.46672-0.59055 0-0.4318-0.3048-0.5842-0.72708-0.5842h-0.65405v2.0828h0.2667v-0.87948h0.37465l0.50165 0.87948z"/>
   </g>
  </g>
  <g fill="none" stroke="#009244" stroke-dashoffset="1.2" stroke-linecap="square" stroke-miterlimit="40" stroke-width=".26458">
   <path d="m-77.819 145.51v-2.9104h2.9104" style="paint-order:normal"/>
   <path d="m-47.392 145.51v-2.9104h-2.9104" style="paint-order:normal"/>
   <path d="m-77.819 154.24v2.9104h2.9104" style="paint-order:normal"/>
   <path d="m-47.392 154.24v2.9104h-2.9104" style="paint-order:normal"/>
  </g>
  <g>
   <rect x="-77.29" y="143.13" width="29.369" height="13.494" fill="#1d232d"/>
   <g fill="#e8eaec" stroke-linecap="round" stroke-width=".26458" aria-label="Torso">
    <path d="m-65.919 151.33h0.30745v-2.1706h0.73713v-0.25929h-1.7817v0.25929h0.73713z"/>
    <path d="m-64.856 150.44c0 0.59637 0.39264 0.94086 0.83344 0.94086 0.4408 0 0.83344-0.34449 0.83344-0.94086 0-0.60378-0.39264-0.94826-0.83344-0.94826-0.4408 0-0.83344 0.34448-0.83344 0.94826zm0.31486 0c0-0.41486 0.21114-0.69638 0.51858-0.69638 0.31115 0 0.51858 0.28152 0.51858 0.69638 0 0.41117-0.20743 0.68898-0.51858 0.68898-0.30745 0-0.51858-0.27781-0.51858-0.68898z"/>
    <path d="m-62.712 151.33h0.30374v-1.1557c0.12224-0.30374 0.30374-0.41487 0.45561-0.41487 0.07408 0 0.11483 0.0111 0.1741 0.0296l0.05927-0.2667c-0.05927-0.0259-0.11483-0.037-0.19262-0.037-0.20373 0-0.38894 0.14446-0.51118 0.37041h-0.01111l-0.02593-0.32596h-0.25188z"/>
    <path d="m-61.66 151.13c0.17039 0.14076 0.41487 0.24818 0.67046 0.24818 0.42598 0 0.65934-0.24447 0.65934-0.5371 0-0.34079-0.28892-0.44821-0.54822-0.54452-0.20373-0.0778-0.40005-0.14446-0.40005-0.31115 0-0.13705 0.10372-0.25929 0.32967-0.25929 0.15928 0 0.28892 0.0667 0.41116 0.15928l0.14446-0.19262c-0.13705-0.11112-0.33338-0.20372-0.55933-0.20372-0.38894 0-0.6186 0.22225-0.6186 0.51117 0 0.30374 0.28152 0.42598 0.5371 0.51858 0.19632 0.0741 0.41116 0.15558 0.41116 0.34079 0 0.15557-0.11853 0.28152-0.3556 0.28152-0.21484 0-0.37412-0.0889-0.5297-0.21485z"/>
    <path d="m-60.038 150.44c0 0.59637 0.39264 0.94086 0.83344 0.94086 0.4408 0 0.83344-0.34449 0.83344-0.94086 0-0.60378-0.39264-0.94826-0.83344-0.94826-0.4408 0-0.83344 0.34448-0.83344 0.94826zm0.31486 0c0-0.41486 0.21114-0.69638 0.51858-0.69638 0.31115 0 0.51858 0.28152 0.51858 0.69638 0 0.41117-0.20743 0.68898-0.51858 0.68898-0.30745 0-0.51858-0.27781-0.51858-0.68898z"/>
   </g>
   <g fill="#a6aeb8" stroke="#cf2f25" stroke-linecap="round" stroke-width=".26458" aria-label="I">
    <path d="m-49.906 155.57h0.2667v-2.0828h-0.2667z" fill="#a6aeb8" stroke="none"/>
   </g>
  </g>
  <g fill="none" stroke="#009244" stroke-dashoffset="1.2" stroke-linecap="square" stroke-miterlimit="40" stroke-width=".26458">
   <path d="m-9.0271 145.51v-2.9104h2.9104" style="paint-order:normal"/>
   <path d="m21.4 145.51v-2.9104h-2.9104" style="paint-order:normal"/>
   <path d="m-9.0271 154.24v2.9104h2.9104" style="paint-order:normal"/>
   <path d="m21.4 154.24v2.9104h-2.9104" style="paint-order:normal"/>
  </g>
  <g>
   <rect x="-8.4979" y="143.13" width="29.369" height="13.494" fill="#1d232d"/>
   <g fill="#e8eaec" stroke-linecap="round" stroke-width=".26458" aria-label="Head">
    <path d="m2.5751 151.33h0.31115v-1.1446h1.1298v1.1446h0.30745v-2.4299h-0.30745v1.0186h-1.1298v-1.0186h-0.31115z"/>
    <path d="m4.8179 150.44c0 0.58897 0.38153 0.94086 0.86307 0.94086 0.24448 0 0.43709-0.0852 0.59267-0.18521l-0.10742-0.20002c-0.13335 0.0852-0.27781 0.14076-0.4482 0.14076-0.34449 0-0.57785-0.24448-0.60008-0.63342h1.215c0.00741-0.0444 0.011113-0.10371 0.011113-0.16668 0-0.51488-0.25929-0.84455-0.71861-0.84455-0.41116 0-0.80751 0.3593-0.80751 0.94826zm0.29633-0.13705c0.037042-0.36301 0.2667-0.57044 0.51858-0.57044 0.28152 0 0.4445 0.20373 0.4445 0.57044z"/>
    <path d="m6.6494 150.87c0 0.32226 0.22595 0.51117 0.5297 0.51117 0.22225 0 0.42228-0.11853 0.59637-0.25929h0.00741l0.025929 0.21484h0.25188v-1.1038c0-0.4482-0.18521-0.74083-0.626-0.74083-0.28893 0-0.54081 0.12594-0.7075 0.23336l0.12224 0.21114c0.14076-0.0963 0.32597-0.19262 0.5371-0.19262 0.29263 0 0.37042 0.22225 0.37042 0.45191-0.76676 0.0852-1.1075 0.28151-1.1075 0.67416zm0.30004-0.0222c0-0.22966 0.20373-0.37782 0.80751-0.45191v0.50007c-0.1741 0.15557-0.31856 0.24077-0.49265 0.24077-0.1778 0-0.31485-0.0852-0.31485-0.28893z"/>
    <path d="m8.5041 150.44c0 0.60008 0.29263 0.94086 0.74454 0.94086 0.21114 0 0.40375-0.11853 0.54451-0.25559h0.011113l0.025929 0.21114h0.25188v-2.6374h-0.30745v0.69268l0.014817 0.30745c-0.15928-0.12965-0.29633-0.20743-0.50377-0.20743-0.41116 0-0.78158 0.363-0.78158 0.94826zm0.31485-4e-3c0-0.41116 0.22966-0.68898 0.51858-0.68898 0.14817 0 0.28522 0.0519 0.43709 0.18892v0.94086c-0.14817 0.16668-0.29263 0.24817-0.45932 0.24817-0.31485 0-0.49636-0.25929-0.49636-0.68897z"/>
   </g>
   <g fill="#a6aeb8" stroke-linecap="round" stroke-width=".26458" aria-label="TR">
    <path d="m16.649 155.57h0.26352v-1.8606h0.63182v-0.22225h-1.5272v0.22225h0.63182z"/>
    <path d="m18.167 153.7h0.34925c0.32385 0 0.50165 0.0984 0.50165 0.37148 0 0.26987-0.1778 0.40322-0.50165 0.40322h-0.34925zm1.1779 1.8701-0.53022-0.90805c0.28258-0.073 0.46672-0.2667 0.46672-0.59055 0-0.4318-0.3048-0.5842-0.72708-0.5842h-0.65405v2.0828h0.2667v-0.87948h0.37465l0.50165 0.87948z"/>
   </g>
  </g>
  <g fill="none" stroke="#009244" stroke-dashoffset="1.2" stroke-linecap="square" stroke-miterlimit="40" stroke-width=".26458">
   <path d="m-77.819 171.97v-2.9104h2.9104" style="paint-order:normal"/>
   <path d="m-47.392 171.97v-2.9104h-2.9104" style="paint-order:normal"/>
   <path d="m-77.819 180.7v2.9104h2.9104" style="paint-order:normal"/>
   <path d="m-47.392 180.7v2.9104h-2.9104" style="paint-order:normal"/>
  </g>
  <g>
   <rect x="-77.29" y="169.59" width="29.369" height="13.494" fill="#1d232d"/>
   <g fill="#e8eaec" stroke-linecap="round" stroke-width=".26458" aria-label="Group3">
    <path d="m-68.01 176.58c0 0.7927 0.45561 1.2594 1.0927 1.2594 0.32597 0 0.59637-0.12594 0.75565-0.28152v-1.0224h-0.7964v0.25559h0.51488v0.63341c-0.09631 0.0889-0.2667 0.14447-0.4408 0.14447-0.51858 0-0.80751-0.38524-0.80751-0.99643 0-0.60378 0.31485-0.9816 0.80751-0.9816 0.24077 0 0.39264 0.0963 0.51488 0.22595l0.1778-0.19632c-0.14446-0.14816-0.36671-0.30004-0.69638-0.30004-0.65193 0-1.1224 0.47784-1.1224 1.2594z"/>
    <path d="m-65.624 177.79h0.30374v-1.1557c0.12224-0.30374 0.30374-0.41487 0.45561-0.41487 0.07408 0 0.11483 0.0111 0.1741 0.0296l0.05927-0.2667c-0.05927-0.0259-0.11483-0.037-0.19262-0.037-0.20373 0-0.38894 0.14447-0.51118 0.37042h-0.01111l-0.02593-0.32597h-0.25188z"/>
    <path d="m-64.505 176.9c0 0.59637 0.39264 0.94086 0.83344 0.94086 0.4408 0 0.83344-0.34449 0.83344-0.94086 0-0.60378-0.39264-0.94827-0.83344-0.94827-0.4408 0-0.83344 0.34449-0.83344 0.94827zm0.31486 0c0-0.41487 0.21114-0.69638 0.51858-0.69638 0.31115 0 0.51858 0.28151 0.51858 0.69638 0 0.41116-0.20743 0.68898-0.51858 0.68898-0.30745 0-0.51858-0.27782-0.51858-0.68898z"/>
    <path d="m-62.387 177.13c0 0.45932 0.17039 0.70379 0.55192 0.70379 0.24818 0 0.42598-0.12965 0.59267-0.32597h0.01111l0.02593 0.28152h0.25188v-1.8002h-0.30374v1.2779c-0.17039 0.21114-0.30004 0.30374-0.48525 0.30374-0.23707 0-0.33708-0.14446-0.33708-0.48154v-1.1001h-0.30745z"/>
    <path d="m-60.046 177.63c0.16669 0.12964 0.33338 0.20743 0.50006 0.20743 0.41116 0 0.77788-0.3593 0.77788-0.97049 0-0.55933-0.24818-0.91864-0.7112-0.91864-0.21114 0-0.41116 0.11483-0.57415 0.25189h-0.01111l-0.02593-0.20744h-0.25188v2.5596h0.30374v-0.60749zm0.0074-0.23707v-0.94456c0.1778-0.15928 0.32967-0.24448 0.48154-0.24448 0.34078 0 0.47413 0.2667 0.47413 0.66305 0 0.4445-0.21855 0.7149-0.51488 0.7149-0.11853 0-0.27781-0.0519-0.4408-0.18891z"/>
    <path d="m-58.495 177.5c0.15928 0.17409 0.40005 0.33337 0.77788 0.33337 0.43339 0 0.77788-0.25559 0.77788-0.67416 0-0.32597-0.22595-0.5334-0.51118-0.60007v-0.0148c0.25559-0.0963 0.42968-0.27781 0.42968-0.56303 0-0.38153-0.29633-0.60008-0.7075-0.60008-0.27781 0-0.49636 0.12594-0.67786 0.29633l0.16298 0.19262c0.14076-0.14076 0.30745-0.24077 0.50377-0.24077 0.25188 0 0.40746 0.14446 0.40746 0.37412 0 0.24818-0.16669 0.4408-0.67046 0.4408v0.23336c0.56303 0 0.75565 0.18891 0.75565 0.47043 0 0.263-0.20373 0.43339-0.48895 0.43339-0.27781 0-0.46302-0.13335-0.60378-0.28152z"/>
   </g>
   <g fill="#a6aeb8" stroke-linecap="round" stroke-width=".26458" aria-label="TR">
    <path d="m-52.143 182.03h0.26352v-1.8606h0.63182v-0.22225h-1.5272v0.22225h0.63182z"/>
    <path d="m-50.624 180.16h0.34925c0.32385 0 0.50165 0.0984 0.50165 0.37148 0 0.26987-0.1778 0.40322-0.50165 0.40322h-0.34925zm1.1779 1.8701-0.53022-0.90805c0.28258-0.073 0.46672-0.2667 0.46672-0.59055 0-0.4318-0.3048-0.5842-0.72708-0.5842h-0.65405v2.0828h0.2667v-0.87948h0.37465l0.50165 0.87948z"/>
   </g>
  </g>
  <g fill="none" stroke="#009244" stroke-dashoffset="1.2" stroke-linecap="square" stroke-miterlimit="40" stroke-width=".26458">
   <path d="m59.765 171.97v-2.9104h2.9104" style="paint-order:normal"/>
   <path d="m90.192 171.97v-2.9104h-2.9104" style="paint-order:normal"/>
   <path d="m59.765 180.7v2.9104h2.9104" style="paint-order:normal"/>
   <path d="m90.192 180.7v2.9104h-2.9104" style="paint-order:normal"/>
  </g>
  <g>
   <rect x="60.294" y="169.59" width="29.369" height="13.494" fill="#1d232d"/>
   <g fill="#e8eaec" stroke-linecap="round" stroke-width=".26458" aria-label="Group5">
    <path d="m69.573 176.58c0 0.7927 0.45561 1.2594 1.0927 1.2594 0.32597 0 0.59637-0.12594 0.75565-0.28152v-1.0224h-0.7964v0.25559h0.51488v0.63341c-0.09631 0.0889-0.2667 0.14447-0.4408 0.14447-0.51858 0-0.80751-0.38524-0.80751-0.99643 0-0.60378 0.31486-0.9816 0.80751-0.9816 0.24077 0 0.39264 0.0963 0.51488 0.22595l0.1778-0.19632c-0.14446-0.14816-0.36671-0.30004-0.69638-0.30004-0.65193 0-1.1224 0.47784-1.1224 1.2594z"/>
    <path d="m71.96 177.79h0.30374v-1.1557c0.12224-0.30374 0.30374-0.41487 0.45561-0.41487 0.07408 0 0.11483 0.0111 0.1741 0.0296l0.05927-0.2667c-0.05927-0.0259-0.11483-0.037-0.19262-0.037-0.20373 0-0.38894 0.14447-0.51118 0.37042h-0.01111l-0.02593-0.32597h-0.25188z"/>
    <path d="m73.078 176.9c0 0.59637 0.39264 0.94086 0.83344 0.94086s0.83344-0.34449 0.83344-0.94086c0-0.60378-0.39264-0.94827-0.83344-0.94827s-0.83344 0.34449-0.83344 0.94827zm0.31485 0c0-0.41487 0.21114-0.69638 0.51858-0.69638 0.31115 0 0.51858 0.28151 0.51858 0.69638 0 0.41116-0.20743 0.68898-0.51858 0.68898-0.30745 0-0.51858-0.27782-0.51858-0.68898z"/>
    <path d="m75.197 177.13c0 0.45932 0.17039 0.70379 0.55192 0.70379 0.24818 0 0.42598-0.12965 0.59267-0.32597h0.01111l0.02593 0.28152h0.25188v-1.8002h-0.30374v1.2779c-0.17039 0.21114-0.30004 0.30374-0.48525 0.30374-0.23707 0-0.33708-0.14446-0.33708-0.48154v-1.1001h-0.30745z"/>
    <path d="m77.537 177.63c0.16669 0.12964 0.33338 0.20743 0.50006 0.20743 0.41116 0 0.77788-0.3593 0.77788-0.97049 0-0.55933-0.24818-0.91864-0.7112-0.91864-0.21114 0-0.41116 0.11483-0.57415 0.25189h-0.01111l-0.02593-0.20744h-0.25188v2.5596h0.30374v-0.60749zm0.0074-0.23707v-0.94456c0.1778-0.15928 0.32967-0.24448 0.48154-0.24448 0.34078 0 0.47413 0.2667 0.47413 0.66305 0 0.4445-0.21855 0.7149-0.51488 0.7149-0.11853 0-0.27781-0.0519-0.4408-0.18891z"/>
    <path d="m79.084 177.51c0.16298 0.16298 0.39635 0.32226 0.77417 0.32226 0.41116 0 0.7964-0.28892 0.7964-0.8001s-0.32967-0.74083-0.73343-0.74083c-0.14446 0-0.25188 0.037-0.36301 0.0963l0.06297-0.70008h0.91493v-0.263h-1.1816l-0.07779 1.1372 0.16298 0.10372c0.14076-0.0926 0.24077-0.14447 0.40376-0.14447 0.30374 0 0.50377 0.19262 0.50377 0.51859 0 0.32967-0.22966 0.54081-0.51858 0.54081-0.27781 0-0.45561-0.12965-0.59637-0.27041z"/>
   </g>
   <g fill="#a6aeb8" stroke-linecap="round" stroke-width=".26458" aria-label="TR">
    <path d="m85.441 182.03h0.26352v-1.8606h0.63182v-0.22225h-1.5272v0.22225h0.63182z"/>
    <path d="m86.959 180.16h0.34925c0.32385 0 0.50165 0.0984 0.50165 0.37148 0 0.26987-0.1778 0.40322-0.50165 0.40322h-0.34925zm1.1779 1.8701-0.53022-0.90805c0.28258-0.073 0.46672-0.2667 0.46672-0.59055 0-0.4318-0.3048-0.5842-0.72708-0.5842h-0.65405v2.0828h0.2667v-0.87948h0.37465l0.50165 0.87948z"/>
   </g>
  </g>
  <g fill="none" stroke="#009244" stroke-dashoffset="1.2" stroke-linecap="square" stroke-miterlimit="40" stroke-width=".26458">
   <path d="m-9.0271 171.97v-2.9104h2.9104" style="paint-order:normal"/>
   <path d="m21.4 171.97v-2.9104h-2.9104" style="paint-order:normal"/>
   <path d="m-9.0271 180.7v2.9104h2.9104" style="paint-order:normal"/>
   <path d="m21.4 180.7v2.9104h-2.9104" style="paint-order:normal"/>
  </g>
  <g>
   <rect x="-8.4979" y="169.59" width="29.369" height="13.494" fill="#1d232d"/>
   <g fill="#e8eaec" stroke-linecap="round" stroke-width=".26458" aria-label="Group4">
    <path d="m0.78123 176.58c0 0.7927 0.45561 1.2594 1.0927 1.2594 0.32597 0 0.59637-0.12594 0.75565-0.28152v-1.0224h-0.7964v0.25559h0.51488v0.63341c-0.096308 0.0889-0.2667 0.14447-0.4408 0.14447-0.51858 0-0.80751-0.38524-0.80751-0.99643 0-0.60378 0.31485-0.9816 0.80751-0.9816 0.24077 0 0.39264 0.0963 0.51488 0.22595l0.1778-0.19632c-0.14446-0.14816-0.36671-0.30004-0.69638-0.30004-0.65193 0-1.1224 0.47784-1.1224 1.2594z"/>
    <path d="m3.1679 177.79h0.30374v-1.1557c0.12224-0.30374 0.30374-0.41487 0.45561-0.41487 0.074083 0 0.11483 0.0111 0.1741 0.0296l0.059267-0.2667c-0.059267-0.0259-0.11483-0.037-0.19262-0.037-0.20373 0-0.38894 0.14447-0.51118 0.37042h-0.011113l-0.025929-0.32597h-0.25188z"/>
    <path d="m4.2862 176.9c0 0.59637 0.39264 0.94086 0.83344 0.94086 0.4408 0 0.83344-0.34449 0.83344-0.94086 0-0.60378-0.39264-0.94827-0.83344-0.94827-0.4408 0-0.83344 0.34449-0.83344 0.94827zm0.31485 0c0-0.41487 0.21114-0.69638 0.51858-0.69638 0.31115 0 0.51858 0.28151 0.51858 0.69638 0 0.41116-0.20743 0.68898-0.51858 0.68898-0.30745 0-0.51858-0.27782-0.51858-0.68898z"/>
    <path d="m6.4049 177.13c0 0.45932 0.17039 0.70379 0.55192 0.70379 0.24818 0 0.42598-0.12965 0.59267-0.32597h0.011113l0.025929 0.28152h0.25188v-1.8002h-0.30374v1.2779c-0.17039 0.21114-0.30004 0.30374-0.48525 0.30374-0.23707 0-0.33708-0.14446-0.33708-0.48154v-1.1001h-0.30745z"/>
    <path d="m8.7456 177.63c0.16669 0.12964 0.33338 0.20743 0.50006 0.20743 0.41116 0 0.77788-0.3593 0.77788-0.97049 0-0.55933-0.24818-0.91864-0.7112-0.91864-0.21114 0-0.41116 0.11483-0.57415 0.25189h-0.011112l-0.025929-0.20744h-0.25188v2.5596h0.30374v-0.60749zm0.00741-0.23707v-0.94456c0.1778-0.15928 0.32967-0.24448 0.48154-0.24448 0.34078 0 0.47413 0.2667 0.47413 0.66305 0 0.4445-0.21855 0.7149-0.51488 0.7149-0.11853 0-0.27781-0.0519-0.4408-0.18891z"/>
    <path d="m10.585 176.9 0.55192-0.80751c0.06668-0.11483 0.13335-0.21854 0.19262-0.33337h0.01482c-0.0074 0.12594-0.01852 0.32967-0.01852 0.45561v0.68527zm1.352 0h-0.32226v-1.4668h-0.34078l-1.0112 1.5113v0.20003h1.0631v0.65193h0.28892v-0.65193h0.32226z"/>
   </g>
   <g fill="#a6aeb8" stroke-linecap="round" stroke-width=".26458" aria-label="TR">
    <path d="m16.649 182.03h0.26352v-1.8606h0.63182v-0.22225h-1.5272v0.22225h0.63182z"/>
    <path d="m18.167 180.16h0.34925c0.32385 0 0.50165 0.0984 0.50165 0.37148 0 0.26987-0.1778 0.40322-0.50165 0.40322h-0.34925zm1.1779 1.8701-0.53022-0.90805c0.28258-0.073 0.46672-0.2667 0.46672-0.59055 0-0.4318-0.3048-0.5842-0.72708-0.5842h-0.65405v2.0828h0.2667v-0.87948h0.37465l0.50165 0.87948z"/>
   </g>
  </g>
  <g fill="none" stroke="#009244" stroke-dashoffset="1.2" stroke-linecap="square" stroke-miterlimit="40" stroke-width=".26458">
   <path d="m-146.61 171.97v-2.9104h2.9104" style="paint-order:normal"/>
   <path d="m-116.18 171.97v-2.9104h-2.9104" style="paint-order:normal"/>
   <path d="m-146.61 180.7v2.9104h2.9104" style="paint-order:normal"/>
   <path d="m-116.18 180.7v2.9104h-2.9104" style="paint-order:normal"/>
  </g>
  <g>
   <rect x="-146.08" y="169.59" width="29.369" height="13.494" fill="#1d232d"/>
   <g fill="#e8eaec" stroke-linecap="round" stroke-width=".26458" aria-label="Group2">
    <path d="m-136.8 176.58c0 0.7927 0.45561 1.2594 1.0927 1.2594 0.32596 0 0.59637-0.12594 0.75565-0.28152v-1.0224h-0.7964v0.25559h0.51488v0.63341c-0.0963 0.0889-0.2667 0.14447-0.4408 0.14447-0.51858 0-0.80751-0.38524-0.80751-0.99643 0-0.60378 0.31486-0.9816 0.80751-0.9816 0.24078 0 0.39265 0.0963 0.51488 0.22595l0.1778-0.19632c-0.14446-0.14816-0.36671-0.30004-0.69638-0.30004-0.65193 0-1.1224 0.47784-1.1224 1.2594z"/>
    <path d="m-134.42 177.79h0.30374v-1.1557c0.12224-0.30374 0.30374-0.41487 0.45561-0.41487 0.0741 0 0.11483 0.0111 0.1741 0.0296l0.0593-0.2667c-0.0593-0.0259-0.11482-0.037-0.19261-0.037-0.20373 0-0.38894 0.14447-0.51118 0.37042h-0.0111l-0.0259-0.32597h-0.25188z"/>
    <path d="m-133.3 176.9c0 0.59637 0.39264 0.94086 0.83344 0.94086s0.83344-0.34449 0.83344-0.94086c0-0.60378-0.39264-0.94827-0.83344-0.94827s-0.83344 0.34449-0.83344 0.94827zm0.31486 0c0-0.41487 0.21113-0.69638 0.51858-0.69638 0.31115 0 0.51858 0.28151 0.51858 0.69638 0 0.41116-0.20743 0.68898-0.51858 0.68898-0.30745 0-0.51858-0.27782-0.51858-0.68898z"/>
    <path d="m-131.18 177.13c0 0.45932 0.17039 0.70379 0.55192 0.70379 0.24818 0 0.42598-0.12965 0.59267-0.32597h0.0111l0.0259 0.28152h0.25188v-1.8002h-0.30374v1.2779c-0.17039 0.21114-0.30004 0.30374-0.48524 0.30374-0.23707 0-0.33708-0.14446-0.33708-0.48154v-1.1001h-0.30745z"/>
    <path d="m-128.84 177.63c0.16668 0.12964 0.33337 0.20743 0.50006 0.20743 0.41116 0 0.77788-0.3593 0.77788-0.97049 0-0.55933-0.24818-0.91864-0.71121-0.91864-0.21113 0-0.41116 0.11483-0.57414 0.25189h-0.0111l-0.0259-0.20744h-0.25189v2.5596h0.30375v-0.60749zm7e-3 -0.23707v-0.94456c0.1778-0.15928 0.32967-0.24448 0.48154-0.24448 0.34078 0 0.47413 0.2667 0.47413 0.66305 0 0.4445-0.21855 0.7149-0.51488 0.7149-0.11853 0-0.27781-0.0519-0.44079-0.18891z"/>
    <path d="m-127.23 177.79h1.5261v-0.263h-0.68527c-0.12224 0-0.2667 0.0111-0.39634 0.0222 0.55933-0.58526 0.96308-1.0261 0.96308-1.4706 0-0.41857-0.2704-0.69638-0.7075-0.69638-0.30744 0-0.51858 0.14446-0.7149 0.3593l0.17409 0.1741c0.13706-0.15928 0.30745-0.28522 0.50377-0.28522 0.30004 0 0.44821 0.19262 0.44821 0.46302 0 0.38153-0.40005 0.80751-1.1112 1.515z"/>
   </g>
   <g fill="#a6aeb8" stroke-linecap="round" stroke-width=".26458" aria-label="TR">
    <path d="m-120.93 182.03h0.26352v-1.8606h0.63183v-0.22225h-1.5272v0.22225h0.63183z"/>
    <path d="m-119.42 180.16h0.34925c0.32385 0 0.50165 0.0984 0.50165 0.37148 0 0.26987-0.1778 0.40322-0.50165 0.40322h-0.34925zm1.1779 1.8701-0.53023-0.90805c0.28258-0.073 0.46673-0.2667 0.46673-0.59055 0-0.4318-0.3048-0.5842-0.72708-0.5842h-0.65405v2.0828h0.2667v-0.87948h0.37465l0.50165 0.87948z"/>
   </g>
  </g>
  <g fill="none" stroke="#009244" stroke-dashoffset="1.2" stroke-linecap="square" stroke-miterlimit="40" stroke-width=".26458">
   <path d="m-163.81 198.43v-2.9104h2.9104" style="paint-order:normal"/>
   <path d="m-133.38 198.43v-2.9104h-2.9104" style="paint-order:normal"/>
   <path d="m-163.81 207.16v2.9104h2.9104" style="paint-order:normal"/>
   <path d="m-133.38 207.16v2.9104h-2.9104" style="paint-order:normal"/>
  </g>
  <g>
   <rect x="-163.28" y="196.05" width="29.369" height="13.494" fill="#1d232d"/>
   <g fill="#e8eaec" stroke-linecap="round" stroke-width=".26458" aria-label="Left Lower Arm">
    <path d="m-159.7 204.25h1.3706v-0.26299h-1.0594v-2.1669h-0.31115z"/>
    <path d="m-158.11 203.35c0 0.58897 0.38153 0.94086 0.86307 0.94086 0.24448 0 0.4371-0.0852 0.59267-0.1852l-0.10742-0.20003c-0.13335 0.0852-0.27781 0.14076-0.4482 0.14076-0.34449 0-0.57785-0.24448-0.60008-0.63341h1.215c7e-3 -0.0445 0.0111-0.10372 0.0111-0.16669 0-0.51488-0.25929-0.84455-0.71861-0.84455-0.41116 0-0.80751 0.3593-0.80751 0.94826zm0.29634-0.13705c0.037-0.36301 0.2667-0.57044 0.51858-0.57044 0.28152 0 0.4445 0.20373 0.4445 0.57044z"/>
    <path d="m-154.35 204c-0.0593 0.0222-0.14076 0.0481-0.20373 0.0481-0.20743 0-0.28151-0.12594-0.28151-0.34819v-1.0001h0.48895v-0.24818h-0.48895v-0.50377h-0.25189l-0.037 0.50377h-0.65934v-0.28522c0-0.22966 0.0815-0.3482 0.25188-0.3482 0.0667 0 0.13706 0.0148 0.20373 0.0445l0.0667-0.23336c-0.0815-0.0333-0.18892-0.0593-0.30004-0.0593-0.35931 0-0.52599 0.22966-0.52599 0.59638v0.28522l-0.24448 0.0185v0.22966h0.24448v1.552h0.30374v-1.552h0.64452v0.99642c0 0.3556 0.12965 0.60007 0.51488 0.60007 0.11113 0 0.23337-0.0333 0.33338-0.0667z"/>
    <path d="m-153.18 204.25h1.3705v-0.26299h-1.0594v-2.1669h-0.31115z"/>
    <path d="m-151.59 203.35c0 0.59638 0.39265 0.94086 0.83344 0.94086 0.4408 0 0.83344-0.34448 0.83344-0.94086 0-0.60377-0.39264-0.94826-0.83344-0.94826-0.44079 0-0.83344 0.34449-0.83344 0.94826zm0.31486 0c0-0.41486 0.21114-0.69638 0.51858-0.69638 0.31115 0 0.51859 0.28152 0.51859 0.69638 0 0.41117-0.20744 0.68898-0.51859 0.68898-0.30744 0-0.51858-0.27781-0.51858-0.68898z"/>
    <path d="m-149.18 204.25h0.3556l0.25189-0.96308c0.0481-0.17039 0.0852-0.34078 0.12594-0.52229h0.0148c0.0445 0.18151 0.0778 0.34819 0.12223 0.51859l0.2593 0.96678h0.37041l0.48154-1.8002h-0.28892l-0.263 1.0409c-0.037 0.17039-0.0704 0.33337-0.11112 0.50006h-0.0148c-0.0407-0.16669-0.0815-0.32967-0.12594-0.50006l-0.28152-1.0409h-0.29633l-0.27781 1.0409c-0.0444 0.16669-0.0815 0.33337-0.12224 0.50006h-0.0148c-0.0333-0.16669-0.0667-0.32967-0.10742-0.50006l-0.2667-1.0409h-0.31115z"/>
    <path d="m-146.95 203.35c0 0.58897 0.38153 0.94086 0.86307 0.94086 0.24447 0 0.43709-0.0852 0.59267-0.1852l-0.10743-0.20003c-0.13335 0.0852-0.27781 0.14076-0.4482 0.14076-0.34449 0-0.57785-0.24448-0.60008-0.63341h1.215c7e-3 -0.0445 0.0111-0.10372 0.0111-0.16669 0-0.51488-0.25929-0.84455-0.7186-0.84455-0.41117 0-0.80751 0.3593-0.80751 0.94826zm0.29633-0.13705c0.037-0.36301 0.2667-0.57044 0.51858-0.57044 0.28152 0 0.4445 0.20373 0.4445 0.57044z"/>
    <path d="m-144.98 204.25h0.30374v-1.1557c0.12224-0.30374 0.30375-0.41486 0.45562-0.41486 0.0741 0 0.11483 0.0111 0.17409 0.0296l0.0593-0.2667c-0.0593-0.0259-0.11483-0.037-0.19262-0.037-0.20373 0-0.38894 0.14446-0.51117 0.37041h-0.0111l-0.0259-0.32596h-0.25188z"/>
    <path d="m-142.62 203.26 0.11853-0.37042c0.0852-0.2704 0.16298-0.5371 0.24077-0.81862h0.0148c0.0778 0.28152 0.15557 0.54822 0.24077 0.81862l0.11483 0.37042zm1.0409 0.98901h0.32597l-0.82233-2.4299h-0.34819l-0.82233 2.4299h0.31486l0.23336-0.74083h0.8853z"/>
    <path d="m-140.96 204.25h0.30374v-1.1557c0.12224-0.30374 0.30374-0.41486 0.45561-0.41486 0.0741 0 0.11483 0.0111 0.1741 0.0296l0.0593-0.2667c-0.0593-0.0259-0.11483-0.037-0.19262-0.037-0.20373 0-0.38894 0.14446-0.51118 0.37041h-0.0111l-0.0259-0.32596h-0.25188z"/>
    <path d="m-139.67 204.25h0.30374v-1.3039c0.16669-0.18521 0.31856-0.27782 0.45191-0.27782 0.22966 0 0.33708 0.14447 0.33708 0.48155v1.1001h0.30374v-1.3039c0.16669-0.18521 0.31115-0.27782 0.45191-0.27782 0.22595 0 0.33337 0.14447 0.33337 0.48155v1.1001h0.30374v-1.1409c0-0.45932-0.1778-0.70379-0.54821-0.70379-0.21855 0-0.40376 0.14076-0.59267 0.34449-0.0741-0.21485-0.22225-0.34449-0.49636-0.34449-0.21484 0-0.40375 0.13335-0.55933 0.30374h-0.0111l-0.0259-0.25929h-0.25188z"/>
   </g>
   <g fill="#a6aeb8" stroke-linecap="round" stroke-width=".26458" aria-label="TRI">
    <path d="m-138.54 208.48h0.26352v-1.8606h0.63183v-0.22225h-1.5272v0.22225h0.63183z"/>
    <path d="m-137.02 206.61h0.34925c0.32385 0 0.50165 0.0984 0.50165 0.37148 0 0.26987-0.1778 0.40322-0.50165 0.40322h-0.34925zm1.1779 1.8701-0.53023-0.90805c0.28258-0.073 0.46673-0.2667 0.46673-0.59055 0-0.4318-0.3048-0.5842-0.72708-0.5842h-0.65405v2.0828h0.2667v-0.87948h0.37465l0.50165 0.87948z"/>
    <path d="m-135.46 208.48h0.2667v-2.0828h-0.2667z"/>
   </g>
  </g>
  <g fill="none" stroke="#009244" stroke-dashoffset="1.2" stroke-linecap="square" stroke-miterlimit="40" stroke-width=".26458">
   <path d="m-129.41 198.43v-2.9104h2.9104" style="paint-order:normal"/>
   <path d="m-98.985 198.43v-2.9104h-2.9104" style="paint-order:normal"/>
   <path d="m-129.41 207.16v2.9104h2.9104" style="paint-order:normal"/>
   <path d="m-98.985 207.16v2.9104h-2.9104" style="paint-order:normal"/>
  </g>
  <g>
   <rect x="-128.88" y="196.05" width="29.369" height="13.494" fill="#1d232d"/>
   <g fill="#e8eaec" stroke-linecap="round" stroke-width=".26458" aria-label="Left Upper Arm">
    <path d="m-125.35 204.25h1.3705v-0.26299h-1.0594v-2.1669h-0.31115z"/>
    <path d="m-123.77 203.35c0 0.58897 0.38153 0.94086 0.86307 0.94086 0.24447 0 0.43709-0.0852 0.59266-0.1852l-0.10742-0.20003c-0.13335 0.0852-0.27781 0.14076-0.4482 0.14076-0.34449 0-0.57785-0.24448-0.60008-0.63341h1.215c7e-3 -0.0445 0.0111-0.10372 0.0111-0.16669 0-0.51488-0.25929-0.84455-0.7186-0.84455-0.41117 0-0.80751 0.3593-0.80751 0.94826zm0.29633-0.13705c0.037-0.36301 0.2667-0.57044 0.51858-0.57044 0.28152 0 0.4445 0.20373 0.4445 0.57044z"/>
    <path d="m-120.01 204c-0.0593 0.0222-0.14076 0.0481-0.20373 0.0481-0.20744 0-0.28152-0.12594-0.28152-0.34819v-1.0001h0.48895v-0.24818h-0.48895v-0.50377h-0.25188l-0.0371 0.50377h-0.65934v-0.28522c0-0.22966 0.0815-0.3482 0.25189-0.3482 0.0667 0 0.13705 0.0148 0.20373 0.0445l0.0667-0.23336c-0.0815-0.0333-0.18891-0.0593-0.30004-0.0593-0.3593 0-0.52599 0.22966-0.52599 0.59638v0.28522l-0.24448 0.0185v0.22966h0.24448v1.552h0.30374v-1.552h0.64453v0.99642c0 0.3556 0.12964 0.60007 0.51488 0.60007 0.11112 0 0.23336-0.0333 0.33337-0.0667z"/>
    <path d="m-118.85 203.25c0 0.78158 0.37782 1.0483 0.87418 1.0483s0.87418-0.2667 0.87418-1.0483v-1.4261h-0.29633v1.4335c0 0.58526-0.25559 0.77047-0.57785 0.77047-0.31485 0-0.56303-0.18521-0.56303-0.77047v-1.4335h-0.31115z"/>
    <path d="m-116.18 204.09c0.16669 0.12965 0.33338 0.20743 0.50007 0.20743 0.41116 0 0.77787-0.3593 0.77787-0.97049 0-0.55933-0.24818-0.91863-0.7112-0.91863-0.21113 0-0.41116 0.11483-0.57414 0.25188h-0.0111l-0.0259-0.20743h-0.25188v2.5596h0.30374v-0.60748zm7e-3 -0.23707v-0.94456c0.1778-0.15928 0.32967-0.24447 0.48155-0.24447 0.34078 0 0.47413 0.2667 0.47413 0.66304 0 0.4445-0.21855 0.71491-0.51488 0.71491-0.11853 0-0.27781-0.0519-0.4408-0.18892z"/>
    <path d="m-114.13 204.09c0.16669 0.12965 0.33338 0.20743 0.50006 0.20743 0.41117 0 0.77788-0.3593 0.77788-0.97049 0-0.55933-0.24818-0.91863-0.7112-0.91863-0.21114 0-0.41116 0.11483-0.57415 0.25188h-0.0111l-0.0259-0.20743h-0.25188v2.5596h0.30374v-0.60748zm7e-3 -0.23707v-0.94456c0.1778-0.15928 0.32967-0.24447 0.48154-0.24447 0.34079 0 0.47414 0.2667 0.47414 0.66304 0 0.4445-0.21855 0.71491-0.51488 0.71491-0.11854 0-0.27782-0.0519-0.4408-0.18892z"/>
    <path d="m-112.5 203.35c0 0.58897 0.38152 0.94086 0.86307 0.94086 0.24447 0 0.43709-0.0852 0.59266-0.1852l-0.10742-0.20003c-0.13335 0.0852-0.27781 0.14076-0.4482 0.14076-0.34449 0-0.57785-0.24448-0.60008-0.63341h1.215c7e-3 -0.0445 0.0111-0.10372 0.0111-0.16669 0-0.51488-0.25929-0.84455-0.71861-0.84455-0.41116 0-0.8075 0.3593-0.8075 0.94826zm0.29633-0.13705c0.037-0.36301 0.2667-0.57044 0.51858-0.57044 0.28152 0 0.4445 0.20373 0.4445 0.57044z"/>
    <path d="m-110.53 204.25h0.30374v-1.1557c0.12224-0.30374 0.30374-0.41486 0.45562-0.41486 0.0741 0 0.11482 0.0111 0.17409 0.0296l0.0593-0.2667c-0.0593-0.0259-0.11483-0.037-0.19262-0.037-0.20373 0-0.38894 0.14446-0.51117 0.37041h-0.0111l-0.0259-0.32596h-0.25188z"/>
    <path d="m-108.18 203.26 0.11853-0.37042c0.0852-0.2704 0.16298-0.5371 0.24077-0.81862h0.0148c0.0778 0.28152 0.15557 0.54822 0.24077 0.81862l0.11483 0.37042zm1.0409 0.98901h0.32596l-0.82232-2.4299h-0.34819l-0.82233 2.4299h0.31486l0.23336-0.74083h0.88529z"/>
    <path d="m-106.51 204.25h0.30374v-1.1557c0.12224-0.30374 0.30374-0.41486 0.45561-0.41486 0.0741 0 0.11483 0.0111 0.1741 0.0296l0.0593-0.2667c-0.0593-0.0259-0.11483-0.037-0.19262-0.037-0.20373 0-0.38894 0.14446-0.51118 0.37041h-0.0111l-0.0259-0.32596h-0.25188z"/>
    <path d="m-105.22 204.25h0.30374v-1.3039c0.16668-0.18521 0.31856-0.27782 0.45191-0.27782 0.22965 0 0.33708 0.14447 0.33708 0.48155v1.1001h0.30374v-1.3039c0.16669-0.18521 0.31115-0.27782 0.45191-0.27782 0.22595 0 0.33337 0.14447 0.33337 0.48155v1.1001h0.30374v-1.1409c0-0.45932-0.1778-0.70379-0.54821-0.70379-0.21855 0-0.40376 0.14076-0.59267 0.34449-0.0741-0.21485-0.22225-0.34449-0.49636-0.34449-0.21484 0-0.40375 0.13335-0.55933 0.30374h-0.0111l-0.0259-0.25929h-0.25188z"/>
   </g>
   <g fill="#a6aeb8" stroke="#cf2f25" stroke-linecap="round" stroke-width=".26458" aria-label="I">
    <path d="m-101.5 208.48h0.2667v-2.0828h-0.2667z" fill="#a6aeb8" stroke="none"/>
   </g>
  </g>
  <g fill="none" stroke="#009244" stroke-dashoffset="1.2" stroke-linecap="square" stroke-miterlimit="40" stroke-width=".26458">
   <path d="m-95.017 198.43v-2.9104h2.9104" style="paint-order:normal"/>
   <path d="m-64.59 198.43v-2.9104h-2.9104" style="paint-order:normal"/>
   <path d="m-95.017 207.16v2.9104h2.9104" style="paint-order:normal"/>
   <path d="m-64.59 207.16v2.9104h-2.9104" style="paint-order:normal"/>
  </g>
  <g>
   <rect x="-94.487" y="196.05" width="29.369" height="13.494" fill="#1d232d"/>
   <g fill="#e8eaec" stroke-linecap="round" stroke-width=".26458" aria-label="Right Lower Arm">
    <path d="m-91.799 202.07h0.40746c0.37783 0 0.58526 0.11483 0.58526 0.43339 0 0.31485-0.20743 0.47043-0.58526 0.47043h-0.40746zm1.3742 2.1818-0.6186-1.0594c0.32967-0.0852 0.54451-0.31115 0.54451-0.68897 0-0.50377-0.3556-0.68157-0.84826-0.68157h-0.76306v2.4299h0.31115v-1.026h0.43709l0.58526 1.026z"/>
    <path d="m-89.839 202.08c0.11853 0 0.21114-0.0815 0.21114-0.19632 0-0.11853-0.0926-0.19632-0.21114-0.19632-0.11853 0-0.21114 0.0778-0.21114 0.19632 0 0.11483 0.0926 0.19632 0.21114 0.19632zm-0.15558 2.1706h0.30374v-1.8002h-0.30374z"/>
    <path d="m-88.954 204.55c0-0.10372 0.05556-0.21114 0.18521-0.30375 0.07779 0.0222 0.16298 0.0296 0.23336 0.0296h0.31115c0.23336 0 0.36301 0.0556 0.36301 0.22225 0 0.18891-0.22595 0.36671-0.57044 0.36671-0.32597 0-0.52229-0.12224-0.52229-0.31485zm-0.2667 0.0407c0 0.31115 0.30374 0.48525 0.74454 0.48525 0.55933 0 0.91123-0.28893 0.91123-0.6223 0-0.30004-0.21114-0.42969-0.62971-0.42969h-0.34819c-0.24448 0-0.31856-0.0815-0.31856-0.19632 0-0.10001 0.05186-0.15928 0.11483-0.21484 0.08149 0.0408 0.1815 0.063 0.2704 0.063 0.36671 0 0.65934-0.24077 0.65934-0.626 0-0.15187-0.06297-0.28893-0.14817-0.37042h0.37042v-0.23336h-0.626c-0.06668-0.0259-0.15558-0.0445-0.25559-0.0445-0.36671 0-0.67786 0.24818-0.67786 0.64082 0 0.21484 0.11483 0.38894 0.23336 0.48525v0.0148c-0.0926 0.063-0.19632 0.18151-0.19632 0.33338 0 0.14076 0.07038 0.23706 0.15928 0.29263v0.0148c-0.16298 0.11113-0.263 0.25559-0.263 0.40746zm0.74454-1.1187c-0.20743 0-0.38153-0.16669-0.38153-0.42968 0-0.263 0.17039-0.41857 0.38153-0.41857s0.38153 0.15557 0.38153 0.41857c0 0.26299-0.1741 0.42968-0.38153 0.42968z"/>
    <path d="m-87.217 204.25h0.30374v-1.3039c0.1815-0.18151 0.30745-0.27782 0.49266-0.27782 0.23707 0 0.34078 0.14447 0.34078 0.48155v1.1001h0.30374v-1.1409c0-0.45932-0.17039-0.70379-0.54822-0.70379-0.24818 0-0.42968 0.13335-0.60008 0.29633l0.01111-0.37042v-0.7186h-0.30374z"/>
    <path d="m-85.146 203.69c0 0.3556 0.12965 0.60007 0.51488 0.60007 0.11112 0 0.23336-0.0333 0.33338-0.0667l-0.05927-0.22966c-0.05927 0.0222-0.14076 0.0481-0.20373 0.0481-0.20743 0-0.27781-0.12594-0.27781-0.34819v-1.0001h0.48525v-0.24818h-0.48525v-0.50377h-0.25559l-0.03704 0.50377-0.28152 0.0185v0.22966h0.2667z"/>
    <path d="m-83.183 204.25h1.3705v-0.26299h-1.0594v-2.1669h-0.31115z"/>
    <path d="m-81.598 203.35c0 0.59638 0.39264 0.94086 0.83344 0.94086 0.4408 0 0.83344-0.34448 0.83344-0.94086 0-0.60377-0.39264-0.94826-0.83344-0.94826-0.4408 0-0.83344 0.34449-0.83344 0.94826zm0.31486 0c0-0.41486 0.21114-0.69638 0.51858-0.69638 0.31115 0 0.51858 0.28152 0.51858 0.69638 0 0.41117-0.20743 0.68898-0.51858 0.68898-0.30745 0-0.51858-0.27781-0.51858-0.68898z"/>
    <path d="m-79.183 204.25h0.3556l0.25188-0.96308c0.04815-0.17039 0.0852-0.34078 0.12594-0.52229h0.01482c0.04445 0.18151 0.07779 0.34819 0.12224 0.51859l0.25929 0.96678h0.37042l0.48154-1.8002h-0.28893l-0.263 1.0409c-0.03704 0.17039-0.07038 0.33337-0.11112 0.50006h-0.01482c-0.04075-0.16669-0.08149-0.32967-0.12594-0.50006l-0.28152-1.0409h-0.29633l-0.27781 1.0409c-0.04445 0.16669-0.08149 0.33337-0.12224 0.50006h-0.01482c-0.03334-0.16669-0.06668-0.32967-0.10742-0.50006l-0.2667-1.0409h-0.31115z"/>
    <path d="m-76.954 203.35c0 0.58897 0.38153 0.94086 0.86307 0.94086 0.24448 0 0.43709-0.0852 0.59267-0.1852l-0.10742-0.20003c-0.13335 0.0852-0.27781 0.14076-0.4482 0.14076-0.34449 0-0.57785-0.24448-0.60008-0.63341h1.215c0.0074-0.0445 0.01111-0.10372 0.01111-0.16669 0-0.51488-0.25929-0.84455-0.71861-0.84455-0.41116 0-0.80751 0.3593-0.80751 0.94826zm0.29633-0.13705c0.03704-0.36301 0.2667-0.57044 0.51858-0.57044 0.28152 0 0.4445 0.20373 0.4445 0.57044z"/>
    <path d="m-74.983 204.25h0.30374v-1.1557c0.12224-0.30374 0.30374-0.41486 0.45561-0.41486 0.07408 0 0.11483 0.0111 0.1741 0.0296l0.05927-0.2667c-0.05927-0.0259-0.11483-0.037-0.19262-0.037-0.20373 0-0.38894 0.14446-0.51118 0.37041h-0.01111l-0.02593-0.32596h-0.25188z"/>
    <path d="m-72.628 203.26 0.11853-0.37042c0.0852-0.2704 0.16298-0.5371 0.24077-0.81862h0.01482c0.07779 0.28152 0.15558 0.54822 0.24077 0.81862l0.11483 0.37042zm1.0409 0.98901h0.32597l-0.82233-2.4299h-0.34819l-0.82233 2.4299h0.31486l0.23336-0.74083h0.8853z"/>
    <path d="m-70.96 204.25h0.30374v-1.1557c0.12224-0.30374 0.30374-0.41486 0.45561-0.41486 0.07408 0 0.11483 0.0111 0.1741 0.0296l0.05927-0.2667c-0.05927-0.0259-0.11483-0.037-0.19262-0.037-0.20373 0-0.38894 0.14446-0.51118 0.37041h-0.01111l-0.02593-0.32596h-0.25188z"/>
    <path d="m-69.673 204.25h0.30374v-1.3039c0.16669-0.18521 0.31856-0.27782 0.45191-0.27782 0.22966 0 0.33708 0.14447 0.33708 0.48155v1.1001h0.30374v-1.3039c0.16669-0.18521 0.31115-0.27782 0.45191-0.27782 0.22595 0 0.33338 0.14447 0.33338 0.48155v1.1001h0.30374v-1.1409c0-0.45932-0.1778-0.70379-0.54822-0.70379-0.21855 0-0.40375 0.14076-0.59267 0.34449-0.07408-0.21485-0.22225-0.34449-0.49636-0.34449-0.21484 0-0.40375 0.13335-0.55933 0.30374h-0.01111l-0.02593-0.25929h-0.25188z"/>
   </g>
   <g fill="#a6aeb8" stroke-linecap="round" stroke-width=".26458" aria-label="TR">
    <path d="m-69.341 208.48h0.26352v-1.8606h0.63182v-0.22225h-1.5272v0.22225h0.63182z"/>
    <path d="m-67.822 206.61h0.34925c0.32385 0 0.50165 0.0984 0.50165 0.37148 0 0.26987-0.1778 0.40322-0.50165 0.40322h-0.34925zm1.1779 1.8701-0.53022-0.90805c0.28258-0.073 0.46672-0.2667 0.46672-0.59055 0-0.4318-0.3048-0.5842-0.72708-0.5842h-0.65405v2.0828h0.2667v-0.87948h0.37465l0.50165 0.87948z"/>
   </g>
  </g>
  <g fill="none" stroke="#009244" stroke-dashoffset="1.2" stroke-linecap="square" stroke-miterlimit="40" stroke-width=".26458">
   <path d="m-60.621 198.43v-2.9104h2.9104" style="paint-order:normal"/>
   <path d="m-30.194 198.43v-2.9104h-2.9104" style="paint-order:normal"/>
   <path d="m-60.621 207.16v2.9104h2.9104" style="paint-order:normal"/>
   <path d="m-30.194 207.16v2.9104h-2.9104" style="paint-order:normal"/>
  </g>
  <rect x="-60.092" y="196.05" width="29.369" height="13.494" fill="#1d232d"/>
  <g fill="#e8eaec" stroke-linecap="round" stroke-width=".26458" aria-label="Right Upper Arm">
   <path d="m-57.454 202.07h0.40746c0.37782 0 0.58526 0.11483 0.58526 0.43339 0 0.31485-0.20743 0.47043-0.58526 0.47043h-0.40746zm1.3742 2.1818-0.6186-1.0594c0.32967-0.0852 0.54451-0.31115 0.54451-0.68897 0-0.50377-0.3556-0.68157-0.84826-0.68157h-0.76306v2.4299h0.31115v-1.026h0.43709l0.58526 1.026z"/>
   <path d="m-55.494 202.08c0.11853 0 0.21114-0.0815 0.21114-0.19632 0-0.11853-0.0926-0.19632-0.21114-0.19632-0.11853 0-0.21114 0.0778-0.21114 0.19632 0 0.11483 0.0926 0.19632 0.21114 0.19632zm-0.15558 2.1706h0.30374v-1.8002h-0.30374z"/>
   <path d="m-54.608 204.55c0-0.10372 0.05556-0.21114 0.18521-0.30375 0.07779 0.0222 0.16298 0.0296 0.23336 0.0296h0.31115c0.23336 0 0.36301 0.0556 0.36301 0.22225 0 0.18891-0.22595 0.36671-0.57044 0.36671-0.32597 0-0.52229-0.12224-0.52229-0.31485zm-0.2667 0.0407c0 0.31115 0.30374 0.48525 0.74454 0.48525 0.55933 0 0.91123-0.28893 0.91123-0.6223 0-0.30004-0.21114-0.42969-0.62971-0.42969h-0.34819c-0.24448 0-0.31856-0.0815-0.31856-0.19632 0-0.10001 0.05186-0.15928 0.11483-0.21484 0.08149 0.0408 0.1815 0.063 0.2704 0.063 0.36671 0 0.65934-0.24077 0.65934-0.626 0-0.15187-0.06297-0.28893-0.14817-0.37042h0.37042v-0.23336h-0.626c-0.06668-0.0259-0.15558-0.0445-0.25559-0.0445-0.36671 0-0.67786 0.24818-0.67786 0.64082 0 0.21484 0.11483 0.38894 0.23336 0.48525v0.0148c-0.0926 0.063-0.19632 0.18151-0.19632 0.33338 0 0.14076 0.07038 0.23706 0.15928 0.29263v0.0148c-0.16298 0.11113-0.263 0.25559-0.263 0.40746zm0.74454-1.1187c-0.20743 0-0.38153-0.16669-0.38153-0.42968 0-0.263 0.17039-0.41857 0.38153-0.41857 0.21114 0 0.38153 0.15557 0.38153 0.41857 0 0.26299-0.1741 0.42968-0.38153 0.42968z"/>
   <path d="m-52.872 204.25h0.30374v-1.3039c0.1815-0.18151 0.30745-0.27782 0.49265-0.27782 0.23707 0 0.34078 0.14447 0.34078 0.48155v1.1001h0.30374v-1.1409c0-0.45932-0.17039-0.70379-0.54822-0.70379-0.24818 0-0.42968 0.13335-0.60008 0.29633l0.01111-0.37042v-0.7186h-0.30374z"/>
   <path d="m-50.801 203.69c0 0.3556 0.12965 0.60007 0.51488 0.60007 0.11112 0 0.23336-0.0333 0.33338-0.0667l-0.05927-0.22966c-0.05927 0.0222-0.14076 0.0481-0.20373 0.0481-0.20743 0-0.27781-0.12594-0.27781-0.34819v-1.0001h0.48525v-0.24818h-0.48525v-0.50377h-0.25559l-0.03704 0.50377-0.28152 0.0185v0.22966h0.2667z"/>
   <path d="m-48.849 203.25c0 0.78158 0.37782 1.0483 0.87418 1.0483 0.49636 0 0.87418-0.2667 0.87418-1.0483v-1.4261h-0.29633v1.4335c0 0.58526-0.25559 0.77047-0.57785 0.77047-0.31486 0-0.56303-0.18521-0.56303-0.77047v-1.4335h-0.31115z"/>
   <path d="m-46.187 204.09c0.16669 0.12965 0.33338 0.20743 0.50006 0.20743 0.41116 0 0.77788-0.3593 0.77788-0.97049 0-0.55933-0.24818-0.91863-0.7112-0.91863-0.21114 0-0.41116 0.11483-0.57415 0.25188h-0.01111l-0.02593-0.20743h-0.25188v2.5596h0.30374v-0.60748zm0.0074-0.23707v-0.94456c0.1778-0.15928 0.32967-0.24447 0.48154-0.24447 0.34078 0 0.47413 0.2667 0.47413 0.66304 0 0.4445-0.21855 0.71491-0.51488 0.71491-0.11853 0-0.27781-0.0519-0.4408-0.18892z"/>
   <path d="m-44.132 204.09c0.16669 0.12965 0.33338 0.20743 0.50006 0.20743 0.41116 0 0.77788-0.3593 0.77788-0.97049 0-0.55933-0.24818-0.91863-0.7112-0.91863-0.21114 0-0.41116 0.11483-0.57415 0.25188h-0.01111l-0.02593-0.20743h-0.25188v2.5596h0.30374v-0.60748zm0.0074-0.23707v-0.94456c0.1778-0.15928 0.32967-0.24447 0.48154-0.24447 0.34078 0 0.47413 0.2667 0.47413 0.66304 0 0.4445-0.21855 0.71491-0.51488 0.71491-0.11853 0-0.27781-0.0519-0.4408-0.18892z"/>
   <path d="m-42.507 203.35c0 0.58897 0.38153 0.94086 0.86307 0.94086 0.24448 0 0.43709-0.0852 0.59267-0.1852l-0.10742-0.20003c-0.13335 0.0852-0.27781 0.14076-0.4482 0.14076-0.34449 0-0.57785-0.24448-0.60008-0.63341h1.215c0.0074-0.0445 0.01111-0.10372 0.01111-0.16669 0-0.51488-0.25929-0.84455-0.71861-0.84455-0.41116 0-0.80751 0.3593-0.80751 0.94826zm0.29633-0.13705c0.03704-0.36301 0.2667-0.57044 0.51858-0.57044 0.28152 0 0.4445 0.20373 0.4445 0.57044z"/>
   <path d="m-40.536 204.25h0.30374v-1.1557c0.12224-0.30374 0.30374-0.41486 0.45561-0.41486 0.07408 0 0.11483 0.0111 0.1741 0.0296l0.05927-0.2667c-0.05927-0.0259-0.11483-0.037-0.19262-0.037-0.20373 0-0.38894 0.14446-0.51118 0.37041h-0.01111l-0.02593-0.32596h-0.25188z"/>
   <path d="m-38.181 203.26 0.11853-0.37042c0.0852-0.2704 0.16298-0.5371 0.24077-0.81862h0.01482c0.07779 0.28152 0.15558 0.54822 0.24077 0.81862l0.11483 0.37042zm1.0409 0.98901h0.32597l-0.82233-2.4299h-0.34819l-0.82233 2.4299h0.31486l0.23336-0.74083h0.8853z"/>
   <path d="m-36.514 204.25h0.30374v-1.1557c0.12224-0.30374 0.30374-0.41486 0.45561-0.41486 0.07408 0 0.11483 0.0111 0.1741 0.0296l0.05927-0.2667c-0.05927-0.0259-0.11483-0.037-0.19262-0.037-0.20373 0-0.38894 0.14446-0.51118 0.37041h-0.01111l-0.02593-0.32596h-0.25188z"/>
   <path d="m-35.226 204.25h0.30374v-1.3039c0.16669-0.18521 0.31856-0.27782 0.45191-0.27782 0.22966 0 0.33708 0.14447 0.33708 0.48155v1.1001h0.30374v-1.3039c0.16669-0.18521 0.31115-0.27782 0.45191-0.27782 0.22595 0 0.33338 0.14447 0.33338 0.48155v1.1001h0.30374v-1.1409c0-0.45932-0.1778-0.70379-0.54822-0.70379-0.21855 0-0.40375 0.14076-0.59267 0.34449-0.07408-0.21485-0.22225-0.34449-0.49636-0.34449-0.21484 0-0.40375 0.13335-0.55933 0.30374h-0.01111l-0.02593-0.25929h-0.25188z"/>
  </g>
  <g fill="none" stroke="#009244" stroke-dashoffset="1.2" stroke-linecap="square" stroke-miterlimit="40" stroke-width=".26458">
   <path d="m-26.225 198.43v-2.9104h2.9104" style="paint-order:normal"/>
   <path d="m4.2021 198.43v-2.9104h-2.9104" style="paint-order:normal"/>
   <path d="m-26.225 207.16v2.9104h2.9104" style="paint-order:normal"/>
   <path d="m4.2021 207.16v2.9104h-2.9104" style="paint-order:normal"/>
  </g>
  <g>
   <rect x="-25.696" y="196.05" width="29.369" height="13.494" fill="#1d232d"/>
   <g fill="#e8eaec" stroke-linecap="round" stroke-width=".26458" aria-label="Left Lower Leg">
    <path d="m-21.644 204.25h1.3705v-0.26299h-1.0594v-2.1669h-0.31115z"/>
    <path d="m-20.06 203.35c0 0.58897 0.38153 0.94086 0.86307 0.94086 0.24448 0 0.43709-0.0852 0.59267-0.1852l-0.10742-0.20003c-0.13335 0.0852-0.27781 0.14076-0.4482 0.14076-0.34449 0-0.57785-0.24448-0.60008-0.63341h1.215c0.0074-0.0445 0.01111-0.10372 0.01111-0.16669 0-0.51488-0.25929-0.84455-0.71861-0.84455-0.41116 0-0.80751 0.3593-0.80751 0.94826zm0.29633-0.13705c0.03704-0.36301 0.2667-0.57044 0.51858-0.57044 0.28152 0 0.4445 0.20373 0.4445 0.57044z"/>
    <path d="m-16.3 204c-0.05927 0.0222-0.14076 0.0481-0.20373 0.0481-0.20743 0-0.28152-0.12594-0.28152-0.34819v-1.0001h0.48895v-0.24818h-0.48895v-0.50377h-0.25188l-0.03704 0.50377h-0.65934v-0.28522c0-0.22966 0.08149-0.3482 0.25188-0.3482 0.06668 0 0.13706 0.0148 0.20373 0.0445l0.06668-0.23336c-0.08149-0.0333-0.18891-0.0593-0.30004-0.0593-0.3593 0-0.52599 0.22966-0.52599 0.59638v0.28522l-0.24448 0.0185v0.22966h0.24448v1.552h0.30374v-1.552h0.64452v0.99642c0 0.3556 0.12965 0.60007 0.51488 0.60007 0.11112 0 0.23336-0.0333 0.33338-0.0667z"/>
    <path d="m-15.126 204.25h1.3705v-0.26299h-1.0594v-2.1669h-0.31115z"/>
    <path d="m-13.541 203.35c0 0.59638 0.39264 0.94086 0.83344 0.94086s0.83344-0.34448 0.83344-0.94086c0-0.60377-0.39264-0.94826-0.83344-0.94826s-0.83344 0.34449-0.83344 0.94826zm0.31485 0c0-0.41486 0.21114-0.69638 0.51858-0.69638 0.31115 0 0.51858 0.28152 0.51858 0.69638 0 0.41117-0.20743 0.68898-0.51858 0.68898-0.30745 0-0.51858-0.27781-0.51858-0.68898z"/>
    <path d="m-11.126 204.25h0.3556l0.25188-0.96308c0.04815-0.17039 0.0852-0.34078 0.12594-0.52229h0.01482c0.04445 0.18151 0.07779 0.34819 0.12224 0.51859l0.25929 0.96678h0.37042l0.48154-1.8002h-0.28893l-0.263 1.0409c-0.037042 0.17039-0.070379 0.33337-0.11113 0.50006h-0.014817c-0.040746-0.16669-0.081492-0.32967-0.12594-0.50006l-0.28152-1.0409h-0.29633l-0.27781 1.0409c-0.04445 0.16669-0.08149 0.33337-0.12224 0.50006h-0.01482c-0.03334-0.16669-0.06668-0.32967-0.10742-0.50006l-0.2667-1.0409h-0.31115z"/>
    <path d="m-8.8965 203.35c0 0.58897 0.38153 0.94086 0.86307 0.94086 0.24448 0 0.43709-0.0852 0.59267-0.1852l-0.10742-0.20003c-0.13335 0.0852-0.27781 0.14076-0.4482 0.14076-0.34449 0-0.57785-0.24448-0.60008-0.63341h1.215c0.00741-0.0445 0.011113-0.10372 0.011113-0.16669 0-0.51488-0.25929-0.84455-0.71861-0.84455-0.41116 0-0.80751 0.3593-0.80751 0.94826zm0.29633-0.13705c0.037042-0.36301 0.2667-0.57044 0.51858-0.57044 0.28152 0 0.4445 0.20373 0.4445 0.57044z"/>
    <path d="m-6.9255 204.25h0.30374v-1.1557c0.12224-0.30374 0.30374-0.41486 0.45561-0.41486 0.074083 0 0.11483 0.0111 0.1741 0.0296l0.059267-0.2667c-0.059267-0.0259-0.11483-0.037-0.19262-0.037-0.20373 0-0.38894 0.14446-0.51118 0.37041h-0.011112l-0.025929-0.32596h-0.25188z"/>
    <path d="m-4.874 204.25h1.3705v-0.26299h-1.0594v-2.1669h-0.31115z"/>
    <path d="m-3.2896 203.35c0 0.58897 0.38153 0.94086 0.86307 0.94086 0.24448 0 0.43709-0.0852 0.59267-0.1852l-0.10742-0.20003c-0.13335 0.0852-0.27781 0.14076-0.4482 0.14076-0.34449 0-0.57785-0.24448-0.60008-0.63341h1.215c0.00741-0.0445 0.011113-0.10372 0.011113-0.16669 0-0.51488-0.25929-0.84455-0.71861-0.84455-0.41116 0-0.80751 0.3593-0.80751 0.94826zm0.29633-0.13705c0.037042-0.36301 0.2667-0.57044 0.51858-0.57044 0.28152 0 0.4445 0.20373 0.4445 0.57044z"/>
    <path d="m-1.2251 204.55c0-0.10372 0.055563-0.21114 0.18521-0.30375 0.077788 0.0222 0.16298 0.0296 0.23336 0.0296h0.31115c0.23336 0 0.36301 0.0556 0.36301 0.22225 0 0.18891-0.22595 0.36671-0.57044 0.36671-0.32597 0-0.52229-0.12224-0.52229-0.31485zm-0.2667 0.0407c0 0.31115 0.30374 0.48525 0.74454 0.48525 0.55933 0 0.91123-0.28893 0.91123-0.6223 0-0.30004-0.21114-0.42969-0.62971-0.42969h-0.34819c-0.24448 0-0.31856-0.0815-0.31856-0.19632 0-0.10001 0.051858-0.15928 0.11483-0.21484 0.081492 0.0408 0.1815 0.063 0.2704 0.063 0.36671 0 0.65934-0.24077 0.65934-0.626 0-0.15187-0.062971-0.28893-0.14817-0.37042h0.37042v-0.23336h-0.626c-0.066675-0.0259-0.15558-0.0445-0.25559-0.0445-0.36671 0-0.67786 0.24818-0.67786 0.64082 0 0.21484 0.11483 0.38894 0.23336 0.48525v0.0148c-0.092604 0.063-0.19632 0.18151-0.19632 0.33338 0 0.14076 0.070379 0.23706 0.15928 0.29263v0.0148c-0.16298 0.11113-0.263 0.25559-0.263 0.40746zm0.74454-1.1187c-0.20743 0-0.38153-0.16669-0.38153-0.42968 0-0.263 0.17039-0.41857 0.38153-0.41857s0.38153 0.15557 0.38153 0.41857c0 0.26299-0.1741 0.42968-0.38153 0.42968z"/>
   </g>
   <g fill="#a6aeb8" stroke-linecap="round" stroke-width=".26458" aria-label="TR">
    <path d="m-0.5489 208.48h0.26352v-1.8606h0.63182v-0.22225h-1.5272v0.22225h0.63182z"/>
    <path d="m0.96954 206.61h0.34925c0.32385 0 0.50165 0.0984 0.50165 0.37148 0 0.26987-0.1778 0.40322-0.50165 0.40322h-0.34925zm1.1779 1.8701-0.53022-0.90805c0.28258-0.073 0.46672-0.2667 0.46672-0.59055 0-0.4318-0.3048-0.5842-0.72707-0.5842h-0.65405v2.0828h0.2667v-0.87948h0.37465l0.50165 0.87948z"/>
   </g>
  </g>
  <g fill="none" stroke="#009244" stroke-dashoffset="1.2" stroke-linecap="square" stroke-miterlimit="40" stroke-width=".26458">
   <path d="m8.1708 198.43v-2.9104h2.9104" style="paint-order:normal"/>
   <path d="m38.598 198.43v-2.9104h-2.9104" style="paint-order:normal"/>
   <path d="m8.1708 207.16v2.9104h2.9104" style="paint-order:normal"/>
   <path d="m38.598 207.16v2.9104h-2.9104" style="paint-order:normal"/>
  </g>
  <rect x="8.7" y="196.05" width="29.369" height="13.494" fill="#1d232d"/>
  <g fill="#e8eaec" stroke-linecap="round" stroke-width=".26458" aria-label="Left Upper Leg">
   <path d="m12.701 204.25h1.3705v-0.26299h-1.0594v-2.1669h-0.31115z"/>
   <path d="m14.286 203.35c0 0.58897 0.38153 0.94086 0.86307 0.94086 0.24448 0 0.43709-0.0852 0.59267-0.1852l-0.10742-0.20003c-0.13335 0.0852-0.27781 0.14076-0.4482 0.14076-0.34449 0-0.57785-0.24448-0.60008-0.63341h1.215c0.0074-0.0445 0.01111-0.10372 0.01111-0.16669 0-0.51488-0.25929-0.84455-0.71861-0.84455-0.41116 0-0.80751 0.3593-0.80751 0.94826zm0.29633-0.13705c0.03704-0.36301 0.2667-0.57044 0.51858-0.57044 0.28152 0 0.4445 0.20373 0.4445 0.57044z"/>
   <path d="m18.046 204c-0.05927 0.0222-0.14076 0.0481-0.20373 0.0481-0.20743 0-0.28152-0.12594-0.28152-0.34819v-1.0001h0.48895v-0.24818h-0.48895v-0.50377h-0.25188l-0.03704 0.50377h-0.65934v-0.28522c0-0.22966 0.08149-0.3482 0.25188-0.3482 0.06668 0 0.13705 0.0148 0.20373 0.0445l0.06668-0.23336c-0.08149-0.0333-0.18891-0.0593-0.30004-0.0593-0.3593 0-0.52599 0.22966-0.52599 0.59638v0.28522l-0.24448 0.0185v0.22966h0.24448v1.552h0.30374v-1.552h0.64453v0.99642c0 0.3556 0.12965 0.60007 0.51488 0.60007 0.11112 0 0.23336-0.0333 0.33338-0.0667z"/>
   <path d="m19.208 203.25c0 0.78158 0.37782 1.0483 0.87418 1.0483s0.87418-0.2667 0.87418-1.0483v-1.4261h-0.29633v1.4335c0 0.58526-0.25559 0.77047-0.57785 0.77047-0.31486 0-0.56303-0.18521-0.56303-0.77047v-1.4335h-0.31115z"/>
   <path d="m21.87 204.09c0.16669 0.12965 0.33338 0.20743 0.50006 0.20743 0.41116 0 0.77788-0.3593 0.77788-0.97049 0-0.55933-0.24818-0.91863-0.7112-0.91863-0.21114 0-0.41116 0.11483-0.57415 0.25188h-0.01111l-0.02593-0.20743h-0.25188v2.5596h0.30374v-0.60748zm0.0074-0.23707v-0.94456c0.1778-0.15928 0.32967-0.24447 0.48154-0.24447 0.34078 0 0.47413 0.2667 0.47413 0.66304 0 0.4445-0.21855 0.71491-0.51488 0.71491-0.11853 0-0.27781-0.0519-0.4408-0.18892z"/>
   <path d="m23.925 204.09c0.16669 0.12965 0.33338 0.20743 0.50006 0.20743 0.41116 0 0.77788-0.3593 0.77788-0.97049 0-0.55933-0.24818-0.91863-0.7112-0.91863-0.21114 0-0.41116 0.11483-0.57415 0.25188h-0.01111l-0.02593-0.20743h-0.25188v2.5596h0.30374v-0.60748zm0.0074-0.23707v-0.94456c0.1778-0.15928 0.32967-0.24447 0.48154-0.24447 0.34078 0 0.47413 0.2667 0.47413 0.66304 0 0.4445-0.21855 0.71491-0.51488 0.71491-0.11853 0-0.27781-0.0519-0.4408-0.18892z"/>
   <path d="m25.55 203.35c0 0.58897 0.38153 0.94086 0.86307 0.94086 0.24448 0 0.43709-0.0852 0.59267-0.1852l-0.10742-0.20003c-0.13335 0.0852-0.27781 0.14076-0.4482 0.14076-0.34449 0-0.57785-0.24448-0.60008-0.63341h1.215c0.0074-0.0445 0.01111-0.10372 0.01111-0.16669 0-0.51488-0.25929-0.84455-0.71861-0.84455-0.41116 0-0.80751 0.3593-0.80751 0.94826zm0.29633-0.13705c0.03704-0.36301 0.2667-0.57044 0.51858-0.57044 0.28152 0 0.4445 0.20373 0.4445 0.57044z"/>
   <path d="m27.521 204.25h0.30374v-1.1557c0.12224-0.30374 0.30374-0.41486 0.45561-0.41486 0.07408 0 0.11483 0.0111 0.1741 0.0296l0.05927-0.2667c-0.05927-0.0259-0.11483-0.037-0.19262-0.037-0.20373 0-0.38894 0.14446-0.51118 0.37041h-0.01111l-0.02593-0.32596h-0.25188z"/>
   <path d="m29.572 204.25h1.3705v-0.26299h-1.0594v-2.1669h-0.31115z"/>
   <path d="m31.157 203.35c0 0.58897 0.38153 0.94086 0.86307 0.94086 0.24448 0 0.43709-0.0852 0.59267-0.1852l-0.10742-0.20003c-0.13335 0.0852-0.27781 0.14076-0.4482 0.14076-0.34449 0-0.57785-0.24448-0.60008-0.63341h1.215c0.0074-0.0445 0.01111-0.10372 0.01111-0.16669 0-0.51488-0.25929-0.84455-0.71861-0.84455-0.41116 0-0.80751 0.3593-0.80751 0.94826zm0.29633-0.13705c0.03704-0.36301 0.2667-0.57044 0.51858-0.57044 0.28152 0 0.4445 0.20373 0.4445 0.57044z"/>
   <path d="m33.221 204.55c0-0.10372 0.05556-0.21114 0.18521-0.30375 0.07779 0.0222 0.16298 0.0296 0.23336 0.0296h0.31115c0.23336 0 0.36301 0.0556 0.36301 0.22225 0 0.18891-0.22596 0.36671-0.57044 0.36671-0.32597 0-0.52229-0.12224-0.52229-0.31485zm-0.2667 0.0407c0 0.31115 0.30374 0.48525 0.74454 0.48525 0.55933 0 0.91122-0.28893 0.91122-0.6223 0-0.30004-0.21114-0.42969-0.62971-0.42969h-0.34819c-0.24448 0-0.31856-0.0815-0.31856-0.19632 0-0.10001 0.05186-0.15928 0.11483-0.21484 0.08149 0.0408 0.1815 0.063 0.2704 0.063 0.36671 0 0.65934-0.24077 0.65934-0.626 0-0.15187-0.06297-0.28893-0.14817-0.37042h0.37042v-0.23336h-0.626c-0.06668-0.0259-0.15558-0.0445-0.25559-0.0445-0.36671 0-0.67786 0.24818-0.67786 0.64082 0 0.21484 0.11483 0.38894 0.23336 0.48525v0.0148c-0.0926 0.063-0.19632 0.18151-0.19632 0.33338 0 0.14076 0.07038 0.23706 0.15928 0.29263v0.0148c-0.16298 0.11113-0.263 0.25559-0.263 0.40746zm0.74454-1.1187c-0.20743 0-0.38153-0.16669-0.38153-0.42968 0-0.263 0.17039-0.41857 0.38153-0.41857 0.21114 0 0.38153 0.15557 0.38153 0.41857 0 0.26299-0.1741 0.42968-0.38153 0.42968z"/>
  </g>
  <g fill="none" stroke="#009244" stroke-dashoffset="1.2" stroke-linecap="square" stroke-miterlimit="40" stroke-width=".26458">
   <path d="m42.567 198.43v-2.9104h2.9104" style="paint-order:normal"/>
   <path d="m72.994 198.43v-2.9104h-2.9104" style="paint-order:normal"/>
   <path d="m42.567 207.16v2.9104h2.9104" style="paint-order:normal"/>
   <path d="m72.994 207.16v2.9104h-2.9104" style="paint-order:normal"/>
  </g>
  <g>
   <rect x="43.096" y="196.05" width="29.369" height="13.494" fill="#1d232d"/>
   <g fill="#e8eaec" stroke-linecap="round" stroke-width=".26458" aria-label="Right Lower Leg">
    <path d="m46.254 202.07h0.40746c0.37783 0 0.58526 0.11483 0.58526 0.43339 0 0.31485-0.20743 0.47043-0.58526 0.47043h-0.40746zm1.3742 2.1818-0.6186-1.0594c0.32967-0.0852 0.54451-0.31115 0.54451-0.68897 0-0.50377-0.3556-0.68157-0.84825-0.68157h-0.76306v2.4299h0.31115v-1.026h0.43709l0.58526 1.026z"/>
    <path d="m48.214 202.08c0.11853 0 0.21114-0.0815 0.21114-0.19632 0-0.11853-0.0926-0.19632-0.21114-0.19632-0.11853 0-0.21114 0.0778-0.21114 0.19632 0 0.11483 0.0926 0.19632 0.21114 0.19632zm-0.15558 2.1706h0.30374v-1.8002h-0.30374z"/>
    <path d="m49.1 204.55c0-0.10372 0.05556-0.21114 0.18521-0.30375 0.07779 0.0222 0.16298 0.0296 0.23336 0.0296h0.31115c0.23336 0 0.36301 0.0556 0.36301 0.22225 0 0.18891-0.22595 0.36671-0.57044 0.36671-0.32597 0-0.52229-0.12224-0.52229-0.31485zm-0.2667 0.0407c0 0.31115 0.30374 0.48525 0.74454 0.48525 0.55933 0 0.91123-0.28893 0.91123-0.6223 0-0.30004-0.21114-0.42969-0.62971-0.42969h-0.34819c-0.24448 0-0.31856-0.0815-0.31856-0.19632 0-0.10001 0.05186-0.15928 0.11483-0.21484 0.08149 0.0408 0.1815 0.063 0.2704 0.063 0.36671 0 0.65934-0.24077 0.65934-0.626 0-0.15187-0.06297-0.28893-0.14817-0.37042h0.37042v-0.23336h-0.626c-0.06668-0.0259-0.15558-0.0445-0.25559-0.0445-0.36671 0-0.67786 0.24818-0.67786 0.64082 0 0.21484 0.11483 0.38894 0.23336 0.48525v0.0148c-0.0926 0.063-0.19632 0.18151-0.19632 0.33338 0 0.14076 0.07038 0.23706 0.15928 0.29263v0.0148c-0.16298 0.11113-0.263 0.25559-0.263 0.40746zm0.74454-1.1187c-0.20743 0-0.38153-0.16669-0.38153-0.42968 0-0.263 0.17039-0.41857 0.38153-0.41857s0.38153 0.15557 0.38153 0.41857c0 0.26299-0.1741 0.42968-0.38153 0.42968z"/>
    <path d="m50.837 204.25h0.30374v-1.3039c0.1815-0.18151 0.30745-0.27782 0.49265-0.27782 0.23707 0 0.34078 0.14447 0.34078 0.48155v1.1001h0.30374v-1.1409c0-0.45932-0.17039-0.70379-0.54822-0.70379-0.24818 0-0.42968 0.13335-0.60008 0.29633l0.01111-0.37042v-0.7186h-0.30374z"/>
    <path d="m52.907 203.69c0 0.3556 0.12965 0.60007 0.51488 0.60007 0.11112 0 0.23336-0.0333 0.33338-0.0667l-0.05927-0.22966c-0.05927 0.0222-0.14076 0.0481-0.20373 0.0481-0.20743 0-0.27781-0.12594-0.27781-0.34819v-1.0001h0.48525v-0.24818h-0.48525v-0.50377h-0.25558l-0.03704 0.50377-0.28152 0.0185v0.22966h0.2667z"/>
    <path d="m54.871 204.25h1.3705v-0.26299h-1.0594v-2.1669h-0.31115z"/>
    <path d="m56.455 203.35c0 0.59638 0.39264 0.94086 0.83344 0.94086 0.4408 0 0.83344-0.34448 0.83344-0.94086 0-0.60377-0.39264-0.94826-0.83344-0.94826-0.4408 0-0.83344 0.34449-0.83344 0.94826zm0.31486 0c0-0.41486 0.21114-0.69638 0.51858-0.69638 0.31115 0 0.51858 0.28152 0.51858 0.69638 0 0.41117-0.20743 0.68898-0.51858 0.68898-0.30745 0-0.51858-0.27781-0.51858-0.68898z"/>
    <path d="m58.87 204.25h0.3556l0.25188-0.96308c0.04815-0.17039 0.0852-0.34078 0.12594-0.52229h0.01482c0.04445 0.18151 0.07779 0.34819 0.12224 0.51859l0.25929 0.96678h0.37042l0.48154-1.8002h-0.28893l-0.263 1.0409c-0.03704 0.17039-0.07038 0.33337-0.11112 0.50006h-0.01482c-0.04075-0.16669-0.08149-0.32967-0.12594-0.50006l-0.28152-1.0409h-0.29633l-0.27781 1.0409c-0.04445 0.16669-0.08149 0.33337-0.12224 0.50006h-0.01482c-0.03334-0.16669-0.06667-0.32967-0.10742-0.50006l-0.2667-1.0409h-0.31115z"/>
    <path d="m61.1 203.35c0 0.58897 0.38153 0.94086 0.86307 0.94086 0.24448 0 0.43709-0.0852 0.59267-0.1852l-0.10742-0.20003c-0.13335 0.0852-0.27781 0.14076-0.4482 0.14076-0.34449 0-0.57785-0.24448-0.60008-0.63341h1.215c0.0074-0.0445 0.01111-0.10372 0.01111-0.16669 0-0.51488-0.25929-0.84455-0.71861-0.84455-0.41116 0-0.80751 0.3593-0.80751 0.94826zm0.29633-0.13705c0.03704-0.36301 0.2667-0.57044 0.51858-0.57044 0.28152 0 0.4445 0.20373 0.4445 0.57044z"/>
    <path d="m63.071 204.25h0.30374v-1.1557c0.12224-0.30374 0.30374-0.41486 0.45561-0.41486 0.07408 0 0.11483 0.0111 0.1741 0.0296l0.05927-0.2667c-0.05927-0.0259-0.11483-0.037-0.19262-0.037-0.20373 0-0.38894 0.14446-0.51118 0.37041h-0.01111l-0.02593-0.32596h-0.25189z"/>
    <path d="m65.122 204.25h1.3705v-0.26299h-1.0594v-2.1669h-0.31115z"/>
    <path d="m66.707 203.35c0 0.58897 0.38153 0.94086 0.86307 0.94086 0.24448 0 0.43709-0.0852 0.59267-0.1852l-0.10742-0.20003c-0.13335 0.0852-0.27781 0.14076-0.4482 0.14076-0.34449 0-0.57785-0.24448-0.60008-0.63341h1.215c0.0074-0.0445 0.01111-0.10372 0.01111-0.16669 0-0.51488-0.25929-0.84455-0.71861-0.84455-0.41116 0-0.80751 0.3593-0.80751 0.94826zm0.29633-0.13705c0.03704-0.36301 0.2667-0.57044 0.51858-0.57044 0.28152 0 0.4445 0.20373 0.4445 0.57044z"/>
    <path d="m68.771 204.55c0-0.10372 0.05556-0.21114 0.18521-0.30375 0.07779 0.0222 0.16298 0.0296 0.23336 0.0296h0.31115c0.23336 0 0.36301 0.0556 0.36301 0.22225 0 0.18891-0.22596 0.36671-0.57044 0.36671-0.32597 0-0.52229-0.12224-0.52229-0.31485zm-0.2667 0.0407c0 0.31115 0.30374 0.48525 0.74454 0.48525 0.55933 0 0.91122-0.28893 0.91122-0.6223 0-0.30004-0.21114-0.42969-0.62971-0.42969h-0.34819c-0.24448 0-0.31856-0.0815-0.31856-0.19632 0-0.10001 0.05186-0.15928 0.11483-0.21484 0.08149 0.0408 0.1815 0.063 0.2704 0.063 0.36671 0 0.65934-0.24077 0.65934-0.626 0-0.15187-0.06297-0.28893-0.14817-0.37042h0.37042v-0.23336h-0.626c-0.06668-0.0259-0.15558-0.0445-0.25559-0.0445-0.36671 0-0.67786 0.24818-0.67786 0.64082 0 0.21484 0.11483 0.38894 0.23336 0.48525v0.0148c-0.0926 0.063-0.19632 0.18151-0.19632 0.33338 0 0.14076 0.07038 0.23706 0.15928 0.29263v0.0148c-0.16298 0.11113-0.263 0.25559-0.263 0.40746zm0.74454-1.1187c-0.20743 0-0.38153-0.16669-0.38153-0.42968 0-0.263 0.17039-0.41857 0.38153-0.41857 0.21114 0 0.38153 0.15557 0.38153 0.41857 0 0.26299-0.1741 0.42968-0.38153 0.42968z"/>
   </g>
   <g fill="#a6aeb8" stroke-linecap="round" stroke-width=".26458" aria-label="TR">
    <path d="m68.243 208.48h0.26352v-1.8606h0.63182v-0.22225h-1.5272v0.22225h0.63182z"/>
    <path d="m69.761 206.61h0.34925c0.32385 0 0.50165 0.0984 0.50165 0.37148 0 0.26987-0.1778 0.40322-0.50165 0.40322h-0.34925zm1.1779 1.8701-0.53022-0.90805c0.28258-0.073 0.46672-0.2667 0.46672-0.59055 0-0.4318-0.3048-0.5842-0.72708-0.5842h-0.65405v2.0828h0.2667v-0.87948h0.37465l0.50165 0.87948z"/>
   </g>
  </g>
  <g fill="none" stroke="#009244" stroke-dashoffset="1.2" stroke-linecap="square" stroke-miterlimit="40" stroke-width=".26458">
   <path d="m76.963 198.43v-2.9104h2.9104" style="paint-order:normal"/>
   <path d="m107.39 198.43v-2.9104h-2.9104" style="paint-order:normal"/>
   <path d="m76.963 207.16v2.9104h2.9104" style="paint-order:normal"/>
   <path d="m107.39 207.16v2.9104h-2.9104" style="paint-order:normal"/>
  </g>
  <rect x="77.492" y="196.05" width="29.369" height="13.494" fill="#1d232d"/>
  <g fill="#e8eaec" stroke-linecap="round" stroke-width=".26458" aria-label="Right Upper Leg">
   <path d="m80.599 202.07h0.40746c0.37782 0 0.58526 0.11483 0.58526 0.43339 0 0.31485-0.20743 0.47043-0.58526 0.47043h-0.40746zm1.3742 2.1818-0.6186-1.0594c0.32967-0.0852 0.54451-0.31115 0.54451-0.68897 0-0.50377-0.3556-0.68157-0.84826-0.68157h-0.76306v2.4299h0.31115v-1.026h0.43709l0.58526 1.026z"/>
   <path d="m82.559 202.08c0.11853 0 0.21114-0.0815 0.21114-0.19632 0-0.11853-0.0926-0.19632-0.21114-0.19632-0.11853 0-0.21114 0.0778-0.21114 0.19632 0 0.11483 0.0926 0.19632 0.21114 0.19632zm-0.15558 2.1706h0.30374v-1.8002h-0.30374z"/>
   <path d="m83.445 204.55c0-0.10372 0.05556-0.21114 0.18521-0.30375 0.07779 0.0222 0.16298 0.0296 0.23336 0.0296h0.31115c0.23336 0 0.36301 0.0556 0.36301 0.22225 0 0.18891-0.22596 0.36671-0.57044 0.36671-0.32597 0-0.52229-0.12224-0.52229-0.31485zm-0.2667 0.0407c0 0.31115 0.30374 0.48525 0.74454 0.48525 0.55933 0 0.91123-0.28893 0.91123-0.6223 0-0.30004-0.21114-0.42969-0.62971-0.42969h-0.34819c-0.24448 0-0.31856-0.0815-0.31856-0.19632 0-0.10001 0.05186-0.15928 0.11483-0.21484 0.08149 0.0408 0.1815 0.063 0.2704 0.063 0.36671 0 0.65934-0.24077 0.65934-0.626 0-0.15187-0.06297-0.28893-0.14817-0.37042h0.37042v-0.23336h-0.626c-0.06668-0.0259-0.15558-0.0445-0.25559-0.0445-0.36671 0-0.67786 0.24818-0.67786 0.64082 0 0.21484 0.11483 0.38894 0.23336 0.48525v0.0148c-0.0926 0.063-0.19632 0.18151-0.19632 0.33338 0 0.14076 0.07038 0.23706 0.15928 0.29263v0.0148c-0.16298 0.11113-0.263 0.25559-0.263 0.40746zm0.74454-1.1187c-0.20743 0-0.38153-0.16669-0.38153-0.42968 0-0.263 0.17039-0.41857 0.38153-0.41857 0.21114 0 0.38153 0.15557 0.38153 0.41857 0 0.26299-0.1741 0.42968-0.38153 0.42968z"/>
   <path d="m85.182 204.25h0.30374v-1.3039c0.1815-0.18151 0.30745-0.27782 0.49265-0.27782 0.23707 0 0.34078 0.14447 0.34078 0.48155v1.1001h0.30374v-1.1409c0-0.45932-0.17039-0.70379-0.54822-0.70379-0.24818 0-0.42968 0.13335-0.60008 0.29633l0.01111-0.37042v-0.7186h-0.30374z"/>
   <path d="m87.252 203.69c0 0.3556 0.12965 0.60007 0.51488 0.60007 0.11112 0 0.23336-0.0333 0.33338-0.0667l-0.05927-0.22966c-0.05927 0.0222-0.14076 0.0481-0.20373 0.0481-0.20743 0-0.27781-0.12594-0.27781-0.34819v-1.0001h0.48525v-0.24818h-0.48525v-0.50377h-0.25558l-0.03704 0.50377-0.28152 0.0185v0.22966h0.2667z"/>
   <path d="m89.205 203.25c0 0.78158 0.37782 1.0483 0.87418 1.0483s0.87418-0.2667 0.87418-1.0483v-1.4261h-0.29633v1.4335c0 0.58526-0.25559 0.77047-0.57785 0.77047-0.31486 0-0.56303-0.18521-0.56303-0.77047v-1.4335h-0.31115z"/>
   <path d="m91.867 204.09c0.16669 0.12965 0.33338 0.20743 0.50006 0.20743 0.41116 0 0.77788-0.3593 0.77788-0.97049 0-0.55933-0.24818-0.91863-0.7112-0.91863-0.21114 0-0.41116 0.11483-0.57415 0.25188h-0.01111l-0.02593-0.20743h-0.25188v2.5596h0.30374v-0.60748zm0.0074-0.23707v-0.94456c0.1778-0.15928 0.32967-0.24447 0.48154-0.24447 0.34078 0 0.47413 0.2667 0.47413 0.66304 0 0.4445-0.21855 0.71491-0.51488 0.71491-0.11853 0-0.27781-0.0519-0.4408-0.18892z"/>
   <path d="m93.921 204.09c0.16669 0.12965 0.33338 0.20743 0.50006 0.20743 0.41116 0 0.77788-0.3593 0.77788-0.97049 0-0.55933-0.24818-0.91863-0.7112-0.91863-0.21114 0-0.41116 0.11483-0.57415 0.25188h-0.01111l-0.02593-0.20743h-0.25188v2.5596h0.30374v-0.60748zm0.0074-0.23707v-0.94456c0.1778-0.15928 0.32967-0.24447 0.48154-0.24447 0.34078 0 0.47413 0.2667 0.47413 0.66304 0 0.4445-0.21855 0.71491-0.51488 0.71491-0.11853 0-0.27781-0.0519-0.4408-0.18892z"/>
   <path d="m95.546 203.35c0 0.58897 0.38153 0.94086 0.86307 0.94086 0.24448 0 0.43709-0.0852 0.59267-0.1852l-0.10742-0.20003c-0.13335 0.0852-0.27781 0.14076-0.4482 0.14076-0.34449 0-0.57785-0.24448-0.60008-0.63341h1.215c0.0074-0.0445 0.01111-0.10372 0.01111-0.16669 0-0.51488-0.25929-0.84455-0.71861-0.84455-0.41116 0-0.80751 0.3593-0.80751 0.94826zm0.29633-0.13705c0.03704-0.36301 0.2667-0.57044 0.51858-0.57044 0.28152 0 0.4445 0.20373 0.4445 0.57044z"/>
   <path d="m97.517 204.25h0.30374v-1.1557c0.12224-0.30374 0.30374-0.41486 0.45561-0.41486 0.07408 0 0.11483 0.0111 0.1741 0.0296l0.05927-0.2667c-0.05927-0.0259-0.11483-0.037-0.19262-0.037-0.20373 0-0.38894 0.14446-0.51118 0.37041h-0.01111l-0.02593-0.32596h-0.25188z"/>
   <path d="m99.569 204.25h1.3705v-0.26299h-1.0594v-2.1669h-0.31115z"/>
   <path d="m101.15 203.35c0 0.58897 0.38153 0.94086 0.86307 0.94086 0.24447 0 0.43709-0.0852 0.59267-0.1852l-0.10743-0.20003c-0.13335 0.0852-0.27781 0.14076-0.4482 0.14076-0.34449 0-0.57785-0.24448-0.60008-0.63341h1.215c7e-3 -0.0445 0.0111-0.10372 0.0111-0.16669 0-0.51488-0.25929-0.84455-0.7186-0.84455-0.41117 0-0.80751 0.3593-0.80751 0.94826zm0.29633-0.13705c0.037-0.36301 0.2667-0.57044 0.51858-0.57044 0.28152 0 0.4445 0.20373 0.4445 0.57044z"/>
   <path d="m103.22 204.55c0-0.10372 0.0556-0.21114 0.1852-0.30375 0.0778 0.0222 0.16299 0.0296 0.23337 0.0296h0.31115c0.23336 0 0.36301 0.0556 0.36301 0.22225 0 0.18891-0.22596 0.36671-0.57045 0.36671-0.32596 0-0.52228-0.12224-0.52228-0.31485zm-0.2667 0.0407c0 0.31115 0.30374 0.48525 0.74453 0.48525 0.55933 0 0.91123-0.28893 0.91123-0.6223 0-0.30004-0.21114-0.42969-0.62971-0.42969h-0.34819c-0.24448 0-0.31856-0.0815-0.31856-0.19632 0-0.10001 0.0519-0.15928 0.11483-0.21484 0.0815 0.0408 0.1815 0.063 0.2704 0.063 0.36672 0 0.65935-0.24077 0.65935-0.626 0-0.15187-0.063-0.28893-0.14817-0.37042h0.37042v-0.23336h-0.62601c-0.0667-0.0259-0.15557-0.0445-0.25559-0.0445-0.36671 0-0.67786 0.24818-0.67786 0.64082 0 0.21484 0.11483 0.38894 0.23336 0.48525v0.0148c-0.0926 0.063-0.19632 0.18151-0.19632 0.33338 0 0.14076 0.0704 0.23706 0.15928 0.29263v0.0148c-0.16298 0.11113-0.26299 0.25559-0.26299 0.40746zm0.74453-1.1187c-0.20743 0-0.38153-0.16669-0.38153-0.42968 0-0.263 0.1704-0.41857 0.38153-0.41857 0.21114 0 0.38153 0.15557 0.38153 0.41857 0 0.26299-0.17409 0.42968-0.38153 0.42968z"/>
  </g>
  <g fill="#a6aeb8" stroke="#cf2f25" stroke-linecap="round" stroke-width=".26458">
   <g aria-label="I">
    <path d="m-32.708 208.48h0.2667v-2.0828h-0.2667z" fill="#a6aeb8" stroke="none"/>
   </g>
   <g aria-label="I">
    <path d="m36.084 208.48h0.2667v-2.0828h-0.2667z" fill="#a6aeb8" stroke="none"/>
   </g>
   <g aria-label="I">
    <path d="m104.88 208.48h0.2667v-2.0828h-0.2667z" fill="#a6aeb8" stroke="none"/>
   </g>
  </g>
  <g fill="#1d232d" stroke="#47d58a" stroke-dashoffset="1.2" stroke-linecap="square" stroke-miterlimit="40" stroke-width=".26458">
   <rect transform="rotate(90)" x="194.55" y="146.51" width="1.3229" height="4.2333"/>
   <rect transform="rotate(90)" x="194.55" y="112.11" width="1.3229" height="4.2333"/>
   <rect transform="rotate(90)" x="194.55" y="77.715" width="1.3229" height="4.2333"/>
   <rect transform="rotate(90)" x="194.55" y="43.319" width="1.3229" height="4.2333"/>
   <rect transform="rotate(90)" x="194.55" y="8.9232" width="1.3229" height="4.2333"/>
   <rect transform="rotate(90)" x="194.55" y="-25.473" width="1.3229" height="4.2333"/>
   <rect transform="rotate(90)" x="194.55" y="-59.868" width="1.3229" height="4.2333"/>
   <rect transform="rotate(90)" x="194.55" y="-94.264" width="1.3229" height="4.2333"/>
   <rect transform="rotate(90)" x="183.17" y="-77.066" width="1.3229" height="4.2333"/>
   <rect transform="rotate(90)" x="183.17" y="-8.2747" width="1.3229" height="4.2333"/>
   <rect transform="rotate(90)" x="183.17" y="60.517" width="1.3229" height="4.2333"/>
   <rect transform="rotate(90)" x="183.17" y="129.31" width="1.3229" height="4.2333"/>
   <rect transform="rotate(90)" x="130.25" y="26.121" width="1.3229" height="4.2333"/>
   <rect transform="rotate(90)" x="103.8" y="26.121" width="1.3229" height="4.2333"/>
   <rect transform="rotate(90)" x="168.09" y="129.31" width="1.3229" height="4.2333"/>
   <rect transform="rotate(90)" x="168.09" y="60.517" width="1.3229" height="4.2333"/>
   <rect transform="rotate(90)" x="168.09" y="-8.2747" width="1.3229" height="4.2333"/>
   <rect transform="rotate(90)" x="168.09" y="-77.066" width="1.3229" height="4.2333"/>
   <rect transform="rotate(90)" x="141.63" y="60.517" width="1.3229" height="4.2333"/>
   <rect transform="rotate(90)" x="141.63" y="-8.2747" width="1.3229" height="4.2333"/>
   <rect transform="rotate(90)" x="115.17" y="26.121" width="1.3229" height="4.2333"/>
  </g>
  <path d="m-28.207 115.09v-9.7896" fill="#a6aeb8" stroke="#47d58a" stroke-dashoffset="1.2" stroke-linecap="square" stroke-miterlimit="40" stroke-width=".26458"/>
  <g fill="none" stroke="#47d58a" stroke-dashoffset="1.2" stroke-linecap="square" stroke-miterlimit="40" stroke-width=".26458">
   <path d="m-30.194 131.75v5.5562h-32.279v4.2333"/>
   <path d="m-26.225 131.75v5.5562h32.279v4.2333"/>
   <path d="m-131.26 168v-8.7312h101.86v-27.517"/>
   <path d="m-28.606 131.75v29.104h-33.984v7.1438"/>
   <path d="m-148.57 194.46v-6.8792h16.508v-2.9104"/>
   <path d="m-130.74 184.67v2.9104h16.547v6.8792"/>
  </g>
  <g stroke="#47d58a" stroke-dashoffset="1.2" stroke-linecap="square" stroke-miterlimit="40" stroke-width=".26458">
   <ellipse cx="-148.57" cy="187.58" rx=".66146" ry=".66146" fill="#1d232d"/>
   <ellipse cx="-114.17" cy="187.58" rx=".66146" ry=".66146" fill="#1d232d"/>
   <path d="m-79.775 194.46v-6.8792h16.508v-2.9104" fill="none"/>
   <path d="m-61.944 184.67v2.9104h16.547v6.8792" fill="none"/>
   <ellipse cx="-79.775" cy="187.58" rx=".66146" ry=".66146" fill="#1d232d"/>
   <ellipse cx="-45.379" cy="187.58" rx=".66146" ry=".66146" fill="#1d232d"/>
   <path d="m-10.983 194.46v-6.8792h16.508v-2.9104" fill="none"/>
   <path d="m6.8479 184.67v2.9104h16.547v6.8792" fill="none"/>
   <ellipse cx="-10.983" cy="187.58" rx=".66146" ry=".66146" fill="#1d232d"/>
   <ellipse cx="23.413" cy="187.58" rx=".66146" ry=".66146" fill="#1d232d"/>
   <path d="m57.809 194.46v-6.8792h16.508v-2.9104" fill="none"/>
   <path d="m75.64 184.67v2.9104h16.547v6.8792" fill="none"/>
   <ellipse cx="57.809" cy="187.58" rx=".66146" ry=".66146" fill="#1d232d"/>
   <ellipse cx="92.204" cy="187.58" rx=".66146" ry=".66146" fill="#1d232d"/>
   <path d="m74.846 168v-8.7312h-101.86v-27.517" fill="none"/>
   <path d="m-27.812 131.75v29.104h33.984v7.1438" fill="none"/>
  </g>
  <g fill="#1d232d" stroke="#47d58a" stroke-dashoffset="1.2" stroke-linecap="square" stroke-miterlimit="40" stroke-width=".26458">
   <ellipse cx="-131.17" cy="159.27" rx=".66146" ry=".66146"/>
   <ellipse cx="-62.598" cy="160.86" rx=".66146" ry=".66146"/>
   <ellipse cx="6.1938" cy="160.86" rx=".66146" ry=".66146"/>
   <ellipse cx="6.0551" cy="137.31" rx=".66146" ry=".66146"/>
   <ellipse cx="-62.459" cy="137.31" rx=".66146" ry=".66146"/>
   <ellipse cx="74.835" cy="159.27" rx=".66146" ry=".66146"/>
  </g>
 </g>
</svg>
