<?xml version="1.0" encoding="UTF-8"?>
<svg width="117.84mm" height="49.069mm" version="1.1" viewBox="0 0 117.84 49.069" xmlns="http://www.w3.org/2000/svg" xmlns:cc="http://creativecommons.org/ns#" xmlns:dc="http://purl.org/dc/elements/1.1/" xmlns:rdf="http://www.w3.org/1999/02/22-rdf-syntax-ns#">
 <metadata>
  <rdf:RDF>
   <cc:Work rdf:about="">
    <dc:format>image/svg+xml</dc:format>
    <dc:type rdf:resource="http://purl.org/dc/dcmitype/StillImage"/>
    <dc:title/>
   </cc:Work>
  </rdf:RDF>
 </metadata>
 <g transform="translate(-232.78 -98.327)">
  <g fill="#47d58a" stroke="#cf2f25" stroke-linecap="round" stroke-width=".26458" aria-label="LTObject">
   <rect x="232.85" y="99.903" width="42.103" height="42.085" fill="#1d232d" stroke="#535e70" stroke-width=".13229"/>
   <g fill="none" stroke-linecap="butt" stroke-width=".13229">
    <g stroke="#535e70">
     <path d="m253.9 142.05v-42.205"/>
     <path d="m232.79 120.95h42.223"/>
     <path d="m243.34 120.85v-21.003"/>
     <path d="m232.79 110.39h21.441"/>
     <path d="m275.01 131.5h-21.132"/>
     <path d="m253.9 115.67h10.556"/>
     <path d="m253.57 110.39h21.441"/>
     <path d="m259.18 120.95v-10.551"/>
     <path d="m269.73 120.95v10.551"/>
     <path d="m264.45 126.22h10.556"/>
     <path d="m272.37 126.22v5.2756"/>
     <path d="m269.73 128.86h5.2778"/>
     <path d="m248.62 99.843v10.551"/>
     <path d="m243.34 105.12h10.556"/>
    </g>
    <g stroke="#47d58a">
     <path d="m320.09 101.04-31.813 7.9396"/>
     <path d="m309.46 108.98 10.653-7.9396"/>
     <path d="m320.05 101.04 5.3569 7.9396"/>
     <path d="m341.3 108.98-21.247-7.9396"/>
     <path d="m280.38 119.57 8.0143-7.9396"/>
     <path d="m285.7 119.57 2.6941-7.9396"/>
     <path d="m291.04 119.57-2.6477-7.9396"/>
     <path d="m296.33 119.57-7.9342-7.9396"/>
     <path d="m301.56 119.57 8.0143-7.9396"/>
     <path d="m306.88 119.57 2.6941-7.9396"/>
     <path d="m312.22 119.57-2.6477-7.9396"/>
     <path d="m317.51 119.57-7.9342-7.9396"/>
     <path d="m333.34 119.57 8.0143-7.9396"/>
     <path d="m338.66 119.57 2.6941-7.9396"/>
     <path d="m344 119.57-2.6477-7.9396"/>
     <path d="m349.29 119.57-7.9342-7.9396"/>
     <path d="m280.12 130.15 5.6314-7.9396"/>
     <path d="m283.8 130.15 1.9495-7.9396"/>
     <path d="m287.53 130.15-1.7872-7.9396"/>
     <path d="m291.28 130.15-5.5347-7.9396"/>
     <path d="m306.59 130.15 5.6314-7.9396"/>
     <path d="m310.27 130.15 1.9495-7.9396"/>
     <path d="m314.01 130.15-1.7872-7.9396"/>
     <path d="m317.76 130.15-5.5347-7.9396"/>
     <path d="m333.08 130.15 5.6314-7.9396"/>
     <path d="m336.76 130.15 1.9495-7.9396"/>
     <path d="m340.5 130.15-1.7872-7.9396"/>
     <path d="m344.24 130.15-5.5347-7.9396"/>
     <path d="m340.18 140.74 4.0428-7.9396"/>
     <path d="m342.8 140.74 1.4199-7.9396"/>
     <path d="m345.48 140.74-1.2576-7.9396"/>
     <path d="m348.16 140.74-3.9461-7.9396"/>
    </g>
   </g>
   <g fill="#1d232d" stroke="#535e70" stroke-linecap="round" stroke-linejoin="bevel" stroke-width=".13229">
    <rect x="318.78" y="98.393" width="2.6477" height="2.6465" style="paint-order:normal"/>
    <rect x="287.01" y="108.98" width="2.6477" height="2.6465" style="paint-order:normal"/>
    <rect x="308.19" y="108.98" width="2.6477" height="2.6465" style="paint-order:normal"/>
    <rect x="324.08" y="108.98" width="2.6477" height="2.6465" style="paint-order:normal"/>
    <rect x="339.97" y="108.98" width="2.6477" height="2.6465" style="paint-order:normal"/>
    <rect x="279.07" y="119.57" width="2.6477" height="2.6465" style="paint-order:normal"/>
    <rect x="284.36" y="119.57" width="2.6477" height="2.6465" style="paint-order:normal"/>
    <rect x="289.66" y="119.57" width="2.6477" height="2.6465" style="paint-order:normal"/>
    <rect x="294.95" y="119.57" width="2.6477" height="2.6465" style="paint-order:normal"/>
    <rect x="300.25" y="119.57" width="2.6477" height="2.6465" style="paint-order:normal"/>
    <rect x="305.54" y="119.57" width="2.6477" height="2.6465" style="paint-order:normal"/>
    <rect x="310.84" y="119.57" width="2.6477" height="2.6465" style="paint-order:normal"/>
    <rect x="316.13" y="119.57" width="2.6477" height="2.6465" style="paint-order:normal"/>
    <rect x="332.03" y="119.57" width="2.6477" height="2.6465" style="paint-order:normal"/>
    <rect x="337.32" y="119.57" width="2.6477" height="2.6465" style="paint-order:normal"/>
    <rect x="342.62" y="119.57" width="2.6477" height="2.6465" style="paint-order:normal"/>
    <rect x="347.91" y="119.57" width="2.6477" height="2.6465" style="paint-order:normal"/>
    <rect x="278.87" y="130.15" width="2.6477" height="2.6465" style="paint-order:normal"/>
    <rect x="282.57" y="130.15" width="2.6477" height="2.6465" style="paint-order:normal"/>
    <rect x="286.28" y="130.15" width="2.6477" height="2.6465" style="paint-order:normal"/>
    <rect x="289.99" y="130.15" width="2.6477" height="2.6465" style="paint-order:normal"/>
    <rect x="339.01" y="140.74" width="2.6477" height="2.6465" style="paint-order:normal"/>
    <rect x="305.34" y="130.15" width="2.6477" height="2.6465" style="paint-order:normal"/>
    <rect x="309.05" y="130.15" width="2.6477" height="2.6465" style="paint-order:normal"/>
    <rect x="312.76" y="130.15" width="2.6477" height="2.6465" style="paint-order:normal"/>
    <rect x="316.46" y="130.15" width="2.6477" height="2.6465" style="paint-order:normal"/>
    <rect x="331.83" y="130.15" width="2.6477" height="2.6465" style="paint-order:normal"/>
    <rect x="335.53" y="130.15" width="2.6477" height="2.6465" style="paint-order:normal"/>
    <rect x="339.24" y="130.15" width="2.6477" height="2.6465" style="paint-order:normal"/>
    <rect x="342.95" y="130.15" width="2.6477" height="2.6465" style="paint-order:normal"/>
    <rect x="341.66" y="140.74" width="2.6477" height="2.6465" style="paint-order:normal"/>
    <rect x="344.3" y="140.74" width="2.6477" height="2.6465" style="paint-order:normal"/>
    <rect x="346.95" y="140.74" width="2.6477" height="2.6465" style="paint-order:normal"/>
   </g>
   <g fill="none" stroke-linecap="butt" stroke-width=".13229">
    <path d="m264.44 142.06v-21.123" stroke="#535e70"/>
    <path d="m264.44 99.972v21.432" stroke="#535e70"/>
    <path d="m339.15 146.41 3.6653-2.9207" stroke="#e8eaec" stroke-dasharray="0.132292, 0.264583"/>
   </g>
   <g stroke="none">
    <circle cx="245.75" cy="102.49" r=".66913" fill="#f6c9a0"/>
    <circle cx="249.99" cy="106.19" r=".66913" fill="#30d2d5"/>
    <circle cx="255.54" cy="118.63" r=".66913" fill="#d2d6dc"/>
    <circle cx="270.09" cy="118.36" r=".66913" fill="#e9e56f"/>
    <circle cx="272.47" cy="127.36" r=".66913" fill="#6f8ce9"/>
    <circle cx="274.06" cy="127.36" r=".66913" fill="#47d58a"/>
    <circle cx="253.95" cy="110.69" r="2.5415" fill="#ff867f"/>
    <g transform="scale(.99996 1)" fill="#e8eaec" stroke-linecap="round" stroke-width=".26458" aria-label="overlap">
     <path d="m295.02 127.01c0 0.42598 0.28046 0.67204 0.59531 0.67204s0.59531-0.24606 0.59531-0.67204c0-0.43127-0.28046-0.67733-0.59531-0.67733s-0.59531 0.24606-0.59531 0.67733zm0.22489 0c0-0.29633 0.15082-0.49741 0.37042-0.49741 0.22225 0 0.37042 0.20108 0.37042 0.49741 0 0.29369-0.14817 0.49213-0.37042 0.49213-0.2196 0-0.37042-0.19844-0.37042-0.49213z"/>
     <path d="m296.82 127.65h0.254l0.45508-1.2859h-0.21431l-0.24342 0.73025c-0.037 0.127-0.0794 0.25664-0.11641 0.37835h-0.0106c-0.0397-0.12171-0.082-0.25135-0.11906-0.37835l-0.24342-0.73025h-0.22489z"/>
     <path d="m297.67 127.01c0 0.42069 0.27252 0.67204 0.61647 0.67204 0.17463 0 0.31221-0.0609 0.42334-0.13229l-0.0767-0.14287c-0.0953 0.0609-0.19844 0.10054-0.32015 0.10054-0.24606 0-0.41275-0.17463-0.42862-0.45244h0.86783c5e-3 -0.0318 8e-3 -0.0741 8e-3 -0.11906 0-0.36777-0.18521-0.60325-0.51329-0.60325-0.29369 0-0.57679 0.25664-0.57679 0.67733zm0.21166-0.0979c0.0265-0.2593 0.1905-0.40746 0.37042-0.40746 0.20108 0 0.3175 0.14552 0.3175 0.40746z"/>
     <path d="m299.08 127.65h0.21695v-0.8255c0.0873-0.21695 0.21696-0.29633 0.32544-0.29633 0.0529 0 0.082 8e-3 0.12436 0.0212l0.0423-0.1905c-0.0423-0.0185-0.082-0.0265-0.13758-0.0265-0.14553 0-0.27782 0.10319-0.36513 0.26458h-8e-3l-0.0185-0.23283h-0.17991z"/>
     <path d="m299.99 127.39c0 0.18786 0.0661 0.29104 0.23018 0.29104 0.0582 0 0.0953-8e-3 0.12436-0.0212l-0.0291-0.16405c-0.0238 5e-3 -0.0344 5e-3 -0.0476 5e-3 -0.0317 0-0.0609-0.0265-0.0609-0.0953v-1.6404h-0.21695z"/>
     <path d="m300.61 127.31c0 0.23019 0.16139 0.36512 0.37835 0.36512 0.15875 0 0.30162-0.0847 0.42598-0.18521h5e-3l0.0185 0.15346h0.17992v-0.78845c0-0.32015-0.13229-0.52917-0.44715-0.52917-0.20637 0-0.38629 0.09-0.50535 0.16669l0.0873 0.15081c0.10054-0.0688 0.23283-0.13758 0.38365-0.13758 0.20902 0 0.26458 0.15875 0.26458 0.32279-0.54769 0.0609-0.7911 0.20108-0.7911 0.48154zm0.21431-0.0159c0-0.16404 0.14552-0.26987 0.57679-0.32279v0.35719c-0.12435 0.11112-0.22754 0.17198-0.3519 0.17198-0.127 0-0.22489-0.0609-0.22489-0.20638z"/>
     <path d="m302.24 127.53c0.11907 0.0926 0.23813 0.14816 0.35719 0.14816 0.29369 0 0.55562-0.25664 0.55562-0.6932 0-0.39953-0.17727-0.65617-0.50799-0.65617-0.15082 0-0.29369 0.082-0.41011 0.17992h-8e-3l-0.0185-0.14817h-0.17991v1.8283h0.21695v-0.43392zm5e-3 -0.16934v-0.67468c0.127-0.11377 0.23548-0.17463 0.34396-0.17463 0.24342 0 0.33867 0.1905 0.33867 0.47361 0 0.31749-0.1561 0.51064-0.36777 0.51064-0.0847 0-0.19844-0.037-0.31486-0.13494z"/>
    </g>
    <g transform="scale(.99996 1)" fill="#e8eaec" stroke-linecap="round" stroke-width=".26458" aria-label="collision">
     <path d="m334.44 146.59c0 0.42598 0.26194 0.67204 0.60325 0.67204 0.15346 0 0.30162-0.0635 0.41804-0.16669l-0.0979-0.14287c-0.0767 0.0688-0.17991 0.12964-0.30162 0.12964-0.23548 0-0.39688-0.19843-0.39688-0.49212 0-0.29633 0.16934-0.49742 0.40217-0.49742 0.10319 0 0.18256 0.0476 0.25929 0.11377l0.10848-0.14023c-0.0873-0.082-0.20637-0.15345-0.37571-0.15345-0.33073 0-0.61912 0.24606-0.61912 0.67733z"/>
     <path d="m335.59 146.59c0 0.42598 0.28046 0.67204 0.59532 0.67204 0.31485 0 0.59531-0.24606 0.59531-0.67204 0-0.43127-0.28046-0.67733-0.59531-0.67733-0.31486 0-0.59532 0.24606-0.59532 0.67733zm0.2249 0c0-0.29633 0.15081-0.49742 0.37042-0.49742 0.22225 0 0.37041 0.20109 0.37041 0.49742 0 0.29369-0.14816 0.49212-0.37041 0.49212-0.21961 0-0.37042-0.19843-0.37042-0.49212z"/>
     <path d="m337.12 146.97c0 0.18785 0.0661 0.29104 0.23018 0.29104 0.0582 0 0.0952-8e-3 0.12436-0.0212l-0.0291-0.16404c-0.0238 5e-3 -0.0344 5e-3 -0.0476 5e-3 -0.0317 0-0.0609-0.0265-0.0609-0.0952v-1.6404h-0.21695z"/>
     <path d="m337.8 146.97c0 0.18785 0.0661 0.29104 0.23018 0.29104 0.0582 0 0.0952-8e-3 0.12436-0.0212l-0.0291-0.16404c-0.0238 5e-3 -0.0344 5e-3 -0.0476 5e-3 -0.0317 0-0.0609-0.0265-0.0609-0.0952v-1.6404h-0.21696z"/>
     <path d="m338.58 145.68c0.0847 0 0.15081-0.0582 0.15081-0.14023 0-0.0847-0.0661-0.14022-0.15081-0.14022-0.0847 0-0.15081 0.0556-0.15081 0.14022 0 0.082 0.0661 0.14023 0.15081 0.14023zm-0.11112 1.5505h0.21696v-1.2859h-0.21696z"/>
     <path d="m338.98 147.08c0.12171 0.10054 0.29634 0.17727 0.4789 0.17727 0.30427 0 0.47096-0.17463 0.47096-0.38365 0-0.24341-0.20638-0.32014-0.39158-0.38893-0.14553-0.0556-0.28575-0.10319-0.28575-0.22225 0-0.0979 0.0741-0.18521 0.23547-0.18521 0.11377 0 0.20638 0.0476 0.29369 0.11377l0.10319-0.13758c-0.0979-0.0794-0.23813-0.14552-0.39952-0.14552-0.27781 0-0.44186 0.15875-0.44186 0.36512 0 0.21696 0.20109 0.30427 0.38365 0.37042 0.14023 0.0529 0.29369 0.11112 0.29369 0.24341 0 0.11113-0.0847 0.20109-0.254 0.20109-0.15346 0-0.26723-0.0635-0.37836-0.15346z"/>
     <path d="m340.35 145.68c0.0847 0 0.15081-0.0582 0.15081-0.14023 0-0.0847-0.0661-0.14022-0.15081-0.14022-0.0847 0-0.15082 0.0556-0.15082 0.14022 0 0.082 0.0661 0.14023 0.15082 0.14023zm-0.11113 1.5505h0.21696v-1.2859h-0.21696z"/>
     <path d="m340.79 146.59c0 0.42598 0.28046 0.67204 0.59532 0.67204 0.31485 0 0.59531-0.24606 0.59531-0.67204 0-0.43127-0.28046-0.67733-0.59531-0.67733-0.31486 0-0.59532 0.24606-0.59532 0.67733zm0.2249 0c0-0.29633 0.15081-0.49742 0.37042-0.49742 0.22225 0 0.37041 0.20109 0.37041 0.49742 0 0.29369-0.14816 0.49212-0.37041 0.49212-0.21961 0-0.37042-0.19843-0.37042-0.49212z"/>
     <path d="m342.32 147.23h0.21695v-0.93133c0.12965-0.12965 0.21961-0.19844 0.3519-0.19844 0.16933 0 0.24342 0.10319 0.24342 0.34396v0.78581h0.21695v-0.81492c0-0.32808-0.1217-0.5027-0.39158-0.5027-0.17727 0-0.30956 0.0953-0.43127 0.21695h-8e-3l-0.0185-0.1852h-0.17991z"/>
    </g>
   </g>
   <g fill="#ff867f" stroke="none">
    <circle cx="296.24" cy="120.81" r="1.2066"/>
    <circle cx="301.53" cy="120.81" r="1.2066"/>
    <circle cx="306.75" cy="131.45" r="1.2066"/>
    <circle cx="290.89" cy="130.99" r=".672"/>
   </g>
   <g stroke="none">
    <circle cx="317.45" cy="120.75" r=".66913" fill="#e9e56f"/>
    <circle cx="280.15" cy="131.33" r=".66913" fill="#f6c9a0"/>
    <circle cx="291.87" cy="131.99" r=".66913" fill="#30d2d5"/>
    <circle cx="314.01" cy="131.59" r=".66913" fill="#d2d6dc"/>
    <circle cx="342.41" cy="141.51" r=".66913" fill="#6f8ce9"/>
    <circle cx="343.5" cy="142.55" r=".66913" fill="#47d58a"/>
    <circle cx="340.29" cy="142.04" r=".66913" fill="#6f8ce9"/>
   </g>
  </g>
 </g>
</svg>
