<svg width="17.724mm" height="16.702mm" version="1.1" viewBox="0 0 17.724 16.702" xmlns="http://www.w3.org/2000/svg">
 <g transform="translate(-279.05 -284.12)">
  <g fill="none">
   <path d="m282.01 289.27h1.9802v9.2273" stroke="#9f2424" stroke-dasharray="0.05291667, 0.10583333" stroke-width=".052917"/>
   <path d="m282.01 297.21h7.9375v1.2908" stroke="#9f2424" stroke-dasharray="0.05291667, 0.10583333" stroke-width=".052917"/>
   <g>
    <path d="m283.33 298.5v0.52854" stroke="#d54747" stroke-linecap="round" stroke-width=".056356"/>
    <path d="m282.01 298.5c7.9375-1.3229 1.8521-9.2604 13.229-13.229" stroke="#019100" stroke-width=".13229"/>
    <path d="m282.01 298.5 7.9375-1.2762" stroke="#fff" stroke-width=".052917"/>
   </g>
   <g stroke="#d54747">
    <path d="m295.24 298.5h-13.229v-13.229" stroke-width=".10583"/>
    <g stroke-linecap="round" stroke-width=".056356">
     <path d="m284.66 298.5v0.52854"/>
     <path d="m285.98 298.5v0.52854"/>
     <path d="m287.3 298.5v0.52854"/>
     <path d="m288.63 298.5v0.52854"/>
     <path d="m289.95 298.5v0.52854"/>
     <path d="m291.27 298.5v0.52854"/>
     <path d="m292.6 298.5v0.52854"/>
     <path d="m293.92 298.5v0.52854"/>
     <path d="m295.24 298.5v0.52854"/>
    </g>
   </g>
  </g>
  <g fill="#e9e56f" stroke-width=".28222px" aria-label="0.5">
   <path d="m288.38 299.41c-0.0642 0-0.13041 0.0792-0.13041 0.20827 0 0.13106 0.0668 0.20632 0.13106 0.20632 0.0584 0 0.12782-0.0636 0.12782-0.20308 0-0.13754-0.0662-0.21151-0.12847-0.21151zm0.0629 0.0928-0.14209 0.18426c-6e-3 -0.0227-9e-3 -0.048-9e-3 -0.0765 0-0.10381 0.0474-0.16091 0.0876-0.16091 0.0221 0 0.0461 0.0175 0.0636 0.0532zm0.0149 0.0428c6e-3 0.0227 8e-3 0.05 8e-3 0.0817 0 0.1129-0.0487 0.15572-0.0843 0.15572-0.024 0-0.0487-0.0195-0.0662-0.0552z"/>
   <path d="m288.74 299.78c0-0.0201-0.0169-0.037-0.0383-0.037s-0.0383 0.0169-0.0383 0.037c0 0.0208 0.0169 0.0376 0.0383 0.0376s0.0383-0.0169 0.0383-0.0376z"/>
   <path d="m288.94 299.41-0.0143 0.20567 0.0292 0.0117c0.0195-0.0247 0.048-0.0383 0.0759-0.0383 0.0422 0 0.0824 0.0324 0.0824 0.0967 0 0.0623-0.0383 0.096-0.0817 0.096-0.0435 0-0.072-0.0331-0.074-0.037-3e-3 -5e-3 6.5e-4 -0.0117-5e-3 -0.0156l-0.0402 0.0305c0.0273 0.0396 0.072 0.0623 0.12003 0.0623 0.0701 0 0.12782-0.0474 0.12782-0.13495 0-0.0869-0.0545-0.13495-0.12263-0.13495-0.0221 0-0.0448 5e-3 -0.0655 0.0156l6e-3 -0.11679h0.1674v-0.0409z"/>
  </g>
  <g fill="#e9e56f" stroke-width=".28222px" aria-label="1.0">
   <path d="m295.03 299.41h-0.0299l-0.1038 0.0539 0.0104 0.0253 0.0804-0.0227v0.31273h-0.0753v0.0357h0.19075v-0.0357h-0.0727z"/>
   <path d="m295.35 299.78c0-0.0201-0.0169-0.037-0.0383-0.037s-0.0383 0.0169-0.0383 0.037c0 0.0208 0.0169 0.0376 0.0383 0.0376s0.0383-0.0169 0.0383-0.0376z"/>
   <path d="m295.64 299.41c-0.0642 0-0.13041 0.0792-0.13041 0.20827 0 0.13106 0.0668 0.20632 0.13106 0.20632 0.0584 0 0.12782-0.0636 0.12782-0.20308 0-0.13754-0.0662-0.21151-0.12847-0.21151zm0.0629 0.0928-0.14209 0.18426c-6e-3 -0.0227-9e-3 -0.048-9e-3 -0.0765 0-0.10381 0.0474-0.16091 0.0876-0.16091 0.0221 0 0.0461 0.0175 0.0636 0.0532zm0.0149 0.0428c6e-3 0.0227 8e-3 0.05 8e-3 0.0817 0 0.1129-0.0487 0.15572-0.0843 0.15572-0.024 0-0.0487-0.0195-0.0662-0.0552z"/>
  </g>
  <g fill="none" stroke="#d54747" stroke-linecap="round" stroke-width=".056356">
   <path d="m281.43 297.21h0.52854"/>
   <path d="m281.43 295.89h0.52854"/>
   <path d="m281.43 294.56h0.52854"/>
   <path d="m281.43 293.24h0.52854"/>
   <path d="m281.43 291.92h0.52854"/>
   <path d="m281.43 290.6h0.52854"/>
   <path d="m281.43 289.27h0.52854"/>
   <path d="m281.43 287.95h0.52854"/>
   <path d="m281.43 286.63h0.52854"/>
   <path d="m281.43 285.3h0.52854"/>
  </g>
  <g>
   <g fill="#e9e56f" stroke-width=".28222px" aria-label="0.5">
    <path d="m280.18 291.73c-0.0642 0-0.13041 0.0792-0.13041 0.20827 0 0.13106 0.0668 0.20632 0.13106 0.20632 0.0584 0 0.12782-0.0636 0.12782-0.20308 0-0.13755-0.0662-0.21151-0.12847-0.21151zm0.0629 0.0928-0.14209 0.18426c-6e-3 -0.0227-9e-3 -0.048-9e-3 -0.0766 0-0.10381 0.0474-0.1609 0.0876-0.1609 0.0221 0 0.0461 0.0175 0.0636 0.0532zm0.0149 0.0428c6e-3 0.0227 8e-3 0.05 8e-3 0.0817 0 0.11289-0.0487 0.15572-0.0844 0.15572-0.024 0-0.0487-0.0195-0.0662-0.0552z"/>
    <path d="m280.53 292.11c0-0.0201-0.0169-0.037-0.0383-0.037s-0.0383 0.0169-0.0383 0.037c0 0.0208 0.0169 0.0376 0.0383 0.0376s0.0383-0.0169 0.0383-0.0376z"/>
    <path d="m280.73 291.74-0.0143 0.20567 0.0292 0.0117c0.0195-0.0247 0.048-0.0383 0.0759-0.0383 0.0422 0 0.0824 0.0324 0.0824 0.0967 0 0.0623-0.0383 0.096-0.0817 0.096-0.0435 0-0.072-0.0331-0.074-0.037-3e-3 -5e-3 6.5e-4 -0.0117-5e-3 -0.0156l-0.0402 0.0305c0.0272 0.0396 0.072 0.0623 0.12003 0.0623 0.0701 0 0.12781-0.0474 0.12781-0.13495 0-0.0869-0.0545-0.13495-0.12262-0.13495-0.0221 0-0.0448 5e-3 -0.0655 0.0156l6e-3 -0.11679h0.16739v-0.0409z"/>
   </g>
   <g fill="#e9e56f" stroke-width=".28222px" aria-label="1.0">
    <path d="m280.21 285.12h-0.0299l-0.10381 0.0539 0.0104 0.0253 0.0805-0.0227v0.31272h-0.0753v0.0357h0.19075v-0.0357h-0.0727z"/>
    <path d="m280.53 285.5c0-0.0201-0.0169-0.037-0.0383-0.037s-0.0383 0.0169-0.0383 0.037c0 0.0208 0.0169 0.0376 0.0383 0.0376s0.0383-0.0169 0.0383-0.0376z"/>
    <path d="m280.83 285.12c-0.0642 0-0.13041 0.0791-0.13041 0.20826 0 0.13106 0.0668 0.20633 0.13106 0.20633 0.0584 0 0.12782-0.0636 0.12782-0.20308 0-0.13755-0.0662-0.21151-0.12847-0.21151zm0.0629 0.0928-0.14209 0.18426c-6e-3 -0.0227-9e-3 -0.048-9e-3 -0.0766 0-0.10381 0.0474-0.16091 0.0876-0.16091 0.0221 0 0.0461 0.0175 0.0636 0.0532zm0.0149 0.0428c6e-3 0.0227 8e-3 0.05 8e-3 0.0817 0 0.11289-0.0487 0.15571-0.0843 0.15571-0.024 0-0.0487-0.0195-0.0662-0.0552z"/>
   </g>
   <path d="m295.24 285.27-11.336 4.0448" fill="none" stroke="#fff" stroke-width=".052917"/>
  </g>
  <circle cx="283.99" cy="289.27" r=".14993" fill="#d54747" stroke="#d54747" stroke-linecap="round" stroke-width=".16933"/>
  <path d="m282.01 285.27h13.229v13.229" fill="none" stroke="#761b1b" stroke-dasharray="0.238125, 0.079375" stroke-width=".079375"/>
  <g>
   <g fill="#e9e56f" stroke-width=".28222px" aria-label="P1">
    <path d="m290.48 296.77v0.4042h0.0474v-0.17842h0.0792c0.0253 0 0.0493-6.5e-4 0.074-0.013 0.0376-0.0188 0.0571-0.0577 0.0571-0.0986s-0.0195-0.0805-0.0577-0.0999c-0.0253-0.0136-0.0506-0.0143-0.0766-0.0143zm0.0474 0.0428h0.0759c0.0169 0 0.0331 6.5e-4 0.05 8e-3 0.0247 0.013 0.0383 0.0389 0.0383 0.0649s-0.013 0.05-0.0363 0.0616c-0.0156 8e-3 -0.0311 8e-3 -0.0467 8e-3h-0.0817z"/>
    <path d="m290.96 296.77h-0.0298l-0.1038 0.0539 0.0104 0.0253 0.0805-0.0227v0.31273h-0.0753v0.0357h0.19075v-0.0357h-0.0727z"/>
   </g>
   <g fill="#e9e56f" stroke-width=".28222px" aria-label="P2">
    <path d="m283.86 289.77v0.4042h0.0474v-0.17842h0.0791c0.0253 0 0.0493-6.5e-4 0.074-0.013 0.0376-0.0188 0.0571-0.0577 0.0571-0.0986s-0.0195-0.0805-0.0577-0.0999c-0.0253-0.0136-0.0506-0.0143-0.0766-0.0143zm0.0474 0.0428h0.0759c0.0169 0 0.0331 6.5e-4 0.05 8e-3 0.0247 0.013 0.0383 0.0389 0.0383 0.0649s-0.013 0.05-0.0363 0.0616c-0.0156 8e-3 -0.0312 8e-3 -0.0467 8e-3h-0.0817z"/>
    <path d="m284.2 289.83 0.0331 0.0266c4e-3 -6e-3 2e-3 -0.01 6e-3 -0.0149 0.01-0.0149 0.0337-0.037 0.0688-0.037 0.0435 0 0.0779 0.0331 0.0779 0.0766 0 0.0493-0.0415 0.085-0.0707 0.11159-0.0461 0.0415-0.0837 0.0831-0.11744 0.14988v0.0285h0.23747v-0.0448c-5e-3 -2e-3 -8e-3 1e-3 -9e-3 3e-3 -3e-3 3e-3 -4e-3 3e-3 -6e-3 3e-3h-0.16999c0.0337-0.0584 0.0811-0.0986 0.1103-0.12587 0.0292-0.0279 0.0707-0.0694 0.0707-0.12782 0-0.0629-0.0513-0.11354-0.11679-0.11354-0.0461 0-0.0895 0.0247-0.11354 0.0655z"/>
   </g>
   <circle cx="289.95" cy="297.21" r=".14993" fill="#d54747" stroke="#d54747" stroke-linecap="round" stroke-width=".16933"/>
  </g>
 </g>
</svg>
