<svg width="54.65mm" height="38.864mm" version="1.1" viewBox="0 0 54.65 38.864" xmlns="http://www.w3.org/2000/svg">
 <g transform="translate(-112.95 -36.78)">
  <g>
   <g transform="matrix(.28222 0 0 .28222 34.2 -61.662)" fill="#d5d247">
    <path d="m384.79 418-49.673 24.244 0.45898 0.88867 49.671-24.243z" color="#000000" color-rendering="auto" fill="#d5d247" fill-rule="evenodd" image-rendering="auto" shape-rendering="auto" solid-color="#000000" style="isolation:auto;mix-blend-mode:normal;text-decoration-color:#000000;text-decoration-line:none;text-decoration-style:solid;text-indent:0;text-transform:none;white-space:normal"/>
   </g>
   <g transform="matrix(.28222 0 0 .28222 34.2 -61.662)" fill="#d54747">
    <path d="m456.08 410.37-161.11 17.279 0.10742 0.99414 161.11-17.279z" color="#000000" color-rendering="auto" fill="#d54747" fill-rule="evenodd" image-rendering="auto" shape-rendering="auto" solid-color="#000000" style="isolation:auto;mix-blend-mode:normal;text-decoration-color:#000000;text-decoration-line:none;text-decoration-style:solid;text-indent:0;text-transform:none;white-space:normal"/>
   </g>
   <g transform="matrix(.28222 0 0 .28222 34.2 -61.662)" fill="#d54747">
    <path d="m289.51 377.8-0.99024 0.1289 6.4473 49.756 0.99023-0.12891z" color="#000000" color-rendering="auto" fill="#d54747" fill-rule="evenodd" image-rendering="auto" shape-rendering="auto" solid-color="#000000" style="isolation:auto;mix-blend-mode:normal;text-decoration-color:#000000;text-decoration-line:none;text-decoration-style:solid;text-indent:0;text-transform:none;white-space:normal"/>
   </g>
   <g transform="matrix(.28222 0 0 .28222 34.2 -61.662)" fill="#cc47d5">
    <path d="m328.76 389.71-0.26758 0.53711 122.68 61.166 0.26758-0.53711z" color="#000000" color-rendering="auto" fill="#cc47d5" fill-rule="evenodd" image-rendering="auto" shape-rendering="auto" solid-color="#000000" style="isolation:auto;mix-blend-mode:normal;text-decoration-color:#000000;text-decoration-line:none;text-decoration-style:solid;text-indent:0;text-transform:none;white-space:normal"/>
   </g>
   <g transform="matrix(.28222 0 0 .28222 34.2 -61.662)" fill="#cc47d5">
    <path d="m384.9 357.98v121.45h0.59961v-121.45z" color="#000000" color-rendering="auto" fill="#cc47d5" fill-rule="evenodd" image-rendering="auto" shape-rendering="auto" solid-color="#000000" style="isolation:auto;mix-blend-mode:normal;text-decoration-color:#000000;text-decoration-line:none;text-decoration-style:solid;text-indent:0;text-transform:none;white-space:normal"/>
   </g>
  </g>
  <g fill="#e9e56f" stroke-width=".28222px">
   <g aria-label="lookAt">
    <path d="m160.56 51.487v0.1023h0.2293v0.96838h-0.23989v0.10054h0.60502v-0.10054h-0.23813v-1.0707z"/>
    <path d="m162.1 52.26c0-0.27869-0.17639-0.42333-0.35983-0.42333-0.20461 0-0.381 0.17639-0.381 0.42686 0 0.24518 0.17463 0.41804 0.37747 0.41804 0.1905 0 0.36336-0.15346 0.36336-0.42157zm-0.36865-0.31574c0.11642 0 0.23989 0.10054 0.23989 0.32103 0 0.20285-0.11642 0.30515-0.23283 0.30515-0.12877 0-0.24518-0.11994-0.24518-0.31926 0-0.19756 0.11465-0.30692 0.23812-0.30692z"/>
    <path d="m162.99 52.26c0-0.27869-0.17639-0.42333-0.35984-0.42333-0.20461 0-0.381 0.17639-0.381 0.42686 0 0.24518 0.17463 0.41804 0.37748 0.41804 0.1905 0 0.36336-0.15346 0.36336-0.42157zm-0.36865-0.31574c0.11641 0 0.23988 0.10054 0.23988 0.32103 0 0.20285-0.11641 0.30515-0.23283 0.30515-0.12876 0-0.24518-0.11994-0.24518-0.31926 0-0.19756 0.11465-0.30692 0.23813-0.30692z"/>
    <path d="m163.17 51.487v1.173h0.127v-0.30515l0.1076-0.09878 0.32808 0.41099s0.0688-0.0071 0.1517-0.0071h0.0123l-0.39511-0.48154 0.34043-0.31926h-0.0459c-0.0318 0-0.0635-0.0018-0.0953-0.01058l-0.40393 0.37571v-0.69144c0-0.0071 2e-3 -0.01235 7e-3 -0.02117 5e-3 -0.0053 0.0123-0.01235 0.0106-0.02469z"/>
    <path d="m163.96 52.66h0.12171l0.1076-0.32279h0.34748l0.12171 0.32103h0.12877l-0.4251-1.1183h-0.0141zm0.55034-0.41804h-0.2981l0.14287-0.41804z"/>
    <path d="m165.15 51.637-0.0159 0.21696h-0.19227l-2e-3 0.10407h0.18874c-0.0106 0.13758-0.0159 0.27517-0.0159 0.41099 0 0.07232 0 0.15346 0.0476 0.22049 0.0388 0.05292 0.10054 0.08467 0.18344 0.08467 0.0952 0 0.18874-0.04057 0.25753-0.08996l-0.0388-0.10054c-0.0688 0.05115-0.13229 0.07408-0.18168 0.07408-0.06 0-0.12171-0.03351-0.13582-0.13053 0-0.0071-5e-3 -0.03704-5e-3 -0.15522 0-0.10407 5e-3 -0.2099 0.0159-0.31397h0.26458v-0.10583h-0.26282s0.0123-0.14464 0.0212-0.1905c2e-3 -0.01764 0.0159-0.02822 9e-3 -0.04762z"/>
   </g>
   <g aria-label="up">
    <path d="m117.62 43.67v0.44979c0 0.06879 0 0.13935 0.0318 0.21167 0.0459 0.10583 0.14464 0.16404 0.25047 0.16404 0.10054 0 0.19579-0.05468 0.24871-0.14288l-2e-3 0.05997c0 0.02117 0 0.04233 4e-3 0.06174h0.13406c-9e-3 -0.02293-0.0106-0.04939-0.0106-0.07232v-0.73202h-0.127v0.44274c0 0.06174-5e-3 0.10936-0.0318 0.15875-0.037 0.06879-0.10936 0.11994-0.18698 0.11994-0.0617 0-0.1217-0.03528-0.15345-0.09878-0.0282-0.05644-0.0282-0.11994-0.0282-0.17286v-0.44979z"/>
    <path d="m118.5 43.67 2e-3 1.0989h0.12876v-0.4004c0.0547 0.07937 0.14464 0.12876 0.24165 0.12876 0.16581 0 0.33867-0.13935 0.33867-0.43392 0-0.28399-0.16757-0.41099-0.32632-0.41099-0.10407 0-0.20108 0.05292-0.25576 0.14111v-0.12347zm0.33691 0.08996c0.0706 0 0.24165 0.03704 0.24165 0.32985 0 0.254-0.16581 0.29457-0.24165 0.29457-0.0758 0-0.15346-0.0388-0.18521-0.11112-0.0229-0.05468-0.0229-0.12171-0.0229-0.23812 0-0.06703 4e-3 -0.11642 0.0212-0.15875 0.0318-0.07232 0.10584-0.11642 0.18698-0.11642z"/>
   </g>
   <g aria-label="normal">
    <path d="m129.82 64.749h0.12876v-0.4639c0-0.05292 7e-3 -0.09349 0.0406-0.13758 0.03-0.04057 0.1076-0.11289 0.19227-0.11289 0.0406 0 0.0811 0.01764 0.10936 0.05115 0.0441 0.05292 0.0441 0.12171 0.0441 0.17815v0.48507h0.12523v-0.4886c0-0.06174 0-0.12876-0.0282-0.19403-0.0406-0.08996-0.12347-0.14111-0.2152-0.14111-0.10936 0-0.20813 0.07056-0.26811 0.16051v-0.14111h-0.12876z"/>
    <path d="m131.39 64.35c0-0.2787-0.17639-0.42333-0.35983-0.42333-0.20462 0-0.381 0.17639-0.381 0.42686 0 0.24518 0.17462 0.41804 0.37747 0.41804 0.1905 0 0.36336-0.15346 0.36336-0.42157zm-0.36865-0.31574c0.11641 0 0.23988 0.10054 0.23988 0.32103 0 0.20285-0.11641 0.30515-0.23283 0.30515-0.12876 0-0.24518-0.11994-0.24518-0.31926 0-0.19756 0.11465-0.30692 0.23813-0.30692z"/>
    <path d="m131.64 63.944v0.8061h0.127v-0.39158c0-0.04939 2e-3 -0.1023 0.0564-0.18874 0.0741-0.11642 0.16934-0.13582 0.22755-0.13582 0.067 0 0.10936 0.03175 0.13229 0.05997 0.0106 0.01411 0.0159 0.02822 0.03 0.04057l0.06-0.12171c-0.0512-0.05292-0.12524-0.0882-0.2152-0.0882-0.11818 0-0.23812 0.05997-0.29104 0.17462l5e-3 -0.15522z"/>
    <path d="m132.41 64.749h0.11642v-0.53622c0-0.0388 4e-3 -0.07408 0.0265-0.11642 0.0282-0.05292 0.0635-0.07408 0.097-0.07408 0.0282 0 0.06 0.01764 0.0741 0.06174 0.0106 0.03351 9e-3 0.07232 9e-3 0.10583v0.55915h0.11818v-0.5327c0-0.04233 4e-3 -0.07585 0.0335-0.127 0.0141-0.02117 0.0441-0.07232 0.0935-0.07232 0.0264 0 0.0511 0.01588 0.0635 0.04586 0.0159 0.03351 0.0123 0.07937 0.0123 0.11642v0.5715h0.11995v-0.57326c0-0.06703 2e-3 -0.13406-0.0335-0.18874-0.03-0.04586-0.0811-0.0635-0.12523-0.0635-0.0776 0-0.14993 0.04586-0.18168 0.11642-0.0123-0.06703-0.0688-0.11642-0.14112-0.11642-0.067 0-0.12876 0.04233-0.1658 0.09878l2e-3 -0.07937h-0.11818z"/>
    <path d="m133.38 64.038 0.0617 0.08114c0.067-0.06879 0.15699-0.08996 0.23283-0.08996 0.0953 0 0.14288 0.04057 0.16581 0.07761 0.0265 0.0441 0.0247 0.09701 0.0247 0.13935v0.02822h-0.0247c-0.11995 0-0.24695 0-0.34925 0.03704-0.127 0.04586-0.18345 0.14111-0.18345 0.22931 0 0.11818 0.10231 0.2293 0.26988 0.2293 0.0988 0 0.20108-0.03704 0.28928-0.10936v0.08819h0.11994v-0.49917c0-0.06526-2e-3 -0.127-0.0388-0.1905-0.0529-0.08643-0.15523-0.13229-0.28046-0.13229-0.1076 0-0.21167 0.03351-0.28752 0.11112zm0.49036 0.33338v0.05468c0 0.04057 0 0.09349-0.0547 0.15169-0.03 0.02999-0.10583 0.09525-0.21166 0.09525-0.1076 0-0.16934-0.06879-0.16934-0.13935 0-0.05997 0.0406-0.12524 0.14111-0.14993 0.0741-0.01764 0.18169-0.01235 0.26635-0.01235z"/>
    <path d="m134.26 63.577v0.10231h0.22931v0.96838h-0.23989v0.10054h0.60501v-0.10054h-0.23812v-1.0707z"/>
   </g>
  </g>
  <g transform="matrix(-.34969 .054787 -.054787 -.34969 305.76 113.7)">
   <path d="m501.47 274.25-1.2053 3.2778-1.2053-3.2778c0.71162 0.52365 1.6852 0.52064 2.4106 0z" fill="#fff" fill-rule="evenodd" stroke="#d54747" stroke-linejoin="round" stroke-width=".1875"/>
  </g>
  <g transform="matrix(.16841 .31133 -.31133 .16841 130.16 -138.74)" stroke="#d5d247">
   <path d="m501.47 274.25-1.2053 3.2778-1.2053-3.2778c0.71162 0.52365 1.6852 0.52064 2.4106 0z" fill="#fff" fill-rule="evenodd" stroke="#d5d247" stroke-linejoin="round" stroke-width=".1875"/>
  </g>
  <g transform="matrix(-.070451 -.34687 .34687 -.070451 102.57 247.19)">
   <path d="m501.47 274.25-1.2053 3.2778-1.2053-3.2778c0.71162 0.52365 1.6852 0.52064 2.4106 0z" fill="#fff" fill-rule="evenodd" stroke="#d54747" stroke-linejoin="round" stroke-width=".1875"/>
  </g>
  <g transform="matrix(-.35395 -.0023205 .0023205 -.35395 319.35 138.2)" stroke="#cc47d5">
   <path d="m501.47 274.25-1.2053 3.2778-1.2053-3.2778c0.71162 0.52365 1.6852 0.52064 2.4106 0z" fill="#fff" fill-rule="evenodd" stroke="#cc47d5" stroke-linejoin="round" stroke-width=".1875"/>
  </g>
  <g transform="matrix(.17339 -.30858 .30858 .17339 -10.383 172.17)" stroke="#cc47d5">
   <path d="m501.47 274.25-1.2053 3.2778-1.2053-3.2778c0.71162 0.52365 1.6852 0.52064 2.4106 0z" fill="#fff" fill-rule="evenodd" stroke="#cc47d5" stroke-linejoin="round" stroke-width=".1875"/>
  </g>
  <g transform="matrix(.2247 -.17076 .17076 .2247 -189.25 -223.15)" fill="#3b390d" fill-opacity=".38431" stroke="#e9e56f" stroke-linecap="round" stroke-width=".46875">
   <path d="m268.95 1457.8-1.1554 2.0013 2.309 3.9991 3.4644-6.0004z"/>
   <path d="m256.78 1446.9 12.124 7c0.95957 0.554 1.2861 1.7725 0.73206 2.732l-3 5.1962c-0.55401 0.9595-1.7725 1.286-2.7321 0.732l-12.124-7c-0.95957-0.554-1.2861-1.7725-0.73206-2.732l3-5.1962c0.55401-0.9595 1.7725-1.286 2.7321-0.732z"/>
   <circle transform="rotate(30)" cx="948.4" cy="1121.6" r="3"/>
   <circle transform="rotate(30)" cx="956.81" cy="1121.7" r="3"/>
  </g>
 </g>
</svg>
