<svg width="56.33mm" height="46.697mm" version="1.1" viewBox="0 0 56.33 46.697" xmlns="http://www.w3.org/2000/svg">
 <g transform="translate(-164.23 -83.297)">
  <g fill="#f6d6d6">
   <circle cx="93.688" cy="47.79" r="0"/>
   <circle cx="99.234" cy="50.111" r="0"/>
   <circle cx="102.97" cy="53.722" r="0"/>
   <circle cx="108" cy="48.692" r="0"/>
   <circle cx="109.81" cy="57.075" r="0"/>
  </g>
  <g fill="#fff">
   <circle cx="105.95" cy="36.574" r="0"/>
   <circle cx="111.49" cy="38.896" r="0"/>
   <circle cx="115.23" cy="42.507" r="0"/>
   <circle cx="120.26" cy="37.477" r="0"/>
   <circle cx="122.07" cy="45.86" r="0"/>
  </g>
  <g fill="#f0f" fill-rule="evenodd" stroke="#575815" stroke-width=".077551px">
   <path d="m169.27 102.04 24.22-12.839"/>
   <path d="m170.11 102.9 24.277-13.183"/>
   <path d="m170.99 103.82 24.373-13.622"/>
   <path d="m171.73 104.75 24.602-14.005"/>
   <path d="m172.76 105.65 24.716-14.406"/>
   <path d="m173.68 106.64 24.678-14.826"/>
   <path d="m174.65 107.71 24.697-15.342"/>
   <path d="m175.68 108.75 24.716-15.82"/>
   <path d="m176.72 109.93 24.793-16.488"/>
   <path d="m177.82 111.1 24.793-17.004"/>
   <path d="m178.91 112.3 24.927-17.616"/>
   <path d="m180.12 113.5 24.965-18.208"/>
   <path d="m181.42 114.8 24.927-18.819"/>
   <path d="m182.71 116.29 24.831-19.603"/>
   <path d="m184.07 117.73 24.831-20.367"/>
   <path d="m185.39 119.22 24.831-21.15"/>
   <path d="m186.84 120.78 24.888-21.991"/>
   <path d="m188.52 122.48 24.545-22.927"/>
   <path d="m190.03 124.09 24.564-23.748"/>
   <path d="m191.71 125.94 24.444-24.772"/>
   <path d="m193.45 127.97 24.253-25.946"/>
   <path d="m169.33 102 24.149 25.939"/>
   <path d="m170.91 101.19 24.419 24.73"/>
   <path d="m172.47 100.34 24.521 23.784"/>
   <path d="m173.97 99.561 24.619 22.924"/>
   <path d="m175.37 98.809 24.759 21.988"/>
   <path d="m176.8 98.069 24.812 21.142"/>
   <path d="m178.11 97.36 24.875 20.359"/>
   <path d="m179.47 96.647 24.885 19.631"/>
   <path d="m180.75 95.965 24.931 18.92"/>
   <path d="m182.01 95.296 24.896 18.246"/>
   <path d="m183.2 94.685 24.898 17.611"/>
   <path d="m184.35 94.064 24.888 17.038"/>
   <path d="m185.48 93.442 24.849 16.46"/>
   <path d="m186.63 92.821 24.754 15.964"/>
   <path d="m187.69 92.268 24.666 15.452"/>
   <path d="m188.69 91.733 24.667 14.94"/>
   <path d="m189.73 91.183 24.54 14.482"/>
   <path d="m190.66 90.68 24.556 14.007"/>
   <path d="m191.74 90.128 24.335 13.616"/>
   <path d="m192.67 89.645 24.244 13.233"/>
   <path d="m193.42 89.235 24.287 12.837"/>
  </g>
  <g transform="matrix(.18636 0 0 .18631 173.95 -38.806)" fill="none" stroke="#d54747" stroke-width="1.5146px">
   <path d="m16.794 786.31-17.147-50.381 44.548 47.906 11.667 47.73z"/>
   <path d="m43.487 782.95 137.18-85.383-8.8388 49.851-116.32 84.676"/>
   <path d="m-0.35355 736.11 130.81-69.12 50.028 30.582"/>
   <path d="m171.83 747.6-42.78-31.643 1.2374-48.614"/>
   <path d="m129.05 716.31-112.43 69.473"/>
  </g>
  <g transform="matrix(.28222 0 0 .28222 161.18 -154.68)" fill-rule="evenodd">
   <path d="m48.312 929.05 5.8125-3.8438 1.25 1.2188 1.0938 1.125 1.0938 1.6875 1.0312 1.4062 0.5625 1.25-5.6875 4z" fill="#e0e0e0"/>
   <path d="m50.625 936.67 3.6562 4.7188 3.9688-2.9375-3.5625-4.9688z" fill="#979797"/>
   <path d="m50.562 936.64-7.0938-9.625 4.1875-2.625 7.2812 9.2812z" fill="#636363"/>
  </g>
  <g fill="#e9e56f" stroke-width=".28222px" aria-label="far plane">
   <path d="m206.99 87.474c-0.18062 0-0.34996 0.0762-0.44027 0.22296-0.0677 0.10724-0.0705 0.21449-0.0705 0.3302v0.127h-0.28223v0.16087h0.28223v1.0499h0.19473v-1.0499h0.42051v-0.16087h-0.42051v-0.1016c0-0.09313-3e-3 -0.19191 0.0452-0.27658 0.0536-0.09596 0.15523-0.14393 0.25965-0.14393 0.12418 0 0.2286 0.06491 0.28222 0.14676 8e-3 0.01411 8e-3 0.02258 8e-3 0.03387 0 0.01976 0.0141 0.0254 0.0226 0.0254l0.0931-0.18909c-0.0931-0.11007-0.23425-0.17498-0.39511-0.17498z"/>
   <path d="m207.68 88.227 0.0988 0.12982c0.10725-0.11007 0.25118-0.14393 0.37254-0.14393 0.1524 0 0.2286 0.06491 0.26529 0.12418 0.0423 0.07055 0.0395 0.15522 0.0395 0.22296v0.04516h-0.0395c-0.19191 0-0.39511 0-0.5588 0.05927-0.2032 0.07338-0.29351 0.22578-0.29351 0.36689 0 0.18909 0.16368 0.36689 0.4318 0.36689 0.15804 0 0.32173-0.05927 0.46284-0.17498v0.14111h0.19191v-0.79869c0-0.10442-3e-3 -0.2032-0.0621-0.3048-0.0847-0.13829-0.24835-0.21167-0.44873-0.21167-0.17216 0-0.33867 0.05362-0.46002 0.1778zm0.78457 0.5334v0.08749c0 0.06491 0 0.14958-0.0875 0.24271-0.048 0.04798-0.16934 0.1524-0.33867 0.1524-0.17216 0-0.27093-0.11007-0.27093-0.22296 0-0.09596 0.0649-0.20038 0.22577-0.23989 0.11854-0.02822 0.29069-0.01976 0.42616-0.01976z"/>
   <path d="m209.12 88.077v1.2898h0.2032v-0.62653c0-0.07902 3e-3 -0.16369 0.0903-0.30198 0.11853-0.18627 0.27093-0.21731 0.36407-0.21731 0.10724 0 0.17497 0.0508 0.21166 0.09596 0.0169 0.02258 0.0254 0.04516 0.048 0.06491l0.096-0.19473c-0.0819-0.08467-0.20038-0.14111-0.34432-0.14111-0.18908 0-0.381 0.09596-0.46566 0.2794l8e-3 -0.24836z"/>
   <path d="m211.83 88.077 3e-3 1.7582h0.20603v-0.64064c0.0875 0.127 0.23142 0.20602 0.38664 0.20602 0.26529 0 0.54187-0.22296 0.54187-0.69427 0-0.45438-0.26811-0.65758-0.52211-0.65758-0.16652 0-0.32174 0.08467-0.40923 0.22578v-0.19756zm0.53905 0.14393c0.11288 0 0.38664 0.05927 0.38664 0.52776 0 0.4064-0.26529 0.47131-0.38664 0.47131-0.12136 0-0.24554-0.06209-0.29634-0.1778-0.0367-0.08749-0.0367-0.19473-0.0367-0.381 0-0.10724 6e-3 -0.18627 0.0339-0.254 0.0508-0.11571 0.16933-0.18627 0.29916-0.18627z"/>
   <path d="m213.31 87.49v0.16369h0.36689v1.5494h-0.38383v0.16087h0.96803v-0.16087h-0.381v-1.7131z"/>
   <path d="m214.74 88.227 0.0988 0.12982c0.10724-0.11007 0.25118-0.14393 0.37253-0.14393 0.1524 0 0.2286 0.06491 0.26529 0.12418 0.0423 0.07055 0.0395 0.15522 0.0395 0.22296v0.04516h-0.0395c-0.19191 0-0.39511 0-0.5588 0.05927-0.2032 0.07338-0.29351 0.22578-0.29351 0.36689 0 0.18909 0.16369 0.36689 0.4318 0.36689 0.15805 0 0.32173-0.05927 0.46285-0.17498v0.14111h0.19191v-0.79869c0-0.10442-3e-3 -0.2032-0.0621-0.3048-0.0847-0.13829-0.24836-0.21167-0.44874-0.21167-0.17215 0-0.33866 0.05362-0.46002 0.1778zm0.78458 0.5334v0.08749c0 0.06491 0 0.14958-0.0875 0.24271-0.048 0.04798-0.16933 0.1524-0.33867 0.1524-0.17215 0-0.27093-0.11007-0.27093-0.22296 0-0.09596 0.0649-0.20038 0.22578-0.23989 0.11853-0.02822 0.29069-0.01976 0.42615-0.01976z"/>
   <path d="m216.09 89.364h0.20603v-0.74224c0-0.08467 0.0113-0.14958 0.0649-0.22013 0.048-0.06491 0.17215-0.18062 0.30762-0.18062 0.0649 0 0.12982 0.02822 0.17498 0.08184 0.0705 0.08467 0.0705 0.19473 0.0705 0.28504v0.77611h0.20038v-0.78175c0-0.09878 0-0.20602-0.0451-0.31044-0.0649-0.14393-0.19756-0.22578-0.34432-0.22578-0.17497 0-0.33302 0.11289-0.42897 0.25682v-0.22578h-0.20603z"/>
   <path d="m218.04 88.046c-0.30762 0-0.59267 0.22013-0.59267 0.68862 0 0.4318 0.26811 0.6604 0.61807 0.6604 0.18626 0 0.35278-0.06773 0.46284-0.20038l-0.11289-0.11007c-0.0818 0.09596-0.20602 0.14676-0.33302 0.14676-0.17215 0-0.42333-0.09596-0.43744-0.4826h0.9144c8e-3 -0.08749 6e-3 -0.17216-8e-3 -0.24553-0.0593-0.34713-0.29916-0.4572-0.51082-0.4572zm-0.38947 0.54751c0.0423-0.3048 0.23707-0.39229 0.37536-0.39229 0.20884 0 0.35842 0.18344 0.33302 0.39229z"/>
  </g>
  <g fill="#e9e56f" stroke-width=".28222px" aria-label="near plane">
   <path d="m166.23 115.97h0.20602v-0.74224c0-0.0847 0.0113-0.14958 0.0649-0.22013 0.048-0.0649 0.17216-0.18063 0.30762-0.18063 0.0649 0 0.12983 0.0282 0.17498 0.0819 0.0706 0.0847 0.0706 0.19473 0.0706 0.28504v0.77611h0.20038v-0.78175c0-0.0988 0-0.20602-0.0452-0.31045-0.0649-0.14393-0.19756-0.22577-0.34431-0.22577-0.17498 0-0.33302 0.11288-0.42898 0.25682v-0.22578h-0.20602z"/>
   <path d="m168.18 114.66c-0.30762 0-0.59266 0.22013-0.59266 0.68862 0 0.4318 0.26811 0.6604 0.61806 0.6604 0.18627 0 0.35278-0.0677 0.46285-0.20038l-0.11289-0.11007c-0.0819 0.096-0.20602 0.14676-0.33302 0.14676-0.17216 0-0.42334-0.096-0.43745-0.4826h0.9144c8e-3 -0.0875 6e-3 -0.17216-8e-3 -0.24553-0.0593-0.34714-0.29915-0.4572-0.51082-0.4572zm-0.38946 0.54751c0.0423-0.3048 0.23706-0.39229 0.37535-0.39229 0.20885 0 0.35842 0.18344 0.33302 0.39229z"/>
   <path d="m169.11 114.84 0.0988 0.12982c0.10724-0.11007 0.25118-0.14393 0.37253-0.14393 0.1524 0 0.2286 0.0649 0.26529 0.12417 0.0423 0.0706 0.0395 0.15523 0.0395 0.22296v0.0452h-0.0395c-0.19191 0-0.39511 0-0.5588 0.0593-0.2032 0.0734-0.29351 0.22578-0.29351 0.36689 0 0.18909 0.16369 0.36689 0.4318 0.36689 0.15804 0 0.32173-0.0593 0.46284-0.17498v0.14111h0.19191v-0.79869c0-0.10442-3e-3 -0.2032-0.0621-0.3048-0.0847-0.13828-0.24836-0.21166-0.44874-0.21166-0.17215 0-0.33866 0.0536-0.46002 0.1778zm0.78458 0.5334v0.0875c0 0.0649 0 0.14957-0.0875 0.24271-0.048 0.048-0.16933 0.1524-0.33867 0.1524-0.17215 0-0.27093-0.11007-0.27093-0.22296 0-0.096 0.0649-0.20038 0.22578-0.23989 0.11853-0.0282 0.29069-0.0198 0.42615-0.0198z"/>
   <path d="m170.55 114.69v1.2898h0.2032v-0.62654c0-0.079 3e-3 -0.16369 0.0903-0.30198 0.11854-0.18626 0.27094-0.21731 0.36407-0.21731 0.10724 0 0.17498 0.0508 0.21167 0.096 0.0169 0.0226 0.0254 0.0451 0.048 0.0649l0.096-0.19473c-0.0819-0.0847-0.20038-0.14111-0.34431-0.14111-0.18909 0-0.381 0.096-0.46567 0.2794l8e-3 -0.24836z"/>
   <path d="m173.26 114.69 3e-3 1.7582h0.20602v-0.64064c0.0875 0.127 0.23142 0.20602 0.38664 0.20602 0.26529 0 0.54187-0.22295 0.54187-0.69426 0-0.45438-0.26811-0.65758-0.52211-0.65758-0.16651 0-0.32174 0.0847-0.40922 0.22578v-0.19756zm0.53905 0.14393c0.11289 0 0.38664 0.0593 0.38664 0.52776 0 0.4064-0.26529 0.47131-0.38664 0.47131-0.12136 0-0.24554-0.0621-0.29634-0.1778-0.0367-0.0875-0.0367-0.19473-0.0367-0.381 0-0.10724 6e-3 -0.18627 0.0339-0.254 0.0508-0.11571 0.16934-0.18627 0.29916-0.18627z"/>
   <path d="m174.74 114.1v0.16369h0.36689v1.5494h-0.38382v0.16086h0.96802v-0.16086h-0.381v-1.7131z"/>
   <path d="m176.17 114.84 0.0988 0.12982c0.10725-0.11007 0.25118-0.14393 0.37254-0.14393 0.1524 0 0.2286 0.0649 0.26529 0.12417 0.0423 0.0706 0.0395 0.15523 0.0395 0.22296v0.0452h-0.0395c-0.19192 0-0.39512 0-0.5588 0.0593-0.2032 0.0734-0.29352 0.22578-0.29352 0.36689 0 0.18909 0.16369 0.36689 0.4318 0.36689 0.15805 0 0.32174-0.0593 0.46285-0.17498v0.14111h0.19191v-0.79869c0-0.10442-3e-3 -0.2032-0.0621-0.3048-0.0847-0.13828-0.24835-0.21166-0.44873-0.21166-0.17216 0-0.33867 0.0536-0.46002 0.1778zm0.78457 0.5334v0.0875c0 0.0649 0 0.14957-0.0875 0.24271-0.048 0.048-0.16933 0.1524-0.33866 0.1524-0.17216 0-0.27094-0.11007-0.27094-0.22296 0-0.096 0.0649-0.20038 0.22578-0.23989 0.11854-0.0282 0.29069-0.0198 0.42616-0.0198z"/>
   <path d="m177.52 115.97h0.20602v-0.74224c0-0.0847 0.0113-0.14958 0.0649-0.22013 0.048-0.0649 0.17216-0.18063 0.30762-0.18063 0.0649 0 0.12983 0.0282 0.17498 0.0819 0.0706 0.0847 0.0706 0.19473 0.0706 0.28504v0.77611h0.20037v-0.78175c0-0.0988 0-0.20602-0.0452-0.31045-0.0649-0.14393-0.19756-0.22577-0.34431-0.22577-0.17498 0-0.33302 0.11288-0.42898 0.25682v-0.22578h-0.20602z"/>
   <path d="m179.47 114.66c-0.30762 0-0.59267 0.22013-0.59267 0.68862 0 0.4318 0.26811 0.6604 0.61807 0.6604 0.18627 0 0.35278-0.0677 0.46284-0.20038l-0.11288-0.11007c-0.0819 0.096-0.20603 0.14676-0.33303 0.14676-0.17215 0-0.42333-0.096-0.43744-0.4826h0.9144c8e-3 -0.0875 6e-3 -0.17216-8e-3 -0.24553-0.0593-0.34714-0.29915-0.4572-0.51082-0.4572zm-0.38947 0.54751c0.0423-0.3048 0.23707-0.39229 0.37536-0.39229 0.20884 0 0.35842 0.18344 0.33302 0.39229z"/>
  </g>
 </g>
</svg>
