<svg width="48.701mm" height="38.786mm" version="1.1" viewBox="0 0 48.701 38.786" xmlns="http://www.w3.org/2000/svg">
 <g transform="translate(-225.9 -83.537)">
  <g fill="#f6d6d6">
   <circle cx="93.688" cy="47.79" r="0"/>
   <circle cx="99.234" cy="50.111" r="0"/>
   <circle cx="102.97" cy="53.722" r="0"/>
   <circle cx="108" cy="48.692" r="0"/>
   <circle cx="109.81" cy="57.075" r="0"/>
  </g>
  <g fill="#fff">
   <circle cx="105.95" cy="36.574" r="0"/>
   <circle cx="111.49" cy="38.896" r="0"/>
   <circle cx="115.23" cy="42.507" r="0"/>
   <circle cx="120.26" cy="37.477" r="0"/>
   <circle cx="122.07" cy="45.86" r="0"/>
  </g>
  <g fill="#e9e56f" aria-label="Interpolations">
   <path d="m229.09 116.97 12.64-11.81 30.09 4.9376-27.055 11.06z" fill="#262626" fill-opacity=".23364" stroke="#fff" stroke-width=".11491"/>
   <path d="m241.38 88.026 0.34492 17.09 30.143 4.9134 1.5212-20.549z" fill="#262626" fill-opacity=".23364" stroke="#fff" stroke-width=".11491"/>
   <g transform="matrix(.064225 0 0 .064225 215.99 81.782)" fill-rule="evenodd">
    <path d="m587.56 383.42 12.25-6 0.5625 45.375-11.628 18.978-20.324-3.4566z" fill="#2a2a2a"/>
    <path d="m532.83 380.27 23.917-4.8431 43.25 1.875-12.812 6.25z" fill="#bebebe"/>
    <path d="m534.75 432.94 53.74 8.9272-0.70711-59.043-54.536-2.5633z" fill="#5e5e5e"/>
   </g>
   <g transform="matrix(.14317 0 0 .14317 166 49.487)" fill-rule="evenodd">
    <path d="m587.56 383.42 12.25-6 0.5625 45.375-11.628 18.978-20.324-3.4566z" fill="#2a2a2a"/>
    <path d="m532.83 380.27 23.917-4.8431 43.25 1.875-12.812 6.25z" fill="#bebebe"/>
    <path d="m534.75 432.94 53.74 8.9272-0.70711-59.043-54.536-2.5633z" fill="#5e5e5e"/>
   </g>
   <path d="m228.43 107.12 12.964-19.098 32.041 1.5172-28.798 20.647z" fill="none" stroke="#fff" stroke-width=".11491"/>
   <g transform="matrix(.14317 0 0 .14317 137.92 51.163)">
    <g>
     <path d="m669.13 452.37 39.248 9.0027-0.51642-43.121-39.829-8.6566z" fill="#5e5e5e" fill-rule="evenodd"/>
     <path d="m679.54 420.94c-0.62074 2.1899-3.1284 2.1116-5.601 1.4108s-3.9739-3.0443-3.3532-5.2342c0.62073-2.1899 3.1464-3.4576 5.601-2.6962 3.9775 1.2338 3.9739 4.3297 3.3531 6.5196z" fill="#0a3456" style="paint-order:normal"/>
     <path d="m749.01 379.25c0 3.7158-3.6841 6.728-7.4024 6.728s-6.7326-3.0122-6.7326-6.728c0-3.7158 3.0143-6.0586 6.7326-6.0586 3.7183 1e-5 7.4025 2.3428 7.4024 6.0586z" fill="#0a3456" style="paint-order:normal"/>
    </g>
    <g fill="#1e3242">
     <path d="m669.81 414.2 0.0963 2.6021 2.3195 0.47032-0.12841-2.6649z"/>
     <path d="m672.04 411.91 0.0963 2.6021 2.1 0.53302-0.12841-2.6649z"/>
     <path d="m674.36 412.45 0.0963 2.6021 2.1 0.53302-0.12841-2.6649z"/>
     <path d="m676.74 412.89 0.0963 2.6021 2.1 0.53302-0.12841-2.6649z"/>
     <path d="m679.16 416.08 0.0963 2.6021 2.1 0.53302-0.12841-2.6649z"/>
     <path d="m679.25 418.87 0.0963 2.6021 2.1 0.53302-0.12841-2.6649z"/>
     <path d="m677.03 420.97 0.0963 2.6021 2.1 0.53302-0.12841-2.6649z"/>
     <path d="m674.67 420.6 0.0963 2.6021 2.1 0.53302-0.12841-2.6649z"/>
     <path d="m672.54 420.07 0.0963 2.6021 2.1 0.53302-0.12841-2.6649z"/>
     <path d="m670.16 419.5 0.0963 2.6021 2.1 0.53302-0.12841-2.6649z"/>
     <path d="m670.16 416.9 0.0963 2.6021 2.1 0.53302-0.12841-2.6649z"/>
    </g>
    <path d="m668.44 432.32-1.0972-24.141 42.262 8.6844 0.84594 30.505-2.4134-0.53293-0.72234-27.589-37.684-7.8065 1.0659 21.382z" fill="#303030"/>
    <path d="m669.41 450.73 39.095 9.7189v2.6336l-39.064-9.9071z" fill="#303030"/>
    <g fill="none" stroke-width=".4013">
     <g stroke="#ff9b9b">
      <path d="m667.12 408.28 62.327-39.879"/>
      <path d="m709.26 417.06 74.24-45.648"/>
      <path d="m708 462.58 76.749-32.606"/>
      <path d="m669.38 453.3 61.449-31.979"/>
     </g>
     <path d="m626.74 477.63 40.506-68.973" stroke="#d6d6d6"/>
     <path d="m669.52 452.92-38.485 28.82" stroke="#b9b9b9"/>
     <path d="m708.27 462.86-73.778 23.854" stroke="#c1c1c1"/>
     <path d="m709.25 417.19-78.212 68.28" stroke="#c5c5c5"/>
    </g>
   </g>
   <g fill="none">
    <path d="m228.42 107.1 16.213 3.0703 0.10786 10.953-15.639-4.1476z" stroke="#fff" stroke-width=".11491"/>
    <g stroke="#a7a7a7" stroke-width=".028728">
     <path d="m228.69 107.18 0.66066 9.9158"/>
     <path d="m229.64 117.15-0.63173-9.8941"/>
     <path d="m229.3 107.3 0.61716 9.9449"/>
     <path d="m230.25 117.32-0.60993-9.9594"/>
     <path d="m229.89 107.42 0.63162 9.9957"/>
     <path d="m230.81 117.43-0.5881-9.9594"/>
     <path d="m230.53 107.52 0.60281 10.039"/>
     <path d="m231.42 117.66-0.55905-10.075"/>
     <path d="m231.14 107.66 0.58087 10.061"/>
     <path d="m232.02 117.77-0.55906-10.061"/>
     <path d="m232.33 117.88-0.53895-10.125"/>
     <path d="m232.08 107.82 0.5544 10.135"/>
     <path d="m232.92 118.03-0.52388-10.146"/>
     <path d="m232.75 107.94 0.5083 10.187"/>
     <path d="m233.58 118.2-0.50831-10.199"/>
     <path d="m233.38 108.06 0.48992 10.238"/>
     <path d="m234.19 118.35-0.48502-10.22"/>
     <path d="m234.05 108.2 0.47975 10.246"/>
     <path d="m234.81 118.51-0.45412-10.251"/>
     <path d="m234.7 108.32 0.43967 10.292"/>
     <path d="m235.47 118.69-0.43746-10.284"/>
     <path d="m235.37 108.45 0.42336 10.328"/>
     <path d="m236.12 118.87-0.43293-10.361"/>
     <path d="m236.04 108.57 0.41564 10.403"/>
     <path d="m236.78 119.05-0.40828-10.407"/>
     <path d="m236.7 108.71 0.3763 10.422"/>
     <path d="m237.41 119.22-0.36195-10.436"/>
     <path d="m237.4 108.85 0.37703 10.461"/>
     <path d="m238.11 119.41-0.37005-10.498"/>
     <path d="m238.07 108.97 0.37482 10.525"/>
     <path d="m238.78 119.58-0.35387-10.53"/>
     <path d="m238.78 109.11 0.32298 10.552"/>
     <path d="m239.43 119.74-0.30692-10.554"/>
     <path d="m239.46 109.24 0.29847 10.603"/>
     <path d="m240.11 119.93-0.26929-10.62"/>
     <path d="m240.2 109.38 0.26659 10.647"/>
     <path d="m240.81 120.11-0.28069-10.669"/>
     <path d="m240.9 109.52 0.25201 10.693"/>
     <path d="m241.51 120.3-0.2308-10.713"/>
     <path d="m241.62 109.66 0.22001 10.73"/>
     <path d="m242.19 120.47-0.21021-10.746"/>
     <path d="m242.36 109.8 0.19036 10.776"/>
     <path d="m242.93 120.67-0.1868-10.796"/>
     <path d="m243.07 109.94 0.18276 10.836"/>
     <path d="m243.63 120.86-0.16045-10.844"/>
     <path d="m243.85 110.09 0.13985 10.864"/>
     <path d="m244.34 121.05-0.14182-10.902"/>
     <path d="m244.57 110.22 0.14721 10.942"/>
     <path d="m228.41 107.45 16.187 3.1735"/>
     <path d="m244.59 111.06-16.159-3.2163"/>
     <path d="m228.48 108.21 16.111 3.2481"/>
     <path d="m244.59 111.88-16.089-3.285"/>
     <path d="m228.53 108.98 16.059 3.3184"/>
     <path d="m244.58 112.73-16.045-3.3894"/>
     <path d="m228.57 109.73 16.04 3.3993"/>
     <path d="m244.61 113.55-16.035-3.4537"/>
     <path d="m228.62 110.46 15.991 3.4976"/>
     <path d="m244.63 114.36-15.997-3.5437"/>
     <path d="m228.67 111.19 15.962 3.5764"/>
     <path d="m244.64 115.18-15.932-3.602"/>
     <path d="m228.74 111.94 15.906 3.6548"/>
     <path d="m244.64 116-15.903-3.7114"/>
     <path d="m228.77 112.66 15.881 3.7422"/>
     <path d="m244.66 116.8-15.867-3.7552"/>
     <path d="m228.84 113.41 15.821 3.7943"/>
     <path d="m244.66 117.61-15.816-3.8623"/>
     <path d="m228.87 114.11 15.804 3.9077"/>
     <path d="m244.68 118.4-15.797-3.9128"/>
     <path d="m228.92 114.84 15.765 3.9597"/>
     <path d="m244.69 119.19-15.73-3.9829"/>
     <path d="m228.96 115.57 15.732 4.0174"/>
     <path d="m244.7 119.98-15.701-4.0508"/>
     <path d="m229.03 116.29 15.673 4.0863"/>
     <path d="m244.71 120.75-15.665-4.1154"/>
    </g>
   </g>
   <path d="m228.03 119.32c-0.10419 0.0218-0.19979 0.0664-0.28057 0.13116-0.0196 0.0151-0.038 0.0321-0.0552 0.0498l-5.6e-4 -3e-3v7e-3c-0.28829 0.56301-0.49813 1.1722-0.76167 1.7913 0.68004-0.10676 1.4412-0.28556 1.976-0.40719 0.32996-0.26693 0.34136-0.80265 0.0257-1.1994-0.23118-0.29056-0.58578-0.43673-0.89944-0.37101z" fill="#8f8f8f" fill-opacity=".98598" stroke="#fff" stroke-linecap="round" stroke-linejoin="bevel" stroke-width=".057456" style="paint-order:normal"/>
   <g fill="none" stroke="#e9dc6f" stroke-width=".19501px">
    <path d="m235.45 86.776-0.83925-1.9509"/>
    <path d="m235.45 86.78 1.2719-1.7014"/>
    <path d="m235.45 86.779 2.1113 0.2495"/>
    <path d="m235.44 86.774 0.83938 1.9509"/>
    <path d="m235.45 86.77-1.2721 1.7014"/>
    <path d="m235.45 86.771-2.1113-0.24948"/>
   </g>
   <g stroke="#e9dc6f" stroke-width="2.6481">
    <g transform="matrix(.020745 -.16089 .16109 .020719 182.81 161.81)">
     <path d="m501.47 274.25-1.2053 3.2778-1.2053-3.2778c0.71162 0.52365 1.6852 0.52064 2.4106 0z" fill="#fff" fill-rule="evenodd" stroke="#e9dc6f" stroke-linejoin="round" stroke-width=".49652"/>
    </g>
    <g transform="matrix(.021656 -.16077 -.16097 -.021629 266.8 172.9)">
     <path d="m501.47 274.25-1.2053 3.2778-1.2053-3.2778c0.71162 0.52365 1.6852 0.52064 2.4106 0z" fill="#fff" fill-rule="evenodd" stroke="#e9dc6f" stroke-linejoin="round" stroke-width=".49652"/>
    </g>
    <g transform="matrix(.14831 -.066134 -.066217 -.14813 178.68 158.77)">
     <path d="m501.47 274.25-1.2053 3.2778-1.2053-3.2778c0.71162 0.52365 1.6852 0.52064 2.4106 0z" fill="#fff" fill-rule="evenodd" stroke="#e9dc6f" stroke-linejoin="round" stroke-width=".49652"/>
    </g>
    <g transform="matrix(-.14898 .064628 .064708 .14879 293 15.435)">
     <path d="m501.47 274.25-1.2053 3.2778-1.2053-3.2778c0.71162 0.52365 1.6852 0.52064 2.4106 0z" fill="#fff" fill-rule="evenodd" stroke="#e9dc6f" stroke-linejoin="round" stroke-width=".49652"/>
    </g>
    <g transform="matrix(-.12519 -.10336 -.10349 .12503 325.29 105.73)">
     <path d="m501.47 274.25-1.2053 3.2778-1.2053-3.2778c0.71162 0.52365 1.6852 0.52064 2.4106 0z" fill="#fff" fill-rule="evenodd" stroke="#e9dc6f" stroke-linejoin="round" stroke-width=".49652"/>
    </g>
    <g transform="matrix(.12519 .10336 .10349 -.12503 145.62 67.794)">
     <path d="m501.47 274.25-1.2053 3.2778-1.2053-3.2778c0.71162 0.52365 1.6852 0.52064 2.4106 0z" fill="#fff" fill-rule="evenodd" stroke="#e9dc6f" stroke-linejoin="round" stroke-width=".49652"/>
    </g>
   </g>
   <circle cx="235.48" cy="86.8" r="1.5798" fill="#fffc62" fill-opacity=".98598" style="paint-order:normal"/>
  </g>
 </g>
</svg>
