<svg width="81.317mm" height="54.043mm" version="1.1" viewBox="0 0 81.317 54.043" xmlns="http://www.w3.org/2000/svg">
 <g transform="translate(-168.35 -79.317)">
  <g fill="#f6d6d6">
   <circle cx="93.688" cy="47.79" r="0"/>
   <circle cx="99.234" cy="50.111" r="0"/>
   <circle cx="102.97" cy="53.722" r="0"/>
   <circle cx="108" cy="48.692" r="0"/>
   <circle cx="109.81" cy="57.075" r="0"/>
  </g>
  <g fill="#fff">
   <circle cx="105.95" cy="36.574" r="0"/>
   <circle cx="111.49" cy="38.896" r="0"/>
   <circle cx="115.23" cy="42.507" r="0"/>
   <circle cx="120.26" cy="37.477" r="0"/>
   <circle cx="122.07" cy="45.86" r="0"/>
  </g>
  <g fill="none" stroke-width=".13229">
   <g stroke="#fbfbfb">
    <path d="m178.23 122.79h41.209v-32.345"/>
    <path d="m178.23 123.06 41.209-32.61"/>
    <path d="m178.23 122.79s14.288-32.147 40.944-32.147"/>
   </g>
   <path d="m178.69 122.6s40.547-8.2021 40.547-32.213" stroke="#eee"/>
   <path d="m178.43 122.2c0.19844-0.66145-2.9766-17.793 5.0932-23.614 8.0698-5.8208 6.0193 2.9766 10.649-0.92604 4.6302-3.9026 8.0698-11.311 12.237-10.186 4.1672 1.1245 12.766 3.2411 12.766 3.2411" stroke="#fff"/>
  </g>
  <g transform="matrix(.28222 0 0 .28222 19.97 6.6569)" fill-rule="evenodd">
   <path d="m587.56 383.42 12.25-6 0.5625 45.375-11.628 18.978-20.324-3.4566z" fill="#2a2a2a"/>
   <path d="m532.83 380.27 23.917-4.8431 43.25 1.875-12.812 6.25z" fill="#bebebe"/>
   <path d="m534.75 432.94 53.74 8.9272-0.70711-59.043-54.536-2.5633z" fill="#5e5e5e"/>
  </g>
  <g>
   <g fill="#e9e56f" stroke-width=".28222px" aria-label="Transform A">
    <path d="m195.84 127.72v0.1778h0.49671v1.5833h0.20037v-1.5833h0.51929v-0.1778z"/>
    <path d="m197.44 128.19v1.2898h0.2032v-0.62653c0-0.079 3e-3 -0.16369 0.0903-0.30198 0.11853-0.18627 0.27093-0.21731 0.36407-0.21731 0.10724 0 0.17497 0.0508 0.21166 0.0959 0.0169 0.0226 0.0254 0.0452 0.048 0.0649l0.096-0.19474c-0.0819-0.0847-0.20038-0.14111-0.34432-0.14111-0.18908 0-0.381 0.096-0.46566 0.2794l8e-3 -0.24835z"/>
    <path d="m198.83 128.34 0.0988 0.12983c0.10724-0.11007 0.25117-0.14394 0.37253-0.14394 0.1524 0 0.2286 0.0649 0.26529 0.12418 0.0423 0.0706 0.0395 0.15522 0.0395 0.22296v0.0451h-0.0395c-0.19191 0-0.39511 0-0.5588 0.0593-0.2032 0.0734-0.29351 0.22578-0.29351 0.36689 0 0.18909 0.16369 0.36689 0.4318 0.36689 0.15804 0 0.32173-0.0593 0.46284-0.17498v0.14111h0.19191v-0.79869c0-0.10442-3e-3 -0.2032-0.0621-0.3048-0.0847-0.13829-0.24835-0.21167-0.44873-0.21167-0.17215 0-0.33867 0.0536-0.46002 0.1778zm0.78458 0.5334v0.0875c0 0.0649 0 0.14958-0.0875 0.24271-0.048 0.048-0.16934 0.1524-0.33867 0.1524-0.17215 0-0.27093-0.11006-0.27093-0.22295 0-0.096 0.0649-0.20038 0.22578-0.23989 0.11853-0.0282 0.29068-0.0198 0.42615-0.0198z"/>
    <path d="m200.18 129.47h0.20602v-0.74225c0-0.0847 0.0113-0.14957 0.0649-0.22013 0.048-0.0649 0.17216-0.18062 0.30763-0.18062 0.0649 0 0.12982 0.0282 0.17497 0.0818 0.0706 0.0847 0.0706 0.19474 0.0706 0.28505v0.77611h0.20038v-0.78176c0-0.0988 0-0.20602-0.0452-0.31044-0.0649-0.14393-0.19755-0.22578-0.34431-0.22578-0.17498 0-0.33302 0.11289-0.42898 0.25682v-0.22577h-0.20602z"/>
    <path d="m202.61 128.36c-0.11853-0.12982-0.29069-0.20038-0.4826-0.20038-0.29915 0-0.49389 0.16651-0.49389 0.35842 0 0.22578 0.24271 0.30763 0.31327 0.33303 0.11007 0.0395 0.25118 0.0734 0.34713 0.11853 0.10725 0.0508 0.127 0.11853 0.127 0.16369 0 0.12135-0.14675 0.2032-0.3302 0.2032-0.22013 0-0.36124-0.13265-0.40358-0.1778-8e-3 -0.0113-8e-3 -0.0198-8e-3 -0.031 0-3e-3 3e-3 -0.0197-0.0113-0.0254l-0.11853 0.20038c0.1524 0.14111 0.34995 0.20602 0.54468 0.20602 0.35278 0 0.53623-0.20884 0.53623-0.40357 0-0.0875-0.0367-0.20603-0.18909-0.29069-0.14394-0.0819-0.35278-0.11007-0.47414-0.16934-0.10442-0.0508-0.127-0.11289-0.127-0.15804 0-0.1016 0.127-0.17498 0.27094-0.17498 0.18626 0 0.31044 0.11289 0.35842 0.1778 8e-3 8e-3 6e-3 0.0169 6e-3 0.0254 0 0.0169 0.0113 0.0226 0.0169 0.0226z"/>
    <path d="m203.77 127.58c-0.18062 0-0.34995 0.0762-0.44026 0.22296-0.0677 0.10724-0.0706 0.21448-0.0706 0.3302v0.127h-0.28222v0.16086h0.28222v1.0499h0.19474v-1.0499h0.42051v-0.16086h-0.42051v-0.1016c0-0.0931-3e-3 -0.19192 0.0452-0.27658 0.0536-0.096 0.15522-0.14394 0.25965-0.14394 0.12417 0 0.2286 0.0649 0.28222 0.14676 8e-3 0.0141 8e-3 0.0226 8e-3 0.0339 0 0.0198 0.0141 0.0254 0.0226 0.0254l0.0931-0.18909c-0.0931-0.11007-0.23425-0.17498-0.39512-0.17498z"/>
    <path d="m205.51 128.84c0-0.44591-0.28223-0.67734-0.57574-0.67734-0.32738 0-0.6096 0.28223-0.6096 0.68298 0 0.39229 0.2794 0.66887 0.60396 0.66887 0.3048 0 0.58138-0.24554 0.58138-0.67451zm-0.58985-0.50518c0.18627 0 0.38382 0.16087 0.38382 0.51364 0 0.32456-0.18626 0.48825-0.37253 0.48825-0.20602 0-0.39229-0.19191-0.39229-0.51082 0-0.31609 0.18345-0.49107 0.381-0.49107z"/>
    <path d="m205.91 128.19v1.2898h0.2032v-0.62653c0-0.079 3e-3 -0.16369 0.0903-0.30198 0.11853-0.18627 0.27093-0.21731 0.36406-0.21731 0.10725 0 0.17498 0.0508 0.21167 0.0959 0.0169 0.0226 0.0254 0.0452 0.048 0.0649l0.096-0.19474c-0.0818-0.0847-0.20038-0.14111-0.34431-0.14111-0.18909 0-0.381 0.096-0.46567 0.2794l8e-3 -0.24835z"/>
    <path d="m207.14 129.47h0.18626v-0.85796c0-0.0621 6e-3 -0.11853 0.0423-0.18626 0.0452-0.0847 0.1016-0.11854 0.15522-0.11854 0.0452 0 0.096 0.0282 0.11853 0.0988 0.0169 0.0536 0.0141 0.11571 0.0141 0.16933v0.89465h0.18909v-0.85231c0-0.0677 6e-3 -0.12136 0.0536-0.2032 0.0226-0.0339 0.0705-0.11571 0.14957-0.11571 0.0423 0 0.0819 0.0254 0.1016 0.0734 0.0254 0.0536 0.0198 0.127 0.0198 0.18627v0.9144h0.19191v-0.91722c0-0.10725 3e-3 -0.21449-0.0536-0.30198-0.048-0.0734-0.12982-0.1016-0.20038-0.1016-0.12418 0-0.23989 0.0734-0.29069 0.18627-0.0197-0.10725-0.11007-0.18627-0.22578-0.18627-0.10724 0-0.20602 0.0677-0.26529 0.15805l3e-3 -0.127h-0.18909z"/>
    <path d="m209.9 129.48h0.19473l0.17216-0.51647h0.55597l0.19474 0.51365h0.20602l-0.68016-1.7893h-0.0226zm0.88053-0.66887h-0.47695l0.2286-0.66886z"/>
   </g>
   <g fill="#e9e56f" stroke-width=".28222px" aria-label="Transform B">
    <path d="m232.35 91.344v0.1778h0.49671v1.5833h0.20038v-1.5833h0.51929v-0.1778z"/>
    <path d="m233.96 91.815v1.2898h0.2032v-0.62653c0-0.07902 3e-3 -0.16369 0.0903-0.30198 0.11853-0.18627 0.27093-0.21731 0.36406-0.21731 0.10725 0 0.17498 0.0508 0.21167 0.09595 0.0169 0.02258 0.0254 0.04516 0.048 0.06491l0.0959-0.19473c-0.0818-0.08467-0.20037-0.14111-0.34431-0.14111-0.18909 0-0.381 0.09596-0.46566 0.2794l8e-3 -0.24836z"/>
    <path d="m235.34 91.964 0.0988 0.12982c0.10725-0.11007 0.25118-0.14393 0.37254-0.14393 0.1524 0 0.2286 0.06491 0.26529 0.12418 0.0423 0.07055 0.0395 0.15522 0.0395 0.22296v0.04516h-0.0395c-0.19191 0-0.39511 0-0.5588 0.05927-0.2032 0.07338-0.29351 0.22578-0.29351 0.36689 0 0.18909 0.16368 0.36689 0.4318 0.36689 0.15804 0 0.32173-0.05927 0.46284-0.17498v0.14111h0.19191v-0.79869c0-0.10442-3e-3 -0.2032-0.0621-0.3048-0.0847-0.13829-0.24835-0.21167-0.44873-0.21167-0.17216 0-0.33867 0.05362-0.46002 0.1778zm0.78457 0.5334v0.08749c0 0.06491 0 0.14958-0.0875 0.24271-0.048 0.04798-0.16934 0.1524-0.33867 0.1524-0.17216 0-0.27093-0.11007-0.27093-0.22296 0-0.09596 0.0649-0.20038 0.22577-0.23989 0.11854-0.02822 0.29069-0.01976 0.42616-0.01976z"/>
    <path d="m236.69 93.102h0.20602v-0.74224c0-0.08467 0.0113-0.14958 0.0649-0.22013 0.048-0.06491 0.17216-0.18062 0.30763-0.18062 0.0649 0 0.12982 0.02822 0.17497 0.08184 0.0706 0.08467 0.0706 0.19473 0.0706 0.28504v0.77611h0.20038v-0.78175c0-0.09878 0-0.20602-0.0452-0.31044-0.0649-0.14393-0.19755-0.22578-0.34431-0.22578-0.17498 0-0.33302 0.11289-0.42898 0.25682v-0.22578h-0.20602z"/>
    <path d="m239.13 91.984c-0.11853-0.12982-0.29069-0.20038-0.4826-0.20038-0.29916 0-0.49389 0.16651-0.49389 0.35842 0 0.22578 0.24271 0.30762 0.31327 0.33302 0.11006 0.03951 0.25117 0.07338 0.34713 0.11853 0.10724 0.0508 0.127 0.11853 0.127 0.16369 0 0.12136-0.14676 0.2032-0.3302 0.2032-0.22013 0-0.36124-0.13264-0.40358-0.1778-8e-3 -0.01129-8e-3 -0.01975-8e-3 -0.03104 0-0.0028 3e-3 -0.01976-0.0113-0.0254l-0.11854 0.20038c0.1524 0.14111 0.34996 0.20602 0.54469 0.20602 0.35278 0 0.53622-0.20884 0.53622-0.40358 0-0.08749-0.0367-0.20602-0.18908-0.29069-0.14394-0.08184-0.35278-0.11007-0.47414-0.16933-0.10442-0.0508-0.127-0.11289-0.127-0.15804 0-0.1016 0.127-0.17498 0.27094-0.17498 0.18626 0 0.31044 0.11289 0.35842 0.1778 8e-3 0.0085 6e-3 0.01693 6e-3 0.0254 0 0.01693 0.0113 0.02258 0.0169 0.02258z"/>
    <path d="m240.29 91.211c-0.18062 0-0.34995 0.0762-0.44026 0.22296-0.0677 0.10724-0.0706 0.21449-0.0706 0.3302v0.127h-0.28222v0.16087h0.28222v1.0499h0.19473v-1.0499h0.42051v-0.16087h-0.42051v-0.1016c0-0.09313-3e-3 -0.19191 0.0452-0.27658 0.0536-0.09596 0.15522-0.14393 0.25964-0.14393 0.12418 0 0.2286 0.06491 0.28223 0.14676 8e-3 0.01411 8e-3 0.02258 8e-3 0.03387 0 0.01976 0.0141 0.0254 0.0226 0.0254l0.0931-0.18909c-0.0931-0.11007-0.23424-0.17498-0.39511-0.17498z"/>
    <path d="m242.03 92.464c0-0.44591-0.28222-0.67733-0.57573-0.67733-0.32738 0-0.6096 0.28222-0.6096 0.68298 0 0.39229 0.2794 0.66887 0.60396 0.66887 0.3048 0 0.58137-0.24553 0.58137-0.67451zm-0.58984-0.50518c0.18627 0 0.38382 0.16087 0.38382 0.51364 0 0.32456-0.18626 0.48824-0.37253 0.48824-0.20602 0-0.39229-0.19191-0.39229-0.51082 0-0.31609 0.18344-0.49107 0.381-0.49107z"/>
    <path d="m242.42 91.815v1.2898h0.2032v-0.62653c0-0.07902 3e-3 -0.16369 0.0903-0.30198 0.11854-0.18627 0.27094-0.21731 0.36407-0.21731 0.10725 0 0.17498 0.0508 0.21167 0.09595 0.0169 0.02258 0.0254 0.04516 0.048 0.06491l0.0959-0.19473c-0.0818-0.08467-0.20038-0.14111-0.34431-0.14111-0.18909 0-0.381 0.09596-0.46567 0.2794l8e-3 -0.24836z"/>
    <path d="m243.66 93.102h0.18626v-0.85796c0-0.06209 6e-3 -0.11853 0.0423-0.18627 0.0452-0.08467 0.1016-0.11853 0.15522-0.11853 0.0452 0 0.0959 0.02822 0.11853 0.09878 0.0169 0.05362 0.0141 0.11571 0.0141 0.16933v0.89464h0.18909v-0.85231c0-0.06773 6e-3 -0.12136 0.0536-0.2032 0.0226-0.03387 0.0706-0.11571 0.14958-0.11571 0.0423 0 0.0818 0.0254 0.1016 0.07338 0.0254 0.05362 0.0198 0.127 0.0198 0.18627v0.9144h0.19191v-0.91722c0-0.10724 3e-3 -0.21449-0.0536-0.30198-0.048-0.07338-0.12983-0.1016-0.20038-0.1016-0.12418 0-0.23989 0.07338-0.29069 0.18627-0.0198-0.10724-0.11007-0.18627-0.22578-0.18627-0.10724 0-0.20602 0.06773-0.26529 0.15804l3e-3 -0.127h-0.18908z"/>
    <path d="m246.51 91.344v1.7582h0.49671c0.11854 0 0.23989 0 0.36125-0.0508 0.18909-0.08185 0.29351-0.254 0.29351-0.43462 0-0.20602-0.13265-0.38947-0.32738-0.45438 0.15522-0.06491 0.25965-0.22013 0.25965-0.38664 0-0.15804-0.0903-0.31044-0.25683-0.381-0.11006-0.04798-0.22013-0.0508-0.32737-0.0508zm0.19474 0.16933h0.27657c0.0762 0 0.15523 0 0.23425 0.03105 0.11571 0.04798 0.1778 0.14676 0.1778 0.24836s-0.0593 0.19756-0.16934 0.24553c-0.0818 0.03387-0.16651 0.03387-0.24553 0.03387h-0.27375zm0 0.72531h0.28786c0.0875 0 0.17498 0.0028 0.26247 0.04515 0.12982 0.05927 0.20038 0.18627 0.20038 0.31327s-0.0677 0.24271-0.18909 0.29916c-0.0762 0.03387-0.14958 0.03387-0.22578 0.03387h-0.33584z"/>
   </g>
   <g transform="matrix(.13709 .17866 -.18023 .13829 215.72 -66.466)" fill-rule="evenodd">
    <path d="m587.56 383.42 12.25-6 0.5625 45.375-11.628 18.978-20.324-3.4566z" fill="#2a2a2a"/>
    <path d="m532.83 380.27 23.917-4.8431 43.25 1.875-12.812 6.25z" fill="#bebebe"/>
    <path d="m534.75 432.94 53.74 8.9272-0.70711-59.043-54.536-2.5633z" fill="#5e5e5e"/>
   </g>
   <g fill="#e9e56f" stroke-width=".28222px" aria-label="Interpolations">
    <path d="m175.16 90.872v0.16651h0.32456v1.4309h-0.34431v0.16369h0.90875v-0.16087h-0.36688v-1.4337h0.34713v-0.16651z"/>
    <path d="m176.52 92.63h0.20602v-0.74224c0-0.08467 0.0113-0.14958 0.0649-0.22013 0.048-0.06491 0.17216-0.18062 0.30763-0.18062 0.0649 0 0.12982 0.02822 0.17497 0.08184 0.0706 0.08467 0.0706 0.19473 0.0706 0.28504v0.77611h0.20038v-0.78176c0-0.09878 0-0.20602-0.0452-0.31044-0.0649-0.14393-0.19755-0.22578-0.34431-0.22578-0.17498 0-0.33302 0.11289-0.42898 0.25682v-0.22578h-0.20602z"/>
    <path d="m178.27 90.996-0.0254 0.34713h-0.30762l-3e-3 0.16651h0.30198c-0.0169 0.22013-0.0254 0.44027-0.0254 0.65758 0 0.11571 0 0.24553 0.0762 0.35278 0.0621 0.08467 0.16087 0.13547 0.29351 0.13547 0.1524 0 0.30198-0.06491 0.41205-0.14393l-0.0621-0.16087c-0.11007 0.08184-0.21167 0.11853-0.29069 0.11853-0.096 0-0.19473-0.05362-0.21731-0.20884 0-0.01129-8e-3 -0.05927-8e-3 -0.24836 0-0.16651 8e-3 -0.33584 0.0254-0.50236h0.42334v-0.16933h-0.42052s0.0198-0.23142 0.0339-0.3048c3e-3 -0.02822 0.0254-0.04516 0.0141-0.0762z"/>
    <path d="m179.88 91.312c-0.30763 0-0.59267 0.22013-0.59267 0.68862 0 0.4318 0.26811 0.6604 0.61807 0.6604 0.18626 0 0.35277-0.06773 0.46284-0.20038l-0.11289-0.11007c-0.0818 0.09596-0.20602 0.14676-0.33302 0.14676-0.17216 0-0.42333-0.09596-0.43745-0.4826h0.9144c8e-3 -0.08749 6e-3 -0.17216-8e-3 -0.24553-0.0593-0.34713-0.29916-0.4572-0.51082-0.4572zm-0.38947 0.54751c0.0423-0.3048 0.23707-0.39229 0.37535-0.39229 0.20885 0 0.35843 0.18344 0.33303 0.39229z"/>
    <path d="m180.84 91.343v1.2898h0.2032v-0.62653c0-0.07902 3e-3 -0.16369 0.0903-0.30198 0.11854-0.18627 0.27094-0.21731 0.36407-0.21731 0.10725 0 0.17498 0.0508 0.21167 0.09596 0.0169 0.02258 0.0254 0.04515 0.048 0.06491l0.0959-0.19473c-0.0818-0.08467-0.20038-0.14111-0.34431-0.14111-0.18909 0-0.381 0.09596-0.46567 0.2794l8e-3 -0.24836z"/>
    <path d="m182.14 91.343 3e-3 1.7582h0.20602v-0.64064c0.0875 0.127 0.23142 0.20602 0.38664 0.20602 0.26529 0 0.54187-0.22296 0.54187-0.69427 0-0.45438-0.26811-0.65758-0.52211-0.65758-0.16651 0-0.32173 0.08467-0.40922 0.22578v-0.19756zm0.53904 0.14393c0.11289 0 0.38664 0.05927 0.38664 0.52776 0 0.4064-0.26528 0.47131-0.38664 0.47131s-0.24553-0.06209-0.29633-0.1778c-0.0367-0.08749-0.0367-0.19473-0.0367-0.381 0-0.10724 6e-3 -0.18627 0.0339-0.254 0.0508-0.11571 0.16934-0.18627 0.29916-0.18627z"/>
    <path d="m184.68 91.992c0-0.44591-0.28222-0.67733-0.57574-0.67733-0.32737 0-0.6096 0.28222-0.6096 0.68298 0 0.39229 0.2794 0.66887 0.60396 0.66887 0.3048 0 0.58138-0.24553 0.58138-0.67451zm-0.58985-0.50518c0.18627 0 0.38383 0.16087 0.38383 0.51364 0 0.32456-0.18627 0.48824-0.37254 0.48824-0.20602 0-0.39229-0.19191-0.39229-0.51082 0-0.31609 0.18345-0.49107 0.381-0.49107z"/>
    <path d="m185.03 90.756v0.16369h0.36689v1.5494h-0.38382v0.16087h0.96802v-0.16087h-0.381v-1.7131z"/>
    <path d="m186.46 91.493 0.0988 0.12982c0.10724-0.11007 0.25117-0.14393 0.37253-0.14393 0.1524 0 0.2286 0.06491 0.26529 0.12418 0.0423 0.07056 0.0395 0.15522 0.0395 0.22296v0.04515h-0.0395c-0.19191 0-0.39511 0-0.5588 0.05927-0.2032 0.07338-0.29351 0.22578-0.29351 0.36689 0 0.18909 0.16369 0.36689 0.4318 0.36689 0.15804 0 0.32173-0.05927 0.46284-0.17498v0.14111h0.19191v-0.79869c0-0.10442-3e-3 -0.2032-0.0621-0.3048-0.0847-0.13829-0.24835-0.21167-0.44873-0.21167-0.17216 0-0.33867 0.05362-0.46002 0.1778zm0.78458 0.5334v0.08749c0 0.06491 0 0.14958-0.0875 0.24271-0.048 0.04798-0.16934 0.1524-0.33867 0.1524-0.17216 0-0.27093-0.11007-0.27093-0.22296 0-0.09596 0.0649-0.20038 0.22577-0.23989 0.11854-0.02822 0.29069-0.01976 0.42616-0.01976z"/>
    <path d="m188.14 90.996-0.0254 0.34713h-0.30763l-3e-3 0.16651h0.30198c-0.0169 0.22013-0.0254 0.44027-0.0254 0.65758 0 0.11571 0 0.24553 0.0762 0.35278 0.0621 0.08467 0.16087 0.13547 0.29351 0.13547 0.1524 0 0.30198-0.06491 0.41205-0.14393l-0.0621-0.16087c-0.11007 0.08184-0.21167 0.11853-0.29069 0.11853-0.096 0-0.19474-0.05362-0.21731-0.20884 0-0.01129-8e-3 -0.05927-8e-3 -0.24836 0-0.16651 8e-3 -0.33584 0.0254-0.50236h0.42333v-0.16933h-0.42051s0.0198-0.23142 0.0339-0.3048c3e-3 -0.02822 0.0254-0.04516 0.0141-0.0762z"/>
    <path d="m189.32 91.34v0.16651h0.31044v0.96238h-0.32738v0.16087h0.83538v-0.16087h-0.30198v-1.1289zm0.41768-0.5588c-0.0818 0-0.14675 0.06491-0.14675 0.14393 0 0.07902 0.0649 0.14393 0.14675 0.14393 0.0818 0 0.14676-0.06491 0.14676-0.14393 0-0.07902-0.0649-0.14393-0.14676-0.14393z"/>
    <path d="m191.73 91.992c0-0.44591-0.28222-0.67733-0.57573-0.67733-0.32738 0-0.6096 0.28222-0.6096 0.68298 0 0.39229 0.2794 0.66887 0.60396 0.66887 0.3048 0 0.58137-0.24553 0.58137-0.67451zm-0.58984-0.50518c0.18627 0 0.38382 0.16087 0.38382 0.51364 0 0.32456-0.18627 0.48824-0.37253 0.48824-0.20602 0-0.39229-0.19191-0.39229-0.51082 0-0.31609 0.18344-0.49107 0.381-0.49107z"/>
    <path d="m192.04 92.63h0.20603v-0.74224c0-0.08467 0.0113-0.14958 0.0649-0.22013 0.048-0.06491 0.17215-0.18062 0.30762-0.18062 0.0649 0 0.12982 0.02822 0.17498 0.08184 0.0705 0.08467 0.0705 0.19473 0.0705 0.28504v0.77611h0.20038v-0.78176c0-0.09878 0-0.20602-0.0452-0.31044-0.0649-0.14393-0.19756-0.22578-0.34432-0.22578-0.17497 0-0.33302 0.11289-0.42897 0.25682v-0.22578h-0.20603z"/>
    <path d="m194.48 91.513c-0.11853-0.12982-0.29069-0.20038-0.4826-0.20038-0.29915 0-0.49389 0.16651-0.49389 0.35842 0 0.22578 0.24272 0.30762 0.31327 0.33302 0.11007 0.03951 0.25118 0.07338 0.34713 0.11853 0.10725 0.0508 0.127 0.11853 0.127 0.16369 0 0.12136-0.14675 0.2032-0.3302 0.2032-0.22013 0-0.36124-0.13264-0.40357-0.1778-8e-3 -0.01129-8e-3 -0.01976-8e-3 -0.03105 0-0.0028 3e-3 -0.01976-0.0113-0.0254l-0.11853 0.20038c0.1524 0.14111 0.34995 0.20602 0.54469 0.20602 0.35277 0 0.53622-0.20884 0.53622-0.40358 0-0.08749-0.0367-0.20602-0.18909-0.29069-0.14393-0.08185-0.35278-0.11007-0.47413-0.16933-0.10443-0.0508-0.127-0.11289-0.127-0.15804 0-0.1016 0.127-0.17498 0.27093-0.17498 0.18627 0 0.31044 0.11289 0.35842 0.1778 8e-3 0.0085 6e-3 0.01693 6e-3 0.0254 0 0.01693 0.0113 0.02258 0.0169 0.02258z"/>
   </g>
  </g>
  <g fill="#0d263b" stroke="#fff" stroke-linecap="round" stroke-linejoin="bevel" stroke-width=".079375">
   <circle cx="178.23" cy="109.17" r=".88867" style="paint-order:normal"/>
   <circle cx="179.54" cy="103.61" r=".88867" style="paint-order:normal"/>
   <circle cx="183.52" cy="98.648" r=".88867" style="paint-order:normal"/>
   <circle cx="188.29" cy="96.543" r=".88867" style="paint-order:normal"/>
   <circle cx="192.22" cy="98.835" r=".88867" style="paint-order:normal"/>
   <circle cx="195.82" cy="96.076" r=".88867" style="paint-order:normal"/>
   <circle cx="199.28" cy="92.474" r=".88867" style="paint-order:normal"/>
   <circle cx="202.23" cy="89.06" r=".88867" style="paint-order:normal"/>
   <circle cx="206.51" cy="87.657" r=".88867" style="paint-order:normal"/>
   <circle cx="209.97" cy="88.545" r=".88867" style="paint-order:normal"/>
  </g>
  <g fill="#cb2d2d" stroke="#fff" stroke-linecap="round" stroke-linejoin="bevel" stroke-width=".079375">
   <circle cx="210.95" cy="91.726" r=".88867" style="paint-order:normal"/>
   <circle cx="206.86" cy="93.035" r=".88867" style="paint-order:normal"/>
   <circle cx="202.93" cy="95" r=".88867" style="paint-order:normal"/>
   <circle cx="199.07" cy="97.128" r=".88867" style="paint-order:normal"/>
   <circle cx="195.87" cy="99.885" r=".88867" style="paint-order:normal"/>
   <circle cx="192.82" cy="102.3" r=".88867" style="paint-order:normal"/>
   <circle cx="190.07" cy="105.05" r=".88867" style="paint-order:normal"/>
   <circle cx="187.59" cy="108.1" r=".88867" style="paint-order:normal"/>
   <circle cx="184.87" cy="111.53" r=".88867" style="paint-order:normal"/>
  </g>
  <g fill="#21943a" stroke="#fff" stroke-linecap="round" stroke-linejoin="bevel" stroke-width=".079375">
   <circle cx="191.52" cy="112.68" r=".88867" style="paint-order:normal"/>
   <circle cx="195.21" cy="109.71" r=".88867" style="paint-order:normal"/>
   <circle cx="198.57" cy="107.02" r=".88867" style="paint-order:normal"/>
   <circle cx="201.78" cy="104.49" r=".88867" style="paint-order:normal"/>
   <circle cx="204.66" cy="102.27" r=".88867" style="paint-order:normal"/>
   <circle cx="207.7" cy="99.981" r=".88867" style="paint-order:normal"/>
   <circle cx="210.53" cy="97.689" r=".88867" style="paint-order:normal"/>
   <circle cx="213.24" cy="95.374" r=".88867" style="paint-order:normal"/>
  </g>
  <g fill="#cbd12e" stroke="#fff" stroke-linecap="round" stroke-linejoin="bevel" stroke-width=".079375">
   <circle cx="192.24" cy="122.78" r=".88867" style="paint-order:normal"/>
   <circle cx="197.01" cy="122.78" r=".88867" style="paint-order:normal"/>
   <circle cx="201.77" cy="122.78" r=".88867" style="paint-order:normal"/>
   <circle cx="206.53" cy="122.78" r=".88867" style="paint-order:normal"/>
   <circle cx="211.29" cy="122.78" r=".88867" style="paint-order:normal"/>
   <circle cx="219.35" cy="99.766" r=".88867" style="paint-order:normal"/>
   <circle cx="215.92" cy="122.78" r=".88867" style="paint-order:normal"/>
  </g>
  <g fill="#8524a2" stroke="#fff" stroke-linecap="round" stroke-linejoin="bevel" stroke-width=".079375">
   <circle transform="scale(-1)" cx="-190.3" cy="-119.42" r=".88867" style="paint-order:normal"/>
   <circle transform="scale(-1)" cx="-194.36" cy="-117.7" r=".88867" style="paint-order:normal"/>
   <circle transform="scale(-1)" cx="-198.21" cy="-116.1" r=".88867" style="paint-order:normal"/>
   <circle transform="scale(-1)" cx="-202.18" cy="-114.02" r=".88867" style="paint-order:normal"/>
   <circle transform="scale(-1)" cx="-205.51" cy="-111.71" r=".88867" style="paint-order:normal"/>
   <circle transform="scale(-1)" cx="-208.64" cy="-109.38" r=".88867" style="paint-order:normal"/>
   <circle transform="scale(-1)" cx="-211.5" cy="-106.92" r=".88867" style="paint-order:normal"/>
   <circle transform="scale(-1)" cx="-214.28" cy="-103.9" r=".88867" style="paint-order:normal"/>
   <circle transform="scale(-1)" cx="-216.59" cy="-100.42" r=".88867" style="paint-order:normal"/>
  </g>
 </g>
</svg>
