<svg width="766.3" height="377.02" version="1.1" viewBox="0 0 202.75 99.756" xmlns="http://www.w3.org/2000/svg">
 <g transform="translate(-119.83 -74.233)" fill="#e8eaec" stroke="#cf2f25" stroke-linecap="round" stroke-width=".26459" aria-label="WAVE TABLE">
  <path d="m306.87 112.15h13.119" fill="none" stroke="#47d58a" stroke-dashoffset="1.2" stroke-linecap="square" stroke-width=".26459"/>
  <path d="m240.45 112.15h30.318" fill="none" stroke="#47d58a" stroke-dashoffset="1.2" stroke-linecap="square" stroke-width=".26459"/>
  <g stroke-linecap="round" stroke-width=".26459">
   <path d="m124.09 74.365-4.1342 3.7043v66.148l4.1342 3.7043h35.389l4.1342-3.7043v-66.148l-4.1342-3.7043z" fill="#1d232d" stroke="#009244"/>
   <path d="m155.68 81.514h-27.782v12.965h27.782z" fill="#1d232d" stroke="#009244"/>
   <g fill="#e8eaec" stroke="none" aria-label="Dialogue">
    <path d="m136.24 89.51h0.53341c0.62867 0 0.97158-0.38736 0.97158-1.051 0-0.66042-0.34291-1.0319-0.98428-1.0319h-0.52071zm0.26671-0.21591v-1.651h0.23495c0.48897 0 0.73027 0.29211 0.73027 0.816 0 0.52706-0.2413 0.83505-0.73027 0.83505z"/>
    <path d="m138.3 87.65c0.1016 0 0.18098-0.06985 0.18098-0.16828 0-0.1016-0.0794-0.16828-0.18098-0.16828-0.1016 0-0.18098 0.06668-0.18098 0.16828 0 0.09843 0.0794 0.16828 0.18098 0.16828zm-0.13335 1.8606h0.26035v-1.5431h-0.26035z"/>
    <path d="m138.87 89.11c0 0.27623 0.19368 0.43816 0.45404 0.43816 0.19051 0 0.36196-0.1016 0.51119-0.22226h6e-3l0.0222 0.18416h0.2159v-0.94618c0-0.38419-0.15875-0.63502-0.53659-0.63502-0.24766 0-0.46356 0.10795-0.60644 0.20003l0.10478 0.18098c0.12065-0.08255 0.27941-0.1651 0.46039-0.1651 0.25083 0 0.3175 0.19051 0.3175 0.38736-0.65724 0.07303-0.94935 0.24131-0.94935 0.57787zm0.25718-0.01905c0-0.19686 0.17463-0.32386 0.69217-0.38736v0.42864c-0.14922 0.13335-0.27305 0.20638-0.42228 0.20638-0.15241 0-0.26989-0.07303-0.26989-0.24766z"/>
    <path d="m140.58 89.199c0 0.22543 0.0794 0.34926 0.27623 0.34926 0.0699 0 0.1143-0.0095 0.14923-0.0254l-0.0349-0.19686c-0.0286 0.0063-0.0413 0.0063-0.0572 0.0063-0.0381 0-0.073-0.03175-0.073-0.1143v-1.9686h-0.26036z"/>
    <path d="m141.27 88.742c0 0.51119 0.33656 0.80647 0.7144 0.80647 0.37783 0 0.71439-0.29528 0.71439-0.80647 0-0.51754-0.33656-0.81282-0.71439-0.81282-0.37784 0-0.7144 0.29528-0.7144 0.81282zm0.26988 0c0-0.35561 0.18098-0.59692 0.44452-0.59692 0.2667 0 0.44451 0.24131 0.44451 0.59692 0 0.35244-0.17781 0.59057-0.44451 0.59057-0.26354 0-0.44452-0.23813-0.44452-0.59057z"/>
    <path d="m143.22 89.771c0-0.0889 0.0476-0.18098 0.15875-0.26036 0.0667 0.01905 0.13971 0.0254 0.20003 0.0254h0.26671c0.20003 0 0.31116 0.04763 0.31116 0.1905 0 0.16193-0.19368 0.31433-0.48897 0.31433-0.2794 0-0.44768-0.10478-0.44768-0.26988zm-0.22861 0.03493c0 0.26671 0.26036 0.41594 0.63819 0.41594 0.47944 0 0.78108-0.24766 0.78108-0.53342 0-0.25718-0.18098-0.36831-0.53977-0.36831h-0.29846c-0.20955 0-0.27306-0.06985-0.27306-0.16828 0-0.08573 0.0445-0.13653 0.0984-0.18416 0.0698 0.03493 0.15558 0.05398 0.23178 0.05398 0.31434 0 0.56517-0.20638 0.56517-0.53659 0-0.13018-0.054-0.24766-0.127-0.31751h0.3175v-0.20003h-0.53659c-0.0571-0.02222-0.13335-0.0381-0.21908-0.0381-0.31433 0-0.58104 0.21273-0.58104 0.54929 0 0.18416 0.0984 0.33338 0.20003 0.41594v0.0127c-0.0794 0.05398-0.16828 0.15558-0.16828 0.28576 0 0.12065 0.0603 0.20321 0.13653 0.25083v0.0127c-0.1397 0.09525-0.22543 0.21908-0.22543 0.34926zm0.63819-0.95888c-0.1778 0-0.32703-0.14288-0.32703-0.36831 0-0.22543 0.14605-0.35878 0.32703-0.35878s0.32704 0.13335 0.32704 0.35878c0 0.22543-0.14923 0.36831-0.32704 0.36831z"/>
    <path d="m144.69 88.945c0 0.39371 0.14606 0.60327 0.47309 0.60327 0.21273 0 0.36513-0.11113 0.50801-0.27941h0.01l0.0222 0.24131h0.21591v-1.5431h-0.26036v1.0954c-0.14605 0.18098-0.25718 0.26036-0.41593 0.26036-0.20321 0-0.28894-0.12383-0.28894-0.41276v-0.943h-0.26353z"/>
    <path d="m146.33 88.742c0 0.50484 0.32703 0.80647 0.7398 0.80647 0.20955 0 0.37466-0.07303 0.50801-0.15875l-0.0921-0.17146c-0.1143 0.07303-0.23813 0.12065-0.38418 0.12065-0.29529 0-0.49532-0.20956-0.51437-0.54294h1.0414c6e-3 -0.0381 0.01-0.0889 0.01-0.14288 0-0.44134-0.22226-0.72392-0.61597-0.72392-0.35244 0-0.69217 0.30798-0.69217 0.81282zm0.25401-0.11748c0.0318-0.31116 0.2286-0.48896 0.44451-0.48896 0.24131 0 0.38101 0.17463 0.38101 0.48896z"/>
   </g>
   <g fill="#47d58a" stroke="none" aria-label="AUDIO ASSETS">
    <path d="m125.44 77.609 0.0508-0.19051c0.0572-0.20638 0.11431-0.44769 0.16193-0.66677h0.0127c0.0571 0.21591 0.11113 0.46039 0.16828 0.66677l0.0508 0.19051zm0.66677 0.85727h0.49531l-0.65089-2.0702h-0.55882l-0.65089 2.0702h0.47626l0.12701-0.49214h0.63502z"/>
    <path d="m126.77 77.507c0 0.69534 0.28894 0.99698 0.82553 0.99698s0.81917-0.30163 0.81917-0.99698v-1.1113h-0.45086v1.1589c0 0.40641-0.13653 0.54612-0.36831 0.54612s-0.35879-0.1397-0.35879-0.54612v-1.1589h-0.46674z"/>
    <path d="m128.88 78.466h0.61279c0.60644 0 1.0128-0.33338 1.0128-1.0446s-0.40641-1.0256-1.0414-1.0256h-0.58421zm0.46991-0.37784v-1.3145h0.0889c0.34926 0 0.58739 0.1524 0.58739 0.64772s-0.23813 0.66677-0.58739 0.66677z"/>
    <path d="m130.9 78.466h0.46992v-2.0702h-0.46992z"/>
    <path d="m132.7 78.504c0.55882 0 0.93983-0.40641 0.93983-1.0827 0-0.67312-0.38101-1.0637-0.93983-1.0637-0.55564 0-0.93983 0.38736-0.93983 1.0637s0.38419 1.0827 0.93983 1.0827zm0-0.40324c-0.27941 0-0.46039-0.26353-0.46039-0.67947 0-0.41276 0.18098-0.66042 0.46039-0.66042 0.28258 0 0.46039 0.24766 0.46039 0.66042 0 0.41594-0.17781 0.67947-0.46039 0.67947z"/>
    <path d="m135.12 77.609 0.0508-0.19051c0.0572-0.20638 0.1143-0.44769 0.16193-0.66677h0.0127c0.0572 0.21591 0.11112 0.46039 0.16828 0.66677l0.0508 0.19051zm0.66677 0.85727h0.49532l-0.6509-2.0702h-0.55881l-0.6509 2.0702h0.47627l0.127-0.49214h0.63502z"/>
    <path d="m136.37 78.206c0.21273 0.19686 0.49849 0.29846 0.76837 0.29846 0.49214 0 0.7779-0.29846 0.7779-0.64137 0-0.29211-0.15876-0.46039-0.40959-0.56199l-0.26353-0.10795c-0.18098-0.07303-0.31751-0.11748-0.31751-0.24448 0-0.11748 0.10478-0.18733 0.26353-0.18733 0.1651 0 0.29528 0.06033 0.43181 0.1651l0.23496-0.29528c-0.17781-0.1778-0.42864-0.27306-0.66677-0.27306-0.42864 0-0.73662 0.27306-0.73662 0.61597 0 0.30163 0.2032 0.47944 0.41911 0.56517l0.26671 0.1143c0.18098 0.0762 0.29846 0.11748 0.29846 0.24766 0 0.12383-0.0953 0.20003-0.28894 0.20003-0.17145 0-0.36196-0.0889-0.50801-0.21591z"/>
    <path d="m138.07 78.206c0.21273 0.19686 0.49849 0.29846 0.76837 0.29846 0.49214 0 0.7779-0.29846 0.7779-0.64137 0-0.29211-0.15876-0.46039-0.40959-0.56199l-0.26353-0.10795c-0.18098-0.07303-0.31751-0.11748-0.31751-0.24448 0-0.11748 0.10478-0.18733 0.26353-0.18733 0.16511 0 0.29528 0.06033 0.43181 0.1651l0.23496-0.29528c-0.17781-0.1778-0.42864-0.27306-0.66677-0.27306-0.42864 0-0.73662 0.27306-0.73662 0.61597 0 0.30163 0.20321 0.47944 0.41911 0.56517l0.26671 0.1143c0.18098 0.0762 0.29846 0.11748 0.29846 0.24766 0 0.12383-0.0953 0.20003-0.28894 0.20003-0.17145 0-0.36196-0.0889-0.50801-0.21591z"/>
    <path d="m139.96 78.466h1.3304v-0.39371h-0.86045v-0.47626h0.70487v-0.39054h-0.70487v-0.41594h0.8287v-0.39371h-1.2986z"/>
    <path d="m142.11 78.466h0.46674v-1.6764h0.56834v-0.39371h-1.6066v0.39371h0.57151z"/>
    <path d="m143.25 78.206c0.21273 0.19686 0.49849 0.29846 0.76837 0.29846 0.49214 0 0.7779-0.29846 0.7779-0.64137 0-0.29211-0.15875-0.46039-0.40959-0.56199l-0.26353-0.10795c-0.18098-0.07303-0.31751-0.11748-0.31751-0.24448 0-0.11748 0.10478-0.18733 0.26354-0.18733 0.1651 0 0.29528 0.06033 0.43181 0.1651l0.23495-0.29528c-0.1778-0.1778-0.42863-0.27306-0.66676-0.27306-0.42864 0-0.73663 0.27306-0.73663 0.61597 0 0.30163 0.20321 0.47944 0.41912 0.56517l0.2667 0.1143c0.18098 0.0762 0.29846 0.11748 0.29846 0.24766 0 0.12383-0.0953 0.20003-0.28893 0.20003-0.17146 0-0.36196-0.0889-0.50802-0.21591z"/>
   </g>
   <path d="m200.82 74.365-4.1342 3.7043v66.148l4.1342 3.7043h35.389l4.1342-3.7043v-66.148l-4.1342-3.7043z" fill="#1d232d" stroke="#009244"/>
   <path d="m232.41 81.514h-27.782v12.965h27.782z" fill="#1d232d" stroke="#009244"/>
   <g fill="#e8eaec" stroke="none" aria-label="Decoder">
    <path d="m213.34 89.51h0.53342c0.62867 0 0.97157-0.38736 0.97157-1.051 0-0.66042-0.3429-1.0319-0.98427-1.0319h-0.52072zm0.26671-0.21591v-1.651h0.23496c0.48896 0 0.73027 0.29211 0.73027 0.816 0 0.52706-0.24131 0.83505-0.73027 0.83505z"/>
    <path d="m215.15 88.742c0 0.50484 0.32703 0.80647 0.73979 0.80647 0.20956 0 0.37466-0.07303 0.50802-0.15875l-0.0921-0.17146c-0.11431 0.07303-0.23813 0.12065-0.38419 0.12065-0.29528 0-0.49531-0.20956-0.51436-0.54294h1.0414c6e-3 -0.0381 0.01-0.0889 0.01-0.14288 0-0.44134-0.22225-0.72392-0.61597-0.72392-0.35243 0-0.69216 0.30798-0.69216 0.81282zm0.254-0.11748c0.0317-0.31116 0.22861-0.48896 0.44451-0.48896 0.24131 0 0.38102 0.17463 0.38102 0.48896z"/>
    <path d="m216.73 88.742c0 0.51119 0.31433 0.80647 0.72392 0.80647 0.18415 0 0.36196-0.0762 0.50166-0.20003l-0.11748-0.17145c-0.0921 0.08255-0.2159 0.15558-0.36196 0.15558-0.28258 0-0.47626-0.23813-0.47626-0.59057 0-0.35561 0.20321-0.59692 0.48261-0.59692 0.12383 0 0.21908 0.05715 0.31116 0.13653l0.13018-0.16828c-0.10478-0.09843-0.24766-0.18416-0.45086-0.18416-0.39689 0-0.74297 0.29528-0.74297 0.81282z"/>
    <path d="m218.1 88.742c0 0.51119 0.33656 0.80647 0.71439 0.80647 0.37784 0 0.7144-0.29528 0.7144-0.80647 0-0.51754-0.33656-0.81282-0.7144-0.81282-0.37783 0-0.71439 0.29528-0.71439 0.81282zm0.26988 0c0-0.35561 0.18098-0.59692 0.44451-0.59692 0.26671 0 0.44451 0.24131 0.44451 0.59692 0 0.35244-0.1778 0.59057-0.44451 0.59057-0.26353 0-0.44451-0.23813-0.44451-0.59057z"/>
    <path d="m219.83 88.742c0 0.51436 0.25083 0.80647 0.63819 0.80647 0.18098 0 0.34608-0.1016 0.46674-0.21908h0.01l0.0222 0.18098h0.2159v-2.2607h-0.26353v0.59374l0.0127 0.26353c-0.13653-0.11113-0.254-0.1778-0.43181-0.1778-0.35243 0-0.66994 0.31116-0.66994 0.81282zm0.26988-0.0032c0-0.35244 0.19685-0.59057 0.44451-0.59057 0.127 0 0.24448 0.04445 0.37466 0.16193v0.80647c-0.127 0.14288-0.25083 0.21273-0.39371 0.21273-0.26988 0-0.42546-0.22226-0.42546-0.59057z"/>
    <path d="m221.59 88.742c0 0.50484 0.32704 0.80647 0.7398 0.80647 0.20956 0 0.37466-0.07303 0.50801-0.15875l-0.0921-0.17146c-0.11431 0.07303-0.23814 0.12065-0.38419 0.12065-0.29528 0-0.49531-0.20956-0.51436-0.54294h1.0414c6e-3 -0.0381 0.01-0.0889 0.01-0.14288 0-0.44134-0.22226-0.72392-0.61597-0.72392-0.35243 0-0.69217 0.30798-0.69217 0.81282zm0.25401-0.11748c0.0318-0.31116 0.22861-0.48896 0.44451-0.48896 0.24131 0 0.38101 0.17463 0.38101 0.48896z"/>
    <path d="m223.28 89.51h0.26036v-0.99063c0.10477-0.26036 0.26035-0.35561 0.39053-0.35561 0.0635 0 0.0984 0.0095 0.14923 0.0254l0.0508-0.22861c-0.0508-0.02223-0.0984-0.03175-0.1651-0.03175-0.17463 0-0.33339 0.12383-0.43816 0.31751h-0.01l-0.0222-0.27941h-0.21591z"/>
   </g>
   <g fill="#47d58a" stroke="none" aria-label="AUDIO ENGINE">
    <path d="m202.17 77.609 0.0508-0.19051c0.0572-0.20638 0.11431-0.44769 0.16193-0.66677h0.0127c0.0572 0.21591 0.11113 0.46039 0.16828 0.66677l0.0508 0.19051zm0.66677 0.85727h0.49531l-0.65089-2.0702h-0.55882l-0.65089 2.0702h0.47626l0.12701-0.49214h0.63502z"/>
    <path d="m203.5 77.507c0 0.69534 0.28894 0.99698 0.82553 0.99698s0.81917-0.30163 0.81917-0.99698v-1.1113h-0.45086v1.1589c0 0.40641-0.13653 0.54612-0.36831 0.54612s-0.35879-0.1397-0.35879-0.54612v-1.1589h-0.46674z"/>
    <path d="m205.61 78.466h0.61279c0.60644 0 1.0128-0.33338 1.0128-1.0446s-0.40641-1.0256-1.0414-1.0256h-0.58421zm0.46991-0.37784v-1.3145h0.0889c0.34926 0 0.58739 0.1524 0.58739 0.64772s-0.23813 0.66677-0.58739 0.66677z"/>
    <path d="m207.63 78.466h0.46992v-2.0702h-0.46992z"/>
    <path d="m209.43 78.504c0.55882 0 0.93983-0.40641 0.93983-1.0827 0-0.67312-0.38101-1.0637-0.93983-1.0637-0.55564 0-0.93983 0.38736-0.93983 1.0637s0.38419 1.0827 0.93983 1.0827zm0-0.40324c-0.27941 0-0.46039-0.26353-0.46039-0.67947 0-0.41276 0.18098-0.66042 0.46039-0.66042 0.28258 0 0.46039 0.24766 0.46039 0.66042 0 0.41594-0.17781 0.67947-0.46039 0.67947z"/>
    <path d="m211.42 78.466h1.3304v-0.39371h-0.86045v-0.47626h0.70487v-0.39054h-0.70487v-0.41594h0.8287v-0.39371h-1.2986z"/>
    <path d="m213.16 78.466h0.44769v-0.73345c0-0.24448-0.0381-0.52072-0.0603-0.74932h0.0127l0.2032 0.45086 0.53977 1.0319h0.47943v-2.0702h-0.44451v0.73027c0 0.24448 0.0381 0.53659 0.0603 0.75567h-0.0127l-0.20638-0.45721-0.53977-1.0287h-0.47944z"/>
    <path d="m215.17 77.444c0 0.69534 0.44452 1.0605 1.0033 1.0605 0.28894 0 0.54612-0.12065 0.69535-0.25083v-0.95253h-0.75885v0.38101h0.34291v0.35561c-0.0508 0.04128-0.13653 0.0635-0.21908 0.0635-0.39054 0-0.58422-0.24766-0.58422-0.67312 0-0.41594 0.22861-0.66677 0.54612-0.66677 0.1778 0 0.27623 0.06033 0.38101 0.15558l0.25718-0.28893c-0.1397-0.1397-0.35243-0.26988-0.64454-0.26988-0.56199 0-1.0192 0.40006-1.0192 1.0859z"/>
    <path d="m217.29 78.466h0.46991v-2.0702h-0.46991z"/>
    <path d="m218.24 78.466h0.44769v-0.73345c0-0.24448-0.0381-0.52072-0.0603-0.74932h0.0127l0.20321 0.45086 0.53976 1.0319h0.47944v-2.0702h-0.44451v0.73027c0 0.24448 0.0381 0.53659 0.0603 0.75567h-0.0127l-0.20638-0.45721-0.53976-1.0287h-0.47944z"/>
    <path d="m220.35 78.466h1.3304v-0.39371h-0.86045v-0.47626h0.70487v-0.39054h-0.70487v-0.41594h0.8287v-0.39371h-1.2986z"/>
   </g>
   <path d="m280.2 82.303-4.1342 3.7043v50.272l4.1342 3.7043h19.514l4.1342-3.7043v-50.272l-4.1342-3.7043z" fill="#1d232d" stroke="#009244"/>
   <g fill="#47d58a" stroke="none" aria-label="MIXER">
    <path d="m285.08 112.33h0.43182v-0.75884c0-0.20321-0.0381-0.50484-0.0603-0.70487h0.0127l0.1651 0.47944 0.31751 0.80329h0.18733l0.32069-0.80329 0.16828-0.47944h0.0127c-0.0222 0.20003-0.0603 0.50166-0.0603 0.70487v0.75884h0.43816v-2.0702h-0.49531l-0.33656 0.93031-0.12383 0.36196h-0.0127l-0.12383-0.36196-0.34608-0.93031h-0.49532z"/>
    <path d="m287.5 112.33h0.46991v-2.0702h-0.46991z"/>
    <path d="m288.25 112.33h0.49848l0.19368-0.42228c0.0476-0.10796 0.0921-0.21274 0.14288-0.33974h0.0127c0.054 0.127 0.10161 0.23178 0.15558 0.33974l0.20321 0.42228h0.52071l-0.57151-1.0414 0.53659-1.0287h-0.49849l-0.16511 0.39054c-0.0413 0.0952-0.0825 0.20321-0.13017 0.33338h-0.0127c-0.0603-0.13017-0.10478-0.23813-0.15241-0.33338l-0.1778-0.39054h-0.52389l0.53976 1.0065z"/>
    <path d="m290.26 112.33h1.3304v-0.39371h-0.86045v-0.47626h0.70487v-0.39054h-0.70487v-0.41593h0.8287v-0.39372h-1.2986z"/>
    <path d="m292.46 110.63h0.23813c0.24448 0 0.37783 0.0699 0.37783 0.27306 0 0.2032-0.13335 0.30798-0.37783 0.30798h-0.23813zm1.1748 1.6987-0.46674-0.8287c0.21908-0.0984 0.36831-0.2921 0.36831-0.59691 0-0.49214-0.36196-0.64455-0.80012-0.64455h-0.74615v2.0702h0.46992v-0.74614h0.254l0.39689 0.74614z"/>
   </g>
  </g>
  <g fill="#1d232d" stroke="#009244" stroke-width=".26459">
   <g stroke-linecap="square" stroke-miterlimit="40">
    <rect x="272.1" y="89.055" width="3.9689" height="3.9689"/>
    <rect x="272.1" y="94.347" width="3.9689" height="3.9689"/>
    <rect x="272.1" y="99.638" width="3.9689" height="3.9689"/>
    <rect x="272.1" y="104.93" width="3.9689" height="3.9689"/>
    <rect x="272.1" y="110.22" width="3.9689" height="3.9689"/>
    <rect x="272.1" y="115.51" width="3.9689" height="3.9689"/>
    <rect x="272.1" y="120.81" width="3.9689" height="3.9689"/>
    <rect x="272.1" y="126.1" width="3.9689" height="3.9689"/>
    <rect x="272.1" y="131.39" width="3.9689" height="3.9689"/>
    <rect x="303.85" y="110.22" width="3.9689" height="3.9689"/>
   </g>
   <path d="m155.68 97.389h-27.782v12.965h27.782z" stroke-linecap="round"/>
  </g>
  <g stroke-linecap="round" stroke-width=".26459">
   <g fill="#e8eaec" stroke="none" aria-label="Sond Cues">
    <path d="m135.02 105.12c0.18098 0.18733 0.43498 0.30798 0.72709 0.30798 0.43816 0 0.71122-0.26353 0.71122-0.59374 0-0.30798-0.18733-0.45086-0.42864-0.55564l-0.29845-0.127c-0.16193-0.0699-0.34609-0.14606-0.34609-0.34609 0-0.18733 0.15558-0.3048 0.39054-0.3048 0.1905 0 0.34608 0.0762 0.47309 0.19685l0.1397-0.17145c-0.14606-0.15241-0.36514-0.25719-0.61279-0.25719-0.37784 0-0.65725 0.23496-0.65725 0.55247 0 0.30481 0.22861 0.45404 0.42229 0.53659l0.29846 0.13018c0.19685 0.0889 0.34926 0.15558 0.34926 0.36831 0 0.2032-0.16193 0.33973-0.43499 0.33973-0.21908 0-0.42546-0.10477-0.57469-0.26035z"/>
    <path d="m136.72 104.62c0 0.51119 0.33656 0.80647 0.7144 0.80647 0.37783 0 0.71439-0.29528 0.71439-0.80647 0-0.51754-0.33656-0.81282-0.71439-0.81282-0.37784 0-0.7144 0.29528-0.7144 0.81282zm0.26988 0c0-0.35561 0.18098-0.59691 0.44452-0.59691 0.2667 0 0.44451 0.2413 0.44451 0.59691 0 0.35244-0.17781 0.59057-0.44451 0.59057-0.26354 0-0.44452-0.23813-0.44452-0.59057z"/>
    <path d="m138.55 105.39h0.26036v-1.1176c0.15558-0.15558 0.26353-0.23813 0.42228-0.23813 0.20321 0 0.29211 0.12383 0.29211 0.41276v0.943h0.26036v-0.97792c0-0.39372-0.14606-0.60327-0.46991-0.60327-0.21274 0-0.37149 0.1143-0.51754 0.26036h-0.01l-0.0222-0.22226h-0.2159z"/>
    <path d="m140.18 104.62c0 0.51437 0.25083 0.80647 0.63819 0.80647 0.18098 0 0.34609-0.1016 0.46674-0.21908h0.01l0.0222 0.18098h0.21591v-2.2607h-0.26354v0.59374l0.0127 0.26353c-0.13652-0.11112-0.254-0.1778-0.43181-0.1778-0.35243 0-0.66994 0.31116-0.66994 0.81282zm0.26988-3e-3c0-0.35244 0.19686-0.59057 0.44451-0.59057 0.12701 0 0.24448 0.0444 0.37466 0.16193v0.80647c-0.127 0.14288-0.25083 0.21273-0.39371 0.21273-0.26988 0-0.42546-0.22225-0.42546-0.59056z"/>
    <path d="m142.59 104.34c0 0.67947 0.39054 1.0795 0.91443 1.0795 0.26353 0 0.46991-0.11112 0.63184-0.30163l-0.14923-0.16193c-0.13335 0.14923-0.27941 0.23178-0.47626 0.23178-0.39689 0-0.64772-0.33021-0.64772-0.8541 0-0.51754 0.26353-0.84139 0.66042-0.84139 0.17145 0 0.3048 0.0762 0.41593 0.19368l0.14923-0.16828c-0.12383-0.13653-0.32068-0.25719-0.56834-0.25719-0.53341 0-0.9303 0.40959-0.9303 1.0795z"/>
    <path d="m144.44 104.82c0 0.39371 0.14605 0.60326 0.47308 0.60326 0.21273 0 0.36514-0.11112 0.50802-0.2794h0.01l0.0222 0.2413h0.2159v-1.5431h-0.26035v1.0954c-0.14606 0.18098-0.25718 0.26035-0.41594 0.26035-0.2032 0-0.28893-0.12383-0.28893-0.41276v-0.943h-0.26353z"/>
    <path d="m146.07 104.62c0 0.50484 0.32704 0.80647 0.7398 0.80647 0.20956 0 0.37466-0.073 0.50801-0.15875l-0.0921-0.17145c-0.11431 0.073-0.23814 0.12065-0.38419 0.12065-0.29528 0-0.49531-0.20956-0.51436-0.54294h1.0414c6e-3 -0.0381 0.01-0.0889 0.01-0.14288 0-0.44134-0.22226-0.72392-0.61597-0.72392-0.35243 0-0.69217 0.30798-0.69217 0.81282zm0.25401-0.11748c0.0317-0.31116 0.22861-0.48896 0.44451-0.48896 0.24131 0 0.38101 0.17463 0.38101 0.48896z"/>
    <path d="m147.59 105.21c0.14606 0.12066 0.35561 0.21273 0.5747 0.21273 0.36513 0 0.56516-0.20955 0.56516-0.46038 0-0.29211-0.24765-0.38419-0.46991-0.46674-0.17463-0.0667-0.34291-0.12383-0.34291-0.26671 0-0.11748 0.0889-0.22226 0.28258-0.22226 0.13653 0 0.24766 0.0572 0.35244 0.13653l0.12383-0.1651c-0.11748-0.0952-0.28576-0.17463-0.47944-0.17463-0.33339 0-0.53024 0.1905-0.53024 0.43816 0 0.26036 0.2413 0.36514 0.46039 0.44451 0.16827 0.0635 0.35243 0.13336 0.35243 0.29211 0 0.13336-0.1016 0.24131-0.30481 0.24131-0.18415 0-0.32068-0.0762-0.45404-0.18416z"/>
   </g>
   <path d="m155.68 113.26h-27.782v12.965h27.782z" fill="#1d232d" stroke="#009244"/>
   <g fill="#e8eaec" stroke="none" aria-label="Sound Effects">
    <path d="m132.92 120.99c0.18098 0.18733 0.43499 0.30799 0.72709 0.30799 0.43817 0 0.71122-0.26354 0.71122-0.59374 0-0.30799-0.18733-0.45087-0.42863-0.55565l-0.29846-0.127c-0.16193-0.0698-0.34609-0.14605-0.34609-0.34608 0-0.18733 0.15558-0.30481 0.39054-0.30481 0.19051 0 0.34609 0.0762 0.47309 0.19685l0.1397-0.17145c-0.14605-0.15241-0.36513-0.25718-0.61279-0.25718-0.37784 0-0.65724 0.23495-0.65724 0.55246 0 0.30481 0.2286 0.45404 0.42228 0.53659l0.29846 0.13018c0.19686 0.0889 0.34926 0.15558 0.34926 0.36831 0 0.20321-0.16193 0.33974-0.43499 0.33974-0.21908 0-0.42546-0.10478-0.57469-0.26036z"/>
    <path d="m134.62 120.49c0 0.51119 0.33656 0.80648 0.7144 0.80648s0.7144-0.29529 0.7144-0.80648c0-0.51754-0.33656-0.81282-0.7144-0.81282s-0.7144 0.29528-0.7144 0.81282zm0.26989 0c0-0.35561 0.18098-0.59691 0.44451-0.59691 0.26671 0 0.44451 0.2413 0.44451 0.59691 0 0.35244-0.1778 0.59057-0.44451 0.59057-0.26353 0-0.44451-0.23813-0.44451-0.59057z"/>
    <path d="m136.43 120.7c0 0.39371 0.14605 0.60327 0.47309 0.60327 0.21273 0 0.36513-0.11113 0.50801-0.27941h0.01l0.0222 0.24131h0.21591v-1.5431h-0.26036v1.0954c-0.14605 0.18098-0.25718 0.26036-0.41594 0.26036-0.2032 0-0.28893-0.12383-0.28893-0.41277v-0.943h-0.26353z"/>
    <path d="m138.18 121.26h0.26036v-1.1176c0.15558-0.15557 0.26353-0.23813 0.42228-0.23813 0.20321 0 0.29211 0.12383 0.29211 0.41276v0.94301h0.26036v-0.97793c0-0.39371-0.14606-0.60327-0.46991-0.60327-0.21274 0-0.37149 0.1143-0.51754 0.26036h-0.01l-0.0222-0.22226h-0.2159z"/>
    <path d="m139.81 120.49c0 0.51437 0.25083 0.80648 0.63819 0.80648 0.18098 0 0.34609-0.10161 0.46674-0.21908h0.01l0.0222 0.18098h0.21591v-2.2607h-0.26354v0.59374l0.0127 0.26354c-0.13653-0.11113-0.254-0.17781-0.43181-0.17781-0.35243 0-0.66994 0.31116-0.66994 0.81282zm0.26988-3e-3c0-0.35244 0.19686-0.59057 0.44451-0.59057 0.12701 0 0.24448 0.0445 0.37466 0.16193v0.80648c-0.127 0.14287-0.25083 0.21273-0.39371 0.21273-0.26988 0-0.42546-0.22226-0.42546-0.59057z"/>
    <path d="m142.34 121.26h1.2319v-0.22544h-0.96523v-0.75567h0.78742v-0.22543h-0.78742v-0.65407h0.93348v-0.22225h-1.2002z"/>
    <path d="m145.63 119.01c-0.0699-0.0286-0.16193-0.0508-0.25718-0.0508-0.30799 0-0.45087 0.19686-0.45087 0.51119v0.24448h-0.64136v-0.19685c0-0.20321 0.0889-0.31434 0.2413-0.31434 0.0762 0 0.13971 0.0127 0.20638 0.0413l0.054-0.19686c-0.0762-0.0349-0.18098-0.0572-0.28258-0.0572-0.32069 0-0.47944 0.20003-0.47944 0.52072v0.2032l-0.20956 0.0159v0.19685h0.20956v1.3304h0.26036v-1.3304h0.64136v1.3304h0.26036v-1.3304h0.32704v-0.21273h-0.32704v-0.24448c0-0.19685 0.073-0.29846 0.21908-0.29846 0.054 0 0.11431 0.0127 0.17463 0.0381z"/>
    <path d="m145.65 120.49c0 0.50484 0.32704 0.80648 0.7398 0.80648 0.20956 0 0.37466-0.073 0.50801-0.15876l-0.0921-0.17145c-0.11431 0.073-0.23814 0.12065-0.38419 0.12065-0.29528 0-0.49531-0.20955-0.51436-0.54294h1.0414c6e-3 -0.0381 0.01-0.0889 0.01-0.14288 0-0.44134-0.22226-0.72392-0.61597-0.72392-0.35243 0-0.69217 0.30799-0.69217 0.81282zm0.25401-0.11747c0.0317-0.31116 0.22861-0.48897 0.44451-0.48897 0.24131 0 0.38101 0.17463 0.38101 0.48897z"/>
    <path d="m147.23 120.49c0 0.51119 0.31433 0.80648 0.72392 0.80648 0.18415 0 0.36196-0.0762 0.50166-0.20003l-0.11748-0.17146c-0.0921 0.0825-0.2159 0.15558-0.36196 0.15558-0.28258 0-0.47626-0.23813-0.47626-0.59057 0-0.35561 0.2032-0.59691 0.48261-0.59691 0.12383 0 0.21908 0.0572 0.31116 0.13653l0.13018-0.16828c-0.10478-0.0984-0.24766-0.18416-0.45086-0.18416-0.39689 0-0.74297 0.29528-0.74297 0.81282z"/>
    <path d="m148.83 120.79c0 0.30481 0.11113 0.51437 0.44134 0.51437 0.0952 0 0.20003-0.0286 0.28576-0.0571l-0.0508-0.19686c-0.0508 0.019-0.12066 0.0413-0.17463 0.0413-0.17781 0-0.23813-0.10796-0.23813-0.29846v-0.85728h0.41593v-0.21273h-0.41593v-0.43181h-0.21909l-0.0317 0.43181-0.2413 0.0159v0.19685h0.2286z"/>
    <path d="m149.69 121.09c0.14606 0.12065 0.35561 0.21273 0.57469 0.21273 0.36514 0 0.56517-0.20956 0.56517-0.46039 0-0.29211-0.24766-0.38419-0.46991-0.46674-0.17463-0.0667-0.34291-0.12383-0.34291-0.26671 0-0.11747 0.0889-0.22225 0.28258-0.22225 0.13653 0 0.24766 0.0571 0.35243 0.13653l0.12383-0.16511c-0.11748-0.0952-0.28576-0.17463-0.47944-0.17463-0.33338 0-0.53024 0.19051-0.53024 0.43816 0 0.26036 0.24131 0.36514 0.46039 0.44452 0.16828 0.0635 0.35244 0.13335 0.35244 0.2921 0 0.13336-0.10161 0.24131-0.30481 0.24131-0.18416 0-0.32069-0.0762-0.45404-0.18415z"/>
   </g>
   <path d="m155.68 129.14h-27.782v12.965h27.782z" fill="#1d232d" stroke="#009244"/>
   <g fill="#e8eaec" stroke="none" aria-label="Score">
    <path d="m138.27 136.87c0.18098 0.18733 0.43499 0.30798 0.7271 0.30798 0.43816 0 0.71122-0.26353 0.71122-0.59374 0-0.30799-0.18733-0.45086-0.42864-0.55564l-0.29846-0.12701c-0.16193-0.0699-0.34608-0.14605-0.34608-0.34608 0-0.18733 0.15558-0.30481 0.39053-0.30481 0.19051 0 0.34609 0.0762 0.47309 0.19686l0.13971-0.17146c-0.14606-0.1524-0.36514-0.25718-0.6128-0.25718-0.37783 0-0.65724 0.23496-0.65724 0.55246 0 0.30481 0.22861 0.45404 0.42229 0.53659l0.29846 0.13018c0.19685 0.0889 0.34926 0.15558 0.34926 0.36831 0 0.20321-0.16193 0.33974-0.43499 0.33974-0.21908 0-0.42546-0.10478-0.57469-0.26036z"/>
    <path d="m139.97 136.37c0 0.51119 0.31433 0.80647 0.72392 0.80647 0.18415 0 0.36196-0.0762 0.50166-0.20003l-0.11747-0.17146c-0.0921 0.0826-0.21591 0.15558-0.36196 0.15558-0.28259 0-0.47627-0.23813-0.47627-0.59056 0-0.35561 0.20321-0.59692 0.48262-0.59692 0.12382 0 0.21908 0.0571 0.31115 0.13653l0.13018-0.16828c-0.10478-0.0984-0.24765-0.18416-0.45086-0.18416-0.39689 0-0.74297 0.29529-0.74297 0.81283z"/>
    <path d="m141.35 136.37c0 0.51119 0.33656 0.80647 0.71439 0.80647 0.37784 0 0.7144-0.29528 0.7144-0.80647 0-0.51754-0.33656-0.81283-0.7144-0.81283-0.37783 0-0.71439 0.29529-0.71439 0.81283zm0.26988 0c0-0.35561 0.18098-0.59692 0.44451-0.59692 0.26671 0 0.44452 0.24131 0.44452 0.59692 0 0.35243-0.17781 0.59056-0.44452 0.59056-0.26353 0-0.44451-0.23813-0.44451-0.59056z"/>
    <path d="m143.19 137.14h0.26035v-0.99063c0.10478-0.26036 0.26036-0.35561 0.39054-0.35561 0.0635 0 0.0984 0.01 0.14923 0.0254l0.0508-0.22861c-0.0508-0.0222-0.0984-0.0317-0.1651-0.0317-0.17463 0-0.33339 0.12383-0.43817 0.31751h-0.01l-0.0222-0.2794h-0.2159z"/>
    <path d="m144.15 136.37c0 0.50484 0.32703 0.80647 0.73979 0.80647 0.20956 0 0.37466-0.073 0.50802-0.15875l-0.0921-0.17146c-0.11431 0.073-0.23813 0.12065-0.38419 0.12065-0.29528 0-0.49531-0.20955-0.51436-0.54294h1.0414c6e-3 -0.0381 0.01-0.0889 0.01-0.14288 0-0.44133-0.22225-0.72392-0.61596-0.72392-0.35244 0-0.69217 0.30799-0.69217 0.81283zm0.254-0.11748c0.0317-0.31116 0.22861-0.48897 0.44452-0.48897 0.2413 0 0.38101 0.17463 0.38101 0.48897z"/>
   </g>
   <path d="m232.41 97.389h-27.782v12.965h27.782z" fill="#1d232d" stroke="#009244"/>
   <g fill="#e8eaec" stroke="none" aria-label="DSP Engine">
    <path d="m211.29 105.39h0.53341c0.62867 0 0.97158-0.38736 0.97158-1.051 0-0.66042-0.34291-1.0319-0.98428-1.0319h-0.52071zm0.2667-0.2159v-1.651h0.23496c0.48896 0 0.73027 0.29211 0.73027 0.816 0 0.52706-0.24131 0.83505-0.73027 0.83505z"/>
    <path d="m213.08 105.12c0.18098 0.18733 0.43499 0.30798 0.72709 0.30798 0.43817 0 0.71123-0.26353 0.71123-0.59374 0-0.30798-0.18734-0.45086-0.42864-0.55564l-0.29846-0.127c-0.16193-0.0699-0.34609-0.14606-0.34609-0.34609 0-0.18733 0.15558-0.3048 0.39054-0.3048 0.19051 0 0.34609 0.0762 0.47309 0.19685l0.1397-0.17145c-0.14605-0.15241-0.36513-0.25719-0.61279-0.25719-0.37783 0-0.65724 0.23496-0.65724 0.55247 0 0.30481 0.2286 0.45404 0.42228 0.53659l0.29846 0.13018c0.19686 0.0889 0.34926 0.15558 0.34926 0.36831 0 0.2032-0.16193 0.33973-0.43498 0.33973-0.21909 0-0.42547-0.10477-0.5747-0.26035z"/>
    <path d="m214.91 105.39h0.26671v-0.82552h0.37466c0.45404 0 0.76837-0.20638 0.76837-0.64454 0-0.45722-0.30798-0.6128-0.76837-0.6128h-0.64137zm0.26671-1.0414v-0.82869h0.33974c0.35878 0 0.53976 0.0984 0.53976 0.40006 0 0.29528-0.17463 0.42863-0.53976 0.42863z"/>
    <path d="m217.36 105.39h1.2319v-0.22543h-0.96523v-0.75567h0.78743v-0.22543h-0.78743v-0.65407h0.93348v-0.22226h-1.2002z"/>
    <path d="m219 105.39h0.26036v-1.1176c0.15558-0.15558 0.26353-0.23813 0.42228-0.23813 0.20321 0 0.29211 0.12383 0.29211 0.41276v0.943h0.26036v-0.97792c0-0.39372-0.14605-0.60327-0.46991-0.60327-0.21273 0-0.37149 0.1143-0.51754 0.26036h-0.01l-0.0222-0.22226h-0.21591z"/>
    <path d="m220.85 105.65c0-0.0889 0.0476-0.18098 0.15875-0.26036 0.0667 0.0191 0.1397 0.0254 0.20003 0.0254h0.26671c0.20003 0 0.31116 0.0476 0.31116 0.19051 0 0.16193-0.19368 0.31433-0.48897 0.31433-0.2794 0-0.44768-0.10477-0.44768-0.26988zm-0.22861 0.0349c0 0.2667 0.26036 0.41593 0.63819 0.41593 0.47944 0 0.78107-0.24765 0.78107-0.53341 0-0.25718-0.18098-0.36831-0.53976-0.36831h-0.29846c-0.20956 0-0.27306-0.0699-0.27306-0.16828 0-0.0857 0.0445-0.13653 0.0984-0.18416 0.0699 0.0349 0.15558 0.054 0.23178 0.054 0.31434 0 0.56517-0.20638 0.56517-0.53659 0-0.13018-0.054-0.24766-0.12701-0.31751h0.31751v-0.20003h-0.53659c-0.0572-0.0222-0.13335-0.0381-0.21908-0.0381-0.31433 0-0.58104 0.21273-0.58104 0.54929 0 0.18415 0.0984 0.33338 0.20003 0.41594v0.0127c-0.0794 0.054-0.16828 0.15558-0.16828 0.28575 0 0.12066 0.0603 0.20321 0.13653 0.25084v0.0127c-0.1397 0.0952-0.22543 0.21908-0.22543 0.34926zm0.63819-0.95888c-0.1778 0-0.32703-0.14288-0.32703-0.36831s0.14605-0.35879 0.32703-0.35879 0.32704 0.13336 0.32704 0.35879-0.14923 0.36831-0.32704 0.36831z"/>
    <path d="m222.47 103.53c0.1016 0 0.18098-0.0698 0.18098-0.16828 0-0.1016-0.0794-0.16828-0.18098-0.16828-0.1016 0-0.18098 0.0667-0.18098 0.16828 0 0.0984 0.0794 0.16828 0.18098 0.16828zm-0.13335 1.8606h0.26035v-1.5431h-0.26035z"/>
    <path d="m223.12 105.39h0.26036v-1.1176c0.15558-0.15558 0.26353-0.23813 0.42229-0.23813 0.2032 0 0.29211 0.12383 0.29211 0.41276v0.943h0.26035v-0.97792c0-0.39372-0.14605-0.60327-0.46991-0.60327-0.21273 0-0.37148 0.1143-0.51754 0.26036h-0.01l-0.0222-0.22226h-0.21591z"/>
    <path d="m224.74 104.62c0 0.50484 0.32703 0.80647 0.73979 0.80647 0.20956 0 0.37467-0.073 0.50802-0.15875l-0.0921-0.17145c-0.1143 0.073-0.23813 0.12065-0.38418 0.12065-0.29529 0-0.49532-0.20956-0.51437-0.54294h1.0414c6e-3 -0.0381 0.01-0.0889 0.01-0.14288 0-0.44134-0.22226-0.72392-0.61597-0.72392-0.35244 0-0.69217 0.30798-0.69217 0.81282zm0.25401-0.11748c0.0318-0.31116 0.2286-0.48896 0.44451-0.48896 0.24131 0 0.38101 0.17463 0.38101 0.48896z"/>
   </g>
   <path d="m232.41 113.26h-27.782v12.965h27.782z" fill="#1d232d" stroke="#009244"/>
   <g fill="#e8eaec" stroke="none" aria-label="Synthesizer">
    <path d="m211.02 120.99c0.18098 0.18733 0.43499 0.30799 0.7271 0.30799 0.43816 0 0.71122-0.26354 0.71122-0.59374 0-0.30799-0.18733-0.45087-0.42864-0.55565l-0.29846-0.127c-0.16193-0.0698-0.34608-0.14605-0.34608-0.34608 0-0.18733 0.15558-0.30481 0.39053-0.30481 0.19051 0 0.34609 0.0762 0.47309 0.19685l0.13971-0.17145c-0.14606-0.15241-0.36514-0.25718-0.6128-0.25718-0.37783 0-0.65724 0.23495-0.65724 0.55246 0 0.30481 0.22861 0.45404 0.42229 0.53659l0.29846 0.13018c0.19685 0.0889 0.34926 0.15558 0.34926 0.36831 0 0.20321-0.16193 0.33974-0.43499 0.33974-0.21908 0-0.42546-0.10478-0.57469-0.26036z"/>
    <path d="m212.73 121.69-0.0508 0.20638c0.0508 0.0191 0.11113 0.0318 0.18098 0.0318 0.31116 0 0.46991-0.23178 0.57787-0.53659l0.58104-1.6701h-0.25401l-0.27623 0.8541c-0.0413 0.13653-0.0857 0.29529-0.13018 0.43499h-0.0127c-0.0476-0.14288-0.1016-0.30163-0.14923-0.43499l-0.31433-0.8541h-0.26989l0.61915 1.5463-0.0349 0.1143c-0.0635 0.19051-0.17463 0.33021-0.34926 0.33021-0.0381 0-0.0857-0.0127-0.11748-0.0222z"/>
    <path d="m214.32 121.26h0.26036v-1.1176c0.15558-0.15557 0.26353-0.23813 0.42229-0.23813 0.2032 0 0.29211 0.12383 0.29211 0.41276v0.94301h0.26035v-0.97793c0-0.39371-0.14605-0.60327-0.46991-0.60327-0.21273 0-0.37149 0.1143-0.51754 0.26036h-0.01l-0.0222-0.22226h-0.21591z"/>
    <path d="m216.1 120.79c0 0.30481 0.11113 0.51437 0.44134 0.51437 0.0953 0 0.20003-0.0286 0.28576-0.0571l-0.0508-0.19686c-0.0508 0.019-0.12066 0.0413-0.17463 0.0413-0.17781 0-0.23814-0.10796-0.23814-0.29846v-0.85728h0.41594v-0.21273h-0.41594v-0.43181h-0.21908l-0.0318 0.43181-0.2413 0.0159v0.19685h0.2286z"/>
    <path d="m217.13 121.26h0.26036v-1.1176c0.15558-0.15557 0.26353-0.23813 0.42229-0.23813 0.2032 0 0.29211 0.12383 0.29211 0.41276v0.94301h0.26035v-0.97793c0-0.39371-0.14605-0.60327-0.46991-0.60327-0.21273 0-0.36831 0.1143-0.51436 0.25401l0.01-0.31751v-0.61597h-0.26036z"/>
    <path d="m218.75 120.49c0 0.50484 0.32703 0.80648 0.73979 0.80648 0.20956 0 0.37466-0.073 0.50802-0.15876l-0.0921-0.17145c-0.1143 0.073-0.23813 0.12065-0.38419 0.12065-0.29528 0-0.49531-0.20955-0.51436-0.54294h1.0414c6e-3 -0.0381 0.01-0.0889 0.01-0.14288 0-0.44134-0.22225-0.72392-0.61596-0.72392-0.35244 0-0.69217 0.30799-0.69217 0.81282zm0.254-0.11747c0.0317-0.31116 0.22861-0.48897 0.44452-0.48897 0.2413 0 0.38101 0.17463 0.38101 0.48897z"/>
    <path d="m220.26 121.09c0.14605 0.12065 0.35561 0.21273 0.57469 0.21273 0.36513 0 0.56516-0.20956 0.56516-0.46039 0-0.29211-0.24765-0.38419-0.46991-0.46674-0.17463-0.0667-0.34291-0.12383-0.34291-0.26671 0-0.11747 0.0889-0.22225 0.28258-0.22225 0.13653 0 0.24766 0.0571 0.35244 0.13653l0.12383-0.16511c-0.11748-0.0952-0.28576-0.17463-0.47944-0.17463-0.33339 0-0.53024 0.19051-0.53024 0.43816 0 0.26036 0.24131 0.36514 0.46039 0.44452 0.16828 0.0635 0.35243 0.13335 0.35243 0.2921 0 0.13336-0.1016 0.24131-0.30481 0.24131-0.18415 0-0.32068-0.0762-0.45403-0.18415z"/>
    <path d="m221.9 119.4c0.10161 0 0.18098-0.0699 0.18098-0.16828 0-0.1016-0.0794-0.16828-0.18098-0.16828-0.1016 0-0.18098 0.0667-0.18098 0.16828 0 0.0984 0.0794 0.16828 0.18098 0.16828zm-0.13335 1.8606h0.26036v-1.5431h-0.26036z"/>
    <path d="m222.39 121.26h1.1684v-0.21273h-0.83822l0.81282-1.1907v-0.13971h-1.0541v0.21273h0.72392l-0.81282 1.1907z"/>
    <path d="m223.76 120.49c0 0.50484 0.32704 0.80648 0.7398 0.80648 0.20956 0 0.37466-0.073 0.50801-0.15876l-0.0921-0.17145c-0.11431 0.073-0.23813 0.12065-0.38419 0.12065-0.29528 0-0.49531-0.20955-0.51436-0.54294h1.0414c6e-3 -0.0381 0.01-0.0889 0.01-0.14288 0-0.44134-0.22225-0.72392-0.61597-0.72392-0.35243 0-0.69217 0.30799-0.69217 0.81282zm0.25401-0.11747c0.0318-0.31116 0.22861-0.48897 0.44451-0.48897 0.24131 0 0.38102 0.17463 0.38102 0.48897z"/>
    <path d="m225.45 121.26h0.26036v-0.99063c0.10477-0.26036 0.26035-0.35561 0.39053-0.35561 0.0635 0 0.0984 0.01 0.14923 0.0254l0.0508-0.22861c-0.0508-0.0222-0.0984-0.0318-0.1651-0.0318-0.17463 0-0.33339 0.12383-0.43816 0.31751h-0.01l-0.0222-0.27941h-0.21591z"/>
   </g>
   <path d="m232.41 129.14h-27.782v12.965h27.782z" fill="#1d232d" stroke="#009244"/>
   <g fill="#e8eaec" stroke="none" aria-label="Music Player">
    <path d="m210.56 137.14h0.24448v-1.1462c0-0.18415-0.019-0.43181-0.0317-0.61597h0.0127l0.1651 0.46357 0.40007 1.089h0.1524l0.40006-1.089 0.16511-0.46357h0.0127c-0.0127 0.18416-0.0349 0.43182-0.0349 0.61597v1.1462h0.25083v-2.0829h-0.31116l-0.40006 1.1176-0.14605 0.42546h-0.0127l-0.14923-0.42546-0.40324-1.1176h-0.31433z"/>
    <path d="m212.82 136.57c0 0.39371 0.14605 0.60327 0.47308 0.60327 0.21273 0 0.36514-0.11113 0.50802-0.27941h0.01l0.0222 0.24131h0.21591v-1.5431h-0.26036v1.0954c-0.14606 0.18098-0.25718 0.26036-0.41594 0.26036-0.2032 0-0.28893-0.12383-0.28893-0.41276v-0.943h-0.26353z"/>
    <path d="m214.4 136.96c0.14606 0.12065 0.35561 0.21273 0.57469 0.21273 0.36514 0 0.56517-0.20956 0.56517-0.46039 0-0.29211-0.24766-0.38418-0.46991-0.46674-0.17463-0.0667-0.34291-0.12382-0.34291-0.2667 0-0.11748 0.0889-0.22226 0.28258-0.22226 0.13653 0 0.24766 0.0571 0.35243 0.13653l0.12383-0.16511c-0.11748-0.0953-0.28576-0.17463-0.47944-0.17463-0.33338 0-0.53024 0.19051-0.53024 0.43817 0 0.26035 0.24131 0.36513 0.46039 0.44451 0.16828 0.0635 0.35244 0.13335 0.35244 0.29211 0 0.13335-0.10161 0.2413-0.30481 0.2413-0.18416 0-0.32069-0.0762-0.45404-0.18415z"/>
    <path d="m216.04 135.28c0.1016 0 0.18098-0.0699 0.18098-0.16828 0-0.10161-0.0794-0.16828-0.18098-0.16828-0.1016 0-0.18098 0.0667-0.18098 0.16828 0 0.0984 0.0794 0.16828 0.18098 0.16828zm-0.13335 1.8606h0.26035v-1.5431h-0.26035z"/>
    <path d="m216.57 136.37c0 0.51119 0.31434 0.80647 0.72392 0.80647 0.18416 0 0.36196-0.0762 0.50167-0.20003l-0.11748-0.17146c-0.0921 0.0826-0.21591 0.15558-0.36196 0.15558-0.28258 0-0.47626-0.23813-0.47626-0.59056 0-0.35561 0.2032-0.59692 0.48261-0.59692 0.12383 0 0.21908 0.0571 0.31116 0.13653l0.13018-0.16828c-0.10478-0.0984-0.24766-0.18416-0.45087-0.18416-0.39688 0-0.74297 0.29529-0.74297 0.81283z"/>
    <path d="m218.78 137.14h0.26671v-0.82552h0.37466c0.45404 0 0.76837-0.20639 0.76837-0.64455 0-0.45721-0.30798-0.61279-0.76837-0.61279h-0.64137zm0.26671-1.0414v-0.8287h0.33974c0.35878 0 0.53976 0.0984 0.53976 0.40006 0 0.29529-0.17463 0.42864-0.53976 0.42864z"/>
    <path d="m220.58 136.83c0 0.22543 0.0794 0.34926 0.27624 0.34926 0.0699 0 0.1143-0.01 0.14922-0.0254l-0.0349-0.19686c-0.0286 6e-3 -0.0413 6e-3 -0.0572 6e-3 -0.0381 0-0.073-0.0318-0.073-0.1143v-1.9686h-0.26036z"/>
    <path d="m221.31 136.74c0 0.27623 0.19368 0.43816 0.45403 0.43816 0.19051 0 0.36196-0.1016 0.51119-0.22226h6e-3l0.0222 0.18416h0.21591v-0.94618c0-0.38418-0.15876-0.63502-0.53659-0.63502-0.24766 0-0.46357 0.10796-0.60645 0.20003l0.10478 0.18098c0.12065-0.0825 0.27941-0.1651 0.46039-0.1651 0.25083 0 0.31751 0.19051 0.31751 0.38736-0.65725 0.073-0.94935 0.24131-0.94935 0.57787zm0.25718-0.019c0-0.19686 0.17463-0.32386 0.69217-0.38736v0.42863c-0.14923 0.13336-0.27306 0.20638-0.42229 0.20638-0.1524 0-0.26988-0.073-0.26988-0.24765z"/>
    <path d="m222.91 137.56-0.0508 0.20638c0.0508 0.019 0.11113 0.0317 0.18098 0.0317 0.31116 0 0.46992-0.23178 0.57787-0.53659l0.58104-1.6701h-0.25401l-0.27623 0.85409c-0.0413 0.13653-0.0857 0.29529-0.13018 0.43499h-0.0127c-0.0476-0.14288-0.1016-0.30163-0.14923-0.43499l-0.31433-0.85409h-0.26988l0.61914 1.5463-0.0349 0.11431c-0.0635 0.1905-0.17463 0.33021-0.34926 0.33021-0.0381 0-0.0857-0.0127-0.11748-0.0222z"/>
    <path d="m224.37 136.37c0 0.50484 0.32703 0.80647 0.73979 0.80647 0.20956 0 0.37466-0.073 0.50802-0.15875l-0.0921-0.17146c-0.1143 0.073-0.23813 0.12065-0.38418 0.12065-0.29529 0-0.49532-0.20955-0.51437-0.54294h1.0414c6e-3 -0.0381 0.01-0.0889 0.01-0.14288 0-0.44133-0.22226-0.72392-0.61597-0.72392-0.35244 0-0.69217 0.30799-0.69217 0.81283zm0.25401-0.11748c0.0317-0.31116 0.2286-0.48897 0.44451-0.48897 0.2413 0 0.38101 0.17463 0.38101 0.48897z"/>
    <path d="m226.06 137.14h0.26036v-0.99063c0.10478-0.26036 0.26036-0.35561 0.39054-0.35561 0.0635 0 0.0984 0.01 0.14923 0.0254l0.0508-0.22861c-0.0508-0.0222-0.0984-0.0317-0.16511-0.0317-0.17463 0-0.33338 0.12383-0.43816 0.31751h-0.01l-0.0222-0.2794h-0.21591z"/>
   </g>
  </g>
  <g stroke-width=".26459">
   <path d="m218.68 160.81v-11.796" fill="none" stroke="#47d58a" stroke-dashoffset="1.2" stroke-linecap="square"/>
   <path d="m232.41 160.89h-27.782v12.965h27.782z" fill="#1d232d" stroke="#009244" stroke-linecap="round"/>
   <g fill="#e8eaec" stroke="none" stroke-linecap="round" aria-label="Game State">
    <path d="m211.08 167.85c0 0.67947 0.39054 1.0795 0.93665 1.0795 0.27941 0 0.51119-0.10795 0.64772-0.24131v-0.87632h-0.68264v0.21908h0.44134v0.54294c-0.0826 0.0762-0.22861 0.12383-0.37784 0.12383-0.44451 0-0.69217-0.33021-0.69217-0.8541 0-0.51754 0.26988-0.8414 0.69217-0.8414 0.20638 0 0.33656 0.0826 0.44134 0.19368l0.1524-0.16828c-0.12383-0.127-0.31433-0.25718-0.59692-0.25718-0.55881 0-0.96205 0.40959-0.96205 1.0795z"/>
    <path d="m213.04 168.49c0 0.27623 0.19368 0.43816 0.45404 0.43816 0.1905 0 0.36196-0.1016 0.51119-0.22226h6e-3l0.0222 0.18416h0.21591v-0.94618c0-0.38418-0.15876-0.63502-0.53659-0.63502-0.24766 0-0.46356 0.10796-0.60644 0.20003l0.10477 0.18099c0.12066-0.0826 0.27941-0.16511 0.46039-0.16511 0.25084 0 0.31751 0.19051 0.31751 0.38736-0.65724 0.073-0.94935 0.24131-0.94935 0.57787zm0.25718-0.019c0-0.19686 0.17463-0.32386 0.69217-0.38736v0.42863c-0.14923 0.13336-0.27306 0.20638-0.42229 0.20638-0.1524 0-0.26988-0.073-0.26988-0.24765z"/>
    <path d="m214.75 168.89h0.26035v-1.1176c0.14288-0.15876 0.27306-0.23813 0.38736-0.23813 0.19686 0 0.28894 0.12382 0.28894 0.41276v0.943h0.26035v-1.1176c0.14288-0.15876 0.26671-0.23813 0.38737-0.23813 0.19368 0 0.28575 0.12382 0.28575 0.41276v0.943h0.26036v-0.97793c0-0.39371-0.1524-0.60327-0.46991-0.60327-0.18733 0-0.34609 0.12066-0.50802 0.29529-0.0635-0.18416-0.1905-0.29529-0.42546-0.29529-0.18415 0-0.34608 0.11431-0.47944 0.26036h-0.01l-0.0222-0.22225h-0.2159z"/>
    <path d="m217.26 168.12c0 0.50484 0.32704 0.80647 0.7398 0.80647 0.20955 0 0.37466-0.073 0.50801-0.15875l-0.0921-0.17146c-0.11431 0.073-0.23814 0.12065-0.38419 0.12065-0.29528 0-0.49531-0.20955-0.51436-0.54294h1.0414c6e-3 -0.0381 0.01-0.0889 0.01-0.14288 0-0.44133-0.22226-0.72392-0.61597-0.72392-0.35243 0-0.69217 0.30799-0.69217 0.81283zm0.25401-0.11748c0.0318-0.31116 0.22861-0.48896 0.44451-0.48896 0.24131 0 0.38101 0.17463 0.38101 0.48896z"/>
    <path d="m219.46 168.62c0.18098 0.18733 0.43499 0.30798 0.7271 0.30798 0.43816 0 0.71122-0.26353 0.71122-0.59374 0-0.30799-0.18733-0.45086-0.42864-0.55564l-0.29846-0.12701c-0.16193-0.0699-0.34608-0.14605-0.34608-0.34608 0-0.18733 0.15558-0.30481 0.39054-0.30481 0.1905 0 0.34608 0.0762 0.47308 0.19686l0.13971-0.17146c-0.14606-0.1524-0.36514-0.25718-0.61279-0.25718-0.37784 0-0.65725 0.23496-0.65725 0.55246 0 0.30481 0.22861 0.45404 0.42229 0.53659l0.29846 0.13018c0.19685 0.0889 0.34926 0.15558 0.34926 0.36831 0 0.20321-0.16193 0.33974-0.43499 0.33974-0.21908 0-0.42546-0.10478-0.57469-0.26036z"/>
    <path d="m221.31 168.41c0 0.3048 0.11113 0.51436 0.44134 0.51436 0.0952 0 0.20003-0.0286 0.28576-0.0572l-0.0508-0.19686c-0.0508 0.0191-0.12066 0.0413-0.17463 0.0413-0.17781 0-0.23813-0.10795-0.23813-0.29846v-0.85727h0.41593v-0.21273h-0.41593v-0.43182h-0.21908l-0.0318 0.43182-0.2413 0.0159v0.19686h0.2286z"/>
    <path d="m222.21 168.49c0 0.27623 0.19368 0.43816 0.45404 0.43816 0.1905 0 0.36196-0.1016 0.51119-0.22226h6e-3l0.0222 0.18416h0.21591v-0.94618c0-0.38418-0.15875-0.63502-0.53659-0.63502-0.24766 0-0.46356 0.10796-0.60644 0.20003l0.10478 0.18099c0.12065-0.0826 0.2794-0.16511 0.46038-0.16511 0.25084 0 0.31751 0.19051 0.31751 0.38736-0.65724 0.073-0.94935 0.24131-0.94935 0.57787zm0.25718-0.019c0-0.19686 0.17463-0.32386 0.69217-0.38736v0.42863c-0.14923 0.13336-0.27305 0.20638-0.42228 0.20638-0.15241 0-0.26989-0.073-0.26989-0.24765z"/>
    <path d="m223.96 168.41c0 0.3048 0.11113 0.51436 0.44134 0.51436 0.0952 0 0.20003-0.0286 0.28575-0.0572l-0.0508-0.19686c-0.0508 0.0191-0.12065 0.0413-0.17463 0.0413-0.1778 0-0.23813-0.10795-0.23813-0.29846v-0.85727h0.41594v-0.21273h-0.41594v-0.43182h-0.21908l-0.0317 0.43182-0.24131 0.0159v0.19686h0.22861z"/>
    <path d="m224.84 168.12c0 0.50484 0.32703 0.80647 0.7398 0.80647 0.20955 0 0.37466-0.073 0.50801-0.15875l-0.0921-0.17146c-0.1143 0.073-0.23813 0.12065-0.38418 0.12065-0.29529 0-0.49532-0.20955-0.51437-0.54294h1.0414c6e-3 -0.0381 0.01-0.0889 0.01-0.14288 0-0.44133-0.22226-0.72392-0.61597-0.72392-0.35244 0-0.69217 0.30799-0.69217 0.81283zm0.25401-0.11748c0.0317-0.31116 0.2286-0.48896 0.44451-0.48896 0.24131 0 0.38101 0.17463 0.38101 0.48896z"/>
   </g>
   <path d="m163.72 111.63h31.905" fill="none" stroke="#47d58a" stroke-dashoffset="1.2" stroke-linecap="square"/>
  </g>
  <g fill="#47d58a" stroke="none">
   <g transform="matrix(.0031775 0 0 .0032319 194.89 110.76)">
    <g fill="#47d58a">
     <path d="m486.41 221.41-364.07-208.5c-52.938-30.318-95.852-5.44-95.852 55.563v415.65c0 61.004 42.914 85.882 95.852 55.563l364.07-208.49c52.938-30.317 52.938-79.473 0-109.79z" fill="#47d58a"/>
    </g>
   </g>
   <g transform="matrix(.0031775 0 0 .0032319 319.24 111.29)">
    <g fill="#47d58a">
     <path d="m486.41 221.41-364.07-208.5c-52.938-30.318-95.852-5.44-95.852 55.563v415.65c0 61.004 42.914 85.882 95.852 55.563l364.07-208.49c52.938-30.317 52.938-79.473 0-109.79z" fill="#47d58a"/>
    </g>
   </g>
   <g transform="matrix(.0031775 0 0 .0032319 270.29 90.12)">
    <g fill="#47d58a">
     <path d="m486.41 221.41-364.07-208.5c-52.938-30.318-95.852-5.44-95.852 55.563v415.65c0 61.004 42.914 85.882 95.852 55.563l364.07-208.49c52.938-30.317 52.938-79.473 0-109.79z" fill="#47d58a"/>
    </g>
   </g>
   <g transform="matrix(.0031775 0 0 .0032319 270.29 95.412)">
    <g fill="#47d58a">
     <path d="m486.41 221.41-364.07-208.5c-52.938-30.318-95.852-5.44-95.852 55.563v415.65c0 61.004 42.914 85.882 95.852 55.563l364.07-208.49c52.938-30.317 52.938-79.473 0-109.79z" fill="#47d58a"/>
    </g>
   </g>
   <g transform="matrix(.0031775 0 0 .0032319 270.29 100.7)">
    <g fill="#47d58a">
     <path d="m486.41 221.41-364.07-208.5c-52.938-30.318-95.852-5.44-95.852 55.563v415.65c0 61.004 42.914 85.882 95.852 55.563l364.07-208.49c52.938-30.317 52.938-79.473 0-109.79z" fill="#47d58a"/>
    </g>
   </g>
   <g transform="matrix(.0031775 0 0 .0032319 270.29 106)">
    <g fill="#47d58a">
     <path d="m486.41 221.41-364.07-208.5c-52.938-30.318-95.852-5.44-95.852 55.563v415.65c0 61.004 42.914 85.882 95.852 55.563l364.07-208.49c52.938-30.317 52.938-79.473 0-109.79z" fill="#47d58a"/>
    </g>
   </g>
   <g transform="matrix(.0031775 0 0 .0032319 270.29 111.29)">
    <g fill="#47d58a">
     <path d="m486.41 221.41-364.07-208.5c-52.938-30.318-95.852-5.44-95.852 55.563v415.65c0 61.004 42.914 85.882 95.852 55.563l364.07-208.49c52.938-30.317 52.938-79.473 0-109.79z" fill="#47d58a"/>
    </g>
   </g>
   <g transform="matrix(.0031775 0 0 .0032319 270.29 116.58)">
    <g fill="#47d58a">
     <path d="m486.41 221.41-364.07-208.5c-52.938-30.318-95.852-5.44-95.852 55.563v415.65c0 61.004 42.914 85.882 95.852 55.563l364.07-208.49c52.938-30.317 52.938-79.473 0-109.79z" fill="#47d58a"/>
    </g>
   </g>
   <g transform="matrix(.0031775 0 0 .0032319 270.29 121.87)">
    <g fill="#47d58a">
     <path d="m486.41 221.41-364.07-208.5c-52.938-30.318-95.852-5.44-95.852 55.563v415.65c0 61.004 42.914 85.882 95.852 55.563l364.07-208.49c52.938-30.317 52.938-79.473 0-109.79z" fill="#47d58a"/>
    </g>
   </g>
   <g transform="matrix(.0031775 0 0 .0032319 270.29 127.16)">
    <g fill="#47d58a">
     <path d="m486.41 221.41-364.07-208.5c-52.938-30.318-95.852-5.44-95.852 55.563v415.65c0 61.004 42.914 85.882 95.852 55.563l364.07-208.49c52.938-30.317 52.938-79.473 0-109.79z" fill="#47d58a"/>
    </g>
   </g>
   <g transform="matrix(.0031775 0 0 .0032319 270.29 132.45)">
    <g fill="#47d58a">
     <path d="m486.41 221.41-364.07-208.5c-52.938-30.318-95.852-5.44-95.852 55.563v415.65c0 61.004 42.914 85.882 95.852 55.563l364.07-208.49c52.938-30.317 52.938-79.473 0-109.79z" fill="#47d58a"/>
    </g>
   </g>
  </g>
  <g fill="none" stroke="#47d58a" stroke-dashoffset="1.2" stroke-linecap="square" stroke-width=".26459">
   <path d="m257.65 106.86h13.119"/>
   <path d="m257.65 101.57h13.119"/>
   <path d="m257.65 96.279h13.119"/>
   <path d="m257.65 90.987h13.119"/>
   <path d="m257.65 117.45h13.119"/>
   <path d="m257.65 122.74h13.119"/>
   <path d="m257.65 128.03h13.119"/>
   <path d="m257.65 133.32h13.119"/>
  </g>
  <g>
   <path d="m257.65 133.32v-42.335" fill="#e9e56f" stroke="#47d58a" stroke-linecap="square" stroke-width=".26459"/>
   <g transform="matrix(0 -.0031775 .0032319 0 217.81 149.76)" fill="#47d58a" stroke="none">
    <g fill="#47d58a">
     <path d="m486.41 221.41-364.07-208.5c-52.938-30.318-95.852-5.44-95.852 55.563v415.65c0 61.004 42.914 85.882 95.852 55.563l364.07-208.49c52.938-30.317 52.938-79.473 0-109.79z" fill="#47d58a"/>
    </g>
   </g>
   <g fill="#e8eaec" stroke="none" stroke-linecap="round" stroke-width=".26459" aria-label="audio out">
    <path d="m310.02 108.69c0 0.27623 0.19368 0.43816 0.45404 0.43816 0.1905 0 0.36196-0.1016 0.51119-0.22225h6e-3l0.0222 0.18415h0.21591v-0.94617c0-0.38419-0.15876-0.63502-0.53659-0.63502-0.24766 0-0.46356 0.10795-0.60644 0.20003l0.10477 0.18098c0.12066-0.0825 0.27941-0.16511 0.46039-0.16511 0.25083 0 0.31751 0.19051 0.31751 0.38737-0.65724 0.073-0.94935 0.2413-0.94935 0.57786zm0.25718-0.019c0-0.19685 0.17463-0.32386 0.69217-0.38736v0.42864c-0.14923 0.13335-0.27306 0.20638-0.42229 0.20638-0.1524 0-0.26988-0.073-0.26988-0.24766z"/>
    <path d="m311.7 108.52c0 0.39371 0.14605 0.60326 0.47309 0.60326 0.21273 0 0.36513-0.11112 0.50801-0.2794h0.01l0.0222 0.2413h0.21591v-1.5431h-0.26036v1.0954c-0.14605 0.18098-0.25718 0.26035-0.41594 0.26035-0.2032 0-0.28893-0.12383-0.28893-0.41276v-0.943h-0.26353z"/>
    <path d="m313.34 108.32c0 0.51437 0.25083 0.80647 0.6382 0.80647 0.18098 0 0.34608-0.1016 0.46673-0.21908h0.01l0.0222 0.18098h0.21591v-2.2607h-0.26353v0.59374l0.0127 0.26353c-0.13653-0.11112-0.25401-0.1778-0.43181-0.1778-0.35244 0-0.66995 0.31116-0.66995 0.81282zm0.26988-3e-3c0-0.35244 0.19686-0.59057 0.44452-0.59057 0.127 0 0.24448 0.0444 0.37466 0.16193v0.80647c-0.12701 0.14288-0.25083 0.21273-0.39371 0.21273-0.26989 0-0.42547-0.22225-0.42547-0.59056z"/>
    <path d="m315.34 107.23c0.1016 0 0.18098-0.0699 0.18098-0.16828 0-0.1016-0.0794-0.16828-0.18098-0.16828-0.10161 0-0.18098 0.0667-0.18098 0.16828 0 0.0984 0.0794 0.16828 0.18098 0.16828zm-0.13336 1.8606h0.26036v-1.5431h-0.26036z"/>
    <path d="m315.88 108.32c0 0.51119 0.33656 0.80647 0.71439 0.80647 0.37784 0 0.7144-0.29528 0.7144-0.80647 0-0.51754-0.33656-0.81282-0.7144-0.81282-0.37783 0-0.71439 0.29528-0.71439 0.81282zm0.26988 0c0-0.35561 0.18098-0.59692 0.44451-0.59692 0.26671 0 0.44452 0.24131 0.44452 0.59692 0 0.35244-0.17781 0.59057-0.44452 0.59057-0.26353 0-0.44451-0.23813-0.44451-0.59057z"/>
    <path d="m318.24 108.32c0 0.51119 0.33656 0.80647 0.7144 0.80647 0.37783 0 0.71439-0.29528 0.71439-0.80647 0-0.51754-0.33656-0.81282-0.71439-0.81282-0.37784 0-0.7144 0.29528-0.7144 0.81282zm0.26989 0c0-0.35561 0.18098-0.59692 0.44451-0.59692 0.26671 0 0.44451 0.24131 0.44451 0.59692 0 0.35244-0.1778 0.59057-0.44451 0.59057-0.26353 0-0.44451-0.23813-0.44451-0.59057z"/>
    <path d="m320.06 108.52c0 0.39371 0.14606 0.60326 0.47309 0.60326 0.21273 0 0.36514-0.11112 0.50802-0.2794h0.01l0.0222 0.2413h0.2159v-1.5431h-0.26035v1.0954c-0.14606 0.18098-0.25719 0.26035-0.41594 0.26035-0.20321 0-0.28893-0.12383-0.28893-0.41276v-0.943h-0.26354z"/>
    <path d="m321.85 108.61c0 0.30481 0.11113 0.51436 0.44134 0.51436 0.0953 0 0.20003-0.0286 0.28575-0.0572l-0.0508-0.19685c-0.0508 0.019-0.12065 0.0413-0.17463 0.0413-0.1778 0-0.23813-0.10795-0.23813-0.29846v-0.85727h0.41594v-0.21273h-0.41594v-0.43181h-0.21908l-0.0318 0.43181-0.24131 0.0159v0.19686h0.22861z"/>
   </g>
  </g>
 </g>
</svg>
