<svg width="40.186mm" height="37.437mm" version="1.1" viewBox="0 0 40.186 37.437" xmlns="http://www.w3.org/2000/svg">
 <g transform="translate(-19.973 -120.29)">
  <rect x="22.039" y="124.67" width="16.03" height="19.699" fill="#3b390d" fill-opacity=".38431" stroke="#e9e56f" stroke-width=".13282"/>
  <g>
   <rect x="28.22" y="132.1" width="5.9267" height=".56444" fill="#d54747"/>
   <rect x="33.911" y="130.34" width="4.2051" height="4.1769" fill="#bcbcbc"/>
   <rect x="38.38" y="130.75" width="5.0094" height=".56444" fill="#d54747"/>
   <rect transform="scale(-1,1)" x="-39.226" y="130.34" width="1.1289" height="1.3547" fill="#666"/>
   <rect x="38.38" y="133.57" width="5.0094" height=".56444" fill="#d54747"/>
   <rect transform="scale(-1,1)" x="-39.226" y="133.16" width="1.1289" height="1.3547" fill="#666"/>
   <g fill="#e9e56f" stroke-width=".28222px" aria-label="script API">
    <path d="m33.386 128.49c-0.07408-0.0811-0.18168-0.12523-0.30162-0.12523-0.18697 0-0.30868 0.10406-0.30868 0.22401 0 0.14111 0.1517 0.19226 0.19579 0.20814 0.06879 0.0247 0.15699 0.0459 0.21696 0.0741 0.06703 0.0318 0.07937 0.0741 0.07937 0.10231 0 0.0758-0.09172 0.127-0.20638 0.127-0.13758 0-0.22578-0.0829-0.25224-0.11113-0.0053-7e-3 -0.0053-0.0124-0.0053-0.0194 0-2e-3 0.0018-0.0123-0.0071-0.0159l-0.07408 0.12524c0.09525 0.0882 0.21872 0.12876 0.34043 0.12876 0.22049 0 0.33514-0.13052 0.33514-0.25223 0-0.0547-0.02293-0.12877-0.11818-0.18168-0.08996-0.0512-0.22049-0.0688-0.29633-0.10584-0.06526-0.0318-0.07938-0.0705-0.07938-0.0988 0-0.0635 0.07938-0.10936 0.16933-0.10936 0.11642 0 0.19403 0.0705 0.22401 0.11112 0.0053 5e-3 0.0035 0.0106 0.0035 0.0159 0 0.0106 0.0071 0.0141 0.01058 0.0141z"/>
    <path d="m34.31 128.51c-0.0635-0.0935-0.1711-0.14993-0.30162-0.14993-0.23636 0-0.40393 0.17815-0.40393 0.4198 0 0.24342 0.16757 0.42334 0.39688 0.42334 0.11112 0 0.22049-0.0459 0.29633-0.12877l-0.07232-0.0847c-0.05468 0.0617-0.13406 0.097-0.21343 0.097-0.15699 0-0.27693-0.13053-0.27693-0.31926 0-0.18345 0.11818-0.2981 0.26635-0.2981 0.13758 0 0.20285 0.0952 0.20814 0.10583 0.0071 0.0123-0.0035 0.03 0.01058 0.0406z"/>
    <path d="m34.563 128.38v0.8061h0.127v-0.39159c0-0.0494 0.0018-0.1023 0.05644-0.18873 0.07408-0.11642 0.16933-0.13582 0.22754-0.13582 0.06703 0 0.10936 0.0317 0.13229 0.06 0.01058 0.0141 0.01587 0.0282 0.02999 0.0406l0.05997-0.12171c-0.05115-0.0529-0.12524-0.0882-0.2152-0.0882-0.11818 0-0.23812 0.06-0.29104 0.17462l0.0053-0.15522z"/>
    <path d="m35.457 128.38v0.10407h0.19403v0.60149h-0.20461v0.10054h0.52211v-0.10054h-0.18874v-0.70556zm0.26106-0.34925c-0.05115 0-0.09172 0.0406-0.09172 0.09s0.04057 0.09 0.09172 0.09 0.09172-0.0406 0.09172-0.09-0.04057-0.09-0.09172-0.09z"/>
    <path d="m36.256 128.38 0.0018 1.0989h0.12876v-0.4004c0.05468 0.0794 0.14464 0.12876 0.24165 0.12876 0.1658 0 0.33867-0.13935 0.33867-0.43391 0-0.28399-0.16757-0.41099-0.32632-0.41099-0.10407 0-0.20108 0.0529-0.25576 0.14111v-0.12347zm0.3369 0.09c0.07055 0 0.24165 0.037 0.24165 0.32984 0 0.254-0.16581 0.29457-0.24165 0.29457-0.07585 0-0.15346-0.0388-0.18521-0.11112-0.02293-0.0547-0.02293-0.12171-0.02293-0.23813 0-0.067 0.0035-0.11641 0.02117-0.15875 0.03175-0.0723 0.10583-0.11641 0.18697-0.11641z"/>
    <path d="m37.366 128.16-0.01588 0.21696h-0.19226l-0.0018 0.10407h0.18874c-0.01058 0.13758-0.01588 0.27516-0.01588 0.41098 0 0.0723 0 0.15346 0.04763 0.22049 0.0388 0.0529 0.10054 0.0847 0.18344 0.0847 0.09525 0 0.18874-0.0406 0.25753-0.09l-0.03881-0.10054c-0.06879 0.0511-0.13229 0.0741-0.18168 0.0741-0.05997 0-0.12171-0.0335-0.13582-0.13053 0-7e-3 -0.0053-0.037-0.0053-0.15522 0-0.10407 0.0053-0.2099 0.01588-0.31397h0.26458v-0.10584h-0.26282s0.01235-0.14463 0.02117-0.1905c0.0018-0.0176 0.01587-0.0282 0.0088-0.0476z"/>
    <path d="m38.823 129.19h0.12171l0.1076-0.3228h0.34749l0.12171 0.32103h0.12876l-0.4251-1.1183h-0.01411zm0.55033-0.41805h-0.2981l0.14288-0.41804z"/>
    <path d="m39.782 128.09v1.0989h0.12876v-0.48507h0.21519c0.06879 0 0.13406-2e-3 0.20108-0.0353 0.1023-0.0512 0.15522-0.15698 0.15522-0.26811 0-0.11112-0.05292-0.21872-0.15699-0.27164-0.06879-0.037-0.13758-0.0388-0.20814-0.0388zm0.12876 0.11642h0.20638c0.04586 0 0.08996 2e-3 0.13582 0.0229 0.06703 0.0353 0.10407 0.10583 0.10407 0.17638 0 0.0706-0.03528 0.13582-0.09878 0.16757-0.04233 0.0212-0.08467 0.0229-0.127 0.0229h-0.22225z"/>
    <path d="m40.717 128.09v0.10407h0.20285v0.89429h-0.2152v0.10231h0.56797v-0.10055h-0.2293v-0.89605h0.21696v-0.10407z"/>
   </g>
   <rect transform="rotate(90)" x="136.02" y="-50.515" width="5.5563" height=".56444" fill="#d54747"/>
  </g>
  <rect x="43.438" y="128.83" width="12.926" height="7.141" fill="#0d1f3b" fill-opacity=".38431" stroke="#6fa0e9" stroke-width=".13282"/>
  <g fill="#e9e56f" stroke-width=".28222px" aria-label="Script  Engine">
   <path d="m47.984 130.72c-0.07408-0.09-0.18344-0.13759-0.30339-0.13759-0.19932 0-0.33514 0.13053-0.33514 0.28222 0 0.0635 0.02469 0.14641 0.11642 0.21343 0.1023 0.0759 0.26106 0.11289 0.34396 0.16581 0.07232 0.0441 0.09172 0.10231 0.09172 0.1517 0 0.0953-0.08114 0.19931-0.23989 0.19931-0.11994 0-0.21343-0.06-0.26282-0.1217-0.0053-7e-3 -0.0053-0.0106-0.0053-0.0176 0-4e-3 0-0.0141-0.0071-0.0176l-0.07408 0.127c0.08643 0.0935 0.2099 0.14111 0.34572 0.14111 0.26811 0 0.36689-0.17992 0.36689-0.3175 0-0.0582-0.01764-0.13406-0.08643-0.19932-0.09525-0.09-0.25047-0.12171-0.35101-0.17992-0.09172-0.0547-0.11112-0.11994-0.11112-0.16404 0-0.0847 0.07232-0.16051 0.19756-0.16051 0.1023 0 0.18168 0.0459 0.22401 0.10759 0.0053 7e-3 0.0035 0.0106 0.0035 0.0176 0 0.0106 0.0053 0.0141 0.0088 0.0141z"/>
   <path d="m48.905 131.01c-0.0635-0.0935-0.1711-0.14993-0.30162-0.14993-0.23636 0-0.40393 0.17816-0.40393 0.41981 0 0.24342 0.16757 0.42333 0.39688 0.42333 0.11112 0 0.22049-0.0459 0.29633-0.12876l-0.07232-0.0847c-0.05468 0.0617-0.13406 0.097-0.21343 0.097-0.15699 0-0.27693-0.13053-0.27693-0.31927 0-0.18344 0.11818-0.29809 0.26635-0.29809 0.13758 0 0.20285 0.0953 0.20814 0.10583 0.0071 0.0123-0.0035 0.03 0.01058 0.0406z"/>
   <path d="m49.157 130.88v0.8061h0.127v-0.39158c0-0.0494 0.0018-0.10231 0.05644-0.18874 0.07408-0.11642 0.16933-0.13582 0.22754-0.13582 0.06703 0 0.10936 0.0318 0.13229 0.06 0.01058 0.0141 0.01588 0.0282 0.02999 0.0406l0.05997-0.12171c-0.05115-0.0529-0.12524-0.0882-0.21519-0.0882-0.11818 0-0.23812 0.06-0.29104 0.17463l0.0053-0.15523z"/>
   <path d="m50.051 130.88v0.10407h0.19403v0.60149h-0.20461v0.10054h0.52211v-0.10054h-0.18874v-0.70556zm0.26106-0.34925c-0.05115 0-0.09172 0.0406-0.09172 0.09s0.04057 0.09 0.09172 0.09 0.09172-0.0406 0.09172-0.09-0.04057-0.09-0.09172-0.09z"/>
   <path d="m50.85 130.88 0.0018 1.0989h0.12876v-0.40041c0.05468 0.0794 0.14464 0.12877 0.24165 0.12877 0.16581 0 0.33867-0.13935 0.33867-0.43392 0-0.28399-0.16757-0.41099-0.32632-0.41099-0.10407 0-0.20108 0.0529-0.25576 0.14112v-0.12348zm0.3369 0.09c0.07056 0 0.24165 0.037 0.24165 0.32985 0 0.254-0.1658 0.29457-0.24165 0.29457-0.07585 0-0.15346-0.0388-0.18521-0.11113-0.02293-0.0547-0.02293-0.1217-0.02293-0.23812 0-0.067 0.0035-0.11642 0.02117-0.15875 0.03175-0.0723 0.10583-0.11642 0.18697-0.11642z"/>
   <path d="m51.96 130.66-0.01588 0.21696h-0.19226l-0.0018 0.10407h0.18874c-0.01058 0.13759-0.01587 0.27517-0.01587 0.41099 0 0.0723 0 0.15346 0.04762 0.22049 0.03881 0.0529 0.10054 0.0847 0.18344 0.0847 0.09525 0 0.18874-0.0406 0.25753-0.09l-0.03881-0.10054c-0.06879 0.0512-0.13229 0.0741-0.18168 0.0741-0.05997 0-0.12171-0.0335-0.13582-0.13053 0-7e-3 -0.0053-0.037-0.0053-0.15522 0-0.10407 0.0053-0.20991 0.01588-0.31398h0.26458v-0.10583h-0.26282s0.01235-0.14464 0.02117-0.1905c0.0018-0.0176 0.01588-0.0282 0.0088-0.0476z"/>
   <path d="m47.321 132.79v1.0989h0.67028v-0.10936h-0.5521v-0.40746h0.45861v-0.11289h-0.45861v-0.35983h0.55562v-0.10936z"/>
   <path d="m48.22 133.89h0.12876v-0.4639c0-0.0529 0.0071-0.0935 0.04057-0.13759 0.02999-0.0406 0.1076-0.11289 0.19226-0.11289 0.04057 0 0.08114 0.0176 0.10936 0.0512 0.0441 0.0529 0.0441 0.1217 0.0441 0.17815v0.48507h0.12524v-0.4886c0-0.0617 0-0.12876-0.02822-0.19403-0.04057-0.09-0.12347-0.14111-0.2152-0.14111-0.10936 0-0.20814 0.0706-0.26811 0.16052v-0.14112h-0.12876z"/>
   <path d="m49.203 133.34c0-0.097 0.08114-0.17639 0.17815-0.17639 0.09878 0 0.17815 0.0794 0.17815 0.17639 0 0.097-0.07937 0.17639-0.17815 0.17639-0.09878 0-0.17815-0.0794-0.17815-0.17639zm0.18521-0.27693c-0.16051 0-0.29986 0.127-0.29986 0.28398 0 0.0882 0.0441 0.1711 0.11818 0.21872-0.05821 0.0494-0.09172 0.10407-0.09172 0.15523 0 0.0335 0.01411 0.0811 0.06526 0.10759-0.08643 0.0547-0.13053 0.11466-0.13053 0.17816 0 0.0882 0.08114 0.19226 0.36336 0.19226 0.2734 0 0.37218-0.13935 0.37218-0.24694 0-0.0706-0.04057-0.14111-0.12524-0.17463-0.08467-0.0353-0.18168-0.0229-0.2734-0.0229-0.05997 0-0.09878-5e-3 -0.11465-0.0106-0.03175-9e-3 -0.04939-0.0282-0.04939-0.0529 0-0.0423 0.04939-0.0829 0.05821-0.09 0.03175 0.0123 0.06703 0.0176 0.10231 0.0176 0.15875 0 0.28928-0.127 0.28928-0.27517 0-0.0494-0.01411-0.097-0.04057-0.13758 0.04233-0.0247 0.09172-0.0388 0.14111-0.0388 0.01588 0 0.02999 2e-3 0.04586 5e-3l-0.01411-0.10407c-0.08114-7e-3 -0.16228 0.0194-0.22401 0.0705-0.05115-0.0494-0.11818-0.0758-0.19226-0.0758zm-0.12171 0.78845c0.02999 4e-3 0.07232 7e-3 0.13406 0.0106 0.05997 2e-3 0.12524-4e-3 0.1711 4e-3 0.07408 0.0123 0.09701 0.0582 0.09701 0.0935s-0.02117 0.0776-0.07585 0.1076c-0.05997 0.0317-0.127 0.0353-0.18168 0.0353-0.03704 0-0.10583-2e-3 -0.1658-0.0265-0.06526-0.0265-0.07937-0.0706-0.07937-0.0988 0-0.0582 0.05468-0.10054 0.10054-0.12524z"/>
   <path d="m50.051 133.08v0.10407h0.19403v0.60149h-0.20461v0.10054h0.52211v-0.10054h-0.18874v-0.70556zm0.26106-0.34925c-0.05115 0-0.09172 0.0406-0.09172 0.09s0.04057 0.09 0.09172 0.09 0.09172-0.0406 0.09172-0.09-0.04057-0.09-0.09172-0.09z"/>
   <path d="m50.866 133.89h0.12876v-0.4639c0-0.0529 0.0071-0.0935 0.04057-0.13759 0.02999-0.0406 0.1076-0.11289 0.19226-0.11289 0.04057 0 0.08114 0.0176 0.10936 0.0512 0.0441 0.0529 0.0441 0.1217 0.0441 0.17815v0.48507h0.12524v-0.4886c0-0.0617 0-0.12876-0.02822-0.19403-0.04057-0.09-0.12347-0.14111-0.21519-0.14111-0.10936 0-0.20814 0.0706-0.26811 0.16052v-0.14112h-0.12876z"/>
   <path d="m52.083 133.07c-0.19226 0-0.37042 0.13759-0.37042 0.43039 0 0.26988 0.16757 0.41275 0.38629 0.41275 0.11642 0 0.22049-0.0423 0.28928-0.12524l-0.07056-0.0688c-0.05115 0.06-0.12876 0.0917-0.20814 0.0917-0.1076 0-0.26458-0.06-0.2734-0.30163h0.5715c0.0053-0.0547 0.0035-0.1076-0.0053-0.15346-0.03704-0.21696-0.18697-0.28575-0.31926-0.28575zm-0.24342 0.3422c0.02646-0.1905 0.14817-0.24518 0.2346-0.24518 0.13053 0 0.22401 0.11465 0.20814 0.24518z"/>
  </g>
  <g fill="#d54747">
   <g stroke-width=".28222px" aria-label="Script">
    <path d="m53.731 145.11c-0.07408-0.09-0.18344-0.13758-0.30339-0.13758-0.19932 0-0.33514 0.13053-0.33514 0.28222 0 0.0635 0.0247 0.1464 0.11642 0.21343 0.10231 0.0759 0.26106 0.11289 0.34396 0.16581 0.07232 0.0441 0.09172 0.1023 0.09172 0.15169 0 0.0952-0.08114 0.19932-0.23989 0.19932-0.11994 0-0.21343-0.06-0.26282-0.12171-0.0053-7e-3 -0.0053-0.0106-0.0053-0.0176 0-4e-3 0-0.0141-0.0071-0.0176l-0.07408 0.127c0.08643 0.0935 0.2099 0.14112 0.34572 0.14112 0.26811 0 0.36689-0.17992 0.36689-0.3175 0-0.0582-0.01764-0.13406-0.08643-0.19932-0.09525-0.09-0.25047-0.12171-0.35101-0.17992-0.09172-0.0547-0.11112-0.11995-0.11112-0.16404 0-0.0847 0.07232-0.16052 0.19756-0.16052 0.1023 0 0.18168 0.0459 0.22401 0.1076 0.0053 7e-3 0.0035 0.0106 0.0035 0.0176 0 0.0106 0.0053 0.0141 0.0088 0.0141z"/>
    <path d="m54.652 145.41c-0.0635-0.0935-0.1711-0.14993-0.30162-0.14993-0.23636 0-0.40393 0.17815-0.40393 0.41981 0 0.24341 0.16757 0.42333 0.39688 0.42333 0.11112 0 0.22049-0.0459 0.29633-0.12876l-0.07232-0.0847c-0.05468 0.0617-0.13406 0.097-0.21343 0.097-0.15699 0-0.27693-0.13053-0.27693-0.31926 0-0.18345 0.11818-0.2981 0.26635-0.2981 0.13758 0 0.20285 0.0952 0.20814 0.10583 0.0071 0.0123-0.0035 0.03 0.01058 0.0406z"/>
    <path d="m54.904 145.27v0.8061h0.127v-0.39159c0-0.0494 0.0018-0.1023 0.05644-0.18873 0.07408-0.11642 0.16933-0.13582 0.22754-0.13582 0.06703 0 0.10936 0.0317 0.13229 0.06 0.01058 0.0141 0.01588 0.0282 0.02999 0.0406l0.05997-0.12171c-0.05115-0.0529-0.12524-0.0882-0.21519-0.0882-0.11818 0-0.23812 0.06-0.29104 0.17462l0.0053-0.15522z"/>
    <path d="m55.798 145.27v0.10406h0.19403v0.60149h-0.20461v0.10054h0.52211v-0.10054h-0.18874v-0.70555zm0.26106-0.34925c-0.05115 0-0.09172 0.0406-0.09172 0.09s0.04057 0.09 0.09172 0.09 0.09172-0.0406 0.09172-0.09-0.04057-0.09-0.09172-0.09z"/>
    <path d="m56.597 145.27 0.0018 1.0989h0.12876v-0.4004c0.05468 0.0794 0.14464 0.12876 0.24165 0.12876 0.16581 0 0.33867-0.13934 0.33867-0.43391 0-0.28399-0.16757-0.41099-0.32632-0.41099-0.10407 0-0.20108 0.0529-0.25576 0.14111v-0.12347zm0.3369 0.09c0.07055 0 0.24165 0.037 0.24165 0.32984 0 0.254-0.1658 0.29457-0.24165 0.29457-0.07585 0-0.15346-0.0388-0.18521-0.11112-0.02293-0.0547-0.02293-0.12171-0.02293-0.23813 0-0.067 0.0035-0.11641 0.02117-0.15875 0.03175-0.0723 0.10583-0.11641 0.18697-0.11641z"/>
    <path d="m57.707 145.06-0.01588 0.21696h-0.19226l-0.0018 0.10407h0.18874c-0.01058 0.13758-0.01588 0.27517-0.01588 0.41098 0 0.0723 0 0.15346 0.04763 0.22049 0.03881 0.0529 0.10054 0.0847 0.18344 0.0847 0.09525 0 0.18874-0.0406 0.25753-0.09l-0.0388-0.10054c-0.06879 0.0511-0.13229 0.0741-0.18168 0.0741-0.05997 0-0.12171-0.0335-0.13582-0.13053 0-7e-3 -0.0053-0.037-0.0053-0.15522 0-0.10407 0.0053-0.2099 0.01588-0.31397h0.26458v-0.10583h-0.26282s0.01235-0.14464 0.02117-0.1905c0.0018-0.0176 0.01588-0.0282 0.0088-0.0476z"/>
   </g>
   <path d="m48.247 146.35c-0.22994-0.0156-0.36025-0.0829-0.44696-0.23091-0.16128-0.27519-0.08417-0.56713 0.19154-0.72525l0.11429-0.0656 1.5009-1.2e-4c1.2462-1.2e-4 1.505 5e-3 1.5256 0.0296 0.04246 0.0512 0.0044 0.0952-0.09529 0.11015-0.1057 0.0159-0.21351 0.0807-0.27734 0.16694-0.1025 0.13841-0.05858 0.40166 0.08532 0.51141 0.16474 0.12565 0.44666 0.0759 0.55474-0.098l0.04967-0.0799 0.0076-1.9971c0.0074-1.9514 0.0086-1.9991 0.05138-2.0843 0.02408-0.0479 0.05881-0.10426 0.07719-0.12515 0.03177-0.0361-0.03316-0.038-1.3276-0.038-1.1074 0-1.374 6e-3 -1.4309 0.0299-0.10284 0.044-0.18376 0.14161-0.2092 0.25235-0.01429 0.0622-0.02262 0.65583-0.02297 1.6338l-5.29e-4 1.5361h-0.13027l2.38e-4 -1.6012 2.41e-4 -1.6012 0.06458-0.11262c0.03552-0.0619 0.09717-0.13746 0.13698-0.16783 0.1623-0.12379 0.12316-0.1212 1.8315-0.1212h1.5721l0.10257 0.052c0.33404 0.16927 0.41944 0.53945 0.18784 0.81414-0.0772 0.0916-0.25288 0.17553-0.36784 0.17581-0.08143 1.2e-4 -0.08685-4e-3 -0.08685-0.0628 0-0.0586 0.0071-0.064 0.10051-0.0764 0.19349-0.0257 0.32424-0.15852 0.33972-0.34516 0.01791-0.216-0.11337-0.38072-0.3192-0.4005-0.14143-0.0136-0.24437 0.0243-0.33315 0.12254l-0.07386 0.0817-0.01437 0.3784c-0.0079 0.20812-0.01439 1.1139-0.01442 2.0129 0 1.3376-0.0055 1.6475-0.02992 1.7059-0.04701 0.11251-0.16638 0.23348-0.28481 0.28863l-0.10871 0.0506-1.3678-4e-3c-0.7523-2e-3 -1.4509-9e-3 -1.5524-0.0161zm2.4534-0.15238c0-0.0112-0.0099-0.0266-0.02201-0.034-0.01212-7e-3 -0.04241-0.0536-0.06733-0.10243-0.06706-0.13145-0.05253-0.36802 0.02991-0.48699 0.0327-0.0472 0.05945-0.0926 0.05945-0.10089 0-0.0197-2.2389-0.0167-2.4579 3e-3 -0.26776 0.0244-0.37544 0.13061-0.37544 0.37033 0 0.12812 0.0079 0.157 0.06251 0.2286 0.11101 0.14553 0.06189 0.14084 1.4844 0.14178 0.78994 5.6e-4 1.2864-7e-3 1.2864-0.0196zm-0.2999-1.5482 0.0068-0.0706 0.74904-0.012v0.153h-0.76265l0.0068-0.0706zm-1.5021-0.45052v-0.0651h2.258v0.1302h-2.258zm0-0.30396v-0.0651h2.258v0.1302h-2.258zm0.01468-0.23139c-0.0081-8e-3 -0.01468-0.0423-0.01468-0.0762v-0.0615h2.2607l-0.0136 0.1412-1.1089 6e-3c-0.60989 3e-3 -1.1155-8.4e-4 -1.1236-9e-3zm-0.01468-0.36566v-0.076h2.258v0.152h-2.258zm0-0.30396v-0.076h2.258v0.152h-2.258zm0.7599-0.74904c0-0.06 6e-3 -0.0651 0.07599-0.0651 0.06996 0 0.07599 5e-3 0.07599 0.0651 0 0.06-6e-3 0.0651-0.07599 0.0651-0.06996 0-0.07599-5e-3 -0.07599-0.0651zm0.30396 0c0-0.0579 0.0072-0.0651 0.06513-0.0651 0.0579 0 0.06514 7e-3 0.06514 0.0651 0 0.0579-0.0072 0.0651-0.06514 0.0651-0.05789 0-0.06513-7e-3 -0.06513-0.0651zm0.30396 0c0-0.0579 0.0072-0.0651 0.06514-0.0651 0.0579 0 0.06513 7e-3 0.06513 0.0651 0 0.0579-0.0072 0.0651-0.06513 0.0651-0.0579 0-0.06514-7e-3 -0.06514-0.0651z" stroke-width=".28222"/>
   <rect transform="rotate(90)" x="134.59" y="-26.403" width="5.9267" height=".56444"/>
  </g>
  <g>
   <rect transform="rotate(90)" x="140.2" y="-28.218" width="4.2051" height="4.1769" fill="#bcbcbc"/>
   <rect transform="rotate(90)" x="144.63" y="-27.813" width="3.8461" height=".56444" fill="#d54747"/>
   <rect transform="matrix(0,-1,-1,0,0,0)" x="-145.53" y="-28.218" width="1.1289" height="1.3547" fill="#666"/>
   <rect transform="rotate(90)" x="144.63" y="-24.991" width="3.8461" height=".56444" fill="#d54747"/>
   <rect transform="matrix(0,-1,-1,0,0,0)" x="-145.53" y="-25.398" width="1.1289" height="1.3547" fill="#666"/>
   <path d="m23.783 135.9c-0.05666-0.033-0.06739-0.0972-0.06739-0.40316v-0.36392h-0.11278c-0.14378 0-0.2338-0.09-0.2338-0.23381v-0.11277h-0.36448c-0.32992 0-0.36855-8e-3 -0.40741-0.0802-0.03425-0.064-0.02942-0.0952 0.02387-0.15403 0.05624-0.0622 0.12063-0.0738 0.40741-0.0738h0.34061v-0.30807h-0.34061c-0.28678 0-0.35117-0.0117-0.40741-0.0738-0.05329-0.0589-0.05812-0.09-0.02387-0.15403 0.03886-0.0726 0.07749-0.0802 0.40741-0.0802h0.36448v-0.34658h-0.36448c-0.32506 0-0.36893-8e-3 -0.4057-0.077-0.02929-0.0547-0.02929-0.0993 0-0.15403 0.03676-0.0687 0.08063-0.077 0.4057-0.077h0.36448v-0.34658h-0.36448c-0.32992 0-0.36855-8e-3 -0.40741-0.0802-0.03425-0.064-0.02942-0.0952 0.02387-0.15403 0.05624-0.0622 0.12063-0.0738 0.40741-0.0738h0.34061v-0.30808h-0.34061c-0.28678 0-0.35117-0.0117-0.40741-0.0738-0.05329-0.0589-0.05812-0.09-0.02387-0.15403 0.03886-0.0726 0.07749-0.0802 0.40741-0.0802h0.36448v-0.34657h-0.36448c-0.32506 0-0.36893-8e-3 -0.4057-0.077-0.02929-0.0547-0.02929-0.0993 0-0.15404 0.03676-0.0687 0.08063-0.077 0.4057-0.077h0.36448v-0.34658h-0.36448c-0.32992 0-0.36855-8e-3 -0.40741-0.0802-0.03425-0.064-0.02942-0.0951 0.02387-0.15404 0.05624-0.0621 0.12063-0.0738 0.40741-0.0738h0.34061v-0.30807h-0.34061c-0.28678 0-0.35117-0.0117-0.40741-0.0738-0.05329-0.0589-0.05812-0.09-0.02387-0.15403 0.03886-0.0726 0.07749-0.0802 0.40741-0.0802h0.36448v-0.11277c0-0.14378 0.09003-0.2338 0.2338-0.2338h0.11278v-0.36448c0-0.32991 0.0076-0.36855 0.08022-0.40741 0.064-0.0343 0.09515-0.0294 0.15404 0.0239 0.06215 0.0562 0.07381 0.12063 0.07381 0.40741v0.3406h0.30807v-0.3406c0-0.28678 0.01167-0.35117 0.07381-0.40741 0.05889-0.0533 0.09004-0.0581 0.15403-0.0239 0.07261 0.0389 0.08022 0.0775 0.08022 0.40741v0.36448h0.34658v-0.36448c0-0.32507 0.0083-0.36893 0.07702-0.40569 0.05472-0.0293 0.09931-0.0293 0.15403 0 0.06869 0.0368 0.07702 0.0806 0.07702 0.40569v0.36448h0.34658v-0.36448c0-0.32991 0.0076-0.36855 0.08022-0.40741 0.064-0.0343 0.09515-0.0294 0.15404 0.0239 0.06215 0.0562 0.07381 0.12063 0.07381 0.40741v0.3406h0.30807v-0.3406c0-0.28678 0.01167-0.35117 0.07381-0.40741 0.05889-0.0533 0.09004-0.0581 0.15404-0.0239 0.07261 0.0389 0.08022 0.0775 0.08022 0.40741v0.36448h0.34658v-0.36448c0-0.32507 0.0083-0.36893 0.07702-0.40569 0.05472-0.0293 0.09931-0.0293 0.15403 0 0.06869 0.0368 0.07702 0.0806 0.07702 0.40569v0.36448h0.34658v-0.36448c0-0.32991 0.0076-0.36855 0.08022-0.40741 0.064-0.0343 0.09515-0.0294 0.15403 0.0239 0.06215 0.0562 0.07381 0.12063 0.07381 0.40741v0.3406h0.30807v-0.3406c0-0.28678 0.01166-0.35117 0.07381-0.40741 0.05889-0.0533 0.09004-0.0581 0.15403-0.0239 0.07262 0.0389 0.08022 0.0775 0.08022 0.40741v0.36448h0.11278c0.14378 0 0.2338 0.09 0.2338 0.2338v0.11277h0.36448c0.32992 0 0.36855 8e-3 0.40741 0.0802 0.03425 0.064 0.02942 0.0951-0.02388 0.15403-0.05624 0.0622-0.12063 0.0738-0.40741 0.0738h-0.34061v0.30807h0.34061c0.28678 0 0.35117 0.0117 0.40741 0.0738 0.05329 0.0589 0.05812 0.09 0.02388 0.15404-0.03886 0.0726-0.07749 0.0802-0.40741 0.0802h-0.36448v0.34658h0.36448c0.32507 0 0.36894 8e-3 0.4057 0.077 0.02928 0.0547 0.02928 0.0993 0 0.15404-0.03676 0.0687-0.08063 0.077-0.4057 0.077h-0.36448v0.34657h0.36448c0.32992 0 0.36855 8e-3 0.40741 0.0802 0.03425 0.064 0.02942 0.0951-0.02388 0.15403-0.05624 0.0622-0.12063 0.0738-0.40741 0.0738h-0.34061v0.30807h0.34061c0.28678 0 0.35117 0.0117 0.40741 0.0738 0.05329 0.0589 0.05812 0.09 0.02388 0.15404-0.03886 0.0726-0.07749 0.0802-0.40741 0.0802h-0.36448v0.34658h0.36448c0.32507 0 0.36894 8e-3 0.4057 0.077 0.02928 0.0547 0.02928 0.0993 0 0.15403-0.03676 0.0687-0.08063 0.077-0.4057 0.077h-0.36448v0.34658h0.36448c0.32992 0 0.36855 8e-3 0.40741 0.0802 0.03425 0.064 0.02942 0.0951-0.02388 0.15403-0.05624 0.0621-0.12063 0.0738-0.40741 0.0738h-0.34061v0.30807h0.34061c0.28678 0 0.35117 0.0117 0.40741 0.0738 0.05329 0.0589 0.05812 0.09 0.02388 0.15403-0.03886 0.0726-0.07749 0.0802-0.40741 0.0802h-0.36448v0.11278c0 0.14377-0.09003 0.2338-0.2338 0.2338h-0.11278v0.36448c0 0.32991-0.0076 0.36854-0.08022 0.40741-0.064 0.0342-0.09515 0.0294-0.15403-0.0239-0.06215-0.0562-0.07381-0.12064-0.07381-0.40741v-0.34061h-0.30807v0.34061c0 0.28677-0.01166 0.35116-0.07381 0.40741-0.05889 0.0533-0.09004 0.0581-0.15403 0.0239-0.07261-0.0389-0.08022-0.0775-0.08022-0.40741v-0.36448h-0.34657v0.36447c0 0.32507-0.0083 0.36894-0.07702 0.4057-0.05472 0.0293-0.09931 0.0293-0.15403 0-0.06869-0.0368-0.07702-0.0806-0.07702-0.4057v-0.36447h-0.34658v0.36447c0 0.32992-0.0076 0.36855-0.08022 0.40741-0.064 0.0342-0.09515 0.0294-0.15404-0.0239-0.06215-0.0562-0.07381-0.12063-0.07381-0.40741v-0.3406h-0.30807v0.34061c0 0.28677-0.01167 0.35116-0.07381 0.40741-0.05889 0.0533-0.09004 0.0581-0.15404 0.0239-0.07261-0.0389-0.08022-0.0775-0.08022-0.40741v-0.36448h-0.34658v0.36447c0 0.32507-0.0083 0.36894-0.07702 0.4057-0.05472 0.0293-0.09931 0.0293-0.15404 0-0.06869-0.0368-0.07702-0.0806-0.07702-0.4057v-0.36447h-0.34657v0.36447c0 0.32992-0.0076 0.36855-0.08022 0.40741-0.064 0.0342-0.09515 0.0294-0.15404-0.0239-0.06215-0.0562-0.07381-0.12063-0.07381-0.40741v-0.3406h-0.30807v0.34061c0 0.28107-0.01231 0.35175-0.07042 0.40434-0.08158 0.0738-0.08153 0.0738-0.17026 0.0221zm4.031-1.7903c0.05313-0.0531 0.06051-0.26189 0.06051-1.7109s-0.0074-1.6578-0.06051-1.7109c-0.05313-0.0531-0.26189-0.0605-1.7109-0.0605-1.449 0-1.6578 7e-3 -1.7109 0.0605-0.05313 0.0531-0.06051 0.26189-0.06051 1.7109s0.0074 1.6578 0.06051 1.7109c0.05313 0.0531 0.26189 0.0605 1.7109 0.0605 1.449 0 1.6578-7e-3 1.7109-0.0605zm-3.1357-1.7109v-1.4248h2.8496v2.8496h-2.8496z" fill="#6fe9a1" stroke-width=".28222"/>
   <g fill="#e9e56f" stroke-width=".28222px" aria-label="platform bridge">
    <path d="m29.063 140.78 0.0018 1.0989h0.12876v-0.4004c0.05468 0.0794 0.14464 0.12876 0.24165 0.12876 0.16581 0 0.33867-0.13934 0.33867-0.43391 0-0.28399-0.16757-0.41099-0.32632-0.41099-0.10407 0-0.20108 0.0529-0.25576 0.14111v-0.12347zm0.3369 0.09c0.07056 0 0.24165 0.037 0.24165 0.32984 0 0.254-0.1658 0.29457-0.24165 0.29457-0.07585 0-0.15346-0.0388-0.18521-0.11112-0.02293-0.0547-0.02293-0.12171-0.02293-0.23813 0-0.067 0.0035-0.11641 0.02117-0.15875 0.03175-0.0723 0.10583-0.11641 0.18697-0.11641z"/>
    <path d="m29.989 140.41v0.10231h0.22931v0.96837h-0.23989v0.10054h0.60501v-0.10054h-0.23812v-1.0707z"/>
    <path d="m30.881 140.87 0.06174 0.0811c0.06703-0.0688 0.15699-0.0899 0.23283-0.0899 0.09525 0 0.14288 0.0406 0.1658 0.0776 0.02646 0.0441 0.02469 0.097 0.02469 0.13934v0.0282h-0.02469c-0.11994 0-0.24694 0-0.34925 0.037-0.127 0.0459-0.18344 0.14111-0.18344 0.2293 0 0.11818 0.1023 0.22931 0.26988 0.22931 0.09878 0 0.20108-0.037 0.28928-0.10936v0.0882h0.11994v-0.49913c0-0.0653-0.0018-0.127-0.03881-0.1905-0.05292-0.0864-0.15522-0.13229-0.28046-0.13229-0.1076 0-0.21167 0.0335-0.28751 0.11113zm0.49036 0.33337v0.0547c0 0.0406 0 0.0935-0.05468 0.1517-0.02999 0.03-0.10583 0.0952-0.21167 0.0952-0.1076 0-0.16933-0.0688-0.16933-0.13935 0-0.06 0.04057-0.12524 0.14111-0.14993 0.07408-0.0176 0.18168-0.0124 0.26635-0.0124z"/>
    <path d="m31.936 140.56-0.01588 0.21696h-0.19226l-0.0018 0.10407h0.18874c-0.01058 0.13758-0.01587 0.27517-0.01587 0.41098 0 0.0723 0 0.15346 0.04763 0.22049 0.03881 0.0529 0.10054 0.0847 0.18344 0.0847 0.09525 0 0.18874-0.0406 0.25753-0.09l-0.0388-0.10054c-0.06879 0.0512-0.13229 0.0741-0.18168 0.0741-0.05997 0-0.12171-0.0335-0.13582-0.13053 0-7e-3 -0.0053-0.037-0.0053-0.15522 0-0.10407 0.0053-0.2099 0.01588-0.31397h0.26458v-0.10583h-0.26282s0.01235-0.14464 0.02117-0.1905c0.0018-0.0176 0.01588-0.0282 0.0088-0.0476z"/>
    <path d="m33.092 140.4c-0.11289 0-0.21872 0.0476-0.27517 0.13934-0.04233 0.067-0.0441 0.13406-0.0441 0.20638v0.0794h-0.17639v0.10055h0.17639v0.65616h0.12171v-0.65616h0.26282v-0.10055h-0.26282v-0.0635c0-0.0582-0.0018-0.11994 0.02822-0.17286 0.03351-0.06 0.09701-0.09 0.16228-0.09 0.07761 0 0.14288 0.0406 0.17639 0.0917 0.0053 9e-3 0.0053 0.0141 0.0053 0.0212 0 0.0123 0.0088 0.0159 0.01411 0.0159l0.05821-0.11818c-0.05821-0.0688-0.1464-0.10936-0.24694-0.10936z"/>
    <path d="m34.18 141.19c0-0.27869-0.17639-0.42333-0.35983-0.42333-0.20461 0-0.381 0.17639-0.381 0.42686 0 0.24518 0.17462 0.41804 0.37747 0.41804 0.1905 0 0.36336-0.15346 0.36336-0.42157zm-0.36865-0.31573c0.11642 0 0.23989 0.10054 0.23989 0.32103 0 0.20284-0.11642 0.30515-0.23283 0.30515-0.12876 0-0.24518-0.11995-0.24518-0.31927 0-0.19755 0.11465-0.30691 0.23812-0.30691z"/>
    <path d="m34.425 140.78v0.8061h0.127v-0.39159c0-0.0494 0.0018-0.1023 0.05645-0.18873 0.07408-0.11642 0.16933-0.13582 0.22754-0.13582 0.06703 0 0.10936 0.0317 0.13229 0.06 0.01058 0.0141 0.01588 0.0282 0.02999 0.0406l0.05997-0.12171c-0.05115-0.0529-0.12524-0.0882-0.21519-0.0882-0.11818 0-0.23812 0.06-0.29104 0.17462l0.0053-0.15522z"/>
    <path d="m35.198 141.58h0.11642v-0.53622c0-0.0388 0.0035-0.0741 0.02646-0.11642 0.02822-0.0529 0.0635-0.0741 0.09701-0.0741 0.02822 0 0.05997 0.0176 0.07408 0.0617 0.01058 0.0335 0.0088 0.0723 0.0088 0.10583v0.55915h0.11818v-0.53269c0-0.0423 0.0035-0.0759 0.03351-0.127 0.01411-0.0212 0.0441-0.0723 0.09349-0.0723 0.02646 0 0.05115 0.0159 0.0635 0.0459 0.01588 0.0335 0.01235 0.0794 0.01235 0.11642v0.5715h0.11994v-0.57327c0-0.067 0.0018-0.13405-0.03351-0.18873-0.02999-0.0459-0.08114-0.0635-0.12524-0.0635-0.07761 0-0.14993 0.0459-0.18168 0.11641-0.01235-0.067-0.06879-0.11641-0.14111-0.11641-0.06703 0-0.12876 0.0423-0.16581 0.0988l0.0018-0.0794h-0.11818z"/>
    <path d="m29.063 141.96v1.173h0.0829l0.0441-0.10584c0.05292 0.0794 0.14111 0.127 0.23812 0.127 0.1658 0 0.3369-0.14111 0.3369-0.43392 0-0.28045-0.1658-0.41098-0.32456-0.41098-0.10231 0-0.19756 0.0547-0.24871 0.14287v-0.45155c0-0.0106 0.0018-0.0141 0.01058-0.0212 0.0035-2e-3 0.01235-9e-3 0.01058-0.0194zm0.33338 0.45861c0.07585 0 0.23636 0.0441 0.23636 0.32985 0 0.24518-0.15875 0.29104-0.23812 0.29104-0.05468 0-0.17639-0.0212-0.19756-0.17639-0.0053-0.0406-0.0053-0.0882-0.0053-0.15875 0-0.0723 0.0035-0.12524 0.02117-0.16933 0.02999-0.0723 0.10407-0.11642 0.18344-0.11642z"/>
    <path d="m30.015 142.33v0.8061h0.127v-0.39158c0-0.0494 0.0018-0.10231 0.05644-0.18874 0.07408-0.11642 0.16933-0.13582 0.22754-0.13582 0.06703 0 0.10936 0.0317 0.13229 0.06 0.01058 0.0141 0.01588 0.0282 0.02999 0.0406l0.05997-0.12171c-0.05115-0.0529-0.12524-0.0882-0.2152-0.0882-0.11818 0-0.23812 0.06-0.29104 0.17462l0.0053-0.15522z"/>
    <path d="m30.91 142.33v0.10407h0.19403v0.60148h-0.20461v0.10055h0.52211v-0.10055h-0.18874v-0.70555zm0.26106-0.34925c-0.05115 0-0.09172 0.0406-0.09172 0.09s0.04057 0.0899 0.09172 0.0899 0.09172-0.0406 0.09172-0.0899c0-0.0494-0.04057-0.09-0.09172-0.09z"/>
    <path d="m32.259 142.45c-0.03881-0.0829-0.12524-0.13759-0.23636-0.13759-0.15346 0-0.34043 0.10937-0.34043 0.41628 0 0.2981 0.1658 0.42863 0.32103 0.42863 0.1023 0 0.19756-0.0582 0.24871-0.14817v0.0706c0 0.0194 0.0018 0.0388 0.0071 0.0582h0.127c-0.0071-0.0229-0.0071-0.0494-0.0071-0.0741l-0.0018-1.0478c0-0.0106 0-0.0141 0.0071-0.0247 0.0035-5e-3 0.01058-0.0141 0.0088-0.0265h-0.13404zm-0.23107-0.0335c0.07056 0 0.17462 0.037 0.20638 0.15699 0.01058 0.037 0.01411 0.0811 0.01411 0.1711 0 0.0617-0.0035 0.10583-0.01764 0.14816-0.02999 0.0952-0.11465 0.1517-0.19756 0.1517-0.09172 0-0.22754-0.0706-0.22754-0.33514 0-0.23107 0.12876-0.29281 0.22225-0.29281z"/>
    <path d="m32.707 142.58c0-0.097 0.08114-0.17639 0.17815-0.17639 0.09878 0 0.17815 0.0794 0.17815 0.17639 0 0.097-0.07937 0.17639-0.17815 0.17639-0.09878 0-0.17815-0.0794-0.17815-0.17639zm0.18521-0.27693c-0.16051 0-0.29986 0.127-0.29986 0.28399 0 0.0882 0.0441 0.1711 0.11818 0.21872-0.05821 0.0494-0.09172 0.10407-0.09172 0.15522 0 0.0335 0.01411 0.0811 0.06526 0.1076-0.08643 0.0547-0.13053 0.11465-0.13053 0.17815 0 0.0882 0.08114 0.19227 0.36336 0.19227 0.2734 0 0.37218-0.13935 0.37218-0.24695 0-0.0706-0.04057-0.14111-0.12524-0.17462-0.08467-0.0353-0.18168-0.0229-0.2734-0.0229-0.05997 0-0.09878-5e-3 -0.11465-0.0106-0.03175-9e-3 -0.04939-0.0282-0.04939-0.0529 0-0.0423 0.04939-0.0829 0.05821-0.09 0.03175 0.0123 0.06703 0.0176 0.10231 0.0176 0.15875 0 0.28928-0.127 0.28928-0.27517 0-0.0494-0.01411-0.097-0.04057-0.13758 0.04233-0.0247 0.09172-0.0388 0.14111-0.0388 0.01588 0 0.02999 2e-3 0.04586 5e-3l-0.01411-0.10407c-0.08114-7e-3 -0.16228 0.0194-0.22401 0.0706-0.05115-0.0494-0.11818-0.0759-0.19226-0.0759zm-0.12171 0.78846c0.02999 4e-3 0.07232 7e-3 0.13406 0.0106 0.05997 2e-3 0.12524-4e-3 0.1711 4e-3 0.07408 0.0123 0.09701 0.0582 0.09701 0.0935s-0.02117 0.0776-0.07585 0.1076c-0.05997 0.0317-0.127 0.0353-0.18168 0.0353-0.03704 0-0.10583-2e-3 -0.1658-0.0264-0.06526-0.0265-0.07937-0.0706-0.07937-0.0988 0-0.0582 0.05468-0.10054 0.10054-0.12524z"/>
    <path d="m33.824 142.31c-0.19226 0-0.37042 0.13758-0.37042 0.43039 0 0.26987 0.16757 0.41275 0.38629 0.41275 0.11642 0 0.22049-0.0423 0.28928-0.12524l-0.07056-0.0688c-0.05115 0.06-0.12876 0.0917-0.20814 0.0917-0.1076 0-0.26458-0.06-0.2734-0.30162h0.5715c0.0053-0.0547 0.0035-0.1076-0.0053-0.15346-0.03704-0.21696-0.18697-0.28575-0.31926-0.28575zm-0.24342 0.34219c0.02646-0.1905 0.14817-0.24518 0.2346-0.24518 0.13053 0 0.22401 0.11466 0.20814 0.24518z"/>
   </g>
  </g>
  <rect x="22.039" y="148.52" width="12.926" height="7.141" fill="#340d3b" fill-opacity=".38431" stroke="#d66fe9" stroke-width=".13282"/>
  <g>
   <g fill="#e9e56f" stroke-width=".28222px" aria-label="Platform   SDK">
    <path d="m25.135 150.6v1.0989h0.12876v-0.48507h0.21519c0.06879 0 0.13406-2e-3 0.20108-0.0353 0.1023-0.0512 0.15522-0.15699 0.15522-0.26811 0-0.11113-0.05292-0.21872-0.15699-0.27164-0.06879-0.037-0.13758-0.0388-0.20814-0.0388zm0.12876 0.11642h0.20638c0.04586 0 0.08996 2e-3 0.13582 0.0229 0.06703 0.0353 0.10407 0.10583 0.10407 0.17639 0 0.0706-0.03528 0.13582-0.09878 0.16757-0.04233 0.0212-0.08467 0.0229-0.127 0.0229h-0.22225z"/>
    <path d="m26.063 150.52v0.10231h0.2293v0.96837h-0.23989v0.10055h0.60501v-0.10055h-0.23812v-1.0707z"/>
    <path d="m26.956 150.98 0.06174 0.0811c0.06703-0.0688 0.15699-0.09 0.23283-0.09 0.09525 0 0.14288 0.0406 0.1658 0.0776 0.02646 0.0441 0.0247 0.097 0.0247 0.13935v0.0282h-0.0247c-0.11994 0-0.24694 0-0.34925 0.037-0.127 0.0459-0.18344 0.14111-0.18344 0.22931 0 0.11818 0.1023 0.2293 0.26988 0.2293 0.09878 0 0.20108-0.037 0.28928-0.10936v0.0882h0.11994v-0.49918c0-0.0653-0.0018-0.127-0.0388-0.1905-0.05292-0.0864-0.15522-0.1323-0.28046-0.1323-0.1076 0-0.21167 0.0335-0.28751 0.11113zm0.49036 0.33337v0.0547c0 0.0406 0 0.0935-0.05468 0.1517-0.02999 0.03-0.10583 0.0952-0.21167 0.0952-0.1076 0-0.16933-0.0688-0.16933-0.13935 0-0.06 0.04057-0.12523 0.14111-0.14993 0.07408-0.0176 0.18168-0.0123 0.26635-0.0123z"/>
    <path d="m28.011 150.67-0.01588 0.21696h-0.19226l-0.0018 0.10407h0.18874c-0.01058 0.13759-0.01587 0.27517-0.01587 0.41099 0 0.0723 0 0.15346 0.04763 0.22048 0.03881 0.0529 0.10054 0.0847 0.18344 0.0847 0.09525 0 0.18874-0.0406 0.25753-0.09l-0.03881-0.10054c-0.06879 0.0511-0.13229 0.0741-0.18168 0.0741-0.05997 0-0.12171-0.0335-0.13582-0.13052 0-7e-3 -0.0053-0.037-0.0053-0.15523 0-0.10406 0.0053-0.2099 0.01588-0.31397h0.26458v-0.10583h-0.26282s0.01235-0.14464 0.02117-0.1905c0.0018-0.0176 0.01587-0.0282 0.0088-0.0476z"/>
    <path d="m29.166 150.51c-0.11289 0-0.21872 0.0476-0.27517 0.13935-0.04233 0.067-0.0441 0.13405-0.0441 0.20637v0.0794h-0.17639v0.10054h0.17639v0.65617h0.12171v-0.65617h0.26282v-0.10054h-0.26282v-0.0635c0-0.0582-0.0018-0.11995 0.02822-0.17286 0.03351-0.06 0.09701-0.09 0.16228-0.09 0.07761 0 0.14288 0.0406 0.17639 0.0917 0.0053 9e-3 0.0053 0.0141 0.0053 0.0212 0 0.0123 0.0088 0.0159 0.01411 0.0159l0.05821-0.11818c-0.05821-0.0688-0.1464-0.10936-0.24694-0.10936z"/>
    <path d="m30.254 151.3c0-0.2787-0.17639-0.42334-0.35983-0.42334-0.20461 0-0.381 0.17639-0.381 0.42687 0 0.24518 0.17462 0.41804 0.37747 0.41804 0.1905 0 0.36336-0.15346 0.36336-0.42157zm-0.36865-0.31574c0.11642 0 0.23989 0.10054 0.23989 0.32103 0 0.20285-0.11642 0.30515-0.23283 0.30515-0.12876 0-0.24518-0.11994-0.24518-0.31926 0-0.19756 0.11465-0.30692 0.23812-0.30692z"/>
    <path d="m30.499 150.89v0.8061h0.127v-0.39158c0-0.0494 0.0018-0.10231 0.05645-0.18874 0.07408-0.11642 0.16933-0.13582 0.22754-0.13582 0.06703 0 0.10936 0.0318 0.13229 0.06 0.01058 0.0141 0.01587 0.0282 0.02999 0.0406l0.05997-0.12171c-0.05115-0.0529-0.12524-0.0882-0.2152-0.0882-0.11818 0-0.23812 0.06-0.29104 0.17463l0.0053-0.15523z"/>
    <path d="m31.272 151.69h0.11642v-0.53623c0-0.0388 0.0035-0.0741 0.02646-0.11641 0.02822-0.0529 0.0635-0.0741 0.09701-0.0741 0.02822 0 0.05997 0.0176 0.07408 0.0617 0.01058 0.0335 0.0088 0.0723 0.0088 0.10583v0.55916h0.11818v-0.5327c0-0.0423 0.0035-0.0758 0.03351-0.127 0.01411-0.0212 0.0441-0.0723 0.09349-0.0723 0.02646 0 0.05115 0.0159 0.0635 0.0459 0.01587 0.0335 0.01235 0.0794 0.01235 0.11642v0.5715h0.11994v-0.57326c0-0.067 0.0018-0.13406-0.03351-0.18874-0.02999-0.0459-0.08114-0.0635-0.12524-0.0635-0.07761 0-0.14993 0.0459-0.18168 0.11642-0.01235-0.067-0.06879-0.11642-0.14111-0.11642-0.06703 0-0.12876 0.0423-0.16581 0.0988l0.0018-0.0794h-0.11818z"/>
    <path d="m27.563 152.93c-0.07408-0.09-0.18344-0.13759-0.30339-0.13759-0.19932 0-0.33514 0.13053-0.33514 0.28223 0 0.0635 0.0247 0.1464 0.11642 0.21343 0.10231 0.0758 0.26106 0.11288 0.34396 0.1658 0.07232 0.0441 0.09172 0.10231 0.09172 0.1517 0 0.0952-0.08114 0.19932-0.23989 0.19932-0.11994 0-0.21343-0.06-0.26282-0.12171-0.0053-7e-3 -0.0053-0.0106-0.0053-0.0176 0-4e-3 0-0.0141-0.0071-0.0176l-0.07408 0.127c0.08643 0.0935 0.2099 0.14111 0.34572 0.14111 0.26811 0 0.36689-0.17992 0.36689-0.3175 0-0.0582-0.01764-0.13406-0.08643-0.19932-0.09525-0.09-0.25047-0.12171-0.35101-0.17992-0.09172-0.0547-0.11112-0.11994-0.11112-0.16404 0-0.0847 0.07232-0.16051 0.19756-0.16051 0.10231 0 0.18168 0.0459 0.22401 0.1076 0.0053 7e-3 0.0035 0.0106 0.0035 0.0176 0 0.0106 0.0053 0.0141 0.0088 0.0141z"/>
    <path d="m27.772 152.8v1.1007h0.23636c0.08643 0 0.16051-4e-3 0.23812-0.0441 0.15699-0.0811 0.24342-0.26811 0.24342-0.508 0-0.21166-0.0635-0.39687-0.20461-0.48859-0.07937-0.0529-0.15875-0.06-0.25576-0.06zm0.11642 0.10584h0.13406c0.06879 0 0.13758 4e-3 0.20638 0.06 0.10231 0.0847 0.13582 0.24165 0.13582 0.39864 0 0.2099-0.06879 0.32985-0.15699 0.38982-0.06879 0.0459-0.13758 0.0494-0.20638 0.0494h-0.11289z"/>
    <path d="m28.635 152.8v1.0989h0.13053v-0.45509l0.08643-0.0935 0.38276 0.55739s0.06879-7e-3 0.15699-7e-3l-0.4445-0.62442 0.41451-0.47625h-0.04586c-0.02999 0-0.05997 0-0.08996-9e-3l-0.46038 0.51681v-0.4639c0-7e-3 0-0.0124 0.0071-0.0194 0.0035-5e-3 0.01235-0.0141 0.0088-0.0247z"/>
   </g>
   <g fill="#e9e56f" stroke-width=".28222px" aria-label="bottleneck">
    <path d="m46.587 154.21v1.173h0.0829l0.0441-0.10584c0.05292 0.0794 0.14111 0.127 0.23812 0.127 0.1658 0 0.3369-0.14111 0.3369-0.43391 0-0.28046-0.1658-0.41099-0.32456-0.41099-0.10231 0-0.19756 0.0547-0.24871 0.14288v-0.45156c0-0.0106 0.0018-0.0141 0.01058-0.0212 0.0035-2e-3 0.01235-9e-3 0.01058-0.0194zm0.33338 0.45861c0.07585 0 0.23636 0.0441 0.23636 0.32985 0 0.24518-0.15875 0.29104-0.23812 0.29104-0.05468 0-0.17639-0.0212-0.19756-0.17639-0.0053-0.0406-0.0053-0.0882-0.0053-0.15875 0-0.0723 0.0035-0.12523 0.02117-0.16933 0.02999-0.0723 0.10407-0.11642 0.18344-0.11642z"/>
    <path d="m48.176 154.98c0-0.2787-0.17639-0.42334-0.35983-0.42334-0.20461 0-0.381 0.17639-0.381 0.42687 0 0.24518 0.17462 0.41804 0.37747 0.41804 0.1905 0 0.36336-0.15346 0.36336-0.42157zm-0.36865-0.31574c0.11642 0 0.23989 0.10054 0.23989 0.32103 0 0.20285-0.11642 0.30515-0.23283 0.30515-0.12876 0-0.24518-0.11994-0.24518-0.31926 0-0.19756 0.11465-0.30692 0.23812-0.30692z"/>
    <path d="m48.579 154.36-0.01588 0.21695h-0.19226l-0.0018 0.10407h0.18874c-0.01058 0.13759-0.01588 0.27517-0.01588 0.41099 0 0.0723 0 0.15346 0.04762 0.22049 0.03881 0.0529 0.10054 0.0847 0.18344 0.0847 0.09525 0 0.18874-0.0406 0.25753-0.09l-0.03881-0.10054c-0.06879 0.0511-0.13229 0.0741-0.18168 0.0741-0.05997 0-0.12171-0.0335-0.13582-0.13053 0-7e-3 -0.0053-0.037-0.0053-0.15522 0-0.10407 0.0053-0.20991 0.01588-0.31398h0.26458v-0.10583h-0.26282s0.01235-0.14464 0.02117-0.1905c0.0018-0.0176 0.01588-0.0282 0.0088-0.0476z"/>
    <path d="m49.461 154.36-0.01588 0.21695h-0.19226l-0.0018 0.10407h0.18874c-0.01058 0.13759-0.01588 0.27517-0.01588 0.41099 0 0.0723 0 0.15346 0.04763 0.22049 0.03881 0.0529 0.10054 0.0847 0.18344 0.0847 0.09525 0 0.18874-0.0406 0.25753-0.09l-0.0388-0.10054c-0.06879 0.0511-0.13229 0.0741-0.18168 0.0741-0.05997 0-0.12171-0.0335-0.13582-0.13053 0-7e-3 -0.0053-0.037-0.0053-0.15522 0-0.10407 0.0053-0.20991 0.01588-0.31398h0.26458v-0.10583h-0.26282s0.01235-0.14464 0.02117-0.1905c0.0018-0.0176 0.01588-0.0282 0.0088-0.0476z"/>
    <path d="m50.159 154.21v0.10231h0.2293v0.96838h-0.23989v0.10054h0.60501v-0.10054h-0.23812v-1.0707z"/>
    <path d="m51.348 154.56c-0.19226 0-0.37042 0.13758-0.37042 0.43039 0 0.26987 0.16757 0.41275 0.38629 0.41275 0.11642 0 0.22049-0.0423 0.28928-0.12524l-0.07056-0.0688c-0.05115 0.06-0.12876 0.0917-0.20814 0.0917-0.1076 0-0.26458-0.06-0.2734-0.30162h0.5715c0.0053-0.0547 0.0035-0.1076-0.0053-0.15346-0.03704-0.21696-0.18697-0.28575-0.31926-0.28575zm-0.24342 0.3422c0.02646-0.1905 0.14817-0.24519 0.2346-0.24519 0.13053 0 0.22401 0.11466 0.20814 0.24519z"/>
    <path d="m51.895 155.38h0.12876v-0.46391c0-0.0529 0.0071-0.0935 0.04057-0.13758 0.02999-0.0406 0.1076-0.11289 0.19226-0.11289 0.04057 0 0.08114 0.0176 0.10936 0.0511 0.0441 0.0529 0.0441 0.12171 0.0441 0.17816v0.48507h0.12524v-0.4886c0-0.0617 0-0.12876-0.02822-0.19403-0.04057-0.09-0.12347-0.14111-0.21519-0.14111-0.10936 0-0.20814 0.0706-0.26811 0.16051v-0.14111h-0.12876z"/>
    <path d="m53.112 154.56c-0.19226 0-0.37042 0.13758-0.37042 0.43039 0 0.26987 0.16757 0.41275 0.38629 0.41275 0.11642 0 0.22049-0.0423 0.28928-0.12524l-0.07055-0.0688c-0.05115 0.06-0.12876 0.0917-0.20814 0.0917-0.1076 0-0.26458-0.06-0.2734-0.30162h0.5715c0.0053-0.0547 0.0035-0.1076-0.0053-0.15346-0.03704-0.21696-0.18697-0.28575-0.31926-0.28575zm-0.24342 0.3422c0.02646-0.1905 0.14817-0.24519 0.2346-0.24519 0.13053 0 0.22401 0.11466 0.20814 0.24519z"/>
    <path d="m54.343 154.71c-0.0635-0.0935-0.1711-0.14994-0.30162-0.14994-0.23636 0-0.40393 0.17816-0.40393 0.41981 0 0.24342 0.16757 0.42333 0.39688 0.42333 0.11112 0 0.22049-0.0459 0.29633-0.12876l-0.07232-0.0847c-0.05468 0.0617-0.13406 0.097-0.21343 0.097-0.15699 0-0.27693-0.13053-0.27693-0.31927 0-0.18344 0.11818-0.29809 0.26635-0.29809 0.13758 0 0.20285 0.0952 0.20814 0.10583 0.0071 0.0123-0.0035 0.03 0.01058 0.0406z"/>
    <path d="m54.537 154.21v1.173h0.127v-0.30515l0.1076-0.0988 0.32808 0.41099s0.06879-7e-3 0.15169-7e-3h0.01235l-0.39511-0.48154 0.34043-0.31926h-0.04586c-0.03175 0-0.0635-2e-3 -0.09525-0.0106l-0.40393 0.37571v-0.69144c0-7e-3 0.0018-0.0123 0.0071-0.0212 0.0053-5e-3 0.01235-0.0123 0.01058-0.0247z"/>
   </g>
   <path d="m51.19 153.37-12.7-18.344" fill="none" stroke="#d54747" stroke-width=".14111"/>
   <g fill="#e9e56f" stroke-width=".28222px" aria-label="Game Engine">
    <path d="m25.801 122.33c-0.1464 0-0.4251 0.0917-0.4251 0.57327 0 0.41627 0.23283 0.55386 0.42333 0.55386 0.1023 0 0.22049-0.037 0.32279-0.11466v-0.42862h-0.31221v0.10583h0.19932v0.26282c-0.06174 0.0441-0.13229 0.067-0.19756 0.067-0.07232 0-0.14993-0.0282-0.2099-0.097-0.09172-0.10407-0.10407-0.2593-0.10407-0.37395 0-0.1023 0.01235-0.20108 0.05468-0.28222 0.05645-0.1076 0.15522-0.15699 0.24694-0.15699 0.09878 0 0.17639 0.0547 0.2099 0.12877 0.0053 0.0123 0.01058 0.0265 0.02469 0.0353l0.08643-0.0882c-0.0635-0.11465-0.18344-0.18521-0.31926-0.18521z"/>
    <path d="m26.354 122.73 0.06174 0.0811c0.06703-0.0688 0.15699-0.09 0.23283-0.09 0.09525 0 0.14288 0.0406 0.16581 0.0776 0.02646 0.0441 0.02469 0.097 0.02469 0.13935v0.0282h-0.02469c-0.11994 0-0.24694 0-0.34925 0.037-0.127 0.0459-0.18344 0.14112-0.18344 0.22931 0 0.11818 0.10231 0.22931 0.26988 0.22931 0.09878 0 0.20108-0.037 0.28928-0.10937v0.0882h0.11994v-0.49918c0-0.0653-0.0018-0.127-0.03881-0.1905-0.05292-0.0864-0.15522-0.13229-0.28046-0.13229-0.1076 0-0.21167 0.0335-0.28751 0.11112zm0.49036 0.33338v0.0547c0 0.0406 0 0.0935-0.05468 0.15169-0.02999 0.03-0.10583 0.0952-0.21167 0.0952-0.1076 0-0.16933-0.0688-0.16933-0.13935 0-0.06 0.04057-0.12523 0.14111-0.14993 0.07408-0.0176 0.18168-0.0123 0.26635-0.0123z"/>
    <path d="m27.142 123.44h0.11642v-0.53622c0-0.0388 0.0035-0.0741 0.02646-0.11642 0.02822-0.0529 0.0635-0.0741 0.09701-0.0741 0.02822 0 0.05997 0.0176 0.07408 0.0617 0.01058 0.0335 0.0088 0.0723 0.0088 0.10584v0.55915h0.11818v-0.5327c0-0.0423 0.0035-0.0758 0.03351-0.127 0.01411-0.0212 0.0441-0.0723 0.09349-0.0723 0.02646 0 0.05115 0.0159 0.0635 0.0459 0.01588 0.0335 0.01235 0.0794 0.01235 0.11641v0.5715h0.11997v-0.57326c0-0.067 0.0018-0.13406-0.03351-0.18874-0.02999-0.0459-0.08114-0.0635-0.12524-0.0635-0.07761 0-0.14993 0.0459-0.18168 0.11642-0.01235-0.067-0.06879-0.11642-0.14111-0.11642-0.06703 0-0.12876 0.0423-0.1658 0.0988l0.0018-0.0794h-0.11818z"/>
    <path d="m28.414 122.62c-0.19226 0-0.37042 0.13759-0.37042 0.43039 0 0.26988 0.16757 0.41275 0.38629 0.41275 0.11642 0 0.22049-0.0423 0.28928-0.12523l-0.07056-0.0688c-0.05115 0.06-0.12876 0.0917-0.20814 0.0917-0.1076 0-0.26458-0.06-0.2734-0.30163h0.5715c0.0053-0.0547 0.0035-0.1076-0.0053-0.15346-0.03704-0.21696-0.18697-0.28575-0.31926-0.28575zm-0.24342 0.3422c0.02646-0.1905 0.14817-0.24518 0.2346-0.24518 0.13053 0 0.22401 0.11465 0.20814 0.24518z"/>
    <path d="m29.825 122.34v1.0989h0.67028v-0.10936h-0.5521v-0.40746h0.45861v-0.11289h-0.45861v-0.35983h0.55562v-0.10936z"/>
    <path d="m30.724 123.44h0.12876v-0.4639c0-0.0529 0.0071-0.0935 0.04057-0.13759 0.02999-0.0406 0.1076-0.11289 0.19226-0.11289 0.04057 0 0.08114 0.0176 0.10936 0.0512 0.0441 0.0529 0.0441 0.1217 0.0441 0.17815v0.48507h0.12524v-0.4886c0-0.0617 0-0.12876-0.02822-0.19403-0.04057-0.09-0.12347-0.14111-0.21519-0.14111-0.10936 0-0.20814 0.0706-0.26811 0.16052v-0.14111h-0.12876z"/>
    <path d="m31.707 122.89c0-0.097 0.08114-0.17639 0.17815-0.17639 0.09878 0 0.17815 0.0794 0.17815 0.17639 0 0.097-0.07937 0.17639-0.17815 0.17639-0.09878 0-0.17815-0.0794-0.17815-0.17639zm0.18521-0.27693c-0.16051 0-0.29986 0.127-0.29986 0.28398 0 0.0882 0.0441 0.1711 0.11818 0.21873-0.05821 0.0494-0.09172 0.10406-0.09172 0.15522 0 0.0335 0.01411 0.0811 0.06526 0.10759-0.08643 0.0547-0.13053 0.11466-0.13053 0.17816 0 0.0882 0.08114 0.19226 0.36336 0.19226 0.2734 0 0.37218-0.13935 0.37218-0.24694 0-0.0706-0.04057-0.14111-0.12524-0.17463-0.08467-0.0353-0.18168-0.0229-0.2734-0.0229-0.05997 0-0.09878-5e-3 -0.11465-0.0106-0.03175-9e-3 -0.04939-0.0282-0.04939-0.0529 0-0.0423 0.04939-0.0829 0.05821-0.09 0.03175 0.0123 0.06703 0.0176 0.1023 0.0176 0.15875 0 0.28928-0.127 0.28928-0.27516 0-0.0494-0.01411-0.097-0.04057-0.13759 0.04233-0.0247 0.09172-0.0388 0.14111-0.0388 0.01588 0 0.02999 2e-3 0.04586 5e-3l-0.01411-0.10407c-0.08114-7e-3 -0.16228 0.0194-0.22401 0.0705-0.05115-0.0494-0.11818-0.0758-0.19226-0.0758zm-0.12171 0.78846c0.02999 4e-3 0.07232 7e-3 0.13406 0.0106 0.05997 2e-3 0.12524-4e-3 0.1711 4e-3 0.07408 0.0123 0.09701 0.0582 0.09701 0.0935s-0.02117 0.0776-0.07585 0.1076c-0.05997 0.0318-0.127 0.0353-0.18168 0.0353-0.03704 0-0.10583-2e-3 -0.16581-0.0265-0.06526-0.0265-0.07937-0.0706-0.07937-0.0988 0-0.0582 0.05468-0.10054 0.10054-0.12523z"/>
    <path d="m32.555 122.64v0.10407h0.19403v0.60149h-0.20461v0.10054h0.52211v-0.10054h-0.18874v-0.70556zm0.26106-0.34925c-0.05115 0-0.09172 0.0406-0.09172 0.09s0.04057 0.09 0.09172 0.09 0.09172-0.0406 0.09172-0.09-0.04057-0.09-0.09172-0.09z"/>
    <path d="m33.37 123.44h0.12876v-0.4639c0-0.0529 0.0071-0.0935 0.04057-0.13759 0.02999-0.0406 0.1076-0.11289 0.19226-0.11289 0.04057 0 0.08114 0.0176 0.10936 0.0512 0.0441 0.0529 0.0441 0.1217 0.0441 0.17815v0.48507h0.12524v-0.4886c0-0.0617 0-0.12876-0.02822-0.19403-0.04057-0.09-0.12347-0.14111-0.2152-0.14111-0.10936 0-0.20814 0.0706-0.26811 0.16052v-0.14111h-0.12876z"/>
    <path d="m34.587 122.62c-0.19226 0-0.37042 0.13759-0.37042 0.43039 0 0.26988 0.16757 0.41275 0.38629 0.41275 0.11642 0 0.22049-0.0423 0.28928-0.12523l-0.07055-0.0688c-0.05115 0.06-0.12876 0.0917-0.20814 0.0917-0.1076 0-0.26458-0.06-0.2734-0.30163h0.5715c0.0053-0.0547 0.0035-0.1076-0.0053-0.15346-0.03704-0.21696-0.18697-0.28575-0.31926-0.28575zm-0.24342 0.3422c0.02646-0.1905 0.14817-0.24518 0.2346-0.24518 0.13053 0 0.22401 0.11465 0.20814 0.24518z"/>
   </g>
   <g fill="#e9e56f" stroke-width=".28222px" aria-label="core">
    <path d="m25.323 127.8c-0.0635-0.0935-0.1711-0.14993-0.30162-0.14993-0.23636 0-0.40393 0.17815-0.40393 0.4198 0 0.24342 0.16757 0.42334 0.39688 0.42334 0.11112 0 0.22049-0.0459 0.29633-0.12877l-0.07232-0.0847c-0.05468 0.0617-0.13406 0.097-0.21343 0.097-0.15699 0-0.27693-0.13053-0.27693-0.31926 0-0.18345 0.11818-0.2981 0.26635-0.2981 0.13758 0 0.20285 0.0953 0.20814 0.10583 0.0071 0.0123-0.0035 0.03 0.01058 0.0406z"/>
    <path d="m26.212 128.07c0-0.27869-0.17639-0.42333-0.35983-0.42333-0.20461 0-0.381 0.17639-0.381 0.42686 0 0.24518 0.17462 0.41804 0.37747 0.41804 0.1905 0 0.36336-0.15346 0.36336-0.42157zm-0.36865-0.31573c0.11642 0 0.23989 0.10054 0.23989 0.32102 0 0.20285-0.11642 0.30516-0.23283 0.30516-0.12876 0-0.24518-0.11995-0.24518-0.31927 0-0.19755 0.11465-0.30691 0.23812-0.30691z"/>
    <path d="m26.458 127.67v0.80609h0.127v-0.39158c0-0.0494 0.0018-0.1023 0.05645-0.18873 0.07408-0.11642 0.16933-0.13582 0.22754-0.13582 0.06703 0 0.10936 0.0318 0.13229 0.06 0.01058 0.0141 0.01588 0.0282 0.02999 0.0406l0.05997-0.12171c-0.05115-0.0529-0.12524-0.0882-0.2152-0.0882-0.11818 0-0.23812 0.06-0.29104 0.17463l0.0053-0.15522z"/>
    <path d="m27.62 127.65c-0.19226 0-0.37042 0.13759-0.37042 0.43039 0 0.26988 0.16757 0.41275 0.38629 0.41275 0.11642 0 0.22049-0.0423 0.28928-0.12523l-0.07056-0.0688c-0.05115 0.06-0.12876 0.0917-0.20814 0.0917-0.1076 0-0.26458-0.06-0.2734-0.30163h0.5715c0.0053-0.0547 0.0035-0.10759-0.0053-0.15346-0.03704-0.21695-0.18697-0.28575-0.31926-0.28575zm-0.24342 0.3422c0.02646-0.1905 0.14817-0.24518 0.2346-0.24518 0.13053 0 0.22401 0.11465 0.20814 0.24518z"/>
   </g>
  </g>
  <g transform="matrix(-.3124 .24866 -.24866 -.3124 263.54 97.094)">
   <path d="m501.47 274.25-1.2053 3.2778-1.2053-3.2778c0.71162 0.52365 1.6852 0.52064 2.4106 0z" fill="#fff" fill-rule="evenodd" stroke="#d54747" stroke-linejoin="round" stroke-width=".1875"/>
  </g>
 </g>
</svg>
